<?xml version="1.0" encoding="UTF-8" standalone="no"?>
<!DOCTYPE svg PUBLIC "-//W3C//DTD SVG 1.1//EN"
 "http://www.w3.org/Graphics/SVG/1.1/DTD/svg11.dtd">
<!-- Generated by graphviz version 2.40.1 (20161225.0304)
 -->
<!-- Title: oneDegreeRelationshipsDiagram Pages: 1 -->
<svg width="956pt" height="545pt"
 viewBox="0.00 0.00 956.00 545.20" xmlns="http://www.w3.org/2000/svg" xmlns:xlink="http://www.w3.org/1999/xlink">
<g id="graph0" class="graph" transform="scale(1 1) rotate(0) translate(4 541.2)">
<title>oneDegreeRelationshipsDiagram</title>
<polygon fill="#ffffff" stroke="transparent" points="-4,4 -4,-541.2 952,-541.2 952,4 -4,4"/>
<text text-anchor="middle" x="72.4936" y="-7.3" font-family="Helvetica,sans-Serif" font-size="11.00" fill="#000000">Generated by SchemaSpy</text>
<!-- amendments -->
<g id="node1" class="node">
<title>amendments</title>
<g id="a_node1"><a xlink:href="../../tables/amendments.html" xlink:title="amendments" target="_top">
<polygon fill="#ffffff" stroke="transparent" points="440,-144.7 440,-410.7 711,-410.7 711,-144.7 440,-144.7"/>
<polygon fill="#f5f5f5" stroke="transparent" points="442.5,-385.7 442.5,-408.7 709.5,-408.7 709.5,-385.7 442.5,-385.7"/>
<polygon fill="none" stroke="#000000" points="442.5,-385.7 442.5,-408.7 709.5,-408.7 709.5,-385.7 442.5,-385.7"/>
<text text-anchor="start" x="447.5" y="-394.3" font-family="Helvetica,sans-Serif" font-weight="bold" font-size="11.00" fill="#000000">amendments</text>
<text text-anchor="start" x="674.5437" y="-393.8" font-family="Helvetica,sans-Serif" font-size="11.00" fill="#000000">[table]</text>
<polygon fill="none" stroke="#000000" points="442.5,-363.7 442.5,-385.7 592.5,-385.7 592.5,-363.7 442.5,-363.7"/>
<image xlink:href="../../images/primaryKeys.png" width="11px" height="12px" preserveAspectRatio="xMinYMin meet" x="447.5" y="-380.7"/>
<text text-anchor="start" x="462.5" y="-370.8" font-family="Helvetica,sans-Serif" font-size="11.00" fill="#000000">amendment_id</text>
<polygon fill="none" stroke="#000000" points="592.5,-363.7 592.5,-385.7 709.5,-385.7 709.5,-363.7 592.5,-363.7"/>
<text text-anchor="start" x="595.5" y="-371.4" font-family="Helvetica,sans-Serif" font-size="11.00" fill="#000000">int[10]</text>
<polygon fill="none" stroke="#000000" points="442.5,-341.7 442.5,-363.7 592.5,-363.7 592.5,-341.7 442.5,-341.7"/>
<text text-anchor="start" x="462.5" y="-348.8" font-family="Helvetica,sans-Serif" font-size="11.00" fill="#000000">amendment_date</text>
<polygon fill="none" stroke="#000000" points="592.5,-341.7 592.5,-363.7 709.5,-363.7 709.5,-341.7 592.5,-341.7"/>
<text text-anchor="start" x="595.5" y="-349.4" font-family="Helvetica,sans-Serif" font-size="11.00" fill="#000000">date[10]</text>
<polygon fill="none" stroke="#000000" points="442.5,-319.7 442.5,-341.7 592.5,-341.7 592.5,-319.7 442.5,-319.7"/>
<image xlink:href="../../images/foreignKeys.png" width="11px" height="12px" preserveAspectRatio="xMinYMin meet" x="447.5" y="-336.7"/>
<text text-anchor="start" x="462.5" y="-326.8" font-family="Helvetica,sans-Serif" font-size="11.00" fill="#000000">amendment_by</text>
<polygon fill="none" stroke="#000000" points="592.5,-319.7 592.5,-341.7 709.5,-341.7 709.5,-319.7 592.5,-319.7"/>
<text text-anchor="start" x="595.5" y="-327.4" font-family="Helvetica,sans-Serif" font-size="11.00" fill="#000000">varchar[50]</text>
<polygon fill="none" stroke="#000000" points="442.5,-297.7 442.5,-319.7 592.5,-319.7 592.5,-297.7 442.5,-297.7"/>
<image xlink:href="../../images/foreignKeys.png" width="11px" height="12px" preserveAspectRatio="xMinYMin meet" x="447.5" y="-314.7"/>
<text text-anchor="start" x="462.5" y="-304.8" font-family="Helvetica,sans-Serif" font-size="11.00" fill="#000000">amendment_status</text>
<polygon fill="none" stroke="#000000" points="592.5,-297.7 592.5,-319.7 709.5,-319.7 709.5,-297.7 592.5,-297.7"/>
<text text-anchor="start" x="595.5" y="-305.4" font-family="Helvetica,sans-Serif" font-size="11.00" fill="#000000">varchar[50]</text>
<polygon fill="#ffffff" stroke="transparent" points="442.5,-275.7 442.5,-297.7 592.5,-297.7 592.5,-275.7 442.5,-275.7"/>
<polygon fill="none" stroke="#000000" points="442.5,-275.7 442.5,-297.7 592.5,-297.7 592.5,-275.7 442.5,-275.7"/>
<image xlink:href="../../images/foreignKeys.png" width="11px" height="12px" preserveAspectRatio="xMinYMin meet" x="447.5" y="-292.7"/>
<text text-anchor="start" x="462.5" y="-282.8" font-family="Helvetica,sans-Serif" font-size="11.00" fill="#000000">pid</text>
<polygon fill="none" stroke="#000000" points="592.5,-275.7 592.5,-297.7 709.5,-297.7 709.5,-275.7 592.5,-275.7"/>
<text text-anchor="start" x="595.5" y="-283.4" font-family="Helvetica,sans-Serif" font-size="11.00" fill="#000000">bigint[19]</text>
<polygon fill="none" stroke="#000000" points="442.5,-253.7 442.5,-275.7 592.5,-275.7 592.5,-253.7 442.5,-253.7"/>
<text text-anchor="start" x="462.5" y="-260.8" font-family="Helvetica,sans-Serif" font-size="11.00" fill="#000000">amendment_desc</text>
<polygon fill="none" stroke="#000000" points="592.5,-253.7 592.5,-275.7 709.5,-275.7 709.5,-253.7 592.5,-253.7"/>
<text text-anchor="start" x="595.0645" y="-261.4" font-family="Helvetica,sans-Serif" font-size="11.00" fill="#000000">mediumtext[16777215]</text>
<polygon fill="none" stroke="#000000" points="442.5,-231.7 442.5,-253.7 592.5,-253.7 592.5,-231.7 442.5,-231.7"/>
<image xlink:href="../../images/foreignKeys.png" width="11px" height="12px" preserveAspectRatio="xMinYMin meet" x="447.5" y="-248.7"/>
<text text-anchor="start" x="462.5" y="-238.8" font-family="Helvetica,sans-Serif" font-size="11.00" fill="#000000">created_by</text>
<polygon fill="none" stroke="#000000" points="592.5,-231.7 592.5,-253.7 709.5,-253.7 709.5,-231.7 592.5,-231.7"/>
<text text-anchor="start" x="595.5" y="-239.4" font-family="Helvetica,sans-Serif" font-size="11.00" fill="#000000">int[10]</text>
<polygon fill="none" stroke="#000000" points="442.5,-209.7 442.5,-231.7 592.5,-231.7 592.5,-209.7 442.5,-209.7"/>
<image xlink:href="../../images/foreignKeys.png" width="11px" height="12px" preserveAspectRatio="xMinYMin meet" x="447.5" y="-226.7"/>
<text text-anchor="start" x="462.5" y="-216.8" font-family="Helvetica,sans-Serif" font-size="11.00" fill="#000000">modified_by</text>
<polygon fill="none" stroke="#000000" points="592.5,-209.7 592.5,-231.7 709.5,-231.7 709.5,-209.7 592.5,-209.7"/>
<text text-anchor="start" x="595.5" y="-217.4" font-family="Helvetica,sans-Serif" font-size="11.00" fill="#000000">int[10]</text>
<polygon fill="none" stroke="#000000" points="442.5,-187.7 442.5,-209.7 592.5,-209.7 592.5,-187.7 442.5,-187.7"/>
<text text-anchor="start" x="462.5" y="-194.8" font-family="Helvetica,sans-Serif" font-size="11.00" fill="#000000">created_time</text>
<polygon fill="none" stroke="#000000" points="592.5,-187.7 592.5,-209.7 709.5,-209.7 709.5,-187.7 592.5,-187.7"/>
<text text-anchor="start" x="595.5" y="-195.4" font-family="Helvetica,sans-Serif" font-size="11.00" fill="#000000">timestamp[19]</text>
<polygon fill="none" stroke="#000000" points="442.5,-165.7 442.5,-187.7 592.5,-187.7 592.5,-165.7 442.5,-165.7"/>
<text text-anchor="start" x="462.5" y="-172.8" font-family="Helvetica,sans-Serif" font-size="11.00" fill="#000000">modified_time</text>
<polygon fill="none" stroke="#000000" points="592.5,-165.7 592.5,-187.7 709.5,-187.7 709.5,-165.7 592.5,-165.7"/>
<text text-anchor="start" x="595.5" y="-173.4" font-family="Helvetica,sans-Serif" font-size="11.00" fill="#000000">timestamp[19]</text>
<polygon fill="#ffffff" stroke="transparent" points="442.5,-146.7 442.5,-165.7 521.5,-165.7 521.5,-146.7 442.5,-146.7"/>
<polygon fill="none" stroke="#000000" points="442.5,-146.7 442.5,-165.7 521.5,-165.7 521.5,-146.7 442.5,-146.7"/>
<text text-anchor="start" x="445.5" y="-152.8" font-family="Helvetica,sans-Serif" font-size="11.00" fill="#000000">&lt; 5</text>
<polygon fill="#ffffff" stroke="transparent" points="521.5,-146.7 521.5,-165.7 592.5,-165.7 592.5,-146.7 521.5,-146.7"/>
<polygon fill="none" stroke="#000000" points="521.5,-146.7 521.5,-165.7 592.5,-165.7 592.5,-146.7 521.5,-146.7"/>
<text text-anchor="start" x="583.3862" y="-152.8" font-family="Helvetica,sans-Serif" font-size="11.00" fill="#000000"> &#160;</text>
<polygon fill="#ffffff" stroke="transparent" points="592.5,-146.7 592.5,-165.7 709.5,-165.7 709.5,-146.7 592.5,-146.7"/>
<polygon fill="none" stroke="#000000" points="592.5,-146.7 592.5,-165.7 709.5,-165.7 709.5,-146.7 592.5,-146.7"/>
<text text-anchor="start" x="690.9053" y="-152.8" font-family="Helvetica,sans-Serif" font-size="11.00" fill="#000000">1 &gt;</text>
<polygon fill="none" stroke="#000000" stroke-width="2" points="441,-145.7 441,-409.7 710,-409.7 710,-145.7 441,-145.7"/>
</a>
</g>
</g>
<!-- list_options -->
<g id="node2" class="node">
<title>list_options</title>
<g id="a_node2"><a xlink:href="../../tables/list_options.html" xlink:title="list_options" target="_top">
<polygon fill="#ffffff" stroke="transparent" points="241.5,-428.2 241.5,-533.2 373.5,-533.2 373.5,-428.2 241.5,-428.2"/>
<polygon fill="#f5f5f5" stroke="transparent" points="241.5,-509.7 241.5,-532.7 373.5,-532.7 373.5,-509.7 241.5,-509.7"/>
<polygon fill="none" stroke="#000000" points="241.5,-509.7 241.5,-532.7 373.5,-532.7 373.5,-509.7 241.5,-509.7"/>
<text text-anchor="start" x="246.5" y="-518.3" font-family="Helvetica,sans-Serif" font-weight="bold" font-size="11.00" fill="#000000">list_options</text>
<text text-anchor="start" x="338.5437" y="-517.8" font-family="Helvetica,sans-Serif" font-size="11.00" fill="#000000">[table]</text>
<polygon fill="none" stroke="#000000" points="241.5,-487.7 241.5,-509.7 373.5,-509.7 373.5,-487.7 241.5,-487.7"/>
<image xlink:href="../../images/primaryKeys.png" width="11px" height="12px" preserveAspectRatio="xMinYMin meet" x="246.5" y="-504.7"/>
<text text-anchor="start" x="261.5" y="-494.8" font-family="Helvetica,sans-Serif" font-size="11.00" fill="#000000">list_id</text>
<polygon fill="none" stroke="#000000" points="241.5,-465.7 241.5,-487.7 373.5,-487.7 373.5,-465.7 241.5,-465.7"/>
<image xlink:href="../../images/primaryKeys.png" width="11px" height="12px" preserveAspectRatio="xMinYMin meet" x="246.5" y="-482.7"/>
<text text-anchor="start" x="261.5" y="-472.8" font-family="Helvetica,sans-Serif" font-size="11.00" fill="#000000">option_id</text>
<polygon fill="none" stroke="#000000" points="241.5,-446.7 241.5,-465.7 373.5,-465.7 373.5,-446.7 241.5,-446.7"/>
<text text-anchor="start" x="244.5" y="-452.8" font-family="Helvetica,sans-Serif" font-size="11.00" fill="#000000">...</text>
<polygon fill="#ffffff" stroke="transparent" points="241.5,-427.7 241.5,-446.7 293.5,-446.7 293.5,-427.7 241.5,-427.7"/>
<polygon fill="none" stroke="#000000" points="241.5,-427.7 241.5,-446.7 293.5,-446.7 293.5,-427.7 241.5,-427.7"/>
<text text-anchor="start" x="244.5" y="-433.8" font-family="Helvetica,sans-Serif" font-size="11.00" fill="#000000"> &#160;</text>
<polygon fill="#ffffff" stroke="transparent" points="293.5,-427.7 293.5,-446.7 325.5,-446.7 325.5,-427.7 293.5,-427.7"/>
<polygon fill="none" stroke="#000000" points="293.5,-427.7 293.5,-446.7 325.5,-446.7 325.5,-427.7 293.5,-427.7"/>
<text text-anchor="start" x="316.3862" y="-433.8" font-family="Helvetica,sans-Serif" font-size="11.00" fill="#000000"> &#160;</text>
<polygon fill="#ffffff" stroke="transparent" points="325.5,-427.7 325.5,-446.7 373.5,-446.7 373.5,-427.7 325.5,-427.7"/>
<polygon fill="none" stroke="#000000" points="325.5,-427.7 325.5,-446.7 373.5,-446.7 373.5,-427.7 325.5,-427.7"/>
<text text-anchor="start" x="348.7904" y="-433.8" font-family="Helvetica,sans-Serif" font-size="11.00" fill="#000000">46 &gt;</text>
</a>
</g>
</g>
<!-- amendments&#45;&gt;list_options -->
<g id="edge1" class="edge">
<title>amendments:w&#45;&gt;list_options:e</title>
<path fill="none" stroke="#000000" d="M428.2183,-333.2341C381.4835,-352.6214 439.6635,-476.7 373.5,-476.7"/>
<polygon fill="#000000" stroke="#000000" points="434.623,-332.0977 443.129,-334.2446 438.5615,-331.3989 442.5,-330.7 442.5,-330.7 442.5,-330.7 438.5615,-331.3989 441.871,-327.1554 434.623,-332.0977 434.623,-332.0977"/>
<ellipse fill="none" stroke="#000000" cx="431.4723" cy="-332.6568" rx="3.2" ry="3.2"/>
</g>
<!-- amendments&#45;&gt;list_options -->
<g id="edge2" class="edge">
<title>amendments:w&#45;&gt;list_options:e</title>
<path fill="none" stroke="#000000" d="M428.2632,-310.9479C373.6099,-330.8837 448.7011,-476.7 373.5,-476.7"/>
<polygon fill="#000000" stroke="#000000" points="434.5979,-309.9477 443.0615,-312.2559 438.5489,-309.3239 442.5,-308.7 442.5,-308.7 442.5,-308.7 438.5489,-309.3239 441.9385,-305.1441 434.5979,-309.9477 434.5979,-309.9477"/>
<ellipse fill="none" stroke="#000000" cx="431.437" cy="-310.4468" rx="3.2" ry="3.2"/>
</g>
<!-- users -->
<g id="node3" class="node">
<title>users</title>
<g id="a_node3"><a xlink:href="../../tables/users.html" xlink:title="users" target="_top">
<polygon fill="#ffffff" stroke="transparent" points="8,-38.2 8,-253.2 175,-253.2 175,-38.2 8,-38.2"/>
<polygon fill="#f5f5f5" stroke="transparent" points="8.5,-229.7 8.5,-252.7 175.5,-252.7 175.5,-229.7 8.5,-229.7"/>
<polygon fill="none" stroke="#000000" points="8.5,-229.7 8.5,-252.7 175.5,-252.7 175.5,-229.7 8.5,-229.7"/>
<text text-anchor="start" x="13.5" y="-238.3" font-family="Helvetica,sans-Serif" font-weight="bold" font-size="11.00" fill="#000000">users</text>
<text text-anchor="start" x="140.5437" y="-237.8" font-family="Helvetica,sans-Serif" font-size="11.00" fill="#000000">[table]</text>
<polygon fill="none" stroke="#000000" points="8.5,-207.7 8.5,-229.7 175.5,-229.7 175.5,-207.7 8.5,-207.7"/>
<image xlink:href="../../images/primaryKeys.png" width="11px" height="12px" preserveAspectRatio="xMinYMin meet" x="13.5" y="-224.7"/>
<text text-anchor="start" x="28.5" y="-214.8" font-family="Helvetica,sans-Serif" font-size="11.00" fill="#000000">id</text>
<polygon fill="none" stroke="#000000" points="8.5,-185.7 8.5,-207.7 175.5,-207.7 175.5,-185.7 8.5,-185.7"/>
<image xlink:href="../../images/primaryKeys.png" width="11px" height="12px" preserveAspectRatio="xMinYMin meet" x="13.5" y="-202.7"/>
<text text-anchor="start" x="28.5" y="-192.8" font-family="Helvetica,sans-Serif" font-size="11.00" fill="#000000">username</text>
<polygon fill="none" stroke="#000000" points="8.5,-163.7 8.5,-185.7 175.5,-185.7 175.5,-163.7 8.5,-163.7"/>
<image xlink:href="../../images/foreignKeys.png" width="11px" height="12px" preserveAspectRatio="xMinYMin meet" x="13.5" y="-180.7"/>
<text text-anchor="start" x="28.5" y="-170.8" font-family="Helvetica,sans-Serif" font-size="11.00" fill="#000000">facility_id</text>
<polygon fill="#ffffff" stroke="transparent" points="8.5,-141.7 8.5,-163.7 175.5,-163.7 175.5,-141.7 8.5,-141.7"/>
<polygon fill="none" stroke="#000000" points="8.5,-141.7 8.5,-163.7 175.5,-163.7 175.5,-141.7 8.5,-141.7"/>
<text text-anchor="start" x="28.5" y="-148.8" font-family="Helvetica,sans-Serif" font-size="11.00" fill="#000000">abook_type</text>
<polygon fill="#ffffff" stroke="transparent" points="8.5,-119.7 8.5,-141.7 175.5,-141.7 175.5,-119.7 8.5,-119.7"/>
<polygon fill="none" stroke="#000000" points="8.5,-119.7 8.5,-141.7 175.5,-141.7 175.5,-119.7 8.5,-119.7"/>
<text text-anchor="start" x="28.5" y="-126.8" font-family="Helvetica,sans-Serif" font-size="11.00" fill="#000000">uuid</text>
<polygon fill="#ffffff" stroke="transparent" points="8.5,-97.7 8.5,-119.7 175.5,-119.7 175.5,-97.7 8.5,-97.7"/>
<polygon fill="none" stroke="#000000" points="8.5,-97.7 8.5,-119.7 175.5,-119.7 175.5,-97.7 8.5,-97.7"/>
<text text-anchor="start" x="28.5" y="-104.8" font-family="Helvetica,sans-Serif" font-size="11.00" fill="#000000">google_signin_email</text>
<polygon fill="none" stroke="#000000" points="8.5,-75.7 8.5,-97.7 175.5,-97.7 175.5,-75.7 8.5,-75.7"/>
<image xlink:href="../../images/foreignKeys.png" width="11px" height="12px" preserveAspectRatio="xMinYMin meet" x="13.5" y="-92.7"/>
<text text-anchor="start" x="28.5" y="-82.8" font-family="Helvetica,sans-Serif" font-size="11.00" fill="#000000">billing_facility_id</text>
<polygon fill="none" stroke="#000000" points="8.5,-56.7 8.5,-75.7 175.5,-75.7 175.5,-56.7 8.5,-56.7"/>
<text text-anchor="start" x="11.5" y="-62.8" font-family="Helvetica,sans-Serif" font-size="11.00" fill="#000000">...</text>
<polygon fill="#ffffff" stroke="transparent" points="8.5,-37.7 8.5,-56.7 82.5,-56.7 82.5,-37.7 8.5,-37.7"/>
<polygon fill="none" stroke="#000000" points="8.5,-37.7 8.5,-56.7 82.5,-56.7 82.5,-37.7 8.5,-37.7"/>
<text text-anchor="start" x="11.5" y="-43.8" font-family="Helvetica,sans-Serif" font-size="11.00" fill="#000000">&lt; 2</text>
<polygon fill="#ffffff" stroke="transparent" points="82.5,-37.7 82.5,-56.7 121.5,-56.7 121.5,-37.7 82.5,-37.7"/>
<polygon fill="none" stroke="#000000" points="82.5,-37.7 82.5,-56.7 121.5,-56.7 121.5,-37.7 82.5,-37.7"/>
<text text-anchor="start" x="112.3862" y="-43.8" font-family="Helvetica,sans-Serif" font-size="11.00" fill="#000000"> &#160;</text>
<polygon fill="#ffffff" stroke="transparent" points="121.5,-37.7 121.5,-56.7 175.5,-56.7 175.5,-37.7 121.5,-37.7"/>
<polygon fill="none" stroke="#000000" points="121.5,-37.7 121.5,-56.7 175.5,-56.7 175.5,-37.7 121.5,-37.7"/>
<text text-anchor="start" x="150.7904" y="-43.8" font-family="Helvetica,sans-Serif" font-size="11.00" fill="#000000">61 &gt;</text>
</a>
</g>
</g>
<!-- amendments&#45;&gt;users -->
<g id="edge3" class="edge">
<title>amendments:w&#45;&gt;users:e</title>
<path fill="none" stroke="#000000" d="M428.4659,-238.9699C409.3518,-225.3378 429.3458,-178.0568 399,-159.7 329.4087,-117.6029 287.9682,-121.8095 216,-159.7 187.8565,-174.5172 207.3057,-218.7 175.5,-218.7"/>
<polygon fill="#000000" stroke="#000000" points="434.7684,-240.645 441.5753,-246.1792 438.6342,-241.6725 442.5,-242.7 442.5,-242.7 442.5,-242.7 438.6342,-241.6725 443.4247,-239.2208 434.7684,-240.645 434.7684,-240.645"/>
<ellipse fill="none" stroke="#000000" cx="431.6758" cy="-239.823" rx="3.2" ry="3.2"/>
</g>
<!-- amendments&#45;&gt;users -->
<g id="edge4" class="edge">
<title>amendments:w&#45;&gt;users:e</title>
<path fill="none" stroke="#000000" d="M428.4163,-217.2194C406.9621,-203.1609 431.7376,-150.3364 399,-129.7 364.5978,-108.0143 250.1961,-107.6909 216,-129.7 179.4562,-153.2201 218.9585,-218.7 175.5,-218.7"/>
<polygon fill="#000000" stroke="#000000" points="434.7337,-218.7806 441.6363,-224.1949 438.6168,-219.7403 442.5,-220.7 442.5,-220.7 442.5,-220.7 438.6168,-219.7403 443.3637,-217.2051 434.7337,-218.7806 434.7337,-218.7806"/>
<ellipse fill="none" stroke="#000000" cx="431.6271" cy="-218.0129" rx="3.2" ry="3.2"/>
</g>
<!-- patient_data -->
<g id="node4" class="node">
<title>patient_data</title>
<g id="a_node4"><a xlink:href="../../tables/patient_data.html" xlink:title="patient_data" target="_top">
<polygon fill="#ffffff" stroke="transparent" points="224,-170.2 224,-407.2 391,-407.2 391,-170.2 224,-170.2"/>
<polygon fill="#f5f5f5" stroke="transparent" points="224.5,-383.7 224.5,-406.7 391.5,-406.7 391.5,-383.7 224.5,-383.7"/>
<polygon fill="none" stroke="#000000" points="224.5,-383.7 224.5,-406.7 391.5,-406.7 391.5,-383.7 224.5,-383.7"/>
<text text-anchor="start" x="229.5" y="-392.3" font-family="Helvetica,sans-Serif" font-weight="bold" font-size="11.00" fill="#000000">patient_data</text>
<text text-anchor="start" x="356.5437" y="-391.8" font-family="Helvetica,sans-Serif" font-size="11.00" fill="#000000">[table]</text>
<polygon fill="#ffffff" stroke="transparent" points="224.5,-361.7 224.5,-383.7 391.5,-383.7 391.5,-361.7 224.5,-361.7"/>
<polygon fill="none" stroke="#000000" points="224.5,-361.7 224.5,-383.7 391.5,-383.7 391.5,-361.7 224.5,-361.7"/>
<text text-anchor="start" x="244.5" y="-368.8" font-family="Helvetica,sans-Serif" font-size="11.00" fill="#000000">id</text>
<polygon fill="none" stroke="#000000" points="224.5,-339.7 224.5,-361.7 391.5,-361.7 391.5,-339.7 224.5,-339.7"/>
<image xlink:href="../../images/foreignKeys.png" width="11px" height="12px" preserveAspectRatio="xMinYMin meet" x="229.5" y="-356.7"/>
<text text-anchor="start" x="244.5" y="-346.8" font-family="Helvetica,sans-Serif" font-size="11.00" fill="#000000">pharmacy_id</text>
<polygon fill="none" stroke="#000000" points="224.5,-317.7 224.5,-339.7 391.5,-339.7 391.5,-317.7 224.5,-317.7"/>
<image xlink:href="../../images/foreignKeys.png" width="11px" height="12px" preserveAspectRatio="xMinYMin meet" x="229.5" y="-334.7"/>
<text text-anchor="start" x="244.5" y="-324.8" font-family="Helvetica,sans-Serif" font-size="11.00" fill="#000000">providerID</text>
<polygon fill="none" stroke="#000000" points="224.5,-295.7 224.5,-317.7 391.5,-317.7 391.5,-295.7 224.5,-295.7"/>
<image xlink:href="../../images/foreignKeys.png" width="11px" height="12px" preserveAspectRatio="xMinYMin meet" x="229.5" y="-312.7"/>
<text text-anchor="start" x="244.5" y="-302.8" font-family="Helvetica,sans-Serif" font-size="11.00" fill="#000000">ref_providerID</text>
<polygon fill="none" stroke="#000000" points="224.5,-273.7 224.5,-295.7 391.5,-295.7 391.5,-273.7 224.5,-273.7"/>
<image xlink:href="../../images/primaryKeys.png" width="11px" height="12px" preserveAspectRatio="xMinYMin meet" x="229.5" y="-290.7"/>
<text text-anchor="start" x="244.5" y="-280.8" font-family="Helvetica,sans-Serif" font-size="11.00" fill="#000000">pid</text>
<polygon fill="#ffffff" stroke="transparent" points="224.5,-251.7 224.5,-273.7 391.5,-273.7 391.5,-251.7 224.5,-251.7"/>
<polygon fill="none" stroke="#000000" points="224.5,-251.7 224.5,-273.7 391.5,-273.7 391.5,-251.7 224.5,-251.7"/>
<text text-anchor="start" x="244.5" y="-258.8" font-family="Helvetica,sans-Serif" font-size="11.00" fill="#000000">uuid</text>
<polygon fill="none" stroke="#000000" points="224.5,-229.7 224.5,-251.7 391.5,-251.7 391.5,-229.7 224.5,-229.7"/>
<image xlink:href="../../images/foreignKeys.png" width="11px" height="12px" preserveAspectRatio="xMinYMin meet" x="229.5" y="-246.7"/>
<text text-anchor="start" x="244.5" y="-236.8" font-family="Helvetica,sans-Serif" font-size="11.00" fill="#000000">created_by</text>
<polygon fill="none" stroke="#000000" points="224.5,-207.7 224.5,-229.7 391.5,-229.7 391.5,-207.7 224.5,-207.7"/>
<image xlink:href="../../images/foreignKeys.png" width="11px" height="12px" preserveAspectRatio="xMinYMin meet" x="229.5" y="-224.7"/>
<text text-anchor="start" x="244.5" y="-214.8" font-family="Helvetica,sans-Serif" font-size="11.00" fill="#000000">updated_by</text>
<polygon fill="none" stroke="#000000" points="224.5,-188.7 224.5,-207.7 391.5,-207.7 391.5,-188.7 224.5,-188.7"/>
<text text-anchor="start" x="227.5" y="-194.8" font-family="Helvetica,sans-Serif" font-size="11.00" fill="#000000">...</text>
<polygon fill="#ffffff" stroke="transparent" points="224.5,-169.7 224.5,-188.7 298.5,-188.7 298.5,-169.7 224.5,-169.7"/>
<polygon fill="none" stroke="#000000" points="224.5,-169.7 224.5,-188.7 298.5,-188.7 298.5,-169.7 224.5,-169.7"/>
<text text-anchor="start" x="227.5" y="-175.8" font-family="Helvetica,sans-Serif" font-size="11.00" fill="#000000">&lt; 5</text>
<polygon fill="#ffffff" stroke="transparent" points="298.5,-169.7 298.5,-188.7 337.5,-188.7 337.5,-169.7 298.5,-169.7"/>
<polygon fill="none" stroke="#000000" points="298.5,-169.7 298.5,-188.7 337.5,-188.7 337.5,-169.7 298.5,-169.7"/>
<text text-anchor="start" x="328.3862" y="-175.8" font-family="Helvetica,sans-Serif" font-size="11.00" fill="#000000"> &#160;</text>
<polygon fill="#ffffff" stroke="transparent" points="337.5,-169.7 337.5,-188.7 391.5,-188.7 391.5,-169.7 337.5,-169.7"/>
<polygon fill="none" stroke="#000000" points="337.5,-169.7 337.5,-188.7 391.5,-188.7 391.5,-169.7 337.5,-169.7"/>
<text text-anchor="start" x="366.7904" y="-175.8" font-family="Helvetica,sans-Serif" font-size="11.00" fill="#000000">85 &gt;</text>
</a>
</g>
</g>
<!-- amendments&#45;&gt;patient_data -->
<g id="edge5" class="edge">
<title>amendments:w&#45;&gt;patient_data:e</title>
<path fill="none" stroke="#000000" d="M427.7711,-286.3697C415.7786,-285.8017 408.3358,-284.7 391.5,-284.7"/>
<polygon fill="#000000" stroke="#000000" points="434.502,-286.5206 442.4193,-290.2991 438.501,-286.6103 442.5,-286.7 442.5,-286.7 442.5,-286.7 438.501,-286.6103 442.5807,-283.1009 434.502,-286.5206 434.502,-286.5206"/>
<ellipse fill="none" stroke="#000000" cx="431.3028" cy="-286.4489" rx="3.2" ry="3.2"/>
</g>
<!-- patient_data&#45;&gt;users -->
<g id="edge10" class="edge">
<title>patient_data:w&#45;&gt;users:e</title>
<path fill="none" stroke="#000000" d="M210.1297,-237.2625C198.5865,-231.075 193.4041,-218.7 175.5,-218.7"/>
<polygon fill="#000000" stroke="#000000" points="216.7195,-238.8388 223.6625,-244.2012 220.6098,-239.7694 224.5,-240.7 224.5,-240.7 224.5,-240.7 220.6098,-239.7694 225.3375,-237.1988 216.7195,-238.8388 216.7195,-238.8388"/>
<ellipse fill="none" stroke="#000000" cx="213.6073" cy="-238.0943" rx="3.2" ry="3.2"/>
</g>
<!-- patient_data&#45;&gt;users -->
<g id="edge11" class="edge">
<title>patient_data:w&#45;&gt;users:e</title>
<path fill="none" stroke="#000000" d="M210.282,-324.785C182.6981,-305.1897 222.9572,-218.7 175.5,-218.7"/>
<polygon fill="#000000" stroke="#000000" points="216.7871,-326.5762 223.5443,-332.1708 220.6435,-327.6381 224.5,-328.7 224.5,-328.7 224.5,-328.7 220.6435,-327.6381 225.4557,-325.2292 216.7871,-326.5762 216.7871,-326.5762"/>
<ellipse fill="none" stroke="#000000" cx="213.7019" cy="-325.7266" rx="3.2" ry="3.2"/>
</g>
<!-- patient_data&#45;&gt;users -->
<g id="edge12" class="edge">
<title>patient_data:w&#45;&gt;users:e</title>
<path fill="none" stroke="#000000" d="M210.4863,-302.2151C189.2228,-284.2824 214.1452,-218.7 175.5,-218.7"/>
<polygon fill="#000000" stroke="#000000" points="216.8807,-304.2615 223.4027,-310.1287 220.6903,-305.4807 224.5,-306.7 224.5,-306.7 224.5,-306.7 220.6903,-305.4807 225.5973,-303.2713 216.8807,-304.2615 216.8807,-304.2615"/>
<ellipse fill="none" stroke="#000000" cx="213.833" cy="-303.2861" rx="3.2" ry="3.2"/>
</g>
<!-- patient_data&#45;&gt;users -->
<g id="edge13" class="edge">
<title>patient_data:w&#45;&gt;users:e</title>
<path fill="none" stroke="#000000" d="M209.9909,-218.7C198.6774,-218.7 191.4931,-218.7 175.5,-218.7"/>
<polygon fill="#000000" stroke="#000000" points="216.5,-218.7001 224.5,-222.3 220.5,-218.7 224.5,-218.7 224.5,-218.7 224.5,-218.7 220.5,-218.7 224.5,-215.1 216.5,-218.7001 216.5,-218.7001"/>
<ellipse fill="none" stroke="#000000" cx="213.3" cy="-218.7001" rx="3.2" ry="3.2"/>
</g>
<!-- amendments_history -->
<g id="node5" class="node">
<title>amendments_history</title>
<g id="a_node5"><a xlink:href="../../tables/amendments_history.html" xlink:title="amendments_history" target="_top">
<polygon fill="#ffffff" stroke="transparent" points="760,-316.2 760,-465.2 940,-465.2 940,-316.2 760,-316.2"/>
<polygon fill="#f5f5f5" stroke="transparent" points="760,-441.7 760,-464.7 940,-464.7 940,-441.7 760,-441.7"/>
<polygon fill="none" stroke="#000000" points="760,-441.7 760,-464.7 940,-464.7 940,-441.7 760,-441.7"/>
<text text-anchor="start" x="765" y="-450.3" font-family="Helvetica,sans-Serif" font-weight="bold" font-size="11.00" fill="#000000">amendments_history</text>
<text text-anchor="start" x="905.5219" y="-449.8" font-family="Helvetica,sans-Serif" font-size="11.00" fill="#000000">[table]</text>
<polygon fill="none" stroke="#000000" points="760,-419.7 760,-441.7 940,-441.7 940,-419.7 760,-419.7"/>
<image xlink:href="../../images/foreignKeys.png" width="11px" height="12px" preserveAspectRatio="xMinYMin meet" x="765" y="-436.7"/>
<text text-anchor="start" x="789" y="-426.8" font-family="Helvetica,sans-Serif" font-size="11.00" fill="#000000">amendment_id</text>
<polygon fill="none" stroke="#000000" points="760,-397.7 760,-419.7 940,-419.7 940,-397.7 760,-397.7"/>
<image xlink:href="../../images/foreignKeys.png" width="11px" height="12px" preserveAspectRatio="xMinYMin meet" x="765" y="-414.7"/>
<text text-anchor="start" x="789" y="-404.8" font-family="Helvetica,sans-Serif" font-size="11.00" fill="#000000">amendment_note</text>
<polygon fill="none" stroke="#000000" points="760,-375.7 760,-397.7 940,-397.7 940,-375.7 760,-375.7"/>
<image xlink:href="../../images/foreignKeys.png" width="11px" height="12px" preserveAspectRatio="xMinYMin meet" x="765" y="-392.7"/>
<text text-anchor="start" x="789" y="-382.8" font-family="Helvetica,sans-Serif" font-size="11.00" fill="#000000">amendment_status</text>
<polygon fill="none" stroke="#000000" points="760,-353.7 760,-375.7 940,-375.7 940,-353.7 760,-353.7"/>
<image xlink:href="../../images/foreignKeys.png" width="11px" height="12px" preserveAspectRatio="xMinYMin meet" x="765" y="-370.7"/>
<text text-anchor="start" x="789" y="-360.8" font-family="Helvetica,sans-Serif" font-size="11.00" fill="#000000">created_by</text>
<polygon fill="none" stroke="#000000" points="760,-334.7 760,-353.7 940,-353.7 940,-334.7 760,-334.7"/>
<text text-anchor="start" x="763" y="-340.8" font-family="Helvetica,sans-Serif" font-size="11.00" fill="#000000">...</text>
<polygon fill="#ffffff" stroke="transparent" points="760,-315.7 760,-334.7 848,-334.7 848,-315.7 760,-315.7"/>
<polygon fill="none" stroke="#000000" points="760,-315.7 760,-334.7 848,-334.7 848,-315.7 760,-315.7"/>
<text text-anchor="start" x="763" y="-321.8" font-family="Helvetica,sans-Serif" font-size="11.00" fill="#000000">&lt; 4</text>
<polygon fill="#ffffff" stroke="transparent" points="848,-315.7 848,-334.7 894,-334.7 894,-315.7 848,-315.7"/>
<polygon fill="none" stroke="#000000" points="848,-315.7 848,-334.7 894,-334.7 894,-315.7 848,-315.7"/>
<text text-anchor="start" x="884.8862" y="-321.8" font-family="Helvetica,sans-Serif" font-size="11.00" fill="#000000"> &#160;</text>
<polygon fill="#ffffff" stroke="transparent" points="894,-315.7 894,-334.7 940,-334.7 940,-315.7 894,-315.7"/>
<polygon fill="none" stroke="#000000" points="894,-315.7 894,-334.7 940,-334.7 940,-315.7 894,-315.7"/>
<text text-anchor="start" x="930.8862" y="-321.8" font-family="Helvetica,sans-Serif" font-size="11.00" fill="#000000"> &#160;</text>
</a>
</g>
</g>
<!-- amendments_history&#45;&gt;amendments -->
<g id="edge6" class="edge">
<title>amendments_history:w&#45;&gt;amendments:e</title>
<path fill="none" stroke="#000000" d="M746.2003,-425.9255C730.8099,-412.3831 736.9922,-374.7 709.5,-374.7"/>
<polygon fill="#000000" stroke="#000000" points="752.4397,-428.0842 758.8229,-434.1021 756.2199,-429.3921 760,-430.7 760,-430.7 760,-430.7 756.2199,-429.3921 761.1771,-427.2979 752.4397,-428.0842 752.4397,-428.0842"/>
<ellipse fill="none" stroke="#000000" cx="749.4156" cy="-427.0379" rx="3.2" ry="3.2"/>
</g>
<!-- amendments_history&#45;&gt;list_options -->
<g id="edge7" class="edge">
<title>amendments_history:w&#45;&gt;list_options:e</title>
<path fill="none" stroke="#000000" d="M746.3263,-413.3662C736.0236,-422.7785 737.4716,-443.8905 719,-452.7 580.0661,-518.9606 527.4256,-476.7 373.5,-476.7"/>
<polygon fill="#000000" stroke="#000000" points="752.4287,-411.2838 761.1627,-412.1071 756.2144,-409.9919 760,-408.7 760,-408.7 760,-408.7 756.2144,-409.9919 758.8373,-405.2929 752.4287,-411.2838 752.4287,-411.2838"/>
<ellipse fill="none" stroke="#000000" cx="749.4002" cy="-412.3173" rx="3.2" ry="3.2"/>
</g>
<!-- amendments_history&#45;&gt;list_options -->
<g id="edge8" class="edge">
<title>amendments_history:w&#45;&gt;list_options:e</title>
<path fill="none" stroke="#000000" d="M746.2758,-391.07C736.8002,-398.7756 735.3165,-414.6311 719,-421.7 601.2313,-472.7218 556.5808,-422.8405 432,-453.7 404.8822,-460.4172 401.4373,-476.7 373.5,-476.7"/>
<polygon fill="#000000" stroke="#000000" points="752.3771,-389.1273 761.0923,-390.1303 756.1886,-387.9136 760,-386.7 760,-386.7 760,-386.7 756.1886,-387.9136 758.9077,-383.2697 752.3771,-389.1273 752.3771,-389.1273"/>
<ellipse fill="none" stroke="#000000" cx="749.3279" cy="-390.0982" rx="3.2" ry="3.2"/>
</g>
<!-- amendments_history&#45;&gt;users -->
<g id="edge9" class="edge">
<title>amendments_history:w&#45;&gt;users:e</title>
<path fill="none" stroke="#000000" d="M745.48,-363.3922C669.9648,-347.9529 792.3755,-199.8215 719,-133.7 635.8765,-58.7942 307.969,-46.9654 216,-110.7 173.8648,-139.8997 226.764,-218.7 175.5,-218.7"/>
<polygon fill="#000000" stroke="#000000" points="752.0323,-363.9823 759.677,-368.2855 756.0161,-364.3412 760,-364.7 760,-364.7 760,-364.7 756.0161,-364.3412 760.323,-361.1145 752.0323,-363.9823 752.0323,-363.9823"/>
<ellipse fill="none" stroke="#000000" cx="748.8452" cy="-363.6952" rx="3.2" ry="3.2"/>
</g>
</g>
</svg>
