<?xml version="1.0" encoding="UTF-8" standalone="no"?>
<!DOCTYPE svg PUBLIC "-//W3C//DTD SVG 1.1//EN"
 "http://www.w3.org/Graphics/SVG/1.1/DTD/svg11.dtd">
<!-- Generated by graphviz version 2.40.1 (20161225.0304)
 -->
<!-- Title: oneDegreeRelationshipsDiagram Pages: 1 -->
<svg width="667pt" height="428pt"
 viewBox="0.00 0.00 667.00 427.70" xmlns="http://www.w3.org/2000/svg" xmlns:xlink="http://www.w3.org/1999/xlink">
<g id="graph0" class="graph" transform="scale(1 1) rotate(0) translate(4 423.7)">
<title>oneDegreeRelationshipsDiagram</title>
<polygon fill="#ffffff" stroke="transparent" points="-4,4 -4,-423.7 663,-423.7 663,4 -4,4"/>
<text text-anchor="middle" x="72.4936" y="-7.3" font-family="Helvetica,sans-Serif" font-size="11.00" fill="#000000">Generated by SchemaSpy</text>
<!-- amendments -->
<g id="node1" class="node">
<title>amendments</title>
<g id="a_node1"><a xlink:href="../../tables/amendments.html" xlink:title="amendments" target="_top">
<polygon fill="#ffffff" stroke="transparent" points="224,-170.2 224,-363.2 374,-363.2 374,-170.2 224,-170.2"/>
<polygon fill="#f5f5f5" stroke="transparent" points="224,-339.7 224,-362.7 374,-362.7 374,-339.7 224,-339.7"/>
<polygon fill="none" stroke="#000000" points="224,-339.7 224,-362.7 374,-362.7 374,-339.7 224,-339.7"/>
<text text-anchor="start" x="229" y="-348.3" font-family="Helvetica,sans-Serif" font-weight="bold" font-size="11.00" fill="#000000">amendments</text>
<text text-anchor="start" x="339.0437" y="-347.8" font-family="Helvetica,sans-Serif" font-size="11.00" fill="#000000">[table]</text>
<polygon fill="none" stroke="#000000" points="224,-317.7 224,-339.7 374,-339.7 374,-317.7 224,-317.7"/>
<image xlink:href="../../images/primaryKeys.png" width="11px" height="12px" preserveAspectRatio="xMinYMin meet" x="229" y="-334.7"/>
<text text-anchor="start" x="244" y="-324.8" font-family="Helvetica,sans-Serif" font-size="11.00" fill="#000000">amendment_id</text>
<polygon fill="none" stroke="#000000" points="224,-295.7 224,-317.7 374,-317.7 374,-295.7 224,-295.7"/>
<image xlink:href="../../images/foreignKeys.png" width="11px" height="12px" preserveAspectRatio="xMinYMin meet" x="229" y="-312.7"/>
<text text-anchor="start" x="244" y="-302.8" font-family="Helvetica,sans-Serif" font-size="11.00" fill="#000000">amendment_by</text>
<polygon fill="none" stroke="#000000" points="224,-273.7 224,-295.7 374,-295.7 374,-273.7 224,-273.7"/>
<image xlink:href="../../images/foreignKeys.png" width="11px" height="12px" preserveAspectRatio="xMinYMin meet" x="229" y="-290.7"/>
<text text-anchor="start" x="244" y="-280.8" font-family="Helvetica,sans-Serif" font-size="11.00" fill="#000000">amendment_status</text>
<polygon fill="#ffffff" stroke="transparent" points="224,-251.7 224,-273.7 374,-273.7 374,-251.7 224,-251.7"/>
<polygon fill="none" stroke="#000000" points="224,-251.7 224,-273.7 374,-273.7 374,-251.7 224,-251.7"/>
<image xlink:href="../../images/foreignKeys.png" width="11px" height="12px" preserveAspectRatio="xMinYMin meet" x="229" y="-268.7"/>
<text text-anchor="start" x="244" y="-258.8" font-family="Helvetica,sans-Serif" font-size="11.00" fill="#000000">pid</text>
<polygon fill="none" stroke="#000000" points="224,-229.7 224,-251.7 374,-251.7 374,-229.7 224,-229.7"/>
<image xlink:href="../../images/foreignKeys.png" width="11px" height="12px" preserveAspectRatio="xMinYMin meet" x="229" y="-246.7"/>
<text text-anchor="start" x="244" y="-236.8" font-family="Helvetica,sans-Serif" font-size="11.00" fill="#000000">created_by</text>
<polygon fill="none" stroke="#000000" points="224,-207.7 224,-229.7 374,-229.7 374,-207.7 224,-207.7"/>
<image xlink:href="../../images/foreignKeys.png" width="11px" height="12px" preserveAspectRatio="xMinYMin meet" x="229" y="-224.7"/>
<text text-anchor="start" x="244" y="-214.8" font-family="Helvetica,sans-Serif" font-size="11.00" fill="#000000">modified_by</text>
<polygon fill="none" stroke="#000000" points="224,-188.7 224,-207.7 374,-207.7 374,-188.7 224,-188.7"/>
<text text-anchor="start" x="227" y="-194.8" font-family="Helvetica,sans-Serif" font-size="11.00" fill="#000000">...</text>
<polygon fill="#ffffff" stroke="transparent" points="224,-169.7 224,-188.7 293,-188.7 293,-169.7 224,-169.7"/>
<polygon fill="none" stroke="#000000" points="224,-169.7 224,-188.7 293,-188.7 293,-169.7 224,-169.7"/>
<text text-anchor="start" x="227" y="-175.8" font-family="Helvetica,sans-Serif" font-size="11.00" fill="#000000">&lt; 5</text>
<polygon fill="#ffffff" stroke="transparent" points="293,-169.7 293,-188.7 329,-188.7 329,-169.7 293,-169.7"/>
<polygon fill="none" stroke="#000000" points="293,-169.7 293,-188.7 329,-188.7 329,-169.7 293,-169.7"/>
<text text-anchor="start" x="319.8862" y="-175.8" font-family="Helvetica,sans-Serif" font-size="11.00" fill="#000000"> &#160;</text>
<polygon fill="#ffffff" stroke="transparent" points="329,-169.7 329,-188.7 374,-188.7 374,-169.7 329,-169.7"/>
<polygon fill="none" stroke="#000000" points="329,-169.7 329,-188.7 374,-188.7 374,-169.7 329,-169.7"/>
<text text-anchor="start" x="355.4053" y="-175.8" font-family="Helvetica,sans-Serif" font-size="11.00" fill="#000000">1 &gt;</text>
</a>
</g>
</g>
<!-- list_options -->
<g id="node2" class="node">
<title>list_options</title>
<g id="a_node2"><a xlink:href="../../tables/list_options.html" xlink:title="list_options" target="_top">
<polygon fill="#ffffff" stroke="transparent" points="25.5,-306.2 25.5,-411.2 157.5,-411.2 157.5,-306.2 25.5,-306.2"/>
<polygon fill="#f5f5f5" stroke="transparent" points="25.5,-387.7 25.5,-410.7 157.5,-410.7 157.5,-387.7 25.5,-387.7"/>
<polygon fill="none" stroke="#000000" points="25.5,-387.7 25.5,-410.7 157.5,-410.7 157.5,-387.7 25.5,-387.7"/>
<text text-anchor="start" x="30.5" y="-396.3" font-family="Helvetica,sans-Serif" font-weight="bold" font-size="11.00" fill="#000000">list_options</text>
<text text-anchor="start" x="122.5437" y="-395.8" font-family="Helvetica,sans-Serif" font-size="11.00" fill="#000000">[table]</text>
<polygon fill="none" stroke="#000000" points="25.5,-365.7 25.5,-387.7 157.5,-387.7 157.5,-365.7 25.5,-365.7"/>
<image xlink:href="../../images/primaryKeys.png" width="11px" height="12px" preserveAspectRatio="xMinYMin meet" x="30.5" y="-382.7"/>
<text text-anchor="start" x="45.5" y="-372.8" font-family="Helvetica,sans-Serif" font-size="11.00" fill="#000000">list_id</text>
<polygon fill="none" stroke="#000000" points="25.5,-343.7 25.5,-365.7 157.5,-365.7 157.5,-343.7 25.5,-343.7"/>
<image xlink:href="../../images/primaryKeys.png" width="11px" height="12px" preserveAspectRatio="xMinYMin meet" x="30.5" y="-360.7"/>
<text text-anchor="start" x="45.5" y="-350.8" font-family="Helvetica,sans-Serif" font-size="11.00" fill="#000000">option_id</text>
<polygon fill="none" stroke="#000000" points="25.5,-324.7 25.5,-343.7 157.5,-343.7 157.5,-324.7 25.5,-324.7"/>
<text text-anchor="start" x="28.5" y="-330.8" font-family="Helvetica,sans-Serif" font-size="11.00" fill="#000000">...</text>
<polygon fill="#ffffff" stroke="transparent" points="25.5,-305.7 25.5,-324.7 77.5,-324.7 77.5,-305.7 25.5,-305.7"/>
<polygon fill="none" stroke="#000000" points="25.5,-305.7 25.5,-324.7 77.5,-324.7 77.5,-305.7 25.5,-305.7"/>
<text text-anchor="start" x="28.5" y="-311.8" font-family="Helvetica,sans-Serif" font-size="11.00" fill="#000000"> &#160;</text>
<polygon fill="#ffffff" stroke="transparent" points="77.5,-305.7 77.5,-324.7 109.5,-324.7 109.5,-305.7 77.5,-305.7"/>
<polygon fill="none" stroke="#000000" points="77.5,-305.7 77.5,-324.7 109.5,-324.7 109.5,-305.7 77.5,-305.7"/>
<text text-anchor="start" x="100.3862" y="-311.8" font-family="Helvetica,sans-Serif" font-size="11.00" fill="#000000"> &#160;</text>
<polygon fill="#ffffff" stroke="transparent" points="109.5,-305.7 109.5,-324.7 157.5,-324.7 157.5,-305.7 109.5,-305.7"/>
<polygon fill="none" stroke="#000000" points="109.5,-305.7 109.5,-324.7 157.5,-324.7 157.5,-305.7 109.5,-305.7"/>
<text text-anchor="start" x="132.7904" y="-311.8" font-family="Helvetica,sans-Serif" font-size="11.00" fill="#000000">46 &gt;</text>
</a>
</g>
</g>
<!-- amendments&#45;&gt;list_options -->
<g id="edge1" class="edge">
<title>amendments:w&#45;&gt;list_options:e</title>
<path fill="none" stroke="#000000" d="M209.7254,-309.8494C188.5036,-320.5281 188.2551,-354.7 157.5,-354.7"/>
<polygon fill="#000000" stroke="#000000" points="216.1879,-308.4236 224.7756,-310.2155 220.0939,-307.5618 224,-306.7 224,-306.7 224,-306.7 220.0939,-307.5618 223.2244,-303.1845 216.1879,-308.4236 216.1879,-308.4236"/>
<ellipse fill="none" stroke="#000000" cx="213.063" cy="-309.1131" rx="3.2" ry="3.2"/>
</g>
<!-- amendments&#45;&gt;list_options -->
<g id="edge2" class="edge">
<title>amendments:w&#45;&gt;list_options:e</title>
<path fill="none" stroke="#000000" d="M209.904,-288.0762C185.1232,-302.059 194.7127,-354.7 157.5,-354.7"/>
<polygon fill="#000000" stroke="#000000" points="216.2201,-286.5635 224.8386,-288.201 220.11,-285.6317 224,-284.7 224,-284.7 224,-284.7 220.11,-285.6317 223.1614,-281.199 216.2201,-286.5635 216.2201,-286.5635"/>
<ellipse fill="none" stroke="#000000" cx="213.1081" cy="-287.3089" rx="3.2" ry="3.2"/>
</g>
<!-- users -->
<g id="node3" class="node">
<title>users</title>
<g id="a_node3"><a xlink:href="../../tables/users.html" xlink:title="users" target="_top">
<polygon fill="#ffffff" stroke="transparent" points="8,-38.2 8,-253.2 175,-253.2 175,-38.2 8,-38.2"/>
<polygon fill="#f5f5f5" stroke="transparent" points="8.5,-229.7 8.5,-252.7 175.5,-252.7 175.5,-229.7 8.5,-229.7"/>
<polygon fill="none" stroke="#000000" points="8.5,-229.7 8.5,-252.7 175.5,-252.7 175.5,-229.7 8.5,-229.7"/>
<text text-anchor="start" x="13.5" y="-238.3" font-family="Helvetica,sans-Serif" font-weight="bold" font-size="11.00" fill="#000000">users</text>
<text text-anchor="start" x="140.5437" y="-237.8" font-family="Helvetica,sans-Serif" font-size="11.00" fill="#000000">[table]</text>
<polygon fill="none" stroke="#000000" points="8.5,-207.7 8.5,-229.7 175.5,-229.7 175.5,-207.7 8.5,-207.7"/>
<image xlink:href="../../images/primaryKeys.png" width="11px" height="12px" preserveAspectRatio="xMinYMin meet" x="13.5" y="-224.7"/>
<text text-anchor="start" x="28.5" y="-214.8" font-family="Helvetica,sans-Serif" font-size="11.00" fill="#000000">id</text>
<polygon fill="#ffffff" stroke="transparent" points="8.5,-185.7 8.5,-207.7 175.5,-207.7 175.5,-185.7 8.5,-185.7"/>
<polygon fill="none" stroke="#000000" points="8.5,-185.7 8.5,-207.7 175.5,-207.7 175.5,-185.7 8.5,-185.7"/>
<text text-anchor="start" x="28.5" y="-192.8" font-family="Helvetica,sans-Serif" font-size="11.00" fill="#000000">uuid</text>
<polygon fill="none" stroke="#000000" points="8.5,-163.7 8.5,-185.7 175.5,-185.7 175.5,-163.7 8.5,-163.7"/>
<image xlink:href="../../images/primaryKeys.png" width="11px" height="12px" preserveAspectRatio="xMinYMin meet" x="13.5" y="-180.7"/>
<text text-anchor="start" x="28.5" y="-170.8" font-family="Helvetica,sans-Serif" font-size="11.00" fill="#000000">username</text>
<polygon fill="none" stroke="#000000" points="8.5,-141.7 8.5,-163.7 175.5,-163.7 175.5,-141.7 8.5,-141.7"/>
<image xlink:href="../../images/foreignKeys.png" width="11px" height="12px" preserveAspectRatio="xMinYMin meet" x="13.5" y="-158.7"/>
<text text-anchor="start" x="28.5" y="-148.8" font-family="Helvetica,sans-Serif" font-size="11.00" fill="#000000">facility_id</text>
<polygon fill="#ffffff" stroke="transparent" points="8.5,-119.7 8.5,-141.7 175.5,-141.7 175.5,-119.7 8.5,-119.7"/>
<polygon fill="none" stroke="#000000" points="8.5,-119.7 8.5,-141.7 175.5,-141.7 175.5,-119.7 8.5,-119.7"/>
<text text-anchor="start" x="28.5" y="-126.8" font-family="Helvetica,sans-Serif" font-size="11.00" fill="#000000">google_signin_email</text>
<polygon fill="#ffffff" stroke="transparent" points="8.5,-97.7 8.5,-119.7 175.5,-119.7 175.5,-97.7 8.5,-97.7"/>
<polygon fill="none" stroke="#000000" points="8.5,-97.7 8.5,-119.7 175.5,-119.7 175.5,-97.7 8.5,-97.7"/>
<text text-anchor="start" x="28.5" y="-104.8" font-family="Helvetica,sans-Serif" font-size="11.00" fill="#000000">abook_type</text>
<polygon fill="none" stroke="#000000" points="8.5,-75.7 8.5,-97.7 175.5,-97.7 175.5,-75.7 8.5,-75.7"/>
<image xlink:href="../../images/foreignKeys.png" width="11px" height="12px" preserveAspectRatio="xMinYMin meet" x="13.5" y="-92.7"/>
<text text-anchor="start" x="28.5" y="-82.8" font-family="Helvetica,sans-Serif" font-size="11.00" fill="#000000">billing_facility_id</text>
<polygon fill="none" stroke="#000000" points="8.5,-56.7 8.5,-75.7 175.5,-75.7 175.5,-56.7 8.5,-56.7"/>
<text text-anchor="start" x="11.5" y="-62.8" font-family="Helvetica,sans-Serif" font-size="11.00" fill="#000000">...</text>
<polygon fill="#ffffff" stroke="transparent" points="8.5,-37.7 8.5,-56.7 82.5,-56.7 82.5,-37.7 8.5,-37.7"/>
<polygon fill="none" stroke="#000000" points="8.5,-37.7 8.5,-56.7 82.5,-56.7 82.5,-37.7 8.5,-37.7"/>
<text text-anchor="start" x="11.5" y="-43.8" font-family="Helvetica,sans-Serif" font-size="11.00" fill="#000000">&lt; 2</text>
<polygon fill="#ffffff" stroke="transparent" points="82.5,-37.7 82.5,-56.7 121.5,-56.7 121.5,-37.7 82.5,-37.7"/>
<polygon fill="none" stroke="#000000" points="82.5,-37.7 82.5,-56.7 121.5,-56.7 121.5,-37.7 82.5,-37.7"/>
<text text-anchor="start" x="112.3862" y="-43.8" font-family="Helvetica,sans-Serif" font-size="11.00" fill="#000000"> &#160;</text>
<polygon fill="#ffffff" stroke="transparent" points="121.5,-37.7 121.5,-56.7 175.5,-56.7 175.5,-37.7 121.5,-37.7"/>
<polygon fill="none" stroke="#000000" points="121.5,-37.7 121.5,-56.7 175.5,-56.7 175.5,-37.7 121.5,-37.7"/>
<text text-anchor="start" x="150.7904" y="-43.8" font-family="Helvetica,sans-Serif" font-size="11.00" fill="#000000">61 &gt;</text>
</a>
</g>
</g>
<!-- amendments&#45;&gt;users -->
<g id="edge3" class="edge">
<title>amendments:w&#45;&gt;users:e</title>
<path fill="none" stroke="#000000" d="M209.7648,-237.2625C198.3432,-231.075 193.2522,-218.7 175.5,-218.7"/>
<polygon fill="#000000" stroke="#000000" points="216.2235,-238.8221 223.1549,-244.1994 220.1118,-239.7611 224,-240.7 224,-240.7 224,-240.7 220.1118,-239.7611 224.8451,-237.2006 216.2235,-238.8221 216.2235,-238.8221"/>
<ellipse fill="none" stroke="#000000" cx="213.1129" cy="-238.0709" rx="3.2" ry="3.2"/>
</g>
<!-- amendments&#45;&gt;users -->
<g id="edge4" class="edge">
<title>amendments:w&#45;&gt;users:e</title>
<path fill="none" stroke="#000000" d="M209.2829,-218.7C198.2886,-218.7 191.1615,-218.7 175.5,-218.7"/>
<polygon fill="#000000" stroke="#000000" points="216,-218.7001 224,-222.3 220,-218.7 224,-218.7 224,-218.7 224,-218.7 220,-218.7 224,-215.1 216,-218.7001 216,-218.7001"/>
<ellipse fill="none" stroke="#000000" cx="212.8" cy="-218.7001" rx="3.2" ry="3.2"/>
</g>
<!-- amendments_history -->
<g id="node4" class="node">
<title>amendments_history</title>
<g id="a_node4"><a xlink:href="../../tables/amendments_history.html" xlink:title="amendments_history" target="_top">
<polygon fill="#ffffff" stroke="transparent" points="423,-259.7 423,-415.7 651,-415.7 651,-259.7 423,-259.7"/>
<polygon fill="#f5f5f5" stroke="transparent" points="425,-390.7 425,-413.7 649,-413.7 649,-390.7 425,-390.7"/>
<polygon fill="none" stroke="#000000" points="425,-390.7 425,-413.7 649,-413.7 649,-390.7 425,-390.7"/>
<text text-anchor="start" x="430" y="-399.3" font-family="Helvetica,sans-Serif" font-weight="bold" font-size="11.00" fill="#000000">amendments_history</text>
<text text-anchor="start" x="614.0437" y="-398.8" font-family="Helvetica,sans-Serif" font-size="11.00" fill="#000000">[table]</text>
<polygon fill="none" stroke="#000000" points="425,-368.7 425,-390.7 587,-390.7 587,-368.7 425,-368.7"/>
<image xlink:href="../../images/foreignKeys.png" width="11px" height="12px" preserveAspectRatio="xMinYMin meet" x="430" y="-385.7"/>
<text text-anchor="start" x="445" y="-375.8" font-family="Helvetica,sans-Serif" font-size="11.00" fill="#000000">amendment_id</text>
<polygon fill="none" stroke="#000000" points="587,-368.7 587,-390.7 649,-390.7 649,-368.7 587,-368.7"/>
<text text-anchor="start" x="589.878" y="-376.4" font-family="Helvetica,sans-Serif" font-size="11.00" fill="#000000">unknown[0]</text>
<polygon fill="none" stroke="#000000" points="425,-346.7 425,-368.7 587,-368.7 587,-346.7 425,-346.7"/>
<image xlink:href="../../images/foreignKeys.png" width="11px" height="12px" preserveAspectRatio="xMinYMin meet" x="430" y="-363.7"/>
<text text-anchor="start" x="445" y="-353.8" font-family="Helvetica,sans-Serif" font-size="11.00" fill="#000000">amendment_note</text>
<polygon fill="none" stroke="#000000" points="587,-346.7 587,-368.7 649,-368.7 649,-346.7 587,-346.7"/>
<text text-anchor="start" x="589.878" y="-354.4" font-family="Helvetica,sans-Serif" font-size="11.00" fill="#000000">unknown[0]</text>
<polygon fill="none" stroke="#000000" points="425,-324.7 425,-346.7 587,-346.7 587,-324.7 425,-324.7"/>
<image xlink:href="../../images/foreignKeys.png" width="11px" height="12px" preserveAspectRatio="xMinYMin meet" x="430" y="-341.7"/>
<text text-anchor="start" x="445" y="-331.8" font-family="Helvetica,sans-Serif" font-size="11.00" fill="#000000">amendment_status</text>
<polygon fill="none" stroke="#000000" points="587,-324.7 587,-346.7 649,-346.7 649,-324.7 587,-324.7"/>
<text text-anchor="start" x="589.878" y="-332.4" font-family="Helvetica,sans-Serif" font-size="11.00" fill="#000000">unknown[0]</text>
<polygon fill="none" stroke="#000000" points="425,-302.7 425,-324.7 587,-324.7 587,-302.7 425,-302.7"/>
<image xlink:href="../../images/foreignKeys.png" width="11px" height="12px" preserveAspectRatio="xMinYMin meet" x="430" y="-319.7"/>
<text text-anchor="start" x="445" y="-309.8" font-family="Helvetica,sans-Serif" font-size="11.00" fill="#000000">created_by</text>
<polygon fill="none" stroke="#000000" points="587,-302.7 587,-324.7 649,-324.7 649,-302.7 587,-302.7"/>
<text text-anchor="start" x="589.878" y="-310.4" font-family="Helvetica,sans-Serif" font-size="11.00" fill="#000000">unknown[0]</text>
<polygon fill="none" stroke="#000000" points="425,-280.7 425,-302.7 587,-302.7 587,-280.7 425,-280.7"/>
<text text-anchor="start" x="445" y="-287.8" font-family="Helvetica,sans-Serif" font-size="11.00" fill="#000000">created_time</text>
<polygon fill="none" stroke="#000000" points="587,-280.7 587,-302.7 649,-302.7 649,-280.7 587,-280.7"/>
<text text-anchor="start" x="589.878" y="-288.4" font-family="Helvetica,sans-Serif" font-size="11.00" fill="#000000">unknown[0]</text>
<polygon fill="#ffffff" stroke="transparent" points="425,-261.7 425,-280.7 510,-280.7 510,-261.7 425,-261.7"/>
<polygon fill="none" stroke="#000000" points="425,-261.7 425,-280.7 510,-280.7 510,-261.7 425,-261.7"/>
<text text-anchor="start" x="428" y="-267.8" font-family="Helvetica,sans-Serif" font-size="11.00" fill="#000000">&lt; 4</text>
<polygon fill="#ffffff" stroke="transparent" points="510,-261.7 510,-280.7 587,-280.7 587,-261.7 510,-261.7"/>
<polygon fill="none" stroke="#000000" points="510,-261.7 510,-280.7 587,-280.7 587,-261.7 510,-261.7"/>
<text text-anchor="start" x="577.8862" y="-267.8" font-family="Helvetica,sans-Serif" font-size="11.00" fill="#000000"> &#160;</text>
<polygon fill="#ffffff" stroke="transparent" points="587,-261.7 587,-280.7 649,-280.7 649,-261.7 587,-261.7"/>
<polygon fill="none" stroke="#000000" points="587,-261.7 587,-280.7 649,-280.7 649,-261.7 587,-261.7"/>
<text text-anchor="start" x="630.4053" y="-267.8" font-family="Helvetica,sans-Serif" font-size="11.00" fill="#000000">0 &gt;</text>
<polygon fill="none" stroke="#000000" stroke-width="2" points="424,-260.7 424,-414.7 650,-414.7 650,-260.7 424,-260.7"/>
</a>
</g>
</g>
<!-- amendments_history&#45;&gt;amendments -->
<g id="edge5" class="edge">
<title>amendments_history:w&#45;&gt;amendments:e</title>
<path fill="none" stroke="#000000" d="M411.137,-374.9935C396.2732,-362.368 400.0451,-328.7 374,-328.7"/>
<polygon fill="#000000" stroke="#000000" points="417.4247,-377.1281 423.8427,-383.1089 421.2123,-378.4141 425,-379.7 425,-379.7 425,-379.7 421.2123,-378.4141 426.1573,-376.2911 417.4247,-377.1281 417.4247,-377.1281"/>
<ellipse fill="none" stroke="#000000" cx="414.3945" cy="-376.0994" rx="3.2" ry="3.2"/>
</g>
<!-- amendments_history&#45;&gt;list_options -->
<g id="edge6" class="edge">
<title>amendments_history:w&#45;&gt;list_options:e</title>
<path fill="none" stroke="#000000" d="M411.0035,-362.3285C400.6209,-371.2228 400.4081,-390.4619 382,-397.7 313.3393,-424.6977 286.1034,-420.6929 216,-397.7 185.3389,-387.6436 189.7682,-354.7 157.5,-354.7"/>
<polygon fill="#000000" stroke="#000000" points="417.4045,-360.2118 426.1303,-361.118 421.2023,-358.9559 425,-357.7 425,-357.7 425,-357.7 421.2023,-358.9559 423.8697,-354.282 417.4045,-360.2118 417.4045,-360.2118"/>
<ellipse fill="none" stroke="#000000" cx="414.3663" cy="-361.2165" rx="3.2" ry="3.2"/>
</g>
<!-- amendments_history&#45;&gt;list_options -->
<g id="edge7" class="edge">
<title>amendments_history:w&#45;&gt;list_options:e</title>
<path fill="none" stroke="#000000" d="M411.1942,-340.103C400.8029,-348.5631 400.0757,-366.8575 382,-373.7 313.0004,-399.8194 288.8701,-385.237 216,-373.7 188.9994,-369.4252 184.8369,-354.7 157.5,-354.7"/>
<polygon fill="#000000" stroke="#000000" points="417.3782,-338.1308 426.0939,-339.1298 421.1891,-336.9154 425,-335.7 425,-335.7 425,-335.7 421.1891,-336.9154 423.9061,-332.2702 417.3782,-338.1308 417.3782,-338.1308"/>
<ellipse fill="none" stroke="#000000" cx="414.3295" cy="-339.1031" rx="3.2" ry="3.2"/>
</g>
<!-- amendments_history&#45;&gt;users -->
<g id="edge8" class="edge">
<title>amendments_history:w&#45;&gt;users:e</title>
<path fill="none" stroke="#000000" d="M410.4918,-311.5573C366.8774,-295.9412 433.9604,-199.1395 382,-159.7 323.2335,-115.0945 281.2826,-125.3294 216,-159.7 187.8565,-174.5172 207.3057,-218.7 175.5,-218.7"/>
<polygon fill="#000000" stroke="#000000" points="417.0858,-312.5311 424.474,-317.2614 421.0429,-313.1156 425,-313.7 425,-313.7 425,-313.7 421.0429,-313.1156 425.526,-310.1386 417.0858,-312.5311 417.0858,-312.5311"/>
<ellipse fill="none" stroke="#000000" cx="413.9202" cy="-312.0636" rx="3.2" ry="3.2"/>
</g>
</g>
</svg>
