<?xml version="1.0" encoding="UTF-8" standalone="no"?>
<!DOCTYPE svg PUBLIC "-//W3C//DTD SVG 1.1//EN"
 "http://www.w3.org/Graphics/SVG/1.1/DTD/svg11.dtd">
<!-- Generated by graphviz version 2.40.1 (20161225.0304)
 -->
<!-- Title: oneDegreeRelationshipsDiagram Pages: 1 -->
<svg width="914pt" height="560pt"
 viewBox="0.00 0.00 914.00 559.97" xmlns="http://www.w3.org/2000/svg" xmlns:xlink="http://www.w3.org/1999/xlink">
<g id="graph0" class="graph" transform="scale(1 1) rotate(0) translate(4 555.9688)">
<title>oneDegreeRelationshipsDiagram</title>
<polygon fill="#ffffff" stroke="transparent" points="-4,4 -4,-555.9688 910,-555.9688 910,4 -4,4"/>
<text text-anchor="middle" x="72.4936" y="-7.3" font-family="Helvetica,sans-Serif" font-size="11.00" fill="#000000">Generated by SchemaSpy</text>
<!-- amendments -->
<g id="node1" class="node">
<title>amendments</title>
<g id="a_node1"><a xlink:href="../../tables/amendments.html" xlink:title="amendments" target="_top">
<polygon fill="#ffffff" stroke="transparent" points="440,-140.4688 440,-406.4688 669,-406.4688 669,-140.4688 440,-140.4688"/>
<polygon fill="#f5f5f5" stroke="transparent" points="442.5,-381.4688 442.5,-404.4688 667.5,-404.4688 667.5,-381.4688 442.5,-381.4688"/>
<polygon fill="none" stroke="#000000" points="442.5,-381.4688 442.5,-404.4688 667.5,-404.4688 667.5,-381.4688 442.5,-381.4688"/>
<text text-anchor="start" x="447.5" y="-390.0688" font-family="Helvetica,sans-Serif" font-weight="bold" font-size="11.00" fill="#000000">amendments</text>
<text text-anchor="start" x="632.5437" y="-389.5688" font-family="Helvetica,sans-Serif" font-size="11.00" fill="#000000">[table]</text>
<polygon fill="none" stroke="#000000" points="442.5,-359.4688 442.5,-381.4688 592.5,-381.4688 592.5,-359.4688 442.5,-359.4688"/>
<image xlink:href="../../images/primaryKeys.png" width="11px" height="12px" preserveAspectRatio="xMinYMin meet" x="447.5" y="-376.469"/>
<text text-anchor="start" x="462.5" y="-366.5688" font-family="Helvetica,sans-Serif" font-size="11.00" fill="#000000">amendment_id</text>
<polygon fill="none" stroke="#000000" points="592.5,-359.4688 592.5,-381.4688 667.5,-381.4688 667.5,-359.4688 592.5,-359.4688"/>
<text text-anchor="start" x="595.5" y="-367.1688" font-family="Helvetica,sans-Serif" font-size="11.00" fill="#000000">int[10]</text>
<polygon fill="none" stroke="#000000" points="442.5,-337.4688 442.5,-359.4688 592.5,-359.4688 592.5,-337.4688 442.5,-337.4688"/>
<text text-anchor="start" x="462.5" y="-344.5688" font-family="Helvetica,sans-Serif" font-size="11.00" fill="#000000">amendment_date</text>
<polygon fill="none" stroke="#000000" points="592.5,-337.4688 592.5,-359.4688 667.5,-359.4688 667.5,-337.4688 592.5,-337.4688"/>
<text text-anchor="start" x="595.5" y="-345.1688" font-family="Helvetica,sans-Serif" font-size="11.00" fill="#000000">date[10]</text>
<polygon fill="none" stroke="#000000" points="442.5,-315.4688 442.5,-337.4688 592.5,-337.4688 592.5,-315.4688 442.5,-315.4688"/>
<image xlink:href="../../images/foreignKeys.png" width="11px" height="12px" preserveAspectRatio="xMinYMin meet" x="447.5" y="-332.469"/>
<text text-anchor="start" x="462.5" y="-322.5688" font-family="Helvetica,sans-Serif" font-size="11.00" fill="#000000">amendment_by</text>
<polygon fill="none" stroke="#000000" points="592.5,-315.4688 592.5,-337.4688 667.5,-337.4688 667.5,-315.4688 592.5,-315.4688"/>
<text text-anchor="start" x="595.5" y="-323.1688" font-family="Helvetica,sans-Serif" font-size="11.00" fill="#000000">varchar[50]</text>
<polygon fill="none" stroke="#000000" points="442.5,-293.4688 442.5,-315.4688 592.5,-315.4688 592.5,-293.4688 442.5,-293.4688"/>
<image xlink:href="../../images/foreignKeys.png" width="11px" height="12px" preserveAspectRatio="xMinYMin meet" x="447.5" y="-310.469"/>
<text text-anchor="start" x="462.5" y="-300.5688" font-family="Helvetica,sans-Serif" font-size="11.00" fill="#000000">amendment_status</text>
<polygon fill="none" stroke="#000000" points="592.5,-293.4688 592.5,-315.4688 667.5,-315.4688 667.5,-293.4688 592.5,-293.4688"/>
<text text-anchor="start" x="595.5" y="-301.1688" font-family="Helvetica,sans-Serif" font-size="11.00" fill="#000000">varchar[50]</text>
<polygon fill="#ffffff" stroke="transparent" points="442.5,-271.4688 442.5,-293.4688 592.5,-293.4688 592.5,-271.4688 442.5,-271.4688"/>
<polygon fill="none" stroke="#000000" points="442.5,-271.4688 442.5,-293.4688 592.5,-293.4688 592.5,-271.4688 442.5,-271.4688"/>
<image xlink:href="../../images/foreignKeys.png" width="11px" height="12px" preserveAspectRatio="xMinYMin meet" x="447.5" y="-288.469"/>
<text text-anchor="start" x="462.5" y="-278.5688" font-family="Helvetica,sans-Serif" font-size="11.00" fill="#000000">pid</text>
<polygon fill="none" stroke="#000000" points="592.5,-271.4688 592.5,-293.4688 667.5,-293.4688 667.5,-271.4688 592.5,-271.4688"/>
<text text-anchor="start" x="595.5" y="-279.1688" font-family="Helvetica,sans-Serif" font-size="11.00" fill="#000000">bigint[19]</text>
<polygon fill="none" stroke="#000000" points="442.5,-249.4688 442.5,-271.4688 592.5,-271.4688 592.5,-249.4688 442.5,-249.4688"/>
<text text-anchor="start" x="462.5" y="-256.5688" font-family="Helvetica,sans-Serif" font-size="11.00" fill="#000000">amendment_desc</text>
<polygon fill="none" stroke="#000000" points="592.5,-249.4688 592.5,-271.4688 667.5,-271.4688 667.5,-249.4688 592.5,-249.4688"/>
<text text-anchor="start" x="595.5" y="-257.1688" font-family="Helvetica,sans-Serif" font-size="11.00" fill="#000000">text[65535]</text>
<polygon fill="none" stroke="#000000" points="442.5,-227.4688 442.5,-249.4688 592.5,-249.4688 592.5,-227.4688 442.5,-227.4688"/>
<image xlink:href="../../images/foreignKeys.png" width="11px" height="12px" preserveAspectRatio="xMinYMin meet" x="447.5" y="-244.469"/>
<text text-anchor="start" x="462.5" y="-234.5688" font-family="Helvetica,sans-Serif" font-size="11.00" fill="#000000">created_by</text>
<polygon fill="none" stroke="#000000" points="592.5,-227.4688 592.5,-249.4688 667.5,-249.4688 667.5,-227.4688 592.5,-227.4688"/>
<text text-anchor="start" x="595.5" y="-235.1688" font-family="Helvetica,sans-Serif" font-size="11.00" fill="#000000">int[10]</text>
<polygon fill="none" stroke="#000000" points="442.5,-205.4688 442.5,-227.4688 592.5,-227.4688 592.5,-205.4688 442.5,-205.4688"/>
<image xlink:href="../../images/foreignKeys.png" width="11px" height="12px" preserveAspectRatio="xMinYMin meet" x="447.5" y="-222.469"/>
<text text-anchor="start" x="462.5" y="-212.5688" font-family="Helvetica,sans-Serif" font-size="11.00" fill="#000000">modified_by</text>
<polygon fill="none" stroke="#000000" points="592.5,-205.4688 592.5,-227.4688 667.5,-227.4688 667.5,-205.4688 592.5,-205.4688"/>
<text text-anchor="start" x="595.5" y="-213.1688" font-family="Helvetica,sans-Serif" font-size="11.00" fill="#000000">int[10]</text>
<polygon fill="none" stroke="#000000" points="442.5,-183.4688 442.5,-205.4688 592.5,-205.4688 592.5,-183.4688 442.5,-183.4688"/>
<text text-anchor="start" x="462.5" y="-190.5688" font-family="Helvetica,sans-Serif" font-size="11.00" fill="#000000">created_time</text>
<polygon fill="none" stroke="#000000" points="592.5,-183.4688 592.5,-205.4688 667.5,-205.4688 667.5,-183.4688 592.5,-183.4688"/>
<text text-anchor="start" x="595.4666" y="-191.1688" font-family="Helvetica,sans-Serif" font-size="11.00" fill="#000000">timestamp[19]</text>
<polygon fill="none" stroke="#000000" points="442.5,-161.4688 442.5,-183.4688 592.5,-183.4688 592.5,-161.4688 442.5,-161.4688"/>
<text text-anchor="start" x="462.5" y="-168.5688" font-family="Helvetica,sans-Serif" font-size="11.00" fill="#000000">modified_time</text>
<polygon fill="none" stroke="#000000" points="592.5,-161.4688 592.5,-183.4688 667.5,-183.4688 667.5,-161.4688 592.5,-161.4688"/>
<text text-anchor="start" x="595.4666" y="-169.1688" font-family="Helvetica,sans-Serif" font-size="11.00" fill="#000000">timestamp[19]</text>
<polygon fill="#ffffff" stroke="transparent" points="442.5,-142.4688 442.5,-161.4688 521.5,-161.4688 521.5,-142.4688 442.5,-142.4688"/>
<polygon fill="none" stroke="#000000" points="442.5,-142.4688 442.5,-161.4688 521.5,-161.4688 521.5,-142.4688 442.5,-142.4688"/>
<text text-anchor="start" x="445.5" y="-148.5688" font-family="Helvetica,sans-Serif" font-size="11.00" fill="#000000">&lt; 5</text>
<polygon fill="#ffffff" stroke="transparent" points="521.5,-142.4688 521.5,-161.4688 592.5,-161.4688 592.5,-142.4688 521.5,-142.4688"/>
<polygon fill="none" stroke="#000000" points="521.5,-142.4688 521.5,-161.4688 592.5,-161.4688 592.5,-142.4688 521.5,-142.4688"/>
<text text-anchor="start" x="583.3862" y="-148.5688" font-family="Helvetica,sans-Serif" font-size="11.00" fill="#000000"> &#160;</text>
<polygon fill="#ffffff" stroke="transparent" points="592.5,-142.4688 592.5,-161.4688 667.5,-161.4688 667.5,-142.4688 592.5,-142.4688"/>
<polygon fill="none" stroke="#000000" points="592.5,-142.4688 592.5,-161.4688 667.5,-161.4688 667.5,-142.4688 592.5,-142.4688"/>
<text text-anchor="start" x="648.9053" y="-148.5688" font-family="Helvetica,sans-Serif" font-size="11.00" fill="#000000">1 &gt;</text>
<polygon fill="none" stroke="#000000" stroke-width="2" points="441,-141.4688 441,-405.4688 668,-405.4688 668,-141.4688 441,-141.4688"/>
</a>
</g>
</g>
<!-- list_options -->
<g id="node2" class="node">
<title>list_options</title>
<g id="a_node2"><a xlink:href="../../tables/list_options.html" xlink:title="list_options" target="_top">
<polygon fill="#ffffff" stroke="transparent" points="241.5,-442.9688 241.5,-547.9688 373.5,-547.9688 373.5,-442.9688 241.5,-442.9688"/>
<polygon fill="#f5f5f5" stroke="transparent" points="241.5,-524.4688 241.5,-547.4688 373.5,-547.4688 373.5,-524.4688 241.5,-524.4688"/>
<polygon fill="none" stroke="#000000" points="241.5,-524.4688 241.5,-547.4688 373.5,-547.4688 373.5,-524.4688 241.5,-524.4688"/>
<text text-anchor="start" x="246.5" y="-533.0688" font-family="Helvetica,sans-Serif" font-weight="bold" font-size="11.00" fill="#000000">list_options</text>
<text text-anchor="start" x="338.5437" y="-532.5688" font-family="Helvetica,sans-Serif" font-size="11.00" fill="#000000">[table]</text>
<polygon fill="none" stroke="#000000" points="241.5,-502.4688 241.5,-524.4688 373.5,-524.4688 373.5,-502.4688 241.5,-502.4688"/>
<image xlink:href="../../images/primaryKeys.png" width="11px" height="12px" preserveAspectRatio="xMinYMin meet" x="246.5" y="-519.469"/>
<text text-anchor="start" x="261.5" y="-509.5688" font-family="Helvetica,sans-Serif" font-size="11.00" fill="#000000">list_id</text>
<polygon fill="none" stroke="#000000" points="241.5,-480.4688 241.5,-502.4688 373.5,-502.4688 373.5,-480.4688 241.5,-480.4688"/>
<image xlink:href="../../images/primaryKeys.png" width="11px" height="12px" preserveAspectRatio="xMinYMin meet" x="246.5" y="-497.469"/>
<text text-anchor="start" x="261.5" y="-487.5688" font-family="Helvetica,sans-Serif" font-size="11.00" fill="#000000">option_id</text>
<polygon fill="none" stroke="#000000" points="241.5,-461.4688 241.5,-480.4688 373.5,-480.4688 373.5,-461.4688 241.5,-461.4688"/>
<text text-anchor="start" x="244.5" y="-467.5688" font-family="Helvetica,sans-Serif" font-size="11.00" fill="#000000">...</text>
<polygon fill="#ffffff" stroke="transparent" points="241.5,-442.4688 241.5,-461.4688 293.5,-461.4688 293.5,-442.4688 241.5,-442.4688"/>
<polygon fill="none" stroke="#000000" points="241.5,-442.4688 241.5,-461.4688 293.5,-461.4688 293.5,-442.4688 241.5,-442.4688"/>
<text text-anchor="start" x="244.5" y="-448.5688" font-family="Helvetica,sans-Serif" font-size="11.00" fill="#000000"> &#160;</text>
<polygon fill="#ffffff" stroke="transparent" points="293.5,-442.4688 293.5,-461.4688 325.5,-461.4688 325.5,-442.4688 293.5,-442.4688"/>
<polygon fill="none" stroke="#000000" points="293.5,-442.4688 293.5,-461.4688 325.5,-461.4688 325.5,-442.4688 293.5,-442.4688"/>
<text text-anchor="start" x="316.3862" y="-448.5688" font-family="Helvetica,sans-Serif" font-size="11.00" fill="#000000"> &#160;</text>
<polygon fill="#ffffff" stroke="transparent" points="325.5,-442.4688 325.5,-461.4688 373.5,-461.4688 373.5,-442.4688 325.5,-442.4688"/>
<polygon fill="none" stroke="#000000" points="325.5,-442.4688 325.5,-461.4688 373.5,-461.4688 373.5,-442.4688 325.5,-442.4688"/>
<text text-anchor="start" x="348.7904" y="-448.5688" font-family="Helvetica,sans-Serif" font-size="11.00" fill="#000000">46 &gt;</text>
</a>
</g>
</g>
<!-- amendments&#45;&gt;list_options -->
<g id="edge1" class="edge">
<title>amendments:w&#45;&gt;list_options:e</title>
<path fill="none" stroke="#000000" d="M428.1287,-328.8013C374.8276,-348.8562 447.3983,-491.4688 373.5,-491.4688"/>
<polygon fill="#000000" stroke="#000000" points="434.6033,-327.7505 443.0768,-330.0223 438.5517,-327.1097 442.5,-326.4688 442.5,-326.4688 442.5,-326.4688 438.5517,-327.1097 441.9232,-322.9153 434.6033,-327.7505 434.6033,-327.7505"/>
<ellipse fill="none" stroke="#000000" cx="431.4447" cy="-328.2632" rx="3.2" ry="3.2"/>
</g>
<!-- amendments&#45;&gt;list_options -->
<g id="edge2" class="edge">
<title>amendments:w&#45;&gt;list_options:e</title>
<path fill="none" stroke="#000000" d="M428.0994,-306.5689C366.6651,-327.1134 456.5516,-491.4688 373.5,-491.4688"/>
<polygon fill="#000000" stroke="#000000" points="434.5837,-305.6234 443.0195,-308.0312 438.5419,-305.0461 442.5,-304.4688 442.5,-304.4688 442.5,-304.4688 438.5419,-305.0461 441.9805,-300.9065 434.5837,-305.6234 434.5837,-305.6234"/>
<ellipse fill="none" stroke="#000000" cx="431.4172" cy="-306.0852" rx="3.2" ry="3.2"/>
</g>
<!-- users -->
<g id="node3" class="node">
<title>users</title>
<g id="a_node3"><a xlink:href="../../tables/users.html" xlink:title="users" target="_top">
<polygon fill="#ffffff" stroke="transparent" points="8,-52.9688 8,-267.9688 175,-267.9688 175,-52.9688 8,-52.9688"/>
<polygon fill="#f5f5f5" stroke="transparent" points="8.5,-244.4688 8.5,-267.4688 175.5,-267.4688 175.5,-244.4688 8.5,-244.4688"/>
<polygon fill="none" stroke="#000000" points="8.5,-244.4688 8.5,-267.4688 175.5,-267.4688 175.5,-244.4688 8.5,-244.4688"/>
<text text-anchor="start" x="13.5" y="-253.0688" font-family="Helvetica,sans-Serif" font-weight="bold" font-size="11.00" fill="#000000">users</text>
<text text-anchor="start" x="140.5437" y="-252.5688" font-family="Helvetica,sans-Serif" font-size="11.00" fill="#000000">[table]</text>
<polygon fill="none" stroke="#000000" points="8.5,-222.4688 8.5,-244.4688 175.5,-244.4688 175.5,-222.4688 8.5,-222.4688"/>
<image xlink:href="../../images/primaryKeys.png" width="11px" height="12px" preserveAspectRatio="xMinYMin meet" x="13.5" y="-239.469"/>
<text text-anchor="start" x="28.5" y="-229.5688" font-family="Helvetica,sans-Serif" font-size="11.00" fill="#000000">id</text>
<polygon fill="#ffffff" stroke="transparent" points="8.5,-200.4688 8.5,-222.4688 175.5,-222.4688 175.5,-200.4688 8.5,-200.4688"/>
<polygon fill="none" stroke="#000000" points="8.5,-200.4688 8.5,-222.4688 175.5,-222.4688 175.5,-200.4688 8.5,-200.4688"/>
<text text-anchor="start" x="28.5" y="-207.5688" font-family="Helvetica,sans-Serif" font-size="11.00" fill="#000000">uuid</text>
<polygon fill="none" stroke="#000000" points="8.5,-178.4688 8.5,-200.4688 175.5,-200.4688 175.5,-178.4688 8.5,-178.4688"/>
<image xlink:href="../../images/primaryKeys.png" width="11px" height="12px" preserveAspectRatio="xMinYMin meet" x="13.5" y="-195.469"/>
<text text-anchor="start" x="28.5" y="-185.5688" font-family="Helvetica,sans-Serif" font-size="11.00" fill="#000000">username</text>
<polygon fill="none" stroke="#000000" points="8.5,-156.4688 8.5,-178.4688 175.5,-178.4688 175.5,-156.4688 8.5,-156.4688"/>
<image xlink:href="../../images/foreignKeys.png" width="11px" height="12px" preserveAspectRatio="xMinYMin meet" x="13.5" y="-173.469"/>
<text text-anchor="start" x="28.5" y="-163.5688" font-family="Helvetica,sans-Serif" font-size="11.00" fill="#000000">facility_id</text>
<polygon fill="#ffffff" stroke="transparent" points="8.5,-134.4688 8.5,-156.4688 175.5,-156.4688 175.5,-134.4688 8.5,-134.4688"/>
<polygon fill="none" stroke="#000000" points="8.5,-134.4688 8.5,-156.4688 175.5,-156.4688 175.5,-134.4688 8.5,-134.4688"/>
<text text-anchor="start" x="28.5" y="-141.5688" font-family="Helvetica,sans-Serif" font-size="11.00" fill="#000000">google_signin_email</text>
<polygon fill="#ffffff" stroke="transparent" points="8.5,-112.4688 8.5,-134.4688 175.5,-134.4688 175.5,-112.4688 8.5,-112.4688"/>
<polygon fill="none" stroke="#000000" points="8.5,-112.4688 8.5,-134.4688 175.5,-134.4688 175.5,-112.4688 8.5,-112.4688"/>
<text text-anchor="start" x="28.5" y="-119.5688" font-family="Helvetica,sans-Serif" font-size="11.00" fill="#000000">abook_type</text>
<polygon fill="none" stroke="#000000" points="8.5,-90.4688 8.5,-112.4688 175.5,-112.4688 175.5,-90.4688 8.5,-90.4688"/>
<image xlink:href="../../images/foreignKeys.png" width="11px" height="12px" preserveAspectRatio="xMinYMin meet" x="13.5" y="-107.469"/>
<text text-anchor="start" x="28.5" y="-97.5688" font-family="Helvetica,sans-Serif" font-size="11.00" fill="#000000">billing_facility_id</text>
<polygon fill="none" stroke="#000000" points="8.5,-71.4688 8.5,-90.4688 175.5,-90.4688 175.5,-71.4688 8.5,-71.4688"/>
<text text-anchor="start" x="11.5" y="-77.5688" font-family="Helvetica,sans-Serif" font-size="11.00" fill="#000000">...</text>
<polygon fill="#ffffff" stroke="transparent" points="8.5,-52.4688 8.5,-71.4688 82.5,-71.4688 82.5,-52.4688 8.5,-52.4688"/>
<polygon fill="none" stroke="#000000" points="8.5,-52.4688 8.5,-71.4688 82.5,-71.4688 82.5,-52.4688 8.5,-52.4688"/>
<text text-anchor="start" x="11.5" y="-58.5688" font-family="Helvetica,sans-Serif" font-size="11.00" fill="#000000">&lt; 2</text>
<polygon fill="#ffffff" stroke="transparent" points="82.5,-52.4688 82.5,-71.4688 121.5,-71.4688 121.5,-52.4688 82.5,-52.4688"/>
<polygon fill="none" stroke="#000000" points="82.5,-52.4688 82.5,-71.4688 121.5,-71.4688 121.5,-52.4688 82.5,-52.4688"/>
<text text-anchor="start" x="112.3862" y="-58.5688" font-family="Helvetica,sans-Serif" font-size="11.00" fill="#000000"> &#160;</text>
<polygon fill="#ffffff" stroke="transparent" points="121.5,-52.4688 121.5,-71.4688 175.5,-71.4688 175.5,-52.4688 121.5,-52.4688"/>
<polygon fill="none" stroke="#000000" points="121.5,-52.4688 121.5,-71.4688 175.5,-71.4688 175.5,-52.4688 121.5,-52.4688"/>
<text text-anchor="start" x="150.7904" y="-58.5688" font-family="Helvetica,sans-Serif" font-size="11.00" fill="#000000">61 &gt;</text>
</a>
</g>
</g>
<!-- amendments&#45;&gt;users -->
<g id="edge3" class="edge">
<title>amendments:w&#45;&gt;users:e</title>
<path fill="none" stroke="#000000" d="M428.319,-233.9416C414.2734,-221.622 423.6965,-187.544 399,-174.4688 327.1192,-136.4127 287.9682,-136.5783 216,-174.4688 187.8565,-189.2861 207.3057,-233.4688 175.5,-233.4688"/>
<polygon fill="#000000" stroke="#000000" points="434.8789,-236.0358 441.4051,-241.8983 438.6895,-237.2523 442.5,-238.4688 442.5,-238.4688 442.5,-238.4688 438.6895,-237.2523 443.5949,-235.0394 434.8789,-236.0358 434.8789,-236.0358"/>
<ellipse fill="none" stroke="#000000" cx="431.8305" cy="-235.0626" rx="3.2" ry="3.2"/>
</g>
<!-- amendments&#45;&gt;users -->
<g id="edge4" class="edge">
<title>amendments:w&#45;&gt;users:e</title>
<path fill="none" stroke="#000000" d="M428.256,-212.1674C412.4617,-199.0753 425.9656,-159.6821 399,-144.4688 363.5813,-124.4866 250.1961,-122.4597 216,-144.4688 179.4562,-167.9889 218.9585,-233.4688 175.5,-233.4688"/>
<polygon fill="#000000" stroke="#000000" points="434.8416,-214.1561 441.4593,-219.9151 438.6708,-215.3125 442.5,-216.4688 442.5,-216.4688 442.5,-216.4688 438.6708,-215.3125 443.5407,-213.0226 434.8416,-214.1561 434.8416,-214.1561"/>
<ellipse fill="none" stroke="#000000" cx="431.7782" cy="-213.231" rx="3.2" ry="3.2"/>
</g>
<!-- patient_data -->
<g id="node4" class="node">
<title>patient_data</title>
<g id="a_node4"><a xlink:href="../../tables/patient_data.html" xlink:title="patient_data" target="_top">
<polygon fill="#ffffff" stroke="transparent" points="224,-184.9688 224,-421.9688 391,-421.9688 391,-184.9688 224,-184.9688"/>
<polygon fill="#f5f5f5" stroke="transparent" points="224.5,-398.4688 224.5,-421.4688 391.5,-421.4688 391.5,-398.4688 224.5,-398.4688"/>
<polygon fill="none" stroke="#000000" points="224.5,-398.4688 224.5,-421.4688 391.5,-421.4688 391.5,-398.4688 224.5,-398.4688"/>
<text text-anchor="start" x="229.5" y="-407.0688" font-family="Helvetica,sans-Serif" font-weight="bold" font-size="11.00" fill="#000000">patient_data</text>
<text text-anchor="start" x="356.5437" y="-406.5688" font-family="Helvetica,sans-Serif" font-size="11.00" fill="#000000">[table]</text>
<polygon fill="#ffffff" stroke="transparent" points="224.5,-376.4688 224.5,-398.4688 391.5,-398.4688 391.5,-376.4688 224.5,-376.4688"/>
<polygon fill="none" stroke="#000000" points="224.5,-376.4688 224.5,-398.4688 391.5,-398.4688 391.5,-376.4688 224.5,-376.4688"/>
<text text-anchor="start" x="244.5" y="-383.5688" font-family="Helvetica,sans-Serif" font-size="11.00" fill="#000000">id</text>
<polygon fill="#ffffff" stroke="transparent" points="224.5,-354.4688 224.5,-376.4688 391.5,-376.4688 391.5,-354.4688 224.5,-354.4688"/>
<polygon fill="none" stroke="#000000" points="224.5,-354.4688 224.5,-376.4688 391.5,-376.4688 391.5,-354.4688 224.5,-354.4688"/>
<text text-anchor="start" x="244.5" y="-361.5688" font-family="Helvetica,sans-Serif" font-size="11.00" fill="#000000">uuid</text>
<polygon fill="none" stroke="#000000" points="224.5,-332.4688 224.5,-354.4688 391.5,-354.4688 391.5,-332.4688 224.5,-332.4688"/>
<image xlink:href="../../images/foreignKeys.png" width="11px" height="12px" preserveAspectRatio="xMinYMin meet" x="229.5" y="-349.469"/>
<text text-anchor="start" x="244.5" y="-339.5688" font-family="Helvetica,sans-Serif" font-size="11.00" fill="#000000">pharmacy_id</text>
<polygon fill="none" stroke="#000000" points="224.5,-310.4688 224.5,-332.4688 391.5,-332.4688 391.5,-310.4688 224.5,-310.4688"/>
<image xlink:href="../../images/foreignKeys.png" width="11px" height="12px" preserveAspectRatio="xMinYMin meet" x="229.5" y="-327.469"/>
<text text-anchor="start" x="244.5" y="-317.5688" font-family="Helvetica,sans-Serif" font-size="11.00" fill="#000000">providerID</text>
<polygon fill="none" stroke="#000000" points="224.5,-288.4688 224.5,-310.4688 391.5,-310.4688 391.5,-288.4688 224.5,-288.4688"/>
<image xlink:href="../../images/foreignKeys.png" width="11px" height="12px" preserveAspectRatio="xMinYMin meet" x="229.5" y="-305.469"/>
<text text-anchor="start" x="244.5" y="-295.5688" font-family="Helvetica,sans-Serif" font-size="11.00" fill="#000000">ref_providerID</text>
<polygon fill="none" stroke="#000000" points="224.5,-266.4688 224.5,-288.4688 391.5,-288.4688 391.5,-266.4688 224.5,-266.4688"/>
<image xlink:href="../../images/primaryKeys.png" width="11px" height="12px" preserveAspectRatio="xMinYMin meet" x="229.5" y="-283.469"/>
<text text-anchor="start" x="244.5" y="-273.5688" font-family="Helvetica,sans-Serif" font-size="11.00" fill="#000000">pid</text>
<polygon fill="none" stroke="#000000" points="224.5,-244.4688 224.5,-266.4688 391.5,-266.4688 391.5,-244.4688 224.5,-244.4688"/>
<image xlink:href="../../images/foreignKeys.png" width="11px" height="12px" preserveAspectRatio="xMinYMin meet" x="229.5" y="-261.469"/>
<text text-anchor="start" x="244.5" y="-251.5688" font-family="Helvetica,sans-Serif" font-size="11.00" fill="#000000">created_by</text>
<polygon fill="none" stroke="#000000" points="224.5,-222.4688 224.5,-244.4688 391.5,-244.4688 391.5,-222.4688 224.5,-222.4688"/>
<image xlink:href="../../images/foreignKeys.png" width="11px" height="12px" preserveAspectRatio="xMinYMin meet" x="229.5" y="-239.469"/>
<text text-anchor="start" x="244.5" y="-229.5688" font-family="Helvetica,sans-Serif" font-size="11.00" fill="#000000">updated_by</text>
<polygon fill="none" stroke="#000000" points="224.5,-203.4688 224.5,-222.4688 391.5,-222.4688 391.5,-203.4688 224.5,-203.4688"/>
<text text-anchor="start" x="227.5" y="-209.5688" font-family="Helvetica,sans-Serif" font-size="11.00" fill="#000000">...</text>
<polygon fill="#ffffff" stroke="transparent" points="224.5,-184.4688 224.5,-203.4688 298.5,-203.4688 298.5,-184.4688 224.5,-184.4688"/>
<polygon fill="none" stroke="#000000" points="224.5,-184.4688 224.5,-203.4688 298.5,-203.4688 298.5,-184.4688 224.5,-184.4688"/>
<text text-anchor="start" x="227.5" y="-190.5688" font-family="Helvetica,sans-Serif" font-size="11.00" fill="#000000">&lt; 5</text>
<polygon fill="#ffffff" stroke="transparent" points="298.5,-184.4688 298.5,-203.4688 337.5,-203.4688 337.5,-184.4688 298.5,-184.4688"/>
<polygon fill="none" stroke="#000000" points="298.5,-184.4688 298.5,-203.4688 337.5,-203.4688 337.5,-184.4688 298.5,-184.4688"/>
<text text-anchor="start" x="328.3862" y="-190.5688" font-family="Helvetica,sans-Serif" font-size="11.00" fill="#000000"> &#160;</text>
<polygon fill="#ffffff" stroke="transparent" points="337.5,-184.4688 337.5,-203.4688 391.5,-203.4688 391.5,-184.4688 337.5,-184.4688"/>
<polygon fill="none" stroke="#000000" points="337.5,-184.4688 337.5,-203.4688 391.5,-203.4688 391.5,-184.4688 337.5,-184.4688"/>
<text text-anchor="start" x="366.7904" y="-190.5688" font-family="Helvetica,sans-Serif" font-size="11.00" fill="#000000">85 &gt;</text>
</a>
</g>
</g>
<!-- amendments&#45;&gt;patient_data -->
<g id="edge5" class="edge">
<title>amendments:w&#45;&gt;patient_data:e</title>
<path fill="none" stroke="#000000" d="M427.7457,-281.6432C415.7632,-280.2231 408.4036,-277.4688 391.5,-277.4688"/>
<polygon fill="#000000" stroke="#000000" points="434.5125,-282.0218 442.2988,-286.0632 438.5062,-282.2453 442.5,-282.4688 442.5,-282.4688 442.5,-282.4688 438.5062,-282.2453 442.7012,-278.8745 434.5125,-282.0218 434.5125,-282.0218"/>
<ellipse fill="none" stroke="#000000" cx="431.3175" cy="-281.843" rx="3.2" ry="3.2"/>
</g>
<!-- patient_data&#45;&gt;users -->
<g id="edge10" class="edge">
<title>patient_data:w&#45;&gt;users:e</title>
<path fill="none" stroke="#000000" d="M210.1297,-252.0313C198.5865,-245.8438 193.4041,-233.4688 175.5,-233.4688"/>
<polygon fill="#000000" stroke="#000000" points="216.7195,-253.6076 223.6625,-258.9701 220.6098,-254.5382 224.5,-255.4688 224.5,-255.4688 224.5,-255.4688 220.6098,-254.5382 225.3375,-251.9676 216.7195,-253.6076 216.7195,-253.6076"/>
<ellipse fill="none" stroke="#000000" cx="213.6073" cy="-252.8632" rx="3.2" ry="3.2"/>
</g>
<!-- patient_data&#45;&gt;users -->
<g id="edge11" class="edge">
<title>patient_data:w&#45;&gt;users:e</title>
<path fill="none" stroke="#000000" d="M210.4863,-316.9839C189.2228,-299.0512 214.1452,-233.4688 175.5,-233.4688"/>
<polygon fill="#000000" stroke="#000000" points="216.8807,-319.0303 223.4027,-324.8975 220.6903,-320.2496 224.5,-321.4688 224.5,-321.4688 224.5,-321.4688 220.6903,-320.2496 225.5973,-318.0402 216.8807,-319.0303 216.8807,-319.0303"/>
<ellipse fill="none" stroke="#000000" cx="213.833" cy="-318.0549" rx="3.2" ry="3.2"/>
</g>
<!-- patient_data&#45;&gt;users -->
<g id="edge12" class="edge">
<title>patient_data:w&#45;&gt;users:e</title>
<path fill="none" stroke="#000000" d="M210.8768,-294.7223C194.2322,-279.5891 206.0399,-233.4688 175.5,-233.4688"/>
<polygon fill="#000000" stroke="#000000" points="216.9454,-296.8367 223.3155,-302.8684 220.7227,-298.1527 224.5,-299.4688 224.5,-299.4688 224.5,-299.4688 220.7227,-298.1527 225.6845,-296.0693 216.9454,-296.8367 216.9454,-296.8367"/>
<ellipse fill="none" stroke="#000000" cx="213.9236" cy="-295.7838" rx="3.2" ry="3.2"/>
</g>
<!-- patient_data&#45;&gt;users -->
<g id="edge13" class="edge">
<title>patient_data:w&#45;&gt;users:e</title>
<path fill="none" stroke="#000000" d="M209.9909,-233.4688C198.6774,-233.4688 191.4931,-233.4688 175.5,-233.4688"/>
<polygon fill="#000000" stroke="#000000" points="216.5,-233.4689 224.5,-237.0688 220.5,-233.4689 224.5,-233.4688 224.5,-233.4688 224.5,-233.4688 220.5,-233.4689 224.5,-229.8688 216.5,-233.4689 216.5,-233.4689"/>
<ellipse fill="none" stroke="#000000" cx="213.3" cy="-233.4689" rx="3.2" ry="3.2"/>
</g>
<!-- amendments_history -->
<g id="node5" class="node">
<title>amendments_history</title>
<g id="a_node5"><a xlink:href="../../tables/amendments_history.html" xlink:title="amendments_history" target="_top">
<polygon fill="#ffffff" stroke="transparent" points="718,-316.9688 718,-465.9688 898,-465.9688 898,-316.9688 718,-316.9688"/>
<polygon fill="#f5f5f5" stroke="transparent" points="718,-442.4688 718,-465.4688 898,-465.4688 898,-442.4688 718,-442.4688"/>
<polygon fill="none" stroke="#000000" points="718,-442.4688 718,-465.4688 898,-465.4688 898,-442.4688 718,-442.4688"/>
<text text-anchor="start" x="723" y="-451.0688" font-family="Helvetica,sans-Serif" font-weight="bold" font-size="11.00" fill="#000000">amendments_history</text>
<text text-anchor="start" x="863.5219" y="-450.5688" font-family="Helvetica,sans-Serif" font-size="11.00" fill="#000000">[table]</text>
<polygon fill="none" stroke="#000000" points="718,-420.4688 718,-442.4688 898,-442.4688 898,-420.4688 718,-420.4688"/>
<image xlink:href="../../images/foreignKeys.png" width="11px" height="12px" preserveAspectRatio="xMinYMin meet" x="723" y="-437.469"/>
<text text-anchor="start" x="747" y="-427.5688" font-family="Helvetica,sans-Serif" font-size="11.00" fill="#000000">amendment_id</text>
<polygon fill="none" stroke="#000000" points="718,-398.4688 718,-420.4688 898,-420.4688 898,-398.4688 718,-398.4688"/>
<image xlink:href="../../images/foreignKeys.png" width="11px" height="12px" preserveAspectRatio="xMinYMin meet" x="723" y="-415.469"/>
<text text-anchor="start" x="747" y="-405.5688" font-family="Helvetica,sans-Serif" font-size="11.00" fill="#000000">amendment_note</text>
<polygon fill="none" stroke="#000000" points="718,-376.4688 718,-398.4688 898,-398.4688 898,-376.4688 718,-376.4688"/>
<image xlink:href="../../images/foreignKeys.png" width="11px" height="12px" preserveAspectRatio="xMinYMin meet" x="723" y="-393.469"/>
<text text-anchor="start" x="747" y="-383.5688" font-family="Helvetica,sans-Serif" font-size="11.00" fill="#000000">amendment_status</text>
<polygon fill="none" stroke="#000000" points="718,-354.4688 718,-376.4688 898,-376.4688 898,-354.4688 718,-354.4688"/>
<image xlink:href="../../images/foreignKeys.png" width="11px" height="12px" preserveAspectRatio="xMinYMin meet" x="723" y="-371.469"/>
<text text-anchor="start" x="747" y="-361.5688" font-family="Helvetica,sans-Serif" font-size="11.00" fill="#000000">created_by</text>
<polygon fill="none" stroke="#000000" points="718,-335.4688 718,-354.4688 898,-354.4688 898,-335.4688 718,-335.4688"/>
<text text-anchor="start" x="721" y="-341.5688" font-family="Helvetica,sans-Serif" font-size="11.00" fill="#000000">...</text>
<polygon fill="#ffffff" stroke="transparent" points="718,-316.4688 718,-335.4688 806,-335.4688 806,-316.4688 718,-316.4688"/>
<polygon fill="none" stroke="#000000" points="718,-316.4688 718,-335.4688 806,-335.4688 806,-316.4688 718,-316.4688"/>
<text text-anchor="start" x="721" y="-322.5688" font-family="Helvetica,sans-Serif" font-size="11.00" fill="#000000">&lt; 4</text>
<polygon fill="#ffffff" stroke="transparent" points="806,-316.4688 806,-335.4688 852,-335.4688 852,-316.4688 806,-316.4688"/>
<polygon fill="none" stroke="#000000" points="806,-316.4688 806,-335.4688 852,-335.4688 852,-316.4688 806,-316.4688"/>
<text text-anchor="start" x="842.8862" y="-322.5688" font-family="Helvetica,sans-Serif" font-size="11.00" fill="#000000"> &#160;</text>
<polygon fill="#ffffff" stroke="transparent" points="852,-316.4688 852,-335.4688 898,-335.4688 898,-316.4688 852,-316.4688"/>
<polygon fill="none" stroke="#000000" points="852,-316.4688 852,-335.4688 898,-335.4688 898,-316.4688 852,-316.4688"/>
<text text-anchor="start" x="888.8862" y="-322.5688" font-family="Helvetica,sans-Serif" font-size="11.00" fill="#000000"> &#160;</text>
</a>
</g>
</g>
<!-- amendments_history&#45;&gt;amendments -->
<g id="edge6" class="edge">
<title>amendments_history:w&#45;&gt;amendments:e</title>
<path fill="none" stroke="#000000" d="M704.1747,-426.6823C688.0145,-412.3021 696.6468,-370.4688 667.5,-370.4688"/>
<polygon fill="#000000" stroke="#000000" points="710.4403,-428.8515 716.8222,-434.8707 714.2201,-430.1602 718,-431.4688 718,-431.4688 718,-431.4688 714.2201,-430.1602 719.1778,-428.067 710.4403,-428.8515 710.4403,-428.8515"/>
<ellipse fill="none" stroke="#000000" cx="707.4164" cy="-427.8045" rx="3.2" ry="3.2"/>
</g>
<!-- amendments_history&#45;&gt;list_options -->
<g id="edge7" class="edge">
<title>amendments_history:w&#45;&gt;list_options:e</title>
<path fill="none" stroke="#000000" d="M704.2987,-414.0702C693.1299,-424.2894 696.7619,-448.8132 677,-459.4688 557.6127,-523.8424 509.1366,-491.4688 373.5,-491.4688"/>
<polygon fill="#000000" stroke="#000000" points="710.4162,-412.0157 719.1461,-412.8815 714.2081,-410.7423 718,-409.4688 718,-409.4688 718,-409.4688 714.2081,-410.7423 716.8539,-406.0561 710.4162,-412.0157 710.4162,-412.0157"/>
<ellipse fill="none" stroke="#000000" cx="707.3827" cy="-413.0345" rx="3.2" ry="3.2"/>
</g>
<!-- amendments_history&#45;&gt;list_options -->
<g id="edge8" class="edge">
<title>amendments_history:w&#45;&gt;list_options:e</title>
<path fill="none" stroke="#000000" d="M704.0877,-391.5291C694.9781,-398.1159 692.0929,-411.0393 677,-417.4688 575.291,-460.7967 536.5696,-424.5908 432,-460.4688 404.1677,-470.0182 402.9249,-491.4688 373.5,-491.4688"/>
<polygon fill="#000000" stroke="#000000" points="710.3204,-389.7102 719.0086,-390.9247 714.1602,-388.5895 718,-387.4688 718,-387.4688 718,-387.4688 714.1602,-388.5895 716.9914,-384.013 710.3204,-389.7102 710.3204,-389.7102"/>
<ellipse fill="none" stroke="#000000" cx="707.2485" cy="-390.6067" rx="3.2" ry="3.2"/>
</g>
<!-- amendments_history&#45;&gt;users -->
<g id="edge9" class="edge">
<title>amendments_history:w&#45;&gt;users:e</title>
<path fill="none" stroke="#000000" d="M703.1981,-364.1143C626.364,-348.1253 753.8193,-194.8041 677,-129.4688 520.9228,3.2758 384.5859,-10.0213 216,-126.4688 174.1622,-155.3675 226.3481,-233.4688 175.5,-233.4688"/>
<polygon fill="#000000" stroke="#000000" points="710.0333,-364.7397 717.6719,-369.0539 714.0166,-365.1043 718,-365.4688 718,-365.4688 718,-365.4688 714.0166,-365.1043 718.3281,-361.8838 710.0333,-364.7397 710.0333,-364.7397"/>
<ellipse fill="none" stroke="#000000" cx="706.8466" cy="-364.4481" rx="3.2" ry="3.2"/>
</g>
</g>
</svg>
