<?xml version="1.0" encoding="UTF-8" standalone="no"?>
<!DOCTYPE svg PUBLIC "-//W3C//DTD SVG 1.1//EN"
 "http://www.w3.org/Graphics/SVG/1.1/DTD/svg11.dtd">
<!-- Generated by graphviz version 2.40.1 (20161225.0304)
 -->
<!-- Title: oneDegreeRelationshipsDiagram Pages: 1 -->
<svg width="988pt" height="780pt"
 viewBox="0.00 0.00 988.00 779.70" xmlns="http://www.w3.org/2000/svg" xmlns:xlink="http://www.w3.org/1999/xlink">
<g id="graph0" class="graph" transform="scale(1 1) rotate(0) translate(4 775.7)">
<title>oneDegreeRelationshipsDiagram</title>
<polygon fill="#ffffff" stroke="transparent" points="-4,4 -4,-775.7 984,-775.7 984,4 -4,4"/>
<text text-anchor="middle" x="72.4936" y="-7.3" font-family="Helvetica,sans-Serif" font-size="11.00" fill="#000000">Generated by SchemaSpy</text>
<!-- ar_activity -->
<g id="node1" class="node">
<title>ar_activity</title>
<g id="a_node1"><a xlink:href="../../tables/ar_activity.html" xlink:title="ar_activity" target="_top">
<polygon fill="#ffffff" stroke="transparent" points="740,-38.2 740,-568.2 972,-568.2 972,-38.2 740,-38.2"/>
<polygon fill="#f5f5f5" stroke="transparent" points="742,-543.2 742,-566.2 970,-566.2 970,-543.2 742,-543.2"/>
<polygon fill="none" stroke="#000000" points="742,-543.2 742,-566.2 970,-566.2 970,-543.2 742,-543.2"/>
<text text-anchor="start" x="747" y="-551.8" font-family="Helvetica,sans-Serif" font-weight="bold" font-size="11.00" fill="#000000">ar_activity</text>
<text text-anchor="start" x="935.0437" y="-551.3" font-family="Helvetica,sans-Serif" font-size="11.00" fill="#000000">[table]</text>
<polygon fill="none" stroke="#000000" points="742,-521.2 742,-543.2 887,-543.2 887,-521.2 742,-521.2"/>
<image xlink:href="../../images/primaryKeys.png" width="11px" height="12px" preserveAspectRatio="xMinYMin meet" x="747" y="-538.2"/>
<text text-anchor="start" x="762" y="-528.3" font-family="Helvetica,sans-Serif" font-size="11.00" fill="#000000">pid</text>
<polygon fill="none" stroke="#000000" points="887,-521.2 887,-543.2 970,-543.2 970,-521.2 887,-521.2"/>
<text text-anchor="start" x="890" y="-528.9" font-family="Helvetica,sans-Serif" font-size="11.00" fill="#000000">int[10]</text>
<polygon fill="none" stroke="#000000" points="742,-499.2 742,-521.2 887,-521.2 887,-499.2 742,-499.2"/>
<image xlink:href="../../images/primaryKeys.png" width="11px" height="12px" preserveAspectRatio="xMinYMin meet" x="747" y="-516.2"/>
<text text-anchor="start" x="762" y="-506.3" font-family="Helvetica,sans-Serif" font-size="11.00" fill="#000000">encounter</text>
<polygon fill="none" stroke="#000000" points="887,-499.2 887,-521.2 970,-521.2 970,-499.2 887,-499.2"/>
<text text-anchor="start" x="890" y="-506.9" font-family="Helvetica,sans-Serif" font-size="11.00" fill="#000000">int[10]</text>
<polygon fill="none" stroke="#000000" points="742,-477.2 742,-499.2 887,-499.2 887,-477.2 742,-477.2"/>
<image xlink:href="../../images/primaryKeys.png" width="11px" height="12px" preserveAspectRatio="xMinYMin meet" x="747" y="-494.2"/>
<text text-anchor="start" x="762" y="-484.3" font-family="Helvetica,sans-Serif" font-size="11.00" fill="#000000">sequence_no</text>
<polygon fill="none" stroke="#000000" points="887,-477.2 887,-499.2 970,-499.2 970,-477.2 887,-477.2"/>
<text text-anchor="start" x="889.6783" y="-484.9" font-family="Helvetica,sans-Serif" font-size="11.00" fill="#000000">int unsigned[10]</text>
<polygon fill="none" stroke="#000000" points="742,-455.2 742,-477.2 887,-477.2 887,-455.2 742,-455.2"/>
<text text-anchor="start" x="762" y="-462.3" font-family="Helvetica,sans-Serif" font-size="11.00" fill="#000000">code_type</text>
<polygon fill="none" stroke="#000000" points="887,-455.2 887,-477.2 970,-477.2 970,-455.2 887,-455.2"/>
<text text-anchor="start" x="890" y="-462.9" font-family="Helvetica,sans-Serif" font-size="11.00" fill="#000000">varchar[12]</text>
<polygon fill="none" stroke="#000000" points="742,-433.2 742,-455.2 887,-455.2 887,-433.2 742,-433.2"/>
<text text-anchor="start" x="762" y="-440.3" font-family="Helvetica,sans-Serif" font-size="11.00" fill="#000000">code</text>
<polygon fill="none" stroke="#000000" points="887,-433.2 887,-455.2 970,-455.2 970,-433.2 887,-433.2"/>
<text text-anchor="start" x="890" y="-440.9" font-family="Helvetica,sans-Serif" font-size="11.00" fill="#000000">varchar[20]</text>
<polygon fill="none" stroke="#000000" points="742,-411.2 742,-433.2 887,-433.2 887,-411.2 742,-411.2"/>
<text text-anchor="start" x="762" y="-418.3" font-family="Helvetica,sans-Serif" font-size="11.00" fill="#000000">fee</text>
<polygon fill="none" stroke="#000000" points="887,-411.2 887,-433.2 970,-433.2 970,-411.2 887,-411.2"/>
<text text-anchor="start" x="890" y="-418.9" font-family="Helvetica,sans-Serif" font-size="11.00" fill="#000000">unknown[0]</text>
<polygon fill="none" stroke="#000000" points="742,-389.2 742,-411.2 887,-411.2 887,-389.2 742,-389.2"/>
<text text-anchor="start" x="762" y="-396.3" font-family="Helvetica,sans-Serif" font-size="11.00" fill="#000000">modifier</text>
<polygon fill="none" stroke="#000000" points="887,-389.2 887,-411.2 970,-411.2 970,-389.2 887,-389.2"/>
<text text-anchor="start" x="890" y="-396.9" font-family="Helvetica,sans-Serif" font-size="11.00" fill="#000000">varchar[12]</text>
<polygon fill="none" stroke="#000000" points="742,-367.2 742,-389.2 887,-389.2 887,-367.2 742,-367.2"/>
<text text-anchor="start" x="762" y="-374.3" font-family="Helvetica,sans-Serif" font-size="11.00" fill="#000000">payer_type</text>
<polygon fill="none" stroke="#000000" points="887,-367.2 887,-389.2 970,-389.2 970,-367.2 887,-367.2"/>
<text text-anchor="start" x="890" y="-374.9" font-family="Helvetica,sans-Serif" font-size="11.00" fill="#000000">int[10]</text>
<polygon fill="none" stroke="#000000" points="742,-345.2 742,-367.2 887,-367.2 887,-345.2 742,-345.2"/>
<text text-anchor="start" x="762" y="-352.3" font-family="Helvetica,sans-Serif" font-size="11.00" fill="#000000">post_time</text>
<polygon fill="none" stroke="#000000" points="887,-345.2 887,-367.2 970,-367.2 970,-345.2 887,-345.2"/>
<text text-anchor="start" x="890" y="-352.9" font-family="Helvetica,sans-Serif" font-size="11.00" fill="#000000">datetime[19]</text>
<polygon fill="none" stroke="#000000" points="742,-323.2 742,-345.2 887,-345.2 887,-323.2 742,-323.2"/>
<image xlink:href="../../images/foreignKeys.png" width="11px" height="12px" preserveAspectRatio="xMinYMin meet" x="747" y="-340.2"/>
<text text-anchor="start" x="762" y="-330.3" font-family="Helvetica,sans-Serif" font-size="11.00" fill="#000000">post_user</text>
<polygon fill="none" stroke="#000000" points="887,-323.2 887,-345.2 970,-345.2 970,-323.2 887,-323.2"/>
<text text-anchor="start" x="890" y="-330.9" font-family="Helvetica,sans-Serif" font-size="11.00" fill="#000000">int[10]</text>
<polygon fill="#ffffff" stroke="transparent" points="742,-301.2 742,-323.2 887,-323.2 887,-301.2 742,-301.2"/>
<polygon fill="none" stroke="#000000" points="742,-301.2 742,-323.2 887,-323.2 887,-301.2 742,-301.2"/>
<image xlink:href="../../images/foreignKeys.png" width="11px" height="12px" preserveAspectRatio="xMinYMin meet" x="747" y="-318.2"/>
<text text-anchor="start" x="762" y="-308.3" font-family="Helvetica,sans-Serif" font-size="11.00" fill="#000000">session_id</text>
<polygon fill="none" stroke="#000000" points="887,-301.2 887,-323.2 970,-323.2 970,-301.2 887,-301.2"/>
<text text-anchor="start" x="889.6783" y="-308.9" font-family="Helvetica,sans-Serif" font-size="11.00" fill="#000000">int unsigned[10]</text>
<polygon fill="none" stroke="#000000" points="742,-279.2 742,-301.2 887,-301.2 887,-279.2 742,-279.2"/>
<text text-anchor="start" x="762" y="-286.3" font-family="Helvetica,sans-Serif" font-size="11.00" fill="#000000">memo</text>
<polygon fill="none" stroke="#000000" points="887,-279.2 887,-301.2 970,-301.2 970,-279.2 887,-279.2"/>
<text text-anchor="start" x="890" y="-286.9" font-family="Helvetica,sans-Serif" font-size="11.00" fill="#000000">varchar[255]</text>
<polygon fill="none" stroke="#000000" points="742,-257.2 742,-279.2 887,-279.2 887,-257.2 742,-257.2"/>
<text text-anchor="start" x="762" y="-264.3" font-family="Helvetica,sans-Serif" font-size="11.00" fill="#000000">pay_amount</text>
<polygon fill="none" stroke="#000000" points="887,-257.2 887,-279.2 970,-279.2 970,-257.2 887,-257.2"/>
<text text-anchor="start" x="890" y="-264.9" font-family="Helvetica,sans-Serif" font-size="11.00" fill="#000000">decimal[12,2]</text>
<polygon fill="none" stroke="#000000" points="742,-235.2 742,-257.2 887,-257.2 887,-235.2 742,-235.2"/>
<text text-anchor="start" x="762" y="-242.3" font-family="Helvetica,sans-Serif" font-size="11.00" fill="#000000">adj_amount</text>
<polygon fill="none" stroke="#000000" points="887,-235.2 887,-257.2 970,-257.2 970,-235.2 887,-235.2"/>
<text text-anchor="start" x="890" y="-242.9" font-family="Helvetica,sans-Serif" font-size="11.00" fill="#000000">decimal[12,2]</text>
<polygon fill="none" stroke="#000000" points="742,-213.2 742,-235.2 887,-235.2 887,-213.2 742,-213.2"/>
<text text-anchor="start" x="762" y="-220.3" font-family="Helvetica,sans-Serif" font-size="11.00" fill="#000000">modified_time</text>
<polygon fill="none" stroke="#000000" points="887,-213.2 887,-235.2 970,-235.2 970,-213.2 887,-213.2"/>
<text text-anchor="start" x="890" y="-220.9" font-family="Helvetica,sans-Serif" font-size="11.00" fill="#000000">datetime[19]</text>
<polygon fill="none" stroke="#000000" points="742,-191.2 742,-213.2 887,-213.2 887,-191.2 742,-191.2"/>
<text text-anchor="start" x="762" y="-198.3" font-family="Helvetica,sans-Serif" font-size="11.00" fill="#000000">follow_up</text>
<polygon fill="none" stroke="#000000" points="887,-191.2 887,-213.2 970,-213.2 970,-191.2 887,-191.2"/>
<text text-anchor="start" x="890" y="-198.9" font-family="Helvetica,sans-Serif" font-size="11.00" fill="#000000">char[1]</text>
<polygon fill="none" stroke="#000000" points="742,-169.2 742,-191.2 887,-191.2 887,-169.2 742,-169.2"/>
<text text-anchor="start" x="762" y="-176.3" font-family="Helvetica,sans-Serif" font-size="11.00" fill="#000000">follow_up_note</text>
<polygon fill="none" stroke="#000000" points="887,-169.2 887,-191.2 970,-191.2 970,-169.2 887,-169.2"/>
<text text-anchor="start" x="890" y="-176.9" font-family="Helvetica,sans-Serif" font-size="11.00" fill="#000000">text[65535]</text>
<polygon fill="none" stroke="#000000" points="742,-147.2 742,-169.2 887,-169.2 887,-147.2 742,-147.2"/>
<text text-anchor="start" x="762" y="-154.3" font-family="Helvetica,sans-Serif" font-size="11.00" fill="#000000">account_code</text>
<polygon fill="none" stroke="#000000" points="887,-147.2 887,-169.2 970,-169.2 970,-147.2 887,-147.2"/>
<text text-anchor="start" x="890" y="-154.9" font-family="Helvetica,sans-Serif" font-size="11.00" fill="#000000">varchar[15]</text>
<polygon fill="none" stroke="#000000" points="742,-125.2 742,-147.2 887,-147.2 887,-125.2 742,-125.2"/>
<text text-anchor="start" x="762" y="-132.3" font-family="Helvetica,sans-Serif" font-size="11.00" fill="#000000">reason_code</text>
<polygon fill="none" stroke="#000000" points="887,-125.2 887,-147.2 970,-147.2 970,-125.2 887,-125.2"/>
<text text-anchor="start" x="890" y="-132.9" font-family="Helvetica,sans-Serif" font-size="11.00" fill="#000000">varchar[255]</text>
<polygon fill="none" stroke="#000000" points="742,-103.2 742,-125.2 887,-125.2 887,-103.2 742,-103.2"/>
<text text-anchor="start" x="762" y="-110.3" font-family="Helvetica,sans-Serif" font-size="11.00" fill="#000000">deleted</text>
<polygon fill="none" stroke="#000000" points="887,-103.2 887,-125.2 970,-125.2 970,-103.2 887,-103.2"/>
<text text-anchor="start" x="890" y="-110.9" font-family="Helvetica,sans-Serif" font-size="11.00" fill="#000000">datetime[19]</text>
<polygon fill="none" stroke="#000000" points="742,-81.2 742,-103.2 887,-103.2 887,-81.2 742,-81.2"/>
<text text-anchor="start" x="762" y="-88.3" font-family="Helvetica,sans-Serif" font-size="11.00" fill="#000000">post_date</text>
<polygon fill="none" stroke="#000000" points="887,-81.2 887,-103.2 970,-103.2 970,-81.2 887,-81.2"/>
<text text-anchor="start" x="890" y="-88.9" font-family="Helvetica,sans-Serif" font-size="11.00" fill="#000000">date[10]</text>
<polygon fill="none" stroke="#000000" points="742,-59.2 742,-81.2 887,-81.2 887,-59.2 742,-59.2"/>
<text text-anchor="start" x="762" y="-66.3" font-family="Helvetica,sans-Serif" font-size="11.00" fill="#000000">payer_claim_number</text>
<polygon fill="none" stroke="#000000" points="887,-59.2 887,-81.2 970,-81.2 970,-59.2 887,-59.2"/>
<text text-anchor="start" x="890" y="-66.9" font-family="Helvetica,sans-Serif" font-size="11.00" fill="#000000">varchar[30]</text>
<polygon fill="#ffffff" stroke="transparent" points="742,-40.2 742,-59.2 819,-59.2 819,-40.2 742,-40.2"/>
<polygon fill="none" stroke="#000000" points="742,-40.2 742,-59.2 819,-59.2 819,-40.2 742,-40.2"/>
<text text-anchor="start" x="745" y="-46.3" font-family="Helvetica,sans-Serif" font-size="11.00" fill="#000000">&lt; 4</text>
<polygon fill="#ffffff" stroke="transparent" points="819,-40.2 819,-59.2 887,-59.2 887,-40.2 819,-40.2"/>
<polygon fill="none" stroke="#000000" points="819,-40.2 819,-59.2 887,-59.2 887,-40.2 819,-40.2"/>
<text text-anchor="start" x="877.8862" y="-46.3" font-family="Helvetica,sans-Serif" font-size="11.00" fill="#000000"> &#160;</text>
<polygon fill="#ffffff" stroke="transparent" points="887,-40.2 887,-59.2 970,-59.2 970,-40.2 887,-40.2"/>
<polygon fill="none" stroke="#000000" points="887,-40.2 887,-59.2 970,-59.2 970,-40.2 887,-40.2"/>
<text text-anchor="start" x="951.4053" y="-46.3" font-family="Helvetica,sans-Serif" font-size="11.00" fill="#000000">0 &gt;</text>
<polygon fill="none" stroke="#000000" stroke-width="2" points="741,-39.2 741,-567.2 971,-567.2 971,-39.2 741,-39.2"/>
</a>
</g>
</g>
<!-- form_encounter -->
<g id="node2" class="node">
<title>form_encounter</title>
<g id="a_node2"><a xlink:href="../../tables/form_encounter.html" xlink:title="form_encounter" target="_top">
<polygon fill="#ffffff" stroke="transparent" points="504,-419.7 504,-590.7 691,-590.7 691,-419.7 504,-419.7"/>
<polygon fill="#f5f5f5" stroke="transparent" points="504.5,-567.2 504.5,-590.2 691.5,-590.2 691.5,-567.2 504.5,-567.2"/>
<polygon fill="none" stroke="#000000" points="504.5,-567.2 504.5,-590.2 691.5,-590.2 691.5,-567.2 504.5,-567.2"/>
<text text-anchor="start" x="509.5" y="-575.8" font-family="Helvetica,sans-Serif" font-weight="bold" font-size="11.00" fill="#000000">form_encounter</text>
<text text-anchor="start" x="656.5437" y="-575.3" font-family="Helvetica,sans-Serif" font-size="11.00" fill="#000000">[table]</text>
<polygon fill="none" stroke="#000000" points="504.5,-545.2 504.5,-567.2 691.5,-567.2 691.5,-545.2 504.5,-545.2"/>
<image xlink:href="../../images/primaryKeys.png" width="11px" height="12px" preserveAspectRatio="xMinYMin meet" x="509.5" y="-562.2"/>
<text text-anchor="start" x="524.5" y="-552.3" font-family="Helvetica,sans-Serif" font-size="11.00" fill="#000000">id</text>
<polygon fill="#ffffff" stroke="transparent" points="504.5,-523.2 504.5,-545.2 691.5,-545.2 691.5,-523.2 504.5,-523.2"/>
<polygon fill="none" stroke="#000000" points="504.5,-523.2 504.5,-545.2 691.5,-545.2 691.5,-523.2 504.5,-523.2"/>
<text text-anchor="start" x="524.5" y="-530.3" font-family="Helvetica,sans-Serif" font-size="11.00" fill="#000000">uuid</text>
<polygon fill="#ffffff" stroke="transparent" points="504.5,-501.2 504.5,-523.2 691.5,-523.2 691.5,-501.2 504.5,-501.2"/>
<polygon fill="none" stroke="#000000" points="504.5,-501.2 504.5,-523.2 691.5,-523.2 691.5,-501.2 504.5,-501.2"/>
<text text-anchor="start" x="524.5" y="-508.3" font-family="Helvetica,sans-Serif" font-size="11.00" fill="#000000">date</text>
<polygon fill="#ffffff" stroke="transparent" points="504.5,-479.2 504.5,-501.2 691.5,-501.2 691.5,-479.2 504.5,-479.2"/>
<polygon fill="none" stroke="#000000" points="504.5,-479.2 504.5,-501.2 691.5,-501.2 691.5,-479.2 504.5,-479.2"/>
<image xlink:href="../../images/foreignKeys.png" width="11px" height="12px" preserveAspectRatio="xMinYMin meet" x="509.5" y="-496.2"/>
<text text-anchor="start" x="524.5" y="-486.3" font-family="Helvetica,sans-Serif" font-size="11.00" fill="#000000">pid</text>
<polygon fill="none" stroke="#000000" points="504.5,-457.2 504.5,-479.2 691.5,-479.2 691.5,-457.2 504.5,-457.2"/>
<image xlink:href="../../images/primaryKeys.png" width="11px" height="12px" preserveAspectRatio="xMinYMin meet" x="509.5" y="-474.2"/>
<text text-anchor="start" x="524.5" y="-464.3" font-family="Helvetica,sans-Serif" font-size="11.00" fill="#000000">encounter</text>
<polygon fill="none" stroke="#000000" points="504.5,-438.2 504.5,-457.2 691.5,-457.2 691.5,-438.2 504.5,-438.2"/>
<text text-anchor="start" x="507.5" y="-444.3" font-family="Helvetica,sans-Serif" font-size="11.00" fill="#000000">...</text>
<polygon fill="#ffffff" stroke="transparent" points="504.5,-419.2 504.5,-438.2 588.5,-438.2 588.5,-419.2 504.5,-419.2"/>
<polygon fill="none" stroke="#000000" points="504.5,-419.2 504.5,-438.2 588.5,-438.2 588.5,-419.2 504.5,-419.2"/>
<text text-anchor="start" x="507.5" y="-425.3" font-family="Helvetica,sans-Serif" font-size="11.00" fill="#000000">&lt; 1</text>
<polygon fill="#ffffff" stroke="transparent" points="588.5,-419.2 588.5,-438.2 632.5,-438.2 632.5,-419.2 588.5,-419.2"/>
<polygon fill="none" stroke="#000000" points="588.5,-419.2 588.5,-438.2 632.5,-438.2 632.5,-419.2 588.5,-419.2"/>
<text text-anchor="start" x="623.3862" y="-425.3" font-family="Helvetica,sans-Serif" font-size="11.00" fill="#000000"> &#160;</text>
<polygon fill="#ffffff" stroke="transparent" points="632.5,-419.2 632.5,-438.2 691.5,-438.2 691.5,-419.2 632.5,-419.2"/>
<polygon fill="none" stroke="#000000" points="632.5,-419.2 632.5,-438.2 691.5,-438.2 691.5,-419.2 632.5,-419.2"/>
<text text-anchor="start" x="666.7904" y="-425.3" font-family="Helvetica,sans-Serif" font-size="11.00" fill="#000000">19 &gt;</text>
</a>
</g>
</g>
<!-- ar_activity&#45;&gt;form_encounter -->
<g id="edge1" class="edge">
<title>ar_activity:w&#45;&gt;form_encounter:e</title>
<path fill="none" stroke="#000000" d="M728.1788,-505.7053C714.481,-494.8704 714.7627,-468.2 691.5,-468.2"/>
<polygon fill="#000000" stroke="#000000" points="734.3922,-507.7259 740.8866,-513.6235 738.1961,-508.9629 742,-510.2 742,-510.2 742,-510.2 738.1961,-508.9629 743.1134,-506.7765 734.3922,-507.7259 734.3922,-507.7259"/>
<ellipse fill="none" stroke="#000000" cx="731.3491" cy="-506.7362" rx="3.2" ry="3.2"/>
</g>
<!-- patient_data -->
<g id="node3" class="node">
<title>patient_data</title>
<g id="a_node3"><a xlink:href="../../tables/patient_data.html" xlink:title="patient_data" target="_top">
<polygon fill="#ffffff" stroke="transparent" points="207,-376.7 207,-767.7 455,-767.7 455,-376.7 207,-376.7"/>
<polygon fill="#f5f5f5" stroke="transparent" points="207,-744.2 207,-767.2 455,-767.2 455,-744.2 207,-744.2"/>
<polygon fill="none" stroke="#000000" points="207,-744.2 207,-767.2 455,-767.2 455,-744.2 207,-744.2"/>
<text text-anchor="start" x="212" y="-752.8" font-family="Helvetica,sans-Serif" font-weight="bold" font-size="11.00" fill="#000000">patient_data</text>
<text text-anchor="start" x="420.0437" y="-752.3" font-family="Helvetica,sans-Serif" font-size="11.00" fill="#000000">[table]</text>
<polygon fill="none" stroke="#000000" points="207,-722.2 207,-744.2 455,-744.2 455,-722.2 207,-722.2"/>
<image xlink:href="../../images/primaryKeys.png" width="11px" height="12px" preserveAspectRatio="xMinYMin meet" x="212" y="-739.2"/>
<text text-anchor="start" x="227" y="-729.3" font-family="Helvetica,sans-Serif" font-size="11.00" fill="#000000">id</text>
<polygon fill="#ffffff" stroke="transparent" points="207,-700.2 207,-722.2 455,-722.2 455,-700.2 207,-700.2"/>
<polygon fill="none" stroke="#000000" points="207,-700.2 207,-722.2 455,-722.2 455,-700.2 207,-700.2"/>
<text text-anchor="start" x="227" y="-707.3" font-family="Helvetica,sans-Serif" font-size="11.00" fill="#000000">uuid</text>
<polygon fill="#ffffff" stroke="transparent" points="207,-678.2 207,-700.2 455,-700.2 455,-678.2 207,-678.2"/>
<polygon fill="none" stroke="#000000" points="207,-678.2 207,-700.2 455,-700.2 455,-678.2 207,-678.2"/>
<text text-anchor="start" x="227" y="-685.3" font-family="Helvetica,sans-Serif" font-size="11.00" fill="#000000">fname</text>
<polygon fill="#ffffff" stroke="transparent" points="207,-656.2 207,-678.2 455,-678.2 455,-656.2 207,-656.2"/>
<polygon fill="none" stroke="#000000" points="207,-656.2 207,-678.2 455,-678.2 455,-656.2 207,-656.2"/>
<text text-anchor="start" x="227" y="-663.3" font-family="Helvetica,sans-Serif" font-size="11.00" fill="#000000">lname</text>
<polygon fill="#ffffff" stroke="transparent" points="207,-634.2 207,-656.2 455,-656.2 455,-634.2 207,-634.2"/>
<polygon fill="none" stroke="#000000" points="207,-634.2 207,-656.2 455,-656.2 455,-634.2 207,-634.2"/>
<text text-anchor="start" x="227" y="-641.3" font-family="Helvetica,sans-Serif" font-size="11.00" fill="#000000">DOB</text>
<polygon fill="none" stroke="#000000" points="207,-612.2 207,-634.2 455,-634.2 455,-612.2 207,-612.2"/>
<image xlink:href="../../images/foreignKeys.png" width="11px" height="12px" preserveAspectRatio="xMinYMin meet" x="212" y="-629.2"/>
<text text-anchor="start" x="227" y="-619.3" font-family="Helvetica,sans-Serif" font-size="11.00" fill="#000000">pharmacy_id</text>
<polygon fill="none" stroke="#000000" points="207,-590.2 207,-612.2 455,-612.2 455,-590.2 207,-590.2"/>
<image xlink:href="../../images/foreignKeys.png" width="11px" height="12px" preserveAspectRatio="xMinYMin meet" x="212" y="-607.2"/>
<text text-anchor="start" x="227" y="-597.3" font-family="Helvetica,sans-Serif" font-size="11.00" fill="#000000">providerID</text>
<polygon fill="none" stroke="#000000" points="207,-568.2 207,-590.2 455,-590.2 455,-568.2 207,-568.2"/>
<image xlink:href="../../images/foreignKeys.png" width="11px" height="12px" preserveAspectRatio="xMinYMin meet" x="212" y="-585.2"/>
<text text-anchor="start" x="227" y="-575.3" font-family="Helvetica,sans-Serif" font-size="11.00" fill="#000000">ref_providerID</text>
<polygon fill="none" stroke="#000000" points="207,-546.2 207,-568.2 455,-568.2 455,-546.2 207,-546.2"/>
<image xlink:href="../../images/primaryKeys.png" width="11px" height="12px" preserveAspectRatio="xMinYMin meet" x="212" y="-563.2"/>
<text text-anchor="start" x="227" y="-553.3" font-family="Helvetica,sans-Serif" font-size="11.00" fill="#000000">pid</text>
<polygon fill="none" stroke="#000000" points="207,-524.2 207,-546.2 455,-546.2 455,-524.2 207,-524.2"/>
<image xlink:href="../../images/foreignKeys.png" width="11px" height="12px" preserveAspectRatio="xMinYMin meet" x="212" y="-541.2"/>
<text text-anchor="start" x="227" y="-531.3" font-family="Helvetica,sans-Serif" font-size="11.00" fill="#000000">created_by</text>
<polygon fill="none" stroke="#000000" points="207,-502.2 207,-524.2 455,-524.2 455,-502.2 207,-502.2"/>
<image xlink:href="../../images/foreignKeys.png" width="11px" height="12px" preserveAspectRatio="xMinYMin meet" x="212" y="-519.2"/>
<text text-anchor="start" x="227" y="-509.3" font-family="Helvetica,sans-Serif" font-size="11.00" fill="#000000">updated_by</text>
<polygon fill="none" stroke="#000000" points="207,-480.2 207,-502.2 455,-502.2 455,-480.2 207,-480.2"/>
<image xlink:href="../../images/foreignKeys.png" width="11px" height="12px" preserveAspectRatio="xMinYMin meet" x="212" y="-497.2"/>
<text text-anchor="start" x="227" y="-487.3" font-family="Helvetica,sans-Serif" font-size="11.00" fill="#000000">tribal_affiliations</text>
<polygon fill="none" stroke="#000000" points="207,-458.2 207,-480.2 455,-480.2 455,-458.2 207,-458.2"/>
<image xlink:href="../../images/foreignKeys.png" width="11px" height="12px" preserveAspectRatio="xMinYMin meet" x="212" y="-475.2"/>
<text text-anchor="start" x="227" y="-465.3" font-family="Helvetica,sans-Serif" font-size="11.00" fill="#000000">sex_identified</text>
<polygon fill="none" stroke="#000000" points="207,-436.2 207,-458.2 455,-458.2 455,-436.2 207,-436.2"/>
<image xlink:href="../../images/foreignKeys.png" width="11px" height="12px" preserveAspectRatio="xMinYMin meet" x="212" y="-453.2"/>
<text text-anchor="start" x="227" y="-443.3" font-family="Helvetica,sans-Serif" font-size="11.00" fill="#000000">interpreter_needed</text>
<polygon fill="none" stroke="#000000" points="207,-414.2 207,-436.2 455,-436.2 455,-414.2 207,-414.2"/>
<image xlink:href="../../images/foreignKeys.png" width="11px" height="12px" preserveAspectRatio="xMinYMin meet" x="212" y="-431.2"/>
<text text-anchor="start" x="227" y="-421.3" font-family="Helvetica,sans-Serif" font-size="11.00" fill="#000000">advance_directive_user_authenticator</text>
<polygon fill="none" stroke="#000000" points="207,-395.2 207,-414.2 455,-414.2 455,-395.2 207,-395.2"/>
<text text-anchor="start" x="210" y="-401.3" font-family="Helvetica,sans-Serif" font-size="11.00" fill="#000000">...</text>
<polygon fill="#ffffff" stroke="transparent" points="207,-376.2 207,-395.2 322,-395.2 322,-376.2 207,-376.2"/>
<polygon fill="none" stroke="#000000" points="207,-376.2 207,-395.2 322,-395.2 322,-376.2 207,-376.2"/>
<text text-anchor="start" x="210" y="-382.3" font-family="Helvetica,sans-Serif" font-size="11.00" fill="#000000">&lt; 9</text>
<polygon fill="#ffffff" stroke="transparent" points="322,-376.2 322,-395.2 381,-395.2 381,-376.2 322,-376.2"/>
<polygon fill="none" stroke="#000000" points="322,-376.2 322,-395.2 381,-395.2 381,-376.2 322,-376.2"/>
<text text-anchor="start" x="371.8862" y="-382.3" font-family="Helvetica,sans-Serif" font-size="11.00" fill="#000000"> &#160;</text>
<polygon fill="#ffffff" stroke="transparent" points="381,-376.2 381,-395.2 455,-395.2 455,-376.2 381,-376.2"/>
<polygon fill="none" stroke="#000000" points="381,-376.2 381,-395.2 455,-395.2 455,-376.2 381,-376.2"/>
<text text-anchor="start" x="430.2904" y="-382.3" font-family="Helvetica,sans-Serif" font-size="11.00" fill="#000000">97 &gt;</text>
</a>
</g>
</g>
<!-- ar_activity&#45;&gt;patient_data -->
<g id="edge2" class="edge">
<title>ar_activity:w&#45;&gt;patient_data:e</title>
<path fill="none" stroke="#000000" d="M728.1671,-536.3272C712.7021,-548.8881 725.163,-586.6769 699,-601.2 620.1163,-644.9883 578.7325,-637.1915 496,-601.2 471.4894,-590.537 481.7296,-557.2 455,-557.2"/>
<polygon fill="#000000" stroke="#000000" points="734.3339,-534.4873 743.0293,-535.6497 738.167,-533.3437 742,-532.2 742,-532.2 742,-532.2 738.167,-533.3437 740.9707,-528.7503 734.3339,-534.4873 734.3339,-534.4873"/>
<ellipse fill="none" stroke="#000000" cx="731.2675" cy="-535.4022" rx="3.2" ry="3.2"/>
</g>
<!-- users -->
<g id="node4" class="node">
<title>users</title>
<g id="a_node4"><a xlink:href="../../tables/users.html" xlink:title="users" target="_top">
<polygon fill="#ffffff" stroke="transparent" points="8,-332.7 8,-547.7 158,-547.7 158,-332.7 8,-332.7"/>
<polygon fill="#f5f5f5" stroke="transparent" points="8,-524.2 8,-547.2 158,-547.2 158,-524.2 8,-524.2"/>
<polygon fill="none" stroke="#000000" points="8,-524.2 8,-547.2 158,-547.2 158,-524.2 8,-524.2"/>
<text text-anchor="start" x="13" y="-532.8" font-family="Helvetica,sans-Serif" font-weight="bold" font-size="11.00" fill="#000000">users</text>
<text text-anchor="start" x="123.0437" y="-532.3" font-family="Helvetica,sans-Serif" font-size="11.00" fill="#000000">[table]</text>
<polygon fill="none" stroke="#000000" points="8,-502.2 8,-524.2 158,-524.2 158,-502.2 8,-502.2"/>
<image xlink:href="../../images/primaryKeys.png" width="11px" height="12px" preserveAspectRatio="xMinYMin meet" x="13" y="-519.2"/>
<text text-anchor="start" x="28" y="-509.3" font-family="Helvetica,sans-Serif" font-size="11.00" fill="#000000">id</text>
<polygon fill="#ffffff" stroke="transparent" points="8,-480.2 8,-502.2 158,-502.2 158,-480.2 8,-480.2"/>
<polygon fill="none" stroke="#000000" points="8,-480.2 8,-502.2 158,-502.2 158,-480.2 8,-480.2"/>
<text text-anchor="start" x="28" y="-487.3" font-family="Helvetica,sans-Serif" font-size="11.00" fill="#000000">uuid</text>
<polygon fill="none" stroke="#000000" points="8,-458.2 8,-480.2 158,-480.2 158,-458.2 8,-458.2"/>
<image xlink:href="../../images/primaryKeys.png" width="11px" height="12px" preserveAspectRatio="xMinYMin meet" x="13" y="-475.2"/>
<text text-anchor="start" x="28" y="-465.3" font-family="Helvetica,sans-Serif" font-size="11.00" fill="#000000">username</text>
<polygon fill="none" stroke="#000000" points="8,-436.2 8,-458.2 158,-458.2 158,-436.2 8,-436.2"/>
<image xlink:href="../../images/foreignKeys.png" width="11px" height="12px" preserveAspectRatio="xMinYMin meet" x="13" y="-453.2"/>
<text text-anchor="start" x="28" y="-443.3" font-family="Helvetica,sans-Serif" font-size="11.00" fill="#000000">facility_id</text>
<polygon fill="#ffffff" stroke="transparent" points="8,-414.2 8,-436.2 158,-436.2 158,-414.2 8,-414.2"/>
<polygon fill="none" stroke="#000000" points="8,-414.2 8,-436.2 158,-436.2 158,-414.2 8,-414.2"/>
<text text-anchor="start" x="28" y="-421.3" font-family="Helvetica,sans-Serif" font-size="11.00" fill="#000000">google_signin_email</text>
<polygon fill="#ffffff" stroke="transparent" points="8,-392.2 8,-414.2 158,-414.2 158,-392.2 8,-392.2"/>
<polygon fill="none" stroke="#000000" points="8,-392.2 8,-414.2 158,-414.2 158,-392.2 8,-392.2"/>
<text text-anchor="start" x="28" y="-399.3" font-family="Helvetica,sans-Serif" font-size="11.00" fill="#000000">abook_type</text>
<polygon fill="none" stroke="#000000" points="8,-370.2 8,-392.2 158,-392.2 158,-370.2 8,-370.2"/>
<image xlink:href="../../images/foreignKeys.png" width="11px" height="12px" preserveAspectRatio="xMinYMin meet" x="13" y="-387.2"/>
<text text-anchor="start" x="28" y="-377.3" font-family="Helvetica,sans-Serif" font-size="11.00" fill="#000000">billing_facility_id</text>
<polygon fill="none" stroke="#000000" points="8,-351.2 8,-370.2 158,-370.2 158,-351.2 8,-351.2"/>
<text text-anchor="start" x="11" y="-357.3" font-family="Helvetica,sans-Serif" font-size="11.00" fill="#000000">...</text>
<polygon fill="#ffffff" stroke="transparent" points="8,-332.2 8,-351.2 74,-351.2 74,-332.2 8,-332.2"/>
<polygon fill="none" stroke="#000000" points="8,-332.2 8,-351.2 74,-351.2 74,-332.2 8,-332.2"/>
<text text-anchor="start" x="11" y="-338.3" font-family="Helvetica,sans-Serif" font-size="11.00" fill="#000000">&lt; 2</text>
<polygon fill="#ffffff" stroke="transparent" points="74,-332.2 74,-351.2 108,-351.2 108,-332.2 74,-332.2"/>
<polygon fill="none" stroke="#000000" points="74,-332.2 74,-351.2 108,-351.2 108,-332.2 74,-332.2"/>
<text text-anchor="start" x="98.8862" y="-338.3" font-family="Helvetica,sans-Serif" font-size="11.00" fill="#000000"> &#160;</text>
<polygon fill="#ffffff" stroke="transparent" points="108,-332.2 108,-351.2 158,-351.2 158,-332.2 108,-332.2"/>
<polygon fill="none" stroke="#000000" points="108,-332.2 108,-351.2 158,-351.2 158,-332.2 108,-332.2"/>
<text text-anchor="start" x="133.2904" y="-338.3" font-family="Helvetica,sans-Serif" font-size="11.00" fill="#000000">91 &gt;</text>
</a>
</g>
</g>
<!-- ar_activity&#45;&gt;users -->
<g id="edge3" class="edge">
<title>ar_activity:w&#45;&gt;users:e</title>
<path fill="none" stroke="#000000" d="M727.3771,-334.8406C718.4767,-335.6968 712.1592,-337.2198 699,-338.2 643.5111,-342.3332 242.3581,-331.3263 199,-366.2 146.1476,-408.7102 225.8269,-513.2 158,-513.2"/>
<polygon fill="#000000" stroke="#000000" points="734.0077,-334.5502 742.1576,-337.7966 738.0038,-334.3751 742,-334.2 742,-334.2 742,-334.2 738.0038,-334.3751 741.8424,-330.6034 734.0077,-334.5502 734.0077,-334.5502"/>
<ellipse fill="none" stroke="#000000" cx="730.8107" cy="-334.6902" rx="3.2" ry="3.2"/>
</g>
<!-- ar_session -->
<g id="node5" class="node">
<title>ar_session</title>
<g id="a_node5"><a xlink:href="../../tables/ar_session.html" xlink:title="ar_session" target="_top">
<polygon fill="#ffffff" stroke="transparent" points="534.5,-68.7 534.5,-327.7 660.5,-327.7 660.5,-68.7 534.5,-68.7"/>
<polygon fill="#f5f5f5" stroke="transparent" points="534.5,-304.2 534.5,-327.2 660.5,-327.2 660.5,-304.2 534.5,-304.2"/>
<polygon fill="none" stroke="#000000" points="534.5,-304.2 534.5,-327.2 660.5,-327.2 660.5,-304.2 534.5,-304.2"/>
<text text-anchor="start" x="539.5" y="-312.8" font-family="Helvetica,sans-Serif" font-weight="bold" font-size="11.00" fill="#000000">ar_session</text>
<text text-anchor="start" x="625.5437" y="-312.3" font-family="Helvetica,sans-Serif" font-size="11.00" fill="#000000">[table]</text>
<polygon fill="none" stroke="#000000" points="534.5,-282.2 534.5,-304.2 660.5,-304.2 660.5,-282.2 534.5,-282.2"/>
<image xlink:href="../../images/primaryKeys.png" width="11px" height="12px" preserveAspectRatio="xMinYMin meet" x="539.5" y="-299.2"/>
<text text-anchor="start" x="554.5" y="-289.3" font-family="Helvetica,sans-Serif" font-size="11.00" fill="#000000">session_id</text>
<polygon fill="none" stroke="#000000" points="534.5,-260.2 534.5,-282.2 660.5,-282.2 660.5,-260.2 534.5,-260.2"/>
<image xlink:href="../../images/foreignKeys.png" width="11px" height="12px" preserveAspectRatio="xMinYMin meet" x="539.5" y="-277.2"/>
<text text-anchor="start" x="554.5" y="-267.3" font-family="Helvetica,sans-Serif" font-size="11.00" fill="#000000">payer_id</text>
<polygon fill="#ffffff" stroke="transparent" points="534.5,-238.2 534.5,-260.2 660.5,-260.2 660.5,-238.2 534.5,-238.2"/>
<polygon fill="none" stroke="#000000" points="534.5,-238.2 534.5,-260.2 660.5,-260.2 660.5,-238.2 534.5,-238.2"/>
<image xlink:href="../../images/foreignKeys.png" width="11px" height="12px" preserveAspectRatio="xMinYMin meet" x="539.5" y="-255.2"/>
<text text-anchor="start" x="554.5" y="-245.3" font-family="Helvetica,sans-Serif" font-size="11.00" fill="#000000">user_id</text>
<polygon fill="#ffffff" stroke="transparent" points="534.5,-216.2 534.5,-238.2 660.5,-238.2 660.5,-216.2 534.5,-216.2"/>
<polygon fill="none" stroke="#000000" points="534.5,-216.2 534.5,-238.2 660.5,-238.2 660.5,-216.2 534.5,-216.2"/>
<text text-anchor="start" x="554.5" y="-223.3" font-family="Helvetica,sans-Serif" font-size="11.00" fill="#000000">closed</text>
<polygon fill="#ffffff" stroke="transparent" points="534.5,-194.2 534.5,-216.2 660.5,-216.2 660.5,-194.2 534.5,-194.2"/>
<polygon fill="none" stroke="#000000" points="534.5,-194.2 534.5,-216.2 660.5,-216.2 660.5,-194.2 534.5,-194.2"/>
<text text-anchor="start" x="554.5" y="-201.3" font-family="Helvetica,sans-Serif" font-size="11.00" fill="#000000">deposit_date</text>
<polygon fill="none" stroke="#000000" points="534.5,-172.2 534.5,-194.2 660.5,-194.2 660.5,-172.2 534.5,-172.2"/>
<image xlink:href="../../images/foreignKeys.png" width="11px" height="12px" preserveAspectRatio="xMinYMin meet" x="539.5" y="-189.2"/>
<text text-anchor="start" x="554.5" y="-179.3" font-family="Helvetica,sans-Serif" font-size="11.00" fill="#000000">payment_type</text>
<polygon fill="none" stroke="#000000" points="534.5,-150.2 534.5,-172.2 660.5,-172.2 660.5,-150.2 534.5,-150.2"/>
<image xlink:href="../../images/foreignKeys.png" width="11px" height="12px" preserveAspectRatio="xMinYMin meet" x="539.5" y="-167.2"/>
<text text-anchor="start" x="554.5" y="-157.3" font-family="Helvetica,sans-Serif" font-size="11.00" fill="#000000">adjustment_code</text>
<polygon fill="none" stroke="#000000" points="534.5,-128.2 534.5,-150.2 660.5,-150.2 660.5,-128.2 534.5,-128.2"/>
<image xlink:href="../../images/foreignKeys.png" width="11px" height="12px" preserveAspectRatio="xMinYMin meet" x="539.5" y="-145.2"/>
<text text-anchor="start" x="554.5" y="-135.3" font-family="Helvetica,sans-Serif" font-size="11.00" fill="#000000">patient_id</text>
<polygon fill="none" stroke="#000000" points="534.5,-106.2 534.5,-128.2 660.5,-128.2 660.5,-106.2 534.5,-106.2"/>
<image xlink:href="../../images/foreignKeys.png" width="11px" height="12px" preserveAspectRatio="xMinYMin meet" x="539.5" y="-123.2"/>
<text text-anchor="start" x="554.5" y="-113.3" font-family="Helvetica,sans-Serif" font-size="11.00" fill="#000000">payment_method</text>
<polygon fill="none" stroke="#000000" points="534.5,-87.2 534.5,-106.2 660.5,-106.2 660.5,-87.2 534.5,-87.2"/>
<text text-anchor="start" x="537.5" y="-93.3" font-family="Helvetica,sans-Serif" font-size="11.00" fill="#000000">...</text>
<polygon fill="#ffffff" stroke="transparent" points="534.5,-68.2 534.5,-87.2 591.5,-87.2 591.5,-68.2 534.5,-68.2"/>
<polygon fill="none" stroke="#000000" points="534.5,-68.2 534.5,-87.2 591.5,-87.2 591.5,-68.2 534.5,-68.2"/>
<text text-anchor="start" x="537.5" y="-74.3" font-family="Helvetica,sans-Serif" font-size="11.00" fill="#000000">&lt; 6</text>
<polygon fill="#ffffff" stroke="transparent" points="591.5,-68.2 591.5,-87.2 621.5,-87.2 621.5,-68.2 591.5,-68.2"/>
<polygon fill="none" stroke="#000000" points="591.5,-68.2 591.5,-87.2 621.5,-87.2 621.5,-68.2 591.5,-68.2"/>
<text text-anchor="start" x="612.3862" y="-74.3" font-family="Helvetica,sans-Serif" font-size="11.00" fill="#000000"> &#160;</text>
<polygon fill="#ffffff" stroke="transparent" points="621.5,-68.2 621.5,-87.2 660.5,-87.2 660.5,-68.2 621.5,-68.2"/>
<polygon fill="none" stroke="#000000" points="621.5,-68.2 621.5,-87.2 660.5,-87.2 660.5,-68.2 621.5,-68.2"/>
<text text-anchor="start" x="641.9053" y="-74.3" font-family="Helvetica,sans-Serif" font-size="11.00" fill="#000000">1 &gt;</text>
</a>
</g>
</g>
<!-- ar_activity&#45;&gt;ar_session -->
<g id="edge4" class="edge">
<title>ar_activity:w&#45;&gt;ar_session:e</title>
<path fill="none" stroke="#000000" d="M727.5766,-311.124C702.122,-307.1047 692.3179,-293.2 660.5,-293.2"/>
<polygon fill="#000000" stroke="#000000" points="734.0222,-311.6048 741.7322,-315.79 738.0111,-311.9024 742,-312.2 742,-312.2 742,-312.2 738.0111,-311.9024 742.2678,-308.61 734.0222,-311.6048 734.0222,-311.6048"/>
<ellipse fill="none" stroke="#000000" cx="730.831" cy="-311.3667" rx="3.2" ry="3.2"/>
</g>
<!-- form_encounter&#45;&gt;patient_data -->
<g id="edge7" class="edge">
<title>form_encounter:w&#45;&gt;patient_data:e</title>
<path fill="none" stroke="#000000" d="M490.7056,-495.0185C473.8739,-510.381 485.9491,-557.2 455,-557.2"/>
<polygon fill="#000000" stroke="#000000" points="496.9475,-492.8382 505.6872,-493.5986 500.7237,-491.5191 504.5,-490.2 504.5,-490.2 504.5,-490.2 500.7237,-491.5191 503.3128,-486.8014 496.9475,-492.8382 496.9475,-492.8382"/>
<ellipse fill="none" stroke="#000000" cx="493.9265" cy="-493.8934" rx="3.2" ry="3.2"/>
</g>
<!-- patient_data&#45;&gt;users -->
<g id="edge8" class="edge">
<title>patient_data:w&#45;&gt;users:e</title>
<path fill="none" stroke="#000000" d="M192.9863,-429.6849C171.7228,-447.6176 196.6452,-513.2 158,-513.2"/>
<polygon fill="#000000" stroke="#000000" points="199.3807,-427.6385 208.0973,-428.6287 203.1903,-426.4193 207,-425.2 207,-425.2 207,-425.2 203.1903,-426.4193 205.9027,-421.7713 199.3807,-427.6385 199.3807,-427.6385"/>
<ellipse fill="none" stroke="#000000" cx="196.333" cy="-428.6139" rx="3.2" ry="3.2"/>
</g>
<!-- patient_data&#45;&gt;users -->
<g id="edge9" class="edge">
<title>patient_data:w&#45;&gt;users:e</title>
<path fill="none" stroke="#000000" d="M192.6297,-531.7625C181.0865,-525.575 175.9041,-513.2 158,-513.2"/>
<polygon fill="#000000" stroke="#000000" points="199.2195,-533.3388 206.1625,-538.7012 203.1098,-534.2694 207,-535.2 207,-535.2 207,-535.2 203.1098,-534.2694 207.8375,-531.6988 199.2195,-533.3388 199.2195,-533.3388"/>
<ellipse fill="none" stroke="#000000" cx="196.1073" cy="-532.5943" rx="3.2" ry="3.2"/>
</g>
<!-- patient_data&#45;&gt;users -->
<g id="edge10" class="edge">
<title>patient_data:w&#45;&gt;users:e</title>
<path fill="none" stroke="#000000" d="M192.9863,-596.7151C171.7228,-578.7824 196.6452,-513.2 158,-513.2"/>
<polygon fill="#000000" stroke="#000000" points="199.3807,-598.7615 205.9027,-604.6287 203.1903,-599.9807 207,-601.2 207,-601.2 207,-601.2 203.1903,-599.9807 208.0973,-597.7713 199.3807,-598.7615 199.3807,-598.7615"/>
<ellipse fill="none" stroke="#000000" cx="196.333" cy="-597.7861" rx="3.2" ry="3.2"/>
</g>
<!-- patient_data&#45;&gt;users -->
<g id="edge11" class="edge">
<title>patient_data:w&#45;&gt;users:e</title>
<path fill="none" stroke="#000000" d="M193.3768,-574.4534C176.7322,-559.3202 188.5399,-513.2 158,-513.2"/>
<polygon fill="#000000" stroke="#000000" points="199.4454,-576.5678 205.8155,-582.5996 203.2227,-577.8839 207,-579.2 207,-579.2 207,-579.2 203.2227,-577.8839 208.1845,-575.8004 199.4454,-576.5678 199.4454,-576.5678"/>
<ellipse fill="none" stroke="#000000" cx="196.4236" cy="-575.5149" rx="3.2" ry="3.2"/>
</g>
<!-- patient_data&#45;&gt;users -->
<g id="edge12" class="edge">
<title>patient_data:w&#45;&gt;users:e</title>
<path fill="none" stroke="#000000" d="M192.4909,-513.2C181.1774,-513.2 173.9931,-513.2 158,-513.2"/>
<polygon fill="#000000" stroke="#000000" points="199,-513.2001 207,-516.8 203,-513.2 207,-513.2 207,-513.2 207,-513.2 203,-513.2 207,-509.6 199,-513.2001 199,-513.2001"/>
<ellipse fill="none" stroke="#000000" cx="195.8" cy="-513.2001" rx="3.2" ry="3.2"/>
</g>
<!-- ar_session&#45;&gt;patient_data -->
<g id="edge5" class="edge">
<title>ar_session:w&#45;&gt;patient_data:e</title>
<path fill="none" stroke="#000000" d="M523.1764,-148.7159C489.4249,-210.9353 498.0295,-557.2 455,-557.2"/>
<polygon fill="#000000" stroke="#000000" points="528.3754,-144.3468 536.8161,-141.9561 531.4377,-141.7734 534.5,-139.2 534.5,-139.2 534.5,-139.2 531.4377,-141.7734 532.1839,-136.4439 528.3754,-144.3468 528.3754,-144.3468"/>
<ellipse fill="none" stroke="#000000" cx="525.9256" cy="-146.4056" rx="3.2" ry="3.2"/>
</g>
<!-- ar_session&#45;&gt;users -->
<g id="edge6" class="edge">
<title>ar_session:w&#45;&gt;users:e</title>
<path fill="none" stroke="#000000" d="M519.7903,-249.1479C375.0069,-248.1541 303.0136,-234.4715 199,-342.2 144.7147,-398.4241 236.154,-513.2 158,-513.2"/>
<polygon fill="#000000" stroke="#000000" points="526.5001,-249.1716 534.4872,-252.8 530.5,-249.1858 534.5,-249.2 534.5,-249.2 534.5,-249.2 530.5,-249.1858 534.5128,-245.6 526.5001,-249.1716 526.5001,-249.1716"/>
<ellipse fill="none" stroke="#000000" cx="523.3001" cy="-249.1602" rx="3.2" ry="3.2"/>
</g>
</g>
</svg>
