<?xml version="1.0" encoding="UTF-8" standalone="no"?>
<!DOCTYPE svg PUBLIC "-//W3C//DTD SVG 1.1//EN"
 "http://www.w3.org/Graphics/SVG/1.1/DTD/svg11.dtd">
<!-- Generated by graphviz version 2.40.1 (20161225.0304)
 -->
<!-- Title: oneDegreeRelationshipsDiagram Pages: 1 -->
<svg width="944pt" height="675pt"
 viewBox="0.00 0.00 944.00 675.20" xmlns="http://www.w3.org/2000/svg" xmlns:xlink="http://www.w3.org/1999/xlink">
<g id="graph0" class="graph" transform="scale(1 1) rotate(0) translate(4 671.2)">
<title>oneDegreeRelationshipsDiagram</title>
<polygon fill="#ffffff" stroke="transparent" points="-4,4 -4,-671.2 940,-671.2 940,4 -4,4"/>
<text text-anchor="middle" x="72.4936" y="-7.3" font-family="Helvetica,sans-Serif" font-size="11.00" fill="#000000">Generated by SchemaSpy</text>
<!-- ar_activity -->
<g id="node1" class="node">
<title>ar_activity</title>
<g id="a_node1"><a xlink:href="../../tables/ar_activity.html" xlink:title="ar_activity" target="_top">
<polygon fill="#ffffff" stroke="transparent" points="769,-492.2 769,-663.2 928,-663.2 928,-492.2 769,-492.2"/>
<polygon fill="#f5f5f5" stroke="transparent" points="769.5,-639.7 769.5,-662.7 928.5,-662.7 928.5,-639.7 769.5,-639.7"/>
<polygon fill="none" stroke="#000000" points="769.5,-639.7 769.5,-662.7 928.5,-662.7 928.5,-639.7 769.5,-639.7"/>
<text text-anchor="start" x="774.5" y="-648.3" font-family="Helvetica,sans-Serif" font-weight="bold" font-size="11.00" fill="#000000">ar_activity</text>
<text text-anchor="start" x="893.5437" y="-647.8" font-family="Helvetica,sans-Serif" font-size="11.00" fill="#000000">[table]</text>
<polygon fill="none" stroke="#000000" points="769.5,-617.7 769.5,-639.7 928.5,-639.7 928.5,-617.7 769.5,-617.7"/>
<image xlink:href="../../images/primaryKeys.png" width="11px" height="12px" preserveAspectRatio="xMinYMin meet" x="774.5" y="-634.7"/>
<text text-anchor="start" x="789.5" y="-624.8" font-family="Helvetica,sans-Serif" font-size="11.00" fill="#000000">pid</text>
<polygon fill="none" stroke="#000000" points="769.5,-595.7 769.5,-617.7 928.5,-617.7 928.5,-595.7 769.5,-595.7"/>
<image xlink:href="../../images/primaryKeys.png" width="11px" height="12px" preserveAspectRatio="xMinYMin meet" x="774.5" y="-612.7"/>
<text text-anchor="start" x="789.5" y="-602.8" font-family="Helvetica,sans-Serif" font-size="11.00" fill="#000000">encounter</text>
<polygon fill="none" stroke="#000000" points="769.5,-573.7 769.5,-595.7 928.5,-595.7 928.5,-573.7 769.5,-573.7"/>
<image xlink:href="../../images/primaryKeys.png" width="11px" height="12px" preserveAspectRatio="xMinYMin meet" x="774.5" y="-590.7"/>
<text text-anchor="start" x="789.5" y="-580.8" font-family="Helvetica,sans-Serif" font-size="11.00" fill="#000000">sequence_no</text>
<polygon fill="none" stroke="#000000" points="769.5,-551.7 769.5,-573.7 928.5,-573.7 928.5,-551.7 769.5,-551.7"/>
<image xlink:href="../../images/foreignKeys.png" width="11px" height="12px" preserveAspectRatio="xMinYMin meet" x="774.5" y="-568.7"/>
<text text-anchor="start" x="789.5" y="-558.8" font-family="Helvetica,sans-Serif" font-size="11.00" fill="#000000">post_user</text>
<polygon fill="#ffffff" stroke="transparent" points="769.5,-529.7 769.5,-551.7 928.5,-551.7 928.5,-529.7 769.5,-529.7"/>
<polygon fill="none" stroke="#000000" points="769.5,-529.7 769.5,-551.7 928.5,-551.7 928.5,-529.7 769.5,-529.7"/>
<image xlink:href="../../images/foreignKeys.png" width="11px" height="12px" preserveAspectRatio="xMinYMin meet" x="774.5" y="-546.7"/>
<text text-anchor="start" x="789.5" y="-536.8" font-family="Helvetica,sans-Serif" font-size="11.00" fill="#000000">session_id</text>
<polygon fill="none" stroke="#000000" points="769.5,-510.7 769.5,-529.7 928.5,-529.7 928.5,-510.7 769.5,-510.7"/>
<text text-anchor="start" x="772.5" y="-516.8" font-family="Helvetica,sans-Serif" font-size="11.00" fill="#000000">...</text>
<polygon fill="#ffffff" stroke="transparent" points="769.5,-491.7 769.5,-510.7 847.5,-510.7 847.5,-491.7 769.5,-491.7"/>
<polygon fill="none" stroke="#000000" points="769.5,-491.7 769.5,-510.7 847.5,-510.7 847.5,-491.7 769.5,-491.7"/>
<text text-anchor="start" x="772.5" y="-497.8" font-family="Helvetica,sans-Serif" font-size="11.00" fill="#000000">&lt; 4</text>
<polygon fill="#ffffff" stroke="transparent" points="847.5,-491.7 847.5,-510.7 887.5,-510.7 887.5,-491.7 847.5,-491.7"/>
<polygon fill="none" stroke="#000000" points="847.5,-491.7 847.5,-510.7 887.5,-510.7 887.5,-491.7 847.5,-491.7"/>
<text text-anchor="start" x="878.3862" y="-497.8" font-family="Helvetica,sans-Serif" font-size="11.00" fill="#000000"> &#160;</text>
<polygon fill="#ffffff" stroke="transparent" points="887.5,-491.7 887.5,-510.7 928.5,-510.7 928.5,-491.7 887.5,-491.7"/>
<polygon fill="none" stroke="#000000" points="887.5,-491.7 887.5,-510.7 928.5,-510.7 928.5,-491.7 887.5,-491.7"/>
<text text-anchor="start" x="919.3862" y="-497.8" font-family="Helvetica,sans-Serif" font-size="11.00" fill="#000000"> &#160;</text>
</a>
</g>
</g>
<!-- patient_data -->
<g id="node2" class="node">
<title>patient_data</title>
<g id="a_node2"><a xlink:href="../../tables/patient_data.html" xlink:title="patient_data" target="_top">
<polygon fill="#ffffff" stroke="transparent" points="234.5,-192.2 234.5,-429.2 401.5,-429.2 401.5,-192.2 234.5,-192.2"/>
<polygon fill="#f5f5f5" stroke="transparent" points="235,-405.7 235,-428.7 402,-428.7 402,-405.7 235,-405.7"/>
<polygon fill="none" stroke="#000000" points="235,-405.7 235,-428.7 402,-428.7 402,-405.7 235,-405.7"/>
<text text-anchor="start" x="240" y="-414.3" font-family="Helvetica,sans-Serif" font-weight="bold" font-size="11.00" fill="#000000">patient_data</text>
<text text-anchor="start" x="367.0437" y="-413.8" font-family="Helvetica,sans-Serif" font-size="11.00" fill="#000000">[table]</text>
<polygon fill="#ffffff" stroke="transparent" points="235,-383.7 235,-405.7 402,-405.7 402,-383.7 235,-383.7"/>
<polygon fill="none" stroke="#000000" points="235,-383.7 235,-405.7 402,-405.7 402,-383.7 235,-383.7"/>
<text text-anchor="start" x="255" y="-390.8" font-family="Helvetica,sans-Serif" font-size="11.00" fill="#000000">id</text>
<polygon fill="none" stroke="#000000" points="235,-361.7 235,-383.7 402,-383.7 402,-361.7 235,-361.7"/>
<image xlink:href="../../images/foreignKeys.png" width="11px" height="12px" preserveAspectRatio="xMinYMin meet" x="240" y="-378.7"/>
<text text-anchor="start" x="255" y="-368.8" font-family="Helvetica,sans-Serif" font-size="11.00" fill="#000000">pharmacy_id</text>
<polygon fill="none" stroke="#000000" points="235,-339.7 235,-361.7 402,-361.7 402,-339.7 235,-339.7"/>
<image xlink:href="../../images/foreignKeys.png" width="11px" height="12px" preserveAspectRatio="xMinYMin meet" x="240" y="-356.7"/>
<text text-anchor="start" x="255" y="-346.8" font-family="Helvetica,sans-Serif" font-size="11.00" fill="#000000">providerID</text>
<polygon fill="none" stroke="#000000" points="235,-317.7 235,-339.7 402,-339.7 402,-317.7 235,-317.7"/>
<image xlink:href="../../images/foreignKeys.png" width="11px" height="12px" preserveAspectRatio="xMinYMin meet" x="240" y="-334.7"/>
<text text-anchor="start" x="255" y="-324.8" font-family="Helvetica,sans-Serif" font-size="11.00" fill="#000000">ref_providerID</text>
<polygon fill="none" stroke="#000000" points="235,-295.7 235,-317.7 402,-317.7 402,-295.7 235,-295.7"/>
<image xlink:href="../../images/primaryKeys.png" width="11px" height="12px" preserveAspectRatio="xMinYMin meet" x="240" y="-312.7"/>
<text text-anchor="start" x="255" y="-302.8" font-family="Helvetica,sans-Serif" font-size="11.00" fill="#000000">pid</text>
<polygon fill="#ffffff" stroke="transparent" points="235,-273.7 235,-295.7 402,-295.7 402,-273.7 235,-273.7"/>
<polygon fill="none" stroke="#000000" points="235,-273.7 235,-295.7 402,-295.7 402,-273.7 235,-273.7"/>
<text text-anchor="start" x="255" y="-280.8" font-family="Helvetica,sans-Serif" font-size="11.00" fill="#000000">uuid</text>
<polygon fill="none" stroke="#000000" points="235,-251.7 235,-273.7 402,-273.7 402,-251.7 235,-251.7"/>
<image xlink:href="../../images/foreignKeys.png" width="11px" height="12px" preserveAspectRatio="xMinYMin meet" x="240" y="-268.7"/>
<text text-anchor="start" x="255" y="-258.8" font-family="Helvetica,sans-Serif" font-size="11.00" fill="#000000">created_by</text>
<polygon fill="none" stroke="#000000" points="235,-229.7 235,-251.7 402,-251.7 402,-229.7 235,-229.7"/>
<image xlink:href="../../images/foreignKeys.png" width="11px" height="12px" preserveAspectRatio="xMinYMin meet" x="240" y="-246.7"/>
<text text-anchor="start" x="255" y="-236.8" font-family="Helvetica,sans-Serif" font-size="11.00" fill="#000000">updated_by</text>
<polygon fill="none" stroke="#000000" points="235,-210.7 235,-229.7 402,-229.7 402,-210.7 235,-210.7"/>
<text text-anchor="start" x="238" y="-216.8" font-family="Helvetica,sans-Serif" font-size="11.00" fill="#000000">...</text>
<polygon fill="#ffffff" stroke="transparent" points="235,-191.7 235,-210.7 309,-210.7 309,-191.7 235,-191.7"/>
<polygon fill="none" stroke="#000000" points="235,-191.7 235,-210.7 309,-210.7 309,-191.7 235,-191.7"/>
<text text-anchor="start" x="238" y="-197.8" font-family="Helvetica,sans-Serif" font-size="11.00" fill="#000000">&lt; 5</text>
<polygon fill="#ffffff" stroke="transparent" points="309,-191.7 309,-210.7 348,-210.7 348,-191.7 309,-191.7"/>
<polygon fill="none" stroke="#000000" points="309,-191.7 309,-210.7 348,-210.7 348,-191.7 309,-191.7"/>
<text text-anchor="start" x="338.8862" y="-197.8" font-family="Helvetica,sans-Serif" font-size="11.00" fill="#000000"> &#160;</text>
<polygon fill="#ffffff" stroke="transparent" points="348,-191.7 348,-210.7 402,-210.7 402,-191.7 348,-191.7"/>
<polygon fill="none" stroke="#000000" points="348,-191.7 348,-210.7 402,-210.7 402,-191.7 348,-191.7"/>
<text text-anchor="start" x="377.2904" y="-197.8" font-family="Helvetica,sans-Serif" font-size="11.00" fill="#000000">85 &gt;</text>
</a>
</g>
</g>
<!-- ar_activity&#45;&gt;patient_data -->
<g id="edge1" class="edge">
<title>ar_activity:w&#45;&gt;patient_data:e</title>
<path fill="none" stroke="#000000" d="M754.8622,-628.6164C611.1503,-626.9209 550.5994,-598.7922 453,-485.7 398.9541,-423.0749 484.7216,-306.7 402,-306.7"/>
<polygon fill="#000000" stroke="#000000" points="761.5001,-628.6543 769.4794,-632.2999 765.5001,-628.6771 769.5,-628.7 769.5,-628.7 769.5,-628.7 765.5001,-628.6771 769.5206,-625.1001 761.5001,-628.6543 761.5001,-628.6543"/>
<ellipse fill="none" stroke="#000000" cx="758.3002" cy="-628.636" rx="3.2" ry="3.2"/>
</g>
<!-- users -->
<g id="node3" class="node">
<title>users</title>
<g id="a_node3"><a xlink:href="../../tables/users.html" xlink:title="users" target="_top">
<polygon fill="#ffffff" stroke="transparent" points="8,-115.2 8,-330.2 175,-330.2 175,-115.2 8,-115.2"/>
<polygon fill="#f5f5f5" stroke="transparent" points="8.5,-306.7 8.5,-329.7 175.5,-329.7 175.5,-306.7 8.5,-306.7"/>
<polygon fill="none" stroke="#000000" points="8.5,-306.7 8.5,-329.7 175.5,-329.7 175.5,-306.7 8.5,-306.7"/>
<text text-anchor="start" x="13.5" y="-315.3" font-family="Helvetica,sans-Serif" font-weight="bold" font-size="11.00" fill="#000000">users</text>
<text text-anchor="start" x="140.5437" y="-314.8" font-family="Helvetica,sans-Serif" font-size="11.00" fill="#000000">[table]</text>
<polygon fill="none" stroke="#000000" points="8.5,-284.7 8.5,-306.7 175.5,-306.7 175.5,-284.7 8.5,-284.7"/>
<image xlink:href="../../images/primaryKeys.png" width="11px" height="12px" preserveAspectRatio="xMinYMin meet" x="13.5" y="-301.7"/>
<text text-anchor="start" x="28.5" y="-291.8" font-family="Helvetica,sans-Serif" font-size="11.00" fill="#000000">id</text>
<polygon fill="none" stroke="#000000" points="8.5,-262.7 8.5,-284.7 175.5,-284.7 175.5,-262.7 8.5,-262.7"/>
<image xlink:href="../../images/primaryKeys.png" width="11px" height="12px" preserveAspectRatio="xMinYMin meet" x="13.5" y="-279.7"/>
<text text-anchor="start" x="28.5" y="-269.8" font-family="Helvetica,sans-Serif" font-size="11.00" fill="#000000">username</text>
<polygon fill="none" stroke="#000000" points="8.5,-240.7 8.5,-262.7 175.5,-262.7 175.5,-240.7 8.5,-240.7"/>
<image xlink:href="../../images/foreignKeys.png" width="11px" height="12px" preserveAspectRatio="xMinYMin meet" x="13.5" y="-257.7"/>
<text text-anchor="start" x="28.5" y="-247.8" font-family="Helvetica,sans-Serif" font-size="11.00" fill="#000000">facility_id</text>
<polygon fill="#ffffff" stroke="transparent" points="8.5,-218.7 8.5,-240.7 175.5,-240.7 175.5,-218.7 8.5,-218.7"/>
<polygon fill="none" stroke="#000000" points="8.5,-218.7 8.5,-240.7 175.5,-240.7 175.5,-218.7 8.5,-218.7"/>
<text text-anchor="start" x="28.5" y="-225.8" font-family="Helvetica,sans-Serif" font-size="11.00" fill="#000000">abook_type</text>
<polygon fill="#ffffff" stroke="transparent" points="8.5,-196.7 8.5,-218.7 175.5,-218.7 175.5,-196.7 8.5,-196.7"/>
<polygon fill="none" stroke="#000000" points="8.5,-196.7 8.5,-218.7 175.5,-218.7 175.5,-196.7 8.5,-196.7"/>
<text text-anchor="start" x="28.5" y="-203.8" font-family="Helvetica,sans-Serif" font-size="11.00" fill="#000000">uuid</text>
<polygon fill="#ffffff" stroke="transparent" points="8.5,-174.7 8.5,-196.7 175.5,-196.7 175.5,-174.7 8.5,-174.7"/>
<polygon fill="none" stroke="#000000" points="8.5,-174.7 8.5,-196.7 175.5,-196.7 175.5,-174.7 8.5,-174.7"/>
<text text-anchor="start" x="28.5" y="-181.8" font-family="Helvetica,sans-Serif" font-size="11.00" fill="#000000">google_signin_email</text>
<polygon fill="none" stroke="#000000" points="8.5,-152.7 8.5,-174.7 175.5,-174.7 175.5,-152.7 8.5,-152.7"/>
<image xlink:href="../../images/foreignKeys.png" width="11px" height="12px" preserveAspectRatio="xMinYMin meet" x="13.5" y="-169.7"/>
<text text-anchor="start" x="28.5" y="-159.8" font-family="Helvetica,sans-Serif" font-size="11.00" fill="#000000">billing_facility_id</text>
<polygon fill="none" stroke="#000000" points="8.5,-133.7 8.5,-152.7 175.5,-152.7 175.5,-133.7 8.5,-133.7"/>
<text text-anchor="start" x="11.5" y="-139.8" font-family="Helvetica,sans-Serif" font-size="11.00" fill="#000000">...</text>
<polygon fill="#ffffff" stroke="transparent" points="8.5,-114.7 8.5,-133.7 82.5,-133.7 82.5,-114.7 8.5,-114.7"/>
<polygon fill="none" stroke="#000000" points="8.5,-114.7 8.5,-133.7 82.5,-133.7 82.5,-114.7 8.5,-114.7"/>
<text text-anchor="start" x="11.5" y="-120.8" font-family="Helvetica,sans-Serif" font-size="11.00" fill="#000000">&lt; 2</text>
<polygon fill="#ffffff" stroke="transparent" points="82.5,-114.7 82.5,-133.7 121.5,-133.7 121.5,-114.7 82.5,-114.7"/>
<polygon fill="none" stroke="#000000" points="82.5,-114.7 82.5,-133.7 121.5,-133.7 121.5,-114.7 82.5,-114.7"/>
<text text-anchor="start" x="112.3862" y="-120.8" font-family="Helvetica,sans-Serif" font-size="11.00" fill="#000000"> &#160;</text>
<polygon fill="#ffffff" stroke="transparent" points="121.5,-114.7 121.5,-133.7 175.5,-133.7 175.5,-114.7 121.5,-114.7"/>
<polygon fill="none" stroke="#000000" points="121.5,-114.7 121.5,-133.7 175.5,-133.7 175.5,-114.7 121.5,-114.7"/>
<text text-anchor="start" x="150.7904" y="-120.8" font-family="Helvetica,sans-Serif" font-size="11.00" fill="#000000">61 &gt;</text>
</a>
</g>
</g>
<!-- ar_activity&#45;&gt;users -->
<g id="edge2" class="edge">
<title>ar_activity:w&#45;&gt;users:e</title>
<path fill="none" stroke="#000000" d="M754.8589,-562.9202C518.3568,-570.0366 397.9841,-746.1853 216,-587.7 166.5978,-544.6769 241.0101,-295.7 175.5,-295.7"/>
<polygon fill="#000000" stroke="#000000" points="761.5009,-562.8204 769.5542,-566.2996 765.5005,-562.7602 769.5,-562.7 769.5,-562.7 769.5,-562.7 765.5005,-562.7602 769.4458,-559.1004 761.5009,-562.8204 761.5009,-562.8204"/>
<ellipse fill="none" stroke="#000000" cx="758.3013" cy="-562.8685" rx="3.2" ry="3.2"/>
</g>
<!-- ar_session -->
<g id="node4" class="node">
<title>ar_session</title>
<g id="a_node4"><a xlink:href="../../tables/ar_session.html" xlink:title="ar_session" target="_top">
<polygon fill="#ffffff" stroke="transparent" points="461,-54.7 461,-474.7 720,-474.7 720,-54.7 461,-54.7"/>
<polygon fill="#f5f5f5" stroke="transparent" points="463.5,-449.7 463.5,-472.7 718.5,-472.7 718.5,-449.7 463.5,-449.7"/>
<polygon fill="none" stroke="#000000" points="463.5,-449.7 463.5,-472.7 718.5,-472.7 718.5,-449.7 463.5,-449.7"/>
<text text-anchor="start" x="468.5" y="-458.3" font-family="Helvetica,sans-Serif" font-weight="bold" font-size="11.00" fill="#000000">ar_session</text>
<text text-anchor="start" x="683.5437" y="-457.8" font-family="Helvetica,sans-Serif" font-size="11.00" fill="#000000">[table]</text>
<polygon fill="none" stroke="#000000" points="463.5,-427.7 463.5,-449.7 601.5,-449.7 601.5,-427.7 463.5,-427.7"/>
<image xlink:href="../../images/primaryKeys.png" width="11px" height="12px" preserveAspectRatio="xMinYMin meet" x="468.5" y="-444.7"/>
<text text-anchor="start" x="483.5" y="-434.8" font-family="Helvetica,sans-Serif" font-size="11.00" fill="#000000">session_id</text>
<polygon fill="none" stroke="#000000" points="601.5,-427.7 601.5,-449.7 718.5,-449.7 718.5,-427.7 601.5,-427.7"/>
<text text-anchor="start" x="604.5" y="-435.4" font-family="Helvetica,sans-Serif" font-size="11.00" fill="#000000">int unsigned[10]</text>
<polygon fill="none" stroke="#000000" points="463.5,-405.7 463.5,-427.7 601.5,-427.7 601.5,-405.7 463.5,-405.7"/>
<image xlink:href="../../images/foreignKeys.png" width="11px" height="12px" preserveAspectRatio="xMinYMin meet" x="468.5" y="-422.7"/>
<text text-anchor="start" x="483.5" y="-412.8" font-family="Helvetica,sans-Serif" font-size="11.00" fill="#000000">payer_id</text>
<polygon fill="none" stroke="#000000" points="601.5,-405.7 601.5,-427.7 718.5,-427.7 718.5,-405.7 601.5,-405.7"/>
<text text-anchor="start" x="604.5" y="-413.4" font-family="Helvetica,sans-Serif" font-size="11.00" fill="#000000">int[10]</text>
<polygon fill="#ffffff" stroke="transparent" points="463.5,-383.7 463.5,-405.7 601.5,-405.7 601.5,-383.7 463.5,-383.7"/>
<polygon fill="none" stroke="#000000" points="463.5,-383.7 463.5,-405.7 601.5,-405.7 601.5,-383.7 463.5,-383.7"/>
<image xlink:href="../../images/foreignKeys.png" width="11px" height="12px" preserveAspectRatio="xMinYMin meet" x="468.5" y="-400.7"/>
<text text-anchor="start" x="483.5" y="-390.8" font-family="Helvetica,sans-Serif" font-size="11.00" fill="#000000">user_id</text>
<polygon fill="none" stroke="#000000" points="601.5,-383.7 601.5,-405.7 718.5,-405.7 718.5,-383.7 601.5,-383.7"/>
<text text-anchor="start" x="604.5" y="-391.4" font-family="Helvetica,sans-Serif" font-size="11.00" fill="#000000">int[10]</text>
<polygon fill="#ffffff" stroke="transparent" points="463.5,-361.7 463.5,-383.7 601.5,-383.7 601.5,-361.7 463.5,-361.7"/>
<polygon fill="none" stroke="#000000" points="463.5,-361.7 463.5,-383.7 601.5,-383.7 601.5,-361.7 463.5,-361.7"/>
<text text-anchor="start" x="483.5" y="-368.8" font-family="Helvetica,sans-Serif" font-size="11.00" fill="#000000">closed</text>
<polygon fill="none" stroke="#000000" points="601.5,-361.7 601.5,-383.7 718.5,-383.7 718.5,-361.7 601.5,-361.7"/>
<text text-anchor="start" x="604.5" y="-369.4" font-family="Helvetica,sans-Serif" font-size="11.00" fill="#000000">boolean[3]</text>
<polygon fill="none" stroke="#000000" points="463.5,-339.7 463.5,-361.7 601.5,-361.7 601.5,-339.7 463.5,-339.7"/>
<text text-anchor="start" x="483.5" y="-346.8" font-family="Helvetica,sans-Serif" font-size="11.00" fill="#000000">reference</text>
<polygon fill="none" stroke="#000000" points="601.5,-339.7 601.5,-361.7 718.5,-361.7 718.5,-339.7 601.5,-339.7"/>
<text text-anchor="start" x="604.5" y="-347.4" font-family="Helvetica,sans-Serif" font-size="11.00" fill="#000000">varchar[255]</text>
<polygon fill="none" stroke="#000000" points="463.5,-317.7 463.5,-339.7 601.5,-339.7 601.5,-317.7 463.5,-317.7"/>
<text text-anchor="start" x="483.5" y="-324.8" font-family="Helvetica,sans-Serif" font-size="11.00" fill="#000000">check_date</text>
<polygon fill="none" stroke="#000000" points="601.5,-317.7 601.5,-339.7 718.5,-339.7 718.5,-317.7 601.5,-317.7"/>
<text text-anchor="start" x="604.5" y="-325.4" font-family="Helvetica,sans-Serif" font-size="11.00" fill="#000000">date[10]</text>
<polygon fill="#ffffff" stroke="transparent" points="463.5,-295.7 463.5,-317.7 601.5,-317.7 601.5,-295.7 463.5,-295.7"/>
<polygon fill="none" stroke="#000000" points="463.5,-295.7 463.5,-317.7 601.5,-317.7 601.5,-295.7 463.5,-295.7"/>
<text text-anchor="start" x="483.5" y="-302.8" font-family="Helvetica,sans-Serif" font-size="11.00" fill="#000000">deposit_date</text>
<polygon fill="none" stroke="#000000" points="601.5,-295.7 601.5,-317.7 718.5,-317.7 718.5,-295.7 601.5,-295.7"/>
<text text-anchor="start" x="604.5" y="-303.4" font-family="Helvetica,sans-Serif" font-size="11.00" fill="#000000">date[10]</text>
<polygon fill="none" stroke="#000000" points="463.5,-273.7 463.5,-295.7 601.5,-295.7 601.5,-273.7 463.5,-273.7"/>
<text text-anchor="start" x="483.5" y="-280.8" font-family="Helvetica,sans-Serif" font-size="11.00" fill="#000000">pay_total</text>
<polygon fill="none" stroke="#000000" points="601.5,-273.7 601.5,-295.7 718.5,-295.7 718.5,-273.7 601.5,-273.7"/>
<text text-anchor="start" x="604.5" y="-281.4" font-family="Helvetica,sans-Serif" font-size="11.00" fill="#000000">decimal[12,2]</text>
<polygon fill="none" stroke="#000000" points="463.5,-251.7 463.5,-273.7 601.5,-273.7 601.5,-251.7 463.5,-251.7"/>
<text text-anchor="start" x="483.5" y="-258.8" font-family="Helvetica,sans-Serif" font-size="11.00" fill="#000000">created_time</text>
<polygon fill="none" stroke="#000000" points="601.5,-251.7 601.5,-273.7 718.5,-273.7 718.5,-251.7 601.5,-251.7"/>
<text text-anchor="start" x="604.5" y="-259.4" font-family="Helvetica,sans-Serif" font-size="11.00" fill="#000000">timestamp[19]</text>
<polygon fill="none" stroke="#000000" points="463.5,-229.7 463.5,-251.7 601.5,-251.7 601.5,-229.7 463.5,-229.7"/>
<text text-anchor="start" x="483.5" y="-236.8" font-family="Helvetica,sans-Serif" font-size="11.00" fill="#000000">modified_time</text>
<polygon fill="none" stroke="#000000" points="601.5,-229.7 601.5,-251.7 718.5,-251.7 718.5,-229.7 601.5,-229.7"/>
<text text-anchor="start" x="604.5" y="-237.4" font-family="Helvetica,sans-Serif" font-size="11.00" fill="#000000">datetime[19]</text>
<polygon fill="none" stroke="#000000" points="463.5,-207.7 463.5,-229.7 601.5,-229.7 601.5,-207.7 463.5,-207.7"/>
<text text-anchor="start" x="483.5" y="-214.8" font-family="Helvetica,sans-Serif" font-size="11.00" fill="#000000">global_amount</text>
<polygon fill="none" stroke="#000000" points="601.5,-207.7 601.5,-229.7 718.5,-229.7 718.5,-207.7 601.5,-207.7"/>
<text text-anchor="start" x="604.5" y="-215.4" font-family="Helvetica,sans-Serif" font-size="11.00" fill="#000000">decimal[12,2]</text>
<polygon fill="none" stroke="#000000" points="463.5,-185.7 463.5,-207.7 601.5,-207.7 601.5,-185.7 463.5,-185.7"/>
<image xlink:href="../../images/foreignKeys.png" width="11px" height="12px" preserveAspectRatio="xMinYMin meet" x="468.5" y="-202.7"/>
<text text-anchor="start" x="483.5" y="-192.8" font-family="Helvetica,sans-Serif" font-size="11.00" fill="#000000">payment_type</text>
<polygon fill="none" stroke="#000000" points="601.5,-185.7 601.5,-207.7 718.5,-207.7 718.5,-185.7 601.5,-185.7"/>
<text text-anchor="start" x="604.5" y="-193.4" font-family="Helvetica,sans-Serif" font-size="11.00" fill="#000000">varchar[50]</text>
<polygon fill="none" stroke="#000000" points="463.5,-163.7 463.5,-185.7 601.5,-185.7 601.5,-163.7 463.5,-163.7"/>
<text text-anchor="start" x="483.5" y="-170.8" font-family="Helvetica,sans-Serif" font-size="11.00" fill="#000000">description</text>
<polygon fill="none" stroke="#000000" points="601.5,-163.7 601.5,-185.7 718.5,-185.7 718.5,-163.7 601.5,-163.7"/>
<text text-anchor="start" x="604.0645" y="-171.4" font-family="Helvetica,sans-Serif" font-size="11.00" fill="#000000">mediumtext[16777215]</text>
<polygon fill="none" stroke="#000000" points="463.5,-141.7 463.5,-163.7 601.5,-163.7 601.5,-141.7 463.5,-141.7"/>
<image xlink:href="../../images/foreignKeys.png" width="11px" height="12px" preserveAspectRatio="xMinYMin meet" x="468.5" y="-158.7"/>
<text text-anchor="start" x="483.5" y="-148.8" font-family="Helvetica,sans-Serif" font-size="11.00" fill="#000000">adjustment_code</text>
<polygon fill="none" stroke="#000000" points="601.5,-141.7 601.5,-163.7 718.5,-163.7 718.5,-141.7 601.5,-141.7"/>
<text text-anchor="start" x="604.5" y="-149.4" font-family="Helvetica,sans-Serif" font-size="11.00" fill="#000000">varchar[50]</text>
<polygon fill="none" stroke="#000000" points="463.5,-119.7 463.5,-141.7 601.5,-141.7 601.5,-119.7 463.5,-119.7"/>
<text text-anchor="start" x="483.5" y="-126.8" font-family="Helvetica,sans-Serif" font-size="11.00" fill="#000000">post_to_date</text>
<polygon fill="none" stroke="#000000" points="601.5,-119.7 601.5,-141.7 718.5,-141.7 718.5,-119.7 601.5,-119.7"/>
<text text-anchor="start" x="604.5" y="-127.4" font-family="Helvetica,sans-Serif" font-size="11.00" fill="#000000">date[10]</text>
<polygon fill="none" stroke="#000000" points="463.5,-97.7 463.5,-119.7 601.5,-119.7 601.5,-97.7 463.5,-97.7"/>
<image xlink:href="../../images/foreignKeys.png" width="11px" height="12px" preserveAspectRatio="xMinYMin meet" x="468.5" y="-114.7"/>
<text text-anchor="start" x="483.5" y="-104.8" font-family="Helvetica,sans-Serif" font-size="11.00" fill="#000000">patient_id</text>
<polygon fill="none" stroke="#000000" points="601.5,-97.7 601.5,-119.7 718.5,-119.7 718.5,-97.7 601.5,-97.7"/>
<text text-anchor="start" x="604.5" y="-105.4" font-family="Helvetica,sans-Serif" font-size="11.00" fill="#000000">bigint[19]</text>
<polygon fill="none" stroke="#000000" points="463.5,-75.7 463.5,-97.7 601.5,-97.7 601.5,-75.7 463.5,-75.7"/>
<image xlink:href="../../images/foreignKeys.png" width="11px" height="12px" preserveAspectRatio="xMinYMin meet" x="468.5" y="-92.7"/>
<text text-anchor="start" x="483.5" y="-82.8" font-family="Helvetica,sans-Serif" font-size="11.00" fill="#000000">payment_method</text>
<polygon fill="none" stroke="#000000" points="601.5,-75.7 601.5,-97.7 718.5,-97.7 718.5,-75.7 601.5,-75.7"/>
<text text-anchor="start" x="604.5" y="-83.4" font-family="Helvetica,sans-Serif" font-size="11.00" fill="#000000">varchar[25]</text>
<polygon fill="#ffffff" stroke="transparent" points="463.5,-56.7 463.5,-75.7 536.5,-75.7 536.5,-56.7 463.5,-56.7"/>
<polygon fill="none" stroke="#000000" points="463.5,-56.7 463.5,-75.7 536.5,-75.7 536.5,-56.7 463.5,-56.7"/>
<text text-anchor="start" x="466.5" y="-62.8" font-family="Helvetica,sans-Serif" font-size="11.00" fill="#000000">&lt; 6</text>
<polygon fill="#ffffff" stroke="transparent" points="536.5,-56.7 536.5,-75.7 601.5,-75.7 601.5,-56.7 536.5,-56.7"/>
<polygon fill="none" stroke="#000000" points="536.5,-56.7 536.5,-75.7 601.5,-75.7 601.5,-56.7 536.5,-56.7"/>
<text text-anchor="start" x="592.3862" y="-62.8" font-family="Helvetica,sans-Serif" font-size="11.00" fill="#000000"> &#160;</text>
<polygon fill="#ffffff" stroke="transparent" points="601.5,-56.7 601.5,-75.7 718.5,-75.7 718.5,-56.7 601.5,-56.7"/>
<polygon fill="none" stroke="#000000" points="601.5,-56.7 601.5,-75.7 718.5,-75.7 718.5,-56.7 601.5,-56.7"/>
<text text-anchor="start" x="699.9053" y="-62.8" font-family="Helvetica,sans-Serif" font-size="11.00" fill="#000000">1 &gt;</text>
<polygon fill="none" stroke="#000000" stroke-width="2" points="462,-55.7 462,-473.7 719,-473.7 719,-55.7 462,-55.7"/>
</a>
</g>
</g>
<!-- ar_activity&#45;&gt;ar_session -->
<g id="edge3" class="edge">
<title>ar_activity:w&#45;&gt;ar_session:e</title>
<path fill="none" stroke="#000000" d="M755.5193,-536.826C729.2331,-518.1945 763.2447,-438.7 718.5,-438.7"/>
<polygon fill="#000000" stroke="#000000" points="761.7905,-538.5637 768.5387,-544.1693 765.6452,-539.6319 769.5,-540.7 769.5,-540.7 769.5,-540.7 765.6452,-539.6319 770.4613,-537.2307 761.7905,-538.5637 761.7905,-538.5637"/>
<ellipse fill="none" stroke="#000000" cx="758.7067" cy="-537.7092" rx="3.2" ry="3.2"/>
</g>
<!-- patient_data&#45;&gt;users -->
<g id="edge10" class="edge">
<title>patient_data:w&#45;&gt;users:e</title>
<path fill="none" stroke="#000000" d="M220.8713,-265.7454C204.0301,-273.9148 200.0695,-295.7 175.5,-295.7"/>
<polygon fill="#000000" stroke="#000000" points="227.1796,-264.3857 235.7586,-266.2192 231.0898,-263.5429 235,-262.7 235,-262.7 235,-262.7 231.0898,-263.5429 234.2414,-259.1808 227.1796,-264.3857 227.1796,-264.3857"/>
<ellipse fill="none" stroke="#000000" cx="224.0515" cy="-265.06" rx="3.2" ry="3.2"/>
</g>
<!-- patient_data&#45;&gt;users -->
<g id="edge11" class="edge">
<title>patient_data:w&#45;&gt;users:e</title>
<path fill="none" stroke="#000000" d="M221.0335,-346.9196C201.7548,-334.4936 205.7442,-295.7 175.5,-295.7"/>
<polygon fill="#000000" stroke="#000000" points="227.2779,-348.6098 234.0594,-354.175 231.1389,-349.6549 235,-350.7 235,-350.7 235,-350.7 231.1389,-349.6549 235.9406,-347.225 227.2779,-348.6098 227.2779,-348.6098"/>
<ellipse fill="none" stroke="#000000" cx="224.189" cy="-347.7737" rx="3.2" ry="3.2"/>
</g>
<!-- patient_data&#45;&gt;users -->
<g id="edge12" class="edge">
<title>patient_data:w&#45;&gt;users:e</title>
<path fill="none" stroke="#000000" d="M220.8713,-325.6546C204.0301,-317.4852 200.0695,-295.7 175.5,-295.7"/>
<polygon fill="#000000" stroke="#000000" points="227.1796,-327.0143 234.2414,-332.2192 231.0898,-327.8571 235,-328.7 235,-328.7 235,-328.7 231.0898,-327.8571 235.7586,-325.1808 227.1796,-327.0143 227.1796,-327.0143"/>
<ellipse fill="none" stroke="#000000" cx="224.0515" cy="-326.34" rx="3.2" ry="3.2"/>
</g>
<!-- patient_data&#45;&gt;users -->
<g id="edge13" class="edge">
<title>patient_data:w&#45;&gt;users:e</title>
<path fill="none" stroke="#000000" d="M221.0335,-244.4804C201.7548,-256.9064 205.7442,-295.7 175.5,-295.7"/>
<polygon fill="#000000" stroke="#000000" points="227.2779,-242.7902 235.9406,-244.175 231.1389,-241.7451 235,-240.7 235,-240.7 235,-240.7 231.1389,-241.7451 234.0594,-237.225 227.2779,-242.7902 227.2779,-242.7902"/>
<ellipse fill="none" stroke="#000000" cx="224.189" cy="-243.6263" rx="3.2" ry="3.2"/>
</g>
<!-- ar_session&#45;&gt;patient_data -->
<g id="edge5" class="edge">
<title>ar_session:w&#45;&gt;patient_data:e</title>
<path fill="none" stroke="#000000" d="M449.0308,-110.7897C385.4345,-131.9507 488.568,-306.7 402,-306.7"/>
<polygon fill="#000000" stroke="#000000" points="455.5821,-109.8436 464.0146,-112.263 459.5411,-109.2718 463.5,-108.7 463.5,-108.7 463.5,-108.7 459.5411,-109.2718 462.9854,-105.137 455.5821,-109.8436 455.5821,-109.8436"/>
<ellipse fill="none" stroke="#000000" cx="452.415" cy="-110.301" rx="3.2" ry="3.2"/>
</g>
<!-- ar_session&#45;&gt;users -->
<g id="edge9" class="edge">
<title>ar_session:w&#45;&gt;users:e</title>
<path fill="none" stroke="#000000" d="M449.1659,-393.2822C380.7248,-377.7844 490.6058,-239.3436 420,-181.7 384.8836,-153.0304 253.0344,-155.5549 216,-181.7 172.0742,-212.7102 229.2691,-295.7 175.5,-295.7"/>
<polygon fill="#000000" stroke="#000000" points="455.5388,-393.9125 463.1456,-398.2825 459.5194,-394.3062 463.5,-394.7 463.5,-394.7 463.5,-394.7 459.5194,-394.3062 463.8544,-391.1175 455.5388,-393.9125 455.5388,-393.9125"/>
<ellipse fill="none" stroke="#000000" cx="452.3544" cy="-393.5975" rx="3.2" ry="3.2"/>
</g>
<!-- list_options -->
<g id="node5" class="node">
<title>list_options</title>
<g id="a_node5"><a xlink:href="../../tables/list_options.html" xlink:title="list_options" target="_top">
<polygon fill="#ffffff" stroke="transparent" points="252,-38.2 252,-143.2 384,-143.2 384,-38.2 252,-38.2"/>
<polygon fill="#f5f5f5" stroke="transparent" points="252,-119.7 252,-142.7 384,-142.7 384,-119.7 252,-119.7"/>
<polygon fill="none" stroke="#000000" points="252,-119.7 252,-142.7 384,-142.7 384,-119.7 252,-119.7"/>
<text text-anchor="start" x="257" y="-128.3" font-family="Helvetica,sans-Serif" font-weight="bold" font-size="11.00" fill="#000000">list_options</text>
<text text-anchor="start" x="349.0437" y="-127.8" font-family="Helvetica,sans-Serif" font-size="11.00" fill="#000000">[table]</text>
<polygon fill="none" stroke="#000000" points="252,-97.7 252,-119.7 384,-119.7 384,-97.7 252,-97.7"/>
<image xlink:href="../../images/primaryKeys.png" width="11px" height="12px" preserveAspectRatio="xMinYMin meet" x="257" y="-114.7"/>
<text text-anchor="start" x="272" y="-104.8" font-family="Helvetica,sans-Serif" font-size="11.00" fill="#000000">list_id</text>
<polygon fill="none" stroke="#000000" points="252,-75.7 252,-97.7 384,-97.7 384,-75.7 252,-75.7"/>
<image xlink:href="../../images/primaryKeys.png" width="11px" height="12px" preserveAspectRatio="xMinYMin meet" x="257" y="-92.7"/>
<text text-anchor="start" x="272" y="-82.8" font-family="Helvetica,sans-Serif" font-size="11.00" fill="#000000">option_id</text>
<polygon fill="none" stroke="#000000" points="252,-56.7 252,-75.7 384,-75.7 384,-56.7 252,-56.7"/>
<text text-anchor="start" x="255" y="-62.8" font-family="Helvetica,sans-Serif" font-size="11.00" fill="#000000">...</text>
<polygon fill="#ffffff" stroke="transparent" points="252,-37.7 252,-56.7 304,-56.7 304,-37.7 252,-37.7"/>
<polygon fill="none" stroke="#000000" points="252,-37.7 252,-56.7 304,-56.7 304,-37.7 252,-37.7"/>
<text text-anchor="start" x="255" y="-43.8" font-family="Helvetica,sans-Serif" font-size="11.00" fill="#000000"> &#160;</text>
<polygon fill="#ffffff" stroke="transparent" points="304,-37.7 304,-56.7 336,-56.7 336,-37.7 304,-37.7"/>
<polygon fill="none" stroke="#000000" points="304,-37.7 304,-56.7 336,-56.7 336,-37.7 304,-37.7"/>
<text text-anchor="start" x="326.8862" y="-43.8" font-family="Helvetica,sans-Serif" font-size="11.00" fill="#000000"> &#160;</text>
<polygon fill="#ffffff" stroke="transparent" points="336,-37.7 336,-56.7 384,-56.7 384,-37.7 336,-37.7"/>
<polygon fill="none" stroke="#000000" points="336,-37.7 336,-56.7 384,-56.7 384,-37.7 336,-37.7"/>
<text text-anchor="start" x="359.2904" y="-43.8" font-family="Helvetica,sans-Serif" font-size="11.00" fill="#000000">46 &gt;</text>
</a>
</g>
</g>
<!-- ar_session&#45;&gt;list_options -->
<g id="edge4" class="edge">
<title>ar_session:w&#45;&gt;list_options:e</title>
<path fill="none" stroke="#000000" d="M449.1735,-150.031C419.7128,-137.6834 424.3617,-86.7 384,-86.7"/>
<polygon fill="#000000" stroke="#000000" points="455.6353,-151.2348 462.8406,-156.2391 459.5677,-151.9674 463.5,-152.7 463.5,-152.7 463.5,-152.7 459.5677,-151.9674 464.1594,-149.1609 455.6353,-151.2348 455.6353,-151.2348"/>
<ellipse fill="none" stroke="#000000" cx="452.4894" cy="-150.6487" rx="3.2" ry="3.2"/>
</g>
<!-- ar_session&#45;&gt;list_options -->
<g id="edge7" class="edge">
<title>ar_session:w&#45;&gt;list_options:e</title>
<path fill="none" stroke="#000000" d="M449.0093,-86.7C424.8602,-86.7 413.9505,-86.7 384,-86.7"/>
<polygon fill="#000000" stroke="#000000" points="455.5,-86.7001 463.5,-90.3 459.5,-86.7 463.5,-86.7 463.5,-86.7 463.5,-86.7 459.5,-86.7 463.5,-83.1 455.5,-86.7001 455.5,-86.7001"/>
<ellipse fill="none" stroke="#000000" cx="452.3" cy="-86.7001" rx="3.2" ry="3.2"/>
</g>
<!-- ar_session&#45;&gt;list_options -->
<g id="edge8" class="edge">
<title>ar_session:w&#45;&gt;list_options:e</title>
<path fill="none" stroke="#000000" d="M449.2963,-194.0894C409.8777,-177.4316 438.7833,-86.7 384,-86.7"/>
<polygon fill="#000000" stroke="#000000" points="455.6318,-195.2538 462.8492,-200.2407 459.5659,-195.9769 463.5,-196.7 463.5,-196.7 463.5,-196.7 459.5659,-195.9769 464.1508,-193.1593 455.6318,-195.2538 455.6318,-195.2538"/>
<ellipse fill="none" stroke="#000000" cx="452.4845" cy="-194.6753" rx="3.2" ry="3.2"/>
</g>
<!-- insurance_companies -->
<g id="node6" class="node">
<title>insurance_companies</title>
<g id="a_node6"><a xlink:href="../../tables/insurance_companies.html" xlink:title="insurance_companies" target="_top">
<polygon fill="#ffffff" stroke="transparent" points="224,-450.2 224,-577.2 412,-577.2 412,-450.2 224,-450.2"/>
<polygon fill="#f5f5f5" stroke="transparent" points="224,-553.7 224,-576.7 412,-576.7 412,-553.7 224,-553.7"/>
<polygon fill="none" stroke="#000000" points="224,-553.7 224,-576.7 412,-576.7 412,-553.7 224,-553.7"/>
<text text-anchor="start" x="229" y="-562.3" font-family="Helvetica,sans-Serif" font-weight="bold" font-size="11.00" fill="#000000">insurance_companies</text>
<text text-anchor="start" x="377.0437" y="-561.8" font-family="Helvetica,sans-Serif" font-size="11.00" fill="#000000">[table]</text>
<polygon fill="none" stroke="#000000" points="224,-531.7 224,-553.7 412,-553.7 412,-531.7 224,-531.7"/>
<image xlink:href="../../images/primaryKeys.png" width="11px" height="12px" preserveAspectRatio="xMinYMin meet" x="229" y="-548.7"/>
<text text-anchor="start" x="244" y="-538.8" font-family="Helvetica,sans-Serif" font-size="11.00" fill="#000000">id</text>
<polygon fill="none" stroke="#000000" points="224,-509.7 224,-531.7 412,-531.7 412,-509.7 224,-509.7"/>
<image xlink:href="../../images/foreignKeys.png" width="11px" height="12px" preserveAspectRatio="xMinYMin meet" x="229" y="-526.7"/>
<text text-anchor="start" x="244" y="-516.8" font-family="Helvetica,sans-Serif" font-size="11.00" fill="#000000">ins_type_code</text>
<polygon fill="#ffffff" stroke="transparent" points="224,-487.7 224,-509.7 412,-509.7 412,-487.7 224,-487.7"/>
<polygon fill="none" stroke="#000000" points="224,-487.7 224,-509.7 412,-509.7 412,-487.7 224,-487.7"/>
<text text-anchor="start" x="244" y="-494.8" font-family="Helvetica,sans-Serif" font-size="11.00" fill="#000000">uuid</text>
<polygon fill="none" stroke="#000000" points="224,-468.7 224,-487.7 412,-487.7 412,-468.7 224,-468.7"/>
<text text-anchor="start" x="227" y="-474.8" font-family="Helvetica,sans-Serif" font-size="11.00" fill="#000000">...</text>
<polygon fill="#ffffff" stroke="transparent" points="224,-449.7 224,-468.7 312,-468.7 312,-449.7 224,-449.7"/>
<polygon fill="none" stroke="#000000" points="224,-449.7 224,-468.7 312,-468.7 312,-449.7 224,-449.7"/>
<text text-anchor="start" x="227" y="-455.8" font-family="Helvetica,sans-Serif" font-size="11.00" fill="#000000">&lt; 1</text>
<polygon fill="#ffffff" stroke="transparent" points="312,-449.7 312,-468.7 357,-468.7 357,-449.7 312,-449.7"/>
<polygon fill="none" stroke="#000000" points="312,-449.7 312,-468.7 357,-468.7 357,-449.7 312,-449.7"/>
<text text-anchor="start" x="347.8862" y="-455.8" font-family="Helvetica,sans-Serif" font-size="11.00" fill="#000000"> &#160;</text>
<polygon fill="#ffffff" stroke="transparent" points="357,-449.7 357,-468.7 412,-468.7 412,-449.7 357,-449.7"/>
<polygon fill="none" stroke="#000000" points="357,-449.7 357,-468.7 412,-468.7 412,-449.7 357,-449.7"/>
<text text-anchor="start" x="393.4053" y="-455.8" font-family="Helvetica,sans-Serif" font-size="11.00" fill="#000000">5 &gt;</text>
</a>
</g>
</g>
<!-- ar_session&#45;&gt;insurance_companies -->
<g id="edge6" class="edge">
<title>ar_session:w&#45;&gt;insurance_companies:e</title>
<path fill="none" stroke="#000000" d="M449.2532,-420.0702C415.3363,-440.1077 466.5892,-542.7 412,-542.7"/>
<polygon fill="#000000" stroke="#000000" points="455.7149,-418.5417 464.3288,-420.2033 459.6074,-417.6208 463.5,-416.7 463.5,-416.7 463.5,-416.7 459.6074,-417.6208 462.6712,-413.1967 455.7149,-418.5417 455.7149,-418.5417"/>
<ellipse fill="none" stroke="#000000" cx="452.6008" cy="-419.2783" rx="3.2" ry="3.2"/>
</g>
</g>
</svg>
