<?xml version="1.0" encoding="UTF-8" standalone="no"?>
<!DOCTYPE svg PUBLIC "-//W3C//DTD SVG 1.1//EN"
 "http://www.w3.org/Graphics/SVG/1.1/DTD/svg11.dtd">
<!-- Generated by graphviz version 2.40.1 (20161225.0304)
 -->
<!-- Title: oneDegreeRelationshipsDiagram Pages: 1 -->
<svg width="910pt" height="675pt"
 viewBox="0.00 0.00 910.00 675.20" xmlns="http://www.w3.org/2000/svg" xmlns:xlink="http://www.w3.org/1999/xlink">
<g id="graph0" class="graph" transform="scale(1 1) rotate(0) translate(4 671.2)">
<title>oneDegreeRelationshipsDiagram</title>
<polygon fill="#ffffff" stroke="transparent" points="-4,4 -4,-671.2 906,-671.2 906,4 -4,4"/>
<text text-anchor="middle" x="72.4936" y="-7.3" font-family="Helvetica,sans-Serif" font-size="11.00" fill="#000000">Generated by SchemaSpy</text>
<!-- ar_activity -->
<g id="node1" class="node">
<title>ar_activity</title>
<g id="a_node1"><a xlink:href="../../tables/ar_activity.html" xlink:title="ar_activity" target="_top">
<polygon fill="#ffffff" stroke="transparent" points="735,-492.2 735,-663.2 894,-663.2 894,-492.2 735,-492.2"/>
<polygon fill="#f5f5f5" stroke="transparent" points="735.5,-639.7 735.5,-662.7 894.5,-662.7 894.5,-639.7 735.5,-639.7"/>
<polygon fill="none" stroke="#000000" points="735.5,-639.7 735.5,-662.7 894.5,-662.7 894.5,-639.7 735.5,-639.7"/>
<text text-anchor="start" x="740.5" y="-648.3" font-family="Helvetica,sans-Serif" font-weight="bold" font-size="11.00" fill="#000000">ar_activity</text>
<text text-anchor="start" x="859.5437" y="-647.8" font-family="Helvetica,sans-Serif" font-size="11.00" fill="#000000">[table]</text>
<polygon fill="none" stroke="#000000" points="735.5,-617.7 735.5,-639.7 894.5,-639.7 894.5,-617.7 735.5,-617.7"/>
<image xlink:href="../../images/primaryKeys.png" width="11px" height="12px" preserveAspectRatio="xMinYMin meet" x="740.5" y="-634.7"/>
<text text-anchor="start" x="755.5" y="-624.8" font-family="Helvetica,sans-Serif" font-size="11.00" fill="#000000">pid</text>
<polygon fill="none" stroke="#000000" points="735.5,-595.7 735.5,-617.7 894.5,-617.7 894.5,-595.7 735.5,-595.7"/>
<image xlink:href="../../images/primaryKeys.png" width="11px" height="12px" preserveAspectRatio="xMinYMin meet" x="740.5" y="-612.7"/>
<text text-anchor="start" x="755.5" y="-602.8" font-family="Helvetica,sans-Serif" font-size="11.00" fill="#000000">encounter</text>
<polygon fill="none" stroke="#000000" points="735.5,-573.7 735.5,-595.7 894.5,-595.7 894.5,-573.7 735.5,-573.7"/>
<image xlink:href="../../images/primaryKeys.png" width="11px" height="12px" preserveAspectRatio="xMinYMin meet" x="740.5" y="-590.7"/>
<text text-anchor="start" x="755.5" y="-580.8" font-family="Helvetica,sans-Serif" font-size="11.00" fill="#000000">sequence_no</text>
<polygon fill="none" stroke="#000000" points="735.5,-551.7 735.5,-573.7 894.5,-573.7 894.5,-551.7 735.5,-551.7"/>
<image xlink:href="../../images/foreignKeys.png" width="11px" height="12px" preserveAspectRatio="xMinYMin meet" x="740.5" y="-568.7"/>
<text text-anchor="start" x="755.5" y="-558.8" font-family="Helvetica,sans-Serif" font-size="11.00" fill="#000000">post_user</text>
<polygon fill="#ffffff" stroke="transparent" points="735.5,-529.7 735.5,-551.7 894.5,-551.7 894.5,-529.7 735.5,-529.7"/>
<polygon fill="none" stroke="#000000" points="735.5,-529.7 735.5,-551.7 894.5,-551.7 894.5,-529.7 735.5,-529.7"/>
<image xlink:href="../../images/foreignKeys.png" width="11px" height="12px" preserveAspectRatio="xMinYMin meet" x="740.5" y="-546.7"/>
<text text-anchor="start" x="755.5" y="-536.8" font-family="Helvetica,sans-Serif" font-size="11.00" fill="#000000">session_id</text>
<polygon fill="none" stroke="#000000" points="735.5,-510.7 735.5,-529.7 894.5,-529.7 894.5,-510.7 735.5,-510.7"/>
<text text-anchor="start" x="738.5" y="-516.8" font-family="Helvetica,sans-Serif" font-size="11.00" fill="#000000">...</text>
<polygon fill="#ffffff" stroke="transparent" points="735.5,-491.7 735.5,-510.7 813.5,-510.7 813.5,-491.7 735.5,-491.7"/>
<polygon fill="none" stroke="#000000" points="735.5,-491.7 735.5,-510.7 813.5,-510.7 813.5,-491.7 735.5,-491.7"/>
<text text-anchor="start" x="738.5" y="-497.8" font-family="Helvetica,sans-Serif" font-size="11.00" fill="#000000">&lt; 4</text>
<polygon fill="#ffffff" stroke="transparent" points="813.5,-491.7 813.5,-510.7 853.5,-510.7 853.5,-491.7 813.5,-491.7"/>
<polygon fill="none" stroke="#000000" points="813.5,-491.7 813.5,-510.7 853.5,-510.7 853.5,-491.7 813.5,-491.7"/>
<text text-anchor="start" x="844.3862" y="-497.8" font-family="Helvetica,sans-Serif" font-size="11.00" fill="#000000"> &#160;</text>
<polygon fill="#ffffff" stroke="transparent" points="853.5,-491.7 853.5,-510.7 894.5,-510.7 894.5,-491.7 853.5,-491.7"/>
<polygon fill="none" stroke="#000000" points="853.5,-491.7 853.5,-510.7 894.5,-510.7 894.5,-491.7 853.5,-491.7"/>
<text text-anchor="start" x="885.3862" y="-497.8" font-family="Helvetica,sans-Serif" font-size="11.00" fill="#000000"> &#160;</text>
</a>
</g>
</g>
<!-- patient_data -->
<g id="node2" class="node">
<title>patient_data</title>
<g id="a_node2"><a xlink:href="../../tables/patient_data.html" xlink:title="patient_data" target="_top">
<polygon fill="#ffffff" stroke="transparent" points="234.5,-192.2 234.5,-429.2 401.5,-429.2 401.5,-192.2 234.5,-192.2"/>
<polygon fill="#f5f5f5" stroke="transparent" points="235,-405.7 235,-428.7 402,-428.7 402,-405.7 235,-405.7"/>
<polygon fill="none" stroke="#000000" points="235,-405.7 235,-428.7 402,-428.7 402,-405.7 235,-405.7"/>
<text text-anchor="start" x="240" y="-414.3" font-family="Helvetica,sans-Serif" font-weight="bold" font-size="11.00" fill="#000000">patient_data</text>
<text text-anchor="start" x="367.0437" y="-413.8" font-family="Helvetica,sans-Serif" font-size="11.00" fill="#000000">[table]</text>
<polygon fill="#ffffff" stroke="transparent" points="235,-383.7 235,-405.7 402,-405.7 402,-383.7 235,-383.7"/>
<polygon fill="none" stroke="#000000" points="235,-383.7 235,-405.7 402,-405.7 402,-383.7 235,-383.7"/>
<text text-anchor="start" x="255" y="-390.8" font-family="Helvetica,sans-Serif" font-size="11.00" fill="#000000">id</text>
<polygon fill="#ffffff" stroke="transparent" points="235,-361.7 235,-383.7 402,-383.7 402,-361.7 235,-361.7"/>
<polygon fill="none" stroke="#000000" points="235,-361.7 235,-383.7 402,-383.7 402,-361.7 235,-361.7"/>
<text text-anchor="start" x="255" y="-368.8" font-family="Helvetica,sans-Serif" font-size="11.00" fill="#000000">uuid</text>
<polygon fill="none" stroke="#000000" points="235,-339.7 235,-361.7 402,-361.7 402,-339.7 235,-339.7"/>
<image xlink:href="../../images/foreignKeys.png" width="11px" height="12px" preserveAspectRatio="xMinYMin meet" x="240" y="-356.7"/>
<text text-anchor="start" x="255" y="-346.8" font-family="Helvetica,sans-Serif" font-size="11.00" fill="#000000">pharmacy_id</text>
<polygon fill="none" stroke="#000000" points="235,-317.7 235,-339.7 402,-339.7 402,-317.7 235,-317.7"/>
<image xlink:href="../../images/foreignKeys.png" width="11px" height="12px" preserveAspectRatio="xMinYMin meet" x="240" y="-334.7"/>
<text text-anchor="start" x="255" y="-324.8" font-family="Helvetica,sans-Serif" font-size="11.00" fill="#000000">providerID</text>
<polygon fill="none" stroke="#000000" points="235,-295.7 235,-317.7 402,-317.7 402,-295.7 235,-295.7"/>
<image xlink:href="../../images/foreignKeys.png" width="11px" height="12px" preserveAspectRatio="xMinYMin meet" x="240" y="-312.7"/>
<text text-anchor="start" x="255" y="-302.8" font-family="Helvetica,sans-Serif" font-size="11.00" fill="#000000">ref_providerID</text>
<polygon fill="none" stroke="#000000" points="235,-273.7 235,-295.7 402,-295.7 402,-273.7 235,-273.7"/>
<image xlink:href="../../images/primaryKeys.png" width="11px" height="12px" preserveAspectRatio="xMinYMin meet" x="240" y="-290.7"/>
<text text-anchor="start" x="255" y="-280.8" font-family="Helvetica,sans-Serif" font-size="11.00" fill="#000000">pid</text>
<polygon fill="none" stroke="#000000" points="235,-251.7 235,-273.7 402,-273.7 402,-251.7 235,-251.7"/>
<image xlink:href="../../images/foreignKeys.png" width="11px" height="12px" preserveAspectRatio="xMinYMin meet" x="240" y="-268.7"/>
<text text-anchor="start" x="255" y="-258.8" font-family="Helvetica,sans-Serif" font-size="11.00" fill="#000000">created_by</text>
<polygon fill="none" stroke="#000000" points="235,-229.7 235,-251.7 402,-251.7 402,-229.7 235,-229.7"/>
<image xlink:href="../../images/foreignKeys.png" width="11px" height="12px" preserveAspectRatio="xMinYMin meet" x="240" y="-246.7"/>
<text text-anchor="start" x="255" y="-236.8" font-family="Helvetica,sans-Serif" font-size="11.00" fill="#000000">updated_by</text>
<polygon fill="none" stroke="#000000" points="235,-210.7 235,-229.7 402,-229.7 402,-210.7 235,-210.7"/>
<text text-anchor="start" x="238" y="-216.8" font-family="Helvetica,sans-Serif" font-size="11.00" fill="#000000">...</text>
<polygon fill="#ffffff" stroke="transparent" points="235,-191.7 235,-210.7 309,-210.7 309,-191.7 235,-191.7"/>
<polygon fill="none" stroke="#000000" points="235,-191.7 235,-210.7 309,-210.7 309,-191.7 235,-191.7"/>
<text text-anchor="start" x="238" y="-197.8" font-family="Helvetica,sans-Serif" font-size="11.00" fill="#000000">&lt; 5</text>
<polygon fill="#ffffff" stroke="transparent" points="309,-191.7 309,-210.7 348,-210.7 348,-191.7 309,-191.7"/>
<polygon fill="none" stroke="#000000" points="309,-191.7 309,-210.7 348,-210.7 348,-191.7 309,-191.7"/>
<text text-anchor="start" x="338.8862" y="-197.8" font-family="Helvetica,sans-Serif" font-size="11.00" fill="#000000"> &#160;</text>
<polygon fill="#ffffff" stroke="transparent" points="348,-191.7 348,-210.7 402,-210.7 402,-191.7 348,-191.7"/>
<polygon fill="none" stroke="#000000" points="348,-191.7 348,-210.7 402,-210.7 402,-191.7 348,-191.7"/>
<text text-anchor="start" x="377.2904" y="-197.8" font-family="Helvetica,sans-Serif" font-size="11.00" fill="#000000">85 &gt;</text>
</a>
</g>
</g>
<!-- ar_activity&#45;&gt;patient_data -->
<g id="edge1" class="edge">
<title>ar_activity:w&#45;&gt;patient_data:e</title>
<path fill="none" stroke="#000000" d="M720.975,-628.5751C590.9501,-626.2733 537.8837,-591.6731 453,-485.7 395.382,-413.7668 494.1641,-284.7 402,-284.7"/>
<polygon fill="#000000" stroke="#000000" points="727.5003,-628.6312 735.469,-632.2999 731.5001,-628.6656 735.5,-628.7 735.5,-628.7 735.5,-628.7 731.5001,-628.6656 735.531,-625.1001 727.5003,-628.6312 727.5003,-628.6312"/>
<ellipse fill="none" stroke="#000000" cx="724.3004" cy="-628.6036" rx="3.2" ry="3.2"/>
</g>
<!-- users -->
<g id="node3" class="node">
<title>users</title>
<g id="a_node3"><a xlink:href="../../tables/users.html" xlink:title="users" target="_top">
<polygon fill="#ffffff" stroke="transparent" points="8,-104.2 8,-319.2 175,-319.2 175,-104.2 8,-104.2"/>
<polygon fill="#f5f5f5" stroke="transparent" points="8.5,-295.7 8.5,-318.7 175.5,-318.7 175.5,-295.7 8.5,-295.7"/>
<polygon fill="none" stroke="#000000" points="8.5,-295.7 8.5,-318.7 175.5,-318.7 175.5,-295.7 8.5,-295.7"/>
<text text-anchor="start" x="13.5" y="-304.3" font-family="Helvetica,sans-Serif" font-weight="bold" font-size="11.00" fill="#000000">users</text>
<text text-anchor="start" x="140.5437" y="-303.8" font-family="Helvetica,sans-Serif" font-size="11.00" fill="#000000">[table]</text>
<polygon fill="none" stroke="#000000" points="8.5,-273.7 8.5,-295.7 175.5,-295.7 175.5,-273.7 8.5,-273.7"/>
<image xlink:href="../../images/primaryKeys.png" width="11px" height="12px" preserveAspectRatio="xMinYMin meet" x="13.5" y="-290.7"/>
<text text-anchor="start" x="28.5" y="-280.8" font-family="Helvetica,sans-Serif" font-size="11.00" fill="#000000">id</text>
<polygon fill="#ffffff" stroke="transparent" points="8.5,-251.7 8.5,-273.7 175.5,-273.7 175.5,-251.7 8.5,-251.7"/>
<polygon fill="none" stroke="#000000" points="8.5,-251.7 8.5,-273.7 175.5,-273.7 175.5,-251.7 8.5,-251.7"/>
<text text-anchor="start" x="28.5" y="-258.8" font-family="Helvetica,sans-Serif" font-size="11.00" fill="#000000">uuid</text>
<polygon fill="none" stroke="#000000" points="8.5,-229.7 8.5,-251.7 175.5,-251.7 175.5,-229.7 8.5,-229.7"/>
<image xlink:href="../../images/primaryKeys.png" width="11px" height="12px" preserveAspectRatio="xMinYMin meet" x="13.5" y="-246.7"/>
<text text-anchor="start" x="28.5" y="-236.8" font-family="Helvetica,sans-Serif" font-size="11.00" fill="#000000">username</text>
<polygon fill="none" stroke="#000000" points="8.5,-207.7 8.5,-229.7 175.5,-229.7 175.5,-207.7 8.5,-207.7"/>
<image xlink:href="../../images/foreignKeys.png" width="11px" height="12px" preserveAspectRatio="xMinYMin meet" x="13.5" y="-224.7"/>
<text text-anchor="start" x="28.5" y="-214.8" font-family="Helvetica,sans-Serif" font-size="11.00" fill="#000000">facility_id</text>
<polygon fill="#ffffff" stroke="transparent" points="8.5,-185.7 8.5,-207.7 175.5,-207.7 175.5,-185.7 8.5,-185.7"/>
<polygon fill="none" stroke="#000000" points="8.5,-185.7 8.5,-207.7 175.5,-207.7 175.5,-185.7 8.5,-185.7"/>
<text text-anchor="start" x="28.5" y="-192.8" font-family="Helvetica,sans-Serif" font-size="11.00" fill="#000000">google_signin_email</text>
<polygon fill="#ffffff" stroke="transparent" points="8.5,-163.7 8.5,-185.7 175.5,-185.7 175.5,-163.7 8.5,-163.7"/>
<polygon fill="none" stroke="#000000" points="8.5,-163.7 8.5,-185.7 175.5,-185.7 175.5,-163.7 8.5,-163.7"/>
<text text-anchor="start" x="28.5" y="-170.8" font-family="Helvetica,sans-Serif" font-size="11.00" fill="#000000">abook_type</text>
<polygon fill="none" stroke="#000000" points="8.5,-141.7 8.5,-163.7 175.5,-163.7 175.5,-141.7 8.5,-141.7"/>
<image xlink:href="../../images/foreignKeys.png" width="11px" height="12px" preserveAspectRatio="xMinYMin meet" x="13.5" y="-158.7"/>
<text text-anchor="start" x="28.5" y="-148.8" font-family="Helvetica,sans-Serif" font-size="11.00" fill="#000000">billing_facility_id</text>
<polygon fill="none" stroke="#000000" points="8.5,-122.7 8.5,-141.7 175.5,-141.7 175.5,-122.7 8.5,-122.7"/>
<text text-anchor="start" x="11.5" y="-128.8" font-family="Helvetica,sans-Serif" font-size="11.00" fill="#000000">...</text>
<polygon fill="#ffffff" stroke="transparent" points="8.5,-103.7 8.5,-122.7 82.5,-122.7 82.5,-103.7 8.5,-103.7"/>
<polygon fill="none" stroke="#000000" points="8.5,-103.7 8.5,-122.7 82.5,-122.7 82.5,-103.7 8.5,-103.7"/>
<text text-anchor="start" x="11.5" y="-109.8" font-family="Helvetica,sans-Serif" font-size="11.00" fill="#000000">&lt; 2</text>
<polygon fill="#ffffff" stroke="transparent" points="82.5,-103.7 82.5,-122.7 121.5,-122.7 121.5,-103.7 82.5,-103.7"/>
<polygon fill="none" stroke="#000000" points="82.5,-103.7 82.5,-122.7 121.5,-122.7 121.5,-103.7 82.5,-103.7"/>
<text text-anchor="start" x="112.3862" y="-109.8" font-family="Helvetica,sans-Serif" font-size="11.00" fill="#000000"> &#160;</text>
<polygon fill="#ffffff" stroke="transparent" points="121.5,-103.7 121.5,-122.7 175.5,-122.7 175.5,-103.7 121.5,-103.7"/>
<polygon fill="none" stroke="#000000" points="121.5,-103.7 121.5,-122.7 175.5,-122.7 175.5,-103.7 121.5,-103.7"/>
<text text-anchor="start" x="150.7904" y="-109.8" font-family="Helvetica,sans-Serif" font-size="11.00" fill="#000000">61 &gt;</text>
</a>
</g>
</g>
<!-- ar_activity&#45;&gt;users -->
<g id="edge2" class="edge">
<title>ar_activity:w&#45;&gt;users:e</title>
<path fill="none" stroke="#000000" d="M721.0927,-562.9297C499.5137,-569.9974 386.2907,-736.7436 216,-587.7 164.8817,-542.9597 243.4322,-284.7 175.5,-284.7"/>
<polygon fill="#000000" stroke="#000000" points="727.501,-562.8276 735.5574,-566.2995 731.5005,-562.7638 735.5,-562.7 735.5,-562.7 735.5,-562.7 731.5005,-562.7638 735.4426,-559.1005 727.501,-562.8276 727.501,-562.8276"/>
<ellipse fill="none" stroke="#000000" cx="724.3014" cy="-562.8786" rx="3.2" ry="3.2"/>
</g>
<!-- ar_session -->
<g id="node4" class="node">
<title>ar_session</title>
<g id="a_node4"><a xlink:href="../../tables/ar_session.html" xlink:title="ar_session" target="_top">
<polygon fill="#ffffff" stroke="transparent" points="461,-54.7 461,-474.7 686,-474.7 686,-54.7 461,-54.7"/>
<polygon fill="#f5f5f5" stroke="transparent" points="463.5,-449.7 463.5,-472.7 684.5,-472.7 684.5,-449.7 463.5,-449.7"/>
<polygon fill="none" stroke="#000000" points="463.5,-449.7 463.5,-472.7 684.5,-472.7 684.5,-449.7 463.5,-449.7"/>
<text text-anchor="start" x="468.5" y="-458.3" font-family="Helvetica,sans-Serif" font-weight="bold" font-size="11.00" fill="#000000">ar_session</text>
<text text-anchor="start" x="649.5437" y="-457.8" font-family="Helvetica,sans-Serif" font-size="11.00" fill="#000000">[table]</text>
<polygon fill="none" stroke="#000000" points="463.5,-427.7 463.5,-449.7 601.5,-449.7 601.5,-427.7 463.5,-427.7"/>
<image xlink:href="../../images/primaryKeys.png" width="11px" height="12px" preserveAspectRatio="xMinYMin meet" x="468.5" y="-444.7"/>
<text text-anchor="start" x="483.5" y="-434.8" font-family="Helvetica,sans-Serif" font-size="11.00" fill="#000000">session_id</text>
<polygon fill="none" stroke="#000000" points="601.5,-427.7 601.5,-449.7 684.5,-449.7 684.5,-427.7 601.5,-427.7"/>
<text text-anchor="start" x="604.1783" y="-435.4" font-family="Helvetica,sans-Serif" font-size="11.00" fill="#000000">int unsigned[10]</text>
<polygon fill="none" stroke="#000000" points="463.5,-405.7 463.5,-427.7 601.5,-427.7 601.5,-405.7 463.5,-405.7"/>
<image xlink:href="../../images/foreignKeys.png" width="11px" height="12px" preserveAspectRatio="xMinYMin meet" x="468.5" y="-422.7"/>
<text text-anchor="start" x="483.5" y="-412.8" font-family="Helvetica,sans-Serif" font-size="11.00" fill="#000000">payer_id</text>
<polygon fill="none" stroke="#000000" points="601.5,-405.7 601.5,-427.7 684.5,-427.7 684.5,-405.7 601.5,-405.7"/>
<text text-anchor="start" x="604.5" y="-413.4" font-family="Helvetica,sans-Serif" font-size="11.00" fill="#000000">int[10]</text>
<polygon fill="#ffffff" stroke="transparent" points="463.5,-383.7 463.5,-405.7 601.5,-405.7 601.5,-383.7 463.5,-383.7"/>
<polygon fill="none" stroke="#000000" points="463.5,-383.7 463.5,-405.7 601.5,-405.7 601.5,-383.7 463.5,-383.7"/>
<image xlink:href="../../images/foreignKeys.png" width="11px" height="12px" preserveAspectRatio="xMinYMin meet" x="468.5" y="-400.7"/>
<text text-anchor="start" x="483.5" y="-390.8" font-family="Helvetica,sans-Serif" font-size="11.00" fill="#000000">user_id</text>
<polygon fill="none" stroke="#000000" points="601.5,-383.7 601.5,-405.7 684.5,-405.7 684.5,-383.7 601.5,-383.7"/>
<text text-anchor="start" x="604.5" y="-391.4" font-family="Helvetica,sans-Serif" font-size="11.00" fill="#000000">int[10]</text>
<polygon fill="#ffffff" stroke="transparent" points="463.5,-361.7 463.5,-383.7 601.5,-383.7 601.5,-361.7 463.5,-361.7"/>
<polygon fill="none" stroke="#000000" points="463.5,-361.7 463.5,-383.7 601.5,-383.7 601.5,-361.7 463.5,-361.7"/>
<text text-anchor="start" x="483.5" y="-368.8" font-family="Helvetica,sans-Serif" font-size="11.00" fill="#000000">closed</text>
<polygon fill="none" stroke="#000000" points="601.5,-361.7 601.5,-383.7 684.5,-383.7 684.5,-361.7 601.5,-361.7"/>
<text text-anchor="start" x="604.5" y="-369.4" font-family="Helvetica,sans-Serif" font-size="11.00" fill="#000000">bit[1]</text>
<polygon fill="none" stroke="#000000" points="463.5,-339.7 463.5,-361.7 601.5,-361.7 601.5,-339.7 463.5,-339.7"/>
<text text-anchor="start" x="483.5" y="-346.8" font-family="Helvetica,sans-Serif" font-size="11.00" fill="#000000">reference</text>
<polygon fill="none" stroke="#000000" points="601.5,-339.7 601.5,-361.7 684.5,-361.7 684.5,-339.7 601.5,-339.7"/>
<text text-anchor="start" x="604.5" y="-347.4" font-family="Helvetica,sans-Serif" font-size="11.00" fill="#000000">varchar[255]</text>
<polygon fill="none" stroke="#000000" points="463.5,-317.7 463.5,-339.7 601.5,-339.7 601.5,-317.7 463.5,-317.7"/>
<text text-anchor="start" x="483.5" y="-324.8" font-family="Helvetica,sans-Serif" font-size="11.00" fill="#000000">check_date</text>
<polygon fill="none" stroke="#000000" points="601.5,-317.7 601.5,-339.7 684.5,-339.7 684.5,-317.7 601.5,-317.7"/>
<text text-anchor="start" x="604.5" y="-325.4" font-family="Helvetica,sans-Serif" font-size="11.00" fill="#000000">date[10]</text>
<polygon fill="#ffffff" stroke="transparent" points="463.5,-295.7 463.5,-317.7 601.5,-317.7 601.5,-295.7 463.5,-295.7"/>
<polygon fill="none" stroke="#000000" points="463.5,-295.7 463.5,-317.7 601.5,-317.7 601.5,-295.7 463.5,-295.7"/>
<text text-anchor="start" x="483.5" y="-302.8" font-family="Helvetica,sans-Serif" font-size="11.00" fill="#000000">deposit_date</text>
<polygon fill="none" stroke="#000000" points="601.5,-295.7 601.5,-317.7 684.5,-317.7 684.5,-295.7 601.5,-295.7"/>
<text text-anchor="start" x="604.5" y="-303.4" font-family="Helvetica,sans-Serif" font-size="11.00" fill="#000000">date[10]</text>
<polygon fill="none" stroke="#000000" points="463.5,-273.7 463.5,-295.7 601.5,-295.7 601.5,-273.7 463.5,-273.7"/>
<text text-anchor="start" x="483.5" y="-280.8" font-family="Helvetica,sans-Serif" font-size="11.00" fill="#000000">pay_total</text>
<polygon fill="none" stroke="#000000" points="601.5,-273.7 601.5,-295.7 684.5,-295.7 684.5,-273.7 601.5,-273.7"/>
<text text-anchor="start" x="604.5" y="-281.4" font-family="Helvetica,sans-Serif" font-size="11.00" fill="#000000">decimal[12,2]</text>
<polygon fill="none" stroke="#000000" points="463.5,-251.7 463.5,-273.7 601.5,-273.7 601.5,-251.7 463.5,-251.7"/>
<text text-anchor="start" x="483.5" y="-258.8" font-family="Helvetica,sans-Serif" font-size="11.00" fill="#000000">created_time</text>
<polygon fill="none" stroke="#000000" points="601.5,-251.7 601.5,-273.7 684.5,-273.7 684.5,-251.7 601.5,-251.7"/>
<text text-anchor="start" x="604.5" y="-259.4" font-family="Helvetica,sans-Serif" font-size="11.00" fill="#000000">timestamp[19]</text>
<polygon fill="none" stroke="#000000" points="463.5,-229.7 463.5,-251.7 601.5,-251.7 601.5,-229.7 463.5,-229.7"/>
<text text-anchor="start" x="483.5" y="-236.8" font-family="Helvetica,sans-Serif" font-size="11.00" fill="#000000">modified_time</text>
<polygon fill="none" stroke="#000000" points="601.5,-229.7 601.5,-251.7 684.5,-251.7 684.5,-229.7 601.5,-229.7"/>
<text text-anchor="start" x="604.5" y="-237.4" font-family="Helvetica,sans-Serif" font-size="11.00" fill="#000000">datetime[19]</text>
<polygon fill="none" stroke="#000000" points="463.5,-207.7 463.5,-229.7 601.5,-229.7 601.5,-207.7 463.5,-207.7"/>
<text text-anchor="start" x="483.5" y="-214.8" font-family="Helvetica,sans-Serif" font-size="11.00" fill="#000000">global_amount</text>
<polygon fill="none" stroke="#000000" points="601.5,-207.7 601.5,-229.7 684.5,-229.7 684.5,-207.7 601.5,-207.7"/>
<text text-anchor="start" x="604.5" y="-215.4" font-family="Helvetica,sans-Serif" font-size="11.00" fill="#000000">decimal[12,2]</text>
<polygon fill="none" stroke="#000000" points="463.5,-185.7 463.5,-207.7 601.5,-207.7 601.5,-185.7 463.5,-185.7"/>
<image xlink:href="../../images/foreignKeys.png" width="11px" height="12px" preserveAspectRatio="xMinYMin meet" x="468.5" y="-202.7"/>
<text text-anchor="start" x="483.5" y="-192.8" font-family="Helvetica,sans-Serif" font-size="11.00" fill="#000000">payment_type</text>
<polygon fill="none" stroke="#000000" points="601.5,-185.7 601.5,-207.7 684.5,-207.7 684.5,-185.7 601.5,-185.7"/>
<text text-anchor="start" x="604.5" y="-193.4" font-family="Helvetica,sans-Serif" font-size="11.00" fill="#000000">varchar[50]</text>
<polygon fill="none" stroke="#000000" points="463.5,-163.7 463.5,-185.7 601.5,-185.7 601.5,-163.7 463.5,-163.7"/>
<text text-anchor="start" x="483.5" y="-170.8" font-family="Helvetica,sans-Serif" font-size="11.00" fill="#000000">description</text>
<polygon fill="none" stroke="#000000" points="601.5,-163.7 601.5,-185.7 684.5,-185.7 684.5,-163.7 601.5,-163.7"/>
<text text-anchor="start" x="604.5" y="-171.4" font-family="Helvetica,sans-Serif" font-size="11.00" fill="#000000">text[65535]</text>
<polygon fill="none" stroke="#000000" points="463.5,-141.7 463.5,-163.7 601.5,-163.7 601.5,-141.7 463.5,-141.7"/>
<image xlink:href="../../images/foreignKeys.png" width="11px" height="12px" preserveAspectRatio="xMinYMin meet" x="468.5" y="-158.7"/>
<text text-anchor="start" x="483.5" y="-148.8" font-family="Helvetica,sans-Serif" font-size="11.00" fill="#000000">adjustment_code</text>
<polygon fill="none" stroke="#000000" points="601.5,-141.7 601.5,-163.7 684.5,-163.7 684.5,-141.7 601.5,-141.7"/>
<text text-anchor="start" x="604.5" y="-149.4" font-family="Helvetica,sans-Serif" font-size="11.00" fill="#000000">varchar[50]</text>
<polygon fill="none" stroke="#000000" points="463.5,-119.7 463.5,-141.7 601.5,-141.7 601.5,-119.7 463.5,-119.7"/>
<text text-anchor="start" x="483.5" y="-126.8" font-family="Helvetica,sans-Serif" font-size="11.00" fill="#000000">post_to_date</text>
<polygon fill="none" stroke="#000000" points="601.5,-119.7 601.5,-141.7 684.5,-141.7 684.5,-119.7 601.5,-119.7"/>
<text text-anchor="start" x="604.5" y="-127.4" font-family="Helvetica,sans-Serif" font-size="11.00" fill="#000000">date[10]</text>
<polygon fill="none" stroke="#000000" points="463.5,-97.7 463.5,-119.7 601.5,-119.7 601.5,-97.7 463.5,-97.7"/>
<image xlink:href="../../images/foreignKeys.png" width="11px" height="12px" preserveAspectRatio="xMinYMin meet" x="468.5" y="-114.7"/>
<text text-anchor="start" x="483.5" y="-104.8" font-family="Helvetica,sans-Serif" font-size="11.00" fill="#000000">patient_id</text>
<polygon fill="none" stroke="#000000" points="601.5,-97.7 601.5,-119.7 684.5,-119.7 684.5,-97.7 601.5,-97.7"/>
<text text-anchor="start" x="604.5" y="-105.4" font-family="Helvetica,sans-Serif" font-size="11.00" fill="#000000">bigint[19]</text>
<polygon fill="none" stroke="#000000" points="463.5,-75.7 463.5,-97.7 601.5,-97.7 601.5,-75.7 463.5,-75.7"/>
<image xlink:href="../../images/foreignKeys.png" width="11px" height="12px" preserveAspectRatio="xMinYMin meet" x="468.5" y="-92.7"/>
<text text-anchor="start" x="483.5" y="-82.8" font-family="Helvetica,sans-Serif" font-size="11.00" fill="#000000">payment_method</text>
<polygon fill="none" stroke="#000000" points="601.5,-75.7 601.5,-97.7 684.5,-97.7 684.5,-75.7 601.5,-75.7"/>
<text text-anchor="start" x="604.5" y="-83.4" font-family="Helvetica,sans-Serif" font-size="11.00" fill="#000000">varchar[25]</text>
<polygon fill="#ffffff" stroke="transparent" points="463.5,-56.7 463.5,-75.7 536.5,-75.7 536.5,-56.7 463.5,-56.7"/>
<polygon fill="none" stroke="#000000" points="463.5,-56.7 463.5,-75.7 536.5,-75.7 536.5,-56.7 463.5,-56.7"/>
<text text-anchor="start" x="466.5" y="-62.8" font-family="Helvetica,sans-Serif" font-size="11.00" fill="#000000">&lt; 6</text>
<polygon fill="#ffffff" stroke="transparent" points="536.5,-56.7 536.5,-75.7 601.5,-75.7 601.5,-56.7 536.5,-56.7"/>
<polygon fill="none" stroke="#000000" points="536.5,-56.7 536.5,-75.7 601.5,-75.7 601.5,-56.7 536.5,-56.7"/>
<text text-anchor="start" x="592.3862" y="-62.8" font-family="Helvetica,sans-Serif" font-size="11.00" fill="#000000"> &#160;</text>
<polygon fill="#ffffff" stroke="transparent" points="601.5,-56.7 601.5,-75.7 684.5,-75.7 684.5,-56.7 601.5,-56.7"/>
<polygon fill="none" stroke="#000000" points="601.5,-56.7 601.5,-75.7 684.5,-75.7 684.5,-56.7 601.5,-56.7"/>
<text text-anchor="start" x="665.9053" y="-62.8" font-family="Helvetica,sans-Serif" font-size="11.00" fill="#000000">1 &gt;</text>
<polygon fill="none" stroke="#000000" stroke-width="2" points="462,-55.7 462,-473.7 685,-473.7 685,-55.7 462,-55.7"/>
</a>
</g>
</g>
<!-- ar_activity&#45;&gt;ar_session -->
<g id="edge3" class="edge">
<title>ar_activity:w&#45;&gt;ar_session:e</title>
<path fill="none" stroke="#000000" d="M721.5193,-536.826C695.2331,-518.1945 729.2447,-438.7 684.5,-438.7"/>
<polygon fill="#000000" stroke="#000000" points="727.7905,-538.5637 734.5387,-544.1693 731.6452,-539.6319 735.5,-540.7 735.5,-540.7 735.5,-540.7 731.6452,-539.6319 736.4613,-537.2307 727.7905,-538.5637 727.7905,-538.5637"/>
<ellipse fill="none" stroke="#000000" cx="724.7067" cy="-537.7092" rx="3.2" ry="3.2"/>
</g>
<!-- patient_data&#45;&gt;users -->
<g id="edge10" class="edge">
<title>patient_data:w&#45;&gt;users:e</title>
<path fill="none" stroke="#000000" d="M220.5034,-265.0544C204.5068,-270.7298 197.9673,-284.7 175.5,-284.7"/>
<polygon fill="#000000" stroke="#000000" points="227.1035,-263.9825 235.5771,-266.2534 231.0517,-263.3413 235,-262.7 235,-262.7 235,-262.7 231.0517,-263.3413 234.4229,-259.1466 227.1035,-263.9825 227.1035,-263.9825"/>
<ellipse fill="none" stroke="#000000" cx="223.9449" cy="-264.4955" rx="3.2" ry="3.2"/>
</g>
<!-- patient_data&#45;&gt;users -->
<g id="edge11" class="edge">
<title>patient_data:w&#45;&gt;users:e</title>
<path fill="none" stroke="#000000" d="M220.8612,-325.0993C203.1076,-314.5908 202.6083,-284.7 175.5,-284.7"/>
<polygon fill="#000000" stroke="#000000" points="227.2474,-326.7256 234.1115,-332.1886 231.1237,-327.7128 235,-328.7 235,-328.7 235,-328.7 231.1237,-327.7128 235.8885,-325.2114 227.2474,-326.7256 227.2474,-326.7256"/>
<ellipse fill="none" stroke="#000000" cx="224.1464" cy="-325.9359" rx="3.2" ry="3.2"/>
</g>
<!-- patient_data&#45;&gt;users -->
<g id="edge12" class="edge">
<title>patient_data:w&#45;&gt;users:e</title>
<path fill="none" stroke="#000000" d="M220.5034,-304.3456C204.5068,-298.6702 197.9673,-284.7 175.5,-284.7"/>
<polygon fill="#000000" stroke="#000000" points="227.1035,-305.4175 234.4229,-310.2534 231.0517,-306.0587 235,-306.7 235,-306.7 235,-306.7 231.0517,-306.0587 235.5771,-303.1466 227.1035,-305.4175 227.1035,-305.4175"/>
<ellipse fill="none" stroke="#000000" cx="223.9449" cy="-304.9045" rx="3.2" ry="3.2"/>
</g>
<!-- patient_data&#45;&gt;users -->
<g id="edge13" class="edge">
<title>patient_data:w&#45;&gt;users:e</title>
<path fill="none" stroke="#000000" d="M220.8612,-244.3007C203.1076,-254.8092 202.6083,-284.7 175.5,-284.7"/>
<polygon fill="#000000" stroke="#000000" points="227.2474,-242.6744 235.8885,-244.1886 231.1237,-241.6872 235,-240.7 235,-240.7 235,-240.7 231.1237,-241.6872 234.1115,-237.2114 227.2474,-242.6744 227.2474,-242.6744"/>
<ellipse fill="none" stroke="#000000" cx="224.1464" cy="-243.4641" rx="3.2" ry="3.2"/>
</g>
<!-- ar_session&#45;&gt;patient_data -->
<g id="edge5" class="edge">
<title>ar_session:w&#45;&gt;patient_data:e</title>
<path fill="none" stroke="#000000" d="M449.0103,-111.0549C394.0144,-131.9401 479.196,-284.7 402,-284.7"/>
<polygon fill="#000000" stroke="#000000" points="455.6036,-109.9834 464.0775,-112.2534 459.5518,-109.3417 463.5,-108.7 463.5,-108.7 463.5,-108.7 459.5518,-109.3417 462.9225,-105.1466 455.6036,-109.9834 455.6036,-109.9834"/>
<ellipse fill="none" stroke="#000000" cx="452.445" cy="-110.4967" rx="3.2" ry="3.2"/>
</g>
<!-- ar_session&#45;&gt;users -->
<g id="edge9" class="edge">
<title>ar_session:w&#45;&gt;users:e</title>
<path fill="none" stroke="#000000" d="M449.1659,-393.2822C380.7248,-377.7844 490.6058,-239.3436 420,-181.7 384.8836,-153.0304 253.4643,-156.1747 216,-181.7 175.349,-209.3965 224.6895,-284.7 175.5,-284.7"/>
<polygon fill="#000000" stroke="#000000" points="455.5388,-393.9125 463.1456,-398.2825 459.5194,-394.3062 463.5,-394.7 463.5,-394.7 463.5,-394.7 459.5194,-394.3062 463.8544,-391.1175 455.5388,-393.9125 455.5388,-393.9125"/>
<ellipse fill="none" stroke="#000000" cx="452.3544" cy="-393.5975" rx="3.2" ry="3.2"/>
</g>
<!-- list_options -->
<g id="node5" class="node">
<title>list_options</title>
<g id="a_node5"><a xlink:href="../../tables/list_options.html" xlink:title="list_options" target="_top">
<polygon fill="#ffffff" stroke="transparent" points="252,-38.2 252,-143.2 384,-143.2 384,-38.2 252,-38.2"/>
<polygon fill="#f5f5f5" stroke="transparent" points="252,-119.7 252,-142.7 384,-142.7 384,-119.7 252,-119.7"/>
<polygon fill="none" stroke="#000000" points="252,-119.7 252,-142.7 384,-142.7 384,-119.7 252,-119.7"/>
<text text-anchor="start" x="257" y="-128.3" font-family="Helvetica,sans-Serif" font-weight="bold" font-size="11.00" fill="#000000">list_options</text>
<text text-anchor="start" x="349.0437" y="-127.8" font-family="Helvetica,sans-Serif" font-size="11.00" fill="#000000">[table]</text>
<polygon fill="none" stroke="#000000" points="252,-97.7 252,-119.7 384,-119.7 384,-97.7 252,-97.7"/>
<image xlink:href="../../images/primaryKeys.png" width="11px" height="12px" preserveAspectRatio="xMinYMin meet" x="257" y="-114.7"/>
<text text-anchor="start" x="272" y="-104.8" font-family="Helvetica,sans-Serif" font-size="11.00" fill="#000000">list_id</text>
<polygon fill="none" stroke="#000000" points="252,-75.7 252,-97.7 384,-97.7 384,-75.7 252,-75.7"/>
<image xlink:href="../../images/primaryKeys.png" width="11px" height="12px" preserveAspectRatio="xMinYMin meet" x="257" y="-92.7"/>
<text text-anchor="start" x="272" y="-82.8" font-family="Helvetica,sans-Serif" font-size="11.00" fill="#000000">option_id</text>
<polygon fill="none" stroke="#000000" points="252,-56.7 252,-75.7 384,-75.7 384,-56.7 252,-56.7"/>
<text text-anchor="start" x="255" y="-62.8" font-family="Helvetica,sans-Serif" font-size="11.00" fill="#000000">...</text>
<polygon fill="#ffffff" stroke="transparent" points="252,-37.7 252,-56.7 304,-56.7 304,-37.7 252,-37.7"/>
<polygon fill="none" stroke="#000000" points="252,-37.7 252,-56.7 304,-56.7 304,-37.7 252,-37.7"/>
<text text-anchor="start" x="255" y="-43.8" font-family="Helvetica,sans-Serif" font-size="11.00" fill="#000000"> &#160;</text>
<polygon fill="#ffffff" stroke="transparent" points="304,-37.7 304,-56.7 336,-56.7 336,-37.7 304,-37.7"/>
<polygon fill="none" stroke="#000000" points="304,-37.7 304,-56.7 336,-56.7 336,-37.7 304,-37.7"/>
<text text-anchor="start" x="326.8862" y="-43.8" font-family="Helvetica,sans-Serif" font-size="11.00" fill="#000000"> &#160;</text>
<polygon fill="#ffffff" stroke="transparent" points="336,-37.7 336,-56.7 384,-56.7 384,-37.7 336,-37.7"/>
<polygon fill="none" stroke="#000000" points="336,-37.7 336,-56.7 384,-56.7 384,-37.7 336,-37.7"/>
<text text-anchor="start" x="359.2904" y="-43.8" font-family="Helvetica,sans-Serif" font-size="11.00" fill="#000000">46 &gt;</text>
</a>
</g>
</g>
<!-- ar_session&#45;&gt;list_options -->
<g id="edge4" class="edge">
<title>ar_session:w&#45;&gt;list_options:e</title>
<path fill="none" stroke="#000000" d="M449.1735,-150.031C419.7128,-137.6834 424.3617,-86.7 384,-86.7"/>
<polygon fill="#000000" stroke="#000000" points="455.6353,-151.2348 462.8406,-156.2391 459.5677,-151.9674 463.5,-152.7 463.5,-152.7 463.5,-152.7 459.5677,-151.9674 464.1594,-149.1609 455.6353,-151.2348 455.6353,-151.2348"/>
<ellipse fill="none" stroke="#000000" cx="452.4894" cy="-150.6487" rx="3.2" ry="3.2"/>
</g>
<!-- ar_session&#45;&gt;list_options -->
<g id="edge7" class="edge">
<title>ar_session:w&#45;&gt;list_options:e</title>
<path fill="none" stroke="#000000" d="M449.0093,-86.7C424.8602,-86.7 413.9505,-86.7 384,-86.7"/>
<polygon fill="#000000" stroke="#000000" points="455.5,-86.7001 463.5,-90.3 459.5,-86.7 463.5,-86.7 463.5,-86.7 463.5,-86.7 459.5,-86.7 463.5,-83.1 455.5,-86.7001 455.5,-86.7001"/>
<ellipse fill="none" stroke="#000000" cx="452.3" cy="-86.7001" rx="3.2" ry="3.2"/>
</g>
<!-- ar_session&#45;&gt;list_options -->
<g id="edge8" class="edge">
<title>ar_session:w&#45;&gt;list_options:e</title>
<path fill="none" stroke="#000000" d="M449.2963,-194.0894C409.8777,-177.4316 438.7833,-86.7 384,-86.7"/>
<polygon fill="#000000" stroke="#000000" points="455.6318,-195.2538 462.8492,-200.2407 459.5659,-195.9769 463.5,-196.7 463.5,-196.7 463.5,-196.7 459.5659,-195.9769 464.1508,-193.1593 455.6318,-195.2538 455.6318,-195.2538"/>
<ellipse fill="none" stroke="#000000" cx="452.4845" cy="-194.6753" rx="3.2" ry="3.2"/>
</g>
<!-- insurance_companies -->
<g id="node6" class="node">
<title>insurance_companies</title>
<g id="a_node6"><a xlink:href="../../tables/insurance_companies.html" xlink:title="insurance_companies" target="_top">
<polygon fill="#ffffff" stroke="transparent" points="224,-450.2 224,-577.2 412,-577.2 412,-450.2 224,-450.2"/>
<polygon fill="#f5f5f5" stroke="transparent" points="224,-553.7 224,-576.7 412,-576.7 412,-553.7 224,-553.7"/>
<polygon fill="none" stroke="#000000" points="224,-553.7 224,-576.7 412,-576.7 412,-553.7 224,-553.7"/>
<text text-anchor="start" x="229" y="-562.3" font-family="Helvetica,sans-Serif" font-weight="bold" font-size="11.00" fill="#000000">insurance_companies</text>
<text text-anchor="start" x="377.0437" y="-561.8" font-family="Helvetica,sans-Serif" font-size="11.00" fill="#000000">[table]</text>
<polygon fill="none" stroke="#000000" points="224,-531.7 224,-553.7 412,-553.7 412,-531.7 224,-531.7"/>
<image xlink:href="../../images/primaryKeys.png" width="11px" height="12px" preserveAspectRatio="xMinYMin meet" x="229" y="-548.7"/>
<text text-anchor="start" x="244" y="-538.8" font-family="Helvetica,sans-Serif" font-size="11.00" fill="#000000">id</text>
<polygon fill="#ffffff" stroke="transparent" points="224,-509.7 224,-531.7 412,-531.7 412,-509.7 224,-509.7"/>
<polygon fill="none" stroke="#000000" points="224,-509.7 224,-531.7 412,-531.7 412,-509.7 224,-509.7"/>
<text text-anchor="start" x="244" y="-516.8" font-family="Helvetica,sans-Serif" font-size="11.00" fill="#000000">uuid</text>
<polygon fill="none" stroke="#000000" points="224,-487.7 224,-509.7 412,-509.7 412,-487.7 224,-487.7"/>
<image xlink:href="../../images/foreignKeys.png" width="11px" height="12px" preserveAspectRatio="xMinYMin meet" x="229" y="-504.7"/>
<text text-anchor="start" x="244" y="-494.8" font-family="Helvetica,sans-Serif" font-size="11.00" fill="#000000">ins_type_code</text>
<polygon fill="none" stroke="#000000" points="224,-468.7 224,-487.7 412,-487.7 412,-468.7 224,-468.7"/>
<text text-anchor="start" x="227" y="-474.8" font-family="Helvetica,sans-Serif" font-size="11.00" fill="#000000">...</text>
<polygon fill="#ffffff" stroke="transparent" points="224,-449.7 224,-468.7 312,-468.7 312,-449.7 224,-449.7"/>
<polygon fill="none" stroke="#000000" points="224,-449.7 224,-468.7 312,-468.7 312,-449.7 224,-449.7"/>
<text text-anchor="start" x="227" y="-455.8" font-family="Helvetica,sans-Serif" font-size="11.00" fill="#000000">&lt; 1</text>
<polygon fill="#ffffff" stroke="transparent" points="312,-449.7 312,-468.7 357,-468.7 357,-449.7 312,-449.7"/>
<polygon fill="none" stroke="#000000" points="312,-449.7 312,-468.7 357,-468.7 357,-449.7 312,-449.7"/>
<text text-anchor="start" x="347.8862" y="-455.8" font-family="Helvetica,sans-Serif" font-size="11.00" fill="#000000"> &#160;</text>
<polygon fill="#ffffff" stroke="transparent" points="357,-449.7 357,-468.7 412,-468.7 412,-449.7 357,-449.7"/>
<polygon fill="none" stroke="#000000" points="357,-449.7 357,-468.7 412,-468.7 412,-449.7 357,-449.7"/>
<text text-anchor="start" x="393.4053" y="-455.8" font-family="Helvetica,sans-Serif" font-size="11.00" fill="#000000">5 &gt;</text>
</a>
</g>
</g>
<!-- ar_session&#45;&gt;insurance_companies -->
<g id="edge6" class="edge">
<title>ar_session:w&#45;&gt;insurance_companies:e</title>
<path fill="none" stroke="#000000" d="M449.2532,-420.0702C415.3363,-440.1077 466.5892,-542.7 412,-542.7"/>
<polygon fill="#000000" stroke="#000000" points="455.7149,-418.5417 464.3288,-420.2033 459.6074,-417.6208 463.5,-416.7 463.5,-416.7 463.5,-416.7 459.6074,-417.6208 462.6712,-413.1967 455.7149,-418.5417 455.7149,-418.5417"/>
<ellipse fill="none" stroke="#000000" cx="452.6008" cy="-419.2783" rx="3.2" ry="3.2"/>
</g>
</g>
</svg>
