<?xml version="1.0" encoding="UTF-8" standalone="no"?>
<!DOCTYPE svg PUBLIC "-//W3C//DTD SVG 1.1//EN"
 "http://www.w3.org/Graphics/SVG/1.1/DTD/svg11.dtd">
<!-- Generated by graphviz version 2.40.1 (20161225.0304)
 -->
<!-- Title: oneDegreeRelationshipsDiagram Pages: 1 -->
<svg width="249pt" height="294pt"
 viewBox="0.00 0.00 249.00 294.20" xmlns="http://www.w3.org/2000/svg" xmlns:xlink="http://www.w3.org/1999/xlink">
<g id="graph0" class="graph" transform="scale(1 1) rotate(0) translate(4 290.2)">
<title>oneDegreeRelationshipsDiagram</title>
<polygon fill="#ffffff" stroke="transparent" points="-4,4 -4,-290.2 245,-290.2 245,4 -4,4"/>
<text text-anchor="middle" x="72.4936" y="-7.3" font-family="Helvetica,sans-Serif" font-size="11.00" fill="#000000">Generated by SchemaSpy</text>
<!-- background_services -->
<g id="node1" class="node">
<title>background_services</title>
<g id="a_node1"><a xlink:href="../../tables/background_services.html" xlink:title="background_services" target="_top">
<polygon fill="#ffffff" stroke="transparent" points="8,-38.2 8,-282.2 233,-282.2 233,-38.2 8,-38.2"/>
<polygon fill="#f5f5f5" stroke="transparent" points="10.5,-257.2 10.5,-280.2 231.5,-280.2 231.5,-257.2 10.5,-257.2"/>
<polygon fill="none" stroke="#000000" points="10.5,-257.2 10.5,-280.2 231.5,-280.2 231.5,-257.2 10.5,-257.2"/>
<text text-anchor="start" x="15.5" y="-265.8" font-family="Helvetica,sans-Serif" font-weight="bold" font-size="11.00" fill="#000000">background_services</text>
<text text-anchor="start" x="196.5437" y="-265.3" font-family="Helvetica,sans-Serif" font-size="11.00" fill="#000000">[table]</text>
<polygon fill="none" stroke="#000000" points="10.5,-235.2 10.5,-257.2 156.5,-257.2 156.5,-235.2 10.5,-235.2"/>
<image xlink:href="../../images/primaryKeys.png" width="11px" height="12px" preserveAspectRatio="xMinYMin meet" x="15.5" y="-252.2"/>
<text text-anchor="start" x="30.5" y="-242.3" font-family="Helvetica,sans-Serif" font-size="11.00" fill="#000000">name</text>
<polygon fill="none" stroke="#000000" points="156.5,-235.2 156.5,-257.2 231.5,-257.2 231.5,-235.2 156.5,-235.2"/>
<text text-anchor="start" x="159.5" y="-242.9" font-family="Helvetica,sans-Serif" font-size="11.00" fill="#000000">varchar[31]</text>
<polygon fill="none" stroke="#000000" points="10.5,-213.2 10.5,-235.2 156.5,-235.2 156.5,-213.2 10.5,-213.2"/>
<text text-anchor="start" x="30.5" y="-220.3" font-family="Helvetica,sans-Serif" font-size="11.00" fill="#000000">title</text>
<polygon fill="none" stroke="#000000" points="156.5,-213.2 156.5,-235.2 231.5,-235.2 231.5,-213.2 156.5,-213.2"/>
<text text-anchor="start" x="159.5" y="-220.9" font-family="Helvetica,sans-Serif" font-size="11.00" fill="#000000">varchar[127]</text>
<polygon fill="none" stroke="#000000" points="10.5,-191.2 10.5,-213.2 156.5,-213.2 156.5,-191.2 10.5,-191.2"/>
<text text-anchor="start" x="30.5" y="-198.3" font-family="Helvetica,sans-Serif" font-size="11.00" fill="#000000">active</text>
<polygon fill="none" stroke="#000000" points="156.5,-191.2 156.5,-213.2 231.5,-213.2 231.5,-191.2 156.5,-191.2"/>
<text text-anchor="start" x="159.5" y="-198.9" font-family="Helvetica,sans-Serif" font-size="11.00" fill="#000000">boolean[3]</text>
<polygon fill="none" stroke="#000000" points="10.5,-169.2 10.5,-191.2 156.5,-191.2 156.5,-169.2 10.5,-169.2"/>
<text text-anchor="start" x="30.5" y="-176.3" font-family="Helvetica,sans-Serif" font-size="11.00" fill="#000000">running</text>
<polygon fill="none" stroke="#000000" points="156.5,-169.2 156.5,-191.2 231.5,-191.2 231.5,-169.2 156.5,-169.2"/>
<text text-anchor="start" x="159.5" y="-176.9" font-family="Helvetica,sans-Serif" font-size="11.00" fill="#000000">boolean[3]</text>
<polygon fill="none" stroke="#000000" points="10.5,-147.2 10.5,-169.2 156.5,-169.2 156.5,-147.2 10.5,-147.2"/>
<text text-anchor="start" x="30.5" y="-154.3" font-family="Helvetica,sans-Serif" font-size="11.00" fill="#000000">next_run</text>
<polygon fill="none" stroke="#000000" points="156.5,-147.2 156.5,-169.2 231.5,-169.2 231.5,-147.2 156.5,-147.2"/>
<text text-anchor="start" x="159.4666" y="-154.9" font-family="Helvetica,sans-Serif" font-size="11.00" fill="#000000">timestamp[19]</text>
<polygon fill="none" stroke="#000000" points="10.5,-125.2 10.5,-147.2 156.5,-147.2 156.5,-125.2 10.5,-125.2"/>
<text text-anchor="start" x="30.5" y="-132.3" font-family="Helvetica,sans-Serif" font-size="11.00" fill="#000000">execute_interval</text>
<polygon fill="none" stroke="#000000" points="156.5,-125.2 156.5,-147.2 231.5,-147.2 231.5,-125.2 156.5,-125.2"/>
<text text-anchor="start" x="159.5" y="-132.9" font-family="Helvetica,sans-Serif" font-size="11.00" fill="#000000">int[10]</text>
<polygon fill="none" stroke="#000000" points="10.5,-103.2 10.5,-125.2 156.5,-125.2 156.5,-103.2 10.5,-103.2"/>
<text text-anchor="start" x="30.5" y="-110.3" font-family="Helvetica,sans-Serif" font-size="11.00" fill="#000000">function</text>
<polygon fill="none" stroke="#000000" points="156.5,-103.2 156.5,-125.2 231.5,-125.2 231.5,-103.2 156.5,-103.2"/>
<text text-anchor="start" x="159.5" y="-110.9" font-family="Helvetica,sans-Serif" font-size="11.00" fill="#000000">varchar[127]</text>
<polygon fill="none" stroke="#000000" points="10.5,-81.2 10.5,-103.2 156.5,-103.2 156.5,-81.2 10.5,-81.2"/>
<text text-anchor="start" x="30.5" y="-88.3" font-family="Helvetica,sans-Serif" font-size="11.00" fill="#000000">require_once</text>
<polygon fill="none" stroke="#000000" points="156.5,-81.2 156.5,-103.2 231.5,-103.2 231.5,-81.2 156.5,-81.2"/>
<text text-anchor="start" x="159.5" y="-88.9" font-family="Helvetica,sans-Serif" font-size="11.00" fill="#000000">varchar[255]</text>
<polygon fill="none" stroke="#000000" points="10.5,-59.2 10.5,-81.2 156.5,-81.2 156.5,-59.2 10.5,-59.2"/>
<text text-anchor="start" x="30.5" y="-66.3" font-family="Helvetica,sans-Serif" font-size="11.00" fill="#000000">sort_order</text>
<polygon fill="none" stroke="#000000" points="156.5,-59.2 156.5,-81.2 231.5,-81.2 231.5,-59.2 156.5,-59.2"/>
<text text-anchor="start" x="159.5" y="-66.9" font-family="Helvetica,sans-Serif" font-size="11.00" fill="#000000">int[10]</text>
<polygon fill="#ffffff" stroke="transparent" points="10.5,-40.2 10.5,-59.2 87.5,-59.2 87.5,-40.2 10.5,-40.2"/>
<polygon fill="none" stroke="#000000" points="10.5,-40.2 10.5,-59.2 87.5,-59.2 87.5,-40.2 10.5,-40.2"/>
<text text-anchor="start" x="13.5" y="-46.3" font-family="Helvetica,sans-Serif" font-size="11.00" fill="#000000">&lt; 0</text>
<polygon fill="#ffffff" stroke="transparent" points="87.5,-40.2 87.5,-59.2 156.5,-59.2 156.5,-40.2 87.5,-40.2"/>
<polygon fill="none" stroke="#000000" points="87.5,-40.2 87.5,-59.2 156.5,-59.2 156.5,-40.2 87.5,-40.2"/>
<text text-anchor="start" x="147.3862" y="-46.3" font-family="Helvetica,sans-Serif" font-size="11.00" fill="#000000"> &#160;</text>
<polygon fill="#ffffff" stroke="transparent" points="156.5,-40.2 156.5,-59.2 231.5,-59.2 231.5,-40.2 156.5,-40.2"/>
<polygon fill="none" stroke="#000000" points="156.5,-40.2 156.5,-59.2 231.5,-59.2 231.5,-40.2 156.5,-40.2"/>
<text text-anchor="start" x="212.9053" y="-46.3" font-family="Helvetica,sans-Serif" font-size="11.00" fill="#000000">0 &gt;</text>
<polygon fill="none" stroke="#000000" stroke-width="2" points="9,-39.2 9,-281.2 232,-281.2 232,-39.2 9,-39.2"/>
</a>
</g>
</g>
</g>
</svg>
