<?xml version="1.0" encoding="UTF-8" standalone="no"?>
<!DOCTYPE svg PUBLIC "-//W3C//DTD SVG 1.1//EN"
 "http://www.w3.org/Graphics/SVG/1.1/DTD/svg11.dtd">
<!-- Generated by graphviz version 2.40.1 (20161225.0304)
 -->
<!-- Title: twoDegreesRelationshipsDiagram Pages: 1 -->
<svg width="646pt" height="492pt"
 viewBox="0.00 0.00 646.00 492.20" xmlns="http://www.w3.org/2000/svg" xmlns:xlink="http://www.w3.org/1999/xlink">
<g id="graph0" class="graph" transform="scale(1 1) rotate(0) translate(4 488.2)">
<title>twoDegreesRelationshipsDiagram</title>
<polygon fill="#ffffff" stroke="transparent" points="-4,4 -4,-488.2 642,-488.2 642,4 -4,4"/>
<text text-anchor="middle" x="72.4936" y="-7.3" font-family="Helvetica,sans-Serif" font-size="11.00" fill="#000000">Generated by SchemaSpy</text>
<!-- benefit_eligibility -->
<g id="node1" class="node">
<title>benefit_eligibility</title>
<g id="a_node1"><a xlink:href="../../tables/benefit_eligibility.html" xlink:title="benefit_eligibility" target="_top">
<polygon fill="#ffffff" stroke="transparent" points="405,-38.2 405,-480.2 630,-480.2 630,-38.2 405,-38.2"/>
<polygon fill="#f5f5f5" stroke="transparent" points="407.5,-455.2 407.5,-478.2 628.5,-478.2 628.5,-455.2 407.5,-455.2"/>
<polygon fill="none" stroke="#000000" points="407.5,-455.2 407.5,-478.2 628.5,-478.2 628.5,-455.2 407.5,-455.2"/>
<text text-anchor="start" x="412.5" y="-463.8" font-family="Helvetica,sans-Serif" font-weight="bold" font-size="11.00" fill="#000000">benefit_eligibility</text>
<text text-anchor="start" x="593.5437" y="-463.3" font-family="Helvetica,sans-Serif" font-size="11.00" fill="#000000">[table]</text>
<polygon fill="none" stroke="#000000" points="407.5,-433.2 407.5,-455.2 561.5,-455.2 561.5,-433.2 407.5,-433.2"/>
<text text-anchor="start" x="427.5" y="-440.3" font-family="Helvetica,sans-Serif" font-size="11.00" fill="#000000">response_id</text>
<polygon fill="none" stroke="#000000" points="561.5,-433.2 561.5,-455.2 628.5,-455.2 628.5,-433.2 561.5,-433.2"/>
<text text-anchor="start" x="564.5" y="-440.9" font-family="Helvetica,sans-Serif" font-size="11.00" fill="#000000">bigint[19]</text>
<polygon fill="none" stroke="#000000" points="407.5,-411.2 407.5,-433.2 561.5,-433.2 561.5,-411.2 407.5,-411.2"/>
<image xlink:href="../../images/foreignKeys.png" width="11px" height="12px" preserveAspectRatio="xMinYMin meet" x="412.5" y="-428.2"/>
<text text-anchor="start" x="427.5" y="-418.3" font-family="Helvetica,sans-Serif" font-size="11.00" fill="#000000">verification_id</text>
<polygon fill="none" stroke="#000000" points="561.5,-411.2 561.5,-433.2 628.5,-433.2 628.5,-411.2 561.5,-411.2"/>
<text text-anchor="start" x="564.5" y="-418.9" font-family="Helvetica,sans-Serif" font-size="11.00" fill="#000000">bigint[19]</text>
<polygon fill="none" stroke="#000000" points="407.5,-389.2 407.5,-411.2 561.5,-411.2 561.5,-389.2 407.5,-389.2"/>
<text text-anchor="start" x="427.5" y="-396.3" font-family="Helvetica,sans-Serif" font-size="11.00" fill="#000000">type</text>
<polygon fill="none" stroke="#000000" points="561.5,-389.2 561.5,-411.2 628.5,-411.2 628.5,-389.2 561.5,-389.2"/>
<text text-anchor="start" x="564.5" y="-396.9" font-family="Helvetica,sans-Serif" font-size="11.00" fill="#000000">varchar[4]</text>
<polygon fill="none" stroke="#000000" points="407.5,-367.2 407.5,-389.2 561.5,-389.2 561.5,-367.2 407.5,-367.2"/>
<text text-anchor="start" x="427.5" y="-374.3" font-family="Helvetica,sans-Serif" font-size="11.00" fill="#000000">benefit_type</text>
<polygon fill="none" stroke="#000000" points="561.5,-367.2 561.5,-389.2 628.5,-389.2 628.5,-367.2 561.5,-367.2"/>
<text text-anchor="start" x="564.4365" y="-374.9" font-family="Helvetica,sans-Serif" font-size="11.00" fill="#000000">varchar[255]</text>
<polygon fill="none" stroke="#000000" points="407.5,-345.2 407.5,-367.2 561.5,-367.2 561.5,-345.2 407.5,-345.2"/>
<text text-anchor="start" x="427.5" y="-352.3" font-family="Helvetica,sans-Serif" font-size="11.00" fill="#000000">start_date</text>
<polygon fill="none" stroke="#000000" points="561.5,-345.2 561.5,-367.2 628.5,-367.2 628.5,-345.2 561.5,-345.2"/>
<text text-anchor="start" x="564.5" y="-352.9" font-family="Helvetica,sans-Serif" font-size="11.00" fill="#000000">date[10]</text>
<polygon fill="none" stroke="#000000" points="407.5,-323.2 407.5,-345.2 561.5,-345.2 561.5,-323.2 407.5,-323.2"/>
<text text-anchor="start" x="427.5" y="-330.3" font-family="Helvetica,sans-Serif" font-size="11.00" fill="#000000">end_date</text>
<polygon fill="none" stroke="#000000" points="561.5,-323.2 561.5,-345.2 628.5,-345.2 628.5,-323.2 561.5,-323.2"/>
<text text-anchor="start" x="564.5" y="-330.9" font-family="Helvetica,sans-Serif" font-size="11.00" fill="#000000">date[10]</text>
<polygon fill="none" stroke="#000000" points="407.5,-301.2 407.5,-323.2 561.5,-323.2 561.5,-301.2 407.5,-301.2"/>
<text text-anchor="start" x="427.5" y="-308.3" font-family="Helvetica,sans-Serif" font-size="11.00" fill="#000000">coverage_level</text>
<polygon fill="none" stroke="#000000" points="561.5,-301.2 561.5,-323.2 628.5,-323.2 628.5,-301.2 561.5,-301.2"/>
<text text-anchor="start" x="564.4365" y="-308.9" font-family="Helvetica,sans-Serif" font-size="11.00" fill="#000000">varchar[255]</text>
<polygon fill="none" stroke="#000000" points="407.5,-279.2 407.5,-301.2 561.5,-301.2 561.5,-279.2 407.5,-279.2"/>
<text text-anchor="start" x="427.5" y="-286.3" font-family="Helvetica,sans-Serif" font-size="11.00" fill="#000000">coverage_type</text>
<polygon fill="none" stroke="#000000" points="561.5,-279.2 561.5,-301.2 628.5,-301.2 628.5,-279.2 561.5,-279.2"/>
<text text-anchor="start" x="564.4365" y="-286.9" font-family="Helvetica,sans-Serif" font-size="11.00" fill="#000000">varchar[512]</text>
<polygon fill="none" stroke="#000000" points="407.5,-257.2 407.5,-279.2 561.5,-279.2 561.5,-257.2 407.5,-257.2"/>
<text text-anchor="start" x="427.5" y="-264.3" font-family="Helvetica,sans-Serif" font-size="11.00" fill="#000000">plan_type</text>
<polygon fill="none" stroke="#000000" points="561.5,-257.2 561.5,-279.2 628.5,-279.2 628.5,-257.2 561.5,-257.2"/>
<text text-anchor="start" x="564.4365" y="-264.9" font-family="Helvetica,sans-Serif" font-size="11.00" fill="#000000">varchar[255]</text>
<polygon fill="none" stroke="#000000" points="407.5,-235.2 407.5,-257.2 561.5,-257.2 561.5,-235.2 407.5,-235.2"/>
<text text-anchor="start" x="427.5" y="-242.3" font-family="Helvetica,sans-Serif" font-size="11.00" fill="#000000">plan_description</text>
<polygon fill="none" stroke="#000000" points="561.5,-235.2 561.5,-257.2 628.5,-257.2 628.5,-235.2 561.5,-235.2"/>
<text text-anchor="start" x="564.4365" y="-242.9" font-family="Helvetica,sans-Serif" font-size="11.00" fill="#000000">varchar[255]</text>
<polygon fill="none" stroke="#000000" points="407.5,-213.2 407.5,-235.2 561.5,-235.2 561.5,-213.2 407.5,-213.2"/>
<text text-anchor="start" x="427.5" y="-220.3" font-family="Helvetica,sans-Serif" font-size="11.00" fill="#000000">coverage_period</text>
<polygon fill="none" stroke="#000000" points="561.5,-213.2 561.5,-235.2 628.5,-235.2 628.5,-213.2 561.5,-213.2"/>
<text text-anchor="start" x="564.4365" y="-220.9" font-family="Helvetica,sans-Serif" font-size="11.00" fill="#000000">varchar[255]</text>
<polygon fill="none" stroke="#000000" points="407.5,-191.2 407.5,-213.2 561.5,-213.2 561.5,-191.2 407.5,-191.2"/>
<text text-anchor="start" x="427.5" y="-198.3" font-family="Helvetica,sans-Serif" font-size="11.00" fill="#000000">amount</text>
<polygon fill="none" stroke="#000000" points="561.5,-191.2 561.5,-213.2 628.5,-213.2 628.5,-191.2 561.5,-191.2"/>
<text text-anchor="start" x="564.5" y="-198.9" font-family="Helvetica,sans-Serif" font-size="11.00" fill="#000000">decimal[5,2]</text>
<polygon fill="none" stroke="#000000" points="407.5,-169.2 407.5,-191.2 561.5,-191.2 561.5,-169.2 407.5,-169.2"/>
<text text-anchor="start" x="427.5" y="-176.3" font-family="Helvetica,sans-Serif" font-size="11.00" fill="#000000">percent</text>
<polygon fill="none" stroke="#000000" points="561.5,-169.2 561.5,-191.2 628.5,-191.2 628.5,-169.2 561.5,-169.2"/>
<text text-anchor="start" x="564.5" y="-176.9" font-family="Helvetica,sans-Serif" font-size="11.00" fill="#000000">decimal[3,2]</text>
<polygon fill="none" stroke="#000000" points="407.5,-147.2 407.5,-169.2 561.5,-169.2 561.5,-147.2 407.5,-147.2"/>
<text text-anchor="start" x="427.5" y="-154.3" font-family="Helvetica,sans-Serif" font-size="11.00" fill="#000000">network_ind</text>
<polygon fill="none" stroke="#000000" points="561.5,-147.2 561.5,-169.2 628.5,-169.2 628.5,-147.2 561.5,-147.2"/>
<text text-anchor="start" x="564.5" y="-154.9" font-family="Helvetica,sans-Serif" font-size="11.00" fill="#000000">varchar[2]</text>
<polygon fill="none" stroke="#000000" points="407.5,-125.2 407.5,-147.2 561.5,-147.2 561.5,-125.2 407.5,-125.2"/>
<text text-anchor="start" x="427.5" y="-132.3" font-family="Helvetica,sans-Serif" font-size="11.00" fill="#000000">message</text>
<polygon fill="none" stroke="#000000" points="561.5,-125.2 561.5,-147.2 628.5,-147.2 628.5,-125.2 561.5,-125.2"/>
<text text-anchor="start" x="564.4365" y="-132.9" font-family="Helvetica,sans-Serif" font-size="11.00" fill="#000000">varchar[512]</text>
<polygon fill="none" stroke="#000000" points="407.5,-103.2 407.5,-125.2 561.5,-125.2 561.5,-103.2 407.5,-103.2"/>
<text text-anchor="start" x="427.5" y="-110.3" font-family="Helvetica,sans-Serif" font-size="11.00" fill="#000000">response_status</text>
<polygon fill="none" stroke="#000000" points="561.5,-103.2 561.5,-125.2 628.5,-125.2 628.5,-103.2 561.5,-103.2"/>
<text text-anchor="start" x="564.5" y="-110.9" font-family="Helvetica,sans-Serif" font-size="11.00" fill="#000000">enum[1]</text>
<polygon fill="none" stroke="#000000" points="407.5,-81.2 407.5,-103.2 561.5,-103.2 561.5,-81.2 407.5,-81.2"/>
<text text-anchor="start" x="427.5" y="-88.3" font-family="Helvetica,sans-Serif" font-size="11.00" fill="#000000">response_create_date</text>
<polygon fill="none" stroke="#000000" points="561.5,-81.2 561.5,-103.2 628.5,-103.2 628.5,-81.2 561.5,-81.2"/>
<text text-anchor="start" x="564.5" y="-88.9" font-family="Helvetica,sans-Serif" font-size="11.00" fill="#000000">date[10]</text>
<polygon fill="none" stroke="#000000" points="407.5,-59.2 407.5,-81.2 561.5,-81.2 561.5,-59.2 407.5,-59.2"/>
<text text-anchor="start" x="427.5" y="-66.3" font-family="Helvetica,sans-Serif" font-size="11.00" fill="#000000">response_modify_date</text>
<polygon fill="none" stroke="#000000" points="561.5,-59.2 561.5,-81.2 628.5,-81.2 628.5,-59.2 561.5,-59.2"/>
<text text-anchor="start" x="564.5" y="-66.9" font-family="Helvetica,sans-Serif" font-size="11.00" fill="#000000">date[10]</text>
<polygon fill="#ffffff" stroke="transparent" points="407.5,-40.2 407.5,-59.2 488.5,-59.2 488.5,-40.2 407.5,-40.2"/>
<polygon fill="none" stroke="#000000" points="407.5,-40.2 407.5,-59.2 488.5,-59.2 488.5,-40.2 407.5,-40.2"/>
<text text-anchor="start" x="410.5" y="-46.3" font-family="Helvetica,sans-Serif" font-size="11.00" fill="#000000">&lt; 1</text>
<polygon fill="#ffffff" stroke="transparent" points="488.5,-40.2 488.5,-59.2 561.5,-59.2 561.5,-40.2 488.5,-40.2"/>
<polygon fill="none" stroke="#000000" points="488.5,-40.2 488.5,-59.2 561.5,-59.2 561.5,-40.2 488.5,-40.2"/>
<text text-anchor="start" x="552.3862" y="-46.3" font-family="Helvetica,sans-Serif" font-size="11.00" fill="#000000"> &#160;</text>
<polygon fill="#ffffff" stroke="transparent" points="561.5,-40.2 561.5,-59.2 628.5,-59.2 628.5,-40.2 561.5,-40.2"/>
<polygon fill="none" stroke="#000000" points="561.5,-40.2 561.5,-59.2 628.5,-59.2 628.5,-40.2 561.5,-40.2"/>
<text text-anchor="start" x="609.9053" y="-46.3" font-family="Helvetica,sans-Serif" font-size="11.00" fill="#000000">0 &gt;</text>
<polygon fill="none" stroke="#000000" stroke-width="2" points="406,-39.2 406,-479.2 629,-479.2 629,-39.2 406,-39.2"/>
</a>
</g>
</g>
<!-- eligibility_verification -->
<g id="node2" class="node">
<title>eligibility_verification</title>
<g id="a_node2"><a xlink:href="../../tables/eligibility_verification.html" xlink:title="eligibility_verification" target="_top">
<polygon fill="#ffffff" stroke="transparent" points="187,-351.7 187,-456.7 356,-456.7 356,-351.7 187,-351.7"/>
<polygon fill="#f5f5f5" stroke="transparent" points="187.5,-433.2 187.5,-456.2 356.5,-456.2 356.5,-433.2 187.5,-433.2"/>
<polygon fill="none" stroke="#000000" points="187.5,-433.2 187.5,-456.2 356.5,-456.2 356.5,-433.2 187.5,-433.2"/>
<text text-anchor="start" x="192.5" y="-441.8" font-family="Helvetica,sans-Serif" font-weight="bold" font-size="11.00" fill="#000000">eligibility_verification</text>
<text text-anchor="start" x="322.0219" y="-441.3" font-family="Helvetica,sans-Serif" font-size="11.00" fill="#000000">[table]</text>
<polygon fill="none" stroke="#000000" points="187.5,-411.2 187.5,-433.2 356.5,-433.2 356.5,-411.2 187.5,-411.2"/>
<image xlink:href="../../images/primaryKeys.png" width="11px" height="12px" preserveAspectRatio="xMinYMin meet" x="192.5" y="-428.2"/>
<text text-anchor="start" x="216.5" y="-418.3" font-family="Helvetica,sans-Serif" font-size="11.00" fill="#000000">verification_id</text>
<polygon fill="#ffffff" stroke="transparent" points="187.5,-389.2 187.5,-411.2 356.5,-411.2 356.5,-389.2 187.5,-389.2"/>
<polygon fill="none" stroke="#000000" points="187.5,-389.2 187.5,-411.2 356.5,-411.2 356.5,-389.2 187.5,-389.2"/>
<image xlink:href="../../images/foreignKeys.png" width="11px" height="12px" preserveAspectRatio="xMinYMin meet" x="192.5" y="-406.2"/>
<text text-anchor="start" x="216.5" y="-396.3" font-family="Helvetica,sans-Serif" font-size="11.00" fill="#000000">insurance_id</text>
<polygon fill="none" stroke="#000000" points="187.5,-370.2 187.5,-389.2 356.5,-389.2 356.5,-370.2 187.5,-370.2"/>
<text text-anchor="start" x="190.5" y="-376.3" font-family="Helvetica,sans-Serif" font-size="11.00" fill="#000000">...</text>
<polygon fill="#ffffff" stroke="transparent" points="187.5,-351.2 187.5,-370.2 265.5,-370.2 265.5,-351.2 187.5,-351.2"/>
<polygon fill="none" stroke="#000000" points="187.5,-351.2 187.5,-370.2 265.5,-370.2 265.5,-351.2 187.5,-351.2"/>
<text text-anchor="start" x="190.5" y="-357.3" font-family="Helvetica,sans-Serif" font-size="11.00" fill="#000000">&lt; 1</text>
<polygon fill="#ffffff" stroke="transparent" points="265.5,-351.2 265.5,-370.2 306.5,-370.2 306.5,-351.2 265.5,-351.2"/>
<polygon fill="none" stroke="#000000" points="265.5,-351.2 265.5,-370.2 306.5,-370.2 306.5,-351.2 265.5,-351.2"/>
<text text-anchor="start" x="297.3862" y="-357.3" font-family="Helvetica,sans-Serif" font-size="11.00" fill="#000000"> &#160;</text>
<polygon fill="#ffffff" stroke="transparent" points="306.5,-351.2 306.5,-370.2 356.5,-370.2 356.5,-351.2 306.5,-351.2"/>
<polygon fill="none" stroke="#000000" points="306.5,-351.2 306.5,-370.2 356.5,-370.2 356.5,-351.2 306.5,-351.2"/>
<text text-anchor="start" x="337.9053" y="-357.3" font-family="Helvetica,sans-Serif" font-size="11.00" fill="#000000">1 &gt;</text>
</a>
</g>
</g>
<!-- benefit_eligibility&#45;&gt;eligibility_verification -->
<g id="edge1" class="edge">
<title>benefit_eligibility:w&#45;&gt;eligibility_verification:e</title>
<path fill="none" stroke="#000000" d="M392.776,-422.2C380.7815,-422.2 373.3229,-422.2 356.5,-422.2"/>
<polygon fill="#000000" stroke="#000000" points="399.5,-422.2001 407.5,-425.8 403.5,-422.2 407.5,-422.2 407.5,-422.2 407.5,-422.2 403.5,-422.2 407.5,-418.6 399.5,-422.2001 399.5,-422.2001"/>
<ellipse fill="none" stroke="#000000" cx="396.3" cy="-422.2001" rx="3.2" ry="3.2"/>
</g>
<!-- insurance_data -->
<g id="node3" class="node">
<title>insurance_data</title>
<g id="a_node3"><a xlink:href="../../tables/insurance_data.html" xlink:title="insurance_data" target="_top">
<polygon fill="#ffffff" stroke="transparent" points="8,-372.7 8,-433.7 138,-433.7 138,-372.7 8,-372.7"/>
<polygon fill="#f5f5f5" stroke="transparent" points="8,-410.2 8,-433.2 138,-433.2 138,-410.2 8,-410.2"/>
<polygon fill="none" stroke="#000000" points="8,-410.2 8,-433.2 138,-433.2 138,-410.2 8,-410.2"/>
<text text-anchor="start" x="13" y="-418.8" font-family="Helvetica,sans-Serif" font-weight="bold" font-size="11.00" fill="#000000">insurance_data</text>
<text text-anchor="start" x="103.5219" y="-418.3" font-family="Helvetica,sans-Serif" font-size="11.00" fill="#000000">[table]</text>
<polygon fill="none" stroke="#000000" points="8,-391.2 8,-410.2 138,-410.2 138,-391.2 8,-391.2"/>
<text text-anchor="start" x="11" y="-397.3" font-family="Helvetica,sans-Serif" font-size="11.00" fill="#000000">...</text>
<polygon fill="#ffffff" stroke="transparent" points="8,-372.2 8,-391.2 67,-391.2 67,-372.2 8,-372.2"/>
<polygon fill="none" stroke="#000000" points="8,-372.2 8,-391.2 67,-391.2 67,-372.2 8,-372.2"/>
<text text-anchor="start" x="11" y="-378.3" font-family="Helvetica,sans-Serif" font-size="11.00" fill="#000000">&lt; 2</text>
<polygon fill="#ffffff" stroke="transparent" points="67,-372.2 67,-391.2 98,-391.2 98,-372.2 67,-372.2"/>
<polygon fill="none" stroke="#000000" points="67,-372.2 67,-391.2 98,-391.2 98,-372.2 67,-372.2"/>
<text text-anchor="start" x="88.8862" y="-378.3" font-family="Helvetica,sans-Serif" font-size="11.00" fill="#000000"> &#160;</text>
<polygon fill="#ffffff" stroke="transparent" points="98,-372.2 98,-391.2 138,-391.2 138,-372.2 98,-372.2"/>
<polygon fill="none" stroke="#000000" points="98,-372.2 98,-391.2 138,-391.2 138,-372.2 98,-372.2"/>
<text text-anchor="start" x="119.4053" y="-378.3" font-family="Helvetica,sans-Serif" font-size="11.00" fill="#000000">1 &gt;</text>
</a>
</g>
</g>
<!-- eligibility_verification&#45;&gt;insurance_data -->
<g id="edge2" class="edge">
<title>eligibility_verification:w&#45;&gt;insurance_data:e</title>
<path fill="none" stroke="#000000" d="M172.8428,-400.2C161.4139,-400.2 154.1563,-400.2 138,-400.2"/>
<polygon fill="#000000" stroke="#000000" points="179.5,-400.2001 187.5,-403.8 183.5,-400.2 187.5,-400.2 187.5,-400.2 187.5,-400.2 183.5,-400.2 187.5,-396.6 179.5,-400.2001 179.5,-400.2001"/>
<ellipse fill="none" stroke="#000000" cx="176.3" cy="-400.2001" rx="3.2" ry="3.2"/>
</g>
</g>
</svg>
