<?xml version="1.0" encoding="UTF-8" standalone="no"?>
<!DOCTYPE svg PUBLIC "-//W3C//DTD SVG 1.1//EN"
 "http://www.w3.org/Graphics/SVG/1.1/DTD/svg11.dtd">
<!-- Generated by graphviz version 2.40.1 (20161225.0304)
 -->
<!-- Title: oneDegreeRelationshipsDiagram Pages: 1 -->
<svg width="500pt" height="492pt"
 viewBox="0.00 0.00 500.00 492.20" xmlns="http://www.w3.org/2000/svg" xmlns:xlink="http://www.w3.org/1999/xlink">
<g id="graph0" class="graph" transform="scale(1 1) rotate(0) translate(4 488.2)">
<title>oneDegreeRelationshipsDiagram</title>
<polygon fill="#ffffff" stroke="transparent" points="-4,4 -4,-488.2 496,-488.2 496,4 -4,4"/>
<text text-anchor="middle" x="72.4936" y="-7.3" font-family="Helvetica,sans-Serif" font-size="11.00" fill="#000000">Generated by SchemaSpy</text>
<!-- benefit_eligibility -->
<g id="node1" class="node">
<title>benefit_eligibility</title>
<g id="a_node1"><a xlink:href="../../tables/benefit_eligibility.html" xlink:title="benefit_eligibility" target="_top">
<polygon fill="#ffffff" stroke="transparent" points="242,-38.2 242,-480.2 484,-480.2 484,-38.2 242,-38.2"/>
<polygon fill="#f5f5f5" stroke="transparent" points="244,-455.2 244,-478.2 482,-478.2 482,-455.2 244,-455.2"/>
<polygon fill="none" stroke="#000000" points="244,-455.2 244,-478.2 482,-478.2 482,-455.2 244,-455.2"/>
<text text-anchor="start" x="249" y="-463.8" font-family="Helvetica,sans-Serif" font-weight="bold" font-size="11.00" fill="#000000">benefit_eligibility</text>
<text text-anchor="start" x="447.0437" y="-463.3" font-family="Helvetica,sans-Serif" font-size="11.00" fill="#000000">[table]</text>
<polygon fill="none" stroke="#000000" points="244,-433.2 244,-455.2 415,-455.2 415,-433.2 244,-433.2"/>
<text text-anchor="start" x="264" y="-440.3" font-family="Helvetica,sans-Serif" font-size="11.00" fill="#000000">response_id</text>
<polygon fill="none" stroke="#000000" points="415,-433.2 415,-455.2 482,-455.2 482,-433.2 415,-433.2"/>
<text text-anchor="start" x="418" y="-440.9" font-family="Helvetica,sans-Serif" font-size="11.00" fill="#000000">bigint[19]</text>
<polygon fill="none" stroke="#000000" points="244,-411.2 244,-433.2 415,-433.2 415,-411.2 244,-411.2"/>
<image xlink:href="../../images/foreignKeys.png" width="11px" height="12px" preserveAspectRatio="xMinYMin meet" x="249" y="-428.2"/>
<text text-anchor="start" x="264" y="-418.3" font-family="Helvetica,sans-Serif" font-size="11.00" fill="#000000">verification_id</text>
<polygon fill="none" stroke="#000000" points="415,-411.2 415,-433.2 482,-433.2 482,-411.2 415,-411.2"/>
<text text-anchor="start" x="418" y="-418.9" font-family="Helvetica,sans-Serif" font-size="11.00" fill="#000000">bigint[19]</text>
<polygon fill="none" stroke="#000000" points="244,-389.2 244,-411.2 415,-411.2 415,-389.2 244,-389.2"/>
<text text-anchor="start" x="264" y="-396.3" font-family="Helvetica,sans-Serif" font-size="11.00" fill="#000000">type</text>
<polygon fill="none" stroke="#000000" points="415,-389.2 415,-411.2 482,-411.2 482,-389.2 415,-389.2"/>
<text text-anchor="start" x="418" y="-396.9" font-family="Helvetica,sans-Serif" font-size="11.00" fill="#000000">varchar[4]</text>
<polygon fill="none" stroke="#000000" points="244,-367.2 244,-389.2 415,-389.2 415,-367.2 244,-367.2"/>
<text text-anchor="start" x="264" y="-374.3" font-family="Helvetica,sans-Serif" font-size="11.00" fill="#000000">benefit_type</text>
<polygon fill="none" stroke="#000000" points="415,-367.2 415,-389.2 482,-389.2 482,-367.2 415,-367.2"/>
<text text-anchor="start" x="417.9365" y="-374.9" font-family="Helvetica,sans-Serif" font-size="11.00" fill="#000000">varchar[255]</text>
<polygon fill="none" stroke="#000000" points="244,-345.2 244,-367.2 415,-367.2 415,-345.2 244,-345.2"/>
<text text-anchor="start" x="264" y="-352.3" font-family="Helvetica,sans-Serif" font-size="11.00" fill="#000000">start_date</text>
<polygon fill="none" stroke="#000000" points="415,-345.2 415,-367.2 482,-367.2 482,-345.2 415,-345.2"/>
<text text-anchor="start" x="418" y="-352.9" font-family="Helvetica,sans-Serif" font-size="11.00" fill="#000000">date[10]</text>
<polygon fill="none" stroke="#000000" points="244,-323.2 244,-345.2 415,-345.2 415,-323.2 244,-323.2"/>
<text text-anchor="start" x="264" y="-330.3" font-family="Helvetica,sans-Serif" font-size="11.00" fill="#000000">end_date</text>
<polygon fill="none" stroke="#000000" points="415,-323.2 415,-345.2 482,-345.2 482,-323.2 415,-323.2"/>
<text text-anchor="start" x="418" y="-330.9" font-family="Helvetica,sans-Serif" font-size="11.00" fill="#000000">date[10]</text>
<polygon fill="none" stroke="#000000" points="244,-301.2 244,-323.2 415,-323.2 415,-301.2 244,-301.2"/>
<text text-anchor="start" x="264" y="-308.3" font-family="Helvetica,sans-Serif" font-size="11.00" fill="#000000">coverage_level</text>
<polygon fill="none" stroke="#000000" points="415,-301.2 415,-323.2 482,-323.2 482,-301.2 415,-301.2"/>
<text text-anchor="start" x="417.9365" y="-308.9" font-family="Helvetica,sans-Serif" font-size="11.00" fill="#000000">varchar[255]</text>
<polygon fill="none" stroke="#000000" points="244,-279.2 244,-301.2 415,-301.2 415,-279.2 244,-279.2"/>
<text text-anchor="start" x="264" y="-286.3" font-family="Helvetica,sans-Serif" font-size="11.00" fill="#000000">coverage_type</text>
<polygon fill="none" stroke="#000000" points="415,-279.2 415,-301.2 482,-301.2 482,-279.2 415,-279.2"/>
<text text-anchor="start" x="417.9365" y="-286.9" font-family="Helvetica,sans-Serif" font-size="11.00" fill="#000000">varchar[512]</text>
<polygon fill="none" stroke="#000000" points="244,-257.2 244,-279.2 415,-279.2 415,-257.2 244,-257.2"/>
<text text-anchor="start" x="264" y="-264.3" font-family="Helvetica,sans-Serif" font-size="11.00" fill="#000000">plan_type</text>
<polygon fill="none" stroke="#000000" points="415,-257.2 415,-279.2 482,-279.2 482,-257.2 415,-257.2"/>
<text text-anchor="start" x="417.9365" y="-264.9" font-family="Helvetica,sans-Serif" font-size="11.00" fill="#000000">varchar[255]</text>
<polygon fill="none" stroke="#000000" points="244,-235.2 244,-257.2 415,-257.2 415,-235.2 244,-235.2"/>
<text text-anchor="start" x="264" y="-242.3" font-family="Helvetica,sans-Serif" font-size="11.00" fill="#000000">plan_description</text>
<polygon fill="none" stroke="#000000" points="415,-235.2 415,-257.2 482,-257.2 482,-235.2 415,-235.2"/>
<text text-anchor="start" x="417.9365" y="-242.9" font-family="Helvetica,sans-Serif" font-size="11.00" fill="#000000">varchar[255]</text>
<polygon fill="none" stroke="#000000" points="244,-213.2 244,-235.2 415,-235.2 415,-213.2 244,-213.2"/>
<text text-anchor="start" x="264" y="-220.3" font-family="Helvetica,sans-Serif" font-size="11.00" fill="#000000">coverage_period</text>
<polygon fill="none" stroke="#000000" points="415,-213.2 415,-235.2 482,-235.2 482,-213.2 415,-213.2"/>
<text text-anchor="start" x="417.9365" y="-220.9" font-family="Helvetica,sans-Serif" font-size="11.00" fill="#000000">varchar[255]</text>
<polygon fill="none" stroke="#000000" points="244,-191.2 244,-213.2 415,-213.2 415,-191.2 244,-191.2"/>
<text text-anchor="start" x="264" y="-198.3" font-family="Helvetica,sans-Serif" font-size="11.00" fill="#000000">amount</text>
<polygon fill="none" stroke="#000000" points="415,-191.2 415,-213.2 482,-213.2 482,-191.2 415,-191.2"/>
<text text-anchor="start" x="418" y="-198.9" font-family="Helvetica,sans-Serif" font-size="11.00" fill="#000000">decimal[5,2]</text>
<polygon fill="none" stroke="#000000" points="244,-169.2 244,-191.2 415,-191.2 415,-169.2 244,-169.2"/>
<text text-anchor="start" x="264" y="-176.3" font-family="Helvetica,sans-Serif" font-size="11.00" fill="#000000">percent</text>
<polygon fill="none" stroke="#000000" points="415,-169.2 415,-191.2 482,-191.2 482,-169.2 415,-169.2"/>
<text text-anchor="start" x="418" y="-176.9" font-family="Helvetica,sans-Serif" font-size="11.00" fill="#000000">decimal[3,2]</text>
<polygon fill="none" stroke="#000000" points="244,-147.2 244,-169.2 415,-169.2 415,-147.2 244,-147.2"/>
<text text-anchor="start" x="264" y="-154.3" font-family="Helvetica,sans-Serif" font-size="11.00" fill="#000000">network_ind</text>
<polygon fill="none" stroke="#000000" points="415,-147.2 415,-169.2 482,-169.2 482,-147.2 415,-147.2"/>
<text text-anchor="start" x="418" y="-154.9" font-family="Helvetica,sans-Serif" font-size="11.00" fill="#000000">varchar[2]</text>
<polygon fill="none" stroke="#000000" points="244,-125.2 244,-147.2 415,-147.2 415,-125.2 244,-125.2"/>
<text text-anchor="start" x="264" y="-132.3" font-family="Helvetica,sans-Serif" font-size="11.00" fill="#000000">message</text>
<polygon fill="none" stroke="#000000" points="415,-125.2 415,-147.2 482,-147.2 482,-125.2 415,-125.2"/>
<text text-anchor="start" x="417.9365" y="-132.9" font-family="Helvetica,sans-Serif" font-size="11.00" fill="#000000">varchar[512]</text>
<polygon fill="none" stroke="#000000" points="244,-103.2 244,-125.2 415,-125.2 415,-103.2 244,-103.2"/>
<text text-anchor="start" x="264" y="-110.3" font-family="Helvetica,sans-Serif" font-size="11.00" fill="#000000">response_status</text>
<polygon fill="none" stroke="#000000" points="415,-103.2 415,-125.2 482,-125.2 482,-103.2 415,-103.2"/>
<text text-anchor="start" x="418" y="-110.9" font-family="Helvetica,sans-Serif" font-size="11.00" fill="#000000">enum[1]</text>
<polygon fill="none" stroke="#000000" points="244,-81.2 244,-103.2 415,-103.2 415,-81.2 244,-81.2"/>
<text text-anchor="start" x="264" y="-88.3" font-family="Helvetica,sans-Serif" font-size="11.00" fill="#000000">response_create_date</text>
<polygon fill="none" stroke="#000000" points="415,-81.2 415,-103.2 482,-103.2 482,-81.2 415,-81.2"/>
<text text-anchor="start" x="418" y="-88.9" font-family="Helvetica,sans-Serif" font-size="11.00" fill="#000000">date[10]</text>
<polygon fill="none" stroke="#000000" points="244,-59.2 244,-81.2 415,-81.2 415,-59.2 244,-59.2"/>
<text text-anchor="start" x="264" y="-66.3" font-family="Helvetica,sans-Serif" font-size="11.00" fill="#000000">response_modify_date</text>
<polygon fill="none" stroke="#000000" points="415,-59.2 415,-81.2 482,-81.2 482,-59.2 415,-59.2"/>
<text text-anchor="start" x="418" y="-66.9" font-family="Helvetica,sans-Serif" font-size="11.00" fill="#000000">date[10]</text>
<polygon fill="#ffffff" stroke="transparent" points="244,-40.2 244,-59.2 334,-59.2 334,-40.2 244,-40.2"/>
<polygon fill="none" stroke="#000000" points="244,-40.2 244,-59.2 334,-59.2 334,-40.2 244,-40.2"/>
<text text-anchor="start" x="247" y="-46.3" font-family="Helvetica,sans-Serif" font-size="11.00" fill="#000000">&lt; 1</text>
<polygon fill="#ffffff" stroke="transparent" points="334,-40.2 334,-59.2 415,-59.2 415,-40.2 334,-40.2"/>
<polygon fill="none" stroke="#000000" points="334,-40.2 334,-59.2 415,-59.2 415,-40.2 334,-40.2"/>
<text text-anchor="start" x="405.8862" y="-46.3" font-family="Helvetica,sans-Serif" font-size="11.00" fill="#000000"> &#160;</text>
<polygon fill="#ffffff" stroke="transparent" points="415,-40.2 415,-59.2 482,-59.2 482,-40.2 415,-40.2"/>
<polygon fill="none" stroke="#000000" points="415,-40.2 415,-59.2 482,-59.2 482,-40.2 415,-40.2"/>
<text text-anchor="start" x="463.4053" y="-46.3" font-family="Helvetica,sans-Serif" font-size="11.00" fill="#000000">0 &gt;</text>
<polygon fill="none" stroke="#000000" stroke-width="2" points="243,-39.2 243,-479.2 483,-479.2 483,-39.2 243,-39.2"/>
</a>
</g>
</g>
<!-- eligibility_verification -->
<g id="node2" class="node">
<title>eligibility_verification</title>
<g id="a_node2"><a xlink:href="../../tables/eligibility_verification.html" xlink:title="eligibility_verification" target="_top">
<polygon fill="#ffffff" stroke="transparent" points="8,-351.7 8,-456.7 193,-456.7 193,-351.7 8,-351.7"/>
<polygon fill="#f5f5f5" stroke="transparent" points="8.5,-433.2 8.5,-456.2 193.5,-456.2 193.5,-433.2 8.5,-433.2"/>
<polygon fill="none" stroke="#000000" points="8.5,-433.2 8.5,-456.2 193.5,-456.2 193.5,-433.2 8.5,-433.2"/>
<text text-anchor="start" x="13.5" y="-441.8" font-family="Helvetica,sans-Serif" font-weight="bold" font-size="11.00" fill="#000000">eligibility_verification</text>
<text text-anchor="start" x="159.0219" y="-441.3" font-family="Helvetica,sans-Serif" font-size="11.00" fill="#000000">[table]</text>
<polygon fill="none" stroke="#000000" points="8.5,-411.2 8.5,-433.2 193.5,-433.2 193.5,-411.2 8.5,-411.2"/>
<image xlink:href="../../images/primaryKeys.png" width="11px" height="12px" preserveAspectRatio="xMinYMin meet" x="13.5" y="-428.2"/>
<text text-anchor="start" x="37.5" y="-418.3" font-family="Helvetica,sans-Serif" font-size="11.00" fill="#000000">verification_id</text>
<polygon fill="#ffffff" stroke="transparent" points="8.5,-389.2 8.5,-411.2 193.5,-411.2 193.5,-389.2 8.5,-389.2"/>
<polygon fill="none" stroke="#000000" points="8.5,-389.2 8.5,-411.2 193.5,-411.2 193.5,-389.2 8.5,-389.2"/>
<image xlink:href="../../images/foreignKeys.png" width="11px" height="12px" preserveAspectRatio="xMinYMin meet" x="13.5" y="-406.2"/>
<text text-anchor="start" x="37.5" y="-396.3" font-family="Helvetica,sans-Serif" font-size="11.00" fill="#000000">insurance_id</text>
<polygon fill="none" stroke="#000000" points="8.5,-370.2 8.5,-389.2 193.5,-389.2 193.5,-370.2 8.5,-370.2"/>
<text text-anchor="start" x="11.5" y="-376.3" font-family="Helvetica,sans-Serif" font-size="11.00" fill="#000000">...</text>
<polygon fill="#ffffff" stroke="transparent" points="8.5,-351.2 8.5,-370.2 94.5,-370.2 94.5,-351.2 8.5,-351.2"/>
<polygon fill="none" stroke="#000000" points="8.5,-351.2 8.5,-370.2 94.5,-370.2 94.5,-351.2 8.5,-351.2"/>
<text text-anchor="start" x="11.5" y="-357.3" font-family="Helvetica,sans-Serif" font-size="11.00" fill="#000000">&lt; 1</text>
<polygon fill="#ffffff" stroke="transparent" points="94.5,-351.2 94.5,-370.2 139.5,-370.2 139.5,-351.2 94.5,-351.2"/>
<polygon fill="none" stroke="#000000" points="94.5,-351.2 94.5,-370.2 139.5,-370.2 139.5,-351.2 94.5,-351.2"/>
<text text-anchor="start" x="130.3862" y="-357.3" font-family="Helvetica,sans-Serif" font-size="11.00" fill="#000000"> &#160;</text>
<polygon fill="#ffffff" stroke="transparent" points="139.5,-351.2 139.5,-370.2 193.5,-370.2 193.5,-351.2 139.5,-351.2"/>
<polygon fill="none" stroke="#000000" points="139.5,-351.2 139.5,-370.2 193.5,-370.2 193.5,-351.2 139.5,-351.2"/>
<text text-anchor="start" x="174.9053" y="-357.3" font-family="Helvetica,sans-Serif" font-size="11.00" fill="#000000">1 &gt;</text>
</a>
</g>
</g>
<!-- benefit_eligibility&#45;&gt;eligibility_verification -->
<g id="edge1" class="edge">
<title>benefit_eligibility:w&#45;&gt;eligibility_verification:e</title>
<path fill="none" stroke="#000000" d="M229.4203,-422.2C217.5435,-422.2 210.158,-422.2 193.5,-422.2"/>
<polygon fill="#000000" stroke="#000000" points="236,-422.2001 244,-425.8 240,-422.2 244,-422.2 244,-422.2 244,-422.2 240,-422.2 244,-418.6 236,-422.2001 236,-422.2001"/>
<ellipse fill="none" stroke="#000000" cx="232.8" cy="-422.2001" rx="3.2" ry="3.2"/>
</g>
</g>
</svg>
