<?xml version="1.0" encoding="UTF-8" standalone="no"?>
<!DOCTYPE svg PUBLIC "-//W3C//DTD SVG 1.1//EN"
 "http://www.w3.org/Graphics/SVG/1.1/DTD/svg11.dtd">
<!-- Generated by graphviz version 2.40.1 (20161225.0304)
 -->
<!-- Title: oneDegreeRelationshipsDiagram Pages: 1 -->
<svg width="949pt" height="1029pt"
 viewBox="0.00 0.00 949.00 1028.70" xmlns="http://www.w3.org/2000/svg" xmlns:xlink="http://www.w3.org/1999/xlink">
<g id="graph0" class="graph" transform="scale(1 1) rotate(0) translate(4 1024.7)">
<title>oneDegreeRelationshipsDiagram</title>
<polygon fill="#ffffff" stroke="transparent" points="-4,4 -4,-1024.7 945,-1024.7 945,4 -4,4"/>
<text text-anchor="middle" x="72.4936" y="-7.3" font-family="Helvetica,sans-Serif" font-size="11.00" fill="#000000">Generated by SchemaSpy</text>
<!-- billing -->
<g id="node1" class="node">
<title>billing</title>
<g id="a_node1"><a xlink:href="../../tables/billing.html" xlink:title="billing" target="_top">
<polygon fill="#ffffff" stroke="transparent" points="697,-38.2 697,-744.2 933,-744.2 933,-38.2 697,-38.2"/>
<polygon fill="#f5f5f5" stroke="transparent" points="699,-719.2 699,-742.2 931,-742.2 931,-719.2 699,-719.2"/>
<polygon fill="none" stroke="#000000" points="699,-719.2 699,-742.2 931,-742.2 931,-719.2 699,-719.2"/>
<text text-anchor="start" x="704" y="-727.8" font-family="Helvetica,sans-Serif" font-weight="bold" font-size="11.00" fill="#000000">billing</text>
<text text-anchor="start" x="896.0437" y="-727.3" font-family="Helvetica,sans-Serif" font-size="11.00" fill="#000000">[table]</text>
<polygon fill="none" stroke="#000000" points="699,-697.2 699,-719.2 820,-719.2 820,-697.2 699,-697.2"/>
<image xlink:href="../../images/primaryKeys.png" width="11px" height="12px" preserveAspectRatio="xMinYMin meet" x="704" y="-714.2"/>
<text text-anchor="start" x="719" y="-704.3" font-family="Helvetica,sans-Serif" font-size="11.00" fill="#000000">id</text>
<polygon fill="none" stroke="#000000" points="820,-697.2 820,-719.2 931,-719.2 931,-697.2 820,-697.2"/>
<text text-anchor="start" x="823" y="-704.9" font-family="Helvetica,sans-Serif" font-size="11.00" fill="#000000">int[10]</text>
<polygon fill="none" stroke="#000000" points="699,-675.2 699,-697.2 820,-697.2 820,-675.2 699,-675.2"/>
<text text-anchor="start" x="719" y="-682.3" font-family="Helvetica,sans-Serif" font-size="11.00" fill="#000000">date</text>
<polygon fill="none" stroke="#000000" points="820,-675.2 820,-697.2 931,-697.2 931,-675.2 820,-675.2"/>
<text text-anchor="start" x="823" y="-682.9" font-family="Helvetica,sans-Serif" font-size="11.00" fill="#000000">datetime[19]</text>
<polygon fill="none" stroke="#000000" points="699,-653.2 699,-675.2 820,-675.2 820,-653.2 699,-653.2"/>
<text text-anchor="start" x="719" y="-660.3" font-family="Helvetica,sans-Serif" font-size="11.00" fill="#000000">code_type</text>
<polygon fill="none" stroke="#000000" points="820,-653.2 820,-675.2 931,-675.2 931,-653.2 820,-653.2"/>
<text text-anchor="start" x="823" y="-660.9" font-family="Helvetica,sans-Serif" font-size="11.00" fill="#000000">varchar[15]</text>
<polygon fill="none" stroke="#000000" points="699,-631.2 699,-653.2 820,-653.2 820,-631.2 699,-631.2"/>
<text text-anchor="start" x="719" y="-638.3" font-family="Helvetica,sans-Serif" font-size="11.00" fill="#000000">code</text>
<polygon fill="none" stroke="#000000" points="820,-631.2 820,-653.2 931,-653.2 931,-631.2 820,-631.2"/>
<text text-anchor="start" x="823" y="-638.9" font-family="Helvetica,sans-Serif" font-size="11.00" fill="#000000">varchar[20]</text>
<polygon fill="#ffffff" stroke="transparent" points="699,-609.2 699,-631.2 820,-631.2 820,-609.2 699,-609.2"/>
<polygon fill="none" stroke="#000000" points="699,-609.2 699,-631.2 820,-631.2 820,-609.2 699,-609.2"/>
<image xlink:href="../../images/foreignKeys.png" width="11px" height="12px" preserveAspectRatio="xMinYMin meet" x="704" y="-626.2"/>
<text text-anchor="start" x="719" y="-616.3" font-family="Helvetica,sans-Serif" font-size="11.00" fill="#000000">pid</text>
<polygon fill="none" stroke="#000000" points="820,-609.2 820,-631.2 931,-631.2 931,-609.2 820,-609.2"/>
<text text-anchor="start" x="823" y="-616.9" font-family="Helvetica,sans-Serif" font-size="11.00" fill="#000000">bigint[19]</text>
<polygon fill="none" stroke="#000000" points="699,-587.2 699,-609.2 820,-609.2 820,-587.2 699,-587.2"/>
<image xlink:href="../../images/foreignKeys.png" width="11px" height="12px" preserveAspectRatio="xMinYMin meet" x="704" y="-604.2"/>
<text text-anchor="start" x="719" y="-594.3" font-family="Helvetica,sans-Serif" font-size="11.00" fill="#000000">provider_id</text>
<polygon fill="none" stroke="#000000" points="820,-587.2 820,-609.2 931,-609.2 931,-587.2 820,-587.2"/>
<text text-anchor="start" x="823" y="-594.9" font-family="Helvetica,sans-Serif" font-size="11.00" fill="#000000">int[10]</text>
<polygon fill="none" stroke="#000000" points="699,-565.2 699,-587.2 820,-587.2 820,-565.2 699,-565.2"/>
<image xlink:href="../../images/foreignKeys.png" width="11px" height="12px" preserveAspectRatio="xMinYMin meet" x="704" y="-582.2"/>
<text text-anchor="start" x="719" y="-572.3" font-family="Helvetica,sans-Serif" font-size="11.00" fill="#000000">user</text>
<polygon fill="none" stroke="#000000" points="820,-565.2 820,-587.2 931,-587.2 931,-565.2 820,-565.2"/>
<text text-anchor="start" x="823" y="-572.9" font-family="Helvetica,sans-Serif" font-size="11.00" fill="#000000">int[10]</text>
<polygon fill="none" stroke="#000000" points="699,-543.2 699,-565.2 820,-565.2 820,-543.2 699,-543.2"/>
<image xlink:href="../../images/foreignKeys.png" width="11px" height="12px" preserveAspectRatio="xMinYMin meet" x="704" y="-560.2"/>
<text text-anchor="start" x="719" y="-550.3" font-family="Helvetica,sans-Serif" font-size="11.00" fill="#000000">groupname</text>
<polygon fill="none" stroke="#000000" points="820,-543.2 820,-565.2 931,-565.2 931,-543.2 820,-543.2"/>
<text text-anchor="start" x="823" y="-550.9" font-family="Helvetica,sans-Serif" font-size="11.00" fill="#000000">varchar[255]</text>
<polygon fill="none" stroke="#000000" points="699,-521.2 699,-543.2 820,-543.2 820,-521.2 699,-521.2"/>
<text text-anchor="start" x="719" y="-528.3" font-family="Helvetica,sans-Serif" font-size="11.00" fill="#000000">authorized</text>
<polygon fill="none" stroke="#000000" points="820,-521.2 820,-543.2 931,-543.2 931,-521.2 820,-521.2"/>
<text text-anchor="start" x="823" y="-528.9" font-family="Helvetica,sans-Serif" font-size="11.00" fill="#000000">bit[1]</text>
<polygon fill="none" stroke="#000000" points="699,-499.2 699,-521.2 820,-521.2 820,-499.2 699,-499.2"/>
<image xlink:href="../../images/foreignKeys.png" width="11px" height="12px" preserveAspectRatio="xMinYMin meet" x="704" y="-516.2"/>
<text text-anchor="start" x="719" y="-506.3" font-family="Helvetica,sans-Serif" font-size="11.00" fill="#000000">encounter</text>
<polygon fill="none" stroke="#000000" points="820,-499.2 820,-521.2 931,-521.2 931,-499.2 820,-499.2"/>
<text text-anchor="start" x="823" y="-506.9" font-family="Helvetica,sans-Serif" font-size="11.00" fill="#000000">int[10]</text>
<polygon fill="none" stroke="#000000" points="699,-477.2 699,-499.2 820,-499.2 820,-477.2 699,-477.2"/>
<text text-anchor="start" x="719" y="-484.3" font-family="Helvetica,sans-Serif" font-size="11.00" fill="#000000">code_text</text>
<polygon fill="none" stroke="#000000" points="820,-477.2 820,-499.2 931,-499.2 931,-477.2 820,-477.2"/>
<text text-anchor="start" x="822.6115" y="-484.9" font-family="Helvetica,sans-Serif" font-size="11.00" fill="#000000">longtext[2147483647]</text>
<polygon fill="none" stroke="#000000" points="699,-455.2 699,-477.2 820,-477.2 820,-455.2 699,-455.2"/>
<text text-anchor="start" x="719" y="-462.3" font-family="Helvetica,sans-Serif" font-size="11.00" fill="#000000">billed</text>
<polygon fill="none" stroke="#000000" points="820,-455.2 820,-477.2 931,-477.2 931,-455.2 820,-455.2"/>
<text text-anchor="start" x="823" y="-462.9" font-family="Helvetica,sans-Serif" font-size="11.00" fill="#000000">bit[1]</text>
<polygon fill="none" stroke="#000000" points="699,-433.2 699,-455.2 820,-455.2 820,-433.2 699,-433.2"/>
<text text-anchor="start" x="719" y="-440.3" font-family="Helvetica,sans-Serif" font-size="11.00" fill="#000000">activity</text>
<polygon fill="none" stroke="#000000" points="820,-433.2 820,-455.2 931,-455.2 931,-433.2 820,-433.2"/>
<text text-anchor="start" x="823" y="-440.9" font-family="Helvetica,sans-Serif" font-size="11.00" fill="#000000">bit[1]</text>
<polygon fill="none" stroke="#000000" points="699,-411.2 699,-433.2 820,-433.2 820,-411.2 699,-411.2"/>
<image xlink:href="../../images/foreignKeys.png" width="11px" height="12px" preserveAspectRatio="xMinYMin meet" x="704" y="-428.2"/>
<text text-anchor="start" x="719" y="-418.3" font-family="Helvetica,sans-Serif" font-size="11.00" fill="#000000">payer_id</text>
<polygon fill="none" stroke="#000000" points="820,-411.2 820,-433.2 931,-433.2 931,-411.2 820,-411.2"/>
<text text-anchor="start" x="823" y="-418.9" font-family="Helvetica,sans-Serif" font-size="11.00" fill="#000000">int[10]</text>
<polygon fill="none" stroke="#000000" points="699,-389.2 699,-411.2 820,-411.2 820,-389.2 699,-389.2"/>
<text text-anchor="start" x="719" y="-396.3" font-family="Helvetica,sans-Serif" font-size="11.00" fill="#000000">bill_process</text>
<polygon fill="none" stroke="#000000" points="820,-389.2 820,-411.2 931,-411.2 931,-389.2 820,-389.2"/>
<text text-anchor="start" x="823" y="-396.9" font-family="Helvetica,sans-Serif" font-size="11.00" fill="#000000">tinyint[3]</text>
<polygon fill="none" stroke="#000000" points="699,-367.2 699,-389.2 820,-389.2 820,-367.2 699,-367.2"/>
<text text-anchor="start" x="719" y="-374.3" font-family="Helvetica,sans-Serif" font-size="11.00" fill="#000000">bill_date</text>
<polygon fill="none" stroke="#000000" points="820,-367.2 820,-389.2 931,-389.2 931,-367.2 820,-367.2"/>
<text text-anchor="start" x="823" y="-374.9" font-family="Helvetica,sans-Serif" font-size="11.00" fill="#000000">datetime[19]</text>
<polygon fill="none" stroke="#000000" points="699,-345.2 699,-367.2 820,-367.2 820,-345.2 699,-345.2"/>
<text text-anchor="start" x="719" y="-352.3" font-family="Helvetica,sans-Serif" font-size="11.00" fill="#000000">process_date</text>
<polygon fill="none" stroke="#000000" points="820,-345.2 820,-367.2 931,-367.2 931,-345.2 820,-345.2"/>
<text text-anchor="start" x="823" y="-352.9" font-family="Helvetica,sans-Serif" font-size="11.00" fill="#000000">datetime[19]</text>
<polygon fill="none" stroke="#000000" points="699,-323.2 699,-345.2 820,-345.2 820,-323.2 699,-323.2"/>
<text text-anchor="start" x="719" y="-330.3" font-family="Helvetica,sans-Serif" font-size="11.00" fill="#000000">process_file</text>
<polygon fill="none" stroke="#000000" points="820,-323.2 820,-345.2 931,-345.2 931,-323.2 820,-323.2"/>
<text text-anchor="start" x="823" y="-330.9" font-family="Helvetica,sans-Serif" font-size="11.00" fill="#000000">varchar[255]</text>
<polygon fill="none" stroke="#000000" points="699,-301.2 699,-323.2 820,-323.2 820,-301.2 699,-301.2"/>
<text text-anchor="start" x="719" y="-308.3" font-family="Helvetica,sans-Serif" font-size="11.00" fill="#000000">modifier</text>
<polygon fill="none" stroke="#000000" points="820,-301.2 820,-323.2 931,-323.2 931,-301.2 820,-301.2"/>
<text text-anchor="start" x="823" y="-308.9" font-family="Helvetica,sans-Serif" font-size="11.00" fill="#000000">varchar[12]</text>
<polygon fill="none" stroke="#000000" points="699,-279.2 699,-301.2 820,-301.2 820,-279.2 699,-279.2"/>
<text text-anchor="start" x="719" y="-286.3" font-family="Helvetica,sans-Serif" font-size="11.00" fill="#000000">units</text>
<polygon fill="none" stroke="#000000" points="820,-279.2 820,-301.2 931,-301.2 931,-279.2 820,-279.2"/>
<text text-anchor="start" x="823" y="-286.9" font-family="Helvetica,sans-Serif" font-size="11.00" fill="#000000">int[10]</text>
<polygon fill="none" stroke="#000000" points="699,-257.2 699,-279.2 820,-279.2 820,-257.2 699,-257.2"/>
<text text-anchor="start" x="719" y="-264.3" font-family="Helvetica,sans-Serif" font-size="11.00" fill="#000000">fee</text>
<polygon fill="none" stroke="#000000" points="820,-257.2 820,-279.2 931,-279.2 931,-257.2 820,-257.2"/>
<text text-anchor="start" x="823" y="-264.9" font-family="Helvetica,sans-Serif" font-size="11.00" fill="#000000">decimal[12,2]</text>
<polygon fill="none" stroke="#000000" points="699,-235.2 699,-257.2 820,-257.2 820,-235.2 699,-235.2"/>
<text text-anchor="start" x="719" y="-242.3" font-family="Helvetica,sans-Serif" font-size="11.00" fill="#000000">justify</text>
<polygon fill="none" stroke="#000000" points="820,-235.2 820,-257.2 931,-257.2 931,-235.2 820,-235.2"/>
<text text-anchor="start" x="823" y="-242.9" font-family="Helvetica,sans-Serif" font-size="11.00" fill="#000000">varchar[255]</text>
<polygon fill="none" stroke="#000000" points="699,-213.2 699,-235.2 820,-235.2 820,-213.2 699,-213.2"/>
<text text-anchor="start" x="719" y="-220.3" font-family="Helvetica,sans-Serif" font-size="11.00" fill="#000000">target</text>
<polygon fill="none" stroke="#000000" points="820,-213.2 820,-235.2 931,-235.2 931,-213.2 820,-213.2"/>
<text text-anchor="start" x="823" y="-220.9" font-family="Helvetica,sans-Serif" font-size="11.00" fill="#000000">varchar[30]</text>
<polygon fill="none" stroke="#000000" points="699,-191.2 699,-213.2 820,-213.2 820,-191.2 699,-191.2"/>
<image xlink:href="../../images/foreignKeys.png" width="11px" height="12px" preserveAspectRatio="xMinYMin meet" x="704" y="-208.2"/>
<text text-anchor="start" x="719" y="-198.3" font-family="Helvetica,sans-Serif" font-size="11.00" fill="#000000">x12_partner_id</text>
<polygon fill="none" stroke="#000000" points="820,-191.2 820,-213.2 931,-213.2 931,-191.2 820,-191.2"/>
<text text-anchor="start" x="823" y="-198.9" font-family="Helvetica,sans-Serif" font-size="11.00" fill="#000000">int[10]</text>
<polygon fill="none" stroke="#000000" points="699,-169.2 699,-191.2 820,-191.2 820,-169.2 699,-169.2"/>
<text text-anchor="start" x="719" y="-176.3" font-family="Helvetica,sans-Serif" font-size="11.00" fill="#000000">ndc_info</text>
<polygon fill="none" stroke="#000000" points="820,-169.2 820,-191.2 931,-191.2 931,-169.2 820,-169.2"/>
<text text-anchor="start" x="823" y="-176.9" font-family="Helvetica,sans-Serif" font-size="11.00" fill="#000000">varchar[255]</text>
<polygon fill="none" stroke="#000000" points="699,-147.2 699,-169.2 820,-169.2 820,-147.2 699,-147.2"/>
<text text-anchor="start" x="719" y="-154.3" font-family="Helvetica,sans-Serif" font-size="11.00" fill="#000000">notecodes</text>
<polygon fill="none" stroke="#000000" points="820,-147.2 820,-169.2 931,-169.2 931,-147.2 820,-147.2"/>
<text text-anchor="start" x="823" y="-154.9" font-family="Helvetica,sans-Serif" font-size="11.00" fill="#000000">varchar[25]</text>
<polygon fill="none" stroke="#000000" points="699,-125.2 699,-147.2 820,-147.2 820,-125.2 699,-125.2"/>
<text text-anchor="start" x="719" y="-132.3" font-family="Helvetica,sans-Serif" font-size="11.00" fill="#000000">external_id</text>
<polygon fill="none" stroke="#000000" points="820,-125.2 820,-147.2 931,-147.2 931,-125.2 820,-125.2"/>
<text text-anchor="start" x="823" y="-132.9" font-family="Helvetica,sans-Serif" font-size="11.00" fill="#000000">varchar[20]</text>
<polygon fill="none" stroke="#000000" points="699,-103.2 699,-125.2 820,-125.2 820,-103.2 699,-103.2"/>
<text text-anchor="start" x="719" y="-110.3" font-family="Helvetica,sans-Serif" font-size="11.00" fill="#000000">pricelevel</text>
<polygon fill="none" stroke="#000000" points="820,-103.2 820,-125.2 931,-125.2 931,-103.2 820,-103.2"/>
<text text-anchor="start" x="823" y="-110.9" font-family="Helvetica,sans-Serif" font-size="11.00" fill="#000000">varchar[31]</text>
<polygon fill="none" stroke="#000000" points="699,-81.2 699,-103.2 820,-103.2 820,-81.2 699,-81.2"/>
<text text-anchor="start" x="719" y="-88.3" font-family="Helvetica,sans-Serif" font-size="11.00" fill="#000000">revenue_code</text>
<polygon fill="none" stroke="#000000" points="820,-81.2 820,-103.2 931,-103.2 931,-81.2 820,-81.2"/>
<text text-anchor="start" x="823" y="-88.9" font-family="Helvetica,sans-Serif" font-size="11.00" fill="#000000">varchar[6]</text>
<polygon fill="none" stroke="#000000" points="699,-59.2 699,-81.2 820,-81.2 820,-59.2 699,-59.2"/>
<text text-anchor="start" x="719" y="-66.3" font-family="Helvetica,sans-Serif" font-size="11.00" fill="#000000">chargecat</text>
<polygon fill="none" stroke="#000000" points="820,-59.2 820,-81.2 931,-81.2 931,-59.2 820,-59.2"/>
<text text-anchor="start" x="823" y="-66.9" font-family="Helvetica,sans-Serif" font-size="11.00" fill="#000000">varchar[31]</text>
<polygon fill="#ffffff" stroke="transparent" points="699,-40.2 699,-59.2 764,-59.2 764,-40.2 699,-40.2"/>
<polygon fill="none" stroke="#000000" points="699,-40.2 699,-59.2 764,-59.2 764,-40.2 699,-40.2"/>
<text text-anchor="start" x="702" y="-46.3" font-family="Helvetica,sans-Serif" font-size="11.00" fill="#000000">&lt; 7</text>
<polygon fill="#ffffff" stroke="transparent" points="764,-40.2 764,-59.2 820,-59.2 820,-40.2 764,-40.2"/>
<polygon fill="none" stroke="#000000" points="764,-40.2 764,-59.2 820,-59.2 820,-40.2 764,-40.2"/>
<text text-anchor="start" x="810.8862" y="-46.3" font-family="Helvetica,sans-Serif" font-size="11.00" fill="#000000"> &#160;</text>
<polygon fill="#ffffff" stroke="transparent" points="820,-40.2 820,-59.2 931,-59.2 931,-40.2 820,-40.2"/>
<polygon fill="none" stroke="#000000" points="820,-40.2 820,-59.2 931,-59.2 931,-40.2 820,-40.2"/>
<text text-anchor="start" x="912.4053" y="-46.3" font-family="Helvetica,sans-Serif" font-size="11.00" fill="#000000">0 &gt;</text>
<polygon fill="none" stroke="#000000" stroke-width="2" points="698,-39.2 698,-743.2 932,-743.2 932,-39.2 698,-39.2"/>
</a>
</g>
</g>
<!-- form_encounter -->
<g id="node2" class="node">
<title>form_encounter</title>
<g id="a_node2"><a xlink:href="../../tables/form_encounter.html" xlink:title="form_encounter" target="_top">
<polygon fill="#ffffff" stroke="transparent" points="440,-433.7 440,-604.7 648,-604.7 648,-433.7 440,-433.7"/>
<polygon fill="#f5f5f5" stroke="transparent" points="440,-581.2 440,-604.2 648,-604.2 648,-581.2 440,-581.2"/>
<polygon fill="none" stroke="#000000" points="440,-581.2 440,-604.2 648,-604.2 648,-581.2 440,-581.2"/>
<text text-anchor="start" x="445" y="-589.8" font-family="Helvetica,sans-Serif" font-weight="bold" font-size="11.00" fill="#000000">form_encounter</text>
<text text-anchor="start" x="613.0437" y="-589.3" font-family="Helvetica,sans-Serif" font-size="11.00" fill="#000000">[table]</text>
<polygon fill="none" stroke="#000000" points="440,-559.2 440,-581.2 648,-581.2 648,-559.2 440,-559.2"/>
<image xlink:href="../../images/primaryKeys.png" width="11px" height="12px" preserveAspectRatio="xMinYMin meet" x="445" y="-576.2"/>
<text text-anchor="start" x="460" y="-566.3" font-family="Helvetica,sans-Serif" font-size="11.00" fill="#000000">id</text>
<polygon fill="#ffffff" stroke="transparent" points="440,-537.2 440,-559.2 648,-559.2 648,-537.2 440,-537.2"/>
<polygon fill="none" stroke="#000000" points="440,-537.2 440,-559.2 648,-559.2 648,-537.2 440,-537.2"/>
<text text-anchor="start" x="460" y="-544.3" font-family="Helvetica,sans-Serif" font-size="11.00" fill="#000000">uuid</text>
<polygon fill="#ffffff" stroke="transparent" points="440,-515.2 440,-537.2 648,-537.2 648,-515.2 440,-515.2"/>
<polygon fill="none" stroke="#000000" points="440,-515.2 440,-537.2 648,-537.2 648,-515.2 440,-515.2"/>
<text text-anchor="start" x="460" y="-522.3" font-family="Helvetica,sans-Serif" font-size="11.00" fill="#000000">date</text>
<polygon fill="#ffffff" stroke="transparent" points="440,-493.2 440,-515.2 648,-515.2 648,-493.2 440,-493.2"/>
<polygon fill="none" stroke="#000000" points="440,-493.2 440,-515.2 648,-515.2 648,-493.2 440,-493.2"/>
<image xlink:href="../../images/foreignKeys.png" width="11px" height="12px" preserveAspectRatio="xMinYMin meet" x="445" y="-510.2"/>
<text text-anchor="start" x="460" y="-500.3" font-family="Helvetica,sans-Serif" font-size="11.00" fill="#000000">pid</text>
<polygon fill="none" stroke="#000000" points="440,-471.2 440,-493.2 648,-493.2 648,-471.2 440,-471.2"/>
<image xlink:href="../../images/primaryKeys.png" width="11px" height="12px" preserveAspectRatio="xMinYMin meet" x="445" y="-488.2"/>
<text text-anchor="start" x="460" y="-478.3" font-family="Helvetica,sans-Serif" font-size="11.00" fill="#000000">encounter</text>
<polygon fill="none" stroke="#000000" points="440,-452.2 440,-471.2 648,-471.2 648,-452.2 440,-452.2"/>
<text text-anchor="start" x="443" y="-458.3" font-family="Helvetica,sans-Serif" font-size="11.00" fill="#000000">...</text>
<polygon fill="#ffffff" stroke="transparent" points="440,-433.2 440,-452.2 538,-452.2 538,-433.2 440,-433.2"/>
<polygon fill="none" stroke="#000000" points="440,-433.2 440,-452.2 538,-452.2 538,-433.2 440,-433.2"/>
<text text-anchor="start" x="443" y="-439.3" font-family="Helvetica,sans-Serif" font-size="11.00" fill="#000000">&lt; 1</text>
<polygon fill="#ffffff" stroke="transparent" points="538,-433.2 538,-452.2 588,-452.2 588,-433.2 538,-433.2"/>
<polygon fill="none" stroke="#000000" points="538,-433.2 538,-452.2 588,-452.2 588,-433.2 538,-433.2"/>
<text text-anchor="start" x="578.8862" y="-439.3" font-family="Helvetica,sans-Serif" font-size="11.00" fill="#000000"> &#160;</text>
<polygon fill="#ffffff" stroke="transparent" points="588,-433.2 588,-452.2 648,-452.2 648,-433.2 588,-433.2"/>
<polygon fill="none" stroke="#000000" points="588,-433.2 588,-452.2 648,-452.2 648,-433.2 588,-433.2"/>
<text text-anchor="start" x="629.4053" y="-439.3" font-family="Helvetica,sans-Serif" font-size="11.00" fill="#000000">9 &gt;</text>
</a>
</g>
</g>
<!-- billing&#45;&gt;form_encounter -->
<g id="edge1" class="edge">
<title>billing:w&#45;&gt;form_encounter:e</title>
<path fill="none" stroke="#000000" d="M684.8987,-506.5395C672.1024,-498.9498 667.9996,-482.2 648,-482.2"/>
<polygon fill="#000000" stroke="#000000" points="691.2566,-508.1899 698.0954,-513.6845 695.1283,-509.1949 699,-510.2 699,-510.2 699,-510.2 695.1283,-509.1949 699.9046,-506.7155 691.2566,-508.1899 691.2566,-508.1899"/>
<ellipse fill="none" stroke="#000000" cx="688.1593" cy="-507.3858" rx="3.2" ry="3.2"/>
</g>
<!-- groups -->
<g id="node3" class="node">
<title>groups</title>
<g id="a_node3"><a xlink:href="../../tables/groups.html" xlink:title="groups" target="_top">
<polygon fill="#ffffff" stroke="transparent" points="501,-625.7 501,-730.7 587,-730.7 587,-625.7 501,-625.7"/>
<polygon fill="#f5f5f5" stroke="transparent" points="501,-707.2 501,-730.2 587,-730.2 587,-707.2 501,-707.2"/>
<polygon fill="none" stroke="#000000" points="501,-707.2 501,-730.2 587,-730.2 587,-707.2 501,-707.2"/>
<text text-anchor="start" x="506" y="-715.8" font-family="Helvetica,sans-Serif" font-weight="bold" font-size="11.00" fill="#000000">groups</text>
<text text-anchor="start" x="552.5219" y="-715.3" font-family="Helvetica,sans-Serif" font-size="11.00" fill="#000000">[table]</text>
<polygon fill="none" stroke="#000000" points="501,-685.2 501,-707.2 587,-707.2 587,-685.2 501,-685.2"/>
<image xlink:href="../../images/primaryKeys.png" width="11px" height="12px" preserveAspectRatio="xMinYMin meet" x="506" y="-702.2"/>
<text text-anchor="start" x="530" y="-692.3" font-family="Helvetica,sans-Serif" font-size="11.00" fill="#000000">id</text>
<polygon fill="none" stroke="#000000" points="501,-663.2 501,-685.2 587,-685.2 587,-663.2 501,-663.2"/>
<image xlink:href="../../images/primaryKeys.png" width="11px" height="12px" preserveAspectRatio="xMinYMin meet" x="506" y="-680.2"/>
<text text-anchor="start" x="530" y="-670.3" font-family="Helvetica,sans-Serif" font-size="11.00" fill="#000000">name</text>
<polygon fill="none" stroke="#000000" points="501,-644.2 501,-663.2 587,-663.2 587,-644.2 501,-644.2"/>
<text text-anchor="start" x="504" y="-650.3" font-family="Helvetica,sans-Serif" font-size="11.00" fill="#000000">...</text>
<polygon fill="#ffffff" stroke="transparent" points="501,-625.2 501,-644.2 530,-644.2 530,-625.2 501,-625.2"/>
<polygon fill="none" stroke="#000000" points="501,-625.2 501,-644.2 530,-644.2 530,-625.2 501,-625.2"/>
<text text-anchor="start" x="504" y="-631.3" font-family="Helvetica,sans-Serif" font-size="11.00" fill="#000000"> &#160;</text>
<polygon fill="#ffffff" stroke="transparent" points="530,-625.2 530,-644.2 551,-644.2 551,-625.2 530,-625.2"/>
<polygon fill="none" stroke="#000000" points="530,-625.2 530,-644.2 551,-644.2 551,-625.2 530,-625.2"/>
<text text-anchor="start" x="541.8862" y="-631.3" font-family="Helvetica,sans-Serif" font-size="11.00" fill="#000000"> &#160;</text>
<polygon fill="#ffffff" stroke="transparent" points="551,-625.2 551,-644.2 587,-644.2 587,-625.2 551,-625.2"/>
<polygon fill="none" stroke="#000000" points="551,-625.2 551,-644.2 587,-644.2 587,-625.2 551,-625.2"/>
<text text-anchor="start" x="562.2904" y="-631.3" font-family="Helvetica,sans-Serif" font-size="11.00" fill="#000000">10 &gt;</text>
</a>
</g>
</g>
<!-- billing&#45;&gt;groups -->
<g id="edge2" class="edge">
<title>billing:w&#45;&gt;groups:e</title>
<path fill="none" stroke="#000000" d="M684.6284,-557.7278C669.2943,-567.4582 674.1464,-595.2741 656,-615.2 628.8321,-645.0321 627.3491,-674.2 587,-674.2"/>
<polygon fill="#000000" stroke="#000000" points="691.2307,-556.1072 699.8582,-557.6962 695.1153,-555.1536 699,-554.2 699,-554.2 699,-554.2 695.1153,-555.1536 698.1418,-550.7038 691.2307,-556.1072 691.2307,-556.1072"/>
<ellipse fill="none" stroke="#000000" cx="688.1229" cy="-556.8701" rx="3.2" ry="3.2"/>
</g>
<!-- insurance_companies -->
<g id="node4" class="node">
<title>insurance_companies</title>
<g id="a_node4"><a xlink:href="../../tables/insurance_companies.html" xlink:title="insurance_companies" target="_top">
<polygon fill="#ffffff" stroke="transparent" points="450,-285.7 450,-412.7 638,-412.7 638,-285.7 450,-285.7"/>
<polygon fill="#f5f5f5" stroke="transparent" points="450,-389.2 450,-412.2 638,-412.2 638,-389.2 450,-389.2"/>
<polygon fill="none" stroke="#000000" points="450,-389.2 450,-412.2 638,-412.2 638,-389.2 450,-389.2"/>
<text text-anchor="start" x="455" y="-397.8" font-family="Helvetica,sans-Serif" font-weight="bold" font-size="11.00" fill="#000000">insurance_companies</text>
<text text-anchor="start" x="603.0437" y="-397.3" font-family="Helvetica,sans-Serif" font-size="11.00" fill="#000000">[table]</text>
<polygon fill="none" stroke="#000000" points="450,-367.2 450,-389.2 638,-389.2 638,-367.2 450,-367.2"/>
<image xlink:href="../../images/primaryKeys.png" width="11px" height="12px" preserveAspectRatio="xMinYMin meet" x="455" y="-384.2"/>
<text text-anchor="start" x="470" y="-374.3" font-family="Helvetica,sans-Serif" font-size="11.00" fill="#000000">id</text>
<polygon fill="#ffffff" stroke="transparent" points="450,-345.2 450,-367.2 638,-367.2 638,-345.2 450,-345.2"/>
<polygon fill="none" stroke="#000000" points="450,-345.2 450,-367.2 638,-367.2 638,-345.2 450,-345.2"/>
<text text-anchor="start" x="470" y="-352.3" font-family="Helvetica,sans-Serif" font-size="11.00" fill="#000000">uuid</text>
<polygon fill="none" stroke="#000000" points="450,-323.2 450,-345.2 638,-345.2 638,-323.2 450,-323.2"/>
<image xlink:href="../../images/foreignKeys.png" width="11px" height="12px" preserveAspectRatio="xMinYMin meet" x="455" y="-340.2"/>
<text text-anchor="start" x="470" y="-330.3" font-family="Helvetica,sans-Serif" font-size="11.00" fill="#000000">ins_type_code</text>
<polygon fill="none" stroke="#000000" points="450,-304.2 450,-323.2 638,-323.2 638,-304.2 450,-304.2"/>
<text text-anchor="start" x="453" y="-310.3" font-family="Helvetica,sans-Serif" font-size="11.00" fill="#000000">...</text>
<polygon fill="#ffffff" stroke="transparent" points="450,-285.2 450,-304.2 538,-304.2 538,-285.2 450,-285.2"/>
<polygon fill="none" stroke="#000000" points="450,-285.2 450,-304.2 538,-304.2 538,-285.2 450,-285.2"/>
<text text-anchor="start" x="453" y="-291.3" font-family="Helvetica,sans-Serif" font-size="11.00" fill="#000000">&lt; 1</text>
<polygon fill="#ffffff" stroke="transparent" points="538,-285.2 538,-304.2 583,-304.2 583,-285.2 538,-285.2"/>
<polygon fill="none" stroke="#000000" points="538,-285.2 538,-304.2 583,-304.2 583,-285.2 538,-285.2"/>
<text text-anchor="start" x="573.8862" y="-291.3" font-family="Helvetica,sans-Serif" font-size="11.00" fill="#000000"> &#160;</text>
<polygon fill="#ffffff" stroke="transparent" points="583,-285.2 583,-304.2 638,-304.2 638,-285.2 583,-285.2"/>
<polygon fill="none" stroke="#000000" points="583,-285.2 583,-304.2 638,-304.2 638,-285.2 583,-285.2"/>
<text text-anchor="start" x="619.4053" y="-291.3" font-family="Helvetica,sans-Serif" font-size="11.00" fill="#000000">4 &gt;</text>
</a>
</g>
</g>
<!-- billing&#45;&gt;insurance_companies -->
<g id="edge3" class="edge">
<title>billing:w&#45;&gt;insurance_companies:e</title>
<path fill="none" stroke="#000000" d="M684.8462,-418.7474C666.4245,-408.3748 665.6826,-378.2 638,-378.2"/>
<polygon fill="#000000" stroke="#000000" points="691.2279,-420.3041 698.1468,-425.6974 695.1139,-421.252 699,-422.2 699,-422.2 699,-422.2 695.1139,-421.252 699.8532,-418.7026 691.2279,-420.3041 691.2279,-420.3041"/>
<ellipse fill="none" stroke="#000000" cx="688.1191" cy="-419.5457" rx="3.2" ry="3.2"/>
</g>
<!-- billing&#45;&gt;insurance_companies -->
<g id="edge5" class="edge">
<title>billing:w&#45;&gt;insurance_companies:e</title>
<path fill="none" stroke="#000000" d="M684.4573,-596.2981C612.3293,-574.7955 733.9178,-378.2 638,-378.2"/>
<polygon fill="#000000" stroke="#000000" points="691.0675,-597.1625 698.5331,-601.7696 695.0338,-597.6813 699,-598.2 699,-598.2 699,-598.2 695.0338,-597.6813 699.4669,-594.6304 691.0675,-597.1625 691.0675,-597.1625"/>
<ellipse fill="none" stroke="#000000" cx="687.8946" cy="-596.7475" rx="3.2" ry="3.2"/>
</g>
<!-- patient_data -->
<g id="node5" class="node">
<title>patient_data</title>
<g id="a_node5"><a xlink:href="../../tables/patient_data.html" xlink:title="patient_data" target="_top">
<polygon fill="#ffffff" stroke="transparent" points="224,-779.7 224,-1016.7 391,-1016.7 391,-779.7 224,-779.7"/>
<polygon fill="#f5f5f5" stroke="transparent" points="224.5,-993.2 224.5,-1016.2 391.5,-1016.2 391.5,-993.2 224.5,-993.2"/>
<polygon fill="none" stroke="#000000" points="224.5,-993.2 224.5,-1016.2 391.5,-1016.2 391.5,-993.2 224.5,-993.2"/>
<text text-anchor="start" x="229.5" y="-1001.8" font-family="Helvetica,sans-Serif" font-weight="bold" font-size="11.00" fill="#000000">patient_data</text>
<text text-anchor="start" x="356.5437" y="-1001.3" font-family="Helvetica,sans-Serif" font-size="11.00" fill="#000000">[table]</text>
<polygon fill="#ffffff" stroke="transparent" points="224.5,-971.2 224.5,-993.2 391.5,-993.2 391.5,-971.2 224.5,-971.2"/>
<polygon fill="none" stroke="#000000" points="224.5,-971.2 224.5,-993.2 391.5,-993.2 391.5,-971.2 224.5,-971.2"/>
<text text-anchor="start" x="244.5" y="-978.3" font-family="Helvetica,sans-Serif" font-size="11.00" fill="#000000">id</text>
<polygon fill="#ffffff" stroke="transparent" points="224.5,-949.2 224.5,-971.2 391.5,-971.2 391.5,-949.2 224.5,-949.2"/>
<polygon fill="none" stroke="#000000" points="224.5,-949.2 224.5,-971.2 391.5,-971.2 391.5,-949.2 224.5,-949.2"/>
<text text-anchor="start" x="244.5" y="-956.3" font-family="Helvetica,sans-Serif" font-size="11.00" fill="#000000">uuid</text>
<polygon fill="none" stroke="#000000" points="224.5,-927.2 224.5,-949.2 391.5,-949.2 391.5,-927.2 224.5,-927.2"/>
<image xlink:href="../../images/foreignKeys.png" width="11px" height="12px" preserveAspectRatio="xMinYMin meet" x="229.5" y="-944.2"/>
<text text-anchor="start" x="244.5" y="-934.3" font-family="Helvetica,sans-Serif" font-size="11.00" fill="#000000">pharmacy_id</text>
<polygon fill="none" stroke="#000000" points="224.5,-905.2 224.5,-927.2 391.5,-927.2 391.5,-905.2 224.5,-905.2"/>
<image xlink:href="../../images/foreignKeys.png" width="11px" height="12px" preserveAspectRatio="xMinYMin meet" x="229.5" y="-922.2"/>
<text text-anchor="start" x="244.5" y="-912.3" font-family="Helvetica,sans-Serif" font-size="11.00" fill="#000000">providerID</text>
<polygon fill="none" stroke="#000000" points="224.5,-883.2 224.5,-905.2 391.5,-905.2 391.5,-883.2 224.5,-883.2"/>
<image xlink:href="../../images/foreignKeys.png" width="11px" height="12px" preserveAspectRatio="xMinYMin meet" x="229.5" y="-900.2"/>
<text text-anchor="start" x="244.5" y="-890.3" font-family="Helvetica,sans-Serif" font-size="11.00" fill="#000000">ref_providerID</text>
<polygon fill="none" stroke="#000000" points="224.5,-861.2 224.5,-883.2 391.5,-883.2 391.5,-861.2 224.5,-861.2"/>
<image xlink:href="../../images/primaryKeys.png" width="11px" height="12px" preserveAspectRatio="xMinYMin meet" x="229.5" y="-878.2"/>
<text text-anchor="start" x="244.5" y="-868.3" font-family="Helvetica,sans-Serif" font-size="11.00" fill="#000000">pid</text>
<polygon fill="none" stroke="#000000" points="224.5,-839.2 224.5,-861.2 391.5,-861.2 391.5,-839.2 224.5,-839.2"/>
<image xlink:href="../../images/foreignKeys.png" width="11px" height="12px" preserveAspectRatio="xMinYMin meet" x="229.5" y="-856.2"/>
<text text-anchor="start" x="244.5" y="-846.3" font-family="Helvetica,sans-Serif" font-size="11.00" fill="#000000">created_by</text>
<polygon fill="none" stroke="#000000" points="224.5,-817.2 224.5,-839.2 391.5,-839.2 391.5,-817.2 224.5,-817.2"/>
<image xlink:href="../../images/foreignKeys.png" width="11px" height="12px" preserveAspectRatio="xMinYMin meet" x="229.5" y="-834.2"/>
<text text-anchor="start" x="244.5" y="-824.3" font-family="Helvetica,sans-Serif" font-size="11.00" fill="#000000">updated_by</text>
<polygon fill="none" stroke="#000000" points="224.5,-798.2 224.5,-817.2 391.5,-817.2 391.5,-798.2 224.5,-798.2"/>
<text text-anchor="start" x="227.5" y="-804.3" font-family="Helvetica,sans-Serif" font-size="11.00" fill="#000000">...</text>
<polygon fill="#ffffff" stroke="transparent" points="224.5,-779.2 224.5,-798.2 298.5,-798.2 298.5,-779.2 224.5,-779.2"/>
<polygon fill="none" stroke="#000000" points="224.5,-779.2 224.5,-798.2 298.5,-798.2 298.5,-779.2 224.5,-779.2"/>
<text text-anchor="start" x="227.5" y="-785.3" font-family="Helvetica,sans-Serif" font-size="11.00" fill="#000000">&lt; 5</text>
<polygon fill="#ffffff" stroke="transparent" points="298.5,-779.2 298.5,-798.2 337.5,-798.2 337.5,-779.2 298.5,-779.2"/>
<polygon fill="none" stroke="#000000" points="298.5,-779.2 298.5,-798.2 337.5,-798.2 337.5,-779.2 298.5,-779.2"/>
<text text-anchor="start" x="328.3862" y="-785.3" font-family="Helvetica,sans-Serif" font-size="11.00" fill="#000000"> &#160;</text>
<polygon fill="#ffffff" stroke="transparent" points="337.5,-779.2 337.5,-798.2 391.5,-798.2 391.5,-779.2 337.5,-779.2"/>
<polygon fill="none" stroke="#000000" points="337.5,-779.2 337.5,-798.2 391.5,-798.2 391.5,-779.2 337.5,-779.2"/>
<text text-anchor="start" x="366.7904" y="-785.3" font-family="Helvetica,sans-Serif" font-size="11.00" fill="#000000">80 &gt;</text>
</a>
</g>
</g>
<!-- billing&#45;&gt;patient_data -->
<g id="edge4" class="edge">
<title>billing:w&#45;&gt;patient_data:e</title>
<path fill="none" stroke="#000000" d="M684.5379,-622.2208C642.8651,-636.2336 697.3086,-719.717 656,-765.2 570.743,-859.0727 518.3103,-872.2 391.5,-872.2"/>
<polygon fill="#000000" stroke="#000000" points="691.077,-621.3071 699.4982,-623.7654 695.0385,-620.7536 699,-620.2 699,-620.2 699,-620.2 695.0385,-620.7536 698.5018,-616.6346 691.077,-621.3071 691.077,-621.3071"/>
<ellipse fill="none" stroke="#000000" cx="687.9078" cy="-621.75" rx="3.2" ry="3.2"/>
</g>
<!-- users -->
<g id="node6" class="node">
<title>users</title>
<g id="a_node6"><a xlink:href="../../tables/users.html" xlink:title="users" target="_top">
<polygon fill="#ffffff" stroke="transparent" points="8,-713.7 8,-884.7 175,-884.7 175,-713.7 8,-713.7"/>
<polygon fill="#f5f5f5" stroke="transparent" points="8.5,-861.2 8.5,-884.2 175.5,-884.2 175.5,-861.2 8.5,-861.2"/>
<polygon fill="none" stroke="#000000" points="8.5,-861.2 8.5,-884.2 175.5,-884.2 175.5,-861.2 8.5,-861.2"/>
<text text-anchor="start" x="13.5" y="-869.8" font-family="Helvetica,sans-Serif" font-weight="bold" font-size="11.00" fill="#000000">users</text>
<text text-anchor="start" x="140.5437" y="-869.3" font-family="Helvetica,sans-Serif" font-size="11.00" fill="#000000">[table]</text>
<polygon fill="none" stroke="#000000" points="8.5,-839.2 8.5,-861.2 175.5,-861.2 175.5,-839.2 8.5,-839.2"/>
<image xlink:href="../../images/primaryKeys.png" width="11px" height="12px" preserveAspectRatio="xMinYMin meet" x="13.5" y="-856.2"/>
<text text-anchor="start" x="28.5" y="-846.3" font-family="Helvetica,sans-Serif" font-size="11.00" fill="#000000">id</text>
<polygon fill="#ffffff" stroke="transparent" points="8.5,-817.2 8.5,-839.2 175.5,-839.2 175.5,-817.2 8.5,-817.2"/>
<polygon fill="none" stroke="#000000" points="8.5,-817.2 8.5,-839.2 175.5,-839.2 175.5,-817.2 8.5,-817.2"/>
<text text-anchor="start" x="28.5" y="-824.3" font-family="Helvetica,sans-Serif" font-size="11.00" fill="#000000">uuid</text>
<polygon fill="none" stroke="#000000" points="8.5,-795.2 8.5,-817.2 175.5,-817.2 175.5,-795.2 8.5,-795.2"/>
<image xlink:href="../../images/primaryKeys.png" width="11px" height="12px" preserveAspectRatio="xMinYMin meet" x="13.5" y="-812.2"/>
<text text-anchor="start" x="28.5" y="-802.3" font-family="Helvetica,sans-Serif" font-size="11.00" fill="#000000">username</text>
<polygon fill="#ffffff" stroke="transparent" points="8.5,-773.2 8.5,-795.2 175.5,-795.2 175.5,-773.2 8.5,-773.2"/>
<polygon fill="none" stroke="#000000" points="8.5,-773.2 8.5,-795.2 175.5,-795.2 175.5,-773.2 8.5,-773.2"/>
<text text-anchor="start" x="28.5" y="-780.3" font-family="Helvetica,sans-Serif" font-size="11.00" fill="#000000">google_signin_email</text>
<polygon fill="#ffffff" stroke="transparent" points="8.5,-751.2 8.5,-773.2 175.5,-773.2 175.5,-751.2 8.5,-751.2"/>
<polygon fill="none" stroke="#000000" points="8.5,-751.2 8.5,-773.2 175.5,-773.2 175.5,-751.2 8.5,-751.2"/>
<text text-anchor="start" x="28.5" y="-758.3" font-family="Helvetica,sans-Serif" font-size="11.00" fill="#000000">abook_type</text>
<polygon fill="none" stroke="#000000" points="8.5,-732.2 8.5,-751.2 175.5,-751.2 175.5,-732.2 8.5,-732.2"/>
<text text-anchor="start" x="11.5" y="-738.3" font-family="Helvetica,sans-Serif" font-size="11.00" fill="#000000">...</text>
<polygon fill="#ffffff" stroke="transparent" points="8.5,-713.2 8.5,-732.2 78.5,-732.2 78.5,-713.2 8.5,-713.2"/>
<polygon fill="none" stroke="#000000" points="8.5,-713.2 8.5,-732.2 78.5,-732.2 78.5,-713.2 8.5,-713.2"/>
<text text-anchor="start" x="11.5" y="-719.3" font-family="Helvetica,sans-Serif" font-size="11.00" fill="#000000"> &#160;</text>
<polygon fill="#ffffff" stroke="transparent" points="78.5,-713.2 78.5,-732.2 119.5,-732.2 119.5,-713.2 78.5,-713.2"/>
<polygon fill="none" stroke="#000000" points="78.5,-713.2 78.5,-732.2 119.5,-732.2 119.5,-713.2 78.5,-713.2"/>
<text text-anchor="start" x="110.3862" y="-719.3" font-family="Helvetica,sans-Serif" font-size="11.00" fill="#000000"> &#160;</text>
<polygon fill="#ffffff" stroke="transparent" points="119.5,-713.2 119.5,-732.2 175.5,-732.2 175.5,-713.2 119.5,-713.2"/>
<polygon fill="none" stroke="#000000" points="119.5,-713.2 119.5,-732.2 175.5,-732.2 175.5,-713.2 119.5,-713.2"/>
<text text-anchor="start" x="150.7904" y="-719.3" font-family="Helvetica,sans-Serif" font-size="11.00" fill="#000000">38 &gt;</text>
</a>
</g>
</g>
<!-- billing&#45;&gt;users -->
<g id="edge6" class="edge">
<title>billing:w&#45;&gt;users:e</title>
<path fill="none" stroke="#000000" d="M684.4498,-578.1508C636.2492,-593.5927 710.0082,-696.6518 656,-741.2 580.4184,-803.5428 297.6645,-715.0694 216,-769.2 182.4515,-791.4373 215.7492,-850.2 175.5,-850.2"/>
<polygon fill="#000000" stroke="#000000" points="691.0709,-577.2631 699.4784,-579.7681 695.0355,-576.7316 699,-576.2 699,-576.2 699,-576.2 695.0355,-576.7316 698.5216,-572.6319 691.0709,-577.2631 691.0709,-577.2631"/>
<ellipse fill="none" stroke="#000000" cx="687.8993" cy="-577.6884" rx="3.2" ry="3.2"/>
</g>
<!-- x12_partners -->
<g id="node7" class="node">
<title>x12_partners</title>
<g id="a_node7"><a xlink:href="../../tables/x12_partners.html" xlink:title="x12_partners" target="_top">
<polygon fill="#ffffff" stroke="transparent" points="443,-153.7 443,-236.7 645,-236.7 645,-153.7 443,-153.7"/>
<polygon fill="#f5f5f5" stroke="transparent" points="443,-213.2 443,-236.2 645,-236.2 645,-213.2 443,-213.2"/>
<polygon fill="none" stroke="#000000" points="443,-213.2 443,-236.2 645,-236.2 645,-213.2 443,-213.2"/>
<text text-anchor="start" x="448" y="-221.8" font-family="Helvetica,sans-Serif" font-weight="bold" font-size="11.00" fill="#000000">x12_partners</text>
<text text-anchor="start" x="610.0437" y="-221.3" font-family="Helvetica,sans-Serif" font-size="11.00" fill="#000000">[table]</text>
<polygon fill="none" stroke="#000000" points="443,-191.2 443,-213.2 645,-213.2 645,-191.2 443,-191.2"/>
<image xlink:href="../../images/primaryKeys.png" width="11px" height="12px" preserveAspectRatio="xMinYMin meet" x="448" y="-208.2"/>
<text text-anchor="start" x="463" y="-198.3" font-family="Helvetica,sans-Serif" font-size="11.00" fill="#000000">id</text>
<polygon fill="none" stroke="#000000" points="443,-172.2 443,-191.2 645,-191.2 645,-172.2 443,-172.2"/>
<text text-anchor="start" x="446" y="-178.3" font-family="Helvetica,sans-Serif" font-size="11.00" fill="#000000">...</text>
<polygon fill="#ffffff" stroke="transparent" points="443,-153.2 443,-172.2 533,-172.2 533,-153.2 443,-153.2"/>
<polygon fill="none" stroke="#000000" points="443,-153.2 443,-172.2 533,-172.2 533,-153.2 443,-153.2"/>
<text text-anchor="start" x="446" y="-159.3" font-family="Helvetica,sans-Serif" font-size="11.00" fill="#000000"> &#160;</text>
<polygon fill="#ffffff" stroke="transparent" points="533,-153.2 533,-172.2 584,-172.2 584,-153.2 533,-153.2"/>
<polygon fill="none" stroke="#000000" points="533,-153.2 533,-172.2 584,-172.2 584,-153.2 533,-153.2"/>
<text text-anchor="start" x="574.8862" y="-159.3" font-family="Helvetica,sans-Serif" font-size="11.00" fill="#000000"> &#160;</text>
<polygon fill="#ffffff" stroke="transparent" points="584,-153.2 584,-172.2 645,-172.2 645,-153.2 584,-153.2"/>
<polygon fill="none" stroke="#000000" points="584,-153.2 584,-172.2 645,-172.2 645,-153.2 584,-153.2"/>
<text text-anchor="start" x="626.4053" y="-159.3" font-family="Helvetica,sans-Serif" font-size="11.00" fill="#000000">1 &gt;</text>
</a>
</g>
</g>
<!-- billing&#45;&gt;x12_partners -->
<g id="edge7" class="edge">
<title>billing:w&#45;&gt;x12_partners:e</title>
<path fill="none" stroke="#000000" d="M684.2185,-202.2C671.038,-202.2 663.1875,-202.2 645,-202.2"/>
<polygon fill="#000000" stroke="#000000" points="691,-202.2001 699,-205.8 695,-202.2 699,-202.2 699,-202.2 699,-202.2 695,-202.2 699,-198.6 691,-202.2001 691,-202.2001"/>
<ellipse fill="none" stroke="#000000" cx="687.8" cy="-202.2001" rx="3.2" ry="3.2"/>
</g>
<!-- form_encounter&#45;&gt;patient_data -->
<g id="edge8" class="edge">
<title>form_encounter:w&#45;&gt;patient_data:e</title>
<path fill="none" stroke="#000000" d="M426.083,-508.8529C372.1064,-551.4522 468.5074,-872.2 391.5,-872.2"/>
<polygon fill="#000000" stroke="#000000" points="432.4128,-506.7367 441.1415,-507.6142 436.2064,-505.4683 440,-504.2 440,-504.2 440,-504.2 436.2064,-505.4683 438.8585,-500.7858 432.4128,-506.7367 432.4128,-506.7367"/>
<ellipse fill="none" stroke="#000000" cx="429.3779" cy="-507.7513" rx="3.2" ry="3.2"/>
</g>
<!-- patient_data&#45;&gt;users -->
<g id="edge9" class="edge">
<title>patient_data:w&#45;&gt;users:e</title>
<path fill="none" stroke="#000000" d="M209.9909,-850.2C198.6774,-850.2 191.4931,-850.2 175.5,-850.2"/>
<polygon fill="#000000" stroke="#000000" points="216.5,-850.2001 224.5,-853.8 220.5,-850.2 224.5,-850.2 224.5,-850.2 224.5,-850.2 220.5,-850.2 224.5,-846.6 216.5,-850.2001 216.5,-850.2001"/>
<ellipse fill="none" stroke="#000000" cx="213.3" cy="-850.2001" rx="3.2" ry="3.2"/>
</g>
<!-- patient_data&#45;&gt;users -->
<g id="edge10" class="edge">
<title>patient_data:w&#45;&gt;users:e</title>
<path fill="none" stroke="#000000" d="M210.8768,-911.4534C194.2322,-896.3202 206.0399,-850.2 175.5,-850.2"/>
<polygon fill="#000000" stroke="#000000" points="216.9454,-913.5678 223.3155,-919.5996 220.7227,-914.8839 224.5,-916.2 224.5,-916.2 224.5,-916.2 220.7227,-914.8839 225.6845,-912.8004 216.9454,-913.5678 216.9454,-913.5678"/>
<ellipse fill="none" stroke="#000000" cx="213.9236" cy="-912.5149" rx="3.2" ry="3.2"/>
</g>
<!-- patient_data&#45;&gt;users -->
<g id="edge11" class="edge">
<title>patient_data:w&#45;&gt;users:e</title>
<path fill="none" stroke="#000000" d="M210.8171,-889.4912C197.5046,-878.1404 198.824,-850.2 175.5,-850.2"/>
<polygon fill="#000000" stroke="#000000" points="216.9354,-891.5967 223.3285,-897.6041 220.7177,-892.8984 224.5,-894.2 224.5,-894.2 224.5,-894.2 220.7177,-892.8984 225.6715,-890.7959 216.9354,-891.5967 216.9354,-891.5967"/>
<ellipse fill="none" stroke="#000000" cx="213.9096" cy="-890.5554" rx="3.2" ry="3.2"/>
</g>
<!-- patient_data&#45;&gt;users -->
<g id="edge12" class="edge">
<title>patient_data:w&#45;&gt;users:e</title>
<path fill="none" stroke="#000000" d="M210.1297,-831.6375C198.5865,-837.825 193.4041,-850.2 175.5,-850.2"/>
<polygon fill="#000000" stroke="#000000" points="216.7195,-830.0612 225.3375,-831.7012 220.6098,-829.1306 224.5,-828.2 224.5,-828.2 224.5,-828.2 220.6098,-829.1306 223.6625,-824.6988 216.7195,-830.0612 216.7195,-830.0612"/>
<ellipse fill="none" stroke="#000000" cx="213.6073" cy="-830.8057" rx="3.2" ry="3.2"/>
</g>
</g>
</svg>
