<?xml version="1.0" encoding="UTF-8" standalone="no"?>
<!DOCTYPE svg PUBLIC "-//W3C//DTD SVG 1.1//EN"
 "http://www.w3.org/Graphics/SVG/1.1/DTD/svg11.dtd">
<!-- Generated by graphviz version 2.40.1 (20161225.0304)
 -->
<!-- Title: oneDegreeRelationshipsDiagram Pages: 1 -->
<svg width="731pt" height="574pt"
 viewBox="0.00 0.00 731.00 574.06" xmlns="http://www.w3.org/2000/svg" xmlns:xlink="http://www.w3.org/1999/xlink">
<g id="graph0" class="graph" transform="scale(1 1) rotate(0) translate(4 570.058)">
<title>oneDegreeRelationshipsDiagram</title>
<polygon fill="#ffffff" stroke="transparent" points="-4,4 -4,-570.058 727,-570.058 727,4 -4,4"/>
<text text-anchor="middle" x="72.4936" y="-7.3" font-family="Helvetica,sans-Serif" font-size="11.00" fill="#000000">Generated by SchemaSpy</text>
<!-- care_team -->
<g id="node1" class="node">
<title>care_team</title>
<g id="a_node1"><a xlink:href="../../tables/care_team.html" xlink:title="care_team" target="_top">
<polygon fill="#ffffff" stroke="transparent" points="550,-324.7 550,-458.7 715,-458.7 715,-324.7 550,-324.7"/>
<polygon fill="#f5f5f5" stroke="transparent" points="552.5,-433.7 552.5,-456.7 713.5,-456.7 713.5,-433.7 552.5,-433.7"/>
<polygon fill="none" stroke="#000000" points="552.5,-433.7 552.5,-456.7 713.5,-456.7 713.5,-433.7 552.5,-433.7"/>
<text text-anchor="start" x="557.5" y="-442.3" font-family="Helvetica,sans-Serif" font-weight="bold" font-size="11.00" fill="#000000">care_team</text>
<text text-anchor="start" x="678.5437" y="-441.8" font-family="Helvetica,sans-Serif" font-size="11.00" fill="#000000">[table]</text>
<polygon fill="none" stroke="#000000" points="552.5,-411.7 552.5,-433.7 651.5,-433.7 651.5,-411.7 552.5,-411.7"/>
<image xlink:href="../../images/foreignKeys.png" width="11px" height="12px" preserveAspectRatio="xMinYMin meet" x="557.5" y="-428.7"/>
<text text-anchor="start" x="572.5" y="-418.8" font-family="Helvetica,sans-Serif" font-size="11.00" fill="#000000">created_by</text>
<polygon fill="none" stroke="#000000" points="651.5,-411.7 651.5,-433.7 713.5,-433.7 713.5,-411.7 651.5,-411.7"/>
<text text-anchor="start" x="654.378" y="-419.4" font-family="Helvetica,sans-Serif" font-size="11.00" fill="#000000">unknown[0]</text>
<polygon fill="none" stroke="#000000" points="552.5,-389.7 552.5,-411.7 651.5,-411.7 651.5,-389.7 552.5,-389.7"/>
<image xlink:href="../../images/foreignKeys.png" width="11px" height="12px" preserveAspectRatio="xMinYMin meet" x="557.5" y="-406.7"/>
<text text-anchor="start" x="572.5" y="-396.8" font-family="Helvetica,sans-Serif" font-size="11.00" fill="#000000">pid</text>
<polygon fill="none" stroke="#000000" points="651.5,-389.7 651.5,-411.7 713.5,-411.7 713.5,-389.7 651.5,-389.7"/>
<text text-anchor="start" x="654.378" y="-397.4" font-family="Helvetica,sans-Serif" font-size="11.00" fill="#000000">unknown[0]</text>
<polygon fill="none" stroke="#000000" points="552.5,-367.7 552.5,-389.7 651.5,-389.7 651.5,-367.7 552.5,-367.7"/>
<image xlink:href="../../images/foreignKeys.png" width="11px" height="12px" preserveAspectRatio="xMinYMin meet" x="557.5" y="-384.7"/>
<text text-anchor="start" x="572.5" y="-374.8" font-family="Helvetica,sans-Serif" font-size="11.00" fill="#000000">status</text>
<polygon fill="none" stroke="#000000" points="651.5,-367.7 651.5,-389.7 713.5,-389.7 713.5,-367.7 651.5,-367.7"/>
<text text-anchor="start" x="654.378" y="-375.4" font-family="Helvetica,sans-Serif" font-size="11.00" fill="#000000">unknown[0]</text>
<polygon fill="none" stroke="#000000" points="552.5,-345.7 552.5,-367.7 651.5,-367.7 651.5,-345.7 552.5,-345.7"/>
<image xlink:href="../../images/foreignKeys.png" width="11px" height="12px" preserveAspectRatio="xMinYMin meet" x="557.5" y="-362.7"/>
<text text-anchor="start" x="572.5" y="-352.8" font-family="Helvetica,sans-Serif" font-size="11.00" fill="#000000">updated_by</text>
<polygon fill="none" stroke="#000000" points="651.5,-345.7 651.5,-367.7 713.5,-367.7 713.5,-345.7 651.5,-345.7"/>
<text text-anchor="start" x="654.378" y="-353.4" font-family="Helvetica,sans-Serif" font-size="11.00" fill="#000000">unknown[0]</text>
<polygon fill="#ffffff" stroke="transparent" points="552.5,-326.7 552.5,-345.7 606.5,-345.7 606.5,-326.7 552.5,-326.7"/>
<polygon fill="none" stroke="#000000" points="552.5,-326.7 552.5,-345.7 606.5,-345.7 606.5,-326.7 552.5,-326.7"/>
<text text-anchor="start" x="555.5" y="-332.8" font-family="Helvetica,sans-Serif" font-size="11.00" fill="#000000">&lt; 4</text>
<polygon fill="#ffffff" stroke="transparent" points="606.5,-326.7 606.5,-345.7 651.5,-345.7 651.5,-326.7 606.5,-326.7"/>
<polygon fill="none" stroke="#000000" points="606.5,-326.7 606.5,-345.7 651.5,-345.7 651.5,-326.7 606.5,-326.7"/>
<text text-anchor="start" x="642.3862" y="-332.8" font-family="Helvetica,sans-Serif" font-size="11.00" fill="#000000"> &#160;</text>
<polygon fill="#ffffff" stroke="transparent" points="651.5,-326.7 651.5,-345.7 713.5,-345.7 713.5,-326.7 651.5,-326.7"/>
<polygon fill="none" stroke="#000000" points="651.5,-326.7 651.5,-345.7 713.5,-345.7 713.5,-326.7 651.5,-326.7"/>
<text text-anchor="start" x="694.9053" y="-332.8" font-family="Helvetica,sans-Serif" font-size="11.00" fill="#000000">0 &gt;</text>
<polygon fill="none" stroke="#000000" stroke-width="2" points="551,-325.7 551,-457.7 714,-457.7 714,-325.7 551,-325.7"/>
</a>
</g>
</g>
<!-- users -->
<g id="node2" class="node">
<title>users</title>
<g id="a_node2"><a xlink:href="../../tables/users.html" xlink:title="users" target="_top">
<polygon fill="#ffffff" stroke="transparent" points="8,-164.2 8,-379.2 175,-379.2 175,-164.2 8,-164.2"/>
<polygon fill="#f5f5f5" stroke="transparent" points="8.5,-355.7 8.5,-378.7 175.5,-378.7 175.5,-355.7 8.5,-355.7"/>
<polygon fill="none" stroke="#000000" points="8.5,-355.7 8.5,-378.7 175.5,-378.7 175.5,-355.7 8.5,-355.7"/>
<text text-anchor="start" x="13.5" y="-364.3" font-family="Helvetica,sans-Serif" font-weight="bold" font-size="11.00" fill="#000000">users</text>
<text text-anchor="start" x="140.5437" y="-363.8" font-family="Helvetica,sans-Serif" font-size="11.00" fill="#000000">[table]</text>
<polygon fill="none" stroke="#000000" points="8.5,-333.7 8.5,-355.7 175.5,-355.7 175.5,-333.7 8.5,-333.7"/>
<image xlink:href="../../images/primaryKeys.png" width="11px" height="12px" preserveAspectRatio="xMinYMin meet" x="13.5" y="-350.7"/>
<text text-anchor="start" x="28.5" y="-340.8" font-family="Helvetica,sans-Serif" font-size="11.00" fill="#000000">id</text>
<polygon fill="#ffffff" stroke="transparent" points="8.5,-311.7 8.5,-333.7 175.5,-333.7 175.5,-311.7 8.5,-311.7"/>
<polygon fill="none" stroke="#000000" points="8.5,-311.7 8.5,-333.7 175.5,-333.7 175.5,-311.7 8.5,-311.7"/>
<text text-anchor="start" x="28.5" y="-318.8" font-family="Helvetica,sans-Serif" font-size="11.00" fill="#000000">uuid</text>
<polygon fill="none" stroke="#000000" points="8.5,-289.7 8.5,-311.7 175.5,-311.7 175.5,-289.7 8.5,-289.7"/>
<image xlink:href="../../images/primaryKeys.png" width="11px" height="12px" preserveAspectRatio="xMinYMin meet" x="13.5" y="-306.7"/>
<text text-anchor="start" x="28.5" y="-296.8" font-family="Helvetica,sans-Serif" font-size="11.00" fill="#000000">username</text>
<polygon fill="none" stroke="#000000" points="8.5,-267.7 8.5,-289.7 175.5,-289.7 175.5,-267.7 8.5,-267.7"/>
<image xlink:href="../../images/foreignKeys.png" width="11px" height="12px" preserveAspectRatio="xMinYMin meet" x="13.5" y="-284.7"/>
<text text-anchor="start" x="28.5" y="-274.8" font-family="Helvetica,sans-Serif" font-size="11.00" fill="#000000">facility_id</text>
<polygon fill="#ffffff" stroke="transparent" points="8.5,-245.7 8.5,-267.7 175.5,-267.7 175.5,-245.7 8.5,-245.7"/>
<polygon fill="none" stroke="#000000" points="8.5,-245.7 8.5,-267.7 175.5,-267.7 175.5,-245.7 8.5,-245.7"/>
<text text-anchor="start" x="28.5" y="-252.8" font-family="Helvetica,sans-Serif" font-size="11.00" fill="#000000">google_signin_email</text>
<polygon fill="#ffffff" stroke="transparent" points="8.5,-223.7 8.5,-245.7 175.5,-245.7 175.5,-223.7 8.5,-223.7"/>
<polygon fill="none" stroke="#000000" points="8.5,-223.7 8.5,-245.7 175.5,-245.7 175.5,-223.7 8.5,-223.7"/>
<text text-anchor="start" x="28.5" y="-230.8" font-family="Helvetica,sans-Serif" font-size="11.00" fill="#000000">abook_type</text>
<polygon fill="none" stroke="#000000" points="8.5,-201.7 8.5,-223.7 175.5,-223.7 175.5,-201.7 8.5,-201.7"/>
<image xlink:href="../../images/foreignKeys.png" width="11px" height="12px" preserveAspectRatio="xMinYMin meet" x="13.5" y="-218.7"/>
<text text-anchor="start" x="28.5" y="-208.8" font-family="Helvetica,sans-Serif" font-size="11.00" fill="#000000">billing_facility_id</text>
<polygon fill="none" stroke="#000000" points="8.5,-182.7 8.5,-201.7 175.5,-201.7 175.5,-182.7 8.5,-182.7"/>
<text text-anchor="start" x="11.5" y="-188.8" font-family="Helvetica,sans-Serif" font-size="11.00" fill="#000000">...</text>
<polygon fill="#ffffff" stroke="transparent" points="8.5,-163.7 8.5,-182.7 82.5,-182.7 82.5,-163.7 8.5,-163.7"/>
<polygon fill="none" stroke="#000000" points="8.5,-163.7 8.5,-182.7 82.5,-182.7 82.5,-163.7 8.5,-163.7"/>
<text text-anchor="start" x="11.5" y="-169.8" font-family="Helvetica,sans-Serif" font-size="11.00" fill="#000000">&lt; 2</text>
<polygon fill="#ffffff" stroke="transparent" points="82.5,-163.7 82.5,-182.7 121.5,-182.7 121.5,-163.7 82.5,-163.7"/>
<polygon fill="none" stroke="#000000" points="82.5,-163.7 82.5,-182.7 121.5,-182.7 121.5,-163.7 82.5,-163.7"/>
<text text-anchor="start" x="112.3862" y="-169.8" font-family="Helvetica,sans-Serif" font-size="11.00" fill="#000000"> &#160;</text>
<polygon fill="#ffffff" stroke="transparent" points="121.5,-163.7 121.5,-182.7 175.5,-182.7 175.5,-163.7 121.5,-163.7"/>
<polygon fill="none" stroke="#000000" points="121.5,-163.7 121.5,-182.7 175.5,-182.7 175.5,-163.7 121.5,-163.7"/>
<text text-anchor="start" x="150.7904" y="-169.8" font-family="Helvetica,sans-Serif" font-size="11.00" fill="#000000">90 &gt;</text>
</a>
</g>
</g>
<!-- care_team&#45;&gt;users -->
<g id="edge1" class="edge">
<title>care_team:w&#45;&gt;users:e</title>
<path fill="none" stroke="#000000" d="M538.3656,-425.5098C509.19,-440.2808 548.7768,-509.3037 509,-536.7 455.377,-573.6328 266.5691,-577.7149 216,-536.7 148.2668,-481.7638 262.7111,-344.7 175.5,-344.7"/>
<polygon fill="#000000" stroke="#000000" points="544.6535,-424.2598 553.2019,-426.2309 548.5768,-423.4799 552.5,-422.7 552.5,-422.7 552.5,-422.7 548.5768,-423.4799 551.7981,-419.1691 544.6535,-424.2598 544.6535,-424.2598"/>
<ellipse fill="none" stroke="#000000" cx="541.5149" cy="-424.8838" rx="3.2" ry="3.2"/>
</g>
<!-- care_team&#45;&gt;users -->
<g id="edge4" class="edge">
<title>care_team:w&#45;&gt;users:e</title>
<path fill="none" stroke="#000000" d="M538.0891,-358.7705C493.3458,-374.271 561.7352,-472.658 509,-512.7 483.0718,-532.3874 241.5759,-532.8429 216,-512.7 155.6609,-465.1784 252.3057,-344.7 175.5,-344.7"/>
<polygon fill="#000000" stroke="#000000" points="544.5813,-357.8378 553.012,-360.2634 548.5407,-357.2689 552.5,-356.7 552.5,-356.7 552.5,-356.7 548.5407,-357.2689 551.988,-353.1366 544.5813,-357.8378 544.5813,-357.8378"/>
<ellipse fill="none" stroke="#000000" cx="541.4138" cy="-358.2929" rx="3.2" ry="3.2"/>
</g>
<!-- patient_data -->
<g id="node3" class="node">
<title>patient_data</title>
<g id="a_node3"><a xlink:href="../../tables/patient_data.html" xlink:title="patient_data" target="_top">
<polygon fill="#ffffff" stroke="transparent" points="224,-111.2 224,-502.2 501,-502.2 501,-111.2 224,-111.2"/>
<polygon fill="#f5f5f5" stroke="transparent" points="224.5,-478.7 224.5,-501.7 501.5,-501.7 501.5,-478.7 224.5,-478.7"/>
<polygon fill="none" stroke="#000000" points="224.5,-478.7 224.5,-501.7 501.5,-501.7 501.5,-478.7 224.5,-478.7"/>
<text text-anchor="start" x="229.5" y="-487.3" font-family="Helvetica,sans-Serif" font-weight="bold" font-size="11.00" fill="#000000">patient_data</text>
<text text-anchor="start" x="466.5437" y="-486.8" font-family="Helvetica,sans-Serif" font-size="11.00" fill="#000000">[table]</text>
<polygon fill="none" stroke="#000000" points="224.5,-456.7 224.5,-478.7 501.5,-478.7 501.5,-456.7 224.5,-456.7"/>
<image xlink:href="../../images/primaryKeys.png" width="11px" height="12px" preserveAspectRatio="xMinYMin meet" x="229.5" y="-473.7"/>
<text text-anchor="start" x="244.5" y="-463.8" font-family="Helvetica,sans-Serif" font-size="11.00" fill="#000000">id</text>
<polygon fill="#ffffff" stroke="transparent" points="224.5,-434.7 224.5,-456.7 501.5,-456.7 501.5,-434.7 224.5,-434.7"/>
<polygon fill="none" stroke="#000000" points="224.5,-434.7 224.5,-456.7 501.5,-456.7 501.5,-434.7 224.5,-434.7"/>
<text text-anchor="start" x="244.5" y="-441.8" font-family="Helvetica,sans-Serif" font-size="11.00" fill="#000000">uuid</text>
<polygon fill="#ffffff" stroke="transparent" points="224.5,-412.7 224.5,-434.7 501.5,-434.7 501.5,-412.7 224.5,-412.7"/>
<polygon fill="none" stroke="#000000" points="224.5,-412.7 224.5,-434.7 501.5,-434.7 501.5,-412.7 224.5,-412.7"/>
<text text-anchor="start" x="244.5" y="-419.8" font-family="Helvetica,sans-Serif" font-size="11.00" fill="#000000">fname</text>
<polygon fill="#ffffff" stroke="transparent" points="224.5,-390.7 224.5,-412.7 501.5,-412.7 501.5,-390.7 224.5,-390.7"/>
<polygon fill="none" stroke="#000000" points="224.5,-390.7 224.5,-412.7 501.5,-412.7 501.5,-390.7 224.5,-390.7"/>
<text text-anchor="start" x="244.5" y="-397.8" font-family="Helvetica,sans-Serif" font-size="11.00" fill="#000000">lname</text>
<polygon fill="#ffffff" stroke="transparent" points="224.5,-368.7 224.5,-390.7 501.5,-390.7 501.5,-368.7 224.5,-368.7"/>
<polygon fill="none" stroke="#000000" points="224.5,-368.7 224.5,-390.7 501.5,-390.7 501.5,-368.7 224.5,-368.7"/>
<text text-anchor="start" x="244.5" y="-375.8" font-family="Helvetica,sans-Serif" font-size="11.00" fill="#000000">DOB</text>
<polygon fill="none" stroke="#000000" points="224.5,-346.7 224.5,-368.7 501.5,-368.7 501.5,-346.7 224.5,-346.7"/>
<image xlink:href="../../images/foreignKeys.png" width="11px" height="12px" preserveAspectRatio="xMinYMin meet" x="229.5" y="-363.7"/>
<text text-anchor="start" x="244.5" y="-353.8" font-family="Helvetica,sans-Serif" font-size="11.00" fill="#000000">pharmacy_id</text>
<polygon fill="none" stroke="#000000" points="224.5,-324.7 224.5,-346.7 501.5,-346.7 501.5,-324.7 224.5,-324.7"/>
<image xlink:href="../../images/foreignKeys.png" width="11px" height="12px" preserveAspectRatio="xMinYMin meet" x="229.5" y="-341.7"/>
<text text-anchor="start" x="244.5" y="-331.8" font-family="Helvetica,sans-Serif" font-size="11.00" fill="#000000">providerID</text>
<polygon fill="none" stroke="#000000" points="224.5,-302.7 224.5,-324.7 501.5,-324.7 501.5,-302.7 224.5,-302.7"/>
<image xlink:href="../../images/foreignKeys.png" width="11px" height="12px" preserveAspectRatio="xMinYMin meet" x="229.5" y="-319.7"/>
<text text-anchor="start" x="244.5" y="-309.8" font-family="Helvetica,sans-Serif" font-size="11.00" fill="#000000">ref_providerID</text>
<polygon fill="none" stroke="#000000" points="224.5,-280.7 224.5,-302.7 501.5,-302.7 501.5,-280.7 224.5,-280.7"/>
<image xlink:href="../../images/foreignKeys.png" width="11px" height="12px" preserveAspectRatio="xMinYMin meet" x="229.5" y="-297.7"/>
<text text-anchor="start" x="244.5" y="-287.8" font-family="Helvetica,sans-Serif" font-size="11.00" fill="#000000">interpreter_needed</text>
<polygon fill="none" stroke="#000000" points="224.5,-258.7 224.5,-280.7 501.5,-280.7 501.5,-258.7 224.5,-258.7"/>
<image xlink:href="../../images/primaryKeys.png" width="11px" height="12px" preserveAspectRatio="xMinYMin meet" x="229.5" y="-275.7"/>
<text text-anchor="start" x="244.5" y="-265.8" font-family="Helvetica,sans-Serif" font-size="11.00" fill="#000000">pid</text>
<polygon fill="none" stroke="#000000" points="224.5,-236.7 224.5,-258.7 501.5,-258.7 501.5,-236.7 224.5,-236.7"/>
<image xlink:href="../../images/foreignKeys.png" width="11px" height="12px" preserveAspectRatio="xMinYMin meet" x="229.5" y="-253.7"/>
<text text-anchor="start" x="244.5" y="-243.8" font-family="Helvetica,sans-Serif" font-size="11.00" fill="#000000">advance_directive_user_authenticator</text>
<polygon fill="none" stroke="#000000" points="224.5,-214.7 224.5,-236.7 501.5,-236.7 501.5,-214.7 224.5,-214.7"/>
<image xlink:href="../../images/foreignKeys.png" width="11px" height="12px" preserveAspectRatio="xMinYMin meet" x="229.5" y="-231.7"/>
<text text-anchor="start" x="244.5" y="-221.8" font-family="Helvetica,sans-Serif" font-size="11.00" fill="#000000">created_by</text>
<polygon fill="none" stroke="#000000" points="224.5,-192.7 224.5,-214.7 501.5,-214.7 501.5,-192.7 224.5,-192.7"/>
<image xlink:href="../../images/foreignKeys.png" width="11px" height="12px" preserveAspectRatio="xMinYMin meet" x="229.5" y="-209.7"/>
<text text-anchor="start" x="244.5" y="-199.8" font-family="Helvetica,sans-Serif" font-size="11.00" fill="#000000">updated_by</text>
<polygon fill="none" stroke="#000000" points="224.5,-170.7 224.5,-192.7 501.5,-192.7 501.5,-170.7 224.5,-170.7"/>
<image xlink:href="../../images/foreignKeys.png" width="11px" height="12px" preserveAspectRatio="xMinYMin meet" x="229.5" y="-187.7"/>
<text text-anchor="start" x="244.5" y="-177.8" font-family="Helvetica,sans-Serif" font-size="11.00" fill="#000000">tribal_affiliations</text>
<polygon fill="none" stroke="#000000" points="224.5,-148.7 224.5,-170.7 501.5,-170.7 501.5,-148.7 224.5,-148.7"/>
<image xlink:href="../../images/foreignKeys.png" width="11px" height="12px" preserveAspectRatio="xMinYMin meet" x="229.5" y="-165.7"/>
<text text-anchor="start" x="244.5" y="-155.8" font-family="Helvetica,sans-Serif" font-size="11.00" fill="#000000">sex_identified</text>
<polygon fill="none" stroke="#000000" points="224.5,-129.7 224.5,-148.7 501.5,-148.7 501.5,-129.7 224.5,-129.7"/>
<text text-anchor="start" x="227.5" y="-135.8" font-family="Helvetica,sans-Serif" font-size="11.00" fill="#000000">...</text>
<polygon fill="#ffffff" stroke="transparent" points="224.5,-110.7 224.5,-129.7 353.5,-129.7 353.5,-110.7 224.5,-110.7"/>
<polygon fill="none" stroke="#000000" points="224.5,-110.7 224.5,-129.7 353.5,-129.7 353.5,-110.7 224.5,-110.7"/>
<text text-anchor="start" x="227.5" y="-116.8" font-family="Helvetica,sans-Serif" font-size="11.00" fill="#000000">&lt; 9</text>
<polygon fill="#ffffff" stroke="transparent" points="353.5,-110.7 353.5,-129.7 419.5,-129.7 419.5,-110.7 353.5,-110.7"/>
<polygon fill="none" stroke="#000000" points="353.5,-110.7 353.5,-129.7 419.5,-129.7 419.5,-110.7 353.5,-110.7"/>
<text text-anchor="start" x="410.3862" y="-116.8" font-family="Helvetica,sans-Serif" font-size="11.00" fill="#000000"> &#160;</text>
<polygon fill="#ffffff" stroke="transparent" points="419.5,-110.7 419.5,-129.7 501.5,-129.7 501.5,-110.7 419.5,-110.7"/>
<polygon fill="none" stroke="#000000" points="419.5,-110.7 419.5,-129.7 501.5,-129.7 501.5,-110.7 419.5,-110.7"/>
<text text-anchor="start" x="476.7904" y="-116.8" font-family="Helvetica,sans-Serif" font-size="11.00" fill="#000000">95 &gt;</text>
</a>
</g>
</g>
<!-- care_team&#45;&gt;patient_data -->
<g id="edge2" class="edge">
<title>care_team:w&#45;&gt;patient_data:e</title>
<path fill="none" stroke="#000000" d="M538.3004,-397.4618C502.6891,-377.2889 558.1214,-269.7 501.5,-269.7"/>
<polygon fill="#000000" stroke="#000000" points="544.7002,-398.9212 551.6995,-404.2099 548.6001,-399.8106 552.5,-400.7 552.5,-400.7 552.5,-400.7 548.6001,-399.8106 553.3005,-397.1901 544.7002,-398.9212 544.7002,-398.9212"/>
<ellipse fill="none" stroke="#000000" cx="541.5803" cy="-398.2097" rx="3.2" ry="3.2"/>
</g>
<!-- list_options -->
<g id="node4" class="node">
<title>list_options</title>
<g id="a_node4"><a xlink:href="../../tables/list_options.html" xlink:title="list_options" target="_top">
<polygon fill="#ffffff" stroke="transparent" points="25.5,-38.2 25.5,-143.2 157.5,-143.2 157.5,-38.2 25.5,-38.2"/>
<polygon fill="#f5f5f5" stroke="transparent" points="25.5,-119.7 25.5,-142.7 157.5,-142.7 157.5,-119.7 25.5,-119.7"/>
<polygon fill="none" stroke="#000000" points="25.5,-119.7 25.5,-142.7 157.5,-142.7 157.5,-119.7 25.5,-119.7"/>
<text text-anchor="start" x="30.5" y="-128.3" font-family="Helvetica,sans-Serif" font-weight="bold" font-size="11.00" fill="#000000">list_options</text>
<text text-anchor="start" x="122.5437" y="-127.8" font-family="Helvetica,sans-Serif" font-size="11.00" fill="#000000">[table]</text>
<polygon fill="none" stroke="#000000" points="25.5,-97.7 25.5,-119.7 157.5,-119.7 157.5,-97.7 25.5,-97.7"/>
<image xlink:href="../../images/primaryKeys.png" width="11px" height="12px" preserveAspectRatio="xMinYMin meet" x="30.5" y="-114.7"/>
<text text-anchor="start" x="45.5" y="-104.8" font-family="Helvetica,sans-Serif" font-size="11.00" fill="#000000">list_id</text>
<polygon fill="none" stroke="#000000" points="25.5,-75.7 25.5,-97.7 157.5,-97.7 157.5,-75.7 25.5,-75.7"/>
<image xlink:href="../../images/primaryKeys.png" width="11px" height="12px" preserveAspectRatio="xMinYMin meet" x="30.5" y="-92.7"/>
<text text-anchor="start" x="45.5" y="-82.8" font-family="Helvetica,sans-Serif" font-size="11.00" fill="#000000">option_id</text>
<polygon fill="none" stroke="#000000" points="25.5,-56.7 25.5,-75.7 157.5,-75.7 157.5,-56.7 25.5,-56.7"/>
<text text-anchor="start" x="28.5" y="-62.8" font-family="Helvetica,sans-Serif" font-size="11.00" fill="#000000">...</text>
<polygon fill="#ffffff" stroke="transparent" points="25.5,-37.7 25.5,-56.7 77.5,-56.7 77.5,-37.7 25.5,-37.7"/>
<polygon fill="none" stroke="#000000" points="25.5,-37.7 25.5,-56.7 77.5,-56.7 77.5,-37.7 25.5,-37.7"/>
<text text-anchor="start" x="28.5" y="-43.8" font-family="Helvetica,sans-Serif" font-size="11.00" fill="#000000"> &#160;</text>
<polygon fill="#ffffff" stroke="transparent" points="77.5,-37.7 77.5,-56.7 109.5,-56.7 109.5,-37.7 77.5,-37.7"/>
<polygon fill="none" stroke="#000000" points="77.5,-37.7 77.5,-56.7 109.5,-56.7 109.5,-37.7 77.5,-37.7"/>
<text text-anchor="start" x="100.3862" y="-43.8" font-family="Helvetica,sans-Serif" font-size="11.00" fill="#000000"> &#160;</text>
<polygon fill="#ffffff" stroke="transparent" points="109.5,-37.7 109.5,-56.7 157.5,-56.7 157.5,-37.7 109.5,-37.7"/>
<polygon fill="none" stroke="#000000" points="109.5,-37.7 109.5,-56.7 157.5,-56.7 157.5,-37.7 109.5,-37.7"/>
<text text-anchor="start" x="132.7904" y="-43.8" font-family="Helvetica,sans-Serif" font-size="11.00" fill="#000000">98 &gt;</text>
</a>
</g>
</g>
<!-- care_team&#45;&gt;list_options -->
<g id="edge3" class="edge">
<title>care_team:w&#45;&gt;list_options:e</title>
<path fill="none" stroke="#000000" d="M538.5775,-373.2879C500.8723,-337.7929 551.4965,-138.5547 509,-100.7 392.2548,3.2935 313.8461,-86.7 157.5,-86.7"/>
<polygon fill="#000000" stroke="#000000" points="545.0436,-375.8014 551.1956,-382.0554 548.7718,-377.2507 552.5,-378.7 552.5,-378.7 552.5,-378.7 548.7718,-377.2507 553.8044,-375.3446 545.0436,-375.8014 545.0436,-375.8014"/>
<ellipse fill="none" stroke="#000000" cx="542.061" cy="-374.642" rx="3.2" ry="3.2"/>
</g>
<!-- patient_data&#45;&gt;users -->
<g id="edge5" class="edge">
<title>patient_data:w&#45;&gt;users:e</title>
<path fill="none" stroke="#000000" d="M210.5083,-251.868C186.6018,-270.4344 217.762,-344.7 175.5,-344.7"/>
<polygon fill="#000000" stroke="#000000" points="216.8329,-249.984 225.5278,-251.1502 220.6665,-248.842 224.5,-247.7 224.5,-247.7 224.5,-247.7 220.6665,-248.842 223.4722,-244.2498 216.8329,-249.984 216.8329,-249.984"/>
<ellipse fill="none" stroke="#000000" cx="213.7661" cy="-250.8976" rx="3.2" ry="3.2"/>
</g>
<!-- patient_data&#45;&gt;users -->
<g id="edge6" class="edge">
<title>patient_data:w&#45;&gt;users:e</title>
<path fill="none" stroke="#000000" d="M210.2058,-229.3919C179.7333,-249.4778 226.6646,-344.7 175.5,-344.7"/>
<polygon fill="#000000" stroke="#000000" points="216.7542,-227.7006 225.4003,-229.1856 220.6271,-226.7003 224.5,-225.7 224.5,-225.7 224.5,-225.7 220.6271,-226.7003 223.5997,-222.2144 216.7542,-227.7006 216.7542,-227.7006"/>
<ellipse fill="none" stroke="#000000" cx="213.6559" cy="-228.5009" rx="3.2" ry="3.2"/>
</g>
<!-- patient_data&#45;&gt;users -->
<g id="edge8" class="edge">
<title>patient_data:w&#45;&gt;users:e</title>
<path fill="none" stroke="#000000" d="M209.8909,-337.2677C198.6231,-339.8462 191.7606,-344.7 175.5,-344.7"/>
<polygon fill="#000000" stroke="#000000" points="216.5457,-336.5536 224.8841,-339.2795 220.5228,-336.1268 224.5,-335.7 224.5,-335.7 224.5,-335.7 220.5228,-336.1268 224.1159,-332.1205 216.5457,-336.5536 216.5457,-336.5536"/>
<ellipse fill="none" stroke="#000000" cx="213.3639" cy="-336.8951" rx="3.2" ry="3.2"/>
</g>
<!-- patient_data&#45;&gt;users -->
<g id="edge9" class="edge">
<title>patient_data:w&#45;&gt;users:e</title>
<path fill="none" stroke="#000000" d="M210.3168,-318.0104C198.3655,-326.5284 195.2302,-344.7 175.5,-344.7"/>
<polygon fill="#000000" stroke="#000000" points="216.8457,-316.0263 225.5468,-317.1444 220.6728,-314.8631 224.5,-313.7 224.5,-313.7 224.5,-313.7 220.6728,-314.8631 223.4532,-310.2556 216.8457,-316.0263 216.8457,-316.0263"/>
<ellipse fill="none" stroke="#000000" cx="213.7839" cy="-316.9568" rx="3.2" ry="3.2"/>
</g>
<!-- patient_data&#45;&gt;users -->
<g id="edge12" class="edge">
<title>patient_data:w&#45;&gt;users:e</title>
<path fill="none" stroke="#000000" d="M210.034,-206.9099C171.9834,-227.8978 235.8824,-344.7 175.5,-344.7"/>
<polygon fill="#000000" stroke="#000000" points="216.69,-205.433 225.2799,-207.2145 220.595,-204.5665 224.5,-203.7 224.5,-203.7 224.5,-203.7 220.595,-204.5665 223.7201,-200.1855 216.69,-205.433 216.69,-205.433"/>
<ellipse fill="none" stroke="#000000" cx="213.5659" cy="-206.1262" rx="3.2" ry="3.2"/>
</g>
<!-- patient_data&#45;&gt;list_options -->
<g id="edge7" class="edge">
<title>patient_data:w&#45;&gt;list_options:e</title>
<path fill="none" stroke="#000000" d="M209.8337,-289.671C142.5031,-268.3804 247.7374,-86.7 157.5,-86.7"/>
<polygon fill="#000000" stroke="#000000" points="216.5755,-290.6037 224.0066,-295.266 220.5377,-291.1518 224.5,-291.7 224.5,-291.7 224.5,-291.7 220.5377,-291.1518 224.9934,-288.134 216.5755,-290.6037 216.5755,-290.6037"/>
<ellipse fill="none" stroke="#000000" cx="213.4057" cy="-290.1651" rx="3.2" ry="3.2"/>
</g>
<!-- patient_data&#45;&gt;list_options -->
<g id="edge10" class="edge">
<title>patient_data:w&#45;&gt;list_options:e</title>
<path fill="none" stroke="#000000" d="M210.4367,-156.3736C184.8136,-142.0927 195.8614,-86.7 157.5,-86.7"/>
<polygon fill="#000000" stroke="#000000" points="216.7148,-157.8586 223.6713,-163.2033 220.6074,-158.7793 224.5,-159.7 224.5,-159.7 224.5,-159.7 220.6074,-158.7793 225.3287,-156.1967 216.7148,-157.8586 216.7148,-157.8586"/>
<ellipse fill="none" stroke="#000000" cx="213.6007" cy="-157.122" rx="3.2" ry="3.2"/>
</g>
<!-- patient_data&#45;&gt;list_options -->
<g id="edge11" class="edge">
<title>patient_data:w&#45;&gt;list_options:e</title>
<path fill="none" stroke="#000000" d="M210.0734,-178.3189C179.9359,-161.3957 203.3137,-86.7 157.5,-86.7"/>
<polygon fill="#000000" stroke="#000000" points="216.7111,-179.8745 223.6785,-185.205 220.6055,-180.7872 224.5,-181.7 224.5,-181.7 224.5,-181.7 220.6055,-180.7872 225.3215,-178.195 216.7111,-179.8745 216.7111,-179.8745"/>
<ellipse fill="none" stroke="#000000" cx="213.5955" cy="-179.1443" rx="3.2" ry="3.2"/>
</g>
</g>
</svg>
