<?xml version="1.0" encoding="UTF-8" standalone="no"?>
<!DOCTYPE svg PUBLIC "-//W3C//DTD SVG 1.1//EN"
 "http://www.w3.org/Graphics/SVG/1.1/DTD/svg11.dtd">
<!-- Generated by graphviz version 2.40.1 (20161225.0304)
 -->
<!-- Title: oneDegreeRelationshipsDiagram Pages: 1 -->
<svg width="944pt" height="657pt"
 viewBox="0.00 0.00 944.00 657.20" xmlns="http://www.w3.org/2000/svg" xmlns:xlink="http://www.w3.org/1999/xlink">
<g id="graph0" class="graph" transform="scale(1 1) rotate(0) translate(4 653.1994)">
<title>oneDegreeRelationshipsDiagram</title>
<polygon fill="#ffffff" stroke="transparent" points="-4,4 -4,-653.1994 940,-653.1994 940,4 -4,4"/>
<text text-anchor="middle" x="72.4936" y="-7.3" font-family="Helvetica,sans-Serif" font-size="11.00" fill="#000000">Generated by SchemaSpy</text>
<!-- care_team_member -->
<g id="node1" class="node">
<title>care_team_member</title>
<g id="a_node1"><a xlink:href="../../tables/care_team_member.html" xlink:title="care_team_member" target="_top">
<polygon fill="#ffffff" stroke="transparent" points="719,-191.8887 719,-523.8887 928,-523.8887 928,-191.8887 719,-191.8887"/>
<polygon fill="#f5f5f5" stroke="transparent" points="721.5,-498.8887 721.5,-521.8887 926.5,-521.8887 926.5,-498.8887 721.5,-498.8887"/>
<polygon fill="none" stroke="#000000" points="721.5,-498.8887 721.5,-521.8887 926.5,-521.8887 926.5,-498.8887 721.5,-498.8887"/>
<text text-anchor="start" x="726.5" y="-507.4887" font-family="Helvetica,sans-Serif" font-weight="bold" font-size="11.00" fill="#000000">care_team_member</text>
<text text-anchor="start" x="891.5437" y="-506.9887" font-family="Helvetica,sans-Serif" font-size="11.00" fill="#000000">[table]</text>
<polygon fill="none" stroke="#000000" points="721.5,-476.8887 721.5,-498.8887 859.5,-498.8887 859.5,-476.8887 721.5,-476.8887"/>
<image xlink:href="../../images/primaryKeys.png" width="11px" height="12px" preserveAspectRatio="xMinYMin meet" x="726.5" y="-493.889"/>
<text text-anchor="start" x="741.5" y="-483.9887" font-family="Helvetica,sans-Serif" font-size="11.00" fill="#000000">id</text>
<polygon fill="none" stroke="#000000" points="859.5,-476.8887 859.5,-498.8887 926.5,-498.8887 926.5,-476.8887 859.5,-476.8887"/>
<text text-anchor="start" x="862.5" y="-484.5887" font-family="Helvetica,sans-Serif" font-size="11.00" fill="#000000">int[10]</text>
<polygon fill="#ffffff" stroke="transparent" points="721.5,-454.8887 721.5,-476.8887 859.5,-476.8887 859.5,-454.8887 721.5,-454.8887"/>
<polygon fill="none" stroke="#000000" points="721.5,-454.8887 721.5,-476.8887 859.5,-476.8887 859.5,-454.8887 721.5,-454.8887"/>
<image xlink:href="../../images/foreignKeys.png" width="11px" height="12px" preserveAspectRatio="xMinYMin meet" x="726.5" y="-471.889"/>
<text text-anchor="start" x="741.5" y="-461.9887" font-family="Helvetica,sans-Serif" font-size="11.00" fill="#000000">care_team_id</text>
<polygon fill="none" stroke="#000000" points="859.5,-454.8887 859.5,-476.8887 926.5,-476.8887 926.5,-454.8887 859.5,-454.8887"/>
<text text-anchor="start" x="862.5" y="-462.5887" font-family="Helvetica,sans-Serif" font-size="11.00" fill="#000000">int[10]</text>
<polygon fill="#ffffff" stroke="transparent" points="721.5,-432.8887 721.5,-454.8887 859.5,-454.8887 859.5,-432.8887 721.5,-432.8887"/>
<polygon fill="none" stroke="#000000" points="721.5,-432.8887 721.5,-454.8887 859.5,-454.8887 859.5,-432.8887 721.5,-432.8887"/>
<image xlink:href="../../images/foreignKeys.png" width="11px" height="12px" preserveAspectRatio="xMinYMin meet" x="726.5" y="-449.889"/>
<text text-anchor="start" x="741.5" y="-439.9887" font-family="Helvetica,sans-Serif" font-size="11.00" fill="#000000">user_id</text>
<polygon fill="none" stroke="#000000" points="859.5,-432.8887 859.5,-454.8887 926.5,-454.8887 926.5,-432.8887 859.5,-432.8887"/>
<text text-anchor="start" x="862.5" y="-440.5887" font-family="Helvetica,sans-Serif" font-size="11.00" fill="#000000">bigint[19]</text>
<polygon fill="#ffffff" stroke="transparent" points="721.5,-410.8887 721.5,-432.8887 859.5,-432.8887 859.5,-410.8887 721.5,-410.8887"/>
<polygon fill="none" stroke="#000000" points="721.5,-410.8887 721.5,-432.8887 859.5,-432.8887 859.5,-410.8887 721.5,-410.8887"/>
<image xlink:href="../../images/foreignKeys.png" width="11px" height="12px" preserveAspectRatio="xMinYMin meet" x="726.5" y="-427.889"/>
<text text-anchor="start" x="741.5" y="-417.9887" font-family="Helvetica,sans-Serif" font-size="11.00" fill="#000000">contact_id</text>
<polygon fill="none" stroke="#000000" points="859.5,-410.8887 859.5,-432.8887 926.5,-432.8887 926.5,-410.8887 859.5,-410.8887"/>
<text text-anchor="start" x="862.5" y="-418.5887" font-family="Helvetica,sans-Serif" font-size="11.00" fill="#000000">bigint[19]</text>
<polygon fill="none" stroke="#000000" points="721.5,-388.8887 721.5,-410.8887 859.5,-410.8887 859.5,-388.8887 721.5,-388.8887"/>
<image xlink:href="../../images/foreignKeys.png" width="11px" height="12px" preserveAspectRatio="xMinYMin meet" x="726.5" y="-405.889"/>
<text text-anchor="start" x="741.5" y="-395.9887" font-family="Helvetica,sans-Serif" font-size="11.00" fill="#000000">role</text>
<polygon fill="none" stroke="#000000" points="859.5,-388.8887 859.5,-410.8887 926.5,-410.8887 926.5,-388.8887 859.5,-388.8887"/>
<text text-anchor="start" x="862.5" y="-396.5887" font-family="Helvetica,sans-Serif" font-size="11.00" fill="#000000">varchar[50]</text>
<polygon fill="#ffffff" stroke="transparent" points="721.5,-366.8887 721.5,-388.8887 859.5,-388.8887 859.5,-366.8887 721.5,-366.8887"/>
<polygon fill="none" stroke="#000000" points="721.5,-366.8887 721.5,-388.8887 859.5,-388.8887 859.5,-366.8887 721.5,-366.8887"/>
<image xlink:href="../../images/foreignKeys.png" width="11px" height="12px" preserveAspectRatio="xMinYMin meet" x="726.5" y="-383.889"/>
<text text-anchor="start" x="741.5" y="-373.9887" font-family="Helvetica,sans-Serif" font-size="11.00" fill="#000000">facility_id</text>
<polygon fill="none" stroke="#000000" points="859.5,-366.8887 859.5,-388.8887 926.5,-388.8887 926.5,-366.8887 859.5,-366.8887"/>
<text text-anchor="start" x="862.5" y="-374.5887" font-family="Helvetica,sans-Serif" font-size="11.00" fill="#000000">bigint[19]</text>
<polygon fill="none" stroke="#000000" points="721.5,-344.8887 721.5,-366.8887 859.5,-366.8887 859.5,-344.8887 721.5,-344.8887"/>
<text text-anchor="start" x="741.5" y="-351.9887" font-family="Helvetica,sans-Serif" font-size="11.00" fill="#000000">provider_since</text>
<polygon fill="none" stroke="#000000" points="859.5,-344.8887 859.5,-366.8887 926.5,-366.8887 926.5,-344.8887 859.5,-344.8887"/>
<text text-anchor="start" x="862.5" y="-352.5887" font-family="Helvetica,sans-Serif" font-size="11.00" fill="#000000">date[10]</text>
<polygon fill="none" stroke="#000000" points="721.5,-322.8887 721.5,-344.8887 859.5,-344.8887 859.5,-322.8887 721.5,-322.8887"/>
<image xlink:href="../../images/foreignKeys.png" width="11px" height="12px" preserveAspectRatio="xMinYMin meet" x="726.5" y="-339.889"/>
<text text-anchor="start" x="741.5" y="-329.9887" font-family="Helvetica,sans-Serif" font-size="11.00" fill="#000000">status</text>
<polygon fill="none" stroke="#000000" points="859.5,-322.8887 859.5,-344.8887 926.5,-344.8887 926.5,-322.8887 859.5,-322.8887"/>
<text text-anchor="start" x="862.4365" y="-330.5887" font-family="Helvetica,sans-Serif" font-size="11.00" fill="#000000">varchar[100]</text>
<polygon fill="none" stroke="#000000" points="721.5,-300.8887 721.5,-322.8887 859.5,-322.8887 859.5,-300.8887 721.5,-300.8887"/>
<text text-anchor="start" x="741.5" y="-307.9887" font-family="Helvetica,sans-Serif" font-size="11.00" fill="#000000">date_created</text>
<polygon fill="none" stroke="#000000" points="859.5,-300.8887 859.5,-322.8887 926.5,-322.8887 926.5,-300.8887 859.5,-300.8887"/>
<text text-anchor="start" x="862.5" y="-308.5887" font-family="Helvetica,sans-Serif" font-size="11.00" fill="#000000">datetime[19]</text>
<polygon fill="none" stroke="#000000" points="721.5,-278.8887 721.5,-300.8887 859.5,-300.8887 859.5,-278.8887 721.5,-278.8887"/>
<text text-anchor="start" x="741.5" y="-285.9887" font-family="Helvetica,sans-Serif" font-size="11.00" fill="#000000">date_updated</text>
<polygon fill="none" stroke="#000000" points="859.5,-278.8887 859.5,-300.8887 926.5,-300.8887 926.5,-278.8887 859.5,-278.8887"/>
<text text-anchor="start" x="862.5" y="-286.5887" font-family="Helvetica,sans-Serif" font-size="11.00" fill="#000000">datetime[19]</text>
<polygon fill="none" stroke="#000000" points="721.5,-256.8887 721.5,-278.8887 859.5,-278.8887 859.5,-256.8887 721.5,-256.8887"/>
<image xlink:href="../../images/foreignKeys.png" width="11px" height="12px" preserveAspectRatio="xMinYMin meet" x="726.5" y="-273.889"/>
<text text-anchor="start" x="741.5" y="-263.9887" font-family="Helvetica,sans-Serif" font-size="11.00" fill="#000000">created_by</text>
<polygon fill="none" stroke="#000000" points="859.5,-256.8887 859.5,-278.8887 926.5,-278.8887 926.5,-256.8887 859.5,-256.8887"/>
<text text-anchor="start" x="862.5" y="-264.5887" font-family="Helvetica,sans-Serif" font-size="11.00" fill="#000000">bigint[19]</text>
<polygon fill="none" stroke="#000000" points="721.5,-234.8887 721.5,-256.8887 859.5,-256.8887 859.5,-234.8887 721.5,-234.8887"/>
<image xlink:href="../../images/foreignKeys.png" width="11px" height="12px" preserveAspectRatio="xMinYMin meet" x="726.5" y="-251.889"/>
<text text-anchor="start" x="741.5" y="-241.9887" font-family="Helvetica,sans-Serif" font-size="11.00" fill="#000000">updated_by</text>
<polygon fill="none" stroke="#000000" points="859.5,-234.8887 859.5,-256.8887 926.5,-256.8887 926.5,-234.8887 859.5,-234.8887"/>
<text text-anchor="start" x="862.5" y="-242.5887" font-family="Helvetica,sans-Serif" font-size="11.00" fill="#000000">bigint[19]</text>
<polygon fill="none" stroke="#000000" points="721.5,-212.8887 721.5,-234.8887 859.5,-234.8887 859.5,-212.8887 721.5,-212.8887"/>
<text text-anchor="start" x="741.5" y="-219.9887" font-family="Helvetica,sans-Serif" font-size="11.00" fill="#000000">note</text>
<polygon fill="none" stroke="#000000" points="859.5,-212.8887 859.5,-234.8887 926.5,-234.8887 926.5,-212.8887 859.5,-212.8887"/>
<text text-anchor="start" x="862.5" y="-220.5887" font-family="Helvetica,sans-Serif" font-size="11.00" fill="#000000">text[65535]</text>
<polygon fill="#ffffff" stroke="transparent" points="721.5,-193.8887 721.5,-212.8887 794.5,-212.8887 794.5,-193.8887 721.5,-193.8887"/>
<polygon fill="none" stroke="#000000" points="721.5,-193.8887 721.5,-212.8887 794.5,-212.8887 794.5,-193.8887 721.5,-193.8887"/>
<text text-anchor="start" x="724.5" y="-199.9887" font-family="Helvetica,sans-Serif" font-size="11.00" fill="#000000">&lt; 8</text>
<polygon fill="#ffffff" stroke="transparent" points="794.5,-193.8887 794.5,-212.8887 859.5,-212.8887 859.5,-193.8887 794.5,-193.8887"/>
<polygon fill="none" stroke="#000000" points="794.5,-193.8887 794.5,-212.8887 859.5,-212.8887 859.5,-193.8887 794.5,-193.8887"/>
<text text-anchor="start" x="850.3862" y="-199.9887" font-family="Helvetica,sans-Serif" font-size="11.00" fill="#000000"> &#160;</text>
<polygon fill="#ffffff" stroke="transparent" points="859.5,-193.8887 859.5,-212.8887 926.5,-212.8887 926.5,-193.8887 859.5,-193.8887"/>
<polygon fill="none" stroke="#000000" points="859.5,-193.8887 859.5,-212.8887 926.5,-212.8887 926.5,-193.8887 859.5,-193.8887"/>
<text text-anchor="start" x="907.9053" y="-199.9887" font-family="Helvetica,sans-Serif" font-size="11.00" fill="#000000">0 &gt;</text>
<polygon fill="none" stroke="#000000" stroke-width="2" points="720,-192.8887 720,-522.8887 927,-522.8887 927,-192.8887 720,-192.8887"/>
</a>
</g>
</g>
<!-- patient_data -->
<g id="node2" class="node">
<title>patient_data</title>
<g id="a_node2"><a xlink:href="../../tables/patient_data.html" xlink:title="patient_data" target="_top">
<polygon fill="#ffffff" stroke="transparent" points="422,-119.3887 422,-510.3887 670,-510.3887 670,-119.3887 422,-119.3887"/>
<polygon fill="#f5f5f5" stroke="transparent" points="422,-486.8887 422,-509.8887 670,-509.8887 670,-486.8887 422,-486.8887"/>
<polygon fill="none" stroke="#000000" points="422,-486.8887 422,-509.8887 670,-509.8887 670,-486.8887 422,-486.8887"/>
<text text-anchor="start" x="427" y="-495.4887" font-family="Helvetica,sans-Serif" font-weight="bold" font-size="11.00" fill="#000000">patient_data</text>
<text text-anchor="start" x="635.0437" y="-494.9887" font-family="Helvetica,sans-Serif" font-size="11.00" fill="#000000">[table]</text>
<polygon fill="none" stroke="#000000" points="422,-464.8887 422,-486.8887 670,-486.8887 670,-464.8887 422,-464.8887"/>
<image xlink:href="../../images/primaryKeys.png" width="11px" height="12px" preserveAspectRatio="xMinYMin meet" x="427" y="-481.889"/>
<text text-anchor="start" x="442" y="-471.9887" font-family="Helvetica,sans-Serif" font-size="11.00" fill="#000000">id</text>
<polygon fill="#ffffff" stroke="transparent" points="422,-442.8887 422,-464.8887 670,-464.8887 670,-442.8887 422,-442.8887"/>
<polygon fill="none" stroke="#000000" points="422,-442.8887 422,-464.8887 670,-464.8887 670,-442.8887 422,-442.8887"/>
<text text-anchor="start" x="442" y="-449.9887" font-family="Helvetica,sans-Serif" font-size="11.00" fill="#000000">uuid</text>
<polygon fill="#ffffff" stroke="transparent" points="422,-420.8887 422,-442.8887 670,-442.8887 670,-420.8887 422,-420.8887"/>
<polygon fill="none" stroke="#000000" points="422,-420.8887 422,-442.8887 670,-442.8887 670,-420.8887 422,-420.8887"/>
<text text-anchor="start" x="442" y="-427.9887" font-family="Helvetica,sans-Serif" font-size="11.00" fill="#000000">fname</text>
<polygon fill="#ffffff" stroke="transparent" points="422,-398.8887 422,-420.8887 670,-420.8887 670,-398.8887 422,-398.8887"/>
<polygon fill="none" stroke="#000000" points="422,-398.8887 422,-420.8887 670,-420.8887 670,-398.8887 422,-398.8887"/>
<text text-anchor="start" x="442" y="-405.9887" font-family="Helvetica,sans-Serif" font-size="11.00" fill="#000000">lname</text>
<polygon fill="#ffffff" stroke="transparent" points="422,-376.8887 422,-398.8887 670,-398.8887 670,-376.8887 422,-376.8887"/>
<polygon fill="none" stroke="#000000" points="422,-376.8887 422,-398.8887 670,-398.8887 670,-376.8887 422,-376.8887"/>
<text text-anchor="start" x="442" y="-383.9887" font-family="Helvetica,sans-Serif" font-size="11.00" fill="#000000">DOB</text>
<polygon fill="none" stroke="#000000" points="422,-354.8887 422,-376.8887 670,-376.8887 670,-354.8887 422,-354.8887"/>
<image xlink:href="../../images/foreignKeys.png" width="11px" height="12px" preserveAspectRatio="xMinYMin meet" x="427" y="-371.889"/>
<text text-anchor="start" x="442" y="-361.9887" font-family="Helvetica,sans-Serif" font-size="11.00" fill="#000000">pharmacy_id</text>
<polygon fill="none" stroke="#000000" points="422,-332.8887 422,-354.8887 670,-354.8887 670,-332.8887 422,-332.8887"/>
<image xlink:href="../../images/foreignKeys.png" width="11px" height="12px" preserveAspectRatio="xMinYMin meet" x="427" y="-349.889"/>
<text text-anchor="start" x="442" y="-339.9887" font-family="Helvetica,sans-Serif" font-size="11.00" fill="#000000">providerID</text>
<polygon fill="none" stroke="#000000" points="422,-310.8887 422,-332.8887 670,-332.8887 670,-310.8887 422,-310.8887"/>
<image xlink:href="../../images/foreignKeys.png" width="11px" height="12px" preserveAspectRatio="xMinYMin meet" x="427" y="-327.889"/>
<text text-anchor="start" x="442" y="-317.9887" font-family="Helvetica,sans-Serif" font-size="11.00" fill="#000000">ref_providerID</text>
<polygon fill="none" stroke="#000000" points="422,-288.8887 422,-310.8887 670,-310.8887 670,-288.8887 422,-288.8887"/>
<image xlink:href="../../images/primaryKeys.png" width="11px" height="12px" preserveAspectRatio="xMinYMin meet" x="427" y="-305.889"/>
<text text-anchor="start" x="442" y="-295.9887" font-family="Helvetica,sans-Serif" font-size="11.00" fill="#000000">pid</text>
<polygon fill="none" stroke="#000000" points="422,-266.8887 422,-288.8887 670,-288.8887 670,-266.8887 422,-266.8887"/>
<image xlink:href="../../images/foreignKeys.png" width="11px" height="12px" preserveAspectRatio="xMinYMin meet" x="427" y="-283.889"/>
<text text-anchor="start" x="442" y="-273.9887" font-family="Helvetica,sans-Serif" font-size="11.00" fill="#000000">created_by</text>
<polygon fill="none" stroke="#000000" points="422,-244.8887 422,-266.8887 670,-266.8887 670,-244.8887 422,-244.8887"/>
<image xlink:href="../../images/foreignKeys.png" width="11px" height="12px" preserveAspectRatio="xMinYMin meet" x="427" y="-261.889"/>
<text text-anchor="start" x="442" y="-251.9887" font-family="Helvetica,sans-Serif" font-size="11.00" fill="#000000">updated_by</text>
<polygon fill="none" stroke="#000000" points="422,-222.8887 422,-244.8887 670,-244.8887 670,-222.8887 422,-222.8887"/>
<image xlink:href="../../images/foreignKeys.png" width="11px" height="12px" preserveAspectRatio="xMinYMin meet" x="427" y="-239.889"/>
<text text-anchor="start" x="442" y="-229.9887" font-family="Helvetica,sans-Serif" font-size="11.00" fill="#000000">tribal_affiliations</text>
<polygon fill="none" stroke="#000000" points="422,-200.8887 422,-222.8887 670,-222.8887 670,-200.8887 422,-200.8887"/>
<image xlink:href="../../images/foreignKeys.png" width="11px" height="12px" preserveAspectRatio="xMinYMin meet" x="427" y="-217.889"/>
<text text-anchor="start" x="442" y="-207.9887" font-family="Helvetica,sans-Serif" font-size="11.00" fill="#000000">sex_identified</text>
<polygon fill="none" stroke="#000000" points="422,-178.8887 422,-200.8887 670,-200.8887 670,-178.8887 422,-178.8887"/>
<image xlink:href="../../images/foreignKeys.png" width="11px" height="12px" preserveAspectRatio="xMinYMin meet" x="427" y="-195.889"/>
<text text-anchor="start" x="442" y="-185.9887" font-family="Helvetica,sans-Serif" font-size="11.00" fill="#000000">interpreter_needed</text>
<polygon fill="none" stroke="#000000" points="422,-156.8887 422,-178.8887 670,-178.8887 670,-156.8887 422,-156.8887"/>
<image xlink:href="../../images/foreignKeys.png" width="11px" height="12px" preserveAspectRatio="xMinYMin meet" x="427" y="-173.889"/>
<text text-anchor="start" x="442" y="-163.9887" font-family="Helvetica,sans-Serif" font-size="11.00" fill="#000000">advance_directive_user_authenticator</text>
<polygon fill="none" stroke="#000000" points="422,-137.8887 422,-156.8887 670,-156.8887 670,-137.8887 422,-137.8887"/>
<text text-anchor="start" x="425" y="-143.9887" font-family="Helvetica,sans-Serif" font-size="11.00" fill="#000000">...</text>
<polygon fill="#ffffff" stroke="transparent" points="422,-118.8887 422,-137.8887 537,-137.8887 537,-118.8887 422,-118.8887"/>
<polygon fill="none" stroke="#000000" points="422,-118.8887 422,-137.8887 537,-137.8887 537,-118.8887 422,-118.8887"/>
<text text-anchor="start" x="425" y="-124.9887" font-family="Helvetica,sans-Serif" font-size="11.00" fill="#000000">&lt; 9</text>
<polygon fill="#ffffff" stroke="transparent" points="537,-118.8887 537,-137.8887 596,-137.8887 596,-118.8887 537,-118.8887"/>
<polygon fill="none" stroke="#000000" points="537,-118.8887 537,-137.8887 596,-137.8887 596,-118.8887 537,-118.8887"/>
<text text-anchor="start" x="586.8862" y="-124.9887" font-family="Helvetica,sans-Serif" font-size="11.00" fill="#000000"> &#160;</text>
<polygon fill="#ffffff" stroke="transparent" points="596,-118.8887 596,-137.8887 670,-137.8887 670,-118.8887 596,-118.8887"/>
<polygon fill="none" stroke="#000000" points="596,-118.8887 596,-137.8887 670,-137.8887 670,-118.8887 596,-118.8887"/>
<text text-anchor="start" x="645.2904" y="-124.9887" font-family="Helvetica,sans-Serif" font-size="11.00" fill="#000000">97 &gt;</text>
</a>
</g>
</g>
<!-- care_team_member&#45;&gt;patient_data -->
<g id="edge1" class="edge">
<title>care_team_member:w&#45;&gt;patient_data:e</title>
<path fill="none" stroke="#000000" d="M707.1317,-463.2812C658.5485,-442.1625 741.5136,-299.8887 670,-299.8887"/>
<polygon fill="#000000" stroke="#000000" points="713.6286,-464.4602 720.8572,-469.4308 717.5643,-465.1744 721.5,-465.8887 721.5,-465.8887 721.5,-465.8887 717.5643,-465.1744 722.1428,-462.3465 713.6286,-464.4602 713.6286,-464.4602"/>
<ellipse fill="none" stroke="#000000" cx="710.48" cy="-463.8888" rx="3.2" ry="3.2"/>
</g>
<!-- users -->
<g id="node3" class="node">
<title>users</title>
<g id="a_node3"><a xlink:href="../../tables/users.html" xlink:title="users" target="_top">
<polygon fill="#ffffff" stroke="transparent" points="223,-218.3887 223,-433.3887 373,-433.3887 373,-218.3887 223,-218.3887"/>
<polygon fill="#f5f5f5" stroke="transparent" points="223,-409.8887 223,-432.8887 373,-432.8887 373,-409.8887 223,-409.8887"/>
<polygon fill="none" stroke="#000000" points="223,-409.8887 223,-432.8887 373,-432.8887 373,-409.8887 223,-409.8887"/>
<text text-anchor="start" x="228" y="-418.4887" font-family="Helvetica,sans-Serif" font-weight="bold" font-size="11.00" fill="#000000">users</text>
<text text-anchor="start" x="338.0437" y="-417.9887" font-family="Helvetica,sans-Serif" font-size="11.00" fill="#000000">[table]</text>
<polygon fill="none" stroke="#000000" points="223,-387.8887 223,-409.8887 373,-409.8887 373,-387.8887 223,-387.8887"/>
<image xlink:href="../../images/primaryKeys.png" width="11px" height="12px" preserveAspectRatio="xMinYMin meet" x="228" y="-404.889"/>
<text text-anchor="start" x="243" y="-394.9887" font-family="Helvetica,sans-Serif" font-size="11.00" fill="#000000">id</text>
<polygon fill="#ffffff" stroke="transparent" points="223,-365.8887 223,-387.8887 373,-387.8887 373,-365.8887 223,-365.8887"/>
<polygon fill="none" stroke="#000000" points="223,-365.8887 223,-387.8887 373,-387.8887 373,-365.8887 223,-365.8887"/>
<text text-anchor="start" x="243" y="-372.9887" font-family="Helvetica,sans-Serif" font-size="11.00" fill="#000000">uuid</text>
<polygon fill="none" stroke="#000000" points="223,-343.8887 223,-365.8887 373,-365.8887 373,-343.8887 223,-343.8887"/>
<image xlink:href="../../images/primaryKeys.png" width="11px" height="12px" preserveAspectRatio="xMinYMin meet" x="228" y="-360.889"/>
<text text-anchor="start" x="243" y="-350.9887" font-family="Helvetica,sans-Serif" font-size="11.00" fill="#000000">username</text>
<polygon fill="none" stroke="#000000" points="223,-321.8887 223,-343.8887 373,-343.8887 373,-321.8887 223,-321.8887"/>
<image xlink:href="../../images/foreignKeys.png" width="11px" height="12px" preserveAspectRatio="xMinYMin meet" x="228" y="-338.889"/>
<text text-anchor="start" x="243" y="-328.9887" font-family="Helvetica,sans-Serif" font-size="11.00" fill="#000000">facility_id</text>
<polygon fill="#ffffff" stroke="transparent" points="223,-299.8887 223,-321.8887 373,-321.8887 373,-299.8887 223,-299.8887"/>
<polygon fill="none" stroke="#000000" points="223,-299.8887 223,-321.8887 373,-321.8887 373,-299.8887 223,-299.8887"/>
<text text-anchor="start" x="243" y="-306.9887" font-family="Helvetica,sans-Serif" font-size="11.00" fill="#000000">google_signin_email</text>
<polygon fill="#ffffff" stroke="transparent" points="223,-277.8887 223,-299.8887 373,-299.8887 373,-277.8887 223,-277.8887"/>
<polygon fill="none" stroke="#000000" points="223,-277.8887 223,-299.8887 373,-299.8887 373,-277.8887 223,-277.8887"/>
<text text-anchor="start" x="243" y="-284.9887" font-family="Helvetica,sans-Serif" font-size="11.00" fill="#000000">abook_type</text>
<polygon fill="none" stroke="#000000" points="223,-255.8887 223,-277.8887 373,-277.8887 373,-255.8887 223,-255.8887"/>
<image xlink:href="../../images/foreignKeys.png" width="11px" height="12px" preserveAspectRatio="xMinYMin meet" x="228" y="-272.889"/>
<text text-anchor="start" x="243" y="-262.9887" font-family="Helvetica,sans-Serif" font-size="11.00" fill="#000000">billing_facility_id</text>
<polygon fill="none" stroke="#000000" points="223,-236.8887 223,-255.8887 373,-255.8887 373,-236.8887 223,-236.8887"/>
<text text-anchor="start" x="226" y="-242.9887" font-family="Helvetica,sans-Serif" font-size="11.00" fill="#000000">...</text>
<polygon fill="#ffffff" stroke="transparent" points="223,-217.8887 223,-236.8887 289,-236.8887 289,-217.8887 223,-217.8887"/>
<polygon fill="none" stroke="#000000" points="223,-217.8887 223,-236.8887 289,-236.8887 289,-217.8887 223,-217.8887"/>
<text text-anchor="start" x="226" y="-223.9887" font-family="Helvetica,sans-Serif" font-size="11.00" fill="#000000">&lt; 2</text>
<polygon fill="#ffffff" stroke="transparent" points="289,-217.8887 289,-236.8887 323,-236.8887 323,-217.8887 289,-217.8887"/>
<polygon fill="none" stroke="#000000" points="289,-217.8887 289,-236.8887 323,-236.8887 323,-217.8887 289,-217.8887"/>
<text text-anchor="start" x="313.8862" y="-223.9887" font-family="Helvetica,sans-Serif" font-size="11.00" fill="#000000"> &#160;</text>
<polygon fill="#ffffff" stroke="transparent" points="323,-217.8887 323,-236.8887 373,-236.8887 373,-217.8887 323,-217.8887"/>
<polygon fill="none" stroke="#000000" points="323,-217.8887 323,-236.8887 373,-236.8887 373,-217.8887 323,-217.8887"/>
<text text-anchor="start" x="348.2904" y="-223.9887" font-family="Helvetica,sans-Serif" font-size="11.00" fill="#000000">91 &gt;</text>
</a>
</g>
</g>
<!-- care_team_member&#45;&gt;users -->
<g id="edge2" class="edge">
<title>care_team_member:w&#45;&gt;users:e</title>
<path fill="none" stroke="#000000" d="M707.0321,-424.0769C664.7956,-439.6114 728.8377,-533.6993 678,-571.8887 631.0937,-607.1247 460.0189,-608.276 414,-571.8887 352.0168,-522.8782 452.0187,-398.8887 373,-398.8887"/>
<polygon fill="#000000" stroke="#000000" points="713.59,-423.0851 722.0384,-425.4482 717.545,-422.4869 721.5,-421.8887 721.5,-421.8887 721.5,-421.8887 717.545,-422.4869 720.9616,-418.3292 713.59,-423.0851 713.59,-423.0851"/>
<ellipse fill="none" stroke="#000000" cx="710.4259" cy="-423.5637" rx="3.2" ry="3.2"/>
</g>
<!-- care_team_member&#45;&gt;users -->
<g id="edge3" class="edge">
<title>care_team_member:w&#45;&gt;users:e</title>
<path fill="none" stroke="#000000" d="M707.6411,-273.3021C670.1626,-308.803 721.0998,-508.029 678,-544.8887 633.4145,-583.0189 460.7563,-580.3235 414,-544.8887 360.2842,-504.1796 440.3989,-398.8887 373,-398.8887"/>
<polygon fill="#000000" stroke="#000000" points="714.0483,-270.7994 722.8098,-271.2419 717.7741,-269.344 721.5,-267.8887 721.5,-267.8887 721.5,-267.8887 717.7741,-269.344 720.1902,-264.5354 714.0483,-270.7994 714.0483,-270.7994"/>
<ellipse fill="none" stroke="#000000" cx="711.0676" cy="-271.9637" rx="3.2" ry="3.2"/>
</g>
<!-- care_team_member&#45;&gt;users -->
<g id="edge7" class="edge">
<title>care_team_member:w&#45;&gt;users:e</title>
<path fill="none" stroke="#000000" d="M707.7323,-251.2634C670.4754,-286.5107 720.8165,-484.3126 678,-520.8887 655.6966,-539.9414 437.8175,-538.0109 414,-520.8887 367.5541,-487.499 430.2023,-398.8887 373,-398.8887"/>
<polygon fill="#000000" stroke="#000000" points="714.0477,-248.798 722.8092,-249.2422 717.7739,-247.3433 721.5,-245.8887 721.5,-245.8887 721.5,-245.8887 717.7739,-247.3433 720.1908,-242.5352 714.0477,-248.798 714.0477,-248.798"/>
<ellipse fill="none" stroke="#000000" cx="711.0668" cy="-249.9617" rx="3.2" ry="3.2"/>
</g>
<!-- care_team_member&#45;&gt;users -->
<g id="edge8" class="edge">
<title>care_team_member:w&#45;&gt;users:e</title>
<path fill="none" stroke="#000000" d="M707.2208,-445.992C664.208,-461.3212 729.2253,-556.3371 678,-594.8887 584.2499,-665.4439 505.0658,-668.8761 414,-594.8887 344.9272,-538.7697 461.9966,-398.8887 373,-398.8887"/>
<polygon fill="#000000" stroke="#000000" points="713.5854,-445.0546 722.0246,-447.4502 717.5427,-444.4716 721.5,-443.8887 721.5,-443.8887 721.5,-443.8887 717.5427,-444.4716 720.9754,-440.3271 713.5854,-445.0546 713.5854,-445.0546"/>
<ellipse fill="none" stroke="#000000" cx="710.4196" cy="-445.5209" rx="3.2" ry="3.2"/>
</g>
<!-- facility -->
<g id="node4" class="node">
<title>facility</title>
<g id="a_node4"><a xlink:href="../../tables/facility.html" xlink:title="facility" target="_top">
<polygon fill="#ffffff" stroke="transparent" points="8,-196.3887 8,-301.3887 174,-301.3887 174,-196.3887 8,-196.3887"/>
<polygon fill="#f5f5f5" stroke="transparent" points="8,-277.8887 8,-300.8887 174,-300.8887 174,-277.8887 8,-277.8887"/>
<polygon fill="none" stroke="#000000" points="8,-277.8887 8,-300.8887 174,-300.8887 174,-277.8887 8,-277.8887"/>
<text text-anchor="start" x="13" y="-286.4887" font-family="Helvetica,sans-Serif" font-weight="bold" font-size="11.00" fill="#000000">facility</text>
<text text-anchor="start" x="139.0437" y="-285.9887" font-family="Helvetica,sans-Serif" font-size="11.00" fill="#000000">[table]</text>
<polygon fill="none" stroke="#000000" points="8,-255.8887 8,-277.8887 174,-277.8887 174,-255.8887 8,-255.8887"/>
<image xlink:href="../../images/primaryKeys.png" width="11px" height="12px" preserveAspectRatio="xMinYMin meet" x="13" y="-272.889"/>
<text text-anchor="start" x="28" y="-262.9887" font-family="Helvetica,sans-Serif" font-size="11.00" fill="#000000">id</text>
<polygon fill="#ffffff" stroke="transparent" points="8,-233.8887 8,-255.8887 174,-255.8887 174,-233.8887 8,-233.8887"/>
<polygon fill="none" stroke="#000000" points="8,-233.8887 8,-255.8887 174,-255.8887 174,-233.8887 8,-233.8887"/>
<text text-anchor="start" x="28" y="-240.9887" font-family="Helvetica,sans-Serif" font-size="11.00" fill="#000000">uuid</text>
<polygon fill="none" stroke="#000000" points="8,-214.8887 8,-233.8887 174,-233.8887 174,-214.8887 8,-214.8887"/>
<text text-anchor="start" x="11" y="-220.9887" font-family="Helvetica,sans-Serif" font-size="11.00" fill="#000000">...</text>
<polygon fill="#ffffff" stroke="transparent" points="8,-195.8887 8,-214.8887 77,-214.8887 77,-195.8887 8,-195.8887"/>
<polygon fill="none" stroke="#000000" points="8,-195.8887 8,-214.8887 77,-214.8887 77,-195.8887 8,-195.8887"/>
<text text-anchor="start" x="11" y="-201.9887" font-family="Helvetica,sans-Serif" font-size="11.00" fill="#000000"> &#160;</text>
<polygon fill="#ffffff" stroke="transparent" points="77,-195.8887 77,-214.8887 118,-214.8887 118,-195.8887 77,-195.8887"/>
<polygon fill="none" stroke="#000000" points="77,-195.8887 77,-214.8887 118,-214.8887 118,-195.8887 77,-195.8887"/>
<text text-anchor="start" x="108.8862" y="-201.9887" font-family="Helvetica,sans-Serif" font-size="11.00" fill="#000000"> &#160;</text>
<polygon fill="#ffffff" stroke="transparent" points="118,-195.8887 118,-214.8887 174,-214.8887 174,-195.8887 118,-195.8887"/>
<polygon fill="none" stroke="#000000" points="118,-195.8887 118,-214.8887 174,-214.8887 174,-195.8887 118,-195.8887"/>
<text text-anchor="start" x="149.2904" y="-201.9887" font-family="Helvetica,sans-Serif" font-size="11.00" fill="#000000">10 &gt;</text>
</a>
</g>
</g>
<!-- care_team_member&#45;&gt;facility -->
<g id="edge4" class="edge">
<title>care_team_member:w&#45;&gt;facility:e</title>
<path fill="none" stroke="#000000" d="M707.7191,-372.8926C667.0529,-337.5435 723.2516,-125.4326 678,-85.8887 600.5219,-18.183 295.2422,-17.4829 215,-81.8887 149.3221,-134.6045 258.2172,-266.8887 174,-266.8887"/>
<polygon fill="#000000" stroke="#000000" points="713.979,-375.162 720.273,-381.2731 717.7395,-376.5254 721.5,-377.8887 721.5,-377.8887 721.5,-377.8887 717.7395,-376.5254 722.727,-374.5042 713.979,-375.162 713.979,-375.162"/>
<ellipse fill="none" stroke="#000000" cx="710.9706" cy="-374.0714" rx="3.2" ry="3.2"/>
</g>
<!-- list_options -->
<g id="node5" class="node">
<title>list_options</title>
<g id="a_node5"><a xlink:href="../../tables/list_options.html" xlink:title="list_options" target="_top">
<polygon fill="#ffffff" stroke="transparent" points="239,-92.3887 239,-197.3887 357,-197.3887 357,-92.3887 239,-92.3887"/>
<polygon fill="#f5f5f5" stroke="transparent" points="239,-173.8887 239,-196.8887 357,-196.8887 357,-173.8887 239,-173.8887"/>
<polygon fill="none" stroke="#000000" points="239,-173.8887 239,-196.8887 357,-196.8887 357,-173.8887 239,-173.8887"/>
<text text-anchor="start" x="244" y="-182.4887" font-family="Helvetica,sans-Serif" font-weight="bold" font-size="11.00" fill="#000000">list_options</text>
<text text-anchor="start" x="322.0437" y="-181.9887" font-family="Helvetica,sans-Serif" font-size="11.00" fill="#000000">[table]</text>
<polygon fill="none" stroke="#000000" points="239,-151.8887 239,-173.8887 357,-173.8887 357,-151.8887 239,-151.8887"/>
<image xlink:href="../../images/primaryKeys.png" width="11px" height="12px" preserveAspectRatio="xMinYMin meet" x="244" y="-168.889"/>
<text text-anchor="start" x="259" y="-158.9887" font-family="Helvetica,sans-Serif" font-size="11.00" fill="#000000">list_id</text>
<polygon fill="none" stroke="#000000" points="239,-129.8887 239,-151.8887 357,-151.8887 357,-129.8887 239,-129.8887"/>
<image xlink:href="../../images/primaryKeys.png" width="11px" height="12px" preserveAspectRatio="xMinYMin meet" x="244" y="-146.889"/>
<text text-anchor="start" x="259" y="-136.9887" font-family="Helvetica,sans-Serif" font-size="11.00" fill="#000000">option_id</text>
<polygon fill="none" stroke="#000000" points="239,-110.8887 239,-129.8887 357,-129.8887 357,-110.8887 239,-110.8887"/>
<text text-anchor="start" x="242" y="-116.9887" font-family="Helvetica,sans-Serif" font-size="11.00" fill="#000000">...</text>
<polygon fill="#ffffff" stroke="transparent" points="239,-91.8887 239,-110.8887 284,-110.8887 284,-91.8887 239,-91.8887"/>
<polygon fill="none" stroke="#000000" points="239,-91.8887 239,-110.8887 284,-110.8887 284,-91.8887 239,-91.8887"/>
<text text-anchor="start" x="242" y="-97.9887" font-family="Helvetica,sans-Serif" font-size="11.00" fill="#000000"> &#160;</text>
<polygon fill="#ffffff" stroke="transparent" points="284,-91.8887 284,-110.8887 313,-110.8887 313,-91.8887 284,-91.8887"/>
<polygon fill="none" stroke="#000000" points="284,-91.8887 284,-110.8887 313,-110.8887 313,-91.8887 284,-91.8887"/>
<text text-anchor="start" x="303.8862" y="-97.9887" font-family="Helvetica,sans-Serif" font-size="11.00" fill="#000000"> &#160;</text>
<polygon fill="#ffffff" stroke="transparent" points="313,-91.8887 313,-110.8887 357,-110.8887 357,-91.8887 313,-91.8887"/>
<polygon fill="none" stroke="#000000" points="313,-91.8887 313,-110.8887 357,-110.8887 357,-91.8887 313,-91.8887"/>
<text text-anchor="start" x="332.2904" y="-97.9887" font-family="Helvetica,sans-Serif" font-size="11.00" fill="#000000">98 &gt;</text>
</a>
</g>
</g>
<!-- care_team_member&#45;&gt;list_options -->
<g id="edge5" class="edge">
<title>care_team_member:w&#45;&gt;list_options:e</title>
<path fill="none" stroke="#000000" d="M707.7681,-394.9031C667.2579,-359.6291 723.3741,-147.9842 678,-108.8887 633.5556,-70.5942 470.758,-94.0461 414,-108.8887 385.8926,-116.2389 386.0525,-140.8887 357,-140.8887"/>
<polygon fill="#000000" stroke="#000000" points="713.9803,-397.1585 720.2714,-403.2726 717.7401,-398.5236 721.5,-399.8887 721.5,-399.8887 721.5,-399.8887 717.7401,-398.5236 722.7286,-396.5048 713.9803,-397.1585 713.9803,-397.1585"/>
<ellipse fill="none" stroke="#000000" cx="710.9724" cy="-396.0664" rx="3.2" ry="3.2"/>
</g>
<!-- care_team_member&#45;&gt;list_options -->
<g id="edge6" class="edge">
<title>care_team_member:w&#45;&gt;list_options:e</title>
<path fill="none" stroke="#000000" d="M706.9514,-332.6622C624.0719,-316.9463 759.5077,-154.3441 678,-85.8887 588.1513,-10.428 522.7984,-41.9567 414,-85.8887 381.3569,-99.0697 392.2038,-140.8887 357,-140.8887"/>
<polygon fill="#000000" stroke="#000000" points="713.5283,-333.2166 721.1976,-337.476 717.5141,-333.5526 721.5,-333.8887 721.5,-333.8887 721.5,-333.8887 717.5141,-333.5526 721.8024,-330.3014 713.5283,-333.2166 713.5283,-333.2166"/>
<ellipse fill="none" stroke="#000000" cx="710.3396" cy="-332.9478" rx="3.2" ry="3.2"/>
</g>
<!-- patient_data&#45;&gt;users -->
<g id="edge9" class="edge">
<title>patient_data:w&#45;&gt;users:e</title>
<path fill="none" stroke="#000000" d="M407.5364,-169.7481C333.2798,-191.6096 472.4165,-398.8887 373,-398.8887"/>
<polygon fill="#000000" stroke="#000000" points="414.0653,-168.9088 422.4591,-171.4593 418.0327,-168.3987 422,-167.8887 422,-167.8887 422,-167.8887 418.0327,-168.3987 421.5409,-164.3181 414.0653,-168.9088 414.0653,-168.9088"/>
<ellipse fill="none" stroke="#000000" cx="410.8914" cy="-169.3168" rx="3.2" ry="3.2"/>
</g>
<!-- patient_data&#45;&gt;users -->
<g id="edge10" class="edge">
<title>patient_data:w&#45;&gt;users:e</title>
<path fill="none" stroke="#000000" d="M407.93,-281.3795C376.3075,-301.2187 425.1273,-398.8887 373,-398.8887"/>
<polygon fill="#000000" stroke="#000000" points="414.2354,-279.8151 422.8669,-281.3827 418.1177,-278.8519 422,-277.8887 422,-277.8887 422,-277.8887 418.1177,-278.8519 421.1331,-274.3946 414.2354,-279.8151 414.2354,-279.8151"/>
<ellipse fill="none" stroke="#000000" cx="411.1296" cy="-280.5857" rx="3.2" ry="3.2"/>
</g>
<!-- patient_data&#45;&gt;users -->
<g id="edge12" class="edge">
<title>patient_data:w&#45;&gt;users:e</title>
<path fill="none" stroke="#000000" d="M408.1265,-348.9644C393.7102,-362.5801 399.5999,-398.8887 373,-398.8887"/>
<polygon fill="#000000" stroke="#000000" points="414.487,-346.6374 423.2369,-347.2695 418.2435,-345.263 422,-343.8887 422,-343.8887 422,-343.8887 418.2435,-345.263 420.7631,-340.5078 414.487,-346.6374 414.487,-346.6374"/>
<ellipse fill="none" stroke="#000000" cx="411.4818" cy="-347.7368" rx="3.2" ry="3.2"/>
</g>
<!-- patient_data&#45;&gt;users -->
<g id="edge13" class="edge">
<title>patient_data:w&#45;&gt;users:e</title>
<path fill="none" stroke="#000000" d="M408.2659,-326.4748C389.3724,-343.0515 407.5427,-398.8887 373,-398.8887"/>
<polygon fill="#000000" stroke="#000000" points="414.4119,-324.4226 423.1402,-325.3033 418.2059,-323.1556 422,-321.8887 422,-321.8887 422,-321.8887 418.2059,-323.1556 420.8598,-318.474 414.4119,-324.4226 414.4119,-324.4226"/>
<ellipse fill="none" stroke="#000000" cx="411.3766" cy="-325.4361" rx="3.2" ry="3.2"/>
</g>
<!-- patient_data&#45;&gt;users -->
<g id="edge16" class="edge">
<title>patient_data:w&#45;&gt;users:e</title>
<path fill="none" stroke="#000000" d="M407.8655,-258.8754C368.3625,-279.4107 434.4096,-398.8887 373,-398.8887"/>
<polygon fill="#000000" stroke="#000000" points="414.1728,-257.5427 422.7443,-259.4109 418.0864,-256.7157 422,-255.8887 422,-255.8887 422,-255.8887 418.0864,-256.7157 421.2557,-252.3665 414.1728,-257.5427 414.1728,-257.5427"/>
<ellipse fill="none" stroke="#000000" cx="411.042" cy="-258.2043" rx="3.2" ry="3.2"/>
</g>
<!-- patient_data&#45;&gt;list_options -->
<g id="edge11" class="edge">
<title>patient_data:w&#45;&gt;list_options:e</title>
<path fill="none" stroke="#000000" d="M407.898,-186.6737C387.058,-175.7725 387.5251,-140.8887 357,-140.8887"/>
<polygon fill="#000000" stroke="#000000" points="414.2001,-188.1104 421.1998,-193.3986 418.1001,-188.9995 422,-189.8887 422,-189.8887 422,-189.8887 418.1001,-188.9995 422.8002,-186.3787 414.2001,-188.1104 414.2001,-188.1104"/>
<ellipse fill="none" stroke="#000000" cx="411.0802" cy="-187.3991" rx="3.2" ry="3.2"/>
</g>
<!-- patient_data&#45;&gt;list_options -->
<g id="edge14" class="edge">
<title>patient_data:w&#45;&gt;list_options:e</title>
<path fill="none" stroke="#000000" d="M408.0093,-208.4642C383.5628,-194.2817 394.1002,-140.8887 357,-140.8887"/>
<polygon fill="#000000" stroke="#000000" points="414.2294,-209.9866 421.1441,-215.3855 418.1147,-210.9377 422,-211.8887 422,-211.8887 422,-211.8887 418.1147,-210.9377 422.8559,-208.3919 414.2294,-209.9866 414.2294,-209.9866"/>
<ellipse fill="none" stroke="#000000" cx="411.1211" cy="-209.2258" rx="3.2" ry="3.2"/>
</g>
<!-- patient_data&#45;&gt;list_options -->
<g id="edge15" class="edge">
<title>patient_data:w&#45;&gt;list_options:e</title>
<path fill="none" stroke="#000000" d="M407.9332,-230.5788C378.5882,-214.0118 401.7157,-140.8887 357,-140.8887"/>
<polygon fill="#000000" stroke="#000000" points="414.2127,-232.0563 421.1754,-237.393 418.1063,-232.9725 422,-233.8887 422,-233.8887 422,-233.8887 418.1063,-232.9725 422.8246,-230.3844 414.2127,-232.0563 414.2127,-232.0563"/>
<ellipse fill="none" stroke="#000000" cx="411.0977" cy="-231.3233" rx="3.2" ry="3.2"/>
</g>
<!-- users&#45;&gt;facility -->
<g id="edge17" class="edge">
<title>users:w&#45;&gt;facility:e</title>
<path fill="none" stroke="#000000" d="M208.4909,-266.8887C197.1774,-266.8887 189.9931,-266.8887 174,-266.8887"/>
<polygon fill="#000000" stroke="#000000" points="215,-266.8887 223,-270.4887 219,-266.8887 223,-266.8887 223,-266.8887 223,-266.8887 219,-266.8887 223,-263.2887 215,-266.8887 215,-266.8887"/>
<ellipse fill="none" stroke="#000000" cx="211.8" cy="-266.8888" rx="3.2" ry="3.2"/>
</g>
<!-- users&#45;&gt;facility -->
<g id="edge18" class="edge">
<title>users:w&#45;&gt;facility:e</title>
<path fill="none" stroke="#000000" d="M209.3768,-328.1421C192.7322,-313.0089 204.5399,-266.8887 174,-266.8887"/>
<polygon fill="#000000" stroke="#000000" points="215.4454,-330.2565 221.8155,-336.2882 219.2227,-331.5726 223,-332.8887 223,-332.8887 223,-332.8887 219.2227,-331.5726 224.1845,-329.4891 215.4454,-330.2565 215.4454,-330.2565"/>
<ellipse fill="none" stroke="#000000" cx="212.4236" cy="-329.2036" rx="3.2" ry="3.2"/>
</g>
</g>
</svg>
