<?xml version="1.0" encoding="UTF-8" standalone="no"?>
<!DOCTYPE svg PUBLIC "-//W3C//DTD SVG 1.1//EN"
 "http://www.w3.org/Graphics/SVG/1.1/DTD/svg11.dtd">
<!-- Generated by graphviz version 2.40.1 (20161225.0304)
 -->
<!-- Title: twoDegreesRelationshipsDiagram Pages: 1 -->
<svg width="446pt" height="355pt"
 viewBox="0.00 0.00 446.00 354.70" xmlns="http://www.w3.org/2000/svg" xmlns:xlink="http://www.w3.org/1999/xlink">
<g id="graph0" class="graph" transform="scale(1 1) rotate(0) translate(4 350.7)">
<title>twoDegreesRelationshipsDiagram</title>
<polygon fill="#ffffff" stroke="transparent" points="-4,4 -4,-350.7 442,-350.7 442,4 -4,4"/>
<text text-anchor="middle" x="72.4936" y="-7.3" font-family="Helvetica,sans-Serif" font-size="11.00" fill="#000000">Generated by SchemaSpy</text>
<!-- categories_to_documents -->
<g id="node1" class="node">
<title>categories_to_documents</title>
<g id="a_node1"><a xlink:href="../../tables/categories_to_documents.html" xlink:title="categories_to_documents" target="_top">
<polygon fill="#ffffff" stroke="transparent" points="220,-144.7 220,-230.7 430,-230.7 430,-144.7 220,-144.7"/>
<polygon fill="#f5f5f5" stroke="transparent" points="220,-207.7 220,-230.7 430,-230.7 430,-207.7 220,-207.7"/>
<polygon fill="none" stroke="#000000" points="220,-207.7 220,-230.7 430,-230.7 430,-207.7 220,-207.7"/>
<text text-anchor="start" x="225" y="-216.3" font-family="Helvetica,sans-Serif" font-weight="bold" font-size="11.00" fill="#000000">categories_to_documents</text>
<text text-anchor="start" x="395.5219" y="-215.8" font-family="Helvetica,sans-Serif" font-size="11.00" fill="#000000">[table]</text>
<polygon fill="none" stroke="#000000" points="220,-185.7 220,-207.7 430,-207.7 430,-185.7 220,-185.7"/>
<image xlink:href="../../images/primaryKeys.png" width="11px" height="12px" preserveAspectRatio="xMinYMin meet" x="225" y="-202.7"/>
<text text-anchor="start" x="249" y="-192.8" font-family="Helvetica,sans-Serif" font-size="11.00" fill="#000000">category_id</text>
<polygon fill="none" stroke="#000000" points="220,-163.7 220,-185.7 430,-185.7 430,-163.7 220,-163.7"/>
<image xlink:href="../../images/primaryKeys.png" width="11px" height="12px" preserveAspectRatio="xMinYMin meet" x="225" y="-180.7"/>
<text text-anchor="start" x="249" y="-170.8" font-family="Helvetica,sans-Serif" font-size="11.00" fill="#000000">document_id</text>
<polygon fill="#ffffff" stroke="transparent" points="220,-144.7 220,-163.7 323,-163.7 323,-144.7 220,-144.7"/>
<polygon fill="none" stroke="#000000" points="220,-144.7 220,-163.7 323,-163.7 323,-144.7 220,-144.7"/>
<text text-anchor="start" x="223" y="-150.8" font-family="Helvetica,sans-Serif" font-size="11.00" fill="#000000">&lt; 2</text>
<polygon fill="#ffffff" stroke="transparent" points="323,-144.7 323,-163.7 376,-163.7 376,-144.7 323,-144.7"/>
<polygon fill="none" stroke="#000000" points="323,-144.7 323,-163.7 376,-163.7 376,-144.7 323,-144.7"/>
<text text-anchor="start" x="366.8862" y="-150.8" font-family="Helvetica,sans-Serif" font-size="11.00" fill="#000000"> &#160;</text>
<polygon fill="#ffffff" stroke="transparent" points="376,-144.7 376,-163.7 430,-163.7 430,-144.7 376,-144.7"/>
<polygon fill="none" stroke="#000000" points="376,-144.7 376,-163.7 430,-163.7 430,-144.7 376,-144.7"/>
<text text-anchor="start" x="420.8862" y="-150.8" font-family="Helvetica,sans-Serif" font-size="11.00" fill="#000000"> &#160;</text>
</a>
</g>
</g>
<!-- categories -->
<g id="node2" class="node">
<title>categories</title>
<g id="a_node2"><a xlink:href="../../tables/categories.html" xlink:title="categories" target="_top">
<polygon fill="#ffffff" stroke="transparent" points="8,-120.7 8,-342.7 171,-342.7 171,-120.7 8,-120.7"/>
<polygon fill="#f5f5f5" stroke="transparent" points="10.5,-317.7 10.5,-340.7 169.5,-340.7 169.5,-317.7 10.5,-317.7"/>
<polygon fill="none" stroke="#000000" points="10.5,-317.7 10.5,-340.7 169.5,-340.7 169.5,-317.7 10.5,-317.7"/>
<text text-anchor="start" x="15.5" y="-326.3" font-family="Helvetica,sans-Serif" font-weight="bold" font-size="11.00" fill="#000000">categories</text>
<text text-anchor="start" x="134.5437" y="-325.8" font-family="Helvetica,sans-Serif" font-size="11.00" fill="#000000">[table]</text>
<polygon fill="none" stroke="#000000" points="10.5,-295.7 10.5,-317.7 102.5,-317.7 102.5,-295.7 10.5,-295.7"/>
<image xlink:href="../../images/primaryKeys.png" width="11px" height="12px" preserveAspectRatio="xMinYMin meet" x="15.5" y="-312.7"/>
<text text-anchor="start" x="30.5" y="-302.8" font-family="Helvetica,sans-Serif" font-size="11.00" fill="#000000">id</text>
<polygon fill="none" stroke="#000000" points="102.5,-295.7 102.5,-317.7 169.5,-317.7 169.5,-295.7 102.5,-295.7"/>
<text text-anchor="start" x="105.5" y="-303.4" font-family="Helvetica,sans-Serif" font-size="11.00" fill="#000000">int[10]</text>
<polygon fill="none" stroke="#000000" points="10.5,-273.7 10.5,-295.7 102.5,-295.7 102.5,-273.7 10.5,-273.7"/>
<text text-anchor="start" x="30.5" y="-280.8" font-family="Helvetica,sans-Serif" font-size="11.00" fill="#000000">name</text>
<polygon fill="none" stroke="#000000" points="102.5,-273.7 102.5,-295.7 169.5,-295.7 169.5,-273.7 102.5,-273.7"/>
<text text-anchor="start" x="105.4365" y="-281.4" font-family="Helvetica,sans-Serif" font-size="11.00" fill="#000000">varchar[255]</text>
<polygon fill="none" stroke="#000000" points="10.5,-251.7 10.5,-273.7 102.5,-273.7 102.5,-251.7 10.5,-251.7"/>
<text text-anchor="start" x="30.5" y="-258.8" font-family="Helvetica,sans-Serif" font-size="11.00" fill="#000000">value</text>
<polygon fill="none" stroke="#000000" points="102.5,-251.7 102.5,-273.7 169.5,-273.7 169.5,-251.7 102.5,-251.7"/>
<text text-anchor="start" x="105.4365" y="-259.4" font-family="Helvetica,sans-Serif" font-size="11.00" fill="#000000">varchar[255]</text>
<polygon fill="#ffffff" stroke="transparent" points="10.5,-229.7 10.5,-251.7 102.5,-251.7 102.5,-229.7 10.5,-229.7"/>
<polygon fill="none" stroke="#000000" points="10.5,-229.7 10.5,-251.7 102.5,-251.7 102.5,-229.7 10.5,-229.7"/>
<text text-anchor="start" x="30.5" y="-236.8" font-family="Helvetica,sans-Serif" font-size="11.00" fill="#000000">parent</text>
<polygon fill="none" stroke="#000000" points="102.5,-229.7 102.5,-251.7 169.5,-251.7 169.5,-229.7 102.5,-229.7"/>
<text text-anchor="start" x="105.5" y="-237.4" font-family="Helvetica,sans-Serif" font-size="11.00" fill="#000000">int[10]</text>
<polygon fill="#ffffff" stroke="transparent" points="10.5,-207.7 10.5,-229.7 102.5,-229.7 102.5,-207.7 10.5,-207.7"/>
<polygon fill="none" stroke="#000000" points="10.5,-207.7 10.5,-229.7 102.5,-229.7 102.5,-207.7 10.5,-207.7"/>
<text text-anchor="start" x="30.5" y="-214.8" font-family="Helvetica,sans-Serif" font-size="11.00" fill="#000000">lft</text>
<polygon fill="none" stroke="#000000" points="102.5,-207.7 102.5,-229.7 169.5,-229.7 169.5,-207.7 102.5,-207.7"/>
<text text-anchor="start" x="105.5" y="-215.4" font-family="Helvetica,sans-Serif" font-size="11.00" fill="#000000">int[10]</text>
<polygon fill="#ffffff" stroke="transparent" points="10.5,-185.7 10.5,-207.7 102.5,-207.7 102.5,-185.7 10.5,-185.7"/>
<polygon fill="none" stroke="#000000" points="10.5,-185.7 10.5,-207.7 102.5,-207.7 102.5,-185.7 10.5,-185.7"/>
<text text-anchor="start" x="30.5" y="-192.8" font-family="Helvetica,sans-Serif" font-size="11.00" fill="#000000">rght</text>
<polygon fill="none" stroke="#000000" points="102.5,-185.7 102.5,-207.7 169.5,-207.7 169.5,-185.7 102.5,-185.7"/>
<text text-anchor="start" x="105.5" y="-193.4" font-family="Helvetica,sans-Serif" font-size="11.00" fill="#000000">int[10]</text>
<polygon fill="none" stroke="#000000" points="10.5,-163.7 10.5,-185.7 102.5,-185.7 102.5,-163.7 10.5,-163.7"/>
<text text-anchor="start" x="30.5" y="-170.8" font-family="Helvetica,sans-Serif" font-size="11.00" fill="#000000">aco_spec</text>
<polygon fill="none" stroke="#000000" points="102.5,-163.7 102.5,-185.7 169.5,-185.7 169.5,-163.7 102.5,-163.7"/>
<text text-anchor="start" x="105.5" y="-171.4" font-family="Helvetica,sans-Serif" font-size="11.00" fill="#000000">varchar[63]</text>
<polygon fill="none" stroke="#000000" points="10.5,-141.7 10.5,-163.7 102.5,-163.7 102.5,-141.7 10.5,-141.7"/>
<text text-anchor="start" x="30.5" y="-148.8" font-family="Helvetica,sans-Serif" font-size="11.00" fill="#000000">codes</text>
<polygon fill="none" stroke="#000000" points="102.5,-141.7 102.5,-163.7 169.5,-163.7 169.5,-141.7 102.5,-141.7"/>
<text text-anchor="start" x="105.4365" y="-149.4" font-family="Helvetica,sans-Serif" font-size="11.00" fill="#000000">varchar[255]</text>
<polygon fill="#ffffff" stroke="transparent" points="10.5,-122.7 10.5,-141.7 60.5,-141.7 60.5,-122.7 10.5,-122.7"/>
<polygon fill="none" stroke="#000000" points="10.5,-122.7 10.5,-141.7 60.5,-141.7 60.5,-122.7 10.5,-122.7"/>
<text text-anchor="start" x="13.5" y="-128.8" font-family="Helvetica,sans-Serif" font-size="11.00" fill="#000000">&lt; 0</text>
<polygon fill="#ffffff" stroke="transparent" points="60.5,-122.7 60.5,-141.7 102.5,-141.7 102.5,-122.7 60.5,-122.7"/>
<polygon fill="none" stroke="#000000" points="60.5,-122.7 60.5,-141.7 102.5,-141.7 102.5,-122.7 60.5,-122.7"/>
<text text-anchor="start" x="93.3862" y="-128.8" font-family="Helvetica,sans-Serif" font-size="11.00" fill="#000000"> &#160;</text>
<polygon fill="#ffffff" stroke="transparent" points="102.5,-122.7 102.5,-141.7 169.5,-141.7 169.5,-122.7 102.5,-122.7"/>
<polygon fill="none" stroke="#000000" points="102.5,-122.7 102.5,-141.7 169.5,-141.7 169.5,-122.7 102.5,-122.7"/>
<text text-anchor="start" x="150.9053" y="-128.8" font-family="Helvetica,sans-Serif" font-size="11.00" fill="#000000">1 &gt;</text>
<polygon fill="none" stroke="#000000" stroke-width="2" points="9,-121.7 9,-341.7 170,-341.7 170,-121.7 9,-121.7"/>
</a>
</g>
</g>
<!-- categories_to_documents&#45;&gt;categories -->
<g id="edge1" class="edge">
<title>categories_to_documents:w&#45;&gt;categories:e</title>
<path fill="none" stroke="#000000" d="M206.0379,-200.3599C177.3671,-219.4466 217.411,-306.7 169.5,-306.7"/>
<polygon fill="#000000" stroke="#000000" points="212.2614,-198.7286 220.9128,-200.1823 216.1307,-197.7143 220,-196.7 220,-196.7 220,-196.7 216.1307,-197.7143 219.0872,-193.2177 212.2614,-198.7286 212.2614,-198.7286"/>
<ellipse fill="none" stroke="#000000" cx="209.166" cy="-199.54" rx="3.2" ry="3.2"/>
</g>
<!-- documents -->
<g id="node3" class="node">
<title>documents</title>
<g id="a_node3"><a xlink:href="../../tables/documents.html" xlink:title="documents" target="_top">
<polygon fill="#ffffff" stroke="transparent" points="33,-38.2 33,-99.2 146,-99.2 146,-38.2 33,-38.2"/>
<polygon fill="#f5f5f5" stroke="transparent" points="33.5,-75.7 33.5,-98.7 146.5,-98.7 146.5,-75.7 33.5,-75.7"/>
<polygon fill="none" stroke="#000000" points="33.5,-75.7 33.5,-98.7 146.5,-98.7 146.5,-75.7 33.5,-75.7"/>
<text text-anchor="start" x="38.5" y="-84.3" font-family="Helvetica,sans-Serif" font-weight="bold" font-size="11.00" fill="#000000">documents</text>
<text text-anchor="start" x="112.0219" y="-83.8" font-family="Helvetica,sans-Serif" font-size="11.00" fill="#000000">[table]</text>
<polygon fill="none" stroke="#000000" points="33.5,-56.7 33.5,-75.7 146.5,-75.7 146.5,-56.7 33.5,-56.7"/>
<text text-anchor="start" x="36.5" y="-62.8" font-family="Helvetica,sans-Serif" font-size="11.00" fill="#000000">...</text>
<polygon fill="#ffffff" stroke="transparent" points="33.5,-37.7 33.5,-56.7 83.5,-56.7 83.5,-37.7 33.5,-37.7"/>
<polygon fill="none" stroke="#000000" points="33.5,-37.7 33.5,-56.7 83.5,-56.7 83.5,-37.7 33.5,-37.7"/>
<text text-anchor="start" x="36.5" y="-43.8" font-family="Helvetica,sans-Serif" font-size="11.00" fill="#000000">&lt; 4</text>
<polygon fill="#ffffff" stroke="transparent" points="83.5,-37.7 83.5,-56.7 110.5,-56.7 110.5,-37.7 83.5,-37.7"/>
<polygon fill="none" stroke="#000000" points="83.5,-37.7 83.5,-56.7 110.5,-56.7 110.5,-37.7 83.5,-37.7"/>
<text text-anchor="start" x="101.3862" y="-43.8" font-family="Helvetica,sans-Serif" font-size="11.00" fill="#000000"> &#160;</text>
<polygon fill="#ffffff" stroke="transparent" points="110.5,-37.7 110.5,-56.7 146.5,-56.7 146.5,-37.7 110.5,-37.7"/>
<polygon fill="none" stroke="#000000" points="110.5,-37.7 110.5,-56.7 146.5,-56.7 146.5,-37.7 110.5,-37.7"/>
<text text-anchor="start" x="127.9053" y="-43.8" font-family="Helvetica,sans-Serif" font-size="11.00" fill="#000000">4 &gt;</text>
</a>
</g>
</g>
<!-- categories_to_documents&#45;&gt;documents -->
<g id="edge2" class="edge">
<title>categories_to_documents:w&#45;&gt;documents:e</title>
<path fill="none" stroke="#000000" d="M205.6046,-171.7845C169.0685,-154.4504 199.2233,-65.7 146.5,-65.7"/>
<polygon fill="#000000" stroke="#000000" points="212.1592,-173.112 219.2854,-178.2284 216.0796,-173.906 220,-174.7 220,-174.7 220,-174.7 216.0796,-173.906 220.7146,-171.1716 212.1592,-173.112 212.1592,-173.112"/>
<ellipse fill="none" stroke="#000000" cx="209.0229" cy="-172.4767" rx="3.2" ry="3.2"/>
</g>
</g>
</svg>
