<?xml version="1.0" encoding="UTF-8" standalone="no"?>
<!DOCTYPE svg PUBLIC "-//W3C//DTD SVG 1.1//EN"
 "http://www.w3.org/Graphics/SVG/1.1/DTD/svg11.dtd">
<!-- Generated by graphviz version 2.40.1 (20161225.0304)
 -->
<!-- Title: oneDegreeRelationshipsDiagram Pages: 1 -->
<svg width="272pt" height="294pt"
 viewBox="0.00 0.00 272.00 294.20" xmlns="http://www.w3.org/2000/svg" xmlns:xlink="http://www.w3.org/1999/xlink">
<g id="graph0" class="graph" transform="scale(1 1) rotate(0) translate(4 290.2)">
<title>oneDegreeRelationshipsDiagram</title>
<polygon fill="#ffffff" stroke="transparent" points="-4,4 -4,-290.2 268,-290.2 268,4 -4,4"/>
<text text-anchor="middle" x="72.4936" y="-7.3" font-family="Helvetica,sans-Serif" font-size="11.00" fill="#000000">Generated by SchemaSpy</text>
<!-- ccda_table_mapping -->
<g id="node1" class="node">
<title>ccda_table_mapping</title>
<g id="a_node1"><a xlink:href="../../tables/ccda_table_mapping.html" xlink:title="ccda_table_mapping" target="_top">
<polygon fill="#ffffff" stroke="transparent" points="8,-38.2 8,-282.2 256,-282.2 256,-38.2 8,-38.2"/>
<polygon fill="#f5f5f5" stroke="transparent" points="10,-257.2 10,-280.2 254,-280.2 254,-257.2 10,-257.2"/>
<polygon fill="none" stroke="#000000" points="10,-257.2 10,-280.2 254,-280.2 254,-257.2 10,-257.2"/>
<text text-anchor="start" x="15" y="-265.8" font-family="Helvetica,sans-Serif" font-weight="bold" font-size="11.00" fill="#000000">ccda_table_mapping</text>
<text text-anchor="start" x="219.0437" y="-265.3" font-family="Helvetica,sans-Serif" font-size="11.00" fill="#000000">[table]</text>
<polygon fill="none" stroke="#000000" points="10,-235.2 10,-257.2 179,-257.2 179,-235.2 10,-235.2"/>
<image xlink:href="../../images/primaryKeys.png" width="11px" height="12px" preserveAspectRatio="xMinYMin meet" x="15" y="-252.2"/>
<text text-anchor="start" x="30" y="-242.3" font-family="Helvetica,sans-Serif" font-size="11.00" fill="#000000">id</text>
<polygon fill="none" stroke="#000000" points="179,-235.2 179,-257.2 254,-257.2 254,-235.2 179,-235.2"/>
<text text-anchor="start" x="182" y="-242.9" font-family="Helvetica,sans-Serif" font-size="11.00" fill="#000000">int[10]</text>
<polygon fill="none" stroke="#000000" points="10,-213.2 10,-235.2 179,-235.2 179,-213.2 10,-213.2"/>
<text text-anchor="start" x="30" y="-220.3" font-family="Helvetica,sans-Serif" font-size="11.00" fill="#000000">ccda_component</text>
<polygon fill="none" stroke="#000000" points="179,-213.2 179,-235.2 254,-235.2 254,-213.2 179,-213.2"/>
<text text-anchor="start" x="182" y="-220.9" font-family="Helvetica,sans-Serif" font-size="11.00" fill="#000000">varchar[100]</text>
<polygon fill="none" stroke="#000000" points="10,-191.2 10,-213.2 179,-213.2 179,-191.2 10,-191.2"/>
<text text-anchor="start" x="30" y="-198.3" font-family="Helvetica,sans-Serif" font-size="11.00" fill="#000000">ccda_component_section</text>
<polygon fill="none" stroke="#000000" points="179,-191.2 179,-213.2 254,-213.2 254,-191.2 179,-191.2"/>
<text text-anchor="start" x="182" y="-198.9" font-family="Helvetica,sans-Serif" font-size="11.00" fill="#000000">varchar[100]</text>
<polygon fill="none" stroke="#000000" points="10,-169.2 10,-191.2 179,-191.2 179,-169.2 10,-169.2"/>
<text text-anchor="start" x="30" y="-176.3" font-family="Helvetica,sans-Serif" font-size="11.00" fill="#000000">form_dir</text>
<polygon fill="none" stroke="#000000" points="179,-169.2 179,-191.2 254,-191.2 254,-169.2 179,-169.2"/>
<text text-anchor="start" x="182" y="-176.9" font-family="Helvetica,sans-Serif" font-size="11.00" fill="#000000">varchar[100]</text>
<polygon fill="none" stroke="#000000" points="10,-147.2 10,-169.2 179,-169.2 179,-147.2 10,-147.2"/>
<text text-anchor="start" x="30" y="-154.3" font-family="Helvetica,sans-Serif" font-size="11.00" fill="#000000">form_type</text>
<polygon fill="none" stroke="#000000" points="179,-147.2 179,-169.2 254,-169.2 254,-147.2 179,-147.2"/>
<text text-anchor="start" x="182" y="-154.9" font-family="Helvetica,sans-Serif" font-size="11.00" fill="#000000">smallint[5]</text>
<polygon fill="none" stroke="#000000" points="10,-125.2 10,-147.2 179,-147.2 179,-125.2 10,-125.2"/>
<text text-anchor="start" x="30" y="-132.3" font-family="Helvetica,sans-Serif" font-size="11.00" fill="#000000">form_table</text>
<polygon fill="none" stroke="#000000" points="179,-125.2 179,-147.2 254,-147.2 254,-125.2 179,-125.2"/>
<text text-anchor="start" x="182" y="-132.9" font-family="Helvetica,sans-Serif" font-size="11.00" fill="#000000">varchar[100]</text>
<polygon fill="none" stroke="#000000" points="10,-103.2 10,-125.2 179,-125.2 179,-103.2 10,-103.2"/>
<text text-anchor="start" x="30" y="-110.3" font-family="Helvetica,sans-Serif" font-size="11.00" fill="#000000">user_id</text>
<polygon fill="none" stroke="#000000" points="179,-103.2 179,-125.2 254,-125.2 254,-103.2 179,-103.2"/>
<text text-anchor="start" x="182" y="-110.9" font-family="Helvetica,sans-Serif" font-size="11.00" fill="#000000">int[10]</text>
<polygon fill="none" stroke="#000000" points="10,-81.2 10,-103.2 179,-103.2 179,-81.2 10,-81.2"/>
<text text-anchor="start" x="30" y="-88.3" font-family="Helvetica,sans-Serif" font-size="11.00" fill="#000000">deleted</text>
<polygon fill="none" stroke="#000000" points="179,-81.2 179,-103.2 254,-103.2 254,-81.2 179,-81.2"/>
<text text-anchor="start" x="182" y="-88.9" font-family="Helvetica,sans-Serif" font-size="11.00" fill="#000000">tinyint[3]</text>
<polygon fill="none" stroke="#000000" points="10,-59.2 10,-81.2 179,-81.2 179,-59.2 10,-59.2"/>
<text text-anchor="start" x="30" y="-66.3" font-family="Helvetica,sans-Serif" font-size="11.00" fill="#000000">timestamp</text>
<polygon fill="none" stroke="#000000" points="179,-59.2 179,-81.2 254,-81.2 254,-59.2 179,-59.2"/>
<text text-anchor="start" x="181.9666" y="-66.9" font-family="Helvetica,sans-Serif" font-size="11.00" fill="#000000">timestamp[19]</text>
<polygon fill="#ffffff" stroke="transparent" points="10,-40.2 10,-59.2 99,-59.2 99,-40.2 10,-40.2"/>
<polygon fill="none" stroke="#000000" points="10,-40.2 10,-59.2 99,-59.2 99,-40.2 10,-40.2"/>
<text text-anchor="start" x="13" y="-46.3" font-family="Helvetica,sans-Serif" font-size="11.00" fill="#000000">&lt; 0</text>
<polygon fill="#ffffff" stroke="transparent" points="99,-40.2 99,-59.2 179,-59.2 179,-40.2 99,-40.2"/>
<polygon fill="none" stroke="#000000" points="99,-40.2 99,-59.2 179,-59.2 179,-40.2 99,-40.2"/>
<text text-anchor="start" x="169.8862" y="-46.3" font-family="Helvetica,sans-Serif" font-size="11.00" fill="#000000"> &#160;</text>
<polygon fill="#ffffff" stroke="transparent" points="179,-40.2 179,-59.2 254,-59.2 254,-40.2 179,-40.2"/>
<polygon fill="none" stroke="#000000" points="179,-40.2 179,-59.2 254,-59.2 254,-40.2 179,-40.2"/>
<text text-anchor="start" x="235.4053" y="-46.3" font-family="Helvetica,sans-Serif" font-size="11.00" fill="#000000">0 &gt;</text>
<polygon fill="none" stroke="#000000" stroke-width="2" points="9,-39.2 9,-281.2 255,-281.2 255,-39.2 9,-39.2"/>
</a>
</g>
</g>
</g>
</svg>
