<?xml version="1.0" encoding="UTF-8" standalone="no"?>
<!DOCTYPE svg PUBLIC "-//W3C//DTD SVG 1.1//EN"
 "http://www.w3.org/Graphics/SVG/1.1/DTD/svg11.dtd">
<!-- Generated by graphviz version 2.40.1 (20161225.0304)
 -->
<!-- Title: oneDegreeRelationshipsDiagram Pages: 1 -->
<svg width="235pt" height="404pt"
 viewBox="0.00 0.00 235.00 404.20" xmlns="http://www.w3.org/2000/svg" xmlns:xlink="http://www.w3.org/1999/xlink">
<g id="graph0" class="graph" transform="scale(1 1) rotate(0) translate(4 400.2)">
<title>oneDegreeRelationshipsDiagram</title>
<polygon fill="#ffffff" stroke="transparent" points="-4,4 -4,-400.2 231,-400.2 231,4 -4,4"/>
<text text-anchor="middle" x="72.4936" y="-7.3" font-family="Helvetica,sans-Serif" font-size="11.00" fill="#000000">Generated by SchemaSpy</text>
<!-- codes_history -->
<g id="node1" class="node">
<title>codes_history</title>
<g id="a_node1"><a xlink:href="../../tables/codes_history.html" xlink:title="codes_history" target="_top">
<polygon fill="#ffffff" stroke="transparent" points="8,-38.2 8,-392.2 219,-392.2 219,-38.2 8,-38.2"/>
<polygon fill="#f5f5f5" stroke="transparent" points="10.5,-367.2 10.5,-390.2 217.5,-390.2 217.5,-367.2 10.5,-367.2"/>
<polygon fill="none" stroke="#000000" points="10.5,-367.2 10.5,-390.2 217.5,-390.2 217.5,-367.2 10.5,-367.2"/>
<text text-anchor="start" x="15.5" y="-375.8" font-family="Helvetica,sans-Serif" font-weight="bold" font-size="11.00" fill="#000000">codes_history</text>
<text text-anchor="start" x="182.5437" y="-375.3" font-family="Helvetica,sans-Serif" font-size="11.00" fill="#000000">[table]</text>
<polygon fill="none" stroke="#000000" points="10.5,-345.2 10.5,-367.2 150.5,-367.2 150.5,-345.2 10.5,-345.2"/>
<image xlink:href="../../images/primaryKeys.png" width="11px" height="12px" preserveAspectRatio="xMinYMin meet" x="15.5" y="-362.2"/>
<text text-anchor="start" x="30.5" y="-352.3" font-family="Helvetica,sans-Serif" font-size="11.00" fill="#000000">log_id</text>
<polygon fill="none" stroke="#000000" points="150.5,-345.2 150.5,-367.2 217.5,-367.2 217.5,-345.2 150.5,-345.2"/>
<text text-anchor="start" x="153.5" y="-352.9" font-family="Helvetica,sans-Serif" font-size="11.00" fill="#000000">bigint[19]</text>
<polygon fill="none" stroke="#000000" points="10.5,-323.2 10.5,-345.2 150.5,-345.2 150.5,-323.2 10.5,-323.2"/>
<text text-anchor="start" x="30.5" y="-330.3" font-family="Helvetica,sans-Serif" font-size="11.00" fill="#000000">date</text>
<polygon fill="none" stroke="#000000" points="150.5,-323.2 150.5,-345.2 217.5,-345.2 217.5,-323.2 150.5,-323.2"/>
<text text-anchor="start" x="153.5" y="-330.9" font-family="Helvetica,sans-Serif" font-size="11.00" fill="#000000">datetime[19]</text>
<polygon fill="none" stroke="#000000" points="10.5,-301.2 10.5,-323.2 150.5,-323.2 150.5,-301.2 10.5,-301.2"/>
<text text-anchor="start" x="30.5" y="-308.3" font-family="Helvetica,sans-Serif" font-size="11.00" fill="#000000">code</text>
<polygon fill="none" stroke="#000000" points="150.5,-301.2 150.5,-323.2 217.5,-323.2 217.5,-301.2 150.5,-301.2"/>
<text text-anchor="start" x="153.5" y="-308.9" font-family="Helvetica,sans-Serif" font-size="11.00" fill="#000000">varchar[25]</text>
<polygon fill="none" stroke="#000000" points="10.5,-279.2 10.5,-301.2 150.5,-301.2 150.5,-279.2 10.5,-279.2"/>
<text text-anchor="start" x="30.5" y="-286.3" font-family="Helvetica,sans-Serif" font-size="11.00" fill="#000000">modifier</text>
<polygon fill="none" stroke="#000000" points="150.5,-279.2 150.5,-301.2 217.5,-301.2 217.5,-279.2 150.5,-279.2"/>
<text text-anchor="start" x="153.5" y="-286.9" font-family="Helvetica,sans-Serif" font-size="11.00" fill="#000000">varchar[12]</text>
<polygon fill="none" stroke="#000000" points="10.5,-257.2 10.5,-279.2 150.5,-279.2 150.5,-257.2 10.5,-257.2"/>
<text text-anchor="start" x="30.5" y="-264.3" font-family="Helvetica,sans-Serif" font-size="11.00" fill="#000000">active</text>
<polygon fill="none" stroke="#000000" points="150.5,-257.2 150.5,-279.2 217.5,-279.2 217.5,-257.2 150.5,-257.2"/>
<text text-anchor="start" x="153.5" y="-264.9" font-family="Helvetica,sans-Serif" font-size="11.00" fill="#000000">boolean[3]</text>
<polygon fill="none" stroke="#000000" points="10.5,-235.2 10.5,-257.2 150.5,-257.2 150.5,-235.2 10.5,-235.2"/>
<text text-anchor="start" x="30.5" y="-242.3" font-family="Helvetica,sans-Serif" font-size="11.00" fill="#000000">diagnosis_reporting</text>
<polygon fill="none" stroke="#000000" points="150.5,-235.2 150.5,-257.2 217.5,-257.2 217.5,-235.2 150.5,-235.2"/>
<text text-anchor="start" x="153.5" y="-242.9" font-family="Helvetica,sans-Serif" font-size="11.00" fill="#000000">boolean[3]</text>
<polygon fill="none" stroke="#000000" points="10.5,-213.2 10.5,-235.2 150.5,-235.2 150.5,-213.2 10.5,-213.2"/>
<text text-anchor="start" x="30.5" y="-220.3" font-family="Helvetica,sans-Serif" font-size="11.00" fill="#000000">financial_reporting</text>
<polygon fill="none" stroke="#000000" points="150.5,-213.2 150.5,-235.2 217.5,-235.2 217.5,-213.2 150.5,-213.2"/>
<text text-anchor="start" x="153.5" y="-220.9" font-family="Helvetica,sans-Serif" font-size="11.00" fill="#000000">boolean[3]</text>
<polygon fill="none" stroke="#000000" points="10.5,-191.2 10.5,-213.2 150.5,-213.2 150.5,-191.2 10.5,-191.2"/>
<text text-anchor="start" x="30.5" y="-198.3" font-family="Helvetica,sans-Serif" font-size="11.00" fill="#000000">category</text>
<polygon fill="none" stroke="#000000" points="150.5,-191.2 150.5,-213.2 217.5,-213.2 217.5,-191.2 150.5,-191.2"/>
<text text-anchor="start" x="153.4365" y="-198.9" font-family="Helvetica,sans-Serif" font-size="11.00" fill="#000000">varchar[255]</text>
<polygon fill="none" stroke="#000000" points="10.5,-169.2 10.5,-191.2 150.5,-191.2 150.5,-169.2 10.5,-169.2"/>
<text text-anchor="start" x="30.5" y="-176.3" font-family="Helvetica,sans-Serif" font-size="11.00" fill="#000000">code_type_name</text>
<polygon fill="none" stroke="#000000" points="150.5,-169.2 150.5,-191.2 217.5,-191.2 217.5,-169.2 150.5,-169.2"/>
<text text-anchor="start" x="153.4365" y="-176.9" font-family="Helvetica,sans-Serif" font-size="11.00" fill="#000000">varchar[255]</text>
<polygon fill="none" stroke="#000000" points="10.5,-147.2 10.5,-169.2 150.5,-169.2 150.5,-147.2 10.5,-147.2"/>
<text text-anchor="start" x="30.5" y="-154.3" font-family="Helvetica,sans-Serif" font-size="11.00" fill="#000000">code_text</text>
<polygon fill="none" stroke="#000000" points="150.5,-147.2 150.5,-169.2 217.5,-169.2 217.5,-147.2 150.5,-147.2"/>
<text text-anchor="start" x="153.5" y="-154.9" font-family="Helvetica,sans-Serif" font-size="11.00" fill="#000000">text[65535]</text>
<polygon fill="none" stroke="#000000" points="10.5,-125.2 10.5,-147.2 150.5,-147.2 150.5,-125.2 10.5,-125.2"/>
<text text-anchor="start" x="30.5" y="-132.3" font-family="Helvetica,sans-Serif" font-size="11.00" fill="#000000">code_text_short</text>
<polygon fill="none" stroke="#000000" points="150.5,-125.2 150.5,-147.2 217.5,-147.2 217.5,-125.2 150.5,-125.2"/>
<text text-anchor="start" x="153.5" y="-132.9" font-family="Helvetica,sans-Serif" font-size="11.00" fill="#000000">text[65535]</text>
<polygon fill="none" stroke="#000000" points="10.5,-103.2 10.5,-125.2 150.5,-125.2 150.5,-103.2 10.5,-103.2"/>
<text text-anchor="start" x="30.5" y="-110.3" font-family="Helvetica,sans-Serif" font-size="11.00" fill="#000000">prices</text>
<polygon fill="none" stroke="#000000" points="150.5,-103.2 150.5,-125.2 217.5,-125.2 217.5,-103.2 150.5,-103.2"/>
<text text-anchor="start" x="153.5" y="-110.9" font-family="Helvetica,sans-Serif" font-size="11.00" fill="#000000">text[65535]</text>
<polygon fill="none" stroke="#000000" points="10.5,-81.2 10.5,-103.2 150.5,-103.2 150.5,-81.2 10.5,-81.2"/>
<text text-anchor="start" x="30.5" y="-88.3" font-family="Helvetica,sans-Serif" font-size="11.00" fill="#000000">action_type</text>
<polygon fill="none" stroke="#000000" points="150.5,-81.2 150.5,-103.2 217.5,-103.2 217.5,-81.2 150.5,-81.2"/>
<text text-anchor="start" x="153.5" y="-88.9" font-family="Helvetica,sans-Serif" font-size="11.00" fill="#000000">varchar[25]</text>
<polygon fill="none" stroke="#000000" points="10.5,-59.2 10.5,-81.2 150.5,-81.2 150.5,-59.2 10.5,-59.2"/>
<text text-anchor="start" x="30.5" y="-66.3" font-family="Helvetica,sans-Serif" font-size="11.00" fill="#000000">update_by</text>
<polygon fill="none" stroke="#000000" points="150.5,-59.2 150.5,-81.2 217.5,-81.2 217.5,-59.2 150.5,-59.2"/>
<text text-anchor="start" x="153.4365" y="-66.9" font-family="Helvetica,sans-Serif" font-size="11.00" fill="#000000">varchar[255]</text>
<polygon fill="#ffffff" stroke="transparent" points="10.5,-40.2 10.5,-59.2 84.5,-59.2 84.5,-40.2 10.5,-40.2"/>
<polygon fill="none" stroke="#000000" points="10.5,-40.2 10.5,-59.2 84.5,-59.2 84.5,-40.2 10.5,-40.2"/>
<text text-anchor="start" x="13.5" y="-46.3" font-family="Helvetica,sans-Serif" font-size="11.00" fill="#000000">&lt; 0</text>
<polygon fill="#ffffff" stroke="transparent" points="84.5,-40.2 84.5,-59.2 150.5,-59.2 150.5,-40.2 84.5,-40.2"/>
<polygon fill="none" stroke="#000000" points="84.5,-40.2 84.5,-59.2 150.5,-59.2 150.5,-40.2 84.5,-40.2"/>
<text text-anchor="start" x="141.3862" y="-46.3" font-family="Helvetica,sans-Serif" font-size="11.00" fill="#000000"> &#160;</text>
<polygon fill="#ffffff" stroke="transparent" points="150.5,-40.2 150.5,-59.2 217.5,-59.2 217.5,-40.2 150.5,-40.2"/>
<polygon fill="none" stroke="#000000" points="150.5,-40.2 150.5,-59.2 217.5,-59.2 217.5,-40.2 150.5,-40.2"/>
<text text-anchor="start" x="198.9053" y="-46.3" font-family="Helvetica,sans-Serif" font-size="11.00" fill="#000000">0 &gt;</text>
<polygon fill="none" stroke="#000000" stroke-width="2" points="9,-39.2 9,-391.2 218,-391.2 218,-39.2 9,-39.2"/>
</a>
</g>
</g>
</g>
</svg>
