<?xml version="1.0" encoding="UTF-8" standalone="no"?>
<!DOCTYPE svg PUBLIC "-//W3C//DTD SVG 1.1//EN"
 "http://www.w3.org/Graphics/SVG/1.1/DTD/svg11.dtd">
<!-- Generated by graphviz version 2.40.1 (20161225.0304)
 -->
<!-- Title: oneDegreeRelationshipsDiagram Pages: 1 -->
<svg width="280pt" height="448pt"
 viewBox="0.00 0.00 280.00 448.20" xmlns="http://www.w3.org/2000/svg" xmlns:xlink="http://www.w3.org/1999/xlink">
<g id="graph0" class="graph" transform="scale(1 1) rotate(0) translate(4 444.2)">
<title>oneDegreeRelationshipsDiagram</title>
<polygon fill="#ffffff" stroke="transparent" points="-4,4 -4,-444.2 276,-444.2 276,4 -4,4"/>
<text text-anchor="middle" x="72.4936" y="-7.3" font-family="Helvetica,sans-Serif" font-size="11.00" fill="#000000">Generated by SchemaSpy</text>
<!-- codes -->
<g id="node1" class="node">
<title>codes</title>
<g id="a_node1"><a xlink:href="../../tables/codes.html" xlink:title="codes" target="_top">
<polygon fill="#ffffff" stroke="transparent" points="8,-38.2 8,-436.2 264,-436.2 264,-38.2 8,-38.2"/>
<polygon fill="#f5f5f5" stroke="transparent" points="10,-411.2 10,-434.2 262,-434.2 262,-411.2 10,-411.2"/>
<polygon fill="none" stroke="#000000" points="10,-411.2 10,-434.2 262,-434.2 262,-411.2 10,-411.2"/>
<text text-anchor="start" x="15" y="-419.8" font-family="Helvetica,sans-Serif" font-weight="bold" font-size="11.00" fill="#000000">codes</text>
<text text-anchor="start" x="227.0437" y="-419.3" font-family="Helvetica,sans-Serif" font-size="11.00" fill="#000000">[table]</text>
<polygon fill="none" stroke="#000000" points="10,-389.2 10,-411.2 145,-411.2 145,-389.2 10,-389.2"/>
<image xlink:href="../../images/primaryKeys.png" width="11px" height="12px" preserveAspectRatio="xMinYMin meet" x="15" y="-406.2"/>
<text text-anchor="start" x="30" y="-396.3" font-family="Helvetica,sans-Serif" font-size="11.00" fill="#000000">id</text>
<polygon fill="none" stroke="#000000" points="145,-389.2 145,-411.2 262,-411.2 262,-389.2 145,-389.2"/>
<text text-anchor="start" x="148" y="-396.9" font-family="Helvetica,sans-Serif" font-size="11.00" fill="#000000">int[10]</text>
<polygon fill="none" stroke="#000000" points="10,-367.2 10,-389.2 145,-389.2 145,-367.2 10,-367.2"/>
<text text-anchor="start" x="30" y="-374.3" font-family="Helvetica,sans-Serif" font-size="11.00" fill="#000000">code_text</text>
<polygon fill="none" stroke="#000000" points="145,-367.2 145,-389.2 262,-389.2 262,-367.2 145,-367.2"/>
<text text-anchor="start" x="147.5645" y="-374.9" font-family="Helvetica,sans-Serif" font-size="11.00" fill="#000000">mediumtext[16777215]</text>
<polygon fill="none" stroke="#000000" points="10,-345.2 10,-367.2 145,-367.2 145,-345.2 10,-345.2"/>
<text text-anchor="start" x="30" y="-352.3" font-family="Helvetica,sans-Serif" font-size="11.00" fill="#000000">code_text_short</text>
<polygon fill="none" stroke="#000000" points="145,-345.2 145,-367.2 262,-367.2 262,-345.2 145,-345.2"/>
<text text-anchor="start" x="147.5645" y="-352.9" font-family="Helvetica,sans-Serif" font-size="11.00" fill="#000000">mediumtext[16777215]</text>
<polygon fill="#ffffff" stroke="transparent" points="10,-323.2 10,-345.2 145,-345.2 145,-323.2 10,-323.2"/>
<polygon fill="none" stroke="#000000" points="10,-323.2 10,-345.2 145,-345.2 145,-323.2 10,-323.2"/>
<text text-anchor="start" x="30" y="-330.3" font-family="Helvetica,sans-Serif" font-size="11.00" fill="#000000">code</text>
<polygon fill="none" stroke="#000000" points="145,-323.2 145,-345.2 262,-345.2 262,-323.2 145,-323.2"/>
<text text-anchor="start" x="148" y="-330.9" font-family="Helvetica,sans-Serif" font-size="11.00" fill="#000000">varchar[25]</text>
<polygon fill="#ffffff" stroke="transparent" points="10,-301.2 10,-323.2 145,-323.2 145,-301.2 10,-301.2"/>
<polygon fill="none" stroke="#000000" points="10,-301.2 10,-323.2 145,-323.2 145,-301.2 10,-301.2"/>
<text text-anchor="start" x="30" y="-308.3" font-family="Helvetica,sans-Serif" font-size="11.00" fill="#000000">code_type</text>
<polygon fill="none" stroke="#000000" points="145,-301.2 145,-323.2 262,-323.2 262,-301.2 145,-301.2"/>
<text text-anchor="start" x="148" y="-308.9" font-family="Helvetica,sans-Serif" font-size="11.00" fill="#000000">smallint[5]</text>
<polygon fill="none" stroke="#000000" points="10,-279.2 10,-301.2 145,-301.2 145,-279.2 10,-279.2"/>
<text text-anchor="start" x="30" y="-286.3" font-family="Helvetica,sans-Serif" font-size="11.00" fill="#000000">modifier</text>
<polygon fill="none" stroke="#000000" points="145,-279.2 145,-301.2 262,-301.2 262,-279.2 145,-279.2"/>
<text text-anchor="start" x="148" y="-286.9" font-family="Helvetica,sans-Serif" font-size="11.00" fill="#000000">varchar[12]</text>
<polygon fill="none" stroke="#000000" points="10,-257.2 10,-279.2 145,-279.2 145,-257.2 10,-257.2"/>
<text text-anchor="start" x="30" y="-264.3" font-family="Helvetica,sans-Serif" font-size="11.00" fill="#000000">units</text>
<polygon fill="none" stroke="#000000" points="145,-257.2 145,-279.2 262,-279.2 262,-257.2 145,-257.2"/>
<text text-anchor="start" x="148" y="-264.9" font-family="Helvetica,sans-Serif" font-size="11.00" fill="#000000">int[10]</text>
<polygon fill="none" stroke="#000000" points="10,-235.2 10,-257.2 145,-257.2 145,-235.2 10,-235.2"/>
<text text-anchor="start" x="30" y="-242.3" font-family="Helvetica,sans-Serif" font-size="11.00" fill="#000000">fee</text>
<polygon fill="none" stroke="#000000" points="145,-235.2 145,-257.2 262,-257.2 262,-235.2 145,-235.2"/>
<text text-anchor="start" x="148" y="-242.9" font-family="Helvetica,sans-Serif" font-size="11.00" fill="#000000">decimal[12,2]</text>
<polygon fill="none" stroke="#000000" points="10,-213.2 10,-235.2 145,-235.2 145,-213.2 10,-213.2"/>
<text text-anchor="start" x="30" y="-220.3" font-family="Helvetica,sans-Serif" font-size="11.00" fill="#000000">superbill</text>
<polygon fill="none" stroke="#000000" points="145,-213.2 145,-235.2 262,-235.2 262,-213.2 145,-213.2"/>
<text text-anchor="start" x="148" y="-220.9" font-family="Helvetica,sans-Serif" font-size="11.00" fill="#000000">varchar[31]</text>
<polygon fill="none" stroke="#000000" points="10,-191.2 10,-213.2 145,-213.2 145,-191.2 10,-191.2"/>
<text text-anchor="start" x="30" y="-198.3" font-family="Helvetica,sans-Serif" font-size="11.00" fill="#000000">related_code</text>
<polygon fill="none" stroke="#000000" points="145,-191.2 145,-213.2 262,-213.2 262,-191.2 145,-191.2"/>
<text text-anchor="start" x="148" y="-198.9" font-family="Helvetica,sans-Serif" font-size="11.00" fill="#000000">varchar[255]</text>
<polygon fill="none" stroke="#000000" points="10,-169.2 10,-191.2 145,-191.2 145,-169.2 10,-169.2"/>
<text text-anchor="start" x="30" y="-176.3" font-family="Helvetica,sans-Serif" font-size="11.00" fill="#000000">taxrates</text>
<polygon fill="none" stroke="#000000" points="145,-169.2 145,-191.2 262,-191.2 262,-169.2 145,-169.2"/>
<text text-anchor="start" x="148" y="-176.9" font-family="Helvetica,sans-Serif" font-size="11.00" fill="#000000">varchar[255]</text>
<polygon fill="none" stroke="#000000" points="10,-147.2 10,-169.2 145,-169.2 145,-147.2 10,-147.2"/>
<text text-anchor="start" x="30" y="-154.3" font-family="Helvetica,sans-Serif" font-size="11.00" fill="#000000">cyp_factor</text>
<polygon fill="none" stroke="#000000" points="145,-147.2 145,-169.2 262,-169.2 262,-147.2 145,-147.2"/>
<text text-anchor="start" x="148" y="-154.9" font-family="Helvetica,sans-Serif" font-size="11.00" fill="#000000">float[12]</text>
<polygon fill="none" stroke="#000000" points="10,-125.2 10,-147.2 145,-147.2 145,-125.2 10,-125.2"/>
<text text-anchor="start" x="30" y="-132.3" font-family="Helvetica,sans-Serif" font-size="11.00" fill="#000000">active</text>
<polygon fill="none" stroke="#000000" points="145,-125.2 145,-147.2 262,-147.2 262,-125.2 145,-125.2"/>
<text text-anchor="start" x="148" y="-132.9" font-family="Helvetica,sans-Serif" font-size="11.00" fill="#000000">boolean[3]</text>
<polygon fill="none" stroke="#000000" points="10,-103.2 10,-125.2 145,-125.2 145,-103.2 10,-103.2"/>
<text text-anchor="start" x="30" y="-110.3" font-family="Helvetica,sans-Serif" font-size="11.00" fill="#000000">reportable</text>
<polygon fill="none" stroke="#000000" points="145,-103.2 145,-125.2 262,-125.2 262,-103.2 145,-103.2"/>
<text text-anchor="start" x="148" y="-110.9" font-family="Helvetica,sans-Serif" font-size="11.00" fill="#000000">boolean[3]</text>
<polygon fill="none" stroke="#000000" points="10,-81.2 10,-103.2 145,-103.2 145,-81.2 10,-81.2"/>
<text text-anchor="start" x="30" y="-88.3" font-family="Helvetica,sans-Serif" font-size="11.00" fill="#000000">financial_reporting</text>
<polygon fill="none" stroke="#000000" points="145,-81.2 145,-103.2 262,-103.2 262,-81.2 145,-81.2"/>
<text text-anchor="start" x="148" y="-88.9" font-family="Helvetica,sans-Serif" font-size="11.00" fill="#000000">boolean[3]</text>
<polygon fill="none" stroke="#000000" points="10,-59.2 10,-81.2 145,-81.2 145,-59.2 10,-59.2"/>
<text text-anchor="start" x="30" y="-66.3" font-family="Helvetica,sans-Serif" font-size="11.00" fill="#000000">revenue_code</text>
<polygon fill="none" stroke="#000000" points="145,-59.2 145,-81.2 262,-81.2 262,-59.2 145,-59.2"/>
<text text-anchor="start" x="148" y="-66.9" font-family="Helvetica,sans-Serif" font-size="11.00" fill="#000000">varchar[6]</text>
<polygon fill="#ffffff" stroke="transparent" points="10,-40.2 10,-59.2 82,-59.2 82,-40.2 10,-40.2"/>
<polygon fill="none" stroke="#000000" points="10,-40.2 10,-59.2 82,-59.2 82,-40.2 10,-40.2"/>
<text text-anchor="start" x="13" y="-46.3" font-family="Helvetica,sans-Serif" font-size="11.00" fill="#000000">&lt; 0</text>
<polygon fill="#ffffff" stroke="transparent" points="82,-40.2 82,-59.2 145,-59.2 145,-40.2 82,-40.2"/>
<polygon fill="none" stroke="#000000" points="82,-40.2 82,-59.2 145,-59.2 145,-40.2 82,-40.2"/>
<text text-anchor="start" x="135.8862" y="-46.3" font-family="Helvetica,sans-Serif" font-size="11.00" fill="#000000"> &#160;</text>
<polygon fill="#ffffff" stroke="transparent" points="145,-40.2 145,-59.2 262,-59.2 262,-40.2 145,-40.2"/>
<polygon fill="none" stroke="#000000" points="145,-40.2 145,-59.2 262,-59.2 262,-40.2 145,-40.2"/>
<text text-anchor="start" x="243.4053" y="-46.3" font-family="Helvetica,sans-Serif" font-size="11.00" fill="#000000">0 &gt;</text>
<polygon fill="none" stroke="#000000" stroke-width="2" points="9,-39.2 9,-435.2 263,-435.2 263,-39.2 9,-39.2"/>
</a>
</g>
</g>
</g>
</svg>
