<?xml version="1.0" encoding="UTF-8" standalone="no"?>
<!DOCTYPE svg PUBLIC "-//W3C//DTD SVG 1.1//EN"
 "http://www.w3.org/Graphics/SVG/1.1/DTD/svg11.dtd">
<!-- Generated by graphviz version 2.40.1 (20161225.0304)
 -->
<!-- Title: oneDegreeRelationshipsDiagram Pages: 1 -->
<svg width="329pt" height="228pt"
 viewBox="0.00 0.00 329.00 228.20" xmlns="http://www.w3.org/2000/svg" xmlns:xlink="http://www.w3.org/1999/xlink">
<g id="graph0" class="graph" transform="scale(1 1) rotate(0) translate(4 224.2)">
<title>oneDegreeRelationshipsDiagram</title>
<polygon fill="#ffffff" stroke="transparent" points="-4,4 -4,-224.2 325,-224.2 325,4 -4,4"/>
<text text-anchor="middle" x="72.4936" y="-7.3" font-family="Helvetica,sans-Serif" font-size="11.00" fill="#000000">Generated by SchemaSpy</text>
<!-- comlink_telehealth_person_settings -->
<g id="node1" class="node">
<title>comlink_telehealth_person_settings</title>
<g id="a_node1"><a xlink:href="../../tables/comlink_telehealth_person_settings.html" xlink:title="comlink_telehealth_person_settings" target="_top">
<polygon fill="#ffffff" stroke="transparent" points="8,-38.2 8,-216.2 313,-216.2 313,-38.2 8,-38.2"/>
<polygon fill="#f5f5f5" stroke="transparent" points="10.5,-191.2 10.5,-214.2 311.5,-214.2 311.5,-191.2 10.5,-191.2"/>
<polygon fill="none" stroke="#000000" points="10.5,-191.2 10.5,-214.2 311.5,-214.2 311.5,-191.2 10.5,-191.2"/>
<text text-anchor="start" x="15.5" y="-199.8" font-family="Helvetica,sans-Serif" font-weight="bold" font-size="11.00" fill="#000000">comlink_telehealth_person_settings</text>
<text text-anchor="start" x="276.5437" y="-199.3" font-family="Helvetica,sans-Serif" font-size="11.00" fill="#000000">[table]</text>
<polygon fill="none" stroke="#000000" points="10.5,-169.2 10.5,-191.2 245.5,-191.2 245.5,-169.2 10.5,-169.2"/>
<image xlink:href="../../images/primaryKeys.png" width="11px" height="12px" preserveAspectRatio="xMinYMin meet" x="15.5" y="-186.2"/>
<text text-anchor="start" x="30.5" y="-176.3" font-family="Helvetica,sans-Serif" font-size="11.00" fill="#000000">id</text>
<polygon fill="none" stroke="#000000" points="245.5,-169.2 245.5,-191.2 311.5,-191.2 311.5,-169.2 245.5,-169.2"/>
<text text-anchor="start" x="248.5" y="-176.9" font-family="Helvetica,sans-Serif" font-size="11.00" fill="#000000">bigint[19]</text>
<polygon fill="none" stroke="#000000" points="10.5,-147.2 10.5,-169.2 245.5,-169.2 245.5,-147.2 10.5,-147.2"/>
<text text-anchor="start" x="30.5" y="-154.3" font-family="Helvetica,sans-Serif" font-size="11.00" fill="#000000">user_id</text>
<polygon fill="none" stroke="#000000" points="245.5,-147.2 245.5,-169.2 311.5,-169.2 311.5,-147.2 245.5,-147.2"/>
<text text-anchor="start" x="248.5" y="-154.9" font-family="Helvetica,sans-Serif" font-size="11.00" fill="#000000">bigint[19]</text>
<polygon fill="none" stroke="#000000" points="10.5,-125.2 10.5,-147.2 245.5,-147.2 245.5,-125.2 10.5,-125.2"/>
<text text-anchor="start" x="30.5" y="-132.3" font-family="Helvetica,sans-Serif" font-size="11.00" fill="#000000">patient_id</text>
<polygon fill="none" stroke="#000000" points="245.5,-125.2 245.5,-147.2 311.5,-147.2 311.5,-125.2 245.5,-125.2"/>
<text text-anchor="start" x="248.5" y="-132.9" font-family="Helvetica,sans-Serif" font-size="11.00" fill="#000000">bigint[19]</text>
<polygon fill="none" stroke="#000000" points="10.5,-103.2 10.5,-125.2 245.5,-125.2 245.5,-103.2 10.5,-103.2"/>
<text text-anchor="start" x="30.5" y="-110.3" font-family="Helvetica,sans-Serif" font-size="11.00" fill="#000000">date_created</text>
<polygon fill="none" stroke="#000000" points="245.5,-103.2 245.5,-125.2 311.5,-125.2 311.5,-103.2 245.5,-103.2"/>
<text text-anchor="start" x="248.2401" y="-110.9" font-family="Helvetica,sans-Serif" font-size="11.00" fill="#000000">datetime[19]</text>
<polygon fill="none" stroke="#000000" points="10.5,-81.2 10.5,-103.2 245.5,-103.2 245.5,-81.2 10.5,-81.2"/>
<text text-anchor="start" x="30.5" y="-88.3" font-family="Helvetica,sans-Serif" font-size="11.00" fill="#000000">date_updated</text>
<polygon fill="none" stroke="#000000" points="245.5,-81.2 245.5,-103.2 311.5,-103.2 311.5,-81.2 245.5,-81.2"/>
<text text-anchor="start" x="248.2401" y="-88.9" font-family="Helvetica,sans-Serif" font-size="11.00" fill="#000000">datetime[19]</text>
<polygon fill="none" stroke="#000000" points="10.5,-59.2 10.5,-81.2 245.5,-81.2 245.5,-59.2 10.5,-59.2"/>
<text text-anchor="start" x="30.5" y="-66.3" font-family="Helvetica,sans-Serif" font-size="11.00" fill="#000000">enabled</text>
<polygon fill="none" stroke="#000000" points="245.5,-59.2 245.5,-81.2 311.5,-81.2 311.5,-59.2 245.5,-59.2"/>
<text text-anchor="start" x="248.5" y="-66.9" font-family="Helvetica,sans-Serif" font-size="11.00" fill="#000000">boolean[3]</text>
<polygon fill="#ffffff" stroke="transparent" points="10.5,-40.2 10.5,-59.2 132.5,-59.2 132.5,-40.2 10.5,-40.2"/>
<polygon fill="none" stroke="#000000" points="10.5,-40.2 10.5,-59.2 132.5,-59.2 132.5,-40.2 10.5,-40.2"/>
<text text-anchor="start" x="13.5" y="-46.3" font-family="Helvetica,sans-Serif" font-size="11.00" fill="#000000">&lt; 0</text>
<polygon fill="#ffffff" stroke="transparent" points="132.5,-40.2 132.5,-59.2 245.5,-59.2 245.5,-40.2 132.5,-40.2"/>
<polygon fill="none" stroke="#000000" points="132.5,-40.2 132.5,-59.2 245.5,-59.2 245.5,-40.2 132.5,-40.2"/>
<text text-anchor="start" x="236.3862" y="-46.3" font-family="Helvetica,sans-Serif" font-size="11.00" fill="#000000"> &#160;</text>
<polygon fill="#ffffff" stroke="transparent" points="245.5,-40.2 245.5,-59.2 311.5,-59.2 311.5,-40.2 245.5,-40.2"/>
<polygon fill="none" stroke="#000000" points="245.5,-40.2 245.5,-59.2 311.5,-59.2 311.5,-40.2 245.5,-40.2"/>
<text text-anchor="start" x="292.9053" y="-46.3" font-family="Helvetica,sans-Serif" font-size="11.00" fill="#000000">0 &gt;</text>
<polygon fill="none" stroke="#000000" stroke-width="2" points="9,-39.2 9,-215.2 312,-215.2 312,-39.2 9,-39.2"/>
</a>
</g>
</g>
</g>
</svg>
