<?xml version="1.0" encoding="UTF-8" standalone="no"?>
<!DOCTYPE svg PUBLIC "-//W3C//DTD SVG 1.1//EN"
 "http://www.w3.org/Graphics/SVG/1.1/DTD/svg11.dtd">
<!-- Generated by graphviz version 2.40.1 (20161225.0304)
 -->
<!-- Title: oneDegreeRelationshipsDiagram Pages: 1 -->
<svg width="428pt" height="669pt"
 viewBox="0.00 0.00 428.00 669.20" xmlns="http://www.w3.org/2000/svg" xmlns:xlink="http://www.w3.org/1999/xlink">
<g id="graph0" class="graph" transform="scale(1 1) rotate(0) translate(4 665.2)">
<title>oneDegreeRelationshipsDiagram</title>
<polygon fill="#ffffff" stroke="transparent" points="-4,4 -4,-665.2 424,-665.2 424,4 -4,4"/>
<text text-anchor="middle" x="72.4936" y="-7.3" font-family="Helvetica,sans-Serif" font-size="11.00" fill="#000000">Generated by SchemaSpy</text>
<!-- contact_address -->
<g id="node1" class="node">
<title>contact_address</title>
<g id="a_node1"><a xlink:href="../../tables/contact_address.html" xlink:title="contact_address" target="_top">
<polygon fill="#ffffff" stroke="transparent" points="207,-159.7 207,-535.7 412,-535.7 412,-159.7 207,-159.7"/>
<polygon fill="#f5f5f5" stroke="transparent" points="209.5,-510.7 209.5,-533.7 410.5,-533.7 410.5,-510.7 209.5,-510.7"/>
<polygon fill="none" stroke="#000000" points="209.5,-510.7 209.5,-533.7 410.5,-533.7 410.5,-510.7 209.5,-510.7"/>
<text text-anchor="start" x="214.5" y="-519.3" font-family="Helvetica,sans-Serif" font-weight="bold" font-size="11.00" fill="#000000">contact_address</text>
<text text-anchor="start" x="375.5437" y="-518.8" font-family="Helvetica,sans-Serif" font-size="11.00" fill="#000000">[table]</text>
<polygon fill="#ffffff" stroke="transparent" points="209.5,-488.7 209.5,-510.7 343.5,-510.7 343.5,-488.7 209.5,-488.7"/>
<polygon fill="none" stroke="#000000" points="209.5,-488.7 209.5,-510.7 343.5,-510.7 343.5,-488.7 209.5,-488.7"/>
<image xlink:href="../../images/foreignKeys.png" width="11px" height="12px" preserveAspectRatio="xMinYMin meet" x="214.5" y="-505.7"/>
<text text-anchor="start" x="229.5" y="-495.8" font-family="Helvetica,sans-Serif" font-size="11.00" fill="#000000">contact_id</text>
<polygon fill="none" stroke="#000000" points="343.5,-488.7 343.5,-510.7 410.5,-510.7 410.5,-488.7 343.5,-488.7"/>
<text text-anchor="start" x="346.5" y="-496.4" font-family="Helvetica,sans-Serif" font-size="11.00" fill="#000000">bigint[19]</text>
<polygon fill="#ffffff" stroke="transparent" points="209.5,-466.7 209.5,-488.7 343.5,-488.7 343.5,-466.7 209.5,-466.7"/>
<polygon fill="none" stroke="#000000" points="209.5,-466.7 209.5,-488.7 343.5,-488.7 343.5,-466.7 209.5,-466.7"/>
<image xlink:href="../../images/foreignKeys.png" width="11px" height="12px" preserveAspectRatio="xMinYMin meet" x="214.5" y="-483.7"/>
<text text-anchor="start" x="229.5" y="-473.8" font-family="Helvetica,sans-Serif" font-size="11.00" fill="#000000">address_id</text>
<polygon fill="none" stroke="#000000" points="343.5,-466.7 343.5,-488.7 410.5,-488.7 410.5,-466.7 343.5,-466.7"/>
<text text-anchor="start" x="346.5" y="-474.4" font-family="Helvetica,sans-Serif" font-size="11.00" fill="#000000">bigint[19]</text>
<polygon fill="none" stroke="#000000" points="209.5,-444.7 209.5,-466.7 343.5,-466.7 343.5,-444.7 209.5,-444.7"/>
<image xlink:href="../../images/foreignKeys.png" width="11px" height="12px" preserveAspectRatio="xMinYMin meet" x="214.5" y="-461.7"/>
<text text-anchor="start" x="229.5" y="-451.8" font-family="Helvetica,sans-Serif" font-size="11.00" fill="#000000">created_by</text>
<polygon fill="none" stroke="#000000" points="343.5,-444.7 343.5,-466.7 410.5,-466.7 410.5,-444.7 343.5,-444.7"/>
<text text-anchor="start" x="346.5" y="-452.4" font-family="Helvetica,sans-Serif" font-size="11.00" fill="#000000">unknown[0]</text>
<polygon fill="none" stroke="#000000" points="209.5,-422.7 209.5,-444.7 343.5,-444.7 343.5,-422.7 209.5,-422.7"/>
<image xlink:href="../../images/primaryKeys.png" width="11px" height="12px" preserveAspectRatio="xMinYMin meet" x="214.5" y="-439.7"/>
<text text-anchor="start" x="229.5" y="-429.8" font-family="Helvetica,sans-Serif" font-size="11.00" fill="#000000">id</text>
<polygon fill="none" stroke="#000000" points="343.5,-422.7 343.5,-444.7 410.5,-444.7 410.5,-422.7 343.5,-422.7"/>
<text text-anchor="start" x="346.5" y="-430.4" font-family="Helvetica,sans-Serif" font-size="11.00" fill="#000000">bigint[19]</text>
<polygon fill="none" stroke="#000000" points="209.5,-400.7 209.5,-422.7 343.5,-422.7 343.5,-400.7 209.5,-400.7"/>
<text text-anchor="start" x="229.5" y="-407.8" font-family="Helvetica,sans-Serif" font-size="11.00" fill="#000000">priority</text>
<polygon fill="none" stroke="#000000" points="343.5,-400.7 343.5,-422.7 410.5,-422.7 410.5,-400.7 343.5,-400.7"/>
<text text-anchor="start" x="346.5" y="-408.4" font-family="Helvetica,sans-Serif" font-size="11.00" fill="#000000">int[10]</text>
<polygon fill="none" stroke="#000000" points="209.5,-378.7 209.5,-400.7 343.5,-400.7 343.5,-378.7 209.5,-378.7"/>
<image xlink:href="../../images/foreignKeys.png" width="11px" height="12px" preserveAspectRatio="xMinYMin meet" x="214.5" y="-395.7"/>
<text text-anchor="start" x="229.5" y="-385.8" font-family="Helvetica,sans-Serif" font-size="11.00" fill="#000000">type</text>
<polygon fill="none" stroke="#000000" points="343.5,-378.7 343.5,-400.7 410.5,-400.7 410.5,-378.7 343.5,-378.7"/>
<text text-anchor="start" x="346.4365" y="-386.4" font-family="Helvetica,sans-Serif" font-size="11.00" fill="#000000">varchar[255]</text>
<polygon fill="none" stroke="#000000" points="209.5,-356.7 209.5,-378.7 343.5,-378.7 343.5,-356.7 209.5,-356.7"/>
<image xlink:href="../../images/foreignKeys.png" width="11px" height="12px" preserveAspectRatio="xMinYMin meet" x="214.5" y="-373.7"/>
<text text-anchor="start" x="229.5" y="-363.8" font-family="Helvetica,sans-Serif" font-size="11.00" fill="#000000">use</text>
<polygon fill="none" stroke="#000000" points="343.5,-356.7 343.5,-378.7 410.5,-378.7 410.5,-356.7 343.5,-356.7"/>
<text text-anchor="start" x="346.4365" y="-364.4" font-family="Helvetica,sans-Serif" font-size="11.00" fill="#000000">varchar[255]</text>
<polygon fill="none" stroke="#000000" points="209.5,-334.7 209.5,-356.7 343.5,-356.7 343.5,-334.7 209.5,-334.7"/>
<text text-anchor="start" x="229.5" y="-341.8" font-family="Helvetica,sans-Serif" font-size="11.00" fill="#000000">notes</text>
<polygon fill="none" stroke="#000000" points="343.5,-334.7 343.5,-356.7 410.5,-356.7 410.5,-334.7 343.5,-334.7"/>
<text text-anchor="start" x="346.5" y="-342.4" font-family="Helvetica,sans-Serif" font-size="11.00" fill="#000000">tinytext[255]</text>
<polygon fill="none" stroke="#000000" points="209.5,-312.7 209.5,-334.7 343.5,-334.7 343.5,-312.7 209.5,-312.7"/>
<text text-anchor="start" x="229.5" y="-319.8" font-family="Helvetica,sans-Serif" font-size="11.00" fill="#000000">status</text>
<polygon fill="none" stroke="#000000" points="343.5,-312.7 343.5,-334.7 410.5,-334.7 410.5,-312.7 343.5,-312.7"/>
<text text-anchor="start" x="346.5" y="-320.4" font-family="Helvetica,sans-Serif" font-size="11.00" fill="#000000">char[1]</text>
<polygon fill="none" stroke="#000000" points="209.5,-290.7 209.5,-312.7 343.5,-312.7 343.5,-290.7 209.5,-290.7"/>
<text text-anchor="start" x="229.5" y="-297.8" font-family="Helvetica,sans-Serif" font-size="11.00" fill="#000000">is_primary</text>
<polygon fill="none" stroke="#000000" points="343.5,-290.7 343.5,-312.7 410.5,-312.7 410.5,-290.7 343.5,-290.7"/>
<text text-anchor="start" x="346.5" y="-298.4" font-family="Helvetica,sans-Serif" font-size="11.00" fill="#000000">char[1]</text>
<polygon fill="none" stroke="#000000" points="209.5,-268.7 209.5,-290.7 343.5,-290.7 343.5,-268.7 209.5,-268.7"/>
<text text-anchor="start" x="229.5" y="-275.8" font-family="Helvetica,sans-Serif" font-size="11.00" fill="#000000">created_date</text>
<polygon fill="none" stroke="#000000" points="343.5,-268.7 343.5,-290.7 410.5,-290.7 410.5,-268.7 343.5,-268.7"/>
<text text-anchor="start" x="346.5" y="-276.4" font-family="Helvetica,sans-Serif" font-size="11.00" fill="#000000">datetime[19]</text>
<polygon fill="none" stroke="#000000" points="209.5,-246.7 209.5,-268.7 343.5,-268.7 343.5,-246.7 209.5,-246.7"/>
<text text-anchor="start" x="229.5" y="-253.8" font-family="Helvetica,sans-Serif" font-size="11.00" fill="#000000">period_start</text>
<polygon fill="none" stroke="#000000" points="343.5,-246.7 343.5,-268.7 410.5,-268.7 410.5,-246.7 343.5,-246.7"/>
<text text-anchor="start" x="346.5" y="-254.4" font-family="Helvetica,sans-Serif" font-size="11.00" fill="#000000">datetime[19]</text>
<polygon fill="none" stroke="#000000" points="209.5,-224.7 209.5,-246.7 343.5,-246.7 343.5,-224.7 209.5,-224.7"/>
<text text-anchor="start" x="229.5" y="-231.8" font-family="Helvetica,sans-Serif" font-size="11.00" fill="#000000">period_end</text>
<polygon fill="none" stroke="#000000" points="343.5,-224.7 343.5,-246.7 410.5,-246.7 410.5,-224.7 343.5,-224.7"/>
<text text-anchor="start" x="346.5" y="-232.4" font-family="Helvetica,sans-Serif" font-size="11.00" fill="#000000">datetime[19]</text>
<polygon fill="none" stroke="#000000" points="209.5,-202.7 209.5,-224.7 343.5,-224.7 343.5,-202.7 209.5,-202.7"/>
<text text-anchor="start" x="229.5" y="-209.8" font-family="Helvetica,sans-Serif" font-size="11.00" fill="#000000">inactivated_reason</text>
<polygon fill="none" stroke="#000000" points="343.5,-202.7 343.5,-224.7 410.5,-224.7 410.5,-202.7 343.5,-202.7"/>
<text text-anchor="start" x="346.5" y="-210.4" font-family="Helvetica,sans-Serif" font-size="11.00" fill="#000000">varchar[45]</text>
<polygon fill="none" stroke="#000000" points="209.5,-180.7 209.5,-202.7 343.5,-202.7 343.5,-180.7 209.5,-180.7"/>
<image xlink:href="../../images/foreignKeys.png" width="11px" height="12px" preserveAspectRatio="xMinYMin meet" x="214.5" y="-197.7"/>
<text text-anchor="start" x="229.5" y="-187.8" font-family="Helvetica,sans-Serif" font-size="11.00" fill="#000000">updated_by</text>
<polygon fill="none" stroke="#000000" points="343.5,-180.7 343.5,-202.7 410.5,-202.7 410.5,-180.7 343.5,-180.7"/>
<text text-anchor="start" x="346.5" y="-188.4" font-family="Helvetica,sans-Serif" font-size="11.00" fill="#000000">unknown[0]</text>
<polygon fill="#ffffff" stroke="transparent" points="209.5,-161.7 209.5,-180.7 280.5,-180.7 280.5,-161.7 209.5,-161.7"/>
<polygon fill="none" stroke="#000000" points="209.5,-161.7 209.5,-180.7 280.5,-180.7 280.5,-161.7 209.5,-161.7"/>
<text text-anchor="start" x="212.5" y="-167.8" font-family="Helvetica,sans-Serif" font-size="11.00" fill="#000000">&lt; 6</text>
<polygon fill="#ffffff" stroke="transparent" points="280.5,-161.7 280.5,-180.7 343.5,-180.7 343.5,-161.7 280.5,-161.7"/>
<polygon fill="none" stroke="#000000" points="280.5,-161.7 280.5,-180.7 343.5,-180.7 343.5,-161.7 280.5,-161.7"/>
<text text-anchor="start" x="334.3862" y="-167.8" font-family="Helvetica,sans-Serif" font-size="11.00" fill="#000000"> &#160;</text>
<polygon fill="#ffffff" stroke="transparent" points="343.5,-161.7 343.5,-180.7 410.5,-180.7 410.5,-161.7 343.5,-161.7"/>
<polygon fill="none" stroke="#000000" points="343.5,-161.7 343.5,-180.7 410.5,-180.7 410.5,-161.7 343.5,-161.7"/>
<text text-anchor="start" x="391.9053" y="-167.8" font-family="Helvetica,sans-Serif" font-size="11.00" fill="#000000">0 &gt;</text>
<polygon fill="none" stroke="#000000" stroke-width="2" points="208,-160.7 208,-534.7 411,-534.7 411,-160.7 208,-160.7"/>
</a>
</g>
</g>
<!-- addresses -->
<g id="node2" class="node">
<title>addresses</title>
<g id="a_node2"><a xlink:href="../../tables/addresses.html" xlink:title="addresses" target="_top">
<polygon fill="#ffffff" stroke="transparent" points="34,-426.2 34,-531.2 132,-531.2 132,-426.2 34,-426.2"/>
<polygon fill="#f5f5f5" stroke="transparent" points="34,-507.7 34,-530.7 132,-530.7 132,-507.7 34,-507.7"/>
<polygon fill="none" stroke="#000000" points="34,-507.7 34,-530.7 132,-530.7 132,-507.7 34,-507.7"/>
<text text-anchor="start" x="39" y="-516.3" font-family="Helvetica,sans-Serif" font-weight="bold" font-size="11.00" fill="#000000">addresses</text>
<text text-anchor="start" x="97.5219" y="-515.8" font-family="Helvetica,sans-Serif" font-size="11.00" fill="#000000">[table]</text>
<polygon fill="none" stroke="#000000" points="34,-485.7 34,-507.7 132,-507.7 132,-485.7 34,-485.7"/>
<image xlink:href="../../images/primaryKeys.png" width="11px" height="12px" preserveAspectRatio="xMinYMin meet" x="39" y="-502.7"/>
<text text-anchor="start" x="63" y="-492.8" font-family="Helvetica,sans-Serif" font-size="11.00" fill="#000000">id</text>
<polygon fill="#ffffff" stroke="transparent" points="34,-463.7 34,-485.7 132,-485.7 132,-463.7 34,-463.7"/>
<polygon fill="none" stroke="#000000" points="34,-463.7 34,-485.7 132,-485.7 132,-463.7 34,-463.7"/>
<text text-anchor="start" x="63" y="-470.8" font-family="Helvetica,sans-Serif" font-size="11.00" fill="#000000">foreign_id</text>
<polygon fill="none" stroke="#000000" points="34,-444.7 34,-463.7 132,-463.7 132,-444.7 34,-444.7"/>
<text text-anchor="start" x="37" y="-450.8" font-family="Helvetica,sans-Serif" font-size="11.00" fill="#000000">...</text>
<polygon fill="#ffffff" stroke="transparent" points="34,-425.7 34,-444.7 72,-444.7 72,-425.7 34,-425.7"/>
<polygon fill="none" stroke="#000000" points="34,-425.7 34,-444.7 72,-444.7 72,-425.7 34,-425.7"/>
<text text-anchor="start" x="37" y="-431.8" font-family="Helvetica,sans-Serif" font-size="11.00" fill="#000000"> &#160;</text>
<polygon fill="#ffffff" stroke="transparent" points="72,-425.7 72,-444.7 97,-444.7 97,-425.7 72,-425.7"/>
<polygon fill="none" stroke="#000000" points="72,-425.7 72,-444.7 97,-444.7 97,-425.7 72,-425.7"/>
<text text-anchor="start" x="87.8862" y="-431.8" font-family="Helvetica,sans-Serif" font-size="11.00" fill="#000000"> &#160;</text>
<polygon fill="#ffffff" stroke="transparent" points="97,-425.7 97,-444.7 132,-444.7 132,-425.7 97,-425.7"/>
<polygon fill="none" stroke="#000000" points="97,-425.7 97,-444.7 132,-444.7 132,-425.7 97,-425.7"/>
<text text-anchor="start" x="113.4053" y="-431.8" font-family="Helvetica,sans-Serif" font-size="11.00" fill="#000000">1 &gt;</text>
</a>
</g>
</g>
<!-- contact_address&#45;&gt;addresses -->
<g id="edge1" class="edge">
<title>contact_address:w&#45;&gt;addresses:e</title>
<path fill="none" stroke="#000000" d="M195.099,-478.8885C171.3628,-483.0481 162.0617,-496.7 132,-496.7"/>
<polygon fill="#000000" stroke="#000000" points="201.5271,-478.3581 209.7961,-481.2878 205.5136,-478.029 209.5,-477.7 209.5,-477.7 209.5,-477.7 205.5136,-478.029 209.2039,-474.1122 201.5271,-478.3581 201.5271,-478.3581"/>
<ellipse fill="none" stroke="#000000" cx="198.338" cy="-478.6213" rx="3.2" ry="3.2"/>
</g>
<!-- contact -->
<g id="node3" class="node">
<title>contact</title>
<g id="a_node3"><a xlink:href="../../tables/contact.html" xlink:title="contact" target="_top">
<polygon fill="#ffffff" stroke="transparent" points="13.5,-552.2 13.5,-657.2 152.5,-657.2 152.5,-552.2 13.5,-552.2"/>
<polygon fill="#f5f5f5" stroke="transparent" points="14,-633.7 14,-656.7 153,-656.7 153,-633.7 14,-633.7"/>
<polygon fill="none" stroke="#000000" points="14,-633.7 14,-656.7 153,-656.7 153,-633.7 14,-633.7"/>
<text text-anchor="start" x="19" y="-642.3" font-family="Helvetica,sans-Serif" font-weight="bold" font-size="11.00" fill="#000000">contact</text>
<text text-anchor="start" x="118.0437" y="-641.8" font-family="Helvetica,sans-Serif" font-size="11.00" fill="#000000">[table]</text>
<polygon fill="none" stroke="#000000" points="14,-611.7 14,-633.7 153,-633.7 153,-611.7 14,-611.7"/>
<image xlink:href="../../images/primaryKeys.png" width="11px" height="12px" preserveAspectRatio="xMinYMin meet" x="19" y="-628.7"/>
<text text-anchor="start" x="34" y="-618.8" font-family="Helvetica,sans-Serif" font-size="11.00" fill="#000000">id</text>
<polygon fill="#ffffff" stroke="transparent" points="14,-589.7 14,-611.7 153,-611.7 153,-589.7 14,-589.7"/>
<polygon fill="none" stroke="#000000" points="14,-589.7 14,-611.7 153,-611.7 153,-589.7 14,-589.7"/>
<text text-anchor="start" x="34" y="-596.8" font-family="Helvetica,sans-Serif" font-size="11.00" fill="#000000">foreign_id</text>
<polygon fill="none" stroke="#000000" points="14,-570.7 14,-589.7 153,-589.7 153,-570.7 14,-570.7"/>
<text text-anchor="start" x="17" y="-576.8" font-family="Helvetica,sans-Serif" font-size="11.00" fill="#000000">...</text>
<polygon fill="#ffffff" stroke="transparent" points="14,-551.7 14,-570.7 73,-570.7 73,-551.7 14,-551.7"/>
<polygon fill="none" stroke="#000000" points="14,-551.7 14,-570.7 73,-570.7 73,-551.7 14,-551.7"/>
<text text-anchor="start" x="17" y="-557.8" font-family="Helvetica,sans-Serif" font-size="11.00" fill="#000000"> &#160;</text>
<polygon fill="#ffffff" stroke="transparent" points="73,-551.7 73,-570.7 108,-570.7 108,-551.7 73,-551.7"/>
<polygon fill="none" stroke="#000000" points="73,-551.7 73,-570.7 108,-570.7 108,-551.7 73,-551.7"/>
<text text-anchor="start" x="98.8862" y="-557.8" font-family="Helvetica,sans-Serif" font-size="11.00" fill="#000000"> &#160;</text>
<polygon fill="#ffffff" stroke="transparent" points="108,-551.7 108,-570.7 153,-570.7 153,-551.7 108,-551.7"/>
<polygon fill="none" stroke="#000000" points="108,-551.7 108,-570.7 153,-570.7 153,-551.7 108,-551.7"/>
<text text-anchor="start" x="134.4053" y="-557.8" font-family="Helvetica,sans-Serif" font-size="11.00" fill="#000000">3 &gt;</text>
</a>
</g>
</g>
<!-- contact_address&#45;&gt;contact -->
<g id="edge2" class="edge">
<title>contact_address:w&#45;&gt;contact:e</title>
<path fill="none" stroke="#000000" d="M195.1915,-502.99C160.6236,-522.5504 207.2834,-622.7 153,-622.7"/>
<polygon fill="#000000" stroke="#000000" points="201.7034,-501.4927 210.3067,-503.2085 205.6017,-500.5964 209.5,-499.7 209.5,-499.7 209.5,-499.7 205.6017,-500.5964 208.6933,-496.1915 201.7034,-501.4927 201.7034,-501.4927"/>
<ellipse fill="none" stroke="#000000" cx="198.5848" cy="-502.2098" rx="3.2" ry="3.2"/>
</g>
<!-- users -->
<g id="node4" class="node">
<title>users</title>
<g id="a_node4"><a xlink:href="../../tables/users.html" xlink:title="users" target="_top">
<polygon fill="#ffffff" stroke="transparent" points="8,-38.2 8,-253.2 158,-253.2 158,-38.2 8,-38.2"/>
<polygon fill="#f5f5f5" stroke="transparent" points="8,-229.7 8,-252.7 158,-252.7 158,-229.7 8,-229.7"/>
<polygon fill="none" stroke="#000000" points="8,-229.7 8,-252.7 158,-252.7 158,-229.7 8,-229.7"/>
<text text-anchor="start" x="13" y="-238.3" font-family="Helvetica,sans-Serif" font-weight="bold" font-size="11.00" fill="#000000">users</text>
<text text-anchor="start" x="123.0437" y="-237.8" font-family="Helvetica,sans-Serif" font-size="11.00" fill="#000000">[table]</text>
<polygon fill="none" stroke="#000000" points="8,-207.7 8,-229.7 158,-229.7 158,-207.7 8,-207.7"/>
<image xlink:href="../../images/primaryKeys.png" width="11px" height="12px" preserveAspectRatio="xMinYMin meet" x="13" y="-224.7"/>
<text text-anchor="start" x="28" y="-214.8" font-family="Helvetica,sans-Serif" font-size="11.00" fill="#000000">id</text>
<polygon fill="#ffffff" stroke="transparent" points="8,-185.7 8,-207.7 158,-207.7 158,-185.7 8,-185.7"/>
<polygon fill="none" stroke="#000000" points="8,-185.7 8,-207.7 158,-207.7 158,-185.7 8,-185.7"/>
<text text-anchor="start" x="28" y="-192.8" font-family="Helvetica,sans-Serif" font-size="11.00" fill="#000000">uuid</text>
<polygon fill="none" stroke="#000000" points="8,-163.7 8,-185.7 158,-185.7 158,-163.7 8,-163.7"/>
<image xlink:href="../../images/primaryKeys.png" width="11px" height="12px" preserveAspectRatio="xMinYMin meet" x="13" y="-180.7"/>
<text text-anchor="start" x="28" y="-170.8" font-family="Helvetica,sans-Serif" font-size="11.00" fill="#000000">username</text>
<polygon fill="none" stroke="#000000" points="8,-141.7 8,-163.7 158,-163.7 158,-141.7 8,-141.7"/>
<image xlink:href="../../images/foreignKeys.png" width="11px" height="12px" preserveAspectRatio="xMinYMin meet" x="13" y="-158.7"/>
<text text-anchor="start" x="28" y="-148.8" font-family="Helvetica,sans-Serif" font-size="11.00" fill="#000000">facility_id</text>
<polygon fill="#ffffff" stroke="transparent" points="8,-119.7 8,-141.7 158,-141.7 158,-119.7 8,-119.7"/>
<polygon fill="none" stroke="#000000" points="8,-119.7 8,-141.7 158,-141.7 158,-119.7 8,-119.7"/>
<text text-anchor="start" x="28" y="-126.8" font-family="Helvetica,sans-Serif" font-size="11.00" fill="#000000">google_signin_email</text>
<polygon fill="#ffffff" stroke="transparent" points="8,-97.7 8,-119.7 158,-119.7 158,-97.7 8,-97.7"/>
<polygon fill="none" stroke="#000000" points="8,-97.7 8,-119.7 158,-119.7 158,-97.7 8,-97.7"/>
<text text-anchor="start" x="28" y="-104.8" font-family="Helvetica,sans-Serif" font-size="11.00" fill="#000000">abook_type</text>
<polygon fill="none" stroke="#000000" points="8,-75.7 8,-97.7 158,-97.7 158,-75.7 8,-75.7"/>
<image xlink:href="../../images/foreignKeys.png" width="11px" height="12px" preserveAspectRatio="xMinYMin meet" x="13" y="-92.7"/>
<text text-anchor="start" x="28" y="-82.8" font-family="Helvetica,sans-Serif" font-size="11.00" fill="#000000">billing_facility_id</text>
<polygon fill="none" stroke="#000000" points="8,-56.7 8,-75.7 158,-75.7 158,-56.7 8,-56.7"/>
<text text-anchor="start" x="11" y="-62.8" font-family="Helvetica,sans-Serif" font-size="11.00" fill="#000000">...</text>
<polygon fill="#ffffff" stroke="transparent" points="8,-37.7 8,-56.7 74,-56.7 74,-37.7 8,-37.7"/>
<polygon fill="none" stroke="#000000" points="8,-37.7 8,-56.7 74,-56.7 74,-37.7 8,-37.7"/>
<text text-anchor="start" x="11" y="-43.8" font-family="Helvetica,sans-Serif" font-size="11.00" fill="#000000">&lt; 2</text>
<polygon fill="#ffffff" stroke="transparent" points="74,-37.7 74,-56.7 108,-56.7 108,-37.7 74,-37.7"/>
<polygon fill="none" stroke="#000000" points="74,-37.7 74,-56.7 108,-56.7 108,-37.7 74,-37.7"/>
<text text-anchor="start" x="98.8862" y="-43.8" font-family="Helvetica,sans-Serif" font-size="11.00" fill="#000000"> &#160;</text>
<polygon fill="#ffffff" stroke="transparent" points="108,-37.7 108,-56.7 158,-56.7 158,-37.7 108,-37.7"/>
<polygon fill="none" stroke="#000000" points="108,-37.7 108,-56.7 158,-56.7 158,-37.7 108,-37.7"/>
<text text-anchor="start" x="133.2904" y="-43.8" font-family="Helvetica,sans-Serif" font-size="11.00" fill="#000000">91 &gt;</text>
</a>
</g>
</g>
<!-- contact_address&#45;&gt;users -->
<g id="edge3" class="edge">
<title>contact_address:w&#45;&gt;users:e</title>
<path fill="none" stroke="#000000" d="M195.1107,-453.9286C117.6721,-432.2408 260.3177,-218.7 158,-218.7"/>
<polygon fill="#000000" stroke="#000000" points="201.5599,-454.7225 209.0601,-459.273 205.53,-455.2112 209.5,-455.7 209.5,-455.7 209.5,-455.7 205.53,-455.2112 209.9399,-452.127 201.5599,-454.7225 201.5599,-454.7225"/>
<ellipse fill="none" stroke="#000000" cx="198.3839" cy="-454.3315" rx="3.2" ry="3.2"/>
</g>
<!-- contact_address&#45;&gt;users -->
<g id="edge5" class="edge">
<title>contact_address:w&#45;&gt;users:e</title>
<path fill="none" stroke="#000000" d="M195.3374,-195.2298C182.405,-202.5484 177.9886,-218.7 158,-218.7"/>
<polygon fill="#000000" stroke="#000000" points="201.7375,-193.6347 210.3706,-195.1931 205.6187,-192.6674 209.5,-191.7 209.5,-191.7 209.5,-191.7 205.6187,-192.6674 208.6294,-188.2069 201.7375,-193.6347 201.7375,-193.6347"/>
<ellipse fill="none" stroke="#000000" cx="198.6324" cy="-194.4086" rx="3.2" ry="3.2"/>
</g>
<!-- list_options -->
<g id="node5" class="node">
<title>list_options</title>
<g id="a_node5"><a xlink:href="../../tables/list_options.html" xlink:title="list_options" target="_top">
<polygon fill="#ffffff" stroke="transparent" points="24,-300.2 24,-405.2 142,-405.2 142,-300.2 24,-300.2"/>
<polygon fill="#f5f5f5" stroke="transparent" points="24,-381.7 24,-404.7 142,-404.7 142,-381.7 24,-381.7"/>
<polygon fill="none" stroke="#000000" points="24,-381.7 24,-404.7 142,-404.7 142,-381.7 24,-381.7"/>
<text text-anchor="start" x="29" y="-390.3" font-family="Helvetica,sans-Serif" font-weight="bold" font-size="11.00" fill="#000000">list_options</text>
<text text-anchor="start" x="107.0437" y="-389.8" font-family="Helvetica,sans-Serif" font-size="11.00" fill="#000000">[table]</text>
<polygon fill="none" stroke="#000000" points="24,-359.7 24,-381.7 142,-381.7 142,-359.7 24,-359.7"/>
<image xlink:href="../../images/primaryKeys.png" width="11px" height="12px" preserveAspectRatio="xMinYMin meet" x="29" y="-376.7"/>
<text text-anchor="start" x="44" y="-366.8" font-family="Helvetica,sans-Serif" font-size="11.00" fill="#000000">list_id</text>
<polygon fill="none" stroke="#000000" points="24,-337.7 24,-359.7 142,-359.7 142,-337.7 24,-337.7"/>
<image xlink:href="../../images/primaryKeys.png" width="11px" height="12px" preserveAspectRatio="xMinYMin meet" x="29" y="-354.7"/>
<text text-anchor="start" x="44" y="-344.8" font-family="Helvetica,sans-Serif" font-size="11.00" fill="#000000">option_id</text>
<polygon fill="none" stroke="#000000" points="24,-318.7 24,-337.7 142,-337.7 142,-318.7 24,-318.7"/>
<text text-anchor="start" x="27" y="-324.8" font-family="Helvetica,sans-Serif" font-size="11.00" fill="#000000">...</text>
<polygon fill="#ffffff" stroke="transparent" points="24,-299.7 24,-318.7 69,-318.7 69,-299.7 24,-299.7"/>
<polygon fill="none" stroke="#000000" points="24,-299.7 24,-318.7 69,-318.7 69,-299.7 24,-299.7"/>
<text text-anchor="start" x="27" y="-305.8" font-family="Helvetica,sans-Serif" font-size="11.00" fill="#000000"> &#160;</text>
<polygon fill="#ffffff" stroke="transparent" points="69,-299.7 69,-318.7 98,-318.7 98,-299.7 69,-299.7"/>
<polygon fill="none" stroke="#000000" points="69,-299.7 69,-318.7 98,-318.7 98,-299.7 69,-299.7"/>
<text text-anchor="start" x="88.8862" y="-305.8" font-family="Helvetica,sans-Serif" font-size="11.00" fill="#000000"> &#160;</text>
<polygon fill="#ffffff" stroke="transparent" points="98,-299.7 98,-318.7 142,-318.7 142,-299.7 98,-299.7"/>
<polygon fill="none" stroke="#000000" points="98,-299.7 98,-318.7 142,-318.7 142,-299.7 98,-299.7"/>
<text text-anchor="start" x="117.2904" y="-305.8" font-family="Helvetica,sans-Serif" font-size="11.00" fill="#000000">98 &gt;</text>
</a>
</g>
</g>
<!-- contact_address&#45;&gt;list_options -->
<g id="edge4" class="edge">
<title>contact_address:w&#45;&gt;list_options:e</title>
<path fill="none" stroke="#000000" d="M195.2335,-386.8819C174.295,-377.6188 171.479,-348.7 142,-348.7"/>
<polygon fill="#000000" stroke="#000000" points="201.6517,-388.1496 208.8023,-393.2318 205.5758,-388.9248 209.5,-389.7 209.5,-389.7 209.5,-389.7 205.5758,-388.9248 210.1977,-386.1682 201.6517,-388.1496 201.6517,-388.1496"/>
<ellipse fill="none" stroke="#000000" cx="198.5123" cy="-387.5295" rx="3.2" ry="3.2"/>
</g>
<!-- contact_address&#45;&gt;list_options -->
<g id="edge6" class="edge">
<title>contact_address:w&#45;&gt;list_options:e</title>
<path fill="none" stroke="#000000" d="M194.9162,-366.0801C175.6374,-361.4853 167.5657,-348.7 142,-348.7"/>
<polygon fill="#000000" stroke="#000000" points="201.5489,-366.8168 209.1025,-371.278 205.5245,-367.2584 209.5,-367.7 209.5,-367.7 209.5,-367.7 205.5245,-367.2584 209.8975,-364.122 201.5489,-366.8168 201.5489,-366.8168"/>
<ellipse fill="none" stroke="#000000" cx="198.3685" cy="-366.4635" rx="3.2" ry="3.2"/>
</g>
</g>
</svg>
