<?xml version="1.0" encoding="UTF-8" standalone="no"?>
<!DOCTYPE svg PUBLIC "-//W3C//DTD SVG 1.1//EN"
 "http://www.w3.org/Graphics/SVG/1.1/DTD/svg11.dtd">
<!-- Generated by graphviz version 2.40.1 (20161225.0304)
 -->
<!-- Title: oneDegreeRelationshipsDiagram Pages: 1 -->
<svg width="537pt" height="567pt"
 viewBox="0.00 0.00 537.00 567.20" xmlns="http://www.w3.org/2000/svg" xmlns:xlink="http://www.w3.org/1999/xlink">
<g id="graph0" class="graph" transform="scale(1 1) rotate(0) translate(4 563.2)">
<title>oneDegreeRelationshipsDiagram</title>
<polygon fill="#ffffff" stroke="transparent" points="-4,4 -4,-563.2 533,-563.2 533,4 -4,4"/>
<text text-anchor="middle" x="72.4936" y="-7.3" font-family="Helvetica,sans-Serif" font-size="11.00" fill="#000000">Generated by SchemaSpy</text>
<!-- ehi_export_job_patients -->
<g id="node1" class="node">
<title>ehi_export_job_patients</title>
<g id="a_node1"><a xlink:href="../../tables/ehi_export_job_patients.html" xlink:title="ehi_export_job_patients" target="_top">
<polygon fill="#ffffff" stroke="transparent" points="305,-326.7 305,-416.7 521,-416.7 521,-326.7 305,-326.7"/>
<polygon fill="#f5f5f5" stroke="transparent" points="307,-391.7 307,-414.7 519,-414.7 519,-391.7 307,-391.7"/>
<polygon fill="none" stroke="#000000" points="307,-391.7 307,-414.7 519,-414.7 519,-391.7 307,-391.7"/>
<text text-anchor="start" x="312" y="-400.3" font-family="Helvetica,sans-Serif" font-weight="bold" font-size="11.00" fill="#000000">ehi_export_job_patients</text>
<text text-anchor="start" x="484.0437" y="-399.8" font-family="Helvetica,sans-Serif" font-size="11.00" fill="#000000">[table]</text>
<polygon fill="none" stroke="#000000" points="307,-369.7 307,-391.7 469,-391.7 469,-369.7 307,-369.7"/>
<image xlink:href="../../images/primaryKeys.png" width="11px" height="12px" preserveAspectRatio="xMinYMin meet" x="312" y="-386.7"/>
<text text-anchor="start" x="327" y="-376.8" font-family="Helvetica,sans-Serif" font-size="11.00" fill="#000000">ehi_export_job_id</text>
<polygon fill="none" stroke="#000000" points="469,-369.7 469,-391.7 519,-391.7 519,-369.7 469,-369.7"/>
<text text-anchor="start" x="472" y="-377.4" font-family="Helvetica,sans-Serif" font-size="11.00" fill="#000000">int[10]</text>
<polygon fill="none" stroke="#000000" points="307,-347.7 307,-369.7 469,-369.7 469,-347.7 307,-347.7"/>
<image xlink:href="../../images/primaryKeys.png" width="11px" height="12px" preserveAspectRatio="xMinYMin meet" x="312" y="-364.7"/>
<text text-anchor="start" x="327" y="-354.8" font-family="Helvetica,sans-Serif" font-size="11.00" fill="#000000">pid</text>
<polygon fill="none" stroke="#000000" points="469,-347.7 469,-369.7 519,-369.7 519,-347.7 469,-347.7"/>
<text text-anchor="start" x="471.6865" y="-355.4" font-family="Helvetica,sans-Serif" font-size="11.00" fill="#000000">bigint[19]</text>
<polygon fill="#ffffff" stroke="transparent" points="307,-328.7 307,-347.7 392,-347.7 392,-328.7 307,-328.7"/>
<polygon fill="none" stroke="#000000" points="307,-328.7 307,-347.7 392,-347.7 392,-328.7 307,-328.7"/>
<text text-anchor="start" x="310" y="-334.8" font-family="Helvetica,sans-Serif" font-size="11.00" fill="#000000">&lt; 2</text>
<polygon fill="#ffffff" stroke="transparent" points="392,-328.7 392,-347.7 469,-347.7 469,-328.7 392,-328.7"/>
<polygon fill="none" stroke="#000000" points="392,-328.7 392,-347.7 469,-347.7 469,-328.7 392,-328.7"/>
<text text-anchor="start" x="459.8862" y="-334.8" font-family="Helvetica,sans-Serif" font-size="11.00" fill="#000000"> &#160;</text>
<polygon fill="#ffffff" stroke="transparent" points="469,-328.7 469,-347.7 519,-347.7 519,-328.7 469,-328.7"/>
<polygon fill="none" stroke="#000000" points="469,-328.7 469,-347.7 519,-347.7 519,-328.7 469,-328.7"/>
<text text-anchor="start" x="500.4053" y="-334.8" font-family="Helvetica,sans-Serif" font-size="11.00" fill="#000000">0 &gt;</text>
<polygon fill="none" stroke="#000000" stroke-width="2" points="306,-327.7 306,-415.7 520,-415.7 520,-327.7 306,-327.7"/>
</a>
</g>
</g>
<!-- ehi_export_job -->
<g id="node2" class="node">
<title>ehi_export_job</title>
<g id="a_node2"><a xlink:href="../../tables/ehi_export_job.html" xlink:title="ehi_export_job" target="_top">
<polygon fill="#ffffff" stroke="transparent" points="39.5,-450.2 39.5,-555.2 224.5,-555.2 224.5,-450.2 39.5,-450.2"/>
<polygon fill="#f5f5f5" stroke="transparent" points="40,-531.7 40,-554.7 225,-554.7 225,-531.7 40,-531.7"/>
<polygon fill="none" stroke="#000000" points="40,-531.7 40,-554.7 225,-554.7 225,-531.7 40,-531.7"/>
<text text-anchor="start" x="45" y="-540.3" font-family="Helvetica,sans-Serif" font-weight="bold" font-size="11.00" fill="#000000">ehi_export_job</text>
<text text-anchor="start" x="190.0437" y="-539.8" font-family="Helvetica,sans-Serif" font-size="11.00" fill="#000000">[table]</text>
<polygon fill="none" stroke="#000000" points="40,-509.7 40,-531.7 225,-531.7 225,-509.7 40,-509.7"/>
<image xlink:href="../../images/primaryKeys.png" width="11px" height="12px" preserveAspectRatio="xMinYMin meet" x="45" y="-526.7"/>
<text text-anchor="start" x="60" y="-516.8" font-family="Helvetica,sans-Serif" font-size="11.00" fill="#000000">ehi_export_job_id</text>
<polygon fill="#ffffff" stroke="transparent" points="40,-487.7 40,-509.7 225,-509.7 225,-487.7 40,-487.7"/>
<polygon fill="none" stroke="#000000" points="40,-487.7 40,-509.7 225,-509.7 225,-487.7 40,-487.7"/>
<image xlink:href="../../images/foreignKeys.png" width="11px" height="12px" preserveAspectRatio="xMinYMin meet" x="45" y="-504.7"/>
<text text-anchor="start" x="60" y="-494.8" font-family="Helvetica,sans-Serif" font-size="11.00" fill="#000000">user_id</text>
<polygon fill="none" stroke="#000000" points="40,-468.7 40,-487.7 225,-487.7 225,-468.7 40,-468.7"/>
<text text-anchor="start" x="43" y="-474.8" font-family="Helvetica,sans-Serif" font-size="11.00" fill="#000000">...</text>
<polygon fill="#ffffff" stroke="transparent" points="40,-449.7 40,-468.7 126,-468.7 126,-449.7 40,-449.7"/>
<polygon fill="none" stroke="#000000" points="40,-449.7 40,-468.7 126,-468.7 126,-449.7 40,-449.7"/>
<text text-anchor="start" x="43" y="-455.8" font-family="Helvetica,sans-Serif" font-size="11.00" fill="#000000">&lt; 1</text>
<polygon fill="#ffffff" stroke="transparent" points="126,-449.7 126,-468.7 171,-468.7 171,-449.7 126,-449.7"/>
<polygon fill="none" stroke="#000000" points="126,-449.7 126,-468.7 171,-468.7 171,-449.7 126,-449.7"/>
<text text-anchor="start" x="161.8862" y="-455.8" font-family="Helvetica,sans-Serif" font-size="11.00" fill="#000000"> &#160;</text>
<polygon fill="#ffffff" stroke="transparent" points="171,-449.7 171,-468.7 225,-468.7 225,-449.7 171,-449.7"/>
<polygon fill="none" stroke="#000000" points="171,-449.7 171,-468.7 225,-468.7 225,-449.7 171,-449.7"/>
<text text-anchor="start" x="206.4053" y="-455.8" font-family="Helvetica,sans-Serif" font-size="11.00" fill="#000000">2 &gt;</text>
</a>
</g>
</g>
<!-- ehi_export_job_patients&#45;&gt;ehi_export_job -->
<g id="edge1" class="edge">
<title>ehi_export_job_patients:w&#45;&gt;ehi_export_job:e</title>
<path fill="none" stroke="#000000" d="M292.7413,-383.0132C243.5897,-401.2158 291.6169,-520.7 225,-520.7"/>
<polygon fill="#000000" stroke="#000000" points="299.1032,-381.9811 307.5765,-384.2535 303.0516,-381.3406 307,-380.7 307,-380.7 307,-380.7 303.0516,-381.3406 306.4235,-377.1465 299.1032,-381.9811 299.1032,-381.9811"/>
<ellipse fill="none" stroke="#000000" cx="295.9445" cy="-382.4936" rx="3.2" ry="3.2"/>
</g>
<!-- patient_data -->
<g id="node3" class="node">
<title>patient_data</title>
<g id="a_node3"><a xlink:href="../../tables/patient_data.html" xlink:title="patient_data" target="_top">
<polygon fill="#ffffff" stroke="transparent" points="8,-38.2 8,-429.2 256,-429.2 256,-38.2 8,-38.2"/>
<polygon fill="#f5f5f5" stroke="transparent" points="8,-405.7 8,-428.7 256,-428.7 256,-405.7 8,-405.7"/>
<polygon fill="none" stroke="#000000" points="8,-405.7 8,-428.7 256,-428.7 256,-405.7 8,-405.7"/>
<text text-anchor="start" x="13" y="-414.3" font-family="Helvetica,sans-Serif" font-weight="bold" font-size="11.00" fill="#000000">patient_data</text>
<text text-anchor="start" x="221.0437" y="-413.8" font-family="Helvetica,sans-Serif" font-size="11.00" fill="#000000">[table]</text>
<polygon fill="none" stroke="#000000" points="8,-383.7 8,-405.7 256,-405.7 256,-383.7 8,-383.7"/>
<image xlink:href="../../images/primaryKeys.png" width="11px" height="12px" preserveAspectRatio="xMinYMin meet" x="13" y="-400.7"/>
<text text-anchor="start" x="28" y="-390.8" font-family="Helvetica,sans-Serif" font-size="11.00" fill="#000000">id</text>
<polygon fill="#ffffff" stroke="transparent" points="8,-361.7 8,-383.7 256,-383.7 256,-361.7 8,-361.7"/>
<polygon fill="none" stroke="#000000" points="8,-361.7 8,-383.7 256,-383.7 256,-361.7 8,-361.7"/>
<text text-anchor="start" x="28" y="-368.8" font-family="Helvetica,sans-Serif" font-size="11.00" fill="#000000">uuid</text>
<polygon fill="#ffffff" stroke="transparent" points="8,-339.7 8,-361.7 256,-361.7 256,-339.7 8,-339.7"/>
<polygon fill="none" stroke="#000000" points="8,-339.7 8,-361.7 256,-361.7 256,-339.7 8,-339.7"/>
<text text-anchor="start" x="28" y="-346.8" font-family="Helvetica,sans-Serif" font-size="11.00" fill="#000000">fname</text>
<polygon fill="#ffffff" stroke="transparent" points="8,-317.7 8,-339.7 256,-339.7 256,-317.7 8,-317.7"/>
<polygon fill="none" stroke="#000000" points="8,-317.7 8,-339.7 256,-339.7 256,-317.7 8,-317.7"/>
<text text-anchor="start" x="28" y="-324.8" font-family="Helvetica,sans-Serif" font-size="11.00" fill="#000000">lname</text>
<polygon fill="#ffffff" stroke="transparent" points="8,-295.7 8,-317.7 256,-317.7 256,-295.7 8,-295.7"/>
<polygon fill="none" stroke="#000000" points="8,-295.7 8,-317.7 256,-317.7 256,-295.7 8,-295.7"/>
<text text-anchor="start" x="28" y="-302.8" font-family="Helvetica,sans-Serif" font-size="11.00" fill="#000000">DOB</text>
<polygon fill="none" stroke="#000000" points="8,-273.7 8,-295.7 256,-295.7 256,-273.7 8,-273.7"/>
<image xlink:href="../../images/foreignKeys.png" width="11px" height="12px" preserveAspectRatio="xMinYMin meet" x="13" y="-290.7"/>
<text text-anchor="start" x="28" y="-280.8" font-family="Helvetica,sans-Serif" font-size="11.00" fill="#000000">pharmacy_id</text>
<polygon fill="none" stroke="#000000" points="8,-251.7 8,-273.7 256,-273.7 256,-251.7 8,-251.7"/>
<image xlink:href="../../images/foreignKeys.png" width="11px" height="12px" preserveAspectRatio="xMinYMin meet" x="13" y="-268.7"/>
<text text-anchor="start" x="28" y="-258.8" font-family="Helvetica,sans-Serif" font-size="11.00" fill="#000000">providerID</text>
<polygon fill="none" stroke="#000000" points="8,-229.7 8,-251.7 256,-251.7 256,-229.7 8,-229.7"/>
<image xlink:href="../../images/foreignKeys.png" width="11px" height="12px" preserveAspectRatio="xMinYMin meet" x="13" y="-246.7"/>
<text text-anchor="start" x="28" y="-236.8" font-family="Helvetica,sans-Serif" font-size="11.00" fill="#000000">ref_providerID</text>
<polygon fill="none" stroke="#000000" points="8,-207.7 8,-229.7 256,-229.7 256,-207.7 8,-207.7"/>
<image xlink:href="../../images/primaryKeys.png" width="11px" height="12px" preserveAspectRatio="xMinYMin meet" x="13" y="-224.7"/>
<text text-anchor="start" x="28" y="-214.8" font-family="Helvetica,sans-Serif" font-size="11.00" fill="#000000">pid</text>
<polygon fill="none" stroke="#000000" points="8,-185.7 8,-207.7 256,-207.7 256,-185.7 8,-185.7"/>
<image xlink:href="../../images/foreignKeys.png" width="11px" height="12px" preserveAspectRatio="xMinYMin meet" x="13" y="-202.7"/>
<text text-anchor="start" x="28" y="-192.8" font-family="Helvetica,sans-Serif" font-size="11.00" fill="#000000">created_by</text>
<polygon fill="none" stroke="#000000" points="8,-163.7 8,-185.7 256,-185.7 256,-163.7 8,-163.7"/>
<image xlink:href="../../images/foreignKeys.png" width="11px" height="12px" preserveAspectRatio="xMinYMin meet" x="13" y="-180.7"/>
<text text-anchor="start" x="28" y="-170.8" font-family="Helvetica,sans-Serif" font-size="11.00" fill="#000000">updated_by</text>
<polygon fill="none" stroke="#000000" points="8,-141.7 8,-163.7 256,-163.7 256,-141.7 8,-141.7"/>
<image xlink:href="../../images/foreignKeys.png" width="11px" height="12px" preserveAspectRatio="xMinYMin meet" x="13" y="-158.7"/>
<text text-anchor="start" x="28" y="-148.8" font-family="Helvetica,sans-Serif" font-size="11.00" fill="#000000">tribal_affiliations</text>
<polygon fill="none" stroke="#000000" points="8,-119.7 8,-141.7 256,-141.7 256,-119.7 8,-119.7"/>
<image xlink:href="../../images/foreignKeys.png" width="11px" height="12px" preserveAspectRatio="xMinYMin meet" x="13" y="-136.7"/>
<text text-anchor="start" x="28" y="-126.8" font-family="Helvetica,sans-Serif" font-size="11.00" fill="#000000">sex_identified</text>
<polygon fill="none" stroke="#000000" points="8,-97.7 8,-119.7 256,-119.7 256,-97.7 8,-97.7"/>
<image xlink:href="../../images/foreignKeys.png" width="11px" height="12px" preserveAspectRatio="xMinYMin meet" x="13" y="-114.7"/>
<text text-anchor="start" x="28" y="-104.8" font-family="Helvetica,sans-Serif" font-size="11.00" fill="#000000">interpreter_needed</text>
<polygon fill="none" stroke="#000000" points="8,-75.7 8,-97.7 256,-97.7 256,-75.7 8,-75.7"/>
<image xlink:href="../../images/foreignKeys.png" width="11px" height="12px" preserveAspectRatio="xMinYMin meet" x="13" y="-92.7"/>
<text text-anchor="start" x="28" y="-82.8" font-family="Helvetica,sans-Serif" font-size="11.00" fill="#000000">advance_directive_user_authenticator</text>
<polygon fill="none" stroke="#000000" points="8,-56.7 8,-75.7 256,-75.7 256,-56.7 8,-56.7"/>
<text text-anchor="start" x="11" y="-62.8" font-family="Helvetica,sans-Serif" font-size="11.00" fill="#000000">...</text>
<polygon fill="#ffffff" stroke="transparent" points="8,-37.7 8,-56.7 123,-56.7 123,-37.7 8,-37.7"/>
<polygon fill="none" stroke="#000000" points="8,-37.7 8,-56.7 123,-56.7 123,-37.7 8,-37.7"/>
<text text-anchor="start" x="11" y="-43.8" font-family="Helvetica,sans-Serif" font-size="11.00" fill="#000000">&lt; 9</text>
<polygon fill="#ffffff" stroke="transparent" points="123,-37.7 123,-56.7 182,-56.7 182,-37.7 123,-37.7"/>
<polygon fill="none" stroke="#000000" points="123,-37.7 123,-56.7 182,-56.7 182,-37.7 123,-37.7"/>
<text text-anchor="start" x="172.8862" y="-43.8" font-family="Helvetica,sans-Serif" font-size="11.00" fill="#000000"> &#160;</text>
<polygon fill="#ffffff" stroke="transparent" points="182,-37.7 182,-56.7 256,-56.7 256,-37.7 182,-37.7"/>
<polygon fill="none" stroke="#000000" points="182,-37.7 182,-56.7 256,-56.7 256,-37.7 182,-37.7"/>
<text text-anchor="start" x="231.2904" y="-43.8" font-family="Helvetica,sans-Serif" font-size="11.00" fill="#000000">97 &gt;</text>
</a>
</g>
</g>
<!-- ehi_export_job_patients&#45;&gt;patient_data -->
<g id="edge2" class="edge">
<title>ehi_export_job_patients:w&#45;&gt;patient_data:e</title>
<path fill="none" stroke="#000000" d="M292.5127,-355.5129C254.2204,-334.6738 316.2726,-218.7 256,-218.7"/>
<polygon fill="#000000" stroke="#000000" points="299.1868,-356.9811 306.2265,-362.2159 303.0934,-357.8405 307,-358.7 307,-358.7 307,-358.7 303.0934,-357.8405 307.7735,-355.1841 299.1868,-356.9811 299.1868,-356.9811"/>
<ellipse fill="none" stroke="#000000" cx="296.0616" cy="-356.2935" rx="3.2" ry="3.2"/>
</g>
</g>
</svg>
