<?xml version="1.0" encoding="UTF-8" standalone="no"?>
<!DOCTYPE svg PUBLIC "-//W3C//DTD SVG 1.1//EN"
 "http://www.w3.org/Graphics/SVG/1.1/DTD/svg11.dtd">
<!-- Generated by graphviz version 2.40.1 (20161225.0304)
 -->
<!-- Title: oneDegreeRelationshipsDiagram Pages: 1 -->
<svg width="783pt" height="289pt"
 viewBox="0.00 0.00 783.00 288.70" xmlns="http://www.w3.org/2000/svg" xmlns:xlink="http://www.w3.org/1999/xlink">
<g id="graph0" class="graph" transform="scale(1 1) rotate(0) translate(4 284.7)">
<title>oneDegreeRelationshipsDiagram</title>
<polygon fill="#ffffff" stroke="transparent" points="-4,4 -4,-284.7 779,-284.7 779,4 -4,4"/>
<text text-anchor="middle" x="72.4936" y="-7.3" font-family="Helvetica,sans-Serif" font-size="11.00" fill="#000000">Generated by SchemaSpy</text>
<!-- benefit_eligibility -->
<g id="node1" class="node">
<title>benefit_eligibility</title>
<g id="a_node1"><a xlink:href="../../tables/benefit_eligibility.html" xlink:title="benefit_eligibility" target="_top">
<polygon fill="#ffffff" stroke="transparent" points="596,-192.2 596,-275.2 767,-275.2 767,-192.2 596,-192.2"/>
<polygon fill="#f5f5f5" stroke="transparent" points="596.5,-251.7 596.5,-274.7 767.5,-274.7 767.5,-251.7 596.5,-251.7"/>
<polygon fill="none" stroke="#000000" points="596.5,-251.7 596.5,-274.7 767.5,-274.7 767.5,-251.7 596.5,-251.7"/>
<text text-anchor="start" x="601.5" y="-260.3" font-family="Helvetica,sans-Serif" font-weight="bold" font-size="11.00" fill="#000000">benefit_eligibility</text>
<text text-anchor="start" x="732.5437" y="-259.8" font-family="Helvetica,sans-Serif" font-size="11.00" fill="#000000">[table]</text>
<polygon fill="none" stroke="#000000" points="596.5,-229.7 596.5,-251.7 767.5,-251.7 767.5,-229.7 596.5,-229.7"/>
<image xlink:href="../../images/foreignKeys.png" width="11px" height="12px" preserveAspectRatio="xMinYMin meet" x="601.5" y="-246.7"/>
<text text-anchor="start" x="616.5" y="-236.8" font-family="Helvetica,sans-Serif" font-size="11.00" fill="#000000">verification_id</text>
<polygon fill="none" stroke="#000000" points="596.5,-210.7 596.5,-229.7 767.5,-229.7 767.5,-210.7 596.5,-210.7"/>
<text text-anchor="start" x="599.5" y="-216.8" font-family="Helvetica,sans-Serif" font-size="11.00" fill="#000000">...</text>
<polygon fill="#ffffff" stroke="transparent" points="596.5,-191.7 596.5,-210.7 680.5,-210.7 680.5,-191.7 596.5,-191.7"/>
<polygon fill="none" stroke="#000000" points="596.5,-191.7 596.5,-210.7 680.5,-210.7 680.5,-191.7 596.5,-191.7"/>
<text text-anchor="start" x="599.5" y="-197.8" font-family="Helvetica,sans-Serif" font-size="11.00" fill="#000000">&lt; 1</text>
<polygon fill="#ffffff" stroke="transparent" points="680.5,-191.7 680.5,-210.7 723.5,-210.7 723.5,-191.7 680.5,-191.7"/>
<polygon fill="none" stroke="#000000" points="680.5,-191.7 680.5,-210.7 723.5,-210.7 723.5,-191.7 680.5,-191.7"/>
<text text-anchor="start" x="714.3862" y="-197.8" font-family="Helvetica,sans-Serif" font-size="11.00" fill="#000000"> &#160;</text>
<polygon fill="#ffffff" stroke="transparent" points="723.5,-191.7 723.5,-210.7 767.5,-210.7 767.5,-191.7 723.5,-191.7"/>
<polygon fill="none" stroke="#000000" points="723.5,-191.7 723.5,-210.7 767.5,-210.7 767.5,-191.7 723.5,-191.7"/>
<text text-anchor="start" x="758.3862" y="-197.8" font-family="Helvetica,sans-Serif" font-size="11.00" fill="#000000"> &#160;</text>
</a>
</g>
</g>
<!-- eligibility_verification -->
<g id="node2" class="node">
<title>eligibility_verification</title>
<g id="a_node2"><a xlink:href="../../tables/eligibility_verification.html" xlink:title="eligibility_verification" target="_top">
<polygon fill="#ffffff" stroke="transparent" points="310,-54.7 310,-276.7 547,-276.7 547,-54.7 310,-54.7"/>
<polygon fill="#f5f5f5" stroke="transparent" points="312.5,-251.7 312.5,-274.7 545.5,-274.7 545.5,-251.7 312.5,-251.7"/>
<polygon fill="none" stroke="#000000" points="312.5,-251.7 312.5,-274.7 545.5,-274.7 545.5,-251.7 312.5,-251.7"/>
<text text-anchor="start" x="317.5" y="-260.3" font-family="Helvetica,sans-Serif" font-weight="bold" font-size="11.00" fill="#000000">eligibility_verification</text>
<text text-anchor="start" x="510.5437" y="-259.8" font-family="Helvetica,sans-Serif" font-size="11.00" fill="#000000">[table]</text>
<polygon fill="none" stroke="#000000" points="312.5,-229.7 312.5,-251.7 479.5,-251.7 479.5,-229.7 312.5,-229.7"/>
<image xlink:href="../../images/primaryKeys.png" width="11px" height="12px" preserveAspectRatio="xMinYMin meet" x="317.5" y="-246.7"/>
<text text-anchor="start" x="332.5" y="-236.8" font-family="Helvetica,sans-Serif" font-size="11.00" fill="#000000">verification_id</text>
<polygon fill="none" stroke="#000000" points="479.5,-229.7 479.5,-251.7 545.5,-251.7 545.5,-229.7 479.5,-229.7"/>
<text text-anchor="start" x="482.5" y="-237.4" font-family="Helvetica,sans-Serif" font-size="11.00" fill="#000000">bigint[19]</text>
<polygon fill="none" stroke="#000000" points="312.5,-207.7 312.5,-229.7 479.5,-229.7 479.5,-207.7 312.5,-207.7"/>
<text text-anchor="start" x="332.5" y="-214.8" font-family="Helvetica,sans-Serif" font-size="11.00" fill="#000000">response_id</text>
<polygon fill="none" stroke="#000000" points="479.5,-207.7 479.5,-229.7 545.5,-229.7 545.5,-207.7 479.5,-207.7"/>
<text text-anchor="start" x="482.5" y="-215.4" font-family="Helvetica,sans-Serif" font-size="11.00" fill="#000000">varchar[32]</text>
<polygon fill="#ffffff" stroke="transparent" points="312.5,-185.7 312.5,-207.7 479.5,-207.7 479.5,-185.7 312.5,-185.7"/>
<polygon fill="none" stroke="#000000" points="312.5,-185.7 312.5,-207.7 479.5,-207.7 479.5,-185.7 312.5,-185.7"/>
<image xlink:href="../../images/foreignKeys.png" width="11px" height="12px" preserveAspectRatio="xMinYMin meet" x="317.5" y="-202.7"/>
<text text-anchor="start" x="332.5" y="-192.8" font-family="Helvetica,sans-Serif" font-size="11.00" fill="#000000">insurance_id</text>
<polygon fill="none" stroke="#000000" points="479.5,-185.7 479.5,-207.7 545.5,-207.7 545.5,-185.7 479.5,-185.7"/>
<text text-anchor="start" x="482.5" y="-193.4" font-family="Helvetica,sans-Serif" font-size="11.00" fill="#000000">bigint[19]</text>
<polygon fill="none" stroke="#000000" points="312.5,-163.7 312.5,-185.7 479.5,-185.7 479.5,-163.7 312.5,-163.7"/>
<text text-anchor="start" x="332.5" y="-170.8" font-family="Helvetica,sans-Serif" font-size="11.00" fill="#000000">eligibility_check_date</text>
<polygon fill="none" stroke="#000000" points="479.5,-163.7 479.5,-185.7 545.5,-185.7 545.5,-163.7 479.5,-163.7"/>
<text text-anchor="start" x="482.2401" y="-171.4" font-family="Helvetica,sans-Serif" font-size="11.00" fill="#000000">datetime[19]</text>
<polygon fill="none" stroke="#000000" points="312.5,-141.7 312.5,-163.7 479.5,-163.7 479.5,-141.7 312.5,-141.7"/>
<text text-anchor="start" x="332.5" y="-148.8" font-family="Helvetica,sans-Serif" font-size="11.00" fill="#000000">copay</text>
<polygon fill="none" stroke="#000000" points="479.5,-141.7 479.5,-163.7 545.5,-163.7 545.5,-141.7 479.5,-141.7"/>
<text text-anchor="start" x="482.5" y="-149.4" font-family="Helvetica,sans-Serif" font-size="11.00" fill="#000000">int[10]</text>
<polygon fill="none" stroke="#000000" points="312.5,-119.7 312.5,-141.7 479.5,-141.7 479.5,-119.7 312.5,-119.7"/>
<text text-anchor="start" x="332.5" y="-126.8" font-family="Helvetica,sans-Serif" font-size="11.00" fill="#000000">deductible</text>
<polygon fill="none" stroke="#000000" points="479.5,-119.7 479.5,-141.7 545.5,-141.7 545.5,-119.7 479.5,-119.7"/>
<text text-anchor="start" x="482.5" y="-127.4" font-family="Helvetica,sans-Serif" font-size="11.00" fill="#000000">int[10]</text>
<polygon fill="none" stroke="#000000" points="312.5,-97.7 312.5,-119.7 479.5,-119.7 479.5,-97.7 312.5,-97.7"/>
<text text-anchor="start" x="332.5" y="-104.8" font-family="Helvetica,sans-Serif" font-size="11.00" fill="#000000">deductiblemet</text>
<polygon fill="none" stroke="#000000" points="479.5,-97.7 479.5,-119.7 545.5,-119.7 545.5,-97.7 479.5,-97.7"/>
<text text-anchor="start" x="482.5" y="-105.4" font-family="Helvetica,sans-Serif" font-size="11.00" fill="#000000">enum[1]</text>
<polygon fill="none" stroke="#000000" points="312.5,-75.7 312.5,-97.7 479.5,-97.7 479.5,-75.7 312.5,-75.7"/>
<text text-anchor="start" x="332.5" y="-82.8" font-family="Helvetica,sans-Serif" font-size="11.00" fill="#000000">create_date</text>
<polygon fill="none" stroke="#000000" points="479.5,-75.7 479.5,-97.7 545.5,-97.7 545.5,-75.7 479.5,-75.7"/>
<text text-anchor="start" x="482.5" y="-83.4" font-family="Helvetica,sans-Serif" font-size="11.00" fill="#000000">date[10]</text>
<polygon fill="#ffffff" stroke="transparent" points="312.5,-56.7 312.5,-75.7 400.5,-75.7 400.5,-56.7 312.5,-56.7"/>
<polygon fill="none" stroke="#000000" points="312.5,-56.7 312.5,-75.7 400.5,-75.7 400.5,-56.7 312.5,-56.7"/>
<text text-anchor="start" x="315.5" y="-62.8" font-family="Helvetica,sans-Serif" font-size="11.00" fill="#000000">&lt; 1</text>
<polygon fill="#ffffff" stroke="transparent" points="400.5,-56.7 400.5,-75.7 479.5,-75.7 479.5,-56.7 400.5,-56.7"/>
<polygon fill="none" stroke="#000000" points="400.5,-56.7 400.5,-75.7 479.5,-75.7 479.5,-56.7 400.5,-56.7"/>
<text text-anchor="start" x="470.3862" y="-62.8" font-family="Helvetica,sans-Serif" font-size="11.00" fill="#000000"> &#160;</text>
<polygon fill="#ffffff" stroke="transparent" points="479.5,-56.7 479.5,-75.7 545.5,-75.7 545.5,-56.7 479.5,-56.7"/>
<polygon fill="none" stroke="#000000" points="479.5,-56.7 479.5,-75.7 545.5,-75.7 545.5,-56.7 479.5,-56.7"/>
<text text-anchor="start" x="526.9053" y="-62.8" font-family="Helvetica,sans-Serif" font-size="11.00" fill="#000000">1 &gt;</text>
<polygon fill="none" stroke="#000000" stroke-width="2" points="311,-55.7 311,-275.7 546,-275.7 546,-55.7 311,-55.7"/>
</a>
</g>
</g>
<!-- benefit_eligibility&#45;&gt;eligibility_verification -->
<g id="edge1" class="edge">
<title>benefit_eligibility:w&#45;&gt;eligibility_verification:e</title>
<path fill="none" stroke="#000000" d="M581.776,-240.7C569.7815,-240.7 562.3229,-240.7 545.5,-240.7"/>
<polygon fill="#000000" stroke="#000000" points="588.5,-240.7001 596.5,-244.3 592.5,-240.7 596.5,-240.7 596.5,-240.7 596.5,-240.7 592.5,-240.7 596.5,-237.1 588.5,-240.7001 588.5,-240.7001"/>
<ellipse fill="none" stroke="#000000" cx="585.3" cy="-240.7001" rx="3.2" ry="3.2"/>
</g>
<!-- insurance_data -->
<g id="node3" class="node">
<title>insurance_data</title>
<g id="a_node3"><a xlink:href="../../tables/insurance_data.html" xlink:title="insurance_data" target="_top">
<polygon fill="#ffffff" stroke="transparent" points="8,-38.2 8,-231.2 261,-231.2 261,-38.2 8,-38.2"/>
<polygon fill="#f5f5f5" stroke="transparent" points="8.5,-207.7 8.5,-230.7 261.5,-230.7 261.5,-207.7 8.5,-207.7"/>
<polygon fill="none" stroke="#000000" points="8.5,-207.7 8.5,-230.7 261.5,-230.7 261.5,-207.7 8.5,-207.7"/>
<text text-anchor="start" x="13.5" y="-216.3" font-family="Helvetica,sans-Serif" font-weight="bold" font-size="11.00" fill="#000000">insurance_data</text>
<text text-anchor="start" x="226.5437" y="-215.8" font-family="Helvetica,sans-Serif" font-size="11.00" fill="#000000">[table]</text>
<polygon fill="none" stroke="#000000" points="8.5,-185.7 8.5,-207.7 261.5,-207.7 261.5,-185.7 8.5,-185.7"/>
<image xlink:href="../../images/primaryKeys.png" width="11px" height="12px" preserveAspectRatio="xMinYMin meet" x="13.5" y="-202.7"/>
<text text-anchor="start" x="28.5" y="-192.8" font-family="Helvetica,sans-Serif" font-size="11.00" fill="#000000">id</text>
<polygon fill="#ffffff" stroke="transparent" points="8.5,-163.7 8.5,-185.7 261.5,-185.7 261.5,-163.7 8.5,-163.7"/>
<polygon fill="none" stroke="#000000" points="8.5,-163.7 8.5,-185.7 261.5,-185.7 261.5,-163.7 8.5,-163.7"/>
<text text-anchor="start" x="28.5" y="-170.8" font-family="Helvetica,sans-Serif" font-size="11.00" fill="#000000">type</text>
<polygon fill="none" stroke="#000000" points="8.5,-141.7 8.5,-163.7 261.5,-163.7 261.5,-141.7 8.5,-141.7"/>
<image xlink:href="../../images/foreignKeys.png" width="11px" height="12px" preserveAspectRatio="xMinYMin meet" x="13.5" y="-158.7"/>
<text text-anchor="start" x="28.5" y="-148.8" font-family="Helvetica,sans-Serif" font-size="11.00" fill="#000000">provider</text>
<polygon fill="#ffffff" stroke="transparent" points="8.5,-119.7 8.5,-141.7 261.5,-141.7 261.5,-119.7 8.5,-119.7"/>
<polygon fill="none" stroke="#000000" points="8.5,-119.7 8.5,-141.7 261.5,-141.7 261.5,-119.7 8.5,-119.7"/>
<text text-anchor="start" x="28.5" y="-126.8" font-family="Helvetica,sans-Serif" font-size="11.00" fill="#000000">date</text>
<polygon fill="#ffffff" stroke="transparent" points="8.5,-97.7 8.5,-119.7 261.5,-119.7 261.5,-97.7 8.5,-97.7"/>
<polygon fill="none" stroke="#000000" points="8.5,-97.7 8.5,-119.7 261.5,-119.7 261.5,-97.7 8.5,-97.7"/>
<image xlink:href="../../images/foreignKeys.png" width="11px" height="12px" preserveAspectRatio="xMinYMin meet" x="13.5" y="-114.7"/>
<text text-anchor="start" x="28.5" y="-104.8" font-family="Helvetica,sans-Serif" font-size="11.00" fill="#000000">pid</text>
<polygon fill="#ffffff" stroke="transparent" points="8.5,-75.7 8.5,-97.7 261.5,-97.7 261.5,-75.7 8.5,-75.7"/>
<polygon fill="none" stroke="#000000" points="8.5,-75.7 8.5,-97.7 261.5,-97.7 261.5,-75.7 8.5,-75.7"/>
<text text-anchor="start" x="28.5" y="-82.8" font-family="Helvetica,sans-Serif" font-size="11.00" fill="#000000">uuid</text>
<polygon fill="none" stroke="#000000" points="8.5,-56.7 8.5,-75.7 261.5,-75.7 261.5,-56.7 8.5,-56.7"/>
<text text-anchor="start" x="11.5" y="-62.8" font-family="Helvetica,sans-Serif" font-size="11.00" fill="#000000">...</text>
<polygon fill="#ffffff" stroke="transparent" points="8.5,-37.7 8.5,-56.7 128.5,-56.7 128.5,-37.7 8.5,-37.7"/>
<polygon fill="none" stroke="#000000" points="8.5,-37.7 8.5,-56.7 128.5,-56.7 128.5,-37.7 8.5,-37.7"/>
<text text-anchor="start" x="11.5" y="-43.8" font-family="Helvetica,sans-Serif" font-size="11.00" fill="#000000">&lt; 2</text>
<polygon fill="#ffffff" stroke="transparent" points="128.5,-37.7 128.5,-56.7 190.5,-56.7 190.5,-37.7 128.5,-37.7"/>
<polygon fill="none" stroke="#000000" points="128.5,-37.7 128.5,-56.7 190.5,-56.7 190.5,-37.7 128.5,-37.7"/>
<text text-anchor="start" x="181.3862" y="-43.8" font-family="Helvetica,sans-Serif" font-size="11.00" fill="#000000"> &#160;</text>
<polygon fill="#ffffff" stroke="transparent" points="190.5,-37.7 190.5,-56.7 261.5,-56.7 261.5,-37.7 190.5,-37.7"/>
<polygon fill="none" stroke="#000000" points="190.5,-37.7 190.5,-56.7 261.5,-56.7 261.5,-37.7 190.5,-37.7"/>
<text text-anchor="start" x="242.9053" y="-43.8" font-family="Helvetica,sans-Serif" font-size="11.00" fill="#000000">1 &gt;</text>
</a>
</g>
</g>
<!-- eligibility_verification&#45;&gt;insurance_data -->
<g id="edge2" class="edge">
<title>eligibility_verification:w&#45;&gt;insurance_data:e</title>
<path fill="none" stroke="#000000" d="M297.776,-196.7C285.7815,-196.7 278.3229,-196.7 261.5,-196.7"/>
<polygon fill="#000000" stroke="#000000" points="304.5,-196.7001 312.5,-200.3 308.5,-196.7 312.5,-196.7 312.5,-196.7 312.5,-196.7 308.5,-196.7 312.5,-193.1 304.5,-196.7001 304.5,-196.7001"/>
<ellipse fill="none" stroke="#000000" cx="301.3" cy="-196.7001" rx="3.2" ry="3.2"/>
</g>
</g>
</svg>
