<?xml version="1.0" encoding="UTF-8" standalone="no"?>
<!DOCTYPE svg PUBLIC "-//W3C//DTD SVG 1.1//EN"
 "http://www.w3.org/Graphics/SVG/1.1/DTD/svg11.dtd">
<!-- Generated by graphviz version 2.40.1 (20161225.0304)
 -->
<!-- Title: twoDegreesRelationshipsDiagram Pages: 1 -->
<svg width="938pt" height="289pt"
 viewBox="0.00 0.00 938.00 288.70" xmlns="http://www.w3.org/2000/svg" xmlns:xlink="http://www.w3.org/1999/xlink">
<g id="graph0" class="graph" transform="scale(1 1) rotate(0) translate(4 284.7)">
<title>twoDegreesRelationshipsDiagram</title>
<polygon fill="#ffffff" stroke="transparent" points="-4,4 -4,-284.7 934,-284.7 934,4 -4,4"/>
<text text-anchor="middle" x="72.4936" y="-7.3" font-family="Helvetica,sans-Serif" font-size="11.00" fill="#000000">Generated by SchemaSpy</text>
<!-- benefit_eligibility -->
<g id="node1" class="node">
<title>benefit_eligibility</title>
<g id="a_node1"><a xlink:href="../../tables/benefit_eligibility.html" xlink:title="benefit_eligibility" target="_top">
<polygon fill="#ffffff" stroke="transparent" points="768,-192.2 768,-275.2 922,-275.2 922,-192.2 768,-192.2"/>
<polygon fill="#f5f5f5" stroke="transparent" points="768,-251.7 768,-274.7 922,-274.7 922,-251.7 768,-251.7"/>
<polygon fill="none" stroke="#000000" points="768,-251.7 768,-274.7 922,-274.7 922,-251.7 768,-251.7"/>
<text text-anchor="start" x="773" y="-260.3" font-family="Helvetica,sans-Serif" font-weight="bold" font-size="11.00" fill="#000000">benefit_eligibility</text>
<text text-anchor="start" x="887.0437" y="-259.8" font-family="Helvetica,sans-Serif" font-size="11.00" fill="#000000">[table]</text>
<polygon fill="none" stroke="#000000" points="768,-229.7 768,-251.7 922,-251.7 922,-229.7 768,-229.7"/>
<image xlink:href="../../images/foreignKeys.png" width="11px" height="12px" preserveAspectRatio="xMinYMin meet" x="773" y="-246.7"/>
<text text-anchor="start" x="788" y="-236.8" font-family="Helvetica,sans-Serif" font-size="11.00" fill="#000000">verification_id</text>
<polygon fill="none" stroke="#000000" points="768,-210.7 768,-229.7 922,-229.7 922,-210.7 768,-210.7"/>
<text text-anchor="start" x="771" y="-216.8" font-family="Helvetica,sans-Serif" font-size="11.00" fill="#000000">...</text>
<polygon fill="#ffffff" stroke="transparent" points="768,-191.7 768,-210.7 843,-210.7 843,-191.7 768,-191.7"/>
<polygon fill="none" stroke="#000000" points="768,-191.7 768,-210.7 843,-210.7 843,-191.7 768,-191.7"/>
<text text-anchor="start" x="771" y="-197.8" font-family="Helvetica,sans-Serif" font-size="11.00" fill="#000000">&lt; 1</text>
<polygon fill="#ffffff" stroke="transparent" points="843,-191.7 843,-210.7 882,-210.7 882,-191.7 843,-191.7"/>
<polygon fill="none" stroke="#000000" points="843,-191.7 843,-210.7 882,-210.7 882,-191.7 843,-191.7"/>
<text text-anchor="start" x="872.8862" y="-197.8" font-family="Helvetica,sans-Serif" font-size="11.00" fill="#000000"> &#160;</text>
<polygon fill="#ffffff" stroke="transparent" points="882,-191.7 882,-210.7 922,-210.7 922,-191.7 882,-191.7"/>
<polygon fill="none" stroke="#000000" points="882,-191.7 882,-210.7 922,-210.7 922,-191.7 882,-191.7"/>
<text text-anchor="start" x="912.8862" y="-197.8" font-family="Helvetica,sans-Serif" font-size="11.00" fill="#000000"> &#160;</text>
</a>
</g>
</g>
<!-- eligibility_verification -->
<g id="node2" class="node">
<title>eligibility_verification</title>
<g id="a_node2"><a xlink:href="../../tables/eligibility_verification.html" xlink:title="eligibility_verification" target="_top">
<polygon fill="#ffffff" stroke="transparent" points="498,-54.7 498,-276.7 719,-276.7 719,-54.7 498,-54.7"/>
<polygon fill="#f5f5f5" stroke="transparent" points="500.5,-251.7 500.5,-274.7 717.5,-274.7 717.5,-251.7 500.5,-251.7"/>
<polygon fill="none" stroke="#000000" points="500.5,-251.7 500.5,-274.7 717.5,-274.7 717.5,-251.7 500.5,-251.7"/>
<text text-anchor="start" x="505.5" y="-260.3" font-family="Helvetica,sans-Serif" font-weight="bold" font-size="11.00" fill="#000000">eligibility_verification</text>
<text text-anchor="start" x="682.5437" y="-259.8" font-family="Helvetica,sans-Serif" font-size="11.00" fill="#000000">[table]</text>
<polygon fill="none" stroke="#000000" points="500.5,-229.7 500.5,-251.7 651.5,-251.7 651.5,-229.7 500.5,-229.7"/>
<image xlink:href="../../images/primaryKeys.png" width="11px" height="12px" preserveAspectRatio="xMinYMin meet" x="505.5" y="-246.7"/>
<text text-anchor="start" x="520.5" y="-236.8" font-family="Helvetica,sans-Serif" font-size="11.00" fill="#000000">verification_id</text>
<polygon fill="none" stroke="#000000" points="651.5,-229.7 651.5,-251.7 717.5,-251.7 717.5,-229.7 651.5,-229.7"/>
<text text-anchor="start" x="654.5" y="-237.4" font-family="Helvetica,sans-Serif" font-size="11.00" fill="#000000">bigint[19]</text>
<polygon fill="none" stroke="#000000" points="500.5,-207.7 500.5,-229.7 651.5,-229.7 651.5,-207.7 500.5,-207.7"/>
<text text-anchor="start" x="520.5" y="-214.8" font-family="Helvetica,sans-Serif" font-size="11.00" fill="#000000">response_id</text>
<polygon fill="none" stroke="#000000" points="651.5,-207.7 651.5,-229.7 717.5,-229.7 717.5,-207.7 651.5,-207.7"/>
<text text-anchor="start" x="654.5" y="-215.4" font-family="Helvetica,sans-Serif" font-size="11.00" fill="#000000">varchar[32]</text>
<polygon fill="#ffffff" stroke="transparent" points="500.5,-185.7 500.5,-207.7 651.5,-207.7 651.5,-185.7 500.5,-185.7"/>
<polygon fill="none" stroke="#000000" points="500.5,-185.7 500.5,-207.7 651.5,-207.7 651.5,-185.7 500.5,-185.7"/>
<image xlink:href="../../images/foreignKeys.png" width="11px" height="12px" preserveAspectRatio="xMinYMin meet" x="505.5" y="-202.7"/>
<text text-anchor="start" x="520.5" y="-192.8" font-family="Helvetica,sans-Serif" font-size="11.00" fill="#000000">insurance_id</text>
<polygon fill="none" stroke="#000000" points="651.5,-185.7 651.5,-207.7 717.5,-207.7 717.5,-185.7 651.5,-185.7"/>
<text text-anchor="start" x="654.5" y="-193.4" font-family="Helvetica,sans-Serif" font-size="11.00" fill="#000000">bigint[19]</text>
<polygon fill="none" stroke="#000000" points="500.5,-163.7 500.5,-185.7 651.5,-185.7 651.5,-163.7 500.5,-163.7"/>
<text text-anchor="start" x="520.5" y="-170.8" font-family="Helvetica,sans-Serif" font-size="11.00" fill="#000000">eligibility_check_date</text>
<polygon fill="none" stroke="#000000" points="651.5,-163.7 651.5,-185.7 717.5,-185.7 717.5,-163.7 651.5,-163.7"/>
<text text-anchor="start" x="654.2401" y="-171.4" font-family="Helvetica,sans-Serif" font-size="11.00" fill="#000000">datetime[19]</text>
<polygon fill="none" stroke="#000000" points="500.5,-141.7 500.5,-163.7 651.5,-163.7 651.5,-141.7 500.5,-141.7"/>
<text text-anchor="start" x="520.5" y="-148.8" font-family="Helvetica,sans-Serif" font-size="11.00" fill="#000000">copay</text>
<polygon fill="none" stroke="#000000" points="651.5,-141.7 651.5,-163.7 717.5,-163.7 717.5,-141.7 651.5,-141.7"/>
<text text-anchor="start" x="654.5" y="-149.4" font-family="Helvetica,sans-Serif" font-size="11.00" fill="#000000">int[10]</text>
<polygon fill="none" stroke="#000000" points="500.5,-119.7 500.5,-141.7 651.5,-141.7 651.5,-119.7 500.5,-119.7"/>
<text text-anchor="start" x="520.5" y="-126.8" font-family="Helvetica,sans-Serif" font-size="11.00" fill="#000000">deductible</text>
<polygon fill="none" stroke="#000000" points="651.5,-119.7 651.5,-141.7 717.5,-141.7 717.5,-119.7 651.5,-119.7"/>
<text text-anchor="start" x="654.5" y="-127.4" font-family="Helvetica,sans-Serif" font-size="11.00" fill="#000000">int[10]</text>
<polygon fill="none" stroke="#000000" points="500.5,-97.7 500.5,-119.7 651.5,-119.7 651.5,-97.7 500.5,-97.7"/>
<text text-anchor="start" x="520.5" y="-104.8" font-family="Helvetica,sans-Serif" font-size="11.00" fill="#000000">deductiblemet</text>
<polygon fill="none" stroke="#000000" points="651.5,-97.7 651.5,-119.7 717.5,-119.7 717.5,-97.7 651.5,-97.7"/>
<text text-anchor="start" x="654.5" y="-105.4" font-family="Helvetica,sans-Serif" font-size="11.00" fill="#000000">enum[1]</text>
<polygon fill="none" stroke="#000000" points="500.5,-75.7 500.5,-97.7 651.5,-97.7 651.5,-75.7 500.5,-75.7"/>
<text text-anchor="start" x="520.5" y="-82.8" font-family="Helvetica,sans-Serif" font-size="11.00" fill="#000000">create_date</text>
<polygon fill="none" stroke="#000000" points="651.5,-75.7 651.5,-97.7 717.5,-97.7 717.5,-75.7 651.5,-75.7"/>
<text text-anchor="start" x="654.5" y="-83.4" font-family="Helvetica,sans-Serif" font-size="11.00" fill="#000000">date[10]</text>
<polygon fill="#ffffff" stroke="transparent" points="500.5,-56.7 500.5,-75.7 580.5,-75.7 580.5,-56.7 500.5,-56.7"/>
<polygon fill="none" stroke="#000000" points="500.5,-56.7 500.5,-75.7 580.5,-75.7 580.5,-56.7 500.5,-56.7"/>
<text text-anchor="start" x="503.5" y="-62.8" font-family="Helvetica,sans-Serif" font-size="11.00" fill="#000000">&lt; 1</text>
<polygon fill="#ffffff" stroke="transparent" points="580.5,-56.7 580.5,-75.7 651.5,-75.7 651.5,-56.7 580.5,-56.7"/>
<polygon fill="none" stroke="#000000" points="580.5,-56.7 580.5,-75.7 651.5,-75.7 651.5,-56.7 580.5,-56.7"/>
<text text-anchor="start" x="642.3862" y="-62.8" font-family="Helvetica,sans-Serif" font-size="11.00" fill="#000000"> &#160;</text>
<polygon fill="#ffffff" stroke="transparent" points="651.5,-56.7 651.5,-75.7 717.5,-75.7 717.5,-56.7 651.5,-56.7"/>
<polygon fill="none" stroke="#000000" points="651.5,-56.7 651.5,-75.7 717.5,-75.7 717.5,-56.7 651.5,-56.7"/>
<text text-anchor="start" x="698.9053" y="-62.8" font-family="Helvetica,sans-Serif" font-size="11.00" fill="#000000">1 &gt;</text>
<polygon fill="none" stroke="#000000" stroke-width="2" points="499,-55.7 499,-275.7 718,-275.7 718,-55.7 499,-55.7"/>
</a>
</g>
</g>
<!-- benefit_eligibility&#45;&gt;eligibility_verification -->
<g id="edge1" class="edge">
<title>benefit_eligibility:w&#45;&gt;eligibility_verification:e</title>
<path fill="none" stroke="#000000" d="M753.4203,-240.7C741.5435,-240.7 734.158,-240.7 717.5,-240.7"/>
<polygon fill="#000000" stroke="#000000" points="760,-240.7001 768,-244.3 764,-240.7 768,-240.7 768,-240.7 768,-240.7 764,-240.7 768,-237.1 760,-240.7001 760,-240.7001"/>
<ellipse fill="none" stroke="#000000" cx="756.8" cy="-240.7001" rx="3.2" ry="3.2"/>
</g>
<!-- insurance_data -->
<g id="node3" class="node">
<title>insurance_data</title>
<g id="a_node3"><a xlink:href="../../tables/insurance_data.html" xlink:title="insurance_data" target="_top">
<polygon fill="#ffffff" stroke="transparent" points="224,-38.2 224,-231.2 449,-231.2 449,-38.2 224,-38.2"/>
<polygon fill="#f5f5f5" stroke="transparent" points="224.5,-207.7 224.5,-230.7 449.5,-230.7 449.5,-207.7 224.5,-207.7"/>
<polygon fill="none" stroke="#000000" points="224.5,-207.7 224.5,-230.7 449.5,-230.7 449.5,-207.7 224.5,-207.7"/>
<text text-anchor="start" x="229.5" y="-216.3" font-family="Helvetica,sans-Serif" font-weight="bold" font-size="11.00" fill="#000000">insurance_data</text>
<text text-anchor="start" x="414.5437" y="-215.8" font-family="Helvetica,sans-Serif" font-size="11.00" fill="#000000">[table]</text>
<polygon fill="none" stroke="#000000" points="224.5,-185.7 224.5,-207.7 449.5,-207.7 449.5,-185.7 224.5,-185.7"/>
<image xlink:href="../../images/primaryKeys.png" width="11px" height="12px" preserveAspectRatio="xMinYMin meet" x="229.5" y="-202.7"/>
<text text-anchor="start" x="244.5" y="-192.8" font-family="Helvetica,sans-Serif" font-size="11.00" fill="#000000">id</text>
<polygon fill="#ffffff" stroke="transparent" points="224.5,-163.7 224.5,-185.7 449.5,-185.7 449.5,-163.7 224.5,-163.7"/>
<polygon fill="none" stroke="#000000" points="224.5,-163.7 224.5,-185.7 449.5,-185.7 449.5,-163.7 224.5,-163.7"/>
<text text-anchor="start" x="244.5" y="-170.8" font-family="Helvetica,sans-Serif" font-size="11.00" fill="#000000">uuid</text>
<polygon fill="#ffffff" stroke="transparent" points="224.5,-141.7 224.5,-163.7 449.5,-163.7 449.5,-141.7 224.5,-141.7"/>
<polygon fill="none" stroke="#000000" points="224.5,-141.7 224.5,-163.7 449.5,-163.7 449.5,-141.7 224.5,-141.7"/>
<text text-anchor="start" x="244.5" y="-148.8" font-family="Helvetica,sans-Serif" font-size="11.00" fill="#000000">type</text>
<polygon fill="none" stroke="#000000" points="224.5,-119.7 224.5,-141.7 449.5,-141.7 449.5,-119.7 224.5,-119.7"/>
<image xlink:href="../../images/foreignKeys.png" width="11px" height="12px" preserveAspectRatio="xMinYMin meet" x="229.5" y="-136.7"/>
<text text-anchor="start" x="244.5" y="-126.8" font-family="Helvetica,sans-Serif" font-size="11.00" fill="#000000">provider</text>
<polygon fill="#ffffff" stroke="transparent" points="224.5,-97.7 224.5,-119.7 449.5,-119.7 449.5,-97.7 224.5,-97.7"/>
<polygon fill="none" stroke="#000000" points="224.5,-97.7 224.5,-119.7 449.5,-119.7 449.5,-97.7 224.5,-97.7"/>
<text text-anchor="start" x="244.5" y="-104.8" font-family="Helvetica,sans-Serif" font-size="11.00" fill="#000000">date</text>
<polygon fill="#ffffff" stroke="transparent" points="224.5,-75.7 224.5,-97.7 449.5,-97.7 449.5,-75.7 224.5,-75.7"/>
<polygon fill="none" stroke="#000000" points="224.5,-75.7 224.5,-97.7 449.5,-97.7 449.5,-75.7 224.5,-75.7"/>
<image xlink:href="../../images/foreignKeys.png" width="11px" height="12px" preserveAspectRatio="xMinYMin meet" x="229.5" y="-92.7"/>
<text text-anchor="start" x="244.5" y="-82.8" font-family="Helvetica,sans-Serif" font-size="11.00" fill="#000000">pid</text>
<polygon fill="none" stroke="#000000" points="224.5,-56.7 224.5,-75.7 449.5,-75.7 449.5,-56.7 224.5,-56.7"/>
<text text-anchor="start" x="227.5" y="-62.8" font-family="Helvetica,sans-Serif" font-size="11.00" fill="#000000">...</text>
<polygon fill="#ffffff" stroke="transparent" points="224.5,-37.7 224.5,-56.7 330.5,-56.7 330.5,-37.7 224.5,-37.7"/>
<polygon fill="none" stroke="#000000" points="224.5,-37.7 224.5,-56.7 330.5,-56.7 330.5,-37.7 224.5,-37.7"/>
<text text-anchor="start" x="227.5" y="-43.8" font-family="Helvetica,sans-Serif" font-size="11.00" fill="#000000">&lt; 2</text>
<polygon fill="#ffffff" stroke="transparent" points="330.5,-37.7 330.5,-56.7 385.5,-56.7 385.5,-37.7 330.5,-37.7"/>
<polygon fill="none" stroke="#000000" points="330.5,-37.7 330.5,-56.7 385.5,-56.7 385.5,-37.7 330.5,-37.7"/>
<text text-anchor="start" x="376.3862" y="-43.8" font-family="Helvetica,sans-Serif" font-size="11.00" fill="#000000"> &#160;</text>
<polygon fill="#ffffff" stroke="transparent" points="385.5,-37.7 385.5,-56.7 449.5,-56.7 449.5,-37.7 385.5,-37.7"/>
<polygon fill="none" stroke="#000000" points="385.5,-37.7 385.5,-56.7 449.5,-56.7 449.5,-37.7 385.5,-37.7"/>
<text text-anchor="start" x="430.9053" y="-43.8" font-family="Helvetica,sans-Serif" font-size="11.00" fill="#000000">1 &gt;</text>
</a>
</g>
</g>
<!-- eligibility_verification&#45;&gt;insurance_data -->
<g id="edge2" class="edge">
<title>eligibility_verification:w&#45;&gt;insurance_data:e</title>
<path fill="none" stroke="#000000" d="M485.776,-196.7C473.7815,-196.7 466.3229,-196.7 449.5,-196.7"/>
<polygon fill="#000000" stroke="#000000" points="492.5,-196.7001 500.5,-200.3 496.5,-196.7 500.5,-196.7 500.5,-196.7 500.5,-196.7 496.5,-196.7 500.5,-193.1 492.5,-196.7001 492.5,-196.7001"/>
<ellipse fill="none" stroke="#000000" cx="489.3" cy="-196.7001" rx="3.2" ry="3.2"/>
</g>
<!-- patient_data -->
<g id="node4" class="node">
<title>patient_data</title>
<g id="a_node4"><a xlink:href="../../tables/patient_data.html" xlink:title="patient_data" target="_top">
<polygon fill="#ffffff" stroke="transparent" points="34,-40.2 34,-101.2 149,-101.2 149,-40.2 34,-40.2"/>
<polygon fill="#f5f5f5" stroke="transparent" points="34.5,-77.7 34.5,-100.7 149.5,-100.7 149.5,-77.7 34.5,-77.7"/>
<polygon fill="none" stroke="#000000" points="34.5,-77.7 34.5,-100.7 149.5,-100.7 149.5,-77.7 34.5,-77.7"/>
<text text-anchor="start" x="39.5" y="-86.3" font-family="Helvetica,sans-Serif" font-weight="bold" font-size="11.00" fill="#000000">patient_data</text>
<text text-anchor="start" x="115.0219" y="-85.8" font-family="Helvetica,sans-Serif" font-size="11.00" fill="#000000">[table]</text>
<polygon fill="none" stroke="#000000" points="34.5,-58.7 34.5,-77.7 149.5,-77.7 149.5,-58.7 34.5,-58.7"/>
<text text-anchor="start" x="37.5" y="-64.8" font-family="Helvetica,sans-Serif" font-size="11.00" fill="#000000">...</text>
<polygon fill="#ffffff" stroke="transparent" points="34.5,-39.7 34.5,-58.7 82.5,-58.7 82.5,-39.7 34.5,-39.7"/>
<polygon fill="none" stroke="#000000" points="34.5,-39.7 34.5,-58.7 82.5,-58.7 82.5,-39.7 34.5,-39.7"/>
<text text-anchor="start" x="37.5" y="-45.8" font-family="Helvetica,sans-Serif" font-size="11.00" fill="#000000">&lt; 9</text>
<polygon fill="#ffffff" stroke="transparent" points="82.5,-39.7 82.5,-58.7 108.5,-58.7 108.5,-39.7 82.5,-39.7"/>
<polygon fill="none" stroke="#000000" points="82.5,-39.7 82.5,-58.7 108.5,-58.7 108.5,-39.7 82.5,-39.7"/>
<text text-anchor="start" x="99.3862" y="-45.8" font-family="Helvetica,sans-Serif" font-size="11.00" fill="#000000"> &#160;</text>
<polygon fill="#ffffff" stroke="transparent" points="108.5,-39.7 108.5,-58.7 149.5,-58.7 149.5,-39.7 108.5,-39.7"/>
<polygon fill="none" stroke="#000000" points="108.5,-39.7 108.5,-58.7 149.5,-58.7 149.5,-39.7 108.5,-39.7"/>
<text text-anchor="start" x="124.7904" y="-45.8" font-family="Helvetica,sans-Serif" font-size="11.00" fill="#000000">97 &gt;</text>
</a>
</g>
</g>
<!-- insurance_data&#45;&gt;patient_data -->
<g id="edge3" class="edge">
<title>insurance_data:w&#45;&gt;patient_data:e</title>
<path fill="none" stroke="#000000" d="M209.9139,-85.3941C187.3967,-81.1014 178.3791,-67.7 149.5,-67.7"/>
<polygon fill="#000000" stroke="#000000" points="216.5319,-85.9865 224.1789,-90.2857 220.5159,-86.3433 224.5,-86.7 224.5,-86.7 224.5,-86.7 220.5159,-86.3433 224.8211,-83.1143 216.5319,-85.9865 216.5319,-85.9865"/>
<ellipse fill="none" stroke="#000000" cx="213.3446" cy="-85.7011" rx="3.2" ry="3.2"/>
</g>
<!-- insurance_companies -->
<g id="node5" class="node">
<title>insurance_companies</title>
<g id="a_node5"><a xlink:href="../../tables/insurance_companies.html" xlink:title="insurance_companies" target="_top">
<polygon fill="#ffffff" stroke="transparent" points="8,-122.2 8,-183.2 175,-183.2 175,-122.2 8,-122.2"/>
<polygon fill="#f5f5f5" stroke="transparent" points="8.5,-159.7 8.5,-182.7 175.5,-182.7 175.5,-159.7 8.5,-159.7"/>
<polygon fill="none" stroke="#000000" points="8.5,-159.7 8.5,-182.7 175.5,-182.7 175.5,-159.7 8.5,-159.7"/>
<text text-anchor="start" x="13.5" y="-168.3" font-family="Helvetica,sans-Serif" font-weight="bold" font-size="11.00" fill="#000000">insurance_companies</text>
<text text-anchor="start" x="141.0219" y="-167.8" font-family="Helvetica,sans-Serif" font-size="11.00" fill="#000000">[table]</text>
<polygon fill="none" stroke="#000000" points="8.5,-140.7 8.5,-159.7 175.5,-159.7 175.5,-140.7 8.5,-140.7"/>
<text text-anchor="start" x="11.5" y="-146.8" font-family="Helvetica,sans-Serif" font-size="11.00" fill="#000000">...</text>
<polygon fill="#ffffff" stroke="transparent" points="8.5,-121.7 8.5,-140.7 85.5,-140.7 85.5,-121.7 8.5,-121.7"/>
<polygon fill="none" stroke="#000000" points="8.5,-121.7 8.5,-140.7 85.5,-140.7 85.5,-121.7 8.5,-121.7"/>
<text text-anchor="start" x="11.5" y="-127.8" font-family="Helvetica,sans-Serif" font-size="11.00" fill="#000000">&lt; 1</text>
<polygon fill="#ffffff" stroke="transparent" points="85.5,-121.7 85.5,-140.7 125.5,-140.7 125.5,-121.7 85.5,-121.7"/>
<polygon fill="none" stroke="#000000" points="85.5,-121.7 85.5,-140.7 125.5,-140.7 125.5,-121.7 85.5,-121.7"/>
<text text-anchor="start" x="116.3862" y="-127.8" font-family="Helvetica,sans-Serif" font-size="11.00" fill="#000000"> &#160;</text>
<polygon fill="#ffffff" stroke="transparent" points="125.5,-121.7 125.5,-140.7 175.5,-140.7 175.5,-121.7 125.5,-121.7"/>
<polygon fill="none" stroke="#000000" points="125.5,-121.7 125.5,-140.7 175.5,-140.7 175.5,-121.7 125.5,-121.7"/>
<text text-anchor="start" x="156.9053" y="-127.8" font-family="Helvetica,sans-Serif" font-size="11.00" fill="#000000">5 &gt;</text>
</a>
</g>
</g>
<!-- insurance_data&#45;&gt;insurance_companies -->
<g id="edge4" class="edge">
<title>insurance_data:w&#45;&gt;insurance_companies:e</title>
<path fill="none" stroke="#000000" d="M210.2744,-133.6688C198.6829,-139.0125 193.0182,-149.7 175.5,-149.7"/>
<polygon fill="#000000" stroke="#000000" points="216.6687,-132.3344 225.2355,-134.2241 220.5844,-131.5172 224.5,-130.7 224.5,-130.7 224.5,-130.7 220.5844,-131.5172 223.7645,-127.1759 216.6687,-132.3344 216.6687,-132.3344"/>
<ellipse fill="none" stroke="#000000" cx="213.5362" cy="-132.9881" rx="3.2" ry="3.2"/>
</g>
</g>
</svg>
