<?xml version="1.0" encoding="UTF-8" standalone="no"?>
<!DOCTYPE svg PUBLIC "-//W3C//DTD SVG 1.1//EN"
 "http://www.w3.org/Graphics/SVG/1.1/DTD/svg11.dtd">
<!-- Generated by graphviz version 2.40.1 (20161225.0304)
 -->
<!-- Title: oneDegreeRelationshipsDiagram Pages: 1 -->
<svg width="493pt" height="315pt"
 viewBox="0.00 0.00 493.00 314.70" xmlns="http://www.w3.org/2000/svg" xmlns:xlink="http://www.w3.org/1999/xlink">
<g id="graph0" class="graph" transform="scale(1 1) rotate(0) translate(4 310.7)">
<title>oneDegreeRelationshipsDiagram</title>
<polygon fill="#ffffff" stroke="transparent" points="-4,4 -4,-310.7 489,-310.7 489,4 -4,4"/>
<text text-anchor="middle" x="72.4936" y="-7.3" font-family="Helvetica,sans-Serif" font-size="11.00" fill="#000000">Generated by SchemaSpy</text>
<!-- external_encounters -->
<g id="node1" class="node">
<title>external_encounters</title>
<g id="a_node1"><a xlink:href="../../tables/external_encounters.html" xlink:title="external_encounters" target="_top">
<polygon fill="#ffffff" stroke="transparent" points="224,-38.2 224,-238.2 477,-238.2 477,-38.2 224,-38.2"/>
<polygon fill="#f5f5f5" stroke="transparent" points="226.5,-213.2 226.5,-236.2 475.5,-236.2 475.5,-213.2 226.5,-213.2"/>
<polygon fill="none" stroke="#000000" points="226.5,-213.2 226.5,-236.2 475.5,-236.2 475.5,-213.2 226.5,-213.2"/>
<text text-anchor="start" x="231.5" y="-221.8" font-family="Helvetica,sans-Serif" font-weight="bold" font-size="11.00" fill="#000000">external_encounters</text>
<text text-anchor="start" x="440.5437" y="-221.3" font-family="Helvetica,sans-Serif" font-size="11.00" fill="#000000">[table]</text>
<polygon fill="none" stroke="#000000" points="226.5,-191.2 226.5,-213.2 408.5,-213.2 408.5,-191.2 226.5,-191.2"/>
<image xlink:href="../../images/primaryKeys.png" width="11px" height="12px" preserveAspectRatio="xMinYMin meet" x="231.5" y="-208.2"/>
<text text-anchor="start" x="246.5" y="-198.3" font-family="Helvetica,sans-Serif" font-size="11.00" fill="#000000">ee_id</text>
<polygon fill="none" stroke="#000000" points="408.5,-191.2 408.5,-213.2 475.5,-213.2 475.5,-191.2 408.5,-191.2"/>
<text text-anchor="start" x="411.5" y="-198.9" font-family="Helvetica,sans-Serif" font-size="11.00" fill="#000000">int[10]</text>
<polygon fill="none" stroke="#000000" points="226.5,-169.2 226.5,-191.2 408.5,-191.2 408.5,-169.2 226.5,-169.2"/>
<text text-anchor="start" x="246.5" y="-176.3" font-family="Helvetica,sans-Serif" font-size="11.00" fill="#000000">ee_date</text>
<polygon fill="none" stroke="#000000" points="408.5,-169.2 408.5,-191.2 475.5,-191.2 475.5,-169.2 408.5,-169.2"/>
<text text-anchor="start" x="411.5" y="-176.9" font-family="Helvetica,sans-Serif" font-size="11.00" fill="#000000">date[10]</text>
<polygon fill="none" stroke="#000000" points="226.5,-147.2 226.5,-169.2 408.5,-169.2 408.5,-147.2 226.5,-147.2"/>
<image xlink:href="../../images/foreignKeys.png" width="11px" height="12px" preserveAspectRatio="xMinYMin meet" x="231.5" y="-164.2"/>
<text text-anchor="start" x="246.5" y="-154.3" font-family="Helvetica,sans-Serif" font-size="11.00" fill="#000000">ee_pid</text>
<polygon fill="none" stroke="#000000" points="408.5,-147.2 408.5,-169.2 475.5,-169.2 475.5,-147.2 408.5,-147.2"/>
<text text-anchor="start" x="411.5" y="-154.9" font-family="Helvetica,sans-Serif" font-size="11.00" fill="#000000">int[10]</text>
<polygon fill="none" stroke="#000000" points="226.5,-125.2 226.5,-147.2 408.5,-147.2 408.5,-125.2 226.5,-125.2"/>
<text text-anchor="start" x="246.5" y="-132.3" font-family="Helvetica,sans-Serif" font-size="11.00" fill="#000000">ee_provider_id</text>
<polygon fill="none" stroke="#000000" points="408.5,-125.2 408.5,-147.2 475.5,-147.2 475.5,-125.2 408.5,-125.2"/>
<text text-anchor="start" x="411.4365" y="-132.9" font-family="Helvetica,sans-Serif" font-size="11.00" fill="#000000">varchar[255]</text>
<polygon fill="none" stroke="#000000" points="226.5,-103.2 226.5,-125.2 408.5,-125.2 408.5,-103.2 226.5,-103.2"/>
<text text-anchor="start" x="246.5" y="-110.3" font-family="Helvetica,sans-Serif" font-size="11.00" fill="#000000">ee_facility_id</text>
<polygon fill="none" stroke="#000000" points="408.5,-103.2 408.5,-125.2 475.5,-125.2 475.5,-103.2 408.5,-103.2"/>
<text text-anchor="start" x="411.4365" y="-110.9" font-family="Helvetica,sans-Serif" font-size="11.00" fill="#000000">varchar[255]</text>
<polygon fill="none" stroke="#000000" points="226.5,-81.2 226.5,-103.2 408.5,-103.2 408.5,-81.2 226.5,-81.2"/>
<text text-anchor="start" x="246.5" y="-88.3" font-family="Helvetica,sans-Serif" font-size="11.00" fill="#000000">ee_encounter_diagnosis</text>
<polygon fill="none" stroke="#000000" points="408.5,-81.2 408.5,-103.2 475.5,-103.2 475.5,-81.2 408.5,-81.2"/>
<text text-anchor="start" x="411.4365" y="-88.9" font-family="Helvetica,sans-Serif" font-size="11.00" fill="#000000">varchar[255]</text>
<polygon fill="none" stroke="#000000" points="226.5,-59.2 226.5,-81.2 408.5,-81.2 408.5,-59.2 226.5,-59.2"/>
<text text-anchor="start" x="246.5" y="-66.3" font-family="Helvetica,sans-Serif" font-size="11.00" fill="#000000">ee_external_id</text>
<polygon fill="none" stroke="#000000" points="408.5,-59.2 408.5,-81.2 475.5,-81.2 475.5,-59.2 408.5,-59.2"/>
<text text-anchor="start" x="411.4365" y="-66.9" font-family="Helvetica,sans-Serif" font-size="11.00" fill="#000000">varchar[255]</text>
<polygon fill="#ffffff" stroke="transparent" points="226.5,-40.2 226.5,-59.2 321.5,-59.2 321.5,-40.2 226.5,-40.2"/>
<polygon fill="none" stroke="#000000" points="226.5,-40.2 226.5,-59.2 321.5,-59.2 321.5,-40.2 226.5,-40.2"/>
<text text-anchor="start" x="229.5" y="-46.3" font-family="Helvetica,sans-Serif" font-size="11.00" fill="#000000">&lt; 1</text>
<polygon fill="#ffffff" stroke="transparent" points="321.5,-40.2 321.5,-59.2 408.5,-59.2 408.5,-40.2 321.5,-40.2"/>
<polygon fill="none" stroke="#000000" points="321.5,-40.2 321.5,-59.2 408.5,-59.2 408.5,-40.2 321.5,-40.2"/>
<text text-anchor="start" x="399.3862" y="-46.3" font-family="Helvetica,sans-Serif" font-size="11.00" fill="#000000"> &#160;</text>
<polygon fill="#ffffff" stroke="transparent" points="408.5,-40.2 408.5,-59.2 475.5,-59.2 475.5,-40.2 408.5,-40.2"/>
<polygon fill="none" stroke="#000000" points="408.5,-40.2 408.5,-59.2 475.5,-59.2 475.5,-40.2 408.5,-40.2"/>
<text text-anchor="start" x="456.9053" y="-46.3" font-family="Helvetica,sans-Serif" font-size="11.00" fill="#000000">0 &gt;</text>
<polygon fill="none" stroke="#000000" stroke-width="2" points="225,-39.2 225,-237.2 476,-237.2 476,-39.2 225,-39.2"/>
</a>
</g>
</g>
<!-- patient_data -->
<g id="node2" class="node">
<title>patient_data</title>
<g id="a_node2"><a xlink:href="../../tables/patient_data.html" xlink:title="patient_data" target="_top">
<polygon fill="#ffffff" stroke="transparent" points="8,-65.7 8,-302.7 175,-302.7 175,-65.7 8,-65.7"/>
<polygon fill="#f5f5f5" stroke="transparent" points="8.5,-279.2 8.5,-302.2 175.5,-302.2 175.5,-279.2 8.5,-279.2"/>
<polygon fill="none" stroke="#000000" points="8.5,-279.2 8.5,-302.2 175.5,-302.2 175.5,-279.2 8.5,-279.2"/>
<text text-anchor="start" x="13.5" y="-287.8" font-family="Helvetica,sans-Serif" font-weight="bold" font-size="11.00" fill="#000000">patient_data</text>
<text text-anchor="start" x="140.5437" y="-287.3" font-family="Helvetica,sans-Serif" font-size="11.00" fill="#000000">[table]</text>
<polygon fill="#ffffff" stroke="transparent" points="8.5,-257.2 8.5,-279.2 175.5,-279.2 175.5,-257.2 8.5,-257.2"/>
<polygon fill="none" stroke="#000000" points="8.5,-257.2 8.5,-279.2 175.5,-279.2 175.5,-257.2 8.5,-257.2"/>
<text text-anchor="start" x="28.5" y="-264.3" font-family="Helvetica,sans-Serif" font-size="11.00" fill="#000000">id</text>
<polygon fill="#ffffff" stroke="transparent" points="8.5,-235.2 8.5,-257.2 175.5,-257.2 175.5,-235.2 8.5,-235.2"/>
<polygon fill="none" stroke="#000000" points="8.5,-235.2 8.5,-257.2 175.5,-257.2 175.5,-235.2 8.5,-235.2"/>
<text text-anchor="start" x="28.5" y="-242.3" font-family="Helvetica,sans-Serif" font-size="11.00" fill="#000000">uuid</text>
<polygon fill="none" stroke="#000000" points="8.5,-213.2 8.5,-235.2 175.5,-235.2 175.5,-213.2 8.5,-213.2"/>
<image xlink:href="../../images/foreignKeys.png" width="11px" height="12px" preserveAspectRatio="xMinYMin meet" x="13.5" y="-230.2"/>
<text text-anchor="start" x="28.5" y="-220.3" font-family="Helvetica,sans-Serif" font-size="11.00" fill="#000000">pharmacy_id</text>
<polygon fill="none" stroke="#000000" points="8.5,-191.2 8.5,-213.2 175.5,-213.2 175.5,-191.2 8.5,-191.2"/>
<image xlink:href="../../images/foreignKeys.png" width="11px" height="12px" preserveAspectRatio="xMinYMin meet" x="13.5" y="-208.2"/>
<text text-anchor="start" x="28.5" y="-198.3" font-family="Helvetica,sans-Serif" font-size="11.00" fill="#000000">providerID</text>
<polygon fill="none" stroke="#000000" points="8.5,-169.2 8.5,-191.2 175.5,-191.2 175.5,-169.2 8.5,-169.2"/>
<image xlink:href="../../images/foreignKeys.png" width="11px" height="12px" preserveAspectRatio="xMinYMin meet" x="13.5" y="-186.2"/>
<text text-anchor="start" x="28.5" y="-176.3" font-family="Helvetica,sans-Serif" font-size="11.00" fill="#000000">ref_providerID</text>
<polygon fill="none" stroke="#000000" points="8.5,-147.2 8.5,-169.2 175.5,-169.2 175.5,-147.2 8.5,-147.2"/>
<image xlink:href="../../images/primaryKeys.png" width="11px" height="12px" preserveAspectRatio="xMinYMin meet" x="13.5" y="-164.2"/>
<text text-anchor="start" x="28.5" y="-154.3" font-family="Helvetica,sans-Serif" font-size="11.00" fill="#000000">pid</text>
<polygon fill="none" stroke="#000000" points="8.5,-125.2 8.5,-147.2 175.5,-147.2 175.5,-125.2 8.5,-125.2"/>
<image xlink:href="../../images/foreignKeys.png" width="11px" height="12px" preserveAspectRatio="xMinYMin meet" x="13.5" y="-142.2"/>
<text text-anchor="start" x="28.5" y="-132.3" font-family="Helvetica,sans-Serif" font-size="11.00" fill="#000000">created_by</text>
<polygon fill="none" stroke="#000000" points="8.5,-103.2 8.5,-125.2 175.5,-125.2 175.5,-103.2 8.5,-103.2"/>
<image xlink:href="../../images/foreignKeys.png" width="11px" height="12px" preserveAspectRatio="xMinYMin meet" x="13.5" y="-120.2"/>
<text text-anchor="start" x="28.5" y="-110.3" font-family="Helvetica,sans-Serif" font-size="11.00" fill="#000000">updated_by</text>
<polygon fill="none" stroke="#000000" points="8.5,-84.2 8.5,-103.2 175.5,-103.2 175.5,-84.2 8.5,-84.2"/>
<text text-anchor="start" x="11.5" y="-90.3" font-family="Helvetica,sans-Serif" font-size="11.00" fill="#000000">...</text>
<polygon fill="#ffffff" stroke="transparent" points="8.5,-65.2 8.5,-84.2 82.5,-84.2 82.5,-65.2 8.5,-65.2"/>
<polygon fill="none" stroke="#000000" points="8.5,-65.2 8.5,-84.2 82.5,-84.2 82.5,-65.2 8.5,-65.2"/>
<text text-anchor="start" x="11.5" y="-71.3" font-family="Helvetica,sans-Serif" font-size="11.00" fill="#000000">&lt; 5</text>
<polygon fill="#ffffff" stroke="transparent" points="82.5,-65.2 82.5,-84.2 121.5,-84.2 121.5,-65.2 82.5,-65.2"/>
<polygon fill="none" stroke="#000000" points="82.5,-65.2 82.5,-84.2 121.5,-84.2 121.5,-65.2 82.5,-65.2"/>
<text text-anchor="start" x="112.3862" y="-71.3" font-family="Helvetica,sans-Serif" font-size="11.00" fill="#000000"> &#160;</text>
<polygon fill="#ffffff" stroke="transparent" points="121.5,-65.2 121.5,-84.2 175.5,-84.2 175.5,-65.2 121.5,-65.2"/>
<polygon fill="none" stroke="#000000" points="121.5,-65.2 121.5,-84.2 175.5,-84.2 175.5,-65.2 121.5,-65.2"/>
<text text-anchor="start" x="150.7904" y="-71.3" font-family="Helvetica,sans-Serif" font-size="11.00" fill="#000000">85 &gt;</text>
</a>
</g>
</g>
<!-- external_encounters&#45;&gt;patient_data -->
<g id="edge1" class="edge">
<title>external_encounters:w&#45;&gt;patient_data:e</title>
<path fill="none" stroke="#000000" d="M211.776,-158.2C199.7815,-158.2 192.3229,-158.2 175.5,-158.2"/>
<polygon fill="#000000" stroke="#000000" points="218.5,-158.2001 226.5,-161.8 222.5,-158.2 226.5,-158.2 226.5,-158.2 226.5,-158.2 222.5,-158.2 226.5,-154.6 218.5,-158.2001 218.5,-158.2001"/>
<ellipse fill="none" stroke="#000000" cx="215.3" cy="-158.2001" rx="3.2" ry="3.2"/>
</g>
</g>
</svg>
