<?xml version="1.0" encoding="UTF-8" standalone="no"?>
<!DOCTYPE svg PUBLIC "-//W3C//DTD SVG 1.1//EN"
 "http://www.w3.org/Graphics/SVG/1.1/DTD/svg11.dtd">
<!-- Generated by graphviz version 2.40.1 (20161225.0304)
 -->
<!-- Title: oneDegreeRelationshipsDiagram Pages: 1 -->
<svg width="466pt" height="311pt"
 viewBox="0.00 0.00 466.00 310.70" xmlns="http://www.w3.org/2000/svg" xmlns:xlink="http://www.w3.org/1999/xlink">
<g id="graph0" class="graph" transform="scale(1 1) rotate(0) translate(4 306.7)">
<title>oneDegreeRelationshipsDiagram</title>
<polygon fill="#ffffff" stroke="transparent" points="-4,4 -4,-306.7 462,-306.7 462,4 -4,4"/>
<text text-anchor="middle" x="72.4936" y="-7.3" font-family="Helvetica,sans-Serif" font-size="11.00" fill="#000000">Generated by SchemaSpy</text>
<!-- extended_log -->
<g id="node1" class="node">
<title>extended_log</title>
<g id="a_node1"><a xlink:href="../../tables/extended_log.html" xlink:title="extended_log" target="_top">
<polygon fill="#ffffff" stroke="transparent" points="224,-98.7 224,-298.7 450,-298.7 450,-98.7 224,-98.7"/>
<polygon fill="#f5f5f5" stroke="transparent" points="226,-273.7 226,-296.7 448,-296.7 448,-273.7 226,-273.7"/>
<polygon fill="none" stroke="#000000" points="226,-273.7 226,-296.7 448,-296.7 448,-273.7 226,-273.7"/>
<text text-anchor="start" x="231" y="-282.3" font-family="Helvetica,sans-Serif" font-weight="bold" font-size="11.00" fill="#000000">extended_log</text>
<text text-anchor="start" x="413.0437" y="-281.8" font-family="Helvetica,sans-Serif" font-size="11.00" fill="#000000">[table]</text>
<polygon fill="none" stroke="#000000" points="226,-251.7 226,-273.7 337,-273.7 337,-251.7 226,-251.7"/>
<image xlink:href="../../images/primaryKeys.png" width="11px" height="12px" preserveAspectRatio="xMinYMin meet" x="231" y="-268.7"/>
<text text-anchor="start" x="246" y="-258.8" font-family="Helvetica,sans-Serif" font-size="11.00" fill="#000000">id</text>
<polygon fill="none" stroke="#000000" points="337,-251.7 337,-273.7 448,-273.7 448,-251.7 337,-251.7"/>
<text text-anchor="start" x="340" y="-259.4" font-family="Helvetica,sans-Serif" font-size="11.00" fill="#000000">bigint[19]</text>
<polygon fill="none" stroke="#000000" points="226,-229.7 226,-251.7 337,-251.7 337,-229.7 226,-229.7"/>
<text text-anchor="start" x="246" y="-236.8" font-family="Helvetica,sans-Serif" font-size="11.00" fill="#000000">date</text>
<polygon fill="none" stroke="#000000" points="337,-229.7 337,-251.7 448,-251.7 448,-229.7 337,-229.7"/>
<text text-anchor="start" x="340" y="-237.4" font-family="Helvetica,sans-Serif" font-size="11.00" fill="#000000">datetime[19]</text>
<polygon fill="none" stroke="#000000" points="226,-207.7 226,-229.7 337,-229.7 337,-207.7 226,-207.7"/>
<text text-anchor="start" x="246" y="-214.8" font-family="Helvetica,sans-Serif" font-size="11.00" fill="#000000">event</text>
<polygon fill="none" stroke="#000000" points="337,-207.7 337,-229.7 448,-229.7 448,-207.7 337,-207.7"/>
<text text-anchor="start" x="340" y="-215.4" font-family="Helvetica,sans-Serif" font-size="11.00" fill="#000000">varchar[255]</text>
<polygon fill="none" stroke="#000000" points="226,-185.7 226,-207.7 337,-207.7 337,-185.7 226,-185.7"/>
<text text-anchor="start" x="246" y="-192.8" font-family="Helvetica,sans-Serif" font-size="11.00" fill="#000000">user</text>
<polygon fill="none" stroke="#000000" points="337,-185.7 337,-207.7 448,-207.7 448,-185.7 337,-185.7"/>
<text text-anchor="start" x="340" y="-193.4" font-family="Helvetica,sans-Serif" font-size="11.00" fill="#000000">varchar[255]</text>
<polygon fill="none" stroke="#000000" points="226,-163.7 226,-185.7 337,-185.7 337,-163.7 226,-163.7"/>
<text text-anchor="start" x="246" y="-170.8" font-family="Helvetica,sans-Serif" font-size="11.00" fill="#000000">recipient</text>
<polygon fill="none" stroke="#000000" points="337,-163.7 337,-185.7 448,-185.7 448,-163.7 337,-163.7"/>
<text text-anchor="start" x="340" y="-171.4" font-family="Helvetica,sans-Serif" font-size="11.00" fill="#000000">varchar[255]</text>
<polygon fill="none" stroke="#000000" points="226,-141.7 226,-163.7 337,-163.7 337,-141.7 226,-141.7"/>
<text text-anchor="start" x="246" y="-148.8" font-family="Helvetica,sans-Serif" font-size="11.00" fill="#000000">description</text>
<polygon fill="none" stroke="#000000" points="337,-141.7 337,-163.7 448,-163.7 448,-141.7 337,-141.7"/>
<text text-anchor="start" x="339.6115" y="-149.4" font-family="Helvetica,sans-Serif" font-size="11.00" fill="#000000">longtext[2147483647]</text>
<polygon fill="#ffffff" stroke="transparent" points="226,-119.7 226,-141.7 337,-141.7 337,-119.7 226,-119.7"/>
<polygon fill="none" stroke="#000000" points="226,-119.7 226,-141.7 337,-141.7 337,-119.7 226,-119.7"/>
<image xlink:href="../../images/foreignKeys.png" width="11px" height="12px" preserveAspectRatio="xMinYMin meet" x="231" y="-136.7"/>
<text text-anchor="start" x="246" y="-126.8" font-family="Helvetica,sans-Serif" font-size="11.00" fill="#000000">patient_id</text>
<polygon fill="none" stroke="#000000" points="337,-119.7 337,-141.7 448,-141.7 448,-119.7 337,-119.7"/>
<text text-anchor="start" x="340" y="-127.4" font-family="Helvetica,sans-Serif" font-size="11.00" fill="#000000">bigint[19]</text>
<polygon fill="#ffffff" stroke="transparent" points="226,-100.7 226,-119.7 286,-119.7 286,-100.7 226,-100.7"/>
<polygon fill="none" stroke="#000000" points="226,-100.7 226,-119.7 286,-119.7 286,-100.7 226,-100.7"/>
<text text-anchor="start" x="229" y="-106.8" font-family="Helvetica,sans-Serif" font-size="11.00" fill="#000000">&lt; 1</text>
<polygon fill="#ffffff" stroke="transparent" points="286,-100.7 286,-119.7 337,-119.7 337,-100.7 286,-100.7"/>
<polygon fill="none" stroke="#000000" points="286,-100.7 286,-119.7 337,-119.7 337,-100.7 286,-100.7"/>
<text text-anchor="start" x="327.8862" y="-106.8" font-family="Helvetica,sans-Serif" font-size="11.00" fill="#000000"> &#160;</text>
<polygon fill="#ffffff" stroke="transparent" points="337,-100.7 337,-119.7 448,-119.7 448,-100.7 337,-100.7"/>
<polygon fill="none" stroke="#000000" points="337,-100.7 337,-119.7 448,-119.7 448,-100.7 337,-100.7"/>
<text text-anchor="start" x="429.4053" y="-106.8" font-family="Helvetica,sans-Serif" font-size="11.00" fill="#000000">0 &gt;</text>
<polygon fill="none" stroke="#000000" stroke-width="2" points="225,-99.7 225,-297.7 449,-297.7 449,-99.7 225,-99.7"/>
</a>
</g>
</g>
<!-- patient_data -->
<g id="node2" class="node">
<title>patient_data</title>
<g id="a_node2"><a xlink:href="../../tables/patient_data.html" xlink:title="patient_data" target="_top">
<polygon fill="#ffffff" stroke="transparent" points="8,-38.2 8,-275.2 175,-275.2 175,-38.2 8,-38.2"/>
<polygon fill="#f5f5f5" stroke="transparent" points="8.5,-251.7 8.5,-274.7 175.5,-274.7 175.5,-251.7 8.5,-251.7"/>
<polygon fill="none" stroke="#000000" points="8.5,-251.7 8.5,-274.7 175.5,-274.7 175.5,-251.7 8.5,-251.7"/>
<text text-anchor="start" x="13.5" y="-260.3" font-family="Helvetica,sans-Serif" font-weight="bold" font-size="11.00" fill="#000000">patient_data</text>
<text text-anchor="start" x="140.5437" y="-259.8" font-family="Helvetica,sans-Serif" font-size="11.00" fill="#000000">[table]</text>
<polygon fill="#ffffff" stroke="transparent" points="8.5,-229.7 8.5,-251.7 175.5,-251.7 175.5,-229.7 8.5,-229.7"/>
<polygon fill="none" stroke="#000000" points="8.5,-229.7 8.5,-251.7 175.5,-251.7 175.5,-229.7 8.5,-229.7"/>
<text text-anchor="start" x="28.5" y="-236.8" font-family="Helvetica,sans-Serif" font-size="11.00" fill="#000000">id</text>
<polygon fill="#ffffff" stroke="transparent" points="8.5,-207.7 8.5,-229.7 175.5,-229.7 175.5,-207.7 8.5,-207.7"/>
<polygon fill="none" stroke="#000000" points="8.5,-207.7 8.5,-229.7 175.5,-229.7 175.5,-207.7 8.5,-207.7"/>
<text text-anchor="start" x="28.5" y="-214.8" font-family="Helvetica,sans-Serif" font-size="11.00" fill="#000000">uuid</text>
<polygon fill="none" stroke="#000000" points="8.5,-185.7 8.5,-207.7 175.5,-207.7 175.5,-185.7 8.5,-185.7"/>
<image xlink:href="../../images/foreignKeys.png" width="11px" height="12px" preserveAspectRatio="xMinYMin meet" x="13.5" y="-202.7"/>
<text text-anchor="start" x="28.5" y="-192.8" font-family="Helvetica,sans-Serif" font-size="11.00" fill="#000000">pharmacy_id</text>
<polygon fill="none" stroke="#000000" points="8.5,-163.7 8.5,-185.7 175.5,-185.7 175.5,-163.7 8.5,-163.7"/>
<image xlink:href="../../images/foreignKeys.png" width="11px" height="12px" preserveAspectRatio="xMinYMin meet" x="13.5" y="-180.7"/>
<text text-anchor="start" x="28.5" y="-170.8" font-family="Helvetica,sans-Serif" font-size="11.00" fill="#000000">providerID</text>
<polygon fill="none" stroke="#000000" points="8.5,-141.7 8.5,-163.7 175.5,-163.7 175.5,-141.7 8.5,-141.7"/>
<image xlink:href="../../images/foreignKeys.png" width="11px" height="12px" preserveAspectRatio="xMinYMin meet" x="13.5" y="-158.7"/>
<text text-anchor="start" x="28.5" y="-148.8" font-family="Helvetica,sans-Serif" font-size="11.00" fill="#000000">ref_providerID</text>
<polygon fill="none" stroke="#000000" points="8.5,-119.7 8.5,-141.7 175.5,-141.7 175.5,-119.7 8.5,-119.7"/>
<image xlink:href="../../images/primaryKeys.png" width="11px" height="12px" preserveAspectRatio="xMinYMin meet" x="13.5" y="-136.7"/>
<text text-anchor="start" x="28.5" y="-126.8" font-family="Helvetica,sans-Serif" font-size="11.00" fill="#000000">pid</text>
<polygon fill="none" stroke="#000000" points="8.5,-97.7 8.5,-119.7 175.5,-119.7 175.5,-97.7 8.5,-97.7"/>
<image xlink:href="../../images/foreignKeys.png" width="11px" height="12px" preserveAspectRatio="xMinYMin meet" x="13.5" y="-114.7"/>
<text text-anchor="start" x="28.5" y="-104.8" font-family="Helvetica,sans-Serif" font-size="11.00" fill="#000000">created_by</text>
<polygon fill="none" stroke="#000000" points="8.5,-75.7 8.5,-97.7 175.5,-97.7 175.5,-75.7 8.5,-75.7"/>
<image xlink:href="../../images/foreignKeys.png" width="11px" height="12px" preserveAspectRatio="xMinYMin meet" x="13.5" y="-92.7"/>
<text text-anchor="start" x="28.5" y="-82.8" font-family="Helvetica,sans-Serif" font-size="11.00" fill="#000000">updated_by</text>
<polygon fill="none" stroke="#000000" points="8.5,-56.7 8.5,-75.7 175.5,-75.7 175.5,-56.7 8.5,-56.7"/>
<text text-anchor="start" x="11.5" y="-62.8" font-family="Helvetica,sans-Serif" font-size="11.00" fill="#000000">...</text>
<polygon fill="#ffffff" stroke="transparent" points="8.5,-37.7 8.5,-56.7 82.5,-56.7 82.5,-37.7 8.5,-37.7"/>
<polygon fill="none" stroke="#000000" points="8.5,-37.7 8.5,-56.7 82.5,-56.7 82.5,-37.7 8.5,-37.7"/>
<text text-anchor="start" x="11.5" y="-43.8" font-family="Helvetica,sans-Serif" font-size="11.00" fill="#000000">&lt; 5</text>
<polygon fill="#ffffff" stroke="transparent" points="82.5,-37.7 82.5,-56.7 121.5,-56.7 121.5,-37.7 82.5,-37.7"/>
<polygon fill="none" stroke="#000000" points="82.5,-37.7 82.5,-56.7 121.5,-56.7 121.5,-37.7 82.5,-37.7"/>
<text text-anchor="start" x="112.3862" y="-43.8" font-family="Helvetica,sans-Serif" font-size="11.00" fill="#000000"> &#160;</text>
<polygon fill="#ffffff" stroke="transparent" points="121.5,-37.7 121.5,-56.7 175.5,-56.7 175.5,-37.7 121.5,-37.7"/>
<polygon fill="none" stroke="#000000" points="121.5,-37.7 121.5,-56.7 175.5,-56.7 175.5,-37.7 121.5,-37.7"/>
<text text-anchor="start" x="150.7904" y="-43.8" font-family="Helvetica,sans-Serif" font-size="11.00" fill="#000000">85 &gt;</text>
</a>
</g>
</g>
<!-- extended_log&#45;&gt;patient_data -->
<g id="edge1" class="edge">
<title>extended_log:w&#45;&gt;patient_data:e</title>
<path fill="none" stroke="#000000" d="M211.4203,-130.7C199.5435,-130.7 192.158,-130.7 175.5,-130.7"/>
<polygon fill="#000000" stroke="#000000" points="218,-130.7001 226,-134.3 222,-130.7 226,-130.7 226,-130.7 226,-130.7 222,-130.7 226,-127.1 218,-130.7001 218,-130.7001"/>
<ellipse fill="none" stroke="#000000" cx="214.8" cy="-130.7001" rx="3.2" ry="3.2"/>
</g>
</g>
</svg>
