<?xml version="1.0" encoding="UTF-8" standalone="no"?>
<!DOCTYPE svg PUBLIC "-//W3C//DTD SVG 1.1//EN"
 "http://www.w3.org/Graphics/SVG/1.1/DTD/svg11.dtd">
<!-- Generated by graphviz version 2.40.1 (20161225.0304)
 -->
<!-- Title: oneDegreeRelationshipsDiagram Pages: 1 -->
<svg width="209pt" height="272pt"
 viewBox="0.00 0.00 209.00 272.20" xmlns="http://www.w3.org/2000/svg" xmlns:xlink="http://www.w3.org/1999/xlink">
<g id="graph0" class="graph" transform="scale(1 1) rotate(0) translate(4 268.2)">
<title>oneDegreeRelationshipsDiagram</title>
<polygon fill="#ffffff" stroke="transparent" points="-4,4 -4,-268.2 205,-268.2 205,4 -4,4"/>
<text text-anchor="middle" x="72.4936" y="-7.3" font-family="Helvetica,sans-Serif" font-size="11.00" fill="#000000">Generated by SchemaSpy</text>
<!-- facility_user_ids -->
<g id="node1" class="node">
<title>facility_user_ids</title>
<g id="a_node1"><a xlink:href="../../tables/facility_user_ids.html" xlink:title="facility_user_ids" target="_top">
<polygon fill="#ffffff" stroke="transparent" points="8,-38.2 8,-260.2 193,-260.2 193,-38.2 8,-38.2"/>
<polygon fill="#f5f5f5" stroke="transparent" points="10.5,-235.2 10.5,-258.2 191.5,-258.2 191.5,-235.2 10.5,-235.2"/>
<polygon fill="none" stroke="#000000" points="10.5,-235.2 10.5,-258.2 191.5,-258.2 191.5,-235.2 10.5,-235.2"/>
<text text-anchor="start" x="15.5" y="-243.8" font-family="Helvetica,sans-Serif" font-weight="bold" font-size="11.00" fill="#000000">facility_user_ids</text>
<text text-anchor="start" x="156.5437" y="-243.3" font-family="Helvetica,sans-Serif" font-size="11.00" fill="#000000">[table]</text>
<polygon fill="none" stroke="#000000" points="10.5,-213.2 10.5,-235.2 125.5,-235.2 125.5,-213.2 10.5,-213.2"/>
<image xlink:href="../../images/primaryKeys.png" width="11px" height="12px" preserveAspectRatio="xMinYMin meet" x="15.5" y="-230.2"/>
<text text-anchor="start" x="30.5" y="-220.3" font-family="Helvetica,sans-Serif" font-size="11.00" fill="#000000">id</text>
<polygon fill="none" stroke="#000000" points="125.5,-213.2 125.5,-235.2 191.5,-235.2 191.5,-213.2 125.5,-213.2"/>
<text text-anchor="start" x="128.5" y="-220.9" font-family="Helvetica,sans-Serif" font-size="11.00" fill="#000000">bigint[19]</text>
<polygon fill="#ffffff" stroke="transparent" points="10.5,-191.2 10.5,-213.2 125.5,-213.2 125.5,-191.2 10.5,-191.2"/>
<polygon fill="none" stroke="#000000" points="10.5,-191.2 10.5,-213.2 125.5,-213.2 125.5,-191.2 10.5,-191.2"/>
<text text-anchor="start" x="30.5" y="-198.3" font-family="Helvetica,sans-Serif" font-size="11.00" fill="#000000">uid</text>
<polygon fill="none" stroke="#000000" points="125.5,-191.2 125.5,-213.2 191.5,-213.2 191.5,-191.2 125.5,-191.2"/>
<text text-anchor="start" x="128.5" y="-198.9" font-family="Helvetica,sans-Serif" font-size="11.00" fill="#000000">bigint[19]</text>
<polygon fill="#ffffff" stroke="transparent" points="10.5,-169.2 10.5,-191.2 125.5,-191.2 125.5,-169.2 10.5,-169.2"/>
<polygon fill="none" stroke="#000000" points="10.5,-169.2 10.5,-191.2 125.5,-191.2 125.5,-169.2 10.5,-169.2"/>
<text text-anchor="start" x="30.5" y="-176.3" font-family="Helvetica,sans-Serif" font-size="11.00" fill="#000000">facility_id</text>
<polygon fill="none" stroke="#000000" points="125.5,-169.2 125.5,-191.2 191.5,-191.2 191.5,-169.2 125.5,-169.2"/>
<text text-anchor="start" x="128.5" y="-176.9" font-family="Helvetica,sans-Serif" font-size="11.00" fill="#000000">bigint[19]</text>
<polygon fill="#ffffff" stroke="transparent" points="10.5,-147.2 10.5,-169.2 125.5,-169.2 125.5,-147.2 10.5,-147.2"/>
<polygon fill="none" stroke="#000000" points="10.5,-147.2 10.5,-169.2 125.5,-169.2 125.5,-147.2 10.5,-147.2"/>
<text text-anchor="start" x="30.5" y="-154.3" font-family="Helvetica,sans-Serif" font-size="11.00" fill="#000000">uuid</text>
<polygon fill="none" stroke="#000000" points="125.5,-147.2 125.5,-169.2 191.5,-169.2 191.5,-147.2 125.5,-147.2"/>
<text text-anchor="start" x="128.5" y="-154.9" font-family="Helvetica,sans-Serif" font-size="11.00" fill="#000000">binary[16]</text>
<polygon fill="#ffffff" stroke="transparent" points="10.5,-125.2 10.5,-147.2 125.5,-147.2 125.5,-125.2 10.5,-125.2"/>
<polygon fill="none" stroke="#000000" points="10.5,-125.2 10.5,-147.2 125.5,-147.2 125.5,-125.2 10.5,-125.2"/>
<text text-anchor="start" x="30.5" y="-132.3" font-family="Helvetica,sans-Serif" font-size="11.00" fill="#000000">field_id</text>
<polygon fill="none" stroke="#000000" points="125.5,-125.2 125.5,-147.2 191.5,-147.2 191.5,-125.2 125.5,-125.2"/>
<text text-anchor="start" x="128.5" y="-132.9" font-family="Helvetica,sans-Serif" font-size="11.00" fill="#000000">varchar[31]</text>
<polygon fill="none" stroke="#000000" points="10.5,-103.2 10.5,-125.2 125.5,-125.2 125.5,-103.2 10.5,-103.2"/>
<text text-anchor="start" x="30.5" y="-110.3" font-family="Helvetica,sans-Serif" font-size="11.00" fill="#000000">field_value</text>
<polygon fill="none" stroke="#000000" points="125.5,-103.2 125.5,-125.2 191.5,-125.2 191.5,-103.2 125.5,-103.2"/>
<text text-anchor="start" x="128.5" y="-110.9" font-family="Helvetica,sans-Serif" font-size="11.00" fill="#000000">text[65535]</text>
<polygon fill="none" stroke="#000000" points="10.5,-81.2 10.5,-103.2 125.5,-103.2 125.5,-81.2 10.5,-81.2"/>
<text text-anchor="start" x="30.5" y="-88.3" font-family="Helvetica,sans-Serif" font-size="11.00" fill="#000000">date_created</text>
<polygon fill="none" stroke="#000000" points="125.5,-81.2 125.5,-103.2 191.5,-103.2 191.5,-81.2 125.5,-81.2"/>
<text text-anchor="start" x="128.2401" y="-88.9" font-family="Helvetica,sans-Serif" font-size="11.00" fill="#000000">datetime[19]</text>
<polygon fill="none" stroke="#000000" points="10.5,-59.2 10.5,-81.2 125.5,-81.2 125.5,-59.2 10.5,-59.2"/>
<text text-anchor="start" x="30.5" y="-66.3" font-family="Helvetica,sans-Serif" font-size="11.00" fill="#000000">last_updated</text>
<polygon fill="none" stroke="#000000" points="125.5,-59.2 125.5,-81.2 191.5,-81.2 191.5,-59.2 125.5,-59.2"/>
<text text-anchor="start" x="128.2401" y="-66.9" font-family="Helvetica,sans-Serif" font-size="11.00" fill="#000000">datetime[19]</text>
<polygon fill="#ffffff" stroke="transparent" points="10.5,-40.2 10.5,-59.2 72.5,-59.2 72.5,-40.2 10.5,-40.2"/>
<polygon fill="none" stroke="#000000" points="10.5,-40.2 10.5,-59.2 72.5,-59.2 72.5,-40.2 10.5,-40.2"/>
<text text-anchor="start" x="13.5" y="-46.3" font-family="Helvetica,sans-Serif" font-size="11.00" fill="#000000">&lt; 0</text>
<polygon fill="#ffffff" stroke="transparent" points="72.5,-40.2 72.5,-59.2 125.5,-59.2 125.5,-40.2 72.5,-40.2"/>
<polygon fill="none" stroke="#000000" points="72.5,-40.2 72.5,-59.2 125.5,-59.2 125.5,-40.2 72.5,-40.2"/>
<text text-anchor="start" x="116.3862" y="-46.3" font-family="Helvetica,sans-Serif" font-size="11.00" fill="#000000"> &#160;</text>
<polygon fill="#ffffff" stroke="transparent" points="125.5,-40.2 125.5,-59.2 191.5,-59.2 191.5,-40.2 125.5,-40.2"/>
<polygon fill="none" stroke="#000000" points="125.5,-40.2 125.5,-59.2 191.5,-59.2 191.5,-40.2 125.5,-40.2"/>
<text text-anchor="start" x="172.9053" y="-46.3" font-family="Helvetica,sans-Serif" font-size="11.00" fill="#000000">0 &gt;</text>
<polygon fill="none" stroke="#000000" stroke-width="2" points="9,-39.2 9,-259.2 192,-259.2 192,-39.2 9,-39.2"/>
</a>
</g>
</g>
</g>
</svg>
