<?xml version="1.0" encoding="UTF-8" standalone="no"?>
<!DOCTYPE svg PUBLIC "-//W3C//DTD SVG 1.1//EN"
 "http://www.w3.org/Graphics/SVG/1.1/DTD/svg11.dtd">
<!-- Generated by graphviz version 2.40.1 (20161225.0304)
 -->
<!-- Title: oneDegreeRelationshipsDiagram Pages: 1 -->
<svg width="277pt" height="96pt"
 viewBox="0.00 0.00 277.00 96.20" xmlns="http://www.w3.org/2000/svg" xmlns:xlink="http://www.w3.org/1999/xlink">
<g id="graph0" class="graph" transform="scale(1 1) rotate(0) translate(4 92.2)">
<title>oneDegreeRelationshipsDiagram</title>
<polygon fill="#ffffff" stroke="transparent" points="-4,4 -4,-92.2 273,-92.2 273,4 -4,4"/>
<text text-anchor="middle" x="72.4936" y="-7.3" font-family="Helvetica,sans-Serif" font-size="11.00" fill="#000000">Generated by SchemaSpy</text>
<!-- form_physical_exam_diagnoses -->
<g id="node1" class="node">
<title>form_physical_exam_diagnoses</title>
<g id="a_node1"><a xlink:href="../../tables/form_physical_exam_diagnoses.html" xlink:title="form_physical_exam_diagnoses" target="_top">
<polygon fill="#ffffff" stroke="transparent" points="8,-38.2 8,-84.2 261,-84.2 261,-38.2 8,-38.2"/>
<polygon fill="#f5f5f5" stroke="transparent" points="10.5,-59.2 10.5,-82.2 259.5,-82.2 259.5,-59.2 10.5,-59.2"/>
<polygon fill="none" stroke="#000000" points="10.5,-59.2 10.5,-82.2 259.5,-82.2 259.5,-59.2 10.5,-59.2"/>
<text text-anchor="start" x="15.5" y="-67.8" font-family="Helvetica,sans-Serif" font-weight="bold" font-size="11.00" fill="#000000">form_physical_exam_diagnoses</text>
<text text-anchor="start" x="225.0219" y="-67.3" font-family="Helvetica,sans-Serif" font-size="11.00" fill="#000000">[table]</text>
<polygon fill="#ffffff" stroke="transparent" points="10.5,-40.2 10.5,-59.2 128.5,-59.2 128.5,-40.2 10.5,-40.2"/>
<polygon fill="none" stroke="#000000" points="10.5,-40.2 10.5,-59.2 128.5,-59.2 128.5,-40.2 10.5,-40.2"/>
<text text-anchor="start" x="13.5" y="-46.3" font-family="Helvetica,sans-Serif" font-size="11.00" fill="#000000">&lt; 0</text>
<polygon fill="#ffffff" stroke="transparent" points="128.5,-40.2 128.5,-59.2 189.5,-59.2 189.5,-40.2 128.5,-40.2"/>
<polygon fill="none" stroke="#000000" points="128.5,-40.2 128.5,-59.2 189.5,-59.2 189.5,-40.2 128.5,-40.2"/>
<text text-anchor="start" x="180.3862" y="-46.3" font-family="Helvetica,sans-Serif" font-size="11.00" fill="#000000"> &#160;</text>
<polygon fill="#ffffff" stroke="transparent" points="189.5,-40.2 189.5,-59.2 234.5,-59.2 234.5,-40.2 189.5,-40.2"/>
<polygon fill="none" stroke="#000000" points="189.5,-40.2 189.5,-59.2 234.5,-59.2 234.5,-40.2 189.5,-40.2"/>
<text text-anchor="start" x="215.9053" y="-46.3" font-family="Helvetica,sans-Serif" font-size="11.00" fill="#000000">0 &gt;</text>
<polygon fill="none" stroke="#000000" stroke-width="2" points="9,-39.2 9,-83.2 260,-83.2 260,-39.2 9,-39.2"/>
</a>
</g>
</g>
</g>
</svg>
