<?xml version="1.0" encoding="UTF-8" standalone="no"?>
<!DOCTYPE svg PUBLIC "-//W3C//DTD SVG 1.1//EN"
 "http://www.w3.org/Graphics/SVG/1.1/DTD/svg11.dtd">
<!-- Generated by graphviz version 2.40.1 (20161225.0304)
 -->
<!-- Title: oneDegreeRelationshipsDiagram Pages: 1 -->
<svg width="499pt" height="843pt"
 viewBox="0.00 0.00 499.00 842.70" xmlns="http://www.w3.org/2000/svg" xmlns:xlink="http://www.w3.org/1999/xlink">
<g id="graph0" class="graph" transform="scale(1 1) rotate(0) translate(4 838.7)">
<title>oneDegreeRelationshipsDiagram</title>
<polygon fill="#ffffff" stroke="transparent" points="-4,4 -4,-838.7 495,-838.7 495,4 -4,4"/>
<text text-anchor="middle" x="72.4936" y="-7.3" font-family="Helvetica,sans-Serif" font-size="11.00" fill="#000000">Generated by SchemaSpy</text>
<!-- form_eye_vitals -->
<g id="node1" class="node">
<title>form_eye_vitals</title>
<g id="a_node1"><a xlink:href="../../tables/form_eye_vitals.html" xlink:title="form_eye_vitals" target="_top">
<polygon fill="#ffffff" stroke="transparent" points="305,-38.2 305,-678.2 483,-678.2 483,-38.2 305,-38.2"/>
<polygon fill="#f5f5f5" stroke="transparent" points="307,-653.2 307,-676.2 481,-676.2 481,-653.2 307,-653.2"/>
<polygon fill="none" stroke="#000000" points="307,-653.2 307,-676.2 481,-676.2 481,-653.2 307,-653.2"/>
<text text-anchor="start" x="312" y="-661.8" font-family="Helvetica,sans-Serif" font-weight="bold" font-size="11.00" fill="#000000">form_eye_vitals</text>
<text text-anchor="start" x="446.0437" y="-661.3" font-family="Helvetica,sans-Serif" font-size="11.00" fill="#000000">[table]</text>
<polygon fill="none" stroke="#000000" points="307,-631.2 307,-653.2 420,-653.2 420,-631.2 307,-631.2"/>
<image xlink:href="../../images/primaryKeys.png" width="11px" height="12px" preserveAspectRatio="xMinYMin meet" x="312" y="-648.2"/>
<text text-anchor="start" x="327" y="-638.3" font-family="Helvetica,sans-Serif" font-size="11.00" fill="#000000">id</text>
<polygon fill="none" stroke="#000000" points="420,-631.2 420,-653.2 481,-653.2 481,-631.2 420,-631.2"/>
<text text-anchor="start" x="423" y="-638.9" font-family="Helvetica,sans-Serif" font-size="11.00" fill="#000000">bigint[19]</text>
<polygon fill="#ffffff" stroke="transparent" points="307,-609.2 307,-631.2 420,-631.2 420,-609.2 307,-609.2"/>
<polygon fill="none" stroke="#000000" points="307,-609.2 307,-631.2 420,-631.2 420,-609.2 307,-609.2"/>
<image xlink:href="../../images/foreignKeys.png" width="11px" height="12px" preserveAspectRatio="xMinYMin meet" x="312" y="-626.2"/>
<text text-anchor="start" x="327" y="-616.3" font-family="Helvetica,sans-Serif" font-size="11.00" fill="#000000">pid</text>
<polygon fill="none" stroke="#000000" points="420,-609.2 420,-631.2 481,-631.2 481,-609.2 420,-609.2"/>
<text text-anchor="start" x="423" y="-616.9" font-family="Helvetica,sans-Serif" font-size="11.00" fill="#000000">bigint[19]</text>
<polygon fill="none" stroke="#000000" points="307,-587.2 307,-609.2 420,-609.2 420,-587.2 307,-587.2"/>
<text text-anchor="start" x="327" y="-594.3" font-family="Helvetica,sans-Serif" font-size="11.00" fill="#000000">alert</text>
<polygon fill="none" stroke="#000000" points="420,-587.2 420,-609.2 481,-609.2 481,-587.2 420,-587.2"/>
<text text-anchor="start" x="423" y="-594.9" font-family="Helvetica,sans-Serif" font-size="11.00" fill="#000000">char[3]</text>
<polygon fill="none" stroke="#000000" points="307,-565.2 307,-587.2 420,-587.2 420,-565.2 307,-565.2"/>
<text text-anchor="start" x="327" y="-572.3" font-family="Helvetica,sans-Serif" font-size="11.00" fill="#000000">oriented</text>
<polygon fill="none" stroke="#000000" points="420,-565.2 420,-587.2 481,-587.2 481,-565.2 420,-565.2"/>
<text text-anchor="start" x="423" y="-572.9" font-family="Helvetica,sans-Serif" font-size="11.00" fill="#000000">char[3]</text>
<polygon fill="none" stroke="#000000" points="307,-543.2 307,-565.2 420,-565.2 420,-543.2 307,-543.2"/>
<text text-anchor="start" x="327" y="-550.3" font-family="Helvetica,sans-Serif" font-size="11.00" fill="#000000">confused</text>
<polygon fill="none" stroke="#000000" points="420,-543.2 420,-565.2 481,-565.2 481,-543.2 420,-543.2"/>
<text text-anchor="start" x="423" y="-550.9" font-family="Helvetica,sans-Serif" font-size="11.00" fill="#000000">char[3]</text>
<polygon fill="none" stroke="#000000" points="307,-521.2 307,-543.2 420,-543.2 420,-521.2 307,-521.2"/>
<text text-anchor="start" x="327" y="-528.3" font-family="Helvetica,sans-Serif" font-size="11.00" fill="#000000">ODIOPAP</text>
<polygon fill="none" stroke="#000000" points="420,-521.2 420,-543.2 481,-543.2 481,-521.2 420,-521.2"/>
<text text-anchor="start" x="422.994" y="-528.9" font-family="Helvetica,sans-Serif" font-size="11.00" fill="#000000">varchar[10]</text>
<polygon fill="none" stroke="#000000" points="307,-499.2 307,-521.2 420,-521.2 420,-499.2 307,-499.2"/>
<text text-anchor="start" x="327" y="-506.3" font-family="Helvetica,sans-Serif" font-size="11.00" fill="#000000">OSIOPAP</text>
<polygon fill="none" stroke="#000000" points="420,-499.2 420,-521.2 481,-521.2 481,-499.2 420,-499.2"/>
<text text-anchor="start" x="422.994" y="-506.9" font-family="Helvetica,sans-Serif" font-size="11.00" fill="#000000">varchar[10]</text>
<polygon fill="none" stroke="#000000" points="307,-477.2 307,-499.2 420,-499.2 420,-477.2 307,-477.2"/>
<text text-anchor="start" x="327" y="-484.3" font-family="Helvetica,sans-Serif" font-size="11.00" fill="#000000">ODIOPTPN</text>
<polygon fill="none" stroke="#000000" points="420,-477.2 420,-499.2 481,-499.2 481,-477.2 420,-477.2"/>
<text text-anchor="start" x="422.994" y="-484.9" font-family="Helvetica,sans-Serif" font-size="11.00" fill="#000000">varchar[10]</text>
<polygon fill="none" stroke="#000000" points="307,-455.2 307,-477.2 420,-477.2 420,-455.2 307,-455.2"/>
<text text-anchor="start" x="327" y="-462.3" font-family="Helvetica,sans-Serif" font-size="11.00" fill="#000000">OSIOPTPN</text>
<polygon fill="none" stroke="#000000" points="420,-455.2 420,-477.2 481,-477.2 481,-455.2 420,-455.2"/>
<text text-anchor="start" x="422.994" y="-462.9" font-family="Helvetica,sans-Serif" font-size="11.00" fill="#000000">varchar[10]</text>
<polygon fill="none" stroke="#000000" points="307,-433.2 307,-455.2 420,-455.2 420,-433.2 307,-433.2"/>
<text text-anchor="start" x="327" y="-440.3" font-family="Helvetica,sans-Serif" font-size="11.00" fill="#000000">ODIOPFTN</text>
<polygon fill="none" stroke="#000000" points="420,-433.2 420,-455.2 481,-455.2 481,-433.2 420,-433.2"/>
<text text-anchor="start" x="422.994" y="-440.9" font-family="Helvetica,sans-Serif" font-size="11.00" fill="#000000">varchar[10]</text>
<polygon fill="none" stroke="#000000" points="307,-411.2 307,-433.2 420,-433.2 420,-411.2 307,-411.2"/>
<text text-anchor="start" x="327" y="-418.3" font-family="Helvetica,sans-Serif" font-size="11.00" fill="#000000">OSIOPFTN</text>
<polygon fill="none" stroke="#000000" points="420,-411.2 420,-433.2 481,-433.2 481,-411.2 420,-411.2"/>
<text text-anchor="start" x="422.994" y="-418.9" font-family="Helvetica,sans-Serif" font-size="11.00" fill="#000000">varchar[10]</text>
<polygon fill="none" stroke="#000000" points="307,-389.2 307,-411.2 420,-411.2 420,-389.2 307,-389.2"/>
<text text-anchor="start" x="327" y="-396.3" font-family="Helvetica,sans-Serif" font-size="11.00" fill="#000000">IOPTIME</text>
<polygon fill="none" stroke="#000000" points="420,-389.2 420,-411.2 481,-411.2 481,-389.2 420,-389.2"/>
<text text-anchor="start" x="423" y="-396.9" font-family="Helvetica,sans-Serif" font-size="11.00" fill="#000000">time[10]</text>
<polygon fill="none" stroke="#000000" points="307,-367.2 307,-389.2 420,-389.2 420,-367.2 307,-367.2"/>
<text text-anchor="start" x="327" y="-374.3" font-family="Helvetica,sans-Serif" font-size="11.00" fill="#000000">ODIOPPOST</text>
<polygon fill="none" stroke="#000000" points="420,-367.2 420,-389.2 481,-389.2 481,-367.2 420,-367.2"/>
<text text-anchor="start" x="422.994" y="-374.9" font-family="Helvetica,sans-Serif" font-size="11.00" fill="#000000">varchar[10]</text>
<polygon fill="none" stroke="#000000" points="307,-345.2 307,-367.2 420,-367.2 420,-345.2 307,-345.2"/>
<text text-anchor="start" x="327" y="-352.3" font-family="Helvetica,sans-Serif" font-size="11.00" fill="#000000">OSIOPPOST</text>
<polygon fill="none" stroke="#000000" points="420,-345.2 420,-367.2 481,-367.2 481,-345.2 420,-345.2"/>
<text text-anchor="start" x="422.994" y="-352.9" font-family="Helvetica,sans-Serif" font-size="11.00" fill="#000000">varchar[10]</text>
<polygon fill="none" stroke="#000000" points="307,-323.2 307,-345.2 420,-345.2 420,-323.2 307,-323.2"/>
<text text-anchor="start" x="327" y="-330.3" font-family="Helvetica,sans-Serif" font-size="11.00" fill="#000000">IOPPOSTTIME</text>
<polygon fill="none" stroke="#000000" points="420,-323.2 420,-345.2 481,-345.2 481,-323.2 420,-323.2"/>
<text text-anchor="start" x="423" y="-330.9" font-family="Helvetica,sans-Serif" font-size="11.00" fill="#000000">time[10]</text>
<polygon fill="none" stroke="#000000" points="307,-301.2 307,-323.2 420,-323.2 420,-301.2 307,-301.2"/>
<text text-anchor="start" x="327" y="-308.3" font-family="Helvetica,sans-Serif" font-size="11.00" fill="#000000">ODIOPTARGET</text>
<polygon fill="none" stroke="#000000" points="420,-301.2 420,-323.2 481,-323.2 481,-301.2 420,-301.2"/>
<text text-anchor="start" x="422.994" y="-308.9" font-family="Helvetica,sans-Serif" font-size="11.00" fill="#000000">varchar[10]</text>
<polygon fill="none" stroke="#000000" points="307,-279.2 307,-301.2 420,-301.2 420,-279.2 307,-279.2"/>
<text text-anchor="start" x="327" y="-286.3" font-family="Helvetica,sans-Serif" font-size="11.00" fill="#000000">OSIOPTARGET</text>
<polygon fill="none" stroke="#000000" points="420,-279.2 420,-301.2 481,-301.2 481,-279.2 420,-279.2"/>
<text text-anchor="start" x="422.994" y="-286.9" font-family="Helvetica,sans-Serif" font-size="11.00" fill="#000000">varchar[10]</text>
<polygon fill="none" stroke="#000000" points="307,-257.2 307,-279.2 420,-279.2 420,-257.2 307,-257.2"/>
<text text-anchor="start" x="327" y="-264.3" font-family="Helvetica,sans-Serif" font-size="11.00" fill="#000000">AMSLEROD</text>
<polygon fill="none" stroke="#000000" points="420,-257.2 420,-279.2 481,-279.2 481,-257.2 420,-257.2"/>
<text text-anchor="start" x="423" y="-264.9" font-family="Helvetica,sans-Serif" font-size="11.00" fill="#000000">smallint[5]</text>
<polygon fill="none" stroke="#000000" points="307,-235.2 307,-257.2 420,-257.2 420,-235.2 307,-235.2"/>
<text text-anchor="start" x="327" y="-242.3" font-family="Helvetica,sans-Serif" font-size="11.00" fill="#000000">AMSLEROS</text>
<polygon fill="none" stroke="#000000" points="420,-235.2 420,-257.2 481,-257.2 481,-235.2 420,-235.2"/>
<text text-anchor="start" x="423" y="-242.9" font-family="Helvetica,sans-Serif" font-size="11.00" fill="#000000">smallint[5]</text>
<polygon fill="none" stroke="#000000" points="307,-213.2 307,-235.2 420,-235.2 420,-213.2 307,-213.2"/>
<text text-anchor="start" x="327" y="-220.3" font-family="Helvetica,sans-Serif" font-size="11.00" fill="#000000">ODVF1</text>
<polygon fill="none" stroke="#000000" points="420,-213.2 420,-235.2 481,-235.2 481,-213.2 420,-213.2"/>
<text text-anchor="start" x="423" y="-220.9" font-family="Helvetica,sans-Serif" font-size="11.00" fill="#000000">boolean[3]</text>
<polygon fill="none" stroke="#000000" points="307,-191.2 307,-213.2 420,-213.2 420,-191.2 307,-191.2"/>
<text text-anchor="start" x="327" y="-198.3" font-family="Helvetica,sans-Serif" font-size="11.00" fill="#000000">ODVF2</text>
<polygon fill="none" stroke="#000000" points="420,-191.2 420,-213.2 481,-213.2 481,-191.2 420,-191.2"/>
<text text-anchor="start" x="423" y="-198.9" font-family="Helvetica,sans-Serif" font-size="11.00" fill="#000000">boolean[3]</text>
<polygon fill="none" stroke="#000000" points="307,-169.2 307,-191.2 420,-191.2 420,-169.2 307,-169.2"/>
<text text-anchor="start" x="327" y="-176.3" font-family="Helvetica,sans-Serif" font-size="11.00" fill="#000000">ODVF3</text>
<polygon fill="none" stroke="#000000" points="420,-169.2 420,-191.2 481,-191.2 481,-169.2 420,-169.2"/>
<text text-anchor="start" x="423" y="-176.9" font-family="Helvetica,sans-Serif" font-size="11.00" fill="#000000">boolean[3]</text>
<polygon fill="none" stroke="#000000" points="307,-147.2 307,-169.2 420,-169.2 420,-147.2 307,-147.2"/>
<text text-anchor="start" x="327" y="-154.3" font-family="Helvetica,sans-Serif" font-size="11.00" fill="#000000">ODVF4</text>
<polygon fill="none" stroke="#000000" points="420,-147.2 420,-169.2 481,-169.2 481,-147.2 420,-147.2"/>
<text text-anchor="start" x="423" y="-154.9" font-family="Helvetica,sans-Serif" font-size="11.00" fill="#000000">boolean[3]</text>
<polygon fill="none" stroke="#000000" points="307,-125.2 307,-147.2 420,-147.2 420,-125.2 307,-125.2"/>
<text text-anchor="start" x="327" y="-132.3" font-family="Helvetica,sans-Serif" font-size="11.00" fill="#000000">OSVF1</text>
<polygon fill="none" stroke="#000000" points="420,-125.2 420,-147.2 481,-147.2 481,-125.2 420,-125.2"/>
<text text-anchor="start" x="423" y="-132.9" font-family="Helvetica,sans-Serif" font-size="11.00" fill="#000000">boolean[3]</text>
<polygon fill="none" stroke="#000000" points="307,-103.2 307,-125.2 420,-125.2 420,-103.2 307,-103.2"/>
<text text-anchor="start" x="327" y="-110.3" font-family="Helvetica,sans-Serif" font-size="11.00" fill="#000000">OSVF2</text>
<polygon fill="none" stroke="#000000" points="420,-103.2 420,-125.2 481,-125.2 481,-103.2 420,-103.2"/>
<text text-anchor="start" x="423" y="-110.9" font-family="Helvetica,sans-Serif" font-size="11.00" fill="#000000">boolean[3]</text>
<polygon fill="none" stroke="#000000" points="307,-81.2 307,-103.2 420,-103.2 420,-81.2 307,-81.2"/>
<text text-anchor="start" x="327" y="-88.3" font-family="Helvetica,sans-Serif" font-size="11.00" fill="#000000">OSVF3</text>
<polygon fill="none" stroke="#000000" points="420,-81.2 420,-103.2 481,-103.2 481,-81.2 420,-81.2"/>
<text text-anchor="start" x="423" y="-88.9" font-family="Helvetica,sans-Serif" font-size="11.00" fill="#000000">boolean[3]</text>
<polygon fill="none" stroke="#000000" points="307,-59.2 307,-81.2 420,-81.2 420,-59.2 307,-59.2"/>
<text text-anchor="start" x="327" y="-66.3" font-family="Helvetica,sans-Serif" font-size="11.00" fill="#000000">OSVF4</text>
<polygon fill="none" stroke="#000000" points="420,-59.2 420,-81.2 481,-81.2 481,-59.2 420,-59.2"/>
<text text-anchor="start" x="423" y="-66.9" font-family="Helvetica,sans-Serif" font-size="11.00" fill="#000000">boolean[3]</text>
<polygon fill="#ffffff" stroke="transparent" points="307,-40.2 307,-59.2 368,-59.2 368,-40.2 307,-40.2"/>
<polygon fill="none" stroke="#000000" points="307,-40.2 307,-59.2 368,-59.2 368,-40.2 307,-40.2"/>
<text text-anchor="start" x="310" y="-46.3" font-family="Helvetica,sans-Serif" font-size="11.00" fill="#000000">&lt; 1</text>
<polygon fill="#ffffff" stroke="transparent" points="368,-40.2 368,-59.2 420,-59.2 420,-40.2 368,-40.2"/>
<polygon fill="none" stroke="#000000" points="368,-40.2 368,-59.2 420,-59.2 420,-40.2 368,-40.2"/>
<text text-anchor="start" x="410.8862" y="-46.3" font-family="Helvetica,sans-Serif" font-size="11.00" fill="#000000"> &#160;</text>
<polygon fill="#ffffff" stroke="transparent" points="420,-40.2 420,-59.2 481,-59.2 481,-40.2 420,-40.2"/>
<polygon fill="none" stroke="#000000" points="420,-40.2 420,-59.2 481,-59.2 481,-40.2 420,-40.2"/>
<text text-anchor="start" x="462.4053" y="-46.3" font-family="Helvetica,sans-Serif" font-size="11.00" fill="#000000">0 &gt;</text>
<polygon fill="none" stroke="#000000" stroke-width="2" points="306,-39.2 306,-677.2 482,-677.2 482,-39.2 306,-39.2"/>
</a>
</g>
</g>
<!-- patient_data -->
<g id="node2" class="node">
<title>patient_data</title>
<g id="a_node2"><a xlink:href="../../tables/patient_data.html" xlink:title="patient_data" target="_top">
<polygon fill="#ffffff" stroke="transparent" points="8,-439.7 8,-830.7 256,-830.7 256,-439.7 8,-439.7"/>
<polygon fill="#f5f5f5" stroke="transparent" points="8,-807.2 8,-830.2 256,-830.2 256,-807.2 8,-807.2"/>
<polygon fill="none" stroke="#000000" points="8,-807.2 8,-830.2 256,-830.2 256,-807.2 8,-807.2"/>
<text text-anchor="start" x="13" y="-815.8" font-family="Helvetica,sans-Serif" font-weight="bold" font-size="11.00" fill="#000000">patient_data</text>
<text text-anchor="start" x="221.0437" y="-815.3" font-family="Helvetica,sans-Serif" font-size="11.00" fill="#000000">[table]</text>
<polygon fill="none" stroke="#000000" points="8,-785.2 8,-807.2 256,-807.2 256,-785.2 8,-785.2"/>
<image xlink:href="../../images/primaryKeys.png" width="11px" height="12px" preserveAspectRatio="xMinYMin meet" x="13" y="-802.2"/>
<text text-anchor="start" x="28" y="-792.3" font-family="Helvetica,sans-Serif" font-size="11.00" fill="#000000">id</text>
<polygon fill="#ffffff" stroke="transparent" points="8,-763.2 8,-785.2 256,-785.2 256,-763.2 8,-763.2"/>
<polygon fill="none" stroke="#000000" points="8,-763.2 8,-785.2 256,-785.2 256,-763.2 8,-763.2"/>
<text text-anchor="start" x="28" y="-770.3" font-family="Helvetica,sans-Serif" font-size="11.00" fill="#000000">uuid</text>
<polygon fill="#ffffff" stroke="transparent" points="8,-741.2 8,-763.2 256,-763.2 256,-741.2 8,-741.2"/>
<polygon fill="none" stroke="#000000" points="8,-741.2 8,-763.2 256,-763.2 256,-741.2 8,-741.2"/>
<text text-anchor="start" x="28" y="-748.3" font-family="Helvetica,sans-Serif" font-size="11.00" fill="#000000">fname</text>
<polygon fill="#ffffff" stroke="transparent" points="8,-719.2 8,-741.2 256,-741.2 256,-719.2 8,-719.2"/>
<polygon fill="none" stroke="#000000" points="8,-719.2 8,-741.2 256,-741.2 256,-719.2 8,-719.2"/>
<text text-anchor="start" x="28" y="-726.3" font-family="Helvetica,sans-Serif" font-size="11.00" fill="#000000">lname</text>
<polygon fill="#ffffff" stroke="transparent" points="8,-697.2 8,-719.2 256,-719.2 256,-697.2 8,-697.2"/>
<polygon fill="none" stroke="#000000" points="8,-697.2 8,-719.2 256,-719.2 256,-697.2 8,-697.2"/>
<text text-anchor="start" x="28" y="-704.3" font-family="Helvetica,sans-Serif" font-size="11.00" fill="#000000">DOB</text>
<polygon fill="none" stroke="#000000" points="8,-675.2 8,-697.2 256,-697.2 256,-675.2 8,-675.2"/>
<image xlink:href="../../images/foreignKeys.png" width="11px" height="12px" preserveAspectRatio="xMinYMin meet" x="13" y="-692.2"/>
<text text-anchor="start" x="28" y="-682.3" font-family="Helvetica,sans-Serif" font-size="11.00" fill="#000000">pharmacy_id</text>
<polygon fill="none" stroke="#000000" points="8,-653.2 8,-675.2 256,-675.2 256,-653.2 8,-653.2"/>
<image xlink:href="../../images/foreignKeys.png" width="11px" height="12px" preserveAspectRatio="xMinYMin meet" x="13" y="-670.2"/>
<text text-anchor="start" x="28" y="-660.3" font-family="Helvetica,sans-Serif" font-size="11.00" fill="#000000">providerID</text>
<polygon fill="none" stroke="#000000" points="8,-631.2 8,-653.2 256,-653.2 256,-631.2 8,-631.2"/>
<image xlink:href="../../images/foreignKeys.png" width="11px" height="12px" preserveAspectRatio="xMinYMin meet" x="13" y="-648.2"/>
<text text-anchor="start" x="28" y="-638.3" font-family="Helvetica,sans-Serif" font-size="11.00" fill="#000000">ref_providerID</text>
<polygon fill="none" stroke="#000000" points="8,-609.2 8,-631.2 256,-631.2 256,-609.2 8,-609.2"/>
<image xlink:href="../../images/primaryKeys.png" width="11px" height="12px" preserveAspectRatio="xMinYMin meet" x="13" y="-626.2"/>
<text text-anchor="start" x="28" y="-616.3" font-family="Helvetica,sans-Serif" font-size="11.00" fill="#000000">pid</text>
<polygon fill="none" stroke="#000000" points="8,-587.2 8,-609.2 256,-609.2 256,-587.2 8,-587.2"/>
<image xlink:href="../../images/foreignKeys.png" width="11px" height="12px" preserveAspectRatio="xMinYMin meet" x="13" y="-604.2"/>
<text text-anchor="start" x="28" y="-594.3" font-family="Helvetica,sans-Serif" font-size="11.00" fill="#000000">created_by</text>
<polygon fill="none" stroke="#000000" points="8,-565.2 8,-587.2 256,-587.2 256,-565.2 8,-565.2"/>
<image xlink:href="../../images/foreignKeys.png" width="11px" height="12px" preserveAspectRatio="xMinYMin meet" x="13" y="-582.2"/>
<text text-anchor="start" x="28" y="-572.3" font-family="Helvetica,sans-Serif" font-size="11.00" fill="#000000">updated_by</text>
<polygon fill="none" stroke="#000000" points="8,-543.2 8,-565.2 256,-565.2 256,-543.2 8,-543.2"/>
<image xlink:href="../../images/foreignKeys.png" width="11px" height="12px" preserveAspectRatio="xMinYMin meet" x="13" y="-560.2"/>
<text text-anchor="start" x="28" y="-550.3" font-family="Helvetica,sans-Serif" font-size="11.00" fill="#000000">tribal_affiliations</text>
<polygon fill="none" stroke="#000000" points="8,-521.2 8,-543.2 256,-543.2 256,-521.2 8,-521.2"/>
<image xlink:href="../../images/foreignKeys.png" width="11px" height="12px" preserveAspectRatio="xMinYMin meet" x="13" y="-538.2"/>
<text text-anchor="start" x="28" y="-528.3" font-family="Helvetica,sans-Serif" font-size="11.00" fill="#000000">sex_identified</text>
<polygon fill="none" stroke="#000000" points="8,-499.2 8,-521.2 256,-521.2 256,-499.2 8,-499.2"/>
<image xlink:href="../../images/foreignKeys.png" width="11px" height="12px" preserveAspectRatio="xMinYMin meet" x="13" y="-516.2"/>
<text text-anchor="start" x="28" y="-506.3" font-family="Helvetica,sans-Serif" font-size="11.00" fill="#000000">interpreter_needed</text>
<polygon fill="none" stroke="#000000" points="8,-477.2 8,-499.2 256,-499.2 256,-477.2 8,-477.2"/>
<image xlink:href="../../images/foreignKeys.png" width="11px" height="12px" preserveAspectRatio="xMinYMin meet" x="13" y="-494.2"/>
<text text-anchor="start" x="28" y="-484.3" font-family="Helvetica,sans-Serif" font-size="11.00" fill="#000000">advance_directive_user_authenticator</text>
<polygon fill="none" stroke="#000000" points="8,-458.2 8,-477.2 256,-477.2 256,-458.2 8,-458.2"/>
<text text-anchor="start" x="11" y="-464.3" font-family="Helvetica,sans-Serif" font-size="11.00" fill="#000000">...</text>
<polygon fill="#ffffff" stroke="transparent" points="8,-439.2 8,-458.2 123,-458.2 123,-439.2 8,-439.2"/>
<polygon fill="none" stroke="#000000" points="8,-439.2 8,-458.2 123,-458.2 123,-439.2 8,-439.2"/>
<text text-anchor="start" x="11" y="-445.3" font-family="Helvetica,sans-Serif" font-size="11.00" fill="#000000">&lt; 9</text>
<polygon fill="#ffffff" stroke="transparent" points="123,-439.2 123,-458.2 182,-458.2 182,-439.2 123,-439.2"/>
<polygon fill="none" stroke="#000000" points="123,-439.2 123,-458.2 182,-458.2 182,-439.2 123,-439.2"/>
<text text-anchor="start" x="172.8862" y="-445.3" font-family="Helvetica,sans-Serif" font-size="11.00" fill="#000000"> &#160;</text>
<polygon fill="#ffffff" stroke="transparent" points="182,-439.2 182,-458.2 256,-458.2 256,-439.2 182,-439.2"/>
<polygon fill="none" stroke="#000000" points="182,-439.2 182,-458.2 256,-458.2 256,-439.2 182,-439.2"/>
<text text-anchor="start" x="231.2904" y="-445.3" font-family="Helvetica,sans-Serif" font-size="11.00" fill="#000000">97 &gt;</text>
</a>
</g>
</g>
<!-- form_eye_vitals&#45;&gt;patient_data -->
<g id="edge1" class="edge">
<title>form_eye_vitals:w&#45;&gt;patient_data:e</title>
<path fill="none" stroke="#000000" d="M292.276,-620.2C280.2815,-620.2 272.8229,-620.2 256,-620.2"/>
<polygon fill="#000000" stroke="#000000" points="299,-620.2001 307,-623.8 303,-620.2 307,-620.2 307,-620.2 307,-620.2 303,-620.2 307,-616.6 299,-620.2001 299,-620.2001"/>
<ellipse fill="none" stroke="#000000" cx="295.8" cy="-620.2001" rx="3.2" ry="3.2"/>
</g>
</g>
</svg>
