<?xml version="1.0" encoding="UTF-8" standalone="no"?>
<!DOCTYPE svg PUBLIC "-//W3C//DTD SVG 1.1//EN"
 "http://www.w3.org/Graphics/SVG/1.1/DTD/svg11.dtd">
<!-- Generated by graphviz version 2.40.1 (20161225.0304)
 -->
<!-- Title: oneDegreeRelationshipsDiagram Pages: 1 -->
<svg width="456pt" height="359pt"
 viewBox="0.00 0.00 456.00 358.70" xmlns="http://www.w3.org/2000/svg" xmlns:xlink="http://www.w3.org/1999/xlink">
<g id="graph0" class="graph" transform="scale(1 1) rotate(0) translate(4 354.7)">
<title>oneDegreeRelationshipsDiagram</title>
<polygon fill="#ffffff" stroke="transparent" points="-4,4 -4,-354.7 452,-354.7 452,4 -4,4"/>
<text text-anchor="middle" x="72.4936" y="-7.3" font-family="Helvetica,sans-Serif" font-size="11.00" fill="#000000">Generated by SchemaSpy</text>
<!-- form_eye_locking -->
<g id="node1" class="node">
<title>form_eye_locking</title>
<g id="a_node1"><a xlink:href="../../tables/form_eye_locking.html" xlink:title="form_eye_locking" target="_top">
<polygon fill="#ffffff" stroke="transparent" points="224,-38.2 224,-282.2 440,-282.2 440,-38.2 224,-38.2"/>
<polygon fill="#f5f5f5" stroke="transparent" points="226,-257.2 226,-280.2 438,-280.2 438,-257.2 226,-257.2"/>
<polygon fill="none" stroke="#000000" points="226,-257.2 226,-280.2 438,-280.2 438,-257.2 226,-257.2"/>
<text text-anchor="start" x="231" y="-265.8" font-family="Helvetica,sans-Serif" font-weight="bold" font-size="11.00" fill="#000000">form_eye_locking</text>
<text text-anchor="start" x="403.0437" y="-265.3" font-family="Helvetica,sans-Serif" font-size="11.00" fill="#000000">[table]</text>
<polygon fill="none" stroke="#000000" points="226,-235.2 226,-257.2 363,-257.2 363,-235.2 226,-235.2"/>
<image xlink:href="../../images/primaryKeys.png" width="11px" height="12px" preserveAspectRatio="xMinYMin meet" x="231" y="-252.2"/>
<text text-anchor="start" x="246" y="-242.3" font-family="Helvetica,sans-Serif" font-size="11.00" fill="#000000">id</text>
<polygon fill="none" stroke="#000000" points="363,-235.2 363,-257.2 438,-257.2 438,-235.2 363,-235.2"/>
<text text-anchor="start" x="366" y="-242.9" font-family="Helvetica,sans-Serif" font-size="11.00" fill="#000000">bigint[19]</text>
<polygon fill="#ffffff" stroke="transparent" points="226,-213.2 226,-235.2 363,-235.2 363,-213.2 226,-213.2"/>
<polygon fill="none" stroke="#000000" points="226,-213.2 226,-235.2 363,-235.2 363,-213.2 226,-213.2"/>
<image xlink:href="../../images/foreignKeys.png" width="11px" height="12px" preserveAspectRatio="xMinYMin meet" x="231" y="-230.2"/>
<text text-anchor="start" x="246" y="-220.3" font-family="Helvetica,sans-Serif" font-size="11.00" fill="#000000">pid</text>
<polygon fill="none" stroke="#000000" points="363,-213.2 363,-235.2 438,-235.2 438,-213.2 363,-213.2"/>
<text text-anchor="start" x="366" y="-220.9" font-family="Helvetica,sans-Serif" font-size="11.00" fill="#000000">bigint[19]</text>
<polygon fill="none" stroke="#000000" points="226,-191.2 226,-213.2 363,-213.2 363,-191.2 226,-191.2"/>
<text text-anchor="start" x="246" y="-198.3" font-family="Helvetica,sans-Serif" font-size="11.00" fill="#000000">IMP</text>
<polygon fill="none" stroke="#000000" points="363,-191.2 363,-213.2 438,-213.2 438,-191.2 363,-191.2"/>
<text text-anchor="start" x="366" y="-198.9" font-family="Helvetica,sans-Serif" font-size="11.00" fill="#000000">text[65535]</text>
<polygon fill="none" stroke="#000000" points="226,-169.2 226,-191.2 363,-191.2 363,-169.2 226,-169.2"/>
<text text-anchor="start" x="246" y="-176.3" font-family="Helvetica,sans-Serif" font-size="11.00" fill="#000000">PLAN</text>
<polygon fill="none" stroke="#000000" points="363,-169.2 363,-191.2 438,-191.2 438,-169.2 363,-169.2"/>
<text text-anchor="start" x="366" y="-176.9" font-family="Helvetica,sans-Serif" font-size="11.00" fill="#000000">text[65535]</text>
<polygon fill="none" stroke="#000000" points="226,-147.2 226,-169.2 363,-169.2 363,-147.2 226,-147.2"/>
<text text-anchor="start" x="246" y="-154.3" font-family="Helvetica,sans-Serif" font-size="11.00" fill="#000000">Resource</text>
<polygon fill="none" stroke="#000000" points="363,-147.2 363,-169.2 438,-169.2 438,-147.2 363,-147.2"/>
<text text-anchor="start" x="366" y="-154.9" font-family="Helvetica,sans-Serif" font-size="11.00" fill="#000000">varchar[50]</text>
<polygon fill="none" stroke="#000000" points="226,-125.2 226,-147.2 363,-147.2 363,-125.2 226,-125.2"/>
<text text-anchor="start" x="246" y="-132.3" font-family="Helvetica,sans-Serif" font-size="11.00" fill="#000000">Technician</text>
<polygon fill="none" stroke="#000000" points="363,-125.2 363,-147.2 438,-147.2 438,-125.2 363,-125.2"/>
<text text-anchor="start" x="366" y="-132.9" font-family="Helvetica,sans-Serif" font-size="11.00" fill="#000000">varchar[50]</text>
<polygon fill="none" stroke="#000000" points="226,-103.2 226,-125.2 363,-125.2 363,-103.2 226,-103.2"/>
<text text-anchor="start" x="246" y="-110.3" font-family="Helvetica,sans-Serif" font-size="11.00" fill="#000000">LOCKED</text>
<polygon fill="none" stroke="#000000" points="363,-103.2 363,-125.2 438,-125.2 438,-103.2 363,-103.2"/>
<text text-anchor="start" x="366" y="-110.9" font-family="Helvetica,sans-Serif" font-size="11.00" fill="#000000">varchar[3]</text>
<polygon fill="none" stroke="#000000" points="226,-81.2 226,-103.2 363,-103.2 363,-81.2 226,-81.2"/>
<text text-anchor="start" x="246" y="-88.3" font-family="Helvetica,sans-Serif" font-size="11.00" fill="#000000">LOCKEDDATE</text>
<polygon fill="none" stroke="#000000" points="363,-81.2 363,-103.2 438,-103.2 438,-81.2 363,-81.2"/>
<text text-anchor="start" x="365.9666" y="-88.9" font-family="Helvetica,sans-Serif" font-size="11.00" fill="#000000">timestamp[19]</text>
<polygon fill="none" stroke="#000000" points="226,-59.2 226,-81.2 363,-81.2 363,-59.2 226,-59.2"/>
<text text-anchor="start" x="246" y="-66.3" font-family="Helvetica,sans-Serif" font-size="11.00" fill="#000000">LOCKEDBY</text>
<polygon fill="none" stroke="#000000" points="363,-59.2 363,-81.2 438,-81.2 438,-59.2 363,-59.2"/>
<text text-anchor="start" x="366" y="-66.9" font-family="Helvetica,sans-Serif" font-size="11.00" fill="#000000">varchar[50]</text>
<polygon fill="#ffffff" stroke="transparent" points="226,-40.2 226,-59.2 299,-59.2 299,-40.2 226,-40.2"/>
<polygon fill="none" stroke="#000000" points="226,-40.2 226,-59.2 299,-59.2 299,-40.2 226,-40.2"/>
<text text-anchor="start" x="229" y="-46.3" font-family="Helvetica,sans-Serif" font-size="11.00" fill="#000000">&lt; 1</text>
<polygon fill="#ffffff" stroke="transparent" points="299,-40.2 299,-59.2 363,-59.2 363,-40.2 299,-40.2"/>
<polygon fill="none" stroke="#000000" points="299,-40.2 299,-59.2 363,-59.2 363,-40.2 299,-40.2"/>
<text text-anchor="start" x="353.8862" y="-46.3" font-family="Helvetica,sans-Serif" font-size="11.00" fill="#000000"> &#160;</text>
<polygon fill="#ffffff" stroke="transparent" points="363,-40.2 363,-59.2 438,-59.2 438,-40.2 363,-40.2"/>
<polygon fill="none" stroke="#000000" points="363,-40.2 363,-59.2 438,-59.2 438,-40.2 363,-40.2"/>
<text text-anchor="start" x="419.4053" y="-46.3" font-family="Helvetica,sans-Serif" font-size="11.00" fill="#000000">0 &gt;</text>
<polygon fill="none" stroke="#000000" stroke-width="2" points="225,-39.2 225,-281.2 439,-281.2 439,-39.2 225,-39.2"/>
</a>
</g>
</g>
<!-- patient_data -->
<g id="node2" class="node">
<title>patient_data</title>
<g id="a_node2"><a xlink:href="../../tables/patient_data.html" xlink:title="patient_data" target="_top">
<polygon fill="#ffffff" stroke="transparent" points="8,-109.7 8,-346.7 175,-346.7 175,-109.7 8,-109.7"/>
<polygon fill="#f5f5f5" stroke="transparent" points="8.5,-323.2 8.5,-346.2 175.5,-346.2 175.5,-323.2 8.5,-323.2"/>
<polygon fill="none" stroke="#000000" points="8.5,-323.2 8.5,-346.2 175.5,-346.2 175.5,-323.2 8.5,-323.2"/>
<text text-anchor="start" x="13.5" y="-331.8" font-family="Helvetica,sans-Serif" font-weight="bold" font-size="11.00" fill="#000000">patient_data</text>
<text text-anchor="start" x="140.5437" y="-331.3" font-family="Helvetica,sans-Serif" font-size="11.00" fill="#000000">[table]</text>
<polygon fill="#ffffff" stroke="transparent" points="8.5,-301.2 8.5,-323.2 175.5,-323.2 175.5,-301.2 8.5,-301.2"/>
<polygon fill="none" stroke="#000000" points="8.5,-301.2 8.5,-323.2 175.5,-323.2 175.5,-301.2 8.5,-301.2"/>
<text text-anchor="start" x="28.5" y="-308.3" font-family="Helvetica,sans-Serif" font-size="11.00" fill="#000000">id</text>
<polygon fill="none" stroke="#000000" points="8.5,-279.2 8.5,-301.2 175.5,-301.2 175.5,-279.2 8.5,-279.2"/>
<image xlink:href="../../images/foreignKeys.png" width="11px" height="12px" preserveAspectRatio="xMinYMin meet" x="13.5" y="-296.2"/>
<text text-anchor="start" x="28.5" y="-286.3" font-family="Helvetica,sans-Serif" font-size="11.00" fill="#000000">pharmacy_id</text>
<polygon fill="none" stroke="#000000" points="8.5,-257.2 8.5,-279.2 175.5,-279.2 175.5,-257.2 8.5,-257.2"/>
<image xlink:href="../../images/foreignKeys.png" width="11px" height="12px" preserveAspectRatio="xMinYMin meet" x="13.5" y="-274.2"/>
<text text-anchor="start" x="28.5" y="-264.3" font-family="Helvetica,sans-Serif" font-size="11.00" fill="#000000">providerID</text>
<polygon fill="none" stroke="#000000" points="8.5,-235.2 8.5,-257.2 175.5,-257.2 175.5,-235.2 8.5,-235.2"/>
<image xlink:href="../../images/foreignKeys.png" width="11px" height="12px" preserveAspectRatio="xMinYMin meet" x="13.5" y="-252.2"/>
<text text-anchor="start" x="28.5" y="-242.3" font-family="Helvetica,sans-Serif" font-size="11.00" fill="#000000">ref_providerID</text>
<polygon fill="none" stroke="#000000" points="8.5,-213.2 8.5,-235.2 175.5,-235.2 175.5,-213.2 8.5,-213.2"/>
<image xlink:href="../../images/primaryKeys.png" width="11px" height="12px" preserveAspectRatio="xMinYMin meet" x="13.5" y="-230.2"/>
<text text-anchor="start" x="28.5" y="-220.3" font-family="Helvetica,sans-Serif" font-size="11.00" fill="#000000">pid</text>
<polygon fill="#ffffff" stroke="transparent" points="8.5,-191.2 8.5,-213.2 175.5,-213.2 175.5,-191.2 8.5,-191.2"/>
<polygon fill="none" stroke="#000000" points="8.5,-191.2 8.5,-213.2 175.5,-213.2 175.5,-191.2 8.5,-191.2"/>
<text text-anchor="start" x="28.5" y="-198.3" font-family="Helvetica,sans-Serif" font-size="11.00" fill="#000000">uuid</text>
<polygon fill="none" stroke="#000000" points="8.5,-169.2 8.5,-191.2 175.5,-191.2 175.5,-169.2 8.5,-169.2"/>
<image xlink:href="../../images/foreignKeys.png" width="11px" height="12px" preserveAspectRatio="xMinYMin meet" x="13.5" y="-186.2"/>
<text text-anchor="start" x="28.5" y="-176.3" font-family="Helvetica,sans-Serif" font-size="11.00" fill="#000000">created_by</text>
<polygon fill="none" stroke="#000000" points="8.5,-147.2 8.5,-169.2 175.5,-169.2 175.5,-147.2 8.5,-147.2"/>
<image xlink:href="../../images/foreignKeys.png" width="11px" height="12px" preserveAspectRatio="xMinYMin meet" x="13.5" y="-164.2"/>
<text text-anchor="start" x="28.5" y="-154.3" font-family="Helvetica,sans-Serif" font-size="11.00" fill="#000000">updated_by</text>
<polygon fill="none" stroke="#000000" points="8.5,-128.2 8.5,-147.2 175.5,-147.2 175.5,-128.2 8.5,-128.2"/>
<text text-anchor="start" x="11.5" y="-134.3" font-family="Helvetica,sans-Serif" font-size="11.00" fill="#000000">...</text>
<polygon fill="#ffffff" stroke="transparent" points="8.5,-109.2 8.5,-128.2 82.5,-128.2 82.5,-109.2 8.5,-109.2"/>
<polygon fill="none" stroke="#000000" points="8.5,-109.2 8.5,-128.2 82.5,-128.2 82.5,-109.2 8.5,-109.2"/>
<text text-anchor="start" x="11.5" y="-115.3" font-family="Helvetica,sans-Serif" font-size="11.00" fill="#000000">&lt; 5</text>
<polygon fill="#ffffff" stroke="transparent" points="82.5,-109.2 82.5,-128.2 121.5,-128.2 121.5,-109.2 82.5,-109.2"/>
<polygon fill="none" stroke="#000000" points="82.5,-109.2 82.5,-128.2 121.5,-128.2 121.5,-109.2 82.5,-109.2"/>
<text text-anchor="start" x="112.3862" y="-115.3" font-family="Helvetica,sans-Serif" font-size="11.00" fill="#000000"> &#160;</text>
<polygon fill="#ffffff" stroke="transparent" points="121.5,-109.2 121.5,-128.2 175.5,-128.2 175.5,-109.2 121.5,-109.2"/>
<polygon fill="none" stroke="#000000" points="121.5,-109.2 121.5,-128.2 175.5,-128.2 175.5,-109.2 121.5,-109.2"/>
<text text-anchor="start" x="150.7904" y="-115.3" font-family="Helvetica,sans-Serif" font-size="11.00" fill="#000000">85 &gt;</text>
</a>
</g>
</g>
<!-- form_eye_locking&#45;&gt;patient_data -->
<g id="edge1" class="edge">
<title>form_eye_locking:w&#45;&gt;patient_data:e</title>
<path fill="none" stroke="#000000" d="M211.4203,-224.2C199.5435,-224.2 192.158,-224.2 175.5,-224.2"/>
<polygon fill="#000000" stroke="#000000" points="218,-224.2001 226,-227.8 222,-224.2 226,-224.2 226,-224.2 226,-224.2 222,-224.2 226,-220.6 218,-224.2001 218,-224.2001"/>
<ellipse fill="none" stroke="#000000" cx="214.8" cy="-224.2001" rx="3.2" ry="3.2"/>
</g>
</g>
</svg>
