<?xml version="1.0" encoding="UTF-8" standalone="no"?>
<!DOCTYPE svg PUBLIC "-//W3C//DTD SVG 1.1//EN"
 "http://www.w3.org/Graphics/SVG/1.1/DTD/svg11.dtd">
<!-- Generated by graphviz version 2.40.1 (20161225.0304)
 -->
<!-- Title: oneDegreeRelationshipsDiagram Pages: 1 -->
<svg width="831pt" height="521pt"
 viewBox="0.00 0.00 831.00 520.70" xmlns="http://www.w3.org/2000/svg" xmlns:xlink="http://www.w3.org/1999/xlink">
<g id="graph0" class="graph" transform="scale(1 1) rotate(0) translate(4 516.7)">
<title>oneDegreeRelationshipsDiagram</title>
<polygon fill="#ffffff" stroke="transparent" points="-4,4 -4,-516.7 827,-516.7 827,4 -4,4"/>
<text text-anchor="middle" x="72.4936" y="-7.3" font-family="Helvetica,sans-Serif" font-size="11.00" fill="#000000">Generated by SchemaSpy</text>
<!-- form_painmap -->
<g id="node1" class="node">
<title>form_painmap</title>
<g id="a_node1"><a xlink:href="../../tables/form_painmap.html" xlink:title="form_painmap" target="_top">
<polygon fill="#ffffff" stroke="transparent" points="627,-107.2 627,-329.2 815,-329.2 815,-107.2 627,-107.2"/>
<polygon fill="#f5f5f5" stroke="transparent" points="629,-304.2 629,-327.2 813,-327.2 813,-304.2 629,-304.2"/>
<polygon fill="none" stroke="#000000" points="629,-304.2 629,-327.2 813,-327.2 813,-304.2 629,-304.2"/>
<text text-anchor="start" x="634" y="-312.8" font-family="Helvetica,sans-Serif" font-weight="bold" font-size="11.00" fill="#000000">form_painmap</text>
<text text-anchor="start" x="778.0437" y="-312.3" font-family="Helvetica,sans-Serif" font-size="11.00" fill="#000000">[table]</text>
<polygon fill="none" stroke="#000000" points="629,-282.2 629,-304.2 746,-304.2 746,-282.2 629,-282.2"/>
<image xlink:href="../../images/primaryKeys.png" width="11px" height="12px" preserveAspectRatio="xMinYMin meet" x="634" y="-299.2"/>
<text text-anchor="start" x="649" y="-289.3" font-family="Helvetica,sans-Serif" font-size="11.00" fill="#000000">id</text>
<polygon fill="none" stroke="#000000" points="746,-282.2 746,-304.2 813,-304.2 813,-282.2 746,-282.2"/>
<text text-anchor="start" x="749" y="-289.9" font-family="Helvetica,sans-Serif" font-size="11.00" fill="#000000">bigint[19]</text>
<polygon fill="none" stroke="#000000" points="629,-260.2 629,-282.2 746,-282.2 746,-260.2 629,-260.2"/>
<text text-anchor="start" x="649" y="-267.3" font-family="Helvetica,sans-Serif" font-size="11.00" fill="#000000">date</text>
<polygon fill="none" stroke="#000000" points="746,-260.2 746,-282.2 813,-282.2 813,-260.2 746,-260.2"/>
<text text-anchor="start" x="749" y="-267.9" font-family="Helvetica,sans-Serif" font-size="11.00" fill="#000000">datetime[19]</text>
<polygon fill="none" stroke="#000000" points="629,-238.2 629,-260.2 746,-260.2 746,-238.2 629,-238.2"/>
<image xlink:href="../../images/foreignKeys.png" width="11px" height="12px" preserveAspectRatio="xMinYMin meet" x="634" y="-255.2"/>
<text text-anchor="start" x="649" y="-245.3" font-family="Helvetica,sans-Serif" font-size="11.00" fill="#000000">pid</text>
<polygon fill="none" stroke="#000000" points="746,-238.2 746,-260.2 813,-260.2 813,-238.2 746,-238.2"/>
<text text-anchor="start" x="749" y="-245.9" font-family="Helvetica,sans-Serif" font-size="11.00" fill="#000000">bigint[19]</text>
<polygon fill="none" stroke="#000000" points="629,-216.2 629,-238.2 746,-238.2 746,-216.2 629,-216.2"/>
<image xlink:href="../../images/foreignKeys.png" width="11px" height="12px" preserveAspectRatio="xMinYMin meet" x="634" y="-233.2"/>
<text text-anchor="start" x="649" y="-223.3" font-family="Helvetica,sans-Serif" font-size="11.00" fill="#000000">user</text>
<polygon fill="none" stroke="#000000" points="746,-216.2 746,-238.2 813,-238.2 813,-216.2 746,-216.2"/>
<text text-anchor="start" x="748.9365" y="-223.9" font-family="Helvetica,sans-Serif" font-size="11.00" fill="#000000">varchar[255]</text>
<polygon fill="none" stroke="#000000" points="629,-194.2 629,-216.2 746,-216.2 746,-194.2 629,-194.2"/>
<image xlink:href="../../images/foreignKeys.png" width="11px" height="12px" preserveAspectRatio="xMinYMin meet" x="634" y="-211.2"/>
<text text-anchor="start" x="649" y="-201.3" font-family="Helvetica,sans-Serif" font-size="11.00" fill="#000000">groupname</text>
<polygon fill="none" stroke="#000000" points="746,-194.2 746,-216.2 813,-216.2 813,-194.2 746,-194.2"/>
<text text-anchor="start" x="748.9365" y="-201.9" font-family="Helvetica,sans-Serif" font-size="11.00" fill="#000000">varchar[255]</text>
<polygon fill="none" stroke="#000000" points="629,-172.2 629,-194.2 746,-194.2 746,-172.2 629,-172.2"/>
<text text-anchor="start" x="649" y="-179.3" font-family="Helvetica,sans-Serif" font-size="11.00" fill="#000000">authorized</text>
<polygon fill="none" stroke="#000000" points="746,-172.2 746,-194.2 813,-194.2 813,-172.2 746,-172.2"/>
<text text-anchor="start" x="749" y="-179.9" font-family="Helvetica,sans-Serif" font-size="11.00" fill="#000000">tinyint[3]</text>
<polygon fill="none" stroke="#000000" points="629,-150.2 629,-172.2 746,-172.2 746,-150.2 629,-150.2"/>
<text text-anchor="start" x="649" y="-157.3" font-family="Helvetica,sans-Serif" font-size="11.00" fill="#000000">activity</text>
<polygon fill="none" stroke="#000000" points="746,-150.2 746,-172.2 813,-172.2 813,-150.2 746,-150.2"/>
<text text-anchor="start" x="749" y="-157.9" font-family="Helvetica,sans-Serif" font-size="11.00" fill="#000000">tinyint[3]</text>
<polygon fill="none" stroke="#000000" points="629,-128.2 629,-150.2 746,-150.2 746,-128.2 629,-128.2"/>
<text text-anchor="start" x="649" y="-135.3" font-family="Helvetica,sans-Serif" font-size="11.00" fill="#000000">data</text>
<polygon fill="none" stroke="#000000" points="746,-128.2 746,-150.2 813,-150.2 813,-128.2 746,-128.2"/>
<text text-anchor="start" x="749" y="-135.9" font-family="Helvetica,sans-Serif" font-size="11.00" fill="#000000">text[65535]</text>
<polygon fill="#ffffff" stroke="transparent" points="629,-109.2 629,-128.2 692,-128.2 692,-109.2 629,-109.2"/>
<polygon fill="none" stroke="#000000" points="629,-109.2 629,-128.2 692,-128.2 692,-109.2 629,-109.2"/>
<text text-anchor="start" x="632" y="-115.3" font-family="Helvetica,sans-Serif" font-size="11.00" fill="#000000">&lt; 4</text>
<polygon fill="#ffffff" stroke="transparent" points="692,-109.2 692,-128.2 746,-128.2 746,-109.2 692,-109.2"/>
<polygon fill="none" stroke="#000000" points="692,-109.2 692,-128.2 746,-128.2 746,-109.2 692,-109.2"/>
<text text-anchor="start" x="736.8862" y="-115.3" font-family="Helvetica,sans-Serif" font-size="11.00" fill="#000000"> &#160;</text>
<polygon fill="#ffffff" stroke="transparent" points="746,-109.2 746,-128.2 813,-128.2 813,-109.2 746,-109.2"/>
<polygon fill="none" stroke="#000000" points="746,-109.2 746,-128.2 813,-128.2 813,-109.2 746,-109.2"/>
<text text-anchor="start" x="794.4053" y="-115.3" font-family="Helvetica,sans-Serif" font-size="11.00" fill="#000000">0 &gt;</text>
<polygon fill="none" stroke="#000000" stroke-width="2" points="628,-108.2 628,-328.2 814,-328.2 814,-108.2 628,-108.2"/>
</a>
</g>
</g>
<!-- groups -->
<g id="node2" class="node">
<title>groups</title>
<g id="a_node2"><a xlink:href="../../tables/groups.html" xlink:title="groups" target="_top">
<polygon fill="#ffffff" stroke="transparent" points="264.5,-38.2 264.5,-146.2 350.5,-146.2 350.5,-38.2 264.5,-38.2"/>
<polygon fill="#f5f5f5" stroke="transparent" points="264.5,-123.2 264.5,-146.2 350.5,-146.2 350.5,-123.2 264.5,-123.2"/>
<polygon fill="none" stroke="#000000" points="264.5,-123.2 264.5,-146.2 350.5,-146.2 350.5,-123.2 264.5,-123.2"/>
<text text-anchor="start" x="269.5" y="-131.8" font-family="Helvetica,sans-Serif" font-weight="bold" font-size="11.00" fill="#000000">groups</text>
<text text-anchor="start" x="316.0219" y="-131.3" font-family="Helvetica,sans-Serif" font-size="11.00" fill="#000000">[table]</text>
<polygon fill="none" stroke="#000000" points="264.5,-101.2 264.5,-123.2 350.5,-123.2 350.5,-101.2 264.5,-101.2"/>
<image xlink:href="../../images/primaryKeys.png" width="11px" height="12px" preserveAspectRatio="xMinYMin meet" x="269.5" y="-118.2"/>
<text text-anchor="start" x="293.5" y="-108.3" font-family="Helvetica,sans-Serif" font-size="11.00" fill="#000000">id</text>
<polygon fill="none" stroke="#000000" points="264.5,-79.2 264.5,-101.2 350.5,-101.2 350.5,-79.2 264.5,-79.2"/>
<image xlink:href="../../images/primaryKeys.png" width="11px" height="12px" preserveAspectRatio="xMinYMin meet" x="269.5" y="-96.2"/>
<text text-anchor="start" x="293.5" y="-86.3" font-family="Helvetica,sans-Serif" font-size="11.00" fill="#000000">name</text>
<polygon fill="none" stroke="#000000" points="264.5,-57.2 264.5,-79.2 350.5,-79.2 350.5,-57.2 264.5,-57.2"/>
<image xlink:href="../../images/foreignKeys.png" width="11px" height="12px" preserveAspectRatio="xMinYMin meet" x="269.5" y="-74.2"/>
<text text-anchor="start" x="293.5" y="-64.3" font-family="Helvetica,sans-Serif" font-size="11.00" fill="#000000">user</text>
<polygon fill="#ffffff" stroke="transparent" points="264.5,-38.2 264.5,-57.2 298.5,-57.2 298.5,-38.2 264.5,-38.2"/>
<polygon fill="none" stroke="#000000" points="264.5,-38.2 264.5,-57.2 298.5,-57.2 298.5,-38.2 264.5,-38.2"/>
<text text-anchor="start" x="267.5" y="-44.3" font-family="Helvetica,sans-Serif" font-size="11.00" fill="#000000">&lt; 1</text>
<polygon fill="#ffffff" stroke="transparent" points="298.5,-38.2 298.5,-57.2 316.5,-57.2 316.5,-38.2 298.5,-38.2"/>
<polygon fill="none" stroke="#000000" points="298.5,-38.2 298.5,-57.2 316.5,-57.2 316.5,-38.2 298.5,-38.2"/>
<text text-anchor="start" x="307.3862" y="-44.3" font-family="Helvetica,sans-Serif" font-size="11.00" fill="#000000"> &#160;</text>
<polygon fill="#ffffff" stroke="transparent" points="316.5,-38.2 316.5,-57.2 350.5,-57.2 350.5,-38.2 316.5,-38.2"/>
<polygon fill="none" stroke="#000000" points="316.5,-38.2 316.5,-57.2 350.5,-57.2 350.5,-38.2 316.5,-38.2"/>
<text text-anchor="start" x="325.7904" y="-44.3" font-family="Helvetica,sans-Serif" font-size="11.00" fill="#000000">17 &gt;</text>
</a>
</g>
</g>
<!-- form_painmap&#45;&gt;groups -->
<g id="edge1" class="edge">
<title>form_painmap:w&#45;&gt;groups:e</title>
<path fill="none" stroke="#000000" d="M615.1195,-201.135C601.6225,-190.6001 607.3176,-162.2578 586,-148.2 496.0109,-88.8572 458.2943,-90.2 350.5,-90.2"/>
<polygon fill="#000000" stroke="#000000" points="621.3225,-202.9516 627.9882,-208.6549 625.1612,-204.0758 629,-205.2 629,-205.2 629,-205.2 625.1612,-204.0758 630.0118,-201.7451 621.3225,-202.9516 621.3225,-202.9516"/>
<ellipse fill="none" stroke="#000000" cx="618.2514" cy="-202.0522" rx="3.2" ry="3.2"/>
</g>
<!-- forms -->
<g id="node3" class="node">
<title>forms</title>
<g id="a_node3"><a xlink:href="../../tables/forms.html" xlink:title="forms" target="_top">
<polygon fill="#ffffff" stroke="transparent" points="440,-182.7 440,-441.7 578,-441.7 578,-182.7 440,-182.7"/>
<polygon fill="#f5f5f5" stroke="transparent" points="440,-418.2 440,-441.2 578,-441.2 578,-418.2 440,-418.2"/>
<polygon fill="none" stroke="#000000" points="440,-418.2 440,-441.2 578,-441.2 578,-418.2 440,-418.2"/>
<text text-anchor="start" x="445" y="-426.8" font-family="Helvetica,sans-Serif" font-weight="bold" font-size="11.00" fill="#000000">forms</text>
<text text-anchor="start" x="543.0437" y="-426.3" font-family="Helvetica,sans-Serif" font-size="11.00" fill="#000000">[table]</text>
<polygon fill="none" stroke="#000000" points="440,-396.2 440,-418.2 578,-418.2 578,-396.2 440,-396.2"/>
<image xlink:href="../../images/primaryKeys.png" width="11px" height="12px" preserveAspectRatio="xMinYMin meet" x="445" y="-413.2"/>
<text text-anchor="start" x="460" y="-403.3" font-family="Helvetica,sans-Serif" font-size="11.00" fill="#000000">id</text>
<polygon fill="#ffffff" stroke="transparent" points="440,-374.2 440,-396.2 578,-396.2 578,-374.2 440,-374.2"/>
<polygon fill="none" stroke="#000000" points="440,-374.2 440,-396.2 578,-396.2 578,-374.2 440,-374.2"/>
<text text-anchor="start" x="460" y="-381.3" font-family="Helvetica,sans-Serif" font-size="11.00" fill="#000000">encounter</text>
<polygon fill="none" stroke="#000000" points="440,-352.2 440,-374.2 578,-374.2 578,-352.2 440,-352.2"/>
<image xlink:href="../../images/primaryKeys.png" width="11px" height="12px" preserveAspectRatio="xMinYMin meet" x="445" y="-369.2"/>
<text text-anchor="start" x="460" y="-359.3" font-family="Helvetica,sans-Serif" font-size="11.00" fill="#000000">form_id</text>
<polygon fill="#ffffff" stroke="transparent" points="440,-330.2 440,-352.2 578,-352.2 578,-330.2 440,-330.2"/>
<polygon fill="none" stroke="#000000" points="440,-330.2 440,-352.2 578,-352.2 578,-330.2 440,-330.2"/>
<image xlink:href="../../images/foreignKeys.png" width="11px" height="12px" preserveAspectRatio="xMinYMin meet" x="445" y="-347.2"/>
<text text-anchor="start" x="460" y="-337.3" font-family="Helvetica,sans-Serif" font-size="11.00" fill="#000000">pid</text>
<polygon fill="none" stroke="#000000" points="440,-308.2 440,-330.2 578,-330.2 578,-308.2 440,-308.2"/>
<image xlink:href="../../images/foreignKeys.png" width="11px" height="12px" preserveAspectRatio="xMinYMin meet" x="445" y="-325.2"/>
<text text-anchor="start" x="460" y="-315.3" font-family="Helvetica,sans-Serif" font-size="11.00" fill="#000000">user</text>
<polygon fill="none" stroke="#000000" points="440,-286.2 440,-308.2 578,-308.2 578,-286.2 440,-286.2"/>
<image xlink:href="../../images/foreignKeys.png" width="11px" height="12px" preserveAspectRatio="xMinYMin meet" x="445" y="-303.2"/>
<text text-anchor="start" x="460" y="-293.3" font-family="Helvetica,sans-Serif" font-size="11.00" fill="#000000">groupname</text>
<polygon fill="none" stroke="#000000" points="440,-264.2 440,-286.2 578,-286.2 578,-264.2 440,-264.2"/>
<image xlink:href="../../images/foreignKeys.png" width="11px" height="12px" preserveAspectRatio="xMinYMin meet" x="445" y="-281.2"/>
<text text-anchor="start" x="460" y="-271.3" font-family="Helvetica,sans-Serif" font-size="11.00" fill="#000000">therapy_group_id</text>
<polygon fill="none" stroke="#000000" points="440,-242.2 440,-264.2 578,-264.2 578,-242.2 440,-242.2"/>
<image xlink:href="../../images/foreignKeys.png" width="11px" height="12px" preserveAspectRatio="xMinYMin meet" x="445" y="-259.2"/>
<text text-anchor="start" x="460" y="-249.3" font-family="Helvetica,sans-Serif" font-size="11.00" fill="#000000">issue_id</text>
<polygon fill="none" stroke="#000000" points="440,-220.2 440,-242.2 578,-242.2 578,-220.2 440,-220.2"/>
<image xlink:href="../../images/foreignKeys.png" width="11px" height="12px" preserveAspectRatio="xMinYMin meet" x="445" y="-237.2"/>
<text text-anchor="start" x="460" y="-227.3" font-family="Helvetica,sans-Serif" font-size="11.00" fill="#000000">provider_id</text>
<polygon fill="none" stroke="#000000" points="440,-201.2 440,-220.2 578,-220.2 578,-201.2 440,-201.2"/>
<text text-anchor="start" x="443" y="-207.3" font-family="Helvetica,sans-Serif" font-size="11.00" fill="#000000">...</text>
<polygon fill="#ffffff" stroke="transparent" points="440,-182.2 440,-201.2 500,-201.2 500,-182.2 440,-182.2"/>
<polygon fill="none" stroke="#000000" points="440,-182.2 440,-201.2 500,-201.2 500,-182.2 440,-182.2"/>
<text text-anchor="start" x="443" y="-188.3" font-family="Helvetica,sans-Serif" font-size="11.00" fill="#000000">&lt; 6</text>
<polygon fill="#ffffff" stroke="transparent" points="500,-182.2 500,-201.2 531,-201.2 531,-182.2 500,-182.2"/>
<polygon fill="none" stroke="#000000" points="500,-182.2 500,-201.2 531,-201.2 531,-182.2 500,-182.2"/>
<text text-anchor="start" x="521.8862" y="-188.3" font-family="Helvetica,sans-Serif" font-size="11.00" fill="#000000"> &#160;</text>
<polygon fill="#ffffff" stroke="transparent" points="531,-182.2 531,-201.2 578,-201.2 578,-182.2 531,-182.2"/>
<polygon fill="none" stroke="#000000" points="531,-182.2 531,-201.2 578,-201.2 578,-182.2 531,-182.2"/>
<text text-anchor="start" x="553.2904" y="-188.3" font-family="Helvetica,sans-Serif" font-size="11.00" fill="#000000">13 &gt;</text>
</a>
</g>
</g>
<!-- form_painmap&#45;&gt;forms -->
<g id="edge2" class="edge">
<title>form_painmap:w&#45;&gt;forms:e</title>
<path fill="none" stroke="#000000" d="M618.8211,-295.3717C595.2714,-307.187 612.4328,-363.2 578,-363.2"/>
<polygon fill="#000000" stroke="#000000" points="627.3829,-289.455 629.0523,-297.2789 627.4875,-297.6128 625.8182,-289.7888 627.3829,-289.455"/>
<polyline fill="none" stroke="#000000" points="629,-293.2 625.088,-294.0347 "/>
<ellipse fill="none" stroke="#000000" cx="621.9585" cy="-294.7024" rx="3.2" ry="3.2"/>
</g>
<!-- patient_data -->
<g id="node4" class="node">
<title>patient_data</title>
<g id="a_node4"><a xlink:href="../../tables/patient_data.html" xlink:title="patient_data" target="_top">
<polygon fill="#ffffff" stroke="transparent" points="224,-271.7 224,-508.7 391,-508.7 391,-271.7 224,-271.7"/>
<polygon fill="#f5f5f5" stroke="transparent" points="224.5,-485.2 224.5,-508.2 391.5,-508.2 391.5,-485.2 224.5,-485.2"/>
<polygon fill="none" stroke="#000000" points="224.5,-485.2 224.5,-508.2 391.5,-508.2 391.5,-485.2 224.5,-485.2"/>
<text text-anchor="start" x="229.5" y="-493.8" font-family="Helvetica,sans-Serif" font-weight="bold" font-size="11.00" fill="#000000">patient_data</text>
<text text-anchor="start" x="356.5437" y="-493.3" font-family="Helvetica,sans-Serif" font-size="11.00" fill="#000000">[table]</text>
<polygon fill="#ffffff" stroke="transparent" points="224.5,-463.2 224.5,-485.2 391.5,-485.2 391.5,-463.2 224.5,-463.2"/>
<polygon fill="none" stroke="#000000" points="224.5,-463.2 224.5,-485.2 391.5,-485.2 391.5,-463.2 224.5,-463.2"/>
<text text-anchor="start" x="244.5" y="-470.3" font-family="Helvetica,sans-Serif" font-size="11.00" fill="#000000">id</text>
<polygon fill="#ffffff" stroke="transparent" points="224.5,-441.2 224.5,-463.2 391.5,-463.2 391.5,-441.2 224.5,-441.2"/>
<polygon fill="none" stroke="#000000" points="224.5,-441.2 224.5,-463.2 391.5,-463.2 391.5,-441.2 224.5,-441.2"/>
<text text-anchor="start" x="244.5" y="-448.3" font-family="Helvetica,sans-Serif" font-size="11.00" fill="#000000">uuid</text>
<polygon fill="none" stroke="#000000" points="224.5,-419.2 224.5,-441.2 391.5,-441.2 391.5,-419.2 224.5,-419.2"/>
<image xlink:href="../../images/foreignKeys.png" width="11px" height="12px" preserveAspectRatio="xMinYMin meet" x="229.5" y="-436.2"/>
<text text-anchor="start" x="244.5" y="-426.3" font-family="Helvetica,sans-Serif" font-size="11.00" fill="#000000">pharmacy_id</text>
<polygon fill="none" stroke="#000000" points="224.5,-397.2 224.5,-419.2 391.5,-419.2 391.5,-397.2 224.5,-397.2"/>
<image xlink:href="../../images/foreignKeys.png" width="11px" height="12px" preserveAspectRatio="xMinYMin meet" x="229.5" y="-414.2"/>
<text text-anchor="start" x="244.5" y="-404.3" font-family="Helvetica,sans-Serif" font-size="11.00" fill="#000000">providerID</text>
<polygon fill="none" stroke="#000000" points="224.5,-375.2 224.5,-397.2 391.5,-397.2 391.5,-375.2 224.5,-375.2"/>
<image xlink:href="../../images/foreignKeys.png" width="11px" height="12px" preserveAspectRatio="xMinYMin meet" x="229.5" y="-392.2"/>
<text text-anchor="start" x="244.5" y="-382.3" font-family="Helvetica,sans-Serif" font-size="11.00" fill="#000000">ref_providerID</text>
<polygon fill="none" stroke="#000000" points="224.5,-353.2 224.5,-375.2 391.5,-375.2 391.5,-353.2 224.5,-353.2"/>
<image xlink:href="../../images/primaryKeys.png" width="11px" height="12px" preserveAspectRatio="xMinYMin meet" x="229.5" y="-370.2"/>
<text text-anchor="start" x="244.5" y="-360.3" font-family="Helvetica,sans-Serif" font-size="11.00" fill="#000000">pid</text>
<polygon fill="none" stroke="#000000" points="224.5,-331.2 224.5,-353.2 391.5,-353.2 391.5,-331.2 224.5,-331.2"/>
<image xlink:href="../../images/foreignKeys.png" width="11px" height="12px" preserveAspectRatio="xMinYMin meet" x="229.5" y="-348.2"/>
<text text-anchor="start" x="244.5" y="-338.3" font-family="Helvetica,sans-Serif" font-size="11.00" fill="#000000">created_by</text>
<polygon fill="none" stroke="#000000" points="224.5,-309.2 224.5,-331.2 391.5,-331.2 391.5,-309.2 224.5,-309.2"/>
<image xlink:href="../../images/foreignKeys.png" width="11px" height="12px" preserveAspectRatio="xMinYMin meet" x="229.5" y="-326.2"/>
<text text-anchor="start" x="244.5" y="-316.3" font-family="Helvetica,sans-Serif" font-size="11.00" fill="#000000">updated_by</text>
<polygon fill="none" stroke="#000000" points="224.5,-290.2 224.5,-309.2 391.5,-309.2 391.5,-290.2 224.5,-290.2"/>
<text text-anchor="start" x="227.5" y="-296.3" font-family="Helvetica,sans-Serif" font-size="11.00" fill="#000000">...</text>
<polygon fill="#ffffff" stroke="transparent" points="224.5,-271.2 224.5,-290.2 298.5,-290.2 298.5,-271.2 224.5,-271.2"/>
<polygon fill="none" stroke="#000000" points="224.5,-271.2 224.5,-290.2 298.5,-290.2 298.5,-271.2 224.5,-271.2"/>
<text text-anchor="start" x="227.5" y="-277.3" font-family="Helvetica,sans-Serif" font-size="11.00" fill="#000000">&lt; 5</text>
<polygon fill="#ffffff" stroke="transparent" points="298.5,-271.2 298.5,-290.2 337.5,-290.2 337.5,-271.2 298.5,-271.2"/>
<polygon fill="none" stroke="#000000" points="298.5,-271.2 298.5,-290.2 337.5,-290.2 337.5,-271.2 298.5,-271.2"/>
<text text-anchor="start" x="328.3862" y="-277.3" font-family="Helvetica,sans-Serif" font-size="11.00" fill="#000000"> &#160;</text>
<polygon fill="#ffffff" stroke="transparent" points="337.5,-271.2 337.5,-290.2 391.5,-290.2 391.5,-271.2 337.5,-271.2"/>
<polygon fill="none" stroke="#000000" points="337.5,-271.2 337.5,-290.2 391.5,-290.2 391.5,-271.2 337.5,-271.2"/>
<text text-anchor="start" x="366.7904" y="-277.3" font-family="Helvetica,sans-Serif" font-size="11.00" fill="#000000">85 &gt;</text>
</a>
</g>
</g>
<!-- form_painmap&#45;&gt;patient_data -->
<g id="edge3" class="edge">
<title>form_painmap:w&#45;&gt;patient_data:e</title>
<path fill="none" stroke="#000000" d="M614.5019,-250.7425C550.7074,-266.4324 653.3129,-397.6519 586,-452.2 532.8238,-495.2922 489.6332,-489.1195 432,-452.2 395.7463,-428.9761 434.5544,-364.2 391.5,-364.2"/>
<polygon fill="#000000" stroke="#000000" points="621.0449,-250.0464 629.3809,-252.7798 625.0224,-249.6232 629,-249.2 629,-249.2 629,-249.2 625.0224,-249.6232 628.6191,-245.6202 621.0449,-250.0464 621.0449,-250.0464"/>
<ellipse fill="none" stroke="#000000" cx="617.8629" cy="-250.385" rx="3.2" ry="3.2"/>
</g>
<!-- users -->
<g id="node5" class="node">
<title>users</title>
<g id="a_node5"><a xlink:href="../../tables/users.html" xlink:title="users" target="_top">
<polygon fill="#ffffff" stroke="transparent" points="8,-124.7 8,-339.7 175,-339.7 175,-124.7 8,-124.7"/>
<polygon fill="#f5f5f5" stroke="transparent" points="8.5,-316.2 8.5,-339.2 175.5,-339.2 175.5,-316.2 8.5,-316.2"/>
<polygon fill="none" stroke="#000000" points="8.5,-316.2 8.5,-339.2 175.5,-339.2 175.5,-316.2 8.5,-316.2"/>
<text text-anchor="start" x="13.5" y="-324.8" font-family="Helvetica,sans-Serif" font-weight="bold" font-size="11.00" fill="#000000">users</text>
<text text-anchor="start" x="140.5437" y="-324.3" font-family="Helvetica,sans-Serif" font-size="11.00" fill="#000000">[table]</text>
<polygon fill="none" stroke="#000000" points="8.5,-294.2 8.5,-316.2 175.5,-316.2 175.5,-294.2 8.5,-294.2"/>
<image xlink:href="../../images/primaryKeys.png" width="11px" height="12px" preserveAspectRatio="xMinYMin meet" x="13.5" y="-311.2"/>
<text text-anchor="start" x="28.5" y="-301.3" font-family="Helvetica,sans-Serif" font-size="11.00" fill="#000000">id</text>
<polygon fill="#ffffff" stroke="transparent" points="8.5,-272.2 8.5,-294.2 175.5,-294.2 175.5,-272.2 8.5,-272.2"/>
<polygon fill="none" stroke="#000000" points="8.5,-272.2 8.5,-294.2 175.5,-294.2 175.5,-272.2 8.5,-272.2"/>
<text text-anchor="start" x="28.5" y="-279.3" font-family="Helvetica,sans-Serif" font-size="11.00" fill="#000000">uuid</text>
<polygon fill="none" stroke="#000000" points="8.5,-250.2 8.5,-272.2 175.5,-272.2 175.5,-250.2 8.5,-250.2"/>
<image xlink:href="../../images/primaryKeys.png" width="11px" height="12px" preserveAspectRatio="xMinYMin meet" x="13.5" y="-267.2"/>
<text text-anchor="start" x="28.5" y="-257.3" font-family="Helvetica,sans-Serif" font-size="11.00" fill="#000000">username</text>
<polygon fill="none" stroke="#000000" points="8.5,-228.2 8.5,-250.2 175.5,-250.2 175.5,-228.2 8.5,-228.2"/>
<image xlink:href="../../images/foreignKeys.png" width="11px" height="12px" preserveAspectRatio="xMinYMin meet" x="13.5" y="-245.2"/>
<text text-anchor="start" x="28.5" y="-235.3" font-family="Helvetica,sans-Serif" font-size="11.00" fill="#000000">facility_id</text>
<polygon fill="#ffffff" stroke="transparent" points="8.5,-206.2 8.5,-228.2 175.5,-228.2 175.5,-206.2 8.5,-206.2"/>
<polygon fill="none" stroke="#000000" points="8.5,-206.2 8.5,-228.2 175.5,-228.2 175.5,-206.2 8.5,-206.2"/>
<text text-anchor="start" x="28.5" y="-213.3" font-family="Helvetica,sans-Serif" font-size="11.00" fill="#000000">google_signin_email</text>
<polygon fill="#ffffff" stroke="transparent" points="8.5,-184.2 8.5,-206.2 175.5,-206.2 175.5,-184.2 8.5,-184.2"/>
<polygon fill="none" stroke="#000000" points="8.5,-184.2 8.5,-206.2 175.5,-206.2 175.5,-184.2 8.5,-184.2"/>
<text text-anchor="start" x="28.5" y="-191.3" font-family="Helvetica,sans-Serif" font-size="11.00" fill="#000000">abook_type</text>
<polygon fill="none" stroke="#000000" points="8.5,-162.2 8.5,-184.2 175.5,-184.2 175.5,-162.2 8.5,-162.2"/>
<image xlink:href="../../images/foreignKeys.png" width="11px" height="12px" preserveAspectRatio="xMinYMin meet" x="13.5" y="-179.2"/>
<text text-anchor="start" x="28.5" y="-169.3" font-family="Helvetica,sans-Serif" font-size="11.00" fill="#000000">billing_facility_id</text>
<polygon fill="none" stroke="#000000" points="8.5,-143.2 8.5,-162.2 175.5,-162.2 175.5,-143.2 8.5,-143.2"/>
<text text-anchor="start" x="11.5" y="-149.3" font-family="Helvetica,sans-Serif" font-size="11.00" fill="#000000">...</text>
<polygon fill="#ffffff" stroke="transparent" points="8.5,-124.2 8.5,-143.2 82.5,-143.2 82.5,-124.2 8.5,-124.2"/>
<polygon fill="none" stroke="#000000" points="8.5,-124.2 8.5,-143.2 82.5,-143.2 82.5,-124.2 8.5,-124.2"/>
<text text-anchor="start" x="11.5" y="-130.3" font-family="Helvetica,sans-Serif" font-size="11.00" fill="#000000">&lt; 2</text>
<polygon fill="#ffffff" stroke="transparent" points="82.5,-124.2 82.5,-143.2 121.5,-143.2 121.5,-124.2 82.5,-124.2"/>
<polygon fill="none" stroke="#000000" points="82.5,-124.2 82.5,-143.2 121.5,-143.2 121.5,-124.2 82.5,-124.2"/>
<text text-anchor="start" x="112.3862" y="-130.3" font-family="Helvetica,sans-Serif" font-size="11.00" fill="#000000"> &#160;</text>
<polygon fill="#ffffff" stroke="transparent" points="121.5,-124.2 121.5,-143.2 175.5,-143.2 175.5,-124.2 121.5,-124.2"/>
<polygon fill="none" stroke="#000000" points="121.5,-124.2 121.5,-143.2 175.5,-143.2 175.5,-124.2 121.5,-124.2"/>
<text text-anchor="start" x="150.7904" y="-130.3" font-family="Helvetica,sans-Serif" font-size="11.00" fill="#000000">61 &gt;</text>
</a>
</g>
</g>
<!-- form_painmap&#45;&gt;users -->
<g id="edge4" class="edge">
<title>form_painmap:w&#45;&gt;users:e</title>
<path fill="none" stroke="#000000" d="M615.1425,-222.6552C602.631,-211.5274 608.2252,-183.0354 586,-172.2 511.7044,-135.9788 280.7363,-158.8093 216,-210.2 180.0513,-238.7378 221.399,-305.2 175.5,-305.2"/>
<polygon fill="#000000" stroke="#000000" points="621.3984,-224.7069 627.8781,-230.6207 625.1992,-225.9534 629,-227.2 629,-227.2 629,-227.2 625.1992,-225.9534 630.1219,-223.7793 621.3984,-224.7069 621.3984,-224.7069"/>
<ellipse fill="none" stroke="#000000" cx="618.3577" cy="-223.7097" rx="3.2" ry="3.2"/>
</g>
<!-- groups&#45;&gt;users -->
<g id="edge9" class="edge">
<title>groups:w&#45;&gt;users:e</title>
<path fill="none" stroke="#000000" d="M249.941,-70.4324C221.9885,-80.5855 232.9799,-123.492 216,-160.2 195.6958,-204.0948 223.8633,-261.2 175.5,-261.2"/>
<polygon fill="#000000" stroke="#000000" points="256.5924,-69.4126 265.0457,-71.7584 260.5462,-68.8063 264.5,-68.2 264.5,-68.2 264.5,-68.2 260.5462,-68.8063 263.9543,-64.6416 256.5924,-69.4126 256.5924,-69.4126"/>
<ellipse fill="none" stroke="#000000" cx="253.4294" cy="-69.8976" rx="3.2" ry="3.2"/>
</g>
<!-- forms&#45;&gt;groups -->
<g id="edge5" class="edge">
<title>forms:w&#45;&gt;groups:e</title>
<path fill="none" stroke="#000000" d="M429.325,-287.216C404.7334,-245.8669 372.2298,-90.2 350.5,-90.2"/>
<polygon fill="#000000" stroke="#000000" points="434.1572,-291.7354 437.5409,-299.8293 437.0786,-294.4677 440,-297.2 440,-297.2 440,-297.2 437.0786,-294.4677 442.4591,-294.5707 434.1572,-291.7354 434.1572,-291.7354"/>
<ellipse fill="none" stroke="#000000" cx="431.8201" cy="-289.5495" rx="3.2" ry="3.2"/>
</g>
<!-- forms&#45;&gt;patient_data -->
<g id="edge6" class="edge">
<title>forms:w&#45;&gt;patient_data:e</title>
<path fill="none" stroke="#000000" d="M425.7122,-344.7938C414.3081,-351.2625 409.3924,-364.2 391.5,-364.2"/>
<polygon fill="#000000" stroke="#000000" points="432.2417,-343.1515 440.8782,-344.6913 436.1208,-342.1757 440,-341.2 440,-341.2 440,-341.2 436.1208,-342.1757 439.1218,-337.7087 432.2417,-343.1515 432.2417,-343.1515"/>
<ellipse fill="none" stroke="#000000" cx="429.1383" cy="-343.9321" rx="3.2" ry="3.2"/>
</g>
<!-- forms&#45;&gt;users -->
<g id="edge7" class="edge">
<title>forms:w&#45;&gt;users:e</title>
<path fill="none" stroke="#000000" d="M425.5609,-230.887C336.457,-227.0159 297.6387,-189.3442 216,-237.2 185.6531,-254.989 210.6765,-305.2 175.5,-305.2"/>
<polygon fill="#000000" stroke="#000000" points="432.0019,-231.0266 439.922,-234.7992 436.0009,-231.1133 440,-231.2 440,-231.2 440,-231.2 436.0009,-231.1133 440.078,-227.6008 432.0019,-231.0266 432.0019,-231.0266"/>
<ellipse fill="none" stroke="#000000" cx="428.8026" cy="-230.9572" rx="3.2" ry="3.2"/>
</g>
<!-- forms&#45;&gt;users -->
<g id="edge8" class="edge">
<title>forms:w&#45;&gt;users:e</title>
<path fill="none" stroke="#000000" d="M426.1619,-314.4246C414.0647,-302.7291 421.3394,-272.7657 399,-261.2 310.7879,-215.5302 274.8333,-261.2 175.5,-261.2"/>
<polygon fill="#000000" stroke="#000000" points="432.4376,-316.5903 438.8256,-322.6031 436.2188,-317.8951 440,-319.2 440,-319.2 440,-319.2 436.2188,-317.8951 441.1744,-315.7969 432.4376,-316.5903 432.4376,-316.5903"/>
<ellipse fill="none" stroke="#000000" cx="429.4127" cy="-315.5464" rx="3.2" ry="3.2"/>
</g>
<!-- patient_data&#45;&gt;users -->
<g id="edge10" class="edge">
<title>patient_data:w&#45;&gt;users:e</title>
<path fill="none" stroke="#000000" d="M210.6217,-337.6631C198.0786,-327.783 196.8196,-305.2 175.5,-305.2"/>
<polygon fill="#000000" stroke="#000000" points="216.896,-339.7142 223.3814,-345.6218 220.698,-340.9571 224.5,-342.2 224.5,-342.2 224.5,-342.2 220.698,-340.9571 225.6186,-338.7782 216.896,-339.7142 216.896,-339.7142"/>
<ellipse fill="none" stroke="#000000" cx="213.8544" cy="-338.7198" rx="3.2" ry="3.2"/>
</g>
<!-- patient_data&#45;&gt;users -->
<g id="edge11" class="edge">
<title>patient_data:w&#45;&gt;users:e</title>
<path fill="none" stroke="#000000" d="M210.593,-404.2881C184.6689,-385.4739 220.2533,-305.2 175.5,-305.2"/>
<polygon fill="#000000" stroke="#000000" points="216.7989,-406.0337 223.5252,-411.6655 220.6494,-407.1168 224.5,-408.2 224.5,-408.2 224.5,-408.2 220.6494,-407.1168 225.4748,-404.7345 216.7989,-406.0337 216.7989,-406.0337"/>
<ellipse fill="none" stroke="#000000" cx="213.7184" cy="-405.1672" rx="3.2" ry="3.2"/>
</g>
<!-- patient_data&#45;&gt;users -->
<g id="edge12" class="edge">
<title>patient_data:w&#45;&gt;users:e</title>
<path fill="none" stroke="#000000" d="M210.6299,-381.613C190.9726,-364.478 211.4935,-305.2 175.5,-305.2"/>
<polygon fill="#000000" stroke="#000000" points="216.9046,-383.6881 223.3696,-389.6179 220.7023,-384.944 224.5,-386.2 224.5,-386.2 224.5,-386.2 220.7023,-384.944 225.6304,-382.7821 216.9046,-383.6881 216.9046,-383.6881"/>
<ellipse fill="none" stroke="#000000" cx="213.8664" cy="-382.6833" rx="3.2" ry="3.2"/>
</g>
<!-- patient_data&#45;&gt;users -->
<g id="edge13" class="edge">
<title>patient_data:w&#45;&gt;users:e</title>
<path fill="none" stroke="#000000" d="M210.076,-317.7231C198.6616,-313.4626 192.4036,-305.2 175.5,-305.2"/>
<polygon fill="#000000" stroke="#000000" points="216.6154,-318.846 223.8907,-323.7481 220.5577,-319.523 224.5,-320.2 224.5,-320.2 224.5,-320.2 220.5577,-319.523 225.1093,-316.6519 216.6154,-318.846 216.6154,-318.846"/>
<ellipse fill="none" stroke="#000000" cx="213.4616" cy="-318.3044" rx="3.2" ry="3.2"/>
</g>
</g>
</svg>
