<?xml version="1.0" encoding="UTF-8" standalone="no"?>
<!DOCTYPE svg PUBLIC "-//W3C//DTD SVG 1.1//EN"
 "http://www.w3.org/Graphics/SVG/1.1/DTD/svg11.dtd">
<!-- Generated by graphviz version 2.40.1 (20161225.0304)
 -->
<!-- Title: oneDegreeRelationshipsDiagram Pages: 1 -->
<svg width="683pt" height="414pt"
 viewBox="0.00 0.00 683.00 413.70" xmlns="http://www.w3.org/2000/svg" xmlns:xlink="http://www.w3.org/1999/xlink">
<g id="graph0" class="graph" transform="scale(1 1) rotate(0) translate(4 409.7)">
<title>oneDegreeRelationshipsDiagram</title>
<polygon fill="#ffffff" stroke="transparent" points="-4,4 -4,-409.7 679,-409.7 679,4 -4,4"/>
<text text-anchor="middle" x="72.4936" y="-7.3" font-family="Helvetica,sans-Serif" font-size="11.00" fill="#000000">Generated by SchemaSpy</text>
<!-- form_note -->
<g id="node1" class="node">
<title>form_note</title>
<g id="a_node1"><a xlink:href="../../tables/form_note.html" xlink:title="form_note" target="_top">
<polygon fill="#ffffff" stroke="transparent" points="411,-38.2 411,-326.2 667,-326.2 667,-38.2 411,-38.2"/>
<polygon fill="#f5f5f5" stroke="transparent" points="413,-301.2 413,-324.2 665,-324.2 665,-301.2 413,-301.2"/>
<polygon fill="none" stroke="#000000" points="413,-301.2 413,-324.2 665,-324.2 665,-301.2 413,-301.2"/>
<text text-anchor="start" x="418" y="-309.8" font-family="Helvetica,sans-Serif" font-weight="bold" font-size="11.00" fill="#000000">form_note</text>
<text text-anchor="start" x="630.0437" y="-309.3" font-family="Helvetica,sans-Serif" font-size="11.00" fill="#000000">[table]</text>
<polygon fill="none" stroke="#000000" points="413,-279.2 413,-301.2 554,-301.2 554,-279.2 413,-279.2"/>
<image xlink:href="../../images/primaryKeys.png" width="11px" height="12px" preserveAspectRatio="xMinYMin meet" x="418" y="-296.2"/>
<text text-anchor="start" x="433" y="-286.3" font-family="Helvetica,sans-Serif" font-size="11.00" fill="#000000">id</text>
<polygon fill="none" stroke="#000000" points="554,-279.2 554,-301.2 665,-301.2 665,-279.2 554,-279.2"/>
<text text-anchor="start" x="557" y="-286.9" font-family="Helvetica,sans-Serif" font-size="11.00" fill="#000000">bigint[19]</text>
<polygon fill="none" stroke="#000000" points="413,-257.2 413,-279.2 554,-279.2 554,-257.2 413,-257.2"/>
<text text-anchor="start" x="433" y="-264.3" font-family="Helvetica,sans-Serif" font-size="11.00" fill="#000000">date</text>
<polygon fill="none" stroke="#000000" points="554,-257.2 554,-279.2 665,-279.2 665,-257.2 554,-257.2"/>
<text text-anchor="start" x="557" y="-264.9" font-family="Helvetica,sans-Serif" font-size="11.00" fill="#000000">datetime[19]</text>
<polygon fill="none" stroke="#000000" points="413,-235.2 413,-257.2 554,-257.2 554,-235.2 413,-235.2"/>
<image xlink:href="../../images/foreignKeys.png" width="11px" height="12px" preserveAspectRatio="xMinYMin meet" x="418" y="-252.2"/>
<text text-anchor="start" x="433" y="-242.3" font-family="Helvetica,sans-Serif" font-size="11.00" fill="#000000">pid</text>
<polygon fill="none" stroke="#000000" points="554,-235.2 554,-257.2 665,-257.2 665,-235.2 554,-235.2"/>
<text text-anchor="start" x="557" y="-242.9" font-family="Helvetica,sans-Serif" font-size="11.00" fill="#000000">bigint[19]</text>
<polygon fill="none" stroke="#000000" points="413,-213.2 413,-235.2 554,-235.2 554,-213.2 413,-213.2"/>
<text text-anchor="start" x="433" y="-220.3" font-family="Helvetica,sans-Serif" font-size="11.00" fill="#000000">user</text>
<polygon fill="none" stroke="#000000" points="554,-213.2 554,-235.2 665,-235.2 665,-213.2 554,-213.2"/>
<text text-anchor="start" x="557" y="-220.9" font-family="Helvetica,sans-Serif" font-size="11.00" fill="#000000">varchar[255]</text>
<polygon fill="none" stroke="#000000" points="413,-191.2 413,-213.2 554,-213.2 554,-191.2 413,-191.2"/>
<text text-anchor="start" x="433" y="-198.3" font-family="Helvetica,sans-Serif" font-size="11.00" fill="#000000">groupname</text>
<polygon fill="none" stroke="#000000" points="554,-191.2 554,-213.2 665,-213.2 665,-191.2 554,-191.2"/>
<text text-anchor="start" x="557" y="-198.9" font-family="Helvetica,sans-Serif" font-size="11.00" fill="#000000">varchar[255]</text>
<polygon fill="none" stroke="#000000" points="413,-169.2 413,-191.2 554,-191.2 554,-169.2 413,-169.2"/>
<text text-anchor="start" x="433" y="-176.3" font-family="Helvetica,sans-Serif" font-size="11.00" fill="#000000">authorized</text>
<polygon fill="none" stroke="#000000" points="554,-169.2 554,-191.2 665,-191.2 665,-169.2 554,-169.2"/>
<text text-anchor="start" x="557" y="-176.9" font-family="Helvetica,sans-Serif" font-size="11.00" fill="#000000">tinyint[3]</text>
<polygon fill="none" stroke="#000000" points="413,-147.2 413,-169.2 554,-169.2 554,-147.2 413,-147.2"/>
<text text-anchor="start" x="433" y="-154.3" font-family="Helvetica,sans-Serif" font-size="11.00" fill="#000000">activity</text>
<polygon fill="none" stroke="#000000" points="554,-147.2 554,-169.2 665,-169.2 665,-147.2 554,-147.2"/>
<text text-anchor="start" x="557" y="-154.9" font-family="Helvetica,sans-Serif" font-size="11.00" fill="#000000">tinyint[3]</text>
<polygon fill="none" stroke="#000000" points="413,-125.2 413,-147.2 554,-147.2 554,-125.2 413,-125.2"/>
<text text-anchor="start" x="433" y="-132.3" font-family="Helvetica,sans-Serif" font-size="11.00" fill="#000000">note_type</text>
<polygon fill="none" stroke="#000000" points="554,-125.2 554,-147.2 665,-147.2 665,-125.2 554,-125.2"/>
<text text-anchor="start" x="557" y="-132.9" font-family="Helvetica,sans-Serif" font-size="11.00" fill="#000000">varchar[255]</text>
<polygon fill="none" stroke="#000000" points="413,-103.2 413,-125.2 554,-125.2 554,-103.2 413,-103.2"/>
<text text-anchor="start" x="433" y="-110.3" font-family="Helvetica,sans-Serif" font-size="11.00" fill="#000000">message</text>
<polygon fill="none" stroke="#000000" points="554,-103.2 554,-125.2 665,-125.2 665,-103.2 554,-103.2"/>
<text text-anchor="start" x="556.6115" y="-110.9" font-family="Helvetica,sans-Serif" font-size="11.00" fill="#000000">longtext[2147483647]</text>
<polygon fill="none" stroke="#000000" points="413,-81.2 413,-103.2 554,-103.2 554,-81.2 413,-81.2"/>
<text text-anchor="start" x="433" y="-88.3" font-family="Helvetica,sans-Serif" font-size="11.00" fill="#000000">doctor</text>
<polygon fill="none" stroke="#000000" points="554,-81.2 554,-103.2 665,-103.2 665,-81.2 554,-81.2"/>
<text text-anchor="start" x="557" y="-88.9" font-family="Helvetica,sans-Serif" font-size="11.00" fill="#000000">varchar[255]</text>
<polygon fill="none" stroke="#000000" points="413,-59.2 413,-81.2 554,-81.2 554,-59.2 413,-59.2"/>
<text text-anchor="start" x="433" y="-66.3" font-family="Helvetica,sans-Serif" font-size="11.00" fill="#000000">date_of_signature</text>
<polygon fill="none" stroke="#000000" points="554,-59.2 554,-81.2 665,-81.2 665,-59.2 554,-59.2"/>
<text text-anchor="start" x="557" y="-66.9" font-family="Helvetica,sans-Serif" font-size="11.00" fill="#000000">datetime[19]</text>
<polygon fill="#ffffff" stroke="transparent" points="413,-40.2 413,-59.2 488,-59.2 488,-40.2 413,-40.2"/>
<polygon fill="none" stroke="#000000" points="413,-40.2 413,-59.2 488,-59.2 488,-40.2 413,-40.2"/>
<text text-anchor="start" x="416" y="-46.3" font-family="Helvetica,sans-Serif" font-size="11.00" fill="#000000">&lt; 2</text>
<polygon fill="#ffffff" stroke="transparent" points="488,-40.2 488,-59.2 554,-59.2 554,-40.2 488,-40.2"/>
<polygon fill="none" stroke="#000000" points="488,-40.2 488,-59.2 554,-59.2 554,-40.2 488,-40.2"/>
<text text-anchor="start" x="544.8862" y="-46.3" font-family="Helvetica,sans-Serif" font-size="11.00" fill="#000000"> &#160;</text>
<polygon fill="#ffffff" stroke="transparent" points="554,-40.2 554,-59.2 665,-59.2 665,-40.2 554,-40.2"/>
<polygon fill="none" stroke="#000000" points="554,-40.2 554,-59.2 665,-59.2 665,-40.2 554,-40.2"/>
<text text-anchor="start" x="646.4053" y="-46.3" font-family="Helvetica,sans-Serif" font-size="11.00" fill="#000000">0 &gt;</text>
<polygon fill="none" stroke="#000000" stroke-width="2" points="412,-39.2 412,-325.2 666,-325.2 666,-39.2 412,-39.2"/>
</a>
</g>
</g>
<!-- forms -->
<g id="node2" class="node">
<title>forms</title>
<g id="a_node2"><a xlink:href="../../tables/forms.html" xlink:title="forms" target="_top">
<polygon fill="#ffffff" stroke="transparent" points="224,-245.7 224,-394.7 362,-394.7 362,-245.7 224,-245.7"/>
<polygon fill="#f5f5f5" stroke="transparent" points="224,-371.2 224,-394.2 362,-394.2 362,-371.2 224,-371.2"/>
<polygon fill="none" stroke="#000000" points="224,-371.2 224,-394.2 362,-394.2 362,-371.2 224,-371.2"/>
<text text-anchor="start" x="229" y="-379.8" font-family="Helvetica,sans-Serif" font-weight="bold" font-size="11.00" fill="#000000">forms</text>
<text text-anchor="start" x="327.0437" y="-379.3" font-family="Helvetica,sans-Serif" font-size="11.00" fill="#000000">[table]</text>
<polygon fill="none" stroke="#000000" points="224,-349.2 224,-371.2 362,-371.2 362,-349.2 224,-349.2"/>
<image xlink:href="../../images/primaryKeys.png" width="11px" height="12px" preserveAspectRatio="xMinYMin meet" x="229" y="-366.2"/>
<text text-anchor="start" x="244" y="-356.3" font-family="Helvetica,sans-Serif" font-size="11.00" fill="#000000">id</text>
<polygon fill="#ffffff" stroke="transparent" points="224,-327.2 224,-349.2 362,-349.2 362,-327.2 224,-327.2"/>
<polygon fill="none" stroke="#000000" points="224,-327.2 224,-349.2 362,-349.2 362,-327.2 224,-327.2"/>
<text text-anchor="start" x="244" y="-334.3" font-family="Helvetica,sans-Serif" font-size="11.00" fill="#000000">encounter</text>
<polygon fill="none" stroke="#000000" points="224,-305.2 224,-327.2 362,-327.2 362,-305.2 224,-305.2"/>
<image xlink:href="../../images/primaryKeys.png" width="11px" height="12px" preserveAspectRatio="xMinYMin meet" x="229" y="-322.2"/>
<text text-anchor="start" x="244" y="-312.3" font-family="Helvetica,sans-Serif" font-size="11.00" fill="#000000">form_id</text>
<polygon fill="#ffffff" stroke="transparent" points="224,-283.2 224,-305.2 362,-305.2 362,-283.2 224,-283.2"/>
<polygon fill="none" stroke="#000000" points="224,-283.2 224,-305.2 362,-305.2 362,-283.2 224,-283.2"/>
<image xlink:href="../../images/foreignKeys.png" width="11px" height="12px" preserveAspectRatio="xMinYMin meet" x="229" y="-300.2"/>
<text text-anchor="start" x="244" y="-290.3" font-family="Helvetica,sans-Serif" font-size="11.00" fill="#000000">pid</text>
<polygon fill="none" stroke="#000000" points="224,-264.2 224,-283.2 362,-283.2 362,-264.2 224,-264.2"/>
<text text-anchor="start" x="227" y="-270.3" font-family="Helvetica,sans-Serif" font-size="11.00" fill="#000000">...</text>
<polygon fill="#ffffff" stroke="transparent" points="224,-245.2 224,-264.2 284,-264.2 284,-245.2 224,-245.2"/>
<polygon fill="none" stroke="#000000" points="224,-245.2 224,-264.2 284,-264.2 284,-245.2 224,-245.2"/>
<text text-anchor="start" x="227" y="-251.3" font-family="Helvetica,sans-Serif" font-size="11.00" fill="#000000">&lt; 1</text>
<polygon fill="#ffffff" stroke="transparent" points="284,-245.2 284,-264.2 315,-264.2 315,-245.2 284,-245.2"/>
<polygon fill="none" stroke="#000000" points="284,-245.2 284,-264.2 315,-264.2 315,-245.2 284,-245.2"/>
<text text-anchor="start" x="305.8862" y="-251.3" font-family="Helvetica,sans-Serif" font-size="11.00" fill="#000000"> &#160;</text>
<polygon fill="#ffffff" stroke="transparent" points="315,-245.2 315,-264.2 362,-264.2 362,-245.2 315,-245.2"/>
<polygon fill="none" stroke="#000000" points="315,-245.2 315,-264.2 362,-264.2 362,-245.2 315,-245.2"/>
<text text-anchor="start" x="337.2904" y="-251.3" font-family="Helvetica,sans-Serif" font-size="11.00" fill="#000000">10 &gt;</text>
</a>
</g>
</g>
<!-- form_note&#45;&gt;forms -->
<g id="edge1" class="edge">
<title>form_note:w&#45;&gt;forms:e</title>
<path fill="none" stroke="#000000" d="M402.7357,-291.9059C386.9033,-297.6902 383.4669,-316.2 362,-316.2"/>
<polygon fill="#000000" stroke="#000000" points="411.555,-286.3853 412.8667,-294.277 411.2883,-294.5394 409.9766,-286.6476 411.555,-286.3853"/>
<polyline fill="none" stroke="#000000" points="413,-290.2 409.0541,-290.8558 "/>
<ellipse fill="none" stroke="#000000" cx="405.8974" cy="-291.3805" rx="3.2" ry="3.2"/>
</g>
<!-- patient_data -->
<g id="node3" class="node">
<title>patient_data</title>
<g id="a_node3"><a xlink:href="../../tables/patient_data.html" xlink:title="patient_data" target="_top">
<polygon fill="#ffffff" stroke="transparent" points="8,-164.7 8,-401.7 175,-401.7 175,-164.7 8,-164.7"/>
<polygon fill="#f5f5f5" stroke="transparent" points="8.5,-378.2 8.5,-401.2 175.5,-401.2 175.5,-378.2 8.5,-378.2"/>
<polygon fill="none" stroke="#000000" points="8.5,-378.2 8.5,-401.2 175.5,-401.2 175.5,-378.2 8.5,-378.2"/>
<text text-anchor="start" x="13.5" y="-386.8" font-family="Helvetica,sans-Serif" font-weight="bold" font-size="11.00" fill="#000000">patient_data</text>
<text text-anchor="start" x="140.5437" y="-386.3" font-family="Helvetica,sans-Serif" font-size="11.00" fill="#000000">[table]</text>
<polygon fill="#ffffff" stroke="transparent" points="8.5,-356.2 8.5,-378.2 175.5,-378.2 175.5,-356.2 8.5,-356.2"/>
<polygon fill="none" stroke="#000000" points="8.5,-356.2 8.5,-378.2 175.5,-378.2 175.5,-356.2 8.5,-356.2"/>
<text text-anchor="start" x="28.5" y="-363.3" font-family="Helvetica,sans-Serif" font-size="11.00" fill="#000000">id</text>
<polygon fill="#ffffff" stroke="transparent" points="8.5,-334.2 8.5,-356.2 175.5,-356.2 175.5,-334.2 8.5,-334.2"/>
<polygon fill="none" stroke="#000000" points="8.5,-334.2 8.5,-356.2 175.5,-356.2 175.5,-334.2 8.5,-334.2"/>
<text text-anchor="start" x="28.5" y="-341.3" font-family="Helvetica,sans-Serif" font-size="11.00" fill="#000000">uuid</text>
<polygon fill="none" stroke="#000000" points="8.5,-312.2 8.5,-334.2 175.5,-334.2 175.5,-312.2 8.5,-312.2"/>
<image xlink:href="../../images/foreignKeys.png" width="11px" height="12px" preserveAspectRatio="xMinYMin meet" x="13.5" y="-329.2"/>
<text text-anchor="start" x="28.5" y="-319.3" font-family="Helvetica,sans-Serif" font-size="11.00" fill="#000000">pharmacy_id</text>
<polygon fill="none" stroke="#000000" points="8.5,-290.2 8.5,-312.2 175.5,-312.2 175.5,-290.2 8.5,-290.2"/>
<image xlink:href="../../images/foreignKeys.png" width="11px" height="12px" preserveAspectRatio="xMinYMin meet" x="13.5" y="-307.2"/>
<text text-anchor="start" x="28.5" y="-297.3" font-family="Helvetica,sans-Serif" font-size="11.00" fill="#000000">providerID</text>
<polygon fill="none" stroke="#000000" points="8.5,-268.2 8.5,-290.2 175.5,-290.2 175.5,-268.2 8.5,-268.2"/>
<image xlink:href="../../images/foreignKeys.png" width="11px" height="12px" preserveAspectRatio="xMinYMin meet" x="13.5" y="-285.2"/>
<text text-anchor="start" x="28.5" y="-275.3" font-family="Helvetica,sans-Serif" font-size="11.00" fill="#000000">ref_providerID</text>
<polygon fill="none" stroke="#000000" points="8.5,-246.2 8.5,-268.2 175.5,-268.2 175.5,-246.2 8.5,-246.2"/>
<image xlink:href="../../images/primaryKeys.png" width="11px" height="12px" preserveAspectRatio="xMinYMin meet" x="13.5" y="-263.2"/>
<text text-anchor="start" x="28.5" y="-253.3" font-family="Helvetica,sans-Serif" font-size="11.00" fill="#000000">pid</text>
<polygon fill="none" stroke="#000000" points="8.5,-224.2 8.5,-246.2 175.5,-246.2 175.5,-224.2 8.5,-224.2"/>
<image xlink:href="../../images/foreignKeys.png" width="11px" height="12px" preserveAspectRatio="xMinYMin meet" x="13.5" y="-241.2"/>
<text text-anchor="start" x="28.5" y="-231.3" font-family="Helvetica,sans-Serif" font-size="11.00" fill="#000000">created_by</text>
<polygon fill="none" stroke="#000000" points="8.5,-202.2 8.5,-224.2 175.5,-224.2 175.5,-202.2 8.5,-202.2"/>
<image xlink:href="../../images/foreignKeys.png" width="11px" height="12px" preserveAspectRatio="xMinYMin meet" x="13.5" y="-219.2"/>
<text text-anchor="start" x="28.5" y="-209.3" font-family="Helvetica,sans-Serif" font-size="11.00" fill="#000000">updated_by</text>
<polygon fill="none" stroke="#000000" points="8.5,-183.2 8.5,-202.2 175.5,-202.2 175.5,-183.2 8.5,-183.2"/>
<text text-anchor="start" x="11.5" y="-189.3" font-family="Helvetica,sans-Serif" font-size="11.00" fill="#000000">...</text>
<polygon fill="#ffffff" stroke="transparent" points="8.5,-164.2 8.5,-183.2 82.5,-183.2 82.5,-164.2 8.5,-164.2"/>
<polygon fill="none" stroke="#000000" points="8.5,-164.2 8.5,-183.2 82.5,-183.2 82.5,-164.2 8.5,-164.2"/>
<text text-anchor="start" x="11.5" y="-170.3" font-family="Helvetica,sans-Serif" font-size="11.00" fill="#000000">&lt; 5</text>
<polygon fill="#ffffff" stroke="transparent" points="82.5,-164.2 82.5,-183.2 121.5,-183.2 121.5,-164.2 82.5,-164.2"/>
<polygon fill="none" stroke="#000000" points="82.5,-164.2 82.5,-183.2 121.5,-183.2 121.5,-164.2 82.5,-164.2"/>
<text text-anchor="start" x="112.3862" y="-170.3" font-family="Helvetica,sans-Serif" font-size="11.00" fill="#000000"> &#160;</text>
<polygon fill="#ffffff" stroke="transparent" points="121.5,-164.2 121.5,-183.2 175.5,-183.2 175.5,-164.2 121.5,-164.2"/>
<polygon fill="none" stroke="#000000" points="121.5,-164.2 121.5,-183.2 175.5,-183.2 175.5,-164.2 121.5,-164.2"/>
<text text-anchor="start" x="150.7904" y="-170.3" font-family="Helvetica,sans-Serif" font-size="11.00" fill="#000000">80 &gt;</text>
</a>
</g>
</g>
<!-- form_note&#45;&gt;patient_data -->
<g id="edge2" class="edge">
<title>form_note:w&#45;&gt;patient_data:e</title>
<path fill="none" stroke="#000000" d="M398.5296,-244.2358C389.5446,-241.562 383.6087,-236.9131 370,-235.2 302.0915,-226.6517 282.3368,-218.3457 216,-235.2 196.1465,-240.2442 195.9843,-257.2 175.5,-257.2"/>
<polygon fill="#000000" stroke="#000000" points="405.0727,-245.1239 412.5158,-249.7673 409.0363,-245.662 413,-246.2 413,-246.2 413,-246.2 409.0363,-245.662 413.4842,-242.6327 405.0727,-245.1239 405.0727,-245.1239"/>
<ellipse fill="none" stroke="#000000" cx="401.9018" cy="-244.6935" rx="3.2" ry="3.2"/>
</g>
<!-- forms&#45;&gt;patient_data -->
<g id="edge3" class="edge">
<title>forms:w&#45;&gt;patient_data:e</title>
<path fill="none" stroke="#000000" d="M210.2341,-289.6631C197.821,-279.783 196.6813,-257.2 175.5,-257.2"/>
<polygon fill="#000000" stroke="#000000" points="216.402,-291.6958 222.8731,-297.6191 220.201,-292.9479 224,-294.2 224,-294.2 224,-294.2 220.201,-292.9479 225.1269,-290.7809 216.402,-291.6958 216.402,-291.6958"/>
<ellipse fill="none" stroke="#000000" cx="213.3628" cy="-290.6942" rx="3.2" ry="3.2"/>
</g>
</g>
</svg>
