<?xml version="1.0" encoding="UTF-8" standalone="no"?>
<!DOCTYPE svg PUBLIC "-//W3C//DTD SVG 1.1//EN"
 "http://www.w3.org/Graphics/SVG/1.1/DTD/svg11.dtd">
<!-- Generated by graphviz version 2.40.1 (20161225.0304)
 -->
<!-- Title: oneDegreeRelationshipsDiagram Pages: 1 -->
<svg width="959pt" height="463pt"
 viewBox="0.00 0.00 959.00 463.20" xmlns="http://www.w3.org/2000/svg" xmlns:xlink="http://www.w3.org/1999/xlink">
<g id="graph0" class="graph" transform="scale(1 1) rotate(0) translate(4 459.2)">
<title>oneDegreeRelationshipsDiagram</title>
<polygon fill="#ffffff" stroke="transparent" points="-4,4 -4,-459.2 955,-459.2 955,4 -4,4"/>
<text text-anchor="middle" x="72.4936" y="-7.3" font-family="Helvetica,sans-Serif" font-size="11.00" fill="#000000">Generated by SchemaSpy</text>
<!-- form_CAMOS_category -->
<g id="node1" class="node">
<title>form_CAMOS_category</title>
<g id="a_node1"><a xlink:href="../../tables/form_CAMOS_category.html" xlink:title="form_CAMOS_category" target="_top">
<polygon fill="#ffffff" stroke="transparent" points="224,-38.2 224,-209.2 415,-209.2 415,-38.2 224,-38.2"/>
<polygon fill="#f5f5f5" stroke="transparent" points="224.5,-185.7 224.5,-208.7 415.5,-208.7 415.5,-185.7 224.5,-185.7"/>
<polygon fill="none" stroke="#000000" points="224.5,-185.7 224.5,-208.7 415.5,-208.7 415.5,-185.7 224.5,-185.7"/>
<text text-anchor="start" x="229.5" y="-194.3" font-family="Helvetica,sans-Serif" font-weight="bold" font-size="11.00" fill="#000000">form_CAMOS_category</text>
<text text-anchor="start" x="381.0219" y="-193.8" font-family="Helvetica,sans-Serif" font-size="11.00" fill="#000000">[table]</text>
<polygon fill="none" stroke="#000000" points="224.5,-163.7 224.5,-185.7 415.5,-185.7 415.5,-163.7 224.5,-163.7"/>
<image xlink:href="../../images/primaryKeys.png" width="11px" height="12px" preserveAspectRatio="xMinYMin meet" x="229.5" y="-180.7"/>
<text text-anchor="start" x="253.5" y="-170.8" font-family="Helvetica,sans-Serif" font-size="11.00" fill="#000000">id</text>
<polygon fill="none" stroke="#000000" points="224.5,-141.7 224.5,-163.7 415.5,-163.7 415.5,-141.7 224.5,-141.7"/>
<image xlink:href="../../images/foreignKeys.png" width="11px" height="12px" preserveAspectRatio="xMinYMin meet" x="229.5" y="-158.7"/>
<text text-anchor="start" x="253.5" y="-148.8" font-family="Helvetica,sans-Serif" font-size="11.00" fill="#000000">pid</text>
<polygon fill="none" stroke="#000000" points="224.5,-119.7 224.5,-141.7 415.5,-141.7 415.5,-119.7 224.5,-119.7"/>
<image xlink:href="../../images/foreignKeys.png" width="11px" height="12px" preserveAspectRatio="xMinYMin meet" x="229.5" y="-136.7"/>
<text text-anchor="start" x="253.5" y="-126.8" font-family="Helvetica,sans-Serif" font-size="11.00" fill="#000000">user</text>
<polygon fill="none" stroke="#000000" points="224.5,-97.7 224.5,-119.7 415.5,-119.7 415.5,-97.7 224.5,-97.7"/>
<image xlink:href="../../images/foreignKeys.png" width="11px" height="12px" preserveAspectRatio="xMinYMin meet" x="229.5" y="-114.7"/>
<text text-anchor="start" x="253.5" y="-104.8" font-family="Helvetica,sans-Serif" font-size="11.00" fill="#000000">groupname</text>
<polygon fill="none" stroke="#000000" points="224.5,-75.7 224.5,-97.7 415.5,-97.7 415.5,-75.7 224.5,-75.7"/>
<image xlink:href="../../images/primaryKeys.png" width="11px" height="12px" preserveAspectRatio="xMinYMin meet" x="229.5" y="-92.7"/>
<text text-anchor="start" x="253.5" y="-82.8" font-family="Helvetica,sans-Serif" font-size="11.00" fill="#000000">category</text>
<polygon fill="none" stroke="#000000" points="224.5,-56.7 224.5,-75.7 415.5,-75.7 415.5,-56.7 224.5,-56.7"/>
<text text-anchor="start" x="227.5" y="-62.8" font-family="Helvetica,sans-Serif" font-size="11.00" fill="#000000">...</text>
<polygon fill="#ffffff" stroke="transparent" points="224.5,-37.7 224.5,-56.7 313.5,-56.7 313.5,-37.7 224.5,-37.7"/>
<polygon fill="none" stroke="#000000" points="224.5,-37.7 224.5,-56.7 313.5,-56.7 313.5,-37.7 224.5,-37.7"/>
<text text-anchor="start" x="227.5" y="-43.8" font-family="Helvetica,sans-Serif" font-size="11.00" fill="#000000">&lt; 3</text>
<polygon fill="#ffffff" stroke="transparent" points="313.5,-37.7 313.5,-56.7 359.5,-56.7 359.5,-37.7 313.5,-37.7"/>
<polygon fill="none" stroke="#000000" points="313.5,-37.7 313.5,-56.7 359.5,-56.7 359.5,-37.7 313.5,-37.7"/>
<text text-anchor="start" x="350.3862" y="-43.8" font-family="Helvetica,sans-Serif" font-size="11.00" fill="#000000"> &#160;</text>
<polygon fill="#ffffff" stroke="transparent" points="359.5,-37.7 359.5,-56.7 415.5,-56.7 415.5,-37.7 359.5,-37.7"/>
<polygon fill="none" stroke="#000000" points="359.5,-37.7 359.5,-56.7 415.5,-56.7 415.5,-37.7 359.5,-37.7"/>
<text text-anchor="start" x="396.9053" y="-43.8" font-family="Helvetica,sans-Serif" font-size="11.00" fill="#000000">2 &gt;</text>
</a>
</g>
</g>
<!-- patient_data -->
<g id="node2" class="node">
<title>patient_data</title>
<g id="a_node2"><a xlink:href="../../tables/patient_data.html" xlink:title="patient_data" target="_top">
<polygon fill="#ffffff" stroke="transparent" points="8,-177.2 8,-414.2 175,-414.2 175,-177.2 8,-177.2"/>
<polygon fill="#f5f5f5" stroke="transparent" points="8.5,-390.7 8.5,-413.7 175.5,-413.7 175.5,-390.7 8.5,-390.7"/>
<polygon fill="none" stroke="#000000" points="8.5,-390.7 8.5,-413.7 175.5,-413.7 175.5,-390.7 8.5,-390.7"/>
<text text-anchor="start" x="13.5" y="-399.3" font-family="Helvetica,sans-Serif" font-weight="bold" font-size="11.00" fill="#000000">patient_data</text>
<text text-anchor="start" x="140.5437" y="-398.8" font-family="Helvetica,sans-Serif" font-size="11.00" fill="#000000">[table]</text>
<polygon fill="#ffffff" stroke="transparent" points="8.5,-368.7 8.5,-390.7 175.5,-390.7 175.5,-368.7 8.5,-368.7"/>
<polygon fill="none" stroke="#000000" points="8.5,-368.7 8.5,-390.7 175.5,-390.7 175.5,-368.7 8.5,-368.7"/>
<text text-anchor="start" x="28.5" y="-375.8" font-family="Helvetica,sans-Serif" font-size="11.00" fill="#000000">id</text>
<polygon fill="#ffffff" stroke="transparent" points="8.5,-346.7 8.5,-368.7 175.5,-368.7 175.5,-346.7 8.5,-346.7"/>
<polygon fill="none" stroke="#000000" points="8.5,-346.7 8.5,-368.7 175.5,-368.7 175.5,-346.7 8.5,-346.7"/>
<text text-anchor="start" x="28.5" y="-353.8" font-family="Helvetica,sans-Serif" font-size="11.00" fill="#000000">uuid</text>
<polygon fill="none" stroke="#000000" points="8.5,-324.7 8.5,-346.7 175.5,-346.7 175.5,-324.7 8.5,-324.7"/>
<image xlink:href="../../images/foreignKeys.png" width="11px" height="12px" preserveAspectRatio="xMinYMin meet" x="13.5" y="-341.7"/>
<text text-anchor="start" x="28.5" y="-331.8" font-family="Helvetica,sans-Serif" font-size="11.00" fill="#000000">pharmacy_id</text>
<polygon fill="none" stroke="#000000" points="8.5,-302.7 8.5,-324.7 175.5,-324.7 175.5,-302.7 8.5,-302.7"/>
<image xlink:href="../../images/foreignKeys.png" width="11px" height="12px" preserveAspectRatio="xMinYMin meet" x="13.5" y="-319.7"/>
<text text-anchor="start" x="28.5" y="-309.8" font-family="Helvetica,sans-Serif" font-size="11.00" fill="#000000">providerID</text>
<polygon fill="none" stroke="#000000" points="8.5,-280.7 8.5,-302.7 175.5,-302.7 175.5,-280.7 8.5,-280.7"/>
<image xlink:href="../../images/foreignKeys.png" width="11px" height="12px" preserveAspectRatio="xMinYMin meet" x="13.5" y="-297.7"/>
<text text-anchor="start" x="28.5" y="-287.8" font-family="Helvetica,sans-Serif" font-size="11.00" fill="#000000">ref_providerID</text>
<polygon fill="none" stroke="#000000" points="8.5,-258.7 8.5,-280.7 175.5,-280.7 175.5,-258.7 8.5,-258.7"/>
<image xlink:href="../../images/primaryKeys.png" width="11px" height="12px" preserveAspectRatio="xMinYMin meet" x="13.5" y="-275.7"/>
<text text-anchor="start" x="28.5" y="-265.8" font-family="Helvetica,sans-Serif" font-size="11.00" fill="#000000">pid</text>
<polygon fill="none" stroke="#000000" points="8.5,-236.7 8.5,-258.7 175.5,-258.7 175.5,-236.7 8.5,-236.7"/>
<image xlink:href="../../images/foreignKeys.png" width="11px" height="12px" preserveAspectRatio="xMinYMin meet" x="13.5" y="-253.7"/>
<text text-anchor="start" x="28.5" y="-243.8" font-family="Helvetica,sans-Serif" font-size="11.00" fill="#000000">created_by</text>
<polygon fill="none" stroke="#000000" points="8.5,-214.7 8.5,-236.7 175.5,-236.7 175.5,-214.7 8.5,-214.7"/>
<image xlink:href="../../images/foreignKeys.png" width="11px" height="12px" preserveAspectRatio="xMinYMin meet" x="13.5" y="-231.7"/>
<text text-anchor="start" x="28.5" y="-221.8" font-family="Helvetica,sans-Serif" font-size="11.00" fill="#000000">updated_by</text>
<polygon fill="none" stroke="#000000" points="8.5,-195.7 8.5,-214.7 175.5,-214.7 175.5,-195.7 8.5,-195.7"/>
<text text-anchor="start" x="11.5" y="-201.8" font-family="Helvetica,sans-Serif" font-size="11.00" fill="#000000">...</text>
<polygon fill="#ffffff" stroke="transparent" points="8.5,-176.7 8.5,-195.7 82.5,-195.7 82.5,-176.7 8.5,-176.7"/>
<polygon fill="none" stroke="#000000" points="8.5,-176.7 8.5,-195.7 82.5,-195.7 82.5,-176.7 8.5,-176.7"/>
<text text-anchor="start" x="11.5" y="-182.8" font-family="Helvetica,sans-Serif" font-size="11.00" fill="#000000">&lt; 5</text>
<polygon fill="#ffffff" stroke="transparent" points="82.5,-176.7 82.5,-195.7 121.5,-195.7 121.5,-176.7 82.5,-176.7"/>
<polygon fill="none" stroke="#000000" points="82.5,-176.7 82.5,-195.7 121.5,-195.7 121.5,-176.7 82.5,-176.7"/>
<text text-anchor="start" x="112.3862" y="-182.8" font-family="Helvetica,sans-Serif" font-size="11.00" fill="#000000"> &#160;</text>
<polygon fill="#ffffff" stroke="transparent" points="121.5,-176.7 121.5,-195.7 175.5,-195.7 175.5,-176.7 121.5,-176.7"/>
<polygon fill="none" stroke="#000000" points="121.5,-176.7 121.5,-195.7 175.5,-195.7 175.5,-176.7 121.5,-176.7"/>
<text text-anchor="start" x="150.7904" y="-182.8" font-family="Helvetica,sans-Serif" font-size="11.00" fill="#000000">85 &gt;</text>
</a>
</g>
</g>
<!-- form_CAMOS_category&#45;&gt;patient_data -->
<g id="edge1" class="edge">
<title>form_CAMOS_category:w&#45;&gt;patient_data:e</title>
<path fill="none" stroke="#000000" d="M210.3892,-156.3299C180.2353,-176.0782 225.9302,-269.7 175.5,-269.7"/>
<polygon fill="#000000" stroke="#000000" points="216.7522,-154.6931 225.3969,-156.1865 220.6261,-153.6965 224.5,-152.7 224.5,-152.7 224.5,-152.7 220.6261,-153.6965 223.6031,-149.2135 216.7522,-154.6931 216.7522,-154.6931"/>
<ellipse fill="none" stroke="#000000" cx="213.6531" cy="-155.4903" rx="3.2" ry="3.2"/>
</g>
<!-- form_CAMOS_item -->
<g id="node3" class="node">
<title>form_CAMOS_item</title>
<g id="a_node3"><a xlink:href="../../tables/form_CAMOS_item.html" xlink:title="form_CAMOS_item" target="_top">
<polygon fill="#ffffff" stroke="transparent" points="781,-258.2 781,-451.2 943,-451.2 943,-258.2 781,-258.2"/>
<polygon fill="#f5f5f5" stroke="transparent" points="781,-427.7 781,-450.7 943,-450.7 943,-427.7 781,-427.7"/>
<polygon fill="none" stroke="#000000" points="781,-427.7 781,-450.7 943,-450.7 943,-427.7 781,-427.7"/>
<text text-anchor="start" x="786" y="-436.3" font-family="Helvetica,sans-Serif" font-weight="bold" font-size="11.00" fill="#000000">form_CAMOS_item</text>
<text text-anchor="start" x="908.5219" y="-435.8" font-family="Helvetica,sans-Serif" font-size="11.00" fill="#000000">[table]</text>
<polygon fill="none" stroke="#000000" points="781,-405.7 781,-427.7 943,-427.7 943,-405.7 781,-405.7"/>
<image xlink:href="../../images/primaryKeys.png" width="11px" height="12px" preserveAspectRatio="xMinYMin meet" x="786" y="-422.7"/>
<text text-anchor="start" x="810" y="-412.8" font-family="Helvetica,sans-Serif" font-size="11.00" fill="#000000">id</text>
<polygon fill="none" stroke="#000000" points="781,-383.7 781,-405.7 943,-405.7 943,-383.7 781,-383.7"/>
<image xlink:href="../../images/foreignKeys.png" width="11px" height="12px" preserveAspectRatio="xMinYMin meet" x="786" y="-400.7"/>
<text text-anchor="start" x="810" y="-390.8" font-family="Helvetica,sans-Serif" font-size="11.00" fill="#000000">pid</text>
<polygon fill="none" stroke="#000000" points="781,-361.7 781,-383.7 943,-383.7 943,-361.7 781,-361.7"/>
<image xlink:href="../../images/foreignKeys.png" width="11px" height="12px" preserveAspectRatio="xMinYMin meet" x="786" y="-378.7"/>
<text text-anchor="start" x="810" y="-368.8" font-family="Helvetica,sans-Serif" font-size="11.00" fill="#000000">user</text>
<polygon fill="none" stroke="#000000" points="781,-339.7 781,-361.7 943,-361.7 943,-339.7 781,-339.7"/>
<image xlink:href="../../images/foreignKeys.png" width="11px" height="12px" preserveAspectRatio="xMinYMin meet" x="786" y="-356.7"/>
<text text-anchor="start" x="810" y="-346.8" font-family="Helvetica,sans-Serif" font-size="11.00" fill="#000000">groupname</text>
<polygon fill="none" stroke="#000000" points="781,-317.7 781,-339.7 943,-339.7 943,-317.7 781,-317.7"/>
<image xlink:href="../../images/primaryKeys.png" width="11px" height="12px" preserveAspectRatio="xMinYMin meet" x="786" y="-334.7"/>
<text text-anchor="start" x="810" y="-324.8" font-family="Helvetica,sans-Serif" font-size="11.00" fill="#000000">item</text>
<polygon fill="none" stroke="#000000" points="781,-295.7 781,-317.7 943,-317.7 943,-295.7 781,-295.7"/>
<image xlink:href="../../images/foreignKeys.png" width="11px" height="12px" preserveAspectRatio="xMinYMin meet" x="786" y="-312.7"/>
<text text-anchor="start" x="810" y="-302.8" font-family="Helvetica,sans-Serif" font-size="11.00" fill="#000000">subcategory_id</text>
<polygon fill="none" stroke="#000000" points="781,-276.7 781,-295.7 943,-295.7 943,-276.7 781,-276.7"/>
<text text-anchor="start" x="784" y="-282.8" font-family="Helvetica,sans-Serif" font-size="11.00" fill="#000000">...</text>
<polygon fill="#ffffff" stroke="transparent" points="781,-257.7 781,-276.7 856,-276.7 856,-257.7 781,-257.7"/>
<polygon fill="none" stroke="#000000" points="781,-257.7 781,-276.7 856,-276.7 856,-257.7 781,-257.7"/>
<text text-anchor="start" x="784" y="-263.8" font-family="Helvetica,sans-Serif" font-size="11.00" fill="#000000">&lt; 4</text>
<polygon fill="#ffffff" stroke="transparent" points="856,-257.7 856,-276.7 895,-276.7 895,-257.7 856,-257.7"/>
<polygon fill="none" stroke="#000000" points="856,-257.7 856,-276.7 895,-276.7 895,-257.7 856,-257.7"/>
<text text-anchor="start" x="885.8862" y="-263.8" font-family="Helvetica,sans-Serif" font-size="11.00" fill="#000000"> &#160;</text>
<polygon fill="#ffffff" stroke="transparent" points="895,-257.7 895,-276.7 943,-276.7 943,-257.7 895,-257.7"/>
<polygon fill="none" stroke="#000000" points="895,-257.7 895,-276.7 943,-276.7 943,-257.7 895,-257.7"/>
<text text-anchor="start" x="924.4053" y="-263.8" font-family="Helvetica,sans-Serif" font-size="11.00" fill="#000000">2 &gt;</text>
</a>
</g>
</g>
<!-- form_CAMOS_item&#45;&gt;patient_data -->
<g id="edge2" class="edge">
<title>form_CAMOS_item:w&#45;&gt;patient_data:e</title>
<path fill="none" stroke="#000000" d="M766.4764,-394.6855C633.0686,-394.4047 593.2171,-389.7994 456,-360.7 439.9735,-357.3013 191.8829,-269.7 175.5,-269.7"/>
<polygon fill="#000000" stroke="#000000" points="773,-394.692 780.9964,-398.3 777,-394.696 781,-394.7 781,-394.7 781,-394.7 777,-394.696 781.0036,-391.1 773,-394.692 773,-394.692"/>
<ellipse fill="none" stroke="#000000" cx="769.8" cy="-394.6888" rx="3.2" ry="3.2"/>
</g>
<!-- form_CAMOS_subcategory -->
<g id="node4" class="node">
<title>form_CAMOS_subcategory</title>
<g id="a_node4"><a xlink:href="../../tables/form_CAMOS_subcategory.html" xlink:title="form_CAMOS_subcategory" target="_top">
<polygon fill="#ffffff" stroke="transparent" points="464,-105.7 464,-349.7 732,-349.7 732,-105.7 464,-105.7"/>
<polygon fill="#f5f5f5" stroke="transparent" points="466,-324.7 466,-347.7 730,-347.7 730,-324.7 466,-324.7"/>
<polygon fill="none" stroke="#000000" points="466,-324.7 466,-347.7 730,-347.7 730,-324.7 466,-324.7"/>
<text text-anchor="start" x="471" y="-333.3" font-family="Helvetica,sans-Serif" font-weight="bold" font-size="11.00" fill="#000000">form_CAMOS_subcategory</text>
<text text-anchor="start" x="695.0437" y="-332.8" font-family="Helvetica,sans-Serif" font-size="11.00" fill="#000000">[table]</text>
<polygon fill="none" stroke="#000000" points="466,-302.7 466,-324.7 663,-324.7 663,-302.7 466,-302.7"/>
<image xlink:href="../../images/primaryKeys.png" width="11px" height="12px" preserveAspectRatio="xMinYMin meet" x="471" y="-319.7"/>
<text text-anchor="start" x="486" y="-309.8" font-family="Helvetica,sans-Serif" font-size="11.00" fill="#000000">id</text>
<polygon fill="none" stroke="#000000" points="663,-302.7 663,-324.7 730,-324.7 730,-302.7 663,-302.7"/>
<text text-anchor="start" x="666" y="-310.4" font-family="Helvetica,sans-Serif" font-size="11.00" fill="#000000">bigint[19]</text>
<polygon fill="none" stroke="#000000" points="466,-280.7 466,-302.7 663,-302.7 663,-280.7 466,-280.7"/>
<text text-anchor="start" x="486" y="-287.8" font-family="Helvetica,sans-Serif" font-size="11.00" fill="#000000">date</text>
<polygon fill="none" stroke="#000000" points="663,-280.7 663,-302.7 730,-302.7 730,-280.7 663,-280.7"/>
<text text-anchor="start" x="666" y="-288.4" font-family="Helvetica,sans-Serif" font-size="11.00" fill="#000000">datetime[19]</text>
<polygon fill="none" stroke="#000000" points="466,-258.7 466,-280.7 663,-280.7 663,-258.7 466,-258.7"/>
<image xlink:href="../../images/foreignKeys.png" width="11px" height="12px" preserveAspectRatio="xMinYMin meet" x="471" y="-275.7"/>
<text text-anchor="start" x="486" y="-265.8" font-family="Helvetica,sans-Serif" font-size="11.00" fill="#000000">pid</text>
<polygon fill="none" stroke="#000000" points="663,-258.7 663,-280.7 730,-280.7 730,-258.7 663,-258.7"/>
<text text-anchor="start" x="666" y="-266.4" font-family="Helvetica,sans-Serif" font-size="11.00" fill="#000000">bigint[19]</text>
<polygon fill="none" stroke="#000000" points="466,-236.7 466,-258.7 663,-258.7 663,-236.7 466,-236.7"/>
<text text-anchor="start" x="486" y="-243.8" font-family="Helvetica,sans-Serif" font-size="11.00" fill="#000000">user</text>
<polygon fill="none" stroke="#000000" points="663,-236.7 663,-258.7 730,-258.7 730,-236.7 663,-236.7"/>
<text text-anchor="start" x="665.9365" y="-244.4" font-family="Helvetica,sans-Serif" font-size="11.00" fill="#000000">varchar[255]</text>
<polygon fill="none" stroke="#000000" points="466,-214.7 466,-236.7 663,-236.7 663,-214.7 466,-214.7"/>
<text text-anchor="start" x="486" y="-221.8" font-family="Helvetica,sans-Serif" font-size="11.00" fill="#000000">groupname</text>
<polygon fill="none" stroke="#000000" points="663,-214.7 663,-236.7 730,-236.7 730,-214.7 663,-214.7"/>
<text text-anchor="start" x="665.9365" y="-222.4" font-family="Helvetica,sans-Serif" font-size="11.00" fill="#000000">varchar[255]</text>
<polygon fill="none" stroke="#000000" points="466,-192.7 466,-214.7 663,-214.7 663,-192.7 466,-192.7"/>
<text text-anchor="start" x="486" y="-199.8" font-family="Helvetica,sans-Serif" font-size="11.00" fill="#000000">authorized</text>
<polygon fill="none" stroke="#000000" points="663,-192.7 663,-214.7 730,-214.7 730,-192.7 663,-192.7"/>
<text text-anchor="start" x="666" y="-200.4" font-family="Helvetica,sans-Serif" font-size="11.00" fill="#000000">tinyint[3]</text>
<polygon fill="none" stroke="#000000" points="466,-170.7 466,-192.7 663,-192.7 663,-170.7 466,-170.7"/>
<text text-anchor="start" x="486" y="-177.8" font-family="Helvetica,sans-Serif" font-size="11.00" fill="#000000">activity</text>
<polygon fill="none" stroke="#000000" points="663,-170.7 663,-192.7 730,-192.7 730,-170.7 663,-170.7"/>
<text text-anchor="start" x="666" y="-178.4" font-family="Helvetica,sans-Serif" font-size="11.00" fill="#000000">tinyint[3]</text>
<polygon fill="none" stroke="#000000" points="466,-148.7 466,-170.7 663,-170.7 663,-148.7 466,-148.7"/>
<text text-anchor="start" x="486" y="-155.8" font-family="Helvetica,sans-Serif" font-size="11.00" fill="#000000">subcategory</text>
<polygon fill="none" stroke="#000000" points="663,-148.7 663,-170.7 730,-170.7 730,-148.7 663,-148.7"/>
<text text-anchor="start" x="666" y="-156.4" font-family="Helvetica,sans-Serif" font-size="11.00" fill="#000000">text[65535]</text>
<polygon fill="none" stroke="#000000" points="466,-126.7 466,-148.7 663,-148.7 663,-126.7 466,-126.7"/>
<image xlink:href="../../images/foreignKeys.png" width="11px" height="12px" preserveAspectRatio="xMinYMin meet" x="471" y="-143.7"/>
<text text-anchor="start" x="486" y="-133.8" font-family="Helvetica,sans-Serif" font-size="11.00" fill="#000000">category_id</text>
<polygon fill="none" stroke="#000000" points="663,-126.7 663,-148.7 730,-148.7 730,-126.7 663,-126.7"/>
<text text-anchor="start" x="666" y="-134.4" font-family="Helvetica,sans-Serif" font-size="11.00" fill="#000000">bigint[19]</text>
<polygon fill="#ffffff" stroke="transparent" points="466,-107.7 466,-126.7 569,-126.7 569,-107.7 466,-107.7"/>
<polygon fill="none" stroke="#000000" points="466,-107.7 466,-126.7 569,-126.7 569,-107.7 466,-107.7"/>
<text text-anchor="start" x="469" y="-113.8" font-family="Helvetica,sans-Serif" font-size="11.00" fill="#000000">&lt; 2</text>
<polygon fill="#ffffff" stroke="transparent" points="569,-107.7 569,-126.7 663,-126.7 663,-107.7 569,-107.7"/>
<polygon fill="none" stroke="#000000" points="569,-107.7 569,-126.7 663,-126.7 663,-107.7 569,-107.7"/>
<text text-anchor="start" x="653.8862" y="-113.8" font-family="Helvetica,sans-Serif" font-size="11.00" fill="#000000"> &#160;</text>
<polygon fill="#ffffff" stroke="transparent" points="663,-107.7 663,-126.7 730,-126.7 730,-107.7 663,-107.7"/>
<polygon fill="none" stroke="#000000" points="663,-107.7 663,-126.7 730,-126.7 730,-107.7 663,-107.7"/>
<text text-anchor="start" x="711.4053" y="-113.8" font-family="Helvetica,sans-Serif" font-size="11.00" fill="#000000">1 &gt;</text>
<polygon fill="none" stroke="#000000" stroke-width="2" points="465,-106.7 465,-348.7 731,-348.7 731,-106.7 465,-106.7"/>
</a>
</g>
</g>
<!-- form_CAMOS_item&#45;&gt;form_CAMOS_subcategory -->
<g id="edge3" class="edge">
<title>form_CAMOS_item:w&#45;&gt;form_CAMOS_subcategory:e</title>
<path fill="none" stroke="#000000" d="M766.5965,-307.7938C754.3977,-309.7625 747.1594,-313.7 730,-313.7"/>
<polygon fill="#000000" stroke="#000000" points="773.023,-307.3058 781.2726,-310.2897 777.0115,-307.0029 781,-306.7 781,-306.7 781,-306.7 777.0115,-307.0029 780.7274,-303.1103 773.023,-307.3058 773.023,-307.3058"/>
<ellipse fill="none" stroke="#000000" cx="769.8322" cy="-307.5481" rx="3.2" ry="3.2"/>
</g>
<!-- form_CAMOS_subcategory&#45;&gt;form_CAMOS_category -->
<g id="edge4" class="edge">
<title>form_CAMOS_subcategory:w&#45;&gt;form_CAMOS_category:e</title>
<path fill="none" stroke="#000000" d="M452.1749,-141.9444C438.8807,-151.6631 437.4548,-174.7 415.5,-174.7"/>
<polygon fill="#000000" stroke="#000000" points="458.3523,-140.0479 467.0566,-141.1415 462.1761,-138.874 466,-137.7 466,-137.7 466,-137.7 462.1761,-138.874 464.9434,-134.2585 458.3523,-140.0479 458.3523,-140.0479"/>
<ellipse fill="none" stroke="#000000" cx="455.2932" cy="-140.9871" rx="3.2" ry="3.2"/>
</g>
<!-- form_CAMOS_subcategory&#45;&gt;patient_data -->
<g id="edge5" class="edge">
<title>form_CAMOS_subcategory:w&#45;&gt;patient_data:e</title>
<path fill="none" stroke="#000000" d="M451.3015,-269.7C334.2194,-269.7 299.5677,-269.7 175.5,-269.7"/>
<polygon fill="#000000" stroke="#000000" points="458,-269.7001 466,-273.3 462,-269.7 466,-269.7 466,-269.7 466,-269.7 462,-269.7 466,-266.1 458,-269.7001 458,-269.7001"/>
<ellipse fill="none" stroke="#000000" cx="454.8" cy="-269.7001" rx="3.2" ry="3.2"/>
</g>
</g>
</svg>
