<?xml version="1.0" encoding="UTF-8" standalone="no"?>
<!DOCTYPE svg PUBLIC "-//W3C//DTD SVG 1.1//EN"
 "http://www.w3.org/Graphics/SVG/1.1/DTD/svg11.dtd">
<!-- Generated by graphviz version 2.40.1 (20161225.0304)
 -->
<!-- Title: oneDegreeRelationshipsDiagram Pages: 1 -->
<svg width="896pt" height="839pt"
 viewBox="0.00 0.00 896.00 838.70" xmlns="http://www.w3.org/2000/svg" xmlns:xlink="http://www.w3.org/1999/xlink">
<g id="graph0" class="graph" transform="scale(1 1) rotate(0) translate(4 834.7)">
<title>oneDegreeRelationshipsDiagram</title>
<polygon fill="#ffffff" stroke="transparent" points="-4,4 -4,-834.7 892,-834.7 892,4 -4,4"/>
<text text-anchor="middle" x="72.4936" y="-7.3" font-family="Helvetica,sans-Serif" font-size="11.00" fill="#000000">Generated by SchemaSpy</text>
<!-- form_phq9 -->
<g id="node1" class="node">
<title>form_phq9</title>
<g id="a_node1"><a xlink:href="../../tables/form_phq9.html" xlink:title="form_phq9" target="_top">
<polygon fill="#ffffff" stroke="transparent" points="627,-38.2 627,-678.2 880,-678.2 880,-38.2 627,-38.2"/>
<polygon fill="#f5f5f5" stroke="transparent" points="629.5,-653.2 629.5,-676.2 878.5,-676.2 878.5,-653.2 629.5,-653.2"/>
<polygon fill="none" stroke="#000000" points="629.5,-653.2 629.5,-676.2 878.5,-676.2 878.5,-653.2 629.5,-653.2"/>
<text text-anchor="start" x="634.5" y="-661.8" font-family="Helvetica,sans-Serif" font-weight="bold" font-size="11.00" fill="#000000">form_phq9</text>
<text text-anchor="start" x="843.5437" y="-661.3" font-family="Helvetica,sans-Serif" font-size="11.00" fill="#000000">[table]</text>
<polygon fill="none" stroke="#000000" points="629.5,-631.2 629.5,-653.2 811.5,-653.2 811.5,-631.2 629.5,-631.2"/>
<image xlink:href="../../images/primaryKeys.png" width="11px" height="12px" preserveAspectRatio="xMinYMin meet" x="634.5" y="-648.2"/>
<text text-anchor="start" x="649.5" y="-638.3" font-family="Helvetica,sans-Serif" font-size="11.00" fill="#000000">id</text>
<polygon fill="none" stroke="#000000" points="811.5,-631.2 811.5,-653.2 878.5,-653.2 878.5,-631.2 811.5,-631.2"/>
<text text-anchor="start" x="814.5" y="-638.9" font-family="Helvetica,sans-Serif" font-size="11.00" fill="#000000">bigint[19]</text>
<polygon fill="none" stroke="#000000" points="629.5,-609.2 629.5,-631.2 811.5,-631.2 811.5,-609.2 629.5,-609.2"/>
<text text-anchor="start" x="649.5" y="-616.3" font-family="Helvetica,sans-Serif" font-size="11.00" fill="#000000">date</text>
<polygon fill="none" stroke="#000000" points="811.5,-609.2 811.5,-631.2 878.5,-631.2 878.5,-609.2 811.5,-609.2"/>
<text text-anchor="start" x="814.5" y="-616.9" font-family="Helvetica,sans-Serif" font-size="11.00" fill="#000000">datetime[19]</text>
<polygon fill="none" stroke="#000000" points="629.5,-587.2 629.5,-609.2 811.5,-609.2 811.5,-587.2 629.5,-587.2"/>
<image xlink:href="../../images/foreignKeys.png" width="11px" height="12px" preserveAspectRatio="xMinYMin meet" x="634.5" y="-604.2"/>
<text text-anchor="start" x="649.5" y="-594.3" font-family="Helvetica,sans-Serif" font-size="11.00" fill="#000000">pid</text>
<polygon fill="none" stroke="#000000" points="811.5,-587.2 811.5,-609.2 878.5,-609.2 878.5,-587.2 811.5,-587.2"/>
<text text-anchor="start" x="814.5" y="-594.9" font-family="Helvetica,sans-Serif" font-size="11.00" fill="#000000">bigint[19]</text>
<polygon fill="none" stroke="#000000" points="629.5,-565.2 629.5,-587.2 811.5,-587.2 811.5,-565.2 629.5,-565.2"/>
<image xlink:href="../../images/foreignKeys.png" width="11px" height="12px" preserveAspectRatio="xMinYMin meet" x="634.5" y="-582.2"/>
<text text-anchor="start" x="649.5" y="-572.3" font-family="Helvetica,sans-Serif" font-size="11.00" fill="#000000">user</text>
<polygon fill="none" stroke="#000000" points="811.5,-565.2 811.5,-587.2 878.5,-587.2 878.5,-565.2 811.5,-565.2"/>
<text text-anchor="start" x="814.4365" y="-572.9" font-family="Helvetica,sans-Serif" font-size="11.00" fill="#000000">varchar[255]</text>
<polygon fill="none" stroke="#000000" points="629.5,-543.2 629.5,-565.2 811.5,-565.2 811.5,-543.2 629.5,-543.2"/>
<image xlink:href="../../images/foreignKeys.png" width="11px" height="12px" preserveAspectRatio="xMinYMin meet" x="634.5" y="-560.2"/>
<text text-anchor="start" x="649.5" y="-550.3" font-family="Helvetica,sans-Serif" font-size="11.00" fill="#000000">groupname</text>
<polygon fill="none" stroke="#000000" points="811.5,-543.2 811.5,-565.2 878.5,-565.2 878.5,-543.2 811.5,-543.2"/>
<text text-anchor="start" x="814.4365" y="-550.9" font-family="Helvetica,sans-Serif" font-size="11.00" fill="#000000">varchar[255]</text>
<polygon fill="none" stroke="#000000" points="629.5,-521.2 629.5,-543.2 811.5,-543.2 811.5,-521.2 629.5,-521.2"/>
<text text-anchor="start" x="649.5" y="-528.3" font-family="Helvetica,sans-Serif" font-size="11.00" fill="#000000">authorized</text>
<polygon fill="none" stroke="#000000" points="811.5,-521.2 811.5,-543.2 878.5,-543.2 878.5,-521.2 811.5,-521.2"/>
<text text-anchor="start" x="814.5" y="-528.9" font-family="Helvetica,sans-Serif" font-size="11.00" fill="#000000">tinyint[3]</text>
<polygon fill="none" stroke="#000000" points="629.5,-499.2 629.5,-521.2 811.5,-521.2 811.5,-499.2 629.5,-499.2"/>
<text text-anchor="start" x="649.5" y="-506.3" font-family="Helvetica,sans-Serif" font-size="11.00" fill="#000000">activity</text>
<polygon fill="none" stroke="#000000" points="811.5,-499.2 811.5,-521.2 878.5,-521.2 878.5,-499.2 811.5,-499.2"/>
<text text-anchor="start" x="814.5" y="-506.9" font-family="Helvetica,sans-Serif" font-size="11.00" fill="#000000">tinyint[3]</text>
<polygon fill="none" stroke="#000000" points="629.5,-477.2 629.5,-499.2 811.5,-499.2 811.5,-477.2 629.5,-477.2"/>
<text text-anchor="start" x="649.5" y="-484.3" font-family="Helvetica,sans-Serif" font-size="11.00" fill="#000000">interest_score</text>
<polygon fill="none" stroke="#000000" points="811.5,-477.2 811.5,-499.2 878.5,-499.2 878.5,-477.2 811.5,-477.2"/>
<text text-anchor="start" x="814.4365" y="-484.9" font-family="Helvetica,sans-Serif" font-size="11.00" fill="#000000">varchar[255]</text>
<polygon fill="none" stroke="#000000" points="629.5,-455.2 629.5,-477.2 811.5,-477.2 811.5,-455.2 629.5,-455.2"/>
<text text-anchor="start" x="649.5" y="-462.3" font-family="Helvetica,sans-Serif" font-size="11.00" fill="#000000">interest_extra_info</text>
<polygon fill="none" stroke="#000000" points="811.5,-455.2 811.5,-477.2 878.5,-477.2 878.5,-455.2 811.5,-455.2"/>
<text text-anchor="start" x="814.4365" y="-462.9" font-family="Helvetica,sans-Serif" font-size="11.00" fill="#000000">varchar[255]</text>
<polygon fill="none" stroke="#000000" points="629.5,-433.2 629.5,-455.2 811.5,-455.2 811.5,-433.2 629.5,-433.2"/>
<text text-anchor="start" x="649.5" y="-440.3" font-family="Helvetica,sans-Serif" font-size="11.00" fill="#000000">hopeless_score</text>
<polygon fill="none" stroke="#000000" points="811.5,-433.2 811.5,-455.2 878.5,-455.2 878.5,-433.2 811.5,-433.2"/>
<text text-anchor="start" x="814.4365" y="-440.9" font-family="Helvetica,sans-Serif" font-size="11.00" fill="#000000">varchar[255]</text>
<polygon fill="none" stroke="#000000" points="629.5,-411.2 629.5,-433.2 811.5,-433.2 811.5,-411.2 629.5,-411.2"/>
<text text-anchor="start" x="649.5" y="-418.3" font-family="Helvetica,sans-Serif" font-size="11.00" fill="#000000">hopeless_extra_info</text>
<polygon fill="none" stroke="#000000" points="811.5,-411.2 811.5,-433.2 878.5,-433.2 878.5,-411.2 811.5,-411.2"/>
<text text-anchor="start" x="814.4365" y="-418.9" font-family="Helvetica,sans-Serif" font-size="11.00" fill="#000000">varchar[255]</text>
<polygon fill="none" stroke="#000000" points="629.5,-389.2 629.5,-411.2 811.5,-411.2 811.5,-389.2 629.5,-389.2"/>
<text text-anchor="start" x="649.5" y="-396.3" font-family="Helvetica,sans-Serif" font-size="11.00" fill="#000000">sleep_score</text>
<polygon fill="none" stroke="#000000" points="811.5,-389.2 811.5,-411.2 878.5,-411.2 878.5,-389.2 811.5,-389.2"/>
<text text-anchor="start" x="814.4365" y="-396.9" font-family="Helvetica,sans-Serif" font-size="11.00" fill="#000000">varchar[255]</text>
<polygon fill="none" stroke="#000000" points="629.5,-367.2 629.5,-389.2 811.5,-389.2 811.5,-367.2 629.5,-367.2"/>
<text text-anchor="start" x="649.5" y="-374.3" font-family="Helvetica,sans-Serif" font-size="11.00" fill="#000000">sleep_extra_info</text>
<polygon fill="none" stroke="#000000" points="811.5,-367.2 811.5,-389.2 878.5,-389.2 878.5,-367.2 811.5,-367.2"/>
<text text-anchor="start" x="814.4365" y="-374.9" font-family="Helvetica,sans-Serif" font-size="11.00" fill="#000000">varchar[255]</text>
<polygon fill="none" stroke="#000000" points="629.5,-345.2 629.5,-367.2 811.5,-367.2 811.5,-345.2 629.5,-345.2"/>
<text text-anchor="start" x="649.5" y="-352.3" font-family="Helvetica,sans-Serif" font-size="11.00" fill="#000000">fatigue_score</text>
<polygon fill="none" stroke="#000000" points="811.5,-345.2 811.5,-367.2 878.5,-367.2 878.5,-345.2 811.5,-345.2"/>
<text text-anchor="start" x="814.4365" y="-352.9" font-family="Helvetica,sans-Serif" font-size="11.00" fill="#000000">varchar[255]</text>
<polygon fill="none" stroke="#000000" points="629.5,-323.2 629.5,-345.2 811.5,-345.2 811.5,-323.2 629.5,-323.2"/>
<text text-anchor="start" x="649.5" y="-330.3" font-family="Helvetica,sans-Serif" font-size="11.00" fill="#000000">fatigue_extra_info</text>
<polygon fill="none" stroke="#000000" points="811.5,-323.2 811.5,-345.2 878.5,-345.2 878.5,-323.2 811.5,-323.2"/>
<text text-anchor="start" x="814.4365" y="-330.9" font-family="Helvetica,sans-Serif" font-size="11.00" fill="#000000">varchar[255]</text>
<polygon fill="none" stroke="#000000" points="629.5,-301.2 629.5,-323.2 811.5,-323.2 811.5,-301.2 629.5,-301.2"/>
<text text-anchor="start" x="649.5" y="-308.3" font-family="Helvetica,sans-Serif" font-size="11.00" fill="#000000">appetite_score</text>
<polygon fill="none" stroke="#000000" points="811.5,-301.2 811.5,-323.2 878.5,-323.2 878.5,-301.2 811.5,-301.2"/>
<text text-anchor="start" x="814.4365" y="-308.9" font-family="Helvetica,sans-Serif" font-size="11.00" fill="#000000">varchar[255]</text>
<polygon fill="none" stroke="#000000" points="629.5,-279.2 629.5,-301.2 811.5,-301.2 811.5,-279.2 629.5,-279.2"/>
<text text-anchor="start" x="649.5" y="-286.3" font-family="Helvetica,sans-Serif" font-size="11.00" fill="#000000">appetite_extra_info</text>
<polygon fill="none" stroke="#000000" points="811.5,-279.2 811.5,-301.2 878.5,-301.2 878.5,-279.2 811.5,-279.2"/>
<text text-anchor="start" x="814.4365" y="-286.9" font-family="Helvetica,sans-Serif" font-size="11.00" fill="#000000">varchar[255]</text>
<polygon fill="none" stroke="#000000" points="629.5,-257.2 629.5,-279.2 811.5,-279.2 811.5,-257.2 629.5,-257.2"/>
<text text-anchor="start" x="649.5" y="-264.3" font-family="Helvetica,sans-Serif" font-size="11.00" fill="#000000">failure_score</text>
<polygon fill="none" stroke="#000000" points="811.5,-257.2 811.5,-279.2 878.5,-279.2 878.5,-257.2 811.5,-257.2"/>
<text text-anchor="start" x="814.4365" y="-264.9" font-family="Helvetica,sans-Serif" font-size="11.00" fill="#000000">varchar[255]</text>
<polygon fill="none" stroke="#000000" points="629.5,-235.2 629.5,-257.2 811.5,-257.2 811.5,-235.2 629.5,-235.2"/>
<text text-anchor="start" x="649.5" y="-242.3" font-family="Helvetica,sans-Serif" font-size="11.00" fill="#000000">failure_extra_info</text>
<polygon fill="none" stroke="#000000" points="811.5,-235.2 811.5,-257.2 878.5,-257.2 878.5,-235.2 811.5,-235.2"/>
<text text-anchor="start" x="814.4365" y="-242.9" font-family="Helvetica,sans-Serif" font-size="11.00" fill="#000000">varchar[255]</text>
<polygon fill="none" stroke="#000000" points="629.5,-213.2 629.5,-235.2 811.5,-235.2 811.5,-213.2 629.5,-213.2"/>
<text text-anchor="start" x="649.5" y="-220.3" font-family="Helvetica,sans-Serif" font-size="11.00" fill="#000000">focus_score</text>
<polygon fill="none" stroke="#000000" points="811.5,-213.2 811.5,-235.2 878.5,-235.2 878.5,-213.2 811.5,-213.2"/>
<text text-anchor="start" x="814.4365" y="-220.9" font-family="Helvetica,sans-Serif" font-size="11.00" fill="#000000">varchar[255]</text>
<polygon fill="none" stroke="#000000" points="629.5,-191.2 629.5,-213.2 811.5,-213.2 811.5,-191.2 629.5,-191.2"/>
<text text-anchor="start" x="649.5" y="-198.3" font-family="Helvetica,sans-Serif" font-size="11.00" fill="#000000">focus_extra_info</text>
<polygon fill="none" stroke="#000000" points="811.5,-191.2 811.5,-213.2 878.5,-213.2 878.5,-191.2 811.5,-191.2"/>
<text text-anchor="start" x="814.4365" y="-198.9" font-family="Helvetica,sans-Serif" font-size="11.00" fill="#000000">varchar[255]</text>
<polygon fill="none" stroke="#000000" points="629.5,-169.2 629.5,-191.2 811.5,-191.2 811.5,-169.2 629.5,-169.2"/>
<text text-anchor="start" x="649.5" y="-176.3" font-family="Helvetica,sans-Serif" font-size="11.00" fill="#000000">psychomotor_score</text>
<polygon fill="none" stroke="#000000" points="811.5,-169.2 811.5,-191.2 878.5,-191.2 878.5,-169.2 811.5,-169.2"/>
<text text-anchor="start" x="814.4365" y="-176.9" font-family="Helvetica,sans-Serif" font-size="11.00" fill="#000000">varchar[255]</text>
<polygon fill="none" stroke="#000000" points="629.5,-147.2 629.5,-169.2 811.5,-169.2 811.5,-147.2 629.5,-147.2"/>
<text text-anchor="start" x="649.5" y="-154.3" font-family="Helvetica,sans-Serif" font-size="11.00" fill="#000000">psychomotor_extra_info</text>
<polygon fill="none" stroke="#000000" points="811.5,-147.2 811.5,-169.2 878.5,-169.2 878.5,-147.2 811.5,-147.2"/>
<text text-anchor="start" x="814.4365" y="-154.9" font-family="Helvetica,sans-Serif" font-size="11.00" fill="#000000">varchar[255]</text>
<polygon fill="none" stroke="#000000" points="629.5,-125.2 629.5,-147.2 811.5,-147.2 811.5,-125.2 629.5,-125.2"/>
<text text-anchor="start" x="649.5" y="-132.3" font-family="Helvetica,sans-Serif" font-size="11.00" fill="#000000">suicide_score</text>
<polygon fill="none" stroke="#000000" points="811.5,-125.2 811.5,-147.2 878.5,-147.2 878.5,-125.2 811.5,-125.2"/>
<text text-anchor="start" x="814.4365" y="-132.9" font-family="Helvetica,sans-Serif" font-size="11.00" fill="#000000">varchar[255]</text>
<polygon fill="none" stroke="#000000" points="629.5,-103.2 629.5,-125.2 811.5,-125.2 811.5,-103.2 629.5,-103.2"/>
<text text-anchor="start" x="649.5" y="-110.3" font-family="Helvetica,sans-Serif" font-size="11.00" fill="#000000">suicide_extra_info</text>
<polygon fill="none" stroke="#000000" points="811.5,-103.2 811.5,-125.2 878.5,-125.2 878.5,-103.2 811.5,-103.2"/>
<text text-anchor="start" x="814.4365" y="-110.9" font-family="Helvetica,sans-Serif" font-size="11.00" fill="#000000">varchar[255]</text>
<polygon fill="none" stroke="#000000" points="629.5,-81.2 629.5,-103.2 811.5,-103.2 811.5,-81.2 629.5,-81.2"/>
<text text-anchor="start" x="649.5" y="-88.3" font-family="Helvetica,sans-Serif" font-size="11.00" fill="#000000">difficulty</text>
<polygon fill="none" stroke="#000000" points="811.5,-81.2 811.5,-103.2 878.5,-103.2 878.5,-81.2 811.5,-81.2"/>
<text text-anchor="start" x="814.4365" y="-88.9" font-family="Helvetica,sans-Serif" font-size="11.00" fill="#000000">varchar[255]</text>
<polygon fill="none" stroke="#000000" points="629.5,-59.2 629.5,-81.2 811.5,-81.2 811.5,-59.2 629.5,-59.2"/>
<text text-anchor="start" x="649.5" y="-66.3" font-family="Helvetica,sans-Serif" font-size="11.00" fill="#000000">difficulty_extra_info</text>
<polygon fill="none" stroke="#000000" points="811.5,-59.2 811.5,-81.2 878.5,-81.2 878.5,-59.2 811.5,-59.2"/>
<text text-anchor="start" x="814.4365" y="-66.9" font-family="Helvetica,sans-Serif" font-size="11.00" fill="#000000">varchar[255]</text>
<polygon fill="#ffffff" stroke="transparent" points="629.5,-40.2 629.5,-59.2 724.5,-59.2 724.5,-40.2 629.5,-40.2"/>
<polygon fill="none" stroke="#000000" points="629.5,-40.2 629.5,-59.2 724.5,-59.2 724.5,-40.2 629.5,-40.2"/>
<text text-anchor="start" x="632.5" y="-46.3" font-family="Helvetica,sans-Serif" font-size="11.00" fill="#000000">&lt; 4</text>
<polygon fill="#ffffff" stroke="transparent" points="724.5,-40.2 724.5,-59.2 811.5,-59.2 811.5,-40.2 724.5,-40.2"/>
<polygon fill="none" stroke="#000000" points="724.5,-40.2 724.5,-59.2 811.5,-59.2 811.5,-40.2 724.5,-40.2"/>
<text text-anchor="start" x="802.3862" y="-46.3" font-family="Helvetica,sans-Serif" font-size="11.00" fill="#000000"> &#160;</text>
<polygon fill="#ffffff" stroke="transparent" points="811.5,-40.2 811.5,-59.2 878.5,-59.2 878.5,-40.2 811.5,-40.2"/>
<polygon fill="none" stroke="#000000" points="811.5,-40.2 811.5,-59.2 878.5,-59.2 878.5,-40.2 811.5,-40.2"/>
<text text-anchor="start" x="859.9053" y="-46.3" font-family="Helvetica,sans-Serif" font-size="11.00" fill="#000000">0 &gt;</text>
<polygon fill="none" stroke="#000000" stroke-width="2" points="628,-39.2 628,-677.2 879,-677.2 879,-39.2 628,-39.2"/>
</a>
</g>
</g>
<!-- groups -->
<g id="node2" class="node">
<title>groups</title>
<g id="a_node2"><a xlink:href="../../tables/groups.html" xlink:title="groups" target="_top">
<polygon fill="#ffffff" stroke="transparent" points="466,-435.7 466,-540.7 552,-540.7 552,-435.7 466,-435.7"/>
<polygon fill="#f5f5f5" stroke="transparent" points="466,-517.2 466,-540.2 552,-540.2 552,-517.2 466,-517.2"/>
<polygon fill="none" stroke="#000000" points="466,-517.2 466,-540.2 552,-540.2 552,-517.2 466,-517.2"/>
<text text-anchor="start" x="471" y="-525.8" font-family="Helvetica,sans-Serif" font-weight="bold" font-size="11.00" fill="#000000">groups</text>
<text text-anchor="start" x="517.5219" y="-525.3" font-family="Helvetica,sans-Serif" font-size="11.00" fill="#000000">[table]</text>
<polygon fill="none" stroke="#000000" points="466,-495.2 466,-517.2 552,-517.2 552,-495.2 466,-495.2"/>
<image xlink:href="../../images/primaryKeys.png" width="11px" height="12px" preserveAspectRatio="xMinYMin meet" x="471" y="-512.2"/>
<text text-anchor="start" x="495" y="-502.3" font-family="Helvetica,sans-Serif" font-size="11.00" fill="#000000">id</text>
<polygon fill="none" stroke="#000000" points="466,-473.2 466,-495.2 552,-495.2 552,-473.2 466,-473.2"/>
<image xlink:href="../../images/primaryKeys.png" width="11px" height="12px" preserveAspectRatio="xMinYMin meet" x="471" y="-490.2"/>
<text text-anchor="start" x="495" y="-480.3" font-family="Helvetica,sans-Serif" font-size="11.00" fill="#000000">name</text>
<polygon fill="none" stroke="#000000" points="466,-454.2 466,-473.2 552,-473.2 552,-454.2 466,-454.2"/>
<text text-anchor="start" x="469" y="-460.3" font-family="Helvetica,sans-Serif" font-size="11.00" fill="#000000">...</text>
<polygon fill="#ffffff" stroke="transparent" points="466,-435.2 466,-454.2 495,-454.2 495,-435.2 466,-435.2"/>
<polygon fill="none" stroke="#000000" points="466,-435.2 466,-454.2 495,-454.2 495,-435.2 466,-435.2"/>
<text text-anchor="start" x="469" y="-441.3" font-family="Helvetica,sans-Serif" font-size="11.00" fill="#000000"> &#160;</text>
<polygon fill="#ffffff" stroke="transparent" points="495,-435.2 495,-454.2 516,-454.2 516,-435.2 495,-435.2"/>
<polygon fill="none" stroke="#000000" points="495,-435.2 495,-454.2 516,-454.2 516,-435.2 495,-435.2"/>
<text text-anchor="start" x="506.8862" y="-441.3" font-family="Helvetica,sans-Serif" font-size="11.00" fill="#000000"> &#160;</text>
<polygon fill="#ffffff" stroke="transparent" points="516,-435.2 516,-454.2 552,-454.2 552,-435.2 516,-435.2"/>
<polygon fill="none" stroke="#000000" points="516,-435.2 516,-454.2 552,-454.2 552,-435.2 516,-435.2"/>
<text text-anchor="start" x="527.2904" y="-441.3" font-family="Helvetica,sans-Serif" font-size="11.00" fill="#000000">10 &gt;</text>
</a>
</g>
</g>
<!-- form_phq9&#45;&gt;groups -->
<g id="edge1" class="edge">
<title>form_phq9:w&#45;&gt;groups:e</title>
<path fill="none" stroke="#000000" d="M615.1353,-551.3692C585.8925,-538.2733 592.7941,-484.2 552,-484.2"/>
<polygon fill="#000000" stroke="#000000" points="621.651,-552.6532 628.8039,-557.7321 625.5755,-553.4266 629.5,-554.2 629.5,-554.2 629.5,-554.2 625.5755,-553.4266 630.1961,-550.6679 621.651,-552.6532 621.651,-552.6532"/>
<ellipse fill="none" stroke="#000000" cx="618.5113" cy="-552.0345" rx="3.2" ry="3.2"/>
</g>
<!-- forms -->
<g id="node3" class="node">
<title>forms</title>
<g id="a_node3"><a xlink:href="../../tables/forms.html" xlink:title="forms" target="_top">
<polygon fill="#ffffff" stroke="transparent" points="440,-630.7 440,-779.7 578,-779.7 578,-630.7 440,-630.7"/>
<polygon fill="#f5f5f5" stroke="transparent" points="440,-756.2 440,-779.2 578,-779.2 578,-756.2 440,-756.2"/>
<polygon fill="none" stroke="#000000" points="440,-756.2 440,-779.2 578,-779.2 578,-756.2 440,-756.2"/>
<text text-anchor="start" x="445" y="-764.8" font-family="Helvetica,sans-Serif" font-weight="bold" font-size="11.00" fill="#000000">forms</text>
<text text-anchor="start" x="543.0437" y="-764.3" font-family="Helvetica,sans-Serif" font-size="11.00" fill="#000000">[table]</text>
<polygon fill="none" stroke="#000000" points="440,-734.2 440,-756.2 578,-756.2 578,-734.2 440,-734.2"/>
<image xlink:href="../../images/primaryKeys.png" width="11px" height="12px" preserveAspectRatio="xMinYMin meet" x="445" y="-751.2"/>
<text text-anchor="start" x="460" y="-741.3" font-family="Helvetica,sans-Serif" font-size="11.00" fill="#000000">id</text>
<polygon fill="#ffffff" stroke="transparent" points="440,-712.2 440,-734.2 578,-734.2 578,-712.2 440,-712.2"/>
<polygon fill="none" stroke="#000000" points="440,-712.2 440,-734.2 578,-734.2 578,-712.2 440,-712.2"/>
<text text-anchor="start" x="460" y="-719.3" font-family="Helvetica,sans-Serif" font-size="11.00" fill="#000000">encounter</text>
<polygon fill="none" stroke="#000000" points="440,-690.2 440,-712.2 578,-712.2 578,-690.2 440,-690.2"/>
<image xlink:href="../../images/primaryKeys.png" width="11px" height="12px" preserveAspectRatio="xMinYMin meet" x="445" y="-707.2"/>
<text text-anchor="start" x="460" y="-697.3" font-family="Helvetica,sans-Serif" font-size="11.00" fill="#000000">form_id</text>
<polygon fill="#ffffff" stroke="transparent" points="440,-668.2 440,-690.2 578,-690.2 578,-668.2 440,-668.2"/>
<polygon fill="none" stroke="#000000" points="440,-668.2 440,-690.2 578,-690.2 578,-668.2 440,-668.2"/>
<image xlink:href="../../images/foreignKeys.png" width="11px" height="12px" preserveAspectRatio="xMinYMin meet" x="445" y="-685.2"/>
<text text-anchor="start" x="460" y="-675.3" font-family="Helvetica,sans-Serif" font-size="11.00" fill="#000000">pid</text>
<polygon fill="none" stroke="#000000" points="440,-649.2 440,-668.2 578,-668.2 578,-649.2 440,-649.2"/>
<text text-anchor="start" x="443" y="-655.3" font-family="Helvetica,sans-Serif" font-size="11.00" fill="#000000">...</text>
<polygon fill="#ffffff" stroke="transparent" points="440,-630.2 440,-649.2 500,-649.2 500,-630.2 440,-630.2"/>
<polygon fill="none" stroke="#000000" points="440,-630.2 440,-649.2 500,-649.2 500,-630.2 440,-630.2"/>
<text text-anchor="start" x="443" y="-636.3" font-family="Helvetica,sans-Serif" font-size="11.00" fill="#000000">&lt; 1</text>
<polygon fill="#ffffff" stroke="transparent" points="500,-630.2 500,-649.2 531,-649.2 531,-630.2 500,-630.2"/>
<polygon fill="none" stroke="#000000" points="500,-630.2 500,-649.2 531,-649.2 531,-630.2 500,-630.2"/>
<text text-anchor="start" x="521.8862" y="-636.3" font-family="Helvetica,sans-Serif" font-size="11.00" fill="#000000"> &#160;</text>
<polygon fill="#ffffff" stroke="transparent" points="531,-630.2 531,-649.2 578,-649.2 578,-630.2 531,-630.2"/>
<polygon fill="none" stroke="#000000" points="531,-630.2 531,-649.2 578,-649.2 578,-630.2 531,-630.2"/>
<text text-anchor="start" x="553.2904" y="-636.3" font-family="Helvetica,sans-Serif" font-size="11.00" fill="#000000">10 &gt;</text>
</a>
</g>
</g>
<!-- form_phq9&#45;&gt;forms -->
<g id="edge2" class="edge">
<title>form_phq9:w&#45;&gt;forms:e</title>
<path fill="none" stroke="#000000" d="M619.2732,-644.4408C598.2119,-655.2179 608.7278,-701.2 578,-701.2"/>
<polygon fill="#000000" stroke="#000000" points="627.8624,-638.4639 629.5747,-646.2785 628.0118,-646.621 626.2994,-638.8064 627.8624,-638.4639"/>
<polyline fill="none" stroke="#000000" points="629.5,-642.2 625.5927,-643.0562 "/>
<ellipse fill="none" stroke="#000000" cx="622.4669" cy="-643.7411" rx="3.2" ry="3.2"/>
</g>
<!-- patient_data -->
<g id="node4" class="node">
<title>patient_data</title>
<g id="a_node4"><a xlink:href="../../tables/patient_data.html" xlink:title="patient_data" target="_top">
<polygon fill="#ffffff" stroke="transparent" points="224,-589.7 224,-826.7 391,-826.7 391,-589.7 224,-589.7"/>
<polygon fill="#f5f5f5" stroke="transparent" points="224.5,-803.2 224.5,-826.2 391.5,-826.2 391.5,-803.2 224.5,-803.2"/>
<polygon fill="none" stroke="#000000" points="224.5,-803.2 224.5,-826.2 391.5,-826.2 391.5,-803.2 224.5,-803.2"/>
<text text-anchor="start" x="229.5" y="-811.8" font-family="Helvetica,sans-Serif" font-weight="bold" font-size="11.00" fill="#000000">patient_data</text>
<text text-anchor="start" x="356.5437" y="-811.3" font-family="Helvetica,sans-Serif" font-size="11.00" fill="#000000">[table]</text>
<polygon fill="#ffffff" stroke="transparent" points="224.5,-781.2 224.5,-803.2 391.5,-803.2 391.5,-781.2 224.5,-781.2"/>
<polygon fill="none" stroke="#000000" points="224.5,-781.2 224.5,-803.2 391.5,-803.2 391.5,-781.2 224.5,-781.2"/>
<text text-anchor="start" x="244.5" y="-788.3" font-family="Helvetica,sans-Serif" font-size="11.00" fill="#000000">id</text>
<polygon fill="#ffffff" stroke="transparent" points="224.5,-759.2 224.5,-781.2 391.5,-781.2 391.5,-759.2 224.5,-759.2"/>
<polygon fill="none" stroke="#000000" points="224.5,-759.2 224.5,-781.2 391.5,-781.2 391.5,-759.2 224.5,-759.2"/>
<text text-anchor="start" x="244.5" y="-766.3" font-family="Helvetica,sans-Serif" font-size="11.00" fill="#000000">uuid</text>
<polygon fill="none" stroke="#000000" points="224.5,-737.2 224.5,-759.2 391.5,-759.2 391.5,-737.2 224.5,-737.2"/>
<image xlink:href="../../images/foreignKeys.png" width="11px" height="12px" preserveAspectRatio="xMinYMin meet" x="229.5" y="-754.2"/>
<text text-anchor="start" x="244.5" y="-744.3" font-family="Helvetica,sans-Serif" font-size="11.00" fill="#000000">pharmacy_id</text>
<polygon fill="none" stroke="#000000" points="224.5,-715.2 224.5,-737.2 391.5,-737.2 391.5,-715.2 224.5,-715.2"/>
<image xlink:href="../../images/foreignKeys.png" width="11px" height="12px" preserveAspectRatio="xMinYMin meet" x="229.5" y="-732.2"/>
<text text-anchor="start" x="244.5" y="-722.3" font-family="Helvetica,sans-Serif" font-size="11.00" fill="#000000">providerID</text>
<polygon fill="none" stroke="#000000" points="224.5,-693.2 224.5,-715.2 391.5,-715.2 391.5,-693.2 224.5,-693.2"/>
<image xlink:href="../../images/foreignKeys.png" width="11px" height="12px" preserveAspectRatio="xMinYMin meet" x="229.5" y="-710.2"/>
<text text-anchor="start" x="244.5" y="-700.3" font-family="Helvetica,sans-Serif" font-size="11.00" fill="#000000">ref_providerID</text>
<polygon fill="none" stroke="#000000" points="224.5,-671.2 224.5,-693.2 391.5,-693.2 391.5,-671.2 224.5,-671.2"/>
<image xlink:href="../../images/primaryKeys.png" width="11px" height="12px" preserveAspectRatio="xMinYMin meet" x="229.5" y="-688.2"/>
<text text-anchor="start" x="244.5" y="-678.3" font-family="Helvetica,sans-Serif" font-size="11.00" fill="#000000">pid</text>
<polygon fill="none" stroke="#000000" points="224.5,-649.2 224.5,-671.2 391.5,-671.2 391.5,-649.2 224.5,-649.2"/>
<image xlink:href="../../images/foreignKeys.png" width="11px" height="12px" preserveAspectRatio="xMinYMin meet" x="229.5" y="-666.2"/>
<text text-anchor="start" x="244.5" y="-656.3" font-family="Helvetica,sans-Serif" font-size="11.00" fill="#000000">created_by</text>
<polygon fill="none" stroke="#000000" points="224.5,-627.2 224.5,-649.2 391.5,-649.2 391.5,-627.2 224.5,-627.2"/>
<image xlink:href="../../images/foreignKeys.png" width="11px" height="12px" preserveAspectRatio="xMinYMin meet" x="229.5" y="-644.2"/>
<text text-anchor="start" x="244.5" y="-634.3" font-family="Helvetica,sans-Serif" font-size="11.00" fill="#000000">updated_by</text>
<polygon fill="none" stroke="#000000" points="224.5,-608.2 224.5,-627.2 391.5,-627.2 391.5,-608.2 224.5,-608.2"/>
<text text-anchor="start" x="227.5" y="-614.3" font-family="Helvetica,sans-Serif" font-size="11.00" fill="#000000">...</text>
<polygon fill="#ffffff" stroke="transparent" points="224.5,-589.2 224.5,-608.2 298.5,-608.2 298.5,-589.2 224.5,-589.2"/>
<polygon fill="none" stroke="#000000" points="224.5,-589.2 224.5,-608.2 298.5,-608.2 298.5,-589.2 224.5,-589.2"/>
<text text-anchor="start" x="227.5" y="-595.3" font-family="Helvetica,sans-Serif" font-size="11.00" fill="#000000">&lt; 5</text>
<polygon fill="#ffffff" stroke="transparent" points="298.5,-589.2 298.5,-608.2 337.5,-608.2 337.5,-589.2 298.5,-589.2"/>
<polygon fill="none" stroke="#000000" points="298.5,-589.2 298.5,-608.2 337.5,-608.2 337.5,-589.2 298.5,-589.2"/>
<text text-anchor="start" x="328.3862" y="-595.3" font-family="Helvetica,sans-Serif" font-size="11.00" fill="#000000"> &#160;</text>
<polygon fill="#ffffff" stroke="transparent" points="337.5,-589.2 337.5,-608.2 391.5,-608.2 391.5,-589.2 337.5,-589.2"/>
<polygon fill="none" stroke="#000000" points="337.5,-589.2 337.5,-608.2 391.5,-608.2 391.5,-589.2 337.5,-589.2"/>
<text text-anchor="start" x="366.7904" y="-595.3" font-family="Helvetica,sans-Serif" font-size="11.00" fill="#000000">80 &gt;</text>
</a>
</g>
</g>
<!-- form_phq9&#45;&gt;patient_data -->
<g id="edge3" class="edge">
<title>form_phq9:w&#45;&gt;patient_data:e</title>
<path fill="none" stroke="#000000" d="M614.9982,-597.9835C537.2004,-595.6759 502.9634,-576.5409 432,-620.2 403.9669,-637.4469 424.4137,-682.2 391.5,-682.2"/>
<polygon fill="#000000" stroke="#000000" points="621.5009,-598.0806 629.4462,-601.7996 625.5004,-598.1403 629.5,-598.2 629.5,-598.2 629.5,-598.2 625.5004,-598.1403 629.5538,-594.6004 621.5009,-598.0806 621.5009,-598.0806"/>
<ellipse fill="none" stroke="#000000" cx="618.3012" cy="-598.0328" rx="3.2" ry="3.2"/>
</g>
<!-- users -->
<g id="node5" class="node">
<title>users</title>
<g id="a_node5"><a xlink:href="../../tables/users.html" xlink:title="users" target="_top">
<polygon fill="#ffffff" stroke="transparent" points="8,-523.7 8,-694.7 175,-694.7 175,-523.7 8,-523.7"/>
<polygon fill="#f5f5f5" stroke="transparent" points="8.5,-671.2 8.5,-694.2 175.5,-694.2 175.5,-671.2 8.5,-671.2"/>
<polygon fill="none" stroke="#000000" points="8.5,-671.2 8.5,-694.2 175.5,-694.2 175.5,-671.2 8.5,-671.2"/>
<text text-anchor="start" x="13.5" y="-679.8" font-family="Helvetica,sans-Serif" font-weight="bold" font-size="11.00" fill="#000000">users</text>
<text text-anchor="start" x="140.5437" y="-679.3" font-family="Helvetica,sans-Serif" font-size="11.00" fill="#000000">[table]</text>
<polygon fill="none" stroke="#000000" points="8.5,-649.2 8.5,-671.2 175.5,-671.2 175.5,-649.2 8.5,-649.2"/>
<image xlink:href="../../images/primaryKeys.png" width="11px" height="12px" preserveAspectRatio="xMinYMin meet" x="13.5" y="-666.2"/>
<text text-anchor="start" x="28.5" y="-656.3" font-family="Helvetica,sans-Serif" font-size="11.00" fill="#000000">id</text>
<polygon fill="#ffffff" stroke="transparent" points="8.5,-627.2 8.5,-649.2 175.5,-649.2 175.5,-627.2 8.5,-627.2"/>
<polygon fill="none" stroke="#000000" points="8.5,-627.2 8.5,-649.2 175.5,-649.2 175.5,-627.2 8.5,-627.2"/>
<text text-anchor="start" x="28.5" y="-634.3" font-family="Helvetica,sans-Serif" font-size="11.00" fill="#000000">uuid</text>
<polygon fill="none" stroke="#000000" points="8.5,-605.2 8.5,-627.2 175.5,-627.2 175.5,-605.2 8.5,-605.2"/>
<image xlink:href="../../images/primaryKeys.png" width="11px" height="12px" preserveAspectRatio="xMinYMin meet" x="13.5" y="-622.2"/>
<text text-anchor="start" x="28.5" y="-612.3" font-family="Helvetica,sans-Serif" font-size="11.00" fill="#000000">username</text>
<polygon fill="#ffffff" stroke="transparent" points="8.5,-583.2 8.5,-605.2 175.5,-605.2 175.5,-583.2 8.5,-583.2"/>
<polygon fill="none" stroke="#000000" points="8.5,-583.2 8.5,-605.2 175.5,-605.2 175.5,-583.2 8.5,-583.2"/>
<text text-anchor="start" x="28.5" y="-590.3" font-family="Helvetica,sans-Serif" font-size="11.00" fill="#000000">google_signin_email</text>
<polygon fill="#ffffff" stroke="transparent" points="8.5,-561.2 8.5,-583.2 175.5,-583.2 175.5,-561.2 8.5,-561.2"/>
<polygon fill="none" stroke="#000000" points="8.5,-561.2 8.5,-583.2 175.5,-583.2 175.5,-561.2 8.5,-561.2"/>
<text text-anchor="start" x="28.5" y="-568.3" font-family="Helvetica,sans-Serif" font-size="11.00" fill="#000000">abook_type</text>
<polygon fill="none" stroke="#000000" points="8.5,-542.2 8.5,-561.2 175.5,-561.2 175.5,-542.2 8.5,-542.2"/>
<text text-anchor="start" x="11.5" y="-548.3" font-family="Helvetica,sans-Serif" font-size="11.00" fill="#000000">...</text>
<polygon fill="#ffffff" stroke="transparent" points="8.5,-523.2 8.5,-542.2 78.5,-542.2 78.5,-523.2 8.5,-523.2"/>
<polygon fill="none" stroke="#000000" points="8.5,-523.2 8.5,-542.2 78.5,-542.2 78.5,-523.2 8.5,-523.2"/>
<text text-anchor="start" x="11.5" y="-529.3" font-family="Helvetica,sans-Serif" font-size="11.00" fill="#000000"> &#160;</text>
<polygon fill="#ffffff" stroke="transparent" points="78.5,-523.2 78.5,-542.2 119.5,-542.2 119.5,-523.2 78.5,-523.2"/>
<polygon fill="none" stroke="#000000" points="78.5,-523.2 78.5,-542.2 119.5,-542.2 119.5,-523.2 78.5,-523.2"/>
<text text-anchor="start" x="110.3862" y="-529.3" font-family="Helvetica,sans-Serif" font-size="11.00" fill="#000000"> &#160;</text>
<polygon fill="#ffffff" stroke="transparent" points="119.5,-523.2 119.5,-542.2 175.5,-542.2 175.5,-523.2 119.5,-523.2"/>
<polygon fill="none" stroke="#000000" points="119.5,-523.2 119.5,-542.2 175.5,-542.2 175.5,-523.2 119.5,-523.2"/>
<text text-anchor="start" x="150.7904" y="-529.3" font-family="Helvetica,sans-Serif" font-size="11.00" fill="#000000">38 &gt;</text>
</a>
</g>
</g>
<!-- form_phq9&#45;&gt;users -->
<g id="edge4" class="edge">
<title>form_phq9:w&#45;&gt;users:e</title>
<path fill="none" stroke="#000000" d="M614.9911,-575.8902C514.2128,-571.9721 290.1835,-532.9794 216,-579.2 181.8389,-600.4843 215.7492,-660.2 175.5,-660.2"/>
<polygon fill="#000000" stroke="#000000" points="621.5018,-576.0291 629.4231,-579.7992 625.5009,-576.1146 629.5,-576.2 629.5,-576.2 629.5,-576.2 625.5009,-576.1146 629.5769,-572.6008 621.5018,-576.0291 621.5018,-576.0291"/>
<ellipse fill="none" stroke="#000000" cx="618.3026" cy="-575.9608" rx="3.2" ry="3.2"/>
</g>
<!-- forms&#45;&gt;patient_data -->
<g id="edge5" class="edge">
<title>forms:w&#45;&gt;patient_data:e</title>
<path fill="none" stroke="#000000" d="M425.2718,-679.7502C414.2833,-680.6163 407.1914,-682.2 391.5,-682.2"/>
<polygon fill="#000000" stroke="#000000" points="432.0056,-679.4987 440.1344,-682.7975 436.0028,-679.3494 440,-679.2 440,-679.2 440,-679.2 436.0028,-679.3494 439.8656,-675.6025 432.0056,-679.4987 432.0056,-679.4987"/>
<ellipse fill="none" stroke="#000000" cx="428.8078" cy="-679.6182" rx="3.2" ry="3.2"/>
</g>
<!-- patient_data&#45;&gt;users -->
<g id="edge6" class="edge">
<title>patient_data:w&#45;&gt;users:e</title>
<path fill="none" stroke="#000000" d="M209.9909,-660.2C198.6774,-660.2 191.4931,-660.2 175.5,-660.2"/>
<polygon fill="#000000" stroke="#000000" points="216.5,-660.2001 224.5,-663.8 220.5,-660.2 224.5,-660.2 224.5,-660.2 224.5,-660.2 220.5,-660.2 224.5,-656.6 216.5,-660.2001 216.5,-660.2001"/>
<ellipse fill="none" stroke="#000000" cx="213.3" cy="-660.2001" rx="3.2" ry="3.2"/>
</g>
<!-- patient_data&#45;&gt;users -->
<g id="edge7" class="edge">
<title>patient_data:w&#45;&gt;users:e</title>
<path fill="none" stroke="#000000" d="M210.8768,-721.4534C194.2322,-706.3202 206.0399,-660.2 175.5,-660.2"/>
<polygon fill="#000000" stroke="#000000" points="216.9454,-723.5678 223.3155,-729.5996 220.7227,-724.8839 224.5,-726.2 224.5,-726.2 224.5,-726.2 220.7227,-724.8839 225.6845,-722.8004 216.9454,-723.5678 216.9454,-723.5678"/>
<ellipse fill="none" stroke="#000000" cx="213.9236" cy="-722.5149" rx="3.2" ry="3.2"/>
</g>
<!-- patient_data&#45;&gt;users -->
<g id="edge8" class="edge">
<title>patient_data:w&#45;&gt;users:e</title>
<path fill="none" stroke="#000000" d="M210.8171,-699.4912C197.5046,-688.1404 198.824,-660.2 175.5,-660.2"/>
<polygon fill="#000000" stroke="#000000" points="216.9354,-701.5967 223.3285,-707.6041 220.7177,-702.8984 224.5,-704.2 224.5,-704.2 224.5,-704.2 220.7177,-702.8984 225.6715,-700.7959 216.9354,-701.5967 216.9354,-701.5967"/>
<ellipse fill="none" stroke="#000000" cx="213.9096" cy="-700.5554" rx="3.2" ry="3.2"/>
</g>
<!-- patient_data&#45;&gt;users -->
<g id="edge9" class="edge">
<title>patient_data:w&#45;&gt;users:e</title>
<path fill="none" stroke="#000000" d="M210.1297,-641.6375C198.5865,-647.825 193.4041,-660.2 175.5,-660.2"/>
<polygon fill="#000000" stroke="#000000" points="216.7195,-640.0612 225.3375,-641.7012 220.6098,-639.1306 224.5,-638.2 224.5,-638.2 224.5,-638.2 220.6098,-639.1306 223.6625,-634.6988 216.7195,-640.0612 216.7195,-640.0612"/>
<ellipse fill="none" stroke="#000000" cx="213.6073" cy="-640.8057" rx="3.2" ry="3.2"/>
</g>
</g>
</svg>
