<?xml version="1.0" encoding="UTF-8" standalone="no"?>
<!DOCTYPE svg PUBLIC "-//W3C//DTD SVG 1.1//EN"
 "http://www.w3.org/Graphics/SVG/1.1/DTD/svg11.dtd">
<!-- Generated by graphviz version 2.40.1 (20161225.0304)
 -->
<!-- Title: twoDegreesRelationshipsDiagram Pages: 1 -->
<svg width="598pt" height="989pt"
 viewBox="0.00 0.00 598.00 989.20" xmlns="http://www.w3.org/2000/svg" xmlns:xlink="http://www.w3.org/1999/xlink">
<g id="graph0" class="graph" transform="scale(1 1) rotate(0) translate(4 985.2)">
<title>twoDegreesRelationshipsDiagram</title>
<polygon fill="#ffffff" stroke="transparent" points="-4,4 -4,-985.2 594,-985.2 594,4 -4,4"/>
<text text-anchor="middle" x="72.4936" y="-7.3" font-family="Helvetica,sans-Serif" font-size="11.00" fill="#000000">Generated by SchemaSpy</text>
<!-- form_clinic_note -->
<g id="node1" class="node">
<title>form_clinic_note</title>
<g id="a_node1"><a xlink:href="../../tables/form_clinic_note.html" xlink:title="form_clinic_note" target="_top">
<polygon fill="#ffffff" stroke="transparent" points="368,-448.7 368,-648.7 582,-648.7 582,-448.7 368,-448.7"/>
<polygon fill="#f5f5f5" stroke="transparent" points="370,-623.7 370,-646.7 580,-646.7 580,-623.7 370,-623.7"/>
<polygon fill="none" stroke="#000000" points="370,-623.7 370,-646.7 580,-646.7 580,-623.7 370,-623.7"/>
<text text-anchor="start" x="375" y="-632.3" font-family="Helvetica,sans-Serif" font-weight="bold" font-size="11.00" fill="#000000">form_clinic_note</text>
<text text-anchor="start" x="545.0437" y="-631.8" font-family="Helvetica,sans-Serif" font-size="11.00" fill="#000000">[table]</text>
<polygon fill="none" stroke="#000000" points="370,-601.7 370,-623.7 513,-623.7 513,-601.7 370,-601.7"/>
<image xlink:href="../../images/primaryKeys.png" width="11px" height="12px" preserveAspectRatio="xMinYMin meet" x="375" y="-618.7"/>
<text text-anchor="start" x="390" y="-608.8" font-family="Helvetica,sans-Serif" font-size="11.00" fill="#000000">id</text>
<polygon fill="none" stroke="#000000" points="513,-601.7 513,-623.7 580,-623.7 580,-601.7 513,-601.7"/>
<text text-anchor="start" x="516" y="-609.4" font-family="Helvetica,sans-Serif" font-size="11.00" fill="#000000">bigint[19]</text>
<polygon fill="none" stroke="#000000" points="370,-579.7 370,-601.7 513,-601.7 513,-579.7 370,-579.7"/>
<text text-anchor="start" x="390" y="-586.8" font-family="Helvetica,sans-Serif" font-size="11.00" fill="#000000">activity</text>
<polygon fill="none" stroke="#000000" points="513,-579.7 513,-601.7 580,-601.7 580,-579.7 513,-579.7"/>
<text text-anchor="start" x="516" y="-587.4" font-family="Helvetica,sans-Serif" font-size="11.00" fill="#000000">bit[1]</text>
<polygon fill="none" stroke="#000000" points="370,-557.7 370,-579.7 513,-579.7 513,-557.7 370,-557.7"/>
<text text-anchor="start" x="390" y="-564.8" font-family="Helvetica,sans-Serif" font-size="11.00" fill="#000000">history</text>
<polygon fill="none" stroke="#000000" points="513,-557.7 513,-579.7 580,-579.7 580,-557.7 513,-557.7"/>
<text text-anchor="start" x="516" y="-565.4" font-family="Helvetica,sans-Serif" font-size="11.00" fill="#000000">text[65535]</text>
<polygon fill="none" stroke="#000000" points="370,-535.7 370,-557.7 513,-557.7 513,-535.7 370,-535.7"/>
<text text-anchor="start" x="390" y="-542.8" font-family="Helvetica,sans-Serif" font-size="11.00" fill="#000000">examination</text>
<polygon fill="none" stroke="#000000" points="513,-535.7 513,-557.7 580,-557.7 580,-535.7 513,-535.7"/>
<text text-anchor="start" x="516" y="-543.4" font-family="Helvetica,sans-Serif" font-size="11.00" fill="#000000">text[65535]</text>
<polygon fill="none" stroke="#000000" points="370,-513.7 370,-535.7 513,-535.7 513,-513.7 370,-513.7"/>
<text text-anchor="start" x="390" y="-520.8" font-family="Helvetica,sans-Serif" font-size="11.00" fill="#000000">plan</text>
<polygon fill="none" stroke="#000000" points="513,-513.7 513,-535.7 580,-535.7 580,-513.7 513,-513.7"/>
<text text-anchor="start" x="516" y="-521.4" font-family="Helvetica,sans-Serif" font-size="11.00" fill="#000000">text[65535]</text>
<polygon fill="none" stroke="#000000" points="370,-491.7 370,-513.7 513,-513.7 513,-491.7 370,-491.7"/>
<text text-anchor="start" x="390" y="-498.8" font-family="Helvetica,sans-Serif" font-size="11.00" fill="#000000">followup_required</text>
<polygon fill="none" stroke="#000000" points="513,-491.7 513,-513.7 580,-513.7 580,-491.7 513,-491.7"/>
<text text-anchor="start" x="516" y="-499.4" font-family="Helvetica,sans-Serif" font-size="11.00" fill="#000000">int[10]</text>
<polygon fill="none" stroke="#000000" points="370,-469.7 370,-491.7 513,-491.7 513,-469.7 370,-469.7"/>
<text text-anchor="start" x="390" y="-476.8" font-family="Helvetica,sans-Serif" font-size="11.00" fill="#000000">followup_timing</text>
<polygon fill="none" stroke="#000000" points="513,-469.7 513,-491.7 580,-491.7 580,-469.7 513,-469.7"/>
<text text-anchor="start" x="515.9365" y="-477.4" font-family="Helvetica,sans-Serif" font-size="11.00" fill="#000000">varchar[255]</text>
<polygon fill="#ffffff" stroke="transparent" points="370,-450.7 370,-469.7 446,-469.7 446,-450.7 370,-450.7"/>
<polygon fill="none" stroke="#000000" points="370,-450.7 370,-469.7 446,-469.7 446,-450.7 370,-450.7"/>
<text text-anchor="start" x="373" y="-456.8" font-family="Helvetica,sans-Serif" font-size="11.00" fill="#000000">&lt; 1</text>
<polygon fill="#ffffff" stroke="transparent" points="446,-450.7 446,-469.7 513,-469.7 513,-450.7 446,-450.7"/>
<polygon fill="none" stroke="#000000" points="446,-450.7 446,-469.7 513,-469.7 513,-450.7 446,-450.7"/>
<text text-anchor="start" x="503.8862" y="-456.8" font-family="Helvetica,sans-Serif" font-size="11.00" fill="#000000"> &#160;</text>
<polygon fill="#ffffff" stroke="transparent" points="513,-450.7 513,-469.7 580,-469.7 580,-450.7 513,-450.7"/>
<polygon fill="none" stroke="#000000" points="513,-450.7 513,-469.7 580,-469.7 580,-450.7 513,-450.7"/>
<text text-anchor="start" x="561.4053" y="-456.8" font-family="Helvetica,sans-Serif" font-size="11.00" fill="#000000">0 &gt;</text>
<polygon fill="none" stroke="#000000" stroke-width="2" points="369,-449.7 369,-647.7 581,-647.7 581,-449.7 369,-449.7"/>
</a>
</g>
</g>
<!-- forms -->
<g id="node2" class="node">
<title>forms</title>
<g id="a_node2"><a xlink:href="../../tables/forms.html" xlink:title="forms" target="_top">
<polygon fill="#ffffff" stroke="transparent" points="181,-404.2 181,-553.2 319,-553.2 319,-404.2 181,-404.2"/>
<polygon fill="#f5f5f5" stroke="transparent" points="181,-529.7 181,-552.7 319,-552.7 319,-529.7 181,-529.7"/>
<polygon fill="none" stroke="#000000" points="181,-529.7 181,-552.7 319,-552.7 319,-529.7 181,-529.7"/>
<text text-anchor="start" x="186" y="-538.3" font-family="Helvetica,sans-Serif" font-weight="bold" font-size="11.00" fill="#000000">forms</text>
<text text-anchor="start" x="284.0437" y="-537.8" font-family="Helvetica,sans-Serif" font-size="11.00" fill="#000000">[table]</text>
<polygon fill="none" stroke="#000000" points="181,-507.7 181,-529.7 319,-529.7 319,-507.7 181,-507.7"/>
<image xlink:href="../../images/primaryKeys.png" width="11px" height="12px" preserveAspectRatio="xMinYMin meet" x="186" y="-524.7"/>
<text text-anchor="start" x="201" y="-514.8" font-family="Helvetica,sans-Serif" font-size="11.00" fill="#000000">id</text>
<polygon fill="#ffffff" stroke="transparent" points="181,-485.7 181,-507.7 319,-507.7 319,-485.7 181,-485.7"/>
<polygon fill="none" stroke="#000000" points="181,-485.7 181,-507.7 319,-507.7 319,-485.7 181,-485.7"/>
<text text-anchor="start" x="201" y="-492.8" font-family="Helvetica,sans-Serif" font-size="11.00" fill="#000000">encounter</text>
<polygon fill="none" stroke="#000000" points="181,-463.7 181,-485.7 319,-485.7 319,-463.7 181,-463.7"/>
<image xlink:href="../../images/primaryKeys.png" width="11px" height="12px" preserveAspectRatio="xMinYMin meet" x="186" y="-480.7"/>
<text text-anchor="start" x="201" y="-470.8" font-family="Helvetica,sans-Serif" font-size="11.00" fill="#000000">form_id</text>
<polygon fill="#ffffff" stroke="transparent" points="181,-441.7 181,-463.7 319,-463.7 319,-441.7 181,-441.7"/>
<polygon fill="none" stroke="#000000" points="181,-441.7 181,-463.7 319,-463.7 319,-441.7 181,-441.7"/>
<image xlink:href="../../images/foreignKeys.png" width="11px" height="12px" preserveAspectRatio="xMinYMin meet" x="186" y="-458.7"/>
<text text-anchor="start" x="201" y="-448.8" font-family="Helvetica,sans-Serif" font-size="11.00" fill="#000000">pid</text>
<polygon fill="none" stroke="#000000" points="181,-422.7 181,-441.7 319,-441.7 319,-422.7 181,-422.7"/>
<text text-anchor="start" x="184" y="-428.8" font-family="Helvetica,sans-Serif" font-size="11.00" fill="#000000">...</text>
<polygon fill="#ffffff" stroke="transparent" points="181,-403.7 181,-422.7 241,-422.7 241,-403.7 181,-403.7"/>
<polygon fill="none" stroke="#000000" points="181,-403.7 181,-422.7 241,-422.7 241,-403.7 181,-403.7"/>
<text text-anchor="start" x="184" y="-409.8" font-family="Helvetica,sans-Serif" font-size="11.00" fill="#000000">&lt; 1</text>
<polygon fill="#ffffff" stroke="transparent" points="241,-403.7 241,-422.7 272,-422.7 272,-403.7 241,-403.7"/>
<polygon fill="none" stroke="#000000" points="241,-403.7 241,-422.7 272,-422.7 272,-403.7 241,-403.7"/>
<text text-anchor="start" x="262.8862" y="-409.8" font-family="Helvetica,sans-Serif" font-size="11.00" fill="#000000"> &#160;</text>
<polygon fill="#ffffff" stroke="transparent" points="272,-403.7 272,-422.7 319,-422.7 319,-403.7 272,-403.7"/>
<polygon fill="none" stroke="#000000" points="272,-403.7 272,-422.7 319,-422.7 319,-403.7 272,-403.7"/>
<text text-anchor="start" x="294.2904" y="-409.8" font-family="Helvetica,sans-Serif" font-size="11.00" fill="#000000">10 &gt;</text>
</a>
</g>
</g>
<!-- form_clinic_note&#45;&gt;forms -->
<g id="edge1" class="edge">
<title>form_clinic_note:w&#45;&gt;forms:e</title>
<path fill="none" stroke="#000000" d="M359.655,-611.2436C313.7404,-596.495 380.4287,-474.7 319,-474.7"/>
<polygon fill="#000000" stroke="#000000" points="369.7655,-608.6275 368.6501,-616.5494 367.0658,-616.3263 368.1811,-608.4045 369.7655,-608.6275"/>
<polyline fill="none" stroke="#000000" points="370,-612.7 366.0391,-612.1423 "/>
<ellipse fill="none" stroke="#000000" cx="362.8703" cy="-611.6962" rx="3.2" ry="3.2"/>
</g>
<!-- patient_data -->
<g id="node4" class="node">
<title>patient_data</title>
<g id="a_node4"><a xlink:href="../../tables/patient_data.html" xlink:title="patient_data" target="_top">
<polygon fill="#ffffff" stroke="transparent" points="8,-352.2 8,-413.2 132,-413.2 132,-352.2 8,-352.2"/>
<polygon fill="#f5f5f5" stroke="transparent" points="8,-389.7 8,-412.7 132,-412.7 132,-389.7 8,-389.7"/>
<polygon fill="none" stroke="#000000" points="8,-389.7 8,-412.7 132,-412.7 132,-389.7 8,-389.7"/>
<text text-anchor="start" x="13" y="-398.3" font-family="Helvetica,sans-Serif" font-weight="bold" font-size="11.00" fill="#000000">patient_data</text>
<text text-anchor="start" x="97.5219" y="-397.8" font-family="Helvetica,sans-Serif" font-size="11.00" fill="#000000">[table]</text>
<polygon fill="none" stroke="#000000" points="8,-370.7 8,-389.7 132,-389.7 132,-370.7 8,-370.7"/>
<text text-anchor="start" x="11" y="-376.8" font-family="Helvetica,sans-Serif" font-size="11.00" fill="#000000">...</text>
<polygon fill="#ffffff" stroke="transparent" points="8,-351.7 8,-370.7 61,-370.7 61,-351.7 8,-351.7"/>
<polygon fill="none" stroke="#000000" points="8,-351.7 8,-370.7 61,-370.7 61,-351.7 8,-351.7"/>
<text text-anchor="start" x="11" y="-357.8" font-family="Helvetica,sans-Serif" font-size="11.00" fill="#000000">&lt; 5</text>
<polygon fill="#ffffff" stroke="transparent" points="61,-351.7 61,-370.7 89,-370.7 89,-351.7 61,-351.7"/>
<polygon fill="none" stroke="#000000" points="61,-351.7 61,-370.7 89,-370.7 89,-351.7 61,-351.7"/>
<text text-anchor="start" x="79.8862" y="-357.8" font-family="Helvetica,sans-Serif" font-size="11.00" fill="#000000"> &#160;</text>
<polygon fill="#ffffff" stroke="transparent" points="89,-351.7 89,-370.7 132,-370.7 132,-351.7 89,-351.7"/>
<polygon fill="none" stroke="#000000" points="89,-351.7 89,-370.7 132,-370.7 132,-351.7 89,-351.7"/>
<text text-anchor="start" x="107.2904" y="-357.8" font-family="Helvetica,sans-Serif" font-size="11.00" fill="#000000">80 &gt;</text>
</a>
</g>
</g>
<!-- forms&#45;&gt;patient_data -->
<g id="edge19" class="edge">
<title>forms:w&#45;&gt;patient_data:e</title>
<path fill="none" stroke="#000000" d="M167.1598,-447.9103C149.3684,-431.6697 164.9702,-379.7 132,-379.7"/>
<polygon fill="#000000" stroke="#000000" points="173.4399,-450.0836 179.8226,-456.102 177.22,-451.3918 181,-452.7 181,-452.7 181,-452.7 177.22,-451.3918 182.1774,-449.298 173.4399,-450.0836 173.4399,-450.0836"/>
<ellipse fill="none" stroke="#000000" cx="170.4159" cy="-449.0371" rx="3.2" ry="3.2"/>
</g>
<!-- form_gad7 -->
<g id="node3" class="node">
<title>form_gad7</title>
<g id="a_node3"><a xlink:href="../../tables/form_gad7.html" xlink:title="form_gad7" target="_top">
<polygon fill="#ffffff" stroke="transparent" points="420,-916.2 420,-977.2 530,-977.2 530,-916.2 420,-916.2"/>
<polygon fill="#f5f5f5" stroke="transparent" points="420,-953.7 420,-976.7 530,-976.7 530,-953.7 420,-953.7"/>
<polygon fill="none" stroke="#000000" points="420,-953.7 420,-976.7 530,-976.7 530,-953.7 420,-953.7"/>
<text text-anchor="start" x="425" y="-962.3" font-family="Helvetica,sans-Serif" font-weight="bold" font-size="11.00" fill="#000000">form_gad7</text>
<text text-anchor="start" x="495.5219" y="-961.8" font-family="Helvetica,sans-Serif" font-size="11.00" fill="#000000">[table]</text>
<polygon fill="none" stroke="#000000" points="420,-934.7 420,-953.7 530,-953.7 530,-934.7 420,-934.7"/>
<text text-anchor="start" x="423" y="-940.8" font-family="Helvetica,sans-Serif" font-size="11.00" fill="#000000">...</text>
<polygon fill="#ffffff" stroke="transparent" points="420,-915.7 420,-934.7 473,-934.7 473,-915.7 420,-915.7"/>
<polygon fill="none" stroke="#000000" points="420,-915.7 420,-934.7 473,-934.7 473,-915.7 420,-915.7"/>
<text text-anchor="start" x="423" y="-921.8" font-family="Helvetica,sans-Serif" font-size="11.00" fill="#000000">&lt; 4</text>
<polygon fill="#ffffff" stroke="transparent" points="473,-915.7 473,-934.7 501,-934.7 501,-915.7 473,-915.7"/>
<polygon fill="none" stroke="#000000" points="473,-915.7 473,-934.7 501,-934.7 501,-915.7 473,-915.7"/>
<text text-anchor="start" x="491.8862" y="-921.8" font-family="Helvetica,sans-Serif" font-size="11.00" fill="#000000"> &#160;</text>
<polygon fill="#ffffff" stroke="transparent" points="501,-915.7 501,-934.7 530,-934.7 530,-915.7 501,-915.7"/>
<polygon fill="none" stroke="#000000" points="501,-915.7 501,-934.7 530,-934.7 530,-915.7 501,-915.7"/>
<text text-anchor="start" x="520.8862" y="-921.8" font-family="Helvetica,sans-Serif" font-size="11.00" fill="#000000"> &#160;</text>
</a>
</g>
</g>
<!-- form_gad7&#45;&gt;forms -->
<g id="edge2" class="edge">
<title>form_gad7:w&#45;&gt;forms:e</title>
<path fill="none" stroke="#000000" d="M409.3541,-943.2034C385.4804,-940.7803 374.5134,-929.3435 360,-905.7 334.8342,-864.7027 367.1051,-474.7 319,-474.7"/>
<polygon fill="#000000" stroke="#000000" points="419.3873,-939.6671 419.0144,-947.6584 417.4162,-947.5838 417.789,-939.5925 419.3873,-939.6671"/>
<polyline fill="none" stroke="#000000" points="420,-943.7 416.0043,-943.5136 "/>
<ellipse fill="none" stroke="#000000" cx="412.8078" cy="-943.3644" rx="3.2" ry="3.2"/>
</g>
<!-- form_gad7&#45;&gt;patient_data -->
<g id="edge3" class="edge">
<title>form_gad7:w&#45;&gt;patient_data:e</title>
<path fill="none" stroke="#000000" d="M405.2763,-943.0195C342.9166,-937.3944 247.6363,-895.4156 173,-762.7 131.0418,-688.0915 217.5974,-379.7 132,-379.7"/>
<polygon fill="#000000" stroke="#000000" points="412.0085,-943.3306 419.8338,-947.2962 416.0043,-943.5153 420,-943.7 420,-943.7 420,-943.7 416.0043,-943.5153 420.1662,-940.1038 412.0085,-943.3306 412.0085,-943.3306"/>
<ellipse fill="none" stroke="#000000" cx="408.8119" cy="-943.1829" rx="3.2" ry="3.2"/>
</g>
<!-- form_note -->
<g id="node5" class="node">
<title>form_note</title>
<g id="a_node5"><a xlink:href="../../tables/form_note.html" xlink:title="form_note" target="_top">
<polygon fill="#ffffff" stroke="transparent" points="421.5,-834.2 421.5,-895.2 528.5,-895.2 528.5,-834.2 421.5,-834.2"/>
<polygon fill="#f5f5f5" stroke="transparent" points="422,-871.7 422,-894.7 529,-894.7 529,-871.7 422,-871.7"/>
<polygon fill="none" stroke="#000000" points="422,-871.7 422,-894.7 529,-894.7 529,-871.7 422,-871.7"/>
<text text-anchor="start" x="427" y="-880.3" font-family="Helvetica,sans-Serif" font-weight="bold" font-size="11.00" fill="#000000">form_note</text>
<text text-anchor="start" x="494.5219" y="-879.8" font-family="Helvetica,sans-Serif" font-size="11.00" fill="#000000">[table]</text>
<polygon fill="none" stroke="#000000" points="422,-852.7 422,-871.7 529,-871.7 529,-852.7 422,-852.7"/>
<text text-anchor="start" x="425" y="-858.8" font-family="Helvetica,sans-Serif" font-size="11.00" fill="#000000">...</text>
<polygon fill="#ffffff" stroke="transparent" points="422,-833.7 422,-852.7 474,-852.7 474,-833.7 422,-833.7"/>
<polygon fill="none" stroke="#000000" points="422,-833.7 422,-852.7 474,-852.7 474,-833.7 422,-833.7"/>
<text text-anchor="start" x="425" y="-839.8" font-family="Helvetica,sans-Serif" font-size="11.00" fill="#000000">&lt; 2</text>
<polygon fill="#ffffff" stroke="transparent" points="474,-833.7 474,-852.7 501,-852.7 501,-833.7 474,-833.7"/>
<polygon fill="none" stroke="#000000" points="474,-833.7 474,-852.7 501,-852.7 501,-833.7 474,-833.7"/>
<text text-anchor="start" x="491.8862" y="-839.8" font-family="Helvetica,sans-Serif" font-size="11.00" fill="#000000"> &#160;</text>
<polygon fill="#ffffff" stroke="transparent" points="501,-833.7 501,-852.7 529,-852.7 529,-833.7 501,-833.7"/>
<polygon fill="none" stroke="#000000" points="501,-833.7 501,-852.7 529,-852.7 529,-833.7 501,-833.7"/>
<text text-anchor="start" x="519.8862" y="-839.8" font-family="Helvetica,sans-Serif" font-size="11.00" fill="#000000"> &#160;</text>
</a>
</g>
</g>
<!-- form_note&#45;&gt;forms -->
<g id="edge4" class="edge">
<title>form_note:w&#45;&gt;forms:e</title>
<path fill="none" stroke="#000000" d="M411.4232,-861.2471C386.7345,-858.9494 375.3714,-847.7374 360,-823.7 317.9303,-757.9124 397.0889,-474.7 319,-474.7"/>
<polygon fill="#000000" stroke="#000000" points="421.3719,-857.6694 421.0296,-865.6621 419.431,-865.5936 419.7734,-857.601 421.3719,-857.6694"/>
<polyline fill="none" stroke="#000000" points="422,-861.7 418.0037,-861.5288 "/>
<ellipse fill="none" stroke="#000000" cx="414.8066" cy="-861.3919" rx="3.2" ry="3.2"/>
</g>
<!-- form_note&#45;&gt;patient_data -->
<g id="edge5" class="edge">
<title>form_note:w&#45;&gt;patient_data:e</title>
<path fill="none" stroke="#000000" d="M407.3771,-860.8689C340.4542,-853.5131 242.3331,-796.9428 173,-675.7 140.0351,-618.0542 198.4058,-379.7 132,-379.7"/>
<polygon fill="#000000" stroke="#000000" points="414.0129,-861.246 421.7957,-865.2942 418.0064,-861.473 422,-861.7 422,-861.7 422,-861.7 418.0064,-861.473 422.2043,-858.1058 414.0129,-861.246 414.0129,-861.246"/>
<ellipse fill="none" stroke="#000000" cx="410.818" cy="-861.0644" rx="3.2" ry="3.2"/>
</g>
<!-- form_painmap -->
<g id="node6" class="node">
<title>form_painmap</title>
<g id="a_node6"><a xlink:href="../../tables/form_painmap.html" xlink:title="form_painmap" target="_top">
<polygon fill="#ffffff" stroke="transparent" points="407.5,-752.2 407.5,-813.2 542.5,-813.2 542.5,-752.2 407.5,-752.2"/>
<polygon fill="#f5f5f5" stroke="transparent" points="408,-789.7 408,-812.7 543,-812.7 543,-789.7 408,-789.7"/>
<polygon fill="none" stroke="#000000" points="408,-789.7 408,-812.7 543,-812.7 543,-789.7 408,-789.7"/>
<text text-anchor="start" x="413" y="-798.3" font-family="Helvetica,sans-Serif" font-weight="bold" font-size="11.00" fill="#000000">form_painmap</text>
<text text-anchor="start" x="508.5219" y="-797.8" font-family="Helvetica,sans-Serif" font-size="11.00" fill="#000000">[table]</text>
<polygon fill="none" stroke="#000000" points="408,-770.7 408,-789.7 543,-789.7 543,-770.7 408,-770.7"/>
<text text-anchor="start" x="411" y="-776.8" font-family="Helvetica,sans-Serif" font-size="11.00" fill="#000000">...</text>
<polygon fill="#ffffff" stroke="transparent" points="408,-751.7 408,-770.7 474,-770.7 474,-751.7 408,-751.7"/>
<polygon fill="none" stroke="#000000" points="408,-751.7 408,-770.7 474,-770.7 474,-751.7 408,-751.7"/>
<text text-anchor="start" x="411" y="-757.8" font-family="Helvetica,sans-Serif" font-size="11.00" fill="#000000">&lt; 4</text>
<polygon fill="#ffffff" stroke="transparent" points="474,-751.7 474,-770.7 508,-770.7 508,-751.7 474,-751.7"/>
<polygon fill="none" stroke="#000000" points="474,-751.7 474,-770.7 508,-770.7 508,-751.7 474,-751.7"/>
<text text-anchor="start" x="498.8862" y="-757.8" font-family="Helvetica,sans-Serif" font-size="11.00" fill="#000000"> &#160;</text>
<polygon fill="#ffffff" stroke="transparent" points="508,-751.7 508,-770.7 543,-770.7 543,-751.7 508,-751.7"/>
<polygon fill="none" stroke="#000000" points="508,-751.7 508,-770.7 543,-770.7 543,-751.7 508,-751.7"/>
<text text-anchor="start" x="533.8862" y="-757.8" font-family="Helvetica,sans-Serif" font-size="11.00" fill="#000000"> &#160;</text>
</a>
</g>
</g>
<!-- form_painmap&#45;&gt;forms -->
<g id="edge6" class="edge">
<title>form_painmap:w&#45;&gt;forms:e</title>
<path fill="none" stroke="#000000" d="M397.3812,-778.809C378.5978,-775.3257 371.7021,-761.8213 360,-741.7 329.8213,-689.8088 379.0288,-474.7 319,-474.7"/>
<polygon fill="#000000" stroke="#000000" points="407.5373,-775.6471 406.8683,-783.6191 405.2739,-783.4853 405.9429,-775.5133 407.5373,-775.6471"/>
<polyline fill="none" stroke="#000000" points="408,-779.7 404.014,-779.3655 "/>
<ellipse fill="none" stroke="#000000" cx="400.8252" cy="-779.0979" rx="3.2" ry="3.2"/>
</g>
<!-- form_painmap&#45;&gt;patient_data -->
<g id="edge7" class="edge">
<title>form_painmap:w&#45;&gt;patient_data:e</title>
<path fill="none" stroke="#000000" d="M393.4548,-780.4672C345.4801,-784.8117 305.7426,-798.4447 173,-563.7 131.7595,-490.7694 215.7834,-379.7 132,-379.7"/>
<polygon fill="#000000" stroke="#000000" points="400.0111,-780.1214 408.1896,-783.295 404.0056,-779.9107 408,-779.7 408,-779.7 408,-779.7 404.0056,-779.9107 407.8104,-776.105 400.0111,-780.1214 400.0111,-780.1214"/>
<ellipse fill="none" stroke="#000000" cx="396.8155" cy="-780.29" rx="3.2" ry="3.2"/>
</g>
<!-- form_phq9 -->
<g id="node7" class="node">
<title>form_phq9</title>
<g id="a_node7"><a xlink:href="../../tables/form_phq9.html" xlink:title="form_phq9" target="_top">
<polygon fill="#ffffff" stroke="transparent" points="420,-366.2 420,-427.2 530,-427.2 530,-366.2 420,-366.2"/>
<polygon fill="#f5f5f5" stroke="transparent" points="420,-403.7 420,-426.7 530,-426.7 530,-403.7 420,-403.7"/>
<polygon fill="none" stroke="#000000" points="420,-403.7 420,-426.7 530,-426.7 530,-403.7 420,-403.7"/>
<text text-anchor="start" x="425" y="-412.3" font-family="Helvetica,sans-Serif" font-weight="bold" font-size="11.00" fill="#000000">form_phq9</text>
<text text-anchor="start" x="495.5219" y="-411.8" font-family="Helvetica,sans-Serif" font-size="11.00" fill="#000000">[table]</text>
<polygon fill="none" stroke="#000000" points="420,-384.7 420,-403.7 530,-403.7 530,-384.7 420,-384.7"/>
<text text-anchor="start" x="423" y="-390.8" font-family="Helvetica,sans-Serif" font-size="11.00" fill="#000000">...</text>
<polygon fill="#ffffff" stroke="transparent" points="420,-365.7 420,-384.7 473,-384.7 473,-365.7 420,-365.7"/>
<polygon fill="none" stroke="#000000" points="420,-365.7 420,-384.7 473,-384.7 473,-365.7 420,-365.7"/>
<text text-anchor="start" x="423" y="-371.8" font-family="Helvetica,sans-Serif" font-size="11.00" fill="#000000">&lt; 4</text>
<polygon fill="#ffffff" stroke="transparent" points="473,-365.7 473,-384.7 501,-384.7 501,-365.7 473,-365.7"/>
<polygon fill="none" stroke="#000000" points="473,-365.7 473,-384.7 501,-384.7 501,-365.7 473,-365.7"/>
<text text-anchor="start" x="491.8862" y="-371.8" font-family="Helvetica,sans-Serif" font-size="11.00" fill="#000000"> &#160;</text>
<polygon fill="#ffffff" stroke="transparent" points="501,-365.7 501,-384.7 530,-384.7 530,-365.7 501,-365.7"/>
<polygon fill="none" stroke="#000000" points="501,-365.7 501,-384.7 530,-384.7 530,-365.7 501,-365.7"/>
<text text-anchor="start" x="520.8862" y="-371.8" font-family="Helvetica,sans-Serif" font-size="11.00" fill="#000000"> &#160;</text>
</a>
</g>
</g>
<!-- form_phq9&#45;&gt;forms -->
<g id="edge8" class="edge">
<title>form_phq9:w&#45;&gt;forms:e</title>
<path fill="none" stroke="#000000" d="M409.5292,-394.6449C386.137,-399.2813 382.8441,-420.1501 360,-438.7 341.175,-453.9863 343.2497,-474.7 319,-474.7"/>
<polygon fill="#000000" stroke="#000000" points="418.8437,-389.7881 419.5628,-397.7557 417.9692,-397.8995 417.2502,-389.9319 418.8437,-389.7881"/>
<polyline fill="none" stroke="#000000" points="420,-393.7 416.0162,-394.0595 "/>
<ellipse fill="none" stroke="#000000" cx="412.8291" cy="-394.3472" rx="3.2" ry="3.2"/>
</g>
<!-- form_phq9&#45;&gt;patient_data -->
<g id="edge9" class="edge">
<title>form_phq9:w&#45;&gt;patient_data:e</title>
<path fill="none" stroke="#000000" d="M405.4123,-393.6376C289.2253,-392.6276 255.1452,-379.7 132,-379.7"/>
<polygon fill="#000000" stroke="#000000" points="412.0001,-393.6657 419.9846,-397.3 416,-393.6829 420,-393.7 420,-393.7 420,-393.7 416,-393.6829 420.0154,-390.1 412.0001,-393.6657 412.0001,-393.6657"/>
<ellipse fill="none" stroke="#000000" cx="408.8001" cy="-393.652" rx="3.2" ry="3.2"/>
</g>
<!-- form_physical_exam -->
<g id="node8" class="node">
<title>form_physical_exam</title>
<g id="a_node8"><a xlink:href="../../tables/form_physical_exam.html" xlink:title="form_physical_exam" target="_top">
<polygon fill="#ffffff" stroke="transparent" points="388,-670.2 388,-731.2 562,-731.2 562,-670.2 388,-670.2"/>
<polygon fill="#f5f5f5" stroke="transparent" points="388,-707.7 388,-730.7 562,-730.7 562,-707.7 388,-707.7"/>
<polygon fill="none" stroke="#000000" points="388,-707.7 388,-730.7 562,-730.7 562,-707.7 388,-707.7"/>
<text text-anchor="start" x="393" y="-716.3" font-family="Helvetica,sans-Serif" font-weight="bold" font-size="11.00" fill="#000000">form_physical_exam</text>
<text text-anchor="start" x="527.5219" y="-715.8" font-family="Helvetica,sans-Serif" font-size="11.00" fill="#000000">[table]</text>
<polygon fill="none" stroke="#000000" points="388,-688.7 388,-707.7 562,-707.7 562,-688.7 388,-688.7"/>
<text text-anchor="start" x="391" y="-694.8" font-family="Helvetica,sans-Serif" font-size="11.00" fill="#000000">...</text>
<polygon fill="#ffffff" stroke="transparent" points="388,-669.7 388,-688.7 469,-688.7 469,-669.7 388,-669.7"/>
<polygon fill="none" stroke="#000000" points="388,-669.7 388,-688.7 469,-688.7 469,-669.7 388,-669.7"/>
<text text-anchor="start" x="391" y="-675.8" font-family="Helvetica,sans-Serif" font-size="11.00" fill="#000000">&lt; 1</text>
<polygon fill="#ffffff" stroke="transparent" points="469,-669.7 469,-688.7 511,-688.7 511,-669.7 469,-669.7"/>
<polygon fill="none" stroke="#000000" points="469,-669.7 469,-688.7 511,-688.7 511,-669.7 469,-669.7"/>
<text text-anchor="start" x="501.8862" y="-675.8" font-family="Helvetica,sans-Serif" font-size="11.00" fill="#000000"> &#160;</text>
<polygon fill="#ffffff" stroke="transparent" points="511,-669.7 511,-688.7 562,-688.7 562,-669.7 511,-669.7"/>
<polygon fill="none" stroke="#000000" points="511,-669.7 511,-688.7 562,-688.7 562,-669.7 511,-669.7"/>
<text text-anchor="start" x="543.4053" y="-675.8" font-family="Helvetica,sans-Serif" font-size="11.00" fill="#000000">1 &gt;</text>
</a>
</g>
</g>
<!-- form_physical_exam&#45;&gt;forms -->
<g id="edge10" class="edge">
<title>form_physical_exam:w&#45;&gt;forms:e</title>
<path fill="none" stroke="#000000" d="M373.7417,-695.565C315.0495,-675.3694 398.7662,-518.7 319,-518.7"/>
<polygon fill="#000000" stroke="#000000" points="380.0882,-696.5153 387.4669,-701.2603 384.0441,-697.1076 388,-697.7 388,-697.7 388,-697.7 384.0441,-697.1076 388.5331,-694.1397 380.0882,-696.5153 380.0882,-696.5153"/>
<ellipse fill="none" stroke="#000000" cx="376.9235" cy="-696.0414" rx="3.2" ry="3.2"/>
</g>
<!-- form_prior_auth -->
<g id="node9" class="node">
<title>form_prior_auth</title>
<g id="a_node9"><a xlink:href="../../tables/form_prior_auth.html" xlink:title="form_prior_auth" target="_top">
<polygon fill="#ffffff" stroke="transparent" points="402,-284.2 402,-345.2 548,-345.2 548,-284.2 402,-284.2"/>
<polygon fill="#f5f5f5" stroke="transparent" points="402,-321.7 402,-344.7 548,-344.7 548,-321.7 402,-321.7"/>
<polygon fill="none" stroke="#000000" points="402,-321.7 402,-344.7 548,-344.7 548,-321.7 402,-321.7"/>
<text text-anchor="start" x="407" y="-330.3" font-family="Helvetica,sans-Serif" font-weight="bold" font-size="11.00" fill="#000000">form_prior_auth</text>
<text text-anchor="start" x="513.5219" y="-329.8" font-family="Helvetica,sans-Serif" font-size="11.00" fill="#000000">[table]</text>
<polygon fill="none" stroke="#000000" points="402,-302.7 402,-321.7 548,-321.7 548,-302.7 402,-302.7"/>
<text text-anchor="start" x="405" y="-308.8" font-family="Helvetica,sans-Serif" font-size="11.00" fill="#000000">...</text>
<polygon fill="#ffffff" stroke="transparent" points="402,-283.7 402,-302.7 473,-302.7 473,-283.7 402,-283.7"/>
<polygon fill="none" stroke="#000000" points="402,-283.7 402,-302.7 473,-302.7 473,-283.7 402,-283.7"/>
<text text-anchor="start" x="405" y="-289.8" font-family="Helvetica,sans-Serif" font-size="11.00" fill="#000000">&lt; 2</text>
<polygon fill="#ffffff" stroke="transparent" points="473,-283.7 473,-302.7 510,-302.7 510,-283.7 473,-283.7"/>
<polygon fill="none" stroke="#000000" points="473,-283.7 473,-302.7 510,-302.7 510,-283.7 473,-283.7"/>
<text text-anchor="start" x="500.8862" y="-289.8" font-family="Helvetica,sans-Serif" font-size="11.00" fill="#000000"> &#160;</text>
<polygon fill="#ffffff" stroke="transparent" points="510,-283.7 510,-302.7 548,-302.7 548,-283.7 510,-283.7"/>
<polygon fill="none" stroke="#000000" points="510,-283.7 510,-302.7 548,-302.7 548,-283.7 510,-283.7"/>
<text text-anchor="start" x="538.8862" y="-289.8" font-family="Helvetica,sans-Serif" font-size="11.00" fill="#000000"> &#160;</text>
</a>
</g>
</g>
<!-- form_prior_auth&#45;&gt;forms -->
<g id="edge11" class="edge">
<title>form_prior_auth:w&#45;&gt;forms:e</title>
<path fill="none" stroke="#000000" d="M391.5599,-313.0209C374.407,-317.9556 371.9736,-336.0372 360,-355.7 330.9053,-403.4785 374.94,-474.7 319,-474.7"/>
<polygon fill="#000000" stroke="#000000" points="400.7042,-307.8321 401.7084,-315.7688 400.1211,-315.9696 399.1169,-308.0329 400.7042,-307.8321"/>
<polyline fill="none" stroke="#000000" points="402,-311.7 398.0316,-312.2021 "/>
<ellipse fill="none" stroke="#000000" cx="394.8569" cy="-312.6038" rx="3.2" ry="3.2"/>
</g>
<!-- form_prior_auth&#45;&gt;patient_data -->
<g id="edge12" class="edge">
<title>form_prior_auth:w&#45;&gt;patient_data:e</title>
<path fill="none" stroke="#000000" d="M387.3277,-312.714C319.4289,-321.173 189.4023,-379.7 132,-379.7"/>
<polygon fill="#000000" stroke="#000000" points="394.019,-312.2516 402.2482,-315.2914 398.0095,-311.9758 402,-311.7 402,-311.7 402,-311.7 398.0095,-311.9758 401.7518,-308.1086 394.019,-312.2516 394.019,-312.2516"/>
<ellipse fill="none" stroke="#000000" cx="390.8267" cy="-312.4723" rx="3.2" ry="3.2"/>
</g>
<!-- form_sdoh -->
<g id="node10" class="node">
<title>form_sdoh</title>
<g id="a_node10"><a xlink:href="../../tables/form_sdoh.html" xlink:title="form_sdoh" target="_top">
<polygon fill="#ffffff" stroke="transparent" points="420.5,-202.2 420.5,-263.2 529.5,-263.2 529.5,-202.2 420.5,-202.2"/>
<polygon fill="#f5f5f5" stroke="transparent" points="421,-239.7 421,-262.7 530,-262.7 530,-239.7 421,-239.7"/>
<polygon fill="none" stroke="#000000" points="421,-239.7 421,-262.7 530,-262.7 530,-239.7 421,-239.7"/>
<text text-anchor="start" x="426" y="-248.3" font-family="Helvetica,sans-Serif" font-weight="bold" font-size="11.00" fill="#000000">form_sdoh</text>
<text text-anchor="start" x="495.5219" y="-247.8" font-family="Helvetica,sans-Serif" font-size="11.00" fill="#000000">[table]</text>
<polygon fill="none" stroke="#000000" points="421,-220.7 421,-239.7 530,-239.7 530,-220.7 421,-220.7"/>
<text text-anchor="start" x="424" y="-226.8" font-family="Helvetica,sans-Serif" font-size="11.00" fill="#000000">...</text>
<polygon fill="#ffffff" stroke="transparent" points="421,-201.7 421,-220.7 474,-220.7 474,-201.7 421,-201.7"/>
<polygon fill="none" stroke="#000000" points="421,-201.7 421,-220.7 474,-220.7 474,-201.7 421,-201.7"/>
<text text-anchor="start" x="424" y="-207.8" font-family="Helvetica,sans-Serif" font-size="11.00" fill="#000000">&lt; 4</text>
<polygon fill="#ffffff" stroke="transparent" points="474,-201.7 474,-220.7 502,-220.7 502,-201.7 474,-201.7"/>
<polygon fill="none" stroke="#000000" points="474,-201.7 474,-220.7 502,-220.7 502,-201.7 474,-201.7"/>
<text text-anchor="start" x="492.8862" y="-207.8" font-family="Helvetica,sans-Serif" font-size="11.00" fill="#000000"> &#160;</text>
<polygon fill="#ffffff" stroke="transparent" points="502,-201.7 502,-220.7 530,-220.7 530,-201.7 502,-201.7"/>
<polygon fill="none" stroke="#000000" points="502,-201.7 502,-220.7 530,-220.7 530,-201.7 502,-201.7"/>
<text text-anchor="start" x="520.8862" y="-207.8" font-family="Helvetica,sans-Serif" font-size="11.00" fill="#000000"> &#160;</text>
</a>
</g>
</g>
<!-- form_sdoh&#45;&gt;forms -->
<g id="edge13" class="edge">
<title>form_sdoh:w&#45;&gt;forms:e</title>
<path fill="none" stroke="#000000" d="M410.5159,-230.3075C385.3231,-233.4632 376.0842,-248.8022 360,-273.7 310.5269,-350.2827 410.1729,-474.7 319,-474.7"/>
<polygon fill="#000000" stroke="#000000" points="419.9699,-225.753 420.4328,-233.7396 418.8354,-233.8322 418.3726,-225.8455 419.9699,-225.753"/>
<polyline fill="none" stroke="#000000" points="421,-229.7 417.0067,-229.9314 "/>
<ellipse fill="none" stroke="#000000" cx="413.8121" cy="-230.1165" rx="3.2" ry="3.2"/>
</g>
<!-- form_sdoh&#45;&gt;patient_data -->
<g id="edge14" class="edge">
<title>form_sdoh:w&#45;&gt;patient_data:e</title>
<path fill="none" stroke="#000000" d="M406.555,-229.8274C299.853,-231.7788 263.1535,-256.4466 173,-324.7 148.6916,-343.1034 162.489,-379.7 132,-379.7"/>
<polygon fill="#000000" stroke="#000000" points="413.0003,-229.7706 421.0318,-233.2999 417.0002,-229.7353 421,-229.7 421,-229.7 421,-229.7 417.0002,-229.7353 420.9682,-226.1001 413.0003,-229.7706 413.0003,-229.7706"/>
<ellipse fill="none" stroke="#000000" cx="409.8004" cy="-229.7989" rx="3.2" ry="3.2"/>
</g>
<!-- form_transfer_summary -->
<g id="node11" class="node">
<title>form_transfer_summary</title>
<g id="a_node11"><a xlink:href="../../tables/form_transfer_summary.html" xlink:title="form_transfer_summary" target="_top">
<polygon fill="#ffffff" stroke="transparent" points="375,-120.2 375,-181.2 575,-181.2 575,-120.2 375,-120.2"/>
<polygon fill="#f5f5f5" stroke="transparent" points="375,-157.7 375,-180.7 575,-180.7 575,-157.7 375,-157.7"/>
<polygon fill="none" stroke="#000000" points="375,-157.7 375,-180.7 575,-180.7 575,-157.7 375,-157.7"/>
<text text-anchor="start" x="380" y="-166.3" font-family="Helvetica,sans-Serif" font-weight="bold" font-size="11.00" fill="#000000">form_transfer_summary</text>
<text text-anchor="start" x="540.5219" y="-165.8" font-family="Helvetica,sans-Serif" font-size="11.00" fill="#000000">[table]</text>
<polygon fill="none" stroke="#000000" points="375,-138.7 375,-157.7 575,-157.7 575,-138.7 375,-138.7"/>
<text text-anchor="start" x="378" y="-144.8" font-family="Helvetica,sans-Serif" font-size="11.00" fill="#000000">...</text>
<polygon fill="#ffffff" stroke="transparent" points="375,-119.7 375,-138.7 473,-138.7 473,-119.7 375,-119.7"/>
<polygon fill="none" stroke="#000000" points="375,-119.7 375,-138.7 473,-138.7 473,-119.7 375,-119.7"/>
<text text-anchor="start" x="378" y="-125.8" font-family="Helvetica,sans-Serif" font-size="11.00" fill="#000000">&lt; 2</text>
<polygon fill="#ffffff" stroke="transparent" points="473,-119.7 473,-138.7 524,-138.7 524,-119.7 473,-119.7"/>
<polygon fill="none" stroke="#000000" points="473,-119.7 473,-138.7 524,-138.7 524,-119.7 473,-119.7"/>
<text text-anchor="start" x="514.8862" y="-125.8" font-family="Helvetica,sans-Serif" font-size="11.00" fill="#000000"> &#160;</text>
<polygon fill="#ffffff" stroke="transparent" points="524,-119.7 524,-138.7 575,-138.7 575,-119.7 524,-119.7"/>
<polygon fill="none" stroke="#000000" points="524,-119.7 524,-138.7 575,-138.7 575,-119.7 524,-119.7"/>
<text text-anchor="start" x="565.8862" y="-125.8" font-family="Helvetica,sans-Serif" font-size="11.00" fill="#000000"> &#160;</text>
</a>
</g>
</g>
<!-- form_transfer_summary&#45;&gt;forms -->
<g id="edge15" class="edge">
<title>form_transfer_summary:w&#45;&gt;forms:e</title>
<path fill="none" stroke="#000000" d="M364.6661,-150.3322C310.4611,-181.2789 388.8367,-474.7 319,-474.7"/>
<polygon fill="#000000" stroke="#000000" points="373.2374,-144.0212 375.2121,-151.7737 373.6616,-152.1686 371.6869,-144.4162 373.2374,-144.0212"/>
<polyline fill="none" stroke="#000000" points="375,-147.7 371.1238,-148.6874 "/>
<ellipse fill="none" stroke="#000000" cx="368.0228" cy="-149.4772" rx="3.2" ry="3.2"/>
</g>
<!-- form_transfer_summary&#45;&gt;patient_data -->
<g id="edge16" class="edge">
<title>form_transfer_summary:w&#45;&gt;patient_data:e</title>
<path fill="none" stroke="#000000" d="M360.4975,-147.8224C272.8292,-149.3836 234.2296,-166.5363 173,-236.7 129.528,-286.5151 198.1162,-379.7 132,-379.7"/>
<polygon fill="#000000" stroke="#000000" points="367.0003,-147.7676 375.0304,-151.2999 371.0001,-147.7338 375,-147.7 375,-147.7 375,-147.7 371.0001,-147.7338 374.9696,-144.1001 367.0003,-147.7676 367.0003,-147.7676"/>
<ellipse fill="none" stroke="#000000" cx="363.8004" cy="-147.7946" rx="3.2" ry="3.2"/>
</g>
<!-- form_treatment_plan -->
<g id="node12" class="node">
<title>form_treatment_plan</title>
<g id="a_node12"><a xlink:href="../../tables/form_treatment_plan.html" xlink:title="form_treatment_plan" target="_top">
<polygon fill="#ffffff" stroke="transparent" points="385,-38.2 385,-99.2 565,-99.2 565,-38.2 385,-38.2"/>
<polygon fill="#f5f5f5" stroke="transparent" points="385,-75.7 385,-98.7 565,-98.7 565,-75.7 385,-75.7"/>
<polygon fill="none" stroke="#000000" points="385,-75.7 385,-98.7 565,-98.7 565,-75.7 385,-75.7"/>
<text text-anchor="start" x="390" y="-84.3" font-family="Helvetica,sans-Serif" font-weight="bold" font-size="11.00" fill="#000000">form_treatment_plan</text>
<text text-anchor="start" x="530.5219" y="-83.8" font-family="Helvetica,sans-Serif" font-size="11.00" fill="#000000">[table]</text>
<polygon fill="none" stroke="#000000" points="385,-56.7 385,-75.7 565,-75.7 565,-56.7 385,-56.7"/>
<text text-anchor="start" x="388" y="-62.8" font-family="Helvetica,sans-Serif" font-size="11.00" fill="#000000">...</text>
<polygon fill="#ffffff" stroke="transparent" points="385,-37.7 385,-56.7 473,-56.7 473,-37.7 385,-37.7"/>
<polygon fill="none" stroke="#000000" points="385,-37.7 385,-56.7 473,-56.7 473,-37.7 385,-37.7"/>
<text text-anchor="start" x="388" y="-43.8" font-family="Helvetica,sans-Serif" font-size="11.00" fill="#000000">&lt; 4</text>
<polygon fill="#ffffff" stroke="transparent" points="473,-37.7 473,-56.7 519,-56.7 519,-37.7 473,-37.7"/>
<polygon fill="none" stroke="#000000" points="473,-37.7 473,-56.7 519,-56.7 519,-37.7 473,-37.7"/>
<text text-anchor="start" x="509.8862" y="-43.8" font-family="Helvetica,sans-Serif" font-size="11.00" fill="#000000"> &#160;</text>
<polygon fill="#ffffff" stroke="transparent" points="519,-37.7 519,-56.7 565,-56.7 565,-37.7 519,-37.7"/>
<polygon fill="none" stroke="#000000" points="519,-37.7 519,-56.7 565,-56.7 565,-37.7 519,-37.7"/>
<text text-anchor="start" x="555.8862" y="-43.8" font-family="Helvetica,sans-Serif" font-size="11.00" fill="#000000"> &#160;</text>
</a>
</g>
</g>
<!-- form_treatment_plan&#45;&gt;forms -->
<g id="edge17" class="edge">
<title>form_treatment_plan:w&#45;&gt;forms:e</title>
<path fill="none" stroke="#000000" d="M374.7035,-67.7077C302.272,-98.5627 407.2886,-474.7 319,-474.7"/>
<polygon fill="#000000" stroke="#000000" points="383.4492,-61.9271 384.9804,-69.7792 383.4099,-70.0854 381.8788,-62.2333 383.4492,-61.9271"/>
<polyline fill="none" stroke="#000000" points="385,-65.7 381.0739,-66.4656 "/>
<ellipse fill="none" stroke="#000000" cx="377.9331" cy="-67.078" rx="3.2" ry="3.2"/>
</g>
<!-- form_treatment_plan&#45;&gt;patient_data -->
<g id="edge18" class="edge">
<title>form_treatment_plan:w&#45;&gt;patient_data:e</title>
<path fill="none" stroke="#000000" d="M370.5809,-65.7366C279.3634,-66.2649 234.0418,-73.4869 173,-147.7 139.7422,-188.134 184.3544,-379.7 132,-379.7"/>
<polygon fill="#000000" stroke="#000000" points="377,-65.7204 385.0092,-69.3 381,-65.7102 385,-65.7 385,-65.7 385,-65.7 381,-65.7102 384.9908,-62.1 377,-65.7204 377,-65.7204"/>
<ellipse fill="none" stroke="#000000" cx="373.8" cy="-65.7285" rx="3.2" ry="3.2"/>
</g>
</g>
</svg>
