<?xml version="1.0" encoding="UTF-8" standalone="no"?>
<!DOCTYPE svg PUBLIC "-//W3C//DTD SVG 1.1//EN"
 "http://www.w3.org/Graphics/SVG/1.1/DTD/svg11.dtd">
<!-- Generated by graphviz version 2.40.1 (20161225.0304)
 -->
<!-- Title: oneDegreeRelationshipsDiagram Pages: 1 -->
<svg width="457pt" height="1965pt"
 viewBox="0.00 0.00 457.00 1964.70" xmlns="http://www.w3.org/2000/svg" xmlns:xlink="http://www.w3.org/1999/xlink">
<g id="graph0" class="graph" transform="scale(1 1) rotate(0) translate(4 1960.7)">
<title>oneDegreeRelationshipsDiagram</title>
<polygon fill="#ffffff" stroke="transparent" points="-4,4 -4,-1960.7 453,-1960.7 453,4 -4,4"/>
<text text-anchor="middle" x="72.4936" y="-7.3" font-family="Helvetica,sans-Serif" font-size="11.00" fill="#000000">Generated by SchemaSpy</text>
<!-- form_eye_neuro -->
<g id="node1" class="node">
<title>form_eye_neuro</title>
<g id="a_node1"><a xlink:href="../../tables/form_eye_neuro.html" xlink:title="form_eye_neuro" target="_top">
<polygon fill="#ffffff" stroke="transparent" points="224,-38.2 224,-1866.2 441,-1866.2 441,-38.2 224,-38.2"/>
<polygon fill="#f5f5f5" stroke="transparent" points="226.5,-1841.2 226.5,-1864.2 439.5,-1864.2 439.5,-1841.2 226.5,-1841.2"/>
<polygon fill="none" stroke="#000000" points="226.5,-1841.2 226.5,-1864.2 439.5,-1864.2 439.5,-1841.2 226.5,-1841.2"/>
<text text-anchor="start" x="231.5" y="-1849.8" font-family="Helvetica,sans-Serif" font-weight="bold" font-size="11.00" fill="#000000">form_eye_neuro</text>
<text text-anchor="start" x="404.5437" y="-1849.3" font-family="Helvetica,sans-Serif" font-size="11.00" fill="#000000">[table]</text>
<polygon fill="none" stroke="#000000" points="226.5,-1819.2 226.5,-1841.2 378.5,-1841.2 378.5,-1819.2 226.5,-1819.2"/>
<image xlink:href="../../images/primaryKeys.png" width="11px" height="12px" preserveAspectRatio="xMinYMin meet" x="231.5" y="-1836.2"/>
<text text-anchor="start" x="246.5" y="-1826.3" font-family="Helvetica,sans-Serif" font-size="11.00" fill="#000000">id</text>
<polygon fill="none" stroke="#000000" points="378.5,-1819.2 378.5,-1841.2 439.5,-1841.2 439.5,-1819.2 378.5,-1819.2"/>
<text text-anchor="start" x="381.5" y="-1826.9" font-family="Helvetica,sans-Serif" font-size="11.00" fill="#000000">bigint[19]</text>
<polygon fill="#ffffff" stroke="transparent" points="226.5,-1797.2 226.5,-1819.2 378.5,-1819.2 378.5,-1797.2 226.5,-1797.2"/>
<polygon fill="none" stroke="#000000" points="226.5,-1797.2 226.5,-1819.2 378.5,-1819.2 378.5,-1797.2 226.5,-1797.2"/>
<image xlink:href="../../images/foreignKeys.png" width="11px" height="12px" preserveAspectRatio="xMinYMin meet" x="231.5" y="-1814.2"/>
<text text-anchor="start" x="246.5" y="-1804.3" font-family="Helvetica,sans-Serif" font-size="11.00" fill="#000000">pid</text>
<polygon fill="none" stroke="#000000" points="378.5,-1797.2 378.5,-1819.2 439.5,-1819.2 439.5,-1797.2 378.5,-1797.2"/>
<text text-anchor="start" x="381.5" y="-1804.9" font-family="Helvetica,sans-Serif" font-size="11.00" fill="#000000">bigint[19]</text>
<polygon fill="none" stroke="#000000" points="226.5,-1775.2 226.5,-1797.2 378.5,-1797.2 378.5,-1775.2 226.5,-1775.2"/>
<text text-anchor="start" x="246.5" y="-1782.3" font-family="Helvetica,sans-Serif" font-size="11.00" fill="#000000">ACT</text>
<polygon fill="none" stroke="#000000" points="378.5,-1775.2 378.5,-1797.2 439.5,-1797.2 439.5,-1775.2 378.5,-1775.2"/>
<text text-anchor="start" x="381.5" y="-1782.9" font-family="Helvetica,sans-Serif" font-size="11.00" fill="#000000">char[3]</text>
<polygon fill="none" stroke="#000000" points="226.5,-1753.2 226.5,-1775.2 378.5,-1775.2 378.5,-1753.2 226.5,-1753.2"/>
<text text-anchor="start" x="246.5" y="-1760.3" font-family="Helvetica,sans-Serif" font-size="11.00" fill="#000000">ACT5CCDIST</text>
<polygon fill="none" stroke="#000000" points="378.5,-1753.2 378.5,-1775.2 439.5,-1775.2 439.5,-1753.2 378.5,-1753.2"/>
<text text-anchor="start" x="381.5" y="-1760.9" font-family="Helvetica,sans-Serif" font-size="11.00" fill="#000000">text[65535]</text>
<polygon fill="none" stroke="#000000" points="226.5,-1731.2 226.5,-1753.2 378.5,-1753.2 378.5,-1731.2 226.5,-1731.2"/>
<text text-anchor="start" x="246.5" y="-1738.3" font-family="Helvetica,sans-Serif" font-size="11.00" fill="#000000">ACT1CCDIST</text>
<polygon fill="none" stroke="#000000" points="378.5,-1731.2 378.5,-1753.2 439.5,-1753.2 439.5,-1731.2 378.5,-1731.2"/>
<text text-anchor="start" x="381.5" y="-1738.9" font-family="Helvetica,sans-Serif" font-size="11.00" fill="#000000">text[65535]</text>
<polygon fill="none" stroke="#000000" points="226.5,-1709.2 226.5,-1731.2 378.5,-1731.2 378.5,-1709.2 226.5,-1709.2"/>
<text text-anchor="start" x="246.5" y="-1716.3" font-family="Helvetica,sans-Serif" font-size="11.00" fill="#000000">ACT2CCDIST</text>
<polygon fill="none" stroke="#000000" points="378.5,-1709.2 378.5,-1731.2 439.5,-1731.2 439.5,-1709.2 378.5,-1709.2"/>
<text text-anchor="start" x="381.5" y="-1716.9" font-family="Helvetica,sans-Serif" font-size="11.00" fill="#000000">text[65535]</text>
<polygon fill="none" stroke="#000000" points="226.5,-1687.2 226.5,-1709.2 378.5,-1709.2 378.5,-1687.2 226.5,-1687.2"/>
<text text-anchor="start" x="246.5" y="-1694.3" font-family="Helvetica,sans-Serif" font-size="11.00" fill="#000000">ACT3CCDIST</text>
<polygon fill="none" stroke="#000000" points="378.5,-1687.2 378.5,-1709.2 439.5,-1709.2 439.5,-1687.2 378.5,-1687.2"/>
<text text-anchor="start" x="381.5" y="-1694.9" font-family="Helvetica,sans-Serif" font-size="11.00" fill="#000000">text[65535]</text>
<polygon fill="none" stroke="#000000" points="226.5,-1665.2 226.5,-1687.2 378.5,-1687.2 378.5,-1665.2 226.5,-1665.2"/>
<text text-anchor="start" x="246.5" y="-1672.3" font-family="Helvetica,sans-Serif" font-size="11.00" fill="#000000">ACT4CCDIST</text>
<polygon fill="none" stroke="#000000" points="378.5,-1665.2 378.5,-1687.2 439.5,-1687.2 439.5,-1665.2 378.5,-1665.2"/>
<text text-anchor="start" x="381.5" y="-1672.9" font-family="Helvetica,sans-Serif" font-size="11.00" fill="#000000">text[65535]</text>
<polygon fill="none" stroke="#000000" points="226.5,-1643.2 226.5,-1665.2 378.5,-1665.2 378.5,-1643.2 226.5,-1643.2"/>
<text text-anchor="start" x="246.5" y="-1650.3" font-family="Helvetica,sans-Serif" font-size="11.00" fill="#000000">ACT6CCDIST</text>
<polygon fill="none" stroke="#000000" points="378.5,-1643.2 378.5,-1665.2 439.5,-1665.2 439.5,-1643.2 378.5,-1643.2"/>
<text text-anchor="start" x="381.5" y="-1650.9" font-family="Helvetica,sans-Serif" font-size="11.00" fill="#000000">text[65535]</text>
<polygon fill="none" stroke="#000000" points="226.5,-1621.2 226.5,-1643.2 378.5,-1643.2 378.5,-1621.2 226.5,-1621.2"/>
<text text-anchor="start" x="246.5" y="-1628.3" font-family="Helvetica,sans-Serif" font-size="11.00" fill="#000000">ACT7CCDIST</text>
<polygon fill="none" stroke="#000000" points="378.5,-1621.2 378.5,-1643.2 439.5,-1643.2 439.5,-1621.2 378.5,-1621.2"/>
<text text-anchor="start" x="381.5" y="-1628.9" font-family="Helvetica,sans-Serif" font-size="11.00" fill="#000000">text[65535]</text>
<polygon fill="none" stroke="#000000" points="226.5,-1599.2 226.5,-1621.2 378.5,-1621.2 378.5,-1599.2 226.5,-1599.2"/>
<text text-anchor="start" x="246.5" y="-1606.3" font-family="Helvetica,sans-Serif" font-size="11.00" fill="#000000">ACT8CCDIST</text>
<polygon fill="none" stroke="#000000" points="378.5,-1599.2 378.5,-1621.2 439.5,-1621.2 439.5,-1599.2 378.5,-1599.2"/>
<text text-anchor="start" x="381.5" y="-1606.9" font-family="Helvetica,sans-Serif" font-size="11.00" fill="#000000">text[65535]</text>
<polygon fill="none" stroke="#000000" points="226.5,-1577.2 226.5,-1599.2 378.5,-1599.2 378.5,-1577.2 226.5,-1577.2"/>
<text text-anchor="start" x="246.5" y="-1584.3" font-family="Helvetica,sans-Serif" font-size="11.00" fill="#000000">ACT9CCDIST</text>
<polygon fill="none" stroke="#000000" points="378.5,-1577.2 378.5,-1599.2 439.5,-1599.2 439.5,-1577.2 378.5,-1577.2"/>
<text text-anchor="start" x="381.5" y="-1584.9" font-family="Helvetica,sans-Serif" font-size="11.00" fill="#000000">text[65535]</text>
<polygon fill="none" stroke="#000000" points="226.5,-1555.2 226.5,-1577.2 378.5,-1577.2 378.5,-1555.2 226.5,-1555.2"/>
<text text-anchor="start" x="246.5" y="-1562.3" font-family="Helvetica,sans-Serif" font-size="11.00" fill="#000000">ACT10CCDIST</text>
<polygon fill="none" stroke="#000000" points="378.5,-1555.2 378.5,-1577.2 439.5,-1577.2 439.5,-1555.2 378.5,-1555.2"/>
<text text-anchor="start" x="381.5" y="-1562.9" font-family="Helvetica,sans-Serif" font-size="11.00" fill="#000000">text[65535]</text>
<polygon fill="none" stroke="#000000" points="226.5,-1533.2 226.5,-1555.2 378.5,-1555.2 378.5,-1533.2 226.5,-1533.2"/>
<text text-anchor="start" x="246.5" y="-1540.3" font-family="Helvetica,sans-Serif" font-size="11.00" fill="#000000">ACT11CCDIST</text>
<polygon fill="none" stroke="#000000" points="378.5,-1533.2 378.5,-1555.2 439.5,-1555.2 439.5,-1533.2 378.5,-1533.2"/>
<text text-anchor="start" x="381.5" y="-1540.9" font-family="Helvetica,sans-Serif" font-size="11.00" fill="#000000">text[65535]</text>
<polygon fill="none" stroke="#000000" points="226.5,-1511.2 226.5,-1533.2 378.5,-1533.2 378.5,-1511.2 226.5,-1511.2"/>
<text text-anchor="start" x="246.5" y="-1518.3" font-family="Helvetica,sans-Serif" font-size="11.00" fill="#000000">ACT1SCDIST</text>
<polygon fill="none" stroke="#000000" points="378.5,-1511.2 378.5,-1533.2 439.5,-1533.2 439.5,-1511.2 378.5,-1511.2"/>
<text text-anchor="start" x="381.5" y="-1518.9" font-family="Helvetica,sans-Serif" font-size="11.00" fill="#000000">text[65535]</text>
<polygon fill="none" stroke="#000000" points="226.5,-1489.2 226.5,-1511.2 378.5,-1511.2 378.5,-1489.2 226.5,-1489.2"/>
<text text-anchor="start" x="246.5" y="-1496.3" font-family="Helvetica,sans-Serif" font-size="11.00" fill="#000000">ACT2SCDIST</text>
<polygon fill="none" stroke="#000000" points="378.5,-1489.2 378.5,-1511.2 439.5,-1511.2 439.5,-1489.2 378.5,-1489.2"/>
<text text-anchor="start" x="381.5" y="-1496.9" font-family="Helvetica,sans-Serif" font-size="11.00" fill="#000000">text[65535]</text>
<polygon fill="none" stroke="#000000" points="226.5,-1467.2 226.5,-1489.2 378.5,-1489.2 378.5,-1467.2 226.5,-1467.2"/>
<text text-anchor="start" x="246.5" y="-1474.3" font-family="Helvetica,sans-Serif" font-size="11.00" fill="#000000">ACT3SCDIST</text>
<polygon fill="none" stroke="#000000" points="378.5,-1467.2 378.5,-1489.2 439.5,-1489.2 439.5,-1467.2 378.5,-1467.2"/>
<text text-anchor="start" x="381.5" y="-1474.9" font-family="Helvetica,sans-Serif" font-size="11.00" fill="#000000">text[65535]</text>
<polygon fill="none" stroke="#000000" points="226.5,-1445.2 226.5,-1467.2 378.5,-1467.2 378.5,-1445.2 226.5,-1445.2"/>
<text text-anchor="start" x="246.5" y="-1452.3" font-family="Helvetica,sans-Serif" font-size="11.00" fill="#000000">ACT4SCDIST</text>
<polygon fill="none" stroke="#000000" points="378.5,-1445.2 378.5,-1467.2 439.5,-1467.2 439.5,-1445.2 378.5,-1445.2"/>
<text text-anchor="start" x="381.5" y="-1452.9" font-family="Helvetica,sans-Serif" font-size="11.00" fill="#000000">text[65535]</text>
<polygon fill="none" stroke="#000000" points="226.5,-1423.2 226.5,-1445.2 378.5,-1445.2 378.5,-1423.2 226.5,-1423.2"/>
<text text-anchor="start" x="246.5" y="-1430.3" font-family="Helvetica,sans-Serif" font-size="11.00" fill="#000000">ACT5SCDIST</text>
<polygon fill="none" stroke="#000000" points="378.5,-1423.2 378.5,-1445.2 439.5,-1445.2 439.5,-1423.2 378.5,-1423.2"/>
<text text-anchor="start" x="381.5" y="-1430.9" font-family="Helvetica,sans-Serif" font-size="11.00" fill="#000000">text[65535]</text>
<polygon fill="none" stroke="#000000" points="226.5,-1401.2 226.5,-1423.2 378.5,-1423.2 378.5,-1401.2 226.5,-1401.2"/>
<text text-anchor="start" x="246.5" y="-1408.3" font-family="Helvetica,sans-Serif" font-size="11.00" fill="#000000">ACT6SCDIST</text>
<polygon fill="none" stroke="#000000" points="378.5,-1401.2 378.5,-1423.2 439.5,-1423.2 439.5,-1401.2 378.5,-1401.2"/>
<text text-anchor="start" x="381.5" y="-1408.9" font-family="Helvetica,sans-Serif" font-size="11.00" fill="#000000">text[65535]</text>
<polygon fill="none" stroke="#000000" points="226.5,-1379.2 226.5,-1401.2 378.5,-1401.2 378.5,-1379.2 226.5,-1379.2"/>
<text text-anchor="start" x="246.5" y="-1386.3" font-family="Helvetica,sans-Serif" font-size="11.00" fill="#000000">ACT7SCDIST</text>
<polygon fill="none" stroke="#000000" points="378.5,-1379.2 378.5,-1401.2 439.5,-1401.2 439.5,-1379.2 378.5,-1379.2"/>
<text text-anchor="start" x="381.5" y="-1386.9" font-family="Helvetica,sans-Serif" font-size="11.00" fill="#000000">text[65535]</text>
<polygon fill="none" stroke="#000000" points="226.5,-1357.2 226.5,-1379.2 378.5,-1379.2 378.5,-1357.2 226.5,-1357.2"/>
<text text-anchor="start" x="246.5" y="-1364.3" font-family="Helvetica,sans-Serif" font-size="11.00" fill="#000000">ACT8SCDIST</text>
<polygon fill="none" stroke="#000000" points="378.5,-1357.2 378.5,-1379.2 439.5,-1379.2 439.5,-1357.2 378.5,-1357.2"/>
<text text-anchor="start" x="381.5" y="-1364.9" font-family="Helvetica,sans-Serif" font-size="11.00" fill="#000000">text[65535]</text>
<polygon fill="none" stroke="#000000" points="226.5,-1335.2 226.5,-1357.2 378.5,-1357.2 378.5,-1335.2 226.5,-1335.2"/>
<text text-anchor="start" x="246.5" y="-1342.3" font-family="Helvetica,sans-Serif" font-size="11.00" fill="#000000">ACT9SCDIST</text>
<polygon fill="none" stroke="#000000" points="378.5,-1335.2 378.5,-1357.2 439.5,-1357.2 439.5,-1335.2 378.5,-1335.2"/>
<text text-anchor="start" x="381.5" y="-1342.9" font-family="Helvetica,sans-Serif" font-size="11.00" fill="#000000">text[65535]</text>
<polygon fill="none" stroke="#000000" points="226.5,-1313.2 226.5,-1335.2 378.5,-1335.2 378.5,-1313.2 226.5,-1313.2"/>
<text text-anchor="start" x="246.5" y="-1320.3" font-family="Helvetica,sans-Serif" font-size="11.00" fill="#000000">ACT10SCDIST</text>
<polygon fill="none" stroke="#000000" points="378.5,-1313.2 378.5,-1335.2 439.5,-1335.2 439.5,-1313.2 378.5,-1313.2"/>
<text text-anchor="start" x="381.5" y="-1320.9" font-family="Helvetica,sans-Serif" font-size="11.00" fill="#000000">text[65535]</text>
<polygon fill="none" stroke="#000000" points="226.5,-1291.2 226.5,-1313.2 378.5,-1313.2 378.5,-1291.2 226.5,-1291.2"/>
<text text-anchor="start" x="246.5" y="-1298.3" font-family="Helvetica,sans-Serif" font-size="11.00" fill="#000000">ACT11SCDIST</text>
<polygon fill="none" stroke="#000000" points="378.5,-1291.2 378.5,-1313.2 439.5,-1313.2 439.5,-1291.2 378.5,-1291.2"/>
<text text-anchor="start" x="381.5" y="-1298.9" font-family="Helvetica,sans-Serif" font-size="11.00" fill="#000000">text[65535]</text>
<polygon fill="none" stroke="#000000" points="226.5,-1269.2 226.5,-1291.2 378.5,-1291.2 378.5,-1269.2 226.5,-1269.2"/>
<text text-anchor="start" x="246.5" y="-1276.3" font-family="Helvetica,sans-Serif" font-size="11.00" fill="#000000">ACT1SCNEAR</text>
<polygon fill="none" stroke="#000000" points="378.5,-1269.2 378.5,-1291.2 439.5,-1291.2 439.5,-1269.2 378.5,-1269.2"/>
<text text-anchor="start" x="381.5" y="-1276.9" font-family="Helvetica,sans-Serif" font-size="11.00" fill="#000000">text[65535]</text>
<polygon fill="none" stroke="#000000" points="226.5,-1247.2 226.5,-1269.2 378.5,-1269.2 378.5,-1247.2 226.5,-1247.2"/>
<text text-anchor="start" x="246.5" y="-1254.3" font-family="Helvetica,sans-Serif" font-size="11.00" fill="#000000">ACT2SCNEAR</text>
<polygon fill="none" stroke="#000000" points="378.5,-1247.2 378.5,-1269.2 439.5,-1269.2 439.5,-1247.2 378.5,-1247.2"/>
<text text-anchor="start" x="381.5" y="-1254.9" font-family="Helvetica,sans-Serif" font-size="11.00" fill="#000000">text[65535]</text>
<polygon fill="none" stroke="#000000" points="226.5,-1225.2 226.5,-1247.2 378.5,-1247.2 378.5,-1225.2 226.5,-1225.2"/>
<text text-anchor="start" x="246.5" y="-1232.3" font-family="Helvetica,sans-Serif" font-size="11.00" fill="#000000">ACT3SCNEAR</text>
<polygon fill="none" stroke="#000000" points="378.5,-1225.2 378.5,-1247.2 439.5,-1247.2 439.5,-1225.2 378.5,-1225.2"/>
<text text-anchor="start" x="381.5" y="-1232.9" font-family="Helvetica,sans-Serif" font-size="11.00" fill="#000000">text[65535]</text>
<polygon fill="none" stroke="#000000" points="226.5,-1203.2 226.5,-1225.2 378.5,-1225.2 378.5,-1203.2 226.5,-1203.2"/>
<text text-anchor="start" x="246.5" y="-1210.3" font-family="Helvetica,sans-Serif" font-size="11.00" fill="#000000">ACT4SCNEAR</text>
<polygon fill="none" stroke="#000000" points="378.5,-1203.2 378.5,-1225.2 439.5,-1225.2 439.5,-1203.2 378.5,-1203.2"/>
<text text-anchor="start" x="381.5" y="-1210.9" font-family="Helvetica,sans-Serif" font-size="11.00" fill="#000000">text[65535]</text>
<polygon fill="none" stroke="#000000" points="226.5,-1181.2 226.5,-1203.2 378.5,-1203.2 378.5,-1181.2 226.5,-1181.2"/>
<text text-anchor="start" x="246.5" y="-1188.3" font-family="Helvetica,sans-Serif" font-size="11.00" fill="#000000">ACT5CCNEAR</text>
<polygon fill="none" stroke="#000000" points="378.5,-1181.2 378.5,-1203.2 439.5,-1203.2 439.5,-1181.2 378.5,-1181.2"/>
<text text-anchor="start" x="381.5" y="-1188.9" font-family="Helvetica,sans-Serif" font-size="11.00" fill="#000000">text[65535]</text>
<polygon fill="none" stroke="#000000" points="226.5,-1159.2 226.5,-1181.2 378.5,-1181.2 378.5,-1159.2 226.5,-1159.2"/>
<text text-anchor="start" x="246.5" y="-1166.3" font-family="Helvetica,sans-Serif" font-size="11.00" fill="#000000">ACT6CCNEAR</text>
<polygon fill="none" stroke="#000000" points="378.5,-1159.2 378.5,-1181.2 439.5,-1181.2 439.5,-1159.2 378.5,-1159.2"/>
<text text-anchor="start" x="381.5" y="-1166.9" font-family="Helvetica,sans-Serif" font-size="11.00" fill="#000000">text[65535]</text>
<polygon fill="none" stroke="#000000" points="226.5,-1137.2 226.5,-1159.2 378.5,-1159.2 378.5,-1137.2 226.5,-1137.2"/>
<text text-anchor="start" x="246.5" y="-1144.3" font-family="Helvetica,sans-Serif" font-size="11.00" fill="#000000">ACT7CCNEAR</text>
<polygon fill="none" stroke="#000000" points="378.5,-1137.2 378.5,-1159.2 439.5,-1159.2 439.5,-1137.2 378.5,-1137.2"/>
<text text-anchor="start" x="381.5" y="-1144.9" font-family="Helvetica,sans-Serif" font-size="11.00" fill="#000000">text[65535]</text>
<polygon fill="none" stroke="#000000" points="226.5,-1115.2 226.5,-1137.2 378.5,-1137.2 378.5,-1115.2 226.5,-1115.2"/>
<text text-anchor="start" x="246.5" y="-1122.3" font-family="Helvetica,sans-Serif" font-size="11.00" fill="#000000">ACT8CCNEAR</text>
<polygon fill="none" stroke="#000000" points="378.5,-1115.2 378.5,-1137.2 439.5,-1137.2 439.5,-1115.2 378.5,-1115.2"/>
<text text-anchor="start" x="381.5" y="-1122.9" font-family="Helvetica,sans-Serif" font-size="11.00" fill="#000000">text[65535]</text>
<polygon fill="none" stroke="#000000" points="226.5,-1093.2 226.5,-1115.2 378.5,-1115.2 378.5,-1093.2 226.5,-1093.2"/>
<text text-anchor="start" x="246.5" y="-1100.3" font-family="Helvetica,sans-Serif" font-size="11.00" fill="#000000">ACT9CCNEAR</text>
<polygon fill="none" stroke="#000000" points="378.5,-1093.2 378.5,-1115.2 439.5,-1115.2 439.5,-1093.2 378.5,-1093.2"/>
<text text-anchor="start" x="381.5" y="-1100.9" font-family="Helvetica,sans-Serif" font-size="11.00" fill="#000000">text[65535]</text>
<polygon fill="none" stroke="#000000" points="226.5,-1071.2 226.5,-1093.2 378.5,-1093.2 378.5,-1071.2 226.5,-1071.2"/>
<text text-anchor="start" x="246.5" y="-1078.3" font-family="Helvetica,sans-Serif" font-size="11.00" fill="#000000">ACT10CCNEAR</text>
<polygon fill="none" stroke="#000000" points="378.5,-1071.2 378.5,-1093.2 439.5,-1093.2 439.5,-1071.2 378.5,-1071.2"/>
<text text-anchor="start" x="381.5" y="-1078.9" font-family="Helvetica,sans-Serif" font-size="11.00" fill="#000000">text[65535]</text>
<polygon fill="none" stroke="#000000" points="226.5,-1049.2 226.5,-1071.2 378.5,-1071.2 378.5,-1049.2 226.5,-1049.2"/>
<text text-anchor="start" x="246.5" y="-1056.3" font-family="Helvetica,sans-Serif" font-size="11.00" fill="#000000">ACT11CCNEAR</text>
<polygon fill="none" stroke="#000000" points="378.5,-1049.2 378.5,-1071.2 439.5,-1071.2 439.5,-1049.2 378.5,-1049.2"/>
<text text-anchor="start" x="381.5" y="-1056.9" font-family="Helvetica,sans-Serif" font-size="11.00" fill="#000000">text[65535]</text>
<polygon fill="none" stroke="#000000" points="226.5,-1027.2 226.5,-1049.2 378.5,-1049.2 378.5,-1027.2 226.5,-1027.2"/>
<text text-anchor="start" x="246.5" y="-1034.3" font-family="Helvetica,sans-Serif" font-size="11.00" fill="#000000">ACT5SCNEAR</text>
<polygon fill="none" stroke="#000000" points="378.5,-1027.2 378.5,-1049.2 439.5,-1049.2 439.5,-1027.2 378.5,-1027.2"/>
<text text-anchor="start" x="381.5" y="-1034.9" font-family="Helvetica,sans-Serif" font-size="11.00" fill="#000000">text[65535]</text>
<polygon fill="none" stroke="#000000" points="226.5,-1005.2 226.5,-1027.2 378.5,-1027.2 378.5,-1005.2 226.5,-1005.2"/>
<text text-anchor="start" x="246.5" y="-1012.3" font-family="Helvetica,sans-Serif" font-size="11.00" fill="#000000">ACT6SCNEAR</text>
<polygon fill="none" stroke="#000000" points="378.5,-1005.2 378.5,-1027.2 439.5,-1027.2 439.5,-1005.2 378.5,-1005.2"/>
<text text-anchor="start" x="381.5" y="-1012.9" font-family="Helvetica,sans-Serif" font-size="11.00" fill="#000000">text[65535]</text>
<polygon fill="none" stroke="#000000" points="226.5,-983.2 226.5,-1005.2 378.5,-1005.2 378.5,-983.2 226.5,-983.2"/>
<text text-anchor="start" x="246.5" y="-990.3" font-family="Helvetica,sans-Serif" font-size="11.00" fill="#000000">ACT7SCNEAR</text>
<polygon fill="none" stroke="#000000" points="378.5,-983.2 378.5,-1005.2 439.5,-1005.2 439.5,-983.2 378.5,-983.2"/>
<text text-anchor="start" x="381.5" y="-990.9" font-family="Helvetica,sans-Serif" font-size="11.00" fill="#000000">text[65535]</text>
<polygon fill="none" stroke="#000000" points="226.5,-961.2 226.5,-983.2 378.5,-983.2 378.5,-961.2 226.5,-961.2"/>
<text text-anchor="start" x="246.5" y="-968.3" font-family="Helvetica,sans-Serif" font-size="11.00" fill="#000000">ACT8SCNEAR</text>
<polygon fill="none" stroke="#000000" points="378.5,-961.2 378.5,-983.2 439.5,-983.2 439.5,-961.2 378.5,-961.2"/>
<text text-anchor="start" x="381.5" y="-968.9" font-family="Helvetica,sans-Serif" font-size="11.00" fill="#000000">text[65535]</text>
<polygon fill="none" stroke="#000000" points="226.5,-939.2 226.5,-961.2 378.5,-961.2 378.5,-939.2 226.5,-939.2"/>
<text text-anchor="start" x="246.5" y="-946.3" font-family="Helvetica,sans-Serif" font-size="11.00" fill="#000000">ACT9SCNEAR</text>
<polygon fill="none" stroke="#000000" points="378.5,-939.2 378.5,-961.2 439.5,-961.2 439.5,-939.2 378.5,-939.2"/>
<text text-anchor="start" x="381.5" y="-946.9" font-family="Helvetica,sans-Serif" font-size="11.00" fill="#000000">text[65535]</text>
<polygon fill="none" stroke="#000000" points="226.5,-917.2 226.5,-939.2 378.5,-939.2 378.5,-917.2 226.5,-917.2"/>
<text text-anchor="start" x="246.5" y="-924.3" font-family="Helvetica,sans-Serif" font-size="11.00" fill="#000000">ACT10SCNEAR</text>
<polygon fill="none" stroke="#000000" points="378.5,-917.2 378.5,-939.2 439.5,-939.2 439.5,-917.2 378.5,-917.2"/>
<text text-anchor="start" x="381.5" y="-924.9" font-family="Helvetica,sans-Serif" font-size="11.00" fill="#000000">text[65535]</text>
<polygon fill="none" stroke="#000000" points="226.5,-895.2 226.5,-917.2 378.5,-917.2 378.5,-895.2 226.5,-895.2"/>
<text text-anchor="start" x="246.5" y="-902.3" font-family="Helvetica,sans-Serif" font-size="11.00" fill="#000000">ACT11SCNEAR</text>
<polygon fill="none" stroke="#000000" points="378.5,-895.2 378.5,-917.2 439.5,-917.2 439.5,-895.2 378.5,-895.2"/>
<text text-anchor="start" x="381.5" y="-902.9" font-family="Helvetica,sans-Serif" font-size="11.00" fill="#000000">text[65535]</text>
<polygon fill="none" stroke="#000000" points="226.5,-873.2 226.5,-895.2 378.5,-895.2 378.5,-873.2 226.5,-873.2"/>
<text text-anchor="start" x="246.5" y="-880.3" font-family="Helvetica,sans-Serif" font-size="11.00" fill="#000000">ACT1CCNEAR</text>
<polygon fill="none" stroke="#000000" points="378.5,-873.2 378.5,-895.2 439.5,-895.2 439.5,-873.2 378.5,-873.2"/>
<text text-anchor="start" x="381.5" y="-880.9" font-family="Helvetica,sans-Serif" font-size="11.00" fill="#000000">text[65535]</text>
<polygon fill="none" stroke="#000000" points="226.5,-851.2 226.5,-873.2 378.5,-873.2 378.5,-851.2 226.5,-851.2"/>
<text text-anchor="start" x="246.5" y="-858.3" font-family="Helvetica,sans-Serif" font-size="11.00" fill="#000000">ACT2CCNEAR</text>
<polygon fill="none" stroke="#000000" points="378.5,-851.2 378.5,-873.2 439.5,-873.2 439.5,-851.2 378.5,-851.2"/>
<text text-anchor="start" x="381.5" y="-858.9" font-family="Helvetica,sans-Serif" font-size="11.00" fill="#000000">text[65535]</text>
<polygon fill="none" stroke="#000000" points="226.5,-829.2 226.5,-851.2 378.5,-851.2 378.5,-829.2 226.5,-829.2"/>
<text text-anchor="start" x="246.5" y="-836.3" font-family="Helvetica,sans-Serif" font-size="11.00" fill="#000000">ACT3CCNEAR</text>
<polygon fill="none" stroke="#000000" points="378.5,-829.2 378.5,-851.2 439.5,-851.2 439.5,-829.2 378.5,-829.2"/>
<text text-anchor="start" x="381.5" y="-836.9" font-family="Helvetica,sans-Serif" font-size="11.00" fill="#000000">text[65535]</text>
<polygon fill="none" stroke="#000000" points="226.5,-807.2 226.5,-829.2 378.5,-829.2 378.5,-807.2 226.5,-807.2"/>
<text text-anchor="start" x="246.5" y="-814.3" font-family="Helvetica,sans-Serif" font-size="11.00" fill="#000000">ACT4CCNEAR</text>
<polygon fill="none" stroke="#000000" points="378.5,-807.2 378.5,-829.2 439.5,-829.2 439.5,-807.2 378.5,-807.2"/>
<text text-anchor="start" x="381.5" y="-814.9" font-family="Helvetica,sans-Serif" font-size="11.00" fill="#000000">text[65535]</text>
<polygon fill="none" stroke="#000000" points="226.5,-785.2 226.5,-807.2 378.5,-807.2 378.5,-785.2 226.5,-785.2"/>
<text text-anchor="start" x="246.5" y="-792.3" font-family="Helvetica,sans-Serif" font-size="11.00" fill="#000000">MOTILITYNORMAL</text>
<polygon fill="none" stroke="#000000" points="378.5,-785.2 378.5,-807.2 439.5,-807.2 439.5,-785.2 378.5,-785.2"/>
<text text-anchor="start" x="381.5" y="-792.9" font-family="Helvetica,sans-Serif" font-size="11.00" fill="#000000">char[3]</text>
<polygon fill="none" stroke="#000000" points="226.5,-763.2 226.5,-785.2 378.5,-785.2 378.5,-763.2 226.5,-763.2"/>
<text text-anchor="start" x="246.5" y="-770.3" font-family="Helvetica,sans-Serif" font-size="11.00" fill="#000000">MOTILITY_RS</text>
<polygon fill="none" stroke="#000000" points="378.5,-763.2 378.5,-785.2 439.5,-785.2 439.5,-763.2 378.5,-763.2"/>
<text text-anchor="start" x="381.5" y="-770.9" font-family="Helvetica,sans-Serif" font-size="11.00" fill="#000000">char[1]</text>
<polygon fill="none" stroke="#000000" points="226.5,-741.2 226.5,-763.2 378.5,-763.2 378.5,-741.2 226.5,-741.2"/>
<text text-anchor="start" x="246.5" y="-748.3" font-family="Helvetica,sans-Serif" font-size="11.00" fill="#000000">MOTILITY_RI</text>
<polygon fill="none" stroke="#000000" points="378.5,-741.2 378.5,-763.2 439.5,-763.2 439.5,-741.2 378.5,-741.2"/>
<text text-anchor="start" x="381.5" y="-748.9" font-family="Helvetica,sans-Serif" font-size="11.00" fill="#000000">char[1]</text>
<polygon fill="none" stroke="#000000" points="226.5,-719.2 226.5,-741.2 378.5,-741.2 378.5,-719.2 226.5,-719.2"/>
<text text-anchor="start" x="246.5" y="-726.3" font-family="Helvetica,sans-Serif" font-size="11.00" fill="#000000">MOTILITY_RR</text>
<polygon fill="none" stroke="#000000" points="378.5,-719.2 378.5,-741.2 439.5,-741.2 439.5,-719.2 378.5,-719.2"/>
<text text-anchor="start" x="381.5" y="-726.9" font-family="Helvetica,sans-Serif" font-size="11.00" fill="#000000">char[1]</text>
<polygon fill="none" stroke="#000000" points="226.5,-697.2 226.5,-719.2 378.5,-719.2 378.5,-697.2 226.5,-697.2"/>
<text text-anchor="start" x="246.5" y="-704.3" font-family="Helvetica,sans-Serif" font-size="11.00" fill="#000000">MOTILITY_RL</text>
<polygon fill="none" stroke="#000000" points="378.5,-697.2 378.5,-719.2 439.5,-719.2 439.5,-697.2 378.5,-697.2"/>
<text text-anchor="start" x="381.5" y="-704.9" font-family="Helvetica,sans-Serif" font-size="11.00" fill="#000000">char[1]</text>
<polygon fill="none" stroke="#000000" points="226.5,-675.2 226.5,-697.2 378.5,-697.2 378.5,-675.2 226.5,-675.2"/>
<text text-anchor="start" x="246.5" y="-682.3" font-family="Helvetica,sans-Serif" font-size="11.00" fill="#000000">MOTILITY_LS</text>
<polygon fill="none" stroke="#000000" points="378.5,-675.2 378.5,-697.2 439.5,-697.2 439.5,-675.2 378.5,-675.2"/>
<text text-anchor="start" x="381.5" y="-682.9" font-family="Helvetica,sans-Serif" font-size="11.00" fill="#000000">char[1]</text>
<polygon fill="none" stroke="#000000" points="226.5,-653.2 226.5,-675.2 378.5,-675.2 378.5,-653.2 226.5,-653.2"/>
<text text-anchor="start" x="246.5" y="-660.3" font-family="Helvetica,sans-Serif" font-size="11.00" fill="#000000">MOTILITY_LI</text>
<polygon fill="none" stroke="#000000" points="378.5,-653.2 378.5,-675.2 439.5,-675.2 439.5,-653.2 378.5,-653.2"/>
<text text-anchor="start" x="381.5" y="-660.9" font-family="Helvetica,sans-Serif" font-size="11.00" fill="#000000">char[1]</text>
<polygon fill="none" stroke="#000000" points="226.5,-631.2 226.5,-653.2 378.5,-653.2 378.5,-631.2 226.5,-631.2"/>
<text text-anchor="start" x="246.5" y="-638.3" font-family="Helvetica,sans-Serif" font-size="11.00" fill="#000000">MOTILITY_LR</text>
<polygon fill="none" stroke="#000000" points="378.5,-631.2 378.5,-653.2 439.5,-653.2 439.5,-631.2 378.5,-631.2"/>
<text text-anchor="start" x="381.5" y="-638.9" font-family="Helvetica,sans-Serif" font-size="11.00" fill="#000000">char[1]</text>
<polygon fill="none" stroke="#000000" points="226.5,-609.2 226.5,-631.2 378.5,-631.2 378.5,-609.2 226.5,-609.2"/>
<text text-anchor="start" x="246.5" y="-616.3" font-family="Helvetica,sans-Serif" font-size="11.00" fill="#000000">MOTILITY_LL</text>
<polygon fill="none" stroke="#000000" points="378.5,-609.2 378.5,-631.2 439.5,-631.2 439.5,-609.2 378.5,-609.2"/>
<text text-anchor="start" x="381.5" y="-616.9" font-family="Helvetica,sans-Serif" font-size="11.00" fill="#000000">char[1]</text>
<polygon fill="none" stroke="#000000" points="226.5,-587.2 226.5,-609.2 378.5,-609.2 378.5,-587.2 226.5,-587.2"/>
<text text-anchor="start" x="246.5" y="-594.3" font-family="Helvetica,sans-Serif" font-size="11.00" fill="#000000">MOTILITY_RRSO</text>
<polygon fill="none" stroke="#000000" points="378.5,-587.2 378.5,-609.2 439.5,-609.2 439.5,-587.2 378.5,-587.2"/>
<text text-anchor="start" x="381.5" y="-594.9" font-family="Helvetica,sans-Serif" font-size="11.00" fill="#000000">int[10]</text>
<polygon fill="none" stroke="#000000" points="226.5,-565.2 226.5,-587.2 378.5,-587.2 378.5,-565.2 226.5,-565.2"/>
<text text-anchor="start" x="246.5" y="-572.3" font-family="Helvetica,sans-Serif" font-size="11.00" fill="#000000">MOTILITY_RLSO</text>
<polygon fill="none" stroke="#000000" points="378.5,-565.2 378.5,-587.2 439.5,-587.2 439.5,-565.2 378.5,-565.2"/>
<text text-anchor="start" x="381.5" y="-572.9" font-family="Helvetica,sans-Serif" font-size="11.00" fill="#000000">int[10]</text>
<polygon fill="none" stroke="#000000" points="226.5,-543.2 226.5,-565.2 378.5,-565.2 378.5,-543.2 226.5,-543.2"/>
<text text-anchor="start" x="246.5" y="-550.3" font-family="Helvetica,sans-Serif" font-size="11.00" fill="#000000">MOTILITY_RRIO</text>
<polygon fill="none" stroke="#000000" points="378.5,-543.2 378.5,-565.2 439.5,-565.2 439.5,-543.2 378.5,-543.2"/>
<text text-anchor="start" x="381.5" y="-550.9" font-family="Helvetica,sans-Serif" font-size="11.00" fill="#000000">int[10]</text>
<polygon fill="none" stroke="#000000" points="226.5,-521.2 226.5,-543.2 378.5,-543.2 378.5,-521.2 226.5,-521.2"/>
<text text-anchor="start" x="246.5" y="-528.3" font-family="Helvetica,sans-Serif" font-size="11.00" fill="#000000">MOTILITY_RLIO</text>
<polygon fill="none" stroke="#000000" points="378.5,-521.2 378.5,-543.2 439.5,-543.2 439.5,-521.2 378.5,-521.2"/>
<text text-anchor="start" x="381.5" y="-528.9" font-family="Helvetica,sans-Serif" font-size="11.00" fill="#000000">int[10]</text>
<polygon fill="none" stroke="#000000" points="226.5,-499.2 226.5,-521.2 378.5,-521.2 378.5,-499.2 226.5,-499.2"/>
<text text-anchor="start" x="246.5" y="-506.3" font-family="Helvetica,sans-Serif" font-size="11.00" fill="#000000">MOTILITY_LRSO</text>
<polygon fill="none" stroke="#000000" points="378.5,-499.2 378.5,-521.2 439.5,-521.2 439.5,-499.2 378.5,-499.2"/>
<text text-anchor="start" x="381.5" y="-506.9" font-family="Helvetica,sans-Serif" font-size="11.00" fill="#000000">int[10]</text>
<polygon fill="none" stroke="#000000" points="226.5,-477.2 226.5,-499.2 378.5,-499.2 378.5,-477.2 226.5,-477.2"/>
<text text-anchor="start" x="246.5" y="-484.3" font-family="Helvetica,sans-Serif" font-size="11.00" fill="#000000">MOTILITY_LLSO</text>
<polygon fill="none" stroke="#000000" points="378.5,-477.2 378.5,-499.2 439.5,-499.2 439.5,-477.2 378.5,-477.2"/>
<text text-anchor="start" x="381.5" y="-484.9" font-family="Helvetica,sans-Serif" font-size="11.00" fill="#000000">int[10]</text>
<polygon fill="none" stroke="#000000" points="226.5,-455.2 226.5,-477.2 378.5,-477.2 378.5,-455.2 226.5,-455.2"/>
<text text-anchor="start" x="246.5" y="-462.3" font-family="Helvetica,sans-Serif" font-size="11.00" fill="#000000">MOTILITY_LRIO</text>
<polygon fill="none" stroke="#000000" points="378.5,-455.2 378.5,-477.2 439.5,-477.2 439.5,-455.2 378.5,-455.2"/>
<text text-anchor="start" x="381.5" y="-462.9" font-family="Helvetica,sans-Serif" font-size="11.00" fill="#000000">int[10]</text>
<polygon fill="none" stroke="#000000" points="226.5,-433.2 226.5,-455.2 378.5,-455.2 378.5,-433.2 226.5,-433.2"/>
<text text-anchor="start" x="246.5" y="-440.3" font-family="Helvetica,sans-Serif" font-size="11.00" fill="#000000">MOTILITY_LLIO</text>
<polygon fill="none" stroke="#000000" points="378.5,-433.2 378.5,-455.2 439.5,-455.2 439.5,-433.2 378.5,-433.2"/>
<text text-anchor="start" x="381.5" y="-440.9" font-family="Helvetica,sans-Serif" font-size="11.00" fill="#000000">int[10]</text>
<polygon fill="none" stroke="#000000" points="226.5,-411.2 226.5,-433.2 378.5,-433.2 378.5,-411.2 226.5,-411.2"/>
<text text-anchor="start" x="246.5" y="-418.3" font-family="Helvetica,sans-Serif" font-size="11.00" fill="#000000">NEURO_COMMENTS</text>
<polygon fill="none" stroke="#000000" points="378.5,-411.2 378.5,-433.2 439.5,-433.2 439.5,-411.2 378.5,-411.2"/>
<text text-anchor="start" x="381.5" y="-418.9" font-family="Helvetica,sans-Serif" font-size="11.00" fill="#000000">text[65535]</text>
<polygon fill="none" stroke="#000000" points="226.5,-389.2 226.5,-411.2 378.5,-411.2 378.5,-389.2 226.5,-389.2"/>
<text text-anchor="start" x="246.5" y="-396.3" font-family="Helvetica,sans-Serif" font-size="11.00" fill="#000000">STEREOPSIS</text>
<polygon fill="none" stroke="#000000" points="378.5,-389.2 378.5,-411.2 439.5,-411.2 439.5,-389.2 378.5,-389.2"/>
<text text-anchor="start" x="381.494" y="-396.9" font-family="Helvetica,sans-Serif" font-size="11.00" fill="#000000">varchar[25]</text>
<polygon fill="none" stroke="#000000" points="226.5,-367.2 226.5,-389.2 378.5,-389.2 378.5,-367.2 226.5,-367.2"/>
<text text-anchor="start" x="246.5" y="-374.3" font-family="Helvetica,sans-Serif" font-size="11.00" fill="#000000">ODNPA</text>
<polygon fill="none" stroke="#000000" points="378.5,-367.2 378.5,-389.2 439.5,-389.2 439.5,-367.2 378.5,-367.2"/>
<text text-anchor="start" x="381.5" y="-374.9" font-family="Helvetica,sans-Serif" font-size="11.00" fill="#000000">text[65535]</text>
<polygon fill="none" stroke="#000000" points="226.5,-345.2 226.5,-367.2 378.5,-367.2 378.5,-345.2 226.5,-345.2"/>
<text text-anchor="start" x="246.5" y="-352.3" font-family="Helvetica,sans-Serif" font-size="11.00" fill="#000000">OSNPA</text>
<polygon fill="none" stroke="#000000" points="378.5,-345.2 378.5,-367.2 439.5,-367.2 439.5,-345.2 378.5,-345.2"/>
<text text-anchor="start" x="381.5" y="-352.9" font-family="Helvetica,sans-Serif" font-size="11.00" fill="#000000">text[65535]</text>
<polygon fill="none" stroke="#000000" points="226.5,-323.2 226.5,-345.2 378.5,-345.2 378.5,-323.2 226.5,-323.2"/>
<text text-anchor="start" x="246.5" y="-330.3" font-family="Helvetica,sans-Serif" font-size="11.00" fill="#000000">VERTFUSAMPS</text>
<polygon fill="none" stroke="#000000" points="378.5,-323.2 378.5,-345.2 439.5,-345.2 439.5,-323.2 378.5,-323.2"/>
<text text-anchor="start" x="381.5" y="-330.9" font-family="Helvetica,sans-Serif" font-size="11.00" fill="#000000">text[65535]</text>
<polygon fill="none" stroke="#000000" points="226.5,-301.2 226.5,-323.2 378.5,-323.2 378.5,-301.2 226.5,-301.2"/>
<text text-anchor="start" x="246.5" y="-308.3" font-family="Helvetica,sans-Serif" font-size="11.00" fill="#000000">DIVERGENCEAMPS</text>
<polygon fill="none" stroke="#000000" points="378.5,-301.2 378.5,-323.2 439.5,-323.2 439.5,-301.2 378.5,-301.2"/>
<text text-anchor="start" x="381.5" y="-308.9" font-family="Helvetica,sans-Serif" font-size="11.00" fill="#000000">text[65535]</text>
<polygon fill="none" stroke="#000000" points="226.5,-279.2 226.5,-301.2 378.5,-301.2 378.5,-279.2 226.5,-279.2"/>
<text text-anchor="start" x="246.5" y="-286.3" font-family="Helvetica,sans-Serif" font-size="11.00" fill="#000000">NPC</text>
<polygon fill="none" stroke="#000000" points="378.5,-279.2 378.5,-301.2 439.5,-301.2 439.5,-279.2 378.5,-279.2"/>
<text text-anchor="start" x="381.494" y="-286.9" font-family="Helvetica,sans-Serif" font-size="11.00" fill="#000000">varchar[10]</text>
<polygon fill="none" stroke="#000000" points="226.5,-257.2 226.5,-279.2 378.5,-279.2 378.5,-257.2 226.5,-257.2"/>
<text text-anchor="start" x="246.5" y="-264.3" font-family="Helvetica,sans-Serif" font-size="11.00" fill="#000000">DACCDIST</text>
<polygon fill="none" stroke="#000000" points="378.5,-257.2 378.5,-279.2 439.5,-279.2 439.5,-257.2 378.5,-257.2"/>
<text text-anchor="start" x="381.494" y="-264.9" font-family="Helvetica,sans-Serif" font-size="11.00" fill="#000000">varchar[20]</text>
<polygon fill="none" stroke="#000000" points="226.5,-235.2 226.5,-257.2 378.5,-257.2 378.5,-235.2 226.5,-235.2"/>
<text text-anchor="start" x="246.5" y="-242.3" font-family="Helvetica,sans-Serif" font-size="11.00" fill="#000000">DACCNEAR</text>
<polygon fill="none" stroke="#000000" points="378.5,-235.2 378.5,-257.2 439.5,-257.2 439.5,-235.2 378.5,-235.2"/>
<text text-anchor="start" x="381.494" y="-242.9" font-family="Helvetica,sans-Serif" font-size="11.00" fill="#000000">varchar[20]</text>
<polygon fill="none" stroke="#000000" points="226.5,-213.2 226.5,-235.2 378.5,-235.2 378.5,-213.2 226.5,-213.2"/>
<text text-anchor="start" x="246.5" y="-220.3" font-family="Helvetica,sans-Serif" font-size="11.00" fill="#000000">CACCDIST</text>
<polygon fill="none" stroke="#000000" points="378.5,-213.2 378.5,-235.2 439.5,-235.2 439.5,-213.2 378.5,-213.2"/>
<text text-anchor="start" x="381.494" y="-220.9" font-family="Helvetica,sans-Serif" font-size="11.00" fill="#000000">varchar[20]</text>
<polygon fill="none" stroke="#000000" points="226.5,-191.2 226.5,-213.2 378.5,-213.2 378.5,-191.2 226.5,-191.2"/>
<text text-anchor="start" x="246.5" y="-198.3" font-family="Helvetica,sans-Serif" font-size="11.00" fill="#000000">CACCNEAR</text>
<polygon fill="none" stroke="#000000" points="378.5,-191.2 378.5,-213.2 439.5,-213.2 439.5,-191.2 378.5,-191.2"/>
<text text-anchor="start" x="381.494" y="-198.9" font-family="Helvetica,sans-Serif" font-size="11.00" fill="#000000">varchar[20]</text>
<polygon fill="none" stroke="#000000" points="226.5,-169.2 226.5,-191.2 378.5,-191.2 378.5,-169.2 226.5,-169.2"/>
<text text-anchor="start" x="246.5" y="-176.3" font-family="Helvetica,sans-Serif" font-size="11.00" fill="#000000">ODCOLOR</text>
<polygon fill="none" stroke="#000000" points="378.5,-169.2 378.5,-191.2 439.5,-191.2 439.5,-169.2 378.5,-169.2"/>
<text text-anchor="start" x="381.5" y="-176.9" font-family="Helvetica,sans-Serif" font-size="11.00" fill="#000000">text[65535]</text>
<polygon fill="none" stroke="#000000" points="226.5,-147.2 226.5,-169.2 378.5,-169.2 378.5,-147.2 226.5,-147.2"/>
<text text-anchor="start" x="246.5" y="-154.3" font-family="Helvetica,sans-Serif" font-size="11.00" fill="#000000">OSCOLOR</text>
<polygon fill="none" stroke="#000000" points="378.5,-147.2 378.5,-169.2 439.5,-169.2 439.5,-147.2 378.5,-147.2"/>
<text text-anchor="start" x="381.5" y="-154.9" font-family="Helvetica,sans-Serif" font-size="11.00" fill="#000000">text[65535]</text>
<polygon fill="none" stroke="#000000" points="226.5,-125.2 226.5,-147.2 378.5,-147.2 378.5,-125.2 226.5,-125.2"/>
<text text-anchor="start" x="246.5" y="-132.3" font-family="Helvetica,sans-Serif" font-size="11.00" fill="#000000">ODCOINS</text>
<polygon fill="none" stroke="#000000" points="378.5,-125.2 378.5,-147.2 439.5,-147.2 439.5,-125.2 378.5,-125.2"/>
<text text-anchor="start" x="381.5" y="-132.9" font-family="Helvetica,sans-Serif" font-size="11.00" fill="#000000">text[65535]</text>
<polygon fill="none" stroke="#000000" points="226.5,-103.2 226.5,-125.2 378.5,-125.2 378.5,-103.2 226.5,-103.2"/>
<text text-anchor="start" x="246.5" y="-110.3" font-family="Helvetica,sans-Serif" font-size="11.00" fill="#000000">OSCOINS</text>
<polygon fill="none" stroke="#000000" points="378.5,-103.2 378.5,-125.2 439.5,-125.2 439.5,-103.2 378.5,-103.2"/>
<text text-anchor="start" x="381.5" y="-110.9" font-family="Helvetica,sans-Serif" font-size="11.00" fill="#000000">text[65535]</text>
<polygon fill="none" stroke="#000000" points="226.5,-81.2 226.5,-103.2 378.5,-103.2 378.5,-81.2 226.5,-81.2"/>
<text text-anchor="start" x="246.5" y="-88.3" font-family="Helvetica,sans-Serif" font-size="11.00" fill="#000000">ODREDDESAT</text>
<polygon fill="none" stroke="#000000" points="378.5,-81.2 378.5,-103.2 439.5,-103.2 439.5,-81.2 378.5,-81.2"/>
<text text-anchor="start" x="381.494" y="-88.9" font-family="Helvetica,sans-Serif" font-size="11.00" fill="#000000">varchar[20]</text>
<polygon fill="none" stroke="#000000" points="226.5,-59.2 226.5,-81.2 378.5,-81.2 378.5,-59.2 226.5,-59.2"/>
<text text-anchor="start" x="246.5" y="-66.3" font-family="Helvetica,sans-Serif" font-size="11.00" fill="#000000">OSREDDESAT</text>
<polygon fill="none" stroke="#000000" points="378.5,-59.2 378.5,-81.2 439.5,-81.2 439.5,-59.2 378.5,-59.2"/>
<text text-anchor="start" x="381.494" y="-66.9" font-family="Helvetica,sans-Serif" font-size="11.00" fill="#000000">varchar[20]</text>
<polygon fill="#ffffff" stroke="transparent" points="226.5,-40.2 226.5,-59.2 306.5,-59.2 306.5,-40.2 226.5,-40.2"/>
<polygon fill="none" stroke="#000000" points="226.5,-40.2 226.5,-59.2 306.5,-59.2 306.5,-40.2 226.5,-40.2"/>
<text text-anchor="start" x="229.5" y="-46.3" font-family="Helvetica,sans-Serif" font-size="11.00" fill="#000000">&lt; 1</text>
<polygon fill="#ffffff" stroke="transparent" points="306.5,-40.2 306.5,-59.2 378.5,-59.2 378.5,-40.2 306.5,-40.2"/>
<polygon fill="none" stroke="#000000" points="306.5,-40.2 306.5,-59.2 378.5,-59.2 378.5,-40.2 306.5,-40.2"/>
<text text-anchor="start" x="369.3862" y="-46.3" font-family="Helvetica,sans-Serif" font-size="11.00" fill="#000000"> &#160;</text>
<polygon fill="#ffffff" stroke="transparent" points="378.5,-40.2 378.5,-59.2 439.5,-59.2 439.5,-40.2 378.5,-40.2"/>
<polygon fill="none" stroke="#000000" points="378.5,-40.2 378.5,-59.2 439.5,-59.2 439.5,-40.2 378.5,-40.2"/>
<text text-anchor="start" x="420.9053" y="-46.3" font-family="Helvetica,sans-Serif" font-size="11.00" fill="#000000">0 &gt;</text>
<polygon fill="none" stroke="#000000" stroke-width="2" points="225,-39.2 225,-1865.2 440,-1865.2 440,-39.2 225,-39.2"/>
</a>
</g>
</g>
<!-- patient_data -->
<g id="node2" class="node">
<title>patient_data</title>
<g id="a_node2"><a xlink:href="../../tables/patient_data.html" xlink:title="patient_data" target="_top">
<polygon fill="#ffffff" stroke="transparent" points="8,-1715.7 8,-1952.7 175,-1952.7 175,-1715.7 8,-1715.7"/>
<polygon fill="#f5f5f5" stroke="transparent" points="8.5,-1929.2 8.5,-1952.2 175.5,-1952.2 175.5,-1929.2 8.5,-1929.2"/>
<polygon fill="none" stroke="#000000" points="8.5,-1929.2 8.5,-1952.2 175.5,-1952.2 175.5,-1929.2 8.5,-1929.2"/>
<text text-anchor="start" x="13.5" y="-1937.8" font-family="Helvetica,sans-Serif" font-weight="bold" font-size="11.00" fill="#000000">patient_data</text>
<text text-anchor="start" x="140.5437" y="-1937.3" font-family="Helvetica,sans-Serif" font-size="11.00" fill="#000000">[table]</text>
<polygon fill="#ffffff" stroke="transparent" points="8.5,-1907.2 8.5,-1929.2 175.5,-1929.2 175.5,-1907.2 8.5,-1907.2"/>
<polygon fill="none" stroke="#000000" points="8.5,-1907.2 8.5,-1929.2 175.5,-1929.2 175.5,-1907.2 8.5,-1907.2"/>
<text text-anchor="start" x="28.5" y="-1914.3" font-family="Helvetica,sans-Serif" font-size="11.00" fill="#000000">id</text>
<polygon fill="#ffffff" stroke="transparent" points="8.5,-1885.2 8.5,-1907.2 175.5,-1907.2 175.5,-1885.2 8.5,-1885.2"/>
<polygon fill="none" stroke="#000000" points="8.5,-1885.2 8.5,-1907.2 175.5,-1907.2 175.5,-1885.2 8.5,-1885.2"/>
<text text-anchor="start" x="28.5" y="-1892.3" font-family="Helvetica,sans-Serif" font-size="11.00" fill="#000000">uuid</text>
<polygon fill="none" stroke="#000000" points="8.5,-1863.2 8.5,-1885.2 175.5,-1885.2 175.5,-1863.2 8.5,-1863.2"/>
<image xlink:href="../../images/foreignKeys.png" width="11px" height="12px" preserveAspectRatio="xMinYMin meet" x="13.5" y="-1880.2"/>
<text text-anchor="start" x="28.5" y="-1870.3" font-family="Helvetica,sans-Serif" font-size="11.00" fill="#000000">pharmacy_id</text>
<polygon fill="none" stroke="#000000" points="8.5,-1841.2 8.5,-1863.2 175.5,-1863.2 175.5,-1841.2 8.5,-1841.2"/>
<image xlink:href="../../images/foreignKeys.png" width="11px" height="12px" preserveAspectRatio="xMinYMin meet" x="13.5" y="-1858.2"/>
<text text-anchor="start" x="28.5" y="-1848.3" font-family="Helvetica,sans-Serif" font-size="11.00" fill="#000000">providerID</text>
<polygon fill="none" stroke="#000000" points="8.5,-1819.2 8.5,-1841.2 175.5,-1841.2 175.5,-1819.2 8.5,-1819.2"/>
<image xlink:href="../../images/foreignKeys.png" width="11px" height="12px" preserveAspectRatio="xMinYMin meet" x="13.5" y="-1836.2"/>
<text text-anchor="start" x="28.5" y="-1826.3" font-family="Helvetica,sans-Serif" font-size="11.00" fill="#000000">ref_providerID</text>
<polygon fill="none" stroke="#000000" points="8.5,-1797.2 8.5,-1819.2 175.5,-1819.2 175.5,-1797.2 8.5,-1797.2"/>
<image xlink:href="../../images/primaryKeys.png" width="11px" height="12px" preserveAspectRatio="xMinYMin meet" x="13.5" y="-1814.2"/>
<text text-anchor="start" x="28.5" y="-1804.3" font-family="Helvetica,sans-Serif" font-size="11.00" fill="#000000">pid</text>
<polygon fill="none" stroke="#000000" points="8.5,-1775.2 8.5,-1797.2 175.5,-1797.2 175.5,-1775.2 8.5,-1775.2"/>
<image xlink:href="../../images/foreignKeys.png" width="11px" height="12px" preserveAspectRatio="xMinYMin meet" x="13.5" y="-1792.2"/>
<text text-anchor="start" x="28.5" y="-1782.3" font-family="Helvetica,sans-Serif" font-size="11.00" fill="#000000">created_by</text>
<polygon fill="none" stroke="#000000" points="8.5,-1753.2 8.5,-1775.2 175.5,-1775.2 175.5,-1753.2 8.5,-1753.2"/>
<image xlink:href="../../images/foreignKeys.png" width="11px" height="12px" preserveAspectRatio="xMinYMin meet" x="13.5" y="-1770.2"/>
<text text-anchor="start" x="28.5" y="-1760.3" font-family="Helvetica,sans-Serif" font-size="11.00" fill="#000000">updated_by</text>
<polygon fill="none" stroke="#000000" points="8.5,-1734.2 8.5,-1753.2 175.5,-1753.2 175.5,-1734.2 8.5,-1734.2"/>
<text text-anchor="start" x="11.5" y="-1740.3" font-family="Helvetica,sans-Serif" font-size="11.00" fill="#000000">...</text>
<polygon fill="#ffffff" stroke="transparent" points="8.5,-1715.2 8.5,-1734.2 82.5,-1734.2 82.5,-1715.2 8.5,-1715.2"/>
<polygon fill="none" stroke="#000000" points="8.5,-1715.2 8.5,-1734.2 82.5,-1734.2 82.5,-1715.2 8.5,-1715.2"/>
<text text-anchor="start" x="11.5" y="-1721.3" font-family="Helvetica,sans-Serif" font-size="11.00" fill="#000000">&lt; 5</text>
<polygon fill="#ffffff" stroke="transparent" points="82.5,-1715.2 82.5,-1734.2 121.5,-1734.2 121.5,-1715.2 82.5,-1715.2"/>
<polygon fill="none" stroke="#000000" points="82.5,-1715.2 82.5,-1734.2 121.5,-1734.2 121.5,-1715.2 82.5,-1715.2"/>
<text text-anchor="start" x="112.3862" y="-1721.3" font-family="Helvetica,sans-Serif" font-size="11.00" fill="#000000"> &#160;</text>
<polygon fill="#ffffff" stroke="transparent" points="121.5,-1715.2 121.5,-1734.2 175.5,-1734.2 175.5,-1715.2 121.5,-1715.2"/>
<polygon fill="none" stroke="#000000" points="121.5,-1715.2 121.5,-1734.2 175.5,-1734.2 175.5,-1715.2 121.5,-1715.2"/>
<text text-anchor="start" x="150.7904" y="-1721.3" font-family="Helvetica,sans-Serif" font-size="11.00" fill="#000000">85 &gt;</text>
</a>
</g>
</g>
<!-- form_eye_neuro&#45;&gt;patient_data -->
<g id="edge1" class="edge">
<title>form_eye_neuro:w&#45;&gt;patient_data:e</title>
<path fill="none" stroke="#000000" d="M211.776,-1808.2C199.7815,-1808.2 192.3229,-1808.2 175.5,-1808.2"/>
<polygon fill="#000000" stroke="#000000" points="218.5,-1808.2001 226.5,-1811.8 222.5,-1808.2 226.5,-1808.2 226.5,-1808.2 226.5,-1808.2 222.5,-1808.2 226.5,-1804.6 218.5,-1808.2001 218.5,-1808.2001"/>
<ellipse fill="none" stroke="#000000" cx="215.3" cy="-1808.2001" rx="3.2" ry="3.2"/>
</g>
</g>
</svg>
