<?xml version="1.0" encoding="UTF-8" standalone="no"?>
<!DOCTYPE svg PUBLIC "-//W3C//DTD SVG 1.1//EN"
 "http://www.w3.org/Graphics/SVG/1.1/DTD/svg11.dtd">
<!-- Generated by graphviz version 2.40.1 (20161225.0304)
 -->
<!-- Title: twoDegreesRelationshipsDiagram Pages: 1 -->
<svg width="1074pt" height="408pt"
 viewBox="0.00 0.00 1074.00 408.20" xmlns="http://www.w3.org/2000/svg" xmlns:xlink="http://www.w3.org/1999/xlink">
<g id="graph0" class="graph" transform="scale(1 1) rotate(0) translate(4 404.2)">
<title>twoDegreesRelationshipsDiagram</title>
<polygon fill="#ffffff" stroke="transparent" points="-4,4 -4,-404.2 1070,-404.2 1070,4 -4,4"/>
<text text-anchor="middle" x="72.4936" y="-7.3" font-family="Helvetica,sans-Serif" font-size="11.00" fill="#000000">Generated by SchemaSpy</text>
<!-- form_encounter -->
<g id="node1" class="node">
<title>form_encounter</title>
<g id="a_node1"><a xlink:href="../../tables/form_encounter.html" xlink:title="form_encounter" target="_top">
<polygon fill="#ffffff" stroke="transparent" points="326.5,-285.2 326.5,-346.2 461.5,-346.2 461.5,-285.2 326.5,-285.2"/>
<polygon fill="#f5f5f5" stroke="transparent" points="327,-322.7 327,-345.7 462,-345.7 462,-322.7 327,-322.7"/>
<polygon fill="none" stroke="#000000" points="327,-322.7 327,-345.7 462,-345.7 462,-322.7 327,-322.7"/>
<text text-anchor="start" x="332" y="-331.3" font-family="Helvetica,sans-Serif" font-weight="bold" font-size="11.00" fill="#000000">form_encounter</text>
<text text-anchor="start" x="427.5219" y="-330.8" font-family="Helvetica,sans-Serif" font-size="11.00" fill="#000000">[table]</text>
<polygon fill="none" stroke="#000000" points="327,-303.7 327,-322.7 462,-322.7 462,-303.7 327,-303.7"/>
<text text-anchor="start" x="330" y="-309.8" font-family="Helvetica,sans-Serif" font-size="11.00" fill="#000000">...</text>
<polygon fill="#ffffff" stroke="transparent" points="327,-284.7 327,-303.7 385,-303.7 385,-284.7 327,-284.7"/>
<polygon fill="none" stroke="#000000" points="327,-284.7 327,-303.7 385,-303.7 385,-284.7 327,-284.7"/>
<text text-anchor="start" x="330" y="-290.8" font-family="Helvetica,sans-Serif" font-size="11.00" fill="#000000">&lt; 1</text>
<polygon fill="#ffffff" stroke="transparent" points="385,-284.7 385,-303.7 416,-303.7 416,-284.7 385,-284.7"/>
<polygon fill="none" stroke="#000000" points="385,-284.7 385,-303.7 416,-303.7 416,-284.7 385,-284.7"/>
<text text-anchor="start" x="406.8862" y="-290.8" font-family="Helvetica,sans-Serif" font-size="11.00" fill="#000000"> &#160;</text>
<polygon fill="#ffffff" stroke="transparent" points="416,-284.7 416,-303.7 462,-303.7 462,-284.7 416,-284.7"/>
<polygon fill="none" stroke="#000000" points="416,-284.7 416,-303.7 462,-303.7 462,-284.7 416,-284.7"/>
<text text-anchor="start" x="437.2904" y="-290.8" font-family="Helvetica,sans-Serif" font-size="11.00" fill="#000000">19 &gt;</text>
</a>
</g>
</g>
<!-- patient_data -->
<g id="node2" class="node">
<title>patient_data</title>
<g id="a_node2"><a xlink:href="../../tables/patient_data.html" xlink:title="patient_data" target="_top">
<polygon fill="#ffffff" stroke="transparent" points="128,-169.2 128,-230.2 243,-230.2 243,-169.2 128,-169.2"/>
<polygon fill="#f5f5f5" stroke="transparent" points="128.5,-206.7 128.5,-229.7 243.5,-229.7 243.5,-206.7 128.5,-206.7"/>
<polygon fill="none" stroke="#000000" points="128.5,-206.7 128.5,-229.7 243.5,-229.7 243.5,-206.7 128.5,-206.7"/>
<text text-anchor="start" x="133.5" y="-215.3" font-family="Helvetica,sans-Serif" font-weight="bold" font-size="11.00" fill="#000000">patient_data</text>
<text text-anchor="start" x="209.0219" y="-214.8" font-family="Helvetica,sans-Serif" font-size="11.00" fill="#000000">[table]</text>
<polygon fill="none" stroke="#000000" points="128.5,-187.7 128.5,-206.7 243.5,-206.7 243.5,-187.7 128.5,-187.7"/>
<text text-anchor="start" x="131.5" y="-193.8" font-family="Helvetica,sans-Serif" font-size="11.00" fill="#000000">...</text>
<polygon fill="#ffffff" stroke="transparent" points="128.5,-168.7 128.5,-187.7 176.5,-187.7 176.5,-168.7 128.5,-168.7"/>
<polygon fill="none" stroke="#000000" points="128.5,-168.7 128.5,-187.7 176.5,-187.7 176.5,-168.7 128.5,-168.7"/>
<text text-anchor="start" x="131.5" y="-174.8" font-family="Helvetica,sans-Serif" font-size="11.00" fill="#000000">&lt; 9</text>
<polygon fill="#ffffff" stroke="transparent" points="176.5,-168.7 176.5,-187.7 202.5,-187.7 202.5,-168.7 176.5,-168.7"/>
<polygon fill="none" stroke="#000000" points="176.5,-168.7 176.5,-187.7 202.5,-187.7 202.5,-168.7 176.5,-168.7"/>
<text text-anchor="start" x="193.3862" y="-174.8" font-family="Helvetica,sans-Serif" font-size="11.00" fill="#000000"> &#160;</text>
<polygon fill="#ffffff" stroke="transparent" points="202.5,-168.7 202.5,-187.7 243.5,-187.7 243.5,-168.7 202.5,-168.7"/>
<polygon fill="none" stroke="#000000" points="202.5,-168.7 202.5,-187.7 243.5,-187.7 243.5,-168.7 202.5,-168.7"/>
<text text-anchor="start" x="218.7904" y="-174.8" font-family="Helvetica,sans-Serif" font-size="11.00" fill="#000000">97 &gt;</text>
</a>
</g>
</g>
<!-- form_encounter&#45;&gt;patient_data -->
<g id="edge1" class="edge">
<title>form_encounter:w&#45;&gt;patient_data:e</title>
<path fill="none" stroke="#000000" d="M312.6458,-309.6071C298.1243,-301.8474 297.8972,-280.8063 284,-261.7 263.9783,-234.1736 277.5377,-196.7 243.5,-196.7"/>
<polygon fill="#000000" stroke="#000000" points="319.1795,-311.0149 326.2417,-316.2192 323.0897,-311.8574 327,-312.7 327,-312.7 327,-312.7 323.0897,-311.8574 327.7583,-309.1808 319.1795,-311.0149 319.1795,-311.0149"/>
<ellipse fill="none" stroke="#000000" cx="316.0513" cy="-310.3408" rx="3.2" ry="3.2"/>
</g>
<!-- users -->
<g id="node6" class="node">
<title>users</title>
<g id="a_node6"><a xlink:href="../../tables/users.html" xlink:title="users" target="_top">
<polygon fill="#ffffff" stroke="transparent" points="8,-169.2 8,-230.2 79,-230.2 79,-169.2 8,-169.2"/>
<polygon fill="#f5f5f5" stroke="transparent" points="8.5,-206.7 8.5,-229.7 79.5,-229.7 79.5,-206.7 8.5,-206.7"/>
<polygon fill="none" stroke="#000000" points="8.5,-206.7 8.5,-229.7 79.5,-229.7 79.5,-206.7 8.5,-206.7"/>
<text text-anchor="start" x="13.5" y="-215.3" font-family="Helvetica,sans-Serif" font-weight="bold" font-size="11.00" fill="#000000">users</text>
<text text-anchor="start" x="45.0219" y="-214.8" font-family="Helvetica,sans-Serif" font-size="11.00" fill="#000000">[table]</text>
<polygon fill="none" stroke="#000000" points="8.5,-187.7 8.5,-206.7 79.5,-206.7 79.5,-187.7 8.5,-187.7"/>
<text text-anchor="start" x="11.5" y="-193.8" font-family="Helvetica,sans-Serif" font-size="11.00" fill="#000000">...</text>
<polygon fill="#ffffff" stroke="transparent" points="8.5,-168.7 8.5,-187.7 34.5,-187.7 34.5,-168.7 8.5,-168.7"/>
<polygon fill="none" stroke="#000000" points="8.5,-168.7 8.5,-187.7 34.5,-187.7 34.5,-168.7 8.5,-168.7"/>
<text text-anchor="start" x="11.5" y="-174.8" font-family="Helvetica,sans-Serif" font-size="11.00" fill="#000000">&lt; 2</text>
<polygon fill="#ffffff" stroke="transparent" points="34.5,-168.7 34.5,-187.7 49.5,-187.7 49.5,-168.7 34.5,-168.7"/>
<polygon fill="none" stroke="#000000" points="34.5,-168.7 34.5,-187.7 49.5,-187.7 49.5,-168.7 34.5,-168.7"/>
<text text-anchor="start" x="40.3862" y="-174.8" font-family="Helvetica,sans-Serif" font-size="11.00" fill="#000000"> &#160;</text>
<polygon fill="#ffffff" stroke="transparent" points="49.5,-168.7 49.5,-187.7 79.5,-187.7 79.5,-168.7 49.5,-168.7"/>
<polygon fill="none" stroke="#000000" points="49.5,-168.7 49.5,-187.7 79.5,-187.7 79.5,-168.7 49.5,-168.7"/>
<text text-anchor="start" x="54.7904" y="-174.8" font-family="Helvetica,sans-Serif" font-size="11.00" fill="#000000">91 &gt;</text>
</a>
</g>
</g>
<!-- patient_data&#45;&gt;users -->
<g id="edge12" class="edge">
<title>patient_data:w&#45;&gt;users:e</title>
<path fill="none" stroke="#000000" d="M118.5525,-185.5979C104.3682,-171.4681 97.5347,-175.1688 79.5,-196.7"/>
<polygon fill="#000000" stroke="#000000" points="123.1614,-190.7418 125.8188,-199.1024 125.8307,-193.7209 128.5,-196.7 128.5,-196.7 128.5,-196.7 125.8307,-193.7209 131.1812,-194.2976 123.1614,-190.7418 123.1614,-190.7418"/>
<ellipse fill="none" stroke="#000000" cx="121.026" cy="-188.3585" rx="3.2" ry="3.2"/>
</g>
<!-- patient_data&#45;&gt;users -->
<g id="edge13" class="edge">
<title>patient_data:w&#45;&gt;users:e</title>
<path fill="none" stroke="#000000" d="M115.4586,-189.7017C103.2729,-184.4141 96.1736,-186.7469 79.5,-196.7"/>
<polygon fill="#000000" stroke="#000000" points="121.4508,-192.9172 126.7978,-199.8721 124.9754,-194.8086 128.5,-196.7 128.5,-196.7 128.5,-196.7 124.9754,-194.8086 130.2022,-193.5279 121.4508,-192.9172 121.4508,-192.9172"/>
<ellipse fill="none" stroke="#000000" cx="118.6311" cy="-191.4041" rx="3.2" ry="3.2"/>
</g>
<!-- patient_data&#45;&gt;users -->
<g id="edge14" class="edge">
<title>patient_data:w&#45;&gt;users:e</title>
<path fill="none" stroke="#000000" d="M113.9909,-196.7C102.6774,-196.7 95.4931,-196.7 79.5,-196.7"/>
<polygon fill="#000000" stroke="#000000" points="120.5,-196.7001 128.5,-200.3 124.5,-196.7 128.5,-196.7 128.5,-196.7 128.5,-196.7 124.5,-196.7 128.5,-193.1 120.5,-196.7001 120.5,-196.7001"/>
<ellipse fill="none" stroke="#000000" cx="117.3" cy="-196.7001" rx="3.2" ry="3.2"/>
</g>
<!-- patient_data&#45;&gt;users -->
<g id="edge15" class="edge">
<title>patient_data:w&#45;&gt;users:e</title>
<path fill="none" stroke="#000000" d="M115.4586,-203.6983C103.2729,-208.9859 96.1736,-206.6531 79.5,-196.7"/>
<polygon fill="#000000" stroke="#000000" points="121.4508,-200.4828 130.2022,-199.8721 124.9754,-198.5914 128.5,-196.7 128.5,-196.7 128.5,-196.7 124.9754,-198.5914 126.7978,-193.5279 121.4508,-200.4828 121.4508,-200.4828"/>
<ellipse fill="none" stroke="#000000" cx="118.6311" cy="-201.9959" rx="3.2" ry="3.2"/>
</g>
<!-- patient_data&#45;&gt;users -->
<g id="edge16" class="edge">
<title>patient_data:w&#45;&gt;users:e</title>
<path fill="none" stroke="#000000" d="M118.5525,-207.8021C104.3682,-221.9319 97.5347,-218.2313 79.5,-196.7"/>
<polygon fill="#000000" stroke="#000000" points="123.1614,-202.6582 131.1812,-199.1024 125.8307,-199.6791 128.5,-196.7 128.5,-196.7 128.5,-196.7 125.8307,-199.6791 125.8188,-194.2976 123.1614,-202.6582 123.1614,-202.6582"/>
<ellipse fill="none" stroke="#000000" cx="121.026" cy="-205.0415" rx="3.2" ry="3.2"/>
</g>
<!-- form_vital_details -->
<g id="node3" class="node">
<title>form_vital_details</title>
<g id="a_node3"><a xlink:href="../../tables/form_vital_details.html" xlink:title="form_vital_details" target="_top">
<polygon fill="#ffffff" stroke="transparent" points="560.5,-143.2 560.5,-204.2 705.5,-204.2 705.5,-143.2 560.5,-143.2"/>
<polygon fill="#f5f5f5" stroke="transparent" points="561,-180.7 561,-203.7 706,-203.7 706,-180.7 561,-180.7"/>
<polygon fill="none" stroke="#000000" points="561,-180.7 561,-203.7 706,-203.7 706,-180.7 561,-180.7"/>
<text text-anchor="start" x="566" y="-189.3" font-family="Helvetica,sans-Serif" font-weight="bold" font-size="11.00" fill="#000000">form_vital_details</text>
<text text-anchor="start" x="671.5219" y="-188.8" font-family="Helvetica,sans-Serif" font-size="11.00" fill="#000000">[table]</text>
<polygon fill="none" stroke="#000000" points="561,-161.7 561,-180.7 706,-180.7 706,-161.7 561,-161.7"/>
<text text-anchor="start" x="564" y="-167.8" font-family="Helvetica,sans-Serif" font-size="11.00" fill="#000000">...</text>
<polygon fill="#ffffff" stroke="transparent" points="561,-142.7 561,-161.7 632,-161.7 632,-142.7 561,-142.7"/>
<polygon fill="none" stroke="#000000" points="561,-142.7 561,-161.7 632,-161.7 632,-142.7 561,-142.7"/>
<text text-anchor="start" x="564" y="-148.8" font-family="Helvetica,sans-Serif" font-size="11.00" fill="#000000">&lt; 3</text>
<polygon fill="#ffffff" stroke="transparent" points="632,-142.7 632,-161.7 669,-161.7 669,-142.7 632,-142.7"/>
<polygon fill="none" stroke="#000000" points="632,-142.7 632,-161.7 669,-161.7 669,-142.7 632,-142.7"/>
<text text-anchor="start" x="659.8862" y="-148.8" font-family="Helvetica,sans-Serif" font-size="11.00" fill="#000000"> &#160;</text>
<polygon fill="#ffffff" stroke="transparent" points="669,-142.7 669,-161.7 706,-161.7 706,-142.7 669,-142.7"/>
<polygon fill="none" stroke="#000000" points="669,-142.7 669,-161.7 706,-161.7 706,-142.7 669,-142.7"/>
<text text-anchor="start" x="696.8862" y="-148.8" font-family="Helvetica,sans-Serif" font-size="11.00" fill="#000000"> &#160;</text>
</a>
</g>
</g>
<!-- form_vitals -->
<g id="node4" class="node">
<title>form_vitals</title>
<g id="a_node4"><a xlink:href="../../tables/form_vitals.html" xlink:title="form_vitals" target="_top">
<polygon fill="#ffffff" stroke="transparent" points="292,-38.2 292,-209.2 496,-209.2 496,-38.2 292,-38.2"/>
<polygon fill="#f5f5f5" stroke="transparent" points="292,-185.7 292,-208.7 496,-208.7 496,-185.7 292,-185.7"/>
<polygon fill="none" stroke="#000000" points="292,-185.7 292,-208.7 496,-208.7 496,-185.7 292,-185.7"/>
<text text-anchor="start" x="297" y="-194.3" font-family="Helvetica,sans-Serif" font-weight="bold" font-size="11.00" fill="#000000">form_vitals</text>
<text text-anchor="start" x="461.0437" y="-193.8" font-family="Helvetica,sans-Serif" font-size="11.00" fill="#000000">[table]</text>
<polygon fill="none" stroke="#000000" points="292,-163.7 292,-185.7 496,-185.7 496,-163.7 292,-163.7"/>
<image xlink:href="../../images/primaryKeys.png" width="11px" height="12px" preserveAspectRatio="xMinYMin meet" x="297" y="-180.7"/>
<text text-anchor="start" x="312" y="-170.8" font-family="Helvetica,sans-Serif" font-size="11.00" fill="#000000">id</text>
<polygon fill="#ffffff" stroke="transparent" points="292,-141.7 292,-163.7 496,-163.7 496,-141.7 292,-141.7"/>
<polygon fill="none" stroke="#000000" points="292,-141.7 292,-163.7 496,-163.7 496,-141.7 292,-141.7"/>
<text text-anchor="start" x="312" y="-148.8" font-family="Helvetica,sans-Serif" font-size="11.00" fill="#000000">uuid</text>
<polygon fill="#ffffff" stroke="transparent" points="292,-119.7 292,-141.7 496,-141.7 496,-119.7 292,-119.7"/>
<polygon fill="none" stroke="#000000" points="292,-119.7 292,-141.7 496,-141.7 496,-119.7 292,-119.7"/>
<image xlink:href="../../images/foreignKeys.png" width="11px" height="12px" preserveAspectRatio="xMinYMin meet" x="297" y="-136.7"/>
<text text-anchor="start" x="312" y="-126.8" font-family="Helvetica,sans-Serif" font-size="11.00" fill="#000000">pid</text>
<polygon fill="none" stroke="#000000" points="292,-97.7 292,-119.7 496,-119.7 496,-97.7 292,-97.7"/>
<image xlink:href="../../images/foreignKeys.png" width="11px" height="12px" preserveAspectRatio="xMinYMin meet" x="297" y="-114.7"/>
<text text-anchor="start" x="312" y="-104.8" font-family="Helvetica,sans-Serif" font-size="11.00" fill="#000000">user</text>
<polygon fill="none" stroke="#000000" points="292,-75.7 292,-97.7 496,-97.7 496,-75.7 292,-75.7"/>
<image xlink:href="../../images/foreignKeys.png" width="11px" height="12px" preserveAspectRatio="xMinYMin meet" x="297" y="-92.7"/>
<text text-anchor="start" x="312" y="-82.8" font-family="Helvetica,sans-Serif" font-size="11.00" fill="#000000">groupname</text>
<polygon fill="none" stroke="#000000" points="292,-56.7 292,-75.7 496,-75.7 496,-56.7 292,-56.7"/>
<text text-anchor="start" x="295" y="-62.8" font-family="Helvetica,sans-Serif" font-size="11.00" fill="#000000">...</text>
<polygon fill="#ffffff" stroke="transparent" points="292,-37.7 292,-56.7 388,-56.7 388,-37.7 292,-37.7"/>
<polygon fill="none" stroke="#000000" points="292,-37.7 292,-56.7 388,-56.7 388,-37.7 292,-37.7"/>
<text text-anchor="start" x="295" y="-43.8" font-family="Helvetica,sans-Serif" font-size="11.00" fill="#000000">&lt; 3</text>
<polygon fill="#ffffff" stroke="transparent" points="388,-37.7 388,-56.7 437,-56.7 437,-37.7 388,-37.7"/>
<polygon fill="none" stroke="#000000" points="388,-37.7 388,-56.7 437,-56.7 437,-37.7 388,-37.7"/>
<text text-anchor="start" x="427.8862" y="-43.8" font-family="Helvetica,sans-Serif" font-size="11.00" fill="#000000"> &#160;</text>
<polygon fill="#ffffff" stroke="transparent" points="437,-37.7 437,-56.7 496,-56.7 496,-37.7 437,-37.7"/>
<polygon fill="none" stroke="#000000" points="437,-37.7 437,-56.7 496,-56.7 496,-37.7 437,-37.7"/>
<text text-anchor="start" x="477.4053" y="-43.8" font-family="Helvetica,sans-Serif" font-size="11.00" fill="#000000">2 &gt;</text>
</a>
</g>
</g>
<!-- form_vital_details&#45;&gt;form_vitals -->
<g id="edge2" class="edge">
<title>form_vital_details:w&#45;&gt;form_vitals:e</title>
<path fill="none" stroke="#000000" d="M546.4733,-171.0835C528.5338,-172.0847 519.4036,-174.7 496,-174.7"/>
<polygon fill="#000000" stroke="#000000" points="553.0028,-170.9112 561.095,-174.2987 557.0014,-170.8056 561,-170.7 561,-170.7 561,-170.7 557.0014,-170.8056 560.905,-167.1013 553.0028,-170.9112 553.0028,-170.9112"/>
<ellipse fill="none" stroke="#000000" cx="549.8039" cy="-170.9957" rx="3.2" ry="3.2"/>
</g>
<!-- form_vitals&#45;&gt;patient_data -->
<g id="edge4" class="edge">
<title>form_vitals:w&#45;&gt;patient_data:e</title>
<path fill="none" stroke="#000000" d="M277.9938,-135.8789C262.1593,-151.4378 273.6452,-196.7 243.5,-196.7"/>
<polygon fill="#000000" stroke="#000000" points="284.4965,-133.4745 293.2485,-134.0766 288.2483,-132.0873 292,-130.7 292,-130.7 292,-130.7 288.2483,-132.0873 290.7515,-127.3234 284.4965,-133.4745 284.4965,-133.4745"/>
<ellipse fill="none" stroke="#000000" cx="281.4951" cy="-134.5843" rx="3.2" ry="3.2"/>
</g>
<!-- groups -->
<g id="node5" class="node">
<title>groups</title>
<g id="a_node5"><a xlink:href="../../tables/groups.html" xlink:title="groups" target="_top">
<polygon fill="#ffffff" stroke="transparent" points="145.5,-59.2 145.5,-120.2 225.5,-120.2 225.5,-59.2 145.5,-59.2"/>
<polygon fill="#f5f5f5" stroke="transparent" points="145.5,-96.7 145.5,-119.7 225.5,-119.7 225.5,-96.7 145.5,-96.7"/>
<polygon fill="none" stroke="#000000" points="145.5,-96.7 145.5,-119.7 225.5,-119.7 225.5,-96.7 145.5,-96.7"/>
<text text-anchor="start" x="150.5" y="-105.3" font-family="Helvetica,sans-Serif" font-weight="bold" font-size="11.00" fill="#000000">groups</text>
<text text-anchor="start" x="191.0219" y="-104.8" font-family="Helvetica,sans-Serif" font-size="11.00" fill="#000000">[table]</text>
<polygon fill="none" stroke="#000000" points="145.5,-77.7 145.5,-96.7 225.5,-96.7 225.5,-77.7 145.5,-77.7"/>
<text text-anchor="start" x="148.5" y="-83.8" font-family="Helvetica,sans-Serif" font-size="11.00" fill="#000000">...</text>
<polygon fill="#ffffff" stroke="transparent" points="145.5,-58.7 145.5,-77.7 176.5,-77.7 176.5,-58.7 145.5,-58.7"/>
<polygon fill="none" stroke="#000000" points="145.5,-58.7 145.5,-77.7 176.5,-77.7 176.5,-58.7 145.5,-58.7"/>
<text text-anchor="start" x="148.5" y="-64.8" font-family="Helvetica,sans-Serif" font-size="11.00" fill="#000000">&lt; 1</text>
<polygon fill="#ffffff" stroke="transparent" points="176.5,-58.7 176.5,-77.7 193.5,-77.7 193.5,-58.7 176.5,-58.7"/>
<polygon fill="none" stroke="#000000" points="176.5,-58.7 176.5,-77.7 193.5,-77.7 193.5,-58.7 176.5,-58.7"/>
<text text-anchor="start" x="184.3862" y="-64.8" font-family="Helvetica,sans-Serif" font-size="11.00" fill="#000000"> &#160;</text>
<polygon fill="#ffffff" stroke="transparent" points="193.5,-58.7 193.5,-77.7 225.5,-77.7 225.5,-58.7 193.5,-58.7"/>
<polygon fill="none" stroke="#000000" points="193.5,-58.7 193.5,-77.7 225.5,-77.7 225.5,-58.7 193.5,-58.7"/>
<text text-anchor="start" x="200.7904" y="-64.8" font-family="Helvetica,sans-Serif" font-size="11.00" fill="#000000">17 &gt;</text>
</a>
</g>
</g>
<!-- form_vitals&#45;&gt;groups -->
<g id="edge3" class="edge">
<title>form_vitals:w&#45;&gt;groups:e</title>
<path fill="none" stroke="#000000" d="M277.4207,-86.7C258.8943,-86.7 249.5139,-86.7 225.5,-86.7"/>
<polygon fill="#000000" stroke="#000000" points="284,-86.7001 292,-90.3 288,-86.7 292,-86.7 292,-86.7 292,-86.7 288,-86.7 292,-83.1 284,-86.7001 284,-86.7001"/>
<ellipse fill="none" stroke="#000000" cx="280.8" cy="-86.7001" rx="3.2" ry="3.2"/>
</g>
<!-- form_vitals&#45;&gt;users -->
<g id="edge5" class="edge">
<title>form_vitals:w&#45;&gt;users:e</title>
<path fill="none" stroke="#000000" d="M277.8089,-112.0418C269.1515,-116.8508 264.6513,-125.6932 251,-130.7 195.1036,-151.2007 172.7524,-131.0978 120,-158.7 98.1302,-170.1432 104.1827,-196.7 79.5,-196.7"/>
<polygon fill="#000000" stroke="#000000" points="284.213,-110.5338 292.8252,-112.2042 288.1065,-109.6169 292,-108.7 292,-108.7 292,-108.7 288.1065,-109.6169 291.1748,-105.1958 284.213,-110.5338 284.213,-110.5338"/>
<ellipse fill="none" stroke="#000000" cx="281.0982" cy="-111.2673" rx="3.2" ry="3.2"/>
</g>
<!-- groups&#45;&gt;users -->
<g id="edge11" class="edge">
<title>groups:w&#45;&gt;users:e</title>
<path fill="none" stroke="#000000" d="M131.159,-89.8735C97.1583,-107.9091 130.7233,-196.7 79.5,-196.7"/>
<polygon fill="#000000" stroke="#000000" points="137.689,-88.4285 146.2778,-90.215 141.5945,-87.5643 145.5,-86.7 145.5,-86.7 145.5,-86.7 141.5945,-87.5643 144.7222,-83.185 137.689,-88.4285 137.689,-88.4285"/>
<ellipse fill="none" stroke="#000000" cx="134.5645" cy="-89.1199" rx="3.2" ry="3.2"/>
</g>
<!-- form_vitals_calculation -->
<g id="node7" class="node">
<title>form_vitals_calculation</title>
<g id="a_node7"><a xlink:href="../../tables/form_vitals_calculation.html" xlink:title="form_vitals_calculation" target="_top">
<polygon fill="#ffffff" stroke="transparent" points="545,-225.2 545,-396.2 721,-396.2 721,-225.2 545,-225.2"/>
<polygon fill="#f5f5f5" stroke="transparent" points="545,-372.7 545,-395.7 721,-395.7 721,-372.7 545,-372.7"/>
<polygon fill="none" stroke="#000000" points="545,-372.7 545,-395.7 721,-395.7 721,-372.7 545,-372.7"/>
<text text-anchor="start" x="550" y="-381.3" font-family="Helvetica,sans-Serif" font-weight="bold" font-size="11.00" fill="#000000">form_vitals_calculation</text>
<text text-anchor="start" x="686.5219" y="-380.8" font-family="Helvetica,sans-Serif" font-size="11.00" fill="#000000">[table]</text>
<polygon fill="none" stroke="#000000" points="545,-350.7 545,-372.7 721,-372.7 721,-350.7 545,-350.7"/>
<image xlink:href="../../images/primaryKeys.png" width="11px" height="12px" preserveAspectRatio="xMinYMin meet" x="550" y="-367.7"/>
<text text-anchor="start" x="574" y="-357.8" font-family="Helvetica,sans-Serif" font-size="11.00" fill="#000000">id</text>
<polygon fill="none" stroke="#000000" points="545,-328.7 545,-350.7 721,-350.7 721,-328.7 545,-328.7"/>
<image xlink:href="../../images/primaryKeys.png" width="11px" height="12px" preserveAspectRatio="xMinYMin meet" x="550" y="-345.7"/>
<text text-anchor="start" x="574" y="-335.8" font-family="Helvetica,sans-Serif" font-size="11.00" fill="#000000">uuid</text>
<polygon fill="#ffffff" stroke="transparent" points="545,-306.7 545,-328.7 721,-328.7 721,-306.7 545,-306.7"/>
<polygon fill="none" stroke="#000000" points="545,-306.7 545,-328.7 721,-328.7 721,-306.7 545,-306.7"/>
<image xlink:href="../../images/foreignKeys.png" width="11px" height="12px" preserveAspectRatio="xMinYMin meet" x="550" y="-323.7"/>
<text text-anchor="start" x="574" y="-313.8" font-family="Helvetica,sans-Serif" font-size="11.00" fill="#000000">encounter</text>
<polygon fill="#ffffff" stroke="transparent" points="545,-284.7 545,-306.7 721,-306.7 721,-284.7 545,-284.7"/>
<polygon fill="none" stroke="#000000" points="545,-284.7 545,-306.7 721,-306.7 721,-284.7 545,-284.7"/>
<image xlink:href="../../images/foreignKeys.png" width="11px" height="12px" preserveAspectRatio="xMinYMin meet" x="550" y="-301.7"/>
<text text-anchor="start" x="574" y="-291.8" font-family="Helvetica,sans-Serif" font-size="11.00" fill="#000000">pid</text>
<polygon fill="#ffffff" stroke="transparent" points="545,-262.7 545,-284.7 721,-284.7 721,-262.7 545,-262.7"/>
<polygon fill="none" stroke="#000000" points="545,-262.7 545,-284.7 721,-284.7 721,-262.7 545,-262.7"/>
<text text-anchor="start" x="574" y="-269.8" font-family="Helvetica,sans-Serif" font-size="11.00" fill="#000000">calculation_id</text>
<polygon fill="none" stroke="#000000" points="545,-243.7 545,-262.7 721,-262.7 721,-243.7 545,-243.7"/>
<text text-anchor="start" x="548" y="-249.8" font-family="Helvetica,sans-Serif" font-size="11.00" fill="#000000">...</text>
<polygon fill="#ffffff" stroke="transparent" points="545,-224.7 545,-243.7 627,-243.7 627,-224.7 545,-224.7"/>
<polygon fill="none" stroke="#000000" points="545,-224.7 545,-243.7 627,-243.7 627,-224.7 545,-224.7"/>
<text text-anchor="start" x="548" y="-230.8" font-family="Helvetica,sans-Serif" font-size="11.00" fill="#000000">&lt; 2</text>
<polygon fill="#ffffff" stroke="transparent" points="627,-224.7 627,-243.7 669,-243.7 669,-224.7 627,-224.7"/>
<polygon fill="none" stroke="#000000" points="627,-224.7 627,-243.7 669,-243.7 669,-224.7 627,-224.7"/>
<text text-anchor="start" x="659.8862" y="-230.8" font-family="Helvetica,sans-Serif" font-size="11.00" fill="#000000"> &#160;</text>
<polygon fill="#ffffff" stroke="transparent" points="669,-224.7 669,-243.7 721,-243.7 721,-224.7 669,-224.7"/>
<polygon fill="none" stroke="#000000" points="669,-224.7 669,-243.7 721,-243.7 721,-224.7 669,-224.7"/>
<text text-anchor="start" x="702.4053" y="-230.8" font-family="Helvetica,sans-Serif" font-size="11.00" fill="#000000">2 &gt;</text>
</a>
</g>
</g>
<!-- form_vitals_calculation&#45;&gt;form_encounter -->
<g id="edge6" class="edge">
<title>form_vitals_calculation:w&#45;&gt;form_encounter:e</title>
<path fill="none" stroke="#000000" d="M530.5543,-317.4169C504.835,-316.3591 493.6145,-312.7 462,-312.7"/>
<polygon fill="#000000" stroke="#000000" points="537.0015,-317.5432 544.9294,-321.2993 541.0008,-317.6216 545,-317.7 545,-317.7 545,-317.7 541.0008,-317.6216 545.0706,-314.1007 537.0015,-317.5432 537.0015,-317.5432"/>
<ellipse fill="none" stroke="#000000" cx="533.8022" cy="-317.4804" rx="3.2" ry="3.2"/>
</g>
<!-- form_vitals_calculation&#45;&gt;patient_data -->
<g id="edge7" class="edge">
<title>form_vitals_calculation:w&#45;&gt;patient_data:e</title>
<path fill="none" stroke="#000000" d="M530.8536,-292.5843C522.1499,-288.0864 517.4768,-279.7599 504,-274.7 409.6442,-239.2739 377.57,-257.1524 284,-219.7 264.7822,-212.0079 264.2001,-196.7 243.5,-196.7"/>
<polygon fill="#000000" stroke="#000000" points="537.1872,-293.9792 544.2256,-299.2157 541.0936,-294.8396 545,-295.7 545,-295.7 545,-295.7 541.0936,-294.8396 545.7744,-292.1843 537.1872,-293.9792 537.1872,-293.9792"/>
<ellipse fill="none" stroke="#000000" cx="534.0621" cy="-293.2909" rx="3.2" ry="3.2"/>
</g>
<!-- form_vitals_calculation_components -->
<g id="node8" class="node">
<title>form_vitals_calculation_components</title>
<g id="a_node8"><a xlink:href="../../tables/form_vitals_calculation_components.html" xlink:title="form_vitals_calculation_components" target="_top">
<polygon fill="#ffffff" stroke="transparent" points="786,-312.2 786,-373.2 1042,-373.2 1042,-312.2 786,-312.2"/>
<polygon fill="#f5f5f5" stroke="transparent" points="786,-349.7 786,-372.7 1042,-372.7 1042,-349.7 786,-349.7"/>
<polygon fill="none" stroke="#000000" points="786,-349.7 786,-372.7 1042,-372.7 1042,-349.7 786,-349.7"/>
<text text-anchor="start" x="791" y="-358.3" font-family="Helvetica,sans-Serif" font-weight="bold" font-size="11.00" fill="#000000">form_vitals_calculation_components</text>
<text text-anchor="start" x="1007.5219" y="-357.8" font-family="Helvetica,sans-Serif" font-size="11.00" fill="#000000">[table]</text>
<polygon fill="none" stroke="#000000" points="786,-330.7 786,-349.7 1042,-349.7 1042,-330.7 786,-330.7"/>
<text text-anchor="start" x="789" y="-336.8" font-family="Helvetica,sans-Serif" font-size="11.00" fill="#000000">...</text>
<polygon fill="#ffffff" stroke="transparent" points="786,-311.7 786,-330.7 912,-330.7 912,-311.7 786,-311.7"/>
<polygon fill="none" stroke="#000000" points="786,-311.7 786,-330.7 912,-330.7 912,-311.7 786,-311.7"/>
<text text-anchor="start" x="789" y="-317.8" font-family="Helvetica,sans-Serif" font-size="11.00" fill="#000000">&lt; 1</text>
<polygon fill="#ffffff" stroke="transparent" points="912,-311.7 912,-330.7 977,-330.7 977,-311.7 912,-311.7"/>
<polygon fill="none" stroke="#000000" points="912,-311.7 912,-330.7 977,-330.7 977,-311.7 912,-311.7"/>
<text text-anchor="start" x="967.8862" y="-317.8" font-family="Helvetica,sans-Serif" font-size="11.00" fill="#000000"> &#160;</text>
<polygon fill="#ffffff" stroke="transparent" points="977,-311.7 977,-330.7 1042,-330.7 1042,-311.7 977,-311.7"/>
<polygon fill="none" stroke="#000000" points="977,-311.7 977,-330.7 1042,-330.7 1042,-311.7 977,-311.7"/>
<text text-anchor="start" x="1032.8862" y="-317.8" font-family="Helvetica,sans-Serif" font-size="11.00" fill="#000000"> &#160;</text>
</a>
</g>
</g>
<!-- form_vitals_calculation_components&#45;&gt;form_vitals_calculation -->
<g id="edge8" class="edge">
<title>form_vitals_calculation_components:w&#45;&gt;form_vitals_calculation:e</title>
<path fill="none" stroke="#000000" d="M771.4889,-339.7C753.5526,-339.7 744.3594,-339.7 721,-339.7"/>
<polygon fill="#000000" stroke="#000000" points="778,-339.7001 786,-343.3 782,-339.7 786,-339.7 786,-339.7 786,-339.7 782,-339.7 786,-336.1 778,-339.7001 778,-339.7001"/>
<ellipse fill="none" stroke="#000000" cx="774.8" cy="-339.7001" rx="3.2" ry="3.2"/>
</g>
<!-- form_vitals_calculation_form_vitals -->
<g id="node9" class="node">
<title>form_vitals_calculation_form_vitals</title>
<g id="a_node9"><a xlink:href="../../tables/form_vitals_calculation_form_vitals.html" xlink:title="form_vitals_calculation_form_vitals" target="_top">
<polygon fill="#ffffff" stroke="transparent" points="770,-143.7 770,-233.7 1058,-233.7 1058,-143.7 770,-143.7"/>
<polygon fill="#f5f5f5" stroke="transparent" points="772,-208.7 772,-231.7 1056,-231.7 1056,-208.7 772,-208.7"/>
<polygon fill="none" stroke="#000000" points="772,-208.7 772,-231.7 1056,-231.7 1056,-208.7 772,-208.7"/>
<text text-anchor="start" x="777" y="-217.3" font-family="Helvetica,sans-Serif" font-weight="bold" font-size="11.00" fill="#000000">form_vitals_calculation_form_vitals</text>
<text text-anchor="start" x="1021.0437" y="-216.8" font-family="Helvetica,sans-Serif" font-size="11.00" fill="#000000">[table]</text>
<polygon fill="none" stroke="#000000" points="772,-186.7 772,-208.7 1002,-208.7 1002,-186.7 772,-186.7"/>
<image xlink:href="../../images/primaryKeys.png" width="11px" height="12px" preserveAspectRatio="xMinYMin meet" x="777" y="-203.7"/>
<text text-anchor="start" x="792" y="-193.8" font-family="Helvetica,sans-Serif" font-size="11.00" fill="#000000">fvc_uuid</text>
<polygon fill="none" stroke="#000000" points="1002,-186.7 1002,-208.7 1056,-208.7 1056,-186.7 1002,-186.7"/>
<text text-anchor="start" x="1004.8545" y="-194.4" font-family="Helvetica,sans-Serif" font-size="11.00" fill="#000000">binary[16]</text>
<polygon fill="none" stroke="#000000" points="772,-164.7 772,-186.7 1002,-186.7 1002,-164.7 772,-164.7"/>
<image xlink:href="../../images/primaryKeys.png" width="11px" height="12px" preserveAspectRatio="xMinYMin meet" x="777" y="-181.7"/>
<text text-anchor="start" x="792" y="-171.8" font-family="Helvetica,sans-Serif" font-size="11.00" fill="#000000">vitals_id</text>
<polygon fill="none" stroke="#000000" points="1002,-164.7 1002,-186.7 1056,-186.7 1056,-164.7 1002,-164.7"/>
<text text-anchor="start" x="1005" y="-172.4" font-family="Helvetica,sans-Serif" font-size="11.00" fill="#000000">bigint[19]</text>
<polygon fill="#ffffff" stroke="transparent" points="772,-145.7 772,-164.7 891,-164.7 891,-145.7 772,-145.7"/>
<polygon fill="none" stroke="#000000" points="772,-145.7 772,-164.7 891,-164.7 891,-145.7 772,-145.7"/>
<text text-anchor="start" x="775" y="-151.8" font-family="Helvetica,sans-Serif" font-size="11.00" fill="#000000">&lt; 2</text>
<polygon fill="#ffffff" stroke="transparent" points="891,-145.7 891,-164.7 1002,-164.7 1002,-145.7 891,-145.7"/>
<polygon fill="none" stroke="#000000" points="891,-145.7 891,-164.7 1002,-164.7 1002,-145.7 891,-145.7"/>
<text text-anchor="start" x="992.8862" y="-151.8" font-family="Helvetica,sans-Serif" font-size="11.00" fill="#000000"> &#160;</text>
<polygon fill="#ffffff" stroke="transparent" points="1002,-145.7 1002,-164.7 1056,-164.7 1056,-145.7 1002,-145.7"/>
<polygon fill="none" stroke="#000000" points="1002,-145.7 1002,-164.7 1056,-164.7 1056,-145.7 1002,-145.7"/>
<text text-anchor="start" x="1037.4053" y="-151.8" font-family="Helvetica,sans-Serif" font-size="11.00" fill="#000000">0 &gt;</text>
<polygon fill="none" stroke="#000000" stroke-width="2" points="771,-144.7 771,-232.7 1057,-232.7 1057,-144.7 771,-144.7"/>
</a>
</g>
</g>
<!-- form_vitals_calculation_form_vitals&#45;&gt;form_vitals -->
<g id="edge10" class="edge">
<title>form_vitals_calculation_form_vitals:w&#45;&gt;form_vitals:e</title>
<path fill="none" stroke="#000000" d="M758.032,-171.026C747.3243,-161.6177 748.1176,-140.6188 729,-132.7 650.1623,-100.0443 615.6396,-99.57 537,-132.7 512.96,-142.8278 522.0863,-174.7 496,-174.7"/>
<polygon fill="#000000" stroke="#000000" points="764.4135,-173.1613 770.8576,-179.1139 768.2067,-174.4307 772,-175.7 772,-175.7 772,-175.7 768.2067,-174.4307 773.1424,-172.2861 764.4135,-173.1613 764.4135,-173.1613"/>
<ellipse fill="none" stroke="#000000" cx="761.3789" cy="-172.1459" rx="3.2" ry="3.2"/>
</g>
<!-- form_vitals_calculation_form_vitals&#45;&gt;form_vitals_calculation -->
<g id="edge9" class="edge">
<title>form_vitals_calculation_form_vitals:w&#45;&gt;form_vitals_calculation:e</title>
<path fill="none" stroke="#000000" d="M757.8482,-200.6659C718.1184,-221.0575 782.2953,-339.7 721,-339.7"/>
<polygon fill="#000000" stroke="#000000" points="764.1701,-199.341 772.7384,-201.2235 768.0851,-198.5205 772,-197.7 772,-197.7 772,-197.7 768.0851,-198.5205 771.2616,-194.1765 764.1701,-199.341 764.1701,-199.341"/>
<ellipse fill="none" stroke="#000000" cx="761.0381" cy="-199.9974" rx="3.2" ry="3.2"/>
</g>
</g>
</svg>
