<?xml version="1.0" encoding="UTF-8" standalone="no"?>
<!DOCTYPE svg PUBLIC "-//W3C//DTD SVG 1.1//EN"
 "http://www.w3.org/Graphics/SVG/1.1/DTD/svg11.dtd">
<!-- Generated by graphviz version 2.40.1 (20161225.0304)
 -->
<!-- Title: oneDegreeRelationshipsDiagram Pages: 1 -->
<svg width="643pt" height="441pt"
 viewBox="0.00 0.00 643.00 441.20" xmlns="http://www.w3.org/2000/svg" xmlns:xlink="http://www.w3.org/1999/xlink">
<g id="graph0" class="graph" transform="scale(1 1) rotate(0) translate(4 437.2)">
<title>oneDegreeRelationshipsDiagram</title>
<polygon fill="#ffffff" stroke="transparent" points="-4,4 -4,-437.2 639,-437.2 639,4 -4,4"/>
<text text-anchor="middle" x="72.4936" y="-7.3" font-family="Helvetica,sans-Serif" font-size="11.00" fill="#000000">Generated by SchemaSpy</text>
<!-- forms -->
<g id="node1" class="node">
<title>forms</title>
<g id="a_node1"><a xlink:href="../../tables/forms.html" xlink:title="forms" target="_top">
<polygon fill="#ffffff" stroke="transparent" points="305,-152.2 305,-411.2 430,-411.2 430,-152.2 305,-152.2"/>
<polygon fill="#f5f5f5" stroke="transparent" points="305.5,-387.7 305.5,-410.7 430.5,-410.7 430.5,-387.7 305.5,-387.7"/>
<polygon fill="none" stroke="#000000" points="305.5,-387.7 305.5,-410.7 430.5,-410.7 430.5,-387.7 305.5,-387.7"/>
<text text-anchor="start" x="310.5" y="-396.3" font-family="Helvetica,sans-Serif" font-weight="bold" font-size="11.00" fill="#000000">forms</text>
<text text-anchor="start" x="395.5437" y="-395.8" font-family="Helvetica,sans-Serif" font-size="11.00" fill="#000000">[table]</text>
<polygon fill="none" stroke="#000000" points="305.5,-365.7 305.5,-387.7 430.5,-387.7 430.5,-365.7 305.5,-365.7"/>
<image xlink:href="../../images/primaryKeys.png" width="11px" height="12px" preserveAspectRatio="xMinYMin meet" x="310.5" y="-382.7"/>
<text text-anchor="start" x="325.5" y="-372.8" font-family="Helvetica,sans-Serif" font-size="11.00" fill="#000000">id</text>
<polygon fill="#ffffff" stroke="transparent" points="305.5,-343.7 305.5,-365.7 430.5,-365.7 430.5,-343.7 305.5,-343.7"/>
<polygon fill="none" stroke="#000000" points="305.5,-343.7 305.5,-365.7 430.5,-365.7 430.5,-343.7 305.5,-343.7"/>
<text text-anchor="start" x="325.5" y="-350.8" font-family="Helvetica,sans-Serif" font-size="11.00" fill="#000000">encounter</text>
<polygon fill="none" stroke="#000000" points="305.5,-321.7 305.5,-343.7 430.5,-343.7 430.5,-321.7 305.5,-321.7"/>
<image xlink:href="../../images/primaryKeys.png" width="11px" height="12px" preserveAspectRatio="xMinYMin meet" x="310.5" y="-338.7"/>
<text text-anchor="start" x="325.5" y="-328.8" font-family="Helvetica,sans-Serif" font-size="11.00" fill="#000000">form_id</text>
<polygon fill="#ffffff" stroke="transparent" points="305.5,-299.7 305.5,-321.7 430.5,-321.7 430.5,-299.7 305.5,-299.7"/>
<polygon fill="none" stroke="#000000" points="305.5,-299.7 305.5,-321.7 430.5,-321.7 430.5,-299.7 305.5,-299.7"/>
<image xlink:href="../../images/foreignKeys.png" width="11px" height="12px" preserveAspectRatio="xMinYMin meet" x="310.5" y="-316.7"/>
<text text-anchor="start" x="325.5" y="-306.8" font-family="Helvetica,sans-Serif" font-size="11.00" fill="#000000">pid</text>
<polygon fill="none" stroke="#000000" points="305.5,-277.7 305.5,-299.7 430.5,-299.7 430.5,-277.7 305.5,-277.7"/>
<image xlink:href="../../images/foreignKeys.png" width="11px" height="12px" preserveAspectRatio="xMinYMin meet" x="310.5" y="-294.7"/>
<text text-anchor="start" x="325.5" y="-284.8" font-family="Helvetica,sans-Serif" font-size="11.00" fill="#000000">user</text>
<polygon fill="none" stroke="#000000" points="305.5,-255.7 305.5,-277.7 430.5,-277.7 430.5,-255.7 305.5,-255.7"/>
<image xlink:href="../../images/foreignKeys.png" width="11px" height="12px" preserveAspectRatio="xMinYMin meet" x="310.5" y="-272.7"/>
<text text-anchor="start" x="325.5" y="-262.8" font-family="Helvetica,sans-Serif" font-size="11.00" fill="#000000">groupname</text>
<polygon fill="none" stroke="#000000" points="305.5,-233.7 305.5,-255.7 430.5,-255.7 430.5,-233.7 305.5,-233.7"/>
<image xlink:href="../../images/foreignKeys.png" width="11px" height="12px" preserveAspectRatio="xMinYMin meet" x="310.5" y="-250.7"/>
<text text-anchor="start" x="325.5" y="-240.8" font-family="Helvetica,sans-Serif" font-size="11.00" fill="#000000">therapy_group_id</text>
<polygon fill="none" stroke="#000000" points="305.5,-211.7 305.5,-233.7 430.5,-233.7 430.5,-211.7 305.5,-211.7"/>
<image xlink:href="../../images/foreignKeys.png" width="11px" height="12px" preserveAspectRatio="xMinYMin meet" x="310.5" y="-228.7"/>
<text text-anchor="start" x="325.5" y="-218.8" font-family="Helvetica,sans-Serif" font-size="11.00" fill="#000000">issue_id</text>
<polygon fill="none" stroke="#000000" points="305.5,-189.7 305.5,-211.7 430.5,-211.7 430.5,-189.7 305.5,-189.7"/>
<image xlink:href="../../images/foreignKeys.png" width="11px" height="12px" preserveAspectRatio="xMinYMin meet" x="310.5" y="-206.7"/>
<text text-anchor="start" x="325.5" y="-196.8" font-family="Helvetica,sans-Serif" font-size="11.00" fill="#000000">provider_id</text>
<polygon fill="none" stroke="#000000" points="305.5,-170.7 305.5,-189.7 430.5,-189.7 430.5,-170.7 305.5,-170.7"/>
<text text-anchor="start" x="308.5" y="-176.8" font-family="Helvetica,sans-Serif" font-size="11.00" fill="#000000">...</text>
<polygon fill="#ffffff" stroke="transparent" points="305.5,-151.7 305.5,-170.7 358.5,-170.7 358.5,-151.7 305.5,-151.7"/>
<polygon fill="none" stroke="#000000" points="305.5,-151.7 305.5,-170.7 358.5,-170.7 358.5,-151.7 305.5,-151.7"/>
<text text-anchor="start" x="308.5" y="-157.8" font-family="Helvetica,sans-Serif" font-size="11.00" fill="#000000">&lt; 6</text>
<polygon fill="#ffffff" stroke="transparent" points="358.5,-151.7 358.5,-170.7 386.5,-170.7 386.5,-151.7 358.5,-151.7"/>
<polygon fill="none" stroke="#000000" points="358.5,-151.7 358.5,-170.7 386.5,-170.7 386.5,-151.7 358.5,-151.7"/>
<text text-anchor="start" x="377.3862" y="-157.8" font-family="Helvetica,sans-Serif" font-size="11.00" fill="#000000"> &#160;</text>
<polygon fill="#ffffff" stroke="transparent" points="386.5,-151.7 386.5,-170.7 430.5,-170.7 430.5,-151.7 386.5,-151.7"/>
<polygon fill="none" stroke="#000000" points="386.5,-151.7 386.5,-170.7 430.5,-170.7 430.5,-151.7 386.5,-151.7"/>
<text text-anchor="start" x="405.7904" y="-157.8" font-family="Helvetica,sans-Serif" font-size="11.00" fill="#000000">14 &gt;</text>
</a>
</g>
</g>
<!-- patient_data -->
<g id="node2" class="node">
<title>patient_data</title>
<g id="a_node2"><a xlink:href="../../tables/patient_data.html" xlink:title="patient_data" target="_top">
<polygon fill="#ffffff" stroke="transparent" points="8,-38.2 8,-429.2 256,-429.2 256,-38.2 8,-38.2"/>
<polygon fill="#f5f5f5" stroke="transparent" points="8,-405.7 8,-428.7 256,-428.7 256,-405.7 8,-405.7"/>
<polygon fill="none" stroke="#000000" points="8,-405.7 8,-428.7 256,-428.7 256,-405.7 8,-405.7"/>
<text text-anchor="start" x="13" y="-414.3" font-family="Helvetica,sans-Serif" font-weight="bold" font-size="11.00" fill="#000000">patient_data</text>
<text text-anchor="start" x="221.0437" y="-413.8" font-family="Helvetica,sans-Serif" font-size="11.00" fill="#000000">[table]</text>
<polygon fill="none" stroke="#000000" points="8,-383.7 8,-405.7 256,-405.7 256,-383.7 8,-383.7"/>
<image xlink:href="../../images/primaryKeys.png" width="11px" height="12px" preserveAspectRatio="xMinYMin meet" x="13" y="-400.7"/>
<text text-anchor="start" x="28" y="-390.8" font-family="Helvetica,sans-Serif" font-size="11.00" fill="#000000">id</text>
<polygon fill="#ffffff" stroke="transparent" points="8,-361.7 8,-383.7 256,-383.7 256,-361.7 8,-361.7"/>
<polygon fill="none" stroke="#000000" points="8,-361.7 8,-383.7 256,-383.7 256,-361.7 8,-361.7"/>
<text text-anchor="start" x="28" y="-368.8" font-family="Helvetica,sans-Serif" font-size="11.00" fill="#000000">uuid</text>
<polygon fill="#ffffff" stroke="transparent" points="8,-339.7 8,-361.7 256,-361.7 256,-339.7 8,-339.7"/>
<polygon fill="none" stroke="#000000" points="8,-339.7 8,-361.7 256,-361.7 256,-339.7 8,-339.7"/>
<text text-anchor="start" x="28" y="-346.8" font-family="Helvetica,sans-Serif" font-size="11.00" fill="#000000">fname</text>
<polygon fill="#ffffff" stroke="transparent" points="8,-317.7 8,-339.7 256,-339.7 256,-317.7 8,-317.7"/>
<polygon fill="none" stroke="#000000" points="8,-317.7 8,-339.7 256,-339.7 256,-317.7 8,-317.7"/>
<text text-anchor="start" x="28" y="-324.8" font-family="Helvetica,sans-Serif" font-size="11.00" fill="#000000">lname</text>
<polygon fill="#ffffff" stroke="transparent" points="8,-295.7 8,-317.7 256,-317.7 256,-295.7 8,-295.7"/>
<polygon fill="none" stroke="#000000" points="8,-295.7 8,-317.7 256,-317.7 256,-295.7 8,-295.7"/>
<text text-anchor="start" x="28" y="-302.8" font-family="Helvetica,sans-Serif" font-size="11.00" fill="#000000">DOB</text>
<polygon fill="none" stroke="#000000" points="8,-273.7 8,-295.7 256,-295.7 256,-273.7 8,-273.7"/>
<image xlink:href="../../images/foreignKeys.png" width="11px" height="12px" preserveAspectRatio="xMinYMin meet" x="13" y="-290.7"/>
<text text-anchor="start" x="28" y="-280.8" font-family="Helvetica,sans-Serif" font-size="11.00" fill="#000000">pharmacy_id</text>
<polygon fill="none" stroke="#000000" points="8,-251.7 8,-273.7 256,-273.7 256,-251.7 8,-251.7"/>
<image xlink:href="../../images/foreignKeys.png" width="11px" height="12px" preserveAspectRatio="xMinYMin meet" x="13" y="-268.7"/>
<text text-anchor="start" x="28" y="-258.8" font-family="Helvetica,sans-Serif" font-size="11.00" fill="#000000">providerID</text>
<polygon fill="none" stroke="#000000" points="8,-229.7 8,-251.7 256,-251.7 256,-229.7 8,-229.7"/>
<image xlink:href="../../images/foreignKeys.png" width="11px" height="12px" preserveAspectRatio="xMinYMin meet" x="13" y="-246.7"/>
<text text-anchor="start" x="28" y="-236.8" font-family="Helvetica,sans-Serif" font-size="11.00" fill="#000000">ref_providerID</text>
<polygon fill="none" stroke="#000000" points="8,-207.7 8,-229.7 256,-229.7 256,-207.7 8,-207.7"/>
<image xlink:href="../../images/primaryKeys.png" width="11px" height="12px" preserveAspectRatio="xMinYMin meet" x="13" y="-224.7"/>
<text text-anchor="start" x="28" y="-214.8" font-family="Helvetica,sans-Serif" font-size="11.00" fill="#000000">pid</text>
<polygon fill="none" stroke="#000000" points="8,-185.7 8,-207.7 256,-207.7 256,-185.7 8,-185.7"/>
<image xlink:href="../../images/foreignKeys.png" width="11px" height="12px" preserveAspectRatio="xMinYMin meet" x="13" y="-202.7"/>
<text text-anchor="start" x="28" y="-192.8" font-family="Helvetica,sans-Serif" font-size="11.00" fill="#000000">created_by</text>
<polygon fill="none" stroke="#000000" points="8,-163.7 8,-185.7 256,-185.7 256,-163.7 8,-163.7"/>
<image xlink:href="../../images/foreignKeys.png" width="11px" height="12px" preserveAspectRatio="xMinYMin meet" x="13" y="-180.7"/>
<text text-anchor="start" x="28" y="-170.8" font-family="Helvetica,sans-Serif" font-size="11.00" fill="#000000">updated_by</text>
<polygon fill="none" stroke="#000000" points="8,-141.7 8,-163.7 256,-163.7 256,-141.7 8,-141.7"/>
<image xlink:href="../../images/foreignKeys.png" width="11px" height="12px" preserveAspectRatio="xMinYMin meet" x="13" y="-158.7"/>
<text text-anchor="start" x="28" y="-148.8" font-family="Helvetica,sans-Serif" font-size="11.00" fill="#000000">tribal_affiliations</text>
<polygon fill="none" stroke="#000000" points="8,-119.7 8,-141.7 256,-141.7 256,-119.7 8,-119.7"/>
<image xlink:href="../../images/foreignKeys.png" width="11px" height="12px" preserveAspectRatio="xMinYMin meet" x="13" y="-136.7"/>
<text text-anchor="start" x="28" y="-126.8" font-family="Helvetica,sans-Serif" font-size="11.00" fill="#000000">sex_identified</text>
<polygon fill="none" stroke="#000000" points="8,-97.7 8,-119.7 256,-119.7 256,-97.7 8,-97.7"/>
<image xlink:href="../../images/foreignKeys.png" width="11px" height="12px" preserveAspectRatio="xMinYMin meet" x="13" y="-114.7"/>
<text text-anchor="start" x="28" y="-104.8" font-family="Helvetica,sans-Serif" font-size="11.00" fill="#000000">interpreter_needed</text>
<polygon fill="none" stroke="#000000" points="8,-75.7 8,-97.7 256,-97.7 256,-75.7 8,-75.7"/>
<image xlink:href="../../images/foreignKeys.png" width="11px" height="12px" preserveAspectRatio="xMinYMin meet" x="13" y="-92.7"/>
<text text-anchor="start" x="28" y="-82.8" font-family="Helvetica,sans-Serif" font-size="11.00" fill="#000000">advance_directive_user_authenticator</text>
<polygon fill="none" stroke="#000000" points="8,-56.7 8,-75.7 256,-75.7 256,-56.7 8,-56.7"/>
<text text-anchor="start" x="11" y="-62.8" font-family="Helvetica,sans-Serif" font-size="11.00" fill="#000000">...</text>
<polygon fill="#ffffff" stroke="transparent" points="8,-37.7 8,-56.7 123,-56.7 123,-37.7 8,-37.7"/>
<polygon fill="none" stroke="#000000" points="8,-37.7 8,-56.7 123,-56.7 123,-37.7 8,-37.7"/>
<text text-anchor="start" x="11" y="-43.8" font-family="Helvetica,sans-Serif" font-size="11.00" fill="#000000">&lt; 9</text>
<polygon fill="#ffffff" stroke="transparent" points="123,-37.7 123,-56.7 182,-56.7 182,-37.7 123,-37.7"/>
<polygon fill="none" stroke="#000000" points="123,-37.7 123,-56.7 182,-56.7 182,-37.7 123,-37.7"/>
<text text-anchor="start" x="172.8862" y="-43.8" font-family="Helvetica,sans-Serif" font-size="11.00" fill="#000000"> &#160;</text>
<polygon fill="#ffffff" stroke="transparent" points="182,-37.7 182,-56.7 256,-56.7 256,-37.7 182,-37.7"/>
<polygon fill="none" stroke="#000000" points="182,-37.7 182,-56.7 256,-56.7 256,-37.7 182,-37.7"/>
<text text-anchor="start" x="231.2904" y="-43.8" font-family="Helvetica,sans-Serif" font-size="11.00" fill="#000000">97 &gt;</text>
</a>
</g>
</g>
<!-- forms&#45;&gt;patient_data -->
<g id="edge1" class="edge">
<title>forms:w&#45;&gt;patient_data:e</title>
<path fill="none" stroke="#000000" d="M291.6356,-306.5079C268.7558,-288.51 296.4463,-218.7 256,-218.7"/>
<polygon fill="#000000" stroke="#000000" points="297.8424,-308.3846 304.4581,-314.1459 301.6712,-309.5423 305.5,-310.7 305.5,-310.7 305.5,-310.7 301.6712,-309.5423 306.5419,-307.2541 297.8424,-308.3846 297.8424,-308.3846"/>
<ellipse fill="none" stroke="#000000" cx="294.7793" cy="-307.4584" rx="3.2" ry="3.2"/>
</g>
<!-- form_note -->
<g id="node3" class="node">
<title>form_note</title>
<g id="a_node3"><a xlink:href="../../tables/form_note.html" xlink:title="form_note" target="_top">
<polygon fill="#ffffff" stroke="transparent" points="479,-186.7 479,-276.7 627,-276.7 627,-186.7 479,-186.7"/>
<polygon fill="#f5f5f5" stroke="transparent" points="481,-251.7 481,-274.7 625,-274.7 625,-251.7 481,-251.7"/>
<polygon fill="none" stroke="#000000" points="481,-251.7 481,-274.7 625,-274.7 625,-251.7 481,-251.7"/>
<text text-anchor="start" x="486" y="-260.3" font-family="Helvetica,sans-Serif" font-weight="bold" font-size="11.00" fill="#000000">form_note</text>
<text text-anchor="start" x="590.0437" y="-259.8" font-family="Helvetica,sans-Serif" font-size="11.00" fill="#000000">[table]</text>
<polygon fill="none" stroke="#000000" points="481,-229.7 481,-251.7 563,-251.7 563,-229.7 481,-229.7"/>
<image xlink:href="../../images/foreignKeys.png" width="11px" height="12px" preserveAspectRatio="xMinYMin meet" x="486" y="-246.7"/>
<text text-anchor="start" x="501" y="-236.8" font-family="Helvetica,sans-Serif" font-size="11.00" fill="#000000">id</text>
<polygon fill="none" stroke="#000000" points="563,-229.7 563,-251.7 625,-251.7 625,-229.7 563,-229.7"/>
<text text-anchor="start" x="565.878" y="-237.4" font-family="Helvetica,sans-Serif" font-size="11.00" fill="#000000">unknown[0]</text>
<polygon fill="none" stroke="#000000" points="481,-207.7 481,-229.7 563,-229.7 563,-207.7 481,-207.7"/>
<image xlink:href="../../images/foreignKeys.png" width="11px" height="12px" preserveAspectRatio="xMinYMin meet" x="486" y="-224.7"/>
<text text-anchor="start" x="501" y="-214.8" font-family="Helvetica,sans-Serif" font-size="11.00" fill="#000000">pid</text>
<polygon fill="none" stroke="#000000" points="563,-207.7 563,-229.7 625,-229.7 625,-207.7 563,-207.7"/>
<text text-anchor="start" x="565.878" y="-215.4" font-family="Helvetica,sans-Serif" font-size="11.00" fill="#000000">unknown[0]</text>
<polygon fill="#ffffff" stroke="transparent" points="481,-188.7 481,-207.7 526,-207.7 526,-188.7 481,-188.7"/>
<polygon fill="none" stroke="#000000" points="481,-188.7 481,-207.7 526,-207.7 526,-188.7 481,-188.7"/>
<text text-anchor="start" x="484" y="-194.8" font-family="Helvetica,sans-Serif" font-size="11.00" fill="#000000">&lt; 2</text>
<polygon fill="#ffffff" stroke="transparent" points="526,-188.7 526,-207.7 563,-207.7 563,-188.7 526,-188.7"/>
<polygon fill="none" stroke="#000000" points="526,-188.7 526,-207.7 563,-207.7 563,-188.7 526,-188.7"/>
<text text-anchor="start" x="553.8862" y="-194.8" font-family="Helvetica,sans-Serif" font-size="11.00" fill="#000000"> &#160;</text>
<polygon fill="#ffffff" stroke="transparent" points="563,-188.7 563,-207.7 625,-207.7 625,-188.7 563,-188.7"/>
<polygon fill="none" stroke="#000000" points="563,-188.7 563,-207.7 625,-207.7 625,-188.7 563,-188.7"/>
<text text-anchor="start" x="606.4053" y="-194.8" font-family="Helvetica,sans-Serif" font-size="11.00" fill="#000000">0 &gt;</text>
<polygon fill="none" stroke="#000000" stroke-width="2" points="480,-187.7 480,-275.7 626,-275.7 626,-187.7 480,-187.7"/>
</a>
</g>
</g>
<!-- form_note&#45;&gt;forms -->
<g id="edge2" class="edge">
<title>form_note:w&#45;&gt;forms:e</title>
<path fill="none" stroke="#000000" d="M467.037,-244.8921C443.9013,-262.89 471.1312,-332.7 430.5,-332.7"/>
<polygon fill="#000000" stroke="#000000" points="473.3379,-243.0004 482.0352,-244.148 477.1689,-241.8502 481,-240.7 481,-240.7 481,-240.7 477.1689,-241.8502 479.9648,-237.252 473.3379,-243.0004 473.3379,-243.0004"/>
<ellipse fill="none" stroke="#000000" cx="470.273" cy="-243.9206" rx="3.2" ry="3.2"/>
</g>
<!-- form_note&#45;&gt;patient_data -->
<g id="edge3" class="edge">
<title>form_note:w&#45;&gt;patient_data:e</title>
<path fill="none" stroke="#000000" d="M466.7082,-214.5016C449.9299,-200.9491 466.2585,-158.2855 438,-141.7 383.9545,-109.9795 350.7253,-109.4402 297,-141.7 263.7607,-161.6589 294.7713,-218.7 256,-218.7"/>
<polygon fill="#000000" stroke="#000000" points="473.3243,-216.4452 479.9853,-222.1541 477.1622,-217.5726 481,-218.7 481,-218.7 481,-218.7 477.1622,-217.5726 482.0147,-215.2459 473.3243,-216.4452 473.3243,-216.4452"/>
<ellipse fill="none" stroke="#000000" cx="470.2541" cy="-215.5432" rx="3.2" ry="3.2"/>
</g>
</g>
</svg>
