<?xml version="1.0" encoding="UTF-8" standalone="no"?>
<!DOCTYPE svg PUBLIC "-//W3C//DTD SVG 1.1//EN"
 "http://www.w3.org/Graphics/SVG/1.1/DTD/svg11.dtd">
<!-- Generated by graphviz version 2.40.1 (20161225.0304)
 -->
<!-- Title: oneDegreeRelationshipsDiagram Pages: 1 -->
<svg width="944pt" height="672pt"
 viewBox="0.00 0.00 944.00 671.70" xmlns="http://www.w3.org/2000/svg" xmlns:xlink="http://www.w3.org/1999/xlink">
<g id="graph0" class="graph" transform="scale(1 1) rotate(0) translate(4 667.7)">
<title>oneDegreeRelationshipsDiagram</title>
<polygon fill="#ffffff" stroke="transparent" points="-4,4 -4,-667.7 940,-667.7 940,4 -4,4"/>
<text text-anchor="middle" x="72.4936" y="-7.3" font-family="Helvetica,sans-Serif" font-size="11.00" fill="#000000">Generated by SchemaSpy</text>
<!-- form_treatment_plan -->
<g id="node1" class="node">
<title>form_treatment_plan</title>
<g id="a_node1"><a xlink:href="../../tables/form_treatment_plan.html" xlink:title="form_treatment_plan" target="_top">
<polygon fill="#ffffff" stroke="transparent" points="627,-38.2 627,-480.2 928,-480.2 928,-38.2 627,-38.2"/>
<polygon fill="#f5f5f5" stroke="transparent" points="629.5,-455.2 629.5,-478.2 926.5,-478.2 926.5,-455.2 629.5,-455.2"/>
<polygon fill="none" stroke="#000000" points="629.5,-455.2 629.5,-478.2 926.5,-478.2 926.5,-455.2 629.5,-455.2"/>
<text text-anchor="start" x="634.5" y="-463.8" font-family="Helvetica,sans-Serif" font-weight="bold" font-size="11.00" fill="#000000">form_treatment_plan</text>
<text text-anchor="start" x="891.5437" y="-463.3" font-family="Helvetica,sans-Serif" font-size="11.00" fill="#000000">[table]</text>
<polygon fill="none" stroke="#000000" points="629.5,-433.2 629.5,-455.2 859.5,-455.2 859.5,-433.2 629.5,-433.2"/>
<image xlink:href="../../images/primaryKeys.png" width="11px" height="12px" preserveAspectRatio="xMinYMin meet" x="634.5" y="-450.2"/>
<text text-anchor="start" x="649.5" y="-440.3" font-family="Helvetica,sans-Serif" font-size="11.00" fill="#000000">id</text>
<polygon fill="none" stroke="#000000" points="859.5,-433.2 859.5,-455.2 926.5,-455.2 926.5,-433.2 859.5,-433.2"/>
<text text-anchor="start" x="862.5" y="-440.9" font-family="Helvetica,sans-Serif" font-size="11.00" fill="#000000">bigint[19]</text>
<polygon fill="none" stroke="#000000" points="629.5,-411.2 629.5,-433.2 859.5,-433.2 859.5,-411.2 629.5,-411.2"/>
<text text-anchor="start" x="649.5" y="-418.3" font-family="Helvetica,sans-Serif" font-size="11.00" fill="#000000">date</text>
<polygon fill="none" stroke="#000000" points="859.5,-411.2 859.5,-433.2 926.5,-433.2 926.5,-411.2 859.5,-411.2"/>
<text text-anchor="start" x="862.5" y="-418.9" font-family="Helvetica,sans-Serif" font-size="11.00" fill="#000000">datetime[19]</text>
<polygon fill="none" stroke="#000000" points="629.5,-389.2 629.5,-411.2 859.5,-411.2 859.5,-389.2 629.5,-389.2"/>
<image xlink:href="../../images/foreignKeys.png" width="11px" height="12px" preserveAspectRatio="xMinYMin meet" x="634.5" y="-406.2"/>
<text text-anchor="start" x="649.5" y="-396.3" font-family="Helvetica,sans-Serif" font-size="11.00" fill="#000000">pid</text>
<polygon fill="none" stroke="#000000" points="859.5,-389.2 859.5,-411.2 926.5,-411.2 926.5,-389.2 859.5,-389.2"/>
<text text-anchor="start" x="862.5" y="-396.9" font-family="Helvetica,sans-Serif" font-size="11.00" fill="#000000">bigint[19]</text>
<polygon fill="none" stroke="#000000" points="629.5,-367.2 629.5,-389.2 859.5,-389.2 859.5,-367.2 629.5,-367.2"/>
<image xlink:href="../../images/foreignKeys.png" width="11px" height="12px" preserveAspectRatio="xMinYMin meet" x="634.5" y="-384.2"/>
<text text-anchor="start" x="649.5" y="-374.3" font-family="Helvetica,sans-Serif" font-size="11.00" fill="#000000">user</text>
<polygon fill="none" stroke="#000000" points="859.5,-367.2 859.5,-389.2 926.5,-389.2 926.5,-367.2 859.5,-367.2"/>
<text text-anchor="start" x="862.4365" y="-374.9" font-family="Helvetica,sans-Serif" font-size="11.00" fill="#000000">varchar[255]</text>
<polygon fill="none" stroke="#000000" points="629.5,-345.2 629.5,-367.2 859.5,-367.2 859.5,-345.2 629.5,-345.2"/>
<image xlink:href="../../images/foreignKeys.png" width="11px" height="12px" preserveAspectRatio="xMinYMin meet" x="634.5" y="-362.2"/>
<text text-anchor="start" x="649.5" y="-352.3" font-family="Helvetica,sans-Serif" font-size="11.00" fill="#000000">groupname</text>
<polygon fill="none" stroke="#000000" points="859.5,-345.2 859.5,-367.2 926.5,-367.2 926.5,-345.2 859.5,-345.2"/>
<text text-anchor="start" x="862.4365" y="-352.9" font-family="Helvetica,sans-Serif" font-size="11.00" fill="#000000">varchar[255]</text>
<polygon fill="none" stroke="#000000" points="629.5,-323.2 629.5,-345.2 859.5,-345.2 859.5,-323.2 629.5,-323.2"/>
<text text-anchor="start" x="649.5" y="-330.3" font-family="Helvetica,sans-Serif" font-size="11.00" fill="#000000">authorized</text>
<polygon fill="none" stroke="#000000" points="859.5,-323.2 859.5,-345.2 926.5,-345.2 926.5,-323.2 859.5,-323.2"/>
<text text-anchor="start" x="862.5" y="-330.9" font-family="Helvetica,sans-Serif" font-size="11.00" fill="#000000">tinyint[3]</text>
<polygon fill="none" stroke="#000000" points="629.5,-301.2 629.5,-323.2 859.5,-323.2 859.5,-301.2 629.5,-301.2"/>
<text text-anchor="start" x="649.5" y="-308.3" font-family="Helvetica,sans-Serif" font-size="11.00" fill="#000000">activity</text>
<polygon fill="none" stroke="#000000" points="859.5,-301.2 859.5,-323.2 926.5,-323.2 926.5,-301.2 859.5,-301.2"/>
<text text-anchor="start" x="862.5" y="-308.9" font-family="Helvetica,sans-Serif" font-size="11.00" fill="#000000">tinyint[3]</text>
<polygon fill="none" stroke="#000000" points="629.5,-279.2 629.5,-301.2 859.5,-301.2 859.5,-279.2 629.5,-279.2"/>
<text text-anchor="start" x="649.5" y="-286.3" font-family="Helvetica,sans-Serif" font-size="11.00" fill="#000000">client_name</text>
<polygon fill="none" stroke="#000000" points="859.5,-279.2 859.5,-301.2 926.5,-301.2 926.5,-279.2 859.5,-279.2"/>
<text text-anchor="start" x="862.4365" y="-286.9" font-family="Helvetica,sans-Serif" font-size="11.00" fill="#000000">varchar[255]</text>
<polygon fill="none" stroke="#000000" points="629.5,-257.2 629.5,-279.2 859.5,-279.2 859.5,-257.2 629.5,-257.2"/>
<text text-anchor="start" x="649.5" y="-264.3" font-family="Helvetica,sans-Serif" font-size="11.00" fill="#000000">client_number</text>
<polygon fill="none" stroke="#000000" points="859.5,-257.2 859.5,-279.2 926.5,-279.2 926.5,-257.2 859.5,-257.2"/>
<text text-anchor="start" x="862.5" y="-264.9" font-family="Helvetica,sans-Serif" font-size="11.00" fill="#000000">bigint[19]</text>
<polygon fill="none" stroke="#000000" points="629.5,-235.2 629.5,-257.2 859.5,-257.2 859.5,-235.2 629.5,-235.2"/>
<text text-anchor="start" x="649.5" y="-242.3" font-family="Helvetica,sans-Serif" font-size="11.00" fill="#000000">provider</text>
<polygon fill="none" stroke="#000000" points="859.5,-235.2 859.5,-257.2 926.5,-257.2 926.5,-235.2 859.5,-235.2"/>
<text text-anchor="start" x="862.4365" y="-242.9" font-family="Helvetica,sans-Serif" font-size="11.00" fill="#000000">varchar[255]</text>
<polygon fill="none" stroke="#000000" points="629.5,-213.2 629.5,-235.2 859.5,-235.2 859.5,-213.2 629.5,-213.2"/>
<text text-anchor="start" x="649.5" y="-220.3" font-family="Helvetica,sans-Serif" font-size="11.00" fill="#000000">admit_date</text>
<polygon fill="none" stroke="#000000" points="859.5,-213.2 859.5,-235.2 926.5,-235.2 926.5,-213.2 859.5,-213.2"/>
<text text-anchor="start" x="862.4365" y="-220.9" font-family="Helvetica,sans-Serif" font-size="11.00" fill="#000000">varchar[255]</text>
<polygon fill="none" stroke="#000000" points="629.5,-191.2 629.5,-213.2 859.5,-213.2 859.5,-191.2 629.5,-191.2"/>
<text text-anchor="start" x="649.5" y="-198.3" font-family="Helvetica,sans-Serif" font-size="11.00" fill="#000000">presenting_issues</text>
<polygon fill="none" stroke="#000000" points="859.5,-191.2 859.5,-213.2 926.5,-213.2 926.5,-191.2 859.5,-191.2"/>
<text text-anchor="start" x="862.5" y="-198.9" font-family="Helvetica,sans-Serif" font-size="11.00" fill="#000000">text[65535]</text>
<polygon fill="none" stroke="#000000" points="629.5,-169.2 629.5,-191.2 859.5,-191.2 859.5,-169.2 629.5,-169.2"/>
<text text-anchor="start" x="649.5" y="-176.3" font-family="Helvetica,sans-Serif" font-size="11.00" fill="#000000">patient_history</text>
<polygon fill="none" stroke="#000000" points="859.5,-169.2 859.5,-191.2 926.5,-191.2 926.5,-169.2 859.5,-169.2"/>
<text text-anchor="start" x="862.5" y="-176.9" font-family="Helvetica,sans-Serif" font-size="11.00" fill="#000000">text[65535]</text>
<polygon fill="none" stroke="#000000" points="629.5,-147.2 629.5,-169.2 859.5,-169.2 859.5,-147.2 629.5,-147.2"/>
<text text-anchor="start" x="649.5" y="-154.3" font-family="Helvetica,sans-Serif" font-size="11.00" fill="#000000">medications</text>
<polygon fill="none" stroke="#000000" points="859.5,-147.2 859.5,-169.2 926.5,-169.2 926.5,-147.2 859.5,-147.2"/>
<text text-anchor="start" x="862.5" y="-154.9" font-family="Helvetica,sans-Serif" font-size="11.00" fill="#000000">text[65535]</text>
<polygon fill="none" stroke="#000000" points="629.5,-125.2 629.5,-147.2 859.5,-147.2 859.5,-125.2 629.5,-125.2"/>
<text text-anchor="start" x="649.5" y="-132.3" font-family="Helvetica,sans-Serif" font-size="11.00" fill="#000000">anyother_relevant_information</text>
<polygon fill="none" stroke="#000000" points="859.5,-125.2 859.5,-147.2 926.5,-147.2 926.5,-125.2 859.5,-125.2"/>
<text text-anchor="start" x="862.5" y="-132.9" font-family="Helvetica,sans-Serif" font-size="11.00" fill="#000000">text[65535]</text>
<polygon fill="none" stroke="#000000" points="629.5,-103.2 629.5,-125.2 859.5,-125.2 859.5,-103.2 629.5,-103.2"/>
<text text-anchor="start" x="649.5" y="-110.3" font-family="Helvetica,sans-Serif" font-size="11.00" fill="#000000">diagnosis</text>
<polygon fill="none" stroke="#000000" points="859.5,-103.2 859.5,-125.2 926.5,-125.2 926.5,-103.2 859.5,-103.2"/>
<text text-anchor="start" x="862.5" y="-110.9" font-family="Helvetica,sans-Serif" font-size="11.00" fill="#000000">text[65535]</text>
<polygon fill="none" stroke="#000000" points="629.5,-81.2 629.5,-103.2 859.5,-103.2 859.5,-81.2 629.5,-81.2"/>
<text text-anchor="start" x="649.5" y="-88.3" font-family="Helvetica,sans-Serif" font-size="11.00" fill="#000000">treatment_received</text>
<polygon fill="none" stroke="#000000" points="859.5,-81.2 859.5,-103.2 926.5,-103.2 926.5,-81.2 859.5,-81.2"/>
<text text-anchor="start" x="862.5" y="-88.9" font-family="Helvetica,sans-Serif" font-size="11.00" fill="#000000">text[65535]</text>
<polygon fill="none" stroke="#000000" points="629.5,-59.2 629.5,-81.2 859.5,-81.2 859.5,-59.2 629.5,-59.2"/>
<text text-anchor="start" x="649.5" y="-66.3" font-family="Helvetica,sans-Serif" font-size="11.00" fill="#000000">recommendation_for_follow_up</text>
<polygon fill="none" stroke="#000000" points="859.5,-59.2 859.5,-81.2 926.5,-81.2 926.5,-59.2 859.5,-59.2"/>
<text text-anchor="start" x="862.5" y="-66.9" font-family="Helvetica,sans-Serif" font-size="11.00" fill="#000000">text[65535]</text>
<polygon fill="#ffffff" stroke="transparent" points="629.5,-40.2 629.5,-59.2 748.5,-59.2 748.5,-40.2 629.5,-40.2"/>
<polygon fill="none" stroke="#000000" points="629.5,-40.2 629.5,-59.2 748.5,-59.2 748.5,-40.2 629.5,-40.2"/>
<text text-anchor="start" x="632.5" y="-46.3" font-family="Helvetica,sans-Serif" font-size="11.00" fill="#000000">&lt; 4</text>
<polygon fill="#ffffff" stroke="transparent" points="748.5,-40.2 748.5,-59.2 859.5,-59.2 859.5,-40.2 748.5,-40.2"/>
<polygon fill="none" stroke="#000000" points="748.5,-40.2 748.5,-59.2 859.5,-59.2 859.5,-40.2 748.5,-40.2"/>
<text text-anchor="start" x="850.3862" y="-46.3" font-family="Helvetica,sans-Serif" font-size="11.00" fill="#000000"> &#160;</text>
<polygon fill="#ffffff" stroke="transparent" points="859.5,-40.2 859.5,-59.2 926.5,-59.2 926.5,-40.2 859.5,-40.2"/>
<polygon fill="none" stroke="#000000" points="859.5,-40.2 859.5,-59.2 926.5,-59.2 926.5,-40.2 859.5,-40.2"/>
<text text-anchor="start" x="907.9053" y="-46.3" font-family="Helvetica,sans-Serif" font-size="11.00" fill="#000000">0 &gt;</text>
<polygon fill="none" stroke="#000000" stroke-width="2" points="628,-39.2 628,-479.2 927,-479.2 927,-39.2 628,-39.2"/>
</a>
</g>
</g>
<!-- groups -->
<g id="node2" class="node">
<title>groups</title>
<g id="a_node2"><a xlink:href="../../tables/groups.html" xlink:title="groups" target="_top">
<polygon fill="#ffffff" stroke="transparent" points="264.5,-189.2 264.5,-297.2 350.5,-297.2 350.5,-189.2 264.5,-189.2"/>
<polygon fill="#f5f5f5" stroke="transparent" points="264.5,-274.2 264.5,-297.2 350.5,-297.2 350.5,-274.2 264.5,-274.2"/>
<polygon fill="none" stroke="#000000" points="264.5,-274.2 264.5,-297.2 350.5,-297.2 350.5,-274.2 264.5,-274.2"/>
<text text-anchor="start" x="269.5" y="-282.8" font-family="Helvetica,sans-Serif" font-weight="bold" font-size="11.00" fill="#000000">groups</text>
<text text-anchor="start" x="316.0219" y="-282.3" font-family="Helvetica,sans-Serif" font-size="11.00" fill="#000000">[table]</text>
<polygon fill="none" stroke="#000000" points="264.5,-252.2 264.5,-274.2 350.5,-274.2 350.5,-252.2 264.5,-252.2"/>
<image xlink:href="../../images/primaryKeys.png" width="11px" height="12px" preserveAspectRatio="xMinYMin meet" x="269.5" y="-269.2"/>
<text text-anchor="start" x="293.5" y="-259.3" font-family="Helvetica,sans-Serif" font-size="11.00" fill="#000000">id</text>
<polygon fill="none" stroke="#000000" points="264.5,-230.2 264.5,-252.2 350.5,-252.2 350.5,-230.2 264.5,-230.2"/>
<image xlink:href="../../images/primaryKeys.png" width="11px" height="12px" preserveAspectRatio="xMinYMin meet" x="269.5" y="-247.2"/>
<text text-anchor="start" x="293.5" y="-237.3" font-family="Helvetica,sans-Serif" font-size="11.00" fill="#000000">name</text>
<polygon fill="none" stroke="#000000" points="264.5,-208.2 264.5,-230.2 350.5,-230.2 350.5,-208.2 264.5,-208.2"/>
<image xlink:href="../../images/foreignKeys.png" width="11px" height="12px" preserveAspectRatio="xMinYMin meet" x="269.5" y="-225.2"/>
<text text-anchor="start" x="293.5" y="-215.3" font-family="Helvetica,sans-Serif" font-size="11.00" fill="#000000">user</text>
<polygon fill="#ffffff" stroke="transparent" points="264.5,-189.2 264.5,-208.2 298.5,-208.2 298.5,-189.2 264.5,-189.2"/>
<polygon fill="none" stroke="#000000" points="264.5,-189.2 264.5,-208.2 298.5,-208.2 298.5,-189.2 264.5,-189.2"/>
<text text-anchor="start" x="267.5" y="-195.3" font-family="Helvetica,sans-Serif" font-size="11.00" fill="#000000">&lt; 1</text>
<polygon fill="#ffffff" stroke="transparent" points="298.5,-189.2 298.5,-208.2 316.5,-208.2 316.5,-189.2 298.5,-189.2"/>
<polygon fill="none" stroke="#000000" points="298.5,-189.2 298.5,-208.2 316.5,-208.2 316.5,-189.2 298.5,-189.2"/>
<text text-anchor="start" x="307.3862" y="-195.3" font-family="Helvetica,sans-Serif" font-size="11.00" fill="#000000"> &#160;</text>
<polygon fill="#ffffff" stroke="transparent" points="316.5,-189.2 316.5,-208.2 350.5,-208.2 350.5,-189.2 316.5,-189.2"/>
<polygon fill="none" stroke="#000000" points="316.5,-189.2 316.5,-208.2 350.5,-208.2 350.5,-189.2 316.5,-189.2"/>
<text text-anchor="start" x="325.7904" y="-195.3" font-family="Helvetica,sans-Serif" font-size="11.00" fill="#000000">17 &gt;</text>
</a>
</g>
</g>
<!-- form_treatment_plan&#45;&gt;groups -->
<g id="edge1" class="edge">
<title>form_treatment_plan:w&#45;&gt;groups:e</title>
<path fill="none" stroke="#000000" d="M615.5336,-352.135C601.9099,-341.6 607.4471,-313.2577 586,-299.2 495.8461,-240.1079 458.2943,-241.2 350.5,-241.2"/>
<polygon fill="#000000" stroke="#000000" points="621.8187,-353.9643 628.4939,-359.6566 625.6594,-355.0821 629.5,-356.2 629.5,-356.2 629.5,-356.2 625.6594,-355.0821 630.5061,-352.7434 621.8187,-353.9643 621.8187,-353.9643"/>
<ellipse fill="none" stroke="#000000" cx="618.7462" cy="-353.07" rx="3.2" ry="3.2"/>
</g>
<!-- forms -->
<g id="node3" class="node">
<title>forms</title>
<g id="a_node3"><a xlink:href="../../tables/forms.html" xlink:title="forms" target="_top">
<polygon fill="#ffffff" stroke="transparent" points="440,-333.7 440,-592.7 578,-592.7 578,-333.7 440,-333.7"/>
<polygon fill="#f5f5f5" stroke="transparent" points="440,-569.2 440,-592.2 578,-592.2 578,-569.2 440,-569.2"/>
<polygon fill="none" stroke="#000000" points="440,-569.2 440,-592.2 578,-592.2 578,-569.2 440,-569.2"/>
<text text-anchor="start" x="445" y="-577.8" font-family="Helvetica,sans-Serif" font-weight="bold" font-size="11.00" fill="#000000">forms</text>
<text text-anchor="start" x="543.0437" y="-577.3" font-family="Helvetica,sans-Serif" font-size="11.00" fill="#000000">[table]</text>
<polygon fill="none" stroke="#000000" points="440,-547.2 440,-569.2 578,-569.2 578,-547.2 440,-547.2"/>
<image xlink:href="../../images/primaryKeys.png" width="11px" height="12px" preserveAspectRatio="xMinYMin meet" x="445" y="-564.2"/>
<text text-anchor="start" x="460" y="-554.3" font-family="Helvetica,sans-Serif" font-size="11.00" fill="#000000">id</text>
<polygon fill="#ffffff" stroke="transparent" points="440,-525.2 440,-547.2 578,-547.2 578,-525.2 440,-525.2"/>
<polygon fill="none" stroke="#000000" points="440,-525.2 440,-547.2 578,-547.2 578,-525.2 440,-525.2"/>
<text text-anchor="start" x="460" y="-532.3" font-family="Helvetica,sans-Serif" font-size="11.00" fill="#000000">encounter</text>
<polygon fill="none" stroke="#000000" points="440,-503.2 440,-525.2 578,-525.2 578,-503.2 440,-503.2"/>
<image xlink:href="../../images/primaryKeys.png" width="11px" height="12px" preserveAspectRatio="xMinYMin meet" x="445" y="-520.2"/>
<text text-anchor="start" x="460" y="-510.3" font-family="Helvetica,sans-Serif" font-size="11.00" fill="#000000">form_id</text>
<polygon fill="#ffffff" stroke="transparent" points="440,-481.2 440,-503.2 578,-503.2 578,-481.2 440,-481.2"/>
<polygon fill="none" stroke="#000000" points="440,-481.2 440,-503.2 578,-503.2 578,-481.2 440,-481.2"/>
<image xlink:href="../../images/foreignKeys.png" width="11px" height="12px" preserveAspectRatio="xMinYMin meet" x="445" y="-498.2"/>
<text text-anchor="start" x="460" y="-488.3" font-family="Helvetica,sans-Serif" font-size="11.00" fill="#000000">pid</text>
<polygon fill="none" stroke="#000000" points="440,-459.2 440,-481.2 578,-481.2 578,-459.2 440,-459.2"/>
<image xlink:href="../../images/foreignKeys.png" width="11px" height="12px" preserveAspectRatio="xMinYMin meet" x="445" y="-476.2"/>
<text text-anchor="start" x="460" y="-466.3" font-family="Helvetica,sans-Serif" font-size="11.00" fill="#000000">user</text>
<polygon fill="none" stroke="#000000" points="440,-437.2 440,-459.2 578,-459.2 578,-437.2 440,-437.2"/>
<image xlink:href="../../images/foreignKeys.png" width="11px" height="12px" preserveAspectRatio="xMinYMin meet" x="445" y="-454.2"/>
<text text-anchor="start" x="460" y="-444.3" font-family="Helvetica,sans-Serif" font-size="11.00" fill="#000000">groupname</text>
<polygon fill="none" stroke="#000000" points="440,-415.2 440,-437.2 578,-437.2 578,-415.2 440,-415.2"/>
<image xlink:href="../../images/foreignKeys.png" width="11px" height="12px" preserveAspectRatio="xMinYMin meet" x="445" y="-432.2"/>
<text text-anchor="start" x="460" y="-422.3" font-family="Helvetica,sans-Serif" font-size="11.00" fill="#000000">therapy_group_id</text>
<polygon fill="none" stroke="#000000" points="440,-393.2 440,-415.2 578,-415.2 578,-393.2 440,-393.2"/>
<image xlink:href="../../images/foreignKeys.png" width="11px" height="12px" preserveAspectRatio="xMinYMin meet" x="445" y="-410.2"/>
<text text-anchor="start" x="460" y="-400.3" font-family="Helvetica,sans-Serif" font-size="11.00" fill="#000000">issue_id</text>
<polygon fill="none" stroke="#000000" points="440,-371.2 440,-393.2 578,-393.2 578,-371.2 440,-371.2"/>
<image xlink:href="../../images/foreignKeys.png" width="11px" height="12px" preserveAspectRatio="xMinYMin meet" x="445" y="-388.2"/>
<text text-anchor="start" x="460" y="-378.3" font-family="Helvetica,sans-Serif" font-size="11.00" fill="#000000">provider_id</text>
<polygon fill="none" stroke="#000000" points="440,-352.2 440,-371.2 578,-371.2 578,-352.2 440,-352.2"/>
<text text-anchor="start" x="443" y="-358.3" font-family="Helvetica,sans-Serif" font-size="11.00" fill="#000000">...</text>
<polygon fill="#ffffff" stroke="transparent" points="440,-333.2 440,-352.2 500,-352.2 500,-333.2 440,-333.2"/>
<polygon fill="none" stroke="#000000" points="440,-333.2 440,-352.2 500,-352.2 500,-333.2 440,-333.2"/>
<text text-anchor="start" x="443" y="-339.3" font-family="Helvetica,sans-Serif" font-size="11.00" fill="#000000">&lt; 6</text>
<polygon fill="#ffffff" stroke="transparent" points="500,-333.2 500,-352.2 531,-352.2 531,-333.2 500,-333.2"/>
<polygon fill="none" stroke="#000000" points="500,-333.2 500,-352.2 531,-352.2 531,-333.2 500,-333.2"/>
<text text-anchor="start" x="521.8862" y="-339.3" font-family="Helvetica,sans-Serif" font-size="11.00" fill="#000000"> &#160;</text>
<polygon fill="#ffffff" stroke="transparent" points="531,-333.2 531,-352.2 578,-352.2 578,-333.2 531,-333.2"/>
<polygon fill="none" stroke="#000000" points="531,-333.2 531,-352.2 578,-352.2 578,-333.2 531,-333.2"/>
<text text-anchor="start" x="553.2904" y="-339.3" font-family="Helvetica,sans-Serif" font-size="11.00" fill="#000000">13 &gt;</text>
</a>
</g>
</g>
<!-- form_treatment_plan&#45;&gt;forms -->
<g id="edge2" class="edge">
<title>form_treatment_plan:w&#45;&gt;forms:e</title>
<path fill="none" stroke="#000000" d="M619.2763,-446.3717C595.5913,-458.187 612.5502,-514.2 578,-514.2"/>
<polygon fill="#000000" stroke="#000000" points="627.8863,-440.4535 629.5486,-448.2789 627.9835,-448.6114 626.3212,-440.786 627.8863,-440.4535"/>
<polyline fill="none" stroke="#000000" points="629.5,-444.2 625.5873,-445.0312 "/>
<ellipse fill="none" stroke="#000000" cx="622.4571" cy="-445.6961" rx="3.2" ry="3.2"/>
</g>
<!-- patient_data -->
<g id="node4" class="node">
<title>patient_data</title>
<g id="a_node4"><a xlink:href="../../tables/patient_data.html" xlink:title="patient_data" target="_top">
<polygon fill="#ffffff" stroke="transparent" points="224,-422.7 224,-659.7 391,-659.7 391,-422.7 224,-422.7"/>
<polygon fill="#f5f5f5" stroke="transparent" points="224.5,-636.2 224.5,-659.2 391.5,-659.2 391.5,-636.2 224.5,-636.2"/>
<polygon fill="none" stroke="#000000" points="224.5,-636.2 224.5,-659.2 391.5,-659.2 391.5,-636.2 224.5,-636.2"/>
<text text-anchor="start" x="229.5" y="-644.8" font-family="Helvetica,sans-Serif" font-weight="bold" font-size="11.00" fill="#000000">patient_data</text>
<text text-anchor="start" x="356.5437" y="-644.3" font-family="Helvetica,sans-Serif" font-size="11.00" fill="#000000">[table]</text>
<polygon fill="#ffffff" stroke="transparent" points="224.5,-614.2 224.5,-636.2 391.5,-636.2 391.5,-614.2 224.5,-614.2"/>
<polygon fill="none" stroke="#000000" points="224.5,-614.2 224.5,-636.2 391.5,-636.2 391.5,-614.2 224.5,-614.2"/>
<text text-anchor="start" x="244.5" y="-621.3" font-family="Helvetica,sans-Serif" font-size="11.00" fill="#000000">id</text>
<polygon fill="#ffffff" stroke="transparent" points="224.5,-592.2 224.5,-614.2 391.5,-614.2 391.5,-592.2 224.5,-592.2"/>
<polygon fill="none" stroke="#000000" points="224.5,-592.2 224.5,-614.2 391.5,-614.2 391.5,-592.2 224.5,-592.2"/>
<text text-anchor="start" x="244.5" y="-599.3" font-family="Helvetica,sans-Serif" font-size="11.00" fill="#000000">uuid</text>
<polygon fill="none" stroke="#000000" points="224.5,-570.2 224.5,-592.2 391.5,-592.2 391.5,-570.2 224.5,-570.2"/>
<image xlink:href="../../images/foreignKeys.png" width="11px" height="12px" preserveAspectRatio="xMinYMin meet" x="229.5" y="-587.2"/>
<text text-anchor="start" x="244.5" y="-577.3" font-family="Helvetica,sans-Serif" font-size="11.00" fill="#000000">pharmacy_id</text>
<polygon fill="none" stroke="#000000" points="224.5,-548.2 224.5,-570.2 391.5,-570.2 391.5,-548.2 224.5,-548.2"/>
<image xlink:href="../../images/foreignKeys.png" width="11px" height="12px" preserveAspectRatio="xMinYMin meet" x="229.5" y="-565.2"/>
<text text-anchor="start" x="244.5" y="-555.3" font-family="Helvetica,sans-Serif" font-size="11.00" fill="#000000">providerID</text>
<polygon fill="none" stroke="#000000" points="224.5,-526.2 224.5,-548.2 391.5,-548.2 391.5,-526.2 224.5,-526.2"/>
<image xlink:href="../../images/foreignKeys.png" width="11px" height="12px" preserveAspectRatio="xMinYMin meet" x="229.5" y="-543.2"/>
<text text-anchor="start" x="244.5" y="-533.3" font-family="Helvetica,sans-Serif" font-size="11.00" fill="#000000">ref_providerID</text>
<polygon fill="none" stroke="#000000" points="224.5,-504.2 224.5,-526.2 391.5,-526.2 391.5,-504.2 224.5,-504.2"/>
<image xlink:href="../../images/primaryKeys.png" width="11px" height="12px" preserveAspectRatio="xMinYMin meet" x="229.5" y="-521.2"/>
<text text-anchor="start" x="244.5" y="-511.3" font-family="Helvetica,sans-Serif" font-size="11.00" fill="#000000">pid</text>
<polygon fill="none" stroke="#000000" points="224.5,-482.2 224.5,-504.2 391.5,-504.2 391.5,-482.2 224.5,-482.2"/>
<image xlink:href="../../images/foreignKeys.png" width="11px" height="12px" preserveAspectRatio="xMinYMin meet" x="229.5" y="-499.2"/>
<text text-anchor="start" x="244.5" y="-489.3" font-family="Helvetica,sans-Serif" font-size="11.00" fill="#000000">created_by</text>
<polygon fill="none" stroke="#000000" points="224.5,-460.2 224.5,-482.2 391.5,-482.2 391.5,-460.2 224.5,-460.2"/>
<image xlink:href="../../images/foreignKeys.png" width="11px" height="12px" preserveAspectRatio="xMinYMin meet" x="229.5" y="-477.2"/>
<text text-anchor="start" x="244.5" y="-467.3" font-family="Helvetica,sans-Serif" font-size="11.00" fill="#000000">updated_by</text>
<polygon fill="none" stroke="#000000" points="224.5,-441.2 224.5,-460.2 391.5,-460.2 391.5,-441.2 224.5,-441.2"/>
<text text-anchor="start" x="227.5" y="-447.3" font-family="Helvetica,sans-Serif" font-size="11.00" fill="#000000">...</text>
<polygon fill="#ffffff" stroke="transparent" points="224.5,-422.2 224.5,-441.2 298.5,-441.2 298.5,-422.2 224.5,-422.2"/>
<polygon fill="none" stroke="#000000" points="224.5,-422.2 224.5,-441.2 298.5,-441.2 298.5,-422.2 224.5,-422.2"/>
<text text-anchor="start" x="227.5" y="-428.3" font-family="Helvetica,sans-Serif" font-size="11.00" fill="#000000">&lt; 5</text>
<polygon fill="#ffffff" stroke="transparent" points="298.5,-422.2 298.5,-441.2 337.5,-441.2 337.5,-422.2 298.5,-422.2"/>
<polygon fill="none" stroke="#000000" points="298.5,-422.2 298.5,-441.2 337.5,-441.2 337.5,-422.2 298.5,-422.2"/>
<text text-anchor="start" x="328.3862" y="-428.3" font-family="Helvetica,sans-Serif" font-size="11.00" fill="#000000"> &#160;</text>
<polygon fill="#ffffff" stroke="transparent" points="337.5,-422.2 337.5,-441.2 391.5,-441.2 391.5,-422.2 337.5,-422.2"/>
<polygon fill="none" stroke="#000000" points="337.5,-422.2 337.5,-441.2 391.5,-441.2 391.5,-422.2 337.5,-422.2"/>
<text text-anchor="start" x="366.7904" y="-428.3" font-family="Helvetica,sans-Serif" font-size="11.00" fill="#000000">85 &gt;</text>
</a>
</g>
</g>
<!-- form_treatment_plan&#45;&gt;patient_data -->
<g id="edge3" class="edge">
<title>form_treatment_plan:w&#45;&gt;patient_data:e</title>
<path fill="none" stroke="#000000" d="M614.9903,-401.7431C551.1196,-417.4387 653.411,-548.7039 586,-603.2 532.7731,-646.2295 489.6332,-640.1195 432,-603.2 395.7463,-579.9761 434.5544,-515.2 391.5,-515.2"/>
<polygon fill="#000000" stroke="#000000" points="621.5449,-401.0461 629.8807,-403.7798 625.5224,-400.623 629.5,-400.2 629.5,-400.2 629.5,-400.2 625.5224,-400.623 629.1193,-396.6202 621.5449,-401.0461 621.5449,-401.0461"/>
<ellipse fill="none" stroke="#000000" cx="618.3628" cy="-401.3845" rx="3.2" ry="3.2"/>
</g>
<!-- users -->
<g id="node5" class="node">
<title>users</title>
<g id="a_node5"><a xlink:href="../../tables/users.html" xlink:title="users" target="_top">
<polygon fill="#ffffff" stroke="transparent" points="8,-275.7 8,-490.7 175,-490.7 175,-275.7 8,-275.7"/>
<polygon fill="#f5f5f5" stroke="transparent" points="8.5,-467.2 8.5,-490.2 175.5,-490.2 175.5,-467.2 8.5,-467.2"/>
<polygon fill="none" stroke="#000000" points="8.5,-467.2 8.5,-490.2 175.5,-490.2 175.5,-467.2 8.5,-467.2"/>
<text text-anchor="start" x="13.5" y="-475.8" font-family="Helvetica,sans-Serif" font-weight="bold" font-size="11.00" fill="#000000">users</text>
<text text-anchor="start" x="140.5437" y="-475.3" font-family="Helvetica,sans-Serif" font-size="11.00" fill="#000000">[table]</text>
<polygon fill="none" stroke="#000000" points="8.5,-445.2 8.5,-467.2 175.5,-467.2 175.5,-445.2 8.5,-445.2"/>
<image xlink:href="../../images/primaryKeys.png" width="11px" height="12px" preserveAspectRatio="xMinYMin meet" x="13.5" y="-462.2"/>
<text text-anchor="start" x="28.5" y="-452.3" font-family="Helvetica,sans-Serif" font-size="11.00" fill="#000000">id</text>
<polygon fill="#ffffff" stroke="transparent" points="8.5,-423.2 8.5,-445.2 175.5,-445.2 175.5,-423.2 8.5,-423.2"/>
<polygon fill="none" stroke="#000000" points="8.5,-423.2 8.5,-445.2 175.5,-445.2 175.5,-423.2 8.5,-423.2"/>
<text text-anchor="start" x="28.5" y="-430.3" font-family="Helvetica,sans-Serif" font-size="11.00" fill="#000000">uuid</text>
<polygon fill="none" stroke="#000000" points="8.5,-401.2 8.5,-423.2 175.5,-423.2 175.5,-401.2 8.5,-401.2"/>
<image xlink:href="../../images/primaryKeys.png" width="11px" height="12px" preserveAspectRatio="xMinYMin meet" x="13.5" y="-418.2"/>
<text text-anchor="start" x="28.5" y="-408.3" font-family="Helvetica,sans-Serif" font-size="11.00" fill="#000000">username</text>
<polygon fill="none" stroke="#000000" points="8.5,-379.2 8.5,-401.2 175.5,-401.2 175.5,-379.2 8.5,-379.2"/>
<image xlink:href="../../images/foreignKeys.png" width="11px" height="12px" preserveAspectRatio="xMinYMin meet" x="13.5" y="-396.2"/>
<text text-anchor="start" x="28.5" y="-386.3" font-family="Helvetica,sans-Serif" font-size="11.00" fill="#000000">facility_id</text>
<polygon fill="#ffffff" stroke="transparent" points="8.5,-357.2 8.5,-379.2 175.5,-379.2 175.5,-357.2 8.5,-357.2"/>
<polygon fill="none" stroke="#000000" points="8.5,-357.2 8.5,-379.2 175.5,-379.2 175.5,-357.2 8.5,-357.2"/>
<text text-anchor="start" x="28.5" y="-364.3" font-family="Helvetica,sans-Serif" font-size="11.00" fill="#000000">google_signin_email</text>
<polygon fill="#ffffff" stroke="transparent" points="8.5,-335.2 8.5,-357.2 175.5,-357.2 175.5,-335.2 8.5,-335.2"/>
<polygon fill="none" stroke="#000000" points="8.5,-335.2 8.5,-357.2 175.5,-357.2 175.5,-335.2 8.5,-335.2"/>
<text text-anchor="start" x="28.5" y="-342.3" font-family="Helvetica,sans-Serif" font-size="11.00" fill="#000000">abook_type</text>
<polygon fill="none" stroke="#000000" points="8.5,-313.2 8.5,-335.2 175.5,-335.2 175.5,-313.2 8.5,-313.2"/>
<image xlink:href="../../images/foreignKeys.png" width="11px" height="12px" preserveAspectRatio="xMinYMin meet" x="13.5" y="-330.2"/>
<text text-anchor="start" x="28.5" y="-320.3" font-family="Helvetica,sans-Serif" font-size="11.00" fill="#000000">billing_facility_id</text>
<polygon fill="none" stroke="#000000" points="8.5,-294.2 8.5,-313.2 175.5,-313.2 175.5,-294.2 8.5,-294.2"/>
<text text-anchor="start" x="11.5" y="-300.3" font-family="Helvetica,sans-Serif" font-size="11.00" fill="#000000">...</text>
<polygon fill="#ffffff" stroke="transparent" points="8.5,-275.2 8.5,-294.2 82.5,-294.2 82.5,-275.2 8.5,-275.2"/>
<polygon fill="none" stroke="#000000" points="8.5,-275.2 8.5,-294.2 82.5,-294.2 82.5,-275.2 8.5,-275.2"/>
<text text-anchor="start" x="11.5" y="-281.3" font-family="Helvetica,sans-Serif" font-size="11.00" fill="#000000">&lt; 2</text>
<polygon fill="#ffffff" stroke="transparent" points="82.5,-275.2 82.5,-294.2 121.5,-294.2 121.5,-275.2 82.5,-275.2"/>
<polygon fill="none" stroke="#000000" points="82.5,-275.2 82.5,-294.2 121.5,-294.2 121.5,-275.2 82.5,-275.2"/>
<text text-anchor="start" x="112.3862" y="-281.3" font-family="Helvetica,sans-Serif" font-size="11.00" fill="#000000"> &#160;</text>
<polygon fill="#ffffff" stroke="transparent" points="121.5,-275.2 121.5,-294.2 175.5,-294.2 175.5,-275.2 121.5,-275.2"/>
<polygon fill="none" stroke="#000000" points="121.5,-275.2 121.5,-294.2 175.5,-294.2 175.5,-275.2 121.5,-275.2"/>
<text text-anchor="start" x="150.7904" y="-281.3" font-family="Helvetica,sans-Serif" font-size="11.00" fill="#000000">61 &gt;</text>
</a>
</g>
</g>
<!-- form_treatment_plan&#45;&gt;users -->
<g id="edge4" class="edge">
<title>form_treatment_plan:w&#45;&gt;users:e</title>
<path fill="none" stroke="#000000" d="M615.5518,-373.6534C602.9137,-362.5214 608.3541,-334.0206 586,-323.2 511.603,-287.1877 280.7363,-309.8093 216,-361.2 180.0513,-389.7378 221.399,-456.2 175.5,-456.2"/>
<polygon fill="#000000" stroke="#000000" points="621.8939,-375.7207 628.3843,-381.6228 625.6969,-376.9603 629.5,-378.2 629.5,-378.2 629.5,-378.2 625.6969,-376.9603 630.6157,-374.7772 621.8939,-375.7207 621.8939,-375.7207"/>
<ellipse fill="none" stroke="#000000" cx="618.8514" cy="-374.7289" rx="3.2" ry="3.2"/>
</g>
<!-- groups&#45;&gt;users -->
<g id="edge9" class="edge">
<title>groups:w&#45;&gt;users:e</title>
<path fill="none" stroke="#000000" d="M249.941,-221.4324C221.9885,-231.5855 232.9799,-274.492 216,-311.2 195.6958,-355.0948 223.8633,-412.2 175.5,-412.2"/>
<polygon fill="#000000" stroke="#000000" points="256.5924,-220.4126 265.0457,-222.7584 260.5462,-219.8063 264.5,-219.2 264.5,-219.2 264.5,-219.2 260.5462,-219.8063 263.9543,-215.6416 256.5924,-220.4126 256.5924,-220.4126"/>
<ellipse fill="none" stroke="#000000" cx="253.4294" cy="-220.8976" rx="3.2" ry="3.2"/>
</g>
<!-- forms&#45;&gt;groups -->
<g id="edge5" class="edge">
<title>forms:w&#45;&gt;groups:e</title>
<path fill="none" stroke="#000000" d="M429.325,-438.216C404.7334,-396.8669 372.2298,-241.2 350.5,-241.2"/>
<polygon fill="#000000" stroke="#000000" points="434.1572,-442.7354 437.5409,-450.8293 437.0786,-445.4677 440,-448.2 440,-448.2 440,-448.2 437.0786,-445.4677 442.4591,-445.5707 434.1572,-442.7354 434.1572,-442.7354"/>
<ellipse fill="none" stroke="#000000" cx="431.8201" cy="-440.5495" rx="3.2" ry="3.2"/>
</g>
<!-- forms&#45;&gt;patient_data -->
<g id="edge6" class="edge">
<title>forms:w&#45;&gt;patient_data:e</title>
<path fill="none" stroke="#000000" d="M425.7122,-495.7938C414.3081,-502.2625 409.3924,-515.2 391.5,-515.2"/>
<polygon fill="#000000" stroke="#000000" points="432.2417,-494.1515 440.8782,-495.6913 436.1208,-493.1757 440,-492.2 440,-492.2 440,-492.2 436.1208,-493.1757 439.1218,-488.7087 432.2417,-494.1515 432.2417,-494.1515"/>
<ellipse fill="none" stroke="#000000" cx="429.1383" cy="-494.9321" rx="3.2" ry="3.2"/>
</g>
<!-- forms&#45;&gt;users -->
<g id="edge7" class="edge">
<title>forms:w&#45;&gt;users:e</title>
<path fill="none" stroke="#000000" d="M425.5609,-381.887C336.457,-378.0159 297.6387,-340.3442 216,-388.2 185.6531,-405.989 210.6765,-456.2 175.5,-456.2"/>
<polygon fill="#000000" stroke="#000000" points="432.0019,-382.0266 439.922,-385.7992 436.0009,-382.1133 440,-382.2 440,-382.2 440,-382.2 436.0009,-382.1133 440.078,-378.6008 432.0019,-382.0266 432.0019,-382.0266"/>
<ellipse fill="none" stroke="#000000" cx="428.8026" cy="-381.9572" rx="3.2" ry="3.2"/>
</g>
<!-- forms&#45;&gt;users -->
<g id="edge8" class="edge">
<title>forms:w&#45;&gt;users:e</title>
<path fill="none" stroke="#000000" d="M426.1619,-465.4246C414.0647,-453.7291 421.3394,-423.7657 399,-412.2 310.7879,-366.5302 274.8333,-412.2 175.5,-412.2"/>
<polygon fill="#000000" stroke="#000000" points="432.4376,-467.5903 438.8256,-473.6031 436.2188,-468.8951 440,-470.2 440,-470.2 440,-470.2 436.2188,-468.8951 441.1744,-466.7969 432.4376,-467.5903 432.4376,-467.5903"/>
<ellipse fill="none" stroke="#000000" cx="429.4127" cy="-466.5464" rx="3.2" ry="3.2"/>
</g>
<!-- patient_data&#45;&gt;users -->
<g id="edge10" class="edge">
<title>patient_data:w&#45;&gt;users:e</title>
<path fill="none" stroke="#000000" d="M210.6217,-488.6631C198.0786,-478.783 196.8196,-456.2 175.5,-456.2"/>
<polygon fill="#000000" stroke="#000000" points="216.896,-490.7142 223.3814,-496.6218 220.698,-491.9571 224.5,-493.2 224.5,-493.2 224.5,-493.2 220.698,-491.9571 225.6186,-489.7782 216.896,-490.7142 216.896,-490.7142"/>
<ellipse fill="none" stroke="#000000" cx="213.8544" cy="-489.7198" rx="3.2" ry="3.2"/>
</g>
<!-- patient_data&#45;&gt;users -->
<g id="edge11" class="edge">
<title>patient_data:w&#45;&gt;users:e</title>
<path fill="none" stroke="#000000" d="M210.593,-555.2881C184.6689,-536.4739 220.2533,-456.2 175.5,-456.2"/>
<polygon fill="#000000" stroke="#000000" points="216.7989,-557.0337 223.5252,-562.6655 220.6494,-558.1168 224.5,-559.2 224.5,-559.2 224.5,-559.2 220.6494,-558.1168 225.4748,-555.7345 216.7989,-557.0337 216.7989,-557.0337"/>
<ellipse fill="none" stroke="#000000" cx="213.7184" cy="-556.1672" rx="3.2" ry="3.2"/>
</g>
<!-- patient_data&#45;&gt;users -->
<g id="edge12" class="edge">
<title>patient_data:w&#45;&gt;users:e</title>
<path fill="none" stroke="#000000" d="M210.6299,-532.613C190.9726,-515.478 211.4935,-456.2 175.5,-456.2"/>
<polygon fill="#000000" stroke="#000000" points="216.9046,-534.6881 223.3696,-540.6179 220.7023,-535.944 224.5,-537.2 224.5,-537.2 224.5,-537.2 220.7023,-535.944 225.6304,-533.7821 216.9046,-534.6881 216.9046,-534.6881"/>
<ellipse fill="none" stroke="#000000" cx="213.8664" cy="-533.6833" rx="3.2" ry="3.2"/>
</g>
<!-- patient_data&#45;&gt;users -->
<g id="edge13" class="edge">
<title>patient_data:w&#45;&gt;users:e</title>
<path fill="none" stroke="#000000" d="M210.076,-468.7231C198.6616,-464.4626 192.4036,-456.2 175.5,-456.2"/>
<polygon fill="#000000" stroke="#000000" points="216.6154,-469.846 223.8907,-474.7481 220.5577,-470.523 224.5,-471.2 224.5,-471.2 224.5,-471.2 220.5577,-470.523 225.1093,-467.6519 216.6154,-469.846 216.6154,-469.846"/>
<ellipse fill="none" stroke="#000000" cx="213.4616" cy="-469.3044" rx="3.2" ry="3.2"/>
</g>
</g>
</svg>
