<?xml version="1.0" encoding="UTF-8" standalone="no"?>
<!DOCTYPE svg PUBLIC "-//W3C//DTD SVG 1.1//EN"
 "http://www.w3.org/Graphics/SVG/1.1/DTD/svg11.dtd">
<!-- Generated by graphviz version 2.40.1 (20161225.0304)
 -->
<!-- Title: oneDegreeRelationshipsDiagram Pages: 1 -->
<svg width="531pt" height="645pt"
 viewBox="0.00 0.00 531.00 644.70" xmlns="http://www.w3.org/2000/svg" xmlns:xlink="http://www.w3.org/1999/xlink">
<g id="graph0" class="graph" transform="scale(1 1) rotate(0) translate(4 640.7)">
<title>oneDegreeRelationshipsDiagram</title>
<polygon fill="#ffffff" stroke="transparent" points="-4,4 -4,-640.7 527,-640.7 527,4 -4,4"/>
<text text-anchor="middle" x="72.4936" y="-7.3" font-family="Helvetica,sans-Serif" font-size="11.00" fill="#000000">Generated by SchemaSpy</text>
<!-- form_eye_biometrics -->
<g id="node1" class="node">
<title>form_eye_biometrics</title>
<g id="a_node1"><a xlink:href="../../tables/form_eye_biometrics.html" xlink:title="form_eye_biometrics" target="_top">
<polygon fill="#ffffff" stroke="transparent" points="305,-38.2 305,-480.2 515,-480.2 515,-38.2 305,-38.2"/>
<polygon fill="#f5f5f5" stroke="transparent" points="307,-455.2 307,-478.2 513,-478.2 513,-455.2 307,-455.2"/>
<polygon fill="none" stroke="#000000" points="307,-455.2 307,-478.2 513,-478.2 513,-455.2 307,-455.2"/>
<text text-anchor="start" x="312" y="-463.8" font-family="Helvetica,sans-Serif" font-weight="bold" font-size="11.00" fill="#000000">form_eye_biometrics</text>
<text text-anchor="start" x="478.0437" y="-463.3" font-family="Helvetica,sans-Serif" font-size="11.00" fill="#000000">[table]</text>
<polygon fill="none" stroke="#000000" points="307,-433.2 307,-455.2 452,-455.2 452,-433.2 307,-433.2"/>
<image xlink:href="../../images/primaryKeys.png" width="11px" height="12px" preserveAspectRatio="xMinYMin meet" x="312" y="-450.2"/>
<text text-anchor="start" x="327" y="-440.3" font-family="Helvetica,sans-Serif" font-size="11.00" fill="#000000">id</text>
<polygon fill="none" stroke="#000000" points="452,-433.2 452,-455.2 513,-455.2 513,-433.2 452,-433.2"/>
<text text-anchor="start" x="455" y="-440.9" font-family="Helvetica,sans-Serif" font-size="11.00" fill="#000000">bigint[19]</text>
<polygon fill="#ffffff" stroke="transparent" points="307,-411.2 307,-433.2 452,-433.2 452,-411.2 307,-411.2"/>
<polygon fill="none" stroke="#000000" points="307,-411.2 307,-433.2 452,-433.2 452,-411.2 307,-411.2"/>
<image xlink:href="../../images/foreignKeys.png" width="11px" height="12px" preserveAspectRatio="xMinYMin meet" x="312" y="-428.2"/>
<text text-anchor="start" x="327" y="-418.3" font-family="Helvetica,sans-Serif" font-size="11.00" fill="#000000">pid</text>
<polygon fill="none" stroke="#000000" points="452,-411.2 452,-433.2 513,-433.2 513,-411.2 452,-411.2"/>
<text text-anchor="start" x="455" y="-418.9" font-family="Helvetica,sans-Serif" font-size="11.00" fill="#000000">bigint[19]</text>
<polygon fill="none" stroke="#000000" points="307,-389.2 307,-411.2 452,-411.2 452,-389.2 307,-389.2"/>
<text text-anchor="start" x="327" y="-396.3" font-family="Helvetica,sans-Serif" font-size="11.00" fill="#000000">ODK1</text>
<polygon fill="none" stroke="#000000" points="452,-389.2 452,-411.2 513,-411.2 513,-389.2 452,-389.2"/>
<text text-anchor="start" x="454.994" y="-396.9" font-family="Helvetica,sans-Serif" font-size="11.00" fill="#000000">varchar[10]</text>
<polygon fill="none" stroke="#000000" points="307,-367.2 307,-389.2 452,-389.2 452,-367.2 307,-367.2"/>
<text text-anchor="start" x="327" y="-374.3" font-family="Helvetica,sans-Serif" font-size="11.00" fill="#000000">ODK2</text>
<polygon fill="none" stroke="#000000" points="452,-367.2 452,-389.2 513,-389.2 513,-367.2 452,-367.2"/>
<text text-anchor="start" x="454.994" y="-374.9" font-family="Helvetica,sans-Serif" font-size="11.00" fill="#000000">varchar[10]</text>
<polygon fill="none" stroke="#000000" points="307,-345.2 307,-367.2 452,-367.2 452,-345.2 307,-345.2"/>
<text text-anchor="start" x="327" y="-352.3" font-family="Helvetica,sans-Serif" font-size="11.00" fill="#000000">ODK2AXIS</text>
<polygon fill="none" stroke="#000000" points="452,-345.2 452,-367.2 513,-367.2 513,-345.2 452,-345.2"/>
<text text-anchor="start" x="454.994" y="-352.9" font-family="Helvetica,sans-Serif" font-size="11.00" fill="#000000">varchar[10]</text>
<polygon fill="none" stroke="#000000" points="307,-323.2 307,-345.2 452,-345.2 452,-323.2 307,-323.2"/>
<text text-anchor="start" x="327" y="-330.3" font-family="Helvetica,sans-Serif" font-size="11.00" fill="#000000">OSK1</text>
<polygon fill="none" stroke="#000000" points="452,-323.2 452,-345.2 513,-345.2 513,-323.2 452,-323.2"/>
<text text-anchor="start" x="454.994" y="-330.9" font-family="Helvetica,sans-Serif" font-size="11.00" fill="#000000">varchar[10]</text>
<polygon fill="none" stroke="#000000" points="307,-301.2 307,-323.2 452,-323.2 452,-301.2 307,-301.2"/>
<text text-anchor="start" x="327" y="-308.3" font-family="Helvetica,sans-Serif" font-size="11.00" fill="#000000">OSK2</text>
<polygon fill="none" stroke="#000000" points="452,-301.2 452,-323.2 513,-323.2 513,-301.2 452,-301.2"/>
<text text-anchor="start" x="454.994" y="-308.9" font-family="Helvetica,sans-Serif" font-size="11.00" fill="#000000">varchar[10]</text>
<polygon fill="none" stroke="#000000" points="307,-279.2 307,-301.2 452,-301.2 452,-279.2 307,-279.2"/>
<text text-anchor="start" x="327" y="-286.3" font-family="Helvetica,sans-Serif" font-size="11.00" fill="#000000">OSK2AXIS</text>
<polygon fill="none" stroke="#000000" points="452,-279.2 452,-301.2 513,-301.2 513,-279.2 452,-279.2"/>
<text text-anchor="start" x="454.994" y="-286.9" font-family="Helvetica,sans-Serif" font-size="11.00" fill="#000000">varchar[10]</text>
<polygon fill="none" stroke="#000000" points="307,-257.2 307,-279.2 452,-279.2 452,-257.2 307,-257.2"/>
<text text-anchor="start" x="327" y="-264.3" font-family="Helvetica,sans-Serif" font-size="11.00" fill="#000000">ODAXIALLENGTH</text>
<polygon fill="none" stroke="#000000" points="452,-257.2 452,-279.2 513,-279.2 513,-257.2 452,-257.2"/>
<text text-anchor="start" x="454.994" y="-264.9" font-family="Helvetica,sans-Serif" font-size="11.00" fill="#000000">varchar[20]</text>
<polygon fill="none" stroke="#000000" points="307,-235.2 307,-257.2 452,-257.2 452,-235.2 307,-235.2"/>
<text text-anchor="start" x="327" y="-242.3" font-family="Helvetica,sans-Serif" font-size="11.00" fill="#000000">OSAXIALLENGTH</text>
<polygon fill="none" stroke="#000000" points="452,-235.2 452,-257.2 513,-257.2 513,-235.2 452,-235.2"/>
<text text-anchor="start" x="454.994" y="-242.9" font-family="Helvetica,sans-Serif" font-size="11.00" fill="#000000">varchar[20]</text>
<polygon fill="none" stroke="#000000" points="307,-213.2 307,-235.2 452,-235.2 452,-213.2 307,-213.2"/>
<text text-anchor="start" x="327" y="-220.3" font-family="Helvetica,sans-Serif" font-size="11.00" fill="#000000">ODPDMeasured</text>
<polygon fill="none" stroke="#000000" points="452,-213.2 452,-235.2 513,-235.2 513,-213.2 452,-213.2"/>
<text text-anchor="start" x="454.994" y="-220.9" font-family="Helvetica,sans-Serif" font-size="11.00" fill="#000000">varchar[20]</text>
<polygon fill="none" stroke="#000000" points="307,-191.2 307,-213.2 452,-213.2 452,-191.2 307,-191.2"/>
<text text-anchor="start" x="327" y="-198.3" font-family="Helvetica,sans-Serif" font-size="11.00" fill="#000000">OSPDMeasured</text>
<polygon fill="none" stroke="#000000" points="452,-191.2 452,-213.2 513,-213.2 513,-191.2 452,-191.2"/>
<text text-anchor="start" x="454.994" y="-198.9" font-family="Helvetica,sans-Serif" font-size="11.00" fill="#000000">varchar[20]</text>
<polygon fill="none" stroke="#000000" points="307,-169.2 307,-191.2 452,-191.2 452,-169.2 307,-169.2"/>
<text text-anchor="start" x="327" y="-176.3" font-family="Helvetica,sans-Serif" font-size="11.00" fill="#000000">ODACD</text>
<polygon fill="none" stroke="#000000" points="452,-169.2 452,-191.2 513,-191.2 513,-169.2 452,-169.2"/>
<text text-anchor="start" x="454.994" y="-176.9" font-family="Helvetica,sans-Serif" font-size="11.00" fill="#000000">varchar[20]</text>
<polygon fill="none" stroke="#000000" points="307,-147.2 307,-169.2 452,-169.2 452,-147.2 307,-147.2"/>
<text text-anchor="start" x="327" y="-154.3" font-family="Helvetica,sans-Serif" font-size="11.00" fill="#000000">OSACD</text>
<polygon fill="none" stroke="#000000" points="452,-147.2 452,-169.2 513,-169.2 513,-147.2 452,-147.2"/>
<text text-anchor="start" x="454.994" y="-154.9" font-family="Helvetica,sans-Serif" font-size="11.00" fill="#000000">varchar[20]</text>
<polygon fill="none" stroke="#000000" points="307,-125.2 307,-147.2 452,-147.2 452,-125.2 307,-125.2"/>
<text text-anchor="start" x="327" y="-132.3" font-family="Helvetica,sans-Serif" font-size="11.00" fill="#000000">ODW2W</text>
<polygon fill="none" stroke="#000000" points="452,-125.2 452,-147.2 513,-147.2 513,-125.2 452,-125.2"/>
<text text-anchor="start" x="454.994" y="-132.9" font-family="Helvetica,sans-Serif" font-size="11.00" fill="#000000">varchar[20]</text>
<polygon fill="none" stroke="#000000" points="307,-103.2 307,-125.2 452,-125.2 452,-103.2 307,-103.2"/>
<text text-anchor="start" x="327" y="-110.3" font-family="Helvetica,sans-Serif" font-size="11.00" fill="#000000">OSW2W</text>
<polygon fill="none" stroke="#000000" points="452,-103.2 452,-125.2 513,-125.2 513,-103.2 452,-103.2"/>
<text text-anchor="start" x="454.994" y="-110.9" font-family="Helvetica,sans-Serif" font-size="11.00" fill="#000000">varchar[20]</text>
<polygon fill="none" stroke="#000000" points="307,-81.2 307,-103.2 452,-103.2 452,-81.2 307,-81.2"/>
<text text-anchor="start" x="327" y="-88.3" font-family="Helvetica,sans-Serif" font-size="11.00" fill="#000000">ODLT</text>
<polygon fill="none" stroke="#000000" points="452,-81.2 452,-103.2 513,-103.2 513,-81.2 452,-81.2"/>
<text text-anchor="start" x="454.994" y="-88.9" font-family="Helvetica,sans-Serif" font-size="11.00" fill="#000000">varchar[20]</text>
<polygon fill="none" stroke="#000000" points="307,-59.2 307,-81.2 452,-81.2 452,-59.2 307,-59.2"/>
<text text-anchor="start" x="327" y="-66.3" font-family="Helvetica,sans-Serif" font-size="11.00" fill="#000000">OSLT</text>
<polygon fill="none" stroke="#000000" points="452,-59.2 452,-81.2 513,-81.2 513,-59.2 452,-59.2"/>
<text text-anchor="start" x="454.994" y="-66.9" font-family="Helvetica,sans-Serif" font-size="11.00" fill="#000000">varchar[20]</text>
<polygon fill="#ffffff" stroke="transparent" points="307,-40.2 307,-59.2 384,-59.2 384,-40.2 307,-40.2"/>
<polygon fill="none" stroke="#000000" points="307,-40.2 307,-59.2 384,-59.2 384,-40.2 307,-40.2"/>
<text text-anchor="start" x="310" y="-46.3" font-family="Helvetica,sans-Serif" font-size="11.00" fill="#000000">&lt; 1</text>
<polygon fill="#ffffff" stroke="transparent" points="384,-40.2 384,-59.2 452,-59.2 452,-40.2 384,-40.2"/>
<polygon fill="none" stroke="#000000" points="384,-40.2 384,-59.2 452,-59.2 452,-40.2 384,-40.2"/>
<text text-anchor="start" x="442.8862" y="-46.3" font-family="Helvetica,sans-Serif" font-size="11.00" fill="#000000"> &#160;</text>
<polygon fill="#ffffff" stroke="transparent" points="452,-40.2 452,-59.2 513,-59.2 513,-40.2 452,-40.2"/>
<polygon fill="none" stroke="#000000" points="452,-40.2 452,-59.2 513,-59.2 513,-40.2 452,-40.2"/>
<text text-anchor="start" x="494.4053" y="-46.3" font-family="Helvetica,sans-Serif" font-size="11.00" fill="#000000">0 &gt;</text>
<polygon fill="none" stroke="#000000" stroke-width="2" points="306,-39.2 306,-479.2 514,-479.2 514,-39.2 306,-39.2"/>
</a>
</g>
</g>
<!-- patient_data -->
<g id="node2" class="node">
<title>patient_data</title>
<g id="a_node2"><a xlink:href="../../tables/patient_data.html" xlink:title="patient_data" target="_top">
<polygon fill="#ffffff" stroke="transparent" points="8,-241.7 8,-632.7 256,-632.7 256,-241.7 8,-241.7"/>
<polygon fill="#f5f5f5" stroke="transparent" points="8,-609.2 8,-632.2 256,-632.2 256,-609.2 8,-609.2"/>
<polygon fill="none" stroke="#000000" points="8,-609.2 8,-632.2 256,-632.2 256,-609.2 8,-609.2"/>
<text text-anchor="start" x="13" y="-617.8" font-family="Helvetica,sans-Serif" font-weight="bold" font-size="11.00" fill="#000000">patient_data</text>
<text text-anchor="start" x="221.0437" y="-617.3" font-family="Helvetica,sans-Serif" font-size="11.00" fill="#000000">[table]</text>
<polygon fill="none" stroke="#000000" points="8,-587.2 8,-609.2 256,-609.2 256,-587.2 8,-587.2"/>
<image xlink:href="../../images/primaryKeys.png" width="11px" height="12px" preserveAspectRatio="xMinYMin meet" x="13" y="-604.2"/>
<text text-anchor="start" x="28" y="-594.3" font-family="Helvetica,sans-Serif" font-size="11.00" fill="#000000">id</text>
<polygon fill="#ffffff" stroke="transparent" points="8,-565.2 8,-587.2 256,-587.2 256,-565.2 8,-565.2"/>
<polygon fill="none" stroke="#000000" points="8,-565.2 8,-587.2 256,-587.2 256,-565.2 8,-565.2"/>
<text text-anchor="start" x="28" y="-572.3" font-family="Helvetica,sans-Serif" font-size="11.00" fill="#000000">uuid</text>
<polygon fill="#ffffff" stroke="transparent" points="8,-543.2 8,-565.2 256,-565.2 256,-543.2 8,-543.2"/>
<polygon fill="none" stroke="#000000" points="8,-543.2 8,-565.2 256,-565.2 256,-543.2 8,-543.2"/>
<text text-anchor="start" x="28" y="-550.3" font-family="Helvetica,sans-Serif" font-size="11.00" fill="#000000">fname</text>
<polygon fill="#ffffff" stroke="transparent" points="8,-521.2 8,-543.2 256,-543.2 256,-521.2 8,-521.2"/>
<polygon fill="none" stroke="#000000" points="8,-521.2 8,-543.2 256,-543.2 256,-521.2 8,-521.2"/>
<text text-anchor="start" x="28" y="-528.3" font-family="Helvetica,sans-Serif" font-size="11.00" fill="#000000">lname</text>
<polygon fill="#ffffff" stroke="transparent" points="8,-499.2 8,-521.2 256,-521.2 256,-499.2 8,-499.2"/>
<polygon fill="none" stroke="#000000" points="8,-499.2 8,-521.2 256,-521.2 256,-499.2 8,-499.2"/>
<text text-anchor="start" x="28" y="-506.3" font-family="Helvetica,sans-Serif" font-size="11.00" fill="#000000">DOB</text>
<polygon fill="none" stroke="#000000" points="8,-477.2 8,-499.2 256,-499.2 256,-477.2 8,-477.2"/>
<image xlink:href="../../images/foreignKeys.png" width="11px" height="12px" preserveAspectRatio="xMinYMin meet" x="13" y="-494.2"/>
<text text-anchor="start" x="28" y="-484.3" font-family="Helvetica,sans-Serif" font-size="11.00" fill="#000000">pharmacy_id</text>
<polygon fill="none" stroke="#000000" points="8,-455.2 8,-477.2 256,-477.2 256,-455.2 8,-455.2"/>
<image xlink:href="../../images/foreignKeys.png" width="11px" height="12px" preserveAspectRatio="xMinYMin meet" x="13" y="-472.2"/>
<text text-anchor="start" x="28" y="-462.3" font-family="Helvetica,sans-Serif" font-size="11.00" fill="#000000">providerID</text>
<polygon fill="none" stroke="#000000" points="8,-433.2 8,-455.2 256,-455.2 256,-433.2 8,-433.2"/>
<image xlink:href="../../images/foreignKeys.png" width="11px" height="12px" preserveAspectRatio="xMinYMin meet" x="13" y="-450.2"/>
<text text-anchor="start" x="28" y="-440.3" font-family="Helvetica,sans-Serif" font-size="11.00" fill="#000000">ref_providerID</text>
<polygon fill="none" stroke="#000000" points="8,-411.2 8,-433.2 256,-433.2 256,-411.2 8,-411.2"/>
<image xlink:href="../../images/primaryKeys.png" width="11px" height="12px" preserveAspectRatio="xMinYMin meet" x="13" y="-428.2"/>
<text text-anchor="start" x="28" y="-418.3" font-family="Helvetica,sans-Serif" font-size="11.00" fill="#000000">pid</text>
<polygon fill="none" stroke="#000000" points="8,-389.2 8,-411.2 256,-411.2 256,-389.2 8,-389.2"/>
<image xlink:href="../../images/foreignKeys.png" width="11px" height="12px" preserveAspectRatio="xMinYMin meet" x="13" y="-406.2"/>
<text text-anchor="start" x="28" y="-396.3" font-family="Helvetica,sans-Serif" font-size="11.00" fill="#000000">created_by</text>
<polygon fill="none" stroke="#000000" points="8,-367.2 8,-389.2 256,-389.2 256,-367.2 8,-367.2"/>
<image xlink:href="../../images/foreignKeys.png" width="11px" height="12px" preserveAspectRatio="xMinYMin meet" x="13" y="-384.2"/>
<text text-anchor="start" x="28" y="-374.3" font-family="Helvetica,sans-Serif" font-size="11.00" fill="#000000">updated_by</text>
<polygon fill="none" stroke="#000000" points="8,-345.2 8,-367.2 256,-367.2 256,-345.2 8,-345.2"/>
<image xlink:href="../../images/foreignKeys.png" width="11px" height="12px" preserveAspectRatio="xMinYMin meet" x="13" y="-362.2"/>
<text text-anchor="start" x="28" y="-352.3" font-family="Helvetica,sans-Serif" font-size="11.00" fill="#000000">tribal_affiliations</text>
<polygon fill="none" stroke="#000000" points="8,-323.2 8,-345.2 256,-345.2 256,-323.2 8,-323.2"/>
<image xlink:href="../../images/foreignKeys.png" width="11px" height="12px" preserveAspectRatio="xMinYMin meet" x="13" y="-340.2"/>
<text text-anchor="start" x="28" y="-330.3" font-family="Helvetica,sans-Serif" font-size="11.00" fill="#000000">sex_identified</text>
<polygon fill="none" stroke="#000000" points="8,-301.2 8,-323.2 256,-323.2 256,-301.2 8,-301.2"/>
<image xlink:href="../../images/foreignKeys.png" width="11px" height="12px" preserveAspectRatio="xMinYMin meet" x="13" y="-318.2"/>
<text text-anchor="start" x="28" y="-308.3" font-family="Helvetica,sans-Serif" font-size="11.00" fill="#000000">interpreter_needed</text>
<polygon fill="none" stroke="#000000" points="8,-279.2 8,-301.2 256,-301.2 256,-279.2 8,-279.2"/>
<image xlink:href="../../images/foreignKeys.png" width="11px" height="12px" preserveAspectRatio="xMinYMin meet" x="13" y="-296.2"/>
<text text-anchor="start" x="28" y="-286.3" font-family="Helvetica,sans-Serif" font-size="11.00" fill="#000000">advance_directive_user_authenticator</text>
<polygon fill="none" stroke="#000000" points="8,-260.2 8,-279.2 256,-279.2 256,-260.2 8,-260.2"/>
<text text-anchor="start" x="11" y="-266.3" font-family="Helvetica,sans-Serif" font-size="11.00" fill="#000000">...</text>
<polygon fill="#ffffff" stroke="transparent" points="8,-241.2 8,-260.2 123,-260.2 123,-241.2 8,-241.2"/>
<polygon fill="none" stroke="#000000" points="8,-241.2 8,-260.2 123,-260.2 123,-241.2 8,-241.2"/>
<text text-anchor="start" x="11" y="-247.3" font-family="Helvetica,sans-Serif" font-size="11.00" fill="#000000">&lt; 9</text>
<polygon fill="#ffffff" stroke="transparent" points="123,-241.2 123,-260.2 182,-260.2 182,-241.2 123,-241.2"/>
<polygon fill="none" stroke="#000000" points="123,-241.2 123,-260.2 182,-260.2 182,-241.2 123,-241.2"/>
<text text-anchor="start" x="172.8862" y="-247.3" font-family="Helvetica,sans-Serif" font-size="11.00" fill="#000000"> &#160;</text>
<polygon fill="#ffffff" stroke="transparent" points="182,-241.2 182,-260.2 256,-260.2 256,-241.2 182,-241.2"/>
<polygon fill="none" stroke="#000000" points="182,-241.2 182,-260.2 256,-260.2 256,-241.2 182,-241.2"/>
<text text-anchor="start" x="231.2904" y="-247.3" font-family="Helvetica,sans-Serif" font-size="11.00" fill="#000000">97 &gt;</text>
</a>
</g>
</g>
<!-- form_eye_biometrics&#45;&gt;patient_data -->
<g id="edge1" class="edge">
<title>form_eye_biometrics:w&#45;&gt;patient_data:e</title>
<path fill="none" stroke="#000000" d="M292.276,-422.2C280.2815,-422.2 272.8229,-422.2 256,-422.2"/>
<polygon fill="#000000" stroke="#000000" points="299,-422.2001 307,-425.8 303,-422.2 307,-422.2 307,-422.2 307,-422.2 303,-422.2 307,-418.6 299,-422.2001 299,-422.2001"/>
<ellipse fill="none" stroke="#000000" cx="295.8" cy="-422.2001" rx="3.2" ry="3.2"/>
</g>
</g>
</svg>
