<?xml version="1.0" encoding="UTF-8" standalone="no"?>
<!DOCTYPE svg PUBLIC "-//W3C//DTD SVG 1.1//EN"
 "http://www.w3.org/Graphics/SVG/1.1/DTD/svg11.dtd">
<!-- Generated by graphviz version 2.40.1 (20161225.0304)
 -->
<!-- Title: oneDegreeRelationshipsDiagram Pages: 1 -->
<svg width="743pt" height="264pt"
 viewBox="0.00 0.00 743.00 263.70" xmlns="http://www.w3.org/2000/svg" xmlns:xlink="http://www.w3.org/1999/xlink">
<g id="graph0" class="graph" transform="scale(1 1) rotate(0) translate(4 259.7)">
<title>oneDegreeRelationshipsDiagram</title>
<polygon fill="#ffffff" stroke="transparent" points="-4,4 -4,-259.7 739,-259.7 739,4 -4,4"/>
<text text-anchor="middle" x="72.4936" y="-7.3" font-family="Helvetica,sans-Serif" font-size="11.00" fill="#000000">Generated by SchemaSpy</text>
<!-- form_track_anything -->
<g id="node1" class="node">
<title>form_track_anything</title>
<g id="a_node1"><a xlink:href="../../tables/form_track_anything.html" xlink:title="form_track_anything" target="_top">
<polygon fill="#ffffff" stroke="transparent" points="252,-124.7 252,-251.7 415,-251.7 415,-124.7 252,-124.7"/>
<polygon fill="#f5f5f5" stroke="transparent" points="252.5,-228.2 252.5,-251.2 415.5,-251.2 415.5,-228.2 252.5,-228.2"/>
<polygon fill="none" stroke="#000000" points="252.5,-228.2 252.5,-251.2 415.5,-251.2 415.5,-228.2 252.5,-228.2"/>
<text text-anchor="start" x="257.5" y="-236.8" font-family="Helvetica,sans-Serif" font-weight="bold" font-size="11.00" fill="#000000">form_track_anything</text>
<text text-anchor="start" x="381.0219" y="-236.3" font-family="Helvetica,sans-Serif" font-size="11.00" fill="#000000">[table]</text>
<polygon fill="none" stroke="#000000" points="252.5,-206.2 252.5,-228.2 415.5,-228.2 415.5,-206.2 252.5,-206.2"/>
<image xlink:href="../../images/primaryKeys.png" width="11px" height="12px" preserveAspectRatio="xMinYMin meet" x="257.5" y="-223.2"/>
<text text-anchor="start" x="281.5" y="-213.3" font-family="Helvetica,sans-Serif" font-size="11.00" fill="#000000">id</text>
<polygon fill="none" stroke="#000000" points="252.5,-184.2 252.5,-206.2 415.5,-206.2 415.5,-184.2 252.5,-184.2"/>
<image xlink:href="../../images/foreignKeys.png" width="11px" height="12px" preserveAspectRatio="xMinYMin meet" x="257.5" y="-201.2"/>
<text text-anchor="start" x="281.5" y="-191.3" font-family="Helvetica,sans-Serif" font-size="11.00" fill="#000000">pid</text>
<polygon fill="none" stroke="#000000" points="252.5,-162.2 252.5,-184.2 415.5,-184.2 415.5,-162.2 252.5,-162.2"/>
<image xlink:href="../../images/foreignKeys.png" width="11px" height="12px" preserveAspectRatio="xMinYMin meet" x="257.5" y="-179.2"/>
<text text-anchor="start" x="281.5" y="-169.3" font-family="Helvetica,sans-Serif" font-size="11.00" fill="#000000">procedure_type_id</text>
<polygon fill="none" stroke="#000000" points="252.5,-143.2 252.5,-162.2 415.5,-162.2 415.5,-143.2 252.5,-143.2"/>
<text text-anchor="start" x="255.5" y="-149.3" font-family="Helvetica,sans-Serif" font-size="11.00" fill="#000000">...</text>
<polygon fill="#ffffff" stroke="transparent" points="252.5,-124.2 252.5,-143.2 327.5,-143.2 327.5,-124.2 252.5,-124.2"/>
<polygon fill="none" stroke="#000000" points="252.5,-124.2 252.5,-143.2 327.5,-143.2 327.5,-124.2 252.5,-124.2"/>
<text text-anchor="start" x="255.5" y="-130.3" font-family="Helvetica,sans-Serif" font-size="11.00" fill="#000000">&lt; 3</text>
<polygon fill="#ffffff" stroke="transparent" points="327.5,-124.2 327.5,-143.2 366.5,-143.2 366.5,-124.2 327.5,-124.2"/>
<polygon fill="none" stroke="#000000" points="327.5,-124.2 327.5,-143.2 366.5,-143.2 366.5,-124.2 327.5,-124.2"/>
<text text-anchor="start" x="357.3862" y="-130.3" font-family="Helvetica,sans-Serif" font-size="11.00" fill="#000000"> &#160;</text>
<polygon fill="#ffffff" stroke="transparent" points="366.5,-124.2 366.5,-143.2 415.5,-143.2 415.5,-124.2 366.5,-124.2"/>
<polygon fill="none" stroke="#000000" points="366.5,-124.2 366.5,-143.2 415.5,-143.2 415.5,-124.2 366.5,-124.2"/>
<text text-anchor="start" x="396.9053" y="-130.3" font-family="Helvetica,sans-Serif" font-size="11.00" fill="#000000">1 &gt;</text>
</a>
</g>
</g>
<!-- form_track_anything_type -->
<g id="node2" class="node">
<title>form_track_anything_type</title>
<g id="a_node2"><a xlink:href="../../tables/form_track_anything_type.html" xlink:title="form_track_anything_type" target="_top">
<polygon fill="#ffffff" stroke="transparent" points="8,-87.7 8,-170.7 203,-170.7 203,-87.7 8,-87.7"/>
<polygon fill="#f5f5f5" stroke="transparent" points="8.5,-147.2 8.5,-170.2 203.5,-170.2 203.5,-147.2 8.5,-147.2"/>
<polygon fill="none" stroke="#000000" points="8.5,-147.2 8.5,-170.2 203.5,-170.2 203.5,-147.2 8.5,-147.2"/>
<text text-anchor="start" x="13.5" y="-155.8" font-family="Helvetica,sans-Serif" font-weight="bold" font-size="11.00" fill="#000000">form_track_anything_type</text>
<text text-anchor="start" x="169.0219" y="-155.3" font-family="Helvetica,sans-Serif" font-size="11.00" fill="#000000">[table]</text>
<polygon fill="none" stroke="#000000" points="8.5,-125.2 8.5,-147.2 203.5,-147.2 203.5,-125.2 8.5,-125.2"/>
<image xlink:href="../../images/primaryKeys.png" width="11px" height="12px" preserveAspectRatio="xMinYMin meet" x="13.5" y="-142.2"/>
<text text-anchor="start" x="37.5" y="-132.3" font-family="Helvetica,sans-Serif" font-size="11.00" fill="#000000">track_anything_type_id</text>
<polygon fill="none" stroke="#000000" points="8.5,-106.2 8.5,-125.2 203.5,-125.2 203.5,-106.2 8.5,-106.2"/>
<text text-anchor="start" x="11.5" y="-112.3" font-family="Helvetica,sans-Serif" font-size="11.00" fill="#000000">...</text>
<polygon fill="#ffffff" stroke="transparent" points="8.5,-87.2 8.5,-106.2 95.5,-106.2 95.5,-87.2 8.5,-87.2"/>
<polygon fill="none" stroke="#000000" points="8.5,-87.2 8.5,-106.2 95.5,-106.2 95.5,-87.2 8.5,-87.2"/>
<text text-anchor="start" x="11.5" y="-93.3" font-family="Helvetica,sans-Serif" font-size="11.00" fill="#000000"> &#160;</text>
<polygon fill="#ffffff" stroke="transparent" points="95.5,-87.2 95.5,-106.2 144.5,-106.2 144.5,-87.2 95.5,-87.2"/>
<polygon fill="none" stroke="#000000" points="95.5,-87.2 95.5,-106.2 144.5,-106.2 144.5,-87.2 95.5,-87.2"/>
<text text-anchor="start" x="135.3862" y="-93.3" font-family="Helvetica,sans-Serif" font-size="11.00" fill="#000000"> &#160;</text>
<polygon fill="#ffffff" stroke="transparent" points="144.5,-87.2 144.5,-106.2 203.5,-106.2 203.5,-87.2 144.5,-87.2"/>
<polygon fill="none" stroke="#000000" points="144.5,-87.2 144.5,-106.2 203.5,-106.2 203.5,-87.2 144.5,-87.2"/>
<text text-anchor="start" x="184.9053" y="-93.3" font-family="Helvetica,sans-Serif" font-size="11.00" fill="#000000">2 &gt;</text>
</a>
</g>
</g>
<!-- form_track_anything&#45;&gt;form_track_anything_type -->
<g id="edge1" class="edge">
<title>form_track_anything:w&#45;&gt;form_track_anything_type:e</title>
<path fill="none" stroke="#000000" d="M238.6217,-168.6631C226.0786,-158.783 224.8196,-136.2 203.5,-136.2"/>
<polygon fill="#000000" stroke="#000000" points="244.896,-170.7142 251.3814,-176.6218 248.698,-171.9571 252.5,-173.2 252.5,-173.2 252.5,-173.2 248.698,-171.9571 253.6186,-169.7782 244.896,-170.7142 244.896,-170.7142"/>
<ellipse fill="none" stroke="#000000" cx="241.8544" cy="-169.7198" rx="3.2" ry="3.2"/>
</g>
<!-- form_track_anything_results -->
<g id="node3" class="node">
<title>form_track_anything_results</title>
<g id="a_node3"><a xlink:href="../../tables/form_track_anything_results.html" xlink:title="form_track_anything_results" target="_top">
<polygon fill="#ffffff" stroke="transparent" points="464,-38.2 464,-238.2 727,-238.2 727,-38.2 464,-38.2"/>
<polygon fill="#f5f5f5" stroke="transparent" points="466.5,-213.2 466.5,-236.2 725.5,-236.2 725.5,-213.2 466.5,-213.2"/>
<polygon fill="none" stroke="#000000" points="466.5,-213.2 466.5,-236.2 725.5,-236.2 725.5,-213.2 466.5,-213.2"/>
<text text-anchor="start" x="471.5" y="-221.8" font-family="Helvetica,sans-Serif" font-weight="bold" font-size="11.00" fill="#000000">form_track_anything_results</text>
<text text-anchor="start" x="690.5437" y="-221.3" font-family="Helvetica,sans-Serif" font-size="11.00" fill="#000000">[table]</text>
<polygon fill="none" stroke="#000000" points="466.5,-191.2 466.5,-213.2 658.5,-213.2 658.5,-191.2 466.5,-191.2"/>
<image xlink:href="../../images/primaryKeys.png" width="11px" height="12px" preserveAspectRatio="xMinYMin meet" x="471.5" y="-208.2"/>
<text text-anchor="start" x="486.5" y="-198.3" font-family="Helvetica,sans-Serif" font-size="11.00" fill="#000000">id</text>
<polygon fill="none" stroke="#000000" points="658.5,-191.2 658.5,-213.2 725.5,-213.2 725.5,-191.2 658.5,-191.2"/>
<text text-anchor="start" x="661.5" y="-198.9" font-family="Helvetica,sans-Serif" font-size="11.00" fill="#000000">bigint[19]</text>
<polygon fill="none" stroke="#000000" points="466.5,-169.2 466.5,-191.2 658.5,-191.2 658.5,-169.2 466.5,-169.2"/>
<image xlink:href="../../images/foreignKeys.png" width="11px" height="12px" preserveAspectRatio="xMinYMin meet" x="471.5" y="-186.2"/>
<text text-anchor="start" x="486.5" y="-176.3" font-family="Helvetica,sans-Serif" font-size="11.00" fill="#000000">track_anything_id</text>
<polygon fill="none" stroke="#000000" points="658.5,-169.2 658.5,-191.2 725.5,-191.2 725.5,-169.2 658.5,-169.2"/>
<text text-anchor="start" x="661.5" y="-176.9" font-family="Helvetica,sans-Serif" font-size="11.00" fill="#000000">bigint[19]</text>
<polygon fill="none" stroke="#000000" points="466.5,-147.2 466.5,-169.2 658.5,-169.2 658.5,-147.2 466.5,-147.2"/>
<text text-anchor="start" x="486.5" y="-154.3" font-family="Helvetica,sans-Serif" font-size="11.00" fill="#000000">track_timestamp</text>
<polygon fill="none" stroke="#000000" points="658.5,-147.2 658.5,-169.2 725.5,-169.2 725.5,-147.2 658.5,-147.2"/>
<text text-anchor="start" x="661.5" y="-154.9" font-family="Helvetica,sans-Serif" font-size="11.00" fill="#000000">datetime[19]</text>
<polygon fill="none" stroke="#000000" points="466.5,-125.2 466.5,-147.2 658.5,-147.2 658.5,-125.2 466.5,-125.2"/>
<image xlink:href="../../images/foreignKeys.png" width="11px" height="12px" preserveAspectRatio="xMinYMin meet" x="471.5" y="-142.2"/>
<text text-anchor="start" x="486.5" y="-132.3" font-family="Helvetica,sans-Serif" font-size="11.00" fill="#000000">itemid</text>
<polygon fill="none" stroke="#000000" points="658.5,-125.2 658.5,-147.2 725.5,-147.2 725.5,-125.2 658.5,-125.2"/>
<text text-anchor="start" x="661.5" y="-132.9" font-family="Helvetica,sans-Serif" font-size="11.00" fill="#000000">bigint[19]</text>
<polygon fill="none" stroke="#000000" points="466.5,-103.2 466.5,-125.2 658.5,-125.2 658.5,-103.2 466.5,-103.2"/>
<text text-anchor="start" x="486.5" y="-110.3" font-family="Helvetica,sans-Serif" font-size="11.00" fill="#000000">result</text>
<polygon fill="none" stroke="#000000" points="658.5,-103.2 658.5,-125.2 725.5,-125.2 725.5,-103.2 658.5,-103.2"/>
<text text-anchor="start" x="661.4365" y="-110.9" font-family="Helvetica,sans-Serif" font-size="11.00" fill="#000000">varchar[255]</text>
<polygon fill="none" stroke="#000000" points="466.5,-81.2 466.5,-103.2 658.5,-103.2 658.5,-81.2 466.5,-81.2"/>
<text text-anchor="start" x="486.5" y="-88.3" font-family="Helvetica,sans-Serif" font-size="11.00" fill="#000000">comment</text>
<polygon fill="none" stroke="#000000" points="658.5,-81.2 658.5,-103.2 725.5,-103.2 725.5,-81.2 658.5,-81.2"/>
<text text-anchor="start" x="661.4365" y="-88.9" font-family="Helvetica,sans-Serif" font-size="11.00" fill="#000000">varchar[255]</text>
<polygon fill="none" stroke="#000000" points="466.5,-59.2 466.5,-81.2 658.5,-81.2 658.5,-59.2 466.5,-59.2"/>
<text text-anchor="start" x="486.5" y="-66.3" font-family="Helvetica,sans-Serif" font-size="11.00" fill="#000000">notes</text>
<polygon fill="none" stroke="#000000" points="658.5,-59.2 658.5,-81.2 725.5,-81.2 725.5,-59.2 658.5,-59.2"/>
<text text-anchor="start" x="661.4365" y="-66.9" font-family="Helvetica,sans-Serif" font-size="11.00" fill="#000000">varchar[255]</text>
<polygon fill="#ffffff" stroke="transparent" points="466.5,-40.2 466.5,-59.2 566.5,-59.2 566.5,-40.2 466.5,-40.2"/>
<polygon fill="none" stroke="#000000" points="466.5,-40.2 466.5,-59.2 566.5,-59.2 566.5,-40.2 466.5,-40.2"/>
<text text-anchor="start" x="469.5" y="-46.3" font-family="Helvetica,sans-Serif" font-size="11.00" fill="#000000">&lt; 2</text>
<polygon fill="#ffffff" stroke="transparent" points="566.5,-40.2 566.5,-59.2 658.5,-59.2 658.5,-40.2 566.5,-40.2"/>
<polygon fill="none" stroke="#000000" points="566.5,-40.2 566.5,-59.2 658.5,-59.2 658.5,-40.2 566.5,-40.2"/>
<text text-anchor="start" x="649.3862" y="-46.3" font-family="Helvetica,sans-Serif" font-size="11.00" fill="#000000"> &#160;</text>
<polygon fill="#ffffff" stroke="transparent" points="658.5,-40.2 658.5,-59.2 725.5,-59.2 725.5,-40.2 658.5,-40.2"/>
<polygon fill="none" stroke="#000000" points="658.5,-40.2 658.5,-59.2 725.5,-59.2 725.5,-40.2 658.5,-40.2"/>
<text text-anchor="start" x="706.9053" y="-46.3" font-family="Helvetica,sans-Serif" font-size="11.00" fill="#000000">0 &gt;</text>
<polygon fill="none" stroke="#000000" stroke-width="2" points="465,-39.2 465,-237.2 726,-237.2 726,-39.2 465,-39.2"/>
</a>
</g>
</g>
<!-- form_track_anything_results&#45;&gt;form_track_anything -->
<g id="edge3" class="edge">
<title>form_track_anything_results:w&#45;&gt;form_track_anything:e</title>
<path fill="none" stroke="#000000" d="M452.5658,-184.4444C439.14,-194.1631 437.5965,-217.2 415.5,-217.2"/>
<polygon fill="#000000" stroke="#000000" points="458.8471,-182.5311 467.549,-183.6438 462.6736,-181.3655 466.5,-180.2 466.5,-180.2 466.5,-180.2 462.6736,-181.3655 465.451,-176.7562 458.8471,-182.5311 458.8471,-182.5311"/>
<ellipse fill="none" stroke="#000000" cx="455.786" cy="-183.4635" rx="3.2" ry="3.2"/>
</g>
<!-- form_track_anything_results&#45;&gt;form_track_anything_type -->
<g id="edge2" class="edge">
<title>form_track_anything_results:w&#45;&gt;form_track_anything_type:e</title>
<path fill="none" stroke="#000000" d="M452.2637,-132.8154C442.8001,-127.5972 438.1471,-117.8124 423,-114.2 345.6148,-95.7443 321.1058,-94.6096 244,-114.2 224.1465,-119.2442 223.9843,-136.2 203.5,-136.2"/>
<polygon fill="#000000" stroke="#000000" points="458.7169,-134.3496 465.6673,-139.7024 462.6085,-135.2748 466.5,-136.2 466.5,-136.2 466.5,-136.2 462.6085,-135.2748 467.3327,-132.6976 458.7169,-134.3496 458.7169,-134.3496"/>
<ellipse fill="none" stroke="#000000" cx="455.6037" cy="-133.6094" rx="3.2" ry="3.2"/>
</g>
</g>
</svg>
