<?xml version="1.0" encoding="UTF-8" standalone="no"?>
<!DOCTYPE svg PUBLIC "-//W3C//DTD SVG 1.1//EN"
 "http://www.w3.org/Graphics/SVG/1.1/DTD/svg11.dtd">
<!-- Generated by graphviz version 2.40.1 (20161225.0304)
 -->
<!-- Title: oneDegreeRelationshipsDiagram Pages: 1 -->
<svg width="549pt" height="177pt"
 viewBox="0.00 0.00 549.00 177.20" xmlns="http://www.w3.org/2000/svg" xmlns:xlink="http://www.w3.org/1999/xlink">
<g id="graph0" class="graph" transform="scale(1 1) rotate(0) translate(4 173.2)">
<title>oneDegreeRelationshipsDiagram</title>
<polygon fill="#ffffff" stroke="transparent" points="-4,4 -4,-173.2 545,-173.2 545,4 -4,4"/>
<text text-anchor="middle" x="72.4936" y="-7.3" font-family="Helvetica,sans-Serif" font-size="11.00" fill="#000000">Generated by SchemaSpy</text>
<!-- form_physical_exam -->
<g id="node1" class="node">
<title>form_physical_exam</title>
<g id="a_node1"><a xlink:href="../../tables/form_physical_exam.html" xlink:title="form_physical_exam" target="_top">
<polygon fill="#ffffff" stroke="transparent" points="359,-38.2 359,-165.2 533,-165.2 533,-38.2 359,-38.2"/>
<polygon fill="#f5f5f5" stroke="transparent" points="359,-141.7 359,-164.7 533,-164.7 533,-141.7 359,-141.7"/>
<polygon fill="none" stroke="#000000" points="359,-141.7 359,-164.7 533,-164.7 533,-141.7 359,-141.7"/>
<text text-anchor="start" x="364" y="-150.3" font-family="Helvetica,sans-Serif" font-weight="bold" font-size="11.00" fill="#000000">form_physical_exam</text>
<text text-anchor="start" x="498.5219" y="-149.8" font-family="Helvetica,sans-Serif" font-size="11.00" fill="#000000">[table]</text>
<polygon fill="none" stroke="#000000" points="359,-119.7 359,-141.7 533,-141.7 533,-119.7 359,-119.7"/>
<image xlink:href="../../images/primaryKeys.png" width="11px" height="12px" preserveAspectRatio="xMinYMin meet" x="364" y="-136.7"/>
<text text-anchor="start" x="388" y="-126.8" font-family="Helvetica,sans-Serif" font-size="11.00" fill="#000000">forms_id</text>
<polygon fill="none" stroke="#000000" points="359,-97.7 359,-119.7 533,-119.7 533,-97.7 359,-97.7"/>
<image xlink:href="../../images/primaryKeys.png" width="11px" height="12px" preserveAspectRatio="xMinYMin meet" x="364" y="-114.7"/>
<text text-anchor="start" x="388" y="-104.8" font-family="Helvetica,sans-Serif" font-size="11.00" fill="#000000">line_id</text>
<polygon fill="none" stroke="#000000" points="359,-75.7 359,-97.7 533,-97.7 533,-75.7 359,-75.7"/>
<image xlink:href="../../images/foreignKeys.png" width="11px" height="12px" preserveAspectRatio="xMinYMin meet" x="364" y="-92.7"/>
<text text-anchor="start" x="388" y="-82.8" font-family="Helvetica,sans-Serif" font-size="11.00" fill="#000000">diagnosis</text>
<polygon fill="none" stroke="#000000" points="359,-56.7 359,-75.7 533,-75.7 533,-56.7 359,-56.7"/>
<text text-anchor="start" x="362" y="-62.8" font-family="Helvetica,sans-Serif" font-size="11.00" fill="#000000">...</text>
<polygon fill="#ffffff" stroke="transparent" points="359,-37.7 359,-56.7 444,-56.7 444,-37.7 359,-37.7"/>
<polygon fill="none" stroke="#000000" points="359,-37.7 359,-56.7 444,-56.7 444,-37.7 359,-37.7"/>
<text text-anchor="start" x="362" y="-43.8" font-family="Helvetica,sans-Serif" font-size="11.00" fill="#000000">&lt; 3</text>
<polygon fill="#ffffff" stroke="transparent" points="444,-37.7 444,-56.7 488,-56.7 488,-37.7 444,-37.7"/>
<polygon fill="none" stroke="#000000" points="444,-37.7 444,-56.7 488,-56.7 488,-37.7 444,-37.7"/>
<text text-anchor="start" x="478.8862" y="-43.8" font-family="Helvetica,sans-Serif" font-size="11.00" fill="#000000"> &#160;</text>
<polygon fill="#ffffff" stroke="transparent" points="488,-37.7 488,-56.7 533,-56.7 533,-37.7 488,-37.7"/>
<polygon fill="none" stroke="#000000" points="488,-37.7 488,-56.7 533,-56.7 533,-37.7 488,-37.7"/>
<text text-anchor="start" x="523.8862" y="-43.8" font-family="Helvetica,sans-Serif" font-size="11.00" fill="#000000"> &#160;</text>
</a>
</g>
</g>
<!-- form_physical_exam_diagnoses -->
<g id="node2" class="node">
<title>form_physical_exam_diagnoses</title>
<g id="a_node2"><a xlink:href="../../tables/form_physical_exam_diagnoses.html" xlink:title="form_physical_exam_diagnoses" target="_top">
<polygon fill="#ffffff" stroke="transparent" points="8,-43.7 8,-155.7 310,-155.7 310,-43.7 8,-43.7"/>
<polygon fill="#f5f5f5" stroke="transparent" points="10,-130.7 10,-153.7 308,-153.7 308,-130.7 10,-130.7"/>
<polygon fill="none" stroke="#000000" points="10,-130.7 10,-153.7 308,-153.7 308,-130.7 10,-130.7"/>
<text text-anchor="start" x="15" y="-139.3" font-family="Helvetica,sans-Serif" font-weight="bold" font-size="11.00" fill="#000000">form_physical_exam_diagnoses</text>
<text text-anchor="start" x="273.0437" y="-138.8" font-family="Helvetica,sans-Serif" font-size="11.00" fill="#000000">[table]</text>
<polygon fill="none" stroke="#000000" points="10,-108.7 10,-130.7 241,-130.7 241,-108.7 10,-108.7"/>
<image xlink:href="../../images/primaryKeys.png" width="11px" height="12px" preserveAspectRatio="xMinYMin meet" x="15" y="-125.7"/>
<text text-anchor="start" x="30" y="-115.8" font-family="Helvetica,sans-Serif" font-size="11.00" fill="#000000">line_id</text>
<polygon fill="none" stroke="#000000" points="241,-108.7 241,-130.7 308,-130.7 308,-108.7 241,-108.7"/>
<text text-anchor="start" x="244" y="-116.4" font-family="Helvetica,sans-Serif" font-size="11.00" fill="#000000">char[8]</text>
<polygon fill="#ffffff" stroke="transparent" points="10,-86.7 10,-108.7 241,-108.7 241,-86.7 10,-86.7"/>
<polygon fill="none" stroke="#000000" points="10,-86.7 10,-108.7 241,-108.7 241,-86.7 10,-86.7"/>
<text text-anchor="start" x="30" y="-93.8" font-family="Helvetica,sans-Serif" font-size="11.00" fill="#000000">ordering</text>
<polygon fill="none" stroke="#000000" points="241,-86.7 241,-108.7 308,-108.7 308,-86.7 241,-86.7"/>
<text text-anchor="start" x="244" y="-94.4" font-family="Helvetica,sans-Serif" font-size="11.00" fill="#000000">int[10]</text>
<polygon fill="none" stroke="#000000" points="10,-64.7 10,-86.7 241,-86.7 241,-64.7 10,-64.7"/>
<image xlink:href="../../images/primaryKeys.png" width="11px" height="12px" preserveAspectRatio="xMinYMin meet" x="15" y="-81.7"/>
<text text-anchor="start" x="30" y="-71.8" font-family="Helvetica,sans-Serif" font-size="11.00" fill="#000000">diagnosis</text>
<polygon fill="none" stroke="#000000" points="241,-64.7 241,-86.7 308,-86.7 308,-64.7 241,-64.7"/>
<text text-anchor="start" x="243.9365" y="-72.4" font-family="Helvetica,sans-Serif" font-size="11.00" fill="#000000">varchar[255]</text>
<polygon fill="#ffffff" stroke="transparent" points="10,-45.7 10,-64.7 130,-64.7 130,-45.7 10,-45.7"/>
<polygon fill="none" stroke="#000000" points="10,-45.7 10,-64.7 130,-64.7 130,-45.7 10,-45.7"/>
<text text-anchor="start" x="13" y="-51.8" font-family="Helvetica,sans-Serif" font-size="11.00" fill="#000000">&lt; 0</text>
<polygon fill="#ffffff" stroke="transparent" points="130,-45.7 130,-64.7 241,-64.7 241,-45.7 130,-45.7"/>
<polygon fill="none" stroke="#000000" points="130,-45.7 130,-64.7 241,-64.7 241,-45.7 130,-45.7"/>
<text text-anchor="start" x="231.8862" y="-51.8" font-family="Helvetica,sans-Serif" font-size="11.00" fill="#000000"> &#160;</text>
<polygon fill="#ffffff" stroke="transparent" points="241,-45.7 241,-64.7 308,-64.7 308,-45.7 241,-45.7"/>
<polygon fill="none" stroke="#000000" points="241,-45.7 241,-64.7 308,-64.7 308,-45.7 241,-45.7"/>
<text text-anchor="start" x="289.4053" y="-51.8" font-family="Helvetica,sans-Serif" font-size="11.00" fill="#000000">2 &gt;</text>
<polygon fill="none" stroke="#000000" stroke-width="2" points="9,-44.7 9,-154.7 309,-154.7 309,-44.7 9,-44.7"/>
</a>
</g>
</g>
<!-- form_physical_exam&#45;&gt;form_physical_exam_diagnoses -->
<g id="edge1" class="edge">
<title>form_physical_exam:w&#45;&gt;form_physical_exam_diagnoses:e</title>
<path fill="none" stroke="#000000" d="M344.5097,-84.9813C332.3398,-81.8875 325.3909,-75.7 308,-75.7"/>
<polygon fill="#000000" stroke="#000000" points="351.0557,-85.7576 358.5759,-90.2749 355.0278,-86.2288 359,-86.7 359,-86.7 359,-86.7 355.0278,-86.2288 359.4241,-83.1251 351.0557,-85.7576 351.0557,-85.7576"/>
<ellipse fill="none" stroke="#000000" cx="347.878" cy="-85.3807" rx="3.2" ry="3.2"/>
</g>
<!-- form_physical_exam&#45;&gt;form_physical_exam_diagnoses -->
<g id="edge2" class="edge">
<title>form_physical_exam:w&#45;&gt;form_physical_exam_diagnoses:e</title>
<path fill="none" stroke="#000000" d="M344.5097,-110.4188C332.3398,-113.5125 325.3909,-119.7 308,-119.7"/>
<polygon fill="#000000" stroke="#000000" points="351.0557,-109.6424 359.4241,-112.2749 355.0278,-109.1712 359,-108.7 359,-108.7 359,-108.7 355.0278,-109.1712 358.5759,-105.1251 351.0557,-109.6424 351.0557,-109.6424"/>
<ellipse fill="none" stroke="#000000" cx="347.878" cy="-110.0193" rx="3.2" ry="3.2"/>
</g>
</g>
</svg>
