<?xml version="1.0" encoding="UTF-8" standalone="no"?>
<!DOCTYPE svg PUBLIC "-//W3C//DTD SVG 1.1//EN"
 "http://www.w3.org/Graphics/SVG/1.1/DTD/svg11.dtd">
<!-- Generated by graphviz version 2.40.1 (20161225.0304)
 -->
<!-- Title: oneDegreeRelationshipsDiagram Pages: 1 -->
<svg width="483pt" height="469pt"
 viewBox="0.00 0.00 483.00 468.70" xmlns="http://www.w3.org/2000/svg" xmlns:xlink="http://www.w3.org/1999/xlink">
<g id="graph0" class="graph" transform="scale(1 1) rotate(0) translate(4 464.7)">
<title>oneDegreeRelationshipsDiagram</title>
<polygon fill="#ffffff" stroke="transparent" points="-4,4 -4,-464.7 479,-464.7 479,4 -4,4"/>
<text text-anchor="middle" x="72.4936" y="-7.3" font-family="Helvetica,sans-Serif" font-size="11.00" fill="#000000">Generated by SchemaSpy</text>
<!-- form_soap -->
<g id="node1" class="node">
<title>form_soap</title>
<g id="a_node1"><a xlink:href="../../tables/form_soap.html" xlink:title="form_soap" target="_top">
<polygon fill="#ffffff" stroke="transparent" points="305,-38.2 305,-326.2 467,-326.2 467,-38.2 305,-38.2"/>
<polygon fill="#f5f5f5" stroke="transparent" points="307,-301.2 307,-324.2 465,-324.2 465,-301.2 307,-301.2"/>
<polygon fill="none" stroke="#000000" points="307,-301.2 307,-324.2 465,-324.2 465,-301.2 307,-301.2"/>
<text text-anchor="start" x="312" y="-309.8" font-family="Helvetica,sans-Serif" font-weight="bold" font-size="11.00" fill="#000000">form_soap</text>
<text text-anchor="start" x="430.0437" y="-309.3" font-family="Helvetica,sans-Serif" font-size="11.00" fill="#000000">[table]</text>
<polygon fill="none" stroke="#000000" points="307,-279.2 307,-301.2 398,-301.2 398,-279.2 307,-279.2"/>
<image xlink:href="../../images/primaryKeys.png" width="11px" height="12px" preserveAspectRatio="xMinYMin meet" x="312" y="-296.2"/>
<text text-anchor="start" x="327" y="-286.3" font-family="Helvetica,sans-Serif" font-size="11.00" fill="#000000">id</text>
<polygon fill="none" stroke="#000000" points="398,-279.2 398,-301.2 465,-301.2 465,-279.2 398,-279.2"/>
<text text-anchor="start" x="401" y="-286.9" font-family="Helvetica,sans-Serif" font-size="11.00" fill="#000000">bigint[19]</text>
<polygon fill="none" stroke="#000000" points="307,-257.2 307,-279.2 398,-279.2 398,-257.2 307,-257.2"/>
<text text-anchor="start" x="327" y="-264.3" font-family="Helvetica,sans-Serif" font-size="11.00" fill="#000000">date</text>
<polygon fill="none" stroke="#000000" points="398,-257.2 398,-279.2 465,-279.2 465,-257.2 398,-257.2"/>
<text text-anchor="start" x="401" y="-264.9" font-family="Helvetica,sans-Serif" font-size="11.00" fill="#000000">datetime[19]</text>
<polygon fill="none" stroke="#000000" points="307,-235.2 307,-257.2 398,-257.2 398,-235.2 307,-235.2"/>
<image xlink:href="../../images/foreignKeys.png" width="11px" height="12px" preserveAspectRatio="xMinYMin meet" x="312" y="-252.2"/>
<text text-anchor="start" x="327" y="-242.3" font-family="Helvetica,sans-Serif" font-size="11.00" fill="#000000">pid</text>
<polygon fill="none" stroke="#000000" points="398,-235.2 398,-257.2 465,-257.2 465,-235.2 398,-235.2"/>
<text text-anchor="start" x="401" y="-242.9" font-family="Helvetica,sans-Serif" font-size="11.00" fill="#000000">bigint[19]</text>
<polygon fill="none" stroke="#000000" points="307,-213.2 307,-235.2 398,-235.2 398,-213.2 307,-213.2"/>
<text text-anchor="start" x="327" y="-220.3" font-family="Helvetica,sans-Serif" font-size="11.00" fill="#000000">user</text>
<polygon fill="none" stroke="#000000" points="398,-213.2 398,-235.2 465,-235.2 465,-213.2 398,-213.2"/>
<text text-anchor="start" x="400.9365" y="-220.9" font-family="Helvetica,sans-Serif" font-size="11.00" fill="#000000">varchar[255]</text>
<polygon fill="none" stroke="#000000" points="307,-191.2 307,-213.2 398,-213.2 398,-191.2 307,-191.2"/>
<text text-anchor="start" x="327" y="-198.3" font-family="Helvetica,sans-Serif" font-size="11.00" fill="#000000">groupname</text>
<polygon fill="none" stroke="#000000" points="398,-191.2 398,-213.2 465,-213.2 465,-191.2 398,-191.2"/>
<text text-anchor="start" x="400.9365" y="-198.9" font-family="Helvetica,sans-Serif" font-size="11.00" fill="#000000">varchar[255]</text>
<polygon fill="none" stroke="#000000" points="307,-169.2 307,-191.2 398,-191.2 398,-169.2 307,-169.2"/>
<text text-anchor="start" x="327" y="-176.3" font-family="Helvetica,sans-Serif" font-size="11.00" fill="#000000">authorized</text>
<polygon fill="none" stroke="#000000" points="398,-169.2 398,-191.2 465,-191.2 465,-169.2 398,-169.2"/>
<text text-anchor="start" x="401" y="-176.9" font-family="Helvetica,sans-Serif" font-size="11.00" fill="#000000">tinyint[3]</text>
<polygon fill="none" stroke="#000000" points="307,-147.2 307,-169.2 398,-169.2 398,-147.2 307,-147.2"/>
<text text-anchor="start" x="327" y="-154.3" font-family="Helvetica,sans-Serif" font-size="11.00" fill="#000000">activity</text>
<polygon fill="none" stroke="#000000" points="398,-147.2 398,-169.2 465,-169.2 465,-147.2 398,-147.2"/>
<text text-anchor="start" x="401" y="-154.9" font-family="Helvetica,sans-Serif" font-size="11.00" fill="#000000">tinyint[3]</text>
<polygon fill="none" stroke="#000000" points="307,-125.2 307,-147.2 398,-147.2 398,-125.2 307,-125.2"/>
<text text-anchor="start" x="327" y="-132.3" font-family="Helvetica,sans-Serif" font-size="11.00" fill="#000000">subjective</text>
<polygon fill="none" stroke="#000000" points="398,-125.2 398,-147.2 465,-147.2 465,-125.2 398,-125.2"/>
<text text-anchor="start" x="401" y="-132.9" font-family="Helvetica,sans-Serif" font-size="11.00" fill="#000000">text[65535]</text>
<polygon fill="none" stroke="#000000" points="307,-103.2 307,-125.2 398,-125.2 398,-103.2 307,-103.2"/>
<text text-anchor="start" x="327" y="-110.3" font-family="Helvetica,sans-Serif" font-size="11.00" fill="#000000">objective</text>
<polygon fill="none" stroke="#000000" points="398,-103.2 398,-125.2 465,-125.2 465,-103.2 398,-103.2"/>
<text text-anchor="start" x="401" y="-110.9" font-family="Helvetica,sans-Serif" font-size="11.00" fill="#000000">text[65535]</text>
<polygon fill="none" stroke="#000000" points="307,-81.2 307,-103.2 398,-103.2 398,-81.2 307,-81.2"/>
<text text-anchor="start" x="327" y="-88.3" font-family="Helvetica,sans-Serif" font-size="11.00" fill="#000000">assessment</text>
<polygon fill="none" stroke="#000000" points="398,-81.2 398,-103.2 465,-103.2 465,-81.2 398,-81.2"/>
<text text-anchor="start" x="401" y="-88.9" font-family="Helvetica,sans-Serif" font-size="11.00" fill="#000000">text[65535]</text>
<polygon fill="none" stroke="#000000" points="307,-59.2 307,-81.2 398,-81.2 398,-59.2 307,-59.2"/>
<text text-anchor="start" x="327" y="-66.3" font-family="Helvetica,sans-Serif" font-size="11.00" fill="#000000">plan</text>
<polygon fill="none" stroke="#000000" points="398,-59.2 398,-81.2 465,-81.2 465,-59.2 398,-59.2"/>
<text text-anchor="start" x="401" y="-66.9" font-family="Helvetica,sans-Serif" font-size="11.00" fill="#000000">text[65535]</text>
<polygon fill="#ffffff" stroke="transparent" points="307,-40.2 307,-59.2 357,-59.2 357,-40.2 307,-40.2"/>
<polygon fill="none" stroke="#000000" points="307,-40.2 307,-59.2 357,-59.2 357,-40.2 307,-40.2"/>
<text text-anchor="start" x="310" y="-46.3" font-family="Helvetica,sans-Serif" font-size="11.00" fill="#000000">&lt; 1</text>
<polygon fill="#ffffff" stroke="transparent" points="357,-40.2 357,-59.2 398,-59.2 398,-40.2 357,-40.2"/>
<polygon fill="none" stroke="#000000" points="357,-40.2 357,-59.2 398,-59.2 398,-40.2 357,-40.2"/>
<text text-anchor="start" x="388.8862" y="-46.3" font-family="Helvetica,sans-Serif" font-size="11.00" fill="#000000"> &#160;</text>
<polygon fill="#ffffff" stroke="transparent" points="398,-40.2 398,-59.2 465,-59.2 465,-40.2 398,-40.2"/>
<polygon fill="none" stroke="#000000" points="398,-40.2 398,-59.2 465,-59.2 465,-40.2 398,-40.2"/>
<text text-anchor="start" x="446.4053" y="-46.3" font-family="Helvetica,sans-Serif" font-size="11.00" fill="#000000">0 &gt;</text>
<polygon fill="none" stroke="#000000" stroke-width="2" points="306,-39.2 306,-325.2 466,-325.2 466,-39.2 306,-39.2"/>
</a>
</g>
</g>
<!-- patient_data -->
<g id="node2" class="node">
<title>patient_data</title>
<g id="a_node2"><a xlink:href="../../tables/patient_data.html" xlink:title="patient_data" target="_top">
<polygon fill="#ffffff" stroke="transparent" points="8,-65.7 8,-456.7 256,-456.7 256,-65.7 8,-65.7"/>
<polygon fill="#f5f5f5" stroke="transparent" points="8,-433.2 8,-456.2 256,-456.2 256,-433.2 8,-433.2"/>
<polygon fill="none" stroke="#000000" points="8,-433.2 8,-456.2 256,-456.2 256,-433.2 8,-433.2"/>
<text text-anchor="start" x="13" y="-441.8" font-family="Helvetica,sans-Serif" font-weight="bold" font-size="11.00" fill="#000000">patient_data</text>
<text text-anchor="start" x="221.0437" y="-441.3" font-family="Helvetica,sans-Serif" font-size="11.00" fill="#000000">[table]</text>
<polygon fill="none" stroke="#000000" points="8,-411.2 8,-433.2 256,-433.2 256,-411.2 8,-411.2"/>
<image xlink:href="../../images/primaryKeys.png" width="11px" height="12px" preserveAspectRatio="xMinYMin meet" x="13" y="-428.2"/>
<text text-anchor="start" x="28" y="-418.3" font-family="Helvetica,sans-Serif" font-size="11.00" fill="#000000">id</text>
<polygon fill="#ffffff" stroke="transparent" points="8,-389.2 8,-411.2 256,-411.2 256,-389.2 8,-389.2"/>
<polygon fill="none" stroke="#000000" points="8,-389.2 8,-411.2 256,-411.2 256,-389.2 8,-389.2"/>
<text text-anchor="start" x="28" y="-396.3" font-family="Helvetica,sans-Serif" font-size="11.00" fill="#000000">uuid</text>
<polygon fill="#ffffff" stroke="transparent" points="8,-367.2 8,-389.2 256,-389.2 256,-367.2 8,-367.2"/>
<polygon fill="none" stroke="#000000" points="8,-367.2 8,-389.2 256,-389.2 256,-367.2 8,-367.2"/>
<text text-anchor="start" x="28" y="-374.3" font-family="Helvetica,sans-Serif" font-size="11.00" fill="#000000">fname</text>
<polygon fill="#ffffff" stroke="transparent" points="8,-345.2 8,-367.2 256,-367.2 256,-345.2 8,-345.2"/>
<polygon fill="none" stroke="#000000" points="8,-345.2 8,-367.2 256,-367.2 256,-345.2 8,-345.2"/>
<text text-anchor="start" x="28" y="-352.3" font-family="Helvetica,sans-Serif" font-size="11.00" fill="#000000">lname</text>
<polygon fill="#ffffff" stroke="transparent" points="8,-323.2 8,-345.2 256,-345.2 256,-323.2 8,-323.2"/>
<polygon fill="none" stroke="#000000" points="8,-323.2 8,-345.2 256,-345.2 256,-323.2 8,-323.2"/>
<text text-anchor="start" x="28" y="-330.3" font-family="Helvetica,sans-Serif" font-size="11.00" fill="#000000">DOB</text>
<polygon fill="none" stroke="#000000" points="8,-301.2 8,-323.2 256,-323.2 256,-301.2 8,-301.2"/>
<image xlink:href="../../images/foreignKeys.png" width="11px" height="12px" preserveAspectRatio="xMinYMin meet" x="13" y="-318.2"/>
<text text-anchor="start" x="28" y="-308.3" font-family="Helvetica,sans-Serif" font-size="11.00" fill="#000000">pharmacy_id</text>
<polygon fill="none" stroke="#000000" points="8,-279.2 8,-301.2 256,-301.2 256,-279.2 8,-279.2"/>
<image xlink:href="../../images/foreignKeys.png" width="11px" height="12px" preserveAspectRatio="xMinYMin meet" x="13" y="-296.2"/>
<text text-anchor="start" x="28" y="-286.3" font-family="Helvetica,sans-Serif" font-size="11.00" fill="#000000">providerID</text>
<polygon fill="none" stroke="#000000" points="8,-257.2 8,-279.2 256,-279.2 256,-257.2 8,-257.2"/>
<image xlink:href="../../images/foreignKeys.png" width="11px" height="12px" preserveAspectRatio="xMinYMin meet" x="13" y="-274.2"/>
<text text-anchor="start" x="28" y="-264.3" font-family="Helvetica,sans-Serif" font-size="11.00" fill="#000000">ref_providerID</text>
<polygon fill="none" stroke="#000000" points="8,-235.2 8,-257.2 256,-257.2 256,-235.2 8,-235.2"/>
<image xlink:href="../../images/primaryKeys.png" width="11px" height="12px" preserveAspectRatio="xMinYMin meet" x="13" y="-252.2"/>
<text text-anchor="start" x="28" y="-242.3" font-family="Helvetica,sans-Serif" font-size="11.00" fill="#000000">pid</text>
<polygon fill="none" stroke="#000000" points="8,-213.2 8,-235.2 256,-235.2 256,-213.2 8,-213.2"/>
<image xlink:href="../../images/foreignKeys.png" width="11px" height="12px" preserveAspectRatio="xMinYMin meet" x="13" y="-230.2"/>
<text text-anchor="start" x="28" y="-220.3" font-family="Helvetica,sans-Serif" font-size="11.00" fill="#000000">created_by</text>
<polygon fill="none" stroke="#000000" points="8,-191.2 8,-213.2 256,-213.2 256,-191.2 8,-191.2"/>
<image xlink:href="../../images/foreignKeys.png" width="11px" height="12px" preserveAspectRatio="xMinYMin meet" x="13" y="-208.2"/>
<text text-anchor="start" x="28" y="-198.3" font-family="Helvetica,sans-Serif" font-size="11.00" fill="#000000">updated_by</text>
<polygon fill="none" stroke="#000000" points="8,-169.2 8,-191.2 256,-191.2 256,-169.2 8,-169.2"/>
<image xlink:href="../../images/foreignKeys.png" width="11px" height="12px" preserveAspectRatio="xMinYMin meet" x="13" y="-186.2"/>
<text text-anchor="start" x="28" y="-176.3" font-family="Helvetica,sans-Serif" font-size="11.00" fill="#000000">tribal_affiliations</text>
<polygon fill="none" stroke="#000000" points="8,-147.2 8,-169.2 256,-169.2 256,-147.2 8,-147.2"/>
<image xlink:href="../../images/foreignKeys.png" width="11px" height="12px" preserveAspectRatio="xMinYMin meet" x="13" y="-164.2"/>
<text text-anchor="start" x="28" y="-154.3" font-family="Helvetica,sans-Serif" font-size="11.00" fill="#000000">sex_identified</text>
<polygon fill="none" stroke="#000000" points="8,-125.2 8,-147.2 256,-147.2 256,-125.2 8,-125.2"/>
<image xlink:href="../../images/foreignKeys.png" width="11px" height="12px" preserveAspectRatio="xMinYMin meet" x="13" y="-142.2"/>
<text text-anchor="start" x="28" y="-132.3" font-family="Helvetica,sans-Serif" font-size="11.00" fill="#000000">interpreter_needed</text>
<polygon fill="none" stroke="#000000" points="8,-103.2 8,-125.2 256,-125.2 256,-103.2 8,-103.2"/>
<image xlink:href="../../images/foreignKeys.png" width="11px" height="12px" preserveAspectRatio="xMinYMin meet" x="13" y="-120.2"/>
<text text-anchor="start" x="28" y="-110.3" font-family="Helvetica,sans-Serif" font-size="11.00" fill="#000000">advance_directive_user_authenticator</text>
<polygon fill="none" stroke="#000000" points="8,-84.2 8,-103.2 256,-103.2 256,-84.2 8,-84.2"/>
<text text-anchor="start" x="11" y="-90.3" font-family="Helvetica,sans-Serif" font-size="11.00" fill="#000000">...</text>
<polygon fill="#ffffff" stroke="transparent" points="8,-65.2 8,-84.2 123,-84.2 123,-65.2 8,-65.2"/>
<polygon fill="none" stroke="#000000" points="8,-65.2 8,-84.2 123,-84.2 123,-65.2 8,-65.2"/>
<text text-anchor="start" x="11" y="-71.3" font-family="Helvetica,sans-Serif" font-size="11.00" fill="#000000">&lt; 9</text>
<polygon fill="#ffffff" stroke="transparent" points="123,-65.2 123,-84.2 182,-84.2 182,-65.2 123,-65.2"/>
<polygon fill="none" stroke="#000000" points="123,-65.2 123,-84.2 182,-84.2 182,-65.2 123,-65.2"/>
<text text-anchor="start" x="172.8862" y="-71.3" font-family="Helvetica,sans-Serif" font-size="11.00" fill="#000000"> &#160;</text>
<polygon fill="#ffffff" stroke="transparent" points="182,-65.2 182,-84.2 256,-84.2 256,-65.2 182,-65.2"/>
<polygon fill="none" stroke="#000000" points="182,-65.2 182,-84.2 256,-84.2 256,-65.2 182,-65.2"/>
<text text-anchor="start" x="231.2904" y="-71.3" font-family="Helvetica,sans-Serif" font-size="11.00" fill="#000000">97 &gt;</text>
</a>
</g>
</g>
<!-- form_soap&#45;&gt;patient_data -->
<g id="edge1" class="edge">
<title>form_soap:w&#45;&gt;patient_data:e</title>
<path fill="none" stroke="#000000" d="M292.276,-246.2C280.2815,-246.2 272.8229,-246.2 256,-246.2"/>
<polygon fill="#000000" stroke="#000000" points="299,-246.2001 307,-249.8 303,-246.2 307,-246.2 307,-246.2 307,-246.2 303,-246.2 307,-242.6 299,-246.2001 299,-246.2001"/>
<ellipse fill="none" stroke="#000000" cx="295.8" cy="-246.2001" rx="3.2" ry="3.2"/>
</g>
</g>
</svg>
