<?xml version="1.0" encoding="UTF-8" standalone="no"?>
<!DOCTYPE svg PUBLIC "-//W3C//DTD SVG 1.1//EN"
 "http://www.w3.org/Graphics/SVG/1.1/DTD/svg11.dtd">
<!-- Generated by graphviz version 2.40.1 (20161225.0304)
 -->
<!-- Title: oneDegreeRelationshipsDiagram Pages: 1 -->
<svg width="552pt" height="1679pt"
 viewBox="0.00 0.00 552.00 1678.70" xmlns="http://www.w3.org/2000/svg" xmlns:xlink="http://www.w3.org/1999/xlink">
<g id="graph0" class="graph" transform="scale(1 1) rotate(0) translate(4 1674.7)">
<title>oneDegreeRelationshipsDiagram</title>
<polygon fill="#ffffff" stroke="transparent" points="-4,4 -4,-1674.7 548,-1674.7 548,4 -4,4"/>
<text text-anchor="middle" x="72.4936" y="-7.3" font-family="Helvetica,sans-Serif" font-size="11.00" fill="#000000">Generated by SchemaSpy</text>
<!-- form_eye_refraction -->
<g id="node1" class="node">
<title>form_eye_refraction</title>
<g id="a_node1"><a xlink:href="../../tables/form_eye_refraction.html" xlink:title="form_eye_refraction" target="_top">
<polygon fill="#ffffff" stroke="transparent" points="305,-38.2 305,-1514.2 536,-1514.2 536,-38.2 305,-38.2"/>
<polygon fill="#f5f5f5" stroke="transparent" points="307.5,-1489.2 307.5,-1512.2 534.5,-1512.2 534.5,-1489.2 307.5,-1489.2"/>
<polygon fill="none" stroke="#000000" points="307.5,-1489.2 307.5,-1512.2 534.5,-1512.2 534.5,-1489.2 307.5,-1489.2"/>
<text text-anchor="start" x="312.5" y="-1497.8" font-family="Helvetica,sans-Serif" font-weight="bold" font-size="11.00" fill="#000000">form_eye_refraction</text>
<text text-anchor="start" x="499.5437" y="-1497.3" font-family="Helvetica,sans-Serif" font-size="11.00" fill="#000000">[table]</text>
<polygon fill="none" stroke="#000000" points="307.5,-1467.2 307.5,-1489.2 467.5,-1489.2 467.5,-1467.2 307.5,-1467.2"/>
<image xlink:href="../../images/primaryKeys.png" width="11px" height="12px" preserveAspectRatio="xMinYMin meet" x="312.5" y="-1484.2"/>
<text text-anchor="start" x="327.5" y="-1474.3" font-family="Helvetica,sans-Serif" font-size="11.00" fill="#000000">id</text>
<polygon fill="none" stroke="#000000" points="467.5,-1467.2 467.5,-1489.2 534.5,-1489.2 534.5,-1467.2 467.5,-1467.2"/>
<text text-anchor="start" x="470.5" y="-1474.9" font-family="Helvetica,sans-Serif" font-size="11.00" fill="#000000">bigint[19]</text>
<polygon fill="#ffffff" stroke="transparent" points="307.5,-1445.2 307.5,-1467.2 467.5,-1467.2 467.5,-1445.2 307.5,-1445.2"/>
<polygon fill="none" stroke="#000000" points="307.5,-1445.2 307.5,-1467.2 467.5,-1467.2 467.5,-1445.2 307.5,-1445.2"/>
<image xlink:href="../../images/foreignKeys.png" width="11px" height="12px" preserveAspectRatio="xMinYMin meet" x="312.5" y="-1462.2"/>
<text text-anchor="start" x="327.5" y="-1452.3" font-family="Helvetica,sans-Serif" font-size="11.00" fill="#000000">pid</text>
<polygon fill="none" stroke="#000000" points="467.5,-1445.2 467.5,-1467.2 534.5,-1467.2 534.5,-1445.2 467.5,-1445.2"/>
<text text-anchor="start" x="470.5" y="-1452.9" font-family="Helvetica,sans-Serif" font-size="11.00" fill="#000000">bigint[19]</text>
<polygon fill="none" stroke="#000000" points="307.5,-1423.2 307.5,-1445.2 467.5,-1445.2 467.5,-1423.2 307.5,-1423.2"/>
<text text-anchor="start" x="327.5" y="-1430.3" font-family="Helvetica,sans-Serif" font-size="11.00" fill="#000000">MRODSPH</text>
<polygon fill="none" stroke="#000000" points="467.5,-1423.2 467.5,-1445.2 534.5,-1445.2 534.5,-1423.2 467.5,-1423.2"/>
<text text-anchor="start" x="470.5" y="-1430.9" font-family="Helvetica,sans-Serif" font-size="11.00" fill="#000000">varchar[25]</text>
<polygon fill="none" stroke="#000000" points="307.5,-1401.2 307.5,-1423.2 467.5,-1423.2 467.5,-1401.2 307.5,-1401.2"/>
<text text-anchor="start" x="327.5" y="-1408.3" font-family="Helvetica,sans-Serif" font-size="11.00" fill="#000000">MRODCYL</text>
<polygon fill="none" stroke="#000000" points="467.5,-1401.2 467.5,-1423.2 534.5,-1423.2 534.5,-1401.2 467.5,-1401.2"/>
<text text-anchor="start" x="470.5" y="-1408.9" font-family="Helvetica,sans-Serif" font-size="11.00" fill="#000000">varchar[25]</text>
<polygon fill="none" stroke="#000000" points="307.5,-1379.2 307.5,-1401.2 467.5,-1401.2 467.5,-1379.2 307.5,-1379.2"/>
<text text-anchor="start" x="327.5" y="-1386.3" font-family="Helvetica,sans-Serif" font-size="11.00" fill="#000000">MRODAXIS</text>
<polygon fill="none" stroke="#000000" points="467.5,-1379.2 467.5,-1401.2 534.5,-1401.2 534.5,-1379.2 467.5,-1379.2"/>
<text text-anchor="start" x="470.5" y="-1386.9" font-family="Helvetica,sans-Serif" font-size="11.00" fill="#000000">varchar[25]</text>
<polygon fill="none" stroke="#000000" points="307.5,-1357.2 307.5,-1379.2 467.5,-1379.2 467.5,-1357.2 307.5,-1357.2"/>
<text text-anchor="start" x="327.5" y="-1364.3" font-family="Helvetica,sans-Serif" font-size="11.00" fill="#000000">MRODPRISM</text>
<polygon fill="none" stroke="#000000" points="467.5,-1357.2 467.5,-1379.2 534.5,-1379.2 534.5,-1357.2 467.5,-1357.2"/>
<text text-anchor="start" x="470.5" y="-1364.9" font-family="Helvetica,sans-Serif" font-size="11.00" fill="#000000">varchar[25]</text>
<polygon fill="none" stroke="#000000" points="307.5,-1335.2 307.5,-1357.2 467.5,-1357.2 467.5,-1335.2 307.5,-1335.2"/>
<text text-anchor="start" x="327.5" y="-1342.3" font-family="Helvetica,sans-Serif" font-size="11.00" fill="#000000">MRODBASE</text>
<polygon fill="none" stroke="#000000" points="467.5,-1335.2 467.5,-1357.2 534.5,-1357.2 534.5,-1335.2 467.5,-1335.2"/>
<text text-anchor="start" x="470.5" y="-1342.9" font-family="Helvetica,sans-Serif" font-size="11.00" fill="#000000">varchar[25]</text>
<polygon fill="none" stroke="#000000" points="307.5,-1313.2 307.5,-1335.2 467.5,-1335.2 467.5,-1313.2 307.5,-1313.2"/>
<text text-anchor="start" x="327.5" y="-1320.3" font-family="Helvetica,sans-Serif" font-size="11.00" fill="#000000">MRODADD</text>
<polygon fill="none" stroke="#000000" points="467.5,-1313.2 467.5,-1335.2 534.5,-1335.2 534.5,-1313.2 467.5,-1313.2"/>
<text text-anchor="start" x="470.5" y="-1320.9" font-family="Helvetica,sans-Serif" font-size="11.00" fill="#000000">varchar[25]</text>
<polygon fill="none" stroke="#000000" points="307.5,-1291.2 307.5,-1313.2 467.5,-1313.2 467.5,-1291.2 307.5,-1291.2"/>
<text text-anchor="start" x="327.5" y="-1298.3" font-family="Helvetica,sans-Serif" font-size="11.00" fill="#000000">MROSSPH</text>
<polygon fill="none" stroke="#000000" points="467.5,-1291.2 467.5,-1313.2 534.5,-1313.2 534.5,-1291.2 467.5,-1291.2"/>
<text text-anchor="start" x="470.5" y="-1298.9" font-family="Helvetica,sans-Serif" font-size="11.00" fill="#000000">varchar[25]</text>
<polygon fill="none" stroke="#000000" points="307.5,-1269.2 307.5,-1291.2 467.5,-1291.2 467.5,-1269.2 307.5,-1269.2"/>
<text text-anchor="start" x="327.5" y="-1276.3" font-family="Helvetica,sans-Serif" font-size="11.00" fill="#000000">MROSCYL</text>
<polygon fill="none" stroke="#000000" points="467.5,-1269.2 467.5,-1291.2 534.5,-1291.2 534.5,-1269.2 467.5,-1269.2"/>
<text text-anchor="start" x="470.5" y="-1276.9" font-family="Helvetica,sans-Serif" font-size="11.00" fill="#000000">varchar[25]</text>
<polygon fill="none" stroke="#000000" points="307.5,-1247.2 307.5,-1269.2 467.5,-1269.2 467.5,-1247.2 307.5,-1247.2"/>
<text text-anchor="start" x="327.5" y="-1254.3" font-family="Helvetica,sans-Serif" font-size="11.00" fill="#000000">MROSAXIS</text>
<polygon fill="none" stroke="#000000" points="467.5,-1247.2 467.5,-1269.2 534.5,-1269.2 534.5,-1247.2 467.5,-1247.2"/>
<text text-anchor="start" x="470.5" y="-1254.9" font-family="Helvetica,sans-Serif" font-size="11.00" fill="#000000">varchar[25]</text>
<polygon fill="none" stroke="#000000" points="307.5,-1225.2 307.5,-1247.2 467.5,-1247.2 467.5,-1225.2 307.5,-1225.2"/>
<text text-anchor="start" x="327.5" y="-1232.3" font-family="Helvetica,sans-Serif" font-size="11.00" fill="#000000">MROSPRISM</text>
<polygon fill="none" stroke="#000000" points="467.5,-1225.2 467.5,-1247.2 534.5,-1247.2 534.5,-1225.2 467.5,-1225.2"/>
<text text-anchor="start" x="470.5" y="-1232.9" font-family="Helvetica,sans-Serif" font-size="11.00" fill="#000000">varchar[50]</text>
<polygon fill="none" stroke="#000000" points="307.5,-1203.2 307.5,-1225.2 467.5,-1225.2 467.5,-1203.2 307.5,-1203.2"/>
<text text-anchor="start" x="327.5" y="-1210.3" font-family="Helvetica,sans-Serif" font-size="11.00" fill="#000000">MROSBASE</text>
<polygon fill="none" stroke="#000000" points="467.5,-1203.2 467.5,-1225.2 534.5,-1225.2 534.5,-1203.2 467.5,-1203.2"/>
<text text-anchor="start" x="470.5" y="-1210.9" font-family="Helvetica,sans-Serif" font-size="11.00" fill="#000000">varchar[50]</text>
<polygon fill="none" stroke="#000000" points="307.5,-1181.2 307.5,-1203.2 467.5,-1203.2 467.5,-1181.2 307.5,-1181.2"/>
<text text-anchor="start" x="327.5" y="-1188.3" font-family="Helvetica,sans-Serif" font-size="11.00" fill="#000000">MROSADD</text>
<polygon fill="none" stroke="#000000" points="467.5,-1181.2 467.5,-1203.2 534.5,-1203.2 534.5,-1181.2 467.5,-1181.2"/>
<text text-anchor="start" x="470.5" y="-1188.9" font-family="Helvetica,sans-Serif" font-size="11.00" fill="#000000">varchar[25]</text>
<polygon fill="none" stroke="#000000" points="307.5,-1159.2 307.5,-1181.2 467.5,-1181.2 467.5,-1159.2 307.5,-1159.2"/>
<text text-anchor="start" x="327.5" y="-1166.3" font-family="Helvetica,sans-Serif" font-size="11.00" fill="#000000">MRODNEARSPHERE</text>
<polygon fill="none" stroke="#000000" points="467.5,-1159.2 467.5,-1181.2 534.5,-1181.2 534.5,-1159.2 467.5,-1159.2"/>
<text text-anchor="start" x="470.5" y="-1166.9" font-family="Helvetica,sans-Serif" font-size="11.00" fill="#000000">varchar[25]</text>
<polygon fill="none" stroke="#000000" points="307.5,-1137.2 307.5,-1159.2 467.5,-1159.2 467.5,-1137.2 307.5,-1137.2"/>
<text text-anchor="start" x="327.5" y="-1144.3" font-family="Helvetica,sans-Serif" font-size="11.00" fill="#000000">MRODNEARCYL</text>
<polygon fill="none" stroke="#000000" points="467.5,-1137.2 467.5,-1159.2 534.5,-1159.2 534.5,-1137.2 467.5,-1137.2"/>
<text text-anchor="start" x="470.5" y="-1144.9" font-family="Helvetica,sans-Serif" font-size="11.00" fill="#000000">varchar[25]</text>
<polygon fill="none" stroke="#000000" points="307.5,-1115.2 307.5,-1137.2 467.5,-1137.2 467.5,-1115.2 307.5,-1115.2"/>
<text text-anchor="start" x="327.5" y="-1122.3" font-family="Helvetica,sans-Serif" font-size="11.00" fill="#000000">MRODNEARAXIS</text>
<polygon fill="none" stroke="#000000" points="467.5,-1115.2 467.5,-1137.2 534.5,-1137.2 534.5,-1115.2 467.5,-1115.2"/>
<text text-anchor="start" x="470.5" y="-1122.9" font-family="Helvetica,sans-Serif" font-size="11.00" fill="#000000">varchar[25]</text>
<polygon fill="none" stroke="#000000" points="307.5,-1093.2 307.5,-1115.2 467.5,-1115.2 467.5,-1093.2 307.5,-1093.2"/>
<text text-anchor="start" x="327.5" y="-1100.3" font-family="Helvetica,sans-Serif" font-size="11.00" fill="#000000">MRODPRISMNEAR</text>
<polygon fill="none" stroke="#000000" points="467.5,-1093.2 467.5,-1115.2 534.5,-1115.2 534.5,-1093.2 467.5,-1093.2"/>
<text text-anchor="start" x="470.5" y="-1100.9" font-family="Helvetica,sans-Serif" font-size="11.00" fill="#000000">varchar[50]</text>
<polygon fill="none" stroke="#000000" points="307.5,-1071.2 307.5,-1093.2 467.5,-1093.2 467.5,-1071.2 307.5,-1071.2"/>
<text text-anchor="start" x="327.5" y="-1078.3" font-family="Helvetica,sans-Serif" font-size="11.00" fill="#000000">MRODBASENEAR</text>
<polygon fill="none" stroke="#000000" points="467.5,-1071.2 467.5,-1093.2 534.5,-1093.2 534.5,-1071.2 467.5,-1071.2"/>
<text text-anchor="start" x="470.5" y="-1078.9" font-family="Helvetica,sans-Serif" font-size="11.00" fill="#000000">varchar[25]</text>
<polygon fill="none" stroke="#000000" points="307.5,-1049.2 307.5,-1071.2 467.5,-1071.2 467.5,-1049.2 307.5,-1049.2"/>
<text text-anchor="start" x="327.5" y="-1056.3" font-family="Helvetica,sans-Serif" font-size="11.00" fill="#000000">MROSNEARSHPERE</text>
<polygon fill="none" stroke="#000000" points="467.5,-1049.2 467.5,-1071.2 534.5,-1071.2 534.5,-1049.2 467.5,-1049.2"/>
<text text-anchor="start" x="470.5" y="-1056.9" font-family="Helvetica,sans-Serif" font-size="11.00" fill="#000000">varchar[25]</text>
<polygon fill="none" stroke="#000000" points="307.5,-1027.2 307.5,-1049.2 467.5,-1049.2 467.5,-1027.2 307.5,-1027.2"/>
<text text-anchor="start" x="327.5" y="-1034.3" font-family="Helvetica,sans-Serif" font-size="11.00" fill="#000000">MROSNEARCYL</text>
<polygon fill="none" stroke="#000000" points="467.5,-1027.2 467.5,-1049.2 534.5,-1049.2 534.5,-1027.2 467.5,-1027.2"/>
<text text-anchor="start" x="470.5" y="-1034.9" font-family="Helvetica,sans-Serif" font-size="11.00" fill="#000000">varchar[25]</text>
<polygon fill="none" stroke="#000000" points="307.5,-1005.2 307.5,-1027.2 467.5,-1027.2 467.5,-1005.2 307.5,-1005.2"/>
<text text-anchor="start" x="327.5" y="-1012.3" font-family="Helvetica,sans-Serif" font-size="11.00" fill="#000000">MROSNEARAXIS</text>
<polygon fill="none" stroke="#000000" points="467.5,-1005.2 467.5,-1027.2 534.5,-1027.2 534.5,-1005.2 467.5,-1005.2"/>
<text text-anchor="start" x="470.4365" y="-1012.9" font-family="Helvetica,sans-Serif" font-size="11.00" fill="#000000">varchar[125]</text>
<polygon fill="none" stroke="#000000" points="307.5,-983.2 307.5,-1005.2 467.5,-1005.2 467.5,-983.2 307.5,-983.2"/>
<text text-anchor="start" x="327.5" y="-990.3" font-family="Helvetica,sans-Serif" font-size="11.00" fill="#000000">MROSPRISMNEAR</text>
<polygon fill="none" stroke="#000000" points="467.5,-983.2 467.5,-1005.2 534.5,-1005.2 534.5,-983.2 467.5,-983.2"/>
<text text-anchor="start" x="470.5" y="-990.9" font-family="Helvetica,sans-Serif" font-size="11.00" fill="#000000">varchar[50]</text>
<polygon fill="none" stroke="#000000" points="307.5,-961.2 307.5,-983.2 467.5,-983.2 467.5,-961.2 307.5,-961.2"/>
<text text-anchor="start" x="327.5" y="-968.3" font-family="Helvetica,sans-Serif" font-size="11.00" fill="#000000">MROSBASENEAR</text>
<polygon fill="none" stroke="#000000" points="467.5,-961.2 467.5,-983.2 534.5,-983.2 534.5,-961.2 467.5,-961.2"/>
<text text-anchor="start" x="470.5" y="-968.9" font-family="Helvetica,sans-Serif" font-size="11.00" fill="#000000">varchar[25]</text>
<polygon fill="none" stroke="#000000" points="307.5,-939.2 307.5,-961.2 467.5,-961.2 467.5,-939.2 307.5,-939.2"/>
<text text-anchor="start" x="327.5" y="-946.3" font-family="Helvetica,sans-Serif" font-size="11.00" fill="#000000">CRODSPH</text>
<polygon fill="none" stroke="#000000" points="467.5,-939.2 467.5,-961.2 534.5,-961.2 534.5,-939.2 467.5,-939.2"/>
<text text-anchor="start" x="470.5" y="-946.9" font-family="Helvetica,sans-Serif" font-size="11.00" fill="#000000">varchar[25]</text>
<polygon fill="none" stroke="#000000" points="307.5,-917.2 307.5,-939.2 467.5,-939.2 467.5,-917.2 307.5,-917.2"/>
<text text-anchor="start" x="327.5" y="-924.3" font-family="Helvetica,sans-Serif" font-size="11.00" fill="#000000">CRODCYL</text>
<polygon fill="none" stroke="#000000" points="467.5,-917.2 467.5,-939.2 534.5,-939.2 534.5,-917.2 467.5,-917.2"/>
<text text-anchor="start" x="470.5" y="-924.9" font-family="Helvetica,sans-Serif" font-size="11.00" fill="#000000">varchar[25]</text>
<polygon fill="none" stroke="#000000" points="307.5,-895.2 307.5,-917.2 467.5,-917.2 467.5,-895.2 307.5,-895.2"/>
<text text-anchor="start" x="327.5" y="-902.3" font-family="Helvetica,sans-Serif" font-size="11.00" fill="#000000">CRODAXIS</text>
<polygon fill="none" stroke="#000000" points="467.5,-895.2 467.5,-917.2 534.5,-917.2 534.5,-895.2 467.5,-895.2"/>
<text text-anchor="start" x="470.5" y="-902.9" font-family="Helvetica,sans-Serif" font-size="11.00" fill="#000000">varchar[25]</text>
<polygon fill="none" stroke="#000000" points="307.5,-873.2 307.5,-895.2 467.5,-895.2 467.5,-873.2 307.5,-873.2"/>
<text text-anchor="start" x="327.5" y="-880.3" font-family="Helvetica,sans-Serif" font-size="11.00" fill="#000000">CROSSPH</text>
<polygon fill="none" stroke="#000000" points="467.5,-873.2 467.5,-895.2 534.5,-895.2 534.5,-873.2 467.5,-873.2"/>
<text text-anchor="start" x="470.5" y="-880.9" font-family="Helvetica,sans-Serif" font-size="11.00" fill="#000000">varchar[25]</text>
<polygon fill="none" stroke="#000000" points="307.5,-851.2 307.5,-873.2 467.5,-873.2 467.5,-851.2 307.5,-851.2"/>
<text text-anchor="start" x="327.5" y="-858.3" font-family="Helvetica,sans-Serif" font-size="11.00" fill="#000000">CROSCYL</text>
<polygon fill="none" stroke="#000000" points="467.5,-851.2 467.5,-873.2 534.5,-873.2 534.5,-851.2 467.5,-851.2"/>
<text text-anchor="start" x="470.5" y="-858.9" font-family="Helvetica,sans-Serif" font-size="11.00" fill="#000000">varchar[25]</text>
<polygon fill="none" stroke="#000000" points="307.5,-829.2 307.5,-851.2 467.5,-851.2 467.5,-829.2 307.5,-829.2"/>
<text text-anchor="start" x="327.5" y="-836.3" font-family="Helvetica,sans-Serif" font-size="11.00" fill="#000000">CROSAXIS</text>
<polygon fill="none" stroke="#000000" points="467.5,-829.2 467.5,-851.2 534.5,-851.2 534.5,-829.2 467.5,-829.2"/>
<text text-anchor="start" x="470.5" y="-836.9" font-family="Helvetica,sans-Serif" font-size="11.00" fill="#000000">varchar[25]</text>
<polygon fill="none" stroke="#000000" points="307.5,-807.2 307.5,-829.2 467.5,-829.2 467.5,-807.2 307.5,-807.2"/>
<text text-anchor="start" x="327.5" y="-814.3" font-family="Helvetica,sans-Serif" font-size="11.00" fill="#000000">CRCOMMENTS</text>
<polygon fill="none" stroke="#000000" points="467.5,-807.2 467.5,-829.2 534.5,-829.2 534.5,-807.2 467.5,-807.2"/>
<text text-anchor="start" x="470.4365" y="-814.9" font-family="Helvetica,sans-Serif" font-size="11.00" fill="#000000">varchar[255]</text>
<polygon fill="none" stroke="#000000" points="307.5,-785.2 307.5,-807.2 467.5,-807.2 467.5,-785.2 307.5,-785.2"/>
<text text-anchor="start" x="327.5" y="-792.3" font-family="Helvetica,sans-Serif" font-size="11.00" fill="#000000">BALANCED</text>
<polygon fill="none" stroke="#000000" points="467.5,-785.2 467.5,-807.2 534.5,-807.2 534.5,-785.2 467.5,-785.2"/>
<text text-anchor="start" x="470.5" y="-792.9" font-family="Helvetica,sans-Serif" font-size="11.00" fill="#000000">char[2]</text>
<polygon fill="none" stroke="#000000" points="307.5,-763.2 307.5,-785.2 467.5,-785.2 467.5,-763.2 307.5,-763.2"/>
<text text-anchor="start" x="327.5" y="-770.3" font-family="Helvetica,sans-Serif" font-size="11.00" fill="#000000">ARODSPH</text>
<polygon fill="none" stroke="#000000" points="467.5,-763.2 467.5,-785.2 534.5,-785.2 534.5,-763.2 467.5,-763.2"/>
<text text-anchor="start" x="470.5" y="-770.9" font-family="Helvetica,sans-Serif" font-size="11.00" fill="#000000">varchar[25]</text>
<polygon fill="none" stroke="#000000" points="307.5,-741.2 307.5,-763.2 467.5,-763.2 467.5,-741.2 307.5,-741.2"/>
<text text-anchor="start" x="327.5" y="-748.3" font-family="Helvetica,sans-Serif" font-size="11.00" fill="#000000">ARODCYL</text>
<polygon fill="none" stroke="#000000" points="467.5,-741.2 467.5,-763.2 534.5,-763.2 534.5,-741.2 467.5,-741.2"/>
<text text-anchor="start" x="470.5" y="-748.9" font-family="Helvetica,sans-Serif" font-size="11.00" fill="#000000">varchar[25]</text>
<polygon fill="none" stroke="#000000" points="307.5,-719.2 307.5,-741.2 467.5,-741.2 467.5,-719.2 307.5,-719.2"/>
<text text-anchor="start" x="327.5" y="-726.3" font-family="Helvetica,sans-Serif" font-size="11.00" fill="#000000">ARODAXIS</text>
<polygon fill="none" stroke="#000000" points="467.5,-719.2 467.5,-741.2 534.5,-741.2 534.5,-719.2 467.5,-719.2"/>
<text text-anchor="start" x="470.5" y="-726.9" font-family="Helvetica,sans-Serif" font-size="11.00" fill="#000000">varchar[25]</text>
<polygon fill="none" stroke="#000000" points="307.5,-697.2 307.5,-719.2 467.5,-719.2 467.5,-697.2 307.5,-697.2"/>
<text text-anchor="start" x="327.5" y="-704.3" font-family="Helvetica,sans-Serif" font-size="11.00" fill="#000000">AROSSPH</text>
<polygon fill="none" stroke="#000000" points="467.5,-697.2 467.5,-719.2 534.5,-719.2 534.5,-697.2 467.5,-697.2"/>
<text text-anchor="start" x="470.5" y="-704.9" font-family="Helvetica,sans-Serif" font-size="11.00" fill="#000000">varchar[25]</text>
<polygon fill="none" stroke="#000000" points="307.5,-675.2 307.5,-697.2 467.5,-697.2 467.5,-675.2 307.5,-675.2"/>
<text text-anchor="start" x="327.5" y="-682.3" font-family="Helvetica,sans-Serif" font-size="11.00" fill="#000000">AROSCYL</text>
<polygon fill="none" stroke="#000000" points="467.5,-675.2 467.5,-697.2 534.5,-697.2 534.5,-675.2 467.5,-675.2"/>
<text text-anchor="start" x="470.5" y="-682.9" font-family="Helvetica,sans-Serif" font-size="11.00" fill="#000000">varchar[25]</text>
<polygon fill="none" stroke="#000000" points="307.5,-653.2 307.5,-675.2 467.5,-675.2 467.5,-653.2 307.5,-653.2"/>
<text text-anchor="start" x="327.5" y="-660.3" font-family="Helvetica,sans-Serif" font-size="11.00" fill="#000000">AROSAXIS</text>
<polygon fill="none" stroke="#000000" points="467.5,-653.2 467.5,-675.2 534.5,-675.2 534.5,-653.2 467.5,-653.2"/>
<text text-anchor="start" x="470.5" y="-660.9" font-family="Helvetica,sans-Serif" font-size="11.00" fill="#000000">varchar[25]</text>
<polygon fill="none" stroke="#000000" points="307.5,-631.2 307.5,-653.2 467.5,-653.2 467.5,-631.2 307.5,-631.2"/>
<text text-anchor="start" x="327.5" y="-638.3" font-family="Helvetica,sans-Serif" font-size="11.00" fill="#000000">ARODADD</text>
<polygon fill="none" stroke="#000000" points="467.5,-631.2 467.5,-653.2 534.5,-653.2 534.5,-631.2 467.5,-631.2"/>
<text text-anchor="start" x="470.5" y="-638.9" font-family="Helvetica,sans-Serif" font-size="11.00" fill="#000000">varchar[25]</text>
<polygon fill="none" stroke="#000000" points="307.5,-609.2 307.5,-631.2 467.5,-631.2 467.5,-609.2 307.5,-609.2"/>
<text text-anchor="start" x="327.5" y="-616.3" font-family="Helvetica,sans-Serif" font-size="11.00" fill="#000000">AROSADD</text>
<polygon fill="none" stroke="#000000" points="467.5,-609.2 467.5,-631.2 534.5,-631.2 534.5,-609.2 467.5,-609.2"/>
<text text-anchor="start" x="470.5" y="-616.9" font-family="Helvetica,sans-Serif" font-size="11.00" fill="#000000">varchar[25]</text>
<polygon fill="none" stroke="#000000" points="307.5,-587.2 307.5,-609.2 467.5,-609.2 467.5,-587.2 307.5,-587.2"/>
<text text-anchor="start" x="327.5" y="-594.3" font-family="Helvetica,sans-Serif" font-size="11.00" fill="#000000">ARNEARODVA</text>
<polygon fill="none" stroke="#000000" points="467.5,-587.2 467.5,-609.2 534.5,-609.2 534.5,-587.2 467.5,-587.2"/>
<text text-anchor="start" x="470.5" y="-594.9" font-family="Helvetica,sans-Serif" font-size="11.00" fill="#000000">varchar[25]</text>
<polygon fill="none" stroke="#000000" points="307.5,-565.2 307.5,-587.2 467.5,-587.2 467.5,-565.2 307.5,-565.2"/>
<text text-anchor="start" x="327.5" y="-572.3" font-family="Helvetica,sans-Serif" font-size="11.00" fill="#000000">ARNEAROSVA</text>
<polygon fill="none" stroke="#000000" points="467.5,-565.2 467.5,-587.2 534.5,-587.2 534.5,-565.2 467.5,-565.2"/>
<text text-anchor="start" x="470.5" y="-572.9" font-family="Helvetica,sans-Serif" font-size="11.00" fill="#000000">varchar[25]</text>
<polygon fill="none" stroke="#000000" points="307.5,-543.2 307.5,-565.2 467.5,-565.2 467.5,-543.2 307.5,-543.2"/>
<text text-anchor="start" x="327.5" y="-550.3" font-family="Helvetica,sans-Serif" font-size="11.00" fill="#000000">ARODPRISM</text>
<polygon fill="none" stroke="#000000" points="467.5,-543.2 467.5,-565.2 534.5,-565.2 534.5,-543.2 467.5,-543.2"/>
<text text-anchor="start" x="470.5" y="-550.9" font-family="Helvetica,sans-Serif" font-size="11.00" fill="#000000">varchar[50]</text>
<polygon fill="none" stroke="#000000" points="307.5,-521.2 307.5,-543.2 467.5,-543.2 467.5,-521.2 307.5,-521.2"/>
<text text-anchor="start" x="327.5" y="-528.3" font-family="Helvetica,sans-Serif" font-size="11.00" fill="#000000">AROSPRISM</text>
<polygon fill="none" stroke="#000000" points="467.5,-521.2 467.5,-543.2 534.5,-543.2 534.5,-521.2 467.5,-521.2"/>
<text text-anchor="start" x="470.5" y="-528.9" font-family="Helvetica,sans-Serif" font-size="11.00" fill="#000000">varchar[50]</text>
<polygon fill="none" stroke="#000000" points="307.5,-499.2 307.5,-521.2 467.5,-521.2 467.5,-499.2 307.5,-499.2"/>
<text text-anchor="start" x="327.5" y="-506.3" font-family="Helvetica,sans-Serif" font-size="11.00" fill="#000000">CTLODSPH</text>
<polygon fill="none" stroke="#000000" points="467.5,-499.2 467.5,-521.2 534.5,-521.2 534.5,-499.2 467.5,-499.2"/>
<text text-anchor="start" x="470.5" y="-506.9" font-family="Helvetica,sans-Serif" font-size="11.00" fill="#000000">varchar[25]</text>
<polygon fill="none" stroke="#000000" points="307.5,-477.2 307.5,-499.2 467.5,-499.2 467.5,-477.2 307.5,-477.2"/>
<text text-anchor="start" x="327.5" y="-484.3" font-family="Helvetica,sans-Serif" font-size="11.00" fill="#000000">CTLODCYL</text>
<polygon fill="none" stroke="#000000" points="467.5,-477.2 467.5,-499.2 534.5,-499.2 534.5,-477.2 467.5,-477.2"/>
<text text-anchor="start" x="470.5" y="-484.9" font-family="Helvetica,sans-Serif" font-size="11.00" fill="#000000">varchar[25]</text>
<polygon fill="none" stroke="#000000" points="307.5,-455.2 307.5,-477.2 467.5,-477.2 467.5,-455.2 307.5,-455.2"/>
<text text-anchor="start" x="327.5" y="-462.3" font-family="Helvetica,sans-Serif" font-size="11.00" fill="#000000">CTLODAXIS</text>
<polygon fill="none" stroke="#000000" points="467.5,-455.2 467.5,-477.2 534.5,-477.2 534.5,-455.2 467.5,-455.2"/>
<text text-anchor="start" x="470.5" y="-462.9" font-family="Helvetica,sans-Serif" font-size="11.00" fill="#000000">varchar[25]</text>
<polygon fill="none" stroke="#000000" points="307.5,-433.2 307.5,-455.2 467.5,-455.2 467.5,-433.2 307.5,-433.2"/>
<text text-anchor="start" x="327.5" y="-440.3" font-family="Helvetica,sans-Serif" font-size="11.00" fill="#000000">CTLODBC</text>
<polygon fill="none" stroke="#000000" points="467.5,-433.2 467.5,-455.2 534.5,-455.2 534.5,-433.2 467.5,-433.2"/>
<text text-anchor="start" x="470.5" y="-440.9" font-family="Helvetica,sans-Serif" font-size="11.00" fill="#000000">varchar[25]</text>
<polygon fill="none" stroke="#000000" points="307.5,-411.2 307.5,-433.2 467.5,-433.2 467.5,-411.2 307.5,-411.2"/>
<text text-anchor="start" x="327.5" y="-418.3" font-family="Helvetica,sans-Serif" font-size="11.00" fill="#000000">CTLODDIAM</text>
<polygon fill="none" stroke="#000000" points="467.5,-411.2 467.5,-433.2 534.5,-433.2 534.5,-411.2 467.5,-411.2"/>
<text text-anchor="start" x="470.5" y="-418.9" font-family="Helvetica,sans-Serif" font-size="11.00" fill="#000000">varchar[25]</text>
<polygon fill="none" stroke="#000000" points="307.5,-389.2 307.5,-411.2 467.5,-411.2 467.5,-389.2 307.5,-389.2"/>
<text text-anchor="start" x="327.5" y="-396.3" font-family="Helvetica,sans-Serif" font-size="11.00" fill="#000000">CTLOSSPH</text>
<polygon fill="none" stroke="#000000" points="467.5,-389.2 467.5,-411.2 534.5,-411.2 534.5,-389.2 467.5,-389.2"/>
<text text-anchor="start" x="470.5" y="-396.9" font-family="Helvetica,sans-Serif" font-size="11.00" fill="#000000">varchar[25]</text>
<polygon fill="none" stroke="#000000" points="307.5,-367.2 307.5,-389.2 467.5,-389.2 467.5,-367.2 307.5,-367.2"/>
<text text-anchor="start" x="327.5" y="-374.3" font-family="Helvetica,sans-Serif" font-size="11.00" fill="#000000">CTLOSCYL</text>
<polygon fill="none" stroke="#000000" points="467.5,-367.2 467.5,-389.2 534.5,-389.2 534.5,-367.2 467.5,-367.2"/>
<text text-anchor="start" x="470.5" y="-374.9" font-family="Helvetica,sans-Serif" font-size="11.00" fill="#000000">varchar[25]</text>
<polygon fill="none" stroke="#000000" points="307.5,-345.2 307.5,-367.2 467.5,-367.2 467.5,-345.2 307.5,-345.2"/>
<text text-anchor="start" x="327.5" y="-352.3" font-family="Helvetica,sans-Serif" font-size="11.00" fill="#000000">CTLOSAXIS</text>
<polygon fill="none" stroke="#000000" points="467.5,-345.2 467.5,-367.2 534.5,-367.2 534.5,-345.2 467.5,-345.2"/>
<text text-anchor="start" x="470.5" y="-352.9" font-family="Helvetica,sans-Serif" font-size="11.00" fill="#000000">varchar[25]</text>
<polygon fill="none" stroke="#000000" points="307.5,-323.2 307.5,-345.2 467.5,-345.2 467.5,-323.2 307.5,-323.2"/>
<text text-anchor="start" x="327.5" y="-330.3" font-family="Helvetica,sans-Serif" font-size="11.00" fill="#000000">CTLOSBC</text>
<polygon fill="none" stroke="#000000" points="467.5,-323.2 467.5,-345.2 534.5,-345.2 534.5,-323.2 467.5,-323.2"/>
<text text-anchor="start" x="470.5" y="-330.9" font-family="Helvetica,sans-Serif" font-size="11.00" fill="#000000">varchar[25]</text>
<polygon fill="none" stroke="#000000" points="307.5,-301.2 307.5,-323.2 467.5,-323.2 467.5,-301.2 307.5,-301.2"/>
<text text-anchor="start" x="327.5" y="-308.3" font-family="Helvetica,sans-Serif" font-size="11.00" fill="#000000">CTLOSDIAM</text>
<polygon fill="none" stroke="#000000" points="467.5,-301.2 467.5,-323.2 534.5,-323.2 534.5,-301.2 467.5,-301.2"/>
<text text-anchor="start" x="470.5" y="-308.9" font-family="Helvetica,sans-Serif" font-size="11.00" fill="#000000">varchar[25]</text>
<polygon fill="none" stroke="#000000" points="307.5,-279.2 307.5,-301.2 467.5,-301.2 467.5,-279.2 307.5,-279.2"/>
<text text-anchor="start" x="327.5" y="-286.3" font-family="Helvetica,sans-Serif" font-size="11.00" fill="#000000">CTL_COMMENTS</text>
<polygon fill="none" stroke="#000000" points="467.5,-279.2 467.5,-301.2 534.5,-301.2 534.5,-279.2 467.5,-279.2"/>
<text text-anchor="start" x="470.5" y="-286.9" font-family="Helvetica,sans-Serif" font-size="11.00" fill="#000000">text[65535]</text>
<polygon fill="none" stroke="#000000" points="307.5,-257.2 307.5,-279.2 467.5,-279.2 467.5,-257.2 307.5,-257.2"/>
<text text-anchor="start" x="327.5" y="-264.3" font-family="Helvetica,sans-Serif" font-size="11.00" fill="#000000">CTLMANUFACTUREROD</text>
<polygon fill="none" stroke="#000000" points="467.5,-257.2 467.5,-279.2 534.5,-279.2 534.5,-257.2 467.5,-257.2"/>
<text text-anchor="start" x="470.5" y="-264.9" font-family="Helvetica,sans-Serif" font-size="11.00" fill="#000000">varchar[50]</text>
<polygon fill="none" stroke="#000000" points="307.5,-235.2 307.5,-257.2 467.5,-257.2 467.5,-235.2 307.5,-235.2"/>
<text text-anchor="start" x="327.5" y="-242.3" font-family="Helvetica,sans-Serif" font-size="11.00" fill="#000000">CTLSUPPLIEROD</text>
<polygon fill="none" stroke="#000000" points="467.5,-235.2 467.5,-257.2 534.5,-257.2 534.5,-235.2 467.5,-235.2"/>
<text text-anchor="start" x="470.5" y="-242.9" font-family="Helvetica,sans-Serif" font-size="11.00" fill="#000000">varchar[50]</text>
<polygon fill="none" stroke="#000000" points="307.5,-213.2 307.5,-235.2 467.5,-235.2 467.5,-213.2 307.5,-213.2"/>
<text text-anchor="start" x="327.5" y="-220.3" font-family="Helvetica,sans-Serif" font-size="11.00" fill="#000000">CTLBRANDOD</text>
<polygon fill="none" stroke="#000000" points="467.5,-213.2 467.5,-235.2 534.5,-235.2 534.5,-213.2 467.5,-213.2"/>
<text text-anchor="start" x="470.5" y="-220.9" font-family="Helvetica,sans-Serif" font-size="11.00" fill="#000000">varchar[50]</text>
<polygon fill="none" stroke="#000000" points="307.5,-191.2 307.5,-213.2 467.5,-213.2 467.5,-191.2 307.5,-191.2"/>
<text text-anchor="start" x="327.5" y="-198.3" font-family="Helvetica,sans-Serif" font-size="11.00" fill="#000000">CTLMANUFACTUREROS</text>
<polygon fill="none" stroke="#000000" points="467.5,-191.2 467.5,-213.2 534.5,-213.2 534.5,-191.2 467.5,-191.2"/>
<text text-anchor="start" x="470.5" y="-198.9" font-family="Helvetica,sans-Serif" font-size="11.00" fill="#000000">varchar[50]</text>
<polygon fill="none" stroke="#000000" points="307.5,-169.2 307.5,-191.2 467.5,-191.2 467.5,-169.2 307.5,-169.2"/>
<text text-anchor="start" x="327.5" y="-176.3" font-family="Helvetica,sans-Serif" font-size="11.00" fill="#000000">CTLSUPPLIEROS</text>
<polygon fill="none" stroke="#000000" points="467.5,-169.2 467.5,-191.2 534.5,-191.2 534.5,-169.2 467.5,-169.2"/>
<text text-anchor="start" x="470.5" y="-176.9" font-family="Helvetica,sans-Serif" font-size="11.00" fill="#000000">varchar[50]</text>
<polygon fill="none" stroke="#000000" points="307.5,-147.2 307.5,-169.2 467.5,-169.2 467.5,-147.2 307.5,-147.2"/>
<text text-anchor="start" x="327.5" y="-154.3" font-family="Helvetica,sans-Serif" font-size="11.00" fill="#000000">CTLBRANDOS</text>
<polygon fill="none" stroke="#000000" points="467.5,-147.2 467.5,-169.2 534.5,-169.2 534.5,-147.2 467.5,-147.2"/>
<text text-anchor="start" x="470.5" y="-154.9" font-family="Helvetica,sans-Serif" font-size="11.00" fill="#000000">varchar[50]</text>
<polygon fill="none" stroke="#000000" points="307.5,-125.2 307.5,-147.2 467.5,-147.2 467.5,-125.2 307.5,-125.2"/>
<text text-anchor="start" x="327.5" y="-132.3" font-family="Helvetica,sans-Serif" font-size="11.00" fill="#000000">CTLODADD</text>
<polygon fill="none" stroke="#000000" points="467.5,-125.2 467.5,-147.2 534.5,-147.2 534.5,-125.2 467.5,-125.2"/>
<text text-anchor="start" x="470.5" y="-132.9" font-family="Helvetica,sans-Serif" font-size="11.00" fill="#000000">varchar[25]</text>
<polygon fill="none" stroke="#000000" points="307.5,-103.2 307.5,-125.2 467.5,-125.2 467.5,-103.2 307.5,-103.2"/>
<text text-anchor="start" x="327.5" y="-110.3" font-family="Helvetica,sans-Serif" font-size="11.00" fill="#000000">CTLOSADD</text>
<polygon fill="none" stroke="#000000" points="467.5,-103.2 467.5,-125.2 534.5,-125.2 534.5,-103.2 467.5,-103.2"/>
<text text-anchor="start" x="470.5" y="-110.9" font-family="Helvetica,sans-Serif" font-size="11.00" fill="#000000">varchar[25]</text>
<polygon fill="none" stroke="#000000" points="307.5,-81.2 307.5,-103.2 467.5,-103.2 467.5,-81.2 307.5,-81.2"/>
<text text-anchor="start" x="327.5" y="-88.3" font-family="Helvetica,sans-Serif" font-size="11.00" fill="#000000">NVOCHECKED</text>
<polygon fill="none" stroke="#000000" points="467.5,-81.2 467.5,-103.2 534.5,-103.2 534.5,-81.2 467.5,-81.2"/>
<text text-anchor="start" x="470.5" y="-88.9" font-family="Helvetica,sans-Serif" font-size="11.00" fill="#000000">varchar[25]</text>
<polygon fill="none" stroke="#000000" points="307.5,-59.2 307.5,-81.2 467.5,-81.2 467.5,-59.2 307.5,-59.2"/>
<text text-anchor="start" x="327.5" y="-66.3" font-family="Helvetica,sans-Serif" font-size="11.00" fill="#000000">ADDCHECKED</text>
<polygon fill="none" stroke="#000000" points="467.5,-59.2 467.5,-81.2 534.5,-81.2 534.5,-59.2 467.5,-59.2"/>
<text text-anchor="start" x="470.5" y="-66.9" font-family="Helvetica,sans-Serif" font-size="11.00" fill="#000000">varchar[25]</text>
<polygon fill="#ffffff" stroke="transparent" points="307.5,-40.2 307.5,-59.2 391.5,-59.2 391.5,-40.2 307.5,-40.2"/>
<polygon fill="none" stroke="#000000" points="307.5,-40.2 307.5,-59.2 391.5,-59.2 391.5,-40.2 307.5,-40.2"/>
<text text-anchor="start" x="310.5" y="-46.3" font-family="Helvetica,sans-Serif" font-size="11.00" fill="#000000">&lt; 1</text>
<polygon fill="#ffffff" stroke="transparent" points="391.5,-40.2 391.5,-59.2 467.5,-59.2 467.5,-40.2 391.5,-40.2"/>
<polygon fill="none" stroke="#000000" points="391.5,-40.2 391.5,-59.2 467.5,-59.2 467.5,-40.2 391.5,-40.2"/>
<text text-anchor="start" x="458.3862" y="-46.3" font-family="Helvetica,sans-Serif" font-size="11.00" fill="#000000"> &#160;</text>
<polygon fill="#ffffff" stroke="transparent" points="467.5,-40.2 467.5,-59.2 534.5,-59.2 534.5,-40.2 467.5,-40.2"/>
<polygon fill="none" stroke="#000000" points="467.5,-40.2 467.5,-59.2 534.5,-59.2 534.5,-40.2 467.5,-40.2"/>
<text text-anchor="start" x="515.9053" y="-46.3" font-family="Helvetica,sans-Serif" font-size="11.00" fill="#000000">0 &gt;</text>
<polygon fill="none" stroke="#000000" stroke-width="2" points="306,-39.2 306,-1513.2 535,-1513.2 535,-39.2 306,-39.2"/>
</a>
</g>
</g>
<!-- patient_data -->
<g id="node2" class="node">
<title>patient_data</title>
<g id="a_node2"><a xlink:href="../../tables/patient_data.html" xlink:title="patient_data" target="_top">
<polygon fill="#ffffff" stroke="transparent" points="8,-1275.7 8,-1666.7 256,-1666.7 256,-1275.7 8,-1275.7"/>
<polygon fill="#f5f5f5" stroke="transparent" points="8,-1643.2 8,-1666.2 256,-1666.2 256,-1643.2 8,-1643.2"/>
<polygon fill="none" stroke="#000000" points="8,-1643.2 8,-1666.2 256,-1666.2 256,-1643.2 8,-1643.2"/>
<text text-anchor="start" x="13" y="-1651.8" font-family="Helvetica,sans-Serif" font-weight="bold" font-size="11.00" fill="#000000">patient_data</text>
<text text-anchor="start" x="221.0437" y="-1651.3" font-family="Helvetica,sans-Serif" font-size="11.00" fill="#000000">[table]</text>
<polygon fill="none" stroke="#000000" points="8,-1621.2 8,-1643.2 256,-1643.2 256,-1621.2 8,-1621.2"/>
<image xlink:href="../../images/primaryKeys.png" width="11px" height="12px" preserveAspectRatio="xMinYMin meet" x="13" y="-1638.2"/>
<text text-anchor="start" x="28" y="-1628.3" font-family="Helvetica,sans-Serif" font-size="11.00" fill="#000000">id</text>
<polygon fill="#ffffff" stroke="transparent" points="8,-1599.2 8,-1621.2 256,-1621.2 256,-1599.2 8,-1599.2"/>
<polygon fill="none" stroke="#000000" points="8,-1599.2 8,-1621.2 256,-1621.2 256,-1599.2 8,-1599.2"/>
<text text-anchor="start" x="28" y="-1606.3" font-family="Helvetica,sans-Serif" font-size="11.00" fill="#000000">uuid</text>
<polygon fill="#ffffff" stroke="transparent" points="8,-1577.2 8,-1599.2 256,-1599.2 256,-1577.2 8,-1577.2"/>
<polygon fill="none" stroke="#000000" points="8,-1577.2 8,-1599.2 256,-1599.2 256,-1577.2 8,-1577.2"/>
<text text-anchor="start" x="28" y="-1584.3" font-family="Helvetica,sans-Serif" font-size="11.00" fill="#000000">fname</text>
<polygon fill="#ffffff" stroke="transparent" points="8,-1555.2 8,-1577.2 256,-1577.2 256,-1555.2 8,-1555.2"/>
<polygon fill="none" stroke="#000000" points="8,-1555.2 8,-1577.2 256,-1577.2 256,-1555.2 8,-1555.2"/>
<text text-anchor="start" x="28" y="-1562.3" font-family="Helvetica,sans-Serif" font-size="11.00" fill="#000000">lname</text>
<polygon fill="#ffffff" stroke="transparent" points="8,-1533.2 8,-1555.2 256,-1555.2 256,-1533.2 8,-1533.2"/>
<polygon fill="none" stroke="#000000" points="8,-1533.2 8,-1555.2 256,-1555.2 256,-1533.2 8,-1533.2"/>
<text text-anchor="start" x="28" y="-1540.3" font-family="Helvetica,sans-Serif" font-size="11.00" fill="#000000">DOB</text>
<polygon fill="none" stroke="#000000" points="8,-1511.2 8,-1533.2 256,-1533.2 256,-1511.2 8,-1511.2"/>
<image xlink:href="../../images/foreignKeys.png" width="11px" height="12px" preserveAspectRatio="xMinYMin meet" x="13" y="-1528.2"/>
<text text-anchor="start" x="28" y="-1518.3" font-family="Helvetica,sans-Serif" font-size="11.00" fill="#000000">pharmacy_id</text>
<polygon fill="none" stroke="#000000" points="8,-1489.2 8,-1511.2 256,-1511.2 256,-1489.2 8,-1489.2"/>
<image xlink:href="../../images/foreignKeys.png" width="11px" height="12px" preserveAspectRatio="xMinYMin meet" x="13" y="-1506.2"/>
<text text-anchor="start" x="28" y="-1496.3" font-family="Helvetica,sans-Serif" font-size="11.00" fill="#000000">providerID</text>
<polygon fill="none" stroke="#000000" points="8,-1467.2 8,-1489.2 256,-1489.2 256,-1467.2 8,-1467.2"/>
<image xlink:href="../../images/foreignKeys.png" width="11px" height="12px" preserveAspectRatio="xMinYMin meet" x="13" y="-1484.2"/>
<text text-anchor="start" x="28" y="-1474.3" font-family="Helvetica,sans-Serif" font-size="11.00" fill="#000000">ref_providerID</text>
<polygon fill="none" stroke="#000000" points="8,-1445.2 8,-1467.2 256,-1467.2 256,-1445.2 8,-1445.2"/>
<image xlink:href="../../images/primaryKeys.png" width="11px" height="12px" preserveAspectRatio="xMinYMin meet" x="13" y="-1462.2"/>
<text text-anchor="start" x="28" y="-1452.3" font-family="Helvetica,sans-Serif" font-size="11.00" fill="#000000">pid</text>
<polygon fill="none" stroke="#000000" points="8,-1423.2 8,-1445.2 256,-1445.2 256,-1423.2 8,-1423.2"/>
<image xlink:href="../../images/foreignKeys.png" width="11px" height="12px" preserveAspectRatio="xMinYMin meet" x="13" y="-1440.2"/>
<text text-anchor="start" x="28" y="-1430.3" font-family="Helvetica,sans-Serif" font-size="11.00" fill="#000000">created_by</text>
<polygon fill="none" stroke="#000000" points="8,-1401.2 8,-1423.2 256,-1423.2 256,-1401.2 8,-1401.2"/>
<image xlink:href="../../images/foreignKeys.png" width="11px" height="12px" preserveAspectRatio="xMinYMin meet" x="13" y="-1418.2"/>
<text text-anchor="start" x="28" y="-1408.3" font-family="Helvetica,sans-Serif" font-size="11.00" fill="#000000">updated_by</text>
<polygon fill="none" stroke="#000000" points="8,-1379.2 8,-1401.2 256,-1401.2 256,-1379.2 8,-1379.2"/>
<image xlink:href="../../images/foreignKeys.png" width="11px" height="12px" preserveAspectRatio="xMinYMin meet" x="13" y="-1396.2"/>
<text text-anchor="start" x="28" y="-1386.3" font-family="Helvetica,sans-Serif" font-size="11.00" fill="#000000">tribal_affiliations</text>
<polygon fill="none" stroke="#000000" points="8,-1357.2 8,-1379.2 256,-1379.2 256,-1357.2 8,-1357.2"/>
<image xlink:href="../../images/foreignKeys.png" width="11px" height="12px" preserveAspectRatio="xMinYMin meet" x="13" y="-1374.2"/>
<text text-anchor="start" x="28" y="-1364.3" font-family="Helvetica,sans-Serif" font-size="11.00" fill="#000000">sex_identified</text>
<polygon fill="none" stroke="#000000" points="8,-1335.2 8,-1357.2 256,-1357.2 256,-1335.2 8,-1335.2"/>
<image xlink:href="../../images/foreignKeys.png" width="11px" height="12px" preserveAspectRatio="xMinYMin meet" x="13" y="-1352.2"/>
<text text-anchor="start" x="28" y="-1342.3" font-family="Helvetica,sans-Serif" font-size="11.00" fill="#000000">interpreter_needed</text>
<polygon fill="none" stroke="#000000" points="8,-1313.2 8,-1335.2 256,-1335.2 256,-1313.2 8,-1313.2"/>
<image xlink:href="../../images/foreignKeys.png" width="11px" height="12px" preserveAspectRatio="xMinYMin meet" x="13" y="-1330.2"/>
<text text-anchor="start" x="28" y="-1320.3" font-family="Helvetica,sans-Serif" font-size="11.00" fill="#000000">advance_directive_user_authenticator</text>
<polygon fill="none" stroke="#000000" points="8,-1294.2 8,-1313.2 256,-1313.2 256,-1294.2 8,-1294.2"/>
<text text-anchor="start" x="11" y="-1300.3" font-family="Helvetica,sans-Serif" font-size="11.00" fill="#000000">...</text>
<polygon fill="#ffffff" stroke="transparent" points="8,-1275.2 8,-1294.2 123,-1294.2 123,-1275.2 8,-1275.2"/>
<polygon fill="none" stroke="#000000" points="8,-1275.2 8,-1294.2 123,-1294.2 123,-1275.2 8,-1275.2"/>
<text text-anchor="start" x="11" y="-1281.3" font-family="Helvetica,sans-Serif" font-size="11.00" fill="#000000">&lt; 9</text>
<polygon fill="#ffffff" stroke="transparent" points="123,-1275.2 123,-1294.2 182,-1294.2 182,-1275.2 123,-1275.2"/>
<polygon fill="none" stroke="#000000" points="123,-1275.2 123,-1294.2 182,-1294.2 182,-1275.2 123,-1275.2"/>
<text text-anchor="start" x="172.8862" y="-1281.3" font-family="Helvetica,sans-Serif" font-size="11.00" fill="#000000"> &#160;</text>
<polygon fill="#ffffff" stroke="transparent" points="182,-1275.2 182,-1294.2 256,-1294.2 256,-1275.2 182,-1275.2"/>
<polygon fill="none" stroke="#000000" points="182,-1275.2 182,-1294.2 256,-1294.2 256,-1275.2 182,-1275.2"/>
<text text-anchor="start" x="231.2904" y="-1281.3" font-family="Helvetica,sans-Serif" font-size="11.00" fill="#000000">97 &gt;</text>
</a>
</g>
</g>
<!-- form_eye_refraction&#45;&gt;patient_data -->
<g id="edge1" class="edge">
<title>form_eye_refraction:w&#45;&gt;patient_data:e</title>
<path fill="none" stroke="#000000" d="M293.0156,-1456.2C280.6771,-1456.2 273.1667,-1456.2 256,-1456.2"/>
<polygon fill="#000000" stroke="#000000" points="299.5,-1456.2001 307.5,-1459.8 303.5,-1456.2 307.5,-1456.2 307.5,-1456.2 307.5,-1456.2 303.5,-1456.2 307.5,-1452.6 299.5,-1456.2001 299.5,-1456.2001"/>
<ellipse fill="none" stroke="#000000" cx="296.3" cy="-1456.2001" rx="3.2" ry="3.2"/>
</g>
</g>
</svg>
