<?xml version="1.0" encoding="UTF-8" standalone="no"?>
<!DOCTYPE svg PUBLIC "-//W3C//DTD SVG 1.1//EN"
 "http://www.w3.org/Graphics/SVG/1.1/DTD/svg11.dtd">
<!-- Generated by graphviz version 2.40.1 (20161225.0304)
 -->
<!-- Title: oneDegreeRelationshipsDiagram Pages: 1 -->
<svg width="994pt" height="850pt"
 viewBox="0.00 0.00 994.00 849.70" xmlns="http://www.w3.org/2000/svg" xmlns:xlink="http://www.w3.org/1999/xlink">
<g id="graph0" class="graph" transform="scale(1 1) rotate(0) translate(4 845.7)">
<title>oneDegreeRelationshipsDiagram</title>
<polygon fill="#ffffff" stroke="transparent" points="-4,4 -4,-845.7 990,-845.7 990,4 -4,4"/>
<text text-anchor="middle" x="72.4936" y="-7.3" font-family="Helvetica,sans-Serif" font-size="11.00" fill="#000000">Generated by SchemaSpy</text>
<!-- form_vitals -->
<g id="node1" class="node">
<title>form_vitals</title>
<g id="a_node1"><a xlink:href="../../tables/form_vitals.html" xlink:title="form_vitals" target="_top">
<polygon fill="#ffffff" stroke="transparent" points="440,-38.2 440,-700.2 741,-700.2 741,-38.2 440,-38.2"/>
<polygon fill="#f5f5f5" stroke="transparent" points="442.5,-675.2 442.5,-698.2 739.5,-698.2 739.5,-675.2 442.5,-675.2"/>
<polygon fill="none" stroke="#000000" points="442.5,-675.2 442.5,-698.2 739.5,-698.2 739.5,-675.2 442.5,-675.2"/>
<text text-anchor="start" x="447.5" y="-683.8" font-family="Helvetica,sans-Serif" font-weight="bold" font-size="11.00" fill="#000000">form_vitals</text>
<text text-anchor="start" x="704.5437" y="-683.3" font-family="Helvetica,sans-Serif" font-size="11.00" fill="#000000">[table]</text>
<polygon fill="none" stroke="#000000" points="442.5,-653.2 442.5,-675.2 668.5,-675.2 668.5,-653.2 442.5,-653.2"/>
<image xlink:href="../../images/primaryKeys.png" width="11px" height="12px" preserveAspectRatio="xMinYMin meet" x="447.5" y="-670.2"/>
<text text-anchor="start" x="462.5" y="-660.3" font-family="Helvetica,sans-Serif" font-size="11.00" fill="#000000">id</text>
<polygon fill="none" stroke="#000000" points="668.5,-653.2 668.5,-675.2 739.5,-675.2 739.5,-653.2 668.5,-653.2"/>
<text text-anchor="start" x="671.5" y="-660.9" font-family="Helvetica,sans-Serif" font-size="11.00" fill="#000000">bigint[19]</text>
<polygon fill="#ffffff" stroke="transparent" points="442.5,-631.2 442.5,-653.2 668.5,-653.2 668.5,-631.2 442.5,-631.2"/>
<polygon fill="none" stroke="#000000" points="442.5,-631.2 442.5,-653.2 668.5,-653.2 668.5,-631.2 442.5,-631.2"/>
<text text-anchor="start" x="462.5" y="-638.3" font-family="Helvetica,sans-Serif" font-size="11.00" fill="#000000">uuid</text>
<polygon fill="none" stroke="#000000" points="668.5,-631.2 668.5,-653.2 739.5,-653.2 739.5,-631.2 668.5,-631.2"/>
<text text-anchor="start" x="671.5" y="-638.9" font-family="Helvetica,sans-Serif" font-size="11.00" fill="#000000">binary[16]</text>
<polygon fill="none" stroke="#000000" points="442.5,-609.2 442.5,-631.2 668.5,-631.2 668.5,-609.2 442.5,-609.2"/>
<text text-anchor="start" x="462.5" y="-616.3" font-family="Helvetica,sans-Serif" font-size="11.00" fill="#000000">date</text>
<polygon fill="none" stroke="#000000" points="668.5,-609.2 668.5,-631.2 739.5,-631.2 739.5,-609.2 668.5,-609.2"/>
<text text-anchor="start" x="671.5" y="-616.9" font-family="Helvetica,sans-Serif" font-size="11.00" fill="#000000">datetime[19]</text>
<polygon fill="#ffffff" stroke="transparent" points="442.5,-587.2 442.5,-609.2 668.5,-609.2 668.5,-587.2 442.5,-587.2"/>
<polygon fill="none" stroke="#000000" points="442.5,-587.2 442.5,-609.2 668.5,-609.2 668.5,-587.2 442.5,-587.2"/>
<image xlink:href="../../images/foreignKeys.png" width="11px" height="12px" preserveAspectRatio="xMinYMin meet" x="447.5" y="-604.2"/>
<text text-anchor="start" x="462.5" y="-594.3" font-family="Helvetica,sans-Serif" font-size="11.00" fill="#000000">pid</text>
<polygon fill="none" stroke="#000000" points="668.5,-587.2 668.5,-609.2 739.5,-609.2 739.5,-587.2 668.5,-587.2"/>
<text text-anchor="start" x="671.5" y="-594.9" font-family="Helvetica,sans-Serif" font-size="11.00" fill="#000000">bigint[19]</text>
<polygon fill="none" stroke="#000000" points="442.5,-565.2 442.5,-587.2 668.5,-587.2 668.5,-565.2 442.5,-565.2"/>
<image xlink:href="../../images/foreignKeys.png" width="11px" height="12px" preserveAspectRatio="xMinYMin meet" x="447.5" y="-582.2"/>
<text text-anchor="start" x="462.5" y="-572.3" font-family="Helvetica,sans-Serif" font-size="11.00" fill="#000000">user</text>
<polygon fill="none" stroke="#000000" points="668.5,-565.2 668.5,-587.2 739.5,-587.2 739.5,-565.2 668.5,-565.2"/>
<text text-anchor="start" x="671.5" y="-572.9" font-family="Helvetica,sans-Serif" font-size="11.00" fill="#000000">varchar[255]</text>
<polygon fill="none" stroke="#000000" points="442.5,-543.2 442.5,-565.2 668.5,-565.2 668.5,-543.2 442.5,-543.2"/>
<image xlink:href="../../images/foreignKeys.png" width="11px" height="12px" preserveAspectRatio="xMinYMin meet" x="447.5" y="-560.2"/>
<text text-anchor="start" x="462.5" y="-550.3" font-family="Helvetica,sans-Serif" font-size="11.00" fill="#000000">groupname</text>
<polygon fill="none" stroke="#000000" points="668.5,-543.2 668.5,-565.2 739.5,-565.2 739.5,-543.2 668.5,-543.2"/>
<text text-anchor="start" x="671.5" y="-550.9" font-family="Helvetica,sans-Serif" font-size="11.00" fill="#000000">varchar[255]</text>
<polygon fill="none" stroke="#000000" points="442.5,-521.2 442.5,-543.2 668.5,-543.2 668.5,-521.2 442.5,-521.2"/>
<text text-anchor="start" x="462.5" y="-528.3" font-family="Helvetica,sans-Serif" font-size="11.00" fill="#000000">authorized</text>
<polygon fill="none" stroke="#000000" points="668.5,-521.2 668.5,-543.2 739.5,-543.2 739.5,-521.2 668.5,-521.2"/>
<text text-anchor="start" x="671.5" y="-528.9" font-family="Helvetica,sans-Serif" font-size="11.00" fill="#000000">tinyint[3]</text>
<polygon fill="none" stroke="#000000" points="442.5,-499.2 442.5,-521.2 668.5,-521.2 668.5,-499.2 442.5,-499.2"/>
<text text-anchor="start" x="462.5" y="-506.3" font-family="Helvetica,sans-Serif" font-size="11.00" fill="#000000">activity</text>
<polygon fill="none" stroke="#000000" points="668.5,-499.2 668.5,-521.2 739.5,-521.2 739.5,-499.2 668.5,-499.2"/>
<text text-anchor="start" x="671.5" y="-506.9" font-family="Helvetica,sans-Serif" font-size="11.00" fill="#000000">tinyint[3]</text>
<polygon fill="none" stroke="#000000" points="442.5,-477.2 442.5,-499.2 668.5,-499.2 668.5,-477.2 442.5,-477.2"/>
<text text-anchor="start" x="462.5" y="-484.3" font-family="Helvetica,sans-Serif" font-size="11.00" fill="#000000">bps</text>
<polygon fill="none" stroke="#000000" points="668.5,-477.2 668.5,-499.2 739.5,-499.2 739.5,-477.2 668.5,-477.2"/>
<text text-anchor="start" x="671.5" y="-484.9" font-family="Helvetica,sans-Serif" font-size="11.00" fill="#000000">varchar[40]</text>
<polygon fill="none" stroke="#000000" points="442.5,-455.2 442.5,-477.2 668.5,-477.2 668.5,-455.2 442.5,-455.2"/>
<text text-anchor="start" x="462.5" y="-462.3" font-family="Helvetica,sans-Serif" font-size="11.00" fill="#000000">bpd</text>
<polygon fill="none" stroke="#000000" points="668.5,-455.2 668.5,-477.2 739.5,-477.2 739.5,-455.2 668.5,-455.2"/>
<text text-anchor="start" x="671.5" y="-462.9" font-family="Helvetica,sans-Serif" font-size="11.00" fill="#000000">varchar[40]</text>
<polygon fill="none" stroke="#000000" points="442.5,-433.2 442.5,-455.2 668.5,-455.2 668.5,-433.2 442.5,-433.2"/>
<text text-anchor="start" x="462.5" y="-440.3" font-family="Helvetica,sans-Serif" font-size="11.00" fill="#000000">weight</text>
<polygon fill="none" stroke="#000000" points="668.5,-433.2 668.5,-455.2 739.5,-455.2 739.5,-433.2 668.5,-433.2"/>
<text text-anchor="start" x="671.2981" y="-440.9" font-family="Helvetica,sans-Serif" font-size="11.00" fill="#000000">decimal[12,6]</text>
<polygon fill="none" stroke="#000000" points="442.5,-411.2 442.5,-433.2 668.5,-433.2 668.5,-411.2 442.5,-411.2"/>
<text text-anchor="start" x="462.5" y="-418.3" font-family="Helvetica,sans-Serif" font-size="11.00" fill="#000000">height</text>
<polygon fill="none" stroke="#000000" points="668.5,-411.2 668.5,-433.2 739.5,-433.2 739.5,-411.2 668.5,-411.2"/>
<text text-anchor="start" x="671.2981" y="-418.9" font-family="Helvetica,sans-Serif" font-size="11.00" fill="#000000">decimal[12,6]</text>
<polygon fill="none" stroke="#000000" points="442.5,-389.2 442.5,-411.2 668.5,-411.2 668.5,-389.2 442.5,-389.2"/>
<text text-anchor="start" x="462.5" y="-396.3" font-family="Helvetica,sans-Serif" font-size="11.00" fill="#000000">temperature</text>
<polygon fill="none" stroke="#000000" points="668.5,-389.2 668.5,-411.2 739.5,-411.2 739.5,-389.2 668.5,-389.2"/>
<text text-anchor="start" x="671.2981" y="-396.9" font-family="Helvetica,sans-Serif" font-size="11.00" fill="#000000">decimal[12,6]</text>
<polygon fill="none" stroke="#000000" points="442.5,-367.2 442.5,-389.2 668.5,-389.2 668.5,-367.2 442.5,-367.2"/>
<text text-anchor="start" x="462.5" y="-374.3" font-family="Helvetica,sans-Serif" font-size="11.00" fill="#000000">temp_method</text>
<polygon fill="none" stroke="#000000" points="668.5,-367.2 668.5,-389.2 739.5,-389.2 739.5,-367.2 668.5,-367.2"/>
<text text-anchor="start" x="671.5" y="-374.9" font-family="Helvetica,sans-Serif" font-size="11.00" fill="#000000">varchar[255]</text>
<polygon fill="none" stroke="#000000" points="442.5,-345.2 442.5,-367.2 668.5,-367.2 668.5,-345.2 442.5,-345.2"/>
<text text-anchor="start" x="462.5" y="-352.3" font-family="Helvetica,sans-Serif" font-size="11.00" fill="#000000">pulse</text>
<polygon fill="none" stroke="#000000" points="668.5,-345.2 668.5,-367.2 739.5,-367.2 739.5,-345.2 668.5,-345.2"/>
<text text-anchor="start" x="671.2981" y="-352.9" font-family="Helvetica,sans-Serif" font-size="11.00" fill="#000000">decimal[12,6]</text>
<polygon fill="none" stroke="#000000" points="442.5,-323.2 442.5,-345.2 668.5,-345.2 668.5,-323.2 442.5,-323.2"/>
<text text-anchor="start" x="462.5" y="-330.3" font-family="Helvetica,sans-Serif" font-size="11.00" fill="#000000">respiration</text>
<polygon fill="none" stroke="#000000" points="668.5,-323.2 668.5,-345.2 739.5,-345.2 739.5,-323.2 668.5,-323.2"/>
<text text-anchor="start" x="671.2981" y="-330.9" font-family="Helvetica,sans-Serif" font-size="11.00" fill="#000000">decimal[12,6]</text>
<polygon fill="none" stroke="#000000" points="442.5,-301.2 442.5,-323.2 668.5,-323.2 668.5,-301.2 442.5,-301.2"/>
<text text-anchor="start" x="462.5" y="-308.3" font-family="Helvetica,sans-Serif" font-size="11.00" fill="#000000">note</text>
<polygon fill="none" stroke="#000000" points="668.5,-301.2 668.5,-323.2 739.5,-323.2 739.5,-301.2 668.5,-301.2"/>
<text text-anchor="start" x="671.5" y="-308.9" font-family="Helvetica,sans-Serif" font-size="11.00" fill="#000000">varchar[255]</text>
<polygon fill="none" stroke="#000000" points="442.5,-279.2 442.5,-301.2 668.5,-301.2 668.5,-279.2 442.5,-279.2"/>
<text text-anchor="start" x="462.5" y="-286.3" font-family="Helvetica,sans-Serif" font-size="11.00" fill="#000000">BMI</text>
<polygon fill="none" stroke="#000000" points="668.5,-279.2 668.5,-301.2 739.5,-301.2 739.5,-279.2 668.5,-279.2"/>
<text text-anchor="start" x="671.2981" y="-286.9" font-family="Helvetica,sans-Serif" font-size="11.00" fill="#000000">decimal[12,6]</text>
<polygon fill="none" stroke="#000000" points="442.5,-257.2 442.5,-279.2 668.5,-279.2 668.5,-257.2 442.5,-257.2"/>
<text text-anchor="start" x="462.5" y="-264.3" font-family="Helvetica,sans-Serif" font-size="11.00" fill="#000000">BMI_status</text>
<polygon fill="none" stroke="#000000" points="668.5,-257.2 668.5,-279.2 739.5,-279.2 739.5,-257.2 668.5,-257.2"/>
<text text-anchor="start" x="671.5" y="-264.9" font-family="Helvetica,sans-Serif" font-size="11.00" fill="#000000">varchar[255]</text>
<polygon fill="none" stroke="#000000" points="442.5,-235.2 442.5,-257.2 668.5,-257.2 668.5,-235.2 442.5,-235.2"/>
<text text-anchor="start" x="462.5" y="-242.3" font-family="Helvetica,sans-Serif" font-size="11.00" fill="#000000">waist_circ</text>
<polygon fill="none" stroke="#000000" points="668.5,-235.2 668.5,-257.2 739.5,-257.2 739.5,-235.2 668.5,-235.2"/>
<text text-anchor="start" x="671.2981" y="-242.9" font-family="Helvetica,sans-Serif" font-size="11.00" fill="#000000">decimal[12,6]</text>
<polygon fill="none" stroke="#000000" points="442.5,-213.2 442.5,-235.2 668.5,-235.2 668.5,-213.2 442.5,-213.2"/>
<text text-anchor="start" x="462.5" y="-220.3" font-family="Helvetica,sans-Serif" font-size="11.00" fill="#000000">head_circ</text>
<polygon fill="none" stroke="#000000" points="668.5,-213.2 668.5,-235.2 739.5,-235.2 739.5,-213.2 668.5,-213.2"/>
<text text-anchor="start" x="671.2981" y="-220.9" font-family="Helvetica,sans-Serif" font-size="11.00" fill="#000000">decimal[12,6]</text>
<polygon fill="none" stroke="#000000" points="442.5,-191.2 442.5,-213.2 668.5,-213.2 668.5,-191.2 442.5,-191.2"/>
<text text-anchor="start" x="462.5" y="-198.3" font-family="Helvetica,sans-Serif" font-size="11.00" fill="#000000">oxygen_saturation</text>
<polygon fill="none" stroke="#000000" points="668.5,-191.2 668.5,-213.2 739.5,-213.2 739.5,-191.2 668.5,-191.2"/>
<text text-anchor="start" x="671.5" y="-198.9" font-family="Helvetica,sans-Serif" font-size="11.00" fill="#000000">decimal[6,2]</text>
<polygon fill="none" stroke="#000000" points="442.5,-169.2 442.5,-191.2 668.5,-191.2 668.5,-169.2 442.5,-169.2"/>
<text text-anchor="start" x="462.5" y="-176.3" font-family="Helvetica,sans-Serif" font-size="11.00" fill="#000000">oxygen_flow_rate</text>
<polygon fill="none" stroke="#000000" points="668.5,-169.2 668.5,-191.2 739.5,-191.2 739.5,-169.2 668.5,-169.2"/>
<text text-anchor="start" x="671.2981" y="-176.9" font-family="Helvetica,sans-Serif" font-size="11.00" fill="#000000">decimal[12,6]</text>
<polygon fill="none" stroke="#000000" points="442.5,-147.2 442.5,-169.2 668.5,-169.2 668.5,-147.2 442.5,-147.2"/>
<text text-anchor="start" x="462.5" y="-154.3" font-family="Helvetica,sans-Serif" font-size="11.00" fill="#000000">external_id</text>
<polygon fill="none" stroke="#000000" points="668.5,-147.2 668.5,-169.2 739.5,-169.2 739.5,-147.2 668.5,-147.2"/>
<text text-anchor="start" x="671.5" y="-154.9" font-family="Helvetica,sans-Serif" font-size="11.00" fill="#000000">varchar[20]</text>
<polygon fill="none" stroke="#000000" points="442.5,-125.2 442.5,-147.2 668.5,-147.2 668.5,-125.2 442.5,-125.2"/>
<text text-anchor="start" x="462.5" y="-132.3" font-family="Helvetica,sans-Serif" font-size="11.00" fill="#000000">ped_weight_height</text>
<polygon fill="none" stroke="#000000" points="668.5,-125.2 668.5,-147.2 739.5,-147.2 739.5,-125.2 668.5,-125.2"/>
<text text-anchor="start" x="671.5" y="-132.9" font-family="Helvetica,sans-Serif" font-size="11.00" fill="#000000">decimal[6,2]</text>
<polygon fill="none" stroke="#000000" points="442.5,-103.2 442.5,-125.2 668.5,-125.2 668.5,-103.2 442.5,-103.2"/>
<text text-anchor="start" x="462.5" y="-110.3" font-family="Helvetica,sans-Serif" font-size="11.00" fill="#000000">ped_bmi</text>
<polygon fill="none" stroke="#000000" points="668.5,-103.2 668.5,-125.2 739.5,-125.2 739.5,-103.2 668.5,-103.2"/>
<text text-anchor="start" x="671.5" y="-110.9" font-family="Helvetica,sans-Serif" font-size="11.00" fill="#000000">decimal[6,2]</text>
<polygon fill="none" stroke="#000000" points="442.5,-81.2 442.5,-103.2 668.5,-103.2 668.5,-81.2 442.5,-81.2"/>
<text text-anchor="start" x="462.5" y="-88.3" font-family="Helvetica,sans-Serif" font-size="11.00" fill="#000000">ped_head_circ</text>
<polygon fill="none" stroke="#000000" points="668.5,-81.2 668.5,-103.2 739.5,-103.2 739.5,-81.2 668.5,-81.2"/>
<text text-anchor="start" x="671.5" y="-88.9" font-family="Helvetica,sans-Serif" font-size="11.00" fill="#000000">decimal[6,2]</text>
<polygon fill="none" stroke="#000000" points="442.5,-59.2 442.5,-81.2 668.5,-81.2 668.5,-59.2 442.5,-59.2"/>
<text text-anchor="start" x="462.5" y="-66.3" font-family="Helvetica,sans-Serif" font-size="11.00" fill="#000000">inhaled_oxygen_concentration</text>
<polygon fill="none" stroke="#000000" points="668.5,-59.2 668.5,-81.2 739.5,-81.2 739.5,-59.2 668.5,-59.2"/>
<text text-anchor="start" x="671.5" y="-66.9" font-family="Helvetica,sans-Serif" font-size="11.00" fill="#000000">decimal[6,2]</text>
<polygon fill="#ffffff" stroke="transparent" points="442.5,-40.2 442.5,-59.2 559.5,-59.2 559.5,-40.2 442.5,-40.2"/>
<polygon fill="none" stroke="#000000" points="442.5,-40.2 442.5,-59.2 559.5,-59.2 559.5,-40.2 442.5,-40.2"/>
<text text-anchor="start" x="445.5" y="-46.3" font-family="Helvetica,sans-Serif" font-size="11.00" fill="#000000">&lt; 3</text>
<polygon fill="#ffffff" stroke="transparent" points="559.5,-40.2 559.5,-59.2 668.5,-59.2 668.5,-40.2 559.5,-40.2"/>
<polygon fill="none" stroke="#000000" points="559.5,-40.2 559.5,-59.2 668.5,-59.2 668.5,-40.2 559.5,-40.2"/>
<text text-anchor="start" x="659.3862" y="-46.3" font-family="Helvetica,sans-Serif" font-size="11.00" fill="#000000"> &#160;</text>
<polygon fill="#ffffff" stroke="transparent" points="668.5,-40.2 668.5,-59.2 739.5,-59.2 739.5,-40.2 668.5,-40.2"/>
<polygon fill="none" stroke="#000000" points="668.5,-40.2 668.5,-59.2 739.5,-59.2 739.5,-40.2 668.5,-40.2"/>
<text text-anchor="start" x="720.9053" y="-46.3" font-family="Helvetica,sans-Serif" font-size="11.00" fill="#000000">1 &gt;</text>
<polygon fill="none" stroke="#000000" stroke-width="2" points="441,-39.2 441,-699.2 740,-699.2 740,-39.2 441,-39.2"/>
</a>
</g>
</g>
<!-- groups -->
<g id="node2" class="node">
<title>groups</title>
<g id="a_node2"><a xlink:href="../../tables/groups.html" xlink:title="groups" target="_top">
<polygon fill="#ffffff" stroke="transparent" points="264.5,-444.2 264.5,-552.2 350.5,-552.2 350.5,-444.2 264.5,-444.2"/>
<polygon fill="#f5f5f5" stroke="transparent" points="264.5,-529.2 264.5,-552.2 350.5,-552.2 350.5,-529.2 264.5,-529.2"/>
<polygon fill="none" stroke="#000000" points="264.5,-529.2 264.5,-552.2 350.5,-552.2 350.5,-529.2 264.5,-529.2"/>
<text text-anchor="start" x="269.5" y="-537.8" font-family="Helvetica,sans-Serif" font-weight="bold" font-size="11.00" fill="#000000">groups</text>
<text text-anchor="start" x="316.0219" y="-537.3" font-family="Helvetica,sans-Serif" font-size="11.00" fill="#000000">[table]</text>
<polygon fill="none" stroke="#000000" points="264.5,-507.2 264.5,-529.2 350.5,-529.2 350.5,-507.2 264.5,-507.2"/>
<image xlink:href="../../images/primaryKeys.png" width="11px" height="12px" preserveAspectRatio="xMinYMin meet" x="269.5" y="-524.2"/>
<text text-anchor="start" x="293.5" y="-514.3" font-family="Helvetica,sans-Serif" font-size="11.00" fill="#000000">id</text>
<polygon fill="none" stroke="#000000" points="264.5,-485.2 264.5,-507.2 350.5,-507.2 350.5,-485.2 264.5,-485.2"/>
<image xlink:href="../../images/primaryKeys.png" width="11px" height="12px" preserveAspectRatio="xMinYMin meet" x="269.5" y="-502.2"/>
<text text-anchor="start" x="293.5" y="-492.3" font-family="Helvetica,sans-Serif" font-size="11.00" fill="#000000">name</text>
<polygon fill="none" stroke="#000000" points="264.5,-463.2 264.5,-485.2 350.5,-485.2 350.5,-463.2 264.5,-463.2"/>
<image xlink:href="../../images/foreignKeys.png" width="11px" height="12px" preserveAspectRatio="xMinYMin meet" x="269.5" y="-480.2"/>
<text text-anchor="start" x="293.5" y="-470.3" font-family="Helvetica,sans-Serif" font-size="11.00" fill="#000000">user</text>
<polygon fill="#ffffff" stroke="transparent" points="264.5,-444.2 264.5,-463.2 298.5,-463.2 298.5,-444.2 264.5,-444.2"/>
<polygon fill="none" stroke="#000000" points="264.5,-444.2 264.5,-463.2 298.5,-463.2 298.5,-444.2 264.5,-444.2"/>
<text text-anchor="start" x="267.5" y="-450.3" font-family="Helvetica,sans-Serif" font-size="11.00" fill="#000000">&lt; 1</text>
<polygon fill="#ffffff" stroke="transparent" points="298.5,-444.2 298.5,-463.2 316.5,-463.2 316.5,-444.2 298.5,-444.2"/>
<polygon fill="none" stroke="#000000" points="298.5,-444.2 298.5,-463.2 316.5,-463.2 316.5,-444.2 298.5,-444.2"/>
<text text-anchor="start" x="307.3862" y="-450.3" font-family="Helvetica,sans-Serif" font-size="11.00" fill="#000000"> &#160;</text>
<polygon fill="#ffffff" stroke="transparent" points="316.5,-444.2 316.5,-463.2 350.5,-463.2 350.5,-444.2 316.5,-444.2"/>
<polygon fill="none" stroke="#000000" points="316.5,-444.2 316.5,-463.2 350.5,-463.2 350.5,-444.2 316.5,-444.2"/>
<text text-anchor="start" x="325.7904" y="-450.3" font-family="Helvetica,sans-Serif" font-size="11.00" fill="#000000">17 &gt;</text>
</a>
</g>
</g>
<!-- form_vitals&#45;&gt;groups -->
<g id="edge1" class="edge">
<title>form_vitals:w&#45;&gt;groups:e</title>
<path fill="none" stroke="#000000" d="M427.9598,-552.1357C394.5421,-541.8037 393.3607,-496.2 350.5,-496.2"/>
<polygon fill="#000000" stroke="#000000" points="434.5794,-553.0755 441.994,-557.7643 438.5397,-553.6377 442.5,-554.2 442.5,-554.2 442.5,-554.2 438.5397,-553.6377 443.006,-550.6357 434.5794,-553.0755 434.5794,-553.0755"/>
<ellipse fill="none" stroke="#000000" cx="431.4112" cy="-552.6257" rx="3.2" ry="3.2"/>
</g>
<!-- patient_data -->
<g id="node3" class="node">
<title>patient_data</title>
<g id="a_node3"><a xlink:href="../../tables/patient_data.html" xlink:title="patient_data" target="_top">
<polygon fill="#ffffff" stroke="transparent" points="224,-600.7 224,-837.7 391,-837.7 391,-600.7 224,-600.7"/>
<polygon fill="#f5f5f5" stroke="transparent" points="224.5,-814.2 224.5,-837.2 391.5,-837.2 391.5,-814.2 224.5,-814.2"/>
<polygon fill="none" stroke="#000000" points="224.5,-814.2 224.5,-837.2 391.5,-837.2 391.5,-814.2 224.5,-814.2"/>
<text text-anchor="start" x="229.5" y="-822.8" font-family="Helvetica,sans-Serif" font-weight="bold" font-size="11.00" fill="#000000">patient_data</text>
<text text-anchor="start" x="356.5437" y="-822.3" font-family="Helvetica,sans-Serif" font-size="11.00" fill="#000000">[table]</text>
<polygon fill="#ffffff" stroke="transparent" points="224.5,-792.2 224.5,-814.2 391.5,-814.2 391.5,-792.2 224.5,-792.2"/>
<polygon fill="none" stroke="#000000" points="224.5,-792.2 224.5,-814.2 391.5,-814.2 391.5,-792.2 224.5,-792.2"/>
<text text-anchor="start" x="244.5" y="-799.3" font-family="Helvetica,sans-Serif" font-size="11.00" fill="#000000">id</text>
<polygon fill="#ffffff" stroke="transparent" points="224.5,-770.2 224.5,-792.2 391.5,-792.2 391.5,-770.2 224.5,-770.2"/>
<polygon fill="none" stroke="#000000" points="224.5,-770.2 224.5,-792.2 391.5,-792.2 391.5,-770.2 224.5,-770.2"/>
<text text-anchor="start" x="244.5" y="-777.3" font-family="Helvetica,sans-Serif" font-size="11.00" fill="#000000">uuid</text>
<polygon fill="none" stroke="#000000" points="224.5,-748.2 224.5,-770.2 391.5,-770.2 391.5,-748.2 224.5,-748.2"/>
<image xlink:href="../../images/foreignKeys.png" width="11px" height="12px" preserveAspectRatio="xMinYMin meet" x="229.5" y="-765.2"/>
<text text-anchor="start" x="244.5" y="-755.3" font-family="Helvetica,sans-Serif" font-size="11.00" fill="#000000">pharmacy_id</text>
<polygon fill="none" stroke="#000000" points="224.5,-726.2 224.5,-748.2 391.5,-748.2 391.5,-726.2 224.5,-726.2"/>
<image xlink:href="../../images/foreignKeys.png" width="11px" height="12px" preserveAspectRatio="xMinYMin meet" x="229.5" y="-743.2"/>
<text text-anchor="start" x="244.5" y="-733.3" font-family="Helvetica,sans-Serif" font-size="11.00" fill="#000000">providerID</text>
<polygon fill="none" stroke="#000000" points="224.5,-704.2 224.5,-726.2 391.5,-726.2 391.5,-704.2 224.5,-704.2"/>
<image xlink:href="../../images/foreignKeys.png" width="11px" height="12px" preserveAspectRatio="xMinYMin meet" x="229.5" y="-721.2"/>
<text text-anchor="start" x="244.5" y="-711.3" font-family="Helvetica,sans-Serif" font-size="11.00" fill="#000000">ref_providerID</text>
<polygon fill="none" stroke="#000000" points="224.5,-682.2 224.5,-704.2 391.5,-704.2 391.5,-682.2 224.5,-682.2"/>
<image xlink:href="../../images/primaryKeys.png" width="11px" height="12px" preserveAspectRatio="xMinYMin meet" x="229.5" y="-699.2"/>
<text text-anchor="start" x="244.5" y="-689.3" font-family="Helvetica,sans-Serif" font-size="11.00" fill="#000000">pid</text>
<polygon fill="none" stroke="#000000" points="224.5,-660.2 224.5,-682.2 391.5,-682.2 391.5,-660.2 224.5,-660.2"/>
<image xlink:href="../../images/foreignKeys.png" width="11px" height="12px" preserveAspectRatio="xMinYMin meet" x="229.5" y="-677.2"/>
<text text-anchor="start" x="244.5" y="-667.3" font-family="Helvetica,sans-Serif" font-size="11.00" fill="#000000">created_by</text>
<polygon fill="none" stroke="#000000" points="224.5,-638.2 224.5,-660.2 391.5,-660.2 391.5,-638.2 224.5,-638.2"/>
<image xlink:href="../../images/foreignKeys.png" width="11px" height="12px" preserveAspectRatio="xMinYMin meet" x="229.5" y="-655.2"/>
<text text-anchor="start" x="244.5" y="-645.3" font-family="Helvetica,sans-Serif" font-size="11.00" fill="#000000">updated_by</text>
<polygon fill="none" stroke="#000000" points="224.5,-619.2 224.5,-638.2 391.5,-638.2 391.5,-619.2 224.5,-619.2"/>
<text text-anchor="start" x="227.5" y="-625.3" font-family="Helvetica,sans-Serif" font-size="11.00" fill="#000000">...</text>
<polygon fill="#ffffff" stroke="transparent" points="224.5,-600.2 224.5,-619.2 298.5,-619.2 298.5,-600.2 224.5,-600.2"/>
<polygon fill="none" stroke="#000000" points="224.5,-600.2 224.5,-619.2 298.5,-619.2 298.5,-600.2 224.5,-600.2"/>
<text text-anchor="start" x="227.5" y="-606.3" font-family="Helvetica,sans-Serif" font-size="11.00" fill="#000000">&lt; 5</text>
<polygon fill="#ffffff" stroke="transparent" points="298.5,-600.2 298.5,-619.2 337.5,-619.2 337.5,-600.2 298.5,-600.2"/>
<polygon fill="none" stroke="#000000" points="298.5,-600.2 298.5,-619.2 337.5,-619.2 337.5,-600.2 298.5,-600.2"/>
<text text-anchor="start" x="328.3862" y="-606.3" font-family="Helvetica,sans-Serif" font-size="11.00" fill="#000000"> &#160;</text>
<polygon fill="#ffffff" stroke="transparent" points="337.5,-600.2 337.5,-619.2 391.5,-619.2 391.5,-600.2 337.5,-600.2"/>
<polygon fill="none" stroke="#000000" points="337.5,-600.2 337.5,-619.2 391.5,-619.2 391.5,-600.2 337.5,-600.2"/>
<text text-anchor="start" x="366.7904" y="-606.3" font-family="Helvetica,sans-Serif" font-size="11.00" fill="#000000">85 &gt;</text>
</a>
</g>
</g>
<!-- form_vitals&#45;&gt;patient_data -->
<g id="edge2" class="edge">
<title>form_vitals:w&#45;&gt;patient_data:e</title>
<path fill="none" stroke="#000000" d="M428.5154,-602.282C404.3397,-620.4656 433.4315,-693.2 391.5,-693.2"/>
<polygon fill="#000000" stroke="#000000" points="434.8205,-600.4416 443.5087,-601.6558 438.6602,-599.3208 442.5,-598.2 442.5,-598.2 442.5,-598.2 438.6602,-599.3208 441.4913,-594.7442 434.8205,-600.4416 434.8205,-600.4416"/>
<ellipse fill="none" stroke="#000000" cx="431.7487" cy="-601.3383" rx="3.2" ry="3.2"/>
</g>
<!-- users -->
<g id="node4" class="node">
<title>users</title>
<g id="a_node4"><a xlink:href="../../tables/users.html" xlink:title="users" target="_top">
<polygon fill="#ffffff" stroke="transparent" points="8,-479.7 8,-694.7 175,-694.7 175,-479.7 8,-479.7"/>
<polygon fill="#f5f5f5" stroke="transparent" points="8.5,-671.2 8.5,-694.2 175.5,-694.2 175.5,-671.2 8.5,-671.2"/>
<polygon fill="none" stroke="#000000" points="8.5,-671.2 8.5,-694.2 175.5,-694.2 175.5,-671.2 8.5,-671.2"/>
<text text-anchor="start" x="13.5" y="-679.8" font-family="Helvetica,sans-Serif" font-weight="bold" font-size="11.00" fill="#000000">users</text>
<text text-anchor="start" x="140.5437" y="-679.3" font-family="Helvetica,sans-Serif" font-size="11.00" fill="#000000">[table]</text>
<polygon fill="none" stroke="#000000" points="8.5,-649.2 8.5,-671.2 175.5,-671.2 175.5,-649.2 8.5,-649.2"/>
<image xlink:href="../../images/primaryKeys.png" width="11px" height="12px" preserveAspectRatio="xMinYMin meet" x="13.5" y="-666.2"/>
<text text-anchor="start" x="28.5" y="-656.3" font-family="Helvetica,sans-Serif" font-size="11.00" fill="#000000">id</text>
<polygon fill="#ffffff" stroke="transparent" points="8.5,-627.2 8.5,-649.2 175.5,-649.2 175.5,-627.2 8.5,-627.2"/>
<polygon fill="none" stroke="#000000" points="8.5,-627.2 8.5,-649.2 175.5,-649.2 175.5,-627.2 8.5,-627.2"/>
<text text-anchor="start" x="28.5" y="-634.3" font-family="Helvetica,sans-Serif" font-size="11.00" fill="#000000">uuid</text>
<polygon fill="none" stroke="#000000" points="8.5,-605.2 8.5,-627.2 175.5,-627.2 175.5,-605.2 8.5,-605.2"/>
<image xlink:href="../../images/primaryKeys.png" width="11px" height="12px" preserveAspectRatio="xMinYMin meet" x="13.5" y="-622.2"/>
<text text-anchor="start" x="28.5" y="-612.3" font-family="Helvetica,sans-Serif" font-size="11.00" fill="#000000">username</text>
<polygon fill="none" stroke="#000000" points="8.5,-583.2 8.5,-605.2 175.5,-605.2 175.5,-583.2 8.5,-583.2"/>
<image xlink:href="../../images/foreignKeys.png" width="11px" height="12px" preserveAspectRatio="xMinYMin meet" x="13.5" y="-600.2"/>
<text text-anchor="start" x="28.5" y="-590.3" font-family="Helvetica,sans-Serif" font-size="11.00" fill="#000000">facility_id</text>
<polygon fill="#ffffff" stroke="transparent" points="8.5,-561.2 8.5,-583.2 175.5,-583.2 175.5,-561.2 8.5,-561.2"/>
<polygon fill="none" stroke="#000000" points="8.5,-561.2 8.5,-583.2 175.5,-583.2 175.5,-561.2 8.5,-561.2"/>
<text text-anchor="start" x="28.5" y="-568.3" font-family="Helvetica,sans-Serif" font-size="11.00" fill="#000000">google_signin_email</text>
<polygon fill="#ffffff" stroke="transparent" points="8.5,-539.2 8.5,-561.2 175.5,-561.2 175.5,-539.2 8.5,-539.2"/>
<polygon fill="none" stroke="#000000" points="8.5,-539.2 8.5,-561.2 175.5,-561.2 175.5,-539.2 8.5,-539.2"/>
<text text-anchor="start" x="28.5" y="-546.3" font-family="Helvetica,sans-Serif" font-size="11.00" fill="#000000">abook_type</text>
<polygon fill="none" stroke="#000000" points="8.5,-517.2 8.5,-539.2 175.5,-539.2 175.5,-517.2 8.5,-517.2"/>
<image xlink:href="../../images/foreignKeys.png" width="11px" height="12px" preserveAspectRatio="xMinYMin meet" x="13.5" y="-534.2"/>
<text text-anchor="start" x="28.5" y="-524.3" font-family="Helvetica,sans-Serif" font-size="11.00" fill="#000000">billing_facility_id</text>
<polygon fill="none" stroke="#000000" points="8.5,-498.2 8.5,-517.2 175.5,-517.2 175.5,-498.2 8.5,-498.2"/>
<text text-anchor="start" x="11.5" y="-504.3" font-family="Helvetica,sans-Serif" font-size="11.00" fill="#000000">...</text>
<polygon fill="#ffffff" stroke="transparent" points="8.5,-479.2 8.5,-498.2 82.5,-498.2 82.5,-479.2 8.5,-479.2"/>
<polygon fill="none" stroke="#000000" points="8.5,-479.2 8.5,-498.2 82.5,-498.2 82.5,-479.2 8.5,-479.2"/>
<text text-anchor="start" x="11.5" y="-485.3" font-family="Helvetica,sans-Serif" font-size="11.00" fill="#000000">&lt; 2</text>
<polygon fill="#ffffff" stroke="transparent" points="82.5,-479.2 82.5,-498.2 121.5,-498.2 121.5,-479.2 82.5,-479.2"/>
<polygon fill="none" stroke="#000000" points="82.5,-479.2 82.5,-498.2 121.5,-498.2 121.5,-479.2 82.5,-479.2"/>
<text text-anchor="start" x="112.3862" y="-485.3" font-family="Helvetica,sans-Serif" font-size="11.00" fill="#000000"> &#160;</text>
<polygon fill="#ffffff" stroke="transparent" points="121.5,-479.2 121.5,-498.2 175.5,-498.2 175.5,-479.2 121.5,-479.2"/>
<polygon fill="none" stroke="#000000" points="121.5,-479.2 121.5,-498.2 175.5,-498.2 175.5,-479.2 121.5,-479.2"/>
<text text-anchor="start" x="150.7904" y="-485.3" font-family="Helvetica,sans-Serif" font-size="11.00" fill="#000000">61 &gt;</text>
</a>
</g>
</g>
<!-- form_vitals&#45;&gt;users -->
<g id="edge3" class="edge">
<title>form_vitals:w&#45;&gt;users:e</title>
<path fill="none" stroke="#000000" d="M427.9422,-576.0789C338.5106,-574.5912 307.0837,-560.3972 216,-590.2 195.6706,-596.8518 196.89,-616.2 175.5,-616.2"/>
<polygon fill="#000000" stroke="#000000" points="434.5003,-576.1334 442.47,-579.7999 438.5001,-576.1667 442.5,-576.2 442.5,-576.2 442.5,-576.2 438.5001,-576.1667 442.53,-572.6001 434.5003,-576.1334 434.5003,-576.1334"/>
<ellipse fill="none" stroke="#000000" cx="431.3004" cy="-576.1068" rx="3.2" ry="3.2"/>
</g>
<!-- groups&#45;&gt;users -->
<g id="edge4" class="edge">
<title>groups:w&#45;&gt;users:e</title>
<path fill="none" stroke="#000000" d="M251.1335,-480.6704C223.1383,-508.4498 207.9407,-616.2 175.5,-616.2"/>
<polygon fill="#000000" stroke="#000000" points="257.2993,-477.6857 266.0686,-477.4403 260.8997,-475.9429 264.5,-474.2 264.5,-474.2 264.5,-474.2 260.8997,-475.9429 262.9314,-470.9597 257.2993,-477.6857 257.2993,-477.6857"/>
<ellipse fill="none" stroke="#000000" cx="254.419" cy="-479.08" rx="3.2" ry="3.2"/>
</g>
<!-- patient_data&#45;&gt;users -->
<g id="edge6" class="edge">
<title>patient_data:w&#45;&gt;users:e</title>
<path fill="none" stroke="#000000" d="M210.2027,-669.3836C198.7382,-666.2593 192.0655,-660.2 175.5,-660.2"/>
<polygon fill="#000000" stroke="#000000" points="216.5638,-670.1917 224.0463,-674.7713 220.5319,-670.6958 224.5,-671.2 224.5,-671.2 224.5,-671.2 220.5319,-670.6958 224.9537,-667.6287 216.5638,-670.1917 216.5638,-670.1917"/>
<ellipse fill="none" stroke="#000000" cx="213.3893" cy="-669.7884" rx="3.2" ry="3.2"/>
</g>
<!-- patient_data&#45;&gt;users -->
<g id="edge7" class="edge">
<title>patient_data:w&#45;&gt;users:e</title>
<path fill="none" stroke="#000000" d="M210.7659,-732.6139C191.8724,-716.0372 210.0427,-660.2 175.5,-660.2"/>
<polygon fill="#000000" stroke="#000000" points="216.9119,-734.6661 223.3598,-740.6147 220.7059,-735.9331 224.5,-737.2 224.5,-737.2 224.5,-737.2 220.7059,-735.9331 225.6402,-733.7853 216.9119,-734.6661 216.9119,-734.6661"/>
<ellipse fill="none" stroke="#000000" cx="213.8766" cy="-733.6526" rx="3.2" ry="3.2"/>
</g>
<!-- patient_data&#45;&gt;users -->
<g id="edge8" class="edge">
<title>patient_data:w&#45;&gt;users:e</title>
<path fill="none" stroke="#000000" d="M210.6265,-710.1243C196.2102,-696.5086 202.0999,-660.2 175.5,-660.2"/>
<polygon fill="#000000" stroke="#000000" points="216.987,-712.4513 223.2631,-718.5808 220.7435,-713.8257 224.5,-715.2 224.5,-715.2 224.5,-715.2 220.7435,-713.8257 225.7369,-711.8192 216.987,-712.4513 216.987,-712.4513"/>
<ellipse fill="none" stroke="#000000" cx="213.9818" cy="-711.3518" rx="3.2" ry="3.2"/>
</g>
<!-- patient_data&#45;&gt;users -->
<g id="edge9" class="edge">
<title>patient_data:w&#45;&gt;users:e</title>
<path fill="none" stroke="#000000" d="M210.2027,-651.0164C198.7382,-654.1407 192.0655,-660.2 175.5,-660.2"/>
<polygon fill="#000000" stroke="#000000" points="216.5638,-650.2083 224.9537,-652.7713 220.5319,-649.7042 224.5,-649.2 224.5,-649.2 224.5,-649.2 220.5319,-649.7042 224.0463,-645.6287 216.5638,-650.2083 216.5638,-650.2083"/>
<ellipse fill="none" stroke="#000000" cx="213.3893" cy="-650.6116" rx="3.2" ry="3.2"/>
</g>
<!-- form_vital_details -->
<g id="node5" class="node">
<title>form_vital_details</title>
<g id="a_node5"><a xlink:href="../../tables/form_vital_details.html" xlink:title="form_vital_details" target="_top">
<polygon fill="#ffffff" stroke="transparent" points="790,-571.7 790,-698.7 978,-698.7 978,-571.7 790,-571.7"/>
<polygon fill="#f5f5f5" stroke="transparent" points="790,-675.2 790,-698.2 978,-698.2 978,-675.2 790,-675.2"/>
<polygon fill="none" stroke="#000000" points="790,-675.2 790,-698.2 978,-698.2 978,-675.2 790,-675.2"/>
<text text-anchor="start" x="795" y="-683.8" font-family="Helvetica,sans-Serif" font-weight="bold" font-size="11.00" fill="#000000">form_vital_details</text>
<text text-anchor="start" x="943.0437" y="-683.3" font-family="Helvetica,sans-Serif" font-size="11.00" fill="#000000">[table]</text>
<polygon fill="none" stroke="#000000" points="790,-653.2 790,-675.2 978,-675.2 978,-653.2 790,-653.2"/>
<image xlink:href="../../images/foreignKeys.png" width="11px" height="12px" preserveAspectRatio="xMinYMin meet" x="795" y="-670.2"/>
<text text-anchor="start" x="810" y="-660.3" font-family="Helvetica,sans-Serif" font-size="11.00" fill="#000000">form_id</text>
<polygon fill="none" stroke="#000000" points="790,-631.2 790,-653.2 978,-653.2 978,-631.2 790,-631.2"/>
<image xlink:href="../../images/foreignKeys.png" width="11px" height="12px" preserveAspectRatio="xMinYMin meet" x="795" y="-648.2"/>
<text text-anchor="start" x="810" y="-638.3" font-family="Helvetica,sans-Serif" font-size="11.00" fill="#000000">interpretation_list_id </text>
<polygon fill="none" stroke="#000000" points="790,-609.2 790,-631.2 978,-631.2 978,-609.2 790,-609.2"/>
<image xlink:href="../../images/foreignKeys.png" width="11px" height="12px" preserveAspectRatio="xMinYMin meet" x="795" y="-626.2"/>
<text text-anchor="start" x="810" y="-616.3" font-family="Helvetica,sans-Serif" font-size="11.00" fill="#000000">interpretation_option_id </text>
<polygon fill="none" stroke="#000000" points="790,-590.2 790,-609.2 978,-609.2 978,-590.2 790,-590.2"/>
<text text-anchor="start" x="793" y="-596.3" font-family="Helvetica,sans-Serif" font-size="11.00" fill="#000000">...</text>
<polygon fill="#ffffff" stroke="transparent" points="790,-571.2 790,-590.2 882,-590.2 882,-571.2 790,-571.2"/>
<polygon fill="none" stroke="#000000" points="790,-571.2 790,-590.2 882,-590.2 882,-571.2 790,-571.2"/>
<text text-anchor="start" x="793" y="-577.3" font-family="Helvetica,sans-Serif" font-size="11.00" fill="#000000">&lt; 3</text>
<polygon fill="#ffffff" stroke="transparent" points="882,-571.2 882,-590.2 930,-590.2 930,-571.2 882,-571.2"/>
<polygon fill="none" stroke="#000000" points="882,-571.2 882,-590.2 930,-590.2 930,-571.2 882,-571.2"/>
<text text-anchor="start" x="920.8862" y="-577.3" font-family="Helvetica,sans-Serif" font-size="11.00" fill="#000000"> &#160;</text>
<polygon fill="#ffffff" stroke="transparent" points="930,-571.2 930,-590.2 978,-590.2 978,-571.2 930,-571.2"/>
<polygon fill="none" stroke="#000000" points="930,-571.2 930,-590.2 978,-590.2 978,-571.2 930,-571.2"/>
<text text-anchor="start" x="968.8862" y="-577.3" font-family="Helvetica,sans-Serif" font-size="11.00" fill="#000000"> &#160;</text>
</a>
</g>
</g>
<!-- form_vital_details&#45;&gt;form_vitals -->
<g id="edge5" class="edge">
<title>form_vital_details:w&#45;&gt;form_vitals:e</title>
<path fill="none" stroke="#000000" d="M775.4203,-664.2C763.5435,-664.2 756.158,-664.2 739.5,-664.2"/>
<polygon fill="#000000" stroke="#000000" points="782,-664.2001 790,-667.8 786,-664.2 790,-664.2 790,-664.2 790,-664.2 786,-664.2 790,-660.6 782,-664.2001 782,-664.2001"/>
<ellipse fill="none" stroke="#000000" cx="778.8" cy="-664.2001" rx="3.2" ry="3.2"/>
</g>
</g>
</svg>
