<?xml version="1.0" encoding="UTF-8" standalone="no"?>
<!DOCTYPE svg PUBLIC "-//W3C//DTD SVG 1.1//EN"
 "http://www.w3.org/Graphics/SVG/1.1/DTD/svg11.dtd">
<!-- Generated by graphviz version 2.40.1 (20161225.0304)
 -->
<!-- Title: oneDegreeRelationshipsDiagram Pages: 1 -->
<svg width="407pt" height="309pt"
 viewBox="0.00 0.00 407.00 309.20" xmlns="http://www.w3.org/2000/svg" xmlns:xlink="http://www.w3.org/1999/xlink">
<g id="graph0" class="graph" transform="scale(1 1) rotate(0) translate(4 305.2)">
<title>oneDegreeRelationshipsDiagram</title>
<polygon fill="#ffffff" stroke="transparent" points="-4,4 -4,-305.2 403,-305.2 403,4 -4,4"/>
<text text-anchor="middle" x="72.4936" y="-7.3" font-family="Helvetica,sans-Serif" font-size="11.00" fill="#000000">Generated by SchemaSpy</text>
<!-- form_clinic_note -->
<g id="node1" class="node">
<title>form_clinic_note</title>
<g id="a_node1"><a xlink:href="../../tables/form_clinic_note.html" xlink:title="form_clinic_note" target="_top">
<polygon fill="#ffffff" stroke="transparent" points="195,-186.7 195,-254.7 391,-254.7 391,-186.7 195,-186.7"/>
<polygon fill="#f5f5f5" stroke="transparent" points="197,-229.7 197,-252.7 389,-252.7 389,-229.7 197,-229.7"/>
<polygon fill="none" stroke="#000000" points="197,-229.7 197,-252.7 389,-252.7 389,-229.7 197,-229.7"/>
<text text-anchor="start" x="202" y="-238.3" font-family="Helvetica,sans-Serif" font-weight="bold" font-size="11.00" fill="#000000">form_clinic_note</text>
<text text-anchor="start" x="354.0437" y="-237.8" font-family="Helvetica,sans-Serif" font-size="11.00" fill="#000000">[table]</text>
<polygon fill="none" stroke="#000000" points="197,-207.7 197,-229.7 327,-229.7 327,-207.7 197,-207.7"/>
<image xlink:href="../../images/foreignKeys.png" width="11px" height="12px" preserveAspectRatio="xMinYMin meet" x="202" y="-224.7"/>
<text text-anchor="start" x="217" y="-214.8" font-family="Helvetica,sans-Serif" font-size="11.00" fill="#000000">id</text>
<polygon fill="none" stroke="#000000" points="327,-207.7 327,-229.7 389,-229.7 389,-207.7 327,-207.7"/>
<text text-anchor="start" x="329.878" y="-215.4" font-family="Helvetica,sans-Serif" font-size="11.00" fill="#000000">unknown[0]</text>
<polygon fill="#ffffff" stroke="transparent" points="197,-188.7 197,-207.7 266,-207.7 266,-188.7 197,-188.7"/>
<polygon fill="none" stroke="#000000" points="197,-188.7 197,-207.7 266,-207.7 266,-188.7 197,-188.7"/>
<text text-anchor="start" x="200" y="-194.8" font-family="Helvetica,sans-Serif" font-size="11.00" fill="#000000">&lt; 1</text>
<polygon fill="#ffffff" stroke="transparent" points="266,-188.7 266,-207.7 327,-207.7 327,-188.7 266,-188.7"/>
<polygon fill="none" stroke="#000000" points="266,-188.7 266,-207.7 327,-207.7 327,-188.7 266,-188.7"/>
<text text-anchor="start" x="317.8862" y="-194.8" font-family="Helvetica,sans-Serif" font-size="11.00" fill="#000000"> &#160;</text>
<polygon fill="#ffffff" stroke="transparent" points="327,-188.7 327,-207.7 389,-207.7 389,-188.7 327,-188.7"/>
<polygon fill="none" stroke="#000000" points="327,-188.7 327,-207.7 389,-207.7 389,-188.7 327,-188.7"/>
<text text-anchor="start" x="370.4053" y="-194.8" font-family="Helvetica,sans-Serif" font-size="11.00" fill="#000000">0 &gt;</text>
<polygon fill="none" stroke="#000000" stroke-width="2" points="196,-187.7 196,-253.7 390,-253.7 390,-187.7 196,-187.7"/>
</a>
</g>
</g>
<!-- forms -->
<g id="node2" class="node">
<title>forms</title>
<g id="a_node2"><a xlink:href="../../tables/forms.html" xlink:title="forms" target="_top">
<polygon fill="#ffffff" stroke="transparent" points="8,-38.2 8,-297.2 146,-297.2 146,-38.2 8,-38.2"/>
<polygon fill="#f5f5f5" stroke="transparent" points="8,-273.7 8,-296.7 146,-296.7 146,-273.7 8,-273.7"/>
<polygon fill="none" stroke="#000000" points="8,-273.7 8,-296.7 146,-296.7 146,-273.7 8,-273.7"/>
<text text-anchor="start" x="13" y="-282.3" font-family="Helvetica,sans-Serif" font-weight="bold" font-size="11.00" fill="#000000">forms</text>
<text text-anchor="start" x="111.0437" y="-281.8" font-family="Helvetica,sans-Serif" font-size="11.00" fill="#000000">[table]</text>
<polygon fill="none" stroke="#000000" points="8,-251.7 8,-273.7 146,-273.7 146,-251.7 8,-251.7"/>
<image xlink:href="../../images/primaryKeys.png" width="11px" height="12px" preserveAspectRatio="xMinYMin meet" x="13" y="-268.7"/>
<text text-anchor="start" x="28" y="-258.8" font-family="Helvetica,sans-Serif" font-size="11.00" fill="#000000">id</text>
<polygon fill="#ffffff" stroke="transparent" points="8,-229.7 8,-251.7 146,-251.7 146,-229.7 8,-229.7"/>
<polygon fill="none" stroke="#000000" points="8,-229.7 8,-251.7 146,-251.7 146,-229.7 8,-229.7"/>
<text text-anchor="start" x="28" y="-236.8" font-family="Helvetica,sans-Serif" font-size="11.00" fill="#000000">encounter</text>
<polygon fill="none" stroke="#000000" points="8,-207.7 8,-229.7 146,-229.7 146,-207.7 8,-207.7"/>
<image xlink:href="../../images/primaryKeys.png" width="11px" height="12px" preserveAspectRatio="xMinYMin meet" x="13" y="-224.7"/>
<text text-anchor="start" x="28" y="-214.8" font-family="Helvetica,sans-Serif" font-size="11.00" fill="#000000">form_id</text>
<polygon fill="#ffffff" stroke="transparent" points="8,-185.7 8,-207.7 146,-207.7 146,-185.7 8,-185.7"/>
<polygon fill="none" stroke="#000000" points="8,-185.7 8,-207.7 146,-207.7 146,-185.7 8,-185.7"/>
<image xlink:href="../../images/foreignKeys.png" width="11px" height="12px" preserveAspectRatio="xMinYMin meet" x="13" y="-202.7"/>
<text text-anchor="start" x="28" y="-192.8" font-family="Helvetica,sans-Serif" font-size="11.00" fill="#000000">pid</text>
<polygon fill="none" stroke="#000000" points="8,-163.7 8,-185.7 146,-185.7 146,-163.7 8,-163.7"/>
<image xlink:href="../../images/foreignKeys.png" width="11px" height="12px" preserveAspectRatio="xMinYMin meet" x="13" y="-180.7"/>
<text text-anchor="start" x="28" y="-170.8" font-family="Helvetica,sans-Serif" font-size="11.00" fill="#000000">user</text>
<polygon fill="none" stroke="#000000" points="8,-141.7 8,-163.7 146,-163.7 146,-141.7 8,-141.7"/>
<image xlink:href="../../images/foreignKeys.png" width="11px" height="12px" preserveAspectRatio="xMinYMin meet" x="13" y="-158.7"/>
<text text-anchor="start" x="28" y="-148.8" font-family="Helvetica,sans-Serif" font-size="11.00" fill="#000000">groupname</text>
<polygon fill="none" stroke="#000000" points="8,-119.7 8,-141.7 146,-141.7 146,-119.7 8,-119.7"/>
<image xlink:href="../../images/foreignKeys.png" width="11px" height="12px" preserveAspectRatio="xMinYMin meet" x="13" y="-136.7"/>
<text text-anchor="start" x="28" y="-126.8" font-family="Helvetica,sans-Serif" font-size="11.00" fill="#000000">therapy_group_id</text>
<polygon fill="none" stroke="#000000" points="8,-97.7 8,-119.7 146,-119.7 146,-97.7 8,-97.7"/>
<image xlink:href="../../images/foreignKeys.png" width="11px" height="12px" preserveAspectRatio="xMinYMin meet" x="13" y="-114.7"/>
<text text-anchor="start" x="28" y="-104.8" font-family="Helvetica,sans-Serif" font-size="11.00" fill="#000000">issue_id</text>
<polygon fill="none" stroke="#000000" points="8,-75.7 8,-97.7 146,-97.7 146,-75.7 8,-75.7"/>
<image xlink:href="../../images/foreignKeys.png" width="11px" height="12px" preserveAspectRatio="xMinYMin meet" x="13" y="-92.7"/>
<text text-anchor="start" x="28" y="-82.8" font-family="Helvetica,sans-Serif" font-size="11.00" fill="#000000">provider_id</text>
<polygon fill="none" stroke="#000000" points="8,-56.7 8,-75.7 146,-75.7 146,-56.7 8,-56.7"/>
<text text-anchor="start" x="11" y="-62.8" font-family="Helvetica,sans-Serif" font-size="11.00" fill="#000000">...</text>
<polygon fill="#ffffff" stroke="transparent" points="8,-37.7 8,-56.7 68,-56.7 68,-37.7 8,-37.7"/>
<polygon fill="none" stroke="#000000" points="8,-37.7 8,-56.7 68,-56.7 68,-37.7 8,-37.7"/>
<text text-anchor="start" x="11" y="-43.8" font-family="Helvetica,sans-Serif" font-size="11.00" fill="#000000">&lt; 6</text>
<polygon fill="#ffffff" stroke="transparent" points="68,-37.7 68,-56.7 99,-56.7 99,-37.7 68,-37.7"/>
<polygon fill="none" stroke="#000000" points="68,-37.7 68,-56.7 99,-56.7 99,-37.7 68,-37.7"/>
<text text-anchor="start" x="89.8862" y="-43.8" font-family="Helvetica,sans-Serif" font-size="11.00" fill="#000000"> &#160;</text>
<polygon fill="#ffffff" stroke="transparent" points="99,-37.7 99,-56.7 146,-56.7 146,-37.7 99,-37.7"/>
<polygon fill="none" stroke="#000000" points="99,-37.7 99,-56.7 146,-56.7 146,-37.7 99,-37.7"/>
<text text-anchor="start" x="121.2904" y="-43.8" font-family="Helvetica,sans-Serif" font-size="11.00" fill="#000000">13 &gt;</text>
</a>
</g>
</g>
<!-- form_clinic_note&#45;&gt;forms -->
<g id="edge1" class="edge">
<title>form_clinic_note:w&#45;&gt;forms:e</title>
<path fill="none" stroke="#000000" d="M182.276,-218.7C170.2815,-218.7 162.8229,-218.7 146,-218.7"/>
<polygon fill="#000000" stroke="#000000" points="189,-218.7001 197,-222.3 193,-218.7 197,-218.7 197,-218.7 197,-218.7 193,-218.7 197,-215.1 189,-218.7001 189,-218.7001"/>
<ellipse fill="none" stroke="#000000" cx="185.8" cy="-218.7001" rx="3.2" ry="3.2"/>
</g>
</g>
</svg>
