<?xml version="1.0" encoding="UTF-8" standalone="no"?>
<!DOCTYPE svg PUBLIC "-//W3C//DTD SVG 1.1//EN"
 "http://www.w3.org/Graphics/SVG/1.1/DTD/svg11.dtd">
<!-- Generated by graphviz version 2.40.1 (20161225.0304)
 -->
<!-- Title: twoDegreesRelationshipsDiagram Pages: 1 -->
<svg width="1171pt" height="1218pt"
 viewBox="0.00 0.00 1171.00 1217.73" xmlns="http://www.w3.org/2000/svg" xmlns:xlink="http://www.w3.org/1999/xlink">
<g id="graph0" class="graph" transform="scale(1 1) rotate(0) translate(4 1213.7271)">
<title>twoDegreesRelationshipsDiagram</title>
<polygon fill="#ffffff" stroke="transparent" points="-4,4 -4,-1213.7271 1167,-1213.7271 1167,4 -4,4"/>
<text text-anchor="middle" x="72.4936" y="-7.3" font-family="Helvetica,sans-Serif" font-size="11.00" fill="#000000">Generated by SchemaSpy</text>
<!-- form_group_attendance -->
<g id="node1" class="node">
<title>form_group_attendance</title>
<g id="a_node1"><a xlink:href="../../tables/form_group_attendance.html" xlink:title="form_group_attendance" target="_top">
<polygon fill="#ffffff" stroke="transparent" points="956,-1043.2698 956,-1104.2698 1155,-1104.2698 1155,-1043.2698 956,-1043.2698"/>
<polygon fill="#f5f5f5" stroke="transparent" points="956.5,-1080.7698 956.5,-1103.7698 1155.5,-1103.7698 1155.5,-1080.7698 956.5,-1080.7698"/>
<polygon fill="none" stroke="#000000" points="956.5,-1080.7698 956.5,-1103.7698 1155.5,-1103.7698 1155.5,-1080.7698 956.5,-1080.7698"/>
<text text-anchor="start" x="961.5" y="-1089.3698" font-family="Helvetica,sans-Serif" font-weight="bold" font-size="11.00" fill="#000000">form_group_attendance</text>
<text text-anchor="start" x="1121.0219" y="-1088.8698" font-family="Helvetica,sans-Serif" font-size="11.00" fill="#000000">[table]</text>
<polygon fill="none" stroke="#000000" points="956.5,-1061.7698 956.5,-1080.7698 1155.5,-1080.7698 1155.5,-1061.7698 956.5,-1061.7698"/>
<text text-anchor="start" x="959.5" y="-1067.8698" font-family="Helvetica,sans-Serif" font-size="11.00" fill="#000000">...</text>
<polygon fill="#ffffff" stroke="transparent" points="956.5,-1042.7698 956.5,-1061.7698 1049.5,-1061.7698 1049.5,-1042.7698 956.5,-1042.7698"/>
<polygon fill="none" stroke="#000000" points="956.5,-1042.7698 956.5,-1061.7698 1049.5,-1061.7698 1049.5,-1042.7698 956.5,-1042.7698"/>
<text text-anchor="start" x="959.5" y="-1048.8698" font-family="Helvetica,sans-Serif" font-size="11.00" fill="#000000">&lt; 5</text>
<polygon fill="#ffffff" stroke="transparent" points="1049.5,-1042.7698 1049.5,-1061.7698 1097.5,-1061.7698 1097.5,-1042.7698 1049.5,-1042.7698"/>
<polygon fill="none" stroke="#000000" points="1049.5,-1042.7698 1049.5,-1061.7698 1097.5,-1061.7698 1097.5,-1042.7698 1049.5,-1042.7698"/>
<text text-anchor="start" x="1088.3862" y="-1048.8698" font-family="Helvetica,sans-Serif" font-size="11.00" fill="#000000"> &#160;</text>
<polygon fill="#ffffff" stroke="transparent" points="1097.5,-1042.7698 1097.5,-1061.7698 1155.5,-1061.7698 1155.5,-1042.7698 1097.5,-1042.7698"/>
<polygon fill="none" stroke="#000000" points="1097.5,-1042.7698 1097.5,-1061.7698 1155.5,-1061.7698 1155.5,-1042.7698 1097.5,-1042.7698"/>
<text text-anchor="start" x="1136.9053" y="-1048.8698" font-family="Helvetica,sans-Serif" font-size="11.00" fill="#000000">1 &gt;</text>
</a>
</g>
</g>
<!-- form_groups_encounter -->
<g id="node2" class="node">
<title>form_groups_encounter</title>
<g id="a_node2"><a xlink:href="../../tables/form_groups_encounter.html" xlink:title="form_groups_encounter" target="_top">
<polygon fill="#ffffff" stroke="transparent" points="697,-1095.2698 697,-1156.2698 895,-1156.2698 895,-1095.2698 697,-1095.2698"/>
<polygon fill="#f5f5f5" stroke="transparent" points="697,-1132.7698 697,-1155.7698 895,-1155.7698 895,-1132.7698 697,-1132.7698"/>
<polygon fill="none" stroke="#000000" points="697,-1132.7698 697,-1155.7698 895,-1155.7698 895,-1132.7698 697,-1132.7698"/>
<text text-anchor="start" x="702" y="-1141.3698" font-family="Helvetica,sans-Serif" font-weight="bold" font-size="11.00" fill="#000000">form_groups_encounter</text>
<text text-anchor="start" x="860.5219" y="-1140.8698" font-family="Helvetica,sans-Serif" font-size="11.00" fill="#000000">[table]</text>
<polygon fill="none" stroke="#000000" points="697,-1113.7698 697,-1132.7698 895,-1132.7698 895,-1113.7698 697,-1113.7698"/>
<text text-anchor="start" x="700" y="-1119.8698" font-family="Helvetica,sans-Serif" font-size="11.00" fill="#000000">...</text>
<polygon fill="#ffffff" stroke="transparent" points="697,-1094.7698 697,-1113.7698 790,-1113.7698 790,-1094.7698 697,-1094.7698"/>
<polygon fill="none" stroke="#000000" points="697,-1094.7698 697,-1113.7698 790,-1113.7698 790,-1094.7698 697,-1094.7698"/>
<text text-anchor="start" x="700" y="-1100.8698" font-family="Helvetica,sans-Serif" font-size="11.00" fill="#000000">&lt; 7</text>
<polygon fill="#ffffff" stroke="transparent" points="790,-1094.7698 790,-1113.7698 838,-1113.7698 838,-1094.7698 790,-1094.7698"/>
<polygon fill="none" stroke="#000000" points="790,-1094.7698 790,-1113.7698 838,-1113.7698 838,-1094.7698 790,-1094.7698"/>
<text text-anchor="start" x="828.8862" y="-1100.8698" font-family="Helvetica,sans-Serif" font-size="11.00" fill="#000000"> &#160;</text>
<polygon fill="#ffffff" stroke="transparent" points="838,-1094.7698 838,-1113.7698 895,-1113.7698 895,-1094.7698 838,-1094.7698"/>
<polygon fill="none" stroke="#000000" points="838,-1094.7698 838,-1113.7698 895,-1113.7698 895,-1094.7698 838,-1094.7698"/>
<text text-anchor="start" x="876.4053" y="-1100.8698" font-family="Helvetica,sans-Serif" font-size="11.00" fill="#000000">1 &gt;</text>
</a>
</g>
</g>
<!-- form_group_attendance&#45;&gt;form_groups_encounter -->
<g id="edge1" class="edge">
<title>form_group_attendance:w&#45;&gt;form_groups_encounter:e</title>
<path fill="none" stroke="#000000" d="M942.4557,-1074.3439C922.7603,-1086.0922 925.0617,-1122.7698 895,-1122.7698"/>
<polygon fill="#000000" stroke="#000000" points="948.7471,-1072.7429 957.3879,-1074.2586 952.6236,-1071.7563 956.5,-1070.7698 956.5,-1070.7698 956.5,-1070.7698 952.6236,-1071.7563 955.6121,-1067.281 948.7471,-1072.7429 948.7471,-1072.7429"/>
<ellipse fill="none" stroke="#000000" cx="945.646" cy="-1073.5321" rx="3.2" ry="3.2"/>
</g>
<!-- therapy_groups -->
<g id="node3" class="node">
<title>therapy_groups</title>
<g id="a_node3"><a xlink:href="../../tables/therapy_groups.html" xlink:title="therapy_groups" target="_top">
<polygon fill="#ffffff" stroke="transparent" points="305,-1035.2698 305,-1096.2698 449,-1096.2698 449,-1035.2698 305,-1035.2698"/>
<polygon fill="#f5f5f5" stroke="transparent" points="305,-1072.7698 305,-1095.7698 449,-1095.7698 449,-1072.7698 305,-1072.7698"/>
<polygon fill="none" stroke="#000000" points="305,-1072.7698 305,-1095.7698 449,-1095.7698 449,-1072.7698 305,-1072.7698"/>
<text text-anchor="start" x="310" y="-1081.3698" font-family="Helvetica,sans-Serif" font-weight="bold" font-size="11.00" fill="#000000">therapy_groups</text>
<text text-anchor="start" x="414.5219" y="-1080.8698" font-family="Helvetica,sans-Serif" font-size="11.00" fill="#000000">[table]</text>
<polygon fill="none" stroke="#000000" points="305,-1053.7698 305,-1072.7698 449,-1072.7698 449,-1053.7698 305,-1053.7698"/>
<text text-anchor="start" x="308" y="-1059.8698" font-family="Helvetica,sans-Serif" font-size="11.00" fill="#000000">...</text>
<polygon fill="#ffffff" stroke="transparent" points="305,-1034.7698 305,-1053.7698 366,-1053.7698 366,-1034.7698 305,-1034.7698"/>
<polygon fill="none" stroke="#000000" points="305,-1034.7698 305,-1053.7698 366,-1053.7698 366,-1034.7698 305,-1034.7698"/>
<text text-anchor="start" x="308" y="-1040.8698" font-family="Helvetica,sans-Serif" font-size="11.00" fill="#000000"> &#160;</text>
<polygon fill="#ffffff" stroke="transparent" points="366,-1034.7698 366,-1053.7698 403,-1053.7698 403,-1034.7698 366,-1034.7698"/>
<polygon fill="none" stroke="#000000" points="366,-1034.7698 366,-1053.7698 403,-1053.7698 403,-1034.7698 366,-1034.7698"/>
<text text-anchor="start" x="393.8862" y="-1040.8698" font-family="Helvetica,sans-Serif" font-size="11.00" fill="#000000"> &#160;</text>
<polygon fill="#ffffff" stroke="transparent" points="403,-1034.7698 403,-1053.7698 449,-1053.7698 449,-1034.7698 403,-1034.7698"/>
<polygon fill="none" stroke="#000000" points="403,-1034.7698 403,-1053.7698 449,-1053.7698 449,-1034.7698 403,-1034.7698"/>
<text text-anchor="start" x="430.4053" y="-1040.8698" font-family="Helvetica,sans-Serif" font-size="11.00" fill="#000000">6 &gt;</text>
</a>
</g>
</g>
<!-- form_group_attendance&#45;&gt;therapy_groups -->
<g id="edge2" class="edge">
<title>form_group_attendance:w&#45;&gt;therapy_groups:e</title>
<path fill="none" stroke="#000000" d="M941.8715,-1070.7583C728.3591,-1070.4221 669.6269,-1062.7698 449,-1062.7698"/>
<polygon fill="#000000" stroke="#000000" points="948.5,-1070.7635 956.4972,-1074.3698 952.5,-1070.7666 956.5,-1070.7698 956.5,-1070.7698 956.5,-1070.7698 952.5,-1070.7666 956.5028,-1067.1698 948.5,-1070.7635 948.5,-1070.7635"/>
<ellipse fill="none" stroke="#000000" cx="945.3" cy="-1070.7609" rx="3.2" ry="3.2"/>
</g>
<!-- groups -->
<g id="node4" class="node">
<title>groups</title>
<g id="a_node4"><a xlink:href="../../tables/groups.html" xlink:title="groups" target="_top">
<polygon fill="#ffffff" stroke="transparent" points="151,-220.2698 151,-281.2698 237,-281.2698 237,-220.2698 151,-220.2698"/>
<polygon fill="#f5f5f5" stroke="transparent" points="151,-257.7698 151,-280.7698 237,-280.7698 237,-257.7698 151,-257.7698"/>
<polygon fill="none" stroke="#000000" points="151,-257.7698 151,-280.7698 237,-280.7698 237,-257.7698 151,-257.7698"/>
<text text-anchor="start" x="156" y="-266.3698" font-family="Helvetica,sans-Serif" font-weight="bold" font-size="11.00" fill="#000000">groups</text>
<text text-anchor="start" x="202.5219" y="-265.8698" font-family="Helvetica,sans-Serif" font-size="11.00" fill="#000000">[table]</text>
<polygon fill="none" stroke="#000000" points="151,-238.7698 151,-257.7698 237,-257.7698 237,-238.7698 151,-238.7698"/>
<text text-anchor="start" x="154" y="-244.8698" font-family="Helvetica,sans-Serif" font-size="11.00" fill="#000000">...</text>
<polygon fill="#ffffff" stroke="transparent" points="151,-219.7698 151,-238.7698 185,-238.7698 185,-219.7698 151,-219.7698"/>
<polygon fill="none" stroke="#000000" points="151,-219.7698 151,-238.7698 185,-238.7698 185,-219.7698 151,-219.7698"/>
<text text-anchor="start" x="154" y="-225.8698" font-family="Helvetica,sans-Serif" font-size="11.00" fill="#000000">&lt; 1</text>
<polygon fill="#ffffff" stroke="transparent" points="185,-219.7698 185,-238.7698 203,-238.7698 203,-219.7698 185,-219.7698"/>
<polygon fill="none" stroke="#000000" points="185,-219.7698 185,-238.7698 203,-238.7698 203,-219.7698 185,-219.7698"/>
<text text-anchor="start" x="193.8862" y="-225.8698" font-family="Helvetica,sans-Serif" font-size="11.00" fill="#000000"> &#160;</text>
<polygon fill="#ffffff" stroke="transparent" points="203,-219.7698 203,-238.7698 237,-238.7698 237,-219.7698 203,-219.7698"/>
<polygon fill="none" stroke="#000000" points="203,-219.7698 203,-238.7698 237,-238.7698 237,-219.7698 203,-219.7698"/>
<text text-anchor="start" x="212.2904" y="-225.8698" font-family="Helvetica,sans-Serif" font-size="11.00" fill="#000000">17 &gt;</text>
</a>
</g>
</g>
<!-- form_group_attendance&#45;&gt;groups -->
<g id="edge3" class="edge">
<title>form_group_attendance:w&#45;&gt;groups:e</title>
<path fill="none" stroke="#000000" d="M947.231,-1059.6849C907.6209,-953.0139 952.3936,-111.6362 915,-75.7698 820.8549,14.5306 330.982,-129.3363 297,-152.7698 255.8889,-181.1194 286.9382,-247.7698 237,-247.7698"/>
<polygon fill="#000000" stroke="#000000" points="951.3682,-1064.6326 953.7383,-1073.0791 953.9341,-1067.7012 956.5,-1070.7698 956.5,-1070.7698 956.5,-1070.7698 953.9341,-1067.7012 959.2617,-1068.4604 951.3682,-1064.6326 951.3682,-1064.6326"/>
<ellipse fill="none" stroke="#000000" cx="949.3155" cy="-1062.1777" rx="3.2" ry="3.2"/>
</g>
<!-- forms -->
<g id="node5" class="node">
<title>forms</title>
<g id="a_node5"><a xlink:href="../../tables/forms.html" xlink:title="forms" target="_top">
<polygon fill="#ffffff" stroke="transparent" points="498,-569.2698 498,-828.2698 636,-828.2698 636,-569.2698 498,-569.2698"/>
<polygon fill="#f5f5f5" stroke="transparent" points="498,-804.7698 498,-827.7698 636,-827.7698 636,-804.7698 498,-804.7698"/>
<polygon fill="none" stroke="#000000" points="498,-804.7698 498,-827.7698 636,-827.7698 636,-804.7698 498,-804.7698"/>
<text text-anchor="start" x="503" y="-813.3698" font-family="Helvetica,sans-Serif" font-weight="bold" font-size="11.00" fill="#000000">forms</text>
<text text-anchor="start" x="601.0437" y="-812.8698" font-family="Helvetica,sans-Serif" font-size="11.00" fill="#000000">[table]</text>
<polygon fill="none" stroke="#000000" points="498,-782.7698 498,-804.7698 636,-804.7698 636,-782.7698 498,-782.7698"/>
<image xlink:href="../../images/primaryKeys.png" width="11px" height="12px" preserveAspectRatio="xMinYMin meet" x="503" y="-799.77"/>
<text text-anchor="start" x="518" y="-789.8698" font-family="Helvetica,sans-Serif" font-size="11.00" fill="#000000">id</text>
<polygon fill="#ffffff" stroke="transparent" points="498,-760.7698 498,-782.7698 636,-782.7698 636,-760.7698 498,-760.7698"/>
<polygon fill="none" stroke="#000000" points="498,-760.7698 498,-782.7698 636,-782.7698 636,-760.7698 498,-760.7698"/>
<text text-anchor="start" x="518" y="-767.8698" font-family="Helvetica,sans-Serif" font-size="11.00" fill="#000000">encounter</text>
<polygon fill="none" stroke="#000000" points="498,-738.7698 498,-760.7698 636,-760.7698 636,-738.7698 498,-738.7698"/>
<image xlink:href="../../images/primaryKeys.png" width="11px" height="12px" preserveAspectRatio="xMinYMin meet" x="503" y="-755.77"/>
<text text-anchor="start" x="518" y="-745.8698" font-family="Helvetica,sans-Serif" font-size="11.00" fill="#000000">form_id</text>
<polygon fill="#ffffff" stroke="transparent" points="498,-716.7698 498,-738.7698 636,-738.7698 636,-716.7698 498,-716.7698"/>
<polygon fill="none" stroke="#000000" points="498,-716.7698 498,-738.7698 636,-738.7698 636,-716.7698 498,-716.7698"/>
<image xlink:href="../../images/foreignKeys.png" width="11px" height="12px" preserveAspectRatio="xMinYMin meet" x="503" y="-733.77"/>
<text text-anchor="start" x="518" y="-723.8698" font-family="Helvetica,sans-Serif" font-size="11.00" fill="#000000">pid</text>
<polygon fill="none" stroke="#000000" points="498,-694.7698 498,-716.7698 636,-716.7698 636,-694.7698 498,-694.7698"/>
<image xlink:href="../../images/foreignKeys.png" width="11px" height="12px" preserveAspectRatio="xMinYMin meet" x="503" y="-711.77"/>
<text text-anchor="start" x="518" y="-701.8698" font-family="Helvetica,sans-Serif" font-size="11.00" fill="#000000">user</text>
<polygon fill="none" stroke="#000000" points="498,-672.7698 498,-694.7698 636,-694.7698 636,-672.7698 498,-672.7698"/>
<image xlink:href="../../images/foreignKeys.png" width="11px" height="12px" preserveAspectRatio="xMinYMin meet" x="503" y="-689.77"/>
<text text-anchor="start" x="518" y="-679.8698" font-family="Helvetica,sans-Serif" font-size="11.00" fill="#000000">groupname</text>
<polygon fill="none" stroke="#000000" points="498,-650.7698 498,-672.7698 636,-672.7698 636,-650.7698 498,-650.7698"/>
<image xlink:href="../../images/foreignKeys.png" width="11px" height="12px" preserveAspectRatio="xMinYMin meet" x="503" y="-667.77"/>
<text text-anchor="start" x="518" y="-657.8698" font-family="Helvetica,sans-Serif" font-size="11.00" fill="#000000">therapy_group_id</text>
<polygon fill="none" stroke="#000000" points="498,-628.7698 498,-650.7698 636,-650.7698 636,-628.7698 498,-628.7698"/>
<image xlink:href="../../images/foreignKeys.png" width="11px" height="12px" preserveAspectRatio="xMinYMin meet" x="503" y="-645.77"/>
<text text-anchor="start" x="518" y="-635.8698" font-family="Helvetica,sans-Serif" font-size="11.00" fill="#000000">issue_id</text>
<polygon fill="none" stroke="#000000" points="498,-606.7698 498,-628.7698 636,-628.7698 636,-606.7698 498,-606.7698"/>
<image xlink:href="../../images/foreignKeys.png" width="11px" height="12px" preserveAspectRatio="xMinYMin meet" x="503" y="-623.77"/>
<text text-anchor="start" x="518" y="-613.8698" font-family="Helvetica,sans-Serif" font-size="11.00" fill="#000000">provider_id</text>
<polygon fill="none" stroke="#000000" points="498,-587.7698 498,-606.7698 636,-606.7698 636,-587.7698 498,-587.7698"/>
<text text-anchor="start" x="501" y="-593.8698" font-family="Helvetica,sans-Serif" font-size="11.00" fill="#000000">...</text>
<polygon fill="#ffffff" stroke="transparent" points="498,-568.7698 498,-587.7698 558,-587.7698 558,-568.7698 498,-568.7698"/>
<polygon fill="none" stroke="#000000" points="498,-568.7698 498,-587.7698 558,-587.7698 558,-568.7698 498,-568.7698"/>
<text text-anchor="start" x="501" y="-574.8698" font-family="Helvetica,sans-Serif" font-size="11.00" fill="#000000">&lt; 6</text>
<polygon fill="#ffffff" stroke="transparent" points="558,-568.7698 558,-587.7698 589,-587.7698 589,-568.7698 558,-568.7698"/>
<polygon fill="none" stroke="#000000" points="558,-568.7698 558,-587.7698 589,-587.7698 589,-568.7698 558,-568.7698"/>
<text text-anchor="start" x="579.8862" y="-574.8698" font-family="Helvetica,sans-Serif" font-size="11.00" fill="#000000"> &#160;</text>
<polygon fill="#ffffff" stroke="transparent" points="589,-568.7698 589,-587.7698 636,-587.7698 636,-568.7698 589,-568.7698"/>
<polygon fill="none" stroke="#000000" points="589,-568.7698 589,-587.7698 636,-587.7698 636,-568.7698 589,-568.7698"/>
<text text-anchor="start" x="611.2904" y="-574.8698" font-family="Helvetica,sans-Serif" font-size="11.00" fill="#000000">13 &gt;</text>
</a>
</g>
</g>
<!-- form_group_attendance&#45;&gt;forms -->
<g id="edge4" class="edge">
<title>form_group_attendance:w&#45;&gt;forms:e</title>
<path fill="none" stroke="#000000" d="M946.2543,-1068.9667C877.9448,-1042.5535 977.4717,-733.9919 915,-677.7698 875.6873,-642.3898 722.7243,-651.1892 677,-677.7698 645.1639,-696.2768 672.8246,-749.7698 636,-749.7698"/>
<polygon fill="#000000" stroke="#000000" points="956.4054,-1066.6916 955.0188,-1074.5706 953.443,-1074.2933 954.8296,-1066.4143 956.4054,-1066.6916"/>
<polyline fill="none" stroke="#000000" points="956.5,-1070.7698 952.5605,-1070.0765 "/>
<ellipse fill="none" stroke="#000000" cx="949.409" cy="-1069.5218" rx="3.2" ry="3.2"/>
</g>
<!-- users -->
<g id="node6" class="node">
<title>users</title>
<g id="a_node6"><a xlink:href="../../tables/users.html" xlink:title="users" target="_top">
<polygon fill="#ffffff" stroke="transparent" points="8,-490.2698 8,-551.2698 83,-551.2698 83,-490.2698 8,-490.2698"/>
<polygon fill="#f5f5f5" stroke="transparent" points="8.5,-527.7698 8.5,-550.7698 83.5,-550.7698 83.5,-527.7698 8.5,-527.7698"/>
<polygon fill="none" stroke="#000000" points="8.5,-527.7698 8.5,-550.7698 83.5,-550.7698 83.5,-527.7698 8.5,-527.7698"/>
<text text-anchor="start" x="13.5" y="-536.3698" font-family="Helvetica,sans-Serif" font-weight="bold" font-size="11.00" fill="#000000">users</text>
<text text-anchor="start" x="49.0219" y="-535.8698" font-family="Helvetica,sans-Serif" font-size="11.00" fill="#000000">[table]</text>
<polygon fill="none" stroke="#000000" points="8.5,-508.7698 8.5,-527.7698 83.5,-527.7698 83.5,-508.7698 8.5,-508.7698"/>
<text text-anchor="start" x="11.5" y="-514.8698" font-family="Helvetica,sans-Serif" font-size="11.00" fill="#000000">...</text>
<polygon fill="#ffffff" stroke="transparent" points="8.5,-489.7698 8.5,-508.7698 36.5,-508.7698 36.5,-489.7698 8.5,-489.7698"/>
<polygon fill="none" stroke="#000000" points="8.5,-489.7698 8.5,-508.7698 36.5,-508.7698 36.5,-489.7698 8.5,-489.7698"/>
<text text-anchor="start" x="11.5" y="-495.8698" font-family="Helvetica,sans-Serif" font-size="11.00" fill="#000000">&lt; 2</text>
<polygon fill="#ffffff" stroke="transparent" points="36.5,-489.7698 36.5,-508.7698 52.5,-508.7698 52.5,-489.7698 36.5,-489.7698"/>
<polygon fill="none" stroke="#000000" points="36.5,-489.7698 36.5,-508.7698 52.5,-508.7698 52.5,-489.7698 36.5,-489.7698"/>
<text text-anchor="start" x="43.3862" y="-495.8698" font-family="Helvetica,sans-Serif" font-size="11.00" fill="#000000"> &#160;</text>
<polygon fill="#ffffff" stroke="transparent" points="52.5,-489.7698 52.5,-508.7698 83.5,-508.7698 83.5,-489.7698 52.5,-489.7698"/>
<polygon fill="none" stroke="#000000" points="52.5,-489.7698 52.5,-508.7698 83.5,-508.7698 83.5,-489.7698 52.5,-489.7698"/>
<text text-anchor="start" x="58.7904" y="-495.8698" font-family="Helvetica,sans-Serif" font-size="11.00" fill="#000000">61 &gt;</text>
</a>
</g>
</g>
<!-- form_group_attendance&#45;&gt;users -->
<g id="edge5" class="edge">
<title>form_group_attendance:w&#45;&gt;users:e</title>
<path fill="none" stroke="#000000" d="M942.3294,-1074.193C920.0809,-1088.5176 948.2348,-1143.96 915,-1166.7698 787.3749,-1254.3617 721.7918,-1180.7698 567,-1180.7698 567,-1180.7698 567,-1180.7698 377,-1180.7698 37.0171,-1180.7698 107.6175,-517.7698 83.5,-517.7698"/>
<polygon fill="#000000" stroke="#000000" points="948.7237,-1072.6484 957.3454,-1074.2691 952.6118,-1071.7091 956.5,-1070.7698 956.5,-1070.7698 956.5,-1070.7698 952.6118,-1071.7091 955.6546,-1067.2704 948.7237,-1072.6484 948.7237,-1072.6484"/>
<ellipse fill="none" stroke="#000000" cx="945.6132" cy="-1073.3998" rx="3.2" ry="3.2"/>
</g>
<!-- form_groups_encounter&#45;&gt;therapy_groups -->
<g id="edge6" class="edge">
<title>form_groups_encounter:w&#45;&gt;therapy_groups:e</title>
<path fill="none" stroke="#000000" d="M682.2453,-1121.7019C669.2186,-1119.5956 661.8615,-1114.7635 644,-1110.7698 575.5964,-1095.475 557.4937,-1095.6798 490,-1076.7698 471.4587,-1071.5749 468.2553,-1062.7698 449,-1062.7698"/>
<polygon fill="#000000" stroke="#000000" points="689.0209,-1122.1922 696.7401,-1126.3604 693.0104,-1122.481 697,-1122.7698 697,-1122.7698 697,-1122.7698 693.0104,-1122.481 697.2599,-1119.1792 689.0209,-1122.1922 689.0209,-1122.1922"/>
<ellipse fill="none" stroke="#000000" cx="685.8292" cy="-1121.9612" rx="3.2" ry="3.2"/>
</g>
<!-- form_groups_encounter&#45;&gt;forms -->
<g id="edge7" class="edge">
<title>form_groups_encounter:w&#45;&gt;forms:e</title>
<path fill="none" stroke="#000000" d="M686.8025,-1120.5793C622.2361,-1090.0107 716.217,-749.7698 636,-749.7698"/>
<polygon fill="#000000" stroke="#000000" points="697.0579,-1118.691 695.3777,-1126.5125 693.8134,-1126.1765 695.4936,-1118.3549 697.0579,-1118.691"/>
<polyline fill="none" stroke="#000000" points="697,-1122.7698 693.0892,-1121.9297 "/>
<ellipse fill="none" stroke="#000000" cx="689.9606" cy="-1121.2576" rx="3.2" ry="3.2"/>
</g>
<!-- form_groups_encounter&#45;&gt;users -->
<g id="edge8" class="edge">
<title>form_groups_encounter:w&#45;&gt;users:e</title>
<path fill="none" stroke="#000000" d="M682.3759,-1122.965C514.7568,-1127.4429 438.3222,-1206.4994 297,-1106.7698 128.3537,-987.7578 188.2077,-871.9401 124,-675.7698 101.4499,-606.8738 155.9925,-517.7698 83.5,-517.7698"/>
<polygon fill="#000000" stroke="#000000" points="689.0007,-1122.8766 697.0481,-1126.3694 693.0004,-1122.8232 697,-1122.7698 697,-1122.7698 697,-1122.7698 693.0004,-1122.8232 696.9519,-1119.1701 689.0007,-1122.8766 689.0007,-1122.8766"/>
<ellipse fill="none" stroke="#000000" cx="685.801" cy="-1122.9194" rx="3.2" ry="3.2"/>
</g>
<!-- form_groups_encounter&#45;&gt;users -->
<g id="edge9" class="edge">
<title>form_groups_encounter:w&#45;&gt;users:e</title>
<path fill="none" stroke="#000000" d="M682.3686,-1122.9576C514.657,-1127.265 437.886,-1203.2484 297,-1102.7698 128.9497,-982.9177 188.8192,-867.7389 124,-671.7698 101.7755,-604.5781 154.2718,-517.7698 83.5,-517.7698"/>
<polygon fill="#000000" stroke="#000000" points="689.0007,-1122.8725 697.0462,-1126.3695 693.0003,-1122.8212 697,-1122.7698 697,-1122.7698 697,-1122.7698 693.0003,-1122.8212 696.9538,-1119.1701 689.0007,-1122.8725 689.0007,-1122.8725"/>
<ellipse fill="none" stroke="#000000" cx="685.8009" cy="-1122.9136" rx="3.2" ry="3.2"/>
</g>
<!-- groups&#45;&gt;users -->
<g id="edge16" class="edge">
<title>groups:w&#45;&gt;users:e</title>
<path fill="none" stroke="#000000" d="M137.5206,-253.4091C97.9399,-292.182 140.0316,-517.7698 83.5,-517.7698"/>
<polygon fill="#000000" stroke="#000000" points="143.6198,-250.8574 152.3894,-251.0908 147.3099,-249.3136 151,-247.7698 151,-247.7698 151,-247.7698 147.3099,-249.3136 149.6106,-244.4487 143.6198,-250.8574 143.6198,-250.8574"/>
<ellipse fill="none" stroke="#000000" cx="140.6678" cy="-252.0925" rx="3.2" ry="3.2"/>
</g>
<!-- forms&#45;&gt;therapy_groups -->
<g id="edge14" class="edge">
<title>forms:w&#45;&gt;therapy_groups:e</title>
<path fill="none" stroke="#000000" d="M484.0187,-666.0019C423.2269,-708.8583 533.3384,-1062.7698 449,-1062.7698"/>
<polygon fill="#000000" stroke="#000000" points="490.3431,-664.0875 499.043,-665.2154 494.1715,-662.9286 498,-661.7698 498,-661.7698 498,-661.7698 494.1715,-662.9286 496.957,-658.3242 490.3431,-664.0875 490.3431,-664.0875"/>
<ellipse fill="none" stroke="#000000" cx="487.2803" cy="-665.0146" rx="3.2" ry="3.2"/>
</g>
<!-- forms&#45;&gt;groups -->
<g id="edge10" class="edge">
<title>forms:w&#45;&gt;groups:e</title>
<path fill="none" stroke="#000000" d="M483.686,-681.7476C447.7588,-669.568 482.5045,-604.9533 457,-558.7698 403.1363,-461.2335 358.1819,-458.8901 297,-365.7698 264.6935,-316.5984 295.8348,-247.7698 237,-247.7698"/>
<polygon fill="#000000" stroke="#000000" points="490.0787,-682.6507 497.4964,-687.3344 494.0393,-683.2102 498,-683.7698 498,-683.7698 498,-683.7698 494.0393,-683.2102 498.5036,-680.2052 490.0787,-682.6507 490.0787,-682.6507"/>
<ellipse fill="none" stroke="#000000" cx="486.9101" cy="-682.203" rx="3.2" ry="3.2"/>
</g>
<!-- forms&#45;&gt;users -->
<g id="edge13" class="edge">
<title>forms:w&#45;&gt;users:e</title>
<path fill="none" stroke="#000000" d="M483.8634,-621.6654C475.3795,-627.1935 471.2135,-637.0553 457,-640.7698 388.1994,-658.7496 367.4086,-650.7404 297,-640.7698 217.7548,-629.5478 186.5936,-640.6473 124,-590.7698 94.9827,-567.6475 120.6031,-517.7698 83.5,-517.7698"/>
<polygon fill="#000000" stroke="#000000" points="490.2875,-619.8951 498.9564,-621.2404 494.1437,-618.8324 498,-617.7698 498,-617.7698 498,-617.7698 494.1437,-618.8324 497.0436,-614.2991 490.2875,-619.8951 490.2875,-619.8951"/>
<ellipse fill="none" stroke="#000000" cx="487.2025" cy="-620.7453" rx="3.2" ry="3.2"/>
</g>
<!-- forms&#45;&gt;users -->
<g id="edge15" class="edge">
<title>forms:w&#45;&gt;users:e</title>
<path fill="none" stroke="#000000" d="M483.2687,-705.8685C322.9299,-707.9935 239.7027,-742.5351 124,-624.7698 88.364,-588.4985 134.3481,-517.7698 83.5,-517.7698"/>
<polygon fill="#000000" stroke="#000000" points="490.0002,-705.8234 498.0242,-709.3697 494.0001,-705.7966 498,-705.7698 498,-705.7698 498,-705.7698 494.0001,-705.7966 497.9758,-702.1698 490.0002,-705.8234 490.0002,-705.8234"/>
<ellipse fill="none" stroke="#000000" cx="486.8003" cy="-705.8449" rx="3.2" ry="3.2"/>
</g>
<!-- lists -->
<g id="node7" class="node">
<title>lists</title>
<g id="a_node7"><a xlink:href="../../tables/lists.html" xlink:title="lists" target="_top">
<polygon fill="#ffffff" stroke="transparent" points="343.5,-569.2698 343.5,-630.2698 410.5,-630.2698 410.5,-569.2698 343.5,-569.2698"/>
<polygon fill="#f5f5f5" stroke="transparent" points="344,-606.7698 344,-629.7698 411,-629.7698 411,-606.7698 344,-606.7698"/>
<polygon fill="none" stroke="#000000" points="344,-606.7698 344,-629.7698 411,-629.7698 411,-606.7698 344,-606.7698"/>
<text text-anchor="start" x="349" y="-615.3698" font-family="Helvetica,sans-Serif" font-weight="bold" font-size="11.00" fill="#000000">lists</text>
<text text-anchor="start" x="376.5219" y="-614.8698" font-family="Helvetica,sans-Serif" font-size="11.00" fill="#000000">[table]</text>
<polygon fill="none" stroke="#000000" points="344,-587.7698 344,-606.7698 411,-606.7698 411,-587.7698 344,-587.7698"/>
<text text-anchor="start" x="347" y="-593.8698" font-family="Helvetica,sans-Serif" font-size="11.00" fill="#000000">...</text>
<polygon fill="#ffffff" stroke="transparent" points="344,-568.7698 344,-587.7698 374,-587.7698 374,-568.7698 344,-568.7698"/>
<polygon fill="none" stroke="#000000" points="344,-568.7698 344,-587.7698 374,-587.7698 374,-568.7698 344,-568.7698"/>
<text text-anchor="start" x="347" y="-574.8698" font-family="Helvetica,sans-Serif" font-size="11.00" fill="#000000">&lt; 11</text>
<polygon fill="#ffffff" stroke="transparent" points="374,-568.7698 374,-587.7698 388,-587.7698 388,-568.7698 374,-568.7698"/>
<polygon fill="none" stroke="#000000" points="374,-568.7698 374,-587.7698 388,-587.7698 388,-568.7698 374,-568.7698"/>
<text text-anchor="start" x="378.8862" y="-574.8698" font-family="Helvetica,sans-Serif" font-size="11.00" fill="#000000"> &#160;</text>
<polygon fill="#ffffff" stroke="transparent" points="388,-568.7698 388,-587.7698 411,-587.7698 411,-568.7698 388,-568.7698"/>
<polygon fill="none" stroke="#000000" points="388,-568.7698 388,-587.7698 411,-587.7698 411,-568.7698 388,-568.7698"/>
<text text-anchor="start" x="392.4053" y="-574.8698" font-family="Helvetica,sans-Serif" font-size="11.00" fill="#000000">4 &gt;</text>
</a>
</g>
</g>
<!-- forms&#45;&gt;lists -->
<g id="edge11" class="edge">
<title>forms:w&#45;&gt;lists:e</title>
<path fill="none" stroke="#000000" d="M483.6473,-637.9221C454.0217,-629.6916 448.7403,-596.7698 411,-596.7698"/>
<polygon fill="#000000" stroke="#000000" points="490.0655,-638.7483 497.5403,-643.3403 494.0327,-639.259 498,-639.7698 498,-639.7698 498,-639.7698 494.0327,-639.259 498.4597,-636.1992 490.0655,-638.7483 490.0655,-638.7483"/>
<ellipse fill="none" stroke="#000000" cx="486.8917" cy="-638.3397" rx="3.2" ry="3.2"/>
</g>
<!-- patient_data -->
<g id="node8" class="node">
<title>patient_data</title>
<g id="a_node8"><a xlink:href="../../tables/patient_data.html" xlink:title="patient_data" target="_top">
<polygon fill="#ffffff" stroke="transparent" points="132,-490.2698 132,-551.2698 256,-551.2698 256,-490.2698 132,-490.2698"/>
<polygon fill="#f5f5f5" stroke="transparent" points="132,-527.7698 132,-550.7698 256,-550.7698 256,-527.7698 132,-527.7698"/>
<polygon fill="none" stroke="#000000" points="132,-527.7698 132,-550.7698 256,-550.7698 256,-527.7698 132,-527.7698"/>
<text text-anchor="start" x="137" y="-536.3698" font-family="Helvetica,sans-Serif" font-weight="bold" font-size="11.00" fill="#000000">patient_data</text>
<text text-anchor="start" x="221.5219" y="-535.8698" font-family="Helvetica,sans-Serif" font-size="11.00" fill="#000000">[table]</text>
<polygon fill="none" stroke="#000000" points="132,-508.7698 132,-527.7698 256,-527.7698 256,-508.7698 132,-508.7698"/>
<text text-anchor="start" x="135" y="-514.8698" font-family="Helvetica,sans-Serif" font-size="11.00" fill="#000000">...</text>
<polygon fill="#ffffff" stroke="transparent" points="132,-489.7698 132,-508.7698 185,-508.7698 185,-489.7698 132,-489.7698"/>
<polygon fill="none" stroke="#000000" points="132,-489.7698 132,-508.7698 185,-508.7698 185,-489.7698 132,-489.7698"/>
<text text-anchor="start" x="135" y="-495.8698" font-family="Helvetica,sans-Serif" font-size="11.00" fill="#000000">&lt; 5</text>
<polygon fill="#ffffff" stroke="transparent" points="185,-489.7698 185,-508.7698 213,-508.7698 213,-489.7698 185,-489.7698"/>
<polygon fill="none" stroke="#000000" points="185,-489.7698 185,-508.7698 213,-508.7698 213,-489.7698 185,-489.7698"/>
<text text-anchor="start" x="203.8862" y="-495.8698" font-family="Helvetica,sans-Serif" font-size="11.00" fill="#000000"> &#160;</text>
<polygon fill="#ffffff" stroke="transparent" points="213,-489.7698 213,-508.7698 256,-508.7698 256,-489.7698 213,-489.7698"/>
<polygon fill="none" stroke="#000000" points="213,-489.7698 213,-508.7698 256,-508.7698 256,-489.7698 213,-489.7698"/>
<text text-anchor="start" x="231.2904" y="-495.8698" font-family="Helvetica,sans-Serif" font-size="11.00" fill="#000000">85 &gt;</text>
</a>
</g>
</g>
<!-- forms&#45;&gt;patient_data -->
<g id="edge12" class="edge">
<title>forms:w&#45;&gt;patient_data:e</title>
<path fill="none" stroke="#000000" d="M483.3511,-727.6415C396.6621,-726.0399 359.3778,-708.8071 297,-640.7698 258.0588,-598.2954 313.6237,-517.7698 256,-517.7698"/>
<polygon fill="#000000" stroke="#000000" points="490.0003,-727.6997 497.9685,-731.3696 494.0002,-727.7347 498,-727.7698 498,-727.7698 498,-727.7698 494.0002,-727.7347 498.0315,-724.1699 490.0003,-727.6997 490.0003,-727.6997"/>
<ellipse fill="none" stroke="#000000" cx="486.8004" cy="-727.6716" rx="3.2" ry="3.2"/>
</g>
<!-- lists&#45;&gt;groups -->
<g id="edge17" class="edge">
<title>lists:w&#45;&gt;groups:e</title>
<path fill="none" stroke="#000000" d="M329.9413,-592.6072C269.4353,-553.2313 312.8904,-247.7698 237,-247.7698"/>
<polygon fill="#000000" stroke="#000000" points="336.3292,-594.4985 342.9779,-600.2216 340.1646,-595.6341 344,-596.7698 344,-596.7698 344,-596.7698 340.1646,-595.6341 345.0221,-593.3179 336.3292,-594.4985 336.3292,-594.4985"/>
<ellipse fill="none" stroke="#000000" cx="333.2608" cy="-593.59" rx="3.2" ry="3.2"/>
</g>
<!-- lists&#45;&gt;users -->
<g id="edge19" class="edge">
<title>lists:w&#45;&gt;users:e</title>
<path fill="none" stroke="#000000" d="M329.4062,-596.8518C241.4277,-597.8166 206.8202,-606.1881 124,-561.7698 100.5775,-549.2077 110.0786,-517.7698 83.5,-517.7698"/>
<polygon fill="#000000" stroke="#000000" points="336.0001,-596.8148 344.0203,-600.3697 340.0001,-596.7923 344,-596.7698 344,-596.7698 344,-596.7698 340.0001,-596.7923 343.9797,-593.1698 336.0001,-596.8148 336.0001,-596.8148"/>
<ellipse fill="none" stroke="#000000" cx="332.8002" cy="-596.8328" rx="3.2" ry="3.2"/>
</g>
<!-- lists&#45;&gt;patient_data -->
<g id="edge18" class="edge">
<title>lists:w&#45;&gt;patient_data:e</title>
<path fill="none" stroke="#000000" d="M329.7663,-593.9233C315.7594,-587.1506 313.4466,-569.5391 297,-554.7698 278.7377,-538.3699 280.5452,-517.7698 256,-517.7698"/>
<polygon fill="#000000" stroke="#000000" points="336.1553,-595.2009 343.294,-600.2999 340.0777,-595.9854 344,-596.7698 344,-596.7698 344,-596.7698 340.0777,-595.9854 344.706,-593.2397 336.1553,-595.2009 336.1553,-595.2009"/>
<ellipse fill="none" stroke="#000000" cx="333.0175" cy="-594.5734" rx="3.2" ry="3.2"/>
</g>
<!-- patient_data&#45;&gt;users -->
<g id="edge50" class="edge">
<title>patient_data:w&#45;&gt;users:e</title>
<path fill="none" stroke="#000000" d="M120.5947,-508.5434C107.5882,-499.5537 100.6771,-502.6291 83.5,-517.7698"/>
<polygon fill="#000000" stroke="#000000" points="125.7803,-512.7383 129.7358,-520.5686 128.8901,-515.254 132,-517.7698 132,-517.7698 132,-517.7698 128.8901,-515.254 134.2642,-514.9709 125.7803,-512.7383 125.7803,-512.7383"/>
<ellipse fill="none" stroke="#000000" cx="123.2924" cy="-510.7257" rx="3.2" ry="3.2"/>
</g>
<!-- patient_data&#45;&gt;users -->
<g id="edge51" class="edge">
<title>patient_data:w&#45;&gt;users:e</title>
<path fill="none" stroke="#000000" d="M117.9977,-514.3255C106.5912,-512.1686 99.4983,-513.3166 83.5,-517.7698"/>
<polygon fill="#000000" stroke="#000000" points="124.2316,-515.8589 131.1401,-521.2656 128.1158,-516.8143 132,-517.7698 132,-517.7698 132,-517.7698 128.1158,-516.8143 132.8599,-514.274 124.2316,-515.8589 124.2316,-515.8589"/>
<ellipse fill="none" stroke="#000000" cx="121.1242" cy="-515.0945" rx="3.2" ry="3.2"/>
</g>
<!-- patient_data&#45;&gt;users -->
<g id="edge52" class="edge">
<title>patient_data:w&#45;&gt;users:e</title>
<path fill="none" stroke="#000000" d="M117.9977,-521.788C106.5912,-524.3045 99.4983,-522.9651 83.5,-517.7698"/>
<polygon fill="#000000" stroke="#000000" points="124.3104,-519.9765 132.993,-521.2301 128.1552,-518.8731 132,-517.7698 132,-517.7698 132,-517.7698 128.1552,-518.8731 131.007,-514.3094 124.3104,-519.9765 124.3104,-519.9765"/>
<ellipse fill="none" stroke="#000000" cx="121.2345" cy="-520.8592" rx="3.2" ry="3.2"/>
</g>
<!-- patient_data&#45;&gt;users -->
<g id="edge53" class="edge">
<title>patient_data:w&#45;&gt;users:e</title>
<path fill="none" stroke="#000000" d="M120.979,-527.1997C107.7227,-537.0068 100.8455,-533.8635 83.5,-517.7698"/>
<polygon fill="#000000" stroke="#000000" points="125.9214,-522.9708 134.3405,-520.5051 128.9607,-520.3703 132,-517.7698 132,-517.7698 132,-517.7698 128.9607,-520.3703 129.6595,-515.0344 125.9214,-522.9708 125.9214,-522.9708"/>
<ellipse fill="none" stroke="#000000" cx="123.49" cy="-525.0513" rx="3.2" ry="3.2"/>
</g>
<!-- form_clinic_note -->
<g id="node9" class="node">
<title>form_clinic_note</title>
<g id="a_node9"><a xlink:href="../../tables/form_clinic_note.html" xlink:title="form_clinic_note" target="_top">
<polygon fill="#ffffff" stroke="transparent" points="722,-688.2698 722,-749.2698 870,-749.2698 870,-688.2698 722,-688.2698"/>
<polygon fill="#f5f5f5" stroke="transparent" points="722,-725.7698 722,-748.7698 870,-748.7698 870,-725.7698 722,-725.7698"/>
<polygon fill="none" stroke="#000000" points="722,-725.7698 722,-748.7698 870,-748.7698 870,-725.7698 722,-725.7698"/>
<text text-anchor="start" x="727" y="-734.3698" font-family="Helvetica,sans-Serif" font-weight="bold" font-size="11.00" fill="#000000">form_clinic_note</text>
<text text-anchor="start" x="835.5219" y="-733.8698" font-family="Helvetica,sans-Serif" font-size="11.00" fill="#000000">[table]</text>
<polygon fill="none" stroke="#000000" points="722,-706.7698 722,-725.7698 870,-725.7698 870,-706.7698 722,-706.7698"/>
<text text-anchor="start" x="725" y="-712.8698" font-family="Helvetica,sans-Serif" font-size="11.00" fill="#000000">...</text>
<polygon fill="#ffffff" stroke="transparent" points="722,-687.7698 722,-706.7698 794,-706.7698 794,-687.7698 722,-687.7698"/>
<polygon fill="none" stroke="#000000" points="722,-687.7698 722,-706.7698 794,-706.7698 794,-687.7698 722,-687.7698"/>
<text text-anchor="start" x="725" y="-693.8698" font-family="Helvetica,sans-Serif" font-size="11.00" fill="#000000">&lt; 1</text>
<polygon fill="#ffffff" stroke="transparent" points="794,-687.7698 794,-706.7698 832,-706.7698 832,-687.7698 794,-687.7698"/>
<polygon fill="none" stroke="#000000" points="794,-687.7698 794,-706.7698 832,-706.7698 832,-687.7698 794,-687.7698"/>
<text text-anchor="start" x="822.8862" y="-693.8698" font-family="Helvetica,sans-Serif" font-size="11.00" fill="#000000"> &#160;</text>
<polygon fill="#ffffff" stroke="transparent" points="832,-687.7698 832,-706.7698 870,-706.7698 870,-687.7698 832,-687.7698"/>
<polygon fill="none" stroke="#000000" points="832,-687.7698 832,-706.7698 870,-706.7698 870,-687.7698 832,-687.7698"/>
<text text-anchor="start" x="860.8862" y="-693.8698" font-family="Helvetica,sans-Serif" font-size="11.00" fill="#000000"> &#160;</text>
</a>
</g>
</g>
<!-- form_clinic_note&#45;&gt;forms -->
<g id="edge20" class="edge">
<title>form_clinic_note:w&#45;&gt;forms:e</title>
<path fill="none" stroke="#000000" d="M707.423,-717.4097C679.2322,-724.2013 671.6422,-749.7698 636,-749.7698"/>
<polygon fill="#000000" stroke="#000000" points="714.0501,-716.6642 722.4025,-719.3472 718.0251,-716.217 722,-715.7698 722,-715.7698 722,-715.7698 718.0251,-716.217 721.5975,-712.1923 714.0501,-716.6642 714.0501,-716.6642"/>
<ellipse fill="none" stroke="#000000" cx="710.8702" cy="-717.0219" rx="3.2" ry="3.2"/>
</g>
<!-- form_gad7 -->
<g id="node10" class="node">
<title>form_gad7</title>
<g id="a_node10"><a xlink:href="../../tables/form_gad7.html" xlink:title="form_gad7" target="_top">
<polygon fill="#ffffff" stroke="transparent" points="741,-414.2698 741,-475.2698 851,-475.2698 851,-414.2698 741,-414.2698"/>
<polygon fill="#f5f5f5" stroke="transparent" points="741,-451.7698 741,-474.7698 851,-474.7698 851,-451.7698 741,-451.7698"/>
<polygon fill="none" stroke="#000000" points="741,-451.7698 741,-474.7698 851,-474.7698 851,-451.7698 741,-451.7698"/>
<text text-anchor="start" x="746" y="-460.3698" font-family="Helvetica,sans-Serif" font-weight="bold" font-size="11.00" fill="#000000">form_gad7</text>
<text text-anchor="start" x="816.5219" y="-459.8698" font-family="Helvetica,sans-Serif" font-size="11.00" fill="#000000">[table]</text>
<polygon fill="none" stroke="#000000" points="741,-432.7698 741,-451.7698 851,-451.7698 851,-432.7698 741,-432.7698"/>
<text text-anchor="start" x="744" y="-438.8698" font-family="Helvetica,sans-Serif" font-size="11.00" fill="#000000">...</text>
<polygon fill="#ffffff" stroke="transparent" points="741,-413.7698 741,-432.7698 794,-432.7698 794,-413.7698 741,-413.7698"/>
<polygon fill="none" stroke="#000000" points="741,-413.7698 741,-432.7698 794,-432.7698 794,-413.7698 741,-413.7698"/>
<text text-anchor="start" x="744" y="-419.8698" font-family="Helvetica,sans-Serif" font-size="11.00" fill="#000000">&lt; 4</text>
<polygon fill="#ffffff" stroke="transparent" points="794,-413.7698 794,-432.7698 822,-432.7698 822,-413.7698 794,-413.7698"/>
<polygon fill="none" stroke="#000000" points="794,-413.7698 794,-432.7698 822,-432.7698 822,-413.7698 794,-413.7698"/>
<text text-anchor="start" x="812.8862" y="-419.8698" font-family="Helvetica,sans-Serif" font-size="11.00" fill="#000000"> &#160;</text>
<polygon fill="#ffffff" stroke="transparent" points="822,-413.7698 822,-432.7698 851,-432.7698 851,-413.7698 822,-413.7698"/>
<polygon fill="none" stroke="#000000" points="822,-413.7698 822,-432.7698 851,-432.7698 851,-413.7698 822,-413.7698"/>
<text text-anchor="start" x="841.8862" y="-419.8698" font-family="Helvetica,sans-Serif" font-size="11.00" fill="#000000"> &#160;</text>
</a>
</g>
</g>
<!-- form_gad7&#45;&gt;groups -->
<g id="edge21" class="edge">
<title>form_gad7:w&#45;&gt;groups:e</title>
<path fill="none" stroke="#000000" d="M726.5213,-441.6512C529.1182,-438.3666 483.1308,-367.2937 297,-281.7698 269.1488,-268.9726 267.6506,-247.7698 237,-247.7698"/>
<polygon fill="#000000" stroke="#000000" points="733.0003,-441.7042 740.9705,-445.3696 737.0001,-441.737 741,-441.7698 741,-441.7698 741,-441.7698 737.0001,-441.737 741.0295,-438.1699 733.0003,-441.7042 733.0003,-441.7042"/>
<ellipse fill="none" stroke="#000000" cx="729.8004" cy="-441.6779" rx="3.2" ry="3.2"/>
</g>
<!-- form_gad7&#45;&gt;forms -->
<g id="edge22" class="edge">
<title>form_gad7:w&#45;&gt;forms:e</title>
<path fill="none" stroke="#000000" d="M726.4172,-442.8509C702.833,-446.7405 692.5025,-461.1137 677,-485.7698 645.3986,-536.0305 695.3699,-749.7698 636,-749.7698"/>
<polygon fill="#000000" stroke="#000000" points="733.0219,-442.3613 741.2662,-445.3599 737.0109,-442.0655 741,-441.7698 741,-441.7698 741,-441.7698 737.0109,-442.0655 740.7338,-438.1796 733.0219,-442.3613 733.0219,-442.3613"/>
<ellipse fill="none" stroke="#000000" cx="729.8307" cy="-442.5979" rx="3.2" ry="3.2"/>
</g>
<!-- form_gad7&#45;&gt;users -->
<g id="edge24" class="edge">
<title>form_gad7:w&#45;&gt;users:e</title>
<path fill="none" stroke="#000000" d="M726.288,-441.7018C462.9526,-439.2669 371.6834,-372.8436 124,-479.7698 101.3388,-489.5527 108.1827,-517.7698 83.5,-517.7698"/>
<polygon fill="#000000" stroke="#000000" points="733.0001,-441.7328 740.9834,-445.3697 737,-441.7513 741,-441.7698 741,-441.7698 741,-441.7698 737,-441.7513 741.0166,-438.1698 733.0001,-441.7328 733.0001,-441.7328"/>
<ellipse fill="none" stroke="#000000" cx="729.8001" cy="-441.718" rx="3.2" ry="3.2"/>
</g>
<!-- form_gad7&#45;&gt;patient_data -->
<g id="edge23" class="edge">
<title>form_gad7:w&#45;&gt;patient_data:e</title>
<path fill="none" stroke="#000000" d="M726.4904,-442.6316C693.3927,-446.8191 683.1471,-465.1887 644,-473.7698 601.6188,-483.0597 299.3874,-517.7698 256,-517.7698"/>
<polygon fill="#000000" stroke="#000000" points="733.0141,-442.2442 741.2135,-445.3634 737.007,-442.007 741,-441.7698 741,-441.7698 741,-441.7698 737.007,-442.007 740.7865,-438.1761 733.0141,-442.2442 733.0141,-442.2442"/>
<ellipse fill="none" stroke="#000000" cx="729.8197" cy="-442.4339" rx="3.2" ry="3.2"/>
</g>
<!-- form_note -->
<g id="node11" class="node">
<title>form_note</title>
<g id="a_node11"><a xlink:href="../../tables/form_note.html" xlink:title="form_note" target="_top">
<polygon fill="#ffffff" stroke="transparent" points="742.5,-770.2698 742.5,-831.2698 849.5,-831.2698 849.5,-770.2698 742.5,-770.2698"/>
<polygon fill="#f5f5f5" stroke="transparent" points="743,-807.7698 743,-830.7698 850,-830.7698 850,-807.7698 743,-807.7698"/>
<polygon fill="none" stroke="#000000" points="743,-807.7698 743,-830.7698 850,-830.7698 850,-807.7698 743,-807.7698"/>
<text text-anchor="start" x="748" y="-816.3698" font-family="Helvetica,sans-Serif" font-weight="bold" font-size="11.00" fill="#000000">form_note</text>
<text text-anchor="start" x="815.5219" y="-815.8698" font-family="Helvetica,sans-Serif" font-size="11.00" fill="#000000">[table]</text>
<polygon fill="none" stroke="#000000" points="743,-788.7698 743,-807.7698 850,-807.7698 850,-788.7698 743,-788.7698"/>
<text text-anchor="start" x="746" y="-794.8698" font-family="Helvetica,sans-Serif" font-size="11.00" fill="#000000">...</text>
<polygon fill="#ffffff" stroke="transparent" points="743,-769.7698 743,-788.7698 795,-788.7698 795,-769.7698 743,-769.7698"/>
<polygon fill="none" stroke="#000000" points="743,-769.7698 743,-788.7698 795,-788.7698 795,-769.7698 743,-769.7698"/>
<text text-anchor="start" x="746" y="-775.8698" font-family="Helvetica,sans-Serif" font-size="11.00" fill="#000000">&lt; 2</text>
<polygon fill="#ffffff" stroke="transparent" points="795,-769.7698 795,-788.7698 822,-788.7698 822,-769.7698 795,-769.7698"/>
<polygon fill="none" stroke="#000000" points="795,-769.7698 795,-788.7698 822,-788.7698 822,-769.7698 795,-769.7698"/>
<text text-anchor="start" x="812.8862" y="-775.8698" font-family="Helvetica,sans-Serif" font-size="11.00" fill="#000000"> &#160;</text>
<polygon fill="#ffffff" stroke="transparent" points="822,-769.7698 822,-788.7698 850,-788.7698 850,-769.7698 822,-769.7698"/>
<polygon fill="none" stroke="#000000" points="822,-769.7698 822,-788.7698 850,-788.7698 850,-769.7698 822,-769.7698"/>
<text text-anchor="start" x="840.8862" y="-775.8698" font-family="Helvetica,sans-Serif" font-size="11.00" fill="#000000"> &#160;</text>
</a>
</g>
</g>
<!-- form_note&#45;&gt;forms -->
<g id="edge25" class="edge">
<title>form_note:w&#45;&gt;forms:e</title>
<path fill="none" stroke="#000000" d="M728.5434,-796.385C689.8093,-788.5149 682.8278,-749.7698 636,-749.7698"/>
<polygon fill="#000000" stroke="#000000" points="735.0365,-797.0069 742.6567,-801.3534 739.0182,-797.3883 743,-797.7698 743,-797.7698 743,-797.7698 739.0182,-797.3883 743.3433,-794.1862 735.0365,-797.0069 735.0365,-797.0069"/>
<ellipse fill="none" stroke="#000000" cx="731.851" cy="-796.7017" rx="3.2" ry="3.2"/>
</g>
<!-- form_note&#45;&gt;patient_data -->
<g id="edge26" class="edge">
<title>form_note:w&#45;&gt;patient_data:e</title>
<path fill="none" stroke="#000000" d="M728.3455,-798.9119C693.7791,-804.6664 685.418,-830.5325 644,-838.7698 576.8703,-852.1205 554.9231,-860.4407 490,-838.7698 388.2309,-804.7999 355.5876,-783.6497 297,-693.7698 253.1412,-626.4855 336.3167,-517.7698 256,-517.7698"/>
<polygon fill="#000000" stroke="#000000" points="735.0242,-798.3914 743.2797,-801.3589 739.0121,-798.0806 743,-797.7698 743,-797.7698 743,-797.7698 739.0121,-798.0806 742.7203,-794.1806 735.0242,-798.3914 735.0242,-798.3914"/>
<ellipse fill="none" stroke="#000000" cx="731.8339" cy="-798.6401" rx="3.2" ry="3.2"/>
</g>
<!-- form_painmap -->
<g id="node12" class="node">
<title>form_painmap</title>
<g id="a_node12"><a xlink:href="../../tables/form_painmap.html" xlink:title="form_painmap" target="_top">
<polygon fill="#ffffff" stroke="transparent" points="728.5,-332.2698 728.5,-393.2698 863.5,-393.2698 863.5,-332.2698 728.5,-332.2698"/>
<polygon fill="#f5f5f5" stroke="transparent" points="729,-369.7698 729,-392.7698 864,-392.7698 864,-369.7698 729,-369.7698"/>
<polygon fill="none" stroke="#000000" points="729,-369.7698 729,-392.7698 864,-392.7698 864,-369.7698 729,-369.7698"/>
<text text-anchor="start" x="734" y="-378.3698" font-family="Helvetica,sans-Serif" font-weight="bold" font-size="11.00" fill="#000000">form_painmap</text>
<text text-anchor="start" x="829.5219" y="-377.8698" font-family="Helvetica,sans-Serif" font-size="11.00" fill="#000000">[table]</text>
<polygon fill="none" stroke="#000000" points="729,-350.7698 729,-369.7698 864,-369.7698 864,-350.7698 729,-350.7698"/>
<text text-anchor="start" x="732" y="-356.8698" font-family="Helvetica,sans-Serif" font-size="11.00" fill="#000000">...</text>
<polygon fill="#ffffff" stroke="transparent" points="729,-331.7698 729,-350.7698 795,-350.7698 795,-331.7698 729,-331.7698"/>
<polygon fill="none" stroke="#000000" points="729,-331.7698 729,-350.7698 795,-350.7698 795,-331.7698 729,-331.7698"/>
<text text-anchor="start" x="732" y="-337.8698" font-family="Helvetica,sans-Serif" font-size="11.00" fill="#000000">&lt; 4</text>
<polygon fill="#ffffff" stroke="transparent" points="795,-331.7698 795,-350.7698 829,-350.7698 829,-331.7698 795,-331.7698"/>
<polygon fill="none" stroke="#000000" points="795,-331.7698 795,-350.7698 829,-350.7698 829,-331.7698 795,-331.7698"/>
<text text-anchor="start" x="819.8862" y="-337.8698" font-family="Helvetica,sans-Serif" font-size="11.00" fill="#000000"> &#160;</text>
<polygon fill="#ffffff" stroke="transparent" points="829,-331.7698 829,-350.7698 864,-350.7698 864,-331.7698 829,-331.7698"/>
<polygon fill="none" stroke="#000000" points="829,-331.7698 829,-350.7698 864,-350.7698 864,-331.7698 829,-331.7698"/>
<text text-anchor="start" x="854.8862" y="-337.8698" font-family="Helvetica,sans-Serif" font-size="11.00" fill="#000000"> &#160;</text>
</a>
</g>
</g>
<!-- form_painmap&#45;&gt;groups -->
<g id="edge27" class="edge">
<title>form_painmap:w&#45;&gt;groups:e</title>
<path fill="none" stroke="#000000" d="M714.4752,-359.6099C502.7412,-354.902 456.3333,-247.7698 237,-247.7698"/>
<polygon fill="#000000" stroke="#000000" points="721.0005,-359.6817 728.9604,-363.3695 725.0002,-359.7257 729,-359.7698 729,-359.7698 729,-359.7698 725.0002,-359.7257 729.0396,-356.17 721.0005,-359.6817 721.0005,-359.6817"/>
<ellipse fill="none" stroke="#000000" cx="717.8007" cy="-359.6464" rx="3.2" ry="3.2"/>
</g>
<!-- form_painmap&#45;&gt;forms -->
<g id="edge28" class="edge">
<title>form_painmap:w&#45;&gt;forms:e</title>
<path fill="none" stroke="#000000" d="M714.4548,-361.4731C695.7776,-366.4492 688.7028,-381.9996 677,-403.7698 640.3396,-471.9675 713.4268,-749.7698 636,-749.7698"/>
<polygon fill="#000000" stroke="#000000" points="721.0543,-360.7003 729.4187,-363.3453 725.0271,-360.235 729,-359.7698 729,-359.7698 729,-359.7698 725.0271,-360.235 728.5813,-356.1942 721.0543,-360.7003 721.0543,-360.7003"/>
<ellipse fill="none" stroke="#000000" cx="717.876" cy="-361.0725" rx="3.2" ry="3.2"/>
</g>
<!-- form_painmap&#45;&gt;users -->
<g id="edge30" class="edge">
<title>form_painmap:w&#45;&gt;users:e</title>
<path fill="none" stroke="#000000" d="M714.475,-359.6872C454.0405,-356.7299 339.6984,-276.2902 124,-431.7698 89.7272,-456.4743 125.7485,-517.7698 83.5,-517.7698"/>
<polygon fill="#000000" stroke="#000000" points="721.0001,-359.7242 728.9795,-363.3697 725.0001,-359.747 729,-359.7698 729,-359.7698 729,-359.7698 725.0001,-359.747 729.0205,-356.1698 721.0001,-359.7242 721.0001,-359.7242"/>
<ellipse fill="none" stroke="#000000" cx="717.8002" cy="-359.706" rx="3.2" ry="3.2"/>
</g>
<!-- form_painmap&#45;&gt;patient_data -->
<g id="edge29" class="edge">
<title>form_painmap:w&#45;&gt;patient_data:e</title>
<path fill="none" stroke="#000000" d="M714.5166,-360.7575C686.2747,-364.9217 677.2379,-381.3568 644,-392.7698 491.7268,-445.0561 446.3788,-436.7117 297,-496.7698 278.0044,-504.407 276.4734,-517.7698 256,-517.7698"/>
<polygon fill="#000000" stroke="#000000" points="721.0185,-360.3141 729.245,-363.3614 725.0093,-360.0419 729,-359.7698 729,-359.7698 729,-359.7698 725.0093,-360.0419 728.755,-356.1781 721.0185,-360.3141 721.0185,-360.3141"/>
<ellipse fill="none" stroke="#000000" cx="717.826" cy="-360.5319" rx="3.2" ry="3.2"/>
</g>
<!-- form_phq9 -->
<g id="node13" class="node">
<title>form_phq9</title>
<g id="a_node13"><a xlink:href="../../tables/form_phq9.html" xlink:title="form_phq9" target="_top">
<polygon fill="#ffffff" stroke="transparent" points="741,-250.2698 741,-311.2698 851,-311.2698 851,-250.2698 741,-250.2698"/>
<polygon fill="#f5f5f5" stroke="transparent" points="741,-287.7698 741,-310.7698 851,-310.7698 851,-287.7698 741,-287.7698"/>
<polygon fill="none" stroke="#000000" points="741,-287.7698 741,-310.7698 851,-310.7698 851,-287.7698 741,-287.7698"/>
<text text-anchor="start" x="746" y="-296.3698" font-family="Helvetica,sans-Serif" font-weight="bold" font-size="11.00" fill="#000000">form_phq9</text>
<text text-anchor="start" x="816.5219" y="-295.8698" font-family="Helvetica,sans-Serif" font-size="11.00" fill="#000000">[table]</text>
<polygon fill="none" stroke="#000000" points="741,-268.7698 741,-287.7698 851,-287.7698 851,-268.7698 741,-268.7698"/>
<text text-anchor="start" x="744" y="-274.8698" font-family="Helvetica,sans-Serif" font-size="11.00" fill="#000000">...</text>
<polygon fill="#ffffff" stroke="transparent" points="741,-249.7698 741,-268.7698 794,-268.7698 794,-249.7698 741,-249.7698"/>
<polygon fill="none" stroke="#000000" points="741,-249.7698 741,-268.7698 794,-268.7698 794,-249.7698 741,-249.7698"/>
<text text-anchor="start" x="744" y="-255.8698" font-family="Helvetica,sans-Serif" font-size="11.00" fill="#000000">&lt; 4</text>
<polygon fill="#ffffff" stroke="transparent" points="794,-249.7698 794,-268.7698 822,-268.7698 822,-249.7698 794,-249.7698"/>
<polygon fill="none" stroke="#000000" points="794,-249.7698 794,-268.7698 822,-268.7698 822,-249.7698 794,-249.7698"/>
<text text-anchor="start" x="812.8862" y="-255.8698" font-family="Helvetica,sans-Serif" font-size="11.00" fill="#000000"> &#160;</text>
<polygon fill="#ffffff" stroke="transparent" points="822,-249.7698 822,-268.7698 851,-268.7698 851,-249.7698 822,-249.7698"/>
<polygon fill="none" stroke="#000000" points="822,-249.7698 822,-268.7698 851,-268.7698 851,-249.7698 822,-249.7698"/>
<text text-anchor="start" x="841.8862" y="-255.8698" font-family="Helvetica,sans-Serif" font-size="11.00" fill="#000000"> &#160;</text>
</a>
</g>
</g>
<!-- form_phq9&#45;&gt;groups -->
<g id="edge31" class="edge">
<title>form_phq9:w&#45;&gt;groups:e</title>
<path fill="none" stroke="#000000" d="M726.4997,-277.6306C611.0878,-275.3748 579.1892,-246.3324 457,-237.7698 386.0629,-232.7987 367.8688,-231.9045 297,-237.7698 270.0576,-239.9996 264.0345,-247.7698 237,-247.7698"/>
<polygon fill="#000000" stroke="#000000" points="733.0004,-277.6929 740.9654,-281.3696 737.0002,-277.7314 741,-277.7698 741,-277.7698 741,-277.7698 737.0002,-277.7314 741.0346,-274.1699 733.0004,-277.6929 733.0004,-277.6929"/>
<ellipse fill="none" stroke="#000000" cx="729.8005" cy="-277.6622" rx="3.2" ry="3.2"/>
</g>
<!-- form_phq9&#45;&gt;forms -->
<g id="edge32" class="edge">
<title>form_phq9:w&#45;&gt;forms:e</title>
<path fill="none" stroke="#000000" d="M726.3638,-278.8184C702.6054,-282.602 691.7739,-296.6703 677,-321.7698 652.7664,-362.9403 683.7733,-749.7698 636,-749.7698"/>
<polygon fill="#000000" stroke="#000000" points="733.0205,-278.3415 741.2573,-281.3606 737.0102,-278.0556 741,-277.7698 741,-277.7698 741,-277.7698 737.0102,-278.0556 740.7427,-274.179 733.0205,-278.3415 733.0205,-278.3415"/>
<ellipse fill="none" stroke="#000000" cx="729.8286" cy="-278.5702" rx="3.2" ry="3.2"/>
</g>
<!-- form_phq9&#45;&gt;users -->
<g id="edge34" class="edge">
<title>form_phq9:w&#45;&gt;users:e</title>
<path fill="none" stroke="#000000" d="M726.2306,-276.6725C692.7473,-271.3493 683.9471,-248.0905 644,-238.7698 479.0505,-200.2827 433.2572,-216.2189 264,-209.7698 201.8229,-207.4007 170.7779,-168.7401 124,-209.7698 72.1013,-255.2909 152.5336,-517.7698 83.5,-517.7698"/>
<polygon fill="#000000" stroke="#000000" points="733.022,-277.177 740.7333,-281.3599 737.011,-277.4734 741,-277.7698 741,-277.7698 741,-277.7698 737.011,-277.4734 741.2667,-274.1797 733.022,-277.177 733.022,-277.177"/>
<ellipse fill="none" stroke="#000000" cx="729.8308" cy="-276.9399" rx="3.2" ry="3.2"/>
</g>
<!-- form_phq9&#45;&gt;patient_data -->
<g id="edge33" class="edge">
<title>form_phq9:w&#45;&gt;patient_data:e</title>
<path fill="none" stroke="#000000" d="M727.2011,-282.2397C652.5113,-308.2317 301.4799,-438.8945 297,-442.7698 268.269,-467.6232 293.989,-517.7698 256,-517.7698"/>
<polygon fill="#000000" stroke="#000000" points="733.3893,-280.2351 742.1094,-281.1946 737.1947,-279.0024 741,-277.7698 741,-277.7698 741,-277.7698 737.1947,-279.0024 739.8906,-274.345 733.3893,-280.2351 733.3893,-280.2351"/>
<ellipse fill="none" stroke="#000000" cx="730.3451" cy="-281.2213" rx="3.2" ry="3.2"/>
</g>
<!-- form_physical_exam -->
<g id="node14" class="node">
<title>form_physical_exam</title>
<g id="a_node14"><a xlink:href="../../tables/form_physical_exam.html" xlink:title="form_physical_exam" target="_top">
<polygon fill="#ffffff" stroke="transparent" points="685,-934.7698 685,-1046.7698 907,-1046.7698 907,-934.7698 685,-934.7698"/>
<polygon fill="#f5f5f5" stroke="transparent" points="687,-1021.7698 687,-1044.7698 905,-1044.7698 905,-1021.7698 687,-1021.7698"/>
<polygon fill="none" stroke="#000000" points="687,-1021.7698 687,-1044.7698 905,-1044.7698 905,-1021.7698 687,-1021.7698"/>
<text text-anchor="start" x="692" y="-1030.3698" font-family="Helvetica,sans-Serif" font-weight="bold" font-size="11.00" fill="#000000">form_physical_exam</text>
<text text-anchor="start" x="870.0437" y="-1029.8698" font-family="Helvetica,sans-Serif" font-size="11.00" fill="#000000">[table]</text>
<polygon fill="none" stroke="#000000" points="687,-999.7698 687,-1021.7698 843,-1021.7698 843,-999.7698 687,-999.7698"/>
<text text-anchor="start" x="707" y="-1006.8698" font-family="Helvetica,sans-Serif" font-size="11.00" fill="#000000">diagnosis</text>
<polygon fill="none" stroke="#000000" points="843,-999.7698 843,-1021.7698 905,-1021.7698 905,-999.7698 843,-999.7698"/>
<text text-anchor="start" x="845.878" y="-1007.4698" font-family="Helvetica,sans-Serif" font-size="11.00" fill="#000000">unknown[0]</text>
<polygon fill="none" stroke="#000000" points="687,-977.7698 687,-999.7698 843,-999.7698 843,-977.7698 687,-977.7698"/>
<image xlink:href="../../images/foreignKeys.png" width="11px" height="12px" preserveAspectRatio="xMinYMin meet" x="692" y="-994.77"/>
<text text-anchor="start" x="707" y="-984.8698" font-family="Helvetica,sans-Serif" font-size="11.00" fill="#000000">forms_id</text>
<polygon fill="none" stroke="#000000" points="843,-977.7698 843,-999.7698 905,-999.7698 905,-977.7698 843,-977.7698"/>
<text text-anchor="start" x="845.878" y="-985.4698" font-family="Helvetica,sans-Serif" font-size="11.00" fill="#000000">unknown[0]</text>
<polygon fill="none" stroke="#000000" points="687,-955.7698 687,-977.7698 843,-977.7698 843,-955.7698 687,-955.7698"/>
<text text-anchor="start" x="707" y="-962.8698" font-family="Helvetica,sans-Serif" font-size="11.00" fill="#000000">line_id</text>
<polygon fill="none" stroke="#000000" points="843,-955.7698 843,-977.7698 905,-977.7698 905,-955.7698 843,-955.7698"/>
<text text-anchor="start" x="845.878" y="-963.4698" font-family="Helvetica,sans-Serif" font-size="11.00" fill="#000000">unknown[0]</text>
<polygon fill="#ffffff" stroke="transparent" points="687,-936.7698 687,-955.7698 769,-955.7698 769,-936.7698 687,-936.7698"/>
<polygon fill="none" stroke="#000000" points="687,-936.7698 687,-955.7698 769,-955.7698 769,-936.7698 687,-936.7698"/>
<text text-anchor="start" x="690" y="-942.8698" font-family="Helvetica,sans-Serif" font-size="11.00" fill="#000000">&lt; 1</text>
<polygon fill="#ffffff" stroke="transparent" points="769,-936.7698 769,-955.7698 843,-955.7698 843,-936.7698 769,-936.7698"/>
<polygon fill="none" stroke="#000000" points="769,-936.7698 769,-955.7698 843,-955.7698 843,-936.7698 769,-936.7698"/>
<text text-anchor="start" x="833.8862" y="-942.8698" font-family="Helvetica,sans-Serif" font-size="11.00" fill="#000000"> &#160;</text>
<polygon fill="#ffffff" stroke="transparent" points="843,-936.7698 843,-955.7698 905,-955.7698 905,-936.7698 843,-936.7698"/>
<polygon fill="none" stroke="#000000" points="843,-936.7698 843,-955.7698 905,-955.7698 905,-936.7698 843,-936.7698"/>
<text text-anchor="start" x="886.4053" y="-942.8698" font-family="Helvetica,sans-Serif" font-size="11.00" fill="#000000">0 &gt;</text>
<polygon fill="none" stroke="#000000" stroke-width="2" points="686,-935.7698 686,-1045.7698 906,-1045.7698 906,-935.7698 686,-935.7698"/>
</a>
</g>
</g>
<!-- form_physical_exam&#45;&gt;forms -->
<g id="edge35" class="edge">
<title>form_physical_exam:w&#45;&gt;forms:e</title>
<path fill="none" stroke="#000000" d="M672.6488,-986.5798C612.5881,-965.1565 719.9829,-793.7698 636,-793.7698"/>
<polygon fill="#000000" stroke="#000000" points="679.0915,-987.5629 686.4569,-992.3286 683.0458,-988.1663 687,-988.7698 687,-988.7698 687,-988.7698 683.0458,-988.1663 687.5431,-985.211 679.0915,-987.5629 679.0915,-987.5629"/>
<ellipse fill="none" stroke="#000000" cx="675.9282" cy="-987.0802" rx="3.2" ry="3.2"/>
</g>
<!-- form_prior_auth -->
<g id="node15" class="node">
<title>form_prior_auth</title>
<g id="a_node15"><a xlink:href="../../tables/form_prior_auth.html" xlink:title="form_prior_auth" target="_top">
<polygon fill="#ffffff" stroke="transparent" points="723,-578.2698 723,-639.2698 869,-639.2698 869,-578.2698 723,-578.2698"/>
<polygon fill="#f5f5f5" stroke="transparent" points="723,-615.7698 723,-638.7698 869,-638.7698 869,-615.7698 723,-615.7698"/>
<polygon fill="none" stroke="#000000" points="723,-615.7698 723,-638.7698 869,-638.7698 869,-615.7698 723,-615.7698"/>
<text text-anchor="start" x="728" y="-624.3698" font-family="Helvetica,sans-Serif" font-weight="bold" font-size="11.00" fill="#000000">form_prior_auth</text>
<text text-anchor="start" x="834.5219" y="-623.8698" font-family="Helvetica,sans-Serif" font-size="11.00" fill="#000000">[table]</text>
<polygon fill="none" stroke="#000000" points="723,-596.7698 723,-615.7698 869,-615.7698 869,-596.7698 723,-596.7698"/>
<text text-anchor="start" x="726" y="-602.8698" font-family="Helvetica,sans-Serif" font-size="11.00" fill="#000000">...</text>
<polygon fill="#ffffff" stroke="transparent" points="723,-577.7698 723,-596.7698 794,-596.7698 794,-577.7698 723,-577.7698"/>
<polygon fill="none" stroke="#000000" points="723,-577.7698 723,-596.7698 794,-596.7698 794,-577.7698 723,-577.7698"/>
<text text-anchor="start" x="726" y="-583.8698" font-family="Helvetica,sans-Serif" font-size="11.00" fill="#000000">&lt; 2</text>
<polygon fill="#ffffff" stroke="transparent" points="794,-577.7698 794,-596.7698 831,-596.7698 831,-577.7698 794,-577.7698"/>
<polygon fill="none" stroke="#000000" points="794,-577.7698 794,-596.7698 831,-596.7698 831,-577.7698 794,-577.7698"/>
<text text-anchor="start" x="821.8862" y="-583.8698" font-family="Helvetica,sans-Serif" font-size="11.00" fill="#000000"> &#160;</text>
<polygon fill="#ffffff" stroke="transparent" points="831,-577.7698 831,-596.7698 869,-596.7698 869,-577.7698 831,-577.7698"/>
<polygon fill="none" stroke="#000000" points="831,-577.7698 831,-596.7698 869,-596.7698 869,-577.7698 831,-577.7698"/>
<text text-anchor="start" x="859.8862" y="-583.8698" font-family="Helvetica,sans-Serif" font-size="11.00" fill="#000000"> &#160;</text>
</a>
</g>
</g>
<!-- form_prior_auth&#45;&gt;forms -->
<g id="edge36" class="edge">
<title>form_prior_auth:w&#45;&gt;forms:e</title>
<path fill="none" stroke="#000000" d="M708.7104,-608.2774C692.7731,-614.9396 690.1074,-633.9319 677,-653.7698 651.4241,-692.4785 682.395,-749.7698 636,-749.7698"/>
<polygon fill="#000000" stroke="#000000" points="715.1204,-607.1526 723.6223,-609.3156 719.0602,-606.4612 723,-605.7698 723,-605.7698 723,-605.7698 719.0602,-606.4612 722.3777,-602.2239 715.1204,-607.1526 715.1204,-607.1526"/>
<ellipse fill="none" stroke="#000000" cx="711.9686" cy="-607.7057" rx="3.2" ry="3.2"/>
</g>
<!-- form_prior_auth&#45;&gt;patient_data -->
<g id="edge37" class="edge">
<title>form_prior_auth:w&#45;&gt;patient_data:e</title>
<path fill="none" stroke="#000000" d="M708.369,-603.9778C681.6119,-596.739 677.5879,-569.5301 644,-558.7698 496.6186,-511.5539 449.1459,-558.0936 297,-529.7698 278.334,-526.2949 274.9867,-517.7698 256,-517.7698"/>
<polygon fill="#000000" stroke="#000000" points="715.0593,-604.7972 722.5623,-609.3431 719.0297,-605.2835 723,-605.7698 723,-605.7698 723,-605.7698 719.0297,-605.2835 723.4377,-602.1965 715.0593,-604.7972 715.0593,-604.7972"/>
<ellipse fill="none" stroke="#000000" cx="711.8831" cy="-604.4081" rx="3.2" ry="3.2"/>
</g>
<!-- form_sdoh -->
<g id="node16" class="node">
<title>form_sdoh</title>
<g id="a_node16"><a xlink:href="../../tables/form_sdoh.html" xlink:title="form_sdoh" target="_top">
<polygon fill="#ffffff" stroke="transparent" points="741.5,-168.2698 741.5,-229.2698 850.5,-229.2698 850.5,-168.2698 741.5,-168.2698"/>
<polygon fill="#f5f5f5" stroke="transparent" points="742,-205.7698 742,-228.7698 851,-228.7698 851,-205.7698 742,-205.7698"/>
<polygon fill="none" stroke="#000000" points="742,-205.7698 742,-228.7698 851,-228.7698 851,-205.7698 742,-205.7698"/>
<text text-anchor="start" x="747" y="-214.3698" font-family="Helvetica,sans-Serif" font-weight="bold" font-size="11.00" fill="#000000">form_sdoh</text>
<text text-anchor="start" x="816.5219" y="-213.8698" font-family="Helvetica,sans-Serif" font-size="11.00" fill="#000000">[table]</text>
<polygon fill="none" stroke="#000000" points="742,-186.7698 742,-205.7698 851,-205.7698 851,-186.7698 742,-186.7698"/>
<text text-anchor="start" x="745" y="-192.8698" font-family="Helvetica,sans-Serif" font-size="11.00" fill="#000000">...</text>
<polygon fill="#ffffff" stroke="transparent" points="742,-167.7698 742,-186.7698 795,-186.7698 795,-167.7698 742,-167.7698"/>
<polygon fill="none" stroke="#000000" points="742,-167.7698 742,-186.7698 795,-186.7698 795,-167.7698 742,-167.7698"/>
<text text-anchor="start" x="745" y="-173.8698" font-family="Helvetica,sans-Serif" font-size="11.00" fill="#000000">&lt; 4</text>
<polygon fill="#ffffff" stroke="transparent" points="795,-167.7698 795,-186.7698 823,-186.7698 823,-167.7698 795,-167.7698"/>
<polygon fill="none" stroke="#000000" points="795,-167.7698 795,-186.7698 823,-186.7698 823,-167.7698 795,-167.7698"/>
<text text-anchor="start" x="813.8862" y="-173.8698" font-family="Helvetica,sans-Serif" font-size="11.00" fill="#000000"> &#160;</text>
<polygon fill="#ffffff" stroke="transparent" points="823,-167.7698 823,-186.7698 851,-186.7698 851,-167.7698 823,-167.7698"/>
<polygon fill="none" stroke="#000000" points="823,-167.7698 823,-186.7698 851,-186.7698 851,-167.7698 823,-167.7698"/>
<text text-anchor="start" x="841.8862" y="-173.8698" font-family="Helvetica,sans-Serif" font-size="11.00" fill="#000000"> &#160;</text>
</a>
</g>
</g>
<!-- form_sdoh&#45;&gt;groups -->
<g id="edge38" class="edge">
<title>form_sdoh:w&#45;&gt;groups:e</title>
<path fill="none" stroke="#000000" d="M727.4481,-195.7703C540.9656,-195.792 487.4159,-196.652 297,-230.7698 269.7181,-235.658 264.7164,-247.7698 237,-247.7698"/>
<polygon fill="#000000" stroke="#000000" points="734,-195.7701 742.0002,-199.3698 738,-195.7699 742,-195.7698 742,-195.7698 742,-195.7698 738,-195.7699 741.9998,-192.1698 734,-195.7701 734,-195.7701"/>
<ellipse fill="none" stroke="#000000" cx="730.8" cy="-195.7703" rx="3.2" ry="3.2"/>
</g>
<!-- form_sdoh&#45;&gt;forms -->
<g id="edge39" class="edge">
<title>form_sdoh:w&#45;&gt;forms:e</title>
<path fill="none" stroke="#000000" d="M727.5153,-196.7436C703.177,-200.3719 691.8973,-214.2256 677,-239.7698 648.3602,-288.8781 692.8495,-749.7698 636,-749.7698"/>
<polygon fill="#000000" stroke="#000000" points="734.018,-196.3065 742.2415,-199.3617 738.009,-196.0381 742,-195.7698 742,-195.7698 742,-195.7698 738.009,-196.0381 741.7585,-192.1779 734.018,-196.3065 734.018,-196.3065"/>
<ellipse fill="none" stroke="#000000" cx="730.8252" cy="-196.5212" rx="3.2" ry="3.2"/>
</g>
<!-- form_sdoh&#45;&gt;users -->
<g id="edge41" class="edge">
<title>form_sdoh:w&#45;&gt;users:e</title>
<path fill="none" stroke="#000000" d="M727.2454,-195.588C462.323,-189.0625 326.0374,-10.0782 124,-188.7698 68.8221,-237.5717 157.163,-517.7698 83.5,-517.7698"/>
<polygon fill="#000000" stroke="#000000" points="734.0006,-195.6712 741.9556,-199.3695 738.0003,-195.7205 742,-195.7698 742,-195.7698 742,-195.7698 738.0003,-195.7205 742.0444,-192.17 734.0006,-195.6712 734.0006,-195.6712"/>
<ellipse fill="none" stroke="#000000" cx="730.8008" cy="-195.6317" rx="3.2" ry="3.2"/>
</g>
<!-- form_sdoh&#45;&gt;patient_data -->
<g id="edge40" class="edge">
<title>form_sdoh:w&#45;&gt;patient_data:e</title>
<path fill="none" stroke="#000000" d="M727.6465,-197.1613C705.0646,-202.0651 698.2017,-219.3522 677,-239.7698 659.1355,-256.9735 665.027,-271.6176 644,-284.7698 585.0206,-321.6607 557.2409,-294.9325 490,-312.7698 402.0942,-336.0889 359.7481,-314.9375 297,-380.7698 253.1489,-426.7762 319.5571,-517.7698 256,-517.7698"/>
<polygon fill="#000000" stroke="#000000" points="734.0373,-196.5418 742.3474,-199.353 738.0187,-196.1558 742,-195.7698 742,-195.7698 742,-195.7698 738.0187,-196.1558 741.6526,-192.1866 734.0373,-196.5418 734.0373,-196.5418"/>
<ellipse fill="none" stroke="#000000" cx="730.8523" cy="-196.8506" rx="3.2" ry="3.2"/>
</g>
<!-- form_track_anything -->
<g id="node17" class="node">
<title>form_track_anything</title>
<g id="a_node17"><a xlink:href="../../tables/form_track_anything.html" xlink:title="form_track_anything" target="_top">
<polygon fill="#ffffff" stroke="transparent" points="707.5,-496.2698 707.5,-557.2698 884.5,-557.2698 884.5,-496.2698 707.5,-496.2698"/>
<polygon fill="#f5f5f5" stroke="transparent" points="708,-533.7698 708,-556.7698 885,-556.7698 885,-533.7698 708,-533.7698"/>
<polygon fill="none" stroke="#000000" points="708,-533.7698 708,-556.7698 885,-556.7698 885,-533.7698 708,-533.7698"/>
<text text-anchor="start" x="713" y="-542.3698" font-family="Helvetica,sans-Serif" font-weight="bold" font-size="11.00" fill="#000000">form_track_anything</text>
<text text-anchor="start" x="850.5219" y="-541.8698" font-family="Helvetica,sans-Serif" font-size="11.00" fill="#000000">[table]</text>
<polygon fill="none" stroke="#000000" points="708,-514.7698 708,-533.7698 885,-533.7698 885,-514.7698 708,-514.7698"/>
<text text-anchor="start" x="711" y="-520.8698" font-family="Helvetica,sans-Serif" font-size="11.00" fill="#000000">...</text>
<polygon fill="#ffffff" stroke="transparent" points="708,-495.7698 708,-514.7698 790,-514.7698 790,-495.7698 708,-495.7698"/>
<polygon fill="none" stroke="#000000" points="708,-495.7698 708,-514.7698 790,-514.7698 790,-495.7698 708,-495.7698"/>
<text text-anchor="start" x="711" y="-501.8698" font-family="Helvetica,sans-Serif" font-size="11.00" fill="#000000">&lt; 2</text>
<polygon fill="#ffffff" stroke="transparent" points="790,-495.7698 790,-514.7698 833,-514.7698 833,-495.7698 790,-495.7698"/>
<polygon fill="none" stroke="#000000" points="790,-495.7698 790,-514.7698 833,-514.7698 833,-495.7698 790,-495.7698"/>
<text text-anchor="start" x="823.8862" y="-501.8698" font-family="Helvetica,sans-Serif" font-size="11.00" fill="#000000"> &#160;</text>
<polygon fill="#ffffff" stroke="transparent" points="833,-495.7698 833,-514.7698 885,-514.7698 885,-495.7698 833,-495.7698"/>
<polygon fill="none" stroke="#000000" points="833,-495.7698 833,-514.7698 885,-514.7698 885,-495.7698 833,-495.7698"/>
<text text-anchor="start" x="866.4053" y="-501.8698" font-family="Helvetica,sans-Serif" font-size="11.00" fill="#000000">1 &gt;</text>
</a>
</g>
</g>
<!-- form_track_anything&#45;&gt;forms -->
<g id="edge42" class="edge">
<title>form_track_anything:w&#45;&gt;forms:e</title>
<path fill="none" stroke="#000000" d="M697.4506,-525.7838C684.6237,-531.7157 684.9599,-549.8334 677,-567.7698 643.3664,-643.5579 718.916,-749.7698 636,-749.7698"/>
<polygon fill="#000000" stroke="#000000" points="706.464,-519.9908 707.9643,-527.8488 706.3927,-528.1489 704.8924,-520.2908 706.464,-519.9908"/>
<polyline fill="none" stroke="#000000" points="708,-523.7698 704.071,-524.5199 "/>
<ellipse fill="none" stroke="#000000" cx="700.9277" cy="-525.12" rx="3.2" ry="3.2"/>
</g>
<!-- form_track_anything&#45;&gt;patient_data -->
<g id="edge43" class="edge">
<title>form_track_anything:w&#45;&gt;patient_data:e</title>
<path fill="none" stroke="#000000" d="M693.5503,-523.7592C504.553,-523.4804 452.0016,-517.7698 256,-517.7698"/>
<polygon fill="#000000" stroke="#000000" points="700,-523.7639 707.9973,-527.3698 704,-523.7668 708,-523.7698 708,-523.7698 708,-523.7698 704,-523.7668 708.0027,-520.1698 700,-523.7639 700,-523.7639"/>
<ellipse fill="none" stroke="#000000" cx="696.8" cy="-523.7615" rx="3.2" ry="3.2"/>
</g>
<!-- form_transfer_summary -->
<g id="node18" class="node">
<title>form_transfer_summary</title>
<g id="a_node18"><a xlink:href="../../tables/form_transfer_summary.html" xlink:title="form_transfer_summary" target="_top">
<polygon fill="#ffffff" stroke="transparent" points="696,-852.2698 696,-913.2698 896,-913.2698 896,-852.2698 696,-852.2698"/>
<polygon fill="#f5f5f5" stroke="transparent" points="696,-889.7698 696,-912.7698 896,-912.7698 896,-889.7698 696,-889.7698"/>
<polygon fill="none" stroke="#000000" points="696,-889.7698 696,-912.7698 896,-912.7698 896,-889.7698 696,-889.7698"/>
<text text-anchor="start" x="701" y="-898.3698" font-family="Helvetica,sans-Serif" font-weight="bold" font-size="11.00" fill="#000000">form_transfer_summary</text>
<text text-anchor="start" x="861.5219" y="-897.8698" font-family="Helvetica,sans-Serif" font-size="11.00" fill="#000000">[table]</text>
<polygon fill="none" stroke="#000000" points="696,-870.7698 696,-889.7698 896,-889.7698 896,-870.7698 696,-870.7698"/>
<text text-anchor="start" x="699" y="-876.8698" font-family="Helvetica,sans-Serif" font-size="11.00" fill="#000000">...</text>
<polygon fill="#ffffff" stroke="transparent" points="696,-851.7698 696,-870.7698 794,-870.7698 794,-851.7698 696,-851.7698"/>
<polygon fill="none" stroke="#000000" points="696,-851.7698 696,-870.7698 794,-870.7698 794,-851.7698 696,-851.7698"/>
<text text-anchor="start" x="699" y="-857.8698" font-family="Helvetica,sans-Serif" font-size="11.00" fill="#000000">&lt; 2</text>
<polygon fill="#ffffff" stroke="transparent" points="794,-851.7698 794,-870.7698 845,-870.7698 845,-851.7698 794,-851.7698"/>
<polygon fill="none" stroke="#000000" points="794,-851.7698 794,-870.7698 845,-870.7698 845,-851.7698 794,-851.7698"/>
<text text-anchor="start" x="835.8862" y="-857.8698" font-family="Helvetica,sans-Serif" font-size="11.00" fill="#000000"> &#160;</text>
<polygon fill="#ffffff" stroke="transparent" points="845,-851.7698 845,-870.7698 896,-870.7698 896,-851.7698 845,-851.7698"/>
<polygon fill="none" stroke="#000000" points="845,-851.7698 845,-870.7698 896,-870.7698 896,-851.7698 845,-851.7698"/>
<text text-anchor="start" x="886.8862" y="-857.8698" font-family="Helvetica,sans-Serif" font-size="11.00" fill="#000000"> &#160;</text>
</a>
</g>
</g>
<!-- form_transfer_summary&#45;&gt;forms -->
<g id="edge44" class="edge">
<title>form_transfer_summary:w&#45;&gt;forms:e</title>
<path fill="none" stroke="#000000" d="M681.8285,-876.8103C643.3961,-857.4597 693.9176,-749.7698 636,-749.7698"/>
<polygon fill="#000000" stroke="#000000" points="688.1689,-878.1343 695.2641,-883.2937 692.0845,-878.952 696,-879.7698 696,-879.7698 696,-879.7698 692.0845,-878.952 696.7359,-876.2458 688.1689,-878.1343 688.1689,-878.1343"/>
<ellipse fill="none" stroke="#000000" cx="685.0365" cy="-877.4802" rx="3.2" ry="3.2"/>
</g>
<!-- form_transfer_summary&#45;&gt;patient_data -->
<g id="edge45" class="edge">
<title>form_transfer_summary:w&#45;&gt;patient_data:e</title>
<path fill="none" stroke="#000000" d="M681.3544,-879.8423C506.5399,-881.5446 406.5573,-911.3375 297,-769.7698 262.2762,-724.9003 312.7363,-517.7698 256,-517.7698"/>
<polygon fill="#000000" stroke="#000000" points="688.0001,-879.8095 696.0179,-883.3697 692,-879.7896 696,-879.7698 696,-879.7698 696,-879.7698 692,-879.7896 695.9821,-876.1698 688.0001,-879.8095 688.0001,-879.8095"/>
<ellipse fill="none" stroke="#000000" cx="684.8001" cy="-879.8253" rx="3.2" ry="3.2"/>
</g>
<!-- form_treatment_plan -->
<g id="node19" class="node">
<title>form_treatment_plan</title>
<g id="a_node19"><a xlink:href="../../tables/form_treatment_plan.html" xlink:title="form_treatment_plan" target="_top">
<polygon fill="#ffffff" stroke="transparent" points="706,-86.2698 706,-147.2698 886,-147.2698 886,-86.2698 706,-86.2698"/>
<polygon fill="#f5f5f5" stroke="transparent" points="706,-123.7698 706,-146.7698 886,-146.7698 886,-123.7698 706,-123.7698"/>
<polygon fill="none" stroke="#000000" points="706,-123.7698 706,-146.7698 886,-146.7698 886,-123.7698 706,-123.7698"/>
<text text-anchor="start" x="711" y="-132.3698" font-family="Helvetica,sans-Serif" font-weight="bold" font-size="11.00" fill="#000000">form_treatment_plan</text>
<text text-anchor="start" x="851.5219" y="-131.8698" font-family="Helvetica,sans-Serif" font-size="11.00" fill="#000000">[table]</text>
<polygon fill="none" stroke="#000000" points="706,-104.7698 706,-123.7698 886,-123.7698 886,-104.7698 706,-104.7698"/>
<text text-anchor="start" x="709" y="-110.8698" font-family="Helvetica,sans-Serif" font-size="11.00" fill="#000000">...</text>
<polygon fill="#ffffff" stroke="transparent" points="706,-85.7698 706,-104.7698 794,-104.7698 794,-85.7698 706,-85.7698"/>
<polygon fill="none" stroke="#000000" points="706,-85.7698 706,-104.7698 794,-104.7698 794,-85.7698 706,-85.7698"/>
<text text-anchor="start" x="709" y="-91.8698" font-family="Helvetica,sans-Serif" font-size="11.00" fill="#000000">&lt; 4</text>
<polygon fill="#ffffff" stroke="transparent" points="794,-85.7698 794,-104.7698 840,-104.7698 840,-85.7698 794,-85.7698"/>
<polygon fill="none" stroke="#000000" points="794,-85.7698 794,-104.7698 840,-104.7698 840,-85.7698 794,-85.7698"/>
<text text-anchor="start" x="830.8862" y="-91.8698" font-family="Helvetica,sans-Serif" font-size="11.00" fill="#000000"> &#160;</text>
<polygon fill="#ffffff" stroke="transparent" points="840,-85.7698 840,-104.7698 886,-104.7698 886,-85.7698 840,-85.7698"/>
<polygon fill="none" stroke="#000000" points="840,-85.7698 840,-104.7698 886,-104.7698 886,-85.7698 840,-85.7698"/>
<text text-anchor="start" x="876.8862" y="-91.8698" font-family="Helvetica,sans-Serif" font-size="11.00" fill="#000000"> &#160;</text>
</a>
</g>
</g>
<!-- form_treatment_plan&#45;&gt;groups -->
<g id="edge46" class="edge">
<title>form_treatment_plan:w&#45;&gt;groups:e</title>
<path fill="none" stroke="#000000" d="M691.4132,-114.1317C590.7133,-118.7825 377.6564,-167.2978 297,-203.7698 266.8688,-217.3948 270.0686,-247.7698 237,-247.7698"/>
<polygon fill="#000000" stroke="#000000" points="698.0025,-113.9682 706.0893,-117.3687 702.0012,-113.869 706,-113.7698 706,-113.7698 706,-113.7698 702.0012,-113.869 705.9107,-110.1709 698.0025,-113.9682 698.0025,-113.9682"/>
<ellipse fill="none" stroke="#000000" cx="694.8034" cy="-114.0476" rx="3.2" ry="3.2"/>
</g>
<!-- form_treatment_plan&#45;&gt;forms -->
<g id="edge47" class="edge">
<title>form_treatment_plan:w&#45;&gt;forms:e</title>
<path fill="none" stroke="#000000" d="M692.0489,-117.985C682.9346,-125.384 682.5074,-141.4755 677,-157.7698 655.8874,-220.2336 701.9353,-749.7698 636,-749.7698"/>
<polygon fill="#000000" stroke="#000000" points="698.3419,-116.0836 707.0412,-117.2159 702.171,-114.9267 706,-113.7698 706,-113.7698 706,-113.7698 702.171,-114.9267 704.9588,-110.3236 698.3419,-116.0836 698.3419,-116.0836"/>
<ellipse fill="none" stroke="#000000" cx="695.2787" cy="-117.0092" rx="3.2" ry="3.2"/>
</g>
<!-- form_treatment_plan&#45;&gt;users -->
<g id="edge49" class="edge">
<title>form_treatment_plan:w&#45;&gt;users:e</title>
<path fill="none" stroke="#000000" d="M691.3564,-113.5799C442.1877,-107.1242 309.1577,60.7274 124,-112.7698 57.9985,-174.6148 173.9489,-517.7698 83.5,-517.7698"/>
<polygon fill="#000000" stroke="#000000" points="698.0007,-113.666 705.9533,-117.3695 702.0003,-113.7179 706,-113.7698 706,-113.7698 706,-113.7698 702.0003,-113.7179 706.0467,-110.1701 698.0007,-113.666 698.0007,-113.666"/>
<ellipse fill="none" stroke="#000000" cx="694.8009" cy="-113.6245" rx="3.2" ry="3.2"/>
</g>
<!-- form_treatment_plan&#45;&gt;patient_data -->
<g id="edge48" class="edge">
<title>form_treatment_plan:w&#45;&gt;patient_data:e</title>
<path fill="none" stroke="#000000" d="M692.7468,-119.5151C622.7225,-152.1844 300.4749,-313.2474 297,-317.7698 241.7147,-389.7199 346.7374,-517.7698 256,-517.7698"/>
<polygon fill="#000000" stroke="#000000" points="698.66,-116.9517 707.4319,-117.0728 702.33,-115.3608 706,-113.7698 706,-113.7698 706,-113.7698 702.33,-115.3608 704.5681,-110.4668 698.66,-116.9517 698.66,-116.9517"/>
<ellipse fill="none" stroke="#000000" cx="695.724" cy="-118.2245" rx="3.2" ry="3.2"/>
</g>
</g>
</svg>
