<?xml version="1.0" encoding="UTF-8" standalone="no"?>
<!DOCTYPE svg PUBLIC "-//W3C//DTD SVG 1.1//EN"
 "http://www.w3.org/Graphics/SVG/1.1/DTD/svg11.dtd">
<!-- Generated by graphviz version 2.40.1 (20161225.0304)
 -->
<!-- Title: oneDegreeRelationshipsDiagram Pages: 1 -->
<svg width="991pt" height="492pt"
 viewBox="0.00 0.00 991.00 492.20" xmlns="http://www.w3.org/2000/svg" xmlns:xlink="http://www.w3.org/1999/xlink">
<g id="graph0" class="graph" transform="scale(1 1) rotate(0) translate(4 488.2)">
<title>oneDegreeRelationshipsDiagram</title>
<polygon fill="#ffffff" stroke="transparent" points="-4,4 -4,-488.2 987,-488.2 987,4 -4,4"/>
<text text-anchor="middle" x="72.4936" y="-7.3" font-family="Helvetica,sans-Serif" font-size="11.00" fill="#000000">Generated by SchemaSpy</text>
<!-- form_CAMOS_category -->
<g id="node1" class="node">
<title>form_CAMOS_category</title>
<g id="a_node1"><a xlink:href="../../tables/form_CAMOS_category.html" xlink:title="form_CAMOS_category" target="_top">
<polygon fill="#ffffff" stroke="transparent" points="305,-38.2 305,-209.2 479,-209.2 479,-38.2 305,-38.2"/>
<polygon fill="#f5f5f5" stroke="transparent" points="305,-185.7 305,-208.7 479,-208.7 479,-185.7 305,-185.7"/>
<polygon fill="none" stroke="#000000" points="305,-185.7 305,-208.7 479,-208.7 479,-185.7 305,-185.7"/>
<text text-anchor="start" x="310" y="-194.3" font-family="Helvetica,sans-Serif" font-weight="bold" font-size="11.00" fill="#000000">form_CAMOS_category</text>
<text text-anchor="start" x="444.5219" y="-193.8" font-family="Helvetica,sans-Serif" font-size="11.00" fill="#000000">[table]</text>
<polygon fill="none" stroke="#000000" points="305,-163.7 305,-185.7 479,-185.7 479,-163.7 305,-163.7"/>
<image xlink:href="../../images/primaryKeys.png" width="11px" height="12px" preserveAspectRatio="xMinYMin meet" x="310" y="-180.7"/>
<text text-anchor="start" x="334" y="-170.8" font-family="Helvetica,sans-Serif" font-size="11.00" fill="#000000">id</text>
<polygon fill="none" stroke="#000000" points="305,-141.7 305,-163.7 479,-163.7 479,-141.7 305,-141.7"/>
<image xlink:href="../../images/foreignKeys.png" width="11px" height="12px" preserveAspectRatio="xMinYMin meet" x="310" y="-158.7"/>
<text text-anchor="start" x="334" y="-148.8" font-family="Helvetica,sans-Serif" font-size="11.00" fill="#000000">pid</text>
<polygon fill="none" stroke="#000000" points="305,-119.7 305,-141.7 479,-141.7 479,-119.7 305,-119.7"/>
<image xlink:href="../../images/foreignKeys.png" width="11px" height="12px" preserveAspectRatio="xMinYMin meet" x="310" y="-136.7"/>
<text text-anchor="start" x="334" y="-126.8" font-family="Helvetica,sans-Serif" font-size="11.00" fill="#000000">user</text>
<polygon fill="none" stroke="#000000" points="305,-97.7 305,-119.7 479,-119.7 479,-97.7 305,-97.7"/>
<image xlink:href="../../images/foreignKeys.png" width="11px" height="12px" preserveAspectRatio="xMinYMin meet" x="310" y="-114.7"/>
<text text-anchor="start" x="334" y="-104.8" font-family="Helvetica,sans-Serif" font-size="11.00" fill="#000000">groupname</text>
<polygon fill="none" stroke="#000000" points="305,-75.7 305,-97.7 479,-97.7 479,-75.7 305,-75.7"/>
<image xlink:href="../../images/primaryKeys.png" width="11px" height="12px" preserveAspectRatio="xMinYMin meet" x="310" y="-92.7"/>
<text text-anchor="start" x="334" y="-82.8" font-family="Helvetica,sans-Serif" font-size="11.00" fill="#000000">category</text>
<polygon fill="none" stroke="#000000" points="305,-56.7 305,-75.7 479,-75.7 479,-56.7 305,-56.7"/>
<text text-anchor="start" x="308" y="-62.8" font-family="Helvetica,sans-Serif" font-size="11.00" fill="#000000">...</text>
<polygon fill="#ffffff" stroke="transparent" points="305,-37.7 305,-56.7 386,-56.7 386,-37.7 305,-37.7"/>
<polygon fill="none" stroke="#000000" points="305,-37.7 305,-56.7 386,-56.7 386,-37.7 305,-37.7"/>
<text text-anchor="start" x="308" y="-43.8" font-family="Helvetica,sans-Serif" font-size="11.00" fill="#000000">&lt; 3</text>
<polygon fill="#ffffff" stroke="transparent" points="386,-37.7 386,-56.7 428,-56.7 428,-37.7 386,-37.7"/>
<polygon fill="none" stroke="#000000" points="386,-37.7 386,-56.7 428,-56.7 428,-37.7 386,-37.7"/>
<text text-anchor="start" x="418.8862" y="-43.8" font-family="Helvetica,sans-Serif" font-size="11.00" fill="#000000"> &#160;</text>
<polygon fill="#ffffff" stroke="transparent" points="428,-37.7 428,-56.7 479,-56.7 479,-37.7 428,-37.7"/>
<polygon fill="none" stroke="#000000" points="428,-37.7 428,-56.7 479,-56.7 479,-37.7 428,-37.7"/>
<text text-anchor="start" x="460.4053" y="-43.8" font-family="Helvetica,sans-Serif" font-size="11.00" fill="#000000">2 &gt;</text>
</a>
</g>
</g>
<!-- patient_data -->
<g id="node2" class="node">
<title>patient_data</title>
<g id="a_node2"><a xlink:href="../../tables/patient_data.html" xlink:title="patient_data" target="_top">
<polygon fill="#ffffff" stroke="transparent" points="8,-89.2 8,-480.2 256,-480.2 256,-89.2 8,-89.2"/>
<polygon fill="#f5f5f5" stroke="transparent" points="8,-456.7 8,-479.7 256,-479.7 256,-456.7 8,-456.7"/>
<polygon fill="none" stroke="#000000" points="8,-456.7 8,-479.7 256,-479.7 256,-456.7 8,-456.7"/>
<text text-anchor="start" x="13" y="-465.3" font-family="Helvetica,sans-Serif" font-weight="bold" font-size="11.00" fill="#000000">patient_data</text>
<text text-anchor="start" x="221.0437" y="-464.8" font-family="Helvetica,sans-Serif" font-size="11.00" fill="#000000">[table]</text>
<polygon fill="none" stroke="#000000" points="8,-434.7 8,-456.7 256,-456.7 256,-434.7 8,-434.7"/>
<image xlink:href="../../images/primaryKeys.png" width="11px" height="12px" preserveAspectRatio="xMinYMin meet" x="13" y="-451.7"/>
<text text-anchor="start" x="28" y="-441.8" font-family="Helvetica,sans-Serif" font-size="11.00" fill="#000000">id</text>
<polygon fill="#ffffff" stroke="transparent" points="8,-412.7 8,-434.7 256,-434.7 256,-412.7 8,-412.7"/>
<polygon fill="none" stroke="#000000" points="8,-412.7 8,-434.7 256,-434.7 256,-412.7 8,-412.7"/>
<text text-anchor="start" x="28" y="-419.8" font-family="Helvetica,sans-Serif" font-size="11.00" fill="#000000">uuid</text>
<polygon fill="#ffffff" stroke="transparent" points="8,-390.7 8,-412.7 256,-412.7 256,-390.7 8,-390.7"/>
<polygon fill="none" stroke="#000000" points="8,-390.7 8,-412.7 256,-412.7 256,-390.7 8,-390.7"/>
<text text-anchor="start" x="28" y="-397.8" font-family="Helvetica,sans-Serif" font-size="11.00" fill="#000000">fname</text>
<polygon fill="#ffffff" stroke="transparent" points="8,-368.7 8,-390.7 256,-390.7 256,-368.7 8,-368.7"/>
<polygon fill="none" stroke="#000000" points="8,-368.7 8,-390.7 256,-390.7 256,-368.7 8,-368.7"/>
<text text-anchor="start" x="28" y="-375.8" font-family="Helvetica,sans-Serif" font-size="11.00" fill="#000000">lname</text>
<polygon fill="#ffffff" stroke="transparent" points="8,-346.7 8,-368.7 256,-368.7 256,-346.7 8,-346.7"/>
<polygon fill="none" stroke="#000000" points="8,-346.7 8,-368.7 256,-368.7 256,-346.7 8,-346.7"/>
<text text-anchor="start" x="28" y="-353.8" font-family="Helvetica,sans-Serif" font-size="11.00" fill="#000000">DOB</text>
<polygon fill="none" stroke="#000000" points="8,-324.7 8,-346.7 256,-346.7 256,-324.7 8,-324.7"/>
<image xlink:href="../../images/foreignKeys.png" width="11px" height="12px" preserveAspectRatio="xMinYMin meet" x="13" y="-341.7"/>
<text text-anchor="start" x="28" y="-331.8" font-family="Helvetica,sans-Serif" font-size="11.00" fill="#000000">pharmacy_id</text>
<polygon fill="none" stroke="#000000" points="8,-302.7 8,-324.7 256,-324.7 256,-302.7 8,-302.7"/>
<image xlink:href="../../images/foreignKeys.png" width="11px" height="12px" preserveAspectRatio="xMinYMin meet" x="13" y="-319.7"/>
<text text-anchor="start" x="28" y="-309.8" font-family="Helvetica,sans-Serif" font-size="11.00" fill="#000000">providerID</text>
<polygon fill="none" stroke="#000000" points="8,-280.7 8,-302.7 256,-302.7 256,-280.7 8,-280.7"/>
<image xlink:href="../../images/foreignKeys.png" width="11px" height="12px" preserveAspectRatio="xMinYMin meet" x="13" y="-297.7"/>
<text text-anchor="start" x="28" y="-287.8" font-family="Helvetica,sans-Serif" font-size="11.00" fill="#000000">ref_providerID</text>
<polygon fill="none" stroke="#000000" points="8,-258.7 8,-280.7 256,-280.7 256,-258.7 8,-258.7"/>
<image xlink:href="../../images/primaryKeys.png" width="11px" height="12px" preserveAspectRatio="xMinYMin meet" x="13" y="-275.7"/>
<text text-anchor="start" x="28" y="-265.8" font-family="Helvetica,sans-Serif" font-size="11.00" fill="#000000">pid</text>
<polygon fill="none" stroke="#000000" points="8,-236.7 8,-258.7 256,-258.7 256,-236.7 8,-236.7"/>
<image xlink:href="../../images/foreignKeys.png" width="11px" height="12px" preserveAspectRatio="xMinYMin meet" x="13" y="-253.7"/>
<text text-anchor="start" x="28" y="-243.8" font-family="Helvetica,sans-Serif" font-size="11.00" fill="#000000">created_by</text>
<polygon fill="none" stroke="#000000" points="8,-214.7 8,-236.7 256,-236.7 256,-214.7 8,-214.7"/>
<image xlink:href="../../images/foreignKeys.png" width="11px" height="12px" preserveAspectRatio="xMinYMin meet" x="13" y="-231.7"/>
<text text-anchor="start" x="28" y="-221.8" font-family="Helvetica,sans-Serif" font-size="11.00" fill="#000000">updated_by</text>
<polygon fill="none" stroke="#000000" points="8,-192.7 8,-214.7 256,-214.7 256,-192.7 8,-192.7"/>
<image xlink:href="../../images/foreignKeys.png" width="11px" height="12px" preserveAspectRatio="xMinYMin meet" x="13" y="-209.7"/>
<text text-anchor="start" x="28" y="-199.8" font-family="Helvetica,sans-Serif" font-size="11.00" fill="#000000">tribal_affiliations</text>
<polygon fill="none" stroke="#000000" points="8,-170.7 8,-192.7 256,-192.7 256,-170.7 8,-170.7"/>
<image xlink:href="../../images/foreignKeys.png" width="11px" height="12px" preserveAspectRatio="xMinYMin meet" x="13" y="-187.7"/>
<text text-anchor="start" x="28" y="-177.8" font-family="Helvetica,sans-Serif" font-size="11.00" fill="#000000">sex_identified</text>
<polygon fill="none" stroke="#000000" points="8,-148.7 8,-170.7 256,-170.7 256,-148.7 8,-148.7"/>
<image xlink:href="../../images/foreignKeys.png" width="11px" height="12px" preserveAspectRatio="xMinYMin meet" x="13" y="-165.7"/>
<text text-anchor="start" x="28" y="-155.8" font-family="Helvetica,sans-Serif" font-size="11.00" fill="#000000">interpreter_needed</text>
<polygon fill="none" stroke="#000000" points="8,-126.7 8,-148.7 256,-148.7 256,-126.7 8,-126.7"/>
<image xlink:href="../../images/foreignKeys.png" width="11px" height="12px" preserveAspectRatio="xMinYMin meet" x="13" y="-143.7"/>
<text text-anchor="start" x="28" y="-133.8" font-family="Helvetica,sans-Serif" font-size="11.00" fill="#000000">advance_directive_user_authenticator</text>
<polygon fill="none" stroke="#000000" points="8,-107.7 8,-126.7 256,-126.7 256,-107.7 8,-107.7"/>
<text text-anchor="start" x="11" y="-113.8" font-family="Helvetica,sans-Serif" font-size="11.00" fill="#000000">...</text>
<polygon fill="#ffffff" stroke="transparent" points="8,-88.7 8,-107.7 123,-107.7 123,-88.7 8,-88.7"/>
<polygon fill="none" stroke="#000000" points="8,-88.7 8,-107.7 123,-107.7 123,-88.7 8,-88.7"/>
<text text-anchor="start" x="11" y="-94.8" font-family="Helvetica,sans-Serif" font-size="11.00" fill="#000000">&lt; 9</text>
<polygon fill="#ffffff" stroke="transparent" points="123,-88.7 123,-107.7 182,-107.7 182,-88.7 123,-88.7"/>
<polygon fill="none" stroke="#000000" points="123,-88.7 123,-107.7 182,-107.7 182,-88.7 123,-88.7"/>
<text text-anchor="start" x="172.8862" y="-94.8" font-family="Helvetica,sans-Serif" font-size="11.00" fill="#000000"> &#160;</text>
<polygon fill="#ffffff" stroke="transparent" points="182,-88.7 182,-107.7 256,-107.7 256,-88.7 182,-88.7"/>
<polygon fill="none" stroke="#000000" points="182,-88.7 182,-107.7 256,-107.7 256,-88.7 182,-88.7"/>
<text text-anchor="start" x="231.2904" y="-94.8" font-family="Helvetica,sans-Serif" font-size="11.00" fill="#000000">97 &gt;</text>
</a>
</g>
</g>
<!-- form_CAMOS_category&#45;&gt;patient_data -->
<g id="edge1" class="edge">
<title>form_CAMOS_category:w&#45;&gt;patient_data:e</title>
<path fill="none" stroke="#000000" d="M290.8892,-156.3299C260.7353,-176.0782 306.4302,-269.7 256,-269.7"/>
<polygon fill="#000000" stroke="#000000" points="297.2522,-154.6931 305.8969,-156.1865 301.1261,-153.6965 305,-152.7 305,-152.7 305,-152.7 301.1261,-153.6965 304.1031,-149.2135 297.2522,-154.6931 297.2522,-154.6931"/>
<ellipse fill="none" stroke="#000000" cx="294.1531" cy="-155.4903" rx="3.2" ry="3.2"/>
</g>
<!-- form_CAMOS_item -->
<g id="node3" class="node">
<title>form_CAMOS_item</title>
<g id="a_node3"><a xlink:href="../../tables/form_CAMOS_item.html" xlink:title="form_CAMOS_item" target="_top">
<polygon fill="#ffffff" stroke="transparent" points="826,-258.2 826,-451.2 975,-451.2 975,-258.2 826,-258.2"/>
<polygon fill="#f5f5f5" stroke="transparent" points="826.5,-427.7 826.5,-450.7 975.5,-450.7 975.5,-427.7 826.5,-427.7"/>
<polygon fill="none" stroke="#000000" points="826.5,-427.7 826.5,-450.7 975.5,-450.7 975.5,-427.7 826.5,-427.7"/>
<text text-anchor="start" x="831.5" y="-436.3" font-family="Helvetica,sans-Serif" font-weight="bold" font-size="11.00" fill="#000000">form_CAMOS_item</text>
<text text-anchor="start" x="941.0219" y="-435.8" font-family="Helvetica,sans-Serif" font-size="11.00" fill="#000000">[table]</text>
<polygon fill="none" stroke="#000000" points="826.5,-405.7 826.5,-427.7 975.5,-427.7 975.5,-405.7 826.5,-405.7"/>
<image xlink:href="../../images/primaryKeys.png" width="11px" height="12px" preserveAspectRatio="xMinYMin meet" x="831.5" y="-422.7"/>
<text text-anchor="start" x="855.5" y="-412.8" font-family="Helvetica,sans-Serif" font-size="11.00" fill="#000000">id</text>
<polygon fill="none" stroke="#000000" points="826.5,-383.7 826.5,-405.7 975.5,-405.7 975.5,-383.7 826.5,-383.7"/>
<image xlink:href="../../images/foreignKeys.png" width="11px" height="12px" preserveAspectRatio="xMinYMin meet" x="831.5" y="-400.7"/>
<text text-anchor="start" x="855.5" y="-390.8" font-family="Helvetica,sans-Serif" font-size="11.00" fill="#000000">pid</text>
<polygon fill="none" stroke="#000000" points="826.5,-361.7 826.5,-383.7 975.5,-383.7 975.5,-361.7 826.5,-361.7"/>
<image xlink:href="../../images/foreignKeys.png" width="11px" height="12px" preserveAspectRatio="xMinYMin meet" x="831.5" y="-378.7"/>
<text text-anchor="start" x="855.5" y="-368.8" font-family="Helvetica,sans-Serif" font-size="11.00" fill="#000000">user</text>
<polygon fill="none" stroke="#000000" points="826.5,-339.7 826.5,-361.7 975.5,-361.7 975.5,-339.7 826.5,-339.7"/>
<image xlink:href="../../images/foreignKeys.png" width="11px" height="12px" preserveAspectRatio="xMinYMin meet" x="831.5" y="-356.7"/>
<text text-anchor="start" x="855.5" y="-346.8" font-family="Helvetica,sans-Serif" font-size="11.00" fill="#000000">groupname</text>
<polygon fill="none" stroke="#000000" points="826.5,-317.7 826.5,-339.7 975.5,-339.7 975.5,-317.7 826.5,-317.7"/>
<image xlink:href="../../images/primaryKeys.png" width="11px" height="12px" preserveAspectRatio="xMinYMin meet" x="831.5" y="-334.7"/>
<text text-anchor="start" x="855.5" y="-324.8" font-family="Helvetica,sans-Serif" font-size="11.00" fill="#000000">item</text>
<polygon fill="none" stroke="#000000" points="826.5,-295.7 826.5,-317.7 975.5,-317.7 975.5,-295.7 826.5,-295.7"/>
<image xlink:href="../../images/foreignKeys.png" width="11px" height="12px" preserveAspectRatio="xMinYMin meet" x="831.5" y="-312.7"/>
<text text-anchor="start" x="855.5" y="-302.8" font-family="Helvetica,sans-Serif" font-size="11.00" fill="#000000">subcategory_id</text>
<polygon fill="none" stroke="#000000" points="826.5,-276.7 826.5,-295.7 975.5,-295.7 975.5,-276.7 826.5,-276.7"/>
<text text-anchor="start" x="829.5" y="-282.8" font-family="Helvetica,sans-Serif" font-size="11.00" fill="#000000">...</text>
<polygon fill="#ffffff" stroke="transparent" points="826.5,-257.7 826.5,-276.7 894.5,-276.7 894.5,-257.7 826.5,-257.7"/>
<polygon fill="none" stroke="#000000" points="826.5,-257.7 826.5,-276.7 894.5,-276.7 894.5,-257.7 826.5,-257.7"/>
<text text-anchor="start" x="829.5" y="-263.8" font-family="Helvetica,sans-Serif" font-size="11.00" fill="#000000">&lt; 4</text>
<polygon fill="#ffffff" stroke="transparent" points="894.5,-257.7 894.5,-276.7 930.5,-276.7 930.5,-257.7 894.5,-257.7"/>
<polygon fill="none" stroke="#000000" points="894.5,-257.7 894.5,-276.7 930.5,-276.7 930.5,-257.7 894.5,-257.7"/>
<text text-anchor="start" x="921.3862" y="-263.8" font-family="Helvetica,sans-Serif" font-size="11.00" fill="#000000"> &#160;</text>
<polygon fill="#ffffff" stroke="transparent" points="930.5,-257.7 930.5,-276.7 975.5,-276.7 975.5,-257.7 930.5,-257.7"/>
<polygon fill="none" stroke="#000000" points="930.5,-257.7 930.5,-276.7 975.5,-276.7 975.5,-257.7 930.5,-257.7"/>
<text text-anchor="start" x="956.9053" y="-263.8" font-family="Helvetica,sans-Serif" font-size="11.00" fill="#000000">2 &gt;</text>
</a>
</g>
</g>
<!-- form_CAMOS_item&#45;&gt;patient_data -->
<g id="edge2" class="edge">
<title>form_CAMOS_item:w&#45;&gt;patient_data:e</title>
<path fill="none" stroke="#000000" d="M812.0306,-394.6836C686.7326,-394.382 648.8864,-389.6854 520,-360.7 489.729,-353.8923 287.0271,-269.7 256,-269.7"/>
<polygon fill="#000000" stroke="#000000" points="818.5,-394.6909 826.4959,-398.3 822.5,-394.6954 826.5,-394.7 826.5,-394.7 826.5,-394.7 822.5,-394.6954 826.5041,-391.1 818.5,-394.6909 818.5,-394.6909"/>
<ellipse fill="none" stroke="#000000" cx="815.3" cy="-394.6872" rx="3.2" ry="3.2"/>
</g>
<!-- form_CAMOS_subcategory -->
<g id="node4" class="node">
<title>form_CAMOS_subcategory</title>
<g id="a_node4"><a xlink:href="../../tables/form_CAMOS_subcategory.html" xlink:title="form_CAMOS_subcategory" target="_top">
<polygon fill="#ffffff" stroke="transparent" points="528,-105.7 528,-349.7 777,-349.7 777,-105.7 528,-105.7"/>
<polygon fill="#f5f5f5" stroke="transparent" points="530.5,-324.7 530.5,-347.7 775.5,-347.7 775.5,-324.7 530.5,-324.7"/>
<polygon fill="none" stroke="#000000" points="530.5,-324.7 530.5,-347.7 775.5,-347.7 775.5,-324.7 530.5,-324.7"/>
<text text-anchor="start" x="535.5" y="-333.3" font-family="Helvetica,sans-Serif" font-weight="bold" font-size="11.00" fill="#000000">form_CAMOS_subcategory</text>
<text text-anchor="start" x="740.5437" y="-332.8" font-family="Helvetica,sans-Serif" font-size="11.00" fill="#000000">[table]</text>
<polygon fill="none" stroke="#000000" points="530.5,-302.7 530.5,-324.7 708.5,-324.7 708.5,-302.7 530.5,-302.7"/>
<image xlink:href="../../images/primaryKeys.png" width="11px" height="12px" preserveAspectRatio="xMinYMin meet" x="535.5" y="-319.7"/>
<text text-anchor="start" x="550.5" y="-309.8" font-family="Helvetica,sans-Serif" font-size="11.00" fill="#000000">id</text>
<polygon fill="none" stroke="#000000" points="708.5,-302.7 708.5,-324.7 775.5,-324.7 775.5,-302.7 708.5,-302.7"/>
<text text-anchor="start" x="711.5" y="-310.4" font-family="Helvetica,sans-Serif" font-size="11.00" fill="#000000">bigint[19]</text>
<polygon fill="none" stroke="#000000" points="530.5,-280.7 530.5,-302.7 708.5,-302.7 708.5,-280.7 530.5,-280.7"/>
<text text-anchor="start" x="550.5" y="-287.8" font-family="Helvetica,sans-Serif" font-size="11.00" fill="#000000">date</text>
<polygon fill="none" stroke="#000000" points="708.5,-280.7 708.5,-302.7 775.5,-302.7 775.5,-280.7 708.5,-280.7"/>
<text text-anchor="start" x="711.5" y="-288.4" font-family="Helvetica,sans-Serif" font-size="11.00" fill="#000000">datetime[19]</text>
<polygon fill="none" stroke="#000000" points="530.5,-258.7 530.5,-280.7 708.5,-280.7 708.5,-258.7 530.5,-258.7"/>
<image xlink:href="../../images/foreignKeys.png" width="11px" height="12px" preserveAspectRatio="xMinYMin meet" x="535.5" y="-275.7"/>
<text text-anchor="start" x="550.5" y="-265.8" font-family="Helvetica,sans-Serif" font-size="11.00" fill="#000000">pid</text>
<polygon fill="none" stroke="#000000" points="708.5,-258.7 708.5,-280.7 775.5,-280.7 775.5,-258.7 708.5,-258.7"/>
<text text-anchor="start" x="711.5" y="-266.4" font-family="Helvetica,sans-Serif" font-size="11.00" fill="#000000">bigint[19]</text>
<polygon fill="none" stroke="#000000" points="530.5,-236.7 530.5,-258.7 708.5,-258.7 708.5,-236.7 530.5,-236.7"/>
<text text-anchor="start" x="550.5" y="-243.8" font-family="Helvetica,sans-Serif" font-size="11.00" fill="#000000">user</text>
<polygon fill="none" stroke="#000000" points="708.5,-236.7 708.5,-258.7 775.5,-258.7 775.5,-236.7 708.5,-236.7"/>
<text text-anchor="start" x="711.4365" y="-244.4" font-family="Helvetica,sans-Serif" font-size="11.00" fill="#000000">varchar[255]</text>
<polygon fill="none" stroke="#000000" points="530.5,-214.7 530.5,-236.7 708.5,-236.7 708.5,-214.7 530.5,-214.7"/>
<text text-anchor="start" x="550.5" y="-221.8" font-family="Helvetica,sans-Serif" font-size="11.00" fill="#000000">groupname</text>
<polygon fill="none" stroke="#000000" points="708.5,-214.7 708.5,-236.7 775.5,-236.7 775.5,-214.7 708.5,-214.7"/>
<text text-anchor="start" x="711.4365" y="-222.4" font-family="Helvetica,sans-Serif" font-size="11.00" fill="#000000">varchar[255]</text>
<polygon fill="none" stroke="#000000" points="530.5,-192.7 530.5,-214.7 708.5,-214.7 708.5,-192.7 530.5,-192.7"/>
<text text-anchor="start" x="550.5" y="-199.8" font-family="Helvetica,sans-Serif" font-size="11.00" fill="#000000">authorized</text>
<polygon fill="none" stroke="#000000" points="708.5,-192.7 708.5,-214.7 775.5,-214.7 775.5,-192.7 708.5,-192.7"/>
<text text-anchor="start" x="711.5" y="-200.4" font-family="Helvetica,sans-Serif" font-size="11.00" fill="#000000">tinyint[3]</text>
<polygon fill="none" stroke="#000000" points="530.5,-170.7 530.5,-192.7 708.5,-192.7 708.5,-170.7 530.5,-170.7"/>
<text text-anchor="start" x="550.5" y="-177.8" font-family="Helvetica,sans-Serif" font-size="11.00" fill="#000000">activity</text>
<polygon fill="none" stroke="#000000" points="708.5,-170.7 708.5,-192.7 775.5,-192.7 775.5,-170.7 708.5,-170.7"/>
<text text-anchor="start" x="711.5" y="-178.4" font-family="Helvetica,sans-Serif" font-size="11.00" fill="#000000">tinyint[3]</text>
<polygon fill="none" stroke="#000000" points="530.5,-148.7 530.5,-170.7 708.5,-170.7 708.5,-148.7 530.5,-148.7"/>
<text text-anchor="start" x="550.5" y="-155.8" font-family="Helvetica,sans-Serif" font-size="11.00" fill="#000000">subcategory</text>
<polygon fill="none" stroke="#000000" points="708.5,-148.7 708.5,-170.7 775.5,-170.7 775.5,-148.7 708.5,-148.7"/>
<text text-anchor="start" x="711.5" y="-156.4" font-family="Helvetica,sans-Serif" font-size="11.00" fill="#000000">text[65535]</text>
<polygon fill="none" stroke="#000000" points="530.5,-126.7 530.5,-148.7 708.5,-148.7 708.5,-126.7 530.5,-126.7"/>
<image xlink:href="../../images/foreignKeys.png" width="11px" height="12px" preserveAspectRatio="xMinYMin meet" x="535.5" y="-143.7"/>
<text text-anchor="start" x="550.5" y="-133.8" font-family="Helvetica,sans-Serif" font-size="11.00" fill="#000000">category_id</text>
<polygon fill="none" stroke="#000000" points="708.5,-126.7 708.5,-148.7 775.5,-148.7 775.5,-126.7 708.5,-126.7"/>
<text text-anchor="start" x="711.5" y="-134.4" font-family="Helvetica,sans-Serif" font-size="11.00" fill="#000000">bigint[19]</text>
<polygon fill="#ffffff" stroke="transparent" points="530.5,-107.7 530.5,-126.7 623.5,-126.7 623.5,-107.7 530.5,-107.7"/>
<polygon fill="none" stroke="#000000" points="530.5,-107.7 530.5,-126.7 623.5,-126.7 623.5,-107.7 530.5,-107.7"/>
<text text-anchor="start" x="533.5" y="-113.8" font-family="Helvetica,sans-Serif" font-size="11.00" fill="#000000">&lt; 2</text>
<polygon fill="#ffffff" stroke="transparent" points="623.5,-107.7 623.5,-126.7 708.5,-126.7 708.5,-107.7 623.5,-107.7"/>
<polygon fill="none" stroke="#000000" points="623.5,-107.7 623.5,-126.7 708.5,-126.7 708.5,-107.7 623.5,-107.7"/>
<text text-anchor="start" x="699.3862" y="-113.8" font-family="Helvetica,sans-Serif" font-size="11.00" fill="#000000"> &#160;</text>
<polygon fill="#ffffff" stroke="transparent" points="708.5,-107.7 708.5,-126.7 775.5,-126.7 775.5,-107.7 708.5,-107.7"/>
<polygon fill="none" stroke="#000000" points="708.5,-107.7 708.5,-126.7 775.5,-126.7 775.5,-107.7 708.5,-107.7"/>
<text text-anchor="start" x="756.9053" y="-113.8" font-family="Helvetica,sans-Serif" font-size="11.00" fill="#000000">1 &gt;</text>
<polygon fill="none" stroke="#000000" stroke-width="2" points="529,-106.7 529,-348.7 776,-348.7 776,-106.7 529,-106.7"/>
</a>
</g>
</g>
<!-- form_CAMOS_item&#45;&gt;form_CAMOS_subcategory -->
<g id="edge3" class="edge">
<title>form_CAMOS_item:w&#45;&gt;form_CAMOS_subcategory:e</title>
<path fill="none" stroke="#000000" d="M812.0965,-307.7938C799.8977,-309.7625 792.6594,-313.7 775.5,-313.7"/>
<polygon fill="#000000" stroke="#000000" points="818.523,-307.3058 826.7726,-310.2897 822.5115,-307.0029 826.5,-306.7 826.5,-306.7 826.5,-306.7 822.5115,-307.0029 826.2274,-303.1103 818.523,-307.3058 818.523,-307.3058"/>
<ellipse fill="none" stroke="#000000" cx="815.3322" cy="-307.5481" rx="3.2" ry="3.2"/>
</g>
<!-- form_CAMOS_subcategory&#45;&gt;form_CAMOS_category -->
<g id="edge4" class="edge">
<title>form_CAMOS_subcategory:w&#45;&gt;form_CAMOS_category:e</title>
<path fill="none" stroke="#000000" d="M516.4564,-141.9444C502.8991,-151.6631 501.2387,-174.7 479,-174.7"/>
<polygon fill="#000000" stroke="#000000" points="522.8421,-140.0145 531.5415,-141.1461 526.671,-138.8572 530.5,-137.7 530.5,-137.7 530.5,-137.7 526.671,-138.8572 529.4585,-134.2539 522.8421,-140.0145 522.8421,-140.0145"/>
<ellipse fill="none" stroke="#000000" cx="519.7789" cy="-140.9403" rx="3.2" ry="3.2"/>
</g>
<!-- form_CAMOS_subcategory&#45;&gt;patient_data -->
<g id="edge5" class="edge">
<title>form_CAMOS_subcategory:w&#45;&gt;patient_data:e</title>
<path fill="none" stroke="#000000" d="M515.9374,-269.7C405.8441,-269.7 372.9961,-269.7 256,-269.7"/>
<polygon fill="#000000" stroke="#000000" points="522.5,-269.7001 530.5,-273.3 526.5,-269.7 530.5,-269.7 530.5,-269.7 530.5,-269.7 526.5,-269.7 530.5,-266.1 522.5,-269.7001 522.5,-269.7001"/>
<ellipse fill="none" stroke="#000000" cx="519.3" cy="-269.7001" rx="3.2" ry="3.2"/>
</g>
</g>
</svg>
