<?xml version="1.0" encoding="UTF-8" standalone="no"?>
<!DOCTYPE svg PUBLIC "-//W3C//DTD SVG 1.1//EN"
 "http://www.w3.org/Graphics/SVG/1.1/DTD/svg11.dtd">
<!-- Generated by graphviz version 2.40.1 (20161225.0304)
 -->
<!-- Title: oneDegreeRelationshipsDiagram Pages: 1 -->
<svg width="511pt" height="463pt"
 viewBox="0.00 0.00 511.00 462.70" xmlns="http://www.w3.org/2000/svg" xmlns:xlink="http://www.w3.org/1999/xlink">
<g id="graph0" class="graph" transform="scale(1 1) rotate(0) translate(4 458.7)">
<title>oneDegreeRelationshipsDiagram</title>
<polygon fill="#ffffff" stroke="transparent" points="-4,4 -4,-458.7 507,-458.7 507,4 -4,4"/>
<text text-anchor="middle" x="72.4936" y="-7.3" font-family="Helvetica,sans-Serif" font-size="11.00" fill="#000000">Generated by SchemaSpy</text>
<!-- form_physical_exam -->
<g id="node1" class="node">
<title>form_physical_exam</title>
<g id="a_node1"><a xlink:href="../../tables/form_physical_exam.html" xlink:title="form_physical_exam" target="_top">
<polygon fill="#ffffff" stroke="transparent" points="282,-38.2 282,-216.2 495,-216.2 495,-38.2 282,-38.2"/>
<polygon fill="#f5f5f5" stroke="transparent" points="284.5,-191.2 284.5,-214.2 493.5,-214.2 493.5,-191.2 284.5,-191.2"/>
<polygon fill="none" stroke="#000000" points="284.5,-191.2 284.5,-214.2 493.5,-214.2 493.5,-191.2 284.5,-191.2"/>
<text text-anchor="start" x="289.5" y="-199.8" font-family="Helvetica,sans-Serif" font-weight="bold" font-size="11.00" fill="#000000">form_physical_exam</text>
<text text-anchor="start" x="458.5437" y="-199.3" font-family="Helvetica,sans-Serif" font-size="11.00" fill="#000000">[table]</text>
<polygon fill="none" stroke="#000000" points="284.5,-169.2 284.5,-191.2 426.5,-191.2 426.5,-169.2 284.5,-169.2"/>
<image xlink:href="../../images/primaryKeys.png" width="11px" height="12px" preserveAspectRatio="xMinYMin meet" x="289.5" y="-186.2"/>
<text text-anchor="start" x="304.5" y="-176.3" font-family="Helvetica,sans-Serif" font-size="11.00" fill="#000000">forms_id</text>
<polygon fill="none" stroke="#000000" points="426.5,-169.2 426.5,-191.2 493.5,-191.2 493.5,-169.2 426.5,-169.2"/>
<text text-anchor="start" x="429.5" y="-176.9" font-family="Helvetica,sans-Serif" font-size="11.00" fill="#000000">bigint[19]</text>
<polygon fill="none" stroke="#000000" points="284.5,-147.2 284.5,-169.2 426.5,-169.2 426.5,-147.2 284.5,-147.2"/>
<image xlink:href="../../images/primaryKeys.png" width="11px" height="12px" preserveAspectRatio="xMinYMin meet" x="289.5" y="-164.2"/>
<text text-anchor="start" x="304.5" y="-154.3" font-family="Helvetica,sans-Serif" font-size="11.00" fill="#000000">line_id</text>
<polygon fill="none" stroke="#000000" points="426.5,-147.2 426.5,-169.2 493.5,-169.2 493.5,-147.2 426.5,-147.2"/>
<text text-anchor="start" x="429.5" y="-154.9" font-family="Helvetica,sans-Serif" font-size="11.00" fill="#000000">char[8]</text>
<polygon fill="none" stroke="#000000" points="284.5,-125.2 284.5,-147.2 426.5,-147.2 426.5,-125.2 284.5,-125.2"/>
<text text-anchor="start" x="304.5" y="-132.3" font-family="Helvetica,sans-Serif" font-size="11.00" fill="#000000">wnl</text>
<polygon fill="none" stroke="#000000" points="426.5,-125.2 426.5,-147.2 493.5,-147.2 493.5,-125.2 426.5,-125.2"/>
<text text-anchor="start" x="429.5" y="-132.9" font-family="Helvetica,sans-Serif" font-size="11.00" fill="#000000">boolean[3]</text>
<polygon fill="none" stroke="#000000" points="284.5,-103.2 284.5,-125.2 426.5,-125.2 426.5,-103.2 284.5,-103.2"/>
<text text-anchor="start" x="304.5" y="-110.3" font-family="Helvetica,sans-Serif" font-size="11.00" fill="#000000">abn</text>
<polygon fill="none" stroke="#000000" points="426.5,-103.2 426.5,-125.2 493.5,-125.2 493.5,-103.2 426.5,-103.2"/>
<text text-anchor="start" x="429.5" y="-110.9" font-family="Helvetica,sans-Serif" font-size="11.00" fill="#000000">boolean[3]</text>
<polygon fill="none" stroke="#000000" points="284.5,-81.2 284.5,-103.2 426.5,-103.2 426.5,-81.2 284.5,-81.2"/>
<image xlink:href="../../images/foreignKeys.png" width="11px" height="12px" preserveAspectRatio="xMinYMin meet" x="289.5" y="-98.2"/>
<text text-anchor="start" x="304.5" y="-88.3" font-family="Helvetica,sans-Serif" font-size="11.00" fill="#000000">diagnosis</text>
<polygon fill="none" stroke="#000000" points="426.5,-81.2 426.5,-103.2 493.5,-103.2 493.5,-81.2 426.5,-81.2"/>
<text text-anchor="start" x="429.4365" y="-88.9" font-family="Helvetica,sans-Serif" font-size="11.00" fill="#000000">varchar[255]</text>
<polygon fill="none" stroke="#000000" points="284.5,-59.2 284.5,-81.2 426.5,-81.2 426.5,-59.2 284.5,-59.2"/>
<text text-anchor="start" x="304.5" y="-66.3" font-family="Helvetica,sans-Serif" font-size="11.00" fill="#000000">comments</text>
<polygon fill="none" stroke="#000000" points="426.5,-59.2 426.5,-81.2 493.5,-81.2 493.5,-59.2 426.5,-59.2"/>
<text text-anchor="start" x="429.4365" y="-66.9" font-family="Helvetica,sans-Serif" font-size="11.00" fill="#000000">varchar[255]</text>
<polygon fill="#ffffff" stroke="transparent" points="284.5,-40.2 284.5,-59.2 359.5,-59.2 359.5,-40.2 284.5,-40.2"/>
<polygon fill="none" stroke="#000000" points="284.5,-40.2 284.5,-59.2 359.5,-59.2 359.5,-40.2 284.5,-40.2"/>
<text text-anchor="start" x="287.5" y="-46.3" font-family="Helvetica,sans-Serif" font-size="11.00" fill="#000000">&lt; 3</text>
<polygon fill="#ffffff" stroke="transparent" points="359.5,-40.2 359.5,-59.2 426.5,-59.2 426.5,-40.2 359.5,-40.2"/>
<polygon fill="none" stroke="#000000" points="359.5,-40.2 359.5,-59.2 426.5,-59.2 426.5,-40.2 359.5,-40.2"/>
<text text-anchor="start" x="417.3862" y="-46.3" font-family="Helvetica,sans-Serif" font-size="11.00" fill="#000000"> &#160;</text>
<polygon fill="#ffffff" stroke="transparent" points="426.5,-40.2 426.5,-59.2 493.5,-59.2 493.5,-40.2 426.5,-40.2"/>
<polygon fill="none" stroke="#000000" points="426.5,-40.2 426.5,-59.2 493.5,-59.2 493.5,-40.2 426.5,-40.2"/>
<text text-anchor="start" x="474.9053" y="-46.3" font-family="Helvetica,sans-Serif" font-size="11.00" fill="#000000">0 &gt;</text>
<polygon fill="none" stroke="#000000" stroke-width="2" points="283,-39.2 283,-215.2 494,-215.2 494,-39.2 283,-39.2"/>
</a>
</g>
</g>
<!-- form_physical_exam_diagnoses -->
<g id="node2" class="node">
<title>form_physical_exam_diagnoses</title>
<g id="a_node2"><a xlink:href="../../tables/form_physical_exam_diagnoses.html" xlink:title="form_physical_exam_diagnoses" target="_top">
<polygon fill="#ffffff" stroke="transparent" points="8,-62.2 8,-170.2 233,-170.2 233,-62.2 8,-62.2"/>
<polygon fill="#f5f5f5" stroke="transparent" points="8.5,-147.2 8.5,-170.2 233.5,-170.2 233.5,-147.2 8.5,-147.2"/>
<polygon fill="none" stroke="#000000" points="8.5,-147.2 8.5,-170.2 233.5,-170.2 233.5,-147.2 8.5,-147.2"/>
<text text-anchor="start" x="13.5" y="-155.8" font-family="Helvetica,sans-Serif" font-weight="bold" font-size="11.00" fill="#000000">form_physical_exam_diagnoses</text>
<text text-anchor="start" x="199.0219" y="-155.3" font-family="Helvetica,sans-Serif" font-size="11.00" fill="#000000">[table]</text>
<polygon fill="none" stroke="#000000" points="8.5,-125.2 8.5,-147.2 233.5,-147.2 233.5,-125.2 8.5,-125.2"/>
<image xlink:href="../../images/primaryKeys.png" width="11px" height="12px" preserveAspectRatio="xMinYMin meet" x="13.5" y="-142.2"/>
<text text-anchor="start" x="37.5" y="-132.3" font-family="Helvetica,sans-Serif" font-size="11.00" fill="#000000">line_id</text>
<polygon fill="#ffffff" stroke="transparent" points="8.5,-103.2 8.5,-125.2 233.5,-125.2 233.5,-103.2 8.5,-103.2"/>
<polygon fill="none" stroke="#000000" points="8.5,-103.2 8.5,-125.2 233.5,-125.2 233.5,-103.2 8.5,-103.2"/>
<text text-anchor="start" x="37.5" y="-110.3" font-family="Helvetica,sans-Serif" font-size="11.00" fill="#000000">ordering</text>
<polygon fill="none" stroke="#000000" points="8.5,-81.2 8.5,-103.2 233.5,-103.2 233.5,-81.2 8.5,-81.2"/>
<image xlink:href="../../images/primaryKeys.png" width="11px" height="12px" preserveAspectRatio="xMinYMin meet" x="13.5" y="-98.2"/>
<text text-anchor="start" x="37.5" y="-88.3" font-family="Helvetica,sans-Serif" font-size="11.00" fill="#000000">diagnosis</text>
<polygon fill="#ffffff" stroke="transparent" points="8.5,-62.2 8.5,-81.2 110.5,-81.2 110.5,-62.2 8.5,-62.2"/>
<polygon fill="none" stroke="#000000" points="8.5,-62.2 8.5,-81.2 110.5,-81.2 110.5,-62.2 8.5,-62.2"/>
<text text-anchor="start" x="11.5" y="-68.3" font-family="Helvetica,sans-Serif" font-size="11.00" fill="#000000"> &#160;</text>
<polygon fill="#ffffff" stroke="transparent" points="110.5,-62.2 110.5,-81.2 167.5,-81.2 167.5,-62.2 110.5,-62.2"/>
<polygon fill="none" stroke="#000000" points="110.5,-62.2 110.5,-81.2 167.5,-81.2 167.5,-62.2 110.5,-62.2"/>
<text text-anchor="start" x="158.3862" y="-68.3" font-family="Helvetica,sans-Serif" font-size="11.00" fill="#000000"> &#160;</text>
<polygon fill="#ffffff" stroke="transparent" points="167.5,-62.2 167.5,-81.2 233.5,-81.2 233.5,-62.2 167.5,-62.2"/>
<polygon fill="none" stroke="#000000" points="167.5,-62.2 167.5,-81.2 233.5,-81.2 233.5,-62.2 167.5,-62.2"/>
<text text-anchor="start" x="214.9053" y="-68.3" font-family="Helvetica,sans-Serif" font-size="11.00" fill="#000000">2 &gt;</text>
</a>
</g>
</g>
<!-- form_physical_exam&#45;&gt;form_physical_exam_diagnoses -->
<g id="edge1" class="edge">
<title>form_physical_exam:w&#45;&gt;form_physical_exam_diagnoses:e</title>
<path fill="none" stroke="#000000" d="M269.776,-92.2C257.7815,-92.2 250.3229,-92.2 233.5,-92.2"/>
<polygon fill="#000000" stroke="#000000" points="276.5,-92.2001 284.5,-95.8 280.5,-92.2 284.5,-92.2 284.5,-92.2 284.5,-92.2 280.5,-92.2 284.5,-88.6 276.5,-92.2001 276.5,-92.2001"/>
<ellipse fill="none" stroke="#000000" cx="273.3" cy="-92.2001" rx="3.2" ry="3.2"/>
</g>
<!-- form_physical_exam&#45;&gt;form_physical_exam_diagnoses -->
<g id="edge3" class="edge">
<title>form_physical_exam:w&#45;&gt;form_physical_exam_diagnoses:e</title>
<path fill="none" stroke="#000000" d="M270.3489,-155.141C257.7843,-149.096 252.4,-136.2 233.5,-136.2"/>
<polygon fill="#000000" stroke="#000000" points="276.6806,-156.5097 283.7393,-161.7187 280.5903,-157.3548 284.5,-158.2 284.5,-158.2 284.5,-158.2 280.5903,-157.3548 285.2607,-154.6813 276.6806,-156.5097 276.6806,-156.5097"/>
<ellipse fill="none" stroke="#000000" cx="273.5528" cy="-155.8335" rx="3.2" ry="3.2"/>
</g>
<!-- forms -->
<g id="node3" class="node">
<title>forms</title>
<g id="a_node3"><a xlink:href="../../tables/forms.html" xlink:title="forms" target="_top">
<polygon fill="#ffffff" stroke="transparent" points="58,-191.7 58,-450.7 183,-450.7 183,-191.7 58,-191.7"/>
<polygon fill="#f5f5f5" stroke="transparent" points="58.5,-427.2 58.5,-450.2 183.5,-450.2 183.5,-427.2 58.5,-427.2"/>
<polygon fill="none" stroke="#000000" points="58.5,-427.2 58.5,-450.2 183.5,-450.2 183.5,-427.2 58.5,-427.2"/>
<text text-anchor="start" x="63.5" y="-435.8" font-family="Helvetica,sans-Serif" font-weight="bold" font-size="11.00" fill="#000000">forms</text>
<text text-anchor="start" x="148.5437" y="-435.3" font-family="Helvetica,sans-Serif" font-size="11.00" fill="#000000">[table]</text>
<polygon fill="none" stroke="#000000" points="58.5,-405.2 58.5,-427.2 183.5,-427.2 183.5,-405.2 58.5,-405.2"/>
<image xlink:href="../../images/primaryKeys.png" width="11px" height="12px" preserveAspectRatio="xMinYMin meet" x="63.5" y="-422.2"/>
<text text-anchor="start" x="78.5" y="-412.3" font-family="Helvetica,sans-Serif" font-size="11.00" fill="#000000">id</text>
<polygon fill="#ffffff" stroke="transparent" points="58.5,-383.2 58.5,-405.2 183.5,-405.2 183.5,-383.2 58.5,-383.2"/>
<polygon fill="none" stroke="#000000" points="58.5,-383.2 58.5,-405.2 183.5,-405.2 183.5,-383.2 58.5,-383.2"/>
<text text-anchor="start" x="78.5" y="-390.3" font-family="Helvetica,sans-Serif" font-size="11.00" fill="#000000">encounter</text>
<polygon fill="none" stroke="#000000" points="58.5,-361.2 58.5,-383.2 183.5,-383.2 183.5,-361.2 58.5,-361.2"/>
<image xlink:href="../../images/primaryKeys.png" width="11px" height="12px" preserveAspectRatio="xMinYMin meet" x="63.5" y="-378.2"/>
<text text-anchor="start" x="78.5" y="-368.3" font-family="Helvetica,sans-Serif" font-size="11.00" fill="#000000">form_id</text>
<polygon fill="#ffffff" stroke="transparent" points="58.5,-339.2 58.5,-361.2 183.5,-361.2 183.5,-339.2 58.5,-339.2"/>
<polygon fill="none" stroke="#000000" points="58.5,-339.2 58.5,-361.2 183.5,-361.2 183.5,-339.2 58.5,-339.2"/>
<image xlink:href="../../images/foreignKeys.png" width="11px" height="12px" preserveAspectRatio="xMinYMin meet" x="63.5" y="-356.2"/>
<text text-anchor="start" x="78.5" y="-346.3" font-family="Helvetica,sans-Serif" font-size="11.00" fill="#000000">pid</text>
<polygon fill="none" stroke="#000000" points="58.5,-317.2 58.5,-339.2 183.5,-339.2 183.5,-317.2 58.5,-317.2"/>
<image xlink:href="../../images/foreignKeys.png" width="11px" height="12px" preserveAspectRatio="xMinYMin meet" x="63.5" y="-334.2"/>
<text text-anchor="start" x="78.5" y="-324.3" font-family="Helvetica,sans-Serif" font-size="11.00" fill="#000000">user</text>
<polygon fill="none" stroke="#000000" points="58.5,-295.2 58.5,-317.2 183.5,-317.2 183.5,-295.2 58.5,-295.2"/>
<image xlink:href="../../images/foreignKeys.png" width="11px" height="12px" preserveAspectRatio="xMinYMin meet" x="63.5" y="-312.2"/>
<text text-anchor="start" x="78.5" y="-302.3" font-family="Helvetica,sans-Serif" font-size="11.00" fill="#000000">groupname</text>
<polygon fill="none" stroke="#000000" points="58.5,-273.2 58.5,-295.2 183.5,-295.2 183.5,-273.2 58.5,-273.2"/>
<image xlink:href="../../images/foreignKeys.png" width="11px" height="12px" preserveAspectRatio="xMinYMin meet" x="63.5" y="-290.2"/>
<text text-anchor="start" x="78.5" y="-280.3" font-family="Helvetica,sans-Serif" font-size="11.00" fill="#000000">therapy_group_id</text>
<polygon fill="none" stroke="#000000" points="58.5,-251.2 58.5,-273.2 183.5,-273.2 183.5,-251.2 58.5,-251.2"/>
<image xlink:href="../../images/foreignKeys.png" width="11px" height="12px" preserveAspectRatio="xMinYMin meet" x="63.5" y="-268.2"/>
<text text-anchor="start" x="78.5" y="-258.3" font-family="Helvetica,sans-Serif" font-size="11.00" fill="#000000">issue_id</text>
<polygon fill="none" stroke="#000000" points="58.5,-229.2 58.5,-251.2 183.5,-251.2 183.5,-229.2 58.5,-229.2"/>
<image xlink:href="../../images/foreignKeys.png" width="11px" height="12px" preserveAspectRatio="xMinYMin meet" x="63.5" y="-246.2"/>
<text text-anchor="start" x="78.5" y="-236.3" font-family="Helvetica,sans-Serif" font-size="11.00" fill="#000000">provider_id</text>
<polygon fill="none" stroke="#000000" points="58.5,-210.2 58.5,-229.2 183.5,-229.2 183.5,-210.2 58.5,-210.2"/>
<text text-anchor="start" x="61.5" y="-216.3" font-family="Helvetica,sans-Serif" font-size="11.00" fill="#000000">...</text>
<polygon fill="#ffffff" stroke="transparent" points="58.5,-191.2 58.5,-210.2 111.5,-210.2 111.5,-191.2 58.5,-191.2"/>
<polygon fill="none" stroke="#000000" points="58.5,-191.2 58.5,-210.2 111.5,-210.2 111.5,-191.2 58.5,-191.2"/>
<text text-anchor="start" x="61.5" y="-197.3" font-family="Helvetica,sans-Serif" font-size="11.00" fill="#000000">&lt; 6</text>
<polygon fill="#ffffff" stroke="transparent" points="111.5,-191.2 111.5,-210.2 139.5,-210.2 139.5,-191.2 111.5,-191.2"/>
<polygon fill="none" stroke="#000000" points="111.5,-191.2 111.5,-210.2 139.5,-210.2 139.5,-191.2 111.5,-191.2"/>
<text text-anchor="start" x="130.3862" y="-197.3" font-family="Helvetica,sans-Serif" font-size="11.00" fill="#000000"> &#160;</text>
<polygon fill="#ffffff" stroke="transparent" points="139.5,-191.2 139.5,-210.2 183.5,-210.2 183.5,-191.2 139.5,-191.2"/>
<polygon fill="none" stroke="#000000" points="139.5,-191.2 139.5,-210.2 183.5,-210.2 183.5,-191.2 139.5,-191.2"/>
<text text-anchor="start" x="158.7904" y="-197.3" font-family="Helvetica,sans-Serif" font-size="11.00" fill="#000000">14 &gt;</text>
</a>
</g>
</g>
<!-- form_physical_exam&#45;&gt;forms -->
<g id="edge2" class="edge">
<title>form_physical_exam:w&#45;&gt;forms:e</title>
<path fill="none" stroke="#000000" d="M269.9967,-181.707C181.8024,-201.8064 292.2427,-416.2 183.5,-416.2"/>
<polygon fill="#000000" stroke="#000000" points="276.5428,-181.0269 284.8721,-183.7807 280.5214,-180.6134 284.5,-180.2 284.5,-180.2 284.5,-180.2 280.5214,-180.6134 284.1279,-176.6193 276.5428,-181.0269 276.5428,-181.0269"/>
<ellipse fill="none" stroke="#000000" cx="273.36" cy="-181.3576" rx="3.2" ry="3.2"/>
</g>
</g>
</svg>
