<?xml version="1.0" encoding="UTF-8" standalone="no"?>
<!DOCTYPE svg PUBLIC "-//W3C//DTD SVG 1.1//EN"
 "http://www.w3.org/Graphics/SVG/1.1/DTD/svg11.dtd">
<!-- Generated by graphviz version 2.40.1 (20161225.0304)
 -->
<!-- Title: oneDegreeRelationshipsDiagram Pages: 1 -->
<svg width="565pt" height="413pt"
 viewBox="0.00 0.00 565.00 413.20" xmlns="http://www.w3.org/2000/svg" xmlns:xlink="http://www.w3.org/1999/xlink">
<g id="graph0" class="graph" transform="scale(1 1) rotate(0) translate(4 409.2)">
<title>oneDegreeRelationshipsDiagram</title>
<polygon fill="#ffffff" stroke="transparent" points="-4,4 -4,-409.2 561,-409.2 561,4 -4,4"/>
<text text-anchor="middle" x="72.4936" y="-7.3" font-family="Helvetica,sans-Serif" font-size="11.00" fill="#000000">Generated by SchemaSpy</text>
<!-- form_vitals_calculation_form_vitals -->
<g id="node1" class="node">
<title>form_vitals_calculation_form_vitals</title>
<g id="a_node1"><a xlink:href="../../tables/form_vitals_calculation_form_vitals.html" xlink:title="form_vitals_calculation_form_vitals" target="_top">
<polygon fill="#ffffff" stroke="transparent" points="261,-216.7 261,-306.7 549,-306.7 549,-216.7 261,-216.7"/>
<polygon fill="#f5f5f5" stroke="transparent" points="263,-281.7 263,-304.7 547,-304.7 547,-281.7 263,-281.7"/>
<polygon fill="none" stroke="#000000" points="263,-281.7 263,-304.7 547,-304.7 547,-281.7 263,-281.7"/>
<text text-anchor="start" x="268" y="-290.3" font-family="Helvetica,sans-Serif" font-weight="bold" font-size="11.00" fill="#000000">form_vitals_calculation_form_vitals</text>
<text text-anchor="start" x="512.0437" y="-289.8" font-family="Helvetica,sans-Serif" font-size="11.00" fill="#000000">[table]</text>
<polygon fill="none" stroke="#000000" points="263,-259.7 263,-281.7 493,-281.7 493,-259.7 263,-259.7"/>
<image xlink:href="../../images/primaryKeys.png" width="11px" height="12px" preserveAspectRatio="xMinYMin meet" x="268" y="-276.7"/>
<text text-anchor="start" x="283" y="-266.8" font-family="Helvetica,sans-Serif" font-size="11.00" fill="#000000">fvc_uuid</text>
<polygon fill="none" stroke="#000000" points="493,-259.7 493,-281.7 547,-281.7 547,-259.7 493,-259.7"/>
<text text-anchor="start" x="495.8545" y="-267.4" font-family="Helvetica,sans-Serif" font-size="11.00" fill="#000000">binary[16]</text>
<polygon fill="none" stroke="#000000" points="263,-237.7 263,-259.7 493,-259.7 493,-237.7 263,-237.7"/>
<image xlink:href="../../images/primaryKeys.png" width="11px" height="12px" preserveAspectRatio="xMinYMin meet" x="268" y="-254.7"/>
<text text-anchor="start" x="283" y="-244.8" font-family="Helvetica,sans-Serif" font-size="11.00" fill="#000000">vitals_id</text>
<polygon fill="none" stroke="#000000" points="493,-237.7 493,-259.7 547,-259.7 547,-237.7 493,-237.7"/>
<text text-anchor="start" x="496" y="-245.4" font-family="Helvetica,sans-Serif" font-size="11.00" fill="#000000">bigint[19]</text>
<polygon fill="#ffffff" stroke="transparent" points="263,-218.7 263,-237.7 382,-237.7 382,-218.7 263,-218.7"/>
<polygon fill="none" stroke="#000000" points="263,-218.7 263,-237.7 382,-237.7 382,-218.7 263,-218.7"/>
<text text-anchor="start" x="266" y="-224.8" font-family="Helvetica,sans-Serif" font-size="11.00" fill="#000000">&lt; 2</text>
<polygon fill="#ffffff" stroke="transparent" points="382,-218.7 382,-237.7 493,-237.7 493,-218.7 382,-218.7"/>
<polygon fill="none" stroke="#000000" points="382,-218.7 382,-237.7 493,-237.7 493,-218.7 382,-218.7"/>
<text text-anchor="start" x="483.8862" y="-224.8" font-family="Helvetica,sans-Serif" font-size="11.00" fill="#000000"> &#160;</text>
<polygon fill="#ffffff" stroke="transparent" points="493,-218.7 493,-237.7 547,-237.7 547,-218.7 493,-218.7"/>
<polygon fill="none" stroke="#000000" points="493,-218.7 493,-237.7 547,-237.7 547,-218.7 493,-218.7"/>
<text text-anchor="start" x="528.4053" y="-224.8" font-family="Helvetica,sans-Serif" font-size="11.00" fill="#000000">0 &gt;</text>
<polygon fill="none" stroke="#000000" stroke-width="2" points="262,-217.7 262,-305.7 548,-305.7 548,-217.7 262,-217.7"/>
</a>
</g>
</g>
<!-- form_vitals_calculation -->
<g id="node2" class="node">
<title>form_vitals_calculation</title>
<g id="a_node2"><a xlink:href="../../tables/form_vitals_calculation.html" xlink:title="form_vitals_calculation" target="_top">
<polygon fill="#ffffff" stroke="transparent" points="22,-230.2 22,-401.2 198,-401.2 198,-230.2 22,-230.2"/>
<polygon fill="#f5f5f5" stroke="transparent" points="22,-377.7 22,-400.7 198,-400.7 198,-377.7 22,-377.7"/>
<polygon fill="none" stroke="#000000" points="22,-377.7 22,-400.7 198,-400.7 198,-377.7 22,-377.7"/>
<text text-anchor="start" x="27" y="-386.3" font-family="Helvetica,sans-Serif" font-weight="bold" font-size="11.00" fill="#000000">form_vitals_calculation</text>
<text text-anchor="start" x="163.5219" y="-385.8" font-family="Helvetica,sans-Serif" font-size="11.00" fill="#000000">[table]</text>
<polygon fill="none" stroke="#000000" points="22,-355.7 22,-377.7 198,-377.7 198,-355.7 22,-355.7"/>
<image xlink:href="../../images/primaryKeys.png" width="11px" height="12px" preserveAspectRatio="xMinYMin meet" x="27" y="-372.7"/>
<text text-anchor="start" x="51" y="-362.8" font-family="Helvetica,sans-Serif" font-size="11.00" fill="#000000">id</text>
<polygon fill="none" stroke="#000000" points="22,-333.7 22,-355.7 198,-355.7 198,-333.7 22,-333.7"/>
<image xlink:href="../../images/primaryKeys.png" width="11px" height="12px" preserveAspectRatio="xMinYMin meet" x="27" y="-350.7"/>
<text text-anchor="start" x="51" y="-340.8" font-family="Helvetica,sans-Serif" font-size="11.00" fill="#000000">uuid</text>
<polygon fill="#ffffff" stroke="transparent" points="22,-311.7 22,-333.7 198,-333.7 198,-311.7 22,-311.7"/>
<polygon fill="none" stroke="#000000" points="22,-311.7 22,-333.7 198,-333.7 198,-311.7 22,-311.7"/>
<image xlink:href="../../images/foreignKeys.png" width="11px" height="12px" preserveAspectRatio="xMinYMin meet" x="27" y="-328.7"/>
<text text-anchor="start" x="51" y="-318.8" font-family="Helvetica,sans-Serif" font-size="11.00" fill="#000000">encounter</text>
<polygon fill="#ffffff" stroke="transparent" points="22,-289.7 22,-311.7 198,-311.7 198,-289.7 22,-289.7"/>
<polygon fill="none" stroke="#000000" points="22,-289.7 22,-311.7 198,-311.7 198,-289.7 22,-289.7"/>
<image xlink:href="../../images/foreignKeys.png" width="11px" height="12px" preserveAspectRatio="xMinYMin meet" x="27" y="-306.7"/>
<text text-anchor="start" x="51" y="-296.8" font-family="Helvetica,sans-Serif" font-size="11.00" fill="#000000">pid</text>
<polygon fill="#ffffff" stroke="transparent" points="22,-267.7 22,-289.7 198,-289.7 198,-267.7 22,-267.7"/>
<polygon fill="none" stroke="#000000" points="22,-267.7 22,-289.7 198,-289.7 198,-267.7 22,-267.7"/>
<text text-anchor="start" x="51" y="-274.8" font-family="Helvetica,sans-Serif" font-size="11.00" fill="#000000">calculation_id</text>
<polygon fill="none" stroke="#000000" points="22,-248.7 22,-267.7 198,-267.7 198,-248.7 22,-248.7"/>
<text text-anchor="start" x="25" y="-254.8" font-family="Helvetica,sans-Serif" font-size="11.00" fill="#000000">...</text>
<polygon fill="#ffffff" stroke="transparent" points="22,-229.7 22,-248.7 104,-248.7 104,-229.7 22,-229.7"/>
<polygon fill="none" stroke="#000000" points="22,-229.7 22,-248.7 104,-248.7 104,-229.7 22,-229.7"/>
<text text-anchor="start" x="25" y="-235.8" font-family="Helvetica,sans-Serif" font-size="11.00" fill="#000000">&lt; 2</text>
<polygon fill="#ffffff" stroke="transparent" points="104,-229.7 104,-248.7 146,-248.7 146,-229.7 104,-229.7"/>
<polygon fill="none" stroke="#000000" points="104,-229.7 104,-248.7 146,-248.7 146,-229.7 104,-229.7"/>
<text text-anchor="start" x="136.8862" y="-235.8" font-family="Helvetica,sans-Serif" font-size="11.00" fill="#000000"> &#160;</text>
<polygon fill="#ffffff" stroke="transparent" points="146,-229.7 146,-248.7 198,-248.7 198,-229.7 146,-229.7"/>
<polygon fill="none" stroke="#000000" points="146,-229.7 146,-248.7 198,-248.7 198,-229.7 146,-229.7"/>
<text text-anchor="start" x="179.4053" y="-235.8" font-family="Helvetica,sans-Serif" font-size="11.00" fill="#000000">2 &gt;</text>
</a>
</g>
</g>
<!-- form_vitals_calculation_form_vitals&#45;&gt;form_vitals_calculation -->
<g id="edge1" class="edge">
<title>form_vitals_calculation_form_vitals:w&#45;&gt;form_vitals_calculation:e</title>
<path fill="none" stroke="#000000" d="M248.7574,-274.2692C224.0449,-289.051 235.9611,-344.7 198,-344.7"/>
<polygon fill="#000000" stroke="#000000" points="255.24,-272.6447 263.8751,-274.192 259.12,-271.6723 263,-270.7 263,-270.7 263,-270.7 259.12,-271.6723 262.1249,-267.208 255.24,-272.6447 255.24,-272.6447"/>
<ellipse fill="none" stroke="#000000" cx="252.1359" cy="-273.4226" rx="3.2" ry="3.2"/>
</g>
<!-- form_vitals -->
<g id="node3" class="node">
<title>form_vitals</title>
<g id="a_node3"><a xlink:href="../../tables/form_vitals.html" xlink:title="form_vitals" target="_top">
<polygon fill="#ffffff" stroke="transparent" points="8,-38.2 8,-209.2 212,-209.2 212,-38.2 8,-38.2"/>
<polygon fill="#f5f5f5" stroke="transparent" points="8,-185.7 8,-208.7 212,-208.7 212,-185.7 8,-185.7"/>
<polygon fill="none" stroke="#000000" points="8,-185.7 8,-208.7 212,-208.7 212,-185.7 8,-185.7"/>
<text text-anchor="start" x="13" y="-194.3" font-family="Helvetica,sans-Serif" font-weight="bold" font-size="11.00" fill="#000000">form_vitals</text>
<text text-anchor="start" x="177.0437" y="-193.8" font-family="Helvetica,sans-Serif" font-size="11.00" fill="#000000">[table]</text>
<polygon fill="none" stroke="#000000" points="8,-163.7 8,-185.7 212,-185.7 212,-163.7 8,-163.7"/>
<image xlink:href="../../images/primaryKeys.png" width="11px" height="12px" preserveAspectRatio="xMinYMin meet" x="13" y="-180.7"/>
<text text-anchor="start" x="28" y="-170.8" font-family="Helvetica,sans-Serif" font-size="11.00" fill="#000000">id</text>
<polygon fill="#ffffff" stroke="transparent" points="8,-141.7 8,-163.7 212,-163.7 212,-141.7 8,-141.7"/>
<polygon fill="none" stroke="#000000" points="8,-141.7 8,-163.7 212,-163.7 212,-141.7 8,-141.7"/>
<text text-anchor="start" x="28" y="-148.8" font-family="Helvetica,sans-Serif" font-size="11.00" fill="#000000">uuid</text>
<polygon fill="#ffffff" stroke="transparent" points="8,-119.7 8,-141.7 212,-141.7 212,-119.7 8,-119.7"/>
<polygon fill="none" stroke="#000000" points="8,-119.7 8,-141.7 212,-141.7 212,-119.7 8,-119.7"/>
<image xlink:href="../../images/foreignKeys.png" width="11px" height="12px" preserveAspectRatio="xMinYMin meet" x="13" y="-136.7"/>
<text text-anchor="start" x="28" y="-126.8" font-family="Helvetica,sans-Serif" font-size="11.00" fill="#000000">pid</text>
<polygon fill="none" stroke="#000000" points="8,-97.7 8,-119.7 212,-119.7 212,-97.7 8,-97.7"/>
<image xlink:href="../../images/foreignKeys.png" width="11px" height="12px" preserveAspectRatio="xMinYMin meet" x="13" y="-114.7"/>
<text text-anchor="start" x="28" y="-104.8" font-family="Helvetica,sans-Serif" font-size="11.00" fill="#000000">user</text>
<polygon fill="none" stroke="#000000" points="8,-75.7 8,-97.7 212,-97.7 212,-75.7 8,-75.7"/>
<image xlink:href="../../images/foreignKeys.png" width="11px" height="12px" preserveAspectRatio="xMinYMin meet" x="13" y="-92.7"/>
<text text-anchor="start" x="28" y="-82.8" font-family="Helvetica,sans-Serif" font-size="11.00" fill="#000000">groupname</text>
<polygon fill="none" stroke="#000000" points="8,-56.7 8,-75.7 212,-75.7 212,-56.7 8,-56.7"/>
<text text-anchor="start" x="11" y="-62.8" font-family="Helvetica,sans-Serif" font-size="11.00" fill="#000000">...</text>
<polygon fill="#ffffff" stroke="transparent" points="8,-37.7 8,-56.7 104,-56.7 104,-37.7 8,-37.7"/>
<polygon fill="none" stroke="#000000" points="8,-37.7 8,-56.7 104,-56.7 104,-37.7 8,-37.7"/>
<text text-anchor="start" x="11" y="-43.8" font-family="Helvetica,sans-Serif" font-size="11.00" fill="#000000">&lt; 3</text>
<polygon fill="#ffffff" stroke="transparent" points="104,-37.7 104,-56.7 153,-56.7 153,-37.7 104,-37.7"/>
<polygon fill="none" stroke="#000000" points="104,-37.7 104,-56.7 153,-56.7 153,-37.7 104,-37.7"/>
<text text-anchor="start" x="143.8862" y="-43.8" font-family="Helvetica,sans-Serif" font-size="11.00" fill="#000000"> &#160;</text>
<polygon fill="#ffffff" stroke="transparent" points="153,-37.7 153,-56.7 212,-56.7 212,-37.7 153,-37.7"/>
<polygon fill="none" stroke="#000000" points="153,-37.7 153,-56.7 212,-56.7 212,-37.7 153,-37.7"/>
<text text-anchor="start" x="193.4053" y="-43.8" font-family="Helvetica,sans-Serif" font-size="11.00" fill="#000000">2 &gt;</text>
</a>
</g>
</g>
<!-- form_vitals_calculation_form_vitals&#45;&gt;form_vitals -->
<g id="edge2" class="edge">
<title>form_vitals_calculation_form_vitals:w&#45;&gt;form_vitals:e</title>
<path fill="none" stroke="#000000" d="M249.0503,-244.071C230.2607,-227.8706 245.8581,-174.7 212,-174.7"/>
<polygon fill="#000000" stroke="#000000" points="255.4071,-246.1804 261.8662,-252.1168 259.2036,-247.4402 263,-248.7 263,-248.7 263,-248.7 259.2036,-247.4402 264.1338,-245.2832 255.4071,-246.1804 255.4071,-246.1804"/>
<ellipse fill="none" stroke="#000000" cx="252.37" cy="-245.1725" rx="3.2" ry="3.2"/>
</g>
</g>
</svg>
