<?xml version="1.0" encoding="UTF-8" standalone="no"?>
<!DOCTYPE svg PUBLIC "-//W3C//DTD SVG 1.1//EN"
 "http://www.w3.org/Graphics/SVG/1.1/DTD/svg11.dtd">
<!-- Generated by graphviz version 2.40.1 (20161225.0304)
 -->
<!-- Title: twoDegreesRelationshipsDiagram Pages: 1 -->
<svg width="676pt" height="183pt"
 viewBox="0.00 0.00 676.00 182.70" xmlns="http://www.w3.org/2000/svg" xmlns:xlink="http://www.w3.org/1999/xlink">
<g id="graph0" class="graph" transform="scale(1 1) rotate(0) translate(4 178.7)">
<title>twoDegreesRelationshipsDiagram</title>
<polygon fill="#ffffff" stroke="transparent" points="-4,4 -4,-178.7 672,-178.7 672,4 -4,4"/>
<text text-anchor="middle" x="72.4936" y="-7.3" font-family="Helvetica,sans-Serif" font-size="11.00" fill="#000000">Generated by SchemaSpy</text>
<!-- form_physical_exam -->
<g id="node1" class="node">
<title>form_physical_exam</title>
<g id="a_node1"><a xlink:href="../../tables/form_physical_exam.html" xlink:title="form_physical_exam" target="_top">
<polygon fill="#ffffff" stroke="transparent" points="135,-65.7 135,-170.7 309,-170.7 309,-65.7 135,-65.7"/>
<polygon fill="#f5f5f5" stroke="transparent" points="135,-147.2 135,-170.2 309,-170.2 309,-147.2 135,-147.2"/>
<polygon fill="none" stroke="#000000" points="135,-147.2 135,-170.2 309,-170.2 309,-147.2 135,-147.2"/>
<text text-anchor="start" x="140" y="-155.8" font-family="Helvetica,sans-Serif" font-weight="bold" font-size="11.00" fill="#000000">form_physical_exam</text>
<text text-anchor="start" x="274.5219" y="-155.3" font-family="Helvetica,sans-Serif" font-size="11.00" fill="#000000">[table]</text>
<polygon fill="none" stroke="#000000" points="135,-125.2 135,-147.2 309,-147.2 309,-125.2 135,-125.2"/>
<image xlink:href="../../images/primaryKeys.png" width="11px" height="12px" preserveAspectRatio="xMinYMin meet" x="140" y="-142.2"/>
<text text-anchor="start" x="164" y="-132.3" font-family="Helvetica,sans-Serif" font-size="11.00" fill="#000000">forms_id</text>
<polygon fill="none" stroke="#000000" points="135,-103.2 135,-125.2 309,-125.2 309,-103.2 135,-103.2"/>
<image xlink:href="../../images/primaryKeys.png" width="11px" height="12px" preserveAspectRatio="xMinYMin meet" x="140" y="-120.2"/>
<text text-anchor="start" x="164" y="-110.3" font-family="Helvetica,sans-Serif" font-size="11.00" fill="#000000">line_id</text>
<polygon fill="none" stroke="#000000" points="135,-84.2 135,-103.2 309,-103.2 309,-84.2 135,-84.2"/>
<text text-anchor="start" x="138" y="-90.3" font-family="Helvetica,sans-Serif" font-size="11.00" fill="#000000">...</text>
<polygon fill="#ffffff" stroke="transparent" points="135,-65.2 135,-84.2 216,-84.2 216,-65.2 135,-65.2"/>
<polygon fill="none" stroke="#000000" points="135,-65.2 135,-84.2 216,-84.2 216,-65.2 135,-65.2"/>
<text text-anchor="start" x="138" y="-71.3" font-family="Helvetica,sans-Serif" font-size="11.00" fill="#000000">&lt; 1</text>
<polygon fill="#ffffff" stroke="transparent" points="216,-65.2 216,-84.2 258,-84.2 258,-65.2 216,-65.2"/>
<polygon fill="none" stroke="#000000" points="216,-65.2 216,-84.2 258,-84.2 258,-65.2 216,-65.2"/>
<text text-anchor="start" x="248.8862" y="-71.3" font-family="Helvetica,sans-Serif" font-size="11.00" fill="#000000"> &#160;</text>
<polygon fill="#ffffff" stroke="transparent" points="258,-65.2 258,-84.2 309,-84.2 309,-65.2 258,-65.2"/>
<polygon fill="none" stroke="#000000" points="258,-65.2 258,-84.2 309,-84.2 309,-65.2 258,-65.2"/>
<text text-anchor="start" x="290.4053" y="-71.3" font-family="Helvetica,sans-Serif" font-size="11.00" fill="#000000">1 &gt;</text>
</a>
</g>
</g>
<!-- forms -->
<g id="node2" class="node">
<title>forms</title>
<g id="a_node2"><a xlink:href="../../tables/forms.html" xlink:title="forms" target="_top">
<polygon fill="#ffffff" stroke="transparent" points="8,-108.7 8,-169.7 86,-169.7 86,-108.7 8,-108.7"/>
<polygon fill="#f5f5f5" stroke="transparent" points="8,-146.2 8,-169.2 86,-169.2 86,-146.2 8,-146.2"/>
<polygon fill="none" stroke="#000000" points="8,-146.2 8,-169.2 86,-169.2 86,-146.2 8,-146.2"/>
<text text-anchor="start" x="13" y="-154.8" font-family="Helvetica,sans-Serif" font-weight="bold" font-size="11.00" fill="#000000">forms</text>
<text text-anchor="start" x="51.5219" y="-154.3" font-family="Helvetica,sans-Serif" font-size="11.00" fill="#000000">[table]</text>
<polygon fill="none" stroke="#000000" points="8,-127.2 8,-146.2 86,-146.2 86,-127.2 8,-127.2"/>
<text text-anchor="start" x="11" y="-133.3" font-family="Helvetica,sans-Serif" font-size="11.00" fill="#000000">...</text>
<polygon fill="#ffffff" stroke="transparent" points="8,-108.2 8,-127.2 38,-127.2 38,-108.2 8,-108.2"/>
<polygon fill="none" stroke="#000000" points="8,-108.2 8,-127.2 38,-127.2 38,-108.2 8,-108.2"/>
<text text-anchor="start" x="11" y="-114.3" font-family="Helvetica,sans-Serif" font-size="11.00" fill="#000000">&lt; 1</text>
<polygon fill="#ffffff" stroke="transparent" points="38,-108.2 38,-127.2 54,-127.2 54,-108.2 38,-108.2"/>
<polygon fill="none" stroke="#000000" points="38,-108.2 38,-127.2 54,-127.2 54,-108.2 38,-108.2"/>
<text text-anchor="start" x="44.8862" y="-114.3" font-family="Helvetica,sans-Serif" font-size="11.00" fill="#000000"> &#160;</text>
<polygon fill="#ffffff" stroke="transparent" points="54,-108.2 54,-127.2 86,-127.2 86,-108.2 54,-108.2"/>
<polygon fill="none" stroke="#000000" points="54,-108.2 54,-127.2 86,-127.2 86,-108.2 54,-108.2"/>
<text text-anchor="start" x="61.2904" y="-114.3" font-family="Helvetica,sans-Serif" font-size="11.00" fill="#000000">10 &gt;</text>
</a>
</g>
</g>
<!-- form_physical_exam&#45;&gt;forms -->
<g id="edge1" class="edge">
<title>form_physical_exam:w&#45;&gt;forms:e</title>
<path fill="none" stroke="#000000" d="M120.4909,-136.2C109.1774,-136.2 101.9931,-136.2 86,-136.2"/>
<polygon fill="#000000" stroke="#000000" points="127,-136.2001 135,-139.8 131,-136.2 135,-136.2 135,-136.2 135,-136.2 131,-136.2 135,-132.6 127,-136.2001 127,-136.2001"/>
<ellipse fill="none" stroke="#000000" cx="123.8" cy="-136.2001" rx="3.2" ry="3.2"/>
</g>
<!-- form_physical_exam_diagnoses -->
<g id="node3" class="node">
<title>form_physical_exam_diagnoses</title>
<g id="a_node3"><a xlink:href="../../tables/form_physical_exam_diagnoses.html" xlink:title="form_physical_exam_diagnoses" target="_top">
<polygon fill="#ffffff" stroke="transparent" points="358,-38.2 358,-150.2 660,-150.2 660,-38.2 358,-38.2"/>
<polygon fill="#f5f5f5" stroke="transparent" points="360,-125.2 360,-148.2 658,-148.2 658,-125.2 360,-125.2"/>
<polygon fill="none" stroke="#000000" points="360,-125.2 360,-148.2 658,-148.2 658,-125.2 360,-125.2"/>
<text text-anchor="start" x="365" y="-133.8" font-family="Helvetica,sans-Serif" font-weight="bold" font-size="11.00" fill="#000000">form_physical_exam_diagnoses</text>
<text text-anchor="start" x="623.0437" y="-133.3" font-family="Helvetica,sans-Serif" font-size="11.00" fill="#000000">[table]</text>
<polygon fill="#ffffff" stroke="transparent" points="360,-103.2 360,-125.2 591,-125.2 591,-103.2 360,-103.2"/>
<polygon fill="none" stroke="#000000" points="360,-103.2 360,-125.2 591,-125.2 591,-103.2 360,-103.2"/>
<image xlink:href="../../images/foreignKeys.png" width="11px" height="12px" preserveAspectRatio="xMinYMin meet" x="365" y="-120.2"/>
<text text-anchor="start" x="380" y="-110.3" font-family="Helvetica,sans-Serif" font-size="11.00" fill="#000000">line_id</text>
<polygon fill="none" stroke="#000000" points="591,-103.2 591,-125.2 658,-125.2 658,-103.2 591,-103.2"/>
<text text-anchor="start" x="594" y="-110.9" font-family="Helvetica,sans-Serif" font-size="11.00" fill="#000000">char[8]</text>
<polygon fill="#ffffff" stroke="transparent" points="360,-81.2 360,-103.2 591,-103.2 591,-81.2 360,-81.2"/>
<polygon fill="none" stroke="#000000" points="360,-81.2 360,-103.2 591,-103.2 591,-81.2 360,-81.2"/>
<text text-anchor="start" x="380" y="-88.3" font-family="Helvetica,sans-Serif" font-size="11.00" fill="#000000">ordering</text>
<polygon fill="none" stroke="#000000" points="591,-81.2 591,-103.2 658,-103.2 658,-81.2 591,-81.2"/>
<text text-anchor="start" x="594" y="-88.9" font-family="Helvetica,sans-Serif" font-size="11.00" fill="#000000">int[10]</text>
<polygon fill="none" stroke="#000000" points="360,-59.2 360,-81.2 591,-81.2 591,-59.2 360,-59.2"/>
<text text-anchor="start" x="380" y="-66.3" font-family="Helvetica,sans-Serif" font-size="11.00" fill="#000000">diagnosis</text>
<polygon fill="none" stroke="#000000" points="591,-59.2 591,-81.2 658,-81.2 658,-59.2 591,-59.2"/>
<text text-anchor="start" x="593.9365" y="-66.9" font-family="Helvetica,sans-Serif" font-size="11.00" fill="#000000">varchar[255]</text>
<polygon fill="#ffffff" stroke="transparent" points="360,-40.2 360,-59.2 480,-59.2 480,-40.2 360,-40.2"/>
<polygon fill="none" stroke="#000000" points="360,-40.2 360,-59.2 480,-59.2 480,-40.2 360,-40.2"/>
<text text-anchor="start" x="363" y="-46.3" font-family="Helvetica,sans-Serif" font-size="11.00" fill="#000000">&lt; 1</text>
<polygon fill="#ffffff" stroke="transparent" points="480,-40.2 480,-59.2 591,-59.2 591,-40.2 480,-40.2"/>
<polygon fill="none" stroke="#000000" points="480,-40.2 480,-59.2 591,-59.2 591,-40.2 480,-40.2"/>
<text text-anchor="start" x="581.8862" y="-46.3" font-family="Helvetica,sans-Serif" font-size="11.00" fill="#000000"> &#160;</text>
<polygon fill="#ffffff" stroke="transparent" points="591,-40.2 591,-59.2 658,-59.2 658,-40.2 591,-40.2"/>
<polygon fill="none" stroke="#000000" points="591,-40.2 591,-59.2 658,-59.2 658,-40.2 591,-40.2"/>
<text text-anchor="start" x="639.4053" y="-46.3" font-family="Helvetica,sans-Serif" font-size="11.00" fill="#000000">0 &gt;</text>
<polygon fill="none" stroke="#000000" stroke-width="2" points="359,-39.2 359,-149.2 659,-149.2 659,-39.2 359,-39.2"/>
</a>
</g>
</g>
<!-- form_physical_exam_diagnoses&#45;&gt;form_physical_exam -->
<g id="edge2" class="edge">
<title>form_physical_exam_diagnoses:w&#45;&gt;form_physical_exam:e</title>
<path fill="none" stroke="#000000" d="M345.276,-114.2C333.2815,-114.2 325.8229,-114.2 309,-114.2"/>
<polygon fill="#000000" stroke="#000000" points="352,-114.2001 360,-117.8 356,-114.2 360,-114.2 360,-114.2 360,-114.2 356,-114.2 360,-110.6 352,-114.2001 352,-114.2001"/>
<ellipse fill="none" stroke="#000000" cx="348.8" cy="-114.2001" rx="3.2" ry="3.2"/>
</g>
</g>
</svg>
