<?xml version="1.0" encoding="UTF-8" standalone="no"?>
<!DOCTYPE svg PUBLIC "-//W3C//DTD SVG 1.1//EN"
 "http://www.w3.org/Graphics/SVG/1.1/DTD/svg11.dtd">
<!-- Generated by graphviz version 2.40.1 (20161225.0304)
 -->
<!-- Title: oneDegreeRelationshipsDiagram Pages: 1 -->
<svg width="503pt" height="1349pt"
 viewBox="0.00 0.00 503.00 1348.70" xmlns="http://www.w3.org/2000/svg" xmlns:xlink="http://www.w3.org/1999/xlink">
<g id="graph0" class="graph" transform="scale(1 1) rotate(0) translate(4 1344.7)">
<title>oneDegreeRelationshipsDiagram</title>
<polygon fill="#ffffff" stroke="transparent" points="-4,4 -4,-1344.7 499,-1344.7 499,4 -4,4"/>
<text text-anchor="middle" x="72.4936" y="-7.3" font-family="Helvetica,sans-Serif" font-size="11.00" fill="#000000">Generated by SchemaSpy</text>
<!-- form_eye_mag_dispense -->
<g id="node1" class="node">
<title>form_eye_mag_dispense</title>
<g id="a_node1"><a xlink:href="../../tables/form_eye_mag_dispense.html" xlink:title="form_eye_mag_dispense" target="_top">
<polygon fill="#ffffff" stroke="transparent" points="224,-38.2 224,-1294.2 487,-1294.2 487,-38.2 224,-38.2"/>
<polygon fill="#f5f5f5" stroke="transparent" points="226.5,-1269.2 226.5,-1292.2 485.5,-1292.2 485.5,-1269.2 226.5,-1269.2"/>
<polygon fill="none" stroke="#000000" points="226.5,-1269.2 226.5,-1292.2 485.5,-1292.2 485.5,-1269.2 226.5,-1269.2"/>
<text text-anchor="start" x="231.5" y="-1277.8" font-family="Helvetica,sans-Serif" font-weight="bold" font-size="11.00" fill="#000000">form_eye_mag_dispense</text>
<text text-anchor="start" x="450.5437" y="-1277.3" font-family="Helvetica,sans-Serif" font-size="11.00" fill="#000000">[table]</text>
<polygon fill="none" stroke="#000000" points="226.5,-1247.2 226.5,-1269.2 410.5,-1269.2 410.5,-1247.2 226.5,-1247.2"/>
<image xlink:href="../../images/primaryKeys.png" width="11px" height="12px" preserveAspectRatio="xMinYMin meet" x="231.5" y="-1264.2"/>
<text text-anchor="start" x="246.5" y="-1254.3" font-family="Helvetica,sans-Serif" font-size="11.00" fill="#000000">id</text>
<polygon fill="none" stroke="#000000" points="410.5,-1247.2 410.5,-1269.2 485.5,-1269.2 485.5,-1247.2 410.5,-1247.2"/>
<text text-anchor="start" x="413.5" y="-1254.9" font-family="Helvetica,sans-Serif" font-size="11.00" fill="#000000">bigint[19]</text>
<polygon fill="none" stroke="#000000" points="226.5,-1225.2 226.5,-1247.2 410.5,-1247.2 410.5,-1225.2 226.5,-1225.2"/>
<text text-anchor="start" x="246.5" y="-1232.3" font-family="Helvetica,sans-Serif" font-size="11.00" fill="#000000">date</text>
<polygon fill="none" stroke="#000000" points="410.5,-1225.2 410.5,-1247.2 485.5,-1247.2 485.5,-1225.2 410.5,-1225.2"/>
<text text-anchor="start" x="413.4666" y="-1232.9" font-family="Helvetica,sans-Serif" font-size="11.00" fill="#000000">timestamp[19]</text>
<polygon fill="#ffffff" stroke="transparent" points="226.5,-1203.2 226.5,-1225.2 410.5,-1225.2 410.5,-1203.2 226.5,-1203.2"/>
<polygon fill="none" stroke="#000000" points="226.5,-1203.2 226.5,-1225.2 410.5,-1225.2 410.5,-1203.2 226.5,-1203.2"/>
<text text-anchor="start" x="246.5" y="-1210.3" font-family="Helvetica,sans-Serif" font-size="11.00" fill="#000000">encounter</text>
<polygon fill="none" stroke="#000000" points="410.5,-1203.2 410.5,-1225.2 485.5,-1225.2 485.5,-1203.2 410.5,-1203.2"/>
<text text-anchor="start" x="413.5" y="-1210.9" font-family="Helvetica,sans-Serif" font-size="11.00" fill="#000000">bigint[19]</text>
<polygon fill="#ffffff" stroke="transparent" points="226.5,-1181.2 226.5,-1203.2 410.5,-1203.2 410.5,-1181.2 226.5,-1181.2"/>
<polygon fill="none" stroke="#000000" points="226.5,-1181.2 226.5,-1203.2 410.5,-1203.2 410.5,-1181.2 226.5,-1181.2"/>
<image xlink:href="../../images/foreignKeys.png" width="11px" height="12px" preserveAspectRatio="xMinYMin meet" x="231.5" y="-1198.2"/>
<text text-anchor="start" x="246.5" y="-1188.3" font-family="Helvetica,sans-Serif" font-size="11.00" fill="#000000">pid</text>
<polygon fill="none" stroke="#000000" points="410.5,-1181.2 410.5,-1203.2 485.5,-1203.2 485.5,-1181.2 410.5,-1181.2"/>
<text text-anchor="start" x="413.5" y="-1188.9" font-family="Helvetica,sans-Serif" font-size="11.00" fill="#000000">bigint[19]</text>
<polygon fill="none" stroke="#000000" points="226.5,-1159.2 226.5,-1181.2 410.5,-1181.2 410.5,-1159.2 226.5,-1159.2"/>
<text text-anchor="start" x="246.5" y="-1166.3" font-family="Helvetica,sans-Serif" font-size="11.00" fill="#000000">user</text>
<polygon fill="none" stroke="#000000" points="410.5,-1159.2 410.5,-1181.2 485.5,-1181.2 485.5,-1159.2 410.5,-1159.2"/>
<text text-anchor="start" x="413.5" y="-1166.9" font-family="Helvetica,sans-Serif" font-size="11.00" fill="#000000">varchar[255]</text>
<polygon fill="none" stroke="#000000" points="226.5,-1137.2 226.5,-1159.2 410.5,-1159.2 410.5,-1137.2 226.5,-1137.2"/>
<text text-anchor="start" x="246.5" y="-1144.3" font-family="Helvetica,sans-Serif" font-size="11.00" fill="#000000">groupname</text>
<polygon fill="none" stroke="#000000" points="410.5,-1137.2 410.5,-1159.2 485.5,-1159.2 485.5,-1137.2 410.5,-1137.2"/>
<text text-anchor="start" x="413.5" y="-1144.9" font-family="Helvetica,sans-Serif" font-size="11.00" fill="#000000">varchar[255]</text>
<polygon fill="none" stroke="#000000" points="226.5,-1115.2 226.5,-1137.2 410.5,-1137.2 410.5,-1115.2 226.5,-1115.2"/>
<text text-anchor="start" x="246.5" y="-1122.3" font-family="Helvetica,sans-Serif" font-size="11.00" fill="#000000">authorized</text>
<polygon fill="none" stroke="#000000" points="410.5,-1115.2 410.5,-1137.2 485.5,-1137.2 485.5,-1115.2 410.5,-1115.2"/>
<text text-anchor="start" x="413.5" y="-1122.9" font-family="Helvetica,sans-Serif" font-size="11.00" fill="#000000">tinyint[3]</text>
<polygon fill="none" stroke="#000000" points="226.5,-1093.2 226.5,-1115.2 410.5,-1115.2 410.5,-1093.2 226.5,-1093.2"/>
<text text-anchor="start" x="246.5" y="-1100.3" font-family="Helvetica,sans-Serif" font-size="11.00" fill="#000000">activity</text>
<polygon fill="none" stroke="#000000" points="410.5,-1093.2 410.5,-1115.2 485.5,-1115.2 485.5,-1093.2 410.5,-1093.2"/>
<text text-anchor="start" x="413.5" y="-1100.9" font-family="Helvetica,sans-Serif" font-size="11.00" fill="#000000">tinyint[3]</text>
<polygon fill="none" stroke="#000000" points="226.5,-1071.2 226.5,-1093.2 410.5,-1093.2 410.5,-1071.2 226.5,-1071.2"/>
<text text-anchor="start" x="246.5" y="-1078.3" font-family="Helvetica,sans-Serif" font-size="11.00" fill="#000000">REFDATE</text>
<polygon fill="none" stroke="#000000" points="410.5,-1071.2 410.5,-1093.2 485.5,-1093.2 485.5,-1071.2 410.5,-1071.2"/>
<text text-anchor="start" x="413.5" y="-1078.9" font-family="Helvetica,sans-Serif" font-size="11.00" fill="#000000">datetime[19]</text>
<polygon fill="none" stroke="#000000" points="226.5,-1049.2 226.5,-1071.2 410.5,-1071.2 410.5,-1049.2 226.5,-1049.2"/>
<text text-anchor="start" x="246.5" y="-1056.3" font-family="Helvetica,sans-Serif" font-size="11.00" fill="#000000">REFTYPE</text>
<polygon fill="none" stroke="#000000" points="410.5,-1049.2 410.5,-1071.2 485.5,-1071.2 485.5,-1049.2 410.5,-1049.2"/>
<text text-anchor="start" x="413.5" y="-1056.9" font-family="Helvetica,sans-Serif" font-size="11.00" fill="#000000">varchar[10]</text>
<polygon fill="none" stroke="#000000" points="226.5,-1027.2 226.5,-1049.2 410.5,-1049.2 410.5,-1027.2 226.5,-1027.2"/>
<text text-anchor="start" x="246.5" y="-1034.3" font-family="Helvetica,sans-Serif" font-size="11.00" fill="#000000">RXTYPE</text>
<polygon fill="none" stroke="#000000" points="410.5,-1027.2 410.5,-1049.2 485.5,-1049.2 485.5,-1027.2 410.5,-1027.2"/>
<text text-anchor="start" x="413.5" y="-1034.9" font-family="Helvetica,sans-Serif" font-size="11.00" fill="#000000">varchar[20]</text>
<polygon fill="none" stroke="#000000" points="226.5,-1005.2 226.5,-1027.2 410.5,-1027.2 410.5,-1005.2 226.5,-1005.2"/>
<text text-anchor="start" x="246.5" y="-1012.3" font-family="Helvetica,sans-Serif" font-size="11.00" fill="#000000">ODSPH</text>
<polygon fill="none" stroke="#000000" points="410.5,-1005.2 410.5,-1027.2 485.5,-1027.2 485.5,-1005.2 410.5,-1005.2"/>
<text text-anchor="start" x="413.5" y="-1012.9" font-family="Helvetica,sans-Serif" font-size="11.00" fill="#000000">varchar[10]</text>
<polygon fill="none" stroke="#000000" points="226.5,-983.2 226.5,-1005.2 410.5,-1005.2 410.5,-983.2 226.5,-983.2"/>
<text text-anchor="start" x="246.5" y="-990.3" font-family="Helvetica,sans-Serif" font-size="11.00" fill="#000000">ODCYL</text>
<polygon fill="none" stroke="#000000" points="410.5,-983.2 410.5,-1005.2 485.5,-1005.2 485.5,-983.2 410.5,-983.2"/>
<text text-anchor="start" x="413.5" y="-990.9" font-family="Helvetica,sans-Serif" font-size="11.00" fill="#000000">varchar[10]</text>
<polygon fill="none" stroke="#000000" points="226.5,-961.2 226.5,-983.2 410.5,-983.2 410.5,-961.2 226.5,-961.2"/>
<text text-anchor="start" x="246.5" y="-968.3" font-family="Helvetica,sans-Serif" font-size="11.00" fill="#000000">ODAXIS</text>
<polygon fill="none" stroke="#000000" points="410.5,-961.2 410.5,-983.2 485.5,-983.2 485.5,-961.2 410.5,-961.2"/>
<text text-anchor="start" x="413.5" y="-968.9" font-family="Helvetica,sans-Serif" font-size="11.00" fill="#000000">varchar[10]</text>
<polygon fill="none" stroke="#000000" points="226.5,-939.2 226.5,-961.2 410.5,-961.2 410.5,-939.2 226.5,-939.2"/>
<text text-anchor="start" x="246.5" y="-946.3" font-family="Helvetica,sans-Serif" font-size="11.00" fill="#000000">OSSPH</text>
<polygon fill="none" stroke="#000000" points="410.5,-939.2 410.5,-961.2 485.5,-961.2 485.5,-939.2 410.5,-939.2"/>
<text text-anchor="start" x="413.5" y="-946.9" font-family="Helvetica,sans-Serif" font-size="11.00" fill="#000000">varchar[10]</text>
<polygon fill="none" stroke="#000000" points="226.5,-917.2 226.5,-939.2 410.5,-939.2 410.5,-917.2 226.5,-917.2"/>
<text text-anchor="start" x="246.5" y="-924.3" font-family="Helvetica,sans-Serif" font-size="11.00" fill="#000000">OSCYL</text>
<polygon fill="none" stroke="#000000" points="410.5,-917.2 410.5,-939.2 485.5,-939.2 485.5,-917.2 410.5,-917.2"/>
<text text-anchor="start" x="413.5" y="-924.9" font-family="Helvetica,sans-Serif" font-size="11.00" fill="#000000">varchar[10]</text>
<polygon fill="none" stroke="#000000" points="226.5,-895.2 226.5,-917.2 410.5,-917.2 410.5,-895.2 226.5,-895.2"/>
<text text-anchor="start" x="246.5" y="-902.3" font-family="Helvetica,sans-Serif" font-size="11.00" fill="#000000">OSAXIS</text>
<polygon fill="none" stroke="#000000" points="410.5,-895.2 410.5,-917.2 485.5,-917.2 485.5,-895.2 410.5,-895.2"/>
<text text-anchor="start" x="413.5" y="-902.9" font-family="Helvetica,sans-Serif" font-size="11.00" fill="#000000">varchar[10]</text>
<polygon fill="none" stroke="#000000" points="226.5,-873.2 226.5,-895.2 410.5,-895.2 410.5,-873.2 226.5,-873.2"/>
<text text-anchor="start" x="246.5" y="-880.3" font-family="Helvetica,sans-Serif" font-size="11.00" fill="#000000">ODMIDADD</text>
<polygon fill="none" stroke="#000000" points="410.5,-873.2 410.5,-895.2 485.5,-895.2 485.5,-873.2 410.5,-873.2"/>
<text text-anchor="start" x="413.5" y="-880.9" font-family="Helvetica,sans-Serif" font-size="11.00" fill="#000000">varchar[10]</text>
<polygon fill="none" stroke="#000000" points="226.5,-851.2 226.5,-873.2 410.5,-873.2 410.5,-851.2 226.5,-851.2"/>
<text text-anchor="start" x="246.5" y="-858.3" font-family="Helvetica,sans-Serif" font-size="11.00" fill="#000000">OSMIDADD</text>
<polygon fill="none" stroke="#000000" points="410.5,-851.2 410.5,-873.2 485.5,-873.2 485.5,-851.2 410.5,-851.2"/>
<text text-anchor="start" x="413.5" y="-858.9" font-family="Helvetica,sans-Serif" font-size="11.00" fill="#000000">varchar[10]</text>
<polygon fill="none" stroke="#000000" points="226.5,-829.2 226.5,-851.2 410.5,-851.2 410.5,-829.2 226.5,-829.2"/>
<text text-anchor="start" x="246.5" y="-836.3" font-family="Helvetica,sans-Serif" font-size="11.00" fill="#000000">ODADD</text>
<polygon fill="none" stroke="#000000" points="410.5,-829.2 410.5,-851.2 485.5,-851.2 485.5,-829.2 410.5,-829.2"/>
<text text-anchor="start" x="413.5" y="-836.9" font-family="Helvetica,sans-Serif" font-size="11.00" fill="#000000">varchar[10]</text>
<polygon fill="none" stroke="#000000" points="226.5,-807.2 226.5,-829.2 410.5,-829.2 410.5,-807.2 226.5,-807.2"/>
<text text-anchor="start" x="246.5" y="-814.3" font-family="Helvetica,sans-Serif" font-size="11.00" fill="#000000">OSADD</text>
<polygon fill="none" stroke="#000000" points="410.5,-807.2 410.5,-829.2 485.5,-829.2 485.5,-807.2 410.5,-807.2"/>
<text text-anchor="start" x="413.5" y="-814.9" font-family="Helvetica,sans-Serif" font-size="11.00" fill="#000000">varchar[10]</text>
<polygon fill="none" stroke="#000000" points="226.5,-785.2 226.5,-807.2 410.5,-807.2 410.5,-785.2 226.5,-785.2"/>
<text text-anchor="start" x="246.5" y="-792.3" font-family="Helvetica,sans-Serif" font-size="11.00" fill="#000000">ODHPD</text>
<polygon fill="none" stroke="#000000" points="410.5,-785.2 410.5,-807.2 485.5,-807.2 485.5,-785.2 410.5,-785.2"/>
<text text-anchor="start" x="413.5" y="-792.9" font-family="Helvetica,sans-Serif" font-size="11.00" fill="#000000">varchar[20]</text>
<polygon fill="none" stroke="#000000" points="226.5,-763.2 226.5,-785.2 410.5,-785.2 410.5,-763.2 226.5,-763.2"/>
<text text-anchor="start" x="246.5" y="-770.3" font-family="Helvetica,sans-Serif" font-size="11.00" fill="#000000">ODHBASE</text>
<polygon fill="none" stroke="#000000" points="410.5,-763.2 410.5,-785.2 485.5,-785.2 485.5,-763.2 410.5,-763.2"/>
<text text-anchor="start" x="413.5" y="-770.9" font-family="Helvetica,sans-Serif" font-size="11.00" fill="#000000">varchar[20]</text>
<polygon fill="none" stroke="#000000" points="226.5,-741.2 226.5,-763.2 410.5,-763.2 410.5,-741.2 226.5,-741.2"/>
<text text-anchor="start" x="246.5" y="-748.3" font-family="Helvetica,sans-Serif" font-size="11.00" fill="#000000">ODVPD</text>
<polygon fill="none" stroke="#000000" points="410.5,-741.2 410.5,-763.2 485.5,-763.2 485.5,-741.2 410.5,-741.2"/>
<text text-anchor="start" x="413.5" y="-748.9" font-family="Helvetica,sans-Serif" font-size="11.00" fill="#000000">varchar[20]</text>
<polygon fill="none" stroke="#000000" points="226.5,-719.2 226.5,-741.2 410.5,-741.2 410.5,-719.2 226.5,-719.2"/>
<text text-anchor="start" x="246.5" y="-726.3" font-family="Helvetica,sans-Serif" font-size="11.00" fill="#000000">ODVBASE</text>
<polygon fill="none" stroke="#000000" points="410.5,-719.2 410.5,-741.2 485.5,-741.2 485.5,-719.2 410.5,-719.2"/>
<text text-anchor="start" x="413.5" y="-726.9" font-family="Helvetica,sans-Serif" font-size="11.00" fill="#000000">varchar[20]</text>
<polygon fill="none" stroke="#000000" points="226.5,-697.2 226.5,-719.2 410.5,-719.2 410.5,-697.2 226.5,-697.2"/>
<text text-anchor="start" x="246.5" y="-704.3" font-family="Helvetica,sans-Serif" font-size="11.00" fill="#000000">ODSLABOFF</text>
<polygon fill="none" stroke="#000000" points="410.5,-697.2 410.5,-719.2 485.5,-719.2 485.5,-697.2 410.5,-697.2"/>
<text text-anchor="start" x="413.5" y="-704.9" font-family="Helvetica,sans-Serif" font-size="11.00" fill="#000000">varchar[20]</text>
<polygon fill="none" stroke="#000000" points="226.5,-675.2 226.5,-697.2 410.5,-697.2 410.5,-675.2 226.5,-675.2"/>
<text text-anchor="start" x="246.5" y="-682.3" font-family="Helvetica,sans-Serif" font-size="11.00" fill="#000000">ODVERTEXDIST</text>
<polygon fill="none" stroke="#000000" points="410.5,-675.2 410.5,-697.2 485.5,-697.2 485.5,-675.2 410.5,-675.2"/>
<text text-anchor="start" x="413.5" y="-682.9" font-family="Helvetica,sans-Serif" font-size="11.00" fill="#000000">varchar[20]</text>
<polygon fill="none" stroke="#000000" points="226.5,-653.2 226.5,-675.2 410.5,-675.2 410.5,-653.2 226.5,-653.2"/>
<text text-anchor="start" x="246.5" y="-660.3" font-family="Helvetica,sans-Serif" font-size="11.00" fill="#000000">OSHPD</text>
<polygon fill="none" stroke="#000000" points="410.5,-653.2 410.5,-675.2 485.5,-675.2 485.5,-653.2 410.5,-653.2"/>
<text text-anchor="start" x="413.5" y="-660.9" font-family="Helvetica,sans-Serif" font-size="11.00" fill="#000000">varchar[20]</text>
<polygon fill="none" stroke="#000000" points="226.5,-631.2 226.5,-653.2 410.5,-653.2 410.5,-631.2 226.5,-631.2"/>
<text text-anchor="start" x="246.5" y="-638.3" font-family="Helvetica,sans-Serif" font-size="11.00" fill="#000000">OSHBASE</text>
<polygon fill="none" stroke="#000000" points="410.5,-631.2 410.5,-653.2 485.5,-653.2 485.5,-631.2 410.5,-631.2"/>
<text text-anchor="start" x="413.5" y="-638.9" font-family="Helvetica,sans-Serif" font-size="11.00" fill="#000000">varchar[20]</text>
<polygon fill="none" stroke="#000000" points="226.5,-609.2 226.5,-631.2 410.5,-631.2 410.5,-609.2 226.5,-609.2"/>
<text text-anchor="start" x="246.5" y="-616.3" font-family="Helvetica,sans-Serif" font-size="11.00" fill="#000000">OSVPD</text>
<polygon fill="none" stroke="#000000" points="410.5,-609.2 410.5,-631.2 485.5,-631.2 485.5,-609.2 410.5,-609.2"/>
<text text-anchor="start" x="413.5" y="-616.9" font-family="Helvetica,sans-Serif" font-size="11.00" fill="#000000">varchar[20]</text>
<polygon fill="none" stroke="#000000" points="226.5,-587.2 226.5,-609.2 410.5,-609.2 410.5,-587.2 226.5,-587.2"/>
<text text-anchor="start" x="246.5" y="-594.3" font-family="Helvetica,sans-Serif" font-size="11.00" fill="#000000">OSVBASE</text>
<polygon fill="none" stroke="#000000" points="410.5,-587.2 410.5,-609.2 485.5,-609.2 485.5,-587.2 410.5,-587.2"/>
<text text-anchor="start" x="413.5" y="-594.9" font-family="Helvetica,sans-Serif" font-size="11.00" fill="#000000">varchar[20]</text>
<polygon fill="none" stroke="#000000" points="226.5,-565.2 226.5,-587.2 410.5,-587.2 410.5,-565.2 226.5,-565.2"/>
<text text-anchor="start" x="246.5" y="-572.3" font-family="Helvetica,sans-Serif" font-size="11.00" fill="#000000">OSSLABOFF</text>
<polygon fill="none" stroke="#000000" points="410.5,-565.2 410.5,-587.2 485.5,-587.2 485.5,-565.2 410.5,-565.2"/>
<text text-anchor="start" x="413.5" y="-572.9" font-family="Helvetica,sans-Serif" font-size="11.00" fill="#000000">varchar[20]</text>
<polygon fill="none" stroke="#000000" points="226.5,-543.2 226.5,-565.2 410.5,-565.2 410.5,-543.2 226.5,-543.2"/>
<text text-anchor="start" x="246.5" y="-550.3" font-family="Helvetica,sans-Serif" font-size="11.00" fill="#000000">OSVERTEXDIST</text>
<polygon fill="none" stroke="#000000" points="410.5,-543.2 410.5,-565.2 485.5,-565.2 485.5,-543.2 410.5,-543.2"/>
<text text-anchor="start" x="413.5" y="-550.9" font-family="Helvetica,sans-Serif" font-size="11.00" fill="#000000">varchar[20]</text>
<polygon fill="none" stroke="#000000" points="226.5,-521.2 226.5,-543.2 410.5,-543.2 410.5,-521.2 226.5,-521.2"/>
<text text-anchor="start" x="246.5" y="-528.3" font-family="Helvetica,sans-Serif" font-size="11.00" fill="#000000">ODMPDD</text>
<polygon fill="none" stroke="#000000" points="410.5,-521.2 410.5,-543.2 485.5,-543.2 485.5,-521.2 410.5,-521.2"/>
<text text-anchor="start" x="413.5" y="-528.9" font-family="Helvetica,sans-Serif" font-size="11.00" fill="#000000">varchar[20]</text>
<polygon fill="none" stroke="#000000" points="226.5,-499.2 226.5,-521.2 410.5,-521.2 410.5,-499.2 226.5,-499.2"/>
<text text-anchor="start" x="246.5" y="-506.3" font-family="Helvetica,sans-Serif" font-size="11.00" fill="#000000">ODMPDN</text>
<polygon fill="none" stroke="#000000" points="410.5,-499.2 410.5,-521.2 485.5,-521.2 485.5,-499.2 410.5,-499.2"/>
<text text-anchor="start" x="413.5" y="-506.9" font-family="Helvetica,sans-Serif" font-size="11.00" fill="#000000">varchar[20]</text>
<polygon fill="none" stroke="#000000" points="226.5,-477.2 226.5,-499.2 410.5,-499.2 410.5,-477.2 226.5,-477.2"/>
<text text-anchor="start" x="246.5" y="-484.3" font-family="Helvetica,sans-Serif" font-size="11.00" fill="#000000">OSMPDD</text>
<polygon fill="none" stroke="#000000" points="410.5,-477.2 410.5,-499.2 485.5,-499.2 485.5,-477.2 410.5,-477.2"/>
<text text-anchor="start" x="413.5" y="-484.9" font-family="Helvetica,sans-Serif" font-size="11.00" fill="#000000">varchar[20]</text>
<polygon fill="none" stroke="#000000" points="226.5,-455.2 226.5,-477.2 410.5,-477.2 410.5,-455.2 226.5,-455.2"/>
<text text-anchor="start" x="246.5" y="-462.3" font-family="Helvetica,sans-Serif" font-size="11.00" fill="#000000">OSMPDN</text>
<polygon fill="none" stroke="#000000" points="410.5,-455.2 410.5,-477.2 485.5,-477.2 485.5,-455.2 410.5,-455.2"/>
<text text-anchor="start" x="413.5" y="-462.9" font-family="Helvetica,sans-Serif" font-size="11.00" fill="#000000">varchar[20]</text>
<polygon fill="none" stroke="#000000" points="226.5,-433.2 226.5,-455.2 410.5,-455.2 410.5,-433.2 226.5,-433.2"/>
<text text-anchor="start" x="246.5" y="-440.3" font-family="Helvetica,sans-Serif" font-size="11.00" fill="#000000">BPDD</text>
<polygon fill="none" stroke="#000000" points="410.5,-433.2 410.5,-455.2 485.5,-455.2 485.5,-433.2 410.5,-433.2"/>
<text text-anchor="start" x="413.5" y="-440.9" font-family="Helvetica,sans-Serif" font-size="11.00" fill="#000000">varchar[20]</text>
<polygon fill="none" stroke="#000000" points="226.5,-411.2 226.5,-433.2 410.5,-433.2 410.5,-411.2 226.5,-411.2"/>
<text text-anchor="start" x="246.5" y="-418.3" font-family="Helvetica,sans-Serif" font-size="11.00" fill="#000000">BPDN</text>
<polygon fill="none" stroke="#000000" points="410.5,-411.2 410.5,-433.2 485.5,-433.2 485.5,-411.2 410.5,-411.2"/>
<text text-anchor="start" x="413.5" y="-418.9" font-family="Helvetica,sans-Serif" font-size="11.00" fill="#000000">varchar[20]</text>
<polygon fill="none" stroke="#000000" points="226.5,-389.2 226.5,-411.2 410.5,-411.2 410.5,-389.2 226.5,-389.2"/>
<text text-anchor="start" x="246.5" y="-396.3" font-family="Helvetica,sans-Serif" font-size="11.00" fill="#000000">LENS_MATERIAL</text>
<polygon fill="none" stroke="#000000" points="410.5,-389.2 410.5,-411.2 485.5,-411.2 485.5,-389.2 410.5,-389.2"/>
<text text-anchor="start" x="413.5" y="-396.9" font-family="Helvetica,sans-Serif" font-size="11.00" fill="#000000">varchar[20]</text>
<polygon fill="none" stroke="#000000" points="226.5,-367.2 226.5,-389.2 410.5,-389.2 410.5,-367.2 226.5,-367.2"/>
<text text-anchor="start" x="246.5" y="-374.3" font-family="Helvetica,sans-Serif" font-size="11.00" fill="#000000">LENS_TREATMENTS</text>
<polygon fill="none" stroke="#000000" points="410.5,-367.2 410.5,-389.2 485.5,-389.2 485.5,-367.2 410.5,-367.2"/>
<text text-anchor="start" x="413.5" y="-374.9" font-family="Helvetica,sans-Serif" font-size="11.00" fill="#000000">varchar[100]</text>
<polygon fill="none" stroke="#000000" points="226.5,-345.2 226.5,-367.2 410.5,-367.2 410.5,-345.2 226.5,-345.2"/>
<text text-anchor="start" x="246.5" y="-352.3" font-family="Helvetica,sans-Serif" font-size="11.00" fill="#000000">CTLMANUFACTUREROD</text>
<polygon fill="none" stroke="#000000" points="410.5,-345.2 410.5,-367.2 485.5,-367.2 485.5,-345.2 410.5,-345.2"/>
<text text-anchor="start" x="413.5" y="-352.9" font-family="Helvetica,sans-Serif" font-size="11.00" fill="#000000">varchar[25]</text>
<polygon fill="none" stroke="#000000" points="226.5,-323.2 226.5,-345.2 410.5,-345.2 410.5,-323.2 226.5,-323.2"/>
<text text-anchor="start" x="246.5" y="-330.3" font-family="Helvetica,sans-Serif" font-size="11.00" fill="#000000">CTLMANUFACTUREROS</text>
<polygon fill="none" stroke="#000000" points="410.5,-323.2 410.5,-345.2 485.5,-345.2 485.5,-323.2 410.5,-323.2"/>
<text text-anchor="start" x="413.5" y="-330.9" font-family="Helvetica,sans-Serif" font-size="11.00" fill="#000000">varchar[25]</text>
<polygon fill="none" stroke="#000000" points="226.5,-301.2 226.5,-323.2 410.5,-323.2 410.5,-301.2 226.5,-301.2"/>
<text text-anchor="start" x="246.5" y="-308.3" font-family="Helvetica,sans-Serif" font-size="11.00" fill="#000000">CTLSUPPLIEROD</text>
<polygon fill="none" stroke="#000000" points="410.5,-301.2 410.5,-323.2 485.5,-323.2 485.5,-301.2 410.5,-301.2"/>
<text text-anchor="start" x="413.5" y="-308.9" font-family="Helvetica,sans-Serif" font-size="11.00" fill="#000000">varchar[25]</text>
<polygon fill="none" stroke="#000000" points="226.5,-279.2 226.5,-301.2 410.5,-301.2 410.5,-279.2 226.5,-279.2"/>
<text text-anchor="start" x="246.5" y="-286.3" font-family="Helvetica,sans-Serif" font-size="11.00" fill="#000000">CTLSUPPLIEROS</text>
<polygon fill="none" stroke="#000000" points="410.5,-279.2 410.5,-301.2 485.5,-301.2 485.5,-279.2 410.5,-279.2"/>
<text text-anchor="start" x="413.5" y="-286.9" font-family="Helvetica,sans-Serif" font-size="11.00" fill="#000000">varchar[25]</text>
<polygon fill="none" stroke="#000000" points="226.5,-257.2 226.5,-279.2 410.5,-279.2 410.5,-257.2 226.5,-257.2"/>
<text text-anchor="start" x="246.5" y="-264.3" font-family="Helvetica,sans-Serif" font-size="11.00" fill="#000000">CTLBRANDOD</text>
<polygon fill="none" stroke="#000000" points="410.5,-257.2 410.5,-279.2 485.5,-279.2 485.5,-257.2 410.5,-257.2"/>
<text text-anchor="start" x="413.5" y="-264.9" font-family="Helvetica,sans-Serif" font-size="11.00" fill="#000000">varchar[50]</text>
<polygon fill="none" stroke="#000000" points="226.5,-235.2 226.5,-257.2 410.5,-257.2 410.5,-235.2 226.5,-235.2"/>
<text text-anchor="start" x="246.5" y="-242.3" font-family="Helvetica,sans-Serif" font-size="11.00" fill="#000000">CTLBRANDOS</text>
<polygon fill="none" stroke="#000000" points="410.5,-235.2 410.5,-257.2 485.5,-257.2 485.5,-235.2 410.5,-235.2"/>
<text text-anchor="start" x="413.5" y="-242.9" font-family="Helvetica,sans-Serif" font-size="11.00" fill="#000000">varchar[50]</text>
<polygon fill="none" stroke="#000000" points="226.5,-213.2 226.5,-235.2 410.5,-235.2 410.5,-213.2 226.5,-213.2"/>
<text text-anchor="start" x="246.5" y="-220.3" font-family="Helvetica,sans-Serif" font-size="11.00" fill="#000000">CTLODQUANTITY</text>
<polygon fill="none" stroke="#000000" points="410.5,-213.2 410.5,-235.2 485.5,-235.2 485.5,-213.2 410.5,-213.2"/>
<text text-anchor="start" x="413.5" y="-220.9" font-family="Helvetica,sans-Serif" font-size="11.00" fill="#000000">varchar[255]</text>
<polygon fill="none" stroke="#000000" points="226.5,-191.2 226.5,-213.2 410.5,-213.2 410.5,-191.2 226.5,-191.2"/>
<text text-anchor="start" x="246.5" y="-198.3" font-family="Helvetica,sans-Serif" font-size="11.00" fill="#000000">CTLOSQUANTITY</text>
<polygon fill="none" stroke="#000000" points="410.5,-191.2 410.5,-213.2 485.5,-213.2 485.5,-191.2 410.5,-191.2"/>
<text text-anchor="start" x="413.5" y="-198.9" font-family="Helvetica,sans-Serif" font-size="11.00" fill="#000000">varchar[255]</text>
<polygon fill="none" stroke="#000000" points="226.5,-169.2 226.5,-191.2 410.5,-191.2 410.5,-169.2 226.5,-169.2"/>
<text text-anchor="start" x="246.5" y="-176.3" font-family="Helvetica,sans-Serif" font-size="11.00" fill="#000000">ODDIAM</text>
<polygon fill="none" stroke="#000000" points="410.5,-169.2 410.5,-191.2 485.5,-191.2 485.5,-169.2 410.5,-169.2"/>
<text text-anchor="start" x="413.5" y="-176.9" font-family="Helvetica,sans-Serif" font-size="11.00" fill="#000000">varchar[50]</text>
<polygon fill="none" stroke="#000000" points="226.5,-147.2 226.5,-169.2 410.5,-169.2 410.5,-147.2 226.5,-147.2"/>
<text text-anchor="start" x="246.5" y="-154.3" font-family="Helvetica,sans-Serif" font-size="11.00" fill="#000000">ODBC</text>
<polygon fill="none" stroke="#000000" points="410.5,-147.2 410.5,-169.2 485.5,-169.2 485.5,-147.2 410.5,-147.2"/>
<text text-anchor="start" x="413.5" y="-154.9" font-family="Helvetica,sans-Serif" font-size="11.00" fill="#000000">varchar[50]</text>
<polygon fill="none" stroke="#000000" points="226.5,-125.2 226.5,-147.2 410.5,-147.2 410.5,-125.2 226.5,-125.2"/>
<text text-anchor="start" x="246.5" y="-132.3" font-family="Helvetica,sans-Serif" font-size="11.00" fill="#000000">OSDIAM</text>
<polygon fill="none" stroke="#000000" points="410.5,-125.2 410.5,-147.2 485.5,-147.2 485.5,-125.2 410.5,-125.2"/>
<text text-anchor="start" x="413.5" y="-132.9" font-family="Helvetica,sans-Serif" font-size="11.00" fill="#000000">varchar[50]</text>
<polygon fill="none" stroke="#000000" points="226.5,-103.2 226.5,-125.2 410.5,-125.2 410.5,-103.2 226.5,-103.2"/>
<text text-anchor="start" x="246.5" y="-110.3" font-family="Helvetica,sans-Serif" font-size="11.00" fill="#000000">OSBC</text>
<polygon fill="none" stroke="#000000" points="410.5,-103.2 410.5,-125.2 485.5,-125.2 485.5,-103.2 410.5,-103.2"/>
<text text-anchor="start" x="413.5" y="-110.9" font-family="Helvetica,sans-Serif" font-size="11.00" fill="#000000">varchar[50]</text>
<polygon fill="none" stroke="#000000" points="226.5,-81.2 226.5,-103.2 410.5,-103.2 410.5,-81.2 226.5,-81.2"/>
<text text-anchor="start" x="246.5" y="-88.3" font-family="Helvetica,sans-Serif" font-size="11.00" fill="#000000">RXCOMMENTS</text>
<polygon fill="none" stroke="#000000" points="410.5,-81.2 410.5,-103.2 485.5,-103.2 485.5,-81.2 410.5,-81.2"/>
<text text-anchor="start" x="413.5" y="-88.9" font-family="Helvetica,sans-Serif" font-size="11.00" fill="#000000">text[65535]</text>
<polygon fill="none" stroke="#000000" points="226.5,-59.2 226.5,-81.2 410.5,-81.2 410.5,-59.2 226.5,-59.2"/>
<text text-anchor="start" x="246.5" y="-66.3" font-family="Helvetica,sans-Serif" font-size="11.00" fill="#000000">COMMENTS</text>
<polygon fill="none" stroke="#000000" points="410.5,-59.2 410.5,-81.2 485.5,-81.2 485.5,-59.2 410.5,-59.2"/>
<text text-anchor="start" x="413.5" y="-66.9" font-family="Helvetica,sans-Serif" font-size="11.00" fill="#000000">text[65535]</text>
<polygon fill="#ffffff" stroke="transparent" points="226.5,-40.2 226.5,-59.2 322.5,-59.2 322.5,-40.2 226.5,-40.2"/>
<polygon fill="none" stroke="#000000" points="226.5,-40.2 226.5,-59.2 322.5,-59.2 322.5,-40.2 226.5,-40.2"/>
<text text-anchor="start" x="229.5" y="-46.3" font-family="Helvetica,sans-Serif" font-size="11.00" fill="#000000">&lt; 1</text>
<polygon fill="#ffffff" stroke="transparent" points="322.5,-40.2 322.5,-59.2 410.5,-59.2 410.5,-40.2 322.5,-40.2"/>
<polygon fill="none" stroke="#000000" points="322.5,-40.2 322.5,-59.2 410.5,-59.2 410.5,-40.2 322.5,-40.2"/>
<text text-anchor="start" x="401.3862" y="-46.3" font-family="Helvetica,sans-Serif" font-size="11.00" fill="#000000"> &#160;</text>
<polygon fill="#ffffff" stroke="transparent" points="410.5,-40.2 410.5,-59.2 485.5,-59.2 485.5,-40.2 410.5,-40.2"/>
<polygon fill="none" stroke="#000000" points="410.5,-40.2 410.5,-59.2 485.5,-59.2 485.5,-40.2 410.5,-40.2"/>
<text text-anchor="start" x="466.9053" y="-46.3" font-family="Helvetica,sans-Serif" font-size="11.00" fill="#000000">0 &gt;</text>
<polygon fill="none" stroke="#000000" stroke-width="2" points="225,-39.2 225,-1293.2 486,-1293.2 486,-39.2 225,-39.2"/>
</a>
</g>
</g>
<!-- patient_data -->
<g id="node2" class="node">
<title>patient_data</title>
<g id="a_node2"><a xlink:href="../../tables/patient_data.html" xlink:title="patient_data" target="_top">
<polygon fill="#ffffff" stroke="transparent" points="8,-1099.7 8,-1336.7 175,-1336.7 175,-1099.7 8,-1099.7"/>
<polygon fill="#f5f5f5" stroke="transparent" points="8.5,-1313.2 8.5,-1336.2 175.5,-1336.2 175.5,-1313.2 8.5,-1313.2"/>
<polygon fill="none" stroke="#000000" points="8.5,-1313.2 8.5,-1336.2 175.5,-1336.2 175.5,-1313.2 8.5,-1313.2"/>
<text text-anchor="start" x="13.5" y="-1321.8" font-family="Helvetica,sans-Serif" font-weight="bold" font-size="11.00" fill="#000000">patient_data</text>
<text text-anchor="start" x="140.5437" y="-1321.3" font-family="Helvetica,sans-Serif" font-size="11.00" fill="#000000">[table]</text>
<polygon fill="#ffffff" stroke="transparent" points="8.5,-1291.2 8.5,-1313.2 175.5,-1313.2 175.5,-1291.2 8.5,-1291.2"/>
<polygon fill="none" stroke="#000000" points="8.5,-1291.2 8.5,-1313.2 175.5,-1313.2 175.5,-1291.2 8.5,-1291.2"/>
<text text-anchor="start" x="28.5" y="-1298.3" font-family="Helvetica,sans-Serif" font-size="11.00" fill="#000000">id</text>
<polygon fill="#ffffff" stroke="transparent" points="8.5,-1269.2 8.5,-1291.2 175.5,-1291.2 175.5,-1269.2 8.5,-1269.2"/>
<polygon fill="none" stroke="#000000" points="8.5,-1269.2 8.5,-1291.2 175.5,-1291.2 175.5,-1269.2 8.5,-1269.2"/>
<text text-anchor="start" x="28.5" y="-1276.3" font-family="Helvetica,sans-Serif" font-size="11.00" fill="#000000">uuid</text>
<polygon fill="none" stroke="#000000" points="8.5,-1247.2 8.5,-1269.2 175.5,-1269.2 175.5,-1247.2 8.5,-1247.2"/>
<image xlink:href="../../images/foreignKeys.png" width="11px" height="12px" preserveAspectRatio="xMinYMin meet" x="13.5" y="-1264.2"/>
<text text-anchor="start" x="28.5" y="-1254.3" font-family="Helvetica,sans-Serif" font-size="11.00" fill="#000000">pharmacy_id</text>
<polygon fill="none" stroke="#000000" points="8.5,-1225.2 8.5,-1247.2 175.5,-1247.2 175.5,-1225.2 8.5,-1225.2"/>
<image xlink:href="../../images/foreignKeys.png" width="11px" height="12px" preserveAspectRatio="xMinYMin meet" x="13.5" y="-1242.2"/>
<text text-anchor="start" x="28.5" y="-1232.3" font-family="Helvetica,sans-Serif" font-size="11.00" fill="#000000">providerID</text>
<polygon fill="none" stroke="#000000" points="8.5,-1203.2 8.5,-1225.2 175.5,-1225.2 175.5,-1203.2 8.5,-1203.2"/>
<image xlink:href="../../images/foreignKeys.png" width="11px" height="12px" preserveAspectRatio="xMinYMin meet" x="13.5" y="-1220.2"/>
<text text-anchor="start" x="28.5" y="-1210.3" font-family="Helvetica,sans-Serif" font-size="11.00" fill="#000000">ref_providerID</text>
<polygon fill="none" stroke="#000000" points="8.5,-1181.2 8.5,-1203.2 175.5,-1203.2 175.5,-1181.2 8.5,-1181.2"/>
<image xlink:href="../../images/primaryKeys.png" width="11px" height="12px" preserveAspectRatio="xMinYMin meet" x="13.5" y="-1198.2"/>
<text text-anchor="start" x="28.5" y="-1188.3" font-family="Helvetica,sans-Serif" font-size="11.00" fill="#000000">pid</text>
<polygon fill="none" stroke="#000000" points="8.5,-1159.2 8.5,-1181.2 175.5,-1181.2 175.5,-1159.2 8.5,-1159.2"/>
<image xlink:href="../../images/foreignKeys.png" width="11px" height="12px" preserveAspectRatio="xMinYMin meet" x="13.5" y="-1176.2"/>
<text text-anchor="start" x="28.5" y="-1166.3" font-family="Helvetica,sans-Serif" font-size="11.00" fill="#000000">created_by</text>
<polygon fill="none" stroke="#000000" points="8.5,-1137.2 8.5,-1159.2 175.5,-1159.2 175.5,-1137.2 8.5,-1137.2"/>
<image xlink:href="../../images/foreignKeys.png" width="11px" height="12px" preserveAspectRatio="xMinYMin meet" x="13.5" y="-1154.2"/>
<text text-anchor="start" x="28.5" y="-1144.3" font-family="Helvetica,sans-Serif" font-size="11.00" fill="#000000">updated_by</text>
<polygon fill="none" stroke="#000000" points="8.5,-1118.2 8.5,-1137.2 175.5,-1137.2 175.5,-1118.2 8.5,-1118.2"/>
<text text-anchor="start" x="11.5" y="-1124.3" font-family="Helvetica,sans-Serif" font-size="11.00" fill="#000000">...</text>
<polygon fill="#ffffff" stroke="transparent" points="8.5,-1099.2 8.5,-1118.2 82.5,-1118.2 82.5,-1099.2 8.5,-1099.2"/>
<polygon fill="none" stroke="#000000" points="8.5,-1099.2 8.5,-1118.2 82.5,-1118.2 82.5,-1099.2 8.5,-1099.2"/>
<text text-anchor="start" x="11.5" y="-1105.3" font-family="Helvetica,sans-Serif" font-size="11.00" fill="#000000">&lt; 5</text>
<polygon fill="#ffffff" stroke="transparent" points="82.5,-1099.2 82.5,-1118.2 121.5,-1118.2 121.5,-1099.2 82.5,-1099.2"/>
<polygon fill="none" stroke="#000000" points="82.5,-1099.2 82.5,-1118.2 121.5,-1118.2 121.5,-1099.2 82.5,-1099.2"/>
<text text-anchor="start" x="112.3862" y="-1105.3" font-family="Helvetica,sans-Serif" font-size="11.00" fill="#000000"> &#160;</text>
<polygon fill="#ffffff" stroke="transparent" points="121.5,-1099.2 121.5,-1118.2 175.5,-1118.2 175.5,-1099.2 121.5,-1099.2"/>
<polygon fill="none" stroke="#000000" points="121.5,-1099.2 121.5,-1118.2 175.5,-1118.2 175.5,-1099.2 121.5,-1099.2"/>
<text text-anchor="start" x="150.7904" y="-1105.3" font-family="Helvetica,sans-Serif" font-size="11.00" fill="#000000">85 &gt;</text>
</a>
</g>
</g>
<!-- form_eye_mag_dispense&#45;&gt;patient_data -->
<g id="edge1" class="edge">
<title>form_eye_mag_dispense:w&#45;&gt;patient_data:e</title>
<path fill="none" stroke="#000000" d="M211.776,-1192.2C199.7815,-1192.2 192.3229,-1192.2 175.5,-1192.2"/>
<polygon fill="#000000" stroke="#000000" points="218.5,-1192.2001 226.5,-1195.8 222.5,-1192.2 226.5,-1192.2 226.5,-1192.2 226.5,-1192.2 222.5,-1192.2 226.5,-1188.6 218.5,-1192.2001 218.5,-1192.2001"/>
<ellipse fill="none" stroke="#000000" cx="215.3" cy="-1192.2001" rx="3.2" ry="3.2"/>
</g>
</g>
</svg>
