<?xml version="1.0" encoding="UTF-8" standalone="no"?>
<!DOCTYPE svg PUBLIC "-//W3C//DTD SVG 1.1//EN"
 "http://www.w3.org/Graphics/SVG/1.1/DTD/svg11.dtd">
<!-- Generated by graphviz version 2.40.1 (20161225.0304)
 -->
<!-- Title: oneDegreeRelationshipsDiagram Pages: 1 -->
<svg width="796pt" height="264pt"
 viewBox="0.00 0.00 796.00 263.70" xmlns="http://www.w3.org/2000/svg" xmlns:xlink="http://www.w3.org/1999/xlink">
<g id="graph0" class="graph" transform="scale(1 1) rotate(0) translate(4 259.7)">
<title>oneDegreeRelationshipsDiagram</title>
<polygon fill="#ffffff" stroke="transparent" points="-4,4 -4,-259.7 792,-259.7 792,4 -4,4"/>
<text text-anchor="middle" x="72.4936" y="-7.3" font-family="Helvetica,sans-Serif" font-size="11.00" fill="#000000">Generated by SchemaSpy</text>
<!-- form_track_anything -->
<g id="node1" class="node">
<title>form_track_anything</title>
<g id="a_node1"><a xlink:href="../../tables/form_track_anything.html" xlink:title="form_track_anything" target="_top">
<polygon fill="#ffffff" stroke="transparent" points="271,-124.7 271,-251.7 448,-251.7 448,-124.7 271,-124.7"/>
<polygon fill="#f5f5f5" stroke="transparent" points="271.5,-228.2 271.5,-251.2 448.5,-251.2 448.5,-228.2 271.5,-228.2"/>
<polygon fill="none" stroke="#000000" points="271.5,-228.2 271.5,-251.2 448.5,-251.2 448.5,-228.2 271.5,-228.2"/>
<text text-anchor="start" x="276.5" y="-236.8" font-family="Helvetica,sans-Serif" font-weight="bold" font-size="11.00" fill="#000000">form_track_anything</text>
<text text-anchor="start" x="414.0219" y="-236.3" font-family="Helvetica,sans-Serif" font-size="11.00" fill="#000000">[table]</text>
<polygon fill="none" stroke="#000000" points="271.5,-206.2 271.5,-228.2 448.5,-228.2 448.5,-206.2 271.5,-206.2"/>
<image xlink:href="../../images/primaryKeys.png" width="11px" height="12px" preserveAspectRatio="xMinYMin meet" x="276.5" y="-223.2"/>
<text text-anchor="start" x="300.5" y="-213.3" font-family="Helvetica,sans-Serif" font-size="11.00" fill="#000000">id</text>
<polygon fill="none" stroke="#000000" points="271.5,-184.2 271.5,-206.2 448.5,-206.2 448.5,-184.2 271.5,-184.2"/>
<image xlink:href="../../images/foreignKeys.png" width="11px" height="12px" preserveAspectRatio="xMinYMin meet" x="276.5" y="-201.2"/>
<text text-anchor="start" x="300.5" y="-191.3" font-family="Helvetica,sans-Serif" font-size="11.00" fill="#000000">pid</text>
<polygon fill="none" stroke="#000000" points="271.5,-162.2 271.5,-184.2 448.5,-184.2 448.5,-162.2 271.5,-162.2"/>
<image xlink:href="../../images/foreignKeys.png" width="11px" height="12px" preserveAspectRatio="xMinYMin meet" x="276.5" y="-179.2"/>
<text text-anchor="start" x="300.5" y="-169.3" font-family="Helvetica,sans-Serif" font-size="11.00" fill="#000000">procedure_type_id</text>
<polygon fill="none" stroke="#000000" points="271.5,-143.2 271.5,-162.2 448.5,-162.2 448.5,-143.2 271.5,-143.2"/>
<text text-anchor="start" x="274.5" y="-149.3" font-family="Helvetica,sans-Serif" font-size="11.00" fill="#000000">...</text>
<polygon fill="#ffffff" stroke="transparent" points="271.5,-124.2 271.5,-143.2 353.5,-143.2 353.5,-124.2 271.5,-124.2"/>
<polygon fill="none" stroke="#000000" points="271.5,-124.2 271.5,-143.2 353.5,-143.2 353.5,-124.2 271.5,-124.2"/>
<text text-anchor="start" x="274.5" y="-130.3" font-family="Helvetica,sans-Serif" font-size="11.00" fill="#000000">&lt; 3</text>
<polygon fill="#ffffff" stroke="transparent" points="353.5,-124.2 353.5,-143.2 396.5,-143.2 396.5,-124.2 353.5,-124.2"/>
<polygon fill="none" stroke="#000000" points="353.5,-124.2 353.5,-143.2 396.5,-143.2 396.5,-124.2 353.5,-124.2"/>
<text text-anchor="start" x="387.3862" y="-130.3" font-family="Helvetica,sans-Serif" font-size="11.00" fill="#000000"> &#160;</text>
<polygon fill="#ffffff" stroke="transparent" points="396.5,-124.2 396.5,-143.2 448.5,-143.2 448.5,-124.2 396.5,-124.2"/>
<polygon fill="none" stroke="#000000" points="396.5,-124.2 396.5,-143.2 448.5,-143.2 448.5,-124.2 396.5,-124.2"/>
<text text-anchor="start" x="429.9053" y="-130.3" font-family="Helvetica,sans-Serif" font-size="11.00" fill="#000000">1 &gt;</text>
</a>
</g>
</g>
<!-- form_track_anything_type -->
<g id="node2" class="node">
<title>form_track_anything_type</title>
<g id="a_node2"><a xlink:href="../../tables/form_track_anything_type.html" xlink:title="form_track_anything_type" target="_top">
<polygon fill="#ffffff" stroke="transparent" points="8,-87.7 8,-170.7 222,-170.7 222,-87.7 8,-87.7"/>
<polygon fill="#f5f5f5" stroke="transparent" points="8,-147.2 8,-170.2 222,-170.2 222,-147.2 8,-147.2"/>
<polygon fill="none" stroke="#000000" points="8,-147.2 8,-170.2 222,-170.2 222,-147.2 8,-147.2"/>
<text text-anchor="start" x="13" y="-155.8" font-family="Helvetica,sans-Serif" font-weight="bold" font-size="11.00" fill="#000000">form_track_anything_type</text>
<text text-anchor="start" x="187.5219" y="-155.3" font-family="Helvetica,sans-Serif" font-size="11.00" fill="#000000">[table]</text>
<polygon fill="none" stroke="#000000" points="8,-125.2 8,-147.2 222,-147.2 222,-125.2 8,-125.2"/>
<image xlink:href="../../images/primaryKeys.png" width="11px" height="12px" preserveAspectRatio="xMinYMin meet" x="13" y="-142.2"/>
<text text-anchor="start" x="37" y="-132.3" font-family="Helvetica,sans-Serif" font-size="11.00" fill="#000000">track_anything_type_id</text>
<polygon fill="none" stroke="#000000" points="8,-106.2 8,-125.2 222,-125.2 222,-106.2 8,-106.2"/>
<text text-anchor="start" x="11" y="-112.3" font-family="Helvetica,sans-Serif" font-size="11.00" fill="#000000">...</text>
<polygon fill="#ffffff" stroke="transparent" points="8,-87.2 8,-106.2 104,-106.2 104,-87.2 8,-87.2"/>
<polygon fill="none" stroke="#000000" points="8,-87.2 8,-106.2 104,-106.2 104,-87.2 8,-87.2"/>
<text text-anchor="start" x="11" y="-93.3" font-family="Helvetica,sans-Serif" font-size="11.00" fill="#000000"> &#160;</text>
<polygon fill="#ffffff" stroke="transparent" points="104,-87.2 104,-106.2 158,-106.2 158,-87.2 104,-87.2"/>
<polygon fill="none" stroke="#000000" points="104,-87.2 104,-106.2 158,-106.2 158,-87.2 104,-87.2"/>
<text text-anchor="start" x="148.8862" y="-93.3" font-family="Helvetica,sans-Serif" font-size="11.00" fill="#000000"> &#160;</text>
<polygon fill="#ffffff" stroke="transparent" points="158,-87.2 158,-106.2 222,-106.2 222,-87.2 158,-87.2"/>
<polygon fill="none" stroke="#000000" points="158,-87.2 158,-106.2 222,-106.2 222,-87.2 158,-87.2"/>
<text text-anchor="start" x="203.4053" y="-93.3" font-family="Helvetica,sans-Serif" font-size="11.00" fill="#000000">2 &gt;</text>
</a>
</g>
</g>
<!-- form_track_anything&#45;&gt;form_track_anything_type -->
<g id="edge1" class="edge">
<title>form_track_anything:w&#45;&gt;form_track_anything_type:e</title>
<path fill="none" stroke="#000000" d="M257.5092,-168.6631C244.8361,-158.783 243.4584,-136.2 222,-136.2"/>
<polygon fill="#000000" stroke="#000000" points="263.8901,-170.7322 270.3895,-176.6244 267.6951,-171.9661 271.5,-173.2 271.5,-173.2 271.5,-173.2 267.6951,-171.9661 272.6105,-169.7756 263.8901,-170.7322 263.8901,-170.7322"/>
<ellipse fill="none" stroke="#000000" cx="260.8462" cy="-169.7451" rx="3.2" ry="3.2"/>
</g>
<!-- form_track_anything_results -->
<g id="node3" class="node">
<title>form_track_anything_results</title>
<g id="a_node3"><a xlink:href="../../tables/form_track_anything_results.html" xlink:title="form_track_anything_results" target="_top">
<polygon fill="#ffffff" stroke="transparent" points="497,-38.2 497,-238.2 780,-238.2 780,-38.2 497,-38.2"/>
<polygon fill="#f5f5f5" stroke="transparent" points="499.5,-213.2 499.5,-236.2 778.5,-236.2 778.5,-213.2 499.5,-213.2"/>
<polygon fill="none" stroke="#000000" points="499.5,-213.2 499.5,-236.2 778.5,-236.2 778.5,-213.2 499.5,-213.2"/>
<text text-anchor="start" x="504.5" y="-221.8" font-family="Helvetica,sans-Serif" font-weight="bold" font-size="11.00" fill="#000000">form_track_anything_results</text>
<text text-anchor="start" x="743.5437" y="-221.3" font-family="Helvetica,sans-Serif" font-size="11.00" fill="#000000">[table]</text>
<polygon fill="none" stroke="#000000" points="499.5,-191.2 499.5,-213.2 711.5,-213.2 711.5,-191.2 499.5,-191.2"/>
<image xlink:href="../../images/primaryKeys.png" width="11px" height="12px" preserveAspectRatio="xMinYMin meet" x="504.5" y="-208.2"/>
<text text-anchor="start" x="519.5" y="-198.3" font-family="Helvetica,sans-Serif" font-size="11.00" fill="#000000">id</text>
<polygon fill="none" stroke="#000000" points="711.5,-191.2 711.5,-213.2 778.5,-213.2 778.5,-191.2 711.5,-191.2"/>
<text text-anchor="start" x="714.5" y="-198.9" font-family="Helvetica,sans-Serif" font-size="11.00" fill="#000000">bigint[19]</text>
<polygon fill="none" stroke="#000000" points="499.5,-169.2 499.5,-191.2 711.5,-191.2 711.5,-169.2 499.5,-169.2"/>
<image xlink:href="../../images/foreignKeys.png" width="11px" height="12px" preserveAspectRatio="xMinYMin meet" x="504.5" y="-186.2"/>
<text text-anchor="start" x="519.5" y="-176.3" font-family="Helvetica,sans-Serif" font-size="11.00" fill="#000000">track_anything_id</text>
<polygon fill="none" stroke="#000000" points="711.5,-169.2 711.5,-191.2 778.5,-191.2 778.5,-169.2 711.5,-169.2"/>
<text text-anchor="start" x="714.5" y="-176.9" font-family="Helvetica,sans-Serif" font-size="11.00" fill="#000000">bigint[19]</text>
<polygon fill="none" stroke="#000000" points="499.5,-147.2 499.5,-169.2 711.5,-169.2 711.5,-147.2 499.5,-147.2"/>
<text text-anchor="start" x="519.5" y="-154.3" font-family="Helvetica,sans-Serif" font-size="11.00" fill="#000000">track_timestamp</text>
<polygon fill="none" stroke="#000000" points="711.5,-147.2 711.5,-169.2 778.5,-169.2 778.5,-147.2 711.5,-147.2"/>
<text text-anchor="start" x="714.5" y="-154.9" font-family="Helvetica,sans-Serif" font-size="11.00" fill="#000000">datetime[19]</text>
<polygon fill="none" stroke="#000000" points="499.5,-125.2 499.5,-147.2 711.5,-147.2 711.5,-125.2 499.5,-125.2"/>
<image xlink:href="../../images/foreignKeys.png" width="11px" height="12px" preserveAspectRatio="xMinYMin meet" x="504.5" y="-142.2"/>
<text text-anchor="start" x="519.5" y="-132.3" font-family="Helvetica,sans-Serif" font-size="11.00" fill="#000000">itemid</text>
<polygon fill="none" stroke="#000000" points="711.5,-125.2 711.5,-147.2 778.5,-147.2 778.5,-125.2 711.5,-125.2"/>
<text text-anchor="start" x="714.5" y="-132.9" font-family="Helvetica,sans-Serif" font-size="11.00" fill="#000000">bigint[19]</text>
<polygon fill="none" stroke="#000000" points="499.5,-103.2 499.5,-125.2 711.5,-125.2 711.5,-103.2 499.5,-103.2"/>
<text text-anchor="start" x="519.5" y="-110.3" font-family="Helvetica,sans-Serif" font-size="11.00" fill="#000000">result</text>
<polygon fill="none" stroke="#000000" points="711.5,-103.2 711.5,-125.2 778.5,-125.2 778.5,-103.2 711.5,-103.2"/>
<text text-anchor="start" x="714.4365" y="-110.9" font-family="Helvetica,sans-Serif" font-size="11.00" fill="#000000">varchar[255]</text>
<polygon fill="none" stroke="#000000" points="499.5,-81.2 499.5,-103.2 711.5,-103.2 711.5,-81.2 499.5,-81.2"/>
<text text-anchor="start" x="519.5" y="-88.3" font-family="Helvetica,sans-Serif" font-size="11.00" fill="#000000">comment</text>
<polygon fill="none" stroke="#000000" points="711.5,-81.2 711.5,-103.2 778.5,-103.2 778.5,-81.2 711.5,-81.2"/>
<text text-anchor="start" x="714.4365" y="-88.9" font-family="Helvetica,sans-Serif" font-size="11.00" fill="#000000">varchar[255]</text>
<polygon fill="none" stroke="#000000" points="499.5,-59.2 499.5,-81.2 711.5,-81.2 711.5,-59.2 499.5,-59.2"/>
<text text-anchor="start" x="519.5" y="-66.3" font-family="Helvetica,sans-Serif" font-size="11.00" fill="#000000">notes</text>
<polygon fill="none" stroke="#000000" points="711.5,-59.2 711.5,-81.2 778.5,-81.2 778.5,-59.2 711.5,-59.2"/>
<text text-anchor="start" x="714.4365" y="-66.9" font-family="Helvetica,sans-Serif" font-size="11.00" fill="#000000">varchar[255]</text>
<polygon fill="#ffffff" stroke="transparent" points="499.5,-40.2 499.5,-59.2 609.5,-59.2 609.5,-40.2 499.5,-40.2"/>
<polygon fill="none" stroke="#000000" points="499.5,-40.2 499.5,-59.2 609.5,-59.2 609.5,-40.2 499.5,-40.2"/>
<text text-anchor="start" x="502.5" y="-46.3" font-family="Helvetica,sans-Serif" font-size="11.00" fill="#000000">&lt; 2</text>
<polygon fill="#ffffff" stroke="transparent" points="609.5,-40.2 609.5,-59.2 711.5,-59.2 711.5,-40.2 609.5,-40.2"/>
<polygon fill="none" stroke="#000000" points="609.5,-40.2 609.5,-59.2 711.5,-59.2 711.5,-40.2 609.5,-40.2"/>
<text text-anchor="start" x="702.3862" y="-46.3" font-family="Helvetica,sans-Serif" font-size="11.00" fill="#000000"> &#160;</text>
<polygon fill="#ffffff" stroke="transparent" points="711.5,-40.2 711.5,-59.2 778.5,-59.2 778.5,-40.2 711.5,-40.2"/>
<polygon fill="none" stroke="#000000" points="711.5,-40.2 711.5,-59.2 778.5,-59.2 778.5,-40.2 711.5,-40.2"/>
<text text-anchor="start" x="759.9053" y="-46.3" font-family="Helvetica,sans-Serif" font-size="11.00" fill="#000000">0 &gt;</text>
<polygon fill="none" stroke="#000000" stroke-width="2" points="498,-39.2 498,-237.2 779,-237.2 779,-39.2 498,-39.2"/>
</a>
</g>
</g>
<!-- form_track_anything_results&#45;&gt;form_track_anything -->
<g id="edge3" class="edge">
<title>form_track_anything_results:w&#45;&gt;form_track_anything:e</title>
<path fill="none" stroke="#000000" d="M485.5658,-184.4444C472.14,-194.1631 470.5965,-217.2 448.5,-217.2"/>
<polygon fill="#000000" stroke="#000000" points="491.8471,-182.5311 500.549,-183.6438 495.6736,-181.3655 499.5,-180.2 499.5,-180.2 499.5,-180.2 495.6736,-181.3655 498.451,-176.7562 491.8471,-182.5311 491.8471,-182.5311"/>
<ellipse fill="none" stroke="#000000" cx="488.786" cy="-183.4635" rx="3.2" ry="3.2"/>
</g>
<!-- form_track_anything_results&#45;&gt;form_track_anything_type -->
<g id="edge2" class="edge">
<title>form_track_anything_results:w&#45;&gt;form_track_anything_type:e</title>
<path fill="none" stroke="#000000" d="M485.2637,-132.8154C475.8001,-127.5972 471.1471,-117.8124 456,-114.2 372.5623,-94.3009 346.1903,-93.2906 263,-114.2 242.944,-119.2409 242.6798,-136.2 222,-136.2"/>
<polygon fill="#000000" stroke="#000000" points="491.7169,-134.3496 498.6673,-139.7024 495.6085,-135.2748 499.5,-136.2 499.5,-136.2 499.5,-136.2 495.6085,-135.2748 500.3327,-132.6976 491.7169,-134.3496 491.7169,-134.3496"/>
<ellipse fill="none" stroke="#000000" cx="488.6037" cy="-133.6094" rx="3.2" ry="3.2"/>
</g>
</g>
</svg>
