<?xml version="1.0" encoding="UTF-8" standalone="no"?>
<!DOCTYPE svg PUBLIC "-//W3C//DTD SVG 1.1//EN"
 "http://www.w3.org/Graphics/SVG/1.1/DTD/svg11.dtd">
<!-- Generated by graphviz version 2.40.1 (20161225.0304)
 -->
<!-- Title: oneDegreeRelationshipsDiagram Pages: 1 -->
<svg width="1183pt" height="491pt"
 viewBox="0.00 0.00 1183.00 490.70" xmlns="http://www.w3.org/2000/svg" xmlns:xlink="http://www.w3.org/1999/xlink">
<g id="graph0" class="graph" transform="scale(1 1) rotate(0) translate(4 486.7)">
<title>oneDegreeRelationshipsDiagram</title>
<polygon fill="#ffffff" stroke="transparent" points="-4,4 -4,-486.7 1179,-486.7 1179,4 -4,4"/>
<text text-anchor="middle" x="72.4936" y="-7.3" font-family="Helvetica,sans-Serif" font-size="11.00" fill="#000000">Generated by SchemaSpy</text>
<!-- form_encounter -->
<g id="node1" class="node">
<title>form_encounter</title>
<g id="a_node1"><a xlink:href="../../tables/form_encounter.html" xlink:title="form_encounter" target="_top">
<polygon fill="#ffffff" stroke="transparent" points="334,-223.7 334,-394.7 542,-394.7 542,-223.7 334,-223.7"/>
<polygon fill="#f5f5f5" stroke="transparent" points="334,-371.2 334,-394.2 542,-394.2 542,-371.2 334,-371.2"/>
<polygon fill="none" stroke="#000000" points="334,-371.2 334,-394.2 542,-394.2 542,-371.2 334,-371.2"/>
<text text-anchor="start" x="339" y="-379.8" font-family="Helvetica,sans-Serif" font-weight="bold" font-size="11.00" fill="#000000">form_encounter</text>
<text text-anchor="start" x="507.0437" y="-379.3" font-family="Helvetica,sans-Serif" font-size="11.00" fill="#000000">[table]</text>
<polygon fill="none" stroke="#000000" points="334,-349.2 334,-371.2 542,-371.2 542,-349.2 334,-349.2"/>
<image xlink:href="../../images/primaryKeys.png" width="11px" height="12px" preserveAspectRatio="xMinYMin meet" x="339" y="-366.2"/>
<text text-anchor="start" x="354" y="-356.3" font-family="Helvetica,sans-Serif" font-size="11.00" fill="#000000">id</text>
<polygon fill="#ffffff" stroke="transparent" points="334,-327.2 334,-349.2 542,-349.2 542,-327.2 334,-327.2"/>
<polygon fill="none" stroke="#000000" points="334,-327.2 334,-349.2 542,-349.2 542,-327.2 334,-327.2"/>
<text text-anchor="start" x="354" y="-334.3" font-family="Helvetica,sans-Serif" font-size="11.00" fill="#000000">uuid</text>
<polygon fill="#ffffff" stroke="transparent" points="334,-305.2 334,-327.2 542,-327.2 542,-305.2 334,-305.2"/>
<polygon fill="none" stroke="#000000" points="334,-305.2 334,-327.2 542,-327.2 542,-305.2 334,-305.2"/>
<text text-anchor="start" x="354" y="-312.3" font-family="Helvetica,sans-Serif" font-size="11.00" fill="#000000">date</text>
<polygon fill="#ffffff" stroke="transparent" points="334,-283.2 334,-305.2 542,-305.2 542,-283.2 334,-283.2"/>
<polygon fill="none" stroke="#000000" points="334,-283.2 334,-305.2 542,-305.2 542,-283.2 334,-283.2"/>
<image xlink:href="../../images/foreignKeys.png" width="11px" height="12px" preserveAspectRatio="xMinYMin meet" x="339" y="-300.2"/>
<text text-anchor="start" x="354" y="-290.3" font-family="Helvetica,sans-Serif" font-size="11.00" fill="#000000">pid</text>
<polygon fill="none" stroke="#000000" points="334,-261.2 334,-283.2 542,-283.2 542,-261.2 334,-261.2"/>
<image xlink:href="../../images/primaryKeys.png" width="11px" height="12px" preserveAspectRatio="xMinYMin meet" x="339" y="-278.2"/>
<text text-anchor="start" x="354" y="-268.3" font-family="Helvetica,sans-Serif" font-size="11.00" fill="#000000">encounter</text>
<polygon fill="none" stroke="#000000" points="334,-242.2 334,-261.2 542,-261.2 542,-242.2 334,-242.2"/>
<text text-anchor="start" x="337" y="-248.3" font-family="Helvetica,sans-Serif" font-size="11.00" fill="#000000">...</text>
<polygon fill="#ffffff" stroke="transparent" points="334,-223.2 334,-242.2 429,-242.2 429,-223.2 334,-223.2"/>
<polygon fill="none" stroke="#000000" points="334,-223.2 334,-242.2 429,-242.2 429,-223.2 334,-223.2"/>
<text text-anchor="start" x="337" y="-229.3" font-family="Helvetica,sans-Serif" font-size="11.00" fill="#000000">&lt; 1</text>
<polygon fill="#ffffff" stroke="transparent" points="429,-223.2 429,-242.2 478,-242.2 478,-223.2 429,-223.2"/>
<polygon fill="none" stroke="#000000" points="429,-223.2 429,-242.2 478,-242.2 478,-223.2 429,-223.2"/>
<text text-anchor="start" x="468.8862" y="-229.3" font-family="Helvetica,sans-Serif" font-size="11.00" fill="#000000"> &#160;</text>
<polygon fill="#ffffff" stroke="transparent" points="478,-223.2 478,-242.2 542,-242.2 542,-223.2 478,-223.2"/>
<polygon fill="none" stroke="#000000" points="478,-223.2 478,-242.2 542,-242.2 542,-223.2 478,-223.2"/>
<text text-anchor="start" x="517.2904" y="-229.3" font-family="Helvetica,sans-Serif" font-size="11.00" fill="#000000">19 &gt;</text>
</a>
</g>
</g>
<!-- patient_data -->
<g id="node2" class="node">
<title>patient_data</title>
<g id="a_node2"><a xlink:href="../../tables/patient_data.html" xlink:title="patient_data" target="_top">
<polygon fill="#ffffff" stroke="transparent" points="8,-87.7 8,-478.7 285,-478.7 285,-87.7 8,-87.7"/>
<polygon fill="#f5f5f5" stroke="transparent" points="8.5,-455.2 8.5,-478.2 285.5,-478.2 285.5,-455.2 8.5,-455.2"/>
<polygon fill="none" stroke="#000000" points="8.5,-455.2 8.5,-478.2 285.5,-478.2 285.5,-455.2 8.5,-455.2"/>
<text text-anchor="start" x="13.5" y="-463.8" font-family="Helvetica,sans-Serif" font-weight="bold" font-size="11.00" fill="#000000">patient_data</text>
<text text-anchor="start" x="250.5437" y="-463.3" font-family="Helvetica,sans-Serif" font-size="11.00" fill="#000000">[table]</text>
<polygon fill="none" stroke="#000000" points="8.5,-433.2 8.5,-455.2 285.5,-455.2 285.5,-433.2 8.5,-433.2"/>
<image xlink:href="../../images/primaryKeys.png" width="11px" height="12px" preserveAspectRatio="xMinYMin meet" x="13.5" y="-450.2"/>
<text text-anchor="start" x="28.5" y="-440.3" font-family="Helvetica,sans-Serif" font-size="11.00" fill="#000000">id</text>
<polygon fill="#ffffff" stroke="transparent" points="8.5,-411.2 8.5,-433.2 285.5,-433.2 285.5,-411.2 8.5,-411.2"/>
<polygon fill="none" stroke="#000000" points="8.5,-411.2 8.5,-433.2 285.5,-433.2 285.5,-411.2 8.5,-411.2"/>
<text text-anchor="start" x="28.5" y="-418.3" font-family="Helvetica,sans-Serif" font-size="11.00" fill="#000000">uuid</text>
<polygon fill="#ffffff" stroke="transparent" points="8.5,-389.2 8.5,-411.2 285.5,-411.2 285.5,-389.2 8.5,-389.2"/>
<polygon fill="none" stroke="#000000" points="8.5,-389.2 8.5,-411.2 285.5,-411.2 285.5,-389.2 8.5,-389.2"/>
<text text-anchor="start" x="28.5" y="-396.3" font-family="Helvetica,sans-Serif" font-size="11.00" fill="#000000">fname</text>
<polygon fill="#ffffff" stroke="transparent" points="8.5,-367.2 8.5,-389.2 285.5,-389.2 285.5,-367.2 8.5,-367.2"/>
<polygon fill="none" stroke="#000000" points="8.5,-367.2 8.5,-389.2 285.5,-389.2 285.5,-367.2 8.5,-367.2"/>
<text text-anchor="start" x="28.5" y="-374.3" font-family="Helvetica,sans-Serif" font-size="11.00" fill="#000000">lname</text>
<polygon fill="#ffffff" stroke="transparent" points="8.5,-345.2 8.5,-367.2 285.5,-367.2 285.5,-345.2 8.5,-345.2"/>
<polygon fill="none" stroke="#000000" points="8.5,-345.2 8.5,-367.2 285.5,-367.2 285.5,-345.2 8.5,-345.2"/>
<text text-anchor="start" x="28.5" y="-352.3" font-family="Helvetica,sans-Serif" font-size="11.00" fill="#000000">DOB</text>
<polygon fill="none" stroke="#000000" points="8.5,-323.2 8.5,-345.2 285.5,-345.2 285.5,-323.2 8.5,-323.2"/>
<image xlink:href="../../images/foreignKeys.png" width="11px" height="12px" preserveAspectRatio="xMinYMin meet" x="13.5" y="-340.2"/>
<text text-anchor="start" x="28.5" y="-330.3" font-family="Helvetica,sans-Serif" font-size="11.00" fill="#000000">pharmacy_id</text>
<polygon fill="none" stroke="#000000" points="8.5,-301.2 8.5,-323.2 285.5,-323.2 285.5,-301.2 8.5,-301.2"/>
<image xlink:href="../../images/foreignKeys.png" width="11px" height="12px" preserveAspectRatio="xMinYMin meet" x="13.5" y="-318.2"/>
<text text-anchor="start" x="28.5" y="-308.3" font-family="Helvetica,sans-Serif" font-size="11.00" fill="#000000">providerID</text>
<polygon fill="none" stroke="#000000" points="8.5,-279.2 8.5,-301.2 285.5,-301.2 285.5,-279.2 8.5,-279.2"/>
<image xlink:href="../../images/foreignKeys.png" width="11px" height="12px" preserveAspectRatio="xMinYMin meet" x="13.5" y="-296.2"/>
<text text-anchor="start" x="28.5" y="-286.3" font-family="Helvetica,sans-Serif" font-size="11.00" fill="#000000">ref_providerID</text>
<polygon fill="none" stroke="#000000" points="8.5,-257.2 8.5,-279.2 285.5,-279.2 285.5,-257.2 8.5,-257.2"/>
<image xlink:href="../../images/foreignKeys.png" width="11px" height="12px" preserveAspectRatio="xMinYMin meet" x="13.5" y="-274.2"/>
<text text-anchor="start" x="28.5" y="-264.3" font-family="Helvetica,sans-Serif" font-size="11.00" fill="#000000">interpreter_needed</text>
<polygon fill="none" stroke="#000000" points="8.5,-235.2 8.5,-257.2 285.5,-257.2 285.5,-235.2 8.5,-235.2"/>
<image xlink:href="../../images/primaryKeys.png" width="11px" height="12px" preserveAspectRatio="xMinYMin meet" x="13.5" y="-252.2"/>
<text text-anchor="start" x="28.5" y="-242.3" font-family="Helvetica,sans-Serif" font-size="11.00" fill="#000000">pid</text>
<polygon fill="none" stroke="#000000" points="8.5,-213.2 8.5,-235.2 285.5,-235.2 285.5,-213.2 8.5,-213.2"/>
<image xlink:href="../../images/foreignKeys.png" width="11px" height="12px" preserveAspectRatio="xMinYMin meet" x="13.5" y="-230.2"/>
<text text-anchor="start" x="28.5" y="-220.3" font-family="Helvetica,sans-Serif" font-size="11.00" fill="#000000">advance_directive_user_authenticator</text>
<polygon fill="none" stroke="#000000" points="8.5,-191.2 8.5,-213.2 285.5,-213.2 285.5,-191.2 8.5,-191.2"/>
<image xlink:href="../../images/foreignKeys.png" width="11px" height="12px" preserveAspectRatio="xMinYMin meet" x="13.5" y="-208.2"/>
<text text-anchor="start" x="28.5" y="-198.3" font-family="Helvetica,sans-Serif" font-size="11.00" fill="#000000">created_by</text>
<polygon fill="none" stroke="#000000" points="8.5,-169.2 8.5,-191.2 285.5,-191.2 285.5,-169.2 8.5,-169.2"/>
<image xlink:href="../../images/foreignKeys.png" width="11px" height="12px" preserveAspectRatio="xMinYMin meet" x="13.5" y="-186.2"/>
<text text-anchor="start" x="28.5" y="-176.3" font-family="Helvetica,sans-Serif" font-size="11.00" fill="#000000">updated_by</text>
<polygon fill="none" stroke="#000000" points="8.5,-147.2 8.5,-169.2 285.5,-169.2 285.5,-147.2 8.5,-147.2"/>
<image xlink:href="../../images/foreignKeys.png" width="11px" height="12px" preserveAspectRatio="xMinYMin meet" x="13.5" y="-164.2"/>
<text text-anchor="start" x="28.5" y="-154.3" font-family="Helvetica,sans-Serif" font-size="11.00" fill="#000000">tribal_affiliations</text>
<polygon fill="none" stroke="#000000" points="8.5,-125.2 8.5,-147.2 285.5,-147.2 285.5,-125.2 8.5,-125.2"/>
<image xlink:href="../../images/foreignKeys.png" width="11px" height="12px" preserveAspectRatio="xMinYMin meet" x="13.5" y="-142.2"/>
<text text-anchor="start" x="28.5" y="-132.3" font-family="Helvetica,sans-Serif" font-size="11.00" fill="#000000">sex_identified</text>
<polygon fill="none" stroke="#000000" points="8.5,-106.2 8.5,-125.2 285.5,-125.2 285.5,-106.2 8.5,-106.2"/>
<text text-anchor="start" x="11.5" y="-112.3" font-family="Helvetica,sans-Serif" font-size="11.00" fill="#000000">...</text>
<polygon fill="#ffffff" stroke="transparent" points="8.5,-87.2 8.5,-106.2 137.5,-106.2 137.5,-87.2 8.5,-87.2"/>
<polygon fill="none" stroke="#000000" points="8.5,-87.2 8.5,-106.2 137.5,-106.2 137.5,-87.2 8.5,-87.2"/>
<text text-anchor="start" x="11.5" y="-93.3" font-family="Helvetica,sans-Serif" font-size="11.00" fill="#000000">&lt; 9</text>
<polygon fill="#ffffff" stroke="transparent" points="137.5,-87.2 137.5,-106.2 203.5,-106.2 203.5,-87.2 137.5,-87.2"/>
<polygon fill="none" stroke="#000000" points="137.5,-87.2 137.5,-106.2 203.5,-106.2 203.5,-87.2 137.5,-87.2"/>
<text text-anchor="start" x="194.3862" y="-93.3" font-family="Helvetica,sans-Serif" font-size="11.00" fill="#000000"> &#160;</text>
<polygon fill="#ffffff" stroke="transparent" points="203.5,-87.2 203.5,-106.2 285.5,-106.2 285.5,-87.2 203.5,-87.2"/>
<polygon fill="none" stroke="#000000" points="203.5,-87.2 203.5,-106.2 285.5,-106.2 285.5,-87.2 203.5,-87.2"/>
<text text-anchor="start" x="260.7904" y="-93.3" font-family="Helvetica,sans-Serif" font-size="11.00" fill="#000000">95 &gt;</text>
</a>
</g>
</g>
<!-- form_encounter&#45;&gt;patient_data -->
<g id="edge1" class="edge">
<title>form_encounter:w&#45;&gt;patient_data:e</title>
<path fill="none" stroke="#000000" d="M320.0656,-289.0632C306.8577,-276.6805 309.6672,-246.2 285.5,-246.2"/>
<polygon fill="#000000" stroke="#000000" points="326.4938,-291.4328 332.7548,-297.5778 330.2469,-292.8164 334,-294.2 334,-294.2 334,-294.2 330.2469,-292.8164 335.2452,-290.8222 326.4938,-291.4328 326.4938,-291.4328"/>
<ellipse fill="none" stroke="#000000" cx="323.4913" cy="-290.326" rx="3.2" ry="3.2"/>
</g>
<!-- form_vitals_calculation -->
<g id="node3" class="node">
<title>form_vitals_calculation</title>
<g id="a_node3"><a xlink:href="../../tables/form_vitals_calculation.html" xlink:title="form_vitals_calculation" target="_top">
<polygon fill="#ffffff" stroke="transparent" points="591,-38.2 591,-326.2 836,-326.2 836,-38.2 591,-38.2"/>
<polygon fill="#f5f5f5" stroke="transparent" points="593.5,-301.2 593.5,-324.2 834.5,-324.2 834.5,-301.2 593.5,-301.2"/>
<polygon fill="none" stroke="#000000" points="593.5,-301.2 593.5,-324.2 834.5,-324.2 834.5,-301.2 593.5,-301.2"/>
<text text-anchor="start" x="598.5" y="-309.8" font-family="Helvetica,sans-Serif" font-weight="bold" font-size="11.00" fill="#000000">form_vitals_calculation</text>
<text text-anchor="start" x="799.5437" y="-309.3" font-family="Helvetica,sans-Serif" font-size="11.00" fill="#000000">[table]</text>
<polygon fill="none" stroke="#000000" points="593.5,-279.2 593.5,-301.2 768.5,-301.2 768.5,-279.2 593.5,-279.2"/>
<image xlink:href="../../images/primaryKeys.png" width="11px" height="12px" preserveAspectRatio="xMinYMin meet" x="598.5" y="-296.2"/>
<text text-anchor="start" x="613.5" y="-286.3" font-family="Helvetica,sans-Serif" font-size="11.00" fill="#000000">id</text>
<polygon fill="none" stroke="#000000" points="768.5,-279.2 768.5,-301.2 834.5,-301.2 834.5,-279.2 768.5,-279.2"/>
<text text-anchor="start" x="771.5" y="-286.9" font-family="Helvetica,sans-Serif" font-size="11.00" fill="#000000">int[10]</text>
<polygon fill="none" stroke="#000000" points="593.5,-257.2 593.5,-279.2 768.5,-279.2 768.5,-257.2 593.5,-257.2"/>
<image xlink:href="../../images/primaryKeys.png" width="11px" height="12px" preserveAspectRatio="xMinYMin meet" x="598.5" y="-274.2"/>
<text text-anchor="start" x="613.5" y="-264.3" font-family="Helvetica,sans-Serif" font-size="11.00" fill="#000000">uuid</text>
<polygon fill="none" stroke="#000000" points="768.5,-257.2 768.5,-279.2 834.5,-279.2 834.5,-257.2 768.5,-257.2"/>
<text text-anchor="start" x="771.5" y="-264.9" font-family="Helvetica,sans-Serif" font-size="11.00" fill="#000000">binary[16]</text>
<polygon fill="#ffffff" stroke="transparent" points="593.5,-235.2 593.5,-257.2 768.5,-257.2 768.5,-235.2 593.5,-235.2"/>
<polygon fill="none" stroke="#000000" points="593.5,-235.2 593.5,-257.2 768.5,-257.2 768.5,-235.2 593.5,-235.2"/>
<image xlink:href="../../images/foreignKeys.png" width="11px" height="12px" preserveAspectRatio="xMinYMin meet" x="598.5" y="-252.2"/>
<text text-anchor="start" x="613.5" y="-242.3" font-family="Helvetica,sans-Serif" font-size="11.00" fill="#000000">encounter</text>
<polygon fill="none" stroke="#000000" points="768.5,-235.2 768.5,-257.2 834.5,-257.2 834.5,-235.2 768.5,-235.2"/>
<text text-anchor="start" x="771.5" y="-242.9" font-family="Helvetica,sans-Serif" font-size="11.00" fill="#000000">bigint[19]</text>
<polygon fill="#ffffff" stroke="transparent" points="593.5,-213.2 593.5,-235.2 768.5,-235.2 768.5,-213.2 593.5,-213.2"/>
<polygon fill="none" stroke="#000000" points="593.5,-213.2 593.5,-235.2 768.5,-235.2 768.5,-213.2 593.5,-213.2"/>
<image xlink:href="../../images/foreignKeys.png" width="11px" height="12px" preserveAspectRatio="xMinYMin meet" x="598.5" y="-230.2"/>
<text text-anchor="start" x="613.5" y="-220.3" font-family="Helvetica,sans-Serif" font-size="11.00" fill="#000000">pid</text>
<polygon fill="none" stroke="#000000" points="768.5,-213.2 768.5,-235.2 834.5,-235.2 834.5,-213.2 768.5,-213.2"/>
<text text-anchor="start" x="771.5" y="-220.9" font-family="Helvetica,sans-Serif" font-size="11.00" fill="#000000">bigint[19]</text>
<polygon fill="none" stroke="#000000" points="593.5,-191.2 593.5,-213.2 768.5,-213.2 768.5,-191.2 593.5,-191.2"/>
<text text-anchor="start" x="613.5" y="-198.3" font-family="Helvetica,sans-Serif" font-size="11.00" fill="#000000">date_start</text>
<polygon fill="none" stroke="#000000" points="768.5,-191.2 768.5,-213.2 834.5,-213.2 834.5,-191.2 768.5,-191.2"/>
<text text-anchor="start" x="771.2401" y="-198.9" font-family="Helvetica,sans-Serif" font-size="11.00" fill="#000000">datetime[19]</text>
<polygon fill="none" stroke="#000000" points="593.5,-169.2 593.5,-191.2 768.5,-191.2 768.5,-169.2 593.5,-169.2"/>
<text text-anchor="start" x="613.5" y="-176.3" font-family="Helvetica,sans-Serif" font-size="11.00" fill="#000000">date_end</text>
<polygon fill="none" stroke="#000000" points="768.5,-169.2 768.5,-191.2 834.5,-191.2 834.5,-169.2 768.5,-169.2"/>
<text text-anchor="start" x="771.2401" y="-176.9" font-family="Helvetica,sans-Serif" font-size="11.00" fill="#000000">datetime[19]</text>
<polygon fill="none" stroke="#000000" points="593.5,-147.2 593.5,-169.2 768.5,-169.2 768.5,-147.2 593.5,-147.2"/>
<text text-anchor="start" x="613.5" y="-154.3" font-family="Helvetica,sans-Serif" font-size="11.00" fill="#000000">created_at</text>
<polygon fill="none" stroke="#000000" points="768.5,-147.2 768.5,-169.2 834.5,-169.2 834.5,-147.2 768.5,-147.2"/>
<text text-anchor="start" x="771.2401" y="-154.9" font-family="Helvetica,sans-Serif" font-size="11.00" fill="#000000">datetime[19]</text>
<polygon fill="none" stroke="#000000" points="593.5,-125.2 593.5,-147.2 768.5,-147.2 768.5,-125.2 593.5,-125.2"/>
<text text-anchor="start" x="613.5" y="-132.3" font-family="Helvetica,sans-Serif" font-size="11.00" fill="#000000">updated_at</text>
<polygon fill="none" stroke="#000000" points="768.5,-125.2 768.5,-147.2 834.5,-147.2 834.5,-125.2 768.5,-125.2"/>
<text text-anchor="start" x="771.2401" y="-132.9" font-family="Helvetica,sans-Serif" font-size="11.00" fill="#000000">datetime[19]</text>
<polygon fill="none" stroke="#000000" points="593.5,-103.2 593.5,-125.2 768.5,-125.2 768.5,-103.2 593.5,-103.2"/>
<text text-anchor="start" x="613.5" y="-110.3" font-family="Helvetica,sans-Serif" font-size="11.00" fill="#000000">created_by</text>
<polygon fill="none" stroke="#000000" points="768.5,-103.2 768.5,-125.2 834.5,-125.2 834.5,-103.2 768.5,-103.2"/>
<text text-anchor="start" x="771.5" y="-110.9" font-family="Helvetica,sans-Serif" font-size="11.00" fill="#000000">bigint[19]</text>
<polygon fill="none" stroke="#000000" points="593.5,-81.2 593.5,-103.2 768.5,-103.2 768.5,-81.2 593.5,-81.2"/>
<text text-anchor="start" x="613.5" y="-88.3" font-family="Helvetica,sans-Serif" font-size="11.00" fill="#000000">updated_by</text>
<polygon fill="none" stroke="#000000" points="768.5,-81.2 768.5,-103.2 834.5,-103.2 834.5,-81.2 768.5,-81.2"/>
<text text-anchor="start" x="771.5" y="-88.9" font-family="Helvetica,sans-Serif" font-size="11.00" fill="#000000">bigint[19]</text>
<polygon fill="#ffffff" stroke="transparent" points="593.5,-59.2 593.5,-81.2 768.5,-81.2 768.5,-59.2 593.5,-59.2"/>
<polygon fill="none" stroke="#000000" points="593.5,-59.2 593.5,-81.2 768.5,-81.2 768.5,-59.2 593.5,-59.2"/>
<text text-anchor="start" x="613.5" y="-66.3" font-family="Helvetica,sans-Serif" font-size="11.00" fill="#000000">calculation_id</text>
<polygon fill="none" stroke="#000000" points="768.5,-59.2 768.5,-81.2 834.5,-81.2 834.5,-59.2 768.5,-59.2"/>
<text text-anchor="start" x="771.5" y="-66.9" font-family="Helvetica,sans-Serif" font-size="11.00" fill="#000000">varchar[64]</text>
<polygon fill="#ffffff" stroke="transparent" points="593.5,-40.2 593.5,-59.2 685.5,-59.2 685.5,-40.2 593.5,-40.2"/>
<polygon fill="none" stroke="#000000" points="593.5,-40.2 593.5,-59.2 685.5,-59.2 685.5,-40.2 593.5,-40.2"/>
<text text-anchor="start" x="596.5" y="-46.3" font-family="Helvetica,sans-Serif" font-size="11.00" fill="#000000">&lt; 2</text>
<polygon fill="#ffffff" stroke="transparent" points="685.5,-40.2 685.5,-59.2 768.5,-59.2 768.5,-40.2 685.5,-40.2"/>
<polygon fill="none" stroke="#000000" points="685.5,-40.2 685.5,-59.2 768.5,-59.2 768.5,-40.2 685.5,-40.2"/>
<text text-anchor="start" x="759.3862" y="-46.3" font-family="Helvetica,sans-Serif" font-size="11.00" fill="#000000"> &#160;</text>
<polygon fill="#ffffff" stroke="transparent" points="768.5,-40.2 768.5,-59.2 834.5,-59.2 834.5,-40.2 768.5,-40.2"/>
<polygon fill="none" stroke="#000000" points="768.5,-40.2 768.5,-59.2 834.5,-59.2 834.5,-40.2 768.5,-40.2"/>
<text text-anchor="start" x="815.9053" y="-46.3" font-family="Helvetica,sans-Serif" font-size="11.00" fill="#000000">2 &gt;</text>
<polygon fill="none" stroke="#000000" stroke-width="2" points="592,-39.2 592,-325.2 835,-325.2 835,-39.2 592,-39.2"/>
</a>
</g>
</g>
<!-- form_vitals_calculation&#45;&gt;form_encounter -->
<g id="edge2" class="edge">
<title>form_vitals_calculation:w&#45;&gt;form_encounter:e</title>
<path fill="none" stroke="#000000" d="M579.3959,-249.599C566.4554,-256.6467 561.8313,-272.2 542,-272.2"/>
<polygon fill="#000000" stroke="#000000" points="585.7227,-248.0744 594.3435,-249.6998 589.6113,-247.1372 593.5,-246.2 593.5,-246.2 593.5,-246.2 589.6113,-247.1372 592.6565,-242.7002 585.7227,-248.0744 585.7227,-248.0744"/>
<ellipse fill="none" stroke="#000000" cx="582.6117" cy="-248.8241" rx="3.2" ry="3.2"/>
</g>
<!-- form_vitals_calculation&#45;&gt;patient_data -->
<g id="edge3" class="edge">
<title>form_vitals_calculation:w&#45;&gt;patient_data:e</title>
<path fill="none" stroke="#000000" d="M579.1731,-222.3251C569.9084,-219.6666 563.9143,-214.932 550,-213.2 451.2069,-200.9025 419.7947,-179.8255 326,-213.2 304.1248,-220.9837 308.7188,-246.2 285.5,-246.2"/>
<polygon fill="#000000" stroke="#000000" points="585.5676,-223.1619 593.0329,-227.7696 589.5338,-223.6809 593.5,-224.2 593.5,-224.2 593.5,-224.2 589.5338,-223.6809 593.9671,-220.6304 585.5676,-223.1619 585.5676,-223.1619"/>
<ellipse fill="none" stroke="#000000" cx="582.3947" cy="-222.7467" rx="3.2" ry="3.2"/>
</g>
<!-- form_vitals_calculation_components -->
<g id="node4" class="node">
<title>form_vitals_calculation_components</title>
<g id="a_node4"><a xlink:href="../../tables/form_vitals_calculation_components.html" xlink:title="form_vitals_calculation_components" target="_top">
<polygon fill="#ffffff" stroke="transparent" points="885,-249.7 885,-398.7 1167,-398.7 1167,-249.7 885,-249.7"/>
<polygon fill="#f5f5f5" stroke="transparent" points="885,-375.2 885,-398.2 1167,-398.2 1167,-375.2 885,-375.2"/>
<polygon fill="none" stroke="#000000" points="885,-375.2 885,-398.2 1167,-398.2 1167,-375.2 885,-375.2"/>
<text text-anchor="start" x="890" y="-383.8" font-family="Helvetica,sans-Serif" font-weight="bold" font-size="11.00" fill="#000000">form_vitals_calculation_components</text>
<text text-anchor="start" x="1132.5219" y="-383.3" font-family="Helvetica,sans-Serif" font-size="11.00" fill="#000000">[table]</text>
<polygon fill="none" stroke="#000000" points="885,-353.2 885,-375.2 1167,-375.2 1167,-353.2 885,-353.2"/>
<image xlink:href="../../images/primaryKeys.png" width="11px" height="12px" preserveAspectRatio="xMinYMin meet" x="890" y="-370.2"/>
<text text-anchor="start" x="914" y="-360.3" font-family="Helvetica,sans-Serif" font-size="11.00" fill="#000000">id</text>
<polygon fill="#ffffff" stroke="transparent" points="885,-331.2 885,-353.2 1167,-353.2 1167,-331.2 885,-331.2"/>
<polygon fill="none" stroke="#000000" points="885,-331.2 885,-353.2 1167,-353.2 1167,-331.2 885,-331.2"/>
<image xlink:href="../../images/foreignKeys.png" width="11px" height="12px" preserveAspectRatio="xMinYMin meet" x="890" y="-348.2"/>
<text text-anchor="start" x="914" y="-338.3" font-family="Helvetica,sans-Serif" font-size="11.00" fill="#000000">fvc_uuid</text>
<polygon fill="#ffffff" stroke="transparent" points="885,-309.2 885,-331.2 1167,-331.2 1167,-309.2 885,-309.2"/>
<polygon fill="none" stroke="#000000" points="885,-309.2 885,-331.2 1167,-331.2 1167,-309.2 885,-309.2"/>
<text text-anchor="start" x="914" y="-316.3" font-family="Helvetica,sans-Serif" font-size="11.00" fill="#000000">vitals_column</text>
<polygon fill="#ffffff" stroke="transparent" points="885,-287.2 885,-309.2 1167,-309.2 1167,-287.2 885,-287.2"/>
<polygon fill="none" stroke="#000000" points="885,-287.2 885,-309.2 1167,-309.2 1167,-287.2 885,-287.2"/>
<text text-anchor="start" x="914" y="-294.3" font-family="Helvetica,sans-Serif" font-size="11.00" fill="#000000">component_order</text>
<polygon fill="none" stroke="#000000" points="885,-268.2 885,-287.2 1167,-287.2 1167,-268.2 885,-268.2"/>
<text text-anchor="start" x="888" y="-274.3" font-family="Helvetica,sans-Serif" font-size="11.00" fill="#000000">...</text>
<polygon fill="#ffffff" stroke="transparent" points="885,-249.2 885,-268.2 1024,-268.2 1024,-249.2 885,-249.2"/>
<polygon fill="none" stroke="#000000" points="885,-249.2 885,-268.2 1024,-268.2 1024,-249.2 885,-249.2"/>
<text text-anchor="start" x="888" y="-255.3" font-family="Helvetica,sans-Serif" font-size="11.00" fill="#000000">&lt; 1</text>
<polygon fill="#ffffff" stroke="transparent" points="1024,-249.2 1024,-268.2 1095,-268.2 1095,-249.2 1024,-249.2"/>
<polygon fill="none" stroke="#000000" points="1024,-249.2 1024,-268.2 1095,-268.2 1095,-249.2 1024,-249.2"/>
<text text-anchor="start" x="1085.8862" y="-255.3" font-family="Helvetica,sans-Serif" font-size="11.00" fill="#000000"> &#160;</text>
<polygon fill="#ffffff" stroke="transparent" points="1095,-249.2 1095,-268.2 1167,-268.2 1167,-249.2 1095,-249.2"/>
<polygon fill="none" stroke="#000000" points="1095,-249.2 1095,-268.2 1167,-268.2 1167,-249.2 1095,-249.2"/>
<text text-anchor="start" x="1157.8862" y="-255.3" font-family="Helvetica,sans-Serif" font-size="11.00" fill="#000000"> &#160;</text>
</a>
</g>
</g>
<!-- form_vitals_calculation_components&#45;&gt;form_vitals_calculation -->
<g id="edge4" class="edge">
<title>form_vitals_calculation_components:w&#45;&gt;form_vitals_calculation:e</title>
<path fill="none" stroke="#000000" d="M871.1154,-337.571C852.4593,-321.3706 868.2515,-268.2 834.5,-268.2"/>
<polygon fill="#000000" stroke="#000000" points="877.4107,-339.6697 883.8614,-345.6152 881.2053,-340.9349 885,-342.2 885,-342.2 885,-342.2 881.2053,-340.9349 886.1386,-338.7848 877.4107,-339.6697 877.4107,-339.6697"/>
<ellipse fill="none" stroke="#000000" cx="874.3749" cy="-338.6576" rx="3.2" ry="3.2"/>
</g>
<!-- form_vitals_calculation_form_vitals -->
<g id="node5" class="node">
<title>form_vitals_calculation_form_vitals</title>
<g id="a_node5"><a xlink:href="../../tables/form_vitals_calculation_form_vitals.html" xlink:title="form_vitals_calculation_form_vitals" target="_top">
<polygon fill="#ffffff" stroke="transparent" points="889,-142.2 889,-228.2 1163,-228.2 1163,-142.2 889,-142.2"/>
<polygon fill="#f5f5f5" stroke="transparent" points="889,-205.2 889,-228.2 1163,-228.2 1163,-205.2 889,-205.2"/>
<polygon fill="none" stroke="#000000" points="889,-205.2 889,-228.2 1163,-228.2 1163,-205.2 889,-205.2"/>
<text text-anchor="start" x="894" y="-213.8" font-family="Helvetica,sans-Serif" font-weight="bold" font-size="11.00" fill="#000000">form_vitals_calculation_form_vitals</text>
<text text-anchor="start" x="1128.5219" y="-213.3" font-family="Helvetica,sans-Serif" font-size="11.00" fill="#000000">[table]</text>
<polygon fill="none" stroke="#000000" points="889,-183.2 889,-205.2 1163,-205.2 1163,-183.2 889,-183.2"/>
<image xlink:href="../../images/primaryKeys.png" width="11px" height="12px" preserveAspectRatio="xMinYMin meet" x="894" y="-200.2"/>
<text text-anchor="start" x="918" y="-190.3" font-family="Helvetica,sans-Serif" font-size="11.00" fill="#000000">fvc_uuid</text>
<polygon fill="none" stroke="#000000" points="889,-161.2 889,-183.2 1163,-183.2 1163,-161.2 889,-161.2"/>
<image xlink:href="../../images/primaryKeys.png" width="11px" height="12px" preserveAspectRatio="xMinYMin meet" x="894" y="-178.2"/>
<text text-anchor="start" x="918" y="-168.3" font-family="Helvetica,sans-Serif" font-size="11.00" fill="#000000">vitals_id</text>
<polygon fill="#ffffff" stroke="transparent" points="889,-142.2 889,-161.2 1024,-161.2 1024,-142.2 889,-142.2"/>
<polygon fill="none" stroke="#000000" points="889,-142.2 889,-161.2 1024,-161.2 1024,-142.2 889,-142.2"/>
<text text-anchor="start" x="892" y="-148.3" font-family="Helvetica,sans-Serif" font-size="11.00" fill="#000000">&lt; 2</text>
<polygon fill="#ffffff" stroke="transparent" points="1024,-142.2 1024,-161.2 1093,-161.2 1093,-142.2 1024,-142.2"/>
<polygon fill="none" stroke="#000000" points="1024,-142.2 1024,-161.2 1093,-161.2 1093,-142.2 1024,-142.2"/>
<text text-anchor="start" x="1083.8862" y="-148.3" font-family="Helvetica,sans-Serif" font-size="11.00" fill="#000000"> &#160;</text>
<polygon fill="#ffffff" stroke="transparent" points="1093,-142.2 1093,-161.2 1163,-161.2 1163,-142.2 1093,-142.2"/>
<polygon fill="none" stroke="#000000" points="1093,-142.2 1093,-161.2 1163,-161.2 1163,-142.2 1093,-142.2"/>
<text text-anchor="start" x="1153.8862" y="-148.3" font-family="Helvetica,sans-Serif" font-size="11.00" fill="#000000"> &#160;</text>
</a>
</g>
</g>
<!-- form_vitals_calculation_form_vitals&#45;&gt;form_vitals_calculation -->
<g id="edge5" class="edge">
<title>form_vitals_calculation_form_vitals:w&#45;&gt;form_vitals_calculation:e</title>
<path fill="none" stroke="#000000" d="M875.1424,-198.3906C854.5929,-214.0448 869.4425,-268.2 834.5,-268.2"/>
<polygon fill="#000000" stroke="#000000" points="881.3425,-196.5157 890.0421,-197.6459 885.1712,-195.3579 889,-194.2 889,-194.2 889,-194.2 885.1712,-195.3579 887.9579,-190.7541 881.3425,-196.5157 881.3425,-196.5157"/>
<ellipse fill="none" stroke="#000000" cx="878.2795" cy="-197.442" rx="3.2" ry="3.2"/>
</g>
</g>
</svg>
