<?xml version="1.0" encoding="UTF-8" standalone="no"?>
<!DOCTYPE svg PUBLIC "-//W3C//DTD SVG 1.1//EN"
 "http://www.w3.org/Graphics/SVG/1.1/DTD/svg11.dtd">
<!-- Generated by graphviz version 2.40.1 (20161225.0304)
 -->
<!-- Title: oneDegreeRelationshipsDiagram Pages: 1 -->
<svg width="488pt" height="359pt"
 viewBox="0.00 0.00 488.00 358.70" xmlns="http://www.w3.org/2000/svg" xmlns:xlink="http://www.w3.org/1999/xlink">
<g id="graph0" class="graph" transform="scale(1 1) rotate(0) translate(4 354.7)">
<title>oneDegreeRelationshipsDiagram</title>
<polygon fill="#ffffff" stroke="transparent" points="-4,4 -4,-354.7 484,-354.7 484,4 -4,4"/>
<text text-anchor="middle" x="72.4936" y="-7.3" font-family="Helvetica,sans-Serif" font-size="11.00" fill="#000000">Generated by SchemaSpy</text>
<!-- form_dictation -->
<g id="node1" class="node">
<title>form_dictation</title>
<g id="a_node1"><a xlink:href="../../tables/form_dictation.html" xlink:title="form_dictation" target="_top">
<polygon fill="#ffffff" stroke="transparent" points="224,-38.2 224,-282.2 472,-282.2 472,-38.2 224,-38.2"/>
<polygon fill="#f5f5f5" stroke="transparent" points="226,-257.2 226,-280.2 470,-280.2 470,-257.2 226,-257.2"/>
<polygon fill="none" stroke="#000000" points="226,-257.2 226,-280.2 470,-280.2 470,-257.2 226,-257.2"/>
<text text-anchor="start" x="231" y="-265.8" font-family="Helvetica,sans-Serif" font-weight="bold" font-size="11.00" fill="#000000">form_dictation</text>
<text text-anchor="start" x="435.0437" y="-265.3" font-family="Helvetica,sans-Serif" font-size="11.00" fill="#000000">[table]</text>
<polygon fill="none" stroke="#000000" points="226,-235.2 226,-257.2 359,-257.2 359,-235.2 226,-235.2"/>
<image xlink:href="../../images/primaryKeys.png" width="11px" height="12px" preserveAspectRatio="xMinYMin meet" x="231" y="-252.2"/>
<text text-anchor="start" x="246" y="-242.3" font-family="Helvetica,sans-Serif" font-size="11.00" fill="#000000">id</text>
<polygon fill="none" stroke="#000000" points="359,-235.2 359,-257.2 470,-257.2 470,-235.2 359,-235.2"/>
<text text-anchor="start" x="362" y="-242.9" font-family="Helvetica,sans-Serif" font-size="11.00" fill="#000000">bigint[19]</text>
<polygon fill="none" stroke="#000000" points="226,-213.2 226,-235.2 359,-235.2 359,-213.2 226,-213.2"/>
<text text-anchor="start" x="246" y="-220.3" font-family="Helvetica,sans-Serif" font-size="11.00" fill="#000000">date</text>
<polygon fill="none" stroke="#000000" points="359,-213.2 359,-235.2 470,-235.2 470,-213.2 359,-213.2"/>
<text text-anchor="start" x="362" y="-220.9" font-family="Helvetica,sans-Serif" font-size="11.00" fill="#000000">datetime[19]</text>
<polygon fill="none" stroke="#000000" points="226,-191.2 226,-213.2 359,-213.2 359,-191.2 226,-191.2"/>
<image xlink:href="../../images/foreignKeys.png" width="11px" height="12px" preserveAspectRatio="xMinYMin meet" x="231" y="-208.2"/>
<text text-anchor="start" x="246" y="-198.3" font-family="Helvetica,sans-Serif" font-size="11.00" fill="#000000">pid</text>
<polygon fill="none" stroke="#000000" points="359,-191.2 359,-213.2 470,-213.2 470,-191.2 359,-191.2"/>
<text text-anchor="start" x="362" y="-198.9" font-family="Helvetica,sans-Serif" font-size="11.00" fill="#000000">bigint[19]</text>
<polygon fill="none" stroke="#000000" points="226,-169.2 226,-191.2 359,-191.2 359,-169.2 226,-169.2"/>
<text text-anchor="start" x="246" y="-176.3" font-family="Helvetica,sans-Serif" font-size="11.00" fill="#000000">user</text>
<polygon fill="none" stroke="#000000" points="359,-169.2 359,-191.2 470,-191.2 470,-169.2 359,-169.2"/>
<text text-anchor="start" x="362" y="-176.9" font-family="Helvetica,sans-Serif" font-size="11.00" fill="#000000">varchar[255]</text>
<polygon fill="none" stroke="#000000" points="226,-147.2 226,-169.2 359,-169.2 359,-147.2 226,-147.2"/>
<text text-anchor="start" x="246" y="-154.3" font-family="Helvetica,sans-Serif" font-size="11.00" fill="#000000">groupname</text>
<polygon fill="none" stroke="#000000" points="359,-147.2 359,-169.2 470,-169.2 470,-147.2 359,-147.2"/>
<text text-anchor="start" x="362" y="-154.9" font-family="Helvetica,sans-Serif" font-size="11.00" fill="#000000">varchar[255]</text>
<polygon fill="none" stroke="#000000" points="226,-125.2 226,-147.2 359,-147.2 359,-125.2 226,-125.2"/>
<text text-anchor="start" x="246" y="-132.3" font-family="Helvetica,sans-Serif" font-size="11.00" fill="#000000">authorized</text>
<polygon fill="none" stroke="#000000" points="359,-125.2 359,-147.2 470,-147.2 470,-125.2 359,-125.2"/>
<text text-anchor="start" x="362" y="-132.9" font-family="Helvetica,sans-Serif" font-size="11.00" fill="#000000">tinyint[3]</text>
<polygon fill="none" stroke="#000000" points="226,-103.2 226,-125.2 359,-125.2 359,-103.2 226,-103.2"/>
<text text-anchor="start" x="246" y="-110.3" font-family="Helvetica,sans-Serif" font-size="11.00" fill="#000000">activity</text>
<polygon fill="none" stroke="#000000" points="359,-103.2 359,-125.2 470,-125.2 470,-103.2 359,-103.2"/>
<text text-anchor="start" x="362" y="-110.9" font-family="Helvetica,sans-Serif" font-size="11.00" fill="#000000">tinyint[3]</text>
<polygon fill="none" stroke="#000000" points="226,-81.2 226,-103.2 359,-103.2 359,-81.2 226,-81.2"/>
<text text-anchor="start" x="246" y="-88.3" font-family="Helvetica,sans-Serif" font-size="11.00" fill="#000000">dictation</text>
<polygon fill="none" stroke="#000000" points="359,-81.2 359,-103.2 470,-103.2 470,-81.2 359,-81.2"/>
<text text-anchor="start" x="361.6115" y="-88.9" font-family="Helvetica,sans-Serif" font-size="11.00" fill="#000000">longtext[2147483647]</text>
<polygon fill="none" stroke="#000000" points="226,-59.2 226,-81.2 359,-81.2 359,-59.2 226,-59.2"/>
<text text-anchor="start" x="246" y="-66.3" font-family="Helvetica,sans-Serif" font-size="11.00" fill="#000000">additional_notes</text>
<polygon fill="none" stroke="#000000" points="359,-59.2 359,-81.2 470,-81.2 470,-59.2 359,-59.2"/>
<text text-anchor="start" x="361.6115" y="-66.9" font-family="Helvetica,sans-Serif" font-size="11.00" fill="#000000">longtext[2147483647]</text>
<polygon fill="#ffffff" stroke="transparent" points="226,-40.2 226,-59.2 297,-59.2 297,-40.2 226,-40.2"/>
<polygon fill="none" stroke="#000000" points="226,-40.2 226,-59.2 297,-59.2 297,-40.2 226,-40.2"/>
<text text-anchor="start" x="229" y="-46.3" font-family="Helvetica,sans-Serif" font-size="11.00" fill="#000000">&lt; 1</text>
<polygon fill="#ffffff" stroke="transparent" points="297,-40.2 297,-59.2 359,-59.2 359,-40.2 297,-40.2"/>
<polygon fill="none" stroke="#000000" points="297,-40.2 297,-59.2 359,-59.2 359,-40.2 297,-40.2"/>
<text text-anchor="start" x="349.8862" y="-46.3" font-family="Helvetica,sans-Serif" font-size="11.00" fill="#000000"> &#160;</text>
<polygon fill="#ffffff" stroke="transparent" points="359,-40.2 359,-59.2 470,-59.2 470,-40.2 359,-40.2"/>
<polygon fill="none" stroke="#000000" points="359,-40.2 359,-59.2 470,-59.2 470,-40.2 359,-40.2"/>
<text text-anchor="start" x="451.4053" y="-46.3" font-family="Helvetica,sans-Serif" font-size="11.00" fill="#000000">0 &gt;</text>
<polygon fill="none" stroke="#000000" stroke-width="2" points="225,-39.2 225,-281.2 471,-281.2 471,-39.2 225,-39.2"/>
</a>
</g>
</g>
<!-- patient_data -->
<g id="node2" class="node">
<title>patient_data</title>
<g id="a_node2"><a xlink:href="../../tables/patient_data.html" xlink:title="patient_data" target="_top">
<polygon fill="#ffffff" stroke="transparent" points="8,-109.7 8,-346.7 175,-346.7 175,-109.7 8,-109.7"/>
<polygon fill="#f5f5f5" stroke="transparent" points="8.5,-323.2 8.5,-346.2 175.5,-346.2 175.5,-323.2 8.5,-323.2"/>
<polygon fill="none" stroke="#000000" points="8.5,-323.2 8.5,-346.2 175.5,-346.2 175.5,-323.2 8.5,-323.2"/>
<text text-anchor="start" x="13.5" y="-331.8" font-family="Helvetica,sans-Serif" font-weight="bold" font-size="11.00" fill="#000000">patient_data</text>
<text text-anchor="start" x="140.5437" y="-331.3" font-family="Helvetica,sans-Serif" font-size="11.00" fill="#000000">[table]</text>
<polygon fill="#ffffff" stroke="transparent" points="8.5,-301.2 8.5,-323.2 175.5,-323.2 175.5,-301.2 8.5,-301.2"/>
<polygon fill="none" stroke="#000000" points="8.5,-301.2 8.5,-323.2 175.5,-323.2 175.5,-301.2 8.5,-301.2"/>
<text text-anchor="start" x="28.5" y="-308.3" font-family="Helvetica,sans-Serif" font-size="11.00" fill="#000000">id</text>
<polygon fill="#ffffff" stroke="transparent" points="8.5,-279.2 8.5,-301.2 175.5,-301.2 175.5,-279.2 8.5,-279.2"/>
<polygon fill="none" stroke="#000000" points="8.5,-279.2 8.5,-301.2 175.5,-301.2 175.5,-279.2 8.5,-279.2"/>
<text text-anchor="start" x="28.5" y="-286.3" font-family="Helvetica,sans-Serif" font-size="11.00" fill="#000000">uuid</text>
<polygon fill="none" stroke="#000000" points="8.5,-257.2 8.5,-279.2 175.5,-279.2 175.5,-257.2 8.5,-257.2"/>
<image xlink:href="../../images/foreignKeys.png" width="11px" height="12px" preserveAspectRatio="xMinYMin meet" x="13.5" y="-274.2"/>
<text text-anchor="start" x="28.5" y="-264.3" font-family="Helvetica,sans-Serif" font-size="11.00" fill="#000000">pharmacy_id</text>
<polygon fill="none" stroke="#000000" points="8.5,-235.2 8.5,-257.2 175.5,-257.2 175.5,-235.2 8.5,-235.2"/>
<image xlink:href="../../images/foreignKeys.png" width="11px" height="12px" preserveAspectRatio="xMinYMin meet" x="13.5" y="-252.2"/>
<text text-anchor="start" x="28.5" y="-242.3" font-family="Helvetica,sans-Serif" font-size="11.00" fill="#000000">providerID</text>
<polygon fill="none" stroke="#000000" points="8.5,-213.2 8.5,-235.2 175.5,-235.2 175.5,-213.2 8.5,-213.2"/>
<image xlink:href="../../images/foreignKeys.png" width="11px" height="12px" preserveAspectRatio="xMinYMin meet" x="13.5" y="-230.2"/>
<text text-anchor="start" x="28.5" y="-220.3" font-family="Helvetica,sans-Serif" font-size="11.00" fill="#000000">ref_providerID</text>
<polygon fill="none" stroke="#000000" points="8.5,-191.2 8.5,-213.2 175.5,-213.2 175.5,-191.2 8.5,-191.2"/>
<image xlink:href="../../images/primaryKeys.png" width="11px" height="12px" preserveAspectRatio="xMinYMin meet" x="13.5" y="-208.2"/>
<text text-anchor="start" x="28.5" y="-198.3" font-family="Helvetica,sans-Serif" font-size="11.00" fill="#000000">pid</text>
<polygon fill="none" stroke="#000000" points="8.5,-169.2 8.5,-191.2 175.5,-191.2 175.5,-169.2 8.5,-169.2"/>
<image xlink:href="../../images/foreignKeys.png" width="11px" height="12px" preserveAspectRatio="xMinYMin meet" x="13.5" y="-186.2"/>
<text text-anchor="start" x="28.5" y="-176.3" font-family="Helvetica,sans-Serif" font-size="11.00" fill="#000000">created_by</text>
<polygon fill="none" stroke="#000000" points="8.5,-147.2 8.5,-169.2 175.5,-169.2 175.5,-147.2 8.5,-147.2"/>
<image xlink:href="../../images/foreignKeys.png" width="11px" height="12px" preserveAspectRatio="xMinYMin meet" x="13.5" y="-164.2"/>
<text text-anchor="start" x="28.5" y="-154.3" font-family="Helvetica,sans-Serif" font-size="11.00" fill="#000000">updated_by</text>
<polygon fill="none" stroke="#000000" points="8.5,-128.2 8.5,-147.2 175.5,-147.2 175.5,-128.2 8.5,-128.2"/>
<text text-anchor="start" x="11.5" y="-134.3" font-family="Helvetica,sans-Serif" font-size="11.00" fill="#000000">...</text>
<polygon fill="#ffffff" stroke="transparent" points="8.5,-109.2 8.5,-128.2 82.5,-128.2 82.5,-109.2 8.5,-109.2"/>
<polygon fill="none" stroke="#000000" points="8.5,-109.2 8.5,-128.2 82.5,-128.2 82.5,-109.2 8.5,-109.2"/>
<text text-anchor="start" x="11.5" y="-115.3" font-family="Helvetica,sans-Serif" font-size="11.00" fill="#000000">&lt; 5</text>
<polygon fill="#ffffff" stroke="transparent" points="82.5,-109.2 82.5,-128.2 121.5,-128.2 121.5,-109.2 82.5,-109.2"/>
<polygon fill="none" stroke="#000000" points="82.5,-109.2 82.5,-128.2 121.5,-128.2 121.5,-109.2 82.5,-109.2"/>
<text text-anchor="start" x="112.3862" y="-115.3" font-family="Helvetica,sans-Serif" font-size="11.00" fill="#000000"> &#160;</text>
<polygon fill="#ffffff" stroke="transparent" points="121.5,-109.2 121.5,-128.2 175.5,-128.2 175.5,-109.2 121.5,-109.2"/>
<polygon fill="none" stroke="#000000" points="121.5,-109.2 121.5,-128.2 175.5,-128.2 175.5,-109.2 121.5,-109.2"/>
<text text-anchor="start" x="150.7904" y="-115.3" font-family="Helvetica,sans-Serif" font-size="11.00" fill="#000000">85 &gt;</text>
</a>
</g>
</g>
<!-- form_dictation&#45;&gt;patient_data -->
<g id="edge1" class="edge">
<title>form_dictation:w&#45;&gt;patient_data:e</title>
<path fill="none" stroke="#000000" d="M211.4203,-202.2C199.5435,-202.2 192.158,-202.2 175.5,-202.2"/>
<polygon fill="#000000" stroke="#000000" points="218,-202.2001 226,-205.8 222,-202.2 226,-202.2 226,-202.2 226,-202.2 222,-202.2 226,-198.6 218,-202.2001 218,-202.2001"/>
<ellipse fill="none" stroke="#000000" cx="214.8" cy="-202.2001" rx="3.2" ry="3.2"/>
</g>
</g>
</svg>
