<?xml version="1.0" encoding="UTF-8" standalone="no"?>
<!DOCTYPE svg PUBLIC "-//W3C//DTD SVG 1.1//EN"
 "http://www.w3.org/Graphics/SVG/1.1/DTD/svg11.dtd">
<!-- Generated by graphviz version 2.40.1 (20161225.0304)
 -->
<!-- Title: oneDegreeRelationshipsDiagram Pages: 1 -->
<svg width="1106pt" height="805pt"
 viewBox="0.00 0.00 1106.00 804.70" xmlns="http://www.w3.org/2000/svg" xmlns:xlink="http://www.w3.org/1999/xlink">
<g id="graph0" class="graph" transform="scale(1 1) rotate(0) translate(4 800.7)">
<title>oneDegreeRelationshipsDiagram</title>
<polygon fill="#ffffff" stroke="transparent" points="-4,4 -4,-800.7 1102,-800.7 1102,4 -4,4"/>
<text text-anchor="middle" x="72.4936" y="-7.3" font-family="Helvetica,sans-Serif" font-size="11.00" fill="#000000">Generated by SchemaSpy</text>
<!-- form_questionnaire_assessments -->
<g id="node1" class="node">
<title>form_questionnaire_assessments</title>
<g id="a_node1"><a xlink:href="../../tables/form_questionnaire_assessments.html" xlink:title="form_questionnaire_assessments" target="_top">
<polygon fill="#ffffff" stroke="transparent" points="730,-38.2 730,-436.2 1090,-436.2 1090,-38.2 730,-38.2"/>
<polygon fill="#f5f5f5" stroke="transparent" points="732,-411.2 732,-434.2 1088,-434.2 1088,-411.2 732,-411.2"/>
<polygon fill="none" stroke="#000000" points="732,-411.2 732,-434.2 1088,-434.2 1088,-411.2 732,-411.2"/>
<text text-anchor="start" x="737" y="-419.8" font-family="Helvetica,sans-Serif" font-weight="bold" font-size="11.00" fill="#000000">form_questionnaire_assessments</text>
<text text-anchor="start" x="1053.0437" y="-419.3" font-family="Helvetica,sans-Serif" font-size="11.00" fill="#000000">[table]</text>
<polygon fill="none" stroke="#000000" points="732,-389.2 732,-411.2 977,-411.2 977,-389.2 732,-389.2"/>
<image xlink:href="../../images/primaryKeys.png" width="11px" height="12px" preserveAspectRatio="xMinYMin meet" x="737" y="-406.2"/>
<text text-anchor="start" x="752" y="-396.3" font-family="Helvetica,sans-Serif" font-size="11.00" fill="#000000">id</text>
<polygon fill="none" stroke="#000000" points="977,-389.2 977,-411.2 1088,-411.2 1088,-389.2 977,-389.2"/>
<text text-anchor="start" x="980" y="-396.9" font-family="Helvetica,sans-Serif" font-size="11.00" fill="#000000">bigint[19]</text>
<polygon fill="none" stroke="#000000" points="732,-367.2 732,-389.2 977,-389.2 977,-367.2 732,-367.2"/>
<text text-anchor="start" x="752" y="-374.3" font-family="Helvetica,sans-Serif" font-size="11.00" fill="#000000">date</text>
<polygon fill="none" stroke="#000000" points="977,-367.2 977,-389.2 1088,-389.2 1088,-367.2 977,-367.2"/>
<text text-anchor="start" x="980" y="-374.9" font-family="Helvetica,sans-Serif" font-size="11.00" fill="#000000">datetime[19]</text>
<polygon fill="none" stroke="#000000" points="732,-345.2 732,-367.2 977,-367.2 977,-345.2 732,-345.2"/>
<image xlink:href="../../images/foreignKeys.png" width="11px" height="12px" preserveAspectRatio="xMinYMin meet" x="737" y="-362.2"/>
<text text-anchor="start" x="752" y="-352.3" font-family="Helvetica,sans-Serif" font-size="11.00" fill="#000000">response_id</text>
<polygon fill="none" stroke="#000000" points="977,-345.2 977,-367.2 1088,-367.2 1088,-345.2 977,-345.2"/>
<text text-anchor="start" x="980" y="-352.9" font-family="Helvetica,sans-Serif" font-size="11.00" fill="#000000">text[65535]</text>
<polygon fill="none" stroke="#000000" points="732,-323.2 732,-345.2 977,-345.2 977,-323.2 732,-323.2"/>
<image xlink:href="../../images/foreignKeys.png" width="11px" height="12px" preserveAspectRatio="xMinYMin meet" x="737" y="-340.2"/>
<text text-anchor="start" x="752" y="-330.3" font-family="Helvetica,sans-Serif" font-size="11.00" fill="#000000">pid</text>
<polygon fill="none" stroke="#000000" points="977,-323.2 977,-345.2 1088,-345.2 1088,-323.2 977,-323.2"/>
<text text-anchor="start" x="980" y="-330.9" font-family="Helvetica,sans-Serif" font-size="11.00" fill="#000000">bigint[19]</text>
<polygon fill="none" stroke="#000000" points="732,-301.2 732,-323.2 977,-323.2 977,-301.2 732,-301.2"/>
<image xlink:href="../../images/foreignKeys.png" width="11px" height="12px" preserveAspectRatio="xMinYMin meet" x="737" y="-318.2"/>
<text text-anchor="start" x="752" y="-308.3" font-family="Helvetica,sans-Serif" font-size="11.00" fill="#000000">user</text>
<polygon fill="none" stroke="#000000" points="977,-301.2 977,-323.2 1088,-323.2 1088,-301.2 977,-301.2"/>
<text text-anchor="start" x="980" y="-308.9" font-family="Helvetica,sans-Serif" font-size="11.00" fill="#000000">varchar[255]</text>
<polygon fill="none" stroke="#000000" points="732,-279.2 732,-301.2 977,-301.2 977,-279.2 732,-279.2"/>
<image xlink:href="../../images/foreignKeys.png" width="11px" height="12px" preserveAspectRatio="xMinYMin meet" x="737" y="-296.2"/>
<text text-anchor="start" x="752" y="-286.3" font-family="Helvetica,sans-Serif" font-size="11.00" fill="#000000">groupname</text>
<polygon fill="none" stroke="#000000" points="977,-279.2 977,-301.2 1088,-301.2 1088,-279.2 977,-279.2"/>
<text text-anchor="start" x="980" y="-286.9" font-family="Helvetica,sans-Serif" font-size="11.00" fill="#000000">varchar[255]</text>
<polygon fill="none" stroke="#000000" points="732,-257.2 732,-279.2 977,-279.2 977,-257.2 732,-257.2"/>
<text text-anchor="start" x="752" y="-264.3" font-family="Helvetica,sans-Serif" font-size="11.00" fill="#000000">authorized</text>
<polygon fill="none" stroke="#000000" points="977,-257.2 977,-279.2 1088,-279.2 1088,-257.2 977,-257.2"/>
<text text-anchor="start" x="980" y="-264.9" font-family="Helvetica,sans-Serif" font-size="11.00" fill="#000000">tinyint[3]</text>
<polygon fill="none" stroke="#000000" points="732,-235.2 732,-257.2 977,-257.2 977,-235.2 732,-235.2"/>
<text text-anchor="start" x="752" y="-242.3" font-family="Helvetica,sans-Serif" font-size="11.00" fill="#000000">activity</text>
<polygon fill="none" stroke="#000000" points="977,-235.2 977,-257.2 1088,-257.2 1088,-235.2 977,-235.2"/>
<text text-anchor="start" x="980" y="-242.9" font-family="Helvetica,sans-Serif" font-size="11.00" fill="#000000">tinyint[3]</text>
<polygon fill="none" stroke="#000000" points="732,-213.2 732,-235.2 977,-235.2 977,-213.2 732,-213.2"/>
<text text-anchor="start" x="752" y="-220.3" font-family="Helvetica,sans-Serif" font-size="11.00" fill="#000000">copyright</text>
<polygon fill="none" stroke="#000000" points="977,-213.2 977,-235.2 1088,-235.2 1088,-213.2 977,-213.2"/>
<text text-anchor="start" x="980" y="-220.9" font-family="Helvetica,sans-Serif" font-size="11.00" fill="#000000">text[65535]</text>
<polygon fill="none" stroke="#000000" points="732,-191.2 732,-213.2 977,-213.2 977,-191.2 732,-191.2"/>
<text text-anchor="start" x="752" y="-198.3" font-family="Helvetica,sans-Serif" font-size="11.00" fill="#000000">form_name</text>
<polygon fill="none" stroke="#000000" points="977,-191.2 977,-213.2 1088,-213.2 1088,-191.2 977,-191.2"/>
<text text-anchor="start" x="980" y="-198.9" font-family="Helvetica,sans-Serif" font-size="11.00" fill="#000000">varchar[255]</text>
<polygon fill="none" stroke="#000000" points="732,-169.2 732,-191.2 977,-191.2 977,-169.2 732,-169.2"/>
<text text-anchor="start" x="752" y="-176.3" font-family="Helvetica,sans-Serif" font-size="11.00" fill="#000000">response_meta</text>
<polygon fill="none" stroke="#000000" points="977,-169.2 977,-191.2 1088,-191.2 1088,-169.2 977,-169.2"/>
<text text-anchor="start" x="980" y="-176.9" font-family="Helvetica,sans-Serif" font-size="11.00" fill="#000000">text[65535]</text>
<polygon fill="none" stroke="#000000" points="732,-147.2 732,-169.2 977,-169.2 977,-147.2 732,-147.2"/>
<image xlink:href="../../images/foreignKeys.png" width="11px" height="12px" preserveAspectRatio="xMinYMin meet" x="737" y="-164.2"/>
<text text-anchor="start" x="752" y="-154.3" font-family="Helvetica,sans-Serif" font-size="11.00" fill="#000000">questionnaire_id</text>
<polygon fill="none" stroke="#000000" points="977,-147.2 977,-169.2 1088,-169.2 1088,-147.2 977,-147.2"/>
<text text-anchor="start" x="980" y="-154.9" font-family="Helvetica,sans-Serif" font-size="11.00" fill="#000000">text[65535]</text>
<polygon fill="none" stroke="#000000" points="732,-125.2 732,-147.2 977,-147.2 977,-125.2 732,-125.2"/>
<text text-anchor="start" x="752" y="-132.3" font-family="Helvetica,sans-Serif" font-size="11.00" fill="#000000">questionnaire</text>
<polygon fill="none" stroke="#000000" points="977,-125.2 977,-147.2 1088,-147.2 1088,-125.2 977,-125.2"/>
<text text-anchor="start" x="979.6115" y="-132.9" font-family="Helvetica,sans-Serif" font-size="11.00" fill="#000000">longtext[2147483647]</text>
<polygon fill="none" stroke="#000000" points="732,-103.2 732,-125.2 977,-125.2 977,-103.2 732,-103.2"/>
<text text-anchor="start" x="752" y="-110.3" font-family="Helvetica,sans-Serif" font-size="11.00" fill="#000000">questionnaire_response</text>
<polygon fill="none" stroke="#000000" points="977,-103.2 977,-125.2 1088,-125.2 1088,-103.2 977,-103.2"/>
<text text-anchor="start" x="979.6115" y="-110.9" font-family="Helvetica,sans-Serif" font-size="11.00" fill="#000000">longtext[2147483647]</text>
<polygon fill="none" stroke="#000000" points="732,-81.2 732,-103.2 977,-103.2 977,-81.2 732,-81.2"/>
<text text-anchor="start" x="752" y="-88.3" font-family="Helvetica,sans-Serif" font-size="11.00" fill="#000000">lform</text>
<polygon fill="none" stroke="#000000" points="977,-81.2 977,-103.2 1088,-103.2 1088,-81.2 977,-81.2"/>
<text text-anchor="start" x="979.6115" y="-88.9" font-family="Helvetica,sans-Serif" font-size="11.00" fill="#000000">longtext[2147483647]</text>
<polygon fill="none" stroke="#000000" points="732,-59.2 732,-81.2 977,-81.2 977,-59.2 732,-59.2"/>
<text text-anchor="start" x="752" y="-66.3" font-family="Helvetica,sans-Serif" font-size="11.00" fill="#000000">lform_response</text>
<polygon fill="none" stroke="#000000" points="977,-59.2 977,-81.2 1088,-81.2 1088,-59.2 977,-59.2"/>
<text text-anchor="start" x="979.6115" y="-66.9" font-family="Helvetica,sans-Serif" font-size="11.00" fill="#000000">longtext[2147483647]</text>
<polygon fill="#ffffff" stroke="transparent" points="732,-40.2 732,-59.2 859,-59.2 859,-40.2 732,-40.2"/>
<polygon fill="none" stroke="#000000" points="732,-40.2 732,-59.2 859,-59.2 859,-40.2 732,-40.2"/>
<text text-anchor="start" x="735" y="-46.3" font-family="Helvetica,sans-Serif" font-size="11.00" fill="#000000">&lt; 5</text>
<polygon fill="#ffffff" stroke="transparent" points="859,-40.2 859,-59.2 977,-59.2 977,-40.2 859,-40.2"/>
<polygon fill="none" stroke="#000000" points="859,-40.2 859,-59.2 977,-59.2 977,-40.2 859,-40.2"/>
<text text-anchor="start" x="967.8862" y="-46.3" font-family="Helvetica,sans-Serif" font-size="11.00" fill="#000000"> &#160;</text>
<polygon fill="#ffffff" stroke="transparent" points="977,-40.2 977,-59.2 1088,-59.2 1088,-40.2 977,-40.2"/>
<polygon fill="none" stroke="#000000" points="977,-40.2 977,-59.2 1088,-59.2 1088,-40.2 977,-40.2"/>
<text text-anchor="start" x="1069.4053" y="-46.3" font-family="Helvetica,sans-Serif" font-size="11.00" fill="#000000">0 &gt;</text>
<polygon fill="none" stroke="#000000" stroke-width="2" points="731,-39.2 731,-435.2 1089,-435.2 1089,-39.2 731,-39.2"/>
</a>
</g>
</g>
<!-- groups -->
<g id="node2" class="node">
<title>groups</title>
<g id="a_node2"><a xlink:href="../../tables/groups.html" xlink:title="groups" target="_top">
<polygon fill="#ffffff" stroke="transparent" points="538,-180.2 538,-288.2 624,-288.2 624,-180.2 538,-180.2"/>
<polygon fill="#f5f5f5" stroke="transparent" points="538,-265.2 538,-288.2 624,-288.2 624,-265.2 538,-265.2"/>
<polygon fill="none" stroke="#000000" points="538,-265.2 538,-288.2 624,-288.2 624,-265.2 538,-265.2"/>
<text text-anchor="start" x="543" y="-273.8" font-family="Helvetica,sans-Serif" font-weight="bold" font-size="11.00" fill="#000000">groups</text>
<text text-anchor="start" x="589.5219" y="-273.3" font-family="Helvetica,sans-Serif" font-size="11.00" fill="#000000">[table]</text>
<polygon fill="none" stroke="#000000" points="538,-243.2 538,-265.2 624,-265.2 624,-243.2 538,-243.2"/>
<image xlink:href="../../images/primaryKeys.png" width="11px" height="12px" preserveAspectRatio="xMinYMin meet" x="543" y="-260.2"/>
<text text-anchor="start" x="567" y="-250.3" font-family="Helvetica,sans-Serif" font-size="11.00" fill="#000000">id</text>
<polygon fill="none" stroke="#000000" points="538,-221.2 538,-243.2 624,-243.2 624,-221.2 538,-221.2"/>
<image xlink:href="../../images/primaryKeys.png" width="11px" height="12px" preserveAspectRatio="xMinYMin meet" x="543" y="-238.2"/>
<text text-anchor="start" x="567" y="-228.3" font-family="Helvetica,sans-Serif" font-size="11.00" fill="#000000">name</text>
<polygon fill="none" stroke="#000000" points="538,-199.2 538,-221.2 624,-221.2 624,-199.2 538,-199.2"/>
<image xlink:href="../../images/foreignKeys.png" width="11px" height="12px" preserveAspectRatio="xMinYMin meet" x="543" y="-216.2"/>
<text text-anchor="start" x="567" y="-206.3" font-family="Helvetica,sans-Serif" font-size="11.00" fill="#000000">user</text>
<polygon fill="#ffffff" stroke="transparent" points="538,-180.2 538,-199.2 572,-199.2 572,-180.2 538,-180.2"/>
<polygon fill="none" stroke="#000000" points="538,-180.2 538,-199.2 572,-199.2 572,-180.2 538,-180.2"/>
<text text-anchor="start" x="541" y="-186.3" font-family="Helvetica,sans-Serif" font-size="11.00" fill="#000000">&lt; 1</text>
<polygon fill="#ffffff" stroke="transparent" points="572,-180.2 572,-199.2 590,-199.2 590,-180.2 572,-180.2"/>
<polygon fill="none" stroke="#000000" points="572,-180.2 572,-199.2 590,-199.2 590,-180.2 572,-180.2"/>
<text text-anchor="start" x="580.8862" y="-186.3" font-family="Helvetica,sans-Serif" font-size="11.00" fill="#000000"> &#160;</text>
<polygon fill="#ffffff" stroke="transparent" points="590,-180.2 590,-199.2 624,-199.2 624,-180.2 590,-180.2"/>
<polygon fill="none" stroke="#000000" points="590,-180.2 590,-199.2 624,-199.2 624,-180.2 590,-180.2"/>
<text text-anchor="start" x="599.2904" y="-186.3" font-family="Helvetica,sans-Serif" font-size="11.00" fill="#000000">17 &gt;</text>
</a>
</g>
</g>
<!-- form_questionnaire_assessments&#45;&gt;groups -->
<g id="edge1" class="edge">
<title>form_questionnaire_assessments:w&#45;&gt;groups:e</title>
<path fill="none" stroke="#000000" d="M717.5211,-288.6486C677.1763,-279.425 673.1632,-232.2 624,-232.2"/>
<polygon fill="#000000" stroke="#000000" points="724.0455,-289.3477 731.6164,-293.7795 728.0228,-289.7738 732,-290.2 732,-290.2 732,-290.2 728.0228,-289.7738 732.3836,-286.6205 724.0455,-289.3477 724.0455,-289.3477"/>
<ellipse fill="none" stroke="#000000" cx="720.8637" cy="-289.0067" rx="3.2" ry="3.2"/>
</g>
<!-- patient_data -->
<g id="node3" class="node">
<title>patient_data</title>
<g id="a_node3"><a xlink:href="../../tables/patient_data.html" xlink:title="patient_data" target="_top">
<polygon fill="#ffffff" stroke="transparent" points="244.5,-555.7 244.5,-792.7 411.5,-792.7 411.5,-555.7 244.5,-555.7"/>
<polygon fill="#f5f5f5" stroke="transparent" points="245,-769.2 245,-792.2 412,-792.2 412,-769.2 245,-769.2"/>
<polygon fill="none" stroke="#000000" points="245,-769.2 245,-792.2 412,-792.2 412,-769.2 245,-769.2"/>
<text text-anchor="start" x="250" y="-777.8" font-family="Helvetica,sans-Serif" font-weight="bold" font-size="11.00" fill="#000000">patient_data</text>
<text text-anchor="start" x="377.0437" y="-777.3" font-family="Helvetica,sans-Serif" font-size="11.00" fill="#000000">[table]</text>
<polygon fill="#ffffff" stroke="transparent" points="245,-747.2 245,-769.2 412,-769.2 412,-747.2 245,-747.2"/>
<polygon fill="none" stroke="#000000" points="245,-747.2 245,-769.2 412,-769.2 412,-747.2 245,-747.2"/>
<text text-anchor="start" x="265" y="-754.3" font-family="Helvetica,sans-Serif" font-size="11.00" fill="#000000">id</text>
<polygon fill="#ffffff" stroke="transparent" points="245,-725.2 245,-747.2 412,-747.2 412,-725.2 245,-725.2"/>
<polygon fill="none" stroke="#000000" points="245,-725.2 245,-747.2 412,-747.2 412,-725.2 245,-725.2"/>
<text text-anchor="start" x="265" y="-732.3" font-family="Helvetica,sans-Serif" font-size="11.00" fill="#000000">uuid</text>
<polygon fill="none" stroke="#000000" points="245,-703.2 245,-725.2 412,-725.2 412,-703.2 245,-703.2"/>
<image xlink:href="../../images/foreignKeys.png" width="11px" height="12px" preserveAspectRatio="xMinYMin meet" x="250" y="-720.2"/>
<text text-anchor="start" x="265" y="-710.3" font-family="Helvetica,sans-Serif" font-size="11.00" fill="#000000">pharmacy_id</text>
<polygon fill="none" stroke="#000000" points="245,-681.2 245,-703.2 412,-703.2 412,-681.2 245,-681.2"/>
<image xlink:href="../../images/foreignKeys.png" width="11px" height="12px" preserveAspectRatio="xMinYMin meet" x="250" y="-698.2"/>
<text text-anchor="start" x="265" y="-688.3" font-family="Helvetica,sans-Serif" font-size="11.00" fill="#000000">providerID</text>
<polygon fill="none" stroke="#000000" points="245,-659.2 245,-681.2 412,-681.2 412,-659.2 245,-659.2"/>
<image xlink:href="../../images/foreignKeys.png" width="11px" height="12px" preserveAspectRatio="xMinYMin meet" x="250" y="-676.2"/>
<text text-anchor="start" x="265" y="-666.3" font-family="Helvetica,sans-Serif" font-size="11.00" fill="#000000">ref_providerID</text>
<polygon fill="none" stroke="#000000" points="245,-637.2 245,-659.2 412,-659.2 412,-637.2 245,-637.2"/>
<image xlink:href="../../images/primaryKeys.png" width="11px" height="12px" preserveAspectRatio="xMinYMin meet" x="250" y="-654.2"/>
<text text-anchor="start" x="265" y="-644.3" font-family="Helvetica,sans-Serif" font-size="11.00" fill="#000000">pid</text>
<polygon fill="none" stroke="#000000" points="245,-615.2 245,-637.2 412,-637.2 412,-615.2 245,-615.2"/>
<image xlink:href="../../images/foreignKeys.png" width="11px" height="12px" preserveAspectRatio="xMinYMin meet" x="250" y="-632.2"/>
<text text-anchor="start" x="265" y="-622.3" font-family="Helvetica,sans-Serif" font-size="11.00" fill="#000000">created_by</text>
<polygon fill="none" stroke="#000000" points="245,-593.2 245,-615.2 412,-615.2 412,-593.2 245,-593.2"/>
<image xlink:href="../../images/foreignKeys.png" width="11px" height="12px" preserveAspectRatio="xMinYMin meet" x="250" y="-610.2"/>
<text text-anchor="start" x="265" y="-600.3" font-family="Helvetica,sans-Serif" font-size="11.00" fill="#000000">updated_by</text>
<polygon fill="none" stroke="#000000" points="245,-574.2 245,-593.2 412,-593.2 412,-574.2 245,-574.2"/>
<text text-anchor="start" x="248" y="-580.3" font-family="Helvetica,sans-Serif" font-size="11.00" fill="#000000">...</text>
<polygon fill="#ffffff" stroke="transparent" points="245,-555.2 245,-574.2 319,-574.2 319,-555.2 245,-555.2"/>
<polygon fill="none" stroke="#000000" points="245,-555.2 245,-574.2 319,-574.2 319,-555.2 245,-555.2"/>
<text text-anchor="start" x="248" y="-561.3" font-family="Helvetica,sans-Serif" font-size="11.00" fill="#000000">&lt; 5</text>
<polygon fill="#ffffff" stroke="transparent" points="319,-555.2 319,-574.2 358,-574.2 358,-555.2 319,-555.2"/>
<polygon fill="none" stroke="#000000" points="319,-555.2 319,-574.2 358,-574.2 358,-555.2 319,-555.2"/>
<text text-anchor="start" x="348.8862" y="-561.3" font-family="Helvetica,sans-Serif" font-size="11.00" fill="#000000"> &#160;</text>
<polygon fill="#ffffff" stroke="transparent" points="358,-555.2 358,-574.2 412,-574.2 412,-555.2 358,-555.2"/>
<polygon fill="none" stroke="#000000" points="358,-555.2 358,-574.2 412,-574.2 412,-555.2 358,-555.2"/>
<text text-anchor="start" x="387.2904" y="-561.3" font-family="Helvetica,sans-Serif" font-size="11.00" fill="#000000">85 &gt;</text>
</a>
</g>
</g>
<!-- form_questionnaire_assessments&#45;&gt;patient_data -->
<g id="edge2" class="edge">
<title>form_questionnaire_assessments:w&#45;&gt;patient_data:e</title>
<path fill="none" stroke="#000000" d="M718.1352,-339.084C675.9766,-374.5648 734.6769,-592.5377 689,-634.2 597.9259,-717.2696 535.2683,-648.2 412,-648.2"/>
<polygon fill="#000000" stroke="#000000" points="724.4545,-336.858 733.1961,-337.5955 728.2272,-335.529 732,-334.2 732,-334.2 732,-334.2 728.2272,-335.529 730.8039,-330.8045 724.4545,-336.858 724.4545,-336.858"/>
<ellipse fill="none" stroke="#000000" cx="721.4362" cy="-337.9212" rx="3.2" ry="3.2"/>
</g>
<!-- questionnaire_repository -->
<g id="node4" class="node">
<title>questionnaire_repository</title>
<g id="a_node4"><a xlink:href="../../tables/questionnaire_repository.html" xlink:title="questionnaire_repository" target="_top">
<polygon fill="#ffffff" stroke="transparent" points="224,-330.7 224,-479.7 432,-479.7 432,-330.7 224,-330.7"/>
<polygon fill="#f5f5f5" stroke="transparent" points="224,-456.2 224,-479.2 432,-479.2 432,-456.2 224,-456.2"/>
<polygon fill="none" stroke="#000000" points="224,-456.2 224,-479.2 432,-479.2 432,-456.2 224,-456.2"/>
<text text-anchor="start" x="229" y="-464.8" font-family="Helvetica,sans-Serif" font-weight="bold" font-size="11.00" fill="#000000">questionnaire_repository</text>
<text text-anchor="start" x="397.5219" y="-464.3" font-family="Helvetica,sans-Serif" font-size="11.00" fill="#000000">[table]</text>
<polygon fill="none" stroke="#000000" points="224,-434.2 224,-456.2 432,-456.2 432,-434.2 224,-434.2"/>
<image xlink:href="../../images/primaryKeys.png" width="11px" height="12px" preserveAspectRatio="xMinYMin meet" x="229" y="-451.2"/>
<text text-anchor="start" x="253" y="-441.3" font-family="Helvetica,sans-Serif" font-size="11.00" fill="#000000">id</text>
<polygon fill="#ffffff" stroke="transparent" points="224,-412.2 224,-434.2 432,-434.2 432,-412.2 224,-412.2"/>
<polygon fill="none" stroke="#000000" points="224,-412.2 224,-434.2 432,-434.2 432,-412.2 224,-412.2"/>
<text text-anchor="start" x="253" y="-419.3" font-family="Helvetica,sans-Serif" font-size="11.00" fill="#000000">uuid</text>
<polygon fill="none" stroke="#000000" points="224,-390.2 224,-412.2 432,-412.2 432,-390.2 224,-390.2"/>
<image xlink:href="../../images/primaryKeys.png" width="11px" height="12px" preserveAspectRatio="xMinYMin meet" x="229" y="-407.2"/>
<text text-anchor="start" x="253" y="-397.3" font-family="Helvetica,sans-Serif" font-size="11.00" fill="#000000">questionnaire_id</text>
<polygon fill="#ffffff" stroke="transparent" points="224,-368.2 224,-390.2 432,-390.2 432,-368.2 224,-368.2"/>
<polygon fill="none" stroke="#000000" points="224,-368.2 224,-390.2 432,-390.2 432,-368.2 224,-368.2"/>
<text text-anchor="start" x="253" y="-375.3" font-family="Helvetica,sans-Serif" font-size="11.00" fill="#000000">name</text>
<polygon fill="none" stroke="#000000" points="224,-349.2 224,-368.2 432,-368.2 432,-349.2 224,-349.2"/>
<text text-anchor="start" x="227" y="-355.3" font-family="Helvetica,sans-Serif" font-size="11.00" fill="#000000">...</text>
<polygon fill="#ffffff" stroke="transparent" points="224,-330.2 224,-349.2 317,-349.2 317,-330.2 224,-330.2"/>
<polygon fill="none" stroke="#000000" points="224,-330.2 224,-349.2 317,-349.2 317,-330.2 224,-330.2"/>
<text text-anchor="start" x="227" y="-336.3" font-family="Helvetica,sans-Serif" font-size="11.00" fill="#000000"> &#160;</text>
<polygon fill="#ffffff" stroke="transparent" points="317,-330.2 317,-349.2 370,-349.2 370,-330.2 317,-330.2"/>
<polygon fill="none" stroke="#000000" points="317,-330.2 317,-349.2 370,-349.2 370,-330.2 317,-330.2"/>
<text text-anchor="start" x="360.8862" y="-336.3" font-family="Helvetica,sans-Serif" font-size="11.00" fill="#000000"> &#160;</text>
<polygon fill="#ffffff" stroke="transparent" points="370,-330.2 370,-349.2 432,-349.2 432,-330.2 370,-330.2"/>
<polygon fill="none" stroke="#000000" points="370,-330.2 370,-349.2 432,-349.2 432,-330.2 370,-330.2"/>
<text text-anchor="start" x="413.4053" y="-336.3" font-family="Helvetica,sans-Serif" font-size="11.00" fill="#000000">2 &gt;</text>
</a>
</g>
</g>
<!-- form_questionnaire_assessments&#45;&gt;questionnaire_repository -->
<g id="edge3" class="edge">
<title>form_questionnaire_assessments:w&#45;&gt;questionnaire_repository:e</title>
<path fill="none" stroke="#000000" d="M717.463,-157.8569C611.8233,-152.8828 555.9582,-96.563 473,-169.2 394.2214,-238.1774 536.7089,-401.2 432,-401.2"/>
<polygon fill="#000000" stroke="#000000" points="724.0022,-158.0112 731.915,-161.799 728.0011,-158.1056 732,-158.2 732,-158.2 732,-158.2 728.0011,-158.1056 732.085,-154.601 724.0022,-158.0112 724.0022,-158.0112"/>
<ellipse fill="none" stroke="#000000" cx="720.8031" cy="-157.9356" rx="3.2" ry="3.2"/>
</g>
<!-- questionnaire_response -->
<g id="node5" class="node">
<title>questionnaire_response</title>
<g id="a_node5"><a xlink:href="../../tables/questionnaire_response.html" xlink:title="questionnaire_response" target="_top">
<polygon fill="#ffffff" stroke="transparent" points="481,-342.7 481,-623.7 681,-623.7 681,-342.7 481,-342.7"/>
<polygon fill="#f5f5f5" stroke="transparent" points="481,-600.2 481,-623.2 681,-623.2 681,-600.2 481,-600.2"/>
<polygon fill="none" stroke="#000000" points="481,-600.2 481,-623.2 681,-623.2 681,-600.2 481,-600.2"/>
<text text-anchor="start" x="486" y="-608.8" font-family="Helvetica,sans-Serif" font-weight="bold" font-size="11.00" fill="#000000">questionnaire_response</text>
<text text-anchor="start" x="646.5219" y="-608.3" font-family="Helvetica,sans-Serif" font-size="11.00" fill="#000000">[table]</text>
<polygon fill="none" stroke="#000000" points="481,-578.2 481,-600.2 681,-600.2 681,-578.2 481,-578.2"/>
<image xlink:href="../../images/primaryKeys.png" width="11px" height="12px" preserveAspectRatio="xMinYMin meet" x="486" y="-595.2"/>
<text text-anchor="start" x="507" y="-585.3" font-family="Helvetica,sans-Serif" font-size="11.00" fill="#000000">id</text>
<polygon fill="#ffffff" stroke="transparent" points="481,-556.2 481,-578.2 681,-578.2 681,-556.2 481,-556.2"/>
<polygon fill="none" stroke="#000000" points="481,-556.2 481,-578.2 681,-578.2 681,-556.2 481,-556.2"/>
<text text-anchor="start" x="507" y="-563.3" font-family="Helvetica,sans-Serif" font-size="11.00" fill="#000000">uuid</text>
<polygon fill="none" stroke="#000000" points="481,-534.2 481,-556.2 681,-556.2 681,-534.2 481,-534.2"/>
<image xlink:href="../../images/primaryKeys.png" width="11px" height="12px" preserveAspectRatio="xMinYMin meet" x="486" y="-551.2"/>
<text text-anchor="start" x="507" y="-541.3" font-family="Helvetica,sans-Serif" font-size="11.00" fill="#000000">response_id</text>
<polygon fill="none" stroke="#000000" points="481,-512.2 481,-534.2 681,-534.2 681,-512.2 481,-512.2"/>
<image xlink:href="../../images/foreignKeys.png" width="11px" height="12px" preserveAspectRatio="xMinYMin meet" x="486" y="-529.2"/>
<text text-anchor="start" x="507" y="-519.3" font-family="Helvetica,sans-Serif" font-size="11.00" fill="#000000">questionnaire_foreign_id</text>
<polygon fill="#ffffff" stroke="transparent" points="481,-490.2 481,-512.2 681,-512.2 681,-490.2 481,-490.2"/>
<polygon fill="none" stroke="#000000" points="481,-490.2 481,-512.2 681,-512.2 681,-490.2 481,-490.2"/>
<text text-anchor="start" x="507" y="-497.3" font-family="Helvetica,sans-Serif" font-size="11.00" fill="#000000">questionnaire_id</text>
<polygon fill="#ffffff" stroke="transparent" points="481,-468.2 481,-490.2 681,-490.2 681,-468.2 481,-468.2"/>
<polygon fill="none" stroke="#000000" points="481,-468.2 481,-490.2 681,-490.2 681,-468.2 481,-468.2"/>
<text text-anchor="start" x="507" y="-475.3" font-family="Helvetica,sans-Serif" font-size="11.00" fill="#000000">questionnaire_name</text>
<polygon fill="#ffffff" stroke="transparent" points="481,-446.2 481,-468.2 681,-468.2 681,-446.2 481,-446.2"/>
<polygon fill="none" stroke="#000000" points="481,-446.2 481,-468.2 681,-468.2 681,-446.2 481,-446.2"/>
<image xlink:href="../../images/foreignKeys.png" width="11px" height="12px" preserveAspectRatio="xMinYMin meet" x="486" y="-463.2"/>
<text text-anchor="start" x="507" y="-453.3" font-family="Helvetica,sans-Serif" font-size="11.00" fill="#000000">patient_id</text>
<polygon fill="none" stroke="#000000" points="481,-424.2 481,-446.2 681,-446.2 681,-424.2 481,-424.2"/>
<image xlink:href="../../images/foreignKeys.png" width="11px" height="12px" preserveAspectRatio="xMinYMin meet" x="486" y="-441.2"/>
<text text-anchor="start" x="507" y="-431.3" font-family="Helvetica,sans-Serif" font-size="11.00" fill="#000000">encounter</text>
<polygon fill="none" stroke="#000000" points="481,-402.2 481,-424.2 681,-424.2 681,-402.2 481,-402.2"/>
<image xlink:href="../../images/foreignKeys.png" width="11px" height="12px" preserveAspectRatio="xMinYMin meet" x="486" y="-419.2"/>
<text text-anchor="start" x="507" y="-409.3" font-family="Helvetica,sans-Serif" font-size="11.00" fill="#000000">audit_user_id</text>
<polygon fill="none" stroke="#000000" points="481,-380.2 481,-402.2 681,-402.2 681,-380.2 481,-380.2"/>
<image xlink:href="../../images/foreignKeys.png" width="11px" height="12px" preserveAspectRatio="xMinYMin meet" x="486" y="-397.2"/>
<text text-anchor="start" x="507" y="-387.3" font-family="Helvetica,sans-Serif" font-size="11.00" fill="#000000">creator_user_id</text>
<polygon fill="none" stroke="#000000" points="481,-361.2 481,-380.2 681,-380.2 681,-361.2 481,-361.2"/>
<text text-anchor="start" x="484" y="-367.3" font-family="Helvetica,sans-Serif" font-size="11.00" fill="#000000">...</text>
<polygon fill="#ffffff" stroke="transparent" points="481,-342.2 481,-361.2 575,-361.2 575,-342.2 481,-342.2"/>
<polygon fill="none" stroke="#000000" points="481,-342.2 481,-361.2 575,-361.2 575,-342.2 481,-342.2"/>
<text text-anchor="start" x="484" y="-348.3" font-family="Helvetica,sans-Serif" font-size="11.00" fill="#000000">&lt; 5</text>
<polygon fill="#ffffff" stroke="transparent" points="575,-342.2 575,-361.2 623,-361.2 623,-342.2 575,-342.2"/>
<polygon fill="none" stroke="#000000" points="575,-342.2 575,-361.2 623,-361.2 623,-342.2 575,-342.2"/>
<text text-anchor="start" x="613.8862" y="-348.3" font-family="Helvetica,sans-Serif" font-size="11.00" fill="#000000"> &#160;</text>
<polygon fill="#ffffff" stroke="transparent" points="623,-342.2 623,-361.2 681,-361.2 681,-342.2 623,-342.2"/>
<polygon fill="none" stroke="#000000" points="623,-342.2 623,-361.2 681,-361.2 681,-342.2 623,-342.2"/>
<text text-anchor="start" x="662.4053" y="-348.3" font-family="Helvetica,sans-Serif" font-size="11.00" fill="#000000">1 &gt;</text>
</a>
</g>
</g>
<!-- form_questionnaire_assessments&#45;&gt;questionnaire_response -->
<g id="edge4" class="edge">
<title>form_questionnaire_assessments:w&#45;&gt;questionnaire_response:e</title>
<path fill="none" stroke="#000000" d="M717.6817,-358.4542C659.9797,-379.7781 762.3968,-545.2 681,-545.2"/>
<polygon fill="#000000" stroke="#000000" points="724.0973,-357.4442 732.5599,-359.7562 728.0487,-356.8221 732,-356.2 732,-356.2 732,-356.2 728.0487,-356.8221 731.4401,-352.6438 724.0973,-357.4442 724.0973,-357.4442"/>
<ellipse fill="none" stroke="#000000" cx="720.9363" cy="-357.9419" rx="3.2" ry="3.2"/>
</g>
<!-- users -->
<g id="node6" class="node">
<title>users</title>
<g id="a_node6"><a xlink:href="../../tables/users.html" xlink:title="users" target="_top">
<polygon fill="#ffffff" stroke="transparent" points="8,-386.7 8,-601.7 175,-601.7 175,-386.7 8,-386.7"/>
<polygon fill="#f5f5f5" stroke="transparent" points="8.5,-578.2 8.5,-601.2 175.5,-601.2 175.5,-578.2 8.5,-578.2"/>
<polygon fill="none" stroke="#000000" points="8.5,-578.2 8.5,-601.2 175.5,-601.2 175.5,-578.2 8.5,-578.2"/>
<text text-anchor="start" x="13.5" y="-586.8" font-family="Helvetica,sans-Serif" font-weight="bold" font-size="11.00" fill="#000000">users</text>
<text text-anchor="start" x="140.5437" y="-586.3" font-family="Helvetica,sans-Serif" font-size="11.00" fill="#000000">[table]</text>
<polygon fill="none" stroke="#000000" points="8.5,-556.2 8.5,-578.2 175.5,-578.2 175.5,-556.2 8.5,-556.2"/>
<image xlink:href="../../images/primaryKeys.png" width="11px" height="12px" preserveAspectRatio="xMinYMin meet" x="13.5" y="-573.2"/>
<text text-anchor="start" x="28.5" y="-563.3" font-family="Helvetica,sans-Serif" font-size="11.00" fill="#000000">id</text>
<polygon fill="#ffffff" stroke="transparent" points="8.5,-534.2 8.5,-556.2 175.5,-556.2 175.5,-534.2 8.5,-534.2"/>
<polygon fill="none" stroke="#000000" points="8.5,-534.2 8.5,-556.2 175.5,-556.2 175.5,-534.2 8.5,-534.2"/>
<text text-anchor="start" x="28.5" y="-541.3" font-family="Helvetica,sans-Serif" font-size="11.00" fill="#000000">uuid</text>
<polygon fill="none" stroke="#000000" points="8.5,-512.2 8.5,-534.2 175.5,-534.2 175.5,-512.2 8.5,-512.2"/>
<image xlink:href="../../images/primaryKeys.png" width="11px" height="12px" preserveAspectRatio="xMinYMin meet" x="13.5" y="-529.2"/>
<text text-anchor="start" x="28.5" y="-519.3" font-family="Helvetica,sans-Serif" font-size="11.00" fill="#000000">username</text>
<polygon fill="none" stroke="#000000" points="8.5,-490.2 8.5,-512.2 175.5,-512.2 175.5,-490.2 8.5,-490.2"/>
<image xlink:href="../../images/foreignKeys.png" width="11px" height="12px" preserveAspectRatio="xMinYMin meet" x="13.5" y="-507.2"/>
<text text-anchor="start" x="28.5" y="-497.3" font-family="Helvetica,sans-Serif" font-size="11.00" fill="#000000">facility_id</text>
<polygon fill="#ffffff" stroke="transparent" points="8.5,-468.2 8.5,-490.2 175.5,-490.2 175.5,-468.2 8.5,-468.2"/>
<polygon fill="none" stroke="#000000" points="8.5,-468.2 8.5,-490.2 175.5,-490.2 175.5,-468.2 8.5,-468.2"/>
<text text-anchor="start" x="28.5" y="-475.3" font-family="Helvetica,sans-Serif" font-size="11.00" fill="#000000">google_signin_email</text>
<polygon fill="#ffffff" stroke="transparent" points="8.5,-446.2 8.5,-468.2 175.5,-468.2 175.5,-446.2 8.5,-446.2"/>
<polygon fill="none" stroke="#000000" points="8.5,-446.2 8.5,-468.2 175.5,-468.2 175.5,-446.2 8.5,-446.2"/>
<text text-anchor="start" x="28.5" y="-453.3" font-family="Helvetica,sans-Serif" font-size="11.00" fill="#000000">abook_type</text>
<polygon fill="none" stroke="#000000" points="8.5,-424.2 8.5,-446.2 175.5,-446.2 175.5,-424.2 8.5,-424.2"/>
<image xlink:href="../../images/foreignKeys.png" width="11px" height="12px" preserveAspectRatio="xMinYMin meet" x="13.5" y="-441.2"/>
<text text-anchor="start" x="28.5" y="-431.3" font-family="Helvetica,sans-Serif" font-size="11.00" fill="#000000">billing_facility_id</text>
<polygon fill="none" stroke="#000000" points="8.5,-405.2 8.5,-424.2 175.5,-424.2 175.5,-405.2 8.5,-405.2"/>
<text text-anchor="start" x="11.5" y="-411.3" font-family="Helvetica,sans-Serif" font-size="11.00" fill="#000000">...</text>
<polygon fill="#ffffff" stroke="transparent" points="8.5,-386.2 8.5,-405.2 82.5,-405.2 82.5,-386.2 8.5,-386.2"/>
<polygon fill="none" stroke="#000000" points="8.5,-386.2 8.5,-405.2 82.5,-405.2 82.5,-386.2 8.5,-386.2"/>
<text text-anchor="start" x="11.5" y="-392.3" font-family="Helvetica,sans-Serif" font-size="11.00" fill="#000000">&lt; 2</text>
<polygon fill="#ffffff" stroke="transparent" points="82.5,-386.2 82.5,-405.2 121.5,-405.2 121.5,-386.2 82.5,-386.2"/>
<polygon fill="none" stroke="#000000" points="82.5,-386.2 82.5,-405.2 121.5,-405.2 121.5,-386.2 82.5,-386.2"/>
<text text-anchor="start" x="112.3862" y="-392.3" font-family="Helvetica,sans-Serif" font-size="11.00" fill="#000000"> &#160;</text>
<polygon fill="#ffffff" stroke="transparent" points="121.5,-386.2 121.5,-405.2 175.5,-405.2 175.5,-386.2 121.5,-386.2"/>
<polygon fill="none" stroke="#000000" points="121.5,-386.2 121.5,-405.2 175.5,-405.2 175.5,-386.2 121.5,-386.2"/>
<text text-anchor="start" x="150.7904" y="-392.3" font-family="Helvetica,sans-Serif" font-size="11.00" fill="#000000">61 &gt;</text>
</a>
</g>
</g>
<!-- form_questionnaire_assessments&#45;&gt;users -->
<g id="edge5" class="edge">
<title>form_questionnaire_assessments:w&#45;&gt;users:e</title>
<path fill="none" stroke="#000000" d="M717.5293,-311.8959C625.0462,-308.9154 257.3416,-285.7522 216,-320.2 145.3205,-379.0936 267.5003,-523.2 175.5,-523.2"/>
<polygon fill="#000000" stroke="#000000" points="724.0018,-312.0319 731.9244,-315.7992 728.0009,-312.1159 732,-312.2 732,-312.2 732,-312.2 728.0009,-312.1159 732.0756,-308.6008 724.0018,-312.0319 724.0018,-312.0319"/>
<ellipse fill="none" stroke="#000000" cx="720.8025" cy="-311.9646" rx="3.2" ry="3.2"/>
</g>
<!-- groups&#45;&gt;users -->
<g id="edge6" class="edge">
<title>groups:w&#45;&gt;users:e</title>
<path fill="none" stroke="#000000" d="M523.4878,-210.1294C384.9528,-208.8137 312.9002,-190.7524 216,-296.2 181.3286,-333.9298 226.741,-523.2 175.5,-523.2"/>
<polygon fill="#000000" stroke="#000000" points="530.0001,-210.161 537.9825,-213.8 534,-210.1805 538,-210.2 538,-210.2 538,-210.2 534,-210.1805 538.0175,-206.6 530.0001,-210.161 530.0001,-210.161"/>
<ellipse fill="none" stroke="#000000" cx="526.8001" cy="-210.1454" rx="3.2" ry="3.2"/>
</g>
<!-- patient_data&#45;&gt;users -->
<g id="edge7" class="edge">
<title>patient_data:w&#45;&gt;users:e</title>
<path fill="none" stroke="#000000" d="M230.7051,-623.0279C206.697,-610.773 210.3204,-567.2 175.5,-567.2"/>
<polygon fill="#000000" stroke="#000000" points="237.19,-624.4669 244.2201,-629.7145 241.095,-625.3334 245,-626.2 245,-626.2 245,-626.2 241.095,-625.3334 245.7799,-622.6855 237.19,-624.4669 237.19,-624.4669"/>
<ellipse fill="none" stroke="#000000" cx="234.066" cy="-623.7736" rx="3.2" ry="3.2"/>
</g>
<!-- patient_data&#45;&gt;users -->
<g id="edge8" class="edge">
<title>patient_data:w&#45;&gt;users:e</title>
<path fill="none" stroke="#000000" d="M230.6262,-689.3543C190.8119,-670.748 233.3543,-567.2 175.5,-567.2"/>
<polygon fill="#000000" stroke="#000000" points="237.1523,-690.6463 244.3008,-695.7315 241.0762,-691.4232 245,-692.2 245,-692.2 245,-692.2 241.0762,-691.4232 245.6992,-688.6685 237.1523,-690.6463 237.1523,-690.6463"/>
<ellipse fill="none" stroke="#000000" cx="234.0132" cy="-690.0248" rx="3.2" ry="3.2"/>
</g>
<!-- patient_data&#45;&gt;users -->
<g id="edge9" class="edge">
<title>patient_data:w&#45;&gt;users:e</title>
<path fill="none" stroke="#000000" d="M230.5104,-667.0045C197.3435,-649.6192 224.8999,-567.2 175.5,-567.2"/>
<polygon fill="#000000" stroke="#000000" points="237.1877,-668.477 244.2247,-673.7155 241.0939,-669.3385 245,-670.2 245,-670.2 245,-670.2 241.0939,-669.3385 245.7753,-666.6845 237.1877,-668.477 237.1877,-668.477"/>
<ellipse fill="none" stroke="#000000" cx="234.0628" cy="-667.7879" rx="3.2" ry="3.2"/>
</g>
<!-- patient_data&#45;&gt;users -->
<g id="edge10" class="edge">
<title>patient_data:w&#45;&gt;users:e</title>
<path fill="none" stroke="#000000" d="M230.6254,-601.6568C209.2524,-593.2975 204.8891,-567.2 175.5,-567.2"/>
<polygon fill="#000000" stroke="#000000" points="237.1223,-602.8062 244.3728,-607.7449 241.0612,-603.5031 245,-604.2 245,-604.2 245,-604.2 241.0612,-603.5031 245.6272,-600.6551 237.1223,-602.8062 237.1223,-602.8062"/>
<ellipse fill="none" stroke="#000000" cx="233.9713" cy="-602.2487" rx="3.2" ry="3.2"/>
</g>
<!-- questionnaire_response&#45;&gt;patient_data -->
<g id="edge13" class="edge">
<title>questionnaire_response:w&#45;&gt;patient_data:e</title>
<path fill="none" stroke="#000000" d="M466.7349,-459.2158C403.5059,-479.6287 496.7935,-648.2 412,-648.2"/>
<polygon fill="#000000" stroke="#000000" points="473.0787,-458.3194 481.5037,-460.7646 477.0393,-457.7597 481,-457.2 481,-457.2 481,-457.2 477.0393,-457.7597 480.4963,-453.6354 473.0787,-458.3194 473.0787,-458.3194"/>
<ellipse fill="none" stroke="#000000" cx="469.9102" cy="-458.7672" rx="3.2" ry="3.2"/>
</g>
<!-- questionnaire_response&#45;&gt;questionnaire_repository -->
<g id="edge14" class="edge">
<title>questionnaire_response:w&#45;&gt;questionnaire_repository:e</title>
<path fill="none" stroke="#000000" d="M467.1657,-518.5543C448.1949,-501.7624 466.8626,-445.2 432,-445.2"/>
<polygon fill="#000000" stroke="#000000" points="473.4162,-520.6533 479.854,-526.6127 477.2081,-521.9266 481,-523.2 481,-523.2 481,-523.2 477.2081,-521.9266 482.146,-519.7873 473.4162,-520.6533 473.4162,-520.6533"/>
<ellipse fill="none" stroke="#000000" cx="470.3827" cy="-519.6346" rx="3.2" ry="3.2"/>
</g>
<!-- questionnaire_response&#45;&gt;users -->
<g id="edge11" class="edge">
<title>questionnaire_response:w&#45;&gt;users:e</title>
<path fill="none" stroke="#000000" d="M466.897,-416.3194C442.6621,-430.363 473.4532,-488.1644 440,-514.2 360.6855,-575.928 311.479,-513.8169 216,-545.2 196.54,-551.5963 195.9843,-567.2 175.5,-567.2"/>
<polygon fill="#000000" stroke="#000000" points="473.1888,-414.9278 481.7775,-416.715 477.0944,-414.0639 481,-413.2 481,-413.2 481,-413.2 477.0944,-414.0639 480.2225,-409.685 473.1888,-414.9278 473.1888,-414.9278"/>
<ellipse fill="none" stroke="#000000" cx="470.0643" cy="-415.6189" rx="3.2" ry="3.2"/>
</g>
<!-- questionnaire_response&#45;&gt;users -->
<g id="edge12" class="edge">
<title>questionnaire_response:w&#45;&gt;users:e</title>
<path fill="none" stroke="#000000" d="M466.8098,-394.4683C443.5225,-408.6513 473.1593,-465.2708 440,-490.2 359.9303,-550.3965 303.4203,-466.2872 216,-515.2 190.4357,-529.5035 204.7937,-567.2 175.5,-567.2"/>
<polygon fill="#000000" stroke="#000000" points="473.2041,-392.9956 481.808,-394.7082 477.1021,-392.0978 481,-391.2 481,-391.2 481,-391.2 477.1021,-392.0978 480.192,-387.6918 473.2041,-392.9956 473.2041,-392.9956"/>
<ellipse fill="none" stroke="#000000" cx="470.0858" cy="-393.7139" rx="3.2" ry="3.2"/>
</g>
</g>
</svg>
