<?xml version="1.0" encoding="UTF-8" standalone="no"?>
<!DOCTYPE svg PUBLIC "-//W3C//DTD SVG 1.1//EN"
 "http://www.w3.org/Graphics/SVG/1.1/DTD/svg11.dtd">
<!-- Generated by graphviz version 2.40.1 (20161225.0304)
 -->
<!-- Title: oneDegreeRelationshipsDiagram Pages: 1 -->
<svg width="454pt" height="843pt"
 viewBox="0.00 0.00 454.00 842.70" xmlns="http://www.w3.org/2000/svg" xmlns:xlink="http://www.w3.org/1999/xlink">
<g id="graph0" class="graph" transform="scale(1 1) rotate(0) translate(4 838.7)">
<title>oneDegreeRelationshipsDiagram</title>
<polygon fill="#ffffff" stroke="transparent" points="-4,4 -4,-838.7 450,-838.7 450,4 -4,4"/>
<text text-anchor="middle" x="72.4936" y="-7.3" font-family="Helvetica,sans-Serif" font-size="11.00" fill="#000000">Generated by SchemaSpy</text>
<!-- form_eye_acuity -->
<g id="node1" class="node">
<title>form_eye_acuity</title>
<g id="a_node1"><a xlink:href="../../tables/form_eye_acuity.html" xlink:title="form_eye_acuity" target="_top">
<polygon fill="#ffffff" stroke="transparent" points="224,-38.2 224,-744.2 438,-744.2 438,-38.2 224,-38.2"/>
<polygon fill="#f5f5f5" stroke="transparent" points="226,-719.2 226,-742.2 436,-742.2 436,-719.2 226,-719.2"/>
<polygon fill="none" stroke="#000000" points="226,-719.2 226,-742.2 436,-742.2 436,-719.2 226,-719.2"/>
<text text-anchor="start" x="231" y="-727.8" font-family="Helvetica,sans-Serif" font-weight="bold" font-size="11.00" fill="#000000">form_eye_acuity</text>
<text text-anchor="start" x="401.0437" y="-727.3" font-family="Helvetica,sans-Serif" font-size="11.00" fill="#000000">[table]</text>
<polygon fill="none" stroke="#000000" points="226,-697.2 226,-719.2 369,-719.2 369,-697.2 226,-697.2"/>
<image xlink:href="../../images/primaryKeys.png" width="11px" height="12px" preserveAspectRatio="xMinYMin meet" x="231" y="-714.2"/>
<text text-anchor="start" x="246" y="-704.3" font-family="Helvetica,sans-Serif" font-size="11.00" fill="#000000">id</text>
<polygon fill="none" stroke="#000000" points="369,-697.2 369,-719.2 436,-719.2 436,-697.2 369,-697.2"/>
<text text-anchor="start" x="372" y="-704.9" font-family="Helvetica,sans-Serif" font-size="11.00" fill="#000000">bigint[19]</text>
<polygon fill="#ffffff" stroke="transparent" points="226,-675.2 226,-697.2 369,-697.2 369,-675.2 226,-675.2"/>
<polygon fill="none" stroke="#000000" points="226,-675.2 226,-697.2 369,-697.2 369,-675.2 226,-675.2"/>
<image xlink:href="../../images/foreignKeys.png" width="11px" height="12px" preserveAspectRatio="xMinYMin meet" x="231" y="-692.2"/>
<text text-anchor="start" x="246" y="-682.3" font-family="Helvetica,sans-Serif" font-size="11.00" fill="#000000">pid</text>
<polygon fill="none" stroke="#000000" points="369,-675.2 369,-697.2 436,-697.2 436,-675.2 369,-675.2"/>
<text text-anchor="start" x="372" y="-682.9" font-family="Helvetica,sans-Serif" font-size="11.00" fill="#000000">bigint[19]</text>
<polygon fill="none" stroke="#000000" points="226,-653.2 226,-675.2 369,-675.2 369,-653.2 226,-653.2"/>
<text text-anchor="start" x="246" y="-660.3" font-family="Helvetica,sans-Serif" font-size="11.00" fill="#000000">SCODVA</text>
<polygon fill="none" stroke="#000000" points="369,-653.2 369,-675.2 436,-675.2 436,-653.2 369,-653.2"/>
<text text-anchor="start" x="372" y="-660.9" font-family="Helvetica,sans-Serif" font-size="11.00" fill="#000000">varchar[25]</text>
<polygon fill="none" stroke="#000000" points="226,-631.2 226,-653.2 369,-653.2 369,-631.2 226,-631.2"/>
<text text-anchor="start" x="246" y="-638.3" font-family="Helvetica,sans-Serif" font-size="11.00" fill="#000000">SCOSVA</text>
<polygon fill="none" stroke="#000000" points="369,-631.2 369,-653.2 436,-653.2 436,-631.2 369,-631.2"/>
<text text-anchor="start" x="372" y="-638.9" font-family="Helvetica,sans-Serif" font-size="11.00" fill="#000000">varchar[25]</text>
<polygon fill="none" stroke="#000000" points="226,-609.2 226,-631.2 369,-631.2 369,-609.2 226,-609.2"/>
<text text-anchor="start" x="246" y="-616.3" font-family="Helvetica,sans-Serif" font-size="11.00" fill="#000000">PHODVA</text>
<polygon fill="none" stroke="#000000" points="369,-609.2 369,-631.2 436,-631.2 436,-609.2 369,-609.2"/>
<text text-anchor="start" x="372" y="-616.9" font-family="Helvetica,sans-Serif" font-size="11.00" fill="#000000">varchar[25]</text>
<polygon fill="none" stroke="#000000" points="226,-587.2 226,-609.2 369,-609.2 369,-587.2 226,-587.2"/>
<text text-anchor="start" x="246" y="-594.3" font-family="Helvetica,sans-Serif" font-size="11.00" fill="#000000">PHOSVA</text>
<polygon fill="none" stroke="#000000" points="369,-587.2 369,-609.2 436,-609.2 436,-587.2 369,-587.2"/>
<text text-anchor="start" x="372" y="-594.9" font-family="Helvetica,sans-Serif" font-size="11.00" fill="#000000">varchar[25]</text>
<polygon fill="none" stroke="#000000" points="226,-565.2 226,-587.2 369,-587.2 369,-565.2 226,-565.2"/>
<text text-anchor="start" x="246" y="-572.3" font-family="Helvetica,sans-Serif" font-size="11.00" fill="#000000">CTLODVA</text>
<polygon fill="none" stroke="#000000" points="369,-565.2 369,-587.2 436,-587.2 436,-565.2 369,-565.2"/>
<text text-anchor="start" x="372" y="-572.9" font-family="Helvetica,sans-Serif" font-size="11.00" fill="#000000">varchar[25]</text>
<polygon fill="none" stroke="#000000" points="226,-543.2 226,-565.2 369,-565.2 369,-543.2 226,-543.2"/>
<text text-anchor="start" x="246" y="-550.3" font-family="Helvetica,sans-Serif" font-size="11.00" fill="#000000">CTLOSVA</text>
<polygon fill="none" stroke="#000000" points="369,-543.2 369,-565.2 436,-565.2 436,-543.2 369,-543.2"/>
<text text-anchor="start" x="372" y="-550.9" font-family="Helvetica,sans-Serif" font-size="11.00" fill="#000000">varchar[25]</text>
<polygon fill="none" stroke="#000000" points="226,-521.2 226,-543.2 369,-543.2 369,-521.2 226,-521.2"/>
<text text-anchor="start" x="246" y="-528.3" font-family="Helvetica,sans-Serif" font-size="11.00" fill="#000000">MRODVA</text>
<polygon fill="none" stroke="#000000" points="369,-521.2 369,-543.2 436,-543.2 436,-521.2 369,-521.2"/>
<text text-anchor="start" x="372" y="-528.9" font-family="Helvetica,sans-Serif" font-size="11.00" fill="#000000">varchar[25]</text>
<polygon fill="none" stroke="#000000" points="226,-499.2 226,-521.2 369,-521.2 369,-499.2 226,-499.2"/>
<text text-anchor="start" x="246" y="-506.3" font-family="Helvetica,sans-Serif" font-size="11.00" fill="#000000">MROSVA</text>
<polygon fill="none" stroke="#000000" points="369,-499.2 369,-521.2 436,-521.2 436,-499.2 369,-499.2"/>
<text text-anchor="start" x="372" y="-506.9" font-family="Helvetica,sans-Serif" font-size="11.00" fill="#000000">varchar[25]</text>
<polygon fill="none" stroke="#000000" points="226,-477.2 226,-499.2 369,-499.2 369,-477.2 226,-477.2"/>
<text text-anchor="start" x="246" y="-484.3" font-family="Helvetica,sans-Serif" font-size="11.00" fill="#000000">SCNEARODVA</text>
<polygon fill="none" stroke="#000000" points="369,-477.2 369,-499.2 436,-499.2 436,-477.2 369,-477.2"/>
<text text-anchor="start" x="372" y="-484.9" font-family="Helvetica,sans-Serif" font-size="11.00" fill="#000000">varchar[25]</text>
<polygon fill="none" stroke="#000000" points="226,-455.2 226,-477.2 369,-477.2 369,-455.2 226,-455.2"/>
<text text-anchor="start" x="246" y="-462.3" font-family="Helvetica,sans-Serif" font-size="11.00" fill="#000000">SCNEAROSVA</text>
<polygon fill="none" stroke="#000000" points="369,-455.2 369,-477.2 436,-477.2 436,-455.2 369,-455.2"/>
<text text-anchor="start" x="372" y="-462.9" font-family="Helvetica,sans-Serif" font-size="11.00" fill="#000000">varchar[25]</text>
<polygon fill="none" stroke="#000000" points="226,-433.2 226,-455.2 369,-455.2 369,-433.2 226,-433.2"/>
<text text-anchor="start" x="246" y="-440.3" font-family="Helvetica,sans-Serif" font-size="11.00" fill="#000000">MRNEARODVA</text>
<polygon fill="none" stroke="#000000" points="369,-433.2 369,-455.2 436,-455.2 436,-433.2 369,-433.2"/>
<text text-anchor="start" x="372" y="-440.9" font-family="Helvetica,sans-Serif" font-size="11.00" fill="#000000">varchar[25]</text>
<polygon fill="none" stroke="#000000" points="226,-411.2 226,-433.2 369,-433.2 369,-411.2 226,-411.2"/>
<text text-anchor="start" x="246" y="-418.3" font-family="Helvetica,sans-Serif" font-size="11.00" fill="#000000">MRNEAROSVA</text>
<polygon fill="none" stroke="#000000" points="369,-411.2 369,-433.2 436,-433.2 436,-411.2 369,-411.2"/>
<text text-anchor="start" x="372" y="-418.9" font-family="Helvetica,sans-Serif" font-size="11.00" fill="#000000">varchar[25]</text>
<polygon fill="none" stroke="#000000" points="226,-389.2 226,-411.2 369,-411.2 369,-389.2 226,-389.2"/>
<text text-anchor="start" x="246" y="-396.3" font-family="Helvetica,sans-Serif" font-size="11.00" fill="#000000">GLAREODVA</text>
<polygon fill="none" stroke="#000000" points="369,-389.2 369,-411.2 436,-411.2 436,-389.2 369,-389.2"/>
<text text-anchor="start" x="372" y="-396.9" font-family="Helvetica,sans-Serif" font-size="11.00" fill="#000000">varchar[25]</text>
<polygon fill="none" stroke="#000000" points="226,-367.2 226,-389.2 369,-389.2 369,-367.2 226,-367.2"/>
<text text-anchor="start" x="246" y="-374.3" font-family="Helvetica,sans-Serif" font-size="11.00" fill="#000000">GLAREOSVA</text>
<polygon fill="none" stroke="#000000" points="369,-367.2 369,-389.2 436,-389.2 436,-367.2 369,-367.2"/>
<text text-anchor="start" x="372" y="-374.9" font-family="Helvetica,sans-Serif" font-size="11.00" fill="#000000">varchar[25]</text>
<polygon fill="none" stroke="#000000" points="226,-345.2 226,-367.2 369,-367.2 369,-345.2 226,-345.2"/>
<text text-anchor="start" x="246" y="-352.3" font-family="Helvetica,sans-Serif" font-size="11.00" fill="#000000">GLARECOMMENTS</text>
<polygon fill="none" stroke="#000000" points="369,-345.2 369,-367.2 436,-367.2 436,-345.2 369,-345.2"/>
<text text-anchor="start" x="371.9365" y="-352.9" font-family="Helvetica,sans-Serif" font-size="11.00" fill="#000000">varchar[255]</text>
<polygon fill="none" stroke="#000000" points="226,-323.2 226,-345.2 369,-345.2 369,-323.2 226,-323.2"/>
<text text-anchor="start" x="246" y="-330.3" font-family="Helvetica,sans-Serif" font-size="11.00" fill="#000000">ARODVA</text>
<polygon fill="none" stroke="#000000" points="369,-323.2 369,-345.2 436,-345.2 436,-323.2 369,-323.2"/>
<text text-anchor="start" x="372" y="-330.9" font-family="Helvetica,sans-Serif" font-size="11.00" fill="#000000">varchar[25]</text>
<polygon fill="none" stroke="#000000" points="226,-301.2 226,-323.2 369,-323.2 369,-301.2 226,-301.2"/>
<text text-anchor="start" x="246" y="-308.3" font-family="Helvetica,sans-Serif" font-size="11.00" fill="#000000">AROSVA</text>
<polygon fill="none" stroke="#000000" points="369,-301.2 369,-323.2 436,-323.2 436,-301.2 369,-301.2"/>
<text text-anchor="start" x="372" y="-308.9" font-family="Helvetica,sans-Serif" font-size="11.00" fill="#000000">varchar[25]</text>
<polygon fill="none" stroke="#000000" points="226,-279.2 226,-301.2 369,-301.2 369,-279.2 226,-279.2"/>
<text text-anchor="start" x="246" y="-286.3" font-family="Helvetica,sans-Serif" font-size="11.00" fill="#000000">CRODVA</text>
<polygon fill="none" stroke="#000000" points="369,-279.2 369,-301.2 436,-301.2 436,-279.2 369,-279.2"/>
<text text-anchor="start" x="372" y="-286.9" font-family="Helvetica,sans-Serif" font-size="11.00" fill="#000000">varchar[25]</text>
<polygon fill="none" stroke="#000000" points="226,-257.2 226,-279.2 369,-279.2 369,-257.2 226,-257.2"/>
<text text-anchor="start" x="246" y="-264.3" font-family="Helvetica,sans-Serif" font-size="11.00" fill="#000000">CROSVA</text>
<polygon fill="none" stroke="#000000" points="369,-257.2 369,-279.2 436,-279.2 436,-257.2 369,-257.2"/>
<text text-anchor="start" x="372" y="-264.9" font-family="Helvetica,sans-Serif" font-size="11.00" fill="#000000">varchar[25]</text>
<polygon fill="none" stroke="#000000" points="226,-235.2 226,-257.2 369,-257.2 369,-235.2 226,-235.2"/>
<text text-anchor="start" x="246" y="-242.3" font-family="Helvetica,sans-Serif" font-size="11.00" fill="#000000">CTLODVA1</text>
<polygon fill="none" stroke="#000000" points="369,-235.2 369,-257.2 436,-257.2 436,-235.2 369,-235.2"/>
<text text-anchor="start" x="372" y="-242.9" font-family="Helvetica,sans-Serif" font-size="11.00" fill="#000000">varchar[25]</text>
<polygon fill="none" stroke="#000000" points="226,-213.2 226,-235.2 369,-235.2 369,-213.2 226,-213.2"/>
<text text-anchor="start" x="246" y="-220.3" font-family="Helvetica,sans-Serif" font-size="11.00" fill="#000000">CTLOSVA1</text>
<polygon fill="none" stroke="#000000" points="369,-213.2 369,-235.2 436,-235.2 436,-213.2 369,-213.2"/>
<text text-anchor="start" x="372" y="-220.9" font-family="Helvetica,sans-Serif" font-size="11.00" fill="#000000">varchar[25]</text>
<polygon fill="none" stroke="#000000" points="226,-191.2 226,-213.2 369,-213.2 369,-191.2 226,-191.2"/>
<text text-anchor="start" x="246" y="-198.3" font-family="Helvetica,sans-Serif" font-size="11.00" fill="#000000">PAMODVA</text>
<polygon fill="none" stroke="#000000" points="369,-191.2 369,-213.2 436,-213.2 436,-191.2 369,-191.2"/>
<text text-anchor="start" x="372" y="-198.9" font-family="Helvetica,sans-Serif" font-size="11.00" fill="#000000">varchar[25]</text>
<polygon fill="none" stroke="#000000" points="226,-169.2 226,-191.2 369,-191.2 369,-169.2 226,-169.2"/>
<text text-anchor="start" x="246" y="-176.3" font-family="Helvetica,sans-Serif" font-size="11.00" fill="#000000">PAMOSVA</text>
<polygon fill="none" stroke="#000000" points="369,-169.2 369,-191.2 436,-191.2 436,-169.2 369,-169.2"/>
<text text-anchor="start" x="372" y="-176.9" font-family="Helvetica,sans-Serif" font-size="11.00" fill="#000000">varchar[25]</text>
<polygon fill="none" stroke="#000000" points="226,-147.2 226,-169.2 369,-169.2 369,-147.2 226,-147.2"/>
<text text-anchor="start" x="246" y="-154.3" font-family="Helvetica,sans-Serif" font-size="11.00" fill="#000000">LIODVA</text>
<polygon fill="none" stroke="#000000" points="369,-147.2 369,-169.2 436,-169.2 436,-147.2 369,-147.2"/>
<text text-anchor="start" x="372" y="-154.9" font-family="Helvetica,sans-Serif" font-size="11.00" fill="#000000">varchar[25]</text>
<polygon fill="none" stroke="#000000" points="226,-125.2 226,-147.2 369,-147.2 369,-125.2 226,-125.2"/>
<text text-anchor="start" x="246" y="-132.3" font-family="Helvetica,sans-Serif" font-size="11.00" fill="#000000">LIOSVA</text>
<polygon fill="none" stroke="#000000" points="369,-125.2 369,-147.2 436,-147.2 436,-125.2 369,-125.2"/>
<text text-anchor="start" x="372" y="-132.9" font-family="Helvetica,sans-Serif" font-size="11.00" fill="#000000">varchar[25]</text>
<polygon fill="none" stroke="#000000" points="226,-103.2 226,-125.2 369,-125.2 369,-103.2 226,-103.2"/>
<text text-anchor="start" x="246" y="-110.3" font-family="Helvetica,sans-Serif" font-size="11.00" fill="#000000">WODVANEAR</text>
<polygon fill="none" stroke="#000000" points="369,-103.2 369,-125.2 436,-125.2 436,-103.2 369,-103.2"/>
<text text-anchor="start" x="372" y="-110.9" font-family="Helvetica,sans-Serif" font-size="11.00" fill="#000000">varchar[25]</text>
<polygon fill="none" stroke="#000000" points="226,-81.2 226,-103.2 369,-103.2 369,-81.2 226,-81.2"/>
<text text-anchor="start" x="246" y="-88.3" font-family="Helvetica,sans-Serif" font-size="11.00" fill="#000000">OSVANEARCC</text>
<polygon fill="none" stroke="#000000" points="369,-81.2 369,-103.2 436,-103.2 436,-81.2 369,-81.2"/>
<text text-anchor="start" x="372" y="-88.9" font-family="Helvetica,sans-Serif" font-size="11.00" fill="#000000">varchar[25]</text>
<polygon fill="none" stroke="#000000" points="226,-59.2 226,-81.2 369,-81.2 369,-59.2 226,-59.2"/>
<text text-anchor="start" x="246" y="-66.3" font-family="Helvetica,sans-Serif" font-size="11.00" fill="#000000">BINOCVA</text>
<polygon fill="none" stroke="#000000" points="369,-59.2 369,-81.2 436,-81.2 436,-59.2 369,-59.2"/>
<text text-anchor="start" x="372" y="-66.9" font-family="Helvetica,sans-Serif" font-size="11.00" fill="#000000">varchar[25]</text>
<polygon fill="#ffffff" stroke="transparent" points="226,-40.2 226,-59.2 302,-59.2 302,-40.2 226,-40.2"/>
<polygon fill="none" stroke="#000000" points="226,-40.2 226,-59.2 302,-59.2 302,-40.2 226,-40.2"/>
<text text-anchor="start" x="229" y="-46.3" font-family="Helvetica,sans-Serif" font-size="11.00" fill="#000000">&lt; 1</text>
<polygon fill="#ffffff" stroke="transparent" points="302,-40.2 302,-59.2 369,-59.2 369,-40.2 302,-40.2"/>
<polygon fill="none" stroke="#000000" points="302,-40.2 302,-59.2 369,-59.2 369,-40.2 302,-40.2"/>
<text text-anchor="start" x="359.8862" y="-46.3" font-family="Helvetica,sans-Serif" font-size="11.00" fill="#000000"> &#160;</text>
<polygon fill="#ffffff" stroke="transparent" points="369,-40.2 369,-59.2 436,-59.2 436,-40.2 369,-40.2"/>
<polygon fill="none" stroke="#000000" points="369,-40.2 369,-59.2 436,-59.2 436,-40.2 369,-40.2"/>
<text text-anchor="start" x="417.4053" y="-46.3" font-family="Helvetica,sans-Serif" font-size="11.00" fill="#000000">0 &gt;</text>
<polygon fill="none" stroke="#000000" stroke-width="2" points="225,-39.2 225,-743.2 437,-743.2 437,-39.2 225,-39.2"/>
</a>
</g>
</g>
<!-- patient_data -->
<g id="node2" class="node">
<title>patient_data</title>
<g id="a_node2"><a xlink:href="../../tables/patient_data.html" xlink:title="patient_data" target="_top">
<polygon fill="#ffffff" stroke="transparent" points="8,-593.7 8,-830.7 175,-830.7 175,-593.7 8,-593.7"/>
<polygon fill="#f5f5f5" stroke="transparent" points="8.5,-807.2 8.5,-830.2 175.5,-830.2 175.5,-807.2 8.5,-807.2"/>
<polygon fill="none" stroke="#000000" points="8.5,-807.2 8.5,-830.2 175.5,-830.2 175.5,-807.2 8.5,-807.2"/>
<text text-anchor="start" x="13.5" y="-815.8" font-family="Helvetica,sans-Serif" font-weight="bold" font-size="11.00" fill="#000000">patient_data</text>
<text text-anchor="start" x="140.5437" y="-815.3" font-family="Helvetica,sans-Serif" font-size="11.00" fill="#000000">[table]</text>
<polygon fill="#ffffff" stroke="transparent" points="8.5,-785.2 8.5,-807.2 175.5,-807.2 175.5,-785.2 8.5,-785.2"/>
<polygon fill="none" stroke="#000000" points="8.5,-785.2 8.5,-807.2 175.5,-807.2 175.5,-785.2 8.5,-785.2"/>
<text text-anchor="start" x="28.5" y="-792.3" font-family="Helvetica,sans-Serif" font-size="11.00" fill="#000000">id</text>
<polygon fill="#ffffff" stroke="transparent" points="8.5,-763.2 8.5,-785.2 175.5,-785.2 175.5,-763.2 8.5,-763.2"/>
<polygon fill="none" stroke="#000000" points="8.5,-763.2 8.5,-785.2 175.5,-785.2 175.5,-763.2 8.5,-763.2"/>
<text text-anchor="start" x="28.5" y="-770.3" font-family="Helvetica,sans-Serif" font-size="11.00" fill="#000000">uuid</text>
<polygon fill="none" stroke="#000000" points="8.5,-741.2 8.5,-763.2 175.5,-763.2 175.5,-741.2 8.5,-741.2"/>
<image xlink:href="../../images/foreignKeys.png" width="11px" height="12px" preserveAspectRatio="xMinYMin meet" x="13.5" y="-758.2"/>
<text text-anchor="start" x="28.5" y="-748.3" font-family="Helvetica,sans-Serif" font-size="11.00" fill="#000000">pharmacy_id</text>
<polygon fill="none" stroke="#000000" points="8.5,-719.2 8.5,-741.2 175.5,-741.2 175.5,-719.2 8.5,-719.2"/>
<image xlink:href="../../images/foreignKeys.png" width="11px" height="12px" preserveAspectRatio="xMinYMin meet" x="13.5" y="-736.2"/>
<text text-anchor="start" x="28.5" y="-726.3" font-family="Helvetica,sans-Serif" font-size="11.00" fill="#000000">providerID</text>
<polygon fill="none" stroke="#000000" points="8.5,-697.2 8.5,-719.2 175.5,-719.2 175.5,-697.2 8.5,-697.2"/>
<image xlink:href="../../images/foreignKeys.png" width="11px" height="12px" preserveAspectRatio="xMinYMin meet" x="13.5" y="-714.2"/>
<text text-anchor="start" x="28.5" y="-704.3" font-family="Helvetica,sans-Serif" font-size="11.00" fill="#000000">ref_providerID</text>
<polygon fill="none" stroke="#000000" points="8.5,-675.2 8.5,-697.2 175.5,-697.2 175.5,-675.2 8.5,-675.2"/>
<image xlink:href="../../images/primaryKeys.png" width="11px" height="12px" preserveAspectRatio="xMinYMin meet" x="13.5" y="-692.2"/>
<text text-anchor="start" x="28.5" y="-682.3" font-family="Helvetica,sans-Serif" font-size="11.00" fill="#000000">pid</text>
<polygon fill="none" stroke="#000000" points="8.5,-653.2 8.5,-675.2 175.5,-675.2 175.5,-653.2 8.5,-653.2"/>
<image xlink:href="../../images/foreignKeys.png" width="11px" height="12px" preserveAspectRatio="xMinYMin meet" x="13.5" y="-670.2"/>
<text text-anchor="start" x="28.5" y="-660.3" font-family="Helvetica,sans-Serif" font-size="11.00" fill="#000000">created_by</text>
<polygon fill="none" stroke="#000000" points="8.5,-631.2 8.5,-653.2 175.5,-653.2 175.5,-631.2 8.5,-631.2"/>
<image xlink:href="../../images/foreignKeys.png" width="11px" height="12px" preserveAspectRatio="xMinYMin meet" x="13.5" y="-648.2"/>
<text text-anchor="start" x="28.5" y="-638.3" font-family="Helvetica,sans-Serif" font-size="11.00" fill="#000000">updated_by</text>
<polygon fill="none" stroke="#000000" points="8.5,-612.2 8.5,-631.2 175.5,-631.2 175.5,-612.2 8.5,-612.2"/>
<text text-anchor="start" x="11.5" y="-618.3" font-family="Helvetica,sans-Serif" font-size="11.00" fill="#000000">...</text>
<polygon fill="#ffffff" stroke="transparent" points="8.5,-593.2 8.5,-612.2 82.5,-612.2 82.5,-593.2 8.5,-593.2"/>
<polygon fill="none" stroke="#000000" points="8.5,-593.2 8.5,-612.2 82.5,-612.2 82.5,-593.2 8.5,-593.2"/>
<text text-anchor="start" x="11.5" y="-599.3" font-family="Helvetica,sans-Serif" font-size="11.00" fill="#000000">&lt; 5</text>
<polygon fill="#ffffff" stroke="transparent" points="82.5,-593.2 82.5,-612.2 121.5,-612.2 121.5,-593.2 82.5,-593.2"/>
<polygon fill="none" stroke="#000000" points="82.5,-593.2 82.5,-612.2 121.5,-612.2 121.5,-593.2 82.5,-593.2"/>
<text text-anchor="start" x="112.3862" y="-599.3" font-family="Helvetica,sans-Serif" font-size="11.00" fill="#000000"> &#160;</text>
<polygon fill="#ffffff" stroke="transparent" points="121.5,-593.2 121.5,-612.2 175.5,-612.2 175.5,-593.2 121.5,-593.2"/>
<polygon fill="none" stroke="#000000" points="121.5,-593.2 121.5,-612.2 175.5,-612.2 175.5,-593.2 121.5,-593.2"/>
<text text-anchor="start" x="150.7904" y="-599.3" font-family="Helvetica,sans-Serif" font-size="11.00" fill="#000000">85 &gt;</text>
</a>
</g>
</g>
<!-- form_eye_acuity&#45;&gt;patient_data -->
<g id="edge1" class="edge">
<title>form_eye_acuity:w&#45;&gt;patient_data:e</title>
<path fill="none" stroke="#000000" d="M211.4203,-686.2C199.5435,-686.2 192.158,-686.2 175.5,-686.2"/>
<polygon fill="#000000" stroke="#000000" points="218,-686.2001 226,-689.8 222,-686.2 226,-686.2 226,-686.2 226,-686.2 222,-686.2 226,-682.6 218,-686.2001 218,-686.2001"/>
<ellipse fill="none" stroke="#000000" cx="214.8" cy="-686.2001" rx="3.2" ry="3.2"/>
</g>
</g>
</svg>
