<?xml version="1.0" encoding="UTF-8" standalone="no"?>
<!DOCTYPE svg PUBLIC "-//W3C//DTD SVG 1.1//EN"
 "http://www.w3.org/Graphics/SVG/1.1/DTD/svg11.dtd">
<!-- Generated by graphviz version 2.40.1 (20161225.0304)
 -->
<!-- Title: oneDegreeRelationshipsDiagram Pages: 1 -->
<svg width="494pt" height="1019pt"
 viewBox="0.00 0.00 494.00 1018.70" xmlns="http://www.w3.org/2000/svg" xmlns:xlink="http://www.w3.org/1999/xlink">
<g id="graph0" class="graph" transform="scale(1 1) rotate(0) translate(4 1014.7)">
<title>oneDegreeRelationshipsDiagram</title>
<polygon fill="#ffffff" stroke="transparent" points="-4,4 -4,-1014.7 490,-1014.7 490,4 -4,4"/>
<text text-anchor="middle" x="72.4936" y="-7.3" font-family="Helvetica,sans-Serif" font-size="11.00" fill="#000000">Generated by SchemaSpy</text>
<!-- form_eye_hpi -->
<g id="node1" class="node">
<title>form_eye_hpi</title>
<g id="a_node1"><a xlink:href="../../tables/form_eye_hpi.html" xlink:title="form_eye_hpi" target="_top">
<polygon fill="#ffffff" stroke="transparent" points="305,-38.2 305,-854.2 478,-854.2 478,-38.2 305,-38.2"/>
<polygon fill="#f5f5f5" stroke="transparent" points="307.5,-829.2 307.5,-852.2 476.5,-852.2 476.5,-829.2 307.5,-829.2"/>
<polygon fill="none" stroke="#000000" points="307.5,-829.2 307.5,-852.2 476.5,-852.2 476.5,-829.2 307.5,-829.2"/>
<text text-anchor="start" x="312.5" y="-837.8" font-family="Helvetica,sans-Serif" font-weight="bold" font-size="11.00" fill="#000000">form_eye_hpi</text>
<text text-anchor="start" x="441.5437" y="-837.3" font-family="Helvetica,sans-Serif" font-size="11.00" fill="#000000">[table]</text>
<polygon fill="none" stroke="#000000" points="307.5,-807.2 307.5,-829.2 409.5,-829.2 409.5,-807.2 307.5,-807.2"/>
<image xlink:href="../../images/primaryKeys.png" width="11px" height="12px" preserveAspectRatio="xMinYMin meet" x="312.5" y="-824.2"/>
<text text-anchor="start" x="327.5" y="-814.3" font-family="Helvetica,sans-Serif" font-size="11.00" fill="#000000">id</text>
<polygon fill="none" stroke="#000000" points="409.5,-807.2 409.5,-829.2 476.5,-829.2 476.5,-807.2 409.5,-807.2"/>
<text text-anchor="start" x="412.5" y="-814.9" font-family="Helvetica,sans-Serif" font-size="11.00" fill="#000000">bigint[19]</text>
<polygon fill="#ffffff" stroke="transparent" points="307.5,-785.2 307.5,-807.2 409.5,-807.2 409.5,-785.2 307.5,-785.2"/>
<polygon fill="none" stroke="#000000" points="307.5,-785.2 307.5,-807.2 409.5,-807.2 409.5,-785.2 307.5,-785.2"/>
<image xlink:href="../../images/foreignKeys.png" width="11px" height="12px" preserveAspectRatio="xMinYMin meet" x="312.5" y="-802.2"/>
<text text-anchor="start" x="327.5" y="-792.3" font-family="Helvetica,sans-Serif" font-size="11.00" fill="#000000">pid</text>
<polygon fill="none" stroke="#000000" points="409.5,-785.2 409.5,-807.2 476.5,-807.2 476.5,-785.2 409.5,-785.2"/>
<text text-anchor="start" x="412.5" y="-792.9" font-family="Helvetica,sans-Serif" font-size="11.00" fill="#000000">bigint[19]</text>
<polygon fill="none" stroke="#000000" points="307.5,-763.2 307.5,-785.2 409.5,-785.2 409.5,-763.2 307.5,-763.2"/>
<text text-anchor="start" x="327.5" y="-770.3" font-family="Helvetica,sans-Serif" font-size="11.00" fill="#000000">CC1</text>
<polygon fill="none" stroke="#000000" points="409.5,-763.2 409.5,-785.2 476.5,-785.2 476.5,-763.2 409.5,-763.2"/>
<text text-anchor="start" x="412.4365" y="-770.9" font-family="Helvetica,sans-Serif" font-size="11.00" fill="#000000">varchar[255]</text>
<polygon fill="none" stroke="#000000" points="307.5,-741.2 307.5,-763.2 409.5,-763.2 409.5,-741.2 307.5,-741.2"/>
<text text-anchor="start" x="327.5" y="-748.3" font-family="Helvetica,sans-Serif" font-size="11.00" fill="#000000">HPI1</text>
<polygon fill="none" stroke="#000000" points="409.5,-741.2 409.5,-763.2 476.5,-763.2 476.5,-741.2 409.5,-741.2"/>
<text text-anchor="start" x="412.5" y="-748.9" font-family="Helvetica,sans-Serif" font-size="11.00" fill="#000000">text[65535]</text>
<polygon fill="none" stroke="#000000" points="307.5,-719.2 307.5,-741.2 409.5,-741.2 409.5,-719.2 307.5,-719.2"/>
<text text-anchor="start" x="327.5" y="-726.3" font-family="Helvetica,sans-Serif" font-size="11.00" fill="#000000">QUALITY1</text>
<polygon fill="none" stroke="#000000" points="409.5,-719.2 409.5,-741.2 476.5,-741.2 476.5,-719.2 409.5,-719.2"/>
<text text-anchor="start" x="412.4365" y="-726.9" font-family="Helvetica,sans-Serif" font-size="11.00" fill="#000000">varchar[255]</text>
<polygon fill="none" stroke="#000000" points="307.5,-697.2 307.5,-719.2 409.5,-719.2 409.5,-697.2 307.5,-697.2"/>
<text text-anchor="start" x="327.5" y="-704.3" font-family="Helvetica,sans-Serif" font-size="11.00" fill="#000000">TIMING1</text>
<polygon fill="none" stroke="#000000" points="409.5,-697.2 409.5,-719.2 476.5,-719.2 476.5,-697.2 409.5,-697.2"/>
<text text-anchor="start" x="412.4365" y="-704.9" font-family="Helvetica,sans-Serif" font-size="11.00" fill="#000000">varchar[255]</text>
<polygon fill="none" stroke="#000000" points="307.5,-675.2 307.5,-697.2 409.5,-697.2 409.5,-675.2 307.5,-675.2"/>
<text text-anchor="start" x="327.5" y="-682.3" font-family="Helvetica,sans-Serif" font-size="11.00" fill="#000000">DURATION1</text>
<polygon fill="none" stroke="#000000" points="409.5,-675.2 409.5,-697.2 476.5,-697.2 476.5,-675.2 409.5,-675.2"/>
<text text-anchor="start" x="412.4365" y="-682.9" font-family="Helvetica,sans-Serif" font-size="11.00" fill="#000000">varchar[255]</text>
<polygon fill="none" stroke="#000000" points="307.5,-653.2 307.5,-675.2 409.5,-675.2 409.5,-653.2 307.5,-653.2"/>
<text text-anchor="start" x="327.5" y="-660.3" font-family="Helvetica,sans-Serif" font-size="11.00" fill="#000000">CONTEXT1</text>
<polygon fill="none" stroke="#000000" points="409.5,-653.2 409.5,-675.2 476.5,-675.2 476.5,-653.2 409.5,-653.2"/>
<text text-anchor="start" x="412.4365" y="-660.9" font-family="Helvetica,sans-Serif" font-size="11.00" fill="#000000">varchar[255]</text>
<polygon fill="none" stroke="#000000" points="307.5,-631.2 307.5,-653.2 409.5,-653.2 409.5,-631.2 307.5,-631.2"/>
<text text-anchor="start" x="327.5" y="-638.3" font-family="Helvetica,sans-Serif" font-size="11.00" fill="#000000">SEVERITY1</text>
<polygon fill="none" stroke="#000000" points="409.5,-631.2 409.5,-653.2 476.5,-653.2 476.5,-631.2 409.5,-631.2"/>
<text text-anchor="start" x="412.4365" y="-638.9" font-family="Helvetica,sans-Serif" font-size="11.00" fill="#000000">varchar[255]</text>
<polygon fill="none" stroke="#000000" points="307.5,-609.2 307.5,-631.2 409.5,-631.2 409.5,-609.2 307.5,-609.2"/>
<text text-anchor="start" x="327.5" y="-616.3" font-family="Helvetica,sans-Serif" font-size="11.00" fill="#000000">MODIFY1</text>
<polygon fill="none" stroke="#000000" points="409.5,-609.2 409.5,-631.2 476.5,-631.2 476.5,-609.2 409.5,-609.2"/>
<text text-anchor="start" x="412.4365" y="-616.9" font-family="Helvetica,sans-Serif" font-size="11.00" fill="#000000">varchar[255]</text>
<polygon fill="none" stroke="#000000" points="307.5,-587.2 307.5,-609.2 409.5,-609.2 409.5,-587.2 307.5,-587.2"/>
<text text-anchor="start" x="327.4951" y="-594.3" font-family="Helvetica,sans-Serif" font-size="11.00" fill="#000000">ASSOCIATED1</text>
<polygon fill="none" stroke="#000000" points="409.5,-587.2 409.5,-609.2 476.5,-609.2 476.5,-587.2 409.5,-587.2"/>
<text text-anchor="start" x="412.4365" y="-594.9" font-family="Helvetica,sans-Serif" font-size="11.00" fill="#000000">varchar[255]</text>
<polygon fill="none" stroke="#000000" points="307.5,-565.2 307.5,-587.2 409.5,-587.2 409.5,-565.2 307.5,-565.2"/>
<text text-anchor="start" x="327.5" y="-572.3" font-family="Helvetica,sans-Serif" font-size="11.00" fill="#000000">LOCATION1</text>
<polygon fill="none" stroke="#000000" points="409.5,-565.2 409.5,-587.2 476.5,-587.2 476.5,-565.2 409.5,-565.2"/>
<text text-anchor="start" x="412.4365" y="-572.9" font-family="Helvetica,sans-Serif" font-size="11.00" fill="#000000">varchar[255]</text>
<polygon fill="none" stroke="#000000" points="307.5,-543.2 307.5,-565.2 409.5,-565.2 409.5,-543.2 307.5,-543.2"/>
<text text-anchor="start" x="327.5" y="-550.3" font-family="Helvetica,sans-Serif" font-size="11.00" fill="#000000">CHRONIC1</text>
<polygon fill="none" stroke="#000000" points="409.5,-543.2 409.5,-565.2 476.5,-565.2 476.5,-543.2 409.5,-543.2"/>
<text text-anchor="start" x="412.4365" y="-550.9" font-family="Helvetica,sans-Serif" font-size="11.00" fill="#000000">varchar[255]</text>
<polygon fill="none" stroke="#000000" points="307.5,-521.2 307.5,-543.2 409.5,-543.2 409.5,-521.2 307.5,-521.2"/>
<text text-anchor="start" x="327.5" y="-528.3" font-family="Helvetica,sans-Serif" font-size="11.00" fill="#000000">CHRONIC2</text>
<polygon fill="none" stroke="#000000" points="409.5,-521.2 409.5,-543.2 476.5,-543.2 476.5,-521.2 409.5,-521.2"/>
<text text-anchor="start" x="412.4365" y="-528.9" font-family="Helvetica,sans-Serif" font-size="11.00" fill="#000000">varchar[255]</text>
<polygon fill="none" stroke="#000000" points="307.5,-499.2 307.5,-521.2 409.5,-521.2 409.5,-499.2 307.5,-499.2"/>
<text text-anchor="start" x="327.5" y="-506.3" font-family="Helvetica,sans-Serif" font-size="11.00" fill="#000000">CHRONIC3</text>
<polygon fill="none" stroke="#000000" points="409.5,-499.2 409.5,-521.2 476.5,-521.2 476.5,-499.2 409.5,-499.2"/>
<text text-anchor="start" x="412.4365" y="-506.9" font-family="Helvetica,sans-Serif" font-size="11.00" fill="#000000">varchar[255]</text>
<polygon fill="none" stroke="#000000" points="307.5,-477.2 307.5,-499.2 409.5,-499.2 409.5,-477.2 307.5,-477.2"/>
<text text-anchor="start" x="327.5" y="-484.3" font-family="Helvetica,sans-Serif" font-size="11.00" fill="#000000">CC2</text>
<polygon fill="none" stroke="#000000" points="409.5,-477.2 409.5,-499.2 476.5,-499.2 476.5,-477.2 409.5,-477.2"/>
<text text-anchor="start" x="412.5" y="-484.9" font-family="Helvetica,sans-Serif" font-size="11.00" fill="#000000">text[65535]</text>
<polygon fill="none" stroke="#000000" points="307.5,-455.2 307.5,-477.2 409.5,-477.2 409.5,-455.2 307.5,-455.2"/>
<text text-anchor="start" x="327.5" y="-462.3" font-family="Helvetica,sans-Serif" font-size="11.00" fill="#000000">HPI2</text>
<polygon fill="none" stroke="#000000" points="409.5,-455.2 409.5,-477.2 476.5,-477.2 476.5,-455.2 409.5,-455.2"/>
<text text-anchor="start" x="412.5" y="-462.9" font-family="Helvetica,sans-Serif" font-size="11.00" fill="#000000">text[65535]</text>
<polygon fill="none" stroke="#000000" points="307.5,-433.2 307.5,-455.2 409.5,-455.2 409.5,-433.2 307.5,-433.2"/>
<text text-anchor="start" x="327.5" y="-440.3" font-family="Helvetica,sans-Serif" font-size="11.00" fill="#000000">QUALITY2</text>
<polygon fill="none" stroke="#000000" points="409.5,-433.2 409.5,-455.2 476.5,-455.2 476.5,-433.2 409.5,-433.2"/>
<text text-anchor="start" x="412.5" y="-440.9" font-family="Helvetica,sans-Serif" font-size="11.00" fill="#000000">text[65535]</text>
<polygon fill="none" stroke="#000000" points="307.5,-411.2 307.5,-433.2 409.5,-433.2 409.5,-411.2 307.5,-411.2"/>
<text text-anchor="start" x="327.5" y="-418.3" font-family="Helvetica,sans-Serif" font-size="11.00" fill="#000000">TIMING2</text>
<polygon fill="none" stroke="#000000" points="409.5,-411.2 409.5,-433.2 476.5,-433.2 476.5,-411.2 409.5,-411.2"/>
<text text-anchor="start" x="412.5" y="-418.9" font-family="Helvetica,sans-Serif" font-size="11.00" fill="#000000">text[65535]</text>
<polygon fill="none" stroke="#000000" points="307.5,-389.2 307.5,-411.2 409.5,-411.2 409.5,-389.2 307.5,-389.2"/>
<text text-anchor="start" x="327.5" y="-396.3" font-family="Helvetica,sans-Serif" font-size="11.00" fill="#000000">DURATION2</text>
<polygon fill="none" stroke="#000000" points="409.5,-389.2 409.5,-411.2 476.5,-411.2 476.5,-389.2 409.5,-389.2"/>
<text text-anchor="start" x="412.5" y="-396.9" font-family="Helvetica,sans-Serif" font-size="11.00" fill="#000000">text[65535]</text>
<polygon fill="none" stroke="#000000" points="307.5,-367.2 307.5,-389.2 409.5,-389.2 409.5,-367.2 307.5,-367.2"/>
<text text-anchor="start" x="327.5" y="-374.3" font-family="Helvetica,sans-Serif" font-size="11.00" fill="#000000">CONTEXT2</text>
<polygon fill="none" stroke="#000000" points="409.5,-367.2 409.5,-389.2 476.5,-389.2 476.5,-367.2 409.5,-367.2"/>
<text text-anchor="start" x="412.5" y="-374.9" font-family="Helvetica,sans-Serif" font-size="11.00" fill="#000000">text[65535]</text>
<polygon fill="none" stroke="#000000" points="307.5,-345.2 307.5,-367.2 409.5,-367.2 409.5,-345.2 307.5,-345.2"/>
<text text-anchor="start" x="327.5" y="-352.3" font-family="Helvetica,sans-Serif" font-size="11.00" fill="#000000">SEVERITY2</text>
<polygon fill="none" stroke="#000000" points="409.5,-345.2 409.5,-367.2 476.5,-367.2 476.5,-345.2 409.5,-345.2"/>
<text text-anchor="start" x="412.5" y="-352.9" font-family="Helvetica,sans-Serif" font-size="11.00" fill="#000000">text[65535]</text>
<polygon fill="none" stroke="#000000" points="307.5,-323.2 307.5,-345.2 409.5,-345.2 409.5,-323.2 307.5,-323.2"/>
<text text-anchor="start" x="327.5" y="-330.3" font-family="Helvetica,sans-Serif" font-size="11.00" fill="#000000">MODIFY2</text>
<polygon fill="none" stroke="#000000" points="409.5,-323.2 409.5,-345.2 476.5,-345.2 476.5,-323.2 409.5,-323.2"/>
<text text-anchor="start" x="412.5" y="-330.9" font-family="Helvetica,sans-Serif" font-size="11.00" fill="#000000">text[65535]</text>
<polygon fill="none" stroke="#000000" points="307.5,-301.2 307.5,-323.2 409.5,-323.2 409.5,-301.2 307.5,-301.2"/>
<text text-anchor="start" x="327.4951" y="-308.3" font-family="Helvetica,sans-Serif" font-size="11.00" fill="#000000">ASSOCIATED2</text>
<polygon fill="none" stroke="#000000" points="409.5,-301.2 409.5,-323.2 476.5,-323.2 476.5,-301.2 409.5,-301.2"/>
<text text-anchor="start" x="412.5" y="-308.9" font-family="Helvetica,sans-Serif" font-size="11.00" fill="#000000">text[65535]</text>
<polygon fill="none" stroke="#000000" points="307.5,-279.2 307.5,-301.2 409.5,-301.2 409.5,-279.2 307.5,-279.2"/>
<text text-anchor="start" x="327.5" y="-286.3" font-family="Helvetica,sans-Serif" font-size="11.00" fill="#000000">LOCATION2</text>
<polygon fill="none" stroke="#000000" points="409.5,-279.2 409.5,-301.2 476.5,-301.2 476.5,-279.2 409.5,-279.2"/>
<text text-anchor="start" x="412.5" y="-286.9" font-family="Helvetica,sans-Serif" font-size="11.00" fill="#000000">text[65535]</text>
<polygon fill="none" stroke="#000000" points="307.5,-257.2 307.5,-279.2 409.5,-279.2 409.5,-257.2 307.5,-257.2"/>
<text text-anchor="start" x="327.5" y="-264.3" font-family="Helvetica,sans-Serif" font-size="11.00" fill="#000000">CC3</text>
<polygon fill="none" stroke="#000000" points="409.5,-257.2 409.5,-279.2 476.5,-279.2 476.5,-257.2 409.5,-257.2"/>
<text text-anchor="start" x="412.5" y="-264.9" font-family="Helvetica,sans-Serif" font-size="11.00" fill="#000000">text[65535]</text>
<polygon fill="none" stroke="#000000" points="307.5,-235.2 307.5,-257.2 409.5,-257.2 409.5,-235.2 307.5,-235.2"/>
<text text-anchor="start" x="327.5" y="-242.3" font-family="Helvetica,sans-Serif" font-size="11.00" fill="#000000">HPI3</text>
<polygon fill="none" stroke="#000000" points="409.5,-235.2 409.5,-257.2 476.5,-257.2 476.5,-235.2 409.5,-235.2"/>
<text text-anchor="start" x="412.5" y="-242.9" font-family="Helvetica,sans-Serif" font-size="11.00" fill="#000000">text[65535]</text>
<polygon fill="none" stroke="#000000" points="307.5,-213.2 307.5,-235.2 409.5,-235.2 409.5,-213.2 307.5,-213.2"/>
<text text-anchor="start" x="327.5" y="-220.3" font-family="Helvetica,sans-Serif" font-size="11.00" fill="#000000">QUALITY3</text>
<polygon fill="none" stroke="#000000" points="409.5,-213.2 409.5,-235.2 476.5,-235.2 476.5,-213.2 409.5,-213.2"/>
<text text-anchor="start" x="412.5" y="-220.9" font-family="Helvetica,sans-Serif" font-size="11.00" fill="#000000">text[65535]</text>
<polygon fill="none" stroke="#000000" points="307.5,-191.2 307.5,-213.2 409.5,-213.2 409.5,-191.2 307.5,-191.2"/>
<text text-anchor="start" x="327.5" y="-198.3" font-family="Helvetica,sans-Serif" font-size="11.00" fill="#000000">TIMING3</text>
<polygon fill="none" stroke="#000000" points="409.5,-191.2 409.5,-213.2 476.5,-213.2 476.5,-191.2 409.5,-191.2"/>
<text text-anchor="start" x="412.5" y="-198.9" font-family="Helvetica,sans-Serif" font-size="11.00" fill="#000000">text[65535]</text>
<polygon fill="none" stroke="#000000" points="307.5,-169.2 307.5,-191.2 409.5,-191.2 409.5,-169.2 307.5,-169.2"/>
<text text-anchor="start" x="327.5" y="-176.3" font-family="Helvetica,sans-Serif" font-size="11.00" fill="#000000">DURATION3</text>
<polygon fill="none" stroke="#000000" points="409.5,-169.2 409.5,-191.2 476.5,-191.2 476.5,-169.2 409.5,-169.2"/>
<text text-anchor="start" x="412.5" y="-176.9" font-family="Helvetica,sans-Serif" font-size="11.00" fill="#000000">text[65535]</text>
<polygon fill="none" stroke="#000000" points="307.5,-147.2 307.5,-169.2 409.5,-169.2 409.5,-147.2 307.5,-147.2"/>
<text text-anchor="start" x="327.5" y="-154.3" font-family="Helvetica,sans-Serif" font-size="11.00" fill="#000000">CONTEXT3</text>
<polygon fill="none" stroke="#000000" points="409.5,-147.2 409.5,-169.2 476.5,-169.2 476.5,-147.2 409.5,-147.2"/>
<text text-anchor="start" x="412.5" y="-154.9" font-family="Helvetica,sans-Serif" font-size="11.00" fill="#000000">text[65535]</text>
<polygon fill="none" stroke="#000000" points="307.5,-125.2 307.5,-147.2 409.5,-147.2 409.5,-125.2 307.5,-125.2"/>
<text text-anchor="start" x="327.5" y="-132.3" font-family="Helvetica,sans-Serif" font-size="11.00" fill="#000000">SEVERITY3</text>
<polygon fill="none" stroke="#000000" points="409.5,-125.2 409.5,-147.2 476.5,-147.2 476.5,-125.2 409.5,-125.2"/>
<text text-anchor="start" x="412.5" y="-132.9" font-family="Helvetica,sans-Serif" font-size="11.00" fill="#000000">text[65535]</text>
<polygon fill="none" stroke="#000000" points="307.5,-103.2 307.5,-125.2 409.5,-125.2 409.5,-103.2 307.5,-103.2"/>
<text text-anchor="start" x="327.5" y="-110.3" font-family="Helvetica,sans-Serif" font-size="11.00" fill="#000000">MODIFY3</text>
<polygon fill="none" stroke="#000000" points="409.5,-103.2 409.5,-125.2 476.5,-125.2 476.5,-103.2 409.5,-103.2"/>
<text text-anchor="start" x="412.5" y="-110.9" font-family="Helvetica,sans-Serif" font-size="11.00" fill="#000000">text[65535]</text>
<polygon fill="none" stroke="#000000" points="307.5,-81.2 307.5,-103.2 409.5,-103.2 409.5,-81.2 307.5,-81.2"/>
<text text-anchor="start" x="327.4951" y="-88.3" font-family="Helvetica,sans-Serif" font-size="11.00" fill="#000000">ASSOCIATED3</text>
<polygon fill="none" stroke="#000000" points="409.5,-81.2 409.5,-103.2 476.5,-103.2 476.5,-81.2 409.5,-81.2"/>
<text text-anchor="start" x="412.5" y="-88.9" font-family="Helvetica,sans-Serif" font-size="11.00" fill="#000000">text[65535]</text>
<polygon fill="none" stroke="#000000" points="307.5,-59.2 307.5,-81.2 409.5,-81.2 409.5,-59.2 307.5,-59.2"/>
<text text-anchor="start" x="327.5" y="-66.3" font-family="Helvetica,sans-Serif" font-size="11.00" fill="#000000">LOCATION3</text>
<polygon fill="none" stroke="#000000" points="409.5,-59.2 409.5,-81.2 476.5,-81.2 476.5,-59.2 409.5,-59.2"/>
<text text-anchor="start" x="412.5" y="-66.9" font-family="Helvetica,sans-Serif" font-size="11.00" fill="#000000">text[65535]</text>
<polygon fill="#ffffff" stroke="transparent" points="307.5,-40.2 307.5,-59.2 362.5,-59.2 362.5,-40.2 307.5,-40.2"/>
<polygon fill="none" stroke="#000000" points="307.5,-40.2 307.5,-59.2 362.5,-59.2 362.5,-40.2 307.5,-40.2"/>
<text text-anchor="start" x="310.5" y="-46.3" font-family="Helvetica,sans-Serif" font-size="11.00" fill="#000000">&lt; 1</text>
<polygon fill="#ffffff" stroke="transparent" points="362.5,-40.2 362.5,-59.2 409.5,-59.2 409.5,-40.2 362.5,-40.2"/>
<polygon fill="none" stroke="#000000" points="362.5,-40.2 362.5,-59.2 409.5,-59.2 409.5,-40.2 362.5,-40.2"/>
<text text-anchor="start" x="400.3862" y="-46.3" font-family="Helvetica,sans-Serif" font-size="11.00" fill="#000000"> &#160;</text>
<polygon fill="#ffffff" stroke="transparent" points="409.5,-40.2 409.5,-59.2 476.5,-59.2 476.5,-40.2 409.5,-40.2"/>
<polygon fill="none" stroke="#000000" points="409.5,-40.2 409.5,-59.2 476.5,-59.2 476.5,-40.2 409.5,-40.2"/>
<text text-anchor="start" x="457.9053" y="-46.3" font-family="Helvetica,sans-Serif" font-size="11.00" fill="#000000">0 &gt;</text>
<polygon fill="none" stroke="#000000" stroke-width="2" points="306,-39.2 306,-853.2 477,-853.2 477,-39.2 306,-39.2"/>
</a>
</g>
</g>
<!-- patient_data -->
<g id="node2" class="node">
<title>patient_data</title>
<g id="a_node2"><a xlink:href="../../tables/patient_data.html" xlink:title="patient_data" target="_top">
<polygon fill="#ffffff" stroke="transparent" points="8,-615.7 8,-1006.7 256,-1006.7 256,-615.7 8,-615.7"/>
<polygon fill="#f5f5f5" stroke="transparent" points="8,-983.2 8,-1006.2 256,-1006.2 256,-983.2 8,-983.2"/>
<polygon fill="none" stroke="#000000" points="8,-983.2 8,-1006.2 256,-1006.2 256,-983.2 8,-983.2"/>
<text text-anchor="start" x="13" y="-991.8" font-family="Helvetica,sans-Serif" font-weight="bold" font-size="11.00" fill="#000000">patient_data</text>
<text text-anchor="start" x="221.0437" y="-991.3" font-family="Helvetica,sans-Serif" font-size="11.00" fill="#000000">[table]</text>
<polygon fill="none" stroke="#000000" points="8,-961.2 8,-983.2 256,-983.2 256,-961.2 8,-961.2"/>
<image xlink:href="../../images/primaryKeys.png" width="11px" height="12px" preserveAspectRatio="xMinYMin meet" x="13" y="-978.2"/>
<text text-anchor="start" x="28" y="-968.3" font-family="Helvetica,sans-Serif" font-size="11.00" fill="#000000">id</text>
<polygon fill="#ffffff" stroke="transparent" points="8,-939.2 8,-961.2 256,-961.2 256,-939.2 8,-939.2"/>
<polygon fill="none" stroke="#000000" points="8,-939.2 8,-961.2 256,-961.2 256,-939.2 8,-939.2"/>
<text text-anchor="start" x="28" y="-946.3" font-family="Helvetica,sans-Serif" font-size="11.00" fill="#000000">uuid</text>
<polygon fill="#ffffff" stroke="transparent" points="8,-917.2 8,-939.2 256,-939.2 256,-917.2 8,-917.2"/>
<polygon fill="none" stroke="#000000" points="8,-917.2 8,-939.2 256,-939.2 256,-917.2 8,-917.2"/>
<text text-anchor="start" x="28" y="-924.3" font-family="Helvetica,sans-Serif" font-size="11.00" fill="#000000">fname</text>
<polygon fill="#ffffff" stroke="transparent" points="8,-895.2 8,-917.2 256,-917.2 256,-895.2 8,-895.2"/>
<polygon fill="none" stroke="#000000" points="8,-895.2 8,-917.2 256,-917.2 256,-895.2 8,-895.2"/>
<text text-anchor="start" x="28" y="-902.3" font-family="Helvetica,sans-Serif" font-size="11.00" fill="#000000">lname</text>
<polygon fill="#ffffff" stroke="transparent" points="8,-873.2 8,-895.2 256,-895.2 256,-873.2 8,-873.2"/>
<polygon fill="none" stroke="#000000" points="8,-873.2 8,-895.2 256,-895.2 256,-873.2 8,-873.2"/>
<text text-anchor="start" x="28" y="-880.3" font-family="Helvetica,sans-Serif" font-size="11.00" fill="#000000">DOB</text>
<polygon fill="none" stroke="#000000" points="8,-851.2 8,-873.2 256,-873.2 256,-851.2 8,-851.2"/>
<image xlink:href="../../images/foreignKeys.png" width="11px" height="12px" preserveAspectRatio="xMinYMin meet" x="13" y="-868.2"/>
<text text-anchor="start" x="28" y="-858.3" font-family="Helvetica,sans-Serif" font-size="11.00" fill="#000000">pharmacy_id</text>
<polygon fill="none" stroke="#000000" points="8,-829.2 8,-851.2 256,-851.2 256,-829.2 8,-829.2"/>
<image xlink:href="../../images/foreignKeys.png" width="11px" height="12px" preserveAspectRatio="xMinYMin meet" x="13" y="-846.2"/>
<text text-anchor="start" x="28" y="-836.3" font-family="Helvetica,sans-Serif" font-size="11.00" fill="#000000">providerID</text>
<polygon fill="none" stroke="#000000" points="8,-807.2 8,-829.2 256,-829.2 256,-807.2 8,-807.2"/>
<image xlink:href="../../images/foreignKeys.png" width="11px" height="12px" preserveAspectRatio="xMinYMin meet" x="13" y="-824.2"/>
<text text-anchor="start" x="28" y="-814.3" font-family="Helvetica,sans-Serif" font-size="11.00" fill="#000000">ref_providerID</text>
<polygon fill="none" stroke="#000000" points="8,-785.2 8,-807.2 256,-807.2 256,-785.2 8,-785.2"/>
<image xlink:href="../../images/primaryKeys.png" width="11px" height="12px" preserveAspectRatio="xMinYMin meet" x="13" y="-802.2"/>
<text text-anchor="start" x="28" y="-792.3" font-family="Helvetica,sans-Serif" font-size="11.00" fill="#000000">pid</text>
<polygon fill="none" stroke="#000000" points="8,-763.2 8,-785.2 256,-785.2 256,-763.2 8,-763.2"/>
<image xlink:href="../../images/foreignKeys.png" width="11px" height="12px" preserveAspectRatio="xMinYMin meet" x="13" y="-780.2"/>
<text text-anchor="start" x="28" y="-770.3" font-family="Helvetica,sans-Serif" font-size="11.00" fill="#000000">created_by</text>
<polygon fill="none" stroke="#000000" points="8,-741.2 8,-763.2 256,-763.2 256,-741.2 8,-741.2"/>
<image xlink:href="../../images/foreignKeys.png" width="11px" height="12px" preserveAspectRatio="xMinYMin meet" x="13" y="-758.2"/>
<text text-anchor="start" x="28" y="-748.3" font-family="Helvetica,sans-Serif" font-size="11.00" fill="#000000">updated_by</text>
<polygon fill="none" stroke="#000000" points="8,-719.2 8,-741.2 256,-741.2 256,-719.2 8,-719.2"/>
<image xlink:href="../../images/foreignKeys.png" width="11px" height="12px" preserveAspectRatio="xMinYMin meet" x="13" y="-736.2"/>
<text text-anchor="start" x="28" y="-726.3" font-family="Helvetica,sans-Serif" font-size="11.00" fill="#000000">tribal_affiliations</text>
<polygon fill="none" stroke="#000000" points="8,-697.2 8,-719.2 256,-719.2 256,-697.2 8,-697.2"/>
<image xlink:href="../../images/foreignKeys.png" width="11px" height="12px" preserveAspectRatio="xMinYMin meet" x="13" y="-714.2"/>
<text text-anchor="start" x="28" y="-704.3" font-family="Helvetica,sans-Serif" font-size="11.00" fill="#000000">sex_identified</text>
<polygon fill="none" stroke="#000000" points="8,-675.2 8,-697.2 256,-697.2 256,-675.2 8,-675.2"/>
<image xlink:href="../../images/foreignKeys.png" width="11px" height="12px" preserveAspectRatio="xMinYMin meet" x="13" y="-692.2"/>
<text text-anchor="start" x="28" y="-682.3" font-family="Helvetica,sans-Serif" font-size="11.00" fill="#000000">interpreter_needed</text>
<polygon fill="none" stroke="#000000" points="8,-653.2 8,-675.2 256,-675.2 256,-653.2 8,-653.2"/>
<image xlink:href="../../images/foreignKeys.png" width="11px" height="12px" preserveAspectRatio="xMinYMin meet" x="13" y="-670.2"/>
<text text-anchor="start" x="28" y="-660.3" font-family="Helvetica,sans-Serif" font-size="11.00" fill="#000000">advance_directive_user_authenticator</text>
<polygon fill="none" stroke="#000000" points="8,-634.2 8,-653.2 256,-653.2 256,-634.2 8,-634.2"/>
<text text-anchor="start" x="11" y="-640.3" font-family="Helvetica,sans-Serif" font-size="11.00" fill="#000000">...</text>
<polygon fill="#ffffff" stroke="transparent" points="8,-615.2 8,-634.2 123,-634.2 123,-615.2 8,-615.2"/>
<polygon fill="none" stroke="#000000" points="8,-615.2 8,-634.2 123,-634.2 123,-615.2 8,-615.2"/>
<text text-anchor="start" x="11" y="-621.3" font-family="Helvetica,sans-Serif" font-size="11.00" fill="#000000">&lt; 9</text>
<polygon fill="#ffffff" stroke="transparent" points="123,-615.2 123,-634.2 182,-634.2 182,-615.2 123,-615.2"/>
<polygon fill="none" stroke="#000000" points="123,-615.2 123,-634.2 182,-634.2 182,-615.2 123,-615.2"/>
<text text-anchor="start" x="172.8862" y="-621.3" font-family="Helvetica,sans-Serif" font-size="11.00" fill="#000000"> &#160;</text>
<polygon fill="#ffffff" stroke="transparent" points="182,-615.2 182,-634.2 256,-634.2 256,-615.2 182,-615.2"/>
<polygon fill="none" stroke="#000000" points="182,-615.2 182,-634.2 256,-634.2 256,-615.2 182,-615.2"/>
<text text-anchor="start" x="231.2904" y="-621.3" font-family="Helvetica,sans-Serif" font-size="11.00" fill="#000000">97 &gt;</text>
</a>
</g>
</g>
<!-- form_eye_hpi&#45;&gt;patient_data -->
<g id="edge1" class="edge">
<title>form_eye_hpi:w&#45;&gt;patient_data:e</title>
<path fill="none" stroke="#000000" d="M293.0156,-796.2C280.6771,-796.2 273.1667,-796.2 256,-796.2"/>
<polygon fill="#000000" stroke="#000000" points="299.5,-796.2001 307.5,-799.8 303.5,-796.2 307.5,-796.2 307.5,-796.2 307.5,-796.2 303.5,-796.2 307.5,-792.6 299.5,-796.2001 299.5,-796.2001"/>
<ellipse fill="none" stroke="#000000" cx="296.3" cy="-796.2001" rx="3.2" ry="3.2"/>
</g>
</g>
</svg>
