<?xml version="1.0" encoding="UTF-8" standalone="no"?>
<!DOCTYPE svg PUBLIC "-//W3C//DTD SVG 1.1//EN"
 "http://www.w3.org/Graphics/SVG/1.1/DTD/svg11.dtd">
<!-- Generated by graphviz version 2.40.1 (20161225.0304)
 -->
<!-- Title: oneDegreeRelationshipsDiagram Pages: 1 -->
<svg width="432pt" height="491pt"
 viewBox="0.00 0.00 432.00 490.70" xmlns="http://www.w3.org/2000/svg" xmlns:xlink="http://www.w3.org/1999/xlink">
<g id="graph0" class="graph" transform="scale(1 1) rotate(0) translate(4 486.7)">
<title>oneDegreeRelationshipsDiagram</title>
<polygon fill="#ffffff" stroke="transparent" points="-4,4 -4,-486.7 428,-486.7 428,4 -4,4"/>
<text text-anchor="middle" x="72.4936" y="-7.3" font-family="Helvetica,sans-Serif" font-size="11.00" fill="#000000">Generated by SchemaSpy</text>
<!-- form_eye_ros -->
<g id="node1" class="node">
<title>form_eye_ros</title>
<g id="a_node1"><a xlink:href="../../tables/form_eye_ros.html" xlink:title="form_eye_ros" target="_top">
<polygon fill="#ffffff" stroke="transparent" points="224,-38.2 224,-414.2 416,-414.2 416,-38.2 224,-38.2"/>
<polygon fill="#f5f5f5" stroke="transparent" points="226,-389.2 226,-412.2 414,-412.2 414,-389.2 226,-389.2"/>
<polygon fill="none" stroke="#000000" points="226,-389.2 226,-412.2 414,-412.2 414,-389.2 226,-389.2"/>
<text text-anchor="start" x="231" y="-397.8" font-family="Helvetica,sans-Serif" font-weight="bold" font-size="11.00" fill="#000000">form_eye_ros</text>
<text text-anchor="start" x="379.0437" y="-397.3" font-family="Helvetica,sans-Serif" font-size="11.00" fill="#000000">[table]</text>
<polygon fill="none" stroke="#000000" points="226,-367.2 226,-389.2 354,-389.2 354,-367.2 226,-367.2"/>
<image xlink:href="../../images/primaryKeys.png" width="11px" height="12px" preserveAspectRatio="xMinYMin meet" x="231" y="-384.2"/>
<text text-anchor="start" x="246" y="-374.3" font-family="Helvetica,sans-Serif" font-size="11.00" fill="#000000">id</text>
<polygon fill="none" stroke="#000000" points="354,-367.2 354,-389.2 414,-389.2 414,-367.2 354,-367.2"/>
<text text-anchor="start" x="357" y="-374.9" font-family="Helvetica,sans-Serif" font-size="11.00" fill="#000000">bigint[19]</text>
<polygon fill="#ffffff" stroke="transparent" points="226,-345.2 226,-367.2 354,-367.2 354,-345.2 226,-345.2"/>
<polygon fill="none" stroke="#000000" points="226,-345.2 226,-367.2 354,-367.2 354,-345.2 226,-345.2"/>
<image xlink:href="../../images/foreignKeys.png" width="11px" height="12px" preserveAspectRatio="xMinYMin meet" x="231" y="-362.2"/>
<text text-anchor="start" x="246" y="-352.3" font-family="Helvetica,sans-Serif" font-size="11.00" fill="#000000">pid</text>
<polygon fill="none" stroke="#000000" points="354,-345.2 354,-367.2 414,-367.2 414,-345.2 354,-345.2"/>
<text text-anchor="start" x="357" y="-352.9" font-family="Helvetica,sans-Serif" font-size="11.00" fill="#000000">bigint[19]</text>
<polygon fill="none" stroke="#000000" points="226,-323.2 226,-345.2 354,-345.2 354,-323.2 226,-323.2"/>
<text text-anchor="start" x="246" y="-330.3" font-family="Helvetica,sans-Serif" font-size="11.00" fill="#000000">ROSGENERAL</text>
<polygon fill="none" stroke="#000000" points="354,-323.2 354,-345.2 414,-345.2 414,-323.2 354,-323.2"/>
<text text-anchor="start" x="356.7915" y="-330.9" font-family="Helvetica,sans-Serif" font-size="11.00" fill="#000000">text[65535]</text>
<polygon fill="none" stroke="#000000" points="226,-301.2 226,-323.2 354,-323.2 354,-301.2 226,-301.2"/>
<text text-anchor="start" x="246" y="-308.3" font-family="Helvetica,sans-Serif" font-size="11.00" fill="#000000">ROSHEENT</text>
<polygon fill="none" stroke="#000000" points="354,-301.2 354,-323.2 414,-323.2 414,-301.2 354,-301.2"/>
<text text-anchor="start" x="356.7915" y="-308.9" font-family="Helvetica,sans-Serif" font-size="11.00" fill="#000000">text[65535]</text>
<polygon fill="none" stroke="#000000" points="226,-279.2 226,-301.2 354,-301.2 354,-279.2 226,-279.2"/>
<text text-anchor="start" x="246" y="-286.3" font-family="Helvetica,sans-Serif" font-size="11.00" fill="#000000">ROSCV</text>
<polygon fill="none" stroke="#000000" points="354,-279.2 354,-301.2 414,-301.2 414,-279.2 354,-279.2"/>
<text text-anchor="start" x="356.7915" y="-286.9" font-family="Helvetica,sans-Serif" font-size="11.00" fill="#000000">text[65535]</text>
<polygon fill="none" stroke="#000000" points="226,-257.2 226,-279.2 354,-279.2 354,-257.2 226,-257.2"/>
<text text-anchor="start" x="246" y="-264.3" font-family="Helvetica,sans-Serif" font-size="11.00" fill="#000000">ROSPULM</text>
<polygon fill="none" stroke="#000000" points="354,-257.2 354,-279.2 414,-279.2 414,-257.2 354,-257.2"/>
<text text-anchor="start" x="356.7915" y="-264.9" font-family="Helvetica,sans-Serif" font-size="11.00" fill="#000000">text[65535]</text>
<polygon fill="none" stroke="#000000" points="226,-235.2 226,-257.2 354,-257.2 354,-235.2 226,-235.2"/>
<text text-anchor="start" x="246" y="-242.3" font-family="Helvetica,sans-Serif" font-size="11.00" fill="#000000">ROSGI</text>
<polygon fill="none" stroke="#000000" points="354,-235.2 354,-257.2 414,-257.2 414,-235.2 354,-235.2"/>
<text text-anchor="start" x="356.7915" y="-242.9" font-family="Helvetica,sans-Serif" font-size="11.00" fill="#000000">text[65535]</text>
<polygon fill="none" stroke="#000000" points="226,-213.2 226,-235.2 354,-235.2 354,-213.2 226,-213.2"/>
<text text-anchor="start" x="246" y="-220.3" font-family="Helvetica,sans-Serif" font-size="11.00" fill="#000000">ROSGU</text>
<polygon fill="none" stroke="#000000" points="354,-213.2 354,-235.2 414,-235.2 414,-213.2 354,-213.2"/>
<text text-anchor="start" x="356.7915" y="-220.9" font-family="Helvetica,sans-Serif" font-size="11.00" fill="#000000">text[65535]</text>
<polygon fill="none" stroke="#000000" points="226,-191.2 226,-213.2 354,-213.2 354,-191.2 226,-191.2"/>
<text text-anchor="start" x="246" y="-198.3" font-family="Helvetica,sans-Serif" font-size="11.00" fill="#000000">ROSDERM</text>
<polygon fill="none" stroke="#000000" points="354,-191.2 354,-213.2 414,-213.2 414,-191.2 354,-191.2"/>
<text text-anchor="start" x="356.7915" y="-198.9" font-family="Helvetica,sans-Serif" font-size="11.00" fill="#000000">text[65535]</text>
<polygon fill="none" stroke="#000000" points="226,-169.2 226,-191.2 354,-191.2 354,-169.2 226,-169.2"/>
<text text-anchor="start" x="246" y="-176.3" font-family="Helvetica,sans-Serif" font-size="11.00" fill="#000000">ROSNEURO</text>
<polygon fill="none" stroke="#000000" points="354,-169.2 354,-191.2 414,-191.2 414,-169.2 354,-169.2"/>
<text text-anchor="start" x="356.7915" y="-176.9" font-family="Helvetica,sans-Serif" font-size="11.00" fill="#000000">text[65535]</text>
<polygon fill="none" stroke="#000000" points="226,-147.2 226,-169.2 354,-169.2 354,-147.2 226,-147.2"/>
<text text-anchor="start" x="246" y="-154.3" font-family="Helvetica,sans-Serif" font-size="11.00" fill="#000000">ROSPSYCH</text>
<polygon fill="none" stroke="#000000" points="354,-147.2 354,-169.2 414,-169.2 414,-147.2 354,-147.2"/>
<text text-anchor="start" x="356.7915" y="-154.9" font-family="Helvetica,sans-Serif" font-size="11.00" fill="#000000">text[65535]</text>
<polygon fill="none" stroke="#000000" points="226,-125.2 226,-147.2 354,-147.2 354,-125.2 226,-125.2"/>
<text text-anchor="start" x="246" y="-132.3" font-family="Helvetica,sans-Serif" font-size="11.00" fill="#000000">ROSMUSCULO</text>
<polygon fill="none" stroke="#000000" points="354,-125.2 354,-147.2 414,-147.2 414,-125.2 354,-125.2"/>
<text text-anchor="start" x="356.7915" y="-132.9" font-family="Helvetica,sans-Serif" font-size="11.00" fill="#000000">text[65535]</text>
<polygon fill="none" stroke="#000000" points="226,-103.2 226,-125.2 354,-125.2 354,-103.2 226,-103.2"/>
<text text-anchor="start" x="246" y="-110.3" font-family="Helvetica,sans-Serif" font-size="11.00" fill="#000000">ROSIMMUNO</text>
<polygon fill="none" stroke="#000000" points="354,-103.2 354,-125.2 414,-125.2 414,-103.2 354,-103.2"/>
<text text-anchor="start" x="356.7915" y="-110.9" font-family="Helvetica,sans-Serif" font-size="11.00" fill="#000000">text[65535]</text>
<polygon fill="none" stroke="#000000" points="226,-81.2 226,-103.2 354,-103.2 354,-81.2 226,-81.2"/>
<text text-anchor="start" x="246" y="-88.3" font-family="Helvetica,sans-Serif" font-size="11.00" fill="#000000">ROSENDOCRINE</text>
<polygon fill="none" stroke="#000000" points="354,-81.2 354,-103.2 414,-103.2 414,-81.2 354,-81.2"/>
<text text-anchor="start" x="356.7915" y="-88.9" font-family="Helvetica,sans-Serif" font-size="11.00" fill="#000000">text[65535]</text>
<polygon fill="none" stroke="#000000" points="226,-59.2 226,-81.2 354,-81.2 354,-59.2 226,-59.2"/>
<text text-anchor="start" x="246" y="-66.3" font-family="Helvetica,sans-Serif" font-size="11.00" fill="#000000">ROSCOMMENTS</text>
<polygon fill="none" stroke="#000000" points="354,-59.2 354,-81.2 414,-81.2 414,-59.2 354,-59.2"/>
<text text-anchor="start" x="356.7915" y="-66.9" font-family="Helvetica,sans-Serif" font-size="11.00" fill="#000000">text[65535]</text>
<polygon fill="#ffffff" stroke="transparent" points="226,-40.2 226,-59.2 294,-59.2 294,-40.2 226,-40.2"/>
<polygon fill="none" stroke="#000000" points="226,-40.2 226,-59.2 294,-59.2 294,-40.2 226,-40.2"/>
<text text-anchor="start" x="229" y="-46.3" font-family="Helvetica,sans-Serif" font-size="11.00" fill="#000000">&lt; 1</text>
<polygon fill="#ffffff" stroke="transparent" points="294,-40.2 294,-59.2 354,-59.2 354,-40.2 294,-40.2"/>
<polygon fill="none" stroke="#000000" points="294,-40.2 294,-59.2 354,-59.2 354,-40.2 294,-40.2"/>
<text text-anchor="start" x="344.8862" y="-46.3" font-family="Helvetica,sans-Serif" font-size="11.00" fill="#000000"> &#160;</text>
<polygon fill="#ffffff" stroke="transparent" points="354,-40.2 354,-59.2 414,-59.2 414,-40.2 354,-40.2"/>
<polygon fill="none" stroke="#000000" points="354,-40.2 354,-59.2 414,-59.2 414,-40.2 354,-40.2"/>
<text text-anchor="start" x="395.4053" y="-46.3" font-family="Helvetica,sans-Serif" font-size="11.00" fill="#000000">0 &gt;</text>
<polygon fill="none" stroke="#000000" stroke-width="2" points="225,-39.2 225,-413.2 415,-413.2 415,-39.2 225,-39.2"/>
</a>
</g>
</g>
<!-- patient_data -->
<g id="node2" class="node">
<title>patient_data</title>
<g id="a_node2"><a xlink:href="../../tables/patient_data.html" xlink:title="patient_data" target="_top">
<polygon fill="#ffffff" stroke="transparent" points="8,-241.7 8,-478.7 175,-478.7 175,-241.7 8,-241.7"/>
<polygon fill="#f5f5f5" stroke="transparent" points="8.5,-455.2 8.5,-478.2 175.5,-478.2 175.5,-455.2 8.5,-455.2"/>
<polygon fill="none" stroke="#000000" points="8.5,-455.2 8.5,-478.2 175.5,-478.2 175.5,-455.2 8.5,-455.2"/>
<text text-anchor="start" x="13.5" y="-463.8" font-family="Helvetica,sans-Serif" font-weight="bold" font-size="11.00" fill="#000000">patient_data</text>
<text text-anchor="start" x="140.5437" y="-463.3" font-family="Helvetica,sans-Serif" font-size="11.00" fill="#000000">[table]</text>
<polygon fill="#ffffff" stroke="transparent" points="8.5,-433.2 8.5,-455.2 175.5,-455.2 175.5,-433.2 8.5,-433.2"/>
<polygon fill="none" stroke="#000000" points="8.5,-433.2 8.5,-455.2 175.5,-455.2 175.5,-433.2 8.5,-433.2"/>
<text text-anchor="start" x="28.5" y="-440.3" font-family="Helvetica,sans-Serif" font-size="11.00" fill="#000000">id</text>
<polygon fill="none" stroke="#000000" points="8.5,-411.2 8.5,-433.2 175.5,-433.2 175.5,-411.2 8.5,-411.2"/>
<image xlink:href="../../images/foreignKeys.png" width="11px" height="12px" preserveAspectRatio="xMinYMin meet" x="13.5" y="-428.2"/>
<text text-anchor="start" x="28.5" y="-418.3" font-family="Helvetica,sans-Serif" font-size="11.00" fill="#000000">pharmacy_id</text>
<polygon fill="none" stroke="#000000" points="8.5,-389.2 8.5,-411.2 175.5,-411.2 175.5,-389.2 8.5,-389.2"/>
<image xlink:href="../../images/foreignKeys.png" width="11px" height="12px" preserveAspectRatio="xMinYMin meet" x="13.5" y="-406.2"/>
<text text-anchor="start" x="28.5" y="-396.3" font-family="Helvetica,sans-Serif" font-size="11.00" fill="#000000">providerID</text>
<polygon fill="none" stroke="#000000" points="8.5,-367.2 8.5,-389.2 175.5,-389.2 175.5,-367.2 8.5,-367.2"/>
<image xlink:href="../../images/foreignKeys.png" width="11px" height="12px" preserveAspectRatio="xMinYMin meet" x="13.5" y="-384.2"/>
<text text-anchor="start" x="28.5" y="-374.3" font-family="Helvetica,sans-Serif" font-size="11.00" fill="#000000">ref_providerID</text>
<polygon fill="none" stroke="#000000" points="8.5,-345.2 8.5,-367.2 175.5,-367.2 175.5,-345.2 8.5,-345.2"/>
<image xlink:href="../../images/primaryKeys.png" width="11px" height="12px" preserveAspectRatio="xMinYMin meet" x="13.5" y="-362.2"/>
<text text-anchor="start" x="28.5" y="-352.3" font-family="Helvetica,sans-Serif" font-size="11.00" fill="#000000">pid</text>
<polygon fill="#ffffff" stroke="transparent" points="8.5,-323.2 8.5,-345.2 175.5,-345.2 175.5,-323.2 8.5,-323.2"/>
<polygon fill="none" stroke="#000000" points="8.5,-323.2 8.5,-345.2 175.5,-345.2 175.5,-323.2 8.5,-323.2"/>
<text text-anchor="start" x="28.5" y="-330.3" font-family="Helvetica,sans-Serif" font-size="11.00" fill="#000000">uuid</text>
<polygon fill="none" stroke="#000000" points="8.5,-301.2 8.5,-323.2 175.5,-323.2 175.5,-301.2 8.5,-301.2"/>
<image xlink:href="../../images/foreignKeys.png" width="11px" height="12px" preserveAspectRatio="xMinYMin meet" x="13.5" y="-318.2"/>
<text text-anchor="start" x="28.5" y="-308.3" font-family="Helvetica,sans-Serif" font-size="11.00" fill="#000000">created_by</text>
<polygon fill="none" stroke="#000000" points="8.5,-279.2 8.5,-301.2 175.5,-301.2 175.5,-279.2 8.5,-279.2"/>
<image xlink:href="../../images/foreignKeys.png" width="11px" height="12px" preserveAspectRatio="xMinYMin meet" x="13.5" y="-296.2"/>
<text text-anchor="start" x="28.5" y="-286.3" font-family="Helvetica,sans-Serif" font-size="11.00" fill="#000000">updated_by</text>
<polygon fill="none" stroke="#000000" points="8.5,-260.2 8.5,-279.2 175.5,-279.2 175.5,-260.2 8.5,-260.2"/>
<text text-anchor="start" x="11.5" y="-266.3" font-family="Helvetica,sans-Serif" font-size="11.00" fill="#000000">...</text>
<polygon fill="#ffffff" stroke="transparent" points="8.5,-241.2 8.5,-260.2 82.5,-260.2 82.5,-241.2 8.5,-241.2"/>
<polygon fill="none" stroke="#000000" points="8.5,-241.2 8.5,-260.2 82.5,-260.2 82.5,-241.2 8.5,-241.2"/>
<text text-anchor="start" x="11.5" y="-247.3" font-family="Helvetica,sans-Serif" font-size="11.00" fill="#000000">&lt; 5</text>
<polygon fill="#ffffff" stroke="transparent" points="82.5,-241.2 82.5,-260.2 121.5,-260.2 121.5,-241.2 82.5,-241.2"/>
<polygon fill="none" stroke="#000000" points="82.5,-241.2 82.5,-260.2 121.5,-260.2 121.5,-241.2 82.5,-241.2"/>
<text text-anchor="start" x="112.3862" y="-247.3" font-family="Helvetica,sans-Serif" font-size="11.00" fill="#000000"> &#160;</text>
<polygon fill="#ffffff" stroke="transparent" points="121.5,-241.2 121.5,-260.2 175.5,-260.2 175.5,-241.2 121.5,-241.2"/>
<polygon fill="none" stroke="#000000" points="121.5,-241.2 121.5,-260.2 175.5,-260.2 175.5,-241.2 121.5,-241.2"/>
<text text-anchor="start" x="150.7904" y="-247.3" font-family="Helvetica,sans-Serif" font-size="11.00" fill="#000000">85 &gt;</text>
</a>
</g>
</g>
<!-- form_eye_ros&#45;&gt;patient_data -->
<g id="edge1" class="edge">
<title>form_eye_ros:w&#45;&gt;patient_data:e</title>
<path fill="none" stroke="#000000" d="M211.4203,-356.2C199.5435,-356.2 192.158,-356.2 175.5,-356.2"/>
<polygon fill="#000000" stroke="#000000" points="218,-356.2001 226,-359.8 222,-356.2 226,-356.2 226,-356.2 226,-356.2 222,-356.2 226,-352.6 218,-356.2001 218,-356.2001"/>
<ellipse fill="none" stroke="#000000" cx="214.8" cy="-356.2001" rx="3.2" ry="3.2"/>
</g>
</g>
</svg>
