<?xml version="1.0" encoding="UTF-8" standalone="no"?>
<!DOCTYPE svg PUBLIC "-//W3C//DTD SVG 1.1//EN"
 "http://www.w3.org/Graphics/SVG/1.1/DTD/svg11.dtd">
<!-- Generated by graphviz version 2.40.1 (20161225.0304)
 -->
<!-- Title: twoDegreesRelationshipsDiagram Pages: 1 -->
<svg width="1287pt" height="1212pt"
 viewBox="0.00 0.00 1287.00 1211.66" xmlns="http://www.w3.org/2000/svg" xmlns:xlink="http://www.w3.org/1999/xlink">
<g id="graph0" class="graph" transform="scale(1 1) rotate(0) translate(4 1207.6647)">
<title>twoDegreesRelationshipsDiagram</title>
<polygon fill="#ffffff" stroke="transparent" points="-4,4 -4,-1207.6647 1283,-1207.6647 1283,4 -4,4"/>
<text text-anchor="middle" x="72.4936" y="-7.3" font-family="Helvetica,sans-Serif" font-size="11.00" fill="#000000">Generated by SchemaSpy</text>
<!-- form_clinic_note -->
<g id="node1" class="node">
<title>form_clinic_note</title>
<g id="a_node1"><a xlink:href="../../tables/form_clinic_note.html" xlink:title="form_clinic_note" target="_top">
<polygon fill="#ffffff" stroke="transparent" points="835.5,-626.2055 835.5,-687.2055 983.5,-687.2055 983.5,-626.2055 835.5,-626.2055"/>
<polygon fill="#f5f5f5" stroke="transparent" points="835.5,-663.7055 835.5,-686.7055 983.5,-686.7055 983.5,-663.7055 835.5,-663.7055"/>
<polygon fill="none" stroke="#000000" points="835.5,-663.7055 835.5,-686.7055 983.5,-686.7055 983.5,-663.7055 835.5,-663.7055"/>
<text text-anchor="start" x="840.5" y="-672.3055" font-family="Helvetica,sans-Serif" font-weight="bold" font-size="11.00" fill="#000000">form_clinic_note</text>
<text text-anchor="start" x="949.0219" y="-671.8055" font-family="Helvetica,sans-Serif" font-size="11.00" fill="#000000">[table]</text>
<polygon fill="none" stroke="#000000" points="835.5,-644.7055 835.5,-663.7055 983.5,-663.7055 983.5,-644.7055 835.5,-644.7055"/>
<text text-anchor="start" x="838.5" y="-650.8055" font-family="Helvetica,sans-Serif" font-size="11.00" fill="#000000">...</text>
<polygon fill="#ffffff" stroke="transparent" points="835.5,-625.7055 835.5,-644.7055 907.5,-644.7055 907.5,-625.7055 835.5,-625.7055"/>
<polygon fill="none" stroke="#000000" points="835.5,-625.7055 835.5,-644.7055 907.5,-644.7055 907.5,-625.7055 835.5,-625.7055"/>
<text text-anchor="start" x="838.5" y="-631.8055" font-family="Helvetica,sans-Serif" font-size="11.00" fill="#000000">&lt; 1</text>
<polygon fill="#ffffff" stroke="transparent" points="907.5,-625.7055 907.5,-644.7055 945.5,-644.7055 945.5,-625.7055 907.5,-625.7055"/>
<polygon fill="none" stroke="#000000" points="907.5,-625.7055 907.5,-644.7055 945.5,-644.7055 945.5,-625.7055 907.5,-625.7055"/>
<text text-anchor="start" x="936.3862" y="-631.8055" font-family="Helvetica,sans-Serif" font-size="11.00" fill="#000000"> &#160;</text>
<polygon fill="#ffffff" stroke="transparent" points="945.5,-625.7055 945.5,-644.7055 983.5,-644.7055 983.5,-625.7055 945.5,-625.7055"/>
<polygon fill="none" stroke="#000000" points="945.5,-625.7055 945.5,-644.7055 983.5,-644.7055 983.5,-625.7055 945.5,-625.7055"/>
<text text-anchor="start" x="974.3862" y="-631.8055" font-family="Helvetica,sans-Serif" font-size="11.00" fill="#000000"> &#160;</text>
</a>
</g>
</g>
<!-- forms -->
<g id="node2" class="node">
<title>forms</title>
<g id="a_node2"><a xlink:href="../../tables/forms.html" xlink:title="forms" target="_top">
<polygon fill="#ffffff" stroke="transparent" points="553.5,-548.2055 553.5,-807.2055 691.5,-807.2055 691.5,-548.2055 553.5,-548.2055"/>
<polygon fill="#f5f5f5" stroke="transparent" points="553.5,-783.7055 553.5,-806.7055 691.5,-806.7055 691.5,-783.7055 553.5,-783.7055"/>
<polygon fill="none" stroke="#000000" points="553.5,-783.7055 553.5,-806.7055 691.5,-806.7055 691.5,-783.7055 553.5,-783.7055"/>
<text text-anchor="start" x="558.5" y="-792.3055" font-family="Helvetica,sans-Serif" font-weight="bold" font-size="11.00" fill="#000000">forms</text>
<text text-anchor="start" x="656.5437" y="-791.8055" font-family="Helvetica,sans-Serif" font-size="11.00" fill="#000000">[table]</text>
<polygon fill="none" stroke="#000000" points="553.5,-761.7055 553.5,-783.7055 691.5,-783.7055 691.5,-761.7055 553.5,-761.7055"/>
<image xlink:href="../../images/primaryKeys.png" width="11px" height="12px" preserveAspectRatio="xMinYMin meet" x="558.5" y="-778.706"/>
<text text-anchor="start" x="573.5" y="-768.8055" font-family="Helvetica,sans-Serif" font-size="11.00" fill="#000000">id</text>
<polygon fill="#ffffff" stroke="transparent" points="553.5,-739.7055 553.5,-761.7055 691.5,-761.7055 691.5,-739.7055 553.5,-739.7055"/>
<polygon fill="none" stroke="#000000" points="553.5,-739.7055 553.5,-761.7055 691.5,-761.7055 691.5,-739.7055 553.5,-739.7055"/>
<text text-anchor="start" x="573.5" y="-746.8055" font-family="Helvetica,sans-Serif" font-size="11.00" fill="#000000">encounter</text>
<polygon fill="none" stroke="#000000" points="553.5,-717.7055 553.5,-739.7055 691.5,-739.7055 691.5,-717.7055 553.5,-717.7055"/>
<image xlink:href="../../images/primaryKeys.png" width="11px" height="12px" preserveAspectRatio="xMinYMin meet" x="558.5" y="-734.706"/>
<text text-anchor="start" x="573.5" y="-724.8055" font-family="Helvetica,sans-Serif" font-size="11.00" fill="#000000">form_id</text>
<polygon fill="#ffffff" stroke="transparent" points="553.5,-695.7055 553.5,-717.7055 691.5,-717.7055 691.5,-695.7055 553.5,-695.7055"/>
<polygon fill="none" stroke="#000000" points="553.5,-695.7055 553.5,-717.7055 691.5,-717.7055 691.5,-695.7055 553.5,-695.7055"/>
<image xlink:href="../../images/foreignKeys.png" width="11px" height="12px" preserveAspectRatio="xMinYMin meet" x="558.5" y="-712.706"/>
<text text-anchor="start" x="573.5" y="-702.8055" font-family="Helvetica,sans-Serif" font-size="11.00" fill="#000000">pid</text>
<polygon fill="none" stroke="#000000" points="553.5,-673.7055 553.5,-695.7055 691.5,-695.7055 691.5,-673.7055 553.5,-673.7055"/>
<image xlink:href="../../images/foreignKeys.png" width="11px" height="12px" preserveAspectRatio="xMinYMin meet" x="558.5" y="-690.706"/>
<text text-anchor="start" x="573.5" y="-680.8055" font-family="Helvetica,sans-Serif" font-size="11.00" fill="#000000">user</text>
<polygon fill="none" stroke="#000000" points="553.5,-651.7055 553.5,-673.7055 691.5,-673.7055 691.5,-651.7055 553.5,-651.7055"/>
<image xlink:href="../../images/foreignKeys.png" width="11px" height="12px" preserveAspectRatio="xMinYMin meet" x="558.5" y="-668.706"/>
<text text-anchor="start" x="573.5" y="-658.8055" font-family="Helvetica,sans-Serif" font-size="11.00" fill="#000000">groupname</text>
<polygon fill="none" stroke="#000000" points="553.5,-629.7055 553.5,-651.7055 691.5,-651.7055 691.5,-629.7055 553.5,-629.7055"/>
<image xlink:href="../../images/foreignKeys.png" width="11px" height="12px" preserveAspectRatio="xMinYMin meet" x="558.5" y="-646.706"/>
<text text-anchor="start" x="573.5" y="-636.8055" font-family="Helvetica,sans-Serif" font-size="11.00" fill="#000000">therapy_group_id</text>
<polygon fill="none" stroke="#000000" points="553.5,-607.7055 553.5,-629.7055 691.5,-629.7055 691.5,-607.7055 553.5,-607.7055"/>
<image xlink:href="../../images/foreignKeys.png" width="11px" height="12px" preserveAspectRatio="xMinYMin meet" x="558.5" y="-624.706"/>
<text text-anchor="start" x="573.5" y="-614.8055" font-family="Helvetica,sans-Serif" font-size="11.00" fill="#000000">issue_id</text>
<polygon fill="none" stroke="#000000" points="553.5,-585.7055 553.5,-607.7055 691.5,-607.7055 691.5,-585.7055 553.5,-585.7055"/>
<image xlink:href="../../images/foreignKeys.png" width="11px" height="12px" preserveAspectRatio="xMinYMin meet" x="558.5" y="-602.706"/>
<text text-anchor="start" x="573.5" y="-592.8055" font-family="Helvetica,sans-Serif" font-size="11.00" fill="#000000">provider_id</text>
<polygon fill="none" stroke="#000000" points="553.5,-566.7055 553.5,-585.7055 691.5,-585.7055 691.5,-566.7055 553.5,-566.7055"/>
<text text-anchor="start" x="556.5" y="-572.8055" font-family="Helvetica,sans-Serif" font-size="11.00" fill="#000000">...</text>
<polygon fill="#ffffff" stroke="transparent" points="553.5,-547.7055 553.5,-566.7055 613.5,-566.7055 613.5,-547.7055 553.5,-547.7055"/>
<polygon fill="none" stroke="#000000" points="553.5,-547.7055 553.5,-566.7055 613.5,-566.7055 613.5,-547.7055 553.5,-547.7055"/>
<text text-anchor="start" x="556.5" y="-553.8055" font-family="Helvetica,sans-Serif" font-size="11.00" fill="#000000">&lt; 6</text>
<polygon fill="#ffffff" stroke="transparent" points="613.5,-547.7055 613.5,-566.7055 644.5,-566.7055 644.5,-547.7055 613.5,-547.7055"/>
<polygon fill="none" stroke="#000000" points="613.5,-547.7055 613.5,-566.7055 644.5,-566.7055 644.5,-547.7055 613.5,-547.7055"/>
<text text-anchor="start" x="635.3862" y="-553.8055" font-family="Helvetica,sans-Serif" font-size="11.00" fill="#000000"> &#160;</text>
<polygon fill="#ffffff" stroke="transparent" points="644.5,-547.7055 644.5,-566.7055 691.5,-566.7055 691.5,-547.7055 644.5,-547.7055"/>
<polygon fill="none" stroke="#000000" points="644.5,-547.7055 644.5,-566.7055 691.5,-566.7055 691.5,-547.7055 644.5,-547.7055"/>
<text text-anchor="start" x="666.7904" y="-553.8055" font-family="Helvetica,sans-Serif" font-size="11.00" fill="#000000">12 &gt;</text>
</a>
</g>
</g>
<!-- form_clinic_note&#45;&gt;forms -->
<g id="edge1" class="edge">
<title>form_clinic_note:w&#45;&gt;forms:e</title>
<path fill="none" stroke="#000000" d="M825.0486,-654.2661C763.1853,-661.1293 759.9959,-728.7055 691.5,-728.7055"/>
<polygon fill="#000000" stroke="#000000" points="834.4869,-649.7541 834.9154,-657.7427 833.3177,-657.8284 832.8892,-649.8398 834.4869,-649.7541"/>
<polyline fill="none" stroke="#000000" points="835.5,-653.7055 831.5057,-653.9198 "/>
<ellipse fill="none" stroke="#000000" cx="828.3103" cy="-654.0912" rx="3.2" ry="3.2"/>
</g>
<!-- therapy_groups -->
<g id="node5" class="node">
<title>therapy_groups</title>
<g id="a_node5"><a xlink:href="../../tables/therapy_groups.html" xlink:title="therapy_groups" target="_top">
<polygon fill="#ffffff" stroke="transparent" points="305,-1073.2055 305,-1134.2055 449,-1134.2055 449,-1073.2055 305,-1073.2055"/>
<polygon fill="#f5f5f5" stroke="transparent" points="305,-1110.7055 305,-1133.7055 449,-1133.7055 449,-1110.7055 305,-1110.7055"/>
<polygon fill="none" stroke="#000000" points="305,-1110.7055 305,-1133.7055 449,-1133.7055 449,-1110.7055 305,-1110.7055"/>
<text text-anchor="start" x="310" y="-1119.3055" font-family="Helvetica,sans-Serif" font-weight="bold" font-size="11.00" fill="#000000">therapy_groups</text>
<text text-anchor="start" x="414.5219" y="-1118.8055" font-family="Helvetica,sans-Serif" font-size="11.00" fill="#000000">[table]</text>
<polygon fill="none" stroke="#000000" points="305,-1091.7055 305,-1110.7055 449,-1110.7055 449,-1091.7055 305,-1091.7055"/>
<text text-anchor="start" x="308" y="-1097.8055" font-family="Helvetica,sans-Serif" font-size="11.00" fill="#000000">...</text>
<polygon fill="#ffffff" stroke="transparent" points="305,-1072.7055 305,-1091.7055 366,-1091.7055 366,-1072.7055 305,-1072.7055"/>
<polygon fill="none" stroke="#000000" points="305,-1072.7055 305,-1091.7055 366,-1091.7055 366,-1072.7055 305,-1072.7055"/>
<text text-anchor="start" x="308" y="-1078.8055" font-family="Helvetica,sans-Serif" font-size="11.00" fill="#000000"> &#160;</text>
<polygon fill="#ffffff" stroke="transparent" points="366,-1072.7055 366,-1091.7055 403,-1091.7055 403,-1072.7055 366,-1072.7055"/>
<polygon fill="none" stroke="#000000" points="366,-1072.7055 366,-1091.7055 403,-1091.7055 403,-1072.7055 366,-1072.7055"/>
<text text-anchor="start" x="393.8862" y="-1078.8055" font-family="Helvetica,sans-Serif" font-size="11.00" fill="#000000"> &#160;</text>
<polygon fill="#ffffff" stroke="transparent" points="403,-1072.7055 403,-1091.7055 449,-1091.7055 449,-1072.7055 403,-1072.7055"/>
<polygon fill="none" stroke="#000000" points="403,-1072.7055 403,-1091.7055 449,-1091.7055 449,-1072.7055 403,-1072.7055"/>
<text text-anchor="start" x="430.4053" y="-1078.8055" font-family="Helvetica,sans-Serif" font-size="11.00" fill="#000000">5 &gt;</text>
</a>
</g>
</g>
<!-- forms&#45;&gt;therapy_groups -->
<g id="edge40" class="edge">
<title>forms:w&#45;&gt;therapy_groups:e</title>
<path fill="none" stroke="#000000" d="M538.865,-641.5476C443.1952,-653.3741 514.5137,-787.4624 490,-896.7055 479.8758,-941.8234 495.2398,-1100.7055 449,-1100.7055"/>
<polygon fill="#000000" stroke="#000000" points="545.5132,-641.1651 553.7068,-644.2996 549.5066,-640.9353 553.5,-640.7055 553.5,-640.7055 553.5,-640.7055 549.5066,-640.9353 553.2932,-637.1115 545.5132,-641.1651 545.5132,-641.1651"/>
<ellipse fill="none" stroke="#000000" cx="542.3185" cy="-641.349" rx="3.2" ry="3.2"/>
</g>
<!-- groups -->
<g id="node6" class="node">
<title>groups</title>
<g id="a_node6"><a xlink:href="../../tables/groups.html" xlink:title="groups" target="_top">
<polygon fill="#ffffff" stroke="transparent" points="151,-245.2055 151,-306.2055 237,-306.2055 237,-245.2055 151,-245.2055"/>
<polygon fill="#f5f5f5" stroke="transparent" points="151,-282.7055 151,-305.7055 237,-305.7055 237,-282.7055 151,-282.7055"/>
<polygon fill="none" stroke="#000000" points="151,-282.7055 151,-305.7055 237,-305.7055 237,-282.7055 151,-282.7055"/>
<text text-anchor="start" x="156" y="-291.3055" font-family="Helvetica,sans-Serif" font-weight="bold" font-size="11.00" fill="#000000">groups</text>
<text text-anchor="start" x="202.5219" y="-290.8055" font-family="Helvetica,sans-Serif" font-size="11.00" fill="#000000">[table]</text>
<polygon fill="none" stroke="#000000" points="151,-263.7055 151,-282.7055 237,-282.7055 237,-263.7055 151,-263.7055"/>
<text text-anchor="start" x="154" y="-269.8055" font-family="Helvetica,sans-Serif" font-size="11.00" fill="#000000">...</text>
<polygon fill="#ffffff" stroke="transparent" points="151,-244.7055 151,-263.7055 185,-263.7055 185,-244.7055 151,-244.7055"/>
<polygon fill="none" stroke="#000000" points="151,-244.7055 151,-263.7055 185,-263.7055 185,-244.7055 151,-244.7055"/>
<text text-anchor="start" x="154" y="-250.8055" font-family="Helvetica,sans-Serif" font-size="11.00" fill="#000000">&lt; 1</text>
<polygon fill="#ffffff" stroke="transparent" points="185,-244.7055 185,-263.7055 203,-263.7055 203,-244.7055 185,-244.7055"/>
<polygon fill="none" stroke="#000000" points="185,-244.7055 185,-263.7055 203,-263.7055 203,-244.7055 185,-244.7055"/>
<text text-anchor="start" x="193.8862" y="-250.8055" font-family="Helvetica,sans-Serif" font-size="11.00" fill="#000000"> &#160;</text>
<polygon fill="#ffffff" stroke="transparent" points="203,-244.7055 203,-263.7055 237,-263.7055 237,-244.7055 203,-244.7055"/>
<polygon fill="none" stroke="#000000" points="203,-244.7055 203,-263.7055 237,-263.7055 237,-244.7055 203,-244.7055"/>
<text text-anchor="start" x="212.2904" y="-250.8055" font-family="Helvetica,sans-Serif" font-size="11.00" fill="#000000">18 &gt;</text>
</a>
</g>
</g>
<!-- forms&#45;&gt;groups -->
<g id="edge36" class="edge">
<title>forms:w&#45;&gt;groups:e</title>
<path fill="none" stroke="#000000" d="M541.4439,-654.5598C482.5089,-598.5545 262.5058,-272.7055 237,-272.7055"/>
<polygon fill="#000000" stroke="#000000" points="546.8712,-658.2268 551.4845,-665.6885 550.1856,-660.4662 553.5,-662.7055 553.5,-662.7055 553.5,-662.7055 550.1856,-660.4662 555.5155,-659.7226 546.8712,-658.2268 546.8712,-658.2268"/>
<ellipse fill="none" stroke="#000000" cx="544.2197" cy="-656.4353" rx="3.2" ry="3.2"/>
</g>
<!-- users -->
<g id="node7" class="node">
<title>users</title>
<g id="a_node7"><a xlink:href="../../tables/users.html" xlink:title="users" target="_top">
<polygon fill="#ffffff" stroke="transparent" points="8,-493.2055 8,-554.2055 83,-554.2055 83,-493.2055 8,-493.2055"/>
<polygon fill="#f5f5f5" stroke="transparent" points="8.5,-530.7055 8.5,-553.7055 83.5,-553.7055 83.5,-530.7055 8.5,-530.7055"/>
<polygon fill="none" stroke="#000000" points="8.5,-530.7055 8.5,-553.7055 83.5,-553.7055 83.5,-530.7055 8.5,-530.7055"/>
<text text-anchor="start" x="13.5" y="-539.3055" font-family="Helvetica,sans-Serif" font-weight="bold" font-size="11.00" fill="#000000">users</text>
<text text-anchor="start" x="49.0219" y="-538.8055" font-family="Helvetica,sans-Serif" font-size="11.00" fill="#000000">[table]</text>
<polygon fill="none" stroke="#000000" points="8.5,-511.7055 8.5,-530.7055 83.5,-530.7055 83.5,-511.7055 8.5,-511.7055"/>
<text text-anchor="start" x="11.5" y="-517.8055" font-family="Helvetica,sans-Serif" font-size="11.00" fill="#000000">...</text>
<polygon fill="#ffffff" stroke="transparent" points="8.5,-492.7055 8.5,-511.7055 36.5,-511.7055 36.5,-492.7055 8.5,-492.7055"/>
<polygon fill="none" stroke="#000000" points="8.5,-492.7055 8.5,-511.7055 36.5,-511.7055 36.5,-492.7055 8.5,-492.7055"/>
<text text-anchor="start" x="11.5" y="-498.8055" font-family="Helvetica,sans-Serif" font-size="11.00" fill="#000000">&lt; 2</text>
<polygon fill="#ffffff" stroke="transparent" points="36.5,-492.7055 36.5,-511.7055 52.5,-511.7055 52.5,-492.7055 36.5,-492.7055"/>
<polygon fill="none" stroke="#000000" points="36.5,-492.7055 36.5,-511.7055 52.5,-511.7055 52.5,-492.7055 36.5,-492.7055"/>
<text text-anchor="start" x="43.3862" y="-498.8055" font-family="Helvetica,sans-Serif" font-size="11.00" fill="#000000"> &#160;</text>
<polygon fill="#ffffff" stroke="transparent" points="52.5,-492.7055 52.5,-511.7055 83.5,-511.7055 83.5,-492.7055 52.5,-492.7055"/>
<polygon fill="none" stroke="#000000" points="52.5,-492.7055 52.5,-511.7055 83.5,-511.7055 83.5,-492.7055 52.5,-492.7055"/>
<text text-anchor="start" x="58.7904" y="-498.8055" font-family="Helvetica,sans-Serif" font-size="11.00" fill="#000000">56 &gt;</text>
</a>
</g>
</g>
<!-- forms&#45;&gt;users -->
<g id="edge39" class="edge">
<title>forms:w&#45;&gt;users:e</title>
<path fill="none" stroke="#000000" d="M538.7152,-598.342C501.6716,-607.3018 501.7405,-650.5255 457,-664.7055 389.2121,-686.1902 366.6986,-678.8087 297,-664.7055 215.2039,-648.1546 186.4179,-647.1 124,-591.7055 96.8288,-567.5917 119.8284,-520.7055 83.5,-520.7055"/>
<polygon fill="#000000" stroke="#000000" points="545.5486,-597.5857 553.8961,-600.2837 549.5243,-597.1456 553.5,-596.7055 553.5,-596.7055 553.5,-596.7055 549.5243,-597.1456 553.1039,-593.1274 545.5486,-597.5857 545.5486,-597.5857"/>
<ellipse fill="none" stroke="#000000" cx="542.368" cy="-597.9378" rx="3.2" ry="3.2"/>
</g>
<!-- forms&#45;&gt;users -->
<g id="edge41" class="edge">
<title>forms:w&#45;&gt;users:e</title>
<path fill="none" stroke="#000000" d="M539.0484,-684.8582C356.4549,-688.7027 261.513,-762.7973 124,-635.7055 84.205,-598.9264 137.6881,-520.7055 83.5,-520.7055"/>
<polygon fill="#000000" stroke="#000000" points="545.5004,-684.7901 553.538,-688.3053 549.5002,-684.7478 553.5,-684.7055 553.5,-684.7055 553.5,-684.7055 549.5002,-684.7478 553.462,-681.1057 545.5004,-684.7901 545.5004,-684.7901"/>
<ellipse fill="none" stroke="#000000" cx="542.3006" cy="-684.8239" rx="3.2" ry="3.2"/>
</g>
<!-- patient_data -->
<g id="node9" class="node">
<title>patient_data</title>
<g id="a_node9"><a xlink:href="../../tables/patient_data.html" xlink:title="patient_data" target="_top">
<polygon fill="#ffffff" stroke="transparent" points="132,-493.2055 132,-554.2055 256,-554.2055 256,-493.2055 132,-493.2055"/>
<polygon fill="#f5f5f5" stroke="transparent" points="132,-530.7055 132,-553.7055 256,-553.7055 256,-530.7055 132,-530.7055"/>
<polygon fill="none" stroke="#000000" points="132,-530.7055 132,-553.7055 256,-553.7055 256,-530.7055 132,-530.7055"/>
<text text-anchor="start" x="137" y="-539.3055" font-family="Helvetica,sans-Serif" font-weight="bold" font-size="11.00" fill="#000000">patient_data</text>
<text text-anchor="start" x="221.5219" y="-538.8055" font-family="Helvetica,sans-Serif" font-size="11.00" fill="#000000">[table]</text>
<polygon fill="none" stroke="#000000" points="132,-511.7055 132,-530.7055 256,-530.7055 256,-511.7055 132,-511.7055"/>
<text text-anchor="start" x="135" y="-517.8055" font-family="Helvetica,sans-Serif" font-size="11.00" fill="#000000">...</text>
<polygon fill="#ffffff" stroke="transparent" points="132,-492.7055 132,-511.7055 185,-511.7055 185,-492.7055 132,-492.7055"/>
<polygon fill="none" stroke="#000000" points="132,-492.7055 132,-511.7055 185,-511.7055 185,-492.7055 132,-492.7055"/>
<text text-anchor="start" x="135" y="-498.8055" font-family="Helvetica,sans-Serif" font-size="11.00" fill="#000000">&lt; 5</text>
<polygon fill="#ffffff" stroke="transparent" points="185,-492.7055 185,-511.7055 213,-511.7055 213,-492.7055 185,-492.7055"/>
<polygon fill="none" stroke="#000000" points="185,-492.7055 185,-511.7055 213,-511.7055 213,-492.7055 185,-492.7055"/>
<text text-anchor="start" x="203.8862" y="-498.8055" font-family="Helvetica,sans-Serif" font-size="11.00" fill="#000000"> &#160;</text>
<polygon fill="#ffffff" stroke="transparent" points="213,-492.7055 213,-511.7055 256,-511.7055 256,-492.7055 213,-492.7055"/>
<polygon fill="none" stroke="#000000" points="213,-492.7055 213,-511.7055 256,-511.7055 256,-492.7055 213,-492.7055"/>
<text text-anchor="start" x="231.2904" y="-498.8055" font-family="Helvetica,sans-Serif" font-size="11.00" fill="#000000">84 &gt;</text>
</a>
</g>
</g>
<!-- forms&#45;&gt;patient_data -->
<g id="edge38" class="edge">
<title>forms:w&#45;&gt;patient_data:e</title>
<path fill="none" stroke="#000000" d="M538.8556,-705.76C505.5467,-701.1569 495.9853,-680.8634 457,-669.7055 387.3625,-649.7748 351.7471,-686.1331 297,-638.7055 255.0366,-602.3525 311.52,-520.7055 256,-520.7055"/>
<polygon fill="#000000" stroke="#000000" points="545.5166,-706.19 553.268,-710.2981 549.5083,-706.4478 553.5,-706.7055 553.5,-706.7055 553.5,-706.7055 549.5083,-706.4478 553.732,-703.113 545.5166,-706.19 545.5166,-706.19"/>
<ellipse fill="none" stroke="#000000" cx="542.3233" cy="-705.9838" rx="3.2" ry="3.2"/>
</g>
<!-- lists -->
<g id="node18" class="node">
<title>lists</title>
<g id="a_node18"><a xlink:href="../../tables/lists.html" xlink:title="lists" target="_top">
<polygon fill="#ffffff" stroke="transparent" points="343.5,-567.2055 343.5,-628.2055 410.5,-628.2055 410.5,-567.2055 343.5,-567.2055"/>
<polygon fill="#f5f5f5" stroke="transparent" points="344,-604.7055 344,-627.7055 411,-627.7055 411,-604.7055 344,-604.7055"/>
<polygon fill="none" stroke="#000000" points="344,-604.7055 344,-627.7055 411,-627.7055 411,-604.7055 344,-604.7055"/>
<text text-anchor="start" x="349" y="-613.3055" font-family="Helvetica,sans-Serif" font-weight="bold" font-size="11.00" fill="#000000">lists</text>
<text text-anchor="start" x="376.5219" y="-612.8055" font-family="Helvetica,sans-Serif" font-size="11.00" fill="#000000">[table]</text>
<polygon fill="none" stroke="#000000" points="344,-585.7055 344,-604.7055 411,-604.7055 411,-585.7055 344,-585.7055"/>
<text text-anchor="start" x="347" y="-591.8055" font-family="Helvetica,sans-Serif" font-size="11.00" fill="#000000">...</text>
<polygon fill="#ffffff" stroke="transparent" points="344,-566.7055 344,-585.7055 374,-585.7055 374,-566.7055 344,-566.7055"/>
<polygon fill="none" stroke="#000000" points="344,-566.7055 344,-585.7055 374,-585.7055 374,-566.7055 344,-566.7055"/>
<text text-anchor="start" x="347" y="-572.8055" font-family="Helvetica,sans-Serif" font-size="11.00" fill="#000000">&lt; 11</text>
<polygon fill="#ffffff" stroke="transparent" points="374,-566.7055 374,-585.7055 388,-585.7055 388,-566.7055 374,-566.7055"/>
<polygon fill="none" stroke="#000000" points="374,-566.7055 374,-585.7055 388,-585.7055 388,-566.7055 374,-566.7055"/>
<text text-anchor="start" x="378.8862" y="-572.8055" font-family="Helvetica,sans-Serif" font-size="11.00" fill="#000000"> &#160;</text>
<polygon fill="#ffffff" stroke="transparent" points="388,-566.7055 388,-585.7055 411,-585.7055 411,-566.7055 388,-566.7055"/>
<polygon fill="none" stroke="#000000" points="388,-566.7055 388,-585.7055 411,-585.7055 411,-566.7055 388,-566.7055"/>
<text text-anchor="start" x="392.4053" y="-572.8055" font-family="Helvetica,sans-Serif" font-size="11.00" fill="#000000">3 &gt;</text>
</a>
</g>
</g>
<!-- forms&#45;&gt;lists -->
<g id="edge37" class="edge">
<title>forms:w&#45;&gt;lists:e</title>
<path fill="none" stroke="#000000" d="M538.9846,-618.2685C486.7028,-615.0157 470.0823,-594.7055 411,-594.7055"/>
<polygon fill="#000000" stroke="#000000" points="545.5036,-618.4647 553.3916,-622.3039 549.5018,-618.5851 553.5,-618.7055 553.5,-618.7055 553.5,-618.7055 549.5018,-618.5851 553.6084,-615.1072 545.5036,-618.4647 545.5036,-618.4647"/>
<ellipse fill="none" stroke="#000000" cx="542.3051" cy="-618.3684" rx="3.2" ry="3.2"/>
</g>
<!-- form_group_attendance -->
<g id="node3" class="node">
<title>form_group_attendance</title>
<g id="a_node3"><a xlink:href="../../tables/form_group_attendance.html" xlink:title="form_group_attendance" target="_top">
<polygon fill="#ffffff" stroke="transparent" points="1072,-1047.2055 1072,-1108.2055 1271,-1108.2055 1271,-1047.2055 1072,-1047.2055"/>
<polygon fill="#f5f5f5" stroke="transparent" points="1072.5,-1084.7055 1072.5,-1107.7055 1271.5,-1107.7055 1271.5,-1084.7055 1072.5,-1084.7055"/>
<polygon fill="none" stroke="#000000" points="1072.5,-1084.7055 1072.5,-1107.7055 1271.5,-1107.7055 1271.5,-1084.7055 1072.5,-1084.7055"/>
<text text-anchor="start" x="1077.5" y="-1093.3055" font-family="Helvetica,sans-Serif" font-weight="bold" font-size="11.00" fill="#000000">form_group_attendance</text>
<text text-anchor="start" x="1237.0219" y="-1092.8055" font-family="Helvetica,sans-Serif" font-size="11.00" fill="#000000">[table]</text>
<polygon fill="none" stroke="#000000" points="1072.5,-1065.7055 1072.5,-1084.7055 1271.5,-1084.7055 1271.5,-1065.7055 1072.5,-1065.7055"/>
<text text-anchor="start" x="1075.5" y="-1071.8055" font-family="Helvetica,sans-Serif" font-size="11.00" fill="#000000">...</text>
<polygon fill="#ffffff" stroke="transparent" points="1072.5,-1046.7055 1072.5,-1065.7055 1165.5,-1065.7055 1165.5,-1046.7055 1072.5,-1046.7055"/>
<polygon fill="none" stroke="#000000" points="1072.5,-1046.7055 1072.5,-1065.7055 1165.5,-1065.7055 1165.5,-1046.7055 1072.5,-1046.7055"/>
<text text-anchor="start" x="1075.5" y="-1052.8055" font-family="Helvetica,sans-Serif" font-size="11.00" fill="#000000">&lt; 5</text>
<polygon fill="#ffffff" stroke="transparent" points="1165.5,-1046.7055 1165.5,-1065.7055 1213.5,-1065.7055 1213.5,-1046.7055 1165.5,-1046.7055"/>
<polygon fill="none" stroke="#000000" points="1165.5,-1046.7055 1165.5,-1065.7055 1213.5,-1065.7055 1213.5,-1046.7055 1165.5,-1046.7055"/>
<text text-anchor="start" x="1204.3862" y="-1052.8055" font-family="Helvetica,sans-Serif" font-size="11.00" fill="#000000"> &#160;</text>
<polygon fill="#ffffff" stroke="transparent" points="1213.5,-1046.7055 1213.5,-1065.7055 1271.5,-1065.7055 1271.5,-1046.7055 1213.5,-1046.7055"/>
<polygon fill="none" stroke="#000000" points="1213.5,-1046.7055 1213.5,-1065.7055 1271.5,-1065.7055 1271.5,-1046.7055 1213.5,-1046.7055"/>
<text text-anchor="start" x="1252.9053" y="-1052.8055" font-family="Helvetica,sans-Serif" font-size="11.00" fill="#000000">1 &gt;</text>
</a>
</g>
</g>
<!-- form_group_attendance&#45;&gt;forms -->
<g id="edge5" class="edge">
<title>form_group_attendance:w&#45;&gt;forms:e</title>
<path fill="none" stroke="#000000" d="M1062.0623,-1073.131C979.9246,-1046.2081 1103.8036,-682.2236 1031,-615.7055 991.1341,-579.2815 837.0391,-593.0965 788,-615.7055 728.0239,-643.357 757.5434,-728.7055 691.5,-728.7055"/>
<polygon fill="#000000" stroke="#000000" points="1072.3056,-1070.631 1071.1123,-1078.5415 1069.5302,-1078.3028 1070.7235,-1070.3923 1072.3056,-1070.631"/>
<polyline fill="none" stroke="#000000" points="1072.5,-1074.7055 1068.5448,-1074.1088 "/>
<ellipse fill="none" stroke="#000000" cx="1065.3806" cy="-1073.6315" rx="3.2" ry="3.2"/>
</g>
<!-- form_groups_encounter -->
<g id="node4" class="node">
<title>form_groups_encounter</title>
<g id="a_node4"><a xlink:href="../../tables/form_groups_encounter.html" xlink:title="form_groups_encounter" target="_top">
<polygon fill="#ffffff" stroke="transparent" points="810.5,-1126.2055 810.5,-1187.2055 1008.5,-1187.2055 1008.5,-1126.2055 810.5,-1126.2055"/>
<polygon fill="#f5f5f5" stroke="transparent" points="810.5,-1163.7055 810.5,-1186.7055 1008.5,-1186.7055 1008.5,-1163.7055 810.5,-1163.7055"/>
<polygon fill="none" stroke="#000000" points="810.5,-1163.7055 810.5,-1186.7055 1008.5,-1186.7055 1008.5,-1163.7055 810.5,-1163.7055"/>
<text text-anchor="start" x="815.5" y="-1172.3055" font-family="Helvetica,sans-Serif" font-weight="bold" font-size="11.00" fill="#000000">form_groups_encounter</text>
<text text-anchor="start" x="974.0219" y="-1171.8055" font-family="Helvetica,sans-Serif" font-size="11.00" fill="#000000">[table]</text>
<polygon fill="none" stroke="#000000" points="810.5,-1144.7055 810.5,-1163.7055 1008.5,-1163.7055 1008.5,-1144.7055 810.5,-1144.7055"/>
<text text-anchor="start" x="813.5" y="-1150.8055" font-family="Helvetica,sans-Serif" font-size="11.00" fill="#000000">...</text>
<polygon fill="#ffffff" stroke="transparent" points="810.5,-1125.7055 810.5,-1144.7055 903.5,-1144.7055 903.5,-1125.7055 810.5,-1125.7055"/>
<polygon fill="none" stroke="#000000" points="810.5,-1125.7055 810.5,-1144.7055 903.5,-1144.7055 903.5,-1125.7055 810.5,-1125.7055"/>
<text text-anchor="start" x="813.5" y="-1131.8055" font-family="Helvetica,sans-Serif" font-size="11.00" fill="#000000">&lt; 7</text>
<polygon fill="#ffffff" stroke="transparent" points="903.5,-1125.7055 903.5,-1144.7055 951.5,-1144.7055 951.5,-1125.7055 903.5,-1125.7055"/>
<polygon fill="none" stroke="#000000" points="903.5,-1125.7055 903.5,-1144.7055 951.5,-1144.7055 951.5,-1125.7055 903.5,-1125.7055"/>
<text text-anchor="start" x="942.3862" y="-1131.8055" font-family="Helvetica,sans-Serif" font-size="11.00" fill="#000000"> &#160;</text>
<polygon fill="#ffffff" stroke="transparent" points="951.5,-1125.7055 951.5,-1144.7055 1008.5,-1144.7055 1008.5,-1125.7055 951.5,-1125.7055"/>
<polygon fill="none" stroke="#000000" points="951.5,-1125.7055 951.5,-1144.7055 1008.5,-1144.7055 1008.5,-1125.7055 951.5,-1125.7055"/>
<text text-anchor="start" x="989.9053" y="-1131.8055" font-family="Helvetica,sans-Serif" font-size="11.00" fill="#000000">1 &gt;</text>
</a>
</g>
</g>
<!-- form_group_attendance&#45;&gt;form_groups_encounter -->
<g id="edge2" class="edge">
<title>form_group_attendance:w&#45;&gt;form_groups_encounter:e</title>
<path fill="none" stroke="#000000" d="M1058.2861,-1078.3053C1032.9234,-1093.76 1047.8622,-1153.7055 1008.5,-1153.7055"/>
<polygon fill="#000000" stroke="#000000" points="1064.7448,-1076.6696 1073.3838,-1078.1954 1068.6224,-1075.6876 1072.5,-1074.7055 1072.5,-1074.7055 1072.5,-1074.7055 1068.6224,-1075.6876 1071.6162,-1071.2157 1064.7448,-1076.6696 1064.7448,-1076.6696"/>
<ellipse fill="none" stroke="#000000" cx="1061.6428" cy="-1077.4552" rx="3.2" ry="3.2"/>
</g>
<!-- form_group_attendance&#45;&gt;therapy_groups -->
<g id="edge3" class="edge">
<title>form_group_attendance:w&#45;&gt;therapy_groups:e</title>
<path fill="none" stroke="#000000" d="M1057.9663,-1076.604C1049.5964,-1078.9987 1043.7831,-1083.0087 1031,-1084.7055 774.4857,-1118.7557 707.7644,-1100.7055 449,-1100.7055"/>
<polygon fill="#000000" stroke="#000000" points="1064.5674,-1075.7418 1072.9663,-1078.2752 1068.5337,-1075.2237 1072.5,-1074.7055 1072.5,-1074.7055 1072.5,-1074.7055 1068.5337,-1075.2237 1072.0337,-1071.1359 1064.5674,-1075.7418 1064.5674,-1075.7418"/>
<ellipse fill="none" stroke="#000000" cx="1061.3943" cy="-1076.1563" rx="3.2" ry="3.2"/>
</g>
<!-- form_group_attendance&#45;&gt;groups -->
<g id="edge4" class="edge">
<title>form_group_attendance:w&#45;&gt;groups:e</title>
<path fill="none" stroke="#000000" d="M1063.2503,-1063.4681C1024.4158,-957.1161 1067.767,-130.947 1031,-95.7055 912.6808,17.7043 430.5771,-72.7404 297,-167.7055 253.1939,-198.849 290.7484,-272.7055 237,-272.7055"/>
<polygon fill="#000000" stroke="#000000" points="1067.4159,-1068.5288 1069.7205,-1076.9934 1069.9579,-1071.6172 1072.5,-1074.7055 1072.5,-1074.7055 1072.5,-1074.7055 1069.9579,-1071.6172 1075.2795,-1072.4177 1067.4159,-1068.5288 1067.4159,-1068.5288"/>
<ellipse fill="none" stroke="#000000" cx="1065.3822" cy="-1066.0581" rx="3.2" ry="3.2"/>
</g>
<!-- form_group_attendance&#45;&gt;users -->
<g id="edge6" class="edge">
<title>form_group_attendance:w&#45;&gt;users:e</title>
<path fill="none" stroke="#000000" d="M1058.0595,-1074.7281C919.3372,-1075.1142 603.5726,-1079.6736 490,-1026.7055 287.4068,-932.2199 237.1401,-874.503 124,-681.7055 86.6559,-618.069 157.2848,-520.7055 83.5,-520.7055"/>
<polygon fill="#000000" stroke="#000000" points="1064.5,-1074.7181 1072.5057,-1078.3055 1068.5,-1074.7118 1072.5,-1074.7055 1072.5,-1074.7055 1072.5,-1074.7055 1068.5,-1074.7118 1072.4943,-1071.1055 1064.5,-1074.7181 1064.5,-1074.7181"/>
<ellipse fill="none" stroke="#000000" cx="1061.3" cy="-1074.7231" rx="3.2" ry="3.2"/>
</g>
<!-- form_groups_encounter&#45;&gt;forms -->
<g id="edge8" class="edge">
<title>form_groups_encounter:w&#45;&gt;forms:e</title>
<path fill="none" stroke="#000000" d="M800.0927,-1152.3056C773.6551,-1143.8562 796.2381,-1098.7846 788,-1061.7055 754.5798,-911.2843 845.5891,-728.7055 691.5,-728.7055"/>
<polygon fill="#000000" stroke="#000000" points="810.2404,-1149.6346 809.1739,-1157.5632 807.5881,-1157.3499 808.6547,-1149.4213 810.2404,-1149.6346"/>
<polyline fill="none" stroke="#000000" points="810.5,-1153.7055 806.5357,-1153.1723 "/>
<ellipse fill="none" stroke="#000000" cx="803.3643" cy="-1152.7456" rx="3.2" ry="3.2"/>
</g>
<!-- form_groups_encounter&#45;&gt;therapy_groups -->
<g id="edge7" class="edge">
<title>form_groups_encounter:w&#45;&gt;therapy_groups:e</title>
<path fill="none" stroke="#000000" d="M795.9611,-1152.9037C731.5064,-1147.6428 522.0616,-1118.0784 490,-1111.7055 471.4954,-1108.0274 467.8667,-1100.7055 449,-1100.7055"/>
<polygon fill="#000000" stroke="#000000" points="802.5121,-1153.265 810.3017,-1157.3001 806.5061,-1153.4852 810.5,-1153.7055 810.5,-1153.7055 810.5,-1153.7055 806.5061,-1153.4852 810.6983,-1150.111 802.5121,-1153.265 802.5121,-1153.265"/>
<ellipse fill="none" stroke="#000000" cx="799.317" cy="-1153.0887" rx="3.2" ry="3.2"/>
</g>
<!-- form_groups_encounter&#45;&gt;users -->
<g id="edge9" class="edge">
<title>form_groups_encounter:w&#45;&gt;users:e</title>
<path fill="none" stroke="#000000" d="M795.6892,-1153.8282C495.8348,-1158.7715 293.1871,-1310.1382 124,-1058.7055 90.5334,-1008.9701 143.4469,-520.7055 83.5,-520.7055"/>
<polygon fill="#000000" stroke="#000000" points="802.5003,-1153.7718 810.5298,-1157.3054 806.5001,-1153.7387 810.5,-1153.7055 810.5,-1153.7055 810.5,-1153.7055 806.5001,-1153.7387 810.4702,-1150.1057 802.5003,-1153.7718 802.5003,-1153.7718"/>
<ellipse fill="none" stroke="#000000" cx="799.3004" cy="-1153.7984" rx="3.2" ry="3.2"/>
</g>
<!-- form_groups_encounter&#45;&gt;users -->
<g id="edge10" class="edge">
<title>form_groups_encounter:w&#45;&gt;users:e</title>
<path fill="none" stroke="#000000" d="M795.6759,-1153.8264C495.526,-1158.6984 291.0765,-1307.8388 124,-1054.7055 91.2217,-1005.0439 143.0037,-520.7055 83.5,-520.7055"/>
<polygon fill="#000000" stroke="#000000" points="802.5003,-1153.7708 810.5294,-1157.3054 806.5001,-1153.7382 810.5,-1153.7055 810.5,-1153.7055 810.5,-1153.7055 806.5001,-1153.7382 810.4706,-1150.1057 802.5003,-1153.7708 802.5003,-1153.7708"/>
<ellipse fill="none" stroke="#000000" cx="799.3004" cy="-1153.7969" rx="3.2" ry="3.2"/>
</g>
<!-- groups&#45;&gt;users -->
<g id="edge42" class="edge">
<title>groups:w&#45;&gt;users:e</title>
<path fill="none" stroke="#000000" d="M137.5032,-278.8359C101.7335,-317.0259 135.2614,-520.7055 83.5,-520.7055"/>
<polygon fill="#000000" stroke="#000000" points="143.7161,-276.014 152.4888,-275.9833 147.3581,-274.3597 151,-272.7055 151,-272.7055 151,-272.7055 147.3581,-274.3597 149.5112,-269.4278 143.7161,-276.014 143.7161,-276.014"/>
<ellipse fill="none" stroke="#000000" cx="140.8026" cy="-277.3373" rx="3.2" ry="3.2"/>
</g>
<!-- form_note -->
<g id="node8" class="node">
<title>form_note</title>
<g id="a_node8"><a xlink:href="../../tables/form_note.html" xlink:title="form_note" target="_top">
<polygon fill="#ffffff" stroke="transparent" points="856,-708.2055 856,-769.2055 963,-769.2055 963,-708.2055 856,-708.2055"/>
<polygon fill="#f5f5f5" stroke="transparent" points="856.5,-745.7055 856.5,-768.7055 963.5,-768.7055 963.5,-745.7055 856.5,-745.7055"/>
<polygon fill="none" stroke="#000000" points="856.5,-745.7055 856.5,-768.7055 963.5,-768.7055 963.5,-745.7055 856.5,-745.7055"/>
<text text-anchor="start" x="861.5" y="-754.3055" font-family="Helvetica,sans-Serif" font-weight="bold" font-size="11.00" fill="#000000">form_note</text>
<text text-anchor="start" x="929.0219" y="-753.8055" font-family="Helvetica,sans-Serif" font-size="11.00" fill="#000000">[table]</text>
<polygon fill="none" stroke="#000000" points="856.5,-726.7055 856.5,-745.7055 963.5,-745.7055 963.5,-726.7055 856.5,-726.7055"/>
<text text-anchor="start" x="859.5" y="-732.8055" font-family="Helvetica,sans-Serif" font-size="11.00" fill="#000000">...</text>
<polygon fill="#ffffff" stroke="transparent" points="856.5,-707.7055 856.5,-726.7055 908.5,-726.7055 908.5,-707.7055 856.5,-707.7055"/>
<polygon fill="none" stroke="#000000" points="856.5,-707.7055 856.5,-726.7055 908.5,-726.7055 908.5,-707.7055 856.5,-707.7055"/>
<text text-anchor="start" x="859.5" y="-713.8055" font-family="Helvetica,sans-Serif" font-size="11.00" fill="#000000">&lt; 2</text>
<polygon fill="#ffffff" stroke="transparent" points="908.5,-707.7055 908.5,-726.7055 935.5,-726.7055 935.5,-707.7055 908.5,-707.7055"/>
<polygon fill="none" stroke="#000000" points="908.5,-707.7055 908.5,-726.7055 935.5,-726.7055 935.5,-707.7055 908.5,-707.7055"/>
<text text-anchor="start" x="926.3862" y="-713.8055" font-family="Helvetica,sans-Serif" font-size="11.00" fill="#000000"> &#160;</text>
<polygon fill="#ffffff" stroke="transparent" points="935.5,-707.7055 935.5,-726.7055 963.5,-726.7055 963.5,-707.7055 935.5,-707.7055"/>
<polygon fill="none" stroke="#000000" points="935.5,-707.7055 935.5,-726.7055 963.5,-726.7055 963.5,-707.7055 935.5,-707.7055"/>
<text text-anchor="start" x="954.3862" y="-713.8055" font-family="Helvetica,sans-Serif" font-size="11.00" fill="#000000"> &#160;</text>
</a>
</g>
</g>
<!-- form_note&#45;&gt;forms -->
<g id="edge11" class="edge">
<title>form_note:w&#45;&gt;forms:e</title>
<path fill="none" stroke="#000000" d="M845.7306,-735.6532C781.1098,-735.0127 761.172,-728.7055 691.5,-728.7055"/>
<polygon fill="#000000" stroke="#000000" points="855.7195,-731.7017 855.6805,-739.7016 854.0806,-739.6938 854.1195,-731.6939 855.7195,-731.7017"/>
<polyline fill="none" stroke="#000000" points="856.5,-735.7055 852.5,-735.6861 "/>
<ellipse fill="none" stroke="#000000" cx="849.3001" cy="-735.6705" rx="3.2" ry="3.2"/>
</g>
<!-- form_note&#45;&gt;patient_data -->
<g id="edge12" class="edge">
<title>form_note:w&#45;&gt;patient_data:e</title>
<path fill="none" stroke="#000000" d="M841.9475,-737.0605C818.2864,-741.9754 811.1933,-759.6352 788,-779.7055 771.0854,-794.3425 775.3521,-808.4245 755,-817.7055 701.4194,-842.1396 545.6123,-837.0748 490,-817.7055 386.6288,-781.7023 357.8035,-755.7262 297,-664.7055 260.0365,-609.3725 322.5436,-520.7055 256,-520.7055"/>
<polygon fill="#000000" stroke="#000000" points="848.5345,-736.4473 856.8338,-739.29 852.5172,-736.0764 856.5,-735.7055 856.5,-735.7055 856.5,-735.7055 852.5172,-736.0764 856.1662,-732.121 848.5345,-736.4473 848.5345,-736.4473"/>
<ellipse fill="none" stroke="#000000" cx="845.3482" cy="-736.744" rx="3.2" ry="3.2"/>
</g>
<!-- patient_data&#45;&gt;users -->
<g id="edge50" class="edge">
<title>patient_data:w&#45;&gt;users:e</title>
<path fill="none" stroke="#000000" d="M120.5947,-511.4792C107.5882,-502.4895 100.6771,-505.5649 83.5,-520.7055"/>
<polygon fill="#000000" stroke="#000000" points="125.7803,-515.6741 129.7358,-523.5044 128.8901,-518.1898 132,-520.7055 132,-520.7055 132,-520.7055 128.8901,-518.1898 134.2642,-517.9067 125.7803,-515.6741 125.7803,-515.6741"/>
<ellipse fill="none" stroke="#000000" cx="123.2924" cy="-513.6615" rx="3.2" ry="3.2"/>
</g>
<!-- patient_data&#45;&gt;users -->
<g id="edge51" class="edge">
<title>patient_data:w&#45;&gt;users:e</title>
<path fill="none" stroke="#000000" d="M117.9977,-517.2613C106.5912,-515.1043 99.4983,-516.2524 83.5,-520.7055"/>
<polygon fill="#000000" stroke="#000000" points="124.2316,-518.7947 131.1401,-524.2013 128.1158,-519.7501 132,-520.7055 132,-520.7055 132,-520.7055 128.1158,-519.7501 132.8599,-517.2097 124.2316,-518.7947 124.2316,-518.7947"/>
<ellipse fill="none" stroke="#000000" cx="121.1242" cy="-518.0303" rx="3.2" ry="3.2"/>
</g>
<!-- patient_data&#45;&gt;users -->
<g id="edge52" class="edge">
<title>patient_data:w&#45;&gt;users:e</title>
<path fill="none" stroke="#000000" d="M117.9977,-524.7238C106.5912,-527.2403 99.4983,-525.9009 83.5,-520.7055"/>
<polygon fill="#000000" stroke="#000000" points="124.3104,-522.9123 132.993,-524.1659 128.1552,-521.8089 132,-520.7055 132,-520.7055 132,-520.7055 128.1552,-521.8089 131.007,-517.2452 124.3104,-522.9123 124.3104,-522.9123"/>
<ellipse fill="none" stroke="#000000" cx="121.2345" cy="-523.795" rx="3.2" ry="3.2"/>
</g>
<!-- patient_data&#45;&gt;users -->
<g id="edge53" class="edge">
<title>patient_data:w&#45;&gt;users:e</title>
<path fill="none" stroke="#000000" d="M120.979,-530.1355C107.7227,-539.9426 100.8455,-536.7993 83.5,-520.7055"/>
<polygon fill="#000000" stroke="#000000" points="125.9214,-525.9066 134.3405,-523.4409 128.9607,-523.3061 132,-520.7055 132,-520.7055 132,-520.7055 128.9607,-523.3061 129.6595,-517.9702 125.9214,-525.9066 125.9214,-525.9066"/>
<ellipse fill="none" stroke="#000000" cx="123.49" cy="-527.987" rx="3.2" ry="3.2"/>
</g>
<!-- form_painmap -->
<g id="node10" class="node">
<title>form_painmap</title>
<g id="a_node10"><a xlink:href="../../tables/form_painmap.html" xlink:title="form_painmap" target="_top">
<polygon fill="#ffffff" stroke="transparent" points="842,-434.2055 842,-495.2055 977,-495.2055 977,-434.2055 842,-434.2055"/>
<polygon fill="#f5f5f5" stroke="transparent" points="842.5,-471.7055 842.5,-494.7055 977.5,-494.7055 977.5,-471.7055 842.5,-471.7055"/>
<polygon fill="none" stroke="#000000" points="842.5,-471.7055 842.5,-494.7055 977.5,-494.7055 977.5,-471.7055 842.5,-471.7055"/>
<text text-anchor="start" x="847.5" y="-480.3055" font-family="Helvetica,sans-Serif" font-weight="bold" font-size="11.00" fill="#000000">form_painmap</text>
<text text-anchor="start" x="943.0219" y="-479.8055" font-family="Helvetica,sans-Serif" font-size="11.00" fill="#000000">[table]</text>
<polygon fill="none" stroke="#000000" points="842.5,-452.7055 842.5,-471.7055 977.5,-471.7055 977.5,-452.7055 842.5,-452.7055"/>
<text text-anchor="start" x="845.5" y="-458.8055" font-family="Helvetica,sans-Serif" font-size="11.00" fill="#000000">...</text>
<polygon fill="#ffffff" stroke="transparent" points="842.5,-433.7055 842.5,-452.7055 908.5,-452.7055 908.5,-433.7055 842.5,-433.7055"/>
<polygon fill="none" stroke="#000000" points="842.5,-433.7055 842.5,-452.7055 908.5,-452.7055 908.5,-433.7055 842.5,-433.7055"/>
<text text-anchor="start" x="845.5" y="-439.8055" font-family="Helvetica,sans-Serif" font-size="11.00" fill="#000000">&lt; 4</text>
<polygon fill="#ffffff" stroke="transparent" points="908.5,-433.7055 908.5,-452.7055 942.5,-452.7055 942.5,-433.7055 908.5,-433.7055"/>
<polygon fill="none" stroke="#000000" points="908.5,-433.7055 908.5,-452.7055 942.5,-452.7055 942.5,-433.7055 908.5,-433.7055"/>
<text text-anchor="start" x="933.3862" y="-439.8055" font-family="Helvetica,sans-Serif" font-size="11.00" fill="#000000"> &#160;</text>
<polygon fill="#ffffff" stroke="transparent" points="942.5,-433.7055 942.5,-452.7055 977.5,-452.7055 977.5,-433.7055 942.5,-433.7055"/>
<polygon fill="none" stroke="#000000" points="942.5,-433.7055 942.5,-452.7055 977.5,-452.7055 977.5,-433.7055 942.5,-433.7055"/>
<text text-anchor="start" x="968.3862" y="-439.8055" font-family="Helvetica,sans-Serif" font-size="11.00" fill="#000000"> &#160;</text>
</a>
</g>
</g>
<!-- form_painmap&#45;&gt;forms -->
<g id="edge14" class="edge">
<title>form_painmap:w&#45;&gt;forms:e</title>
<path fill="none" stroke="#000000" d="M831.8849,-462.2935C712.631,-476.1075 824.1015,-728.7055 691.5,-728.7055"/>
<polygon fill="#000000" stroke="#000000" points="841.48,-457.7559 841.9225,-465.7437 840.3249,-465.8322 839.8824,-457.8444 841.48,-457.7559"/>
<polyline fill="none" stroke="#000000" points="842.5,-461.7055 838.5061,-461.9268 "/>
<ellipse fill="none" stroke="#000000" cx="835.311" cy="-462.1038" rx="3.2" ry="3.2"/>
</g>
<!-- form_painmap&#45;&gt;groups -->
<g id="edge13" class="edge">
<title>form_painmap:w&#45;&gt;groups:e</title>
<path fill="none" stroke="#000000" d="M828.1014,-461.2197C694.382,-452.6687 412.8268,-333.6381 297,-294.7055 270.0774,-285.6561 265.4027,-272.7055 237,-272.7055"/>
<polygon fill="#000000" stroke="#000000" points="834.5046,-461.4357 842.3786,-465.3035 838.5023,-461.5706 842.5,-461.7055 842.5,-461.7055 842.5,-461.7055 838.5023,-461.5706 842.6214,-458.1076 834.5046,-461.4357 834.5046,-461.4357"/>
<ellipse fill="none" stroke="#000000" cx="831.3064" cy="-461.3278" rx="3.2" ry="3.2"/>
</g>
<!-- form_painmap&#45;&gt;users -->
<g id="edge16" class="edge">
<title>form_painmap:w&#45;&gt;users:e</title>
<path fill="none" stroke="#000000" d="M827.6813,-461.6329C519.7423,-458.6077 414.697,-362.7403 124,-482.7055 101.1838,-492.1213 108.1827,-520.7055 83.5,-520.7055"/>
<polygon fill="#000000" stroke="#000000" points="834.5001,-461.6663 842.4823,-465.3055 838.5,-461.6859 842.5,-461.7055 842.5,-461.7055 842.5,-461.7055 838.5,-461.6859 842.5177,-458.1056 834.5001,-461.6663 834.5001,-461.6663"/>
<ellipse fill="none" stroke="#000000" cx="831.3001" cy="-461.6506" rx="3.2" ry="3.2"/>
</g>
<!-- form_painmap&#45;&gt;patient_data -->
<g id="edge15" class="edge">
<title>form_painmap:w&#45;&gt;patient_data:e</title>
<path fill="none" stroke="#000000" d="M827.9602,-462.015C800.2269,-463.2769 788.6015,-468.1359 755,-471.7055 533.4025,-495.2468 478.8445,-520.7055 256,-520.7055"/>
<polygon fill="#000000" stroke="#000000" points="834.5018,-461.8758 842.5766,-465.3047 838.5009,-461.7907 842.5,-461.7055 842.5,-461.7055 842.5,-461.7055 838.5009,-461.7907 842.4234,-458.1064 834.5018,-461.8758 834.5018,-461.8758"/>
<ellipse fill="none" stroke="#000000" cx="831.3025" cy="-461.944" rx="3.2" ry="3.2"/>
</g>
<!-- form_phq9 -->
<g id="node11" class="node">
<title>form_phq9</title>
<g id="a_node11"><a xlink:href="../../tables/form_phq9.html" xlink:title="form_phq9" target="_top">
<polygon fill="#ffffff" stroke="transparent" points="854.5,-270.2055 854.5,-331.2055 964.5,-331.2055 964.5,-270.2055 854.5,-270.2055"/>
<polygon fill="#f5f5f5" stroke="transparent" points="854.5,-307.7055 854.5,-330.7055 964.5,-330.7055 964.5,-307.7055 854.5,-307.7055"/>
<polygon fill="none" stroke="#000000" points="854.5,-307.7055 854.5,-330.7055 964.5,-330.7055 964.5,-307.7055 854.5,-307.7055"/>
<text text-anchor="start" x="859.5" y="-316.3055" font-family="Helvetica,sans-Serif" font-weight="bold" font-size="11.00" fill="#000000">form_phq9</text>
<text text-anchor="start" x="930.0219" y="-315.8055" font-family="Helvetica,sans-Serif" font-size="11.00" fill="#000000">[table]</text>
<polygon fill="none" stroke="#000000" points="854.5,-288.7055 854.5,-307.7055 964.5,-307.7055 964.5,-288.7055 854.5,-288.7055"/>
<text text-anchor="start" x="857.5" y="-294.8055" font-family="Helvetica,sans-Serif" font-size="11.00" fill="#000000">...</text>
<polygon fill="#ffffff" stroke="transparent" points="854.5,-269.7055 854.5,-288.7055 907.5,-288.7055 907.5,-269.7055 854.5,-269.7055"/>
<polygon fill="none" stroke="#000000" points="854.5,-269.7055 854.5,-288.7055 907.5,-288.7055 907.5,-269.7055 854.5,-269.7055"/>
<text text-anchor="start" x="857.5" y="-275.8055" font-family="Helvetica,sans-Serif" font-size="11.00" fill="#000000">&lt; 4</text>
<polygon fill="#ffffff" stroke="transparent" points="907.5,-269.7055 907.5,-288.7055 935.5,-288.7055 935.5,-269.7055 907.5,-269.7055"/>
<polygon fill="none" stroke="#000000" points="907.5,-269.7055 907.5,-288.7055 935.5,-288.7055 935.5,-269.7055 907.5,-269.7055"/>
<text text-anchor="start" x="926.3862" y="-275.8055" font-family="Helvetica,sans-Serif" font-size="11.00" fill="#000000"> &#160;</text>
<polygon fill="#ffffff" stroke="transparent" points="935.5,-269.7055 935.5,-288.7055 964.5,-288.7055 964.5,-269.7055 935.5,-269.7055"/>
<polygon fill="none" stroke="#000000" points="935.5,-269.7055 935.5,-288.7055 964.5,-288.7055 964.5,-269.7055 935.5,-269.7055"/>
<text text-anchor="start" x="955.3862" y="-275.8055" font-family="Helvetica,sans-Serif" font-size="11.00" fill="#000000"> &#160;</text>
</a>
</g>
</g>
<!-- form_phq9&#45;&gt;forms -->
<g id="edge18" class="edge">
<title>form_phq9:w&#45;&gt;forms:e</title>
<path fill="none" stroke="#000000" d="M843.8368,-298.1225C658.466,-313.1381 892.5969,-728.7055 691.5,-728.7055"/>
<polygon fill="#000000" stroke="#000000" points="853.5443,-293.7399 853.8569,-301.7337 852.2582,-301.7963 851.9455,-293.8024 853.5443,-293.7399"/>
<polyline fill="none" stroke="#000000" points="854.5,-297.7055 850.5031,-297.8619 "/>
<ellipse fill="none" stroke="#000000" cx="847.3055" cy="-297.9869" rx="3.2" ry="3.2"/>
</g>
<!-- form_phq9&#45;&gt;groups -->
<g id="edge17" class="edge">
<title>form_phq9:w&#45;&gt;groups:e</title>
<path fill="none" stroke="#000000" d="M840.0826,-296.8636C769.0188,-291.616 477.0711,-263.5875 457,-262.7055 385.9574,-259.5839 367.8688,-256.8403 297,-262.7055 270.0576,-264.9354 264.0345,-272.7055 237,-272.7055"/>
<polygon fill="#000000" stroke="#000000" points="846.5136,-297.2391 854.2901,-301.2994 850.5068,-297.4723 854.5,-297.7055 854.5,-297.7055 854.5,-297.7055 850.5068,-297.4723 854.7099,-294.1117 846.5136,-297.2391 846.5136,-297.2391"/>
<ellipse fill="none" stroke="#000000" cx="843.319" cy="-297.0525" rx="3.2" ry="3.2"/>
</g>
<!-- form_phq9&#45;&gt;users -->
<g id="edge20" class="edge">
<title>form_phq9:w&#45;&gt;users:e</title>
<path fill="none" stroke="#000000" d="M840.0367,-296.8032C805.7014,-292.2499 795.6604,-271.6997 755,-263.7055 540.5038,-221.5339 482.5074,-241.1528 264,-234.7055 201.8048,-232.8704 170.9811,-193.9087 124,-234.7055 75.5334,-276.7924 147.6896,-520.7055 83.5,-520.7055"/>
<polygon fill="#000000" stroke="#000000" points="846.5155,-297.2074 854.2758,-301.2986 850.5078,-297.4565 854.5,-297.7055 854.5,-297.7055 854.5,-297.7055 850.5078,-297.4565 854.7242,-294.1125 846.5155,-297.2074 846.5155,-297.2074"/>
<ellipse fill="none" stroke="#000000" cx="843.3217" cy="-297.0081" rx="3.2" ry="3.2"/>
</g>
<!-- form_phq9&#45;&gt;patient_data -->
<g id="edge19" class="edge">
<title>form_phq9:w&#45;&gt;patient_data:e</title>
<path fill="none" stroke="#000000" d="M839.8002,-298.5665C804.9116,-302.939 794.8296,-323.0138 755,-336.7055 554.1931,-405.7345 475.0476,-357.0014 297,-472.7055 273.4747,-487.9934 284.0564,-520.7055 256,-520.7055"/>
<polygon fill="#000000" stroke="#000000" points="846.5137,-298.1733 854.7105,-301.2994 850.5068,-297.9394 854.5,-297.7055 854.5,-297.7055 854.5,-297.7055 850.5068,-297.9394 854.2895,-294.1117 846.5137,-298.1733 846.5137,-298.1733"/>
<ellipse fill="none" stroke="#000000" cx="843.3192" cy="-298.3604" rx="3.2" ry="3.2"/>
</g>
<!-- form_physical_exam -->
<g id="node12" class="node">
<title>form_physical_exam</title>
<g id="a_node12"><a xlink:href="../../tables/form_physical_exam.html" xlink:title="form_physical_exam" target="_top">
<polygon fill="#ffffff" stroke="transparent" points="796,-872.7055 796,-1050.7055 1023,-1050.7055 1023,-872.7055 796,-872.7055"/>
<polygon fill="#f5f5f5" stroke="transparent" points="798.5,-1025.7055 798.5,-1048.7055 1021.5,-1048.7055 1021.5,-1025.7055 798.5,-1025.7055"/>
<polygon fill="none" stroke="#000000" points="798.5,-1025.7055 798.5,-1048.7055 1021.5,-1048.7055 1021.5,-1025.7055 798.5,-1025.7055"/>
<text text-anchor="start" x="803.5" y="-1034.3055" font-family="Helvetica,sans-Serif" font-weight="bold" font-size="11.00" fill="#000000">form_physical_exam</text>
<text text-anchor="start" x="986.5437" y="-1033.8055" font-family="Helvetica,sans-Serif" font-size="11.00" fill="#000000">[table]</text>
<polygon fill="none" stroke="#000000" points="798.5,-1003.7055 798.5,-1025.7055 954.5,-1025.7055 954.5,-1003.7055 798.5,-1003.7055"/>
<image xlink:href="../../images/primaryKeys.png" width="11px" height="12px" preserveAspectRatio="xMinYMin meet" x="803.5" y="-1020.71"/>
<text text-anchor="start" x="818.5" y="-1010.8055" font-family="Helvetica,sans-Serif" font-size="11.00" fill="#000000">forms_id</text>
<polygon fill="none" stroke="#000000" points="954.5,-1003.7055 954.5,-1025.7055 1021.5,-1025.7055 1021.5,-1003.7055 954.5,-1003.7055"/>
<text text-anchor="start" x="957.5" y="-1011.4055" font-family="Helvetica,sans-Serif" font-size="11.00" fill="#000000">bigint[19]</text>
<polygon fill="none" stroke="#000000" points="798.5,-981.7055 798.5,-1003.7055 954.5,-1003.7055 954.5,-981.7055 798.5,-981.7055"/>
<image xlink:href="../../images/primaryKeys.png" width="11px" height="12px" preserveAspectRatio="xMinYMin meet" x="803.5" y="-998.706"/>
<text text-anchor="start" x="818.5" y="-988.8055" font-family="Helvetica,sans-Serif" font-size="11.00" fill="#000000">line_id</text>
<polygon fill="none" stroke="#000000" points="954.5,-981.7055 954.5,-1003.7055 1021.5,-1003.7055 1021.5,-981.7055 954.5,-981.7055"/>
<text text-anchor="start" x="957.5" y="-989.4055" font-family="Helvetica,sans-Serif" font-size="11.00" fill="#000000">char[8]</text>
<polygon fill="none" stroke="#000000" points="798.5,-959.7055 798.5,-981.7055 954.5,-981.7055 954.5,-959.7055 798.5,-959.7055"/>
<text text-anchor="start" x="818.5" y="-966.8055" font-family="Helvetica,sans-Serif" font-size="11.00" fill="#000000">wnl</text>
<polygon fill="none" stroke="#000000" points="954.5,-959.7055 954.5,-981.7055 1021.5,-981.7055 1021.5,-959.7055 954.5,-959.7055"/>
<text text-anchor="start" x="957.5" y="-967.4055" font-family="Helvetica,sans-Serif" font-size="11.00" fill="#000000">bit[1]</text>
<polygon fill="none" stroke="#000000" points="798.5,-937.7055 798.5,-959.7055 954.5,-959.7055 954.5,-937.7055 798.5,-937.7055"/>
<text text-anchor="start" x="818.5" y="-944.8055" font-family="Helvetica,sans-Serif" font-size="11.00" fill="#000000">abn</text>
<polygon fill="none" stroke="#000000" points="954.5,-937.7055 954.5,-959.7055 1021.5,-959.7055 1021.5,-937.7055 954.5,-937.7055"/>
<text text-anchor="start" x="957.5" y="-945.4055" font-family="Helvetica,sans-Serif" font-size="11.00" fill="#000000">bit[1]</text>
<polygon fill="none" stroke="#000000" points="798.5,-915.7055 798.5,-937.7055 954.5,-937.7055 954.5,-915.7055 798.5,-915.7055"/>
<image xlink:href="../../images/foreignKeys.png" width="11px" height="12px" preserveAspectRatio="xMinYMin meet" x="803.5" y="-932.706"/>
<text text-anchor="start" x="818.5" y="-922.8055" font-family="Helvetica,sans-Serif" font-size="11.00" fill="#000000">diagnosis</text>
<polygon fill="none" stroke="#000000" points="954.5,-915.7055 954.5,-937.7055 1021.5,-937.7055 1021.5,-915.7055 954.5,-915.7055"/>
<text text-anchor="start" x="957.4365" y="-923.4055" font-family="Helvetica,sans-Serif" font-size="11.00" fill="#000000">varchar[255]</text>
<polygon fill="none" stroke="#000000" points="798.5,-893.7055 798.5,-915.7055 954.5,-915.7055 954.5,-893.7055 798.5,-893.7055"/>
<text text-anchor="start" x="818.5" y="-900.8055" font-family="Helvetica,sans-Serif" font-size="11.00" fill="#000000">comments</text>
<polygon fill="none" stroke="#000000" points="954.5,-893.7055 954.5,-915.7055 1021.5,-915.7055 1021.5,-893.7055 954.5,-893.7055"/>
<text text-anchor="start" x="957.4365" y="-901.4055" font-family="Helvetica,sans-Serif" font-size="11.00" fill="#000000">varchar[255]</text>
<polygon fill="#ffffff" stroke="transparent" points="798.5,-874.7055 798.5,-893.7055 880.5,-893.7055 880.5,-874.7055 798.5,-874.7055"/>
<polygon fill="none" stroke="#000000" points="798.5,-874.7055 798.5,-893.7055 880.5,-893.7055 880.5,-874.7055 798.5,-874.7055"/>
<text text-anchor="start" x="801.5" y="-880.8055" font-family="Helvetica,sans-Serif" font-size="11.00" fill="#000000">&lt; 3</text>
<polygon fill="#ffffff" stroke="transparent" points="880.5,-874.7055 880.5,-893.7055 954.5,-893.7055 954.5,-874.7055 880.5,-874.7055"/>
<polygon fill="none" stroke="#000000" points="880.5,-874.7055 880.5,-893.7055 954.5,-893.7055 954.5,-874.7055 880.5,-874.7055"/>
<text text-anchor="start" x="945.3862" y="-880.8055" font-family="Helvetica,sans-Serif" font-size="11.00" fill="#000000"> &#160;</text>
<polygon fill="#ffffff" stroke="transparent" points="954.5,-874.7055 954.5,-893.7055 1021.5,-893.7055 1021.5,-874.7055 954.5,-874.7055"/>
<polygon fill="none" stroke="#000000" points="954.5,-874.7055 954.5,-893.7055 1021.5,-893.7055 1021.5,-874.7055 954.5,-874.7055"/>
<text text-anchor="start" x="1002.9053" y="-880.8055" font-family="Helvetica,sans-Serif" font-size="11.00" fill="#000000">0 &gt;</text>
<polygon fill="none" stroke="#000000" stroke-width="2" points="797,-873.7055 797,-1049.7055 1022,-1049.7055 1022,-873.7055 797,-873.7055"/>
</a>
</g>
</g>
<!-- form_physical_exam&#45;&gt;forms -->
<g id="edge22" class="edge">
<title>form_physical_exam:w&#45;&gt;forms:e</title>
<path fill="none" stroke="#000000" d="M784.1223,-1012.7245C749.0915,-1001.2958 775.166,-942.6963 755,-896.7055 730.1358,-840.0001 753.4171,-772.7055 691.5,-772.7055"/>
<polygon fill="#000000" stroke="#000000" points="790.5749,-1013.6135 798.0086,-1018.2718 794.5374,-1014.1595 798.5,-1014.7055 798.5,-1014.7055 798.5,-1014.7055 794.5374,-1014.1595 798.9914,-1011.1392 790.5749,-1013.6135 790.5749,-1013.6135"/>
<ellipse fill="none" stroke="#000000" cx="787.4048" cy="-1013.1767" rx="3.2" ry="3.2"/>
</g>
<!-- form_physical_exam_diagnoses -->
<g id="node13" class="node">
<title>form_physical_exam_diagnoses</title>
<g id="a_node13"><a xlink:href="../../tables/form_physical_exam_diagnoses.html" xlink:title="form_physical_exam_diagnoses" target="_top">
<polygon fill="#ffffff" stroke="transparent" points="498,-907.7055 498,-1015.7055 747,-1015.7055 747,-907.7055 498,-907.7055"/>
<polygon fill="#f5f5f5" stroke="transparent" points="498.5,-992.7055 498.5,-1015.7055 747.5,-1015.7055 747.5,-992.7055 498.5,-992.7055"/>
<polygon fill="none" stroke="#000000" points="498.5,-992.7055 498.5,-1015.7055 747.5,-1015.7055 747.5,-992.7055 498.5,-992.7055"/>
<text text-anchor="start" x="503.5" y="-1001.3055" font-family="Helvetica,sans-Serif" font-weight="bold" font-size="11.00" fill="#000000">form_physical_exam_diagnoses</text>
<text text-anchor="start" x="713.0219" y="-1000.8055" font-family="Helvetica,sans-Serif" font-size="11.00" fill="#000000">[table]</text>
<polygon fill="none" stroke="#000000" points="498.5,-970.7055 498.5,-992.7055 747.5,-992.7055 747.5,-970.7055 498.5,-970.7055"/>
<image xlink:href="../../images/primaryKeys.png" width="11px" height="12px" preserveAspectRatio="xMinYMin meet" x="503.5" y="-987.706"/>
<text text-anchor="start" x="527.5" y="-977.8055" font-family="Helvetica,sans-Serif" font-size="11.00" fill="#000000">line_id</text>
<polygon fill="#ffffff" stroke="transparent" points="498.5,-948.7055 498.5,-970.7055 747.5,-970.7055 747.5,-948.7055 498.5,-948.7055"/>
<polygon fill="none" stroke="#000000" points="498.5,-948.7055 498.5,-970.7055 747.5,-970.7055 747.5,-948.7055 498.5,-948.7055"/>
<text text-anchor="start" x="527.5" y="-955.8055" font-family="Helvetica,sans-Serif" font-size="11.00" fill="#000000">ordering</text>
<polygon fill="none" stroke="#000000" points="498.5,-926.7055 498.5,-948.7055 747.5,-948.7055 747.5,-926.7055 498.5,-926.7055"/>
<image xlink:href="../../images/primaryKeys.png" width="11px" height="12px" preserveAspectRatio="xMinYMin meet" x="503.5" y="-943.706"/>
<text text-anchor="start" x="527.5" y="-933.8055" font-family="Helvetica,sans-Serif" font-size="11.00" fill="#000000">diagnosis</text>
<polygon fill="#ffffff" stroke="transparent" points="498.5,-907.7055 498.5,-926.7055 612.5,-926.7055 612.5,-907.7055 498.5,-907.7055"/>
<polygon fill="none" stroke="#000000" points="498.5,-907.7055 498.5,-926.7055 612.5,-926.7055 612.5,-907.7055 498.5,-907.7055"/>
<text text-anchor="start" x="501.5" y="-913.8055" font-family="Helvetica,sans-Serif" font-size="11.00" fill="#000000"> &#160;</text>
<polygon fill="#ffffff" stroke="transparent" points="612.5,-907.7055 612.5,-926.7055 675.5,-926.7055 675.5,-907.7055 612.5,-907.7055"/>
<polygon fill="none" stroke="#000000" points="612.5,-907.7055 612.5,-926.7055 675.5,-926.7055 675.5,-907.7055 612.5,-907.7055"/>
<text text-anchor="start" x="666.3862" y="-913.8055" font-family="Helvetica,sans-Serif" font-size="11.00" fill="#000000"> &#160;</text>
<polygon fill="#ffffff" stroke="transparent" points="675.5,-907.7055 675.5,-926.7055 747.5,-926.7055 747.5,-907.7055 675.5,-907.7055"/>
<polygon fill="none" stroke="#000000" points="675.5,-907.7055 675.5,-926.7055 747.5,-926.7055 747.5,-907.7055 675.5,-907.7055"/>
<text text-anchor="start" x="728.9053" y="-913.8055" font-family="Helvetica,sans-Serif" font-size="11.00" fill="#000000">2 &gt;</text>
</a>
</g>
</g>
<!-- form_physical_exam&#45;&gt;form_physical_exam_diagnoses -->
<g id="edge21" class="edge">
<title>form_physical_exam:w&#45;&gt;form_physical_exam_diagnoses:e</title>
<path fill="none" stroke="#000000" d="M784.0097,-928.4243C771.8398,-931.518 764.8909,-937.7055 747.5,-937.7055"/>
<polygon fill="#000000" stroke="#000000" points="790.5557,-927.6479 798.9241,-930.2805 794.5278,-927.1767 798.5,-926.7055 798.5,-926.7055 798.5,-926.7055 794.5278,-927.1767 798.0759,-923.1306 790.5557,-927.6479 790.5557,-927.6479"/>
<ellipse fill="none" stroke="#000000" cx="787.378" cy="-928.0248" rx="3.2" ry="3.2"/>
</g>
<!-- form_physical_exam&#45;&gt;form_physical_exam_diagnoses -->
<g id="edge23" class="edge">
<title>form_physical_exam:w&#45;&gt;form_physical_exam_diagnoses:e</title>
<path fill="none" stroke="#000000" d="M784.0097,-990.9868C771.8398,-987.893 764.8909,-981.7055 747.5,-981.7055"/>
<polygon fill="#000000" stroke="#000000" points="790.5557,-991.7632 798.0759,-996.2805 794.5278,-992.2344 798.5,-992.7055 798.5,-992.7055 798.5,-992.7055 794.5278,-992.2344 798.9241,-989.1306 790.5557,-991.7632 790.5557,-991.7632"/>
<ellipse fill="none" stroke="#000000" cx="787.378" cy="-991.3862" rx="3.2" ry="3.2"/>
</g>
<!-- form_prior_auth -->
<g id="node14" class="node">
<title>form_prior_auth</title>
<g id="a_node14"><a xlink:href="../../tables/form_prior_auth.html" xlink:title="form_prior_auth" target="_top">
<polygon fill="#ffffff" stroke="transparent" points="836.5,-516.2055 836.5,-577.2055 982.5,-577.2055 982.5,-516.2055 836.5,-516.2055"/>
<polygon fill="#f5f5f5" stroke="transparent" points="836.5,-553.7055 836.5,-576.7055 982.5,-576.7055 982.5,-553.7055 836.5,-553.7055"/>
<polygon fill="none" stroke="#000000" points="836.5,-553.7055 836.5,-576.7055 982.5,-576.7055 982.5,-553.7055 836.5,-553.7055"/>
<text text-anchor="start" x="841.5" y="-562.3055" font-family="Helvetica,sans-Serif" font-weight="bold" font-size="11.00" fill="#000000">form_prior_auth</text>
<text text-anchor="start" x="948.0219" y="-561.8055" font-family="Helvetica,sans-Serif" font-size="11.00" fill="#000000">[table]</text>
<polygon fill="none" stroke="#000000" points="836.5,-534.7055 836.5,-553.7055 982.5,-553.7055 982.5,-534.7055 836.5,-534.7055"/>
<text text-anchor="start" x="839.5" y="-540.8055" font-family="Helvetica,sans-Serif" font-size="11.00" fill="#000000">...</text>
<polygon fill="#ffffff" stroke="transparent" points="836.5,-515.7055 836.5,-534.7055 907.5,-534.7055 907.5,-515.7055 836.5,-515.7055"/>
<polygon fill="none" stroke="#000000" points="836.5,-515.7055 836.5,-534.7055 907.5,-534.7055 907.5,-515.7055 836.5,-515.7055"/>
<text text-anchor="start" x="839.5" y="-521.8055" font-family="Helvetica,sans-Serif" font-size="11.00" fill="#000000">&lt; 2</text>
<polygon fill="#ffffff" stroke="transparent" points="907.5,-515.7055 907.5,-534.7055 944.5,-534.7055 944.5,-515.7055 907.5,-515.7055"/>
<polygon fill="none" stroke="#000000" points="907.5,-515.7055 907.5,-534.7055 944.5,-534.7055 944.5,-515.7055 907.5,-515.7055"/>
<text text-anchor="start" x="935.3862" y="-521.8055" font-family="Helvetica,sans-Serif" font-size="11.00" fill="#000000"> &#160;</text>
<polygon fill="#ffffff" stroke="transparent" points="944.5,-515.7055 944.5,-534.7055 982.5,-534.7055 982.5,-515.7055 944.5,-515.7055"/>
<polygon fill="none" stroke="#000000" points="944.5,-515.7055 944.5,-534.7055 982.5,-534.7055 982.5,-515.7055 944.5,-515.7055"/>
<text text-anchor="start" x="973.3862" y="-521.8055" font-family="Helvetica,sans-Serif" font-size="11.00" fill="#000000"> &#160;</text>
</a>
</g>
</g>
<!-- form_prior_auth&#45;&gt;forms -->
<g id="edge24" class="edge">
<title>form_prior_auth:w&#45;&gt;forms:e</title>
<path fill="none" stroke="#000000" d="M826.0917,-544.3754C736.3193,-556.4847 792.2954,-728.7055 691.5,-728.7055"/>
<polygon fill="#000000" stroke="#000000" points="835.4447,-539.7652 835.9586,-547.7487 834.3619,-547.8514 833.848,-539.868 835.4447,-539.7652"/>
<polyline fill="none" stroke="#000000" points="836.5,-543.7055 832.5083,-543.9625 "/>
<ellipse fill="none" stroke="#000000" cx="829.3149" cy="-544.168" rx="3.2" ry="3.2"/>
</g>
<!-- form_prior_auth&#45;&gt;patient_data -->
<g id="edge25" class="edge">
<title>form_prior_auth:w&#45;&gt;patient_data:e</title>
<path fill="none" stroke="#000000" d="M821.9592,-543.45C796.9331,-542.5139 785.8906,-539.2464 755,-537.7055 551.6275,-527.5609 500.0715,-540.7141 297,-525.7055 278.6927,-524.3525 274.3572,-520.7055 256,-520.7055"/>
<polygon fill="#000000" stroke="#000000" points="828.5012,-543.5649 836.4367,-547.305 832.5006,-543.6352 836.5,-543.7055 836.5,-543.7055 836.5,-543.7055 832.5006,-543.6352 836.5633,-540.1061 828.5012,-543.5649 828.5012,-543.5649"/>
<ellipse fill="none" stroke="#000000" cx="825.3017" cy="-543.5087" rx="3.2" ry="3.2"/>
</g>
<!-- form_sdoh -->
<g id="node15" class="node">
<title>form_sdoh</title>
<g id="a_node15"><a xlink:href="../../tables/form_sdoh.html" xlink:title="form_sdoh" target="_top">
<polygon fill="#ffffff" stroke="transparent" points="855,-188.2055 855,-249.2055 964,-249.2055 964,-188.2055 855,-188.2055"/>
<polygon fill="#f5f5f5" stroke="transparent" points="855.5,-225.7055 855.5,-248.7055 964.5,-248.7055 964.5,-225.7055 855.5,-225.7055"/>
<polygon fill="none" stroke="#000000" points="855.5,-225.7055 855.5,-248.7055 964.5,-248.7055 964.5,-225.7055 855.5,-225.7055"/>
<text text-anchor="start" x="860.5" y="-234.3055" font-family="Helvetica,sans-Serif" font-weight="bold" font-size="11.00" fill="#000000">form_sdoh</text>
<text text-anchor="start" x="930.0219" y="-233.8055" font-family="Helvetica,sans-Serif" font-size="11.00" fill="#000000">[table]</text>
<polygon fill="none" stroke="#000000" points="855.5,-206.7055 855.5,-225.7055 964.5,-225.7055 964.5,-206.7055 855.5,-206.7055"/>
<text text-anchor="start" x="858.5" y="-212.8055" font-family="Helvetica,sans-Serif" font-size="11.00" fill="#000000">...</text>
<polygon fill="#ffffff" stroke="transparent" points="855.5,-187.7055 855.5,-206.7055 908.5,-206.7055 908.5,-187.7055 855.5,-187.7055"/>
<polygon fill="none" stroke="#000000" points="855.5,-187.7055 855.5,-206.7055 908.5,-206.7055 908.5,-187.7055 855.5,-187.7055"/>
<text text-anchor="start" x="858.5" y="-193.8055" font-family="Helvetica,sans-Serif" font-size="11.00" fill="#000000">&lt; 4</text>
<polygon fill="#ffffff" stroke="transparent" points="908.5,-187.7055 908.5,-206.7055 936.5,-206.7055 936.5,-187.7055 908.5,-187.7055"/>
<polygon fill="none" stroke="#000000" points="908.5,-187.7055 908.5,-206.7055 936.5,-206.7055 936.5,-187.7055 908.5,-187.7055"/>
<text text-anchor="start" x="927.3862" y="-193.8055" font-family="Helvetica,sans-Serif" font-size="11.00" fill="#000000"> &#160;</text>
<polygon fill="#ffffff" stroke="transparent" points="936.5,-187.7055 936.5,-206.7055 964.5,-206.7055 964.5,-187.7055 936.5,-187.7055"/>
<polygon fill="none" stroke="#000000" points="936.5,-187.7055 936.5,-206.7055 964.5,-206.7055 964.5,-187.7055 936.5,-187.7055"/>
<text text-anchor="start" x="955.3862" y="-193.8055" font-family="Helvetica,sans-Serif" font-size="11.00" fill="#000000"> &#160;</text>
</a>
</g>
</g>
<!-- form_sdoh&#45;&gt;forms -->
<g id="edge27" class="edge">
<title>form_sdoh:w&#45;&gt;forms:e</title>
<path fill="none" stroke="#000000" d="M845.0073,-216.0546C625.5337,-231.1183 927.2442,-728.7055 691.5,-728.7055"/>
<polygon fill="#000000" stroke="#000000" points="854.5674,-211.7344 854.8335,-219.7299 853.2344,-219.7831 852.9683,-211.7876 854.5674,-211.7344"/>
<polyline fill="none" stroke="#000000" points="855.5,-215.7055 851.5022,-215.8386 "/>
<ellipse fill="none" stroke="#000000" cx="848.304" cy="-215.945" rx="3.2" ry="3.2"/>
</g>
<!-- form_sdoh&#45;&gt;groups -->
<g id="edge26" class="edge">
<title>form_sdoh:w&#45;&gt;groups:e</title>
<path fill="none" stroke="#000000" d="M840.7712,-215.7054C603.9675,-215.708 537.5166,-216.1763 297,-256.7055 269.7852,-261.2915 264.5985,-272.7055 237,-272.7055"/>
<polygon fill="#000000" stroke="#000000" points="847.5,-215.7054 855.5,-219.3055 851.5,-215.7055 855.5,-215.7055 855.5,-215.7055 855.5,-215.7055 851.5,-215.7055 855.5,-212.1055 847.5,-215.7054 847.5,-215.7054"/>
<ellipse fill="none" stroke="#000000" cx="844.3" cy="-215.7054" rx="3.2" ry="3.2"/>
</g>
<!-- form_sdoh&#45;&gt;users -->
<g id="edge29" class="edge">
<title>form_sdoh:w&#45;&gt;users:e</title>
<path fill="none" stroke="#000000" d="M840.8479,-215.5591C525.4667,-209.2552 364.7604,-2.6207 124,-213.7055 72.2574,-259.0705 152.3133,-520.7055 83.5,-520.7055"/>
<polygon fill="#000000" stroke="#000000" points="847.5004,-215.6255 855.464,-219.3054 851.5002,-215.6655 855.5,-215.7055 855.5,-215.7055 855.5,-215.7055 851.5002,-215.6655 855.536,-212.1057 847.5004,-215.6255 847.5004,-215.6255"/>
<ellipse fill="none" stroke="#000000" cx="844.3006" cy="-215.5935" rx="3.2" ry="3.2"/>
</g>
<!-- form_sdoh&#45;&gt;patient_data -->
<g id="edge28" class="edge">
<title>form_sdoh:w&#45;&gt;patient_data:e</title>
<path fill="none" stroke="#000000" d="M841.0926,-216.5248C805.4162,-220.8585 795.3733,-241.4495 755,-255.7055 654.5227,-291.1847 373.1099,-323.1283 297,-397.7055 255.8416,-438.0351 313.6237,-520.7055 256,-520.7055"/>
<polygon fill="#000000" stroke="#000000" points="847.5129,-216.1598 855.7044,-219.2997 851.5065,-215.9326 855.5,-215.7055 855.5,-215.7055 855.5,-215.7055 851.5065,-215.9326 855.2956,-212.1113 847.5129,-216.1598 847.5129,-216.1598"/>
<ellipse fill="none" stroke="#000000" cx="844.3181" cy="-216.3414" rx="3.2" ry="3.2"/>
</g>
<!-- form_transfer_summary -->
<g id="node16" class="node">
<title>form_transfer_summary</title>
<g id="a_node16"><a xlink:href="../../tables/form_transfer_summary.html" xlink:title="form_transfer_summary" target="_top">
<polygon fill="#ffffff" stroke="transparent" points="809.5,-790.2055 809.5,-851.2055 1009.5,-851.2055 1009.5,-790.2055 809.5,-790.2055"/>
<polygon fill="#f5f5f5" stroke="transparent" points="809.5,-827.7055 809.5,-850.7055 1009.5,-850.7055 1009.5,-827.7055 809.5,-827.7055"/>
<polygon fill="none" stroke="#000000" points="809.5,-827.7055 809.5,-850.7055 1009.5,-850.7055 1009.5,-827.7055 809.5,-827.7055"/>
<text text-anchor="start" x="814.5" y="-836.3055" font-family="Helvetica,sans-Serif" font-weight="bold" font-size="11.00" fill="#000000">form_transfer_summary</text>
<text text-anchor="start" x="975.0219" y="-835.8055" font-family="Helvetica,sans-Serif" font-size="11.00" fill="#000000">[table]</text>
<polygon fill="none" stroke="#000000" points="809.5,-808.7055 809.5,-827.7055 1009.5,-827.7055 1009.5,-808.7055 809.5,-808.7055"/>
<text text-anchor="start" x="812.5" y="-814.8055" font-family="Helvetica,sans-Serif" font-size="11.00" fill="#000000">...</text>
<polygon fill="#ffffff" stroke="transparent" points="809.5,-789.7055 809.5,-808.7055 907.5,-808.7055 907.5,-789.7055 809.5,-789.7055"/>
<polygon fill="none" stroke="#000000" points="809.5,-789.7055 809.5,-808.7055 907.5,-808.7055 907.5,-789.7055 809.5,-789.7055"/>
<text text-anchor="start" x="812.5" y="-795.8055" font-family="Helvetica,sans-Serif" font-size="11.00" fill="#000000">&lt; 2</text>
<polygon fill="#ffffff" stroke="transparent" points="907.5,-789.7055 907.5,-808.7055 958.5,-808.7055 958.5,-789.7055 907.5,-789.7055"/>
<polygon fill="none" stroke="#000000" points="907.5,-789.7055 907.5,-808.7055 958.5,-808.7055 958.5,-789.7055 907.5,-789.7055"/>
<text text-anchor="start" x="949.3862" y="-795.8055" font-family="Helvetica,sans-Serif" font-size="11.00" fill="#000000"> &#160;</text>
<polygon fill="#ffffff" stroke="transparent" points="958.5,-789.7055 958.5,-808.7055 1009.5,-808.7055 1009.5,-789.7055 958.5,-789.7055"/>
<polygon fill="none" stroke="#000000" points="958.5,-789.7055 958.5,-808.7055 1009.5,-808.7055 1009.5,-789.7055 958.5,-789.7055"/>
<text text-anchor="start" x="1000.3862" y="-795.8055" font-family="Helvetica,sans-Serif" font-size="11.00" fill="#000000"> &#160;</text>
</a>
</g>
</g>
<!-- form_transfer_summary&#45;&gt;forms -->
<g id="edge30" class="edge">
<title>form_transfer_summary:w&#45;&gt;forms:e</title>
<path fill="none" stroke="#000000" d="M799.0702,-816.8813C745.0727,-807.909 753.4685,-728.7055 691.5,-728.7055"/>
<polygon fill="#000000" stroke="#000000" points="809.0176,-813.6549 808.3873,-821.6301 806.7923,-821.504 807.4226,-813.5289 809.0176,-813.6549"/>
<polyline fill="none" stroke="#000000" points="809.5,-817.7055 805.5124,-817.3904 "/>
<ellipse fill="none" stroke="#000000" cx="802.3224" cy="-817.1382" rx="3.2" ry="3.2"/>
</g>
<!-- form_transfer_summary&#45;&gt;patient_data -->
<g id="edge31" class="edge">
<title>form_transfer_summary:w&#45;&gt;patient_data:e</title>
<path fill="none" stroke="#000000" d="M794.9575,-819.6794C781.121,-823.8388 774.5618,-833.3934 755,-836.7055 638.875,-856.3672 604.8767,-862.6851 490,-836.7055 397.3157,-815.7448 354.7724,-820.1514 297,-744.7055 266.2338,-704.5275 306.6047,-520.7055 256,-520.7055"/>
<polygon fill="#000000" stroke="#000000" points="801.5727,-818.7816 809.9842,-821.2728 805.5363,-818.2436 809.5,-817.7055 809.5,-817.7055 809.5,-817.7055 805.5363,-818.2436 809.0158,-814.1382 801.5727,-818.7816 801.5727,-818.7816"/>
<ellipse fill="none" stroke="#000000" cx="798.4018" cy="-819.212" rx="3.2" ry="3.2"/>
</g>
<!-- form_treatment_plan -->
<g id="node17" class="node">
<title>form_treatment_plan</title>
<g id="a_node17"><a xlink:href="../../tables/form_treatment_plan.html" xlink:title="form_treatment_plan" target="_top">
<polygon fill="#ffffff" stroke="transparent" points="819.5,-106.2055 819.5,-167.2055 999.5,-167.2055 999.5,-106.2055 819.5,-106.2055"/>
<polygon fill="#f5f5f5" stroke="transparent" points="819.5,-143.7055 819.5,-166.7055 999.5,-166.7055 999.5,-143.7055 819.5,-143.7055"/>
<polygon fill="none" stroke="#000000" points="819.5,-143.7055 819.5,-166.7055 999.5,-166.7055 999.5,-143.7055 819.5,-143.7055"/>
<text text-anchor="start" x="824.5" y="-152.3055" font-family="Helvetica,sans-Serif" font-weight="bold" font-size="11.00" fill="#000000">form_treatment_plan</text>
<text text-anchor="start" x="965.0219" y="-151.8055" font-family="Helvetica,sans-Serif" font-size="11.00" fill="#000000">[table]</text>
<polygon fill="none" stroke="#000000" points="819.5,-124.7055 819.5,-143.7055 999.5,-143.7055 999.5,-124.7055 819.5,-124.7055"/>
<text text-anchor="start" x="822.5" y="-130.8055" font-family="Helvetica,sans-Serif" font-size="11.00" fill="#000000">...</text>
<polygon fill="#ffffff" stroke="transparent" points="819.5,-105.7055 819.5,-124.7055 907.5,-124.7055 907.5,-105.7055 819.5,-105.7055"/>
<polygon fill="none" stroke="#000000" points="819.5,-105.7055 819.5,-124.7055 907.5,-124.7055 907.5,-105.7055 819.5,-105.7055"/>
<text text-anchor="start" x="822.5" y="-111.8055" font-family="Helvetica,sans-Serif" font-size="11.00" fill="#000000">&lt; 4</text>
<polygon fill="#ffffff" stroke="transparent" points="907.5,-105.7055 907.5,-124.7055 953.5,-124.7055 953.5,-105.7055 907.5,-105.7055"/>
<polygon fill="none" stroke="#000000" points="907.5,-105.7055 907.5,-124.7055 953.5,-124.7055 953.5,-105.7055 907.5,-105.7055"/>
<text text-anchor="start" x="944.3862" y="-111.8055" font-family="Helvetica,sans-Serif" font-size="11.00" fill="#000000"> &#160;</text>
<polygon fill="#ffffff" stroke="transparent" points="953.5,-105.7055 953.5,-124.7055 999.5,-124.7055 999.5,-105.7055 953.5,-105.7055"/>
<polygon fill="none" stroke="#000000" points="953.5,-105.7055 953.5,-124.7055 999.5,-124.7055 999.5,-105.7055 953.5,-105.7055"/>
<text text-anchor="start" x="990.3862" y="-111.8055" font-family="Helvetica,sans-Serif" font-size="11.00" fill="#000000"> &#160;</text>
</a>
</g>
</g>
<!-- form_treatment_plan&#45;&gt;forms -->
<g id="edge33" class="edge">
<title>form_treatment_plan:w&#45;&gt;forms:e</title>
<path fill="none" stroke="#000000" d="M809.0171,-135.0158C691.8378,-165.7997 823.049,-728.7055 691.5,-728.7055"/>
<polygon fill="#000000" stroke="#000000" points="818.21,-129.8357 819.2023,-137.7739 817.6147,-137.9723 816.6224,-130.0341 818.21,-129.8357"/>
<polyline fill="none" stroke="#000000" points="819.5,-133.7055 815.5309,-134.2017 "/>
<ellipse fill="none" stroke="#000000" cx="812.3556" cy="-134.5986" rx="3.2" ry="3.2"/>
</g>
<!-- form_treatment_plan&#45;&gt;groups -->
<g id="edge32" class="edge">
<title>form_treatment_plan:w&#45;&gt;groups:e</title>
<path fill="none" stroke="#000000" d="M804.8459,-133.7112C580.4244,-133.8988 509.7458,-139.3151 297,-229.7055 266.8047,-242.5348 269.8077,-272.7055 237,-272.7055"/>
<polygon fill="#000000" stroke="#000000" points="811.5,-133.7087 819.5014,-137.3055 815.5,-133.7071 819.5,-133.7055 819.5,-133.7055 819.5,-133.7055 815.5,-133.7071 819.4986,-130.1055 811.5,-133.7087 811.5,-133.7087"/>
<ellipse fill="none" stroke="#000000" cx="808.3" cy="-133.7099" rx="3.2" ry="3.2"/>
</g>
<!-- form_treatment_plan&#45;&gt;users -->
<g id="edge35" class="edge">
<title>form_treatment_plan:w&#45;&gt;users:e</title>
<path fill="none" stroke="#000000" d="M804.6693,-133.537C505.0759,-126.7329 342.651,82.6988 124,-128.7055 61.0407,-189.5782 171.0748,-520.7055 83.5,-520.7055"/>
<polygon fill="#000000" stroke="#000000" points="811.5005,-133.6146 819.4591,-137.3053 815.5003,-133.6601 819.5,-133.7055 819.5,-133.7055 819.5,-133.7055 815.5003,-133.6601 819.5409,-130.1058 811.5005,-133.6146 811.5005,-133.6146"/>
<ellipse fill="none" stroke="#000000" cx="808.3007" cy="-133.5782" rx="3.2" ry="3.2"/>
</g>
<!-- form_treatment_plan&#45;&gt;patient_data -->
<g id="edge34" class="edge">
<title>form_treatment_plan:w&#45;&gt;patient_data:e</title>
<path fill="none" stroke="#000000" d="M805.9035,-138.512C723.832,-168.1069 298.1444,-324.382 297,-325.7055 239.0751,-392.6971 344.5616,-520.7055 256,-520.7055"/>
<polygon fill="#000000" stroke="#000000" points="811.9574,-136.372 820.6999,-137.0997 815.7287,-135.0387 819.5,-133.7055 819.5,-133.7055 819.5,-133.7055 815.7287,-135.0387 818.3001,-130.3114 811.9574,-136.372 811.9574,-136.372"/>
<ellipse fill="none" stroke="#000000" cx="808.9404" cy="-137.4385" rx="3.2" ry="3.2"/>
</g>
<!-- lists&#45;&gt;groups -->
<g id="edge43" class="edge">
<title>lists:w&#45;&gt;groups:e</title>
<path fill="none" stroke="#000000" d="M329.4106,-592.544C300.1469,-582.3364 311.6065,-537.8203 297,-498.7055 260.6442,-401.3482 340.924,-272.7055 237,-272.7055"/>
<polygon fill="#000000" stroke="#000000" points="336.0864,-593.533 343.4724,-598.2667 340.0432,-594.1193 344,-594.7055 344,-594.7055 344,-594.7055 340.0432,-594.1193 344.5276,-591.1444 336.0864,-593.533 336.0864,-593.533"/>
<ellipse fill="none" stroke="#000000" cx="332.9209" cy="-593.064" rx="3.2" ry="3.2"/>
</g>
<!-- lists&#45;&gt;users -->
<g id="edge45" class="edge">
<title>lists:w&#45;&gt;users:e</title>
<path fill="none" stroke="#000000" d="M329.4524,-594.8167C241.7422,-596.139 207.0358,-608.0575 124,-564.7055 100.4392,-552.4047 110.0786,-520.7055 83.5,-520.7055"/>
<polygon fill="#000000" stroke="#000000" points="336.0002,-594.7667 344.0275,-598.3054 340.0001,-594.7361 344,-594.7055 344,-594.7055 344,-594.7055 340.0001,-594.7361 343.9725,-591.1056 336.0002,-594.7667 336.0002,-594.7667"/>
<ellipse fill="none" stroke="#000000" cx="332.8003" cy="-594.7912" rx="3.2" ry="3.2"/>
</g>
<!-- lists&#45;&gt;patient_data -->
<g id="edge44" class="edge">
<title>lists:w&#45;&gt;patient_data:e</title>
<path fill="none" stroke="#000000" d="M330.6081,-589.3836C306.6474,-572.4161 277.3588,-520.7055 256,-520.7055"/>
<polygon fill="#000000" stroke="#000000" points="336.5655,-591.7511 342.6705,-598.0511 340.2828,-593.2283 344,-594.7055 344,-594.7055 344,-594.7055 340.2828,-593.2283 345.3295,-591.36 336.5655,-591.7511 336.5655,-591.7511"/>
<ellipse fill="none" stroke="#000000" cx="333.5917" cy="-590.5693" rx="3.2" ry="3.2"/>
</g>
<!-- form_gad7 -->
<g id="node19" class="node">
<title>form_gad7</title>
<g id="a_node19"><a xlink:href="../../tables/form_gad7.html" xlink:title="form_gad7" target="_top">
<polygon fill="#ffffff" stroke="transparent" points="854.5,-352.2055 854.5,-413.2055 964.5,-413.2055 964.5,-352.2055 854.5,-352.2055"/>
<polygon fill="#f5f5f5" stroke="transparent" points="854.5,-389.7055 854.5,-412.7055 964.5,-412.7055 964.5,-389.7055 854.5,-389.7055"/>
<polygon fill="none" stroke="#000000" points="854.5,-389.7055 854.5,-412.7055 964.5,-412.7055 964.5,-389.7055 854.5,-389.7055"/>
<text text-anchor="start" x="859.5" y="-398.3055" font-family="Helvetica,sans-Serif" font-weight="bold" font-size="11.00" fill="#000000">form_gad7</text>
<text text-anchor="start" x="930.0219" y="-397.8055" font-family="Helvetica,sans-Serif" font-size="11.00" fill="#000000">[table]</text>
<polygon fill="none" stroke="#000000" points="854.5,-370.7055 854.5,-389.7055 964.5,-389.7055 964.5,-370.7055 854.5,-370.7055"/>
<text text-anchor="start" x="857.5" y="-376.8055" font-family="Helvetica,sans-Serif" font-size="11.00" fill="#000000">...</text>
<polygon fill="#ffffff" stroke="transparent" points="854.5,-351.7055 854.5,-370.7055 907.5,-370.7055 907.5,-351.7055 854.5,-351.7055"/>
<polygon fill="none" stroke="#000000" points="854.5,-351.7055 854.5,-370.7055 907.5,-370.7055 907.5,-351.7055 854.5,-351.7055"/>
<text text-anchor="start" x="857.5" y="-357.8055" font-family="Helvetica,sans-Serif" font-size="11.00" fill="#000000">&lt; 4</text>
<polygon fill="#ffffff" stroke="transparent" points="907.5,-351.7055 907.5,-370.7055 935.5,-370.7055 935.5,-351.7055 907.5,-351.7055"/>
<polygon fill="none" stroke="#000000" points="907.5,-351.7055 907.5,-370.7055 935.5,-370.7055 935.5,-351.7055 907.5,-351.7055"/>
<text text-anchor="start" x="926.3862" y="-357.8055" font-family="Helvetica,sans-Serif" font-size="11.00" fill="#000000"> &#160;</text>
<polygon fill="#ffffff" stroke="transparent" points="935.5,-351.7055 935.5,-370.7055 964.5,-370.7055 964.5,-351.7055 935.5,-351.7055"/>
<polygon fill="none" stroke="#000000" points="935.5,-351.7055 935.5,-370.7055 964.5,-370.7055 964.5,-351.7055 935.5,-351.7055"/>
<text text-anchor="start" x="955.3862" y="-357.8055" font-family="Helvetica,sans-Serif" font-size="11.00" fill="#000000"> &#160;</text>
</a>
</g>
</g>
<!-- form_gad7&#45;&gt;forms -->
<g id="edge47" class="edge">
<title>form_gad7:w&#45;&gt;forms:e</title>
<path fill="none" stroke="#000000" d="M839.8965,-380.6457C693.8454,-400.5165 857.5121,-728.7055 691.5,-728.7055"/>
<polygon fill="#000000" stroke="#000000" points="846.5165,-380.2196 854.7313,-383.2981 850.5083,-379.9626 854.5,-379.7055 854.5,-379.7055 854.5,-379.7055 850.5083,-379.9626 854.2687,-376.113 846.5165,-380.2196 846.5165,-380.2196"/>
<ellipse fill="none" stroke="#000000" cx="843.3231" cy="-380.4252" rx="3.2" ry="3.2"/>
</g>
<!-- form_gad7&#45;&gt;groups -->
<g id="edge46" class="edge">
<title>form_gad7:w&#45;&gt;groups:e</title>
<path fill="none" stroke="#000000" d="M839.9512,-378.8085C805.4305,-374.2725 795.4884,-353.6861 755,-343.7055 642.1895,-315.8972 353.1874,-272.7055 237,-272.7055"/>
<polygon fill="#000000" stroke="#000000" points="846.5152,-379.2132 854.2784,-383.2987 850.5076,-379.4594 854.5,-379.7055 854.5,-379.7055 854.5,-379.7055 850.5076,-379.4594 854.7216,-376.1124 846.5152,-379.2132 846.5152,-379.2132"/>
<ellipse fill="none" stroke="#000000" cx="843.3212" cy="-379.0162" rx="3.2" ry="3.2"/>
</g>
<!-- form_gad7&#45;&gt;users -->
<g id="edge49" class="edge">
<title>form_gad7:w&#45;&gt;users:e</title>
<path fill="none" stroke="#000000" d="M839.84,-379.6181C524.6429,-375.8579 386.928,-253.0404 124,-436.7055 90.0227,-460.4399 124.9461,-520.7055 83.5,-520.7055"/>
<polygon fill="#000000" stroke="#000000" points="846.5001,-379.6578 854.4785,-383.3055 850.5001,-379.6816 854.5,-379.7055 854.5,-379.7055 854.5,-379.7055 850.5001,-379.6816 854.5215,-376.1056 846.5001,-379.6578 846.5001,-379.6578"/>
<ellipse fill="none" stroke="#000000" cx="843.3002" cy="-379.6386" rx="3.2" ry="3.2"/>
</g>
<!-- form_gad7&#45;&gt;patient_data -->
<g id="edge48" class="edge">
<title>form_gad7:w&#45;&gt;patient_data:e</title>
<path fill="none" stroke="#000000" d="M839.8639,-380.6153C805.16,-385.2223 795.3696,-406.2075 755,-417.7055 639.6485,-450.5598 607.6135,-445.2013 490,-468.7055 404.0979,-485.8725 381.9943,-487.4961 297,-508.7055 278.5782,-513.3025 274.9867,-520.7055 256,-520.7055"/>
<polygon fill="#000000" stroke="#000000" points="846.5154,-380.2019 854.7234,-383.2986 850.5077,-379.9537 854.5,-379.7055 854.5,-379.7055 854.5,-379.7055 850.5077,-379.9537 854.2766,-376.1125 846.5154,-380.2019 846.5154,-380.2019"/>
<ellipse fill="none" stroke="#000000" cx="843.3216" cy="-380.4005" rx="3.2" ry="3.2"/>
</g>
</g>
</svg>
