<?xml version="1.0" encoding="UTF-8" standalone="no"?>
<!DOCTYPE svg PUBLIC "-//W3C//DTD SVG 1.1//EN"
 "http://www.w3.org/Graphics/SVG/1.1/DTD/svg11.dtd">
<!-- Generated by graphviz version 2.40.1 (20161225.0304)
 -->
<!-- Title: oneDegreeRelationshipsDiagram Pages: 1 -->
<svg width="426pt" height="953pt"
 viewBox="0.00 0.00 426.00 952.70" xmlns="http://www.w3.org/2000/svg" xmlns:xlink="http://www.w3.org/1999/xlink">
<g id="graph0" class="graph" transform="scale(1 1) rotate(0) translate(4 948.7)">
<title>oneDegreeRelationshipsDiagram</title>
<polygon fill="#ffffff" stroke="transparent" points="-4,4 -4,-948.7 422,-948.7 422,4 -4,4"/>
<text text-anchor="middle" x="72.4936" y="-7.3" font-family="Helvetica,sans-Serif" font-size="11.00" fill="#000000">Generated by SchemaSpy</text>
<!-- form_eye_hpi -->
<g id="node1" class="node">
<title>form_eye_hpi</title>
<g id="a_node1"><a xlink:href="../../tables/form_eye_hpi.html" xlink:title="form_eye_hpi" target="_top">
<polygon fill="#ffffff" stroke="transparent" points="224,-38.2 224,-854.2 410,-854.2 410,-38.2 224,-38.2"/>
<polygon fill="#f5f5f5" stroke="transparent" points="226,-829.2 226,-852.2 408,-852.2 408,-829.2 226,-829.2"/>
<polygon fill="none" stroke="#000000" points="226,-829.2 226,-852.2 408,-852.2 408,-829.2 226,-829.2"/>
<text text-anchor="start" x="231" y="-837.8" font-family="Helvetica,sans-Serif" font-weight="bold" font-size="11.00" fill="#000000">form_eye_hpi</text>
<text text-anchor="start" x="373.0437" y="-837.3" font-family="Helvetica,sans-Serif" font-size="11.00" fill="#000000">[table]</text>
<polygon fill="none" stroke="#000000" points="226,-807.2 226,-829.2 341,-829.2 341,-807.2 226,-807.2"/>
<image xlink:href="../../images/primaryKeys.png" width="11px" height="12px" preserveAspectRatio="xMinYMin meet" x="231" y="-824.2"/>
<text text-anchor="start" x="246" y="-814.3" font-family="Helvetica,sans-Serif" font-size="11.00" fill="#000000">id</text>
<polygon fill="none" stroke="#000000" points="341,-807.2 341,-829.2 408,-829.2 408,-807.2 341,-807.2"/>
<text text-anchor="start" x="344" y="-814.9" font-family="Helvetica,sans-Serif" font-size="11.00" fill="#000000">bigint[19]</text>
<polygon fill="#ffffff" stroke="transparent" points="226,-785.2 226,-807.2 341,-807.2 341,-785.2 226,-785.2"/>
<polygon fill="none" stroke="#000000" points="226,-785.2 226,-807.2 341,-807.2 341,-785.2 226,-785.2"/>
<image xlink:href="../../images/foreignKeys.png" width="11px" height="12px" preserveAspectRatio="xMinYMin meet" x="231" y="-802.2"/>
<text text-anchor="start" x="246" y="-792.3" font-family="Helvetica,sans-Serif" font-size="11.00" fill="#000000">pid</text>
<polygon fill="none" stroke="#000000" points="341,-785.2 341,-807.2 408,-807.2 408,-785.2 341,-785.2"/>
<text text-anchor="start" x="344" y="-792.9" font-family="Helvetica,sans-Serif" font-size="11.00" fill="#000000">bigint[19]</text>
<polygon fill="none" stroke="#000000" points="226,-763.2 226,-785.2 341,-785.2 341,-763.2 226,-763.2"/>
<text text-anchor="start" x="246" y="-770.3" font-family="Helvetica,sans-Serif" font-size="11.00" fill="#000000">CC1</text>
<polygon fill="none" stroke="#000000" points="341,-763.2 341,-785.2 408,-785.2 408,-763.2 341,-763.2"/>
<text text-anchor="start" x="343.9365" y="-770.9" font-family="Helvetica,sans-Serif" font-size="11.00" fill="#000000">varchar[255]</text>
<polygon fill="none" stroke="#000000" points="226,-741.2 226,-763.2 341,-763.2 341,-741.2 226,-741.2"/>
<text text-anchor="start" x="246" y="-748.3" font-family="Helvetica,sans-Serif" font-size="11.00" fill="#000000">HPI1</text>
<polygon fill="none" stroke="#000000" points="341,-741.2 341,-763.2 408,-763.2 408,-741.2 341,-741.2"/>
<text text-anchor="start" x="344" y="-748.9" font-family="Helvetica,sans-Serif" font-size="11.00" fill="#000000">text[65535]</text>
<polygon fill="none" stroke="#000000" points="226,-719.2 226,-741.2 341,-741.2 341,-719.2 226,-719.2"/>
<text text-anchor="start" x="246" y="-726.3" font-family="Helvetica,sans-Serif" font-size="11.00" fill="#000000">QUALITY1</text>
<polygon fill="none" stroke="#000000" points="341,-719.2 341,-741.2 408,-741.2 408,-719.2 341,-719.2"/>
<text text-anchor="start" x="343.9365" y="-726.9" font-family="Helvetica,sans-Serif" font-size="11.00" fill="#000000">varchar[255]</text>
<polygon fill="none" stroke="#000000" points="226,-697.2 226,-719.2 341,-719.2 341,-697.2 226,-697.2"/>
<text text-anchor="start" x="246" y="-704.3" font-family="Helvetica,sans-Serif" font-size="11.00" fill="#000000">TIMING1</text>
<polygon fill="none" stroke="#000000" points="341,-697.2 341,-719.2 408,-719.2 408,-697.2 341,-697.2"/>
<text text-anchor="start" x="343.9365" y="-704.9" font-family="Helvetica,sans-Serif" font-size="11.00" fill="#000000">varchar[255]</text>
<polygon fill="none" stroke="#000000" points="226,-675.2 226,-697.2 341,-697.2 341,-675.2 226,-675.2"/>
<text text-anchor="start" x="246" y="-682.3" font-family="Helvetica,sans-Serif" font-size="11.00" fill="#000000">DURATION1</text>
<polygon fill="none" stroke="#000000" points="341,-675.2 341,-697.2 408,-697.2 408,-675.2 341,-675.2"/>
<text text-anchor="start" x="343.9365" y="-682.9" font-family="Helvetica,sans-Serif" font-size="11.00" fill="#000000">varchar[255]</text>
<polygon fill="none" stroke="#000000" points="226,-653.2 226,-675.2 341,-675.2 341,-653.2 226,-653.2"/>
<text text-anchor="start" x="246" y="-660.3" font-family="Helvetica,sans-Serif" font-size="11.00" fill="#000000">CONTEXT1</text>
<polygon fill="none" stroke="#000000" points="341,-653.2 341,-675.2 408,-675.2 408,-653.2 341,-653.2"/>
<text text-anchor="start" x="343.9365" y="-660.9" font-family="Helvetica,sans-Serif" font-size="11.00" fill="#000000">varchar[255]</text>
<polygon fill="none" stroke="#000000" points="226,-631.2 226,-653.2 341,-653.2 341,-631.2 226,-631.2"/>
<text text-anchor="start" x="246" y="-638.3" font-family="Helvetica,sans-Serif" font-size="11.00" fill="#000000">SEVERITY1</text>
<polygon fill="none" stroke="#000000" points="341,-631.2 341,-653.2 408,-653.2 408,-631.2 341,-631.2"/>
<text text-anchor="start" x="343.9365" y="-638.9" font-family="Helvetica,sans-Serif" font-size="11.00" fill="#000000">varchar[255]</text>
<polygon fill="none" stroke="#000000" points="226,-609.2 226,-631.2 341,-631.2 341,-609.2 226,-609.2"/>
<text text-anchor="start" x="246" y="-616.3" font-family="Helvetica,sans-Serif" font-size="11.00" fill="#000000">MODIFY1</text>
<polygon fill="none" stroke="#000000" points="341,-609.2 341,-631.2 408,-631.2 408,-609.2 341,-609.2"/>
<text text-anchor="start" x="343.9365" y="-616.9" font-family="Helvetica,sans-Serif" font-size="11.00" fill="#000000">varchar[255]</text>
<polygon fill="none" stroke="#000000" points="226,-587.2 226,-609.2 341,-609.2 341,-587.2 226,-587.2"/>
<text text-anchor="start" x="246" y="-594.3" font-family="Helvetica,sans-Serif" font-size="11.00" fill="#000000">ASSOCIATED1</text>
<polygon fill="none" stroke="#000000" points="341,-587.2 341,-609.2 408,-609.2 408,-587.2 341,-587.2"/>
<text text-anchor="start" x="343.9365" y="-594.9" font-family="Helvetica,sans-Serif" font-size="11.00" fill="#000000">varchar[255]</text>
<polygon fill="none" stroke="#000000" points="226,-565.2 226,-587.2 341,-587.2 341,-565.2 226,-565.2"/>
<text text-anchor="start" x="246" y="-572.3" font-family="Helvetica,sans-Serif" font-size="11.00" fill="#000000">LOCATION1</text>
<polygon fill="none" stroke="#000000" points="341,-565.2 341,-587.2 408,-587.2 408,-565.2 341,-565.2"/>
<text text-anchor="start" x="343.9365" y="-572.9" font-family="Helvetica,sans-Serif" font-size="11.00" fill="#000000">varchar[255]</text>
<polygon fill="none" stroke="#000000" points="226,-543.2 226,-565.2 341,-565.2 341,-543.2 226,-543.2"/>
<text text-anchor="start" x="246" y="-550.3" font-family="Helvetica,sans-Serif" font-size="11.00" fill="#000000">CHRONIC1</text>
<polygon fill="none" stroke="#000000" points="341,-543.2 341,-565.2 408,-565.2 408,-543.2 341,-543.2"/>
<text text-anchor="start" x="343.9365" y="-550.9" font-family="Helvetica,sans-Serif" font-size="11.00" fill="#000000">varchar[255]</text>
<polygon fill="none" stroke="#000000" points="226,-521.2 226,-543.2 341,-543.2 341,-521.2 226,-521.2"/>
<text text-anchor="start" x="246" y="-528.3" font-family="Helvetica,sans-Serif" font-size="11.00" fill="#000000">CHRONIC2</text>
<polygon fill="none" stroke="#000000" points="341,-521.2 341,-543.2 408,-543.2 408,-521.2 341,-521.2"/>
<text text-anchor="start" x="343.9365" y="-528.9" font-family="Helvetica,sans-Serif" font-size="11.00" fill="#000000">varchar[255]</text>
<polygon fill="none" stroke="#000000" points="226,-499.2 226,-521.2 341,-521.2 341,-499.2 226,-499.2"/>
<text text-anchor="start" x="246" y="-506.3" font-family="Helvetica,sans-Serif" font-size="11.00" fill="#000000">CHRONIC3</text>
<polygon fill="none" stroke="#000000" points="341,-499.2 341,-521.2 408,-521.2 408,-499.2 341,-499.2"/>
<text text-anchor="start" x="343.9365" y="-506.9" font-family="Helvetica,sans-Serif" font-size="11.00" fill="#000000">varchar[255]</text>
<polygon fill="none" stroke="#000000" points="226,-477.2 226,-499.2 341,-499.2 341,-477.2 226,-477.2"/>
<text text-anchor="start" x="246" y="-484.3" font-family="Helvetica,sans-Serif" font-size="11.00" fill="#000000">CC2</text>
<polygon fill="none" stroke="#000000" points="341,-477.2 341,-499.2 408,-499.2 408,-477.2 341,-477.2"/>
<text text-anchor="start" x="344" y="-484.9" font-family="Helvetica,sans-Serif" font-size="11.00" fill="#000000">text[65535]</text>
<polygon fill="none" stroke="#000000" points="226,-455.2 226,-477.2 341,-477.2 341,-455.2 226,-455.2"/>
<text text-anchor="start" x="246" y="-462.3" font-family="Helvetica,sans-Serif" font-size="11.00" fill="#000000">HPI2</text>
<polygon fill="none" stroke="#000000" points="341,-455.2 341,-477.2 408,-477.2 408,-455.2 341,-455.2"/>
<text text-anchor="start" x="344" y="-462.9" font-family="Helvetica,sans-Serif" font-size="11.00" fill="#000000">text[65535]</text>
<polygon fill="none" stroke="#000000" points="226,-433.2 226,-455.2 341,-455.2 341,-433.2 226,-433.2"/>
<text text-anchor="start" x="246" y="-440.3" font-family="Helvetica,sans-Serif" font-size="11.00" fill="#000000">QUALITY2</text>
<polygon fill="none" stroke="#000000" points="341,-433.2 341,-455.2 408,-455.2 408,-433.2 341,-433.2"/>
<text text-anchor="start" x="344" y="-440.9" font-family="Helvetica,sans-Serif" font-size="11.00" fill="#000000">text[65535]</text>
<polygon fill="none" stroke="#000000" points="226,-411.2 226,-433.2 341,-433.2 341,-411.2 226,-411.2"/>
<text text-anchor="start" x="246" y="-418.3" font-family="Helvetica,sans-Serif" font-size="11.00" fill="#000000">TIMING2</text>
<polygon fill="none" stroke="#000000" points="341,-411.2 341,-433.2 408,-433.2 408,-411.2 341,-411.2"/>
<text text-anchor="start" x="344" y="-418.9" font-family="Helvetica,sans-Serif" font-size="11.00" fill="#000000">text[65535]</text>
<polygon fill="none" stroke="#000000" points="226,-389.2 226,-411.2 341,-411.2 341,-389.2 226,-389.2"/>
<text text-anchor="start" x="246" y="-396.3" font-family="Helvetica,sans-Serif" font-size="11.00" fill="#000000">DURATION2</text>
<polygon fill="none" stroke="#000000" points="341,-389.2 341,-411.2 408,-411.2 408,-389.2 341,-389.2"/>
<text text-anchor="start" x="344" y="-396.9" font-family="Helvetica,sans-Serif" font-size="11.00" fill="#000000">text[65535]</text>
<polygon fill="none" stroke="#000000" points="226,-367.2 226,-389.2 341,-389.2 341,-367.2 226,-367.2"/>
<text text-anchor="start" x="246" y="-374.3" font-family="Helvetica,sans-Serif" font-size="11.00" fill="#000000">CONTEXT2</text>
<polygon fill="none" stroke="#000000" points="341,-367.2 341,-389.2 408,-389.2 408,-367.2 341,-367.2"/>
<text text-anchor="start" x="344" y="-374.9" font-family="Helvetica,sans-Serif" font-size="11.00" fill="#000000">text[65535]</text>
<polygon fill="none" stroke="#000000" points="226,-345.2 226,-367.2 341,-367.2 341,-345.2 226,-345.2"/>
<text text-anchor="start" x="246" y="-352.3" font-family="Helvetica,sans-Serif" font-size="11.00" fill="#000000">SEVERITY2</text>
<polygon fill="none" stroke="#000000" points="341,-345.2 341,-367.2 408,-367.2 408,-345.2 341,-345.2"/>
<text text-anchor="start" x="344" y="-352.9" font-family="Helvetica,sans-Serif" font-size="11.00" fill="#000000">text[65535]</text>
<polygon fill="none" stroke="#000000" points="226,-323.2 226,-345.2 341,-345.2 341,-323.2 226,-323.2"/>
<text text-anchor="start" x="246" y="-330.3" font-family="Helvetica,sans-Serif" font-size="11.00" fill="#000000">MODIFY2</text>
<polygon fill="none" stroke="#000000" points="341,-323.2 341,-345.2 408,-345.2 408,-323.2 341,-323.2"/>
<text text-anchor="start" x="344" y="-330.9" font-family="Helvetica,sans-Serif" font-size="11.00" fill="#000000">text[65535]</text>
<polygon fill="none" stroke="#000000" points="226,-301.2 226,-323.2 341,-323.2 341,-301.2 226,-301.2"/>
<text text-anchor="start" x="246" y="-308.3" font-family="Helvetica,sans-Serif" font-size="11.00" fill="#000000">ASSOCIATED2</text>
<polygon fill="none" stroke="#000000" points="341,-301.2 341,-323.2 408,-323.2 408,-301.2 341,-301.2"/>
<text text-anchor="start" x="344" y="-308.9" font-family="Helvetica,sans-Serif" font-size="11.00" fill="#000000">text[65535]</text>
<polygon fill="none" stroke="#000000" points="226,-279.2 226,-301.2 341,-301.2 341,-279.2 226,-279.2"/>
<text text-anchor="start" x="246" y="-286.3" font-family="Helvetica,sans-Serif" font-size="11.00" fill="#000000">LOCATION2</text>
<polygon fill="none" stroke="#000000" points="341,-279.2 341,-301.2 408,-301.2 408,-279.2 341,-279.2"/>
<text text-anchor="start" x="344" y="-286.9" font-family="Helvetica,sans-Serif" font-size="11.00" fill="#000000">text[65535]</text>
<polygon fill="none" stroke="#000000" points="226,-257.2 226,-279.2 341,-279.2 341,-257.2 226,-257.2"/>
<text text-anchor="start" x="246" y="-264.3" font-family="Helvetica,sans-Serif" font-size="11.00" fill="#000000">CC3</text>
<polygon fill="none" stroke="#000000" points="341,-257.2 341,-279.2 408,-279.2 408,-257.2 341,-257.2"/>
<text text-anchor="start" x="344" y="-264.9" font-family="Helvetica,sans-Serif" font-size="11.00" fill="#000000">text[65535]</text>
<polygon fill="none" stroke="#000000" points="226,-235.2 226,-257.2 341,-257.2 341,-235.2 226,-235.2"/>
<text text-anchor="start" x="246" y="-242.3" font-family="Helvetica,sans-Serif" font-size="11.00" fill="#000000">HPI3</text>
<polygon fill="none" stroke="#000000" points="341,-235.2 341,-257.2 408,-257.2 408,-235.2 341,-235.2"/>
<text text-anchor="start" x="344" y="-242.9" font-family="Helvetica,sans-Serif" font-size="11.00" fill="#000000">text[65535]</text>
<polygon fill="none" stroke="#000000" points="226,-213.2 226,-235.2 341,-235.2 341,-213.2 226,-213.2"/>
<text text-anchor="start" x="246" y="-220.3" font-family="Helvetica,sans-Serif" font-size="11.00" fill="#000000">QUALITY3</text>
<polygon fill="none" stroke="#000000" points="341,-213.2 341,-235.2 408,-235.2 408,-213.2 341,-213.2"/>
<text text-anchor="start" x="344" y="-220.9" font-family="Helvetica,sans-Serif" font-size="11.00" fill="#000000">text[65535]</text>
<polygon fill="none" stroke="#000000" points="226,-191.2 226,-213.2 341,-213.2 341,-191.2 226,-191.2"/>
<text text-anchor="start" x="246" y="-198.3" font-family="Helvetica,sans-Serif" font-size="11.00" fill="#000000">TIMING3</text>
<polygon fill="none" stroke="#000000" points="341,-191.2 341,-213.2 408,-213.2 408,-191.2 341,-191.2"/>
<text text-anchor="start" x="344" y="-198.9" font-family="Helvetica,sans-Serif" font-size="11.00" fill="#000000">text[65535]</text>
<polygon fill="none" stroke="#000000" points="226,-169.2 226,-191.2 341,-191.2 341,-169.2 226,-169.2"/>
<text text-anchor="start" x="246" y="-176.3" font-family="Helvetica,sans-Serif" font-size="11.00" fill="#000000">DURATION3</text>
<polygon fill="none" stroke="#000000" points="341,-169.2 341,-191.2 408,-191.2 408,-169.2 341,-169.2"/>
<text text-anchor="start" x="344" y="-176.9" font-family="Helvetica,sans-Serif" font-size="11.00" fill="#000000">text[65535]</text>
<polygon fill="none" stroke="#000000" points="226,-147.2 226,-169.2 341,-169.2 341,-147.2 226,-147.2"/>
<text text-anchor="start" x="246" y="-154.3" font-family="Helvetica,sans-Serif" font-size="11.00" fill="#000000">CONTEXT3</text>
<polygon fill="none" stroke="#000000" points="341,-147.2 341,-169.2 408,-169.2 408,-147.2 341,-147.2"/>
<text text-anchor="start" x="344" y="-154.9" font-family="Helvetica,sans-Serif" font-size="11.00" fill="#000000">text[65535]</text>
<polygon fill="none" stroke="#000000" points="226,-125.2 226,-147.2 341,-147.2 341,-125.2 226,-125.2"/>
<text text-anchor="start" x="246" y="-132.3" font-family="Helvetica,sans-Serif" font-size="11.00" fill="#000000">SEVERITY3</text>
<polygon fill="none" stroke="#000000" points="341,-125.2 341,-147.2 408,-147.2 408,-125.2 341,-125.2"/>
<text text-anchor="start" x="344" y="-132.9" font-family="Helvetica,sans-Serif" font-size="11.00" fill="#000000">text[65535]</text>
<polygon fill="none" stroke="#000000" points="226,-103.2 226,-125.2 341,-125.2 341,-103.2 226,-103.2"/>
<text text-anchor="start" x="246" y="-110.3" font-family="Helvetica,sans-Serif" font-size="11.00" fill="#000000">MODIFY3</text>
<polygon fill="none" stroke="#000000" points="341,-103.2 341,-125.2 408,-125.2 408,-103.2 341,-103.2"/>
<text text-anchor="start" x="344" y="-110.9" font-family="Helvetica,sans-Serif" font-size="11.00" fill="#000000">text[65535]</text>
<polygon fill="none" stroke="#000000" points="226,-81.2 226,-103.2 341,-103.2 341,-81.2 226,-81.2"/>
<text text-anchor="start" x="246" y="-88.3" font-family="Helvetica,sans-Serif" font-size="11.00" fill="#000000">ASSOCIATED3</text>
<polygon fill="none" stroke="#000000" points="341,-81.2 341,-103.2 408,-103.2 408,-81.2 341,-81.2"/>
<text text-anchor="start" x="344" y="-88.9" font-family="Helvetica,sans-Serif" font-size="11.00" fill="#000000">text[65535]</text>
<polygon fill="none" stroke="#000000" points="226,-59.2 226,-81.2 341,-81.2 341,-59.2 226,-59.2"/>
<text text-anchor="start" x="246" y="-66.3" font-family="Helvetica,sans-Serif" font-size="11.00" fill="#000000">LOCATION3</text>
<polygon fill="none" stroke="#000000" points="341,-59.2 341,-81.2 408,-81.2 408,-59.2 341,-59.2"/>
<text text-anchor="start" x="344" y="-66.9" font-family="Helvetica,sans-Serif" font-size="11.00" fill="#000000">text[65535]</text>
<polygon fill="#ffffff" stroke="transparent" points="226,-40.2 226,-59.2 288,-59.2 288,-40.2 226,-40.2"/>
<polygon fill="none" stroke="#000000" points="226,-40.2 226,-59.2 288,-59.2 288,-40.2 226,-40.2"/>
<text text-anchor="start" x="229" y="-46.3" font-family="Helvetica,sans-Serif" font-size="11.00" fill="#000000">&lt; 1</text>
<polygon fill="#ffffff" stroke="transparent" points="288,-40.2 288,-59.2 341,-59.2 341,-40.2 288,-40.2"/>
<polygon fill="none" stroke="#000000" points="288,-40.2 288,-59.2 341,-59.2 341,-40.2 288,-40.2"/>
<text text-anchor="start" x="331.8862" y="-46.3" font-family="Helvetica,sans-Serif" font-size="11.00" fill="#000000"> &#160;</text>
<polygon fill="#ffffff" stroke="transparent" points="341,-40.2 341,-59.2 408,-59.2 408,-40.2 341,-40.2"/>
<polygon fill="none" stroke="#000000" points="341,-40.2 341,-59.2 408,-59.2 408,-40.2 341,-40.2"/>
<text text-anchor="start" x="389.4053" y="-46.3" font-family="Helvetica,sans-Serif" font-size="11.00" fill="#000000">0 &gt;</text>
<polygon fill="none" stroke="#000000" stroke-width="2" points="225,-39.2 225,-853.2 409,-853.2 409,-39.2 225,-39.2"/>
</a>
</g>
</g>
<!-- patient_data -->
<g id="node2" class="node">
<title>patient_data</title>
<g id="a_node2"><a xlink:href="../../tables/patient_data.html" xlink:title="patient_data" target="_top">
<polygon fill="#ffffff" stroke="transparent" points="8,-703.7 8,-940.7 175,-940.7 175,-703.7 8,-703.7"/>
<polygon fill="#f5f5f5" stroke="transparent" points="8.5,-917.2 8.5,-940.2 175.5,-940.2 175.5,-917.2 8.5,-917.2"/>
<polygon fill="none" stroke="#000000" points="8.5,-917.2 8.5,-940.2 175.5,-940.2 175.5,-917.2 8.5,-917.2"/>
<text text-anchor="start" x="13.5" y="-925.8" font-family="Helvetica,sans-Serif" font-weight="bold" font-size="11.00" fill="#000000">patient_data</text>
<text text-anchor="start" x="140.5437" y="-925.3" font-family="Helvetica,sans-Serif" font-size="11.00" fill="#000000">[table]</text>
<polygon fill="#ffffff" stroke="transparent" points="8.5,-895.2 8.5,-917.2 175.5,-917.2 175.5,-895.2 8.5,-895.2"/>
<polygon fill="none" stroke="#000000" points="8.5,-895.2 8.5,-917.2 175.5,-917.2 175.5,-895.2 8.5,-895.2"/>
<text text-anchor="start" x="28.5" y="-902.3" font-family="Helvetica,sans-Serif" font-size="11.00" fill="#000000">id</text>
<polygon fill="#ffffff" stroke="transparent" points="8.5,-873.2 8.5,-895.2 175.5,-895.2 175.5,-873.2 8.5,-873.2"/>
<polygon fill="none" stroke="#000000" points="8.5,-873.2 8.5,-895.2 175.5,-895.2 175.5,-873.2 8.5,-873.2"/>
<text text-anchor="start" x="28.5" y="-880.3" font-family="Helvetica,sans-Serif" font-size="11.00" fill="#000000">uuid</text>
<polygon fill="none" stroke="#000000" points="8.5,-851.2 8.5,-873.2 175.5,-873.2 175.5,-851.2 8.5,-851.2"/>
<image xlink:href="../../images/foreignKeys.png" width="11px" height="12px" preserveAspectRatio="xMinYMin meet" x="13.5" y="-868.2"/>
<text text-anchor="start" x="28.5" y="-858.3" font-family="Helvetica,sans-Serif" font-size="11.00" fill="#000000">pharmacy_id</text>
<polygon fill="none" stroke="#000000" points="8.5,-829.2 8.5,-851.2 175.5,-851.2 175.5,-829.2 8.5,-829.2"/>
<image xlink:href="../../images/foreignKeys.png" width="11px" height="12px" preserveAspectRatio="xMinYMin meet" x="13.5" y="-846.2"/>
<text text-anchor="start" x="28.5" y="-836.3" font-family="Helvetica,sans-Serif" font-size="11.00" fill="#000000">providerID</text>
<polygon fill="none" stroke="#000000" points="8.5,-807.2 8.5,-829.2 175.5,-829.2 175.5,-807.2 8.5,-807.2"/>
<image xlink:href="../../images/foreignKeys.png" width="11px" height="12px" preserveAspectRatio="xMinYMin meet" x="13.5" y="-824.2"/>
<text text-anchor="start" x="28.5" y="-814.3" font-family="Helvetica,sans-Serif" font-size="11.00" fill="#000000">ref_providerID</text>
<polygon fill="none" stroke="#000000" points="8.5,-785.2 8.5,-807.2 175.5,-807.2 175.5,-785.2 8.5,-785.2"/>
<image xlink:href="../../images/primaryKeys.png" width="11px" height="12px" preserveAspectRatio="xMinYMin meet" x="13.5" y="-802.2"/>
<text text-anchor="start" x="28.5" y="-792.3" font-family="Helvetica,sans-Serif" font-size="11.00" fill="#000000">pid</text>
<polygon fill="none" stroke="#000000" points="8.5,-763.2 8.5,-785.2 175.5,-785.2 175.5,-763.2 8.5,-763.2"/>
<image xlink:href="../../images/foreignKeys.png" width="11px" height="12px" preserveAspectRatio="xMinYMin meet" x="13.5" y="-780.2"/>
<text text-anchor="start" x="28.5" y="-770.3" font-family="Helvetica,sans-Serif" font-size="11.00" fill="#000000">created_by</text>
<polygon fill="none" stroke="#000000" points="8.5,-741.2 8.5,-763.2 175.5,-763.2 175.5,-741.2 8.5,-741.2"/>
<image xlink:href="../../images/foreignKeys.png" width="11px" height="12px" preserveAspectRatio="xMinYMin meet" x="13.5" y="-758.2"/>
<text text-anchor="start" x="28.5" y="-748.3" font-family="Helvetica,sans-Serif" font-size="11.00" fill="#000000">updated_by</text>
<polygon fill="none" stroke="#000000" points="8.5,-722.2 8.5,-741.2 175.5,-741.2 175.5,-722.2 8.5,-722.2"/>
<text text-anchor="start" x="11.5" y="-728.3" font-family="Helvetica,sans-Serif" font-size="11.00" fill="#000000">...</text>
<polygon fill="#ffffff" stroke="transparent" points="8.5,-703.2 8.5,-722.2 82.5,-722.2 82.5,-703.2 8.5,-703.2"/>
<polygon fill="none" stroke="#000000" points="8.5,-703.2 8.5,-722.2 82.5,-722.2 82.5,-703.2 8.5,-703.2"/>
<text text-anchor="start" x="11.5" y="-709.3" font-family="Helvetica,sans-Serif" font-size="11.00" fill="#000000">&lt; 5</text>
<polygon fill="#ffffff" stroke="transparent" points="82.5,-703.2 82.5,-722.2 121.5,-722.2 121.5,-703.2 82.5,-703.2"/>
<polygon fill="none" stroke="#000000" points="82.5,-703.2 82.5,-722.2 121.5,-722.2 121.5,-703.2 82.5,-703.2"/>
<text text-anchor="start" x="112.3862" y="-709.3" font-family="Helvetica,sans-Serif" font-size="11.00" fill="#000000"> &#160;</text>
<polygon fill="#ffffff" stroke="transparent" points="121.5,-703.2 121.5,-722.2 175.5,-722.2 175.5,-703.2 121.5,-703.2"/>
<polygon fill="none" stroke="#000000" points="121.5,-703.2 121.5,-722.2 175.5,-722.2 175.5,-703.2 121.5,-703.2"/>
<text text-anchor="start" x="150.7904" y="-709.3" font-family="Helvetica,sans-Serif" font-size="11.00" fill="#000000">85 &gt;</text>
</a>
</g>
</g>
<!-- form_eye_hpi&#45;&gt;patient_data -->
<g id="edge1" class="edge">
<title>form_eye_hpi:w&#45;&gt;patient_data:e</title>
<path fill="none" stroke="#000000" d="M211.4203,-796.2C199.5435,-796.2 192.158,-796.2 175.5,-796.2"/>
<polygon fill="#000000" stroke="#000000" points="218,-796.2001 226,-799.8 222,-796.2 226,-796.2 226,-796.2 226,-796.2 222,-796.2 226,-792.6 218,-796.2001 218,-796.2001"/>
<ellipse fill="none" stroke="#000000" cx="214.8" cy="-796.2001" rx="3.2" ry="3.2"/>
</g>
</g>
</svg>
