<?xml version="1.0" encoding="UTF-8" standalone="no"?>
<!DOCTYPE svg PUBLIC "-//W3C//DTD SVG 1.1//EN"
 "http://www.w3.org/Graphics/SVG/1.1/DTD/svg11.dtd">
<!-- Generated by graphviz version 2.40.1 (20161225.0304)
 -->
<!-- Title: oneDegreeRelationshipsDiagram Pages: 1 -->
<svg width="515pt" height="733pt"
 viewBox="0.00 0.00 515.00 732.70" xmlns="http://www.w3.org/2000/svg" xmlns:xlink="http://www.w3.org/1999/xlink">
<g id="graph0" class="graph" transform="scale(1 1) rotate(0) translate(4 728.7)">
<title>oneDegreeRelationshipsDiagram</title>
<polygon fill="#ffffff" stroke="transparent" points="-4,4 -4,-728.7 511,-728.7 511,4 -4,4"/>
<text text-anchor="middle" x="72.4936" y="-7.3" font-family="Helvetica,sans-Serif" font-size="11.00" fill="#000000">Generated by SchemaSpy</text>
<!-- form_eye_postseg -->
<g id="node1" class="node">
<title>form_eye_postseg</title>
<g id="a_node1"><a xlink:href="../../tables/form_eye_postseg.html" xlink:title="form_eye_postseg" target="_top">
<polygon fill="#ffffff" stroke="transparent" points="224,-38.2 224,-634.2 499,-634.2 499,-38.2 224,-38.2"/>
<polygon fill="#f5f5f5" stroke="transparent" points="226.5,-609.2 226.5,-632.2 497.5,-632.2 497.5,-609.2 226.5,-609.2"/>
<polygon fill="none" stroke="#000000" points="226.5,-609.2 226.5,-632.2 497.5,-632.2 497.5,-609.2 226.5,-609.2"/>
<text text-anchor="start" x="231.5" y="-617.8" font-family="Helvetica,sans-Serif" font-weight="bold" font-size="11.00" fill="#000000">form_eye_postseg</text>
<text text-anchor="start" x="462.5437" y="-617.3" font-family="Helvetica,sans-Serif" font-size="11.00" fill="#000000">[table]</text>
<polygon fill="none" stroke="#000000" points="226.5,-587.2 226.5,-609.2 380.5,-609.2 380.5,-587.2 226.5,-587.2"/>
<image xlink:href="../../images/primaryKeys.png" width="11px" height="12px" preserveAspectRatio="xMinYMin meet" x="231.5" y="-604.2"/>
<text text-anchor="start" x="246.5" y="-594.3" font-family="Helvetica,sans-Serif" font-size="11.00" fill="#000000">id</text>
<polygon fill="none" stroke="#000000" points="380.5,-587.2 380.5,-609.2 497.5,-609.2 497.5,-587.2 380.5,-587.2"/>
<text text-anchor="start" x="383.5" y="-594.9" font-family="Helvetica,sans-Serif" font-size="11.00" fill="#000000">bigint[19]</text>
<polygon fill="#ffffff" stroke="transparent" points="226.5,-565.2 226.5,-587.2 380.5,-587.2 380.5,-565.2 226.5,-565.2"/>
<polygon fill="none" stroke="#000000" points="226.5,-565.2 226.5,-587.2 380.5,-587.2 380.5,-565.2 226.5,-565.2"/>
<image xlink:href="../../images/foreignKeys.png" width="11px" height="12px" preserveAspectRatio="xMinYMin meet" x="231.5" y="-582.2"/>
<text text-anchor="start" x="246.5" y="-572.3" font-family="Helvetica,sans-Serif" font-size="11.00" fill="#000000">pid</text>
<polygon fill="none" stroke="#000000" points="380.5,-565.2 380.5,-587.2 497.5,-587.2 497.5,-565.2 380.5,-565.2"/>
<text text-anchor="start" x="383.5" y="-572.9" font-family="Helvetica,sans-Serif" font-size="11.00" fill="#000000">bigint[19]</text>
<polygon fill="none" stroke="#000000" points="226.5,-543.2 226.5,-565.2 380.5,-565.2 380.5,-543.2 226.5,-543.2"/>
<text text-anchor="start" x="246.5" y="-550.3" font-family="Helvetica,sans-Serif" font-size="11.00" fill="#000000">ODDISC</text>
<polygon fill="none" stroke="#000000" points="380.5,-543.2 380.5,-565.2 497.5,-565.2 497.5,-543.2 380.5,-543.2"/>
<text text-anchor="start" x="383.5" y="-550.9" font-family="Helvetica,sans-Serif" font-size="11.00" fill="#000000">text[65535]</text>
<polygon fill="none" stroke="#000000" points="226.5,-521.2 226.5,-543.2 380.5,-543.2 380.5,-521.2 226.5,-521.2"/>
<text text-anchor="start" x="246.5" y="-528.3" font-family="Helvetica,sans-Serif" font-size="11.00" fill="#000000">OSDISC</text>
<polygon fill="none" stroke="#000000" points="380.5,-521.2 380.5,-543.2 497.5,-543.2 497.5,-521.2 380.5,-521.2"/>
<text text-anchor="start" x="383.5" y="-528.9" font-family="Helvetica,sans-Serif" font-size="11.00" fill="#000000">text[65535]</text>
<polygon fill="none" stroke="#000000" points="226.5,-499.2 226.5,-521.2 380.5,-521.2 380.5,-499.2 226.5,-499.2"/>
<text text-anchor="start" x="246.5" y="-506.3" font-family="Helvetica,sans-Serif" font-size="11.00" fill="#000000">ODCUP</text>
<polygon fill="none" stroke="#000000" points="380.5,-499.2 380.5,-521.2 497.5,-521.2 497.5,-499.2 380.5,-499.2"/>
<text text-anchor="start" x="383.5" y="-506.9" font-family="Helvetica,sans-Serif" font-size="11.00" fill="#000000">text[65535]</text>
<polygon fill="none" stroke="#000000" points="226.5,-477.2 226.5,-499.2 380.5,-499.2 380.5,-477.2 226.5,-477.2"/>
<text text-anchor="start" x="246.5" y="-484.3" font-family="Helvetica,sans-Serif" font-size="11.00" fill="#000000">OSCUP</text>
<polygon fill="none" stroke="#000000" points="380.5,-477.2 380.5,-499.2 497.5,-499.2 497.5,-477.2 380.5,-477.2"/>
<text text-anchor="start" x="383.5" y="-484.9" font-family="Helvetica,sans-Serif" font-size="11.00" fill="#000000">text[65535]</text>
<polygon fill="none" stroke="#000000" points="226.5,-455.2 226.5,-477.2 380.5,-477.2 380.5,-455.2 226.5,-455.2"/>
<text text-anchor="start" x="246.5" y="-462.3" font-family="Helvetica,sans-Serif" font-size="11.00" fill="#000000">ODMACULA</text>
<polygon fill="none" stroke="#000000" points="380.5,-455.2 380.5,-477.2 497.5,-477.2 497.5,-455.2 380.5,-455.2"/>
<text text-anchor="start" x="383.5" y="-462.9" font-family="Helvetica,sans-Serif" font-size="11.00" fill="#000000">text[65535]</text>
<polygon fill="none" stroke="#000000" points="226.5,-433.2 226.5,-455.2 380.5,-455.2 380.5,-433.2 226.5,-433.2"/>
<text text-anchor="start" x="246.5" y="-440.3" font-family="Helvetica,sans-Serif" font-size="11.00" fill="#000000">OSMACULA</text>
<polygon fill="none" stroke="#000000" points="380.5,-433.2 380.5,-455.2 497.5,-455.2 497.5,-433.2 380.5,-433.2"/>
<text text-anchor="start" x="383.5" y="-440.9" font-family="Helvetica,sans-Serif" font-size="11.00" fill="#000000">text[65535]</text>
<polygon fill="none" stroke="#000000" points="226.5,-411.2 226.5,-433.2 380.5,-433.2 380.5,-411.2 226.5,-411.2"/>
<text text-anchor="start" x="246.5" y="-418.3" font-family="Helvetica,sans-Serif" font-size="11.00" fill="#000000">ODVESSELS</text>
<polygon fill="none" stroke="#000000" points="380.5,-411.2 380.5,-433.2 497.5,-433.2 497.5,-411.2 380.5,-411.2"/>
<text text-anchor="start" x="383.5" y="-418.9" font-family="Helvetica,sans-Serif" font-size="11.00" fill="#000000">text[65535]</text>
<polygon fill="none" stroke="#000000" points="226.5,-389.2 226.5,-411.2 380.5,-411.2 380.5,-389.2 226.5,-389.2"/>
<text text-anchor="start" x="246.5" y="-396.3" font-family="Helvetica,sans-Serif" font-size="11.00" fill="#000000">OSVESSELS</text>
<polygon fill="none" stroke="#000000" points="380.5,-389.2 380.5,-411.2 497.5,-411.2 497.5,-389.2 380.5,-389.2"/>
<text text-anchor="start" x="383.5" y="-396.9" font-family="Helvetica,sans-Serif" font-size="11.00" fill="#000000">text[65535]</text>
<polygon fill="none" stroke="#000000" points="226.5,-367.2 226.5,-389.2 380.5,-389.2 380.5,-367.2 226.5,-367.2"/>
<text text-anchor="start" x="246.5" y="-374.3" font-family="Helvetica,sans-Serif" font-size="11.00" fill="#000000">ODVITREOUS</text>
<polygon fill="none" stroke="#000000" points="380.5,-367.2 380.5,-389.2 497.5,-389.2 497.5,-367.2 380.5,-367.2"/>
<text text-anchor="start" x="383.5" y="-374.9" font-family="Helvetica,sans-Serif" font-size="11.00" fill="#000000">text[65535]</text>
<polygon fill="none" stroke="#000000" points="226.5,-345.2 226.5,-367.2 380.5,-367.2 380.5,-345.2 226.5,-345.2"/>
<text text-anchor="start" x="246.5" y="-352.3" font-family="Helvetica,sans-Serif" font-size="11.00" fill="#000000">OSVITREOUS</text>
<polygon fill="none" stroke="#000000" points="380.5,-345.2 380.5,-367.2 497.5,-367.2 497.5,-345.2 380.5,-345.2"/>
<text text-anchor="start" x="383.5" y="-352.9" font-family="Helvetica,sans-Serif" font-size="11.00" fill="#000000">text[65535]</text>
<polygon fill="none" stroke="#000000" points="226.5,-323.2 226.5,-345.2 380.5,-345.2 380.5,-323.2 226.5,-323.2"/>
<text text-anchor="start" x="246.5" y="-330.3" font-family="Helvetica,sans-Serif" font-size="11.00" fill="#000000">ODPERIPH</text>
<polygon fill="none" stroke="#000000" points="380.5,-323.2 380.5,-345.2 497.5,-345.2 497.5,-323.2 380.5,-323.2"/>
<text text-anchor="start" x="383.5" y="-330.9" font-family="Helvetica,sans-Serif" font-size="11.00" fill="#000000">text[65535]</text>
<polygon fill="none" stroke="#000000" points="226.5,-301.2 226.5,-323.2 380.5,-323.2 380.5,-301.2 226.5,-301.2"/>
<text text-anchor="start" x="246.5" y="-308.3" font-family="Helvetica,sans-Serif" font-size="11.00" fill="#000000">OSPERIPH</text>
<polygon fill="none" stroke="#000000" points="380.5,-301.2 380.5,-323.2 497.5,-323.2 497.5,-301.2 380.5,-301.2"/>
<text text-anchor="start" x="383.5" y="-308.9" font-family="Helvetica,sans-Serif" font-size="11.00" fill="#000000">text[65535]</text>
<polygon fill="none" stroke="#000000" points="226.5,-279.2 226.5,-301.2 380.5,-301.2 380.5,-279.2 226.5,-279.2"/>
<text text-anchor="start" x="246.5" y="-286.3" font-family="Helvetica,sans-Serif" font-size="11.00" fill="#000000">ODCMT</text>
<polygon fill="none" stroke="#000000" points="380.5,-279.2 380.5,-301.2 497.5,-301.2 497.5,-279.2 380.5,-279.2"/>
<text text-anchor="start" x="383.5" y="-286.9" font-family="Helvetica,sans-Serif" font-size="11.00" fill="#000000">text[65535]</text>
<polygon fill="none" stroke="#000000" points="226.5,-257.2 226.5,-279.2 380.5,-279.2 380.5,-257.2 226.5,-257.2"/>
<text text-anchor="start" x="246.5" y="-264.3" font-family="Helvetica,sans-Serif" font-size="11.00" fill="#000000">OSCMT</text>
<polygon fill="none" stroke="#000000" points="380.5,-257.2 380.5,-279.2 497.5,-279.2 497.5,-257.2 380.5,-257.2"/>
<text text-anchor="start" x="383.5" y="-264.9" font-family="Helvetica,sans-Serif" font-size="11.00" fill="#000000">text[65535]</text>
<polygon fill="none" stroke="#000000" points="226.5,-235.2 226.5,-257.2 380.5,-257.2 380.5,-235.2 226.5,-235.2"/>
<text text-anchor="start" x="246.5" y="-242.3" font-family="Helvetica,sans-Serif" font-size="11.00" fill="#000000">RETINA_COMMENTS</text>
<polygon fill="none" stroke="#000000" points="380.5,-235.2 380.5,-257.2 497.5,-257.2 497.5,-235.2 380.5,-235.2"/>
<text text-anchor="start" x="383.5" y="-242.9" font-family="Helvetica,sans-Serif" font-size="11.00" fill="#000000">text[65535]</text>
<polygon fill="none" stroke="#000000" points="226.5,-213.2 226.5,-235.2 380.5,-235.2 380.5,-213.2 226.5,-213.2"/>
<text text-anchor="start" x="246.5" y="-220.3" font-family="Helvetica,sans-Serif" font-size="11.00" fill="#000000">DIL_RISKS</text>
<polygon fill="none" stroke="#000000" points="380.5,-213.2 380.5,-235.2 497.5,-235.2 497.5,-213.2 380.5,-213.2"/>
<text text-anchor="start" x="383.5" y="-220.9" font-family="Helvetica,sans-Serif" font-size="11.00" fill="#000000">char[2]</text>
<polygon fill="none" stroke="#000000" points="226.5,-191.2 226.5,-213.2 380.5,-213.2 380.5,-191.2 226.5,-191.2"/>
<text text-anchor="start" x="246.5" y="-198.3" font-family="Helvetica,sans-Serif" font-size="11.00" fill="#000000">DIL_MEDS</text>
<polygon fill="none" stroke="#000000" points="380.5,-191.2 380.5,-213.2 497.5,-213.2 497.5,-191.2 380.5,-191.2"/>
<text text-anchor="start" x="383.0645" y="-198.9" font-family="Helvetica,sans-Serif" font-size="11.00" fill="#000000">mediumtext[16777215]</text>
<polygon fill="none" stroke="#000000" points="226.5,-169.2 226.5,-191.2 380.5,-191.2 380.5,-169.2 226.5,-169.2"/>
<text text-anchor="start" x="246.5" y="-176.3" font-family="Helvetica,sans-Serif" font-size="11.00" fill="#000000">WETTYPE</text>
<polygon fill="none" stroke="#000000" points="380.5,-169.2 380.5,-191.2 497.5,-191.2 497.5,-169.2 380.5,-169.2"/>
<text text-anchor="start" x="383.5" y="-176.9" font-family="Helvetica,sans-Serif" font-size="11.00" fill="#000000">varchar[10]</text>
<polygon fill="none" stroke="#000000" points="226.5,-147.2 226.5,-169.2 380.5,-169.2 380.5,-147.2 226.5,-147.2"/>
<text text-anchor="start" x="246.5" y="-154.3" font-family="Helvetica,sans-Serif" font-size="11.00" fill="#000000">ATROPINE</text>
<polygon fill="none" stroke="#000000" points="380.5,-147.2 380.5,-169.2 497.5,-169.2 497.5,-147.2 380.5,-147.2"/>
<text text-anchor="start" x="383.5" y="-154.9" font-family="Helvetica,sans-Serif" font-size="11.00" fill="#000000">varchar[25]</text>
<polygon fill="none" stroke="#000000" points="226.5,-125.2 226.5,-147.2 380.5,-147.2 380.5,-125.2 226.5,-125.2"/>
<text text-anchor="start" x="246.5" y="-132.3" font-family="Helvetica,sans-Serif" font-size="11.00" fill="#000000">CYCLOMYDRIL</text>
<polygon fill="none" stroke="#000000" points="380.5,-125.2 380.5,-147.2 497.5,-147.2 497.5,-125.2 380.5,-125.2"/>
<text text-anchor="start" x="383.5" y="-132.9" font-family="Helvetica,sans-Serif" font-size="11.00" fill="#000000">varchar[25]</text>
<polygon fill="none" stroke="#000000" points="226.5,-103.2 226.5,-125.2 380.5,-125.2 380.5,-103.2 226.5,-103.2"/>
<text text-anchor="start" x="246.5" y="-110.3" font-family="Helvetica,sans-Serif" font-size="11.00" fill="#000000">TROPICAMIDE</text>
<polygon fill="none" stroke="#000000" points="380.5,-103.2 380.5,-125.2 497.5,-125.2 497.5,-103.2 380.5,-103.2"/>
<text text-anchor="start" x="383.5" y="-110.9" font-family="Helvetica,sans-Serif" font-size="11.00" fill="#000000">varchar[25]</text>
<polygon fill="none" stroke="#000000" points="226.5,-81.2 226.5,-103.2 380.5,-103.2 380.5,-81.2 226.5,-81.2"/>
<text text-anchor="start" x="246.5" y="-88.3" font-family="Helvetica,sans-Serif" font-size="11.00" fill="#000000">CYCLOGYL</text>
<polygon fill="none" stroke="#000000" points="380.5,-81.2 380.5,-103.2 497.5,-103.2 497.5,-81.2 380.5,-81.2"/>
<text text-anchor="start" x="383.5" y="-88.9" font-family="Helvetica,sans-Serif" font-size="11.00" fill="#000000">varchar[25]</text>
<polygon fill="none" stroke="#000000" points="226.5,-59.2 226.5,-81.2 380.5,-81.2 380.5,-59.2 226.5,-59.2"/>
<text text-anchor="start" x="246.5" y="-66.3" font-family="Helvetica,sans-Serif" font-size="11.00" fill="#000000">NEO25</text>
<polygon fill="none" stroke="#000000" points="380.5,-59.2 380.5,-81.2 497.5,-81.2 497.5,-59.2 380.5,-59.2"/>
<text text-anchor="start" x="383.5" y="-66.9" font-family="Helvetica,sans-Serif" font-size="11.00" fill="#000000">varchar[25]</text>
<polygon fill="#ffffff" stroke="transparent" points="226.5,-40.2 226.5,-59.2 307.5,-59.2 307.5,-40.2 226.5,-40.2"/>
<polygon fill="none" stroke="#000000" points="226.5,-40.2 226.5,-59.2 307.5,-59.2 307.5,-40.2 226.5,-40.2"/>
<text text-anchor="start" x="229.5" y="-46.3" font-family="Helvetica,sans-Serif" font-size="11.00" fill="#000000">&lt; 1</text>
<polygon fill="#ffffff" stroke="transparent" points="307.5,-40.2 307.5,-59.2 380.5,-59.2 380.5,-40.2 307.5,-40.2"/>
<polygon fill="none" stroke="#000000" points="307.5,-40.2 307.5,-59.2 380.5,-59.2 380.5,-40.2 307.5,-40.2"/>
<text text-anchor="start" x="371.3862" y="-46.3" font-family="Helvetica,sans-Serif" font-size="11.00" fill="#000000"> &#160;</text>
<polygon fill="#ffffff" stroke="transparent" points="380.5,-40.2 380.5,-59.2 497.5,-59.2 497.5,-40.2 380.5,-40.2"/>
<polygon fill="none" stroke="#000000" points="380.5,-40.2 380.5,-59.2 497.5,-59.2 497.5,-40.2 380.5,-40.2"/>
<text text-anchor="start" x="478.9053" y="-46.3" font-family="Helvetica,sans-Serif" font-size="11.00" fill="#000000">0 &gt;</text>
<polygon fill="none" stroke="#000000" stroke-width="2" points="225,-39.2 225,-633.2 498,-633.2 498,-39.2 225,-39.2"/>
</a>
</g>
</g>
<!-- patient_data -->
<g id="node2" class="node">
<title>patient_data</title>
<g id="a_node2"><a xlink:href="../../tables/patient_data.html" xlink:title="patient_data" target="_top">
<polygon fill="#ffffff" stroke="transparent" points="8,-483.7 8,-720.7 175,-720.7 175,-483.7 8,-483.7"/>
<polygon fill="#f5f5f5" stroke="transparent" points="8.5,-697.2 8.5,-720.2 175.5,-720.2 175.5,-697.2 8.5,-697.2"/>
<polygon fill="none" stroke="#000000" points="8.5,-697.2 8.5,-720.2 175.5,-720.2 175.5,-697.2 8.5,-697.2"/>
<text text-anchor="start" x="13.5" y="-705.8" font-family="Helvetica,sans-Serif" font-weight="bold" font-size="11.00" fill="#000000">patient_data</text>
<text text-anchor="start" x="140.5437" y="-705.3" font-family="Helvetica,sans-Serif" font-size="11.00" fill="#000000">[table]</text>
<polygon fill="#ffffff" stroke="transparent" points="8.5,-675.2 8.5,-697.2 175.5,-697.2 175.5,-675.2 8.5,-675.2"/>
<polygon fill="none" stroke="#000000" points="8.5,-675.2 8.5,-697.2 175.5,-697.2 175.5,-675.2 8.5,-675.2"/>
<text text-anchor="start" x="28.5" y="-682.3" font-family="Helvetica,sans-Serif" font-size="11.00" fill="#000000">id</text>
<polygon fill="#ffffff" stroke="transparent" points="8.5,-653.2 8.5,-675.2 175.5,-675.2 175.5,-653.2 8.5,-653.2"/>
<polygon fill="none" stroke="#000000" points="8.5,-653.2 8.5,-675.2 175.5,-675.2 175.5,-653.2 8.5,-653.2"/>
<text text-anchor="start" x="28.5" y="-660.3" font-family="Helvetica,sans-Serif" font-size="11.00" fill="#000000">uuid</text>
<polygon fill="none" stroke="#000000" points="8.5,-631.2 8.5,-653.2 175.5,-653.2 175.5,-631.2 8.5,-631.2"/>
<image xlink:href="../../images/foreignKeys.png" width="11px" height="12px" preserveAspectRatio="xMinYMin meet" x="13.5" y="-648.2"/>
<text text-anchor="start" x="28.5" y="-638.3" font-family="Helvetica,sans-Serif" font-size="11.00" fill="#000000">pharmacy_id</text>
<polygon fill="none" stroke="#000000" points="8.5,-609.2 8.5,-631.2 175.5,-631.2 175.5,-609.2 8.5,-609.2"/>
<image xlink:href="../../images/foreignKeys.png" width="11px" height="12px" preserveAspectRatio="xMinYMin meet" x="13.5" y="-626.2"/>
<text text-anchor="start" x="28.5" y="-616.3" font-family="Helvetica,sans-Serif" font-size="11.00" fill="#000000">providerID</text>
<polygon fill="none" stroke="#000000" points="8.5,-587.2 8.5,-609.2 175.5,-609.2 175.5,-587.2 8.5,-587.2"/>
<image xlink:href="../../images/foreignKeys.png" width="11px" height="12px" preserveAspectRatio="xMinYMin meet" x="13.5" y="-604.2"/>
<text text-anchor="start" x="28.5" y="-594.3" font-family="Helvetica,sans-Serif" font-size="11.00" fill="#000000">ref_providerID</text>
<polygon fill="none" stroke="#000000" points="8.5,-565.2 8.5,-587.2 175.5,-587.2 175.5,-565.2 8.5,-565.2"/>
<image xlink:href="../../images/primaryKeys.png" width="11px" height="12px" preserveAspectRatio="xMinYMin meet" x="13.5" y="-582.2"/>
<text text-anchor="start" x="28.5" y="-572.3" font-family="Helvetica,sans-Serif" font-size="11.00" fill="#000000">pid</text>
<polygon fill="none" stroke="#000000" points="8.5,-543.2 8.5,-565.2 175.5,-565.2 175.5,-543.2 8.5,-543.2"/>
<image xlink:href="../../images/foreignKeys.png" width="11px" height="12px" preserveAspectRatio="xMinYMin meet" x="13.5" y="-560.2"/>
<text text-anchor="start" x="28.5" y="-550.3" font-family="Helvetica,sans-Serif" font-size="11.00" fill="#000000">created_by</text>
<polygon fill="none" stroke="#000000" points="8.5,-521.2 8.5,-543.2 175.5,-543.2 175.5,-521.2 8.5,-521.2"/>
<image xlink:href="../../images/foreignKeys.png" width="11px" height="12px" preserveAspectRatio="xMinYMin meet" x="13.5" y="-538.2"/>
<text text-anchor="start" x="28.5" y="-528.3" font-family="Helvetica,sans-Serif" font-size="11.00" fill="#000000">updated_by</text>
<polygon fill="none" stroke="#000000" points="8.5,-502.2 8.5,-521.2 175.5,-521.2 175.5,-502.2 8.5,-502.2"/>
<text text-anchor="start" x="11.5" y="-508.3" font-family="Helvetica,sans-Serif" font-size="11.00" fill="#000000">...</text>
<polygon fill="#ffffff" stroke="transparent" points="8.5,-483.2 8.5,-502.2 82.5,-502.2 82.5,-483.2 8.5,-483.2"/>
<polygon fill="none" stroke="#000000" points="8.5,-483.2 8.5,-502.2 82.5,-502.2 82.5,-483.2 8.5,-483.2"/>
<text text-anchor="start" x="11.5" y="-489.3" font-family="Helvetica,sans-Serif" font-size="11.00" fill="#000000">&lt; 5</text>
<polygon fill="#ffffff" stroke="transparent" points="82.5,-483.2 82.5,-502.2 121.5,-502.2 121.5,-483.2 82.5,-483.2"/>
<polygon fill="none" stroke="#000000" points="82.5,-483.2 82.5,-502.2 121.5,-502.2 121.5,-483.2 82.5,-483.2"/>
<text text-anchor="start" x="112.3862" y="-489.3" font-family="Helvetica,sans-Serif" font-size="11.00" fill="#000000"> &#160;</text>
<polygon fill="#ffffff" stroke="transparent" points="121.5,-483.2 121.5,-502.2 175.5,-502.2 175.5,-483.2 121.5,-483.2"/>
<polygon fill="none" stroke="#000000" points="121.5,-483.2 121.5,-502.2 175.5,-502.2 175.5,-483.2 121.5,-483.2"/>
<text text-anchor="start" x="150.7904" y="-489.3" font-family="Helvetica,sans-Serif" font-size="11.00" fill="#000000">85 &gt;</text>
</a>
</g>
</g>
<!-- form_eye_postseg&#45;&gt;patient_data -->
<g id="edge1" class="edge">
<title>form_eye_postseg:w&#45;&gt;patient_data:e</title>
<path fill="none" stroke="#000000" d="M211.776,-576.2C199.7815,-576.2 192.3229,-576.2 175.5,-576.2"/>
<polygon fill="#000000" stroke="#000000" points="218.5,-576.2001 226.5,-579.8 222.5,-576.2 226.5,-576.2 226.5,-576.2 226.5,-576.2 222.5,-576.2 226.5,-572.6 218.5,-576.2001 218.5,-576.2001"/>
<ellipse fill="none" stroke="#000000" cx="215.3" cy="-576.2001" rx="3.2" ry="3.2"/>
</g>
</g>
</svg>
