<?xml version="1.0" encoding="UTF-8" standalone="no"?>
<!DOCTYPE svg PUBLIC "-//W3C//DTD SVG 1.1//EN"
 "http://www.w3.org/Graphics/SVG/1.1/DTD/svg11.dtd">
<!-- Generated by graphviz version 2.40.1 (20161225.0304)
 -->
<!-- Title: oneDegreeRelationshipsDiagram Pages: 1 -->
<svg width="1041pt" height="441pt"
 viewBox="0.00 0.00 1041.00 441.20" xmlns="http://www.w3.org/2000/svg" xmlns:xlink="http://www.w3.org/1999/xlink">
<g id="graph0" class="graph" transform="scale(1 1) rotate(0) translate(4 437.2)">
<title>oneDegreeRelationshipsDiagram</title>
<polygon fill="#ffffff" stroke="transparent" points="-4,4 -4,-437.2 1037,-437.2 1037,4 -4,4"/>
<text text-anchor="middle" x="72.4936" y="-7.3" font-family="Helvetica,sans-Serif" font-size="11.00" fill="#000000">Generated by SchemaSpy</text>
<!-- forms -->
<g id="node1" class="node">
<title>forms</title>
<g id="a_node1"><a xlink:href="../../tables/forms.html" xlink:title="forms" target="_top">
<polygon fill="#ffffff" stroke="transparent" points="334,-130.2 334,-389.2 472,-389.2 472,-130.2 334,-130.2"/>
<polygon fill="#f5f5f5" stroke="transparent" points="334,-365.7 334,-388.7 472,-388.7 472,-365.7 334,-365.7"/>
<polygon fill="none" stroke="#000000" points="334,-365.7 334,-388.7 472,-388.7 472,-365.7 334,-365.7"/>
<text text-anchor="start" x="339" y="-374.3" font-family="Helvetica,sans-Serif" font-weight="bold" font-size="11.00" fill="#000000">forms</text>
<text text-anchor="start" x="437.0437" y="-373.8" font-family="Helvetica,sans-Serif" font-size="11.00" fill="#000000">[table]</text>
<polygon fill="none" stroke="#000000" points="334,-343.7 334,-365.7 472,-365.7 472,-343.7 334,-343.7"/>
<image xlink:href="../../images/primaryKeys.png" width="11px" height="12px" preserveAspectRatio="xMinYMin meet" x="339" y="-360.7"/>
<text text-anchor="start" x="354" y="-350.8" font-family="Helvetica,sans-Serif" font-size="11.00" fill="#000000">id</text>
<polygon fill="#ffffff" stroke="transparent" points="334,-321.7 334,-343.7 472,-343.7 472,-321.7 334,-321.7"/>
<polygon fill="none" stroke="#000000" points="334,-321.7 334,-343.7 472,-343.7 472,-321.7 334,-321.7"/>
<text text-anchor="start" x="354" y="-328.8" font-family="Helvetica,sans-Serif" font-size="11.00" fill="#000000">encounter</text>
<polygon fill="none" stroke="#000000" points="334,-299.7 334,-321.7 472,-321.7 472,-299.7 334,-299.7"/>
<image xlink:href="../../images/primaryKeys.png" width="11px" height="12px" preserveAspectRatio="xMinYMin meet" x="339" y="-316.7"/>
<text text-anchor="start" x="354" y="-306.8" font-family="Helvetica,sans-Serif" font-size="11.00" fill="#000000">form_id</text>
<polygon fill="#ffffff" stroke="transparent" points="334,-277.7 334,-299.7 472,-299.7 472,-277.7 334,-277.7"/>
<polygon fill="none" stroke="#000000" points="334,-277.7 334,-299.7 472,-299.7 472,-277.7 334,-277.7"/>
<image xlink:href="../../images/foreignKeys.png" width="11px" height="12px" preserveAspectRatio="xMinYMin meet" x="339" y="-294.7"/>
<text text-anchor="start" x="354" y="-284.8" font-family="Helvetica,sans-Serif" font-size="11.00" fill="#000000">pid</text>
<polygon fill="none" stroke="#000000" points="334,-255.7 334,-277.7 472,-277.7 472,-255.7 334,-255.7"/>
<image xlink:href="../../images/foreignKeys.png" width="11px" height="12px" preserveAspectRatio="xMinYMin meet" x="339" y="-272.7"/>
<text text-anchor="start" x="354" y="-262.8" font-family="Helvetica,sans-Serif" font-size="11.00" fill="#000000">user</text>
<polygon fill="none" stroke="#000000" points="334,-233.7 334,-255.7 472,-255.7 472,-233.7 334,-233.7"/>
<image xlink:href="../../images/foreignKeys.png" width="11px" height="12px" preserveAspectRatio="xMinYMin meet" x="339" y="-250.7"/>
<text text-anchor="start" x="354" y="-240.8" font-family="Helvetica,sans-Serif" font-size="11.00" fill="#000000">groupname</text>
<polygon fill="none" stroke="#000000" points="334,-211.7 334,-233.7 472,-233.7 472,-211.7 334,-211.7"/>
<image xlink:href="../../images/foreignKeys.png" width="11px" height="12px" preserveAspectRatio="xMinYMin meet" x="339" y="-228.7"/>
<text text-anchor="start" x="354" y="-218.8" font-family="Helvetica,sans-Serif" font-size="11.00" fill="#000000">therapy_group_id</text>
<polygon fill="none" stroke="#000000" points="334,-189.7 334,-211.7 472,-211.7 472,-189.7 334,-189.7"/>
<image xlink:href="../../images/foreignKeys.png" width="11px" height="12px" preserveAspectRatio="xMinYMin meet" x="339" y="-206.7"/>
<text text-anchor="start" x="354" y="-196.8" font-family="Helvetica,sans-Serif" font-size="11.00" fill="#000000">issue_id</text>
<polygon fill="none" stroke="#000000" points="334,-167.7 334,-189.7 472,-189.7 472,-167.7 334,-167.7"/>
<image xlink:href="../../images/foreignKeys.png" width="11px" height="12px" preserveAspectRatio="xMinYMin meet" x="339" y="-184.7"/>
<text text-anchor="start" x="354" y="-174.8" font-family="Helvetica,sans-Serif" font-size="11.00" fill="#000000">provider_id</text>
<polygon fill="none" stroke="#000000" points="334,-148.7 334,-167.7 472,-167.7 472,-148.7 334,-148.7"/>
<text text-anchor="start" x="337" y="-154.8" font-family="Helvetica,sans-Serif" font-size="11.00" fill="#000000">...</text>
<polygon fill="#ffffff" stroke="transparent" points="334,-129.7 334,-148.7 394,-148.7 394,-129.7 334,-129.7"/>
<polygon fill="none" stroke="#000000" points="334,-129.7 334,-148.7 394,-148.7 394,-129.7 334,-129.7"/>
<text text-anchor="start" x="337" y="-135.8" font-family="Helvetica,sans-Serif" font-size="11.00" fill="#000000">&lt; 6</text>
<polygon fill="#ffffff" stroke="transparent" points="394,-129.7 394,-148.7 425,-148.7 425,-129.7 394,-129.7"/>
<polygon fill="none" stroke="#000000" points="394,-129.7 394,-148.7 425,-148.7 425,-129.7 394,-129.7"/>
<text text-anchor="start" x="415.8862" y="-135.8" font-family="Helvetica,sans-Serif" font-size="11.00" fill="#000000"> &#160;</text>
<polygon fill="#ffffff" stroke="transparent" points="425,-129.7 425,-148.7 472,-148.7 472,-129.7 425,-129.7"/>
<polygon fill="none" stroke="#000000" points="425,-129.7 425,-148.7 472,-148.7 472,-129.7 425,-129.7"/>
<text text-anchor="start" x="447.2904" y="-135.8" font-family="Helvetica,sans-Serif" font-size="11.00" fill="#000000">14 &gt;</text>
</a>
</g>
</g>
<!-- patient_data -->
<g id="node2" class="node">
<title>patient_data</title>
<g id="a_node2"><a xlink:href="../../tables/patient_data.html" xlink:title="patient_data" target="_top">
<polygon fill="#ffffff" stroke="transparent" points="8,-38.2 8,-429.2 285,-429.2 285,-38.2 8,-38.2"/>
<polygon fill="#f5f5f5" stroke="transparent" points="8.5,-405.7 8.5,-428.7 285.5,-428.7 285.5,-405.7 8.5,-405.7"/>
<polygon fill="none" stroke="#000000" points="8.5,-405.7 8.5,-428.7 285.5,-428.7 285.5,-405.7 8.5,-405.7"/>
<text text-anchor="start" x="13.5" y="-414.3" font-family="Helvetica,sans-Serif" font-weight="bold" font-size="11.00" fill="#000000">patient_data</text>
<text text-anchor="start" x="250.5437" y="-413.8" font-family="Helvetica,sans-Serif" font-size="11.00" fill="#000000">[table]</text>
<polygon fill="none" stroke="#000000" points="8.5,-383.7 8.5,-405.7 285.5,-405.7 285.5,-383.7 8.5,-383.7"/>
<image xlink:href="../../images/primaryKeys.png" width="11px" height="12px" preserveAspectRatio="xMinYMin meet" x="13.5" y="-400.7"/>
<text text-anchor="start" x="28.5" y="-390.8" font-family="Helvetica,sans-Serif" font-size="11.00" fill="#000000">id</text>
<polygon fill="#ffffff" stroke="transparent" points="8.5,-361.7 8.5,-383.7 285.5,-383.7 285.5,-361.7 8.5,-361.7"/>
<polygon fill="none" stroke="#000000" points="8.5,-361.7 8.5,-383.7 285.5,-383.7 285.5,-361.7 8.5,-361.7"/>
<text text-anchor="start" x="28.5" y="-368.8" font-family="Helvetica,sans-Serif" font-size="11.00" fill="#000000">uuid</text>
<polygon fill="#ffffff" stroke="transparent" points="8.5,-339.7 8.5,-361.7 285.5,-361.7 285.5,-339.7 8.5,-339.7"/>
<polygon fill="none" stroke="#000000" points="8.5,-339.7 8.5,-361.7 285.5,-361.7 285.5,-339.7 8.5,-339.7"/>
<text text-anchor="start" x="28.5" y="-346.8" font-family="Helvetica,sans-Serif" font-size="11.00" fill="#000000">fname</text>
<polygon fill="#ffffff" stroke="transparent" points="8.5,-317.7 8.5,-339.7 285.5,-339.7 285.5,-317.7 8.5,-317.7"/>
<polygon fill="none" stroke="#000000" points="8.5,-317.7 8.5,-339.7 285.5,-339.7 285.5,-317.7 8.5,-317.7"/>
<text text-anchor="start" x="28.5" y="-324.8" font-family="Helvetica,sans-Serif" font-size="11.00" fill="#000000">lname</text>
<polygon fill="#ffffff" stroke="transparent" points="8.5,-295.7 8.5,-317.7 285.5,-317.7 285.5,-295.7 8.5,-295.7"/>
<polygon fill="none" stroke="#000000" points="8.5,-295.7 8.5,-317.7 285.5,-317.7 285.5,-295.7 8.5,-295.7"/>
<text text-anchor="start" x="28.5" y="-302.8" font-family="Helvetica,sans-Serif" font-size="11.00" fill="#000000">DOB</text>
<polygon fill="none" stroke="#000000" points="8.5,-273.7 8.5,-295.7 285.5,-295.7 285.5,-273.7 8.5,-273.7"/>
<image xlink:href="../../images/foreignKeys.png" width="11px" height="12px" preserveAspectRatio="xMinYMin meet" x="13.5" y="-290.7"/>
<text text-anchor="start" x="28.5" y="-280.8" font-family="Helvetica,sans-Serif" font-size="11.00" fill="#000000">pharmacy_id</text>
<polygon fill="none" stroke="#000000" points="8.5,-251.7 8.5,-273.7 285.5,-273.7 285.5,-251.7 8.5,-251.7"/>
<image xlink:href="../../images/foreignKeys.png" width="11px" height="12px" preserveAspectRatio="xMinYMin meet" x="13.5" y="-268.7"/>
<text text-anchor="start" x="28.5" y="-258.8" font-family="Helvetica,sans-Serif" font-size="11.00" fill="#000000">providerID</text>
<polygon fill="none" stroke="#000000" points="8.5,-229.7 8.5,-251.7 285.5,-251.7 285.5,-229.7 8.5,-229.7"/>
<image xlink:href="../../images/foreignKeys.png" width="11px" height="12px" preserveAspectRatio="xMinYMin meet" x="13.5" y="-246.7"/>
<text text-anchor="start" x="28.5" y="-236.8" font-family="Helvetica,sans-Serif" font-size="11.00" fill="#000000">ref_providerID</text>
<polygon fill="none" stroke="#000000" points="8.5,-207.7 8.5,-229.7 285.5,-229.7 285.5,-207.7 8.5,-207.7"/>
<image xlink:href="../../images/foreignKeys.png" width="11px" height="12px" preserveAspectRatio="xMinYMin meet" x="13.5" y="-224.7"/>
<text text-anchor="start" x="28.5" y="-214.8" font-family="Helvetica,sans-Serif" font-size="11.00" fill="#000000">interpreter_needed</text>
<polygon fill="none" stroke="#000000" points="8.5,-185.7 8.5,-207.7 285.5,-207.7 285.5,-185.7 8.5,-185.7"/>
<image xlink:href="../../images/primaryKeys.png" width="11px" height="12px" preserveAspectRatio="xMinYMin meet" x="13.5" y="-202.7"/>
<text text-anchor="start" x="28.5" y="-192.8" font-family="Helvetica,sans-Serif" font-size="11.00" fill="#000000">pid</text>
<polygon fill="none" stroke="#000000" points="8.5,-163.7 8.5,-185.7 285.5,-185.7 285.5,-163.7 8.5,-163.7"/>
<image xlink:href="../../images/foreignKeys.png" width="11px" height="12px" preserveAspectRatio="xMinYMin meet" x="13.5" y="-180.7"/>
<text text-anchor="start" x="28.5" y="-170.8" font-family="Helvetica,sans-Serif" font-size="11.00" fill="#000000">advance_directive_user_authenticator</text>
<polygon fill="none" stroke="#000000" points="8.5,-141.7 8.5,-163.7 285.5,-163.7 285.5,-141.7 8.5,-141.7"/>
<image xlink:href="../../images/foreignKeys.png" width="11px" height="12px" preserveAspectRatio="xMinYMin meet" x="13.5" y="-158.7"/>
<text text-anchor="start" x="28.5" y="-148.8" font-family="Helvetica,sans-Serif" font-size="11.00" fill="#000000">created_by</text>
<polygon fill="none" stroke="#000000" points="8.5,-119.7 8.5,-141.7 285.5,-141.7 285.5,-119.7 8.5,-119.7"/>
<image xlink:href="../../images/foreignKeys.png" width="11px" height="12px" preserveAspectRatio="xMinYMin meet" x="13.5" y="-136.7"/>
<text text-anchor="start" x="28.5" y="-126.8" font-family="Helvetica,sans-Serif" font-size="11.00" fill="#000000">updated_by</text>
<polygon fill="none" stroke="#000000" points="8.5,-97.7 8.5,-119.7 285.5,-119.7 285.5,-97.7 8.5,-97.7"/>
<image xlink:href="../../images/foreignKeys.png" width="11px" height="12px" preserveAspectRatio="xMinYMin meet" x="13.5" y="-114.7"/>
<text text-anchor="start" x="28.5" y="-104.8" font-family="Helvetica,sans-Serif" font-size="11.00" fill="#000000">tribal_affiliations</text>
<polygon fill="none" stroke="#000000" points="8.5,-75.7 8.5,-97.7 285.5,-97.7 285.5,-75.7 8.5,-75.7"/>
<image xlink:href="../../images/foreignKeys.png" width="11px" height="12px" preserveAspectRatio="xMinYMin meet" x="13.5" y="-92.7"/>
<text text-anchor="start" x="28.5" y="-82.8" font-family="Helvetica,sans-Serif" font-size="11.00" fill="#000000">sex_identified</text>
<polygon fill="none" stroke="#000000" points="8.5,-56.7 8.5,-75.7 285.5,-75.7 285.5,-56.7 8.5,-56.7"/>
<text text-anchor="start" x="11.5" y="-62.8" font-family="Helvetica,sans-Serif" font-size="11.00" fill="#000000">...</text>
<polygon fill="#ffffff" stroke="transparent" points="8.5,-37.7 8.5,-56.7 137.5,-56.7 137.5,-37.7 8.5,-37.7"/>
<polygon fill="none" stroke="#000000" points="8.5,-37.7 8.5,-56.7 137.5,-56.7 137.5,-37.7 8.5,-37.7"/>
<text text-anchor="start" x="11.5" y="-43.8" font-family="Helvetica,sans-Serif" font-size="11.00" fill="#000000">&lt; 9</text>
<polygon fill="#ffffff" stroke="transparent" points="137.5,-37.7 137.5,-56.7 203.5,-56.7 203.5,-37.7 137.5,-37.7"/>
<polygon fill="none" stroke="#000000" points="137.5,-37.7 137.5,-56.7 203.5,-56.7 203.5,-37.7 137.5,-37.7"/>
<text text-anchor="start" x="194.3862" y="-43.8" font-family="Helvetica,sans-Serif" font-size="11.00" fill="#000000"> &#160;</text>
<polygon fill="#ffffff" stroke="transparent" points="203.5,-37.7 203.5,-56.7 285.5,-56.7 285.5,-37.7 203.5,-37.7"/>
<polygon fill="none" stroke="#000000" points="203.5,-37.7 203.5,-56.7 285.5,-56.7 285.5,-37.7 203.5,-37.7"/>
<text text-anchor="start" x="260.7904" y="-43.8" font-family="Helvetica,sans-Serif" font-size="11.00" fill="#000000">95 &gt;</text>
</a>
</g>
</g>
<!-- forms&#45;&gt;patient_data -->
<g id="edge1" class="edge">
<title>forms:w&#45;&gt;patient_data:e</title>
<path fill="none" stroke="#000000" d="M319.9321,-284.2626C297.8598,-265.8853 325.5838,-196.7 285.5,-196.7"/>
<polygon fill="#000000" stroke="#000000" points="326.3705,-286.2934 332.917,-292.1333 330.1853,-287.4967 334,-288.7 334,-288.7 334,-288.7 330.1853,-287.4967 335.083,-285.2667 326.3705,-286.2934 326.3705,-286.2934"/>
<ellipse fill="none" stroke="#000000" cx="323.3188" cy="-285.3308" rx="3.2" ry="3.2"/>
</g>
<!-- form_track_anything -->
<g id="node3" class="node">
<title>form_track_anything</title>
<g id="a_node3"><a xlink:href="../../tables/form_track_anything.html" xlink:title="form_track_anything" target="_top">
<polygon fill="#ffffff" stroke="transparent" points="521,-131.7 521,-265.7 746,-265.7 746,-131.7 521,-131.7"/>
<polygon fill="#f5f5f5" stroke="transparent" points="523.5,-240.7 523.5,-263.7 744.5,-263.7 744.5,-240.7 523.5,-240.7"/>
<polygon fill="none" stroke="#000000" points="523.5,-240.7 523.5,-263.7 744.5,-263.7 744.5,-240.7 523.5,-240.7"/>
<text text-anchor="start" x="528.5" y="-249.3" font-family="Helvetica,sans-Serif" font-weight="bold" font-size="11.00" fill="#000000">form_track_anything</text>
<text text-anchor="start" x="709.5437" y="-248.8" font-family="Helvetica,sans-Serif" font-size="11.00" fill="#000000">[table]</text>
<polygon fill="none" stroke="#000000" points="523.5,-218.7 523.5,-240.7 682.5,-240.7 682.5,-218.7 523.5,-218.7"/>
<image xlink:href="../../images/primaryKeys.png" width="11px" height="12px" preserveAspectRatio="xMinYMin meet" x="528.5" y="-235.7"/>
<text text-anchor="start" x="543.5" y="-225.8" font-family="Helvetica,sans-Serif" font-size="11.00" fill="#000000">id</text>
<polygon fill="none" stroke="#000000" points="682.5,-218.7 682.5,-240.7 744.5,-240.7 744.5,-218.7 682.5,-218.7"/>
<text text-anchor="start" x="685.378" y="-226.4" font-family="Helvetica,sans-Serif" font-size="11.00" fill="#000000">unknown[0]</text>
<polygon fill="none" stroke="#000000" points="523.5,-196.7 523.5,-218.7 682.5,-218.7 682.5,-196.7 523.5,-196.7"/>
<text text-anchor="start" x="543.5" y="-203.8" font-family="Helvetica,sans-Serif" font-size="11.00" fill="#000000">name</text>
<polygon fill="none" stroke="#000000" points="682.5,-196.7 682.5,-218.7 744.5,-218.7 744.5,-196.7 682.5,-196.7"/>
<text text-anchor="start" x="685.378" y="-204.4" font-family="Helvetica,sans-Serif" font-size="11.00" fill="#000000">unknown[0]</text>
<polygon fill="none" stroke="#000000" points="523.5,-174.7 523.5,-196.7 682.5,-196.7 682.5,-174.7 523.5,-174.7"/>
<image xlink:href="../../images/foreignKeys.png" width="11px" height="12px" preserveAspectRatio="xMinYMin meet" x="528.5" y="-191.7"/>
<text text-anchor="start" x="543.5" y="-181.8" font-family="Helvetica,sans-Serif" font-size="11.00" fill="#000000">pid</text>
<polygon fill="none" stroke="#000000" points="682.5,-174.7 682.5,-196.7 744.5,-196.7 744.5,-174.7 682.5,-174.7"/>
<text text-anchor="start" x="685.378" y="-182.4" font-family="Helvetica,sans-Serif" font-size="11.00" fill="#000000">unknown[0]</text>
<polygon fill="none" stroke="#000000" points="523.5,-152.7 523.5,-174.7 682.5,-174.7 682.5,-152.7 523.5,-152.7"/>
<text text-anchor="start" x="543.5" y="-159.8" font-family="Helvetica,sans-Serif" font-size="11.00" fill="#000000">procedure_type_id</text>
<polygon fill="none" stroke="#000000" points="682.5,-152.7 682.5,-174.7 744.5,-174.7 744.5,-152.7 682.5,-152.7"/>
<text text-anchor="start" x="685.378" y="-160.4" font-family="Helvetica,sans-Serif" font-size="11.00" fill="#000000">unknown[0]</text>
<polygon fill="#ffffff" stroke="transparent" points="523.5,-133.7 523.5,-152.7 607.5,-152.7 607.5,-133.7 523.5,-133.7"/>
<polygon fill="none" stroke="#000000" points="523.5,-133.7 523.5,-152.7 607.5,-152.7 607.5,-133.7 523.5,-133.7"/>
<text text-anchor="start" x="526.5" y="-139.8" font-family="Helvetica,sans-Serif" font-size="11.00" fill="#000000">&lt; 2</text>
<polygon fill="#ffffff" stroke="transparent" points="607.5,-133.7 607.5,-152.7 682.5,-152.7 682.5,-133.7 607.5,-133.7"/>
<polygon fill="none" stroke="#000000" points="607.5,-133.7 607.5,-152.7 682.5,-152.7 682.5,-133.7 607.5,-133.7"/>
<text text-anchor="start" x="673.3862" y="-139.8" font-family="Helvetica,sans-Serif" font-size="11.00" fill="#000000"> &#160;</text>
<polygon fill="#ffffff" stroke="transparent" points="682.5,-133.7 682.5,-152.7 744.5,-152.7 744.5,-133.7 682.5,-133.7"/>
<polygon fill="none" stroke="#000000" points="682.5,-133.7 682.5,-152.7 744.5,-152.7 744.5,-133.7 682.5,-133.7"/>
<text text-anchor="start" x="725.9053" y="-139.8" font-family="Helvetica,sans-Serif" font-size="11.00" fill="#000000">1 &gt;</text>
<polygon fill="none" stroke="#000000" stroke-width="2" points="522,-132.7 522,-264.7 745,-264.7 745,-132.7 522,-132.7"/>
</a>
</g>
</g>
<!-- form_track_anything&#45;&gt;forms -->
<g id="edge2" class="edge">
<title>form_track_anything:w&#45;&gt;forms:e</title>
<path fill="none" stroke="#000000" d="M513.0475,-231.8666C486.7159,-244.7478 510.4943,-310.7 472,-310.7"/>
<polygon fill="#000000" stroke="#000000" points="521.9048,-225.9456 523.5285,-233.7791 521.9618,-234.1039 520.3381,-226.2704 521.9048,-225.9456"/>
<polyline fill="none" stroke="#000000" points="523.5,-229.7 519.5833,-230.5119 "/>
<ellipse fill="none" stroke="#000000" cx="516.4499" cy="-231.1614" rx="3.2" ry="3.2"/>
</g>
<!-- form_track_anything&#45;&gt;patient_data -->
<g id="edge3" class="edge">
<title>form_track_anything:w&#45;&gt;patient_data:e</title>
<path fill="none" stroke="#000000" d="M509.5052,-181.3965C494.7497,-169.0232 505.3729,-133.3652 480,-119.7 419.7395,-87.2453 384.5892,-84.3171 326,-119.7 292.9004,-139.6894 324.1673,-196.7 285.5,-196.7"/>
<polygon fill="#000000" stroke="#000000" points="515.8534,-183.3486 522.4419,-189.141 519.6767,-184.5243 523.5,-185.7 523.5,-185.7 523.5,-185.7 519.6767,-184.5243 524.5581,-182.259 515.8534,-183.3486 515.8534,-183.3486"/>
<ellipse fill="none" stroke="#000000" cx="512.7947" cy="-182.408" rx="3.2" ry="3.2"/>
</g>
<!-- form_track_anything_results -->
<g id="node4" class="node">
<title>form_track_anything_results</title>
<g id="a_node4"><a xlink:href="../../tables/form_track_anything_results.html" xlink:title="form_track_anything_results" target="_top">
<polygon fill="#ffffff" stroke="transparent" points="795,-181.2 795,-264.2 1025,-264.2 1025,-181.2 795,-181.2"/>
<polygon fill="#f5f5f5" stroke="transparent" points="795,-240.7 795,-263.7 1025,-263.7 1025,-240.7 795,-240.7"/>
<polygon fill="none" stroke="#000000" points="795,-240.7 795,-263.7 1025,-263.7 1025,-240.7 795,-240.7"/>
<text text-anchor="start" x="800" y="-249.3" font-family="Helvetica,sans-Serif" font-weight="bold" font-size="11.00" fill="#000000">form_track_anything_results</text>
<text text-anchor="start" x="990.5219" y="-248.8" font-family="Helvetica,sans-Serif" font-size="11.00" fill="#000000">[table]</text>
<polygon fill="none" stroke="#000000" points="795,-218.7 795,-240.7 1025,-240.7 1025,-218.7 795,-218.7"/>
<image xlink:href="../../images/foreignKeys.png" width="11px" height="12px" preserveAspectRatio="xMinYMin meet" x="800" y="-235.7"/>
<text text-anchor="start" x="824" y="-225.8" font-family="Helvetica,sans-Serif" font-size="11.00" fill="#000000">track_anything_id</text>
<polygon fill="none" stroke="#000000" points="795,-199.7 795,-218.7 1025,-218.7 1025,-199.7 795,-199.7"/>
<text text-anchor="start" x="798" y="-205.8" font-family="Helvetica,sans-Serif" font-size="11.00" fill="#000000">...</text>
<polygon fill="#ffffff" stroke="transparent" points="795,-180.7 795,-199.7 908,-199.7 908,-180.7 795,-180.7"/>
<polygon fill="none" stroke="#000000" points="795,-180.7 795,-199.7 908,-199.7 908,-180.7 795,-180.7"/>
<text text-anchor="start" x="798" y="-186.8" font-family="Helvetica,sans-Serif" font-size="11.00" fill="#000000">&lt; 1</text>
<polygon fill="#ffffff" stroke="transparent" points="908,-180.7 908,-199.7 966,-199.7 966,-180.7 908,-180.7"/>
<polygon fill="none" stroke="#000000" points="908,-180.7 908,-199.7 966,-199.7 966,-180.7 908,-180.7"/>
<text text-anchor="start" x="956.8862" y="-186.8" font-family="Helvetica,sans-Serif" font-size="11.00" fill="#000000"> &#160;</text>
<polygon fill="#ffffff" stroke="transparent" points="966,-180.7 966,-199.7 1025,-199.7 1025,-180.7 966,-180.7"/>
<polygon fill="none" stroke="#000000" points="966,-180.7 966,-199.7 1025,-199.7 1025,-180.7 966,-180.7"/>
<text text-anchor="start" x="1015.8862" y="-186.8" font-family="Helvetica,sans-Serif" font-size="11.00" fill="#000000"> &#160;</text>
</a>
</g>
</g>
<!-- form_track_anything_results&#45;&gt;form_track_anything -->
<g id="edge4" class="edge">
<title>form_track_anything_results:w&#45;&gt;form_track_anything:e</title>
<path fill="none" stroke="#000000" d="M780.4203,-229.7C768.5435,-229.7 761.158,-229.7 744.5,-229.7"/>
<polygon fill="#000000" stroke="#000000" points="787,-229.7001 795,-233.3 791,-229.7 795,-229.7 795,-229.7 795,-229.7 791,-229.7 795,-226.1 787,-229.7001 787,-229.7001"/>
<ellipse fill="none" stroke="#000000" cx="783.8" cy="-229.7001" rx="3.2" ry="3.2"/>
</g>
</g>
</svg>
