<?xml version="1.0" encoding="UTF-8" standalone="no"?>
<!DOCTYPE svg PUBLIC "-//W3C//DTD SVG 1.1//EN"
 "http://www.w3.org/Graphics/SVG/1.1/DTD/svg11.dtd">
<!-- Generated by graphviz version 2.40.1 (20161225.0304)
 -->
<!-- Title: oneDegreeRelationshipsDiagram Pages: 1 -->
<svg width="807pt" height="488pt"
 viewBox="0.00 0.00 807.00 488.02" xmlns="http://www.w3.org/2000/svg" xmlns:xlink="http://www.w3.org/1999/xlink">
<g id="graph0" class="graph" transform="scale(1 1) rotate(0) translate(4 484.0248)">
<title>oneDegreeRelationshipsDiagram</title>
<polygon fill="#ffffff" stroke="transparent" points="-4,4 -4,-484.0248 803,-484.0248 803,4 -4,4"/>
<text text-anchor="middle" x="72.4936" y="-7.3" font-family="Helvetica,sans-Serif" font-size="11.00" fill="#000000">Generated by SchemaSpy</text>
<!-- forms -->
<g id="node1" class="node">
<title>forms</title>
<g id="a_node1"><a xlink:href="../../tables/forms.html" xlink:title="forms" target="_top">
<polygon fill="#ffffff" stroke="transparent" points="440,-70.0248 440,-329.0248 578,-329.0248 578,-70.0248 440,-70.0248"/>
<polygon fill="#f5f5f5" stroke="transparent" points="440,-305.5248 440,-328.5248 578,-328.5248 578,-305.5248 440,-305.5248"/>
<polygon fill="none" stroke="#000000" points="440,-305.5248 440,-328.5248 578,-328.5248 578,-305.5248 440,-305.5248"/>
<text text-anchor="start" x="445" y="-314.1248" font-family="Helvetica,sans-Serif" font-weight="bold" font-size="11.00" fill="#000000">forms</text>
<text text-anchor="start" x="543.0437" y="-313.6248" font-family="Helvetica,sans-Serif" font-size="11.00" fill="#000000">[table]</text>
<polygon fill="none" stroke="#000000" points="440,-283.5248 440,-305.5248 578,-305.5248 578,-283.5248 440,-283.5248"/>
<image xlink:href="../../images/primaryKeys.png" width="11px" height="12px" preserveAspectRatio="xMinYMin meet" x="445" y="-300.525"/>
<text text-anchor="start" x="460" y="-290.6248" font-family="Helvetica,sans-Serif" font-size="11.00" fill="#000000">id</text>
<polygon fill="#ffffff" stroke="transparent" points="440,-261.5248 440,-283.5248 578,-283.5248 578,-261.5248 440,-261.5248"/>
<polygon fill="none" stroke="#000000" points="440,-261.5248 440,-283.5248 578,-283.5248 578,-261.5248 440,-261.5248"/>
<text text-anchor="start" x="460" y="-268.6248" font-family="Helvetica,sans-Serif" font-size="11.00" fill="#000000">encounter</text>
<polygon fill="none" stroke="#000000" points="440,-239.5248 440,-261.5248 578,-261.5248 578,-239.5248 440,-239.5248"/>
<image xlink:href="../../images/primaryKeys.png" width="11px" height="12px" preserveAspectRatio="xMinYMin meet" x="445" y="-256.525"/>
<text text-anchor="start" x="460" y="-246.6248" font-family="Helvetica,sans-Serif" font-size="11.00" fill="#000000">form_id</text>
<polygon fill="#ffffff" stroke="transparent" points="440,-217.5248 440,-239.5248 578,-239.5248 578,-217.5248 440,-217.5248"/>
<polygon fill="none" stroke="#000000" points="440,-217.5248 440,-239.5248 578,-239.5248 578,-217.5248 440,-217.5248"/>
<image xlink:href="../../images/foreignKeys.png" width="11px" height="12px" preserveAspectRatio="xMinYMin meet" x="445" y="-234.525"/>
<text text-anchor="start" x="460" y="-224.6248" font-family="Helvetica,sans-Serif" font-size="11.00" fill="#000000">pid</text>
<polygon fill="none" stroke="#000000" points="440,-195.5248 440,-217.5248 578,-217.5248 578,-195.5248 440,-195.5248"/>
<image xlink:href="../../images/foreignKeys.png" width="11px" height="12px" preserveAspectRatio="xMinYMin meet" x="445" y="-212.525"/>
<text text-anchor="start" x="460" y="-202.6248" font-family="Helvetica,sans-Serif" font-size="11.00" fill="#000000">user</text>
<polygon fill="none" stroke="#000000" points="440,-173.5248 440,-195.5248 578,-195.5248 578,-173.5248 440,-173.5248"/>
<image xlink:href="../../images/foreignKeys.png" width="11px" height="12px" preserveAspectRatio="xMinYMin meet" x="445" y="-190.525"/>
<text text-anchor="start" x="460" y="-180.6248" font-family="Helvetica,sans-Serif" font-size="11.00" fill="#000000">groupname</text>
<polygon fill="none" stroke="#000000" points="440,-151.5248 440,-173.5248 578,-173.5248 578,-151.5248 440,-151.5248"/>
<image xlink:href="../../images/foreignKeys.png" width="11px" height="12px" preserveAspectRatio="xMinYMin meet" x="445" y="-168.525"/>
<text text-anchor="start" x="460" y="-158.6248" font-family="Helvetica,sans-Serif" font-size="11.00" fill="#000000">therapy_group_id</text>
<polygon fill="none" stroke="#000000" points="440,-129.5248 440,-151.5248 578,-151.5248 578,-129.5248 440,-129.5248"/>
<image xlink:href="../../images/foreignKeys.png" width="11px" height="12px" preserveAspectRatio="xMinYMin meet" x="445" y="-146.525"/>
<text text-anchor="start" x="460" y="-136.6248" font-family="Helvetica,sans-Serif" font-size="11.00" fill="#000000">issue_id</text>
<polygon fill="none" stroke="#000000" points="440,-107.5248 440,-129.5248 578,-129.5248 578,-107.5248 440,-107.5248"/>
<image xlink:href="../../images/foreignKeys.png" width="11px" height="12px" preserveAspectRatio="xMinYMin meet" x="445" y="-124.525"/>
<text text-anchor="start" x="460" y="-114.6248" font-family="Helvetica,sans-Serif" font-size="11.00" fill="#000000">provider_id</text>
<polygon fill="none" stroke="#000000" points="440,-88.5248 440,-107.5248 578,-107.5248 578,-88.5248 440,-88.5248"/>
<text text-anchor="start" x="443" y="-94.6248" font-family="Helvetica,sans-Serif" font-size="11.00" fill="#000000">...</text>
<polygon fill="#ffffff" stroke="transparent" points="440,-69.5248 440,-88.5248 500,-88.5248 500,-69.5248 440,-69.5248"/>
<polygon fill="none" stroke="#000000" points="440,-69.5248 440,-88.5248 500,-88.5248 500,-69.5248 440,-69.5248"/>
<text text-anchor="start" x="443" y="-75.6248" font-family="Helvetica,sans-Serif" font-size="11.00" fill="#000000">&lt; 6</text>
<polygon fill="#ffffff" stroke="transparent" points="500,-69.5248 500,-88.5248 531,-88.5248 531,-69.5248 500,-69.5248"/>
<polygon fill="none" stroke="#000000" points="500,-69.5248 500,-88.5248 531,-88.5248 531,-69.5248 500,-69.5248"/>
<text text-anchor="start" x="521.8862" y="-75.6248" font-family="Helvetica,sans-Serif" font-size="11.00" fill="#000000"> &#160;</text>
<polygon fill="#ffffff" stroke="transparent" points="531,-69.5248 531,-88.5248 578,-88.5248 578,-69.5248 531,-69.5248"/>
<polygon fill="none" stroke="#000000" points="531,-69.5248 531,-88.5248 578,-88.5248 578,-69.5248 531,-69.5248"/>
<text text-anchor="start" x="553.2904" y="-75.6248" font-family="Helvetica,sans-Serif" font-size="11.00" fill="#000000">13 &gt;</text>
</a>
</g>
</g>
<!-- groups -->
<g id="node2" class="node">
<title>groups</title>
<g id="a_node2"><a xlink:href="../../tables/groups.html" xlink:title="groups" target="_top">
<polygon fill="#ffffff" stroke="transparent" points="264.5,-109.5248 264.5,-217.5248 350.5,-217.5248 350.5,-109.5248 264.5,-109.5248"/>
<polygon fill="#f5f5f5" stroke="transparent" points="264.5,-194.5248 264.5,-217.5248 350.5,-217.5248 350.5,-194.5248 264.5,-194.5248"/>
<polygon fill="none" stroke="#000000" points="264.5,-194.5248 264.5,-217.5248 350.5,-217.5248 350.5,-194.5248 264.5,-194.5248"/>
<text text-anchor="start" x="269.5" y="-203.1248" font-family="Helvetica,sans-Serif" font-weight="bold" font-size="11.00" fill="#000000">groups</text>
<text text-anchor="start" x="316.0219" y="-202.6248" font-family="Helvetica,sans-Serif" font-size="11.00" fill="#000000">[table]</text>
<polygon fill="none" stroke="#000000" points="264.5,-172.5248 264.5,-194.5248 350.5,-194.5248 350.5,-172.5248 264.5,-172.5248"/>
<image xlink:href="../../images/primaryKeys.png" width="11px" height="12px" preserveAspectRatio="xMinYMin meet" x="269.5" y="-189.525"/>
<text text-anchor="start" x="293.5" y="-179.6248" font-family="Helvetica,sans-Serif" font-size="11.00" fill="#000000">id</text>
<polygon fill="none" stroke="#000000" points="264.5,-150.5248 264.5,-172.5248 350.5,-172.5248 350.5,-150.5248 264.5,-150.5248"/>
<image xlink:href="../../images/primaryKeys.png" width="11px" height="12px" preserveAspectRatio="xMinYMin meet" x="269.5" y="-167.525"/>
<text text-anchor="start" x="293.5" y="-157.6248" font-family="Helvetica,sans-Serif" font-size="11.00" fill="#000000">name</text>
<polygon fill="none" stroke="#000000" points="264.5,-128.5248 264.5,-150.5248 350.5,-150.5248 350.5,-128.5248 264.5,-128.5248"/>
<image xlink:href="../../images/foreignKeys.png" width="11px" height="12px" preserveAspectRatio="xMinYMin meet" x="269.5" y="-145.525"/>
<text text-anchor="start" x="293.5" y="-135.6248" font-family="Helvetica,sans-Serif" font-size="11.00" fill="#000000">user</text>
<polygon fill="#ffffff" stroke="transparent" points="264.5,-109.5248 264.5,-128.5248 298.5,-128.5248 298.5,-109.5248 264.5,-109.5248"/>
<polygon fill="none" stroke="#000000" points="264.5,-109.5248 264.5,-128.5248 298.5,-128.5248 298.5,-109.5248 264.5,-109.5248"/>
<text text-anchor="start" x="267.5" y="-115.6248" font-family="Helvetica,sans-Serif" font-size="11.00" fill="#000000">&lt; 1</text>
<polygon fill="#ffffff" stroke="transparent" points="298.5,-109.5248 298.5,-128.5248 316.5,-128.5248 316.5,-109.5248 298.5,-109.5248"/>
<polygon fill="none" stroke="#000000" points="298.5,-109.5248 298.5,-128.5248 316.5,-128.5248 316.5,-109.5248 298.5,-109.5248"/>
<text text-anchor="start" x="307.3862" y="-115.6248" font-family="Helvetica,sans-Serif" font-size="11.00" fill="#000000"> &#160;</text>
<polygon fill="#ffffff" stroke="transparent" points="316.5,-109.5248 316.5,-128.5248 350.5,-128.5248 350.5,-109.5248 316.5,-109.5248"/>
<polygon fill="none" stroke="#000000" points="316.5,-109.5248 316.5,-128.5248 350.5,-128.5248 350.5,-109.5248 316.5,-109.5248"/>
<text text-anchor="start" x="325.7904" y="-115.6248" font-family="Helvetica,sans-Serif" font-size="11.00" fill="#000000">17 &gt;</text>
</a>
</g>
</g>
<!-- forms&#45;&gt;groups -->
<g id="edge1" class="edge">
<title>forms:w&#45;&gt;groups:e</title>
<path fill="none" stroke="#000000" d="M425.262,-183.4154C396.3803,-178.8211 386.1156,-161.5248 350.5,-161.5248"/>
<polygon fill="#000000" stroke="#000000" points="432.0226,-183.9243 439.7298,-188.1146 436.0113,-184.2245 440,-184.5248 440,-184.5248 440,-184.5248 436.0113,-184.2245 440.2702,-180.9349 432.0226,-183.9243 432.0226,-183.9243"/>
<ellipse fill="none" stroke="#000000" cx="428.8316" cy="-183.6841" rx="3.2" ry="3.2"/>
</g>
<!-- patient_data -->
<g id="node3" class="node">
<title>patient_data</title>
<g id="a_node3"><a xlink:href="../../tables/patient_data.html" xlink:title="patient_data" target="_top">
<polygon fill="#ffffff" stroke="transparent" points="224,-239.0248 224,-476.0248 391,-476.0248 391,-239.0248 224,-239.0248"/>
<polygon fill="#f5f5f5" stroke="transparent" points="224.5,-452.5248 224.5,-475.5248 391.5,-475.5248 391.5,-452.5248 224.5,-452.5248"/>
<polygon fill="none" stroke="#000000" points="224.5,-452.5248 224.5,-475.5248 391.5,-475.5248 391.5,-452.5248 224.5,-452.5248"/>
<text text-anchor="start" x="229.5" y="-461.1248" font-family="Helvetica,sans-Serif" font-weight="bold" font-size="11.00" fill="#000000">patient_data</text>
<text text-anchor="start" x="356.5437" y="-460.6248" font-family="Helvetica,sans-Serif" font-size="11.00" fill="#000000">[table]</text>
<polygon fill="#ffffff" stroke="transparent" points="224.5,-430.5248 224.5,-452.5248 391.5,-452.5248 391.5,-430.5248 224.5,-430.5248"/>
<polygon fill="none" stroke="#000000" points="224.5,-430.5248 224.5,-452.5248 391.5,-452.5248 391.5,-430.5248 224.5,-430.5248"/>
<text text-anchor="start" x="244.5" y="-437.6248" font-family="Helvetica,sans-Serif" font-size="11.00" fill="#000000">id</text>
<polygon fill="none" stroke="#000000" points="224.5,-408.5248 224.5,-430.5248 391.5,-430.5248 391.5,-408.5248 224.5,-408.5248"/>
<image xlink:href="../../images/foreignKeys.png" width="11px" height="12px" preserveAspectRatio="xMinYMin meet" x="229.5" y="-425.525"/>
<text text-anchor="start" x="244.5" y="-415.6248" font-family="Helvetica,sans-Serif" font-size="11.00" fill="#000000">pharmacy_id</text>
<polygon fill="none" stroke="#000000" points="224.5,-386.5248 224.5,-408.5248 391.5,-408.5248 391.5,-386.5248 224.5,-386.5248"/>
<image xlink:href="../../images/foreignKeys.png" width="11px" height="12px" preserveAspectRatio="xMinYMin meet" x="229.5" y="-403.525"/>
<text text-anchor="start" x="244.5" y="-393.6248" font-family="Helvetica,sans-Serif" font-size="11.00" fill="#000000">providerID</text>
<polygon fill="none" stroke="#000000" points="224.5,-364.5248 224.5,-386.5248 391.5,-386.5248 391.5,-364.5248 224.5,-364.5248"/>
<image xlink:href="../../images/foreignKeys.png" width="11px" height="12px" preserveAspectRatio="xMinYMin meet" x="229.5" y="-381.525"/>
<text text-anchor="start" x="244.5" y="-371.6248" font-family="Helvetica,sans-Serif" font-size="11.00" fill="#000000">ref_providerID</text>
<polygon fill="none" stroke="#000000" points="224.5,-342.5248 224.5,-364.5248 391.5,-364.5248 391.5,-342.5248 224.5,-342.5248"/>
<image xlink:href="../../images/primaryKeys.png" width="11px" height="12px" preserveAspectRatio="xMinYMin meet" x="229.5" y="-359.525"/>
<text text-anchor="start" x="244.5" y="-349.6248" font-family="Helvetica,sans-Serif" font-size="11.00" fill="#000000">pid</text>
<polygon fill="#ffffff" stroke="transparent" points="224.5,-320.5248 224.5,-342.5248 391.5,-342.5248 391.5,-320.5248 224.5,-320.5248"/>
<polygon fill="none" stroke="#000000" points="224.5,-320.5248 224.5,-342.5248 391.5,-342.5248 391.5,-320.5248 224.5,-320.5248"/>
<text text-anchor="start" x="244.5" y="-327.6248" font-family="Helvetica,sans-Serif" font-size="11.00" fill="#000000">uuid</text>
<polygon fill="none" stroke="#000000" points="224.5,-298.5248 224.5,-320.5248 391.5,-320.5248 391.5,-298.5248 224.5,-298.5248"/>
<image xlink:href="../../images/foreignKeys.png" width="11px" height="12px" preserveAspectRatio="xMinYMin meet" x="229.5" y="-315.525"/>
<text text-anchor="start" x="244.5" y="-305.6248" font-family="Helvetica,sans-Serif" font-size="11.00" fill="#000000">created_by</text>
<polygon fill="none" stroke="#000000" points="224.5,-276.5248 224.5,-298.5248 391.5,-298.5248 391.5,-276.5248 224.5,-276.5248"/>
<image xlink:href="../../images/foreignKeys.png" width="11px" height="12px" preserveAspectRatio="xMinYMin meet" x="229.5" y="-293.525"/>
<text text-anchor="start" x="244.5" y="-283.6248" font-family="Helvetica,sans-Serif" font-size="11.00" fill="#000000">updated_by</text>
<polygon fill="none" stroke="#000000" points="224.5,-257.5248 224.5,-276.5248 391.5,-276.5248 391.5,-257.5248 224.5,-257.5248"/>
<text text-anchor="start" x="227.5" y="-263.6248" font-family="Helvetica,sans-Serif" font-size="11.00" fill="#000000">...</text>
<polygon fill="#ffffff" stroke="transparent" points="224.5,-238.5248 224.5,-257.5248 298.5,-257.5248 298.5,-238.5248 224.5,-238.5248"/>
<polygon fill="none" stroke="#000000" points="224.5,-238.5248 224.5,-257.5248 298.5,-257.5248 298.5,-238.5248 224.5,-238.5248"/>
<text text-anchor="start" x="227.5" y="-244.6248" font-family="Helvetica,sans-Serif" font-size="11.00" fill="#000000">&lt; 5</text>
<polygon fill="#ffffff" stroke="transparent" points="298.5,-238.5248 298.5,-257.5248 337.5,-257.5248 337.5,-238.5248 298.5,-238.5248"/>
<polygon fill="none" stroke="#000000" points="298.5,-238.5248 298.5,-257.5248 337.5,-257.5248 337.5,-238.5248 298.5,-238.5248"/>
<text text-anchor="start" x="328.3862" y="-244.6248" font-family="Helvetica,sans-Serif" font-size="11.00" fill="#000000"> &#160;</text>
<polygon fill="#ffffff" stroke="transparent" points="337.5,-238.5248 337.5,-257.5248 391.5,-257.5248 391.5,-238.5248 337.5,-238.5248"/>
<polygon fill="none" stroke="#000000" points="337.5,-238.5248 337.5,-257.5248 391.5,-257.5248 391.5,-238.5248 337.5,-238.5248"/>
<text text-anchor="start" x="366.7904" y="-244.6248" font-family="Helvetica,sans-Serif" font-size="11.00" fill="#000000">85 &gt;</text>
</a>
</g>
</g>
<!-- forms&#45;&gt;patient_data -->
<g id="edge2" class="edge">
<title>forms:w&#45;&gt;patient_data:e</title>
<path fill="none" stroke="#000000" d="M425.6017,-232.131C393.4227,-252.626 445.0386,-353.5248 391.5,-353.5248"/>
<polygon fill="#000000" stroke="#000000" points="432.2397,-230.4685 440.8747,-232.0169 436.1199,-229.4966 440,-228.5248 440,-228.5248 440,-228.5248 436.1199,-229.4966 439.1253,-225.0326 432.2397,-230.4685 432.2397,-230.4685"/>
<ellipse fill="none" stroke="#000000" cx="429.1356" cy="-231.2459" rx="3.2" ry="3.2"/>
</g>
<!-- users -->
<g id="node4" class="node">
<title>users</title>
<g id="a_node4"><a xlink:href="../../tables/users.html" xlink:title="users" target="_top">
<polygon fill="#ffffff" stroke="transparent" points="8,-44.0248 8,-259.0248 175,-259.0248 175,-44.0248 8,-44.0248"/>
<polygon fill="#f5f5f5" stroke="transparent" points="8.5,-235.5248 8.5,-258.5248 175.5,-258.5248 175.5,-235.5248 8.5,-235.5248"/>
<polygon fill="none" stroke="#000000" points="8.5,-235.5248 8.5,-258.5248 175.5,-258.5248 175.5,-235.5248 8.5,-235.5248"/>
<text text-anchor="start" x="13.5" y="-244.1248" font-family="Helvetica,sans-Serif" font-weight="bold" font-size="11.00" fill="#000000">users</text>
<text text-anchor="start" x="140.5437" y="-243.6248" font-family="Helvetica,sans-Serif" font-size="11.00" fill="#000000">[table]</text>
<polygon fill="none" stroke="#000000" points="8.5,-213.5248 8.5,-235.5248 175.5,-235.5248 175.5,-213.5248 8.5,-213.5248"/>
<image xlink:href="../../images/primaryKeys.png" width="11px" height="12px" preserveAspectRatio="xMinYMin meet" x="13.5" y="-230.525"/>
<text text-anchor="start" x="28.5" y="-220.6248" font-family="Helvetica,sans-Serif" font-size="11.00" fill="#000000">id</text>
<polygon fill="none" stroke="#000000" points="8.5,-191.5248 8.5,-213.5248 175.5,-213.5248 175.5,-191.5248 8.5,-191.5248"/>
<image xlink:href="../../images/primaryKeys.png" width="11px" height="12px" preserveAspectRatio="xMinYMin meet" x="13.5" y="-208.525"/>
<text text-anchor="start" x="28.5" y="-198.6248" font-family="Helvetica,sans-Serif" font-size="11.00" fill="#000000">username</text>
<polygon fill="none" stroke="#000000" points="8.5,-169.5248 8.5,-191.5248 175.5,-191.5248 175.5,-169.5248 8.5,-169.5248"/>
<image xlink:href="../../images/foreignKeys.png" width="11px" height="12px" preserveAspectRatio="xMinYMin meet" x="13.5" y="-186.525"/>
<text text-anchor="start" x="28.5" y="-176.6248" font-family="Helvetica,sans-Serif" font-size="11.00" fill="#000000">facility_id</text>
<polygon fill="#ffffff" stroke="transparent" points="8.5,-147.5248 8.5,-169.5248 175.5,-169.5248 175.5,-147.5248 8.5,-147.5248"/>
<polygon fill="none" stroke="#000000" points="8.5,-147.5248 8.5,-169.5248 175.5,-169.5248 175.5,-147.5248 8.5,-147.5248"/>
<text text-anchor="start" x="28.5" y="-154.6248" font-family="Helvetica,sans-Serif" font-size="11.00" fill="#000000">abook_type</text>
<polygon fill="#ffffff" stroke="transparent" points="8.5,-125.5248 8.5,-147.5248 175.5,-147.5248 175.5,-125.5248 8.5,-125.5248"/>
<polygon fill="none" stroke="#000000" points="8.5,-125.5248 8.5,-147.5248 175.5,-147.5248 175.5,-125.5248 8.5,-125.5248"/>
<text text-anchor="start" x="28.5" y="-132.6248" font-family="Helvetica,sans-Serif" font-size="11.00" fill="#000000">uuid</text>
<polygon fill="#ffffff" stroke="transparent" points="8.5,-103.5248 8.5,-125.5248 175.5,-125.5248 175.5,-103.5248 8.5,-103.5248"/>
<polygon fill="none" stroke="#000000" points="8.5,-103.5248 8.5,-125.5248 175.5,-125.5248 175.5,-103.5248 8.5,-103.5248"/>
<text text-anchor="start" x="28.5" y="-110.6248" font-family="Helvetica,sans-Serif" font-size="11.00" fill="#000000">google_signin_email</text>
<polygon fill="none" stroke="#000000" points="8.5,-81.5248 8.5,-103.5248 175.5,-103.5248 175.5,-81.5248 8.5,-81.5248"/>
<image xlink:href="../../images/foreignKeys.png" width="11px" height="12px" preserveAspectRatio="xMinYMin meet" x="13.5" y="-98.5248"/>
<text text-anchor="start" x="28.5" y="-88.6248" font-family="Helvetica,sans-Serif" font-size="11.00" fill="#000000">billing_facility_id</text>
<polygon fill="none" stroke="#000000" points="8.5,-62.5248 8.5,-81.5248 175.5,-81.5248 175.5,-62.5248 8.5,-62.5248"/>
<text text-anchor="start" x="11.5" y="-68.6248" font-family="Helvetica,sans-Serif" font-size="11.00" fill="#000000">...</text>
<polygon fill="#ffffff" stroke="transparent" points="8.5,-43.5248 8.5,-62.5248 82.5,-62.5248 82.5,-43.5248 8.5,-43.5248"/>
<polygon fill="none" stroke="#000000" points="8.5,-43.5248 8.5,-62.5248 82.5,-62.5248 82.5,-43.5248 8.5,-43.5248"/>
<text text-anchor="start" x="11.5" y="-49.6248" font-family="Helvetica,sans-Serif" font-size="11.00" fill="#000000">&lt; 2</text>
<polygon fill="#ffffff" stroke="transparent" points="82.5,-43.5248 82.5,-62.5248 121.5,-62.5248 121.5,-43.5248 82.5,-43.5248"/>
<polygon fill="none" stroke="#000000" points="82.5,-43.5248 82.5,-62.5248 121.5,-62.5248 121.5,-43.5248 82.5,-43.5248"/>
<text text-anchor="start" x="112.3862" y="-49.6248" font-family="Helvetica,sans-Serif" font-size="11.00" fill="#000000"> &#160;</text>
<polygon fill="#ffffff" stroke="transparent" points="121.5,-43.5248 121.5,-62.5248 175.5,-62.5248 175.5,-43.5248 121.5,-43.5248"/>
<polygon fill="none" stroke="#000000" points="121.5,-43.5248 121.5,-62.5248 175.5,-62.5248 175.5,-43.5248 121.5,-43.5248"/>
<text text-anchor="start" x="150.7904" y="-49.6248" font-family="Helvetica,sans-Serif" font-size="11.00" fill="#000000">61 &gt;</text>
</a>
</g>
</g>
<!-- forms&#45;&gt;users -->
<g id="edge3" class="edge">
<title>forms:w&#45;&gt;users:e</title>
<path fill="none" stroke="#000000" d="M425.8235,-115.1453C417.4222,-110.5424 412.6371,-102.531 399,-99.5248 319.5737,-82.0155 281.7802,-51.6909 216,-99.5248 168.7687,-133.8704 233.8988,-224.5248 175.5,-224.5248"/>
<polygon fill="#000000" stroke="#000000" points="432.2181,-116.6696 439.1652,-122.0267 436.109,-117.5972 440,-118.5248 440,-118.5248 440,-118.5248 436.109,-117.5972 440.8348,-115.0229 432.2181,-116.6696 432.2181,-116.6696"/>
<ellipse fill="none" stroke="#000000" cx="429.1053" cy="-115.9276" rx="3.2" ry="3.2"/>
</g>
<!-- forms&#45;&gt;users -->
<g id="edge4" class="edge">
<title>forms:w&#45;&gt;users:e</title>
<path fill="none" stroke="#000000" d="M425.6148,-204.0626C389.4345,-188.6178 444.9245,-104.6459 399,-70.5248 333.7141,-22.0184 281.4044,-22.1784 216,-70.5248 166.6524,-107.0021 236.8659,-202.5248 175.5,-202.5248"/>
<polygon fill="#000000" stroke="#000000" points="432.1147,-205.1751 439.3926,-210.0732 436.0573,-205.8499 440,-206.5248 440,-206.5248 440,-206.5248 436.0573,-205.8499 440.6074,-202.9764 432.1147,-205.1751 432.1147,-205.1751"/>
<ellipse fill="none" stroke="#000000" cx="428.9605" cy="-204.6352" rx="3.2" ry="3.2"/>
</g>
<!-- groups&#45;&gt;users -->
<g id="edge5" class="edge">
<title>groups:w&#45;&gt;users:e</title>
<path fill="none" stroke="#000000" d="M250.0371,-141.767C217.1092,-152.9898 218.4729,-202.5248 175.5,-202.5248"/>
<polygon fill="#000000" stroke="#000000" points="256.5944,-140.7504 265.0515,-143.0823 260.5472,-140.1376 264.5,-139.5248 264.5,-139.5248 264.5,-139.5248 260.5472,-140.1376 263.9485,-135.9673 256.5944,-140.7504 256.5944,-140.7504"/>
<ellipse fill="none" stroke="#000000" cx="253.4322" cy="-141.2407" rx="3.2" ry="3.2"/>
</g>
<!-- patient_data&#45;&gt;users -->
<g id="edge10" class="edge">
<title>patient_data:w&#45;&gt;users:e</title>
<path fill="none" stroke="#000000" d="M210.5028,-304.9548C190.0234,-287.2994 212.9734,-224.5248 175.5,-224.5248"/>
<polygon fill="#000000" stroke="#000000" points="216.8951,-307.0418 223.3827,-312.947 220.6975,-308.2833 224.5,-309.5248 224.5,-309.5248 224.5,-309.5248 220.6975,-308.2833 225.6173,-306.1026 216.8951,-307.0418 216.8951,-307.0418"/>
<ellipse fill="none" stroke="#000000" cx="213.8531" cy="-306.0486" rx="3.2" ry="3.2"/>
</g>
<!-- patient_data&#45;&gt;users -->
<g id="edge11" class="edge">
<title>patient_data:w&#45;&gt;users:e</title>
<path fill="none" stroke="#000000" d="M210.0194,-394.945C159.6083,-373.4243 249.6385,-224.5248 175.5,-224.5248"/>
<polygon fill="#000000" stroke="#000000" points="216.624,-396.1216 223.8686,-401.069 220.562,-396.8232 224.5,-397.5248 224.5,-397.5248 224.5,-397.5248 220.562,-396.8232 225.1314,-393.9806 216.624,-396.1216 216.624,-396.1216"/>
<ellipse fill="none" stroke="#000000" cx="213.4736" cy="-395.5603" rx="3.2" ry="3.2"/>
</g>
<!-- patient_data&#45;&gt;users -->
<g id="edge12" class="edge">
<title>patient_data:w&#45;&gt;users:e</title>
<path fill="none" stroke="#000000" d="M210.2408,-372.6432C167.9614,-351.7674 240.2684,-224.5248 175.5,-224.5248"/>
<polygon fill="#000000" stroke="#000000" points="216.6585,-373.9401 223.7869,-379.0534 220.5793,-374.7324 224.5,-375.5248 224.5,-375.5248 224.5,-375.5248 220.5793,-374.7324 225.2131,-371.9961 216.6585,-373.9401 216.6585,-373.9401"/>
<ellipse fill="none" stroke="#000000" cx="213.5219" cy="-373.3062" rx="3.2" ry="3.2"/>
</g>
<!-- patient_data&#45;&gt;users -->
<g id="edge13" class="edge">
<title>patient_data:w&#45;&gt;users:e</title>
<path fill="none" stroke="#000000" d="M210.7151,-282.5813C194.8751,-267.7296 204.8754,-224.5248 175.5,-224.5248"/>
<polygon fill="#000000" stroke="#000000" points="216.9696,-284.8242 223.2847,-290.9135 220.7348,-286.1745 224.5,-287.5248 224.5,-287.5248 224.5,-287.5248 220.7348,-286.1745 225.7153,-284.1361 216.9696,-284.8242 216.9696,-284.8242"/>
<ellipse fill="none" stroke="#000000" cx="213.9574" cy="-283.744" rx="3.2" ry="3.2"/>
</g>
<!-- form_phq9 -->
<g id="node5" class="node">
<title>form_phq9</title>
<g id="a_node5"><a xlink:href="../../tables/form_phq9.html" xlink:title="form_phq9" target="_top">
<polygon fill="#ffffff" stroke="transparent" points="627,-228.5248 627,-362.5248 791,-362.5248 791,-228.5248 627,-228.5248"/>
<polygon fill="#f5f5f5" stroke="transparent" points="629,-337.5248 629,-360.5248 789,-360.5248 789,-337.5248 629,-337.5248"/>
<polygon fill="none" stroke="#000000" points="629,-337.5248 629,-360.5248 789,-360.5248 789,-337.5248 629,-337.5248"/>
<text text-anchor="start" x="634" y="-346.1248" font-family="Helvetica,sans-Serif" font-weight="bold" font-size="11.00" fill="#000000">form_phq9</text>
<text text-anchor="start" x="754.0437" y="-345.6248" font-family="Helvetica,sans-Serif" font-size="11.00" fill="#000000">[table]</text>
<polygon fill="none" stroke="#000000" points="629,-315.5248 629,-337.5248 727,-337.5248 727,-315.5248 629,-315.5248"/>
<image xlink:href="../../images/foreignKeys.png" width="11px" height="12px" preserveAspectRatio="xMinYMin meet" x="634" y="-332.525"/>
<text text-anchor="start" x="649" y="-322.6248" font-family="Helvetica,sans-Serif" font-size="11.00" fill="#000000">groupname</text>
<polygon fill="none" stroke="#000000" points="727,-315.5248 727,-337.5248 789,-337.5248 789,-315.5248 727,-315.5248"/>
<text text-anchor="start" x="729.878" y="-323.2248" font-family="Helvetica,sans-Serif" font-size="11.00" fill="#000000">unknown[0]</text>
<polygon fill="none" stroke="#000000" points="629,-293.5248 629,-315.5248 727,-315.5248 727,-293.5248 629,-293.5248"/>
<image xlink:href="../../images/foreignKeys.png" width="11px" height="12px" preserveAspectRatio="xMinYMin meet" x="634" y="-310.525"/>
<text text-anchor="start" x="649" y="-300.6248" font-family="Helvetica,sans-Serif" font-size="11.00" fill="#000000">id</text>
<polygon fill="none" stroke="#000000" points="727,-293.5248 727,-315.5248 789,-315.5248 789,-293.5248 727,-293.5248"/>
<text text-anchor="start" x="729.878" y="-301.2248" font-family="Helvetica,sans-Serif" font-size="11.00" fill="#000000">unknown[0]</text>
<polygon fill="none" stroke="#000000" points="629,-271.5248 629,-293.5248 727,-293.5248 727,-271.5248 629,-271.5248"/>
<image xlink:href="../../images/foreignKeys.png" width="11px" height="12px" preserveAspectRatio="xMinYMin meet" x="634" y="-288.525"/>
<text text-anchor="start" x="649" y="-278.6248" font-family="Helvetica,sans-Serif" font-size="11.00" fill="#000000">pid</text>
<polygon fill="none" stroke="#000000" points="727,-271.5248 727,-293.5248 789,-293.5248 789,-271.5248 727,-271.5248"/>
<text text-anchor="start" x="729.878" y="-279.2248" font-family="Helvetica,sans-Serif" font-size="11.00" fill="#000000">unknown[0]</text>
<polygon fill="none" stroke="#000000" points="629,-249.5248 629,-271.5248 727,-271.5248 727,-249.5248 629,-249.5248"/>
<image xlink:href="../../images/foreignKeys.png" width="11px" height="12px" preserveAspectRatio="xMinYMin meet" x="634" y="-266.525"/>
<text text-anchor="start" x="649" y="-256.6248" font-family="Helvetica,sans-Serif" font-size="11.00" fill="#000000">user</text>
<polygon fill="none" stroke="#000000" points="727,-249.5248 727,-271.5248 789,-271.5248 789,-249.5248 727,-249.5248"/>
<text text-anchor="start" x="729.878" y="-257.2248" font-family="Helvetica,sans-Serif" font-size="11.00" fill="#000000">unknown[0]</text>
<polygon fill="#ffffff" stroke="transparent" points="629,-230.5248 629,-249.5248 682,-249.5248 682,-230.5248 629,-230.5248"/>
<polygon fill="none" stroke="#000000" points="629,-230.5248 629,-249.5248 682,-249.5248 682,-230.5248 629,-230.5248"/>
<text text-anchor="start" x="632" y="-236.6248" font-family="Helvetica,sans-Serif" font-size="11.00" fill="#000000">&lt; 4</text>
<polygon fill="#ffffff" stroke="transparent" points="682,-230.5248 682,-249.5248 727,-249.5248 727,-230.5248 682,-230.5248"/>
<polygon fill="none" stroke="#000000" points="682,-230.5248 682,-249.5248 727,-249.5248 727,-230.5248 682,-230.5248"/>
<text text-anchor="start" x="717.8862" y="-236.6248" font-family="Helvetica,sans-Serif" font-size="11.00" fill="#000000"> &#160;</text>
<polygon fill="#ffffff" stroke="transparent" points="727,-230.5248 727,-249.5248 789,-249.5248 789,-230.5248 727,-230.5248"/>
<polygon fill="none" stroke="#000000" points="727,-230.5248 727,-249.5248 789,-249.5248 789,-230.5248 727,-230.5248"/>
<text text-anchor="start" x="770.4053" y="-236.6248" font-family="Helvetica,sans-Serif" font-size="11.00" fill="#000000">0 &gt;</text>
<polygon fill="none" stroke="#000000" stroke-width="2" points="628,-229.5248 628,-361.5248 790,-361.5248 790,-229.5248 628,-229.5248"/>
</a>
</g>
</g>
<!-- form_phq9&#45;&gt;forms -->
<g id="edge7" class="edge">
<title>form_phq9:w&#45;&gt;forms:e</title>
<path fill="none" stroke="#000000" d="M615.3001,-299.9208C599.8364,-286.8621 605.08,-250.5248 578,-250.5248"/>
<polygon fill="#000000" stroke="#000000" points="621.4168,-301.9763 627.8532,-307.9372 625.2084,-303.2505 629,-304.5248 629,-304.5248 629,-304.5248 625.2084,-303.2505 630.1468,-301.1123 621.4168,-301.9763 621.4168,-301.9763"/>
<ellipse fill="none" stroke="#000000" cx="618.3835" cy="-300.9569" rx="3.2" ry="3.2"/>
</g>
<!-- form_phq9&#45;&gt;groups -->
<g id="edge6" class="edge">
<title>form_phq9:w&#45;&gt;groups:e</title>
<path fill="none" stroke="#000000" d="M614.7616,-328.7388C605.6335,-331.8786 599.8872,-337.4714 586,-339.5248 518.2917,-349.536 486.8618,-380.4495 432,-339.5248 390.7463,-308.7511 421.7462,-274.693 399,-228.5248 382.7534,-195.5489 387.2608,-161.5248 350.5,-161.5248"/>
<polygon fill="#000000" stroke="#000000" points="621.095,-327.754 629.5532,-330.082 625.0475,-327.1394 629,-326.5248 629,-326.5248 629,-326.5248 625.0475,-327.1394 628.4468,-322.9675 621.095,-327.754 621.095,-327.754"/>
<ellipse fill="none" stroke="#000000" cx="617.933" cy="-328.2458" rx="3.2" ry="3.2"/>
</g>
<!-- form_phq9&#45;&gt;patient_data -->
<g id="edge8" class="edge">
<title>form_phq9:w&#45;&gt;patient_data:e</title>
<path fill="none" stroke="#000000" d="M615.247,-286.8022C602.0578,-297.8498 608.4318,-327.3233 586,-339.5248 509.8659,-380.9368 478.1681,-353.5248 391.5,-353.5248"/>
<polygon fill="#000000" stroke="#000000" points="621.3609,-284.9007 630.0692,-285.9624 625.1805,-283.7127 629,-282.5248 629,-282.5248 629,-282.5248 625.1805,-283.7127 627.9308,-279.0872 621.3609,-284.9007 621.3609,-284.9007"/>
<ellipse fill="none" stroke="#000000" cx="618.3053" cy="-285.8511" rx="3.2" ry="3.2"/>
</g>
<!-- form_phq9&#45;&gt;users -->
<g id="edge9" class="edge">
<title>form_phq9:w&#45;&gt;users:e</title>
<path fill="none" stroke="#000000" d="M614.6349,-258.997C551.4044,-243.4568 652.7328,-113.4914 586,-59.5248 554.1154,-33.7398 238.2367,-52.4597 216,-70.5248 161.0704,-115.1497 246.2718,-224.5248 175.5,-224.5248"/>
<polygon fill="#000000" stroke="#000000" points="621.0449,-259.6787 628.6192,-264.1046 625.0224,-260.1017 629,-260.5248 629,-260.5248 629,-260.5248 625.0224,-260.1017 629.3808,-256.945 621.0449,-259.6787 621.0449,-259.6787"/>
<ellipse fill="none" stroke="#000000" cx="617.8628" cy="-259.3402" rx="3.2" ry="3.2"/>
</g>
</g>
</svg>
