<?xml version="1.0" encoding="UTF-8" standalone="no"?>
<!DOCTYPE svg PUBLIC "-//W3C//DTD SVG 1.1//EN"
 "http://www.w3.org/Graphics/SVG/1.1/DTD/svg11.dtd">
<!-- Generated by graphviz version 2.40.1 (20161225.0304)
 -->
<!-- Title: oneDegreeRelationshipsDiagram Pages: 1 -->
<svg width="517pt" height="909pt"
 viewBox="0.00 0.00 517.00 908.70" xmlns="http://www.w3.org/2000/svg" xmlns:xlink="http://www.w3.org/1999/xlink">
<g id="graph0" class="graph" transform="scale(1 1) rotate(0) translate(4 904.7)">
<title>oneDegreeRelationshipsDiagram</title>
<polygon fill="#ffffff" stroke="transparent" points="-4,4 -4,-904.7 513,-904.7 513,4 -4,4"/>
<text text-anchor="middle" x="72.4936" y="-7.3" font-family="Helvetica,sans-Serif" font-size="11.00" fill="#000000">Generated by SchemaSpy</text>
<!-- form_eye_external -->
<g id="node1" class="node">
<title>form_eye_external</title>
<g id="a_node1"><a xlink:href="../../tables/form_eye_external.html" xlink:title="form_eye_external" target="_top">
<polygon fill="#ffffff" stroke="transparent" points="305,-38.2 305,-744.2 501,-744.2 501,-38.2 305,-38.2"/>
<polygon fill="#f5f5f5" stroke="transparent" points="307,-719.2 307,-742.2 499,-742.2 499,-719.2 307,-719.2"/>
<polygon fill="none" stroke="#000000" points="307,-719.2 307,-742.2 499,-742.2 499,-719.2 307,-719.2"/>
<text text-anchor="start" x="312" y="-727.8" font-family="Helvetica,sans-Serif" font-weight="bold" font-size="11.00" fill="#000000">form_eye_external</text>
<text text-anchor="start" x="464.0437" y="-727.3" font-family="Helvetica,sans-Serif" font-size="11.00" fill="#000000">[table]</text>
<polygon fill="none" stroke="#000000" points="307,-697.2 307,-719.2 438,-719.2 438,-697.2 307,-697.2"/>
<image xlink:href="../../images/primaryKeys.png" width="11px" height="12px" preserveAspectRatio="xMinYMin meet" x="312" y="-714.2"/>
<text text-anchor="start" x="327" y="-704.3" font-family="Helvetica,sans-Serif" font-size="11.00" fill="#000000">id</text>
<polygon fill="none" stroke="#000000" points="438,-697.2 438,-719.2 499,-719.2 499,-697.2 438,-697.2"/>
<text text-anchor="start" x="441" y="-704.9" font-family="Helvetica,sans-Serif" font-size="11.00" fill="#000000">bigint[19]</text>
<polygon fill="#ffffff" stroke="transparent" points="307,-675.2 307,-697.2 438,-697.2 438,-675.2 307,-675.2"/>
<polygon fill="none" stroke="#000000" points="307,-675.2 307,-697.2 438,-697.2 438,-675.2 307,-675.2"/>
<image xlink:href="../../images/foreignKeys.png" width="11px" height="12px" preserveAspectRatio="xMinYMin meet" x="312" y="-692.2"/>
<text text-anchor="start" x="327" y="-682.3" font-family="Helvetica,sans-Serif" font-size="11.00" fill="#000000">pid</text>
<polygon fill="none" stroke="#000000" points="438,-675.2 438,-697.2 499,-697.2 499,-675.2 438,-675.2"/>
<text text-anchor="start" x="441" y="-682.9" font-family="Helvetica,sans-Serif" font-size="11.00" fill="#000000">bigint[19]</text>
<polygon fill="none" stroke="#000000" points="307,-653.2 307,-675.2 438,-675.2 438,-653.2 307,-653.2"/>
<text text-anchor="start" x="327" y="-660.3" font-family="Helvetica,sans-Serif" font-size="11.00" fill="#000000">RUL</text>
<polygon fill="none" stroke="#000000" points="438,-653.2 438,-675.2 499,-675.2 499,-653.2 438,-653.2"/>
<text text-anchor="start" x="441" y="-660.9" font-family="Helvetica,sans-Serif" font-size="11.00" fill="#000000">text[65535]</text>
<polygon fill="none" stroke="#000000" points="307,-631.2 307,-653.2 438,-653.2 438,-631.2 307,-631.2"/>
<text text-anchor="start" x="327" y="-638.3" font-family="Helvetica,sans-Serif" font-size="11.00" fill="#000000">LUL</text>
<polygon fill="none" stroke="#000000" points="438,-631.2 438,-653.2 499,-653.2 499,-631.2 438,-631.2"/>
<text text-anchor="start" x="441" y="-638.9" font-family="Helvetica,sans-Serif" font-size="11.00" fill="#000000">text[65535]</text>
<polygon fill="none" stroke="#000000" points="307,-609.2 307,-631.2 438,-631.2 438,-609.2 307,-609.2"/>
<text text-anchor="start" x="327" y="-616.3" font-family="Helvetica,sans-Serif" font-size="11.00" fill="#000000">RLL</text>
<polygon fill="none" stroke="#000000" points="438,-609.2 438,-631.2 499,-631.2 499,-609.2 438,-609.2"/>
<text text-anchor="start" x="441" y="-616.9" font-family="Helvetica,sans-Serif" font-size="11.00" fill="#000000">text[65535]</text>
<polygon fill="none" stroke="#000000" points="307,-587.2 307,-609.2 438,-609.2 438,-587.2 307,-587.2"/>
<text text-anchor="start" x="327" y="-594.3" font-family="Helvetica,sans-Serif" font-size="11.00" fill="#000000">LLL</text>
<polygon fill="none" stroke="#000000" points="438,-587.2 438,-609.2 499,-609.2 499,-587.2 438,-587.2"/>
<text text-anchor="start" x="441" y="-594.9" font-family="Helvetica,sans-Serif" font-size="11.00" fill="#000000">text[65535]</text>
<polygon fill="none" stroke="#000000" points="307,-565.2 307,-587.2 438,-587.2 438,-565.2 307,-565.2"/>
<text text-anchor="start" x="327" y="-572.3" font-family="Helvetica,sans-Serif" font-size="11.00" fill="#000000">RBROW</text>
<polygon fill="none" stroke="#000000" points="438,-565.2 438,-587.2 499,-587.2 499,-565.2 438,-565.2"/>
<text text-anchor="start" x="441" y="-572.9" font-family="Helvetica,sans-Serif" font-size="11.00" fill="#000000">text[65535]</text>
<polygon fill="none" stroke="#000000" points="307,-543.2 307,-565.2 438,-565.2 438,-543.2 307,-543.2"/>
<text text-anchor="start" x="327" y="-550.3" font-family="Helvetica,sans-Serif" font-size="11.00" fill="#000000">LBROW</text>
<polygon fill="none" stroke="#000000" points="438,-543.2 438,-565.2 499,-565.2 499,-543.2 438,-543.2"/>
<text text-anchor="start" x="441" y="-550.9" font-family="Helvetica,sans-Serif" font-size="11.00" fill="#000000">text[65535]</text>
<polygon fill="none" stroke="#000000" points="307,-521.2 307,-543.2 438,-543.2 438,-521.2 307,-521.2"/>
<text text-anchor="start" x="327" y="-528.3" font-family="Helvetica,sans-Serif" font-size="11.00" fill="#000000">RMCT</text>
<polygon fill="none" stroke="#000000" points="438,-521.2 438,-543.2 499,-543.2 499,-521.2 438,-521.2"/>
<text text-anchor="start" x="441" y="-528.9" font-family="Helvetica,sans-Serif" font-size="11.00" fill="#000000">text[65535]</text>
<polygon fill="none" stroke="#000000" points="307,-499.2 307,-521.2 438,-521.2 438,-499.2 307,-499.2"/>
<text text-anchor="start" x="327" y="-506.3" font-family="Helvetica,sans-Serif" font-size="11.00" fill="#000000">LMCT</text>
<polygon fill="none" stroke="#000000" points="438,-499.2 438,-521.2 499,-521.2 499,-499.2 438,-499.2"/>
<text text-anchor="start" x="441" y="-506.9" font-family="Helvetica,sans-Serif" font-size="11.00" fill="#000000">text[65535]</text>
<polygon fill="none" stroke="#000000" points="307,-477.2 307,-499.2 438,-499.2 438,-477.2 307,-477.2"/>
<text text-anchor="start" x="327" y="-484.3" font-family="Helvetica,sans-Serif" font-size="11.00" fill="#000000">RADNEXA</text>
<polygon fill="none" stroke="#000000" points="438,-477.2 438,-499.2 499,-499.2 499,-477.2 438,-477.2"/>
<text text-anchor="start" x="441" y="-484.9" font-family="Helvetica,sans-Serif" font-size="11.00" fill="#000000">text[65535]</text>
<polygon fill="none" stroke="#000000" points="307,-455.2 307,-477.2 438,-477.2 438,-455.2 307,-455.2"/>
<text text-anchor="start" x="327" y="-462.3" font-family="Helvetica,sans-Serif" font-size="11.00" fill="#000000">LADNEXA</text>
<polygon fill="none" stroke="#000000" points="438,-455.2 438,-477.2 499,-477.2 499,-455.2 438,-455.2"/>
<text text-anchor="start" x="441" y="-462.9" font-family="Helvetica,sans-Serif" font-size="11.00" fill="#000000">text[65535]</text>
<polygon fill="none" stroke="#000000" points="307,-433.2 307,-455.2 438,-455.2 438,-433.2 307,-433.2"/>
<text text-anchor="start" x="327" y="-440.3" font-family="Helvetica,sans-Serif" font-size="11.00" fill="#000000">RMRD</text>
<polygon fill="none" stroke="#000000" points="438,-433.2 438,-455.2 499,-455.2 499,-433.2 438,-433.2"/>
<text text-anchor="start" x="440.994" y="-440.9" font-family="Helvetica,sans-Serif" font-size="11.00" fill="#000000">varchar[25]</text>
<polygon fill="none" stroke="#000000" points="307,-411.2 307,-433.2 438,-433.2 438,-411.2 307,-411.2"/>
<text text-anchor="start" x="327" y="-418.3" font-family="Helvetica,sans-Serif" font-size="11.00" fill="#000000">LMRD</text>
<polygon fill="none" stroke="#000000" points="438,-411.2 438,-433.2 499,-433.2 499,-411.2 438,-411.2"/>
<text text-anchor="start" x="440.994" y="-418.9" font-family="Helvetica,sans-Serif" font-size="11.00" fill="#000000">varchar[25]</text>
<polygon fill="none" stroke="#000000" points="307,-389.2 307,-411.2 438,-411.2 438,-389.2 307,-389.2"/>
<text text-anchor="start" x="327" y="-396.3" font-family="Helvetica,sans-Serif" font-size="11.00" fill="#000000">RLF</text>
<polygon fill="none" stroke="#000000" points="438,-389.2 438,-411.2 499,-411.2 499,-389.2 438,-389.2"/>
<text text-anchor="start" x="440.994" y="-396.9" font-family="Helvetica,sans-Serif" font-size="11.00" fill="#000000">varchar[25]</text>
<polygon fill="none" stroke="#000000" points="307,-367.2 307,-389.2 438,-389.2 438,-367.2 307,-367.2"/>
<text text-anchor="start" x="327" y="-374.3" font-family="Helvetica,sans-Serif" font-size="11.00" fill="#000000">LLF</text>
<polygon fill="none" stroke="#000000" points="438,-367.2 438,-389.2 499,-389.2 499,-367.2 438,-367.2"/>
<text text-anchor="start" x="440.994" y="-374.9" font-family="Helvetica,sans-Serif" font-size="11.00" fill="#000000">varchar[25]</text>
<polygon fill="none" stroke="#000000" points="307,-345.2 307,-367.2 438,-367.2 438,-345.2 307,-345.2"/>
<text text-anchor="start" x="327" y="-352.3" font-family="Helvetica,sans-Serif" font-size="11.00" fill="#000000">RVFISSURE</text>
<polygon fill="none" stroke="#000000" points="438,-345.2 438,-367.2 499,-367.2 499,-345.2 438,-345.2"/>
<text text-anchor="start" x="440.994" y="-352.9" font-family="Helvetica,sans-Serif" font-size="11.00" fill="#000000">varchar[25]</text>
<polygon fill="none" stroke="#000000" points="307,-323.2 307,-345.2 438,-345.2 438,-323.2 307,-323.2"/>
<text text-anchor="start" x="327" y="-330.3" font-family="Helvetica,sans-Serif" font-size="11.00" fill="#000000">LVFISSURE</text>
<polygon fill="none" stroke="#000000" points="438,-323.2 438,-345.2 499,-345.2 499,-323.2 438,-323.2"/>
<text text-anchor="start" x="440.994" y="-330.9" font-family="Helvetica,sans-Serif" font-size="11.00" fill="#000000">varchar[25]</text>
<polygon fill="none" stroke="#000000" points="307,-301.2 307,-323.2 438,-323.2 438,-301.2 307,-301.2"/>
<text text-anchor="start" x="327" y="-308.3" font-family="Helvetica,sans-Serif" font-size="11.00" fill="#000000">ODHERTEL</text>
<polygon fill="none" stroke="#000000" points="438,-301.2 438,-323.2 499,-323.2 499,-301.2 438,-301.2"/>
<text text-anchor="start" x="440.994" y="-308.9" font-family="Helvetica,sans-Serif" font-size="11.00" fill="#000000">varchar[25]</text>
<polygon fill="none" stroke="#000000" points="307,-279.2 307,-301.2 438,-301.2 438,-279.2 307,-279.2"/>
<text text-anchor="start" x="327" y="-286.3" font-family="Helvetica,sans-Serif" font-size="11.00" fill="#000000">OSHERTEL</text>
<polygon fill="none" stroke="#000000" points="438,-279.2 438,-301.2 499,-301.2 499,-279.2 438,-279.2"/>
<text text-anchor="start" x="440.994" y="-286.9" font-family="Helvetica,sans-Serif" font-size="11.00" fill="#000000">varchar[25]</text>
<polygon fill="none" stroke="#000000" points="307,-257.2 307,-279.2 438,-279.2 438,-257.2 307,-257.2"/>
<text text-anchor="start" x="327" y="-264.3" font-family="Helvetica,sans-Serif" font-size="11.00" fill="#000000">HERTELBASE</text>
<polygon fill="none" stroke="#000000" points="438,-257.2 438,-279.2 499,-279.2 499,-257.2 438,-257.2"/>
<text text-anchor="start" x="440.994" y="-264.9" font-family="Helvetica,sans-Serif" font-size="11.00" fill="#000000">varchar[25]</text>
<polygon fill="none" stroke="#000000" points="307,-235.2 307,-257.2 438,-257.2 438,-235.2 307,-235.2"/>
<text text-anchor="start" x="327" y="-242.3" font-family="Helvetica,sans-Serif" font-size="11.00" fill="#000000">RCAROTID</text>
<polygon fill="none" stroke="#000000" points="438,-235.2 438,-257.2 499,-257.2 499,-235.2 438,-235.2"/>
<text text-anchor="start" x="441" y="-242.9" font-family="Helvetica,sans-Serif" font-size="11.00" fill="#000000">text[65535]</text>
<polygon fill="none" stroke="#000000" points="307,-213.2 307,-235.2 438,-235.2 438,-213.2 307,-213.2"/>
<text text-anchor="start" x="327" y="-220.3" font-family="Helvetica,sans-Serif" font-size="11.00" fill="#000000">LCAROTID</text>
<polygon fill="none" stroke="#000000" points="438,-213.2 438,-235.2 499,-235.2 499,-213.2 438,-213.2"/>
<text text-anchor="start" x="441" y="-220.9" font-family="Helvetica,sans-Serif" font-size="11.00" fill="#000000">text[65535]</text>
<polygon fill="none" stroke="#000000" points="307,-191.2 307,-213.2 438,-213.2 438,-191.2 307,-191.2"/>
<text text-anchor="start" x="327" y="-198.3" font-family="Helvetica,sans-Serif" font-size="11.00" fill="#000000">RTEMPART</text>
<polygon fill="none" stroke="#000000" points="438,-191.2 438,-213.2 499,-213.2 499,-191.2 438,-191.2"/>
<text text-anchor="start" x="441" y="-198.9" font-family="Helvetica,sans-Serif" font-size="11.00" fill="#000000">text[65535]</text>
<polygon fill="none" stroke="#000000" points="307,-169.2 307,-191.2 438,-191.2 438,-169.2 307,-169.2"/>
<text text-anchor="start" x="327" y="-176.3" font-family="Helvetica,sans-Serif" font-size="11.00" fill="#000000">LTEMPART</text>
<polygon fill="none" stroke="#000000" points="438,-169.2 438,-191.2 499,-191.2 499,-169.2 438,-169.2"/>
<text text-anchor="start" x="441" y="-176.9" font-family="Helvetica,sans-Serif" font-size="11.00" fill="#000000">text[65535]</text>
<polygon fill="none" stroke="#000000" points="307,-147.2 307,-169.2 438,-169.2 438,-147.2 307,-147.2"/>
<text text-anchor="start" x="327" y="-154.3" font-family="Helvetica,sans-Serif" font-size="11.00" fill="#000000">RCNV</text>
<polygon fill="none" stroke="#000000" points="438,-147.2 438,-169.2 499,-169.2 499,-147.2 438,-147.2"/>
<text text-anchor="start" x="441" y="-154.9" font-family="Helvetica,sans-Serif" font-size="11.00" fill="#000000">text[65535]</text>
<polygon fill="none" stroke="#000000" points="307,-125.2 307,-147.2 438,-147.2 438,-125.2 307,-125.2"/>
<text text-anchor="start" x="327" y="-132.3" font-family="Helvetica,sans-Serif" font-size="11.00" fill="#000000">LCNV</text>
<polygon fill="none" stroke="#000000" points="438,-125.2 438,-147.2 499,-147.2 499,-125.2 438,-125.2"/>
<text text-anchor="start" x="441" y="-132.9" font-family="Helvetica,sans-Serif" font-size="11.00" fill="#000000">text[65535]</text>
<polygon fill="none" stroke="#000000" points="307,-103.2 307,-125.2 438,-125.2 438,-103.2 307,-103.2"/>
<text text-anchor="start" x="327" y="-110.3" font-family="Helvetica,sans-Serif" font-size="11.00" fill="#000000">RCNVII</text>
<polygon fill="none" stroke="#000000" points="438,-103.2 438,-125.2 499,-125.2 499,-103.2 438,-103.2"/>
<text text-anchor="start" x="441" y="-110.9" font-family="Helvetica,sans-Serif" font-size="11.00" fill="#000000">text[65535]</text>
<polygon fill="none" stroke="#000000" points="307,-81.2 307,-103.2 438,-103.2 438,-81.2 307,-81.2"/>
<text text-anchor="start" x="327" y="-88.3" font-family="Helvetica,sans-Serif" font-size="11.00" fill="#000000">LCNVII</text>
<polygon fill="none" stroke="#000000" points="438,-81.2 438,-103.2 499,-103.2 499,-81.2 438,-81.2"/>
<text text-anchor="start" x="441" y="-88.9" font-family="Helvetica,sans-Serif" font-size="11.00" fill="#000000">text[65535]</text>
<polygon fill="none" stroke="#000000" points="307,-59.2 307,-81.2 438,-81.2 438,-59.2 307,-59.2"/>
<text text-anchor="start" x="327" y="-66.3" font-family="Helvetica,sans-Serif" font-size="11.00" fill="#000000">EXT_COMMENTS</text>
<polygon fill="none" stroke="#000000" points="438,-59.2 438,-81.2 499,-81.2 499,-59.2 438,-59.2"/>
<text text-anchor="start" x="441" y="-66.9" font-family="Helvetica,sans-Serif" font-size="11.00" fill="#000000">text[65535]</text>
<polygon fill="#ffffff" stroke="transparent" points="307,-40.2 307,-59.2 377,-59.2 377,-40.2 307,-40.2"/>
<polygon fill="none" stroke="#000000" points="307,-40.2 307,-59.2 377,-59.2 377,-40.2 307,-40.2"/>
<text text-anchor="start" x="310" y="-46.3" font-family="Helvetica,sans-Serif" font-size="11.00" fill="#000000">&lt; 1</text>
<polygon fill="#ffffff" stroke="transparent" points="377,-40.2 377,-59.2 438,-59.2 438,-40.2 377,-40.2"/>
<polygon fill="none" stroke="#000000" points="377,-40.2 377,-59.2 438,-59.2 438,-40.2 377,-40.2"/>
<text text-anchor="start" x="428.8862" y="-46.3" font-family="Helvetica,sans-Serif" font-size="11.00" fill="#000000"> &#160;</text>
<polygon fill="#ffffff" stroke="transparent" points="438,-40.2 438,-59.2 499,-59.2 499,-40.2 438,-40.2"/>
<polygon fill="none" stroke="#000000" points="438,-40.2 438,-59.2 499,-59.2 499,-40.2 438,-40.2"/>
<text text-anchor="start" x="480.4053" y="-46.3" font-family="Helvetica,sans-Serif" font-size="11.00" fill="#000000">0 &gt;</text>
<polygon fill="none" stroke="#000000" stroke-width="2" points="306,-39.2 306,-743.2 500,-743.2 500,-39.2 306,-39.2"/>
</a>
</g>
</g>
<!-- patient_data -->
<g id="node2" class="node">
<title>patient_data</title>
<g id="a_node2"><a xlink:href="../../tables/patient_data.html" xlink:title="patient_data" target="_top">
<polygon fill="#ffffff" stroke="transparent" points="8,-505.7 8,-896.7 256,-896.7 256,-505.7 8,-505.7"/>
<polygon fill="#f5f5f5" stroke="transparent" points="8,-873.2 8,-896.2 256,-896.2 256,-873.2 8,-873.2"/>
<polygon fill="none" stroke="#000000" points="8,-873.2 8,-896.2 256,-896.2 256,-873.2 8,-873.2"/>
<text text-anchor="start" x="13" y="-881.8" font-family="Helvetica,sans-Serif" font-weight="bold" font-size="11.00" fill="#000000">patient_data</text>
<text text-anchor="start" x="221.0437" y="-881.3" font-family="Helvetica,sans-Serif" font-size="11.00" fill="#000000">[table]</text>
<polygon fill="none" stroke="#000000" points="8,-851.2 8,-873.2 256,-873.2 256,-851.2 8,-851.2"/>
<image xlink:href="../../images/primaryKeys.png" width="11px" height="12px" preserveAspectRatio="xMinYMin meet" x="13" y="-868.2"/>
<text text-anchor="start" x="28" y="-858.3" font-family="Helvetica,sans-Serif" font-size="11.00" fill="#000000">id</text>
<polygon fill="#ffffff" stroke="transparent" points="8,-829.2 8,-851.2 256,-851.2 256,-829.2 8,-829.2"/>
<polygon fill="none" stroke="#000000" points="8,-829.2 8,-851.2 256,-851.2 256,-829.2 8,-829.2"/>
<text text-anchor="start" x="28" y="-836.3" font-family="Helvetica,sans-Serif" font-size="11.00" fill="#000000">uuid</text>
<polygon fill="#ffffff" stroke="transparent" points="8,-807.2 8,-829.2 256,-829.2 256,-807.2 8,-807.2"/>
<polygon fill="none" stroke="#000000" points="8,-807.2 8,-829.2 256,-829.2 256,-807.2 8,-807.2"/>
<text text-anchor="start" x="28" y="-814.3" font-family="Helvetica,sans-Serif" font-size="11.00" fill="#000000">fname</text>
<polygon fill="#ffffff" stroke="transparent" points="8,-785.2 8,-807.2 256,-807.2 256,-785.2 8,-785.2"/>
<polygon fill="none" stroke="#000000" points="8,-785.2 8,-807.2 256,-807.2 256,-785.2 8,-785.2"/>
<text text-anchor="start" x="28" y="-792.3" font-family="Helvetica,sans-Serif" font-size="11.00" fill="#000000">lname</text>
<polygon fill="#ffffff" stroke="transparent" points="8,-763.2 8,-785.2 256,-785.2 256,-763.2 8,-763.2"/>
<polygon fill="none" stroke="#000000" points="8,-763.2 8,-785.2 256,-785.2 256,-763.2 8,-763.2"/>
<text text-anchor="start" x="28" y="-770.3" font-family="Helvetica,sans-Serif" font-size="11.00" fill="#000000">DOB</text>
<polygon fill="none" stroke="#000000" points="8,-741.2 8,-763.2 256,-763.2 256,-741.2 8,-741.2"/>
<image xlink:href="../../images/foreignKeys.png" width="11px" height="12px" preserveAspectRatio="xMinYMin meet" x="13" y="-758.2"/>
<text text-anchor="start" x="28" y="-748.3" font-family="Helvetica,sans-Serif" font-size="11.00" fill="#000000">pharmacy_id</text>
<polygon fill="none" stroke="#000000" points="8,-719.2 8,-741.2 256,-741.2 256,-719.2 8,-719.2"/>
<image xlink:href="../../images/foreignKeys.png" width="11px" height="12px" preserveAspectRatio="xMinYMin meet" x="13" y="-736.2"/>
<text text-anchor="start" x="28" y="-726.3" font-family="Helvetica,sans-Serif" font-size="11.00" fill="#000000">providerID</text>
<polygon fill="none" stroke="#000000" points="8,-697.2 8,-719.2 256,-719.2 256,-697.2 8,-697.2"/>
<image xlink:href="../../images/foreignKeys.png" width="11px" height="12px" preserveAspectRatio="xMinYMin meet" x="13" y="-714.2"/>
<text text-anchor="start" x="28" y="-704.3" font-family="Helvetica,sans-Serif" font-size="11.00" fill="#000000">ref_providerID</text>
<polygon fill="none" stroke="#000000" points="8,-675.2 8,-697.2 256,-697.2 256,-675.2 8,-675.2"/>
<image xlink:href="../../images/primaryKeys.png" width="11px" height="12px" preserveAspectRatio="xMinYMin meet" x="13" y="-692.2"/>
<text text-anchor="start" x="28" y="-682.3" font-family="Helvetica,sans-Serif" font-size="11.00" fill="#000000">pid</text>
<polygon fill="none" stroke="#000000" points="8,-653.2 8,-675.2 256,-675.2 256,-653.2 8,-653.2"/>
<image xlink:href="../../images/foreignKeys.png" width="11px" height="12px" preserveAspectRatio="xMinYMin meet" x="13" y="-670.2"/>
<text text-anchor="start" x="28" y="-660.3" font-family="Helvetica,sans-Serif" font-size="11.00" fill="#000000">created_by</text>
<polygon fill="none" stroke="#000000" points="8,-631.2 8,-653.2 256,-653.2 256,-631.2 8,-631.2"/>
<image xlink:href="../../images/foreignKeys.png" width="11px" height="12px" preserveAspectRatio="xMinYMin meet" x="13" y="-648.2"/>
<text text-anchor="start" x="28" y="-638.3" font-family="Helvetica,sans-Serif" font-size="11.00" fill="#000000">updated_by</text>
<polygon fill="none" stroke="#000000" points="8,-609.2 8,-631.2 256,-631.2 256,-609.2 8,-609.2"/>
<image xlink:href="../../images/foreignKeys.png" width="11px" height="12px" preserveAspectRatio="xMinYMin meet" x="13" y="-626.2"/>
<text text-anchor="start" x="28" y="-616.3" font-family="Helvetica,sans-Serif" font-size="11.00" fill="#000000">tribal_affiliations</text>
<polygon fill="none" stroke="#000000" points="8,-587.2 8,-609.2 256,-609.2 256,-587.2 8,-587.2"/>
<image xlink:href="../../images/foreignKeys.png" width="11px" height="12px" preserveAspectRatio="xMinYMin meet" x="13" y="-604.2"/>
<text text-anchor="start" x="28" y="-594.3" font-family="Helvetica,sans-Serif" font-size="11.00" fill="#000000">sex_identified</text>
<polygon fill="none" stroke="#000000" points="8,-565.2 8,-587.2 256,-587.2 256,-565.2 8,-565.2"/>
<image xlink:href="../../images/foreignKeys.png" width="11px" height="12px" preserveAspectRatio="xMinYMin meet" x="13" y="-582.2"/>
<text text-anchor="start" x="28" y="-572.3" font-family="Helvetica,sans-Serif" font-size="11.00" fill="#000000">interpreter_needed</text>
<polygon fill="none" stroke="#000000" points="8,-543.2 8,-565.2 256,-565.2 256,-543.2 8,-543.2"/>
<image xlink:href="../../images/foreignKeys.png" width="11px" height="12px" preserveAspectRatio="xMinYMin meet" x="13" y="-560.2"/>
<text text-anchor="start" x="28" y="-550.3" font-family="Helvetica,sans-Serif" font-size="11.00" fill="#000000">advance_directive_user_authenticator</text>
<polygon fill="none" stroke="#000000" points="8,-524.2 8,-543.2 256,-543.2 256,-524.2 8,-524.2"/>
<text text-anchor="start" x="11" y="-530.3" font-family="Helvetica,sans-Serif" font-size="11.00" fill="#000000">...</text>
<polygon fill="#ffffff" stroke="transparent" points="8,-505.2 8,-524.2 123,-524.2 123,-505.2 8,-505.2"/>
<polygon fill="none" stroke="#000000" points="8,-505.2 8,-524.2 123,-524.2 123,-505.2 8,-505.2"/>
<text text-anchor="start" x="11" y="-511.3" font-family="Helvetica,sans-Serif" font-size="11.00" fill="#000000">&lt; 9</text>
<polygon fill="#ffffff" stroke="transparent" points="123,-505.2 123,-524.2 182,-524.2 182,-505.2 123,-505.2"/>
<polygon fill="none" stroke="#000000" points="123,-505.2 123,-524.2 182,-524.2 182,-505.2 123,-505.2"/>
<text text-anchor="start" x="172.8862" y="-511.3" font-family="Helvetica,sans-Serif" font-size="11.00" fill="#000000"> &#160;</text>
<polygon fill="#ffffff" stroke="transparent" points="182,-505.2 182,-524.2 256,-524.2 256,-505.2 182,-505.2"/>
<polygon fill="none" stroke="#000000" points="182,-505.2 182,-524.2 256,-524.2 256,-505.2 182,-505.2"/>
<text text-anchor="start" x="231.2904" y="-511.3" font-family="Helvetica,sans-Serif" font-size="11.00" fill="#000000">97 &gt;</text>
</a>
</g>
</g>
<!-- form_eye_external&#45;&gt;patient_data -->
<g id="edge1" class="edge">
<title>form_eye_external:w&#45;&gt;patient_data:e</title>
<path fill="none" stroke="#000000" d="M292.276,-686.2C280.2815,-686.2 272.8229,-686.2 256,-686.2"/>
<polygon fill="#000000" stroke="#000000" points="299,-686.2001 307,-689.8 303,-686.2 307,-686.2 307,-686.2 307,-686.2 303,-686.2 307,-682.6 299,-686.2001 299,-686.2001"/>
<ellipse fill="none" stroke="#000000" cx="295.8" cy="-686.2001" rx="3.2" ry="3.2"/>
</g>
</g>
</svg>
