<?xml version="1.0" encoding="UTF-8" standalone="no"?>
<!DOCTYPE svg PUBLIC "-//W3C//DTD SVG 1.1//EN"
 "http://www.w3.org/Graphics/SVG/1.1/DTD/svg11.dtd">
<!-- Generated by graphviz version 2.40.1 (20161225.0304)
 -->
<!-- Title: twoDegreesRelationshipsDiagram Pages: 1 -->
<svg width="1149pt" height="1169pt"
 viewBox="0.00 0.00 1149.00 1168.64" xmlns="http://www.w3.org/2000/svg" xmlns:xlink="http://www.w3.org/1999/xlink">
<g id="graph0" class="graph" transform="scale(1 1) rotate(0) translate(4 1164.6426)">
<title>twoDegreesRelationshipsDiagram</title>
<polygon fill="#ffffff" stroke="transparent" points="-4,4 -4,-1164.6426 1145,-1164.6426 1145,4 -4,4"/>
<text text-anchor="middle" x="72.4936" y="-7.3" font-family="Helvetica,sans-Serif" font-size="11.00" fill="#000000">Generated by SchemaSpy</text>
<!-- form_group_attendance -->
<g id="node1" class="node">
<title>form_group_attendance</title>
<g id="a_node1"><a xlink:href="../../tables/form_group_attendance.html" xlink:title="form_group_attendance" target="_top">
<polygon fill="#ffffff" stroke="transparent" points="934,-996.5613 934,-1057.5613 1133,-1057.5613 1133,-996.5613 934,-996.5613"/>
<polygon fill="#f5f5f5" stroke="transparent" points="934.5,-1034.0613 934.5,-1057.0613 1133.5,-1057.0613 1133.5,-1034.0613 934.5,-1034.0613"/>
<polygon fill="none" stroke="#000000" points="934.5,-1034.0613 934.5,-1057.0613 1133.5,-1057.0613 1133.5,-1034.0613 934.5,-1034.0613"/>
<text text-anchor="start" x="939.5" y="-1042.6613" font-family="Helvetica,sans-Serif" font-weight="bold" font-size="11.00" fill="#000000">form_group_attendance</text>
<text text-anchor="start" x="1099.0219" y="-1042.1613" font-family="Helvetica,sans-Serif" font-size="11.00" fill="#000000">[table]</text>
<polygon fill="none" stroke="#000000" points="934.5,-1015.0613 934.5,-1034.0613 1133.5,-1034.0613 1133.5,-1015.0613 934.5,-1015.0613"/>
<text text-anchor="start" x="937.5" y="-1021.1613" font-family="Helvetica,sans-Serif" font-size="11.00" fill="#000000">...</text>
<polygon fill="#ffffff" stroke="transparent" points="934.5,-996.0613 934.5,-1015.0613 1027.5,-1015.0613 1027.5,-996.0613 934.5,-996.0613"/>
<polygon fill="none" stroke="#000000" points="934.5,-996.0613 934.5,-1015.0613 1027.5,-1015.0613 1027.5,-996.0613 934.5,-996.0613"/>
<text text-anchor="start" x="937.5" y="-1002.1613" font-family="Helvetica,sans-Serif" font-size="11.00" fill="#000000">&lt; 5</text>
<polygon fill="#ffffff" stroke="transparent" points="1027.5,-996.0613 1027.5,-1015.0613 1075.5,-1015.0613 1075.5,-996.0613 1027.5,-996.0613"/>
<polygon fill="none" stroke="#000000" points="1027.5,-996.0613 1027.5,-1015.0613 1075.5,-1015.0613 1075.5,-996.0613 1027.5,-996.0613"/>
<text text-anchor="start" x="1066.3862" y="-1002.1613" font-family="Helvetica,sans-Serif" font-size="11.00" fill="#000000"> &#160;</text>
<polygon fill="#ffffff" stroke="transparent" points="1075.5,-996.0613 1075.5,-1015.0613 1133.5,-1015.0613 1133.5,-996.0613 1075.5,-996.0613"/>
<polygon fill="none" stroke="#000000" points="1075.5,-996.0613 1075.5,-1015.0613 1133.5,-1015.0613 1133.5,-996.0613 1075.5,-996.0613"/>
<text text-anchor="start" x="1114.9053" y="-1002.1613" font-family="Helvetica,sans-Serif" font-size="11.00" fill="#000000">1 &gt;</text>
</a>
</g>
</g>
<!-- form_groups_encounter -->
<g id="node2" class="node">
<title>form_groups_encounter</title>
<g id="a_node2"><a xlink:href="../../tables/form_groups_encounter.html" xlink:title="form_groups_encounter" target="_top">
<polygon fill="#ffffff" stroke="transparent" points="686,-1048.5613 686,-1109.5613 884,-1109.5613 884,-1048.5613 686,-1048.5613"/>
<polygon fill="#f5f5f5" stroke="transparent" points="686,-1086.0613 686,-1109.0613 884,-1109.0613 884,-1086.0613 686,-1086.0613"/>
<polygon fill="none" stroke="#000000" points="686,-1086.0613 686,-1109.0613 884,-1109.0613 884,-1086.0613 686,-1086.0613"/>
<text text-anchor="start" x="691" y="-1094.6613" font-family="Helvetica,sans-Serif" font-weight="bold" font-size="11.00" fill="#000000">form_groups_encounter</text>
<text text-anchor="start" x="849.5219" y="-1094.1613" font-family="Helvetica,sans-Serif" font-size="11.00" fill="#000000">[table]</text>
<polygon fill="none" stroke="#000000" points="686,-1067.0613 686,-1086.0613 884,-1086.0613 884,-1067.0613 686,-1067.0613"/>
<text text-anchor="start" x="689" y="-1073.1613" font-family="Helvetica,sans-Serif" font-size="11.00" fill="#000000">...</text>
<polygon fill="#ffffff" stroke="transparent" points="686,-1048.0613 686,-1067.0613 779,-1067.0613 779,-1048.0613 686,-1048.0613"/>
<polygon fill="none" stroke="#000000" points="686,-1048.0613 686,-1067.0613 779,-1067.0613 779,-1048.0613 686,-1048.0613"/>
<text text-anchor="start" x="689" y="-1054.1613" font-family="Helvetica,sans-Serif" font-size="11.00" fill="#000000">&lt; 7</text>
<polygon fill="#ffffff" stroke="transparent" points="779,-1048.0613 779,-1067.0613 827,-1067.0613 827,-1048.0613 779,-1048.0613"/>
<polygon fill="none" stroke="#000000" points="779,-1048.0613 779,-1067.0613 827,-1067.0613 827,-1048.0613 779,-1048.0613"/>
<text text-anchor="start" x="817.8862" y="-1054.1613" font-family="Helvetica,sans-Serif" font-size="11.00" fill="#000000"> &#160;</text>
<polygon fill="#ffffff" stroke="transparent" points="827,-1048.0613 827,-1067.0613 884,-1067.0613 884,-1048.0613 827,-1048.0613"/>
<polygon fill="none" stroke="#000000" points="827,-1048.0613 827,-1067.0613 884,-1067.0613 884,-1048.0613 827,-1048.0613"/>
<text text-anchor="start" x="865.4053" y="-1054.1613" font-family="Helvetica,sans-Serif" font-size="11.00" fill="#000000">1 &gt;</text>
</a>
</g>
</g>
<!-- form_group_attendance&#45;&gt;form_groups_encounter -->
<g id="edge1" class="edge">
<title>form_group_attendance:w&#45;&gt;form_groups_encounter:e</title>
<path fill="none" stroke="#000000" d="M920.6372,-1028.8601C905.8861,-1041.7331 910.1756,-1076.0613 884,-1076.0613"/>
<polygon fill="#000000" stroke="#000000" points="926.9401,-1026.6783 935.6777,-1027.4632 930.7201,-1025.3698 934.5,-1024.0613 934.5,-1024.0613 934.5,-1024.0613 930.7201,-1025.3698 933.3223,-1020.6593 926.9401,-1026.6783 926.9401,-1026.6783"/>
<ellipse fill="none" stroke="#000000" cx="923.9162" cy="-1027.7251" rx="3.2" ry="3.2"/>
</g>
<!-- therapy_groups -->
<g id="node3" class="node">
<title>therapy_groups</title>
<g id="a_node3"><a xlink:href="../../tables/therapy_groups.html" xlink:title="therapy_groups" target="_top">
<polygon fill="#ffffff" stroke="transparent" points="305,-988.5613 305,-1049.5613 449,-1049.5613 449,-988.5613 305,-988.5613"/>
<polygon fill="#f5f5f5" stroke="transparent" points="305,-1026.0613 305,-1049.0613 449,-1049.0613 449,-1026.0613 305,-1026.0613"/>
<polygon fill="none" stroke="#000000" points="305,-1026.0613 305,-1049.0613 449,-1049.0613 449,-1026.0613 305,-1026.0613"/>
<text text-anchor="start" x="310" y="-1034.6613" font-family="Helvetica,sans-Serif" font-weight="bold" font-size="11.00" fill="#000000">therapy_groups</text>
<text text-anchor="start" x="414.5219" y="-1034.1613" font-family="Helvetica,sans-Serif" font-size="11.00" fill="#000000">[table]</text>
<polygon fill="none" stroke="#000000" points="305,-1007.0613 305,-1026.0613 449,-1026.0613 449,-1007.0613 305,-1007.0613"/>
<text text-anchor="start" x="308" y="-1013.1613" font-family="Helvetica,sans-Serif" font-size="11.00" fill="#000000">...</text>
<polygon fill="#ffffff" stroke="transparent" points="305,-988.0613 305,-1007.0613 366,-1007.0613 366,-988.0613 305,-988.0613"/>
<polygon fill="none" stroke="#000000" points="305,-988.0613 305,-1007.0613 366,-1007.0613 366,-988.0613 305,-988.0613"/>
<text text-anchor="start" x="308" y="-994.1613" font-family="Helvetica,sans-Serif" font-size="11.00" fill="#000000"> &#160;</text>
<polygon fill="#ffffff" stroke="transparent" points="366,-988.0613 366,-1007.0613 403,-1007.0613 403,-988.0613 366,-988.0613"/>
<polygon fill="none" stroke="#000000" points="366,-988.0613 366,-1007.0613 403,-1007.0613 403,-988.0613 366,-988.0613"/>
<text text-anchor="start" x="393.8862" y="-994.1613" font-family="Helvetica,sans-Serif" font-size="11.00" fill="#000000"> &#160;</text>
<polygon fill="#ffffff" stroke="transparent" points="403,-988.0613 403,-1007.0613 449,-1007.0613 449,-988.0613 403,-988.0613"/>
<polygon fill="none" stroke="#000000" points="403,-988.0613 403,-1007.0613 449,-1007.0613 449,-988.0613 403,-988.0613"/>
<text text-anchor="start" x="430.4053" y="-994.1613" font-family="Helvetica,sans-Serif" font-size="11.00" fill="#000000">6 &gt;</text>
</a>
</g>
</g>
<!-- form_group_attendance&#45;&gt;therapy_groups -->
<g id="edge2" class="edge">
<title>form_group_attendance:w&#45;&gt;therapy_groups:e</title>
<path fill="none" stroke="#000000" d="M919.8941,-1024.0488C716.1344,-1023.6983 659.8545,-1016.0613 449,-1016.0613"/>
<polygon fill="#000000" stroke="#000000" points="926.5,-1024.0544 934.4969,-1027.6613 930.5,-1024.0578 934.5,-1024.0613 934.5,-1024.0613 934.5,-1024.0613 930.5,-1024.0578 934.5031,-1020.4613 926.5,-1024.0544 926.5,-1024.0544"/>
<ellipse fill="none" stroke="#000000" cx="923.3" cy="-1024.0516" rx="3.2" ry="3.2"/>
</g>
<!-- groups -->
<g id="node4" class="node">
<title>groups</title>
<g id="a_node4"><a xlink:href="../../tables/groups.html" xlink:title="groups" target="_top">
<polygon fill="#ffffff" stroke="transparent" points="151,-219.5613 151,-280.5613 237,-280.5613 237,-219.5613 151,-219.5613"/>
<polygon fill="#f5f5f5" stroke="transparent" points="151,-257.0613 151,-280.0613 237,-280.0613 237,-257.0613 151,-257.0613"/>
<polygon fill="none" stroke="#000000" points="151,-257.0613 151,-280.0613 237,-280.0613 237,-257.0613 151,-257.0613"/>
<text text-anchor="start" x="156" y="-265.6613" font-family="Helvetica,sans-Serif" font-weight="bold" font-size="11.00" fill="#000000">groups</text>
<text text-anchor="start" x="202.5219" y="-265.1613" font-family="Helvetica,sans-Serif" font-size="11.00" fill="#000000">[table]</text>
<polygon fill="none" stroke="#000000" points="151,-238.0613 151,-257.0613 237,-257.0613 237,-238.0613 151,-238.0613"/>
<text text-anchor="start" x="154" y="-244.1613" font-family="Helvetica,sans-Serif" font-size="11.00" fill="#000000">...</text>
<polygon fill="#ffffff" stroke="transparent" points="151,-219.0613 151,-238.0613 185,-238.0613 185,-219.0613 151,-219.0613"/>
<polygon fill="none" stroke="#000000" points="151,-219.0613 151,-238.0613 185,-238.0613 185,-219.0613 151,-219.0613"/>
<text text-anchor="start" x="154" y="-225.1613" font-family="Helvetica,sans-Serif" font-size="11.00" fill="#000000">&lt; 1</text>
<polygon fill="#ffffff" stroke="transparent" points="185,-219.0613 185,-238.0613 203,-238.0613 203,-219.0613 185,-219.0613"/>
<polygon fill="none" stroke="#000000" points="185,-219.0613 185,-238.0613 203,-238.0613 203,-219.0613 185,-219.0613"/>
<text text-anchor="start" x="193.8862" y="-225.1613" font-family="Helvetica,sans-Serif" font-size="11.00" fill="#000000"> &#160;</text>
<polygon fill="#ffffff" stroke="transparent" points="203,-219.0613 203,-238.0613 237,-238.0613 237,-219.0613 203,-219.0613"/>
<polygon fill="none" stroke="#000000" points="203,-219.0613 203,-238.0613 237,-238.0613 237,-219.0613 203,-219.0613"/>
<text text-anchor="start" x="212.2904" y="-225.1613" font-family="Helvetica,sans-Serif" font-size="11.00" fill="#000000">17 &gt;</text>
</a>
</g>
</g>
<!-- form_group_attendance&#45;&gt;groups -->
<g id="edge3" class="edge">
<title>form_group_attendance:w&#45;&gt;groups:e</title>
<path fill="none" stroke="#000000" d="M921.2032,-1018.4479C841.4435,-943.5301 965.8203,-142.7731 893,-73.0613 799.0798,16.8498 353.9402,-110.4015 297,-150.0613 255.4035,-179.0339 287.692,-247.0613 237,-247.0613"/>
<polygon fill="#000000" stroke="#000000" points="927.1298,-1020.9498 933.0999,-1027.3778 930.8149,-1022.5056 934.5,-1024.0613 934.5,-1024.0613 934.5,-1024.0613 930.8149,-1022.5056 935.9001,-1020.7447 927.1298,-1020.9498 927.1298,-1020.9498"/>
<ellipse fill="none" stroke="#000000" cx="924.1818" cy="-1019.7053" rx="3.2" ry="3.2"/>
</g>
<!-- forms -->
<g id="node5" class="node">
<title>forms</title>
<g id="a_node5"><a xlink:href="../../tables/forms.html" xlink:title="forms" target="_top">
<polygon fill="#ffffff" stroke="transparent" points="498,-568.5613 498,-827.5613 636,-827.5613 636,-568.5613 498,-568.5613"/>
<polygon fill="#f5f5f5" stroke="transparent" points="498,-804.0613 498,-827.0613 636,-827.0613 636,-804.0613 498,-804.0613"/>
<polygon fill="none" stroke="#000000" points="498,-804.0613 498,-827.0613 636,-827.0613 636,-804.0613 498,-804.0613"/>
<text text-anchor="start" x="503" y="-812.6613" font-family="Helvetica,sans-Serif" font-weight="bold" font-size="11.00" fill="#000000">forms</text>
<text text-anchor="start" x="601.0437" y="-812.1613" font-family="Helvetica,sans-Serif" font-size="11.00" fill="#000000">[table]</text>
<polygon fill="none" stroke="#000000" points="498,-782.0613 498,-804.0613 636,-804.0613 636,-782.0613 498,-782.0613"/>
<image xlink:href="../../images/primaryKeys.png" width="11px" height="12px" preserveAspectRatio="xMinYMin meet" x="503" y="-799.061"/>
<text text-anchor="start" x="518" y="-789.1613" font-family="Helvetica,sans-Serif" font-size="11.00" fill="#000000">id</text>
<polygon fill="#ffffff" stroke="transparent" points="498,-760.0613 498,-782.0613 636,-782.0613 636,-760.0613 498,-760.0613"/>
<polygon fill="none" stroke="#000000" points="498,-760.0613 498,-782.0613 636,-782.0613 636,-760.0613 498,-760.0613"/>
<text text-anchor="start" x="518" y="-767.1613" font-family="Helvetica,sans-Serif" font-size="11.00" fill="#000000">encounter</text>
<polygon fill="none" stroke="#000000" points="498,-738.0613 498,-760.0613 636,-760.0613 636,-738.0613 498,-738.0613"/>
<image xlink:href="../../images/primaryKeys.png" width="11px" height="12px" preserveAspectRatio="xMinYMin meet" x="503" y="-755.061"/>
<text text-anchor="start" x="518" y="-745.1613" font-family="Helvetica,sans-Serif" font-size="11.00" fill="#000000">form_id</text>
<polygon fill="#ffffff" stroke="transparent" points="498,-716.0613 498,-738.0613 636,-738.0613 636,-716.0613 498,-716.0613"/>
<polygon fill="none" stroke="#000000" points="498,-716.0613 498,-738.0613 636,-738.0613 636,-716.0613 498,-716.0613"/>
<image xlink:href="../../images/foreignKeys.png" width="11px" height="12px" preserveAspectRatio="xMinYMin meet" x="503" y="-733.061"/>
<text text-anchor="start" x="518" y="-723.1613" font-family="Helvetica,sans-Serif" font-size="11.00" fill="#000000">pid</text>
<polygon fill="none" stroke="#000000" points="498,-694.0613 498,-716.0613 636,-716.0613 636,-694.0613 498,-694.0613"/>
<image xlink:href="../../images/foreignKeys.png" width="11px" height="12px" preserveAspectRatio="xMinYMin meet" x="503" y="-711.061"/>
<text text-anchor="start" x="518" y="-701.1613" font-family="Helvetica,sans-Serif" font-size="11.00" fill="#000000">user</text>
<polygon fill="none" stroke="#000000" points="498,-672.0613 498,-694.0613 636,-694.0613 636,-672.0613 498,-672.0613"/>
<image xlink:href="../../images/foreignKeys.png" width="11px" height="12px" preserveAspectRatio="xMinYMin meet" x="503" y="-689.061"/>
<text text-anchor="start" x="518" y="-679.1613" font-family="Helvetica,sans-Serif" font-size="11.00" fill="#000000">groupname</text>
<polygon fill="none" stroke="#000000" points="498,-650.0613 498,-672.0613 636,-672.0613 636,-650.0613 498,-650.0613"/>
<image xlink:href="../../images/foreignKeys.png" width="11px" height="12px" preserveAspectRatio="xMinYMin meet" x="503" y="-667.061"/>
<text text-anchor="start" x="518" y="-657.1613" font-family="Helvetica,sans-Serif" font-size="11.00" fill="#000000">therapy_group_id</text>
<polygon fill="none" stroke="#000000" points="498,-628.0613 498,-650.0613 636,-650.0613 636,-628.0613 498,-628.0613"/>
<image xlink:href="../../images/foreignKeys.png" width="11px" height="12px" preserveAspectRatio="xMinYMin meet" x="503" y="-645.061"/>
<text text-anchor="start" x="518" y="-635.1613" font-family="Helvetica,sans-Serif" font-size="11.00" fill="#000000">issue_id</text>
<polygon fill="none" stroke="#000000" points="498,-606.0613 498,-628.0613 636,-628.0613 636,-606.0613 498,-606.0613"/>
<image xlink:href="../../images/foreignKeys.png" width="11px" height="12px" preserveAspectRatio="xMinYMin meet" x="503" y="-623.061"/>
<text text-anchor="start" x="518" y="-613.1613" font-family="Helvetica,sans-Serif" font-size="11.00" fill="#000000">provider_id</text>
<polygon fill="none" stroke="#000000" points="498,-587.0613 498,-606.0613 636,-606.0613 636,-587.0613 498,-587.0613"/>
<text text-anchor="start" x="501" y="-593.1613" font-family="Helvetica,sans-Serif" font-size="11.00" fill="#000000">...</text>
<polygon fill="#ffffff" stroke="transparent" points="498,-568.0613 498,-587.0613 558,-587.0613 558,-568.0613 498,-568.0613"/>
<polygon fill="none" stroke="#000000" points="498,-568.0613 498,-587.0613 558,-587.0613 558,-568.0613 498,-568.0613"/>
<text text-anchor="start" x="501" y="-574.1613" font-family="Helvetica,sans-Serif" font-size="11.00" fill="#000000">&lt; 6</text>
<polygon fill="#ffffff" stroke="transparent" points="558,-568.0613 558,-587.0613 589,-587.0613 589,-568.0613 558,-568.0613"/>
<polygon fill="none" stroke="#000000" points="558,-568.0613 558,-587.0613 589,-587.0613 589,-568.0613 558,-568.0613"/>
<text text-anchor="start" x="579.8862" y="-574.1613" font-family="Helvetica,sans-Serif" font-size="11.00" fill="#000000"> &#160;</text>
<polygon fill="#ffffff" stroke="transparent" points="589,-568.0613 589,-587.0613 636,-587.0613 636,-568.0613 589,-568.0613"/>
<polygon fill="none" stroke="#000000" points="589,-568.0613 589,-587.0613 636,-587.0613 636,-568.0613 589,-568.0613"/>
<text text-anchor="start" x="611.2904" y="-574.1613" font-family="Helvetica,sans-Serif" font-size="11.00" fill="#000000">13 &gt;</text>
</a>
</g>
</g>
<!-- form_group_attendance&#45;&gt;forms -->
<g id="edge4" class="edge">
<title>form_group_attendance:w&#45;&gt;forms:e</title>
<path fill="none" stroke="#000000" d="M924.2312,-1021.9933C865.1243,-995.5481 948.6933,-723.5411 893,-674.0613 857.1162,-642.1809 718.2866,-649.5782 677,-674.0613 644.3243,-693.438 673.989,-749.0613 636,-749.0613"/>
<polygon fill="#000000" stroke="#000000" points="934.5055,-1019.982 932.926,-1027.8246 931.3575,-1027.5087 932.937,-1019.6662 934.5055,-1019.982"/>
<polyline fill="none" stroke="#000000" points="934.5,-1024.0613 930.5787,-1023.2715 "/>
<ellipse fill="none" stroke="#000000" cx="927.4417" cy="-1022.6398" rx="3.2" ry="3.2"/>
</g>
<!-- users -->
<g id="node6" class="node">
<title>users</title>
<g id="a_node6"><a xlink:href="../../tables/users.html" xlink:title="users" target="_top">
<polygon fill="#ffffff" stroke="transparent" points="8,-489.5613 8,-550.5613 83,-550.5613 83,-489.5613 8,-489.5613"/>
<polygon fill="#f5f5f5" stroke="transparent" points="8.5,-527.0613 8.5,-550.0613 83.5,-550.0613 83.5,-527.0613 8.5,-527.0613"/>
<polygon fill="none" stroke="#000000" points="8.5,-527.0613 8.5,-550.0613 83.5,-550.0613 83.5,-527.0613 8.5,-527.0613"/>
<text text-anchor="start" x="13.5" y="-535.6613" font-family="Helvetica,sans-Serif" font-weight="bold" font-size="11.00" fill="#000000">users</text>
<text text-anchor="start" x="49.0219" y="-535.1613" font-family="Helvetica,sans-Serif" font-size="11.00" fill="#000000">[table]</text>
<polygon fill="none" stroke="#000000" points="8.5,-508.0613 8.5,-527.0613 83.5,-527.0613 83.5,-508.0613 8.5,-508.0613"/>
<text text-anchor="start" x="11.5" y="-514.1613" font-family="Helvetica,sans-Serif" font-size="11.00" fill="#000000">...</text>
<polygon fill="#ffffff" stroke="transparent" points="8.5,-489.0613 8.5,-508.0613 36.5,-508.0613 36.5,-489.0613 8.5,-489.0613"/>
<polygon fill="none" stroke="#000000" points="8.5,-489.0613 8.5,-508.0613 36.5,-508.0613 36.5,-489.0613 8.5,-489.0613"/>
<text text-anchor="start" x="11.5" y="-495.1613" font-family="Helvetica,sans-Serif" font-size="11.00" fill="#000000">&lt; 2</text>
<polygon fill="#ffffff" stroke="transparent" points="36.5,-489.0613 36.5,-508.0613 52.5,-508.0613 52.5,-489.0613 36.5,-489.0613"/>
<polygon fill="none" stroke="#000000" points="36.5,-489.0613 36.5,-508.0613 52.5,-508.0613 52.5,-489.0613 36.5,-489.0613"/>
<text text-anchor="start" x="43.3862" y="-495.1613" font-family="Helvetica,sans-Serif" font-size="11.00" fill="#000000"> &#160;</text>
<polygon fill="#ffffff" stroke="transparent" points="52.5,-489.0613 52.5,-508.0613 83.5,-508.0613 83.5,-489.0613 52.5,-489.0613"/>
<polygon fill="none" stroke="#000000" points="52.5,-489.0613 52.5,-508.0613 83.5,-508.0613 83.5,-489.0613 52.5,-489.0613"/>
<text text-anchor="start" x="58.7904" y="-495.1613" font-family="Helvetica,sans-Serif" font-size="11.00" fill="#000000">61 &gt;</text>
</a>
</g>
</g>
<!-- form_group_attendance&#45;&gt;users -->
<g id="edge5" class="edge">
<title>form_group_attendance:w&#45;&gt;users:e</title>
<path fill="none" stroke="#000000" d="M920.3278,-1027.4821C898.0727,-1041.7971 926.2038,-1097.2065 893,-1120.0613 773.541,-1202.2869 712.0224,-1134.0613 567,-1134.0613 567,-1134.0613 567,-1134.0613 377,-1134.0613 233.1043,-1134.0613 125.9637,-869.9872 124,-865.0613 95.1701,-792.7406 161.3553,-517.0613 83.5,-517.0613"/>
<polygon fill="#000000" stroke="#000000" points="926.7233,-1025.9384 935.3447,-1027.5608 930.6117,-1024.9998 934.5,-1024.0613 934.5,-1024.0613 934.5,-1024.0613 930.6117,-1024.9998 933.6553,-1020.5618 926.7233,-1025.9384 926.7233,-1025.9384"/>
<ellipse fill="none" stroke="#000000" cx="923.6127" cy="-1026.6893" rx="3.2" ry="3.2"/>
</g>
<!-- form_groups_encounter&#45;&gt;therapy_groups -->
<g id="edge6" class="edge">
<title>form_groups_encounter:w&#45;&gt;therapy_groups:e</title>
<path fill="none" stroke="#000000" d="M671.4471,-1074.2371C662.7626,-1071.7791 656.9392,-1067.3348 644,-1064.0613 576.0483,-1046.8697 557.4937,-1048.9713 490,-1030.0613 471.4587,-1024.8664 468.2553,-1016.0613 449,-1016.0613"/>
<polygon fill="#000000" stroke="#000000" points="678.0621,-1075.0662 685.5522,-1079.6333 682.0311,-1075.5638 686,-1076.0613 686,-1076.0613 686,-1076.0613 682.0311,-1075.5638 686.4478,-1072.4892 678.0621,-1075.0662 678.0621,-1075.0662"/>
<ellipse fill="none" stroke="#000000" cx="674.887" cy="-1074.6682" rx="3.2" ry="3.2"/>
</g>
<!-- form_groups_encounter&#45;&gt;forms -->
<g id="edge7" class="edge">
<title>form_groups_encounter:w&#45;&gt;forms:e</title>
<path fill="none" stroke="#000000" d="M675.743,-1073.4291C622.2474,-1042.4823 705.6347,-749.0613 636,-749.0613"/>
<polygon fill="#000000" stroke="#000000" points="686.2194,-1071.9879 684.2308,-1079.7369 682.681,-1079.3391 684.6696,-1071.5902 686.2194,-1071.9879"/>
<polyline fill="none" stroke="#000000" points="686,-1076.0613 682.1255,-1075.067 "/>
<ellipse fill="none" stroke="#000000" cx="679.026" cy="-1074.2715" rx="3.2" ry="3.2"/>
</g>
<!-- form_groups_encounter&#45;&gt;users -->
<g id="edge8" class="edge">
<title>form_groups_encounter:w&#45;&gt;users:e</title>
<path fill="none" stroke="#000000" d="M671.5364,-1076.2502C508.7935,-1080.5041 436.2598,-1154.2737 297,-1060.0613 141.6241,-954.9459 185.9616,-852.1253 124,-675.0613 100.0558,-606.6373 155.9925,-517.0613 83.5,-517.0613"/>
<polygon fill="#000000" stroke="#000000" points="678.0007,-1076.1658 686.047,-1079.661 682.0003,-1076.1135 686,-1076.0613 686,-1076.0613 686,-1076.0613 682.0003,-1076.1135 685.953,-1072.4616 678.0007,-1076.1658 678.0007,-1076.1658"/>
<ellipse fill="none" stroke="#000000" cx="674.801" cy="-1076.2076" rx="3.2" ry="3.2"/>
</g>
<!-- form_groups_encounter&#45;&gt;users -->
<g id="edge9" class="edge">
<title>form_groups_encounter:w&#45;&gt;users:e</title>
<path fill="none" stroke="#000000" d="M671.5288,-1076.2426C508.6922,-1080.3237 435.8405,-1151.032 297,-1056.0613 142.1654,-950.1501 186.5135,-847.9312 124,-671.0613 100.416,-604.3347 154.2718,-517.0613 83.5,-517.0613"/>
<polygon fill="#000000" stroke="#000000" points="678.0006,-1076.1615 686.0451,-1079.661 682.0003,-1076.1114 686,-1076.0613 686,-1076.0613 686,-1076.0613 682.0003,-1076.1114 685.9549,-1072.4615 678.0006,-1076.1615 678.0006,-1076.1615"/>
<ellipse fill="none" stroke="#000000" cx="674.8009" cy="-1076.2016" rx="3.2" ry="3.2"/>
</g>
<!-- groups&#45;&gt;users -->
<g id="edge16" class="edge">
<title>groups:w&#45;&gt;users:e</title>
<path fill="none" stroke="#000000" d="M137.5206,-252.7006C97.9399,-291.4735 140.0316,-517.0613 83.5,-517.0613"/>
<polygon fill="#000000" stroke="#000000" points="143.6198,-250.1489 152.3894,-250.3823 147.3099,-248.6051 151,-247.0613 151,-247.0613 151,-247.0613 147.3099,-248.6051 149.6106,-243.7402 143.6198,-250.1489 143.6198,-250.1489"/>
<ellipse fill="none" stroke="#000000" cx="140.6678" cy="-251.384" rx="3.2" ry="3.2"/>
</g>
<!-- forms&#45;&gt;therapy_groups -->
<g id="edge14" class="edge">
<title>forms:w&#45;&gt;therapy_groups:e</title>
<path fill="none" stroke="#000000" d="M484.2093,-665.8112C432.5522,-707.9375 523.1929,-1016.0613 449,-1016.0613"/>
<polygon fill="#000000" stroke="#000000" points="490.4361,-663.6665 499.1724,-664.465 494.218,-662.3639 498,-661.0613 498,-661.0613 498,-661.0613 494.218,-662.3639 496.8276,-657.6575 490.4361,-663.6665 490.4361,-663.6665"/>
<ellipse fill="none" stroke="#000000" cx="487.4105" cy="-664.7086" rx="3.2" ry="3.2"/>
</g>
<!-- forms&#45;&gt;groups -->
<g id="edge10" class="edge">
<title>forms:w&#45;&gt;groups:e</title>
<path fill="none" stroke="#000000" d="M483.686,-681.0391C447.7588,-668.8595 482.5045,-604.2448 457,-558.0613 403.1363,-460.525 358.1819,-458.1816 297,-365.0613 264.6935,-315.89 295.8348,-247.0613 237,-247.0613"/>
<polygon fill="#000000" stroke="#000000" points="490.0787,-681.9422 497.4964,-686.6259 494.0393,-682.5017 498,-683.0613 498,-683.0613 498,-683.0613 494.0393,-682.5017 498.5036,-679.4967 490.0787,-681.9422 490.0787,-681.9422"/>
<ellipse fill="none" stroke="#000000" cx="486.9101" cy="-681.4945" rx="3.2" ry="3.2"/>
</g>
<!-- forms&#45;&gt;users -->
<g id="edge13" class="edge">
<title>forms:w&#45;&gt;users:e</title>
<path fill="none" stroke="#000000" d="M483.8634,-620.9569C475.3795,-626.485 471.2135,-636.3468 457,-640.0613 388.1994,-658.0411 367.4086,-650.0319 297,-640.0613 217.7548,-628.8393 186.5936,-639.9388 124,-590.0613 94.9827,-566.939 120.6031,-517.0613 83.5,-517.0613"/>
<polygon fill="#000000" stroke="#000000" points="490.2875,-619.1866 498.9564,-620.5319 494.1437,-618.1239 498,-617.0613 498,-617.0613 498,-617.0613 494.1437,-618.1239 497.0436,-613.5906 490.2875,-619.1866 490.2875,-619.1866"/>
<ellipse fill="none" stroke="#000000" cx="487.2025" cy="-620.0368" rx="3.2" ry="3.2"/>
</g>
<!-- forms&#45;&gt;users -->
<g id="edge15" class="edge">
<title>forms:w&#45;&gt;users:e</title>
<path fill="none" stroke="#000000" d="M483.2687,-705.16C322.9299,-707.285 239.7027,-741.8266 124,-624.0613 88.364,-587.79 134.3481,-517.0613 83.5,-517.0613"/>
<polygon fill="#000000" stroke="#000000" points="490.0002,-705.1149 498.0242,-708.6612 494.0001,-705.0881 498,-705.0613 498,-705.0613 498,-705.0613 494.0001,-705.0881 497.9758,-701.4613 490.0002,-705.1149 490.0002,-705.1149"/>
<ellipse fill="none" stroke="#000000" cx="486.8003" cy="-705.1364" rx="3.2" ry="3.2"/>
</g>
<!-- lists -->
<g id="node7" class="node">
<title>lists</title>
<g id="a_node7"><a xlink:href="../../tables/lists.html" xlink:title="lists" target="_top">
<polygon fill="#ffffff" stroke="transparent" points="343.5,-568.5613 343.5,-629.5613 410.5,-629.5613 410.5,-568.5613 343.5,-568.5613"/>
<polygon fill="#f5f5f5" stroke="transparent" points="344,-606.0613 344,-629.0613 411,-629.0613 411,-606.0613 344,-606.0613"/>
<polygon fill="none" stroke="#000000" points="344,-606.0613 344,-629.0613 411,-629.0613 411,-606.0613 344,-606.0613"/>
<text text-anchor="start" x="349" y="-614.6613" font-family="Helvetica,sans-Serif" font-weight="bold" font-size="11.00" fill="#000000">lists</text>
<text text-anchor="start" x="376.5219" y="-614.1613" font-family="Helvetica,sans-Serif" font-size="11.00" fill="#000000">[table]</text>
<polygon fill="none" stroke="#000000" points="344,-587.0613 344,-606.0613 411,-606.0613 411,-587.0613 344,-587.0613"/>
<text text-anchor="start" x="347" y="-593.1613" font-family="Helvetica,sans-Serif" font-size="11.00" fill="#000000">...</text>
<polygon fill="#ffffff" stroke="transparent" points="344,-568.0613 344,-587.0613 374,-587.0613 374,-568.0613 344,-568.0613"/>
<polygon fill="none" stroke="#000000" points="344,-568.0613 344,-587.0613 374,-587.0613 374,-568.0613 344,-568.0613"/>
<text text-anchor="start" x="347" y="-574.1613" font-family="Helvetica,sans-Serif" font-size="11.00" fill="#000000">&lt; 11</text>
<polygon fill="#ffffff" stroke="transparent" points="374,-568.0613 374,-587.0613 388,-587.0613 388,-568.0613 374,-568.0613"/>
<polygon fill="none" stroke="#000000" points="374,-568.0613 374,-587.0613 388,-587.0613 388,-568.0613 374,-568.0613"/>
<text text-anchor="start" x="378.8862" y="-574.1613" font-family="Helvetica,sans-Serif" font-size="11.00" fill="#000000"> &#160;</text>
<polygon fill="#ffffff" stroke="transparent" points="388,-568.0613 388,-587.0613 411,-587.0613 411,-568.0613 388,-568.0613"/>
<polygon fill="none" stroke="#000000" points="388,-568.0613 388,-587.0613 411,-587.0613 411,-568.0613 388,-568.0613"/>
<text text-anchor="start" x="392.4053" y="-574.1613" font-family="Helvetica,sans-Serif" font-size="11.00" fill="#000000">4 &gt;</text>
</a>
</g>
</g>
<!-- forms&#45;&gt;lists -->
<g id="edge11" class="edge">
<title>forms:w&#45;&gt;lists:e</title>
<path fill="none" stroke="#000000" d="M483.6473,-637.2136C454.0217,-628.9831 448.7403,-596.0613 411,-596.0613"/>
<polygon fill="#000000" stroke="#000000" points="490.0655,-638.0398 497.5403,-642.6318 494.0327,-638.5505 498,-639.0613 498,-639.0613 498,-639.0613 494.0327,-638.5505 498.4597,-635.4907 490.0655,-638.0398 490.0655,-638.0398"/>
<ellipse fill="none" stroke="#000000" cx="486.8917" cy="-637.6312" rx="3.2" ry="3.2"/>
</g>
<!-- patient_data -->
<g id="node8" class="node">
<title>patient_data</title>
<g id="a_node8"><a xlink:href="../../tables/patient_data.html" xlink:title="patient_data" target="_top">
<polygon fill="#ffffff" stroke="transparent" points="132,-489.5613 132,-550.5613 256,-550.5613 256,-489.5613 132,-489.5613"/>
<polygon fill="#f5f5f5" stroke="transparent" points="132,-527.0613 132,-550.0613 256,-550.0613 256,-527.0613 132,-527.0613"/>
<polygon fill="none" stroke="#000000" points="132,-527.0613 132,-550.0613 256,-550.0613 256,-527.0613 132,-527.0613"/>
<text text-anchor="start" x="137" y="-535.6613" font-family="Helvetica,sans-Serif" font-weight="bold" font-size="11.00" fill="#000000">patient_data</text>
<text text-anchor="start" x="221.5219" y="-535.1613" font-family="Helvetica,sans-Serif" font-size="11.00" fill="#000000">[table]</text>
<polygon fill="none" stroke="#000000" points="132,-508.0613 132,-527.0613 256,-527.0613 256,-508.0613 132,-508.0613"/>
<text text-anchor="start" x="135" y="-514.1613" font-family="Helvetica,sans-Serif" font-size="11.00" fill="#000000">...</text>
<polygon fill="#ffffff" stroke="transparent" points="132,-489.0613 132,-508.0613 185,-508.0613 185,-489.0613 132,-489.0613"/>
<polygon fill="none" stroke="#000000" points="132,-489.0613 132,-508.0613 185,-508.0613 185,-489.0613 132,-489.0613"/>
<text text-anchor="start" x="135" y="-495.1613" font-family="Helvetica,sans-Serif" font-size="11.00" fill="#000000">&lt; 5</text>
<polygon fill="#ffffff" stroke="transparent" points="185,-489.0613 185,-508.0613 213,-508.0613 213,-489.0613 185,-489.0613"/>
<polygon fill="none" stroke="#000000" points="185,-489.0613 185,-508.0613 213,-508.0613 213,-489.0613 185,-489.0613"/>
<text text-anchor="start" x="203.8862" y="-495.1613" font-family="Helvetica,sans-Serif" font-size="11.00" fill="#000000"> &#160;</text>
<polygon fill="#ffffff" stroke="transparent" points="213,-489.0613 213,-508.0613 256,-508.0613 256,-489.0613 213,-489.0613"/>
<polygon fill="none" stroke="#000000" points="213,-489.0613 213,-508.0613 256,-508.0613 256,-489.0613 213,-489.0613"/>
<text text-anchor="start" x="231.2904" y="-495.1613" font-family="Helvetica,sans-Serif" font-size="11.00" fill="#000000">85 &gt;</text>
</a>
</g>
</g>
<!-- forms&#45;&gt;patient_data -->
<g id="edge12" class="edge">
<title>forms:w&#45;&gt;patient_data:e</title>
<path fill="none" stroke="#000000" d="M483.3511,-726.933C396.6621,-725.3314 359.3778,-708.0986 297,-640.0613 258.0588,-597.5869 313.6237,-517.0613 256,-517.0613"/>
<polygon fill="#000000" stroke="#000000" points="490.0003,-726.9912 497.9685,-730.6611 494.0002,-727.0262 498,-727.0613 498,-727.0613 498,-727.0613 494.0002,-727.0262 498.0315,-723.4614 490.0003,-726.9912 490.0003,-726.9912"/>
<ellipse fill="none" stroke="#000000" cx="486.8004" cy="-726.9631" rx="3.2" ry="3.2"/>
</g>
<!-- lists&#45;&gt;groups -->
<g id="edge17" class="edge">
<title>lists:w&#45;&gt;groups:e</title>
<path fill="none" stroke="#000000" d="M329.9413,-591.8987C269.4353,-552.5228 312.8904,-247.0613 237,-247.0613"/>
<polygon fill="#000000" stroke="#000000" points="336.3292,-593.79 342.9779,-599.5131 340.1646,-594.9256 344,-596.0613 344,-596.0613 344,-596.0613 340.1646,-594.9256 345.0221,-592.6094 336.3292,-593.79 336.3292,-593.79"/>
<ellipse fill="none" stroke="#000000" cx="333.2608" cy="-592.8815" rx="3.2" ry="3.2"/>
</g>
<!-- lists&#45;&gt;users -->
<g id="edge19" class="edge">
<title>lists:w&#45;&gt;users:e</title>
<path fill="none" stroke="#000000" d="M329.4062,-596.1433C241.4277,-597.1081 206.8202,-605.4796 124,-561.0613 100.5775,-548.4992 110.0786,-517.0613 83.5,-517.0613"/>
<polygon fill="#000000" stroke="#000000" points="336.0001,-596.1063 344.0203,-599.6612 340.0001,-596.0838 344,-596.0613 344,-596.0613 344,-596.0613 340.0001,-596.0838 343.9797,-592.4613 336.0001,-596.1063 336.0001,-596.1063"/>
<ellipse fill="none" stroke="#000000" cx="332.8002" cy="-596.1243" rx="3.2" ry="3.2"/>
</g>
<!-- lists&#45;&gt;patient_data -->
<g id="edge18" class="edge">
<title>lists:w&#45;&gt;patient_data:e</title>
<path fill="none" stroke="#000000" d="M329.7663,-593.2148C315.7594,-586.4421 313.4466,-568.8306 297,-554.0613 278.7377,-537.6614 280.5452,-517.0613 256,-517.0613"/>
<polygon fill="#000000" stroke="#000000" points="336.1553,-594.4924 343.294,-599.5914 340.0777,-595.2769 344,-596.0613 344,-596.0613 344,-596.0613 340.0777,-595.2769 344.706,-592.5312 336.1553,-594.4924 336.1553,-594.4924"/>
<ellipse fill="none" stroke="#000000" cx="333.0175" cy="-593.8649" rx="3.2" ry="3.2"/>
</g>
<!-- patient_data&#45;&gt;users -->
<g id="edge50" class="edge">
<title>patient_data:w&#45;&gt;users:e</title>
<path fill="none" stroke="#000000" d="M120.5947,-507.8349C107.5882,-498.8452 100.6771,-501.9206 83.5,-517.0613"/>
<polygon fill="#000000" stroke="#000000" points="125.7803,-512.0298 129.7358,-519.8601 128.8901,-514.5455 132,-517.0613 132,-517.0613 132,-517.0613 128.8901,-514.5455 134.2642,-514.2624 125.7803,-512.0298 125.7803,-512.0298"/>
<ellipse fill="none" stroke="#000000" cx="123.2924" cy="-510.0172" rx="3.2" ry="3.2"/>
</g>
<!-- patient_data&#45;&gt;users -->
<g id="edge51" class="edge">
<title>patient_data:w&#45;&gt;users:e</title>
<path fill="none" stroke="#000000" d="M117.9977,-513.6171C106.5912,-511.4601 99.4983,-512.6081 83.5,-517.0613"/>
<polygon fill="#000000" stroke="#000000" points="124.2316,-515.1504 131.1401,-520.5571 128.1158,-516.1058 132,-517.0613 132,-517.0613 132,-517.0613 128.1158,-516.1058 132.8599,-513.5655 124.2316,-515.1504 124.2316,-515.1504"/>
<ellipse fill="none" stroke="#000000" cx="121.1242" cy="-514.386" rx="3.2" ry="3.2"/>
</g>
<!-- patient_data&#45;&gt;users -->
<g id="edge52" class="edge">
<title>patient_data:w&#45;&gt;users:e</title>
<path fill="none" stroke="#000000" d="M117.9977,-521.0795C106.5912,-523.596 99.4983,-522.2566 83.5,-517.0613"/>
<polygon fill="#000000" stroke="#000000" points="124.3104,-519.268 132.993,-520.5216 128.1552,-518.1646 132,-517.0613 132,-517.0613 132,-517.0613 128.1552,-518.1646 131.007,-513.6009 124.3104,-519.268 124.3104,-519.268"/>
<ellipse fill="none" stroke="#000000" cx="121.2345" cy="-520.1507" rx="3.2" ry="3.2"/>
</g>
<!-- patient_data&#45;&gt;users -->
<g id="edge53" class="edge">
<title>patient_data:w&#45;&gt;users:e</title>
<path fill="none" stroke="#000000" d="M120.979,-526.4912C107.7227,-536.2983 100.8455,-533.155 83.5,-517.0613"/>
<polygon fill="#000000" stroke="#000000" points="125.9214,-522.2623 134.3405,-519.7966 128.9607,-519.6618 132,-517.0613 132,-517.0613 132,-517.0613 128.9607,-519.6618 129.6595,-514.3259 125.9214,-522.2623 125.9214,-522.2623"/>
<ellipse fill="none" stroke="#000000" cx="123.49" cy="-524.3428" rx="3.2" ry="3.2"/>
</g>
<!-- form_clinic_note -->
<g id="node9" class="node">
<title>form_clinic_note</title>
<g id="a_node9"><a xlink:href="../../tables/form_clinic_note.html" xlink:title="form_clinic_note" target="_top">
<polygon fill="#ffffff" stroke="transparent" points="687,-685.0613 687,-753.0613 883,-753.0613 883,-685.0613 687,-685.0613"/>
<polygon fill="#f5f5f5" stroke="transparent" points="689,-728.0613 689,-751.0613 881,-751.0613 881,-728.0613 689,-728.0613"/>
<polygon fill="none" stroke="#000000" points="689,-728.0613 689,-751.0613 881,-751.0613 881,-728.0613 689,-728.0613"/>
<text text-anchor="start" x="694" y="-736.6613" font-family="Helvetica,sans-Serif" font-weight="bold" font-size="11.00" fill="#000000">form_clinic_note</text>
<text text-anchor="start" x="846.0437" y="-736.1613" font-family="Helvetica,sans-Serif" font-size="11.00" fill="#000000">[table]</text>
<polygon fill="none" stroke="#000000" points="689,-706.0613 689,-728.0613 819,-728.0613 819,-706.0613 689,-706.0613"/>
<image xlink:href="../../images/foreignKeys.png" width="11px" height="12px" preserveAspectRatio="xMinYMin meet" x="694" y="-723.061"/>
<text text-anchor="start" x="709" y="-713.1613" font-family="Helvetica,sans-Serif" font-size="11.00" fill="#000000">id</text>
<polygon fill="none" stroke="#000000" points="819,-706.0613 819,-728.0613 881,-728.0613 881,-706.0613 819,-706.0613"/>
<text text-anchor="start" x="821.878" y="-713.7613" font-family="Helvetica,sans-Serif" font-size="11.00" fill="#000000">unknown[0]</text>
<polygon fill="#ffffff" stroke="transparent" points="689,-687.0613 689,-706.0613 758,-706.0613 758,-687.0613 689,-687.0613"/>
<polygon fill="none" stroke="#000000" points="689,-687.0613 689,-706.0613 758,-706.0613 758,-687.0613 689,-687.0613"/>
<text text-anchor="start" x="692" y="-693.1613" font-family="Helvetica,sans-Serif" font-size="11.00" fill="#000000">&lt; 1</text>
<polygon fill="#ffffff" stroke="transparent" points="758,-687.0613 758,-706.0613 819,-706.0613 819,-687.0613 758,-687.0613"/>
<polygon fill="none" stroke="#000000" points="758,-687.0613 758,-706.0613 819,-706.0613 819,-687.0613 758,-687.0613"/>
<text text-anchor="start" x="809.8862" y="-693.1613" font-family="Helvetica,sans-Serif" font-size="11.00" fill="#000000"> &#160;</text>
<polygon fill="#ffffff" stroke="transparent" points="819,-687.0613 819,-706.0613 881,-706.0613 881,-687.0613 819,-687.0613"/>
<polygon fill="none" stroke="#000000" points="819,-687.0613 819,-706.0613 881,-706.0613 881,-687.0613 819,-687.0613"/>
<text text-anchor="start" x="862.4053" y="-693.1613" font-family="Helvetica,sans-Serif" font-size="11.00" fill="#000000">0 &gt;</text>
<polygon fill="none" stroke="#000000" stroke-width="2" points="688,-686.0613 688,-752.0613 882,-752.0613 882,-686.0613 688,-686.0613"/>
</a>
</g>
</g>
<!-- form_clinic_note&#45;&gt;forms -->
<g id="edge20" class="edge">
<title>form_clinic_note:w&#45;&gt;forms:e</title>
<path fill="none" stroke="#000000" d="M674.977,-720.7321C661.0265,-729.1374 657.7119,-749.0613 636,-749.0613"/>
<polygon fill="#000000" stroke="#000000" points="681.2608,-719.0872 689.9117,-720.5439 685.1304,-718.0742 689,-717.0613 689,-717.0613 689,-717.0613 685.1304,-718.0742 688.0883,-713.5786 681.2608,-719.0872 681.2608,-719.0872"/>
<ellipse fill="none" stroke="#000000" cx="678.1651" cy="-719.8976" rx="3.2" ry="3.2"/>
</g>
<!-- form_gad7 -->
<g id="node10" class="node">
<title>form_gad7</title>
<g id="a_node10"><a xlink:href="../../tables/form_gad7.html" xlink:title="form_gad7" target="_top">
<polygon fill="#ffffff" stroke="transparent" points="730,-411.5613 730,-472.5613 840,-472.5613 840,-411.5613 730,-411.5613"/>
<polygon fill="#f5f5f5" stroke="transparent" points="730,-449.0613 730,-472.0613 840,-472.0613 840,-449.0613 730,-449.0613"/>
<polygon fill="none" stroke="#000000" points="730,-449.0613 730,-472.0613 840,-472.0613 840,-449.0613 730,-449.0613"/>
<text text-anchor="start" x="735" y="-457.6613" font-family="Helvetica,sans-Serif" font-weight="bold" font-size="11.00" fill="#000000">form_gad7</text>
<text text-anchor="start" x="805.5219" y="-457.1613" font-family="Helvetica,sans-Serif" font-size="11.00" fill="#000000">[table]</text>
<polygon fill="none" stroke="#000000" points="730,-430.0613 730,-449.0613 840,-449.0613 840,-430.0613 730,-430.0613"/>
<text text-anchor="start" x="733" y="-436.1613" font-family="Helvetica,sans-Serif" font-size="11.00" fill="#000000">...</text>
<polygon fill="#ffffff" stroke="transparent" points="730,-411.0613 730,-430.0613 783,-430.0613 783,-411.0613 730,-411.0613"/>
<polygon fill="none" stroke="#000000" points="730,-411.0613 730,-430.0613 783,-430.0613 783,-411.0613 730,-411.0613"/>
<text text-anchor="start" x="733" y="-417.1613" font-family="Helvetica,sans-Serif" font-size="11.00" fill="#000000">&lt; 4</text>
<polygon fill="#ffffff" stroke="transparent" points="783,-411.0613 783,-430.0613 811,-430.0613 811,-411.0613 783,-411.0613"/>
<polygon fill="none" stroke="#000000" points="783,-411.0613 783,-430.0613 811,-430.0613 811,-411.0613 783,-411.0613"/>
<text text-anchor="start" x="801.8862" y="-417.1613" font-family="Helvetica,sans-Serif" font-size="11.00" fill="#000000"> &#160;</text>
<polygon fill="#ffffff" stroke="transparent" points="811,-411.0613 811,-430.0613 840,-430.0613 840,-411.0613 811,-411.0613"/>
<polygon fill="none" stroke="#000000" points="811,-411.0613 811,-430.0613 840,-430.0613 840,-411.0613 811,-411.0613"/>
<text text-anchor="start" x="830.8862" y="-417.1613" font-family="Helvetica,sans-Serif" font-size="11.00" fill="#000000"> &#160;</text>
</a>
</g>
</g>
<!-- form_gad7&#45;&gt;groups -->
<g id="edge21" class="edge">
<title>form_gad7:w&#45;&gt;groups:e</title>
<path fill="none" stroke="#000000" d="M715.5806,-438.9415C523.1609,-435.6932 477.9486,-366.7976 297,-282.0613 269.0416,-268.9687 267.8721,-247.0613 237,-247.0613"/>
<polygon fill="#000000" stroke="#000000" points="722.0003,-438.9947 729.9701,-442.6611 726.0001,-439.028 730,-439.0613 730,-439.0613 730,-439.0613 726.0001,-439.028 730.0299,-435.4614 722.0003,-438.9947 722.0003,-438.9947"/>
<ellipse fill="none" stroke="#000000" cx="718.8004" cy="-438.9681" rx="3.2" ry="3.2"/>
</g>
<!-- form_gad7&#45;&gt;forms -->
<g id="edge22" class="edge">
<title>form_gad7:w&#45;&gt;forms:e</title>
<path fill="none" stroke="#000000" d="M715.5749,-440.6961C696.5117,-445.6003 689.3788,-461.21 677,-483.0613 647.5198,-535.1002 695.8092,-749.0613 636,-749.0613"/>
<polygon fill="#000000" stroke="#000000" points="722.0509,-439.9622 730.4054,-442.6384 726.0254,-439.5117 730,-439.0613 730,-439.0613 730,-439.0613 726.0254,-439.5117 729.5946,-435.4842 722.0509,-439.9622 722.0509,-439.9622"/>
<ellipse fill="none" stroke="#000000" cx="718.8712" cy="-440.3226" rx="3.2" ry="3.2"/>
</g>
<!-- form_gad7&#45;&gt;users -->
<g id="edge24" class="edge">
<title>form_gad7:w&#45;&gt;users:e</title>
<path fill="none" stroke="#000000" d="M715.5462,-438.9966C456.8308,-436.6785 367.1042,-373.4768 124,-479.0613 101.3604,-488.894 108.1827,-517.0613 83.5,-517.0613"/>
<polygon fill="#000000" stroke="#000000" points="722.0001,-439.0254 729.9839,-442.6612 726,-439.0433 730,-439.0613 730,-439.0613 730,-439.0613 726,-439.0433 730.0161,-435.4613 722.0001,-439.0254 722.0001,-439.0254"/>
<ellipse fill="none" stroke="#000000" cx="718.8001" cy="-439.0111" rx="3.2" ry="3.2"/>
</g>
<!-- form_gad7&#45;&gt;patient_data -->
<g id="edge23" class="edge">
<title>form_gad7:w&#45;&gt;patient_data:e</title>
<path fill="none" stroke="#000000" d="M715.3669,-440.2442C686.9502,-445.1991 678.5804,-464.4262 644,-473.0613 601.9051,-483.5727 299.3874,-517.0613 256,-517.0613"/>
<polygon fill="#000000" stroke="#000000" points="722.026,-439.7059 730.2901,-442.6496 726.013,-439.3836 730,-439.0613 730,-439.0613 730,-439.0613 726.013,-439.3836 729.7099,-435.473 722.026,-439.7059 722.026,-439.7059"/>
<ellipse fill="none" stroke="#000000" cx="718.8364" cy="-439.9638" rx="3.2" ry="3.2"/>
</g>
<!-- form_note -->
<g id="node11" class="node">
<title>form_note</title>
<g id="a_node11"><a xlink:href="../../tables/form_note.html" xlink:title="form_note" target="_top">
<polygon fill="#ffffff" stroke="transparent" points="731.5,-774.5613 731.5,-835.5613 838.5,-835.5613 838.5,-774.5613 731.5,-774.5613"/>
<polygon fill="#f5f5f5" stroke="transparent" points="732,-812.0613 732,-835.0613 839,-835.0613 839,-812.0613 732,-812.0613"/>
<polygon fill="none" stroke="#000000" points="732,-812.0613 732,-835.0613 839,-835.0613 839,-812.0613 732,-812.0613"/>
<text text-anchor="start" x="737" y="-820.6613" font-family="Helvetica,sans-Serif" font-weight="bold" font-size="11.00" fill="#000000">form_note</text>
<text text-anchor="start" x="804.5219" y="-820.1613" font-family="Helvetica,sans-Serif" font-size="11.00" fill="#000000">[table]</text>
<polygon fill="none" stroke="#000000" points="732,-793.0613 732,-812.0613 839,-812.0613 839,-793.0613 732,-793.0613"/>
<text text-anchor="start" x="735" y="-799.1613" font-family="Helvetica,sans-Serif" font-size="11.00" fill="#000000">...</text>
<polygon fill="#ffffff" stroke="transparent" points="732,-774.0613 732,-793.0613 784,-793.0613 784,-774.0613 732,-774.0613"/>
<polygon fill="none" stroke="#000000" points="732,-774.0613 732,-793.0613 784,-793.0613 784,-774.0613 732,-774.0613"/>
<text text-anchor="start" x="735" y="-780.1613" font-family="Helvetica,sans-Serif" font-size="11.00" fill="#000000">&lt; 2</text>
<polygon fill="#ffffff" stroke="transparent" points="784,-774.0613 784,-793.0613 811,-793.0613 811,-774.0613 784,-774.0613"/>
<polygon fill="none" stroke="#000000" points="784,-774.0613 784,-793.0613 811,-793.0613 811,-774.0613 784,-774.0613"/>
<text text-anchor="start" x="801.8862" y="-780.1613" font-family="Helvetica,sans-Serif" font-size="11.00" fill="#000000"> &#160;</text>
<polygon fill="#ffffff" stroke="transparent" points="811,-774.0613 811,-793.0613 839,-793.0613 839,-774.0613 811,-774.0613"/>
<polygon fill="none" stroke="#000000" points="811,-774.0613 811,-793.0613 839,-793.0613 839,-774.0613 811,-774.0613"/>
<text text-anchor="start" x="829.8862" y="-780.1613" font-family="Helvetica,sans-Serif" font-size="11.00" fill="#000000"> &#160;</text>
</a>
</g>
</g>
<!-- form_note&#45;&gt;forms -->
<g id="edge25" class="edge">
<title>form_note:w&#45;&gt;forms:e</title>
<path fill="none" stroke="#000000" d="M717.6788,-800.2979C682.9847,-791.1015 679.4065,-749.0613 636,-749.0613"/>
<polygon fill="#000000" stroke="#000000" points="724.06,-801.0835 731.56,-805.6343 728.03,-801.5724 732,-802.0613 732,-802.0613 732,-802.0613 728.03,-801.5724 732.44,-798.4882 724.06,-801.0835 724.06,-801.0835"/>
<ellipse fill="none" stroke="#000000" cx="720.884" cy="-800.6925" rx="3.2" ry="3.2"/>
</g>
<!-- form_note&#45;&gt;patient_data -->
<g id="edge26" class="edge">
<title>form_note:w&#45;&gt;patient_data:e</title>
<path fill="none" stroke="#000000" d="M717.3905,-803.3476C688.0215,-808.9133 680.1184,-830.9591 644,-838.0613 576.8416,-851.2671 554.9231,-859.7322 490,-838.0613 388.2309,-804.0914 355.5876,-782.9412 297,-693.0613 253.1412,-625.777 336.3167,-517.0613 256,-517.0613"/>
<polygon fill="#000000" stroke="#000000" points="724.0308,-802.763 732.3158,-805.6474 728.0154,-802.4121 732,-802.0613 732,-802.0613 732,-802.0613 728.0154,-802.4121 731.6842,-798.4751 724.0308,-802.763 724.0308,-802.763"/>
<ellipse fill="none" stroke="#000000" cx="720.8432" cy="-803.0437" rx="3.2" ry="3.2"/>
</g>
<!-- form_painmap -->
<g id="node12" class="node">
<title>form_painmap</title>
<g id="a_node12"><a xlink:href="../../tables/form_painmap.html" xlink:title="form_painmap" target="_top">
<polygon fill="#ffffff" stroke="transparent" points="717.5,-329.5613 717.5,-390.5613 852.5,-390.5613 852.5,-329.5613 717.5,-329.5613"/>
<polygon fill="#f5f5f5" stroke="transparent" points="718,-367.0613 718,-390.0613 853,-390.0613 853,-367.0613 718,-367.0613"/>
<polygon fill="none" stroke="#000000" points="718,-367.0613 718,-390.0613 853,-390.0613 853,-367.0613 718,-367.0613"/>
<text text-anchor="start" x="723" y="-375.6613" font-family="Helvetica,sans-Serif" font-weight="bold" font-size="11.00" fill="#000000">form_painmap</text>
<text text-anchor="start" x="818.5219" y="-375.1613" font-family="Helvetica,sans-Serif" font-size="11.00" fill="#000000">[table]</text>
<polygon fill="none" stroke="#000000" points="718,-348.0613 718,-367.0613 853,-367.0613 853,-348.0613 718,-348.0613"/>
<text text-anchor="start" x="721" y="-354.1613" font-family="Helvetica,sans-Serif" font-size="11.00" fill="#000000">...</text>
<polygon fill="#ffffff" stroke="transparent" points="718,-329.0613 718,-348.0613 784,-348.0613 784,-329.0613 718,-329.0613"/>
<polygon fill="none" stroke="#000000" points="718,-329.0613 718,-348.0613 784,-348.0613 784,-329.0613 718,-329.0613"/>
<text text-anchor="start" x="721" y="-335.1613" font-family="Helvetica,sans-Serif" font-size="11.00" fill="#000000">&lt; 4</text>
<polygon fill="#ffffff" stroke="transparent" points="784,-329.0613 784,-348.0613 818,-348.0613 818,-329.0613 784,-329.0613"/>
<polygon fill="none" stroke="#000000" points="784,-329.0613 784,-348.0613 818,-348.0613 818,-329.0613 784,-329.0613"/>
<text text-anchor="start" x="808.8862" y="-335.1613" font-family="Helvetica,sans-Serif" font-size="11.00" fill="#000000"> &#160;</text>
<polygon fill="#ffffff" stroke="transparent" points="818,-329.0613 818,-348.0613 853,-348.0613 853,-329.0613 818,-329.0613"/>
<polygon fill="none" stroke="#000000" points="818,-329.0613 818,-348.0613 853,-348.0613 853,-329.0613 818,-329.0613"/>
<text text-anchor="start" x="843.8862" y="-335.1613" font-family="Helvetica,sans-Serif" font-size="11.00" fill="#000000"> &#160;</text>
</a>
</g>
</g>
<!-- form_painmap&#45;&gt;groups -->
<g id="edge27" class="edge">
<title>form_painmap:w&#45;&gt;groups:e</title>
<path fill="none" stroke="#000000" d="M703.4869,-356.8973C496.709,-352.1754 451.3711,-247.0613 237,-247.0613"/>
<polygon fill="#000000" stroke="#000000" points="710.0005,-356.9708 717.9593,-360.661 714.0003,-357.016 718,-357.0613 718,-357.0613 718,-357.0613 714.0003,-357.016 718.0407,-353.4615 710.0005,-356.9708 710.0005,-356.9708"/>
<ellipse fill="none" stroke="#000000" cx="706.8007" cy="-356.9346" rx="3.2" ry="3.2"/>
</g>
<!-- form_painmap&#45;&gt;forms -->
<g id="edge28" class="edge">
<title>form_painmap:w&#45;&gt;forms:e</title>
<path fill="none" stroke="#000000" d="M703.526,-359.7363C689.5492,-365.9156 685.7754,-382.1121 677,-401.0613 644.2776,-471.7203 713.8682,-749.0613 636,-749.0613"/>
<polygon fill="#000000" stroke="#000000" points="710.1332,-358.5152 718.6543,-360.6013 714.0666,-357.7882 718,-357.0613 718,-357.0613 718,-357.0613 714.0666,-357.7882 717.3457,-353.5212 710.1332,-358.5152 710.1332,-358.5152"/>
<ellipse fill="none" stroke="#000000" cx="706.9865" cy="-359.0968" rx="3.2" ry="3.2"/>
</g>
<!-- form_painmap&#45;&gt;users -->
<g id="edge30" class="edge">
<title>form_painmap:w&#45;&gt;users:e</title>
<path fill="none" stroke="#000000" d="M703.1762,-357.0458C560.4594,-356.7979 227.7825,-354.5987 124,-430.0613 89.5041,-455.144 126.151,-517.0613 83.5,-517.0613"/>
<polygon fill="#000000" stroke="#000000" points="710,-357.0529 717.9962,-360.6613 714,-357.0571 718,-357.0613 718,-357.0613 718,-357.0613 714,-357.0571 718.0038,-353.4613 710,-357.0529 710,-357.0529"/>
<ellipse fill="none" stroke="#000000" cx="706.8" cy="-357.0495" rx="3.2" ry="3.2"/>
</g>
<!-- form_painmap&#45;&gt;patient_data -->
<g id="edge29" class="edge">
<title>form_painmap:w&#45;&gt;patient_data:e</title>
<path fill="none" stroke="#000000" d="M703.4282,-358.4812C679.8017,-363.5459 672.7914,-381.0101 644,-392.0613 493.6921,-449.7545 446.3788,-436.0032 297,-496.0613 278.0044,-503.6985 276.4734,-517.0613 256,-517.0613"/>
<polygon fill="#000000" stroke="#000000" points="710.0377,-357.8372 718.3492,-360.6443 714.0189,-357.4492 718,-357.0613 718,-357.0613 718,-357.0613 714.0189,-357.4492 717.6508,-353.4782 710.0377,-357.8372 710.0377,-357.8372"/>
<ellipse fill="none" stroke="#000000" cx="706.8528" cy="-358.1476" rx="3.2" ry="3.2"/>
</g>
<!-- form_phq9 -->
<g id="node13" class="node">
<title>form_phq9</title>
<g id="a_node13"><a xlink:href="../../tables/form_phq9.html" xlink:title="form_phq9" target="_top">
<polygon fill="#ffffff" stroke="transparent" points="730,-247.5613 730,-308.5613 840,-308.5613 840,-247.5613 730,-247.5613"/>
<polygon fill="#f5f5f5" stroke="transparent" points="730,-285.0613 730,-308.0613 840,-308.0613 840,-285.0613 730,-285.0613"/>
<polygon fill="none" stroke="#000000" points="730,-285.0613 730,-308.0613 840,-308.0613 840,-285.0613 730,-285.0613"/>
<text text-anchor="start" x="735" y="-293.6613" font-family="Helvetica,sans-Serif" font-weight="bold" font-size="11.00" fill="#000000">form_phq9</text>
<text text-anchor="start" x="805.5219" y="-293.1613" font-family="Helvetica,sans-Serif" font-size="11.00" fill="#000000">[table]</text>
<polygon fill="none" stroke="#000000" points="730,-266.0613 730,-285.0613 840,-285.0613 840,-266.0613 730,-266.0613"/>
<text text-anchor="start" x="733" y="-272.1613" font-family="Helvetica,sans-Serif" font-size="11.00" fill="#000000">...</text>
<polygon fill="#ffffff" stroke="transparent" points="730,-247.0613 730,-266.0613 783,-266.0613 783,-247.0613 730,-247.0613"/>
<polygon fill="none" stroke="#000000" points="730,-247.0613 730,-266.0613 783,-266.0613 783,-247.0613 730,-247.0613"/>
<text text-anchor="start" x="733" y="-253.1613" font-family="Helvetica,sans-Serif" font-size="11.00" fill="#000000">&lt; 4</text>
<polygon fill="#ffffff" stroke="transparent" points="783,-247.0613 783,-266.0613 811,-266.0613 811,-247.0613 783,-247.0613"/>
<polygon fill="none" stroke="#000000" points="783,-247.0613 783,-266.0613 811,-266.0613 811,-247.0613 783,-247.0613"/>
<text text-anchor="start" x="801.8862" y="-253.1613" font-family="Helvetica,sans-Serif" font-size="11.00" fill="#000000"> &#160;</text>
<polygon fill="#ffffff" stroke="transparent" points="811,-247.0613 811,-266.0613 840,-266.0613 840,-247.0613 811,-247.0613"/>
<polygon fill="none" stroke="#000000" points="811,-247.0613 811,-266.0613 840,-266.0613 840,-247.0613 811,-247.0613"/>
<text text-anchor="start" x="830.8862" y="-253.1613" font-family="Helvetica,sans-Serif" font-size="11.00" fill="#000000"> &#160;</text>
</a>
</g>
</g>
<!-- form_phq9&#45;&gt;groups -->
<g id="edge31" class="edge">
<title>form_phq9:w&#45;&gt;groups:e</title>
<path fill="none" stroke="#000000" d="M715.3889,-274.9157C605.0185,-272.6739 574.1978,-245.1788 457,-237.0613 386.0589,-232.1477 367.8688,-231.196 297,-237.0613 270.0576,-239.2911 264.0345,-247.0613 237,-247.0613"/>
<polygon fill="#000000" stroke="#000000" points="722.0004,-274.9815 729.9641,-278.6611 726.0002,-275.0214 730,-275.0613 730,-275.0613 730,-275.0613 726.0002,-275.0214 730.0359,-271.4614 722.0004,-274.9815 722.0004,-274.9815"/>
<ellipse fill="none" stroke="#000000" cx="718.8006" cy="-274.9496" rx="3.2" ry="3.2"/>
</g>
<!-- form_phq9&#45;&gt;forms -->
<g id="edge32" class="edge">
<title>form_phq9:w&#45;&gt;forms:e</title>
<path fill="none" stroke="#000000" d="M715.5132,-276.6623C696.2827,-281.4749 688.7414,-296.861 677,-319.0613 654.5614,-361.4874 683.9945,-749.0613 636,-749.0613"/>
<polygon fill="#000000" stroke="#000000" points="722.0484,-275.9401 730.3955,-278.6395 726.0242,-275.5007 730,-275.0613 730,-275.0613 730,-275.0613 726.0242,-275.5007 729.6045,-271.4831 722.0484,-275.9401 722.0484,-275.9401"/>
<ellipse fill="none" stroke="#000000" cx="718.8678" cy="-276.2916" rx="3.2" ry="3.2"/>
</g>
<!-- form_phq9&#45;&gt;users -->
<g id="edge34" class="edge">
<title>form_phq9:w&#45;&gt;users:e</title>
<path fill="none" stroke="#000000" d="M715.6258,-273.807C686.7577,-268.3694 679.1963,-246.7203 644,-238.0613 479.5245,-197.5967 433.2572,-215.5104 264,-209.0613 201.8229,-206.6922 170.7779,-168.0316 124,-209.0613 72.1013,-254.5824 152.5336,-517.0613 83.5,-517.0613"/>
<polygon fill="#000000" stroke="#000000" points="722.0303,-274.3658 729.687,-278.6476 726.0151,-274.7135 730,-275.0613 730,-275.0613 730,-275.0613 726.0151,-274.7135 730.313,-271.4749 722.0303,-274.3658 722.0303,-274.3658"/>
<ellipse fill="none" stroke="#000000" cx="718.8424" cy="-274.0876" rx="3.2" ry="3.2"/>
</g>
<!-- form_phq9&#45;&gt;patient_data -->
<g id="edge33" class="edge">
<title>form_phq9:w&#45;&gt;patient_data:e</title>
<path fill="none" stroke="#000000" d="M715.5915,-276.0301C686.4486,-280.2712 677.4864,-297.5898 644,-311.0613 490.6241,-372.7636 422.2837,-337.194 297,-445.0613 269.0937,-469.0881 292.8246,-517.0613 256,-517.0613"/>
<polygon fill="#000000" stroke="#000000" points="722.018,-275.598 730.2415,-278.6532 726.009,-275.3296 730,-275.0613 730,-275.0613 730,-275.0613 726.009,-275.3296 729.7585,-271.4694 722.018,-275.598 722.018,-275.598"/>
<ellipse fill="none" stroke="#000000" cx="718.8252" cy="-275.8127" rx="3.2" ry="3.2"/>
</g>
<!-- form_physical_exam -->
<g id="node14" class="node">
<title>form_physical_exam</title>
<g id="a_node14"><a xlink:href="../../tables/form_physical_exam.html" xlink:title="form_physical_exam" target="_top">
<polygon fill="#ffffff" stroke="transparent" points="698,-938.5613 698,-999.5613 872,-999.5613 872,-938.5613 698,-938.5613"/>
<polygon fill="#f5f5f5" stroke="transparent" points="698,-976.0613 698,-999.0613 872,-999.0613 872,-976.0613 698,-976.0613"/>
<polygon fill="none" stroke="#000000" points="698,-976.0613 698,-999.0613 872,-999.0613 872,-976.0613 698,-976.0613"/>
<text text-anchor="start" x="703" y="-984.6613" font-family="Helvetica,sans-Serif" font-weight="bold" font-size="11.00" fill="#000000">form_physical_exam</text>
<text text-anchor="start" x="837.5219" y="-984.1613" font-family="Helvetica,sans-Serif" font-size="11.00" fill="#000000">[table]</text>
<polygon fill="none" stroke="#000000" points="698,-957.0613 698,-976.0613 872,-976.0613 872,-957.0613 698,-957.0613"/>
<text text-anchor="start" x="701" y="-963.1613" font-family="Helvetica,sans-Serif" font-size="11.00" fill="#000000">...</text>
<polygon fill="#ffffff" stroke="transparent" points="698,-938.0613 698,-957.0613 783,-957.0613 783,-938.0613 698,-938.0613"/>
<polygon fill="none" stroke="#000000" points="698,-938.0613 698,-957.0613 783,-957.0613 783,-938.0613 698,-938.0613"/>
<text text-anchor="start" x="701" y="-944.1613" font-family="Helvetica,sans-Serif" font-size="11.00" fill="#000000">&lt; 1</text>
<polygon fill="#ffffff" stroke="transparent" points="783,-938.0613 783,-957.0613 827,-957.0613 827,-938.0613 783,-938.0613"/>
<polygon fill="none" stroke="#000000" points="783,-938.0613 783,-957.0613 827,-957.0613 827,-938.0613 783,-938.0613"/>
<text text-anchor="start" x="817.8862" y="-944.1613" font-family="Helvetica,sans-Serif" font-size="11.00" fill="#000000"> &#160;</text>
<polygon fill="#ffffff" stroke="transparent" points="827,-938.0613 827,-957.0613 872,-957.0613 872,-938.0613 827,-938.0613"/>
<polygon fill="none" stroke="#000000" points="827,-938.0613 827,-957.0613 872,-957.0613 872,-938.0613 827,-938.0613"/>
<text text-anchor="start" x="862.8862" y="-944.1613" font-family="Helvetica,sans-Serif" font-size="11.00" fill="#000000"> &#160;</text>
</a>
</g>
</g>
<!-- form_physical_exam&#45;&gt;forms -->
<g id="edge35" class="edge">
<title>form_physical_exam:w&#45;&gt;forms:e</title>
<path fill="none" stroke="#000000" d="M683.6987,-963.7465C629.3243,-943.2174 712.0941,-793.0613 636,-793.0613"/>
<polygon fill="#000000" stroke="#000000" points="690.1028,-964.783 697.4248,-969.615 694.0514,-965.4221 698,-966.0613 698,-966.0613 698,-966.0613 694.0514,-965.4221 698.5752,-962.5075 690.1028,-964.783 690.1028,-964.783"/>
<ellipse fill="none" stroke="#000000" cx="686.9439" cy="-964.2717" rx="3.2" ry="3.2"/>
</g>
<!-- form_prior_auth -->
<g id="node15" class="node">
<title>form_prior_auth</title>
<g id="a_node15"><a xlink:href="../../tables/form_prior_auth.html" xlink:title="form_prior_auth" target="_top">
<polygon fill="#ffffff" stroke="transparent" points="712,-575.5613 712,-636.5613 858,-636.5613 858,-575.5613 712,-575.5613"/>
<polygon fill="#f5f5f5" stroke="transparent" points="712,-613.0613 712,-636.0613 858,-636.0613 858,-613.0613 712,-613.0613"/>
<polygon fill="none" stroke="#000000" points="712,-613.0613 712,-636.0613 858,-636.0613 858,-613.0613 712,-613.0613"/>
<text text-anchor="start" x="717" y="-621.6613" font-family="Helvetica,sans-Serif" font-weight="bold" font-size="11.00" fill="#000000">form_prior_auth</text>
<text text-anchor="start" x="823.5219" y="-621.1613" font-family="Helvetica,sans-Serif" font-size="11.00" fill="#000000">[table]</text>
<polygon fill="none" stroke="#000000" points="712,-594.0613 712,-613.0613 858,-613.0613 858,-594.0613 712,-594.0613"/>
<text text-anchor="start" x="715" y="-600.1613" font-family="Helvetica,sans-Serif" font-size="11.00" fill="#000000">...</text>
<polygon fill="#ffffff" stroke="transparent" points="712,-575.0613 712,-594.0613 783,-594.0613 783,-575.0613 712,-575.0613"/>
<polygon fill="none" stroke="#000000" points="712,-575.0613 712,-594.0613 783,-594.0613 783,-575.0613 712,-575.0613"/>
<text text-anchor="start" x="715" y="-581.1613" font-family="Helvetica,sans-Serif" font-size="11.00" fill="#000000">&lt; 2</text>
<polygon fill="#ffffff" stroke="transparent" points="783,-575.0613 783,-594.0613 820,-594.0613 820,-575.0613 783,-575.0613"/>
<polygon fill="none" stroke="#000000" points="783,-575.0613 783,-594.0613 820,-594.0613 820,-575.0613 783,-575.0613"/>
<text text-anchor="start" x="810.8862" y="-581.1613" font-family="Helvetica,sans-Serif" font-size="11.00" fill="#000000"> &#160;</text>
<polygon fill="#ffffff" stroke="transparent" points="820,-575.0613 820,-594.0613 858,-594.0613 858,-575.0613 820,-575.0613"/>
<polygon fill="none" stroke="#000000" points="820,-575.0613 820,-594.0613 858,-594.0613 858,-575.0613 820,-575.0613"/>
<text text-anchor="start" x="848.8862" y="-581.1613" font-family="Helvetica,sans-Serif" font-size="11.00" fill="#000000"> &#160;</text>
</a>
</g>
</g>
<!-- form_prior_auth&#45;&gt;forms -->
<g id="edge36" class="edge">
<title>form_prior_auth:w&#45;&gt;forms:e</title>
<path fill="none" stroke="#000000" d="M697.6535,-605.4736C648.7246,-624.4563 703.5817,-749.0613 636,-749.0613"/>
<polygon fill="#000000" stroke="#000000" points="704.1107,-604.3879 712.597,-606.6114 708.0554,-603.7246 712,-603.0613 712,-603.0613 712,-603.0613 708.0554,-603.7246 711.403,-599.5111 704.1107,-604.3879 704.1107,-604.3879"/>
<ellipse fill="none" stroke="#000000" cx="700.955" cy="-604.9185" rx="3.2" ry="3.2"/>
</g>
<!-- form_prior_auth&#45;&gt;patient_data -->
<g id="edge37" class="edge">
<title>form_prior_auth:w&#45;&gt;patient_data:e</title>
<path fill="none" stroke="#000000" d="M697.5593,-600.8459C675.6331,-593.2428 672.874,-568.1265 644,-558.0613 497.8291,-507.1071 449.4553,-554.8878 297,-528.0613 278.4188,-524.7917 274.8667,-517.0613 256,-517.0613"/>
<polygon fill="#000000" stroke="#000000" points="704.0925,-601.8481 711.4541,-606.6196 708.0463,-602.4547 712,-603.0613 712,-603.0613 712,-603.0613 708.0463,-602.4547 712.5459,-599.5029 704.0925,-601.8481 704.0925,-601.8481"/>
<ellipse fill="none" stroke="#000000" cx="700.9295" cy="-601.3629" rx="3.2" ry="3.2"/>
</g>
<!-- form_sdoh -->
<g id="node16" class="node">
<title>form_sdoh</title>
<g id="a_node16"><a xlink:href="../../tables/form_sdoh.html" xlink:title="form_sdoh" target="_top">
<polygon fill="#ffffff" stroke="transparent" points="730.5,-165.5613 730.5,-226.5613 839.5,-226.5613 839.5,-165.5613 730.5,-165.5613"/>
<polygon fill="#f5f5f5" stroke="transparent" points="731,-203.0613 731,-226.0613 840,-226.0613 840,-203.0613 731,-203.0613"/>
<polygon fill="none" stroke="#000000" points="731,-203.0613 731,-226.0613 840,-226.0613 840,-203.0613 731,-203.0613"/>
<text text-anchor="start" x="736" y="-211.6613" font-family="Helvetica,sans-Serif" font-weight="bold" font-size="11.00" fill="#000000">form_sdoh</text>
<text text-anchor="start" x="805.5219" y="-211.1613" font-family="Helvetica,sans-Serif" font-size="11.00" fill="#000000">[table]</text>
<polygon fill="none" stroke="#000000" points="731,-184.0613 731,-203.0613 840,-203.0613 840,-184.0613 731,-184.0613"/>
<text text-anchor="start" x="734" y="-190.1613" font-family="Helvetica,sans-Serif" font-size="11.00" fill="#000000">...</text>
<polygon fill="#ffffff" stroke="transparent" points="731,-165.0613 731,-184.0613 784,-184.0613 784,-165.0613 731,-165.0613"/>
<polygon fill="none" stroke="#000000" points="731,-165.0613 731,-184.0613 784,-184.0613 784,-165.0613 731,-165.0613"/>
<text text-anchor="start" x="734" y="-171.1613" font-family="Helvetica,sans-Serif" font-size="11.00" fill="#000000">&lt; 4</text>
<polygon fill="#ffffff" stroke="transparent" points="784,-165.0613 784,-184.0613 812,-184.0613 812,-165.0613 784,-165.0613"/>
<polygon fill="none" stroke="#000000" points="784,-165.0613 784,-184.0613 812,-184.0613 812,-165.0613 784,-165.0613"/>
<text text-anchor="start" x="802.8862" y="-171.1613" font-family="Helvetica,sans-Serif" font-size="11.00" fill="#000000"> &#160;</text>
<polygon fill="#ffffff" stroke="transparent" points="812,-165.0613 812,-184.0613 840,-184.0613 840,-165.0613 812,-165.0613"/>
<polygon fill="none" stroke="#000000" points="812,-165.0613 812,-184.0613 840,-184.0613 840,-165.0613 812,-165.0613"/>
<text text-anchor="start" x="830.8862" y="-171.1613" font-family="Helvetica,sans-Serif" font-size="11.00" fill="#000000"> &#160;</text>
</a>
</g>
</g>
<!-- form_sdoh&#45;&gt;groups -->
<g id="edge38" class="edge">
<title>form_sdoh:w&#45;&gt;groups:e</title>
<path fill="none" stroke="#000000" d="M716.5271,-193.0661C534.7833,-193.1956 482.6056,-196.1769 297,-230.0613 269.7343,-235.0389 264.7164,-247.0613 237,-247.0613"/>
<polygon fill="#000000" stroke="#000000" points="723,-193.064 731.0012,-196.6613 727,-193.0626 731,-193.0613 731,-193.0613 731,-193.0613 727,-193.0626 730.9988,-189.4613 723,-193.064 723,-193.064"/>
<ellipse fill="none" stroke="#000000" cx="719.8" cy="-193.0651" rx="3.2" ry="3.2"/>
</g>
<!-- form_sdoh&#45;&gt;forms -->
<g id="edge39" class="edge">
<title>form_sdoh:w&#45;&gt;forms:e</title>
<path fill="none" stroke="#000000" d="M716.5899,-194.5678C696.8233,-199.2281 688.8621,-214.4696 677,-237.0613 650.4689,-287.5905 693.071,-749.0613 636,-749.0613"/>
<polygon fill="#000000" stroke="#000000" points="723.0434,-193.8932 731.3743,-196.6418 727.0217,-193.4772 731,-193.0613 731,-193.0613 731,-193.0613 727.0217,-193.4772 730.6257,-189.4808 723.0434,-193.8932 723.0434,-193.8932"/>
<ellipse fill="none" stroke="#000000" cx="719.8607" cy="-194.2259" rx="3.2" ry="3.2"/>
</g>
<!-- form_sdoh&#45;&gt;users -->
<g id="edge41" class="edge">
<title>form_sdoh:w&#45;&gt;users:e</title>
<path fill="none" stroke="#000000" d="M716.5084,-192.8846C456.3087,-186.5407 322.4353,-12.5556 124,-188.0613 68.8221,-236.8633 157.163,-517.0613 83.5,-517.0613"/>
<polygon fill="#000000" stroke="#000000" points="723.0006,-192.9637 730.9561,-196.661 727.0003,-193.0125 731,-193.0613 731,-193.0613 731,-193.0613 727.0003,-193.0125 731.0439,-189.4615 723.0006,-192.9637 723.0006,-192.9637"/>
<ellipse fill="none" stroke="#000000" cx="719.8008" cy="-192.9246" rx="3.2" ry="3.2"/>
</g>
<!-- form_sdoh&#45;&gt;patient_data -->
<g id="edge40" class="edge">
<title>form_sdoh:w&#45;&gt;patient_data:e</title>
<path fill="none" stroke="#000000" d="M716.5843,-195.0953C698.6811,-200.9416 694.2211,-218.5616 677,-237.0613 659.6092,-255.7433 665.4987,-270.304 644,-284.0613 585.4037,-321.5576 558.0475,-297.6027 490,-312.0613 403.6432,-330.4101 359.8937,-297.1052 297,-359.0613 245.317,-409.9737 328.548,-517.0613 256,-517.0613"/>
<polygon fill="#000000" stroke="#000000" points="723.0785,-194.179 731.503,-196.626 727.0392,-193.6201 731,-193.0613 731,-193.0613 731,-193.0613 727.0392,-193.6201 730.497,-189.4966 723.0785,-194.179 723.0785,-194.179"/>
<ellipse fill="none" stroke="#000000" cx="719.9098" cy="-194.6261" rx="3.2" ry="3.2"/>
</g>
<!-- form_track_anything -->
<g id="node17" class="node">
<title>form_track_anything</title>
<g id="a_node17"><a xlink:href="../../tables/form_track_anything.html" xlink:title="form_track_anything" target="_top">
<polygon fill="#ffffff" stroke="transparent" points="696.5,-493.5613 696.5,-554.5613 873.5,-554.5613 873.5,-493.5613 696.5,-493.5613"/>
<polygon fill="#f5f5f5" stroke="transparent" points="697,-531.0613 697,-554.0613 874,-554.0613 874,-531.0613 697,-531.0613"/>
<polygon fill="none" stroke="#000000" points="697,-531.0613 697,-554.0613 874,-554.0613 874,-531.0613 697,-531.0613"/>
<text text-anchor="start" x="702" y="-539.6613" font-family="Helvetica,sans-Serif" font-weight="bold" font-size="11.00" fill="#000000">form_track_anything</text>
<text text-anchor="start" x="839.5219" y="-539.1613" font-family="Helvetica,sans-Serif" font-size="11.00" fill="#000000">[table]</text>
<polygon fill="none" stroke="#000000" points="697,-512.0613 697,-531.0613 874,-531.0613 874,-512.0613 697,-512.0613"/>
<text text-anchor="start" x="700" y="-518.1613" font-family="Helvetica,sans-Serif" font-size="11.00" fill="#000000">...</text>
<polygon fill="#ffffff" stroke="transparent" points="697,-493.0613 697,-512.0613 779,-512.0613 779,-493.0613 697,-493.0613"/>
<polygon fill="none" stroke="#000000" points="697,-493.0613 697,-512.0613 779,-512.0613 779,-493.0613 697,-493.0613"/>
<text text-anchor="start" x="700" y="-499.1613" font-family="Helvetica,sans-Serif" font-size="11.00" fill="#000000">&lt; 2</text>
<polygon fill="#ffffff" stroke="transparent" points="779,-493.0613 779,-512.0613 822,-512.0613 822,-493.0613 779,-493.0613"/>
<polygon fill="none" stroke="#000000" points="779,-493.0613 779,-512.0613 822,-512.0613 822,-493.0613 779,-493.0613"/>
<text text-anchor="start" x="812.8862" y="-499.1613" font-family="Helvetica,sans-Serif" font-size="11.00" fill="#000000"> &#160;</text>
<polygon fill="#ffffff" stroke="transparent" points="822,-493.0613 822,-512.0613 874,-512.0613 874,-493.0613 822,-493.0613"/>
<polygon fill="none" stroke="#000000" points="822,-493.0613 822,-512.0613 874,-512.0613 874,-493.0613 822,-493.0613"/>
<text text-anchor="start" x="855.4053" y="-499.1613" font-family="Helvetica,sans-Serif" font-size="11.00" fill="#000000">1 &gt;</text>
</a>
</g>
</g>
<!-- form_track_anything&#45;&gt;forms -->
<g id="edge42" class="edge">
<title>form_track_anything:w&#45;&gt;forms:e</title>
<path fill="none" stroke="#000000" d="M686.599,-521.9328C602.5242,-537.2402 737.1071,-749.0613 636,-749.0613"/>
<polygon fill="#000000" stroke="#000000" points="695.8688,-517.142 696.5368,-525.1141 694.9424,-525.2477 694.2744,-517.2757 695.8688,-517.142"/>
<polyline fill="none" stroke="#000000" points="697,-521.0613 693.014,-521.3953 "/>
<ellipse fill="none" stroke="#000000" cx="689.8251" cy="-521.6625" rx="3.2" ry="3.2"/>
</g>
<!-- form_track_anything&#45;&gt;patient_data -->
<g id="edge43" class="edge">
<title>form_track_anything:w&#45;&gt;patient_data:e</title>
<path fill="none" stroke="#000000" d="M682.3492,-521.0537C498.4097,-520.8607 447.0313,-517.0613 256,-517.0613"/>
<polygon fill="#000000" stroke="#000000" points="689,-521.0571 696.9981,-524.6613 693,-521.0592 697,-521.0613 697,-521.0613 697,-521.0613 693,-521.0592 697.0019,-517.4613 689,-521.0571 689,-521.0571"/>
<ellipse fill="none" stroke="#000000" cx="685.8" cy="-521.0554" rx="3.2" ry="3.2"/>
</g>
<!-- form_transfer_summary -->
<g id="node18" class="node">
<title>form_transfer_summary</title>
<g id="a_node18"><a xlink:href="../../tables/form_transfer_summary.html" xlink:title="form_transfer_summary" target="_top">
<polygon fill="#ffffff" stroke="transparent" points="685,-856.5613 685,-917.5613 885,-917.5613 885,-856.5613 685,-856.5613"/>
<polygon fill="#f5f5f5" stroke="transparent" points="685,-894.0613 685,-917.0613 885,-917.0613 885,-894.0613 685,-894.0613"/>
<polygon fill="none" stroke="#000000" points="685,-894.0613 685,-917.0613 885,-917.0613 885,-894.0613 685,-894.0613"/>
<text text-anchor="start" x="690" y="-902.6613" font-family="Helvetica,sans-Serif" font-weight="bold" font-size="11.00" fill="#000000">form_transfer_summary</text>
<text text-anchor="start" x="850.5219" y="-902.1613" font-family="Helvetica,sans-Serif" font-size="11.00" fill="#000000">[table]</text>
<polygon fill="none" stroke="#000000" points="685,-875.0613 685,-894.0613 885,-894.0613 885,-875.0613 685,-875.0613"/>
<text text-anchor="start" x="688" y="-881.1613" font-family="Helvetica,sans-Serif" font-size="11.00" fill="#000000">...</text>
<polygon fill="#ffffff" stroke="transparent" points="685,-856.0613 685,-875.0613 783,-875.0613 783,-856.0613 685,-856.0613"/>
<polygon fill="none" stroke="#000000" points="685,-856.0613 685,-875.0613 783,-875.0613 783,-856.0613 685,-856.0613"/>
<text text-anchor="start" x="688" y="-862.1613" font-family="Helvetica,sans-Serif" font-size="11.00" fill="#000000">&lt; 2</text>
<polygon fill="#ffffff" stroke="transparent" points="783,-856.0613 783,-875.0613 834,-875.0613 834,-856.0613 783,-856.0613"/>
<polygon fill="none" stroke="#000000" points="783,-856.0613 783,-875.0613 834,-875.0613 834,-856.0613 783,-856.0613"/>
<text text-anchor="start" x="824.8862" y="-862.1613" font-family="Helvetica,sans-Serif" font-size="11.00" fill="#000000"> &#160;</text>
<polygon fill="#ffffff" stroke="transparent" points="834,-856.0613 834,-875.0613 885,-875.0613 885,-856.0613 834,-856.0613"/>
<polygon fill="none" stroke="#000000" points="834,-856.0613 834,-875.0613 885,-875.0613 885,-856.0613 834,-856.0613"/>
<text text-anchor="start" x="875.8862" y="-862.1613" font-family="Helvetica,sans-Serif" font-size="11.00" fill="#000000"> &#160;</text>
</a>
</g>
</g>
<!-- form_transfer_summary&#45;&gt;forms -->
<g id="edge44" class="edge">
<title>form_transfer_summary:w&#45;&gt;forms:e</title>
<path fill="none" stroke="#000000" d="M670.5701,-880.7242C634.6664,-859.9353 693.846,-749.0613 636,-749.0613"/>
<polygon fill="#000000" stroke="#000000" points="677.2057,-882.2587 684.1888,-887.5687 681.1029,-883.16 685,-884.0613 685,-884.0613 685,-884.0613 681.1029,-883.16 685.8112,-880.5538 677.2057,-882.2587 677.2057,-882.2587"/>
<ellipse fill="none" stroke="#000000" cx="674.088" cy="-881.5377" rx="3.2" ry="3.2"/>
</g>
<!-- form_transfer_summary&#45;&gt;patient_data -->
<g id="edge45" class="edge">
<title>form_transfer_summary:w&#45;&gt;patient_data:e</title>
<path fill="none" stroke="#000000" d="M670.4275,-884.1183C499.7687,-885.4243 404.0679,-907.4122 297,-769.0613 262.2762,-724.1918 312.7363,-517.0613 256,-517.0613"/>
<polygon fill="#000000" stroke="#000000" points="677.0001,-884.0927 685.0141,-887.6612 681,-884.077 685,-884.0613 685,-884.0613 685,-884.0613 681,-884.077 684.9859,-880.4613 677.0001,-884.0927 677.0001,-884.0927"/>
<ellipse fill="none" stroke="#000000" cx="673.8001" cy="-884.1052" rx="3.2" ry="3.2"/>
</g>
<!-- form_treatment_plan -->
<g id="node19" class="node">
<title>form_treatment_plan</title>
<g id="a_node19"><a xlink:href="../../tables/form_treatment_plan.html" xlink:title="form_treatment_plan" target="_top">
<polygon fill="#ffffff" stroke="transparent" points="695,-83.5613 695,-144.5613 875,-144.5613 875,-83.5613 695,-83.5613"/>
<polygon fill="#f5f5f5" stroke="transparent" points="695,-121.0613 695,-144.0613 875,-144.0613 875,-121.0613 695,-121.0613"/>
<polygon fill="none" stroke="#000000" points="695,-121.0613 695,-144.0613 875,-144.0613 875,-121.0613 695,-121.0613"/>
<text text-anchor="start" x="700" y="-129.6613" font-family="Helvetica,sans-Serif" font-weight="bold" font-size="11.00" fill="#000000">form_treatment_plan</text>
<text text-anchor="start" x="840.5219" y="-129.1613" font-family="Helvetica,sans-Serif" font-size="11.00" fill="#000000">[table]</text>
<polygon fill="none" stroke="#000000" points="695,-102.0613 695,-121.0613 875,-121.0613 875,-102.0613 695,-102.0613"/>
<text text-anchor="start" x="698" y="-108.1613" font-family="Helvetica,sans-Serif" font-size="11.00" fill="#000000">...</text>
<polygon fill="#ffffff" stroke="transparent" points="695,-83.0613 695,-102.0613 783,-102.0613 783,-83.0613 695,-83.0613"/>
<polygon fill="none" stroke="#000000" points="695,-83.0613 695,-102.0613 783,-102.0613 783,-83.0613 695,-83.0613"/>
<text text-anchor="start" x="698" y="-89.1613" font-family="Helvetica,sans-Serif" font-size="11.00" fill="#000000">&lt; 4</text>
<polygon fill="#ffffff" stroke="transparent" points="783,-83.0613 783,-102.0613 829,-102.0613 829,-83.0613 783,-83.0613"/>
<polygon fill="none" stroke="#000000" points="783,-83.0613 783,-102.0613 829,-102.0613 829,-83.0613 783,-83.0613"/>
<text text-anchor="start" x="819.8862" y="-89.1613" font-family="Helvetica,sans-Serif" font-size="11.00" fill="#000000"> &#160;</text>
<polygon fill="#ffffff" stroke="transparent" points="829,-83.0613 829,-102.0613 875,-102.0613 875,-83.0613 829,-83.0613"/>
<polygon fill="none" stroke="#000000" points="829,-83.0613 829,-102.0613 875,-102.0613 875,-83.0613 829,-83.0613"/>
<text text-anchor="start" x="865.8862" y="-89.1613" font-family="Helvetica,sans-Serif" font-size="11.00" fill="#000000"> &#160;</text>
</a>
</g>
</g>
<!-- form_treatment_plan&#45;&gt;groups -->
<g id="edge46" class="edge">
<title>form_treatment_plan:w&#45;&gt;groups:e</title>
<path fill="none" stroke="#000000" d="M680.4794,-111.4461C582.2186,-116.288 375.2108,-165.7995 297,-202.0613 266.7589,-216.0823 270.3333,-247.0613 237,-247.0613"/>
<polygon fill="#000000" stroke="#000000" points="687.0028,-111.2733 695.0954,-114.66 691.0014,-111.1673 695,-111.0613 695,-111.0613 695,-111.0613 691.0014,-111.1673 694.9046,-107.4625 687.0028,-111.2733 687.0028,-111.2733"/>
<ellipse fill="none" stroke="#000000" cx="683.8039" cy="-111.3581" rx="3.2" ry="3.2"/>
</g>
<!-- form_treatment_plan&#45;&gt;forms -->
<g id="edge47" class="edge">
<title>form_treatment_plan:w&#45;&gt;forms:e</title>
<path fill="none" stroke="#000000" d="M682.7717,-119.1279C634.2013,-192.9822 702.4638,-749.0613 636,-749.0613"/>
<polygon fill="#000000" stroke="#000000" points="688.3221,-115.4665 696.9824,-114.0663 691.6611,-113.2639 695,-111.0613 695,-111.0613 695,-111.0613 691.6611,-113.2639 693.0176,-108.0562 688.3221,-115.4665 688.3221,-115.4665"/>
<ellipse fill="none" stroke="#000000" cx="685.651" cy="-117.2286" rx="3.2" ry="3.2"/>
</g>
<!-- form_treatment_plan&#45;&gt;users -->
<g id="edge49" class="edge">
<title>form_treatment_plan:w&#45;&gt;users:e</title>
<path fill="none" stroke="#000000" d="M680.2693,-110.8677C436.0817,-104.4556 306.5264,58.0426 124,-111.0613 57.4877,-172.6824 174.17,-517.0613 83.5,-517.0613"/>
<polygon fill="#000000" stroke="#000000" points="687.0007,-110.9561 694.9527,-114.661 691.0003,-111.0087 695,-111.0613 695,-111.0613 695,-111.0613 691.0003,-111.0087 695.0473,-107.4616 687.0007,-110.9561 687.0007,-110.9561"/>
<ellipse fill="none" stroke="#000000" cx="683.801" cy="-110.9141" rx="3.2" ry="3.2"/>
</g>
<!-- form_treatment_plan&#45;&gt;patient_data -->
<g id="edge48" class="edge">
<title>form_treatment_plan:w&#45;&gt;patient_data:e</title>
<path fill="none" stroke="#000000" d="M680.5425,-113.2839C667.0541,-118.0806 661.6862,-129.7241 644,-139.0613 491.0771,-219.7941 401.7658,-177.4846 297,-315.0613 241.4996,-387.9434 347.6084,-517.0613 256,-517.0613"/>
<polygon fill="#000000" stroke="#000000" points="687.0929,-112.2769 695.547,-114.6195 691.0464,-111.6691 695,-111.0613 695,-111.0613 695,-111.0613 691.0464,-111.6691 694.453,-107.5031 687.0929,-112.2769 687.0929,-112.2769"/>
<ellipse fill="none" stroke="#000000" cx="683.9301" cy="-112.7632" rx="3.2" ry="3.2"/>
</g>
</g>
</svg>
