<?xml version="1.0" encoding="UTF-8" standalone="no"?>
<!DOCTYPE svg PUBLIC "-//W3C//DTD SVG 1.1//EN"
 "http://www.w3.org/Graphics/SVG/1.1/DTD/svg11.dtd">
<!-- Generated by graphviz version 2.40.1 (20161225.0304)
 -->
<!-- Title: oneDegreeRelationshipsDiagram Pages: 1 -->
<svg width="613pt" height="557pt"
 viewBox="0.00 0.00 613.00 556.70" xmlns="http://www.w3.org/2000/svg" xmlns:xlink="http://www.w3.org/1999/xlink">
<g id="graph0" class="graph" transform="scale(1 1) rotate(0) translate(4 552.7)">
<title>oneDegreeRelationshipsDiagram</title>
<polygon fill="#ffffff" stroke="transparent" points="-4,4 -4,-552.7 609,-552.7 609,4 -4,4"/>
<text text-anchor="middle" x="72.4936" y="-7.3" font-family="Helvetica,sans-Serif" font-size="11.00" fill="#000000">Generated by SchemaSpy</text>
<!-- form_aftercare_plan -->
<g id="node1" class="node">
<title>form_aftercare_plan</title>
<g id="a_node1"><a xlink:href="../../tables/form_aftercare_plan.html" xlink:title="form_aftercare_plan" target="_top">
<polygon fill="#ffffff" stroke="transparent" points="224,-38.2 224,-480.2 597,-480.2 597,-38.2 224,-38.2"/>
<polygon fill="#f5f5f5" stroke="transparent" points="226.5,-455.2 226.5,-478.2 595.5,-478.2 595.5,-455.2 226.5,-455.2"/>
<polygon fill="none" stroke="#000000" points="226.5,-455.2 226.5,-478.2 595.5,-478.2 595.5,-455.2 226.5,-455.2"/>
<text text-anchor="start" x="231.5" y="-463.8" font-family="Helvetica,sans-Serif" font-weight="bold" font-size="11.00" fill="#000000">form_aftercare_plan</text>
<text text-anchor="start" x="560.5437" y="-463.3" font-family="Helvetica,sans-Serif" font-size="11.00" fill="#000000">[table]</text>
<polygon fill="none" stroke="#000000" points="226.5,-433.2 226.5,-455.2 528.5,-455.2 528.5,-433.2 226.5,-433.2"/>
<image xlink:href="../../images/primaryKeys.png" width="11px" height="12px" preserveAspectRatio="xMinYMin meet" x="231.5" y="-450.2"/>
<text text-anchor="start" x="246.5" y="-440.3" font-family="Helvetica,sans-Serif" font-size="11.00" fill="#000000">id</text>
<polygon fill="none" stroke="#000000" points="528.5,-433.2 528.5,-455.2 595.5,-455.2 595.5,-433.2 528.5,-433.2"/>
<text text-anchor="start" x="531.5" y="-440.9" font-family="Helvetica,sans-Serif" font-size="11.00" fill="#000000">bigint[19]</text>
<polygon fill="none" stroke="#000000" points="226.5,-411.2 226.5,-433.2 528.5,-433.2 528.5,-411.2 226.5,-411.2"/>
<text text-anchor="start" x="246.5" y="-418.3" font-family="Helvetica,sans-Serif" font-size="11.00" fill="#000000">date</text>
<polygon fill="none" stroke="#000000" points="528.5,-411.2 528.5,-433.2 595.5,-433.2 595.5,-411.2 528.5,-411.2"/>
<text text-anchor="start" x="531.5" y="-418.9" font-family="Helvetica,sans-Serif" font-size="11.00" fill="#000000">datetime[19]</text>
<polygon fill="none" stroke="#000000" points="226.5,-389.2 226.5,-411.2 528.5,-411.2 528.5,-389.2 226.5,-389.2"/>
<image xlink:href="../../images/foreignKeys.png" width="11px" height="12px" preserveAspectRatio="xMinYMin meet" x="231.5" y="-406.2"/>
<text text-anchor="start" x="246.5" y="-396.3" font-family="Helvetica,sans-Serif" font-size="11.00" fill="#000000">pid</text>
<polygon fill="none" stroke="#000000" points="528.5,-389.2 528.5,-411.2 595.5,-411.2 595.5,-389.2 528.5,-389.2"/>
<text text-anchor="start" x="531.5" y="-396.9" font-family="Helvetica,sans-Serif" font-size="11.00" fill="#000000">bigint[19]</text>
<polygon fill="none" stroke="#000000" points="226.5,-367.2 226.5,-389.2 528.5,-389.2 528.5,-367.2 226.5,-367.2"/>
<text text-anchor="start" x="246.5" y="-374.3" font-family="Helvetica,sans-Serif" font-size="11.00" fill="#000000">user</text>
<polygon fill="none" stroke="#000000" points="528.5,-367.2 528.5,-389.2 595.5,-389.2 595.5,-367.2 528.5,-367.2"/>
<text text-anchor="start" x="531.4365" y="-374.9" font-family="Helvetica,sans-Serif" font-size="11.00" fill="#000000">varchar[255]</text>
<polygon fill="none" stroke="#000000" points="226.5,-345.2 226.5,-367.2 528.5,-367.2 528.5,-345.2 226.5,-345.2"/>
<text text-anchor="start" x="246.5" y="-352.3" font-family="Helvetica,sans-Serif" font-size="11.00" fill="#000000">provider</text>
<polygon fill="none" stroke="#000000" points="528.5,-345.2 528.5,-367.2 595.5,-367.2 595.5,-345.2 528.5,-345.2"/>
<text text-anchor="start" x="531.4365" y="-352.9" font-family="Helvetica,sans-Serif" font-size="11.00" fill="#000000">varchar[255]</text>
<polygon fill="none" stroke="#000000" points="226.5,-323.2 226.5,-345.2 528.5,-345.2 528.5,-323.2 226.5,-323.2"/>
<text text-anchor="start" x="246.5" y="-330.3" font-family="Helvetica,sans-Serif" font-size="11.00" fill="#000000">groupname</text>
<polygon fill="none" stroke="#000000" points="528.5,-323.2 528.5,-345.2 595.5,-345.2 595.5,-323.2 528.5,-323.2"/>
<text text-anchor="start" x="531.4365" y="-330.9" font-family="Helvetica,sans-Serif" font-size="11.00" fill="#000000">varchar[255]</text>
<polygon fill="none" stroke="#000000" points="226.5,-301.2 226.5,-323.2 528.5,-323.2 528.5,-301.2 226.5,-301.2"/>
<text text-anchor="start" x="246.5" y="-308.3" font-family="Helvetica,sans-Serif" font-size="11.00" fill="#000000">authorized</text>
<polygon fill="none" stroke="#000000" points="528.5,-301.2 528.5,-323.2 595.5,-323.2 595.5,-301.2 528.5,-301.2"/>
<text text-anchor="start" x="531.5" y="-308.9" font-family="Helvetica,sans-Serif" font-size="11.00" fill="#000000">tinyint[3]</text>
<polygon fill="none" stroke="#000000" points="226.5,-279.2 226.5,-301.2 528.5,-301.2 528.5,-279.2 226.5,-279.2"/>
<text text-anchor="start" x="246.5" y="-286.3" font-family="Helvetica,sans-Serif" font-size="11.00" fill="#000000">activity</text>
<polygon fill="none" stroke="#000000" points="528.5,-279.2 528.5,-301.2 595.5,-301.2 595.5,-279.2 528.5,-279.2"/>
<text text-anchor="start" x="531.5" y="-286.9" font-family="Helvetica,sans-Serif" font-size="11.00" fill="#000000">tinyint[3]</text>
<polygon fill="none" stroke="#000000" points="226.5,-257.2 226.5,-279.2 528.5,-279.2 528.5,-257.2 226.5,-257.2"/>
<text text-anchor="start" x="246.5" y="-264.3" font-family="Helvetica,sans-Serif" font-size="11.00" fill="#000000">client_name</text>
<polygon fill="none" stroke="#000000" points="528.5,-257.2 528.5,-279.2 595.5,-279.2 595.5,-257.2 528.5,-257.2"/>
<text text-anchor="start" x="531.4365" y="-264.9" font-family="Helvetica,sans-Serif" font-size="11.00" fill="#000000">varchar[255]</text>
<polygon fill="none" stroke="#000000" points="226.5,-235.2 226.5,-257.2 528.5,-257.2 528.5,-235.2 226.5,-235.2"/>
<text text-anchor="start" x="246.5" y="-242.3" font-family="Helvetica,sans-Serif" font-size="11.00" fill="#000000">admit_date</text>
<polygon fill="none" stroke="#000000" points="528.5,-235.2 528.5,-257.2 595.5,-257.2 595.5,-235.2 528.5,-235.2"/>
<text text-anchor="start" x="531.5" y="-242.9" font-family="Helvetica,sans-Serif" font-size="11.00" fill="#000000">date[10]</text>
<polygon fill="none" stroke="#000000" points="226.5,-213.2 226.5,-235.2 528.5,-235.2 528.5,-213.2 226.5,-213.2"/>
<text text-anchor="start" x="246.5" y="-220.3" font-family="Helvetica,sans-Serif" font-size="11.00" fill="#000000">discharged</text>
<polygon fill="none" stroke="#000000" points="528.5,-213.2 528.5,-235.2 595.5,-235.2 595.5,-213.2 528.5,-213.2"/>
<text text-anchor="start" x="531.5" y="-220.9" font-family="Helvetica,sans-Serif" font-size="11.00" fill="#000000">date[10]</text>
<polygon fill="none" stroke="#000000" points="226.5,-191.2 226.5,-213.2 528.5,-213.2 528.5,-191.2 226.5,-191.2"/>
<text text-anchor="start" x="246.5" y="-198.3" font-family="Helvetica,sans-Serif" font-size="11.00" fill="#000000">goal_a_acute_intoxication</text>
<polygon fill="none" stroke="#000000" points="528.5,-191.2 528.5,-213.2 595.5,-213.2 595.5,-191.2 528.5,-191.2"/>
<text text-anchor="start" x="531.5" y="-198.9" font-family="Helvetica,sans-Serif" font-size="11.00" fill="#000000">text[65535]</text>
<polygon fill="none" stroke="#000000" points="226.5,-169.2 226.5,-191.2 528.5,-191.2 528.5,-169.2 226.5,-169.2"/>
<text text-anchor="start" x="246.5" y="-176.3" font-family="Helvetica,sans-Serif" font-size="11.00" fill="#000000">goal_a_acute_intoxication_I</text>
<polygon fill="none" stroke="#000000" points="528.5,-169.2 528.5,-191.2 595.5,-191.2 595.5,-169.2 528.5,-169.2"/>
<text text-anchor="start" x="531.5" y="-176.9" font-family="Helvetica,sans-Serif" font-size="11.00" fill="#000000">text[65535]</text>
<polygon fill="none" stroke="#000000" points="226.5,-147.2 226.5,-169.2 528.5,-169.2 528.5,-147.2 226.5,-147.2"/>
<text text-anchor="start" x="246.5" y="-154.3" font-family="Helvetica,sans-Serif" font-size="11.00" fill="#000000">goal_a_acute_intoxication_II</text>
<polygon fill="none" stroke="#000000" points="528.5,-147.2 528.5,-169.2 595.5,-169.2 595.5,-147.2 528.5,-147.2"/>
<text text-anchor="start" x="531.5" y="-154.9" font-family="Helvetica,sans-Serif" font-size="11.00" fill="#000000">text[65535]</text>
<polygon fill="none" stroke="#000000" points="226.5,-125.2 226.5,-147.2 528.5,-147.2 528.5,-125.2 226.5,-125.2"/>
<text text-anchor="start" x="246.5" y="-132.3" font-family="Helvetica,sans-Serif" font-size="11.00" fill="#000000">goal_b_emotional_behavioral_conditions</text>
<polygon fill="none" stroke="#000000" points="528.5,-125.2 528.5,-147.2 595.5,-147.2 595.5,-125.2 528.5,-125.2"/>
<text text-anchor="start" x="531.5" y="-132.9" font-family="Helvetica,sans-Serif" font-size="11.00" fill="#000000">text[65535]</text>
<polygon fill="none" stroke="#000000" points="226.5,-103.2 226.5,-125.2 528.5,-125.2 528.5,-103.2 226.5,-103.2"/>
<text text-anchor="start" x="246.5" y="-110.3" font-family="Helvetica,sans-Serif" font-size="11.00" fill="#000000">goal_b_emotional_behavioral_conditions_I</text>
<polygon fill="none" stroke="#000000" points="528.5,-103.2 528.5,-125.2 595.5,-125.2 595.5,-103.2 528.5,-103.2"/>
<text text-anchor="start" x="531.5" y="-110.9" font-family="Helvetica,sans-Serif" font-size="11.00" fill="#000000">text[65535]</text>
<polygon fill="none" stroke="#000000" points="226.5,-81.2 226.5,-103.2 528.5,-103.2 528.5,-81.2 226.5,-81.2"/>
<text text-anchor="start" x="246.5" y="-88.3" font-family="Helvetica,sans-Serif" font-size="11.00" fill="#000000">goal_c_relapse_potential</text>
<polygon fill="none" stroke="#000000" points="528.5,-81.2 528.5,-103.2 595.5,-103.2 595.5,-81.2 528.5,-81.2"/>
<text text-anchor="start" x="531.5" y="-88.9" font-family="Helvetica,sans-Serif" font-size="11.00" fill="#000000">text[65535]</text>
<polygon fill="none" stroke="#000000" points="226.5,-59.2 226.5,-81.2 528.5,-81.2 528.5,-59.2 226.5,-59.2"/>
<text text-anchor="start" x="246.5" y="-66.3" font-family="Helvetica,sans-Serif" font-size="11.00" fill="#000000">goal_c_relapse_potential_I</text>
<polygon fill="none" stroke="#000000" points="528.5,-59.2 528.5,-81.2 595.5,-81.2 595.5,-59.2 528.5,-59.2"/>
<text text-anchor="start" x="531.5" y="-66.9" font-family="Helvetica,sans-Serif" font-size="11.00" fill="#000000">text[65535]</text>
<polygon fill="#ffffff" stroke="transparent" points="226.5,-40.2 226.5,-59.2 381.5,-59.2 381.5,-40.2 226.5,-40.2"/>
<polygon fill="none" stroke="#000000" points="226.5,-40.2 226.5,-59.2 381.5,-59.2 381.5,-40.2 226.5,-40.2"/>
<text text-anchor="start" x="229.5" y="-46.3" font-family="Helvetica,sans-Serif" font-size="11.00" fill="#000000">&lt; 1</text>
<polygon fill="#ffffff" stroke="transparent" points="381.5,-40.2 381.5,-59.2 528.5,-59.2 528.5,-40.2 381.5,-40.2"/>
<polygon fill="none" stroke="#000000" points="381.5,-40.2 381.5,-59.2 528.5,-59.2 528.5,-40.2 381.5,-40.2"/>
<text text-anchor="start" x="519.3862" y="-46.3" font-family="Helvetica,sans-Serif" font-size="11.00" fill="#000000"> &#160;</text>
<polygon fill="#ffffff" stroke="transparent" points="528.5,-40.2 528.5,-59.2 595.5,-59.2 595.5,-40.2 528.5,-40.2"/>
<polygon fill="none" stroke="#000000" points="528.5,-40.2 528.5,-59.2 595.5,-59.2 595.5,-40.2 528.5,-40.2"/>
<text text-anchor="start" x="576.9053" y="-46.3" font-family="Helvetica,sans-Serif" font-size="11.00" fill="#000000">0 &gt;</text>
<polygon fill="none" stroke="#000000" stroke-width="2" points="225,-39.2 225,-479.2 596,-479.2 596,-39.2 225,-39.2"/>
</a>
</g>
</g>
<!-- patient_data -->
<g id="node2" class="node">
<title>patient_data</title>
<g id="a_node2"><a xlink:href="../../tables/patient_data.html" xlink:title="patient_data" target="_top">
<polygon fill="#ffffff" stroke="transparent" points="8,-307.7 8,-544.7 175,-544.7 175,-307.7 8,-307.7"/>
<polygon fill="#f5f5f5" stroke="transparent" points="8.5,-521.2 8.5,-544.2 175.5,-544.2 175.5,-521.2 8.5,-521.2"/>
<polygon fill="none" stroke="#000000" points="8.5,-521.2 8.5,-544.2 175.5,-544.2 175.5,-521.2 8.5,-521.2"/>
<text text-anchor="start" x="13.5" y="-529.8" font-family="Helvetica,sans-Serif" font-weight="bold" font-size="11.00" fill="#000000">patient_data</text>
<text text-anchor="start" x="140.5437" y="-529.3" font-family="Helvetica,sans-Serif" font-size="11.00" fill="#000000">[table]</text>
<polygon fill="#ffffff" stroke="transparent" points="8.5,-499.2 8.5,-521.2 175.5,-521.2 175.5,-499.2 8.5,-499.2"/>
<polygon fill="none" stroke="#000000" points="8.5,-499.2 8.5,-521.2 175.5,-521.2 175.5,-499.2 8.5,-499.2"/>
<text text-anchor="start" x="28.5" y="-506.3" font-family="Helvetica,sans-Serif" font-size="11.00" fill="#000000">id</text>
<polygon fill="#ffffff" stroke="transparent" points="8.5,-477.2 8.5,-499.2 175.5,-499.2 175.5,-477.2 8.5,-477.2"/>
<polygon fill="none" stroke="#000000" points="8.5,-477.2 8.5,-499.2 175.5,-499.2 175.5,-477.2 8.5,-477.2"/>
<text text-anchor="start" x="28.5" y="-484.3" font-family="Helvetica,sans-Serif" font-size="11.00" fill="#000000">uuid</text>
<polygon fill="none" stroke="#000000" points="8.5,-455.2 8.5,-477.2 175.5,-477.2 175.5,-455.2 8.5,-455.2"/>
<image xlink:href="../../images/foreignKeys.png" width="11px" height="12px" preserveAspectRatio="xMinYMin meet" x="13.5" y="-472.2"/>
<text text-anchor="start" x="28.5" y="-462.3" font-family="Helvetica,sans-Serif" font-size="11.00" fill="#000000">pharmacy_id</text>
<polygon fill="none" stroke="#000000" points="8.5,-433.2 8.5,-455.2 175.5,-455.2 175.5,-433.2 8.5,-433.2"/>
<image xlink:href="../../images/foreignKeys.png" width="11px" height="12px" preserveAspectRatio="xMinYMin meet" x="13.5" y="-450.2"/>
<text text-anchor="start" x="28.5" y="-440.3" font-family="Helvetica,sans-Serif" font-size="11.00" fill="#000000">providerID</text>
<polygon fill="none" stroke="#000000" points="8.5,-411.2 8.5,-433.2 175.5,-433.2 175.5,-411.2 8.5,-411.2"/>
<image xlink:href="../../images/foreignKeys.png" width="11px" height="12px" preserveAspectRatio="xMinYMin meet" x="13.5" y="-428.2"/>
<text text-anchor="start" x="28.5" y="-418.3" font-family="Helvetica,sans-Serif" font-size="11.00" fill="#000000">ref_providerID</text>
<polygon fill="none" stroke="#000000" points="8.5,-389.2 8.5,-411.2 175.5,-411.2 175.5,-389.2 8.5,-389.2"/>
<image xlink:href="../../images/primaryKeys.png" width="11px" height="12px" preserveAspectRatio="xMinYMin meet" x="13.5" y="-406.2"/>
<text text-anchor="start" x="28.5" y="-396.3" font-family="Helvetica,sans-Serif" font-size="11.00" fill="#000000">pid</text>
<polygon fill="none" stroke="#000000" points="8.5,-367.2 8.5,-389.2 175.5,-389.2 175.5,-367.2 8.5,-367.2"/>
<image xlink:href="../../images/foreignKeys.png" width="11px" height="12px" preserveAspectRatio="xMinYMin meet" x="13.5" y="-384.2"/>
<text text-anchor="start" x="28.5" y="-374.3" font-family="Helvetica,sans-Serif" font-size="11.00" fill="#000000">created_by</text>
<polygon fill="none" stroke="#000000" points="8.5,-345.2 8.5,-367.2 175.5,-367.2 175.5,-345.2 8.5,-345.2"/>
<image xlink:href="../../images/foreignKeys.png" width="11px" height="12px" preserveAspectRatio="xMinYMin meet" x="13.5" y="-362.2"/>
<text text-anchor="start" x="28.5" y="-352.3" font-family="Helvetica,sans-Serif" font-size="11.00" fill="#000000">updated_by</text>
<polygon fill="none" stroke="#000000" points="8.5,-326.2 8.5,-345.2 175.5,-345.2 175.5,-326.2 8.5,-326.2"/>
<text text-anchor="start" x="11.5" y="-332.3" font-family="Helvetica,sans-Serif" font-size="11.00" fill="#000000">...</text>
<polygon fill="#ffffff" stroke="transparent" points="8.5,-307.2 8.5,-326.2 82.5,-326.2 82.5,-307.2 8.5,-307.2"/>
<polygon fill="none" stroke="#000000" points="8.5,-307.2 8.5,-326.2 82.5,-326.2 82.5,-307.2 8.5,-307.2"/>
<text text-anchor="start" x="11.5" y="-313.3" font-family="Helvetica,sans-Serif" font-size="11.00" fill="#000000">&lt; 5</text>
<polygon fill="#ffffff" stroke="transparent" points="82.5,-307.2 82.5,-326.2 121.5,-326.2 121.5,-307.2 82.5,-307.2"/>
<polygon fill="none" stroke="#000000" points="82.5,-307.2 82.5,-326.2 121.5,-326.2 121.5,-307.2 82.5,-307.2"/>
<text text-anchor="start" x="112.3862" y="-313.3" font-family="Helvetica,sans-Serif" font-size="11.00" fill="#000000"> &#160;</text>
<polygon fill="#ffffff" stroke="transparent" points="121.5,-307.2 121.5,-326.2 175.5,-326.2 175.5,-307.2 121.5,-307.2"/>
<polygon fill="none" stroke="#000000" points="121.5,-307.2 121.5,-326.2 175.5,-326.2 175.5,-307.2 121.5,-307.2"/>
<text text-anchor="start" x="150.7904" y="-313.3" font-family="Helvetica,sans-Serif" font-size="11.00" fill="#000000">80 &gt;</text>
</a>
</g>
</g>
<!-- form_aftercare_plan&#45;&gt;patient_data -->
<g id="edge1" class="edge">
<title>form_aftercare_plan:w&#45;&gt;patient_data:e</title>
<path fill="none" stroke="#000000" d="M211.776,-400.2C199.7815,-400.2 192.3229,-400.2 175.5,-400.2"/>
<polygon fill="#000000" stroke="#000000" points="218.5,-400.2001 226.5,-403.8 222.5,-400.2 226.5,-400.2 226.5,-400.2 226.5,-400.2 222.5,-400.2 226.5,-396.6 218.5,-400.2001 218.5,-400.2001"/>
<ellipse fill="none" stroke="#000000" cx="215.3" cy="-400.2001" rx="3.2" ry="3.2"/>
</g>
</g>
</svg>
