<?xml version="1.0" encoding="UTF-8" standalone="no"?>
<!DOCTYPE svg PUBLIC "-//W3C//DTD SVG 1.1//EN"
 "http://www.w3.org/Graphics/SVG/1.1/DTD/svg11.dtd">
<!-- Generated by graphviz version 2.40.1 (20161225.0304)
 -->
<!-- Title: oneDegreeRelationshipsDiagram Pages: 1 -->
<svg width="658pt" height="523pt"
 viewBox="0.00 0.00 658.00 523.20" xmlns="http://www.w3.org/2000/svg" xmlns:xlink="http://www.w3.org/1999/xlink">
<g id="graph0" class="graph" transform="scale(1 1) rotate(0) translate(4 519.2)">
<title>oneDegreeRelationshipsDiagram</title>
<polygon fill="#ffffff" stroke="transparent" points="-4,4 -4,-519.2 654,-519.2 654,4 -4,4"/>
<text text-anchor="middle" x="72.4936" y="-7.3" font-family="Helvetica,sans-Serif" font-size="11.00" fill="#000000">Generated by SchemaSpy</text>
<!-- form_CAMOS -->
<g id="node1" class="node">
<title>form_CAMOS</title>
<g id="a_node1"><a xlink:href="../../tables/form_CAMOS.html" xlink:title="form_CAMOS" target="_top">
<polygon fill="#ffffff" stroke="transparent" points="464,-128.7 464,-416.7 642,-416.7 642,-128.7 464,-128.7"/>
<polygon fill="#f5f5f5" stroke="transparent" points="466,-391.7 466,-414.7 640,-414.7 640,-391.7 466,-391.7"/>
<polygon fill="none" stroke="#000000" points="466,-391.7 466,-414.7 640,-414.7 640,-391.7 466,-391.7"/>
<text text-anchor="start" x="471" y="-400.3" font-family="Helvetica,sans-Serif" font-weight="bold" font-size="11.00" fill="#000000">form_CAMOS</text>
<text text-anchor="start" x="605.0437" y="-399.8" font-family="Helvetica,sans-Serif" font-size="11.00" fill="#000000">[table]</text>
<polygon fill="none" stroke="#000000" points="466,-369.7 466,-391.7 573,-391.7 573,-369.7 466,-369.7"/>
<image xlink:href="../../images/primaryKeys.png" width="11px" height="12px" preserveAspectRatio="xMinYMin meet" x="471" y="-386.7"/>
<text text-anchor="start" x="486" y="-376.8" font-family="Helvetica,sans-Serif" font-size="11.00" fill="#000000">id</text>
<polygon fill="none" stroke="#000000" points="573,-369.7 573,-391.7 640,-391.7 640,-369.7 573,-369.7"/>
<text text-anchor="start" x="576" y="-377.4" font-family="Helvetica,sans-Serif" font-size="11.00" fill="#000000">bigint[19]</text>
<polygon fill="none" stroke="#000000" points="466,-347.7 466,-369.7 573,-369.7 573,-347.7 466,-347.7"/>
<text text-anchor="start" x="486" y="-354.8" font-family="Helvetica,sans-Serif" font-size="11.00" fill="#000000">date</text>
<polygon fill="none" stroke="#000000" points="573,-347.7 573,-369.7 640,-369.7 640,-347.7 573,-347.7"/>
<text text-anchor="start" x="576" y="-355.4" font-family="Helvetica,sans-Serif" font-size="11.00" fill="#000000">datetime[19]</text>
<polygon fill="none" stroke="#000000" points="466,-325.7 466,-347.7 573,-347.7 573,-325.7 466,-325.7"/>
<image xlink:href="../../images/foreignKeys.png" width="11px" height="12px" preserveAspectRatio="xMinYMin meet" x="471" y="-342.7"/>
<text text-anchor="start" x="486" y="-332.8" font-family="Helvetica,sans-Serif" font-size="11.00" fill="#000000">pid</text>
<polygon fill="none" stroke="#000000" points="573,-325.7 573,-347.7 640,-347.7 640,-325.7 573,-325.7"/>
<text text-anchor="start" x="576" y="-333.4" font-family="Helvetica,sans-Serif" font-size="11.00" fill="#000000">bigint[19]</text>
<polygon fill="none" stroke="#000000" points="466,-303.7 466,-325.7 573,-325.7 573,-303.7 466,-303.7"/>
<text text-anchor="start" x="486" y="-310.8" font-family="Helvetica,sans-Serif" font-size="11.00" fill="#000000">user</text>
<polygon fill="none" stroke="#000000" points="573,-303.7 573,-325.7 640,-325.7 640,-303.7 573,-303.7"/>
<text text-anchor="start" x="575.9365" y="-311.4" font-family="Helvetica,sans-Serif" font-size="11.00" fill="#000000">varchar[255]</text>
<polygon fill="none" stroke="#000000" points="466,-281.7 466,-303.7 573,-303.7 573,-281.7 466,-281.7"/>
<text text-anchor="start" x="486" y="-288.8" font-family="Helvetica,sans-Serif" font-size="11.00" fill="#000000">groupname</text>
<polygon fill="none" stroke="#000000" points="573,-281.7 573,-303.7 640,-303.7 640,-281.7 573,-281.7"/>
<text text-anchor="start" x="575.9365" y="-289.4" font-family="Helvetica,sans-Serif" font-size="11.00" fill="#000000">varchar[255]</text>
<polygon fill="none" stroke="#000000" points="466,-259.7 466,-281.7 573,-281.7 573,-259.7 466,-259.7"/>
<text text-anchor="start" x="486" y="-266.8" font-family="Helvetica,sans-Serif" font-size="11.00" fill="#000000">authorized</text>
<polygon fill="none" stroke="#000000" points="573,-259.7 573,-281.7 640,-281.7 640,-259.7 573,-259.7"/>
<text text-anchor="start" x="576" y="-267.4" font-family="Helvetica,sans-Serif" font-size="11.00" fill="#000000">tinyint[3]</text>
<polygon fill="none" stroke="#000000" points="466,-237.7 466,-259.7 573,-259.7 573,-237.7 466,-237.7"/>
<text text-anchor="start" x="486" y="-244.8" font-family="Helvetica,sans-Serif" font-size="11.00" fill="#000000">activity</text>
<polygon fill="none" stroke="#000000" points="573,-237.7 573,-259.7 640,-259.7 640,-237.7 573,-237.7"/>
<text text-anchor="start" x="576" y="-245.4" font-family="Helvetica,sans-Serif" font-size="11.00" fill="#000000">tinyint[3]</text>
<polygon fill="none" stroke="#000000" points="466,-215.7 466,-237.7 573,-237.7 573,-215.7 466,-215.7"/>
<image xlink:href="../../images/foreignKeys.png" width="11px" height="12px" preserveAspectRatio="xMinYMin meet" x="471" y="-232.7"/>
<text text-anchor="start" x="486" y="-222.8" font-family="Helvetica,sans-Serif" font-size="11.00" fill="#000000">category</text>
<polygon fill="none" stroke="#000000" points="573,-215.7 573,-237.7 640,-237.7 640,-215.7 573,-215.7"/>
<text text-anchor="start" x="576" y="-223.4" font-family="Helvetica,sans-Serif" font-size="11.00" fill="#000000">text[65535]</text>
<polygon fill="none" stroke="#000000" points="466,-193.7 466,-215.7 573,-215.7 573,-193.7 466,-193.7"/>
<image xlink:href="../../images/foreignKeys.png" width="11px" height="12px" preserveAspectRatio="xMinYMin meet" x="471" y="-210.7"/>
<text text-anchor="start" x="486" y="-200.8" font-family="Helvetica,sans-Serif" font-size="11.00" fill="#000000">subcategory</text>
<polygon fill="none" stroke="#000000" points="573,-193.7 573,-215.7 640,-215.7 640,-193.7 573,-193.7"/>
<text text-anchor="start" x="576" y="-201.4" font-family="Helvetica,sans-Serif" font-size="11.00" fill="#000000">text[65535]</text>
<polygon fill="none" stroke="#000000" points="466,-171.7 466,-193.7 573,-193.7 573,-171.7 466,-171.7"/>
<image xlink:href="../../images/foreignKeys.png" width="11px" height="12px" preserveAspectRatio="xMinYMin meet" x="471" y="-188.7"/>
<text text-anchor="start" x="486" y="-178.8" font-family="Helvetica,sans-Serif" font-size="11.00" fill="#000000">item</text>
<polygon fill="none" stroke="#000000" points="573,-171.7 573,-193.7 640,-193.7 640,-171.7 573,-171.7"/>
<text text-anchor="start" x="576" y="-179.4" font-family="Helvetica,sans-Serif" font-size="11.00" fill="#000000">text[65535]</text>
<polygon fill="none" stroke="#000000" points="466,-149.7 466,-171.7 573,-171.7 573,-149.7 466,-149.7"/>
<text text-anchor="start" x="486" y="-156.8" font-family="Helvetica,sans-Serif" font-size="11.00" fill="#000000">content</text>
<polygon fill="none" stroke="#000000" points="573,-149.7 573,-171.7 640,-171.7 640,-149.7 573,-149.7"/>
<text text-anchor="start" x="576" y="-157.4" font-family="Helvetica,sans-Serif" font-size="11.00" fill="#000000">text[65535]</text>
<polygon fill="#ffffff" stroke="transparent" points="466,-130.7 466,-149.7 524,-149.7 524,-130.7 466,-130.7"/>
<polygon fill="none" stroke="#000000" points="466,-130.7 466,-149.7 524,-149.7 524,-130.7 466,-130.7"/>
<text text-anchor="start" x="469" y="-136.8" font-family="Helvetica,sans-Serif" font-size="11.00" fill="#000000">&lt; 4</text>
<polygon fill="#ffffff" stroke="transparent" points="524,-130.7 524,-149.7 573,-149.7 573,-130.7 524,-130.7"/>
<polygon fill="none" stroke="#000000" points="524,-130.7 524,-149.7 573,-149.7 573,-130.7 524,-130.7"/>
<text text-anchor="start" x="563.8862" y="-136.8" font-family="Helvetica,sans-Serif" font-size="11.00" fill="#000000"> &#160;</text>
<polygon fill="#ffffff" stroke="transparent" points="573,-130.7 573,-149.7 640,-149.7 640,-130.7 573,-130.7"/>
<polygon fill="none" stroke="#000000" points="573,-130.7 573,-149.7 640,-149.7 640,-130.7 573,-130.7"/>
<text text-anchor="start" x="621.4053" y="-136.8" font-family="Helvetica,sans-Serif" font-size="11.00" fill="#000000">0 &gt;</text>
<polygon fill="none" stroke="#000000" stroke-width="2" points="465,-129.7 465,-415.7 641,-415.7 641,-129.7 465,-129.7"/>
</a>
</g>
</g>
<!-- form_CAMOS_category -->
<g id="node2" class="node">
<title>form_CAMOS_category</title>
<g id="a_node2"><a xlink:href="../../tables/form_CAMOS_category.html" xlink:title="form_CAMOS_category" target="_top">
<polygon fill="#ffffff" stroke="transparent" points="224,-252.2 224,-423.2 415,-423.2 415,-252.2 224,-252.2"/>
<polygon fill="#f5f5f5" stroke="transparent" points="224.5,-399.7 224.5,-422.7 415.5,-422.7 415.5,-399.7 224.5,-399.7"/>
<polygon fill="none" stroke="#000000" points="224.5,-399.7 224.5,-422.7 415.5,-422.7 415.5,-399.7 224.5,-399.7"/>
<text text-anchor="start" x="229.5" y="-408.3" font-family="Helvetica,sans-Serif" font-weight="bold" font-size="11.00" fill="#000000">form_CAMOS_category</text>
<text text-anchor="start" x="381.0219" y="-407.8" font-family="Helvetica,sans-Serif" font-size="11.00" fill="#000000">[table]</text>
<polygon fill="none" stroke="#000000" points="224.5,-377.7 224.5,-399.7 415.5,-399.7 415.5,-377.7 224.5,-377.7"/>
<image xlink:href="../../images/primaryKeys.png" width="11px" height="12px" preserveAspectRatio="xMinYMin meet" x="229.5" y="-394.7"/>
<text text-anchor="start" x="253.5" y="-384.8" font-family="Helvetica,sans-Serif" font-size="11.00" fill="#000000">id</text>
<polygon fill="none" stroke="#000000" points="224.5,-355.7 224.5,-377.7 415.5,-377.7 415.5,-355.7 224.5,-355.7"/>
<image xlink:href="../../images/foreignKeys.png" width="11px" height="12px" preserveAspectRatio="xMinYMin meet" x="229.5" y="-372.7"/>
<text text-anchor="start" x="253.5" y="-362.8" font-family="Helvetica,sans-Serif" font-size="11.00" fill="#000000">pid</text>
<polygon fill="none" stroke="#000000" points="224.5,-333.7 224.5,-355.7 415.5,-355.7 415.5,-333.7 224.5,-333.7"/>
<image xlink:href="../../images/foreignKeys.png" width="11px" height="12px" preserveAspectRatio="xMinYMin meet" x="229.5" y="-350.7"/>
<text text-anchor="start" x="253.5" y="-340.8" font-family="Helvetica,sans-Serif" font-size="11.00" fill="#000000">user</text>
<polygon fill="none" stroke="#000000" points="224.5,-311.7 224.5,-333.7 415.5,-333.7 415.5,-311.7 224.5,-311.7"/>
<image xlink:href="../../images/foreignKeys.png" width="11px" height="12px" preserveAspectRatio="xMinYMin meet" x="229.5" y="-328.7"/>
<text text-anchor="start" x="253.5" y="-318.8" font-family="Helvetica,sans-Serif" font-size="11.00" fill="#000000">groupname</text>
<polygon fill="none" stroke="#000000" points="224.5,-289.7 224.5,-311.7 415.5,-311.7 415.5,-289.7 224.5,-289.7"/>
<image xlink:href="../../images/primaryKeys.png" width="11px" height="12px" preserveAspectRatio="xMinYMin meet" x="229.5" y="-306.7"/>
<text text-anchor="start" x="253.5" y="-296.8" font-family="Helvetica,sans-Serif" font-size="11.00" fill="#000000">category</text>
<polygon fill="none" stroke="#000000" points="224.5,-270.7 224.5,-289.7 415.5,-289.7 415.5,-270.7 224.5,-270.7"/>
<text text-anchor="start" x="227.5" y="-276.8" font-family="Helvetica,sans-Serif" font-size="11.00" fill="#000000">...</text>
<polygon fill="#ffffff" stroke="transparent" points="224.5,-251.7 224.5,-270.7 313.5,-270.7 313.5,-251.7 224.5,-251.7"/>
<polygon fill="none" stroke="#000000" points="224.5,-251.7 224.5,-270.7 313.5,-270.7 313.5,-251.7 224.5,-251.7"/>
<text text-anchor="start" x="227.5" y="-257.8" font-family="Helvetica,sans-Serif" font-size="11.00" fill="#000000">&lt; 3</text>
<polygon fill="#ffffff" stroke="transparent" points="313.5,-251.7 313.5,-270.7 359.5,-270.7 359.5,-251.7 313.5,-251.7"/>
<polygon fill="none" stroke="#000000" points="313.5,-251.7 313.5,-270.7 359.5,-270.7 359.5,-251.7 313.5,-251.7"/>
<text text-anchor="start" x="350.3862" y="-257.8" font-family="Helvetica,sans-Serif" font-size="11.00" fill="#000000"> &#160;</text>
<polygon fill="#ffffff" stroke="transparent" points="359.5,-251.7 359.5,-270.7 415.5,-270.7 415.5,-251.7 359.5,-251.7"/>
<polygon fill="none" stroke="#000000" points="359.5,-251.7 359.5,-270.7 415.5,-270.7 415.5,-251.7 359.5,-251.7"/>
<text text-anchor="start" x="396.9053" y="-257.8" font-family="Helvetica,sans-Serif" font-size="11.00" fill="#000000">2 &gt;</text>
</a>
</g>
</g>
<!-- form_CAMOS&#45;&gt;form_CAMOS_category -->
<g id="edge1" class="edge">
<title>form_CAMOS:w&#45;&gt;form_CAMOS_category:e</title>
<path fill="none" stroke="#000000" d="M452.1154,-231.329C433.4593,-247.5294 449.2515,-300.7 415.5,-300.7"/>
<polygon fill="#000000" stroke="#000000" points="458.4107,-229.2303 467.1386,-230.1152 462.2053,-227.9651 466,-226.7 466,-226.7 466,-226.7 462.2053,-227.9651 464.8614,-223.2848 458.4107,-229.2303 458.4107,-229.2303"/>
<ellipse fill="none" stroke="#000000" cx="455.3749" cy="-230.2424" rx="3.2" ry="3.2"/>
</g>
<!-- form_CAMOS_item -->
<g id="node3" class="node">
<title>form_CAMOS_item</title>
<g id="a_node3"><a xlink:href="../../tables/form_CAMOS_item.html" xlink:title="form_CAMOS_item" target="_top">
<polygon fill="#ffffff" stroke="transparent" points="238.5,-38.2 238.5,-231.2 400.5,-231.2 400.5,-38.2 238.5,-38.2"/>
<polygon fill="#f5f5f5" stroke="transparent" points="238.5,-207.7 238.5,-230.7 400.5,-230.7 400.5,-207.7 238.5,-207.7"/>
<polygon fill="none" stroke="#000000" points="238.5,-207.7 238.5,-230.7 400.5,-230.7 400.5,-207.7 238.5,-207.7"/>
<text text-anchor="start" x="243.5" y="-216.3" font-family="Helvetica,sans-Serif" font-weight="bold" font-size="11.00" fill="#000000">form_CAMOS_item</text>
<text text-anchor="start" x="366.0219" y="-215.8" font-family="Helvetica,sans-Serif" font-size="11.00" fill="#000000">[table]</text>
<polygon fill="none" stroke="#000000" points="238.5,-185.7 238.5,-207.7 400.5,-207.7 400.5,-185.7 238.5,-185.7"/>
<image xlink:href="../../images/primaryKeys.png" width="11px" height="12px" preserveAspectRatio="xMinYMin meet" x="243.5" y="-202.7"/>
<text text-anchor="start" x="267.5" y="-192.8" font-family="Helvetica,sans-Serif" font-size="11.00" fill="#000000">id</text>
<polygon fill="none" stroke="#000000" points="238.5,-163.7 238.5,-185.7 400.5,-185.7 400.5,-163.7 238.5,-163.7"/>
<image xlink:href="../../images/foreignKeys.png" width="11px" height="12px" preserveAspectRatio="xMinYMin meet" x="243.5" y="-180.7"/>
<text text-anchor="start" x="267.5" y="-170.8" font-family="Helvetica,sans-Serif" font-size="11.00" fill="#000000">pid</text>
<polygon fill="none" stroke="#000000" points="238.5,-141.7 238.5,-163.7 400.5,-163.7 400.5,-141.7 238.5,-141.7"/>
<image xlink:href="../../images/foreignKeys.png" width="11px" height="12px" preserveAspectRatio="xMinYMin meet" x="243.5" y="-158.7"/>
<text text-anchor="start" x="267.5" y="-148.8" font-family="Helvetica,sans-Serif" font-size="11.00" fill="#000000">user</text>
<polygon fill="none" stroke="#000000" points="238.5,-119.7 238.5,-141.7 400.5,-141.7 400.5,-119.7 238.5,-119.7"/>
<image xlink:href="../../images/foreignKeys.png" width="11px" height="12px" preserveAspectRatio="xMinYMin meet" x="243.5" y="-136.7"/>
<text text-anchor="start" x="267.5" y="-126.8" font-family="Helvetica,sans-Serif" font-size="11.00" fill="#000000">groupname</text>
<polygon fill="none" stroke="#000000" points="238.5,-97.7 238.5,-119.7 400.5,-119.7 400.5,-97.7 238.5,-97.7"/>
<image xlink:href="../../images/primaryKeys.png" width="11px" height="12px" preserveAspectRatio="xMinYMin meet" x="243.5" y="-114.7"/>
<text text-anchor="start" x="267.5" y="-104.8" font-family="Helvetica,sans-Serif" font-size="11.00" fill="#000000">item</text>
<polygon fill="none" stroke="#000000" points="238.5,-75.7 238.5,-97.7 400.5,-97.7 400.5,-75.7 238.5,-75.7"/>
<image xlink:href="../../images/foreignKeys.png" width="11px" height="12px" preserveAspectRatio="xMinYMin meet" x="243.5" y="-92.7"/>
<text text-anchor="start" x="267.5" y="-82.8" font-family="Helvetica,sans-Serif" font-size="11.00" fill="#000000">subcategory_id</text>
<polygon fill="none" stroke="#000000" points="238.5,-56.7 238.5,-75.7 400.5,-75.7 400.5,-56.7 238.5,-56.7"/>
<text text-anchor="start" x="241.5" y="-62.8" font-family="Helvetica,sans-Serif" font-size="11.00" fill="#000000">...</text>
<polygon fill="#ffffff" stroke="transparent" points="238.5,-37.7 238.5,-56.7 313.5,-56.7 313.5,-37.7 238.5,-37.7"/>
<polygon fill="none" stroke="#000000" points="238.5,-37.7 238.5,-56.7 313.5,-56.7 313.5,-37.7 238.5,-37.7"/>
<text text-anchor="start" x="241.5" y="-43.8" font-family="Helvetica,sans-Serif" font-size="11.00" fill="#000000">&lt; 4</text>
<polygon fill="#ffffff" stroke="transparent" points="313.5,-37.7 313.5,-56.7 352.5,-56.7 352.5,-37.7 313.5,-37.7"/>
<polygon fill="none" stroke="#000000" points="313.5,-37.7 313.5,-56.7 352.5,-56.7 352.5,-37.7 313.5,-37.7"/>
<text text-anchor="start" x="343.3862" y="-43.8" font-family="Helvetica,sans-Serif" font-size="11.00" fill="#000000"> &#160;</text>
<polygon fill="#ffffff" stroke="transparent" points="352.5,-37.7 352.5,-56.7 400.5,-56.7 400.5,-37.7 352.5,-37.7"/>
<polygon fill="none" stroke="#000000" points="352.5,-37.7 352.5,-56.7 400.5,-56.7 400.5,-37.7 352.5,-37.7"/>
<text text-anchor="start" x="381.9053" y="-43.8" font-family="Helvetica,sans-Serif" font-size="11.00" fill="#000000">2 &gt;</text>
</a>
</g>
</g>
<!-- form_CAMOS&#45;&gt;form_CAMOS_item -->
<g id="edge2" class="edge">
<title>form_CAMOS:w&#45;&gt;form_CAMOS_item:e</title>
<path fill="none" stroke="#000000" d="M451.696,-179.1308C426.8443,-164.349 438.5885,-108.7 400.5,-108.7"/>
<polygon fill="#000000" stroke="#000000" points="458.238,-180.7632 465.1284,-186.1929 462.119,-181.7316 466,-182.7 466,-182.7 466,-182.7 462.119,-181.7316 466.8716,-179.2071 458.238,-180.7632 458.238,-180.7632"/>
<ellipse fill="none" stroke="#000000" cx="455.1332" cy="-179.9884" rx="3.2" ry="3.2"/>
</g>
<!-- form_CAMOS&#45;&gt;form_CAMOS_item -->
<g id="edge4" class="edge">
<title>form_CAMOS:w&#45;&gt;form_CAMOS_item:e</title>
<path fill="none" stroke="#000000" d="M451.6302,-201.2833C421.7652,-184.1819 446.3006,-108.7 400.5,-108.7"/>
<polygon fill="#000000" stroke="#000000" points="458.217,-202.8494 465.1672,-208.2024 462.1085,-203.7747 466,-204.7 466,-204.7 466,-204.7 462.1085,-203.7747 466.8328,-201.1976 458.217,-202.8494 458.217,-202.8494"/>
<ellipse fill="none" stroke="#000000" cx="455.1038" cy="-202.1092" rx="3.2" ry="3.2"/>
</g>
<!-- patient_data -->
<g id="node4" class="node">
<title>patient_data</title>
<g id="a_node4"><a xlink:href="../../tables/patient_data.html" xlink:title="patient_data" target="_top">
<polygon fill="#ffffff" stroke="transparent" points="8,-274.2 8,-511.2 175,-511.2 175,-274.2 8,-274.2"/>
<polygon fill="#f5f5f5" stroke="transparent" points="8.5,-487.7 8.5,-510.7 175.5,-510.7 175.5,-487.7 8.5,-487.7"/>
<polygon fill="none" stroke="#000000" points="8.5,-487.7 8.5,-510.7 175.5,-510.7 175.5,-487.7 8.5,-487.7"/>
<text text-anchor="start" x="13.5" y="-496.3" font-family="Helvetica,sans-Serif" font-weight="bold" font-size="11.00" fill="#000000">patient_data</text>
<text text-anchor="start" x="140.5437" y="-495.8" font-family="Helvetica,sans-Serif" font-size="11.00" fill="#000000">[table]</text>
<polygon fill="#ffffff" stroke="transparent" points="8.5,-465.7 8.5,-487.7 175.5,-487.7 175.5,-465.7 8.5,-465.7"/>
<polygon fill="none" stroke="#000000" points="8.5,-465.7 8.5,-487.7 175.5,-487.7 175.5,-465.7 8.5,-465.7"/>
<text text-anchor="start" x="28.5" y="-472.8" font-family="Helvetica,sans-Serif" font-size="11.00" fill="#000000">id</text>
<polygon fill="#ffffff" stroke="transparent" points="8.5,-443.7 8.5,-465.7 175.5,-465.7 175.5,-443.7 8.5,-443.7"/>
<polygon fill="none" stroke="#000000" points="8.5,-443.7 8.5,-465.7 175.5,-465.7 175.5,-443.7 8.5,-443.7"/>
<text text-anchor="start" x="28.5" y="-450.8" font-family="Helvetica,sans-Serif" font-size="11.00" fill="#000000">uuid</text>
<polygon fill="none" stroke="#000000" points="8.5,-421.7 8.5,-443.7 175.5,-443.7 175.5,-421.7 8.5,-421.7"/>
<image xlink:href="../../images/foreignKeys.png" width="11px" height="12px" preserveAspectRatio="xMinYMin meet" x="13.5" y="-438.7"/>
<text text-anchor="start" x="28.5" y="-428.8" font-family="Helvetica,sans-Serif" font-size="11.00" fill="#000000">pharmacy_id</text>
<polygon fill="none" stroke="#000000" points="8.5,-399.7 8.5,-421.7 175.5,-421.7 175.5,-399.7 8.5,-399.7"/>
<image xlink:href="../../images/foreignKeys.png" width="11px" height="12px" preserveAspectRatio="xMinYMin meet" x="13.5" y="-416.7"/>
<text text-anchor="start" x="28.5" y="-406.8" font-family="Helvetica,sans-Serif" font-size="11.00" fill="#000000">providerID</text>
<polygon fill="none" stroke="#000000" points="8.5,-377.7 8.5,-399.7 175.5,-399.7 175.5,-377.7 8.5,-377.7"/>
<image xlink:href="../../images/foreignKeys.png" width="11px" height="12px" preserveAspectRatio="xMinYMin meet" x="13.5" y="-394.7"/>
<text text-anchor="start" x="28.5" y="-384.8" font-family="Helvetica,sans-Serif" font-size="11.00" fill="#000000">ref_providerID</text>
<polygon fill="none" stroke="#000000" points="8.5,-355.7 8.5,-377.7 175.5,-377.7 175.5,-355.7 8.5,-355.7"/>
<image xlink:href="../../images/primaryKeys.png" width="11px" height="12px" preserveAspectRatio="xMinYMin meet" x="13.5" y="-372.7"/>
<text text-anchor="start" x="28.5" y="-362.8" font-family="Helvetica,sans-Serif" font-size="11.00" fill="#000000">pid</text>
<polygon fill="none" stroke="#000000" points="8.5,-333.7 8.5,-355.7 175.5,-355.7 175.5,-333.7 8.5,-333.7"/>
<image xlink:href="../../images/foreignKeys.png" width="11px" height="12px" preserveAspectRatio="xMinYMin meet" x="13.5" y="-350.7"/>
<text text-anchor="start" x="28.5" y="-340.8" font-family="Helvetica,sans-Serif" font-size="11.00" fill="#000000">created_by</text>
<polygon fill="none" stroke="#000000" points="8.5,-311.7 8.5,-333.7 175.5,-333.7 175.5,-311.7 8.5,-311.7"/>
<image xlink:href="../../images/foreignKeys.png" width="11px" height="12px" preserveAspectRatio="xMinYMin meet" x="13.5" y="-328.7"/>
<text text-anchor="start" x="28.5" y="-318.8" font-family="Helvetica,sans-Serif" font-size="11.00" fill="#000000">updated_by</text>
<polygon fill="none" stroke="#000000" points="8.5,-292.7 8.5,-311.7 175.5,-311.7 175.5,-292.7 8.5,-292.7"/>
<text text-anchor="start" x="11.5" y="-298.8" font-family="Helvetica,sans-Serif" font-size="11.00" fill="#000000">...</text>
<polygon fill="#ffffff" stroke="transparent" points="8.5,-273.7 8.5,-292.7 82.5,-292.7 82.5,-273.7 8.5,-273.7"/>
<polygon fill="none" stroke="#000000" points="8.5,-273.7 8.5,-292.7 82.5,-292.7 82.5,-273.7 8.5,-273.7"/>
<text text-anchor="start" x="11.5" y="-279.8" font-family="Helvetica,sans-Serif" font-size="11.00" fill="#000000">&lt; 5</text>
<polygon fill="#ffffff" stroke="transparent" points="82.5,-273.7 82.5,-292.7 121.5,-292.7 121.5,-273.7 82.5,-273.7"/>
<polygon fill="none" stroke="#000000" points="82.5,-273.7 82.5,-292.7 121.5,-292.7 121.5,-273.7 82.5,-273.7"/>
<text text-anchor="start" x="112.3862" y="-279.8" font-family="Helvetica,sans-Serif" font-size="11.00" fill="#000000"> &#160;</text>
<polygon fill="#ffffff" stroke="transparent" points="121.5,-273.7 121.5,-292.7 175.5,-292.7 175.5,-273.7 121.5,-273.7"/>
<polygon fill="none" stroke="#000000" points="121.5,-273.7 121.5,-292.7 175.5,-292.7 175.5,-273.7 121.5,-273.7"/>
<text text-anchor="start" x="150.7904" y="-279.8" font-family="Helvetica,sans-Serif" font-size="11.00" fill="#000000">85 &gt;</text>
</a>
</g>
</g>
<!-- form_CAMOS&#45;&gt;patient_data -->
<g id="edge3" class="edge">
<title>form_CAMOS:w&#45;&gt;patient_data:e</title>
<path fill="none" stroke="#000000" d="M451.9192,-340.0033C428.7228,-354.3208 457.4332,-411.2994 423,-433.7 345.8827,-483.8689 296.1328,-478.8967 216,-433.7 185.693,-416.6061 210.2953,-366.7 175.5,-366.7"/>
<polygon fill="#000000" stroke="#000000" points="458.2114,-338.5272 466.8222,-340.2048 462.1057,-337.6136 466,-336.7 466,-336.7 466,-336.7 462.1057,-337.6136 465.1778,-333.1952 458.2114,-338.5272 458.2114,-338.5272"/>
<ellipse fill="none" stroke="#000000" cx="455.096" cy="-339.2581" rx="3.2" ry="3.2"/>
</g>
<!-- form_CAMOS_category&#45;&gt;patient_data -->
<g id="edge5" class="edge">
<title>form_CAMOS_category:w&#45;&gt;patient_data:e</title>
<path fill="none" stroke="#000000" d="M209.9909,-366.7C198.6774,-366.7 191.4931,-366.7 175.5,-366.7"/>
<polygon fill="#000000" stroke="#000000" points="216.5,-366.7001 224.5,-370.3 220.5,-366.7 224.5,-366.7 224.5,-366.7 224.5,-366.7 220.5,-366.7 224.5,-363.1 216.5,-366.7001 216.5,-366.7001"/>
<ellipse fill="none" stroke="#000000" cx="213.3" cy="-366.7001" rx="3.2" ry="3.2"/>
</g>
<!-- form_CAMOS_item&#45;&gt;patient_data -->
<g id="edge6" class="edge">
<title>form_CAMOS_item:w&#45;&gt;patient_data:e</title>
<path fill="none" stroke="#000000" d="M223.979,-176.8563C162.4614,-197.95 259.6966,-366.7 175.5,-366.7"/>
<polygon fill="#000000" stroke="#000000" points="230.5868,-175.8751 239.0288,-178.261 234.5434,-175.2875 238.5,-174.7 238.5,-174.7 238.5,-174.7 234.5434,-175.2875 237.9712,-171.139 230.5868,-175.8751 230.5868,-175.8751"/>
<ellipse fill="none" stroke="#000000" cx="227.4215" cy="-176.3451" rx="3.2" ry="3.2"/>
</g>
</g>
</svg>
