<?xml version="1.0" encoding="UTF-8" standalone="no"?>
<!DOCTYPE svg PUBLIC "-//W3C//DTD SVG 1.1//EN"
 "http://www.w3.org/Graphics/SVG/1.1/DTD/svg11.dtd">
<!-- Generated by graphviz version 2.40.1 (20161225.0304)
 -->
<!-- Title: oneDegreeRelationshipsDiagram Pages: 1 -->
<svg width="646pt" height="407pt"
 viewBox="0.00 0.00 646.00 406.70" xmlns="http://www.w3.org/2000/svg" xmlns:xlink="http://www.w3.org/1999/xlink">
<g id="graph0" class="graph" transform="scale(1 1) rotate(0) translate(4 402.7)">
<title>oneDegreeRelationshipsDiagram</title>
<polygon fill="#ffffff" stroke="transparent" points="-4,4 -4,-402.7 642,-402.7 642,4 -4,4"/>
<text text-anchor="middle" x="72.4936" y="-7.3" font-family="Helvetica,sans-Serif" font-size="11.00" fill="#000000">Generated by SchemaSpy</text>
<!-- form_prior_auth -->
<g id="node1" class="node">
<title>form_prior_auth</title>
<g id="a_node1"><a xlink:href="../../tables/form_prior_auth.html" xlink:title="form_prior_auth" target="_top">
<polygon fill="#ffffff" stroke="transparent" points="411,-38.2 411,-260.2 630,-260.2 630,-38.2 411,-38.2"/>
<polygon fill="#f5f5f5" stroke="transparent" points="413.5,-235.2 413.5,-258.2 628.5,-258.2 628.5,-235.2 413.5,-235.2"/>
<polygon fill="none" stroke="#000000" points="413.5,-235.2 413.5,-258.2 628.5,-258.2 628.5,-235.2 413.5,-235.2"/>
<text text-anchor="start" x="418.5" y="-243.8" font-family="Helvetica,sans-Serif" font-weight="bold" font-size="11.00" fill="#000000">form_prior_auth</text>
<text text-anchor="start" x="593.5437" y="-243.3" font-family="Helvetica,sans-Serif" font-size="11.00" fill="#000000">[table]</text>
<polygon fill="none" stroke="#000000" points="413.5,-213.2 413.5,-235.2 561.5,-235.2 561.5,-213.2 413.5,-213.2"/>
<image xlink:href="../../images/primaryKeys.png" width="11px" height="12px" preserveAspectRatio="xMinYMin meet" x="418.5" y="-230.2"/>
<text text-anchor="start" x="433.5" y="-220.3" font-family="Helvetica,sans-Serif" font-size="11.00" fill="#000000">id</text>
<polygon fill="none" stroke="#000000" points="561.5,-213.2 561.5,-235.2 628.5,-235.2 628.5,-213.2 561.5,-213.2"/>
<text text-anchor="start" x="564.5" y="-220.9" font-family="Helvetica,sans-Serif" font-size="11.00" fill="#000000">int[10]</text>
<polygon fill="none" stroke="#000000" points="413.5,-191.2 413.5,-213.2 561.5,-213.2 561.5,-191.2 413.5,-191.2"/>
<image xlink:href="../../images/foreignKeys.png" width="11px" height="12px" preserveAspectRatio="xMinYMin meet" x="418.5" y="-208.2"/>
<text text-anchor="start" x="433.5" y="-198.3" font-family="Helvetica,sans-Serif" font-size="11.00" fill="#000000">pid</text>
<polygon fill="none" stroke="#000000" points="561.5,-191.2 561.5,-213.2 628.5,-213.2 628.5,-191.2 561.5,-191.2"/>
<text text-anchor="start" x="564.5" y="-198.9" font-family="Helvetica,sans-Serif" font-size="11.00" fill="#000000">int[10]</text>
<polygon fill="none" stroke="#000000" points="413.5,-169.2 413.5,-191.2 561.5,-191.2 561.5,-169.2 413.5,-169.2"/>
<text text-anchor="start" x="433.5" y="-176.3" font-family="Helvetica,sans-Serif" font-size="11.00" fill="#000000">activity</text>
<polygon fill="none" stroke="#000000" points="561.5,-169.2 561.5,-191.2 628.5,-191.2 628.5,-169.2 561.5,-169.2"/>
<text text-anchor="start" x="564.5" y="-176.9" font-family="Helvetica,sans-Serif" font-size="11.00" fill="#000000">tinyint[3]</text>
<polygon fill="none" stroke="#000000" points="413.5,-147.2 413.5,-169.2 561.5,-169.2 561.5,-147.2 413.5,-147.2"/>
<text text-anchor="start" x="433.5" y="-154.3" font-family="Helvetica,sans-Serif" font-size="11.00" fill="#000000">date</text>
<polygon fill="none" stroke="#000000" points="561.5,-147.2 561.5,-169.2 628.5,-169.2 628.5,-147.2 561.5,-147.2"/>
<text text-anchor="start" x="564.5" y="-154.9" font-family="Helvetica,sans-Serif" font-size="11.00" fill="#000000">datetime[19]</text>
<polygon fill="none" stroke="#000000" points="413.5,-125.2 413.5,-147.2 561.5,-147.2 561.5,-125.2 413.5,-125.2"/>
<text text-anchor="start" x="433.5" y="-132.3" font-family="Helvetica,sans-Serif" font-size="11.00" fill="#000000">prior_auth_number</text>
<polygon fill="none" stroke="#000000" points="561.5,-125.2 561.5,-147.2 628.5,-147.2 628.5,-125.2 561.5,-125.2"/>
<text text-anchor="start" x="564.5" y="-132.9" font-family="Helvetica,sans-Serif" font-size="11.00" fill="#000000">varchar[35]</text>
<polygon fill="none" stroke="#000000" points="413.5,-103.2 413.5,-125.2 561.5,-125.2 561.5,-103.2 413.5,-103.2"/>
<text text-anchor="start" x="433.5" y="-110.3" font-family="Helvetica,sans-Serif" font-size="11.00" fill="#000000">comments</text>
<polygon fill="none" stroke="#000000" points="561.5,-103.2 561.5,-125.2 628.5,-125.2 628.5,-103.2 561.5,-103.2"/>
<text text-anchor="start" x="564.4365" y="-110.9" font-family="Helvetica,sans-Serif" font-size="11.00" fill="#000000">varchar[255]</text>
<polygon fill="none" stroke="#000000" points="413.5,-81.2 413.5,-103.2 561.5,-103.2 561.5,-81.2 413.5,-81.2"/>
<text text-anchor="start" x="433.5" y="-88.3" font-family="Helvetica,sans-Serif" font-size="11.00" fill="#000000">date_from</text>
<polygon fill="none" stroke="#000000" points="561.5,-81.2 561.5,-103.2 628.5,-103.2 628.5,-81.2 561.5,-81.2"/>
<text text-anchor="start" x="564.5" y="-88.9" font-family="Helvetica,sans-Serif" font-size="11.00" fill="#000000">date[10]</text>
<polygon fill="none" stroke="#000000" points="413.5,-59.2 413.5,-81.2 561.5,-81.2 561.5,-59.2 413.5,-59.2"/>
<text text-anchor="start" x="433.5" y="-66.3" font-family="Helvetica,sans-Serif" font-size="11.00" fill="#000000">date_to</text>
<polygon fill="none" stroke="#000000" points="561.5,-59.2 561.5,-81.2 628.5,-81.2 628.5,-59.2 561.5,-59.2"/>
<text text-anchor="start" x="564.5" y="-66.9" font-family="Helvetica,sans-Serif" font-size="11.00" fill="#000000">date[10]</text>
<polygon fill="#ffffff" stroke="transparent" points="413.5,-40.2 413.5,-59.2 491.5,-59.2 491.5,-40.2 413.5,-40.2"/>
<polygon fill="none" stroke="#000000" points="413.5,-40.2 413.5,-59.2 491.5,-59.2 491.5,-40.2 413.5,-40.2"/>
<text text-anchor="start" x="416.5" y="-46.3" font-family="Helvetica,sans-Serif" font-size="11.00" fill="#000000">&lt; 2</text>
<polygon fill="#ffffff" stroke="transparent" points="491.5,-40.2 491.5,-59.2 561.5,-59.2 561.5,-40.2 491.5,-40.2"/>
<polygon fill="none" stroke="#000000" points="491.5,-40.2 491.5,-59.2 561.5,-59.2 561.5,-40.2 491.5,-40.2"/>
<text text-anchor="start" x="552.3862" y="-46.3" font-family="Helvetica,sans-Serif" font-size="11.00" fill="#000000"> &#160;</text>
<polygon fill="#ffffff" stroke="transparent" points="561.5,-40.2 561.5,-59.2 628.5,-59.2 628.5,-40.2 561.5,-40.2"/>
<polygon fill="none" stroke="#000000" points="561.5,-40.2 561.5,-59.2 628.5,-59.2 628.5,-40.2 561.5,-40.2"/>
<text text-anchor="start" x="609.9053" y="-46.3" font-family="Helvetica,sans-Serif" font-size="11.00" fill="#000000">0 &gt;</text>
<polygon fill="none" stroke="#000000" stroke-width="2" points="412,-39.2 412,-259.2 629,-259.2 629,-39.2 412,-39.2"/>
</a>
</g>
</g>
<!-- forms -->
<g id="node2" class="node">
<title>forms</title>
<g id="a_node2"><a xlink:href="../../tables/forms.html" xlink:title="forms" target="_top">
<polygon fill="#ffffff" stroke="transparent" points="224,-135.7 224,-394.7 362,-394.7 362,-135.7 224,-135.7"/>
<polygon fill="#f5f5f5" stroke="transparent" points="224,-371.2 224,-394.2 362,-394.2 362,-371.2 224,-371.2"/>
<polygon fill="none" stroke="#000000" points="224,-371.2 224,-394.2 362,-394.2 362,-371.2 224,-371.2"/>
<text text-anchor="start" x="229" y="-379.8" font-family="Helvetica,sans-Serif" font-weight="bold" font-size="11.00" fill="#000000">forms</text>
<text text-anchor="start" x="327.0437" y="-379.3" font-family="Helvetica,sans-Serif" font-size="11.00" fill="#000000">[table]</text>
<polygon fill="none" stroke="#000000" points="224,-349.2 224,-371.2 362,-371.2 362,-349.2 224,-349.2"/>
<image xlink:href="../../images/primaryKeys.png" width="11px" height="12px" preserveAspectRatio="xMinYMin meet" x="229" y="-366.2"/>
<text text-anchor="start" x="244" y="-356.3" font-family="Helvetica,sans-Serif" font-size="11.00" fill="#000000">id</text>
<polygon fill="#ffffff" stroke="transparent" points="224,-327.2 224,-349.2 362,-349.2 362,-327.2 224,-327.2"/>
<polygon fill="none" stroke="#000000" points="224,-327.2 224,-349.2 362,-349.2 362,-327.2 224,-327.2"/>
<text text-anchor="start" x="244" y="-334.3" font-family="Helvetica,sans-Serif" font-size="11.00" fill="#000000">encounter</text>
<polygon fill="none" stroke="#000000" points="224,-305.2 224,-327.2 362,-327.2 362,-305.2 224,-305.2"/>
<image xlink:href="../../images/primaryKeys.png" width="11px" height="12px" preserveAspectRatio="xMinYMin meet" x="229" y="-322.2"/>
<text text-anchor="start" x="244" y="-312.3" font-family="Helvetica,sans-Serif" font-size="11.00" fill="#000000">form_id</text>
<polygon fill="#ffffff" stroke="transparent" points="224,-283.2 224,-305.2 362,-305.2 362,-283.2 224,-283.2"/>
<polygon fill="none" stroke="#000000" points="224,-283.2 224,-305.2 362,-305.2 362,-283.2 224,-283.2"/>
<image xlink:href="../../images/foreignKeys.png" width="11px" height="12px" preserveAspectRatio="xMinYMin meet" x="229" y="-300.2"/>
<text text-anchor="start" x="244" y="-290.3" font-family="Helvetica,sans-Serif" font-size="11.00" fill="#000000">pid</text>
<polygon fill="none" stroke="#000000" points="224,-261.2 224,-283.2 362,-283.2 362,-261.2 224,-261.2"/>
<image xlink:href="../../images/foreignKeys.png" width="11px" height="12px" preserveAspectRatio="xMinYMin meet" x="229" y="-278.2"/>
<text text-anchor="start" x="244" y="-268.3" font-family="Helvetica,sans-Serif" font-size="11.00" fill="#000000">user</text>
<polygon fill="none" stroke="#000000" points="224,-239.2 224,-261.2 362,-261.2 362,-239.2 224,-239.2"/>
<image xlink:href="../../images/foreignKeys.png" width="11px" height="12px" preserveAspectRatio="xMinYMin meet" x="229" y="-256.2"/>
<text text-anchor="start" x="244" y="-246.3" font-family="Helvetica,sans-Serif" font-size="11.00" fill="#000000">groupname</text>
<polygon fill="none" stroke="#000000" points="224,-217.2 224,-239.2 362,-239.2 362,-217.2 224,-217.2"/>
<image xlink:href="../../images/foreignKeys.png" width="11px" height="12px" preserveAspectRatio="xMinYMin meet" x="229" y="-234.2"/>
<text text-anchor="start" x="244" y="-224.3" font-family="Helvetica,sans-Serif" font-size="11.00" fill="#000000">therapy_group_id</text>
<polygon fill="none" stroke="#000000" points="224,-195.2 224,-217.2 362,-217.2 362,-195.2 224,-195.2"/>
<image xlink:href="../../images/foreignKeys.png" width="11px" height="12px" preserveAspectRatio="xMinYMin meet" x="229" y="-212.2"/>
<text text-anchor="start" x="244" y="-202.3" font-family="Helvetica,sans-Serif" font-size="11.00" fill="#000000">issue_id</text>
<polygon fill="none" stroke="#000000" points="224,-173.2 224,-195.2 362,-195.2 362,-173.2 224,-173.2"/>
<image xlink:href="../../images/foreignKeys.png" width="11px" height="12px" preserveAspectRatio="xMinYMin meet" x="229" y="-190.2"/>
<text text-anchor="start" x="244" y="-180.3" font-family="Helvetica,sans-Serif" font-size="11.00" fill="#000000">provider_id</text>
<polygon fill="none" stroke="#000000" points="224,-154.2 224,-173.2 362,-173.2 362,-154.2 224,-154.2"/>
<text text-anchor="start" x="227" y="-160.3" font-family="Helvetica,sans-Serif" font-size="11.00" fill="#000000">...</text>
<polygon fill="#ffffff" stroke="transparent" points="224,-135.2 224,-154.2 284,-154.2 284,-135.2 224,-135.2"/>
<polygon fill="none" stroke="#000000" points="224,-135.2 224,-154.2 284,-154.2 284,-135.2 224,-135.2"/>
<text text-anchor="start" x="227" y="-141.3" font-family="Helvetica,sans-Serif" font-size="11.00" fill="#000000">&lt; 6</text>
<polygon fill="#ffffff" stroke="transparent" points="284,-135.2 284,-154.2 315,-154.2 315,-135.2 284,-135.2"/>
<polygon fill="none" stroke="#000000" points="284,-135.2 284,-154.2 315,-154.2 315,-135.2 284,-135.2"/>
<text text-anchor="start" x="305.8862" y="-141.3" font-family="Helvetica,sans-Serif" font-size="11.00" fill="#000000"> &#160;</text>
<polygon fill="#ffffff" stroke="transparent" points="315,-135.2 315,-154.2 362,-154.2 362,-135.2 315,-135.2"/>
<polygon fill="none" stroke="#000000" points="315,-135.2 315,-154.2 362,-154.2 362,-135.2 315,-135.2"/>
<text text-anchor="start" x="337.2904" y="-141.3" font-family="Helvetica,sans-Serif" font-size="11.00" fill="#000000">13 &gt;</text>
</a>
</g>
</g>
<!-- form_prior_auth&#45;&gt;forms -->
<g id="edge1" class="edge">
<title>form_prior_auth:w&#45;&gt;forms:e</title>
<path fill="none" stroke="#000000" d="M402.8978,-226.2944C373.5078,-239.9886 404.6494,-316.2 362,-316.2"/>
<polygon fill="#000000" stroke="#000000" points="411.9399,-220.4309 413.4904,-228.2792 411.9207,-228.5893 410.3703,-220.741 411.9399,-220.4309"/>
<polyline fill="none" stroke="#000000" points="413.5,-224.2 409.5758,-224.9752 "/>
<ellipse fill="none" stroke="#000000" cx="406.4365" cy="-225.5954" rx="3.2" ry="3.2"/>
</g>
<!-- patient_data -->
<g id="node3" class="node">
<title>patient_data</title>
<g id="a_node3"><a xlink:href="../../tables/patient_data.html" xlink:title="patient_data" target="_top">
<polygon fill="#ffffff" stroke="transparent" points="8,-109.7 8,-346.7 175,-346.7 175,-109.7 8,-109.7"/>
<polygon fill="#f5f5f5" stroke="transparent" points="8.5,-323.2 8.5,-346.2 175.5,-346.2 175.5,-323.2 8.5,-323.2"/>
<polygon fill="none" stroke="#000000" points="8.5,-323.2 8.5,-346.2 175.5,-346.2 175.5,-323.2 8.5,-323.2"/>
<text text-anchor="start" x="13.5" y="-331.8" font-family="Helvetica,sans-Serif" font-weight="bold" font-size="11.00" fill="#000000">patient_data</text>
<text text-anchor="start" x="140.5437" y="-331.3" font-family="Helvetica,sans-Serif" font-size="11.00" fill="#000000">[table]</text>
<polygon fill="#ffffff" stroke="transparent" points="8.5,-301.2 8.5,-323.2 175.5,-323.2 175.5,-301.2 8.5,-301.2"/>
<polygon fill="none" stroke="#000000" points="8.5,-301.2 8.5,-323.2 175.5,-323.2 175.5,-301.2 8.5,-301.2"/>
<text text-anchor="start" x="28.5" y="-308.3" font-family="Helvetica,sans-Serif" font-size="11.00" fill="#000000">id</text>
<polygon fill="#ffffff" stroke="transparent" points="8.5,-279.2 8.5,-301.2 175.5,-301.2 175.5,-279.2 8.5,-279.2"/>
<polygon fill="none" stroke="#000000" points="8.5,-279.2 8.5,-301.2 175.5,-301.2 175.5,-279.2 8.5,-279.2"/>
<text text-anchor="start" x="28.5" y="-286.3" font-family="Helvetica,sans-Serif" font-size="11.00" fill="#000000">uuid</text>
<polygon fill="none" stroke="#000000" points="8.5,-257.2 8.5,-279.2 175.5,-279.2 175.5,-257.2 8.5,-257.2"/>
<image xlink:href="../../images/foreignKeys.png" width="11px" height="12px" preserveAspectRatio="xMinYMin meet" x="13.5" y="-274.2"/>
<text text-anchor="start" x="28.5" y="-264.3" font-family="Helvetica,sans-Serif" font-size="11.00" fill="#000000">pharmacy_id</text>
<polygon fill="none" stroke="#000000" points="8.5,-235.2 8.5,-257.2 175.5,-257.2 175.5,-235.2 8.5,-235.2"/>
<image xlink:href="../../images/foreignKeys.png" width="11px" height="12px" preserveAspectRatio="xMinYMin meet" x="13.5" y="-252.2"/>
<text text-anchor="start" x="28.5" y="-242.3" font-family="Helvetica,sans-Serif" font-size="11.00" fill="#000000">providerID</text>
<polygon fill="none" stroke="#000000" points="8.5,-213.2 8.5,-235.2 175.5,-235.2 175.5,-213.2 8.5,-213.2"/>
<image xlink:href="../../images/foreignKeys.png" width="11px" height="12px" preserveAspectRatio="xMinYMin meet" x="13.5" y="-230.2"/>
<text text-anchor="start" x="28.5" y="-220.3" font-family="Helvetica,sans-Serif" font-size="11.00" fill="#000000">ref_providerID</text>
<polygon fill="none" stroke="#000000" points="8.5,-191.2 8.5,-213.2 175.5,-213.2 175.5,-191.2 8.5,-191.2"/>
<image xlink:href="../../images/primaryKeys.png" width="11px" height="12px" preserveAspectRatio="xMinYMin meet" x="13.5" y="-208.2"/>
<text text-anchor="start" x="28.5" y="-198.3" font-family="Helvetica,sans-Serif" font-size="11.00" fill="#000000">pid</text>
<polygon fill="none" stroke="#000000" points="8.5,-169.2 8.5,-191.2 175.5,-191.2 175.5,-169.2 8.5,-169.2"/>
<image xlink:href="../../images/foreignKeys.png" width="11px" height="12px" preserveAspectRatio="xMinYMin meet" x="13.5" y="-186.2"/>
<text text-anchor="start" x="28.5" y="-176.3" font-family="Helvetica,sans-Serif" font-size="11.00" fill="#000000">created_by</text>
<polygon fill="none" stroke="#000000" points="8.5,-147.2 8.5,-169.2 175.5,-169.2 175.5,-147.2 8.5,-147.2"/>
<image xlink:href="../../images/foreignKeys.png" width="11px" height="12px" preserveAspectRatio="xMinYMin meet" x="13.5" y="-164.2"/>
<text text-anchor="start" x="28.5" y="-154.3" font-family="Helvetica,sans-Serif" font-size="11.00" fill="#000000">updated_by</text>
<polygon fill="none" stroke="#000000" points="8.5,-128.2 8.5,-147.2 175.5,-147.2 175.5,-128.2 8.5,-128.2"/>
<text text-anchor="start" x="11.5" y="-134.3" font-family="Helvetica,sans-Serif" font-size="11.00" fill="#000000">...</text>
<polygon fill="#ffffff" stroke="transparent" points="8.5,-109.2 8.5,-128.2 82.5,-128.2 82.5,-109.2 8.5,-109.2"/>
<polygon fill="none" stroke="#000000" points="8.5,-109.2 8.5,-128.2 82.5,-128.2 82.5,-109.2 8.5,-109.2"/>
<text text-anchor="start" x="11.5" y="-115.3" font-family="Helvetica,sans-Serif" font-size="11.00" fill="#000000">&lt; 5</text>
<polygon fill="#ffffff" stroke="transparent" points="82.5,-109.2 82.5,-128.2 121.5,-128.2 121.5,-109.2 82.5,-109.2"/>
<polygon fill="none" stroke="#000000" points="82.5,-109.2 82.5,-128.2 121.5,-128.2 121.5,-109.2 82.5,-109.2"/>
<text text-anchor="start" x="112.3862" y="-115.3" font-family="Helvetica,sans-Serif" font-size="11.00" fill="#000000"> &#160;</text>
<polygon fill="#ffffff" stroke="transparent" points="121.5,-109.2 121.5,-128.2 175.5,-128.2 175.5,-109.2 121.5,-109.2"/>
<polygon fill="none" stroke="#000000" points="121.5,-109.2 121.5,-128.2 175.5,-128.2 175.5,-109.2 121.5,-109.2"/>
<text text-anchor="start" x="150.7904" y="-115.3" font-family="Helvetica,sans-Serif" font-size="11.00" fill="#000000">85 &gt;</text>
</a>
</g>
</g>
<!-- form_prior_auth&#45;&gt;patient_data -->
<g id="edge2" class="edge">
<title>form_prior_auth:w&#45;&gt;patient_data:e</title>
<path fill="none" stroke="#000000" d="M399.1444,-197.9997C382.2424,-184.4412 398.3779,-141.7616 370,-125.2 310.8862,-90.7007 274.5892,-89.8171 216,-125.2 182.9004,-145.1894 214.1673,-202.2 175.5,-202.2"/>
<polygon fill="#000000" stroke="#000000" points="405.8219,-199.9534 412.489,-205.6551 409.661,-201.0767 413.5,-202.2 413.5,-202.2 413.5,-202.2 409.661,-201.0767 414.511,-198.7449 405.8219,-199.9534 405.8219,-199.9534"/>
<ellipse fill="none" stroke="#000000" cx="402.7507" cy="-199.0548" rx="3.2" ry="3.2"/>
</g>
<!-- forms&#45;&gt;patient_data -->
<g id="edge3" class="edge">
<title>forms:w&#45;&gt;patient_data:e</title>
<path fill="none" stroke="#000000" d="M209.9321,-289.7626C187.8598,-271.3853 215.5838,-202.2 175.5,-202.2"/>
<polygon fill="#000000" stroke="#000000" points="216.3705,-291.7934 222.917,-297.6333 220.1853,-292.9967 224,-294.2 224,-294.2 224,-294.2 220.1853,-292.9967 225.083,-290.7667 216.3705,-291.7934 216.3705,-291.7934"/>
<ellipse fill="none" stroke="#000000" cx="213.3188" cy="-290.8308" rx="3.2" ry="3.2"/>
</g>
</g>
</svg>
