<?xml version="1.0" encoding="UTF-8" standalone="no"?>
<!DOCTYPE svg PUBLIC "-//W3C//DTD SVG 1.1//EN"
 "http://www.w3.org/Graphics/SVG/1.1/DTD/svg11.dtd">
<!-- Generated by graphviz version 2.40.1 (20161225.0304)
 -->
<!-- Title: oneDegreeRelationshipsDiagram Pages: 1 -->
<svg width="815pt" height="784pt"
 viewBox="0.00 0.00 815.00 783.70" xmlns="http://www.w3.org/2000/svg" xmlns:xlink="http://www.w3.org/1999/xlink">
<g id="graph0" class="graph" transform="scale(1 1) rotate(0) translate(4 779.7)">
<title>oneDegreeRelationshipsDiagram</title>
<polygon fill="#ffffff" stroke="transparent" points="-4,4 -4,-779.7 811,-779.7 811,4 -4,4"/>
<text text-anchor="middle" x="72.4936" y="-7.3" font-family="Helvetica,sans-Serif" font-size="11.00" fill="#000000">Generated by SchemaSpy</text>
<!-- form_ankleinjury -->
<g id="node1" class="node">
<title>form_ankleinjury</title>
<g id="a_node1"><a xlink:href="../../tables/form_ankleinjury.html" xlink:title="form_ankleinjury" target="_top">
<polygon fill="#ffffff" stroke="transparent" points="440,-38.2 440,-656.2 799,-656.2 799,-38.2 440,-38.2"/>
<polygon fill="#f5f5f5" stroke="transparent" points="442.5,-631.2 442.5,-654.2 797.5,-654.2 797.5,-631.2 442.5,-631.2"/>
<polygon fill="none" stroke="#000000" points="442.5,-631.2 442.5,-654.2 797.5,-654.2 797.5,-631.2 442.5,-631.2"/>
<text text-anchor="start" x="447.5" y="-639.8" font-family="Helvetica,sans-Serif" font-weight="bold" font-size="11.00" fill="#000000">form_ankleinjury</text>
<text text-anchor="start" x="762.5437" y="-639.3" font-family="Helvetica,sans-Serif" font-size="11.00" fill="#000000">[table]</text>
<polygon fill="none" stroke="#000000" points="442.5,-609.2 442.5,-631.2 686.5,-631.2 686.5,-609.2 442.5,-609.2"/>
<text text-anchor="start" x="462.5" y="-616.3" font-family="Helvetica,sans-Serif" font-size="11.00" fill="#000000">ankle_additional_diagnosis</text>
<polygon fill="none" stroke="#000000" points="686.5,-609.2 686.5,-631.2 797.5,-631.2 797.5,-609.2 686.5,-609.2"/>
<text text-anchor="start" x="689.5" y="-616.9" font-family="Helvetica,sans-Serif" font-size="11.00" fill="#000000">unknown[0]</text>
<polygon fill="none" stroke="#000000" points="442.5,-587.2 442.5,-609.2 686.5,-609.2 686.5,-587.2 442.5,-587.2"/>
<text text-anchor="start" x="462.5" y="-594.3" font-family="Helvetica,sans-Serif" font-size="11.00" fill="#000000">ankle_date_of_injury</text>
<polygon fill="none" stroke="#000000" points="686.5,-587.2 686.5,-609.2 797.5,-609.2 797.5,-587.2 686.5,-587.2"/>
<text text-anchor="start" x="689.5" y="-594.9" font-family="Helvetica,sans-Serif" font-size="11.00" fill="#000000">unknown[0]</text>
<polygon fill="none" stroke="#000000" points="442.5,-565.2 442.5,-587.2 686.5,-587.2 686.5,-565.2 442.5,-565.2"/>
<image xlink:href="../../images/primaryKeys.png" width="11px" height="12px" preserveAspectRatio="xMinYMin meet" x="447.5" y="-582.2"/>
<text text-anchor="start" x="462.5" y="-572.3" font-family="Helvetica,sans-Serif" font-size="11.00" fill="#000000">id</text>
<polygon fill="none" stroke="#000000" points="686.5,-565.2 686.5,-587.2 797.5,-587.2 797.5,-565.2 686.5,-565.2"/>
<text text-anchor="start" x="689.5" y="-572.9" font-family="Helvetica,sans-Serif" font-size="11.00" fill="#000000">bigint[19]</text>
<polygon fill="none" stroke="#000000" points="442.5,-543.2 442.5,-565.2 686.5,-565.2 686.5,-543.2 442.5,-543.2"/>
<text text-anchor="start" x="462.5" y="-550.3" font-family="Helvetica,sans-Serif" font-size="11.00" fill="#000000">date</text>
<polygon fill="none" stroke="#000000" points="686.5,-543.2 686.5,-565.2 797.5,-565.2 797.5,-543.2 686.5,-543.2"/>
<text text-anchor="start" x="689.5" y="-550.9" font-family="Helvetica,sans-Serif" font-size="11.00" fill="#000000">datetime[19]</text>
<polygon fill="none" stroke="#000000" points="442.5,-521.2 442.5,-543.2 686.5,-543.2 686.5,-521.2 442.5,-521.2"/>
<image xlink:href="../../images/foreignKeys.png" width="11px" height="12px" preserveAspectRatio="xMinYMin meet" x="447.5" y="-538.2"/>
<text text-anchor="start" x="462.5" y="-528.3" font-family="Helvetica,sans-Serif" font-size="11.00" fill="#000000">pid</text>
<polygon fill="none" stroke="#000000" points="686.5,-521.2 686.5,-543.2 797.5,-543.2 797.5,-521.2 686.5,-521.2"/>
<text text-anchor="start" x="689.5" y="-528.9" font-family="Helvetica,sans-Serif" font-size="11.00" fill="#000000">bigint[19]</text>
<polygon fill="none" stroke="#000000" points="442.5,-499.2 442.5,-521.2 686.5,-521.2 686.5,-499.2 442.5,-499.2"/>
<image xlink:href="../../images/foreignKeys.png" width="11px" height="12px" preserveAspectRatio="xMinYMin meet" x="447.5" y="-516.2"/>
<text text-anchor="start" x="462.5" y="-506.3" font-family="Helvetica,sans-Serif" font-size="11.00" fill="#000000">user</text>
<polygon fill="none" stroke="#000000" points="686.5,-499.2 686.5,-521.2 797.5,-521.2 797.5,-499.2 686.5,-499.2"/>
<text text-anchor="start" x="689.5" y="-506.9" font-family="Helvetica,sans-Serif" font-size="11.00" fill="#000000">varchar[255]</text>
<polygon fill="none" stroke="#000000" points="442.5,-477.2 442.5,-499.2 686.5,-499.2 686.5,-477.2 442.5,-477.2"/>
<image xlink:href="../../images/foreignKeys.png" width="11px" height="12px" preserveAspectRatio="xMinYMin meet" x="447.5" y="-494.2"/>
<text text-anchor="start" x="462.5" y="-484.3" font-family="Helvetica,sans-Serif" font-size="11.00" fill="#000000">groupname</text>
<polygon fill="none" stroke="#000000" points="686.5,-477.2 686.5,-499.2 797.5,-499.2 797.5,-477.2 686.5,-477.2"/>
<text text-anchor="start" x="689.5" y="-484.9" font-family="Helvetica,sans-Serif" font-size="11.00" fill="#000000">varchar[255]</text>
<polygon fill="none" stroke="#000000" points="442.5,-455.2 442.5,-477.2 686.5,-477.2 686.5,-455.2 442.5,-455.2"/>
<text text-anchor="start" x="462.5" y="-462.3" font-family="Helvetica,sans-Serif" font-size="11.00" fill="#000000">authorized</text>
<polygon fill="none" stroke="#000000" points="686.5,-455.2 686.5,-477.2 797.5,-477.2 797.5,-455.2 686.5,-455.2"/>
<text text-anchor="start" x="689.5" y="-462.9" font-family="Helvetica,sans-Serif" font-size="11.00" fill="#000000">tinyint[3]</text>
<polygon fill="none" stroke="#000000" points="442.5,-433.2 442.5,-455.2 686.5,-455.2 686.5,-433.2 442.5,-433.2"/>
<text text-anchor="start" x="462.5" y="-440.3" font-family="Helvetica,sans-Serif" font-size="11.00" fill="#000000">activity</text>
<polygon fill="none" stroke="#000000" points="686.5,-433.2 686.5,-455.2 797.5,-455.2 797.5,-433.2 686.5,-433.2"/>
<text text-anchor="start" x="689.5" y="-440.9" font-family="Helvetica,sans-Serif" font-size="11.00" fill="#000000">tinyint[3]</text>
<polygon fill="none" stroke="#000000" points="442.5,-411.2 442.5,-433.2 686.5,-433.2 686.5,-411.2 442.5,-411.2"/>
<text text-anchor="start" x="462.5" y="-418.3" font-family="Helvetica,sans-Serif" font-size="11.00" fill="#000000">ankle_date_of_injuary</text>
<polygon fill="none" stroke="#000000" points="686.5,-411.2 686.5,-433.2 797.5,-433.2 797.5,-411.2 686.5,-411.2"/>
<text text-anchor="start" x="689.5" y="-418.9" font-family="Helvetica,sans-Serif" font-size="11.00" fill="#000000">datetime[19]</text>
<polygon fill="none" stroke="#000000" points="442.5,-389.2 442.5,-411.2 686.5,-411.2 686.5,-389.2 442.5,-389.2"/>
<text text-anchor="start" x="462.5" y="-396.3" font-family="Helvetica,sans-Serif" font-size="11.00" fill="#000000">ankle_work_related</text>
<polygon fill="none" stroke="#000000" points="686.5,-389.2 686.5,-411.2 797.5,-411.2 797.5,-389.2 686.5,-389.2"/>
<text text-anchor="start" x="689.5" y="-396.9" font-family="Helvetica,sans-Serif" font-size="11.00" fill="#000000">varchar[255]</text>
<polygon fill="none" stroke="#000000" points="442.5,-367.2 442.5,-389.2 686.5,-389.2 686.5,-367.2 442.5,-367.2"/>
<text text-anchor="start" x="462.5" y="-374.3" font-family="Helvetica,sans-Serif" font-size="11.00" fill="#000000">ankle_foot</text>
<polygon fill="none" stroke="#000000" points="686.5,-367.2 686.5,-389.2 797.5,-389.2 797.5,-367.2 686.5,-367.2"/>
<text text-anchor="start" x="689.5" y="-374.9" font-family="Helvetica,sans-Serif" font-size="11.00" fill="#000000">varchar[255]</text>
<polygon fill="none" stroke="#000000" points="442.5,-345.2 442.5,-367.2 686.5,-367.2 686.5,-345.2 442.5,-345.2"/>
<text text-anchor="start" x="462.5" y="-352.3" font-family="Helvetica,sans-Serif" font-size="11.00" fill="#000000">ankle_severity_of_pain</text>
<polygon fill="none" stroke="#000000" points="686.5,-345.2 686.5,-367.2 797.5,-367.2 797.5,-345.2 686.5,-345.2"/>
<text text-anchor="start" x="689.5" y="-352.9" font-family="Helvetica,sans-Serif" font-size="11.00" fill="#000000">varchar[255]</text>
<polygon fill="none" stroke="#000000" points="442.5,-323.2 442.5,-345.2 686.5,-345.2 686.5,-323.2 442.5,-323.2"/>
<text text-anchor="start" x="462.5" y="-330.3" font-family="Helvetica,sans-Serif" font-size="11.00" fill="#000000">ankle_significant_swelling</text>
<polygon fill="none" stroke="#000000" points="686.5,-323.2 686.5,-345.2 797.5,-345.2 797.5,-323.2 686.5,-323.2"/>
<text text-anchor="start" x="689.5" y="-330.9" font-family="Helvetica,sans-Serif" font-size="11.00" fill="#000000">varchar[255]</text>
<polygon fill="none" stroke="#000000" points="442.5,-301.2 442.5,-323.2 686.5,-323.2 686.5,-301.2 442.5,-301.2"/>
<text text-anchor="start" x="462.5" y="-308.3" font-family="Helvetica,sans-Serif" font-size="11.00" fill="#000000">ankle_onset_of_swelling</text>
<polygon fill="none" stroke="#000000" points="686.5,-301.2 686.5,-323.2 797.5,-323.2 797.5,-301.2 686.5,-301.2"/>
<text text-anchor="start" x="689.5" y="-308.9" font-family="Helvetica,sans-Serif" font-size="11.00" fill="#000000">varchar[255]</text>
<polygon fill="none" stroke="#000000" points="442.5,-279.2 442.5,-301.2 686.5,-301.2 686.5,-279.2 442.5,-279.2"/>
<text text-anchor="start" x="462.5" y="-286.3" font-family="Helvetica,sans-Serif" font-size="11.00" fill="#000000">ankle_how_did_injury_occur</text>
<polygon fill="none" stroke="#000000" points="686.5,-279.2 686.5,-301.2 797.5,-301.2 797.5,-279.2 686.5,-279.2"/>
<text text-anchor="start" x="689.1115" y="-286.9" font-family="Helvetica,sans-Serif" font-size="11.00" fill="#000000">longtext[2147483647]</text>
<polygon fill="none" stroke="#000000" points="442.5,-257.2 442.5,-279.2 686.5,-279.2 686.5,-257.2 442.5,-257.2"/>
<text text-anchor="start" x="462.5" y="-264.3" font-family="Helvetica,sans-Serif" font-size="11.00" fill="#000000">ankle_ottawa_bone_tenderness</text>
<polygon fill="none" stroke="#000000" points="686.5,-257.2 686.5,-279.2 797.5,-279.2 797.5,-257.2 686.5,-257.2"/>
<text text-anchor="start" x="689.5" y="-264.9" font-family="Helvetica,sans-Serif" font-size="11.00" fill="#000000">varchar[255]</text>
<polygon fill="none" stroke="#000000" points="442.5,-235.2 442.5,-257.2 686.5,-257.2 686.5,-235.2 442.5,-235.2"/>
<text text-anchor="start" x="462.5" y="-242.3" font-family="Helvetica,sans-Serif" font-size="11.00" fill="#000000">ankle_able_to_bear_weight_steps</text>
<polygon fill="none" stroke="#000000" points="686.5,-235.2 686.5,-257.2 797.5,-257.2 797.5,-235.2 686.5,-235.2"/>
<text text-anchor="start" x="689.5" y="-242.9" font-family="Helvetica,sans-Serif" font-size="11.00" fill="#000000">varchar[255]</text>
<polygon fill="none" stroke="#000000" points="442.5,-213.2 442.5,-235.2 686.5,-235.2 686.5,-213.2 442.5,-213.2"/>
<text text-anchor="start" x="462.5" y="-220.3" font-family="Helvetica,sans-Serif" font-size="11.00" fill="#000000">ankle_x_ray_interpretation</text>
<polygon fill="none" stroke="#000000" points="686.5,-213.2 686.5,-235.2 797.5,-235.2 797.5,-213.2 686.5,-213.2"/>
<text text-anchor="start" x="689.5" y="-220.9" font-family="Helvetica,sans-Serif" font-size="11.00" fill="#000000">varchar[255]</text>
<polygon fill="none" stroke="#000000" points="442.5,-191.2 442.5,-213.2 686.5,-213.2 686.5,-191.2 442.5,-191.2"/>
<text text-anchor="start" x="462.5" y="-198.3" font-family="Helvetica,sans-Serif" font-size="11.00" fill="#000000">ankle_additional_x_ray_notes</text>
<polygon fill="none" stroke="#000000" points="686.5,-191.2 686.5,-213.2 797.5,-213.2 797.5,-191.2 686.5,-191.2"/>
<text text-anchor="start" x="689.1115" y="-198.9" font-family="Helvetica,sans-Serif" font-size="11.00" fill="#000000">longtext[2147483647]</text>
<polygon fill="none" stroke="#000000" points="442.5,-169.2 442.5,-191.2 686.5,-191.2 686.5,-169.2 442.5,-169.2"/>
<text text-anchor="start" x="462.5" y="-176.3" font-family="Helvetica,sans-Serif" font-size="11.00" fill="#000000">ankle_diagnosis1</text>
<polygon fill="none" stroke="#000000" points="686.5,-169.2 686.5,-191.2 797.5,-191.2 797.5,-169.2 686.5,-169.2"/>
<text text-anchor="start" x="689.5" y="-176.9" font-family="Helvetica,sans-Serif" font-size="11.00" fill="#000000">varchar[255]</text>
<polygon fill="none" stroke="#000000" points="442.5,-147.2 442.5,-169.2 686.5,-169.2 686.5,-147.2 442.5,-147.2"/>
<text text-anchor="start" x="462.5" y="-154.3" font-family="Helvetica,sans-Serif" font-size="11.00" fill="#000000">ankle_diagnosis2</text>
<polygon fill="none" stroke="#000000" points="686.5,-147.2 686.5,-169.2 797.5,-169.2 797.5,-147.2 686.5,-147.2"/>
<text text-anchor="start" x="689.5" y="-154.9" font-family="Helvetica,sans-Serif" font-size="11.00" fill="#000000">varchar[255]</text>
<polygon fill="none" stroke="#000000" points="442.5,-125.2 442.5,-147.2 686.5,-147.2 686.5,-125.2 442.5,-125.2"/>
<text text-anchor="start" x="462.5" y="-132.3" font-family="Helvetica,sans-Serif" font-size="11.00" fill="#000000">ankle_diagnosis3</text>
<polygon fill="none" stroke="#000000" points="686.5,-125.2 686.5,-147.2 797.5,-147.2 797.5,-125.2 686.5,-125.2"/>
<text text-anchor="start" x="689.5" y="-132.9" font-family="Helvetica,sans-Serif" font-size="11.00" fill="#000000">varchar[255]</text>
<polygon fill="none" stroke="#000000" points="442.5,-103.2 442.5,-125.2 686.5,-125.2 686.5,-103.2 442.5,-103.2"/>
<text text-anchor="start" x="462.5" y="-110.3" font-family="Helvetica,sans-Serif" font-size="11.00" fill="#000000">ankle_diagnosis4</text>
<polygon fill="none" stroke="#000000" points="686.5,-103.2 686.5,-125.2 797.5,-125.2 797.5,-103.2 686.5,-103.2"/>
<text text-anchor="start" x="689.5" y="-110.9" font-family="Helvetica,sans-Serif" font-size="11.00" fill="#000000">varchar[255]</text>
<polygon fill="none" stroke="#000000" points="442.5,-81.2 442.5,-103.2 686.5,-103.2 686.5,-81.2 442.5,-81.2"/>
<text text-anchor="start" x="462.5" y="-88.3" font-family="Helvetica,sans-Serif" font-size="11.00" fill="#000000">ankle_plan</text>
<polygon fill="none" stroke="#000000" points="686.5,-81.2 686.5,-103.2 797.5,-103.2 797.5,-81.2 686.5,-81.2"/>
<text text-anchor="start" x="689.1115" y="-88.9" font-family="Helvetica,sans-Serif" font-size="11.00" fill="#000000">longtext[2147483647]</text>
<polygon fill="none" stroke="#000000" points="442.5,-59.2 442.5,-81.2 686.5,-81.2 686.5,-59.2 442.5,-59.2"/>
<text text-anchor="start" x="462.5" y="-66.3" font-family="Helvetica,sans-Serif" font-size="11.00" fill="#000000">ankle_additional_diagnisis</text>
<polygon fill="none" stroke="#000000" points="686.5,-59.2 686.5,-81.2 797.5,-81.2 797.5,-59.2 686.5,-59.2"/>
<text text-anchor="start" x="689.1115" y="-66.9" font-family="Helvetica,sans-Serif" font-size="11.00" fill="#000000">longtext[2147483647]</text>
<polygon fill="#ffffff" stroke="transparent" points="442.5,-40.2 442.5,-59.2 568.5,-59.2 568.5,-40.2 442.5,-40.2"/>
<polygon fill="none" stroke="#000000" points="442.5,-40.2 442.5,-59.2 568.5,-59.2 568.5,-40.2 442.5,-40.2"/>
<text text-anchor="start" x="445.5" y="-46.3" font-family="Helvetica,sans-Serif" font-size="11.00" fill="#000000">&lt; 3</text>
<polygon fill="#ffffff" stroke="transparent" points="568.5,-40.2 568.5,-59.2 686.5,-59.2 686.5,-40.2 568.5,-40.2"/>
<polygon fill="none" stroke="#000000" points="568.5,-40.2 568.5,-59.2 686.5,-59.2 686.5,-40.2 568.5,-40.2"/>
<text text-anchor="start" x="677.3862" y="-46.3" font-family="Helvetica,sans-Serif" font-size="11.00" fill="#000000"> &#160;</text>
<polygon fill="#ffffff" stroke="transparent" points="686.5,-40.2 686.5,-59.2 797.5,-59.2 797.5,-40.2 686.5,-40.2"/>
<polygon fill="none" stroke="#000000" points="686.5,-40.2 686.5,-59.2 797.5,-59.2 797.5,-40.2 686.5,-40.2"/>
<text text-anchor="start" x="778.9053" y="-46.3" font-family="Helvetica,sans-Serif" font-size="11.00" fill="#000000">0 &gt;</text>
<polygon fill="none" stroke="#000000" stroke-width="2" points="441,-39.2 441,-655.2 798,-655.2 798,-39.2 441,-39.2"/>
</a>
</g>
</g>
<!-- groups -->
<g id="node2" class="node">
<title>groups</title>
<g id="a_node2"><a xlink:href="../../tables/groups.html" xlink:title="groups" target="_top">
<polygon fill="#ffffff" stroke="transparent" points="264.5,-378.2 264.5,-486.2 350.5,-486.2 350.5,-378.2 264.5,-378.2"/>
<polygon fill="#f5f5f5" stroke="transparent" points="264.5,-463.2 264.5,-486.2 350.5,-486.2 350.5,-463.2 264.5,-463.2"/>
<polygon fill="none" stroke="#000000" points="264.5,-463.2 264.5,-486.2 350.5,-486.2 350.5,-463.2 264.5,-463.2"/>
<text text-anchor="start" x="269.5" y="-471.8" font-family="Helvetica,sans-Serif" font-weight="bold" font-size="11.00" fill="#000000">groups</text>
<text text-anchor="start" x="316.0219" y="-471.3" font-family="Helvetica,sans-Serif" font-size="11.00" fill="#000000">[table]</text>
<polygon fill="none" stroke="#000000" points="264.5,-441.2 264.5,-463.2 350.5,-463.2 350.5,-441.2 264.5,-441.2"/>
<image xlink:href="../../images/primaryKeys.png" width="11px" height="12px" preserveAspectRatio="xMinYMin meet" x="269.5" y="-458.2"/>
<text text-anchor="start" x="293.5" y="-448.3" font-family="Helvetica,sans-Serif" font-size="11.00" fill="#000000">id</text>
<polygon fill="none" stroke="#000000" points="264.5,-419.2 264.5,-441.2 350.5,-441.2 350.5,-419.2 264.5,-419.2"/>
<image xlink:href="../../images/primaryKeys.png" width="11px" height="12px" preserveAspectRatio="xMinYMin meet" x="269.5" y="-436.2"/>
<text text-anchor="start" x="293.5" y="-426.3" font-family="Helvetica,sans-Serif" font-size="11.00" fill="#000000">name</text>
<polygon fill="none" stroke="#000000" points="264.5,-397.2 264.5,-419.2 350.5,-419.2 350.5,-397.2 264.5,-397.2"/>
<image xlink:href="../../images/foreignKeys.png" width="11px" height="12px" preserveAspectRatio="xMinYMin meet" x="269.5" y="-414.2"/>
<text text-anchor="start" x="293.5" y="-404.3" font-family="Helvetica,sans-Serif" font-size="11.00" fill="#000000">user</text>
<polygon fill="#ffffff" stroke="transparent" points="264.5,-378.2 264.5,-397.2 298.5,-397.2 298.5,-378.2 264.5,-378.2"/>
<polygon fill="none" stroke="#000000" points="264.5,-378.2 264.5,-397.2 298.5,-397.2 298.5,-378.2 264.5,-378.2"/>
<text text-anchor="start" x="267.5" y="-384.3" font-family="Helvetica,sans-Serif" font-size="11.00" fill="#000000">&lt; 1</text>
<polygon fill="#ffffff" stroke="transparent" points="298.5,-378.2 298.5,-397.2 316.5,-397.2 316.5,-378.2 298.5,-378.2"/>
<polygon fill="none" stroke="#000000" points="298.5,-378.2 298.5,-397.2 316.5,-397.2 316.5,-378.2 298.5,-378.2"/>
<text text-anchor="start" x="307.3862" y="-384.3" font-family="Helvetica,sans-Serif" font-size="11.00" fill="#000000"> &#160;</text>
<polygon fill="#ffffff" stroke="transparent" points="316.5,-378.2 316.5,-397.2 350.5,-397.2 350.5,-378.2 316.5,-378.2"/>
<polygon fill="none" stroke="#000000" points="316.5,-378.2 316.5,-397.2 350.5,-397.2 350.5,-378.2 316.5,-378.2"/>
<text text-anchor="start" x="325.7904" y="-384.3" font-family="Helvetica,sans-Serif" font-size="11.00" fill="#000000">17 &gt;</text>
</a>
</g>
</g>
<!-- form_ankleinjury&#45;&gt;groups -->
<g id="edge1" class="edge">
<title>form_ankleinjury:w&#45;&gt;groups:e</title>
<path fill="none" stroke="#000000" d="M427.9598,-486.1357C394.5421,-475.8037 393.3607,-430.2 350.5,-430.2"/>
<polygon fill="#000000" stroke="#000000" points="434.5794,-487.0755 441.994,-491.7643 438.5397,-487.6377 442.5,-488.2 442.5,-488.2 442.5,-488.2 438.5397,-487.6377 443.006,-484.6357 434.5794,-487.0755 434.5794,-487.0755"/>
<ellipse fill="none" stroke="#000000" cx="431.4112" cy="-486.6257" rx="3.2" ry="3.2"/>
</g>
<!-- patient_data -->
<g id="node3" class="node">
<title>patient_data</title>
<g id="a_node3"><a xlink:href="../../tables/patient_data.html" xlink:title="patient_data" target="_top">
<polygon fill="#ffffff" stroke="transparent" points="224,-534.7 224,-771.7 391,-771.7 391,-534.7 224,-534.7"/>
<polygon fill="#f5f5f5" stroke="transparent" points="224.5,-748.2 224.5,-771.2 391.5,-771.2 391.5,-748.2 224.5,-748.2"/>
<polygon fill="none" stroke="#000000" points="224.5,-748.2 224.5,-771.2 391.5,-771.2 391.5,-748.2 224.5,-748.2"/>
<text text-anchor="start" x="229.5" y="-756.8" font-family="Helvetica,sans-Serif" font-weight="bold" font-size="11.00" fill="#000000">patient_data</text>
<text text-anchor="start" x="356.5437" y="-756.3" font-family="Helvetica,sans-Serif" font-size="11.00" fill="#000000">[table]</text>
<polygon fill="#ffffff" stroke="transparent" points="224.5,-726.2 224.5,-748.2 391.5,-748.2 391.5,-726.2 224.5,-726.2"/>
<polygon fill="none" stroke="#000000" points="224.5,-726.2 224.5,-748.2 391.5,-748.2 391.5,-726.2 224.5,-726.2"/>
<text text-anchor="start" x="244.5" y="-733.3" font-family="Helvetica,sans-Serif" font-size="11.00" fill="#000000">id</text>
<polygon fill="#ffffff" stroke="transparent" points="224.5,-704.2 224.5,-726.2 391.5,-726.2 391.5,-704.2 224.5,-704.2"/>
<polygon fill="none" stroke="#000000" points="224.5,-704.2 224.5,-726.2 391.5,-726.2 391.5,-704.2 224.5,-704.2"/>
<text text-anchor="start" x="244.5" y="-711.3" font-family="Helvetica,sans-Serif" font-size="11.00" fill="#000000">uuid</text>
<polygon fill="none" stroke="#000000" points="224.5,-682.2 224.5,-704.2 391.5,-704.2 391.5,-682.2 224.5,-682.2"/>
<image xlink:href="../../images/foreignKeys.png" width="11px" height="12px" preserveAspectRatio="xMinYMin meet" x="229.5" y="-699.2"/>
<text text-anchor="start" x="244.5" y="-689.3" font-family="Helvetica,sans-Serif" font-size="11.00" fill="#000000">pharmacy_id</text>
<polygon fill="none" stroke="#000000" points="224.5,-660.2 224.5,-682.2 391.5,-682.2 391.5,-660.2 224.5,-660.2"/>
<image xlink:href="../../images/foreignKeys.png" width="11px" height="12px" preserveAspectRatio="xMinYMin meet" x="229.5" y="-677.2"/>
<text text-anchor="start" x="244.5" y="-667.3" font-family="Helvetica,sans-Serif" font-size="11.00" fill="#000000">providerID</text>
<polygon fill="none" stroke="#000000" points="224.5,-638.2 224.5,-660.2 391.5,-660.2 391.5,-638.2 224.5,-638.2"/>
<image xlink:href="../../images/foreignKeys.png" width="11px" height="12px" preserveAspectRatio="xMinYMin meet" x="229.5" y="-655.2"/>
<text text-anchor="start" x="244.5" y="-645.3" font-family="Helvetica,sans-Serif" font-size="11.00" fill="#000000">ref_providerID</text>
<polygon fill="none" stroke="#000000" points="224.5,-616.2 224.5,-638.2 391.5,-638.2 391.5,-616.2 224.5,-616.2"/>
<image xlink:href="../../images/primaryKeys.png" width="11px" height="12px" preserveAspectRatio="xMinYMin meet" x="229.5" y="-633.2"/>
<text text-anchor="start" x="244.5" y="-623.3" font-family="Helvetica,sans-Serif" font-size="11.00" fill="#000000">pid</text>
<polygon fill="none" stroke="#000000" points="224.5,-594.2 224.5,-616.2 391.5,-616.2 391.5,-594.2 224.5,-594.2"/>
<image xlink:href="../../images/foreignKeys.png" width="11px" height="12px" preserveAspectRatio="xMinYMin meet" x="229.5" y="-611.2"/>
<text text-anchor="start" x="244.5" y="-601.3" font-family="Helvetica,sans-Serif" font-size="11.00" fill="#000000">created_by</text>
<polygon fill="none" stroke="#000000" points="224.5,-572.2 224.5,-594.2 391.5,-594.2 391.5,-572.2 224.5,-572.2"/>
<image xlink:href="../../images/foreignKeys.png" width="11px" height="12px" preserveAspectRatio="xMinYMin meet" x="229.5" y="-589.2"/>
<text text-anchor="start" x="244.5" y="-579.3" font-family="Helvetica,sans-Serif" font-size="11.00" fill="#000000">updated_by</text>
<polygon fill="none" stroke="#000000" points="224.5,-553.2 224.5,-572.2 391.5,-572.2 391.5,-553.2 224.5,-553.2"/>
<text text-anchor="start" x="227.5" y="-559.3" font-family="Helvetica,sans-Serif" font-size="11.00" fill="#000000">...</text>
<polygon fill="#ffffff" stroke="transparent" points="224.5,-534.2 224.5,-553.2 298.5,-553.2 298.5,-534.2 224.5,-534.2"/>
<polygon fill="none" stroke="#000000" points="224.5,-534.2 224.5,-553.2 298.5,-553.2 298.5,-534.2 224.5,-534.2"/>
<text text-anchor="start" x="227.5" y="-540.3" font-family="Helvetica,sans-Serif" font-size="11.00" fill="#000000">&lt; 5</text>
<polygon fill="#ffffff" stroke="transparent" points="298.5,-534.2 298.5,-553.2 337.5,-553.2 337.5,-534.2 298.5,-534.2"/>
<polygon fill="none" stroke="#000000" points="298.5,-534.2 298.5,-553.2 337.5,-553.2 337.5,-534.2 298.5,-534.2"/>
<text text-anchor="start" x="328.3862" y="-540.3" font-family="Helvetica,sans-Serif" font-size="11.00" fill="#000000"> &#160;</text>
<polygon fill="#ffffff" stroke="transparent" points="337.5,-534.2 337.5,-553.2 391.5,-553.2 391.5,-534.2 337.5,-534.2"/>
<polygon fill="none" stroke="#000000" points="337.5,-534.2 337.5,-553.2 391.5,-553.2 391.5,-534.2 337.5,-534.2"/>
<text text-anchor="start" x="366.7904" y="-540.3" font-family="Helvetica,sans-Serif" font-size="11.00" fill="#000000">85 &gt;</text>
</a>
</g>
</g>
<!-- form_ankleinjury&#45;&gt;patient_data -->
<g id="edge2" class="edge">
<title>form_ankleinjury:w&#45;&gt;patient_data:e</title>
<path fill="none" stroke="#000000" d="M428.5154,-536.282C404.3397,-554.4656 433.4315,-627.2 391.5,-627.2"/>
<polygon fill="#000000" stroke="#000000" points="434.8205,-534.4416 443.5087,-535.6558 438.6602,-533.3208 442.5,-532.2 442.5,-532.2 442.5,-532.2 438.6602,-533.3208 441.4913,-528.7442 434.8205,-534.4416 434.8205,-534.4416"/>
<ellipse fill="none" stroke="#000000" cx="431.7487" cy="-535.3383" rx="3.2" ry="3.2"/>
</g>
<!-- users -->
<g id="node4" class="node">
<title>users</title>
<g id="a_node4"><a xlink:href="../../tables/users.html" xlink:title="users" target="_top">
<polygon fill="#ffffff" stroke="transparent" points="8,-413.7 8,-628.7 175,-628.7 175,-413.7 8,-413.7"/>
<polygon fill="#f5f5f5" stroke="transparent" points="8.5,-605.2 8.5,-628.2 175.5,-628.2 175.5,-605.2 8.5,-605.2"/>
<polygon fill="none" stroke="#000000" points="8.5,-605.2 8.5,-628.2 175.5,-628.2 175.5,-605.2 8.5,-605.2"/>
<text text-anchor="start" x="13.5" y="-613.8" font-family="Helvetica,sans-Serif" font-weight="bold" font-size="11.00" fill="#000000">users</text>
<text text-anchor="start" x="140.5437" y="-613.3" font-family="Helvetica,sans-Serif" font-size="11.00" fill="#000000">[table]</text>
<polygon fill="none" stroke="#000000" points="8.5,-583.2 8.5,-605.2 175.5,-605.2 175.5,-583.2 8.5,-583.2"/>
<image xlink:href="../../images/primaryKeys.png" width="11px" height="12px" preserveAspectRatio="xMinYMin meet" x="13.5" y="-600.2"/>
<text text-anchor="start" x="28.5" y="-590.3" font-family="Helvetica,sans-Serif" font-size="11.00" fill="#000000">id</text>
<polygon fill="#ffffff" stroke="transparent" points="8.5,-561.2 8.5,-583.2 175.5,-583.2 175.5,-561.2 8.5,-561.2"/>
<polygon fill="none" stroke="#000000" points="8.5,-561.2 8.5,-583.2 175.5,-583.2 175.5,-561.2 8.5,-561.2"/>
<text text-anchor="start" x="28.5" y="-568.3" font-family="Helvetica,sans-Serif" font-size="11.00" fill="#000000">uuid</text>
<polygon fill="none" stroke="#000000" points="8.5,-539.2 8.5,-561.2 175.5,-561.2 175.5,-539.2 8.5,-539.2"/>
<image xlink:href="../../images/primaryKeys.png" width="11px" height="12px" preserveAspectRatio="xMinYMin meet" x="13.5" y="-556.2"/>
<text text-anchor="start" x="28.5" y="-546.3" font-family="Helvetica,sans-Serif" font-size="11.00" fill="#000000">username</text>
<polygon fill="none" stroke="#000000" points="8.5,-517.2 8.5,-539.2 175.5,-539.2 175.5,-517.2 8.5,-517.2"/>
<image xlink:href="../../images/foreignKeys.png" width="11px" height="12px" preserveAspectRatio="xMinYMin meet" x="13.5" y="-534.2"/>
<text text-anchor="start" x="28.5" y="-524.3" font-family="Helvetica,sans-Serif" font-size="11.00" fill="#000000">facility_id</text>
<polygon fill="#ffffff" stroke="transparent" points="8.5,-495.2 8.5,-517.2 175.5,-517.2 175.5,-495.2 8.5,-495.2"/>
<polygon fill="none" stroke="#000000" points="8.5,-495.2 8.5,-517.2 175.5,-517.2 175.5,-495.2 8.5,-495.2"/>
<text text-anchor="start" x="28.5" y="-502.3" font-family="Helvetica,sans-Serif" font-size="11.00" fill="#000000">google_signin_email</text>
<polygon fill="#ffffff" stroke="transparent" points="8.5,-473.2 8.5,-495.2 175.5,-495.2 175.5,-473.2 8.5,-473.2"/>
<polygon fill="none" stroke="#000000" points="8.5,-473.2 8.5,-495.2 175.5,-495.2 175.5,-473.2 8.5,-473.2"/>
<text text-anchor="start" x="28.5" y="-480.3" font-family="Helvetica,sans-Serif" font-size="11.00" fill="#000000">abook_type</text>
<polygon fill="none" stroke="#000000" points="8.5,-451.2 8.5,-473.2 175.5,-473.2 175.5,-451.2 8.5,-451.2"/>
<image xlink:href="../../images/foreignKeys.png" width="11px" height="12px" preserveAspectRatio="xMinYMin meet" x="13.5" y="-468.2"/>
<text text-anchor="start" x="28.5" y="-458.3" font-family="Helvetica,sans-Serif" font-size="11.00" fill="#000000">billing_facility_id</text>
<polygon fill="none" stroke="#000000" points="8.5,-432.2 8.5,-451.2 175.5,-451.2 175.5,-432.2 8.5,-432.2"/>
<text text-anchor="start" x="11.5" y="-438.3" font-family="Helvetica,sans-Serif" font-size="11.00" fill="#000000">...</text>
<polygon fill="#ffffff" stroke="transparent" points="8.5,-413.2 8.5,-432.2 82.5,-432.2 82.5,-413.2 8.5,-413.2"/>
<polygon fill="none" stroke="#000000" points="8.5,-413.2 8.5,-432.2 82.5,-432.2 82.5,-413.2 8.5,-413.2"/>
<text text-anchor="start" x="11.5" y="-419.3" font-family="Helvetica,sans-Serif" font-size="11.00" fill="#000000">&lt; 2</text>
<polygon fill="#ffffff" stroke="transparent" points="82.5,-413.2 82.5,-432.2 121.5,-432.2 121.5,-413.2 82.5,-413.2"/>
<polygon fill="none" stroke="#000000" points="82.5,-413.2 82.5,-432.2 121.5,-432.2 121.5,-413.2 82.5,-413.2"/>
<text text-anchor="start" x="112.3862" y="-419.3" font-family="Helvetica,sans-Serif" font-size="11.00" fill="#000000"> &#160;</text>
<polygon fill="#ffffff" stroke="transparent" points="121.5,-413.2 121.5,-432.2 175.5,-432.2 175.5,-413.2 121.5,-413.2"/>
<polygon fill="none" stroke="#000000" points="121.5,-413.2 121.5,-432.2 175.5,-432.2 175.5,-413.2 121.5,-413.2"/>
<text text-anchor="start" x="150.7904" y="-419.3" font-family="Helvetica,sans-Serif" font-size="11.00" fill="#000000">61 &gt;</text>
</a>
</g>
</g>
<!-- form_ankleinjury&#45;&gt;users -->
<g id="edge3" class="edge">
<title>form_ankleinjury:w&#45;&gt;users:e</title>
<path fill="none" stroke="#000000" d="M427.9422,-510.0789C338.5106,-508.5912 307.0837,-494.3972 216,-524.2 195.6706,-530.8518 196.89,-550.2 175.5,-550.2"/>
<polygon fill="#000000" stroke="#000000" points="434.5003,-510.1334 442.47,-513.7999 438.5001,-510.1667 442.5,-510.2 442.5,-510.2 442.5,-510.2 438.5001,-510.1667 442.53,-506.6001 434.5003,-510.1334 434.5003,-510.1334"/>
<ellipse fill="none" stroke="#000000" cx="431.3004" cy="-510.1068" rx="3.2" ry="3.2"/>
</g>
<!-- groups&#45;&gt;users -->
<g id="edge4" class="edge">
<title>groups:w&#45;&gt;users:e</title>
<path fill="none" stroke="#000000" d="M251.1335,-414.6704C223.1383,-442.4498 207.9407,-550.2 175.5,-550.2"/>
<polygon fill="#000000" stroke="#000000" points="257.2993,-411.6857 266.0686,-411.4403 260.8997,-409.9429 264.5,-408.2 264.5,-408.2 264.5,-408.2 260.8997,-409.9429 262.9314,-404.9597 257.2993,-411.6857 257.2993,-411.6857"/>
<ellipse fill="none" stroke="#000000" cx="254.419" cy="-413.08" rx="3.2" ry="3.2"/>
</g>
<!-- patient_data&#45;&gt;users -->
<g id="edge5" class="edge">
<title>patient_data:w&#45;&gt;users:e</title>
<path fill="none" stroke="#000000" d="M210.2027,-603.3836C198.7382,-600.2593 192.0655,-594.2 175.5,-594.2"/>
<polygon fill="#000000" stroke="#000000" points="216.5638,-604.1917 224.0463,-608.7713 220.5319,-604.6958 224.5,-605.2 224.5,-605.2 224.5,-605.2 220.5319,-604.6958 224.9537,-601.6287 216.5638,-604.1917 216.5638,-604.1917"/>
<ellipse fill="none" stroke="#000000" cx="213.3893" cy="-603.7884" rx="3.2" ry="3.2"/>
</g>
<!-- patient_data&#45;&gt;users -->
<g id="edge6" class="edge">
<title>patient_data:w&#45;&gt;users:e</title>
<path fill="none" stroke="#000000" d="M210.7659,-666.6139C191.8724,-650.0372 210.0427,-594.2 175.5,-594.2"/>
<polygon fill="#000000" stroke="#000000" points="216.9119,-668.6661 223.3598,-674.6147 220.7059,-669.9331 224.5,-671.2 224.5,-671.2 224.5,-671.2 220.7059,-669.9331 225.6402,-667.7853 216.9119,-668.6661 216.9119,-668.6661"/>
<ellipse fill="none" stroke="#000000" cx="213.8766" cy="-667.6526" rx="3.2" ry="3.2"/>
</g>
<!-- patient_data&#45;&gt;users -->
<g id="edge7" class="edge">
<title>patient_data:w&#45;&gt;users:e</title>
<path fill="none" stroke="#000000" d="M210.6265,-644.1243C196.2102,-630.5086 202.0999,-594.2 175.5,-594.2"/>
<polygon fill="#000000" stroke="#000000" points="216.987,-646.4513 223.2631,-652.5808 220.7435,-647.8257 224.5,-649.2 224.5,-649.2 224.5,-649.2 220.7435,-647.8257 225.7369,-645.8192 216.987,-646.4513 216.987,-646.4513"/>
<ellipse fill="none" stroke="#000000" cx="213.9818" cy="-645.3518" rx="3.2" ry="3.2"/>
</g>
<!-- patient_data&#45;&gt;users -->
<g id="edge8" class="edge">
<title>patient_data:w&#45;&gt;users:e</title>
<path fill="none" stroke="#000000" d="M210.2027,-585.0164C198.7382,-588.1407 192.0655,-594.2 175.5,-594.2"/>
<polygon fill="#000000" stroke="#000000" points="216.5638,-584.2083 224.9537,-586.7713 220.5319,-583.7042 224.5,-583.2 224.5,-583.2 224.5,-583.2 220.5319,-583.7042 224.0463,-579.6287 216.5638,-584.2083 216.5638,-584.2083"/>
<ellipse fill="none" stroke="#000000" cx="213.3893" cy="-584.6116" rx="3.2" ry="3.2"/>
</g>
</g>
</svg>
