<?xml version="1.0" encoding="UTF-8" standalone="no"?>
<!DOCTYPE svg PUBLIC "-//W3C//DTD SVG 1.1//EN"
 "http://www.w3.org/Graphics/SVG/1.1/DTD/svg11.dtd">
<!-- Generated by graphviz version 2.40.1 (20161225.0304)
 -->
<!-- Title: oneDegreeRelationshipsDiagram Pages: 1 -->
<svg width="214pt" height="118pt"
 viewBox="0.00 0.00 214.00 118.20" xmlns="http://www.w3.org/2000/svg" xmlns:xlink="http://www.w3.org/1999/xlink">
<g id="graph0" class="graph" transform="scale(1 1) rotate(0) translate(4 114.2)">
<title>oneDegreeRelationshipsDiagram</title>
<polygon fill="#ffffff" stroke="transparent" points="-4,4 -4,-114.2 210,-114.2 210,4 -4,4"/>
<text text-anchor="middle" x="72.4936" y="-7.3" font-family="Helvetica,sans-Serif" font-size="11.00" fill="#000000">Generated by SchemaSpy</text>
<!-- gacl_aco_sections_seq -->
<g id="node1" class="node">
<title>gacl_aco_sections_seq</title>
<g id="a_node1"><a xlink:href="../../tables/gacl_aco_sections_seq.html" xlink:title="gacl_aco_sections_seq" target="_top">
<polygon fill="#ffffff" stroke="transparent" points="8,-38.2 8,-106.2 198,-106.2 198,-38.2 8,-38.2"/>
<polygon fill="#f5f5f5" stroke="transparent" points="10,-81.2 10,-104.2 196,-104.2 196,-81.2 10,-81.2"/>
<polygon fill="none" stroke="#000000" points="10,-81.2 10,-104.2 196,-104.2 196,-81.2 10,-81.2"/>
<text text-anchor="start" x="15" y="-89.8" font-family="Helvetica,sans-Serif" font-weight="bold" font-size="11.00" fill="#000000">gacl_aco_sections_seq</text>
<text text-anchor="start" x="161.0437" y="-89.3" font-family="Helvetica,sans-Serif" font-size="11.00" fill="#000000">[table]</text>
<polygon fill="none" stroke="#000000" points="10,-59.2 10,-81.2 161,-81.2 161,-59.2 10,-59.2"/>
<text text-anchor="start" x="30" y="-66.3" font-family="Helvetica,sans-Serif" font-size="11.00" fill="#000000">id</text>
<polygon fill="none" stroke="#000000" points="161,-59.2 161,-81.2 196,-81.2 196,-59.2 161,-59.2"/>
<text text-anchor="start" x="163.5219" y="-66.9" font-family="Helvetica,sans-Serif" font-size="11.00" fill="#000000">int[10]</text>
<polygon fill="#ffffff" stroke="transparent" points="10,-40.2 10,-59.2 90,-59.2 90,-40.2 10,-40.2"/>
<polygon fill="none" stroke="#000000" points="10,-40.2 10,-59.2 90,-59.2 90,-40.2 10,-40.2"/>
<text text-anchor="start" x="13" y="-46.3" font-family="Helvetica,sans-Serif" font-size="11.00" fill="#000000">&lt; 0</text>
<polygon fill="#ffffff" stroke="transparent" points="90,-40.2 90,-59.2 161,-59.2 161,-40.2 90,-40.2"/>
<polygon fill="none" stroke="#000000" points="90,-40.2 90,-59.2 161,-59.2 161,-40.2 90,-40.2"/>
<text text-anchor="start" x="151.8862" y="-46.3" font-family="Helvetica,sans-Serif" font-size="11.00" fill="#000000"> &#160;</text>
<polygon fill="#ffffff" stroke="transparent" points="161,-40.2 161,-59.2 196,-59.2 196,-40.2 161,-40.2"/>
<polygon fill="none" stroke="#000000" points="161,-40.2 161,-59.2 196,-59.2 196,-40.2 161,-40.2"/>
<text text-anchor="start" x="177.4053" y="-46.3" font-family="Helvetica,sans-Serif" font-size="11.00" fill="#000000">0 &gt;</text>
<polygon fill="none" stroke="#000000" stroke-width="2" points="9,-39.2 9,-105.2 197,-105.2 197,-39.2 9,-39.2"/>
</a>
</g>
</g>
</g>
</svg>
