<?xml version="1.0" encoding="UTF-8" standalone="no"?>
<!DOCTYPE svg PUBLIC "-//W3C//DTD SVG 1.1//EN"
 "http://www.w3.org/Graphics/SVG/1.1/DTD/svg11.dtd">
<!-- Generated by graphviz version 2.40.1 (20161225.0304)
 -->
<!-- Title: oneDegreeRelationshipsDiagram Pages: 1 -->
<svg width="279pt" height="338pt"
 viewBox="0.00 0.00 279.00 338.20" xmlns="http://www.w3.org/2000/svg" xmlns:xlink="http://www.w3.org/1999/xlink">
<g id="graph0" class="graph" transform="scale(1 1) rotate(0) translate(4 334.2)">
<title>oneDegreeRelationshipsDiagram</title>
<polygon fill="#ffffff" stroke="transparent" points="-4,4 -4,-334.2 275,-334.2 275,4 -4,4"/>
<text text-anchor="middle" x="72.4936" y="-7.3" font-family="Helvetica,sans-Serif" font-size="11.00" fill="#000000">Generated by SchemaSpy</text>
<!-- icd10_reimbr_pcs_9_10 -->
<g id="node1" class="node">
<title>icd10_reimbr_pcs_9_10</title>
<g id="a_node1"><a xlink:href="../../tables/icd10_reimbr_pcs_9_10.html" xlink:title="icd10_reimbr_pcs_9_10" target="_top">
<polygon fill="#ffffff" stroke="transparent" points="8,-38.2 8,-326.2 263,-326.2 263,-38.2 8,-38.2"/>
<polygon fill="#f5f5f5" stroke="transparent" points="10.5,-301.2 10.5,-324.2 261.5,-324.2 261.5,-301.2 10.5,-301.2"/>
<polygon fill="none" stroke="#000000" points="10.5,-301.2 10.5,-324.2 261.5,-324.2 261.5,-301.2 10.5,-301.2"/>
<text text-anchor="start" x="15.5" y="-309.8" font-family="Helvetica,sans-Serif" font-weight="bold" font-size="11.00" fill="#000000">icd10_reimbr_pcs_9_10</text>
<text text-anchor="start" x="226.5437" y="-309.3" font-family="Helvetica,sans-Serif" font-size="11.00" fill="#000000">[table]</text>
<polygon fill="#ffffff" stroke="transparent" points="10.5,-279.2 10.5,-301.2 163.5,-301.2 163.5,-279.2 10.5,-279.2"/>
<polygon fill="none" stroke="#000000" points="10.5,-279.2 10.5,-301.2 163.5,-301.2 163.5,-279.2 10.5,-279.2"/>
<text text-anchor="start" x="30.5" y="-286.3" font-family="Helvetica,sans-Serif" font-size="11.00" fill="#000000">map_id</text>
<polygon fill="none" stroke="#000000" points="163.5,-279.2 163.5,-301.2 261.5,-301.2 261.5,-279.2 163.5,-279.2"/>
<text text-anchor="start" x="166.3429" y="-286.9" font-family="Helvetica,sans-Serif" font-size="11.00" fill="#000000">bigint unsigned[20]</text>
<polygon fill="none" stroke="#000000" points="10.5,-257.2 10.5,-279.2 163.5,-279.2 163.5,-257.2 10.5,-257.2"/>
<text text-anchor="start" x="30.5" y="-264.3" font-family="Helvetica,sans-Serif" font-size="11.00" fill="#000000">code</text>
<polygon fill="none" stroke="#000000" points="163.5,-257.2 163.5,-279.2 261.5,-279.2 261.5,-257.2 163.5,-257.2"/>
<text text-anchor="start" x="166.5" y="-264.9" font-family="Helvetica,sans-Serif" font-size="11.00" fill="#000000">varchar[8]</text>
<polygon fill="none" stroke="#000000" points="10.5,-235.2 10.5,-257.2 163.5,-257.2 163.5,-235.2 10.5,-235.2"/>
<text text-anchor="start" x="30.5" y="-242.3" font-family="Helvetica,sans-Serif" font-size="11.00" fill="#000000">code_cnt</text>
<polygon fill="none" stroke="#000000" points="163.5,-235.2 163.5,-257.2 261.5,-257.2 261.5,-235.2 163.5,-235.2"/>
<text text-anchor="start" x="166.5" y="-242.9" font-family="Helvetica,sans-Serif" font-size="11.00" fill="#000000">tinyint[3]</text>
<polygon fill="none" stroke="#000000" points="10.5,-213.2 10.5,-235.2 163.5,-235.2 163.5,-213.2 10.5,-213.2"/>
<text text-anchor="start" x="30.5" y="-220.3" font-family="Helvetica,sans-Serif" font-size="11.00" fill="#000000">ICD9_01</text>
<polygon fill="none" stroke="#000000" points="163.5,-213.2 163.5,-235.2 261.5,-235.2 261.5,-213.2 163.5,-213.2"/>
<text text-anchor="start" x="166.5" y="-220.9" font-family="Helvetica,sans-Serif" font-size="11.00" fill="#000000">varchar[5]</text>
<polygon fill="none" stroke="#000000" points="10.5,-191.2 10.5,-213.2 163.5,-213.2 163.5,-191.2 10.5,-191.2"/>
<text text-anchor="start" x="30.5" y="-198.3" font-family="Helvetica,sans-Serif" font-size="11.00" fill="#000000">ICD9_02</text>
<polygon fill="none" stroke="#000000" points="163.5,-191.2 163.5,-213.2 261.5,-213.2 261.5,-191.2 163.5,-191.2"/>
<text text-anchor="start" x="166.5" y="-198.9" font-family="Helvetica,sans-Serif" font-size="11.00" fill="#000000">varchar[5]</text>
<polygon fill="none" stroke="#000000" points="10.5,-169.2 10.5,-191.2 163.5,-191.2 163.5,-169.2 10.5,-169.2"/>
<text text-anchor="start" x="30.5" y="-176.3" font-family="Helvetica,sans-Serif" font-size="11.00" fill="#000000">ICD9_03</text>
<polygon fill="none" stroke="#000000" points="163.5,-169.2 163.5,-191.2 261.5,-191.2 261.5,-169.2 163.5,-169.2"/>
<text text-anchor="start" x="166.5" y="-176.9" font-family="Helvetica,sans-Serif" font-size="11.00" fill="#000000">varchar[5]</text>
<polygon fill="none" stroke="#000000" points="10.5,-147.2 10.5,-169.2 163.5,-169.2 163.5,-147.2 10.5,-147.2"/>
<text text-anchor="start" x="30.5" y="-154.3" font-family="Helvetica,sans-Serif" font-size="11.00" fill="#000000">ICD9_04</text>
<polygon fill="none" stroke="#000000" points="163.5,-147.2 163.5,-169.2 261.5,-169.2 261.5,-147.2 163.5,-147.2"/>
<text text-anchor="start" x="166.5" y="-154.9" font-family="Helvetica,sans-Serif" font-size="11.00" fill="#000000">varchar[5]</text>
<polygon fill="none" stroke="#000000" points="10.5,-125.2 10.5,-147.2 163.5,-147.2 163.5,-125.2 10.5,-125.2"/>
<text text-anchor="start" x="30.5" y="-132.3" font-family="Helvetica,sans-Serif" font-size="11.00" fill="#000000">ICD9_05</text>
<polygon fill="none" stroke="#000000" points="163.5,-125.2 163.5,-147.2 261.5,-147.2 261.5,-125.2 163.5,-125.2"/>
<text text-anchor="start" x="166.5" y="-132.9" font-family="Helvetica,sans-Serif" font-size="11.00" fill="#000000">varchar[5]</text>
<polygon fill="none" stroke="#000000" points="10.5,-103.2 10.5,-125.2 163.5,-125.2 163.5,-103.2 10.5,-103.2"/>
<text text-anchor="start" x="30.5" y="-110.3" font-family="Helvetica,sans-Serif" font-size="11.00" fill="#000000">ICD9_06</text>
<polygon fill="none" stroke="#000000" points="163.5,-103.2 163.5,-125.2 261.5,-125.2 261.5,-103.2 163.5,-103.2"/>
<text text-anchor="start" x="166.5" y="-110.9" font-family="Helvetica,sans-Serif" font-size="11.00" fill="#000000">varchar[5]</text>
<polygon fill="none" stroke="#000000" points="10.5,-81.2 10.5,-103.2 163.5,-103.2 163.5,-81.2 10.5,-81.2"/>
<text text-anchor="start" x="30.5" y="-88.3" font-family="Helvetica,sans-Serif" font-size="11.00" fill="#000000">active</text>
<polygon fill="none" stroke="#000000" points="163.5,-81.2 163.5,-103.2 261.5,-103.2 261.5,-81.2 163.5,-81.2"/>
<text text-anchor="start" x="166.5" y="-88.9" font-family="Helvetica,sans-Serif" font-size="11.00" fill="#000000">tinyint[3]</text>
<polygon fill="none" stroke="#000000" points="10.5,-59.2 10.5,-81.2 163.5,-81.2 163.5,-59.2 10.5,-59.2"/>
<text text-anchor="start" x="30.5" y="-66.3" font-family="Helvetica,sans-Serif" font-size="11.00" fill="#000000">revision</text>
<polygon fill="none" stroke="#000000" points="163.5,-59.2 163.5,-81.2 261.5,-81.2 261.5,-59.2 163.5,-59.2"/>
<text text-anchor="start" x="166.5" y="-66.9" font-family="Helvetica,sans-Serif" font-size="11.00" fill="#000000">int[10]</text>
<polygon fill="#ffffff" stroke="transparent" points="10.5,-40.2 10.5,-59.2 91.5,-59.2 91.5,-40.2 10.5,-40.2"/>
<polygon fill="none" stroke="#000000" points="10.5,-40.2 10.5,-59.2 91.5,-59.2 91.5,-40.2 10.5,-40.2"/>
<text text-anchor="start" x="13.5" y="-46.3" font-family="Helvetica,sans-Serif" font-size="11.00" fill="#000000">&lt; 0</text>
<polygon fill="#ffffff" stroke="transparent" points="91.5,-40.2 91.5,-59.2 163.5,-59.2 163.5,-40.2 91.5,-40.2"/>
<polygon fill="none" stroke="#000000" points="91.5,-40.2 91.5,-59.2 163.5,-59.2 163.5,-40.2 91.5,-40.2"/>
<text text-anchor="start" x="154.3862" y="-46.3" font-family="Helvetica,sans-Serif" font-size="11.00" fill="#000000"> &#160;</text>
<polygon fill="#ffffff" stroke="transparent" points="163.5,-40.2 163.5,-59.2 261.5,-59.2 261.5,-40.2 163.5,-40.2"/>
<polygon fill="none" stroke="#000000" points="163.5,-40.2 163.5,-59.2 261.5,-59.2 261.5,-40.2 163.5,-40.2"/>
<text text-anchor="start" x="242.9053" y="-46.3" font-family="Helvetica,sans-Serif" font-size="11.00" fill="#000000">0 &gt;</text>
<polygon fill="none" stroke="#000000" stroke-width="2" points="9,-39.2 9,-325.2 262,-325.2 262,-39.2 9,-39.2"/>
</a>
</g>
</g>
</g>
</svg>
