<?xml version="1.0" encoding="UTF-8" standalone="no"?>
<!DOCTYPE svg PUBLIC "-//W3C//DTD SVG 1.1//EN"
 "http://www.w3.org/Graphics/SVG/1.1/DTD/svg11.dtd">
<!-- Generated by graphviz version 2.40.1 (20161225.0304)
 -->
<!-- Title: oneDegreeRelationshipsDiagram Pages: 1 -->
<svg width="259pt" height="228pt"
 viewBox="0.00 0.00 259.00 228.20" xmlns="http://www.w3.org/2000/svg" xmlns:xlink="http://www.w3.org/1999/xlink">
<g id="graph0" class="graph" transform="scale(1 1) rotate(0) translate(4 224.2)">
<title>oneDegreeRelationshipsDiagram</title>
<polygon fill="#ffffff" stroke="transparent" points="-4,4 -4,-224.2 255,-224.2 255,4 -4,4"/>
<text text-anchor="middle" x="72.4936" y="-7.3" font-family="Helvetica,sans-Serif" font-size="11.00" fill="#000000">Generated by SchemaSpy</text>
<!-- icd10_gem_dx_9_10 -->
<g id="node1" class="node">
<title>icd10_gem_dx_9_10</title>
<g id="a_node1"><a xlink:href="../../tables/icd10_gem_dx_9_10.html" xlink:title="icd10_gem_dx_9_10" target="_top">
<polygon fill="#ffffff" stroke="transparent" points="8,-38.2 8,-216.2 243,-216.2 243,-38.2 8,-38.2"/>
<polygon fill="#f5f5f5" stroke="transparent" points="10.5,-191.2 10.5,-214.2 241.5,-214.2 241.5,-191.2 10.5,-191.2"/>
<polygon fill="none" stroke="#000000" points="10.5,-191.2 10.5,-214.2 241.5,-214.2 241.5,-191.2 10.5,-191.2"/>
<text text-anchor="start" x="15.5" y="-199.8" font-family="Helvetica,sans-Serif" font-weight="bold" font-size="11.00" fill="#000000">icd10_gem_dx_9_10</text>
<text text-anchor="start" x="206.5437" y="-199.3" font-family="Helvetica,sans-Serif" font-size="11.00" fill="#000000">[table]</text>
<polygon fill="#ffffff" stroke="transparent" points="10.5,-169.2 10.5,-191.2 143.5,-191.2 143.5,-169.2 10.5,-169.2"/>
<polygon fill="none" stroke="#000000" points="10.5,-169.2 10.5,-191.2 143.5,-191.2 143.5,-169.2 10.5,-169.2"/>
<text text-anchor="start" x="30.5" y="-176.3" font-family="Helvetica,sans-Serif" font-size="11.00" fill="#000000">map_id</text>
<polygon fill="none" stroke="#000000" points="143.5,-169.2 143.5,-191.2 241.5,-191.2 241.5,-169.2 143.5,-169.2"/>
<text text-anchor="start" x="146.3429" y="-176.9" font-family="Helvetica,sans-Serif" font-size="11.00" fill="#000000">bigint unsigned[20]</text>
<polygon fill="none" stroke="#000000" points="10.5,-147.2 10.5,-169.2 143.5,-169.2 143.5,-147.2 10.5,-147.2"/>
<text text-anchor="start" x="30.5" y="-154.3" font-family="Helvetica,sans-Serif" font-size="11.00" fill="#000000">dx_icd9_source</text>
<polygon fill="none" stroke="#000000" points="143.5,-147.2 143.5,-169.2 241.5,-169.2 241.5,-147.2 143.5,-147.2"/>
<text text-anchor="start" x="146.5" y="-154.9" font-family="Helvetica,sans-Serif" font-size="11.00" fill="#000000">varchar[5]</text>
<polygon fill="none" stroke="#000000" points="10.5,-125.2 10.5,-147.2 143.5,-147.2 143.5,-125.2 10.5,-125.2"/>
<text text-anchor="start" x="30.5" y="-132.3" font-family="Helvetica,sans-Serif" font-size="11.00" fill="#000000">dx_icd10_target</text>
<polygon fill="none" stroke="#000000" points="143.5,-125.2 143.5,-147.2 241.5,-147.2 241.5,-125.2 143.5,-125.2"/>
<text text-anchor="start" x="146.5" y="-132.9" font-family="Helvetica,sans-Serif" font-size="11.00" fill="#000000">varchar[7]</text>
<polygon fill="none" stroke="#000000" points="10.5,-103.2 10.5,-125.2 143.5,-125.2 143.5,-103.2 10.5,-103.2"/>
<text text-anchor="start" x="30.5" y="-110.3" font-family="Helvetica,sans-Serif" font-size="11.00" fill="#000000">flags</text>
<polygon fill="none" stroke="#000000" points="143.5,-103.2 143.5,-125.2 241.5,-125.2 241.5,-103.2 143.5,-103.2"/>
<text text-anchor="start" x="146.5" y="-110.9" font-family="Helvetica,sans-Serif" font-size="11.00" fill="#000000">varchar[5]</text>
<polygon fill="none" stroke="#000000" points="10.5,-81.2 10.5,-103.2 143.5,-103.2 143.5,-81.2 10.5,-81.2"/>
<text text-anchor="start" x="30.5" y="-88.3" font-family="Helvetica,sans-Serif" font-size="11.00" fill="#000000">active</text>
<polygon fill="none" stroke="#000000" points="143.5,-81.2 143.5,-103.2 241.5,-103.2 241.5,-81.2 143.5,-81.2"/>
<text text-anchor="start" x="146.5" y="-88.9" font-family="Helvetica,sans-Serif" font-size="11.00" fill="#000000">tinyint[3]</text>
<polygon fill="none" stroke="#000000" points="10.5,-59.2 10.5,-81.2 143.5,-81.2 143.5,-59.2 10.5,-59.2"/>
<text text-anchor="start" x="30.5" y="-66.3" font-family="Helvetica,sans-Serif" font-size="11.00" fill="#000000">revision</text>
<polygon fill="none" stroke="#000000" points="143.5,-59.2 143.5,-81.2 241.5,-81.2 241.5,-59.2 143.5,-59.2"/>
<text text-anchor="start" x="146.5" y="-66.9" font-family="Helvetica,sans-Serif" font-size="11.00" fill="#000000">int[10]</text>
<polygon fill="#ffffff" stroke="transparent" points="10.5,-40.2 10.5,-59.2 81.5,-59.2 81.5,-40.2 10.5,-40.2"/>
<polygon fill="none" stroke="#000000" points="10.5,-40.2 10.5,-59.2 81.5,-59.2 81.5,-40.2 10.5,-40.2"/>
<text text-anchor="start" x="13.5" y="-46.3" font-family="Helvetica,sans-Serif" font-size="11.00" fill="#000000">&lt; 0</text>
<polygon fill="#ffffff" stroke="transparent" points="81.5,-40.2 81.5,-59.2 143.5,-59.2 143.5,-40.2 81.5,-40.2"/>
<polygon fill="none" stroke="#000000" points="81.5,-40.2 81.5,-59.2 143.5,-59.2 143.5,-40.2 81.5,-40.2"/>
<text text-anchor="start" x="134.3862" y="-46.3" font-family="Helvetica,sans-Serif" font-size="11.00" fill="#000000"> &#160;</text>
<polygon fill="#ffffff" stroke="transparent" points="143.5,-40.2 143.5,-59.2 241.5,-59.2 241.5,-40.2 143.5,-40.2"/>
<polygon fill="none" stroke="#000000" points="143.5,-40.2 143.5,-59.2 241.5,-59.2 241.5,-40.2 143.5,-40.2"/>
<text text-anchor="start" x="222.9053" y="-46.3" font-family="Helvetica,sans-Serif" font-size="11.00" fill="#000000">0 &gt;</text>
<polygon fill="none" stroke="#000000" stroke-width="2" points="9,-39.2 9,-215.2 242,-215.2 242,-39.2 9,-39.2"/>
</a>
</g>
</g>
</g>
</svg>
