<?xml version="1.0" encoding="UTF-8" standalone="no"?>
<!DOCTYPE svg PUBLIC "-//W3C//DTD SVG 1.1//EN"
 "http://www.w3.org/Graphics/SVG/1.1/DTD/svg11.dtd">
<!-- Generated by graphviz version 2.40.1 (20161225.0304)
 -->
<!-- Title: oneDegreeRelationshipsDiagram Pages: 1 -->
<svg width="819pt" height="865pt"
 viewBox="0.00 0.00 819.00 864.70" xmlns="http://www.w3.org/2000/svg" xmlns:xlink="http://www.w3.org/1999/xlink">
<g id="graph0" class="graph" transform="scale(1 1) rotate(0) translate(4 860.7)">
<title>oneDegreeRelationshipsDiagram</title>
<polygon fill="#ffffff" stroke="transparent" points="-4,4 -4,-860.7 815,-860.7 815,4 -4,4"/>
<text text-anchor="middle" x="72.4936" y="-7.3" font-family="Helvetica,sans-Serif" font-size="11.00" fill="#000000">Generated by SchemaSpy</text>
<!-- eligibility_verification -->
<g id="node1" class="node">
<title>eligibility_verification</title>
<g id="a_node1"><a xlink:href="../../tables/eligibility_verification.html" xlink:title="eligibility_verification" target="_top">
<polygon fill="#ffffff" stroke="transparent" points="618,-747.7 618,-852.7 803,-852.7 803,-747.7 618,-747.7"/>
<polygon fill="#f5f5f5" stroke="transparent" points="618.5,-829.2 618.5,-852.2 803.5,-852.2 803.5,-829.2 618.5,-829.2"/>
<polygon fill="none" stroke="#000000" points="618.5,-829.2 618.5,-852.2 803.5,-852.2 803.5,-829.2 618.5,-829.2"/>
<text text-anchor="start" x="623.5" y="-837.8" font-family="Helvetica,sans-Serif" font-weight="bold" font-size="11.00" fill="#000000">eligibility_verification</text>
<text text-anchor="start" x="769.0219" y="-837.3" font-family="Helvetica,sans-Serif" font-size="11.00" fill="#000000">[table]</text>
<polygon fill="none" stroke="#000000" points="618.5,-807.2 618.5,-829.2 803.5,-829.2 803.5,-807.2 618.5,-807.2"/>
<image xlink:href="../../images/primaryKeys.png" width="11px" height="12px" preserveAspectRatio="xMinYMin meet" x="623.5" y="-824.2"/>
<text text-anchor="start" x="647.5" y="-814.3" font-family="Helvetica,sans-Serif" font-size="11.00" fill="#000000">verification_id</text>
<polygon fill="#ffffff" stroke="transparent" points="618.5,-785.2 618.5,-807.2 803.5,-807.2 803.5,-785.2 618.5,-785.2"/>
<polygon fill="none" stroke="#000000" points="618.5,-785.2 618.5,-807.2 803.5,-807.2 803.5,-785.2 618.5,-785.2"/>
<image xlink:href="../../images/foreignKeys.png" width="11px" height="12px" preserveAspectRatio="xMinYMin meet" x="623.5" y="-802.2"/>
<text text-anchor="start" x="647.5" y="-792.3" font-family="Helvetica,sans-Serif" font-size="11.00" fill="#000000">insurance_id</text>
<polygon fill="none" stroke="#000000" points="618.5,-766.2 618.5,-785.2 803.5,-785.2 803.5,-766.2 618.5,-766.2"/>
<text text-anchor="start" x="621.5" y="-772.3" font-family="Helvetica,sans-Serif" font-size="11.00" fill="#000000">...</text>
<polygon fill="#ffffff" stroke="transparent" points="618.5,-747.2 618.5,-766.2 704.5,-766.2 704.5,-747.2 618.5,-747.2"/>
<polygon fill="none" stroke="#000000" points="618.5,-747.2 618.5,-766.2 704.5,-766.2 704.5,-747.2 618.5,-747.2"/>
<text text-anchor="start" x="621.5" y="-753.3" font-family="Helvetica,sans-Serif" font-size="11.00" fill="#000000">&lt; 1</text>
<polygon fill="#ffffff" stroke="transparent" points="704.5,-747.2 704.5,-766.2 749.5,-766.2 749.5,-747.2 704.5,-747.2"/>
<polygon fill="none" stroke="#000000" points="704.5,-747.2 704.5,-766.2 749.5,-766.2 749.5,-747.2 704.5,-747.2"/>
<text text-anchor="start" x="740.3862" y="-753.3" font-family="Helvetica,sans-Serif" font-size="11.00" fill="#000000"> &#160;</text>
<polygon fill="#ffffff" stroke="transparent" points="749.5,-747.2 749.5,-766.2 803.5,-766.2 803.5,-747.2 749.5,-747.2"/>
<polygon fill="none" stroke="#000000" points="749.5,-747.2 749.5,-766.2 803.5,-766.2 803.5,-747.2 749.5,-747.2"/>
<text text-anchor="start" x="784.9053" y="-753.3" font-family="Helvetica,sans-Serif" font-size="11.00" fill="#000000">1 &gt;</text>
</a>
</g>
</g>
<!-- insurance_data -->
<g id="node2" class="node">
<title>insurance_data</title>
<g id="a_node2"><a xlink:href="../../tables/insurance_data.html" xlink:title="insurance_data" target="_top">
<polygon fill="#ffffff" stroke="transparent" points="245,-38.2 245,-832.2 569,-832.2 569,-38.2 245,-38.2"/>
<polygon fill="#f5f5f5" stroke="transparent" points="247,-807.2 247,-830.2 567,-830.2 567,-807.2 247,-807.2"/>
<polygon fill="none" stroke="#000000" points="247,-807.2 247,-830.2 567,-830.2 567,-807.2 247,-807.2"/>
<text text-anchor="start" x="252" y="-815.8" font-family="Helvetica,sans-Serif" font-weight="bold" font-size="11.00" fill="#000000">insurance_data</text>
<text text-anchor="start" x="532.0437" y="-815.3" font-family="Helvetica,sans-Serif" font-size="11.00" fill="#000000">[table]</text>
<polygon fill="none" stroke="#000000" points="247,-785.2 247,-807.2 500,-807.2 500,-785.2 247,-785.2"/>
<image xlink:href="../../images/primaryKeys.png" width="11px" height="12px" preserveAspectRatio="xMinYMin meet" x="252" y="-802.2"/>
<text text-anchor="start" x="267" y="-792.3" font-family="Helvetica,sans-Serif" font-size="11.00" fill="#000000">id</text>
<polygon fill="none" stroke="#000000" points="500,-785.2 500,-807.2 567,-807.2 567,-785.2 500,-785.2"/>
<text text-anchor="start" x="503" y="-792.9" font-family="Helvetica,sans-Serif" font-size="11.00" fill="#000000">bigint[19]</text>
<polygon fill="#ffffff" stroke="transparent" points="247,-763.2 247,-785.2 500,-785.2 500,-763.2 247,-763.2"/>
<polygon fill="none" stroke="#000000" points="247,-763.2 247,-785.2 500,-785.2 500,-763.2 247,-763.2"/>
<text text-anchor="start" x="267" y="-770.3" font-family="Helvetica,sans-Serif" font-size="11.00" fill="#000000">type</text>
<polygon fill="none" stroke="#000000" points="500,-763.2 500,-785.2 567,-785.2 567,-763.2 500,-763.2"/>
<text text-anchor="start" x="503" y="-770.9" font-family="Helvetica,sans-Serif" font-size="11.00" fill="#000000">enum[9]</text>
<polygon fill="none" stroke="#000000" points="247,-741.2 247,-763.2 500,-763.2 500,-741.2 247,-741.2"/>
<image xlink:href="../../images/foreignKeys.png" width="11px" height="12px" preserveAspectRatio="xMinYMin meet" x="252" y="-758.2"/>
<text text-anchor="start" x="267" y="-748.3" font-family="Helvetica,sans-Serif" font-size="11.00" fill="#000000">provider</text>
<polygon fill="none" stroke="#000000" points="500,-741.2 500,-763.2 567,-763.2 567,-741.2 500,-741.2"/>
<text text-anchor="start" x="502.9365" y="-748.9" font-family="Helvetica,sans-Serif" font-size="11.00" fill="#000000">varchar[255]</text>
<polygon fill="none" stroke="#000000" points="247,-719.2 247,-741.2 500,-741.2 500,-719.2 247,-719.2"/>
<text text-anchor="start" x="267" y="-726.3" font-family="Helvetica,sans-Serif" font-size="11.00" fill="#000000">plan_name</text>
<polygon fill="none" stroke="#000000" points="500,-719.2 500,-741.2 567,-741.2 567,-719.2 500,-719.2"/>
<text text-anchor="start" x="502.9365" y="-726.9" font-family="Helvetica,sans-Serif" font-size="11.00" fill="#000000">varchar[255]</text>
<polygon fill="none" stroke="#000000" points="247,-697.2 247,-719.2 500,-719.2 500,-697.2 247,-697.2"/>
<text text-anchor="start" x="267" y="-704.3" font-family="Helvetica,sans-Serif" font-size="11.00" fill="#000000">policy_number</text>
<polygon fill="none" stroke="#000000" points="500,-697.2 500,-719.2 567,-719.2 567,-697.2 500,-697.2"/>
<text text-anchor="start" x="502.9365" y="-704.9" font-family="Helvetica,sans-Serif" font-size="11.00" fill="#000000">varchar[255]</text>
<polygon fill="none" stroke="#000000" points="247,-675.2 247,-697.2 500,-697.2 500,-675.2 247,-675.2"/>
<text text-anchor="start" x="267" y="-682.3" font-family="Helvetica,sans-Serif" font-size="11.00" fill="#000000">group_number</text>
<polygon fill="none" stroke="#000000" points="500,-675.2 500,-697.2 567,-697.2 567,-675.2 500,-675.2"/>
<text text-anchor="start" x="502.9365" y="-682.9" font-family="Helvetica,sans-Serif" font-size="11.00" fill="#000000">varchar[255]</text>
<polygon fill="none" stroke="#000000" points="247,-653.2 247,-675.2 500,-675.2 500,-653.2 247,-653.2"/>
<text text-anchor="start" x="267" y="-660.3" font-family="Helvetica,sans-Serif" font-size="11.00" fill="#000000">subscriber_lname</text>
<polygon fill="none" stroke="#000000" points="500,-653.2 500,-675.2 567,-675.2 567,-653.2 500,-653.2"/>
<text text-anchor="start" x="502.9365" y="-660.9" font-family="Helvetica,sans-Serif" font-size="11.00" fill="#000000">varchar[255]</text>
<polygon fill="none" stroke="#000000" points="247,-631.2 247,-653.2 500,-653.2 500,-631.2 247,-631.2"/>
<text text-anchor="start" x="267" y="-638.3" font-family="Helvetica,sans-Serif" font-size="11.00" fill="#000000">subscriber_mname</text>
<polygon fill="none" stroke="#000000" points="500,-631.2 500,-653.2 567,-653.2 567,-631.2 500,-631.2"/>
<text text-anchor="start" x="502.9365" y="-638.9" font-family="Helvetica,sans-Serif" font-size="11.00" fill="#000000">varchar[255]</text>
<polygon fill="none" stroke="#000000" points="247,-609.2 247,-631.2 500,-631.2 500,-609.2 247,-609.2"/>
<text text-anchor="start" x="267" y="-616.3" font-family="Helvetica,sans-Serif" font-size="11.00" fill="#000000">subscriber_fname</text>
<polygon fill="none" stroke="#000000" points="500,-609.2 500,-631.2 567,-631.2 567,-609.2 500,-609.2"/>
<text text-anchor="start" x="502.9365" y="-616.9" font-family="Helvetica,sans-Serif" font-size="11.00" fill="#000000">varchar[255]</text>
<polygon fill="none" stroke="#000000" points="247,-587.2 247,-609.2 500,-609.2 500,-587.2 247,-587.2"/>
<text text-anchor="start" x="267" y="-594.3" font-family="Helvetica,sans-Serif" font-size="11.00" fill="#000000">subscriber_relationship</text>
<polygon fill="none" stroke="#000000" points="500,-587.2 500,-609.2 567,-609.2 567,-587.2 500,-587.2"/>
<text text-anchor="start" x="502.9365" y="-594.9" font-family="Helvetica,sans-Serif" font-size="11.00" fill="#000000">varchar[255]</text>
<polygon fill="none" stroke="#000000" points="247,-565.2 247,-587.2 500,-587.2 500,-565.2 247,-565.2"/>
<text text-anchor="start" x="267" y="-572.3" font-family="Helvetica,sans-Serif" font-size="11.00" fill="#000000">subscriber_ss</text>
<polygon fill="none" stroke="#000000" points="500,-565.2 500,-587.2 567,-587.2 567,-565.2 500,-565.2"/>
<text text-anchor="start" x="502.9365" y="-572.9" font-family="Helvetica,sans-Serif" font-size="11.00" fill="#000000">varchar[255]</text>
<polygon fill="none" stroke="#000000" points="247,-543.2 247,-565.2 500,-565.2 500,-543.2 247,-543.2"/>
<text text-anchor="start" x="267" y="-550.3" font-family="Helvetica,sans-Serif" font-size="11.00" fill="#000000">subscriber_DOB</text>
<polygon fill="none" stroke="#000000" points="500,-543.2 500,-565.2 567,-565.2 567,-543.2 500,-543.2"/>
<text text-anchor="start" x="503" y="-550.9" font-family="Helvetica,sans-Serif" font-size="11.00" fill="#000000">date[10]</text>
<polygon fill="none" stroke="#000000" points="247,-521.2 247,-543.2 500,-543.2 500,-521.2 247,-521.2"/>
<text text-anchor="start" x="267" y="-528.3" font-family="Helvetica,sans-Serif" font-size="11.00" fill="#000000">subscriber_street</text>
<polygon fill="none" stroke="#000000" points="500,-521.2 500,-543.2 567,-543.2 567,-521.2 500,-521.2"/>
<text text-anchor="start" x="502.9365" y="-528.9" font-family="Helvetica,sans-Serif" font-size="11.00" fill="#000000">varchar[255]</text>
<polygon fill="none" stroke="#000000" points="247,-499.2 247,-521.2 500,-521.2 500,-499.2 247,-499.2"/>
<text text-anchor="start" x="267" y="-506.3" font-family="Helvetica,sans-Serif" font-size="11.00" fill="#000000">subscriber_postal_code</text>
<polygon fill="none" stroke="#000000" points="500,-499.2 500,-521.2 567,-521.2 567,-499.2 500,-499.2"/>
<text text-anchor="start" x="502.9365" y="-506.9" font-family="Helvetica,sans-Serif" font-size="11.00" fill="#000000">varchar[255]</text>
<polygon fill="none" stroke="#000000" points="247,-477.2 247,-499.2 500,-499.2 500,-477.2 247,-477.2"/>
<text text-anchor="start" x="267" y="-484.3" font-family="Helvetica,sans-Serif" font-size="11.00" fill="#000000">subscriber_city</text>
<polygon fill="none" stroke="#000000" points="500,-477.2 500,-499.2 567,-499.2 567,-477.2 500,-477.2"/>
<text text-anchor="start" x="502.9365" y="-484.9" font-family="Helvetica,sans-Serif" font-size="11.00" fill="#000000">varchar[255]</text>
<polygon fill="none" stroke="#000000" points="247,-455.2 247,-477.2 500,-477.2 500,-455.2 247,-455.2"/>
<text text-anchor="start" x="267" y="-462.3" font-family="Helvetica,sans-Serif" font-size="11.00" fill="#000000">subscriber_state</text>
<polygon fill="none" stroke="#000000" points="500,-455.2 500,-477.2 567,-477.2 567,-455.2 500,-455.2"/>
<text text-anchor="start" x="502.9365" y="-462.9" font-family="Helvetica,sans-Serif" font-size="11.00" fill="#000000">varchar[255]</text>
<polygon fill="none" stroke="#000000" points="247,-433.2 247,-455.2 500,-455.2 500,-433.2 247,-433.2"/>
<text text-anchor="start" x="267" y="-440.3" font-family="Helvetica,sans-Serif" font-size="11.00" fill="#000000">subscriber_country</text>
<polygon fill="none" stroke="#000000" points="500,-433.2 500,-455.2 567,-455.2 567,-433.2 500,-433.2"/>
<text text-anchor="start" x="502.9365" y="-440.9" font-family="Helvetica,sans-Serif" font-size="11.00" fill="#000000">varchar[255]</text>
<polygon fill="none" stroke="#000000" points="247,-411.2 247,-433.2 500,-433.2 500,-411.2 247,-411.2"/>
<text text-anchor="start" x="267" y="-418.3" font-family="Helvetica,sans-Serif" font-size="11.00" fill="#000000">subscriber_phone</text>
<polygon fill="none" stroke="#000000" points="500,-411.2 500,-433.2 567,-433.2 567,-411.2 500,-411.2"/>
<text text-anchor="start" x="502.9365" y="-418.9" font-family="Helvetica,sans-Serif" font-size="11.00" fill="#000000">varchar[255]</text>
<polygon fill="none" stroke="#000000" points="247,-389.2 247,-411.2 500,-411.2 500,-389.2 247,-389.2"/>
<text text-anchor="start" x="267" y="-396.3" font-family="Helvetica,sans-Serif" font-size="11.00" fill="#000000">subscriber_employer</text>
<polygon fill="none" stroke="#000000" points="500,-389.2 500,-411.2 567,-411.2 567,-389.2 500,-389.2"/>
<text text-anchor="start" x="502.9365" y="-396.9" font-family="Helvetica,sans-Serif" font-size="11.00" fill="#000000">varchar[255]</text>
<polygon fill="none" stroke="#000000" points="247,-367.2 247,-389.2 500,-389.2 500,-367.2 247,-367.2"/>
<text text-anchor="start" x="267" y="-374.3" font-family="Helvetica,sans-Serif" font-size="11.00" fill="#000000">subscriber_employer_street</text>
<polygon fill="none" stroke="#000000" points="500,-367.2 500,-389.2 567,-389.2 567,-367.2 500,-367.2"/>
<text text-anchor="start" x="502.9365" y="-374.9" font-family="Helvetica,sans-Serif" font-size="11.00" fill="#000000">varchar[255]</text>
<polygon fill="none" stroke="#000000" points="247,-345.2 247,-367.2 500,-367.2 500,-345.2 247,-345.2"/>
<text text-anchor="start" x="267" y="-352.3" font-family="Helvetica,sans-Serif" font-size="11.00" fill="#000000">subscriber_employer_postal_code</text>
<polygon fill="none" stroke="#000000" points="500,-345.2 500,-367.2 567,-367.2 567,-345.2 500,-345.2"/>
<text text-anchor="start" x="502.9365" y="-352.9" font-family="Helvetica,sans-Serif" font-size="11.00" fill="#000000">varchar[255]</text>
<polygon fill="none" stroke="#000000" points="247,-323.2 247,-345.2 500,-345.2 500,-323.2 247,-323.2"/>
<text text-anchor="start" x="267" y="-330.3" font-family="Helvetica,sans-Serif" font-size="11.00" fill="#000000">subscriber_employer_state</text>
<polygon fill="none" stroke="#000000" points="500,-323.2 500,-345.2 567,-345.2 567,-323.2 500,-323.2"/>
<text text-anchor="start" x="502.9365" y="-330.9" font-family="Helvetica,sans-Serif" font-size="11.00" fill="#000000">varchar[255]</text>
<polygon fill="none" stroke="#000000" points="247,-301.2 247,-323.2 500,-323.2 500,-301.2 247,-301.2"/>
<text text-anchor="start" x="267" y="-308.3" font-family="Helvetica,sans-Serif" font-size="11.00" fill="#000000">subscriber_employer_country</text>
<polygon fill="none" stroke="#000000" points="500,-301.2 500,-323.2 567,-323.2 567,-301.2 500,-301.2"/>
<text text-anchor="start" x="502.9365" y="-308.9" font-family="Helvetica,sans-Serif" font-size="11.00" fill="#000000">varchar[255]</text>
<polygon fill="none" stroke="#000000" points="247,-279.2 247,-301.2 500,-301.2 500,-279.2 247,-279.2"/>
<text text-anchor="start" x="267" y="-286.3" font-family="Helvetica,sans-Serif" font-size="11.00" fill="#000000">subscriber_employer_city</text>
<polygon fill="none" stroke="#000000" points="500,-279.2 500,-301.2 567,-301.2 567,-279.2 500,-279.2"/>
<text text-anchor="start" x="502.9365" y="-286.9" font-family="Helvetica,sans-Serif" font-size="11.00" fill="#000000">varchar[255]</text>
<polygon fill="none" stroke="#000000" points="247,-257.2 247,-279.2 500,-279.2 500,-257.2 247,-257.2"/>
<text text-anchor="start" x="267" y="-264.3" font-family="Helvetica,sans-Serif" font-size="11.00" fill="#000000">copay</text>
<polygon fill="none" stroke="#000000" points="500,-257.2 500,-279.2 567,-279.2 567,-257.2 500,-257.2"/>
<text text-anchor="start" x="502.9365" y="-264.9" font-family="Helvetica,sans-Serif" font-size="11.00" fill="#000000">varchar[255]</text>
<polygon fill="#ffffff" stroke="transparent" points="247,-235.2 247,-257.2 500,-257.2 500,-235.2 247,-235.2"/>
<polygon fill="none" stroke="#000000" points="247,-235.2 247,-257.2 500,-257.2 500,-235.2 247,-235.2"/>
<text text-anchor="start" x="267" y="-242.3" font-family="Helvetica,sans-Serif" font-size="11.00" fill="#000000">date</text>
<polygon fill="none" stroke="#000000" points="500,-235.2 500,-257.2 567,-257.2 567,-235.2 500,-235.2"/>
<text text-anchor="start" x="503" y="-242.9" font-family="Helvetica,sans-Serif" font-size="11.00" fill="#000000">date[10]</text>
<polygon fill="#ffffff" stroke="transparent" points="247,-213.2 247,-235.2 500,-235.2 500,-213.2 247,-213.2"/>
<polygon fill="none" stroke="#000000" points="247,-213.2 247,-235.2 500,-235.2 500,-213.2 247,-213.2"/>
<image xlink:href="../../images/foreignKeys.png" width="11px" height="12px" preserveAspectRatio="xMinYMin meet" x="252" y="-230.2"/>
<text text-anchor="start" x="267" y="-220.3" font-family="Helvetica,sans-Serif" font-size="11.00" fill="#000000">pid</text>
<polygon fill="none" stroke="#000000" points="500,-213.2 500,-235.2 567,-235.2 567,-213.2 500,-213.2"/>
<text text-anchor="start" x="503" y="-220.9" font-family="Helvetica,sans-Serif" font-size="11.00" fill="#000000">bigint[19]</text>
<polygon fill="none" stroke="#000000" points="247,-191.2 247,-213.2 500,-213.2 500,-191.2 247,-191.2"/>
<text text-anchor="start" x="267" y="-198.3" font-family="Helvetica,sans-Serif" font-size="11.00" fill="#000000">subscriber_sex</text>
<polygon fill="none" stroke="#000000" points="500,-191.2 500,-213.2 567,-213.2 567,-191.2 500,-191.2"/>
<text text-anchor="start" x="503" y="-198.9" font-family="Helvetica,sans-Serif" font-size="11.00" fill="#000000">varchar[25]</text>
<polygon fill="none" stroke="#000000" points="247,-169.2 247,-191.2 500,-191.2 500,-169.2 247,-169.2"/>
<text text-anchor="start" x="267" y="-176.3" font-family="Helvetica,sans-Serif" font-size="11.00" fill="#000000">accept_assignment</text>
<polygon fill="none" stroke="#000000" points="500,-169.2 500,-191.2 567,-191.2 567,-169.2 500,-169.2"/>
<text text-anchor="start" x="503" y="-176.9" font-family="Helvetica,sans-Serif" font-size="11.00" fill="#000000">varchar[5]</text>
<polygon fill="none" stroke="#000000" points="247,-147.2 247,-169.2 500,-169.2 500,-147.2 247,-147.2"/>
<text text-anchor="start" x="267" y="-154.3" font-family="Helvetica,sans-Serif" font-size="11.00" fill="#000000">policy_type</text>
<polygon fill="none" stroke="#000000" points="500,-147.2 500,-169.2 567,-169.2 567,-147.2 500,-147.2"/>
<text text-anchor="start" x="503" y="-154.9" font-family="Helvetica,sans-Serif" font-size="11.00" fill="#000000">varchar[25]</text>
<polygon fill="#ffffff" stroke="transparent" points="247,-125.2 247,-147.2 500,-147.2 500,-125.2 247,-125.2"/>
<polygon fill="none" stroke="#000000" points="247,-125.2 247,-147.2 500,-147.2 500,-125.2 247,-125.2"/>
<text text-anchor="start" x="267" y="-132.3" font-family="Helvetica,sans-Serif" font-size="11.00" fill="#000000">uuid</text>
<polygon fill="none" stroke="#000000" points="500,-125.2 500,-147.2 567,-147.2 567,-125.2 500,-125.2"/>
<text text-anchor="start" x="503" y="-132.9" font-family="Helvetica,sans-Serif" font-size="11.00" fill="#000000">binary[16]</text>
<polygon fill="none" stroke="#000000" points="247,-103.2 247,-125.2 500,-125.2 500,-103.2 247,-103.2"/>
<text text-anchor="start" x="267" y="-110.3" font-family="Helvetica,sans-Serif" font-size="11.00" fill="#000000">subscriber_street_line_2</text>
<polygon fill="none" stroke="#000000" points="500,-103.2 500,-125.2 567,-125.2 567,-103.2 500,-103.2"/>
<text text-anchor="start" x="503" y="-110.9" font-family="Helvetica,sans-Serif" font-size="11.00" fill="#000000">text[65535]</text>
<polygon fill="none" stroke="#000000" points="247,-81.2 247,-103.2 500,-103.2 500,-81.2 247,-81.2"/>
<text text-anchor="start" x="267" y="-88.3" font-family="Helvetica,sans-Serif" font-size="11.00" fill="#000000">subscriber_employer_street_line_2</text>
<polygon fill="none" stroke="#000000" points="500,-81.2 500,-103.2 567,-103.2 567,-81.2 500,-81.2"/>
<text text-anchor="start" x="503" y="-88.9" font-family="Helvetica,sans-Serif" font-size="11.00" fill="#000000">text[65535]</text>
<polygon fill="none" stroke="#000000" points="247,-59.2 247,-81.2 500,-81.2 500,-59.2 247,-59.2"/>
<text text-anchor="start" x="267" y="-66.3" font-family="Helvetica,sans-Serif" font-size="11.00" fill="#000000">date_end</text>
<polygon fill="none" stroke="#000000" points="500,-59.2 500,-81.2 567,-81.2 567,-59.2 500,-59.2"/>
<text text-anchor="start" x="503" y="-66.9" font-family="Helvetica,sans-Serif" font-size="11.00" fill="#000000">date[10]</text>
<polygon fill="#ffffff" stroke="transparent" points="247,-40.2 247,-59.2 378,-59.2 378,-40.2 247,-40.2"/>
<polygon fill="none" stroke="#000000" points="247,-40.2 247,-59.2 378,-59.2 378,-40.2 247,-40.2"/>
<text text-anchor="start" x="250" y="-46.3" font-family="Helvetica,sans-Serif" font-size="11.00" fill="#000000">&lt; 2</text>
<polygon fill="#ffffff" stroke="transparent" points="378,-40.2 378,-59.2 500,-59.2 500,-40.2 378,-40.2"/>
<polygon fill="none" stroke="#000000" points="378,-40.2 378,-59.2 500,-59.2 500,-40.2 378,-40.2"/>
<text text-anchor="start" x="490.8862" y="-46.3" font-family="Helvetica,sans-Serif" font-size="11.00" fill="#000000"> &#160;</text>
<polygon fill="#ffffff" stroke="transparent" points="500,-40.2 500,-59.2 567,-59.2 567,-40.2 500,-40.2"/>
<polygon fill="none" stroke="#000000" points="500,-40.2 500,-59.2 567,-59.2 567,-40.2 500,-40.2"/>
<text text-anchor="start" x="548.4053" y="-46.3" font-family="Helvetica,sans-Serif" font-size="11.00" fill="#000000">1 &gt;</text>
<polygon fill="none" stroke="#000000" stroke-width="2" points="246,-39.2 246,-831.2 568,-831.2 568,-39.2 246,-39.2"/>
</a>
</g>
</g>
<!-- eligibility_verification&#45;&gt;insurance_data -->
<g id="edge1" class="edge">
<title>eligibility_verification:w&#45;&gt;insurance_data:e</title>
<path fill="none" stroke="#000000" d="M604.0156,-796.2C591.6771,-796.2 584.1667,-796.2 567,-796.2"/>
<polygon fill="#000000" stroke="#000000" points="610.5,-796.2001 618.5,-799.8 614.5,-796.2 618.5,-796.2 618.5,-796.2 618.5,-796.2 614.5,-796.2 618.5,-792.6 610.5,-796.2001 610.5,-796.2001"/>
<ellipse fill="none" stroke="#000000" cx="607.3" cy="-796.2001" rx="3.2" ry="3.2"/>
</g>
<!-- patient_data -->
<g id="node3" class="node">
<title>patient_data</title>
<g id="a_node3"><a xlink:href="../../tables/patient_data.html" xlink:title="patient_data" target="_top">
<polygon fill="#ffffff" stroke="transparent" points="18.5,-109.7 18.5,-346.7 185.5,-346.7 185.5,-109.7 18.5,-109.7"/>
<polygon fill="#f5f5f5" stroke="transparent" points="19,-323.2 19,-346.2 186,-346.2 186,-323.2 19,-323.2"/>
<polygon fill="none" stroke="#000000" points="19,-323.2 19,-346.2 186,-346.2 186,-323.2 19,-323.2"/>
<text text-anchor="start" x="24" y="-331.8" font-family="Helvetica,sans-Serif" font-weight="bold" font-size="11.00" fill="#000000">patient_data</text>
<text text-anchor="start" x="151.0437" y="-331.3" font-family="Helvetica,sans-Serif" font-size="11.00" fill="#000000">[table]</text>
<polygon fill="#ffffff" stroke="transparent" points="19,-301.2 19,-323.2 186,-323.2 186,-301.2 19,-301.2"/>
<polygon fill="none" stroke="#000000" points="19,-301.2 19,-323.2 186,-323.2 186,-301.2 19,-301.2"/>
<text text-anchor="start" x="39" y="-308.3" font-family="Helvetica,sans-Serif" font-size="11.00" fill="#000000">id</text>
<polygon fill="none" stroke="#000000" points="19,-279.2 19,-301.2 186,-301.2 186,-279.2 19,-279.2"/>
<image xlink:href="../../images/foreignKeys.png" width="11px" height="12px" preserveAspectRatio="xMinYMin meet" x="24" y="-296.2"/>
<text text-anchor="start" x="39" y="-286.3" font-family="Helvetica,sans-Serif" font-size="11.00" fill="#000000">pharmacy_id</text>
<polygon fill="none" stroke="#000000" points="19,-257.2 19,-279.2 186,-279.2 186,-257.2 19,-257.2"/>
<image xlink:href="../../images/foreignKeys.png" width="11px" height="12px" preserveAspectRatio="xMinYMin meet" x="24" y="-274.2"/>
<text text-anchor="start" x="39" y="-264.3" font-family="Helvetica,sans-Serif" font-size="11.00" fill="#000000">providerID</text>
<polygon fill="none" stroke="#000000" points="19,-235.2 19,-257.2 186,-257.2 186,-235.2 19,-235.2"/>
<image xlink:href="../../images/foreignKeys.png" width="11px" height="12px" preserveAspectRatio="xMinYMin meet" x="24" y="-252.2"/>
<text text-anchor="start" x="39" y="-242.3" font-family="Helvetica,sans-Serif" font-size="11.00" fill="#000000">ref_providerID</text>
<polygon fill="none" stroke="#000000" points="19,-213.2 19,-235.2 186,-235.2 186,-213.2 19,-213.2"/>
<image xlink:href="../../images/primaryKeys.png" width="11px" height="12px" preserveAspectRatio="xMinYMin meet" x="24" y="-230.2"/>
<text text-anchor="start" x="39" y="-220.3" font-family="Helvetica,sans-Serif" font-size="11.00" fill="#000000">pid</text>
<polygon fill="#ffffff" stroke="transparent" points="19,-191.2 19,-213.2 186,-213.2 186,-191.2 19,-191.2"/>
<polygon fill="none" stroke="#000000" points="19,-191.2 19,-213.2 186,-213.2 186,-191.2 19,-191.2"/>
<text text-anchor="start" x="39" y="-198.3" font-family="Helvetica,sans-Serif" font-size="11.00" fill="#000000">uuid</text>
<polygon fill="none" stroke="#000000" points="19,-169.2 19,-191.2 186,-191.2 186,-169.2 19,-169.2"/>
<image xlink:href="../../images/foreignKeys.png" width="11px" height="12px" preserveAspectRatio="xMinYMin meet" x="24" y="-186.2"/>
<text text-anchor="start" x="39" y="-176.3" font-family="Helvetica,sans-Serif" font-size="11.00" fill="#000000">created_by</text>
<polygon fill="none" stroke="#000000" points="19,-147.2 19,-169.2 186,-169.2 186,-147.2 19,-147.2"/>
<image xlink:href="../../images/foreignKeys.png" width="11px" height="12px" preserveAspectRatio="xMinYMin meet" x="24" y="-164.2"/>
<text text-anchor="start" x="39" y="-154.3" font-family="Helvetica,sans-Serif" font-size="11.00" fill="#000000">updated_by</text>
<polygon fill="none" stroke="#000000" points="19,-128.2 19,-147.2 186,-147.2 186,-128.2 19,-128.2"/>
<text text-anchor="start" x="22" y="-134.3" font-family="Helvetica,sans-Serif" font-size="11.00" fill="#000000">...</text>
<polygon fill="#ffffff" stroke="transparent" points="19,-109.2 19,-128.2 93,-128.2 93,-109.2 19,-109.2"/>
<polygon fill="none" stroke="#000000" points="19,-109.2 19,-128.2 93,-128.2 93,-109.2 19,-109.2"/>
<text text-anchor="start" x="22" y="-115.3" font-family="Helvetica,sans-Serif" font-size="11.00" fill="#000000">&lt; 5</text>
<polygon fill="#ffffff" stroke="transparent" points="93,-109.2 93,-128.2 132,-128.2 132,-109.2 93,-109.2"/>
<polygon fill="none" stroke="#000000" points="93,-109.2 93,-128.2 132,-128.2 132,-109.2 93,-109.2"/>
<text text-anchor="start" x="122.8862" y="-115.3" font-family="Helvetica,sans-Serif" font-size="11.00" fill="#000000"> &#160;</text>
<polygon fill="#ffffff" stroke="transparent" points="132,-109.2 132,-128.2 186,-128.2 186,-109.2 132,-109.2"/>
<polygon fill="none" stroke="#000000" points="132,-109.2 132,-128.2 186,-128.2 186,-109.2 132,-109.2"/>
<text text-anchor="start" x="161.2904" y="-115.3" font-family="Helvetica,sans-Serif" font-size="11.00" fill="#000000">85 &gt;</text>
</a>
</g>
</g>
<!-- insurance_data&#45;&gt;patient_data -->
<g id="edge2" class="edge">
<title>insurance_data:w&#45;&gt;patient_data:e</title>
<path fill="none" stroke="#000000" d="M232.1762,-224.2C216.1248,-224.2 207.3924,-224.2 186,-224.2"/>
<polygon fill="#000000" stroke="#000000" points="239,-224.2001 247,-227.8 243,-224.2 247,-224.2 247,-224.2 247,-224.2 243,-224.2 247,-220.6 239,-224.2001 239,-224.2001"/>
<ellipse fill="none" stroke="#000000" cx="235.8" cy="-224.2001" rx="3.2" ry="3.2"/>
</g>
<!-- insurance_companies -->
<g id="node4" class="node">
<title>insurance_companies</title>
<g id="a_node4"><a xlink:href="../../tables/insurance_companies.html" xlink:title="insurance_companies" target="_top">
<polygon fill="#ffffff" stroke="transparent" points="8,-659.7 8,-786.7 196,-786.7 196,-659.7 8,-659.7"/>
<polygon fill="#f5f5f5" stroke="transparent" points="8,-763.2 8,-786.2 196,-786.2 196,-763.2 8,-763.2"/>
<polygon fill="none" stroke="#000000" points="8,-763.2 8,-786.2 196,-786.2 196,-763.2 8,-763.2"/>
<text text-anchor="start" x="13" y="-771.8" font-family="Helvetica,sans-Serif" font-weight="bold" font-size="11.00" fill="#000000">insurance_companies</text>
<text text-anchor="start" x="161.0437" y="-771.3" font-family="Helvetica,sans-Serif" font-size="11.00" fill="#000000">[table]</text>
<polygon fill="none" stroke="#000000" points="8,-741.2 8,-763.2 196,-763.2 196,-741.2 8,-741.2"/>
<image xlink:href="../../images/primaryKeys.png" width="11px" height="12px" preserveAspectRatio="xMinYMin meet" x="13" y="-758.2"/>
<text text-anchor="start" x="28" y="-748.3" font-family="Helvetica,sans-Serif" font-size="11.00" fill="#000000">id</text>
<polygon fill="none" stroke="#000000" points="8,-719.2 8,-741.2 196,-741.2 196,-719.2 8,-719.2"/>
<image xlink:href="../../images/foreignKeys.png" width="11px" height="12px" preserveAspectRatio="xMinYMin meet" x="13" y="-736.2"/>
<text text-anchor="start" x="28" y="-726.3" font-family="Helvetica,sans-Serif" font-size="11.00" fill="#000000">ins_type_code</text>
<polygon fill="#ffffff" stroke="transparent" points="8,-697.2 8,-719.2 196,-719.2 196,-697.2 8,-697.2"/>
<polygon fill="none" stroke="#000000" points="8,-697.2 8,-719.2 196,-719.2 196,-697.2 8,-697.2"/>
<text text-anchor="start" x="28" y="-704.3" font-family="Helvetica,sans-Serif" font-size="11.00" fill="#000000">uuid</text>
<polygon fill="none" stroke="#000000" points="8,-678.2 8,-697.2 196,-697.2 196,-678.2 8,-678.2"/>
<text text-anchor="start" x="11" y="-684.3" font-family="Helvetica,sans-Serif" font-size="11.00" fill="#000000">...</text>
<polygon fill="#ffffff" stroke="transparent" points="8,-659.2 8,-678.2 96,-678.2 96,-659.2 8,-659.2"/>
<polygon fill="none" stroke="#000000" points="8,-659.2 8,-678.2 96,-678.2 96,-659.2 8,-659.2"/>
<text text-anchor="start" x="11" y="-665.3" font-family="Helvetica,sans-Serif" font-size="11.00" fill="#000000">&lt; 1</text>
<polygon fill="#ffffff" stroke="transparent" points="96,-659.2 96,-678.2 141,-678.2 141,-659.2 96,-659.2"/>
<polygon fill="none" stroke="#000000" points="96,-659.2 96,-678.2 141,-678.2 141,-659.2 96,-659.2"/>
<text text-anchor="start" x="131.8862" y="-665.3" font-family="Helvetica,sans-Serif" font-size="11.00" fill="#000000"> &#160;</text>
<polygon fill="#ffffff" stroke="transparent" points="141,-659.2 141,-678.2 196,-678.2 196,-659.2 141,-659.2"/>
<polygon fill="none" stroke="#000000" points="141,-659.2 141,-678.2 196,-678.2 196,-659.2 141,-659.2"/>
<text text-anchor="start" x="177.4053" y="-665.3" font-family="Helvetica,sans-Serif" font-size="11.00" fill="#000000">5 &gt;</text>
</a>
</g>
</g>
<!-- insurance_data&#45;&gt;insurance_companies -->
<g id="edge3" class="edge">
<title>insurance_data:w&#45;&gt;insurance_companies:e</title>
<path fill="none" stroke="#000000" d="M232.276,-752.2C220.2815,-752.2 212.8229,-752.2 196,-752.2"/>
<polygon fill="#000000" stroke="#000000" points="239,-752.2001 247,-755.8 243,-752.2 247,-752.2 247,-752.2 247,-752.2 243,-752.2 247,-748.6 239,-752.2001 239,-752.2001"/>
<ellipse fill="none" stroke="#000000" cx="235.8" cy="-752.2001" rx="3.2" ry="3.2"/>
</g>
</g>
</svg>
