<?xml version="1.0" encoding="UTF-8" standalone="no"?>
<!DOCTYPE svg PUBLIC "-//W3C//DTD SVG 1.1//EN"
 "http://www.w3.org/Graphics/SVG/1.1/DTD/svg11.dtd">
<!-- Generated by graphviz version 2.40.1 (20161225.0304)
 -->
<!-- Title: oneDegreeRelationshipsDiagram Pages: 1 -->
<svg width="820pt" height="715pt"
 viewBox="0.00 0.00 820.00 715.20" xmlns="http://www.w3.org/2000/svg" xmlns:xlink="http://www.w3.org/1999/xlink">
<g id="graph0" class="graph" transform="scale(1 1) rotate(0) translate(4 711.2)">
<title>oneDegreeRelationshipsDiagram</title>
<polygon fill="#ffffff" stroke="transparent" points="-4,4 -4,-711.2 816,-711.2 816,4 -4,4"/>
<text text-anchor="middle" x="72.4936" y="-7.3" font-family="Helvetica,sans-Serif" font-size="11.00" fill="#000000">Generated by SchemaSpy</text>
<!-- ar_session -->
<g id="node1" class="node">
<title>ar_session</title>
<g id="a_node1"><a xlink:href="../../tables/ar_session.html" xlink:title="ar_session" target="_top">
<polygon fill="#ffffff" stroke="transparent" points="608.5,-510.2 608.5,-703.2 746.5,-703.2 746.5,-510.2 608.5,-510.2"/>
<polygon fill="#f5f5f5" stroke="transparent" points="608.5,-679.7 608.5,-702.7 746.5,-702.7 746.5,-679.7 608.5,-679.7"/>
<polygon fill="none" stroke="#000000" points="608.5,-679.7 608.5,-702.7 746.5,-702.7 746.5,-679.7 608.5,-679.7"/>
<text text-anchor="start" x="613.5" y="-688.3" font-family="Helvetica,sans-Serif" font-weight="bold" font-size="11.00" fill="#000000">ar_session</text>
<text text-anchor="start" x="711.5437" y="-687.8" font-family="Helvetica,sans-Serif" font-size="11.00" fill="#000000">[table]</text>
<polygon fill="none" stroke="#000000" points="608.5,-657.7 608.5,-679.7 746.5,-679.7 746.5,-657.7 608.5,-657.7"/>
<image xlink:href="../../images/primaryKeys.png" width="11px" height="12px" preserveAspectRatio="xMinYMin meet" x="613.5" y="-674.7"/>
<text text-anchor="start" x="628.5" y="-664.8" font-family="Helvetica,sans-Serif" font-size="11.00" fill="#000000">session_id</text>
<polygon fill="none" stroke="#000000" points="608.5,-635.7 608.5,-657.7 746.5,-657.7 746.5,-635.7 608.5,-635.7"/>
<image xlink:href="../../images/foreignKeys.png" width="11px" height="12px" preserveAspectRatio="xMinYMin meet" x="613.5" y="-652.7"/>
<text text-anchor="start" x="628.5" y="-642.8" font-family="Helvetica,sans-Serif" font-size="11.00" fill="#000000">payer_id</text>
<polygon fill="#ffffff" stroke="transparent" points="608.5,-613.7 608.5,-635.7 746.5,-635.7 746.5,-613.7 608.5,-613.7"/>
<polygon fill="none" stroke="#000000" points="608.5,-613.7 608.5,-635.7 746.5,-635.7 746.5,-613.7 608.5,-613.7"/>
<text text-anchor="start" x="628.5" y="-620.8" font-family="Helvetica,sans-Serif" font-size="11.00" fill="#000000">user_id</text>
<polygon fill="#ffffff" stroke="transparent" points="608.5,-591.7 608.5,-613.7 746.5,-613.7 746.5,-591.7 608.5,-591.7"/>
<polygon fill="none" stroke="#000000" points="608.5,-591.7 608.5,-613.7 746.5,-613.7 746.5,-591.7 608.5,-591.7"/>
<text text-anchor="start" x="628.5" y="-598.8" font-family="Helvetica,sans-Serif" font-size="11.00" fill="#000000">closed</text>
<polygon fill="#ffffff" stroke="transparent" points="608.5,-569.7 608.5,-591.7 746.5,-591.7 746.5,-569.7 608.5,-569.7"/>
<polygon fill="none" stroke="#000000" points="608.5,-569.7 608.5,-591.7 746.5,-591.7 746.5,-569.7 608.5,-569.7"/>
<text text-anchor="start" x="628.5" y="-576.8" font-family="Helvetica,sans-Serif" font-size="11.00" fill="#000000">deposit_date</text>
<polygon fill="none" stroke="#000000" points="608.5,-547.7 608.5,-569.7 746.5,-569.7 746.5,-547.7 608.5,-547.7"/>
<image xlink:href="../../images/foreignKeys.png" width="11px" height="12px" preserveAspectRatio="xMinYMin meet" x="613.5" y="-564.7"/>
<text text-anchor="start" x="628.5" y="-554.8" font-family="Helvetica,sans-Serif" font-size="11.00" fill="#000000">patient_id</text>
<polygon fill="none" stroke="#000000" points="608.5,-528.7 608.5,-547.7 746.5,-547.7 746.5,-528.7 608.5,-528.7"/>
<text text-anchor="start" x="611.5" y="-534.8" font-family="Helvetica,sans-Serif" font-size="11.00" fill="#000000">...</text>
<polygon fill="#ffffff" stroke="transparent" points="608.5,-509.7 608.5,-528.7 671.5,-528.7 671.5,-509.7 608.5,-509.7"/>
<polygon fill="none" stroke="#000000" points="608.5,-509.7 608.5,-528.7 671.5,-528.7 671.5,-509.7 608.5,-509.7"/>
<text text-anchor="start" x="611.5" y="-515.8" font-family="Helvetica,sans-Serif" font-size="11.00" fill="#000000">&lt; 2</text>
<polygon fill="#ffffff" stroke="transparent" points="671.5,-509.7 671.5,-528.7 704.5,-528.7 704.5,-509.7 671.5,-509.7"/>
<polygon fill="none" stroke="#000000" points="671.5,-509.7 671.5,-528.7 704.5,-528.7 704.5,-509.7 671.5,-509.7"/>
<text text-anchor="start" x="695.3862" y="-515.8" font-family="Helvetica,sans-Serif" font-size="11.00" fill="#000000"> &#160;</text>
<polygon fill="#ffffff" stroke="transparent" points="704.5,-509.7 704.5,-528.7 746.5,-528.7 746.5,-509.7 704.5,-509.7"/>
<polygon fill="none" stroke="#000000" points="704.5,-509.7 704.5,-528.7 746.5,-528.7 746.5,-509.7 704.5,-509.7"/>
<text text-anchor="start" x="727.9053" y="-515.8" font-family="Helvetica,sans-Serif" font-size="11.00" fill="#000000">1 &gt;</text>
</a>
</g>
</g>
<!-- insurance_companies -->
<g id="node2" class="node">
<title>insurance_companies</title>
<g id="a_node2"><a xlink:href="../../tables/insurance_companies.html" xlink:title="insurance_companies" target="_top">
<polygon fill="#ffffff" stroke="transparent" points="243,-70.7 243,-402.7 502,-402.7 502,-70.7 243,-70.7"/>
<polygon fill="#f5f5f5" stroke="transparent" points="245.5,-377.7 245.5,-400.7 500.5,-400.7 500.5,-377.7 245.5,-377.7"/>
<polygon fill="none" stroke="#000000" points="245.5,-377.7 245.5,-400.7 500.5,-400.7 500.5,-377.7 245.5,-377.7"/>
<text text-anchor="start" x="250.5" y="-386.3" font-family="Helvetica,sans-Serif" font-weight="bold" font-size="11.00" fill="#000000">insurance_companies</text>
<text text-anchor="start" x="465.5437" y="-385.8" font-family="Helvetica,sans-Serif" font-size="11.00" fill="#000000">[table]</text>
<polygon fill="none" stroke="#000000" points="245.5,-355.7 245.5,-377.7 433.5,-377.7 433.5,-355.7 245.5,-355.7"/>
<image xlink:href="../../images/primaryKeys.png" width="11px" height="12px" preserveAspectRatio="xMinYMin meet" x="250.5" y="-372.7"/>
<text text-anchor="start" x="265.5" y="-362.8" font-family="Helvetica,sans-Serif" font-size="11.00" fill="#000000">id</text>
<polygon fill="none" stroke="#000000" points="433.5,-355.7 433.5,-377.7 500.5,-377.7 500.5,-355.7 433.5,-355.7"/>
<text text-anchor="start" x="436.5" y="-363.4" font-family="Helvetica,sans-Serif" font-size="11.00" fill="#000000">int[10]</text>
<polygon fill="#ffffff" stroke="transparent" points="245.5,-333.7 245.5,-355.7 433.5,-355.7 433.5,-333.7 245.5,-333.7"/>
<polygon fill="none" stroke="#000000" points="245.5,-333.7 245.5,-355.7 433.5,-355.7 433.5,-333.7 245.5,-333.7"/>
<text text-anchor="start" x="265.5" y="-340.8" font-family="Helvetica,sans-Serif" font-size="11.00" fill="#000000">uuid</text>
<polygon fill="none" stroke="#000000" points="433.5,-333.7 433.5,-355.7 500.5,-355.7 500.5,-333.7 433.5,-333.7"/>
<text text-anchor="start" x="436.5" y="-341.4" font-family="Helvetica,sans-Serif" font-size="11.00" fill="#000000">binary[16]</text>
<polygon fill="none" stroke="#000000" points="245.5,-311.7 245.5,-333.7 433.5,-333.7 433.5,-311.7 245.5,-311.7"/>
<text text-anchor="start" x="265.5" y="-318.8" font-family="Helvetica,sans-Serif" font-size="11.00" fill="#000000">name</text>
<polygon fill="none" stroke="#000000" points="433.5,-311.7 433.5,-333.7 500.5,-333.7 500.5,-311.7 433.5,-311.7"/>
<text text-anchor="start" x="436.4365" y="-319.4" font-family="Helvetica,sans-Serif" font-size="11.00" fill="#000000">varchar[255]</text>
<polygon fill="none" stroke="#000000" points="245.5,-289.7 245.5,-311.7 433.5,-311.7 433.5,-289.7 245.5,-289.7"/>
<text text-anchor="start" x="265.5" y="-296.8" font-family="Helvetica,sans-Serif" font-size="11.00" fill="#000000">attn</text>
<polygon fill="none" stroke="#000000" points="433.5,-289.7 433.5,-311.7 500.5,-311.7 500.5,-289.7 433.5,-289.7"/>
<text text-anchor="start" x="436.4365" y="-297.4" font-family="Helvetica,sans-Serif" font-size="11.00" fill="#000000">varchar[255]</text>
<polygon fill="none" stroke="#000000" points="245.5,-267.7 245.5,-289.7 433.5,-289.7 433.5,-267.7 245.5,-267.7"/>
<text text-anchor="start" x="265.5" y="-274.8" font-family="Helvetica,sans-Serif" font-size="11.00" fill="#000000">cms_id</text>
<polygon fill="none" stroke="#000000" points="433.5,-267.7 433.5,-289.7 500.5,-289.7 500.5,-267.7 433.5,-267.7"/>
<text text-anchor="start" x="436.5" y="-275.4" font-family="Helvetica,sans-Serif" font-size="11.00" fill="#000000">varchar[15]</text>
<polygon fill="none" stroke="#000000" points="245.5,-245.7 245.5,-267.7 433.5,-267.7 433.5,-245.7 245.5,-245.7"/>
<image xlink:href="../../images/foreignKeys.png" width="11px" height="12px" preserveAspectRatio="xMinYMin meet" x="250.5" y="-262.7"/>
<text text-anchor="start" x="265.5" y="-252.8" font-family="Helvetica,sans-Serif" font-size="11.00" fill="#000000">ins_type_code</text>
<polygon fill="none" stroke="#000000" points="433.5,-245.7 433.5,-267.7 500.5,-267.7 500.5,-245.7 433.5,-245.7"/>
<text text-anchor="start" x="436.5" y="-253.4" font-family="Helvetica,sans-Serif" font-size="11.00" fill="#000000">int[10]</text>
<polygon fill="none" stroke="#000000" points="245.5,-223.7 245.5,-245.7 433.5,-245.7 433.5,-223.7 245.5,-223.7"/>
<text text-anchor="start" x="265.5" y="-230.8" font-family="Helvetica,sans-Serif" font-size="11.00" fill="#000000">x12_receiver_id</text>
<polygon fill="none" stroke="#000000" points="433.5,-223.7 433.5,-245.7 500.5,-245.7 500.5,-223.7 433.5,-223.7"/>
<text text-anchor="start" x="436.5" y="-231.4" font-family="Helvetica,sans-Serif" font-size="11.00" fill="#000000">varchar[25]</text>
<polygon fill="none" stroke="#000000" points="245.5,-201.7 245.5,-223.7 433.5,-223.7 433.5,-201.7 245.5,-201.7"/>
<text text-anchor="start" x="265.5" y="-208.8" font-family="Helvetica,sans-Serif" font-size="11.00" fill="#000000">x12_default_partner_id</text>
<polygon fill="none" stroke="#000000" points="433.5,-201.7 433.5,-223.7 500.5,-223.7 500.5,-201.7 433.5,-201.7"/>
<text text-anchor="start" x="436.5" y="-209.4" font-family="Helvetica,sans-Serif" font-size="11.00" fill="#000000">int[10]</text>
<polygon fill="none" stroke="#000000" points="245.5,-179.7 245.5,-201.7 433.5,-201.7 433.5,-179.7 245.5,-179.7"/>
<text text-anchor="start" x="265.5" y="-186.8" font-family="Helvetica,sans-Serif" font-size="11.00" fill="#000000">alt_cms_id</text>
<polygon fill="none" stroke="#000000" points="433.5,-179.7 433.5,-201.7 500.5,-201.7 500.5,-179.7 433.5,-179.7"/>
<text text-anchor="start" x="436.5" y="-187.4" font-family="Helvetica,sans-Serif" font-size="11.00" fill="#000000">varchar[15]</text>
<polygon fill="none" stroke="#000000" points="245.5,-157.7 245.5,-179.7 433.5,-179.7 433.5,-157.7 245.5,-157.7"/>
<text text-anchor="start" x="265.5" y="-164.8" font-family="Helvetica,sans-Serif" font-size="11.00" fill="#000000">inactive</text>
<polygon fill="none" stroke="#000000" points="433.5,-157.7 433.5,-179.7 500.5,-179.7 500.5,-157.7 433.5,-157.7"/>
<text text-anchor="start" x="436.5" y="-165.4" font-family="Helvetica,sans-Serif" font-size="11.00" fill="#000000">bit[1]</text>
<polygon fill="none" stroke="#000000" points="245.5,-135.7 245.5,-157.7 433.5,-157.7 433.5,-135.7 245.5,-135.7"/>
<text text-anchor="start" x="265.5" y="-142.8" font-family="Helvetica,sans-Serif" font-size="11.00" fill="#000000">eligibility_id</text>
<polygon fill="none" stroke="#000000" points="433.5,-135.7 433.5,-157.7 500.5,-157.7 500.5,-135.7 433.5,-135.7"/>
<text text-anchor="start" x="436.5" y="-143.4" font-family="Helvetica,sans-Serif" font-size="11.00" fill="#000000">varchar[32]</text>
<polygon fill="none" stroke="#000000" points="245.5,-113.7 245.5,-135.7 433.5,-135.7 433.5,-113.7 245.5,-113.7"/>
<text text-anchor="start" x="265.5" y="-120.8" font-family="Helvetica,sans-Serif" font-size="11.00" fill="#000000">x12_default_eligibility_id</text>
<polygon fill="none" stroke="#000000" points="433.5,-113.7 433.5,-135.7 500.5,-135.7 500.5,-113.7 433.5,-113.7"/>
<text text-anchor="start" x="436.5" y="-121.4" font-family="Helvetica,sans-Serif" font-size="11.00" fill="#000000">int[10]</text>
<polygon fill="none" stroke="#000000" points="245.5,-91.7 245.5,-113.7 433.5,-113.7 433.5,-91.7 245.5,-91.7"/>
<text text-anchor="start" x="265.5" y="-98.8" font-family="Helvetica,sans-Serif" font-size="11.00" fill="#000000">cqm_sop</text>
<polygon fill="none" stroke="#000000" points="433.5,-91.7 433.5,-113.7 500.5,-113.7 500.5,-91.7 433.5,-91.7"/>
<text text-anchor="start" x="436.5" y="-99.4" font-family="Helvetica,sans-Serif" font-size="11.00" fill="#000000">int[10]</text>
<polygon fill="#ffffff" stroke="transparent" points="245.5,-72.7 245.5,-91.7 343.5,-91.7 343.5,-72.7 245.5,-72.7"/>
<polygon fill="none" stroke="#000000" points="245.5,-72.7 245.5,-91.7 343.5,-91.7 343.5,-72.7 245.5,-72.7"/>
<text text-anchor="start" x="248.5" y="-78.8" font-family="Helvetica,sans-Serif" font-size="11.00" fill="#000000">&lt; 1</text>
<polygon fill="#ffffff" stroke="transparent" points="343.5,-72.7 343.5,-91.7 433.5,-91.7 433.5,-72.7 343.5,-72.7"/>
<polygon fill="none" stroke="#000000" points="343.5,-72.7 343.5,-91.7 433.5,-91.7 433.5,-72.7 343.5,-72.7"/>
<text text-anchor="start" x="424.3862" y="-78.8" font-family="Helvetica,sans-Serif" font-size="11.00" fill="#000000"> &#160;</text>
<polygon fill="#ffffff" stroke="transparent" points="433.5,-72.7 433.5,-91.7 500.5,-91.7 500.5,-72.7 433.5,-72.7"/>
<polygon fill="none" stroke="#000000" points="433.5,-72.7 433.5,-91.7 500.5,-91.7 500.5,-72.7 433.5,-72.7"/>
<text text-anchor="start" x="481.9053" y="-78.8" font-family="Helvetica,sans-Serif" font-size="11.00" fill="#000000">4 &gt;</text>
<polygon fill="none" stroke="#000000" stroke-width="2" points="244,-71.7 244,-401.7 501,-401.7 501,-71.7 244,-71.7"/>
</a>
</g>
</g>
<!-- ar_session&#45;&gt;insurance_companies -->
<g id="edge1" class="edge">
<title>ar_session:w&#45;&gt;insurance_companies:e</title>
<path fill="none" stroke="#000000" d="M593.878,-645.3459C541.4435,-634.5645 566.5388,-561.4425 543,-499.7 520.8938,-441.7153 562.5557,-366.7 500.5,-366.7"/>
<polygon fill="#000000" stroke="#000000" points="600.5341,-645.9623 608.168,-650.2847 604.517,-646.3311 608.5,-646.7 608.5,-646.7 608.5,-646.7 604.517,-646.3311 608.832,-643.1153 600.5341,-645.9623 600.5341,-645.9623"/>
<ellipse fill="none" stroke="#000000" cx="597.3477" cy="-645.6672" rx="3.2" ry="3.2"/>
</g>
<!-- insurance_type_codes -->
<g id="node4" class="node">
<title>insurance_type_codes</title>
<g id="a_node4"><a xlink:href="../../tables/insurance_type_codes.html" xlink:title="insurance_type_codes" target="_top">
<polygon fill="#ffffff" stroke="transparent" points="8,-208.2 8,-291.2 194,-291.2 194,-208.2 8,-208.2"/>
<polygon fill="#f5f5f5" stroke="transparent" points="8,-267.7 8,-290.7 194,-290.7 194,-267.7 8,-267.7"/>
<polygon fill="none" stroke="#000000" points="8,-267.7 8,-290.7 194,-290.7 194,-267.7 8,-267.7"/>
<text text-anchor="start" x="13" y="-276.3" font-family="Helvetica,sans-Serif" font-weight="bold" font-size="11.00" fill="#000000">insurance_type_codes</text>
<text text-anchor="start" x="159.5219" y="-275.8" font-family="Helvetica,sans-Serif" font-size="11.00" fill="#000000">[table]</text>
<polygon fill="none" stroke="#000000" points="8,-245.7 8,-267.7 194,-267.7 194,-245.7 8,-245.7"/>
<image xlink:href="../../images/primaryKeys.png" width="11px" height="12px" preserveAspectRatio="xMinYMin meet" x="13" y="-262.7"/>
<text text-anchor="start" x="37" y="-252.8" font-family="Helvetica,sans-Serif" font-size="11.00" fill="#000000">id</text>
<polygon fill="none" stroke="#000000" points="8,-226.7 8,-245.7 194,-245.7 194,-226.7 8,-226.7"/>
<text text-anchor="start" x="11" y="-232.8" font-family="Helvetica,sans-Serif" font-size="11.00" fill="#000000">...</text>
<polygon fill="#ffffff" stroke="transparent" points="8,-207.7 8,-226.7 90,-226.7 90,-207.7 8,-207.7"/>
<polygon fill="none" stroke="#000000" points="8,-207.7 8,-226.7 90,-226.7 90,-207.7 8,-207.7"/>
<text text-anchor="start" x="11" y="-213.8" font-family="Helvetica,sans-Serif" font-size="11.00" fill="#000000"> &#160;</text>
<polygon fill="#ffffff" stroke="transparent" points="90,-207.7 90,-226.7 137,-226.7 137,-207.7 90,-207.7"/>
<polygon fill="none" stroke="#000000" points="90,-207.7 90,-226.7 137,-226.7 137,-207.7 90,-207.7"/>
<text text-anchor="start" x="127.8862" y="-213.8" font-family="Helvetica,sans-Serif" font-size="11.00" fill="#000000"> &#160;</text>
<polygon fill="#ffffff" stroke="transparent" points="137,-207.7 137,-226.7 194,-226.7 194,-207.7 137,-207.7"/>
<polygon fill="none" stroke="#000000" points="137,-207.7 137,-226.7 194,-226.7 194,-207.7 137,-207.7"/>
<text text-anchor="start" x="175.4053" y="-213.8" font-family="Helvetica,sans-Serif" font-size="11.00" fill="#000000">1 &gt;</text>
</a>
</g>
</g>
<!-- insurance_companies&#45;&gt;insurance_type_codes -->
<g id="edge4" class="edge">
<title>insurance_companies:w&#45;&gt;insurance_type_codes:e</title>
<path fill="none" stroke="#000000" d="M231.0156,-256.7C218.6771,-256.7 211.1667,-256.7 194,-256.7"/>
<polygon fill="#000000" stroke="#000000" points="237.5,-256.7001 245.5,-260.3 241.5,-256.7 245.5,-256.7 245.5,-256.7 245.5,-256.7 241.5,-256.7 245.5,-253.1 237.5,-256.7001 237.5,-256.7001"/>
<ellipse fill="none" stroke="#000000" cx="234.3" cy="-256.7001" rx="3.2" ry="3.2"/>
</g>
<!-- billing -->
<g id="node3" class="node">
<title>billing</title>
<g id="a_node3"><a xlink:href="../../tables/billing.html" xlink:title="billing" target="_top">
<polygon fill="#ffffff" stroke="transparent" points="617,-252.2 617,-489.2 738,-489.2 738,-252.2 617,-252.2"/>
<polygon fill="#f5f5f5" stroke="transparent" points="617.5,-465.7 617.5,-488.7 738.5,-488.7 738.5,-465.7 617.5,-465.7"/>
<polygon fill="none" stroke="#000000" points="617.5,-465.7 617.5,-488.7 738.5,-488.7 738.5,-465.7 617.5,-465.7"/>
<text text-anchor="start" x="622.5" y="-474.3" font-family="Helvetica,sans-Serif" font-weight="bold" font-size="11.00" fill="#000000">billing</text>
<text text-anchor="start" x="703.5437" y="-473.8" font-family="Helvetica,sans-Serif" font-size="11.00" fill="#000000">[table]</text>
<polygon fill="none" stroke="#000000" points="617.5,-443.7 617.5,-465.7 738.5,-465.7 738.5,-443.7 617.5,-443.7"/>
<image xlink:href="../../images/primaryKeys.png" width="11px" height="12px" preserveAspectRatio="xMinYMin meet" x="622.5" y="-460.7"/>
<text text-anchor="start" x="637.5" y="-450.8" font-family="Helvetica,sans-Serif" font-size="11.00" fill="#000000">id</text>
<polygon fill="#ffffff" stroke="transparent" points="617.5,-421.7 617.5,-443.7 738.5,-443.7 738.5,-421.7 617.5,-421.7"/>
<polygon fill="none" stroke="#000000" points="617.5,-421.7 617.5,-443.7 738.5,-443.7 738.5,-421.7 617.5,-421.7"/>
<image xlink:href="../../images/foreignKeys.png" width="11px" height="12px" preserveAspectRatio="xMinYMin meet" x="622.5" y="-438.7"/>
<text text-anchor="start" x="637.5" y="-428.8" font-family="Helvetica,sans-Serif" font-size="11.00" fill="#000000">pid</text>
<polygon fill="none" stroke="#000000" points="617.5,-399.7 617.5,-421.7 738.5,-421.7 738.5,-399.7 617.5,-399.7"/>
<image xlink:href="../../images/foreignKeys.png" width="11px" height="12px" preserveAspectRatio="xMinYMin meet" x="622.5" y="-416.7"/>
<text text-anchor="start" x="637.5" y="-406.8" font-family="Helvetica,sans-Serif" font-size="11.00" fill="#000000">provider_id</text>
<polygon fill="none" stroke="#000000" points="617.5,-377.7 617.5,-399.7 738.5,-399.7 738.5,-377.7 617.5,-377.7"/>
<image xlink:href="../../images/foreignKeys.png" width="11px" height="12px" preserveAspectRatio="xMinYMin meet" x="622.5" y="-394.7"/>
<text text-anchor="start" x="637.5" y="-384.8" font-family="Helvetica,sans-Serif" font-size="11.00" fill="#000000">user</text>
<polygon fill="none" stroke="#000000" points="617.5,-355.7 617.5,-377.7 738.5,-377.7 738.5,-355.7 617.5,-355.7"/>
<image xlink:href="../../images/foreignKeys.png" width="11px" height="12px" preserveAspectRatio="xMinYMin meet" x="622.5" y="-372.7"/>
<text text-anchor="start" x="637.5" y="-362.8" font-family="Helvetica,sans-Serif" font-size="11.00" fill="#000000">groupname</text>
<polygon fill="none" stroke="#000000" points="617.5,-333.7 617.5,-355.7 738.5,-355.7 738.5,-333.7 617.5,-333.7"/>
<image xlink:href="../../images/foreignKeys.png" width="11px" height="12px" preserveAspectRatio="xMinYMin meet" x="622.5" y="-350.7"/>
<text text-anchor="start" x="637.5" y="-340.8" font-family="Helvetica,sans-Serif" font-size="11.00" fill="#000000">encounter</text>
<polygon fill="none" stroke="#000000" points="617.5,-311.7 617.5,-333.7 738.5,-333.7 738.5,-311.7 617.5,-311.7"/>
<image xlink:href="../../images/foreignKeys.png" width="11px" height="12px" preserveAspectRatio="xMinYMin meet" x="622.5" y="-328.7"/>
<text text-anchor="start" x="637.5" y="-318.8" font-family="Helvetica,sans-Serif" font-size="11.00" fill="#000000">payer_id</text>
<polygon fill="none" stroke="#000000" points="617.5,-289.7 617.5,-311.7 738.5,-311.7 738.5,-289.7 617.5,-289.7"/>
<image xlink:href="../../images/foreignKeys.png" width="11px" height="12px" preserveAspectRatio="xMinYMin meet" x="622.5" y="-306.7"/>
<text text-anchor="start" x="637.5" y="-296.8" font-family="Helvetica,sans-Serif" font-size="11.00" fill="#000000">x12_partner_id</text>
<polygon fill="none" stroke="#000000" points="617.5,-270.7 617.5,-289.7 738.5,-289.7 738.5,-270.7 617.5,-270.7"/>
<text text-anchor="start" x="620.5" y="-276.8" font-family="Helvetica,sans-Serif" font-size="11.00" fill="#000000">...</text>
<polygon fill="#ffffff" stroke="transparent" points="617.5,-251.7 617.5,-270.7 676.5,-270.7 676.5,-251.7 617.5,-251.7"/>
<polygon fill="none" stroke="#000000" points="617.5,-251.7 617.5,-270.7 676.5,-270.7 676.5,-251.7 617.5,-251.7"/>
<text text-anchor="start" x="620.5" y="-257.8" font-family="Helvetica,sans-Serif" font-size="11.00" fill="#000000">&lt; 7</text>
<polygon fill="#ffffff" stroke="transparent" points="676.5,-251.7 676.5,-270.7 707.5,-270.7 707.5,-251.7 676.5,-251.7"/>
<polygon fill="none" stroke="#000000" points="676.5,-251.7 676.5,-270.7 707.5,-270.7 707.5,-251.7 676.5,-251.7"/>
<text text-anchor="start" x="698.3862" y="-257.8" font-family="Helvetica,sans-Serif" font-size="11.00" fill="#000000"> &#160;</text>
<polygon fill="#ffffff" stroke="transparent" points="707.5,-251.7 707.5,-270.7 738.5,-270.7 738.5,-251.7 707.5,-251.7"/>
<polygon fill="none" stroke="#000000" points="707.5,-251.7 707.5,-270.7 738.5,-270.7 738.5,-251.7 707.5,-251.7"/>
<text text-anchor="start" x="729.3862" y="-257.8" font-family="Helvetica,sans-Serif" font-size="11.00" fill="#000000"> &#160;</text>
</a>
</g>
</g>
<!-- billing&#45;&gt;insurance_companies -->
<g id="edge2" class="edge">
<title>billing:w&#45;&gt;insurance_companies:e</title>
<path fill="none" stroke="#000000" d="M603.1027,-323.7876C560.4038,-330.5633 550.8472,-366.7 500.5,-366.7"/>
<polygon fill="#000000" stroke="#000000" points="609.5227,-323.3027 617.7712,-326.2898 613.5114,-323.0013 617.5,-322.7 617.5,-322.7 617.5,-322.7 613.5114,-323.0013 617.2288,-319.1102 609.5227,-323.3027 609.5227,-323.3027"/>
<ellipse fill="none" stroke="#000000" cx="606.3318" cy="-323.5438" rx="3.2" ry="3.2"/>
</g>
<!-- billing&#45;&gt;insurance_companies -->
<g id="edge3" class="edge">
<title>billing:w&#45;&gt;insurance_companies:e</title>
<path fill="none" stroke="#000000" d="M603.1027,-409.6124C560.4038,-402.8367 550.8472,-366.7 500.5,-366.7"/>
<polygon fill="#000000" stroke="#000000" points="609.5227,-410.0973 617.2288,-414.2898 613.5114,-410.3987 617.5,-410.7 617.5,-410.7 617.5,-410.7 613.5114,-410.3987 617.7712,-407.1102 609.5227,-410.0973 609.5227,-410.0973"/>
<ellipse fill="none" stroke="#000000" cx="606.3318" cy="-409.8562" rx="3.2" ry="3.2"/>
</g>
<!-- insurance_data -->
<g id="node5" class="node">
<title>insurance_data</title>
<g id="a_node5"><a xlink:href="../../tables/insurance_data.html" xlink:title="insurance_data" target="_top">
<polygon fill="#ffffff" stroke="transparent" points="551,-38.2 551,-231.2 804,-231.2 804,-38.2 551,-38.2"/>
<polygon fill="#f5f5f5" stroke="transparent" points="551.5,-207.7 551.5,-230.7 804.5,-230.7 804.5,-207.7 551.5,-207.7"/>
<polygon fill="none" stroke="#000000" points="551.5,-207.7 551.5,-230.7 804.5,-230.7 804.5,-207.7 551.5,-207.7"/>
<text text-anchor="start" x="556.5" y="-216.3" font-family="Helvetica,sans-Serif" font-weight="bold" font-size="11.00" fill="#000000">insurance_data</text>
<text text-anchor="start" x="769.5437" y="-215.8" font-family="Helvetica,sans-Serif" font-size="11.00" fill="#000000">[table]</text>
<polygon fill="none" stroke="#000000" points="551.5,-185.7 551.5,-207.7 804.5,-207.7 804.5,-185.7 551.5,-185.7"/>
<image xlink:href="../../images/primaryKeys.png" width="11px" height="12px" preserveAspectRatio="xMinYMin meet" x="556.5" y="-202.7"/>
<text text-anchor="start" x="571.5" y="-192.8" font-family="Helvetica,sans-Serif" font-size="11.00" fill="#000000">id</text>
<polygon fill="#ffffff" stroke="transparent" points="551.5,-163.7 551.5,-185.7 804.5,-185.7 804.5,-163.7 551.5,-163.7"/>
<polygon fill="none" stroke="#000000" points="551.5,-163.7 551.5,-185.7 804.5,-185.7 804.5,-163.7 551.5,-163.7"/>
<text text-anchor="start" x="571.5" y="-170.8" font-family="Helvetica,sans-Serif" font-size="11.00" fill="#000000">uuid</text>
<polygon fill="#ffffff" stroke="transparent" points="551.5,-141.7 551.5,-163.7 804.5,-163.7 804.5,-141.7 551.5,-141.7"/>
<polygon fill="none" stroke="#000000" points="551.5,-141.7 551.5,-163.7 804.5,-163.7 804.5,-141.7 551.5,-141.7"/>
<text text-anchor="start" x="571.5" y="-148.8" font-family="Helvetica,sans-Serif" font-size="11.00" fill="#000000">type</text>
<polygon fill="none" stroke="#000000" points="551.5,-119.7 551.5,-141.7 804.5,-141.7 804.5,-119.7 551.5,-119.7"/>
<image xlink:href="../../images/foreignKeys.png" width="11px" height="12px" preserveAspectRatio="xMinYMin meet" x="556.5" y="-136.7"/>
<text text-anchor="start" x="571.5" y="-126.8" font-family="Helvetica,sans-Serif" font-size="11.00" fill="#000000">provider</text>
<polygon fill="#ffffff" stroke="transparent" points="551.5,-97.7 551.5,-119.7 804.5,-119.7 804.5,-97.7 551.5,-97.7"/>
<polygon fill="none" stroke="#000000" points="551.5,-97.7 551.5,-119.7 804.5,-119.7 804.5,-97.7 551.5,-97.7"/>
<text text-anchor="start" x="571.5" y="-104.8" font-family="Helvetica,sans-Serif" font-size="11.00" fill="#000000">date</text>
<polygon fill="#ffffff" stroke="transparent" points="551.5,-75.7 551.5,-97.7 804.5,-97.7 804.5,-75.7 551.5,-75.7"/>
<polygon fill="none" stroke="#000000" points="551.5,-75.7 551.5,-97.7 804.5,-97.7 804.5,-75.7 551.5,-75.7"/>
<image xlink:href="../../images/foreignKeys.png" width="11px" height="12px" preserveAspectRatio="xMinYMin meet" x="556.5" y="-92.7"/>
<text text-anchor="start" x="571.5" y="-82.8" font-family="Helvetica,sans-Serif" font-size="11.00" fill="#000000">pid</text>
<polygon fill="none" stroke="#000000" points="551.5,-56.7 551.5,-75.7 804.5,-75.7 804.5,-56.7 551.5,-56.7"/>
<text text-anchor="start" x="554.5" y="-62.8" font-family="Helvetica,sans-Serif" font-size="11.00" fill="#000000">...</text>
<polygon fill="#ffffff" stroke="transparent" points="551.5,-37.7 551.5,-56.7 671.5,-56.7 671.5,-37.7 551.5,-37.7"/>
<polygon fill="none" stroke="#000000" points="551.5,-37.7 551.5,-56.7 671.5,-56.7 671.5,-37.7 551.5,-37.7"/>
<text text-anchor="start" x="554.5" y="-43.8" font-family="Helvetica,sans-Serif" font-size="11.00" fill="#000000">&lt; 2</text>
<polygon fill="#ffffff" stroke="transparent" points="671.5,-37.7 671.5,-56.7 733.5,-56.7 733.5,-37.7 671.5,-37.7"/>
<polygon fill="none" stroke="#000000" points="671.5,-37.7 671.5,-56.7 733.5,-56.7 733.5,-37.7 671.5,-37.7"/>
<text text-anchor="start" x="724.3862" y="-43.8" font-family="Helvetica,sans-Serif" font-size="11.00" fill="#000000"> &#160;</text>
<polygon fill="#ffffff" stroke="transparent" points="733.5,-37.7 733.5,-56.7 804.5,-56.7 804.5,-37.7 733.5,-37.7"/>
<polygon fill="none" stroke="#000000" points="733.5,-37.7 733.5,-56.7 804.5,-56.7 804.5,-37.7 733.5,-37.7"/>
<text text-anchor="start" x="785.9053" y="-43.8" font-family="Helvetica,sans-Serif" font-size="11.00" fill="#000000">1 &gt;</text>
</a>
</g>
</g>
<!-- insurance_data&#45;&gt;insurance_companies -->
<g id="edge5" class="edge">
<title>insurance_data:w&#45;&gt;insurance_companies:e</title>
<path fill="none" stroke="#000000" d="M537.177,-132.4639C460.1089,-154.0602 602.3608,-366.7 500.5,-366.7"/>
<polygon fill="#000000" stroke="#000000" points="543.56,-131.6779 551.9401,-134.273 547.53,-131.1889 551.5,-130.7 551.5,-130.7 551.5,-130.7 547.53,-131.1889 551.0599,-127.127 543.56,-131.6779 543.56,-131.6779"/>
<ellipse fill="none" stroke="#000000" cx="540.384" cy="-132.0691" rx="3.2" ry="3.2"/>
</g>
</g>
</svg>
