<?xml version="1.0" encoding="UTF-8" standalone="no"?>
<!DOCTYPE svg PUBLIC "-//W3C//DTD SVG 1.1//EN"
 "http://www.w3.org/Graphics/SVG/1.1/DTD/svg11.dtd">
<!-- Generated by graphviz version 2.40.1 (20161225.0304)
 -->
<!-- Title: oneDegreeRelationshipsDiagram Pages: 1 -->
<svg width="456pt" height="205pt"
 viewBox="0.00 0.00 456.00 204.70" xmlns="http://www.w3.org/2000/svg" xmlns:xlink="http://www.w3.org/1999/xlink">
<g id="graph0" class="graph" transform="scale(1 1) rotate(0) translate(4 200.7)">
<title>oneDegreeRelationshipsDiagram</title>
<polygon fill="#ffffff" stroke="transparent" points="-4,4 -4,-200.7 452,-200.7 452,4 -4,4"/>
<text text-anchor="middle" x="72.4936" y="-7.3" font-family="Helvetica,sans-Serif" font-size="11.00" fill="#000000">Generated by SchemaSpy</text>
<!-- insurance_companies -->
<g id="node1" class="node">
<title>insurance_companies</title>
<g id="a_node1"><a xlink:href="../../tables/insurance_companies.html" xlink:title="insurance_companies" target="_top">
<polygon fill="#ffffff" stroke="transparent" points="273,-65.7 273,-192.7 440,-192.7 440,-65.7 273,-65.7"/>
<polygon fill="#f5f5f5" stroke="transparent" points="273.5,-169.2 273.5,-192.2 440.5,-192.2 440.5,-169.2 273.5,-169.2"/>
<polygon fill="none" stroke="#000000" points="273.5,-169.2 273.5,-192.2 440.5,-192.2 440.5,-169.2 273.5,-169.2"/>
<text text-anchor="start" x="278.5" y="-177.8" font-family="Helvetica,sans-Serif" font-weight="bold" font-size="11.00" fill="#000000">insurance_companies</text>
<text text-anchor="start" x="406.0219" y="-177.3" font-family="Helvetica,sans-Serif" font-size="11.00" fill="#000000">[table]</text>
<polygon fill="none" stroke="#000000" points="273.5,-147.2 273.5,-169.2 440.5,-169.2 440.5,-147.2 273.5,-147.2"/>
<image xlink:href="../../images/primaryKeys.png" width="11px" height="12px" preserveAspectRatio="xMinYMin meet" x="278.5" y="-164.2"/>
<text text-anchor="start" x="293.5" y="-154.3" font-family="Helvetica,sans-Serif" font-size="11.00" fill="#000000">id</text>
<polygon fill="#ffffff" stroke="transparent" points="273.5,-125.2 273.5,-147.2 440.5,-147.2 440.5,-125.2 273.5,-125.2"/>
<polygon fill="none" stroke="#000000" points="273.5,-125.2 273.5,-147.2 440.5,-147.2 440.5,-125.2 273.5,-125.2"/>
<text text-anchor="start" x="293.5" y="-132.3" font-family="Helvetica,sans-Serif" font-size="11.00" fill="#000000">uuid</text>
<polygon fill="none" stroke="#000000" points="273.5,-103.2 273.5,-125.2 440.5,-125.2 440.5,-103.2 273.5,-103.2"/>
<image xlink:href="../../images/foreignKeys.png" width="11px" height="12px" preserveAspectRatio="xMinYMin meet" x="278.5" y="-120.2"/>
<text text-anchor="start" x="293.5" y="-110.3" font-family="Helvetica,sans-Serif" font-size="11.00" fill="#000000">ins_type_code</text>
<polygon fill="none" stroke="#000000" points="273.5,-84.2 273.5,-103.2 440.5,-103.2 440.5,-84.2 273.5,-84.2"/>
<text text-anchor="start" x="276.5" y="-90.3" font-family="Helvetica,sans-Serif" font-size="11.00" fill="#000000">...</text>
<polygon fill="#ffffff" stroke="transparent" points="273.5,-65.2 273.5,-84.2 350.5,-84.2 350.5,-65.2 273.5,-65.2"/>
<polygon fill="none" stroke="#000000" points="273.5,-65.2 273.5,-84.2 350.5,-84.2 350.5,-65.2 273.5,-65.2"/>
<text text-anchor="start" x="276.5" y="-71.3" font-family="Helvetica,sans-Serif" font-size="11.00" fill="#000000">&lt; 1</text>
<polygon fill="#ffffff" stroke="transparent" points="350.5,-65.2 350.5,-84.2 390.5,-84.2 390.5,-65.2 350.5,-65.2"/>
<polygon fill="none" stroke="#000000" points="350.5,-65.2 350.5,-84.2 390.5,-84.2 390.5,-65.2 350.5,-65.2"/>
<text text-anchor="start" x="381.3862" y="-71.3" font-family="Helvetica,sans-Serif" font-size="11.00" fill="#000000"> &#160;</text>
<polygon fill="#ffffff" stroke="transparent" points="390.5,-65.2 390.5,-84.2 440.5,-84.2 440.5,-65.2 390.5,-65.2"/>
<polygon fill="none" stroke="#000000" points="390.5,-65.2 390.5,-84.2 440.5,-84.2 440.5,-65.2 390.5,-65.2"/>
<text text-anchor="start" x="421.9053" y="-71.3" font-family="Helvetica,sans-Serif" font-size="11.00" fill="#000000">5 &gt;</text>
</a>
</g>
</g>
<!-- insurance_type_codes -->
<g id="node2" class="node">
<title>insurance_type_codes</title>
<g id="a_node2"><a xlink:href="../../tables/insurance_type_codes.html" xlink:title="insurance_type_codes" target="_top">
<polygon fill="#ffffff" stroke="transparent" points="8,-38.2 8,-150.2 224,-150.2 224,-38.2 8,-38.2"/>
<polygon fill="#f5f5f5" stroke="transparent" points="10,-125.2 10,-148.2 222,-148.2 222,-125.2 10,-125.2"/>
<polygon fill="none" stroke="#000000" points="10,-125.2 10,-148.2 222,-148.2 222,-125.2 10,-125.2"/>
<text text-anchor="start" x="15" y="-133.8" font-family="Helvetica,sans-Serif" font-weight="bold" font-size="11.00" fill="#000000">insurance_type_codes</text>
<text text-anchor="start" x="187.0437" y="-133.3" font-family="Helvetica,sans-Serif" font-size="11.00" fill="#000000">[table]</text>
<polygon fill="none" stroke="#000000" points="10,-103.2 10,-125.2 161,-125.2 161,-103.2 10,-103.2"/>
<image xlink:href="../../images/primaryKeys.png" width="11px" height="12px" preserveAspectRatio="xMinYMin meet" x="15" y="-120.2"/>
<text text-anchor="start" x="30" y="-110.3" font-family="Helvetica,sans-Serif" font-size="11.00" fill="#000000">id</text>
<polygon fill="none" stroke="#000000" points="161,-103.2 161,-125.2 222,-125.2 222,-103.2 161,-103.2"/>
<text text-anchor="start" x="164" y="-110.9" font-family="Helvetica,sans-Serif" font-size="11.00" fill="#000000">int[10]</text>
<polygon fill="none" stroke="#000000" points="10,-81.2 10,-103.2 161,-103.2 161,-81.2 10,-81.2"/>
<text text-anchor="start" x="30" y="-88.3" font-family="Helvetica,sans-Serif" font-size="11.00" fill="#000000">type</text>
<polygon fill="none" stroke="#000000" points="161,-81.2 161,-103.2 222,-103.2 222,-81.2 161,-81.2"/>
<text text-anchor="start" x="163.994" y="-88.9" font-family="Helvetica,sans-Serif" font-size="11.00" fill="#000000">varchar[60]</text>
<polygon fill="none" stroke="#000000" points="10,-59.2 10,-81.2 161,-81.2 161,-59.2 10,-59.2"/>
<text text-anchor="start" x="30" y="-66.3" font-family="Helvetica,sans-Serif" font-size="11.00" fill="#000000">claim_type</text>
<polygon fill="none" stroke="#000000" points="161,-59.2 161,-81.2 222,-81.2 222,-59.2 161,-59.2"/>
<text text-anchor="start" x="164" y="-66.9" font-family="Helvetica,sans-Serif" font-size="11.00" fill="#000000">text[65535]</text>
<polygon fill="#ffffff" stroke="transparent" points="10,-40.2 10,-59.2 90,-59.2 90,-40.2 10,-40.2"/>
<polygon fill="none" stroke="#000000" points="10,-40.2 10,-59.2 90,-59.2 90,-40.2 10,-40.2"/>
<text text-anchor="start" x="13" y="-46.3" font-family="Helvetica,sans-Serif" font-size="11.00" fill="#000000">&lt; 0</text>
<polygon fill="#ffffff" stroke="transparent" points="90,-40.2 90,-59.2 161,-59.2 161,-40.2 90,-40.2"/>
<polygon fill="none" stroke="#000000" points="90,-40.2 90,-59.2 161,-59.2 161,-40.2 90,-40.2"/>
<text text-anchor="start" x="151.8862" y="-46.3" font-family="Helvetica,sans-Serif" font-size="11.00" fill="#000000"> &#160;</text>
<polygon fill="#ffffff" stroke="transparent" points="161,-40.2 161,-59.2 222,-59.2 222,-40.2 161,-40.2"/>
<polygon fill="none" stroke="#000000" points="161,-40.2 161,-59.2 222,-59.2 222,-40.2 161,-40.2"/>
<text text-anchor="start" x="203.4053" y="-46.3" font-family="Helvetica,sans-Serif" font-size="11.00" fill="#000000">1 &gt;</text>
<polygon fill="none" stroke="#000000" stroke-width="2" points="9,-39.2 9,-149.2 223,-149.2 223,-39.2 9,-39.2"/>
</a>
</g>
</g>
<!-- insurance_companies&#45;&gt;insurance_type_codes -->
<g id="edge1" class="edge">
<title>insurance_companies:w&#45;&gt;insurance_type_codes:e</title>
<path fill="none" stroke="#000000" d="M259.0156,-114.2C246.6771,-114.2 239.1667,-114.2 222,-114.2"/>
<polygon fill="#000000" stroke="#000000" points="265.5,-114.2001 273.5,-117.8 269.5,-114.2 273.5,-114.2 273.5,-114.2 273.5,-114.2 269.5,-114.2 273.5,-110.6 265.5,-114.2001 265.5,-114.2001"/>
<ellipse fill="none" stroke="#000000" cx="262.3" cy="-114.2001" rx="3.2" ry="3.2"/>
</g>
</g>
</svg>
