<?xml version="1.0" encoding="UTF-8" standalone="no"?>
<!DOCTYPE svg PUBLIC "-//W3C//DTD SVG 1.1//EN"
 "http://www.w3.org/Graphics/SVG/1.1/DTD/svg11.dtd">
<!-- Generated by graphviz version 2.40.1 (20161225.0304)
 -->
<!-- Title: oneDegreeRelationshipsDiagram Pages: 1 -->
<svg width="494pt" height="205pt"
 viewBox="0.00 0.00 494.00 204.70" xmlns="http://www.w3.org/2000/svg" xmlns:xlink="http://www.w3.org/1999/xlink">
<g id="graph0" class="graph" transform="scale(1 1) rotate(0) translate(4 200.7)">
<title>oneDegreeRelationshipsDiagram</title>
<polygon fill="#ffffff" stroke="transparent" points="-4,4 -4,-200.7 490,-200.7 490,4 -4,4"/>
<text text-anchor="middle" x="72.4936" y="-7.3" font-family="Helvetica,sans-Serif" font-size="11.00" fill="#000000">Generated by SchemaSpy</text>
<!-- insurance_companies -->
<g id="node1" class="node">
<title>insurance_companies</title>
<g id="a_node1"><a xlink:href="../../tables/insurance_companies.html" xlink:title="insurance_companies" target="_top">
<polygon fill="#ffffff" stroke="transparent" points="290,-65.7 290,-192.7 478,-192.7 478,-65.7 290,-65.7"/>
<polygon fill="#f5f5f5" stroke="transparent" points="290,-169.2 290,-192.2 478,-192.2 478,-169.2 290,-169.2"/>
<polygon fill="none" stroke="#000000" points="290,-169.2 290,-192.2 478,-192.2 478,-169.2 290,-169.2"/>
<text text-anchor="start" x="295" y="-177.8" font-family="Helvetica,sans-Serif" font-weight="bold" font-size="11.00" fill="#000000">insurance_companies</text>
<text text-anchor="start" x="443.0437" y="-177.3" font-family="Helvetica,sans-Serif" font-size="11.00" fill="#000000">[table]</text>
<polygon fill="none" stroke="#000000" points="290,-147.2 290,-169.2 478,-169.2 478,-147.2 290,-147.2"/>
<image xlink:href="../../images/primaryKeys.png" width="11px" height="12px" preserveAspectRatio="xMinYMin meet" x="295" y="-164.2"/>
<text text-anchor="start" x="310" y="-154.3" font-family="Helvetica,sans-Serif" font-size="11.00" fill="#000000">id</text>
<polygon fill="#ffffff" stroke="transparent" points="290,-125.2 290,-147.2 478,-147.2 478,-125.2 290,-125.2"/>
<polygon fill="none" stroke="#000000" points="290,-125.2 290,-147.2 478,-147.2 478,-125.2 290,-125.2"/>
<text text-anchor="start" x="310" y="-132.3" font-family="Helvetica,sans-Serif" font-size="11.00" fill="#000000">uuid</text>
<polygon fill="none" stroke="#000000" points="290,-103.2 290,-125.2 478,-125.2 478,-103.2 290,-103.2"/>
<image xlink:href="../../images/foreignKeys.png" width="11px" height="12px" preserveAspectRatio="xMinYMin meet" x="295" y="-120.2"/>
<text text-anchor="start" x="310" y="-110.3" font-family="Helvetica,sans-Serif" font-size="11.00" fill="#000000">ins_type_code</text>
<polygon fill="none" stroke="#000000" points="290,-84.2 290,-103.2 478,-103.2 478,-84.2 290,-84.2"/>
<text text-anchor="start" x="293" y="-90.3" font-family="Helvetica,sans-Serif" font-size="11.00" fill="#000000">...</text>
<polygon fill="#ffffff" stroke="transparent" points="290,-65.2 290,-84.2 378,-84.2 378,-65.2 290,-65.2"/>
<polygon fill="none" stroke="#000000" points="290,-65.2 290,-84.2 378,-84.2 378,-65.2 290,-65.2"/>
<text text-anchor="start" x="293" y="-71.3" font-family="Helvetica,sans-Serif" font-size="11.00" fill="#000000">&lt; 1</text>
<polygon fill="#ffffff" stroke="transparent" points="378,-65.2 378,-84.2 423,-84.2 423,-65.2 378,-65.2"/>
<polygon fill="none" stroke="#000000" points="378,-65.2 378,-84.2 423,-84.2 423,-65.2 378,-65.2"/>
<text text-anchor="start" x="413.8862" y="-71.3" font-family="Helvetica,sans-Serif" font-size="11.00" fill="#000000"> &#160;</text>
<polygon fill="#ffffff" stroke="transparent" points="423,-65.2 423,-84.2 478,-84.2 478,-65.2 423,-65.2"/>
<polygon fill="none" stroke="#000000" points="423,-65.2 423,-84.2 478,-84.2 478,-65.2 423,-65.2"/>
<text text-anchor="start" x="459.4053" y="-71.3" font-family="Helvetica,sans-Serif" font-size="11.00" fill="#000000">5 &gt;</text>
</a>
</g>
</g>
<!-- insurance_type_codes -->
<g id="node2" class="node">
<title>insurance_type_codes</title>
<g id="a_node2"><a xlink:href="../../tables/insurance_type_codes.html" xlink:title="insurance_type_codes" target="_top">
<polygon fill="#ffffff" stroke="transparent" points="8,-38.2 8,-150.2 241,-150.2 241,-38.2 8,-38.2"/>
<polygon fill="#f5f5f5" stroke="transparent" points="10.5,-125.2 10.5,-148.2 239.5,-148.2 239.5,-125.2 10.5,-125.2"/>
<polygon fill="none" stroke="#000000" points="10.5,-125.2 10.5,-148.2 239.5,-148.2 239.5,-125.2 10.5,-125.2"/>
<text text-anchor="start" x="15.5" y="-133.8" font-family="Helvetica,sans-Serif" font-weight="bold" font-size="11.00" fill="#000000">insurance_type_codes</text>
<text text-anchor="start" x="204.5437" y="-133.3" font-family="Helvetica,sans-Serif" font-size="11.00" fill="#000000">[table]</text>
<polygon fill="none" stroke="#000000" points="10.5,-103.2 10.5,-125.2 178.5,-125.2 178.5,-103.2 10.5,-103.2"/>
<image xlink:href="../../images/primaryKeys.png" width="11px" height="12px" preserveAspectRatio="xMinYMin meet" x="15.5" y="-120.2"/>
<text text-anchor="start" x="30.5" y="-110.3" font-family="Helvetica,sans-Serif" font-size="11.00" fill="#000000">id</text>
<polygon fill="none" stroke="#000000" points="178.5,-103.2 178.5,-125.2 239.5,-125.2 239.5,-103.2 178.5,-103.2"/>
<text text-anchor="start" x="181.5" y="-110.9" font-family="Helvetica,sans-Serif" font-size="11.00" fill="#000000">int[10]</text>
<polygon fill="none" stroke="#000000" points="10.5,-81.2 10.5,-103.2 178.5,-103.2 178.5,-81.2 10.5,-81.2"/>
<text text-anchor="start" x="30.5" y="-88.3" font-family="Helvetica,sans-Serif" font-size="11.00" fill="#000000">type</text>
<polygon fill="none" stroke="#000000" points="178.5,-81.2 178.5,-103.2 239.5,-103.2 239.5,-81.2 178.5,-81.2"/>
<text text-anchor="start" x="181.494" y="-88.9" font-family="Helvetica,sans-Serif" font-size="11.00" fill="#000000">varchar[60]</text>
<polygon fill="none" stroke="#000000" points="10.5,-59.2 10.5,-81.2 178.5,-81.2 178.5,-59.2 10.5,-59.2"/>
<text text-anchor="start" x="30.5" y="-66.3" font-family="Helvetica,sans-Serif" font-size="11.00" fill="#000000">claim_type</text>
<polygon fill="none" stroke="#000000" points="178.5,-59.2 178.5,-81.2 239.5,-81.2 239.5,-59.2 178.5,-59.2"/>
<text text-anchor="start" x="181.5" y="-66.9" font-family="Helvetica,sans-Serif" font-size="11.00" fill="#000000">text[65535]</text>
<polygon fill="#ffffff" stroke="transparent" points="10.5,-40.2 10.5,-59.2 98.5,-59.2 98.5,-40.2 10.5,-40.2"/>
<polygon fill="none" stroke="#000000" points="10.5,-40.2 10.5,-59.2 98.5,-59.2 98.5,-40.2 10.5,-40.2"/>
<text text-anchor="start" x="13.5" y="-46.3" font-family="Helvetica,sans-Serif" font-size="11.00" fill="#000000">&lt; 0</text>
<polygon fill="#ffffff" stroke="transparent" points="98.5,-40.2 98.5,-59.2 178.5,-59.2 178.5,-40.2 98.5,-40.2"/>
<polygon fill="none" stroke="#000000" points="98.5,-40.2 98.5,-59.2 178.5,-59.2 178.5,-40.2 98.5,-40.2"/>
<text text-anchor="start" x="169.3862" y="-46.3" font-family="Helvetica,sans-Serif" font-size="11.00" fill="#000000"> &#160;</text>
<polygon fill="#ffffff" stroke="transparent" points="178.5,-40.2 178.5,-59.2 239.5,-59.2 239.5,-40.2 178.5,-40.2"/>
<polygon fill="none" stroke="#000000" points="178.5,-40.2 178.5,-59.2 239.5,-59.2 239.5,-40.2 178.5,-40.2"/>
<text text-anchor="start" x="220.9053" y="-46.3" font-family="Helvetica,sans-Serif" font-size="11.00" fill="#000000">1 &gt;</text>
<polygon fill="none" stroke="#000000" stroke-width="2" points="9,-39.2 9,-149.2 240,-149.2 240,-39.2 9,-39.2"/>
</a>
</g>
</g>
<!-- insurance_companies&#45;&gt;insurance_type_codes -->
<g id="edge1" class="edge">
<title>insurance_companies:w&#45;&gt;insurance_type_codes:e</title>
<path fill="none" stroke="#000000" d="M275.4203,-114.2C263.5435,-114.2 256.158,-114.2 239.5,-114.2"/>
<polygon fill="#000000" stroke="#000000" points="282,-114.2001 290,-117.8 286,-114.2 290,-114.2 290,-114.2 290,-114.2 286,-114.2 290,-110.6 282,-114.2001 282,-114.2001"/>
<ellipse fill="none" stroke="#000000" cx="278.8" cy="-114.2001" rx="3.2" ry="3.2"/>
</g>
</g>
</svg>
