<?xml version="1.0" encoding="UTF-8" standalone="no"?>
<!DOCTYPE svg PUBLIC "-//W3C//DTD SVG 1.1//EN"
 "http://www.w3.org/Graphics/SVG/1.1/DTD/svg11.dtd">
<!-- Generated by graphviz version 2.40.1 (20161225.0304)
 -->
<!-- Title: twoDegreesRelationshipsDiagram Pages: 1 -->
<svg width="684pt" height="357pt"
 viewBox="0.00 0.00 684.00 357.20" xmlns="http://www.w3.org/2000/svg" xmlns:xlink="http://www.w3.org/1999/xlink">
<g id="graph0" class="graph" transform="scale(1 1) rotate(0) translate(4 353.2)">
<title>twoDegreesRelationshipsDiagram</title>
<polygon fill="#ffffff" stroke="transparent" points="-4,4 -4,-353.2 680,-353.2 680,4 -4,4"/>
<text text-anchor="middle" x="72.4936" y="-7.3" font-family="Helvetica,sans-Serif" font-size="11.00" fill="#000000">Generated by SchemaSpy</text>
<!-- ar_session -->
<g id="node1" class="node">
<title>ar_session</title>
<g id="a_node1"><a xlink:href="../../tables/ar_session.html" xlink:title="ar_session" target="_top">
<polygon fill="#ffffff" stroke="transparent" points="543,-284.2 543,-345.2 652,-345.2 652,-284.2 543,-284.2"/>
<polygon fill="#f5f5f5" stroke="transparent" points="543.5,-321.7 543.5,-344.7 652.5,-344.7 652.5,-321.7 543.5,-321.7"/>
<polygon fill="none" stroke="#000000" points="543.5,-321.7 543.5,-344.7 652.5,-344.7 652.5,-321.7 543.5,-321.7"/>
<text text-anchor="start" x="548.5" y="-330.3" font-family="Helvetica,sans-Serif" font-weight="bold" font-size="11.00" fill="#000000">ar_session</text>
<text text-anchor="start" x="618.0219" y="-329.8" font-family="Helvetica,sans-Serif" font-size="11.00" fill="#000000">[table]</text>
<polygon fill="none" stroke="#000000" points="543.5,-302.7 543.5,-321.7 652.5,-321.7 652.5,-302.7 543.5,-302.7"/>
<text text-anchor="start" x="546.5" y="-308.8" font-family="Helvetica,sans-Serif" font-size="11.00" fill="#000000">...</text>
<polygon fill="#ffffff" stroke="transparent" points="543.5,-283.7 543.5,-302.7 591.5,-302.7 591.5,-283.7 543.5,-283.7"/>
<polygon fill="none" stroke="#000000" points="543.5,-283.7 543.5,-302.7 591.5,-302.7 591.5,-283.7 543.5,-283.7"/>
<text text-anchor="start" x="546.5" y="-289.8" font-family="Helvetica,sans-Serif" font-size="11.00" fill="#000000">&lt; 6</text>
<polygon fill="#ffffff" stroke="transparent" points="591.5,-283.7 591.5,-302.7 617.5,-302.7 617.5,-283.7 591.5,-283.7"/>
<polygon fill="none" stroke="#000000" points="591.5,-283.7 591.5,-302.7 617.5,-302.7 617.5,-283.7 591.5,-283.7"/>
<text text-anchor="start" x="608.3862" y="-289.8" font-family="Helvetica,sans-Serif" font-size="11.00" fill="#000000"> &#160;</text>
<polygon fill="#ffffff" stroke="transparent" points="617.5,-283.7 617.5,-302.7 652.5,-302.7 652.5,-283.7 617.5,-283.7"/>
<polygon fill="none" stroke="#000000" points="617.5,-283.7 617.5,-302.7 652.5,-302.7 652.5,-283.7 617.5,-283.7"/>
<text text-anchor="start" x="633.9053" y="-289.8" font-family="Helvetica,sans-Serif" font-size="11.00" fill="#000000">1 &gt;</text>
</a>
</g>
</g>
<!-- insurance_companies -->
<g id="node2" class="node">
<title>insurance_companies</title>
<g id="a_node2"><a xlink:href="../../tables/insurance_companies.html" xlink:title="insurance_companies" target="_top">
<polygon fill="#ffffff" stroke="transparent" points="290,-137.2 290,-264.2 478,-264.2 478,-137.2 290,-137.2"/>
<polygon fill="#f5f5f5" stroke="transparent" points="290,-240.7 290,-263.7 478,-263.7 478,-240.7 290,-240.7"/>
<polygon fill="none" stroke="#000000" points="290,-240.7 290,-263.7 478,-263.7 478,-240.7 290,-240.7"/>
<text text-anchor="start" x="295" y="-249.3" font-family="Helvetica,sans-Serif" font-weight="bold" font-size="11.00" fill="#000000">insurance_companies</text>
<text text-anchor="start" x="443.0437" y="-248.8" font-family="Helvetica,sans-Serif" font-size="11.00" fill="#000000">[table]</text>
<polygon fill="none" stroke="#000000" points="290,-218.7 290,-240.7 478,-240.7 478,-218.7 290,-218.7"/>
<image xlink:href="../../images/primaryKeys.png" width="11px" height="12px" preserveAspectRatio="xMinYMin meet" x="295" y="-235.7"/>
<text text-anchor="start" x="310" y="-225.8" font-family="Helvetica,sans-Serif" font-size="11.00" fill="#000000">id</text>
<polygon fill="none" stroke="#000000" points="290,-196.7 290,-218.7 478,-218.7 478,-196.7 290,-196.7"/>
<image xlink:href="../../images/foreignKeys.png" width="11px" height="12px" preserveAspectRatio="xMinYMin meet" x="295" y="-213.7"/>
<text text-anchor="start" x="310" y="-203.8" font-family="Helvetica,sans-Serif" font-size="11.00" fill="#000000">ins_type_code</text>
<polygon fill="#ffffff" stroke="transparent" points="290,-174.7 290,-196.7 478,-196.7 478,-174.7 290,-174.7"/>
<polygon fill="none" stroke="#000000" points="290,-174.7 290,-196.7 478,-196.7 478,-174.7 290,-174.7"/>
<text text-anchor="start" x="310" y="-181.8" font-family="Helvetica,sans-Serif" font-size="11.00" fill="#000000">uuid</text>
<polygon fill="none" stroke="#000000" points="290,-155.7 290,-174.7 478,-174.7 478,-155.7 290,-155.7"/>
<text text-anchor="start" x="293" y="-161.8" font-family="Helvetica,sans-Serif" font-size="11.00" fill="#000000">...</text>
<polygon fill="#ffffff" stroke="transparent" points="290,-136.7 290,-155.7 378,-155.7 378,-136.7 290,-136.7"/>
<polygon fill="none" stroke="#000000" points="290,-136.7 290,-155.7 378,-155.7 378,-136.7 290,-136.7"/>
<text text-anchor="start" x="293" y="-142.8" font-family="Helvetica,sans-Serif" font-size="11.00" fill="#000000">&lt; 1</text>
<polygon fill="#ffffff" stroke="transparent" points="378,-136.7 378,-155.7 423,-155.7 423,-136.7 378,-136.7"/>
<polygon fill="none" stroke="#000000" points="378,-136.7 378,-155.7 423,-155.7 423,-136.7 378,-136.7"/>
<text text-anchor="start" x="413.8862" y="-142.8" font-family="Helvetica,sans-Serif" font-size="11.00" fill="#000000"> &#160;</text>
<polygon fill="#ffffff" stroke="transparent" points="423,-136.7 423,-155.7 478,-155.7 478,-136.7 423,-136.7"/>
<polygon fill="none" stroke="#000000" points="423,-136.7 423,-155.7 478,-155.7 478,-136.7 423,-136.7"/>
<text text-anchor="start" x="459.4053" y="-142.8" font-family="Helvetica,sans-Serif" font-size="11.00" fill="#000000">5 &gt;</text>
</a>
</g>
</g>
<!-- ar_session&#45;&gt;insurance_companies -->
<g id="edge1" class="edge">
<title>ar_session:w&#45;&gt;insurance_companies:e</title>
<path fill="none" stroke="#000000" d="M529.2068,-308.1766C502.64,-292.4813 518.8134,-229.7 478,-229.7"/>
<polygon fill="#000000" stroke="#000000" points="535.7325,-309.7852 542.6383,-315.1954 539.6163,-310.7426 543.5,-311.7 543.5,-311.7 543.5,-311.7 539.6163,-310.7426 544.3617,-308.2046 535.7325,-309.7852 535.7325,-309.7852"/>
<ellipse fill="none" stroke="#000000" cx="532.6255" cy="-309.0193" rx="3.2" ry="3.2"/>
</g>
<!-- insurance_type_codes -->
<g id="node5" class="node">
<title>insurance_type_codes</title>
<g id="a_node5"><a xlink:href="../../tables/insurance_type_codes.html" xlink:title="insurance_type_codes" target="_top">
<polygon fill="#ffffff" stroke="transparent" points="8,-131.7 8,-243.7 241,-243.7 241,-131.7 8,-131.7"/>
<polygon fill="#f5f5f5" stroke="transparent" points="10.5,-218.7 10.5,-241.7 239.5,-241.7 239.5,-218.7 10.5,-218.7"/>
<polygon fill="none" stroke="#000000" points="10.5,-218.7 10.5,-241.7 239.5,-241.7 239.5,-218.7 10.5,-218.7"/>
<text text-anchor="start" x="15.5" y="-227.3" font-family="Helvetica,sans-Serif" font-weight="bold" font-size="11.00" fill="#000000">insurance_type_codes</text>
<text text-anchor="start" x="204.5437" y="-226.8" font-family="Helvetica,sans-Serif" font-size="11.00" fill="#000000">[table]</text>
<polygon fill="none" stroke="#000000" points="10.5,-196.7 10.5,-218.7 178.5,-218.7 178.5,-196.7 10.5,-196.7"/>
<image xlink:href="../../images/primaryKeys.png" width="11px" height="12px" preserveAspectRatio="xMinYMin meet" x="15.5" y="-213.7"/>
<text text-anchor="start" x="30.5" y="-203.8" font-family="Helvetica,sans-Serif" font-size="11.00" fill="#000000">id</text>
<polygon fill="none" stroke="#000000" points="178.5,-196.7 178.5,-218.7 239.5,-218.7 239.5,-196.7 178.5,-196.7"/>
<text text-anchor="start" x="181.5" y="-204.4" font-family="Helvetica,sans-Serif" font-size="11.00" fill="#000000">int[10]</text>
<polygon fill="none" stroke="#000000" points="10.5,-174.7 10.5,-196.7 178.5,-196.7 178.5,-174.7 10.5,-174.7"/>
<text text-anchor="start" x="30.5" y="-181.8" font-family="Helvetica,sans-Serif" font-size="11.00" fill="#000000">type</text>
<polygon fill="none" stroke="#000000" points="178.5,-174.7 178.5,-196.7 239.5,-196.7 239.5,-174.7 178.5,-174.7"/>
<text text-anchor="start" x="181.494" y="-182.4" font-family="Helvetica,sans-Serif" font-size="11.00" fill="#000000">varchar[60]</text>
<polygon fill="none" stroke="#000000" points="10.5,-152.7 10.5,-174.7 178.5,-174.7 178.5,-152.7 10.5,-152.7"/>
<text text-anchor="start" x="30.5" y="-159.8" font-family="Helvetica,sans-Serif" font-size="11.00" fill="#000000">claim_type</text>
<polygon fill="none" stroke="#000000" points="178.5,-152.7 178.5,-174.7 239.5,-174.7 239.5,-152.7 178.5,-152.7"/>
<text text-anchor="start" x="181.5" y="-160.4" font-family="Helvetica,sans-Serif" font-size="11.00" fill="#000000">text[65535]</text>
<polygon fill="#ffffff" stroke="transparent" points="10.5,-133.7 10.5,-152.7 98.5,-152.7 98.5,-133.7 10.5,-133.7"/>
<polygon fill="none" stroke="#000000" points="10.5,-133.7 10.5,-152.7 98.5,-152.7 98.5,-133.7 10.5,-133.7"/>
<text text-anchor="start" x="13.5" y="-139.8" font-family="Helvetica,sans-Serif" font-size="11.00" fill="#000000">&lt; 0</text>
<polygon fill="#ffffff" stroke="transparent" points="98.5,-133.7 98.5,-152.7 178.5,-152.7 178.5,-133.7 98.5,-133.7"/>
<polygon fill="none" stroke="#000000" points="98.5,-133.7 98.5,-152.7 178.5,-152.7 178.5,-133.7 98.5,-133.7"/>
<text text-anchor="start" x="169.3862" y="-139.8" font-family="Helvetica,sans-Serif" font-size="11.00" fill="#000000"> &#160;</text>
<polygon fill="#ffffff" stroke="transparent" points="178.5,-133.7 178.5,-152.7 239.5,-152.7 239.5,-133.7 178.5,-133.7"/>
<polygon fill="none" stroke="#000000" points="178.5,-133.7 178.5,-152.7 239.5,-152.7 239.5,-133.7 178.5,-133.7"/>
<text text-anchor="start" x="220.9053" y="-139.8" font-family="Helvetica,sans-Serif" font-size="11.00" fill="#000000">1 &gt;</text>
<polygon fill="none" stroke="#000000" stroke-width="2" points="9,-132.7 9,-242.7 240,-242.7 240,-132.7 9,-132.7"/>
</a>
</g>
</g>
<!-- insurance_companies&#45;&gt;insurance_type_codes -->
<g id="edge5" class="edge">
<title>insurance_companies:w&#45;&gt;insurance_type_codes:e</title>
<path fill="none" stroke="#000000" d="M275.4203,-207.7C263.5435,-207.7 256.158,-207.7 239.5,-207.7"/>
<polygon fill="#000000" stroke="#000000" points="282,-207.7001 290,-211.3 286,-207.7 290,-207.7 290,-207.7 290,-207.7 286,-207.7 290,-204.1 282,-207.7001 282,-207.7001"/>
<ellipse fill="none" stroke="#000000" cx="278.8" cy="-207.7001" rx="3.2" ry="3.2"/>
</g>
<!-- billing -->
<g id="node3" class="node">
<title>billing</title>
<g id="a_node3"><a xlink:href="../../tables/billing.html" xlink:title="billing" target="_top">
<polygon fill="#ffffff" stroke="transparent" points="557,-202.2 557,-263.2 638,-263.2 638,-202.2 557,-202.2"/>
<polygon fill="#f5f5f5" stroke="transparent" points="557.5,-239.7 557.5,-262.7 638.5,-262.7 638.5,-239.7 557.5,-239.7"/>
<polygon fill="none" stroke="#000000" points="557.5,-239.7 557.5,-262.7 638.5,-262.7 638.5,-239.7 557.5,-239.7"/>
<text text-anchor="start" x="562.5" y="-248.3" font-family="Helvetica,sans-Serif" font-weight="bold" font-size="11.00" fill="#000000">billing</text>
<text text-anchor="start" x="604.0219" y="-247.8" font-family="Helvetica,sans-Serif" font-size="11.00" fill="#000000">[table]</text>
<polygon fill="none" stroke="#000000" points="557.5,-220.7 557.5,-239.7 638.5,-239.7 638.5,-220.7 557.5,-220.7"/>
<text text-anchor="start" x="560.5" y="-226.8" font-family="Helvetica,sans-Serif" font-size="11.00" fill="#000000">...</text>
<polygon fill="#ffffff" stroke="transparent" points="557.5,-201.7 557.5,-220.7 596.5,-220.7 596.5,-201.7 557.5,-201.7"/>
<polygon fill="none" stroke="#000000" points="557.5,-201.7 557.5,-220.7 596.5,-220.7 596.5,-201.7 557.5,-201.7"/>
<text text-anchor="start" x="560.5" y="-207.8" font-family="Helvetica,sans-Serif" font-size="11.00" fill="#000000">&lt; 7</text>
<polygon fill="#ffffff" stroke="transparent" points="596.5,-201.7 596.5,-220.7 617.5,-220.7 617.5,-201.7 596.5,-201.7"/>
<polygon fill="none" stroke="#000000" points="596.5,-201.7 596.5,-220.7 617.5,-220.7 617.5,-201.7 596.5,-201.7"/>
<text text-anchor="start" x="608.3862" y="-207.8" font-family="Helvetica,sans-Serif" font-size="11.00" fill="#000000"> &#160;</text>
<polygon fill="#ffffff" stroke="transparent" points="617.5,-201.7 617.5,-220.7 638.5,-220.7 638.5,-201.7 617.5,-201.7"/>
<polygon fill="none" stroke="#000000" points="617.5,-201.7 617.5,-220.7 638.5,-220.7 638.5,-201.7 617.5,-201.7"/>
<text text-anchor="start" x="629.3862" y="-207.8" font-family="Helvetica,sans-Serif" font-size="11.00" fill="#000000"> &#160;</text>
</a>
</g>
</g>
<!-- billing&#45;&gt;insurance_companies -->
<g id="edge2" class="edge">
<title>billing:w&#45;&gt;insurance_companies:e</title>
<path fill="none" stroke="#000000" d="M543.0093,-227.3756C518.8602,-223.8393 507.9505,-224.6141 478,-229.7"/>
<polygon fill="#000000" stroke="#000000" points="549.601,-228.4329 556.9298,-233.2546 553.5505,-229.0664 557.5,-229.7 557.5,-229.7 557.5,-229.7 553.5505,-229.0664 558.0702,-226.1454 549.601,-228.4329 549.601,-228.4329"/>
<ellipse fill="none" stroke="#000000" cx="546.4414" cy="-227.926" rx="3.2" ry="3.2"/>
</g>
<!-- billing&#45;&gt;insurance_companies -->
<g id="edge3" class="edge">
<title>billing:w&#45;&gt;insurance_companies:e</title>
<path fill="none" stroke="#000000" d="M543.344,-232.3545C518.9604,-236.5458 508.0885,-235.6609 478,-229.7"/>
<polygon fill="#000000" stroke="#000000" points="549.637,-231.1745 558.1635,-233.2383 553.5685,-230.4372 557.5,-229.7 557.5,-229.7 557.5,-229.7 553.5685,-230.4372 556.8365,-226.1617 549.637,-231.1745 549.637,-231.1745"/>
<ellipse fill="none" stroke="#000000" cx="546.4919" cy="-231.7643" rx="3.2" ry="3.2"/>
</g>
<!-- claims -->
<g id="node4" class="node">
<title>claims</title>
<g id="a_node4"><a xlink:href="../../tables/claims.html" xlink:title="claims" target="_top">
<polygon fill="#ffffff" stroke="transparent" points="556.5,-120.2 556.5,-181.2 638.5,-181.2 638.5,-120.2 556.5,-120.2"/>
<polygon fill="#f5f5f5" stroke="transparent" points="556.5,-157.7 556.5,-180.7 638.5,-180.7 638.5,-157.7 556.5,-157.7"/>
<polygon fill="none" stroke="#000000" points="556.5,-157.7 556.5,-180.7 638.5,-180.7 638.5,-157.7 556.5,-157.7"/>
<text text-anchor="start" x="561.5" y="-166.3" font-family="Helvetica,sans-Serif" font-weight="bold" font-size="11.00" fill="#000000">claims</text>
<text text-anchor="start" x="604.0219" y="-165.8" font-family="Helvetica,sans-Serif" font-size="11.00" fill="#000000">[table]</text>
<polygon fill="none" stroke="#000000" points="556.5,-138.7 556.5,-157.7 638.5,-157.7 638.5,-138.7 556.5,-138.7"/>
<text text-anchor="start" x="559.5" y="-144.8" font-family="Helvetica,sans-Serif" font-size="11.00" fill="#000000">...</text>
<polygon fill="#ffffff" stroke="transparent" points="556.5,-119.7 556.5,-138.7 595.5,-138.7 595.5,-119.7 556.5,-119.7"/>
<polygon fill="none" stroke="#000000" points="556.5,-119.7 556.5,-138.7 595.5,-138.7 595.5,-119.7 556.5,-119.7"/>
<text text-anchor="start" x="559.5" y="-125.8" font-family="Helvetica,sans-Serif" font-size="11.00" fill="#000000">&lt; 3</text>
<polygon fill="#ffffff" stroke="transparent" points="595.5,-119.7 595.5,-138.7 616.5,-138.7 616.5,-119.7 595.5,-119.7"/>
<polygon fill="none" stroke="#000000" points="595.5,-119.7 595.5,-138.7 616.5,-138.7 616.5,-119.7 595.5,-119.7"/>
<text text-anchor="start" x="607.3862" y="-125.8" font-family="Helvetica,sans-Serif" font-size="11.00" fill="#000000"> &#160;</text>
<polygon fill="#ffffff" stroke="transparent" points="616.5,-119.7 616.5,-138.7 638.5,-138.7 638.5,-119.7 616.5,-119.7"/>
<polygon fill="none" stroke="#000000" points="616.5,-119.7 616.5,-138.7 638.5,-138.7 638.5,-119.7 616.5,-119.7"/>
<text text-anchor="start" x="629.3862" y="-125.8" font-family="Helvetica,sans-Serif" font-size="11.00" fill="#000000"> &#160;</text>
</a>
</g>
</g>
<!-- claims&#45;&gt;insurance_companies -->
<g id="edge4" class="edge">
<title>claims:w&#45;&gt;insurance_companies:e</title>
<path fill="none" stroke="#000000" d="M541.9471,-150.6184C510.1888,-165.2258 522.737,-229.7 478,-229.7"/>
<polygon fill="#000000" stroke="#000000" points="548.6562,-149.273 557.2079,-151.2297 552.5781,-148.4865 556.5,-147.7 556.5,-147.7 556.5,-147.7 552.5781,-148.4865 555.7921,-144.1703 548.6562,-149.273 548.6562,-149.273"/>
<ellipse fill="none" stroke="#000000" cx="545.5186" cy="-149.9023" rx="3.2" ry="3.2"/>
</g>
<!-- insurance_data -->
<g id="node6" class="node">
<title>insurance_data</title>
<g id="a_node6"><a xlink:href="../../tables/insurance_data.html" xlink:title="insurance_data" target="_top">
<polygon fill="#ffffff" stroke="transparent" points="527,-38.2 527,-99.2 668,-99.2 668,-38.2 527,-38.2"/>
<polygon fill="#f5f5f5" stroke="transparent" points="527.5,-75.7 527.5,-98.7 668.5,-98.7 668.5,-75.7 527.5,-75.7"/>
<polygon fill="none" stroke="#000000" points="527.5,-75.7 527.5,-98.7 668.5,-98.7 668.5,-75.7 527.5,-75.7"/>
<text text-anchor="start" x="532.5" y="-84.3" font-family="Helvetica,sans-Serif" font-weight="bold" font-size="11.00" fill="#000000">insurance_data</text>
<text text-anchor="start" x="634.0219" y="-83.8" font-family="Helvetica,sans-Serif" font-size="11.00" fill="#000000">[table]</text>
<polygon fill="none" stroke="#000000" points="527.5,-56.7 527.5,-75.7 668.5,-75.7 668.5,-56.7 527.5,-56.7"/>
<text text-anchor="start" x="530.5" y="-62.8" font-family="Helvetica,sans-Serif" font-size="11.00" fill="#000000">...</text>
<polygon fill="#ffffff" stroke="transparent" points="527.5,-37.7 527.5,-56.7 591.5,-56.7 591.5,-37.7 527.5,-37.7"/>
<polygon fill="none" stroke="#000000" points="527.5,-37.7 527.5,-56.7 591.5,-56.7 591.5,-37.7 527.5,-37.7"/>
<text text-anchor="start" x="530.5" y="-43.8" font-family="Helvetica,sans-Serif" font-size="11.00" fill="#000000">&lt; 2</text>
<polygon fill="#ffffff" stroke="transparent" points="591.5,-37.7 591.5,-56.7 625.5,-56.7 625.5,-37.7 591.5,-37.7"/>
<polygon fill="none" stroke="#000000" points="591.5,-37.7 591.5,-56.7 625.5,-56.7 625.5,-37.7 591.5,-37.7"/>
<text text-anchor="start" x="616.3862" y="-43.8" font-family="Helvetica,sans-Serif" font-size="11.00" fill="#000000"> &#160;</text>
<polygon fill="#ffffff" stroke="transparent" points="625.5,-37.7 625.5,-56.7 668.5,-56.7 668.5,-37.7 625.5,-37.7"/>
<polygon fill="none" stroke="#000000" points="625.5,-37.7 625.5,-56.7 668.5,-56.7 668.5,-37.7 625.5,-37.7"/>
<text text-anchor="start" x="649.9053" y="-43.8" font-family="Helvetica,sans-Serif" font-size="11.00" fill="#000000">1 &gt;</text>
</a>
</g>
</g>
<!-- insurance_data&#45;&gt;insurance_companies -->
<g id="edge6" class="edge">
<title>insurance_data:w&#45;&gt;insurance_companies:e</title>
<path fill="none" stroke="#000000" d="M513.0576,-68.4097C465.9822,-89.7328 548.3372,-229.7 478,-229.7"/>
<polygon fill="#000000" stroke="#000000" points="519.6372,-67.1753 528.1639,-69.2383 523.5686,-66.4376 527.5,-65.7 527.5,-65.7 527.5,-65.7 523.5686,-66.4376 526.8361,-62.1617 519.6372,-67.1753 519.6372,-67.1753"/>
<ellipse fill="none" stroke="#000000" cx="516.4921" cy="-67.7654" rx="3.2" ry="3.2"/>
</g>
</g>
</svg>
