<?xml version="1.0" encoding="UTF-8" standalone="no"?>
<!DOCTYPE svg PUBLIC "-//W3C//DTD SVG 1.1//EN"
 "http://www.w3.org/Graphics/SVG/1.1/DTD/svg11.dtd">
<!-- Generated by graphviz version 2.40.1 (20161225.0304)
 -->
<!-- Title: oneDegreeRelationshipsDiagram Pages: 1 -->
<svg width="310pt" height="272pt"
 viewBox="0.00 0.00 310.00 272.20" xmlns="http://www.w3.org/2000/svg" xmlns:xlink="http://www.w3.org/1999/xlink">
<g id="graph0" class="graph" transform="scale(1 1) rotate(0) translate(4 268.2)">
<title>oneDegreeRelationshipsDiagram</title>
<polygon fill="#ffffff" stroke="transparent" points="-4,4 -4,-268.2 306,-268.2 306,4 -4,4"/>
<text text-anchor="middle" x="72.4936" y="-7.3" font-family="Helvetica,sans-Serif" font-size="11.00" fill="#000000">Generated by SchemaSpy</text>
<!-- insurance_numbers -->
<g id="node1" class="node">
<title>insurance_numbers</title>
<g id="a_node1"><a xlink:href="../../tables/insurance_numbers.html" xlink:title="insurance_numbers" target="_top">
<polygon fill="#ffffff" stroke="transparent" points="8,-38.2 8,-260.2 294,-260.2 294,-38.2 8,-38.2"/>
<polygon fill="#f5f5f5" stroke="transparent" points="10,-235.2 10,-258.2 292,-258.2 292,-235.2 10,-235.2"/>
<polygon fill="none" stroke="#000000" points="10,-235.2 10,-258.2 292,-258.2 292,-235.2 10,-235.2"/>
<text text-anchor="start" x="15" y="-243.8" font-family="Helvetica,sans-Serif" font-weight="bold" font-size="11.00" fill="#000000">insurance_numbers</text>
<text text-anchor="start" x="257.0437" y="-243.3" font-family="Helvetica,sans-Serif" font-size="11.00" fill="#000000">[table]</text>
<polygon fill="none" stroke="#000000" points="10,-213.2 10,-235.2 231,-235.2 231,-213.2 10,-213.2"/>
<image xlink:href="../../images/primaryKeys.png" width="11px" height="12px" preserveAspectRatio="xMinYMin meet" x="15" y="-230.2"/>
<text text-anchor="start" x="30" y="-220.3" font-family="Helvetica,sans-Serif" font-size="11.00" fill="#000000">id</text>
<polygon fill="none" stroke="#000000" points="231,-213.2 231,-235.2 292,-235.2 292,-213.2 231,-213.2"/>
<text text-anchor="start" x="234" y="-220.9" font-family="Helvetica,sans-Serif" font-size="11.00" fill="#000000">int[10]</text>
<polygon fill="none" stroke="#000000" points="10,-191.2 10,-213.2 231,-213.2 231,-191.2 10,-191.2"/>
<text text-anchor="start" x="30" y="-198.3" font-family="Helvetica,sans-Serif" font-size="11.00" fill="#000000">provider_id</text>
<polygon fill="none" stroke="#000000" points="231,-191.2 231,-213.2 292,-213.2 292,-191.2 231,-191.2"/>
<text text-anchor="start" x="234" y="-198.9" font-family="Helvetica,sans-Serif" font-size="11.00" fill="#000000">int[10]</text>
<polygon fill="none" stroke="#000000" points="10,-169.2 10,-191.2 231,-191.2 231,-169.2 10,-169.2"/>
<text text-anchor="start" x="30" y="-176.3" font-family="Helvetica,sans-Serif" font-size="11.00" fill="#000000">insurance_company_id</text>
<polygon fill="none" stroke="#000000" points="231,-169.2 231,-191.2 292,-191.2 292,-169.2 231,-169.2"/>
<text text-anchor="start" x="234" y="-176.9" font-family="Helvetica,sans-Serif" font-size="11.00" fill="#000000">int[10]</text>
<polygon fill="none" stroke="#000000" points="10,-147.2 10,-169.2 231,-169.2 231,-147.2 10,-147.2"/>
<text text-anchor="start" x="30" y="-154.3" font-family="Helvetica,sans-Serif" font-size="11.00" fill="#000000">provider_number</text>
<polygon fill="none" stroke="#000000" points="231,-147.2 231,-169.2 292,-169.2 292,-147.2 231,-147.2"/>
<text text-anchor="start" x="233.994" y="-154.9" font-family="Helvetica,sans-Serif" font-size="11.00" fill="#000000">varchar[20]</text>
<polygon fill="none" stroke="#000000" points="10,-125.2 10,-147.2 231,-147.2 231,-125.2 10,-125.2"/>
<text text-anchor="start" x="30" y="-132.3" font-family="Helvetica,sans-Serif" font-size="11.00" fill="#000000">rendering_provider_number</text>
<polygon fill="none" stroke="#000000" points="231,-125.2 231,-147.2 292,-147.2 292,-125.2 231,-125.2"/>
<text text-anchor="start" x="233.994" y="-132.9" font-family="Helvetica,sans-Serif" font-size="11.00" fill="#000000">varchar[20]</text>
<polygon fill="none" stroke="#000000" points="10,-103.2 10,-125.2 231,-125.2 231,-103.2 10,-103.2"/>
<text text-anchor="start" x="30" y="-110.3" font-family="Helvetica,sans-Serif" font-size="11.00" fill="#000000">group_number</text>
<polygon fill="none" stroke="#000000" points="231,-103.2 231,-125.2 292,-125.2 292,-103.2 231,-103.2"/>
<text text-anchor="start" x="233.994" y="-110.9" font-family="Helvetica,sans-Serif" font-size="11.00" fill="#000000">varchar[20]</text>
<polygon fill="none" stroke="#000000" points="10,-81.2 10,-103.2 231,-103.2 231,-81.2 10,-81.2"/>
<text text-anchor="start" x="30" y="-88.3" font-family="Helvetica,sans-Serif" font-size="11.00" fill="#000000">provider_number_type</text>
<polygon fill="none" stroke="#000000" points="231,-81.2 231,-103.2 292,-103.2 292,-81.2 231,-81.2"/>
<text text-anchor="start" x="234" y="-88.9" font-family="Helvetica,sans-Serif" font-size="11.00" fill="#000000">varchar[4]</text>
<polygon fill="none" stroke="#000000" points="10,-59.2 10,-81.2 231,-81.2 231,-59.2 10,-59.2"/>
<text text-anchor="start" x="30" y="-66.3" font-family="Helvetica,sans-Serif" font-size="11.00" fill="#000000">rendering_provider_number_type</text>
<polygon fill="none" stroke="#000000" points="231,-59.2 231,-81.2 292,-81.2 292,-59.2 231,-59.2"/>
<text text-anchor="start" x="234" y="-66.9" font-family="Helvetica,sans-Serif" font-size="11.00" fill="#000000">varchar[4]</text>
<polygon fill="#ffffff" stroke="transparent" points="10,-40.2 10,-59.2 125,-59.2 125,-40.2 10,-40.2"/>
<polygon fill="none" stroke="#000000" points="10,-40.2 10,-59.2 125,-59.2 125,-40.2 10,-40.2"/>
<text text-anchor="start" x="13" y="-46.3" font-family="Helvetica,sans-Serif" font-size="11.00" fill="#000000">&lt; 0</text>
<polygon fill="#ffffff" stroke="transparent" points="125,-40.2 125,-59.2 231,-59.2 231,-40.2 125,-40.2"/>
<polygon fill="none" stroke="#000000" points="125,-40.2 125,-59.2 231,-59.2 231,-40.2 125,-40.2"/>
<text text-anchor="start" x="221.8862" y="-46.3" font-family="Helvetica,sans-Serif" font-size="11.00" fill="#000000"> &#160;</text>
<polygon fill="#ffffff" stroke="transparent" points="231,-40.2 231,-59.2 292,-59.2 292,-40.2 231,-40.2"/>
<polygon fill="none" stroke="#000000" points="231,-40.2 231,-59.2 292,-59.2 292,-40.2 231,-40.2"/>
<text text-anchor="start" x="273.4053" y="-46.3" font-family="Helvetica,sans-Serif" font-size="11.00" fill="#000000">0 &gt;</text>
<polygon fill="none" stroke="#000000" stroke-width="2" points="9,-39.2 9,-259.2 293,-259.2 293,-39.2 9,-39.2"/>
</a>
</g>
</g>
</g>
</svg>
