<?xml version="1.0" encoding="UTF-8" standalone="no"?>
<!DOCTYPE svg PUBLIC "-//W3C//DTD SVG 1.1//EN"
 "http://www.w3.org/Graphics/SVG/1.1/DTD/svg11.dtd">
<!-- Generated by graphviz version 2.40.1 (20161225.0304)
 -->
<!-- Title: oneDegreeRelationshipsDiagram Pages: 1 -->
<svg width="693pt" height="644pt"
 viewBox="0.00 0.00 693.00 644.02" xmlns="http://www.w3.org/2000/svg" xmlns:xlink="http://www.w3.org/1999/xlink">
<g id="graph0" class="graph" transform="scale(1 1) rotate(0) translate(4 640.0212)">
<title>oneDegreeRelationshipsDiagram</title>
<polygon fill="#ffffff" stroke="transparent" points="-4,4 -4,-640.0212 689,-640.0212 689,4 -4,4"/>
<text text-anchor="middle" x="72.4936" y="-7.3" font-family="Helvetica,sans-Serif" font-size="11.00" fill="#000000">Generated by SchemaSpy</text>
<!-- form_encounter -->
<g id="node1" class="node">
<title>form_encounter</title>
<g id="a_node1"><a xlink:href="../../tables/form_encounter.html" xlink:title="form_encounter" target="_top">
<polygon fill="#ffffff" stroke="transparent" points="224,-461.0212 224,-632.0212 432,-632.0212 432,-461.0212 224,-461.0212"/>
<polygon fill="#f5f5f5" stroke="transparent" points="224,-608.5212 224,-631.5212 432,-631.5212 432,-608.5212 224,-608.5212"/>
<polygon fill="none" stroke="#000000" points="224,-608.5212 224,-631.5212 432,-631.5212 432,-608.5212 224,-608.5212"/>
<text text-anchor="start" x="229" y="-617.1212" font-family="Helvetica,sans-Serif" font-weight="bold" font-size="11.00" fill="#000000">form_encounter</text>
<text text-anchor="start" x="397.0437" y="-616.6212" font-family="Helvetica,sans-Serif" font-size="11.00" fill="#000000">[table]</text>
<polygon fill="none" stroke="#000000" points="224,-586.5212 224,-608.5212 432,-608.5212 432,-586.5212 224,-586.5212"/>
<image xlink:href="../../images/primaryKeys.png" width="11px" height="12px" preserveAspectRatio="xMinYMin meet" x="229" y="-603.521"/>
<text text-anchor="start" x="244" y="-593.6212" font-family="Helvetica,sans-Serif" font-size="11.00" fill="#000000">id</text>
<polygon fill="#ffffff" stroke="transparent" points="224,-564.5212 224,-586.5212 432,-586.5212 432,-564.5212 224,-564.5212"/>
<polygon fill="none" stroke="#000000" points="224,-564.5212 224,-586.5212 432,-586.5212 432,-564.5212 224,-564.5212"/>
<text text-anchor="start" x="244" y="-571.6212" font-family="Helvetica,sans-Serif" font-size="11.00" fill="#000000">uuid</text>
<polygon fill="#ffffff" stroke="transparent" points="224,-542.5212 224,-564.5212 432,-564.5212 432,-542.5212 224,-542.5212"/>
<polygon fill="none" stroke="#000000" points="224,-542.5212 224,-564.5212 432,-564.5212 432,-542.5212 224,-542.5212"/>
<text text-anchor="start" x="244" y="-549.6212" font-family="Helvetica,sans-Serif" font-size="11.00" fill="#000000">date</text>
<polygon fill="#ffffff" stroke="transparent" points="224,-520.5212 224,-542.5212 432,-542.5212 432,-520.5212 224,-520.5212"/>
<polygon fill="none" stroke="#000000" points="224,-520.5212 224,-542.5212 432,-542.5212 432,-520.5212 224,-520.5212"/>
<image xlink:href="../../images/foreignKeys.png" width="11px" height="12px" preserveAspectRatio="xMinYMin meet" x="229" y="-537.521"/>
<text text-anchor="start" x="244" y="-527.6212" font-family="Helvetica,sans-Serif" font-size="11.00" fill="#000000">pid</text>
<polygon fill="none" stroke="#000000" points="224,-498.5212 224,-520.5212 432,-520.5212 432,-498.5212 224,-498.5212"/>
<image xlink:href="../../images/primaryKeys.png" width="11px" height="12px" preserveAspectRatio="xMinYMin meet" x="229" y="-515.521"/>
<text text-anchor="start" x="244" y="-505.6212" font-family="Helvetica,sans-Serif" font-size="11.00" fill="#000000">encounter</text>
<polygon fill="none" stroke="#000000" points="224,-479.5212 224,-498.5212 432,-498.5212 432,-479.5212 224,-479.5212"/>
<text text-anchor="start" x="227" y="-485.6212" font-family="Helvetica,sans-Serif" font-size="11.00" fill="#000000">...</text>
<polygon fill="#ffffff" stroke="transparent" points="224,-460.5212 224,-479.5212 319,-479.5212 319,-460.5212 224,-460.5212"/>
<polygon fill="none" stroke="#000000" points="224,-460.5212 224,-479.5212 319,-479.5212 319,-460.5212 224,-460.5212"/>
<text text-anchor="start" x="227" y="-466.6212" font-family="Helvetica,sans-Serif" font-size="11.00" fill="#000000">&lt; 1</text>
<polygon fill="#ffffff" stroke="transparent" points="319,-460.5212 319,-479.5212 368,-479.5212 368,-460.5212 319,-460.5212"/>
<polygon fill="none" stroke="#000000" points="319,-460.5212 319,-479.5212 368,-479.5212 368,-460.5212 319,-460.5212"/>
<text text-anchor="start" x="358.8862" y="-466.6212" font-family="Helvetica,sans-Serif" font-size="11.00" fill="#000000"> &#160;</text>
<polygon fill="#ffffff" stroke="transparent" points="368,-460.5212 368,-479.5212 432,-479.5212 432,-460.5212 368,-460.5212"/>
<polygon fill="none" stroke="#000000" points="368,-460.5212 368,-479.5212 432,-479.5212 432,-460.5212 368,-460.5212"/>
<text text-anchor="start" x="407.2904" y="-466.6212" font-family="Helvetica,sans-Serif" font-size="11.00" fill="#000000">14 &gt;</text>
</a>
</g>
</g>
<!-- patient_data -->
<g id="node2" class="node">
<title>patient_data</title>
<g id="a_node2"><a xlink:href="../../tables/patient_data.html" xlink:title="patient_data" target="_top">
<polygon fill="#ffffff" stroke="transparent" points="8,-203.0212 8,-440.0212 175,-440.0212 175,-203.0212 8,-203.0212"/>
<polygon fill="#f5f5f5" stroke="transparent" points="8.5,-416.5212 8.5,-439.5212 175.5,-439.5212 175.5,-416.5212 8.5,-416.5212"/>
<polygon fill="none" stroke="#000000" points="8.5,-416.5212 8.5,-439.5212 175.5,-439.5212 175.5,-416.5212 8.5,-416.5212"/>
<text text-anchor="start" x="13.5" y="-425.1212" font-family="Helvetica,sans-Serif" font-weight="bold" font-size="11.00" fill="#000000">patient_data</text>
<text text-anchor="start" x="140.5437" y="-424.6212" font-family="Helvetica,sans-Serif" font-size="11.00" fill="#000000">[table]</text>
<polygon fill="#ffffff" stroke="transparent" points="8.5,-394.5212 8.5,-416.5212 175.5,-416.5212 175.5,-394.5212 8.5,-394.5212"/>
<polygon fill="none" stroke="#000000" points="8.5,-394.5212 8.5,-416.5212 175.5,-416.5212 175.5,-394.5212 8.5,-394.5212"/>
<text text-anchor="start" x="28.5" y="-401.6212" font-family="Helvetica,sans-Serif" font-size="11.00" fill="#000000">id</text>
<polygon fill="#ffffff" stroke="transparent" points="8.5,-372.5212 8.5,-394.5212 175.5,-394.5212 175.5,-372.5212 8.5,-372.5212"/>
<polygon fill="none" stroke="#000000" points="8.5,-372.5212 8.5,-394.5212 175.5,-394.5212 175.5,-372.5212 8.5,-372.5212"/>
<text text-anchor="start" x="28.5" y="-379.6212" font-family="Helvetica,sans-Serif" font-size="11.00" fill="#000000">uuid</text>
<polygon fill="none" stroke="#000000" points="8.5,-350.5212 8.5,-372.5212 175.5,-372.5212 175.5,-350.5212 8.5,-350.5212"/>
<image xlink:href="../../images/foreignKeys.png" width="11px" height="12px" preserveAspectRatio="xMinYMin meet" x="13.5" y="-367.521"/>
<text text-anchor="start" x="28.5" y="-357.6212" font-family="Helvetica,sans-Serif" font-size="11.00" fill="#000000">pharmacy_id</text>
<polygon fill="none" stroke="#000000" points="8.5,-328.5212 8.5,-350.5212 175.5,-350.5212 175.5,-328.5212 8.5,-328.5212"/>
<image xlink:href="../../images/foreignKeys.png" width="11px" height="12px" preserveAspectRatio="xMinYMin meet" x="13.5" y="-345.521"/>
<text text-anchor="start" x="28.5" y="-335.6212" font-family="Helvetica,sans-Serif" font-size="11.00" fill="#000000">providerID</text>
<polygon fill="none" stroke="#000000" points="8.5,-306.5212 8.5,-328.5212 175.5,-328.5212 175.5,-306.5212 8.5,-306.5212"/>
<image xlink:href="../../images/foreignKeys.png" width="11px" height="12px" preserveAspectRatio="xMinYMin meet" x="13.5" y="-323.521"/>
<text text-anchor="start" x="28.5" y="-313.6212" font-family="Helvetica,sans-Serif" font-size="11.00" fill="#000000">ref_providerID</text>
<polygon fill="none" stroke="#000000" points="8.5,-284.5212 8.5,-306.5212 175.5,-306.5212 175.5,-284.5212 8.5,-284.5212"/>
<image xlink:href="../../images/primaryKeys.png" width="11px" height="12px" preserveAspectRatio="xMinYMin meet" x="13.5" y="-301.521"/>
<text text-anchor="start" x="28.5" y="-291.6212" font-family="Helvetica,sans-Serif" font-size="11.00" fill="#000000">pid</text>
<polygon fill="none" stroke="#000000" points="8.5,-262.5212 8.5,-284.5212 175.5,-284.5212 175.5,-262.5212 8.5,-262.5212"/>
<image xlink:href="../../images/foreignKeys.png" width="11px" height="12px" preserveAspectRatio="xMinYMin meet" x="13.5" y="-279.521"/>
<text text-anchor="start" x="28.5" y="-269.6212" font-family="Helvetica,sans-Serif" font-size="11.00" fill="#000000">created_by</text>
<polygon fill="none" stroke="#000000" points="8.5,-240.5212 8.5,-262.5212 175.5,-262.5212 175.5,-240.5212 8.5,-240.5212"/>
<image xlink:href="../../images/foreignKeys.png" width="11px" height="12px" preserveAspectRatio="xMinYMin meet" x="13.5" y="-257.521"/>
<text text-anchor="start" x="28.5" y="-247.6212" font-family="Helvetica,sans-Serif" font-size="11.00" fill="#000000">updated_by</text>
<polygon fill="none" stroke="#000000" points="8.5,-221.5212 8.5,-240.5212 175.5,-240.5212 175.5,-221.5212 8.5,-221.5212"/>
<text text-anchor="start" x="11.5" y="-227.6212" font-family="Helvetica,sans-Serif" font-size="11.00" fill="#000000">...</text>
<polygon fill="#ffffff" stroke="transparent" points="8.5,-202.5212 8.5,-221.5212 82.5,-221.5212 82.5,-202.5212 8.5,-202.5212"/>
<polygon fill="none" stroke="#000000" points="8.5,-202.5212 8.5,-221.5212 82.5,-221.5212 82.5,-202.5212 8.5,-202.5212"/>
<text text-anchor="start" x="11.5" y="-208.6212" font-family="Helvetica,sans-Serif" font-size="11.00" fill="#000000">&lt; 5</text>
<polygon fill="#ffffff" stroke="transparent" points="82.5,-202.5212 82.5,-221.5212 121.5,-221.5212 121.5,-202.5212 82.5,-202.5212"/>
<polygon fill="none" stroke="#000000" points="82.5,-202.5212 82.5,-221.5212 121.5,-221.5212 121.5,-202.5212 82.5,-202.5212"/>
<text text-anchor="start" x="112.3862" y="-208.6212" font-family="Helvetica,sans-Serif" font-size="11.00" fill="#000000"> &#160;</text>
<polygon fill="#ffffff" stroke="transparent" points="121.5,-202.5212 121.5,-221.5212 175.5,-221.5212 175.5,-202.5212 121.5,-202.5212"/>
<polygon fill="none" stroke="#000000" points="121.5,-202.5212 121.5,-221.5212 175.5,-221.5212 175.5,-202.5212 121.5,-202.5212"/>
<text text-anchor="start" x="150.7904" y="-208.6212" font-family="Helvetica,sans-Serif" font-size="11.00" fill="#000000">85 &gt;</text>
</a>
</g>
</g>
<!-- form_encounter&#45;&gt;patient_data -->
<g id="edge1" class="edge">
<title>form_encounter:w&#45;&gt;patient_data:e</title>
<path fill="none" stroke="#000000" d="M209.2549,-529.6215C133.6328,-507.2869 276.9341,-295.5212 175.5,-295.5212"/>
<polygon fill="#000000" stroke="#000000" points="216.0656,-530.4989 223.54,-535.0917 220.0328,-531.0101 224,-531.5212 224,-531.5212 224,-531.5212 220.0328,-531.0101 224.46,-527.9507 216.0656,-530.4989 216.0656,-530.4989"/>
<ellipse fill="none" stroke="#000000" cx="212.8918" cy="-530.09" rx="3.2" ry="3.2"/>
</g>
<!-- lists -->
<g id="node3" class="node">
<title>lists</title>
<g id="a_node3"><a xlink:href="../../tables/lists.html" xlink:title="lists" target="_top">
<polygon fill="#ffffff" stroke="transparent" points="257,-93.0212 257,-440.0212 399,-440.0212 399,-93.0212 257,-93.0212"/>
<polygon fill="#f5f5f5" stroke="transparent" points="257,-416.5212 257,-439.5212 399,-439.5212 399,-416.5212 257,-416.5212"/>
<polygon fill="none" stroke="#000000" points="257,-416.5212 257,-439.5212 399,-439.5212 399,-416.5212 257,-416.5212"/>
<text text-anchor="start" x="262" y="-425.1212" font-family="Helvetica,sans-Serif" font-weight="bold" font-size="11.00" fill="#000000">lists</text>
<text text-anchor="start" x="364.0437" y="-424.6212" font-family="Helvetica,sans-Serif" font-size="11.00" fill="#000000">[table]</text>
<polygon fill="none" stroke="#000000" points="257,-394.5212 257,-416.5212 399,-416.5212 399,-394.5212 257,-394.5212"/>
<image xlink:href="../../images/primaryKeys.png" width="11px" height="12px" preserveAspectRatio="xMinYMin meet" x="262" y="-411.521"/>
<text text-anchor="start" x="277" y="-401.6212" font-family="Helvetica,sans-Serif" font-size="11.00" fill="#000000">id</text>
<polygon fill="#ffffff" stroke="transparent" points="257,-372.5212 257,-394.5212 399,-394.5212 399,-372.5212 257,-372.5212"/>
<polygon fill="none" stroke="#000000" points="257,-372.5212 257,-394.5212 399,-394.5212 399,-372.5212 257,-372.5212"/>
<text text-anchor="start" x="277" y="-379.6212" font-family="Helvetica,sans-Serif" font-size="11.00" fill="#000000">uuid</text>
<polygon fill="#ffffff" stroke="transparent" points="257,-350.5212 257,-372.5212 399,-372.5212 399,-350.5212 257,-350.5212"/>
<polygon fill="none" stroke="#000000" points="257,-350.5212 257,-372.5212 399,-372.5212 399,-350.5212 257,-350.5212"/>
<image xlink:href="../../images/foreignKeys.png" width="11px" height="12px" preserveAspectRatio="xMinYMin meet" x="262" y="-367.521"/>
<text text-anchor="start" x="277" y="-357.6212" font-family="Helvetica,sans-Serif" font-size="11.00" fill="#000000">type</text>
<polygon fill="none" stroke="#000000" points="257,-328.5212 257,-350.5212 399,-350.5212 399,-328.5212 257,-328.5212"/>
<image xlink:href="../../images/foreignKeys.png" width="11px" height="12px" preserveAspectRatio="xMinYMin meet" x="262" y="-345.521"/>
<text text-anchor="start" x="277" y="-335.6212" font-family="Helvetica,sans-Serif" font-size="11.00" fill="#000000">subtype</text>
<polygon fill="none" stroke="#000000" points="257,-306.5212 257,-328.5212 399,-328.5212 399,-306.5212 257,-306.5212"/>
<image xlink:href="../../images/foreignKeys.png" width="11px" height="12px" preserveAspectRatio="xMinYMin meet" x="262" y="-323.521"/>
<text text-anchor="start" x="277" y="-313.6212" font-family="Helvetica,sans-Serif" font-size="11.00" fill="#000000">occurrence</text>
<polygon fill="#ffffff" stroke="transparent" points="257,-284.5212 257,-306.5212 399,-306.5212 399,-284.5212 257,-284.5212"/>
<polygon fill="none" stroke="#000000" points="257,-284.5212 257,-306.5212 399,-306.5212 399,-284.5212 257,-284.5212"/>
<image xlink:href="../../images/foreignKeys.png" width="11px" height="12px" preserveAspectRatio="xMinYMin meet" x="262" y="-301.521"/>
<text text-anchor="start" x="277" y="-291.6212" font-family="Helvetica,sans-Serif" font-size="11.00" fill="#000000">pid</text>
<polygon fill="none" stroke="#000000" points="257,-262.5212 257,-284.5212 399,-284.5212 399,-262.5212 257,-262.5212"/>
<image xlink:href="../../images/foreignKeys.png" width="11px" height="12px" preserveAspectRatio="xMinYMin meet" x="262" y="-279.521"/>
<text text-anchor="start" x="277" y="-269.6212" font-family="Helvetica,sans-Serif" font-size="11.00" fill="#000000">user</text>
<polygon fill="none" stroke="#000000" points="257,-240.5212 257,-262.5212 399,-262.5212 399,-240.5212 257,-240.5212"/>
<image xlink:href="../../images/foreignKeys.png" width="11px" height="12px" preserveAspectRatio="xMinYMin meet" x="262" y="-257.521"/>
<text text-anchor="start" x="277" y="-247.6212" font-family="Helvetica,sans-Serif" font-size="11.00" fill="#000000">groupname</text>
<polygon fill="none" stroke="#000000" points="257,-218.5212 257,-240.5212 399,-240.5212 399,-218.5212 257,-218.5212"/>
<image xlink:href="../../images/foreignKeys.png" width="11px" height="12px" preserveAspectRatio="xMinYMin meet" x="262" y="-235.521"/>
<text text-anchor="start" x="277" y="-225.6212" font-family="Helvetica,sans-Serif" font-size="11.00" fill="#000000">outcome</text>
<polygon fill="none" stroke="#000000" points="257,-196.5212 257,-218.5212 399,-218.5212 399,-196.5212 257,-196.5212"/>
<image xlink:href="../../images/foreignKeys.png" width="11px" height="12px" preserveAspectRatio="xMinYMin meet" x="262" y="-213.521"/>
<text text-anchor="start" x="277" y="-203.6212" font-family="Helvetica,sans-Serif" font-size="11.00" fill="#000000">reaction</text>
<polygon fill="none" stroke="#000000" points="257,-174.5212 257,-196.5212 399,-196.5212 399,-174.5212 257,-174.5212"/>
<image xlink:href="../../images/foreignKeys.png" width="11px" height="12px" preserveAspectRatio="xMinYMin meet" x="262" y="-191.521"/>
<text text-anchor="start" x="277" y="-181.6212" font-family="Helvetica,sans-Serif" font-size="11.00" fill="#000000">verification</text>
<polygon fill="none" stroke="#000000" points="257,-152.5212 257,-174.5212 399,-174.5212 399,-152.5212 257,-152.5212"/>
<image xlink:href="../../images/foreignKeys.png" width="11px" height="12px" preserveAspectRatio="xMinYMin meet" x="262" y="-169.521"/>
<text text-anchor="start" x="277" y="-159.6212" font-family="Helvetica,sans-Serif" font-size="11.00" fill="#000000">severity_al</text>
<polygon fill="none" stroke="#000000" points="257,-130.5212 257,-152.5212 399,-152.5212 399,-130.5212 257,-130.5212"/>
<image xlink:href="../../images/foreignKeys.png" width="11px" height="12px" preserveAspectRatio="xMinYMin meet" x="262" y="-147.521"/>
<text text-anchor="start" x="277" y="-137.6212" font-family="Helvetica,sans-Serif" font-size="11.00" fill="#000000">list_option_id</text>
<polygon fill="none" stroke="#000000" points="257,-111.5212 257,-130.5212 399,-130.5212 399,-111.5212 257,-111.5212"/>
<text text-anchor="start" x="260" y="-117.6212" font-family="Helvetica,sans-Serif" font-size="11.00" fill="#000000">...</text>
<polygon fill="#ffffff" stroke="transparent" points="257,-92.5212 257,-111.5212 325,-111.5212 325,-92.5212 257,-92.5212"/>
<polygon fill="none" stroke="#000000" points="257,-92.5212 257,-111.5212 325,-111.5212 325,-92.5212 257,-92.5212"/>
<text text-anchor="start" x="260" y="-98.6212" font-family="Helvetica,sans-Serif" font-size="11.00" fill="#000000">&lt; 11</text>
<polygon fill="#ffffff" stroke="transparent" points="325,-92.5212 325,-111.5212 357,-111.5212 357,-92.5212 325,-92.5212"/>
<polygon fill="none" stroke="#000000" points="325,-92.5212 325,-111.5212 357,-111.5212 357,-92.5212 325,-92.5212"/>
<text text-anchor="start" x="347.8862" y="-98.6212" font-family="Helvetica,sans-Serif" font-size="11.00" fill="#000000"> &#160;</text>
<polygon fill="#ffffff" stroke="transparent" points="357,-92.5212 357,-111.5212 399,-111.5212 399,-92.5212 357,-92.5212"/>
<polygon fill="none" stroke="#000000" points="357,-92.5212 357,-111.5212 399,-111.5212 399,-92.5212 357,-92.5212"/>
<text text-anchor="start" x="380.4053" y="-98.6212" font-family="Helvetica,sans-Serif" font-size="11.00" fill="#000000">4 &gt;</text>
</a>
</g>
</g>
<!-- lists&#45;&gt;patient_data -->
<g id="edge2" class="edge">
<title>lists:w&#45;&gt;patient_data:e</title>
<path fill="none" stroke="#000000" d="M242.4878,-295.5212C217.4908,-295.5212 206.3455,-295.5212 175.5,-295.5212"/>
<polygon fill="#000000" stroke="#000000" points="249,-295.5213 257,-299.1212 253,-295.5212 257,-295.5212 257,-295.5212 257,-295.5212 253,-295.5212 257,-291.9212 249,-295.5213 249,-295.5213"/>
<ellipse fill="none" stroke="#000000" cx="245.8" cy="-295.5213" rx="3.2" ry="3.2"/>
</g>
<!-- issue_encounter -->
<g id="node4" class="node">
<title>issue_encounter</title>
<g id="a_node4"><a xlink:href="../../tables/issue_encounter.html" xlink:title="issue_encounter" target="_top">
<polygon fill="#ffffff" stroke="transparent" points="481,-329.5212 481,-463.5212 677,-463.5212 677,-329.5212 481,-329.5212"/>
<polygon fill="#f5f5f5" stroke="transparent" points="483,-438.5212 483,-461.5212 675,-461.5212 675,-438.5212 483,-438.5212"/>
<polygon fill="none" stroke="#000000" points="483,-438.5212 483,-461.5212 675,-461.5212 675,-438.5212 483,-438.5212"/>
<text text-anchor="start" x="488" y="-447.1212" font-family="Helvetica,sans-Serif" font-weight="bold" font-size="11.00" fill="#000000">issue_encounter</text>
<text text-anchor="start" x="640.0437" y="-446.6212" font-family="Helvetica,sans-Serif" font-size="11.00" fill="#000000">[table]</text>
<polygon fill="none" stroke="#000000" points="483,-416.5212 483,-438.5212 613,-438.5212 613,-416.5212 483,-416.5212"/>
<image xlink:href="../../images/foreignKeys.png" width="11px" height="12px" preserveAspectRatio="xMinYMin meet" x="488" y="-433.521"/>
<text text-anchor="start" x="503" y="-423.6212" font-family="Helvetica,sans-Serif" font-size="11.00" fill="#000000">encounter</text>
<polygon fill="none" stroke="#000000" points="613,-416.5212 613,-438.5212 675,-438.5212 675,-416.5212 613,-416.5212"/>
<text text-anchor="start" x="615.878" y="-424.2212" font-family="Helvetica,sans-Serif" font-size="11.00" fill="#000000">unknown[0]</text>
<polygon fill="none" stroke="#000000" points="483,-394.5212 483,-416.5212 613,-416.5212 613,-394.5212 483,-394.5212"/>
<image xlink:href="../../images/foreignKeys.png" width="11px" height="12px" preserveAspectRatio="xMinYMin meet" x="488" y="-411.521"/>
<text text-anchor="start" x="503" y="-401.6212" font-family="Helvetica,sans-Serif" font-size="11.00" fill="#000000">list_id</text>
<polygon fill="none" stroke="#000000" points="613,-394.5212 613,-416.5212 675,-416.5212 675,-394.5212 613,-394.5212"/>
<text text-anchor="start" x="615.878" y="-402.2212" font-family="Helvetica,sans-Serif" font-size="11.00" fill="#000000">unknown[0]</text>
<polygon fill="none" stroke="#000000" points="483,-372.5212 483,-394.5212 613,-394.5212 613,-372.5212 483,-372.5212"/>
<image xlink:href="../../images/foreignKeys.png" width="11px" height="12px" preserveAspectRatio="xMinYMin meet" x="488" y="-389.521"/>
<text text-anchor="start" x="503" y="-379.6212" font-family="Helvetica,sans-Serif" font-size="11.00" fill="#000000">pid</text>
<polygon fill="none" stroke="#000000" points="613,-372.5212 613,-394.5212 675,-394.5212 675,-372.5212 613,-372.5212"/>
<text text-anchor="start" x="615.878" y="-380.2212" font-family="Helvetica,sans-Serif" font-size="11.00" fill="#000000">unknown[0]</text>
<polygon fill="none" stroke="#000000" points="483,-350.5212 483,-372.5212 613,-372.5212 613,-350.5212 483,-350.5212"/>
<text text-anchor="start" x="503" y="-357.6212" font-family="Helvetica,sans-Serif" font-size="11.00" fill="#000000">resolved</text>
<polygon fill="none" stroke="#000000" points="613,-350.5212 613,-372.5212 675,-372.5212 675,-350.5212 613,-350.5212"/>
<text text-anchor="start" x="615.878" y="-358.2212" font-family="Helvetica,sans-Serif" font-size="11.00" fill="#000000">unknown[0]</text>
<polygon fill="#ffffff" stroke="transparent" points="483,-331.5212 483,-350.5212 552,-350.5212 552,-331.5212 483,-331.5212"/>
<polygon fill="none" stroke="#000000" points="483,-331.5212 483,-350.5212 552,-350.5212 552,-331.5212 483,-331.5212"/>
<text text-anchor="start" x="486" y="-337.6212" font-family="Helvetica,sans-Serif" font-size="11.00" fill="#000000">&lt; 3</text>
<polygon fill="#ffffff" stroke="transparent" points="552,-331.5212 552,-350.5212 613,-350.5212 613,-331.5212 552,-331.5212"/>
<polygon fill="none" stroke="#000000" points="552,-331.5212 552,-350.5212 613,-350.5212 613,-331.5212 552,-331.5212"/>
<text text-anchor="start" x="603.8862" y="-337.6212" font-family="Helvetica,sans-Serif" font-size="11.00" fill="#000000"> &#160;</text>
<polygon fill="#ffffff" stroke="transparent" points="613,-331.5212 613,-350.5212 675,-350.5212 675,-331.5212 613,-331.5212"/>
<polygon fill="none" stroke="#000000" points="613,-331.5212 613,-350.5212 675,-350.5212 675,-331.5212 613,-331.5212"/>
<text text-anchor="start" x="656.4053" y="-337.6212" font-family="Helvetica,sans-Serif" font-size="11.00" fill="#000000">0 &gt;</text>
<polygon fill="none" stroke="#000000" stroke-width="2" points="482,-330.5212 482,-462.5212 676,-462.5212 676,-330.5212 482,-330.5212"/>
</a>
</g>
</g>
<!-- issue_encounter&#45;&gt;form_encounter -->
<g id="edge3" class="edge">
<title>issue_encounter:w&#45;&gt;form_encounter:e</title>
<path fill="none" stroke="#000000" d="M469.0743,-431.9299C448.3419,-448.9621 468.8829,-509.5212 432,-509.5212"/>
<polygon fill="#000000" stroke="#000000" points="475.3731,-429.9358 484.0866,-430.9533 479.1865,-428.7285 483,-427.5212 483,-427.5212 483,-427.5212 479.1865,-428.7285 481.9134,-424.0891 475.3731,-429.9358 475.3731,-429.9358"/>
<ellipse fill="none" stroke="#000000" cx="472.3223" cy="-430.9017" rx="3.2" ry="3.2"/>
</g>
<!-- issue_encounter&#45;&gt;patient_data -->
<g id="edge5" class="edge">
<title>issue_encounter:w&#45;&gt;patient_data:e</title>
<path fill="none" stroke="#000000" d="M469.3837,-378.8233C426.7296,-343.7668 486.957,-123.2468 440,-82.5212 364.7904,-17.2922 292.6899,-19.0392 216,-82.5212 141.7696,-143.9673 271.8627,-295.5212 175.5,-295.5212"/>
<polygon fill="#000000" stroke="#000000" points="475.4375,-380.9119 481.8258,-386.9244 479.2187,-382.2166 483,-383.5212 483,-383.5212 483,-383.5212 479.2187,-382.2166 484.1742,-380.1181 475.4375,-380.9119 475.4375,-380.9119"/>
<ellipse fill="none" stroke="#000000" cx="472.4125" cy="-379.8682" rx="3.2" ry="3.2"/>
</g>
<!-- issue_encounter&#45;&gt;lists -->
<g id="edge4" class="edge">
<title>issue_encounter:w&#45;&gt;lists:e</title>
<path fill="none" stroke="#000000" d="M468.3981,-405.5212C442.3839,-405.5212 430.9375,-405.5212 399,-405.5212"/>
<polygon fill="#000000" stroke="#000000" points="475,-405.5213 483,-409.1212 479,-405.5212 483,-405.5212 483,-405.5212 483,-405.5212 479,-405.5212 483,-401.9212 475,-405.5213 475,-405.5213"/>
<ellipse fill="none" stroke="#000000" cx="471.8" cy="-405.5213" rx="3.2" ry="3.2"/>
</g>
</g>
</svg>
