<?xml version="1.0" encoding="UTF-8" standalone="no"?>
<!DOCTYPE svg PUBLIC "-//W3C//DTD SVG 1.1//EN"
 "http://www.w3.org/Graphics/SVG/1.1/DTD/svg11.dtd">
<!-- Generated by graphviz version 2.40.1 (20161225.0304)
 -->
<!-- Title: twoDegreesRelationshipsDiagram Pages: 1 -->
<svg width="821pt" height="943pt"
 viewBox="0.00 0.00 821.00 943.43" xmlns="http://www.w3.org/2000/svg" xmlns:xlink="http://www.w3.org/1999/xlink">
<g id="graph0" class="graph" transform="scale(1 1) rotate(0) translate(4 939.4314)">
<title>twoDegreesRelationshipsDiagram</title>
<polygon fill="#ffffff" stroke="transparent" points="-4,4 -4,-939.4314 817,-939.4314 817,4 -4,4"/>
<text text-anchor="middle" x="72.4936" y="-7.3" font-family="Helvetica,sans-Serif" font-size="11.00" fill="#000000">Generated by SchemaSpy</text>
<!-- documents -->
<g id="node1" class="node">
<title>documents</title>
<g id="a_node1"><a xlink:href="../../tables/documents.html" xlink:title="documents" target="_top">
<polygon fill="#ffffff" stroke="transparent" points="626,-612.6902 626,-673.6902 732,-673.6902 732,-612.6902 626,-612.6902"/>
<polygon fill="#f5f5f5" stroke="transparent" points="626,-650.1902 626,-673.1902 732,-673.1902 732,-650.1902 626,-650.1902"/>
<polygon fill="none" stroke="#000000" points="626,-650.1902 626,-673.1902 732,-673.1902 732,-650.1902 626,-650.1902"/>
<text text-anchor="start" x="631" y="-658.7902" font-family="Helvetica,sans-Serif" font-weight="bold" font-size="11.00" fill="#000000">documents</text>
<text text-anchor="start" x="697.5219" y="-658.2902" font-family="Helvetica,sans-Serif" font-size="11.00" fill="#000000">[table]</text>
<polygon fill="none" stroke="#000000" points="626,-631.1902 626,-650.1902 732,-650.1902 732,-631.1902 626,-631.1902"/>
<text text-anchor="start" x="629" y="-637.2902" font-family="Helvetica,sans-Serif" font-size="11.00" fill="#000000">...</text>
<polygon fill="#ffffff" stroke="transparent" points="626,-612.1902 626,-631.1902 673,-631.1902 673,-612.1902 626,-612.1902"/>
<polygon fill="none" stroke="#000000" points="626,-612.1902 626,-631.1902 673,-631.1902 673,-612.1902 626,-612.1902"/>
<text text-anchor="start" x="629" y="-618.2902" font-family="Helvetica,sans-Serif" font-size="11.00" fill="#000000">&lt; 4</text>
<polygon fill="#ffffff" stroke="transparent" points="673,-612.1902 673,-631.1902 698,-631.1902 698,-612.1902 673,-612.1902"/>
<polygon fill="none" stroke="#000000" points="673,-612.1902 673,-631.1902 698,-631.1902 698,-612.1902 673,-612.1902"/>
<text text-anchor="start" x="688.8862" y="-618.2902" font-family="Helvetica,sans-Serif" font-size="11.00" fill="#000000"> &#160;</text>
<polygon fill="#ffffff" stroke="transparent" points="698,-612.1902 698,-631.1902 732,-631.1902 732,-612.1902 698,-612.1902"/>
<polygon fill="none" stroke="#000000" points="698,-612.1902 698,-631.1902 732,-631.1902 732,-612.1902 698,-612.1902"/>
<text text-anchor="start" x="713.4053" y="-618.2902" font-family="Helvetica,sans-Serif" font-size="11.00" fill="#000000">5 &gt;</text>
</a>
</g>
</g>
<!-- patient_data -->
<g id="node2" class="node">
<title>patient_data</title>
<g id="a_node2"><a xlink:href="../../tables/patient_data.html" xlink:title="patient_data" target="_top">
<polygon fill="#ffffff" stroke="transparent" points="187.5,-612.6902 187.5,-673.6902 302.5,-673.6902 302.5,-612.6902 187.5,-612.6902"/>
<polygon fill="#f5f5f5" stroke="transparent" points="188,-650.1902 188,-673.1902 303,-673.1902 303,-650.1902 188,-650.1902"/>
<polygon fill="none" stroke="#000000" points="188,-650.1902 188,-673.1902 303,-673.1902 303,-650.1902 188,-650.1902"/>
<text text-anchor="start" x="193" y="-658.7902" font-family="Helvetica,sans-Serif" font-weight="bold" font-size="11.00" fill="#000000">patient_data</text>
<text text-anchor="start" x="268.5219" y="-658.2902" font-family="Helvetica,sans-Serif" font-size="11.00" fill="#000000">[table]</text>
<polygon fill="none" stroke="#000000" points="188,-631.1902 188,-650.1902 303,-650.1902 303,-631.1902 188,-631.1902"/>
<text text-anchor="start" x="191" y="-637.2902" font-family="Helvetica,sans-Serif" font-size="11.00" fill="#000000">...</text>
<polygon fill="#ffffff" stroke="transparent" points="188,-612.1902 188,-631.1902 236,-631.1902 236,-612.1902 188,-612.1902"/>
<polygon fill="none" stroke="#000000" points="188,-612.1902 188,-631.1902 236,-631.1902 236,-612.1902 188,-612.1902"/>
<text text-anchor="start" x="191" y="-618.2902" font-family="Helvetica,sans-Serif" font-size="11.00" fill="#000000">&lt; 9</text>
<polygon fill="#ffffff" stroke="transparent" points="236,-612.1902 236,-631.1902 262,-631.1902 262,-612.1902 236,-612.1902"/>
<polygon fill="none" stroke="#000000" points="236,-612.1902 236,-631.1902 262,-631.1902 262,-612.1902 236,-612.1902"/>
<text text-anchor="start" x="252.8862" y="-618.2902" font-family="Helvetica,sans-Serif" font-size="11.00" fill="#000000"> &#160;</text>
<polygon fill="#ffffff" stroke="transparent" points="262,-612.1902 262,-631.1902 303,-631.1902 303,-612.1902 262,-612.1902"/>
<polygon fill="none" stroke="#000000" points="262,-612.1902 262,-631.1902 303,-631.1902 303,-612.1902 262,-612.1902"/>
<text text-anchor="start" x="278.2904" y="-618.2902" font-family="Helvetica,sans-Serif" font-size="11.00" fill="#000000">97 &gt;</text>
</a>
</g>
</g>
<!-- documents&#45;&gt;patient_data -->
<g id="edge1" class="edge">
<title>documents:w&#45;&gt;patient_data:e</title>
<path fill="none" stroke="#000000" d="M611.2492,-640.1902C479.7879,-640.1902 441.5087,-640.1902 303,-640.1902"/>
<polygon fill="#000000" stroke="#000000" points="618,-640.1902 626,-643.7902 622,-640.1902 626,-640.1902 626,-640.1902 626,-640.1902 622,-640.1902 626,-636.5902 618,-640.1902 618,-640.1902"/>
<ellipse fill="none" stroke="#000000" cx="614.8" cy="-640.1902" rx="3.2" ry="3.2"/>
</g>
<!-- lists -->
<g id="node3" class="node">
<title>lists</title>
<g id="a_node3"><a xlink:href="../../tables/lists.html" xlink:title="lists" target="_top">
<polygon fill="#ffffff" stroke="transparent" points="375,-109.6902 375,-456.6902 504,-456.6902 504,-109.6902 375,-109.6902"/>
<polygon fill="#f5f5f5" stroke="transparent" points="375.5,-433.1902 375.5,-456.1902 504.5,-456.1902 504.5,-433.1902 375.5,-433.1902"/>
<polygon fill="none" stroke="#000000" points="375.5,-433.1902 375.5,-456.1902 504.5,-456.1902 504.5,-433.1902 375.5,-433.1902"/>
<text text-anchor="start" x="380.5" y="-441.7902" font-family="Helvetica,sans-Serif" font-weight="bold" font-size="11.00" fill="#000000">lists</text>
<text text-anchor="start" x="469.5437" y="-441.2902" font-family="Helvetica,sans-Serif" font-size="11.00" fill="#000000">[table]</text>
<polygon fill="none" stroke="#000000" points="375.5,-411.1902 375.5,-433.1902 504.5,-433.1902 504.5,-411.1902 375.5,-411.1902"/>
<image xlink:href="../../images/primaryKeys.png" width="11px" height="12px" preserveAspectRatio="xMinYMin meet" x="380.5" y="-428.19"/>
<text text-anchor="start" x="395.5" y="-418.2902" font-family="Helvetica,sans-Serif" font-size="11.00" fill="#000000">id</text>
<polygon fill="#ffffff" stroke="transparent" points="375.5,-389.1902 375.5,-411.1902 504.5,-411.1902 504.5,-389.1902 375.5,-389.1902"/>
<polygon fill="none" stroke="#000000" points="375.5,-389.1902 375.5,-411.1902 504.5,-411.1902 504.5,-389.1902 375.5,-389.1902"/>
<text text-anchor="start" x="395.5" y="-396.2902" font-family="Helvetica,sans-Serif" font-size="11.00" fill="#000000">uuid</text>
<polygon fill="#ffffff" stroke="transparent" points="375.5,-367.1902 375.5,-389.1902 504.5,-389.1902 504.5,-367.1902 375.5,-367.1902"/>
<polygon fill="none" stroke="#000000" points="375.5,-367.1902 375.5,-389.1902 504.5,-389.1902 504.5,-367.1902 375.5,-367.1902"/>
<image xlink:href="../../images/foreignKeys.png" width="11px" height="12px" preserveAspectRatio="xMinYMin meet" x="380.5" y="-384.19"/>
<text text-anchor="start" x="395.5" y="-374.2902" font-family="Helvetica,sans-Serif" font-size="11.00" fill="#000000">type</text>
<polygon fill="none" stroke="#000000" points="375.5,-345.1902 375.5,-367.1902 504.5,-367.1902 504.5,-345.1902 375.5,-345.1902"/>
<image xlink:href="../../images/foreignKeys.png" width="11px" height="12px" preserveAspectRatio="xMinYMin meet" x="380.5" y="-362.19"/>
<text text-anchor="start" x="395.5" y="-352.2902" font-family="Helvetica,sans-Serif" font-size="11.00" fill="#000000">subtype</text>
<polygon fill="none" stroke="#000000" points="375.5,-323.1902 375.5,-345.1902 504.5,-345.1902 504.5,-323.1902 375.5,-323.1902"/>
<image xlink:href="../../images/foreignKeys.png" width="11px" height="12px" preserveAspectRatio="xMinYMin meet" x="380.5" y="-340.19"/>
<text text-anchor="start" x="395.5" y="-330.2902" font-family="Helvetica,sans-Serif" font-size="11.00" fill="#000000">occurrence</text>
<polygon fill="#ffffff" stroke="transparent" points="375.5,-301.1902 375.5,-323.1902 504.5,-323.1902 504.5,-301.1902 375.5,-301.1902"/>
<polygon fill="none" stroke="#000000" points="375.5,-301.1902 375.5,-323.1902 504.5,-323.1902 504.5,-301.1902 375.5,-301.1902"/>
<image xlink:href="../../images/foreignKeys.png" width="11px" height="12px" preserveAspectRatio="xMinYMin meet" x="380.5" y="-318.19"/>
<text text-anchor="start" x="395.5" y="-308.2902" font-family="Helvetica,sans-Serif" font-size="11.00" fill="#000000">pid</text>
<polygon fill="none" stroke="#000000" points="375.5,-279.1902 375.5,-301.1902 504.5,-301.1902 504.5,-279.1902 375.5,-279.1902"/>
<image xlink:href="../../images/foreignKeys.png" width="11px" height="12px" preserveAspectRatio="xMinYMin meet" x="380.5" y="-296.19"/>
<text text-anchor="start" x="395.5" y="-286.2902" font-family="Helvetica,sans-Serif" font-size="11.00" fill="#000000">user</text>
<polygon fill="none" stroke="#000000" points="375.5,-257.1902 375.5,-279.1902 504.5,-279.1902 504.5,-257.1902 375.5,-257.1902"/>
<image xlink:href="../../images/foreignKeys.png" width="11px" height="12px" preserveAspectRatio="xMinYMin meet" x="380.5" y="-274.19"/>
<text text-anchor="start" x="395.5" y="-264.2902" font-family="Helvetica,sans-Serif" font-size="11.00" fill="#000000">groupname</text>
<polygon fill="none" stroke="#000000" points="375.5,-235.1902 375.5,-257.1902 504.5,-257.1902 504.5,-235.1902 375.5,-235.1902"/>
<image xlink:href="../../images/foreignKeys.png" width="11px" height="12px" preserveAspectRatio="xMinYMin meet" x="380.5" y="-252.19"/>
<text text-anchor="start" x="395.5" y="-242.2902" font-family="Helvetica,sans-Serif" font-size="11.00" fill="#000000">outcome</text>
<polygon fill="none" stroke="#000000" points="375.5,-213.1902 375.5,-235.1902 504.5,-235.1902 504.5,-213.1902 375.5,-213.1902"/>
<image xlink:href="../../images/foreignKeys.png" width="11px" height="12px" preserveAspectRatio="xMinYMin meet" x="380.5" y="-230.19"/>
<text text-anchor="start" x="395.5" y="-220.2902" font-family="Helvetica,sans-Serif" font-size="11.00" fill="#000000">reaction</text>
<polygon fill="none" stroke="#000000" points="375.5,-191.1902 375.5,-213.1902 504.5,-213.1902 504.5,-191.1902 375.5,-191.1902"/>
<image xlink:href="../../images/foreignKeys.png" width="11px" height="12px" preserveAspectRatio="xMinYMin meet" x="380.5" y="-208.19"/>
<text text-anchor="start" x="395.5" y="-198.2902" font-family="Helvetica,sans-Serif" font-size="11.00" fill="#000000">verification</text>
<polygon fill="none" stroke="#000000" points="375.5,-169.1902 375.5,-191.1902 504.5,-191.1902 504.5,-169.1902 375.5,-169.1902"/>
<image xlink:href="../../images/foreignKeys.png" width="11px" height="12px" preserveAspectRatio="xMinYMin meet" x="380.5" y="-186.19"/>
<text text-anchor="start" x="395.5" y="-176.2902" font-family="Helvetica,sans-Serif" font-size="11.00" fill="#000000">severity_al</text>
<polygon fill="none" stroke="#000000" points="375.5,-147.1902 375.5,-169.1902 504.5,-169.1902 504.5,-147.1902 375.5,-147.1902"/>
<image xlink:href="../../images/foreignKeys.png" width="11px" height="12px" preserveAspectRatio="xMinYMin meet" x="380.5" y="-164.19"/>
<text text-anchor="start" x="395.5" y="-154.2902" font-family="Helvetica,sans-Serif" font-size="11.00" fill="#000000">list_option_id</text>
<polygon fill="none" stroke="#000000" points="375.5,-128.1902 375.5,-147.1902 504.5,-147.1902 504.5,-128.1902 375.5,-128.1902"/>
<text text-anchor="start" x="378.5" y="-134.2902" font-family="Helvetica,sans-Serif" font-size="11.00" fill="#000000">...</text>
<polygon fill="#ffffff" stroke="transparent" points="375.5,-109.1902 375.5,-128.1902 436.5,-128.1902 436.5,-109.1902 375.5,-109.1902"/>
<polygon fill="none" stroke="#000000" points="375.5,-109.1902 375.5,-128.1902 436.5,-128.1902 436.5,-109.1902 375.5,-109.1902"/>
<text text-anchor="start" x="378.5" y="-115.2902" font-family="Helvetica,sans-Serif" font-size="11.00" fill="#000000">&lt; 11</text>
<polygon fill="#ffffff" stroke="transparent" points="436.5,-109.1902 436.5,-128.1902 465.5,-128.1902 465.5,-109.1902 436.5,-109.1902"/>
<polygon fill="none" stroke="#000000" points="436.5,-109.1902 436.5,-128.1902 465.5,-128.1902 465.5,-109.1902 436.5,-109.1902"/>
<text text-anchor="start" x="456.3862" y="-115.2902" font-family="Helvetica,sans-Serif" font-size="11.00" fill="#000000"> &#160;</text>
<polygon fill="#ffffff" stroke="transparent" points="465.5,-109.1902 465.5,-128.1902 504.5,-128.1902 504.5,-109.1902 465.5,-109.1902"/>
<polygon fill="none" stroke="#000000" points="465.5,-109.1902 465.5,-128.1902 504.5,-128.1902 504.5,-109.1902 465.5,-109.1902"/>
<text text-anchor="start" x="485.9053" y="-115.2902" font-family="Helvetica,sans-Serif" font-size="11.00" fill="#000000">5 &gt;</text>
</a>
</g>
</g>
<!-- documents&#45;&gt;lists -->
<g id="edge2" class="edge">
<title>documents:w&#45;&gt;lists:e</title>
<path fill="none" stroke="#000000" d="M611.5439,-638.924C567.6298,-630.5098 570.8594,-581.5551 545,-534.1902 519.6351,-487.731 557.4323,-422.1902 504.5,-422.1902"/>
<polygon fill="#000000" stroke="#000000" points="618.0305,-639.4921 625.6859,-643.7764 622.0153,-639.8411 626,-640.1902 626,-640.1902 626,-640.1902 622.0153,-639.8411 626.3141,-636.6039 618.0305,-639.4921 618.0305,-639.4921"/>
<ellipse fill="none" stroke="#000000" cx="614.8427" cy="-639.2129" rx="3.2" ry="3.2"/>
</g>
<!-- users -->
<g id="node4" class="node">
<title>users</title>
<g id="a_node4"><a xlink:href="../../tables/users.html" xlink:title="users" target="_top">
<polygon fill="#ffffff" stroke="transparent" points="26,-676.6902 26,-737.6902 97,-737.6902 97,-676.6902 26,-676.6902"/>
<polygon fill="#f5f5f5" stroke="transparent" points="26.5,-714.1902 26.5,-737.1902 97.5,-737.1902 97.5,-714.1902 26.5,-714.1902"/>
<polygon fill="none" stroke="#000000" points="26.5,-714.1902 26.5,-737.1902 97.5,-737.1902 97.5,-714.1902 26.5,-714.1902"/>
<text text-anchor="start" x="31.5" y="-722.7902" font-family="Helvetica,sans-Serif" font-weight="bold" font-size="11.00" fill="#000000">users</text>
<text text-anchor="start" x="63.0219" y="-722.2902" font-family="Helvetica,sans-Serif" font-size="11.00" fill="#000000">[table]</text>
<polygon fill="none" stroke="#000000" points="26.5,-695.1902 26.5,-714.1902 97.5,-714.1902 97.5,-695.1902 26.5,-695.1902"/>
<text text-anchor="start" x="29.5" y="-701.2902" font-family="Helvetica,sans-Serif" font-size="11.00" fill="#000000">...</text>
<polygon fill="#ffffff" stroke="transparent" points="26.5,-676.1902 26.5,-695.1902 52.5,-695.1902 52.5,-676.1902 26.5,-676.1902"/>
<polygon fill="none" stroke="#000000" points="26.5,-676.1902 26.5,-695.1902 52.5,-695.1902 52.5,-676.1902 26.5,-676.1902"/>
<text text-anchor="start" x="29.5" y="-682.2902" font-family="Helvetica,sans-Serif" font-size="11.00" fill="#000000">&lt; 2</text>
<polygon fill="#ffffff" stroke="transparent" points="52.5,-676.1902 52.5,-695.1902 67.5,-695.1902 67.5,-676.1902 52.5,-676.1902"/>
<polygon fill="none" stroke="#000000" points="52.5,-676.1902 52.5,-695.1902 67.5,-695.1902 67.5,-676.1902 52.5,-676.1902"/>
<text text-anchor="start" x="58.3862" y="-682.2902" font-family="Helvetica,sans-Serif" font-size="11.00" fill="#000000"> &#160;</text>
<polygon fill="#ffffff" stroke="transparent" points="67.5,-676.1902 67.5,-695.1902 97.5,-695.1902 97.5,-676.1902 67.5,-676.1902"/>
<polygon fill="none" stroke="#000000" points="67.5,-676.1902 67.5,-695.1902 97.5,-695.1902 97.5,-676.1902 67.5,-676.1902"/>
<text text-anchor="start" x="72.7904" y="-682.2902" font-family="Helvetica,sans-Serif" font-size="11.00" fill="#000000">91 &gt;</text>
</a>
</g>
</g>
<!-- documents&#45;&gt;users -->
<g id="edge3" class="edge">
<title>documents:w&#45;&gt;users:e</title>
<path fill="none" stroke="#000000" d="M611.5589,-641.3356C576.0962,-647.4631 569.1703,-677.4303 545,-713.1902 521.1422,-748.4877 544.9949,-776.2375 512,-803.1902 481.0156,-828.5004 373.8947,-827.1816 334,-830.1902 255.1129,-836.1391 222.6863,-872.752 156,-830.1902 103.9554,-796.9733 159.2414,-704.1902 97.5,-704.1902"/>
<polygon fill="#000000" stroke="#000000" points="618.025,-640.8228 626.2847,-643.7789 622.0125,-640.5065 626,-640.1902 626,-640.1902 626,-640.1902 622.0125,-640.5065 625.7153,-636.6014 618.025,-640.8228 618.025,-640.8228"/>
<ellipse fill="none" stroke="#000000" cx="614.8351" cy="-641.0758" rx="3.2" ry="3.2"/>
</g>
<!-- patient_data&#45;&gt;users -->
<g id="edge34" class="edge">
<title>patient_data:w&#45;&gt;users:e</title>
<path fill="none" stroke="#000000" d="M174.1901,-634.8168C139.7923,-627.2675 141.5679,-680.9323 97.5,-704.1902"/>
<polygon fill="#000000" stroke="#000000" points="180.5445,-637.2892 186.6946,-643.5451 184.2722,-638.7397 188,-640.1902 188,-640.1902 188,-640.1902 184.2722,-638.7397 189.3054,-636.8352 180.5445,-637.2892 180.5445,-637.2892"/>
<ellipse fill="none" stroke="#000000" cx="177.5623" cy="-636.1289" rx="3.2" ry="3.2"/>
</g>
<!-- patient_data&#45;&gt;users -->
<g id="edge35" class="edge">
<title>patient_data:w&#45;&gt;users:e</title>
<path fill="none" stroke="#000000" d="M173.2971,-638.5505C139.8198,-641.0357 141.1831,-692.6628 97.5,-704.1902"/>
<polygon fill="#000000" stroke="#000000" points="180.0493,-639.3034 187.601,-643.768 184.0246,-639.7468 188,-640.1902 188,-640.1902 188,-640.1902 184.0246,-639.7468 188.399,-636.6123 180.0493,-639.3034 180.0493,-639.3034"/>
<ellipse fill="none" stroke="#000000" cx="176.869" cy="-638.9487" rx="3.2" ry="3.2"/>
</g>
<!-- patient_data&#45;&gt;users -->
<g id="edge37" class="edge">
<title>patient_data:w&#45;&gt;users:e</title>
<path fill="none" stroke="#000000" d="M173.7415,-642.3196C139.8069,-653.4245 141.3755,-704.1902 97.5,-704.1902"/>
<polygon fill="#000000" stroke="#000000" points="180.0877,-641.3718 188.5318,-643.7507 184.0439,-640.781 188,-640.1902 188,-640.1902 188,-640.1902 184.0439,-640.781 187.4682,-636.6296 180.0877,-641.3718 180.0877,-641.3718"/>
<ellipse fill="none" stroke="#000000" cx="176.9228" cy="-641.8445" rx="3.2" ry="3.2"/>
</g>
<!-- patient_data&#45;&gt;users -->
<g id="edge38" class="edge">
<title>patient_data:w&#45;&gt;users:e</title>
<path fill="none" stroke="#000000" d="M174.6428,-645.5952C139.7759,-665.3959 141.7604,-715.8698 97.5,-704.1902"/>
<polygon fill="#000000" stroke="#000000" points="180.5841,-643.191 189.3504,-643.5273 184.2921,-641.6906 188,-640.1902 188,-640.1902 188,-640.1902 184.2921,-641.6906 186.6496,-636.853 180.5841,-643.191 180.5841,-643.191"/>
<ellipse fill="none" stroke="#000000" cx="177.6178" cy="-644.3914" rx="3.2" ry="3.2"/>
</g>
<!-- patient_data&#45;&gt;users -->
<g id="edge41" class="edge">
<title>patient_data:w&#45;&gt;users:e</title>
<path fill="none" stroke="#000000" d="M175.5608,-648.3991C139.7379,-677.3991 142.1452,-727.7527 97.5,-704.1902"/>
<polygon fill="#000000" stroke="#000000" points="181.3229,-644.5966 189.9829,-643.1949 184.6614,-642.3934 188,-640.1902 188,-640.1902 188,-640.1902 184.6614,-642.3934 186.0171,-637.1855 181.3229,-644.5966 181.3229,-644.5966"/>
<ellipse fill="none" stroke="#000000" cx="178.652" cy="-646.3591" rx="3.2" ry="3.2"/>
</g>
<!-- list_options -->
<g id="node9" class="node">
<title>list_options</title>
<g id="a_node9"><a xlink:href="../../tables/list_options.html" xlink:title="list_options" target="_top">
<polygon fill="#ffffff" stroke="transparent" points="8,-152.6902 8,-213.6902 115,-213.6902 115,-152.6902 8,-152.6902"/>
<polygon fill="#f5f5f5" stroke="transparent" points="8.5,-190.1902 8.5,-213.1902 115.5,-213.1902 115.5,-190.1902 8.5,-190.1902"/>
<polygon fill="none" stroke="#000000" points="8.5,-190.1902 8.5,-213.1902 115.5,-213.1902 115.5,-190.1902 8.5,-190.1902"/>
<text text-anchor="start" x="13.5" y="-198.7902" font-family="Helvetica,sans-Serif" font-weight="bold" font-size="11.00" fill="#000000">list_options</text>
<text text-anchor="start" x="81.0219" y="-198.2902" font-family="Helvetica,sans-Serif" font-size="11.00" fill="#000000">[table]</text>
<polygon fill="none" stroke="#000000" points="8.5,-171.1902 8.5,-190.1902 115.5,-190.1902 115.5,-171.1902 8.5,-171.1902"/>
<text text-anchor="start" x="11.5" y="-177.2902" font-family="Helvetica,sans-Serif" font-size="11.00" fill="#000000">...</text>
<polygon fill="#ffffff" stroke="transparent" points="8.5,-152.1902 8.5,-171.1902 48.5,-171.1902 48.5,-152.1902 8.5,-152.1902"/>
<polygon fill="none" stroke="#000000" points="8.5,-152.1902 8.5,-171.1902 48.5,-171.1902 48.5,-152.1902 8.5,-152.1902"/>
<text text-anchor="start" x="11.5" y="-158.2902" font-family="Helvetica,sans-Serif" font-size="11.00" fill="#000000"> &#160;</text>
<polygon fill="#ffffff" stroke="transparent" points="48.5,-152.1902 48.5,-171.1902 74.5,-171.1902 74.5,-152.1902 48.5,-152.1902"/>
<polygon fill="none" stroke="#000000" points="48.5,-152.1902 48.5,-171.1902 74.5,-171.1902 74.5,-152.1902 48.5,-152.1902"/>
<text text-anchor="start" x="65.3862" y="-158.2902" font-family="Helvetica,sans-Serif" font-size="11.00" fill="#000000"> &#160;</text>
<polygon fill="#ffffff" stroke="transparent" points="74.5,-152.1902 74.5,-171.1902 115.5,-171.1902 115.5,-152.1902 74.5,-152.1902"/>
<polygon fill="none" stroke="#000000" points="74.5,-152.1902 74.5,-171.1902 115.5,-171.1902 115.5,-152.1902 74.5,-152.1902"/>
<text text-anchor="start" x="90.7904" y="-158.2902" font-family="Helvetica,sans-Serif" font-size="11.00" fill="#000000">98 &gt;</text>
</a>
</g>
</g>
<!-- patient_data&#45;&gt;list_options -->
<g id="edge36" class="edge">
<title>patient_data:w&#45;&gt;list_options:e</title>
<path fill="none" stroke="#000000" d="M176.3963,-631.286C164.8119,-619.3713 162.751,-604.5433 156,-588.1902 138.0677,-544.7523 162.4937,-167.1902 115.5,-180.1902"/>
<polygon fill="#000000" stroke="#000000" points="181.6533,-635.3199 185.8084,-643.0462 184.8266,-637.755 188,-640.1902 188,-640.1902 188,-640.1902 184.8266,-637.755 190.1916,-637.3341 181.6533,-635.3199 181.6533,-635.3199"/>
<ellipse fill="none" stroke="#000000" cx="179.1146" cy="-633.3718" rx="3.2" ry="3.2"/>
</g>
<!-- patient_data&#45;&gt;list_options -->
<g id="edge39" class="edge">
<title>patient_data:w&#45;&gt;list_options:e</title>
<path fill="none" stroke="#000000" d="M173.8158,-636.4145C164.456,-630.0127 162.2163,-616.248 156,-601.1902 138.0677,-557.7523 162.4937,-180.1902 115.5,-180.1902"/>
<polygon fill="#000000" stroke="#000000" points="180.2692,-638.1323 187.074,-643.669 184.1346,-639.1612 188,-640.1902 188,-640.1902 188,-640.1902 184.1346,-639.1612 188.926,-636.7113 180.2692,-638.1323 180.2692,-638.1323"/>
<ellipse fill="none" stroke="#000000" cx="177.1769" cy="-637.3091" rx="3.2" ry="3.2"/>
</g>
<!-- patient_data&#45;&gt;list_options -->
<g id="edge40" class="edge">
<title>patient_data:w&#45;&gt;list_options:e</title>
<path fill="none" stroke="#000000" d="M174.1202,-644.4697C164.5037,-643.3086 162.2831,-629.4099 156,-614.1902 138.0677,-570.7523 162.4937,-193.1902 115.5,-180.1902"/>
<polygon fill="#000000" stroke="#000000" points="180.3551,-642.5473 189.0607,-643.6303 184.1776,-641.3688 188,-640.1902 188,-640.1902 188,-640.1902 184.1776,-641.3688 186.9393,-636.75 180.3551,-642.5473 180.3551,-642.5473"/>
<ellipse fill="none" stroke="#000000" cx="177.2972" cy="-643.4902" rx="3.2" ry="3.2"/>
</g>
<!-- lists&#45;&gt;patient_data -->
<g id="edge20" class="edge">
<title>lists:w&#45;&gt;patient_data:e</title>
<path fill="none" stroke="#000000" d="M361.7294,-316.6012C318.1667,-348.6868 357.583,-546.4993 334,-601.1902 325.2326,-621.5225 325.1421,-640.1902 303,-640.1902"/>
<polygon fill="#000000" stroke="#000000" points="367.8813,-314.6306 376.5982,-315.6186 371.6907,-313.4104 375.5,-312.1902 375.5,-312.1902 375.5,-312.1902 371.6907,-313.4104 374.4018,-308.7618 367.8813,-314.6306 367.8813,-314.6306"/>
<ellipse fill="none" stroke="#000000" cx="364.8338" cy="-315.6068" rx="3.2" ry="3.2"/>
</g>
<!-- lists&#45;&gt;users -->
<g id="edge25" class="edge">
<title>lists:w&#45;&gt;users:e</title>
<path fill="none" stroke="#000000" d="M360.9084,-289.8702C272.1723,-286.011 223.173,-249.6506 156,-314.1902 92.8054,-374.9072 185.1362,-704.1902 97.5,-704.1902"/>
<polygon fill="#000000" stroke="#000000" points="367.5019,-290.0148 375.4211,-293.7893 371.501,-290.1025 375.5,-290.1902 375.5,-290.1902 375.5,-290.1902 371.501,-290.1025 375.5789,-286.591 367.5019,-290.0148 367.5019,-290.0148"/>
<ellipse fill="none" stroke="#000000" cx="364.3027" cy="-289.9446" rx="3.2" ry="3.2"/>
</g>
<!-- groups -->
<g id="node7" class="node">
<title>groups</title>
<g id="a_node7"><a xlink:href="../../tables/groups.html" xlink:title="groups" target="_top">
<polygon fill="#ffffff" stroke="transparent" points="205,-734.6902 205,-795.6902 285,-795.6902 285,-734.6902 205,-734.6902"/>
<polygon fill="#f5f5f5" stroke="transparent" points="205,-772.1902 205,-795.1902 285,-795.1902 285,-772.1902 205,-772.1902"/>
<polygon fill="none" stroke="#000000" points="205,-772.1902 205,-795.1902 285,-795.1902 285,-772.1902 205,-772.1902"/>
<text text-anchor="start" x="210" y="-780.7902" font-family="Helvetica,sans-Serif" font-weight="bold" font-size="11.00" fill="#000000">groups</text>
<text text-anchor="start" x="250.5219" y="-780.2902" font-family="Helvetica,sans-Serif" font-size="11.00" fill="#000000">[table]</text>
<polygon fill="none" stroke="#000000" points="205,-753.1902 205,-772.1902 285,-772.1902 285,-753.1902 205,-753.1902"/>
<text text-anchor="start" x="208" y="-759.2902" font-family="Helvetica,sans-Serif" font-size="11.00" fill="#000000">...</text>
<polygon fill="#ffffff" stroke="transparent" points="205,-734.1902 205,-753.1902 236,-753.1902 236,-734.1902 205,-734.1902"/>
<polygon fill="none" stroke="#000000" points="205,-734.1902 205,-753.1902 236,-753.1902 236,-734.1902 205,-734.1902"/>
<text text-anchor="start" x="208" y="-740.2902" font-family="Helvetica,sans-Serif" font-size="11.00" fill="#000000">&lt; 1</text>
<polygon fill="#ffffff" stroke="transparent" points="236,-734.1902 236,-753.1902 253,-753.1902 253,-734.1902 236,-734.1902"/>
<polygon fill="none" stroke="#000000" points="236,-734.1902 236,-753.1902 253,-753.1902 253,-734.1902 236,-734.1902"/>
<text text-anchor="start" x="243.8862" y="-740.2902" font-family="Helvetica,sans-Serif" font-size="11.00" fill="#000000"> &#160;</text>
<polygon fill="#ffffff" stroke="transparent" points="253,-734.1902 253,-753.1902 285,-753.1902 285,-734.1902 253,-734.1902"/>
<polygon fill="none" stroke="#000000" points="253,-734.1902 253,-753.1902 285,-753.1902 285,-734.1902 253,-734.1902"/>
<text text-anchor="start" x="260.2904" y="-740.2902" font-family="Helvetica,sans-Serif" font-size="11.00" fill="#000000">17 &gt;</text>
</a>
</g>
</g>
<!-- lists&#45;&gt;groups -->
<g id="edge16" class="edge">
<title>lists:w&#45;&gt;groups:e</title>
<path fill="none" stroke="#000000" d="M364.1043,-277.4233C332.4922,-335.0671 347.6478,-644.3671 334,-684.1902 320.7274,-722.9185 325.9396,-762.1902 285,-762.1902"/>
<polygon fill="#000000" stroke="#000000" points="369.2842,-273.2264 377.7663,-270.9873 372.3921,-270.7083 375.5,-268.1902 375.5,-268.1902 375.5,-268.1902 372.3921,-270.7083 373.2337,-265.393 369.2842,-273.2264 369.2842,-273.2264"/>
<ellipse fill="none" stroke="#000000" cx="366.7978" cy="-275.2409" rx="3.2" ry="3.2"/>
</g>
<!-- lists&#45;&gt;list_options -->
<g id="edge17" class="edge">
<title>lists:w&#45;&gt;list_options:e</title>
<path fill="none" stroke="#000000" d="M361.6421,-153.9722C352.5574,-147.1835 349.5945,-134.0989 334,-129.1902 258.5391,-105.4368 227.2413,-94.7919 156,-129.1902 129.9349,-141.7754 144.4444,-180.1902 115.5,-180.1902"/>
<polygon fill="#000000" stroke="#000000" points="367.8467,-155.8606 374.4517,-161.6342 371.6733,-157.0254 375.5,-158.1902 375.5,-158.1902 375.5,-158.1902 371.6733,-157.0254 376.5483,-154.7462 367.8467,-155.8606 367.8467,-155.8606"/>
<ellipse fill="none" stroke="#000000" cx="364.7853" cy="-154.9288" rx="3.2" ry="3.2"/>
</g>
<!-- lists&#45;&gt;list_options -->
<g id="edge18" class="edge">
<title>lists:w&#45;&gt;list_options:e</title>
<path fill="none" stroke="#000000" d="M361.6266,-330.2227C346.0828,-318.1121 358.5119,-281.4021 334,-264.1902 268.0857,-217.9061 225.1074,-271.5553 156,-230.1902 131.4622,-215.5027 144.0977,-180.1902 115.5,-180.1902"/>
<polygon fill="#000000" stroke="#000000" points="367.8083,-331.9905 374.5102,-337.6514 371.6542,-333.0903 375.5,-334.1902 375.5,-334.1902 375.5,-334.1902 371.6542,-333.0903 376.4898,-330.7289 367.8083,-331.9905 367.8083,-331.9905"/>
<ellipse fill="none" stroke="#000000" cx="364.7317" cy="-331.1107" rx="3.2" ry="3.2"/>
</g>
<!-- lists&#45;&gt;list_options -->
<g id="edge19" class="edge">
<title>lists:w&#45;&gt;list_options:e</title>
<path fill="none" stroke="#000000" d="M361.0103,-243.6939C352.5075,-240.3766 347.0595,-234.5447 334,-231.1902 256.4341,-211.2662 231.599,-229.6141 156,-203.1902 136.4592,-196.3601 136.2001,-180.1902 115.5,-180.1902"/>
<polygon fill="#000000" stroke="#000000" points="367.6161,-244.8319 374.8888,-249.7379 371.5581,-245.511 375.5,-246.1902 375.5,-246.1902 375.5,-246.1902 371.5581,-245.511 376.1112,-242.6424 367.6161,-244.8319 367.6161,-244.8319"/>
<ellipse fill="none" stroke="#000000" cx="364.4626" cy="-244.2886" rx="3.2" ry="3.2"/>
</g>
<!-- lists&#45;&gt;list_options -->
<g id="edge21" class="edge">
<title>lists:w&#45;&gt;list_options:e</title>
<path fill="none" stroke="#000000" d="M361.3427,-220.9978C352.6113,-216.4339 347.8386,-208.1582 334,-204.1902 240.0891,-177.2626 213.1952,-180.1902 115.5,-180.1902"/>
<polygon fill="#000000" stroke="#000000" points="367.6959,-222.4304 374.7081,-227.702 371.598,-223.3103 375.5,-224.1902 375.5,-224.1902 375.5,-224.1902 371.598,-223.3103 376.2919,-220.6783 367.6959,-222.4304 367.6959,-222.4304"/>
<ellipse fill="none" stroke="#000000" cx="364.5743" cy="-221.7265" rx="3.2" ry="3.2"/>
</g>
<!-- lists&#45;&gt;list_options -->
<g id="edge22" class="edge">
<title>lists:w&#45;&gt;list_options:e</title>
<path fill="none" stroke="#000000" d="M361.4304,-176.3175C352.6644,-170.5901 348.6302,-160.116 334,-156.1902 257.5919,-135.6871 232.298,-135.2811 156,-156.1902 135.8209,-161.7201 136.4231,-180.1902 115.5,-180.1902"/>
<polygon fill="#000000" stroke="#000000" points="367.7869,-178.0671 374.5446,-183.6611 371.6434,-179.1286 375.5,-180.1902 375.5,-180.1902 375.5,-180.1902 371.6434,-179.1286 376.4554,-176.7192 367.7869,-178.0671 367.7869,-178.0671"/>
<ellipse fill="none" stroke="#000000" cx="364.7016" cy="-177.2178" rx="3.2" ry="3.2"/>
</g>
<!-- lists&#45;&gt;list_options -->
<g id="edge23" class="edge">
<title>lists:w&#45;&gt;list_options:e</title>
<path fill="none" stroke="#000000" d="M361.4091,-351.8239C350.9711,-343.35 350.947,-324.5955 334,-314.1902 263.2103,-270.7256 219.6279,-310.5927 156,-257.1902 126.382,-232.3319 154.1673,-180.1902 115.5,-180.1902"/>
<polygon fill="#000000" stroke="#000000" points="367.8584,-353.8223 374.4345,-359.6289 371.6792,-355.0062 375.5,-356.1902 375.5,-356.1902 375.5,-356.1902 371.6792,-355.0062 376.5655,-352.7515 367.8584,-353.8223 367.8584,-353.8223"/>
<ellipse fill="none" stroke="#000000" cx="364.8018" cy="-352.8751" rx="3.2" ry="3.2"/>
</g>
<!-- lists&#45;&gt;list_options -->
<g id="edge26" class="edge">
<title>lists:w&#45;&gt;list_options:e</title>
<path fill="none" stroke="#000000" d="M361.3612,-198.1586C352.6191,-192.1959 348.7493,-181.2895 334,-177.1902 257.7782,-156.0053 235.0571,-174.2661 156,-177.1902 137.963,-177.8573 133.5493,-180.1902 115.5,-180.1902"/>
<polygon fill="#000000" stroke="#000000" points="367.8066,-199.9964 374.5128,-205.6522 371.6533,-201.0933 375.5,-202.1902 375.5,-202.1902 375.5,-202.1902 371.6533,-201.0933 376.4872,-198.7281 367.8066,-199.9964 367.8066,-199.9964"/>
<ellipse fill="none" stroke="#000000" cx="364.7293" cy="-199.1189" rx="3.2" ry="3.2"/>
</g>
<!-- issue_types -->
<g id="node10" class="node">
<title>issue_types</title>
<g id="a_node10"><a xlink:href="../../tables/issue_types.html" xlink:title="issue_types" target="_top">
<polygon fill="#ffffff" stroke="transparent" points="164,-325.1902 164,-591.1902 326,-591.1902 326,-325.1902 164,-325.1902"/>
<polygon fill="#f5f5f5" stroke="transparent" points="166,-566.1902 166,-589.1902 324,-589.1902 324,-566.1902 166,-566.1902"/>
<polygon fill="none" stroke="#000000" points="166,-566.1902 166,-589.1902 324,-589.1902 324,-566.1902 166,-566.1902"/>
<text text-anchor="start" x="171" y="-574.7902" font-family="Helvetica,sans-Serif" font-weight="bold" font-size="11.00" fill="#000000">issue_types</text>
<text text-anchor="start" x="289.0437" y="-574.2902" font-family="Helvetica,sans-Serif" font-size="11.00" fill="#000000">[table]</text>
<polygon fill="none" stroke="#000000" points="166,-544.1902 166,-566.1902 263,-566.1902 263,-544.1902 166,-544.1902"/>
<text text-anchor="start" x="186" y="-551.2902" font-family="Helvetica,sans-Serif" font-size="11.00" fill="#000000">active</text>
<polygon fill="none" stroke="#000000" points="263,-544.1902 263,-566.1902 324,-566.1902 324,-544.1902 263,-544.1902"/>
<text text-anchor="start" x="266" y="-551.8902" font-family="Helvetica,sans-Serif" font-size="11.00" fill="#000000">boolean[3]</text>
<polygon fill="none" stroke="#000000" points="166,-522.1902 166,-544.1902 263,-544.1902 263,-522.1902 166,-522.1902"/>
<image xlink:href="../../images/primaryKeys.png" width="11px" height="12px" preserveAspectRatio="xMinYMin meet" x="171" y="-539.19"/>
<text text-anchor="start" x="186" y="-529.2902" font-family="Helvetica,sans-Serif" font-size="11.00" fill="#000000">category</text>
<polygon fill="none" stroke="#000000" points="263,-522.1902 263,-544.1902 324,-544.1902 324,-522.1902 263,-522.1902"/>
<text text-anchor="start" x="265.994" y="-529.8902" font-family="Helvetica,sans-Serif" font-size="11.00" fill="#000000">varchar[75]</text>
<polygon fill="none" stroke="#000000" points="166,-500.1902 166,-522.1902 263,-522.1902 263,-500.1902 166,-500.1902"/>
<image xlink:href="../../images/primaryKeys.png" width="11px" height="12px" preserveAspectRatio="xMinYMin meet" x="171" y="-517.19"/>
<text text-anchor="start" x="186" y="-507.2902" font-family="Helvetica,sans-Serif" font-size="11.00" fill="#000000">type</text>
<polygon fill="none" stroke="#000000" points="263,-500.1902 263,-522.1902 324,-522.1902 324,-500.1902 263,-500.1902"/>
<text text-anchor="start" x="265.994" y="-507.8902" font-family="Helvetica,sans-Serif" font-size="11.00" fill="#000000">varchar[75]</text>
<polygon fill="none" stroke="#000000" points="166,-478.1902 166,-500.1902 263,-500.1902 263,-478.1902 166,-478.1902"/>
<text text-anchor="start" x="186" y="-485.2902" font-family="Helvetica,sans-Serif" font-size="11.00" fill="#000000">plural</text>
<polygon fill="none" stroke="#000000" points="263,-478.1902 263,-500.1902 324,-500.1902 324,-478.1902 263,-478.1902"/>
<text text-anchor="start" x="265.994" y="-485.8902" font-family="Helvetica,sans-Serif" font-size="11.00" fill="#000000">varchar[75]</text>
<polygon fill="none" stroke="#000000" points="166,-456.1902 166,-478.1902 263,-478.1902 263,-456.1902 166,-456.1902"/>
<text text-anchor="start" x="186" y="-463.2902" font-family="Helvetica,sans-Serif" font-size="11.00" fill="#000000">singular</text>
<polygon fill="none" stroke="#000000" points="263,-456.1902 263,-478.1902 324,-478.1902 324,-456.1902 263,-456.1902"/>
<text text-anchor="start" x="265.994" y="-463.8902" font-family="Helvetica,sans-Serif" font-size="11.00" fill="#000000">varchar[75]</text>
<polygon fill="none" stroke="#000000" points="166,-434.1902 166,-456.1902 263,-456.1902 263,-434.1902 166,-434.1902"/>
<text text-anchor="start" x="186" y="-441.2902" font-family="Helvetica,sans-Serif" font-size="11.00" fill="#000000">abbreviation</text>
<polygon fill="none" stroke="#000000" points="263,-434.1902 263,-456.1902 324,-456.1902 324,-434.1902 263,-434.1902"/>
<text text-anchor="start" x="265.994" y="-441.8902" font-family="Helvetica,sans-Serif" font-size="11.00" fill="#000000">varchar[75]</text>
<polygon fill="none" stroke="#000000" points="166,-412.1902 166,-434.1902 263,-434.1902 263,-412.1902 166,-412.1902"/>
<text text-anchor="start" x="186" y="-419.2902" font-family="Helvetica,sans-Serif" font-size="11.00" fill="#000000">style</text>
<polygon fill="none" stroke="#000000" points="263,-412.1902 263,-434.1902 324,-434.1902 324,-412.1902 263,-412.1902"/>
<text text-anchor="start" x="266" y="-419.8902" font-family="Helvetica,sans-Serif" font-size="11.00" fill="#000000">smallint[5]</text>
<polygon fill="none" stroke="#000000" points="166,-390.1902 166,-412.1902 263,-412.1902 263,-390.1902 166,-390.1902"/>
<text text-anchor="start" x="186" y="-397.2902" font-family="Helvetica,sans-Serif" font-size="11.00" fill="#000000">force_show</text>
<polygon fill="none" stroke="#000000" points="263,-390.1902 263,-412.1902 324,-412.1902 324,-390.1902 263,-390.1902"/>
<text text-anchor="start" x="266" y="-397.8902" font-family="Helvetica,sans-Serif" font-size="11.00" fill="#000000">smallint[5]</text>
<polygon fill="none" stroke="#000000" points="166,-368.1902 166,-390.1902 263,-390.1902 263,-368.1902 166,-368.1902"/>
<text text-anchor="start" x="186" y="-375.2902" font-family="Helvetica,sans-Serif" font-size="11.00" fill="#000000">ordering</text>
<polygon fill="none" stroke="#000000" points="263,-368.1902 263,-390.1902 324,-390.1902 324,-368.1902 263,-368.1902"/>
<text text-anchor="start" x="266" y="-375.8902" font-family="Helvetica,sans-Serif" font-size="11.00" fill="#000000">int[10]</text>
<polygon fill="none" stroke="#000000" points="166,-346.1902 166,-368.1902 263,-368.1902 263,-346.1902 166,-346.1902"/>
<text text-anchor="start" x="186" y="-353.2902" font-family="Helvetica,sans-Serif" font-size="11.00" fill="#000000">aco_spec</text>
<polygon fill="none" stroke="#000000" points="263,-346.1902 263,-368.1902 324,-368.1902 324,-346.1902 263,-346.1902"/>
<text text-anchor="start" x="265.994" y="-353.8902" font-family="Helvetica,sans-Serif" font-size="11.00" fill="#000000">varchar[63]</text>
<polygon fill="#ffffff" stroke="transparent" points="166,-327.1902 166,-346.1902 219,-346.1902 219,-327.1902 166,-327.1902"/>
<polygon fill="none" stroke="#000000" points="166,-327.1902 166,-346.1902 219,-346.1902 219,-327.1902 166,-327.1902"/>
<text text-anchor="start" x="169" y="-333.2902" font-family="Helvetica,sans-Serif" font-size="11.00" fill="#000000">&lt; 0</text>
<polygon fill="#ffffff" stroke="transparent" points="219,-327.1902 219,-346.1902 263,-346.1902 263,-327.1902 219,-327.1902"/>
<polygon fill="none" stroke="#000000" points="219,-327.1902 219,-346.1902 263,-346.1902 263,-327.1902 219,-327.1902"/>
<text text-anchor="start" x="253.8862" y="-333.2902" font-family="Helvetica,sans-Serif" font-size="11.00" fill="#000000"> &#160;</text>
<polygon fill="#ffffff" stroke="transparent" points="263,-327.1902 263,-346.1902 324,-346.1902 324,-327.1902 263,-327.1902"/>
<polygon fill="none" stroke="#000000" points="263,-327.1902 263,-346.1902 324,-346.1902 324,-327.1902 263,-327.1902"/>
<text text-anchor="start" x="305.4053" y="-333.2902" font-family="Helvetica,sans-Serif" font-size="11.00" fill="#000000">1 &gt;</text>
<polygon fill="none" stroke="#000000" stroke-width="2" points="165,-326.1902 165,-590.1902 325,-590.1902 325,-326.1902 165,-326.1902"/>
</a>
</g>
</g>
<!-- lists&#45;&gt;issue_types -->
<g id="edge24" class="edge">
<title>lists:w&#45;&gt;issue_types:e</title>
<path fill="none" stroke="#000000" d="M361.0998,-381.4778C325.0076,-401.9587 381.4453,-511.1902 324,-511.1902"/>
<polygon fill="#000000" stroke="#000000" points="367.7007,-379.9708 376.3013,-381.6998 371.6003,-379.0805 375.5,-378.1902 375.5,-378.1902 375.5,-378.1902 371.6003,-379.0805 374.6987,-374.6805 367.7007,-379.9708 367.7007,-379.9708"/>
<ellipse fill="none" stroke="#000000" cx="364.581" cy="-380.6831" rx="3.2" ry="3.2"/>
</g>
<!-- form_history_sdoh_health_concerns -->
<g id="node5" class="node">
<title>form_history_sdoh_health_concerns</title>
<g id="a_node5"><a xlink:href="../../tables/form_history_sdoh_health_concerns.html" xlink:title="form_history_sdoh_health_concerns" target="_top">
<polygon fill="#ffffff" stroke="transparent" points="553,-462.6902 553,-523.6902 805,-523.6902 805,-462.6902 553,-462.6902"/>
<polygon fill="#f5f5f5" stroke="transparent" points="553,-500.1902 553,-523.1902 805,-523.1902 805,-500.1902 553,-500.1902"/>
<polygon fill="none" stroke="#000000" points="553,-500.1902 553,-523.1902 805,-523.1902 805,-500.1902 553,-500.1902"/>
<text text-anchor="start" x="558" y="-508.7902" font-family="Helvetica,sans-Serif" font-weight="bold" font-size="11.00" fill="#000000">form_history_sdoh_health_concerns</text>
<text text-anchor="start" x="770.5219" y="-508.2902" font-family="Helvetica,sans-Serif" font-size="11.00" fill="#000000">[table]</text>
<polygon fill="none" stroke="#000000" points="553,-481.1902 553,-500.1902 805,-500.1902 805,-481.1902 553,-481.1902"/>
<text text-anchor="start" x="556" y="-487.2902" font-family="Helvetica,sans-Serif" font-size="11.00" fill="#000000">...</text>
<polygon fill="#ffffff" stroke="transparent" points="553,-462.1902 553,-481.1902 677,-481.1902 677,-462.1902 553,-462.1902"/>
<polygon fill="none" stroke="#000000" points="553,-462.1902 553,-481.1902 677,-481.1902 677,-462.1902 553,-462.1902"/>
<text text-anchor="start" x="556" y="-468.2902" font-family="Helvetica,sans-Serif" font-size="11.00" fill="#000000">&lt; 3</text>
<polygon fill="#ffffff" stroke="transparent" points="677,-462.1902 677,-481.1902 741,-481.1902 741,-462.1902 677,-462.1902"/>
<polygon fill="none" stroke="#000000" points="677,-462.1902 677,-481.1902 741,-481.1902 741,-462.1902 677,-462.1902"/>
<text text-anchor="start" x="731.8862" y="-468.2902" font-family="Helvetica,sans-Serif" font-size="11.00" fill="#000000"> &#160;</text>
<polygon fill="#ffffff" stroke="transparent" points="741,-462.1902 741,-481.1902 805,-481.1902 805,-462.1902 741,-462.1902"/>
<polygon fill="none" stroke="#000000" points="741,-462.1902 741,-481.1902 805,-481.1902 805,-462.1902 741,-462.1902"/>
<text text-anchor="start" x="795.8862" y="-468.2902" font-family="Helvetica,sans-Serif" font-size="11.00" fill="#000000"> &#160;</text>
</a>
</g>
</g>
<!-- form_history_sdoh_health_concerns&#45;&gt;lists -->
<g id="edge5" class="edge">
<title>form_history_sdoh_health_concerns:w&#45;&gt;lists:e</title>
<path fill="none" stroke="#000000" d="M539.2503,-485.2998C522.6332,-469.708 535.5315,-422.1902 504.5,-422.1902"/>
<polygon fill="#000000" stroke="#000000" points="545.4626,-487.5093 551.7936,-493.582 549.2313,-488.8497 553,-490.1902 553,-490.1902 553,-490.1902 549.2313,-488.8497 554.2064,-486.7983 545.4626,-487.5093 545.4626,-487.5093"/>
<ellipse fill="none" stroke="#000000" cx="542.4476" cy="-486.4369" rx="3.2" ry="3.2"/>
</g>
<!-- form_history_sdoh_health_concerns&#45;&gt;users -->
<g id="edge4" class="edge">
<title>form_history_sdoh_health_concerns:w&#45;&gt;users:e</title>
<path fill="none" stroke="#000000" d="M539.5196,-496.0907C509.1818,-528.3402 540.0525,-683.1788 512,-720.1902 458.9283,-790.2109 419.6454,-786.5847 334,-806.1902 256.8836,-823.8432 224.4554,-845.844 156,-806.1902 110.779,-779.9952 149.76,-704.1902 97.5,-704.1902"/>
<polygon fill="#000000" stroke="#000000" points="545.6713,-493.3981 554.4436,-493.4881 549.3357,-491.7941 553,-490.1902 553,-490.1902 553,-490.1902 549.3357,-491.7941 551.5564,-486.8922 545.6713,-493.3981 545.6713,-493.3981"/>
<ellipse fill="none" stroke="#000000" cx="542.7398" cy="-494.6812" rx="3.2" ry="3.2"/>
</g>
<!-- forms -->
<g id="node6" class="node">
<title>forms</title>
<g id="a_node6"><a xlink:href="../../tables/forms.html" xlink:title="forms" target="_top">
<polygon fill="#ffffff" stroke="transparent" points="642,-819.6902 642,-880.6902 716,-880.6902 716,-819.6902 642,-819.6902"/>
<polygon fill="#f5f5f5" stroke="transparent" points="642,-857.1902 642,-880.1902 716,-880.1902 716,-857.1902 642,-857.1902"/>
<polygon fill="none" stroke="#000000" points="642,-857.1902 642,-880.1902 716,-880.1902 716,-857.1902 642,-857.1902"/>
<text text-anchor="start" x="647" y="-865.7902" font-family="Helvetica,sans-Serif" font-weight="bold" font-size="11.00" fill="#000000">forms</text>
<text text-anchor="start" x="681.5219" y="-865.2902" font-family="Helvetica,sans-Serif" font-size="11.00" fill="#000000">[table]</text>
<polygon fill="none" stroke="#000000" points="642,-838.1902 642,-857.1902 716,-857.1902 716,-838.1902 642,-838.1902"/>
<text text-anchor="start" x="645" y="-844.2902" font-family="Helvetica,sans-Serif" font-size="11.00" fill="#000000">...</text>
<polygon fill="#ffffff" stroke="transparent" points="642,-819.1902 642,-838.1902 670,-838.1902 670,-819.1902 642,-819.1902"/>
<polygon fill="none" stroke="#000000" points="642,-819.1902 642,-838.1902 670,-838.1902 670,-819.1902 642,-819.1902"/>
<text text-anchor="start" x="645" y="-825.2902" font-family="Helvetica,sans-Serif" font-size="11.00" fill="#000000">&lt; 6</text>
<polygon fill="#ffffff" stroke="transparent" points="670,-819.1902 670,-838.1902 685,-838.1902 685,-819.1902 670,-819.1902"/>
<polygon fill="none" stroke="#000000" points="670,-819.1902 670,-838.1902 685,-838.1902 685,-819.1902 670,-819.1902"/>
<text text-anchor="start" x="675.8862" y="-825.2902" font-family="Helvetica,sans-Serif" font-size="11.00" fill="#000000"> &#160;</text>
<polygon fill="#ffffff" stroke="transparent" points="685,-819.1902 685,-838.1902 716,-838.1902 716,-819.1902 685,-819.1902"/>
<polygon fill="none" stroke="#000000" points="685,-819.1902 685,-838.1902 716,-838.1902 716,-819.1902 685,-819.1902"/>
<text text-anchor="start" x="691.2904" y="-825.2902" font-family="Helvetica,sans-Serif" font-size="11.00" fill="#000000">14 &gt;</text>
</a>
</g>
</g>
<!-- forms&#45;&gt;patient_data -->
<g id="edge8" class="edge">
<title>forms:w&#45;&gt;patient_data:e</title>
<path fill="none" stroke="#000000" d="M627.4166,-846.2037C591.5242,-840.9703 583.321,-815.9126 545,-795.1902 545,-795.1902 367,-698.1902 367,-698.1902 335.7031,-675.9621 341.3872,-640.1902 303,-640.1902"/>
<polygon fill="#000000" stroke="#000000" points="634.0182,-846.6502 641.757,-850.7819 638.0091,-846.9202 642,-847.1902 642,-847.1902 642,-847.1902 638.0091,-846.9202 642.243,-843.5984 634.0182,-846.6502 634.0182,-846.6502"/>
<ellipse fill="none" stroke="#000000" cx="630.8255" cy="-846.4342" rx="3.2" ry="3.2"/>
</g>
<!-- forms&#45;&gt;lists -->
<g id="edge7" class="edge">
<title>forms:w&#45;&gt;lists:e</title>
<path fill="none" stroke="#000000" d="M627.4226,-846.7874C588.6382,-844.4516 569.4687,-831.4652 545,-795.1902 498.3756,-726.069 587.8761,-422.1902 504.5,-422.1902"/>
<polygon fill="#000000" stroke="#000000" points="634.0031,-846.9692 641.9006,-850.7888 638.0015,-847.0797 642,-847.1902 642,-847.1902 642,-847.1902 638.0015,-847.0797 642.0994,-843.5915 634.0031,-846.9692 634.0031,-846.9692"/>
<ellipse fill="none" stroke="#000000" cx="630.8043" cy="-846.8808" rx="3.2" ry="3.2"/>
</g>
<!-- forms&#45;&gt;users -->
<g id="edge9" class="edge">
<title>forms:w&#45;&gt;users:e</title>
<path fill="none" stroke="#000000" d="M627.4865,-847.5452C580.5262,-849.9473 565.0325,-863.9736 512,-872.1902 355.3715,-896.4572 283.5723,-987.2471 156,-893.1902 85.2249,-841.0089 185.4318,-704.1902 97.5,-704.1902"/>
<polygon fill="#000000" stroke="#000000" points="634.0024,-847.3858 642.0881,-850.7891 638.0012,-847.288 642,-847.1902 642,-847.1902 642,-847.1902 638.0012,-847.288 641.9119,-843.5912 634.0024,-847.3858 634.0024,-847.3858"/>
<ellipse fill="none" stroke="#000000" cx="630.8033" cy="-847.4641" rx="3.2" ry="3.2"/>
</g>
<!-- forms&#45;&gt;users -->
<g id="edge10" class="edge">
<title>forms:w&#45;&gt;users:e</title>
<path fill="none" stroke="#000000" d="M627.5506,-847.4771C580.7551,-849.4211 564.8695,-860.8047 512,-868.1902 355.0269,-890.1182 283.8583,-982.8578 156,-889.1902 86.4349,-838.2275 183.7351,-704.1902 97.5,-704.1902"/>
<polygon fill="#000000" stroke="#000000" points="634.0016,-847.3491 642.0715,-850.7894 638.0008,-847.2696 642,-847.1902 642,-847.1902 642,-847.1902 638.0008,-847.2696 641.9285,-843.5909 634.0016,-847.3491 634.0016,-847.3491"/>
<ellipse fill="none" stroke="#000000" cx="630.8022" cy="-847.4126" rx="3.2" ry="3.2"/>
</g>
<!-- forms&#45;&gt;groups -->
<g id="edge6" class="edge">
<title>forms:w&#45;&gt;groups:e</title>
<path fill="none" stroke="#000000" d="M627.3761,-846.4294C539.2108,-837.9906 362.0116,-762.1902 285,-762.1902"/>
<polygon fill="#000000" stroke="#000000" points="634.0108,-846.7745 641.8129,-850.7853 638.0054,-846.9823 642,-847.1902 642,-847.1902 642,-847.1902 638.0054,-846.9823 642.1871,-843.595 634.0108,-846.7745 634.0108,-846.7745"/>
<ellipse fill="none" stroke="#000000" cx="630.8151" cy="-846.6082" rx="3.2" ry="3.2"/>
</g>
<!-- groups&#45;&gt;users -->
<g id="edge11" class="edge">
<title>groups:w&#45;&gt;users:e</title>
<path fill="none" stroke="#000000" d="M190.5761,-760.6388C150.394,-751.4152 146.4866,-704.1902 97.5,-704.1902"/>
<polygon fill="#000000" stroke="#000000" points="197.0459,-761.3346 204.615,-765.7695 201.0229,-761.7624 205,-762.1902 205,-762.1902 205,-762.1902 201.0229,-761.7624 205.385,-758.6108 197.0459,-761.3346 197.0459,-761.3346"/>
<ellipse fill="none" stroke="#000000" cx="193.8642" cy="-760.9924" rx="3.2" ry="3.2"/>
</g>
<!-- issue_encounter -->
<g id="node8" class="node">
<title>issue_encounter</title>
<g id="a_node8"><a xlink:href="../../tables/issue_encounter.html" xlink:title="issue_encounter" target="_top">
<polygon fill="#ffffff" stroke="transparent" points="611,-723.6902 611,-784.6902 747,-784.6902 747,-723.6902 611,-723.6902"/>
<polygon fill="#f5f5f5" stroke="transparent" points="611,-761.1902 611,-784.1902 747,-784.1902 747,-761.1902 611,-761.1902"/>
<polygon fill="none" stroke="#000000" points="611,-761.1902 611,-784.1902 747,-784.1902 747,-761.1902 611,-761.1902"/>
<text text-anchor="start" x="616" y="-769.7902" font-family="Helvetica,sans-Serif" font-weight="bold" font-size="11.00" fill="#000000">issue_encounter</text>
<text text-anchor="start" x="712.5219" y="-769.2902" font-family="Helvetica,sans-Serif" font-size="11.00" fill="#000000">[table]</text>
<polygon fill="none" stroke="#000000" points="611,-742.1902 611,-761.1902 747,-761.1902 747,-742.1902 611,-742.1902"/>
<text text-anchor="start" x="614" y="-748.2902" font-family="Helvetica,sans-Serif" font-size="11.00" fill="#000000">...</text>
<polygon fill="#ffffff" stroke="transparent" points="611,-723.1902 611,-742.1902 677,-742.1902 677,-723.1902 611,-723.1902"/>
<polygon fill="none" stroke="#000000" points="611,-723.1902 611,-742.1902 677,-742.1902 677,-723.1902 611,-723.1902"/>
<text text-anchor="start" x="614" y="-729.2902" font-family="Helvetica,sans-Serif" font-size="11.00" fill="#000000">&lt; 5</text>
<polygon fill="#ffffff" stroke="transparent" points="677,-723.1902 677,-742.1902 712,-742.1902 712,-723.1902 677,-723.1902"/>
<polygon fill="none" stroke="#000000" points="677,-723.1902 677,-742.1902 712,-742.1902 712,-723.1902 677,-723.1902"/>
<text text-anchor="start" x="702.8862" y="-729.2902" font-family="Helvetica,sans-Serif" font-size="11.00" fill="#000000"> &#160;</text>
<polygon fill="#ffffff" stroke="transparent" points="712,-723.1902 712,-742.1902 747,-742.1902 747,-723.1902 712,-723.1902"/>
<polygon fill="none" stroke="#000000" points="712,-723.1902 712,-742.1902 747,-742.1902 747,-723.1902 712,-723.1902"/>
<text text-anchor="start" x="737.8862" y="-729.2902" font-family="Helvetica,sans-Serif" font-size="11.00" fill="#000000"> &#160;</text>
</a>
</g>
</g>
<!-- issue_encounter&#45;&gt;patient_data -->
<g id="edge14" class="edge">
<title>issue_encounter:w&#45;&gt;patient_data:e</title>
<path fill="none" stroke="#000000" d="M596.3509,-749.9436C518.2853,-737.7488 371.2065,-640.1902 303,-640.1902"/>
<polygon fill="#000000" stroke="#000000" points="603.0288,-750.5118 610.6947,-754.7772 607.0144,-750.851 611,-751.1902 611,-751.1902 611,-751.1902 607.0144,-750.851 611.3053,-747.6031 603.0288,-750.5118 603.0288,-750.5118"/>
<ellipse fill="none" stroke="#000000" cx="599.8403" cy="-750.2404" rx="3.2" ry="3.2"/>
</g>
<!-- issue_encounter&#45;&gt;lists -->
<g id="edge13" class="edge">
<title>issue_encounter:w&#45;&gt;lists:e</title>
<path fill="none" stroke="#000000" d="M596.5419,-749.7591C567.5784,-743.4179 561.3477,-716.7248 545,-684.1902 518.5489,-631.5483 563.4137,-422.1902 504.5,-422.1902"/>
<polygon fill="#000000" stroke="#000000" points="603.0389,-750.4021 610.6454,-754.7727 607.0195,-750.7961 611,-751.1902 611,-751.1902 611,-751.1902 607.0195,-750.7961 611.3546,-747.6077 603.0389,-750.4021 603.0389,-750.4021"/>
<ellipse fill="none" stroke="#000000" cx="599.8545" cy="-750.0869" rx="3.2" ry="3.2"/>
</g>
<!-- issue_encounter&#45;&gt;users -->
<g id="edge12" class="edge">
<title>issue_encounter:w&#45;&gt;users:e</title>
<path fill="none" stroke="#000000" d="M596.5185,-752.6622C555.8527,-761.6858 558.6446,-809.8047 512,-830.1902 439.3013,-861.9623 221.3552,-902.1709 156,-857.1902 96.0299,-815.9156 170.3011,-704.1902 97.5,-704.1902"/>
<polygon fill="#000000" stroke="#000000" points="603.041,-751.9993 611.3641,-754.7717 607.0205,-751.5947 611,-751.1902 611,-751.1902 611,-751.1902 607.0205,-751.5947 610.6359,-747.6086 603.041,-751.9993 603.041,-751.9993"/>
<ellipse fill="none" stroke="#000000" cx="599.8574" cy="-752.3229" rx="3.2" ry="3.2"/>
</g>
<!-- issue_encounter&#45;&gt;users -->
<g id="edge15" class="edge">
<title>issue_encounter:w&#45;&gt;users:e</title>
<path fill="none" stroke="#000000" d="M596.4972,-752.642C556.6252,-761.3399 557.889,-806.8192 512,-826.1902 365.8143,-887.8991 287.1104,-942.5676 156,-853.1902 97.216,-813.1174 168.6434,-704.1902 97.5,-704.1902"/>
<polygon fill="#000000" stroke="#000000" points="603.0398,-751.9871 611.3586,-754.7723 607.0199,-751.5886 611,-751.1902 611,-751.1902 611,-751.1902 607.0199,-751.5886 610.6414,-747.6081 603.0398,-751.9871 603.0398,-751.9871"/>
<ellipse fill="none" stroke="#000000" cx="599.8557" cy="-752.3059" rx="3.2" ry="3.2"/>
</g>
<!-- lists_medication -->
<g id="node11" class="node">
<title>lists_medication</title>
<g id="a_node11"><a xlink:href="../../tables/lists_medication.html" xlink:title="lists_medication" target="_top">
<polygon fill="#ffffff" stroke="transparent" points="611,-39.6902 611,-100.6902 747,-100.6902 747,-39.6902 611,-39.6902"/>
<polygon fill="#f5f5f5" stroke="transparent" points="611,-77.1902 611,-100.1902 747,-100.1902 747,-77.1902 611,-77.1902"/>
<polygon fill="none" stroke="#000000" points="611,-77.1902 611,-100.1902 747,-100.1902 747,-77.1902 611,-77.1902"/>
<text text-anchor="start" x="616" y="-85.7902" font-family="Helvetica,sans-Serif" font-weight="bold" font-size="11.00" fill="#000000">lists_medication</text>
<text text-anchor="start" x="712.5219" y="-85.2902" font-family="Helvetica,sans-Serif" font-size="11.00" fill="#000000">[table]</text>
<polygon fill="none" stroke="#000000" points="611,-58.1902 611,-77.1902 747,-77.1902 747,-58.1902 611,-58.1902"/>
<text text-anchor="start" x="614" y="-64.2902" font-family="Helvetica,sans-Serif" font-size="11.00" fill="#000000">...</text>
<polygon fill="#ffffff" stroke="transparent" points="611,-39.1902 611,-58.1902 677,-58.1902 677,-39.1902 611,-39.1902"/>
<polygon fill="none" stroke="#000000" points="611,-39.1902 611,-58.1902 677,-58.1902 677,-39.1902 611,-39.1902"/>
<text text-anchor="start" x="614" y="-45.2902" font-family="Helvetica,sans-Serif" font-size="11.00" fill="#000000">&lt; 8</text>
<polygon fill="#ffffff" stroke="transparent" points="677,-39.1902 677,-58.1902 712,-58.1902 712,-39.1902 677,-39.1902"/>
<polygon fill="none" stroke="#000000" points="677,-39.1902 677,-58.1902 712,-58.1902 712,-39.1902 677,-39.1902"/>
<text text-anchor="start" x="702.8862" y="-45.2902" font-family="Helvetica,sans-Serif" font-size="11.00" fill="#000000"> &#160;</text>
<polygon fill="#ffffff" stroke="transparent" points="712,-39.1902 712,-58.1902 747,-58.1902 747,-39.1902 712,-39.1902"/>
<polygon fill="none" stroke="#000000" points="712,-39.1902 712,-58.1902 747,-58.1902 747,-39.1902 712,-39.1902"/>
<text text-anchor="start" x="737.8862" y="-45.2902" font-family="Helvetica,sans-Serif" font-size="11.00" fill="#000000"> &#160;</text>
</a>
</g>
</g>
<!-- lists_medication&#45;&gt;lists -->
<g id="edge28" class="edge">
<title>lists_medication:w&#45;&gt;lists:e</title>
<path fill="none" stroke="#000000" d="M596.2564,-68.2725C460.2423,-89.7023 663.9163,-422.1902 504.5,-422.1902"/>
<polygon fill="#000000" stroke="#000000" points="603.0215,-67.7759 611.2636,-70.7805 607.0107,-67.483 611,-67.1902 611,-67.1902 611,-67.1902 607.0107,-67.483 610.7364,-63.5998 603.0215,-67.7759 603.0215,-67.7759"/>
<ellipse fill="none" stroke="#000000" cx="599.8301" cy="-68.0102" rx="3.2" ry="3.2"/>
</g>
<!-- lists_medication&#45;&gt;users -->
<g id="edge27" class="edge">
<title>lists_medication:w&#45;&gt;users:e</title>
<path fill="none" stroke="#000000" d="M596.2672,-67.7517C437.0746,-80.5154 591.7679,-308.1143 512,-467.1902 456.0856,-578.6966 444.4074,-626.1358 334,-684.1902 240.6342,-733.2838 202.9863,-704.1902 97.5,-704.1902"/>
<polygon fill="#000000" stroke="#000000" points="603.0058,-67.4949 611.1371,-70.7875 607.0029,-67.3425 611,-67.1902 611,-67.1902 611,-67.1902 607.0029,-67.3425 610.8629,-63.5928 603.0058,-67.4949 603.0058,-67.4949"/>
<ellipse fill="none" stroke="#000000" cx="599.8081" cy="-67.6168" rx="3.2" ry="3.2"/>
</g>
<!-- lists_medication&#45;&gt;users -->
<g id="edge31" class="edge">
<title>lists_medication:w&#45;&gt;users:e</title>
<path fill="none" stroke="#000000" d="M596.4042,-67.7461C438.6714,-80.3822 591.202,-305.7059 512,-463.1902 455.9544,-574.6307 443.9168,-621.2122 334,-680.1902 240.904,-730.1427 203.151,-704.1902 97.5,-704.1902"/>
<polygon fill="#000000" stroke="#000000" points="603.0058,-67.4947 611.137,-70.7875 607.0029,-67.3424 611,-67.1902 611,-67.1902 611,-67.1902 607.0029,-67.3424 610.863,-63.5928 603.0058,-67.4947 603.0058,-67.4947"/>
<ellipse fill="none" stroke="#000000" cx="599.8081" cy="-67.6165" rx="3.2" ry="3.2"/>
</g>
<!-- lists_medication&#45;&gt;list_options -->
<g id="edge29" class="edge">
<title>lists_medication:w&#45;&gt;list_options:e</title>
<path fill="none" stroke="#000000" d="M596.3499,-67.0631C404.0041,-63.7295 321.6512,3.2193 156,-105.1902 124.3019,-125.9348 153.3829,-180.1902 115.5,-180.1902"/>
<polygon fill="#000000" stroke="#000000" points="603.0003,-67.1207 610.9688,-70.79 607.0002,-67.1555 611,-67.1902 611,-67.1902 611,-67.1902 607.0002,-67.1555 611.0312,-63.5903 603.0003,-67.1207 603.0003,-67.1207"/>
<ellipse fill="none" stroke="#000000" cx="599.8004" cy="-67.093" rx="3.2" ry="3.2"/>
</g>
<!-- lists_medication&#45;&gt;list_options -->
<g id="edge30" class="edge">
<title>lists_medication:w&#45;&gt;list_options:e</title>
<path fill="none" stroke="#000000" d="M596.6298,-66.1658C403.9818,-51.0395 322.6454,11.1489 156,-96.1902 125.4588,-115.8622 151.8284,-167.1902 115.5,-180.1902"/>
<polygon fill="#000000" stroke="#000000" points="603.0202,-66.6213 610.744,-70.781 607.0101,-66.9057 611,-67.1902 611,-67.1902 611,-67.1902 607.0101,-66.9057 611.256,-63.5993 603.0202,-66.6213 603.0202,-66.6213"/>
<ellipse fill="none" stroke="#000000" cx="599.8283" cy="-66.3938" rx="3.2" ry="3.2"/>
</g>
<!-- lists_medication&#45;&gt;list_options -->
<g id="edge32" class="edge">
<title>lists_medication:w&#45;&gt;list_options:e</title>
<path fill="none" stroke="#000000" d="M596.3407,-67.0722C403.9004,-63.9774 322.5621,-1.9048 156,-109.1902 125.4588,-128.8622 151.8284,-180.1902 115.5,-180.1902"/>
<polygon fill="#000000" stroke="#000000" points="603.0003,-67.1257 610.971,-70.79 607.0001,-67.1579 611,-67.1902 611,-67.1902 611,-67.1902 607.0001,-67.1579 611.029,-63.5903 603.0003,-67.1257 603.0003,-67.1257"/>
<ellipse fill="none" stroke="#000000" cx="599.8004" cy="-67.1" rx="3.2" ry="3.2"/>
</g>
<!-- lists_medication&#45;&gt;list_options -->
<g id="edge33" class="edge">
<title>lists_medication:w&#45;&gt;list_options:e</title>
<path fill="none" stroke="#000000" d="M596.3407,-68.0013C403.9004,-76.9774 322.5621,-14.9048 156,-122.1902 125.4588,-141.8622 151.8284,-193.1902 115.5,-180.1902"/>
<polygon fill="#000000" stroke="#000000" points="603.0122,-67.6322 611.1989,-70.7847 607.0061,-67.4112 611,-67.1902 611,-67.1902 611,-67.1902 607.0061,-67.4112 610.8011,-63.5957 603.0122,-67.6322 603.0122,-67.6322"/>
<ellipse fill="none" stroke="#000000" cx="599.8171" cy="-67.809" rx="3.2" ry="3.2"/>
</g>
</g>
</svg>
