<?xml version="1.0" encoding="UTF-8" standalone="no"?>
<!DOCTYPE svg PUBLIC "-//W3C//DTD SVG 1.1//EN"
 "http://www.w3.org/Graphics/SVG/1.1/DTD/svg11.dtd">
<!-- Generated by graphviz version 2.40.1 (20161225.0304)
 -->
<!-- Title: oneDegreeRelationshipsDiagram Pages: 1 -->
<svg width="944pt" height="706pt"
 viewBox="0.00 0.00 944.00 705.71" xmlns="http://www.w3.org/2000/svg" xmlns:xlink="http://www.w3.org/1999/xlink">
<g id="graph0" class="graph" transform="scale(1 1) rotate(0) translate(4 701.7119)">
<title>oneDegreeRelationshipsDiagram</title>
<polygon fill="#ffffff" stroke="transparent" points="-4,4 -4,-701.7119 940,-701.7119 940,4 -4,4"/>
<text text-anchor="middle" x="72.4936" y="-7.3" font-family="Helvetica,sans-Serif" font-size="11.00" fill="#000000">Generated by SchemaSpy</text>
<!-- form_encounter -->
<g id="node1" class="node">
<title>form_encounter</title>
<g id="a_node1"><a xlink:href="../../tables/form_encounter.html" xlink:title="form_encounter" target="_top">
<polygon fill="#ffffff" stroke="transparent" points="504,-472.2 504,-643.2 691,-643.2 691,-472.2 504,-472.2"/>
<polygon fill="#f5f5f5" stroke="transparent" points="504.5,-619.7 504.5,-642.7 691.5,-642.7 691.5,-619.7 504.5,-619.7"/>
<polygon fill="none" stroke="#000000" points="504.5,-619.7 504.5,-642.7 691.5,-642.7 691.5,-619.7 504.5,-619.7"/>
<text text-anchor="start" x="509.5" y="-628.3" font-family="Helvetica,sans-Serif" font-weight="bold" font-size="11.00" fill="#000000">form_encounter</text>
<text text-anchor="start" x="656.5437" y="-627.8" font-family="Helvetica,sans-Serif" font-size="11.00" fill="#000000">[table]</text>
<polygon fill="none" stroke="#000000" points="504.5,-597.7 504.5,-619.7 691.5,-619.7 691.5,-597.7 504.5,-597.7"/>
<image xlink:href="../../images/primaryKeys.png" width="11px" height="12px" preserveAspectRatio="xMinYMin meet" x="509.5" y="-614.7"/>
<text text-anchor="start" x="524.5" y="-604.8" font-family="Helvetica,sans-Serif" font-size="11.00" fill="#000000">id</text>
<polygon fill="#ffffff" stroke="transparent" points="504.5,-575.7 504.5,-597.7 691.5,-597.7 691.5,-575.7 504.5,-575.7"/>
<polygon fill="none" stroke="#000000" points="504.5,-575.7 504.5,-597.7 691.5,-597.7 691.5,-575.7 504.5,-575.7"/>
<text text-anchor="start" x="524.5" y="-582.8" font-family="Helvetica,sans-Serif" font-size="11.00" fill="#000000">uuid</text>
<polygon fill="#ffffff" stroke="transparent" points="504.5,-553.7 504.5,-575.7 691.5,-575.7 691.5,-553.7 504.5,-553.7"/>
<polygon fill="none" stroke="#000000" points="504.5,-553.7 504.5,-575.7 691.5,-575.7 691.5,-553.7 504.5,-553.7"/>
<text text-anchor="start" x="524.5" y="-560.8" font-family="Helvetica,sans-Serif" font-size="11.00" fill="#000000">date</text>
<polygon fill="#ffffff" stroke="transparent" points="504.5,-531.7 504.5,-553.7 691.5,-553.7 691.5,-531.7 504.5,-531.7"/>
<polygon fill="none" stroke="#000000" points="504.5,-531.7 504.5,-553.7 691.5,-553.7 691.5,-531.7 504.5,-531.7"/>
<image xlink:href="../../images/foreignKeys.png" width="11px" height="12px" preserveAspectRatio="xMinYMin meet" x="509.5" y="-548.7"/>
<text text-anchor="start" x="524.5" y="-538.8" font-family="Helvetica,sans-Serif" font-size="11.00" fill="#000000">pid</text>
<polygon fill="none" stroke="#000000" points="504.5,-509.7 504.5,-531.7 691.5,-531.7 691.5,-509.7 504.5,-509.7"/>
<image xlink:href="../../images/primaryKeys.png" width="11px" height="12px" preserveAspectRatio="xMinYMin meet" x="509.5" y="-526.7"/>
<text text-anchor="start" x="524.5" y="-516.8" font-family="Helvetica,sans-Serif" font-size="11.00" fill="#000000">encounter</text>
<polygon fill="none" stroke="#000000" points="504.5,-490.7 504.5,-509.7 691.5,-509.7 691.5,-490.7 504.5,-490.7"/>
<text text-anchor="start" x="507.5" y="-496.8" font-family="Helvetica,sans-Serif" font-size="11.00" fill="#000000">...</text>
<polygon fill="#ffffff" stroke="transparent" points="504.5,-471.7 504.5,-490.7 588.5,-490.7 588.5,-471.7 504.5,-471.7"/>
<polygon fill="none" stroke="#000000" points="504.5,-471.7 504.5,-490.7 588.5,-490.7 588.5,-471.7 504.5,-471.7"/>
<text text-anchor="start" x="507.5" y="-477.8" font-family="Helvetica,sans-Serif" font-size="11.00" fill="#000000">&lt; 1</text>
<polygon fill="#ffffff" stroke="transparent" points="588.5,-471.7 588.5,-490.7 632.5,-490.7 632.5,-471.7 588.5,-471.7"/>
<polygon fill="none" stroke="#000000" points="588.5,-471.7 588.5,-490.7 632.5,-490.7 632.5,-471.7 588.5,-471.7"/>
<text text-anchor="start" x="623.3862" y="-477.8" font-family="Helvetica,sans-Serif" font-size="11.00" fill="#000000"> &#160;</text>
<polygon fill="#ffffff" stroke="transparent" points="632.5,-471.7 632.5,-490.7 691.5,-490.7 691.5,-471.7 632.5,-471.7"/>
<polygon fill="none" stroke="#000000" points="632.5,-471.7 632.5,-490.7 691.5,-490.7 691.5,-471.7 632.5,-471.7"/>
<text text-anchor="start" x="666.7904" y="-477.8" font-family="Helvetica,sans-Serif" font-size="11.00" fill="#000000">19 &gt;</text>
</a>
</g>
</g>
<!-- patient_data -->
<g id="node2" class="node">
<title>patient_data</title>
<g id="a_node2"><a xlink:href="../../tables/patient_data.html" xlink:title="patient_data" target="_top">
<polygon fill="#ffffff" stroke="transparent" points="207,-126.2 207,-517.2 455,-517.2 455,-126.2 207,-126.2"/>
<polygon fill="#f5f5f5" stroke="transparent" points="207,-493.7 207,-516.7 455,-516.7 455,-493.7 207,-493.7"/>
<polygon fill="none" stroke="#000000" points="207,-493.7 207,-516.7 455,-516.7 455,-493.7 207,-493.7"/>
<text text-anchor="start" x="212" y="-502.3" font-family="Helvetica,sans-Serif" font-weight="bold" font-size="11.00" fill="#000000">patient_data</text>
<text text-anchor="start" x="420.0437" y="-501.8" font-family="Helvetica,sans-Serif" font-size="11.00" fill="#000000">[table]</text>
<polygon fill="none" stroke="#000000" points="207,-471.7 207,-493.7 455,-493.7 455,-471.7 207,-471.7"/>
<image xlink:href="../../images/primaryKeys.png" width="11px" height="12px" preserveAspectRatio="xMinYMin meet" x="212" y="-488.7"/>
<text text-anchor="start" x="227" y="-478.8" font-family="Helvetica,sans-Serif" font-size="11.00" fill="#000000">id</text>
<polygon fill="#ffffff" stroke="transparent" points="207,-449.7 207,-471.7 455,-471.7 455,-449.7 207,-449.7"/>
<polygon fill="none" stroke="#000000" points="207,-449.7 207,-471.7 455,-471.7 455,-449.7 207,-449.7"/>
<text text-anchor="start" x="227" y="-456.8" font-family="Helvetica,sans-Serif" font-size="11.00" fill="#000000">uuid</text>
<polygon fill="#ffffff" stroke="transparent" points="207,-427.7 207,-449.7 455,-449.7 455,-427.7 207,-427.7"/>
<polygon fill="none" stroke="#000000" points="207,-427.7 207,-449.7 455,-449.7 455,-427.7 207,-427.7"/>
<text text-anchor="start" x="227" y="-434.8" font-family="Helvetica,sans-Serif" font-size="11.00" fill="#000000">fname</text>
<polygon fill="#ffffff" stroke="transparent" points="207,-405.7 207,-427.7 455,-427.7 455,-405.7 207,-405.7"/>
<polygon fill="none" stroke="#000000" points="207,-405.7 207,-427.7 455,-427.7 455,-405.7 207,-405.7"/>
<text text-anchor="start" x="227" y="-412.8" font-family="Helvetica,sans-Serif" font-size="11.00" fill="#000000">lname</text>
<polygon fill="#ffffff" stroke="transparent" points="207,-383.7 207,-405.7 455,-405.7 455,-383.7 207,-383.7"/>
<polygon fill="none" stroke="#000000" points="207,-383.7 207,-405.7 455,-405.7 455,-383.7 207,-383.7"/>
<text text-anchor="start" x="227" y="-390.8" font-family="Helvetica,sans-Serif" font-size="11.00" fill="#000000">DOB</text>
<polygon fill="none" stroke="#000000" points="207,-361.7 207,-383.7 455,-383.7 455,-361.7 207,-361.7"/>
<image xlink:href="../../images/foreignKeys.png" width="11px" height="12px" preserveAspectRatio="xMinYMin meet" x="212" y="-378.7"/>
<text text-anchor="start" x="227" y="-368.8" font-family="Helvetica,sans-Serif" font-size="11.00" fill="#000000">pharmacy_id</text>
<polygon fill="none" stroke="#000000" points="207,-339.7 207,-361.7 455,-361.7 455,-339.7 207,-339.7"/>
<image xlink:href="../../images/foreignKeys.png" width="11px" height="12px" preserveAspectRatio="xMinYMin meet" x="212" y="-356.7"/>
<text text-anchor="start" x="227" y="-346.8" font-family="Helvetica,sans-Serif" font-size="11.00" fill="#000000">providerID</text>
<polygon fill="none" stroke="#000000" points="207,-317.7 207,-339.7 455,-339.7 455,-317.7 207,-317.7"/>
<image xlink:href="../../images/foreignKeys.png" width="11px" height="12px" preserveAspectRatio="xMinYMin meet" x="212" y="-334.7"/>
<text text-anchor="start" x="227" y="-324.8" font-family="Helvetica,sans-Serif" font-size="11.00" fill="#000000">ref_providerID</text>
<polygon fill="none" stroke="#000000" points="207,-295.7 207,-317.7 455,-317.7 455,-295.7 207,-295.7"/>
<image xlink:href="../../images/primaryKeys.png" width="11px" height="12px" preserveAspectRatio="xMinYMin meet" x="212" y="-312.7"/>
<text text-anchor="start" x="227" y="-302.8" font-family="Helvetica,sans-Serif" font-size="11.00" fill="#000000">pid</text>
<polygon fill="none" stroke="#000000" points="207,-273.7 207,-295.7 455,-295.7 455,-273.7 207,-273.7"/>
<image xlink:href="../../images/foreignKeys.png" width="11px" height="12px" preserveAspectRatio="xMinYMin meet" x="212" y="-290.7"/>
<text text-anchor="start" x="227" y="-280.8" font-family="Helvetica,sans-Serif" font-size="11.00" fill="#000000">created_by</text>
<polygon fill="none" stroke="#000000" points="207,-251.7 207,-273.7 455,-273.7 455,-251.7 207,-251.7"/>
<image xlink:href="../../images/foreignKeys.png" width="11px" height="12px" preserveAspectRatio="xMinYMin meet" x="212" y="-268.7"/>
<text text-anchor="start" x="227" y="-258.8" font-family="Helvetica,sans-Serif" font-size="11.00" fill="#000000">updated_by</text>
<polygon fill="none" stroke="#000000" points="207,-229.7 207,-251.7 455,-251.7 455,-229.7 207,-229.7"/>
<image xlink:href="../../images/foreignKeys.png" width="11px" height="12px" preserveAspectRatio="xMinYMin meet" x="212" y="-246.7"/>
<text text-anchor="start" x="227" y="-236.8" font-family="Helvetica,sans-Serif" font-size="11.00" fill="#000000">tribal_affiliations</text>
<polygon fill="none" stroke="#000000" points="207,-207.7 207,-229.7 455,-229.7 455,-207.7 207,-207.7"/>
<image xlink:href="../../images/foreignKeys.png" width="11px" height="12px" preserveAspectRatio="xMinYMin meet" x="212" y="-224.7"/>
<text text-anchor="start" x="227" y="-214.8" font-family="Helvetica,sans-Serif" font-size="11.00" fill="#000000">sex_identified</text>
<polygon fill="none" stroke="#000000" points="207,-185.7 207,-207.7 455,-207.7 455,-185.7 207,-185.7"/>
<image xlink:href="../../images/foreignKeys.png" width="11px" height="12px" preserveAspectRatio="xMinYMin meet" x="212" y="-202.7"/>
<text text-anchor="start" x="227" y="-192.8" font-family="Helvetica,sans-Serif" font-size="11.00" fill="#000000">interpreter_needed</text>
<polygon fill="none" stroke="#000000" points="207,-163.7 207,-185.7 455,-185.7 455,-163.7 207,-163.7"/>
<image xlink:href="../../images/foreignKeys.png" width="11px" height="12px" preserveAspectRatio="xMinYMin meet" x="212" y="-180.7"/>
<text text-anchor="start" x="227" y="-170.8" font-family="Helvetica,sans-Serif" font-size="11.00" fill="#000000">advance_directive_user_authenticator</text>
<polygon fill="none" stroke="#000000" points="207,-144.7 207,-163.7 455,-163.7 455,-144.7 207,-144.7"/>
<text text-anchor="start" x="210" y="-150.8" font-family="Helvetica,sans-Serif" font-size="11.00" fill="#000000">...</text>
<polygon fill="#ffffff" stroke="transparent" points="207,-125.7 207,-144.7 322,-144.7 322,-125.7 207,-125.7"/>
<polygon fill="none" stroke="#000000" points="207,-125.7 207,-144.7 322,-144.7 322,-125.7 207,-125.7"/>
<text text-anchor="start" x="210" y="-131.8" font-family="Helvetica,sans-Serif" font-size="11.00" fill="#000000">&lt; 9</text>
<polygon fill="#ffffff" stroke="transparent" points="322,-125.7 322,-144.7 381,-144.7 381,-125.7 322,-125.7"/>
<polygon fill="none" stroke="#000000" points="322,-125.7 322,-144.7 381,-144.7 381,-125.7 322,-125.7"/>
<text text-anchor="start" x="371.8862" y="-131.8" font-family="Helvetica,sans-Serif" font-size="11.00" fill="#000000"> &#160;</text>
<polygon fill="#ffffff" stroke="transparent" points="381,-125.7 381,-144.7 455,-144.7 455,-125.7 381,-125.7"/>
<polygon fill="none" stroke="#000000" points="381,-125.7 381,-144.7 455,-144.7 455,-125.7 381,-125.7"/>
<text text-anchor="start" x="430.2904" y="-131.8" font-family="Helvetica,sans-Serif" font-size="11.00" fill="#000000">97 &gt;</text>
</a>
</g>
</g>
<!-- form_encounter&#45;&gt;patient_data -->
<g id="edge1" class="edge">
<title>form_encounter:w&#45;&gt;patient_data:e</title>
<path fill="none" stroke="#000000" d="M490.2062,-540.9361C413.3691,-519.3398 556.729,-306.7 455,-306.7"/>
<polygon fill="#000000" stroke="#000000" points="496.5602,-541.7201 504.0591,-546.2729 500.5301,-542.2101 504.5,-542.7 504.5,-542.7 504.5,-542.7 500.5301,-542.2101 504.9409,-539.1271 496.5602,-541.7201 496.5602,-541.7201"/>
<ellipse fill="none" stroke="#000000" cx="493.3843" cy="-541.3282" rx="3.2" ry="3.2"/>
</g>
<!-- users -->
<g id="node4" class="node">
<title>users</title>
<g id="a_node4"><a xlink:href="../../tables/users.html" xlink:title="users" target="_top">
<polygon fill="#ffffff" stroke="transparent" points="8,-38.2 8,-253.2 158,-253.2 158,-38.2 8,-38.2"/>
<polygon fill="#f5f5f5" stroke="transparent" points="8,-229.7 8,-252.7 158,-252.7 158,-229.7 8,-229.7"/>
<polygon fill="none" stroke="#000000" points="8,-229.7 8,-252.7 158,-252.7 158,-229.7 8,-229.7"/>
<text text-anchor="start" x="13" y="-238.3" font-family="Helvetica,sans-Serif" font-weight="bold" font-size="11.00" fill="#000000">users</text>
<text text-anchor="start" x="123.0437" y="-237.8" font-family="Helvetica,sans-Serif" font-size="11.00" fill="#000000">[table]</text>
<polygon fill="none" stroke="#000000" points="8,-207.7 8,-229.7 158,-229.7 158,-207.7 8,-207.7"/>
<image xlink:href="../../images/primaryKeys.png" width="11px" height="12px" preserveAspectRatio="xMinYMin meet" x="13" y="-224.7"/>
<text text-anchor="start" x="28" y="-214.8" font-family="Helvetica,sans-Serif" font-size="11.00" fill="#000000">id</text>
<polygon fill="#ffffff" stroke="transparent" points="8,-185.7 8,-207.7 158,-207.7 158,-185.7 8,-185.7"/>
<polygon fill="none" stroke="#000000" points="8,-185.7 8,-207.7 158,-207.7 158,-185.7 8,-185.7"/>
<text text-anchor="start" x="28" y="-192.8" font-family="Helvetica,sans-Serif" font-size="11.00" fill="#000000">uuid</text>
<polygon fill="none" stroke="#000000" points="8,-163.7 8,-185.7 158,-185.7 158,-163.7 8,-163.7"/>
<image xlink:href="../../images/primaryKeys.png" width="11px" height="12px" preserveAspectRatio="xMinYMin meet" x="13" y="-180.7"/>
<text text-anchor="start" x="28" y="-170.8" font-family="Helvetica,sans-Serif" font-size="11.00" fill="#000000">username</text>
<polygon fill="none" stroke="#000000" points="8,-141.7 8,-163.7 158,-163.7 158,-141.7 8,-141.7"/>
<image xlink:href="../../images/foreignKeys.png" width="11px" height="12px" preserveAspectRatio="xMinYMin meet" x="13" y="-158.7"/>
<text text-anchor="start" x="28" y="-148.8" font-family="Helvetica,sans-Serif" font-size="11.00" fill="#000000">facility_id</text>
<polygon fill="#ffffff" stroke="transparent" points="8,-119.7 8,-141.7 158,-141.7 158,-119.7 8,-119.7"/>
<polygon fill="none" stroke="#000000" points="8,-119.7 8,-141.7 158,-141.7 158,-119.7 8,-119.7"/>
<text text-anchor="start" x="28" y="-126.8" font-family="Helvetica,sans-Serif" font-size="11.00" fill="#000000">google_signin_email</text>
<polygon fill="#ffffff" stroke="transparent" points="8,-97.7 8,-119.7 158,-119.7 158,-97.7 8,-97.7"/>
<polygon fill="none" stroke="#000000" points="8,-97.7 8,-119.7 158,-119.7 158,-97.7 8,-97.7"/>
<text text-anchor="start" x="28" y="-104.8" font-family="Helvetica,sans-Serif" font-size="11.00" fill="#000000">abook_type</text>
<polygon fill="none" stroke="#000000" points="8,-75.7 8,-97.7 158,-97.7 158,-75.7 8,-75.7"/>
<image xlink:href="../../images/foreignKeys.png" width="11px" height="12px" preserveAspectRatio="xMinYMin meet" x="13" y="-92.7"/>
<text text-anchor="start" x="28" y="-82.8" font-family="Helvetica,sans-Serif" font-size="11.00" fill="#000000">billing_facility_id</text>
<polygon fill="none" stroke="#000000" points="8,-56.7 8,-75.7 158,-75.7 158,-56.7 8,-56.7"/>
<text text-anchor="start" x="11" y="-62.8" font-family="Helvetica,sans-Serif" font-size="11.00" fill="#000000">...</text>
<polygon fill="#ffffff" stroke="transparent" points="8,-37.7 8,-56.7 74,-56.7 74,-37.7 8,-37.7"/>
<polygon fill="none" stroke="#000000" points="8,-37.7 8,-56.7 74,-56.7 74,-37.7 8,-37.7"/>
<text text-anchor="start" x="11" y="-43.8" font-family="Helvetica,sans-Serif" font-size="11.00" fill="#000000">&lt; 2</text>
<polygon fill="#ffffff" stroke="transparent" points="74,-37.7 74,-56.7 108,-56.7 108,-37.7 74,-37.7"/>
<polygon fill="none" stroke="#000000" points="74,-37.7 74,-56.7 108,-56.7 108,-37.7 74,-37.7"/>
<text text-anchor="start" x="98.8862" y="-43.8" font-family="Helvetica,sans-Serif" font-size="11.00" fill="#000000"> &#160;</text>
<polygon fill="#ffffff" stroke="transparent" points="108,-37.7 108,-56.7 158,-56.7 158,-37.7 108,-37.7"/>
<polygon fill="none" stroke="#000000" points="108,-37.7 108,-56.7 158,-56.7 158,-37.7 108,-37.7"/>
<text text-anchor="start" x="133.2904" y="-43.8" font-family="Helvetica,sans-Serif" font-size="11.00" fill="#000000">91 &gt;</text>
</a>
</g>
</g>
<!-- patient_data&#45;&gt;users -->
<g id="edge9" class="edge">
<title>patient_data:w&#45;&gt;users:e</title>
<path fill="none" stroke="#000000" d="M193.3171,-179.4088C180.0046,-190.7596 181.324,-218.7 158,-218.7"/>
<polygon fill="#000000" stroke="#000000" points="199.4354,-177.3033 208.1715,-178.1041 203.2177,-176.0016 207,-174.7 207,-174.7 207,-174.7 203.2177,-176.0016 205.8285,-171.2959 199.4354,-177.3033 199.4354,-177.3033"/>
<ellipse fill="none" stroke="#000000" cx="196.4096" cy="-178.3446" rx="3.2" ry="3.2"/>
</g>
<!-- patient_data&#45;&gt;users -->
<g id="edge10" class="edge">
<title>patient_data:w&#45;&gt;users:e</title>
<path fill="none" stroke="#000000" d="M193.3768,-279.9534C176.7322,-264.8202 188.5399,-218.7 158,-218.7"/>
<polygon fill="#000000" stroke="#000000" points="199.4454,-282.0678 205.8155,-288.0996 203.2227,-283.3839 207,-284.7 207,-284.7 207,-284.7 203.2227,-283.3839 208.1845,-281.3004 199.4454,-282.0678 199.4454,-282.0678"/>
<ellipse fill="none" stroke="#000000" cx="196.4236" cy="-281.0149" rx="3.2" ry="3.2"/>
</g>
<!-- patient_data&#45;&gt;users -->
<g id="edge11" class="edge">
<title>patient_data:w&#45;&gt;users:e</title>
<path fill="none" stroke="#000000" d="M192.8293,-347.4371C157.4817,-327.1102 214.7116,-218.7 158,-218.7"/>
<polygon fill="#000000" stroke="#000000" points="199.204,-348.9049 206.1922,-354.2082 203.102,-349.8024 207,-350.7 207,-350.7 207,-350.7 203.102,-349.8024 207.8078,-347.1918 199.204,-348.9049 199.204,-348.9049"/>
<ellipse fill="none" stroke="#000000" cx="196.0856" cy="-348.1868" rx="3.2" ry="3.2"/>
</g>
<!-- patient_data&#45;&gt;users -->
<g id="edge12" class="edge">
<title>patient_data:w&#45;&gt;users:e</title>
<path fill="none" stroke="#000000" d="M192.782,-324.785C165.1981,-305.1897 205.4572,-218.7 158,-218.7"/>
<polygon fill="#000000" stroke="#000000" points="199.2871,-326.5762 206.0443,-332.1708 203.1435,-327.6381 207,-328.7 207,-328.7 207,-328.7 203.1435,-327.6381 207.9557,-325.2292 199.2871,-326.5762 199.2871,-326.5762"/>
<ellipse fill="none" stroke="#000000" cx="196.2019" cy="-325.7266" rx="3.2" ry="3.2"/>
</g>
<!-- patient_data&#45;&gt;users -->
<g id="edge13" class="edge">
<title>patient_data:w&#45;&gt;users:e</title>
<path fill="none" stroke="#000000" d="M193.3171,-257.9912C180.0046,-246.6404 181.324,-218.7 158,-218.7"/>
<polygon fill="#000000" stroke="#000000" points="199.4354,-260.0967 205.8285,-266.1041 203.2177,-261.3984 207,-262.7 207,-262.7 207,-262.7 203.2177,-261.3984 208.1715,-259.2959 199.4354,-260.0967 199.4354,-260.0967"/>
<ellipse fill="none" stroke="#000000" cx="196.4096" cy="-259.0554" rx="3.2" ry="3.2"/>
</g>
<!-- issue_encounter -->
<g id="node3" class="node">
<title>issue_encounter</title>
<g id="a_node3"><a xlink:href="../../tables/issue_encounter.html" xlink:title="issue_encounter" target="_top">
<polygon fill="#ffffff" stroke="transparent" points="740,-230.7 740,-496.7 928,-496.7 928,-230.7 740,-230.7"/>
<polygon fill="#f5f5f5" stroke="transparent" points="742,-471.7 742,-494.7 926,-494.7 926,-471.7 742,-471.7"/>
<polygon fill="none" stroke="#000000" points="742,-471.7 742,-494.7 926,-494.7 926,-471.7 742,-471.7"/>
<text text-anchor="start" x="747" y="-480.3" font-family="Helvetica,sans-Serif" font-weight="bold" font-size="11.00" fill="#000000">issue_encounter</text>
<text text-anchor="start" x="891.0437" y="-479.8" font-family="Helvetica,sans-Serif" font-size="11.00" fill="#000000">[table]</text>
<polygon fill="none" stroke="#000000" points="742,-449.7 742,-471.7 860,-471.7 860,-449.7 742,-449.7"/>
<image xlink:href="../../images/primaryKeys.png" width="11px" height="12px" preserveAspectRatio="xMinYMin meet" x="747" y="-466.7"/>
<text text-anchor="start" x="762" y="-456.8" font-family="Helvetica,sans-Serif" font-size="11.00" fill="#000000">id</text>
<polygon fill="none" stroke="#000000" points="860,-449.7 860,-471.7 926,-471.7 926,-449.7 860,-449.7"/>
<text text-anchor="start" x="863" y="-457.4" font-family="Helvetica,sans-Serif" font-size="11.00" fill="#000000">bigint[19]</text>
<polygon fill="#ffffff" stroke="transparent" points="742,-427.7 742,-449.7 860,-449.7 860,-427.7 742,-427.7"/>
<polygon fill="none" stroke="#000000" points="742,-427.7 742,-449.7 860,-449.7 860,-427.7 742,-427.7"/>
<image xlink:href="../../images/foreignKeys.png" width="11px" height="12px" preserveAspectRatio="xMinYMin meet" x="747" y="-444.7"/>
<text text-anchor="start" x="762" y="-434.8" font-family="Helvetica,sans-Serif" font-size="11.00" fill="#000000">pid</text>
<polygon fill="none" stroke="#000000" points="860,-427.7 860,-449.7 926,-449.7 926,-427.7 860,-427.7"/>
<text text-anchor="start" x="863" y="-435.4" font-family="Helvetica,sans-Serif" font-size="11.00" fill="#000000">bigint[19]</text>
<polygon fill="#ffffff" stroke="transparent" points="742,-405.7 742,-427.7 860,-427.7 860,-405.7 742,-405.7"/>
<polygon fill="none" stroke="#000000" points="742,-405.7 742,-427.7 860,-427.7 860,-405.7 742,-405.7"/>
<image xlink:href="../../images/foreignKeys.png" width="11px" height="12px" preserveAspectRatio="xMinYMin meet" x="747" y="-422.7"/>
<text text-anchor="start" x="762" y="-412.8" font-family="Helvetica,sans-Serif" font-size="11.00" fill="#000000">list_id</text>
<polygon fill="none" stroke="#000000" points="860,-405.7 860,-427.7 926,-427.7 926,-405.7 860,-405.7"/>
<text text-anchor="start" x="863" y="-413.4" font-family="Helvetica,sans-Serif" font-size="11.00" fill="#000000">int[10]</text>
<polygon fill="#ffffff" stroke="transparent" points="742,-383.7 742,-405.7 860,-405.7 860,-383.7 742,-383.7"/>
<polygon fill="none" stroke="#000000" points="742,-383.7 742,-405.7 860,-405.7 860,-383.7 742,-383.7"/>
<image xlink:href="../../images/foreignKeys.png" width="11px" height="12px" preserveAspectRatio="xMinYMin meet" x="747" y="-400.7"/>
<text text-anchor="start" x="762" y="-390.8" font-family="Helvetica,sans-Serif" font-size="11.00" fill="#000000">encounter</text>
<polygon fill="none" stroke="#000000" points="860,-383.7 860,-405.7 926,-405.7 926,-383.7 860,-383.7"/>
<text text-anchor="start" x="863" y="-391.4" font-family="Helvetica,sans-Serif" font-size="11.00" fill="#000000">int[10]</text>
<polygon fill="none" stroke="#000000" points="742,-361.7 742,-383.7 860,-383.7 860,-361.7 742,-361.7"/>
<text text-anchor="start" x="762" y="-368.8" font-family="Helvetica,sans-Serif" font-size="11.00" fill="#000000">resolved</text>
<polygon fill="none" stroke="#000000" points="860,-361.7 860,-383.7 926,-383.7 926,-361.7 860,-361.7"/>
<text text-anchor="start" x="863" y="-369.4" font-family="Helvetica,sans-Serif" font-size="11.00" fill="#000000">boolean[3]</text>
<polygon fill="#ffffff" stroke="transparent" points="742,-339.7 742,-361.7 860,-361.7 860,-339.7 742,-339.7"/>
<polygon fill="none" stroke="#000000" points="742,-339.7 742,-361.7 860,-361.7 860,-339.7 742,-339.7"/>
<text text-anchor="start" x="762" y="-346.8" font-family="Helvetica,sans-Serif" font-size="11.00" fill="#000000">uuid</text>
<polygon fill="none" stroke="#000000" points="860,-339.7 860,-361.7 926,-361.7 926,-339.7 860,-339.7"/>
<text text-anchor="start" x="863" y="-347.4" font-family="Helvetica,sans-Serif" font-size="11.00" fill="#000000">binary[16]</text>
<polygon fill="none" stroke="#000000" points="742,-317.7 742,-339.7 860,-339.7 860,-317.7 742,-317.7"/>
<image xlink:href="../../images/foreignKeys.png" width="11px" height="12px" preserveAspectRatio="xMinYMin meet" x="747" y="-334.7"/>
<text text-anchor="start" x="762" y="-324.8" font-family="Helvetica,sans-Serif" font-size="11.00" fill="#000000">created_by</text>
<polygon fill="none" stroke="#000000" points="860,-317.7 860,-339.7 926,-339.7 926,-317.7 860,-317.7"/>
<text text-anchor="start" x="863" y="-325.4" font-family="Helvetica,sans-Serif" font-size="11.00" fill="#000000">bigint[19]</text>
<polygon fill="none" stroke="#000000" points="742,-295.7 742,-317.7 860,-317.7 860,-295.7 742,-295.7"/>
<image xlink:href="../../images/foreignKeys.png" width="11px" height="12px" preserveAspectRatio="xMinYMin meet" x="747" y="-312.7"/>
<text text-anchor="start" x="762" y="-302.8" font-family="Helvetica,sans-Serif" font-size="11.00" fill="#000000">updated_by</text>
<polygon fill="none" stroke="#000000" points="860,-295.7 860,-317.7 926,-317.7 926,-295.7 860,-295.7"/>
<text text-anchor="start" x="863" y="-303.4" font-family="Helvetica,sans-Serif" font-size="11.00" fill="#000000">bigint[19]</text>
<polygon fill="none" stroke="#000000" points="742,-273.7 742,-295.7 860,-295.7 860,-273.7 742,-273.7"/>
<text text-anchor="start" x="762" y="-280.8" font-family="Helvetica,sans-Serif" font-size="11.00" fill="#000000">created_at</text>
<polygon fill="none" stroke="#000000" points="860,-273.7 860,-295.7 926,-295.7 926,-273.7 860,-273.7"/>
<text text-anchor="start" x="862.7401" y="-281.4" font-family="Helvetica,sans-Serif" font-size="11.00" fill="#000000">datetime[19]</text>
<polygon fill="none" stroke="#000000" points="742,-251.7 742,-273.7 860,-273.7 860,-251.7 742,-251.7"/>
<text text-anchor="start" x="762" y="-258.8" font-family="Helvetica,sans-Serif" font-size="11.00" fill="#000000">updated_at</text>
<polygon fill="none" stroke="#000000" points="860,-251.7 860,-273.7 926,-273.7 926,-251.7 860,-251.7"/>
<text text-anchor="start" x="862.7401" y="-259.4" font-family="Helvetica,sans-Serif" font-size="11.00" fill="#000000">datetime[19]</text>
<polygon fill="#ffffff" stroke="transparent" points="742,-232.7 742,-251.7 805,-251.7 805,-232.7 742,-232.7"/>
<polygon fill="none" stroke="#000000" points="742,-232.7 742,-251.7 805,-251.7 805,-232.7 742,-232.7"/>
<text text-anchor="start" x="745" y="-238.8" font-family="Helvetica,sans-Serif" font-size="11.00" fill="#000000">&lt; 5</text>
<polygon fill="#ffffff" stroke="transparent" points="805,-232.7 805,-251.7 860,-251.7 860,-232.7 805,-232.7"/>
<polygon fill="none" stroke="#000000" points="805,-232.7 805,-251.7 860,-251.7 860,-232.7 805,-232.7"/>
<text text-anchor="start" x="850.8862" y="-238.8" font-family="Helvetica,sans-Serif" font-size="11.00" fill="#000000"> &#160;</text>
<polygon fill="#ffffff" stroke="transparent" points="860,-232.7 860,-251.7 926,-251.7 926,-232.7 860,-232.7"/>
<polygon fill="none" stroke="#000000" points="860,-232.7 860,-251.7 926,-251.7 926,-232.7 860,-232.7"/>
<text text-anchor="start" x="907.4053" y="-238.8" font-family="Helvetica,sans-Serif" font-size="11.00" fill="#000000">0 &gt;</text>
<polygon fill="none" stroke="#000000" stroke-width="2" points="741,-231.7 741,-495.7 927,-495.7 927,-231.7 741,-231.7"/>
</a>
</g>
</g>
<!-- issue_encounter&#45;&gt;form_encounter -->
<g id="edge3" class="edge">
<title>issue_encounter:w&#45;&gt;form_encounter:e</title>
<path fill="none" stroke="#000000" d="M727.8154,-398.0702C694.1284,-418.1077 745.9387,-520.7 691.5,-520.7"/>
<polygon fill="#000000" stroke="#000000" points="734.2167,-396.5493 742.8322,-398.2025 738.1083,-395.6247 742,-394.7 742,-394.7 742,-394.7 738.1083,-395.6247 741.1678,-391.1975 734.2167,-396.5493 734.2167,-396.5493"/>
<ellipse fill="none" stroke="#000000" cx="731.1033" cy="-397.2891" rx="3.2" ry="3.2"/>
</g>
<!-- issue_encounter&#45;&gt;patient_data -->
<g id="edge5" class="edge">
<title>issue_encounter:w&#45;&gt;patient_data:e</title>
<path fill="none" stroke="#000000" d="M727.5501,-440.1302C658.5987,-455.7635 770.0921,-595.4184 699,-653.7 629.2274,-710.8999 563.4359,-713.6371 496,-653.7 437.963,-602.1167 532.6475,-306.7 455,-306.7"/>
<polygon fill="#000000" stroke="#000000" points="734.0389,-439.488 742.3546,-442.2825 738.0194,-439.094 742,-438.7 742,-438.7 742,-438.7 738.0194,-439.094 741.6454,-435.1175 734.0389,-439.488 734.0389,-439.488"/>
<ellipse fill="none" stroke="#000000" cx="730.8545" cy="-439.8032" rx="3.2" ry="3.2"/>
</g>
<!-- issue_encounter&#45;&gt;users -->
<g id="edge2" class="edge">
<title>issue_encounter:w&#45;&gt;users:e</title>
<path fill="none" stroke="#000000" d="M727.2256,-327.3457C650.4573,-311.3608 776.2561,-158.1025 699,-93.7 649.7476,-52.642 232.0356,-91.4635 199,-115.7 159.2734,-144.8453 207.2712,-218.7 158,-218.7"/>
<polygon fill="#000000" stroke="#000000" points="734.0334,-327.9697 741.6714,-332.285 738.0167,-328.3348 742,-328.7 742,-328.7 742,-328.7 738.0167,-328.3348 742.3286,-325.115 734.0334,-327.9697 734.0334,-327.9697"/>
<ellipse fill="none" stroke="#000000" cx="730.8468" cy="-327.6776" rx="3.2" ry="3.2"/>
</g>
<!-- issue_encounter&#45;&gt;users -->
<g id="edge6" class="edge">
<title>issue_encounter:w&#45;&gt;users:e</title>
<path fill="none" stroke="#000000" d="M727.3391,-305.3636C651.108,-289.5894 774.9883,-138.3225 699,-73.7 682.246,-59.4519 206.4664,-63.0006 199,-68.7 144.0643,-110.6352 227.1122,-218.7 158,-218.7"/>
<polygon fill="#000000" stroke="#000000" points="734.033,-305.9737 741.6732,-310.2851 738.0165,-306.3369 742,-306.7 742,-306.7 742,-306.7 738.0165,-306.3369 742.3268,-303.1149 734.033,-305.9737 734.033,-305.9737"/>
<ellipse fill="none" stroke="#000000" cx="730.8462" cy="-305.6832" rx="3.2" ry="3.2"/>
</g>
<!-- lists -->
<g id="node5" class="node">
<title>lists</title>
<g id="a_node5"><a xlink:href="../../tables/lists.html" xlink:title="lists" target="_top">
<polygon fill="#ffffff" stroke="transparent" points="533,-104.2 533,-451.2 662,-451.2 662,-104.2 533,-104.2"/>
<polygon fill="#f5f5f5" stroke="transparent" points="533.5,-427.7 533.5,-450.7 662.5,-450.7 662.5,-427.7 533.5,-427.7"/>
<polygon fill="none" stroke="#000000" points="533.5,-427.7 533.5,-450.7 662.5,-450.7 662.5,-427.7 533.5,-427.7"/>
<text text-anchor="start" x="538.5" y="-436.3" font-family="Helvetica,sans-Serif" font-weight="bold" font-size="11.00" fill="#000000">lists</text>
<text text-anchor="start" x="627.5437" y="-435.8" font-family="Helvetica,sans-Serif" font-size="11.00" fill="#000000">[table]</text>
<polygon fill="none" stroke="#000000" points="533.5,-405.7 533.5,-427.7 662.5,-427.7 662.5,-405.7 533.5,-405.7"/>
<image xlink:href="../../images/primaryKeys.png" width="11px" height="12px" preserveAspectRatio="xMinYMin meet" x="538.5" y="-422.7"/>
<text text-anchor="start" x="553.5" y="-412.8" font-family="Helvetica,sans-Serif" font-size="11.00" fill="#000000">id</text>
<polygon fill="#ffffff" stroke="transparent" points="533.5,-383.7 533.5,-405.7 662.5,-405.7 662.5,-383.7 533.5,-383.7"/>
<polygon fill="none" stroke="#000000" points="533.5,-383.7 533.5,-405.7 662.5,-405.7 662.5,-383.7 533.5,-383.7"/>
<text text-anchor="start" x="553.5" y="-390.8" font-family="Helvetica,sans-Serif" font-size="11.00" fill="#000000">uuid</text>
<polygon fill="#ffffff" stroke="transparent" points="533.5,-361.7 533.5,-383.7 662.5,-383.7 662.5,-361.7 533.5,-361.7"/>
<polygon fill="none" stroke="#000000" points="533.5,-361.7 533.5,-383.7 662.5,-383.7 662.5,-361.7 533.5,-361.7"/>
<image xlink:href="../../images/foreignKeys.png" width="11px" height="12px" preserveAspectRatio="xMinYMin meet" x="538.5" y="-378.7"/>
<text text-anchor="start" x="553.5" y="-368.8" font-family="Helvetica,sans-Serif" font-size="11.00" fill="#000000">type</text>
<polygon fill="none" stroke="#000000" points="533.5,-339.7 533.5,-361.7 662.5,-361.7 662.5,-339.7 533.5,-339.7"/>
<image xlink:href="../../images/foreignKeys.png" width="11px" height="12px" preserveAspectRatio="xMinYMin meet" x="538.5" y="-356.7"/>
<text text-anchor="start" x="553.5" y="-346.8" font-family="Helvetica,sans-Serif" font-size="11.00" fill="#000000">subtype</text>
<polygon fill="none" stroke="#000000" points="533.5,-317.7 533.5,-339.7 662.5,-339.7 662.5,-317.7 533.5,-317.7"/>
<image xlink:href="../../images/foreignKeys.png" width="11px" height="12px" preserveAspectRatio="xMinYMin meet" x="538.5" y="-334.7"/>
<text text-anchor="start" x="553.5" y="-324.8" font-family="Helvetica,sans-Serif" font-size="11.00" fill="#000000">occurrence</text>
<polygon fill="#ffffff" stroke="transparent" points="533.5,-295.7 533.5,-317.7 662.5,-317.7 662.5,-295.7 533.5,-295.7"/>
<polygon fill="none" stroke="#000000" points="533.5,-295.7 533.5,-317.7 662.5,-317.7 662.5,-295.7 533.5,-295.7"/>
<image xlink:href="../../images/foreignKeys.png" width="11px" height="12px" preserveAspectRatio="xMinYMin meet" x="538.5" y="-312.7"/>
<text text-anchor="start" x="553.5" y="-302.8" font-family="Helvetica,sans-Serif" font-size="11.00" fill="#000000">pid</text>
<polygon fill="none" stroke="#000000" points="533.5,-273.7 533.5,-295.7 662.5,-295.7 662.5,-273.7 533.5,-273.7"/>
<image xlink:href="../../images/foreignKeys.png" width="11px" height="12px" preserveAspectRatio="xMinYMin meet" x="538.5" y="-290.7"/>
<text text-anchor="start" x="553.5" y="-280.8" font-family="Helvetica,sans-Serif" font-size="11.00" fill="#000000">user</text>
<polygon fill="none" stroke="#000000" points="533.5,-251.7 533.5,-273.7 662.5,-273.7 662.5,-251.7 533.5,-251.7"/>
<image xlink:href="../../images/foreignKeys.png" width="11px" height="12px" preserveAspectRatio="xMinYMin meet" x="538.5" y="-268.7"/>
<text text-anchor="start" x="553.5" y="-258.8" font-family="Helvetica,sans-Serif" font-size="11.00" fill="#000000">groupname</text>
<polygon fill="none" stroke="#000000" points="533.5,-229.7 533.5,-251.7 662.5,-251.7 662.5,-229.7 533.5,-229.7"/>
<image xlink:href="../../images/foreignKeys.png" width="11px" height="12px" preserveAspectRatio="xMinYMin meet" x="538.5" y="-246.7"/>
<text text-anchor="start" x="553.5" y="-236.8" font-family="Helvetica,sans-Serif" font-size="11.00" fill="#000000">outcome</text>
<polygon fill="none" stroke="#000000" points="533.5,-207.7 533.5,-229.7 662.5,-229.7 662.5,-207.7 533.5,-207.7"/>
<image xlink:href="../../images/foreignKeys.png" width="11px" height="12px" preserveAspectRatio="xMinYMin meet" x="538.5" y="-224.7"/>
<text text-anchor="start" x="553.5" y="-214.8" font-family="Helvetica,sans-Serif" font-size="11.00" fill="#000000">reaction</text>
<polygon fill="none" stroke="#000000" points="533.5,-185.7 533.5,-207.7 662.5,-207.7 662.5,-185.7 533.5,-185.7"/>
<image xlink:href="../../images/foreignKeys.png" width="11px" height="12px" preserveAspectRatio="xMinYMin meet" x="538.5" y="-202.7"/>
<text text-anchor="start" x="553.5" y="-192.8" font-family="Helvetica,sans-Serif" font-size="11.00" fill="#000000">verification</text>
<polygon fill="none" stroke="#000000" points="533.5,-163.7 533.5,-185.7 662.5,-185.7 662.5,-163.7 533.5,-163.7"/>
<image xlink:href="../../images/foreignKeys.png" width="11px" height="12px" preserveAspectRatio="xMinYMin meet" x="538.5" y="-180.7"/>
<text text-anchor="start" x="553.5" y="-170.8" font-family="Helvetica,sans-Serif" font-size="11.00" fill="#000000">severity_al</text>
<polygon fill="none" stroke="#000000" points="533.5,-141.7 533.5,-163.7 662.5,-163.7 662.5,-141.7 533.5,-141.7"/>
<image xlink:href="../../images/foreignKeys.png" width="11px" height="12px" preserveAspectRatio="xMinYMin meet" x="538.5" y="-158.7"/>
<text text-anchor="start" x="553.5" y="-148.8" font-family="Helvetica,sans-Serif" font-size="11.00" fill="#000000">list_option_id</text>
<polygon fill="none" stroke="#000000" points="533.5,-122.7 533.5,-141.7 662.5,-141.7 662.5,-122.7 533.5,-122.7"/>
<text text-anchor="start" x="536.5" y="-128.8" font-family="Helvetica,sans-Serif" font-size="11.00" fill="#000000">...</text>
<polygon fill="#ffffff" stroke="transparent" points="533.5,-103.7 533.5,-122.7 594.5,-122.7 594.5,-103.7 533.5,-103.7"/>
<polygon fill="none" stroke="#000000" points="533.5,-103.7 533.5,-122.7 594.5,-122.7 594.5,-103.7 533.5,-103.7"/>
<text text-anchor="start" x="536.5" y="-109.8" font-family="Helvetica,sans-Serif" font-size="11.00" fill="#000000">&lt; 11</text>
<polygon fill="#ffffff" stroke="transparent" points="594.5,-103.7 594.5,-122.7 623.5,-122.7 623.5,-103.7 594.5,-103.7"/>
<polygon fill="none" stroke="#000000" points="594.5,-103.7 594.5,-122.7 623.5,-122.7 623.5,-103.7 594.5,-103.7"/>
<text text-anchor="start" x="614.3862" y="-109.8" font-family="Helvetica,sans-Serif" font-size="11.00" fill="#000000"> &#160;</text>
<polygon fill="#ffffff" stroke="transparent" points="623.5,-103.7 623.5,-122.7 662.5,-122.7 662.5,-103.7 623.5,-103.7"/>
<polygon fill="none" stroke="#000000" points="623.5,-103.7 623.5,-122.7 662.5,-122.7 662.5,-103.7 623.5,-103.7"/>
<text text-anchor="start" x="643.9053" y="-109.8" font-family="Helvetica,sans-Serif" font-size="11.00" fill="#000000">5 &gt;</text>
</a>
</g>
</g>
<!-- issue_encounter&#45;&gt;lists -->
<g id="edge4" class="edge">
<title>issue_encounter:w&#45;&gt;lists:e</title>
<path fill="none" stroke="#000000" d="M727.5093,-416.7C703.3602,-416.7 692.4505,-416.7 662.5,-416.7"/>
<polygon fill="#000000" stroke="#000000" points="734,-416.7001 742,-420.3 738,-416.7 742,-416.7 742,-416.7 742,-416.7 738,-416.7 742,-413.1 734,-416.7001 734,-416.7001"/>
<ellipse fill="none" stroke="#000000" cx="730.8" cy="-416.7001" rx="3.2" ry="3.2"/>
</g>
<!-- lists&#45;&gt;patient_data -->
<g id="edge7" class="edge">
<title>lists:w&#45;&gt;patient_data:e</title>
<path fill="none" stroke="#000000" d="M518.8627,-306.7C495.2466,-306.7 484.4375,-306.7 455,-306.7"/>
<polygon fill="#000000" stroke="#000000" points="525.5,-306.7001 533.5,-310.3 529.5,-306.7 533.5,-306.7 533.5,-306.7 533.5,-306.7 529.5,-306.7 533.5,-303.1 525.5,-306.7001 525.5,-306.7001"/>
<ellipse fill="none" stroke="#000000" cx="522.3" cy="-306.7001" rx="3.2" ry="3.2"/>
</g>
<!-- lists&#45;&gt;users -->
<g id="edge8" class="edge">
<title>lists:w&#45;&gt;users:e</title>
<path fill="none" stroke="#000000" d="M518.9549,-283.0282C462.179,-268.1326 526.0959,-157.7448 463,-115.7 365.3591,-50.6357 302.9793,-61.3363 199,-115.7 170.7022,-130.495 189.932,-174.7 158,-174.7"/>
<polygon fill="#000000" stroke="#000000" points="525.5523,-283.7864 533.0889,-288.2765 529.5262,-284.2432 533.5,-284.7 533.5,-284.7 533.5,-284.7 529.5262,-284.2432 533.9111,-281.1235 525.5523,-283.7864 525.5523,-283.7864"/>
<ellipse fill="none" stroke="#000000" cx="522.3733" cy="-283.421" rx="3.2" ry="3.2"/>
</g>
</g>
</svg>
