<?xml version="1.0" encoding="UTF-8" standalone="no"?>
<!DOCTYPE svg PUBLIC "-//W3C//DTD SVG 1.1//EN"
 "http://www.w3.org/Graphics/SVG/1.1/DTD/svg11.dtd">
<!-- Generated by graphviz version 2.40.1 (20161225.0304)
 -->
<!-- Title: oneDegreeRelationshipsDiagram Pages: 1 -->
<svg width="153pt" height="162pt"
 viewBox="0.00 0.00 152.99 162.20" xmlns="http://www.w3.org/2000/svg" xmlns:xlink="http://www.w3.org/1999/xlink">
<g id="graph0" class="graph" transform="scale(1 1) rotate(0) translate(4 158.2)">
<title>oneDegreeRelationshipsDiagram</title>
<polygon fill="#ffffff" stroke="transparent" points="-4,4 -4,-158.2 148.9871,-158.2 148.9871,4 -4,4"/>
<text text-anchor="middle" x="72.4936" y="-7.3" font-family="Helvetica,sans-Serif" font-size="11.00" fill="#000000">Generated by SchemaSpy</text>
<!-- keys -->
<g id="node1" class="node">
<title>keys</title>
<g id="a_node1"><a xlink:href="../../tables/keys.html" xlink:title="keys" target="_top">
<polygon fill="#ffffff" stroke="transparent" points="12.4935,-38.2 12.4935,-150.2 132.4936,-150.2 132.4936,-38.2 12.4935,-38.2"/>
<polygon fill="#f5f5f5" stroke="transparent" points="14.4936,-125.2 14.4936,-148.2 130.4936,-148.2 130.4936,-125.2 14.4936,-125.2"/>
<polygon fill="none" stroke="#000000" points="14.4936,-125.2 14.4936,-148.2 130.4936,-148.2 130.4936,-125.2 14.4936,-125.2"/>
<text text-anchor="start" x="19.4936" y="-133.8" font-family="Helvetica,sans-Serif" font-weight="bold" font-size="11.00" fill="#000000">keys</text>
<text text-anchor="start" x="95.5373" y="-133.3" font-family="Helvetica,sans-Serif" font-size="11.00" fill="#000000">[table]</text>
<polygon fill="none" stroke="#000000" points="14.4936,-103.2 14.4936,-125.2 69.4936,-125.2 69.4936,-103.2 14.4936,-103.2"/>
<image xlink:href="../../images/primaryKeys.png" width="11px" height="12px" preserveAspectRatio="xMinYMin meet" x="19.4935" y="-120.2"/>
<text text-anchor="start" x="34.4936" y="-110.3" font-family="Helvetica,sans-Serif" font-size="11.00" fill="#000000">id</text>
<polygon fill="none" stroke="#000000" points="69.4936,-103.2 69.4936,-125.2 130.4936,-125.2 130.4936,-103.2 69.4936,-103.2"/>
<text text-anchor="start" x="72.4936" y="-110.9" font-family="Helvetica,sans-Serif" font-size="11.00" fill="#000000">bigint[19]</text>
<polygon fill="#ffffff" stroke="transparent" points="14.4936,-81.2 14.4936,-103.2 69.4936,-103.2 69.4936,-81.2 14.4936,-81.2"/>
<polygon fill="none" stroke="#000000" points="14.4936,-81.2 14.4936,-103.2 69.4936,-103.2 69.4936,-81.2 14.4936,-81.2"/>
<text text-anchor="start" x="34.4936" y="-88.3" font-family="Helvetica,sans-Serif" font-size="11.00" fill="#000000">name</text>
<polygon fill="none" stroke="#000000" points="69.4936,-81.2 69.4936,-103.2 130.4936,-103.2 130.4936,-81.2 69.4936,-81.2"/>
<text text-anchor="start" x="72.4875" y="-88.9" font-family="Helvetica,sans-Serif" font-size="11.00" fill="#000000">varchar[20]</text>
<polygon fill="none" stroke="#000000" points="14.4936,-59.2 14.4936,-81.2 69.4936,-81.2 69.4936,-59.2 14.4936,-59.2"/>
<text text-anchor="start" x="34.4936" y="-66.3" font-family="Helvetica,sans-Serif" font-size="11.00" fill="#000000">value</text>
<polygon fill="none" stroke="#000000" points="69.4936,-59.2 69.4936,-81.2 130.4936,-81.2 130.4936,-59.2 69.4936,-59.2"/>
<text text-anchor="start" x="72.4936" y="-66.9" font-family="Helvetica,sans-Serif" font-size="11.00" fill="#000000">text[65535]</text>
<polygon fill="#ffffff" stroke="transparent" points="14.4936,-40.2 14.4936,-59.2 46.4936,-59.2 46.4936,-40.2 14.4936,-40.2"/>
<polygon fill="none" stroke="#000000" points="14.4936,-40.2 14.4936,-59.2 46.4936,-59.2 46.4936,-40.2 14.4936,-40.2"/>
<text text-anchor="start" x="17.4936" y="-46.3" font-family="Helvetica,sans-Serif" font-size="11.00" fill="#000000">&lt; 0</text>
<polygon fill="#ffffff" stroke="transparent" points="46.4936,-40.2 46.4936,-59.2 69.4936,-59.2 69.4936,-40.2 46.4936,-40.2"/>
<polygon fill="none" stroke="#000000" points="46.4936,-40.2 46.4936,-59.2 69.4936,-59.2 69.4936,-40.2 46.4936,-40.2"/>
<text text-anchor="start" x="60.3798" y="-46.3" font-family="Helvetica,sans-Serif" font-size="11.00" fill="#000000"> &#160;</text>
<polygon fill="#ffffff" stroke="transparent" points="69.4936,-40.2 69.4936,-59.2 130.4936,-59.2 130.4936,-40.2 69.4936,-40.2"/>
<polygon fill="none" stroke="#000000" points="69.4936,-40.2 69.4936,-59.2 130.4936,-59.2 130.4936,-40.2 69.4936,-40.2"/>
<text text-anchor="start" x="111.8989" y="-46.3" font-family="Helvetica,sans-Serif" font-size="11.00" fill="#000000">0 &gt;</text>
<polygon fill="none" stroke="#000000" stroke-width="2" points="13.4936,-39.2 13.4936,-149.2 131.4936,-149.2 131.4936,-39.2 13.4936,-39.2"/>
</a>
</g>
</g>
</g>
</svg>
