<?xml version="1.0" encoding="UTF-8" standalone="no"?>
<!DOCTYPE svg PUBLIC "-//W3C//DTD SVG 1.1//EN"
 "http://www.w3.org/Graphics/SVG/1.1/DTD/svg11.dtd">
<!-- Generated by graphviz version 2.40.1 (20161225.0304)
 -->
<!-- Title: oneDegreeRelationshipsDiagram Pages: 1 -->
<svg width="475pt" height="546pt"
 viewBox="0.00 0.00 475.00 545.70" xmlns="http://www.w3.org/2000/svg" xmlns:xlink="http://www.w3.org/1999/xlink">
<g id="graph0" class="graph" transform="scale(1 1) rotate(0) translate(4 541.7)">
<title>oneDegreeRelationshipsDiagram</title>
<polygon fill="#ffffff" stroke="transparent" points="-4,4 -4,-541.7 471,-541.7 471,4 -4,4"/>
<text text-anchor="middle" x="72.4936" y="-7.3" font-family="Helvetica,sans-Serif" font-size="11.00" fill="#000000">Generated by SchemaSpy</text>
<!-- layout_options -->
<g id="node1" class="node">
<title>layout_options</title>
<g id="a_node1"><a xlink:href="../../tables/layout_options.html" xlink:title="layout_options" target="_top">
<polygon fill="#ffffff" stroke="transparent" points="321,-384.7 321,-533.7 459,-533.7 459,-384.7 321,-384.7"/>
<polygon fill="#f5f5f5" stroke="transparent" points="321,-510.2 321,-533.2 459,-533.2 459,-510.2 321,-510.2"/>
<polygon fill="none" stroke="#000000" points="321,-510.2 321,-533.2 459,-533.2 459,-510.2 321,-510.2"/>
<text text-anchor="start" x="326" y="-518.8" font-family="Helvetica,sans-Serif" font-weight="bold" font-size="11.00" fill="#000000">layout_options</text>
<text text-anchor="start" x="424.5219" y="-518.3" font-family="Helvetica,sans-Serif" font-size="11.00" fill="#000000">[table]</text>
<polygon fill="none" stroke="#000000" points="321,-488.2 321,-510.2 459,-510.2 459,-488.2 321,-488.2"/>
<image xlink:href="../../images/primaryKeys.png" width="11px" height="12px" preserveAspectRatio="xMinYMin meet" x="326" y="-505.2"/>
<text text-anchor="start" x="350" y="-495.3" font-family="Helvetica,sans-Serif" font-size="11.00" fill="#000000">form_id</text>
<polygon fill="none" stroke="#000000" points="321,-466.2 321,-488.2 459,-488.2 459,-466.2 321,-466.2"/>
<image xlink:href="../../images/primaryKeys.png" width="11px" height="12px" preserveAspectRatio="xMinYMin meet" x="326" y="-483.2"/>
<text text-anchor="start" x="350" y="-473.3" font-family="Helvetica,sans-Serif" font-size="11.00" fill="#000000">field_id</text>
<polygon fill="none" stroke="#000000" points="321,-444.2 321,-466.2 459,-466.2 459,-444.2 321,-444.2"/>
<image xlink:href="../../images/foreignKeys.png" width="11px" height="12px" preserveAspectRatio="xMinYMin meet" x="326" y="-461.2"/>
<text text-anchor="start" x="350" y="-451.3" font-family="Helvetica,sans-Serif" font-size="11.00" fill="#000000">group_id</text>
<polygon fill="none" stroke="#000000" points="321,-422.2 321,-444.2 459,-444.2 459,-422.2 321,-422.2"/>
<image xlink:href="../../images/primaryKeys.png" width="11px" height="12px" preserveAspectRatio="xMinYMin meet" x="326" y="-439.2"/>
<text text-anchor="start" x="350" y="-429.3" font-family="Helvetica,sans-Serif" font-size="11.00" fill="#000000">seq</text>
<polygon fill="none" stroke="#000000" points="321,-403.2 321,-422.2 459,-422.2 459,-403.2 321,-403.2"/>
<text text-anchor="start" x="324" y="-409.3" font-family="Helvetica,sans-Serif" font-size="11.00" fill="#000000">...</text>
<polygon fill="#ffffff" stroke="transparent" points="321,-384.2 321,-403.2 384,-403.2 384,-384.2 321,-384.2"/>
<polygon fill="none" stroke="#000000" points="321,-384.2 321,-403.2 384,-403.2 384,-384.2 321,-384.2"/>
<text text-anchor="start" x="324" y="-390.3" font-family="Helvetica,sans-Serif" font-size="11.00" fill="#000000">&lt; 2</text>
<polygon fill="#ffffff" stroke="transparent" points="384,-384.2 384,-403.2 417,-403.2 417,-384.2 384,-384.2"/>
<polygon fill="none" stroke="#000000" points="384,-384.2 384,-403.2 417,-403.2 417,-384.2 384,-384.2"/>
<text text-anchor="start" x="407.8862" y="-390.3" font-family="Helvetica,sans-Serif" font-size="11.00" fill="#000000"> &#160;</text>
<polygon fill="#ffffff" stroke="transparent" points="417,-384.2 417,-403.2 459,-403.2 459,-384.2 417,-384.2"/>
<polygon fill="none" stroke="#000000" points="417,-384.2 417,-403.2 459,-403.2 459,-384.2 417,-384.2"/>
<text text-anchor="start" x="440.4053" y="-390.3" font-family="Helvetica,sans-Serif" font-size="11.00" fill="#000000">3 &gt;</text>
</a>
</g>
</g>
<!-- layout_group_properties -->
<g id="node2" class="node">
<title>layout_group_properties</title>
<g id="a_node2"><a xlink:href="../../tables/layout_group_properties.html" xlink:title="layout_group_properties" target="_top">
<polygon fill="#ffffff" stroke="transparent" points="8,-38.2 8,-524.2 272,-524.2 272,-38.2 8,-38.2"/>
<polygon fill="#f5f5f5" stroke="transparent" points="10,-499.2 10,-522.2 270,-522.2 270,-499.2 10,-499.2"/>
<polygon fill="none" stroke="#000000" points="10,-499.2 10,-522.2 270,-522.2 270,-499.2 10,-499.2"/>
<text text-anchor="start" x="15" y="-507.8" font-family="Helvetica,sans-Serif" font-weight="bold" font-size="11.00" fill="#000000">layout_group_properties</text>
<text text-anchor="start" x="235.0437" y="-507.3" font-family="Helvetica,sans-Serif" font-size="11.00" fill="#000000">[table]</text>
<polygon fill="none" stroke="#000000" points="10,-477.2 10,-499.2 195,-499.2 195,-477.2 10,-477.2"/>
<image xlink:href="../../images/primaryKeys.png" width="11px" height="12px" preserveAspectRatio="xMinYMin meet" x="15" y="-494.2"/>
<text text-anchor="start" x="30" y="-484.3" font-family="Helvetica,sans-Serif" font-size="11.00" fill="#000000">grp_form_id</text>
<polygon fill="none" stroke="#000000" points="195,-477.2 195,-499.2 270,-499.2 270,-477.2 195,-477.2"/>
<text text-anchor="start" x="198" y="-484.9" font-family="Helvetica,sans-Serif" font-size="11.00" fill="#000000">varchar[31]</text>
<polygon fill="none" stroke="#000000" points="10,-455.2 10,-477.2 195,-477.2 195,-455.2 10,-455.2"/>
<image xlink:href="../../images/primaryKeys.png" width="11px" height="12px" preserveAspectRatio="xMinYMin meet" x="15" y="-472.2"/>
<text text-anchor="start" x="30" y="-462.3" font-family="Helvetica,sans-Serif" font-size="11.00" fill="#000000">grp_group_id</text>
<polygon fill="none" stroke="#000000" points="195,-455.2 195,-477.2 270,-477.2 270,-455.2 195,-455.2"/>
<text text-anchor="start" x="198" y="-462.9" font-family="Helvetica,sans-Serif" font-size="11.00" fill="#000000">varchar[31]</text>
<polygon fill="none" stroke="#000000" points="10,-433.2 10,-455.2 195,-455.2 195,-433.2 10,-433.2"/>
<text text-anchor="start" x="30" y="-440.3" font-family="Helvetica,sans-Serif" font-size="11.00" fill="#000000">grp_title</text>
<polygon fill="none" stroke="#000000" points="195,-433.2 195,-455.2 270,-455.2 270,-433.2 195,-433.2"/>
<text text-anchor="start" x="198" y="-440.9" font-family="Helvetica,sans-Serif" font-size="11.00" fill="#000000">varchar[63]</text>
<polygon fill="none" stroke="#000000" points="10,-411.2 10,-433.2 195,-433.2 195,-411.2 10,-411.2"/>
<text text-anchor="start" x="30" y="-418.3" font-family="Helvetica,sans-Serif" font-size="11.00" fill="#000000">grp_subtitle</text>
<polygon fill="none" stroke="#000000" points="195,-411.2 195,-433.2 270,-433.2 270,-411.2 195,-411.2"/>
<text text-anchor="start" x="198" y="-418.9" font-family="Helvetica,sans-Serif" font-size="11.00" fill="#000000">varchar[63]</text>
<polygon fill="none" stroke="#000000" points="10,-389.2 10,-411.2 195,-411.2 195,-389.2 10,-389.2"/>
<text text-anchor="start" x="30" y="-396.3" font-family="Helvetica,sans-Serif" font-size="11.00" fill="#000000">grp_mapping</text>
<polygon fill="none" stroke="#000000" points="195,-389.2 195,-411.2 270,-411.2 270,-389.2 195,-389.2"/>
<text text-anchor="start" x="198" y="-396.9" font-family="Helvetica,sans-Serif" font-size="11.00" fill="#000000">varchar[31]</text>
<polygon fill="none" stroke="#000000" points="10,-367.2 10,-389.2 195,-389.2 195,-367.2 10,-367.2"/>
<text text-anchor="start" x="30" y="-374.3" font-family="Helvetica,sans-Serif" font-size="11.00" fill="#000000">grp_seq</text>
<polygon fill="none" stroke="#000000" points="195,-367.2 195,-389.2 270,-389.2 270,-367.2 195,-367.2"/>
<text text-anchor="start" x="198" y="-374.9" font-family="Helvetica,sans-Serif" font-size="11.00" fill="#000000">int[10]</text>
<polygon fill="none" stroke="#000000" points="10,-345.2 10,-367.2 195,-367.2 195,-345.2 10,-345.2"/>
<text text-anchor="start" x="30" y="-352.3" font-family="Helvetica,sans-Serif" font-size="11.00" fill="#000000">grp_activity</text>
<polygon fill="none" stroke="#000000" points="195,-345.2 195,-367.2 270,-367.2 270,-345.2 195,-345.2"/>
<text text-anchor="start" x="198" y="-352.9" font-family="Helvetica,sans-Serif" font-size="11.00" fill="#000000">bit[1]</text>
<polygon fill="none" stroke="#000000" points="10,-323.2 10,-345.2 195,-345.2 195,-323.2 10,-323.2"/>
<text text-anchor="start" x="30" y="-330.3" font-family="Helvetica,sans-Serif" font-size="11.00" fill="#000000">grp_repeats</text>
<polygon fill="none" stroke="#000000" points="195,-323.2 195,-345.2 270,-345.2 270,-323.2 195,-323.2"/>
<text text-anchor="start" x="198" y="-330.9" font-family="Helvetica,sans-Serif" font-size="11.00" fill="#000000">int[10]</text>
<polygon fill="none" stroke="#000000" points="10,-301.2 10,-323.2 195,-323.2 195,-301.2 10,-301.2"/>
<text text-anchor="start" x="30" y="-308.3" font-family="Helvetica,sans-Serif" font-size="11.00" fill="#000000">grp_columns</text>
<polygon fill="none" stroke="#000000" points="195,-301.2 195,-323.2 270,-323.2 270,-301.2 195,-301.2"/>
<text text-anchor="start" x="198" y="-308.9" font-family="Helvetica,sans-Serif" font-size="11.00" fill="#000000">int[10]</text>
<polygon fill="none" stroke="#000000" points="10,-279.2 10,-301.2 195,-301.2 195,-279.2 10,-279.2"/>
<text text-anchor="start" x="30" y="-286.3" font-family="Helvetica,sans-Serif" font-size="11.00" fill="#000000">grp_size</text>
<polygon fill="none" stroke="#000000" points="195,-279.2 195,-301.2 270,-301.2 270,-279.2 195,-279.2"/>
<text text-anchor="start" x="198" y="-286.9" font-family="Helvetica,sans-Serif" font-size="11.00" fill="#000000">int[10]</text>
<polygon fill="none" stroke="#000000" points="10,-257.2 10,-279.2 195,-279.2 195,-257.2 10,-257.2"/>
<text text-anchor="start" x="30" y="-264.3" font-family="Helvetica,sans-Serif" font-size="11.00" fill="#000000">grp_issue_type</text>
<polygon fill="none" stroke="#000000" points="195,-257.2 195,-279.2 270,-279.2 270,-257.2 195,-257.2"/>
<text text-anchor="start" x="198" y="-264.9" font-family="Helvetica,sans-Serif" font-size="11.00" fill="#000000">varchar[75]</text>
<polygon fill="none" stroke="#000000" points="10,-235.2 10,-257.2 195,-257.2 195,-235.2 10,-235.2"/>
<text text-anchor="start" x="30" y="-242.3" font-family="Helvetica,sans-Serif" font-size="11.00" fill="#000000">grp_aco_spec</text>
<polygon fill="none" stroke="#000000" points="195,-235.2 195,-257.2 270,-257.2 270,-235.2 195,-235.2"/>
<text text-anchor="start" x="198" y="-242.9" font-family="Helvetica,sans-Serif" font-size="11.00" fill="#000000">varchar[63]</text>
<polygon fill="none" stroke="#000000" points="10,-213.2 10,-235.2 195,-235.2 195,-213.2 10,-213.2"/>
<text text-anchor="start" x="30" y="-220.3" font-family="Helvetica,sans-Serif" font-size="11.00" fill="#000000">grp_save_close</text>
<polygon fill="none" stroke="#000000" points="195,-213.2 195,-235.2 270,-235.2 270,-213.2 195,-213.2"/>
<text text-anchor="start" x="198" y="-220.9" font-family="Helvetica,sans-Serif" font-size="11.00" fill="#000000">bit[1]</text>
<polygon fill="none" stroke="#000000" points="10,-191.2 10,-213.2 195,-213.2 195,-191.2 10,-191.2"/>
<text text-anchor="start" x="30" y="-198.3" font-family="Helvetica,sans-Serif" font-size="11.00" fill="#000000">grp_init_open</text>
<polygon fill="none" stroke="#000000" points="195,-191.2 195,-213.2 270,-213.2 270,-191.2 195,-191.2"/>
<text text-anchor="start" x="198" y="-198.9" font-family="Helvetica,sans-Serif" font-size="11.00" fill="#000000">bit[1]</text>
<polygon fill="none" stroke="#000000" points="10,-169.2 10,-191.2 195,-191.2 195,-169.2 10,-169.2"/>
<text text-anchor="start" x="30" y="-176.3" font-family="Helvetica,sans-Serif" font-size="11.00" fill="#000000">grp_referrals</text>
<polygon fill="none" stroke="#000000" points="195,-169.2 195,-191.2 270,-191.2 270,-169.2 195,-169.2"/>
<text text-anchor="start" x="198" y="-176.9" font-family="Helvetica,sans-Serif" font-size="11.00" fill="#000000">bit[1]</text>
<polygon fill="none" stroke="#000000" points="10,-147.2 10,-169.2 195,-169.2 195,-147.2 10,-147.2"/>
<text text-anchor="start" x="30" y="-154.3" font-family="Helvetica,sans-Serif" font-size="11.00" fill="#000000">grp_unchecked</text>
<polygon fill="none" stroke="#000000" points="195,-147.2 195,-169.2 270,-169.2 270,-147.2 195,-147.2"/>
<text text-anchor="start" x="198" y="-154.9" font-family="Helvetica,sans-Serif" font-size="11.00" fill="#000000">bit[1]</text>
<polygon fill="none" stroke="#000000" points="10,-125.2 10,-147.2 195,-147.2 195,-125.2 10,-125.2"/>
<text text-anchor="start" x="30" y="-132.3" font-family="Helvetica,sans-Serif" font-size="11.00" fill="#000000">grp_services</text>
<polygon fill="none" stroke="#000000" points="195,-125.2 195,-147.2 270,-147.2 270,-125.2 195,-125.2"/>
<text text-anchor="start" x="198" y="-132.9" font-family="Helvetica,sans-Serif" font-size="11.00" fill="#000000">varchar[4095]</text>
<polygon fill="none" stroke="#000000" points="10,-103.2 10,-125.2 195,-125.2 195,-103.2 10,-103.2"/>
<text text-anchor="start" x="30" y="-110.3" font-family="Helvetica,sans-Serif" font-size="11.00" fill="#000000">grp_products</text>
<polygon fill="none" stroke="#000000" points="195,-103.2 195,-125.2 270,-125.2 270,-103.2 195,-103.2"/>
<text text-anchor="start" x="198" y="-110.9" font-family="Helvetica,sans-Serif" font-size="11.00" fill="#000000">varchar[4095]</text>
<polygon fill="none" stroke="#000000" points="10,-81.2 10,-103.2 195,-103.2 195,-81.2 10,-81.2"/>
<text text-anchor="start" x="30" y="-88.3" font-family="Helvetica,sans-Serif" font-size="11.00" fill="#000000">grp_diags</text>
<polygon fill="none" stroke="#000000" points="195,-81.2 195,-103.2 270,-103.2 270,-81.2 195,-81.2"/>
<text text-anchor="start" x="198" y="-88.9" font-family="Helvetica,sans-Serif" font-size="11.00" fill="#000000">varchar[4095]</text>
<polygon fill="none" stroke="#000000" points="10,-59.2 10,-81.2 195,-81.2 195,-59.2 10,-59.2"/>
<text text-anchor="start" x="30" y="-66.3" font-family="Helvetica,sans-Serif" font-size="11.00" fill="#000000">grp_last_update</text>
<polygon fill="none" stroke="#000000" points="195,-59.2 195,-81.2 270,-81.2 270,-59.2 195,-59.2"/>
<text text-anchor="start" x="197.9666" y="-66.9" font-family="Helvetica,sans-Serif" font-size="11.00" fill="#000000">timestamp[19]</text>
<polygon fill="#ffffff" stroke="transparent" points="10,-40.2 10,-59.2 107,-59.2 107,-40.2 10,-40.2"/>
<polygon fill="none" stroke="#000000" points="10,-40.2 10,-59.2 107,-59.2 107,-40.2 10,-40.2"/>
<text text-anchor="start" x="13" y="-46.3" font-family="Helvetica,sans-Serif" font-size="11.00" fill="#000000">&lt; 0</text>
<polygon fill="#ffffff" stroke="transparent" points="107,-40.2 107,-59.2 195,-59.2 195,-40.2 107,-40.2"/>
<polygon fill="none" stroke="#000000" points="107,-40.2 107,-59.2 195,-59.2 195,-40.2 107,-40.2"/>
<text text-anchor="start" x="185.8862" y="-46.3" font-family="Helvetica,sans-Serif" font-size="11.00" fill="#000000"> &#160;</text>
<polygon fill="#ffffff" stroke="transparent" points="195,-40.2 195,-59.2 270,-59.2 270,-40.2 195,-40.2"/>
<polygon fill="none" stroke="#000000" points="195,-40.2 195,-59.2 270,-59.2 270,-40.2 195,-40.2"/>
<text text-anchor="start" x="251.4053" y="-46.3" font-family="Helvetica,sans-Serif" font-size="11.00" fill="#000000">2 &gt;</text>
<polygon fill="none" stroke="#000000" stroke-width="2" points="9,-39.2 9,-523.2 271,-523.2 271,-39.2 9,-39.2"/>
</a>
</g>
</g>
<!-- layout_options&#45;&gt;layout_group_properties -->
<g id="edge1" class="edge">
<title>layout_options:w&#45;&gt;layout_group_properties:e</title>
<path fill="none" stroke="#000000" d="M306.5097,-497.4813C294.3398,-494.3875 287.3909,-488.2 270,-488.2"/>
<polygon fill="#000000" stroke="#000000" points="313.0557,-498.2576 320.5759,-502.7749 317.0278,-498.7288 321,-499.2 321,-499.2 321,-499.2 317.0278,-498.7288 321.4241,-495.6251 313.0557,-498.2576 313.0557,-498.2576"/>
<ellipse fill="none" stroke="#000000" cx="309.878" cy="-497.8807" rx="3.2" ry="3.2"/>
</g>
<!-- layout_options&#45;&gt;layout_group_properties -->
<g id="edge2" class="edge">
<title>layout_options:w&#45;&gt;layout_group_properties:e</title>
<path fill="none" stroke="#000000" d="M306.5097,-456.9188C294.3398,-460.0125 287.3909,-466.2 270,-466.2"/>
<polygon fill="#000000" stroke="#000000" points="313.0557,-456.1424 321.4241,-458.7749 317.0278,-455.6712 321,-455.2 321,-455.2 321,-455.2 317.0278,-455.6712 320.5759,-451.6251 313.0557,-456.1424 313.0557,-456.1424"/>
<ellipse fill="none" stroke="#000000" cx="309.878" cy="-456.5193" rx="3.2" ry="3.2"/>
</g>
</g>
</svg>
