<?xml version="1.0" encoding="UTF-8" standalone="no"?>
<!DOCTYPE svg PUBLIC "-//W3C//DTD SVG 1.1//EN"
 "http://www.w3.org/Graphics/SVG/1.1/DTD/svg11.dtd">
<!-- Generated by graphviz version 2.40.1 (20161225.0304)
 -->
<!-- Title: oneDegreeRelationshipsDiagram Pages: 1 -->
<svg width="725pt" height="683pt"
 viewBox="0.00 0.00 725.00 682.70" xmlns="http://www.w3.org/2000/svg" xmlns:xlink="http://www.w3.org/1999/xlink">
<g id="graph0" class="graph" transform="scale(1 1) rotate(0) translate(4 678.7)">
<title>oneDegreeRelationshipsDiagram</title>
<polygon fill="#ffffff" stroke="transparent" points="-4,4 -4,-678.7 721,-678.7 721,4 -4,4"/>
<text text-anchor="middle" x="72.4936" y="-7.3" font-family="Helvetica,sans-Serif" font-size="11.00" fill="#000000">Generated by SchemaSpy</text>
<!-- layout_options -->
<g id="node1" class="node">
<title>layout_options</title>
<g id="a_node1"><a xlink:href="../../tables/layout_options.html" xlink:title="layout_options" target="_top">
<polygon fill="#ffffff" stroke="transparent" points="260,-38.2 260,-546.2 501,-546.2 501,-38.2 260,-38.2"/>
<polygon fill="#f5f5f5" stroke="transparent" points="262.5,-521.2 262.5,-544.2 499.5,-544.2 499.5,-521.2 262.5,-521.2"/>
<polygon fill="none" stroke="#000000" points="262.5,-521.2 262.5,-544.2 499.5,-544.2 499.5,-521.2 262.5,-521.2"/>
<text text-anchor="start" x="267.5" y="-529.8" font-family="Helvetica,sans-Serif" font-weight="bold" font-size="11.00" fill="#000000">layout_options</text>
<text text-anchor="start" x="464.5437" y="-529.3" font-family="Helvetica,sans-Serif" font-size="11.00" fill="#000000">[table]</text>
<polygon fill="none" stroke="#000000" points="262.5,-499.2 262.5,-521.2 382.5,-521.2 382.5,-499.2 262.5,-499.2"/>
<image xlink:href="../../images/primaryKeys.png" width="11px" height="12px" preserveAspectRatio="xMinYMin meet" x="267.5" y="-516.2"/>
<text text-anchor="start" x="282.5" y="-506.3" font-family="Helvetica,sans-Serif" font-size="11.00" fill="#000000">form_id</text>
<polygon fill="none" stroke="#000000" points="382.5,-499.2 382.5,-521.2 499.5,-521.2 499.5,-499.2 382.5,-499.2"/>
<text text-anchor="start" x="385.5" y="-506.9" font-family="Helvetica,sans-Serif" font-size="11.00" fill="#000000">varchar[31]</text>
<polygon fill="none" stroke="#000000" points="262.5,-477.2 262.5,-499.2 382.5,-499.2 382.5,-477.2 262.5,-477.2"/>
<image xlink:href="../../images/primaryKeys.png" width="11px" height="12px" preserveAspectRatio="xMinYMin meet" x="267.5" y="-494.2"/>
<text text-anchor="start" x="282.5" y="-484.3" font-family="Helvetica,sans-Serif" font-size="11.00" fill="#000000">field_id</text>
<polygon fill="none" stroke="#000000" points="382.5,-477.2 382.5,-499.2 499.5,-499.2 499.5,-477.2 382.5,-477.2"/>
<text text-anchor="start" x="385.5" y="-484.9" font-family="Helvetica,sans-Serif" font-size="11.00" fill="#000000">varchar[31]</text>
<polygon fill="none" stroke="#000000" points="262.5,-455.2 262.5,-477.2 382.5,-477.2 382.5,-455.2 262.5,-455.2"/>
<image xlink:href="../../images/foreignKeys.png" width="11px" height="12px" preserveAspectRatio="xMinYMin meet" x="267.5" y="-472.2"/>
<text text-anchor="start" x="282.5" y="-462.3" font-family="Helvetica,sans-Serif" font-size="11.00" fill="#000000">group_id</text>
<polygon fill="none" stroke="#000000" points="382.5,-455.2 382.5,-477.2 499.5,-477.2 499.5,-455.2 382.5,-455.2"/>
<text text-anchor="start" x="385.5" y="-462.9" font-family="Helvetica,sans-Serif" font-size="11.00" fill="#000000">varchar[31]</text>
<polygon fill="none" stroke="#000000" points="262.5,-433.2 262.5,-455.2 382.5,-455.2 382.5,-433.2 262.5,-433.2"/>
<text text-anchor="start" x="282.5" y="-440.3" font-family="Helvetica,sans-Serif" font-size="11.00" fill="#000000">title</text>
<polygon fill="none" stroke="#000000" points="382.5,-433.2 382.5,-455.2 499.5,-455.2 499.5,-433.2 382.5,-433.2"/>
<text text-anchor="start" x="385.0645" y="-440.9" font-family="Helvetica,sans-Serif" font-size="11.00" fill="#000000">mediumtext[16777215]</text>
<polygon fill="none" stroke="#000000" points="262.5,-411.2 262.5,-433.2 382.5,-433.2 382.5,-411.2 262.5,-411.2"/>
<image xlink:href="../../images/primaryKeys.png" width="11px" height="12px" preserveAspectRatio="xMinYMin meet" x="267.5" y="-428.2"/>
<text text-anchor="start" x="282.5" y="-418.3" font-family="Helvetica,sans-Serif" font-size="11.00" fill="#000000">seq</text>
<polygon fill="none" stroke="#000000" points="382.5,-411.2 382.5,-433.2 499.5,-433.2 499.5,-411.2 382.5,-411.2"/>
<text text-anchor="start" x="385.5" y="-418.9" font-family="Helvetica,sans-Serif" font-size="11.00" fill="#000000">int[10]</text>
<polygon fill="none" stroke="#000000" points="262.5,-389.2 262.5,-411.2 382.5,-411.2 382.5,-389.2 262.5,-389.2"/>
<text text-anchor="start" x="282.5" y="-396.3" font-family="Helvetica,sans-Serif" font-size="11.00" fill="#000000">data_type</text>
<polygon fill="none" stroke="#000000" points="382.5,-389.2 382.5,-411.2 499.5,-411.2 499.5,-389.2 382.5,-389.2"/>
<text text-anchor="start" x="385.5" y="-396.9" font-family="Helvetica,sans-Serif" font-size="11.00" fill="#000000">tinyint[3]</text>
<polygon fill="none" stroke="#000000" points="262.5,-367.2 262.5,-389.2 382.5,-389.2 382.5,-367.2 262.5,-367.2"/>
<text text-anchor="start" x="282.5" y="-374.3" font-family="Helvetica,sans-Serif" font-size="11.00" fill="#000000">uor</text>
<polygon fill="none" stroke="#000000" points="382.5,-367.2 382.5,-389.2 499.5,-389.2 499.5,-367.2 382.5,-367.2"/>
<text text-anchor="start" x="385.5" y="-374.9" font-family="Helvetica,sans-Serif" font-size="11.00" fill="#000000">boolean[3]</text>
<polygon fill="none" stroke="#000000" points="262.5,-345.2 262.5,-367.2 382.5,-367.2 382.5,-345.2 262.5,-345.2"/>
<text text-anchor="start" x="282.5" y="-352.3" font-family="Helvetica,sans-Serif" font-size="11.00" fill="#000000">fld_length</text>
<polygon fill="none" stroke="#000000" points="382.5,-345.2 382.5,-367.2 499.5,-367.2 499.5,-345.2 382.5,-345.2"/>
<text text-anchor="start" x="385.5" y="-352.9" font-family="Helvetica,sans-Serif" font-size="11.00" fill="#000000">int[10]</text>
<polygon fill="none" stroke="#000000" points="262.5,-323.2 262.5,-345.2 382.5,-345.2 382.5,-323.2 262.5,-323.2"/>
<text text-anchor="start" x="282.5" y="-330.3" font-family="Helvetica,sans-Serif" font-size="11.00" fill="#000000">max_length</text>
<polygon fill="none" stroke="#000000" points="382.5,-323.2 382.5,-345.2 499.5,-345.2 499.5,-323.2 382.5,-323.2"/>
<text text-anchor="start" x="385.5" y="-330.9" font-family="Helvetica,sans-Serif" font-size="11.00" fill="#000000">int[10]</text>
<polygon fill="none" stroke="#000000" points="262.5,-301.2 262.5,-323.2 382.5,-323.2 382.5,-301.2 262.5,-301.2"/>
<text text-anchor="start" x="282.5" y="-308.3" font-family="Helvetica,sans-Serif" font-size="11.00" fill="#000000">list_id</text>
<polygon fill="none" stroke="#000000" points="382.5,-301.2 382.5,-323.2 499.5,-323.2 499.5,-301.2 382.5,-301.2"/>
<text text-anchor="start" x="385.5" y="-308.9" font-family="Helvetica,sans-Serif" font-size="11.00" fill="#000000">varchar[100]</text>
<polygon fill="none" stroke="#000000" points="262.5,-279.2 262.5,-301.2 382.5,-301.2 382.5,-279.2 262.5,-279.2"/>
<text text-anchor="start" x="282.5" y="-286.3" font-family="Helvetica,sans-Serif" font-size="11.00" fill="#000000">titlecols</text>
<polygon fill="none" stroke="#000000" points="382.5,-279.2 382.5,-301.2 499.5,-301.2 499.5,-279.2 382.5,-279.2"/>
<text text-anchor="start" x="385.5" y="-286.9" font-family="Helvetica,sans-Serif" font-size="11.00" fill="#000000">tinyint[3]</text>
<polygon fill="none" stroke="#000000" points="262.5,-257.2 262.5,-279.2 382.5,-279.2 382.5,-257.2 262.5,-257.2"/>
<text text-anchor="start" x="282.5" y="-264.3" font-family="Helvetica,sans-Serif" font-size="11.00" fill="#000000">datacols</text>
<polygon fill="none" stroke="#000000" points="382.5,-257.2 382.5,-279.2 499.5,-279.2 499.5,-257.2 382.5,-257.2"/>
<text text-anchor="start" x="385.5" y="-264.9" font-family="Helvetica,sans-Serif" font-size="11.00" fill="#000000">tinyint[3]</text>
<polygon fill="none" stroke="#000000" points="262.5,-235.2 262.5,-257.2 382.5,-257.2 382.5,-235.2 262.5,-235.2"/>
<text text-anchor="start" x="282.5" y="-242.3" font-family="Helvetica,sans-Serif" font-size="11.00" fill="#000000">default_value</text>
<polygon fill="none" stroke="#000000" points="382.5,-235.2 382.5,-257.2 499.5,-257.2 499.5,-235.2 382.5,-235.2"/>
<text text-anchor="start" x="385.5" y="-242.9" font-family="Helvetica,sans-Serif" font-size="11.00" fill="#000000">varchar[255]</text>
<polygon fill="none" stroke="#000000" points="262.5,-213.2 262.5,-235.2 382.5,-235.2 382.5,-213.2 262.5,-213.2"/>
<text text-anchor="start" x="282.5" y="-220.3" font-family="Helvetica,sans-Serif" font-size="11.00" fill="#000000">edit_options</text>
<polygon fill="none" stroke="#000000" points="382.5,-213.2 382.5,-235.2 499.5,-235.2 499.5,-213.2 382.5,-213.2"/>
<text text-anchor="start" x="385.5" y="-220.9" font-family="Helvetica,sans-Serif" font-size="11.00" fill="#000000">varchar[36]</text>
<polygon fill="none" stroke="#000000" points="262.5,-191.2 262.5,-213.2 382.5,-213.2 382.5,-191.2 262.5,-191.2"/>
<text text-anchor="start" x="282.5" y="-198.3" font-family="Helvetica,sans-Serif" font-size="11.00" fill="#000000">description</text>
<polygon fill="none" stroke="#000000" points="382.5,-191.2 382.5,-213.2 499.5,-213.2 499.5,-191.2 382.5,-191.2"/>
<text text-anchor="start" x="385.0645" y="-198.9" font-family="Helvetica,sans-Serif" font-size="11.00" fill="#000000">mediumtext[16777215]</text>
<polygon fill="none" stroke="#000000" points="262.5,-169.2 262.5,-191.2 382.5,-191.2 382.5,-169.2 262.5,-169.2"/>
<text text-anchor="start" x="282.5" y="-176.3" font-family="Helvetica,sans-Serif" font-size="11.00" fill="#000000">fld_rows</text>
<polygon fill="none" stroke="#000000" points="382.5,-169.2 382.5,-191.2 499.5,-191.2 499.5,-169.2 382.5,-169.2"/>
<text text-anchor="start" x="385.5" y="-176.9" font-family="Helvetica,sans-Serif" font-size="11.00" fill="#000000">int[10]</text>
<polygon fill="none" stroke="#000000" points="262.5,-147.2 262.5,-169.2 382.5,-169.2 382.5,-147.2 262.5,-147.2"/>
<text text-anchor="start" x="282.5" y="-154.3" font-family="Helvetica,sans-Serif" font-size="11.00" fill="#000000">list_backup_id</text>
<polygon fill="none" stroke="#000000" points="382.5,-147.2 382.5,-169.2 499.5,-169.2 499.5,-147.2 382.5,-147.2"/>
<text text-anchor="start" x="385.5" y="-154.9" font-family="Helvetica,sans-Serif" font-size="11.00" fill="#000000">varchar[100]</text>
<polygon fill="none" stroke="#000000" points="262.5,-125.2 262.5,-147.2 382.5,-147.2 382.5,-125.2 262.5,-125.2"/>
<text text-anchor="start" x="282.5" y="-132.3" font-family="Helvetica,sans-Serif" font-size="11.00" fill="#000000">source</text>
<polygon fill="none" stroke="#000000" points="382.5,-125.2 382.5,-147.2 499.5,-147.2 499.5,-125.2 382.5,-125.2"/>
<text text-anchor="start" x="385.5" y="-132.9" font-family="Helvetica,sans-Serif" font-size="11.00" fill="#000000">char[1]</text>
<polygon fill="none" stroke="#000000" points="262.5,-103.2 262.5,-125.2 382.5,-125.2 382.5,-103.2 262.5,-103.2"/>
<text text-anchor="start" x="282.5" y="-110.3" font-family="Helvetica,sans-Serif" font-size="11.00" fill="#000000">conditions</text>
<polygon fill="none" stroke="#000000" points="382.5,-103.2 382.5,-125.2 499.5,-125.2 499.5,-103.2 382.5,-103.2"/>
<text text-anchor="start" x="385.0645" y="-110.9" font-family="Helvetica,sans-Serif" font-size="11.00" fill="#000000">mediumtext[16777215]</text>
<polygon fill="none" stroke="#000000" points="262.5,-81.2 262.5,-103.2 382.5,-103.2 382.5,-81.2 262.5,-81.2"/>
<text text-anchor="start" x="282.5" y="-88.3" font-family="Helvetica,sans-Serif" font-size="11.00" fill="#000000">validation</text>
<polygon fill="none" stroke="#000000" points="382.5,-81.2 382.5,-103.2 499.5,-103.2 499.5,-81.2 382.5,-81.2"/>
<text text-anchor="start" x="385.5" y="-88.9" font-family="Helvetica,sans-Serif" font-size="11.00" fill="#000000">varchar[100]</text>
<polygon fill="none" stroke="#000000" points="262.5,-59.2 262.5,-81.2 382.5,-81.2 382.5,-59.2 262.5,-59.2"/>
<text text-anchor="start" x="282.5" y="-66.3" font-family="Helvetica,sans-Serif" font-size="11.00" fill="#000000">codes</text>
<polygon fill="none" stroke="#000000" points="382.5,-59.2 382.5,-81.2 499.5,-81.2 499.5,-59.2 382.5,-59.2"/>
<text text-anchor="start" x="385.5" y="-66.9" font-family="Helvetica,sans-Serif" font-size="11.00" fill="#000000">varchar[255]</text>
<polygon fill="#ffffff" stroke="transparent" points="262.5,-40.2 262.5,-59.2 326.5,-59.2 326.5,-40.2 262.5,-40.2"/>
<polygon fill="none" stroke="#000000" points="262.5,-40.2 262.5,-59.2 326.5,-59.2 326.5,-40.2 262.5,-40.2"/>
<text text-anchor="start" x="265.5" y="-46.3" font-family="Helvetica,sans-Serif" font-size="11.00" fill="#000000">&lt; 2</text>
<polygon fill="#ffffff" stroke="transparent" points="326.5,-40.2 326.5,-59.2 382.5,-59.2 382.5,-40.2 326.5,-40.2"/>
<polygon fill="none" stroke="#000000" points="326.5,-40.2 326.5,-59.2 382.5,-59.2 382.5,-40.2 326.5,-40.2"/>
<text text-anchor="start" x="373.3862" y="-46.3" font-family="Helvetica,sans-Serif" font-size="11.00" fill="#000000"> &#160;</text>
<polygon fill="#ffffff" stroke="transparent" points="382.5,-40.2 382.5,-59.2 499.5,-59.2 499.5,-40.2 382.5,-40.2"/>
<polygon fill="none" stroke="#000000" points="382.5,-40.2 382.5,-59.2 499.5,-59.2 499.5,-40.2 382.5,-40.2"/>
<text text-anchor="start" x="480.9053" y="-46.3" font-family="Helvetica,sans-Serif" font-size="11.00" fill="#000000">3 &gt;</text>
<polygon fill="none" stroke="#000000" stroke-width="2" points="261,-39.2 261,-545.2 500,-545.2 500,-39.2 261,-39.2"/>
</a>
</g>
</g>
<!-- layout_group_properties -->
<g id="node2" class="node">
<title>layout_group_properties</title>
<g id="a_node2"><a xlink:href="../../tables/layout_group_properties.html" xlink:title="layout_group_properties" target="_top">
<polygon fill="#ffffff" stroke="transparent" points="8,-428.7 8,-533.7 211,-533.7 211,-428.7 8,-428.7"/>
<polygon fill="#f5f5f5" stroke="transparent" points="8.5,-510.2 8.5,-533.2 211.5,-533.2 211.5,-510.2 8.5,-510.2"/>
<polygon fill="none" stroke="#000000" points="8.5,-510.2 8.5,-533.2 211.5,-533.2 211.5,-510.2 8.5,-510.2"/>
<text text-anchor="start" x="13.5" y="-518.8" font-family="Helvetica,sans-Serif" font-weight="bold" font-size="11.00" fill="#000000">layout_group_properties</text>
<text text-anchor="start" x="177.0219" y="-518.3" font-family="Helvetica,sans-Serif" font-size="11.00" fill="#000000">[table]</text>
<polygon fill="none" stroke="#000000" points="8.5,-488.2 8.5,-510.2 211.5,-510.2 211.5,-488.2 8.5,-488.2"/>
<image xlink:href="../../images/primaryKeys.png" width="11px" height="12px" preserveAspectRatio="xMinYMin meet" x="13.5" y="-505.2"/>
<text text-anchor="start" x="37.5" y="-495.3" font-family="Helvetica,sans-Serif" font-size="11.00" fill="#000000">grp_form_id</text>
<polygon fill="none" stroke="#000000" points="8.5,-466.2 8.5,-488.2 211.5,-488.2 211.5,-466.2 8.5,-466.2"/>
<image xlink:href="../../images/primaryKeys.png" width="11px" height="12px" preserveAspectRatio="xMinYMin meet" x="13.5" y="-483.2"/>
<text text-anchor="start" x="37.5" y="-473.3" font-family="Helvetica,sans-Serif" font-size="11.00" fill="#000000">grp_group_id</text>
<polygon fill="none" stroke="#000000" points="8.5,-447.2 8.5,-466.2 211.5,-466.2 211.5,-447.2 8.5,-447.2"/>
<text text-anchor="start" x="11.5" y="-453.3" font-family="Helvetica,sans-Serif" font-size="11.00" fill="#000000">...</text>
<polygon fill="#ffffff" stroke="transparent" points="8.5,-428.2 8.5,-447.2 99.5,-447.2 99.5,-428.2 8.5,-428.2"/>
<polygon fill="none" stroke="#000000" points="8.5,-428.2 8.5,-447.2 99.5,-447.2 99.5,-428.2 8.5,-428.2"/>
<text text-anchor="start" x="11.5" y="-434.3" font-family="Helvetica,sans-Serif" font-size="11.00" fill="#000000"> &#160;</text>
<polygon fill="#ffffff" stroke="transparent" points="99.5,-428.2 99.5,-447.2 150.5,-447.2 150.5,-428.2 99.5,-428.2"/>
<polygon fill="none" stroke="#000000" points="99.5,-428.2 99.5,-447.2 150.5,-447.2 150.5,-428.2 99.5,-428.2"/>
<text text-anchor="start" x="141.3862" y="-434.3" font-family="Helvetica,sans-Serif" font-size="11.00" fill="#000000"> &#160;</text>
<polygon fill="#ffffff" stroke="transparent" points="150.5,-428.2 150.5,-447.2 211.5,-447.2 211.5,-428.2 150.5,-428.2"/>
<polygon fill="none" stroke="#000000" points="150.5,-428.2 150.5,-447.2 211.5,-447.2 211.5,-428.2 150.5,-428.2"/>
<text text-anchor="start" x="192.9053" y="-434.3" font-family="Helvetica,sans-Serif" font-size="11.00" fill="#000000">2 &gt;</text>
</a>
</g>
</g>
<!-- layout_options&#45;&gt;layout_group_properties -->
<g id="edge1" class="edge">
<title>layout_options:w&#45;&gt;layout_group_properties:e</title>
<path fill="none" stroke="#000000" d="M248.0097,-508.4813C235.8398,-505.3875 228.8909,-499.2 211.5,-499.2"/>
<polygon fill="#000000" stroke="#000000" points="254.5557,-509.2576 262.0759,-513.7749 258.5278,-509.7288 262.5,-510.2 262.5,-510.2 262.5,-510.2 258.5278,-509.7288 262.9241,-506.6251 254.5557,-509.2576 254.5557,-509.2576"/>
<ellipse fill="none" stroke="#000000" cx="251.378" cy="-508.8807" rx="3.2" ry="3.2"/>
</g>
<!-- layout_options&#45;&gt;layout_group_properties -->
<g id="edge2" class="edge">
<title>layout_options:w&#45;&gt;layout_group_properties:e</title>
<path fill="none" stroke="#000000" d="M248.0097,-467.9188C235.8398,-471.0125 228.8909,-477.2 211.5,-477.2"/>
<polygon fill="#000000" stroke="#000000" points="254.5557,-467.1424 262.9241,-469.7749 258.5278,-466.6712 262.5,-466.2 262.5,-466.2 262.5,-466.2 258.5278,-466.6712 262.0759,-462.6251 254.5557,-467.1424 254.5557,-467.1424"/>
<ellipse fill="none" stroke="#000000" cx="251.378" cy="-467.5193" rx="3.2" ry="3.2"/>
</g>
<!-- lbf_data -->
<g id="node3" class="node">
<title>lbf_data</title>
<g id="a_node3"><a xlink:href="../../tables/lbf_data.html" xlink:title="lbf_data" target="_top">
<polygon fill="#ffffff" stroke="transparent" points="583,-565.7 583,-670.7 676,-670.7 676,-565.7 583,-565.7"/>
<polygon fill="#f5f5f5" stroke="transparent" points="583.5,-647.2 583.5,-670.2 676.5,-670.2 676.5,-647.2 583.5,-647.2"/>
<polygon fill="none" stroke="#000000" points="583.5,-647.2 583.5,-670.2 676.5,-670.2 676.5,-647.2 583.5,-647.2"/>
<text text-anchor="start" x="588.5" y="-655.8" font-family="Helvetica,sans-Serif" font-weight="bold" font-size="11.00" fill="#000000">lbf_data</text>
<text text-anchor="start" x="642.0219" y="-655.3" font-family="Helvetica,sans-Serif" font-size="11.00" fill="#000000">[table]</text>
<polygon fill="none" stroke="#000000" points="583.5,-625.2 583.5,-647.2 676.5,-647.2 676.5,-625.2 583.5,-625.2"/>
<image xlink:href="../../images/primaryKeys.png" width="11px" height="12px" preserveAspectRatio="xMinYMin meet" x="588.5" y="-642.2"/>
<text text-anchor="start" x="603.5" y="-632.3" font-family="Helvetica,sans-Serif" font-size="11.00" fill="#000000">form_id</text>
<polygon fill="none" stroke="#000000" points="583.5,-603.2 583.5,-625.2 676.5,-625.2 676.5,-603.2 583.5,-603.2"/>
<image xlink:href="../../images/primaryKeys.png" width="11px" height="12px" preserveAspectRatio="xMinYMin meet" x="588.5" y="-620.2"/>
<text text-anchor="start" x="603.5" y="-610.3" font-family="Helvetica,sans-Serif" font-size="11.00" fill="#000000">field_id</text>
<polygon fill="none" stroke="#000000" points="583.5,-584.2 583.5,-603.2 676.5,-603.2 676.5,-584.2 583.5,-584.2"/>
<text text-anchor="start" x="586.5" y="-590.3" font-family="Helvetica,sans-Serif" font-size="11.00" fill="#000000">...</text>
<polygon fill="#ffffff" stroke="transparent" points="583.5,-565.2 583.5,-584.2 628.5,-584.2 628.5,-565.2 583.5,-565.2"/>
<polygon fill="none" stroke="#000000" points="583.5,-565.2 583.5,-584.2 628.5,-584.2 628.5,-565.2 583.5,-565.2"/>
<text text-anchor="start" x="586.5" y="-571.3" font-family="Helvetica,sans-Serif" font-size="11.00" fill="#000000">&lt; 2</text>
<polygon fill="#ffffff" stroke="transparent" points="628.5,-565.2 628.5,-584.2 652.5,-584.2 652.5,-565.2 628.5,-565.2"/>
<polygon fill="none" stroke="#000000" points="628.5,-565.2 628.5,-584.2 652.5,-584.2 652.5,-565.2 628.5,-565.2"/>
<text text-anchor="start" x="643.3862" y="-571.3" font-family="Helvetica,sans-Serif" font-size="11.00" fill="#000000"> &#160;</text>
<polygon fill="#ffffff" stroke="transparent" points="652.5,-565.2 652.5,-584.2 676.5,-584.2 676.5,-565.2 652.5,-565.2"/>
<polygon fill="none" stroke="#000000" points="652.5,-565.2 652.5,-584.2 676.5,-584.2 676.5,-565.2 652.5,-565.2"/>
<text text-anchor="start" x="667.3862" y="-571.3" font-family="Helvetica,sans-Serif" font-size="11.00" fill="#000000"> &#160;</text>
</a>
</g>
</g>
<!-- lbf_data&#45;&gt;layout_options -->
<g id="edge3" class="edge">
<title>lbf_data:w&#45;&gt;layout_options:e</title>
<path fill="none" stroke="#000000" d="M569.2918,-611.0393C553.6599,-602.2706 556.4736,-576.857 542,-555.2 522.4061,-525.8813 534.7634,-488.2 499.5,-488.2"/>
<polygon fill="#000000" stroke="#000000" points="575.6909,-612.4628 582.7183,-617.7141 579.5954,-613.3314 583.5,-614.2 583.5,-614.2 583.5,-614.2 579.5954,-613.3314 584.2817,-610.6859 575.6909,-612.4628 575.6909,-612.4628"/>
<ellipse fill="none" stroke="#000000" cx="572.5672" cy="-611.7679" rx="3.2" ry="3.2"/>
</g>
<!-- lbt_data -->
<g id="node4" class="node">
<title>lbt_data</title>
<g id="a_node4"><a xlink:href="../../tables/lbt_data.html" xlink:title="lbt_data" target="_top">
<polygon fill="#ffffff" stroke="transparent" points="583,-439.7 583,-544.7 676,-544.7 676,-439.7 583,-439.7"/>
<polygon fill="#f5f5f5" stroke="transparent" points="583.5,-521.2 583.5,-544.2 676.5,-544.2 676.5,-521.2 583.5,-521.2"/>
<polygon fill="none" stroke="#000000" points="583.5,-521.2 583.5,-544.2 676.5,-544.2 676.5,-521.2 583.5,-521.2"/>
<text text-anchor="start" x="588.5" y="-529.8" font-family="Helvetica,sans-Serif" font-weight="bold" font-size="11.00" fill="#000000">lbt_data</text>
<text text-anchor="start" x="642.0219" y="-529.3" font-family="Helvetica,sans-Serif" font-size="11.00" fill="#000000">[table]</text>
<polygon fill="none" stroke="#000000" points="583.5,-499.2 583.5,-521.2 676.5,-521.2 676.5,-499.2 583.5,-499.2"/>
<image xlink:href="../../images/primaryKeys.png" width="11px" height="12px" preserveAspectRatio="xMinYMin meet" x="588.5" y="-516.2"/>
<text text-anchor="start" x="603.5" y="-506.3" font-family="Helvetica,sans-Serif" font-size="11.00" fill="#000000">form_id</text>
<polygon fill="none" stroke="#000000" points="583.5,-477.2 583.5,-499.2 676.5,-499.2 676.5,-477.2 583.5,-477.2"/>
<image xlink:href="../../images/primaryKeys.png" width="11px" height="12px" preserveAspectRatio="xMinYMin meet" x="588.5" y="-494.2"/>
<text text-anchor="start" x="603.5" y="-484.3" font-family="Helvetica,sans-Serif" font-size="11.00" fill="#000000">field_id</text>
<polygon fill="none" stroke="#000000" points="583.5,-458.2 583.5,-477.2 676.5,-477.2 676.5,-458.2 583.5,-458.2"/>
<text text-anchor="start" x="586.5" y="-464.3" font-family="Helvetica,sans-Serif" font-size="11.00" fill="#000000">...</text>
<polygon fill="#ffffff" stroke="transparent" points="583.5,-439.2 583.5,-458.2 628.5,-458.2 628.5,-439.2 583.5,-439.2"/>
<polygon fill="none" stroke="#000000" points="583.5,-439.2 583.5,-458.2 628.5,-458.2 628.5,-439.2 583.5,-439.2"/>
<text text-anchor="start" x="586.5" y="-445.3" font-family="Helvetica,sans-Serif" font-size="11.00" fill="#000000">&lt; 2</text>
<polygon fill="#ffffff" stroke="transparent" points="628.5,-439.2 628.5,-458.2 652.5,-458.2 652.5,-439.2 628.5,-439.2"/>
<polygon fill="none" stroke="#000000" points="628.5,-439.2 628.5,-458.2 652.5,-458.2 652.5,-439.2 628.5,-439.2"/>
<text text-anchor="start" x="643.3862" y="-445.3" font-family="Helvetica,sans-Serif" font-size="11.00" fill="#000000"> &#160;</text>
<polygon fill="#ffffff" stroke="transparent" points="652.5,-439.2 652.5,-458.2 676.5,-458.2 676.5,-439.2 652.5,-439.2"/>
<polygon fill="none" stroke="#000000" points="652.5,-439.2 652.5,-458.2 676.5,-458.2 676.5,-439.2 652.5,-439.2"/>
<text text-anchor="start" x="667.3862" y="-445.3" font-family="Helvetica,sans-Serif" font-size="11.00" fill="#000000"> &#160;</text>
</a>
</g>
</g>
<!-- lbt_data&#45;&gt;layout_options -->
<g id="edge4" class="edge">
<title>lbt_data:w&#45;&gt;layout_options:e</title>
<path fill="none" stroke="#000000" d="M568.8981,-488.2C542.8839,-488.2 531.4375,-488.2 499.5,-488.2"/>
<polygon fill="#000000" stroke="#000000" points="575.5,-488.2001 583.5,-491.8 579.5,-488.2 583.5,-488.2 583.5,-488.2 583.5,-488.2 579.5,-488.2 583.5,-484.6 575.5,-488.2001 575.5,-488.2001"/>
<ellipse fill="none" stroke="#000000" cx="572.3" cy="-488.2001" rx="3.2" ry="3.2"/>
</g>
<!-- shared_attributes -->
<g id="node5" class="node">
<title>shared_attributes</title>
<g id="a_node5"><a xlink:href="../../tables/shared_attributes.html" xlink:title="shared_attributes" target="_top">
<polygon fill="#ffffff" stroke="transparent" points="550,-269.7 550,-418.7 709,-418.7 709,-269.7 550,-269.7"/>
<polygon fill="#f5f5f5" stroke="transparent" points="550.5,-395.2 550.5,-418.2 709.5,-418.2 709.5,-395.2 550.5,-395.2"/>
<polygon fill="none" stroke="#000000" points="550.5,-395.2 550.5,-418.2 709.5,-418.2 709.5,-395.2 550.5,-395.2"/>
<text text-anchor="start" x="555.5" y="-403.8" font-family="Helvetica,sans-Serif" font-weight="bold" font-size="11.00" fill="#000000">shared_attributes</text>
<text text-anchor="start" x="675.0219" y="-403.3" font-family="Helvetica,sans-Serif" font-size="11.00" fill="#000000">[table]</text>
<polygon fill="none" stroke="#000000" points="550.5,-373.2 550.5,-395.2 709.5,-395.2 709.5,-373.2 550.5,-373.2"/>
<image xlink:href="../../images/primaryKeys.png" width="11px" height="12px" preserveAspectRatio="xMinYMin meet" x="555.5" y="-390.2"/>
<text text-anchor="start" x="579.5" y="-380.3" font-family="Helvetica,sans-Serif" font-size="11.00" fill="#000000">pid</text>
<polygon fill="none" stroke="#000000" points="550.5,-351.2 550.5,-373.2 709.5,-373.2 709.5,-351.2 550.5,-351.2"/>
<image xlink:href="../../images/primaryKeys.png" width="11px" height="12px" preserveAspectRatio="xMinYMin meet" x="555.5" y="-368.2"/>
<text text-anchor="start" x="579.5" y="-358.3" font-family="Helvetica,sans-Serif" font-size="11.00" fill="#000000">encounter</text>
<polygon fill="none" stroke="#000000" points="550.5,-329.2 550.5,-351.2 709.5,-351.2 709.5,-329.2 550.5,-329.2"/>
<image xlink:href="../../images/primaryKeys.png" width="11px" height="12px" preserveAspectRatio="xMinYMin meet" x="555.5" y="-346.2"/>
<text text-anchor="start" x="579.5" y="-336.3" font-family="Helvetica,sans-Serif" font-size="11.00" fill="#000000">field_id</text>
<polygon fill="none" stroke="#000000" points="550.5,-307.2 550.5,-329.2 709.5,-329.2 709.5,-307.2 550.5,-307.2"/>
<image xlink:href="../../images/foreignKeys.png" width="11px" height="12px" preserveAspectRatio="xMinYMin meet" x="555.5" y="-324.2"/>
<text text-anchor="start" x="579.5" y="-314.3" font-family="Helvetica,sans-Serif" font-size="11.00" fill="#000000">user_id</text>
<polygon fill="none" stroke="#000000" points="550.5,-288.2 550.5,-307.2 709.5,-307.2 709.5,-288.2 550.5,-288.2"/>
<text text-anchor="start" x="553.5" y="-294.3" font-family="Helvetica,sans-Serif" font-size="11.00" fill="#000000">...</text>
<polygon fill="#ffffff" stroke="transparent" points="550.5,-269.2 550.5,-288.2 628.5,-288.2 628.5,-269.2 550.5,-269.2"/>
<polygon fill="none" stroke="#000000" points="550.5,-269.2 550.5,-288.2 628.5,-288.2 628.5,-269.2 550.5,-269.2"/>
<text text-anchor="start" x="553.5" y="-275.3" font-family="Helvetica,sans-Serif" font-size="11.00" fill="#000000">&lt; 4</text>
<polygon fill="#ffffff" stroke="transparent" points="628.5,-269.2 628.5,-288.2 668.5,-288.2 668.5,-269.2 628.5,-269.2"/>
<polygon fill="none" stroke="#000000" points="628.5,-269.2 628.5,-288.2 668.5,-288.2 668.5,-269.2 628.5,-269.2"/>
<text text-anchor="start" x="659.3862" y="-275.3" font-family="Helvetica,sans-Serif" font-size="11.00" fill="#000000"> &#160;</text>
<polygon fill="#ffffff" stroke="transparent" points="668.5,-269.2 668.5,-288.2 709.5,-288.2 709.5,-269.2 668.5,-269.2"/>
<polygon fill="none" stroke="#000000" points="668.5,-269.2 668.5,-288.2 709.5,-288.2 709.5,-269.2 668.5,-269.2"/>
<text text-anchor="start" x="700.3862" y="-275.3" font-family="Helvetica,sans-Serif" font-size="11.00" fill="#000000"> &#160;</text>
</a>
</g>
</g>
<!-- shared_attributes&#45;&gt;layout_options -->
<g id="edge5" class="edge">
<title>shared_attributes:w&#45;&gt;layout_options:e</title>
<path fill="none" stroke="#000000" d="M536.1212,-343.1564C494.6199,-364.0155 563.2306,-488.2 499.5,-488.2"/>
<polygon fill="#000000" stroke="#000000" points="542.6639,-341.8112 551.225,-343.7262 546.582,-341.0056 550.5,-340.2 550.5,-340.2 550.5,-340.2 546.582,-341.0056 549.775,-336.6738 542.6639,-341.8112 542.6639,-341.8112"/>
<ellipse fill="none" stroke="#000000" cx="539.5295" cy="-342.4557" rx="3.2" ry="3.2"/>
</g>
</g>
</svg>
