<?xml version="1.0" encoding="UTF-8" standalone="no"?>
<!DOCTYPE svg PUBLIC "-//W3C//DTD SVG 1.1//EN"
 "http://www.w3.org/Graphics/SVG/1.1/DTD/svg11.dtd">
<!-- Generated by graphviz version 2.40.1 (20161225.0304)
 -->
<!-- Title: twoDegreesRelationshipsDiagram Pages: 1 -->
<svg width="640pt" height="605pt"
 viewBox="0.00 0.00 640.00 604.70" xmlns="http://www.w3.org/2000/svg" xmlns:xlink="http://www.w3.org/1999/xlink">
<g id="graph0" class="graph" transform="scale(1 1) rotate(0) translate(4 600.7)">
<title>twoDegreesRelationshipsDiagram</title>
<polygon fill="#ffffff" stroke="transparent" points="-4,4 -4,-600.7 636,-600.7 636,4 -4,4"/>
<text text-anchor="middle" x="72.4936" y="-7.3" font-family="Helvetica,sans-Serif" font-size="11.00" fill="#000000">Generated by SchemaSpy</text>
<!-- layout_options -->
<g id="node1" class="node">
<title>layout_options</title>
<g id="a_node1"><a xlink:href="../../tables/layout_options.html" xlink:title="layout_options" target="_top">
<polygon fill="#ffffff" stroke="transparent" points="303,-384.7 303,-533.7 430,-533.7 430,-384.7 303,-384.7"/>
<polygon fill="#f5f5f5" stroke="transparent" points="303.5,-510.2 303.5,-533.2 430.5,-533.2 430.5,-510.2 303.5,-510.2"/>
<polygon fill="none" stroke="#000000" points="303.5,-510.2 303.5,-533.2 430.5,-533.2 430.5,-510.2 303.5,-510.2"/>
<text text-anchor="start" x="308.5" y="-518.8" font-family="Helvetica,sans-Serif" font-weight="bold" font-size="11.00" fill="#000000">layout_options</text>
<text text-anchor="start" x="396.0219" y="-518.3" font-family="Helvetica,sans-Serif" font-size="11.00" fill="#000000">[table]</text>
<polygon fill="none" stroke="#000000" points="303.5,-488.2 303.5,-510.2 430.5,-510.2 430.5,-488.2 303.5,-488.2"/>
<image xlink:href="../../images/primaryKeys.png" width="11px" height="12px" preserveAspectRatio="xMinYMin meet" x="308.5" y="-505.2"/>
<text text-anchor="start" x="332.5" y="-495.3" font-family="Helvetica,sans-Serif" font-size="11.00" fill="#000000">form_id</text>
<polygon fill="none" stroke="#000000" points="303.5,-466.2 303.5,-488.2 430.5,-488.2 430.5,-466.2 303.5,-466.2"/>
<image xlink:href="../../images/primaryKeys.png" width="11px" height="12px" preserveAspectRatio="xMinYMin meet" x="308.5" y="-483.2"/>
<text text-anchor="start" x="332.5" y="-473.3" font-family="Helvetica,sans-Serif" font-size="11.00" fill="#000000">field_id</text>
<polygon fill="none" stroke="#000000" points="303.5,-444.2 303.5,-466.2 430.5,-466.2 430.5,-444.2 303.5,-444.2"/>
<image xlink:href="../../images/foreignKeys.png" width="11px" height="12px" preserveAspectRatio="xMinYMin meet" x="308.5" y="-461.2"/>
<text text-anchor="start" x="332.5" y="-451.3" font-family="Helvetica,sans-Serif" font-size="11.00" fill="#000000">group_id</text>
<polygon fill="none" stroke="#000000" points="303.5,-422.2 303.5,-444.2 430.5,-444.2 430.5,-422.2 303.5,-422.2"/>
<image xlink:href="../../images/primaryKeys.png" width="11px" height="12px" preserveAspectRatio="xMinYMin meet" x="308.5" y="-439.2"/>
<text text-anchor="start" x="332.5" y="-429.3" font-family="Helvetica,sans-Serif" font-size="11.00" fill="#000000">seq</text>
<polygon fill="none" stroke="#000000" points="303.5,-403.2 303.5,-422.2 430.5,-422.2 430.5,-403.2 303.5,-403.2"/>
<text text-anchor="start" x="306.5" y="-409.3" font-family="Helvetica,sans-Serif" font-size="11.00" fill="#000000">...</text>
<polygon fill="#ffffff" stroke="transparent" points="303.5,-384.2 303.5,-403.2 360.5,-403.2 360.5,-384.2 303.5,-384.2"/>
<polygon fill="none" stroke="#000000" points="303.5,-384.2 303.5,-403.2 360.5,-403.2 360.5,-384.2 303.5,-384.2"/>
<text text-anchor="start" x="306.5" y="-390.3" font-family="Helvetica,sans-Serif" font-size="11.00" fill="#000000">&lt; 2</text>
<polygon fill="#ffffff" stroke="transparent" points="360.5,-384.2 360.5,-403.2 390.5,-403.2 390.5,-384.2 360.5,-384.2"/>
<polygon fill="none" stroke="#000000" points="360.5,-384.2 360.5,-403.2 390.5,-403.2 390.5,-384.2 360.5,-384.2"/>
<text text-anchor="start" x="381.3862" y="-390.3" font-family="Helvetica,sans-Serif" font-size="11.00" fill="#000000"> &#160;</text>
<polygon fill="#ffffff" stroke="transparent" points="390.5,-384.2 390.5,-403.2 430.5,-403.2 430.5,-384.2 390.5,-384.2"/>
<polygon fill="none" stroke="#000000" points="390.5,-384.2 390.5,-403.2 430.5,-403.2 430.5,-384.2 390.5,-384.2"/>
<text text-anchor="start" x="411.9053" y="-390.3" font-family="Helvetica,sans-Serif" font-size="11.00" fill="#000000">3 &gt;</text>
</a>
</g>
</g>
<!-- layout_group_properties -->
<g id="node2" class="node">
<title>layout_group_properties</title>
<g id="a_node2"><a xlink:href="../../tables/layout_group_properties.html" xlink:title="layout_group_properties" target="_top">
<polygon fill="#ffffff" stroke="transparent" points="8,-38.2 8,-524.2 254,-524.2 254,-38.2 8,-38.2"/>
<polygon fill="#f5f5f5" stroke="transparent" points="10,-499.2 10,-522.2 252,-522.2 252,-499.2 10,-499.2"/>
<polygon fill="none" stroke="#000000" points="10,-499.2 10,-522.2 252,-522.2 252,-499.2 10,-499.2"/>
<text text-anchor="start" x="15" y="-507.8" font-family="Helvetica,sans-Serif" font-weight="bold" font-size="11.00" fill="#000000">layout_group_properties</text>
<text text-anchor="start" x="217.0437" y="-507.3" font-family="Helvetica,sans-Serif" font-size="11.00" fill="#000000">[table]</text>
<polygon fill="none" stroke="#000000" points="10,-477.2 10,-499.2 177,-499.2 177,-477.2 10,-477.2"/>
<image xlink:href="../../images/primaryKeys.png" width="11px" height="12px" preserveAspectRatio="xMinYMin meet" x="15" y="-494.2"/>
<text text-anchor="start" x="30" y="-484.3" font-family="Helvetica,sans-Serif" font-size="11.00" fill="#000000">grp_form_id</text>
<polygon fill="none" stroke="#000000" points="177,-477.2 177,-499.2 252,-499.2 252,-477.2 177,-477.2"/>
<text text-anchor="start" x="180" y="-484.9" font-family="Helvetica,sans-Serif" font-size="11.00" fill="#000000">varchar[31]</text>
<polygon fill="none" stroke="#000000" points="10,-455.2 10,-477.2 177,-477.2 177,-455.2 10,-455.2"/>
<image xlink:href="../../images/primaryKeys.png" width="11px" height="12px" preserveAspectRatio="xMinYMin meet" x="15" y="-472.2"/>
<text text-anchor="start" x="30" y="-462.3" font-family="Helvetica,sans-Serif" font-size="11.00" fill="#000000">grp_group_id</text>
<polygon fill="none" stroke="#000000" points="177,-455.2 177,-477.2 252,-477.2 252,-455.2 177,-455.2"/>
<text text-anchor="start" x="180" y="-462.9" font-family="Helvetica,sans-Serif" font-size="11.00" fill="#000000">varchar[31]</text>
<polygon fill="none" stroke="#000000" points="10,-433.2 10,-455.2 177,-455.2 177,-433.2 10,-433.2"/>
<text text-anchor="start" x="30" y="-440.3" font-family="Helvetica,sans-Serif" font-size="11.00" fill="#000000">grp_title</text>
<polygon fill="none" stroke="#000000" points="177,-433.2 177,-455.2 252,-455.2 252,-433.2 177,-433.2"/>
<text text-anchor="start" x="180" y="-440.9" font-family="Helvetica,sans-Serif" font-size="11.00" fill="#000000">varchar[63]</text>
<polygon fill="none" stroke="#000000" points="10,-411.2 10,-433.2 177,-433.2 177,-411.2 10,-411.2"/>
<text text-anchor="start" x="30" y="-418.3" font-family="Helvetica,sans-Serif" font-size="11.00" fill="#000000">grp_subtitle</text>
<polygon fill="none" stroke="#000000" points="177,-411.2 177,-433.2 252,-433.2 252,-411.2 177,-411.2"/>
<text text-anchor="start" x="180" y="-418.9" font-family="Helvetica,sans-Serif" font-size="11.00" fill="#000000">varchar[63]</text>
<polygon fill="none" stroke="#000000" points="10,-389.2 10,-411.2 177,-411.2 177,-389.2 10,-389.2"/>
<text text-anchor="start" x="30" y="-396.3" font-family="Helvetica,sans-Serif" font-size="11.00" fill="#000000">grp_mapping</text>
<polygon fill="none" stroke="#000000" points="177,-389.2 177,-411.2 252,-411.2 252,-389.2 177,-389.2"/>
<text text-anchor="start" x="180" y="-396.9" font-family="Helvetica,sans-Serif" font-size="11.00" fill="#000000">varchar[31]</text>
<polygon fill="none" stroke="#000000" points="10,-367.2 10,-389.2 177,-389.2 177,-367.2 10,-367.2"/>
<text text-anchor="start" x="30" y="-374.3" font-family="Helvetica,sans-Serif" font-size="11.00" fill="#000000">grp_seq</text>
<polygon fill="none" stroke="#000000" points="177,-367.2 177,-389.2 252,-389.2 252,-367.2 177,-367.2"/>
<text text-anchor="start" x="180" y="-374.9" font-family="Helvetica,sans-Serif" font-size="11.00" fill="#000000">int[10]</text>
<polygon fill="none" stroke="#000000" points="10,-345.2 10,-367.2 177,-367.2 177,-345.2 10,-345.2"/>
<text text-anchor="start" x="30" y="-352.3" font-family="Helvetica,sans-Serif" font-size="11.00" fill="#000000">grp_activity</text>
<polygon fill="none" stroke="#000000" points="177,-345.2 177,-367.2 252,-367.2 252,-345.2 177,-345.2"/>
<text text-anchor="start" x="180" y="-352.9" font-family="Helvetica,sans-Serif" font-size="11.00" fill="#000000">boolean[3]</text>
<polygon fill="none" stroke="#000000" points="10,-323.2 10,-345.2 177,-345.2 177,-323.2 10,-323.2"/>
<text text-anchor="start" x="30" y="-330.3" font-family="Helvetica,sans-Serif" font-size="11.00" fill="#000000">grp_repeats</text>
<polygon fill="none" stroke="#000000" points="177,-323.2 177,-345.2 252,-345.2 252,-323.2 177,-323.2"/>
<text text-anchor="start" x="180" y="-330.9" font-family="Helvetica,sans-Serif" font-size="11.00" fill="#000000">int[10]</text>
<polygon fill="none" stroke="#000000" points="10,-301.2 10,-323.2 177,-323.2 177,-301.2 10,-301.2"/>
<text text-anchor="start" x="30" y="-308.3" font-family="Helvetica,sans-Serif" font-size="11.00" fill="#000000">grp_columns</text>
<polygon fill="none" stroke="#000000" points="177,-301.2 177,-323.2 252,-323.2 252,-301.2 177,-301.2"/>
<text text-anchor="start" x="180" y="-308.9" font-family="Helvetica,sans-Serif" font-size="11.00" fill="#000000">int[10]</text>
<polygon fill="none" stroke="#000000" points="10,-279.2 10,-301.2 177,-301.2 177,-279.2 10,-279.2"/>
<text text-anchor="start" x="30" y="-286.3" font-family="Helvetica,sans-Serif" font-size="11.00" fill="#000000">grp_size</text>
<polygon fill="none" stroke="#000000" points="177,-279.2 177,-301.2 252,-301.2 252,-279.2 177,-279.2"/>
<text text-anchor="start" x="180" y="-286.9" font-family="Helvetica,sans-Serif" font-size="11.00" fill="#000000">int[10]</text>
<polygon fill="none" stroke="#000000" points="10,-257.2 10,-279.2 177,-279.2 177,-257.2 10,-257.2"/>
<text text-anchor="start" x="30" y="-264.3" font-family="Helvetica,sans-Serif" font-size="11.00" fill="#000000">grp_issue_type</text>
<polygon fill="none" stroke="#000000" points="177,-257.2 177,-279.2 252,-279.2 252,-257.2 177,-257.2"/>
<text text-anchor="start" x="180" y="-264.9" font-family="Helvetica,sans-Serif" font-size="11.00" fill="#000000">varchar[75]</text>
<polygon fill="none" stroke="#000000" points="10,-235.2 10,-257.2 177,-257.2 177,-235.2 10,-235.2"/>
<text text-anchor="start" x="30" y="-242.3" font-family="Helvetica,sans-Serif" font-size="11.00" fill="#000000">grp_aco_spec</text>
<polygon fill="none" stroke="#000000" points="177,-235.2 177,-257.2 252,-257.2 252,-235.2 177,-235.2"/>
<text text-anchor="start" x="180" y="-242.9" font-family="Helvetica,sans-Serif" font-size="11.00" fill="#000000">varchar[63]</text>
<polygon fill="none" stroke="#000000" points="10,-213.2 10,-235.2 177,-235.2 177,-213.2 10,-213.2"/>
<text text-anchor="start" x="30" y="-220.3" font-family="Helvetica,sans-Serif" font-size="11.00" fill="#000000">grp_save_close</text>
<polygon fill="none" stroke="#000000" points="177,-213.2 177,-235.2 252,-235.2 252,-213.2 177,-213.2"/>
<text text-anchor="start" x="180" y="-220.9" font-family="Helvetica,sans-Serif" font-size="11.00" fill="#000000">boolean[3]</text>
<polygon fill="none" stroke="#000000" points="10,-191.2 10,-213.2 177,-213.2 177,-191.2 10,-191.2"/>
<text text-anchor="start" x="30" y="-198.3" font-family="Helvetica,sans-Serif" font-size="11.00" fill="#000000">grp_init_open</text>
<polygon fill="none" stroke="#000000" points="177,-191.2 177,-213.2 252,-213.2 252,-191.2 177,-191.2"/>
<text text-anchor="start" x="180" y="-198.9" font-family="Helvetica,sans-Serif" font-size="11.00" fill="#000000">boolean[3]</text>
<polygon fill="none" stroke="#000000" points="10,-169.2 10,-191.2 177,-191.2 177,-169.2 10,-169.2"/>
<text text-anchor="start" x="30" y="-176.3" font-family="Helvetica,sans-Serif" font-size="11.00" fill="#000000">grp_referrals</text>
<polygon fill="none" stroke="#000000" points="177,-169.2 177,-191.2 252,-191.2 252,-169.2 177,-169.2"/>
<text text-anchor="start" x="180" y="-176.9" font-family="Helvetica,sans-Serif" font-size="11.00" fill="#000000">boolean[3]</text>
<polygon fill="none" stroke="#000000" points="10,-147.2 10,-169.2 177,-169.2 177,-147.2 10,-147.2"/>
<text text-anchor="start" x="30" y="-154.3" font-family="Helvetica,sans-Serif" font-size="11.00" fill="#000000">grp_services</text>
<polygon fill="none" stroke="#000000" points="177,-147.2 177,-169.2 252,-169.2 252,-147.2 177,-147.2"/>
<text text-anchor="start" x="180" y="-154.9" font-family="Helvetica,sans-Serif" font-size="11.00" fill="#000000">varchar[4095]</text>
<polygon fill="none" stroke="#000000" points="10,-125.2 10,-147.2 177,-147.2 177,-125.2 10,-125.2"/>
<text text-anchor="start" x="30" y="-132.3" font-family="Helvetica,sans-Serif" font-size="11.00" fill="#000000">grp_products</text>
<polygon fill="none" stroke="#000000" points="177,-125.2 177,-147.2 252,-147.2 252,-125.2 177,-125.2"/>
<text text-anchor="start" x="180" y="-132.9" font-family="Helvetica,sans-Serif" font-size="11.00" fill="#000000">varchar[4095]</text>
<polygon fill="none" stroke="#000000" points="10,-103.2 10,-125.2 177,-125.2 177,-103.2 10,-103.2"/>
<text text-anchor="start" x="30" y="-110.3" font-family="Helvetica,sans-Serif" font-size="11.00" fill="#000000">grp_diags</text>
<polygon fill="none" stroke="#000000" points="177,-103.2 177,-125.2 252,-125.2 252,-103.2 177,-103.2"/>
<text text-anchor="start" x="180" y="-110.9" font-family="Helvetica,sans-Serif" font-size="11.00" fill="#000000">varchar[4095]</text>
<polygon fill="none" stroke="#000000" points="10,-81.2 10,-103.2 177,-103.2 177,-81.2 10,-81.2"/>
<text text-anchor="start" x="30" y="-88.3" font-family="Helvetica,sans-Serif" font-size="11.00" fill="#000000">grp_last_update</text>
<polygon fill="none" stroke="#000000" points="177,-81.2 177,-103.2 252,-103.2 252,-81.2 177,-81.2"/>
<text text-anchor="start" x="179.9666" y="-88.9" font-family="Helvetica,sans-Serif" font-size="11.00" fill="#000000">timestamp[19]</text>
<polygon fill="none" stroke="#000000" points="10,-59.2 10,-81.2 177,-81.2 177,-59.2 10,-59.2"/>
<text text-anchor="start" x="30" y="-66.3" font-family="Helvetica,sans-Serif" font-size="11.00" fill="#000000">grp_unchecked</text>
<polygon fill="none" stroke="#000000" points="177,-59.2 177,-81.2 252,-81.2 252,-59.2 177,-59.2"/>
<text text-anchor="start" x="180" y="-66.9" font-family="Helvetica,sans-Serif" font-size="11.00" fill="#000000">boolean[3]</text>
<polygon fill="#ffffff" stroke="transparent" points="10,-40.2 10,-59.2 98,-59.2 98,-40.2 10,-40.2"/>
<polygon fill="none" stroke="#000000" points="10,-40.2 10,-59.2 98,-59.2 98,-40.2 10,-40.2"/>
<text text-anchor="start" x="13" y="-46.3" font-family="Helvetica,sans-Serif" font-size="11.00" fill="#000000">&lt; 0</text>
<polygon fill="#ffffff" stroke="transparent" points="98,-40.2 98,-59.2 177,-59.2 177,-40.2 98,-40.2"/>
<polygon fill="none" stroke="#000000" points="98,-40.2 98,-59.2 177,-59.2 177,-40.2 98,-40.2"/>
<text text-anchor="start" x="167.8862" y="-46.3" font-family="Helvetica,sans-Serif" font-size="11.00" fill="#000000"> &#160;</text>
<polygon fill="#ffffff" stroke="transparent" points="177,-40.2 177,-59.2 252,-59.2 252,-40.2 177,-40.2"/>
<polygon fill="none" stroke="#000000" points="177,-40.2 177,-59.2 252,-59.2 252,-40.2 177,-40.2"/>
<text text-anchor="start" x="233.4053" y="-46.3" font-family="Helvetica,sans-Serif" font-size="11.00" fill="#000000">2 &gt;</text>
<polygon fill="none" stroke="#000000" stroke-width="2" points="9,-39.2 9,-523.2 253,-523.2 253,-39.2 9,-39.2"/>
</a>
</g>
</g>
<!-- layout_options&#45;&gt;layout_group_properties -->
<g id="edge1" class="edge">
<title>layout_options:w&#45;&gt;layout_group_properties:e</title>
<path fill="none" stroke="#000000" d="M288.8704,-497.4813C276.5803,-494.3875 269.5539,-488.2 252,-488.2"/>
<polygon fill="#000000" stroke="#000000" points="295.5546,-498.2665 303.0799,-502.7754 299.5273,-498.7332 303.5,-499.2 303.5,-499.2 303.5,-499.2 299.5273,-498.7332 303.9201,-495.6246 295.5546,-498.2665 295.5546,-498.2665"/>
<ellipse fill="none" stroke="#000000" cx="292.3765" cy="-497.8931" rx="3.2" ry="3.2"/>
</g>
<!-- layout_options&#45;&gt;layout_group_properties -->
<g id="edge2" class="edge">
<title>layout_options:w&#45;&gt;layout_group_properties:e</title>
<path fill="none" stroke="#000000" d="M288.8704,-456.9188C276.5803,-460.0125 269.5539,-466.2 252,-466.2"/>
<polygon fill="#000000" stroke="#000000" points="295.5546,-456.1335 303.9201,-458.7754 299.5273,-455.6668 303.5,-455.2 303.5,-455.2 303.5,-455.2 299.5273,-455.6668 303.0799,-451.6246 295.5546,-456.1335 295.5546,-456.1335"/>
<ellipse fill="none" stroke="#000000" cx="292.3765" cy="-456.5069" rx="3.2" ry="3.2"/>
</g>
<!-- lbf_data -->
<g id="node3" class="node">
<title>lbf_data</title>
<g id="a_node3"><a xlink:href="../../tables/lbf_data.html" xlink:title="lbf_data" target="_top">
<polygon fill="#ffffff" stroke="transparent" points="508,-531.7 508,-592.7 595,-592.7 595,-531.7 508,-531.7"/>
<polygon fill="#f5f5f5" stroke="transparent" points="508.5,-569.2 508.5,-592.2 595.5,-592.2 595.5,-569.2 508.5,-569.2"/>
<polygon fill="none" stroke="#000000" points="508.5,-569.2 508.5,-592.2 595.5,-592.2 595.5,-569.2 508.5,-569.2"/>
<text text-anchor="start" x="513.5" y="-577.8" font-family="Helvetica,sans-Serif" font-weight="bold" font-size="11.00" fill="#000000">lbf_data</text>
<text text-anchor="start" x="561.0219" y="-577.3" font-family="Helvetica,sans-Serif" font-size="11.00" fill="#000000">[table]</text>
<polygon fill="none" stroke="#000000" points="508.5,-550.2 508.5,-569.2 595.5,-569.2 595.5,-550.2 508.5,-550.2"/>
<text text-anchor="start" x="511.5" y="-556.3" font-family="Helvetica,sans-Serif" font-size="11.00" fill="#000000">...</text>
<polygon fill="#ffffff" stroke="transparent" points="508.5,-531.2 508.5,-550.2 550.5,-550.2 550.5,-531.2 508.5,-531.2"/>
<polygon fill="none" stroke="#000000" points="508.5,-531.2 508.5,-550.2 550.5,-550.2 550.5,-531.2 508.5,-531.2"/>
<text text-anchor="start" x="511.5" y="-537.3" font-family="Helvetica,sans-Serif" font-size="11.00" fill="#000000">&lt; 2</text>
<polygon fill="#ffffff" stroke="transparent" points="550.5,-531.2 550.5,-550.2 572.5,-550.2 572.5,-531.2 550.5,-531.2"/>
<polygon fill="none" stroke="#000000" points="550.5,-531.2 550.5,-550.2 572.5,-550.2 572.5,-531.2 550.5,-531.2"/>
<text text-anchor="start" x="563.3862" y="-537.3" font-family="Helvetica,sans-Serif" font-size="11.00" fill="#000000"> &#160;</text>
<polygon fill="#ffffff" stroke="transparent" points="572.5,-531.2 572.5,-550.2 595.5,-550.2 595.5,-531.2 572.5,-531.2"/>
<polygon fill="none" stroke="#000000" points="572.5,-531.2 572.5,-550.2 595.5,-550.2 595.5,-531.2 572.5,-531.2"/>
<text text-anchor="start" x="586.3862" y="-537.3" font-family="Helvetica,sans-Serif" font-size="11.00" fill="#000000"> &#160;</text>
</a>
</g>
</g>
<!-- lbf_data&#45;&gt;layout_options -->
<g id="edge3" class="edge">
<title>lbf_data:w&#45;&gt;layout_options:e</title>
<path fill="none" stroke="#000000" d="M494.0007,-556.2816C462.3855,-541.6742 475.1009,-477.2 430.5,-477.2"/>
<polygon fill="#000000" stroke="#000000" points="500.6573,-557.6214 507.7896,-562.7292 504.5786,-558.4107 508.5,-559.2 508.5,-559.2 508.5,-559.2 504.5786,-558.4107 509.2104,-555.6708 500.6573,-557.6214 500.6573,-557.6214"/>
<ellipse fill="none" stroke="#000000" cx="497.5202" cy="-556.9899" rx="3.2" ry="3.2"/>
</g>
<!-- lbt_data -->
<g id="node4" class="node">
<title>lbt_data</title>
<g id="a_node4"><a xlink:href="../../tables/lbt_data.html" xlink:title="lbt_data" target="_top">
<polygon fill="#ffffff" stroke="transparent" points="508,-449.7 508,-510.7 595,-510.7 595,-449.7 508,-449.7"/>
<polygon fill="#f5f5f5" stroke="transparent" points="508.5,-487.2 508.5,-510.2 595.5,-510.2 595.5,-487.2 508.5,-487.2"/>
<polygon fill="none" stroke="#000000" points="508.5,-487.2 508.5,-510.2 595.5,-510.2 595.5,-487.2 508.5,-487.2"/>
<text text-anchor="start" x="513.5" y="-495.8" font-family="Helvetica,sans-Serif" font-weight="bold" font-size="11.00" fill="#000000">lbt_data</text>
<text text-anchor="start" x="561.0219" y="-495.3" font-family="Helvetica,sans-Serif" font-size="11.00" fill="#000000">[table]</text>
<polygon fill="none" stroke="#000000" points="508.5,-468.2 508.5,-487.2 595.5,-487.2 595.5,-468.2 508.5,-468.2"/>
<text text-anchor="start" x="511.5" y="-474.3" font-family="Helvetica,sans-Serif" font-size="11.00" fill="#000000">...</text>
<polygon fill="#ffffff" stroke="transparent" points="508.5,-449.2 508.5,-468.2 550.5,-468.2 550.5,-449.2 508.5,-449.2"/>
<polygon fill="none" stroke="#000000" points="508.5,-449.2 508.5,-468.2 550.5,-468.2 550.5,-449.2 508.5,-449.2"/>
<text text-anchor="start" x="511.5" y="-455.3" font-family="Helvetica,sans-Serif" font-size="11.00" fill="#000000">&lt; 2</text>
<polygon fill="#ffffff" stroke="transparent" points="550.5,-449.2 550.5,-468.2 572.5,-468.2 572.5,-449.2 550.5,-449.2"/>
<polygon fill="none" stroke="#000000" points="550.5,-449.2 550.5,-468.2 572.5,-468.2 572.5,-449.2 550.5,-449.2"/>
<text text-anchor="start" x="563.3862" y="-455.3" font-family="Helvetica,sans-Serif" font-size="11.00" fill="#000000"> &#160;</text>
<polygon fill="#ffffff" stroke="transparent" points="572.5,-449.2 572.5,-468.2 595.5,-468.2 595.5,-449.2 572.5,-449.2"/>
<polygon fill="none" stroke="#000000" points="572.5,-449.2 572.5,-468.2 595.5,-468.2 595.5,-449.2 572.5,-449.2"/>
<text text-anchor="start" x="586.3862" y="-455.3" font-family="Helvetica,sans-Serif" font-size="11.00" fill="#000000"> &#160;</text>
</a>
</g>
</g>
<!-- lbt_data&#45;&gt;layout_options -->
<g id="edge4" class="edge">
<title>lbt_data:w&#45;&gt;layout_options:e</title>
<path fill="none" stroke="#000000" d="M493.9559,-477.2C470.4902,-477.2 459.75,-477.2 430.5,-477.2"/>
<polygon fill="#000000" stroke="#000000" points="500.5,-477.2001 508.5,-480.8 504.5,-477.2 508.5,-477.2 508.5,-477.2 508.5,-477.2 504.5,-477.2 508.5,-473.6 500.5,-477.2001 500.5,-477.2001"/>
<ellipse fill="none" stroke="#000000" cx="497.3" cy="-477.2001" rx="3.2" ry="3.2"/>
</g>
<!-- shared_attributes -->
<g id="node5" class="node">
<title>shared_attributes</title>
<g id="a_node5"><a xlink:href="../../tables/shared_attributes.html" xlink:title="shared_attributes" target="_top">
<polygon fill="#ffffff" stroke="transparent" points="479,-367.7 479,-428.7 624,-428.7 624,-367.7 479,-367.7"/>
<polygon fill="#f5f5f5" stroke="transparent" points="479.5,-405.2 479.5,-428.2 624.5,-428.2 624.5,-405.2 479.5,-405.2"/>
<polygon fill="none" stroke="#000000" points="479.5,-405.2 479.5,-428.2 624.5,-428.2 624.5,-405.2 479.5,-405.2"/>
<text text-anchor="start" x="484.5" y="-413.8" font-family="Helvetica,sans-Serif" font-weight="bold" font-size="11.00" fill="#000000">shared_attributes</text>
<text text-anchor="start" x="590.0219" y="-413.3" font-family="Helvetica,sans-Serif" font-size="11.00" fill="#000000">[table]</text>
<polygon fill="none" stroke="#000000" points="479.5,-386.2 479.5,-405.2 624.5,-405.2 624.5,-386.2 479.5,-386.2"/>
<text text-anchor="start" x="482.5" y="-392.3" font-family="Helvetica,sans-Serif" font-size="11.00" fill="#000000">...</text>
<polygon fill="#ffffff" stroke="transparent" points="479.5,-367.2 479.5,-386.2 550.5,-386.2 550.5,-367.2 479.5,-367.2"/>
<polygon fill="none" stroke="#000000" points="479.5,-367.2 479.5,-386.2 550.5,-386.2 550.5,-367.2 479.5,-367.2"/>
<text text-anchor="start" x="482.5" y="-373.3" font-family="Helvetica,sans-Serif" font-size="11.00" fill="#000000">&lt; 4</text>
<polygon fill="#ffffff" stroke="transparent" points="550.5,-367.2 550.5,-386.2 587.5,-386.2 587.5,-367.2 550.5,-367.2"/>
<polygon fill="none" stroke="#000000" points="550.5,-367.2 550.5,-386.2 587.5,-386.2 587.5,-367.2 550.5,-367.2"/>
<text text-anchor="start" x="578.3862" y="-373.3" font-family="Helvetica,sans-Serif" font-size="11.00" fill="#000000"> &#160;</text>
<polygon fill="#ffffff" stroke="transparent" points="587.5,-367.2 587.5,-386.2 624.5,-386.2 624.5,-367.2 587.5,-367.2"/>
<polygon fill="none" stroke="#000000" points="587.5,-367.2 587.5,-386.2 624.5,-386.2 624.5,-367.2 587.5,-367.2"/>
<text text-anchor="start" x="615.3862" y="-373.3" font-family="Helvetica,sans-Serif" font-size="11.00" fill="#000000"> &#160;</text>
</a>
</g>
</g>
<!-- shared_attributes&#45;&gt;layout_options -->
<g id="edge5" class="edge">
<title>shared_attributes:w&#45;&gt;layout_options:e</title>
<path fill="none" stroke="#000000" d="M465.5294,-399.8436C445.788,-417.1902 466.8194,-477.2 430.5,-477.2"/>
<polygon fill="#000000" stroke="#000000" points="471.9084,-397.7234 480.6355,-398.6162 475.7042,-396.4617 479.5,-395.2 479.5,-395.2 479.5,-395.2 475.7042,-396.4617 478.3645,-391.7838 471.9084,-397.7234 471.9084,-397.7234"/>
<ellipse fill="none" stroke="#000000" cx="468.8717" cy="-398.7327" rx="3.2" ry="3.2"/>
</g>
</g>
</svg>
