<?xml version="1.0" encoding="UTF-8" standalone="no"?>
<!DOCTYPE svg PUBLIC "-//W3C//DTD SVG 1.1//EN"
 "http://www.w3.org/Graphics/SVG/1.1/DTD/svg11.dtd">
<!-- Generated by graphviz version 2.40.1 (20161225.0304)
 -->
<!-- Title: twoDegreesRelationshipsDiagram Pages: 1 -->
<svg width="799pt" height="802pt"
 viewBox="0.00 0.00 799.00 801.70" xmlns="http://www.w3.org/2000/svg" xmlns:xlink="http://www.w3.org/1999/xlink">
<g id="graph0" class="graph" transform="scale(1 1) rotate(0) translate(4 797.7)">
<title>twoDegreesRelationshipsDiagram</title>
<polygon fill="#ffffff" stroke="transparent" points="-4,4 -4,-797.7 795,-797.7 795,4 -4,4"/>
<text text-anchor="middle" x="72.4936" y="-7.3" font-family="Helvetica,sans-Serif" font-size="11.00" fill="#000000">Generated by SchemaSpy</text>
<!-- form_encounter -->
<g id="node1" class="node">
<title>form_encounter</title>
<g id="a_node1"><a xlink:href="../../tables/form_encounter.html" xlink:title="form_encounter" target="_top">
<polygon fill="#ffffff" stroke="transparent" points="407,-687.7 407,-748.7 552,-748.7 552,-687.7 407,-687.7"/>
<polygon fill="#f5f5f5" stroke="transparent" points="407.5,-725.2 407.5,-748.2 552.5,-748.2 552.5,-725.2 407.5,-725.2"/>
<polygon fill="none" stroke="#000000" points="407.5,-725.2 407.5,-748.2 552.5,-748.2 552.5,-725.2 407.5,-725.2"/>
<text text-anchor="start" x="412.5" y="-733.8" font-family="Helvetica,sans-Serif" font-weight="bold" font-size="11.00" fill="#000000">form_encounter</text>
<text text-anchor="start" x="518.0219" y="-733.3" font-family="Helvetica,sans-Serif" font-size="11.00" fill="#000000">[table]</text>
<polygon fill="none" stroke="#000000" points="407.5,-706.2 407.5,-725.2 552.5,-725.2 552.5,-706.2 407.5,-706.2"/>
<text text-anchor="start" x="410.5" y="-712.3" font-family="Helvetica,sans-Serif" font-size="11.00" fill="#000000">...</text>
<polygon fill="#ffffff" stroke="transparent" points="407.5,-687.2 407.5,-706.2 470.5,-706.2 470.5,-687.2 407.5,-687.2"/>
<polygon fill="none" stroke="#000000" points="407.5,-687.2 407.5,-706.2 470.5,-706.2 470.5,-687.2 407.5,-687.2"/>
<text text-anchor="start" x="410.5" y="-693.3" font-family="Helvetica,sans-Serif" font-size="11.00" fill="#000000">&lt; 1</text>
<polygon fill="#ffffff" stroke="transparent" points="470.5,-687.2 470.5,-706.2 503.5,-706.2 503.5,-687.2 470.5,-687.2"/>
<polygon fill="none" stroke="#000000" points="470.5,-687.2 470.5,-706.2 503.5,-706.2 503.5,-687.2 470.5,-687.2"/>
<text text-anchor="start" x="494.3862" y="-693.3" font-family="Helvetica,sans-Serif" font-size="11.00" fill="#000000"> &#160;</text>
<polygon fill="#ffffff" stroke="transparent" points="503.5,-687.2 503.5,-706.2 552.5,-706.2 552.5,-687.2 503.5,-687.2"/>
<polygon fill="none" stroke="#000000" points="503.5,-687.2 503.5,-706.2 552.5,-706.2 552.5,-687.2 503.5,-687.2"/>
<text text-anchor="start" x="527.7904" y="-693.3" font-family="Helvetica,sans-Serif" font-size="11.00" fill="#000000">14 &gt;</text>
</a>
</g>
</g>
<!-- patient_data -->
<g id="node2" class="node">
<title>patient_data</title>
<g id="a_node2"><a xlink:href="../../tables/patient_data.html" xlink:title="patient_data" target="_top">
<polygon fill="#ffffff" stroke="transparent" points="171.5,-687.7 171.5,-748.7 295.5,-748.7 295.5,-687.7 171.5,-687.7"/>
<polygon fill="#f5f5f5" stroke="transparent" points="171.5,-725.2 171.5,-748.2 295.5,-748.2 295.5,-725.2 171.5,-725.2"/>
<polygon fill="none" stroke="#000000" points="171.5,-725.2 171.5,-748.2 295.5,-748.2 295.5,-725.2 171.5,-725.2"/>
<text text-anchor="start" x="176.5" y="-733.8" font-family="Helvetica,sans-Serif" font-weight="bold" font-size="11.00" fill="#000000">patient_data</text>
<text text-anchor="start" x="261.0219" y="-733.3" font-family="Helvetica,sans-Serif" font-size="11.00" fill="#000000">[table]</text>
<polygon fill="none" stroke="#000000" points="171.5,-706.2 171.5,-725.2 295.5,-725.2 295.5,-706.2 171.5,-706.2"/>
<text text-anchor="start" x="174.5" y="-712.3" font-family="Helvetica,sans-Serif" font-size="11.00" fill="#000000">...</text>
<polygon fill="#ffffff" stroke="transparent" points="171.5,-687.2 171.5,-706.2 224.5,-706.2 224.5,-687.2 171.5,-687.2"/>
<polygon fill="none" stroke="#000000" points="171.5,-687.2 171.5,-706.2 224.5,-706.2 224.5,-687.2 171.5,-687.2"/>
<text text-anchor="start" x="174.5" y="-693.3" font-family="Helvetica,sans-Serif" font-size="11.00" fill="#000000">&lt; 5</text>
<polygon fill="#ffffff" stroke="transparent" points="224.5,-687.2 224.5,-706.2 252.5,-706.2 252.5,-687.2 224.5,-687.2"/>
<polygon fill="none" stroke="#000000" points="224.5,-687.2 224.5,-706.2 252.5,-706.2 252.5,-687.2 224.5,-687.2"/>
<text text-anchor="start" x="243.3862" y="-693.3" font-family="Helvetica,sans-Serif" font-size="11.00" fill="#000000"> &#160;</text>
<polygon fill="#ffffff" stroke="transparent" points="252.5,-687.2 252.5,-706.2 295.5,-706.2 295.5,-687.2 252.5,-687.2"/>
<polygon fill="none" stroke="#000000" points="252.5,-687.2 252.5,-706.2 295.5,-706.2 295.5,-687.2 252.5,-687.2"/>
<text text-anchor="start" x="270.7904" y="-693.3" font-family="Helvetica,sans-Serif" font-size="11.00" fill="#000000">85 &gt;</text>
</a>
</g>
</g>
<!-- form_encounter&#45;&gt;patient_data -->
<g id="edge1" class="edge">
<title>form_encounter:w&#45;&gt;patient_data:e</title>
<path fill="none" stroke="#000000" d="M392.9083,-715.2C354.6819,-715.2 340.0278,-715.2 295.5,-715.2"/>
<polygon fill="#000000" stroke="#000000" points="399.5,-715.2001 407.5,-718.8 403.5,-715.2 407.5,-715.2 407.5,-715.2 407.5,-715.2 403.5,-715.2 407.5,-711.6 399.5,-715.2001 399.5,-715.2001"/>
<ellipse fill="none" stroke="#000000" cx="396.3" cy="-715.2001" rx="3.2" ry="3.2"/>
</g>
<!-- users -->
<g id="node8" class="node">
<title>users</title>
<g id="a_node8"><a xlink:href="../../tables/users.html" xlink:title="users" target="_top">
<polygon fill="#ffffff" stroke="transparent" points="8,-687.7 8,-748.7 83,-748.7 83,-687.7 8,-687.7"/>
<polygon fill="#f5f5f5" stroke="transparent" points="8.5,-725.2 8.5,-748.2 83.5,-748.2 83.5,-725.2 8.5,-725.2"/>
<polygon fill="none" stroke="#000000" points="8.5,-725.2 8.5,-748.2 83.5,-748.2 83.5,-725.2 8.5,-725.2"/>
<text text-anchor="start" x="13.5" y="-733.8" font-family="Helvetica,sans-Serif" font-weight="bold" font-size="11.00" fill="#000000">users</text>
<text text-anchor="start" x="49.0219" y="-733.3" font-family="Helvetica,sans-Serif" font-size="11.00" fill="#000000">[table]</text>
<polygon fill="none" stroke="#000000" points="8.5,-706.2 8.5,-725.2 83.5,-725.2 83.5,-706.2 8.5,-706.2"/>
<text text-anchor="start" x="11.5" y="-712.3" font-family="Helvetica,sans-Serif" font-size="11.00" fill="#000000">...</text>
<polygon fill="#ffffff" stroke="transparent" points="8.5,-687.2 8.5,-706.2 36.5,-706.2 36.5,-687.2 8.5,-687.2"/>
<polygon fill="none" stroke="#000000" points="8.5,-687.2 8.5,-706.2 36.5,-706.2 36.5,-687.2 8.5,-687.2"/>
<text text-anchor="start" x="11.5" y="-693.3" font-family="Helvetica,sans-Serif" font-size="11.00" fill="#000000">&lt; 2</text>
<polygon fill="#ffffff" stroke="transparent" points="36.5,-687.2 36.5,-706.2 52.5,-706.2 52.5,-687.2 36.5,-687.2"/>
<polygon fill="none" stroke="#000000" points="36.5,-687.2 36.5,-706.2 52.5,-706.2 52.5,-687.2 36.5,-687.2"/>
<text text-anchor="start" x="43.3862" y="-693.3" font-family="Helvetica,sans-Serif" font-size="11.00" fill="#000000"> &#160;</text>
<polygon fill="#ffffff" stroke="transparent" points="52.5,-687.2 52.5,-706.2 83.5,-706.2 83.5,-687.2 52.5,-687.2"/>
<polygon fill="none" stroke="#000000" points="52.5,-687.2 52.5,-706.2 83.5,-706.2 83.5,-687.2 52.5,-687.2"/>
<text text-anchor="start" x="58.7904" y="-693.3" font-family="Helvetica,sans-Serif" font-size="11.00" fill="#000000">61 &gt;</text>
</a>
</g>
</g>
<!-- patient_data&#45;&gt;users -->
<g id="edge8" class="edge">
<title>patient_data:w&#45;&gt;users:e</title>
<path fill="none" stroke="#000000" d="M158.0938,-708.9656C129.4861,-696.4969 117.7222,-698.575 83.5,-715.2"/>
<polygon fill="#000000" stroke="#000000" points="164.246,-711.8266 169.982,-718.4643 167.873,-713.5133 171.5,-715.2 171.5,-715.2 171.5,-715.2 167.873,-713.5133 173.018,-711.9357 164.246,-711.8266 164.246,-711.8266"/>
<ellipse fill="none" stroke="#000000" cx="161.3444" cy="-710.4773" rx="3.2" ry="3.2"/>
</g>
<!-- patient_data&#45;&gt;users -->
<g id="edge9" class="edge">
<title>patient_data:w&#45;&gt;users:e</title>
<path fill="none" stroke="#000000" d="M156.9533,-713.0755C129.167,-709.3122 117.2639,-710.0203 83.5,-715.2"/>
<polygon fill="#000000" stroke="#000000" points="163.584,-714.0439 170.9797,-718.7622 167.542,-714.6219 171.5,-715.2 171.5,-715.2 171.5,-715.2 167.542,-714.6219 172.0203,-711.6378 163.584,-714.0439 163.584,-714.0439"/>
<ellipse fill="none" stroke="#000000" cx="160.4176" cy="-713.5814" rx="3.2" ry="3.2"/>
</g>
<!-- patient_data&#45;&gt;users -->
<g id="edge10" class="edge">
<title>patient_data:w&#45;&gt;users:e</title>
<path fill="none" stroke="#000000" d="M156.9533,-717.6786C129.167,-722.0692 117.2639,-721.243 83.5,-715.2"/>
<polygon fill="#000000" stroke="#000000" points="163.6137,-716.5438 172.1047,-718.7489 167.5568,-715.8719 171.5,-715.2 171.5,-715.2 171.5,-715.2 167.5568,-715.8719 170.8953,-711.6511 163.6137,-716.5438 163.6137,-716.5438"/>
<ellipse fill="none" stroke="#000000" cx="160.4591" cy="-717.0813" rx="3.2" ry="3.2"/>
</g>
<!-- patient_data&#45;&gt;users -->
<g id="edge11" class="edge">
<title>patient_data:w&#45;&gt;users:e</title>
<path fill="none" stroke="#000000" d="M158.4779,-721.5858C129.5907,-734.9067 117.875,-732.7781 83.5,-715.2"/>
<polygon fill="#000000" stroke="#000000" points="164.3172,-718.7224 173.0851,-718.4323 167.9086,-716.9612 171.5,-715.2 171.5,-715.2 171.5,-715.2 167.9086,-716.9612 169.9149,-711.9677 164.3172,-718.7224 164.3172,-718.7224"/>
<ellipse fill="none" stroke="#000000" cx="161.444" cy="-720.1313" rx="3.2" ry="3.2"/>
</g>
<!-- layout_options -->
<g id="node3" class="node">
<title>layout_options</title>
<g id="a_node3"><a xlink:href="../../tables/layout_options.html" xlink:title="layout_options" target="_top">
<polygon fill="#ffffff" stroke="transparent" points="384,-38.2 384,-546.2 575,-546.2 575,-38.2 384,-38.2"/>
<polygon fill="#f5f5f5" stroke="transparent" points="386.5,-521.2 386.5,-544.2 573.5,-544.2 573.5,-521.2 386.5,-521.2"/>
<polygon fill="none" stroke="#000000" points="386.5,-521.2 386.5,-544.2 573.5,-544.2 573.5,-521.2 386.5,-521.2"/>
<text text-anchor="start" x="391.5" y="-529.8" font-family="Helvetica,sans-Serif" font-weight="bold" font-size="11.00" fill="#000000">layout_options</text>
<text text-anchor="start" x="538.5437" y="-529.3" font-family="Helvetica,sans-Serif" font-size="11.00" fill="#000000">[table]</text>
<polygon fill="none" stroke="#000000" points="386.5,-499.2 386.5,-521.2 506.5,-521.2 506.5,-499.2 386.5,-499.2"/>
<image xlink:href="../../images/primaryKeys.png" width="11px" height="12px" preserveAspectRatio="xMinYMin meet" x="391.5" y="-516.2"/>
<text text-anchor="start" x="406.5" y="-506.3" font-family="Helvetica,sans-Serif" font-size="11.00" fill="#000000">form_id</text>
<polygon fill="none" stroke="#000000" points="506.5,-499.2 506.5,-521.2 573.5,-521.2 573.5,-499.2 506.5,-499.2"/>
<text text-anchor="start" x="509.5" y="-506.9" font-family="Helvetica,sans-Serif" font-size="11.00" fill="#000000">varchar[31]</text>
<polygon fill="none" stroke="#000000" points="386.5,-477.2 386.5,-499.2 506.5,-499.2 506.5,-477.2 386.5,-477.2"/>
<image xlink:href="../../images/primaryKeys.png" width="11px" height="12px" preserveAspectRatio="xMinYMin meet" x="391.5" y="-494.2"/>
<text text-anchor="start" x="406.5" y="-484.3" font-family="Helvetica,sans-Serif" font-size="11.00" fill="#000000">field_id</text>
<polygon fill="none" stroke="#000000" points="506.5,-477.2 506.5,-499.2 573.5,-499.2 573.5,-477.2 506.5,-477.2"/>
<text text-anchor="start" x="509.5" y="-484.9" font-family="Helvetica,sans-Serif" font-size="11.00" fill="#000000">varchar[31]</text>
<polygon fill="none" stroke="#000000" points="386.5,-455.2 386.5,-477.2 506.5,-477.2 506.5,-455.2 386.5,-455.2"/>
<image xlink:href="../../images/foreignKeys.png" width="11px" height="12px" preserveAspectRatio="xMinYMin meet" x="391.5" y="-472.2"/>
<text text-anchor="start" x="406.5" y="-462.3" font-family="Helvetica,sans-Serif" font-size="11.00" fill="#000000">group_id</text>
<polygon fill="none" stroke="#000000" points="506.5,-455.2 506.5,-477.2 573.5,-477.2 573.5,-455.2 506.5,-455.2"/>
<text text-anchor="start" x="509.5" y="-462.9" font-family="Helvetica,sans-Serif" font-size="11.00" fill="#000000">varchar[31]</text>
<polygon fill="none" stroke="#000000" points="386.5,-433.2 386.5,-455.2 506.5,-455.2 506.5,-433.2 386.5,-433.2"/>
<text text-anchor="start" x="406.5" y="-440.3" font-family="Helvetica,sans-Serif" font-size="11.00" fill="#000000">title</text>
<polygon fill="none" stroke="#000000" points="506.5,-433.2 506.5,-455.2 573.5,-455.2 573.5,-433.2 506.5,-433.2"/>
<text text-anchor="start" x="509.5" y="-440.9" font-family="Helvetica,sans-Serif" font-size="11.00" fill="#000000">text[65535]</text>
<polygon fill="none" stroke="#000000" points="386.5,-411.2 386.5,-433.2 506.5,-433.2 506.5,-411.2 386.5,-411.2"/>
<image xlink:href="../../images/primaryKeys.png" width="11px" height="12px" preserveAspectRatio="xMinYMin meet" x="391.5" y="-428.2"/>
<text text-anchor="start" x="406.5" y="-418.3" font-family="Helvetica,sans-Serif" font-size="11.00" fill="#000000">seq</text>
<polygon fill="none" stroke="#000000" points="506.5,-411.2 506.5,-433.2 573.5,-433.2 573.5,-411.2 506.5,-411.2"/>
<text text-anchor="start" x="509.5" y="-418.9" font-family="Helvetica,sans-Serif" font-size="11.00" fill="#000000">int[10]</text>
<polygon fill="none" stroke="#000000" points="386.5,-389.2 386.5,-411.2 506.5,-411.2 506.5,-389.2 386.5,-389.2"/>
<text text-anchor="start" x="406.5" y="-396.3" font-family="Helvetica,sans-Serif" font-size="11.00" fill="#000000">data_type</text>
<polygon fill="none" stroke="#000000" points="506.5,-389.2 506.5,-411.2 573.5,-411.2 573.5,-389.2 506.5,-389.2"/>
<text text-anchor="start" x="509.5" y="-396.9" font-family="Helvetica,sans-Serif" font-size="11.00" fill="#000000">tinyint[3]</text>
<polygon fill="none" stroke="#000000" points="386.5,-367.2 386.5,-389.2 506.5,-389.2 506.5,-367.2 386.5,-367.2"/>
<text text-anchor="start" x="406.5" y="-374.3" font-family="Helvetica,sans-Serif" font-size="11.00" fill="#000000">uor</text>
<polygon fill="none" stroke="#000000" points="506.5,-367.2 506.5,-389.2 573.5,-389.2 573.5,-367.2 506.5,-367.2"/>
<text text-anchor="start" x="509.5" y="-374.9" font-family="Helvetica,sans-Serif" font-size="11.00" fill="#000000">bit[1]</text>
<polygon fill="none" stroke="#000000" points="386.5,-345.2 386.5,-367.2 506.5,-367.2 506.5,-345.2 386.5,-345.2"/>
<text text-anchor="start" x="406.5" y="-352.3" font-family="Helvetica,sans-Serif" font-size="11.00" fill="#000000">fld_length</text>
<polygon fill="none" stroke="#000000" points="506.5,-345.2 506.5,-367.2 573.5,-367.2 573.5,-345.2 506.5,-345.2"/>
<text text-anchor="start" x="509.5" y="-352.9" font-family="Helvetica,sans-Serif" font-size="11.00" fill="#000000">int[10]</text>
<polygon fill="none" stroke="#000000" points="386.5,-323.2 386.5,-345.2 506.5,-345.2 506.5,-323.2 386.5,-323.2"/>
<text text-anchor="start" x="406.5" y="-330.3" font-family="Helvetica,sans-Serif" font-size="11.00" fill="#000000">max_length</text>
<polygon fill="none" stroke="#000000" points="506.5,-323.2 506.5,-345.2 573.5,-345.2 573.5,-323.2 506.5,-323.2"/>
<text text-anchor="start" x="509.5" y="-330.9" font-family="Helvetica,sans-Serif" font-size="11.00" fill="#000000">int[10]</text>
<polygon fill="none" stroke="#000000" points="386.5,-301.2 386.5,-323.2 506.5,-323.2 506.5,-301.2 386.5,-301.2"/>
<text text-anchor="start" x="406.5" y="-308.3" font-family="Helvetica,sans-Serif" font-size="11.00" fill="#000000">list_id</text>
<polygon fill="none" stroke="#000000" points="506.5,-301.2 506.5,-323.2 573.5,-323.2 573.5,-301.2 506.5,-301.2"/>
<text text-anchor="start" x="509.4365" y="-308.9" font-family="Helvetica,sans-Serif" font-size="11.00" fill="#000000">varchar[100]</text>
<polygon fill="none" stroke="#000000" points="386.5,-279.2 386.5,-301.2 506.5,-301.2 506.5,-279.2 386.5,-279.2"/>
<text text-anchor="start" x="406.5" y="-286.3" font-family="Helvetica,sans-Serif" font-size="11.00" fill="#000000">titlecols</text>
<polygon fill="none" stroke="#000000" points="506.5,-279.2 506.5,-301.2 573.5,-301.2 573.5,-279.2 506.5,-279.2"/>
<text text-anchor="start" x="509.5" y="-286.9" font-family="Helvetica,sans-Serif" font-size="11.00" fill="#000000">tinyint[3]</text>
<polygon fill="none" stroke="#000000" points="386.5,-257.2 386.5,-279.2 506.5,-279.2 506.5,-257.2 386.5,-257.2"/>
<text text-anchor="start" x="406.5" y="-264.3" font-family="Helvetica,sans-Serif" font-size="11.00" fill="#000000">datacols</text>
<polygon fill="none" stroke="#000000" points="506.5,-257.2 506.5,-279.2 573.5,-279.2 573.5,-257.2 506.5,-257.2"/>
<text text-anchor="start" x="509.5" y="-264.9" font-family="Helvetica,sans-Serif" font-size="11.00" fill="#000000">tinyint[3]</text>
<polygon fill="none" stroke="#000000" points="386.5,-235.2 386.5,-257.2 506.5,-257.2 506.5,-235.2 386.5,-235.2"/>
<text text-anchor="start" x="406.5" y="-242.3" font-family="Helvetica,sans-Serif" font-size="11.00" fill="#000000">default_value</text>
<polygon fill="none" stroke="#000000" points="506.5,-235.2 506.5,-257.2 573.5,-257.2 573.5,-235.2 506.5,-235.2"/>
<text text-anchor="start" x="509.4365" y="-242.9" font-family="Helvetica,sans-Serif" font-size="11.00" fill="#000000">varchar[255]</text>
<polygon fill="none" stroke="#000000" points="386.5,-213.2 386.5,-235.2 506.5,-235.2 506.5,-213.2 386.5,-213.2"/>
<text text-anchor="start" x="406.5" y="-220.3" font-family="Helvetica,sans-Serif" font-size="11.00" fill="#000000">edit_options</text>
<polygon fill="none" stroke="#000000" points="506.5,-213.2 506.5,-235.2 573.5,-235.2 573.5,-213.2 506.5,-213.2"/>
<text text-anchor="start" x="509.5" y="-220.9" font-family="Helvetica,sans-Serif" font-size="11.00" fill="#000000">varchar[36]</text>
<polygon fill="none" stroke="#000000" points="386.5,-191.2 386.5,-213.2 506.5,-213.2 506.5,-191.2 386.5,-191.2"/>
<text text-anchor="start" x="406.5" y="-198.3" font-family="Helvetica,sans-Serif" font-size="11.00" fill="#000000">description</text>
<polygon fill="none" stroke="#000000" points="506.5,-191.2 506.5,-213.2 573.5,-213.2 573.5,-191.2 506.5,-191.2"/>
<text text-anchor="start" x="509.5" y="-198.9" font-family="Helvetica,sans-Serif" font-size="11.00" fill="#000000">text[65535]</text>
<polygon fill="none" stroke="#000000" points="386.5,-169.2 386.5,-191.2 506.5,-191.2 506.5,-169.2 386.5,-169.2"/>
<text text-anchor="start" x="406.5" y="-176.3" font-family="Helvetica,sans-Serif" font-size="11.00" fill="#000000">fld_rows</text>
<polygon fill="none" stroke="#000000" points="506.5,-169.2 506.5,-191.2 573.5,-191.2 573.5,-169.2 506.5,-169.2"/>
<text text-anchor="start" x="509.5" y="-176.9" font-family="Helvetica,sans-Serif" font-size="11.00" fill="#000000">int[10]</text>
<polygon fill="none" stroke="#000000" points="386.5,-147.2 386.5,-169.2 506.5,-169.2 506.5,-147.2 386.5,-147.2"/>
<text text-anchor="start" x="406.5" y="-154.3" font-family="Helvetica,sans-Serif" font-size="11.00" fill="#000000">list_backup_id</text>
<polygon fill="none" stroke="#000000" points="506.5,-147.2 506.5,-169.2 573.5,-169.2 573.5,-147.2 506.5,-147.2"/>
<text text-anchor="start" x="509.4365" y="-154.9" font-family="Helvetica,sans-Serif" font-size="11.00" fill="#000000">varchar[100]</text>
<polygon fill="none" stroke="#000000" points="386.5,-125.2 386.5,-147.2 506.5,-147.2 506.5,-125.2 386.5,-125.2"/>
<text text-anchor="start" x="406.5" y="-132.3" font-family="Helvetica,sans-Serif" font-size="11.00" fill="#000000">source</text>
<polygon fill="none" stroke="#000000" points="506.5,-125.2 506.5,-147.2 573.5,-147.2 573.5,-125.2 506.5,-125.2"/>
<text text-anchor="start" x="509.5" y="-132.9" font-family="Helvetica,sans-Serif" font-size="11.00" fill="#000000">char[1]</text>
<polygon fill="none" stroke="#000000" points="386.5,-103.2 386.5,-125.2 506.5,-125.2 506.5,-103.2 386.5,-103.2"/>
<text text-anchor="start" x="406.5" y="-110.3" font-family="Helvetica,sans-Serif" font-size="11.00" fill="#000000">conditions</text>
<polygon fill="none" stroke="#000000" points="506.5,-103.2 506.5,-125.2 573.5,-125.2 573.5,-103.2 506.5,-103.2"/>
<text text-anchor="start" x="509.5" y="-110.9" font-family="Helvetica,sans-Serif" font-size="11.00" fill="#000000">text[65535]</text>
<polygon fill="none" stroke="#000000" points="386.5,-81.2 386.5,-103.2 506.5,-103.2 506.5,-81.2 386.5,-81.2"/>
<text text-anchor="start" x="406.5" y="-88.3" font-family="Helvetica,sans-Serif" font-size="11.00" fill="#000000">validation</text>
<polygon fill="none" stroke="#000000" points="506.5,-81.2 506.5,-103.2 573.5,-103.2 573.5,-81.2 506.5,-81.2"/>
<text text-anchor="start" x="509.4365" y="-88.9" font-family="Helvetica,sans-Serif" font-size="11.00" fill="#000000">varchar[100]</text>
<polygon fill="none" stroke="#000000" points="386.5,-59.2 386.5,-81.2 506.5,-81.2 506.5,-59.2 386.5,-59.2"/>
<text text-anchor="start" x="406.5" y="-66.3" font-family="Helvetica,sans-Serif" font-size="11.00" fill="#000000">codes</text>
<polygon fill="none" stroke="#000000" points="506.5,-59.2 506.5,-81.2 573.5,-81.2 573.5,-59.2 506.5,-59.2"/>
<text text-anchor="start" x="509.4365" y="-66.9" font-family="Helvetica,sans-Serif" font-size="11.00" fill="#000000">varchar[255]</text>
<polygon fill="#ffffff" stroke="transparent" points="386.5,-40.2 386.5,-59.2 450.5,-59.2 450.5,-40.2 386.5,-40.2"/>
<polygon fill="none" stroke="#000000" points="386.5,-40.2 386.5,-59.2 450.5,-59.2 450.5,-40.2 386.5,-40.2"/>
<text text-anchor="start" x="389.5" y="-46.3" font-family="Helvetica,sans-Serif" font-size="11.00" fill="#000000">&lt; 2</text>
<polygon fill="#ffffff" stroke="transparent" points="450.5,-40.2 450.5,-59.2 506.5,-59.2 506.5,-40.2 450.5,-40.2"/>
<polygon fill="none" stroke="#000000" points="450.5,-40.2 450.5,-59.2 506.5,-59.2 506.5,-40.2 450.5,-40.2"/>
<text text-anchor="start" x="497.3862" y="-46.3" font-family="Helvetica,sans-Serif" font-size="11.00" fill="#000000"> &#160;</text>
<polygon fill="#ffffff" stroke="transparent" points="506.5,-40.2 506.5,-59.2 573.5,-59.2 573.5,-40.2 506.5,-40.2"/>
<polygon fill="none" stroke="#000000" points="506.5,-40.2 506.5,-59.2 573.5,-59.2 573.5,-40.2 506.5,-40.2"/>
<text text-anchor="start" x="554.9053" y="-46.3" font-family="Helvetica,sans-Serif" font-size="11.00" fill="#000000">3 &gt;</text>
<polygon fill="none" stroke="#000000" stroke-width="2" points="385,-39.2 385,-545.2 574,-545.2 574,-39.2 385,-39.2"/>
</a>
</g>
</g>
<!-- layout_group_properties -->
<g id="node4" class="node">
<title>layout_group_properties</title>
<g id="a_node4"><a xlink:href="../../tables/layout_group_properties.html" xlink:title="layout_group_properties" target="_top">
<polygon fill="#ffffff" stroke="transparent" points="132,-428.7 132,-533.7 335,-533.7 335,-428.7 132,-428.7"/>
<polygon fill="#f5f5f5" stroke="transparent" points="132.5,-510.2 132.5,-533.2 335.5,-533.2 335.5,-510.2 132.5,-510.2"/>
<polygon fill="none" stroke="#000000" points="132.5,-510.2 132.5,-533.2 335.5,-533.2 335.5,-510.2 132.5,-510.2"/>
<text text-anchor="start" x="137.5" y="-518.8" font-family="Helvetica,sans-Serif" font-weight="bold" font-size="11.00" fill="#000000">layout_group_properties</text>
<text text-anchor="start" x="301.0219" y="-518.3" font-family="Helvetica,sans-Serif" font-size="11.00" fill="#000000">[table]</text>
<polygon fill="none" stroke="#000000" points="132.5,-488.2 132.5,-510.2 335.5,-510.2 335.5,-488.2 132.5,-488.2"/>
<image xlink:href="../../images/primaryKeys.png" width="11px" height="12px" preserveAspectRatio="xMinYMin meet" x="137.5" y="-505.2"/>
<text text-anchor="start" x="161.5" y="-495.3" font-family="Helvetica,sans-Serif" font-size="11.00" fill="#000000">grp_form_id</text>
<polygon fill="none" stroke="#000000" points="132.5,-466.2 132.5,-488.2 335.5,-488.2 335.5,-466.2 132.5,-466.2"/>
<image xlink:href="../../images/primaryKeys.png" width="11px" height="12px" preserveAspectRatio="xMinYMin meet" x="137.5" y="-483.2"/>
<text text-anchor="start" x="161.5" y="-473.3" font-family="Helvetica,sans-Serif" font-size="11.00" fill="#000000">grp_group_id</text>
<polygon fill="none" stroke="#000000" points="132.5,-447.2 132.5,-466.2 335.5,-466.2 335.5,-447.2 132.5,-447.2"/>
<text text-anchor="start" x="135.5" y="-453.3" font-family="Helvetica,sans-Serif" font-size="11.00" fill="#000000">...</text>
<polygon fill="#ffffff" stroke="transparent" points="132.5,-428.2 132.5,-447.2 223.5,-447.2 223.5,-428.2 132.5,-428.2"/>
<polygon fill="none" stroke="#000000" points="132.5,-428.2 132.5,-447.2 223.5,-447.2 223.5,-428.2 132.5,-428.2"/>
<text text-anchor="start" x="135.5" y="-434.3" font-family="Helvetica,sans-Serif" font-size="11.00" fill="#000000"> &#160;</text>
<polygon fill="#ffffff" stroke="transparent" points="223.5,-428.2 223.5,-447.2 274.5,-447.2 274.5,-428.2 223.5,-428.2"/>
<polygon fill="none" stroke="#000000" points="223.5,-428.2 223.5,-447.2 274.5,-447.2 274.5,-428.2 223.5,-428.2"/>
<text text-anchor="start" x="265.3862" y="-434.3" font-family="Helvetica,sans-Serif" font-size="11.00" fill="#000000"> &#160;</text>
<polygon fill="#ffffff" stroke="transparent" points="274.5,-428.2 274.5,-447.2 335.5,-447.2 335.5,-428.2 274.5,-428.2"/>
<polygon fill="none" stroke="#000000" points="274.5,-428.2 274.5,-447.2 335.5,-447.2 335.5,-428.2 274.5,-428.2"/>
<text text-anchor="start" x="316.9053" y="-434.3" font-family="Helvetica,sans-Serif" font-size="11.00" fill="#000000">2 &gt;</text>
</a>
</g>
</g>
<!-- layout_options&#45;&gt;layout_group_properties -->
<g id="edge2" class="edge">
<title>layout_options:w&#45;&gt;layout_group_properties:e</title>
<path fill="none" stroke="#000000" d="M372.0097,-508.4813C359.8398,-505.3875 352.8909,-499.2 335.5,-499.2"/>
<polygon fill="#000000" stroke="#000000" points="378.5557,-509.2576 386.0759,-513.7749 382.5278,-509.7288 386.5,-510.2 386.5,-510.2 386.5,-510.2 382.5278,-509.7288 386.9241,-506.6251 378.5557,-509.2576 378.5557,-509.2576"/>
<ellipse fill="none" stroke="#000000" cx="375.378" cy="-508.8807" rx="3.2" ry="3.2"/>
</g>
<!-- layout_options&#45;&gt;layout_group_properties -->
<g id="edge3" class="edge">
<title>layout_options:w&#45;&gt;layout_group_properties:e</title>
<path fill="none" stroke="#000000" d="M372.0097,-467.9188C359.8398,-471.0125 352.8909,-477.2 335.5,-477.2"/>
<polygon fill="#000000" stroke="#000000" points="378.5557,-467.1424 386.9241,-469.7749 382.5278,-466.6712 386.5,-466.2 386.5,-466.2 386.5,-466.2 382.5278,-466.6712 386.0759,-462.6251 378.5557,-467.1424 378.5557,-467.1424"/>
<ellipse fill="none" stroke="#000000" cx="375.378" cy="-467.5193" rx="3.2" ry="3.2"/>
</g>
<!-- lbf_data -->
<g id="node5" class="node">
<title>lbf_data</title>
<g id="a_node5"><a xlink:href="../../tables/lbf_data.html" xlink:title="lbf_data" target="_top">
<polygon fill="#ffffff" stroke="transparent" points="657,-514.7 657,-619.7 750,-619.7 750,-514.7 657,-514.7"/>
<polygon fill="#f5f5f5" stroke="transparent" points="657.5,-596.2 657.5,-619.2 750.5,-619.2 750.5,-596.2 657.5,-596.2"/>
<polygon fill="none" stroke="#000000" points="657.5,-596.2 657.5,-619.2 750.5,-619.2 750.5,-596.2 657.5,-596.2"/>
<text text-anchor="start" x="662.5" y="-604.8" font-family="Helvetica,sans-Serif" font-weight="bold" font-size="11.00" fill="#000000">lbf_data</text>
<text text-anchor="start" x="716.0219" y="-604.3" font-family="Helvetica,sans-Serif" font-size="11.00" fill="#000000">[table]</text>
<polygon fill="none" stroke="#000000" points="657.5,-574.2 657.5,-596.2 750.5,-596.2 750.5,-574.2 657.5,-574.2"/>
<image xlink:href="../../images/primaryKeys.png" width="11px" height="12px" preserveAspectRatio="xMinYMin meet" x="662.5" y="-591.2"/>
<text text-anchor="start" x="677.5" y="-581.3" font-family="Helvetica,sans-Serif" font-size="11.00" fill="#000000">form_id</text>
<polygon fill="none" stroke="#000000" points="657.5,-552.2 657.5,-574.2 750.5,-574.2 750.5,-552.2 657.5,-552.2"/>
<image xlink:href="../../images/primaryKeys.png" width="11px" height="12px" preserveAspectRatio="xMinYMin meet" x="662.5" y="-569.2"/>
<text text-anchor="start" x="677.5" y="-559.3" font-family="Helvetica,sans-Serif" font-size="11.00" fill="#000000">field_id</text>
<polygon fill="none" stroke="#000000" points="657.5,-533.2 657.5,-552.2 750.5,-552.2 750.5,-533.2 657.5,-533.2"/>
<text text-anchor="start" x="660.5" y="-539.3" font-family="Helvetica,sans-Serif" font-size="11.00" fill="#000000">...</text>
<polygon fill="#ffffff" stroke="transparent" points="657.5,-514.2 657.5,-533.2 702.5,-533.2 702.5,-514.2 657.5,-514.2"/>
<polygon fill="none" stroke="#000000" points="657.5,-514.2 657.5,-533.2 702.5,-533.2 702.5,-514.2 657.5,-514.2"/>
<text text-anchor="start" x="660.5" y="-520.3" font-family="Helvetica,sans-Serif" font-size="11.00" fill="#000000">&lt; 2</text>
<polygon fill="#ffffff" stroke="transparent" points="702.5,-514.2 702.5,-533.2 726.5,-533.2 726.5,-514.2 702.5,-514.2"/>
<polygon fill="none" stroke="#000000" points="702.5,-514.2 702.5,-533.2 726.5,-533.2 726.5,-514.2 702.5,-514.2"/>
<text text-anchor="start" x="717.3862" y="-520.3" font-family="Helvetica,sans-Serif" font-size="11.00" fill="#000000"> &#160;</text>
<polygon fill="#ffffff" stroke="transparent" points="726.5,-514.2 726.5,-533.2 750.5,-533.2 750.5,-514.2 726.5,-514.2"/>
<polygon fill="none" stroke="#000000" points="726.5,-514.2 726.5,-533.2 750.5,-533.2 750.5,-514.2 726.5,-514.2"/>
<text text-anchor="start" x="741.3862" y="-520.3" font-family="Helvetica,sans-Serif" font-size="11.00" fill="#000000"> &#160;</text>
</a>
</g>
</g>
<!-- lbf_data&#45;&gt;layout_options -->
<g id="edge4" class="edge">
<title>lbf_data:w&#45;&gt;layout_options:e</title>
<path fill="none" stroke="#000000" d="M643.2785,-560.7046C610.1812,-547.691 618.0748,-488.2 573.5,-488.2"/>
<polygon fill="#000000" stroke="#000000" points="649.6204,-561.8173 656.8778,-566.7458 653.5602,-562.5087 657.5,-563.2 657.5,-563.2 657.5,-563.2 653.5602,-562.5087 658.1222,-559.6542 649.6204,-561.8173 649.6204,-561.8173"/>
<ellipse fill="none" stroke="#000000" cx="646.4685" cy="-561.2643" rx="3.2" ry="3.2"/>
</g>
<!-- transactions -->
<g id="node6" class="node">
<title>transactions</title>
<g id="a_node6"><a xlink:href="../../tables/transactions.html" xlink:title="transactions" target="_top">
<polygon fill="#ffffff" stroke="transparent" points="418,-567.7 418,-628.7 541,-628.7 541,-567.7 418,-567.7"/>
<polygon fill="#f5f5f5" stroke="transparent" points="418.5,-605.2 418.5,-628.2 541.5,-628.2 541.5,-605.2 418.5,-605.2"/>
<polygon fill="none" stroke="#000000" points="418.5,-605.2 418.5,-628.2 541.5,-628.2 541.5,-605.2 418.5,-605.2"/>
<text text-anchor="start" x="423.5" y="-613.8" font-family="Helvetica,sans-Serif" font-weight="bold" font-size="11.00" fill="#000000">transactions</text>
<text text-anchor="start" x="507.0219" y="-613.3" font-family="Helvetica,sans-Serif" font-size="11.00" fill="#000000">[table]</text>
<polygon fill="none" stroke="#000000" points="418.5,-586.2 418.5,-605.2 541.5,-605.2 541.5,-586.2 418.5,-586.2"/>
<text text-anchor="start" x="421.5" y="-592.3" font-family="Helvetica,sans-Serif" font-size="11.00" fill="#000000">...</text>
<polygon fill="#ffffff" stroke="transparent" points="418.5,-567.2 418.5,-586.2 473.5,-586.2 473.5,-567.2 418.5,-567.2"/>
<polygon fill="none" stroke="#000000" points="418.5,-567.2 418.5,-586.2 473.5,-586.2 473.5,-567.2 418.5,-567.2"/>
<text text-anchor="start" x="421.5" y="-573.3" font-family="Helvetica,sans-Serif" font-size="11.00" fill="#000000">&lt; 1</text>
<polygon fill="#ffffff" stroke="transparent" points="473.5,-567.2 473.5,-586.2 502.5,-586.2 502.5,-567.2 473.5,-567.2"/>
<polygon fill="none" stroke="#000000" points="473.5,-567.2 473.5,-586.2 502.5,-586.2 502.5,-567.2 473.5,-567.2"/>
<text text-anchor="start" x="493.3862" y="-573.3" font-family="Helvetica,sans-Serif" font-size="11.00" fill="#000000"> &#160;</text>
<polygon fill="#ffffff" stroke="transparent" points="502.5,-567.2 502.5,-586.2 541.5,-586.2 541.5,-567.2 502.5,-567.2"/>
<polygon fill="none" stroke="#000000" points="502.5,-567.2 502.5,-586.2 541.5,-586.2 541.5,-567.2 502.5,-567.2"/>
<text text-anchor="start" x="522.9053" y="-573.3" font-family="Helvetica,sans-Serif" font-size="11.00" fill="#000000">2 &gt;</text>
</a>
</g>
</g>
<!-- lbf_data&#45;&gt;transactions -->
<g id="edge5" class="edge">
<title>lbf_data:w&#45;&gt;transactions:e</title>
<path fill="none" stroke="#000000" d="M642.8655,-585.4885C602.8081,-587.1281 587.9912,-595.2 541.5,-595.2"/>
<polygon fill="#000000" stroke="#000000" points="649.5016,-585.3577 657.571,-588.7993 653.5008,-585.2789 657.5,-585.2 657.5,-585.2 657.5,-585.2 653.5008,-585.2789 657.429,-581.6007 649.5016,-585.3577 649.5016,-585.3577"/>
<ellipse fill="none" stroke="#000000" cx="646.3022" cy="-585.4208" rx="3.2" ry="3.2"/>
</g>
<!-- transactions&#45;&gt;patient_data -->
<g id="edge16" class="edge">
<title>transactions:w&#45;&gt;patient_data:e</title>
<path fill="none" stroke="#000000" d="M403.8901,-596.8964C345.7851,-611.4817 366.5034,-715.2 295.5,-715.2"/>
<polygon fill="#000000" stroke="#000000" points="410.5534,-596.1227 418.9152,-598.776 414.5267,-595.6614 418.5,-595.2 418.5,-595.2 418.5,-595.2 414.5267,-595.6614 418.0848,-591.624 410.5534,-596.1227 410.5534,-596.1227"/>
<ellipse fill="none" stroke="#000000" cx="407.3747" cy="-596.4918" rx="3.2" ry="3.2"/>
</g>
<!-- lbt_data -->
<g id="node7" class="node">
<title>lbt_data</title>
<g id="a_node7"><a xlink:href="../../tables/lbt_data.html" xlink:title="lbt_data" target="_top">
<polygon fill="#ffffff" stroke="transparent" points="657,-388.7 657,-493.7 750,-493.7 750,-388.7 657,-388.7"/>
<polygon fill="#f5f5f5" stroke="transparent" points="657.5,-470.2 657.5,-493.2 750.5,-493.2 750.5,-470.2 657.5,-470.2"/>
<polygon fill="none" stroke="#000000" points="657.5,-470.2 657.5,-493.2 750.5,-493.2 750.5,-470.2 657.5,-470.2"/>
<text text-anchor="start" x="662.5" y="-478.8" font-family="Helvetica,sans-Serif" font-weight="bold" font-size="11.00" fill="#000000">lbt_data</text>
<text text-anchor="start" x="716.0219" y="-478.3" font-family="Helvetica,sans-Serif" font-size="11.00" fill="#000000">[table]</text>
<polygon fill="none" stroke="#000000" points="657.5,-448.2 657.5,-470.2 750.5,-470.2 750.5,-448.2 657.5,-448.2"/>
<image xlink:href="../../images/primaryKeys.png" width="11px" height="12px" preserveAspectRatio="xMinYMin meet" x="662.5" y="-465.2"/>
<text text-anchor="start" x="677.5" y="-455.3" font-family="Helvetica,sans-Serif" font-size="11.00" fill="#000000">form_id</text>
<polygon fill="none" stroke="#000000" points="657.5,-426.2 657.5,-448.2 750.5,-448.2 750.5,-426.2 657.5,-426.2"/>
<image xlink:href="../../images/primaryKeys.png" width="11px" height="12px" preserveAspectRatio="xMinYMin meet" x="662.5" y="-443.2"/>
<text text-anchor="start" x="677.5" y="-433.3" font-family="Helvetica,sans-Serif" font-size="11.00" fill="#000000">field_id</text>
<polygon fill="none" stroke="#000000" points="657.5,-407.2 657.5,-426.2 750.5,-426.2 750.5,-407.2 657.5,-407.2"/>
<text text-anchor="start" x="660.5" y="-413.3" font-family="Helvetica,sans-Serif" font-size="11.00" fill="#000000">...</text>
<polygon fill="#ffffff" stroke="transparent" points="657.5,-388.2 657.5,-407.2 702.5,-407.2 702.5,-388.2 657.5,-388.2"/>
<polygon fill="none" stroke="#000000" points="657.5,-388.2 657.5,-407.2 702.5,-407.2 702.5,-388.2 657.5,-388.2"/>
<text text-anchor="start" x="660.5" y="-394.3" font-family="Helvetica,sans-Serif" font-size="11.00" fill="#000000">&lt; 2</text>
<polygon fill="#ffffff" stroke="transparent" points="702.5,-388.2 702.5,-407.2 726.5,-407.2 726.5,-388.2 702.5,-388.2"/>
<polygon fill="none" stroke="#000000" points="702.5,-388.2 702.5,-407.2 726.5,-407.2 726.5,-388.2 702.5,-388.2"/>
<text text-anchor="start" x="717.3862" y="-394.3" font-family="Helvetica,sans-Serif" font-size="11.00" fill="#000000"> &#160;</text>
<polygon fill="#ffffff" stroke="transparent" points="726.5,-388.2 726.5,-407.2 750.5,-407.2 750.5,-388.2 726.5,-388.2"/>
<polygon fill="none" stroke="#000000" points="726.5,-388.2 726.5,-407.2 750.5,-407.2 750.5,-388.2 726.5,-388.2"/>
<text text-anchor="start" x="741.3862" y="-394.3" font-family="Helvetica,sans-Serif" font-size="11.00" fill="#000000"> &#160;</text>
</a>
</g>
</g>
<!-- lbt_data&#45;&gt;layout_options -->
<g id="edge6" class="edge">
<title>lbt_data:w&#45;&gt;layout_options:e</title>
<path fill="none" stroke="#000000" d="M643.1423,-439.3914C613.9274,-449.1531 611.7161,-488.2 573.5,-488.2"/>
<polygon fill="#000000" stroke="#000000" points="649.5916,-438.4071 658.0432,-440.7588 653.5458,-437.8036 657.5,-437.2 657.5,-437.2 657.5,-437.2 653.5458,-437.8036 656.9568,-433.6412 649.5916,-438.4071 649.5916,-438.4071"/>
<ellipse fill="none" stroke="#000000" cx="646.4282" cy="-438.8899" rx="3.2" ry="3.2"/>
</g>
<!-- lbt_data&#45;&gt;transactions -->
<g id="edge7" class="edge">
<title>lbt_data:w&#45;&gt;transactions:e</title>
<path fill="none" stroke="#000000" d="M642.8444,-461.0197C583.3472,-477.1582 615.5142,-595.2 541.5,-595.2"/>
<polygon fill="#000000" stroke="#000000" points="649.561,-460.1858 657.9436,-462.7726 653.5305,-459.6929 657.5,-459.2 657.5,-459.2 657.5,-459.2 653.5305,-459.6929 657.0564,-455.6274 649.561,-460.1858 649.561,-460.1858"/>
<ellipse fill="none" stroke="#000000" cx="646.3853" cy="-460.5801" rx="3.2" ry="3.2"/>
</g>
<!-- shared_attributes -->
<g id="node9" class="node">
<title>shared_attributes</title>
<g id="a_node9"><a xlink:href="../../tables/shared_attributes.html" xlink:title="shared_attributes" target="_top">
<polygon fill="#ffffff" stroke="transparent" points="624,-640.7 624,-789.7 783,-789.7 783,-640.7 624,-640.7"/>
<polygon fill="#f5f5f5" stroke="transparent" points="624.5,-766.2 624.5,-789.2 783.5,-789.2 783.5,-766.2 624.5,-766.2"/>
<polygon fill="none" stroke="#000000" points="624.5,-766.2 624.5,-789.2 783.5,-789.2 783.5,-766.2 624.5,-766.2"/>
<text text-anchor="start" x="629.5" y="-774.8" font-family="Helvetica,sans-Serif" font-weight="bold" font-size="11.00" fill="#000000">shared_attributes</text>
<text text-anchor="start" x="749.0219" y="-774.3" font-family="Helvetica,sans-Serif" font-size="11.00" fill="#000000">[table]</text>
<polygon fill="none" stroke="#000000" points="624.5,-744.2 624.5,-766.2 783.5,-766.2 783.5,-744.2 624.5,-744.2"/>
<image xlink:href="../../images/primaryKeys.png" width="11px" height="12px" preserveAspectRatio="xMinYMin meet" x="629.5" y="-761.2"/>
<text text-anchor="start" x="653.5" y="-751.3" font-family="Helvetica,sans-Serif" font-size="11.00" fill="#000000">pid</text>
<polygon fill="none" stroke="#000000" points="624.5,-722.2 624.5,-744.2 783.5,-744.2 783.5,-722.2 624.5,-722.2"/>
<image xlink:href="../../images/primaryKeys.png" width="11px" height="12px" preserveAspectRatio="xMinYMin meet" x="629.5" y="-739.2"/>
<text text-anchor="start" x="653.5" y="-729.3" font-family="Helvetica,sans-Serif" font-size="11.00" fill="#000000">encounter</text>
<polygon fill="none" stroke="#000000" points="624.5,-700.2 624.5,-722.2 783.5,-722.2 783.5,-700.2 624.5,-700.2"/>
<image xlink:href="../../images/primaryKeys.png" width="11px" height="12px" preserveAspectRatio="xMinYMin meet" x="629.5" y="-717.2"/>
<text text-anchor="start" x="653.5" y="-707.3" font-family="Helvetica,sans-Serif" font-size="11.00" fill="#000000">field_id</text>
<polygon fill="none" stroke="#000000" points="624.5,-678.2 624.5,-700.2 783.5,-700.2 783.5,-678.2 624.5,-678.2"/>
<image xlink:href="../../images/foreignKeys.png" width="11px" height="12px" preserveAspectRatio="xMinYMin meet" x="629.5" y="-695.2"/>
<text text-anchor="start" x="653.5" y="-685.3" font-family="Helvetica,sans-Serif" font-size="11.00" fill="#000000">user_id</text>
<polygon fill="none" stroke="#000000" points="624.5,-659.2 624.5,-678.2 783.5,-678.2 783.5,-659.2 624.5,-659.2"/>
<text text-anchor="start" x="627.5" y="-665.3" font-family="Helvetica,sans-Serif" font-size="11.00" fill="#000000">...</text>
<polygon fill="#ffffff" stroke="transparent" points="624.5,-640.2 624.5,-659.2 702.5,-659.2 702.5,-640.2 624.5,-640.2"/>
<polygon fill="none" stroke="#000000" points="624.5,-640.2 624.5,-659.2 702.5,-659.2 702.5,-640.2 624.5,-640.2"/>
<text text-anchor="start" x="627.5" y="-646.3" font-family="Helvetica,sans-Serif" font-size="11.00" fill="#000000">&lt; 4</text>
<polygon fill="#ffffff" stroke="transparent" points="702.5,-640.2 702.5,-659.2 742.5,-659.2 742.5,-640.2 702.5,-640.2"/>
<polygon fill="none" stroke="#000000" points="702.5,-640.2 702.5,-659.2 742.5,-659.2 742.5,-640.2 702.5,-640.2"/>
<text text-anchor="start" x="733.3862" y="-646.3" font-family="Helvetica,sans-Serif" font-size="11.00" fill="#000000"> &#160;</text>
<polygon fill="#ffffff" stroke="transparent" points="742.5,-640.2 742.5,-659.2 783.5,-659.2 783.5,-640.2 742.5,-640.2"/>
<polygon fill="none" stroke="#000000" points="742.5,-640.2 742.5,-659.2 783.5,-659.2 783.5,-640.2 742.5,-640.2"/>
<text text-anchor="start" x="774.3862" y="-646.3" font-family="Helvetica,sans-Serif" font-size="11.00" fill="#000000"> &#160;</text>
</a>
</g>
</g>
<!-- shared_attributes&#45;&gt;form_encounter -->
<g id="edge12" class="edge">
<title>shared_attributes:w&#45;&gt;form_encounter:e</title>
<path fill="none" stroke="#000000" d="M609.9047,-731.8471C588.7289,-727.661 579.9444,-715.2 552.5,-715.2"/>
<polygon fill="#000000" stroke="#000000" points="616.5342,-732.4615 624.1677,-736.7846 620.5171,-732.8308 624.5,-733.2 624.5,-733.2 624.5,-733.2 620.5171,-732.8308 624.8323,-729.6154 616.5342,-732.4615 616.5342,-732.4615"/>
<ellipse fill="none" stroke="#000000" cx="613.3478" cy="-732.1662" rx="3.2" ry="3.2"/>
</g>
<!-- shared_attributes&#45;&gt;patient_data -->
<g id="edge14" class="edge">
<title>shared_attributes:w&#45;&gt;patient_data:e</title>
<path fill="none" stroke="#000000" d="M610.1002,-755.9821C601.6707,-756.9646 595.58,-758.5951 583,-759.2 491.1062,-763.6184 465.1375,-781.9708 376,-759.2 336.4953,-749.1082 336.2734,-715.2 295.5,-715.2"/>
<polygon fill="#000000" stroke="#000000" points="616.5118,-755.6339 624.6953,-758.7947 620.5059,-755.417 624.5,-755.2 624.5,-755.2 624.5,-755.2 620.5059,-755.417 624.3047,-751.6053 616.5118,-755.6339 616.5118,-755.6339"/>
<ellipse fill="none" stroke="#000000" cx="613.3165" cy="-755.8075" rx="3.2" ry="3.2"/>
</g>
<!-- shared_attributes&#45;&gt;layout_options -->
<g id="edge13" class="edge">
<title>shared_attributes:w&#45;&gt;layout_options:e</title>
<path fill="none" stroke="#000000" d="M610.0157,-709.2722C538.7325,-687.4763 669.6099,-488.2 573.5,-488.2"/>
<polygon fill="#000000" stroke="#000000" points="616.5699,-710.1445 624.025,-714.7685 620.535,-710.6722 624.5,-711.2 624.5,-711.2 624.5,-711.2 620.535,-710.6722 624.975,-707.6315 616.5699,-710.1445 616.5699,-710.1445"/>
<ellipse fill="none" stroke="#000000" cx="613.3979" cy="-709.7223" rx="3.2" ry="3.2"/>
</g>
<!-- shared_attributes&#45;&gt;users -->
<g id="edge15" class="edge">
<title>shared_attributes:w&#45;&gt;users:e</title>
<path fill="none" stroke="#000000" d="M610.1959,-686.9593C601.7087,-684.0292 596.0695,-679.0516 583,-677.2 381.017,-648.5838 313.6902,-602.1425 124,-677.2 101.0487,-686.2815 108.1827,-715.2 83.5,-715.2"/>
<polygon fill="#000000" stroke="#000000" points="616.5964,-687.9619 623.9428,-692.7566 620.5482,-688.5809 624.5,-689.2 624.5,-689.2 624.5,-689.2 620.5482,-688.5809 625.0572,-685.6434 616.5964,-687.9619 616.5964,-687.9619"/>
<ellipse fill="none" stroke="#000000" cx="613.4349" cy="-687.4666" rx="3.2" ry="3.2"/>
</g>
</g>
</svg>
