<?xml version="1.0" encoding="UTF-8" standalone="no"?>
<!DOCTYPE svg PUBLIC "-//W3C//DTD SVG 1.1//EN"
 "http://www.w3.org/Graphics/SVG/1.1/DTD/svg11.dtd">
<!-- Generated by graphviz version 2.40.1 (20161225.0304)
 -->
<!-- Title: twoDegreesRelationshipsDiagram Pages: 1 -->
<svg width="634pt" height="363pt"
 viewBox="0.00 0.00 634.00 363.20" xmlns="http://www.w3.org/2000/svg" xmlns:xlink="http://www.w3.org/1999/xlink">
<g id="graph0" class="graph" transform="scale(1 1) rotate(0) translate(4 359.2)">
<title>twoDegreesRelationshipsDiagram</title>
<polygon fill="#ffffff" stroke="transparent" points="-4,4 -4,-359.2 630,-359.2 630,4 -4,4"/>
<text text-anchor="middle" x="72.4936" y="-7.3" font-family="Helvetica,sans-Serif" font-size="11.00" fill="#000000">Generated by SchemaSpy</text>
<!-- layout_options -->
<g id="node1" class="node">
<title>layout_options</title>
<g id="a_node1"><a xlink:href="../../tables/layout_options.html" xlink:title="layout_options" target="_top">
<polygon fill="#ffffff" stroke="transparent" points="242,-76.2 242,-225.2 369,-225.2 369,-76.2 242,-76.2"/>
<polygon fill="#f5f5f5" stroke="transparent" points="242.5,-201.7 242.5,-224.7 369.5,-224.7 369.5,-201.7 242.5,-201.7"/>
<polygon fill="none" stroke="#000000" points="242.5,-201.7 242.5,-224.7 369.5,-224.7 369.5,-201.7 242.5,-201.7"/>
<text text-anchor="start" x="247.5" y="-210.3" font-family="Helvetica,sans-Serif" font-weight="bold" font-size="11.00" fill="#000000">layout_options</text>
<text text-anchor="start" x="335.0219" y="-209.8" font-family="Helvetica,sans-Serif" font-size="11.00" fill="#000000">[table]</text>
<polygon fill="none" stroke="#000000" points="242.5,-179.7 242.5,-201.7 369.5,-201.7 369.5,-179.7 242.5,-179.7"/>
<image xlink:href="../../images/primaryKeys.png" width="11px" height="12px" preserveAspectRatio="xMinYMin meet" x="247.5" y="-196.7"/>
<text text-anchor="start" x="271.5" y="-186.8" font-family="Helvetica,sans-Serif" font-size="11.00" fill="#000000">form_id</text>
<polygon fill="none" stroke="#000000" points="242.5,-157.7 242.5,-179.7 369.5,-179.7 369.5,-157.7 242.5,-157.7"/>
<image xlink:href="../../images/primaryKeys.png" width="11px" height="12px" preserveAspectRatio="xMinYMin meet" x="247.5" y="-174.7"/>
<text text-anchor="start" x="271.5" y="-164.8" font-family="Helvetica,sans-Serif" font-size="11.00" fill="#000000">field_id</text>
<polygon fill="none" stroke="#000000" points="242.5,-135.7 242.5,-157.7 369.5,-157.7 369.5,-135.7 242.5,-135.7"/>
<image xlink:href="../../images/foreignKeys.png" width="11px" height="12px" preserveAspectRatio="xMinYMin meet" x="247.5" y="-152.7"/>
<text text-anchor="start" x="271.5" y="-142.8" font-family="Helvetica,sans-Serif" font-size="11.00" fill="#000000">group_id</text>
<polygon fill="none" stroke="#000000" points="242.5,-113.7 242.5,-135.7 369.5,-135.7 369.5,-113.7 242.5,-113.7"/>
<image xlink:href="../../images/primaryKeys.png" width="11px" height="12px" preserveAspectRatio="xMinYMin meet" x="247.5" y="-130.7"/>
<text text-anchor="start" x="271.5" y="-120.8" font-family="Helvetica,sans-Serif" font-size="11.00" fill="#000000">seq</text>
<polygon fill="none" stroke="#000000" points="242.5,-94.7 242.5,-113.7 369.5,-113.7 369.5,-94.7 242.5,-94.7"/>
<text text-anchor="start" x="245.5" y="-100.8" font-family="Helvetica,sans-Serif" font-size="11.00" fill="#000000">...</text>
<polygon fill="#ffffff" stroke="transparent" points="242.5,-75.7 242.5,-94.7 299.5,-94.7 299.5,-75.7 242.5,-75.7"/>
<polygon fill="none" stroke="#000000" points="242.5,-75.7 242.5,-94.7 299.5,-94.7 299.5,-75.7 242.5,-75.7"/>
<text text-anchor="start" x="245.5" y="-81.8" font-family="Helvetica,sans-Serif" font-size="11.00" fill="#000000">&lt; 2</text>
<polygon fill="#ffffff" stroke="transparent" points="299.5,-75.7 299.5,-94.7 329.5,-94.7 329.5,-75.7 299.5,-75.7"/>
<polygon fill="none" stroke="#000000" points="299.5,-75.7 299.5,-94.7 329.5,-94.7 329.5,-75.7 299.5,-75.7"/>
<text text-anchor="start" x="320.3862" y="-81.8" font-family="Helvetica,sans-Serif" font-size="11.00" fill="#000000"> &#160;</text>
<polygon fill="#ffffff" stroke="transparent" points="329.5,-75.7 329.5,-94.7 369.5,-94.7 369.5,-75.7 329.5,-75.7"/>
<polygon fill="none" stroke="#000000" points="329.5,-75.7 329.5,-94.7 369.5,-94.7 369.5,-75.7 329.5,-75.7"/>
<text text-anchor="start" x="350.9053" y="-81.8" font-family="Helvetica,sans-Serif" font-size="11.00" fill="#000000">3 &gt;</text>
</a>
</g>
</g>
<!-- layout_group_properties -->
<g id="node2" class="node">
<title>layout_group_properties</title>
<g id="a_node2"><a xlink:href="../../tables/layout_group_properties.html" xlink:title="layout_group_properties" target="_top">
<polygon fill="#ffffff" stroke="transparent" points="8,-141.2 8,-202.2 193,-202.2 193,-141.2 8,-141.2"/>
<polygon fill="#f5f5f5" stroke="transparent" points="8.5,-178.7 8.5,-201.7 193.5,-201.7 193.5,-178.7 8.5,-178.7"/>
<polygon fill="none" stroke="#000000" points="8.5,-178.7 8.5,-201.7 193.5,-201.7 193.5,-178.7 8.5,-178.7"/>
<text text-anchor="start" x="13.5" y="-187.3" font-family="Helvetica,sans-Serif" font-weight="bold" font-size="11.00" fill="#000000">layout_group_properties</text>
<text text-anchor="start" x="159.0219" y="-186.8" font-family="Helvetica,sans-Serif" font-size="11.00" fill="#000000">[table]</text>
<polygon fill="none" stroke="#000000" points="8.5,-159.7 8.5,-178.7 193.5,-178.7 193.5,-159.7 8.5,-159.7"/>
<text text-anchor="start" x="11.5" y="-165.8" font-family="Helvetica,sans-Serif" font-size="11.00" fill="#000000">...</text>
<polygon fill="#ffffff" stroke="transparent" points="8.5,-140.7 8.5,-159.7 90.5,-159.7 90.5,-140.7 8.5,-140.7"/>
<polygon fill="none" stroke="#000000" points="8.5,-140.7 8.5,-159.7 90.5,-159.7 90.5,-140.7 8.5,-140.7"/>
<text text-anchor="start" x="11.5" y="-146.8" font-family="Helvetica,sans-Serif" font-size="11.00" fill="#000000"> &#160;</text>
<polygon fill="#ffffff" stroke="transparent" points="90.5,-140.7 90.5,-159.7 137.5,-159.7 137.5,-140.7 90.5,-140.7"/>
<polygon fill="none" stroke="#000000" points="90.5,-140.7 90.5,-159.7 137.5,-159.7 137.5,-140.7 90.5,-140.7"/>
<text text-anchor="start" x="128.3862" y="-146.8" font-family="Helvetica,sans-Serif" font-size="11.00" fill="#000000"> &#160;</text>
<polygon fill="#ffffff" stroke="transparent" points="137.5,-140.7 137.5,-159.7 193.5,-159.7 193.5,-140.7 137.5,-140.7"/>
<polygon fill="none" stroke="#000000" points="137.5,-140.7 137.5,-159.7 193.5,-159.7 193.5,-140.7 137.5,-140.7"/>
<text text-anchor="start" x="174.9053" y="-146.8" font-family="Helvetica,sans-Serif" font-size="11.00" fill="#000000">2 &gt;</text>
</a>
</g>
</g>
<!-- layout_options&#45;&gt;layout_group_properties -->
<g id="edge1" class="edge">
<title>layout_options:w&#45;&gt;layout_group_properties:e</title>
<path fill="none" stroke="#000000" d="M228.1297,-187.2625C216.5865,-181.075 211.4041,-168.7 193.5,-168.7"/>
<polygon fill="#000000" stroke="#000000" points="234.7195,-188.8388 241.6625,-194.2012 238.6098,-189.7694 242.5,-190.7 242.5,-190.7 242.5,-190.7 238.6098,-189.7694 243.3375,-187.1988 234.7195,-188.8388 234.7195,-188.8388"/>
<ellipse fill="none" stroke="#000000" cx="231.6073" cy="-188.0943" rx="3.2" ry="3.2"/>
</g>
<!-- layout_options&#45;&gt;layout_group_properties -->
<g id="edge2" class="edge">
<title>layout_options:w&#45;&gt;layout_group_properties:e</title>
<path fill="none" stroke="#000000" d="M228.1297,-150.1375C216.5865,-156.325 211.4041,-168.7 193.5,-168.7"/>
<polygon fill="#000000" stroke="#000000" points="234.7195,-148.5612 243.3375,-150.2012 238.6098,-147.6306 242.5,-146.7 242.5,-146.7 242.5,-146.7 238.6098,-147.6306 241.6625,-143.1988 234.7195,-148.5612 234.7195,-148.5612"/>
<ellipse fill="none" stroke="#000000" cx="231.6073" cy="-149.3057" rx="3.2" ry="3.2"/>
</g>
<!-- lbf_data -->
<g id="node3" class="node">
<title>lbf_data</title>
<g id="a_node3"><a xlink:href="../../tables/lbf_data.html" xlink:title="lbf_data" target="_top">
<polygon fill="#ffffff" stroke="transparent" points="418,-124.7 418,-236.7 618,-236.7 618,-124.7 418,-124.7"/>
<polygon fill="#f5f5f5" stroke="transparent" points="420,-211.7 420,-234.7 616,-234.7 616,-211.7 420,-211.7"/>
<polygon fill="none" stroke="#000000" points="420,-211.7 420,-234.7 616,-234.7 616,-211.7 420,-211.7"/>
<text text-anchor="start" x="425" y="-220.3" font-family="Helvetica,sans-Serif" font-weight="bold" font-size="11.00" fill="#000000">lbf_data</text>
<text text-anchor="start" x="581.0437" y="-219.8" font-family="Helvetica,sans-Serif" font-size="11.00" fill="#000000">[table]</text>
<polygon fill="none" stroke="#000000" points="420,-189.7 420,-211.7 505,-211.7 505,-189.7 420,-189.7"/>
<image xlink:href="../../images/primaryKeys.png" width="11px" height="12px" preserveAspectRatio="xMinYMin meet" x="425" y="-206.7"/>
<text text-anchor="start" x="440" y="-196.8" font-family="Helvetica,sans-Serif" font-size="11.00" fill="#000000">form_id</text>
<polygon fill="none" stroke="#000000" points="505,-189.7 505,-211.7 616,-211.7 616,-189.7 505,-189.7"/>
<text text-anchor="start" x="508" y="-197.4" font-family="Helvetica,sans-Serif" font-size="11.00" fill="#000000">int[10]</text>
<polygon fill="none" stroke="#000000" points="420,-167.7 420,-189.7 505,-189.7 505,-167.7 420,-167.7"/>
<image xlink:href="../../images/primaryKeys.png" width="11px" height="12px" preserveAspectRatio="xMinYMin meet" x="425" y="-184.7"/>
<text text-anchor="start" x="440" y="-174.8" font-family="Helvetica,sans-Serif" font-size="11.00" fill="#000000">field_id</text>
<polygon fill="none" stroke="#000000" points="505,-167.7 505,-189.7 616,-189.7 616,-167.7 505,-167.7"/>
<text text-anchor="start" x="508" y="-175.4" font-family="Helvetica,sans-Serif" font-size="11.00" fill="#000000">varchar[31]</text>
<polygon fill="none" stroke="#000000" points="420,-145.7 420,-167.7 505,-167.7 505,-145.7 420,-145.7"/>
<text text-anchor="start" x="440" y="-152.8" font-family="Helvetica,sans-Serif" font-size="11.00" fill="#000000">field_value</text>
<polygon fill="none" stroke="#000000" points="505,-145.7 505,-167.7 616,-167.7 616,-145.7 505,-145.7"/>
<text text-anchor="start" x="507.6115" y="-153.4" font-family="Helvetica,sans-Serif" font-size="11.00" fill="#000000">longtext[2147483647]</text>
<polygon fill="#ffffff" stroke="transparent" points="420,-126.7 420,-145.7 467,-145.7 467,-126.7 420,-126.7"/>
<polygon fill="none" stroke="#000000" points="420,-126.7 420,-145.7 467,-145.7 467,-126.7 420,-126.7"/>
<text text-anchor="start" x="423" y="-132.8" font-family="Helvetica,sans-Serif" font-size="11.00" fill="#000000">&lt; 2</text>
<polygon fill="#ffffff" stroke="transparent" points="467,-126.7 467,-145.7 505,-145.7 505,-126.7 467,-126.7"/>
<polygon fill="none" stroke="#000000" points="467,-126.7 467,-145.7 505,-145.7 505,-126.7 467,-126.7"/>
<text text-anchor="start" x="495.8862" y="-132.8" font-family="Helvetica,sans-Serif" font-size="11.00" fill="#000000"> &#160;</text>
<polygon fill="#ffffff" stroke="transparent" points="505,-126.7 505,-145.7 616,-145.7 616,-126.7 505,-126.7"/>
<polygon fill="none" stroke="#000000" points="505,-126.7 505,-145.7 616,-145.7 616,-126.7 505,-126.7"/>
<text text-anchor="start" x="597.4053" y="-132.8" font-family="Helvetica,sans-Serif" font-size="11.00" fill="#000000">0 &gt;</text>
<polygon fill="none" stroke="#000000" stroke-width="2" points="419,-125.7 419,-235.7 617,-235.7 617,-125.7 419,-125.7"/>
</a>
</g>
</g>
<!-- lbf_data&#45;&gt;layout_options -->
<g id="edge3" class="edge">
<title>lbf_data:w&#45;&gt;layout_options:e</title>
<path fill="none" stroke="#000000" d="M405.6743,-177.1375C393.6162,-174.325 386.6602,-168.7 369.5,-168.7"/>
<polygon fill="#000000" stroke="#000000" points="412.0472,-177.8325 419.6096,-182.2788 416.0236,-178.2663 420,-178.7 420,-178.7 420,-178.7 416.0236,-178.2663 420.3904,-175.1212 412.0472,-177.8325 412.0472,-177.8325"/>
<ellipse fill="none" stroke="#000000" cx="408.866" cy="-177.4856" rx="3.2" ry="3.2"/>
</g>
<!-- transactions -->
<g id="node4" class="node">
<title>transactions</title>
<g id="a_node4"><a xlink:href="../../tables/transactions.html" xlink:title="transactions" target="_top">
<polygon fill="#ffffff" stroke="transparent" points="248.5,-246.2 248.5,-351.2 362.5,-351.2 362.5,-246.2 248.5,-246.2"/>
<polygon fill="#f5f5f5" stroke="transparent" points="248.5,-327.7 248.5,-350.7 362.5,-350.7 362.5,-327.7 248.5,-327.7"/>
<polygon fill="none" stroke="#000000" points="248.5,-327.7 248.5,-350.7 362.5,-350.7 362.5,-327.7 248.5,-327.7"/>
<text text-anchor="start" x="253.5" y="-336.3" font-family="Helvetica,sans-Serif" font-weight="bold" font-size="11.00" fill="#000000">transactions</text>
<text text-anchor="start" x="328.0219" y="-335.8" font-family="Helvetica,sans-Serif" font-size="11.00" fill="#000000">[table]</text>
<polygon fill="none" stroke="#000000" points="248.5,-305.7 248.5,-327.7 362.5,-327.7 362.5,-305.7 248.5,-305.7"/>
<image xlink:href="../../images/primaryKeys.png" width="11px" height="12px" preserveAspectRatio="xMinYMin meet" x="253.5" y="-322.7"/>
<text text-anchor="start" x="277.5" y="-312.8" font-family="Helvetica,sans-Serif" font-size="11.00" fill="#000000">id</text>
<polygon fill="#ffffff" stroke="transparent" points="248.5,-283.7 248.5,-305.7 362.5,-305.7 362.5,-283.7 248.5,-283.7"/>
<polygon fill="none" stroke="#000000" points="248.5,-283.7 248.5,-305.7 362.5,-305.7 362.5,-283.7 248.5,-283.7"/>
<image xlink:href="../../images/foreignKeys.png" width="11px" height="12px" preserveAspectRatio="xMinYMin meet" x="253.5" y="-300.7"/>
<text text-anchor="start" x="277.5" y="-290.8" font-family="Helvetica,sans-Serif" font-size="11.00" fill="#000000">pid</text>
<polygon fill="none" stroke="#000000" points="248.5,-264.7 248.5,-283.7 362.5,-283.7 362.5,-264.7 248.5,-264.7"/>
<text text-anchor="start" x="251.5" y="-270.8" font-family="Helvetica,sans-Serif" font-size="11.00" fill="#000000">...</text>
<polygon fill="#ffffff" stroke="transparent" points="248.5,-245.7 248.5,-264.7 299.5,-264.7 299.5,-245.7 248.5,-245.7"/>
<polygon fill="none" stroke="#000000" points="248.5,-245.7 248.5,-264.7 299.5,-264.7 299.5,-245.7 248.5,-245.7"/>
<text text-anchor="start" x="251.5" y="-251.8" font-family="Helvetica,sans-Serif" font-size="11.00" fill="#000000">&lt; 1</text>
<polygon fill="#ffffff" stroke="transparent" points="299.5,-245.7 299.5,-264.7 326.5,-264.7 326.5,-245.7 299.5,-245.7"/>
<polygon fill="none" stroke="#000000" points="299.5,-245.7 299.5,-264.7 326.5,-264.7 326.5,-245.7 299.5,-245.7"/>
<text text-anchor="start" x="317.3862" y="-251.8" font-family="Helvetica,sans-Serif" font-size="11.00" fill="#000000"> &#160;</text>
<polygon fill="#ffffff" stroke="transparent" points="326.5,-245.7 326.5,-264.7 362.5,-264.7 362.5,-245.7 326.5,-245.7"/>
<polygon fill="none" stroke="#000000" points="326.5,-245.7 326.5,-264.7 362.5,-264.7 362.5,-245.7 326.5,-245.7"/>
<text text-anchor="start" x="343.9053" y="-251.8" font-family="Helvetica,sans-Serif" font-size="11.00" fill="#000000">2 &gt;</text>
</a>
</g>
</g>
<!-- lbf_data&#45;&gt;transactions -->
<g id="edge4" class="edge">
<title>lbf_data:w&#45;&gt;transactions:e</title>
<path fill="none" stroke="#000000" d="M405.789,-204.0466C372.9673,-223.066 414.1977,-316.7 362.5,-316.7"/>
<polygon fill="#000000" stroke="#000000" points="412.213,-202.5338 420.8252,-204.2041 416.1065,-201.6169 420,-200.7 420,-200.7 420,-200.7 416.1065,-201.6169 419.1748,-197.1959 412.213,-202.5338 412.213,-202.5338"/>
<ellipse fill="none" stroke="#000000" cx="409.0982" cy="-203.2673" rx="3.2" ry="3.2"/>
</g>
<!-- patient_data -->
<g id="node7" class="node">
<title>patient_data</title>
<g id="a_node7"><a xlink:href="../../tables/patient_data.html" xlink:title="patient_data" target="_top">
<polygon fill="#ffffff" stroke="transparent" points="43,-53.2 43,-114.2 158,-114.2 158,-53.2 43,-53.2"/>
<polygon fill="#f5f5f5" stroke="transparent" points="43.5,-90.7 43.5,-113.7 158.5,-113.7 158.5,-90.7 43.5,-90.7"/>
<polygon fill="none" stroke="#000000" points="43.5,-90.7 43.5,-113.7 158.5,-113.7 158.5,-90.7 43.5,-90.7"/>
<text text-anchor="start" x="48.5" y="-99.3" font-family="Helvetica,sans-Serif" font-weight="bold" font-size="11.00" fill="#000000">patient_data</text>
<text text-anchor="start" x="124.0219" y="-98.8" font-family="Helvetica,sans-Serif" font-size="11.00" fill="#000000">[table]</text>
<polygon fill="none" stroke="#000000" points="43.5,-71.7 43.5,-90.7 158.5,-90.7 158.5,-71.7 43.5,-71.7"/>
<text text-anchor="start" x="46.5" y="-77.8" font-family="Helvetica,sans-Serif" font-size="11.00" fill="#000000">...</text>
<polygon fill="#ffffff" stroke="transparent" points="43.5,-52.7 43.5,-71.7 91.5,-71.7 91.5,-52.7 43.5,-52.7"/>
<polygon fill="none" stroke="#000000" points="43.5,-52.7 43.5,-71.7 91.5,-71.7 91.5,-52.7 43.5,-52.7"/>
<text text-anchor="start" x="46.5" y="-58.8" font-family="Helvetica,sans-Serif" font-size="11.00" fill="#000000">&lt; 9</text>
<polygon fill="#ffffff" stroke="transparent" points="91.5,-52.7 91.5,-71.7 117.5,-71.7 117.5,-52.7 91.5,-52.7"/>
<polygon fill="none" stroke="#000000" points="91.5,-52.7 91.5,-71.7 117.5,-71.7 117.5,-52.7 91.5,-52.7"/>
<text text-anchor="start" x="108.3862" y="-58.8" font-family="Helvetica,sans-Serif" font-size="11.00" fill="#000000"> &#160;</text>
<polygon fill="#ffffff" stroke="transparent" points="117.5,-52.7 117.5,-71.7 158.5,-71.7 158.5,-52.7 117.5,-52.7"/>
<polygon fill="none" stroke="#000000" points="117.5,-52.7 117.5,-71.7 158.5,-71.7 158.5,-52.7 117.5,-52.7"/>
<text text-anchor="start" x="133.7904" y="-58.8" font-family="Helvetica,sans-Serif" font-size="11.00" fill="#000000">97 &gt;</text>
</a>
</g>
</g>
<!-- transactions&#45;&gt;patient_data -->
<g id="edge9" class="edge">
<title>transactions:w&#45;&gt;patient_data:e</title>
<path fill="none" stroke="#000000" d="M233.9438,-292.9774C156.9818,-272.7248 256.2389,-80.7 158.5,-80.7"/>
<polygon fill="#000000" stroke="#000000" points="240.5554,-293.7598 248.0769,-298.2751 244.5277,-294.2299 248.5,-294.7 248.5,-294.7 248.5,-294.7 244.5277,-294.2299 248.9231,-291.1249 240.5554,-293.7598 240.5554,-293.7598"/>
<ellipse fill="none" stroke="#000000" cx="237.3776" cy="-293.3837" rx="3.2" ry="3.2"/>
</g>
<!-- lbt_data -->
<g id="node5" class="node">
<title>lbt_data</title>
<g id="a_node5"><a xlink:href="../../tables/lbt_data.html" xlink:title="lbt_data" target="_top">
<polygon fill="#ffffff" stroke="transparent" points="474.5,-278.2 474.5,-339.2 561.5,-339.2 561.5,-278.2 474.5,-278.2"/>
<polygon fill="#f5f5f5" stroke="transparent" points="475,-315.7 475,-338.7 562,-338.7 562,-315.7 475,-315.7"/>
<polygon fill="none" stroke="#000000" points="475,-315.7 475,-338.7 562,-338.7 562,-315.7 475,-315.7"/>
<text text-anchor="start" x="480" y="-324.3" font-family="Helvetica,sans-Serif" font-weight="bold" font-size="11.00" fill="#000000">lbt_data</text>
<text text-anchor="start" x="527.5219" y="-323.8" font-family="Helvetica,sans-Serif" font-size="11.00" fill="#000000">[table]</text>
<polygon fill="none" stroke="#000000" points="475,-296.7 475,-315.7 562,-315.7 562,-296.7 475,-296.7"/>
<text text-anchor="start" x="478" y="-302.8" font-family="Helvetica,sans-Serif" font-size="11.00" fill="#000000">...</text>
<polygon fill="#ffffff" stroke="transparent" points="475,-277.7 475,-296.7 517,-296.7 517,-277.7 475,-277.7"/>
<polygon fill="none" stroke="#000000" points="475,-277.7 475,-296.7 517,-296.7 517,-277.7 475,-277.7"/>
<text text-anchor="start" x="478" y="-283.8" font-family="Helvetica,sans-Serif" font-size="11.00" fill="#000000">&lt; 2</text>
<polygon fill="#ffffff" stroke="transparent" points="517,-277.7 517,-296.7 539,-296.7 539,-277.7 517,-277.7"/>
<polygon fill="none" stroke="#000000" points="517,-277.7 517,-296.7 539,-296.7 539,-277.7 517,-277.7"/>
<text text-anchor="start" x="529.8862" y="-283.8" font-family="Helvetica,sans-Serif" font-size="11.00" fill="#000000"> &#160;</text>
<polygon fill="#ffffff" stroke="transparent" points="539,-277.7 539,-296.7 562,-296.7 562,-277.7 539,-277.7"/>
<polygon fill="none" stroke="#000000" points="539,-277.7 539,-296.7 562,-296.7 562,-277.7 539,-277.7"/>
<text text-anchor="start" x="552.8862" y="-283.8" font-family="Helvetica,sans-Serif" font-size="11.00" fill="#000000"> &#160;</text>
</a>
</g>
</g>
<!-- lbt_data&#45;&gt;layout_options -->
<g id="edge5" class="edge">
<title>lbt_data:w&#45;&gt;layout_options:e</title>
<path fill="none" stroke="#000000" d="M460.6493,-304.1435C435.1328,-297.9388 430.3473,-274.0265 410,-247.7 385.8716,-216.4812 408.9562,-168.7 369.5,-168.7"/>
<polygon fill="#000000" stroke="#000000" points="467.0466,-304.8373 474.6118,-309.279 471.0233,-305.2687 475,-305.7 475,-305.7 475,-305.7 471.0233,-305.2687 475.3882,-302.121 467.0466,-304.8373 467.0466,-304.8373"/>
<ellipse fill="none" stroke="#000000" cx="463.8653" cy="-304.4923" rx="3.2" ry="3.2"/>
</g>
<!-- lbt_data&#45;&gt;transactions -->
<g id="edge6" class="edge">
<title>lbt_data:w&#45;&gt;transactions:e</title>
<path fill="none" stroke="#000000" d="M460.5423,-306.0292C421.8629,-307.8595 407.538,-316.7 362.5,-316.7"/>
<polygon fill="#000000" stroke="#000000" points="467.0021,-305.8822 475.082,-309.2991 471.001,-305.7911 475,-305.7 475,-305.7 475,-305.7 471.001,-305.7911 474.918,-302.1009 467.0021,-305.8822 467.0021,-305.8822"/>
<ellipse fill="none" stroke="#000000" cx="463.8029" cy="-305.955" rx="3.2" ry="3.2"/>
</g>
<!-- shared_attributes -->
<g id="node6" class="node">
<title>shared_attributes</title>
<g id="a_node6"><a xlink:href="../../tables/shared_attributes.html" xlink:title="shared_attributes" target="_top">
<polygon fill="#ffffff" stroke="transparent" points="445.5,-38.2 445.5,-99.2 590.5,-99.2 590.5,-38.2 445.5,-38.2"/>
<polygon fill="#f5f5f5" stroke="transparent" points="446,-75.7 446,-98.7 591,-98.7 591,-75.7 446,-75.7"/>
<polygon fill="none" stroke="#000000" points="446,-75.7 446,-98.7 591,-98.7 591,-75.7 446,-75.7"/>
<text text-anchor="start" x="451" y="-84.3" font-family="Helvetica,sans-Serif" font-weight="bold" font-size="11.00" fill="#000000">shared_attributes</text>
<text text-anchor="start" x="556.5219" y="-83.8" font-family="Helvetica,sans-Serif" font-size="11.00" fill="#000000">[table]</text>
<polygon fill="none" stroke="#000000" points="446,-56.7 446,-75.7 591,-75.7 591,-56.7 446,-56.7"/>
<text text-anchor="start" x="449" y="-62.8" font-family="Helvetica,sans-Serif" font-size="11.00" fill="#000000">...</text>
<polygon fill="#ffffff" stroke="transparent" points="446,-37.7 446,-56.7 517,-56.7 517,-37.7 446,-37.7"/>
<polygon fill="none" stroke="#000000" points="446,-37.7 446,-56.7 517,-56.7 517,-37.7 446,-37.7"/>
<text text-anchor="start" x="449" y="-43.8" font-family="Helvetica,sans-Serif" font-size="11.00" fill="#000000">&lt; 4</text>
<polygon fill="#ffffff" stroke="transparent" points="517,-37.7 517,-56.7 554,-56.7 554,-37.7 517,-37.7"/>
<polygon fill="none" stroke="#000000" points="517,-37.7 517,-56.7 554,-56.7 554,-37.7 517,-37.7"/>
<text text-anchor="start" x="544.8862" y="-43.8" font-family="Helvetica,sans-Serif" font-size="11.00" fill="#000000"> &#160;</text>
<polygon fill="#ffffff" stroke="transparent" points="554,-37.7 554,-56.7 591,-56.7 591,-37.7 554,-37.7"/>
<polygon fill="none" stroke="#000000" points="554,-37.7 554,-56.7 591,-56.7 591,-37.7 554,-37.7"/>
<text text-anchor="start" x="581.8862" y="-43.8" font-family="Helvetica,sans-Serif" font-size="11.00" fill="#000000"> &#160;</text>
</a>
</g>
</g>
<!-- shared_attributes&#45;&gt;layout_options -->
<g id="edge7" class="edge">
<title>shared_attributes:w&#45;&gt;layout_options:e</title>
<path fill="none" stroke="#000000" d="M431.8236,-68.455C395.4084,-84.8349 420.9542,-168.7 369.5,-168.7"/>
<polygon fill="#000000" stroke="#000000" points="438.1469,-67.2262 446.6868,-69.2339 442.0735,-66.4631 446,-65.7 446,-65.7 446,-65.7 442.0735,-66.4631 445.3132,-62.1661 438.1469,-67.2262 438.1469,-67.2262"/>
<ellipse fill="none" stroke="#000000" cx="435.0057" cy="-67.8367" rx="3.2" ry="3.2"/>
</g>
<!-- shared_attributes&#45;&gt;patient_data -->
<g id="edge8" class="edge">
<title>shared_attributes:w&#45;&gt;patient_data:e</title>
<path fill="none" stroke="#000000" d="M431.4037,-65.6245C348.9975,-64.7623 322.7331,-56.9708 234,-65.7 199.953,-69.0494 192.7114,-80.7 158.5,-80.7"/>
<polygon fill="#000000" stroke="#000000" points="438.0001,-65.6585 445.9813,-69.3 442.0001,-65.6793 446,-65.7 446,-65.7 446,-65.7 442.0001,-65.6793 446.0187,-62.1 438.0001,-65.6585 438.0001,-65.6585"/>
<ellipse fill="none" stroke="#000000" cx="434.8002" cy="-65.642" rx="3.2" ry="3.2"/>
</g>
</g>
</svg>
