<?xml version="1.0" encoding="UTF-8" standalone="no"?>
<!DOCTYPE svg PUBLIC "-//W3C//DTD SVG 1.1//EN"
 "http://www.w3.org/Graphics/SVG/1.1/DTD/svg11.dtd">
<!-- Generated by graphviz version 2.40.1 (20161225.0304)
 -->
<!-- Title: twoDegreesRelationshipsDiagram Pages: 1 -->
<svg width="584pt" height="355pt"
 viewBox="0.00 0.00 584.00 355.20" xmlns="http://www.w3.org/2000/svg" xmlns:xlink="http://www.w3.org/1999/xlink">
<g id="graph0" class="graph" transform="scale(1 1) rotate(0) translate(4 351.2)">
<title>twoDegreesRelationshipsDiagram</title>
<polygon fill="#ffffff" stroke="transparent" points="-4,4 -4,-351.2 580,-351.2 580,4 -4,4"/>
<text text-anchor="middle" x="72.4936" y="-7.3" font-family="Helvetica,sans-Serif" font-size="11.00" fill="#000000">Generated by SchemaSpy</text>
<!-- layout_options -->
<g id="node1" class="node">
<title>layout_options</title>
<g id="a_node1"><a xlink:href="../../tables/layout_options.html" xlink:title="layout_options" target="_top">
<polygon fill="#ffffff" stroke="transparent" points="242,-68.2 242,-217.2 369,-217.2 369,-68.2 242,-68.2"/>
<polygon fill="#f5f5f5" stroke="transparent" points="242.5,-193.7 242.5,-216.7 369.5,-216.7 369.5,-193.7 242.5,-193.7"/>
<polygon fill="none" stroke="#000000" points="242.5,-193.7 242.5,-216.7 369.5,-216.7 369.5,-193.7 242.5,-193.7"/>
<text text-anchor="start" x="247.5" y="-202.3" font-family="Helvetica,sans-Serif" font-weight="bold" font-size="11.00" fill="#000000">layout_options</text>
<text text-anchor="start" x="335.0219" y="-201.8" font-family="Helvetica,sans-Serif" font-size="11.00" fill="#000000">[table]</text>
<polygon fill="none" stroke="#000000" points="242.5,-171.7 242.5,-193.7 369.5,-193.7 369.5,-171.7 242.5,-171.7"/>
<image xlink:href="../../images/primaryKeys.png" width="11px" height="12px" preserveAspectRatio="xMinYMin meet" x="247.5" y="-188.7"/>
<text text-anchor="start" x="271.5" y="-178.8" font-family="Helvetica,sans-Serif" font-size="11.00" fill="#000000">form_id</text>
<polygon fill="none" stroke="#000000" points="242.5,-149.7 242.5,-171.7 369.5,-171.7 369.5,-149.7 242.5,-149.7"/>
<image xlink:href="../../images/primaryKeys.png" width="11px" height="12px" preserveAspectRatio="xMinYMin meet" x="247.5" y="-166.7"/>
<text text-anchor="start" x="271.5" y="-156.8" font-family="Helvetica,sans-Serif" font-size="11.00" fill="#000000">field_id</text>
<polygon fill="none" stroke="#000000" points="242.5,-127.7 242.5,-149.7 369.5,-149.7 369.5,-127.7 242.5,-127.7"/>
<image xlink:href="../../images/foreignKeys.png" width="11px" height="12px" preserveAspectRatio="xMinYMin meet" x="247.5" y="-144.7"/>
<text text-anchor="start" x="271.5" y="-134.8" font-family="Helvetica,sans-Serif" font-size="11.00" fill="#000000">group_id</text>
<polygon fill="none" stroke="#000000" points="242.5,-105.7 242.5,-127.7 369.5,-127.7 369.5,-105.7 242.5,-105.7"/>
<image xlink:href="../../images/primaryKeys.png" width="11px" height="12px" preserveAspectRatio="xMinYMin meet" x="247.5" y="-122.7"/>
<text text-anchor="start" x="271.5" y="-112.8" font-family="Helvetica,sans-Serif" font-size="11.00" fill="#000000">seq</text>
<polygon fill="none" stroke="#000000" points="242.5,-86.7 242.5,-105.7 369.5,-105.7 369.5,-86.7 242.5,-86.7"/>
<text text-anchor="start" x="245.5" y="-92.8" font-family="Helvetica,sans-Serif" font-size="11.00" fill="#000000">...</text>
<polygon fill="#ffffff" stroke="transparent" points="242.5,-67.7 242.5,-86.7 299.5,-86.7 299.5,-67.7 242.5,-67.7"/>
<polygon fill="none" stroke="#000000" points="242.5,-67.7 242.5,-86.7 299.5,-86.7 299.5,-67.7 242.5,-67.7"/>
<text text-anchor="start" x="245.5" y="-73.8" font-family="Helvetica,sans-Serif" font-size="11.00" fill="#000000">&lt; 2</text>
<polygon fill="#ffffff" stroke="transparent" points="299.5,-67.7 299.5,-86.7 329.5,-86.7 329.5,-67.7 299.5,-67.7"/>
<polygon fill="none" stroke="#000000" points="299.5,-67.7 299.5,-86.7 329.5,-86.7 329.5,-67.7 299.5,-67.7"/>
<text text-anchor="start" x="320.3862" y="-73.8" font-family="Helvetica,sans-Serif" font-size="11.00" fill="#000000"> &#160;</text>
<polygon fill="#ffffff" stroke="transparent" points="329.5,-67.7 329.5,-86.7 369.5,-86.7 369.5,-67.7 329.5,-67.7"/>
<polygon fill="none" stroke="#000000" points="329.5,-67.7 329.5,-86.7 369.5,-86.7 369.5,-67.7 329.5,-67.7"/>
<text text-anchor="start" x="350.9053" y="-73.8" font-family="Helvetica,sans-Serif" font-size="11.00" fill="#000000">3 &gt;</text>
</a>
</g>
</g>
<!-- layout_group_properties -->
<g id="node2" class="node">
<title>layout_group_properties</title>
<g id="a_node2"><a xlink:href="../../tables/layout_group_properties.html" xlink:title="layout_group_properties" target="_top">
<polygon fill="#ffffff" stroke="transparent" points="8,-133.2 8,-194.2 193,-194.2 193,-133.2 8,-133.2"/>
<polygon fill="#f5f5f5" stroke="transparent" points="8.5,-170.7 8.5,-193.7 193.5,-193.7 193.5,-170.7 8.5,-170.7"/>
<polygon fill="none" stroke="#000000" points="8.5,-170.7 8.5,-193.7 193.5,-193.7 193.5,-170.7 8.5,-170.7"/>
<text text-anchor="start" x="13.5" y="-179.3" font-family="Helvetica,sans-Serif" font-weight="bold" font-size="11.00" fill="#000000">layout_group_properties</text>
<text text-anchor="start" x="159.0219" y="-178.8" font-family="Helvetica,sans-Serif" font-size="11.00" fill="#000000">[table]</text>
<polygon fill="none" stroke="#000000" points="8.5,-151.7 8.5,-170.7 193.5,-170.7 193.5,-151.7 8.5,-151.7"/>
<text text-anchor="start" x="11.5" y="-157.8" font-family="Helvetica,sans-Serif" font-size="11.00" fill="#000000">...</text>
<polygon fill="#ffffff" stroke="transparent" points="8.5,-132.7 8.5,-151.7 90.5,-151.7 90.5,-132.7 8.5,-132.7"/>
<polygon fill="none" stroke="#000000" points="8.5,-132.7 8.5,-151.7 90.5,-151.7 90.5,-132.7 8.5,-132.7"/>
<text text-anchor="start" x="11.5" y="-138.8" font-family="Helvetica,sans-Serif" font-size="11.00" fill="#000000"> &#160;</text>
<polygon fill="#ffffff" stroke="transparent" points="90.5,-132.7 90.5,-151.7 137.5,-151.7 137.5,-132.7 90.5,-132.7"/>
<polygon fill="none" stroke="#000000" points="90.5,-132.7 90.5,-151.7 137.5,-151.7 137.5,-132.7 90.5,-132.7"/>
<text text-anchor="start" x="128.3862" y="-138.8" font-family="Helvetica,sans-Serif" font-size="11.00" fill="#000000"> &#160;</text>
<polygon fill="#ffffff" stroke="transparent" points="137.5,-132.7 137.5,-151.7 193.5,-151.7 193.5,-132.7 137.5,-132.7"/>
<polygon fill="none" stroke="#000000" points="137.5,-132.7 137.5,-151.7 193.5,-151.7 193.5,-132.7 137.5,-132.7"/>
<text text-anchor="start" x="174.9053" y="-138.8" font-family="Helvetica,sans-Serif" font-size="11.00" fill="#000000">2 &gt;</text>
</a>
</g>
</g>
<!-- layout_options&#45;&gt;layout_group_properties -->
<g id="edge1" class="edge">
<title>layout_options:w&#45;&gt;layout_group_properties:e</title>
<path fill="none" stroke="#000000" d="M228.1297,-179.2625C216.5865,-173.075 211.4041,-160.7 193.5,-160.7"/>
<polygon fill="#000000" stroke="#000000" points="234.7195,-180.8388 241.6625,-186.2012 238.6098,-181.7694 242.5,-182.7 242.5,-182.7 242.5,-182.7 238.6098,-181.7694 243.3375,-179.1988 234.7195,-180.8388 234.7195,-180.8388"/>
<ellipse fill="none" stroke="#000000" cx="231.6073" cy="-180.0943" rx="3.2" ry="3.2"/>
</g>
<!-- layout_options&#45;&gt;layout_group_properties -->
<g id="edge2" class="edge">
<title>layout_options:w&#45;&gt;layout_group_properties:e</title>
<path fill="none" stroke="#000000" d="M228.1297,-142.1375C216.5865,-148.325 211.4041,-160.7 193.5,-160.7"/>
<polygon fill="#000000" stroke="#000000" points="234.7195,-140.5612 243.3375,-142.2012 238.6098,-139.6306 242.5,-138.7 242.5,-138.7 242.5,-138.7 238.6098,-139.6306 241.6625,-135.1988 234.7195,-140.5612 234.7195,-140.5612"/>
<ellipse fill="none" stroke="#000000" cx="231.6073" cy="-141.3057" rx="3.2" ry="3.2"/>
</g>
<!-- lbf_data -->
<g id="node3" class="node">
<title>lbf_data</title>
<g id="a_node3"><a xlink:href="../../tables/lbf_data.html" xlink:title="lbf_data" target="_top">
<polygon fill="#ffffff" stroke="transparent" points="449.5,-137.2 449.5,-198.2 536.5,-198.2 536.5,-137.2 449.5,-137.2"/>
<polygon fill="#f5f5f5" stroke="transparent" points="450,-174.7 450,-197.7 537,-197.7 537,-174.7 450,-174.7"/>
<polygon fill="none" stroke="#000000" points="450,-174.7 450,-197.7 537,-197.7 537,-174.7 450,-174.7"/>
<text text-anchor="start" x="455" y="-183.3" font-family="Helvetica,sans-Serif" font-weight="bold" font-size="11.00" fill="#000000">lbf_data</text>
<text text-anchor="start" x="502.5219" y="-182.8" font-family="Helvetica,sans-Serif" font-size="11.00" fill="#000000">[table]</text>
<polygon fill="none" stroke="#000000" points="450,-155.7 450,-174.7 537,-174.7 537,-155.7 450,-155.7"/>
<text text-anchor="start" x="453" y="-161.8" font-family="Helvetica,sans-Serif" font-size="11.00" fill="#000000">...</text>
<polygon fill="#ffffff" stroke="transparent" points="450,-136.7 450,-155.7 492,-155.7 492,-136.7 450,-136.7"/>
<polygon fill="none" stroke="#000000" points="450,-136.7 450,-155.7 492,-155.7 492,-136.7 450,-136.7"/>
<text text-anchor="start" x="453" y="-142.8" font-family="Helvetica,sans-Serif" font-size="11.00" fill="#000000">&lt; 2</text>
<polygon fill="#ffffff" stroke="transparent" points="492,-136.7 492,-155.7 514,-155.7 514,-136.7 492,-136.7"/>
<polygon fill="none" stroke="#000000" points="492,-136.7 492,-155.7 514,-155.7 514,-136.7 492,-136.7"/>
<text text-anchor="start" x="504.8862" y="-142.8" font-family="Helvetica,sans-Serif" font-size="11.00" fill="#000000"> &#160;</text>
<polygon fill="#ffffff" stroke="transparent" points="514,-136.7 514,-155.7 537,-155.7 537,-136.7 514,-136.7"/>
<polygon fill="none" stroke="#000000" points="514,-136.7 514,-155.7 537,-155.7 537,-136.7 514,-136.7"/>
<text text-anchor="start" x="527.8862" y="-142.8" font-family="Helvetica,sans-Serif" font-size="11.00" fill="#000000"> &#160;</text>
</a>
</g>
</g>
<!-- lbf_data&#45;&gt;layout_options -->
<g id="edge3" class="edge">
<title>lbf_data:w&#45;&gt;layout_options:e</title>
<path fill="none" stroke="#000000" d="M435.3151,-164.4498C410.8539,-163.5741 399.8647,-160.7 369.5,-160.7"/>
<polygon fill="#000000" stroke="#000000" points="442.0012,-164.5637 449.9386,-168.2995 446.0006,-164.6318 450,-164.7 450,-164.7 450,-164.7 446.0006,-164.6318 450.0614,-161.1005 442.0012,-164.5637 442.0012,-164.5637"/>
<ellipse fill="none" stroke="#000000" cx="438.8016" cy="-164.5091" rx="3.2" ry="3.2"/>
</g>
<!-- transactions -->
<g id="node4" class="node">
<title>transactions</title>
<g id="a_node4"><a xlink:href="../../tables/transactions.html" xlink:title="transactions" target="_top">
<polygon fill="#ffffff" stroke="transparent" points="248.5,-238.2 248.5,-343.2 362.5,-343.2 362.5,-238.2 248.5,-238.2"/>
<polygon fill="#f5f5f5" stroke="transparent" points="248.5,-319.7 248.5,-342.7 362.5,-342.7 362.5,-319.7 248.5,-319.7"/>
<polygon fill="none" stroke="#000000" points="248.5,-319.7 248.5,-342.7 362.5,-342.7 362.5,-319.7 248.5,-319.7"/>
<text text-anchor="start" x="253.5" y="-328.3" font-family="Helvetica,sans-Serif" font-weight="bold" font-size="11.00" fill="#000000">transactions</text>
<text text-anchor="start" x="328.0219" y="-327.8" font-family="Helvetica,sans-Serif" font-size="11.00" fill="#000000">[table]</text>
<polygon fill="none" stroke="#000000" points="248.5,-297.7 248.5,-319.7 362.5,-319.7 362.5,-297.7 248.5,-297.7"/>
<image xlink:href="../../images/primaryKeys.png" width="11px" height="12px" preserveAspectRatio="xMinYMin meet" x="253.5" y="-314.7"/>
<text text-anchor="start" x="277.5" y="-304.8" font-family="Helvetica,sans-Serif" font-size="11.00" fill="#000000">id</text>
<polygon fill="#ffffff" stroke="transparent" points="248.5,-275.7 248.5,-297.7 362.5,-297.7 362.5,-275.7 248.5,-275.7"/>
<polygon fill="none" stroke="#000000" points="248.5,-275.7 248.5,-297.7 362.5,-297.7 362.5,-275.7 248.5,-275.7"/>
<image xlink:href="../../images/foreignKeys.png" width="11px" height="12px" preserveAspectRatio="xMinYMin meet" x="253.5" y="-292.7"/>
<text text-anchor="start" x="277.5" y="-282.8" font-family="Helvetica,sans-Serif" font-size="11.00" fill="#000000">pid</text>
<polygon fill="none" stroke="#000000" points="248.5,-256.7 248.5,-275.7 362.5,-275.7 362.5,-256.7 248.5,-256.7"/>
<text text-anchor="start" x="251.5" y="-262.8" font-family="Helvetica,sans-Serif" font-size="11.00" fill="#000000">...</text>
<polygon fill="#ffffff" stroke="transparent" points="248.5,-237.7 248.5,-256.7 299.5,-256.7 299.5,-237.7 248.5,-237.7"/>
<polygon fill="none" stroke="#000000" points="248.5,-237.7 248.5,-256.7 299.5,-256.7 299.5,-237.7 248.5,-237.7"/>
<text text-anchor="start" x="251.5" y="-243.8" font-family="Helvetica,sans-Serif" font-size="11.00" fill="#000000">&lt; 1</text>
<polygon fill="#ffffff" stroke="transparent" points="299.5,-237.7 299.5,-256.7 326.5,-256.7 326.5,-237.7 299.5,-237.7"/>
<polygon fill="none" stroke="#000000" points="299.5,-237.7 299.5,-256.7 326.5,-256.7 326.5,-237.7 299.5,-237.7"/>
<text text-anchor="start" x="317.3862" y="-243.8" font-family="Helvetica,sans-Serif" font-size="11.00" fill="#000000"> &#160;</text>
<polygon fill="#ffffff" stroke="transparent" points="326.5,-237.7 326.5,-256.7 362.5,-256.7 362.5,-237.7 326.5,-237.7"/>
<polygon fill="none" stroke="#000000" points="326.5,-237.7 326.5,-256.7 362.5,-256.7 362.5,-237.7 326.5,-237.7"/>
<text text-anchor="start" x="343.9053" y="-243.8" font-family="Helvetica,sans-Serif" font-size="11.00" fill="#000000">2 &gt;</text>
</a>
</g>
</g>
<!-- lbf_data&#45;&gt;transactions -->
<g id="edge4" class="edge">
<title>lbf_data:w&#45;&gt;transactions:e</title>
<path fill="none" stroke="#000000" d="M435.4801,-166.9619C383.5999,-185.2818 431.8307,-308.7 362.5,-308.7"/>
<polygon fill="#000000" stroke="#000000" points="442.0953,-165.9314 450.5541,-168.2571 446.0477,-165.3157 450,-164.7 450,-164.7 450,-164.7 446.0477,-165.3157 449.4459,-161.1429 442.0953,-165.9314 442.0953,-165.9314"/>
<ellipse fill="none" stroke="#000000" cx="438.9335" cy="-166.424" rx="3.2" ry="3.2"/>
</g>
<!-- patient_data -->
<g id="node7" class="node">
<title>patient_data</title>
<g id="a_node7"><a xlink:href="../../tables/patient_data.html" xlink:title="patient_data" target="_top">
<polygon fill="#ffffff" stroke="transparent" points="43,-45.2 43,-106.2 158,-106.2 158,-45.2 43,-45.2"/>
<polygon fill="#f5f5f5" stroke="transparent" points="43.5,-82.7 43.5,-105.7 158.5,-105.7 158.5,-82.7 43.5,-82.7"/>
<polygon fill="none" stroke="#000000" points="43.5,-82.7 43.5,-105.7 158.5,-105.7 158.5,-82.7 43.5,-82.7"/>
<text text-anchor="start" x="48.5" y="-91.3" font-family="Helvetica,sans-Serif" font-weight="bold" font-size="11.00" fill="#000000">patient_data</text>
<text text-anchor="start" x="124.0219" y="-90.8" font-family="Helvetica,sans-Serif" font-size="11.00" fill="#000000">[table]</text>
<polygon fill="none" stroke="#000000" points="43.5,-63.7 43.5,-82.7 158.5,-82.7 158.5,-63.7 43.5,-63.7"/>
<text text-anchor="start" x="46.5" y="-69.8" font-family="Helvetica,sans-Serif" font-size="11.00" fill="#000000">...</text>
<polygon fill="#ffffff" stroke="transparent" points="43.5,-44.7 43.5,-63.7 91.5,-63.7 91.5,-44.7 43.5,-44.7"/>
<polygon fill="none" stroke="#000000" points="43.5,-44.7 43.5,-63.7 91.5,-63.7 91.5,-44.7 43.5,-44.7"/>
<text text-anchor="start" x="46.5" y="-50.8" font-family="Helvetica,sans-Serif" font-size="11.00" fill="#000000">&lt; 9</text>
<polygon fill="#ffffff" stroke="transparent" points="91.5,-44.7 91.5,-63.7 117.5,-63.7 117.5,-44.7 91.5,-44.7"/>
<polygon fill="none" stroke="#000000" points="91.5,-44.7 91.5,-63.7 117.5,-63.7 117.5,-44.7 91.5,-44.7"/>
<text text-anchor="start" x="108.3862" y="-50.8" font-family="Helvetica,sans-Serif" font-size="11.00" fill="#000000"> &#160;</text>
<polygon fill="#ffffff" stroke="transparent" points="117.5,-44.7 117.5,-63.7 158.5,-63.7 158.5,-44.7 117.5,-44.7"/>
<polygon fill="none" stroke="#000000" points="117.5,-44.7 117.5,-63.7 158.5,-63.7 158.5,-44.7 117.5,-44.7"/>
<text text-anchor="start" x="133.7904" y="-50.8" font-family="Helvetica,sans-Serif" font-size="11.00" fill="#000000">97 &gt;</text>
</a>
</g>
</g>
<!-- transactions&#45;&gt;patient_data -->
<g id="edge9" class="edge">
<title>transactions:w&#45;&gt;patient_data:e</title>
<path fill="none" stroke="#000000" d="M233.9438,-284.9774C156.9818,-264.7248 256.2389,-72.7 158.5,-72.7"/>
<polygon fill="#000000" stroke="#000000" points="240.5554,-285.7598 248.0769,-290.2751 244.5277,-286.2299 248.5,-286.7 248.5,-286.7 248.5,-286.7 244.5277,-286.2299 248.9231,-283.1249 240.5554,-285.7598 240.5554,-285.7598"/>
<ellipse fill="none" stroke="#000000" cx="237.3776" cy="-285.3837" rx="3.2" ry="3.2"/>
</g>
<!-- lbt_data -->
<g id="node5" class="node">
<title>lbt_data</title>
<g id="a_node5"><a xlink:href="../../tables/lbt_data.html" xlink:title="lbt_data" target="_top">
<polygon fill="#ffffff" stroke="transparent" points="418,-227.7 418,-339.7 568,-339.7 568,-227.7 418,-227.7"/>
<polygon fill="#f5f5f5" stroke="transparent" points="420,-314.7 420,-337.7 566,-337.7 566,-314.7 420,-314.7"/>
<polygon fill="none" stroke="#000000" points="420,-314.7 420,-337.7 566,-337.7 566,-314.7 420,-314.7"/>
<text text-anchor="start" x="425" y="-323.3" font-family="Helvetica,sans-Serif" font-weight="bold" font-size="11.00" fill="#000000">lbt_data</text>
<text text-anchor="start" x="531.0437" y="-322.8" font-family="Helvetica,sans-Serif" font-size="11.00" fill="#000000">[table]</text>
<polygon fill="none" stroke="#000000" points="420,-292.7 420,-314.7 505,-314.7 505,-292.7 420,-292.7"/>
<image xlink:href="../../images/primaryKeys.png" width="11px" height="12px" preserveAspectRatio="xMinYMin meet" x="425" y="-309.7"/>
<text text-anchor="start" x="440" y="-299.8" font-family="Helvetica,sans-Serif" font-size="11.00" fill="#000000">form_id</text>
<polygon fill="none" stroke="#000000" points="505,-292.7 505,-314.7 566,-314.7 566,-292.7 505,-292.7"/>
<text text-anchor="start" x="508" y="-300.4" font-family="Helvetica,sans-Serif" font-size="11.00" fill="#000000">bigint[19]</text>
<polygon fill="none" stroke="#000000" points="420,-270.7 420,-292.7 505,-292.7 505,-270.7 420,-270.7"/>
<image xlink:href="../../images/primaryKeys.png" width="11px" height="12px" preserveAspectRatio="xMinYMin meet" x="425" y="-287.7"/>
<text text-anchor="start" x="440" y="-277.8" font-family="Helvetica,sans-Serif" font-size="11.00" fill="#000000">field_id</text>
<polygon fill="none" stroke="#000000" points="505,-270.7 505,-292.7 566,-292.7 566,-270.7 505,-270.7"/>
<text text-anchor="start" x="507.994" y="-278.4" font-family="Helvetica,sans-Serif" font-size="11.00" fill="#000000">varchar[31]</text>
<polygon fill="none" stroke="#000000" points="420,-248.7 420,-270.7 505,-270.7 505,-248.7 420,-248.7"/>
<text text-anchor="start" x="440" y="-255.8" font-family="Helvetica,sans-Serif" font-size="11.00" fill="#000000">field_value</text>
<polygon fill="none" stroke="#000000" points="505,-248.7 505,-270.7 566,-270.7 566,-248.7 505,-248.7"/>
<text text-anchor="start" x="508" y="-256.4" font-family="Helvetica,sans-Serif" font-size="11.00" fill="#000000">text[65535]</text>
<polygon fill="#ffffff" stroke="transparent" points="420,-229.7 420,-248.7 467,-248.7 467,-229.7 420,-229.7"/>
<polygon fill="none" stroke="#000000" points="420,-229.7 420,-248.7 467,-248.7 467,-229.7 420,-229.7"/>
<text text-anchor="start" x="423" y="-235.8" font-family="Helvetica,sans-Serif" font-size="11.00" fill="#000000">&lt; 2</text>
<polygon fill="#ffffff" stroke="transparent" points="467,-229.7 467,-248.7 505,-248.7 505,-229.7 467,-229.7"/>
<polygon fill="none" stroke="#000000" points="467,-229.7 467,-248.7 505,-248.7 505,-229.7 467,-229.7"/>
<text text-anchor="start" x="495.8862" y="-235.8" font-family="Helvetica,sans-Serif" font-size="11.00" fill="#000000"> &#160;</text>
<polygon fill="#ffffff" stroke="transparent" points="505,-229.7 505,-248.7 566,-248.7 566,-229.7 505,-229.7"/>
<polygon fill="none" stroke="#000000" points="505,-229.7 505,-248.7 566,-248.7 566,-229.7 505,-229.7"/>
<text text-anchor="start" x="547.4053" y="-235.8" font-family="Helvetica,sans-Serif" font-size="11.00" fill="#000000">0 &gt;</text>
<polygon fill="none" stroke="#000000" stroke-width="2" points="419,-228.7 419,-338.7 567,-338.7 567,-228.7 419,-228.7"/>
</a>
</g>
</g>
<!-- lbt_data&#45;&gt;layout_options -->
<g id="edge5" class="edge">
<title>lbt_data:w&#45;&gt;layout_options:e</title>
<path fill="none" stroke="#000000" d="M405.8314,-278.2092C373.8599,-258.37 421.8551,-160.7 369.5,-160.7"/>
<polygon fill="#000000" stroke="#000000" points="412.2323,-279.7862 419.1388,-285.1955 416.1161,-280.7431 420,-281.7 420,-281.7 420,-281.7 416.1161,-280.7431 420.8612,-278.2045 412.2323,-279.7862 412.2323,-279.7862"/>
<ellipse fill="none" stroke="#000000" cx="409.1252" cy="-279.0207" rx="3.2" ry="3.2"/>
</g>
<!-- lbt_data&#45;&gt;transactions -->
<g id="edge6" class="edge">
<title>lbt_data:w&#45;&gt;transactions:e</title>
<path fill="none" stroke="#000000" d="M405.5516,-304.3131C390.7063,-305.6482 382.5406,-308.7 362.5,-308.7"/>
<polygon fill="#000000" stroke="#000000" points="412.0072,-304.0392 420.1526,-307.2968 416.0036,-303.8696 420,-303.7 420,-303.7 420,-303.7 416.0036,-303.8696 419.8474,-300.1032 412.0072,-304.0392 412.0072,-304.0392"/>
<ellipse fill="none" stroke="#000000" cx="408.8101" cy="-304.1749" rx="3.2" ry="3.2"/>
</g>
<!-- shared_attributes -->
<g id="node6" class="node">
<title>shared_attributes</title>
<g id="a_node6"><a xlink:href="../../tables/shared_attributes.html" xlink:title="shared_attributes" target="_top">
<polygon fill="#ffffff" stroke="transparent" points="420.5,-38.2 420.5,-99.2 565.5,-99.2 565.5,-38.2 420.5,-38.2"/>
<polygon fill="#f5f5f5" stroke="transparent" points="421,-75.7 421,-98.7 566,-98.7 566,-75.7 421,-75.7"/>
<polygon fill="none" stroke="#000000" points="421,-75.7 421,-98.7 566,-98.7 566,-75.7 421,-75.7"/>
<text text-anchor="start" x="426" y="-84.3" font-family="Helvetica,sans-Serif" font-weight="bold" font-size="11.00" fill="#000000">shared_attributes</text>
<text text-anchor="start" x="531.5219" y="-83.8" font-family="Helvetica,sans-Serif" font-size="11.00" fill="#000000">[table]</text>
<polygon fill="none" stroke="#000000" points="421,-56.7 421,-75.7 566,-75.7 566,-56.7 421,-56.7"/>
<text text-anchor="start" x="424" y="-62.8" font-family="Helvetica,sans-Serif" font-size="11.00" fill="#000000">...</text>
<polygon fill="#ffffff" stroke="transparent" points="421,-37.7 421,-56.7 492,-56.7 492,-37.7 421,-37.7"/>
<polygon fill="none" stroke="#000000" points="421,-37.7 421,-56.7 492,-56.7 492,-37.7 421,-37.7"/>
<text text-anchor="start" x="424" y="-43.8" font-family="Helvetica,sans-Serif" font-size="11.00" fill="#000000">&lt; 4</text>
<polygon fill="#ffffff" stroke="transparent" points="492,-37.7 492,-56.7 529,-56.7 529,-37.7 492,-37.7"/>
<polygon fill="none" stroke="#000000" points="492,-37.7 492,-56.7 529,-56.7 529,-37.7 492,-37.7"/>
<text text-anchor="start" x="519.8862" y="-43.8" font-family="Helvetica,sans-Serif" font-size="11.00" fill="#000000"> &#160;</text>
<polygon fill="#ffffff" stroke="transparent" points="529,-37.7 529,-56.7 566,-56.7 566,-37.7 529,-37.7"/>
<polygon fill="none" stroke="#000000" points="529,-37.7 529,-56.7 566,-56.7 566,-37.7 529,-37.7"/>
<text text-anchor="start" x="556.8862" y="-43.8" font-family="Helvetica,sans-Serif" font-size="11.00" fill="#000000"> &#160;</text>
</a>
</g>
</g>
<!-- shared_attributes&#45;&gt;layout_options -->
<g id="edge7" class="edge">
<title>shared_attributes:w&#45;&gt;layout_options:e</title>
<path fill="none" stroke="#000000" d="M406.9679,-69.782C382.6648,-87.9656 411.5238,-160.7 369.5,-160.7"/>
<polygon fill="#000000" stroke="#000000" points="413.3184,-67.9347 422.0056,-69.1567 417.1592,-66.8173 421,-65.7 421,-65.7 421,-65.7 417.1592,-66.8173 419.9944,-62.2433 413.3184,-67.9347 413.3184,-67.9347"/>
<ellipse fill="none" stroke="#000000" cx="410.2458" cy="-68.8285" rx="3.2" ry="3.2"/>
</g>
<!-- shared_attributes&#45;&gt;patient_data -->
<g id="edge8" class="edge">
<title>shared_attributes:w&#45;&gt;patient_data:e</title>
<path fill="none" stroke="#000000" d="M406.5973,-64.3353C397.1908,-62.4003 390.919,-58.9551 377,-57.7 313.7013,-51.9924 297.2502,-51.4777 234,-57.7 199.953,-61.0494 192.7114,-72.7 158.5,-72.7"/>
<polygon fill="#000000" stroke="#000000" points="413.0357,-64.9453 420.6604,-69.2839 417.0178,-65.3226 421,-65.7 421,-65.7 421,-65.7 417.0178,-65.3226 421.3396,-62.1161 413.0357,-64.9453 413.0357,-64.9453"/>
<ellipse fill="none" stroke="#000000" cx="409.8499" cy="-64.6434" rx="3.2" ry="3.2"/>
</g>
</g>
</svg>
