<?xml version="1.0" encoding="UTF-8" standalone="no"?>
<!DOCTYPE svg PUBLIC "-//W3C//DTD SVG 1.1//EN"
 "http://www.w3.org/Graphics/SVG/1.1/DTD/svg11.dtd">
<!-- Generated by graphviz version 2.40.1 (20161225.0304)
 -->
<!-- Title: twoDegreesRelationshipsDiagram Pages: 1 -->
<svg width="622pt" height="355pt"
 viewBox="0.00 0.00 622.00 355.20" xmlns="http://www.w3.org/2000/svg" xmlns:xlink="http://www.w3.org/1999/xlink">
<g id="graph0" class="graph" transform="scale(1 1) rotate(0) translate(4 351.2)">
<title>twoDegreesRelationshipsDiagram</title>
<polygon fill="#ffffff" stroke="transparent" points="-4,4 -4,-351.2 618,-351.2 618,4 -4,4"/>
<text text-anchor="middle" x="72.4936" y="-7.3" font-family="Helvetica,sans-Serif" font-size="11.00" fill="#000000">Generated by SchemaSpy</text>
<!-- layout_options -->
<g id="node1" class="node">
<title>layout_options</title>
<g id="a_node1"><a xlink:href="../../tables/layout_options.html" xlink:title="layout_options" target="_top">
<polygon fill="#ffffff" stroke="transparent" points="260,-68.2 260,-217.2 398,-217.2 398,-68.2 260,-68.2"/>
<polygon fill="#f5f5f5" stroke="transparent" points="260,-193.7 260,-216.7 398,-216.7 398,-193.7 260,-193.7"/>
<polygon fill="none" stroke="#000000" points="260,-193.7 260,-216.7 398,-216.7 398,-193.7 260,-193.7"/>
<text text-anchor="start" x="265" y="-202.3" font-family="Helvetica,sans-Serif" font-weight="bold" font-size="11.00" fill="#000000">layout_options</text>
<text text-anchor="start" x="363.5219" y="-201.8" font-family="Helvetica,sans-Serif" font-size="11.00" fill="#000000">[table]</text>
<polygon fill="none" stroke="#000000" points="260,-171.7 260,-193.7 398,-193.7 398,-171.7 260,-171.7"/>
<image xlink:href="../../images/primaryKeys.png" width="11px" height="12px" preserveAspectRatio="xMinYMin meet" x="265" y="-188.7"/>
<text text-anchor="start" x="289" y="-178.8" font-family="Helvetica,sans-Serif" font-size="11.00" fill="#000000">form_id</text>
<polygon fill="none" stroke="#000000" points="260,-149.7 260,-171.7 398,-171.7 398,-149.7 260,-149.7"/>
<image xlink:href="../../images/primaryKeys.png" width="11px" height="12px" preserveAspectRatio="xMinYMin meet" x="265" y="-166.7"/>
<text text-anchor="start" x="289" y="-156.8" font-family="Helvetica,sans-Serif" font-size="11.00" fill="#000000">field_id</text>
<polygon fill="none" stroke="#000000" points="260,-127.7 260,-149.7 398,-149.7 398,-127.7 260,-127.7"/>
<image xlink:href="../../images/foreignKeys.png" width="11px" height="12px" preserveAspectRatio="xMinYMin meet" x="265" y="-144.7"/>
<text text-anchor="start" x="289" y="-134.8" font-family="Helvetica,sans-Serif" font-size="11.00" fill="#000000">group_id</text>
<polygon fill="none" stroke="#000000" points="260,-105.7 260,-127.7 398,-127.7 398,-105.7 260,-105.7"/>
<image xlink:href="../../images/primaryKeys.png" width="11px" height="12px" preserveAspectRatio="xMinYMin meet" x="265" y="-122.7"/>
<text text-anchor="start" x="289" y="-112.8" font-family="Helvetica,sans-Serif" font-size="11.00" fill="#000000">seq</text>
<polygon fill="none" stroke="#000000" points="260,-86.7 260,-105.7 398,-105.7 398,-86.7 260,-86.7"/>
<text text-anchor="start" x="263" y="-92.8" font-family="Helvetica,sans-Serif" font-size="11.00" fill="#000000">...</text>
<polygon fill="#ffffff" stroke="transparent" points="260,-67.7 260,-86.7 323,-86.7 323,-67.7 260,-67.7"/>
<polygon fill="none" stroke="#000000" points="260,-67.7 260,-86.7 323,-86.7 323,-67.7 260,-67.7"/>
<text text-anchor="start" x="263" y="-73.8" font-family="Helvetica,sans-Serif" font-size="11.00" fill="#000000">&lt; 2</text>
<polygon fill="#ffffff" stroke="transparent" points="323,-67.7 323,-86.7 356,-86.7 356,-67.7 323,-67.7"/>
<polygon fill="none" stroke="#000000" points="323,-67.7 323,-86.7 356,-86.7 356,-67.7 323,-67.7"/>
<text text-anchor="start" x="346.8862" y="-73.8" font-family="Helvetica,sans-Serif" font-size="11.00" fill="#000000"> &#160;</text>
<polygon fill="#ffffff" stroke="transparent" points="356,-67.7 356,-86.7 398,-86.7 398,-67.7 356,-67.7"/>
<polygon fill="none" stroke="#000000" points="356,-67.7 356,-86.7 398,-86.7 398,-67.7 356,-67.7"/>
<text text-anchor="start" x="379.4053" y="-73.8" font-family="Helvetica,sans-Serif" font-size="11.00" fill="#000000">3 &gt;</text>
</a>
</g>
</g>
<!-- layout_group_properties -->
<g id="node2" class="node">
<title>layout_group_properties</title>
<g id="a_node2"><a xlink:href="../../tables/layout_group_properties.html" xlink:title="layout_group_properties" target="_top">
<polygon fill="#ffffff" stroke="transparent" points="8,-133.2 8,-194.2 211,-194.2 211,-133.2 8,-133.2"/>
<polygon fill="#f5f5f5" stroke="transparent" points="8.5,-170.7 8.5,-193.7 211.5,-193.7 211.5,-170.7 8.5,-170.7"/>
<polygon fill="none" stroke="#000000" points="8.5,-170.7 8.5,-193.7 211.5,-193.7 211.5,-170.7 8.5,-170.7"/>
<text text-anchor="start" x="13.5" y="-179.3" font-family="Helvetica,sans-Serif" font-weight="bold" font-size="11.00" fill="#000000">layout_group_properties</text>
<text text-anchor="start" x="177.0219" y="-178.8" font-family="Helvetica,sans-Serif" font-size="11.00" fill="#000000">[table]</text>
<polygon fill="none" stroke="#000000" points="8.5,-151.7 8.5,-170.7 211.5,-170.7 211.5,-151.7 8.5,-151.7"/>
<text text-anchor="start" x="11.5" y="-157.8" font-family="Helvetica,sans-Serif" font-size="11.00" fill="#000000">...</text>
<polygon fill="#ffffff" stroke="transparent" points="8.5,-132.7 8.5,-151.7 99.5,-151.7 99.5,-132.7 8.5,-132.7"/>
<polygon fill="none" stroke="#000000" points="8.5,-132.7 8.5,-151.7 99.5,-151.7 99.5,-132.7 8.5,-132.7"/>
<text text-anchor="start" x="11.5" y="-138.8" font-family="Helvetica,sans-Serif" font-size="11.00" fill="#000000"> &#160;</text>
<polygon fill="#ffffff" stroke="transparent" points="99.5,-132.7 99.5,-151.7 150.5,-151.7 150.5,-132.7 99.5,-132.7"/>
<polygon fill="none" stroke="#000000" points="99.5,-132.7 99.5,-151.7 150.5,-151.7 150.5,-132.7 99.5,-132.7"/>
<text text-anchor="start" x="141.3862" y="-138.8" font-family="Helvetica,sans-Serif" font-size="11.00" fill="#000000"> &#160;</text>
<polygon fill="#ffffff" stroke="transparent" points="150.5,-132.7 150.5,-151.7 211.5,-151.7 211.5,-132.7 150.5,-132.7"/>
<polygon fill="none" stroke="#000000" points="150.5,-132.7 150.5,-151.7 211.5,-151.7 211.5,-132.7 150.5,-132.7"/>
<text text-anchor="start" x="192.9053" y="-138.8" font-family="Helvetica,sans-Serif" font-size="11.00" fill="#000000">2 &gt;</text>
</a>
</g>
</g>
<!-- layout_options&#45;&gt;layout_group_properties -->
<g id="edge1" class="edge">
<title>layout_options:w&#45;&gt;layout_group_properties:e</title>
<path fill="none" stroke="#000000" d="M245.7648,-179.2625C234.3432,-173.075 229.2522,-160.7 211.5,-160.7"/>
<polygon fill="#000000" stroke="#000000" points="252.2235,-180.8221 259.1549,-186.1994 256.1118,-181.7611 260,-182.7 260,-182.7 260,-182.7 256.1118,-181.7611 260.8451,-179.2006 252.2235,-180.8221 252.2235,-180.8221"/>
<ellipse fill="none" stroke="#000000" cx="249.1129" cy="-180.0709" rx="3.2" ry="3.2"/>
</g>
<!-- layout_options&#45;&gt;layout_group_properties -->
<g id="edge2" class="edge">
<title>layout_options:w&#45;&gt;layout_group_properties:e</title>
<path fill="none" stroke="#000000" d="M245.7648,-142.1375C234.3432,-148.325 229.2522,-160.7 211.5,-160.7"/>
<polygon fill="#000000" stroke="#000000" points="252.2235,-140.5779 260.8451,-142.1994 256.1118,-139.6389 260,-138.7 260,-138.7 260,-138.7 256.1118,-139.6389 259.1549,-135.2006 252.2235,-140.5779 252.2235,-140.5779"/>
<ellipse fill="none" stroke="#000000" cx="249.1129" cy="-141.3291" rx="3.2" ry="3.2"/>
</g>
<!-- lbf_data -->
<g id="node3" class="node">
<title>lbf_data</title>
<g id="a_node3"><a xlink:href="../../tables/lbf_data.html" xlink:title="lbf_data" target="_top">
<polygon fill="#ffffff" stroke="transparent" points="480,-137.2 480,-198.2 573,-198.2 573,-137.2 480,-137.2"/>
<polygon fill="#f5f5f5" stroke="transparent" points="480.5,-174.7 480.5,-197.7 573.5,-197.7 573.5,-174.7 480.5,-174.7"/>
<polygon fill="none" stroke="#000000" points="480.5,-174.7 480.5,-197.7 573.5,-197.7 573.5,-174.7 480.5,-174.7"/>
<text text-anchor="start" x="485.5" y="-183.3" font-family="Helvetica,sans-Serif" font-weight="bold" font-size="11.00" fill="#000000">lbf_data</text>
<text text-anchor="start" x="539.0219" y="-182.8" font-family="Helvetica,sans-Serif" font-size="11.00" fill="#000000">[table]</text>
<polygon fill="none" stroke="#000000" points="480.5,-155.7 480.5,-174.7 573.5,-174.7 573.5,-155.7 480.5,-155.7"/>
<text text-anchor="start" x="483.5" y="-161.8" font-family="Helvetica,sans-Serif" font-size="11.00" fill="#000000">...</text>
<polygon fill="#ffffff" stroke="transparent" points="480.5,-136.7 480.5,-155.7 525.5,-155.7 525.5,-136.7 480.5,-136.7"/>
<polygon fill="none" stroke="#000000" points="480.5,-136.7 480.5,-155.7 525.5,-155.7 525.5,-136.7 480.5,-136.7"/>
<text text-anchor="start" x="483.5" y="-142.8" font-family="Helvetica,sans-Serif" font-size="11.00" fill="#000000">&lt; 2</text>
<polygon fill="#ffffff" stroke="transparent" points="525.5,-136.7 525.5,-155.7 549.5,-155.7 549.5,-136.7 525.5,-136.7"/>
<polygon fill="none" stroke="#000000" points="525.5,-136.7 525.5,-155.7 549.5,-155.7 549.5,-136.7 525.5,-136.7"/>
<text text-anchor="start" x="540.3862" y="-142.8" font-family="Helvetica,sans-Serif" font-size="11.00" fill="#000000"> &#160;</text>
<polygon fill="#ffffff" stroke="transparent" points="549.5,-136.7 549.5,-155.7 573.5,-155.7 573.5,-136.7 549.5,-136.7"/>
<polygon fill="none" stroke="#000000" points="549.5,-136.7 549.5,-155.7 573.5,-155.7 573.5,-136.7 549.5,-136.7"/>
<text text-anchor="start" x="564.3862" y="-142.8" font-family="Helvetica,sans-Serif" font-size="11.00" fill="#000000"> &#160;</text>
</a>
</g>
</g>
<!-- lbf_data&#45;&gt;layout_options -->
<g id="edge3" class="edge">
<title>lbf_data:w&#45;&gt;layout_options:e</title>
<path fill="none" stroke="#000000" d="M465.7983,-164.4618C440.4857,-163.6006 429.2606,-160.7 398,-160.7"/>
<polygon fill="#000000" stroke="#000000" points="472.5011,-164.5703 480.4416,-168.2995 476.5005,-164.6352 480.5,-164.7 480.5,-164.7 480.5,-164.7 476.5005,-164.6352 480.5584,-161.1005 472.5011,-164.5703 472.5011,-164.5703"/>
<ellipse fill="none" stroke="#000000" cx="469.3015" cy="-164.5185" rx="3.2" ry="3.2"/>
</g>
<!-- transactions -->
<g id="node4" class="node">
<title>transactions</title>
<g id="a_node4"><a xlink:href="../../tables/transactions.html" xlink:title="transactions" target="_top">
<polygon fill="#ffffff" stroke="transparent" points="267.5,-238.2 267.5,-343.2 390.5,-343.2 390.5,-238.2 267.5,-238.2"/>
<polygon fill="#f5f5f5" stroke="transparent" points="268,-319.7 268,-342.7 391,-342.7 391,-319.7 268,-319.7"/>
<polygon fill="none" stroke="#000000" points="268,-319.7 268,-342.7 391,-342.7 391,-319.7 268,-319.7"/>
<text text-anchor="start" x="273" y="-328.3" font-family="Helvetica,sans-Serif" font-weight="bold" font-size="11.00" fill="#000000">transactions</text>
<text text-anchor="start" x="356.5219" y="-327.8" font-family="Helvetica,sans-Serif" font-size="11.00" fill="#000000">[table]</text>
<polygon fill="none" stroke="#000000" points="268,-297.7 268,-319.7 391,-319.7 391,-297.7 268,-297.7"/>
<image xlink:href="../../images/primaryKeys.png" width="11px" height="12px" preserveAspectRatio="xMinYMin meet" x="273" y="-314.7"/>
<text text-anchor="start" x="297" y="-304.8" font-family="Helvetica,sans-Serif" font-size="11.00" fill="#000000">id</text>
<polygon fill="#ffffff" stroke="transparent" points="268,-275.7 268,-297.7 391,-297.7 391,-275.7 268,-275.7"/>
<polygon fill="none" stroke="#000000" points="268,-275.7 268,-297.7 391,-297.7 391,-275.7 268,-275.7"/>
<image xlink:href="../../images/foreignKeys.png" width="11px" height="12px" preserveAspectRatio="xMinYMin meet" x="273" y="-292.7"/>
<text text-anchor="start" x="297" y="-282.8" font-family="Helvetica,sans-Serif" font-size="11.00" fill="#000000">pid</text>
<polygon fill="none" stroke="#000000" points="268,-256.7 268,-275.7 391,-275.7 391,-256.7 268,-256.7"/>
<text text-anchor="start" x="271" y="-262.8" font-family="Helvetica,sans-Serif" font-size="11.00" fill="#000000">...</text>
<polygon fill="#ffffff" stroke="transparent" points="268,-237.7 268,-256.7 323,-256.7 323,-237.7 268,-237.7"/>
<polygon fill="none" stroke="#000000" points="268,-237.7 268,-256.7 323,-256.7 323,-237.7 268,-237.7"/>
<text text-anchor="start" x="271" y="-243.8" font-family="Helvetica,sans-Serif" font-size="11.00" fill="#000000">&lt; 1</text>
<polygon fill="#ffffff" stroke="transparent" points="323,-237.7 323,-256.7 352,-256.7 352,-237.7 323,-237.7"/>
<polygon fill="none" stroke="#000000" points="323,-237.7 323,-256.7 352,-256.7 352,-237.7 323,-237.7"/>
<text text-anchor="start" x="342.8862" y="-243.8" font-family="Helvetica,sans-Serif" font-size="11.00" fill="#000000"> &#160;</text>
<polygon fill="#ffffff" stroke="transparent" points="352,-237.7 352,-256.7 391,-256.7 391,-237.7 352,-237.7"/>
<polygon fill="none" stroke="#000000" points="352,-237.7 352,-256.7 391,-256.7 391,-237.7 352,-237.7"/>
<text text-anchor="start" x="372.4053" y="-243.8" font-family="Helvetica,sans-Serif" font-size="11.00" fill="#000000">2 &gt;</text>
</a>
</g>
</g>
<!-- lbf_data&#45;&gt;transactions -->
<g id="edge4" class="edge">
<title>lbf_data:w&#45;&gt;transactions:e</title>
<path fill="none" stroke="#000000" d="M466.1999,-166.8474C413.2791,-184.7605 460.9088,-308.7 391,-308.7"/>
<polygon fill="#000000" stroke="#000000" points="472.5887,-165.888 481.0346,-168.2601 476.5443,-165.294 480.5,-164.7 480.5,-164.7 480.5,-164.7 476.5443,-165.294 479.9654,-161.1399 472.5887,-165.888 472.5887,-165.888"/>
<ellipse fill="none" stroke="#000000" cx="469.4242" cy="-166.3632" rx="3.2" ry="3.2"/>
</g>
<!-- patient_data -->
<g id="node7" class="node">
<title>patient_data</title>
<g id="a_node7"><a xlink:href="../../tables/patient_data.html" xlink:title="patient_data" target="_top">
<polygon fill="#ffffff" stroke="transparent" points="47.5,-45.2 47.5,-106.2 171.5,-106.2 171.5,-45.2 47.5,-45.2"/>
<polygon fill="#f5f5f5" stroke="transparent" points="47.5,-82.7 47.5,-105.7 171.5,-105.7 171.5,-82.7 47.5,-82.7"/>
<polygon fill="none" stroke="#000000" points="47.5,-82.7 47.5,-105.7 171.5,-105.7 171.5,-82.7 47.5,-82.7"/>
<text text-anchor="start" x="52.5" y="-91.3" font-family="Helvetica,sans-Serif" font-weight="bold" font-size="11.00" fill="#000000">patient_data</text>
<text text-anchor="start" x="137.0219" y="-90.8" font-family="Helvetica,sans-Serif" font-size="11.00" fill="#000000">[table]</text>
<polygon fill="none" stroke="#000000" points="47.5,-63.7 47.5,-82.7 171.5,-82.7 171.5,-63.7 47.5,-63.7"/>
<text text-anchor="start" x="50.5" y="-69.8" font-family="Helvetica,sans-Serif" font-size="11.00" fill="#000000">...</text>
<polygon fill="#ffffff" stroke="transparent" points="47.5,-44.7 47.5,-63.7 100.5,-63.7 100.5,-44.7 47.5,-44.7"/>
<polygon fill="none" stroke="#000000" points="47.5,-44.7 47.5,-63.7 100.5,-63.7 100.5,-44.7 47.5,-44.7"/>
<text text-anchor="start" x="50.5" y="-50.8" font-family="Helvetica,sans-Serif" font-size="11.00" fill="#000000">&lt; 5</text>
<polygon fill="#ffffff" stroke="transparent" points="100.5,-44.7 100.5,-63.7 128.5,-63.7 128.5,-44.7 100.5,-44.7"/>
<polygon fill="none" stroke="#000000" points="100.5,-44.7 100.5,-63.7 128.5,-63.7 128.5,-44.7 100.5,-44.7"/>
<text text-anchor="start" x="119.3862" y="-50.8" font-family="Helvetica,sans-Serif" font-size="11.00" fill="#000000"> &#160;</text>
<polygon fill="#ffffff" stroke="transparent" points="128.5,-44.7 128.5,-63.7 171.5,-63.7 171.5,-44.7 128.5,-44.7"/>
<polygon fill="none" stroke="#000000" points="128.5,-44.7 128.5,-63.7 171.5,-63.7 171.5,-44.7 128.5,-44.7"/>
<text text-anchor="start" x="146.7904" y="-50.8" font-family="Helvetica,sans-Serif" font-size="11.00" fill="#000000">85 &gt;</text>
</a>
</g>
</g>
<!-- transactions&#45;&gt;patient_data -->
<g id="edge9" class="edge">
<title>transactions:w&#45;&gt;patient_data:e</title>
<path fill="none" stroke="#000000" d="M253.2368,-284.9774C174.8942,-264.7248 270.332,-72.7 171.5,-72.7"/>
<polygon fill="#000000" stroke="#000000" points="260.0539,-285.7728 267.5828,-290.2757 264.027,-286.2364 268,-286.7 268,-286.7 268,-286.7 264.027,-286.2364 268.4172,-283.1243 260.0539,-285.7728 260.0539,-285.7728"/>
<ellipse fill="none" stroke="#000000" cx="256.8755" cy="-285.4019" rx="3.2" ry="3.2"/>
</g>
<!-- lbt_data -->
<g id="node5" class="node">
<title>lbt_data</title>
<g id="a_node5"><a xlink:href="../../tables/lbt_data.html" xlink:title="lbt_data" target="_top">
<polygon fill="#ffffff" stroke="transparent" points="447.5,-227.7 447.5,-339.7 605.5,-339.7 605.5,-227.7 447.5,-227.7"/>
<polygon fill="#f5f5f5" stroke="transparent" points="449.5,-314.7 449.5,-337.7 603.5,-337.7 603.5,-314.7 449.5,-314.7"/>
<polygon fill="none" stroke="#000000" points="449.5,-314.7 449.5,-337.7 603.5,-337.7 603.5,-314.7 449.5,-314.7"/>
<text text-anchor="start" x="454.5" y="-323.3" font-family="Helvetica,sans-Serif" font-weight="bold" font-size="11.00" fill="#000000">lbt_data</text>
<text text-anchor="start" x="568.5437" y="-322.8" font-family="Helvetica,sans-Serif" font-size="11.00" fill="#000000">[table]</text>
<polygon fill="none" stroke="#000000" points="449.5,-292.7 449.5,-314.7 542.5,-314.7 542.5,-292.7 449.5,-292.7"/>
<image xlink:href="../../images/primaryKeys.png" width="11px" height="12px" preserveAspectRatio="xMinYMin meet" x="454.5" y="-309.7"/>
<text text-anchor="start" x="469.5" y="-299.8" font-family="Helvetica,sans-Serif" font-size="11.00" fill="#000000">form_id</text>
<polygon fill="none" stroke="#000000" points="542.5,-292.7 542.5,-314.7 603.5,-314.7 603.5,-292.7 542.5,-292.7"/>
<text text-anchor="start" x="545.5" y="-300.4" font-family="Helvetica,sans-Serif" font-size="11.00" fill="#000000">bigint[19]</text>
<polygon fill="none" stroke="#000000" points="449.5,-270.7 449.5,-292.7 542.5,-292.7 542.5,-270.7 449.5,-270.7"/>
<image xlink:href="../../images/primaryKeys.png" width="11px" height="12px" preserveAspectRatio="xMinYMin meet" x="454.5" y="-287.7"/>
<text text-anchor="start" x="469.5" y="-277.8" font-family="Helvetica,sans-Serif" font-size="11.00" fill="#000000">field_id</text>
<polygon fill="none" stroke="#000000" points="542.5,-270.7 542.5,-292.7 603.5,-292.7 603.5,-270.7 542.5,-270.7"/>
<text text-anchor="start" x="545.494" y="-278.4" font-family="Helvetica,sans-Serif" font-size="11.00" fill="#000000">varchar[31]</text>
<polygon fill="none" stroke="#000000" points="449.5,-248.7 449.5,-270.7 542.5,-270.7 542.5,-248.7 449.5,-248.7"/>
<text text-anchor="start" x="469.5" y="-255.8" font-family="Helvetica,sans-Serif" font-size="11.00" fill="#000000">field_value</text>
<polygon fill="none" stroke="#000000" points="542.5,-248.7 542.5,-270.7 603.5,-270.7 603.5,-248.7 542.5,-248.7"/>
<text text-anchor="start" x="545.5" y="-256.4" font-family="Helvetica,sans-Serif" font-size="11.00" fill="#000000">text[65535]</text>
<polygon fill="#ffffff" stroke="transparent" points="449.5,-229.7 449.5,-248.7 500.5,-248.7 500.5,-229.7 449.5,-229.7"/>
<polygon fill="none" stroke="#000000" points="449.5,-229.7 449.5,-248.7 500.5,-248.7 500.5,-229.7 449.5,-229.7"/>
<text text-anchor="start" x="452.5" y="-235.8" font-family="Helvetica,sans-Serif" font-size="11.00" fill="#000000">&lt; 2</text>
<polygon fill="#ffffff" stroke="transparent" points="500.5,-229.7 500.5,-248.7 542.5,-248.7 542.5,-229.7 500.5,-229.7"/>
<polygon fill="none" stroke="#000000" points="500.5,-229.7 500.5,-248.7 542.5,-248.7 542.5,-229.7 500.5,-229.7"/>
<text text-anchor="start" x="533.3862" y="-235.8" font-family="Helvetica,sans-Serif" font-size="11.00" fill="#000000"> &#160;</text>
<polygon fill="#ffffff" stroke="transparent" points="542.5,-229.7 542.5,-248.7 603.5,-248.7 603.5,-229.7 542.5,-229.7"/>
<polygon fill="none" stroke="#000000" points="542.5,-229.7 542.5,-248.7 603.5,-248.7 603.5,-229.7 542.5,-229.7"/>
<text text-anchor="start" x="584.9053" y="-235.8" font-family="Helvetica,sans-Serif" font-size="11.00" fill="#000000">0 &gt;</text>
<polygon fill="none" stroke="#000000" stroke-width="2" points="448.5,-228.7 448.5,-338.7 604.5,-338.7 604.5,-228.7 448.5,-228.7"/>
</a>
</g>
</g>
<!-- lbt_data&#45;&gt;layout_options -->
<g id="edge5" class="edge">
<title>lbt_data:w&#45;&gt;layout_options:e</title>
<path fill="none" stroke="#000000" d="M435.2649,-278.2092C403.0593,-258.37 450.5102,-160.7 398,-160.7"/>
<polygon fill="#000000" stroke="#000000" points="441.7302,-279.7946 448.6426,-285.1964 445.6151,-280.7473 449.5,-281.7 449.5,-281.7 449.5,-281.7 445.6151,-280.7473 450.3574,-278.2036 441.7302,-279.7946 441.7302,-279.7946"/>
<ellipse fill="none" stroke="#000000" cx="438.6223" cy="-279.0325" rx="3.2" ry="3.2"/>
</g>
<!-- lbt_data&#45;&gt;transactions -->
<g id="edge6" class="edge">
<title>lbt_data:w&#45;&gt;transactions:e</title>
<path fill="none" stroke="#000000" d="M434.8012,-304.3131C419.6977,-305.6482 411.3866,-308.7 391,-308.7"/>
<polygon fill="#000000" stroke="#000000" points="441.507,-304.0334 449.6501,-307.2969 445.5035,-303.8667 449.5,-303.7 449.5,-303.7 449.5,-303.7 445.5035,-303.8667 449.3499,-300.1031 441.507,-304.0334 441.507,-304.0334"/>
<ellipse fill="none" stroke="#000000" cx="438.3097" cy="-304.1668" rx="3.2" ry="3.2"/>
</g>
<!-- shared_attributes -->
<g id="node6" class="node">
<title>shared_attributes</title>
<g id="a_node6"><a xlink:href="../../tables/shared_attributes.html" xlink:title="shared_attributes" target="_top">
<polygon fill="#ffffff" stroke="transparent" points="447,-38.2 447,-99.2 606,-99.2 606,-38.2 447,-38.2"/>
<polygon fill="#f5f5f5" stroke="transparent" points="447.5,-75.7 447.5,-98.7 606.5,-98.7 606.5,-75.7 447.5,-75.7"/>
<polygon fill="none" stroke="#000000" points="447.5,-75.7 447.5,-98.7 606.5,-98.7 606.5,-75.7 447.5,-75.7"/>
<text text-anchor="start" x="452.5" y="-84.3" font-family="Helvetica,sans-Serif" font-weight="bold" font-size="11.00" fill="#000000">shared_attributes</text>
<text text-anchor="start" x="572.0219" y="-83.8" font-family="Helvetica,sans-Serif" font-size="11.00" fill="#000000">[table]</text>
<polygon fill="none" stroke="#000000" points="447.5,-56.7 447.5,-75.7 606.5,-75.7 606.5,-56.7 447.5,-56.7"/>
<text text-anchor="start" x="450.5" y="-62.8" font-family="Helvetica,sans-Serif" font-size="11.00" fill="#000000">...</text>
<polygon fill="#ffffff" stroke="transparent" points="447.5,-37.7 447.5,-56.7 525.5,-56.7 525.5,-37.7 447.5,-37.7"/>
<polygon fill="none" stroke="#000000" points="447.5,-37.7 447.5,-56.7 525.5,-56.7 525.5,-37.7 447.5,-37.7"/>
<text text-anchor="start" x="450.5" y="-43.8" font-family="Helvetica,sans-Serif" font-size="11.00" fill="#000000">&lt; 4</text>
<polygon fill="#ffffff" stroke="transparent" points="525.5,-37.7 525.5,-56.7 565.5,-56.7 565.5,-37.7 525.5,-37.7"/>
<polygon fill="none" stroke="#000000" points="525.5,-37.7 525.5,-56.7 565.5,-56.7 565.5,-37.7 525.5,-37.7"/>
<text text-anchor="start" x="556.3862" y="-43.8" font-family="Helvetica,sans-Serif" font-size="11.00" fill="#000000"> &#160;</text>
<polygon fill="#ffffff" stroke="transparent" points="565.5,-37.7 565.5,-56.7 606.5,-56.7 606.5,-37.7 565.5,-37.7"/>
<polygon fill="none" stroke="#000000" points="565.5,-37.7 565.5,-56.7 606.5,-56.7 606.5,-37.7 565.5,-37.7"/>
<text text-anchor="start" x="597.3862" y="-43.8" font-family="Helvetica,sans-Serif" font-size="11.00" fill="#000000"> &#160;</text>
</a>
</g>
</g>
<!-- shared_attributes&#45;&gt;layout_options -->
<g id="edge7" class="edge">
<title>shared_attributes:w&#45;&gt;layout_options:e</title>
<path fill="none" stroke="#000000" d="M433.6565,-69.782C409.8617,-87.9656 439.6588,-160.7 398,-160.7"/>
<polygon fill="#000000" stroke="#000000" points="439.8266,-67.9627 448.5182,-69.153 443.6633,-66.8313 447.5,-65.7 447.5,-65.7 447.5,-65.7 443.6633,-66.8313 446.4818,-62.247 439.8266,-67.9627 439.8266,-67.9627"/>
<ellipse fill="none" stroke="#000000" cx="436.7573" cy="-68.8678" rx="3.2" ry="3.2"/>
</g>
<!-- shared_attributes&#45;&gt;patient_data -->
<g id="edge8" class="edge">
<title>shared_attributes:w&#45;&gt;patient_data:e</title>
<path fill="none" stroke="#000000" d="M433.0272,-64.137C424.6362,-62.1734 418.7094,-58.9138 406,-57.7 337.8656,-51.1927 320.1543,-51.4044 252,-57.7 215.7607,-61.0475 207.8936,-72.7 171.5,-72.7"/>
<polygon fill="#000000" stroke="#000000" points="439.5462,-64.841 447.1135,-69.2792 443.5231,-65.2705 447.5,-65.7 447.5,-65.7 447.5,-65.7 443.5231,-65.2705 447.8865,-62.1208 439.5462,-64.841 439.5462,-64.841"/>
<ellipse fill="none" stroke="#000000" cx="436.3647" cy="-64.4974" rx="3.2" ry="3.2"/>
</g>
</g>
</svg>
