<?xml version="1.0" encoding="UTF-8" standalone="no"?>
<!DOCTYPE svg PUBLIC "-//W3C//DTD SVG 1.1//EN"
 "http://www.w3.org/Graphics/SVG/1.1/DTD/svg11.dtd">
<!-- Generated by graphviz version 2.40.1 (20161225.0304)
 -->
<!-- Title: twoDegreesRelationshipsDiagram Pages: 1 -->
<svg width="795pt" height="1162pt"
 viewBox="0.00 0.00 795.00 1162.47" xmlns="http://www.w3.org/2000/svg" xmlns:xlink="http://www.w3.org/1999/xlink">
<g id="graph0" class="graph" transform="scale(1 1) rotate(0) translate(4 1158.4655)">
<title>twoDegreesRelationshipsDiagram</title>
<polygon fill="#ffffff" stroke="transparent" points="-4,4 -4,-1158.4655 791,-1158.4655 791,4 -4,4"/>
<text text-anchor="middle" x="72.4936" y="-7.3" font-family="Helvetica,sans-Serif" font-size="11.00" fill="#000000">Generated by SchemaSpy</text>
<!-- amendments -->
<g id="node1" class="node">
<title>amendments</title>
<g id="a_node1"><a xlink:href="../../tables/amendments.html" xlink:title="amendments" target="_top">
<polygon fill="#ffffff" stroke="transparent" points="404,-143.4655 404,-204.4655 530,-204.4655 530,-143.4655 404,-143.4655"/>
<polygon fill="#f5f5f5" stroke="transparent" points="404,-180.9655 404,-203.9655 530,-203.9655 530,-180.9655 404,-180.9655"/>
<polygon fill="none" stroke="#000000" points="404,-180.9655 404,-203.9655 530,-203.9655 530,-180.9655 404,-180.9655"/>
<text text-anchor="start" x="409" y="-189.5655" font-family="Helvetica,sans-Serif" font-weight="bold" font-size="11.00" fill="#000000">amendments</text>
<text text-anchor="start" x="495.5219" y="-189.0655" font-family="Helvetica,sans-Serif" font-size="11.00" fill="#000000">[table]</text>
<polygon fill="none" stroke="#000000" points="404,-161.9655 404,-180.9655 530,-180.9655 530,-161.9655 404,-161.9655"/>
<text text-anchor="start" x="407" y="-168.0655" font-family="Helvetica,sans-Serif" font-size="11.00" fill="#000000">...</text>
<polygon fill="#ffffff" stroke="transparent" points="404,-142.9655 404,-161.9655 461,-161.9655 461,-142.9655 404,-142.9655"/>
<polygon fill="none" stroke="#000000" points="404,-142.9655 404,-161.9655 461,-161.9655 461,-142.9655 404,-142.9655"/>
<text text-anchor="start" x="407" y="-149.0655" font-family="Helvetica,sans-Serif" font-size="11.00" fill="#000000">&lt; 4</text>
<polygon fill="#ffffff" stroke="transparent" points="461,-142.9655 461,-161.9655 491,-161.9655 491,-142.9655 461,-142.9655"/>
<polygon fill="none" stroke="#000000" points="461,-142.9655 461,-161.9655 491,-161.9655 491,-142.9655 461,-142.9655"/>
<text text-anchor="start" x="481.8862" y="-149.0655" font-family="Helvetica,sans-Serif" font-size="11.00" fill="#000000"> &#160;</text>
<polygon fill="#ffffff" stroke="transparent" points="491,-142.9655 491,-161.9655 530,-161.9655 530,-142.9655 491,-142.9655"/>
<polygon fill="none" stroke="#000000" points="491,-142.9655 491,-161.9655 530,-161.9655 530,-142.9655 491,-142.9655"/>
<text text-anchor="start" x="511.4053" y="-149.0655" font-family="Helvetica,sans-Serif" font-size="11.00" fill="#000000">1 &gt;</text>
</a>
</g>
</g>
<!-- list_options -->
<g id="node2" class="node">
<title>list_options</title>
<g id="a_node2"><a xlink:href="../../tables/list_options.html" xlink:title="list_options" target="_top">
<polygon fill="#ffffff" stroke="transparent" points="132,-190.9655 132,-566.9655 343,-566.9655 343,-190.9655 132,-190.9655"/>
<polygon fill="#f5f5f5" stroke="transparent" points="134.5,-541.9655 134.5,-564.9655 341.5,-564.9655 341.5,-541.9655 134.5,-541.9655"/>
<polygon fill="none" stroke="#000000" points="134.5,-541.9655 134.5,-564.9655 341.5,-564.9655 341.5,-541.9655 134.5,-541.9655"/>
<text text-anchor="start" x="139.5" y="-550.5655" font-family="Helvetica,sans-Serif" font-weight="bold" font-size="11.00" fill="#000000">list_options</text>
<text text-anchor="start" x="306.5437" y="-550.0655" font-family="Helvetica,sans-Serif" font-size="11.00" fill="#000000">[table]</text>
<polygon fill="none" stroke="#000000" points="134.5,-519.9655 134.5,-541.9655 266.5,-541.9655 266.5,-519.9655 134.5,-519.9655"/>
<image xlink:href="../../images/primaryKeys.png" width="11px" height="12px" preserveAspectRatio="xMinYMin meet" x="139.5" y="-536.966"/>
<text text-anchor="start" x="154.5" y="-527.0655" font-family="Helvetica,sans-Serif" font-size="11.00" fill="#000000">list_id</text>
<polygon fill="none" stroke="#000000" points="266.5,-519.9655 266.5,-541.9655 341.5,-541.9655 341.5,-519.9655 266.5,-519.9655"/>
<text text-anchor="start" x="269.5" y="-527.6655" font-family="Helvetica,sans-Serif" font-size="11.00" fill="#000000">varchar[100]</text>
<polygon fill="none" stroke="#000000" points="134.5,-497.9655 134.5,-519.9655 266.5,-519.9655 266.5,-497.9655 134.5,-497.9655"/>
<image xlink:href="../../images/primaryKeys.png" width="11px" height="12px" preserveAspectRatio="xMinYMin meet" x="139.5" y="-514.966"/>
<text text-anchor="start" x="154.5" y="-505.0655" font-family="Helvetica,sans-Serif" font-size="11.00" fill="#000000">option_id</text>
<polygon fill="none" stroke="#000000" points="266.5,-497.9655 266.5,-519.9655 341.5,-519.9655 341.5,-497.9655 266.5,-497.9655"/>
<text text-anchor="start" x="269.5" y="-505.6655" font-family="Helvetica,sans-Serif" font-size="11.00" fill="#000000">varchar[100]</text>
<polygon fill="none" stroke="#000000" points="134.5,-475.9655 134.5,-497.9655 266.5,-497.9655 266.5,-475.9655 134.5,-475.9655"/>
<text text-anchor="start" x="154.5" y="-483.0655" font-family="Helvetica,sans-Serif" font-size="11.00" fill="#000000">title</text>
<polygon fill="none" stroke="#000000" points="266.5,-475.9655 266.5,-497.9655 341.5,-497.9655 341.5,-475.9655 266.5,-475.9655"/>
<text text-anchor="start" x="269.5" y="-483.6655" font-family="Helvetica,sans-Serif" font-size="11.00" fill="#000000">varchar[255]</text>
<polygon fill="none" stroke="#000000" points="134.5,-453.9655 134.5,-475.9655 266.5,-475.9655 266.5,-453.9655 134.5,-453.9655"/>
<text text-anchor="start" x="154.5" y="-461.0655" font-family="Helvetica,sans-Serif" font-size="11.00" fill="#000000">seq</text>
<polygon fill="none" stroke="#000000" points="266.5,-453.9655 266.5,-475.9655 341.5,-475.9655 341.5,-453.9655 266.5,-453.9655"/>
<text text-anchor="start" x="269.5" y="-461.6655" font-family="Helvetica,sans-Serif" font-size="11.00" fill="#000000">int[10]</text>
<polygon fill="none" stroke="#000000" points="134.5,-431.9655 134.5,-453.9655 266.5,-453.9655 266.5,-431.9655 134.5,-431.9655"/>
<text text-anchor="start" x="154.5" y="-439.0655" font-family="Helvetica,sans-Serif" font-size="11.00" fill="#000000">is_default</text>
<polygon fill="none" stroke="#000000" points="266.5,-431.9655 266.5,-453.9655 341.5,-453.9655 341.5,-431.9655 266.5,-431.9655"/>
<text text-anchor="start" x="269.5" y="-439.6655" font-family="Helvetica,sans-Serif" font-size="11.00" fill="#000000">bit[1]</text>
<polygon fill="none" stroke="#000000" points="134.5,-409.9655 134.5,-431.9655 266.5,-431.9655 266.5,-409.9655 134.5,-409.9655"/>
<text text-anchor="start" x="154.5" y="-417.0655" font-family="Helvetica,sans-Serif" font-size="11.00" fill="#000000">option_value</text>
<polygon fill="none" stroke="#000000" points="266.5,-409.9655 266.5,-431.9655 341.5,-431.9655 341.5,-409.9655 266.5,-409.9655"/>
<text text-anchor="start" x="269.5" y="-417.6655" font-family="Helvetica,sans-Serif" font-size="11.00" fill="#000000">float[12]</text>
<polygon fill="none" stroke="#000000" points="134.5,-387.9655 134.5,-409.9655 266.5,-409.9655 266.5,-387.9655 134.5,-387.9655"/>
<text text-anchor="start" x="154.5" y="-395.0655" font-family="Helvetica,sans-Serif" font-size="11.00" fill="#000000">mapping</text>
<polygon fill="none" stroke="#000000" points="266.5,-387.9655 266.5,-409.9655 341.5,-409.9655 341.5,-387.9655 266.5,-387.9655"/>
<text text-anchor="start" x="269.5" y="-395.6655" font-family="Helvetica,sans-Serif" font-size="11.00" fill="#000000">varchar[31]</text>
<polygon fill="none" stroke="#000000" points="134.5,-365.9655 134.5,-387.9655 266.5,-387.9655 266.5,-365.9655 134.5,-365.9655"/>
<text text-anchor="start" x="154.5" y="-373.0655" font-family="Helvetica,sans-Serif" font-size="11.00" fill="#000000">notes</text>
<polygon fill="none" stroke="#000000" points="266.5,-365.9655 266.5,-387.9655 341.5,-387.9655 341.5,-365.9655 266.5,-365.9655"/>
<text text-anchor="start" x="269.5" y="-373.6655" font-family="Helvetica,sans-Serif" font-size="11.00" fill="#000000">text[65535]</text>
<polygon fill="none" stroke="#000000" points="134.5,-343.9655 134.5,-365.9655 266.5,-365.9655 266.5,-343.9655 134.5,-343.9655"/>
<text text-anchor="start" x="154.5" y="-351.0655" font-family="Helvetica,sans-Serif" font-size="11.00" fill="#000000">codes</text>
<polygon fill="none" stroke="#000000" points="266.5,-343.9655 266.5,-365.9655 341.5,-365.9655 341.5,-343.9655 266.5,-343.9655"/>
<text text-anchor="start" x="269.5" y="-351.6655" font-family="Helvetica,sans-Serif" font-size="11.00" fill="#000000">varchar[255]</text>
<polygon fill="none" stroke="#000000" points="134.5,-321.9655 134.5,-343.9655 266.5,-343.9655 266.5,-321.9655 134.5,-321.9655"/>
<text text-anchor="start" x="154.5" y="-329.0655" font-family="Helvetica,sans-Serif" font-size="11.00" fill="#000000">toggle_setting_1</text>
<polygon fill="none" stroke="#000000" points="266.5,-321.9655 266.5,-343.9655 341.5,-343.9655 341.5,-321.9655 266.5,-321.9655"/>
<text text-anchor="start" x="269.5" y="-329.6655" font-family="Helvetica,sans-Serif" font-size="11.00" fill="#000000">bit[1]</text>
<polygon fill="none" stroke="#000000" points="134.5,-299.9655 134.5,-321.9655 266.5,-321.9655 266.5,-299.9655 134.5,-299.9655"/>
<text text-anchor="start" x="154.5" y="-307.0655" font-family="Helvetica,sans-Serif" font-size="11.00" fill="#000000">toggle_setting_2</text>
<polygon fill="none" stroke="#000000" points="266.5,-299.9655 266.5,-321.9655 341.5,-321.9655 341.5,-299.9655 266.5,-299.9655"/>
<text text-anchor="start" x="269.5" y="-307.6655" font-family="Helvetica,sans-Serif" font-size="11.00" fill="#000000">bit[1]</text>
<polygon fill="none" stroke="#000000" points="134.5,-277.9655 134.5,-299.9655 266.5,-299.9655 266.5,-277.9655 134.5,-277.9655"/>
<text text-anchor="start" x="154.5" y="-285.0655" font-family="Helvetica,sans-Serif" font-size="11.00" fill="#000000">activity</text>
<polygon fill="none" stroke="#000000" points="266.5,-277.9655 266.5,-299.9655 341.5,-299.9655 341.5,-277.9655 266.5,-277.9655"/>
<text text-anchor="start" x="269.5" y="-285.6655" font-family="Helvetica,sans-Serif" font-size="11.00" fill="#000000">tinyint[3]</text>
<polygon fill="none" stroke="#000000" points="134.5,-255.9655 134.5,-277.9655 266.5,-277.9655 266.5,-255.9655 134.5,-255.9655"/>
<text text-anchor="start" x="154.5" y="-263.0655" font-family="Helvetica,sans-Serif" font-size="11.00" fill="#000000">subtype</text>
<polygon fill="none" stroke="#000000" points="266.5,-255.9655 266.5,-277.9655 341.5,-277.9655 341.5,-255.9655 266.5,-255.9655"/>
<text text-anchor="start" x="269.5" y="-263.6655" font-family="Helvetica,sans-Serif" font-size="11.00" fill="#000000">varchar[31]</text>
<polygon fill="none" stroke="#000000" points="134.5,-233.9655 134.5,-255.9655 266.5,-255.9655 266.5,-233.9655 134.5,-233.9655"/>
<text text-anchor="start" x="154.5" y="-241.0655" font-family="Helvetica,sans-Serif" font-size="11.00" fill="#000000">edit_options</text>
<polygon fill="none" stroke="#000000" points="266.5,-233.9655 266.5,-255.9655 341.5,-255.9655 341.5,-233.9655 266.5,-233.9655"/>
<text text-anchor="start" x="269.5" y="-241.6655" font-family="Helvetica,sans-Serif" font-size="11.00" fill="#000000">bit[1]</text>
<polygon fill="none" stroke="#000000" points="134.5,-211.9655 134.5,-233.9655 266.5,-233.9655 266.5,-211.9655 134.5,-211.9655"/>
<text text-anchor="start" x="154.5" y="-219.0655" font-family="Helvetica,sans-Serif" font-size="11.00" fill="#000000">timestamp</text>
<polygon fill="none" stroke="#000000" points="266.5,-211.9655 266.5,-233.9655 341.5,-233.9655 341.5,-211.9655 266.5,-211.9655"/>
<text text-anchor="start" x="269.4666" y="-219.6655" font-family="Helvetica,sans-Serif" font-size="11.00" fill="#000000">timestamp[19]</text>
<polygon fill="#ffffff" stroke="transparent" points="134.5,-192.9655 134.5,-211.9655 204.5,-211.9655 204.5,-192.9655 134.5,-192.9655"/>
<polygon fill="none" stroke="#000000" points="134.5,-192.9655 134.5,-211.9655 204.5,-211.9655 204.5,-192.9655 134.5,-192.9655"/>
<text text-anchor="start" x="137.5" y="-199.0655" font-family="Helvetica,sans-Serif" font-size="11.00" fill="#000000">&lt; 0</text>
<polygon fill="#ffffff" stroke="transparent" points="204.5,-192.9655 204.5,-211.9655 266.5,-211.9655 266.5,-192.9655 204.5,-192.9655"/>
<polygon fill="none" stroke="#000000" points="204.5,-192.9655 204.5,-211.9655 266.5,-211.9655 266.5,-192.9655 204.5,-192.9655"/>
<text text-anchor="start" x="257.3862" y="-199.0655" font-family="Helvetica,sans-Serif" font-size="11.00" fill="#000000"> &#160;</text>
<polygon fill="#ffffff" stroke="transparent" points="266.5,-192.9655 266.5,-211.9655 341.5,-211.9655 341.5,-192.9655 266.5,-192.9655"/>
<polygon fill="none" stroke="#000000" points="266.5,-192.9655 266.5,-211.9655 341.5,-211.9655 341.5,-192.9655 266.5,-192.9655"/>
<text text-anchor="start" x="316.7904" y="-199.0655" font-family="Helvetica,sans-Serif" font-size="11.00" fill="#000000">16 &gt;</text>
<polygon fill="none" stroke="#000000" stroke-width="2" points="133,-191.9655 133,-565.9655 342,-565.9655 342,-191.9655 133,-191.9655"/>
</a>
</g>
</g>
<!-- amendments&#45;&gt;list_options -->
<g id="edge1" class="edge">
<title>amendments:w&#45;&gt;list_options:e</title>
<path fill="none" stroke="#000000" d="M385.972,-216.2938C385.2915,-217.168 384.6336,-218.0585 384,-218.9655 346.7008,-272.3608 406.6328,-508.9655 341.5,-508.9655"/>
<polygon fill="#000000" stroke="#000000" points="390.4291,-211.6186 398.555,-208.3124 393.1892,-208.7235 395.9493,-205.8283 395.9493,-205.8283 395.9493,-205.8283 393.1892,-208.7235 393.3437,-203.3442 390.4291,-211.6186 390.4291,-211.6186"/>
<ellipse fill="none" stroke="#000000" cx="388.221" cy="-213.9347" rx="3.2" ry="3.2"/>
</g>
<!-- users -->
<g id="node3" class="node">
<title>users</title>
<g id="a_node3"><a xlink:href="../../tables/users.html" xlink:title="users" target="_top">
<polygon fill="#ffffff" stroke="transparent" points="8,-753.4655 8,-814.4655 83,-814.4655 83,-753.4655 8,-753.4655"/>
<polygon fill="#f5f5f5" stroke="transparent" points="8.5,-790.9655 8.5,-813.9655 83.5,-813.9655 83.5,-790.9655 8.5,-790.9655"/>
<polygon fill="none" stroke="#000000" points="8.5,-790.9655 8.5,-813.9655 83.5,-813.9655 83.5,-790.9655 8.5,-790.9655"/>
<text text-anchor="start" x="13.5" y="-799.5655" font-family="Helvetica,sans-Serif" font-weight="bold" font-size="11.00" fill="#000000">users</text>
<text text-anchor="start" x="49.0219" y="-799.0655" font-family="Helvetica,sans-Serif" font-size="11.00" fill="#000000">[table]</text>
<polygon fill="none" stroke="#000000" points="8.5,-771.9655 8.5,-790.9655 83.5,-790.9655 83.5,-771.9655 8.5,-771.9655"/>
<text text-anchor="start" x="11.5" y="-778.0655" font-family="Helvetica,sans-Serif" font-size="11.00" fill="#000000">...</text>
<polygon fill="#ffffff" stroke="transparent" points="8.5,-752.9655 8.5,-771.9655 32.5,-771.9655 32.5,-752.9655 8.5,-752.9655"/>
<polygon fill="none" stroke="#000000" points="8.5,-752.9655 8.5,-771.9655 32.5,-771.9655 32.5,-752.9655 8.5,-752.9655"/>
<text text-anchor="start" x="11.5" y="-759.0655" font-family="Helvetica,sans-Serif" font-size="11.00" fill="#000000"> &#160;</text>
<polygon fill="#ffffff" stroke="transparent" points="32.5,-752.9655 32.5,-771.9655 50.5,-771.9655 50.5,-752.9655 32.5,-752.9655"/>
<polygon fill="none" stroke="#000000" points="32.5,-752.9655 32.5,-771.9655 50.5,-771.9655 50.5,-752.9655 32.5,-752.9655"/>
<text text-anchor="start" x="41.3862" y="-759.0655" font-family="Helvetica,sans-Serif" font-size="11.00" fill="#000000"> &#160;</text>
<polygon fill="#ffffff" stroke="transparent" points="50.5,-752.9655 50.5,-771.9655 83.5,-771.9655 83.5,-752.9655 50.5,-752.9655"/>
<polygon fill="none" stroke="#000000" points="50.5,-752.9655 50.5,-771.9655 83.5,-771.9655 83.5,-752.9655 50.5,-752.9655"/>
<text text-anchor="start" x="58.7904" y="-759.0655" font-family="Helvetica,sans-Serif" font-size="11.00" fill="#000000">38 &gt;</text>
</a>
</g>
</g>
<!-- amendments&#45;&gt;users -->
<g id="edge2" class="edge">
<title>amendments:w&#45;&gt;users:e</title>
<path fill="none" stroke="#000000" d="M381.7066,-142.3472C303.9445,-122.263 191.2428,-110.8106 124,-174.9655 75.6553,-221.0902 150.3184,-774.9655 83.5,-780.9655"/>
<polygon fill="#000000" stroke="#000000" points="388.0816,-144.0815 394.856,-149.6553 391.9413,-145.1315 395.801,-146.1816 395.801,-146.1816 395.801,-146.1816 391.9413,-145.1315 396.7461,-142.7078 388.0816,-144.0815 388.0816,-144.0815"/>
<ellipse fill="none" stroke="#000000" cx="384.9938" cy="-143.2414" rx="3.2" ry="3.2"/>
</g>
<!-- amendments&#45;&gt;users -->
<g id="edge3" class="edge">
<title>amendments:w&#45;&gt;users:e</title>
<path fill="none" stroke="#000000" d="M381.7066,-152.4034C303.9445,-135.263 191.2428,-123.8106 124,-187.9655 75.6553,-234.0902 150.3184,-787.9655 83.5,-780.9655"/>
<polygon fill="#000000" stroke="#000000" points="388.0056,-153.8557 394.9922,-159.1611 391.9033,-154.7544 395.801,-155.6531 395.801,-155.6531 395.801,-155.6531 391.9033,-154.7544 396.6099,-152.1451 388.0056,-153.8557 388.0056,-153.8557"/>
<ellipse fill="none" stroke="#000000" cx="384.8874" cy="-153.1367" rx="3.2" ry="3.2"/>
</g>
<!-- patient_data -->
<g id="node4" class="node">
<title>patient_data</title>
<g id="a_node4"><a xlink:href="../../tables/patient_data.html" xlink:title="patient_data" target="_top">
<polygon fill="#ffffff" stroke="transparent" points="175.5,-929.4655 175.5,-990.4655 299.5,-990.4655 299.5,-929.4655 175.5,-929.4655"/>
<polygon fill="#f5f5f5" stroke="transparent" points="175.5,-966.9655 175.5,-989.9655 299.5,-989.9655 299.5,-966.9655 175.5,-966.9655"/>
<polygon fill="none" stroke="#000000" points="175.5,-966.9655 175.5,-989.9655 299.5,-989.9655 299.5,-966.9655 175.5,-966.9655"/>
<text text-anchor="start" x="180.5" y="-975.5655" font-family="Helvetica,sans-Serif" font-weight="bold" font-size="11.00" fill="#000000">patient_data</text>
<text text-anchor="start" x="265.0219" y="-975.0655" font-family="Helvetica,sans-Serif" font-size="11.00" fill="#000000">[table]</text>
<polygon fill="none" stroke="#000000" points="175.5,-947.9655 175.5,-966.9655 299.5,-966.9655 299.5,-947.9655 175.5,-947.9655"/>
<text text-anchor="start" x="178.5" y="-954.0655" font-family="Helvetica,sans-Serif" font-size="11.00" fill="#000000">...</text>
<polygon fill="#ffffff" stroke="transparent" points="175.5,-928.9655 175.5,-947.9655 228.5,-947.9655 228.5,-928.9655 175.5,-928.9655"/>
<polygon fill="none" stroke="#000000" points="175.5,-928.9655 175.5,-947.9655 228.5,-947.9655 228.5,-928.9655 175.5,-928.9655"/>
<text text-anchor="start" x="178.5" y="-935.0655" font-family="Helvetica,sans-Serif" font-size="11.00" fill="#000000">&lt; 5</text>
<polygon fill="#ffffff" stroke="transparent" points="228.5,-928.9655 228.5,-947.9655 256.5,-947.9655 256.5,-928.9655 228.5,-928.9655"/>
<polygon fill="none" stroke="#000000" points="228.5,-928.9655 228.5,-947.9655 256.5,-947.9655 256.5,-928.9655 228.5,-928.9655"/>
<text text-anchor="start" x="247.3862" y="-935.0655" font-family="Helvetica,sans-Serif" font-size="11.00" fill="#000000"> &#160;</text>
<polygon fill="#ffffff" stroke="transparent" points="256.5,-928.9655 256.5,-947.9655 299.5,-947.9655 299.5,-928.9655 256.5,-928.9655"/>
<polygon fill="none" stroke="#000000" points="256.5,-928.9655 256.5,-947.9655 299.5,-947.9655 299.5,-928.9655 256.5,-928.9655"/>
<text text-anchor="start" x="274.7904" y="-935.0655" font-family="Helvetica,sans-Serif" font-size="11.00" fill="#000000">80 &gt;</text>
</a>
</g>
</g>
<!-- amendments&#45;&gt;patient_data -->
<g id="edge4" class="edge">
<title>amendments:w&#45;&gt;patient_data:e</title>
<path fill="none" stroke="#000000" d="M401.3508,-218.8119C394.4695,-226.106 388.3954,-234.1838 384,-242.9655 312.4875,-385.842 459.274,-956.9655 299.5,-956.9655"/>
<polygon fill="#000000" stroke="#000000" points="406.1325,-214.23 414.3995,-211.2945 409.0206,-211.4626 411.9088,-208.6951 411.9088,-208.6951 411.9088,-208.6951 409.0206,-211.4626 409.4181,-206.0958 406.1325,-214.23 406.1325,-214.23"/>
<ellipse fill="none" stroke="#000000" cx="403.822" cy="-216.444" rx="3.2" ry="3.2"/>
</g>
<!-- patient_data&#45;&gt;users -->
<g id="edge28" class="edge">
<title>patient_data:w&#45;&gt;users:e</title>
<path fill="none" stroke="#000000" d="M163.5493,-948.3587C144.0265,-932.4816 137.9307,-916.7678 124,-895.9655 89.381,-844.2704 145.7163,-761.9655 83.5,-780.9655"/>
<polygon fill="#000000" stroke="#000000" points="169.0083,-952.2903 173.3961,-959.8868 172.2542,-954.6279 175.5,-956.9655 175.5,-956.9655 175.5,-956.9655 172.2542,-954.6279 177.6039,-954.0443 169.0083,-952.2903 169.0083,-952.2903"/>
<ellipse fill="none" stroke="#000000" cx="166.4116" cy="-950.4201" rx="3.2" ry="3.2"/>
</g>
<!-- patient_data&#45;&gt;users -->
<g id="edge29" class="edge">
<title>patient_data:w&#45;&gt;users:e</title>
<path fill="none" stroke="#000000" d="M161.7012,-952.6466C143.6251,-944.4625 137.4814,-929.0967 124,-908.9655 89.381,-857.2704 145.7163,-774.9655 83.5,-780.9655"/>
<polygon fill="#000000" stroke="#000000" points="167.8652,-954.5759 174.4246,-960.4012 171.6826,-955.7707 175.5,-956.9655 175.5,-956.9655 175.5,-956.9655 171.6826,-955.7707 176.5754,-953.5299 167.8652,-954.5759 167.8652,-954.5759"/>
<ellipse fill="none" stroke="#000000" cx="164.8113" cy="-953.62" rx="3.2" ry="3.2"/>
</g>
<!-- patient_data&#45;&gt;users -->
<g id="edge30" class="edge">
<title>patient_data:w&#45;&gt;users:e</title>
<path fill="none" stroke="#000000" d="M160.9338,-958.4186C143.448,-957.0225 137.2888,-941.8092 124,-921.9655 89.381,-870.2704 145.7163,-787.9655 83.5,-780.9655"/>
<polygon fill="#000000" stroke="#000000" points="167.5395,-957.7597 175.8574,-960.5478 171.5198,-957.3626 175.5,-956.9655 175.5,-956.9655 175.5,-956.9655 171.5198,-957.3626 175.1426,-953.3833 167.5395,-957.7597 167.5395,-957.7597"/>
<ellipse fill="none" stroke="#000000" cx="164.3553" cy="-958.0774" rx="3.2" ry="3.2"/>
</g>
<!-- patient_data&#45;&gt;users -->
<g id="edge31" class="edge">
<title>patient_data:w&#45;&gt;users:e</title>
<path fill="none" stroke="#000000" d="M162.7473,-963.9186C143.8564,-971.0462 137.7381,-955.4802 124,-934.9655 89.381,-883.2704 145.7163,-800.9655 83.5,-780.9655"/>
<polygon fill="#000000" stroke="#000000" points="168.4761,-960.7951 177.2233,-960.1263 171.9881,-958.8803 175.5,-956.9655 175.5,-956.9655 175.5,-956.9655 171.9881,-958.8803 173.7767,-953.8048 168.4761,-960.7951 168.4761,-960.7951"/>
<ellipse fill="none" stroke="#000000" cx="165.6666" cy="-962.327" rx="3.2" ry="3.2"/>
</g>
<!-- form_vitals -->
<g id="node5" class="node">
<title>form_vitals</title>
<g id="a_node5"><a xlink:href="../../tables/form_vitals.html" xlink:title="form_vitals" target="_top">
<polygon fill="#ffffff" stroke="transparent" points="410.5,-1089.4655 410.5,-1150.4655 523.5,-1150.4655 523.5,-1089.4655 410.5,-1089.4655"/>
<polygon fill="#f5f5f5" stroke="transparent" points="411,-1126.9655 411,-1149.9655 524,-1149.9655 524,-1126.9655 411,-1126.9655"/>
<polygon fill="none" stroke="#000000" points="411,-1126.9655 411,-1149.9655 524,-1149.9655 524,-1126.9655 411,-1126.9655"/>
<text text-anchor="start" x="416" y="-1135.5655" font-family="Helvetica,sans-Serif" font-weight="bold" font-size="11.00" fill="#000000">form_vitals</text>
<text text-anchor="start" x="489.5219" y="-1135.0655" font-family="Helvetica,sans-Serif" font-size="11.00" fill="#000000">[table]</text>
<polygon fill="none" stroke="#000000" points="411,-1107.9655 411,-1126.9655 524,-1126.9655 524,-1107.9655 411,-1107.9655"/>
<text text-anchor="start" x="414" y="-1114.0655" font-family="Helvetica,sans-Serif" font-size="11.00" fill="#000000">...</text>
<polygon fill="#ffffff" stroke="transparent" points="411,-1088.9655 411,-1107.9655 461,-1107.9655 461,-1088.9655 411,-1088.9655"/>
<polygon fill="none" stroke="#000000" points="411,-1088.9655 411,-1107.9655 461,-1107.9655 461,-1088.9655 411,-1088.9655"/>
<text text-anchor="start" x="414" y="-1095.0655" font-family="Helvetica,sans-Serif" font-size="11.00" fill="#000000">&lt; 3</text>
<polygon fill="#ffffff" stroke="transparent" points="461,-1088.9655 461,-1107.9655 488,-1107.9655 488,-1088.9655 461,-1088.9655"/>
<polygon fill="none" stroke="#000000" points="461,-1088.9655 461,-1107.9655 488,-1107.9655 488,-1088.9655 461,-1088.9655"/>
<text text-anchor="start" x="478.8862" y="-1095.0655" font-family="Helvetica,sans-Serif" font-size="11.00" fill="#000000"> &#160;</text>
<polygon fill="#ffffff" stroke="transparent" points="488,-1088.9655 488,-1107.9655 524,-1107.9655 524,-1088.9655 488,-1088.9655"/>
<polygon fill="none" stroke="#000000" points="488,-1088.9655 488,-1107.9655 524,-1107.9655 524,-1088.9655 488,-1088.9655"/>
<text text-anchor="start" x="505.4053" y="-1095.0655" font-family="Helvetica,sans-Serif" font-size="11.00" fill="#000000">1 &gt;</text>
</a>
</g>
</g>
<!-- form_vitals&#45;&gt;users -->
<g id="edge7" class="edge">
<title>form_vitals:w&#45;&gt;users:e</title>
<path fill="none" stroke="#000000" d="M396.3761,-1116.9246C268.875,-1116.1593 207.8338,-1103.7134 124,-1000.9655 92.5738,-962.4491 133.2104,-780.9655 83.5,-780.9655"/>
<polygon fill="#000000" stroke="#000000" points="403,-1116.9431 410.9899,-1120.5655 407,-1116.9543 411,-1116.9655 411,-1116.9655 411,-1116.9655 407,-1116.9543 411.0101,-1113.3655 403,-1116.9431 403,-1116.9431"/>
<ellipse fill="none" stroke="#000000" cx="399.8" cy="-1116.9341" rx="3.2" ry="3.2"/>
</g>
<!-- form_vitals&#45;&gt;patient_data -->
<g id="edge6" class="edge">
<title>form_vitals:w&#45;&gt;patient_data:e</title>
<path fill="none" stroke="#000000" d="M396.4165,-1115.1687C331.4761,-1097.5905 380.7577,-956.9655 299.5,-956.9655"/>
<polygon fill="#000000" stroke="#000000" points="403.06,-1115.9872 410.5597,-1120.5385 407.03,-1116.4764 411,-1116.9655 411,-1116.9655 411,-1116.9655 407.03,-1116.4764 411.4403,-1113.3926 403.06,-1115.9872 403.06,-1115.9872"/>
<ellipse fill="none" stroke="#000000" cx="399.8841" cy="-1115.5958" rx="3.2" ry="3.2"/>
</g>
<!-- groups -->
<g id="node6" class="node">
<title>groups</title>
<g id="a_node6"><a xlink:href="../../tables/groups.html" xlink:title="groups" target="_top">
<polygon fill="#ffffff" stroke="transparent" points="194.5,-819.4655 194.5,-880.4655 280.5,-880.4655 280.5,-819.4655 194.5,-819.4655"/>
<polygon fill="#f5f5f5" stroke="transparent" points="194.5,-856.9655 194.5,-879.9655 280.5,-879.9655 280.5,-856.9655 194.5,-856.9655"/>
<polygon fill="none" stroke="#000000" points="194.5,-856.9655 194.5,-879.9655 280.5,-879.9655 280.5,-856.9655 194.5,-856.9655"/>
<text text-anchor="start" x="199.5" y="-865.5655" font-family="Helvetica,sans-Serif" font-weight="bold" font-size="11.00" fill="#000000">groups</text>
<text text-anchor="start" x="246.0219" y="-865.0655" font-family="Helvetica,sans-Serif" font-size="11.00" fill="#000000">[table]</text>
<polygon fill="none" stroke="#000000" points="194.5,-837.9655 194.5,-856.9655 280.5,-856.9655 280.5,-837.9655 194.5,-837.9655"/>
<text text-anchor="start" x="197.5" y="-844.0655" font-family="Helvetica,sans-Serif" font-size="11.00" fill="#000000">...</text>
<polygon fill="#ffffff" stroke="transparent" points="194.5,-818.9655 194.5,-837.9655 223.5,-837.9655 223.5,-818.9655 194.5,-818.9655"/>
<polygon fill="none" stroke="#000000" points="194.5,-818.9655 194.5,-837.9655 223.5,-837.9655 223.5,-818.9655 194.5,-818.9655"/>
<text text-anchor="start" x="197.5" y="-825.0655" font-family="Helvetica,sans-Serif" font-size="11.00" fill="#000000"> &#160;</text>
<polygon fill="#ffffff" stroke="transparent" points="223.5,-818.9655 223.5,-837.9655 244.5,-837.9655 244.5,-818.9655 223.5,-818.9655"/>
<polygon fill="none" stroke="#000000" points="223.5,-818.9655 223.5,-837.9655 244.5,-837.9655 244.5,-818.9655 223.5,-818.9655"/>
<text text-anchor="start" x="235.3862" y="-825.0655" font-family="Helvetica,sans-Serif" font-size="11.00" fill="#000000"> &#160;</text>
<polygon fill="#ffffff" stroke="transparent" points="244.5,-818.9655 244.5,-837.9655 280.5,-837.9655 280.5,-818.9655 244.5,-818.9655"/>
<polygon fill="none" stroke="#000000" points="244.5,-818.9655 244.5,-837.9655 280.5,-837.9655 280.5,-818.9655 244.5,-818.9655"/>
<text text-anchor="start" x="255.7904" y="-825.0655" font-family="Helvetica,sans-Serif" font-size="11.00" fill="#000000">10 &gt;</text>
</a>
</g>
</g>
<!-- form_vitals&#45;&gt;groups -->
<g id="edge5" class="edge">
<title>form_vitals:w&#45;&gt;groups:e</title>
<path fill="none" stroke="#000000" d="M396.5357,-1115.7731C327.851,-1103.1712 395.1006,-993.4534 351,-918.9655 328.1835,-880.4274 325.2859,-846.9655 280.5,-846.9655"/>
<polygon fill="#000000" stroke="#000000" points="403.027,-1116.3082 410.7042,-1120.5534 407.0135,-1116.6369 411,-1116.9655 411,-1116.9655 411,-1116.9655 407.0135,-1116.6369 411.2958,-1113.3777 403.027,-1116.3082 403.027,-1116.3082"/>
<ellipse fill="none" stroke="#000000" cx="399.8379" cy="-1116.0452" rx="3.2" ry="3.2"/>
</g>
<!-- lists -->
<g id="node7" class="node">
<title>lists</title>
<g id="a_node7"><a xlink:href="../../tables/lists.html" xlink:title="lists" target="_top">
<polygon fill="#ffffff" stroke="transparent" points="396,-402.4655 396,-749.4655 538,-749.4655 538,-402.4655 396,-402.4655"/>
<polygon fill="#f5f5f5" stroke="transparent" points="396,-725.9655 396,-748.9655 538,-748.9655 538,-725.9655 396,-725.9655"/>
<polygon fill="none" stroke="#000000" points="396,-725.9655 396,-748.9655 538,-748.9655 538,-725.9655 396,-725.9655"/>
<text text-anchor="start" x="401" y="-734.5655" font-family="Helvetica,sans-Serif" font-weight="bold" font-size="11.00" fill="#000000">lists</text>
<text text-anchor="start" x="503.0437" y="-734.0655" font-family="Helvetica,sans-Serif" font-size="11.00" fill="#000000">[table]</text>
<polygon fill="none" stroke="#000000" points="396,-703.9655 396,-725.9655 538,-725.9655 538,-703.9655 396,-703.9655"/>
<image xlink:href="../../images/primaryKeys.png" width="11px" height="12px" preserveAspectRatio="xMinYMin meet" x="401" y="-720.966"/>
<text text-anchor="start" x="416" y="-711.0655" font-family="Helvetica,sans-Serif" font-size="11.00" fill="#000000">id</text>
<polygon fill="#ffffff" stroke="transparent" points="396,-681.9655 396,-703.9655 538,-703.9655 538,-681.9655 396,-681.9655"/>
<polygon fill="none" stroke="#000000" points="396,-681.9655 396,-703.9655 538,-703.9655 538,-681.9655 396,-681.9655"/>
<text text-anchor="start" x="416" y="-689.0655" font-family="Helvetica,sans-Serif" font-size="11.00" fill="#000000">uuid</text>
<polygon fill="#ffffff" stroke="transparent" points="396,-659.9655 396,-681.9655 538,-681.9655 538,-659.9655 396,-659.9655"/>
<polygon fill="none" stroke="#000000" points="396,-659.9655 396,-681.9655 538,-681.9655 538,-659.9655 396,-659.9655"/>
<image xlink:href="../../images/foreignKeys.png" width="11px" height="12px" preserveAspectRatio="xMinYMin meet" x="401" y="-676.966"/>
<text text-anchor="start" x="416" y="-667.0655" font-family="Helvetica,sans-Serif" font-size="11.00" fill="#000000">type</text>
<polygon fill="none" stroke="#000000" points="396,-637.9655 396,-659.9655 538,-659.9655 538,-637.9655 396,-637.9655"/>
<image xlink:href="../../images/foreignKeys.png" width="11px" height="12px" preserveAspectRatio="xMinYMin meet" x="401" y="-654.966"/>
<text text-anchor="start" x="416" y="-645.0655" font-family="Helvetica,sans-Serif" font-size="11.00" fill="#000000">subtype</text>
<polygon fill="none" stroke="#000000" points="396,-615.9655 396,-637.9655 538,-637.9655 538,-615.9655 396,-615.9655"/>
<image xlink:href="../../images/foreignKeys.png" width="11px" height="12px" preserveAspectRatio="xMinYMin meet" x="401" y="-632.966"/>
<text text-anchor="start" x="416" y="-623.0655" font-family="Helvetica,sans-Serif" font-size="11.00" fill="#000000">occurrence</text>
<polygon fill="#ffffff" stroke="transparent" points="396,-593.9655 396,-615.9655 538,-615.9655 538,-593.9655 396,-593.9655"/>
<polygon fill="none" stroke="#000000" points="396,-593.9655 396,-615.9655 538,-615.9655 538,-593.9655 396,-593.9655"/>
<image xlink:href="../../images/foreignKeys.png" width="11px" height="12px" preserveAspectRatio="xMinYMin meet" x="401" y="-610.966"/>
<text text-anchor="start" x="416" y="-601.0655" font-family="Helvetica,sans-Serif" font-size="11.00" fill="#000000">pid</text>
<polygon fill="none" stroke="#000000" points="396,-571.9655 396,-593.9655 538,-593.9655 538,-571.9655 396,-571.9655"/>
<image xlink:href="../../images/foreignKeys.png" width="11px" height="12px" preserveAspectRatio="xMinYMin meet" x="401" y="-588.966"/>
<text text-anchor="start" x="416" y="-579.0655" font-family="Helvetica,sans-Serif" font-size="11.00" fill="#000000">user</text>
<polygon fill="none" stroke="#000000" points="396,-549.9655 396,-571.9655 538,-571.9655 538,-549.9655 396,-549.9655"/>
<image xlink:href="../../images/foreignKeys.png" width="11px" height="12px" preserveAspectRatio="xMinYMin meet" x="401" y="-566.966"/>
<text text-anchor="start" x="416" y="-557.0655" font-family="Helvetica,sans-Serif" font-size="11.00" fill="#000000">groupname</text>
<polygon fill="none" stroke="#000000" points="396,-527.9655 396,-549.9655 538,-549.9655 538,-527.9655 396,-527.9655"/>
<image xlink:href="../../images/foreignKeys.png" width="11px" height="12px" preserveAspectRatio="xMinYMin meet" x="401" y="-544.966"/>
<text text-anchor="start" x="416" y="-535.0655" font-family="Helvetica,sans-Serif" font-size="11.00" fill="#000000">outcome</text>
<polygon fill="none" stroke="#000000" points="396,-505.9655 396,-527.9655 538,-527.9655 538,-505.9655 396,-505.9655"/>
<image xlink:href="../../images/foreignKeys.png" width="11px" height="12px" preserveAspectRatio="xMinYMin meet" x="401" y="-522.966"/>
<text text-anchor="start" x="416" y="-513.0655" font-family="Helvetica,sans-Serif" font-size="11.00" fill="#000000">reaction</text>
<polygon fill="none" stroke="#000000" points="396,-483.9655 396,-505.9655 538,-505.9655 538,-483.9655 396,-483.9655"/>
<image xlink:href="../../images/foreignKeys.png" width="11px" height="12px" preserveAspectRatio="xMinYMin meet" x="401" y="-500.966"/>
<text text-anchor="start" x="416" y="-491.0655" font-family="Helvetica,sans-Serif" font-size="11.00" fill="#000000">verification</text>
<polygon fill="none" stroke="#000000" points="396,-461.9655 396,-483.9655 538,-483.9655 538,-461.9655 396,-461.9655"/>
<image xlink:href="../../images/foreignKeys.png" width="11px" height="12px" preserveAspectRatio="xMinYMin meet" x="401" y="-478.966"/>
<text text-anchor="start" x="416" y="-469.0655" font-family="Helvetica,sans-Serif" font-size="11.00" fill="#000000">severity_al</text>
<polygon fill="none" stroke="#000000" points="396,-439.9655 396,-461.9655 538,-461.9655 538,-439.9655 396,-439.9655"/>
<image xlink:href="../../images/foreignKeys.png" width="11px" height="12px" preserveAspectRatio="xMinYMin meet" x="401" y="-456.966"/>
<text text-anchor="start" x="416" y="-447.0655" font-family="Helvetica,sans-Serif" font-size="11.00" fill="#000000">list_option_id</text>
<polygon fill="none" stroke="#000000" points="396,-420.9655 396,-439.9655 538,-439.9655 538,-420.9655 396,-420.9655"/>
<text text-anchor="start" x="399" y="-427.0655" font-family="Helvetica,sans-Serif" font-size="11.00" fill="#000000">...</text>
<polygon fill="#ffffff" stroke="transparent" points="396,-401.9655 396,-420.9655 464,-420.9655 464,-401.9655 396,-401.9655"/>
<polygon fill="none" stroke="#000000" points="396,-401.9655 396,-420.9655 464,-420.9655 464,-401.9655 396,-401.9655"/>
<text text-anchor="start" x="399" y="-408.0655" font-family="Helvetica,sans-Serif" font-size="11.00" fill="#000000">&lt; 11</text>
<polygon fill="#ffffff" stroke="transparent" points="464,-401.9655 464,-420.9655 496,-420.9655 496,-401.9655 464,-401.9655"/>
<polygon fill="none" stroke="#000000" points="464,-401.9655 464,-420.9655 496,-420.9655 496,-401.9655 464,-401.9655"/>
<text text-anchor="start" x="486.8862" y="-408.0655" font-family="Helvetica,sans-Serif" font-size="11.00" fill="#000000"> &#160;</text>
<polygon fill="#ffffff" stroke="transparent" points="496,-401.9655 496,-420.9655 538,-420.9655 538,-401.9655 496,-401.9655"/>
<polygon fill="none" stroke="#000000" points="496,-401.9655 496,-420.9655 538,-420.9655 538,-401.9655 496,-401.9655"/>
<text text-anchor="start" x="519.4053" y="-408.0655" font-family="Helvetica,sans-Serif" font-size="11.00" fill="#000000">1 &gt;</text>
</a>
</g>
</g>
<!-- lists&#45;&gt;list_options -->
<g id="edge9" class="edge">
<title>lists:w&#45;&gt;list_options:e</title>
<path fill="none" stroke="#000000" d="M381.8114,-455.5167C364.6869,-469.1897 370.7928,-508.9655 341.5,-508.9655"/>
<polygon fill="#000000" stroke="#000000" points="388.3823,-453.409 397.0996,-454.3935 392.1911,-452.1873 396,-450.9655 396,-450.9655 396,-450.9655 392.1911,-452.1873 394.9004,-447.5376 388.3823,-453.409 388.3823,-453.409"/>
<ellipse fill="none" stroke="#000000" cx="385.3352" cy="-454.3864" rx="3.2" ry="3.2"/>
</g>
<!-- lists&#45;&gt;list_options -->
<g id="edge10" class="edge">
<title>lists:w&#45;&gt;list_options:e</title>
<path fill="none" stroke="#000000" d="M381.8263,-623.5613C349.4045,-604.2139 393.4009,-508.9655 341.5,-508.9655"/>
<polygon fill="#000000" stroke="#000000" points="388.2212,-625.0972 395.1592,-630.466 392.1106,-626.0314 396,-626.9655 396,-626.9655 396,-626.9655 392.1106,-626.0314 396.8408,-623.4651 388.2212,-625.0972 388.2212,-625.0972"/>
<ellipse fill="none" stroke="#000000" cx="385.1097" cy="-624.3498" rx="3.2" ry="3.2"/>
</g>
<!-- lists&#45;&gt;list_options -->
<g id="edge11" class="edge">
<title>lists:w&#45;&gt;list_options:e</title>
<path fill="none" stroke="#000000" d="M381.7665,-535.5242C367.4218,-527.6441 363.3172,-508.9655 341.5,-508.9655"/>
<polygon fill="#000000" stroke="#000000" points="388.2241,-537.0854 395.154,-542.4647 392.112,-538.0255 396,-538.9655 396,-538.9655 396,-538.9655 392.112,-538.0255 396.846,-535.4664 388.2241,-537.0854 388.2241,-537.0854"/>
<ellipse fill="none" stroke="#000000" cx="385.1137" cy="-536.3334" rx="3.2" ry="3.2"/>
</g>
<!-- lists&#45;&gt;list_options -->
<g id="edge13" class="edge">
<title>lists:w&#45;&gt;list_options:e</title>
<path fill="none" stroke="#000000" d="M381.4205,-515.8532C367.8823,-513.655 360.2439,-508.9655 341.5,-508.9655"/>
<polygon fill="#000000" stroke="#000000" points="388.0232,-516.3569 395.7261,-520.5551 392.0116,-516.6612 396,-516.9655 396,-516.9655 396,-516.9655 392.0116,-516.6612 396.2739,-513.376 388.0232,-516.3569 388.0232,-516.3569"/>
<ellipse fill="none" stroke="#000000" cx="384.8325" cy="-516.1134" rx="3.2" ry="3.2"/>
</g>
<!-- lists&#45;&gt;list_options -->
<g id="edge14" class="edge">
<title>lists:w&#45;&gt;list_options:e</title>
<path fill="none" stroke="#000000" d="M381.7977,-476.8182C367.0717,-486.1052 364.6329,-508.9655 341.5,-508.9655"/>
<polygon fill="#000000" stroke="#000000" points="388.279,-475.06 396.9425,-476.44 392.1395,-474.0128 396,-472.9655 396,-472.9655 396,-472.9655 392.1395,-474.0128 395.0575,-469.4911 388.279,-475.06 388.279,-475.06"/>
<ellipse fill="none" stroke="#000000" cx="385.1906" cy="-475.8978" rx="3.2" ry="3.2"/>
</g>
<!-- lists&#45;&gt;list_options -->
<g id="edge15" class="edge">
<title>lists:w&#45;&gt;list_options:e</title>
<path fill="none" stroke="#000000" d="M381.8312,-646.0414C341.7377,-625.937 402.5326,-508.9655 341.5,-508.9655"/>
<polygon fill="#000000" stroke="#000000" points="388.1651,-647.3486 395.2724,-652.4912 392.0826,-648.157 396,-648.9655 396,-648.9655 396,-648.9655 392.0826,-648.157 396.7276,-645.4398 388.1651,-647.3486 388.1651,-647.3486"/>
<ellipse fill="none" stroke="#000000" cx="385.0311" cy="-646.7018" rx="3.2" ry="3.2"/>
</g>
<!-- lists&#45;&gt;list_options -->
<g id="edge18" class="edge">
<title>lists:w&#45;&gt;list_options:e</title>
<path fill="none" stroke="#000000" d="M381.6853,-496.7958C367.9065,-500.5907 360.8426,-508.9655 341.5,-508.9655"/>
<polygon fill="#000000" stroke="#000000" points="388.0646,-495.9802 396.4566,-498.5365 392.0323,-495.4729 396,-494.9655 396,-494.9655 396,-494.9655 392.0323,-495.4729 395.5434,-491.3946 388.0646,-495.9802 388.0646,-495.9802"/>
<ellipse fill="none" stroke="#000000" cx="384.8904" cy="-496.3861" rx="3.2" ry="3.2"/>
</g>
<!-- lists&#45;&gt;users -->
<g id="edge17" class="edge">
<title>lists:w&#45;&gt;users:e</title>
<path fill="none" stroke="#000000" d="M381.5744,-583.0992C311.8946,-584.3156 166.0874,-594.3239 124,-632.9655 73.7655,-679.0872 151.6962,-780.9655 83.5,-780.9655"/>
<polygon fill="#000000" stroke="#000000" points="388.0003,-583.0397 396.0334,-586.5654 392.0002,-583.0026 396,-582.9655 396,-582.9655 396,-582.9655 392.0002,-583.0026 395.9666,-579.3657 388.0003,-583.0397 388.0003,-583.0397"/>
<ellipse fill="none" stroke="#000000" cx="384.8005" cy="-583.0694" rx="3.2" ry="3.2"/>
</g>
<!-- lists&#45;&gt;patient_data -->
<g id="edge12" class="edge">
<title>lists:w&#45;&gt;patient_data:e</title>
<path fill="none" stroke="#000000" d="M382.2738,-609.3296C338.5614,-641.0739 374.506,-836.785 351,-890.9655 336.1916,-925.0985 336.7068,-956.9655 299.5,-956.9655"/>
<polygon fill="#000000" stroke="#000000" points="388.3761,-607.3895 397.0908,-608.3963 392.188,-606.1775 396,-604.9655 396,-604.9655 396,-604.9655 392.188,-606.1775 394.9092,-601.5348 388.3761,-607.3895 388.3761,-607.3895"/>
<ellipse fill="none" stroke="#000000" cx="385.3265" cy="-608.3591" rx="3.2" ry="3.2"/>
</g>
<!-- lists&#45;&gt;groups -->
<g id="edge8" class="edge">
<title>lists:w&#45;&gt;groups:e</title>
<path fill="none" stroke="#000000" d="M381.4705,-562.524C332.5237,-574.5781 375.835,-654.1016 351,-714.9655 325.8725,-776.5461 347.0098,-846.9655 280.5,-846.9655"/>
<polygon fill="#000000" stroke="#000000" points="388.0456,-561.8188 396.384,-564.545 392.0228,-561.3922 396,-560.9655 396,-560.9655 396,-560.9655 392.0228,-561.3922 395.616,-557.3861 388.0456,-561.8188 388.0456,-561.8188"/>
<ellipse fill="none" stroke="#000000" cx="384.8639" cy="-562.1601" rx="3.2" ry="3.2"/>
</g>
<!-- issue_types -->
<g id="node8" class="node">
<title>issue_types</title>
<g id="a_node8"><a xlink:href="../../tables/issue_types.html" xlink:title="issue_types" target="_top">
<polygon fill="#ffffff" stroke="transparent" points="179,-643.4655 179,-704.4655 296,-704.4655 296,-643.4655 179,-643.4655"/>
<polygon fill="#f5f5f5" stroke="transparent" points="179.5,-680.9655 179.5,-703.9655 296.5,-703.9655 296.5,-680.9655 179.5,-680.9655"/>
<polygon fill="none" stroke="#000000" points="179.5,-680.9655 179.5,-703.9655 296.5,-703.9655 296.5,-680.9655 179.5,-680.9655"/>
<text text-anchor="start" x="184.5" y="-689.5655" font-family="Helvetica,sans-Serif" font-weight="bold" font-size="11.00" fill="#000000">issue_types</text>
<text text-anchor="start" x="262.0219" y="-689.0655" font-family="Helvetica,sans-Serif" font-size="11.00" fill="#000000">[table]</text>
<polygon fill="none" stroke="#000000" points="179.5,-661.9655 179.5,-680.9655 296.5,-680.9655 296.5,-661.9655 179.5,-661.9655"/>
<text text-anchor="start" x="182.5" y="-668.0655" font-family="Helvetica,sans-Serif" font-size="11.00" fill="#000000">...</text>
<polygon fill="#ffffff" stroke="transparent" points="179.5,-642.9655 179.5,-661.9655 227.5,-661.9655 227.5,-642.9655 179.5,-642.9655"/>
<polygon fill="none" stroke="#000000" points="179.5,-642.9655 179.5,-661.9655 227.5,-661.9655 227.5,-642.9655 179.5,-642.9655"/>
<text text-anchor="start" x="182.5" y="-649.0655" font-family="Helvetica,sans-Serif" font-size="11.00" fill="#000000"> &#160;</text>
<polygon fill="#ffffff" stroke="transparent" points="227.5,-642.9655 227.5,-661.9655 257.5,-661.9655 257.5,-642.9655 227.5,-642.9655"/>
<polygon fill="none" stroke="#000000" points="227.5,-642.9655 227.5,-661.9655 257.5,-661.9655 257.5,-642.9655 227.5,-642.9655"/>
<text text-anchor="start" x="248.3862" y="-649.0655" font-family="Helvetica,sans-Serif" font-size="11.00" fill="#000000"> &#160;</text>
<polygon fill="#ffffff" stroke="transparent" points="257.5,-642.9655 257.5,-661.9655 296.5,-661.9655 296.5,-642.9655 257.5,-642.9655"/>
<polygon fill="none" stroke="#000000" points="257.5,-642.9655 257.5,-661.9655 296.5,-661.9655 296.5,-642.9655 257.5,-642.9655"/>
<text text-anchor="start" x="277.9053" y="-649.0655" font-family="Helvetica,sans-Serif" font-size="11.00" fill="#000000">1 &gt;</text>
</a>
</g>
</g>
<!-- lists&#45;&gt;issue_types -->
<g id="edge16" class="edge">
<title>lists:w&#45;&gt;issue_types:e</title>
<path fill="none" stroke="#000000" d="M381.2761,-670.9655C348.6139,-670.9655 335.3672,-670.9655 296.5,-670.9655"/>
<polygon fill="#000000" stroke="#000000" points="388,-670.9656 396,-674.5655 392,-670.9656 396,-670.9655 396,-670.9655 396,-670.9655 392,-670.9656 396,-667.3655 388,-670.9656 388,-670.9656"/>
<ellipse fill="none" stroke="#000000" cx="384.8" cy="-670.9656" rx="3.2" ry="3.2"/>
</g>
<!-- lists_medication -->
<g id="node9" class="node">
<title>lists_medication</title>
<g id="a_node9"><a xlink:href="../../tables/lists_medication.html" xlink:title="lists_medication" target="_top">
<polygon fill="#ffffff" stroke="transparent" points="611,-156.4655 611,-217.4655 759,-217.4655 759,-156.4655 611,-156.4655"/>
<polygon fill="#f5f5f5" stroke="transparent" points="611,-193.9655 611,-216.9655 759,-216.9655 759,-193.9655 611,-193.9655"/>
<polygon fill="none" stroke="#000000" points="611,-193.9655 611,-216.9655 759,-216.9655 759,-193.9655 611,-193.9655"/>
<text text-anchor="start" x="616" y="-202.5655" font-family="Helvetica,sans-Serif" font-weight="bold" font-size="11.00" fill="#000000">lists_medication</text>
<text text-anchor="start" x="724.5219" y="-202.0655" font-family="Helvetica,sans-Serif" font-size="11.00" fill="#000000">[table]</text>
<polygon fill="none" stroke="#000000" points="611,-174.9655 611,-193.9655 759,-193.9655 759,-174.9655 611,-174.9655"/>
<text text-anchor="start" x="614" y="-181.0655" font-family="Helvetica,sans-Serif" font-size="11.00" fill="#000000">...</text>
<polygon fill="#ffffff" stroke="transparent" points="611,-155.9655 611,-174.9655 683,-174.9655 683,-155.9655 611,-155.9655"/>
<polygon fill="none" stroke="#000000" points="611,-155.9655 611,-174.9655 683,-174.9655 683,-155.9655 611,-155.9655"/>
<text text-anchor="start" x="614" y="-162.0655" font-family="Helvetica,sans-Serif" font-size="11.00" fill="#000000">&lt; 2</text>
<polygon fill="#ffffff" stroke="transparent" points="683,-155.9655 683,-174.9655 721,-174.9655 721,-155.9655 683,-155.9655"/>
<polygon fill="none" stroke="#000000" points="683,-155.9655 683,-174.9655 721,-174.9655 721,-155.9655 683,-155.9655"/>
<text text-anchor="start" x="711.8862" y="-162.0655" font-family="Helvetica,sans-Serif" font-size="11.00" fill="#000000"> &#160;</text>
<polygon fill="#ffffff" stroke="transparent" points="721,-155.9655 721,-174.9655 759,-174.9655 759,-155.9655 721,-155.9655"/>
<polygon fill="none" stroke="#000000" points="721,-155.9655 721,-174.9655 759,-174.9655 759,-155.9655 721,-155.9655"/>
<text text-anchor="start" x="749.8862" y="-162.0655" font-family="Helvetica,sans-Serif" font-size="11.00" fill="#000000"> &#160;</text>
</a>
</g>
</g>
<!-- lists_medication&#45;&gt;users -->
<g id="edge19" class="edge">
<title>lists_medication:w&#45;&gt;users:e</title>
<path fill="none" stroke="#000000" d="M596.695,-181.1285C577.0184,-171.9796 577.6913,-143.2532 550,-132.9655 529.0951,-125.1991 126.7257,-127.4041 124,-129.9655 71.1867,-179.5953 155.9732,-780.9655 83.5,-780.9655"/>
<polygon fill="#000000" stroke="#000000" points="603.1528,-182.4092 610.2996,-187.4968 607.0764,-183.1874 611,-183.9655 611,-183.9655 611,-183.9655 607.0764,-183.1874 611.7004,-180.4343 603.1528,-182.4092 603.1528,-182.4092"/>
<ellipse fill="none" stroke="#000000" cx="600.014" cy="-181.7867" rx="3.2" ry="3.2"/>
</g>
<!-- lists_medication&#45;&gt;lists -->
<g id="edge20" class="edge">
<title>lists_medication:w&#45;&gt;lists:e</title>
<path fill="none" stroke="#000000" d="M596.945,-188.3584C587.2632,-196.7214 588.6795,-215.7273 583,-233.9655 567.0404,-285.2159 591.6778,-714.9655 538,-714.9655"/>
<polygon fill="#000000" stroke="#000000" points="603.3643,-186.3521 612.074,-187.4016 607.1821,-185.1588 611,-183.9655 611,-183.9655 611,-183.9655 607.1821,-185.1588 609.926,-180.5295 603.3643,-186.3521 603.3643,-186.3521"/>
<ellipse fill="none" stroke="#000000" cx="600.31" cy="-187.3067" rx="3.2" ry="3.2"/>
</g>
<!-- amendments_history -->
<g id="node10" class="node">
<title>amendments_history</title>
<g id="a_node10"><a xlink:href="../../tables/amendments_history.html" xlink:title="amendments_history" target="_top">
<polygon fill="#ffffff" stroke="transparent" points="595,-71.4655 595,-132.4655 775,-132.4655 775,-71.4655 595,-71.4655"/>
<polygon fill="#f5f5f5" stroke="transparent" points="595,-108.9655 595,-131.9655 775,-131.9655 775,-108.9655 595,-108.9655"/>
<polygon fill="none" stroke="#000000" points="595,-108.9655 595,-131.9655 775,-131.9655 775,-108.9655 595,-108.9655"/>
<text text-anchor="start" x="600" y="-117.5655" font-family="Helvetica,sans-Serif" font-weight="bold" font-size="11.00" fill="#000000">amendments_history</text>
<text text-anchor="start" x="740.5219" y="-117.0655" font-family="Helvetica,sans-Serif" font-size="11.00" fill="#000000">[table]</text>
<polygon fill="none" stroke="#000000" points="595,-89.9655 595,-108.9655 775,-108.9655 775,-89.9655 595,-89.9655"/>
<text text-anchor="start" x="598" y="-96.0655" font-family="Helvetica,sans-Serif" font-size="11.00" fill="#000000">...</text>
<polygon fill="#ffffff" stroke="transparent" points="595,-70.9655 595,-89.9655 683,-89.9655 683,-70.9655 595,-70.9655"/>
<polygon fill="none" stroke="#000000" points="595,-70.9655 595,-89.9655 683,-89.9655 683,-70.9655 595,-70.9655"/>
<text text-anchor="start" x="598" y="-77.0655" font-family="Helvetica,sans-Serif" font-size="11.00" fill="#000000">&lt; 4</text>
<polygon fill="#ffffff" stroke="transparent" points="683,-70.9655 683,-89.9655 729,-89.9655 729,-70.9655 683,-70.9655"/>
<polygon fill="none" stroke="#000000" points="683,-70.9655 683,-89.9655 729,-89.9655 729,-70.9655 683,-70.9655"/>
<text text-anchor="start" x="719.8862" y="-77.0655" font-family="Helvetica,sans-Serif" font-size="11.00" fill="#000000"> &#160;</text>
<polygon fill="#ffffff" stroke="transparent" points="729,-70.9655 729,-89.9655 775,-89.9655 775,-70.9655 729,-70.9655"/>
<polygon fill="none" stroke="#000000" points="729,-70.9655 729,-89.9655 775,-89.9655 775,-70.9655 729,-70.9655"/>
<text text-anchor="start" x="765.8862" y="-77.0655" font-family="Helvetica,sans-Serif" font-size="11.00" fill="#000000"> &#160;</text>
</a>
</g>
</g>
<!-- amendments_history&#45;&gt;amendments -->
<g id="edge22" class="edge">
<title>amendments_history:w&#45;&gt;amendments:e</title>
<path fill="none" stroke="#000000" d="M572.97,-138.9663C561.1438,-142.8722 549.3652,-146.7623 538.1916,-150.4527"/>
<polygon fill="#000000" stroke="#000000" points="579.2451,-136.8938 587.9705,-137.8033 583.0433,-135.6393 586.8415,-134.3849 586.8415,-134.3849 586.8415,-134.3849 583.0433,-135.6393 585.7124,-130.9665 579.2451,-136.8938 579.2451,-136.8938"/>
<ellipse fill="none" stroke="#000000" cx="576.2065" cy="-137.8974" rx="3.2" ry="3.2"/>
</g>
<!-- amendments_history&#45;&gt;list_options -->
<g id="edge21" class="edge">
<title>amendments_history:w&#45;&gt;list_options:e</title>
<path fill="none" stroke="#000000" d="M583.3266,-145.6529C583.2175,-145.7569 583.1086,-145.8611 583,-145.9655 558.5006,-169.5311 577.1458,-194.5044 550,-214.9655 490.2517,-260.0007 436.6759,-189.8311 384,-242.9655 341.8558,-285.4766 401.3608,-508.9655 341.5,-508.9655"/>
<polygon fill="#000000" stroke="#000000" points="588.0576,-141.7304 596.5139,-139.3956 591.1369,-139.1773 594.2161,-136.6243 594.2161,-136.6243 594.2161,-136.6243 591.1369,-139.1773 591.9184,-133.8529 588.0576,-141.7304 588.0576,-141.7304"/>
<ellipse fill="none" stroke="#000000" cx="585.5942" cy="-143.7728" rx="3.2" ry="3.2"/>
</g>
<!-- amendments_history&#45;&gt;users -->
<g id="edge23" class="edge">
<title>amendments_history:w&#45;&gt;users:e</title>
<path fill="none" stroke="#000000" d="M575.2834,-63.6346C448.3356,-30.0727 241.7167,-2.8532 124,-117.9655 71.708,-169.1006 156.6386,-774.9655 83.5,-780.9655"/>
<polygon fill="#000000" stroke="#000000" points="581.4965,-65.3265 588.2695,-70.9021 585.3559,-66.3776 589.2154,-67.4286 589.2154,-67.4286 589.2154,-67.4286 585.3559,-66.3776 590.1613,-63.9551 581.4965,-65.3265 581.4965,-65.3265"/>
<ellipse fill="none" stroke="#000000" cx="578.4089" cy="-64.4857" rx="3.2" ry="3.2"/>
</g>
<!-- amendments_history&#45;&gt;users -->
<g id="edge24" class="edge">
<title>amendments_history:w&#45;&gt;users:e</title>
<path fill="none" stroke="#000000" d="M572.4421,-72.2359C445.2717,-42.6763 240.8425,-16.708 124,-130.9655 71.708,-182.1006 156.6386,-787.9655 83.5,-780.9655"/>
<polygon fill="#000000" stroke="#000000" points="579.0103,-73.804 585.9557,-79.1634 582.901,-74.7329 586.7916,-75.6618 586.7916,-75.6618 586.7916,-75.6618 582.901,-74.7329 587.6276,-72.1602 579.0103,-73.804 579.0103,-73.804"/>
<ellipse fill="none" stroke="#000000" cx="575.8978" cy="-73.0609" rx="3.2" ry="3.2"/>
</g>
<!-- form_vital_details -->
<g id="node11" class="node">
<title>form_vital_details</title>
<g id="a_node11"><a xlink:href="../../tables/form_vital_details.html" xlink:title="form_vital_details" target="_top">
<polygon fill="#ffffff" stroke="transparent" points="591,-703.4655 591,-830.4655 779,-830.4655 779,-703.4655 591,-703.4655"/>
<polygon fill="#f5f5f5" stroke="transparent" points="591,-806.9655 591,-829.9655 779,-829.9655 779,-806.9655 591,-806.9655"/>
<polygon fill="none" stroke="#000000" points="591,-806.9655 591,-829.9655 779,-829.9655 779,-806.9655 591,-806.9655"/>
<text text-anchor="start" x="596" y="-815.5655" font-family="Helvetica,sans-Serif" font-weight="bold" font-size="11.00" fill="#000000">form_vital_details</text>
<text text-anchor="start" x="744.0437" y="-815.0655" font-family="Helvetica,sans-Serif" font-size="11.00" fill="#000000">[table]</text>
<polygon fill="none" stroke="#000000" points="591,-784.9655 591,-806.9655 779,-806.9655 779,-784.9655 591,-784.9655"/>
<image xlink:href="../../images/foreignKeys.png" width="11px" height="12px" preserveAspectRatio="xMinYMin meet" x="596" y="-801.966"/>
<text text-anchor="start" x="611" y="-792.0655" font-family="Helvetica,sans-Serif" font-size="11.00" fill="#000000">form_id</text>
<polygon fill="none" stroke="#000000" points="591,-762.9655 591,-784.9655 779,-784.9655 779,-762.9655 591,-762.9655"/>
<image xlink:href="../../images/foreignKeys.png" width="11px" height="12px" preserveAspectRatio="xMinYMin meet" x="596" y="-779.966"/>
<text text-anchor="start" x="611" y="-770.0655" font-family="Helvetica,sans-Serif" font-size="11.00" fill="#000000">interpretation_list_id </text>
<polygon fill="none" stroke="#000000" points="591,-740.9655 591,-762.9655 779,-762.9655 779,-740.9655 591,-740.9655"/>
<image xlink:href="../../images/foreignKeys.png" width="11px" height="12px" preserveAspectRatio="xMinYMin meet" x="596" y="-757.966"/>
<text text-anchor="start" x="611" y="-748.0655" font-family="Helvetica,sans-Serif" font-size="11.00" fill="#000000">interpretation_option_id </text>
<polygon fill="none" stroke="#000000" points="591,-721.9655 591,-740.9655 779,-740.9655 779,-721.9655 591,-721.9655"/>
<text text-anchor="start" x="594" y="-728.0655" font-family="Helvetica,sans-Serif" font-size="11.00" fill="#000000">...</text>
<polygon fill="#ffffff" stroke="transparent" points="591,-702.9655 591,-721.9655 683,-721.9655 683,-702.9655 591,-702.9655"/>
<polygon fill="none" stroke="#000000" points="591,-702.9655 591,-721.9655 683,-721.9655 683,-702.9655 591,-702.9655"/>
<text text-anchor="start" x="594" y="-709.0655" font-family="Helvetica,sans-Serif" font-size="11.00" fill="#000000">&lt; 3</text>
<polygon fill="#ffffff" stroke="transparent" points="683,-702.9655 683,-721.9655 731,-721.9655 731,-702.9655 683,-702.9655"/>
<polygon fill="none" stroke="#000000" points="683,-702.9655 683,-721.9655 731,-721.9655 731,-702.9655 683,-702.9655"/>
<text text-anchor="start" x="721.8862" y="-709.0655" font-family="Helvetica,sans-Serif" font-size="11.00" fill="#000000"> &#160;</text>
<polygon fill="#ffffff" stroke="transparent" points="731,-702.9655 731,-721.9655 779,-721.9655 779,-702.9655 731,-702.9655"/>
<polygon fill="none" stroke="#000000" points="731,-702.9655 731,-721.9655 779,-721.9655 779,-702.9655 731,-702.9655"/>
<text text-anchor="start" x="769.8862" y="-709.0655" font-family="Helvetica,sans-Serif" font-size="11.00" fill="#000000"> &#160;</text>
</a>
</g>
</g>
<!-- form_vital_details&#45;&gt;list_options -->
<g id="edge26" class="edge">
<title>form_vital_details:w&#45;&gt;list_options:e</title>
<path fill="none" stroke="#000000" d="M576.4051,-774.3371C522.4533,-776.625 415.2747,-787.8084 384,-759.9655 306.6844,-691.1339 445.0157,-530.9655 341.5,-530.9655"/>
<polygon fill="#000000" stroke="#000000" points="583.0026,-774.1692 591.0917,-777.5644 587.0013,-774.0674 591,-773.9655 591,-773.9655 591,-773.9655 587.0013,-774.0674 590.9083,-770.3667 583.0026,-774.1692 583.0026,-774.1692"/>
<ellipse fill="none" stroke="#000000" cx="579.8036" cy="-774.2507" rx="3.2" ry="3.2"/>
</g>
<!-- form_vital_details&#45;&gt;list_options -->
<g id="edge27" class="edge">
<title>form_vital_details:w&#45;&gt;list_options:e</title>
<path fill="none" stroke="#000000" d="M576.904,-747.849C523.3521,-711.2583 605.9629,-441.9166 550,-391.9655 522.4793,-367.4013 414.2109,-370.7973 384,-391.9655 338.691,-423.7128 396.8244,-508.9655 341.5,-508.9655"/>
<polygon fill="#000000" stroke="#000000" points="583.3208,-749.7229 589.9908,-755.4212 587.1604,-750.8442 591,-751.9655 591,-751.9655 591,-751.9655 587.1604,-750.8442 592.0092,-748.5099 583.3208,-749.7229 583.3208,-749.7229"/>
<ellipse fill="none" stroke="#000000" cx="580.2491" cy="-748.8258" rx="3.2" ry="3.2"/>
</g>
<!-- form_vital_details&#45;&gt;form_vitals -->
<g id="edge25" class="edge">
<title>form_vital_details:w&#45;&gt;form_vitals:e</title>
<path fill="none" stroke="#000000" d="M577.1564,-801.0077C528.9824,-841.8458 591.4622,-1116.9655 524,-1116.9655"/>
<polygon fill="#000000" stroke="#000000" points="583.4831,-798.7034 592.232,-799.3482 587.2415,-797.3345 591,-795.9655 591,-795.9655 591,-795.9655 587.2415,-797.3345 589.768,-792.5829 583.4831,-798.7034 583.4831,-798.7034"/>
<ellipse fill="none" stroke="#000000" cx="580.4763" cy="-799.7985" rx="3.2" ry="3.2"/>
</g>
<!-- patient_reminders -->
<g id="node12" class="node">
<title>patient_reminders</title>
<g id="a_node12"><a xlink:href="../../tables/patient_reminders.html" xlink:title="patient_reminders" target="_top">
<polygon fill="#ffffff" stroke="transparent" points="604,-326.4655 604,-387.4655 766,-387.4655 766,-326.4655 604,-326.4655"/>
<polygon fill="#f5f5f5" stroke="transparent" points="604,-363.9655 604,-386.9655 766,-386.9655 766,-363.9655 604,-363.9655"/>
<polygon fill="none" stroke="#000000" points="604,-363.9655 604,-386.9655 766,-386.9655 766,-363.9655 604,-363.9655"/>
<text text-anchor="start" x="609" y="-372.5655" font-family="Helvetica,sans-Serif" font-weight="bold" font-size="11.00" fill="#000000">patient_reminders</text>
<text text-anchor="start" x="731.5219" y="-372.0655" font-family="Helvetica,sans-Serif" font-size="11.00" fill="#000000">[table]</text>
<polygon fill="none" stroke="#000000" points="604,-344.9655 604,-363.9655 766,-363.9655 766,-344.9655 604,-344.9655"/>
<text text-anchor="start" x="607" y="-351.0655" font-family="Helvetica,sans-Serif" font-size="11.00" fill="#000000">...</text>
<polygon fill="#ffffff" stroke="transparent" points="604,-325.9655 604,-344.9655 683,-344.9655 683,-325.9655 604,-325.9655"/>
<polygon fill="none" stroke="#000000" points="604,-325.9655 604,-344.9655 683,-344.9655 683,-325.9655 604,-325.9655"/>
<text text-anchor="start" x="607" y="-332.0655" font-family="Helvetica,sans-Serif" font-size="11.00" fill="#000000">&lt; 5</text>
<polygon fill="#ffffff" stroke="transparent" points="683,-325.9655 683,-344.9655 724,-344.9655 724,-325.9655 683,-325.9655"/>
<polygon fill="none" stroke="#000000" points="683,-325.9655 683,-344.9655 724,-344.9655 724,-325.9655 683,-325.9655"/>
<text text-anchor="start" x="714.8862" y="-332.0655" font-family="Helvetica,sans-Serif" font-size="11.00" fill="#000000"> &#160;</text>
<polygon fill="#ffffff" stroke="transparent" points="724,-325.9655 724,-344.9655 766,-344.9655 766,-325.9655 724,-325.9655"/>
<polygon fill="none" stroke="#000000" points="724,-325.9655 724,-344.9655 766,-344.9655 766,-325.9655 724,-325.9655"/>
<text text-anchor="start" x="756.8862" y="-332.0655" font-family="Helvetica,sans-Serif" font-size="11.00" fill="#000000"> &#160;</text>
</a>
</g>
</g>
<!-- patient_reminders&#45;&gt;list_options -->
<g id="edge33" class="edge">
<title>patient_reminders:w&#45;&gt;list_options:e</title>
<path fill="none" stroke="#000000" d="M581.2987,-327.5355C518.0298,-318.1666 439.0159,-319.5064 384,-361.9655 332.185,-401.9544 406.9515,-502.9655 341.5,-508.9655"/>
<polygon fill="#000000" stroke="#000000" points="587.8833,-328.6132 595.1967,-333.4582 591.8308,-329.2593 595.7782,-329.9054 595.7782,-329.9054 595.7782,-329.9054 591.8308,-329.2593 596.3597,-326.3527 587.8833,-328.6132 587.8833,-328.6132"/>
<ellipse fill="none" stroke="#000000" cx="584.7253" cy="-328.0963" rx="3.2" ry="3.2"/>
</g>
<!-- patient_reminders&#45;&gt;list_options -->
<g id="edge36" class="edge">
<title>patient_reminders:w&#45;&gt;list_options:e</title>
<path fill="none" stroke="#000000" d="M581.2987,-338.7168C518.0298,-331.1666 439.0159,-332.5064 384,-374.9655 332.185,-414.9544 406.9515,-515.9655 341.5,-508.9655"/>
<polygon fill="#000000" stroke="#000000" points="587.847,-339.5809 595.3072,-344.1967 591.8126,-340.1043 595.7782,-340.6277 595.7782,-340.6277 595.7782,-340.6277 591.8126,-340.1043 596.2493,-337.0586 587.847,-339.5809 587.847,-339.5809"/>
<ellipse fill="none" stroke="#000000" cx="584.6745" cy="-339.1622" rx="3.2" ry="3.2"/>
</g>
<!-- patient_reminders&#45;&gt;patient_data -->
<g id="edge35" class="edge">
<title>patient_reminders:w&#45;&gt;patient_data:e</title>
<path fill="none" stroke="#000000" d="M666.9078,-405.3933C643.5603,-470.0011 603.5111,-588.4083 583,-692.9655 567.7483,-770.7127 608.5587,-994.5978 550,-1047.9655 522.7352,-1072.8134 416.5648,-1065.2955 384,-1047.9655 360.8216,-1035.6308 368.6979,-1018.3606 351,-998.9655 331.0916,-977.1481 329.0355,-956.9655 299.5,-956.9655"/>
<polygon fill="#000000" stroke="#000000" points="669.1636,-399.2032 675.2853,-392.9195 670.5333,-395.445 671.9029,-391.6868 671.9029,-391.6868 671.9029,-391.6868 670.5333,-395.445 668.5205,-390.4542 669.1636,-399.2032 669.1636,-399.2032"/>
<ellipse fill="none" stroke="#000000" cx="668.0679" cy="-402.2098" rx="3.2" ry="3.2"/>
</g>
<!-- rule_action_item -->
<g id="node13" class="node">
<title>rule_action_item</title>
<g id="a_node13"><a xlink:href="../../tables/rule_action_item.html" xlink:title="rule_action_item" target="_top">
<polygon fill="#ffffff" stroke="transparent" points="392,-253.4655 392,-314.4655 542,-314.4655 542,-253.4655 392,-253.4655"/>
<polygon fill="#f5f5f5" stroke="transparent" points="392,-290.9655 392,-313.9655 542,-313.9655 542,-290.9655 392,-290.9655"/>
<polygon fill="none" stroke="#000000" points="392,-290.9655 392,-313.9655 542,-313.9655 542,-290.9655 392,-290.9655"/>
<text text-anchor="start" x="397" y="-299.5655" font-family="Helvetica,sans-Serif" font-weight="bold" font-size="11.00" fill="#000000">rule_action_item</text>
<text text-anchor="start" x="507.5219" y="-299.0655" font-family="Helvetica,sans-Serif" font-size="11.00" fill="#000000">[table]</text>
<polygon fill="none" stroke="#000000" points="392,-271.9655 392,-290.9655 542,-290.9655 542,-271.9655 392,-271.9655"/>
<text text-anchor="start" x="395" y="-278.0655" font-family="Helvetica,sans-Serif" font-size="11.00" fill="#000000">...</text>
<polygon fill="#ffffff" stroke="transparent" points="392,-252.9655 392,-271.9655 461,-271.9655 461,-252.9655 392,-252.9655"/>
<polygon fill="none" stroke="#000000" points="392,-252.9655 392,-271.9655 461,-271.9655 461,-252.9655 392,-252.9655"/>
<text text-anchor="start" x="395" y="-259.0655" font-family="Helvetica,sans-Serif" font-size="11.00" fill="#000000">&lt; 2</text>
<polygon fill="#ffffff" stroke="transparent" points="461,-252.9655 461,-271.9655 497,-271.9655 497,-252.9655 461,-252.9655"/>
<polygon fill="none" stroke="#000000" points="461,-252.9655 461,-271.9655 497,-271.9655 497,-252.9655 461,-252.9655"/>
<text text-anchor="start" x="487.8862" y="-259.0655" font-family="Helvetica,sans-Serif" font-size="11.00" fill="#000000"> &#160;</text>
<polygon fill="#ffffff" stroke="transparent" points="497,-252.9655 497,-271.9655 542,-271.9655 542,-252.9655 497,-252.9655"/>
<polygon fill="none" stroke="#000000" points="497,-252.9655 497,-271.9655 542,-271.9655 542,-252.9655 497,-252.9655"/>
<text text-anchor="start" x="523.4053" y="-259.0655" font-family="Helvetica,sans-Serif" font-size="11.00" fill="#000000">4 &gt;</text>
</a>
</g>
</g>
<!-- patient_reminders&#45;&gt;rule_action_item -->
<g id="edge32" class="edge">
<title>patient_reminders:w&#45;&gt;rule_action_item:e</title>
<path fill="none" stroke="#000000" d="M581.8341,-317.9249C571.2268,-314.352 560.5457,-310.8114 550.1939,-307.4381"/>
<polygon fill="#000000" stroke="#000000" points="588.126,-320.0591 594.5456,-326.0382 591.914,-321.3441 595.7021,-322.629 595.7021,-322.629 595.7021,-322.629 591.914,-321.3441 596.8585,-319.2198 588.126,-320.0591 588.126,-320.0591"/>
<ellipse fill="none" stroke="#000000" cx="585.0956" cy="-319.0312" rx="3.2" ry="3.2"/>
</g>
<!-- patient_reminders&#45;&gt;rule_action_item -->
<g id="edge34" class="edge">
<title>patient_reminders:w&#45;&gt;rule_action_item:e</title>
<path fill="none" stroke="#000000" d="M581.8341,-327.6625C571.2268,-324.1348 560.5457,-320.516 550.1939,-316.941"/>
<polygon fill="#000000" stroke="#000000" points="588.1046,-329.7304 594.5745,-335.6549 591.9033,-330.9832 595.7021,-332.236 595.7021,-332.236 595.7021,-332.236 591.9033,-330.9832 596.8296,-328.8172 588.1046,-329.7304 588.1046,-329.7304"/>
<ellipse fill="none" stroke="#000000" cx="585.0656" cy="-328.7281" rx="3.2" ry="3.2"/>
</g>
<!-- rule_action_item&#45;&gt;list_options -->
<g id="edge43" class="edge">
<title>rule_action_item:w&#45;&gt;list_options:e</title>
<path fill="none" stroke="#000000" d="M379.703,-331.0004C343.6656,-400.9031 419.0439,-503.3054 341.5,-508.9655"/>
<polygon fill="#000000" stroke="#000000" points="383.1683,-325.5424 390.4955,-320.7183 385.3123,-322.1655 387.4563,-318.7887 387.4563,-318.7887 387.4563,-318.7887 385.3123,-322.1655 384.4172,-316.859 383.1683,-325.5424 383.1683,-325.5424"/>
<ellipse fill="none" stroke="#000000" cx="381.4531" cy="-328.2439" rx="3.2" ry="3.2"/>
</g>
<!-- rule_action_item&#45;&gt;list_options -->
<g id="edge44" class="edge">
<title>rule_action_item:w&#45;&gt;list_options:e</title>
<path fill="none" stroke="#000000" d="M391.0528,-328.0106C388.5112,-330.516 386.1425,-333.1642 384,-335.9655 334.0627,-401.2576 423.6997,-515.9655 341.5,-508.9655"/>
<polygon fill="#000000" stroke="#000000" points="396.2246,-323.6481 404.6609,-321.2418 399.2822,-321.0691 402.3397,-318.49 402.3397,-318.49 402.3397,-318.49 399.2822,-321.0691 400.0185,-315.7382 396.2246,-323.6481 396.2246,-323.6481"/>
<ellipse fill="none" stroke="#000000" cx="393.7786" cy="-325.7114" rx="3.2" ry="3.2"/>
</g>
<!-- pnotes -->
<g id="node14" class="node">
<title>pnotes</title>
<g id="a_node14"><a xlink:href="../../tables/pnotes.html" xlink:title="pnotes" target="_top">
<polygon fill="#ffffff" stroke="transparent" points="396.5,-798.4655 396.5,-1013.4655 537.5,-1013.4655 537.5,-798.4655 396.5,-798.4655"/>
<polygon fill="#f5f5f5" stroke="transparent" points="397,-989.9655 397,-1012.9655 538,-1012.9655 538,-989.9655 397,-989.9655"/>
<polygon fill="none" stroke="#000000" points="397,-989.9655 397,-1012.9655 538,-1012.9655 538,-989.9655 397,-989.9655"/>
<text text-anchor="start" x="402" y="-998.5655" font-family="Helvetica,sans-Serif" font-weight="bold" font-size="11.00" fill="#000000">pnotes</text>
<text text-anchor="start" x="503.0437" y="-998.0655" font-family="Helvetica,sans-Serif" font-size="11.00" fill="#000000">[table]</text>
<polygon fill="none" stroke="#000000" points="397,-967.9655 397,-989.9655 538,-989.9655 538,-967.9655 397,-967.9655"/>
<image xlink:href="../../images/primaryKeys.png" width="11px" height="12px" preserveAspectRatio="xMinYMin meet" x="402" y="-984.966"/>
<text text-anchor="start" x="417" y="-975.0655" font-family="Helvetica,sans-Serif" font-size="11.00" fill="#000000">id</text>
<polygon fill="#ffffff" stroke="transparent" points="397,-945.9655 397,-967.9655 538,-967.9655 538,-945.9655 397,-945.9655"/>
<polygon fill="none" stroke="#000000" points="397,-945.9655 397,-967.9655 538,-967.9655 538,-945.9655 397,-945.9655"/>
<image xlink:href="../../images/foreignKeys.png" width="11px" height="12px" preserveAspectRatio="xMinYMin meet" x="402" y="-962.966"/>
<text text-anchor="start" x="417" y="-953.0655" font-family="Helvetica,sans-Serif" font-size="11.00" fill="#000000">pid</text>
<polygon fill="none" stroke="#000000" points="397,-923.9655 397,-945.9655 538,-945.9655 538,-923.9655 397,-923.9655"/>
<image xlink:href="../../images/foreignKeys.png" width="11px" height="12px" preserveAspectRatio="xMinYMin meet" x="402" y="-940.966"/>
<text text-anchor="start" x="417" y="-931.0655" font-family="Helvetica,sans-Serif" font-size="11.00" fill="#000000">user</text>
<polygon fill="none" stroke="#000000" points="397,-901.9655 397,-923.9655 538,-923.9655 538,-901.9655 397,-901.9655"/>
<image xlink:href="../../images/foreignKeys.png" width="11px" height="12px" preserveAspectRatio="xMinYMin meet" x="402" y="-918.966"/>
<text text-anchor="start" x="417" y="-909.0655" font-family="Helvetica,sans-Serif" font-size="11.00" fill="#000000">groupname</text>
<polygon fill="none" stroke="#000000" points="397,-879.9655 397,-901.9655 538,-901.9655 538,-879.9655 397,-879.9655"/>
<image xlink:href="../../images/foreignKeys.png" width="11px" height="12px" preserveAspectRatio="xMinYMin meet" x="402" y="-896.966"/>
<text text-anchor="start" x="417" y="-887.0655" font-family="Helvetica,sans-Serif" font-size="11.00" fill="#000000">assigned_to</text>
<polygon fill="none" stroke="#000000" points="397,-857.9655 397,-879.9655 538,-879.9655 538,-857.9655 397,-857.9655"/>
<image xlink:href="../../images/foreignKeys.png" width="11px" height="12px" preserveAspectRatio="xMinYMin meet" x="402" y="-874.966"/>
<text text-anchor="start" x="417" y="-865.0655" font-family="Helvetica,sans-Serif" font-size="11.00" fill="#000000">message_status</text>
<polygon fill="none" stroke="#000000" points="397,-835.9655 397,-857.9655 538,-857.9655 538,-835.9655 397,-835.9655"/>
<image xlink:href="../../images/foreignKeys.png" width="11px" height="12px" preserveAspectRatio="xMinYMin meet" x="402" y="-852.966"/>
<text text-anchor="start" x="417" y="-843.0655" font-family="Helvetica,sans-Serif" font-size="11.00" fill="#000000">update_by</text>
<polygon fill="none" stroke="#000000" points="397,-816.9655 397,-835.9655 538,-835.9655 538,-816.9655 397,-816.9655"/>
<text text-anchor="start" x="400" y="-823.0655" font-family="Helvetica,sans-Serif" font-size="11.00" fill="#000000">...</text>
<polygon fill="#ffffff" stroke="transparent" points="397,-797.9655 397,-816.9655 466,-816.9655 466,-797.9655 397,-797.9655"/>
<polygon fill="none" stroke="#000000" points="397,-797.9655 397,-816.9655 466,-816.9655 466,-797.9655 397,-797.9655"/>
<text text-anchor="start" x="400" y="-804.0655" font-family="Helvetica,sans-Serif" font-size="11.00" fill="#000000">&lt; 6</text>
<polygon fill="#ffffff" stroke="transparent" points="466,-797.9655 466,-816.9655 502,-816.9655 502,-797.9655 466,-797.9655"/>
<polygon fill="none" stroke="#000000" points="466,-797.9655 466,-816.9655 502,-816.9655 502,-797.9655 466,-797.9655"/>
<text text-anchor="start" x="492.8862" y="-804.0655" font-family="Helvetica,sans-Serif" font-size="11.00" fill="#000000"> &#160;</text>
<polygon fill="#ffffff" stroke="transparent" points="502,-797.9655 502,-816.9655 538,-816.9655 538,-797.9655 502,-797.9655"/>
<polygon fill="none" stroke="#000000" points="502,-797.9655 502,-816.9655 538,-816.9655 538,-797.9655 502,-797.9655"/>
<text text-anchor="start" x="528.8862" y="-804.0655" font-family="Helvetica,sans-Serif" font-size="11.00" fill="#000000"> &#160;</text>
</a>
</g>
</g>
<!-- pnotes&#45;&gt;list_options -->
<g id="edge39" class="edge">
<title>pnotes:w&#45;&gt;list_options:e</title>
<path fill="none" stroke="#000000" d="M383.2428,-864.4138C329.3587,-822.7406 417.0699,-508.9655 341.5,-508.9655"/>
<polygon fill="#000000" stroke="#000000" points="389.4049,-866.4526 395.8692,-872.3833 393.2025,-867.7091 397,-868.9655 397,-868.9655 397,-868.9655 393.2025,-867.7091 398.1308,-865.5477 389.4049,-866.4526 389.4049,-866.4526"/>
<ellipse fill="none" stroke="#000000" cx="386.3669" cy="-865.4474" rx="3.2" ry="3.2"/>
</g>
<!-- pnotes&#45;&gt;users -->
<g id="edge37" class="edge">
<title>pnotes:w&#45;&gt;users:e</title>
<path fill="none" stroke="#000000" d="M383.0068,-887.5532C362.7155,-874.6549 380.8637,-828.6138 351,-808.9655 301.0686,-776.1142 143.2692,-780.9655 83.5,-780.9655"/>
<polygon fill="#000000" stroke="#000000" points="389.2278,-889.0702 396.1471,-894.463 393.1139,-890.0179 397,-890.9655 397,-890.9655 397,-890.9655 393.1139,-890.0179 397.8529,-887.468 389.2278,-889.0702 389.2278,-889.0702"/>
<ellipse fill="none" stroke="#000000" cx="386.1189" cy="-888.3121" rx="3.2" ry="3.2"/>
</g>
<!-- pnotes&#45;&gt;users -->
<g id="edge41" class="edge">
<title>pnotes:w&#45;&gt;users:e</title>
<path fill="none" stroke="#000000" d="M382.8532,-842.8853C366.6978,-830.4695 377.6891,-793.1333 351,-778.9655 245.9868,-723.2198 202.3922,-780.9655 83.5,-780.9655"/>
<polygon fill="#000000" stroke="#000000" points="389.3133,-844.7485 396.0023,-850.4245 393.1567,-845.857 397,-846.9655 397,-846.9655 397,-846.9655 393.1567,-845.857 397.9977,-843.5065 389.3133,-844.7485 389.3133,-844.7485"/>
<ellipse fill="none" stroke="#000000" cx="386.2387" cy="-843.8617" rx="3.2" ry="3.2"/>
</g>
<!-- pnotes&#45;&gt;users -->
<g id="edge42" class="edge">
<title>pnotes:w&#45;&gt;users:e</title>
<path fill="none" stroke="#000000" d="M382.6252,-932.8308C372.2331,-929.362 366.3175,-922.5315 351,-918.9655 301.4971,-907.4409 163.8273,-922.5431 124,-890.9655 83.1771,-858.5987 135.5972,-780.9655 83.5,-780.9655"/>
<polygon fill="#000000" stroke="#000000" points="389.0868,-933.7903 396.4711,-938.5265 393.0434,-934.3779 397,-934.9655 397,-934.9655 397,-934.9655 393.0434,-934.3779 397.5289,-931.4046 389.0868,-933.7903 389.0868,-933.7903"/>
<ellipse fill="none" stroke="#000000" cx="385.9215" cy="-933.3202" rx="3.2" ry="3.2"/>
</g>
<!-- pnotes&#45;&gt;patient_data -->
<g id="edge40" class="edge">
<title>pnotes:w&#45;&gt;patient_data:e</title>
<path fill="none" stroke="#000000" d="M382.5721,-956.9655C350.5664,-956.9655 337.5859,-956.9655 299.5,-956.9655"/>
<polygon fill="#000000" stroke="#000000" points="389,-956.9656 397,-960.5655 393,-956.9656 397,-956.9655 397,-956.9655 397,-956.9655 393,-956.9656 397,-953.3655 389,-956.9656 389,-956.9656"/>
<ellipse fill="none" stroke="#000000" cx="385.8" cy="-956.9656" rx="3.2" ry="3.2"/>
</g>
<!-- pnotes&#45;&gt;groups -->
<g id="edge38" class="edge">
<title>pnotes:w&#45;&gt;groups:e</title>
<path fill="none" stroke="#000000" d="M382.6623,-911.5257C337.4541,-901.8738 334.7792,-846.9655 280.5,-846.9655"/>
<polygon fill="#000000" stroke="#000000" points="389.04,-912.1661 396.6403,-916.5475 393.02,-912.5658 397,-912.9655 397,-912.9655 397,-912.9655 393.02,-912.5658 397.3597,-909.3836 389.04,-912.1661 389.04,-912.1661"/>
<ellipse fill="none" stroke="#000000" cx="385.8561" cy="-911.8463" rx="3.2" ry="3.2"/>
</g>
<!-- rule_patient_data -->
<g id="node15" class="node">
<title>rule_patient_data</title>
<g id="a_node15"><a xlink:href="../../tables/rule_patient_data.html" xlink:title="rule_patient_data" target="_top">
<polygon fill="#ffffff" stroke="transparent" points="606.5,-244.4655 606.5,-305.4655 763.5,-305.4655 763.5,-244.4655 606.5,-244.4655"/>
<polygon fill="#f5f5f5" stroke="transparent" points="607,-281.9655 607,-304.9655 764,-304.9655 764,-281.9655 607,-281.9655"/>
<polygon fill="none" stroke="#000000" points="607,-281.9655 607,-304.9655 764,-304.9655 764,-281.9655 607,-281.9655"/>
<text text-anchor="start" x="612" y="-290.5655" font-family="Helvetica,sans-Serif" font-weight="bold" font-size="11.00" fill="#000000">rule_patient_data</text>
<text text-anchor="start" x="729.5219" y="-290.0655" font-family="Helvetica,sans-Serif" font-size="11.00" fill="#000000">[table]</text>
<polygon fill="none" stroke="#000000" points="607,-262.9655 607,-281.9655 764,-281.9655 764,-262.9655 607,-262.9655"/>
<text text-anchor="start" x="610" y="-269.0655" font-family="Helvetica,sans-Serif" font-size="11.00" fill="#000000">...</text>
<polygon fill="#ffffff" stroke="transparent" points="607,-243.9655 607,-262.9655 684,-262.9655 684,-243.9655 607,-243.9655"/>
<polygon fill="none" stroke="#000000" points="607,-243.9655 607,-262.9655 684,-262.9655 684,-243.9655 607,-243.9655"/>
<text text-anchor="start" x="610" y="-250.0655" font-family="Helvetica,sans-Serif" font-size="11.00" fill="#000000">&lt; 3</text>
<polygon fill="#ffffff" stroke="transparent" points="684,-243.9655 684,-262.9655 724,-262.9655 724,-243.9655 684,-243.9655"/>
<polygon fill="none" stroke="#000000" points="684,-243.9655 684,-262.9655 724,-262.9655 724,-243.9655 684,-243.9655"/>
<text text-anchor="start" x="714.8862" y="-250.0655" font-family="Helvetica,sans-Serif" font-size="11.00" fill="#000000"> &#160;</text>
<polygon fill="#ffffff" stroke="transparent" points="724,-243.9655 724,-262.9655 764,-262.9655 764,-243.9655 724,-243.9655"/>
<polygon fill="none" stroke="#000000" points="724,-243.9655 724,-262.9655 764,-262.9655 764,-243.9655 724,-243.9655"/>
<text text-anchor="start" x="754.8862" y="-250.0655" font-family="Helvetica,sans-Serif" font-size="11.00" fill="#000000"> &#160;</text>
</a>
</g>
</g>
<!-- rule_patient_data&#45;&gt;patient_data -->
<g id="edge47" class="edge">
<title>rule_patient_data:w&#45;&gt;patient_data:e</title>
<path fill="none" stroke="#000000" d="M593.9695,-278.8474C532.94,-351.126 607.0642,-969.4992 550,-1023.9655 523.3153,-1049.4354 418.8358,-1036.1004 384,-1023.9655 338.739,-1008.1992 347.4284,-956.9655 299.5,-956.9655"/>
<polygon fill="#000000" stroke="#000000" points="599.926,-275.7016 608.6812,-275.1489 603.463,-273.8336 607,-271.9655 607,-271.9655 607,-271.9655 603.463,-273.8336 605.3188,-268.7822 599.926,-275.7016 599.926,-275.7016"/>
<ellipse fill="none" stroke="#000000" cx="597.0963" cy="-277.196" rx="3.2" ry="3.2"/>
</g>
<!-- rule_patient_data&#45;&gt;rule_action_item -->
<g id="edge45" class="edge">
<title>rule_patient_data:w&#45;&gt;rule_action_item:e</title>
<path fill="none" stroke="#000000" d="M592.5337,-270.8986C578.4787,-270.154 564.0379,-270.1844 550.1827,-270.7382"/>
<polygon fill="#000000" stroke="#000000" points="599.0217,-271.377 606.7352,-275.5558 603.0108,-271.6713 607,-271.9655 607,-271.9655 607,-271.9655 603.0108,-271.6713 607.2648,-268.3753 599.0217,-271.377 599.0217,-271.377"/>
<ellipse fill="none" stroke="#000000" cx="595.8303" cy="-271.1416" rx="3.2" ry="3.2"/>
</g>
<!-- rule_patient_data&#45;&gt;rule_action_item -->
<g id="edge46" class="edge">
<title>rule_patient_data:w&#45;&gt;rule_action_item:e</title>
<path fill="none" stroke="#000000" d="M592.5337,-273.6384C578.4787,-275.3067 564.0379,-277.1271 550.1827,-278.8479"/>
<polygon fill="#000000" stroke="#000000" points="599.053,-272.8846 607.4136,-275.5417 603.0265,-272.4251 607,-271.9655 607,-271.9655 607,-271.9655 603.0265,-272.4251 606.5864,-268.3894 599.053,-272.8846 599.053,-272.8846"/>
<ellipse fill="none" stroke="#000000" cx="595.8741" cy="-273.2522" rx="3.2" ry="3.2"/>
</g>
</g>
</svg>
