<?xml version="1.0" encoding="UTF-8" standalone="no"?>
<!DOCTYPE svg PUBLIC "-//W3C//DTD SVG 1.1//EN"
 "http://www.w3.org/Graphics/SVG/1.1/DTD/svg11.dtd">
<!-- Generated by graphviz version 2.40.1 (20161225.0304)
 -->
<!-- Title: oneDegreeRelationshipsDiagram Pages: 1 -->
<svg width="666pt" height="423pt"
 viewBox="0.00 0.00 666.00 423.20" xmlns="http://www.w3.org/2000/svg" xmlns:xlink="http://www.w3.org/1999/xlink">
<g id="graph0" class="graph" transform="scale(1 1) rotate(0) translate(4 419.2)">
<title>oneDegreeRelationshipsDiagram</title>
<polygon fill="#ffffff" stroke="transparent" points="-4,4 -4,-419.2 662,-419.2 662,4 -4,4"/>
<text text-anchor="middle" x="72.4936" y="-7.3" font-family="Helvetica,sans-Serif" font-size="11.00" fill="#000000">Generated by SchemaSpy</text>
<!-- documents -->
<g id="node1" class="node">
<title>documents</title>
<g id="a_node1"><a xlink:href="../../tables/documents.html" xlink:title="documents" target="_top">
<polygon fill="#ffffff" stroke="transparent" points="224,-130.2 224,-411.2 447,-411.2 447,-130.2 224,-130.2"/>
<polygon fill="#f5f5f5" stroke="transparent" points="224.5,-387.7 224.5,-410.7 447.5,-410.7 447.5,-387.7 224.5,-387.7"/>
<polygon fill="none" stroke="#000000" points="224.5,-387.7 224.5,-410.7 447.5,-410.7 447.5,-387.7 224.5,-387.7"/>
<text text-anchor="start" x="229.5" y="-396.3" font-family="Helvetica,sans-Serif" font-weight="bold" font-size="11.00" fill="#000000">documents</text>
<text text-anchor="start" x="412.5437" y="-395.8" font-family="Helvetica,sans-Serif" font-size="11.00" fill="#000000">[table]</text>
<polygon fill="none" stroke="#000000" points="224.5,-365.7 224.5,-387.7 447.5,-387.7 447.5,-365.7 224.5,-365.7"/>
<image xlink:href="../../images/primaryKeys.png" width="11px" height="12px" preserveAspectRatio="xMinYMin meet" x="229.5" y="-382.7"/>
<text text-anchor="start" x="244.5" y="-372.8" font-family="Helvetica,sans-Serif" font-size="11.00" fill="#000000">id</text>
<polygon fill="#ffffff" stroke="transparent" points="224.5,-343.7 224.5,-365.7 447.5,-365.7 447.5,-343.7 224.5,-343.7"/>
<polygon fill="none" stroke="#000000" points="224.5,-343.7 224.5,-365.7 447.5,-365.7 447.5,-343.7 224.5,-343.7"/>
<text text-anchor="start" x="244.5" y="-350.8" font-family="Helvetica,sans-Serif" font-size="11.00" fill="#000000">uuid</text>
<polygon fill="#ffffff" stroke="transparent" points="224.5,-321.7 224.5,-343.7 447.5,-343.7 447.5,-321.7 224.5,-321.7"/>
<polygon fill="none" stroke="#000000" points="224.5,-321.7 224.5,-343.7 447.5,-343.7 447.5,-321.7 224.5,-321.7"/>
<image xlink:href="../../images/foreignKeys.png" width="11px" height="12px" preserveAspectRatio="xMinYMin meet" x="229.5" y="-338.7"/>
<text text-anchor="start" x="244.5" y="-328.8" font-family="Helvetica,sans-Serif" font-size="11.00" fill="#000000">owner</text>
<polygon fill="#ffffff" stroke="transparent" points="224.5,-299.7 224.5,-321.7 447.5,-321.7 447.5,-299.7 224.5,-299.7"/>
<polygon fill="none" stroke="#000000" points="224.5,-299.7 224.5,-321.7 447.5,-321.7 447.5,-299.7 224.5,-299.7"/>
<text text-anchor="start" x="244.5" y="-306.8" font-family="Helvetica,sans-Serif" font-size="11.00" fill="#000000">revision</text>
<polygon fill="#ffffff" stroke="transparent" points="224.5,-277.7 224.5,-299.7 447.5,-299.7 447.5,-277.7 224.5,-277.7"/>
<polygon fill="none" stroke="#000000" points="224.5,-277.7 224.5,-299.7 447.5,-299.7 447.5,-277.7 224.5,-277.7"/>
<image xlink:href="../../images/foreignKeys.png" width="11px" height="12px" preserveAspectRatio="xMinYMin meet" x="229.5" y="-294.7"/>
<text text-anchor="start" x="244.5" y="-284.8" font-family="Helvetica,sans-Serif" font-size="11.00" fill="#000000">foreign_id</text>
<polygon fill="none" stroke="#000000" points="224.5,-255.7 224.5,-277.7 447.5,-277.7 447.5,-255.7 224.5,-255.7"/>
<image xlink:href="../../images/foreignKeys.png" width="11px" height="12px" preserveAspectRatio="xMinYMin meet" x="229.5" y="-272.7"/>
<text text-anchor="start" x="244.5" y="-262.8" font-family="Helvetica,sans-Serif" font-size="11.00" fill="#000000">list_id</text>
<polygon fill="none" stroke="#000000" points="224.5,-233.7 224.5,-255.7 447.5,-255.7 447.5,-233.7 224.5,-233.7"/>
<image xlink:href="../../images/foreignKeys.png" width="11px" height="12px" preserveAspectRatio="xMinYMin meet" x="229.5" y="-250.7"/>
<text text-anchor="start" x="244.5" y="-240.8" font-family="Helvetica,sans-Serif" font-size="11.00" fill="#000000">encounter_id</text>
<polygon fill="#ffffff" stroke="transparent" points="224.5,-211.7 224.5,-233.7 447.5,-233.7 447.5,-211.7 224.5,-211.7"/>
<polygon fill="none" stroke="#000000" points="224.5,-211.7 224.5,-233.7 447.5,-233.7 447.5,-211.7 224.5,-211.7"/>
<text text-anchor="start" x="244.5" y="-218.8" font-family="Helvetica,sans-Serif" font-size="11.00" fill="#000000">drive_uuid</text>
<polygon fill="#ffffff" stroke="transparent" points="224.5,-189.7 224.5,-211.7 447.5,-211.7 447.5,-189.7 224.5,-189.7"/>
<polygon fill="none" stroke="#000000" points="224.5,-189.7 224.5,-211.7 447.5,-211.7 447.5,-189.7 224.5,-189.7"/>
<text text-anchor="start" x="244.5" y="-196.8" font-family="Helvetica,sans-Serif" font-size="11.00" fill="#000000">foreign_reference_id</text>
<polygon fill="#ffffff" stroke="transparent" points="224.5,-167.7 224.5,-189.7 447.5,-189.7 447.5,-167.7 224.5,-167.7"/>
<polygon fill="none" stroke="#000000" points="224.5,-167.7 224.5,-189.7 447.5,-189.7 447.5,-167.7 224.5,-167.7"/>
<text text-anchor="start" x="244.5" y="-174.8" font-family="Helvetica,sans-Serif" font-size="11.00" fill="#000000">foreign_reference_table</text>
<polygon fill="none" stroke="#000000" points="224.5,-148.7 224.5,-167.7 447.5,-167.7 447.5,-148.7 224.5,-148.7"/>
<text text-anchor="start" x="227.5" y="-154.8" font-family="Helvetica,sans-Serif" font-size="11.00" fill="#000000">...</text>
<polygon fill="#ffffff" stroke="transparent" points="224.5,-129.7 224.5,-148.7 329.5,-148.7 329.5,-129.7 224.5,-129.7"/>
<polygon fill="none" stroke="#000000" points="224.5,-129.7 224.5,-148.7 329.5,-148.7 329.5,-129.7 224.5,-129.7"/>
<text text-anchor="start" x="227.5" y="-135.8" font-family="Helvetica,sans-Serif" font-size="11.00" fill="#000000">&lt; 4</text>
<polygon fill="#ffffff" stroke="transparent" points="329.5,-129.7 329.5,-148.7 383.5,-148.7 383.5,-129.7 329.5,-129.7"/>
<polygon fill="none" stroke="#000000" points="329.5,-129.7 329.5,-148.7 383.5,-148.7 383.5,-129.7 329.5,-129.7"/>
<text text-anchor="start" x="374.3862" y="-135.8" font-family="Helvetica,sans-Serif" font-size="11.00" fill="#000000"> &#160;</text>
<polygon fill="#ffffff" stroke="transparent" points="383.5,-129.7 383.5,-148.7 447.5,-148.7 447.5,-129.7 383.5,-129.7"/>
<polygon fill="none" stroke="#000000" points="383.5,-129.7 383.5,-148.7 447.5,-148.7 447.5,-129.7 383.5,-129.7"/>
<text text-anchor="start" x="428.9053" y="-135.8" font-family="Helvetica,sans-Serif" font-size="11.00" fill="#000000">2 &gt;</text>
</a>
</g>
</g>
<!-- users -->
<g id="node2" class="node">
<title>users</title>
<g id="a_node2"><a xlink:href="../../tables/users.html" xlink:title="users" target="_top">
<polygon fill="#ffffff" stroke="transparent" points="8,-38.2 8,-253.2 175,-253.2 175,-38.2 8,-38.2"/>
<polygon fill="#f5f5f5" stroke="transparent" points="8.5,-229.7 8.5,-252.7 175.5,-252.7 175.5,-229.7 8.5,-229.7"/>
<polygon fill="none" stroke="#000000" points="8.5,-229.7 8.5,-252.7 175.5,-252.7 175.5,-229.7 8.5,-229.7"/>
<text text-anchor="start" x="13.5" y="-238.3" font-family="Helvetica,sans-Serif" font-weight="bold" font-size="11.00" fill="#000000">users</text>
<text text-anchor="start" x="140.5437" y="-237.8" font-family="Helvetica,sans-Serif" font-size="11.00" fill="#000000">[table]</text>
<polygon fill="none" stroke="#000000" points="8.5,-207.7 8.5,-229.7 175.5,-229.7 175.5,-207.7 8.5,-207.7"/>
<image xlink:href="../../images/primaryKeys.png" width="11px" height="12px" preserveAspectRatio="xMinYMin meet" x="13.5" y="-224.7"/>
<text text-anchor="start" x="28.5" y="-214.8" font-family="Helvetica,sans-Serif" font-size="11.00" fill="#000000">id</text>
<polygon fill="none" stroke="#000000" points="8.5,-185.7 8.5,-207.7 175.5,-207.7 175.5,-185.7 8.5,-185.7"/>
<image xlink:href="../../images/primaryKeys.png" width="11px" height="12px" preserveAspectRatio="xMinYMin meet" x="13.5" y="-202.7"/>
<text text-anchor="start" x="28.5" y="-192.8" font-family="Helvetica,sans-Serif" font-size="11.00" fill="#000000">username</text>
<polygon fill="none" stroke="#000000" points="8.5,-163.7 8.5,-185.7 175.5,-185.7 175.5,-163.7 8.5,-163.7"/>
<image xlink:href="../../images/foreignKeys.png" width="11px" height="12px" preserveAspectRatio="xMinYMin meet" x="13.5" y="-180.7"/>
<text text-anchor="start" x="28.5" y="-170.8" font-family="Helvetica,sans-Serif" font-size="11.00" fill="#000000">facility_id</text>
<polygon fill="#ffffff" stroke="transparent" points="8.5,-141.7 8.5,-163.7 175.5,-163.7 175.5,-141.7 8.5,-141.7"/>
<polygon fill="none" stroke="#000000" points="8.5,-141.7 8.5,-163.7 175.5,-163.7 175.5,-141.7 8.5,-141.7"/>
<text text-anchor="start" x="28.5" y="-148.8" font-family="Helvetica,sans-Serif" font-size="11.00" fill="#000000">abook_type</text>
<polygon fill="#ffffff" stroke="transparent" points="8.5,-119.7 8.5,-141.7 175.5,-141.7 175.5,-119.7 8.5,-119.7"/>
<polygon fill="none" stroke="#000000" points="8.5,-119.7 8.5,-141.7 175.5,-141.7 175.5,-119.7 8.5,-119.7"/>
<text text-anchor="start" x="28.5" y="-126.8" font-family="Helvetica,sans-Serif" font-size="11.00" fill="#000000">uuid</text>
<polygon fill="#ffffff" stroke="transparent" points="8.5,-97.7 8.5,-119.7 175.5,-119.7 175.5,-97.7 8.5,-97.7"/>
<polygon fill="none" stroke="#000000" points="8.5,-97.7 8.5,-119.7 175.5,-119.7 175.5,-97.7 8.5,-97.7"/>
<text text-anchor="start" x="28.5" y="-104.8" font-family="Helvetica,sans-Serif" font-size="11.00" fill="#000000">google_signin_email</text>
<polygon fill="none" stroke="#000000" points="8.5,-75.7 8.5,-97.7 175.5,-97.7 175.5,-75.7 8.5,-75.7"/>
<image xlink:href="../../images/foreignKeys.png" width="11px" height="12px" preserveAspectRatio="xMinYMin meet" x="13.5" y="-92.7"/>
<text text-anchor="start" x="28.5" y="-82.8" font-family="Helvetica,sans-Serif" font-size="11.00" fill="#000000">billing_facility_id</text>
<polygon fill="none" stroke="#000000" points="8.5,-56.7 8.5,-75.7 175.5,-75.7 175.5,-56.7 8.5,-56.7"/>
<text text-anchor="start" x="11.5" y="-62.8" font-family="Helvetica,sans-Serif" font-size="11.00" fill="#000000">...</text>
<polygon fill="#ffffff" stroke="transparent" points="8.5,-37.7 8.5,-56.7 82.5,-56.7 82.5,-37.7 8.5,-37.7"/>
<polygon fill="none" stroke="#000000" points="8.5,-37.7 8.5,-56.7 82.5,-56.7 82.5,-37.7 8.5,-37.7"/>
<text text-anchor="start" x="11.5" y="-43.8" font-family="Helvetica,sans-Serif" font-size="11.00" fill="#000000">&lt; 2</text>
<polygon fill="#ffffff" stroke="transparent" points="82.5,-37.7 82.5,-56.7 121.5,-56.7 121.5,-37.7 82.5,-37.7"/>
<polygon fill="none" stroke="#000000" points="82.5,-37.7 82.5,-56.7 121.5,-56.7 121.5,-37.7 82.5,-37.7"/>
<text text-anchor="start" x="112.3862" y="-43.8" font-family="Helvetica,sans-Serif" font-size="11.00" fill="#000000"> &#160;</text>
<polygon fill="#ffffff" stroke="transparent" points="121.5,-37.7 121.5,-56.7 175.5,-56.7 175.5,-37.7 121.5,-37.7"/>
<polygon fill="none" stroke="#000000" points="121.5,-37.7 121.5,-56.7 175.5,-56.7 175.5,-37.7 121.5,-37.7"/>
<text text-anchor="start" x="150.7904" y="-43.8" font-family="Helvetica,sans-Serif" font-size="11.00" fill="#000000">61 &gt;</text>
</a>
</g>
</g>
<!-- documents&#45;&gt;users -->
<g id="edge1" class="edge">
<title>documents:w&#45;&gt;users:e</title>
<path fill="none" stroke="#000000" d="M210.2787,-328.907C181.3671,-309.1263 224.6168,-218.7 175.5,-218.7"/>
<polygon fill="#000000" stroke="#000000" points="216.7702,-330.6383 223.5723,-336.1784 220.6351,-331.6692 224.5,-332.7 224.5,-332.7 224.5,-332.7 220.6351,-331.6692 225.4277,-329.2216 216.7702,-330.6383 216.7702,-330.6383"/>
<ellipse fill="none" stroke="#000000" cx="213.6783" cy="-329.8137" rx="3.2" ry="3.2"/>
</g>
<!-- notes -->
<g id="node3" class="node">
<title>notes</title>
<g id="a_node3"><a xlink:href="../../tables/notes.html" xlink:title="notes" target="_top">
<polygon fill="#ffffff" stroke="transparent" points="496,-153.7 496,-331.7 650,-331.7 650,-153.7 496,-153.7"/>
<polygon fill="#f5f5f5" stroke="transparent" points="498,-306.7 498,-329.7 648,-329.7 648,-306.7 498,-306.7"/>
<polygon fill="none" stroke="#000000" points="498,-306.7 498,-329.7 648,-329.7 648,-306.7 498,-306.7"/>
<text text-anchor="start" x="503" y="-315.3" font-family="Helvetica,sans-Serif" font-weight="bold" font-size="11.00" fill="#000000">notes</text>
<text text-anchor="start" x="613.0437" y="-314.8" font-family="Helvetica,sans-Serif" font-size="11.00" fill="#000000">[table]</text>
<polygon fill="none" stroke="#000000" points="498,-284.7 498,-306.7 586,-306.7 586,-284.7 498,-284.7"/>
<text text-anchor="start" x="518" y="-291.8" font-family="Helvetica,sans-Serif" font-size="11.00" fill="#000000">date</text>
<polygon fill="none" stroke="#000000" points="586,-284.7 586,-306.7 648,-306.7 648,-284.7 586,-284.7"/>
<text text-anchor="start" x="588.878" y="-292.4" font-family="Helvetica,sans-Serif" font-size="11.00" fill="#000000">unknown[0]</text>
<polygon fill="none" stroke="#000000" points="498,-262.7 498,-284.7 586,-284.7 586,-262.7 498,-262.7"/>
<image xlink:href="../../images/foreignKeys.png" width="11px" height="12px" preserveAspectRatio="xMinYMin meet" x="503" y="-279.7"/>
<text text-anchor="start" x="518" y="-269.8" font-family="Helvetica,sans-Serif" font-size="11.00" fill="#000000">foreign_id</text>
<polygon fill="none" stroke="#000000" points="586,-262.7 586,-284.7 648,-284.7 648,-262.7 586,-262.7"/>
<text text-anchor="start" x="588.878" y="-270.4" font-family="Helvetica,sans-Serif" font-size="11.00" fill="#000000">unknown[0]</text>
<polygon fill="none" stroke="#000000" points="498,-240.7 498,-262.7 586,-262.7 586,-240.7 498,-240.7"/>
<text text-anchor="start" x="518" y="-247.8" font-family="Helvetica,sans-Serif" font-size="11.00" fill="#000000">id</text>
<polygon fill="none" stroke="#000000" points="586,-240.7 586,-262.7 648,-262.7 648,-240.7 586,-240.7"/>
<text text-anchor="start" x="588.878" y="-248.4" font-family="Helvetica,sans-Serif" font-size="11.00" fill="#000000">unknown[0]</text>
<polygon fill="none" stroke="#000000" points="498,-218.7 498,-240.7 586,-240.7 586,-218.7 498,-218.7"/>
<text text-anchor="start" x="518" y="-225.8" font-family="Helvetica,sans-Serif" font-size="11.00" fill="#000000">note</text>
<polygon fill="none" stroke="#000000" points="586,-218.7 586,-240.7 648,-240.7 648,-218.7 586,-218.7"/>
<text text-anchor="start" x="588.878" y="-226.4" font-family="Helvetica,sans-Serif" font-size="11.00" fill="#000000">unknown[0]</text>
<polygon fill="none" stroke="#000000" points="498,-196.7 498,-218.7 586,-218.7 586,-196.7 498,-196.7"/>
<image xlink:href="../../images/foreignKeys.png" width="11px" height="12px" preserveAspectRatio="xMinYMin meet" x="503" y="-213.7"/>
<text text-anchor="start" x="518" y="-203.8" font-family="Helvetica,sans-Serif" font-size="11.00" fill="#000000">owner</text>
<polygon fill="none" stroke="#000000" points="586,-196.7 586,-218.7 648,-218.7 648,-196.7 586,-196.7"/>
<text text-anchor="start" x="588.878" y="-204.4" font-family="Helvetica,sans-Serif" font-size="11.00" fill="#000000">unknown[0]</text>
<polygon fill="none" stroke="#000000" points="498,-174.7 498,-196.7 586,-196.7 586,-174.7 498,-174.7"/>
<text text-anchor="start" x="518" y="-181.8" font-family="Helvetica,sans-Serif" font-size="11.00" fill="#000000">revision</text>
<polygon fill="none" stroke="#000000" points="586,-174.7 586,-196.7 648,-196.7 648,-174.7 586,-174.7"/>
<text text-anchor="start" x="588.878" y="-182.4" font-family="Helvetica,sans-Serif" font-size="11.00" fill="#000000">unknown[0]</text>
<polygon fill="#ffffff" stroke="transparent" points="498,-155.7 498,-174.7 546,-174.7 546,-155.7 498,-155.7"/>
<polygon fill="none" stroke="#000000" points="498,-155.7 498,-174.7 546,-174.7 546,-155.7 498,-155.7"/>
<text text-anchor="start" x="501" y="-161.8" font-family="Helvetica,sans-Serif" font-size="11.00" fill="#000000">&lt; 2</text>
<polygon fill="#ffffff" stroke="transparent" points="546,-155.7 546,-174.7 586,-174.7 586,-155.7 546,-155.7"/>
<polygon fill="none" stroke="#000000" points="546,-155.7 546,-174.7 586,-174.7 586,-155.7 546,-155.7"/>
<text text-anchor="start" x="576.8862" y="-161.8" font-family="Helvetica,sans-Serif" font-size="11.00" fill="#000000"> &#160;</text>
<polygon fill="#ffffff" stroke="transparent" points="586,-155.7 586,-174.7 648,-174.7 648,-155.7 586,-155.7"/>
<polygon fill="none" stroke="#000000" points="586,-155.7 586,-174.7 648,-174.7 648,-155.7 586,-155.7"/>
<text text-anchor="start" x="629.4053" y="-161.8" font-family="Helvetica,sans-Serif" font-size="11.00" fill="#000000">0 &gt;</text>
<polygon fill="none" stroke="#000000" stroke-width="2" points="497,-154.7 497,-330.7 649,-330.7 649,-154.7 497,-154.7"/>
</a>
</g>
</g>
<!-- notes&#45;&gt;documents -->
<g id="edge2" class="edge">
<title>notes:w&#45;&gt;documents:e</title>
<path fill="none" stroke="#000000" d="M483.9671,-277.6119C457.6719,-296.4261 492.5092,-376.7 447.5,-376.7"/>
<polygon fill="#000000" stroke="#000000" points="490.2938,-275.8483 498.9667,-277.1678 494.1469,-274.7741 498,-273.7 498,-273.7 498,-273.7 494.1469,-274.7741 497.0333,-270.2322 490.2938,-275.8483 490.2938,-275.8483"/>
<ellipse fill="none" stroke="#000000" cx="487.2114" cy="-276.7076" rx="3.2" ry="3.2"/>
</g>
<!-- notes&#45;&gt;users -->
<g id="edge3" class="edge">
<title>notes:w&#45;&gt;users:e</title>
<path fill="none" stroke="#000000" d="M484.008,-204.1441C463.5327,-190.2624 486.732,-139.5122 455,-119.7 364.8979,-63.4437 304.1911,-60.4928 216,-119.7 176.5303,-146.198 223.0395,-218.7 175.5,-218.7"/>
<polygon fill="#000000" stroke="#000000" points="490.2465,-205.7295 497.1133,-211.1891 494.1232,-206.7147 498,-207.7 498,-207.7 498,-207.7 494.1232,-206.7147 498.8867,-204.2109 490.2465,-205.7295 490.2465,-205.7295"/>
<ellipse fill="none" stroke="#000000" cx="487.1451" cy="-204.9413" rx="3.2" ry="3.2"/>
</g>
</g>
</svg>
