<?xml version="1.0" encoding="UTF-8" standalone="no"?>
<!DOCTYPE svg PUBLIC "-//W3C//DTD SVG 1.1//EN"
 "http://www.w3.org/Graphics/SVG/1.1/DTD/svg11.dtd">
<!-- Generated by graphviz version 2.40.1 (20161225.0304)
 -->
<!-- Title: oneDegreeRelationshipsDiagram Pages: 1 -->
<svg width="356pt" height="646pt"
 viewBox="0.00 0.00 356.00 646.20" xmlns="http://www.w3.org/2000/svg" xmlns:xlink="http://www.w3.org/1999/xlink">
<g id="graph0" class="graph" transform="scale(1 1) rotate(0) translate(4 642.2)">
<title>oneDegreeRelationshipsDiagram</title>
<polygon fill="#ffffff" stroke="transparent" points="-4,4 -4,-642.2 352,-642.2 352,4 -4,4"/>
<text text-anchor="middle" x="72.4936" y="-7.3" font-family="Helvetica,sans-Serif" font-size="11.00" fill="#000000">Generated by SchemaSpy</text>
<!-- oauth_clients -->
<g id="node1" class="node">
<title>oauth_clients</title>
<g id="a_node1"><a xlink:href="../../tables/oauth_clients.html" xlink:title="oauth_clients" target="_top">
<polygon fill="#ffffff" stroke="transparent" points="8,-38.2 8,-634.2 340,-634.2 340,-38.2 8,-38.2"/>
<polygon fill="#f5f5f5" stroke="transparent" points="10,-609.2 10,-632.2 338,-632.2 338,-609.2 10,-609.2"/>
<polygon fill="none" stroke="#000000" points="10,-609.2 10,-632.2 338,-632.2 338,-609.2 10,-609.2"/>
<text text-anchor="start" x="15" y="-617.8" font-family="Helvetica,sans-Serif" font-weight="bold" font-size="11.00" fill="#000000">oauth_clients</text>
<text text-anchor="start" x="303.0437" y="-617.3" font-family="Helvetica,sans-Serif" font-size="11.00" fill="#000000">[table]</text>
<polygon fill="none" stroke="#000000" points="10,-587.2 10,-609.2 244,-609.2 244,-587.2 10,-587.2"/>
<image xlink:href="../../images/primaryKeys.png" width="11px" height="12px" preserveAspectRatio="xMinYMin meet" x="15" y="-604.2"/>
<text text-anchor="start" x="30" y="-594.3" font-family="Helvetica,sans-Serif" font-size="11.00" fill="#000000">client_id</text>
<polygon fill="none" stroke="#000000" points="244,-587.2 244,-609.2 338,-609.2 338,-587.2 244,-587.2"/>
<text text-anchor="start" x="247" y="-594.9" font-family="Helvetica,sans-Serif" font-size="11.00" fill="#000000">varchar[80]</text>
<polygon fill="none" stroke="#000000" points="10,-565.2 10,-587.2 244,-587.2 244,-565.2 10,-565.2"/>
<text text-anchor="start" x="30" y="-572.3" font-family="Helvetica,sans-Serif" font-size="11.00" fill="#000000">client_role</text>
<polygon fill="none" stroke="#000000" points="244,-565.2 244,-587.2 338,-587.2 338,-565.2 244,-565.2"/>
<text text-anchor="start" x="247" y="-572.9" font-family="Helvetica,sans-Serif" font-size="11.00" fill="#000000">varchar[20]</text>
<polygon fill="none" stroke="#000000" points="10,-543.2 10,-565.2 244,-565.2 244,-543.2 10,-543.2"/>
<text text-anchor="start" x="30" y="-550.3" font-family="Helvetica,sans-Serif" font-size="11.00" fill="#000000">client_name</text>
<polygon fill="none" stroke="#000000" points="244,-543.2 244,-565.2 338,-565.2 338,-543.2 244,-543.2"/>
<text text-anchor="start" x="247" y="-550.9" font-family="Helvetica,sans-Serif" font-size="11.00" fill="#000000">varchar[80]</text>
<polygon fill="none" stroke="#000000" points="10,-521.2 10,-543.2 244,-543.2 244,-521.2 10,-521.2"/>
<text text-anchor="start" x="30" y="-528.3" font-family="Helvetica,sans-Serif" font-size="11.00" fill="#000000">client_secret</text>
<polygon fill="none" stroke="#000000" points="244,-521.2 244,-543.2 338,-543.2 338,-521.2 244,-521.2"/>
<text text-anchor="start" x="247" y="-528.9" font-family="Helvetica,sans-Serif" font-size="11.00" fill="#000000">text[65535]</text>
<polygon fill="none" stroke="#000000" points="10,-499.2 10,-521.2 244,-521.2 244,-499.2 10,-499.2"/>
<text text-anchor="start" x="30" y="-506.3" font-family="Helvetica,sans-Serif" font-size="11.00" fill="#000000">registration_token</text>
<polygon fill="none" stroke="#000000" points="244,-499.2 244,-521.2 338,-521.2 338,-499.2 244,-499.2"/>
<text text-anchor="start" x="247" y="-506.9" font-family="Helvetica,sans-Serif" font-size="11.00" fill="#000000">varchar[80]</text>
<polygon fill="none" stroke="#000000" points="10,-477.2 10,-499.2 244,-499.2 244,-477.2 10,-477.2"/>
<text text-anchor="start" x="30" y="-484.3" font-family="Helvetica,sans-Serif" font-size="11.00" fill="#000000">registration_uri_path</text>
<polygon fill="none" stroke="#000000" points="244,-477.2 244,-499.2 338,-499.2 338,-477.2 244,-477.2"/>
<text text-anchor="start" x="247" y="-484.9" font-family="Helvetica,sans-Serif" font-size="11.00" fill="#000000">varchar[40]</text>
<polygon fill="none" stroke="#000000" points="10,-455.2 10,-477.2 244,-477.2 244,-455.2 10,-455.2"/>
<text text-anchor="start" x="30" y="-462.3" font-family="Helvetica,sans-Serif" font-size="11.00" fill="#000000">register_date</text>
<polygon fill="none" stroke="#000000" points="244,-455.2 244,-477.2 338,-477.2 338,-455.2 244,-455.2"/>
<text text-anchor="start" x="247" y="-462.9" font-family="Helvetica,sans-Serif" font-size="11.00" fill="#000000">datetime[19]</text>
<polygon fill="none" stroke="#000000" points="10,-433.2 10,-455.2 244,-455.2 244,-433.2 10,-433.2"/>
<text text-anchor="start" x="30" y="-440.3" font-family="Helvetica,sans-Serif" font-size="11.00" fill="#000000">revoke_date</text>
<polygon fill="none" stroke="#000000" points="244,-433.2 244,-455.2 338,-455.2 338,-433.2 244,-433.2"/>
<text text-anchor="start" x="247" y="-440.9" font-family="Helvetica,sans-Serif" font-size="11.00" fill="#000000">datetime[19]</text>
<polygon fill="none" stroke="#000000" points="10,-411.2 10,-433.2 244,-433.2 244,-411.2 10,-411.2"/>
<text text-anchor="start" x="30" y="-418.3" font-family="Helvetica,sans-Serif" font-size="11.00" fill="#000000">contacts</text>
<polygon fill="none" stroke="#000000" points="244,-411.2 244,-433.2 338,-433.2 338,-411.2 244,-411.2"/>
<text text-anchor="start" x="247" y="-418.9" font-family="Helvetica,sans-Serif" font-size="11.00" fill="#000000">text[65535]</text>
<polygon fill="none" stroke="#000000" points="10,-389.2 10,-411.2 244,-411.2 244,-389.2 10,-389.2"/>
<text text-anchor="start" x="30" y="-396.3" font-family="Helvetica,sans-Serif" font-size="11.00" fill="#000000">redirect_uri</text>
<polygon fill="none" stroke="#000000" points="244,-389.2 244,-411.2 338,-411.2 338,-389.2 244,-389.2"/>
<text text-anchor="start" x="247" y="-396.9" font-family="Helvetica,sans-Serif" font-size="11.00" fill="#000000">text[65535]</text>
<polygon fill="none" stroke="#000000" points="10,-367.2 10,-389.2 244,-389.2 244,-367.2 10,-367.2"/>
<text text-anchor="start" x="30" y="-374.3" font-family="Helvetica,sans-Serif" font-size="11.00" fill="#000000">grant_types</text>
<polygon fill="none" stroke="#000000" points="244,-367.2 244,-389.2 338,-389.2 338,-367.2 244,-367.2"/>
<text text-anchor="start" x="247" y="-374.9" font-family="Helvetica,sans-Serif" font-size="11.00" fill="#000000">varchar[80]</text>
<polygon fill="none" stroke="#000000" points="10,-345.2 10,-367.2 244,-367.2 244,-345.2 10,-345.2"/>
<text text-anchor="start" x="30" y="-352.3" font-family="Helvetica,sans-Serif" font-size="11.00" fill="#000000">scope</text>
<polygon fill="none" stroke="#000000" points="244,-345.2 244,-367.2 338,-367.2 338,-345.2 244,-345.2"/>
<text text-anchor="start" x="247" y="-352.9" font-family="Helvetica,sans-Serif" font-size="11.00" fill="#000000">text[65535]</text>
<polygon fill="none" stroke="#000000" points="10,-323.2 10,-345.2 244,-345.2 244,-323.2 10,-323.2"/>
<text text-anchor="start" x="30" y="-330.3" font-family="Helvetica,sans-Serif" font-size="11.00" fill="#000000">user_id</text>
<polygon fill="none" stroke="#000000" points="244,-323.2 244,-345.2 338,-345.2 338,-323.2 244,-323.2"/>
<text text-anchor="start" x="247" y="-330.9" font-family="Helvetica,sans-Serif" font-size="11.00" fill="#000000">varchar[40]</text>
<polygon fill="none" stroke="#000000" points="10,-301.2 10,-323.2 244,-323.2 244,-301.2 10,-301.2"/>
<text text-anchor="start" x="30" y="-308.3" font-family="Helvetica,sans-Serif" font-size="11.00" fill="#000000">site_id</text>
<polygon fill="none" stroke="#000000" points="244,-301.2 244,-323.2 338,-323.2 338,-301.2 244,-301.2"/>
<text text-anchor="start" x="247" y="-308.9" font-family="Helvetica,sans-Serif" font-size="11.00" fill="#000000">varchar[64]</text>
<polygon fill="none" stroke="#000000" points="10,-279.2 10,-301.2 244,-301.2 244,-279.2 10,-279.2"/>
<text text-anchor="start" x="30" y="-286.3" font-family="Helvetica,sans-Serif" font-size="11.00" fill="#000000">is_confidential</text>
<polygon fill="none" stroke="#000000" points="244,-279.2 244,-301.2 338,-301.2 338,-279.2 244,-279.2"/>
<text text-anchor="start" x="247" y="-286.9" font-family="Helvetica,sans-Serif" font-size="11.00" fill="#000000">boolean[3]</text>
<polygon fill="none" stroke="#000000" points="10,-257.2 10,-279.2 244,-279.2 244,-257.2 10,-257.2"/>
<text text-anchor="start" x="30" y="-264.3" font-family="Helvetica,sans-Serif" font-size="11.00" fill="#000000">logout_redirect_uris</text>
<polygon fill="none" stroke="#000000" points="244,-257.2 244,-279.2 338,-279.2 338,-257.2 244,-257.2"/>
<text text-anchor="start" x="247" y="-264.9" font-family="Helvetica,sans-Serif" font-size="11.00" fill="#000000">text[65535]</text>
<polygon fill="none" stroke="#000000" points="10,-235.2 10,-257.2 244,-257.2 244,-235.2 10,-235.2"/>
<text text-anchor="start" x="30" y="-242.3" font-family="Helvetica,sans-Serif" font-size="11.00" fill="#000000">jwks_uri</text>
<polygon fill="none" stroke="#000000" points="244,-235.2 244,-257.2 338,-257.2 338,-235.2 244,-235.2"/>
<text text-anchor="start" x="247" y="-242.9" font-family="Helvetica,sans-Serif" font-size="11.00" fill="#000000">text[65535]</text>
<polygon fill="none" stroke="#000000" points="10,-213.2 10,-235.2 244,-235.2 244,-213.2 10,-213.2"/>
<text text-anchor="start" x="30" y="-220.3" font-family="Helvetica,sans-Serif" font-size="11.00" fill="#000000">jwks</text>
<polygon fill="none" stroke="#000000" points="244,-213.2 244,-235.2 338,-235.2 338,-213.2 244,-213.2"/>
<text text-anchor="start" x="247" y="-220.9" font-family="Helvetica,sans-Serif" font-size="11.00" fill="#000000">text[65535]</text>
<polygon fill="none" stroke="#000000" points="10,-191.2 10,-213.2 244,-213.2 244,-191.2 10,-191.2"/>
<text text-anchor="start" x="30" y="-198.3" font-family="Helvetica,sans-Serif" font-size="11.00" fill="#000000">initiate_login_uri</text>
<polygon fill="none" stroke="#000000" points="244,-191.2 244,-213.2 338,-213.2 338,-191.2 244,-191.2"/>
<text text-anchor="start" x="247" y="-198.9" font-family="Helvetica,sans-Serif" font-size="11.00" fill="#000000">text[65535]</text>
<polygon fill="none" stroke="#000000" points="10,-169.2 10,-191.2 244,-191.2 244,-169.2 10,-169.2"/>
<text text-anchor="start" x="30" y="-176.3" font-family="Helvetica,sans-Serif" font-size="11.00" fill="#000000">endorsements</text>
<polygon fill="none" stroke="#000000" points="244,-169.2 244,-191.2 338,-191.2 338,-169.2 244,-169.2"/>
<text text-anchor="start" x="247" y="-176.9" font-family="Helvetica,sans-Serif" font-size="11.00" fill="#000000">text[65535]</text>
<polygon fill="none" stroke="#000000" points="10,-147.2 10,-169.2 244,-169.2 244,-147.2 10,-147.2"/>
<text text-anchor="start" x="30" y="-154.3" font-family="Helvetica,sans-Serif" font-size="11.00" fill="#000000">policy_uri</text>
<polygon fill="none" stroke="#000000" points="244,-147.2 244,-169.2 338,-169.2 338,-147.2 244,-147.2"/>
<text text-anchor="start" x="247" y="-154.9" font-family="Helvetica,sans-Serif" font-size="11.00" fill="#000000">text[65535]</text>
<polygon fill="none" stroke="#000000" points="10,-125.2 10,-147.2 244,-147.2 244,-125.2 10,-125.2"/>
<text text-anchor="start" x="30" y="-132.3" font-family="Helvetica,sans-Serif" font-size="11.00" fill="#000000">tos_uri</text>
<polygon fill="none" stroke="#000000" points="244,-125.2 244,-147.2 338,-147.2 338,-125.2 244,-125.2"/>
<text text-anchor="start" x="247" y="-132.9" font-family="Helvetica,sans-Serif" font-size="11.00" fill="#000000">text[65535]</text>
<polygon fill="none" stroke="#000000" points="10,-103.2 10,-125.2 244,-125.2 244,-103.2 10,-103.2"/>
<text text-anchor="start" x="30" y="-110.3" font-family="Helvetica,sans-Serif" font-size="11.00" fill="#000000">is_enabled</text>
<polygon fill="none" stroke="#000000" points="244,-103.2 244,-125.2 338,-125.2 338,-103.2 244,-103.2"/>
<text text-anchor="start" x="247" y="-110.9" font-family="Helvetica,sans-Serif" font-size="11.00" fill="#000000">boolean[3]</text>
<polygon fill="none" stroke="#000000" points="10,-81.2 10,-103.2 244,-103.2 244,-81.2 10,-81.2"/>
<text text-anchor="start" x="30" y="-88.3" font-family="Helvetica,sans-Serif" font-size="11.00" fill="#000000">skip_ehr_launch_authorization_flow</text>
<polygon fill="none" stroke="#000000" points="244,-81.2 244,-103.2 338,-103.2 338,-81.2 244,-81.2"/>
<text text-anchor="start" x="247" y="-88.9" font-family="Helvetica,sans-Serif" font-size="11.00" fill="#000000">boolean[3]</text>
<polygon fill="none" stroke="#000000" points="10,-59.2 10,-81.2 244,-81.2 244,-59.2 10,-59.2"/>
<text text-anchor="start" x="30" y="-66.3" font-family="Helvetica,sans-Serif" font-size="11.00" fill="#000000">dsi_type</text>
<polygon fill="none" stroke="#000000" points="244,-59.2 244,-81.2 338,-81.2 338,-59.2 244,-59.2"/>
<text text-anchor="start" x="246.6794" y="-66.9" font-family="Helvetica,sans-Serif" font-size="11.00" fill="#000000">tinyint unsigned[3]</text>
<polygon fill="#ffffff" stroke="transparent" points="10,-40.2 10,-59.2 131,-59.2 131,-40.2 10,-40.2"/>
<polygon fill="none" stroke="#000000" points="10,-40.2 10,-59.2 131,-59.2 131,-40.2 10,-40.2"/>
<text text-anchor="start" x="13" y="-46.3" font-family="Helvetica,sans-Serif" font-size="11.00" fill="#000000">&lt; 0</text>
<polygon fill="#ffffff" stroke="transparent" points="131,-40.2 131,-59.2 244,-59.2 244,-40.2 131,-40.2"/>
<polygon fill="none" stroke="#000000" points="131,-40.2 131,-59.2 244,-59.2 244,-40.2 131,-40.2"/>
<text text-anchor="start" x="234.8862" y="-46.3" font-family="Helvetica,sans-Serif" font-size="11.00" fill="#000000"> &#160;</text>
<polygon fill="#ffffff" stroke="transparent" points="244,-40.2 244,-59.2 338,-59.2 338,-40.2 244,-40.2"/>
<polygon fill="none" stroke="#000000" points="244,-40.2 244,-59.2 338,-59.2 338,-40.2 244,-40.2"/>
<text text-anchor="start" x="319.4053" y="-46.3" font-family="Helvetica,sans-Serif" font-size="11.00" fill="#000000">0 &gt;</text>
<polygon fill="none" stroke="#000000" stroke-width="2" points="9,-39.2 9,-633.2 339,-633.2 339,-39.2 9,-39.2"/>
</a>
</g>
</g>
</g>
</svg>
