<?xml version="1.0" encoding="UTF-8" standalone="no"?>
<!DOCTYPE svg PUBLIC "-//W3C//DTD SVG 1.1//EN"
 "http://www.w3.org/Graphics/SVG/1.1/DTD/svg11.dtd">
<!-- Generated by graphviz version 2.40.1 (20161225.0304)
 -->
<!-- Title: oneDegreeRelationshipsDiagram Pages: 1 -->
<svg width="1251pt" height="578pt"
 viewBox="0.00 0.00 1251.00 577.65" xmlns="http://www.w3.org/2000/svg" xmlns:xlink="http://www.w3.org/1999/xlink">
<g id="graph0" class="graph" transform="scale(1 1) rotate(0) translate(4 573.6512)">
<title>oneDegreeRelationshipsDiagram</title>
<polygon fill="#ffffff" stroke="transparent" points="-4,4 -4,-573.6512 1247,-573.6512 1247,4 -4,4"/>
<text text-anchor="middle" x="72.4936" y="-7.3" font-family="Helvetica,sans-Serif" font-size="11.00" fill="#000000">Generated by SchemaSpy</text>
<!-- form_encounter -->
<g id="node1" class="node">
<title>form_encounter</title>
<g id="a_node1"><a xlink:href="../../tables/form_encounter.html" xlink:title="form_encounter" target="_top">
<polygon fill="#ffffff" stroke="transparent" points="719,-248.1512 719,-419.1512 906,-419.1512 906,-248.1512 719,-248.1512"/>
<polygon fill="#f5f5f5" stroke="transparent" points="719.5,-395.6512 719.5,-418.6512 906.5,-418.6512 906.5,-395.6512 719.5,-395.6512"/>
<polygon fill="none" stroke="#000000" points="719.5,-395.6512 719.5,-418.6512 906.5,-418.6512 906.5,-395.6512 719.5,-395.6512"/>
<text text-anchor="start" x="724.5" y="-404.2512" font-family="Helvetica,sans-Serif" font-weight="bold" font-size="11.00" fill="#000000">form_encounter</text>
<text text-anchor="start" x="871.5437" y="-403.7512" font-family="Helvetica,sans-Serif" font-size="11.00" fill="#000000">[table]</text>
<polygon fill="none" stroke="#000000" points="719.5,-373.6512 719.5,-395.6512 906.5,-395.6512 906.5,-373.6512 719.5,-373.6512"/>
<image xlink:href="../../images/primaryKeys.png" width="11px" height="12px" preserveAspectRatio="xMinYMin meet" x="724.5" y="-390.651"/>
<text text-anchor="start" x="739.5" y="-380.7512" font-family="Helvetica,sans-Serif" font-size="11.00" fill="#000000">id</text>
<polygon fill="#ffffff" stroke="transparent" points="719.5,-351.6512 719.5,-373.6512 906.5,-373.6512 906.5,-351.6512 719.5,-351.6512"/>
<polygon fill="none" stroke="#000000" points="719.5,-351.6512 719.5,-373.6512 906.5,-373.6512 906.5,-351.6512 719.5,-351.6512"/>
<text text-anchor="start" x="739.5" y="-358.7512" font-family="Helvetica,sans-Serif" font-size="11.00" fill="#000000">uuid</text>
<polygon fill="#ffffff" stroke="transparent" points="719.5,-329.6512 719.5,-351.6512 906.5,-351.6512 906.5,-329.6512 719.5,-329.6512"/>
<polygon fill="none" stroke="#000000" points="719.5,-329.6512 719.5,-351.6512 906.5,-351.6512 906.5,-329.6512 719.5,-329.6512"/>
<text text-anchor="start" x="739.5" y="-336.7512" font-family="Helvetica,sans-Serif" font-size="11.00" fill="#000000">date</text>
<polygon fill="#ffffff" stroke="transparent" points="719.5,-307.6512 719.5,-329.6512 906.5,-329.6512 906.5,-307.6512 719.5,-307.6512"/>
<polygon fill="none" stroke="#000000" points="719.5,-307.6512 719.5,-329.6512 906.5,-329.6512 906.5,-307.6512 719.5,-307.6512"/>
<image xlink:href="../../images/foreignKeys.png" width="11px" height="12px" preserveAspectRatio="xMinYMin meet" x="724.5" y="-324.651"/>
<text text-anchor="start" x="739.5" y="-314.7512" font-family="Helvetica,sans-Serif" font-size="11.00" fill="#000000">pid</text>
<polygon fill="none" stroke="#000000" points="719.5,-285.6512 719.5,-307.6512 906.5,-307.6512 906.5,-285.6512 719.5,-285.6512"/>
<image xlink:href="../../images/primaryKeys.png" width="11px" height="12px" preserveAspectRatio="xMinYMin meet" x="724.5" y="-302.651"/>
<text text-anchor="start" x="739.5" y="-292.7512" font-family="Helvetica,sans-Serif" font-size="11.00" fill="#000000">encounter</text>
<polygon fill="none" stroke="#000000" points="719.5,-266.6512 719.5,-285.6512 906.5,-285.6512 906.5,-266.6512 719.5,-266.6512"/>
<text text-anchor="start" x="722.5" y="-272.7512" font-family="Helvetica,sans-Serif" font-size="11.00" fill="#000000">...</text>
<polygon fill="#ffffff" stroke="transparent" points="719.5,-247.6512 719.5,-266.6512 803.5,-266.6512 803.5,-247.6512 719.5,-247.6512"/>
<polygon fill="none" stroke="#000000" points="719.5,-247.6512 719.5,-266.6512 803.5,-266.6512 803.5,-247.6512 719.5,-247.6512"/>
<text text-anchor="start" x="722.5" y="-253.7512" font-family="Helvetica,sans-Serif" font-size="11.00" fill="#000000">&lt; 1</text>
<polygon fill="#ffffff" stroke="transparent" points="803.5,-247.6512 803.5,-266.6512 847.5,-266.6512 847.5,-247.6512 803.5,-247.6512"/>
<polygon fill="none" stroke="#000000" points="803.5,-247.6512 803.5,-266.6512 847.5,-266.6512 847.5,-247.6512 803.5,-247.6512"/>
<text text-anchor="start" x="838.3862" y="-253.7512" font-family="Helvetica,sans-Serif" font-size="11.00" fill="#000000"> &#160;</text>
<polygon fill="#ffffff" stroke="transparent" points="847.5,-247.6512 847.5,-266.6512 906.5,-266.6512 906.5,-247.6512 847.5,-247.6512"/>
<polygon fill="none" stroke="#000000" points="847.5,-247.6512 847.5,-266.6512 906.5,-266.6512 906.5,-247.6512 847.5,-247.6512"/>
<text text-anchor="start" x="881.7904" y="-253.7512" font-family="Helvetica,sans-Serif" font-size="11.00" fill="#000000">19 &gt;</text>
</a>
</g>
</g>
<!-- patient_data -->
<g id="node2" class="node">
<title>patient_data</title>
<g id="a_node2"><a xlink:href="../../tables/patient_data.html" xlink:title="patient_data" target="_top">
<polygon fill="#ffffff" stroke="transparent" points="422,-117.1512 422,-508.1512 670,-508.1512 670,-117.1512 422,-117.1512"/>
<polygon fill="#f5f5f5" stroke="transparent" points="422,-484.6512 422,-507.6512 670,-507.6512 670,-484.6512 422,-484.6512"/>
<polygon fill="none" stroke="#000000" points="422,-484.6512 422,-507.6512 670,-507.6512 670,-484.6512 422,-484.6512"/>
<text text-anchor="start" x="427" y="-493.2512" font-family="Helvetica,sans-Serif" font-weight="bold" font-size="11.00" fill="#000000">patient_data</text>
<text text-anchor="start" x="635.0437" y="-492.7512" font-family="Helvetica,sans-Serif" font-size="11.00" fill="#000000">[table]</text>
<polygon fill="none" stroke="#000000" points="422,-462.6512 422,-484.6512 670,-484.6512 670,-462.6512 422,-462.6512"/>
<image xlink:href="../../images/primaryKeys.png" width="11px" height="12px" preserveAspectRatio="xMinYMin meet" x="427" y="-479.651"/>
<text text-anchor="start" x="442" y="-469.7512" font-family="Helvetica,sans-Serif" font-size="11.00" fill="#000000">id</text>
<polygon fill="#ffffff" stroke="transparent" points="422,-440.6512 422,-462.6512 670,-462.6512 670,-440.6512 422,-440.6512"/>
<polygon fill="none" stroke="#000000" points="422,-440.6512 422,-462.6512 670,-462.6512 670,-440.6512 422,-440.6512"/>
<text text-anchor="start" x="442" y="-447.7512" font-family="Helvetica,sans-Serif" font-size="11.00" fill="#000000">uuid</text>
<polygon fill="#ffffff" stroke="transparent" points="422,-418.6512 422,-440.6512 670,-440.6512 670,-418.6512 422,-418.6512"/>
<polygon fill="none" stroke="#000000" points="422,-418.6512 422,-440.6512 670,-440.6512 670,-418.6512 422,-418.6512"/>
<text text-anchor="start" x="442" y="-425.7512" font-family="Helvetica,sans-Serif" font-size="11.00" fill="#000000">fname</text>
<polygon fill="#ffffff" stroke="transparent" points="422,-396.6512 422,-418.6512 670,-418.6512 670,-396.6512 422,-396.6512"/>
<polygon fill="none" stroke="#000000" points="422,-396.6512 422,-418.6512 670,-418.6512 670,-396.6512 422,-396.6512"/>
<text text-anchor="start" x="442" y="-403.7512" font-family="Helvetica,sans-Serif" font-size="11.00" fill="#000000">lname</text>
<polygon fill="#ffffff" stroke="transparent" points="422,-374.6512 422,-396.6512 670,-396.6512 670,-374.6512 422,-374.6512"/>
<polygon fill="none" stroke="#000000" points="422,-374.6512 422,-396.6512 670,-396.6512 670,-374.6512 422,-374.6512"/>
<text text-anchor="start" x="442" y="-381.7512" font-family="Helvetica,sans-Serif" font-size="11.00" fill="#000000">DOB</text>
<polygon fill="none" stroke="#000000" points="422,-352.6512 422,-374.6512 670,-374.6512 670,-352.6512 422,-352.6512"/>
<image xlink:href="../../images/foreignKeys.png" width="11px" height="12px" preserveAspectRatio="xMinYMin meet" x="427" y="-369.651"/>
<text text-anchor="start" x="442" y="-359.7512" font-family="Helvetica,sans-Serif" font-size="11.00" fill="#000000">pharmacy_id</text>
<polygon fill="none" stroke="#000000" points="422,-330.6512 422,-352.6512 670,-352.6512 670,-330.6512 422,-330.6512"/>
<image xlink:href="../../images/foreignKeys.png" width="11px" height="12px" preserveAspectRatio="xMinYMin meet" x="427" y="-347.651"/>
<text text-anchor="start" x="442" y="-337.7512" font-family="Helvetica,sans-Serif" font-size="11.00" fill="#000000">providerID</text>
<polygon fill="none" stroke="#000000" points="422,-308.6512 422,-330.6512 670,-330.6512 670,-308.6512 422,-308.6512"/>
<image xlink:href="../../images/foreignKeys.png" width="11px" height="12px" preserveAspectRatio="xMinYMin meet" x="427" y="-325.651"/>
<text text-anchor="start" x="442" y="-315.7512" font-family="Helvetica,sans-Serif" font-size="11.00" fill="#000000">ref_providerID</text>
<polygon fill="none" stroke="#000000" points="422,-286.6512 422,-308.6512 670,-308.6512 670,-286.6512 422,-286.6512"/>
<image xlink:href="../../images/primaryKeys.png" width="11px" height="12px" preserveAspectRatio="xMinYMin meet" x="427" y="-303.651"/>
<text text-anchor="start" x="442" y="-293.7512" font-family="Helvetica,sans-Serif" font-size="11.00" fill="#000000">pid</text>
<polygon fill="none" stroke="#000000" points="422,-264.6512 422,-286.6512 670,-286.6512 670,-264.6512 422,-264.6512"/>
<image xlink:href="../../images/foreignKeys.png" width="11px" height="12px" preserveAspectRatio="xMinYMin meet" x="427" y="-281.651"/>
<text text-anchor="start" x="442" y="-271.7512" font-family="Helvetica,sans-Serif" font-size="11.00" fill="#000000">created_by</text>
<polygon fill="none" stroke="#000000" points="422,-242.6512 422,-264.6512 670,-264.6512 670,-242.6512 422,-242.6512"/>
<image xlink:href="../../images/foreignKeys.png" width="11px" height="12px" preserveAspectRatio="xMinYMin meet" x="427" y="-259.651"/>
<text text-anchor="start" x="442" y="-249.7512" font-family="Helvetica,sans-Serif" font-size="11.00" fill="#000000">updated_by</text>
<polygon fill="none" stroke="#000000" points="422,-220.6512 422,-242.6512 670,-242.6512 670,-220.6512 422,-220.6512"/>
<image xlink:href="../../images/foreignKeys.png" width="11px" height="12px" preserveAspectRatio="xMinYMin meet" x="427" y="-237.651"/>
<text text-anchor="start" x="442" y="-227.7512" font-family="Helvetica,sans-Serif" font-size="11.00" fill="#000000">tribal_affiliations</text>
<polygon fill="none" stroke="#000000" points="422,-198.6512 422,-220.6512 670,-220.6512 670,-198.6512 422,-198.6512"/>
<image xlink:href="../../images/foreignKeys.png" width="11px" height="12px" preserveAspectRatio="xMinYMin meet" x="427" y="-215.651"/>
<text text-anchor="start" x="442" y="-205.7512" font-family="Helvetica,sans-Serif" font-size="11.00" fill="#000000">sex_identified</text>
<polygon fill="none" stroke="#000000" points="422,-176.6512 422,-198.6512 670,-198.6512 670,-176.6512 422,-176.6512"/>
<image xlink:href="../../images/foreignKeys.png" width="11px" height="12px" preserveAspectRatio="xMinYMin meet" x="427" y="-193.651"/>
<text text-anchor="start" x="442" y="-183.7512" font-family="Helvetica,sans-Serif" font-size="11.00" fill="#000000">interpreter_needed</text>
<polygon fill="none" stroke="#000000" points="422,-154.6512 422,-176.6512 670,-176.6512 670,-154.6512 422,-154.6512"/>
<image xlink:href="../../images/foreignKeys.png" width="11px" height="12px" preserveAspectRatio="xMinYMin meet" x="427" y="-171.651"/>
<text text-anchor="start" x="442" y="-161.7512" font-family="Helvetica,sans-Serif" font-size="11.00" fill="#000000">advance_directive_user_authenticator</text>
<polygon fill="none" stroke="#000000" points="422,-135.6512 422,-154.6512 670,-154.6512 670,-135.6512 422,-135.6512"/>
<text text-anchor="start" x="425" y="-141.7512" font-family="Helvetica,sans-Serif" font-size="11.00" fill="#000000">...</text>
<polygon fill="#ffffff" stroke="transparent" points="422,-116.6512 422,-135.6512 537,-135.6512 537,-116.6512 422,-116.6512"/>
<polygon fill="none" stroke="#000000" points="422,-116.6512 422,-135.6512 537,-135.6512 537,-116.6512 422,-116.6512"/>
<text text-anchor="start" x="425" y="-122.7512" font-family="Helvetica,sans-Serif" font-size="11.00" fill="#000000">&lt; 9</text>
<polygon fill="#ffffff" stroke="transparent" points="537,-116.6512 537,-135.6512 596,-135.6512 596,-116.6512 537,-116.6512"/>
<polygon fill="none" stroke="#000000" points="537,-116.6512 537,-135.6512 596,-135.6512 596,-116.6512 537,-116.6512"/>
<text text-anchor="start" x="586.8862" y="-122.7512" font-family="Helvetica,sans-Serif" font-size="11.00" fill="#000000"> &#160;</text>
<polygon fill="#ffffff" stroke="transparent" points="596,-116.6512 596,-135.6512 670,-135.6512 670,-116.6512 596,-116.6512"/>
<polygon fill="none" stroke="#000000" points="596,-116.6512 596,-135.6512 670,-135.6512 670,-116.6512 596,-116.6512"/>
<text text-anchor="start" x="645.2904" y="-122.7512" font-family="Helvetica,sans-Serif" font-size="11.00" fill="#000000">97 &gt;</text>
</a>
</g>
</g>
<!-- form_encounter&#45;&gt;patient_data -->
<g id="edge1" class="edge">
<title>form_encounter:w&#45;&gt;patient_data:e</title>
<path fill="none" stroke="#000000" d="M705.4114,-315.5525C693.4749,-309.711 688.1102,-297.6512 670,-297.6512"/>
<polygon fill="#000000" stroke="#000000" points="711.6867,-316.9327 718.7267,-322.1671 715.5934,-317.7919 719.5,-318.6512 719.5,-318.6512 719.5,-318.6512 715.5934,-317.7919 720.2733,-315.1352 711.6867,-316.9327 711.6867,-316.9327"/>
<ellipse fill="none" stroke="#000000" cx="708.5614" cy="-316.2453" rx="3.2" ry="3.2"/>
</g>
<!-- users -->
<g id="node5" class="node">
<title>users</title>
<g id="a_node5"><a xlink:href="../../tables/users.html" xlink:title="users" target="_top">
<polygon fill="#ffffff" stroke="transparent" points="223,-95.1512 223,-310.1512 373,-310.1512 373,-95.1512 223,-95.1512"/>
<polygon fill="#f5f5f5" stroke="transparent" points="223,-286.6512 223,-309.6512 373,-309.6512 373,-286.6512 223,-286.6512"/>
<polygon fill="none" stroke="#000000" points="223,-286.6512 223,-309.6512 373,-309.6512 373,-286.6512 223,-286.6512"/>
<text text-anchor="start" x="228" y="-295.2512" font-family="Helvetica,sans-Serif" font-weight="bold" font-size="11.00" fill="#000000">users</text>
<text text-anchor="start" x="338.0437" y="-294.7512" font-family="Helvetica,sans-Serif" font-size="11.00" fill="#000000">[table]</text>
<polygon fill="none" stroke="#000000" points="223,-264.6512 223,-286.6512 373,-286.6512 373,-264.6512 223,-264.6512"/>
<image xlink:href="../../images/primaryKeys.png" width="11px" height="12px" preserveAspectRatio="xMinYMin meet" x="228" y="-281.651"/>
<text text-anchor="start" x="243" y="-271.7512" font-family="Helvetica,sans-Serif" font-size="11.00" fill="#000000">id</text>
<polygon fill="#ffffff" stroke="transparent" points="223,-242.6512 223,-264.6512 373,-264.6512 373,-242.6512 223,-242.6512"/>
<polygon fill="none" stroke="#000000" points="223,-242.6512 223,-264.6512 373,-264.6512 373,-242.6512 223,-242.6512"/>
<text text-anchor="start" x="243" y="-249.7512" font-family="Helvetica,sans-Serif" font-size="11.00" fill="#000000">uuid</text>
<polygon fill="none" stroke="#000000" points="223,-220.6512 223,-242.6512 373,-242.6512 373,-220.6512 223,-220.6512"/>
<image xlink:href="../../images/primaryKeys.png" width="11px" height="12px" preserveAspectRatio="xMinYMin meet" x="228" y="-237.651"/>
<text text-anchor="start" x="243" y="-227.7512" font-family="Helvetica,sans-Serif" font-size="11.00" fill="#000000">username</text>
<polygon fill="none" stroke="#000000" points="223,-198.6512 223,-220.6512 373,-220.6512 373,-198.6512 223,-198.6512"/>
<image xlink:href="../../images/foreignKeys.png" width="11px" height="12px" preserveAspectRatio="xMinYMin meet" x="228" y="-215.651"/>
<text text-anchor="start" x="243" y="-205.7512" font-family="Helvetica,sans-Serif" font-size="11.00" fill="#000000">facility_id</text>
<polygon fill="#ffffff" stroke="transparent" points="223,-176.6512 223,-198.6512 373,-198.6512 373,-176.6512 223,-176.6512"/>
<polygon fill="none" stroke="#000000" points="223,-176.6512 223,-198.6512 373,-198.6512 373,-176.6512 223,-176.6512"/>
<text text-anchor="start" x="243" y="-183.7512" font-family="Helvetica,sans-Serif" font-size="11.00" fill="#000000">google_signin_email</text>
<polygon fill="#ffffff" stroke="transparent" points="223,-154.6512 223,-176.6512 373,-176.6512 373,-154.6512 223,-154.6512"/>
<polygon fill="none" stroke="#000000" points="223,-154.6512 223,-176.6512 373,-176.6512 373,-154.6512 223,-154.6512"/>
<text text-anchor="start" x="243" y="-161.7512" font-family="Helvetica,sans-Serif" font-size="11.00" fill="#000000">abook_type</text>
<polygon fill="none" stroke="#000000" points="223,-132.6512 223,-154.6512 373,-154.6512 373,-132.6512 223,-132.6512"/>
<image xlink:href="../../images/foreignKeys.png" width="11px" height="12px" preserveAspectRatio="xMinYMin meet" x="228" y="-149.651"/>
<text text-anchor="start" x="243" y="-139.7512" font-family="Helvetica,sans-Serif" font-size="11.00" fill="#000000">billing_facility_id</text>
<polygon fill="none" stroke="#000000" points="223,-113.6512 223,-132.6512 373,-132.6512 373,-113.6512 223,-113.6512"/>
<text text-anchor="start" x="226" y="-119.7512" font-family="Helvetica,sans-Serif" font-size="11.00" fill="#000000">...</text>
<polygon fill="#ffffff" stroke="transparent" points="223,-94.6512 223,-113.6512 289,-113.6512 289,-94.6512 223,-94.6512"/>
<polygon fill="none" stroke="#000000" points="223,-94.6512 223,-113.6512 289,-113.6512 289,-94.6512 223,-94.6512"/>
<text text-anchor="start" x="226" y="-100.7512" font-family="Helvetica,sans-Serif" font-size="11.00" fill="#000000">&lt; 2</text>
<polygon fill="#ffffff" stroke="transparent" points="289,-94.6512 289,-113.6512 323,-113.6512 323,-94.6512 289,-94.6512"/>
<polygon fill="none" stroke="#000000" points="289,-94.6512 289,-113.6512 323,-113.6512 323,-94.6512 289,-94.6512"/>
<text text-anchor="start" x="313.8862" y="-100.7512" font-family="Helvetica,sans-Serif" font-size="11.00" fill="#000000"> &#160;</text>
<polygon fill="#ffffff" stroke="transparent" points="323,-94.6512 323,-113.6512 373,-113.6512 373,-94.6512 323,-94.6512"/>
<polygon fill="none" stroke="#000000" points="323,-94.6512 323,-113.6512 373,-113.6512 373,-94.6512 323,-94.6512"/>
<text text-anchor="start" x="348.2904" y="-100.7512" font-family="Helvetica,sans-Serif" font-size="11.00" fill="#000000">91 &gt;</text>
</a>
</g>
</g>
<!-- patient_data&#45;&gt;users -->
<g id="edge6" class="edge">
<title>patient_data:w&#45;&gt;users:e</title>
<path fill="none" stroke="#000000" d="M407.782,-169.5661C380.1981,-189.1614 420.4572,-275.6512 373,-275.6512"/>
<polygon fill="#000000" stroke="#000000" points="414.2871,-167.775 422.9557,-169.122 418.1435,-166.7131 422,-165.6512 422,-165.6512 422,-165.6512 418.1435,-166.7131 421.0443,-162.1803 414.2871,-167.775 414.2871,-167.775"/>
<ellipse fill="none" stroke="#000000" cx="411.2019" cy="-168.6245" rx="3.2" ry="3.2"/>
</g>
<!-- patient_data&#45;&gt;users -->
<g id="edge7" class="edge">
<title>patient_data:w&#45;&gt;users:e</title>
<path fill="none" stroke="#000000" d="M407.4909,-275.6512C396.1774,-275.6512 388.9931,-275.6512 373,-275.6512"/>
<polygon fill="#000000" stroke="#000000" points="414,-275.6512 422,-279.2512 418,-275.6512 422,-275.6512 422,-275.6512 422,-275.6512 418,-275.6512 422,-272.0512 414,-275.6512 414,-275.6512"/>
<ellipse fill="none" stroke="#000000" cx="410.8" cy="-275.6512" rx="3.2" ry="3.2"/>
</g>
<!-- patient_data&#45;&gt;users -->
<g id="edge8" class="edge">
<title>patient_data:w&#45;&gt;users:e</title>
<path fill="none" stroke="#000000" d="M408.3768,-336.9046C391.7322,-321.7714 403.5399,-275.6512 373,-275.6512"/>
<polygon fill="#000000" stroke="#000000" points="414.4454,-339.019 420.8155,-345.0507 418.2227,-340.3351 422,-341.6512 422,-341.6512 422,-341.6512 418.2227,-340.3351 423.1845,-338.2516 414.4454,-339.019 414.4454,-339.019"/>
<ellipse fill="none" stroke="#000000" cx="411.4236" cy="-337.9661" rx="3.2" ry="3.2"/>
</g>
<!-- patient_data&#45;&gt;users -->
<g id="edge9" class="edge">
<title>patient_data:w&#45;&gt;users:e</title>
<path fill="none" stroke="#000000" d="M408.3171,-314.9424C395.0046,-303.5916 396.324,-275.6512 373,-275.6512"/>
<polygon fill="#000000" stroke="#000000" points="414.4354,-317.0479 420.8285,-323.0552 418.2177,-318.3495 422,-319.6512 422,-319.6512 422,-319.6512 418.2177,-318.3495 423.1715,-316.2471 414.4354,-317.0479 414.4354,-317.0479"/>
<ellipse fill="none" stroke="#000000" cx="411.4096" cy="-316.0066" rx="3.2" ry="3.2"/>
</g>
<!-- patient_data&#45;&gt;users -->
<g id="edge10" class="edge">
<title>patient_data:w&#45;&gt;users:e</title>
<path fill="none" stroke="#000000" d="M407.6297,-257.0887C396.0865,-263.2762 390.9041,-275.6512 373,-275.6512"/>
<polygon fill="#000000" stroke="#000000" points="414.2195,-255.5124 422.8375,-257.1524 418.1098,-254.5818 422,-253.6512 422,-253.6512 422,-253.6512 418.1098,-254.5818 421.1625,-250.1499 414.2195,-255.5124 414.2195,-255.5124"/>
<ellipse fill="none" stroke="#000000" cx="411.1073" cy="-256.2569" rx="3.2" ry="3.2"/>
</g>
<!-- onsite_documents -->
<g id="node3" class="node">
<title>onsite_documents</title>
<g id="a_node3"><a xlink:href="../../tables/onsite_documents.html" xlink:title="onsite_documents" target="_top">
<polygon fill="#ffffff" stroke="transparent" points="955,-57.6512 955,-565.6512 1235,-565.6512 1235,-57.6512 955,-57.6512"/>
<polygon fill="#f5f5f5" stroke="transparent" points="957,-540.6512 957,-563.6512 1233,-563.6512 1233,-540.6512 957,-540.6512"/>
<polygon fill="none" stroke="#000000" points="957,-540.6512 957,-563.6512 1233,-563.6512 1233,-540.6512 957,-540.6512"/>
<text text-anchor="start" x="962" y="-549.2512" font-family="Helvetica,sans-Serif" font-weight="bold" font-size="11.00" fill="#000000">onsite_documents</text>
<text text-anchor="start" x="1198.0437" y="-548.7512" font-family="Helvetica,sans-Serif" font-size="11.00" fill="#000000">[table]</text>
<polygon fill="none" stroke="#000000" points="957,-518.6512 957,-540.6512 1113,-540.6512 1113,-518.6512 957,-518.6512"/>
<image xlink:href="../../images/primaryKeys.png" width="11px" height="12px" preserveAspectRatio="xMinYMin meet" x="962" y="-535.651"/>
<text text-anchor="start" x="977" y="-525.7512" font-family="Helvetica,sans-Serif" font-size="11.00" fill="#000000">id</text>
<polygon fill="none" stroke="#000000" points="1113,-518.6512 1113,-540.6512 1233,-540.6512 1233,-518.6512 1113,-518.6512"/>
<text text-anchor="start" x="1116" y="-526.3512" font-family="Helvetica,sans-Serif" font-size="11.00" fill="#000000">int unsigned[10]</text>
<polygon fill="none" stroke="#000000" points="957,-496.6512 957,-518.6512 1113,-518.6512 1113,-496.6512 957,-496.6512"/>
<image xlink:href="../../images/foreignKeys.png" width="11px" height="12px" preserveAspectRatio="xMinYMin meet" x="962" y="-513.651"/>
<text text-anchor="start" x="977" y="-503.7512" font-family="Helvetica,sans-Serif" font-size="11.00" fill="#000000">pid</text>
<polygon fill="none" stroke="#000000" points="1113,-496.6512 1113,-518.6512 1233,-518.6512 1233,-496.6512 1113,-496.6512"/>
<text text-anchor="start" x="1116" y="-504.3512" font-family="Helvetica,sans-Serif" font-size="11.00" fill="#000000">bigint unsigned[20]</text>
<polygon fill="none" stroke="#000000" points="957,-474.6512 957,-496.6512 1113,-496.6512 1113,-474.6512 957,-474.6512"/>
<image xlink:href="../../images/foreignKeys.png" width="11px" height="12px" preserveAspectRatio="xMinYMin meet" x="962" y="-491.651"/>
<text text-anchor="start" x="977" y="-481.7512" font-family="Helvetica,sans-Serif" font-size="11.00" fill="#000000">facility</text>
<polygon fill="none" stroke="#000000" points="1113,-474.6512 1113,-496.6512 1233,-496.6512 1233,-474.6512 1113,-474.6512"/>
<text text-anchor="start" x="1116" y="-482.3512" font-family="Helvetica,sans-Serif" font-size="11.00" fill="#000000">int unsigned[10]</text>
<polygon fill="none" stroke="#000000" points="957,-452.6512 957,-474.6512 1113,-474.6512 1113,-452.6512 957,-452.6512"/>
<text text-anchor="start" x="977" y="-459.7512" font-family="Helvetica,sans-Serif" font-size="11.00" fill="#000000">provider</text>
<polygon fill="none" stroke="#000000" points="1113,-452.6512 1113,-474.6512 1233,-474.6512 1233,-452.6512 1113,-452.6512"/>
<text text-anchor="start" x="1116" y="-460.3512" font-family="Helvetica,sans-Serif" font-size="11.00" fill="#000000">int unsigned[10]</text>
<polygon fill="none" stroke="#000000" points="957,-430.6512 957,-452.6512 1113,-452.6512 1113,-430.6512 957,-430.6512"/>
<image xlink:href="../../images/foreignKeys.png" width="11px" height="12px" preserveAspectRatio="xMinYMin meet" x="962" y="-447.651"/>
<text text-anchor="start" x="977" y="-437.7512" font-family="Helvetica,sans-Serif" font-size="11.00" fill="#000000">encounter</text>
<polygon fill="none" stroke="#000000" points="1113,-430.6512 1113,-452.6512 1233,-452.6512 1233,-430.6512 1113,-430.6512"/>
<text text-anchor="start" x="1116" y="-438.3512" font-family="Helvetica,sans-Serif" font-size="11.00" fill="#000000">int unsigned[10]</text>
<polygon fill="none" stroke="#000000" points="957,-408.6512 957,-430.6512 1113,-430.6512 1113,-408.6512 957,-408.6512"/>
<text text-anchor="start" x="977" y="-415.7512" font-family="Helvetica,sans-Serif" font-size="11.00" fill="#000000">create_date</text>
<polygon fill="none" stroke="#000000" points="1113,-408.6512 1113,-430.6512 1233,-430.6512 1233,-408.6512 1113,-408.6512"/>
<text text-anchor="start" x="1116" y="-416.3512" font-family="Helvetica,sans-Serif" font-size="11.00" fill="#000000">timestamp[19]</text>
<polygon fill="none" stroke="#000000" points="957,-386.6512 957,-408.6512 1113,-408.6512 1113,-386.6512 957,-386.6512"/>
<text text-anchor="start" x="977" y="-393.7512" font-family="Helvetica,sans-Serif" font-size="11.00" fill="#000000">doc_type</text>
<polygon fill="none" stroke="#000000" points="1113,-386.6512 1113,-408.6512 1233,-408.6512 1233,-386.6512 1113,-386.6512"/>
<text text-anchor="start" x="1116" y="-394.3512" font-family="Helvetica,sans-Serif" font-size="11.00" fill="#000000">varchar[255]</text>
<polygon fill="none" stroke="#000000" points="957,-364.6512 957,-386.6512 1113,-386.6512 1113,-364.6512 957,-364.6512"/>
<text text-anchor="start" x="977" y="-371.7512" font-family="Helvetica,sans-Serif" font-size="11.00" fill="#000000">patient_signed_status</text>
<polygon fill="none" stroke="#000000" points="1113,-364.6512 1113,-386.6512 1233,-386.6512 1233,-364.6512 1113,-364.6512"/>
<text text-anchor="start" x="1116" y="-372.3512" font-family="Helvetica,sans-Serif" font-size="11.00" fill="#000000">smallint unsigned[5]</text>
<polygon fill="none" stroke="#000000" points="957,-342.6512 957,-364.6512 1113,-364.6512 1113,-342.6512 957,-342.6512"/>
<text text-anchor="start" x="977" y="-349.7512" font-family="Helvetica,sans-Serif" font-size="11.00" fill="#000000">patient_signed_time</text>
<polygon fill="none" stroke="#000000" points="1113,-342.6512 1113,-364.6512 1233,-364.6512 1233,-342.6512 1113,-342.6512"/>
<text text-anchor="start" x="1116" y="-350.3512" font-family="Helvetica,sans-Serif" font-size="11.00" fill="#000000">datetime[19]</text>
<polygon fill="none" stroke="#000000" points="957,-320.6512 957,-342.6512 1113,-342.6512 1113,-320.6512 957,-320.6512"/>
<text text-anchor="start" x="977" y="-327.7512" font-family="Helvetica,sans-Serif" font-size="11.00" fill="#000000">authorize_signed_time</text>
<polygon fill="none" stroke="#000000" points="1113,-320.6512 1113,-342.6512 1233,-342.6512 1233,-320.6512 1113,-320.6512"/>
<text text-anchor="start" x="1116" y="-328.3512" font-family="Helvetica,sans-Serif" font-size="11.00" fill="#000000">datetime[19]</text>
<polygon fill="none" stroke="#000000" points="957,-298.6512 957,-320.6512 1113,-320.6512 1113,-298.6512 957,-298.6512"/>
<text text-anchor="start" x="977" y="-305.7512" font-family="Helvetica,sans-Serif" font-size="11.00" fill="#000000">accept_signed_status</text>
<polygon fill="none" stroke="#000000" points="1113,-298.6512 1113,-320.6512 1233,-320.6512 1233,-298.6512 1113,-298.6512"/>
<text text-anchor="start" x="1116" y="-306.3512" font-family="Helvetica,sans-Serif" font-size="11.00" fill="#000000">smallint[5]</text>
<polygon fill="none" stroke="#000000" points="957,-276.6512 957,-298.6512 1113,-298.6512 1113,-276.6512 957,-276.6512"/>
<text text-anchor="start" x="977" y="-283.7512" font-family="Helvetica,sans-Serif" font-size="11.00" fill="#000000">authorizing_signator</text>
<polygon fill="none" stroke="#000000" points="1113,-276.6512 1113,-298.6512 1233,-298.6512 1233,-276.6512 1113,-276.6512"/>
<text text-anchor="start" x="1116" y="-284.3512" font-family="Helvetica,sans-Serif" font-size="11.00" fill="#000000">varchar[50]</text>
<polygon fill="none" stroke="#000000" points="957,-254.6512 957,-276.6512 1113,-276.6512 1113,-254.6512 957,-254.6512"/>
<text text-anchor="start" x="977" y="-261.7512" font-family="Helvetica,sans-Serif" font-size="11.00" fill="#000000">review_date</text>
<polygon fill="none" stroke="#000000" points="1113,-254.6512 1113,-276.6512 1233,-276.6512 1233,-254.6512 1113,-254.6512"/>
<text text-anchor="start" x="1116" y="-262.3512" font-family="Helvetica,sans-Serif" font-size="11.00" fill="#000000">datetime[19]</text>
<polygon fill="none" stroke="#000000" points="957,-232.6512 957,-254.6512 1113,-254.6512 1113,-232.6512 957,-232.6512"/>
<text text-anchor="start" x="977" y="-239.7512" font-family="Helvetica,sans-Serif" font-size="11.00" fill="#000000">denial_reason</text>
<polygon fill="none" stroke="#000000" points="1113,-232.6512 1113,-254.6512 1233,-254.6512 1233,-232.6512 1113,-232.6512"/>
<text text-anchor="start" x="1116" y="-240.3512" font-family="Helvetica,sans-Serif" font-size="11.00" fill="#000000">varchar[255]</text>
<polygon fill="none" stroke="#000000" points="957,-210.6512 957,-232.6512 1113,-232.6512 1113,-210.6512 957,-210.6512"/>
<text text-anchor="start" x="977" y="-217.7512" font-family="Helvetica,sans-Serif" font-size="11.00" fill="#000000">authorized_signature</text>
<polygon fill="none" stroke="#000000" points="1113,-210.6512 1113,-232.6512 1233,-232.6512 1233,-210.6512 1113,-210.6512"/>
<text text-anchor="start" x="1116" y="-218.3512" font-family="Helvetica,sans-Serif" font-size="11.00" fill="#000000">text[65535]</text>
<polygon fill="none" stroke="#000000" points="957,-188.6512 957,-210.6512 1113,-210.6512 1113,-188.6512 957,-188.6512"/>
<text text-anchor="start" x="977" y="-195.7512" font-family="Helvetica,sans-Serif" font-size="11.00" fill="#000000">patient_signature</text>
<polygon fill="none" stroke="#000000" points="1113,-188.6512 1113,-210.6512 1233,-210.6512 1233,-188.6512 1113,-188.6512"/>
<text text-anchor="start" x="1116" y="-196.3512" font-family="Helvetica,sans-Serif" font-size="11.00" fill="#000000">text[65535]</text>
<polygon fill="none" stroke="#000000" points="957,-166.6512 957,-188.6512 1113,-188.6512 1113,-166.6512 957,-166.6512"/>
<text text-anchor="start" x="977" y="-173.7512" font-family="Helvetica,sans-Serif" font-size="11.00" fill="#000000">full_document</text>
<polygon fill="none" stroke="#000000" points="1113,-166.6512 1113,-188.6512 1233,-188.6512 1233,-166.6512 1113,-166.6512"/>
<text text-anchor="start" x="1115.536" y="-174.3512" font-family="Helvetica,sans-Serif" font-size="11.00" fill="#000000">mediumblob[16777215]</text>
<polygon fill="none" stroke="#000000" points="957,-144.6512 957,-166.6512 1113,-166.6512 1113,-144.6512 957,-144.6512"/>
<text text-anchor="start" x="977" y="-151.7512" font-family="Helvetica,sans-Serif" font-size="11.00" fill="#000000">file_name</text>
<polygon fill="none" stroke="#000000" points="1113,-144.6512 1113,-166.6512 1233,-166.6512 1233,-144.6512 1113,-144.6512"/>
<text text-anchor="start" x="1116" y="-152.3512" font-family="Helvetica,sans-Serif" font-size="11.00" fill="#000000">varchar[255]</text>
<polygon fill="none" stroke="#000000" points="957,-122.6512 957,-144.6512 1113,-144.6512 1113,-122.6512 957,-122.6512"/>
<text text-anchor="start" x="977" y="-129.7512" font-family="Helvetica,sans-Serif" font-size="11.00" fill="#000000">file_path</text>
<polygon fill="none" stroke="#000000" points="1113,-122.6512 1113,-144.6512 1233,-144.6512 1233,-122.6512 1113,-122.6512"/>
<text text-anchor="start" x="1116" y="-130.3512" font-family="Helvetica,sans-Serif" font-size="11.00" fill="#000000">varchar[255]</text>
<polygon fill="none" stroke="#000000" points="957,-100.6512 957,-122.6512 1113,-122.6512 1113,-100.6512 957,-100.6512"/>
<text text-anchor="start" x="977" y="-107.7512" font-family="Helvetica,sans-Serif" font-size="11.00" fill="#000000">template_data</text>
<polygon fill="none" stroke="#000000" points="1113,-100.6512 1113,-122.6512 1233,-122.6512 1233,-100.6512 1113,-100.6512"/>
<text text-anchor="start" x="1116" y="-108.3512" font-family="Helvetica,sans-Serif" font-size="11.00" fill="#000000">longtext[2147483647]</text>
<polygon fill="none" stroke="#000000" points="957,-78.6512 957,-100.6512 1113,-100.6512 1113,-78.6512 957,-78.6512"/>
<image xlink:href="../../images/foreignKeys.png" width="11px" height="12px" preserveAspectRatio="xMinYMin meet" x="962" y="-95.6512"/>
<text text-anchor="start" x="977" y="-85.7512" font-family="Helvetica,sans-Serif" font-size="11.00" fill="#000000">user</text>
<polygon fill="none" stroke="#000000" points="1113,-78.6512 1113,-100.6512 1233,-100.6512 1233,-78.6512 1113,-78.6512"/>
<text text-anchor="start" x="1116" y="-86.3512" font-family="Helvetica,sans-Serif" font-size="11.00" fill="#000000">unknown[0]</text>
<polygon fill="#ffffff" stroke="transparent" points="957,-59.6512 957,-78.6512 1039,-78.6512 1039,-59.6512 957,-59.6512"/>
<polygon fill="none" stroke="#000000" points="957,-59.6512 957,-78.6512 1039,-78.6512 1039,-59.6512 957,-59.6512"/>
<text text-anchor="start" x="960" y="-65.7512" font-family="Helvetica,sans-Serif" font-size="11.00" fill="#000000">&lt; 4</text>
<polygon fill="#ffffff" stroke="transparent" points="1039,-59.6512 1039,-78.6512 1113,-78.6512 1113,-59.6512 1039,-59.6512"/>
<polygon fill="none" stroke="#000000" points="1039,-59.6512 1039,-78.6512 1113,-78.6512 1113,-59.6512 1039,-59.6512"/>
<text text-anchor="start" x="1103.8862" y="-65.7512" font-family="Helvetica,sans-Serif" font-size="11.00" fill="#000000"> &#160;</text>
<polygon fill="#ffffff" stroke="transparent" points="1113,-59.6512 1113,-78.6512 1233,-78.6512 1233,-59.6512 1113,-59.6512"/>
<polygon fill="none" stroke="#000000" points="1113,-59.6512 1113,-78.6512 1233,-78.6512 1233,-59.6512 1113,-59.6512"/>
<text text-anchor="start" x="1214.4053" y="-65.7512" font-family="Helvetica,sans-Serif" font-size="11.00" fill="#000000">0 &gt;</text>
<polygon fill="none" stroke="#000000" stroke-width="2" points="956,-58.6512 956,-564.6512 1234,-564.6512 1234,-58.6512 956,-58.6512"/>
</a>
</g>
</g>
<!-- onsite_documents&#45;&gt;form_encounter -->
<g id="edge2" class="edge">
<title>onsite_documents:w&#45;&gt;form_encounter:e</title>
<path fill="none" stroke="#000000" d="M942.8871,-438.7547C902.1135,-418.3184 969.0099,-296.6512 906.5,-296.6512"/>
<polygon fill="#000000" stroke="#000000" points="949.1633,-440.0428 956.2762,-445.1777 953.0817,-440.847 957,-441.6512 957,-441.6512 957,-441.6512 953.0817,-440.847 957.7238,-438.1247 949.1633,-440.0428 949.1633,-440.0428"/>
<ellipse fill="none" stroke="#000000" cx="946.0287" cy="-439.3994" rx="3.2" ry="3.2"/>
</g>
<!-- onsite_documents&#45;&gt;patient_data -->
<g id="edge4" class="edge">
<title>onsite_documents:w&#45;&gt;patient_data:e</title>
<path fill="none" stroke="#000000" d="M942.5632,-507.6627C837.9116,-507.782 788.3898,-507.4979 711,-429.6512 667.6894,-386.0849 731.4315,-297.6512 670,-297.6512"/>
<polygon fill="#000000" stroke="#000000" points="949,-507.6576 957.0029,-511.2512 953,-507.6544 957,-507.6512 957,-507.6512 957,-507.6512 953,-507.6544 956.9971,-504.0512 949,-507.6576 949,-507.6576"/>
<ellipse fill="none" stroke="#000000" cx="945.8" cy="-507.6602" rx="3.2" ry="3.2"/>
</g>
<!-- facility -->
<g id="node4" class="node">
<title>facility</title>
<g id="a_node4"><a xlink:href="../../tables/facility.html" xlink:title="facility" target="_top">
<polygon fill="#ffffff" stroke="transparent" points="8,-139.1512 8,-244.1512 174,-244.1512 174,-139.1512 8,-139.1512"/>
<polygon fill="#f5f5f5" stroke="transparent" points="8,-220.6512 8,-243.6512 174,-243.6512 174,-220.6512 8,-220.6512"/>
<polygon fill="none" stroke="#000000" points="8,-220.6512 8,-243.6512 174,-243.6512 174,-220.6512 8,-220.6512"/>
<text text-anchor="start" x="13" y="-229.2512" font-family="Helvetica,sans-Serif" font-weight="bold" font-size="11.00" fill="#000000">facility</text>
<text text-anchor="start" x="139.0437" y="-228.7512" font-family="Helvetica,sans-Serif" font-size="11.00" fill="#000000">[table]</text>
<polygon fill="none" stroke="#000000" points="8,-198.6512 8,-220.6512 174,-220.6512 174,-198.6512 8,-198.6512"/>
<image xlink:href="../../images/primaryKeys.png" width="11px" height="12px" preserveAspectRatio="xMinYMin meet" x="13" y="-215.651"/>
<text text-anchor="start" x="28" y="-205.7512" font-family="Helvetica,sans-Serif" font-size="11.00" fill="#000000">id</text>
<polygon fill="#ffffff" stroke="transparent" points="8,-176.6512 8,-198.6512 174,-198.6512 174,-176.6512 8,-176.6512"/>
<polygon fill="none" stroke="#000000" points="8,-176.6512 8,-198.6512 174,-198.6512 174,-176.6512 8,-176.6512"/>
<text text-anchor="start" x="28" y="-183.7512" font-family="Helvetica,sans-Serif" font-size="11.00" fill="#000000">uuid</text>
<polygon fill="none" stroke="#000000" points="8,-157.6512 8,-176.6512 174,-176.6512 174,-157.6512 8,-157.6512"/>
<text text-anchor="start" x="11" y="-163.7512" font-family="Helvetica,sans-Serif" font-size="11.00" fill="#000000">...</text>
<polygon fill="#ffffff" stroke="transparent" points="8,-138.6512 8,-157.6512 77,-157.6512 77,-138.6512 8,-138.6512"/>
<polygon fill="none" stroke="#000000" points="8,-138.6512 8,-157.6512 77,-157.6512 77,-138.6512 8,-138.6512"/>
<text text-anchor="start" x="11" y="-144.7512" font-family="Helvetica,sans-Serif" font-size="11.00" fill="#000000"> &#160;</text>
<polygon fill="#ffffff" stroke="transparent" points="77,-138.6512 77,-157.6512 118,-157.6512 118,-138.6512 77,-138.6512"/>
<polygon fill="none" stroke="#000000" points="77,-138.6512 77,-157.6512 118,-157.6512 118,-138.6512 77,-138.6512"/>
<text text-anchor="start" x="108.8862" y="-144.7512" font-family="Helvetica,sans-Serif" font-size="11.00" fill="#000000"> &#160;</text>
<polygon fill="#ffffff" stroke="transparent" points="118,-138.6512 118,-157.6512 174,-157.6512 174,-138.6512 118,-138.6512"/>
<polygon fill="none" stroke="#000000" points="118,-138.6512 118,-157.6512 174,-157.6512 174,-138.6512 118,-138.6512"/>
<text text-anchor="start" x="149.2904" y="-144.7512" font-family="Helvetica,sans-Serif" font-size="11.00" fill="#000000">10 &gt;</text>
</a>
</g>
</g>
<!-- onsite_documents&#45;&gt;facility -->
<g id="edge3" class="edge">
<title>onsite_documents:w&#45;&gt;facility:e</title>
<path fill="none" stroke="#000000" d="M942.3293,-485.8062C711.9719,-490.6966 632.9073,-609.0027 414,-518.6512 298.6717,-471.0507 282.4189,-425.6326 215,-320.6512 186.5816,-276.3994 226.5911,-209.6512 174,-209.6512"/>
<polygon fill="#000000" stroke="#000000" points="949.0004,-485.7358 957.0381,-489.251 953.0002,-485.6935 957,-485.6512 957,-485.6512 957,-485.6512 953.0002,-485.6935 956.9619,-482.0514 949.0004,-485.7358 949.0004,-485.7358"/>
<ellipse fill="none" stroke="#000000" cx="945.8006" cy="-485.7696" rx="3.2" ry="3.2"/>
</g>
<!-- onsite_documents&#45;&gt;users -->
<g id="edge5" class="edge">
<title>onsite_documents:w&#45;&gt;users:e</title>
<path fill="none" stroke="#000000" d="M942.304,-89.4842C710.8372,-84.2265 597.5915,42.434 414,-106.6512 354.001,-155.3733 450.2899,-275.6512 373,-275.6512"/>
<polygon fill="#000000" stroke="#000000" points="949.0005,-89.5602 956.9591,-93.2509 953.0003,-89.6057 957,-89.6512 957,-89.6512 957,-89.6512 953.0003,-89.6057 957.0409,-86.0514 949.0005,-89.5602 949.0005,-89.5602"/>
<ellipse fill="none" stroke="#000000" cx="945.8007" cy="-89.5239" rx="3.2" ry="3.2"/>
</g>
<!-- users&#45;&gt;facility -->
<g id="edge11" class="edge">
<title>users:w&#45;&gt;facility:e</title>
<path fill="none" stroke="#000000" d="M209.3768,-148.3977C192.7322,-163.5309 204.5399,-209.6512 174,-209.6512"/>
<polygon fill="#000000" stroke="#000000" points="215.4454,-146.2834 224.1845,-147.0507 219.2227,-144.9673 223,-143.6512 223,-143.6512 223,-143.6512 219.2227,-144.9673 221.8155,-140.2516 215.4454,-146.2834 215.4454,-146.2834"/>
<ellipse fill="none" stroke="#000000" cx="212.4236" cy="-147.3362" rx="3.2" ry="3.2"/>
</g>
<!-- users&#45;&gt;facility -->
<g id="edge12" class="edge">
<title>users:w&#45;&gt;facility:e</title>
<path fill="none" stroke="#000000" d="M208.4909,-209.6512C197.1774,-209.6512 189.9931,-209.6512 174,-209.6512"/>
<polygon fill="#000000" stroke="#000000" points="215,-209.6512 223,-213.2512 219,-209.6512 223,-209.6512 223,-209.6512 223,-209.6512 219,-209.6512 223,-206.0512 215,-209.6512 215,-209.6512"/>
<ellipse fill="none" stroke="#000000" cx="211.8" cy="-209.6512" rx="3.2" ry="3.2"/>
</g>
</g>
</svg>
