<?xml version="1.0" encoding="UTF-8" standalone="no"?>
<!DOCTYPE svg PUBLIC "-//W3C//DTD SVG 1.1//EN"
 "http://www.w3.org/Graphics/SVG/1.1/DTD/svg11.dtd">
<!-- Generated by graphviz version 2.40.1 (20161225.0304)
 -->
<!-- Title: oneDegreeRelationshipsDiagram Pages: 1 -->
<svg width="265pt" height="580pt"
 viewBox="0.00 0.00 265.00 580.20" xmlns="http://www.w3.org/2000/svg" xmlns:xlink="http://www.w3.org/1999/xlink">
<g id="graph0" class="graph" transform="scale(1 1) rotate(0) translate(4 576.2)">
<title>oneDegreeRelationshipsDiagram</title>
<polygon fill="#ffffff" stroke="transparent" points="-4,4 -4,-576.2 261,-576.2 261,4 -4,4"/>
<text text-anchor="middle" x="72.4936" y="-7.3" font-family="Helvetica,sans-Serif" font-size="11.00" fill="#000000">Generated by SchemaSpy</text>
<!-- onsite_mail -->
<g id="node1" class="node">
<title>onsite_mail</title>
<g id="a_node1"><a xlink:href="../../tables/onsite_mail.html" xlink:title="onsite_mail" target="_top">
<polygon fill="#ffffff" stroke="transparent" points="8,-38.2 8,-568.2 249,-568.2 249,-38.2 8,-38.2"/>
<polygon fill="#f5f5f5" stroke="transparent" points="10.5,-543.2 10.5,-566.2 247.5,-566.2 247.5,-543.2 10.5,-543.2"/>
<polygon fill="none" stroke="#000000" points="10.5,-543.2 10.5,-566.2 247.5,-566.2 247.5,-543.2 10.5,-543.2"/>
<text text-anchor="start" x="15.5" y="-551.8" font-family="Helvetica,sans-Serif" font-weight="bold" font-size="11.00" fill="#000000">onsite_mail</text>
<text text-anchor="start" x="212.5437" y="-551.3" font-family="Helvetica,sans-Serif" font-size="11.00" fill="#000000">[table]</text>
<polygon fill="none" stroke="#000000" points="10.5,-521.2 10.5,-543.2 136.5,-543.2 136.5,-521.2 10.5,-521.2"/>
<image xlink:href="../../images/primaryKeys.png" width="11px" height="12px" preserveAspectRatio="xMinYMin meet" x="15.5" y="-538.2"/>
<text text-anchor="start" x="30.5" y="-528.3" font-family="Helvetica,sans-Serif" font-size="11.00" fill="#000000">id</text>
<polygon fill="none" stroke="#000000" points="136.5,-521.2 136.5,-543.2 247.5,-543.2 247.5,-521.2 136.5,-521.2"/>
<text text-anchor="start" x="139.5" y="-528.9" font-family="Helvetica,sans-Serif" font-size="11.00" fill="#000000">bigint[19]</text>
<polygon fill="none" stroke="#000000" points="10.5,-499.2 10.5,-521.2 136.5,-521.2 136.5,-499.2 10.5,-499.2"/>
<text text-anchor="start" x="30.5" y="-506.3" font-family="Helvetica,sans-Serif" font-size="11.00" fill="#000000">date</text>
<polygon fill="none" stroke="#000000" points="136.5,-499.2 136.5,-521.2 247.5,-521.2 247.5,-499.2 136.5,-499.2"/>
<text text-anchor="start" x="139.5" y="-506.9" font-family="Helvetica,sans-Serif" font-size="11.00" fill="#000000">datetime[19]</text>
<polygon fill="#ffffff" stroke="transparent" points="10.5,-477.2 10.5,-499.2 136.5,-499.2 136.5,-477.2 10.5,-477.2"/>
<polygon fill="none" stroke="#000000" points="10.5,-477.2 10.5,-499.2 136.5,-499.2 136.5,-477.2 10.5,-477.2"/>
<text text-anchor="start" x="30.5" y="-484.3" font-family="Helvetica,sans-Serif" font-size="11.00" fill="#000000">owner</text>
<polygon fill="none" stroke="#000000" points="136.5,-477.2 136.5,-499.2 247.5,-499.2 247.5,-477.2 136.5,-477.2"/>
<text text-anchor="start" x="139.5" y="-484.9" font-family="Helvetica,sans-Serif" font-size="11.00" fill="#000000">varchar[128]</text>
<polygon fill="none" stroke="#000000" points="10.5,-455.2 10.5,-477.2 136.5,-477.2 136.5,-455.2 10.5,-455.2"/>
<text text-anchor="start" x="30.5" y="-462.3" font-family="Helvetica,sans-Serif" font-size="11.00" fill="#000000">user</text>
<polygon fill="none" stroke="#000000" points="136.5,-455.2 136.5,-477.2 247.5,-477.2 247.5,-455.2 136.5,-455.2"/>
<text text-anchor="start" x="139.5" y="-462.9" font-family="Helvetica,sans-Serif" font-size="11.00" fill="#000000">varchar[255]</text>
<polygon fill="none" stroke="#000000" points="10.5,-433.2 10.5,-455.2 136.5,-455.2 136.5,-433.2 10.5,-433.2"/>
<text text-anchor="start" x="30.5" y="-440.3" font-family="Helvetica,sans-Serif" font-size="11.00" fill="#000000">groupname</text>
<polygon fill="none" stroke="#000000" points="136.5,-433.2 136.5,-455.2 247.5,-455.2 247.5,-433.2 136.5,-433.2"/>
<text text-anchor="start" x="139.5" y="-440.9" font-family="Helvetica,sans-Serif" font-size="11.00" fill="#000000">varchar[255]</text>
<polygon fill="none" stroke="#000000" points="10.5,-411.2 10.5,-433.2 136.5,-433.2 136.5,-411.2 10.5,-411.2"/>
<text text-anchor="start" x="30.5" y="-418.3" font-family="Helvetica,sans-Serif" font-size="11.00" fill="#000000">activity</text>
<polygon fill="none" stroke="#000000" points="136.5,-411.2 136.5,-433.2 247.5,-433.2 247.5,-411.2 136.5,-411.2"/>
<text text-anchor="start" x="139.5" y="-418.9" font-family="Helvetica,sans-Serif" font-size="11.00" fill="#000000">tinyint[3]</text>
<polygon fill="none" stroke="#000000" points="10.5,-389.2 10.5,-411.2 136.5,-411.2 136.5,-389.2 10.5,-389.2"/>
<text text-anchor="start" x="30.5" y="-396.3" font-family="Helvetica,sans-Serif" font-size="11.00" fill="#000000">authorized</text>
<polygon fill="none" stroke="#000000" points="136.5,-389.2 136.5,-411.2 247.5,-411.2 247.5,-389.2 136.5,-389.2"/>
<text text-anchor="start" x="139.5" y="-396.9" font-family="Helvetica,sans-Serif" font-size="11.00" fill="#000000">tinyint[3]</text>
<polygon fill="none" stroke="#000000" points="10.5,-367.2 10.5,-389.2 136.5,-389.2 136.5,-367.2 10.5,-367.2"/>
<text text-anchor="start" x="30.5" y="-374.3" font-family="Helvetica,sans-Serif" font-size="11.00" fill="#000000">header</text>
<polygon fill="none" stroke="#000000" points="136.5,-367.2 136.5,-389.2 247.5,-389.2 247.5,-367.2 136.5,-367.2"/>
<text text-anchor="start" x="139.5" y="-374.9" font-family="Helvetica,sans-Serif" font-size="11.00" fill="#000000">varchar[255]</text>
<polygon fill="none" stroke="#000000" points="10.5,-345.2 10.5,-367.2 136.5,-367.2 136.5,-345.2 10.5,-345.2"/>
<text text-anchor="start" x="30.5" y="-352.3" font-family="Helvetica,sans-Serif" font-size="11.00" fill="#000000">title</text>
<polygon fill="none" stroke="#000000" points="136.5,-345.2 136.5,-367.2 247.5,-367.2 247.5,-345.2 136.5,-345.2"/>
<text text-anchor="start" x="139.5" y="-352.9" font-family="Helvetica,sans-Serif" font-size="11.00" fill="#000000">varchar[255]</text>
<polygon fill="none" stroke="#000000" points="10.5,-323.2 10.5,-345.2 136.5,-345.2 136.5,-323.2 10.5,-323.2"/>
<text text-anchor="start" x="30.5" y="-330.3" font-family="Helvetica,sans-Serif" font-size="11.00" fill="#000000">body</text>
<polygon fill="none" stroke="#000000" points="136.5,-323.2 136.5,-345.2 247.5,-345.2 247.5,-323.2 136.5,-323.2"/>
<text text-anchor="start" x="139.1115" y="-330.9" font-family="Helvetica,sans-Serif" font-size="11.00" fill="#000000">longtext[2147483647]</text>
<polygon fill="none" stroke="#000000" points="10.5,-301.2 10.5,-323.2 136.5,-323.2 136.5,-301.2 10.5,-301.2"/>
<text text-anchor="start" x="30.5" y="-308.3" font-family="Helvetica,sans-Serif" font-size="11.00" fill="#000000">recipient_id</text>
<polygon fill="none" stroke="#000000" points="136.5,-301.2 136.5,-323.2 247.5,-323.2 247.5,-301.2 136.5,-301.2"/>
<text text-anchor="start" x="139.5" y="-308.9" font-family="Helvetica,sans-Serif" font-size="11.00" fill="#000000">varchar[128]</text>
<polygon fill="none" stroke="#000000" points="10.5,-279.2 10.5,-301.2 136.5,-301.2 136.5,-279.2 10.5,-279.2"/>
<text text-anchor="start" x="30.5" y="-286.3" font-family="Helvetica,sans-Serif" font-size="11.00" fill="#000000">recipient_name</text>
<polygon fill="none" stroke="#000000" points="136.5,-279.2 136.5,-301.2 247.5,-301.2 247.5,-279.2 136.5,-279.2"/>
<text text-anchor="start" x="139.5" y="-286.9" font-family="Helvetica,sans-Serif" font-size="11.00" fill="#000000">varchar[255]</text>
<polygon fill="none" stroke="#000000" points="10.5,-257.2 10.5,-279.2 136.5,-279.2 136.5,-257.2 10.5,-257.2"/>
<text text-anchor="start" x="30.5" y="-264.3" font-family="Helvetica,sans-Serif" font-size="11.00" fill="#000000">sender_id</text>
<polygon fill="none" stroke="#000000" points="136.5,-257.2 136.5,-279.2 247.5,-279.2 247.5,-257.2 136.5,-257.2"/>
<text text-anchor="start" x="139.5" y="-264.9" font-family="Helvetica,sans-Serif" font-size="11.00" fill="#000000">varchar[128]</text>
<polygon fill="none" stroke="#000000" points="10.5,-235.2 10.5,-257.2 136.5,-257.2 136.5,-235.2 10.5,-235.2"/>
<text text-anchor="start" x="30.5" y="-242.3" font-family="Helvetica,sans-Serif" font-size="11.00" fill="#000000">sender_name</text>
<polygon fill="none" stroke="#000000" points="136.5,-235.2 136.5,-257.2 247.5,-257.2 247.5,-235.2 136.5,-235.2"/>
<text text-anchor="start" x="139.5" y="-242.9" font-family="Helvetica,sans-Serif" font-size="11.00" fill="#000000">varchar[255]</text>
<polygon fill="none" stroke="#000000" points="10.5,-213.2 10.5,-235.2 136.5,-235.2 136.5,-213.2 10.5,-213.2"/>
<text text-anchor="start" x="30.5" y="-220.3" font-family="Helvetica,sans-Serif" font-size="11.00" fill="#000000">assigned_to</text>
<polygon fill="none" stroke="#000000" points="136.5,-213.2 136.5,-235.2 247.5,-235.2 247.5,-213.2 136.5,-213.2"/>
<text text-anchor="start" x="139.5" y="-220.9" font-family="Helvetica,sans-Serif" font-size="11.00" fill="#000000">varchar[255]</text>
<polygon fill="none" stroke="#000000" points="10.5,-191.2 10.5,-213.2 136.5,-213.2 136.5,-191.2 10.5,-191.2"/>
<text text-anchor="start" x="30.5" y="-198.3" font-family="Helvetica,sans-Serif" font-size="11.00" fill="#000000">deleted</text>
<polygon fill="none" stroke="#000000" points="136.5,-191.2 136.5,-213.2 247.5,-213.2 247.5,-191.2 136.5,-191.2"/>
<text text-anchor="start" x="139.5" y="-198.9" font-family="Helvetica,sans-Serif" font-size="11.00" fill="#000000">tinyint[3]</text>
<polygon fill="none" stroke="#000000" points="10.5,-169.2 10.5,-191.2 136.5,-191.2 136.5,-169.2 10.5,-169.2"/>
<text text-anchor="start" x="30.5" y="-176.3" font-family="Helvetica,sans-Serif" font-size="11.00" fill="#000000">delete_date</text>
<polygon fill="none" stroke="#000000" points="136.5,-169.2 136.5,-191.2 247.5,-191.2 247.5,-169.2 136.5,-169.2"/>
<text text-anchor="start" x="139.5" y="-176.9" font-family="Helvetica,sans-Serif" font-size="11.00" fill="#000000">datetime[19]</text>
<polygon fill="none" stroke="#000000" points="10.5,-147.2 10.5,-169.2 136.5,-169.2 136.5,-147.2 10.5,-147.2"/>
<text text-anchor="start" x="30.5" y="-154.3" font-family="Helvetica,sans-Serif" font-size="11.00" fill="#000000">mtype</text>
<polygon fill="none" stroke="#000000" points="136.5,-147.2 136.5,-169.2 247.5,-169.2 247.5,-147.2 136.5,-147.2"/>
<text text-anchor="start" x="139.5" y="-154.9" font-family="Helvetica,sans-Serif" font-size="11.00" fill="#000000">varchar[128]</text>
<polygon fill="none" stroke="#000000" points="10.5,-125.2 10.5,-147.2 136.5,-147.2 136.5,-125.2 10.5,-125.2"/>
<text text-anchor="start" x="30.5" y="-132.3" font-family="Helvetica,sans-Serif" font-size="11.00" fill="#000000">message_status</text>
<polygon fill="none" stroke="#000000" points="136.5,-125.2 136.5,-147.2 247.5,-147.2 247.5,-125.2 136.5,-125.2"/>
<text text-anchor="start" x="139.5" y="-132.9" font-family="Helvetica,sans-Serif" font-size="11.00" fill="#000000">varchar[20]</text>
<polygon fill="none" stroke="#000000" points="10.5,-103.2 10.5,-125.2 136.5,-125.2 136.5,-103.2 10.5,-103.2"/>
<text text-anchor="start" x="30.5" y="-110.3" font-family="Helvetica,sans-Serif" font-size="11.00" fill="#000000">mail_chain</text>
<polygon fill="none" stroke="#000000" points="136.5,-103.2 136.5,-125.2 247.5,-125.2 247.5,-103.2 136.5,-103.2"/>
<text text-anchor="start" x="139.5" y="-110.9" font-family="Helvetica,sans-Serif" font-size="11.00" fill="#000000">int[10]</text>
<polygon fill="none" stroke="#000000" points="10.5,-81.2 10.5,-103.2 136.5,-103.2 136.5,-81.2 10.5,-81.2"/>
<text text-anchor="start" x="30.5" y="-88.3" font-family="Helvetica,sans-Serif" font-size="11.00" fill="#000000">reply_mail_chain</text>
<polygon fill="none" stroke="#000000" points="136.5,-81.2 136.5,-103.2 247.5,-103.2 247.5,-81.2 136.5,-81.2"/>
<text text-anchor="start" x="139.5" y="-88.9" font-family="Helvetica,sans-Serif" font-size="11.00" fill="#000000">int[10]</text>
<polygon fill="none" stroke="#000000" points="10.5,-59.2 10.5,-81.2 136.5,-81.2 136.5,-59.2 10.5,-59.2"/>
<text text-anchor="start" x="30.5" y="-66.3" font-family="Helvetica,sans-Serif" font-size="11.00" fill="#000000">is_msg_encrypted</text>
<polygon fill="none" stroke="#000000" points="136.5,-59.2 136.5,-81.2 247.5,-81.2 247.5,-59.2 136.5,-59.2"/>
<text text-anchor="start" x="139.5" y="-66.9" font-family="Helvetica,sans-Serif" font-size="11.00" fill="#000000">tinyint[3]</text>
<polygon fill="#ffffff" stroke="transparent" points="10.5,-40.2 10.5,-59.2 77.5,-59.2 77.5,-40.2 10.5,-40.2"/>
<polygon fill="none" stroke="#000000" points="10.5,-40.2 10.5,-59.2 77.5,-59.2 77.5,-40.2 10.5,-40.2"/>
<text text-anchor="start" x="13.5" y="-46.3" font-family="Helvetica,sans-Serif" font-size="11.00" fill="#000000">&lt; 0</text>
<polygon fill="#ffffff" stroke="transparent" points="77.5,-40.2 77.5,-59.2 136.5,-59.2 136.5,-40.2 77.5,-40.2"/>
<polygon fill="none" stroke="#000000" points="77.5,-40.2 77.5,-59.2 136.5,-59.2 136.5,-40.2 77.5,-40.2"/>
<text text-anchor="start" x="127.3862" y="-46.3" font-family="Helvetica,sans-Serif" font-size="11.00" fill="#000000"> &#160;</text>
<polygon fill="#ffffff" stroke="transparent" points="136.5,-40.2 136.5,-59.2 247.5,-59.2 247.5,-40.2 136.5,-40.2"/>
<polygon fill="none" stroke="#000000" points="136.5,-40.2 136.5,-59.2 247.5,-59.2 247.5,-40.2 136.5,-40.2"/>
<text text-anchor="start" x="228.9053" y="-46.3" font-family="Helvetica,sans-Serif" font-size="11.00" fill="#000000">0 &gt;</text>
<polygon fill="none" stroke="#000000" stroke-width="2" points="9,-39.2 9,-567.2 248,-567.2 248,-39.2 9,-39.2"/>
</a>
</g>
</g>
</g>
</svg>
