<?xml version="1.0" encoding="UTF-8" standalone="no"?>
<!DOCTYPE svg PUBLIC "-//W3C//DTD SVG 1.1//EN"
 "http://www.w3.org/Graphics/SVG/1.1/DTD/svg11.dtd">
<!-- Generated by graphviz version 2.40.1 (20161225.0304)
 -->
<!-- Title: twoDegreesRelationshipsDiagram Pages: 1 -->
<svg width="1443pt" height="1102pt"
 viewBox="0.00 0.00 1443.00 1102.12" xmlns="http://www.w3.org/2000/svg" xmlns:xlink="http://www.w3.org/1999/xlink">
<g id="graph0" class="graph" transform="scale(1 1) rotate(0) translate(4 1098.117)">
<title>twoDegreesRelationshipsDiagram</title>
<polygon fill="#ffffff" stroke="transparent" points="-4,4 -4,-1098.117 1439,-1098.117 1439,4 -4,4"/>
<text text-anchor="middle" x="72.4936" y="-7.3" font-family="Helvetica,sans-Serif" font-size="11.00" fill="#000000">Generated by SchemaSpy</text>
<!-- form_group_attendance -->
<g id="node1" class="node">
<title>form_group_attendance</title>
<g id="a_node1"><a xlink:href="../../tables/form_group_attendance.html" xlink:title="form_group_attendance" target="_top">
<polygon fill="#ffffff" stroke="transparent" points="1228,-169.6234 1228,-230.6234 1427,-230.6234 1427,-169.6234 1228,-169.6234"/>
<polygon fill="#f5f5f5" stroke="transparent" points="1228.5,-207.1234 1228.5,-230.1234 1427.5,-230.1234 1427.5,-207.1234 1228.5,-207.1234"/>
<polygon fill="none" stroke="#000000" points="1228.5,-207.1234 1228.5,-230.1234 1427.5,-230.1234 1427.5,-207.1234 1228.5,-207.1234"/>
<text text-anchor="start" x="1233.5" y="-215.7234" font-family="Helvetica,sans-Serif" font-weight="bold" font-size="11.00" fill="#000000">form_group_attendance</text>
<text text-anchor="start" x="1393.0219" y="-215.2234" font-family="Helvetica,sans-Serif" font-size="11.00" fill="#000000">[table]</text>
<polygon fill="none" stroke="#000000" points="1228.5,-188.1234 1228.5,-207.1234 1427.5,-207.1234 1427.5,-188.1234 1228.5,-188.1234"/>
<text text-anchor="start" x="1231.5" y="-194.2234" font-family="Helvetica,sans-Serif" font-size="11.00" fill="#000000">...</text>
<polygon fill="#ffffff" stroke="transparent" points="1228.5,-169.1234 1228.5,-188.1234 1321.5,-188.1234 1321.5,-169.1234 1228.5,-169.1234"/>
<polygon fill="none" stroke="#000000" points="1228.5,-169.1234 1228.5,-188.1234 1321.5,-188.1234 1321.5,-169.1234 1228.5,-169.1234"/>
<text text-anchor="start" x="1231.5" y="-175.2234" font-family="Helvetica,sans-Serif" font-size="11.00" fill="#000000">&lt; 5</text>
<polygon fill="#ffffff" stroke="transparent" points="1321.5,-169.1234 1321.5,-188.1234 1369.5,-188.1234 1369.5,-169.1234 1321.5,-169.1234"/>
<polygon fill="none" stroke="#000000" points="1321.5,-169.1234 1321.5,-188.1234 1369.5,-188.1234 1369.5,-169.1234 1321.5,-169.1234"/>
<text text-anchor="start" x="1360.3862" y="-175.2234" font-family="Helvetica,sans-Serif" font-size="11.00" fill="#000000"> &#160;</text>
<polygon fill="#ffffff" stroke="transparent" points="1369.5,-169.1234 1369.5,-188.1234 1427.5,-188.1234 1427.5,-169.1234 1369.5,-169.1234"/>
<polygon fill="none" stroke="#000000" points="1369.5,-169.1234 1369.5,-188.1234 1427.5,-188.1234 1427.5,-169.1234 1369.5,-169.1234"/>
<text text-anchor="start" x="1408.9053" y="-175.2234" font-family="Helvetica,sans-Serif" font-size="11.00" fill="#000000">1 &gt;</text>
</a>
</g>
</g>
<!-- form_groups_encounter -->
<g id="node2" class="node">
<title>form_groups_encounter</title>
<g id="a_node2"><a xlink:href="../../tables/form_groups_encounter.html" xlink:title="form_groups_encounter" target="_top">
<polygon fill="#ffffff" stroke="transparent" points="981,-139.6234 981,-200.6234 1179,-200.6234 1179,-139.6234 981,-139.6234"/>
<polygon fill="#f5f5f5" stroke="transparent" points="981,-177.1234 981,-200.1234 1179,-200.1234 1179,-177.1234 981,-177.1234"/>
<polygon fill="none" stroke="#000000" points="981,-177.1234 981,-200.1234 1179,-200.1234 1179,-177.1234 981,-177.1234"/>
<text text-anchor="start" x="986" y="-185.7234" font-family="Helvetica,sans-Serif" font-weight="bold" font-size="11.00" fill="#000000">form_groups_encounter</text>
<text text-anchor="start" x="1144.5219" y="-185.2234" font-family="Helvetica,sans-Serif" font-size="11.00" fill="#000000">[table]</text>
<polygon fill="none" stroke="#000000" points="981,-158.1234 981,-177.1234 1179,-177.1234 1179,-158.1234 981,-158.1234"/>
<text text-anchor="start" x="984" y="-164.2234" font-family="Helvetica,sans-Serif" font-size="11.00" fill="#000000">...</text>
<polygon fill="#ffffff" stroke="transparent" points="981,-139.1234 981,-158.1234 1074,-158.1234 1074,-139.1234 981,-139.1234"/>
<polygon fill="none" stroke="#000000" points="981,-139.1234 981,-158.1234 1074,-158.1234 1074,-139.1234 981,-139.1234"/>
<text text-anchor="start" x="984" y="-145.2234" font-family="Helvetica,sans-Serif" font-size="11.00" fill="#000000">&lt; 7</text>
<polygon fill="#ffffff" stroke="transparent" points="1074,-139.1234 1074,-158.1234 1122,-158.1234 1122,-139.1234 1074,-139.1234"/>
<polygon fill="none" stroke="#000000" points="1074,-139.1234 1074,-158.1234 1122,-158.1234 1122,-139.1234 1074,-139.1234"/>
<text text-anchor="start" x="1112.8862" y="-145.2234" font-family="Helvetica,sans-Serif" font-size="11.00" fill="#000000"> &#160;</text>
<polygon fill="#ffffff" stroke="transparent" points="1122,-139.1234 1122,-158.1234 1179,-158.1234 1179,-139.1234 1122,-139.1234"/>
<polygon fill="none" stroke="#000000" points="1122,-139.1234 1122,-158.1234 1179,-158.1234 1179,-139.1234 1122,-139.1234"/>
<text text-anchor="start" x="1160.4053" y="-145.2234" font-family="Helvetica,sans-Serif" font-size="11.00" fill="#000000">1 &gt;</text>
</a>
</g>
</g>
<!-- form_group_attendance&#45;&gt;form_groups_encounter -->
<g id="edge1" class="edge">
<title>form_group_attendance:w&#45;&gt;form_groups_encounter:e</title>
<path fill="none" stroke="#000000" d="M1214.0857,-196.7373C1205.133,-196.2744 1196.0516,-195.4169 1187.054,-194.2849"/>
<polygon fill="#000000" stroke="#000000" points="1220.5029,-196.9091 1228.4036,-200.7221 1224.5014,-197.0163 1228.5,-197.1234 1228.5,-197.1234 1228.5,-197.1234 1224.5014,-197.0163 1228.5964,-193.5247 1220.5029,-196.9091 1220.5029,-196.9091"/>
<ellipse fill="none" stroke="#000000" cx="1217.304" cy="-196.8234" rx="3.2" ry="3.2"/>
</g>
<!-- therapy_groups -->
<g id="node3" class="node">
<title>therapy_groups</title>
<g id="a_node3"><a xlink:href="../../tables/therapy_groups.html" xlink:title="therapy_groups" target="_top">
<polygon fill="#ffffff" stroke="transparent" points="380.5,-209.6234 380.5,-270.6234 524.5,-270.6234 524.5,-209.6234 380.5,-209.6234"/>
<polygon fill="#f5f5f5" stroke="transparent" points="380.5,-247.1234 380.5,-270.1234 524.5,-270.1234 524.5,-247.1234 380.5,-247.1234"/>
<polygon fill="none" stroke="#000000" points="380.5,-247.1234 380.5,-270.1234 524.5,-270.1234 524.5,-247.1234 380.5,-247.1234"/>
<text text-anchor="start" x="385.5" y="-255.7234" font-family="Helvetica,sans-Serif" font-weight="bold" font-size="11.00" fill="#000000">therapy_groups</text>
<text text-anchor="start" x="490.0219" y="-255.2234" font-family="Helvetica,sans-Serif" font-size="11.00" fill="#000000">[table]</text>
<polygon fill="none" stroke="#000000" points="380.5,-228.1234 380.5,-247.1234 524.5,-247.1234 524.5,-228.1234 380.5,-228.1234"/>
<text text-anchor="start" x="383.5" y="-234.2234" font-family="Helvetica,sans-Serif" font-size="11.00" fill="#000000">...</text>
<polygon fill="#ffffff" stroke="transparent" points="380.5,-209.1234 380.5,-228.1234 441.5,-228.1234 441.5,-209.1234 380.5,-209.1234"/>
<polygon fill="none" stroke="#000000" points="380.5,-209.1234 380.5,-228.1234 441.5,-228.1234 441.5,-209.1234 380.5,-209.1234"/>
<text text-anchor="start" x="383.5" y="-215.2234" font-family="Helvetica,sans-Serif" font-size="11.00" fill="#000000"> &#160;</text>
<polygon fill="#ffffff" stroke="transparent" points="441.5,-209.1234 441.5,-228.1234 478.5,-228.1234 478.5,-209.1234 441.5,-209.1234"/>
<polygon fill="none" stroke="#000000" points="441.5,-209.1234 441.5,-228.1234 478.5,-228.1234 478.5,-209.1234 441.5,-209.1234"/>
<text text-anchor="start" x="469.3862" y="-215.2234" font-family="Helvetica,sans-Serif" font-size="11.00" fill="#000000"> &#160;</text>
<polygon fill="#ffffff" stroke="transparent" points="478.5,-209.1234 478.5,-228.1234 524.5,-228.1234 524.5,-209.1234 478.5,-209.1234"/>
<polygon fill="none" stroke="#000000" points="478.5,-209.1234 478.5,-228.1234 524.5,-228.1234 524.5,-209.1234 478.5,-209.1234"/>
<text text-anchor="start" x="505.9053" y="-215.2234" font-family="Helvetica,sans-Serif" font-size="11.00" fill="#000000">6 &gt;</text>
</a>
</g>
</g>
<!-- form_group_attendance&#45;&gt;therapy_groups -->
<g id="edge2" class="edge">
<title>form_group_attendance:w&#45;&gt;therapy_groups:e</title>
<path fill="none" stroke="#000000" d="M1214.3394,-201.1528C1205.3342,-207.4128 1201.9149,-219.3532 1187,-225.1234 976.3162,-306.6306 905.2388,-278.4028 680,-261.1234 610.2755,-255.7744 594.4294,-237.1234 524.5,-237.1234"/>
<polygon fill="#000000" stroke="#000000" points="1220.8054,-199.3129 1229.4853,-200.5859 1224.6527,-198.2181 1228.5,-197.1234 1228.5,-197.1234 1228.5,-197.1234 1224.6527,-198.2181 1227.5147,-193.6608 1220.8054,-199.3129 1220.8054,-199.3129"/>
<ellipse fill="none" stroke="#000000" cx="1217.7276" cy="-200.1887" rx="3.2" ry="3.2"/>
</g>
<!-- forms -->
<g id="node4" class="node">
<title>forms</title>
<g id="a_node4"><a xlink:href="../../tables/forms.html" xlink:title="forms" target="_top">
<polygon fill="#ffffff" stroke="transparent" points="771,-170.6234 771,-231.6234 849,-231.6234 849,-170.6234 771,-170.6234"/>
<polygon fill="#f5f5f5" stroke="transparent" points="771,-208.1234 771,-231.1234 849,-231.1234 849,-208.1234 771,-208.1234"/>
<polygon fill="none" stroke="#000000" points="771,-208.1234 771,-231.1234 849,-231.1234 849,-208.1234 771,-208.1234"/>
<text text-anchor="start" x="776" y="-216.7234" font-family="Helvetica,sans-Serif" font-weight="bold" font-size="11.00" fill="#000000">forms</text>
<text text-anchor="start" x="814.5219" y="-216.2234" font-family="Helvetica,sans-Serif" font-size="11.00" fill="#000000">[table]</text>
<polygon fill="none" stroke="#000000" points="771,-189.1234 771,-208.1234 849,-208.1234 849,-189.1234 771,-189.1234"/>
<text text-anchor="start" x="774" y="-195.2234" font-family="Helvetica,sans-Serif" font-size="11.00" fill="#000000">...</text>
<polygon fill="#ffffff" stroke="transparent" points="771,-170.1234 771,-189.1234 801,-189.1234 801,-170.1234 771,-170.1234"/>
<polygon fill="none" stroke="#000000" points="771,-170.1234 771,-189.1234 801,-189.1234 801,-170.1234 771,-170.1234"/>
<text text-anchor="start" x="774" y="-176.2234" font-family="Helvetica,sans-Serif" font-size="11.00" fill="#000000">&lt; 6</text>
<polygon fill="#ffffff" stroke="transparent" points="801,-170.1234 801,-189.1234 817,-189.1234 817,-170.1234 801,-170.1234"/>
<polygon fill="none" stroke="#000000" points="801,-170.1234 801,-189.1234 817,-189.1234 817,-170.1234 801,-170.1234"/>
<text text-anchor="start" x="807.8862" y="-176.2234" font-family="Helvetica,sans-Serif" font-size="11.00" fill="#000000"> &#160;</text>
<polygon fill="#ffffff" stroke="transparent" points="817,-170.1234 817,-189.1234 849,-189.1234 849,-170.1234 817,-170.1234"/>
<polygon fill="none" stroke="#000000" points="817,-170.1234 817,-189.1234 849,-189.1234 849,-170.1234 817,-170.1234"/>
<text text-anchor="start" x="824.2904" y="-176.2234" font-family="Helvetica,sans-Serif" font-size="11.00" fill="#000000">13 &gt;</text>
</a>
</g>
</g>
<!-- form_group_attendance&#45;&gt;forms -->
<g id="edge3" class="edge">
<title>form_group_attendance:w&#45;&gt;forms:e</title>
<path fill="none" stroke="#000000" d="M1218.0931,-198.3973C1207.1133,-201.3572 1202.1569,-208.6357 1187,-211.1234 1093.1447,-226.5279 1067.9814,-216.0886 973,-211.1234 917.6624,-208.2305 904.4132,-198.1234 849,-198.1234"/>
<polygon fill="#000000" stroke="#000000" points="1227.2199,-193.2502 1228.192,-201.1909 1226.6038,-201.3854 1225.6317,-193.4446 1227.2199,-193.2502"/>
<polyline fill="none" stroke="#000000" points="1228.5,-197.1234 1224.5296,-197.6094 "/>
<ellipse fill="none" stroke="#000000" cx="1221.3533" cy="-197.9983" rx="3.2" ry="3.2"/>
</g>
<!-- users -->
<g id="node5" class="node">
<title>users</title>
<g id="a_node5"><a xlink:href="../../tables/users.html" xlink:title="users" target="_top">
<polygon fill="#ffffff" stroke="transparent" points="142,-291.6234 142,-352.6234 217,-352.6234 217,-291.6234 142,-291.6234"/>
<polygon fill="#f5f5f5" stroke="transparent" points="142.5,-329.1234 142.5,-352.1234 217.5,-352.1234 217.5,-329.1234 142.5,-329.1234"/>
<polygon fill="none" stroke="#000000" points="142.5,-329.1234 142.5,-352.1234 217.5,-352.1234 217.5,-329.1234 142.5,-329.1234"/>
<text text-anchor="start" x="147.5" y="-337.7234" font-family="Helvetica,sans-Serif" font-weight="bold" font-size="11.00" fill="#000000">users</text>
<text text-anchor="start" x="183.0219" y="-337.2234" font-family="Helvetica,sans-Serif" font-size="11.00" fill="#000000">[table]</text>
<polygon fill="none" stroke="#000000" points="142.5,-310.1234 142.5,-329.1234 217.5,-329.1234 217.5,-310.1234 142.5,-310.1234"/>
<text text-anchor="start" x="145.5" y="-316.2234" font-family="Helvetica,sans-Serif" font-size="11.00" fill="#000000">...</text>
<polygon fill="#ffffff" stroke="transparent" points="142.5,-291.1234 142.5,-310.1234 170.5,-310.1234 170.5,-291.1234 142.5,-291.1234"/>
<polygon fill="none" stroke="#000000" points="142.5,-291.1234 142.5,-310.1234 170.5,-310.1234 170.5,-291.1234 142.5,-291.1234"/>
<text text-anchor="start" x="145.5" y="-297.2234" font-family="Helvetica,sans-Serif" font-size="11.00" fill="#000000">&lt; 2</text>
<polygon fill="#ffffff" stroke="transparent" points="170.5,-291.1234 170.5,-310.1234 186.5,-310.1234 186.5,-291.1234 170.5,-291.1234"/>
<polygon fill="none" stroke="#000000" points="170.5,-291.1234 170.5,-310.1234 186.5,-310.1234 186.5,-291.1234 170.5,-291.1234"/>
<text text-anchor="start" x="177.3862" y="-297.2234" font-family="Helvetica,sans-Serif" font-size="11.00" fill="#000000"> &#160;</text>
<polygon fill="#ffffff" stroke="transparent" points="186.5,-291.1234 186.5,-310.1234 217.5,-310.1234 217.5,-291.1234 186.5,-291.1234"/>
<polygon fill="none" stroke="#000000" points="186.5,-291.1234 186.5,-310.1234 217.5,-310.1234 217.5,-291.1234 186.5,-291.1234"/>
<text text-anchor="start" x="192.7904" y="-297.2234" font-family="Helvetica,sans-Serif" font-size="11.00" fill="#000000">61 &gt;</text>
</a>
</g>
</g>
<!-- form_group_attendance&#45;&gt;users -->
<g id="edge4" class="edge">
<title>form_group_attendance:w&#45;&gt;users:e</title>
<path fill="none" stroke="#000000" d="M1214.5521,-192.7372C1200.1297,-180.1182 1212.1239,-143.6953 1187,-129.1234 1008.407,-25.5386 417.7572,12.6547 258,-118.1234 187.4849,-175.8474 308.6287,-319.1234 217.5,-319.1234"/>
<polygon fill="#000000" stroke="#000000" points="1220.8684,-194.7235 1227.42,-200.5576 1224.6842,-195.9234 1228.5,-197.1234 1228.5,-197.1234 1228.5,-197.1234 1224.6842,-195.9234 1229.58,-193.6892 1220.8684,-194.7235 1220.8684,-194.7235"/>
<ellipse fill="none" stroke="#000000" cx="1217.8158" cy="-193.7635" rx="3.2" ry="3.2"/>
</g>
<!-- form_groups_encounter&#45;&gt;therapy_groups -->
<g id="edge7" class="edge">
<title>form_groups_encounter:w&#45;&gt;therapy_groups:e</title>
<path fill="none" stroke="#000000" d="M1014.8887,-211.7264C992.1087,-224.0376 965.7678,-235.8856 940,-242.1234 760.5043,-285.5747 709.18,-237.1234 524.5,-237.1234"/>
<polygon fill="#000000" stroke="#000000" points="1020.5222,-208.5746 1029.2615,-207.8102 1024.013,-206.6216 1027.5038,-204.6685 1027.5038,-204.6685 1027.5038,-204.6685 1024.013,-206.6216 1025.7461,-201.5268 1020.5222,-208.5746 1020.5222,-208.5746"/>
<ellipse fill="none" stroke="#000000" cx="1017.7296" cy="-210.1371" rx="3.2" ry="3.2"/>
</g>
<!-- form_groups_encounter&#45;&gt;forms -->
<g id="edge8" class="edge">
<title>form_groups_encounter:w&#45;&gt;forms:e</title>
<path fill="none" stroke="#000000" d="M962.1889,-189.9538C925.9891,-194.5487 885.9521,-198.1234 849,-198.1234"/>
<polygon fill="#000000" stroke="#000000" points="971.4776,-184.7034 972.5163,-192.6357 970.9298,-192.8434 969.8911,-184.9111 971.4776,-184.7034"/>
<polyline fill="none" stroke="#000000" points="972.7902,-188.5657 968.824,-189.085 "/>
<ellipse fill="none" stroke="#000000" cx="965.6511" cy="-189.5005" rx="3.2" ry="3.2"/>
</g>
<!-- form_groups_encounter&#45;&gt;users -->
<g id="edge10" class="edge">
<title>form_groups_encounter:w&#45;&gt;users:e</title>
<path fill="none" stroke="#000000" d="M958.4427,-148.7164C756.4711,-119.6376 363.4996,-80.5316 258,-163.1234 203.6264,-205.6905 286.5539,-313.1234 217.5,-319.1234"/>
<polygon fill="#000000" stroke="#000000" points="965.0277,-149.6783 972.4233,-154.3969 968.9857,-150.2565 972.9437,-150.8347 972.9437,-150.8347 972.9437,-150.8347 968.9857,-150.2565 973.4641,-147.2725 965.0277,-149.6783 965.0277,-149.6783"/>
<ellipse fill="none" stroke="#000000" cx="961.8613" cy="-149.2157" rx="3.2" ry="3.2"/>
</g>
<!-- form_groups_encounter&#45;&gt;users -->
<g id="edge11" class="edge">
<title>form_groups_encounter:w&#45;&gt;users:e</title>
<path fill="none" stroke="#000000" d="M958.4427,-156.5864C756.4711,-132.6376 363.4996,-93.5316 258,-176.1234 203.6264,-218.6905 286.5539,-326.1234 217.5,-319.1234"/>
<polygon fill="#000000" stroke="#000000" points="965.0002,-157.3694 972.5168,-161.8927 968.9719,-157.8438 972.9437,-158.3181 972.9437,-158.3181 972.9437,-158.3181 968.9719,-157.8438 973.3706,-154.7435 965.0002,-157.3694 965.0002,-157.3694"/>
<ellipse fill="none" stroke="#000000" cx="961.8227" cy="-156.9899" rx="3.2" ry="3.2"/>
</g>
<!-- openemr_postcalendar_events -->
<g id="node6" class="node">
<title>openemr_postcalendar_events</title>
<g id="a_node6"><a xlink:href="../../tables/openemr_postcalendar_events.html" xlink:title="openemr_postcalendar_events" target="_top">
<polygon fill="#ffffff" stroke="transparent" points="688,-859.6234 688,-920.6234 932,-920.6234 932,-859.6234 688,-859.6234"/>
<polygon fill="#f5f5f5" stroke="transparent" points="688,-897.1234 688,-920.1234 932,-920.1234 932,-897.1234 688,-897.1234"/>
<polygon fill="none" stroke="#000000" points="688,-897.1234 688,-920.1234 932,-920.1234 932,-897.1234 688,-897.1234"/>
<text text-anchor="start" x="693" y="-905.7234" font-family="Helvetica,sans-Serif" font-weight="bold" font-size="11.00" fill="#000000">openemr_postcalendar_events</text>
<text text-anchor="start" x="897.5219" y="-905.2234" font-family="Helvetica,sans-Serif" font-size="11.00" fill="#000000">[table]</text>
<polygon fill="none" stroke="#000000" points="688,-878.1234 688,-897.1234 932,-897.1234 932,-878.1234 688,-878.1234"/>
<text text-anchor="start" x="691" y="-884.2234" font-family="Helvetica,sans-Serif" font-size="11.00" fill="#000000">...</text>
<polygon fill="#ffffff" stroke="transparent" points="688,-859.1234 688,-878.1234 807,-878.1234 807,-859.1234 688,-859.1234"/>
<polygon fill="none" stroke="#000000" points="688,-859.1234 688,-878.1234 807,-878.1234 807,-859.1234 688,-859.1234"/>
<text text-anchor="start" x="691" y="-865.2234" font-family="Helvetica,sans-Serif" font-size="11.00" fill="#000000">&lt; 10</text>
<polygon fill="#ffffff" stroke="transparent" points="807,-859.1234 807,-878.1234 865,-878.1234 865,-859.1234 807,-859.1234"/>
<polygon fill="none" stroke="#000000" points="807,-859.1234 807,-878.1234 865,-878.1234 865,-859.1234 807,-859.1234"/>
<text text-anchor="start" x="855.8862" y="-865.2234" font-family="Helvetica,sans-Serif" font-size="11.00" fill="#000000"> &#160;</text>
<polygon fill="#ffffff" stroke="transparent" points="865,-859.1234 865,-878.1234 932,-878.1234 932,-859.1234 865,-859.1234"/>
<polygon fill="none" stroke="#000000" points="865,-859.1234 865,-878.1234 932,-878.1234 932,-859.1234 865,-859.1234"/>
<text text-anchor="start" x="913.4053" y="-865.2234" font-family="Helvetica,sans-Serif" font-size="11.00" fill="#000000">2 &gt;</text>
</a>
</g>
</g>
<!-- form_groups_encounter&#45;&gt;openemr_postcalendar_events -->
<g id="edge5" class="edge">
<title>form_groups_encounter:w&#45;&gt;openemr_postcalendar_events:e</title>
<path fill="none" stroke="#000000" d="M1061.7741,-218.7257C1010.7184,-354.8744 867.1495,-737.7248 823.0497,-855.3241"/>
<polygon fill="#000000" stroke="#000000" points="1064.1683,-212.3411 1070.3481,-206.1145 1065.5728,-208.5958 1066.9773,-204.8505 1066.9773,-204.8505 1066.9773,-204.8505 1065.5728,-208.5958 1063.6066,-203.5864 1064.1683,-212.3411 1064.1683,-212.3411"/>
<ellipse fill="none" stroke="#000000" cx="1063.0447" cy="-215.3374" rx="3.2" ry="3.2"/>
</g>
<!-- facility -->
<g id="node7" class="node">
<title>facility</title>
<g id="a_node7"><a xlink:href="../../tables/facility.html" xlink:title="facility" target="_top">
<polygon fill="#ffffff" stroke="transparent" points="8,-291.6234 8,-352.6234 93,-352.6234 93,-291.6234 8,-291.6234"/>
<polygon fill="#f5f5f5" stroke="transparent" points="8.5,-329.1234 8.5,-352.1234 93.5,-352.1234 93.5,-329.1234 8.5,-329.1234"/>
<polygon fill="none" stroke="#000000" points="8.5,-329.1234 8.5,-352.1234 93.5,-352.1234 93.5,-329.1234 8.5,-329.1234"/>
<text text-anchor="start" x="13.5" y="-337.7234" font-family="Helvetica,sans-Serif" font-weight="bold" font-size="11.00" fill="#000000">facility</text>
<text text-anchor="start" x="59.0219" y="-337.2234" font-family="Helvetica,sans-Serif" font-size="11.00" fill="#000000">[table]</text>
<polygon fill="none" stroke="#000000" points="8.5,-310.1234 8.5,-329.1234 93.5,-329.1234 93.5,-310.1234 8.5,-310.1234"/>
<text text-anchor="start" x="11.5" y="-316.2234" font-family="Helvetica,sans-Serif" font-size="11.00" fill="#000000">...</text>
<polygon fill="#ffffff" stroke="transparent" points="8.5,-291.1234 8.5,-310.1234 40.5,-310.1234 40.5,-291.1234 8.5,-291.1234"/>
<polygon fill="none" stroke="#000000" points="8.5,-291.1234 8.5,-310.1234 40.5,-310.1234 40.5,-291.1234 8.5,-291.1234"/>
<text text-anchor="start" x="11.5" y="-297.2234" font-family="Helvetica,sans-Serif" font-size="11.00" fill="#000000"> &#160;</text>
<polygon fill="#ffffff" stroke="transparent" points="40.5,-291.1234 40.5,-310.1234 62.5,-310.1234 62.5,-291.1234 40.5,-291.1234"/>
<polygon fill="none" stroke="#000000" points="40.5,-291.1234 40.5,-310.1234 62.5,-310.1234 62.5,-291.1234 40.5,-291.1234"/>
<text text-anchor="start" x="53.3862" y="-297.2234" font-family="Helvetica,sans-Serif" font-size="11.00" fill="#000000"> &#160;</text>
<polygon fill="#ffffff" stroke="transparent" points="62.5,-291.1234 62.5,-310.1234 93.5,-310.1234 93.5,-291.1234 62.5,-291.1234"/>
<polygon fill="none" stroke="#000000" points="62.5,-291.1234 62.5,-310.1234 93.5,-310.1234 93.5,-291.1234 62.5,-291.1234"/>
<text text-anchor="start" x="74.9053" y="-297.2234" font-family="Helvetica,sans-Serif" font-size="11.00" fill="#000000">8 &gt;</text>
</a>
</g>
</g>
<!-- form_groups_encounter&#45;&gt;facility -->
<g id="edge6" class="edge">
<title>form_groups_encounter:w&#45;&gt;facility:e</title>
<path fill="none" stroke="#000000" d="M971.4558,-131.0333C807.9141,-78.9824 492.5296,-5.6548 258,-117.1234 244.9286,-123.336 107.9726,-319.1234 93.5,-319.1234"/>
<polygon fill="#000000" stroke="#000000" points="977.7499,-133.0662 984.2561,-138.9509 981.5563,-134.2957 985.3627,-135.5251 985.3627,-135.5251 985.3627,-135.5251 981.5563,-134.2957 986.4692,-132.0994 977.7499,-133.0662 977.7499,-133.0662"/>
<ellipse fill="none" stroke="#000000" cx="974.7048" cy="-132.0826" rx="3.2" ry="3.2"/>
</g>
<!-- openemr_postcalendar_categories -->
<g id="node8" class="node">
<title>openemr_postcalendar_categories</title>
<g id="a_node8"><a xlink:href="../../tables/openemr_postcalendar_categories.html" xlink:title="openemr_postcalendar_categories" target="_top">
<polygon fill="#ffffff" stroke="transparent" points="266,-374.1234 266,-860.1234 639,-860.1234 639,-374.1234 266,-374.1234"/>
<polygon fill="#f5f5f5" stroke="transparent" points="268.5,-835.1234 268.5,-858.1234 637.5,-858.1234 637.5,-835.1234 268.5,-835.1234"/>
<polygon fill="none" stroke="#000000" points="268.5,-835.1234 268.5,-858.1234 637.5,-858.1234 637.5,-835.1234 268.5,-835.1234"/>
<text text-anchor="start" x="273.5" y="-843.7234" font-family="Helvetica,sans-Serif" font-weight="bold" font-size="11.00" fill="#000000">openemr_postcalendar_categories</text>
<text text-anchor="start" x="602.5437" y="-843.2234" font-family="Helvetica,sans-Serif" font-size="11.00" fill="#000000">[table]</text>
<polygon fill="none" stroke="#000000" points="268.5,-813.1234 268.5,-835.1234 520.5,-835.1234 520.5,-813.1234 268.5,-813.1234"/>
<image xlink:href="../../images/primaryKeys.png" width="11px" height="12px" preserveAspectRatio="xMinYMin meet" x="273.5" y="-830.123"/>
<text text-anchor="start" x="288.5" y="-820.2234" font-family="Helvetica,sans-Serif" font-size="11.00" fill="#000000">pc_catid</text>
<polygon fill="none" stroke="#000000" points="520.5,-813.1234 520.5,-835.1234 637.5,-835.1234 637.5,-813.1234 520.5,-813.1234"/>
<text text-anchor="start" x="523.5" y="-820.8234" font-family="Helvetica,sans-Serif" font-size="11.00" fill="#000000">int unsigned[10]</text>
<polygon fill="#ffffff" stroke="transparent" points="268.5,-791.1234 268.5,-813.1234 520.5,-813.1234 520.5,-791.1234 268.5,-791.1234"/>
<polygon fill="none" stroke="#000000" points="268.5,-791.1234 268.5,-813.1234 520.5,-813.1234 520.5,-791.1234 268.5,-791.1234"/>
<text text-anchor="start" x="288.5" y="-798.2234" font-family="Helvetica,sans-Serif" font-size="11.00" fill="#000000">pc_catname</text>
<polygon fill="none" stroke="#000000" points="520.5,-791.1234 520.5,-813.1234 637.5,-813.1234 637.5,-791.1234 520.5,-791.1234"/>
<text text-anchor="start" x="523.5" y="-798.8234" font-family="Helvetica,sans-Serif" font-size="11.00" fill="#000000">varchar[100]</text>
<polygon fill="#ffffff" stroke="transparent" points="268.5,-769.1234 268.5,-791.1234 520.5,-791.1234 520.5,-769.1234 268.5,-769.1234"/>
<polygon fill="none" stroke="#000000" points="268.5,-769.1234 268.5,-791.1234 520.5,-791.1234 520.5,-769.1234 268.5,-769.1234"/>
<text text-anchor="start" x="288.5" y="-776.2234" font-family="Helvetica,sans-Serif" font-size="11.00" fill="#000000">pc_catcolor</text>
<polygon fill="none" stroke="#000000" points="520.5,-769.1234 520.5,-791.1234 637.5,-791.1234 637.5,-769.1234 520.5,-769.1234"/>
<text text-anchor="start" x="523.5" y="-776.8234" font-family="Helvetica,sans-Serif" font-size="11.00" fill="#000000">varchar[50]</text>
<polygon fill="none" stroke="#000000" points="268.5,-747.1234 268.5,-769.1234 520.5,-769.1234 520.5,-747.1234 268.5,-747.1234"/>
<text text-anchor="start" x="288.5" y="-754.2234" font-family="Helvetica,sans-Serif" font-size="11.00" fill="#000000">pc_catdesc</text>
<polygon fill="none" stroke="#000000" points="520.5,-747.1234 520.5,-769.1234 637.5,-769.1234 637.5,-747.1234 520.5,-747.1234"/>
<text text-anchor="start" x="523.0645" y="-754.8234" font-family="Helvetica,sans-Serif" font-size="11.00" fill="#000000">mediumtext[16777215]</text>
<polygon fill="none" stroke="#000000" points="268.5,-725.1234 268.5,-747.1234 520.5,-747.1234 520.5,-725.1234 268.5,-725.1234"/>
<text text-anchor="start" x="288.5" y="-732.2234" font-family="Helvetica,sans-Serif" font-size="11.00" fill="#000000">pc_recurrtype</text>
<polygon fill="none" stroke="#000000" points="520.5,-725.1234 520.5,-747.1234 637.5,-747.1234 637.5,-725.1234 520.5,-725.1234"/>
<text text-anchor="start" x="523.5" y="-732.8234" font-family="Helvetica,sans-Serif" font-size="11.00" fill="#000000">int[10]</text>
<polygon fill="none" stroke="#000000" points="268.5,-703.1234 268.5,-725.1234 520.5,-725.1234 520.5,-703.1234 268.5,-703.1234"/>
<text text-anchor="start" x="288.5" y="-710.2234" font-family="Helvetica,sans-Serif" font-size="11.00" fill="#000000">pc_enddate</text>
<polygon fill="none" stroke="#000000" points="520.5,-703.1234 520.5,-725.1234 637.5,-725.1234 637.5,-703.1234 520.5,-703.1234"/>
<text text-anchor="start" x="523.5" y="-710.8234" font-family="Helvetica,sans-Serif" font-size="11.00" fill="#000000">date[10]</text>
<polygon fill="none" stroke="#000000" points="268.5,-681.1234 268.5,-703.1234 520.5,-703.1234 520.5,-681.1234 268.5,-681.1234"/>
<text text-anchor="start" x="288.5" y="-688.2234" font-family="Helvetica,sans-Serif" font-size="11.00" fill="#000000">pc_recurrspec</text>
<polygon fill="none" stroke="#000000" points="520.5,-681.1234 520.5,-703.1234 637.5,-703.1234 637.5,-681.1234 520.5,-681.1234"/>
<text text-anchor="start" x="523.0645" y="-688.8234" font-family="Helvetica,sans-Serif" font-size="11.00" fill="#000000">mediumtext[16777215]</text>
<polygon fill="none" stroke="#000000" points="268.5,-659.1234 268.5,-681.1234 520.5,-681.1234 520.5,-659.1234 268.5,-659.1234"/>
<text text-anchor="start" x="288.5" y="-666.2234" font-family="Helvetica,sans-Serif" font-size="11.00" fill="#000000">pc_recurrfreq</text>
<polygon fill="none" stroke="#000000" points="520.5,-659.1234 520.5,-681.1234 637.5,-681.1234 637.5,-659.1234 520.5,-659.1234"/>
<text text-anchor="start" x="523.5" y="-666.8234" font-family="Helvetica,sans-Serif" font-size="11.00" fill="#000000">int[10]</text>
<polygon fill="none" stroke="#000000" points="268.5,-637.1234 268.5,-659.1234 520.5,-659.1234 520.5,-637.1234 268.5,-637.1234"/>
<text text-anchor="start" x="288.5" y="-644.2234" font-family="Helvetica,sans-Serif" font-size="11.00" fill="#000000">pc_duration</text>
<polygon fill="none" stroke="#000000" points="520.5,-637.1234 520.5,-659.1234 637.5,-659.1234 637.5,-637.1234 520.5,-637.1234"/>
<text text-anchor="start" x="523.5" y="-644.8234" font-family="Helvetica,sans-Serif" font-size="11.00" fill="#000000">bigint[19]</text>
<polygon fill="none" stroke="#000000" points="268.5,-615.1234 268.5,-637.1234 520.5,-637.1234 520.5,-615.1234 268.5,-615.1234"/>
<text text-anchor="start" x="288.5" y="-622.2234" font-family="Helvetica,sans-Serif" font-size="11.00" fill="#000000">pc_end_date_flag</text>
<polygon fill="none" stroke="#000000" points="520.5,-615.1234 520.5,-637.1234 637.5,-637.1234 637.5,-615.1234 520.5,-615.1234"/>
<text text-anchor="start" x="523.5" y="-622.8234" font-family="Helvetica,sans-Serif" font-size="11.00" fill="#000000">boolean[3]</text>
<polygon fill="none" stroke="#000000" points="268.5,-593.1234 268.5,-615.1234 520.5,-615.1234 520.5,-593.1234 268.5,-593.1234"/>
<text text-anchor="start" x="288.5" y="-600.2234" font-family="Helvetica,sans-Serif" font-size="11.00" fill="#000000">pc_end_date_type</text>
<polygon fill="none" stroke="#000000" points="520.5,-593.1234 520.5,-615.1234 637.5,-615.1234 637.5,-593.1234 520.5,-593.1234"/>
<text text-anchor="start" x="523.5" y="-600.8234" font-family="Helvetica,sans-Serif" font-size="11.00" fill="#000000">int[10]</text>
<polygon fill="none" stroke="#000000" points="268.5,-571.1234 268.5,-593.1234 520.5,-593.1234 520.5,-571.1234 268.5,-571.1234"/>
<text text-anchor="start" x="288.5" y="-578.2234" font-family="Helvetica,sans-Serif" font-size="11.00" fill="#000000">pc_end_date_freq</text>
<polygon fill="none" stroke="#000000" points="520.5,-571.1234 520.5,-593.1234 637.5,-593.1234 637.5,-571.1234 520.5,-571.1234"/>
<text text-anchor="start" x="523.5" y="-578.8234" font-family="Helvetica,sans-Serif" font-size="11.00" fill="#000000">int[10]</text>
<polygon fill="none" stroke="#000000" points="268.5,-549.1234 268.5,-571.1234 520.5,-571.1234 520.5,-549.1234 268.5,-549.1234"/>
<text text-anchor="start" x="288.5" y="-556.2234" font-family="Helvetica,sans-Serif" font-size="11.00" fill="#000000">pc_end_all_day</text>
<polygon fill="none" stroke="#000000" points="520.5,-549.1234 520.5,-571.1234 637.5,-571.1234 637.5,-549.1234 520.5,-549.1234"/>
<text text-anchor="start" x="523.5" y="-556.8234" font-family="Helvetica,sans-Serif" font-size="11.00" fill="#000000">boolean[3]</text>
<polygon fill="none" stroke="#000000" points="268.5,-527.1234 268.5,-549.1234 520.5,-549.1234 520.5,-527.1234 268.5,-527.1234"/>
<text text-anchor="start" x="288.5" y="-534.2234" font-family="Helvetica,sans-Serif" font-size="11.00" fill="#000000">pc_dailylimit</text>
<polygon fill="none" stroke="#000000" points="520.5,-527.1234 520.5,-549.1234 637.5,-549.1234 637.5,-527.1234 520.5,-527.1234"/>
<text text-anchor="start" x="523.5" y="-534.8234" font-family="Helvetica,sans-Serif" font-size="11.00" fill="#000000">int[10]</text>
<polygon fill="none" stroke="#000000" points="268.5,-505.1234 268.5,-527.1234 520.5,-527.1234 520.5,-505.1234 268.5,-505.1234"/>
<text text-anchor="start" x="288.5" y="-512.2234" font-family="Helvetica,sans-Serif" font-size="11.00" fill="#000000">pc_cattype</text>
<polygon fill="none" stroke="#000000" points="520.5,-505.1234 520.5,-527.1234 637.5,-527.1234 637.5,-505.1234 520.5,-505.1234"/>
<text text-anchor="start" x="523.5" y="-512.8234" font-family="Helvetica,sans-Serif" font-size="11.00" fill="#000000">int[10]</text>
<polygon fill="none" stroke="#000000" points="268.5,-483.1234 268.5,-505.1234 520.5,-505.1234 520.5,-483.1234 268.5,-483.1234"/>
<text text-anchor="start" x="288.5" y="-490.2234" font-family="Helvetica,sans-Serif" font-size="11.00" fill="#000000">pc_active</text>
<polygon fill="none" stroke="#000000" points="520.5,-483.1234 520.5,-505.1234 637.5,-505.1234 637.5,-483.1234 520.5,-483.1234"/>
<text text-anchor="start" x="523.5" y="-490.8234" font-family="Helvetica,sans-Serif" font-size="11.00" fill="#000000">boolean[3]</text>
<polygon fill="none" stroke="#000000" points="268.5,-461.1234 268.5,-483.1234 520.5,-483.1234 520.5,-461.1234 268.5,-461.1234"/>
<text text-anchor="start" x="288.5" y="-468.2234" font-family="Helvetica,sans-Serif" font-size="11.00" fill="#000000">pc_seq</text>
<polygon fill="none" stroke="#000000" points="520.5,-461.1234 520.5,-483.1234 637.5,-483.1234 637.5,-461.1234 520.5,-461.1234"/>
<text text-anchor="start" x="523.5" y="-468.8234" font-family="Helvetica,sans-Serif" font-size="11.00" fill="#000000">int[10]</text>
<polygon fill="none" stroke="#000000" points="268.5,-439.1234 268.5,-461.1234 520.5,-461.1234 520.5,-439.1234 268.5,-439.1234"/>
<text text-anchor="start" x="288.5" y="-446.2234" font-family="Helvetica,sans-Serif" font-size="11.00" fill="#000000">aco_spec</text>
<polygon fill="none" stroke="#000000" points="520.5,-439.1234 520.5,-461.1234 637.5,-461.1234 637.5,-439.1234 520.5,-439.1234"/>
<text text-anchor="start" x="523.5" y="-446.8234" font-family="Helvetica,sans-Serif" font-size="11.00" fill="#000000">varchar[63]</text>
<polygon fill="#ffffff" stroke="transparent" points="268.5,-417.1234 268.5,-439.1234 520.5,-439.1234 520.5,-417.1234 268.5,-417.1234"/>
<polygon fill="none" stroke="#000000" points="268.5,-417.1234 268.5,-439.1234 520.5,-439.1234 520.5,-417.1234 268.5,-417.1234"/>
<text text-anchor="start" x="288.5" y="-424.2234" font-family="Helvetica,sans-Serif" font-size="11.00" fill="#000000">pc_constant_id</text>
<polygon fill="none" stroke="#000000" points="520.5,-417.1234 520.5,-439.1234 637.5,-439.1234 637.5,-417.1234 520.5,-417.1234"/>
<text text-anchor="start" x="523.5" y="-424.8234" font-family="Helvetica,sans-Serif" font-size="11.00" fill="#000000">varchar[255]</text>
<polygon fill="none" stroke="#000000" points="268.5,-395.1234 268.5,-417.1234 520.5,-417.1234 520.5,-395.1234 268.5,-395.1234"/>
<text text-anchor="start" x="288.5" y="-402.2234" font-family="Helvetica,sans-Serif" font-size="11.00" fill="#000000">pc_last_updated</text>
<polygon fill="none" stroke="#000000" points="520.5,-395.1234 520.5,-417.1234 637.5,-417.1234 637.5,-395.1234 520.5,-395.1234"/>
<text text-anchor="start" x="523.5" y="-402.8234" font-family="Helvetica,sans-Serif" font-size="11.00" fill="#000000">datetime[19]</text>
<polygon fill="#ffffff" stroke="transparent" points="268.5,-376.1234 268.5,-395.1234 398.5,-395.1234 398.5,-376.1234 268.5,-376.1234"/>
<polygon fill="none" stroke="#000000" points="268.5,-376.1234 268.5,-395.1234 398.5,-395.1234 398.5,-376.1234 268.5,-376.1234"/>
<text text-anchor="start" x="271.5" y="-382.2234" font-family="Helvetica,sans-Serif" font-size="11.00" fill="#000000">&lt; 0</text>
<polygon fill="#ffffff" stroke="transparent" points="398.5,-376.1234 398.5,-395.1234 520.5,-395.1234 520.5,-376.1234 398.5,-376.1234"/>
<polygon fill="none" stroke="#000000" points="398.5,-376.1234 398.5,-395.1234 520.5,-395.1234 520.5,-376.1234 398.5,-376.1234"/>
<text text-anchor="start" x="511.3862" y="-382.2234" font-family="Helvetica,sans-Serif" font-size="11.00" fill="#000000"> &#160;</text>
<polygon fill="#ffffff" stroke="transparent" points="520.5,-376.1234 520.5,-395.1234 637.5,-395.1234 637.5,-376.1234 520.5,-376.1234"/>
<polygon fill="none" stroke="#000000" points="520.5,-376.1234 520.5,-395.1234 637.5,-395.1234 637.5,-376.1234 520.5,-376.1234"/>
<text text-anchor="start" x="618.9053" y="-382.2234" font-family="Helvetica,sans-Serif" font-size="11.00" fill="#000000">3 &gt;</text>
<polygon fill="none" stroke="#000000" stroke-width="2" points="267,-375.1234 267,-859.1234 638,-859.1234 638,-375.1234 267,-375.1234"/>
</a>
</g>
</g>
<!-- form_groups_encounter&#45;&gt;openemr_postcalendar_categories -->
<g id="edge9" class="edge">
<title>form_groups_encounter:w&#45;&gt;openemr_postcalendar_categories:e</title>
<path fill="none" stroke="#000000" d="M1071.4294,-219.4147C1041.8594,-371.6426 929.4138,-824.1234 637.5,-824.1234"/>
<polygon fill="#000000" stroke="#000000" points="1072.7012,-212.6844 1077.7241,-205.492 1073.4439,-208.7539 1074.1867,-204.8235 1074.1867,-204.8235 1074.1867,-204.8235 1073.4439,-208.7539 1070.6493,-204.155 1072.7012,-212.6844 1072.7012,-212.6844"/>
<ellipse fill="none" stroke="#000000" cx="1072.107" cy="-215.8287" rx="3.2" ry="3.2"/>
</g>
<!-- forms&#45;&gt;therapy_groups -->
<g id="edge14" class="edge">
<title>forms:w&#45;&gt;therapy_groups:e</title>
<path fill="none" stroke="#000000" d="M756.5586,-198.3524C657.6918,-201.5486 630.4356,-237.1234 524.5,-237.1234"/>
<polygon fill="#000000" stroke="#000000" points="763.001,-198.2503 771.0571,-201.7229 767.0005,-198.1868 771,-198.1234 771,-198.1234 771,-198.1234 767.0005,-198.1868 770.9429,-194.5238 763.001,-198.2503 763.001,-198.2503"/>
<ellipse fill="none" stroke="#000000" cx="759.8014" cy="-198.3011" rx="3.2" ry="3.2"/>
</g>
<!-- forms&#45;&gt;users -->
<g id="edge13" class="edge">
<title>forms:w&#45;&gt;users:e</title>
<path fill="none" stroke="#000000" d="M756.4071,-197.8207C632.8021,-193.0842 346.8363,-135.2149 258,-199.1234 212.3065,-231.9951 273.7889,-319.1234 217.5,-319.1234"/>
<polygon fill="#000000" stroke="#000000" points="763.0017,-197.9574 770.9253,-201.7226 767.0009,-198.0404 771,-198.1234 771,-198.1234 771,-198.1234 767.0009,-198.0404 771.0747,-194.5241 763.0017,-197.9574 763.0017,-197.9574"/>
<ellipse fill="none" stroke="#000000" cx="759.8024" cy="-197.891" rx="3.2" ry="3.2"/>
</g>
<!-- forms&#45;&gt;users -->
<g id="edge15" class="edge">
<title>forms:w&#45;&gt;users:e</title>
<path fill="none" stroke="#000000" d="M756.4069,-197.84C632.8043,-193.4071 346.9238,-139.3282 258,-203.1234 213.6298,-234.9552 272.1075,-319.1234 217.5,-319.1234"/>
<polygon fill="#000000" stroke="#000000" points="763.0015,-197.968 770.9301,-201.7227 767.0008,-198.0457 771,-198.1234 771,-198.1234 771,-198.1234 767.0008,-198.0457 771.0699,-194.524 763.0015,-197.968 763.0015,-197.968"/>
<ellipse fill="none" stroke="#000000" cx="759.8021" cy="-197.9058" rx="3.2" ry="3.2"/>
</g>
<!-- patient_data -->
<g id="node9" class="node">
<title>patient_data</title>
<g id="a_node9"><a xlink:href="../../tables/patient_data.html" xlink:title="patient_data" target="_top">
<polygon fill="#ffffff" stroke="transparent" points="390.5,-291.6234 390.5,-352.6234 514.5,-352.6234 514.5,-291.6234 390.5,-291.6234"/>
<polygon fill="#f5f5f5" stroke="transparent" points="390.5,-329.1234 390.5,-352.1234 514.5,-352.1234 514.5,-329.1234 390.5,-329.1234"/>
<polygon fill="none" stroke="#000000" points="390.5,-329.1234 390.5,-352.1234 514.5,-352.1234 514.5,-329.1234 390.5,-329.1234"/>
<text text-anchor="start" x="395.5" y="-337.7234" font-family="Helvetica,sans-Serif" font-weight="bold" font-size="11.00" fill="#000000">patient_data</text>
<text text-anchor="start" x="480.0219" y="-337.2234" font-family="Helvetica,sans-Serif" font-size="11.00" fill="#000000">[table]</text>
<polygon fill="none" stroke="#000000" points="390.5,-310.1234 390.5,-329.1234 514.5,-329.1234 514.5,-310.1234 390.5,-310.1234"/>
<text text-anchor="start" x="393.5" y="-316.2234" font-family="Helvetica,sans-Serif" font-size="11.00" fill="#000000">...</text>
<polygon fill="#ffffff" stroke="transparent" points="390.5,-291.1234 390.5,-310.1234 443.5,-310.1234 443.5,-291.1234 390.5,-291.1234"/>
<polygon fill="none" stroke="#000000" points="390.5,-291.1234 390.5,-310.1234 443.5,-310.1234 443.5,-291.1234 390.5,-291.1234"/>
<text text-anchor="start" x="393.5" y="-297.2234" font-family="Helvetica,sans-Serif" font-size="11.00" fill="#000000">&lt; 5</text>
<polygon fill="#ffffff" stroke="transparent" points="443.5,-291.1234 443.5,-310.1234 471.5,-310.1234 471.5,-291.1234 443.5,-291.1234"/>
<polygon fill="none" stroke="#000000" points="443.5,-291.1234 443.5,-310.1234 471.5,-310.1234 471.5,-291.1234 443.5,-291.1234"/>
<text text-anchor="start" x="462.3862" y="-297.2234" font-family="Helvetica,sans-Serif" font-size="11.00" fill="#000000"> &#160;</text>
<polygon fill="#ffffff" stroke="transparent" points="471.5,-291.1234 471.5,-310.1234 514.5,-310.1234 514.5,-291.1234 471.5,-291.1234"/>
<polygon fill="none" stroke="#000000" points="471.5,-291.1234 471.5,-310.1234 514.5,-310.1234 514.5,-291.1234 471.5,-291.1234"/>
<text text-anchor="start" x="489.7904" y="-297.2234" font-family="Helvetica,sans-Serif" font-size="11.00" fill="#000000">85 &gt;</text>
</a>
</g>
</g>
<!-- forms&#45;&gt;patient_data -->
<g id="edge12" class="edge">
<title>forms:w&#45;&gt;patient_data:e</title>
<path fill="none" stroke="#000000" d="M756.3241,-199.1407C704.6765,-206.7704 702.3363,-255.4377 647,-281.1234 591.4317,-306.9168 575.7628,-319.1234 514.5,-319.1234"/>
<polygon fill="#000000" stroke="#000000" points="763.0192,-198.6767 771.249,-201.7148 767.0096,-198.4 771,-198.1234 771,-198.1234 771,-198.1234 767.0096,-198.4 770.751,-194.532 763.0192,-198.6767 763.0192,-198.6767"/>
<ellipse fill="none" stroke="#000000" cx="759.8268" cy="-198.898" rx="3.2" ry="3.2"/>
</g>
<!-- users&#45;&gt;facility -->
<g id="edge33" class="edge">
<title>users:w&#45;&gt;facility:e</title>
<path fill="none" stroke="#000000" d="M128.3534,-315.6792C116.8293,-313.5222 109.6632,-314.6702 93.5,-319.1234"/>
<polygon fill="#000000" stroke="#000000" points="134.7271,-317.2309 141.6484,-322.6212 138.6135,-318.1771 142.5,-319.1234 142.5,-319.1234 142.5,-319.1234 138.6135,-318.1771 143.3516,-315.6255 134.7271,-317.2309 134.7271,-317.2309"/>
<ellipse fill="none" stroke="#000000" cx="131.6179" cy="-316.4739" rx="3.2" ry="3.2"/>
</g>
<!-- users&#45;&gt;facility -->
<g id="edge34" class="edge">
<title>users:w&#45;&gt;facility:e</title>
<path fill="none" stroke="#000000" d="M128.3534,-323.1416C116.8293,-325.6581 109.6632,-324.3187 93.5,-319.1234"/>
<polygon fill="#000000" stroke="#000000" points="134.8044,-321.3093 143.4837,-322.5864 138.6522,-320.2163 142.5,-319.1234 142.5,-319.1234 142.5,-319.1234 138.6522,-320.2163 141.5163,-315.6604 134.8044,-321.3093 134.8044,-321.3093"/>
<ellipse fill="none" stroke="#000000" cx="131.7262" cy="-322.1837" rx="3.2" ry="3.2"/>
</g>
<!-- openemr_postcalendar_events&#45;&gt;therapy_groups -->
<g id="edge21" class="edge">
<title>openemr_postcalendar_events:w&#45;&gt;therapy_groups:e</title>
<path fill="none" stroke="#000000" d="M802.8155,-840.9905C782.9636,-711.3908 723.7162,-364.5127 647,-281.1234 607.8329,-238.5493 582.35,-237.1234 524.5,-237.1234"/>
<polygon fill="#000000" stroke="#000000" points="803.7894,-847.423 801.4275,-855.8718 804.3881,-851.378 804.9869,-855.3329 804.9869,-855.3329 804.9869,-855.3329 804.3881,-851.378 808.5464,-854.794 803.7894,-847.423 803.7894,-847.423"/>
<ellipse fill="none" stroke="#000000" cx="803.3103" cy="-844.2591" rx="3.2" ry="3.2"/>
</g>
<!-- openemr_postcalendar_events&#45;&gt;users -->
<g id="edge16" class="edge">
<title>openemr_postcalendar_events:w&#45;&gt;users:e</title>
<path fill="none" stroke="#000000" d="M665.3271,-890.577C511.6249,-892.5081 286.7669,-892.7944 258,-865.1234 213.6781,-822.49 278.9982,-313.1234 217.5,-319.1234"/>
<polygon fill="#000000" stroke="#000000" points="671.9711,-890.4903 680.0174,-893.9856 675.9707,-890.4381 679.9704,-890.3859 679.9704,-890.3859 679.9704,-890.3859 675.9707,-890.4381 679.9234,-886.7862 671.9711,-890.4903 671.9711,-890.4903"/>
<ellipse fill="none" stroke="#000000" cx="668.7714" cy="-890.5321" rx="3.2" ry="3.2"/>
</g>
<!-- openemr_postcalendar_events&#45;&gt;users -->
<g id="edge22" class="edge">
<title>openemr_postcalendar_events:w&#45;&gt;users:e</title>
<path fill="none" stroke="#000000" d="M665.3271,-900.0002C511.6249,-905.5081 286.7669,-905.7944 258,-878.1234 213.6781,-835.49 278.9982,-326.1234 217.5,-319.1234"/>
<polygon fill="#000000" stroke="#000000" points="671.976,-899.7512 680.1052,-903.0491 675.9732,-899.6014 679.9704,-899.4516 679.9704,-899.4516 679.9704,-899.4516 675.9732,-899.6014 679.8356,-895.8542 671.976,-899.7512 671.976,-899.7512"/>
<ellipse fill="none" stroke="#000000" cx="668.7782" cy="-899.871" rx="3.2" ry="3.2"/>
</g>
<!-- openemr_postcalendar_events&#45;&gt;facility -->
<g id="edge18" class="edge">
<title>openemr_postcalendar_events:w&#45;&gt;facility:e</title>
<path fill="none" stroke="#000000" d="M750.4199,-933.2778C721.1374,-953.5166 684.2002,-975.4434 647,-986.1234 480.8239,-1033.8316 393.9921,-1092.8787 258,-986.1234 197.4492,-938.5903 170.4792,-313.1234 93.5,-319.1234"/>
<polygon fill="#000000" stroke="#000000" points="755.9488,-929.3658 764.5587,-927.6838 759.2141,-927.0554 762.4794,-924.745 762.4794,-924.745 762.4794,-924.745 759.2141,-927.0554 760.4,-921.8063 755.9488,-929.3658 755.9488,-929.3658"/>
<ellipse fill="none" stroke="#000000" cx="753.3366" cy="-931.2141" rx="3.2" ry="3.2"/>
</g>
<!-- openemr_postcalendar_events&#45;&gt;facility -->
<g id="edge20" class="edge">
<title>openemr_postcalendar_events:w&#45;&gt;facility:e</title>
<path fill="none" stroke="#000000" d="M764.9717,-933.9803C733.984,-958.5453 690.6733,-986.585 647,-999.1234 480.8239,-1046.8316 393.9921,-1105.8787 258,-999.1234 197.4492,-951.5903 170.4792,-326.1234 93.5,-319.1234"/>
<polygon fill="#000000" stroke="#000000" points="770.0287,-929.8418 778.4998,-927.5612 773.1242,-927.3085 776.2198,-924.7752 776.2198,-924.7752 776.2198,-924.7752 773.1242,-927.3085 773.9398,-921.9892 770.0287,-929.8418 770.0287,-929.8418"/>
<ellipse fill="none" stroke="#000000" cx="767.5522" cy="-931.8684" rx="3.2" ry="3.2"/>
</g>
<!-- openemr_postcalendar_events&#45;&gt;openemr_postcalendar_categories -->
<g id="edge19" class="edge">
<title>openemr_postcalendar_events:w&#45;&gt;openemr_postcalendar_categories:e</title>
<path fill="none" stroke="#000000" d="M747.1008,-849.0048C715.3204,-834.0093 675.5172,-821.3446 637.5,-824.1234"/>
<polygon fill="#000000" stroke="#000000" points="753.0416,-851.9665 758.595,-858.7577 756.6214,-853.7512 760.2012,-855.5359 760.2012,-855.5359 760.2012,-855.5359 756.6214,-853.7512 761.8075,-852.3141 753.0416,-851.9665 753.0416,-851.9665"/>
<ellipse fill="none" stroke="#000000" cx="750.1778" cy="-850.5388" rx="3.2" ry="3.2"/>
</g>
<!-- openemr_postcalendar_events&#45;&gt;openemr_postcalendar_categories -->
<g id="edge24" class="edge">
<title>openemr_postcalendar_events:w&#45;&gt;openemr_postcalendar_categories:e</title>
<path fill="none" stroke="#000000" d="M727.2454,-849.5305C699.5444,-837.4348 667.9493,-826.72 637.5,-824.1234"/>
<polygon fill="#000000" stroke="#000000" points="733.2243,-852.2438 739.0215,-858.828 736.8667,-853.8968 740.5092,-855.5498 740.5092,-855.5498 740.5092,-855.5498 736.8667,-853.8968 741.9969,-852.2716 733.2243,-852.2438 733.2243,-852.2438"/>
<ellipse fill="none" stroke="#000000" cx="730.3103" cy="-850.9214" rx="3.2" ry="3.2"/>
</g>
<!-- openemr_postcalendar_events&#45;&gt;patient_data -->
<g id="edge23" class="edge">
<title>openemr_postcalendar_events:w&#45;&gt;patient_data:e</title>
<path fill="none" stroke="#000000" d="M784.1323,-842.7085C754.272,-785.8283 705.9504,-686.7741 680,-596.1234 651.3368,-495.9963 713.4829,-444.2922 647,-364.1234 607.2998,-316.2506 576.6925,-319.1234 514.5,-319.1234"/>
<polygon fill="#000000" stroke="#000000" points="787.191,-848.4805 787.7559,-857.235 789.0639,-852.015 790.9369,-855.5494 790.9369,-855.5494 790.9369,-855.5494 789.0639,-852.015 794.1179,-853.8637 787.191,-848.4805 787.191,-848.4805"/>
<ellipse fill="none" stroke="#000000" cx="785.6926" cy="-845.653" rx="3.2" ry="3.2"/>
</g>
<!-- list_options -->
<g id="node10" class="node">
<title>list_options</title>
<g id="a_node10"><a xlink:href="../../tables/list_options.html" xlink:title="list_options" target="_top">
<polygon fill="#ffffff" stroke="transparent" points="394.5,-920.6234 394.5,-981.6234 510.5,-981.6234 510.5,-920.6234 394.5,-920.6234"/>
<polygon fill="#f5f5f5" stroke="transparent" points="394.5,-958.1234 394.5,-981.1234 510.5,-981.1234 510.5,-958.1234 394.5,-958.1234"/>
<polygon fill="none" stroke="#000000" points="394.5,-958.1234 394.5,-981.1234 510.5,-981.1234 510.5,-958.1234 394.5,-958.1234"/>
<text text-anchor="start" x="399.5" y="-966.7234" font-family="Helvetica,sans-Serif" font-weight="bold" font-size="11.00" fill="#000000">list_options</text>
<text text-anchor="start" x="476.0219" y="-966.2234" font-family="Helvetica,sans-Serif" font-size="11.00" fill="#000000">[table]</text>
<polygon fill="none" stroke="#000000" points="394.5,-939.1234 394.5,-958.1234 510.5,-958.1234 510.5,-939.1234 394.5,-939.1234"/>
<text text-anchor="start" x="397.5" y="-945.2234" font-family="Helvetica,sans-Serif" font-size="11.00" fill="#000000">...</text>
<polygon fill="#ffffff" stroke="transparent" points="394.5,-920.1234 394.5,-939.1234 438.5,-939.1234 438.5,-920.1234 394.5,-920.1234"/>
<polygon fill="none" stroke="#000000" points="394.5,-920.1234 394.5,-939.1234 438.5,-939.1234 438.5,-920.1234 394.5,-920.1234"/>
<text text-anchor="start" x="397.5" y="-926.2234" font-family="Helvetica,sans-Serif" font-size="11.00" fill="#000000"> &#160;</text>
<polygon fill="#ffffff" stroke="transparent" points="438.5,-920.1234 438.5,-939.1234 466.5,-939.1234 466.5,-920.1234 438.5,-920.1234"/>
<polygon fill="none" stroke="#000000" points="438.5,-920.1234 438.5,-939.1234 466.5,-939.1234 466.5,-920.1234 438.5,-920.1234"/>
<text text-anchor="start" x="457.3862" y="-926.2234" font-family="Helvetica,sans-Serif" font-size="11.00" fill="#000000"> &#160;</text>
<polygon fill="#ffffff" stroke="transparent" points="466.5,-920.1234 466.5,-939.1234 510.5,-939.1234 510.5,-920.1234 466.5,-920.1234"/>
<polygon fill="none" stroke="#000000" points="466.5,-920.1234 466.5,-939.1234 510.5,-939.1234 510.5,-920.1234 466.5,-920.1234"/>
<text text-anchor="start" x="485.7904" y="-926.2234" font-family="Helvetica,sans-Serif" font-size="11.00" fill="#000000">46 &gt;</text>
</a>
</g>
</g>
<!-- openemr_postcalendar_events&#45;&gt;list_options -->
<g id="edge17" class="edge">
<title>openemr_postcalendar_events:w&#45;&gt;list_options:e</title>
<path fill="none" stroke="#000000" d="M665.571,-925.3928C616.7167,-936.2158 561.5965,-945.8622 510.5,-948.1234"/>
<polygon fill="#000000" stroke="#000000" points="672.0432,-923.9267 680.6408,-925.6703 675.9443,-923.043 679.8455,-922.1592 679.8455,-922.1592 679.8455,-922.1592 675.9443,-923.043 679.0501,-918.6482 672.0432,-923.9267 672.0432,-923.9267"/>
<ellipse fill="none" stroke="#000000" cx="668.9222" cy="-924.6337" rx="3.2" ry="3.2"/>
</g>
<!-- openemr_postcalendar_events&#45;&gt;list_options -->
<g id="edge25" class="edge">
<title>openemr_postcalendar_events:w&#45;&gt;list_options:e</title>
<path fill="none" stroke="#000000" d="M695.8849,-928.0438C640.4199,-940.9341 572.498,-951.3242 510.5,-948.1234"/>
<polygon fill="#000000" stroke="#000000" points="702.2963,-926.5005 710.9166,-928.1281 706.1852,-925.5643 710.0741,-924.6281 710.0741,-924.6281 710.0741,-924.6281 706.1852,-925.5643 709.2315,-921.1281 702.2963,-926.5005 702.2963,-926.5005"/>
<ellipse fill="none" stroke="#000000" cx="699.1851" cy="-927.2494" rx="3.2" ry="3.2"/>
</g>
<!-- patient_data&#45;&gt;users -->
<g id="edge26" class="edge">
<title>patient_data:w&#45;&gt;users:e</title>
<path fill="none" stroke="#000000" d="M376.3206,-315.6863C310.8937,-300.2023 289.4332,-301.348 217.5,-319.1234"/>
<polygon fill="#000000" stroke="#000000" points="382.7251,-317.2387 389.6519,-322.6221 386.6126,-318.1811 390.5,-319.1234 390.5,-319.1234 390.5,-319.1234 386.6126,-318.1811 391.3481,-315.6247 382.7251,-317.2387 382.7251,-317.2387"/>
<ellipse fill="none" stroke="#000000" cx="379.6152" cy="-316.4849" rx="3.2" ry="3.2"/>
</g>
<!-- patient_data&#45;&gt;users -->
<g id="edge27" class="edge">
<title>patient_data:w&#45;&gt;users:e</title>
<path fill="none" stroke="#000000" d="M375.9114,-318.0074C310.8039,-313.1498 289.283,-313.5218 217.5,-319.1234"/>
<polygon fill="#000000" stroke="#000000" points="382.5233,-318.5132 390.2254,-322.7129 386.5117,-318.8183 390.5,-319.1234 390.5,-319.1234 390.5,-319.1234 386.5117,-318.8183 390.7746,-315.5339 382.5233,-318.5132 382.5233,-318.5132"/>
<ellipse fill="none" stroke="#000000" cx="379.3326" cy="-318.2691" rx="3.2" ry="3.2"/>
</g>
<!-- patient_data&#45;&gt;users -->
<g id="edge28" class="edge">
<title>patient_data:w&#45;&gt;users:e</title>
<path fill="none" stroke="#000000" d="M375.9114,-320.4253C310.8039,-326.0925 289.283,-325.6585 217.5,-319.1234"/>
<polygon fill="#000000" stroke="#000000" points="382.5317,-319.8345 390.82,-322.7091 386.5158,-319.479 390.5,-319.1234 390.5,-319.1234 390.5,-319.1234 386.5158,-319.479 390.18,-315.5376 382.5317,-319.8345 382.5317,-319.8345"/>
<ellipse fill="none" stroke="#000000" cx="379.3443" cy="-320.119" rx="3.2" ry="3.2"/>
</g>
<!-- patient_data&#45;&gt;users -->
<g id="edge29" class="edge">
<title>patient_data:w&#45;&gt;users:e</title>
<path fill="none" stroke="#000000" d="M376.3206,-322.7413C310.8937,-339.0403 289.4332,-337.8343 217.5,-319.1234"/>
<polygon fill="#000000" stroke="#000000" points="382.7484,-321.1013 391.3901,-322.6116 386.6242,-320.1123 390.5,-319.1234 390.5,-319.1234 390.5,-319.1234 386.6242,-320.1123 389.6099,-315.6351 382.7484,-321.1013 382.7484,-321.1013"/>
<ellipse fill="none" stroke="#000000" cx="379.6477" cy="-321.8924" rx="3.2" ry="3.2"/>
</g>
<!-- patient_tracker -->
<g id="node11" class="node">
<title>patient_tracker</title>
<g id="a_node11"><a xlink:href="../../tables/patient_tracker.html" xlink:title="patient_tracker" target="_top">
<polygon fill="#ffffff" stroke="transparent" points="1009,-862.6234 1009,-923.6234 1151,-923.6234 1151,-862.6234 1009,-862.6234"/>
<polygon fill="#f5f5f5" stroke="transparent" points="1009,-900.1234 1009,-923.1234 1151,-923.1234 1151,-900.1234 1009,-900.1234"/>
<polygon fill="none" stroke="#000000" points="1009,-900.1234 1009,-923.1234 1151,-923.1234 1151,-900.1234 1009,-900.1234"/>
<text text-anchor="start" x="1014" y="-908.7234" font-family="Helvetica,sans-Serif" font-weight="bold" font-size="11.00" fill="#000000">patient_tracker</text>
<text text-anchor="start" x="1116.5219" y="-908.2234" font-family="Helvetica,sans-Serif" font-size="11.00" fill="#000000">[table]</text>
<polygon fill="none" stroke="#000000" points="1009,-881.1234 1009,-900.1234 1151,-900.1234 1151,-881.1234 1009,-881.1234"/>
<text text-anchor="start" x="1012" y="-887.2234" font-family="Helvetica,sans-Serif" font-size="11.00" fill="#000000">...</text>
<polygon fill="#ffffff" stroke="transparent" points="1009,-862.1234 1009,-881.1234 1074,-881.1234 1074,-862.1234 1009,-862.1234"/>
<polygon fill="none" stroke="#000000" points="1009,-862.1234 1009,-881.1234 1074,-881.1234 1074,-862.1234 1009,-862.1234"/>
<text text-anchor="start" x="1012" y="-868.2234" font-family="Helvetica,sans-Serif" font-size="11.00" fill="#000000">&lt; 4</text>
<polygon fill="#ffffff" stroke="transparent" points="1074,-862.1234 1074,-881.1234 1108,-881.1234 1108,-862.1234 1074,-862.1234"/>
<polygon fill="none" stroke="#000000" points="1074,-862.1234 1074,-881.1234 1108,-881.1234 1108,-862.1234 1074,-862.1234"/>
<text text-anchor="start" x="1098.8862" y="-868.2234" font-family="Helvetica,sans-Serif" font-size="11.00" fill="#000000"> &#160;</text>
<polygon fill="#ffffff" stroke="transparent" points="1108,-862.1234 1108,-881.1234 1151,-881.1234 1151,-862.1234 1108,-862.1234"/>
<polygon fill="none" stroke="#000000" points="1108,-862.1234 1108,-881.1234 1151,-881.1234 1151,-862.1234 1108,-862.1234"/>
<text text-anchor="start" x="1132.4053" y="-868.2234" font-family="Helvetica,sans-Serif" font-size="11.00" fill="#000000">1 &gt;</text>
</a>
</g>
</g>
<!-- patient_tracker&#45;&gt;users -->
<g id="edge31" class="edge">
<title>patient_tracker:w&#45;&gt;users:e</title>
<path fill="none" stroke="#000000" d="M994.6233,-892.0149C972.4935,-898.5275 968.0538,-920.2197 940,-931.1234 656.3505,-1041.3699 479.5564,-1200.7477 258,-992.1234 203.4607,-940.7675 292.4131,-319.1234 217.5,-319.1234"/>
<polygon fill="#000000" stroke="#000000" points="1001.0684,-891.167 1009.4696,-893.6926 1005.0342,-890.6452 1009,-890.1234 1009,-890.1234 1009,-890.1234 1005.0342,-890.6452 1008.5304,-886.5541 1001.0684,-891.167 1001.0684,-891.167"/>
<ellipse fill="none" stroke="#000000" cx="997.8957" cy="-891.5844" rx="3.2" ry="3.2"/>
</g>
<!-- patient_tracker&#45;&gt;openemr_postcalendar_events -->
<g id="edge30" class="edge">
<title>patient_tracker:w&#45;&gt;openemr_postcalendar_events:e</title>
<path fill="none" stroke="#000000" d="M994.464,-890.1234C976.5711,-890.1234 958.0939,-890.1234 940.0595,-890.1234"/>
<polygon fill="#000000" stroke="#000000" points="1001,-890.1234 1009,-893.7234 1005,-890.1234 1009,-890.1234 1009,-890.1234 1009,-890.1234 1005,-890.1234 1009,-886.5234 1001,-890.1234 1001,-890.1234"/>
<ellipse fill="none" stroke="#000000" cx="997.8" cy="-890.1234" rx="3.2" ry="3.2"/>
</g>
<!-- patient_tracker&#45;&gt;patient_data -->
<g id="edge32" class="edge">
<title>patient_tracker:w&#45;&gt;patient_data:e</title>
<path fill="none" stroke="#000000" d="M995.1733,-885.4878C911.6234,-835.9049 700.3185,-404.4642 647,-364.1234 597.4036,-326.5987 576.6925,-319.1234 514.5,-319.1234"/>
<polygon fill="#000000" stroke="#000000" points="1001.4149,-887.5804 1007.8556,-893.5367 1005.2075,-888.8519 1009,-890.1234 1009,-890.1234 1009,-890.1234 1005.2075,-888.8519 1010.1444,-886.7101 1001.4149,-887.5804 1001.4149,-887.5804"/>
<ellipse fill="none" stroke="#000000" cx="998.3809" cy="-886.5631" rx="3.2" ry="3.2"/>
</g>
</g>
</svg>
