<?xml version="1.0" encoding="UTF-8" standalone="no"?>
<!DOCTYPE svg PUBLIC "-//W3C//DTD SVG 1.1//EN"
 "http://www.w3.org/Graphics/SVG/1.1/DTD/svg11.dtd">
<!-- Generated by graphviz version 2.40.1 (20161225.0304)
 -->
<!-- Title: twoDegreesRelationshipsDiagram Pages: 1 -->
<svg width="1409pt" height="1162pt"
 viewBox="0.00 0.00 1409.00 1161.90" xmlns="http://www.w3.org/2000/svg" xmlns:xlink="http://www.w3.org/1999/xlink">
<g id="graph0" class="graph" transform="scale(1 1) rotate(0) translate(4 1157.9049)">
<title>twoDegreesRelationshipsDiagram</title>
<polygon fill="#ffffff" stroke="transparent" points="-4,4 -4,-1157.9049 1405,-1157.9049 1405,4 -4,4"/>
<text text-anchor="middle" x="72.4936" y="-7.3" font-family="Helvetica,sans-Serif" font-size="11.00" fill="#000000">Generated by SchemaSpy</text>
<!-- form_group_attendance -->
<g id="node1" class="node">
<title>form_group_attendance</title>
<g id="a_node1"><a xlink:href="../../tables/form_group_attendance.html" xlink:title="form_group_attendance" target="_top">
<polygon fill="#ffffff" stroke="transparent" points="1194,-885.5447 1194,-946.5447 1393,-946.5447 1393,-885.5447 1194,-885.5447"/>
<polygon fill="#f5f5f5" stroke="transparent" points="1194.5,-923.0447 1194.5,-946.0447 1393.5,-946.0447 1393.5,-923.0447 1194.5,-923.0447"/>
<polygon fill="none" stroke="#000000" points="1194.5,-923.0447 1194.5,-946.0447 1393.5,-946.0447 1393.5,-923.0447 1194.5,-923.0447"/>
<text text-anchor="start" x="1199.5" y="-931.6447" font-family="Helvetica,sans-Serif" font-weight="bold" font-size="11.00" fill="#000000">form_group_attendance</text>
<text text-anchor="start" x="1359.0219" y="-931.1447" font-family="Helvetica,sans-Serif" font-size="11.00" fill="#000000">[table]</text>
<polygon fill="none" stroke="#000000" points="1194.5,-904.0447 1194.5,-923.0447 1393.5,-923.0447 1393.5,-904.0447 1194.5,-904.0447"/>
<text text-anchor="start" x="1197.5" y="-910.1447" font-family="Helvetica,sans-Serif" font-size="11.00" fill="#000000">...</text>
<polygon fill="#ffffff" stroke="transparent" points="1194.5,-885.0447 1194.5,-904.0447 1287.5,-904.0447 1287.5,-885.0447 1194.5,-885.0447"/>
<polygon fill="none" stroke="#000000" points="1194.5,-885.0447 1194.5,-904.0447 1287.5,-904.0447 1287.5,-885.0447 1194.5,-885.0447"/>
<text text-anchor="start" x="1197.5" y="-891.1447" font-family="Helvetica,sans-Serif" font-size="11.00" fill="#000000">&lt; 5</text>
<polygon fill="#ffffff" stroke="transparent" points="1287.5,-885.0447 1287.5,-904.0447 1335.5,-904.0447 1335.5,-885.0447 1287.5,-885.0447"/>
<polygon fill="none" stroke="#000000" points="1287.5,-885.0447 1287.5,-904.0447 1335.5,-904.0447 1335.5,-885.0447 1287.5,-885.0447"/>
<text text-anchor="start" x="1326.3862" y="-891.1447" font-family="Helvetica,sans-Serif" font-size="11.00" fill="#000000"> &#160;</text>
<polygon fill="#ffffff" stroke="transparent" points="1335.5,-885.0447 1335.5,-904.0447 1393.5,-904.0447 1393.5,-885.0447 1335.5,-885.0447"/>
<polygon fill="none" stroke="#000000" points="1335.5,-885.0447 1335.5,-904.0447 1393.5,-904.0447 1393.5,-885.0447 1335.5,-885.0447"/>
<text text-anchor="start" x="1374.9053" y="-891.1447" font-family="Helvetica,sans-Serif" font-size="11.00" fill="#000000">1 &gt;</text>
</a>
</g>
</g>
<!-- form_groups_encounter -->
<g id="node2" class="node">
<title>form_groups_encounter</title>
<g id="a_node2"><a xlink:href="../../tables/form_groups_encounter.html" xlink:title="form_groups_encounter" target="_top">
<polygon fill="#ffffff" stroke="transparent" points="947,-937.5447 947,-998.5447 1145,-998.5447 1145,-937.5447 947,-937.5447"/>
<polygon fill="#f5f5f5" stroke="transparent" points="947,-975.0447 947,-998.0447 1145,-998.0447 1145,-975.0447 947,-975.0447"/>
<polygon fill="none" stroke="#000000" points="947,-975.0447 947,-998.0447 1145,-998.0447 1145,-975.0447 947,-975.0447"/>
<text text-anchor="start" x="952" y="-983.6447" font-family="Helvetica,sans-Serif" font-weight="bold" font-size="11.00" fill="#000000">form_groups_encounter</text>
<text text-anchor="start" x="1110.5219" y="-983.1447" font-family="Helvetica,sans-Serif" font-size="11.00" fill="#000000">[table]</text>
<polygon fill="none" stroke="#000000" points="947,-956.0447 947,-975.0447 1145,-975.0447 1145,-956.0447 947,-956.0447"/>
<text text-anchor="start" x="950" y="-962.1447" font-family="Helvetica,sans-Serif" font-size="11.00" fill="#000000">...</text>
<polygon fill="#ffffff" stroke="transparent" points="947,-937.0447 947,-956.0447 1040,-956.0447 1040,-937.0447 947,-937.0447"/>
<polygon fill="none" stroke="#000000" points="947,-937.0447 947,-956.0447 1040,-956.0447 1040,-937.0447 947,-937.0447"/>
<text text-anchor="start" x="950" y="-943.1447" font-family="Helvetica,sans-Serif" font-size="11.00" fill="#000000">&lt; 7</text>
<polygon fill="#ffffff" stroke="transparent" points="1040,-937.0447 1040,-956.0447 1088,-956.0447 1088,-937.0447 1040,-937.0447"/>
<polygon fill="none" stroke="#000000" points="1040,-937.0447 1040,-956.0447 1088,-956.0447 1088,-937.0447 1040,-937.0447"/>
<text text-anchor="start" x="1078.8862" y="-943.1447" font-family="Helvetica,sans-Serif" font-size="11.00" fill="#000000"> &#160;</text>
<polygon fill="#ffffff" stroke="transparent" points="1088,-937.0447 1088,-956.0447 1145,-956.0447 1145,-937.0447 1088,-937.0447"/>
<polygon fill="none" stroke="#000000" points="1088,-937.0447 1088,-956.0447 1145,-956.0447 1145,-937.0447 1088,-937.0447"/>
<text text-anchor="start" x="1126.4053" y="-943.1447" font-family="Helvetica,sans-Serif" font-size="11.00" fill="#000000">1 &gt;</text>
</a>
</g>
</g>
<!-- form_group_attendance&#45;&gt;form_groups_encounter -->
<g id="edge1" class="edge">
<title>form_group_attendance:w&#45;&gt;form_groups_encounter:e</title>
<path fill="none" stroke="#000000" d="M1180.3661,-916.2018C1168.1741,-919.8752 1150.3765,-926.3592 1131.7002,-933.5247"/>
<polygon fill="#000000" stroke="#000000" points="1186.6924,-914.7888 1195.2848,-916.5581 1190.5962,-913.9167 1194.5,-913.0447 1194.5,-913.0447 1194.5,-913.0447 1190.5962,-913.9167 1193.7152,-909.5313 1186.6924,-914.7888 1186.6924,-914.7888"/>
<ellipse fill="none" stroke="#000000" cx="1183.5694" cy="-915.4864" rx="3.2" ry="3.2"/>
</g>
<!-- therapy_groups -->
<g id="node3" class="node">
<title>therapy_groups</title>
<g id="a_node3"><a xlink:href="../../tables/therapy_groups.html" xlink:title="therapy_groups" target="_top">
<polygon fill="#ffffff" stroke="transparent" points="363.5,-971.5447 363.5,-1032.5447 507.5,-1032.5447 507.5,-971.5447 363.5,-971.5447"/>
<polygon fill="#f5f5f5" stroke="transparent" points="363.5,-1009.0447 363.5,-1032.0447 507.5,-1032.0447 507.5,-1009.0447 363.5,-1009.0447"/>
<polygon fill="none" stroke="#000000" points="363.5,-1009.0447 363.5,-1032.0447 507.5,-1032.0447 507.5,-1009.0447 363.5,-1009.0447"/>
<text text-anchor="start" x="368.5" y="-1017.6447" font-family="Helvetica,sans-Serif" font-weight="bold" font-size="11.00" fill="#000000">therapy_groups</text>
<text text-anchor="start" x="473.0219" y="-1017.1447" font-family="Helvetica,sans-Serif" font-size="11.00" fill="#000000">[table]</text>
<polygon fill="none" stroke="#000000" points="363.5,-990.0447 363.5,-1009.0447 507.5,-1009.0447 507.5,-990.0447 363.5,-990.0447"/>
<text text-anchor="start" x="366.5" y="-996.1447" font-family="Helvetica,sans-Serif" font-size="11.00" fill="#000000">...</text>
<polygon fill="#ffffff" stroke="transparent" points="363.5,-971.0447 363.5,-990.0447 424.5,-990.0447 424.5,-971.0447 363.5,-971.0447"/>
<polygon fill="none" stroke="#000000" points="363.5,-971.0447 363.5,-990.0447 424.5,-990.0447 424.5,-971.0447 363.5,-971.0447"/>
<text text-anchor="start" x="366.5" y="-977.1447" font-family="Helvetica,sans-Serif" font-size="11.00" fill="#000000"> &#160;</text>
<polygon fill="#ffffff" stroke="transparent" points="424.5,-971.0447 424.5,-990.0447 461.5,-990.0447 461.5,-971.0447 424.5,-971.0447"/>
<polygon fill="none" stroke="#000000" points="424.5,-971.0447 424.5,-990.0447 461.5,-990.0447 461.5,-971.0447 424.5,-971.0447"/>
<text text-anchor="start" x="452.3862" y="-977.1447" font-family="Helvetica,sans-Serif" font-size="11.00" fill="#000000"> &#160;</text>
<polygon fill="#ffffff" stroke="transparent" points="461.5,-971.0447 461.5,-990.0447 507.5,-990.0447 507.5,-971.0447 461.5,-971.0447"/>
<polygon fill="none" stroke="#000000" points="461.5,-971.0447 461.5,-990.0447 507.5,-990.0447 507.5,-971.0447 461.5,-971.0447"/>
<text text-anchor="start" x="488.9053" y="-977.1447" font-family="Helvetica,sans-Serif" font-size="11.00" fill="#000000">5 &gt;</text>
</a>
</g>
</g>
<!-- form_group_attendance&#45;&gt;therapy_groups -->
<g id="edge2" class="edge">
<title>form_group_attendance:w&#45;&gt;therapy_groups:e</title>
<path fill="none" stroke="#000000" d="M1180.3533,-916.5036C1158.2009,-930.9712 1186.6866,-986.9077 1153,-1009.0447 1073.5153,-1061.2779 1034.1047,-1010.1466 939,-1009.0447 747.1836,-1006.8224 699.3293,-999.0447 507.5,-999.0447"/>
<polygon fill="#000000" stroke="#000000" points="1186.7289,-914.9448 1195.355,-916.5417 1190.6145,-913.9948 1194.5,-913.0447 1194.5,-913.0447 1194.5,-913.0447 1190.6145,-913.9948 1193.645,-909.5477 1186.7289,-914.9448 1186.7289,-914.9448"/>
<ellipse fill="none" stroke="#000000" cx="1183.6205" cy="-915.7048" rx="3.2" ry="3.2"/>
</g>
<!-- groups -->
<g id="node4" class="node">
<title>groups</title>
<g id="a_node4"><a xlink:href="../../tables/groups.html" xlink:title="groups" target="_top">
<polygon fill="#ffffff" stroke="transparent" points="392.5,-849.5447 392.5,-910.5447 478.5,-910.5447 478.5,-849.5447 392.5,-849.5447"/>
<polygon fill="#f5f5f5" stroke="transparent" points="392.5,-887.0447 392.5,-910.0447 478.5,-910.0447 478.5,-887.0447 392.5,-887.0447"/>
<polygon fill="none" stroke="#000000" points="392.5,-887.0447 392.5,-910.0447 478.5,-910.0447 478.5,-887.0447 392.5,-887.0447"/>
<text text-anchor="start" x="397.5" y="-895.6447" font-family="Helvetica,sans-Serif" font-weight="bold" font-size="11.00" fill="#000000">groups</text>
<text text-anchor="start" x="444.0219" y="-895.1447" font-family="Helvetica,sans-Serif" font-size="11.00" fill="#000000">[table]</text>
<polygon fill="none" stroke="#000000" points="392.5,-868.0447 392.5,-887.0447 478.5,-887.0447 478.5,-868.0447 392.5,-868.0447"/>
<text text-anchor="start" x="395.5" y="-874.1447" font-family="Helvetica,sans-Serif" font-size="11.00" fill="#000000">...</text>
<polygon fill="#ffffff" stroke="transparent" points="392.5,-849.0447 392.5,-868.0447 426.5,-868.0447 426.5,-849.0447 392.5,-849.0447"/>
<polygon fill="none" stroke="#000000" points="392.5,-849.0447 392.5,-868.0447 426.5,-868.0447 426.5,-849.0447 392.5,-849.0447"/>
<text text-anchor="start" x="395.5" y="-855.1447" font-family="Helvetica,sans-Serif" font-size="11.00" fill="#000000">&lt; 1</text>
<polygon fill="#ffffff" stroke="transparent" points="426.5,-849.0447 426.5,-868.0447 444.5,-868.0447 444.5,-849.0447 426.5,-849.0447"/>
<polygon fill="none" stroke="#000000" points="426.5,-849.0447 426.5,-868.0447 444.5,-868.0447 444.5,-849.0447 426.5,-849.0447"/>
<text text-anchor="start" x="435.3862" y="-855.1447" font-family="Helvetica,sans-Serif" font-size="11.00" fill="#000000"> &#160;</text>
<polygon fill="#ffffff" stroke="transparent" points="444.5,-849.0447 444.5,-868.0447 478.5,-868.0447 478.5,-849.0447 444.5,-849.0447"/>
<polygon fill="none" stroke="#000000" points="444.5,-849.0447 444.5,-868.0447 478.5,-868.0447 478.5,-849.0447 444.5,-849.0447"/>
<text text-anchor="start" x="453.7904" y="-855.1447" font-family="Helvetica,sans-Serif" font-size="11.00" fill="#000000">18 &gt;</text>
</a>
</g>
</g>
<!-- form_group_attendance&#45;&gt;groups -->
<g id="edge3" class="edge">
<title>form_group_attendance:w&#45;&gt;groups:e</title>
<path fill="none" stroke="#000000" d="M1180.1063,-912.5525C1171.6662,-911.9177 1165.5462,-910.805 1153,-910.0447 853.4132,-891.8901 778.6363,-877.0447 478.5,-877.0447"/>
<polygon fill="#000000" stroke="#000000" points="1186.5047,-912.7713 1194.3769,-916.6426 1190.5023,-912.908 1194.5,-913.0447 1194.5,-913.0447 1194.5,-913.0447 1190.5023,-912.908 1194.6231,-909.4468 1186.5047,-912.7713 1186.5047,-912.7713"/>
<ellipse fill="none" stroke="#000000" cx="1183.3065" cy="-912.6619" rx="3.2" ry="3.2"/>
</g>
<!-- forms -->
<g id="node5" class="node">
<title>forms</title>
<g id="a_node5"><a xlink:href="../../tables/forms.html" xlink:title="forms" target="_top">
<polygon fill="#ffffff" stroke="transparent" points="737,-910.5447 737,-971.5447 815,-971.5447 815,-910.5447 737,-910.5447"/>
<polygon fill="#f5f5f5" stroke="transparent" points="737,-948.0447 737,-971.0447 815,-971.0447 815,-948.0447 737,-948.0447"/>
<polygon fill="none" stroke="#000000" points="737,-948.0447 737,-971.0447 815,-971.0447 815,-948.0447 737,-948.0447"/>
<text text-anchor="start" x="742" y="-956.6447" font-family="Helvetica,sans-Serif" font-weight="bold" font-size="11.00" fill="#000000">forms</text>
<text text-anchor="start" x="780.5219" y="-956.1447" font-family="Helvetica,sans-Serif" font-size="11.00" fill="#000000">[table]</text>
<polygon fill="none" stroke="#000000" points="737,-929.0447 737,-948.0447 815,-948.0447 815,-929.0447 737,-929.0447"/>
<text text-anchor="start" x="740" y="-935.1447" font-family="Helvetica,sans-Serif" font-size="11.00" fill="#000000">...</text>
<polygon fill="#ffffff" stroke="transparent" points="737,-910.0447 737,-929.0447 767,-929.0447 767,-910.0447 737,-910.0447"/>
<polygon fill="none" stroke="#000000" points="737,-910.0447 737,-929.0447 767,-929.0447 767,-910.0447 737,-910.0447"/>
<text text-anchor="start" x="740" y="-916.1447" font-family="Helvetica,sans-Serif" font-size="11.00" fill="#000000">&lt; 6</text>
<polygon fill="#ffffff" stroke="transparent" points="767,-910.0447 767,-929.0447 783,-929.0447 783,-910.0447 767,-910.0447"/>
<polygon fill="none" stroke="#000000" points="767,-910.0447 767,-929.0447 783,-929.0447 783,-910.0447 767,-910.0447"/>
<text text-anchor="start" x="773.8862" y="-916.1447" font-family="Helvetica,sans-Serif" font-size="11.00" fill="#000000"> &#160;</text>
<polygon fill="#ffffff" stroke="transparent" points="783,-910.0447 783,-929.0447 815,-929.0447 815,-910.0447 783,-910.0447"/>
<polygon fill="none" stroke="#000000" points="783,-910.0447 783,-929.0447 815,-929.0447 815,-910.0447 783,-910.0447"/>
<text text-anchor="start" x="790.2904" y="-916.1447" font-family="Helvetica,sans-Serif" font-size="11.00" fill="#000000">12 &gt;</text>
</a>
</g>
</g>
<!-- form_group_attendance&#45;&gt;forms -->
<g id="edge4" class="edge">
<title>form_group_attendance:w&#45;&gt;forms:e</title>
<path fill="none" stroke="#000000" d="M1184.0831,-913.0618C1078.9198,-913.4134 1048.8896,-919.1622 939,-927.0447 883.8143,-931.0033 870.3275,-938.0447 815,-938.0447"/>
<polygon fill="#000000" stroke="#000000" points="1193.6934,-909.046 1193.7066,-917.046 1192.1066,-917.0487 1192.0934,-909.0487 1193.6934,-909.046"/>
<polyline fill="none" stroke="#000000" points="1194.5,-913.0447 1190.5,-913.0513 "/>
<ellipse fill="none" stroke="#000000" cx="1187.3" cy="-913.0566" rx="3.2" ry="3.2"/>
</g>
<!-- users -->
<g id="node6" class="node">
<title>users</title>
<g id="a_node6"><a xlink:href="../../tables/users.html" xlink:title="users" target="_top">
<polygon fill="#ffffff" stroke="transparent" points="142,-767.5447 142,-828.5447 217,-828.5447 217,-767.5447 142,-767.5447"/>
<polygon fill="#f5f5f5" stroke="transparent" points="142.5,-805.0447 142.5,-828.0447 217.5,-828.0447 217.5,-805.0447 142.5,-805.0447"/>
<polygon fill="none" stroke="#000000" points="142.5,-805.0447 142.5,-828.0447 217.5,-828.0447 217.5,-805.0447 142.5,-805.0447"/>
<text text-anchor="start" x="147.5" y="-813.6447" font-family="Helvetica,sans-Serif" font-weight="bold" font-size="11.00" fill="#000000">users</text>
<text text-anchor="start" x="183.0219" y="-813.1447" font-family="Helvetica,sans-Serif" font-size="11.00" fill="#000000">[table]</text>
<polygon fill="none" stroke="#000000" points="142.5,-786.0447 142.5,-805.0447 217.5,-805.0447 217.5,-786.0447 142.5,-786.0447"/>
<text text-anchor="start" x="145.5" y="-792.1447" font-family="Helvetica,sans-Serif" font-size="11.00" fill="#000000">...</text>
<polygon fill="#ffffff" stroke="transparent" points="142.5,-767.0447 142.5,-786.0447 170.5,-786.0447 170.5,-767.0447 142.5,-767.0447"/>
<polygon fill="none" stroke="#000000" points="142.5,-767.0447 142.5,-786.0447 170.5,-786.0447 170.5,-767.0447 142.5,-767.0447"/>
<text text-anchor="start" x="145.5" y="-773.1447" font-family="Helvetica,sans-Serif" font-size="11.00" fill="#000000">&lt; 2</text>
<polygon fill="#ffffff" stroke="transparent" points="170.5,-767.0447 170.5,-786.0447 186.5,-786.0447 186.5,-767.0447 170.5,-767.0447"/>
<polygon fill="none" stroke="#000000" points="170.5,-767.0447 170.5,-786.0447 186.5,-786.0447 186.5,-767.0447 170.5,-767.0447"/>
<text text-anchor="start" x="177.3862" y="-773.1447" font-family="Helvetica,sans-Serif" font-size="11.00" fill="#000000"> &#160;</text>
<polygon fill="#ffffff" stroke="transparent" points="186.5,-767.0447 186.5,-786.0447 217.5,-786.0447 217.5,-767.0447 186.5,-767.0447"/>
<polygon fill="none" stroke="#000000" points="186.5,-767.0447 186.5,-786.0447 217.5,-786.0447 217.5,-767.0447 186.5,-767.0447"/>
<text text-anchor="start" x="192.7904" y="-773.1447" font-family="Helvetica,sans-Serif" font-size="11.00" fill="#000000">56 &gt;</text>
</a>
</g>
</g>
<!-- form_group_attendance&#45;&gt;users -->
<g id="edge5" class="edge">
<title>form_group_attendance:w&#45;&gt;users:e</title>
<path fill="none" stroke="#000000" d="M1182.8435,-904.2535C1147.4963,-843.6964 1172.4742,-489.497 1153,-446.0447 1087.4177,-299.7124 1048.6372,-256.3169 906,-183.0447 649.3601,-51.2099 468.2537,53.5352 258,-144.0447 205.1867,-193.6745 289.9732,-795.0447 217.5,-795.0447"/>
<polygon fill="#000000" stroke="#000000" points="1188.1129,-908.2276 1192.3323,-915.9189 1191.3064,-910.6362 1194.5,-913.0447 1194.5,-913.0447 1194.5,-913.0447 1191.3064,-910.6362 1196.6677,-910.1705 1188.1129,-908.2276 1188.1129,-908.2276"/>
<ellipse fill="none" stroke="#000000" cx="1185.558" cy="-906.3007" rx="3.2" ry="3.2"/>
</g>
<!-- form_groups_encounter&#45;&gt;therapy_groups -->
<g id="edge8" class="edge">
<title>form_groups_encounter:w&#45;&gt;therapy_groups:e</title>
<path fill="none" stroke="#000000" d="M924.2223,-980.6428C918.0629,-981.1482 911.9618,-981.6198 906,-982.0447 729.1763,-994.6472 684.7722,-999.0447 507.5,-999.0447"/>
<polygon fill="#000000" stroke="#000000" points="930.6908,-980.0897 938.9685,-982.9949 934.6762,-979.7488 938.6617,-979.4079 938.6617,-979.4079 938.6617,-979.4079 934.6762,-979.7488 938.3549,-975.821 930.6908,-980.0897 930.6908,-980.0897"/>
<ellipse fill="none" stroke="#000000" cx="927.5024" cy="-980.3623" rx="3.2" ry="3.2"/>
</g>
<!-- form_groups_encounter&#45;&gt;forms -->
<g id="edge9" class="edge">
<title>form_groups_encounter:w&#45;&gt;forms:e</title>
<path fill="none" stroke="#000000" d="M928.2379,-946.7979C892.0399,-941.8748 851.9916,-938.0447 815,-938.0447"/>
<polygon fill="#000000" stroke="#000000" points="938.6018,-944.2128 937.4902,-952.1352 935.9058,-951.9128 937.0173,-943.9904 938.6018,-944.2128"/>
<polyline fill="none" stroke="#000000" points="938.8383,-948.2851 934.8771,-947.7293 "/>
<ellipse fill="none" stroke="#000000" cx="931.7081" cy="-947.2847" rx="3.2" ry="3.2"/>
</g>
<!-- form_groups_encounter&#45;&gt;users -->
<g id="edge11" class="edge">
<title>form_groups_encounter:w&#45;&gt;users:e</title>
<path fill="none" stroke="#000000" d="M924.6694,-996.3485C728.9569,-1042.3594 355.6071,-1120.0049 258,-1037.0447 215.4512,-1000.8808 273.3412,-789.0447 217.5,-795.0447"/>
<polygon fill="#000000" stroke="#000000" points="930.949,-994.8647 939.5625,-996.5284 934.8418,-993.9448 938.7346,-993.0249 938.7346,-993.0249 938.7346,-993.0249 934.8418,-993.9448 937.9067,-989.5214 930.949,-994.8647 930.949,-994.8647"/>
<ellipse fill="none" stroke="#000000" cx="927.8348" cy="-995.6006" rx="3.2" ry="3.2"/>
</g>
<!-- form_groups_encounter&#45;&gt;users -->
<g id="edge12" class="edge">
<title>form_groups_encounter:w&#45;&gt;users:e</title>
<path fill="none" stroke="#000000" d="M924.6694,-1004.3278C728.9569,-1055.3594 355.6071,-1133.0049 258,-1050.0447 215.4512,-1013.8808 273.3412,-802.0447 217.5,-795.0447"/>
<polygon fill="#000000" stroke="#000000" points="930.9981,-1002.6621 939.651,-1004.1072 934.8664,-1001.6439 938.7346,-1000.6258 938.7346,-1000.6258 938.7346,-1000.6258 934.8664,-1001.6439 937.8183,-997.1443 930.9981,-1002.6621 930.9981,-1002.6621"/>
<ellipse fill="none" stroke="#000000" cx="927.9035" cy="-1003.4766" rx="3.2" ry="3.2"/>
</g>
<!-- openemr_postcalendar_events -->
<g id="node7" class="node">
<title>openemr_postcalendar_events</title>
<g id="a_node7"><a xlink:href="../../tables/openemr_postcalendar_events.html" xlink:title="openemr_postcalendar_events" target="_top">
<polygon fill="#ffffff" stroke="transparent" points="654,-453.5447 654,-514.5447 898,-514.5447 898,-453.5447 654,-453.5447"/>
<polygon fill="#f5f5f5" stroke="transparent" points="654,-491.0447 654,-514.0447 898,-514.0447 898,-491.0447 654,-491.0447"/>
<polygon fill="none" stroke="#000000" points="654,-491.0447 654,-514.0447 898,-514.0447 898,-491.0447 654,-491.0447"/>
<text text-anchor="start" x="659" y="-499.6447" font-family="Helvetica,sans-Serif" font-weight="bold" font-size="11.00" fill="#000000">openemr_postcalendar_events</text>
<text text-anchor="start" x="863.5219" y="-499.1447" font-family="Helvetica,sans-Serif" font-size="11.00" fill="#000000">[table]</text>
<polygon fill="none" stroke="#000000" points="654,-472.0447 654,-491.0447 898,-491.0447 898,-472.0447 654,-472.0447"/>
<text text-anchor="start" x="657" y="-478.1447" font-family="Helvetica,sans-Serif" font-size="11.00" fill="#000000">...</text>
<polygon fill="#ffffff" stroke="transparent" points="654,-453.0447 654,-472.0447 770,-472.0447 770,-453.0447 654,-453.0447"/>
<polygon fill="none" stroke="#000000" points="654,-453.0447 654,-472.0447 770,-472.0447 770,-453.0447 654,-453.0447"/>
<text text-anchor="start" x="657" y="-459.1447" font-family="Helvetica,sans-Serif" font-size="11.00" fill="#000000">&lt; 7</text>
<polygon fill="#ffffff" stroke="transparent" points="770,-453.0447 770,-472.0447 829,-472.0447 829,-453.0447 770,-453.0447"/>
<polygon fill="none" stroke="#000000" points="770,-453.0447 770,-472.0447 829,-472.0447 829,-453.0447 770,-453.0447"/>
<text text-anchor="start" x="819.8862" y="-459.1447" font-family="Helvetica,sans-Serif" font-size="11.00" fill="#000000"> &#160;</text>
<polygon fill="#ffffff" stroke="transparent" points="829,-453.0447 829,-472.0447 898,-472.0447 898,-453.0447 829,-453.0447"/>
<polygon fill="none" stroke="#000000" points="829,-453.0447 829,-472.0447 898,-472.0447 898,-453.0447 829,-453.0447"/>
<text text-anchor="start" x="879.4053" y="-459.1447" font-family="Helvetica,sans-Serif" font-size="11.00" fill="#000000">2 &gt;</text>
</a>
</g>
</g>
<!-- form_groups_encounter&#45;&gt;openemr_postcalendar_events -->
<g id="edge6" class="edge">
<title>form_groups_encounter:w&#45;&gt;openemr_postcalendar_events:e</title>
<path fill="none" stroke="#000000" d="M1019.5621,-920.6523C965.4138,-823.5865 842.9982,-604.1451 795.4228,-518.8619"/>
<polygon fill="#000000" stroke="#000000" points="1022.6848,-926.2502 1023.4384,-934.9905 1024.6336,-929.7434 1026.5823,-933.2366 1026.5823,-933.2366 1026.5823,-933.2366 1024.6336,-929.7434 1029.7262,-931.4828 1022.6848,-926.2502 1022.6848,-926.2502"/>
<ellipse fill="none" stroke="#000000" cx="1021.1259" cy="-923.4556" rx="3.2" ry="3.2"/>
</g>
<!-- facility -->
<g id="node8" class="node">
<title>facility</title>
<g id="a_node8"><a xlink:href="../../tables/facility.html" xlink:title="facility" target="_top">
<polygon fill="#ffffff" stroke="transparent" points="8,-767.5447 8,-828.5447 93,-828.5447 93,-767.5447 8,-767.5447"/>
<polygon fill="#f5f5f5" stroke="transparent" points="8.5,-805.0447 8.5,-828.0447 93.5,-828.0447 93.5,-805.0447 8.5,-805.0447"/>
<polygon fill="none" stroke="#000000" points="8.5,-805.0447 8.5,-828.0447 93.5,-828.0447 93.5,-805.0447 8.5,-805.0447"/>
<text text-anchor="start" x="13.5" y="-813.6447" font-family="Helvetica,sans-Serif" font-weight="bold" font-size="11.00" fill="#000000">facility</text>
<text text-anchor="start" x="59.0219" y="-813.1447" font-family="Helvetica,sans-Serif" font-size="11.00" fill="#000000">[table]</text>
<polygon fill="none" stroke="#000000" points="8.5,-786.0447 8.5,-805.0447 93.5,-805.0447 93.5,-786.0447 8.5,-786.0447"/>
<text text-anchor="start" x="11.5" y="-792.1447" font-family="Helvetica,sans-Serif" font-size="11.00" fill="#000000">...</text>
<polygon fill="#ffffff" stroke="transparent" points="8.5,-767.0447 8.5,-786.0447 40.5,-786.0447 40.5,-767.0447 8.5,-767.0447"/>
<polygon fill="none" stroke="#000000" points="8.5,-767.0447 8.5,-786.0447 40.5,-786.0447 40.5,-767.0447 8.5,-767.0447"/>
<text text-anchor="start" x="11.5" y="-773.1447" font-family="Helvetica,sans-Serif" font-size="11.00" fill="#000000"> &#160;</text>
<polygon fill="#ffffff" stroke="transparent" points="40.5,-767.0447 40.5,-786.0447 62.5,-786.0447 62.5,-767.0447 40.5,-767.0447"/>
<polygon fill="none" stroke="#000000" points="40.5,-767.0447 40.5,-786.0447 62.5,-786.0447 62.5,-767.0447 40.5,-767.0447"/>
<text text-anchor="start" x="53.3862" y="-773.1447" font-family="Helvetica,sans-Serif" font-size="11.00" fill="#000000"> &#160;</text>
<polygon fill="#ffffff" stroke="transparent" points="62.5,-767.0447 62.5,-786.0447 93.5,-786.0447 93.5,-767.0447 62.5,-767.0447"/>
<polygon fill="none" stroke="#000000" points="62.5,-767.0447 62.5,-786.0447 93.5,-786.0447 93.5,-767.0447 62.5,-767.0447"/>
<text text-anchor="start" x="74.9053" y="-773.1447" font-family="Helvetica,sans-Serif" font-size="11.00" fill="#000000">7 &gt;</text>
</a>
</g>
</g>
<!-- form_groups_encounter&#45;&gt;facility -->
<g id="edge7" class="edge">
<title>form_groups_encounter:w&#45;&gt;facility:e</title>
<path fill="none" stroke="#000000" d="M983.8958,-1010.3595C960.4556,-1024.3342 932.9283,-1038.4815 906,-1047.0447 631.2491,-1134.416 508.0044,-1220.6399 258,-1077.0447 226.5447,-1058.9777 129.7747,-795.0447 93.5,-795.0447"/>
<polygon fill="#000000" stroke="#000000" points="989.648,-1006.8321 998.3498,-1005.719 993.0579,-1004.7411 996.4678,-1002.65 996.4678,-1002.65 996.4678,-1002.65 993.0579,-1004.7411 994.5859,-999.5811 989.648,-1006.8321 989.648,-1006.8321"/>
<ellipse fill="none" stroke="#000000" cx="986.92" cy="-1008.505" rx="3.2" ry="3.2"/>
</g>
<!-- openemr_postcalendar_categories -->
<g id="node9" class="node">
<title>openemr_postcalendar_categories</title>
<g id="a_node9"><a xlink:href="../../tables/openemr_postcalendar_categories.html" xlink:title="openemr_postcalendar_categories" target="_top">
<polygon fill="#ffffff" stroke="transparent" points="266,-282.0447 266,-746.0447 605,-746.0447 605,-282.0447 266,-282.0447"/>
<polygon fill="#f5f5f5" stroke="transparent" points="268.5,-721.0447 268.5,-744.0447 603.5,-744.0447 603.5,-721.0447 268.5,-721.0447"/>
<polygon fill="none" stroke="#000000" points="268.5,-721.0447 268.5,-744.0447 603.5,-744.0447 603.5,-721.0447 268.5,-721.0447"/>
<text text-anchor="start" x="273.5" y="-729.6447" font-family="Helvetica,sans-Serif" font-weight="bold" font-size="11.00" fill="#000000">openemr_postcalendar_categories</text>
<text text-anchor="start" x="568.5437" y="-729.1447" font-family="Helvetica,sans-Serif" font-size="11.00" fill="#000000">[table]</text>
<polygon fill="none" stroke="#000000" points="268.5,-699.0447 268.5,-721.0447 520.5,-721.0447 520.5,-699.0447 268.5,-699.0447"/>
<image xlink:href="../../images/primaryKeys.png" width="11px" height="12px" preserveAspectRatio="xMinYMin meet" x="273.5" y="-716.045"/>
<text text-anchor="start" x="288.5" y="-706.1447" font-family="Helvetica,sans-Serif" font-size="11.00" fill="#000000">pc_catid</text>
<polygon fill="none" stroke="#000000" points="520.5,-699.0447 520.5,-721.0447 603.5,-721.0447 603.5,-699.0447 520.5,-699.0447"/>
<text text-anchor="start" x="523.1783" y="-706.7447" font-family="Helvetica,sans-Serif" font-size="11.00" fill="#000000">int unsigned[10]</text>
<polygon fill="#ffffff" stroke="transparent" points="268.5,-677.0447 268.5,-699.0447 520.5,-699.0447 520.5,-677.0447 268.5,-677.0447"/>
<polygon fill="none" stroke="#000000" points="268.5,-677.0447 268.5,-699.0447 520.5,-699.0447 520.5,-677.0447 268.5,-677.0447"/>
<text text-anchor="start" x="288.5" y="-684.1447" font-family="Helvetica,sans-Serif" font-size="11.00" fill="#000000">pc_constant_id</text>
<polygon fill="none" stroke="#000000" points="520.5,-677.0447 520.5,-699.0447 603.5,-699.0447 603.5,-677.0447 520.5,-677.0447"/>
<text text-anchor="start" x="523.5" y="-684.7447" font-family="Helvetica,sans-Serif" font-size="11.00" fill="#000000">varchar[255]</text>
<polygon fill="#ffffff" stroke="transparent" points="268.5,-655.0447 268.5,-677.0447 520.5,-677.0447 520.5,-655.0447 268.5,-655.0447"/>
<polygon fill="none" stroke="#000000" points="268.5,-655.0447 268.5,-677.0447 520.5,-677.0447 520.5,-655.0447 268.5,-655.0447"/>
<text text-anchor="start" x="288.5" y="-662.1447" font-family="Helvetica,sans-Serif" font-size="11.00" fill="#000000">pc_catname</text>
<polygon fill="none" stroke="#000000" points="520.5,-655.0447 520.5,-677.0447 603.5,-677.0447 603.5,-655.0447 520.5,-655.0447"/>
<text text-anchor="start" x="523.5" y="-662.7447" font-family="Helvetica,sans-Serif" font-size="11.00" fill="#000000">varchar[100]</text>
<polygon fill="#ffffff" stroke="transparent" points="268.5,-633.0447 268.5,-655.0447 520.5,-655.0447 520.5,-633.0447 268.5,-633.0447"/>
<polygon fill="none" stroke="#000000" points="268.5,-633.0447 268.5,-655.0447 520.5,-655.0447 520.5,-633.0447 268.5,-633.0447"/>
<text text-anchor="start" x="288.5" y="-640.1447" font-family="Helvetica,sans-Serif" font-size="11.00" fill="#000000">pc_catcolor</text>
<polygon fill="none" stroke="#000000" points="520.5,-633.0447 520.5,-655.0447 603.5,-655.0447 603.5,-633.0447 520.5,-633.0447"/>
<text text-anchor="start" x="523.5" y="-640.7447" font-family="Helvetica,sans-Serif" font-size="11.00" fill="#000000">varchar[50]</text>
<polygon fill="none" stroke="#000000" points="268.5,-611.0447 268.5,-633.0447 520.5,-633.0447 520.5,-611.0447 268.5,-611.0447"/>
<text text-anchor="start" x="288.5" y="-618.1447" font-family="Helvetica,sans-Serif" font-size="11.00" fill="#000000">pc_catdesc</text>
<polygon fill="none" stroke="#000000" points="520.5,-611.0447 520.5,-633.0447 603.5,-633.0447 603.5,-611.0447 520.5,-611.0447"/>
<text text-anchor="start" x="523.5" y="-618.7447" font-family="Helvetica,sans-Serif" font-size="11.00" fill="#000000">text[65535]</text>
<polygon fill="none" stroke="#000000" points="268.5,-589.0447 268.5,-611.0447 520.5,-611.0447 520.5,-589.0447 268.5,-589.0447"/>
<text text-anchor="start" x="288.5" y="-596.1447" font-family="Helvetica,sans-Serif" font-size="11.00" fill="#000000">pc_recurrtype</text>
<polygon fill="none" stroke="#000000" points="520.5,-589.0447 520.5,-611.0447 603.5,-611.0447 603.5,-589.0447 520.5,-589.0447"/>
<text text-anchor="start" x="523.5" y="-596.7447" font-family="Helvetica,sans-Serif" font-size="11.00" fill="#000000">int[10]</text>
<polygon fill="none" stroke="#000000" points="268.5,-567.0447 268.5,-589.0447 520.5,-589.0447 520.5,-567.0447 268.5,-567.0447"/>
<text text-anchor="start" x="288.5" y="-574.1447" font-family="Helvetica,sans-Serif" font-size="11.00" fill="#000000">pc_enddate</text>
<polygon fill="none" stroke="#000000" points="520.5,-567.0447 520.5,-589.0447 603.5,-589.0447 603.5,-567.0447 520.5,-567.0447"/>
<text text-anchor="start" x="523.5" y="-574.7447" font-family="Helvetica,sans-Serif" font-size="11.00" fill="#000000">date[10]</text>
<polygon fill="none" stroke="#000000" points="268.5,-545.0447 268.5,-567.0447 520.5,-567.0447 520.5,-545.0447 268.5,-545.0447"/>
<text text-anchor="start" x="288.5" y="-552.1447" font-family="Helvetica,sans-Serif" font-size="11.00" fill="#000000">pc_recurrspec</text>
<polygon fill="none" stroke="#000000" points="520.5,-545.0447 520.5,-567.0447 603.5,-567.0447 603.5,-545.0447 520.5,-545.0447"/>
<text text-anchor="start" x="523.5" y="-552.7447" font-family="Helvetica,sans-Serif" font-size="11.00" fill="#000000">text[65535]</text>
<polygon fill="none" stroke="#000000" points="268.5,-523.0447 268.5,-545.0447 520.5,-545.0447 520.5,-523.0447 268.5,-523.0447"/>
<text text-anchor="start" x="288.5" y="-530.1447" font-family="Helvetica,sans-Serif" font-size="11.00" fill="#000000">pc_recurrfreq</text>
<polygon fill="none" stroke="#000000" points="520.5,-523.0447 520.5,-545.0447 603.5,-545.0447 603.5,-523.0447 520.5,-523.0447"/>
<text text-anchor="start" x="523.5" y="-530.7447" font-family="Helvetica,sans-Serif" font-size="11.00" fill="#000000">int[10]</text>
<polygon fill="none" stroke="#000000" points="268.5,-501.0447 268.5,-523.0447 520.5,-523.0447 520.5,-501.0447 268.5,-501.0447"/>
<text text-anchor="start" x="288.5" y="-508.1447" font-family="Helvetica,sans-Serif" font-size="11.00" fill="#000000">pc_duration</text>
<polygon fill="none" stroke="#000000" points="520.5,-501.0447 520.5,-523.0447 603.5,-523.0447 603.5,-501.0447 520.5,-501.0447"/>
<text text-anchor="start" x="523.5" y="-508.7447" font-family="Helvetica,sans-Serif" font-size="11.00" fill="#000000">bigint[19]</text>
<polygon fill="none" stroke="#000000" points="268.5,-479.0447 268.5,-501.0447 520.5,-501.0447 520.5,-479.0447 268.5,-479.0447"/>
<text text-anchor="start" x="288.5" y="-486.1447" font-family="Helvetica,sans-Serif" font-size="11.00" fill="#000000">pc_end_date_flag</text>
<polygon fill="none" stroke="#000000" points="520.5,-479.0447 520.5,-501.0447 603.5,-501.0447 603.5,-479.0447 520.5,-479.0447"/>
<text text-anchor="start" x="523.5" y="-486.7447" font-family="Helvetica,sans-Serif" font-size="11.00" fill="#000000">bit[1]</text>
<polygon fill="none" stroke="#000000" points="268.5,-457.0447 268.5,-479.0447 520.5,-479.0447 520.5,-457.0447 268.5,-457.0447"/>
<text text-anchor="start" x="288.5" y="-464.1447" font-family="Helvetica,sans-Serif" font-size="11.00" fill="#000000">pc_end_date_type</text>
<polygon fill="none" stroke="#000000" points="520.5,-457.0447 520.5,-479.0447 603.5,-479.0447 603.5,-457.0447 520.5,-457.0447"/>
<text text-anchor="start" x="523.5" y="-464.7447" font-family="Helvetica,sans-Serif" font-size="11.00" fill="#000000">int[10]</text>
<polygon fill="none" stroke="#000000" points="268.5,-435.0447 268.5,-457.0447 520.5,-457.0447 520.5,-435.0447 268.5,-435.0447"/>
<text text-anchor="start" x="288.5" y="-442.1447" font-family="Helvetica,sans-Serif" font-size="11.00" fill="#000000">pc_end_date_freq</text>
<polygon fill="none" stroke="#000000" points="520.5,-435.0447 520.5,-457.0447 603.5,-457.0447 603.5,-435.0447 520.5,-435.0447"/>
<text text-anchor="start" x="523.5" y="-442.7447" font-family="Helvetica,sans-Serif" font-size="11.00" fill="#000000">int[10]</text>
<polygon fill="none" stroke="#000000" points="268.5,-413.0447 268.5,-435.0447 520.5,-435.0447 520.5,-413.0447 268.5,-413.0447"/>
<text text-anchor="start" x="288.5" y="-420.1447" font-family="Helvetica,sans-Serif" font-size="11.00" fill="#000000">pc_end_all_day</text>
<polygon fill="none" stroke="#000000" points="520.5,-413.0447 520.5,-435.0447 603.5,-435.0447 603.5,-413.0447 520.5,-413.0447"/>
<text text-anchor="start" x="523.5" y="-420.7447" font-family="Helvetica,sans-Serif" font-size="11.00" fill="#000000">bit[1]</text>
<polygon fill="none" stroke="#000000" points="268.5,-391.0447 268.5,-413.0447 520.5,-413.0447 520.5,-391.0447 268.5,-391.0447"/>
<text text-anchor="start" x="288.5" y="-398.1447" font-family="Helvetica,sans-Serif" font-size="11.00" fill="#000000">pc_dailylimit</text>
<polygon fill="none" stroke="#000000" points="520.5,-391.0447 520.5,-413.0447 603.5,-413.0447 603.5,-391.0447 520.5,-391.0447"/>
<text text-anchor="start" x="523.5" y="-398.7447" font-family="Helvetica,sans-Serif" font-size="11.00" fill="#000000">int[10]</text>
<polygon fill="none" stroke="#000000" points="268.5,-369.0447 268.5,-391.0447 520.5,-391.0447 520.5,-369.0447 268.5,-369.0447"/>
<text text-anchor="start" x="288.5" y="-376.1447" font-family="Helvetica,sans-Serif" font-size="11.00" fill="#000000">pc_cattype</text>
<polygon fill="none" stroke="#000000" points="520.5,-369.0447 520.5,-391.0447 603.5,-391.0447 603.5,-369.0447 520.5,-369.0447"/>
<text text-anchor="start" x="523.5" y="-376.7447" font-family="Helvetica,sans-Serif" font-size="11.00" fill="#000000">int[10]</text>
<polygon fill="none" stroke="#000000" points="268.5,-347.0447 268.5,-369.0447 520.5,-369.0447 520.5,-347.0447 268.5,-347.0447"/>
<text text-anchor="start" x="288.5" y="-354.1447" font-family="Helvetica,sans-Serif" font-size="11.00" fill="#000000">pc_active</text>
<polygon fill="none" stroke="#000000" points="520.5,-347.0447 520.5,-369.0447 603.5,-369.0447 603.5,-347.0447 520.5,-347.0447"/>
<text text-anchor="start" x="523.5" y="-354.7447" font-family="Helvetica,sans-Serif" font-size="11.00" fill="#000000">bit[1]</text>
<polygon fill="none" stroke="#000000" points="268.5,-325.0447 268.5,-347.0447 520.5,-347.0447 520.5,-325.0447 268.5,-325.0447"/>
<text text-anchor="start" x="288.5" y="-332.1447" font-family="Helvetica,sans-Serif" font-size="11.00" fill="#000000">pc_seq</text>
<polygon fill="none" stroke="#000000" points="520.5,-325.0447 520.5,-347.0447 603.5,-347.0447 603.5,-325.0447 520.5,-325.0447"/>
<text text-anchor="start" x="523.5" y="-332.7447" font-family="Helvetica,sans-Serif" font-size="11.00" fill="#000000">int[10]</text>
<polygon fill="none" stroke="#000000" points="268.5,-303.0447 268.5,-325.0447 520.5,-325.0447 520.5,-303.0447 268.5,-303.0447"/>
<text text-anchor="start" x="288.5" y="-310.1447" font-family="Helvetica,sans-Serif" font-size="11.00" fill="#000000">aco_spec</text>
<polygon fill="none" stroke="#000000" points="520.5,-303.0447 520.5,-325.0447 603.5,-325.0447 603.5,-303.0447 520.5,-303.0447"/>
<text text-anchor="start" x="523.5" y="-310.7447" font-family="Helvetica,sans-Serif" font-size="11.00" fill="#000000">varchar[63]</text>
<polygon fill="#ffffff" stroke="transparent" points="268.5,-284.0447 268.5,-303.0447 398.5,-303.0447 398.5,-284.0447 268.5,-284.0447"/>
<polygon fill="none" stroke="#000000" points="268.5,-284.0447 268.5,-303.0447 398.5,-303.0447 398.5,-284.0447 268.5,-284.0447"/>
<text text-anchor="start" x="271.5" y="-290.1447" font-family="Helvetica,sans-Serif" font-size="11.00" fill="#000000">&lt; 0</text>
<polygon fill="#ffffff" stroke="transparent" points="398.5,-284.0447 398.5,-303.0447 520.5,-303.0447 520.5,-284.0447 398.5,-284.0447"/>
<polygon fill="none" stroke="#000000" points="398.5,-284.0447 398.5,-303.0447 520.5,-303.0447 520.5,-284.0447 398.5,-284.0447"/>
<text text-anchor="start" x="511.3862" y="-290.1447" font-family="Helvetica,sans-Serif" font-size="11.00" fill="#000000"> &#160;</text>
<polygon fill="#ffffff" stroke="transparent" points="520.5,-284.0447 520.5,-303.0447 603.5,-303.0447 603.5,-284.0447 520.5,-284.0447"/>
<polygon fill="none" stroke="#000000" points="520.5,-284.0447 520.5,-303.0447 603.5,-303.0447 603.5,-284.0447 520.5,-284.0447"/>
<text text-anchor="start" x="584.9053" y="-290.1447" font-family="Helvetica,sans-Serif" font-size="11.00" fill="#000000">2 &gt;</text>
<polygon fill="none" stroke="#000000" stroke-width="2" points="267,-283.0447 267,-745.0447 604,-745.0447 604,-283.0447 267,-283.0447"/>
</a>
</g>
</g>
<!-- form_groups_encounter&#45;&gt;openemr_postcalendar_categories -->
<g id="edge10" class="edge">
<title>form_groups_encounter:w&#45;&gt;openemr_postcalendar_categories:e</title>
<path fill="none" stroke="#000000" d="M1004.3146,-923.1092C930.9659,-849.1916 770.6867,-710.0447 603.5,-710.0447"/>
<polygon fill="#000000" stroke="#000000" points="1008.902,-927.7986 1011.9228,-936.0348 1011.6991,-930.658 1014.4963,-933.5174 1014.4963,-933.5174 1014.4963,-933.5174 1011.6991,-930.658 1017.0697,-931 1008.902,-927.7986 1008.902,-927.7986"/>
<ellipse fill="none" stroke="#000000" cx="1006.6643" cy="-925.5111" rx="3.2" ry="3.2"/>
</g>
<!-- groups&#45;&gt;users -->
<g id="edge18" class="edge">
<title>groups:w&#45;&gt;users:e</title>
<path fill="none" stroke="#000000" d="M378.0323,-876.9223C326.9644,-875.9645 306.5808,-868.9016 258,-839.0447 235.356,-825.1281 244.0786,-795.0447 217.5,-795.0447"/>
<polygon fill="#000000" stroke="#000000" points="384.5003,-876.977 392.4695,-880.6446 388.5001,-877.0108 392.5,-877.0447 392.5,-877.0447 392.5,-877.0447 388.5001,-877.0108 392.5305,-873.4449 384.5003,-876.977 384.5003,-876.977"/>
<ellipse fill="none" stroke="#000000" cx="381.3004" cy="-876.9499" rx="3.2" ry="3.2"/>
</g>
<!-- forms&#45;&gt;therapy_groups -->
<g id="edge16" class="edge">
<title>forms:w&#45;&gt;therapy_groups:e</title>
<path fill="none" stroke="#000000" d="M722.4284,-938.4504C629.4964,-943.7429 607.9912,-999.0447 507.5,-999.0447"/>
<polygon fill="#000000" stroke="#000000" points="729.0031,-938.2674 737.1002,-941.6433 733.0015,-938.1561 737,-938.0447 737,-938.0447 737,-938.0447 733.0015,-938.1561 736.8998,-934.4461 729.0031,-938.2674 729.0031,-938.2674"/>
<ellipse fill="none" stroke="#000000" cx="725.8043" cy="-938.3565" rx="3.2" ry="3.2"/>
</g>
<!-- forms&#45;&gt;groups -->
<g id="edge13" class="edge">
<title>forms:w&#45;&gt;groups:e</title>
<path fill="none" stroke="#000000" d="M722.2979,-937.7165C616.8531,-932.9152 591.4721,-877.0447 478.5,-877.0447"/>
<polygon fill="#000000" stroke="#000000" points="729.002,-937.8661 736.9196,-941.6438 733.001,-937.9554 737,-938.0447 737,-938.0447 737,-938.0447 733.001,-937.9554 737.0804,-934.4456 729.002,-937.8661 729.002,-937.8661"/>
<ellipse fill="none" stroke="#000000" cx="725.8028" cy="-937.7947" rx="3.2" ry="3.2"/>
</g>
<!-- forms&#45;&gt;users -->
<g id="edge15" class="edge">
<title>forms:w&#45;&gt;users:e</title>
<path fill="none" stroke="#000000" d="M722.2977,-938.2939C606.1518,-941.9001 339.2942,-982.5423 258,-921.0447 211.089,-885.5573 276.3218,-795.0447 217.5,-795.0447"/>
<polygon fill="#000000" stroke="#000000" points="729.0011,-938.1803 737.061,-941.6442 733.0006,-938.1125 737,-938.0447 737,-938.0447 737,-938.0447 733.0006,-938.1125 736.939,-934.4452 729.0011,-938.1803 729.0011,-938.1803"/>
<ellipse fill="none" stroke="#000000" cx="725.8016" cy="-938.2346" rx="3.2" ry="3.2"/>
</g>
<!-- forms&#45;&gt;users -->
<g id="edge17" class="edge">
<title>forms:w&#45;&gt;users:e</title>
<path fill="none" stroke="#000000" d="M722.2939,-938.2722C606.1249,-941.5614 339.3575,-978.5145 258,-917.0447 212.4163,-882.6039 274.6319,-795.0447 217.5,-795.0447"/>
<polygon fill="#000000" stroke="#000000" points="729.001,-938.1685 737.0557,-941.6443 733.0005,-938.1066 737,-938.0447 737,-938.0447 737,-938.0447 733.0005,-938.1066 736.9443,-934.4452 729.001,-938.1685 729.001,-938.1685"/>
<ellipse fill="none" stroke="#000000" cx="725.8013" cy="-938.218" rx="3.2" ry="3.2"/>
</g>
<!-- patient_data -->
<g id="node10" class="node">
<title>patient_data</title>
<g id="a_node10"><a xlink:href="../../tables/patient_data.html" xlink:title="patient_data" target="_top">
<polygon fill="#ffffff" stroke="transparent" points="373.5,-767.5447 373.5,-828.5447 497.5,-828.5447 497.5,-767.5447 373.5,-767.5447"/>
<polygon fill="#f5f5f5" stroke="transparent" points="373.5,-805.0447 373.5,-828.0447 497.5,-828.0447 497.5,-805.0447 373.5,-805.0447"/>
<polygon fill="none" stroke="#000000" points="373.5,-805.0447 373.5,-828.0447 497.5,-828.0447 497.5,-805.0447 373.5,-805.0447"/>
<text text-anchor="start" x="378.5" y="-813.6447" font-family="Helvetica,sans-Serif" font-weight="bold" font-size="11.00" fill="#000000">patient_data</text>
<text text-anchor="start" x="463.0219" y="-813.1447" font-family="Helvetica,sans-Serif" font-size="11.00" fill="#000000">[table]</text>
<polygon fill="none" stroke="#000000" points="373.5,-786.0447 373.5,-805.0447 497.5,-805.0447 497.5,-786.0447 373.5,-786.0447"/>
<text text-anchor="start" x="376.5" y="-792.1447" font-family="Helvetica,sans-Serif" font-size="11.00" fill="#000000">...</text>
<polygon fill="#ffffff" stroke="transparent" points="373.5,-767.0447 373.5,-786.0447 426.5,-786.0447 426.5,-767.0447 373.5,-767.0447"/>
<polygon fill="none" stroke="#000000" points="373.5,-767.0447 373.5,-786.0447 426.5,-786.0447 426.5,-767.0447 373.5,-767.0447"/>
<text text-anchor="start" x="376.5" y="-773.1447" font-family="Helvetica,sans-Serif" font-size="11.00" fill="#000000">&lt; 5</text>
<polygon fill="#ffffff" stroke="transparent" points="426.5,-767.0447 426.5,-786.0447 454.5,-786.0447 454.5,-767.0447 426.5,-767.0447"/>
<polygon fill="none" stroke="#000000" points="426.5,-767.0447 426.5,-786.0447 454.5,-786.0447 454.5,-767.0447 426.5,-767.0447"/>
<text text-anchor="start" x="445.3862" y="-773.1447" font-family="Helvetica,sans-Serif" font-size="11.00" fill="#000000"> &#160;</text>
<polygon fill="#ffffff" stroke="transparent" points="454.5,-767.0447 454.5,-786.0447 497.5,-786.0447 497.5,-767.0447 454.5,-767.0447"/>
<polygon fill="none" stroke="#000000" points="454.5,-767.0447 454.5,-786.0447 497.5,-786.0447 497.5,-767.0447 454.5,-767.0447"/>
<text text-anchor="start" x="472.7904" y="-773.1447" font-family="Helvetica,sans-Serif" font-size="11.00" fill="#000000">84 &gt;</text>
</a>
</g>
</g>
<!-- forms&#45;&gt;patient_data -->
<g id="edge14" class="edge">
<title>forms:w&#45;&gt;patient_data:e</title>
<path fill="none" stroke="#000000" d="M722.5314,-937.0247C667.2507,-928.7005 669.6942,-871.4205 613,-839.0447 565.298,-811.8041 552.4321,-795.0447 497.5,-795.0447"/>
<polygon fill="#000000" stroke="#000000" points="729.0198,-937.4821 736.7468,-941.6358 733.0099,-937.7634 737,-938.0447 737,-938.0447 737,-938.0447 733.0099,-937.7634 737.2532,-934.4536 729.0198,-937.4821 729.0198,-937.4821"/>
<ellipse fill="none" stroke="#000000" cx="725.8277" cy="-937.257" rx="3.2" ry="3.2"/>
</g>
<!-- users&#45;&gt;facility -->
<g id="edge33" class="edge">
<title>users:w&#45;&gt;facility:e</title>
<path fill="none" stroke="#000000" d="M128.3534,-791.6005C116.8293,-789.4435 109.6632,-790.5916 93.5,-795.0447"/>
<polygon fill="#000000" stroke="#000000" points="134.7271,-793.1522 141.6484,-798.5425 138.6135,-794.0985 142.5,-795.0447 142.5,-795.0447 142.5,-795.0447 138.6135,-794.0985 143.3516,-791.5469 134.7271,-793.1522 134.7271,-793.1522"/>
<ellipse fill="none" stroke="#000000" cx="131.6179" cy="-792.3952" rx="3.2" ry="3.2"/>
</g>
<!-- users&#45;&gt;facility -->
<g id="edge34" class="edge">
<title>users:w&#45;&gt;facility:e</title>
<path fill="none" stroke="#000000" d="M128.3534,-799.063C116.8293,-801.5795 109.6632,-800.24 93.5,-795.0447"/>
<polygon fill="#000000" stroke="#000000" points="134.8044,-797.2306 143.4837,-798.5077 138.6522,-796.1377 142.5,-795.0447 142.5,-795.0447 142.5,-795.0447 138.6522,-796.1377 141.5163,-791.5817 134.8044,-797.2306 134.8044,-797.2306"/>
<ellipse fill="none" stroke="#000000" cx="131.7262" cy="-798.105" rx="3.2" ry="3.2"/>
</g>
<!-- openemr_postcalendar_events&#45;&gt;groups -->
<g id="edge23" class="edge">
<title>openemr_postcalendar_events:w&#45;&gt;groups:e</title>
<path fill="none" stroke="#000000" d="M767.129,-532.9648C750.6365,-609.6604 707.9197,-757.8122 613,-839.0447 565.8054,-879.434 540.6178,-877.0447 478.5,-877.0447"/>
<polygon fill="#000000" stroke="#000000" points="768.4706,-526.4548 773.6114,-519.3461 769.2781,-522.5371 770.0855,-518.6194 770.0855,-518.6194 770.0855,-518.6194 769.2781,-522.5371 766.5596,-517.8927 768.4706,-526.4548 768.4706,-526.4548"/>
<ellipse fill="none" stroke="#000000" cx="767.8247" cy="-529.5889" rx="3.2" ry="3.2"/>
</g>
<!-- openemr_postcalendar_events&#45;&gt;users -->
<g id="edge19" class="edge">
<title>openemr_postcalendar_events:w&#45;&gt;users:e</title>
<path fill="none" stroke="#000000" d="M755.4929,-436.4124C730.3539,-384.8209 682.3672,-305.3091 613,-271.0447 577.6347,-253.5758 286.9462,-244.2495 258,-271.0447 215.1464,-310.714 275.8959,-795.0447 217.5,-795.0447"/>
<polygon fill="#000000" stroke="#000000" points="758.2677,-442.2883 758.4287,-451.0595 759.9758,-445.9052 761.6839,-449.5222 761.6839,-449.5222 761.6839,-449.5222 759.9758,-445.9052 764.9392,-447.9849 758.2677,-442.2883 758.2677,-442.2883"/>
<ellipse fill="none" stroke="#000000" cx="756.9013" cy="-439.3947" rx="3.2" ry="3.2"/>
</g>
<!-- openemr_postcalendar_events&#45;&gt;facility -->
<g id="edge22" class="edge">
<title>openemr_postcalendar_events:w&#45;&gt;facility:e</title>
<path fill="none" stroke="#000000" d="M767.6007,-434.9517C751.96,-360.6762 710.6334,-222.0516 613,-162.0447 478.581,-79.4289 382.8101,-65.5239 258,-162.0447 200.5148,-206.5004 166.1695,-795.0447 93.5,-795.0447"/>
<polygon fill="#000000" stroke="#000000" points="768.909,-441.4952 766.9474,-450.0458 769.6933,-445.4176 770.4776,-449.3399 770.4776,-449.3399 770.4776,-449.3399 769.6933,-445.4176 774.0077,-448.6341 768.909,-441.4952 768.909,-441.4952"/>
<ellipse fill="none" stroke="#000000" cx="768.2816" cy="-438.3573" rx="3.2" ry="3.2"/>
</g>
<!-- openemr_postcalendar_events&#45;&gt;openemr_postcalendar_categories -->
<g id="edge21" class="edge">
<title>openemr_postcalendar_events:w&#45;&gt;openemr_postcalendar_categories:e</title>
<path fill="none" stroke="#000000" d="M762.6727,-532.7042C741.1734,-599.1306 692.0215,-710.0447 603.5,-710.0447"/>
<polygon fill="#000000" stroke="#000000" points="764.5947,-526.5033 770.4019,-519.9278 765.779,-522.6826 766.9633,-518.8619 766.9633,-518.8619 766.9633,-518.8619 765.779,-522.6826 763.5247,-517.7961 764.5947,-526.5033 764.5947,-526.5033"/>
<ellipse fill="none" stroke="#000000" cx="763.6473" cy="-529.5598" rx="3.2" ry="3.2"/>
</g>
<!-- openemr_postcalendar_events&#45;&gt;patient_data -->
<g id="edge24" class="edge">
<title>openemr_postcalendar_events:w&#45;&gt;patient_data:e</title>
<path fill="none" stroke="#000000" d="M759.1437,-532.3082C735.5942,-592.9332 687.2112,-696.2439 613,-756.0447 570.812,-790.0407 551.6808,-795.0447 497.5,-795.0447"/>
<polygon fill="#000000" stroke="#000000" points="761.4996,-526.0778 767.6965,-519.8683 762.9144,-522.3364 764.3292,-518.595 764.3292,-518.595 764.3292,-518.595 762.9144,-522.3364 760.9619,-517.3216 761.4996,-526.0778 761.4996,-526.0778"/>
<ellipse fill="none" stroke="#000000" cx="760.3677" cy="-529.071" rx="3.2" ry="3.2"/>
</g>
<!-- list_options -->
<g id="node11" class="node">
<title>list_options</title>
<g id="a_node11"><a xlink:href="../../tables/list_options.html" xlink:title="list_options" target="_top">
<polygon fill="#ffffff" stroke="transparent" points="377.5,-172.5447 377.5,-233.5447 493.5,-233.5447 493.5,-172.5447 377.5,-172.5447"/>
<polygon fill="#f5f5f5" stroke="transparent" points="377.5,-210.0447 377.5,-233.0447 493.5,-233.0447 493.5,-210.0447 377.5,-210.0447"/>
<polygon fill="none" stroke="#000000" points="377.5,-210.0447 377.5,-233.0447 493.5,-233.0447 493.5,-210.0447 377.5,-210.0447"/>
<text text-anchor="start" x="382.5" y="-218.6447" font-family="Helvetica,sans-Serif" font-weight="bold" font-size="11.00" fill="#000000">list_options</text>
<text text-anchor="start" x="459.0219" y="-218.1447" font-family="Helvetica,sans-Serif" font-size="11.00" fill="#000000">[table]</text>
<polygon fill="none" stroke="#000000" points="377.5,-191.0447 377.5,-210.0447 493.5,-210.0447 493.5,-191.0447 377.5,-191.0447"/>
<text text-anchor="start" x="380.5" y="-197.1447" font-family="Helvetica,sans-Serif" font-size="11.00" fill="#000000">...</text>
<polygon fill="#ffffff" stroke="transparent" points="377.5,-172.0447 377.5,-191.0447 421.5,-191.0447 421.5,-172.0447 377.5,-172.0447"/>
<polygon fill="none" stroke="#000000" points="377.5,-172.0447 377.5,-191.0447 421.5,-191.0447 421.5,-172.0447 377.5,-172.0447"/>
<text text-anchor="start" x="380.5" y="-178.1447" font-family="Helvetica,sans-Serif" font-size="11.00" fill="#000000"> &#160;</text>
<polygon fill="#ffffff" stroke="transparent" points="421.5,-172.0447 421.5,-191.0447 449.5,-191.0447 449.5,-172.0447 421.5,-172.0447"/>
<polygon fill="none" stroke="#000000" points="421.5,-172.0447 421.5,-191.0447 449.5,-191.0447 449.5,-172.0447 421.5,-172.0447"/>
<text text-anchor="start" x="440.3862" y="-178.1447" font-family="Helvetica,sans-Serif" font-size="11.00" fill="#000000"> &#160;</text>
<polygon fill="#ffffff" stroke="transparent" points="449.5,-172.0447 449.5,-191.0447 493.5,-191.0447 493.5,-172.0447 449.5,-172.0447"/>
<polygon fill="none" stroke="#000000" points="449.5,-172.0447 449.5,-191.0447 493.5,-191.0447 493.5,-172.0447 449.5,-172.0447"/>
<text text-anchor="start" x="468.7904" y="-178.1447" font-family="Helvetica,sans-Serif" font-size="11.00" fill="#000000">38 &gt;</text>
</a>
</g>
</g>
<!-- openemr_postcalendar_events&#45;&gt;list_options -->
<g id="edge20" class="edge">
<title>openemr_postcalendar_events:w&#45;&gt;list_options:e</title>
<path fill="none" stroke="#000000" d="M756.8129,-436.1151C719.0349,-353.9387 626.9285,-195.548 493.5,-200.0447"/>
<polygon fill="#000000" stroke="#000000" points="759.4538,-442.024 759.4316,-450.7966 761.086,-445.6758 762.7183,-449.3277 762.7183,-449.3277 762.7183,-449.3277 761.086,-445.6758 766.0049,-447.8587 759.4538,-442.024 759.4538,-442.024"/>
<ellipse fill="none" stroke="#000000" cx="758.1481" cy="-439.1025" rx="3.2" ry="3.2"/>
</g>
<!-- openemr_postcalendar_events&#45;&gt;list_options -->
<g id="edge25" class="edge">
<title>openemr_postcalendar_events:w&#45;&gt;list_options:e</title>
<path fill="none" stroke="#000000" d="M753.3449,-436.4177C713.5902,-356.8118 623.0107,-205.1369 493.5,-200.0447"/>
<polygon fill="#000000" stroke="#000000" points="756.2151,-442.2821 756.4984,-451.0502 757.9735,-445.8748 759.7319,-449.4676 759.7319,-449.4676 759.7319,-449.4676 757.9735,-445.8748 762.9654,-447.8851 756.2151,-442.2821 756.2151,-442.2821"/>
<ellipse fill="none" stroke="#000000" cx="754.8083" cy="-439.4078" rx="3.2" ry="3.2"/>
</g>
<!-- patient_data&#45;&gt;users -->
<g id="edge26" class="edge">
<title>patient_data:w&#45;&gt;users:e</title>
<path fill="none" stroke="#000000" d="M359.2442,-791.2233C301.3899,-776.1439 281.8229,-777.4178 217.5,-795.0447"/>
<polygon fill="#000000" stroke="#000000" points="365.7728,-792.9733 372.5679,-798.522 369.6364,-794.009 373.5,-795.0447 373.5,-795.0447 373.5,-795.0447 369.6364,-794.009 374.4321,-791.5675 365.7728,-792.9733 365.7728,-792.9733"/>
<ellipse fill="none" stroke="#000000" cx="362.6819" cy="-792.1447" rx="3.2" ry="3.2"/>
</g>
<!-- patient_data&#45;&gt;users -->
<g id="edge27" class="edge">
<title>patient_data:w&#45;&gt;users:e</title>
<path fill="none" stroke="#000000" d="M358.8793,-793.8079C301.3073,-789.0778 281.6875,-789.49 217.5,-795.0447"/>
<polygon fill="#000000" stroke="#000000" points="365.5285,-794.3703 373.1965,-798.6319 369.5142,-794.7075 373.5,-795.0447 373.5,-795.0447 373.5,-795.0447 369.5142,-794.7075 373.8035,-791.4575 365.5285,-794.3703 365.5285,-794.3703"/>
<ellipse fill="none" stroke="#000000" cx="362.3399" cy="-794.1006" rx="3.2" ry="3.2"/>
</g>
<!-- patient_data&#45;&gt;users -->
<g id="edge28" class="edge">
<title>patient_data:w&#45;&gt;users:e</title>
<path fill="none" stroke="#000000" d="M358.8793,-796.4876C301.3073,-802.0062 281.6875,-801.5252 217.5,-795.0447"/>
<polygon fill="#000000" stroke="#000000" points="365.5387,-795.8305 373.8536,-798.6273 369.5193,-795.4376 373.5,-795.0447 373.5,-795.0447 373.5,-795.0447 369.5193,-795.4376 373.1464,-791.4621 365.5387,-795.8305 365.5387,-795.8305"/>
<ellipse fill="none" stroke="#000000" cx="362.3541" cy="-796.1448" rx="3.2" ry="3.2"/>
</g>
<!-- patient_data&#45;&gt;users -->
<g id="edge29" class="edge">
<title>patient_data:w&#45;&gt;users:e</title>
<path fill="none" stroke="#000000" d="M359.6101,-798.9668C301.4721,-814.9458 281.9583,-813.6385 217.5,-795.0447"/>
<polygon fill="#000000" stroke="#000000" points="365.801,-797.2187 374.4783,-798.5093 369.6505,-796.1317 373.5,-795.0447 373.5,-795.0447 373.5,-795.0447 369.6505,-796.1317 372.5217,-791.5802 365.801,-797.2187 365.801,-797.2187"/>
<ellipse fill="none" stroke="#000000" cx="362.7215" cy="-798.0883" rx="3.2" ry="3.2"/>
</g>
<!-- patient_tracker -->
<g id="node12" class="node">
<title>patient_tracker</title>
<g id="a_node12"><a xlink:href="../../tables/patient_tracker.html" xlink:title="patient_tracker" target="_top">
<polygon fill="#ffffff" stroke="transparent" points="975,-456.5447 975,-517.5447 1117,-517.5447 1117,-456.5447 975,-456.5447"/>
<polygon fill="#f5f5f5" stroke="transparent" points="975,-494.0447 975,-517.0447 1117,-517.0447 1117,-494.0447 975,-494.0447"/>
<polygon fill="none" stroke="#000000" points="975,-494.0447 975,-517.0447 1117,-517.0447 1117,-494.0447 975,-494.0447"/>
<text text-anchor="start" x="980" y="-502.6447" font-family="Helvetica,sans-Serif" font-weight="bold" font-size="11.00" fill="#000000">patient_tracker</text>
<text text-anchor="start" x="1082.5219" y="-502.1447" font-family="Helvetica,sans-Serif" font-size="11.00" fill="#000000">[table]</text>
<polygon fill="none" stroke="#000000" points="975,-475.0447 975,-494.0447 1117,-494.0447 1117,-475.0447 975,-475.0447"/>
<text text-anchor="start" x="978" y="-481.1447" font-family="Helvetica,sans-Serif" font-size="11.00" fill="#000000">...</text>
<polygon fill="#ffffff" stroke="transparent" points="975,-456.0447 975,-475.0447 1040,-475.0447 1040,-456.0447 975,-456.0447"/>
<polygon fill="none" stroke="#000000" points="975,-456.0447 975,-475.0447 1040,-475.0447 1040,-456.0447 975,-456.0447"/>
<text text-anchor="start" x="978" y="-462.1447" font-family="Helvetica,sans-Serif" font-size="11.00" fill="#000000">&lt; 4</text>
<polygon fill="#ffffff" stroke="transparent" points="1040,-456.0447 1040,-475.0447 1074,-475.0447 1074,-456.0447 1040,-456.0447"/>
<polygon fill="none" stroke="#000000" points="1040,-456.0447 1040,-475.0447 1074,-475.0447 1074,-456.0447 1040,-456.0447"/>
<text text-anchor="start" x="1064.8862" y="-462.1447" font-family="Helvetica,sans-Serif" font-size="11.00" fill="#000000"> &#160;</text>
<polygon fill="#ffffff" stroke="transparent" points="1074,-456.0447 1074,-475.0447 1117,-475.0447 1117,-456.0447 1074,-456.0447"/>
<polygon fill="none" stroke="#000000" points="1074,-456.0447 1074,-475.0447 1117,-475.0447 1117,-456.0447 1074,-456.0447"/>
<text text-anchor="start" x="1098.4053" y="-462.1447" font-family="Helvetica,sans-Serif" font-size="11.00" fill="#000000">1 &gt;</text>
</a>
</g>
</g>
<!-- patient_tracker&#45;&gt;users -->
<g id="edge31" class="edge">
<title>patient_tracker:w&#45;&gt;users:e</title>
<path fill="none" stroke="#000000" d="M960.7619,-479.7567C885.9335,-442.8576 659.7768,-179.8384 613,-162.0447 576.1328,-148.0206 286.7681,-135.0584 258,-162.0447 206.5988,-210.2624 287.9771,-795.0447 217.5,-795.0447"/>
<polygon fill="#000000" stroke="#000000" points="967.3398,-481.7377 973.9619,-487.4918 971.1699,-482.8912 975,-484.0447 975,-484.0447 975,-484.0447 971.1699,-482.8912 976.0381,-480.5977 967.3398,-481.7377 967.3398,-481.7377"/>
<ellipse fill="none" stroke="#000000" cx="964.2758" cy="-480.8149" rx="3.2" ry="3.2"/>
</g>
<!-- patient_tracker&#45;&gt;openemr_postcalendar_events -->
<g id="edge30" class="edge">
<title>patient_tracker:w&#45;&gt;openemr_postcalendar_events:e</title>
<path fill="none" stroke="#000000" d="M960.464,-484.0447C942.5711,-484.0447 924.0939,-484.0447 906.0595,-484.0447"/>
<polygon fill="#000000" stroke="#000000" points="967,-484.0448 975,-487.6447 971,-484.0448 975,-484.0447 975,-484.0447 975,-484.0447 971,-484.0448 975,-480.4447 967,-484.0448 967,-484.0448"/>
<ellipse fill="none" stroke="#000000" cx="963.8" cy="-484.0448" rx="3.2" ry="3.2"/>
</g>
<!-- patient_tracker&#45;&gt;patient_data -->
<g id="edge32" class="edge">
<title>patient_tracker:w&#45;&gt;patient_data:e</title>
<path fill="none" stroke="#000000" d="M961.6328,-489.9784C895.6762,-528.8061 633.2549,-745.3704 613,-756.0447 565.068,-781.3049 551.6808,-795.0447 497.5,-795.0447"/>
<polygon fill="#000000" stroke="#000000" points="967.688,-487.2905 976.4606,-487.3351 971.344,-485.6676 975,-484.0447 975,-484.0447 975,-484.0447 971.344,-485.6676 973.5394,-480.7543 967.688,-487.2905 967.688,-487.2905"/>
<ellipse fill="none" stroke="#000000" cx="964.7632" cy="-488.5889" rx="3.2" ry="3.2"/>
</g>
</g>
</svg>
