<?xml version="1.0" encoding="UTF-8" standalone="no"?>
<!DOCTYPE svg PUBLIC "-//W3C//DTD SVG 1.1//EN"
 "http://www.w3.org/Graphics/SVG/1.1/DTD/svg11.dtd">
<!-- Generated by graphviz version 2.40.1 (20161225.0304)
 -->
<!-- Title: oneDegreeRelationshipsDiagram Pages: 1 -->
<svg width="903pt" height="669pt"
 viewBox="0.00 0.00 903.00 668.70" xmlns="http://www.w3.org/2000/svg" xmlns:xlink="http://www.w3.org/1999/xlink">
<g id="graph0" class="graph" transform="scale(1 1) rotate(0) translate(4 664.7)">
<title>oneDegreeRelationshipsDiagram</title>
<polygon fill="#ffffff" stroke="transparent" points="-4,4 -4,-664.7 899,-664.7 899,4 -4,4"/>
<text text-anchor="middle" x="72.4936" y="-7.3" font-family="Helvetica,sans-Serif" font-size="11.00" fill="#000000">Generated by SchemaSpy</text>
<!-- form_groups_encounter -->
<g id="node1" class="node">
<title>form_groups_encounter</title>
<g id="a_node1"><a xlink:href="../../tables/form_groups_encounter.html" xlink:title="form_groups_encounter" target="_top">
<polygon fill="#ffffff" stroke="transparent" points="689,-397.7 689,-656.7 887,-656.7 887,-397.7 689,-397.7"/>
<polygon fill="#f5f5f5" stroke="transparent" points="689,-633.2 689,-656.2 887,-656.2 887,-633.2 689,-633.2"/>
<polygon fill="none" stroke="#000000" points="689,-633.2 689,-656.2 887,-656.2 887,-633.2 689,-633.2"/>
<text text-anchor="start" x="694" y="-641.8" font-family="Helvetica,sans-Serif" font-weight="bold" font-size="11.00" fill="#000000">form_groups_encounter</text>
<text text-anchor="start" x="852.5219" y="-641.3" font-family="Helvetica,sans-Serif" font-size="11.00" fill="#000000">[table]</text>
<polygon fill="none" stroke="#000000" points="689,-611.2 689,-633.2 887,-633.2 887,-611.2 689,-611.2"/>
<image xlink:href="../../images/primaryKeys.png" width="11px" height="12px" preserveAspectRatio="xMinYMin meet" x="694" y="-628.2"/>
<text text-anchor="start" x="718" y="-618.3" font-family="Helvetica,sans-Serif" font-size="11.00" fill="#000000">id</text>
<polygon fill="#ffffff" stroke="transparent" points="689,-589.2 689,-611.2 887,-611.2 887,-589.2 689,-589.2"/>
<polygon fill="none" stroke="#000000" points="689,-589.2 689,-611.2 887,-611.2 887,-589.2 689,-589.2"/>
<text text-anchor="start" x="718" y="-596.3" font-family="Helvetica,sans-Serif" font-size="11.00" fill="#000000">date</text>
<polygon fill="none" stroke="#000000" points="689,-567.2 689,-589.2 887,-589.2 887,-567.2 689,-567.2"/>
<image xlink:href="../../images/foreignKeys.png" width="11px" height="12px" preserveAspectRatio="xMinYMin meet" x="694" y="-584.2"/>
<text text-anchor="start" x="718" y="-574.3" font-family="Helvetica,sans-Serif" font-size="11.00" fill="#000000">facility_id</text>
<polygon fill="#ffffff" stroke="transparent" points="689,-545.2 689,-567.2 887,-567.2 887,-545.2 689,-545.2"/>
<polygon fill="none" stroke="#000000" points="689,-545.2 689,-567.2 887,-567.2 887,-545.2 689,-545.2"/>
<image xlink:href="../../images/foreignKeys.png" width="11px" height="12px" preserveAspectRatio="xMinYMin meet" x="694" y="-562.2"/>
<text text-anchor="start" x="718" y="-552.3" font-family="Helvetica,sans-Serif" font-size="11.00" fill="#000000">group_id</text>
<polygon fill="none" stroke="#000000" points="689,-523.2 689,-545.2 887,-545.2 887,-523.2 689,-523.2"/>
<image xlink:href="../../images/primaryKeys.png" width="11px" height="12px" preserveAspectRatio="xMinYMin meet" x="694" y="-540.2"/>
<text text-anchor="start" x="718" y="-530.3" font-family="Helvetica,sans-Serif" font-size="11.00" fill="#000000">encounter</text>
<polygon fill="none" stroke="#000000" points="689,-501.2 689,-523.2 887,-523.2 887,-501.2 689,-501.2"/>
<image xlink:href="../../images/foreignKeys.png" width="11px" height="12px" preserveAspectRatio="xMinYMin meet" x="694" y="-518.2"/>
<text text-anchor="start" x="718" y="-508.3" font-family="Helvetica,sans-Serif" font-size="11.00" fill="#000000">pc_catid</text>
<polygon fill="none" stroke="#000000" points="689,-479.2 689,-501.2 887,-501.2 887,-479.2 689,-479.2"/>
<image xlink:href="../../images/foreignKeys.png" width="11px" height="12px" preserveAspectRatio="xMinYMin meet" x="694" y="-496.2"/>
<text text-anchor="start" x="718" y="-486.3" font-family="Helvetica,sans-Serif" font-size="11.00" fill="#000000">provider_id</text>
<polygon fill="none" stroke="#000000" points="689,-457.2 689,-479.2 887,-479.2 887,-457.2 689,-457.2"/>
<image xlink:href="../../images/foreignKeys.png" width="11px" height="12px" preserveAspectRatio="xMinYMin meet" x="694" y="-474.2"/>
<text text-anchor="start" x="718" y="-464.3" font-family="Helvetica,sans-Serif" font-size="11.00" fill="#000000">supervisor_id</text>
<polygon fill="none" stroke="#000000" points="689,-435.2 689,-457.2 887,-457.2 887,-435.2 689,-435.2"/>
<image xlink:href="../../images/foreignKeys.png" width="11px" height="12px" preserveAspectRatio="xMinYMin meet" x="694" y="-452.2"/>
<text text-anchor="start" x="718" y="-442.3" font-family="Helvetica,sans-Serif" font-size="11.00" fill="#000000">appt_id</text>
<polygon fill="none" stroke="#000000" points="689,-416.2 689,-435.2 887,-435.2 887,-416.2 689,-416.2"/>
<text text-anchor="start" x="692" y="-422.3" font-family="Helvetica,sans-Serif" font-size="11.00" fill="#000000">...</text>
<polygon fill="#ffffff" stroke="transparent" points="689,-397.2 689,-416.2 782,-416.2 782,-397.2 689,-397.2"/>
<polygon fill="none" stroke="#000000" points="689,-397.2 689,-416.2 782,-416.2 782,-397.2 689,-397.2"/>
<text text-anchor="start" x="692" y="-403.3" font-family="Helvetica,sans-Serif" font-size="11.00" fill="#000000">&lt; 7</text>
<polygon fill="#ffffff" stroke="transparent" points="782,-397.2 782,-416.2 830,-416.2 830,-397.2 782,-397.2"/>
<polygon fill="none" stroke="#000000" points="782,-397.2 782,-416.2 830,-416.2 830,-397.2 782,-397.2"/>
<text text-anchor="start" x="820.8862" y="-403.3" font-family="Helvetica,sans-Serif" font-size="11.00" fill="#000000"> &#160;</text>
<polygon fill="#ffffff" stroke="transparent" points="830,-397.2 830,-416.2 887,-416.2 887,-397.2 830,-397.2"/>
<polygon fill="none" stroke="#000000" points="830,-397.2 830,-416.2 887,-416.2 887,-397.2 830,-397.2"/>
<text text-anchor="start" x="868.4053" y="-403.3" font-family="Helvetica,sans-Serif" font-size="11.00" fill="#000000">1 &gt;</text>
</a>
</g>
</g>
<!-- openemr_postcalendar_events -->
<g id="node2" class="node">
<title>openemr_postcalendar_events</title>
<g id="a_node2"><a xlink:href="../../tables/openemr_postcalendar_events.html" xlink:title="openemr_postcalendar_events" target="_top">
<polygon fill="#ffffff" stroke="transparent" points="396,-113.7 396,-482.7 640,-482.7 640,-113.7 396,-113.7"/>
<polygon fill="#f5f5f5" stroke="transparent" points="396,-459.2 396,-482.2 640,-482.2 640,-459.2 396,-459.2"/>
<polygon fill="none" stroke="#000000" points="396,-459.2 396,-482.2 640,-482.2 640,-459.2 396,-459.2"/>
<text text-anchor="start" x="401" y="-467.8" font-family="Helvetica,sans-Serif" font-weight="bold" font-size="11.00" fill="#000000">openemr_postcalendar_events</text>
<text text-anchor="start" x="605.5219" y="-467.3" font-family="Helvetica,sans-Serif" font-size="11.00" fill="#000000">[table]</text>
<polygon fill="none" stroke="#000000" points="396,-437.2 396,-459.2 640,-459.2 640,-437.2 396,-437.2"/>
<image xlink:href="../../images/primaryKeys.png" width="11px" height="12px" preserveAspectRatio="xMinYMin meet" x="401" y="-454.2"/>
<text text-anchor="start" x="425" y="-444.3" font-family="Helvetica,sans-Serif" font-size="11.00" fill="#000000">pc_eid</text>
<polygon fill="#ffffff" stroke="transparent" points="396,-415.2 396,-437.2 640,-437.2 640,-415.2 396,-415.2"/>
<polygon fill="none" stroke="#000000" points="396,-415.2 396,-437.2 640,-437.2 640,-415.2 396,-415.2"/>
<image xlink:href="../../images/foreignKeys.png" width="11px" height="12px" preserveAspectRatio="xMinYMin meet" x="401" y="-432.2"/>
<text text-anchor="start" x="425" y="-422.3" font-family="Helvetica,sans-Serif" font-size="11.00" fill="#000000">pc_catid</text>
<polygon fill="#ffffff" stroke="transparent" points="396,-393.2 396,-415.2 640,-415.2 640,-393.2 396,-393.2"/>
<polygon fill="none" stroke="#000000" points="396,-393.2 396,-415.2 640,-415.2 640,-393.2 396,-393.2"/>
<image xlink:href="../../images/foreignKeys.png" width="11px" height="12px" preserveAspectRatio="xMinYMin meet" x="401" y="-410.2"/>
<text text-anchor="start" x="425" y="-400.3" font-family="Helvetica,sans-Serif" font-size="11.00" fill="#000000">pc_aid</text>
<polygon fill="none" stroke="#000000" points="396,-371.2 396,-393.2 640,-393.2 640,-371.2 396,-371.2"/>
<image xlink:href="../../images/foreignKeys.png" width="11px" height="12px" preserveAspectRatio="xMinYMin meet" x="401" y="-388.2"/>
<text text-anchor="start" x="425" y="-378.3" font-family="Helvetica,sans-Serif" font-size="11.00" fill="#000000">pc_pid</text>
<polygon fill="none" stroke="#000000" points="396,-349.2 396,-371.2 640,-371.2 640,-349.2 396,-349.2"/>
<image xlink:href="../../images/foreignKeys.png" width="11px" height="12px" preserveAspectRatio="xMinYMin meet" x="401" y="-366.2"/>
<text text-anchor="start" x="425" y="-356.3" font-family="Helvetica,sans-Serif" font-size="11.00" fill="#000000">pc_gid</text>
<polygon fill="#ffffff" stroke="transparent" points="396,-327.2 396,-349.2 640,-349.2 640,-327.2 396,-327.2"/>
<polygon fill="none" stroke="#000000" points="396,-327.2 396,-349.2 640,-349.2 640,-327.2 396,-327.2"/>
<text text-anchor="start" x="425" y="-334.3" font-family="Helvetica,sans-Serif" font-size="11.00" fill="#000000">pc_topic</text>
<polygon fill="#ffffff" stroke="transparent" points="396,-305.2 396,-327.2 640,-327.2 640,-305.2 396,-305.2"/>
<polygon fill="none" stroke="#000000" points="396,-305.2 396,-327.2 640,-327.2 640,-305.2 396,-305.2"/>
<text text-anchor="start" x="425" y="-312.3" font-family="Helvetica,sans-Serif" font-size="11.00" fill="#000000">pc_eventDate</text>
<polygon fill="#ffffff" stroke="transparent" points="396,-283.2 396,-305.2 640,-305.2 640,-283.2 396,-283.2"/>
<polygon fill="none" stroke="#000000" points="396,-283.2 396,-305.2 640,-305.2 640,-283.2 396,-283.2"/>
<text text-anchor="start" x="425" y="-290.3" font-family="Helvetica,sans-Serif" font-size="11.00" fill="#000000">pc_endDate</text>
<polygon fill="#ffffff" stroke="transparent" points="396,-261.2 396,-283.2 640,-283.2 640,-261.2 396,-261.2"/>
<polygon fill="none" stroke="#000000" points="396,-261.2 396,-283.2 640,-283.2 640,-261.2 396,-261.2"/>
<text text-anchor="start" x="425" y="-268.3" font-family="Helvetica,sans-Serif" font-size="11.00" fill="#000000">pc_eventstatus</text>
<polygon fill="#ffffff" stroke="transparent" points="396,-239.2 396,-261.2 640,-261.2 640,-239.2 396,-239.2"/>
<polygon fill="none" stroke="#000000" points="396,-239.2 396,-261.2 640,-261.2 640,-239.2 396,-239.2"/>
<text text-anchor="start" x="425" y="-246.3" font-family="Helvetica,sans-Serif" font-size="11.00" fill="#000000">pc_sharing</text>
<polygon fill="none" stroke="#000000" points="396,-217.2 396,-239.2 640,-239.2 640,-217.2 396,-217.2"/>
<image xlink:href="../../images/foreignKeys.png" width="11px" height="12px" preserveAspectRatio="xMinYMin meet" x="401" y="-234.2"/>
<text text-anchor="start" x="425" y="-224.3" font-family="Helvetica,sans-Serif" font-size="11.00" fill="#000000">pc_apptstatus</text>
<polygon fill="none" stroke="#000000" points="396,-195.2 396,-217.2 640,-217.2 640,-195.2 396,-195.2"/>
<image xlink:href="../../images/foreignKeys.png" width="11px" height="12px" preserveAspectRatio="xMinYMin meet" x="401" y="-212.2"/>
<text text-anchor="start" x="425" y="-202.3" font-family="Helvetica,sans-Serif" font-size="11.00" fill="#000000">pc_facility</text>
<polygon fill="none" stroke="#000000" points="396,-173.2 396,-195.2 640,-195.2 640,-173.2 396,-173.2"/>
<image xlink:href="../../images/foreignKeys.png" width="11px" height="12px" preserveAspectRatio="xMinYMin meet" x="401" y="-190.2"/>
<text text-anchor="start" x="425" y="-180.3" font-family="Helvetica,sans-Serif" font-size="11.00" fill="#000000">pc_room</text>
<polygon fill="#ffffff" stroke="transparent" points="396,-151.2 396,-173.2 640,-173.2 640,-151.2 396,-151.2"/>
<polygon fill="none" stroke="#000000" points="396,-151.2 396,-173.2 640,-173.2 640,-151.2 396,-151.2"/>
<text text-anchor="start" x="425" y="-158.3" font-family="Helvetica,sans-Serif" font-size="11.00" fill="#000000">uuid</text>
<polygon fill="none" stroke="#000000" points="396,-132.2 396,-151.2 640,-151.2 640,-132.2 396,-132.2"/>
<text text-anchor="start" x="399" y="-138.3" font-family="Helvetica,sans-Serif" font-size="11.00" fill="#000000">...</text>
<polygon fill="#ffffff" stroke="transparent" points="396,-113.2 396,-132.2 512,-132.2 512,-113.2 396,-113.2"/>
<polygon fill="none" stroke="#000000" points="396,-113.2 396,-132.2 512,-132.2 512,-113.2 396,-113.2"/>
<text text-anchor="start" x="399" y="-119.3" font-family="Helvetica,sans-Serif" font-size="11.00" fill="#000000">&lt; 7</text>
<polygon fill="#ffffff" stroke="transparent" points="512,-113.2 512,-132.2 571,-132.2 571,-113.2 512,-113.2"/>
<polygon fill="none" stroke="#000000" points="512,-113.2 512,-132.2 571,-132.2 571,-113.2 512,-113.2"/>
<text text-anchor="start" x="561.8862" y="-119.3" font-family="Helvetica,sans-Serif" font-size="11.00" fill="#000000"> &#160;</text>
<polygon fill="#ffffff" stroke="transparent" points="571,-113.2 571,-132.2 640,-132.2 640,-113.2 571,-113.2"/>
<polygon fill="none" stroke="#000000" points="571,-113.2 571,-132.2 640,-132.2 640,-113.2 571,-113.2"/>
<text text-anchor="start" x="621.4053" y="-119.3" font-family="Helvetica,sans-Serif" font-size="11.00" fill="#000000">2 &gt;</text>
</a>
</g>
</g>
<!-- form_groups_encounter&#45;&gt;openemr_postcalendar_events -->
<g id="edge1" class="edge">
<title>form_groups_encounter:w&#45;&gt;openemr_postcalendar_events:e</title>
<path fill="none" stroke="#000000" d="M674.4859,-446.5484C663.1747,-447.1214 656.0064,-448.2 640,-448.2"/>
<polygon fill="#000000" stroke="#000000" points="681.0023,-446.392 689.0864,-449.799 685.0012,-446.296 689,-446.2 689,-446.2 689,-446.2 685.0012,-446.296 688.9136,-442.601 681.0023,-446.392 681.0023,-446.392"/>
<ellipse fill="none" stroke="#000000" cx="677.8032" cy="-446.4688" rx="3.2" ry="3.2"/>
</g>
<!-- openemr_postcalendar_categories -->
<g id="node3" class="node">
<title>openemr_postcalendar_categories</title>
<g id="a_node3"><a xlink:href="../../tables/openemr_postcalendar_categories.html" xlink:title="openemr_postcalendar_categories" target="_top">
<polygon fill="#ffffff" stroke="transparent" points="8,-38.2 8,-502.2 347,-502.2 347,-38.2 8,-38.2"/>
<polygon fill="#f5f5f5" stroke="transparent" points="10.5,-477.2 10.5,-500.2 345.5,-500.2 345.5,-477.2 10.5,-477.2"/>
<polygon fill="none" stroke="#000000" points="10.5,-477.2 10.5,-500.2 345.5,-500.2 345.5,-477.2 10.5,-477.2"/>
<text text-anchor="start" x="15.5" y="-485.8" font-family="Helvetica,sans-Serif" font-weight="bold" font-size="11.00" fill="#000000">openemr_postcalendar_categories</text>
<text text-anchor="start" x="310.5437" y="-485.3" font-family="Helvetica,sans-Serif" font-size="11.00" fill="#000000">[table]</text>
<polygon fill="none" stroke="#000000" points="10.5,-455.2 10.5,-477.2 262.5,-477.2 262.5,-455.2 10.5,-455.2"/>
<image xlink:href="../../images/primaryKeys.png" width="11px" height="12px" preserveAspectRatio="xMinYMin meet" x="15.5" y="-472.2"/>
<text text-anchor="start" x="30.5" y="-462.3" font-family="Helvetica,sans-Serif" font-size="11.00" fill="#000000">pc_catid</text>
<polygon fill="none" stroke="#000000" points="262.5,-455.2 262.5,-477.2 345.5,-477.2 345.5,-455.2 262.5,-455.2"/>
<text text-anchor="start" x="265.1783" y="-462.9" font-family="Helvetica,sans-Serif" font-size="11.00" fill="#000000">int unsigned[10]</text>
<polygon fill="#ffffff" stroke="transparent" points="10.5,-433.2 10.5,-455.2 262.5,-455.2 262.5,-433.2 10.5,-433.2"/>
<polygon fill="none" stroke="#000000" points="10.5,-433.2 10.5,-455.2 262.5,-455.2 262.5,-433.2 10.5,-433.2"/>
<text text-anchor="start" x="30.5" y="-440.3" font-family="Helvetica,sans-Serif" font-size="11.00" fill="#000000">pc_constant_id</text>
<polygon fill="none" stroke="#000000" points="262.5,-433.2 262.5,-455.2 345.5,-455.2 345.5,-433.2 262.5,-433.2"/>
<text text-anchor="start" x="265.5" y="-440.9" font-family="Helvetica,sans-Serif" font-size="11.00" fill="#000000">varchar[255]</text>
<polygon fill="#ffffff" stroke="transparent" points="10.5,-411.2 10.5,-433.2 262.5,-433.2 262.5,-411.2 10.5,-411.2"/>
<polygon fill="none" stroke="#000000" points="10.5,-411.2 10.5,-433.2 262.5,-433.2 262.5,-411.2 10.5,-411.2"/>
<text text-anchor="start" x="30.5" y="-418.3" font-family="Helvetica,sans-Serif" font-size="11.00" fill="#000000">pc_catname</text>
<polygon fill="none" stroke="#000000" points="262.5,-411.2 262.5,-433.2 345.5,-433.2 345.5,-411.2 262.5,-411.2"/>
<text text-anchor="start" x="265.5" y="-418.9" font-family="Helvetica,sans-Serif" font-size="11.00" fill="#000000">varchar[100]</text>
<polygon fill="#ffffff" stroke="transparent" points="10.5,-389.2 10.5,-411.2 262.5,-411.2 262.5,-389.2 10.5,-389.2"/>
<polygon fill="none" stroke="#000000" points="10.5,-389.2 10.5,-411.2 262.5,-411.2 262.5,-389.2 10.5,-389.2"/>
<text text-anchor="start" x="30.5" y="-396.3" font-family="Helvetica,sans-Serif" font-size="11.00" fill="#000000">pc_catcolor</text>
<polygon fill="none" stroke="#000000" points="262.5,-389.2 262.5,-411.2 345.5,-411.2 345.5,-389.2 262.5,-389.2"/>
<text text-anchor="start" x="265.5" y="-396.9" font-family="Helvetica,sans-Serif" font-size="11.00" fill="#000000">varchar[50]</text>
<polygon fill="none" stroke="#000000" points="10.5,-367.2 10.5,-389.2 262.5,-389.2 262.5,-367.2 10.5,-367.2"/>
<text text-anchor="start" x="30.5" y="-374.3" font-family="Helvetica,sans-Serif" font-size="11.00" fill="#000000">pc_catdesc</text>
<polygon fill="none" stroke="#000000" points="262.5,-367.2 262.5,-389.2 345.5,-389.2 345.5,-367.2 262.5,-367.2"/>
<text text-anchor="start" x="265.5" y="-374.9" font-family="Helvetica,sans-Serif" font-size="11.00" fill="#000000">text[65535]</text>
<polygon fill="none" stroke="#000000" points="10.5,-345.2 10.5,-367.2 262.5,-367.2 262.5,-345.2 10.5,-345.2"/>
<text text-anchor="start" x="30.5" y="-352.3" font-family="Helvetica,sans-Serif" font-size="11.00" fill="#000000">pc_recurrtype</text>
<polygon fill="none" stroke="#000000" points="262.5,-345.2 262.5,-367.2 345.5,-367.2 345.5,-345.2 262.5,-345.2"/>
<text text-anchor="start" x="265.5" y="-352.9" font-family="Helvetica,sans-Serif" font-size="11.00" fill="#000000">int[10]</text>
<polygon fill="none" stroke="#000000" points="10.5,-323.2 10.5,-345.2 262.5,-345.2 262.5,-323.2 10.5,-323.2"/>
<text text-anchor="start" x="30.5" y="-330.3" font-family="Helvetica,sans-Serif" font-size="11.00" fill="#000000">pc_enddate</text>
<polygon fill="none" stroke="#000000" points="262.5,-323.2 262.5,-345.2 345.5,-345.2 345.5,-323.2 262.5,-323.2"/>
<text text-anchor="start" x="265.5" y="-330.9" font-family="Helvetica,sans-Serif" font-size="11.00" fill="#000000">date[10]</text>
<polygon fill="none" stroke="#000000" points="10.5,-301.2 10.5,-323.2 262.5,-323.2 262.5,-301.2 10.5,-301.2"/>
<text text-anchor="start" x="30.5" y="-308.3" font-family="Helvetica,sans-Serif" font-size="11.00" fill="#000000">pc_recurrspec</text>
<polygon fill="none" stroke="#000000" points="262.5,-301.2 262.5,-323.2 345.5,-323.2 345.5,-301.2 262.5,-301.2"/>
<text text-anchor="start" x="265.5" y="-308.9" font-family="Helvetica,sans-Serif" font-size="11.00" fill="#000000">text[65535]</text>
<polygon fill="none" stroke="#000000" points="10.5,-279.2 10.5,-301.2 262.5,-301.2 262.5,-279.2 10.5,-279.2"/>
<text text-anchor="start" x="30.5" y="-286.3" font-family="Helvetica,sans-Serif" font-size="11.00" fill="#000000">pc_recurrfreq</text>
<polygon fill="none" stroke="#000000" points="262.5,-279.2 262.5,-301.2 345.5,-301.2 345.5,-279.2 262.5,-279.2"/>
<text text-anchor="start" x="265.5" y="-286.9" font-family="Helvetica,sans-Serif" font-size="11.00" fill="#000000">int[10]</text>
<polygon fill="none" stroke="#000000" points="10.5,-257.2 10.5,-279.2 262.5,-279.2 262.5,-257.2 10.5,-257.2"/>
<text text-anchor="start" x="30.5" y="-264.3" font-family="Helvetica,sans-Serif" font-size="11.00" fill="#000000">pc_duration</text>
<polygon fill="none" stroke="#000000" points="262.5,-257.2 262.5,-279.2 345.5,-279.2 345.5,-257.2 262.5,-257.2"/>
<text text-anchor="start" x="265.5" y="-264.9" font-family="Helvetica,sans-Serif" font-size="11.00" fill="#000000">bigint[19]</text>
<polygon fill="none" stroke="#000000" points="10.5,-235.2 10.5,-257.2 262.5,-257.2 262.5,-235.2 10.5,-235.2"/>
<text text-anchor="start" x="30.5" y="-242.3" font-family="Helvetica,sans-Serif" font-size="11.00" fill="#000000">pc_end_date_flag</text>
<polygon fill="none" stroke="#000000" points="262.5,-235.2 262.5,-257.2 345.5,-257.2 345.5,-235.2 262.5,-235.2"/>
<text text-anchor="start" x="265.5" y="-242.9" font-family="Helvetica,sans-Serif" font-size="11.00" fill="#000000">bit[1]</text>
<polygon fill="none" stroke="#000000" points="10.5,-213.2 10.5,-235.2 262.5,-235.2 262.5,-213.2 10.5,-213.2"/>
<text text-anchor="start" x="30.5" y="-220.3" font-family="Helvetica,sans-Serif" font-size="11.00" fill="#000000">pc_end_date_type</text>
<polygon fill="none" stroke="#000000" points="262.5,-213.2 262.5,-235.2 345.5,-235.2 345.5,-213.2 262.5,-213.2"/>
<text text-anchor="start" x="265.5" y="-220.9" font-family="Helvetica,sans-Serif" font-size="11.00" fill="#000000">int[10]</text>
<polygon fill="none" stroke="#000000" points="10.5,-191.2 10.5,-213.2 262.5,-213.2 262.5,-191.2 10.5,-191.2"/>
<text text-anchor="start" x="30.5" y="-198.3" font-family="Helvetica,sans-Serif" font-size="11.00" fill="#000000">pc_end_date_freq</text>
<polygon fill="none" stroke="#000000" points="262.5,-191.2 262.5,-213.2 345.5,-213.2 345.5,-191.2 262.5,-191.2"/>
<text text-anchor="start" x="265.5" y="-198.9" font-family="Helvetica,sans-Serif" font-size="11.00" fill="#000000">int[10]</text>
<polygon fill="none" stroke="#000000" points="10.5,-169.2 10.5,-191.2 262.5,-191.2 262.5,-169.2 10.5,-169.2"/>
<text text-anchor="start" x="30.5" y="-176.3" font-family="Helvetica,sans-Serif" font-size="11.00" fill="#000000">pc_end_all_day</text>
<polygon fill="none" stroke="#000000" points="262.5,-169.2 262.5,-191.2 345.5,-191.2 345.5,-169.2 262.5,-169.2"/>
<text text-anchor="start" x="265.5" y="-176.9" font-family="Helvetica,sans-Serif" font-size="11.00" fill="#000000">bit[1]</text>
<polygon fill="none" stroke="#000000" points="10.5,-147.2 10.5,-169.2 262.5,-169.2 262.5,-147.2 10.5,-147.2"/>
<text text-anchor="start" x="30.5" y="-154.3" font-family="Helvetica,sans-Serif" font-size="11.00" fill="#000000">pc_dailylimit</text>
<polygon fill="none" stroke="#000000" points="262.5,-147.2 262.5,-169.2 345.5,-169.2 345.5,-147.2 262.5,-147.2"/>
<text text-anchor="start" x="265.5" y="-154.9" font-family="Helvetica,sans-Serif" font-size="11.00" fill="#000000">int[10]</text>
<polygon fill="none" stroke="#000000" points="10.5,-125.2 10.5,-147.2 262.5,-147.2 262.5,-125.2 10.5,-125.2"/>
<text text-anchor="start" x="30.5" y="-132.3" font-family="Helvetica,sans-Serif" font-size="11.00" fill="#000000">pc_cattype</text>
<polygon fill="none" stroke="#000000" points="262.5,-125.2 262.5,-147.2 345.5,-147.2 345.5,-125.2 262.5,-125.2"/>
<text text-anchor="start" x="265.5" y="-132.9" font-family="Helvetica,sans-Serif" font-size="11.00" fill="#000000">int[10]</text>
<polygon fill="none" stroke="#000000" points="10.5,-103.2 10.5,-125.2 262.5,-125.2 262.5,-103.2 10.5,-103.2"/>
<text text-anchor="start" x="30.5" y="-110.3" font-family="Helvetica,sans-Serif" font-size="11.00" fill="#000000">pc_active</text>
<polygon fill="none" stroke="#000000" points="262.5,-103.2 262.5,-125.2 345.5,-125.2 345.5,-103.2 262.5,-103.2"/>
<text text-anchor="start" x="265.5" y="-110.9" font-family="Helvetica,sans-Serif" font-size="11.00" fill="#000000">bit[1]</text>
<polygon fill="none" stroke="#000000" points="10.5,-81.2 10.5,-103.2 262.5,-103.2 262.5,-81.2 10.5,-81.2"/>
<text text-anchor="start" x="30.5" y="-88.3" font-family="Helvetica,sans-Serif" font-size="11.00" fill="#000000">pc_seq</text>
<polygon fill="none" stroke="#000000" points="262.5,-81.2 262.5,-103.2 345.5,-103.2 345.5,-81.2 262.5,-81.2"/>
<text text-anchor="start" x="265.5" y="-88.9" font-family="Helvetica,sans-Serif" font-size="11.00" fill="#000000">int[10]</text>
<polygon fill="none" stroke="#000000" points="10.5,-59.2 10.5,-81.2 262.5,-81.2 262.5,-59.2 10.5,-59.2"/>
<text text-anchor="start" x="30.5" y="-66.3" font-family="Helvetica,sans-Serif" font-size="11.00" fill="#000000">aco_spec</text>
<polygon fill="none" stroke="#000000" points="262.5,-59.2 262.5,-81.2 345.5,-81.2 345.5,-59.2 262.5,-59.2"/>
<text text-anchor="start" x="265.5" y="-66.9" font-family="Helvetica,sans-Serif" font-size="11.00" fill="#000000">varchar[63]</text>
<polygon fill="#ffffff" stroke="transparent" points="10.5,-40.2 10.5,-59.2 140.5,-59.2 140.5,-40.2 10.5,-40.2"/>
<polygon fill="none" stroke="#000000" points="10.5,-40.2 10.5,-59.2 140.5,-59.2 140.5,-40.2 10.5,-40.2"/>
<text text-anchor="start" x="13.5" y="-46.3" font-family="Helvetica,sans-Serif" font-size="11.00" fill="#000000">&lt; 0</text>
<polygon fill="#ffffff" stroke="transparent" points="140.5,-40.2 140.5,-59.2 262.5,-59.2 262.5,-40.2 140.5,-40.2"/>
<polygon fill="none" stroke="#000000" points="140.5,-40.2 140.5,-59.2 262.5,-59.2 262.5,-40.2 140.5,-40.2"/>
<text text-anchor="start" x="253.3862" y="-46.3" font-family="Helvetica,sans-Serif" font-size="11.00" fill="#000000"> &#160;</text>
<polygon fill="#ffffff" stroke="transparent" points="262.5,-40.2 262.5,-59.2 345.5,-59.2 345.5,-40.2 262.5,-40.2"/>
<polygon fill="none" stroke="#000000" points="262.5,-40.2 262.5,-59.2 345.5,-59.2 345.5,-40.2 262.5,-40.2"/>
<text text-anchor="start" x="326.9053" y="-46.3" font-family="Helvetica,sans-Serif" font-size="11.00" fill="#000000">2 &gt;</text>
<polygon fill="none" stroke="#000000" stroke-width="2" points="9,-39.2 9,-501.2 346,-501.2 346,-39.2 9,-39.2"/>
</a>
</g>
</g>
<!-- form_groups_encounter&#45;&gt;openemr_postcalendar_categories -->
<g id="edge2" class="edge">
<title>form_groups_encounter:w&#45;&gt;openemr_postcalendar_categories:e</title>
<path fill="none" stroke="#000000" d="M674.4584,-512.2884C551.9041,-513.7793 510.7389,-533.127 388,-493.2 366.7193,-486.2774 367.8783,-466.2 345.5,-466.2"/>
<polygon fill="#000000" stroke="#000000" points="681.0001,-512.2487 689.0219,-515.7999 685.0001,-512.2243 689,-512.2 689,-512.2 689,-512.2 685.0001,-512.2243 688.9781,-508.6001 681.0001,-512.2487 681.0001,-512.2487"/>
<ellipse fill="none" stroke="#000000" cx="677.8002" cy="-512.2682" rx="3.2" ry="3.2"/>
</g>
<!-- openemr_postcalendar_events&#45;&gt;openemr_postcalendar_categories -->
<g id="edge3" class="edge">
<title>openemr_postcalendar_events:w&#45;&gt;openemr_postcalendar_categories:e</title>
<path fill="none" stroke="#000000" d="M381.9416,-430.7885C368.6466,-441.2952 368.0926,-466.2 345.5,-466.2"/>
<polygon fill="#000000" stroke="#000000" points="388.3948,-428.6823 397.117,-429.6223 392.1974,-427.4411 396,-426.2 396,-426.2 396,-426.2 392.1974,-427.4411 394.883,-422.7777 388.3948,-428.6823 388.3948,-428.6823"/>
<ellipse fill="none" stroke="#000000" cx="385.3528" cy="-429.6752" rx="3.2" ry="3.2"/>
</g>
</g>
</svg>
