<?xml version="1.0" encoding="UTF-8" standalone="no"?>
<!DOCTYPE svg PUBLIC "-//W3C//DTD SVG 1.1//EN"
 "http://www.w3.org/Graphics/SVG/1.1/DTD/svg11.dtd">
<!-- Generated by graphviz version 2.40.1 (20161225.0304)
 -->
<!-- Title: oneDegreeRelationshipsDiagram Pages: 1 -->
<svg width="242pt" height="338pt"
 viewBox="0.00 0.00 242.00 338.20" xmlns="http://www.w3.org/2000/svg" xmlns:xlink="http://www.w3.org/1999/xlink">
<g id="graph0" class="graph" transform="scale(1 1) rotate(0) translate(4 334.2)">
<title>oneDegreeRelationshipsDiagram</title>
<polygon fill="#ffffff" stroke="transparent" points="-4,4 -4,-334.2 238,-334.2 238,4 -4,4"/>
<text text-anchor="middle" x="72.4936" y="-7.3" font-family="Helvetica,sans-Serif" font-size="11.00" fill="#000000">Generated by SchemaSpy</text>
<!-- openemr_modules -->
<g id="node1" class="node">
<title>openemr_modules</title>
<g id="a_node1"><a xlink:href="../../tables/openemr_modules.html" xlink:title="openemr_modules" target="_top">
<polygon fill="#ffffff" stroke="transparent" points="8,-38.2 8,-326.2 226,-326.2 226,-38.2 8,-38.2"/>
<polygon fill="#f5f5f5" stroke="transparent" points="10,-301.2 10,-324.2 224,-324.2 224,-301.2 10,-301.2"/>
<polygon fill="none" stroke="#000000" points="10,-301.2 10,-324.2 224,-324.2 224,-301.2 10,-301.2"/>
<text text-anchor="start" x="15" y="-309.8" font-family="Helvetica,sans-Serif" font-weight="bold" font-size="11.00" fill="#000000">openemr_modules</text>
<text text-anchor="start" x="189.0437" y="-309.3" font-family="Helvetica,sans-Serif" font-size="11.00" fill="#000000">[table]</text>
<polygon fill="none" stroke="#000000" points="10,-279.2 10,-301.2 141,-301.2 141,-279.2 10,-279.2"/>
<image xlink:href="../../images/primaryKeys.png" width="11px" height="12px" preserveAspectRatio="xMinYMin meet" x="15" y="-296.2"/>
<text text-anchor="start" x="30" y="-286.3" font-family="Helvetica,sans-Serif" font-size="11.00" fill="#000000">pn_id</text>
<polygon fill="none" stroke="#000000" points="141,-279.2 141,-301.2 224,-301.2 224,-279.2 141,-279.2"/>
<text text-anchor="start" x="143.6783" y="-286.9" font-family="Helvetica,sans-Serif" font-size="11.00" fill="#000000">int unsigned[10]</text>
<polygon fill="none" stroke="#000000" points="10,-257.2 10,-279.2 141,-279.2 141,-257.2 10,-257.2"/>
<text text-anchor="start" x="30" y="-264.3" font-family="Helvetica,sans-Serif" font-size="11.00" fill="#000000">pn_name</text>
<polygon fill="none" stroke="#000000" points="141,-257.2 141,-279.2 224,-279.2 224,-257.2 141,-257.2"/>
<text text-anchor="start" x="144" y="-264.9" font-family="Helvetica,sans-Serif" font-size="11.00" fill="#000000">varchar[64]</text>
<polygon fill="none" stroke="#000000" points="10,-235.2 10,-257.2 141,-257.2 141,-235.2 10,-235.2"/>
<text text-anchor="start" x="30" y="-242.3" font-family="Helvetica,sans-Serif" font-size="11.00" fill="#000000">pn_type</text>
<polygon fill="none" stroke="#000000" points="141,-235.2 141,-257.2 224,-257.2 224,-235.2 141,-235.2"/>
<text text-anchor="start" x="144" y="-242.9" font-family="Helvetica,sans-Serif" font-size="11.00" fill="#000000">int[10]</text>
<polygon fill="none" stroke="#000000" points="10,-213.2 10,-235.2 141,-235.2 141,-213.2 10,-213.2"/>
<text text-anchor="start" x="30" y="-220.3" font-family="Helvetica,sans-Serif" font-size="11.00" fill="#000000">pn_displayname</text>
<polygon fill="none" stroke="#000000" points="141,-213.2 141,-235.2 224,-235.2 224,-213.2 141,-213.2"/>
<text text-anchor="start" x="144" y="-220.9" font-family="Helvetica,sans-Serif" font-size="11.00" fill="#000000">varchar[64]</text>
<polygon fill="none" stroke="#000000" points="10,-191.2 10,-213.2 141,-213.2 141,-191.2 10,-191.2"/>
<text text-anchor="start" x="30" y="-198.3" font-family="Helvetica,sans-Serif" font-size="11.00" fill="#000000">pn_description</text>
<polygon fill="none" stroke="#000000" points="141,-191.2 141,-213.2 224,-213.2 224,-191.2 141,-191.2"/>
<text text-anchor="start" x="144" y="-198.9" font-family="Helvetica,sans-Serif" font-size="11.00" fill="#000000">varchar[255]</text>
<polygon fill="none" stroke="#000000" points="10,-169.2 10,-191.2 141,-191.2 141,-169.2 10,-169.2"/>
<text text-anchor="start" x="30" y="-176.3" font-family="Helvetica,sans-Serif" font-size="11.00" fill="#000000">pn_regid</text>
<polygon fill="none" stroke="#000000" points="141,-169.2 141,-191.2 224,-191.2 224,-169.2 141,-169.2"/>
<text text-anchor="start" x="143.6783" y="-176.9" font-family="Helvetica,sans-Serif" font-size="11.00" fill="#000000">int unsigned[10]</text>
<polygon fill="none" stroke="#000000" points="10,-147.2 10,-169.2 141,-169.2 141,-147.2 10,-147.2"/>
<text text-anchor="start" x="30" y="-154.3" font-family="Helvetica,sans-Serif" font-size="11.00" fill="#000000">pn_directory</text>
<polygon fill="none" stroke="#000000" points="141,-147.2 141,-169.2 224,-169.2 224,-147.2 141,-147.2"/>
<text text-anchor="start" x="144" y="-154.9" font-family="Helvetica,sans-Serif" font-size="11.00" fill="#000000">varchar[64]</text>
<polygon fill="none" stroke="#000000" points="10,-125.2 10,-147.2 141,-147.2 141,-125.2 10,-125.2"/>
<text text-anchor="start" x="30" y="-132.3" font-family="Helvetica,sans-Serif" font-size="11.00" fill="#000000">pn_version</text>
<polygon fill="none" stroke="#000000" points="141,-125.2 141,-147.2 224,-147.2 224,-125.2 141,-125.2"/>
<text text-anchor="start" x="144" y="-132.9" font-family="Helvetica,sans-Serif" font-size="11.00" fill="#000000">varchar[10]</text>
<polygon fill="none" stroke="#000000" points="10,-103.2 10,-125.2 141,-125.2 141,-103.2 10,-103.2"/>
<text text-anchor="start" x="30" y="-110.3" font-family="Helvetica,sans-Serif" font-size="11.00" fill="#000000">pn_admin_capable</text>
<polygon fill="none" stroke="#000000" points="141,-103.2 141,-125.2 224,-125.2 224,-103.2 141,-103.2"/>
<text text-anchor="start" x="144" y="-110.9" font-family="Helvetica,sans-Serif" font-size="11.00" fill="#000000">boolean[3]</text>
<polygon fill="none" stroke="#000000" points="10,-81.2 10,-103.2 141,-103.2 141,-81.2 10,-81.2"/>
<text text-anchor="start" x="30" y="-88.3" font-family="Helvetica,sans-Serif" font-size="11.00" fill="#000000">pn_user_capable</text>
<polygon fill="none" stroke="#000000" points="141,-81.2 141,-103.2 224,-103.2 224,-81.2 141,-81.2"/>
<text text-anchor="start" x="144" y="-88.9" font-family="Helvetica,sans-Serif" font-size="11.00" fill="#000000">boolean[3]</text>
<polygon fill="none" stroke="#000000" points="10,-59.2 10,-81.2 141,-81.2 141,-59.2 10,-59.2"/>
<text text-anchor="start" x="30" y="-66.3" font-family="Helvetica,sans-Serif" font-size="11.00" fill="#000000">pn_state</text>
<polygon fill="none" stroke="#000000" points="141,-59.2 141,-81.2 224,-81.2 224,-59.2 141,-59.2"/>
<text text-anchor="start" x="144" y="-66.9" font-family="Helvetica,sans-Serif" font-size="11.00" fill="#000000">boolean[3]</text>
<polygon fill="#ffffff" stroke="transparent" points="10,-40.2 10,-59.2 80,-59.2 80,-40.2 10,-40.2"/>
<polygon fill="none" stroke="#000000" points="10,-40.2 10,-59.2 80,-59.2 80,-40.2 10,-40.2"/>
<text text-anchor="start" x="13" y="-46.3" font-family="Helvetica,sans-Serif" font-size="11.00" fill="#000000">&lt; 0</text>
<polygon fill="#ffffff" stroke="transparent" points="80,-40.2 80,-59.2 141,-59.2 141,-40.2 80,-40.2"/>
<polygon fill="none" stroke="#000000" points="80,-40.2 80,-59.2 141,-59.2 141,-40.2 80,-40.2"/>
<text text-anchor="start" x="131.8862" y="-46.3" font-family="Helvetica,sans-Serif" font-size="11.00" fill="#000000"> &#160;</text>
<polygon fill="#ffffff" stroke="transparent" points="141,-40.2 141,-59.2 224,-59.2 224,-40.2 141,-40.2"/>
<polygon fill="none" stroke="#000000" points="141,-40.2 141,-59.2 224,-59.2 224,-40.2 141,-40.2"/>
<text text-anchor="start" x="205.4053" y="-46.3" font-family="Helvetica,sans-Serif" font-size="11.00" fill="#000000">0 &gt;</text>
<polygon fill="none" stroke="#000000" stroke-width="2" points="9,-39.2 9,-325.2 225,-325.2 225,-39.2 9,-39.2"/>
</a>
</g>
</g>
</g>
</svg>
