<?xml version="1.0" encoding="UTF-8" standalone="no"?>
<!DOCTYPE svg PUBLIC "-//W3C//DTD SVG 1.1//EN"
 "http://www.w3.org/Graphics/SVG/1.1/DTD/svg11.dtd">
<!-- Generated by graphviz version 2.40.1 (20161225.0304)
 -->
<!-- Title: oneDegreeRelationshipsDiagram Pages: 1 -->
<svg width="838pt" height="731pt"
 viewBox="0.00 0.00 838.00 730.70" xmlns="http://www.w3.org/2000/svg" xmlns:xlink="http://www.w3.org/1999/xlink">
<g id="graph0" class="graph" transform="scale(1 1) rotate(0) translate(4 726.7)">
<title>oneDegreeRelationshipsDiagram</title>
<polygon fill="#ffffff" stroke="transparent" points="-4,4 -4,-726.7 834,-726.7 834,4 -4,4"/>
<text text-anchor="middle" x="72.4936" y="-7.3" font-family="Helvetica,sans-Serif" font-size="11.00" fill="#000000">Generated by SchemaSpy</text>
<!-- form_groups_encounter -->
<g id="node1" class="node">
<title>form_groups_encounter</title>
<g id="a_node1"><a xlink:href="../../tables/form_groups_encounter.html" xlink:title="form_groups_encounter" target="_top">
<polygon fill="#ffffff" stroke="transparent" points="640,-459.7 640,-718.7 822,-718.7 822,-459.7 640,-459.7"/>
<polygon fill="#f5f5f5" stroke="transparent" points="640,-695.2 640,-718.2 822,-718.2 822,-695.2 640,-695.2"/>
<polygon fill="none" stroke="#000000" points="640,-695.2 640,-718.2 822,-718.2 822,-695.2 640,-695.2"/>
<text text-anchor="start" x="645" y="-703.8" font-family="Helvetica,sans-Serif" font-weight="bold" font-size="11.00" fill="#000000">form_groups_encounter</text>
<text text-anchor="start" x="787.5219" y="-703.3" font-family="Helvetica,sans-Serif" font-size="11.00" fill="#000000">[table]</text>
<polygon fill="none" stroke="#000000" points="640,-673.2 640,-695.2 822,-695.2 822,-673.2 640,-673.2"/>
<image xlink:href="../../images/primaryKeys.png" width="11px" height="12px" preserveAspectRatio="xMinYMin meet" x="645" y="-690.2"/>
<text text-anchor="start" x="669" y="-680.3" font-family="Helvetica,sans-Serif" font-size="11.00" fill="#000000">id</text>
<polygon fill="#ffffff" stroke="transparent" points="640,-651.2 640,-673.2 822,-673.2 822,-651.2 640,-651.2"/>
<polygon fill="none" stroke="#000000" points="640,-651.2 640,-673.2 822,-673.2 822,-651.2 640,-651.2"/>
<text text-anchor="start" x="669" y="-658.3" font-family="Helvetica,sans-Serif" font-size="11.00" fill="#000000">date</text>
<polygon fill="none" stroke="#000000" points="640,-629.2 640,-651.2 822,-651.2 822,-629.2 640,-629.2"/>
<image xlink:href="../../images/foreignKeys.png" width="11px" height="12px" preserveAspectRatio="xMinYMin meet" x="645" y="-646.2"/>
<text text-anchor="start" x="669" y="-636.3" font-family="Helvetica,sans-Serif" font-size="11.00" fill="#000000">facility_id</text>
<polygon fill="#ffffff" stroke="transparent" points="640,-607.2 640,-629.2 822,-629.2 822,-607.2 640,-607.2"/>
<polygon fill="none" stroke="#000000" points="640,-607.2 640,-629.2 822,-629.2 822,-607.2 640,-607.2"/>
<image xlink:href="../../images/foreignKeys.png" width="11px" height="12px" preserveAspectRatio="xMinYMin meet" x="645" y="-624.2"/>
<text text-anchor="start" x="669" y="-614.3" font-family="Helvetica,sans-Serif" font-size="11.00" fill="#000000">group_id</text>
<polygon fill="none" stroke="#000000" points="640,-585.2 640,-607.2 822,-607.2 822,-585.2 640,-585.2"/>
<image xlink:href="../../images/primaryKeys.png" width="11px" height="12px" preserveAspectRatio="xMinYMin meet" x="645" y="-602.2"/>
<text text-anchor="start" x="669" y="-592.3" font-family="Helvetica,sans-Serif" font-size="11.00" fill="#000000">encounter</text>
<polygon fill="none" stroke="#000000" points="640,-563.2 640,-585.2 822,-585.2 822,-563.2 640,-563.2"/>
<image xlink:href="../../images/foreignKeys.png" width="11px" height="12px" preserveAspectRatio="xMinYMin meet" x="645" y="-580.2"/>
<text text-anchor="start" x="669" y="-570.3" font-family="Helvetica,sans-Serif" font-size="11.00" fill="#000000">pc_catid</text>
<polygon fill="none" stroke="#000000" points="640,-541.2 640,-563.2 822,-563.2 822,-541.2 640,-541.2"/>
<image xlink:href="../../images/foreignKeys.png" width="11px" height="12px" preserveAspectRatio="xMinYMin meet" x="645" y="-558.2"/>
<text text-anchor="start" x="669" y="-548.3" font-family="Helvetica,sans-Serif" font-size="11.00" fill="#000000">provider_id</text>
<polygon fill="none" stroke="#000000" points="640,-519.2 640,-541.2 822,-541.2 822,-519.2 640,-519.2"/>
<image xlink:href="../../images/foreignKeys.png" width="11px" height="12px" preserveAspectRatio="xMinYMin meet" x="645" y="-536.2"/>
<text text-anchor="start" x="669" y="-526.3" font-family="Helvetica,sans-Serif" font-size="11.00" fill="#000000">supervisor_id</text>
<polygon fill="none" stroke="#000000" points="640,-497.2 640,-519.2 822,-519.2 822,-497.2 640,-497.2"/>
<image xlink:href="../../images/foreignKeys.png" width="11px" height="12px" preserveAspectRatio="xMinYMin meet" x="645" y="-514.2"/>
<text text-anchor="start" x="669" y="-504.3" font-family="Helvetica,sans-Serif" font-size="11.00" fill="#000000">appt_id</text>
<polygon fill="none" stroke="#000000" points="640,-478.2 640,-497.2 822,-497.2 822,-478.2 640,-478.2"/>
<text text-anchor="start" x="643" y="-484.3" font-family="Helvetica,sans-Serif" font-size="11.00" fill="#000000">...</text>
<polygon fill="#ffffff" stroke="transparent" points="640,-459.2 640,-478.2 725,-478.2 725,-459.2 640,-459.2"/>
<polygon fill="none" stroke="#000000" points="640,-459.2 640,-478.2 725,-478.2 725,-459.2 640,-459.2"/>
<text text-anchor="start" x="643" y="-465.3" font-family="Helvetica,sans-Serif" font-size="11.00" fill="#000000">&lt; 7</text>
<polygon fill="#ffffff" stroke="transparent" points="725,-459.2 725,-478.2 769,-478.2 769,-459.2 725,-459.2"/>
<polygon fill="none" stroke="#000000" points="725,-459.2 725,-478.2 769,-478.2 769,-459.2 725,-459.2"/>
<text text-anchor="start" x="759.8862" y="-465.3" font-family="Helvetica,sans-Serif" font-size="11.00" fill="#000000"> &#160;</text>
<polygon fill="#ffffff" stroke="transparent" points="769,-459.2 769,-478.2 822,-478.2 822,-459.2 769,-459.2"/>
<polygon fill="none" stroke="#000000" points="769,-459.2 769,-478.2 822,-478.2 822,-459.2 769,-459.2"/>
<text text-anchor="start" x="803.4053" y="-465.3" font-family="Helvetica,sans-Serif" font-size="11.00" fill="#000000">1 &gt;</text>
</a>
</g>
</g>
<!-- openemr_postcalendar_events -->
<g id="node2" class="node">
<title>openemr_postcalendar_events</title>
<g id="a_node2"><a xlink:href="../../tables/openemr_postcalendar_events.html" xlink:title="openemr_postcalendar_events" target="_top">
<polygon fill="#ffffff" stroke="transparent" points="370,-109.7 370,-544.7 591,-544.7 591,-109.7 370,-109.7"/>
<polygon fill="#f5f5f5" stroke="transparent" points="370.5,-521.2 370.5,-544.2 591.5,-544.2 591.5,-521.2 370.5,-521.2"/>
<polygon fill="none" stroke="#000000" points="370.5,-521.2 370.5,-544.2 591.5,-544.2 591.5,-521.2 370.5,-521.2"/>
<text text-anchor="start" x="375.5" y="-529.8" font-family="Helvetica,sans-Serif" font-weight="bold" font-size="11.00" fill="#000000">openemr_postcalendar_events</text>
<text text-anchor="start" x="557.0219" y="-529.3" font-family="Helvetica,sans-Serif" font-size="11.00" fill="#000000">[table]</text>
<polygon fill="none" stroke="#000000" points="370.5,-499.2 370.5,-521.2 591.5,-521.2 591.5,-499.2 370.5,-499.2"/>
<image xlink:href="../../images/primaryKeys.png" width="11px" height="12px" preserveAspectRatio="xMinYMin meet" x="375.5" y="-516.2"/>
<text text-anchor="start" x="399.5" y="-506.3" font-family="Helvetica,sans-Serif" font-size="11.00" fill="#000000">pc_eid</text>
<polygon fill="#ffffff" stroke="transparent" points="370.5,-477.2 370.5,-499.2 591.5,-499.2 591.5,-477.2 370.5,-477.2"/>
<polygon fill="none" stroke="#000000" points="370.5,-477.2 370.5,-499.2 591.5,-499.2 591.5,-477.2 370.5,-477.2"/>
<image xlink:href="../../images/foreignKeys.png" width="11px" height="12px" preserveAspectRatio="xMinYMin meet" x="375.5" y="-494.2"/>
<text text-anchor="start" x="399.5" y="-484.3" font-family="Helvetica,sans-Serif" font-size="11.00" fill="#000000">pc_catid</text>
<polygon fill="#ffffff" stroke="transparent" points="370.5,-455.2 370.5,-477.2 591.5,-477.2 591.5,-455.2 370.5,-455.2"/>
<polygon fill="none" stroke="#000000" points="370.5,-455.2 370.5,-477.2 591.5,-477.2 591.5,-455.2 370.5,-455.2"/>
<image xlink:href="../../images/foreignKeys.png" width="11px" height="12px" preserveAspectRatio="xMinYMin meet" x="375.5" y="-472.2"/>
<text text-anchor="start" x="399.5" y="-462.3" font-family="Helvetica,sans-Serif" font-size="11.00" fill="#000000">pc_aid</text>
<polygon fill="none" stroke="#000000" points="370.5,-433.2 370.5,-455.2 591.5,-455.2 591.5,-433.2 370.5,-433.2"/>
<image xlink:href="../../images/foreignKeys.png" width="11px" height="12px" preserveAspectRatio="xMinYMin meet" x="375.5" y="-450.2"/>
<text text-anchor="start" x="399.5" y="-440.3" font-family="Helvetica,sans-Serif" font-size="11.00" fill="#000000">pc_pid</text>
<polygon fill="none" stroke="#000000" points="370.5,-411.2 370.5,-433.2 591.5,-433.2 591.5,-411.2 370.5,-411.2"/>
<image xlink:href="../../images/foreignKeys.png" width="11px" height="12px" preserveAspectRatio="xMinYMin meet" x="375.5" y="-428.2"/>
<text text-anchor="start" x="399.5" y="-418.3" font-family="Helvetica,sans-Serif" font-size="11.00" fill="#000000">pc_gid</text>
<polygon fill="#ffffff" stroke="transparent" points="370.5,-389.2 370.5,-411.2 591.5,-411.2 591.5,-389.2 370.5,-389.2"/>
<polygon fill="none" stroke="#000000" points="370.5,-389.2 370.5,-411.2 591.5,-411.2 591.5,-389.2 370.5,-389.2"/>
<text text-anchor="start" x="399.5" y="-396.3" font-family="Helvetica,sans-Serif" font-size="11.00" fill="#000000">pc_topic</text>
<polygon fill="none" stroke="#000000" points="370.5,-367.2 370.5,-389.2 591.5,-389.2 591.5,-367.2 370.5,-367.2"/>
<image xlink:href="../../images/foreignKeys.png" width="11px" height="12px" preserveAspectRatio="xMinYMin meet" x="375.5" y="-384.2"/>
<text text-anchor="start" x="399.5" y="-374.3" font-family="Helvetica,sans-Serif" font-size="11.00" fill="#000000">pc_informant</text>
<polygon fill="#ffffff" stroke="transparent" points="370.5,-345.2 370.5,-367.2 591.5,-367.2 591.5,-345.2 370.5,-345.2"/>
<polygon fill="none" stroke="#000000" points="370.5,-345.2 370.5,-367.2 591.5,-367.2 591.5,-345.2 370.5,-345.2"/>
<text text-anchor="start" x="399.5" y="-352.3" font-family="Helvetica,sans-Serif" font-size="11.00" fill="#000000">pc_eventDate</text>
<polygon fill="#ffffff" stroke="transparent" points="370.5,-323.2 370.5,-345.2 591.5,-345.2 591.5,-323.2 370.5,-323.2"/>
<polygon fill="none" stroke="#000000" points="370.5,-323.2 370.5,-345.2 591.5,-345.2 591.5,-323.2 370.5,-323.2"/>
<text text-anchor="start" x="399.5" y="-330.3" font-family="Helvetica,sans-Serif" font-size="11.00" fill="#000000">pc_endDate</text>
<polygon fill="#ffffff" stroke="transparent" points="370.5,-301.2 370.5,-323.2 591.5,-323.2 591.5,-301.2 370.5,-301.2"/>
<polygon fill="none" stroke="#000000" points="370.5,-301.2 370.5,-323.2 591.5,-323.2 591.5,-301.2 370.5,-301.2"/>
<text text-anchor="start" x="399.5" y="-308.3" font-family="Helvetica,sans-Serif" font-size="11.00" fill="#000000">pc_eventstatus</text>
<polygon fill="#ffffff" stroke="transparent" points="370.5,-279.2 370.5,-301.2 591.5,-301.2 591.5,-279.2 370.5,-279.2"/>
<polygon fill="none" stroke="#000000" points="370.5,-279.2 370.5,-301.2 591.5,-301.2 591.5,-279.2 370.5,-279.2"/>
<text text-anchor="start" x="399.5" y="-286.3" font-family="Helvetica,sans-Serif" font-size="11.00" fill="#000000">pc_sharing</text>
<polygon fill="none" stroke="#000000" points="370.5,-257.2 370.5,-279.2 591.5,-279.2 591.5,-257.2 370.5,-257.2"/>
<image xlink:href="../../images/foreignKeys.png" width="11px" height="12px" preserveAspectRatio="xMinYMin meet" x="375.5" y="-274.2"/>
<text text-anchor="start" x="399.5" y="-264.3" font-family="Helvetica,sans-Serif" font-size="11.00" fill="#000000">pc_apptstatus</text>
<polygon fill="none" stroke="#000000" points="370.5,-235.2 370.5,-257.2 591.5,-257.2 591.5,-235.2 370.5,-235.2"/>
<image xlink:href="../../images/foreignKeys.png" width="11px" height="12px" preserveAspectRatio="xMinYMin meet" x="375.5" y="-252.2"/>
<text text-anchor="start" x="399.5" y="-242.3" font-family="Helvetica,sans-Serif" font-size="11.00" fill="#000000">pc_prefcatid</text>
<polygon fill="none" stroke="#000000" points="370.5,-213.2 370.5,-235.2 591.5,-235.2 591.5,-213.2 370.5,-213.2"/>
<image xlink:href="../../images/foreignKeys.png" width="11px" height="12px" preserveAspectRatio="xMinYMin meet" x="375.5" y="-230.2"/>
<text text-anchor="start" x="399.5" y="-220.3" font-family="Helvetica,sans-Serif" font-size="11.00" fill="#000000">pc_facility</text>
<polygon fill="none" stroke="#000000" points="370.5,-191.2 370.5,-213.2 591.5,-213.2 591.5,-191.2 370.5,-191.2"/>
<image xlink:href="../../images/foreignKeys.png" width="11px" height="12px" preserveAspectRatio="xMinYMin meet" x="375.5" y="-208.2"/>
<text text-anchor="start" x="399.5" y="-198.3" font-family="Helvetica,sans-Serif" font-size="11.00" fill="#000000">pc_billing_location</text>
<polygon fill="none" stroke="#000000" points="370.5,-169.2 370.5,-191.2 591.5,-191.2 591.5,-169.2 370.5,-169.2"/>
<image xlink:href="../../images/foreignKeys.png" width="11px" height="12px" preserveAspectRatio="xMinYMin meet" x="375.5" y="-186.2"/>
<text text-anchor="start" x="399.5" y="-176.3" font-family="Helvetica,sans-Serif" font-size="11.00" fill="#000000">pc_room</text>
<polygon fill="#ffffff" stroke="transparent" points="370.5,-147.2 370.5,-169.2 591.5,-169.2 591.5,-147.2 370.5,-147.2"/>
<polygon fill="none" stroke="#000000" points="370.5,-147.2 370.5,-169.2 591.5,-169.2 591.5,-147.2 370.5,-147.2"/>
<text text-anchor="start" x="399.5" y="-154.3" font-family="Helvetica,sans-Serif" font-size="11.00" fill="#000000">uuid</text>
<polygon fill="none" stroke="#000000" points="370.5,-128.2 370.5,-147.2 591.5,-147.2 591.5,-128.2 370.5,-128.2"/>
<text text-anchor="start" x="373.5" y="-134.3" font-family="Helvetica,sans-Serif" font-size="11.00" fill="#000000">...</text>
<polygon fill="#ffffff" stroke="transparent" points="370.5,-109.2 370.5,-128.2 477.5,-128.2 477.5,-109.2 370.5,-109.2"/>
<polygon fill="none" stroke="#000000" points="370.5,-109.2 370.5,-128.2 477.5,-128.2 477.5,-109.2 370.5,-109.2"/>
<text text-anchor="start" x="373.5" y="-115.3" font-family="Helvetica,sans-Serif" font-size="11.00" fill="#000000">&lt; 10</text>
<polygon fill="#ffffff" stroke="transparent" points="477.5,-109.2 477.5,-128.2 529.5,-128.2 529.5,-109.2 477.5,-109.2"/>
<polygon fill="none" stroke="#000000" points="477.5,-109.2 477.5,-128.2 529.5,-128.2 529.5,-109.2 477.5,-109.2"/>
<text text-anchor="start" x="520.3862" y="-115.3" font-family="Helvetica,sans-Serif" font-size="11.00" fill="#000000"> &#160;</text>
<polygon fill="#ffffff" stroke="transparent" points="529.5,-109.2 529.5,-128.2 591.5,-128.2 591.5,-109.2 529.5,-109.2"/>
<polygon fill="none" stroke="#000000" points="529.5,-109.2 529.5,-128.2 591.5,-128.2 591.5,-109.2 529.5,-109.2"/>
<text text-anchor="start" x="572.9053" y="-115.3" font-family="Helvetica,sans-Serif" font-size="11.00" fill="#000000">2 &gt;</text>
</a>
</g>
</g>
<!-- form_groups_encounter&#45;&gt;openemr_postcalendar_events -->
<g id="edge1" class="edge">
<title>form_groups_encounter:w&#45;&gt;openemr_postcalendar_events:e</title>
<path fill="none" stroke="#000000" d="M625.278,-508.5668C614.2863,-509.1442 607.1748,-510.2 591.5,-510.2"/>
<polygon fill="#000000" stroke="#000000" points="632.0025,-508.3993 640.0897,-511.7989 636.0012,-508.2997 640,-508.2 640,-508.2 640,-508.2 636.0012,-508.2997 639.9103,-504.6011 632.0025,-508.3993 632.0025,-508.3993"/>
<ellipse fill="none" stroke="#000000" cx="628.8035" cy="-508.4791" rx="3.2" ry="3.2"/>
</g>
<!-- openemr_postcalendar_categories -->
<g id="node3" class="node">
<title>openemr_postcalendar_categories</title>
<g id="a_node3"><a xlink:href="../../tables/openemr_postcalendar_categories.html" xlink:title="openemr_postcalendar_categories" target="_top">
<polygon fill="#ffffff" stroke="transparent" points="8,-38.2 8,-524.2 321,-524.2 321,-38.2 8,-38.2"/>
<polygon fill="#f5f5f5" stroke="transparent" points="10.5,-499.2 10.5,-522.2 319.5,-522.2 319.5,-499.2 10.5,-499.2"/>
<polygon fill="none" stroke="#000000" points="10.5,-499.2 10.5,-522.2 319.5,-522.2 319.5,-499.2 10.5,-499.2"/>
<text text-anchor="start" x="15.5" y="-507.8" font-family="Helvetica,sans-Serif" font-weight="bold" font-size="11.00" fill="#000000">openemr_postcalendar_categories</text>
<text text-anchor="start" x="284.5437" y="-507.3" font-family="Helvetica,sans-Serif" font-size="11.00" fill="#000000">[table]</text>
<polygon fill="none" stroke="#000000" points="10.5,-477.2 10.5,-499.2 236.5,-499.2 236.5,-477.2 10.5,-477.2"/>
<image xlink:href="../../images/primaryKeys.png" width="11px" height="12px" preserveAspectRatio="xMinYMin meet" x="15.5" y="-494.2"/>
<text text-anchor="start" x="30.5" y="-484.3" font-family="Helvetica,sans-Serif" font-size="11.00" fill="#000000">pc_catid</text>
<polygon fill="none" stroke="#000000" points="236.5,-477.2 236.5,-499.2 319.5,-499.2 319.5,-477.2 236.5,-477.2"/>
<text text-anchor="start" x="239.1783" y="-484.9" font-family="Helvetica,sans-Serif" font-size="11.00" fill="#000000">int unsigned[10]</text>
<polygon fill="#ffffff" stroke="transparent" points="10.5,-455.2 10.5,-477.2 236.5,-477.2 236.5,-455.2 10.5,-455.2"/>
<polygon fill="none" stroke="#000000" points="10.5,-455.2 10.5,-477.2 236.5,-477.2 236.5,-455.2 10.5,-455.2"/>
<text text-anchor="start" x="30.5" y="-462.3" font-family="Helvetica,sans-Serif" font-size="11.00" fill="#000000">pc_constant_id</text>
<polygon fill="none" stroke="#000000" points="236.5,-455.2 236.5,-477.2 319.5,-477.2 319.5,-455.2 236.5,-455.2"/>
<text text-anchor="start" x="239.5" y="-462.9" font-family="Helvetica,sans-Serif" font-size="11.00" fill="#000000">varchar[255]</text>
<polygon fill="#ffffff" stroke="transparent" points="10.5,-433.2 10.5,-455.2 236.5,-455.2 236.5,-433.2 10.5,-433.2"/>
<polygon fill="none" stroke="#000000" points="10.5,-433.2 10.5,-455.2 236.5,-455.2 236.5,-433.2 10.5,-433.2"/>
<text text-anchor="start" x="30.5" y="-440.3" font-family="Helvetica,sans-Serif" font-size="11.00" fill="#000000">pc_catname</text>
<polygon fill="none" stroke="#000000" points="236.5,-433.2 236.5,-455.2 319.5,-455.2 319.5,-433.2 236.5,-433.2"/>
<text text-anchor="start" x="239.5" y="-440.9" font-family="Helvetica,sans-Serif" font-size="11.00" fill="#000000">varchar[100]</text>
<polygon fill="#ffffff" stroke="transparent" points="10.5,-411.2 10.5,-433.2 236.5,-433.2 236.5,-411.2 10.5,-411.2"/>
<polygon fill="none" stroke="#000000" points="10.5,-411.2 10.5,-433.2 236.5,-433.2 236.5,-411.2 10.5,-411.2"/>
<text text-anchor="start" x="30.5" y="-418.3" font-family="Helvetica,sans-Serif" font-size="11.00" fill="#000000">pc_catcolor</text>
<polygon fill="none" stroke="#000000" points="236.5,-411.2 236.5,-433.2 319.5,-433.2 319.5,-411.2 236.5,-411.2"/>
<text text-anchor="start" x="239.5" y="-418.9" font-family="Helvetica,sans-Serif" font-size="11.00" fill="#000000">varchar[50]</text>
<polygon fill="none" stroke="#000000" points="10.5,-389.2 10.5,-411.2 236.5,-411.2 236.5,-389.2 10.5,-389.2"/>
<text text-anchor="start" x="30.5" y="-396.3" font-family="Helvetica,sans-Serif" font-size="11.00" fill="#000000">pc_catdesc</text>
<polygon fill="none" stroke="#000000" points="236.5,-389.2 236.5,-411.2 319.5,-411.2 319.5,-389.2 236.5,-389.2"/>
<text text-anchor="start" x="239.5" y="-396.9" font-family="Helvetica,sans-Serif" font-size="11.00" fill="#000000">text[65535]</text>
<polygon fill="none" stroke="#000000" points="10.5,-367.2 10.5,-389.2 236.5,-389.2 236.5,-367.2 10.5,-367.2"/>
<text text-anchor="start" x="30.5" y="-374.3" font-family="Helvetica,sans-Serif" font-size="11.00" fill="#000000">pc_recurrtype</text>
<polygon fill="none" stroke="#000000" points="236.5,-367.2 236.5,-389.2 319.5,-389.2 319.5,-367.2 236.5,-367.2"/>
<text text-anchor="start" x="239.5" y="-374.9" font-family="Helvetica,sans-Serif" font-size="11.00" fill="#000000">int[10]</text>
<polygon fill="none" stroke="#000000" points="10.5,-345.2 10.5,-367.2 236.5,-367.2 236.5,-345.2 10.5,-345.2"/>
<text text-anchor="start" x="30.5" y="-352.3" font-family="Helvetica,sans-Serif" font-size="11.00" fill="#000000">pc_enddate</text>
<polygon fill="none" stroke="#000000" points="236.5,-345.2 236.5,-367.2 319.5,-367.2 319.5,-345.2 236.5,-345.2"/>
<text text-anchor="start" x="239.5" y="-352.9" font-family="Helvetica,sans-Serif" font-size="11.00" fill="#000000">date[10]</text>
<polygon fill="none" stroke="#000000" points="10.5,-323.2 10.5,-345.2 236.5,-345.2 236.5,-323.2 10.5,-323.2"/>
<text text-anchor="start" x="30.5" y="-330.3" font-family="Helvetica,sans-Serif" font-size="11.00" fill="#000000">pc_recurrspec</text>
<polygon fill="none" stroke="#000000" points="236.5,-323.2 236.5,-345.2 319.5,-345.2 319.5,-323.2 236.5,-323.2"/>
<text text-anchor="start" x="239.5" y="-330.9" font-family="Helvetica,sans-Serif" font-size="11.00" fill="#000000">text[65535]</text>
<polygon fill="none" stroke="#000000" points="10.5,-301.2 10.5,-323.2 236.5,-323.2 236.5,-301.2 10.5,-301.2"/>
<text text-anchor="start" x="30.5" y="-308.3" font-family="Helvetica,sans-Serif" font-size="11.00" fill="#000000">pc_recurrfreq</text>
<polygon fill="none" stroke="#000000" points="236.5,-301.2 236.5,-323.2 319.5,-323.2 319.5,-301.2 236.5,-301.2"/>
<text text-anchor="start" x="239.5" y="-308.9" font-family="Helvetica,sans-Serif" font-size="11.00" fill="#000000">int[10]</text>
<polygon fill="none" stroke="#000000" points="10.5,-279.2 10.5,-301.2 236.5,-301.2 236.5,-279.2 10.5,-279.2"/>
<text text-anchor="start" x="30.5" y="-286.3" font-family="Helvetica,sans-Serif" font-size="11.00" fill="#000000">pc_duration</text>
<polygon fill="none" stroke="#000000" points="236.5,-279.2 236.5,-301.2 319.5,-301.2 319.5,-279.2 236.5,-279.2"/>
<text text-anchor="start" x="239.5" y="-286.9" font-family="Helvetica,sans-Serif" font-size="11.00" fill="#000000">bigint[19]</text>
<polygon fill="none" stroke="#000000" points="10.5,-257.2 10.5,-279.2 236.5,-279.2 236.5,-257.2 10.5,-257.2"/>
<text text-anchor="start" x="30.5" y="-264.3" font-family="Helvetica,sans-Serif" font-size="11.00" fill="#000000">pc_end_date_flag</text>
<polygon fill="none" stroke="#000000" points="236.5,-257.2 236.5,-279.2 319.5,-279.2 319.5,-257.2 236.5,-257.2"/>
<text text-anchor="start" x="239.5" y="-264.9" font-family="Helvetica,sans-Serif" font-size="11.00" fill="#000000">boolean[3]</text>
<polygon fill="none" stroke="#000000" points="10.5,-235.2 10.5,-257.2 236.5,-257.2 236.5,-235.2 10.5,-235.2"/>
<text text-anchor="start" x="30.5" y="-242.3" font-family="Helvetica,sans-Serif" font-size="11.00" fill="#000000">pc_end_date_type</text>
<polygon fill="none" stroke="#000000" points="236.5,-235.2 236.5,-257.2 319.5,-257.2 319.5,-235.2 236.5,-235.2"/>
<text text-anchor="start" x="239.5" y="-242.9" font-family="Helvetica,sans-Serif" font-size="11.00" fill="#000000">int[10]</text>
<polygon fill="none" stroke="#000000" points="10.5,-213.2 10.5,-235.2 236.5,-235.2 236.5,-213.2 10.5,-213.2"/>
<text text-anchor="start" x="30.5" y="-220.3" font-family="Helvetica,sans-Serif" font-size="11.00" fill="#000000">pc_end_date_freq</text>
<polygon fill="none" stroke="#000000" points="236.5,-213.2 236.5,-235.2 319.5,-235.2 319.5,-213.2 236.5,-213.2"/>
<text text-anchor="start" x="239.5" y="-220.9" font-family="Helvetica,sans-Serif" font-size="11.00" fill="#000000">int[10]</text>
<polygon fill="none" stroke="#000000" points="10.5,-191.2 10.5,-213.2 236.5,-213.2 236.5,-191.2 10.5,-191.2"/>
<text text-anchor="start" x="30.5" y="-198.3" font-family="Helvetica,sans-Serif" font-size="11.00" fill="#000000">pc_end_all_day</text>
<polygon fill="none" stroke="#000000" points="236.5,-191.2 236.5,-213.2 319.5,-213.2 319.5,-191.2 236.5,-191.2"/>
<text text-anchor="start" x="239.5" y="-198.9" font-family="Helvetica,sans-Serif" font-size="11.00" fill="#000000">boolean[3]</text>
<polygon fill="none" stroke="#000000" points="10.5,-169.2 10.5,-191.2 236.5,-191.2 236.5,-169.2 10.5,-169.2"/>
<text text-anchor="start" x="30.5" y="-176.3" font-family="Helvetica,sans-Serif" font-size="11.00" fill="#000000">pc_dailylimit</text>
<polygon fill="none" stroke="#000000" points="236.5,-169.2 236.5,-191.2 319.5,-191.2 319.5,-169.2 236.5,-169.2"/>
<text text-anchor="start" x="239.5" y="-176.9" font-family="Helvetica,sans-Serif" font-size="11.00" fill="#000000">int[10]</text>
<polygon fill="none" stroke="#000000" points="10.5,-147.2 10.5,-169.2 236.5,-169.2 236.5,-147.2 10.5,-147.2"/>
<text text-anchor="start" x="30.5" y="-154.3" font-family="Helvetica,sans-Serif" font-size="11.00" fill="#000000">pc_cattype</text>
<polygon fill="none" stroke="#000000" points="236.5,-147.2 236.5,-169.2 319.5,-169.2 319.5,-147.2 236.5,-147.2"/>
<text text-anchor="start" x="239.5" y="-154.9" font-family="Helvetica,sans-Serif" font-size="11.00" fill="#000000">int[10]</text>
<polygon fill="none" stroke="#000000" points="10.5,-125.2 10.5,-147.2 236.5,-147.2 236.5,-125.2 10.5,-125.2"/>
<text text-anchor="start" x="30.5" y="-132.3" font-family="Helvetica,sans-Serif" font-size="11.00" fill="#000000">pc_active</text>
<polygon fill="none" stroke="#000000" points="236.5,-125.2 236.5,-147.2 319.5,-147.2 319.5,-125.2 236.5,-125.2"/>
<text text-anchor="start" x="239.5" y="-132.9" font-family="Helvetica,sans-Serif" font-size="11.00" fill="#000000">boolean[3]</text>
<polygon fill="none" stroke="#000000" points="10.5,-103.2 10.5,-125.2 236.5,-125.2 236.5,-103.2 10.5,-103.2"/>
<text text-anchor="start" x="30.5" y="-110.3" font-family="Helvetica,sans-Serif" font-size="11.00" fill="#000000">pc_seq</text>
<polygon fill="none" stroke="#000000" points="236.5,-103.2 236.5,-125.2 319.5,-125.2 319.5,-103.2 236.5,-103.2"/>
<text text-anchor="start" x="239.5" y="-110.9" font-family="Helvetica,sans-Serif" font-size="11.00" fill="#000000">int[10]</text>
<polygon fill="none" stroke="#000000" points="10.5,-81.2 10.5,-103.2 236.5,-103.2 236.5,-81.2 10.5,-81.2"/>
<text text-anchor="start" x="30.5" y="-88.3" font-family="Helvetica,sans-Serif" font-size="11.00" fill="#000000">aco_spec</text>
<polygon fill="none" stroke="#000000" points="236.5,-81.2 236.5,-103.2 319.5,-103.2 319.5,-81.2 236.5,-81.2"/>
<text text-anchor="start" x="239.5" y="-88.9" font-family="Helvetica,sans-Serif" font-size="11.00" fill="#000000">varchar[63]</text>
<polygon fill="none" stroke="#000000" points="10.5,-59.2 10.5,-81.2 236.5,-81.2 236.5,-59.2 10.5,-59.2"/>
<text text-anchor="start" x="30.5" y="-66.3" font-family="Helvetica,sans-Serif" font-size="11.00" fill="#000000">pc_last_updated</text>
<polygon fill="none" stroke="#000000" points="236.5,-59.2 236.5,-81.2 319.5,-81.2 319.5,-59.2 236.5,-59.2"/>
<text text-anchor="start" x="239.5" y="-66.9" font-family="Helvetica,sans-Serif" font-size="11.00" fill="#000000">datetime[19]</text>
<polygon fill="#ffffff" stroke="transparent" points="10.5,-40.2 10.5,-59.2 127.5,-59.2 127.5,-40.2 10.5,-40.2"/>
<polygon fill="none" stroke="#000000" points="10.5,-40.2 10.5,-59.2 127.5,-59.2 127.5,-40.2 10.5,-40.2"/>
<text text-anchor="start" x="13.5" y="-46.3" font-family="Helvetica,sans-Serif" font-size="11.00" fill="#000000">&lt; 0</text>
<polygon fill="#ffffff" stroke="transparent" points="127.5,-40.2 127.5,-59.2 236.5,-59.2 236.5,-40.2 127.5,-40.2"/>
<polygon fill="none" stroke="#000000" points="127.5,-40.2 127.5,-59.2 236.5,-59.2 236.5,-40.2 127.5,-40.2"/>
<text text-anchor="start" x="227.3862" y="-46.3" font-family="Helvetica,sans-Serif" font-size="11.00" fill="#000000"> &#160;</text>
<polygon fill="#ffffff" stroke="transparent" points="236.5,-40.2 236.5,-59.2 319.5,-59.2 319.5,-40.2 236.5,-40.2"/>
<polygon fill="none" stroke="#000000" points="236.5,-40.2 236.5,-59.2 319.5,-59.2 319.5,-40.2 236.5,-40.2"/>
<text text-anchor="start" x="300.9053" y="-46.3" font-family="Helvetica,sans-Serif" font-size="11.00" fill="#000000">3 &gt;</text>
<polygon fill="none" stroke="#000000" stroke-width="2" points="9,-39.2 9,-523.2 320,-523.2 320,-39.2 9,-39.2"/>
</a>
</g>
</g>
<!-- form_groups_encounter&#45;&gt;openemr_postcalendar_categories -->
<g id="edge2" class="edge">
<title>form_groups_encounter:w&#45;&gt;openemr_postcalendar_categories:e</title>
<path fill="none" stroke="#000000" d="M625.4816,-574.4035C512.2395,-577.5781 464.1592,-616.0045 362,-555.2 331.6978,-537.1643 354.7634,-488.2 319.5,-488.2"/>
<polygon fill="#000000" stroke="#000000" points="632.0008,-574.3122 640.0505,-577.7996 636.0004,-574.2561 640,-574.2 640,-574.2 640,-574.2 636.0004,-574.2561 639.9495,-570.6004 632.0008,-574.3122 632.0008,-574.3122"/>
<ellipse fill="none" stroke="#000000" cx="628.8011" cy="-574.357" rx="3.2" ry="3.2"/>
</g>
<!-- openemr_postcalendar_events&#45;&gt;openemr_postcalendar_categories -->
<g id="edge3" class="edge">
<title>openemr_postcalendar_events:w&#45;&gt;openemr_postcalendar_categories:e</title>
<path fill="none" stroke="#000000" d="M355.776,-488.2C343.7815,-488.2 336.3229,-488.2 319.5,-488.2"/>
<polygon fill="#000000" stroke="#000000" points="362.5,-488.2001 370.5,-491.8 366.5,-488.2 370.5,-488.2 370.5,-488.2 370.5,-488.2 366.5,-488.2 370.5,-484.6 362.5,-488.2001 362.5,-488.2001"/>
<ellipse fill="none" stroke="#000000" cx="359.3" cy="-488.2001" rx="3.2" ry="3.2"/>
</g>
<!-- openemr_postcalendar_events&#45;&gt;openemr_postcalendar_categories -->
<g id="edge4" class="edge">
<title>openemr_postcalendar_events:w&#45;&gt;openemr_postcalendar_categories:e</title>
<path fill="none" stroke="#000000" d="M355.8382,-248.0088C277.0105,-270.1541 423.8363,-488.2 319.5,-488.2"/>
<polygon fill="#000000" stroke="#000000" points="362.5602,-247.1796 370.9408,-249.7729 366.5301,-246.6898 370.5,-246.2 370.5,-246.2 370.5,-246.2 366.5301,-246.6898 370.0592,-242.6271 362.5602,-247.1796 362.5602,-247.1796"/>
<ellipse fill="none" stroke="#000000" cx="359.3843" cy="-247.5714" rx="3.2" ry="3.2"/>
</g>
</g>
</svg>
