<?xml version="1.0" encoding="UTF-8" standalone="no"?>
<!DOCTYPE svg PUBLIC "-//W3C//DTD SVG 1.1//EN"
 "http://www.w3.org/Graphics/SVG/1.1/DTD/svg11.dtd">
<!-- Generated by graphviz version 2.40.1 (20161225.0304)
 -->
<!-- Title: oneDegreeRelationshipsDiagram Pages: 1 -->
<svg width="656pt" height="535pt"
 viewBox="0.00 0.00 656.00 534.70" xmlns="http://www.w3.org/2000/svg" xmlns:xlink="http://www.w3.org/1999/xlink">
<g id="graph0" class="graph" transform="scale(1 1) rotate(0) translate(4 530.7)">
<title>oneDegreeRelationshipsDiagram</title>
<polygon fill="#ffffff" stroke="transparent" points="-4,4 -4,-530.7 652,-530.7 652,4 -4,4"/>
<text text-anchor="middle" x="72.4936" y="-7.3" font-family="Helvetica,sans-Serif" font-size="11.00" fill="#000000">Generated by SchemaSpy</text>
<!-- openemr_postcalendar_events -->
<g id="node1" class="node">
<title>openemr_postcalendar_events</title>
<g id="a_node1"><a xlink:href="../../tables/openemr_postcalendar_events.html" xlink:title="openemr_postcalendar_events" target="_top">
<polygon fill="#ffffff" stroke="transparent" points="396,-197.7 396,-522.7 640,-522.7 640,-197.7 396,-197.7"/>
<polygon fill="#f5f5f5" stroke="transparent" points="396,-499.2 396,-522.2 640,-522.2 640,-499.2 396,-499.2"/>
<polygon fill="none" stroke="#000000" points="396,-499.2 396,-522.2 640,-522.2 640,-499.2 396,-499.2"/>
<text text-anchor="start" x="401" y="-507.8" font-family="Helvetica,sans-Serif" font-weight="bold" font-size="11.00" fill="#000000">openemr_postcalendar_events</text>
<text text-anchor="start" x="605.5219" y="-507.3" font-family="Helvetica,sans-Serif" font-size="11.00" fill="#000000">[table]</text>
<polygon fill="none" stroke="#000000" points="396,-477.2 396,-499.2 640,-499.2 640,-477.2 396,-477.2"/>
<image xlink:href="../../images/primaryKeys.png" width="11px" height="12px" preserveAspectRatio="xMinYMin meet" x="401" y="-494.2"/>
<text text-anchor="start" x="425" y="-484.3" font-family="Helvetica,sans-Serif" font-size="11.00" fill="#000000">pc_eid</text>
<polygon fill="#ffffff" stroke="transparent" points="396,-455.2 396,-477.2 640,-477.2 640,-455.2 396,-455.2"/>
<polygon fill="none" stroke="#000000" points="396,-455.2 396,-477.2 640,-477.2 640,-455.2 396,-455.2"/>
<image xlink:href="../../images/foreignKeys.png" width="11px" height="12px" preserveAspectRatio="xMinYMin meet" x="401" y="-472.2"/>
<text text-anchor="start" x="425" y="-462.3" font-family="Helvetica,sans-Serif" font-size="11.00" fill="#000000">pc_catid</text>
<polygon fill="#ffffff" stroke="transparent" points="396,-433.2 396,-455.2 640,-455.2 640,-433.2 396,-433.2"/>
<polygon fill="none" stroke="#000000" points="396,-433.2 396,-455.2 640,-455.2 640,-433.2 396,-433.2"/>
<image xlink:href="../../images/foreignKeys.png" width="11px" height="12px" preserveAspectRatio="xMinYMin meet" x="401" y="-450.2"/>
<text text-anchor="start" x="425" y="-440.3" font-family="Helvetica,sans-Serif" font-size="11.00" fill="#000000">pc_aid</text>
<polygon fill="none" stroke="#000000" points="396,-411.2 396,-433.2 640,-433.2 640,-411.2 396,-411.2"/>
<image xlink:href="../../images/foreignKeys.png" width="11px" height="12px" preserveAspectRatio="xMinYMin meet" x="401" y="-428.2"/>
<text text-anchor="start" x="425" y="-418.3" font-family="Helvetica,sans-Serif" font-size="11.00" fill="#000000">pc_pid</text>
<polygon fill="none" stroke="#000000" points="396,-389.2 396,-411.2 640,-411.2 640,-389.2 396,-389.2"/>
<image xlink:href="../../images/foreignKeys.png" width="11px" height="12px" preserveAspectRatio="xMinYMin meet" x="401" y="-406.2"/>
<text text-anchor="start" x="425" y="-396.3" font-family="Helvetica,sans-Serif" font-size="11.00" fill="#000000">pc_gid</text>
<polygon fill="#ffffff" stroke="transparent" points="396,-367.2 396,-389.2 640,-389.2 640,-367.2 396,-367.2"/>
<polygon fill="none" stroke="#000000" points="396,-367.2 396,-389.2 640,-389.2 640,-367.2 396,-367.2"/>
<text text-anchor="start" x="425" y="-374.3" font-family="Helvetica,sans-Serif" font-size="11.00" fill="#000000">pc_topic</text>
<polygon fill="#ffffff" stroke="transparent" points="396,-345.2 396,-367.2 640,-367.2 640,-345.2 396,-345.2"/>
<polygon fill="none" stroke="#000000" points="396,-345.2 396,-367.2 640,-367.2 640,-345.2 396,-345.2"/>
<text text-anchor="start" x="425" y="-352.3" font-family="Helvetica,sans-Serif" font-size="11.00" fill="#000000">pc_eventDate</text>
<polygon fill="#ffffff" stroke="transparent" points="396,-323.2 396,-345.2 640,-345.2 640,-323.2 396,-323.2"/>
<polygon fill="none" stroke="#000000" points="396,-323.2 396,-345.2 640,-345.2 640,-323.2 396,-323.2"/>
<text text-anchor="start" x="425" y="-330.3" font-family="Helvetica,sans-Serif" font-size="11.00" fill="#000000">pc_endDate</text>
<polygon fill="#ffffff" stroke="transparent" points="396,-301.2 396,-323.2 640,-323.2 640,-301.2 396,-301.2"/>
<polygon fill="none" stroke="#000000" points="396,-301.2 396,-323.2 640,-323.2 640,-301.2 396,-301.2"/>
<text text-anchor="start" x="425" y="-308.3" font-family="Helvetica,sans-Serif" font-size="11.00" fill="#000000">pc_eventstatus</text>
<polygon fill="#ffffff" stroke="transparent" points="396,-279.2 396,-301.2 640,-301.2 640,-279.2 396,-279.2"/>
<polygon fill="none" stroke="#000000" points="396,-279.2 396,-301.2 640,-301.2 640,-279.2 396,-279.2"/>
<text text-anchor="start" x="425" y="-286.3" font-family="Helvetica,sans-Serif" font-size="11.00" fill="#000000">pc_sharing</text>
<polygon fill="none" stroke="#000000" points="396,-257.2 396,-279.2 640,-279.2 640,-257.2 396,-257.2"/>
<image xlink:href="../../images/foreignKeys.png" width="11px" height="12px" preserveAspectRatio="xMinYMin meet" x="401" y="-274.2"/>
<text text-anchor="start" x="425" y="-264.3" font-family="Helvetica,sans-Serif" font-size="11.00" fill="#000000">pc_facility</text>
<polygon fill="#ffffff" stroke="transparent" points="396,-235.2 396,-257.2 640,-257.2 640,-235.2 396,-235.2"/>
<polygon fill="none" stroke="#000000" points="396,-235.2 396,-257.2 640,-257.2 640,-235.2 396,-235.2"/>
<text text-anchor="start" x="425" y="-242.3" font-family="Helvetica,sans-Serif" font-size="11.00" fill="#000000">uuid</text>
<polygon fill="none" stroke="#000000" points="396,-216.2 396,-235.2 640,-235.2 640,-216.2 396,-216.2"/>
<text text-anchor="start" x="399" y="-222.3" font-family="Helvetica,sans-Serif" font-size="11.00" fill="#000000">...</text>
<polygon fill="#ffffff" stroke="transparent" points="396,-197.2 396,-216.2 512,-216.2 512,-197.2 396,-197.2"/>
<polygon fill="none" stroke="#000000" points="396,-197.2 396,-216.2 512,-216.2 512,-197.2 396,-197.2"/>
<text text-anchor="start" x="399" y="-203.3" font-family="Helvetica,sans-Serif" font-size="11.00" fill="#000000">&lt; 5</text>
<polygon fill="#ffffff" stroke="transparent" points="512,-197.2 512,-216.2 571,-216.2 571,-197.2 512,-197.2"/>
<polygon fill="none" stroke="#000000" points="512,-197.2 512,-216.2 571,-216.2 571,-197.2 512,-197.2"/>
<text text-anchor="start" x="561.8862" y="-203.3" font-family="Helvetica,sans-Serif" font-size="11.00" fill="#000000"> &#160;</text>
<polygon fill="#ffffff" stroke="transparent" points="571,-197.2 571,-216.2 640,-216.2 640,-197.2 571,-197.2"/>
<polygon fill="none" stroke="#000000" points="571,-197.2 571,-216.2 640,-216.2 640,-197.2 571,-197.2"/>
<text text-anchor="start" x="621.4053" y="-203.3" font-family="Helvetica,sans-Serif" font-size="11.00" fill="#000000">1 &gt;</text>
</a>
</g>
</g>
<!-- openemr_postcalendar_categories -->
<g id="node2" class="node">
<title>openemr_postcalendar_categories</title>
<g id="a_node2"><a xlink:href="../../tables/openemr_postcalendar_categories.html" xlink:title="openemr_postcalendar_categories" target="_top">
<polygon fill="#ffffff" stroke="transparent" points="8,-38.2 8,-502.2 347,-502.2 347,-38.2 8,-38.2"/>
<polygon fill="#f5f5f5" stroke="transparent" points="10.5,-477.2 10.5,-500.2 345.5,-500.2 345.5,-477.2 10.5,-477.2"/>
<polygon fill="none" stroke="#000000" points="10.5,-477.2 10.5,-500.2 345.5,-500.2 345.5,-477.2 10.5,-477.2"/>
<text text-anchor="start" x="15.5" y="-485.8" font-family="Helvetica,sans-Serif" font-weight="bold" font-size="11.00" fill="#000000">openemr_postcalendar_categories</text>
<text text-anchor="start" x="310.5437" y="-485.3" font-family="Helvetica,sans-Serif" font-size="11.00" fill="#000000">[table]</text>
<polygon fill="none" stroke="#000000" points="10.5,-455.2 10.5,-477.2 262.5,-477.2 262.5,-455.2 10.5,-455.2"/>
<image xlink:href="../../images/primaryKeys.png" width="11px" height="12px" preserveAspectRatio="xMinYMin meet" x="15.5" y="-472.2"/>
<text text-anchor="start" x="30.5" y="-462.3" font-family="Helvetica,sans-Serif" font-size="11.00" fill="#000000">pc_catid</text>
<polygon fill="none" stroke="#000000" points="262.5,-455.2 262.5,-477.2 345.5,-477.2 345.5,-455.2 262.5,-455.2"/>
<text text-anchor="start" x="265.1783" y="-462.9" font-family="Helvetica,sans-Serif" font-size="11.00" fill="#000000">int unsigned[10]</text>
<polygon fill="#ffffff" stroke="transparent" points="10.5,-433.2 10.5,-455.2 262.5,-455.2 262.5,-433.2 10.5,-433.2"/>
<polygon fill="none" stroke="#000000" points="10.5,-433.2 10.5,-455.2 262.5,-455.2 262.5,-433.2 10.5,-433.2"/>
<text text-anchor="start" x="30.5" y="-440.3" font-family="Helvetica,sans-Serif" font-size="11.00" fill="#000000">pc_constant_id</text>
<polygon fill="none" stroke="#000000" points="262.5,-433.2 262.5,-455.2 345.5,-455.2 345.5,-433.2 262.5,-433.2"/>
<text text-anchor="start" x="265.5" y="-440.9" font-family="Helvetica,sans-Serif" font-size="11.00" fill="#000000">varchar[255]</text>
<polygon fill="#ffffff" stroke="transparent" points="10.5,-411.2 10.5,-433.2 262.5,-433.2 262.5,-411.2 10.5,-411.2"/>
<polygon fill="none" stroke="#000000" points="10.5,-411.2 10.5,-433.2 262.5,-433.2 262.5,-411.2 10.5,-411.2"/>
<text text-anchor="start" x="30.5" y="-418.3" font-family="Helvetica,sans-Serif" font-size="11.00" fill="#000000">pc_catname</text>
<polygon fill="none" stroke="#000000" points="262.5,-411.2 262.5,-433.2 345.5,-433.2 345.5,-411.2 262.5,-411.2"/>
<text text-anchor="start" x="265.5" y="-418.9" font-family="Helvetica,sans-Serif" font-size="11.00" fill="#000000">varchar[100]</text>
<polygon fill="#ffffff" stroke="transparent" points="10.5,-389.2 10.5,-411.2 262.5,-411.2 262.5,-389.2 10.5,-389.2"/>
<polygon fill="none" stroke="#000000" points="10.5,-389.2 10.5,-411.2 262.5,-411.2 262.5,-389.2 10.5,-389.2"/>
<text text-anchor="start" x="30.5" y="-396.3" font-family="Helvetica,sans-Serif" font-size="11.00" fill="#000000">pc_catcolor</text>
<polygon fill="none" stroke="#000000" points="262.5,-389.2 262.5,-411.2 345.5,-411.2 345.5,-389.2 262.5,-389.2"/>
<text text-anchor="start" x="265.5" y="-396.9" font-family="Helvetica,sans-Serif" font-size="11.00" fill="#000000">varchar[50]</text>
<polygon fill="none" stroke="#000000" points="10.5,-367.2 10.5,-389.2 262.5,-389.2 262.5,-367.2 10.5,-367.2"/>
<text text-anchor="start" x="30.5" y="-374.3" font-family="Helvetica,sans-Serif" font-size="11.00" fill="#000000">pc_catdesc</text>
<polygon fill="none" stroke="#000000" points="262.5,-367.2 262.5,-389.2 345.5,-389.2 345.5,-367.2 262.5,-367.2"/>
<text text-anchor="start" x="265.5" y="-374.9" font-family="Helvetica,sans-Serif" font-size="11.00" fill="#000000">text[65535]</text>
<polygon fill="none" stroke="#000000" points="10.5,-345.2 10.5,-367.2 262.5,-367.2 262.5,-345.2 10.5,-345.2"/>
<text text-anchor="start" x="30.5" y="-352.3" font-family="Helvetica,sans-Serif" font-size="11.00" fill="#000000">pc_recurrtype</text>
<polygon fill="none" stroke="#000000" points="262.5,-345.2 262.5,-367.2 345.5,-367.2 345.5,-345.2 262.5,-345.2"/>
<text text-anchor="start" x="265.5" y="-352.9" font-family="Helvetica,sans-Serif" font-size="11.00" fill="#000000">int[10]</text>
<polygon fill="none" stroke="#000000" points="10.5,-323.2 10.5,-345.2 262.5,-345.2 262.5,-323.2 10.5,-323.2"/>
<text text-anchor="start" x="30.5" y="-330.3" font-family="Helvetica,sans-Serif" font-size="11.00" fill="#000000">pc_enddate</text>
<polygon fill="none" stroke="#000000" points="262.5,-323.2 262.5,-345.2 345.5,-345.2 345.5,-323.2 262.5,-323.2"/>
<text text-anchor="start" x="265.5" y="-330.9" font-family="Helvetica,sans-Serif" font-size="11.00" fill="#000000">date[10]</text>
<polygon fill="none" stroke="#000000" points="10.5,-301.2 10.5,-323.2 262.5,-323.2 262.5,-301.2 10.5,-301.2"/>
<text text-anchor="start" x="30.5" y="-308.3" font-family="Helvetica,sans-Serif" font-size="11.00" fill="#000000">pc_recurrspec</text>
<polygon fill="none" stroke="#000000" points="262.5,-301.2 262.5,-323.2 345.5,-323.2 345.5,-301.2 262.5,-301.2"/>
<text text-anchor="start" x="265.5" y="-308.9" font-family="Helvetica,sans-Serif" font-size="11.00" fill="#000000">text[65535]</text>
<polygon fill="none" stroke="#000000" points="10.5,-279.2 10.5,-301.2 262.5,-301.2 262.5,-279.2 10.5,-279.2"/>
<text text-anchor="start" x="30.5" y="-286.3" font-family="Helvetica,sans-Serif" font-size="11.00" fill="#000000">pc_recurrfreq</text>
<polygon fill="none" stroke="#000000" points="262.5,-279.2 262.5,-301.2 345.5,-301.2 345.5,-279.2 262.5,-279.2"/>
<text text-anchor="start" x="265.5" y="-286.9" font-family="Helvetica,sans-Serif" font-size="11.00" fill="#000000">int[10]</text>
<polygon fill="none" stroke="#000000" points="10.5,-257.2 10.5,-279.2 262.5,-279.2 262.5,-257.2 10.5,-257.2"/>
<text text-anchor="start" x="30.5" y="-264.3" font-family="Helvetica,sans-Serif" font-size="11.00" fill="#000000">pc_duration</text>
<polygon fill="none" stroke="#000000" points="262.5,-257.2 262.5,-279.2 345.5,-279.2 345.5,-257.2 262.5,-257.2"/>
<text text-anchor="start" x="265.5" y="-264.9" font-family="Helvetica,sans-Serif" font-size="11.00" fill="#000000">bigint[19]</text>
<polygon fill="none" stroke="#000000" points="10.5,-235.2 10.5,-257.2 262.5,-257.2 262.5,-235.2 10.5,-235.2"/>
<text text-anchor="start" x="30.5" y="-242.3" font-family="Helvetica,sans-Serif" font-size="11.00" fill="#000000">pc_end_date_flag</text>
<polygon fill="none" stroke="#000000" points="262.5,-235.2 262.5,-257.2 345.5,-257.2 345.5,-235.2 262.5,-235.2"/>
<text text-anchor="start" x="265.5" y="-242.9" font-family="Helvetica,sans-Serif" font-size="11.00" fill="#000000">bit[1]</text>
<polygon fill="none" stroke="#000000" points="10.5,-213.2 10.5,-235.2 262.5,-235.2 262.5,-213.2 10.5,-213.2"/>
<text text-anchor="start" x="30.5" y="-220.3" font-family="Helvetica,sans-Serif" font-size="11.00" fill="#000000">pc_end_date_type</text>
<polygon fill="none" stroke="#000000" points="262.5,-213.2 262.5,-235.2 345.5,-235.2 345.5,-213.2 262.5,-213.2"/>
<text text-anchor="start" x="265.5" y="-220.9" font-family="Helvetica,sans-Serif" font-size="11.00" fill="#000000">int[10]</text>
<polygon fill="none" stroke="#000000" points="10.5,-191.2 10.5,-213.2 262.5,-213.2 262.5,-191.2 10.5,-191.2"/>
<text text-anchor="start" x="30.5" y="-198.3" font-family="Helvetica,sans-Serif" font-size="11.00" fill="#000000">pc_end_date_freq</text>
<polygon fill="none" stroke="#000000" points="262.5,-191.2 262.5,-213.2 345.5,-213.2 345.5,-191.2 262.5,-191.2"/>
<text text-anchor="start" x="265.5" y="-198.9" font-family="Helvetica,sans-Serif" font-size="11.00" fill="#000000">int[10]</text>
<polygon fill="none" stroke="#000000" points="10.5,-169.2 10.5,-191.2 262.5,-191.2 262.5,-169.2 10.5,-169.2"/>
<text text-anchor="start" x="30.5" y="-176.3" font-family="Helvetica,sans-Serif" font-size="11.00" fill="#000000">pc_end_all_day</text>
<polygon fill="none" stroke="#000000" points="262.5,-169.2 262.5,-191.2 345.5,-191.2 345.5,-169.2 262.5,-169.2"/>
<text text-anchor="start" x="265.5" y="-176.9" font-family="Helvetica,sans-Serif" font-size="11.00" fill="#000000">bit[1]</text>
<polygon fill="none" stroke="#000000" points="10.5,-147.2 10.5,-169.2 262.5,-169.2 262.5,-147.2 10.5,-147.2"/>
<text text-anchor="start" x="30.5" y="-154.3" font-family="Helvetica,sans-Serif" font-size="11.00" fill="#000000">pc_dailylimit</text>
<polygon fill="none" stroke="#000000" points="262.5,-147.2 262.5,-169.2 345.5,-169.2 345.5,-147.2 262.5,-147.2"/>
<text text-anchor="start" x="265.5" y="-154.9" font-family="Helvetica,sans-Serif" font-size="11.00" fill="#000000">int[10]</text>
<polygon fill="none" stroke="#000000" points="10.5,-125.2 10.5,-147.2 262.5,-147.2 262.5,-125.2 10.5,-125.2"/>
<text text-anchor="start" x="30.5" y="-132.3" font-family="Helvetica,sans-Serif" font-size="11.00" fill="#000000">pc_cattype</text>
<polygon fill="none" stroke="#000000" points="262.5,-125.2 262.5,-147.2 345.5,-147.2 345.5,-125.2 262.5,-125.2"/>
<text text-anchor="start" x="265.5" y="-132.9" font-family="Helvetica,sans-Serif" font-size="11.00" fill="#000000">int[10]</text>
<polygon fill="none" stroke="#000000" points="10.5,-103.2 10.5,-125.2 262.5,-125.2 262.5,-103.2 10.5,-103.2"/>
<text text-anchor="start" x="30.5" y="-110.3" font-family="Helvetica,sans-Serif" font-size="11.00" fill="#000000">pc_active</text>
<polygon fill="none" stroke="#000000" points="262.5,-103.2 262.5,-125.2 345.5,-125.2 345.5,-103.2 262.5,-103.2"/>
<text text-anchor="start" x="265.5" y="-110.9" font-family="Helvetica,sans-Serif" font-size="11.00" fill="#000000">bit[1]</text>
<polygon fill="none" stroke="#000000" points="10.5,-81.2 10.5,-103.2 262.5,-103.2 262.5,-81.2 10.5,-81.2"/>
<text text-anchor="start" x="30.5" y="-88.3" font-family="Helvetica,sans-Serif" font-size="11.00" fill="#000000">pc_seq</text>
<polygon fill="none" stroke="#000000" points="262.5,-81.2 262.5,-103.2 345.5,-103.2 345.5,-81.2 262.5,-81.2"/>
<text text-anchor="start" x="265.5" y="-88.9" font-family="Helvetica,sans-Serif" font-size="11.00" fill="#000000">int[10]</text>
<polygon fill="none" stroke="#000000" points="10.5,-59.2 10.5,-81.2 262.5,-81.2 262.5,-59.2 10.5,-59.2"/>
<text text-anchor="start" x="30.5" y="-66.3" font-family="Helvetica,sans-Serif" font-size="11.00" fill="#000000">aco_spec</text>
<polygon fill="none" stroke="#000000" points="262.5,-59.2 262.5,-81.2 345.5,-81.2 345.5,-59.2 262.5,-59.2"/>
<text text-anchor="start" x="265.5" y="-66.9" font-family="Helvetica,sans-Serif" font-size="11.00" fill="#000000">varchar[63]</text>
<polygon fill="#ffffff" stroke="transparent" points="10.5,-40.2 10.5,-59.2 140.5,-59.2 140.5,-40.2 10.5,-40.2"/>
<polygon fill="none" stroke="#000000" points="10.5,-40.2 10.5,-59.2 140.5,-59.2 140.5,-40.2 10.5,-40.2"/>
<text text-anchor="start" x="13.5" y="-46.3" font-family="Helvetica,sans-Serif" font-size="11.00" fill="#000000">&lt; 0</text>
<polygon fill="#ffffff" stroke="transparent" points="140.5,-40.2 140.5,-59.2 262.5,-59.2 262.5,-40.2 140.5,-40.2"/>
<polygon fill="none" stroke="#000000" points="140.5,-40.2 140.5,-59.2 262.5,-59.2 262.5,-40.2 140.5,-40.2"/>
<text text-anchor="start" x="253.3862" y="-46.3" font-family="Helvetica,sans-Serif" font-size="11.00" fill="#000000"> &#160;</text>
<polygon fill="#ffffff" stroke="transparent" points="262.5,-40.2 262.5,-59.2 345.5,-59.2 345.5,-40.2 262.5,-40.2"/>
<polygon fill="none" stroke="#000000" points="262.5,-40.2 262.5,-59.2 345.5,-59.2 345.5,-40.2 262.5,-40.2"/>
<text text-anchor="start" x="326.9053" y="-46.3" font-family="Helvetica,sans-Serif" font-size="11.00" fill="#000000">1 &gt;</text>
<polygon fill="none" stroke="#000000" stroke-width="2" points="9,-39.2 9,-501.2 346,-501.2 346,-39.2 9,-39.2"/>
</a>
</g>
</g>
<!-- openemr_postcalendar_events&#45;&gt;openemr_postcalendar_categories -->
<g id="edge1" class="edge">
<title>openemr_postcalendar_events:w&#45;&gt;openemr_postcalendar_categories:e</title>
<path fill="none" stroke="#000000" d="M381.4203,-466.2C369.5435,-466.2 362.158,-466.2 345.5,-466.2"/>
<polygon fill="#000000" stroke="#000000" points="388,-466.2001 396,-469.8 392,-466.2 396,-466.2 396,-466.2 396,-466.2 392,-466.2 396,-462.6 388,-466.2001 388,-466.2001"/>
<ellipse fill="none" stroke="#000000" cx="384.8" cy="-466.2001" rx="3.2" ry="3.2"/>
</g>
</g>
</svg>
