<?xml version="1.0" encoding="UTF-8" standalone="no"?>
<!DOCTYPE svg PUBLIC "-//W3C//DTD SVG 1.1//EN"
 "http://www.w3.org/Graphics/SVG/1.1/DTD/svg11.dtd">
<!-- Generated by graphviz version 2.40.1 (20161225.0304)
 -->
<!-- Title: oneDegreeRelationshipsDiagram Pages: 1 -->
<svg width="710pt" height="431pt"
 viewBox="0.00 0.00 710.00 430.70" xmlns="http://www.w3.org/2000/svg" xmlns:xlink="http://www.w3.org/1999/xlink">
<g id="graph0" class="graph" transform="scale(1 1) rotate(0) translate(4 426.7)">
<title>oneDegreeRelationshipsDiagram</title>
<polygon fill="#ffffff" stroke="transparent" points="-4,4 -4,-426.7 706,-426.7 706,4 -4,4"/>
<text text-anchor="middle" x="72.4936" y="-7.3" font-family="Helvetica,sans-Serif" font-size="11.00" fill="#000000">Generated by SchemaSpy</text>
<!-- patient_data -->
<g id="node1" class="node">
<title>patient_data</title>
<g id="a_node1"><a xlink:href="../../tables/patient_data.html" xlink:title="patient_data" target="_top">
<polygon fill="#ffffff" stroke="transparent" points="224,-148.2 224,-385.2 391,-385.2 391,-148.2 224,-148.2"/>
<polygon fill="#f5f5f5" stroke="transparent" points="224.5,-361.7 224.5,-384.7 391.5,-384.7 391.5,-361.7 224.5,-361.7"/>
<polygon fill="none" stroke="#000000" points="224.5,-361.7 224.5,-384.7 391.5,-384.7 391.5,-361.7 224.5,-361.7"/>
<text text-anchor="start" x="229.5" y="-370.3" font-family="Helvetica,sans-Serif" font-weight="bold" font-size="11.00" fill="#000000">patient_data</text>
<text text-anchor="start" x="356.5437" y="-369.8" font-family="Helvetica,sans-Serif" font-size="11.00" fill="#000000">[table]</text>
<polygon fill="#ffffff" stroke="transparent" points="224.5,-339.7 224.5,-361.7 391.5,-361.7 391.5,-339.7 224.5,-339.7"/>
<polygon fill="none" stroke="#000000" points="224.5,-339.7 224.5,-361.7 391.5,-361.7 391.5,-339.7 224.5,-339.7"/>
<text text-anchor="start" x="244.5" y="-346.8" font-family="Helvetica,sans-Serif" font-size="11.00" fill="#000000">id</text>
<polygon fill="none" stroke="#000000" points="224.5,-317.7 224.5,-339.7 391.5,-339.7 391.5,-317.7 224.5,-317.7"/>
<image xlink:href="../../images/foreignKeys.png" width="11px" height="12px" preserveAspectRatio="xMinYMin meet" x="229.5" y="-334.7"/>
<text text-anchor="start" x="244.5" y="-324.8" font-family="Helvetica,sans-Serif" font-size="11.00" fill="#000000">pharmacy_id</text>
<polygon fill="none" stroke="#000000" points="224.5,-295.7 224.5,-317.7 391.5,-317.7 391.5,-295.7 224.5,-295.7"/>
<image xlink:href="../../images/foreignKeys.png" width="11px" height="12px" preserveAspectRatio="xMinYMin meet" x="229.5" y="-312.7"/>
<text text-anchor="start" x="244.5" y="-302.8" font-family="Helvetica,sans-Serif" font-size="11.00" fill="#000000">providerID</text>
<polygon fill="none" stroke="#000000" points="224.5,-273.7 224.5,-295.7 391.5,-295.7 391.5,-273.7 224.5,-273.7"/>
<image xlink:href="../../images/foreignKeys.png" width="11px" height="12px" preserveAspectRatio="xMinYMin meet" x="229.5" y="-290.7"/>
<text text-anchor="start" x="244.5" y="-280.8" font-family="Helvetica,sans-Serif" font-size="11.00" fill="#000000">ref_providerID</text>
<polygon fill="none" stroke="#000000" points="224.5,-251.7 224.5,-273.7 391.5,-273.7 391.5,-251.7 224.5,-251.7"/>
<image xlink:href="../../images/primaryKeys.png" width="11px" height="12px" preserveAspectRatio="xMinYMin meet" x="229.5" y="-268.7"/>
<text text-anchor="start" x="244.5" y="-258.8" font-family="Helvetica,sans-Serif" font-size="11.00" fill="#000000">pid</text>
<polygon fill="#ffffff" stroke="transparent" points="224.5,-229.7 224.5,-251.7 391.5,-251.7 391.5,-229.7 224.5,-229.7"/>
<polygon fill="none" stroke="#000000" points="224.5,-229.7 224.5,-251.7 391.5,-251.7 391.5,-229.7 224.5,-229.7"/>
<text text-anchor="start" x="244.5" y="-236.8" font-family="Helvetica,sans-Serif" font-size="11.00" fill="#000000">uuid</text>
<polygon fill="none" stroke="#000000" points="224.5,-207.7 224.5,-229.7 391.5,-229.7 391.5,-207.7 224.5,-207.7"/>
<image xlink:href="../../images/foreignKeys.png" width="11px" height="12px" preserveAspectRatio="xMinYMin meet" x="229.5" y="-224.7"/>
<text text-anchor="start" x="244.5" y="-214.8" font-family="Helvetica,sans-Serif" font-size="11.00" fill="#000000">created_by</text>
<polygon fill="none" stroke="#000000" points="224.5,-185.7 224.5,-207.7 391.5,-207.7 391.5,-185.7 224.5,-185.7"/>
<image xlink:href="../../images/foreignKeys.png" width="11px" height="12px" preserveAspectRatio="xMinYMin meet" x="229.5" y="-202.7"/>
<text text-anchor="start" x="244.5" y="-192.8" font-family="Helvetica,sans-Serif" font-size="11.00" fill="#000000">updated_by</text>
<polygon fill="none" stroke="#000000" points="224.5,-166.7 224.5,-185.7 391.5,-185.7 391.5,-166.7 224.5,-166.7"/>
<text text-anchor="start" x="227.5" y="-172.8" font-family="Helvetica,sans-Serif" font-size="11.00" fill="#000000">...</text>
<polygon fill="#ffffff" stroke="transparent" points="224.5,-147.7 224.5,-166.7 298.5,-166.7 298.5,-147.7 224.5,-147.7"/>
<polygon fill="none" stroke="#000000" points="224.5,-147.7 224.5,-166.7 298.5,-166.7 298.5,-147.7 224.5,-147.7"/>
<text text-anchor="start" x="227.5" y="-153.8" font-family="Helvetica,sans-Serif" font-size="11.00" fill="#000000">&lt; 5</text>
<polygon fill="#ffffff" stroke="transparent" points="298.5,-147.7 298.5,-166.7 337.5,-166.7 337.5,-147.7 298.5,-147.7"/>
<polygon fill="none" stroke="#000000" points="298.5,-147.7 298.5,-166.7 337.5,-166.7 337.5,-147.7 298.5,-147.7"/>
<text text-anchor="start" x="328.3862" y="-153.8" font-family="Helvetica,sans-Serif" font-size="11.00" fill="#000000"> &#160;</text>
<polygon fill="#ffffff" stroke="transparent" points="337.5,-147.7 337.5,-166.7 391.5,-166.7 391.5,-147.7 337.5,-147.7"/>
<polygon fill="none" stroke="#000000" points="337.5,-147.7 337.5,-166.7 391.5,-166.7 391.5,-147.7 337.5,-147.7"/>
<text text-anchor="start" x="366.7904" y="-153.8" font-family="Helvetica,sans-Serif" font-size="11.00" fill="#000000">85 &gt;</text>
</a>
</g>
</g>
<!-- users -->
<g id="node2" class="node">
<title>users</title>
<g id="a_node2"><a xlink:href="../../tables/users.html" xlink:title="users" target="_top">
<polygon fill="#ffffff" stroke="transparent" points="8,-38.2 8,-253.2 175,-253.2 175,-38.2 8,-38.2"/>
<polygon fill="#f5f5f5" stroke="transparent" points="8.5,-229.7 8.5,-252.7 175.5,-252.7 175.5,-229.7 8.5,-229.7"/>
<polygon fill="none" stroke="#000000" points="8.5,-229.7 8.5,-252.7 175.5,-252.7 175.5,-229.7 8.5,-229.7"/>
<text text-anchor="start" x="13.5" y="-238.3" font-family="Helvetica,sans-Serif" font-weight="bold" font-size="11.00" fill="#000000">users</text>
<text text-anchor="start" x="140.5437" y="-237.8" font-family="Helvetica,sans-Serif" font-size="11.00" fill="#000000">[table]</text>
<polygon fill="none" stroke="#000000" points="8.5,-207.7 8.5,-229.7 175.5,-229.7 175.5,-207.7 8.5,-207.7"/>
<image xlink:href="../../images/primaryKeys.png" width="11px" height="12px" preserveAspectRatio="xMinYMin meet" x="13.5" y="-224.7"/>
<text text-anchor="start" x="28.5" y="-214.8" font-family="Helvetica,sans-Serif" font-size="11.00" fill="#000000">id</text>
<polygon fill="none" stroke="#000000" points="8.5,-185.7 8.5,-207.7 175.5,-207.7 175.5,-185.7 8.5,-185.7"/>
<image xlink:href="../../images/primaryKeys.png" width="11px" height="12px" preserveAspectRatio="xMinYMin meet" x="13.5" y="-202.7"/>
<text text-anchor="start" x="28.5" y="-192.8" font-family="Helvetica,sans-Serif" font-size="11.00" fill="#000000">username</text>
<polygon fill="none" stroke="#000000" points="8.5,-163.7 8.5,-185.7 175.5,-185.7 175.5,-163.7 8.5,-163.7"/>
<image xlink:href="../../images/foreignKeys.png" width="11px" height="12px" preserveAspectRatio="xMinYMin meet" x="13.5" y="-180.7"/>
<text text-anchor="start" x="28.5" y="-170.8" font-family="Helvetica,sans-Serif" font-size="11.00" fill="#000000">facility_id</text>
<polygon fill="#ffffff" stroke="transparent" points="8.5,-141.7 8.5,-163.7 175.5,-163.7 175.5,-141.7 8.5,-141.7"/>
<polygon fill="none" stroke="#000000" points="8.5,-141.7 8.5,-163.7 175.5,-163.7 175.5,-141.7 8.5,-141.7"/>
<text text-anchor="start" x="28.5" y="-148.8" font-family="Helvetica,sans-Serif" font-size="11.00" fill="#000000">abook_type</text>
<polygon fill="#ffffff" stroke="transparent" points="8.5,-119.7 8.5,-141.7 175.5,-141.7 175.5,-119.7 8.5,-119.7"/>
<polygon fill="none" stroke="#000000" points="8.5,-119.7 8.5,-141.7 175.5,-141.7 175.5,-119.7 8.5,-119.7"/>
<text text-anchor="start" x="28.5" y="-126.8" font-family="Helvetica,sans-Serif" font-size="11.00" fill="#000000">uuid</text>
<polygon fill="#ffffff" stroke="transparent" points="8.5,-97.7 8.5,-119.7 175.5,-119.7 175.5,-97.7 8.5,-97.7"/>
<polygon fill="none" stroke="#000000" points="8.5,-97.7 8.5,-119.7 175.5,-119.7 175.5,-97.7 8.5,-97.7"/>
<text text-anchor="start" x="28.5" y="-104.8" font-family="Helvetica,sans-Serif" font-size="11.00" fill="#000000">google_signin_email</text>
<polygon fill="none" stroke="#000000" points="8.5,-75.7 8.5,-97.7 175.5,-97.7 175.5,-75.7 8.5,-75.7"/>
<image xlink:href="../../images/foreignKeys.png" width="11px" height="12px" preserveAspectRatio="xMinYMin meet" x="13.5" y="-92.7"/>
<text text-anchor="start" x="28.5" y="-82.8" font-family="Helvetica,sans-Serif" font-size="11.00" fill="#000000">billing_facility_id</text>
<polygon fill="none" stroke="#000000" points="8.5,-56.7 8.5,-75.7 175.5,-75.7 175.5,-56.7 8.5,-56.7"/>
<text text-anchor="start" x="11.5" y="-62.8" font-family="Helvetica,sans-Serif" font-size="11.00" fill="#000000">...</text>
<polygon fill="#ffffff" stroke="transparent" points="8.5,-37.7 8.5,-56.7 82.5,-56.7 82.5,-37.7 8.5,-37.7"/>
<polygon fill="none" stroke="#000000" points="8.5,-37.7 8.5,-56.7 82.5,-56.7 82.5,-37.7 8.5,-37.7"/>
<text text-anchor="start" x="11.5" y="-43.8" font-family="Helvetica,sans-Serif" font-size="11.00" fill="#000000">&lt; 2</text>
<polygon fill="#ffffff" stroke="transparent" points="82.5,-37.7 82.5,-56.7 121.5,-56.7 121.5,-37.7 82.5,-37.7"/>
<polygon fill="none" stroke="#000000" points="82.5,-37.7 82.5,-56.7 121.5,-56.7 121.5,-37.7 82.5,-37.7"/>
<text text-anchor="start" x="112.3862" y="-43.8" font-family="Helvetica,sans-Serif" font-size="11.00" fill="#000000"> &#160;</text>
<polygon fill="#ffffff" stroke="transparent" points="121.5,-37.7 121.5,-56.7 175.5,-56.7 175.5,-37.7 121.5,-37.7"/>
<polygon fill="none" stroke="#000000" points="121.5,-37.7 121.5,-56.7 175.5,-56.7 175.5,-37.7 121.5,-37.7"/>
<text text-anchor="start" x="150.7904" y="-43.8" font-family="Helvetica,sans-Serif" font-size="11.00" fill="#000000">61 &gt;</text>
</a>
</g>
</g>
<!-- patient_data&#45;&gt;users -->
<g id="edge1" class="edge">
<title>patient_data:w&#45;&gt;users:e</title>
<path fill="none" stroke="#000000" d="M209.9909,-218.7C198.6774,-218.7 191.4931,-218.7 175.5,-218.7"/>
<polygon fill="#000000" stroke="#000000" points="216.5,-218.7001 224.5,-222.3 220.5,-218.7 224.5,-218.7 224.5,-218.7 224.5,-218.7 220.5,-218.7 224.5,-215.1 216.5,-218.7001 216.5,-218.7001"/>
<ellipse fill="none" stroke="#000000" cx="213.3" cy="-218.7001" rx="3.2" ry="3.2"/>
</g>
<!-- patient_data&#45;&gt;users -->
<g id="edge2" class="edge">
<title>patient_data:w&#45;&gt;users:e</title>
<path fill="none" stroke="#000000" d="M210.4863,-302.2151C189.2228,-284.2824 214.1452,-218.7 175.5,-218.7"/>
<polygon fill="#000000" stroke="#000000" points="216.8807,-304.2615 223.4027,-310.1287 220.6903,-305.4807 224.5,-306.7 224.5,-306.7 224.5,-306.7 220.6903,-305.4807 225.5973,-303.2713 216.8807,-304.2615 216.8807,-304.2615"/>
<ellipse fill="none" stroke="#000000" cx="213.833" cy="-303.2861" rx="3.2" ry="3.2"/>
</g>
<!-- patient_data&#45;&gt;users -->
<g id="edge3" class="edge">
<title>patient_data:w&#45;&gt;users:e</title>
<path fill="none" stroke="#000000" d="M210.8768,-279.9534C194.2322,-264.8202 206.0399,-218.7 175.5,-218.7"/>
<polygon fill="#000000" stroke="#000000" points="216.9454,-282.0678 223.3155,-288.0996 220.7227,-283.3839 224.5,-284.7 224.5,-284.7 224.5,-284.7 220.7227,-283.3839 225.6845,-281.3004 216.9454,-282.0678 216.9454,-282.0678"/>
<ellipse fill="none" stroke="#000000" cx="213.9236" cy="-281.0149" rx="3.2" ry="3.2"/>
</g>
<!-- patient_data&#45;&gt;users -->
<g id="edge4" class="edge">
<title>patient_data:w&#45;&gt;users:e</title>
<path fill="none" stroke="#000000" d="M210.1297,-200.1375C198.5865,-206.325 193.4041,-218.7 175.5,-218.7"/>
<polygon fill="#000000" stroke="#000000" points="216.7195,-198.5612 225.3375,-200.2012 220.6098,-197.6306 224.5,-196.7 224.5,-196.7 224.5,-196.7 220.6098,-197.6306 223.6625,-193.1988 216.7195,-198.5612 216.7195,-198.5612"/>
<ellipse fill="none" stroke="#000000" cx="213.6073" cy="-199.3057" rx="3.2" ry="3.2"/>
</g>
<!-- patient_history -->
<g id="node3" class="node">
<title>patient_history</title>
<g id="a_node3"><a xlink:href="../../tables/patient_history.html" xlink:title="patient_history" target="_top">
<polygon fill="#ffffff" stroke="transparent" points="440,-64.7 440,-418.7 694,-418.7 694,-64.7 440,-64.7"/>
<polygon fill="#f5f5f5" stroke="transparent" points="442,-393.7 442,-416.7 692,-416.7 692,-393.7 442,-393.7"/>
<polygon fill="none" stroke="#000000" points="442,-393.7 442,-416.7 692,-416.7 692,-393.7 442,-393.7"/>
<text text-anchor="start" x="447" y="-402.3" font-family="Helvetica,sans-Serif" font-weight="bold" font-size="11.00" fill="#000000">patient_history</text>
<text text-anchor="start" x="657.0437" y="-401.8" font-family="Helvetica,sans-Serif" font-size="11.00" fill="#000000">[table]</text>
<polygon fill="none" stroke="#000000" points="442,-371.7 442,-393.7 626,-393.7 626,-371.7 442,-371.7"/>
<image xlink:href="../../images/primaryKeys.png" width="11px" height="12px" preserveAspectRatio="xMinYMin meet" x="447" y="-388.7"/>
<text text-anchor="start" x="462" y="-378.8" font-family="Helvetica,sans-Serif" font-size="11.00" fill="#000000">id</text>
<polygon fill="none" stroke="#000000" points="626,-371.7 626,-393.7 692,-393.7 692,-371.7 626,-371.7"/>
<text text-anchor="start" x="629" y="-379.4" font-family="Helvetica,sans-Serif" font-size="11.00" fill="#000000">bigint[19]</text>
<polygon fill="#ffffff" stroke="transparent" points="442,-349.7 442,-371.7 626,-371.7 626,-349.7 442,-349.7"/>
<polygon fill="none" stroke="#000000" points="442,-349.7 442,-371.7 626,-371.7 626,-349.7 442,-349.7"/>
<text text-anchor="start" x="462" y="-356.8" font-family="Helvetica,sans-Serif" font-size="11.00" fill="#000000">uuid</text>
<polygon fill="none" stroke="#000000" points="626,-349.7 626,-371.7 692,-371.7 692,-349.7 626,-349.7"/>
<text text-anchor="start" x="629" y="-357.4" font-family="Helvetica,sans-Serif" font-size="11.00" fill="#000000">binary[16]</text>
<polygon fill="none" stroke="#000000" points="442,-327.7 442,-349.7 626,-349.7 626,-327.7 442,-327.7"/>
<text text-anchor="start" x="462" y="-334.8" font-family="Helvetica,sans-Serif" font-size="11.00" fill="#000000">date</text>
<polygon fill="none" stroke="#000000" points="626,-327.7 626,-349.7 692,-349.7 692,-327.7 626,-327.7"/>
<text text-anchor="start" x="628.7401" y="-335.4" font-family="Helvetica,sans-Serif" font-size="11.00" fill="#000000">datetime[19]</text>
<polygon fill="none" stroke="#000000" points="442,-305.7 442,-327.7 626,-327.7 626,-305.7 442,-305.7"/>
<text text-anchor="start" x="462" y="-312.8" font-family="Helvetica,sans-Serif" font-size="11.00" fill="#000000">care_team_provider</text>
<polygon fill="none" stroke="#000000" points="626,-305.7 626,-327.7 692,-327.7 692,-305.7 626,-305.7"/>
<text text-anchor="start" x="629" y="-313.4" font-family="Helvetica,sans-Serif" font-size="11.00" fill="#000000">text[65535]</text>
<polygon fill="none" stroke="#000000" points="442,-283.7 442,-305.7 626,-305.7 626,-283.7 442,-283.7"/>
<text text-anchor="start" x="462" y="-290.8" font-family="Helvetica,sans-Serif" font-size="11.00" fill="#000000">care_team_facility</text>
<polygon fill="none" stroke="#000000" points="626,-283.7 626,-305.7 692,-305.7 692,-283.7 626,-283.7"/>
<text text-anchor="start" x="629" y="-291.4" font-family="Helvetica,sans-Serif" font-size="11.00" fill="#000000">text[65535]</text>
<polygon fill="#ffffff" stroke="transparent" points="442,-261.7 442,-283.7 626,-283.7 626,-261.7 442,-261.7"/>
<polygon fill="none" stroke="#000000" points="442,-261.7 442,-283.7 626,-283.7 626,-261.7 442,-261.7"/>
<image xlink:href="../../images/foreignKeys.png" width="11px" height="12px" preserveAspectRatio="xMinYMin meet" x="447" y="-278.7"/>
<text text-anchor="start" x="462" y="-268.8" font-family="Helvetica,sans-Serif" font-size="11.00" fill="#000000">pid</text>
<polygon fill="none" stroke="#000000" points="626,-261.7 626,-283.7 692,-283.7 692,-261.7 626,-261.7"/>
<text text-anchor="start" x="629" y="-269.4" font-family="Helvetica,sans-Serif" font-size="11.00" fill="#000000">bigint[19]</text>
<polygon fill="none" stroke="#000000" points="442,-239.7 442,-261.7 626,-261.7 626,-239.7 442,-239.7"/>
<text text-anchor="start" x="462" y="-246.8" font-family="Helvetica,sans-Serif" font-size="11.00" fill="#000000">history_type_key</text>
<polygon fill="none" stroke="#000000" points="626,-239.7 626,-261.7 692,-261.7 692,-239.7 626,-239.7"/>
<text text-anchor="start" x="629" y="-247.4" font-family="Helvetica,sans-Serif" font-size="11.00" fill="#000000">varchar[36]</text>
<polygon fill="none" stroke="#000000" points="442,-217.7 442,-239.7 626,-239.7 626,-217.7 442,-217.7"/>
<text text-anchor="start" x="462" y="-224.8" font-family="Helvetica,sans-Serif" font-size="11.00" fill="#000000">previous_name_prefix</text>
<polygon fill="none" stroke="#000000" points="626,-217.7 626,-239.7 692,-239.7 692,-217.7 626,-217.7"/>
<text text-anchor="start" x="629" y="-225.4" font-family="Helvetica,sans-Serif" font-size="11.00" fill="#000000">text[65535]</text>
<polygon fill="none" stroke="#000000" points="442,-195.7 442,-217.7 626,-217.7 626,-195.7 442,-195.7"/>
<text text-anchor="start" x="462" y="-202.8" font-family="Helvetica,sans-Serif" font-size="11.00" fill="#000000">previous_name_first</text>
<polygon fill="none" stroke="#000000" points="626,-195.7 626,-217.7 692,-217.7 692,-195.7 626,-195.7"/>
<text text-anchor="start" x="629" y="-203.4" font-family="Helvetica,sans-Serif" font-size="11.00" fill="#000000">text[65535]</text>
<polygon fill="none" stroke="#000000" points="442,-173.7 442,-195.7 626,-195.7 626,-173.7 442,-173.7"/>
<text text-anchor="start" x="462" y="-180.8" font-family="Helvetica,sans-Serif" font-size="11.00" fill="#000000">previous_name_middle</text>
<polygon fill="none" stroke="#000000" points="626,-173.7 626,-195.7 692,-195.7 692,-173.7 626,-173.7"/>
<text text-anchor="start" x="629" y="-181.4" font-family="Helvetica,sans-Serif" font-size="11.00" fill="#000000">text[65535]</text>
<polygon fill="none" stroke="#000000" points="442,-151.7 442,-173.7 626,-173.7 626,-151.7 442,-151.7"/>
<text text-anchor="start" x="462" y="-158.8" font-family="Helvetica,sans-Serif" font-size="11.00" fill="#000000">previous_name_last</text>
<polygon fill="none" stroke="#000000" points="626,-151.7 626,-173.7 692,-173.7 692,-151.7 626,-151.7"/>
<text text-anchor="start" x="629" y="-159.4" font-family="Helvetica,sans-Serif" font-size="11.00" fill="#000000">text[65535]</text>
<polygon fill="none" stroke="#000000" points="442,-129.7 442,-151.7 626,-151.7 626,-129.7 442,-129.7"/>
<text text-anchor="start" x="462" y="-136.8" font-family="Helvetica,sans-Serif" font-size="11.00" fill="#000000">previous_name_suffix</text>
<polygon fill="none" stroke="#000000" points="626,-129.7 626,-151.7 692,-151.7 692,-129.7 626,-129.7"/>
<text text-anchor="start" x="629" y="-137.4" font-family="Helvetica,sans-Serif" font-size="11.00" fill="#000000">text[65535]</text>
<polygon fill="none" stroke="#000000" points="442,-107.7 442,-129.7 626,-129.7 626,-107.7 442,-107.7"/>
<text text-anchor="start" x="462" y="-114.8" font-family="Helvetica,sans-Serif" font-size="11.00" fill="#000000">previous_name_enddate</text>
<polygon fill="none" stroke="#000000" points="626,-107.7 626,-129.7 692,-129.7 692,-107.7 626,-107.7"/>
<text text-anchor="start" x="629" y="-115.4" font-family="Helvetica,sans-Serif" font-size="11.00" fill="#000000">date[10]</text>
<polygon fill="none" stroke="#000000" points="442,-85.7 442,-107.7 626,-107.7 626,-85.7 442,-85.7"/>
<image xlink:href="../../images/foreignKeys.png" width="11px" height="12px" preserveAspectRatio="xMinYMin meet" x="447" y="-102.7"/>
<text text-anchor="start" x="462" y="-92.8" font-family="Helvetica,sans-Serif" font-size="11.00" fill="#000000">created_by</text>
<polygon fill="none" stroke="#000000" points="626,-85.7 626,-107.7 692,-107.7 692,-85.7 626,-85.7"/>
<text text-anchor="start" x="629" y="-93.4" font-family="Helvetica,sans-Serif" font-size="11.00" fill="#000000">bigint[19]</text>
<polygon fill="#ffffff" stroke="transparent" points="442,-66.7 442,-85.7 538,-85.7 538,-66.7 442,-66.7"/>
<polygon fill="none" stroke="#000000" points="442,-66.7 442,-85.7 538,-85.7 538,-66.7 442,-66.7"/>
<text text-anchor="start" x="445" y="-72.8" font-family="Helvetica,sans-Serif" font-size="11.00" fill="#000000">&lt; 2</text>
<polygon fill="#ffffff" stroke="transparent" points="538,-66.7 538,-85.7 626,-85.7 626,-66.7 538,-66.7"/>
<polygon fill="none" stroke="#000000" points="538,-66.7 538,-85.7 626,-85.7 626,-66.7 538,-66.7"/>
<text text-anchor="start" x="616.8862" y="-72.8" font-family="Helvetica,sans-Serif" font-size="11.00" fill="#000000"> &#160;</text>
<polygon fill="#ffffff" stroke="transparent" points="626,-66.7 626,-85.7 692,-85.7 692,-66.7 626,-66.7"/>
<polygon fill="none" stroke="#000000" points="626,-66.7 626,-85.7 692,-85.7 692,-66.7 626,-66.7"/>
<text text-anchor="start" x="673.4053" y="-72.8" font-family="Helvetica,sans-Serif" font-size="11.00" fill="#000000">0 &gt;</text>
<polygon fill="none" stroke="#000000" stroke-width="2" points="441,-65.7 441,-417.7 693,-417.7 693,-65.7 441,-65.7"/>
</a>
</g>
</g>
<!-- patient_history&#45;&gt;patient_data -->
<g id="edge6" class="edge">
<title>patient_history:w&#45;&gt;patient_data:e</title>
<path fill="none" stroke="#000000" d="M427.6743,-271.1375C415.6162,-268.325 408.6602,-262.7 391.5,-262.7"/>
<polygon fill="#000000" stroke="#000000" points="434.0472,-271.8325 441.6096,-276.2788 438.0236,-272.2663 442,-272.7 442,-272.7 442,-272.7 438.0236,-272.2663 442.3904,-269.1212 434.0472,-271.8325 434.0472,-271.8325"/>
<ellipse fill="none" stroke="#000000" cx="430.866" cy="-271.4856" rx="3.2" ry="3.2"/>
</g>
<!-- patient_history&#45;&gt;users -->
<g id="edge5" class="edge">
<title>patient_history:w&#45;&gt;users:e</title>
<path fill="none" stroke="#000000" d="M427.4628,-96.5671C335.6973,-94.9182 293.6909,-79.4555 216,-137.7 183.7959,-161.8433 215.7492,-218.7 175.5,-218.7"/>
<polygon fill="#000000" stroke="#000000" points="434.0003,-96.6268 441.9671,-100.2998 438.0002,-96.6634 442,-96.7 442,-96.7 442,-96.7 438.0002,-96.6634 442.0329,-93.1002 434.0003,-96.6268 434.0003,-96.6268"/>
<ellipse fill="none" stroke="#000000" cx="430.8005" cy="-96.5975" rx="3.2" ry="3.2"/>
</g>
</g>
</svg>
