<?xml version="1.0" encoding="UTF-8" standalone="no"?>
<!DOCTYPE svg PUBLIC "-//W3C//DTD SVG 1.1//EN"
 "http://www.w3.org/Graphics/SVG/1.1/DTD/svg11.dtd">
<!-- Generated by graphviz version 2.40.1 (20161225.0304)
 -->
<!-- Title: oneDegreeRelationshipsDiagram Pages: 1 -->
<svg width="640pt" height="474pt"
 viewBox="0.00 0.00 640.00 473.62" xmlns="http://www.w3.org/2000/svg" xmlns:xlink="http://www.w3.org/1999/xlink">
<g id="graph0" class="graph" transform="scale(1 1) rotate(0) translate(4 469.6245)">
<title>oneDegreeRelationshipsDiagram</title>
<polygon fill="#ffffff" stroke="transparent" points="-4,4 -4,-469.6245 636,-469.6245 636,4 -4,4"/>
<text text-anchor="middle" x="72.4936" y="-7.3" font-family="Helvetica,sans-Serif" font-size="11.00" fill="#000000">Generated by SchemaSpy</text>
<!-- patient_reminders -->
<g id="node1" class="node">
<title>patient_reminders</title>
<g id="a_node1"><a xlink:href="../../tables/patient_reminders.html" xlink:title="patient_reminders" target="_top">
<polygon fill="#ffffff" stroke="transparent" points="405,-70.7 405,-424.7 624,-424.7 624,-70.7 405,-70.7"/>
<polygon fill="#f5f5f5" stroke="transparent" points="407.5,-399.7 407.5,-422.7 622.5,-422.7 622.5,-399.7 407.5,-399.7"/>
<polygon fill="none" stroke="#000000" points="407.5,-399.7 407.5,-422.7 622.5,-422.7 622.5,-399.7 407.5,-399.7"/>
<text text-anchor="start" x="412.5" y="-408.3" font-family="Helvetica,sans-Serif" font-weight="bold" font-size="11.00" fill="#000000">patient_reminders</text>
<text text-anchor="start" x="587.5437" y="-407.8" font-family="Helvetica,sans-Serif" font-size="11.00" fill="#000000">[table]</text>
<polygon fill="none" stroke="#000000" points="407.5,-377.7 407.5,-399.7 556.5,-399.7 556.5,-377.7 407.5,-377.7"/>
<image xlink:href="../../images/primaryKeys.png" width="11px" height="12px" preserveAspectRatio="xMinYMin meet" x="412.5" y="-394.7"/>
<text text-anchor="start" x="427.5" y="-384.8" font-family="Helvetica,sans-Serif" font-size="11.00" fill="#000000">id</text>
<polygon fill="none" stroke="#000000" points="556.5,-377.7 556.5,-399.7 622.5,-399.7 622.5,-377.7 556.5,-377.7"/>
<text text-anchor="start" x="559.5" y="-385.4" font-family="Helvetica,sans-Serif" font-size="11.00" fill="#000000">bigint[19]</text>
<polygon fill="none" stroke="#000000" points="407.5,-355.7 407.5,-377.7 556.5,-377.7 556.5,-355.7 407.5,-355.7"/>
<text text-anchor="start" x="427.5" y="-362.8" font-family="Helvetica,sans-Serif" font-size="11.00" fill="#000000">active</text>
<polygon fill="none" stroke="#000000" points="556.5,-355.7 556.5,-377.7 622.5,-377.7 622.5,-355.7 556.5,-355.7"/>
<text text-anchor="start" x="559.5" y="-363.4" font-family="Helvetica,sans-Serif" font-size="11.00" fill="#000000">boolean[3]</text>
<polygon fill="none" stroke="#000000" points="407.5,-333.7 407.5,-355.7 556.5,-355.7 556.5,-333.7 407.5,-333.7"/>
<text text-anchor="start" x="427.5" y="-340.8" font-family="Helvetica,sans-Serif" font-size="11.00" fill="#000000">date_inactivated</text>
<polygon fill="none" stroke="#000000" points="556.5,-333.7 556.5,-355.7 622.5,-355.7 622.5,-333.7 556.5,-333.7"/>
<text text-anchor="start" x="559.2401" y="-341.4" font-family="Helvetica,sans-Serif" font-size="11.00" fill="#000000">datetime[19]</text>
<polygon fill="none" stroke="#000000" points="407.5,-311.7 407.5,-333.7 556.5,-333.7 556.5,-311.7 407.5,-311.7"/>
<image xlink:href="../../images/foreignKeys.png" width="11px" height="12px" preserveAspectRatio="xMinYMin meet" x="412.5" y="-328.7"/>
<text text-anchor="start" x="427.5" y="-318.8" font-family="Helvetica,sans-Serif" font-size="11.00" fill="#000000">reason_inactivated</text>
<polygon fill="none" stroke="#000000" points="556.5,-311.7 556.5,-333.7 622.5,-333.7 622.5,-311.7 556.5,-311.7"/>
<text text-anchor="start" x="559.5" y="-319.4" font-family="Helvetica,sans-Serif" font-size="11.00" fill="#000000">varchar[31]</text>
<polygon fill="none" stroke="#000000" points="407.5,-289.7 407.5,-311.7 556.5,-311.7 556.5,-289.7 407.5,-289.7"/>
<image xlink:href="../../images/foreignKeys.png" width="11px" height="12px" preserveAspectRatio="xMinYMin meet" x="412.5" y="-306.7"/>
<text text-anchor="start" x="427.5" y="-296.8" font-family="Helvetica,sans-Serif" font-size="11.00" fill="#000000">due_status</text>
<polygon fill="none" stroke="#000000" points="556.5,-289.7 556.5,-311.7 622.5,-311.7 622.5,-289.7 556.5,-289.7"/>
<text text-anchor="start" x="559.5" y="-297.4" font-family="Helvetica,sans-Serif" font-size="11.00" fill="#000000">varchar[31]</text>
<polygon fill="#ffffff" stroke="transparent" points="407.5,-267.7 407.5,-289.7 556.5,-289.7 556.5,-267.7 407.5,-267.7"/>
<polygon fill="none" stroke="#000000" points="407.5,-267.7 407.5,-289.7 556.5,-289.7 556.5,-267.7 407.5,-267.7"/>
<image xlink:href="../../images/foreignKeys.png" width="11px" height="12px" preserveAspectRatio="xMinYMin meet" x="412.5" y="-284.7"/>
<text text-anchor="start" x="427.5" y="-274.8" font-family="Helvetica,sans-Serif" font-size="11.00" fill="#000000">pid</text>
<polygon fill="none" stroke="#000000" points="556.5,-267.7 556.5,-289.7 622.5,-289.7 622.5,-267.7 556.5,-267.7"/>
<text text-anchor="start" x="559.5" y="-275.4" font-family="Helvetica,sans-Serif" font-size="11.00" fill="#000000">bigint[19]</text>
<polygon fill="#ffffff" stroke="transparent" points="407.5,-245.7 407.5,-267.7 556.5,-267.7 556.5,-245.7 407.5,-245.7"/>
<polygon fill="none" stroke="#000000" points="407.5,-245.7 407.5,-267.7 556.5,-267.7 556.5,-245.7 407.5,-245.7"/>
<image xlink:href="../../images/foreignKeys.png" width="11px" height="12px" preserveAspectRatio="xMinYMin meet" x="412.5" y="-262.7"/>
<text text-anchor="start" x="427.5" y="-252.8" font-family="Helvetica,sans-Serif" font-size="11.00" fill="#000000">category</text>
<polygon fill="none" stroke="#000000" points="556.5,-245.7 556.5,-267.7 622.5,-267.7 622.5,-245.7 556.5,-245.7"/>
<text text-anchor="start" x="559.5" y="-253.4" font-family="Helvetica,sans-Serif" font-size="11.00" fill="#000000">varchar[31]</text>
<polygon fill="#ffffff" stroke="transparent" points="407.5,-223.7 407.5,-245.7 556.5,-245.7 556.5,-223.7 407.5,-223.7"/>
<polygon fill="none" stroke="#000000" points="407.5,-223.7 407.5,-245.7 556.5,-245.7 556.5,-223.7 407.5,-223.7"/>
<image xlink:href="../../images/foreignKeys.png" width="11px" height="12px" preserveAspectRatio="xMinYMin meet" x="412.5" y="-240.7"/>
<text text-anchor="start" x="427.5" y="-230.8" font-family="Helvetica,sans-Serif" font-size="11.00" fill="#000000">item</text>
<polygon fill="none" stroke="#000000" points="556.5,-223.7 556.5,-245.7 622.5,-245.7 622.5,-223.7 556.5,-223.7"/>
<text text-anchor="start" x="559.5" y="-231.4" font-family="Helvetica,sans-Serif" font-size="11.00" fill="#000000">varchar[31]</text>
<polygon fill="none" stroke="#000000" points="407.5,-201.7 407.5,-223.7 556.5,-223.7 556.5,-201.7 407.5,-201.7"/>
<text text-anchor="start" x="427.5" y="-208.8" font-family="Helvetica,sans-Serif" font-size="11.00" fill="#000000">date_created</text>
<polygon fill="none" stroke="#000000" points="556.5,-201.7 556.5,-223.7 622.5,-223.7 622.5,-201.7 556.5,-201.7"/>
<text text-anchor="start" x="559.2401" y="-209.4" font-family="Helvetica,sans-Serif" font-size="11.00" fill="#000000">datetime[19]</text>
<polygon fill="none" stroke="#000000" points="407.5,-179.7 407.5,-201.7 556.5,-201.7 556.5,-179.7 407.5,-179.7"/>
<text text-anchor="start" x="427.5" y="-186.8" font-family="Helvetica,sans-Serif" font-size="11.00" fill="#000000">date_sent</text>
<polygon fill="none" stroke="#000000" points="556.5,-179.7 556.5,-201.7 622.5,-201.7 622.5,-179.7 556.5,-179.7"/>
<text text-anchor="start" x="559.2401" y="-187.4" font-family="Helvetica,sans-Serif" font-size="11.00" fill="#000000">datetime[19]</text>
<polygon fill="none" stroke="#000000" points="407.5,-157.7 407.5,-179.7 556.5,-179.7 556.5,-157.7 407.5,-157.7"/>
<text text-anchor="start" x="427.5" y="-164.8" font-family="Helvetica,sans-Serif" font-size="11.00" fill="#000000">voice_status</text>
<polygon fill="none" stroke="#000000" points="556.5,-157.7 556.5,-179.7 622.5,-179.7 622.5,-157.7 556.5,-157.7"/>
<text text-anchor="start" x="559.5" y="-165.4" font-family="Helvetica,sans-Serif" font-size="11.00" fill="#000000">boolean[3]</text>
<polygon fill="none" stroke="#000000" points="407.5,-135.7 407.5,-157.7 556.5,-157.7 556.5,-135.7 407.5,-135.7"/>
<text text-anchor="start" x="427.5" y="-142.8" font-family="Helvetica,sans-Serif" font-size="11.00" fill="#000000">sms_status</text>
<polygon fill="none" stroke="#000000" points="556.5,-135.7 556.5,-157.7 622.5,-157.7 622.5,-135.7 556.5,-135.7"/>
<text text-anchor="start" x="559.5" y="-143.4" font-family="Helvetica,sans-Serif" font-size="11.00" fill="#000000">boolean[3]</text>
<polygon fill="none" stroke="#000000" points="407.5,-113.7 407.5,-135.7 556.5,-135.7 556.5,-113.7 407.5,-113.7"/>
<text text-anchor="start" x="427.5" y="-120.8" font-family="Helvetica,sans-Serif" font-size="11.00" fill="#000000">email_status</text>
<polygon fill="none" stroke="#000000" points="556.5,-113.7 556.5,-135.7 622.5,-135.7 622.5,-113.7 556.5,-113.7"/>
<text text-anchor="start" x="559.5" y="-121.4" font-family="Helvetica,sans-Serif" font-size="11.00" fill="#000000">boolean[3]</text>
<polygon fill="none" stroke="#000000" points="407.5,-91.7 407.5,-113.7 556.5,-113.7 556.5,-91.7 407.5,-91.7"/>
<text text-anchor="start" x="427.5" y="-98.8" font-family="Helvetica,sans-Serif" font-size="11.00" fill="#000000">mail_status</text>
<polygon fill="none" stroke="#000000" points="556.5,-91.7 556.5,-113.7 622.5,-113.7 622.5,-91.7 556.5,-91.7"/>
<text text-anchor="start" x="559.5" y="-99.4" font-family="Helvetica,sans-Serif" font-size="11.00" fill="#000000">boolean[3]</text>
<polygon fill="#ffffff" stroke="transparent" points="407.5,-72.7 407.5,-91.7 486.5,-91.7 486.5,-72.7 407.5,-72.7"/>
<polygon fill="none" stroke="#000000" points="407.5,-72.7 407.5,-91.7 486.5,-91.7 486.5,-72.7 407.5,-72.7"/>
<text text-anchor="start" x="410.5" y="-78.8" font-family="Helvetica,sans-Serif" font-size="11.00" fill="#000000">&lt; 5</text>
<polygon fill="#ffffff" stroke="transparent" points="486.5,-72.7 486.5,-91.7 556.5,-91.7 556.5,-72.7 486.5,-72.7"/>
<polygon fill="none" stroke="#000000" points="486.5,-72.7 486.5,-91.7 556.5,-91.7 556.5,-72.7 486.5,-72.7"/>
<text text-anchor="start" x="547.3862" y="-78.8" font-family="Helvetica,sans-Serif" font-size="11.00" fill="#000000"> &#160;</text>
<polygon fill="#ffffff" stroke="transparent" points="556.5,-72.7 556.5,-91.7 622.5,-91.7 622.5,-72.7 556.5,-72.7"/>
<polygon fill="none" stroke="#000000" points="556.5,-72.7 556.5,-91.7 622.5,-91.7 622.5,-72.7 556.5,-72.7"/>
<text text-anchor="start" x="603.9053" y="-78.8" font-family="Helvetica,sans-Serif" font-size="11.00" fill="#000000">0 &gt;</text>
<polygon fill="none" stroke="#000000" stroke-width="2" points="406,-71.7 406,-423.7 623,-423.7 623,-71.7 406,-71.7"/>
</a>
</g>
</g>
<!-- rule_action_item -->
<g id="node2" class="node">
<title>rule_action_item</title>
<g id="a_node2"><a xlink:href="../../tables/rule_action_item.html" xlink:title="rule_action_item" target="_top">
<polygon fill="#ffffff" stroke="transparent" points="197.5,-38.2 197.5,-143.2 347.5,-143.2 347.5,-38.2 197.5,-38.2"/>
<polygon fill="#f5f5f5" stroke="transparent" points="197.5,-119.7 197.5,-142.7 347.5,-142.7 347.5,-119.7 197.5,-119.7"/>
<polygon fill="none" stroke="#000000" points="197.5,-119.7 197.5,-142.7 347.5,-142.7 347.5,-119.7 197.5,-119.7"/>
<text text-anchor="start" x="202.5" y="-128.3" font-family="Helvetica,sans-Serif" font-weight="bold" font-size="11.00" fill="#000000">rule_action_item</text>
<text text-anchor="start" x="313.0219" y="-127.8" font-family="Helvetica,sans-Serif" font-size="11.00" fill="#000000">[table]</text>
<polygon fill="none" stroke="#000000" points="197.5,-97.7 197.5,-119.7 347.5,-119.7 347.5,-97.7 197.5,-97.7"/>
<image xlink:href="../../images/primaryKeys.png" width="11px" height="12px" preserveAspectRatio="xMinYMin meet" x="202.5" y="-114.7"/>
<text text-anchor="start" x="218.5" y="-104.8" font-family="Helvetica,sans-Serif" font-size="11.00" fill="#000000">category</text>
<polygon fill="none" stroke="#000000" points="197.5,-75.7 197.5,-97.7 347.5,-97.7 347.5,-75.7 197.5,-75.7"/>
<image xlink:href="../../images/primaryKeys.png" width="11px" height="12px" preserveAspectRatio="xMinYMin meet" x="202.5" y="-92.7"/>
<text text-anchor="start" x="218.5" y="-82.8" font-family="Helvetica,sans-Serif" font-size="11.00" fill="#000000">item</text>
<polygon fill="none" stroke="#000000" points="197.5,-56.7 197.5,-75.7 347.5,-75.7 347.5,-56.7 197.5,-56.7"/>
<text text-anchor="start" x="200.5" y="-62.8" font-family="Helvetica,sans-Serif" font-size="11.00" fill="#000000">...</text>
<polygon fill="#ffffff" stroke="transparent" points="197.5,-37.7 197.5,-56.7 266.5,-56.7 266.5,-37.7 197.5,-37.7"/>
<polygon fill="none" stroke="#000000" points="197.5,-37.7 197.5,-56.7 266.5,-56.7 266.5,-37.7 197.5,-37.7"/>
<text text-anchor="start" x="200.5" y="-43.8" font-family="Helvetica,sans-Serif" font-size="11.00" fill="#000000">&lt; 2</text>
<polygon fill="#ffffff" stroke="transparent" points="266.5,-37.7 266.5,-56.7 302.5,-56.7 302.5,-37.7 266.5,-37.7"/>
<polygon fill="none" stroke="#000000" points="266.5,-37.7 266.5,-56.7 302.5,-56.7 302.5,-37.7 266.5,-37.7"/>
<text text-anchor="start" x="293.3862" y="-43.8" font-family="Helvetica,sans-Serif" font-size="11.00" fill="#000000"> &#160;</text>
<polygon fill="#ffffff" stroke="transparent" points="302.5,-37.7 302.5,-56.7 347.5,-56.7 347.5,-37.7 302.5,-37.7"/>
<polygon fill="none" stroke="#000000" points="302.5,-37.7 302.5,-56.7 347.5,-56.7 347.5,-37.7 302.5,-37.7"/>
<text text-anchor="start" x="328.9053" y="-43.8" font-family="Helvetica,sans-Serif" font-size="11.00" fill="#000000">4 &gt;</text>
</a>
</g>
</g>
<!-- patient_reminders&#45;&gt;rule_action_item -->
<g id="edge1" class="edge">
<title>patient_reminders:w&#45;&gt;rule_action_item:e</title>
<path fill="none" stroke="#000000" d="M393.2337,-254.0048C348.6673,-233.9459 412.7939,-108.7 347.5,-108.7"/>
<polygon fill="#000000" stroke="#000000" points="399.639,-255.2149 406.8317,-260.2374 403.5695,-255.9574 407.5,-256.7 407.5,-256.7 407.5,-256.7 403.5695,-255.9574 408.1683,-253.1626 399.639,-255.2149 399.639,-255.2149"/>
<ellipse fill="none" stroke="#000000" cx="396.4947" cy="-254.6208" rx="3.2" ry="3.2"/>
</g>
<!-- patient_reminders&#45;&gt;rule_action_item -->
<g id="edge3" class="edge">
<title>patient_reminders:w&#45;&gt;rule_action_item:e</title>
<path fill="none" stroke="#000000" d="M393.2337,-232.0048C348.6673,-211.9459 412.7939,-86.7 347.5,-86.7"/>
<polygon fill="#000000" stroke="#000000" points="399.639,-233.2149 406.8317,-238.2374 403.5695,-233.9574 407.5,-234.7 407.5,-234.7 407.5,-234.7 403.5695,-233.9574 408.1683,-231.1626 399.639,-233.2149 399.639,-233.2149"/>
<ellipse fill="none" stroke="#000000" cx="396.4947" cy="-232.6208" rx="3.2" ry="3.2"/>
</g>
<!-- list_options -->
<g id="node3" class="node">
<title>list_options</title>
<g id="a_node3"><a xlink:href="../../tables/list_options.html" xlink:title="list_options" target="_top">
<polygon fill="#ffffff" stroke="transparent" points="8,-218.2 8,-323.2 140,-323.2 140,-218.2 8,-218.2"/>
<polygon fill="#f5f5f5" stroke="transparent" points="8,-299.7 8,-322.7 140,-322.7 140,-299.7 8,-299.7"/>
<polygon fill="none" stroke="#000000" points="8,-299.7 8,-322.7 140,-322.7 140,-299.7 8,-299.7"/>
<text text-anchor="start" x="13" y="-308.3" font-family="Helvetica,sans-Serif" font-weight="bold" font-size="11.00" fill="#000000">list_options</text>
<text text-anchor="start" x="105.0437" y="-307.8" font-family="Helvetica,sans-Serif" font-size="11.00" fill="#000000">[table]</text>
<polygon fill="none" stroke="#000000" points="8,-277.7 8,-299.7 140,-299.7 140,-277.7 8,-277.7"/>
<image xlink:href="../../images/primaryKeys.png" width="11px" height="12px" preserveAspectRatio="xMinYMin meet" x="13" y="-294.7"/>
<text text-anchor="start" x="28" y="-284.8" font-family="Helvetica,sans-Serif" font-size="11.00" fill="#000000">list_id</text>
<polygon fill="none" stroke="#000000" points="8,-255.7 8,-277.7 140,-277.7 140,-255.7 8,-255.7"/>
<image xlink:href="../../images/primaryKeys.png" width="11px" height="12px" preserveAspectRatio="xMinYMin meet" x="13" y="-272.7"/>
<text text-anchor="start" x="28" y="-262.8" font-family="Helvetica,sans-Serif" font-size="11.00" fill="#000000">option_id</text>
<polygon fill="none" stroke="#000000" points="8,-236.7 8,-255.7 140,-255.7 140,-236.7 8,-236.7"/>
<text text-anchor="start" x="11" y="-242.8" font-family="Helvetica,sans-Serif" font-size="11.00" fill="#000000">...</text>
<polygon fill="#ffffff" stroke="transparent" points="8,-217.7 8,-236.7 60,-236.7 60,-217.7 8,-217.7"/>
<polygon fill="none" stroke="#000000" points="8,-217.7 8,-236.7 60,-236.7 60,-217.7 8,-217.7"/>
<text text-anchor="start" x="11" y="-223.8" font-family="Helvetica,sans-Serif" font-size="11.00" fill="#000000"> &#160;</text>
<polygon fill="#ffffff" stroke="transparent" points="60,-217.7 60,-236.7 92,-236.7 92,-217.7 60,-217.7"/>
<polygon fill="none" stroke="#000000" points="60,-217.7 60,-236.7 92,-236.7 92,-217.7 60,-217.7"/>
<text text-anchor="start" x="82.8862" y="-223.8" font-family="Helvetica,sans-Serif" font-size="11.00" fill="#000000"> &#160;</text>
<polygon fill="#ffffff" stroke="transparent" points="92,-217.7 92,-236.7 140,-236.7 140,-217.7 92,-217.7"/>
<polygon fill="none" stroke="#000000" points="92,-217.7 92,-236.7 140,-236.7 140,-217.7 92,-217.7"/>
<text text-anchor="start" x="115.2904" y="-223.8" font-family="Helvetica,sans-Serif" font-size="11.00" fill="#000000">46 &gt;</text>
</a>
</g>
</g>
<!-- patient_reminders&#45;&gt;list_options -->
<g id="edge2" class="edge">
<title>patient_reminders:w&#45;&gt;list_options:e</title>
<path fill="none" stroke="#000000" d="M393.2876,-303.6312C365.3348,-318.4254 402.8134,-385.2232 364,-411.7 330.4054,-434.6168 213.4327,-436.2337 181,-411.7 127.5889,-371.2972 206.9712,-266.7 140,-266.7"/>
<polygon fill="#000000" stroke="#000000" points="399.6649,-302.316 408.2272,-304.2258 403.5825,-301.508 407.5,-300.7 407.5,-300.7 407.5,-300.7 403.5825,-301.508 406.7728,-297.1742 399.6649,-302.316 399.6649,-302.316"/>
<ellipse fill="none" stroke="#000000" cx="396.5309" cy="-302.9624" rx="3.2" ry="3.2"/>
</g>
<!-- patient_reminders&#45;&gt;list_options -->
<g id="edge5" class="edge">
<title>patient_reminders:w&#45;&gt;list_options:e</title>
<path fill="none" stroke="#000000" d="M393.3314,-325.7215C366.7058,-340.3786 401.5989,-404.3983 364,-429.7 296.5225,-475.1081 245.1435,-479.7073 181,-429.7 122.0871,-383.7706 214.7011,-266.7 140,-266.7"/>
<polygon fill="#000000" stroke="#000000" points="399.6759,-324.3685 408.2508,-326.2208 403.588,-323.5343 407.5,-322.7 407.5,-322.7 407.5,-322.7 403.588,-323.5343 406.7492,-319.1792 399.6759,-324.3685 399.6759,-324.3685"/>
<ellipse fill="none" stroke="#000000" cx="396.5463" cy="-325.036" rx="3.2" ry="3.2"/>
</g>
<!-- patient_data -->
<g id="node4" class="node">
<title>patient_data</title>
<g id="a_node4"><a xlink:href="../../tables/patient_data.html" xlink:title="patient_data" target="_top">
<polygon fill="#ffffff" stroke="transparent" points="189,-164.2 189,-401.2 356,-401.2 356,-164.2 189,-164.2"/>
<polygon fill="#f5f5f5" stroke="transparent" points="189.5,-377.7 189.5,-400.7 356.5,-400.7 356.5,-377.7 189.5,-377.7"/>
<polygon fill="none" stroke="#000000" points="189.5,-377.7 189.5,-400.7 356.5,-400.7 356.5,-377.7 189.5,-377.7"/>
<text text-anchor="start" x="194.5" y="-386.3" font-family="Helvetica,sans-Serif" font-weight="bold" font-size="11.00" fill="#000000">patient_data</text>
<text text-anchor="start" x="321.5437" y="-385.8" font-family="Helvetica,sans-Serif" font-size="11.00" fill="#000000">[table]</text>
<polygon fill="#ffffff" stroke="transparent" points="189.5,-355.7 189.5,-377.7 356.5,-377.7 356.5,-355.7 189.5,-355.7"/>
<polygon fill="none" stroke="#000000" points="189.5,-355.7 189.5,-377.7 356.5,-377.7 356.5,-355.7 189.5,-355.7"/>
<text text-anchor="start" x="209.5" y="-362.8" font-family="Helvetica,sans-Serif" font-size="11.00" fill="#000000">id</text>
<polygon fill="none" stroke="#000000" points="189.5,-333.7 189.5,-355.7 356.5,-355.7 356.5,-333.7 189.5,-333.7"/>
<image xlink:href="../../images/foreignKeys.png" width="11px" height="12px" preserveAspectRatio="xMinYMin meet" x="194.5" y="-350.7"/>
<text text-anchor="start" x="209.5" y="-340.8" font-family="Helvetica,sans-Serif" font-size="11.00" fill="#000000">pharmacy_id</text>
<polygon fill="none" stroke="#000000" points="189.5,-311.7 189.5,-333.7 356.5,-333.7 356.5,-311.7 189.5,-311.7"/>
<image xlink:href="../../images/foreignKeys.png" width="11px" height="12px" preserveAspectRatio="xMinYMin meet" x="194.5" y="-328.7"/>
<text text-anchor="start" x="209.5" y="-318.8" font-family="Helvetica,sans-Serif" font-size="11.00" fill="#000000">providerID</text>
<polygon fill="none" stroke="#000000" points="189.5,-289.7 189.5,-311.7 356.5,-311.7 356.5,-289.7 189.5,-289.7"/>
<image xlink:href="../../images/foreignKeys.png" width="11px" height="12px" preserveAspectRatio="xMinYMin meet" x="194.5" y="-306.7"/>
<text text-anchor="start" x="209.5" y="-296.8" font-family="Helvetica,sans-Serif" font-size="11.00" fill="#000000">ref_providerID</text>
<polygon fill="none" stroke="#000000" points="189.5,-267.7 189.5,-289.7 356.5,-289.7 356.5,-267.7 189.5,-267.7"/>
<image xlink:href="../../images/primaryKeys.png" width="11px" height="12px" preserveAspectRatio="xMinYMin meet" x="194.5" y="-284.7"/>
<text text-anchor="start" x="209.5" y="-274.8" font-family="Helvetica,sans-Serif" font-size="11.00" fill="#000000">pid</text>
<polygon fill="#ffffff" stroke="transparent" points="189.5,-245.7 189.5,-267.7 356.5,-267.7 356.5,-245.7 189.5,-245.7"/>
<polygon fill="none" stroke="#000000" points="189.5,-245.7 189.5,-267.7 356.5,-267.7 356.5,-245.7 189.5,-245.7"/>
<text text-anchor="start" x="209.5" y="-252.8" font-family="Helvetica,sans-Serif" font-size="11.00" fill="#000000">uuid</text>
<polygon fill="none" stroke="#000000" points="189.5,-223.7 189.5,-245.7 356.5,-245.7 356.5,-223.7 189.5,-223.7"/>
<image xlink:href="../../images/foreignKeys.png" width="11px" height="12px" preserveAspectRatio="xMinYMin meet" x="194.5" y="-240.7"/>
<text text-anchor="start" x="209.5" y="-230.8" font-family="Helvetica,sans-Serif" font-size="11.00" fill="#000000">created_by</text>
<polygon fill="none" stroke="#000000" points="189.5,-201.7 189.5,-223.7 356.5,-223.7 356.5,-201.7 189.5,-201.7"/>
<image xlink:href="../../images/foreignKeys.png" width="11px" height="12px" preserveAspectRatio="xMinYMin meet" x="194.5" y="-218.7"/>
<text text-anchor="start" x="209.5" y="-208.8" font-family="Helvetica,sans-Serif" font-size="11.00" fill="#000000">updated_by</text>
<polygon fill="none" stroke="#000000" points="189.5,-182.7 189.5,-201.7 356.5,-201.7 356.5,-182.7 189.5,-182.7"/>
<text text-anchor="start" x="192.5" y="-188.8" font-family="Helvetica,sans-Serif" font-size="11.00" fill="#000000">...</text>
<polygon fill="#ffffff" stroke="transparent" points="189.5,-163.7 189.5,-182.7 263.5,-182.7 263.5,-163.7 189.5,-163.7"/>
<polygon fill="none" stroke="#000000" points="189.5,-163.7 189.5,-182.7 263.5,-182.7 263.5,-163.7 189.5,-163.7"/>
<text text-anchor="start" x="192.5" y="-169.8" font-family="Helvetica,sans-Serif" font-size="11.00" fill="#000000">&lt; 5</text>
<polygon fill="#ffffff" stroke="transparent" points="263.5,-163.7 263.5,-182.7 302.5,-182.7 302.5,-163.7 263.5,-163.7"/>
<polygon fill="none" stroke="#000000" points="263.5,-163.7 263.5,-182.7 302.5,-182.7 302.5,-163.7 263.5,-163.7"/>
<text text-anchor="start" x="293.3862" y="-169.8" font-family="Helvetica,sans-Serif" font-size="11.00" fill="#000000"> &#160;</text>
<polygon fill="#ffffff" stroke="transparent" points="302.5,-163.7 302.5,-182.7 356.5,-182.7 356.5,-163.7 302.5,-163.7"/>
<polygon fill="none" stroke="#000000" points="302.5,-163.7 302.5,-182.7 356.5,-182.7 356.5,-163.7 302.5,-163.7"/>
<text text-anchor="start" x="331.7904" y="-169.8" font-family="Helvetica,sans-Serif" font-size="11.00" fill="#000000">85 &gt;</text>
</a>
</g>
</g>
<!-- patient_reminders&#45;&gt;patient_data -->
<g id="edge4" class="edge">
<title>patient_reminders:w&#45;&gt;patient_data:e</title>
<path fill="none" stroke="#000000" d="M392.776,-278.7C380.7815,-278.7 373.3229,-278.7 356.5,-278.7"/>
<polygon fill="#000000" stroke="#000000" points="399.5,-278.7001 407.5,-282.3 403.5,-278.7 407.5,-278.7 407.5,-278.7 407.5,-278.7 403.5,-278.7 407.5,-275.1 399.5,-278.7001 399.5,-278.7001"/>
<ellipse fill="none" stroke="#000000" cx="396.3" cy="-278.7001" rx="3.2" ry="3.2"/>
</g>
<!-- rule_action_item&#45;&gt;list_options -->
<g id="edge6" class="edge">
<title>rule_action_item:w&#45;&gt;list_options:e</title>
<path fill="none" stroke="#000000" d="M183.1776,-111.3106C135.8139,-131.8536 209.0357,-266.7 140,-266.7"/>
<polygon fill="#000000" stroke="#000000" points="189.6297,-110.1346 198.1456,-112.2416 193.5648,-109.4173 197.5,-108.7 197.5,-108.7 197.5,-108.7 193.5648,-109.4173 196.8544,-105.1584 189.6297,-110.1346 189.6297,-110.1346"/>
<ellipse fill="none" stroke="#000000" cx="186.4815" cy="-110.7084" rx="3.2" ry="3.2"/>
</g>
<!-- rule_action_item&#45;&gt;list_options -->
<g id="edge7" class="edge">
<title>rule_action_item:w&#45;&gt;list_options:e</title>
<path fill="none" stroke="#000000" d="M183.2276,-88.9759C127.331,-109.8125 218.4057,-266.7 140,-266.7"/>
<polygon fill="#000000" stroke="#000000" points="189.5998,-87.9598 198.0669,-90.2551 193.5499,-87.3299 197.5,-86.7 197.5,-86.7 197.5,-86.7 193.5499,-87.3299 196.9331,-83.1449 189.5998,-87.9598 189.5998,-87.9598"/>
<ellipse fill="none" stroke="#000000" cx="186.4397" cy="-88.4637" rx="3.2" ry="3.2"/>
</g>
</g>
</svg>
