<?xml version="1.0" encoding="UTF-8" standalone="no"?>
<!DOCTYPE svg PUBLIC "-//W3C//DTD SVG 1.1//EN"
 "http://www.w3.org/Graphics/SVG/1.1/DTD/svg11.dtd">
<!-- Generated by graphviz version 2.40.1 (20161225.0304)
 -->
<!-- Title: oneDegreeRelationshipsDiagram Pages: 1 -->
<svg width="710pt" height="414pt"
 viewBox="0.00 0.00 710.00 413.70" xmlns="http://www.w3.org/2000/svg" xmlns:xlink="http://www.w3.org/1999/xlink">
<g id="graph0" class="graph" transform="scale(1 1) rotate(0) translate(4 409.7)">
<title>oneDegreeRelationshipsDiagram</title>
<polygon fill="#ffffff" stroke="transparent" points="-4,4 -4,-409.7 706,-409.7 706,4 -4,4"/>
<text text-anchor="middle" x="72.4936" y="-7.3" font-family="Helvetica,sans-Serif" font-size="11.00" fill="#000000">Generated by SchemaSpy</text>
<!-- patient_data -->
<g id="node1" class="node">
<title>patient_data</title>
<g id="a_node1"><a xlink:href="../../tables/patient_data.html" xlink:title="patient_data" target="_top">
<polygon fill="#ffffff" stroke="transparent" points="224,-148.2 224,-385.2 391,-385.2 391,-148.2 224,-148.2"/>
<polygon fill="#f5f5f5" stroke="transparent" points="224.5,-361.7 224.5,-384.7 391.5,-384.7 391.5,-361.7 224.5,-361.7"/>
<polygon fill="none" stroke="#000000" points="224.5,-361.7 224.5,-384.7 391.5,-384.7 391.5,-361.7 224.5,-361.7"/>
<text text-anchor="start" x="229.5" y="-370.3" font-family="Helvetica,sans-Serif" font-weight="bold" font-size="11.00" fill="#000000">patient_data</text>
<text text-anchor="start" x="356.5437" y="-369.8" font-family="Helvetica,sans-Serif" font-size="11.00" fill="#000000">[table]</text>
<polygon fill="#ffffff" stroke="transparent" points="224.5,-339.7 224.5,-361.7 391.5,-361.7 391.5,-339.7 224.5,-339.7"/>
<polygon fill="none" stroke="#000000" points="224.5,-339.7 224.5,-361.7 391.5,-361.7 391.5,-339.7 224.5,-339.7"/>
<text text-anchor="start" x="244.5" y="-346.8" font-family="Helvetica,sans-Serif" font-size="11.00" fill="#000000">id</text>
<polygon fill="#ffffff" stroke="transparent" points="224.5,-317.7 224.5,-339.7 391.5,-339.7 391.5,-317.7 224.5,-317.7"/>
<polygon fill="none" stroke="#000000" points="224.5,-317.7 224.5,-339.7 391.5,-339.7 391.5,-317.7 224.5,-317.7"/>
<text text-anchor="start" x="244.5" y="-324.8" font-family="Helvetica,sans-Serif" font-size="11.00" fill="#000000">uuid</text>
<polygon fill="none" stroke="#000000" points="224.5,-295.7 224.5,-317.7 391.5,-317.7 391.5,-295.7 224.5,-295.7"/>
<image xlink:href="../../images/foreignKeys.png" width="11px" height="12px" preserveAspectRatio="xMinYMin meet" x="229.5" y="-312.7"/>
<text text-anchor="start" x="244.5" y="-302.8" font-family="Helvetica,sans-Serif" font-size="11.00" fill="#000000">pharmacy_id</text>
<polygon fill="none" stroke="#000000" points="224.5,-273.7 224.5,-295.7 391.5,-295.7 391.5,-273.7 224.5,-273.7"/>
<image xlink:href="../../images/foreignKeys.png" width="11px" height="12px" preserveAspectRatio="xMinYMin meet" x="229.5" y="-290.7"/>
<text text-anchor="start" x="244.5" y="-280.8" font-family="Helvetica,sans-Serif" font-size="11.00" fill="#000000">providerID</text>
<polygon fill="none" stroke="#000000" points="224.5,-251.7 224.5,-273.7 391.5,-273.7 391.5,-251.7 224.5,-251.7"/>
<image xlink:href="../../images/foreignKeys.png" width="11px" height="12px" preserveAspectRatio="xMinYMin meet" x="229.5" y="-268.7"/>
<text text-anchor="start" x="244.5" y="-258.8" font-family="Helvetica,sans-Serif" font-size="11.00" fill="#000000">ref_providerID</text>
<polygon fill="none" stroke="#000000" points="224.5,-229.7 224.5,-251.7 391.5,-251.7 391.5,-229.7 224.5,-229.7"/>
<image xlink:href="../../images/primaryKeys.png" width="11px" height="12px" preserveAspectRatio="xMinYMin meet" x="229.5" y="-246.7"/>
<text text-anchor="start" x="244.5" y="-236.8" font-family="Helvetica,sans-Serif" font-size="11.00" fill="#000000">pid</text>
<polygon fill="none" stroke="#000000" points="224.5,-207.7 224.5,-229.7 391.5,-229.7 391.5,-207.7 224.5,-207.7"/>
<image xlink:href="../../images/foreignKeys.png" width="11px" height="12px" preserveAspectRatio="xMinYMin meet" x="229.5" y="-224.7"/>
<text text-anchor="start" x="244.5" y="-214.8" font-family="Helvetica,sans-Serif" font-size="11.00" fill="#000000">created_by</text>
<polygon fill="none" stroke="#000000" points="224.5,-185.7 224.5,-207.7 391.5,-207.7 391.5,-185.7 224.5,-185.7"/>
<image xlink:href="../../images/foreignKeys.png" width="11px" height="12px" preserveAspectRatio="xMinYMin meet" x="229.5" y="-202.7"/>
<text text-anchor="start" x="244.5" y="-192.8" font-family="Helvetica,sans-Serif" font-size="11.00" fill="#000000">updated_by</text>
<polygon fill="none" stroke="#000000" points="224.5,-166.7 224.5,-185.7 391.5,-185.7 391.5,-166.7 224.5,-166.7"/>
<text text-anchor="start" x="227.5" y="-172.8" font-family="Helvetica,sans-Serif" font-size="11.00" fill="#000000">...</text>
<polygon fill="#ffffff" stroke="transparent" points="224.5,-147.7 224.5,-166.7 298.5,-166.7 298.5,-147.7 224.5,-147.7"/>
<polygon fill="none" stroke="#000000" points="224.5,-147.7 224.5,-166.7 298.5,-166.7 298.5,-147.7 224.5,-147.7"/>
<text text-anchor="start" x="227.5" y="-153.8" font-family="Helvetica,sans-Serif" font-size="11.00" fill="#000000">&lt; 5</text>
<polygon fill="#ffffff" stroke="transparent" points="298.5,-147.7 298.5,-166.7 337.5,-166.7 337.5,-147.7 298.5,-147.7"/>
<polygon fill="none" stroke="#000000" points="298.5,-147.7 298.5,-166.7 337.5,-166.7 337.5,-147.7 298.5,-147.7"/>
<text text-anchor="start" x="328.3862" y="-153.8" font-family="Helvetica,sans-Serif" font-size="11.00" fill="#000000"> &#160;</text>
<polygon fill="#ffffff" stroke="transparent" points="337.5,-147.7 337.5,-166.7 391.5,-166.7 391.5,-147.7 337.5,-147.7"/>
<polygon fill="none" stroke="#000000" points="337.5,-147.7 337.5,-166.7 391.5,-166.7 391.5,-147.7 337.5,-147.7"/>
<text text-anchor="start" x="366.7904" y="-153.8" font-family="Helvetica,sans-Serif" font-size="11.00" fill="#000000">85 &gt;</text>
</a>
</g>
</g>
<!-- users -->
<g id="node2" class="node">
<title>users</title>
<g id="a_node2"><a xlink:href="../../tables/users.html" xlink:title="users" target="_top">
<polygon fill="#ffffff" stroke="transparent" points="8,-38.2 8,-253.2 175,-253.2 175,-38.2 8,-38.2"/>
<polygon fill="#f5f5f5" stroke="transparent" points="8.5,-229.7 8.5,-252.7 175.5,-252.7 175.5,-229.7 8.5,-229.7"/>
<polygon fill="none" stroke="#000000" points="8.5,-229.7 8.5,-252.7 175.5,-252.7 175.5,-229.7 8.5,-229.7"/>
<text text-anchor="start" x="13.5" y="-238.3" font-family="Helvetica,sans-Serif" font-weight="bold" font-size="11.00" fill="#000000">users</text>
<text text-anchor="start" x="140.5437" y="-237.8" font-family="Helvetica,sans-Serif" font-size="11.00" fill="#000000">[table]</text>
<polygon fill="none" stroke="#000000" points="8.5,-207.7 8.5,-229.7 175.5,-229.7 175.5,-207.7 8.5,-207.7"/>
<image xlink:href="../../images/primaryKeys.png" width="11px" height="12px" preserveAspectRatio="xMinYMin meet" x="13.5" y="-224.7"/>
<text text-anchor="start" x="28.5" y="-214.8" font-family="Helvetica,sans-Serif" font-size="11.00" fill="#000000">id</text>
<polygon fill="#ffffff" stroke="transparent" points="8.5,-185.7 8.5,-207.7 175.5,-207.7 175.5,-185.7 8.5,-185.7"/>
<polygon fill="none" stroke="#000000" points="8.5,-185.7 8.5,-207.7 175.5,-207.7 175.5,-185.7 8.5,-185.7"/>
<text text-anchor="start" x="28.5" y="-192.8" font-family="Helvetica,sans-Serif" font-size="11.00" fill="#000000">uuid</text>
<polygon fill="none" stroke="#000000" points="8.5,-163.7 8.5,-185.7 175.5,-185.7 175.5,-163.7 8.5,-163.7"/>
<image xlink:href="../../images/primaryKeys.png" width="11px" height="12px" preserveAspectRatio="xMinYMin meet" x="13.5" y="-180.7"/>
<text text-anchor="start" x="28.5" y="-170.8" font-family="Helvetica,sans-Serif" font-size="11.00" fill="#000000">username</text>
<polygon fill="none" stroke="#000000" points="8.5,-141.7 8.5,-163.7 175.5,-163.7 175.5,-141.7 8.5,-141.7"/>
<image xlink:href="../../images/foreignKeys.png" width="11px" height="12px" preserveAspectRatio="xMinYMin meet" x="13.5" y="-158.7"/>
<text text-anchor="start" x="28.5" y="-148.8" font-family="Helvetica,sans-Serif" font-size="11.00" fill="#000000">facility_id</text>
<polygon fill="#ffffff" stroke="transparent" points="8.5,-119.7 8.5,-141.7 175.5,-141.7 175.5,-119.7 8.5,-119.7"/>
<polygon fill="none" stroke="#000000" points="8.5,-119.7 8.5,-141.7 175.5,-141.7 175.5,-119.7 8.5,-119.7"/>
<text text-anchor="start" x="28.5" y="-126.8" font-family="Helvetica,sans-Serif" font-size="11.00" fill="#000000">google_signin_email</text>
<polygon fill="#ffffff" stroke="transparent" points="8.5,-97.7 8.5,-119.7 175.5,-119.7 175.5,-97.7 8.5,-97.7"/>
<polygon fill="none" stroke="#000000" points="8.5,-97.7 8.5,-119.7 175.5,-119.7 175.5,-97.7 8.5,-97.7"/>
<text text-anchor="start" x="28.5" y="-104.8" font-family="Helvetica,sans-Serif" font-size="11.00" fill="#000000">abook_type</text>
<polygon fill="none" stroke="#000000" points="8.5,-75.7 8.5,-97.7 175.5,-97.7 175.5,-75.7 8.5,-75.7"/>
<image xlink:href="../../images/foreignKeys.png" width="11px" height="12px" preserveAspectRatio="xMinYMin meet" x="13.5" y="-92.7"/>
<text text-anchor="start" x="28.5" y="-82.8" font-family="Helvetica,sans-Serif" font-size="11.00" fill="#000000">billing_facility_id</text>
<polygon fill="none" stroke="#000000" points="8.5,-56.7 8.5,-75.7 175.5,-75.7 175.5,-56.7 8.5,-56.7"/>
<text text-anchor="start" x="11.5" y="-62.8" font-family="Helvetica,sans-Serif" font-size="11.00" fill="#000000">...</text>
<polygon fill="#ffffff" stroke="transparent" points="8.5,-37.7 8.5,-56.7 82.5,-56.7 82.5,-37.7 8.5,-37.7"/>
<polygon fill="none" stroke="#000000" points="8.5,-37.7 8.5,-56.7 82.5,-56.7 82.5,-37.7 8.5,-37.7"/>
<text text-anchor="start" x="11.5" y="-43.8" font-family="Helvetica,sans-Serif" font-size="11.00" fill="#000000">&lt; 2</text>
<polygon fill="#ffffff" stroke="transparent" points="82.5,-37.7 82.5,-56.7 121.5,-56.7 121.5,-37.7 82.5,-37.7"/>
<polygon fill="none" stroke="#000000" points="82.5,-37.7 82.5,-56.7 121.5,-56.7 121.5,-37.7 82.5,-37.7"/>
<text text-anchor="start" x="112.3862" y="-43.8" font-family="Helvetica,sans-Serif" font-size="11.00" fill="#000000"> &#160;</text>
<polygon fill="#ffffff" stroke="transparent" points="121.5,-37.7 121.5,-56.7 175.5,-56.7 175.5,-37.7 121.5,-37.7"/>
<polygon fill="none" stroke="#000000" points="121.5,-37.7 121.5,-56.7 175.5,-56.7 175.5,-37.7 121.5,-37.7"/>
<text text-anchor="start" x="150.7904" y="-43.8" font-family="Helvetica,sans-Serif" font-size="11.00" fill="#000000">61 &gt;</text>
</a>
</g>
</g>
<!-- patient_data&#45;&gt;users -->
<g id="edge1" class="edge">
<title>patient_data:w&#45;&gt;users:e</title>
<path fill="none" stroke="#000000" d="M209.9909,-218.7C198.6774,-218.7 191.4931,-218.7 175.5,-218.7"/>
<polygon fill="#000000" stroke="#000000" points="216.5,-218.7001 224.5,-222.3 220.5,-218.7 224.5,-218.7 224.5,-218.7 224.5,-218.7 220.5,-218.7 224.5,-215.1 216.5,-218.7001 216.5,-218.7001"/>
<ellipse fill="none" stroke="#000000" cx="213.3" cy="-218.7001" rx="3.2" ry="3.2"/>
</g>
<!-- patient_data&#45;&gt;users -->
<g id="edge2" class="edge">
<title>patient_data:w&#45;&gt;users:e</title>
<path fill="none" stroke="#000000" d="M210.8768,-279.9534C194.2322,-264.8202 206.0399,-218.7 175.5,-218.7"/>
<polygon fill="#000000" stroke="#000000" points="216.9454,-282.0678 223.3155,-288.0996 220.7227,-283.3839 224.5,-284.7 224.5,-284.7 224.5,-284.7 220.7227,-283.3839 225.6845,-281.3004 216.9454,-282.0678 216.9454,-282.0678"/>
<ellipse fill="none" stroke="#000000" cx="213.9236" cy="-281.0149" rx="3.2" ry="3.2"/>
</g>
<!-- patient_data&#45;&gt;users -->
<g id="edge3" class="edge">
<title>patient_data:w&#45;&gt;users:e</title>
<path fill="none" stroke="#000000" d="M210.8171,-257.9912C197.5046,-246.6404 198.824,-218.7 175.5,-218.7"/>
<polygon fill="#000000" stroke="#000000" points="216.9354,-260.0967 223.3285,-266.1041 220.7177,-261.3984 224.5,-262.7 224.5,-262.7 224.5,-262.7 220.7177,-261.3984 225.6715,-259.2959 216.9354,-260.0967 216.9354,-260.0967"/>
<ellipse fill="none" stroke="#000000" cx="213.9096" cy="-259.0554" rx="3.2" ry="3.2"/>
</g>
<!-- patient_data&#45;&gt;users -->
<g id="edge4" class="edge">
<title>patient_data:w&#45;&gt;users:e</title>
<path fill="none" stroke="#000000" d="M210.1297,-200.1375C198.5865,-206.325 193.4041,-218.7 175.5,-218.7"/>
<polygon fill="#000000" stroke="#000000" points="216.7195,-198.5612 225.3375,-200.2012 220.6098,-197.6306 224.5,-196.7 224.5,-196.7 224.5,-196.7 220.6098,-197.6306 223.6625,-193.1988 216.7195,-198.5612 216.7195,-198.5612"/>
<ellipse fill="none" stroke="#000000" cx="213.6073" cy="-199.3057" rx="3.2" ry="3.2"/>
</g>
<!-- patient_history -->
<g id="node3" class="node">
<title>patient_history</title>
<g id="a_node3"><a xlink:href="../../tables/patient_history.html" xlink:title="patient_history" target="_top">
<polygon fill="#ffffff" stroke="transparent" points="440,-47.7 440,-401.7 694,-401.7 694,-47.7 440,-47.7"/>
<polygon fill="#f5f5f5" stroke="transparent" points="442,-376.7 442,-399.7 692,-399.7 692,-376.7 442,-376.7"/>
<polygon fill="none" stroke="#000000" points="442,-376.7 442,-399.7 692,-399.7 692,-376.7 442,-376.7"/>
<text text-anchor="start" x="447" y="-385.3" font-family="Helvetica,sans-Serif" font-weight="bold" font-size="11.00" fill="#000000">patient_history</text>
<text text-anchor="start" x="657.0437" y="-384.8" font-family="Helvetica,sans-Serif" font-size="11.00" fill="#000000">[table]</text>
<polygon fill="none" stroke="#000000" points="442,-354.7 442,-376.7 626,-376.7 626,-354.7 442,-354.7"/>
<image xlink:href="../../images/primaryKeys.png" width="11px" height="12px" preserveAspectRatio="xMinYMin meet" x="447" y="-371.7"/>
<text text-anchor="start" x="462" y="-361.8" font-family="Helvetica,sans-Serif" font-size="11.00" fill="#000000">id</text>
<polygon fill="none" stroke="#000000" points="626,-354.7 626,-376.7 692,-376.7 692,-354.7 626,-354.7"/>
<text text-anchor="start" x="629" y="-362.4" font-family="Helvetica,sans-Serif" font-size="11.00" fill="#000000">bigint[19]</text>
<polygon fill="#ffffff" stroke="transparent" points="442,-332.7 442,-354.7 626,-354.7 626,-332.7 442,-332.7"/>
<polygon fill="none" stroke="#000000" points="442,-332.7 442,-354.7 626,-354.7 626,-332.7 442,-332.7"/>
<text text-anchor="start" x="462" y="-339.8" font-family="Helvetica,sans-Serif" font-size="11.00" fill="#000000">uuid</text>
<polygon fill="none" stroke="#000000" points="626,-332.7 626,-354.7 692,-354.7 692,-332.7 626,-332.7"/>
<text text-anchor="start" x="629" y="-340.4" font-family="Helvetica,sans-Serif" font-size="11.00" fill="#000000">binary[16]</text>
<polygon fill="none" stroke="#000000" points="442,-310.7 442,-332.7 626,-332.7 626,-310.7 442,-310.7"/>
<text text-anchor="start" x="462" y="-317.8" font-family="Helvetica,sans-Serif" font-size="11.00" fill="#000000">date</text>
<polygon fill="none" stroke="#000000" points="626,-310.7 626,-332.7 692,-332.7 692,-310.7 626,-310.7"/>
<text text-anchor="start" x="628.7401" y="-318.4" font-family="Helvetica,sans-Serif" font-size="11.00" fill="#000000">datetime[19]</text>
<polygon fill="none" stroke="#000000" points="442,-288.7 442,-310.7 626,-310.7 626,-288.7 442,-288.7"/>
<text text-anchor="start" x="462" y="-295.8" font-family="Helvetica,sans-Serif" font-size="11.00" fill="#000000">care_team_provider</text>
<polygon fill="none" stroke="#000000" points="626,-288.7 626,-310.7 692,-310.7 692,-288.7 626,-288.7"/>
<text text-anchor="start" x="629" y="-296.4" font-family="Helvetica,sans-Serif" font-size="11.00" fill="#000000">text[65535]</text>
<polygon fill="none" stroke="#000000" points="442,-266.7 442,-288.7 626,-288.7 626,-266.7 442,-266.7"/>
<text text-anchor="start" x="462" y="-273.8" font-family="Helvetica,sans-Serif" font-size="11.00" fill="#000000">care_team_facility</text>
<polygon fill="none" stroke="#000000" points="626,-266.7 626,-288.7 692,-288.7 692,-266.7 626,-266.7"/>
<text text-anchor="start" x="629" y="-274.4" font-family="Helvetica,sans-Serif" font-size="11.00" fill="#000000">text[65535]</text>
<polygon fill="#ffffff" stroke="transparent" points="442,-244.7 442,-266.7 626,-266.7 626,-244.7 442,-244.7"/>
<polygon fill="none" stroke="#000000" points="442,-244.7 442,-266.7 626,-266.7 626,-244.7 442,-244.7"/>
<image xlink:href="../../images/foreignKeys.png" width="11px" height="12px" preserveAspectRatio="xMinYMin meet" x="447" y="-261.7"/>
<text text-anchor="start" x="462" y="-251.8" font-family="Helvetica,sans-Serif" font-size="11.00" fill="#000000">pid</text>
<polygon fill="none" stroke="#000000" points="626,-244.7 626,-266.7 692,-266.7 692,-244.7 626,-244.7"/>
<text text-anchor="start" x="629" y="-252.4" font-family="Helvetica,sans-Serif" font-size="11.00" fill="#000000">bigint[19]</text>
<polygon fill="none" stroke="#000000" points="442,-222.7 442,-244.7 626,-244.7 626,-222.7 442,-222.7"/>
<text text-anchor="start" x="462" y="-229.8" font-family="Helvetica,sans-Serif" font-size="11.00" fill="#000000">history_type_key</text>
<polygon fill="none" stroke="#000000" points="626,-222.7 626,-244.7 692,-244.7 692,-222.7 626,-222.7"/>
<text text-anchor="start" x="629" y="-230.4" font-family="Helvetica,sans-Serif" font-size="11.00" fill="#000000">varchar[36]</text>
<polygon fill="none" stroke="#000000" points="442,-200.7 442,-222.7 626,-222.7 626,-200.7 442,-200.7"/>
<text text-anchor="start" x="462" y="-207.8" font-family="Helvetica,sans-Serif" font-size="11.00" fill="#000000">previous_name_prefix</text>
<polygon fill="none" stroke="#000000" points="626,-200.7 626,-222.7 692,-222.7 692,-200.7 626,-200.7"/>
<text text-anchor="start" x="629" y="-208.4" font-family="Helvetica,sans-Serif" font-size="11.00" fill="#000000">text[65535]</text>
<polygon fill="none" stroke="#000000" points="442,-178.7 442,-200.7 626,-200.7 626,-178.7 442,-178.7"/>
<text text-anchor="start" x="462" y="-185.8" font-family="Helvetica,sans-Serif" font-size="11.00" fill="#000000">previous_name_first</text>
<polygon fill="none" stroke="#000000" points="626,-178.7 626,-200.7 692,-200.7 692,-178.7 626,-178.7"/>
<text text-anchor="start" x="629" y="-186.4" font-family="Helvetica,sans-Serif" font-size="11.00" fill="#000000">text[65535]</text>
<polygon fill="none" stroke="#000000" points="442,-156.7 442,-178.7 626,-178.7 626,-156.7 442,-156.7"/>
<text text-anchor="start" x="462" y="-163.8" font-family="Helvetica,sans-Serif" font-size="11.00" fill="#000000">previous_name_middle</text>
<polygon fill="none" stroke="#000000" points="626,-156.7 626,-178.7 692,-178.7 692,-156.7 626,-156.7"/>
<text text-anchor="start" x="629" y="-164.4" font-family="Helvetica,sans-Serif" font-size="11.00" fill="#000000">text[65535]</text>
<polygon fill="none" stroke="#000000" points="442,-134.7 442,-156.7 626,-156.7 626,-134.7 442,-134.7"/>
<text text-anchor="start" x="462" y="-141.8" font-family="Helvetica,sans-Serif" font-size="11.00" fill="#000000">previous_name_last</text>
<polygon fill="none" stroke="#000000" points="626,-134.7 626,-156.7 692,-156.7 692,-134.7 626,-134.7"/>
<text text-anchor="start" x="629" y="-142.4" font-family="Helvetica,sans-Serif" font-size="11.00" fill="#000000">text[65535]</text>
<polygon fill="none" stroke="#000000" points="442,-112.7 442,-134.7 626,-134.7 626,-112.7 442,-112.7"/>
<text text-anchor="start" x="462" y="-119.8" font-family="Helvetica,sans-Serif" font-size="11.00" fill="#000000">previous_name_suffix</text>
<polygon fill="none" stroke="#000000" points="626,-112.7 626,-134.7 692,-134.7 692,-112.7 626,-112.7"/>
<text text-anchor="start" x="629" y="-120.4" font-family="Helvetica,sans-Serif" font-size="11.00" fill="#000000">text[65535]</text>
<polygon fill="none" stroke="#000000" points="442,-90.7 442,-112.7 626,-112.7 626,-90.7 442,-90.7"/>
<text text-anchor="start" x="462" y="-97.8" font-family="Helvetica,sans-Serif" font-size="11.00" fill="#000000">previous_name_enddate</text>
<polygon fill="none" stroke="#000000" points="626,-90.7 626,-112.7 692,-112.7 692,-90.7 626,-90.7"/>
<text text-anchor="start" x="629" y="-98.4" font-family="Helvetica,sans-Serif" font-size="11.00" fill="#000000">date[10]</text>
<polygon fill="none" stroke="#000000" points="442,-68.7 442,-90.7 626,-90.7 626,-68.7 442,-68.7"/>
<image xlink:href="../../images/foreignKeys.png" width="11px" height="12px" preserveAspectRatio="xMinYMin meet" x="447" y="-85.7"/>
<text text-anchor="start" x="462" y="-75.8" font-family="Helvetica,sans-Serif" font-size="11.00" fill="#000000">created_by</text>
<polygon fill="none" stroke="#000000" points="626,-68.7 626,-90.7 692,-90.7 692,-68.7 626,-68.7"/>
<text text-anchor="start" x="629" y="-76.4" font-family="Helvetica,sans-Serif" font-size="11.00" fill="#000000">bigint[19]</text>
<polygon fill="#ffffff" stroke="transparent" points="442,-49.7 442,-68.7 538,-68.7 538,-49.7 442,-49.7"/>
<polygon fill="none" stroke="#000000" points="442,-49.7 442,-68.7 538,-68.7 538,-49.7 442,-49.7"/>
<text text-anchor="start" x="445" y="-55.8" font-family="Helvetica,sans-Serif" font-size="11.00" fill="#000000">&lt; 2</text>
<polygon fill="#ffffff" stroke="transparent" points="538,-49.7 538,-68.7 626,-68.7 626,-49.7 538,-49.7"/>
<polygon fill="none" stroke="#000000" points="538,-49.7 538,-68.7 626,-68.7 626,-49.7 538,-49.7"/>
<text text-anchor="start" x="616.8862" y="-55.8" font-family="Helvetica,sans-Serif" font-size="11.00" fill="#000000"> &#160;</text>
<polygon fill="#ffffff" stroke="transparent" points="626,-49.7 626,-68.7 692,-68.7 692,-49.7 626,-49.7"/>
<polygon fill="none" stroke="#000000" points="626,-49.7 626,-68.7 692,-68.7 692,-49.7 626,-49.7"/>
<text text-anchor="start" x="673.4053" y="-55.8" font-family="Helvetica,sans-Serif" font-size="11.00" fill="#000000">0 &gt;</text>
<polygon fill="none" stroke="#000000" stroke-width="2" points="441,-48.7 441,-400.7 693,-400.7 693,-48.7 441,-48.7"/>
</a>
</g>
</g>
<!-- patient_history&#45;&gt;patient_data -->
<g id="edge6" class="edge">
<title>patient_history:w&#45;&gt;patient_data:e</title>
<path fill="none" stroke="#000000" d="M427.5243,-253.3563C415.5162,-249.1375 409.0602,-240.7 391.5,-240.7"/>
<polygon fill="#000000" stroke="#000000" points="434.1028,-254.4213 441.4246,-259.2537 438.0514,-255.0607 442,-255.7 442,-255.7 442,-255.7 438.0514,-255.0607 442.5754,-252.1463 434.1028,-254.4213 434.1028,-254.4213"/>
<ellipse fill="none" stroke="#000000" cx="430.944" cy="-253.9099" rx="3.2" ry="3.2"/>
</g>
<!-- patient_history&#45;&gt;users -->
<g id="edge5" class="edge">
<title>patient_history:w&#45;&gt;users:e</title>
<path fill="none" stroke="#000000" d="M427.5289,-79.6597C334.2285,-79.1822 292.8262,-75.6775 216,-137.7 184.6826,-162.9828 215.7492,-218.7 175.5,-218.7"/>
<polygon fill="#000000" stroke="#000000" points="434,-79.6776 441.9899,-83.3 438,-79.6888 442,-79.7 442,-79.7 442,-79.7 438,-79.6888 442.0101,-76.1 434,-79.6776 434,-79.6776"/>
<ellipse fill="none" stroke="#000000" cx="430.8" cy="-79.6687" rx="3.2" ry="3.2"/>
</g>
</g>
</svg>
