<?xml version="1.0" encoding="UTF-8" standalone="no"?>
<!DOCTYPE svg PUBLIC "-//W3C//DTD SVG 1.1//EN"
 "http://www.w3.org/Graphics/SVG/1.1/DTD/svg11.dtd">
<!-- Generated by graphviz version 2.40.1 (20161225.0304)
 -->
<!-- Title: oneDegreeRelationshipsDiagram Pages: 1 -->
<svg width="756pt" height="485pt"
 viewBox="0.00 0.00 756.00 485.16" xmlns="http://www.w3.org/2000/svg" xmlns:xlink="http://www.w3.org/1999/xlink">
<g id="graph0" class="graph" transform="scale(1 1) rotate(0) translate(4 481.1557)">
<title>oneDegreeRelationshipsDiagram</title>
<polygon fill="#ffffff" stroke="transparent" points="-4,4 -4,-481.1557 752,-481.1557 752,4 -4,4"/>
<text text-anchor="middle" x="72.4936" y="-7.3" font-family="Helvetica,sans-Serif" font-size="11.00" fill="#000000">Generated by SchemaSpy</text>
<!-- patient_data -->
<g id="node1" class="node">
<title>patient_data</title>
<g id="a_node1"><a xlink:href="../../tables/patient_data.html" xlink:title="patient_data" target="_top">
<polygon fill="#ffffff" stroke="transparent" points="207,-82.1557 207,-473.1557 455,-473.1557 455,-82.1557 207,-82.1557"/>
<polygon fill="#f5f5f5" stroke="transparent" points="207,-449.6557 207,-472.6557 455,-472.6557 455,-449.6557 207,-449.6557"/>
<polygon fill="none" stroke="#000000" points="207,-449.6557 207,-472.6557 455,-472.6557 455,-449.6557 207,-449.6557"/>
<text text-anchor="start" x="212" y="-458.2557" font-family="Helvetica,sans-Serif" font-weight="bold" font-size="11.00" fill="#000000">patient_data</text>
<text text-anchor="start" x="420.0437" y="-457.7557" font-family="Helvetica,sans-Serif" font-size="11.00" fill="#000000">[table]</text>
<polygon fill="none" stroke="#000000" points="207,-427.6557 207,-449.6557 455,-449.6557 455,-427.6557 207,-427.6557"/>
<image xlink:href="../../images/primaryKeys.png" width="11px" height="12px" preserveAspectRatio="xMinYMin meet" x="212" y="-444.656"/>
<text text-anchor="start" x="227" y="-434.7557" font-family="Helvetica,sans-Serif" font-size="11.00" fill="#000000">id</text>
<polygon fill="#ffffff" stroke="transparent" points="207,-405.6557 207,-427.6557 455,-427.6557 455,-405.6557 207,-405.6557"/>
<polygon fill="none" stroke="#000000" points="207,-405.6557 207,-427.6557 455,-427.6557 455,-405.6557 207,-405.6557"/>
<text text-anchor="start" x="227" y="-412.7557" font-family="Helvetica,sans-Serif" font-size="11.00" fill="#000000">uuid</text>
<polygon fill="#ffffff" stroke="transparent" points="207,-383.6557 207,-405.6557 455,-405.6557 455,-383.6557 207,-383.6557"/>
<polygon fill="none" stroke="#000000" points="207,-383.6557 207,-405.6557 455,-405.6557 455,-383.6557 207,-383.6557"/>
<text text-anchor="start" x="227" y="-390.7557" font-family="Helvetica,sans-Serif" font-size="11.00" fill="#000000">fname</text>
<polygon fill="#ffffff" stroke="transparent" points="207,-361.6557 207,-383.6557 455,-383.6557 455,-361.6557 207,-361.6557"/>
<polygon fill="none" stroke="#000000" points="207,-361.6557 207,-383.6557 455,-383.6557 455,-361.6557 207,-361.6557"/>
<text text-anchor="start" x="227" y="-368.7557" font-family="Helvetica,sans-Serif" font-size="11.00" fill="#000000">lname</text>
<polygon fill="#ffffff" stroke="transparent" points="207,-339.6557 207,-361.6557 455,-361.6557 455,-339.6557 207,-339.6557"/>
<polygon fill="none" stroke="#000000" points="207,-339.6557 207,-361.6557 455,-361.6557 455,-339.6557 207,-339.6557"/>
<text text-anchor="start" x="227" y="-346.7557" font-family="Helvetica,sans-Serif" font-size="11.00" fill="#000000">DOB</text>
<polygon fill="none" stroke="#000000" points="207,-317.6557 207,-339.6557 455,-339.6557 455,-317.6557 207,-317.6557"/>
<image xlink:href="../../images/foreignKeys.png" width="11px" height="12px" preserveAspectRatio="xMinYMin meet" x="212" y="-334.656"/>
<text text-anchor="start" x="227" y="-324.7557" font-family="Helvetica,sans-Serif" font-size="11.00" fill="#000000">pharmacy_id</text>
<polygon fill="none" stroke="#000000" points="207,-295.6557 207,-317.6557 455,-317.6557 455,-295.6557 207,-295.6557"/>
<image xlink:href="../../images/foreignKeys.png" width="11px" height="12px" preserveAspectRatio="xMinYMin meet" x="212" y="-312.656"/>
<text text-anchor="start" x="227" y="-302.7557" font-family="Helvetica,sans-Serif" font-size="11.00" fill="#000000">providerID</text>
<polygon fill="none" stroke="#000000" points="207,-273.6557 207,-295.6557 455,-295.6557 455,-273.6557 207,-273.6557"/>
<image xlink:href="../../images/foreignKeys.png" width="11px" height="12px" preserveAspectRatio="xMinYMin meet" x="212" y="-290.656"/>
<text text-anchor="start" x="227" y="-280.7557" font-family="Helvetica,sans-Serif" font-size="11.00" fill="#000000">ref_providerID</text>
<polygon fill="none" stroke="#000000" points="207,-251.6557 207,-273.6557 455,-273.6557 455,-251.6557 207,-251.6557"/>
<image xlink:href="../../images/primaryKeys.png" width="11px" height="12px" preserveAspectRatio="xMinYMin meet" x="212" y="-268.656"/>
<text text-anchor="start" x="227" y="-258.7557" font-family="Helvetica,sans-Serif" font-size="11.00" fill="#000000">pid</text>
<polygon fill="none" stroke="#000000" points="207,-229.6557 207,-251.6557 455,-251.6557 455,-229.6557 207,-229.6557"/>
<image xlink:href="../../images/foreignKeys.png" width="11px" height="12px" preserveAspectRatio="xMinYMin meet" x="212" y="-246.656"/>
<text text-anchor="start" x="227" y="-236.7557" font-family="Helvetica,sans-Serif" font-size="11.00" fill="#000000">created_by</text>
<polygon fill="none" stroke="#000000" points="207,-207.6557 207,-229.6557 455,-229.6557 455,-207.6557 207,-207.6557"/>
<image xlink:href="../../images/foreignKeys.png" width="11px" height="12px" preserveAspectRatio="xMinYMin meet" x="212" y="-224.656"/>
<text text-anchor="start" x="227" y="-214.7557" font-family="Helvetica,sans-Serif" font-size="11.00" fill="#000000">updated_by</text>
<polygon fill="none" stroke="#000000" points="207,-185.6557 207,-207.6557 455,-207.6557 455,-185.6557 207,-185.6557"/>
<image xlink:href="../../images/foreignKeys.png" width="11px" height="12px" preserveAspectRatio="xMinYMin meet" x="212" y="-202.656"/>
<text text-anchor="start" x="227" y="-192.7557" font-family="Helvetica,sans-Serif" font-size="11.00" fill="#000000">tribal_affiliations</text>
<polygon fill="none" stroke="#000000" points="207,-163.6557 207,-185.6557 455,-185.6557 455,-163.6557 207,-163.6557"/>
<image xlink:href="../../images/foreignKeys.png" width="11px" height="12px" preserveAspectRatio="xMinYMin meet" x="212" y="-180.656"/>
<text text-anchor="start" x="227" y="-170.7557" font-family="Helvetica,sans-Serif" font-size="11.00" fill="#000000">sex_identified</text>
<polygon fill="none" stroke="#000000" points="207,-141.6557 207,-163.6557 455,-163.6557 455,-141.6557 207,-141.6557"/>
<image xlink:href="../../images/foreignKeys.png" width="11px" height="12px" preserveAspectRatio="xMinYMin meet" x="212" y="-158.656"/>
<text text-anchor="start" x="227" y="-148.7557" font-family="Helvetica,sans-Serif" font-size="11.00" fill="#000000">interpreter_needed</text>
<polygon fill="none" stroke="#000000" points="207,-119.6557 207,-141.6557 455,-141.6557 455,-119.6557 207,-119.6557"/>
<image xlink:href="../../images/foreignKeys.png" width="11px" height="12px" preserveAspectRatio="xMinYMin meet" x="212" y="-136.656"/>
<text text-anchor="start" x="227" y="-126.7557" font-family="Helvetica,sans-Serif" font-size="11.00" fill="#000000">advance_directive_user_authenticator</text>
<polygon fill="none" stroke="#000000" points="207,-100.6557 207,-119.6557 455,-119.6557 455,-100.6557 207,-100.6557"/>
<text text-anchor="start" x="210" y="-106.7557" font-family="Helvetica,sans-Serif" font-size="11.00" fill="#000000">...</text>
<polygon fill="#ffffff" stroke="transparent" points="207,-81.6557 207,-100.6557 322,-100.6557 322,-81.6557 207,-81.6557"/>
<polygon fill="none" stroke="#000000" points="207,-81.6557 207,-100.6557 322,-100.6557 322,-81.6557 207,-81.6557"/>
<text text-anchor="start" x="210" y="-87.7557" font-family="Helvetica,sans-Serif" font-size="11.00" fill="#000000">&lt; 9</text>
<polygon fill="#ffffff" stroke="transparent" points="322,-81.6557 322,-100.6557 381,-100.6557 381,-81.6557 322,-81.6557"/>
<polygon fill="none" stroke="#000000" points="322,-81.6557 322,-100.6557 381,-100.6557 381,-81.6557 322,-81.6557"/>
<text text-anchor="start" x="371.8862" y="-87.7557" font-family="Helvetica,sans-Serif" font-size="11.00" fill="#000000"> &#160;</text>
<polygon fill="#ffffff" stroke="transparent" points="381,-81.6557 381,-100.6557 455,-100.6557 455,-81.6557 381,-81.6557"/>
<polygon fill="none" stroke="#000000" points="381,-81.6557 381,-100.6557 455,-100.6557 455,-81.6557 381,-81.6557"/>
<text text-anchor="start" x="430.2904" y="-87.7557" font-family="Helvetica,sans-Serif" font-size="11.00" fill="#000000">97 &gt;</text>
</a>
</g>
</g>
<!-- users -->
<g id="node2" class="node">
<title>users</title>
<g id="a_node2"><a xlink:href="../../tables/users.html" xlink:title="users" target="_top">
<polygon fill="#ffffff" stroke="transparent" points="8,-49.1557 8,-264.1557 158,-264.1557 158,-49.1557 8,-49.1557"/>
<polygon fill="#f5f5f5" stroke="transparent" points="8,-240.6557 8,-263.6557 158,-263.6557 158,-240.6557 8,-240.6557"/>
<polygon fill="none" stroke="#000000" points="8,-240.6557 8,-263.6557 158,-263.6557 158,-240.6557 8,-240.6557"/>
<text text-anchor="start" x="13" y="-249.2557" font-family="Helvetica,sans-Serif" font-weight="bold" font-size="11.00" fill="#000000">users</text>
<text text-anchor="start" x="123.0437" y="-248.7557" font-family="Helvetica,sans-Serif" font-size="11.00" fill="#000000">[table]</text>
<polygon fill="none" stroke="#000000" points="8,-218.6557 8,-240.6557 158,-240.6557 158,-218.6557 8,-218.6557"/>
<image xlink:href="../../images/primaryKeys.png" width="11px" height="12px" preserveAspectRatio="xMinYMin meet" x="13" y="-235.656"/>
<text text-anchor="start" x="28" y="-225.7557" font-family="Helvetica,sans-Serif" font-size="11.00" fill="#000000">id</text>
<polygon fill="#ffffff" stroke="transparent" points="8,-196.6557 8,-218.6557 158,-218.6557 158,-196.6557 8,-196.6557"/>
<polygon fill="none" stroke="#000000" points="8,-196.6557 8,-218.6557 158,-218.6557 158,-196.6557 8,-196.6557"/>
<text text-anchor="start" x="28" y="-203.7557" font-family="Helvetica,sans-Serif" font-size="11.00" fill="#000000">uuid</text>
<polygon fill="none" stroke="#000000" points="8,-174.6557 8,-196.6557 158,-196.6557 158,-174.6557 8,-174.6557"/>
<image xlink:href="../../images/primaryKeys.png" width="11px" height="12px" preserveAspectRatio="xMinYMin meet" x="13" y="-191.656"/>
<text text-anchor="start" x="28" y="-181.7557" font-family="Helvetica,sans-Serif" font-size="11.00" fill="#000000">username</text>
<polygon fill="none" stroke="#000000" points="8,-152.6557 8,-174.6557 158,-174.6557 158,-152.6557 8,-152.6557"/>
<image xlink:href="../../images/foreignKeys.png" width="11px" height="12px" preserveAspectRatio="xMinYMin meet" x="13" y="-169.656"/>
<text text-anchor="start" x="28" y="-159.7557" font-family="Helvetica,sans-Serif" font-size="11.00" fill="#000000">facility_id</text>
<polygon fill="#ffffff" stroke="transparent" points="8,-130.6557 8,-152.6557 158,-152.6557 158,-130.6557 8,-130.6557"/>
<polygon fill="none" stroke="#000000" points="8,-130.6557 8,-152.6557 158,-152.6557 158,-130.6557 8,-130.6557"/>
<text text-anchor="start" x="28" y="-137.7557" font-family="Helvetica,sans-Serif" font-size="11.00" fill="#000000">google_signin_email</text>
<polygon fill="#ffffff" stroke="transparent" points="8,-108.6557 8,-130.6557 158,-130.6557 158,-108.6557 8,-108.6557"/>
<polygon fill="none" stroke="#000000" points="8,-108.6557 8,-130.6557 158,-130.6557 158,-108.6557 8,-108.6557"/>
<text text-anchor="start" x="28" y="-115.7557" font-family="Helvetica,sans-Serif" font-size="11.00" fill="#000000">abook_type</text>
<polygon fill="none" stroke="#000000" points="8,-86.6557 8,-108.6557 158,-108.6557 158,-86.6557 8,-86.6557"/>
<image xlink:href="../../images/foreignKeys.png" width="11px" height="12px" preserveAspectRatio="xMinYMin meet" x="13" y="-103.656"/>
<text text-anchor="start" x="28" y="-93.7557" font-family="Helvetica,sans-Serif" font-size="11.00" fill="#000000">billing_facility_id</text>
<polygon fill="none" stroke="#000000" points="8,-67.6557 8,-86.6557 158,-86.6557 158,-67.6557 8,-67.6557"/>
<text text-anchor="start" x="11" y="-73.7557" font-family="Helvetica,sans-Serif" font-size="11.00" fill="#000000">...</text>
<polygon fill="#ffffff" stroke="transparent" points="8,-48.6557 8,-67.6557 74,-67.6557 74,-48.6557 8,-48.6557"/>
<polygon fill="none" stroke="#000000" points="8,-48.6557 8,-67.6557 74,-67.6557 74,-48.6557 8,-48.6557"/>
<text text-anchor="start" x="11" y="-54.7557" font-family="Helvetica,sans-Serif" font-size="11.00" fill="#000000">&lt; 2</text>
<polygon fill="#ffffff" stroke="transparent" points="74,-48.6557 74,-67.6557 108,-67.6557 108,-48.6557 74,-48.6557"/>
<polygon fill="none" stroke="#000000" points="74,-48.6557 74,-67.6557 108,-67.6557 108,-48.6557 74,-48.6557"/>
<text text-anchor="start" x="98.8862" y="-54.7557" font-family="Helvetica,sans-Serif" font-size="11.00" fill="#000000"> &#160;</text>
<polygon fill="#ffffff" stroke="transparent" points="108,-48.6557 108,-67.6557 158,-67.6557 158,-48.6557 108,-48.6557"/>
<polygon fill="none" stroke="#000000" points="108,-48.6557 108,-67.6557 158,-67.6557 158,-48.6557 108,-48.6557"/>
<text text-anchor="start" x="133.2904" y="-54.7557" font-family="Helvetica,sans-Serif" font-size="11.00" fill="#000000">91 &gt;</text>
</a>
</g>
</g>
<!-- patient_data&#45;&gt;users -->
<g id="edge1" class="edge">
<title>patient_data:w&#45;&gt;users:e</title>
<path fill="none" stroke="#000000" d="M193.1394,-134.6593C168.3773,-153.1806 201.1495,-229.6557 158,-229.6557"/>
<polygon fill="#000000" stroke="#000000" points="199.3142,-132.8758 207.999,-134.1144 203.1571,-131.7658 207,-130.6557 207,-130.6557 207,-130.6557 203.1571,-131.7658 206.001,-127.1971 199.3142,-132.8758 199.3142,-132.8758"/>
<ellipse fill="none" stroke="#000000" cx="196.2399" cy="-133.7638" rx="3.2" ry="3.2"/>
</g>
<!-- patient_data&#45;&gt;users -->
<g id="edge2" class="edge">
<title>patient_data:w&#45;&gt;users:e</title>
<path fill="none" stroke="#000000" d="M192.7027,-238.8393C181.2382,-235.715 174.5655,-229.6557 158,-229.6557"/>
<polygon fill="#000000" stroke="#000000" points="199.0638,-239.6474 206.5463,-244.227 203.0319,-240.1516 207,-240.6557 207,-240.6557 207,-240.6557 203.0319,-240.1516 207.4537,-237.0844 199.0638,-239.6474 199.0638,-239.6474"/>
<ellipse fill="none" stroke="#000000" cx="195.8893" cy="-239.2441" rx="3.2" ry="3.2"/>
</g>
<!-- patient_data&#45;&gt;users -->
<g id="edge3" class="edge">
<title>patient_data:w&#45;&gt;users:e</title>
<path fill="none" stroke="#000000" d="M193.2659,-302.0696C174.3724,-285.493 192.5427,-229.6557 158,-229.6557"/>
<polygon fill="#000000" stroke="#000000" points="199.4119,-304.1219 205.8598,-310.0704 203.2059,-305.3888 207,-306.6557 207,-306.6557 207,-306.6557 203.2059,-305.3888 208.1402,-303.2411 199.4119,-304.1219 199.4119,-304.1219"/>
<ellipse fill="none" stroke="#000000" cx="196.3766" cy="-303.1083" rx="3.2" ry="3.2"/>
</g>
<!-- patient_data&#45;&gt;users -->
<g id="edge4" class="edge">
<title>patient_data:w&#45;&gt;users:e</title>
<path fill="none" stroke="#000000" d="M193.1265,-279.5801C178.7102,-265.9643 184.5999,-229.6557 158,-229.6557"/>
<polygon fill="#000000" stroke="#000000" points="199.487,-281.907 205.7631,-288.0366 203.2435,-283.2814 207,-284.6557 207,-284.6557 207,-284.6557 203.2435,-283.2814 208.2369,-281.2749 199.487,-281.907 199.487,-281.907"/>
<ellipse fill="none" stroke="#000000" cx="196.4818" cy="-280.8076" rx="3.2" ry="3.2"/>
</g>
<!-- patient_data&#45;&gt;users -->
<g id="edge5" class="edge">
<title>patient_data:w&#45;&gt;users:e</title>
<path fill="none" stroke="#000000" d="M192.7027,-220.4722C181.2382,-223.5965 174.5655,-229.6557 158,-229.6557"/>
<polygon fill="#000000" stroke="#000000" points="199.0638,-219.6641 207.4537,-222.227 203.0319,-219.1599 207,-218.6557 207,-218.6557 207,-218.6557 203.0319,-219.1599 206.5463,-215.0844 199.0638,-219.6641 199.0638,-219.6641"/>
<ellipse fill="none" stroke="#000000" cx="195.8893" cy="-220.0674" rx="3.2" ry="3.2"/>
</g>
<!-- patient_history -->
<g id="node3" class="node">
<title>patient_history</title>
<g id="a_node3"><a xlink:href="../../tables/patient_history.html" xlink:title="patient_history" target="_top">
<polygon fill="#ffffff" stroke="transparent" points="504,-39.6557 504,-393.6557 740,-393.6557 740,-39.6557 504,-39.6557"/>
<polygon fill="#f5f5f5" stroke="transparent" points="506,-368.6557 506,-391.6557 738,-391.6557 738,-368.6557 506,-368.6557"/>
<polygon fill="none" stroke="#000000" points="506,-368.6557 506,-391.6557 738,-391.6557 738,-368.6557 506,-368.6557"/>
<text text-anchor="start" x="511" y="-377.2557" font-family="Helvetica,sans-Serif" font-weight="bold" font-size="11.00" fill="#000000">patient_history</text>
<text text-anchor="start" x="703.0437" y="-376.7557" font-family="Helvetica,sans-Serif" font-size="11.00" fill="#000000">[table]</text>
<polygon fill="none" stroke="#000000" points="506,-346.6557 506,-368.6557 672,-368.6557 672,-346.6557 506,-346.6557"/>
<image xlink:href="../../images/primaryKeys.png" width="11px" height="12px" preserveAspectRatio="xMinYMin meet" x="511" y="-363.656"/>
<text text-anchor="start" x="526" y="-353.7557" font-family="Helvetica,sans-Serif" font-size="11.00" fill="#000000">id</text>
<polygon fill="none" stroke="#000000" points="672,-346.6557 672,-368.6557 738,-368.6557 738,-346.6557 672,-346.6557"/>
<text text-anchor="start" x="675" y="-354.3557" font-family="Helvetica,sans-Serif" font-size="11.00" fill="#000000">bigint[19]</text>
<polygon fill="#ffffff" stroke="transparent" points="506,-324.6557 506,-346.6557 672,-346.6557 672,-324.6557 506,-324.6557"/>
<polygon fill="none" stroke="#000000" points="506,-324.6557 506,-346.6557 672,-346.6557 672,-324.6557 506,-324.6557"/>
<text text-anchor="start" x="526" y="-331.7557" font-family="Helvetica,sans-Serif" font-size="11.00" fill="#000000">uuid</text>
<polygon fill="none" stroke="#000000" points="672,-324.6557 672,-346.6557 738,-346.6557 738,-324.6557 672,-324.6557"/>
<text text-anchor="start" x="675" y="-332.3557" font-family="Helvetica,sans-Serif" font-size="11.00" fill="#000000">binary[16]</text>
<polygon fill="none" stroke="#000000" points="506,-302.6557 506,-324.6557 672,-324.6557 672,-302.6557 506,-302.6557"/>
<text text-anchor="start" x="526" y="-309.7557" font-family="Helvetica,sans-Serif" font-size="11.00" fill="#000000">date</text>
<polygon fill="none" stroke="#000000" points="672,-302.6557 672,-324.6557 738,-324.6557 738,-302.6557 672,-302.6557"/>
<text text-anchor="start" x="674.7401" y="-310.3557" font-family="Helvetica,sans-Serif" font-size="11.00" fill="#000000">datetime[19]</text>
<polygon fill="none" stroke="#000000" points="506,-280.6557 506,-302.6557 672,-302.6557 672,-280.6557 506,-280.6557"/>
<text text-anchor="start" x="526" y="-287.7557" font-family="Helvetica,sans-Serif" font-size="11.00" fill="#000000">care_team_provider</text>
<polygon fill="none" stroke="#000000" points="672,-280.6557 672,-302.6557 738,-302.6557 738,-280.6557 672,-280.6557"/>
<text text-anchor="start" x="675" y="-288.3557" font-family="Helvetica,sans-Serif" font-size="11.00" fill="#000000">text[65535]</text>
<polygon fill="none" stroke="#000000" points="506,-258.6557 506,-280.6557 672,-280.6557 672,-258.6557 506,-258.6557"/>
<text text-anchor="start" x="526" y="-265.7557" font-family="Helvetica,sans-Serif" font-size="11.00" fill="#000000">care_team_facility</text>
<polygon fill="none" stroke="#000000" points="672,-258.6557 672,-280.6557 738,-280.6557 738,-258.6557 672,-258.6557"/>
<text text-anchor="start" x="675" y="-266.3557" font-family="Helvetica,sans-Serif" font-size="11.00" fill="#000000">text[65535]</text>
<polygon fill="#ffffff" stroke="transparent" points="506,-236.6557 506,-258.6557 672,-258.6557 672,-236.6557 506,-236.6557"/>
<polygon fill="none" stroke="#000000" points="506,-236.6557 506,-258.6557 672,-258.6557 672,-236.6557 506,-236.6557"/>
<image xlink:href="../../images/foreignKeys.png" width="11px" height="12px" preserveAspectRatio="xMinYMin meet" x="511" y="-253.656"/>
<text text-anchor="start" x="526" y="-243.7557" font-family="Helvetica,sans-Serif" font-size="11.00" fill="#000000">pid</text>
<polygon fill="none" stroke="#000000" points="672,-236.6557 672,-258.6557 738,-258.6557 738,-236.6557 672,-236.6557"/>
<text text-anchor="start" x="675" y="-244.3557" font-family="Helvetica,sans-Serif" font-size="11.00" fill="#000000">bigint[19]</text>
<polygon fill="none" stroke="#000000" points="506,-214.6557 506,-236.6557 672,-236.6557 672,-214.6557 506,-214.6557"/>
<text text-anchor="start" x="526" y="-221.7557" font-family="Helvetica,sans-Serif" font-size="11.00" fill="#000000">history_type_key</text>
<polygon fill="none" stroke="#000000" points="672,-214.6557 672,-236.6557 738,-236.6557 738,-214.6557 672,-214.6557"/>
<text text-anchor="start" x="675" y="-222.3557" font-family="Helvetica,sans-Serif" font-size="11.00" fill="#000000">varchar[36]</text>
<polygon fill="none" stroke="#000000" points="506,-192.6557 506,-214.6557 672,-214.6557 672,-192.6557 506,-192.6557"/>
<text text-anchor="start" x="526" y="-199.7557" font-family="Helvetica,sans-Serif" font-size="11.00" fill="#000000">previous_name_prefix</text>
<polygon fill="none" stroke="#000000" points="672,-192.6557 672,-214.6557 738,-214.6557 738,-192.6557 672,-192.6557"/>
<text text-anchor="start" x="675" y="-200.3557" font-family="Helvetica,sans-Serif" font-size="11.00" fill="#000000">text[65535]</text>
<polygon fill="none" stroke="#000000" points="506,-170.6557 506,-192.6557 672,-192.6557 672,-170.6557 506,-170.6557"/>
<text text-anchor="start" x="526" y="-177.7557" font-family="Helvetica,sans-Serif" font-size="11.00" fill="#000000">previous_name_first</text>
<polygon fill="none" stroke="#000000" points="672,-170.6557 672,-192.6557 738,-192.6557 738,-170.6557 672,-170.6557"/>
<text text-anchor="start" x="675" y="-178.3557" font-family="Helvetica,sans-Serif" font-size="11.00" fill="#000000">text[65535]</text>
<polygon fill="none" stroke="#000000" points="506,-148.6557 506,-170.6557 672,-170.6557 672,-148.6557 506,-148.6557"/>
<text text-anchor="start" x="526" y="-155.7557" font-family="Helvetica,sans-Serif" font-size="11.00" fill="#000000">previous_name_middle</text>
<polygon fill="none" stroke="#000000" points="672,-148.6557 672,-170.6557 738,-170.6557 738,-148.6557 672,-148.6557"/>
<text text-anchor="start" x="675" y="-156.3557" font-family="Helvetica,sans-Serif" font-size="11.00" fill="#000000">text[65535]</text>
<polygon fill="none" stroke="#000000" points="506,-126.6557 506,-148.6557 672,-148.6557 672,-126.6557 506,-126.6557"/>
<text text-anchor="start" x="526" y="-133.7557" font-family="Helvetica,sans-Serif" font-size="11.00" fill="#000000">previous_name_last</text>
<polygon fill="none" stroke="#000000" points="672,-126.6557 672,-148.6557 738,-148.6557 738,-126.6557 672,-126.6557"/>
<text text-anchor="start" x="675" y="-134.3557" font-family="Helvetica,sans-Serif" font-size="11.00" fill="#000000">text[65535]</text>
<polygon fill="none" stroke="#000000" points="506,-104.6557 506,-126.6557 672,-126.6557 672,-104.6557 506,-104.6557"/>
<text text-anchor="start" x="526" y="-111.7557" font-family="Helvetica,sans-Serif" font-size="11.00" fill="#000000">previous_name_suffix</text>
<polygon fill="none" stroke="#000000" points="672,-104.6557 672,-126.6557 738,-126.6557 738,-104.6557 672,-104.6557"/>
<text text-anchor="start" x="675" y="-112.3557" font-family="Helvetica,sans-Serif" font-size="11.00" fill="#000000">text[65535]</text>
<polygon fill="none" stroke="#000000" points="506,-82.6557 506,-104.6557 672,-104.6557 672,-82.6557 506,-82.6557"/>
<text text-anchor="start" x="526" y="-89.7557" font-family="Helvetica,sans-Serif" font-size="11.00" fill="#000000">previous_name_enddate</text>
<polygon fill="none" stroke="#000000" points="672,-82.6557 672,-104.6557 738,-104.6557 738,-82.6557 672,-82.6557"/>
<text text-anchor="start" x="675" y="-90.3557" font-family="Helvetica,sans-Serif" font-size="11.00" fill="#000000">date[10]</text>
<polygon fill="none" stroke="#000000" points="506,-60.6557 506,-82.6557 672,-82.6557 672,-60.6557 506,-60.6557"/>
<image xlink:href="../../images/foreignKeys.png" width="11px" height="12px" preserveAspectRatio="xMinYMin meet" x="511" y="-77.6557"/>
<text text-anchor="start" x="526" y="-67.7557" font-family="Helvetica,sans-Serif" font-size="11.00" fill="#000000">created_by</text>
<polygon fill="none" stroke="#000000" points="672,-60.6557 672,-82.6557 738,-82.6557 738,-60.6557 672,-60.6557"/>
<text text-anchor="start" x="675" y="-68.3557" font-family="Helvetica,sans-Serif" font-size="11.00" fill="#000000">bigint[19]</text>
<polygon fill="#ffffff" stroke="transparent" points="506,-41.6557 506,-60.6557 593,-60.6557 593,-41.6557 506,-41.6557"/>
<polygon fill="none" stroke="#000000" points="506,-41.6557 506,-60.6557 593,-60.6557 593,-41.6557 506,-41.6557"/>
<text text-anchor="start" x="509" y="-47.7557" font-family="Helvetica,sans-Serif" font-size="11.00" fill="#000000">&lt; 2</text>
<polygon fill="#ffffff" stroke="transparent" points="593,-41.6557 593,-60.6557 672,-60.6557 672,-41.6557 593,-41.6557"/>
<polygon fill="none" stroke="#000000" points="593,-41.6557 593,-60.6557 672,-60.6557 672,-41.6557 593,-41.6557"/>
<text text-anchor="start" x="662.8862" y="-47.7557" font-family="Helvetica,sans-Serif" font-size="11.00" fill="#000000"> &#160;</text>
<polygon fill="#ffffff" stroke="transparent" points="672,-41.6557 672,-60.6557 738,-60.6557 738,-41.6557 672,-41.6557"/>
<polygon fill="none" stroke="#000000" points="672,-41.6557 672,-60.6557 738,-60.6557 738,-41.6557 672,-41.6557"/>
<text text-anchor="start" x="719.4053" y="-47.7557" font-family="Helvetica,sans-Serif" font-size="11.00" fill="#000000">0 &gt;</text>
<polygon fill="none" stroke="#000000" stroke-width="2" points="505,-40.6557 505,-392.6557 739,-392.6557 739,-40.6557 505,-40.6557"/>
</a>
</g>
</g>
<!-- patient_history&#45;&gt;patient_data -->
<g id="edge7" class="edge">
<title>patient_history:w&#45;&gt;patient_data:e</title>
<path fill="none" stroke="#000000" d="M491.7671,-249.869C479.3925,-254.0415 472.9046,-262.6557 455,-262.6557"/>
<polygon fill="#000000" stroke="#000000" points="498.095,-248.8851 506.5532,-251.213 502.0475,-248.2704 506,-247.6557 506,-247.6557 506,-247.6557 502.0475,-248.2704 505.4468,-244.0985 498.095,-248.8851 498.095,-248.8851"/>
<ellipse fill="none" stroke="#000000" cx="494.933" cy="-249.3768" rx="3.2" ry="3.2"/>
</g>
<!-- patient_history&#45;&gt;users -->
<g id="edge6" class="edge">
<title>patient_history:w&#45;&gt;users:e</title>
<path fill="none" stroke="#000000" d="M491.4931,-71.3405C364.97,-65.8403 303.02,8.8169 199,-71.6557 141.6188,-116.0473 230.548,-229.6557 158,-229.6557"/>
<polygon fill="#000000" stroke="#000000" points="498.0019,-71.4819 505.9218,-75.2549 502.0009,-71.5688 506,-71.6557 506,-71.6557 506,-71.6557 502.0009,-71.5688 506.0782,-68.0566 498.0019,-71.4819 498.0019,-71.4819"/>
<ellipse fill="none" stroke="#000000" cx="494.8026" cy="-71.4124" rx="3.2" ry="3.2"/>
</g>
</g>
</svg>
