<?xml version="1.0" encoding="UTF-8" standalone="no"?>
<!DOCTYPE svg PUBLIC "-//W3C//DTD SVG 1.1//EN"
 "http://www.w3.org/Graphics/SVG/1.1/DTD/svg11.dtd">
<!-- Generated by graphviz version 2.40.1 (20161225.0304)
 -->
<!-- Title: oneDegreeRelationshipsDiagram Pages: 1 -->
<svg width="726pt" height="291pt"
 viewBox="0.00 0.00 726.00 291.20" xmlns="http://www.w3.org/2000/svg" xmlns:xlink="http://www.w3.org/1999/xlink">
<g id="graph0" class="graph" transform="scale(1 1) rotate(0) translate(4 287.2)">
<title>oneDegreeRelationshipsDiagram</title>
<polygon fill="#ffffff" stroke="transparent" points="-4,4 -4,-287.2 722,-287.2 722,4 -4,4"/>
<text text-anchor="middle" x="72.4936" y="-7.3" font-family="Helvetica,sans-Serif" font-size="11.00" fill="#000000">Generated by SchemaSpy</text>
<!-- patient_tracker -->
<g id="node1" class="node">
<title>patient_tracker</title>
<g id="a_node1"><a xlink:href="../../tables/patient_tracker.html" xlink:title="patient_tracker" target="_top">
<polygon fill="#ffffff" stroke="transparent" points="224,-108.2 224,-279.2 404,-279.2 404,-108.2 224,-108.2"/>
<polygon fill="#f5f5f5" stroke="transparent" points="224,-255.7 224,-278.7 404,-278.7 404,-255.7 224,-255.7"/>
<polygon fill="none" stroke="#000000" points="224,-255.7 224,-278.7 404,-278.7 404,-255.7 224,-255.7"/>
<text text-anchor="start" x="229" y="-264.3" font-family="Helvetica,sans-Serif" font-weight="bold" font-size="11.00" fill="#000000">patient_tracker</text>
<text text-anchor="start" x="369.0437" y="-263.8" font-family="Helvetica,sans-Serif" font-size="11.00" fill="#000000">[table]</text>
<polygon fill="none" stroke="#000000" points="224,-233.7 224,-255.7 404,-255.7 404,-233.7 224,-233.7"/>
<image xlink:href="../../images/primaryKeys.png" width="11px" height="12px" preserveAspectRatio="xMinYMin meet" x="229" y="-250.7"/>
<text text-anchor="start" x="244" y="-240.8" font-family="Helvetica,sans-Serif" font-size="11.00" fill="#000000">id</text>
<polygon fill="#ffffff" stroke="transparent" points="224,-211.7 224,-233.7 404,-233.7 404,-211.7 224,-211.7"/>
<polygon fill="none" stroke="#000000" points="224,-211.7 224,-233.7 404,-233.7 404,-211.7 224,-211.7"/>
<image xlink:href="../../images/foreignKeys.png" width="11px" height="12px" preserveAspectRatio="xMinYMin meet" x="229" y="-228.7"/>
<text text-anchor="start" x="244" y="-218.8" font-family="Helvetica,sans-Serif" font-size="11.00" fill="#000000">eid</text>
<polygon fill="#ffffff" stroke="transparent" points="224,-189.7 224,-211.7 404,-211.7 404,-189.7 224,-189.7"/>
<polygon fill="none" stroke="#000000" points="224,-189.7 224,-211.7 404,-211.7 404,-189.7 224,-189.7"/>
<image xlink:href="../../images/foreignKeys.png" width="11px" height="12px" preserveAspectRatio="xMinYMin meet" x="229" y="-206.7"/>
<text text-anchor="start" x="244" y="-196.8" font-family="Helvetica,sans-Serif" font-size="11.00" fill="#000000">pid</text>
<polygon fill="none" stroke="#000000" points="224,-167.7 224,-189.7 404,-189.7 404,-167.7 224,-167.7"/>
<image xlink:href="../../images/foreignKeys.png" width="11px" height="12px" preserveAspectRatio="xMinYMin meet" x="229" y="-184.7"/>
<text text-anchor="start" x="244" y="-174.8" font-family="Helvetica,sans-Serif" font-size="11.00" fill="#000000">original_user</text>
<polygon fill="none" stroke="#000000" points="224,-145.7 224,-167.7 404,-167.7 404,-145.7 224,-145.7"/>
<image xlink:href="../../images/foreignKeys.png" width="11px" height="12px" preserveAspectRatio="xMinYMin meet" x="229" y="-162.7"/>
<text text-anchor="start" x="244" y="-152.8" font-family="Helvetica,sans-Serif" font-size="11.00" fill="#000000">encounter</text>
<polygon fill="none" stroke="#000000" points="224,-126.7 224,-145.7 404,-145.7 404,-126.7 224,-126.7"/>
<text text-anchor="start" x="227" y="-132.8" font-family="Helvetica,sans-Serif" font-size="11.00" fill="#000000">...</text>
<polygon fill="#ffffff" stroke="transparent" points="224,-107.7 224,-126.7 308,-126.7 308,-107.7 224,-107.7"/>
<polygon fill="none" stroke="#000000" points="224,-107.7 224,-126.7 308,-126.7 308,-107.7 224,-107.7"/>
<text text-anchor="start" x="227" y="-113.8" font-family="Helvetica,sans-Serif" font-size="11.00" fill="#000000">&lt; 4</text>
<polygon fill="#ffffff" stroke="transparent" points="308,-107.7 308,-126.7 351,-126.7 351,-107.7 308,-107.7"/>
<polygon fill="none" stroke="#000000" points="308,-107.7 308,-126.7 351,-126.7 351,-107.7 308,-107.7"/>
<text text-anchor="start" x="341.8862" y="-113.8" font-family="Helvetica,sans-Serif" font-size="11.00" fill="#000000"> &#160;</text>
<polygon fill="#ffffff" stroke="transparent" points="351,-107.7 351,-126.7 404,-126.7 404,-107.7 351,-107.7"/>
<polygon fill="none" stroke="#000000" points="351,-107.7 351,-126.7 404,-126.7 404,-107.7 351,-107.7"/>
<text text-anchor="start" x="385.4053" y="-113.8" font-family="Helvetica,sans-Serif" font-size="11.00" fill="#000000">1 &gt;</text>
</a>
</g>
</g>
<!-- users -->
<g id="node2" class="node">
<title>users</title>
<g id="a_node2"><a xlink:href="../../tables/users.html" xlink:title="users" target="_top">
<polygon fill="#ffffff" stroke="transparent" points="8,-38.2 8,-209.2 175,-209.2 175,-38.2 8,-38.2"/>
<polygon fill="#f5f5f5" stroke="transparent" points="8.5,-185.7 8.5,-208.7 175.5,-208.7 175.5,-185.7 8.5,-185.7"/>
<polygon fill="none" stroke="#000000" points="8.5,-185.7 8.5,-208.7 175.5,-208.7 175.5,-185.7 8.5,-185.7"/>
<text text-anchor="start" x="13.5" y="-194.3" font-family="Helvetica,sans-Serif" font-weight="bold" font-size="11.00" fill="#000000">users</text>
<text text-anchor="start" x="140.5437" y="-193.8" font-family="Helvetica,sans-Serif" font-size="11.00" fill="#000000">[table]</text>
<polygon fill="none" stroke="#000000" points="8.5,-163.7 8.5,-185.7 175.5,-185.7 175.5,-163.7 8.5,-163.7"/>
<image xlink:href="../../images/primaryKeys.png" width="11px" height="12px" preserveAspectRatio="xMinYMin meet" x="13.5" y="-180.7"/>
<text text-anchor="start" x="28.5" y="-170.8" font-family="Helvetica,sans-Serif" font-size="11.00" fill="#000000">id</text>
<polygon fill="#ffffff" stroke="transparent" points="8.5,-141.7 8.5,-163.7 175.5,-163.7 175.5,-141.7 8.5,-141.7"/>
<polygon fill="none" stroke="#000000" points="8.5,-141.7 8.5,-163.7 175.5,-163.7 175.5,-141.7 8.5,-141.7"/>
<text text-anchor="start" x="28.5" y="-148.8" font-family="Helvetica,sans-Serif" font-size="11.00" fill="#000000">uuid</text>
<polygon fill="none" stroke="#000000" points="8.5,-119.7 8.5,-141.7 175.5,-141.7 175.5,-119.7 8.5,-119.7"/>
<image xlink:href="../../images/primaryKeys.png" width="11px" height="12px" preserveAspectRatio="xMinYMin meet" x="13.5" y="-136.7"/>
<text text-anchor="start" x="28.5" y="-126.8" font-family="Helvetica,sans-Serif" font-size="11.00" fill="#000000">username</text>
<polygon fill="#ffffff" stroke="transparent" points="8.5,-97.7 8.5,-119.7 175.5,-119.7 175.5,-97.7 8.5,-97.7"/>
<polygon fill="none" stroke="#000000" points="8.5,-97.7 8.5,-119.7 175.5,-119.7 175.5,-97.7 8.5,-97.7"/>
<text text-anchor="start" x="28.5" y="-104.8" font-family="Helvetica,sans-Serif" font-size="11.00" fill="#000000">google_signin_email</text>
<polygon fill="#ffffff" stroke="transparent" points="8.5,-75.7 8.5,-97.7 175.5,-97.7 175.5,-75.7 8.5,-75.7"/>
<polygon fill="none" stroke="#000000" points="8.5,-75.7 8.5,-97.7 175.5,-97.7 175.5,-75.7 8.5,-75.7"/>
<text text-anchor="start" x="28.5" y="-82.8" font-family="Helvetica,sans-Serif" font-size="11.00" fill="#000000">abook_type</text>
<polygon fill="none" stroke="#000000" points="8.5,-56.7 8.5,-75.7 175.5,-75.7 175.5,-56.7 8.5,-56.7"/>
<text text-anchor="start" x="11.5" y="-62.8" font-family="Helvetica,sans-Serif" font-size="11.00" fill="#000000">...</text>
<polygon fill="#ffffff" stroke="transparent" points="8.5,-37.7 8.5,-56.7 78.5,-56.7 78.5,-37.7 8.5,-37.7"/>
<polygon fill="none" stroke="#000000" points="8.5,-37.7 8.5,-56.7 78.5,-56.7 78.5,-37.7 8.5,-37.7"/>
<text text-anchor="start" x="11.5" y="-43.8" font-family="Helvetica,sans-Serif" font-size="11.00" fill="#000000"> &#160;</text>
<polygon fill="#ffffff" stroke="transparent" points="78.5,-37.7 78.5,-56.7 119.5,-56.7 119.5,-37.7 78.5,-37.7"/>
<polygon fill="none" stroke="#000000" points="78.5,-37.7 78.5,-56.7 119.5,-56.7 119.5,-37.7 78.5,-37.7"/>
<text text-anchor="start" x="110.3862" y="-43.8" font-family="Helvetica,sans-Serif" font-size="11.00" fill="#000000"> &#160;</text>
<polygon fill="#ffffff" stroke="transparent" points="119.5,-37.7 119.5,-56.7 175.5,-56.7 175.5,-37.7 119.5,-37.7"/>
<polygon fill="none" stroke="#000000" points="119.5,-37.7 119.5,-56.7 175.5,-56.7 175.5,-37.7 119.5,-37.7"/>
<text text-anchor="start" x="150.7904" y="-43.8" font-family="Helvetica,sans-Serif" font-size="11.00" fill="#000000">38 &gt;</text>
</a>
</g>
</g>
<!-- patient_tracker&#45;&gt;users -->
<g id="edge1" class="edge">
<title>patient_tracker:w&#45;&gt;users:e</title>
<path fill="none" stroke="#000000" d="M210.0656,-173.5632C196.8577,-161.1805 199.6672,-130.7 175.5,-130.7"/>
<polygon fill="#000000" stroke="#000000" points="216.4938,-175.9328 222.7548,-182.0778 220.2469,-177.3164 224,-178.7 224,-178.7 224,-178.7 220.2469,-177.3164 225.2452,-175.3222 216.4938,-175.9328 216.4938,-175.9328"/>
<ellipse fill="none" stroke="#000000" cx="213.4913" cy="-174.826" rx="3.2" ry="3.2"/>
</g>
<!-- patient_tracker_element -->
<g id="node3" class="node">
<title>patient_tracker_element</title>
<g id="a_node3"><a xlink:href="../../tables/patient_tracker_element.html" xlink:title="patient_tracker_element" target="_top">
<polygon fill="#ffffff" stroke="transparent" points="453,-76.7 453,-254.7 710,-254.7 710,-76.7 453,-76.7"/>
<polygon fill="#f5f5f5" stroke="transparent" points="455.5,-229.7 455.5,-252.7 708.5,-252.7 708.5,-229.7 455.5,-229.7"/>
<polygon fill="none" stroke="#000000" points="455.5,-229.7 455.5,-252.7 708.5,-252.7 708.5,-229.7 455.5,-229.7"/>
<text text-anchor="start" x="460.5" y="-238.3" font-family="Helvetica,sans-Serif" font-weight="bold" font-size="11.00" fill="#000000">patient_tracker_element</text>
<text text-anchor="start" x="673.5437" y="-237.8" font-family="Helvetica,sans-Serif" font-size="11.00" fill="#000000">[table]</text>
<polygon fill="#ffffff" stroke="transparent" points="455.5,-207.7 455.5,-229.7 641.5,-229.7 641.5,-207.7 455.5,-207.7"/>
<polygon fill="none" stroke="#000000" points="455.5,-207.7 455.5,-229.7 641.5,-229.7 641.5,-207.7 455.5,-207.7"/>
<image xlink:href="../../images/foreignKeys.png" width="11px" height="12px" preserveAspectRatio="xMinYMin meet" x="460.5" y="-224.7"/>
<text text-anchor="start" x="475.5" y="-214.8" font-family="Helvetica,sans-Serif" font-size="11.00" fill="#000000">pt_tracker_id</text>
<polygon fill="none" stroke="#000000" points="641.5,-207.7 641.5,-229.7 708.5,-229.7 708.5,-207.7 641.5,-207.7"/>
<text text-anchor="start" x="644.5" y="-215.4" font-family="Helvetica,sans-Serif" font-size="11.00" fill="#000000">bigint[19]</text>
<polygon fill="none" stroke="#000000" points="455.5,-185.7 455.5,-207.7 641.5,-207.7 641.5,-185.7 455.5,-185.7"/>
<text text-anchor="start" x="475.5" y="-192.8" font-family="Helvetica,sans-Serif" font-size="11.00" fill="#000000">start_datetime</text>
<polygon fill="none" stroke="#000000" points="641.5,-185.7 641.5,-207.7 708.5,-207.7 708.5,-185.7 641.5,-185.7"/>
<text text-anchor="start" x="644.5" y="-193.4" font-family="Helvetica,sans-Serif" font-size="11.00" fill="#000000">datetime[19]</text>
<polygon fill="none" stroke="#000000" points="455.5,-163.7 455.5,-185.7 641.5,-185.7 641.5,-163.7 455.5,-163.7"/>
<text text-anchor="start" x="475.5" y="-170.8" font-family="Helvetica,sans-Serif" font-size="11.00" fill="#000000">room</text>
<polygon fill="none" stroke="#000000" points="641.5,-163.7 641.5,-185.7 708.5,-185.7 708.5,-163.7 641.5,-163.7"/>
<text text-anchor="start" x="644.5" y="-171.4" font-family="Helvetica,sans-Serif" font-size="11.00" fill="#000000">varchar[20]</text>
<polygon fill="none" stroke="#000000" points="455.5,-141.7 455.5,-163.7 641.5,-163.7 641.5,-141.7 455.5,-141.7"/>
<text text-anchor="start" x="475.5" y="-148.8" font-family="Helvetica,sans-Serif" font-size="11.00" fill="#000000">status</text>
<polygon fill="none" stroke="#000000" points="641.5,-141.7 641.5,-163.7 708.5,-163.7 708.5,-141.7 641.5,-141.7"/>
<text text-anchor="start" x="644.5" y="-149.4" font-family="Helvetica,sans-Serif" font-size="11.00" fill="#000000">varchar[31]</text>
<polygon fill="#ffffff" stroke="transparent" points="455.5,-119.7 455.5,-141.7 641.5,-141.7 641.5,-119.7 455.5,-119.7"/>
<polygon fill="none" stroke="#000000" points="455.5,-119.7 455.5,-141.7 641.5,-141.7 641.5,-119.7 455.5,-119.7"/>
<text text-anchor="start" x="475.5" y="-126.8" font-family="Helvetica,sans-Serif" font-size="11.00" fill="#000000">seq</text>
<polygon fill="none" stroke="#000000" points="641.5,-119.7 641.5,-141.7 708.5,-141.7 708.5,-119.7 641.5,-119.7"/>
<text text-anchor="start" x="644.5" y="-127.4" font-family="Helvetica,sans-Serif" font-size="11.00" fill="#000000">varchar[4]</text>
<polygon fill="none" stroke="#000000" points="455.5,-97.7 455.5,-119.7 641.5,-119.7 641.5,-97.7 455.5,-97.7"/>
<image xlink:href="../../images/foreignKeys.png" width="11px" height="12px" preserveAspectRatio="xMinYMin meet" x="460.5" y="-114.7"/>
<text text-anchor="start" x="475.5" y="-104.8" font-family="Helvetica,sans-Serif" font-size="11.00" fill="#000000">user</text>
<polygon fill="none" stroke="#000000" points="641.5,-97.7 641.5,-119.7 708.5,-119.7 708.5,-97.7 641.5,-97.7"/>
<text text-anchor="start" x="644.4365" y="-105.4" font-family="Helvetica,sans-Serif" font-size="11.00" fill="#000000">varchar[255]</text>
<polygon fill="#ffffff" stroke="transparent" points="455.5,-78.7 455.5,-97.7 552.5,-97.7 552.5,-78.7 455.5,-78.7"/>
<polygon fill="none" stroke="#000000" points="455.5,-78.7 455.5,-97.7 552.5,-97.7 552.5,-78.7 455.5,-78.7"/>
<text text-anchor="start" x="458.5" y="-84.8" font-family="Helvetica,sans-Serif" font-size="11.00" fill="#000000">&lt; 2</text>
<polygon fill="#ffffff" stroke="transparent" points="552.5,-78.7 552.5,-97.7 641.5,-97.7 641.5,-78.7 552.5,-78.7"/>
<polygon fill="none" stroke="#000000" points="552.5,-78.7 552.5,-97.7 641.5,-97.7 641.5,-78.7 552.5,-78.7"/>
<text text-anchor="start" x="632.3862" y="-84.8" font-family="Helvetica,sans-Serif" font-size="11.00" fill="#000000"> &#160;</text>
<polygon fill="#ffffff" stroke="transparent" points="641.5,-78.7 641.5,-97.7 708.5,-97.7 708.5,-78.7 641.5,-78.7"/>
<polygon fill="none" stroke="#000000" points="641.5,-78.7 641.5,-97.7 708.5,-97.7 708.5,-78.7 641.5,-78.7"/>
<text text-anchor="start" x="689.9053" y="-84.8" font-family="Helvetica,sans-Serif" font-size="11.00" fill="#000000">0 &gt;</text>
<polygon fill="none" stroke="#000000" stroke-width="2" points="454,-77.7 454,-253.7 709,-253.7 709,-77.7 454,-77.7"/>
</a>
</g>
</g>
<!-- patient_tracker_element&#45;&gt;patient_tracker -->
<g id="edge2" class="edge">
<title>patient_tracker_element:w&#45;&gt;patient_tracker:e</title>
<path fill="none" stroke="#000000" d="M441.3959,-222.099C428.4554,-229.1467 423.8313,-244.7 404,-244.7"/>
<polygon fill="#000000" stroke="#000000" points="447.7227,-220.5744 456.3435,-222.1998 451.6113,-219.6372 455.5,-218.7 455.5,-218.7 455.5,-218.7 451.6113,-219.6372 454.6565,-215.2002 447.7227,-220.5744 447.7227,-220.5744"/>
<ellipse fill="none" stroke="#000000" cx="444.6117" cy="-221.3241" rx="3.2" ry="3.2"/>
</g>
<!-- patient_tracker_element&#45;&gt;users -->
<g id="edge3" class="edge">
<title>patient_tracker_element:w&#45;&gt;users:e</title>
<path fill="none" stroke="#000000" d="M441.1731,-106.8251C431.9084,-104.1666 425.9143,-99.432 412,-97.7 325.556,-86.9397 298.0704,-68.4973 216,-97.7 194.1248,-105.4837 198.7188,-130.7 175.5,-130.7"/>
<polygon fill="#000000" stroke="#000000" points="447.5676,-107.6619 455.0329,-112.2696 451.5338,-108.1809 455.5,-108.7 455.5,-108.7 455.5,-108.7 451.5338,-108.1809 455.9671,-105.1304 447.5676,-107.6619 447.5676,-107.6619"/>
<ellipse fill="none" stroke="#000000" cx="444.3947" cy="-107.2467" rx="3.2" ry="3.2"/>
</g>
</g>
</svg>
