<?xml version="1.0" encoding="UTF-8" standalone="no"?>
<!DOCTYPE svg PUBLIC "-//W3C//DTD SVG 1.1//EN"
 "http://www.w3.org/Graphics/SVG/1.1/DTD/svg11.dtd">
<!-- Generated by graphviz version 2.40.1 (20161225.0304)
 -->
<!-- Title: oneDegreeRelationshipsDiagram Pages: 1 -->
<svg width="673pt" height="398pt"
 viewBox="0.00 0.00 673.00 398.20" xmlns="http://www.w3.org/2000/svg" xmlns:xlink="http://www.w3.org/1999/xlink">
<g id="graph0" class="graph" transform="scale(1 1) rotate(0) translate(4 394.2)">
<title>oneDegreeRelationshipsDiagram</title>
<polygon fill="#ffffff" stroke="transparent" points="-4,4 -4,-394.2 669,-394.2 669,4 -4,4"/>
<text text-anchor="middle" x="72.4936" y="-7.3" font-family="Helvetica,sans-Serif" font-size="11.00" fill="#000000">Generated by SchemaSpy</text>
<!-- patient_tracker -->
<g id="node1" class="node">
<title>patient_tracker</title>
<g id="a_node1"><a xlink:href="../../tables/patient_tracker.html" xlink:title="patient_tracker" target="_top">
<polygon fill="#ffffff" stroke="transparent" points="207,-215.2 207,-386.2 369,-386.2 369,-215.2 207,-215.2"/>
<polygon fill="#f5f5f5" stroke="transparent" points="207,-362.7 207,-385.7 369,-385.7 369,-362.7 207,-362.7"/>
<polygon fill="none" stroke="#000000" points="207,-362.7 207,-385.7 369,-385.7 369,-362.7 207,-362.7"/>
<text text-anchor="start" x="212" y="-371.3" font-family="Helvetica,sans-Serif" font-weight="bold" font-size="11.00" fill="#000000">patient_tracker</text>
<text text-anchor="start" x="334.0437" y="-370.8" font-family="Helvetica,sans-Serif" font-size="11.00" fill="#000000">[table]</text>
<polygon fill="none" stroke="#000000" points="207,-340.7 207,-362.7 369,-362.7 369,-340.7 207,-340.7"/>
<image xlink:href="../../images/primaryKeys.png" width="11px" height="12px" preserveAspectRatio="xMinYMin meet" x="212" y="-357.7"/>
<text text-anchor="start" x="227" y="-347.8" font-family="Helvetica,sans-Serif" font-size="11.00" fill="#000000">id</text>
<polygon fill="#ffffff" stroke="transparent" points="207,-318.7 207,-340.7 369,-340.7 369,-318.7 207,-318.7"/>
<polygon fill="none" stroke="#000000" points="207,-318.7 207,-340.7 369,-340.7 369,-318.7 207,-318.7"/>
<image xlink:href="../../images/foreignKeys.png" width="11px" height="12px" preserveAspectRatio="xMinYMin meet" x="212" y="-335.7"/>
<text text-anchor="start" x="227" y="-325.8" font-family="Helvetica,sans-Serif" font-size="11.00" fill="#000000">eid</text>
<polygon fill="#ffffff" stroke="transparent" points="207,-296.7 207,-318.7 369,-318.7 369,-296.7 207,-296.7"/>
<polygon fill="none" stroke="#000000" points="207,-296.7 207,-318.7 369,-318.7 369,-296.7 207,-296.7"/>
<image xlink:href="../../images/foreignKeys.png" width="11px" height="12px" preserveAspectRatio="xMinYMin meet" x="212" y="-313.7"/>
<text text-anchor="start" x="227" y="-303.8" font-family="Helvetica,sans-Serif" font-size="11.00" fill="#000000">pid</text>
<polygon fill="none" stroke="#000000" points="207,-274.7 207,-296.7 369,-296.7 369,-274.7 207,-274.7"/>
<image xlink:href="../../images/foreignKeys.png" width="11px" height="12px" preserveAspectRatio="xMinYMin meet" x="212" y="-291.7"/>
<text text-anchor="start" x="227" y="-281.8" font-family="Helvetica,sans-Serif" font-size="11.00" fill="#000000">original_user</text>
<polygon fill="none" stroke="#000000" points="207,-252.7 207,-274.7 369,-274.7 369,-252.7 207,-252.7"/>
<image xlink:href="../../images/foreignKeys.png" width="11px" height="12px" preserveAspectRatio="xMinYMin meet" x="212" y="-269.7"/>
<text text-anchor="start" x="227" y="-259.8" font-family="Helvetica,sans-Serif" font-size="11.00" fill="#000000">encounter</text>
<polygon fill="none" stroke="#000000" points="207,-233.7 207,-252.7 369,-252.7 369,-233.7 207,-233.7"/>
<text text-anchor="start" x="210" y="-239.8" font-family="Helvetica,sans-Serif" font-size="11.00" fill="#000000">...</text>
<polygon fill="#ffffff" stroke="transparent" points="207,-214.7 207,-233.7 282,-233.7 282,-214.7 207,-214.7"/>
<polygon fill="none" stroke="#000000" points="207,-214.7 207,-233.7 282,-233.7 282,-214.7 207,-214.7"/>
<text text-anchor="start" x="210" y="-220.8" font-family="Helvetica,sans-Serif" font-size="11.00" fill="#000000">&lt; 4</text>
<polygon fill="#ffffff" stroke="transparent" points="282,-214.7 282,-233.7 321,-233.7 321,-214.7 282,-214.7"/>
<polygon fill="none" stroke="#000000" points="282,-214.7 282,-233.7 321,-233.7 321,-214.7 282,-214.7"/>
<text text-anchor="start" x="311.8862" y="-220.8" font-family="Helvetica,sans-Serif" font-size="11.00" fill="#000000"> &#160;</text>
<polygon fill="#ffffff" stroke="transparent" points="321,-214.7 321,-233.7 369,-233.7 369,-214.7 321,-214.7"/>
<polygon fill="none" stroke="#000000" points="321,-214.7 321,-233.7 369,-233.7 369,-214.7 321,-214.7"/>
<text text-anchor="start" x="350.4053" y="-220.8" font-family="Helvetica,sans-Serif" font-size="11.00" fill="#000000">1 &gt;</text>
</a>
</g>
</g>
<!-- users -->
<g id="node2" class="node">
<title>users</title>
<g id="a_node2"><a xlink:href="../../tables/users.html" xlink:title="users" target="_top">
<polygon fill="#ffffff" stroke="transparent" points="8,-38.2 8,-253.2 158,-253.2 158,-38.2 8,-38.2"/>
<polygon fill="#f5f5f5" stroke="transparent" points="8,-229.7 8,-252.7 158,-252.7 158,-229.7 8,-229.7"/>
<polygon fill="none" stroke="#000000" points="8,-229.7 8,-252.7 158,-252.7 158,-229.7 8,-229.7"/>
<text text-anchor="start" x="13" y="-238.3" font-family="Helvetica,sans-Serif" font-weight="bold" font-size="11.00" fill="#000000">users</text>
<text text-anchor="start" x="123.0437" y="-237.8" font-family="Helvetica,sans-Serif" font-size="11.00" fill="#000000">[table]</text>
<polygon fill="none" stroke="#000000" points="8,-207.7 8,-229.7 158,-229.7 158,-207.7 8,-207.7"/>
<image xlink:href="../../images/primaryKeys.png" width="11px" height="12px" preserveAspectRatio="xMinYMin meet" x="13" y="-224.7"/>
<text text-anchor="start" x="28" y="-214.8" font-family="Helvetica,sans-Serif" font-size="11.00" fill="#000000">id</text>
<polygon fill="#ffffff" stroke="transparent" points="8,-185.7 8,-207.7 158,-207.7 158,-185.7 8,-185.7"/>
<polygon fill="none" stroke="#000000" points="8,-185.7 8,-207.7 158,-207.7 158,-185.7 8,-185.7"/>
<text text-anchor="start" x="28" y="-192.8" font-family="Helvetica,sans-Serif" font-size="11.00" fill="#000000">uuid</text>
<polygon fill="none" stroke="#000000" points="8,-163.7 8,-185.7 158,-185.7 158,-163.7 8,-163.7"/>
<image xlink:href="../../images/primaryKeys.png" width="11px" height="12px" preserveAspectRatio="xMinYMin meet" x="13" y="-180.7"/>
<text text-anchor="start" x="28" y="-170.8" font-family="Helvetica,sans-Serif" font-size="11.00" fill="#000000">username</text>
<polygon fill="none" stroke="#000000" points="8,-141.7 8,-163.7 158,-163.7 158,-141.7 8,-141.7"/>
<image xlink:href="../../images/foreignKeys.png" width="11px" height="12px" preserveAspectRatio="xMinYMin meet" x="13" y="-158.7"/>
<text text-anchor="start" x="28" y="-148.8" font-family="Helvetica,sans-Serif" font-size="11.00" fill="#000000">facility_id</text>
<polygon fill="#ffffff" stroke="transparent" points="8,-119.7 8,-141.7 158,-141.7 158,-119.7 8,-119.7"/>
<polygon fill="none" stroke="#000000" points="8,-119.7 8,-141.7 158,-141.7 158,-119.7 8,-119.7"/>
<text text-anchor="start" x="28" y="-126.8" font-family="Helvetica,sans-Serif" font-size="11.00" fill="#000000">google_signin_email</text>
<polygon fill="#ffffff" stroke="transparent" points="8,-97.7 8,-119.7 158,-119.7 158,-97.7 8,-97.7"/>
<polygon fill="none" stroke="#000000" points="8,-97.7 8,-119.7 158,-119.7 158,-97.7 8,-97.7"/>
<text text-anchor="start" x="28" y="-104.8" font-family="Helvetica,sans-Serif" font-size="11.00" fill="#000000">abook_type</text>
<polygon fill="none" stroke="#000000" points="8,-75.7 8,-97.7 158,-97.7 158,-75.7 8,-75.7"/>
<image xlink:href="../../images/foreignKeys.png" width="11px" height="12px" preserveAspectRatio="xMinYMin meet" x="13" y="-92.7"/>
<text text-anchor="start" x="28" y="-82.8" font-family="Helvetica,sans-Serif" font-size="11.00" fill="#000000">billing_facility_id</text>
<polygon fill="none" stroke="#000000" points="8,-56.7 8,-75.7 158,-75.7 158,-56.7 8,-56.7"/>
<text text-anchor="start" x="11" y="-62.8" font-family="Helvetica,sans-Serif" font-size="11.00" fill="#000000">...</text>
<polygon fill="#ffffff" stroke="transparent" points="8,-37.7 8,-56.7 74,-56.7 74,-37.7 8,-37.7"/>
<polygon fill="none" stroke="#000000" points="8,-37.7 8,-56.7 74,-56.7 74,-37.7 8,-37.7"/>
<text text-anchor="start" x="11" y="-43.8" font-family="Helvetica,sans-Serif" font-size="11.00" fill="#000000">&lt; 2</text>
<polygon fill="#ffffff" stroke="transparent" points="74,-37.7 74,-56.7 108,-56.7 108,-37.7 74,-37.7"/>
<polygon fill="none" stroke="#000000" points="74,-37.7 74,-56.7 108,-56.7 108,-37.7 74,-37.7"/>
<text text-anchor="start" x="98.8862" y="-43.8" font-family="Helvetica,sans-Serif" font-size="11.00" fill="#000000"> &#160;</text>
<polygon fill="#ffffff" stroke="transparent" points="108,-37.7 108,-56.7 158,-56.7 158,-37.7 108,-37.7"/>
<polygon fill="none" stroke="#000000" points="108,-37.7 108,-56.7 158,-56.7 158,-37.7 108,-37.7"/>
<text text-anchor="start" x="133.2904" y="-43.8" font-family="Helvetica,sans-Serif" font-size="11.00" fill="#000000">91 &gt;</text>
</a>
</g>
</g>
<!-- patient_tracker&#45;&gt;users -->
<g id="edge1" class="edge">
<title>patient_tracker:w&#45;&gt;users:e</title>
<path fill="none" stroke="#000000" d="M193.0578,-282.0068C164.5985,-262.7466 206.0281,-174.7 158,-174.7"/>
<polygon fill="#000000" stroke="#000000" points="199.2667,-283.6515 206.0782,-289.18 203.1334,-284.6757 207,-285.7 207,-285.7 207,-285.7 203.1334,-284.6757 207.9218,-282.22 199.2667,-283.6515 199.2667,-283.6515"/>
<ellipse fill="none" stroke="#000000" cx="196.1734" cy="-282.8321" rx="3.2" ry="3.2"/>
</g>
<!-- patient_tracker_element -->
<g id="node3" class="node">
<title>patient_tracker_element</title>
<g id="a_node3"><a xlink:href="../../tables/patient_tracker_element.html" xlink:title="patient_tracker_element" target="_top">
<polygon fill="#ffffff" stroke="transparent" points="418,-50.7 418,-228.7 657,-228.7 657,-50.7 418,-50.7"/>
<polygon fill="#f5f5f5" stroke="transparent" points="420.5,-203.7 420.5,-226.7 655.5,-226.7 655.5,-203.7 420.5,-203.7"/>
<polygon fill="none" stroke="#000000" points="420.5,-203.7 420.5,-226.7 655.5,-226.7 655.5,-203.7 420.5,-203.7"/>
<text text-anchor="start" x="425.5" y="-212.3" font-family="Helvetica,sans-Serif" font-weight="bold" font-size="11.00" fill="#000000">patient_tracker_element</text>
<text text-anchor="start" x="620.5437" y="-211.8" font-family="Helvetica,sans-Serif" font-size="11.00" fill="#000000">[table]</text>
<polygon fill="#ffffff" stroke="transparent" points="420.5,-181.7 420.5,-203.7 588.5,-203.7 588.5,-181.7 420.5,-181.7"/>
<polygon fill="none" stroke="#000000" points="420.5,-181.7 420.5,-203.7 588.5,-203.7 588.5,-181.7 420.5,-181.7"/>
<image xlink:href="../../images/foreignKeys.png" width="11px" height="12px" preserveAspectRatio="xMinYMin meet" x="425.5" y="-198.7"/>
<text text-anchor="start" x="440.5" y="-188.8" font-family="Helvetica,sans-Serif" font-size="11.00" fill="#000000">pt_tracker_id</text>
<polygon fill="none" stroke="#000000" points="588.5,-181.7 588.5,-203.7 655.5,-203.7 655.5,-181.7 588.5,-181.7"/>
<text text-anchor="start" x="591.5" y="-189.4" font-family="Helvetica,sans-Serif" font-size="11.00" fill="#000000">bigint[19]</text>
<polygon fill="none" stroke="#000000" points="420.5,-159.7 420.5,-181.7 588.5,-181.7 588.5,-159.7 420.5,-159.7"/>
<text text-anchor="start" x="440.5" y="-166.8" font-family="Helvetica,sans-Serif" font-size="11.00" fill="#000000">start_datetime</text>
<polygon fill="none" stroke="#000000" points="588.5,-159.7 588.5,-181.7 655.5,-181.7 655.5,-159.7 588.5,-159.7"/>
<text text-anchor="start" x="591.5" y="-167.4" font-family="Helvetica,sans-Serif" font-size="11.00" fill="#000000">datetime[19]</text>
<polygon fill="none" stroke="#000000" points="420.5,-137.7 420.5,-159.7 588.5,-159.7 588.5,-137.7 420.5,-137.7"/>
<image xlink:href="../../images/foreignKeys.png" width="11px" height="12px" preserveAspectRatio="xMinYMin meet" x="425.5" y="-154.7"/>
<text text-anchor="start" x="440.5" y="-144.8" font-family="Helvetica,sans-Serif" font-size="11.00" fill="#000000">room</text>
<polygon fill="none" stroke="#000000" points="588.5,-137.7 588.5,-159.7 655.5,-159.7 655.5,-137.7 588.5,-137.7"/>
<text text-anchor="start" x="591.5" y="-145.4" font-family="Helvetica,sans-Serif" font-size="11.00" fill="#000000">varchar[20]</text>
<polygon fill="none" stroke="#000000" points="420.5,-115.7 420.5,-137.7 588.5,-137.7 588.5,-115.7 420.5,-115.7"/>
<image xlink:href="../../images/foreignKeys.png" width="11px" height="12px" preserveAspectRatio="xMinYMin meet" x="425.5" y="-132.7"/>
<text text-anchor="start" x="440.5" y="-122.8" font-family="Helvetica,sans-Serif" font-size="11.00" fill="#000000">status</text>
<polygon fill="none" stroke="#000000" points="588.5,-115.7 588.5,-137.7 655.5,-137.7 655.5,-115.7 588.5,-115.7"/>
<text text-anchor="start" x="591.5" y="-123.4" font-family="Helvetica,sans-Serif" font-size="11.00" fill="#000000">varchar[31]</text>
<polygon fill="#ffffff" stroke="transparent" points="420.5,-93.7 420.5,-115.7 588.5,-115.7 588.5,-93.7 420.5,-93.7"/>
<polygon fill="none" stroke="#000000" points="420.5,-93.7 420.5,-115.7 588.5,-115.7 588.5,-93.7 420.5,-93.7"/>
<text text-anchor="start" x="440.5" y="-100.8" font-family="Helvetica,sans-Serif" font-size="11.00" fill="#000000">seq</text>
<polygon fill="none" stroke="#000000" points="588.5,-93.7 588.5,-115.7 655.5,-115.7 655.5,-93.7 588.5,-93.7"/>
<text text-anchor="start" x="591.5" y="-101.4" font-family="Helvetica,sans-Serif" font-size="11.00" fill="#000000">varchar[4]</text>
<polygon fill="none" stroke="#000000" points="420.5,-71.7 420.5,-93.7 588.5,-93.7 588.5,-71.7 420.5,-71.7"/>
<image xlink:href="../../images/foreignKeys.png" width="11px" height="12px" preserveAspectRatio="xMinYMin meet" x="425.5" y="-88.7"/>
<text text-anchor="start" x="440.5" y="-78.8" font-family="Helvetica,sans-Serif" font-size="11.00" fill="#000000">user</text>
<polygon fill="none" stroke="#000000" points="588.5,-71.7 588.5,-93.7 655.5,-93.7 655.5,-71.7 588.5,-71.7"/>
<text text-anchor="start" x="591.4365" y="-79.4" font-family="Helvetica,sans-Serif" font-size="11.00" fill="#000000">varchar[255]</text>
<polygon fill="#ffffff" stroke="transparent" points="420.5,-52.7 420.5,-71.7 508.5,-71.7 508.5,-52.7 420.5,-52.7"/>
<polygon fill="none" stroke="#000000" points="420.5,-52.7 420.5,-71.7 508.5,-71.7 508.5,-52.7 420.5,-52.7"/>
<text text-anchor="start" x="423.5" y="-58.8" font-family="Helvetica,sans-Serif" font-size="11.00" fill="#000000">&lt; 4</text>
<polygon fill="#ffffff" stroke="transparent" points="508.5,-52.7 508.5,-71.7 588.5,-71.7 588.5,-52.7 508.5,-52.7"/>
<polygon fill="none" stroke="#000000" points="508.5,-52.7 508.5,-71.7 588.5,-71.7 588.5,-52.7 508.5,-52.7"/>
<text text-anchor="start" x="579.3862" y="-58.8" font-family="Helvetica,sans-Serif" font-size="11.00" fill="#000000"> &#160;</text>
<polygon fill="#ffffff" stroke="transparent" points="588.5,-52.7 588.5,-71.7 655.5,-71.7 655.5,-52.7 588.5,-52.7"/>
<polygon fill="none" stroke="#000000" points="588.5,-52.7 588.5,-71.7 655.5,-71.7 655.5,-52.7 588.5,-52.7"/>
<text text-anchor="start" x="636.9053" y="-58.8" font-family="Helvetica,sans-Serif" font-size="11.00" fill="#000000">0 &gt;</text>
<polygon fill="none" stroke="#000000" stroke-width="2" points="419,-51.7 419,-227.7 656,-227.7 656,-51.7 419,-51.7"/>
</a>
</g>
</g>
<!-- patient_tracker_element&#45;&gt;patient_tracker -->
<g id="edge2" class="edge">
<title>patient_tracker_element:w&#45;&gt;patient_tracker:e</title>
<path fill="none" stroke="#000000" d="M406.0644,-195.4597C360.3391,-216.5733 437.4779,-351.7 369,-351.7"/>
<polygon fill="#000000" stroke="#000000" points="412.6423,-194.2022 421.176,-196.236 416.5712,-193.4511 420.5,-192.7 420.5,-192.7 420.5,-192.7 416.5712,-193.4511 419.824,-189.164 412.6423,-194.2022 412.6423,-194.2022"/>
<ellipse fill="none" stroke="#000000" cx="409.4992" cy="-194.8031" rx="3.2" ry="3.2"/>
</g>
<!-- patient_tracker_element&#45;&gt;users -->
<g id="edge5" class="edge">
<title>patient_tracker_element:w&#45;&gt;users:e</title>
<path fill="none" stroke="#000000" d="M406.0219,-81.9846C396.8617,-81.0109 390.4852,-79.3187 377,-78.7 297.972,-75.0742 265.0178,-35.1085 199,-78.7 160.2836,-104.2644 204.395,-174.7 158,-174.7"/>
<polygon fill="#000000" stroke="#000000" points="412.5097,-82.3051 420.3223,-86.2956 416.5049,-82.5026 420.5,-82.7 420.5,-82.7 420.5,-82.7 416.5049,-82.5026 420.6777,-79.1044 412.5097,-82.3051 412.5097,-82.3051"/>
<ellipse fill="none" stroke="#000000" cx="409.3136" cy="-82.1472" rx="3.2" ry="3.2"/>
</g>
<!-- list_options -->
<g id="node4" class="node">
<title>list_options</title>
<g id="a_node4"><a xlink:href="../../tables/list_options.html" xlink:title="list_options" target="_top">
<polygon fill="#ffffff" stroke="transparent" points="229,-89.2 229,-194.2 347,-194.2 347,-89.2 229,-89.2"/>
<polygon fill="#f5f5f5" stroke="transparent" points="229,-170.7 229,-193.7 347,-193.7 347,-170.7 229,-170.7"/>
<polygon fill="none" stroke="#000000" points="229,-170.7 229,-193.7 347,-193.7 347,-170.7 229,-170.7"/>
<text text-anchor="start" x="234" y="-179.3" font-family="Helvetica,sans-Serif" font-weight="bold" font-size="11.00" fill="#000000">list_options</text>
<text text-anchor="start" x="312.0437" y="-178.8" font-family="Helvetica,sans-Serif" font-size="11.00" fill="#000000">[table]</text>
<polygon fill="none" stroke="#000000" points="229,-148.7 229,-170.7 347,-170.7 347,-148.7 229,-148.7"/>
<image xlink:href="../../images/primaryKeys.png" width="11px" height="12px" preserveAspectRatio="xMinYMin meet" x="234" y="-165.7"/>
<text text-anchor="start" x="249" y="-155.8" font-family="Helvetica,sans-Serif" font-size="11.00" fill="#000000">list_id</text>
<polygon fill="none" stroke="#000000" points="229,-126.7 229,-148.7 347,-148.7 347,-126.7 229,-126.7"/>
<image xlink:href="../../images/primaryKeys.png" width="11px" height="12px" preserveAspectRatio="xMinYMin meet" x="234" y="-143.7"/>
<text text-anchor="start" x="249" y="-133.8" font-family="Helvetica,sans-Serif" font-size="11.00" fill="#000000">option_id</text>
<polygon fill="none" stroke="#000000" points="229,-107.7 229,-126.7 347,-126.7 347,-107.7 229,-107.7"/>
<text text-anchor="start" x="232" y="-113.8" font-family="Helvetica,sans-Serif" font-size="11.00" fill="#000000">...</text>
<polygon fill="#ffffff" stroke="transparent" points="229,-88.7 229,-107.7 274,-107.7 274,-88.7 229,-88.7"/>
<polygon fill="none" stroke="#000000" points="229,-88.7 229,-107.7 274,-107.7 274,-88.7 229,-88.7"/>
<text text-anchor="start" x="232" y="-94.8" font-family="Helvetica,sans-Serif" font-size="11.00" fill="#000000"> &#160;</text>
<polygon fill="#ffffff" stroke="transparent" points="274,-88.7 274,-107.7 303,-107.7 303,-88.7 274,-88.7"/>
<polygon fill="none" stroke="#000000" points="274,-88.7 274,-107.7 303,-107.7 303,-88.7 274,-88.7"/>
<text text-anchor="start" x="293.8862" y="-94.8" font-family="Helvetica,sans-Serif" font-size="11.00" fill="#000000"> &#160;</text>
<polygon fill="#ffffff" stroke="transparent" points="303,-88.7 303,-107.7 347,-107.7 347,-88.7 303,-88.7"/>
<polygon fill="none" stroke="#000000" points="303,-88.7 303,-107.7 347,-107.7 347,-88.7 303,-88.7"/>
<text text-anchor="start" x="322.2904" y="-94.8" font-family="Helvetica,sans-Serif" font-size="11.00" fill="#000000">98 &gt;</text>
</a>
</g>
</g>
<!-- patient_tracker_element&#45;&gt;list_options -->
<g id="edge3" class="edge">
<title>patient_tracker_element:w&#45;&gt;list_options:e</title>
<path fill="none" stroke="#000000" d="M406.0833,-147.9089C384.3398,-145.3867 374.6114,-137.7 347,-137.7"/>
<polygon fill="#000000" stroke="#000000" points="412.512,-148.2616 420.3027,-152.2946 416.506,-148.4808 420.5,-148.7 420.5,-148.7 420.5,-148.7 416.506,-148.4808 420.6973,-145.1054 412.512,-148.2616 412.512,-148.2616"/>
<ellipse fill="none" stroke="#000000" cx="409.3168" cy="-148.0863" rx="3.2" ry="3.2"/>
</g>
<!-- patient_tracker_element&#45;&gt;list_options -->
<g id="edge4" class="edge">
<title>patient_tracker_element:w&#45;&gt;list_options:e</title>
<path fill="none" stroke="#000000" d="M406.0833,-127.4911C384.3398,-130.0133 374.6114,-137.7 347,-137.7"/>
<polygon fill="#000000" stroke="#000000" points="412.512,-127.1384 420.6973,-130.2946 416.506,-126.9192 420.5,-126.7 420.5,-126.7 420.5,-126.7 416.506,-126.9192 420.3027,-123.1054 412.512,-127.1384 412.512,-127.1384"/>
<ellipse fill="none" stroke="#000000" cx="409.3168" cy="-127.3137" rx="3.2" ry="3.2"/>
</g>
</g>
</svg>
