<?xml version="1.0" encoding="UTF-8" standalone="no"?>
<!DOCTYPE svg PUBLIC "-//W3C//DTD SVG 1.1//EN"
 "http://www.w3.org/Graphics/SVG/1.1/DTD/svg11.dtd">
<!-- Generated by graphviz version 2.40.1 (20161225.0304)
 -->
<!-- Title: oneDegreeRelationshipsDiagram Pages: 1 -->
<svg width="182pt" height="338pt"
 viewBox="0.00 0.00 182.00 338.20" xmlns="http://www.w3.org/2000/svg" xmlns:xlink="http://www.w3.org/1999/xlink">
<g id="graph0" class="graph" transform="scale(1 1) rotate(0) translate(4 334.2)">
<title>oneDegreeRelationshipsDiagram</title>
<polygon fill="#ffffff" stroke="transparent" points="-4,4 -4,-334.2 178,-334.2 178,4 -4,4"/>
<text text-anchor="middle" x="72.4936" y="-7.3" font-family="Helvetica,sans-Serif" font-size="11.00" fill="#000000">Generated by SchemaSpy</text>
<!-- payments -->
<g id="node1" class="node">
<title>payments</title>
<g id="a_node1"><a xlink:href="../../tables/payments.html" xlink:title="payments" target="_top">
<polygon fill="#ffffff" stroke="transparent" points="8,-38.2 8,-326.2 166,-326.2 166,-38.2 8,-38.2"/>
<polygon fill="#f5f5f5" stroke="transparent" points="10,-301.2 10,-324.2 164,-324.2 164,-301.2 10,-301.2"/>
<polygon fill="none" stroke="#000000" points="10,-301.2 10,-324.2 164,-324.2 164,-301.2 10,-301.2"/>
<text text-anchor="start" x="15" y="-309.8" font-family="Helvetica,sans-Serif" font-weight="bold" font-size="11.00" fill="#000000">payments</text>
<text text-anchor="start" x="129.0437" y="-309.3" font-family="Helvetica,sans-Serif" font-size="11.00" fill="#000000">[table]</text>
<polygon fill="none" stroke="#000000" points="10,-279.2 10,-301.2 93,-301.2 93,-279.2 10,-279.2"/>
<image xlink:href="../../images/primaryKeys.png" width="11px" height="12px" preserveAspectRatio="xMinYMin meet" x="15" y="-296.2"/>
<text text-anchor="start" x="30" y="-286.3" font-family="Helvetica,sans-Serif" font-size="11.00" fill="#000000">id</text>
<polygon fill="none" stroke="#000000" points="93,-279.2 93,-301.2 164,-301.2 164,-279.2 93,-279.2"/>
<text text-anchor="start" x="96" y="-286.9" font-family="Helvetica,sans-Serif" font-size="11.00" fill="#000000">bigint[19]</text>
<polygon fill="#ffffff" stroke="transparent" points="10,-257.2 10,-279.2 93,-279.2 93,-257.2 10,-257.2"/>
<polygon fill="none" stroke="#000000" points="10,-257.2 10,-279.2 93,-279.2 93,-257.2 10,-257.2"/>
<text text-anchor="start" x="30" y="-264.3" font-family="Helvetica,sans-Serif" font-size="11.00" fill="#000000">pid</text>
<polygon fill="none" stroke="#000000" points="93,-257.2 93,-279.2 164,-279.2 164,-257.2 93,-257.2"/>
<text text-anchor="start" x="96" y="-264.9" font-family="Helvetica,sans-Serif" font-size="11.00" fill="#000000">bigint[19]</text>
<polygon fill="none" stroke="#000000" points="10,-235.2 10,-257.2 93,-257.2 93,-235.2 10,-235.2"/>
<text text-anchor="start" x="30" y="-242.3" font-family="Helvetica,sans-Serif" font-size="11.00" fill="#000000">dtime</text>
<polygon fill="none" stroke="#000000" points="93,-235.2 93,-257.2 164,-257.2 164,-235.2 93,-235.2"/>
<text text-anchor="start" x="96" y="-242.9" font-family="Helvetica,sans-Serif" font-size="11.00" fill="#000000">datetime[19]</text>
<polygon fill="none" stroke="#000000" points="10,-213.2 10,-235.2 93,-235.2 93,-213.2 10,-213.2"/>
<text text-anchor="start" x="30" y="-220.3" font-family="Helvetica,sans-Serif" font-size="11.00" fill="#000000">encounter</text>
<polygon fill="none" stroke="#000000" points="93,-213.2 93,-235.2 164,-235.2 164,-213.2 93,-213.2"/>
<text text-anchor="start" x="96" y="-220.9" font-family="Helvetica,sans-Serif" font-size="11.00" fill="#000000">bigint[19]</text>
<polygon fill="none" stroke="#000000" points="10,-191.2 10,-213.2 93,-213.2 93,-191.2 10,-191.2"/>
<text text-anchor="start" x="30" y="-198.3" font-family="Helvetica,sans-Serif" font-size="11.00" fill="#000000">user</text>
<polygon fill="none" stroke="#000000" points="93,-191.2 93,-213.2 164,-213.2 164,-191.2 93,-191.2"/>
<text text-anchor="start" x="96" y="-198.9" font-family="Helvetica,sans-Serif" font-size="11.00" fill="#000000">varchar[255]</text>
<polygon fill="none" stroke="#000000" points="10,-169.2 10,-191.2 93,-191.2 93,-169.2 10,-169.2"/>
<text text-anchor="start" x="30" y="-176.3" font-family="Helvetica,sans-Serif" font-size="11.00" fill="#000000">method</text>
<polygon fill="none" stroke="#000000" points="93,-169.2 93,-191.2 164,-191.2 164,-169.2 93,-169.2"/>
<text text-anchor="start" x="96" y="-176.9" font-family="Helvetica,sans-Serif" font-size="11.00" fill="#000000">varchar[255]</text>
<polygon fill="none" stroke="#000000" points="10,-147.2 10,-169.2 93,-169.2 93,-147.2 10,-147.2"/>
<text text-anchor="start" x="30" y="-154.3" font-family="Helvetica,sans-Serif" font-size="11.00" fill="#000000">source</text>
<polygon fill="none" stroke="#000000" points="93,-147.2 93,-169.2 164,-169.2 164,-147.2 93,-147.2"/>
<text text-anchor="start" x="96" y="-154.9" font-family="Helvetica,sans-Serif" font-size="11.00" fill="#000000">varchar[255]</text>
<polygon fill="none" stroke="#000000" points="10,-125.2 10,-147.2 93,-147.2 93,-125.2 10,-125.2"/>
<text text-anchor="start" x="30" y="-132.3" font-family="Helvetica,sans-Serif" font-size="11.00" fill="#000000">amount1</text>
<polygon fill="none" stroke="#000000" points="93,-125.2 93,-147.2 164,-147.2 164,-125.2 93,-125.2"/>
<text text-anchor="start" x="95.7981" y="-132.9" font-family="Helvetica,sans-Serif" font-size="11.00" fill="#000000">decimal[12,2]</text>
<polygon fill="none" stroke="#000000" points="10,-103.2 10,-125.2 93,-125.2 93,-103.2 10,-103.2"/>
<text text-anchor="start" x="30" y="-110.3" font-family="Helvetica,sans-Serif" font-size="11.00" fill="#000000">amount2</text>
<polygon fill="none" stroke="#000000" points="93,-103.2 93,-125.2 164,-125.2 164,-103.2 93,-103.2"/>
<text text-anchor="start" x="95.7981" y="-110.9" font-family="Helvetica,sans-Serif" font-size="11.00" fill="#000000">decimal[12,2]</text>
<polygon fill="none" stroke="#000000" points="10,-81.2 10,-103.2 93,-103.2 93,-81.2 10,-81.2"/>
<text text-anchor="start" x="30" y="-88.3" font-family="Helvetica,sans-Serif" font-size="11.00" fill="#000000">posted1</text>
<polygon fill="none" stroke="#000000" points="93,-81.2 93,-103.2 164,-103.2 164,-81.2 93,-81.2"/>
<text text-anchor="start" x="95.7981" y="-88.9" font-family="Helvetica,sans-Serif" font-size="11.00" fill="#000000">decimal[12,2]</text>
<polygon fill="none" stroke="#000000" points="10,-59.2 10,-81.2 93,-81.2 93,-59.2 10,-59.2"/>
<text text-anchor="start" x="30" y="-66.3" font-family="Helvetica,sans-Serif" font-size="11.00" fill="#000000">posted2</text>
<polygon fill="none" stroke="#000000" points="93,-59.2 93,-81.2 164,-81.2 164,-59.2 93,-59.2"/>
<text text-anchor="start" x="95.7981" y="-66.9" font-family="Helvetica,sans-Serif" font-size="11.00" fill="#000000">decimal[12,2]</text>
<polygon fill="#ffffff" stroke="transparent" points="10,-40.2 10,-59.2 56,-59.2 56,-40.2 10,-40.2"/>
<polygon fill="none" stroke="#000000" points="10,-40.2 10,-59.2 56,-59.2 56,-40.2 10,-40.2"/>
<text text-anchor="start" x="13" y="-46.3" font-family="Helvetica,sans-Serif" font-size="11.00" fill="#000000">&lt; 0</text>
<polygon fill="#ffffff" stroke="transparent" points="56,-40.2 56,-59.2 93,-59.2 93,-40.2 56,-40.2"/>
<polygon fill="none" stroke="#000000" points="56,-40.2 56,-59.2 93,-59.2 93,-40.2 56,-40.2"/>
<text text-anchor="start" x="83.8862" y="-46.3" font-family="Helvetica,sans-Serif" font-size="11.00" fill="#000000"> &#160;</text>
<polygon fill="#ffffff" stroke="transparent" points="93,-40.2 93,-59.2 164,-59.2 164,-40.2 93,-40.2"/>
<polygon fill="none" stroke="#000000" points="93,-40.2 93,-59.2 164,-59.2 164,-40.2 93,-40.2"/>
<text text-anchor="start" x="145.4053" y="-46.3" font-family="Helvetica,sans-Serif" font-size="11.00" fill="#000000">0 &gt;</text>
<polygon fill="none" stroke="#000000" stroke-width="2" points="9,-39.2 9,-325.2 165,-325.2 165,-39.2 9,-39.2"/>
</a>
</g>
</g>
</g>
</svg>
