<?xml version="1.0" encoding="UTF-8" standalone="no"?>
<!DOCTYPE svg PUBLIC "-//W3C//DTD SVG 1.1//EN"
 "http://www.w3.org/Graphics/SVG/1.1/DTD/svg11.dtd">
<!-- Generated by graphviz version 2.40.1 (20161225.0304)
 -->
<!-- Title: oneDegreeRelationshipsDiagram Pages: 1 -->
<svg width="761pt" height="778pt"
 viewBox="0.00 0.00 761.00 777.63" xmlns="http://www.w3.org/2000/svg" xmlns:xlink="http://www.w3.org/1999/xlink">
<g id="graph0" class="graph" transform="scale(1 1) rotate(0) translate(4 773.6275)">
<title>oneDegreeRelationshipsDiagram</title>
<polygon fill="#ffffff" stroke="transparent" points="-4,4 -4,-773.6275 757,-773.6275 757,4 -4,4"/>
<text text-anchor="middle" x="72.4936" y="-7.3" font-family="Helvetica,sans-Serif" font-size="11.00" fill="#000000">Generated by SchemaSpy</text>
<!-- groups -->
<g id="node1" class="node">
<title>groups</title>
<g id="a_node1"><a xlink:href="../../tables/groups.html" xlink:title="groups" target="_top">
<polygon fill="#ffffff" stroke="transparent" points="291,-561.6275 291,-669.6275 371,-669.6275 371,-561.6275 291,-561.6275"/>
<polygon fill="#f5f5f5" stroke="transparent" points="291,-646.6275 291,-669.6275 371,-669.6275 371,-646.6275 291,-646.6275"/>
<polygon fill="none" stroke="#000000" points="291,-646.6275 291,-669.6275 371,-669.6275 371,-646.6275 291,-646.6275"/>
<text text-anchor="start" x="296" y="-655.2275" font-family="Helvetica,sans-Serif" font-weight="bold" font-size="11.00" fill="#000000">groups</text>
<text text-anchor="start" x="336.5219" y="-654.7275" font-family="Helvetica,sans-Serif" font-size="11.00" fill="#000000">[table]</text>
<polygon fill="none" stroke="#000000" points="291,-624.6275 291,-646.6275 371,-646.6275 371,-624.6275 291,-624.6275"/>
<image xlink:href="../../images/primaryKeys.png" width="11px" height="12px" preserveAspectRatio="xMinYMin meet" x="296" y="-641.627"/>
<text text-anchor="start" x="320" y="-631.7275" font-family="Helvetica,sans-Serif" font-size="11.00" fill="#000000">id</text>
<polygon fill="none" stroke="#000000" points="291,-602.6275 291,-624.6275 371,-624.6275 371,-602.6275 291,-602.6275"/>
<image xlink:href="../../images/primaryKeys.png" width="11px" height="12px" preserveAspectRatio="xMinYMin meet" x="296" y="-619.627"/>
<text text-anchor="start" x="320" y="-609.7275" font-family="Helvetica,sans-Serif" font-size="11.00" fill="#000000">name</text>
<polygon fill="none" stroke="#000000" points="291,-580.6275 291,-602.6275 371,-602.6275 371,-580.6275 291,-580.6275"/>
<image xlink:href="../../images/foreignKeys.png" width="11px" height="12px" preserveAspectRatio="xMinYMin meet" x="296" y="-597.627"/>
<text text-anchor="start" x="320" y="-587.7275" font-family="Helvetica,sans-Serif" font-size="11.00" fill="#000000">user</text>
<polygon fill="#ffffff" stroke="transparent" points="291,-561.6275 291,-580.6275 322,-580.6275 322,-561.6275 291,-561.6275"/>
<polygon fill="none" stroke="#000000" points="291,-561.6275 291,-580.6275 322,-580.6275 322,-561.6275 291,-561.6275"/>
<text text-anchor="start" x="294" y="-567.7275" font-family="Helvetica,sans-Serif" font-size="11.00" fill="#000000">&lt; 1</text>
<polygon fill="#ffffff" stroke="transparent" points="322,-561.6275 322,-580.6275 339,-580.6275 339,-561.6275 322,-561.6275"/>
<polygon fill="none" stroke="#000000" points="322,-561.6275 322,-580.6275 339,-580.6275 339,-561.6275 322,-561.6275"/>
<text text-anchor="start" x="329.8862" y="-567.7275" font-family="Helvetica,sans-Serif" font-size="11.00" fill="#000000"> &#160;</text>
<polygon fill="#ffffff" stroke="transparent" points="339,-561.6275 339,-580.6275 371,-580.6275 371,-561.6275 339,-561.6275"/>
<polygon fill="none" stroke="#000000" points="339,-561.6275 339,-580.6275 371,-580.6275 371,-561.6275 339,-561.6275"/>
<text text-anchor="start" x="346.2904" y="-567.7275" font-family="Helvetica,sans-Serif" font-size="11.00" fill="#000000">17 &gt;</text>
</a>
</g>
</g>
<!-- users -->
<g id="node2" class="node">
<title>users</title>
<g id="a_node2"><a xlink:href="../../tables/users.html" xlink:title="users" target="_top">
<polygon fill="#ffffff" stroke="transparent" points="8,-243.1275 8,-458.1275 158,-458.1275 158,-243.1275 8,-243.1275"/>
<polygon fill="#f5f5f5" stroke="transparent" points="8,-434.6275 8,-457.6275 158,-457.6275 158,-434.6275 8,-434.6275"/>
<polygon fill="none" stroke="#000000" points="8,-434.6275 8,-457.6275 158,-457.6275 158,-434.6275 8,-434.6275"/>
<text text-anchor="start" x="13" y="-443.2275" font-family="Helvetica,sans-Serif" font-weight="bold" font-size="11.00" fill="#000000">users</text>
<text text-anchor="start" x="123.0437" y="-442.7275" font-family="Helvetica,sans-Serif" font-size="11.00" fill="#000000">[table]</text>
<polygon fill="none" stroke="#000000" points="8,-412.6275 8,-434.6275 158,-434.6275 158,-412.6275 8,-412.6275"/>
<image xlink:href="../../images/primaryKeys.png" width="11px" height="12px" preserveAspectRatio="xMinYMin meet" x="13" y="-429.627"/>
<text text-anchor="start" x="28" y="-419.7275" font-family="Helvetica,sans-Serif" font-size="11.00" fill="#000000">id</text>
<polygon fill="#ffffff" stroke="transparent" points="8,-390.6275 8,-412.6275 158,-412.6275 158,-390.6275 8,-390.6275"/>
<polygon fill="none" stroke="#000000" points="8,-390.6275 8,-412.6275 158,-412.6275 158,-390.6275 8,-390.6275"/>
<text text-anchor="start" x="28" y="-397.7275" font-family="Helvetica,sans-Serif" font-size="11.00" fill="#000000">uuid</text>
<polygon fill="none" stroke="#000000" points="8,-368.6275 8,-390.6275 158,-390.6275 158,-368.6275 8,-368.6275"/>
<image xlink:href="../../images/primaryKeys.png" width="11px" height="12px" preserveAspectRatio="xMinYMin meet" x="13" y="-385.627"/>
<text text-anchor="start" x="28" y="-375.7275" font-family="Helvetica,sans-Serif" font-size="11.00" fill="#000000">username</text>
<polygon fill="none" stroke="#000000" points="8,-346.6275 8,-368.6275 158,-368.6275 158,-346.6275 8,-346.6275"/>
<image xlink:href="../../images/foreignKeys.png" width="11px" height="12px" preserveAspectRatio="xMinYMin meet" x="13" y="-363.627"/>
<text text-anchor="start" x="28" y="-353.7275" font-family="Helvetica,sans-Serif" font-size="11.00" fill="#000000">facility_id</text>
<polygon fill="#ffffff" stroke="transparent" points="8,-324.6275 8,-346.6275 158,-346.6275 158,-324.6275 8,-324.6275"/>
<polygon fill="none" stroke="#000000" points="8,-324.6275 8,-346.6275 158,-346.6275 158,-324.6275 8,-324.6275"/>
<text text-anchor="start" x="28" y="-331.7275" font-family="Helvetica,sans-Serif" font-size="11.00" fill="#000000">google_signin_email</text>
<polygon fill="#ffffff" stroke="transparent" points="8,-302.6275 8,-324.6275 158,-324.6275 158,-302.6275 8,-302.6275"/>
<polygon fill="none" stroke="#000000" points="8,-302.6275 8,-324.6275 158,-324.6275 158,-302.6275 8,-302.6275"/>
<text text-anchor="start" x="28" y="-309.7275" font-family="Helvetica,sans-Serif" font-size="11.00" fill="#000000">abook_type</text>
<polygon fill="none" stroke="#000000" points="8,-280.6275 8,-302.6275 158,-302.6275 158,-280.6275 8,-280.6275"/>
<image xlink:href="../../images/foreignKeys.png" width="11px" height="12px" preserveAspectRatio="xMinYMin meet" x="13" y="-297.627"/>
<text text-anchor="start" x="28" y="-287.7275" font-family="Helvetica,sans-Serif" font-size="11.00" fill="#000000">billing_facility_id</text>
<polygon fill="none" stroke="#000000" points="8,-261.6275 8,-280.6275 158,-280.6275 158,-261.6275 8,-261.6275"/>
<text text-anchor="start" x="11" y="-267.7275" font-family="Helvetica,sans-Serif" font-size="11.00" fill="#000000">...</text>
<polygon fill="#ffffff" stroke="transparent" points="8,-242.6275 8,-261.6275 74,-261.6275 74,-242.6275 8,-242.6275"/>
<polygon fill="none" stroke="#000000" points="8,-242.6275 8,-261.6275 74,-261.6275 74,-242.6275 8,-242.6275"/>
<text text-anchor="start" x="11" y="-248.7275" font-family="Helvetica,sans-Serif" font-size="11.00" fill="#000000">&lt; 2</text>
<polygon fill="#ffffff" stroke="transparent" points="74,-242.6275 74,-261.6275 108,-261.6275 108,-242.6275 74,-242.6275"/>
<polygon fill="none" stroke="#000000" points="74,-242.6275 74,-261.6275 108,-261.6275 108,-242.6275 74,-242.6275"/>
<text text-anchor="start" x="98.8862" y="-248.7275" font-family="Helvetica,sans-Serif" font-size="11.00" fill="#000000"> &#160;</text>
<polygon fill="#ffffff" stroke="transparent" points="108,-242.6275 108,-261.6275 158,-261.6275 158,-242.6275 108,-242.6275"/>
<polygon fill="none" stroke="#000000" points="108,-242.6275 108,-261.6275 158,-261.6275 158,-242.6275 108,-242.6275"/>
<text text-anchor="start" x="133.2904" y="-248.7275" font-family="Helvetica,sans-Serif" font-size="11.00" fill="#000000">91 &gt;</text>
</a>
</g>
</g>
<!-- groups&#45;&gt;users -->
<g id="edge1" class="edge">
<title>groups:w&#45;&gt;users:e</title>
<path fill="none" stroke="#000000" d="M276.5899,-591.2626C241.4393,-589.292 224.3347,-578.8269 199,-547.6275 150.551,-487.963 234.8581,-379.6275 158,-379.6275"/>
<polygon fill="#000000" stroke="#000000" points="283.0026,-591.4249 290.9089,-595.2263 287.0013,-591.5262 291,-591.6275 291,-591.6275 291,-591.6275 287.0013,-591.5262 291.0911,-588.0286 283.0026,-591.4249 283.0026,-591.4249"/>
<ellipse fill="none" stroke="#000000" cx="279.8036" cy="-591.3439" rx="3.2" ry="3.2"/>
</g>
<!-- patient_data -->
<g id="node3" class="node">
<title>patient_data</title>
<g id="a_node3"><a xlink:href="../../tables/patient_data.html" xlink:title="patient_data" target="_top">
<polygon fill="#ffffff" stroke="transparent" points="207,-95.1275 207,-486.1275 455,-486.1275 455,-95.1275 207,-95.1275"/>
<polygon fill="#f5f5f5" stroke="transparent" points="207,-462.6275 207,-485.6275 455,-485.6275 455,-462.6275 207,-462.6275"/>
<polygon fill="none" stroke="#000000" points="207,-462.6275 207,-485.6275 455,-485.6275 455,-462.6275 207,-462.6275"/>
<text text-anchor="start" x="212" y="-471.2275" font-family="Helvetica,sans-Serif" font-weight="bold" font-size="11.00" fill="#000000">patient_data</text>
<text text-anchor="start" x="420.0437" y="-470.7275" font-family="Helvetica,sans-Serif" font-size="11.00" fill="#000000">[table]</text>
<polygon fill="none" stroke="#000000" points="207,-440.6275 207,-462.6275 455,-462.6275 455,-440.6275 207,-440.6275"/>
<image xlink:href="../../images/primaryKeys.png" width="11px" height="12px" preserveAspectRatio="xMinYMin meet" x="212" y="-457.627"/>
<text text-anchor="start" x="227" y="-447.7275" font-family="Helvetica,sans-Serif" font-size="11.00" fill="#000000">id</text>
<polygon fill="#ffffff" stroke="transparent" points="207,-418.6275 207,-440.6275 455,-440.6275 455,-418.6275 207,-418.6275"/>
<polygon fill="none" stroke="#000000" points="207,-418.6275 207,-440.6275 455,-440.6275 455,-418.6275 207,-418.6275"/>
<text text-anchor="start" x="227" y="-425.7275" font-family="Helvetica,sans-Serif" font-size="11.00" fill="#000000">uuid</text>
<polygon fill="#ffffff" stroke="transparent" points="207,-396.6275 207,-418.6275 455,-418.6275 455,-396.6275 207,-396.6275"/>
<polygon fill="none" stroke="#000000" points="207,-396.6275 207,-418.6275 455,-418.6275 455,-396.6275 207,-396.6275"/>
<text text-anchor="start" x="227" y="-403.7275" font-family="Helvetica,sans-Serif" font-size="11.00" fill="#000000">fname</text>
<polygon fill="#ffffff" stroke="transparent" points="207,-374.6275 207,-396.6275 455,-396.6275 455,-374.6275 207,-374.6275"/>
<polygon fill="none" stroke="#000000" points="207,-374.6275 207,-396.6275 455,-396.6275 455,-374.6275 207,-374.6275"/>
<text text-anchor="start" x="227" y="-381.7275" font-family="Helvetica,sans-Serif" font-size="11.00" fill="#000000">lname</text>
<polygon fill="#ffffff" stroke="transparent" points="207,-352.6275 207,-374.6275 455,-374.6275 455,-352.6275 207,-352.6275"/>
<polygon fill="none" stroke="#000000" points="207,-352.6275 207,-374.6275 455,-374.6275 455,-352.6275 207,-352.6275"/>
<text text-anchor="start" x="227" y="-359.7275" font-family="Helvetica,sans-Serif" font-size="11.00" fill="#000000">DOB</text>
<polygon fill="none" stroke="#000000" points="207,-330.6275 207,-352.6275 455,-352.6275 455,-330.6275 207,-330.6275"/>
<image xlink:href="../../images/foreignKeys.png" width="11px" height="12px" preserveAspectRatio="xMinYMin meet" x="212" y="-347.627"/>
<text text-anchor="start" x="227" y="-337.7275" font-family="Helvetica,sans-Serif" font-size="11.00" fill="#000000">pharmacy_id</text>
<polygon fill="none" stroke="#000000" points="207,-308.6275 207,-330.6275 455,-330.6275 455,-308.6275 207,-308.6275"/>
<image xlink:href="../../images/foreignKeys.png" width="11px" height="12px" preserveAspectRatio="xMinYMin meet" x="212" y="-325.627"/>
<text text-anchor="start" x="227" y="-315.7275" font-family="Helvetica,sans-Serif" font-size="11.00" fill="#000000">providerID</text>
<polygon fill="none" stroke="#000000" points="207,-286.6275 207,-308.6275 455,-308.6275 455,-286.6275 207,-286.6275"/>
<image xlink:href="../../images/foreignKeys.png" width="11px" height="12px" preserveAspectRatio="xMinYMin meet" x="212" y="-303.627"/>
<text text-anchor="start" x="227" y="-293.7275" font-family="Helvetica,sans-Serif" font-size="11.00" fill="#000000">ref_providerID</text>
<polygon fill="none" stroke="#000000" points="207,-264.6275 207,-286.6275 455,-286.6275 455,-264.6275 207,-264.6275"/>
<image xlink:href="../../images/primaryKeys.png" width="11px" height="12px" preserveAspectRatio="xMinYMin meet" x="212" y="-281.627"/>
<text text-anchor="start" x="227" y="-271.7275" font-family="Helvetica,sans-Serif" font-size="11.00" fill="#000000">pid</text>
<polygon fill="none" stroke="#000000" points="207,-242.6275 207,-264.6275 455,-264.6275 455,-242.6275 207,-242.6275"/>
<image xlink:href="../../images/foreignKeys.png" width="11px" height="12px" preserveAspectRatio="xMinYMin meet" x="212" y="-259.627"/>
<text text-anchor="start" x="227" y="-249.7275" font-family="Helvetica,sans-Serif" font-size="11.00" fill="#000000">created_by</text>
<polygon fill="none" stroke="#000000" points="207,-220.6275 207,-242.6275 455,-242.6275 455,-220.6275 207,-220.6275"/>
<image xlink:href="../../images/foreignKeys.png" width="11px" height="12px" preserveAspectRatio="xMinYMin meet" x="212" y="-237.627"/>
<text text-anchor="start" x="227" y="-227.7275" font-family="Helvetica,sans-Serif" font-size="11.00" fill="#000000">updated_by</text>
<polygon fill="none" stroke="#000000" points="207,-198.6275 207,-220.6275 455,-220.6275 455,-198.6275 207,-198.6275"/>
<image xlink:href="../../images/foreignKeys.png" width="11px" height="12px" preserveAspectRatio="xMinYMin meet" x="212" y="-215.627"/>
<text text-anchor="start" x="227" y="-205.7275" font-family="Helvetica,sans-Serif" font-size="11.00" fill="#000000">tribal_affiliations</text>
<polygon fill="none" stroke="#000000" points="207,-176.6275 207,-198.6275 455,-198.6275 455,-176.6275 207,-176.6275"/>
<image xlink:href="../../images/foreignKeys.png" width="11px" height="12px" preserveAspectRatio="xMinYMin meet" x="212" y="-193.627"/>
<text text-anchor="start" x="227" y="-183.7275" font-family="Helvetica,sans-Serif" font-size="11.00" fill="#000000">sex_identified</text>
<polygon fill="none" stroke="#000000" points="207,-154.6275 207,-176.6275 455,-176.6275 455,-154.6275 207,-154.6275"/>
<image xlink:href="../../images/foreignKeys.png" width="11px" height="12px" preserveAspectRatio="xMinYMin meet" x="212" y="-171.627"/>
<text text-anchor="start" x="227" y="-161.7275" font-family="Helvetica,sans-Serif" font-size="11.00" fill="#000000">interpreter_needed</text>
<polygon fill="none" stroke="#000000" points="207,-132.6275 207,-154.6275 455,-154.6275 455,-132.6275 207,-132.6275"/>
<image xlink:href="../../images/foreignKeys.png" width="11px" height="12px" preserveAspectRatio="xMinYMin meet" x="212" y="-149.627"/>
<text text-anchor="start" x="227" y="-139.7275" font-family="Helvetica,sans-Serif" font-size="11.00" fill="#000000">advance_directive_user_authenticator</text>
<polygon fill="none" stroke="#000000" points="207,-113.6275 207,-132.6275 455,-132.6275 455,-113.6275 207,-113.6275"/>
<text text-anchor="start" x="210" y="-119.7275" font-family="Helvetica,sans-Serif" font-size="11.00" fill="#000000">...</text>
<polygon fill="#ffffff" stroke="transparent" points="207,-94.6275 207,-113.6275 322,-113.6275 322,-94.6275 207,-94.6275"/>
<polygon fill="none" stroke="#000000" points="207,-94.6275 207,-113.6275 322,-113.6275 322,-94.6275 207,-94.6275"/>
<text text-anchor="start" x="210" y="-100.7275" font-family="Helvetica,sans-Serif" font-size="11.00" fill="#000000">&lt; 9</text>
<polygon fill="#ffffff" stroke="transparent" points="322,-94.6275 322,-113.6275 381,-113.6275 381,-94.6275 322,-94.6275"/>
<polygon fill="none" stroke="#000000" points="322,-94.6275 322,-113.6275 381,-113.6275 381,-94.6275 322,-94.6275"/>
<text text-anchor="start" x="371.8862" y="-100.7275" font-family="Helvetica,sans-Serif" font-size="11.00" fill="#000000"> &#160;</text>
<polygon fill="#ffffff" stroke="transparent" points="381,-94.6275 381,-113.6275 455,-113.6275 455,-94.6275 381,-94.6275"/>
<polygon fill="none" stroke="#000000" points="381,-94.6275 381,-113.6275 455,-113.6275 455,-94.6275 381,-94.6275"/>
<text text-anchor="start" x="430.2904" y="-100.7275" font-family="Helvetica,sans-Serif" font-size="11.00" fill="#000000">97 &gt;</text>
</a>
</g>
</g>
<!-- patient_data&#45;&gt;users -->
<g id="edge2" class="edge">
<title>patient_data:w&#45;&gt;users:e</title>
<path fill="none" stroke="#000000" d="M193.6492,-149.4757C156.0866,-189.6846 215.7393,-423.6275 158,-423.6275"/>
<polygon fill="#000000" stroke="#000000" points="199.6722,-146.8374 208.4445,-146.925 203.3361,-145.2324 207,-143.6275 207,-143.6275 207,-143.6275 203.3361,-145.2324 205.5555,-140.33 199.6722,-146.8374 199.6722,-146.8374"/>
<ellipse fill="none" stroke="#000000" cx="196.7411" cy="-148.1213" rx="3.2" ry="3.2"/>
</g>
<!-- patient_data&#45;&gt;users -->
<g id="edge3" class="edge">
<title>patient_data:w&#45;&gt;users:e</title>
<path fill="none" stroke="#000000" d="M192.7399,-256.1625C143.0399,-277.31 230.9492,-423.6275 158,-423.6275"/>
<polygon fill="#000000" stroke="#000000" points="199.1235,-255.0278 207.6301,-257.1719 203.0617,-254.3276 207,-253.6275 207,-253.6275 207,-253.6275 203.0617,-254.3276 206.3699,-250.083 199.1235,-255.0278 199.1235,-255.0278"/>
<ellipse fill="none" stroke="#000000" cx="195.9729" cy="-255.5879" rx="3.2" ry="3.2"/>
</g>
<!-- patient_data&#45;&gt;users -->
<g id="edge5" class="edge">
<title>patient_data:w&#45;&gt;users:e</title>
<path fill="none" stroke="#000000" d="M192.9975,-323.5774C166.9389,-342.5743 203.1079,-423.6275 158,-423.6275"/>
<polygon fill="#000000" stroke="#000000" points="199.3005,-321.7995 207.9774,-323.0923 203.1502,-320.7135 207,-319.6275 207,-319.6275 207,-319.6275 203.1502,-320.7135 206.0226,-316.1627 199.3005,-321.7995 199.3005,-321.7995"/>
<ellipse fill="none" stroke="#000000" cx="196.2207" cy="-322.6682" rx="3.2" ry="3.2"/>
</g>
<!-- patient_data&#45;&gt;users -->
<g id="edge6" class="edge">
<title>patient_data:w&#45;&gt;users:e</title>
<path fill="none" stroke="#000000" d="M192.9076,-300.9977C159.5633,-321.0352 212.2178,-423.6275 158,-423.6275"/>
<polygon fill="#000000" stroke="#000000" points="199.2194,-299.4882 207.8373,-301.1287 203.1097,-298.5579 207,-297.6275 207,-297.6275 207,-297.6275 203.1097,-298.5579 206.1627,-294.1262 199.2194,-299.4882 199.2194,-299.4882"/>
<ellipse fill="none" stroke="#000000" cx="196.1072" cy="-300.2326" rx="3.2" ry="3.2"/>
</g>
<!-- patient_data&#45;&gt;users -->
<g id="edge9" class="edge">
<title>patient_data:w&#45;&gt;users:e</title>
<path fill="none" stroke="#000000" d="M192.5379,-233.9175C134.4263,-255.5799 240.3921,-423.6275 158,-423.6275"/>
<polygon fill="#000000" stroke="#000000" points="199.0984,-232.8787 207.563,-235.1832 203.0492,-232.2531 207,-231.6275 207,-231.6275 207,-231.6275 203.0492,-232.2531 206.437,-228.0718 199.0984,-232.8787 199.0984,-232.8787"/>
<ellipse fill="none" stroke="#000000" cx="195.9378" cy="-233.3792" rx="3.2" ry="3.2"/>
</g>
<!-- list_options -->
<g id="node4" class="node">
<title>list_options</title>
<g id="a_node4"><a xlink:href="../../tables/list_options.html" xlink:title="list_options" target="_top">
<polygon fill="#ffffff" stroke="transparent" points="24,-117.1275 24,-222.1275 142,-222.1275 142,-117.1275 24,-117.1275"/>
<polygon fill="#f5f5f5" stroke="transparent" points="24,-198.6275 24,-221.6275 142,-221.6275 142,-198.6275 24,-198.6275"/>
<polygon fill="none" stroke="#000000" points="24,-198.6275 24,-221.6275 142,-221.6275 142,-198.6275 24,-198.6275"/>
<text text-anchor="start" x="29" y="-207.2275" font-family="Helvetica,sans-Serif" font-weight="bold" font-size="11.00" fill="#000000">list_options</text>
<text text-anchor="start" x="107.0437" y="-206.7275" font-family="Helvetica,sans-Serif" font-size="11.00" fill="#000000">[table]</text>
<polygon fill="none" stroke="#000000" points="24,-176.6275 24,-198.6275 142,-198.6275 142,-176.6275 24,-176.6275"/>
<image xlink:href="../../images/primaryKeys.png" width="11px" height="12px" preserveAspectRatio="xMinYMin meet" x="29" y="-193.627"/>
<text text-anchor="start" x="44" y="-183.7275" font-family="Helvetica,sans-Serif" font-size="11.00" fill="#000000">list_id</text>
<polygon fill="none" stroke="#000000" points="24,-154.6275 24,-176.6275 142,-176.6275 142,-154.6275 24,-154.6275"/>
<image xlink:href="../../images/primaryKeys.png" width="11px" height="12px" preserveAspectRatio="xMinYMin meet" x="29" y="-171.627"/>
<text text-anchor="start" x="44" y="-161.7275" font-family="Helvetica,sans-Serif" font-size="11.00" fill="#000000">option_id</text>
<polygon fill="none" stroke="#000000" points="24,-135.6275 24,-154.6275 142,-154.6275 142,-135.6275 24,-135.6275"/>
<text text-anchor="start" x="27" y="-141.7275" font-family="Helvetica,sans-Serif" font-size="11.00" fill="#000000">...</text>
<polygon fill="#ffffff" stroke="transparent" points="24,-116.6275 24,-135.6275 69,-135.6275 69,-116.6275 24,-116.6275"/>
<polygon fill="none" stroke="#000000" points="24,-116.6275 24,-135.6275 69,-135.6275 69,-116.6275 24,-116.6275"/>
<text text-anchor="start" x="27" y="-122.7275" font-family="Helvetica,sans-Serif" font-size="11.00" fill="#000000"> &#160;</text>
<polygon fill="#ffffff" stroke="transparent" points="69,-116.6275 69,-135.6275 98,-135.6275 98,-116.6275 69,-116.6275"/>
<polygon fill="none" stroke="#000000" points="69,-116.6275 69,-135.6275 98,-135.6275 98,-116.6275 69,-116.6275"/>
<text text-anchor="start" x="88.8862" y="-122.7275" font-family="Helvetica,sans-Serif" font-size="11.00" fill="#000000"> &#160;</text>
<polygon fill="#ffffff" stroke="transparent" points="98,-116.6275 98,-135.6275 142,-135.6275 142,-116.6275 98,-116.6275"/>
<polygon fill="none" stroke="#000000" points="98,-116.6275 98,-135.6275 142,-135.6275 142,-116.6275 98,-116.6275"/>
<text text-anchor="start" x="117.2904" y="-122.7275" font-family="Helvetica,sans-Serif" font-size="11.00" fill="#000000">98 &gt;</text>
</a>
</g>
</g>
<!-- patient_data&#45;&gt;list_options -->
<g id="edge4" class="edge">
<title>patient_data:w&#45;&gt;list_options:e</title>
<path fill="none" stroke="#000000" d="M192.4889,-165.6275C174.5526,-165.6275 165.3594,-165.6275 142,-165.6275"/>
<polygon fill="#000000" stroke="#000000" points="199,-165.6275 207,-169.2275 203,-165.6275 207,-165.6275 207,-165.6275 207,-165.6275 203,-165.6275 207,-162.0275 199,-165.6275 199,-165.6275"/>
<ellipse fill="none" stroke="#000000" cx="195.8" cy="-165.6276" rx="3.2" ry="3.2"/>
</g>
<!-- patient_data&#45;&gt;list_options -->
<g id="edge7" class="edge">
<title>patient_data:w&#45;&gt;list_options:e</title>
<path fill="none" stroke="#000000" d="M192.5532,-185.6751C174.1385,-180.2909 166.8994,-165.6275 142,-165.6275"/>
<polygon fill="#000000" stroke="#000000" points="199.0721,-186.556 206.5179,-191.195 203.036,-187.0918 207,-187.6275 207,-187.6275 207,-187.6275 203.036,-187.0918 207.4821,-184.0599 199.0721,-186.556 199.0721,-186.556"/>
<ellipse fill="none" stroke="#000000" cx="195.9009" cy="-186.1275" rx="3.2" ry="3.2"/>
</g>
<!-- patient_data&#45;&gt;list_options -->
<g id="edge8" class="edge">
<title>patient_data:w&#45;&gt;list_options:e</title>
<path fill="none" stroke="#000000" d="M192.6818,-206.4631C172.6126,-196.3743 171.162,-165.6275 142,-165.6275"/>
<polygon fill="#000000" stroke="#000000" points="199.1885,-207.9011 206.2231,-213.1427 203.0942,-208.7643 207,-209.6275 207,-209.6275 207,-209.6275 203.0942,-208.7643 207.7769,-206.1123 199.1885,-207.9011 199.1885,-207.9011"/>
<ellipse fill="none" stroke="#000000" cx="196.0639" cy="-207.2105" rx="3.2" ry="3.2"/>
</g>
<!-- pnotes -->
<g id="node5" class="node">
<title>pnotes</title>
<g id="a_node5"><a xlink:href="../../tables/pnotes.html" xlink:title="pnotes" target="_top">
<polygon fill="#ffffff" stroke="transparent" points="504,-367.6275 504,-765.6275 745,-765.6275 745,-367.6275 504,-367.6275"/>
<polygon fill="#f5f5f5" stroke="transparent" points="506.5,-740.6275 506.5,-763.6275 743.5,-763.6275 743.5,-740.6275 506.5,-740.6275"/>
<polygon fill="none" stroke="#000000" points="506.5,-740.6275 506.5,-763.6275 743.5,-763.6275 743.5,-740.6275 506.5,-740.6275"/>
<text text-anchor="start" x="511.5" y="-749.2275" font-family="Helvetica,sans-Serif" font-weight="bold" font-size="11.00" fill="#000000">pnotes</text>
<text text-anchor="start" x="708.5437" y="-748.7275" font-family="Helvetica,sans-Serif" font-size="11.00" fill="#000000">[table]</text>
<polygon fill="none" stroke="#000000" points="506.5,-718.6275 506.5,-740.6275 632.5,-740.6275 632.5,-718.6275 506.5,-718.6275"/>
<image xlink:href="../../images/primaryKeys.png" width="11px" height="12px" preserveAspectRatio="xMinYMin meet" x="511.5" y="-735.627"/>
<text text-anchor="start" x="526.5" y="-725.7275" font-family="Helvetica,sans-Serif" font-size="11.00" fill="#000000">id</text>
<polygon fill="none" stroke="#000000" points="632.5,-718.6275 632.5,-740.6275 743.5,-740.6275 743.5,-718.6275 632.5,-718.6275"/>
<text text-anchor="start" x="635.5" y="-726.3275" font-family="Helvetica,sans-Serif" font-size="11.00" fill="#000000">bigint[19]</text>
<polygon fill="none" stroke="#000000" points="506.5,-696.6275 506.5,-718.6275 632.5,-718.6275 632.5,-696.6275 506.5,-696.6275"/>
<text text-anchor="start" x="526.5" y="-703.7275" font-family="Helvetica,sans-Serif" font-size="11.00" fill="#000000">date</text>
<polygon fill="none" stroke="#000000" points="632.5,-696.6275 632.5,-718.6275 743.5,-718.6275 743.5,-696.6275 632.5,-696.6275"/>
<text text-anchor="start" x="635.5" y="-704.3275" font-family="Helvetica,sans-Serif" font-size="11.00" fill="#000000">datetime[19]</text>
<polygon fill="none" stroke="#000000" points="506.5,-674.6275 506.5,-696.6275 632.5,-696.6275 632.5,-674.6275 506.5,-674.6275"/>
<text text-anchor="start" x="526.5" y="-681.7275" font-family="Helvetica,sans-Serif" font-size="11.00" fill="#000000">body</text>
<polygon fill="none" stroke="#000000" points="632.5,-674.6275 632.5,-696.6275 743.5,-696.6275 743.5,-674.6275 632.5,-674.6275"/>
<text text-anchor="start" x="635.1115" y="-682.3275" font-family="Helvetica,sans-Serif" font-size="11.00" fill="#000000">longtext[2147483647]</text>
<polygon fill="#ffffff" stroke="transparent" points="506.5,-652.6275 506.5,-674.6275 632.5,-674.6275 632.5,-652.6275 506.5,-652.6275"/>
<polygon fill="none" stroke="#000000" points="506.5,-652.6275 506.5,-674.6275 632.5,-674.6275 632.5,-652.6275 506.5,-652.6275"/>
<image xlink:href="../../images/foreignKeys.png" width="11px" height="12px" preserveAspectRatio="xMinYMin meet" x="511.5" y="-669.627"/>
<text text-anchor="start" x="526.5" y="-659.7275" font-family="Helvetica,sans-Serif" font-size="11.00" fill="#000000">pid</text>
<polygon fill="none" stroke="#000000" points="632.5,-652.6275 632.5,-674.6275 743.5,-674.6275 743.5,-652.6275 632.5,-652.6275"/>
<text text-anchor="start" x="635.5" y="-660.3275" font-family="Helvetica,sans-Serif" font-size="11.00" fill="#000000">bigint[19]</text>
<polygon fill="none" stroke="#000000" points="506.5,-630.6275 506.5,-652.6275 632.5,-652.6275 632.5,-630.6275 506.5,-630.6275"/>
<image xlink:href="../../images/foreignKeys.png" width="11px" height="12px" preserveAspectRatio="xMinYMin meet" x="511.5" y="-647.627"/>
<text text-anchor="start" x="526.5" y="-637.7275" font-family="Helvetica,sans-Serif" font-size="11.00" fill="#000000">user</text>
<polygon fill="none" stroke="#000000" points="632.5,-630.6275 632.5,-652.6275 743.5,-652.6275 743.5,-630.6275 632.5,-630.6275"/>
<text text-anchor="start" x="635.5" y="-638.3275" font-family="Helvetica,sans-Serif" font-size="11.00" fill="#000000">varchar[255]</text>
<polygon fill="none" stroke="#000000" points="506.5,-608.6275 506.5,-630.6275 632.5,-630.6275 632.5,-608.6275 506.5,-608.6275"/>
<image xlink:href="../../images/foreignKeys.png" width="11px" height="12px" preserveAspectRatio="xMinYMin meet" x="511.5" y="-625.627"/>
<text text-anchor="start" x="526.5" y="-615.7275" font-family="Helvetica,sans-Serif" font-size="11.00" fill="#000000">groupname</text>
<polygon fill="none" stroke="#000000" points="632.5,-608.6275 632.5,-630.6275 743.5,-630.6275 743.5,-608.6275 632.5,-608.6275"/>
<text text-anchor="start" x="635.5" y="-616.3275" font-family="Helvetica,sans-Serif" font-size="11.00" fill="#000000">varchar[255]</text>
<polygon fill="none" stroke="#000000" points="506.5,-586.6275 506.5,-608.6275 632.5,-608.6275 632.5,-586.6275 506.5,-586.6275"/>
<text text-anchor="start" x="526.5" y="-593.7275" font-family="Helvetica,sans-Serif" font-size="11.00" fill="#000000">activity</text>
<polygon fill="none" stroke="#000000" points="632.5,-586.6275 632.5,-608.6275 743.5,-608.6275 743.5,-586.6275 632.5,-586.6275"/>
<text text-anchor="start" x="635.5" y="-594.3275" font-family="Helvetica,sans-Serif" font-size="11.00" fill="#000000">tinyint[3]</text>
<polygon fill="none" stroke="#000000" points="506.5,-564.6275 506.5,-586.6275 632.5,-586.6275 632.5,-564.6275 506.5,-564.6275"/>
<text text-anchor="start" x="526.5" y="-571.7275" font-family="Helvetica,sans-Serif" font-size="11.00" fill="#000000">authorized</text>
<polygon fill="none" stroke="#000000" points="632.5,-564.6275 632.5,-586.6275 743.5,-586.6275 743.5,-564.6275 632.5,-564.6275"/>
<text text-anchor="start" x="635.5" y="-572.3275" font-family="Helvetica,sans-Serif" font-size="11.00" fill="#000000">tinyint[3]</text>
<polygon fill="none" stroke="#000000" points="506.5,-542.6275 506.5,-564.6275 632.5,-564.6275 632.5,-542.6275 506.5,-542.6275"/>
<text text-anchor="start" x="526.5" y="-549.7275" font-family="Helvetica,sans-Serif" font-size="11.00" fill="#000000">title</text>
<polygon fill="none" stroke="#000000" points="632.5,-542.6275 632.5,-564.6275 743.5,-564.6275 743.5,-542.6275 632.5,-542.6275"/>
<text text-anchor="start" x="635.5" y="-550.3275" font-family="Helvetica,sans-Serif" font-size="11.00" fill="#000000">varchar[255]</text>
<polygon fill="none" stroke="#000000" points="506.5,-520.6275 506.5,-542.6275 632.5,-542.6275 632.5,-520.6275 506.5,-520.6275"/>
<image xlink:href="../../images/foreignKeys.png" width="11px" height="12px" preserveAspectRatio="xMinYMin meet" x="511.5" y="-537.627"/>
<text text-anchor="start" x="526.5" y="-527.7275" font-family="Helvetica,sans-Serif" font-size="11.00" fill="#000000">assigned_to</text>
<polygon fill="none" stroke="#000000" points="632.5,-520.6275 632.5,-542.6275 743.5,-542.6275 743.5,-520.6275 632.5,-520.6275"/>
<text text-anchor="start" x="635.5" y="-528.3275" font-family="Helvetica,sans-Serif" font-size="11.00" fill="#000000">varchar[255]</text>
<polygon fill="none" stroke="#000000" points="506.5,-498.6275 506.5,-520.6275 632.5,-520.6275 632.5,-498.6275 506.5,-498.6275"/>
<text text-anchor="start" x="526.5" y="-505.7275" font-family="Helvetica,sans-Serif" font-size="11.00" fill="#000000">deleted</text>
<polygon fill="none" stroke="#000000" points="632.5,-498.6275 632.5,-520.6275 743.5,-520.6275 743.5,-498.6275 632.5,-498.6275"/>
<text text-anchor="start" x="635.5" y="-506.3275" font-family="Helvetica,sans-Serif" font-size="11.00" fill="#000000">tinyint[3]</text>
<polygon fill="none" stroke="#000000" points="506.5,-476.6275 506.5,-498.6275 632.5,-498.6275 632.5,-476.6275 506.5,-476.6275"/>
<image xlink:href="../../images/foreignKeys.png" width="11px" height="12px" preserveAspectRatio="xMinYMin meet" x="511.5" y="-493.627"/>
<text text-anchor="start" x="526.5" y="-483.7275" font-family="Helvetica,sans-Serif" font-size="11.00" fill="#000000">message_status</text>
<polygon fill="none" stroke="#000000" points="632.5,-476.6275 632.5,-498.6275 743.5,-498.6275 743.5,-476.6275 632.5,-476.6275"/>
<text text-anchor="start" x="635.5" y="-484.3275" font-family="Helvetica,sans-Serif" font-size="11.00" fill="#000000">varchar[20]</text>
<polygon fill="none" stroke="#000000" points="506.5,-454.6275 506.5,-476.6275 632.5,-476.6275 632.5,-454.6275 506.5,-454.6275"/>
<text text-anchor="start" x="526.5" y="-461.7275" font-family="Helvetica,sans-Serif" font-size="11.00" fill="#000000">portal_relation</text>
<polygon fill="none" stroke="#000000" points="632.5,-454.6275 632.5,-476.6275 743.5,-476.6275 743.5,-454.6275 632.5,-454.6275"/>
<text text-anchor="start" x="635.5" y="-462.3275" font-family="Helvetica,sans-Serif" font-size="11.00" fill="#000000">varchar[100]</text>
<polygon fill="none" stroke="#000000" points="506.5,-432.6275 506.5,-454.6275 632.5,-454.6275 632.5,-432.6275 506.5,-432.6275"/>
<text text-anchor="start" x="526.5" y="-439.7275" font-family="Helvetica,sans-Serif" font-size="11.00" fill="#000000">is_msg_encrypted</text>
<polygon fill="none" stroke="#000000" points="632.5,-432.6275 632.5,-454.6275 743.5,-454.6275 743.5,-432.6275 632.5,-432.6275"/>
<text text-anchor="start" x="635.5" y="-440.3275" font-family="Helvetica,sans-Serif" font-size="11.00" fill="#000000">tinyint[3]</text>
<polygon fill="none" stroke="#000000" points="506.5,-410.6275 506.5,-432.6275 632.5,-432.6275 632.5,-410.6275 506.5,-410.6275"/>
<image xlink:href="../../images/foreignKeys.png" width="11px" height="12px" preserveAspectRatio="xMinYMin meet" x="511.5" y="-427.627"/>
<text text-anchor="start" x="526.5" y="-417.7275" font-family="Helvetica,sans-Serif" font-size="11.00" fill="#000000">update_by</text>
<polygon fill="none" stroke="#000000" points="632.5,-410.6275 632.5,-432.6275 743.5,-432.6275 743.5,-410.6275 632.5,-410.6275"/>
<text text-anchor="start" x="635.5" y="-418.3275" font-family="Helvetica,sans-Serif" font-size="11.00" fill="#000000">bigint[19]</text>
<polygon fill="none" stroke="#000000" points="506.5,-388.6275 506.5,-410.6275 632.5,-410.6275 632.5,-388.6275 506.5,-388.6275"/>
<text text-anchor="start" x="526.5" y="-395.7275" font-family="Helvetica,sans-Serif" font-size="11.00" fill="#000000">update_date</text>
<polygon fill="none" stroke="#000000" points="632.5,-388.6275 632.5,-410.6275 743.5,-410.6275 743.5,-388.6275 632.5,-388.6275"/>
<text text-anchor="start" x="635.5" y="-396.3275" font-family="Helvetica,sans-Serif" font-size="11.00" fill="#000000">datetime[19]</text>
<polygon fill="#ffffff" stroke="transparent" points="506.5,-369.6275 506.5,-388.6275 573.5,-388.6275 573.5,-369.6275 506.5,-369.6275"/>
<polygon fill="none" stroke="#000000" points="506.5,-369.6275 506.5,-388.6275 573.5,-388.6275 573.5,-369.6275 506.5,-369.6275"/>
<text text-anchor="start" x="509.5" y="-375.7275" font-family="Helvetica,sans-Serif" font-size="11.00" fill="#000000">&lt; 6</text>
<polygon fill="#ffffff" stroke="transparent" points="573.5,-369.6275 573.5,-388.6275 632.5,-388.6275 632.5,-369.6275 573.5,-369.6275"/>
<polygon fill="none" stroke="#000000" points="573.5,-369.6275 573.5,-388.6275 632.5,-388.6275 632.5,-369.6275 573.5,-369.6275"/>
<text text-anchor="start" x="623.3862" y="-375.7275" font-family="Helvetica,sans-Serif" font-size="11.00" fill="#000000"> &#160;</text>
<polygon fill="#ffffff" stroke="transparent" points="632.5,-369.6275 632.5,-388.6275 743.5,-388.6275 743.5,-369.6275 632.5,-369.6275"/>
<polygon fill="none" stroke="#000000" points="632.5,-369.6275 632.5,-388.6275 743.5,-388.6275 743.5,-369.6275 632.5,-369.6275"/>
<text text-anchor="start" x="724.9053" y="-375.7275" font-family="Helvetica,sans-Serif" font-size="11.00" fill="#000000">0 &gt;</text>
<polygon fill="none" stroke="#000000" stroke-width="2" points="505,-368.6275 505,-764.6275 744,-764.6275 744,-368.6275 505,-368.6275"/>
</a>
</g>
</g>
<!-- pnotes&#45;&gt;groups -->
<g id="edge11" class="edge">
<title>pnotes:w&#45;&gt;groups:e</title>
<path fill="none" stroke="#000000" d="M491.9058,-619.5022C443.3165,-618.6405 426.1008,-613.6275 371,-613.6275"/>
<polygon fill="#000000" stroke="#000000" points="498.5003,-619.5587 506.4691,-623.2273 502.5001,-619.5931 506.5,-619.6275 506.5,-619.6275 506.5,-619.6275 502.5001,-619.5931 506.5309,-616.0276 498.5003,-619.5587 498.5003,-619.5587"/>
<ellipse fill="none" stroke="#000000" cx="495.3004" cy="-619.5312" rx="3.2" ry="3.2"/>
</g>
<!-- pnotes&#45;&gt;users -->
<g id="edge10" class="edge">
<title>pnotes:w&#45;&gt;users:e</title>
<path fill="none" stroke="#000000" d="M491.9169,-531.9486C415.0822,-534.9339 251.6763,-556.9229 199,-520.6275 160.459,-494.0717 204.804,-423.6275 158,-423.6275"/>
<polygon fill="#000000" stroke="#000000" points="498.5019,-531.8037 506.5793,-535.2266 502.501,-531.7156 506.5,-531.6275 506.5,-531.6275 506.5,-531.6275 502.501,-531.7156 506.4207,-528.0283 498.5019,-531.8037 498.5019,-531.8037"/>
<ellipse fill="none" stroke="#000000" cx="495.3027" cy="-531.8741" rx="3.2" ry="3.2"/>
</g>
<!-- pnotes&#45;&gt;users -->
<g id="edge14" class="edge">
<title>pnotes:w&#45;&gt;users:e</title>
<path fill="none" stroke="#000000" d="M492.3722,-425.723C475.6288,-438.9424 490.9126,-480.5491 463,-496.6275 412.1641,-525.9104 249.632,-526.2616 199,-496.6275 166.8848,-477.831 195.2114,-423.6275 158,-423.6275"/>
<polygon fill="#000000" stroke="#000000" points="498.8163,-423.8549 507.5023,-425.0851 502.6582,-422.7412 506.5,-421.6275 506.5,-421.6275 506.5,-421.6275 502.6582,-422.7412 505.4977,-418.1698 498.8163,-423.8549 498.8163,-423.8549"/>
<ellipse fill="none" stroke="#000000" cx="495.7429" cy="-424.7459" rx="3.2" ry="3.2"/>
</g>
<!-- pnotes&#45;&gt;users -->
<g id="edge15" class="edge">
<title>pnotes:w&#45;&gt;users:e</title>
<path fill="none" stroke="#000000" d="M492.481,-646.1447C481.9713,-654.8244 481.3778,-673.5954 463,-680.6275 353.4151,-722.5592 288.2636,-756.7794 199,-680.6275 155.0022,-643.0924 215.8333,-423.6275 158,-423.6275"/>
<polygon fill="#000000" stroke="#000000" points="498.8855,-644.081 507.6041,-645.054 502.6928,-642.8543 506.5,-641.6275 506.5,-641.6275 506.5,-641.6275 502.6928,-642.8543 505.3959,-638.201 498.8855,-644.081 498.8855,-644.081"/>
<ellipse fill="none" stroke="#000000" cx="495.8397" cy="-645.0625" rx="3.2" ry="3.2"/>
</g>
<!-- pnotes&#45;&gt;patient_data -->
<g id="edge13" class="edge">
<title>pnotes:w&#45;&gt;patient_data:e</title>
<path fill="none" stroke="#000000" d="M492.5436,-659.2701C434.0106,-616.6431 536.5423,-275.6275 455,-275.6275"/>
<polygon fill="#000000" stroke="#000000" points="498.8635,-661.2432 505.4271,-667.0639 502.6818,-662.4353 506.5,-663.6275 506.5,-663.6275 506.5,-663.6275 502.6818,-662.4353 507.5729,-660.1911 498.8635,-661.2432 498.8635,-661.2432"/>
<ellipse fill="none" stroke="#000000" cx="495.809" cy="-660.2895" rx="3.2" ry="3.2"/>
</g>
<!-- pnotes&#45;&gt;list_options -->
<g id="edge12" class="edge">
<title>pnotes:w&#45;&gt;list_options:e</title>
<path fill="none" stroke="#000000" d="M492.2933,-483.996C429.5183,-447.1501 525.9657,-141.1624 463,-84.6275 375.6943,-6.2385 303.1393,-30.5709 199,-84.6275 159.9298,-104.908 186.0202,-165.6275 142,-165.6275"/>
<polygon fill="#000000" stroke="#000000" points="498.7492,-485.6462 505.6084,-491.1153 502.6246,-486.6368 506.5,-487.6275 506.5,-487.6275 506.5,-487.6275 502.6246,-486.6368 507.3916,-484.1396 498.7492,-485.6462 498.7492,-485.6462"/>
<ellipse fill="none" stroke="#000000" cx="495.6489" cy="-484.8537" rx="3.2" ry="3.2"/>
</g>
</g>
</svg>
