<?xml version="1.0" encoding="UTF-8" standalone="no"?>
<!DOCTYPE svg PUBLIC "-//W3C//DTD SVG 1.1//EN"
 "http://www.w3.org/Graphics/SVG/1.1/DTD/svg11.dtd">
<!-- Generated by graphviz version 2.40.1 (20161225.0304)
 -->
<!-- Title: oneDegreeRelationshipsDiagram Pages: 1 -->
<svg width="712pt" height="638pt"
 viewBox="0.00 0.00 712.00 637.70" xmlns="http://www.w3.org/2000/svg" xmlns:xlink="http://www.w3.org/1999/xlink">
<g id="graph0" class="graph" transform="scale(1 1) rotate(0) translate(4 633.7)">
<title>oneDegreeRelationshipsDiagram</title>
<polygon fill="#ffffff" stroke="transparent" points="-4,4 -4,-633.7 708,-633.7 708,4 -4,4"/>
<text text-anchor="middle" x="72.4936" y="-7.3" font-family="Helvetica,sans-Serif" font-size="11.00" fill="#000000">Generated by SchemaSpy</text>
<!-- patient_data -->
<g id="node1" class="node">
<title>patient_data</title>
<g id="a_node1"><a xlink:href="../../tables/patient_data.html" xlink:title="patient_data" target="_top">
<polygon fill="#ffffff" stroke="transparent" points="224,-388.7 224,-625.7 391,-625.7 391,-388.7 224,-388.7"/>
<polygon fill="#f5f5f5" stroke="transparent" points="224.5,-602.2 224.5,-625.2 391.5,-625.2 391.5,-602.2 224.5,-602.2"/>
<polygon fill="none" stroke="#000000" points="224.5,-602.2 224.5,-625.2 391.5,-625.2 391.5,-602.2 224.5,-602.2"/>
<text text-anchor="start" x="229.5" y="-610.8" font-family="Helvetica,sans-Serif" font-weight="bold" font-size="11.00" fill="#000000">patient_data</text>
<text text-anchor="start" x="356.5437" y="-610.3" font-family="Helvetica,sans-Serif" font-size="11.00" fill="#000000">[table]</text>
<polygon fill="#ffffff" stroke="transparent" points="224.5,-580.2 224.5,-602.2 391.5,-602.2 391.5,-580.2 224.5,-580.2"/>
<polygon fill="none" stroke="#000000" points="224.5,-580.2 224.5,-602.2 391.5,-602.2 391.5,-580.2 224.5,-580.2"/>
<text text-anchor="start" x="244.5" y="-587.3" font-family="Helvetica,sans-Serif" font-size="11.00" fill="#000000">id</text>
<polygon fill="#ffffff" stroke="transparent" points="224.5,-558.2 224.5,-580.2 391.5,-580.2 391.5,-558.2 224.5,-558.2"/>
<polygon fill="none" stroke="#000000" points="224.5,-558.2 224.5,-580.2 391.5,-580.2 391.5,-558.2 224.5,-558.2"/>
<text text-anchor="start" x="244.5" y="-565.3" font-family="Helvetica,sans-Serif" font-size="11.00" fill="#000000">uuid</text>
<polygon fill="none" stroke="#000000" points="224.5,-536.2 224.5,-558.2 391.5,-558.2 391.5,-536.2 224.5,-536.2"/>
<image xlink:href="../../images/foreignKeys.png" width="11px" height="12px" preserveAspectRatio="xMinYMin meet" x="229.5" y="-553.2"/>
<text text-anchor="start" x="244.5" y="-543.3" font-family="Helvetica,sans-Serif" font-size="11.00" fill="#000000">pharmacy_id</text>
<polygon fill="none" stroke="#000000" points="224.5,-514.2 224.5,-536.2 391.5,-536.2 391.5,-514.2 224.5,-514.2"/>
<image xlink:href="../../images/foreignKeys.png" width="11px" height="12px" preserveAspectRatio="xMinYMin meet" x="229.5" y="-531.2"/>
<text text-anchor="start" x="244.5" y="-521.3" font-family="Helvetica,sans-Serif" font-size="11.00" fill="#000000">providerID</text>
<polygon fill="none" stroke="#000000" points="224.5,-492.2 224.5,-514.2 391.5,-514.2 391.5,-492.2 224.5,-492.2"/>
<image xlink:href="../../images/foreignKeys.png" width="11px" height="12px" preserveAspectRatio="xMinYMin meet" x="229.5" y="-509.2"/>
<text text-anchor="start" x="244.5" y="-499.3" font-family="Helvetica,sans-Serif" font-size="11.00" fill="#000000">ref_providerID</text>
<polygon fill="none" stroke="#000000" points="224.5,-470.2 224.5,-492.2 391.5,-492.2 391.5,-470.2 224.5,-470.2"/>
<image xlink:href="../../images/primaryKeys.png" width="11px" height="12px" preserveAspectRatio="xMinYMin meet" x="229.5" y="-487.2"/>
<text text-anchor="start" x="244.5" y="-477.3" font-family="Helvetica,sans-Serif" font-size="11.00" fill="#000000">pid</text>
<polygon fill="none" stroke="#000000" points="224.5,-448.2 224.5,-470.2 391.5,-470.2 391.5,-448.2 224.5,-448.2"/>
<image xlink:href="../../images/foreignKeys.png" width="11px" height="12px" preserveAspectRatio="xMinYMin meet" x="229.5" y="-465.2"/>
<text text-anchor="start" x="244.5" y="-455.3" font-family="Helvetica,sans-Serif" font-size="11.00" fill="#000000">created_by</text>
<polygon fill="none" stroke="#000000" points="224.5,-426.2 224.5,-448.2 391.5,-448.2 391.5,-426.2 224.5,-426.2"/>
<image xlink:href="../../images/foreignKeys.png" width="11px" height="12px" preserveAspectRatio="xMinYMin meet" x="229.5" y="-443.2"/>
<text text-anchor="start" x="244.5" y="-433.3" font-family="Helvetica,sans-Serif" font-size="11.00" fill="#000000">updated_by</text>
<polygon fill="none" stroke="#000000" points="224.5,-407.2 224.5,-426.2 391.5,-426.2 391.5,-407.2 224.5,-407.2"/>
<text text-anchor="start" x="227.5" y="-413.3" font-family="Helvetica,sans-Serif" font-size="11.00" fill="#000000">...</text>
<polygon fill="#ffffff" stroke="transparent" points="224.5,-388.2 224.5,-407.2 298.5,-407.2 298.5,-388.2 224.5,-388.2"/>
<polygon fill="none" stroke="#000000" points="224.5,-388.2 224.5,-407.2 298.5,-407.2 298.5,-388.2 224.5,-388.2"/>
<text text-anchor="start" x="227.5" y="-394.3" font-family="Helvetica,sans-Serif" font-size="11.00" fill="#000000">&lt; 5</text>
<polygon fill="#ffffff" stroke="transparent" points="298.5,-388.2 298.5,-407.2 337.5,-407.2 337.5,-388.2 298.5,-388.2"/>
<polygon fill="none" stroke="#000000" points="298.5,-388.2 298.5,-407.2 337.5,-407.2 337.5,-388.2 298.5,-388.2"/>
<text text-anchor="start" x="328.3862" y="-394.3" font-family="Helvetica,sans-Serif" font-size="11.00" fill="#000000"> &#160;</text>
<polygon fill="#ffffff" stroke="transparent" points="337.5,-388.2 337.5,-407.2 391.5,-407.2 391.5,-388.2 337.5,-388.2"/>
<polygon fill="none" stroke="#000000" points="337.5,-388.2 337.5,-407.2 391.5,-407.2 391.5,-388.2 337.5,-388.2"/>
<text text-anchor="start" x="366.7904" y="-394.3" font-family="Helvetica,sans-Serif" font-size="11.00" fill="#000000">80 &gt;</text>
</a>
</g>
</g>
<!-- users -->
<g id="node2" class="node">
<title>users</title>
<g id="a_node2"><a xlink:href="../../tables/users.html" xlink:title="users" target="_top">
<polygon fill="#ffffff" stroke="transparent" points="8,-300.7 8,-471.7 175,-471.7 175,-300.7 8,-300.7"/>
<polygon fill="#f5f5f5" stroke="transparent" points="8.5,-448.2 8.5,-471.2 175.5,-471.2 175.5,-448.2 8.5,-448.2"/>
<polygon fill="none" stroke="#000000" points="8.5,-448.2 8.5,-471.2 175.5,-471.2 175.5,-448.2 8.5,-448.2"/>
<text text-anchor="start" x="13.5" y="-456.8" font-family="Helvetica,sans-Serif" font-weight="bold" font-size="11.00" fill="#000000">users</text>
<text text-anchor="start" x="140.5437" y="-456.3" font-family="Helvetica,sans-Serif" font-size="11.00" fill="#000000">[table]</text>
<polygon fill="none" stroke="#000000" points="8.5,-426.2 8.5,-448.2 175.5,-448.2 175.5,-426.2 8.5,-426.2"/>
<image xlink:href="../../images/primaryKeys.png" width="11px" height="12px" preserveAspectRatio="xMinYMin meet" x="13.5" y="-443.2"/>
<text text-anchor="start" x="28.5" y="-433.3" font-family="Helvetica,sans-Serif" font-size="11.00" fill="#000000">id</text>
<polygon fill="#ffffff" stroke="transparent" points="8.5,-404.2 8.5,-426.2 175.5,-426.2 175.5,-404.2 8.5,-404.2"/>
<polygon fill="none" stroke="#000000" points="8.5,-404.2 8.5,-426.2 175.5,-426.2 175.5,-404.2 8.5,-404.2"/>
<text text-anchor="start" x="28.5" y="-411.3" font-family="Helvetica,sans-Serif" font-size="11.00" fill="#000000">uuid</text>
<polygon fill="none" stroke="#000000" points="8.5,-382.2 8.5,-404.2 175.5,-404.2 175.5,-382.2 8.5,-382.2"/>
<image xlink:href="../../images/primaryKeys.png" width="11px" height="12px" preserveAspectRatio="xMinYMin meet" x="13.5" y="-399.2"/>
<text text-anchor="start" x="28.5" y="-389.3" font-family="Helvetica,sans-Serif" font-size="11.00" fill="#000000">username</text>
<polygon fill="#ffffff" stroke="transparent" points="8.5,-360.2 8.5,-382.2 175.5,-382.2 175.5,-360.2 8.5,-360.2"/>
<polygon fill="none" stroke="#000000" points="8.5,-360.2 8.5,-382.2 175.5,-382.2 175.5,-360.2 8.5,-360.2"/>
<text text-anchor="start" x="28.5" y="-367.3" font-family="Helvetica,sans-Serif" font-size="11.00" fill="#000000">google_signin_email</text>
<polygon fill="#ffffff" stroke="transparent" points="8.5,-338.2 8.5,-360.2 175.5,-360.2 175.5,-338.2 8.5,-338.2"/>
<polygon fill="none" stroke="#000000" points="8.5,-338.2 8.5,-360.2 175.5,-360.2 175.5,-338.2 8.5,-338.2"/>
<text text-anchor="start" x="28.5" y="-345.3" font-family="Helvetica,sans-Serif" font-size="11.00" fill="#000000">abook_type</text>
<polygon fill="none" stroke="#000000" points="8.5,-319.2 8.5,-338.2 175.5,-338.2 175.5,-319.2 8.5,-319.2"/>
<text text-anchor="start" x="11.5" y="-325.3" font-family="Helvetica,sans-Serif" font-size="11.00" fill="#000000">...</text>
<polygon fill="#ffffff" stroke="transparent" points="8.5,-300.2 8.5,-319.2 78.5,-319.2 78.5,-300.2 8.5,-300.2"/>
<polygon fill="none" stroke="#000000" points="8.5,-300.2 8.5,-319.2 78.5,-319.2 78.5,-300.2 8.5,-300.2"/>
<text text-anchor="start" x="11.5" y="-306.3" font-family="Helvetica,sans-Serif" font-size="11.00" fill="#000000"> &#160;</text>
<polygon fill="#ffffff" stroke="transparent" points="78.5,-300.2 78.5,-319.2 119.5,-319.2 119.5,-300.2 78.5,-300.2"/>
<polygon fill="none" stroke="#000000" points="78.5,-300.2 78.5,-319.2 119.5,-319.2 119.5,-300.2 78.5,-300.2"/>
<text text-anchor="start" x="110.3862" y="-306.3" font-family="Helvetica,sans-Serif" font-size="11.00" fill="#000000"> &#160;</text>
<polygon fill="#ffffff" stroke="transparent" points="119.5,-300.2 119.5,-319.2 175.5,-319.2 175.5,-300.2 119.5,-300.2"/>
<polygon fill="none" stroke="#000000" points="119.5,-300.2 119.5,-319.2 175.5,-319.2 175.5,-300.2 119.5,-300.2"/>
<text text-anchor="start" x="150.7904" y="-306.3" font-family="Helvetica,sans-Serif" font-size="11.00" fill="#000000">38 &gt;</text>
</a>
</g>
</g>
<!-- patient_data&#45;&gt;users -->
<g id="edge1" class="edge">
<title>patient_data:w&#45;&gt;users:e</title>
<path fill="none" stroke="#000000" d="M210.1297,-455.7625C198.5865,-449.575 193.4041,-437.2 175.5,-437.2"/>
<polygon fill="#000000" stroke="#000000" points="216.7195,-457.3388 223.6625,-462.7012 220.6098,-458.2694 224.5,-459.2 224.5,-459.2 224.5,-459.2 220.6098,-458.2694 225.3375,-455.6988 216.7195,-457.3388 216.7195,-457.3388"/>
<ellipse fill="none" stroke="#000000" cx="213.6073" cy="-456.5943" rx="3.2" ry="3.2"/>
</g>
<!-- patient_data&#45;&gt;users -->
<g id="edge2" class="edge">
<title>patient_data:w&#45;&gt;users:e</title>
<path fill="none" stroke="#000000" d="M210.4863,-520.7151C189.2228,-502.7824 214.1452,-437.2 175.5,-437.2"/>
<polygon fill="#000000" stroke="#000000" points="216.8807,-522.7615 223.4027,-528.6287 220.6903,-523.9807 224.5,-525.2 224.5,-525.2 224.5,-525.2 220.6903,-523.9807 225.5973,-521.7713 216.8807,-522.7615 216.8807,-522.7615"/>
<ellipse fill="none" stroke="#000000" cx="213.833" cy="-521.7861" rx="3.2" ry="3.2"/>
</g>
<!-- patient_data&#45;&gt;users -->
<g id="edge3" class="edge">
<title>patient_data:w&#45;&gt;users:e</title>
<path fill="none" stroke="#000000" d="M210.8768,-498.4534C194.2322,-483.3202 206.0399,-437.2 175.5,-437.2"/>
<polygon fill="#000000" stroke="#000000" points="216.9454,-500.5678 223.3155,-506.5996 220.7227,-501.8839 224.5,-503.2 224.5,-503.2 224.5,-503.2 220.7227,-501.8839 225.6845,-499.8004 216.9454,-500.5678 216.9454,-500.5678"/>
<ellipse fill="none" stroke="#000000" cx="213.9236" cy="-499.5149" rx="3.2" ry="3.2"/>
</g>
<!-- patient_data&#45;&gt;users -->
<g id="edge4" class="edge">
<title>patient_data:w&#45;&gt;users:e</title>
<path fill="none" stroke="#000000" d="M209.9909,-437.2C198.6774,-437.2 191.4931,-437.2 175.5,-437.2"/>
<polygon fill="#000000" stroke="#000000" points="216.5,-437.2001 224.5,-440.8 220.5,-437.2 224.5,-437.2 224.5,-437.2 224.5,-437.2 220.5,-437.2 224.5,-433.6 216.5,-437.2001 216.5,-437.2001"/>
<ellipse fill="none" stroke="#000000" cx="213.3" cy="-437.2001" rx="3.2" ry="3.2"/>
</g>
<!-- pnotes -->
<g id="node3" class="node">
<title>pnotes</title>
<g id="a_node3"><a xlink:href="../../tables/pnotes.html" xlink:title="pnotes" target="_top">
<polygon fill="#ffffff" stroke="transparent" points="440,-38.2 440,-436.2 696,-436.2 696,-38.2 440,-38.2"/>
<polygon fill="#f5f5f5" stroke="transparent" points="442,-411.2 442,-434.2 694,-434.2 694,-411.2 442,-411.2"/>
<polygon fill="none" stroke="#000000" points="442,-411.2 442,-434.2 694,-434.2 694,-411.2 442,-411.2"/>
<text text-anchor="start" x="447" y="-419.8" font-family="Helvetica,sans-Serif" font-weight="bold" font-size="11.00" fill="#000000">pnotes</text>
<text text-anchor="start" x="659.0437" y="-419.3" font-family="Helvetica,sans-Serif" font-size="11.00" fill="#000000">[table]</text>
<polygon fill="none" stroke="#000000" points="442,-389.2 442,-411.2 583,-411.2 583,-389.2 442,-389.2"/>
<image xlink:href="../../images/primaryKeys.png" width="11px" height="12px" preserveAspectRatio="xMinYMin meet" x="447" y="-406.2"/>
<text text-anchor="start" x="462" y="-396.3" font-family="Helvetica,sans-Serif" font-size="11.00" fill="#000000">id</text>
<polygon fill="none" stroke="#000000" points="583,-389.2 583,-411.2 694,-411.2 694,-389.2 583,-389.2"/>
<text text-anchor="start" x="586" y="-396.9" font-family="Helvetica,sans-Serif" font-size="11.00" fill="#000000">bigint[19]</text>
<polygon fill="none" stroke="#000000" points="442,-367.2 442,-389.2 583,-389.2 583,-367.2 442,-367.2"/>
<text text-anchor="start" x="462" y="-374.3" font-family="Helvetica,sans-Serif" font-size="11.00" fill="#000000">date</text>
<polygon fill="none" stroke="#000000" points="583,-367.2 583,-389.2 694,-389.2 694,-367.2 583,-367.2"/>
<text text-anchor="start" x="586" y="-374.9" font-family="Helvetica,sans-Serif" font-size="11.00" fill="#000000">datetime[19]</text>
<polygon fill="none" stroke="#000000" points="442,-345.2 442,-367.2 583,-367.2 583,-345.2 442,-345.2"/>
<text text-anchor="start" x="462" y="-352.3" font-family="Helvetica,sans-Serif" font-size="11.00" fill="#000000">body</text>
<polygon fill="none" stroke="#000000" points="583,-345.2 583,-367.2 694,-367.2 694,-345.2 583,-345.2"/>
<text text-anchor="start" x="585.6115" y="-352.9" font-family="Helvetica,sans-Serif" font-size="11.00" fill="#000000">longtext[2147483647]</text>
<polygon fill="#ffffff" stroke="transparent" points="442,-323.2 442,-345.2 583,-345.2 583,-323.2 442,-323.2"/>
<polygon fill="none" stroke="#000000" points="442,-323.2 442,-345.2 583,-345.2 583,-323.2 442,-323.2"/>
<image xlink:href="../../images/foreignKeys.png" width="11px" height="12px" preserveAspectRatio="xMinYMin meet" x="447" y="-340.2"/>
<text text-anchor="start" x="462" y="-330.3" font-family="Helvetica,sans-Serif" font-size="11.00" fill="#000000">pid</text>
<polygon fill="none" stroke="#000000" points="583,-323.2 583,-345.2 694,-345.2 694,-323.2 583,-323.2"/>
<text text-anchor="start" x="586" y="-330.9" font-family="Helvetica,sans-Serif" font-size="11.00" fill="#000000">bigint[19]</text>
<polygon fill="none" stroke="#000000" points="442,-301.2 442,-323.2 583,-323.2 583,-301.2 442,-301.2"/>
<image xlink:href="../../images/foreignKeys.png" width="11px" height="12px" preserveAspectRatio="xMinYMin meet" x="447" y="-318.2"/>
<text text-anchor="start" x="462" y="-308.3" font-family="Helvetica,sans-Serif" font-size="11.00" fill="#000000">user</text>
<polygon fill="none" stroke="#000000" points="583,-301.2 583,-323.2 694,-323.2 694,-301.2 583,-301.2"/>
<text text-anchor="start" x="586" y="-308.9" font-family="Helvetica,sans-Serif" font-size="11.00" fill="#000000">varchar[255]</text>
<polygon fill="none" stroke="#000000" points="442,-279.2 442,-301.2 583,-301.2 583,-279.2 442,-279.2"/>
<image xlink:href="../../images/foreignKeys.png" width="11px" height="12px" preserveAspectRatio="xMinYMin meet" x="447" y="-296.2"/>
<text text-anchor="start" x="462" y="-286.3" font-family="Helvetica,sans-Serif" font-size="11.00" fill="#000000">groupname</text>
<polygon fill="none" stroke="#000000" points="583,-279.2 583,-301.2 694,-301.2 694,-279.2 583,-279.2"/>
<text text-anchor="start" x="586" y="-286.9" font-family="Helvetica,sans-Serif" font-size="11.00" fill="#000000">varchar[255]</text>
<polygon fill="none" stroke="#000000" points="442,-257.2 442,-279.2 583,-279.2 583,-257.2 442,-257.2"/>
<text text-anchor="start" x="462" y="-264.3" font-family="Helvetica,sans-Serif" font-size="11.00" fill="#000000">activity</text>
<polygon fill="none" stroke="#000000" points="583,-257.2 583,-279.2 694,-279.2 694,-257.2 583,-257.2"/>
<text text-anchor="start" x="586" y="-264.9" font-family="Helvetica,sans-Serif" font-size="11.00" fill="#000000">tinyint[3]</text>
<polygon fill="none" stroke="#000000" points="442,-235.2 442,-257.2 583,-257.2 583,-235.2 442,-235.2"/>
<text text-anchor="start" x="462" y="-242.3" font-family="Helvetica,sans-Serif" font-size="11.00" fill="#000000">authorized</text>
<polygon fill="none" stroke="#000000" points="583,-235.2 583,-257.2 694,-257.2 694,-235.2 583,-235.2"/>
<text text-anchor="start" x="586" y="-242.9" font-family="Helvetica,sans-Serif" font-size="11.00" fill="#000000">tinyint[3]</text>
<polygon fill="none" stroke="#000000" points="442,-213.2 442,-235.2 583,-235.2 583,-213.2 442,-213.2"/>
<text text-anchor="start" x="462" y="-220.3" font-family="Helvetica,sans-Serif" font-size="11.00" fill="#000000">title</text>
<polygon fill="none" stroke="#000000" points="583,-213.2 583,-235.2 694,-235.2 694,-213.2 583,-213.2"/>
<text text-anchor="start" x="586" y="-220.9" font-family="Helvetica,sans-Serif" font-size="11.00" fill="#000000">varchar[255]</text>
<polygon fill="none" stroke="#000000" points="442,-191.2 442,-213.2 583,-213.2 583,-191.2 442,-191.2"/>
<image xlink:href="../../images/foreignKeys.png" width="11px" height="12px" preserveAspectRatio="xMinYMin meet" x="447" y="-208.2"/>
<text text-anchor="start" x="462" y="-198.3" font-family="Helvetica,sans-Serif" font-size="11.00" fill="#000000">assigned_to</text>
<polygon fill="none" stroke="#000000" points="583,-191.2 583,-213.2 694,-213.2 694,-191.2 583,-191.2"/>
<text text-anchor="start" x="586" y="-198.9" font-family="Helvetica,sans-Serif" font-size="11.00" fill="#000000">varchar[255]</text>
<polygon fill="none" stroke="#000000" points="442,-169.2 442,-191.2 583,-191.2 583,-169.2 442,-169.2"/>
<text text-anchor="start" x="462" y="-176.3" font-family="Helvetica,sans-Serif" font-size="11.00" fill="#000000">deleted</text>
<polygon fill="none" stroke="#000000" points="583,-169.2 583,-191.2 694,-191.2 694,-169.2 583,-169.2"/>
<text text-anchor="start" x="586" y="-176.9" font-family="Helvetica,sans-Serif" font-size="11.00" fill="#000000">tinyint[3]</text>
<polygon fill="none" stroke="#000000" points="442,-147.2 442,-169.2 583,-169.2 583,-147.2 442,-147.2"/>
<image xlink:href="../../images/foreignKeys.png" width="11px" height="12px" preserveAspectRatio="xMinYMin meet" x="447" y="-164.2"/>
<text text-anchor="start" x="462" y="-154.3" font-family="Helvetica,sans-Serif" font-size="11.00" fill="#000000">message_status</text>
<polygon fill="none" stroke="#000000" points="583,-147.2 583,-169.2 694,-169.2 694,-147.2 583,-147.2"/>
<text text-anchor="start" x="586" y="-154.9" font-family="Helvetica,sans-Serif" font-size="11.00" fill="#000000">varchar[20]</text>
<polygon fill="none" stroke="#000000" points="442,-125.2 442,-147.2 583,-147.2 583,-125.2 442,-125.2"/>
<text text-anchor="start" x="462" y="-132.3" font-family="Helvetica,sans-Serif" font-size="11.00" fill="#000000">portal_relation</text>
<polygon fill="none" stroke="#000000" points="583,-125.2 583,-147.2 694,-147.2 694,-125.2 583,-125.2"/>
<text text-anchor="start" x="586" y="-132.9" font-family="Helvetica,sans-Serif" font-size="11.00" fill="#000000">varchar[100]</text>
<polygon fill="none" stroke="#000000" points="442,-103.2 442,-125.2 583,-125.2 583,-103.2 442,-103.2"/>
<text text-anchor="start" x="462" y="-110.3" font-family="Helvetica,sans-Serif" font-size="11.00" fill="#000000">is_msg_encrypted</text>
<polygon fill="none" stroke="#000000" points="583,-103.2 583,-125.2 694,-125.2 694,-103.2 583,-103.2"/>
<text text-anchor="start" x="586" y="-110.9" font-family="Helvetica,sans-Serif" font-size="11.00" fill="#000000">tinyint[3]</text>
<polygon fill="none" stroke="#000000" points="442,-81.2 442,-103.2 583,-103.2 583,-81.2 442,-81.2"/>
<image xlink:href="../../images/foreignKeys.png" width="11px" height="12px" preserveAspectRatio="xMinYMin meet" x="447" y="-98.2"/>
<text text-anchor="start" x="462" y="-88.3" font-family="Helvetica,sans-Serif" font-size="11.00" fill="#000000">update_by</text>
<polygon fill="none" stroke="#000000" points="583,-81.2 583,-103.2 694,-103.2 694,-81.2 583,-81.2"/>
<text text-anchor="start" x="586" y="-88.9" font-family="Helvetica,sans-Serif" font-size="11.00" fill="#000000">bigint[19]</text>
<polygon fill="none" stroke="#000000" points="442,-59.2 442,-81.2 583,-81.2 583,-59.2 442,-59.2"/>
<text text-anchor="start" x="462" y="-66.3" font-family="Helvetica,sans-Serif" font-size="11.00" fill="#000000">update_date</text>
<polygon fill="none" stroke="#000000" points="583,-59.2 583,-81.2 694,-81.2 694,-59.2 583,-59.2"/>
<text text-anchor="start" x="586" y="-66.9" font-family="Helvetica,sans-Serif" font-size="11.00" fill="#000000">datetime[19]</text>
<polygon fill="#ffffff" stroke="transparent" points="442,-40.2 442,-59.2 517,-59.2 517,-40.2 442,-40.2"/>
<polygon fill="none" stroke="#000000" points="442,-40.2 442,-59.2 517,-59.2 517,-40.2 442,-40.2"/>
<text text-anchor="start" x="445" y="-46.3" font-family="Helvetica,sans-Serif" font-size="11.00" fill="#000000">&lt; 6</text>
<polygon fill="#ffffff" stroke="transparent" points="517,-40.2 517,-59.2 583,-59.2 583,-40.2 517,-40.2"/>
<polygon fill="none" stroke="#000000" points="517,-40.2 517,-59.2 583,-59.2 583,-40.2 517,-40.2"/>
<text text-anchor="start" x="573.8862" y="-46.3" font-family="Helvetica,sans-Serif" font-size="11.00" fill="#000000"> &#160;</text>
<polygon fill="#ffffff" stroke="transparent" points="583,-40.2 583,-59.2 694,-59.2 694,-40.2 583,-40.2"/>
<polygon fill="none" stroke="#000000" points="583,-40.2 583,-59.2 694,-59.2 694,-40.2 583,-40.2"/>
<text text-anchor="start" x="675.4053" y="-46.3" font-family="Helvetica,sans-Serif" font-size="11.00" fill="#000000">0 &gt;</text>
<polygon fill="none" stroke="#000000" stroke-width="2" points="441,-39.2 441,-435.2 695,-435.2 695,-39.2 441,-39.2"/>
</a>
</g>
</g>
<!-- pnotes&#45;&gt;patient_data -->
<g id="edge8" class="edge">
<title>pnotes:w&#45;&gt;patient_data:e</title>
<path fill="none" stroke="#000000" d="M427.7258,-337.1364C386.5378,-357.8546 454.7794,-481.2 391.5,-481.2"/>
<polygon fill="#000000" stroke="#000000" points="434.1641,-335.812 442.7254,-337.7262 438.082,-335.006 442,-334.2 442,-334.2 442,-334.2 438.082,-335.006 441.2746,-330.6738 434.1641,-335.812 434.1641,-335.812"/>
<ellipse fill="none" stroke="#000000" cx="431.0297" cy="-336.4568" rx="3.2" ry="3.2"/>
</g>
<!-- pnotes&#45;&gt;users -->
<g id="edge5" class="edge">
<title>pnotes:w&#45;&gt;users:e</title>
<path fill="none" stroke="#000000" d="M427.5402,-201.98C369.0267,-200.5053 250.1343,-193.0343 216,-224.2 144.8371,-289.174 271.8627,-437.2 175.5,-437.2"/>
<polygon fill="#000000" stroke="#000000" points="434.0009,-202.0782 441.9452,-205.7996 438.0005,-202.1391 442,-202.2 442,-202.2 442,-202.2 438.0005,-202.1391 442.0548,-198.6004 434.0009,-202.0782 434.0009,-202.0782"/>
<ellipse fill="none" stroke="#000000" cx="430.8013" cy="-202.0295" rx="3.2" ry="3.2"/>
</g>
<!-- pnotes&#45;&gt;users -->
<g id="edge9" class="edge">
<title>pnotes:w&#45;&gt;users:e</title>
<path fill="none" stroke="#000000" d="M427.9116,-88.8159C418.5615,-83.5984 414.0002,-73.8145 399,-70.2 319.9298,-51.1472 276.5835,-15.9344 216,-70.2 154.8822,-124.9442 257.5506,-437.2 175.5,-437.2"/>
<polygon fill="#000000" stroke="#000000" points="434.2213,-90.3315 441.1592,-95.7004 438.1106,-91.2657 442,-92.2 442,-92.2 442,-92.2 438.1106,-91.2657 442.8408,-88.6996 434.2213,-90.3315 434.2213,-90.3315"/>
<ellipse fill="none" stroke="#000000" cx="431.1098" cy="-89.5841" rx="3.2" ry="3.2"/>
</g>
<!-- pnotes&#45;&gt;users -->
<g id="edge10" class="edge">
<title>pnotes:w&#45;&gt;users:e</title>
<path fill="none" stroke="#000000" d="M428.0937,-316.3652C417.5263,-324.4086 416.5047,-342.0064 399,-350.2 324.4798,-385.0815 285.6889,-334.4573 216,-378.2 189.0614,-395.109 207.3057,-437.2 175.5,-437.2"/>
<polygon fill="#000000" stroke="#000000" points="434.3364,-314.4955 443.033,-315.6486 438.1682,-313.3477 442,-312.2 442,-312.2 442,-312.2 438.1682,-313.3477 440.967,-308.7514 434.3364,-314.4955 434.3364,-314.4955"/>
<ellipse fill="none" stroke="#000000" cx="431.2709" cy="-315.4137" rx="3.2" ry="3.2"/>
</g>
<!-- groups -->
<g id="node4" class="node">
<title>groups</title>
<g id="a_node4"><a xlink:href="../../tables/groups.html" xlink:title="groups" target="_top">
<polygon fill="#ffffff" stroke="transparent" points="264.5,-234.7 264.5,-339.7 350.5,-339.7 350.5,-234.7 264.5,-234.7"/>
<polygon fill="#f5f5f5" stroke="transparent" points="264.5,-316.2 264.5,-339.2 350.5,-339.2 350.5,-316.2 264.5,-316.2"/>
<polygon fill="none" stroke="#000000" points="264.5,-316.2 264.5,-339.2 350.5,-339.2 350.5,-316.2 264.5,-316.2"/>
<text text-anchor="start" x="269.5" y="-324.8" font-family="Helvetica,sans-Serif" font-weight="bold" font-size="11.00" fill="#000000">groups</text>
<text text-anchor="start" x="316.0219" y="-324.3" font-family="Helvetica,sans-Serif" font-size="11.00" fill="#000000">[table]</text>
<polygon fill="none" stroke="#000000" points="264.5,-294.2 264.5,-316.2 350.5,-316.2 350.5,-294.2 264.5,-294.2"/>
<image xlink:href="../../images/primaryKeys.png" width="11px" height="12px" preserveAspectRatio="xMinYMin meet" x="269.5" y="-311.2"/>
<text text-anchor="start" x="293.5" y="-301.3" font-family="Helvetica,sans-Serif" font-size="11.00" fill="#000000">id</text>
<polygon fill="none" stroke="#000000" points="264.5,-272.2 264.5,-294.2 350.5,-294.2 350.5,-272.2 264.5,-272.2"/>
<image xlink:href="../../images/primaryKeys.png" width="11px" height="12px" preserveAspectRatio="xMinYMin meet" x="269.5" y="-289.2"/>
<text text-anchor="start" x="293.5" y="-279.3" font-family="Helvetica,sans-Serif" font-size="11.00" fill="#000000">name</text>
<polygon fill="none" stroke="#000000" points="264.5,-253.2 264.5,-272.2 350.5,-272.2 350.5,-253.2 264.5,-253.2"/>
<text text-anchor="start" x="267.5" y="-259.3" font-family="Helvetica,sans-Serif" font-size="11.00" fill="#000000">...</text>
<polygon fill="#ffffff" stroke="transparent" points="264.5,-234.2 264.5,-253.2 293.5,-253.2 293.5,-234.2 264.5,-234.2"/>
<polygon fill="none" stroke="#000000" points="264.5,-234.2 264.5,-253.2 293.5,-253.2 293.5,-234.2 264.5,-234.2"/>
<text text-anchor="start" x="267.5" y="-240.3" font-family="Helvetica,sans-Serif" font-size="11.00" fill="#000000"> &#160;</text>
<polygon fill="#ffffff" stroke="transparent" points="293.5,-234.2 293.5,-253.2 314.5,-253.2 314.5,-234.2 293.5,-234.2"/>
<polygon fill="none" stroke="#000000" points="293.5,-234.2 293.5,-253.2 314.5,-253.2 314.5,-234.2 293.5,-234.2"/>
<text text-anchor="start" x="305.3862" y="-240.3" font-family="Helvetica,sans-Serif" font-size="11.00" fill="#000000"> &#160;</text>
<polygon fill="#ffffff" stroke="transparent" points="314.5,-234.2 314.5,-253.2 350.5,-253.2 350.5,-234.2 314.5,-234.2"/>
<polygon fill="none" stroke="#000000" points="314.5,-234.2 314.5,-253.2 350.5,-253.2 350.5,-234.2 314.5,-234.2"/>
<text text-anchor="start" x="325.7904" y="-240.3" font-family="Helvetica,sans-Serif" font-size="11.00" fill="#000000">10 &gt;</text>
</a>
</g>
</g>
<!-- pnotes&#45;&gt;groups -->
<g id="edge6" class="edge">
<title>pnotes:w&#45;&gt;groups:e</title>
<path fill="none" stroke="#000000" d="M427.2378,-289.8624C398.0328,-288.4641 385.8687,-283.2 350.5,-283.2"/>
<polygon fill="#000000" stroke="#000000" points="434.0021,-290.017 441.9177,-293.7991 438.001,-290.1085 442,-290.2 442,-290.2 442,-290.2 438.001,-290.1085 442.0823,-286.6009 434.0021,-290.017 434.0021,-290.017"/>
<ellipse fill="none" stroke="#000000" cx="430.8029" cy="-289.9438" rx="3.2" ry="3.2"/>
</g>
<!-- list_options -->
<g id="node5" class="node">
<title>list_options</title>
<g id="a_node5"><a xlink:href="../../tables/list_options.html" xlink:title="list_options" target="_top">
<polygon fill="#ffffff" stroke="transparent" points="241.5,-80.7 241.5,-185.7 373.5,-185.7 373.5,-80.7 241.5,-80.7"/>
<polygon fill="#f5f5f5" stroke="transparent" points="241.5,-162.2 241.5,-185.2 373.5,-185.2 373.5,-162.2 241.5,-162.2"/>
<polygon fill="none" stroke="#000000" points="241.5,-162.2 241.5,-185.2 373.5,-185.2 373.5,-162.2 241.5,-162.2"/>
<text text-anchor="start" x="246.5" y="-170.8" font-family="Helvetica,sans-Serif" font-weight="bold" font-size="11.00" fill="#000000">list_options</text>
<text text-anchor="start" x="338.5437" y="-170.3" font-family="Helvetica,sans-Serif" font-size="11.00" fill="#000000">[table]</text>
<polygon fill="none" stroke="#000000" points="241.5,-140.2 241.5,-162.2 373.5,-162.2 373.5,-140.2 241.5,-140.2"/>
<image xlink:href="../../images/primaryKeys.png" width="11px" height="12px" preserveAspectRatio="xMinYMin meet" x="246.5" y="-157.2"/>
<text text-anchor="start" x="261.5" y="-147.3" font-family="Helvetica,sans-Serif" font-size="11.00" fill="#000000">list_id</text>
<polygon fill="none" stroke="#000000" points="241.5,-118.2 241.5,-140.2 373.5,-140.2 373.5,-118.2 241.5,-118.2"/>
<image xlink:href="../../images/primaryKeys.png" width="11px" height="12px" preserveAspectRatio="xMinYMin meet" x="246.5" y="-135.2"/>
<text text-anchor="start" x="261.5" y="-125.3" font-family="Helvetica,sans-Serif" font-size="11.00" fill="#000000">option_id</text>
<polygon fill="none" stroke="#000000" points="241.5,-99.2 241.5,-118.2 373.5,-118.2 373.5,-99.2 241.5,-99.2"/>
<text text-anchor="start" x="244.5" y="-105.3" font-family="Helvetica,sans-Serif" font-size="11.00" fill="#000000">...</text>
<polygon fill="#ffffff" stroke="transparent" points="241.5,-80.2 241.5,-99.2 293.5,-99.2 293.5,-80.2 241.5,-80.2"/>
<polygon fill="none" stroke="#000000" points="241.5,-80.2 241.5,-99.2 293.5,-99.2 293.5,-80.2 241.5,-80.2"/>
<text text-anchor="start" x="244.5" y="-86.3" font-family="Helvetica,sans-Serif" font-size="11.00" fill="#000000"> &#160;</text>
<polygon fill="#ffffff" stroke="transparent" points="293.5,-80.2 293.5,-99.2 325.5,-99.2 325.5,-80.2 293.5,-80.2"/>
<polygon fill="none" stroke="#000000" points="293.5,-80.2 293.5,-99.2 325.5,-99.2 325.5,-80.2 293.5,-80.2"/>
<text text-anchor="start" x="316.3862" y="-86.3" font-family="Helvetica,sans-Serif" font-size="11.00" fill="#000000"> &#160;</text>
<polygon fill="#ffffff" stroke="transparent" points="325.5,-80.2 325.5,-99.2 373.5,-99.2 373.5,-80.2 325.5,-80.2"/>
<polygon fill="none" stroke="#000000" points="325.5,-80.2 325.5,-99.2 373.5,-99.2 373.5,-80.2 325.5,-80.2"/>
<text text-anchor="start" x="348.7904" y="-86.3" font-family="Helvetica,sans-Serif" font-size="11.00" fill="#000000">16 &gt;</text>
</a>
</g>
</g>
<!-- pnotes&#45;&gt;list_options -->
<g id="edge7" class="edge">
<title>pnotes:w&#45;&gt;list_options:e</title>
<path fill="none" stroke="#000000" d="M427.6467,-156.0203C407.2747,-149.276 401.0073,-129.2 373.5,-129.2"/>
<polygon fill="#000000" stroke="#000000" points="434.0907,-156.9988 441.4595,-161.7592 438.0453,-157.5994 442,-158.2 442,-158.2 442,-158.2 438.0453,-157.5994 442.5405,-154.6408 434.0907,-156.9988 434.0907,-156.9988"/>
<ellipse fill="none" stroke="#000000" cx="430.927" cy="-156.5184" rx="3.2" ry="3.2"/>
</g>
</g>
</svg>
