<?xml version="1.0" encoding="UTF-8" standalone="no"?>
<!DOCTYPE svg PUBLIC "-//W3C//DTD SVG 1.1//EN"
 "http://www.w3.org/Graphics/SVG/1.1/DTD/svg11.dtd">
<!-- Generated by graphviz version 2.40.1 (20161225.0304)
 -->
<!-- Title: oneDegreeRelationshipsDiagram Pages: 1 -->
<svg width="663pt" height="406pt"
 viewBox="0.00 0.00 663.00 405.70" xmlns="http://www.w3.org/2000/svg" xmlns:xlink="http://www.w3.org/1999/xlink">
<g id="graph0" class="graph" transform="scale(1 1) rotate(0) translate(4 401.7)">
<title>oneDegreeRelationshipsDiagram</title>
<polygon fill="#ffffff" stroke="transparent" points="-4,4 -4,-401.7 659,-401.7 659,4 -4,4"/>
<text text-anchor="middle" x="72.4936" y="-7.3" font-family="Helvetica,sans-Serif" font-size="11.00" fill="#000000">Generated by SchemaSpy</text>
<!-- patient_data -->
<g id="node1" class="node">
<title>patient_data</title>
<g id="a_node1"><a xlink:href="../../tables/patient_data.html" xlink:title="patient_data" target="_top">
<polygon fill="#ffffff" stroke="transparent" points="224,-82.2 224,-319.2 391,-319.2 391,-82.2 224,-82.2"/>
<polygon fill="#f5f5f5" stroke="transparent" points="224.5,-295.7 224.5,-318.7 391.5,-318.7 391.5,-295.7 224.5,-295.7"/>
<polygon fill="none" stroke="#000000" points="224.5,-295.7 224.5,-318.7 391.5,-318.7 391.5,-295.7 224.5,-295.7"/>
<text text-anchor="start" x="229.5" y="-304.3" font-family="Helvetica,sans-Serif" font-weight="bold" font-size="11.00" fill="#000000">patient_data</text>
<text text-anchor="start" x="356.5437" y="-303.8" font-family="Helvetica,sans-Serif" font-size="11.00" fill="#000000">[table]</text>
<polygon fill="#ffffff" stroke="transparent" points="224.5,-273.7 224.5,-295.7 391.5,-295.7 391.5,-273.7 224.5,-273.7"/>
<polygon fill="none" stroke="#000000" points="224.5,-273.7 224.5,-295.7 391.5,-295.7 391.5,-273.7 224.5,-273.7"/>
<text text-anchor="start" x="244.5" y="-280.8" font-family="Helvetica,sans-Serif" font-size="11.00" fill="#000000">id</text>
<polygon fill="none" stroke="#000000" points="224.5,-251.7 224.5,-273.7 391.5,-273.7 391.5,-251.7 224.5,-251.7"/>
<image xlink:href="../../images/foreignKeys.png" width="11px" height="12px" preserveAspectRatio="xMinYMin meet" x="229.5" y="-268.7"/>
<text text-anchor="start" x="244.5" y="-258.8" font-family="Helvetica,sans-Serif" font-size="11.00" fill="#000000">pharmacy_id</text>
<polygon fill="none" stroke="#000000" points="224.5,-229.7 224.5,-251.7 391.5,-251.7 391.5,-229.7 224.5,-229.7"/>
<image xlink:href="../../images/foreignKeys.png" width="11px" height="12px" preserveAspectRatio="xMinYMin meet" x="229.5" y="-246.7"/>
<text text-anchor="start" x="244.5" y="-236.8" font-family="Helvetica,sans-Serif" font-size="11.00" fill="#000000">providerID</text>
<polygon fill="none" stroke="#000000" points="224.5,-207.7 224.5,-229.7 391.5,-229.7 391.5,-207.7 224.5,-207.7"/>
<image xlink:href="../../images/foreignKeys.png" width="11px" height="12px" preserveAspectRatio="xMinYMin meet" x="229.5" y="-224.7"/>
<text text-anchor="start" x="244.5" y="-214.8" font-family="Helvetica,sans-Serif" font-size="11.00" fill="#000000">ref_providerID</text>
<polygon fill="none" stroke="#000000" points="224.5,-185.7 224.5,-207.7 391.5,-207.7 391.5,-185.7 224.5,-185.7"/>
<image xlink:href="../../images/primaryKeys.png" width="11px" height="12px" preserveAspectRatio="xMinYMin meet" x="229.5" y="-202.7"/>
<text text-anchor="start" x="244.5" y="-192.8" font-family="Helvetica,sans-Serif" font-size="11.00" fill="#000000">pid</text>
<polygon fill="#ffffff" stroke="transparent" points="224.5,-163.7 224.5,-185.7 391.5,-185.7 391.5,-163.7 224.5,-163.7"/>
<polygon fill="none" stroke="#000000" points="224.5,-163.7 224.5,-185.7 391.5,-185.7 391.5,-163.7 224.5,-163.7"/>
<text text-anchor="start" x="244.5" y="-170.8" font-family="Helvetica,sans-Serif" font-size="11.00" fill="#000000">uuid</text>
<polygon fill="none" stroke="#000000" points="224.5,-141.7 224.5,-163.7 391.5,-163.7 391.5,-141.7 224.5,-141.7"/>
<image xlink:href="../../images/foreignKeys.png" width="11px" height="12px" preserveAspectRatio="xMinYMin meet" x="229.5" y="-158.7"/>
<text text-anchor="start" x="244.5" y="-148.8" font-family="Helvetica,sans-Serif" font-size="11.00" fill="#000000">created_by</text>
<polygon fill="none" stroke="#000000" points="224.5,-119.7 224.5,-141.7 391.5,-141.7 391.5,-119.7 224.5,-119.7"/>
<image xlink:href="../../images/foreignKeys.png" width="11px" height="12px" preserveAspectRatio="xMinYMin meet" x="229.5" y="-136.7"/>
<text text-anchor="start" x="244.5" y="-126.8" font-family="Helvetica,sans-Serif" font-size="11.00" fill="#000000">updated_by</text>
<polygon fill="none" stroke="#000000" points="224.5,-100.7 224.5,-119.7 391.5,-119.7 391.5,-100.7 224.5,-100.7"/>
<text text-anchor="start" x="227.5" y="-106.8" font-family="Helvetica,sans-Serif" font-size="11.00" fill="#000000">...</text>
<polygon fill="#ffffff" stroke="transparent" points="224.5,-81.7 224.5,-100.7 298.5,-100.7 298.5,-81.7 224.5,-81.7"/>
<polygon fill="none" stroke="#000000" points="224.5,-81.7 224.5,-100.7 298.5,-100.7 298.5,-81.7 224.5,-81.7"/>
<text text-anchor="start" x="227.5" y="-87.8" font-family="Helvetica,sans-Serif" font-size="11.00" fill="#000000">&lt; 5</text>
<polygon fill="#ffffff" stroke="transparent" points="298.5,-81.7 298.5,-100.7 337.5,-100.7 337.5,-81.7 298.5,-81.7"/>
<polygon fill="none" stroke="#000000" points="298.5,-81.7 298.5,-100.7 337.5,-100.7 337.5,-81.7 298.5,-81.7"/>
<text text-anchor="start" x="328.3862" y="-87.8" font-family="Helvetica,sans-Serif" font-size="11.00" fill="#000000"> &#160;</text>
<polygon fill="#ffffff" stroke="transparent" points="337.5,-81.7 337.5,-100.7 391.5,-100.7 391.5,-81.7 337.5,-81.7"/>
<polygon fill="none" stroke="#000000" points="337.5,-81.7 337.5,-100.7 391.5,-100.7 391.5,-81.7 337.5,-81.7"/>
<text text-anchor="start" x="366.7904" y="-87.8" font-family="Helvetica,sans-Serif" font-size="11.00" fill="#000000">85 &gt;</text>
</a>
</g>
</g>
<!-- users -->
<g id="node2" class="node">
<title>users</title>
<g id="a_node2"><a xlink:href="../../tables/users.html" xlink:title="users" target="_top">
<polygon fill="#ffffff" stroke="transparent" points="8,-38.2 8,-253.2 175,-253.2 175,-38.2 8,-38.2"/>
<polygon fill="#f5f5f5" stroke="transparent" points="8.5,-229.7 8.5,-252.7 175.5,-252.7 175.5,-229.7 8.5,-229.7"/>
<polygon fill="none" stroke="#000000" points="8.5,-229.7 8.5,-252.7 175.5,-252.7 175.5,-229.7 8.5,-229.7"/>
<text text-anchor="start" x="13.5" y="-238.3" font-family="Helvetica,sans-Serif" font-weight="bold" font-size="11.00" fill="#000000">users</text>
<text text-anchor="start" x="140.5437" y="-237.8" font-family="Helvetica,sans-Serif" font-size="11.00" fill="#000000">[table]</text>
<polygon fill="none" stroke="#000000" points="8.5,-207.7 8.5,-229.7 175.5,-229.7 175.5,-207.7 8.5,-207.7"/>
<image xlink:href="../../images/primaryKeys.png" width="11px" height="12px" preserveAspectRatio="xMinYMin meet" x="13.5" y="-224.7"/>
<text text-anchor="start" x="28.5" y="-214.8" font-family="Helvetica,sans-Serif" font-size="11.00" fill="#000000">id</text>
<polygon fill="none" stroke="#000000" points="8.5,-185.7 8.5,-207.7 175.5,-207.7 175.5,-185.7 8.5,-185.7"/>
<image xlink:href="../../images/primaryKeys.png" width="11px" height="12px" preserveAspectRatio="xMinYMin meet" x="13.5" y="-202.7"/>
<text text-anchor="start" x="28.5" y="-192.8" font-family="Helvetica,sans-Serif" font-size="11.00" fill="#000000">username</text>
<polygon fill="none" stroke="#000000" points="8.5,-163.7 8.5,-185.7 175.5,-185.7 175.5,-163.7 8.5,-163.7"/>
<image xlink:href="../../images/foreignKeys.png" width="11px" height="12px" preserveAspectRatio="xMinYMin meet" x="13.5" y="-180.7"/>
<text text-anchor="start" x="28.5" y="-170.8" font-family="Helvetica,sans-Serif" font-size="11.00" fill="#000000">facility_id</text>
<polygon fill="#ffffff" stroke="transparent" points="8.5,-141.7 8.5,-163.7 175.5,-163.7 175.5,-141.7 8.5,-141.7"/>
<polygon fill="none" stroke="#000000" points="8.5,-141.7 8.5,-163.7 175.5,-163.7 175.5,-141.7 8.5,-141.7"/>
<text text-anchor="start" x="28.5" y="-148.8" font-family="Helvetica,sans-Serif" font-size="11.00" fill="#000000">abook_type</text>
<polygon fill="#ffffff" stroke="transparent" points="8.5,-119.7 8.5,-141.7 175.5,-141.7 175.5,-119.7 8.5,-119.7"/>
<polygon fill="none" stroke="#000000" points="8.5,-119.7 8.5,-141.7 175.5,-141.7 175.5,-119.7 8.5,-119.7"/>
<text text-anchor="start" x="28.5" y="-126.8" font-family="Helvetica,sans-Serif" font-size="11.00" fill="#000000">uuid</text>
<polygon fill="#ffffff" stroke="transparent" points="8.5,-97.7 8.5,-119.7 175.5,-119.7 175.5,-97.7 8.5,-97.7"/>
<polygon fill="none" stroke="#000000" points="8.5,-97.7 8.5,-119.7 175.5,-119.7 175.5,-97.7 8.5,-97.7"/>
<text text-anchor="start" x="28.5" y="-104.8" font-family="Helvetica,sans-Serif" font-size="11.00" fill="#000000">google_signin_email</text>
<polygon fill="none" stroke="#000000" points="8.5,-75.7 8.5,-97.7 175.5,-97.7 175.5,-75.7 8.5,-75.7"/>
<image xlink:href="../../images/foreignKeys.png" width="11px" height="12px" preserveAspectRatio="xMinYMin meet" x="13.5" y="-92.7"/>
<text text-anchor="start" x="28.5" y="-82.8" font-family="Helvetica,sans-Serif" font-size="11.00" fill="#000000">billing_facility_id</text>
<polygon fill="none" stroke="#000000" points="8.5,-56.7 8.5,-75.7 175.5,-75.7 175.5,-56.7 8.5,-56.7"/>
<text text-anchor="start" x="11.5" y="-62.8" font-family="Helvetica,sans-Serif" font-size="11.00" fill="#000000">...</text>
<polygon fill="#ffffff" stroke="transparent" points="8.5,-37.7 8.5,-56.7 82.5,-56.7 82.5,-37.7 8.5,-37.7"/>
<polygon fill="none" stroke="#000000" points="8.5,-37.7 8.5,-56.7 82.5,-56.7 82.5,-37.7 8.5,-37.7"/>
<text text-anchor="start" x="11.5" y="-43.8" font-family="Helvetica,sans-Serif" font-size="11.00" fill="#000000">&lt; 2</text>
<polygon fill="#ffffff" stroke="transparent" points="82.5,-37.7 82.5,-56.7 121.5,-56.7 121.5,-37.7 82.5,-37.7"/>
<polygon fill="none" stroke="#000000" points="82.5,-37.7 82.5,-56.7 121.5,-56.7 121.5,-37.7 82.5,-37.7"/>
<text text-anchor="start" x="112.3862" y="-43.8" font-family="Helvetica,sans-Serif" font-size="11.00" fill="#000000"> &#160;</text>
<polygon fill="#ffffff" stroke="transparent" points="121.5,-37.7 121.5,-56.7 175.5,-56.7 175.5,-37.7 121.5,-37.7"/>
<polygon fill="none" stroke="#000000" points="121.5,-37.7 121.5,-56.7 175.5,-56.7 175.5,-37.7 121.5,-37.7"/>
<text text-anchor="start" x="150.7904" y="-43.8" font-family="Helvetica,sans-Serif" font-size="11.00" fill="#000000">61 &gt;</text>
</a>
</g>
</g>
<!-- patient_data&#45;&gt;users -->
<g id="edge1" class="edge">
<title>patient_data:w&#45;&gt;users:e</title>
<path fill="none" stroke="#000000" d="M210.8768,-157.4466C194.2322,-172.5798 206.0399,-218.7 175.5,-218.7"/>
<polygon fill="#000000" stroke="#000000" points="216.9454,-155.3322 225.6845,-156.0996 220.7227,-154.0161 224.5,-152.7 224.5,-152.7 224.5,-152.7 220.7227,-154.0161 223.3155,-149.3004 216.9454,-155.3322 216.9454,-155.3322"/>
<ellipse fill="none" stroke="#000000" cx="213.9236" cy="-156.3851" rx="3.2" ry="3.2"/>
</g>
<!-- patient_data&#45;&gt;users -->
<g id="edge2" class="edge">
<title>patient_data:w&#45;&gt;users:e</title>
<path fill="none" stroke="#000000" d="M210.1297,-237.2625C198.5865,-231.075 193.4041,-218.7 175.5,-218.7"/>
<polygon fill="#000000" stroke="#000000" points="216.7195,-238.8388 223.6625,-244.2012 220.6098,-239.7694 224.5,-240.7 224.5,-240.7 224.5,-240.7 220.6098,-239.7694 225.3375,-237.1988 216.7195,-238.8388 216.7195,-238.8388"/>
<ellipse fill="none" stroke="#000000" cx="213.6073" cy="-238.0943" rx="3.2" ry="3.2"/>
</g>
<!-- patient_data&#45;&gt;users -->
<g id="edge3" class="edge">
<title>patient_data:w&#45;&gt;users:e</title>
<path fill="none" stroke="#000000" d="M209.9909,-218.7C198.6774,-218.7 191.4931,-218.7 175.5,-218.7"/>
<polygon fill="#000000" stroke="#000000" points="216.5,-218.7001 224.5,-222.3 220.5,-218.7 224.5,-218.7 224.5,-218.7 224.5,-218.7 220.5,-218.7 224.5,-215.1 216.5,-218.7001 216.5,-218.7001"/>
<ellipse fill="none" stroke="#000000" cx="213.3" cy="-218.7001" rx="3.2" ry="3.2"/>
</g>
<!-- patient_data&#45;&gt;users -->
<g id="edge4" class="edge">
<title>patient_data:w&#45;&gt;users:e</title>
<path fill="none" stroke="#000000" d="M210.4863,-135.1849C189.2228,-153.1176 214.1452,-218.7 175.5,-218.7"/>
<polygon fill="#000000" stroke="#000000" points="216.8807,-133.1385 225.5973,-134.1287 220.6903,-131.9193 224.5,-130.7 224.5,-130.7 224.5,-130.7 220.6903,-131.9193 223.4027,-127.2713 216.8807,-133.1385 216.8807,-133.1385"/>
<ellipse fill="none" stroke="#000000" cx="213.833" cy="-134.1139" rx="3.2" ry="3.2"/>
</g>
<!-- pro_assessments -->
<g id="node3" class="node">
<title>pro_assessments</title>
<g id="a_node3"><a xlink:href="../../tables/pro_assessments.html" xlink:title="pro_assessments" target="_top">
<polygon fill="#ffffff" stroke="transparent" points="440,-83.7 440,-393.7 647,-393.7 647,-83.7 440,-83.7"/>
<polygon fill="#f5f5f5" stroke="transparent" points="442.5,-368.7 442.5,-391.7 645.5,-391.7 645.5,-368.7 442.5,-368.7"/>
<polygon fill="none" stroke="#000000" points="442.5,-368.7 442.5,-391.7 645.5,-391.7 645.5,-368.7 442.5,-368.7"/>
<text text-anchor="start" x="447.5" y="-377.3" font-family="Helvetica,sans-Serif" font-weight="bold" font-size="11.00" fill="#000000">pro_assessments</text>
<text text-anchor="start" x="610.5437" y="-376.8" font-family="Helvetica,sans-Serif" font-size="11.00" fill="#000000">[table]</text>
<polygon fill="none" stroke="#000000" points="442.5,-346.7 442.5,-368.7 578.5,-368.7 578.5,-346.7 442.5,-346.7"/>
<image xlink:href="../../images/primaryKeys.png" width="11px" height="12px" preserveAspectRatio="xMinYMin meet" x="447.5" y="-363.7"/>
<text text-anchor="start" x="462.5" y="-353.8" font-family="Helvetica,sans-Serif" font-size="11.00" fill="#000000">id</text>
<polygon fill="none" stroke="#000000" points="578.5,-346.7 578.5,-368.7 645.5,-368.7 645.5,-346.7 578.5,-346.7"/>
<text text-anchor="start" x="581.5" y="-354.4" font-family="Helvetica,sans-Serif" font-size="11.00" fill="#000000">int[10]</text>
<polygon fill="none" stroke="#000000" points="442.5,-324.7 442.5,-346.7 578.5,-346.7 578.5,-324.7 442.5,-324.7"/>
<text text-anchor="start" x="462.5" y="-331.8" font-family="Helvetica,sans-Serif" font-size="11.00" fill="#000000">form_oid</text>
<polygon fill="none" stroke="#000000" points="578.5,-324.7 578.5,-346.7 645.5,-346.7 645.5,-324.7 578.5,-324.7"/>
<text text-anchor="start" x="581.4365" y="-332.4" font-family="Helvetica,sans-Serif" font-size="11.00" fill="#000000">varchar[255]</text>
<polygon fill="none" stroke="#000000" points="442.5,-302.7 442.5,-324.7 578.5,-324.7 578.5,-302.7 442.5,-302.7"/>
<text text-anchor="start" x="462.5" y="-309.8" font-family="Helvetica,sans-Serif" font-size="11.00" fill="#000000">form_name</text>
<polygon fill="none" stroke="#000000" points="578.5,-302.7 578.5,-324.7 645.5,-324.7 645.5,-302.7 578.5,-302.7"/>
<text text-anchor="start" x="581.4365" y="-310.4" font-family="Helvetica,sans-Serif" font-size="11.00" fill="#000000">varchar[255]</text>
<polygon fill="none" stroke="#000000" points="442.5,-280.7 442.5,-302.7 578.5,-302.7 578.5,-280.7 442.5,-280.7"/>
<image xlink:href="../../images/foreignKeys.png" width="11px" height="12px" preserveAspectRatio="xMinYMin meet" x="447.5" y="-297.7"/>
<text text-anchor="start" x="462.5" y="-287.8" font-family="Helvetica,sans-Serif" font-size="11.00" fill="#000000">user_id</text>
<polygon fill="none" stroke="#000000" points="578.5,-280.7 578.5,-302.7 645.5,-302.7 645.5,-280.7 578.5,-280.7"/>
<text text-anchor="start" x="581.5" y="-288.4" font-family="Helvetica,sans-Serif" font-size="11.00" fill="#000000">int[10]</text>
<polygon fill="none" stroke="#000000" points="442.5,-258.7 442.5,-280.7 578.5,-280.7 578.5,-258.7 442.5,-258.7"/>
<text text-anchor="start" x="462.5" y="-265.8" font-family="Helvetica,sans-Serif" font-size="11.00" fill="#000000">deadline</text>
<polygon fill="none" stroke="#000000" points="578.5,-258.7 578.5,-280.7 645.5,-280.7 645.5,-258.7 578.5,-258.7"/>
<text text-anchor="start" x="581.5" y="-266.4" font-family="Helvetica,sans-Serif" font-size="11.00" fill="#000000">datetime[19]</text>
<polygon fill="none" stroke="#000000" points="442.5,-236.7 442.5,-258.7 578.5,-258.7 578.5,-236.7 442.5,-236.7"/>
<image xlink:href="../../images/foreignKeys.png" width="11px" height="12px" preserveAspectRatio="xMinYMin meet" x="447.5" y="-253.7"/>
<text text-anchor="start" x="462.5" y="-243.8" font-family="Helvetica,sans-Serif" font-size="11.00" fill="#000000">patient_id</text>
<polygon fill="none" stroke="#000000" points="578.5,-236.7 578.5,-258.7 645.5,-258.7 645.5,-236.7 578.5,-236.7"/>
<text text-anchor="start" x="581.5" y="-244.4" font-family="Helvetica,sans-Serif" font-size="11.00" fill="#000000">int[10]</text>
<polygon fill="none" stroke="#000000" points="442.5,-214.7 442.5,-236.7 578.5,-236.7 578.5,-214.7 442.5,-214.7"/>
<text text-anchor="start" x="462.5" y="-221.8" font-family="Helvetica,sans-Serif" font-size="11.00" fill="#000000">assessment_oid</text>
<polygon fill="none" stroke="#000000" points="578.5,-214.7 578.5,-236.7 645.5,-236.7 645.5,-214.7 578.5,-214.7"/>
<text text-anchor="start" x="581.4365" y="-222.4" font-family="Helvetica,sans-Serif" font-size="11.00" fill="#000000">varchar[255]</text>
<polygon fill="none" stroke="#000000" points="442.5,-192.7 442.5,-214.7 578.5,-214.7 578.5,-192.7 442.5,-192.7"/>
<text text-anchor="start" x="462.5" y="-199.8" font-family="Helvetica,sans-Serif" font-size="11.00" fill="#000000">status</text>
<polygon fill="none" stroke="#000000" points="578.5,-192.7 578.5,-214.7 645.5,-214.7 645.5,-192.7 578.5,-192.7"/>
<text text-anchor="start" x="581.4365" y="-200.4" font-family="Helvetica,sans-Serif" font-size="11.00" fill="#000000">varchar[255]</text>
<polygon fill="none" stroke="#000000" points="442.5,-170.7 442.5,-192.7 578.5,-192.7 578.5,-170.7 442.5,-170.7"/>
<text text-anchor="start" x="462.5" y="-177.8" font-family="Helvetica,sans-Serif" font-size="11.00" fill="#000000">score</text>
<polygon fill="none" stroke="#000000" points="578.5,-170.7 578.5,-192.7 645.5,-192.7 645.5,-170.7 578.5,-170.7"/>
<text text-anchor="start" x="581.5" y="-178.4" font-family="Helvetica,sans-Serif" font-size="11.00" fill="#000000">double[22]</text>
<polygon fill="none" stroke="#000000" points="442.5,-148.7 442.5,-170.7 578.5,-170.7 578.5,-148.7 442.5,-148.7"/>
<text text-anchor="start" x="462.5" y="-155.8" font-family="Helvetica,sans-Serif" font-size="11.00" fill="#000000">error</text>
<polygon fill="none" stroke="#000000" points="578.5,-148.7 578.5,-170.7 645.5,-170.7 645.5,-148.7 578.5,-148.7"/>
<text text-anchor="start" x="581.5" y="-156.4" font-family="Helvetica,sans-Serif" font-size="11.00" fill="#000000">double[22]</text>
<polygon fill="none" stroke="#000000" points="442.5,-126.7 442.5,-148.7 578.5,-148.7 578.5,-126.7 442.5,-126.7"/>
<text text-anchor="start" x="462.5" y="-133.8" font-family="Helvetica,sans-Serif" font-size="11.00" fill="#000000">created_at</text>
<polygon fill="none" stroke="#000000" points="578.5,-126.7 578.5,-148.7 645.5,-148.7 645.5,-126.7 578.5,-126.7"/>
<text text-anchor="start" x="581.5" y="-134.4" font-family="Helvetica,sans-Serif" font-size="11.00" fill="#000000">datetime[19]</text>
<polygon fill="none" stroke="#000000" points="442.5,-104.7 442.5,-126.7 578.5,-126.7 578.5,-104.7 442.5,-104.7"/>
<text text-anchor="start" x="462.5" y="-111.8" font-family="Helvetica,sans-Serif" font-size="11.00" fill="#000000">updated_at</text>
<polygon fill="none" stroke="#000000" points="578.5,-104.7 578.5,-126.7 645.5,-126.7 645.5,-104.7 578.5,-104.7"/>
<text text-anchor="start" x="581.5" y="-112.4" font-family="Helvetica,sans-Serif" font-size="11.00" fill="#000000">datetime[19]</text>
<polygon fill="#ffffff" stroke="transparent" points="442.5,-85.7 442.5,-104.7 514.5,-104.7 514.5,-85.7 442.5,-85.7"/>
<polygon fill="none" stroke="#000000" points="442.5,-85.7 442.5,-104.7 514.5,-104.7 514.5,-85.7 442.5,-85.7"/>
<text text-anchor="start" x="445.5" y="-91.8" font-family="Helvetica,sans-Serif" font-size="11.00" fill="#000000">&lt; 2</text>
<polygon fill="#ffffff" stroke="transparent" points="514.5,-85.7 514.5,-104.7 578.5,-104.7 578.5,-85.7 514.5,-85.7"/>
<polygon fill="none" stroke="#000000" points="514.5,-85.7 514.5,-104.7 578.5,-104.7 578.5,-85.7 514.5,-85.7"/>
<text text-anchor="start" x="569.3862" y="-91.8" font-family="Helvetica,sans-Serif" font-size="11.00" fill="#000000"> &#160;</text>
<polygon fill="#ffffff" stroke="transparent" points="578.5,-85.7 578.5,-104.7 645.5,-104.7 645.5,-85.7 578.5,-85.7"/>
<polygon fill="none" stroke="#000000" points="578.5,-85.7 578.5,-104.7 645.5,-104.7 645.5,-85.7 578.5,-85.7"/>
<text text-anchor="start" x="626.9053" y="-91.8" font-family="Helvetica,sans-Serif" font-size="11.00" fill="#000000">0 &gt;</text>
<polygon fill="none" stroke="#000000" stroke-width="2" points="441,-84.7 441,-392.7 646,-392.7 646,-84.7 441,-84.7"/>
</a>
</g>
</g>
<!-- pro_assessments&#45;&gt;patient_data -->
<g id="edge5" class="edge">
<title>pro_assessments:w&#45;&gt;patient_data:e</title>
<path fill="none" stroke="#000000" d="M428.637,-242.9935C413.7732,-230.368 417.5451,-196.7 391.5,-196.7"/>
<polygon fill="#000000" stroke="#000000" points="434.9247,-245.1281 441.3427,-251.1089 438.7123,-246.4141 442.5,-247.7 442.5,-247.7 442.5,-247.7 438.7123,-246.4141 443.6573,-244.2911 434.9247,-245.1281 434.9247,-245.1281"/>
<ellipse fill="none" stroke="#000000" cx="431.8945" cy="-244.0994" rx="3.2" ry="3.2"/>
</g>
<!-- pro_assessments&#45;&gt;users -->
<g id="edge6" class="edge">
<title>pro_assessments:w&#45;&gt;users:e</title>
<path fill="none" stroke="#000000" d="M428.5751,-296.1043C418.061,-304.5666 417.2137,-322.8649 399,-329.7 322.852,-358.2761 282.6428,-376.3246 216,-329.7 172.9707,-299.5959 228.0145,-218.7 175.5,-218.7"/>
<polygon fill="#000000" stroke="#000000" points="434.8724,-294.1126 443.5856,-295.1324 438.6862,-292.9063 442.5,-291.7 442.5,-291.7 442.5,-291.7 438.6862,-292.9063 441.4144,-288.2676 434.8724,-294.1126 434.8724,-294.1126"/>
<ellipse fill="none" stroke="#000000" cx="431.8214" cy="-295.0776" rx="3.2" ry="3.2"/>
</g>
</g>
</svg>
