<?xml version="1.0" encoding="UTF-8" standalone="no"?>
<!DOCTYPE svg PUBLIC "-//W3C//DTD SVG 1.1//EN"
 "http://www.w3.org/Graphics/SVG/1.1/DTD/svg11.dtd">
<!-- Generated by graphviz version 2.40.1 (20161225.0304)
 -->
<!-- Title: twoDegreesRelationshipsDiagram Pages: 1 -->
<svg width="1424pt" height="850pt"
 viewBox="0.00 0.00 1424.00 849.89" xmlns="http://www.w3.org/2000/svg" xmlns:xlink="http://www.w3.org/1999/xlink">
<g id="graph0" class="graph" transform="scale(1 1) rotate(0) translate(4 845.8868)">
<title>twoDegreesRelationshipsDiagram</title>
<polygon fill="#ffffff" stroke="transparent" points="-4,4 -4,-845.8868 1420,-845.8868 1420,4 -4,4"/>
<text text-anchor="middle" x="72.4936" y="-7.3" font-family="Helvetica,sans-Serif" font-size="11.00" fill="#000000">Generated by SchemaSpy</text>
<!-- form_encounter -->
<g id="node1" class="node">
<title>form_encounter</title>
<g id="a_node1"><a xlink:href="../../tables/form_encounter.html" xlink:title="form_encounter" target="_top">
<polygon fill="#ffffff" stroke="transparent" points="496.5,-173.3868 496.5,-234.3868 641.5,-234.3868 641.5,-173.3868 496.5,-173.3868"/>
<polygon fill="#f5f5f5" stroke="transparent" points="497,-210.8868 497,-233.8868 642,-233.8868 642,-210.8868 497,-210.8868"/>
<polygon fill="none" stroke="#000000" points="497,-210.8868 497,-233.8868 642,-233.8868 642,-210.8868 497,-210.8868"/>
<text text-anchor="start" x="502" y="-219.4868" font-family="Helvetica,sans-Serif" font-weight="bold" font-size="11.00" fill="#000000">form_encounter</text>
<text text-anchor="start" x="607.5219" y="-218.9868" font-family="Helvetica,sans-Serif" font-size="11.00" fill="#000000">[table]</text>
<polygon fill="none" stroke="#000000" points="497,-191.8868 497,-210.8868 642,-210.8868 642,-191.8868 497,-191.8868"/>
<text text-anchor="start" x="500" y="-197.9868" font-family="Helvetica,sans-Serif" font-size="11.00" fill="#000000">...</text>
<polygon fill="#ffffff" stroke="transparent" points="497,-172.8868 497,-191.8868 560,-191.8868 560,-172.8868 497,-172.8868"/>
<polygon fill="none" stroke="#000000" points="497,-172.8868 497,-191.8868 560,-191.8868 560,-172.8868 497,-172.8868"/>
<text text-anchor="start" x="500" y="-178.9868" font-family="Helvetica,sans-Serif" font-size="11.00" fill="#000000">&lt; 1</text>
<polygon fill="#ffffff" stroke="transparent" points="560,-172.8868 560,-191.8868 593,-191.8868 593,-172.8868 560,-172.8868"/>
<polygon fill="none" stroke="#000000" points="560,-172.8868 560,-191.8868 593,-191.8868 593,-172.8868 560,-172.8868"/>
<text text-anchor="start" x="583.8862" y="-178.9868" font-family="Helvetica,sans-Serif" font-size="11.00" fill="#000000"> &#160;</text>
<polygon fill="#ffffff" stroke="transparent" points="593,-172.8868 593,-191.8868 642,-191.8868 642,-172.8868 593,-172.8868"/>
<polygon fill="none" stroke="#000000" points="593,-172.8868 593,-191.8868 642,-191.8868 642,-172.8868 593,-172.8868"/>
<text text-anchor="start" x="617.2904" y="-178.9868" font-family="Helvetica,sans-Serif" font-size="11.00" fill="#000000">19 &gt;</text>
</a>
</g>
</g>
<!-- patient_data -->
<g id="node2" class="node">
<title>patient_data</title>
<g id="a_node2"><a xlink:href="../../tables/patient_data.html" xlink:title="patient_data" target="_top">
<polygon fill="#ffffff" stroke="transparent" points="307,-173.3868 307,-234.3868 431,-234.3868 431,-173.3868 307,-173.3868"/>
<polygon fill="#f5f5f5" stroke="transparent" points="307,-210.8868 307,-233.8868 431,-233.8868 431,-210.8868 307,-210.8868"/>
<polygon fill="none" stroke="#000000" points="307,-210.8868 307,-233.8868 431,-233.8868 431,-210.8868 307,-210.8868"/>
<text text-anchor="start" x="312" y="-219.4868" font-family="Helvetica,sans-Serif" font-weight="bold" font-size="11.00" fill="#000000">patient_data</text>
<text text-anchor="start" x="396.5219" y="-218.9868" font-family="Helvetica,sans-Serif" font-size="11.00" fill="#000000">[table]</text>
<polygon fill="none" stroke="#000000" points="307,-191.8868 307,-210.8868 431,-210.8868 431,-191.8868 307,-191.8868"/>
<text text-anchor="start" x="310" y="-197.9868" font-family="Helvetica,sans-Serif" font-size="11.00" fill="#000000">...</text>
<polygon fill="#ffffff" stroke="transparent" points="307,-172.8868 307,-191.8868 360,-191.8868 360,-172.8868 307,-172.8868"/>
<polygon fill="none" stroke="#000000" points="307,-172.8868 307,-191.8868 360,-191.8868 360,-172.8868 307,-172.8868"/>
<text text-anchor="start" x="310" y="-178.9868" font-family="Helvetica,sans-Serif" font-size="11.00" fill="#000000">&lt; 9</text>
<polygon fill="#ffffff" stroke="transparent" points="360,-172.8868 360,-191.8868 388,-191.8868 388,-172.8868 360,-172.8868"/>
<polygon fill="none" stroke="#000000" points="360,-172.8868 360,-191.8868 388,-191.8868 388,-172.8868 360,-172.8868"/>
<text text-anchor="start" x="378.8862" y="-178.9868" font-family="Helvetica,sans-Serif" font-size="11.00" fill="#000000"> &#160;</text>
<polygon fill="#ffffff" stroke="transparent" points="388,-172.8868 388,-191.8868 431,-191.8868 431,-172.8868 388,-172.8868"/>
<polygon fill="none" stroke="#000000" points="388,-172.8868 388,-191.8868 431,-191.8868 431,-172.8868 388,-172.8868"/>
<text text-anchor="start" x="406.2904" y="-178.9868" font-family="Helvetica,sans-Serif" font-size="11.00" fill="#000000">95 &gt;</text>
</a>
</g>
</g>
<!-- form_encounter&#45;&gt;patient_data -->
<g id="edge1" class="edge">
<title>form_encounter:w&#45;&gt;patient_data:e</title>
<path fill="none" stroke="#000000" d="M482.5303,-200.8868C464.1432,-200.8868 454.8333,-200.8868 431,-200.8868"/>
<polygon fill="#000000" stroke="#000000" points="489,-200.8868 497,-204.4868 493,-200.8868 497,-200.8868 497,-200.8868 497,-200.8868 493,-200.8868 497,-197.2868 489,-200.8868 489,-200.8868"/>
<ellipse fill="none" stroke="#000000" cx="485.8" cy="-200.8869" rx="3.2" ry="3.2"/>
</g>
<!-- users -->
<g id="node3" class="node">
<title>users</title>
<g id="a_node3"><a xlink:href="../../tables/users.html" xlink:title="users" target="_top">
<polygon fill="#ffffff" stroke="transparent" points="162.5,-115.3868 162.5,-176.3868 237.5,-176.3868 237.5,-115.3868 162.5,-115.3868"/>
<polygon fill="#f5f5f5" stroke="transparent" points="163,-152.8868 163,-175.8868 238,-175.8868 238,-152.8868 163,-152.8868"/>
<polygon fill="none" stroke="#000000" points="163,-152.8868 163,-175.8868 238,-175.8868 238,-152.8868 163,-152.8868"/>
<text text-anchor="start" x="168" y="-161.4868" font-family="Helvetica,sans-Serif" font-weight="bold" font-size="11.00" fill="#000000">users</text>
<text text-anchor="start" x="203.5219" y="-160.9868" font-family="Helvetica,sans-Serif" font-size="11.00" fill="#000000">[table]</text>
<polygon fill="none" stroke="#000000" points="163,-133.8868 163,-152.8868 238,-152.8868 238,-133.8868 163,-133.8868"/>
<text text-anchor="start" x="166" y="-139.9868" font-family="Helvetica,sans-Serif" font-size="11.00" fill="#000000">...</text>
<polygon fill="#ffffff" stroke="transparent" points="163,-114.8868 163,-133.8868 191,-133.8868 191,-114.8868 163,-114.8868"/>
<polygon fill="none" stroke="#000000" points="163,-114.8868 163,-133.8868 191,-133.8868 191,-114.8868 163,-114.8868"/>
<text text-anchor="start" x="166" y="-120.9868" font-family="Helvetica,sans-Serif" font-size="11.00" fill="#000000">&lt; 2</text>
<polygon fill="#ffffff" stroke="transparent" points="191,-114.8868 191,-133.8868 207,-133.8868 207,-114.8868 191,-114.8868"/>
<polygon fill="none" stroke="#000000" points="191,-114.8868 191,-133.8868 207,-133.8868 207,-114.8868 191,-114.8868"/>
<text text-anchor="start" x="197.8862" y="-120.9868" font-family="Helvetica,sans-Serif" font-size="11.00" fill="#000000"> &#160;</text>
<polygon fill="#ffffff" stroke="transparent" points="207,-114.8868 207,-133.8868 238,-133.8868 238,-114.8868 207,-114.8868"/>
<polygon fill="none" stroke="#000000" points="207,-114.8868 207,-133.8868 238,-133.8868 238,-114.8868 207,-114.8868"/>
<text text-anchor="start" x="213.2904" y="-120.9868" font-family="Helvetica,sans-Serif" font-size="11.00" fill="#000000">90 &gt;</text>
</a>
</g>
</g>
<!-- patient_data&#45;&gt;users -->
<g id="edge2" class="edge">
<title>patient_data:w&#45;&gt;users:e</title>
<path fill="none" stroke="#000000" d="M295.5578,-191.3589C268.7592,-163.2042 273.6799,-119.7305 238,-142.8868"/>
<polygon fill="#000000" stroke="#000000" points="300.8523,-195.7676 304.6964,-203.6533 303.9261,-198.3272 307,-200.8868 307,-200.8868 307,-200.8868 303.9261,-198.3272 309.3036,-198.1203 300.8523,-195.7676 300.8523,-195.7676"/>
<ellipse fill="none" stroke="#000000" cx="298.3932" cy="-193.7199" rx="3.2" ry="3.2"/>
</g>
<!-- patient_data&#45;&gt;users -->
<g id="edge3" class="edge">
<title>patient_data:w&#45;&gt;users:e</title>
<path fill="none" stroke="#000000" d="M294.1762,-194.129C268.9194,-174.4962 273.054,-131.5118 238,-142.8868"/>
<polygon fill="#000000" stroke="#000000" points="299.9226,-197.1571 305.3217,-204.0716 303.4613,-199.022 307,-200.8868 307,-200.8868 307,-200.8868 303.4613,-199.022 308.6783,-197.702 299.9226,-197.1571 299.9226,-197.1571"/>
<ellipse fill="none" stroke="#000000" cx="297.0916" cy="-195.6653" rx="3.2" ry="3.2"/>
</g>
<!-- patient_data&#45;&gt;users -->
<g id="edge5" class="edge">
<title>patient_data:w&#45;&gt;users:e</title>
<path fill="none" stroke="#000000" d="M292.8509,-197.7685C269.0546,-185.7213 272.428,-142.8868 238,-142.8868"/>
<polygon fill="#000000" stroke="#000000" points="299.1875,-199.1649 306.2252,-204.4024 303.0937,-200.0259 307,-200.8868 307,-200.8868 307,-200.8868 303.0937,-200.0259 307.7748,-197.3712 299.1875,-199.1649 299.1875,-199.1649"/>
<ellipse fill="none" stroke="#000000" cx="296.0625" cy="-198.4762" rx="3.2" ry="3.2"/>
</g>
<!-- patient_data&#45;&gt;users -->
<g id="edge6" class="edge">
<title>patient_data:w&#45;&gt;users:e</title>
<path fill="none" stroke="#000000" d="M292.5281,-202.4243C269.0844,-198.0612 272.2715,-154.0079 238,-142.8868"/>
<polygon fill="#000000" stroke="#000000" points="299.0448,-201.732 307.3804,-204.4666 303.0224,-201.3094 307,-200.8868 307,-200.8868 307,-200.8868 303.0224,-201.3094 306.6196,-197.3069 299.0448,-201.732 299.0448,-201.732"/>
<ellipse fill="none" stroke="#000000" cx="295.8627" cy="-202.0701" rx="3.2" ry="3.2"/>
</g>
<!-- patient_data&#45;&gt;users -->
<g id="edge9" class="edge">
<title>patient_data:w&#45;&gt;users:e</title>
<path fill="none" stroke="#000000" d="M293.8397,-207.0025C268.9555,-212.4654 272.8975,-165.5352 238,-142.8868"/>
<polygon fill="#000000" stroke="#000000" points="299.7451,-204.2583 308.5172,-204.1515 303.3726,-202.5725 307,-200.8868 307,-200.8868 307,-200.8868 303.3726,-202.5725 305.4828,-197.6221 299.7451,-204.2583 299.7451,-204.2583"/>
<ellipse fill="none" stroke="#000000" cx="296.8431" cy="-205.6068" rx="3.2" ry="3.2"/>
</g>
<!-- list_options -->
<g id="node4" class="node">
<title>list_options</title>
<g id="a_node4"><a xlink:href="../../tables/list_options.html" xlink:title="list_options" target="_top">
<polygon fill="#ffffff" stroke="transparent" points="142,-333.3868 142,-394.3868 258,-394.3868 258,-333.3868 142,-333.3868"/>
<polygon fill="#f5f5f5" stroke="transparent" points="142,-370.8868 142,-393.8868 258,-393.8868 258,-370.8868 142,-370.8868"/>
<polygon fill="none" stroke="#000000" points="142,-370.8868 142,-393.8868 258,-393.8868 258,-370.8868 142,-370.8868"/>
<text text-anchor="start" x="147" y="-379.4868" font-family="Helvetica,sans-Serif" font-weight="bold" font-size="11.00" fill="#000000">list_options</text>
<text text-anchor="start" x="223.5219" y="-378.9868" font-family="Helvetica,sans-Serif" font-size="11.00" fill="#000000">[table]</text>
<polygon fill="none" stroke="#000000" points="142,-351.8868 142,-370.8868 258,-370.8868 258,-351.8868 142,-351.8868"/>
<text text-anchor="start" x="145" y="-357.9868" font-family="Helvetica,sans-Serif" font-size="11.00" fill="#000000">...</text>
<polygon fill="#ffffff" stroke="transparent" points="142,-332.8868 142,-351.8868 186,-351.8868 186,-332.8868 142,-332.8868"/>
<polygon fill="none" stroke="#000000" points="142,-332.8868 142,-351.8868 186,-351.8868 186,-332.8868 142,-332.8868"/>
<text text-anchor="start" x="145" y="-338.9868" font-family="Helvetica,sans-Serif" font-size="11.00" fill="#000000"> &#160;</text>
<polygon fill="#ffffff" stroke="transparent" points="186,-332.8868 186,-351.8868 214,-351.8868 214,-332.8868 186,-332.8868"/>
<polygon fill="none" stroke="#000000" points="186,-332.8868 186,-351.8868 214,-351.8868 214,-332.8868 186,-332.8868"/>
<text text-anchor="start" x="204.8862" y="-338.9868" font-family="Helvetica,sans-Serif" font-size="11.00" fill="#000000"> &#160;</text>
<polygon fill="#ffffff" stroke="transparent" points="214,-332.8868 214,-351.8868 258,-351.8868 258,-332.8868 214,-332.8868"/>
<polygon fill="none" stroke="#000000" points="214,-332.8868 214,-351.8868 258,-351.8868 258,-332.8868 214,-332.8868"/>
<text text-anchor="start" x="233.2904" y="-338.9868" font-family="Helvetica,sans-Serif" font-size="11.00" fill="#000000">98 &gt;</text>
</a>
</g>
</g>
<!-- patient_data&#45;&gt;list_options -->
<g id="edge4" class="edge">
<title>patient_data:w&#45;&gt;list_options:e</title>
<path fill="none" stroke="#000000" d="M292.5913,-200.8551C247.1509,-211.9896 326.5609,-348.9024 258,-360.8868"/>
<polygon fill="#000000" stroke="#000000" points="299,-200.8691 306.992,-204.4868 303,-200.878 307,-200.8868 307,-200.8868 307,-200.8868 303,-200.878 307.008,-197.2868 299,-200.8691 299,-200.8691"/>
<ellipse fill="none" stroke="#000000" cx="295.8" cy="-200.862" rx="3.2" ry="3.2"/>
</g>
<!-- patient_data&#45;&gt;list_options -->
<g id="edge7" class="edge">
<title>patient_data:w&#45;&gt;list_options:e</title>
<path fill="none" stroke="#000000" d="M292.5913,-203.6639C247.1509,-224.9102 326.5609,-360.8868 258,-360.8868"/>
<polygon fill="#000000" stroke="#000000" points="299.1446,-202.4009 307.6813,-204.4217 303.0723,-201.6438 307,-200.8868 307,-200.8868 307,-200.8868 303.0723,-201.6438 306.3187,-197.3519 299.1446,-202.4009 299.1446,-202.4009"/>
<ellipse fill="none" stroke="#000000" cx="296.0024" cy="-203.0065" rx="3.2" ry="3.2"/>
</g>
<!-- patient_data&#45;&gt;list_options -->
<g id="edge8" class="edge">
<title>patient_data:w&#45;&gt;list_options:e</title>
<path fill="none" stroke="#000000" d="M293.473,-205.8874C246.1355,-236.1083 326.9966,-372.9473 258,-360.8868"/>
<polygon fill="#000000" stroke="#000000" points="299.4963,-203.6608 308.2483,-204.2635 303.2482,-202.2738 307,-200.8868 307,-200.8868 307,-200.8868 303.2482,-202.2738 305.7517,-197.5101 299.4963,-203.6608 299.4963,-203.6608"/>
<ellipse fill="none" stroke="#000000" cx="296.4948" cy="-204.7704" rx="3.2" ry="3.2"/>
</g>
<!-- facility -->
<g id="node8" class="node">
<title>facility</title>
<g id="a_node8"><a xlink:href="../../tables/facility.html" xlink:title="facility" target="_top">
<polygon fill="#ffffff" stroke="transparent" points="8,-62.3868 8,-123.3868 93,-123.3868 93,-62.3868 8,-62.3868"/>
<polygon fill="#f5f5f5" stroke="transparent" points="8.5,-99.8868 8.5,-122.8868 93.5,-122.8868 93.5,-99.8868 8.5,-99.8868"/>
<polygon fill="none" stroke="#000000" points="8.5,-99.8868 8.5,-122.8868 93.5,-122.8868 93.5,-99.8868 8.5,-99.8868"/>
<text text-anchor="start" x="13.5" y="-108.4868" font-family="Helvetica,sans-Serif" font-weight="bold" font-size="11.00" fill="#000000">facility</text>
<text text-anchor="start" x="59.0219" y="-107.9868" font-family="Helvetica,sans-Serif" font-size="11.00" fill="#000000">[table]</text>
<polygon fill="none" stroke="#000000" points="8.5,-80.8868 8.5,-99.8868 93.5,-99.8868 93.5,-80.8868 8.5,-80.8868"/>
<text text-anchor="start" x="11.5" y="-86.9868" font-family="Helvetica,sans-Serif" font-size="11.00" fill="#000000">...</text>
<polygon fill="#ffffff" stroke="transparent" points="8.5,-61.8868 8.5,-80.8868 37.5,-80.8868 37.5,-61.8868 8.5,-61.8868"/>
<polygon fill="none" stroke="#000000" points="8.5,-61.8868 8.5,-80.8868 37.5,-80.8868 37.5,-61.8868 8.5,-61.8868"/>
<text text-anchor="start" x="11.5" y="-67.9868" font-family="Helvetica,sans-Serif" font-size="11.00" fill="#000000"> &#160;</text>
<polygon fill="#ffffff" stroke="transparent" points="37.5,-61.8868 37.5,-80.8868 57.5,-80.8868 57.5,-61.8868 37.5,-61.8868"/>
<polygon fill="none" stroke="#000000" points="37.5,-61.8868 37.5,-80.8868 57.5,-80.8868 57.5,-61.8868 37.5,-61.8868"/>
<text text-anchor="start" x="48.3862" y="-67.9868" font-family="Helvetica,sans-Serif" font-size="11.00" fill="#000000"> &#160;</text>
<polygon fill="#ffffff" stroke="transparent" points="57.5,-61.8868 57.5,-80.8868 93.5,-80.8868 93.5,-61.8868 57.5,-61.8868"/>
<polygon fill="none" stroke="#000000" points="57.5,-61.8868 57.5,-80.8868 93.5,-80.8868 93.5,-61.8868 57.5,-61.8868"/>
<text text-anchor="start" x="68.7904" y="-67.9868" font-family="Helvetica,sans-Serif" font-size="11.00" fill="#000000">10 &gt;</text>
</a>
</g>
</g>
<!-- users&#45;&gt;facility -->
<g id="edge45" class="edge">
<title>users:w&#45;&gt;facility:e</title>
<path fill="none" stroke="#000000" d="M149.1409,-137.862C125.528,-123.1473 126.883,-84.7305 93.5,-89.8868"/>
<polygon fill="#000000" stroke="#000000" points="155.4791,-140.1599 161.7729,-146.2712 159.2395,-141.5234 163,-142.8868 163,-142.8868 163,-142.8868 159.2395,-141.5234 164.2271,-139.5024 155.4791,-140.1599 155.4791,-140.1599"/>
<ellipse fill="none" stroke="#000000" cx="152.4707" cy="-139.0692" rx="3.2" ry="3.2"/>
</g>
<!-- users&#45;&gt;facility -->
<g id="edge46" class="edge">
<title>users:w&#45;&gt;facility:e</title>
<path fill="none" stroke="#000000" d="M148.503,-142.3846C125.5497,-135.166 126.5795,-95.8477 93.5,-89.8868"/>
<polygon fill="#000000" stroke="#000000" points="155.0048,-142.6098 162.8753,-146.4846 159.0024,-142.7483 163,-142.8868 163,-142.8868 163,-142.8868 159.0024,-142.7483 163.1247,-139.289 155.0048,-142.6098 155.0048,-142.6098"/>
<ellipse fill="none" stroke="#000000" cx="151.8067" cy="-142.499" rx="3.2" ry="3.2"/>
</g>
<!-- procedure_answers -->
<g id="node5" class="node">
<title>procedure_answers</title>
<g id="a_node5"><a xlink:href="../../tables/procedure_answers.html" xlink:title="procedure_answers" target="_top">
<polygon fill="#ffffff" stroke="transparent" points="973.5,-299.3868 973.5,-360.3868 1143.5,-360.3868 1143.5,-299.3868 973.5,-299.3868"/>
<polygon fill="#f5f5f5" stroke="transparent" points="973.5,-336.8868 973.5,-359.8868 1143.5,-359.8868 1143.5,-336.8868 973.5,-336.8868"/>
<polygon fill="none" stroke="#000000" points="973.5,-336.8868 973.5,-359.8868 1143.5,-359.8868 1143.5,-336.8868 973.5,-336.8868"/>
<text text-anchor="start" x="978.5" y="-345.4868" font-family="Helvetica,sans-Serif" font-weight="bold" font-size="11.00" fill="#000000">procedure_answers</text>
<text text-anchor="start" x="1109.0219" y="-344.9868" font-family="Helvetica,sans-Serif" font-size="11.00" fill="#000000">[table]</text>
<polygon fill="none" stroke="#000000" points="973.5,-317.8868 973.5,-336.8868 1143.5,-336.8868 1143.5,-317.8868 973.5,-317.8868"/>
<text text-anchor="start" x="976.5" y="-323.9868" font-family="Helvetica,sans-Serif" font-size="11.00" fill="#000000">...</text>
<polygon fill="#ffffff" stroke="transparent" points="973.5,-298.8868 973.5,-317.8868 1056.5,-317.8868 1056.5,-298.8868 973.5,-298.8868"/>
<polygon fill="none" stroke="#000000" points="973.5,-298.8868 973.5,-317.8868 1056.5,-317.8868 1056.5,-298.8868 973.5,-298.8868"/>
<text text-anchor="start" x="976.5" y="-304.9868" font-family="Helvetica,sans-Serif" font-size="11.00" fill="#000000">&lt; 2</text>
<polygon fill="#ffffff" stroke="transparent" points="1056.5,-298.8868 1056.5,-317.8868 1099.5,-317.8868 1099.5,-298.8868 1056.5,-298.8868"/>
<polygon fill="none" stroke="#000000" points="1056.5,-298.8868 1056.5,-317.8868 1099.5,-317.8868 1099.5,-298.8868 1056.5,-298.8868"/>
<text text-anchor="start" x="1090.3862" y="-304.9868" font-family="Helvetica,sans-Serif" font-size="11.00" fill="#000000"> &#160;</text>
<polygon fill="#ffffff" stroke="transparent" points="1099.5,-298.8868 1099.5,-317.8868 1143.5,-317.8868 1143.5,-298.8868 1099.5,-298.8868"/>
<polygon fill="none" stroke="#000000" points="1099.5,-298.8868 1099.5,-317.8868 1143.5,-317.8868 1143.5,-298.8868 1099.5,-298.8868"/>
<text text-anchor="start" x="1134.3862" y="-304.9868" font-family="Helvetica,sans-Serif" font-size="11.00" fill="#000000"> &#160;</text>
</a>
</g>
</g>
<!-- procedure_order -->
<g id="node6" class="node">
<title>procedure_order</title>
<g id="a_node6"><a xlink:href="../../tables/procedure_order.html" xlink:title="procedure_order" target="_top">
<polygon fill="#ffffff" stroke="transparent" points="721.5,-330.3868 721.5,-391.3868 872.5,-391.3868 872.5,-330.3868 721.5,-330.3868"/>
<polygon fill="#f5f5f5" stroke="transparent" points="722,-367.8868 722,-390.8868 873,-390.8868 873,-367.8868 722,-367.8868"/>
<polygon fill="none" stroke="#000000" points="722,-367.8868 722,-390.8868 873,-390.8868 873,-367.8868 722,-367.8868"/>
<text text-anchor="start" x="727" y="-376.4868" font-family="Helvetica,sans-Serif" font-weight="bold" font-size="11.00" fill="#000000">procedure_order</text>
<text text-anchor="start" x="838.5219" y="-375.9868" font-family="Helvetica,sans-Serif" font-size="11.00" fill="#000000">[table]</text>
<polygon fill="none" stroke="#000000" points="722,-348.8868 722,-367.8868 873,-367.8868 873,-348.8868 722,-348.8868"/>
<text text-anchor="start" x="725" y="-354.9868" font-family="Helvetica,sans-Serif" font-size="11.00" fill="#000000">...</text>
<polygon fill="#ffffff" stroke="transparent" points="722,-329.8868 722,-348.8868 794,-348.8868 794,-329.8868 722,-329.8868"/>
<polygon fill="none" stroke="#000000" points="722,-329.8868 722,-348.8868 794,-348.8868 794,-329.8868 722,-329.8868"/>
<text text-anchor="start" x="725" y="-335.9868" font-family="Helvetica,sans-Serif" font-size="11.00" fill="#000000">&lt; 16</text>
<polygon fill="#ffffff" stroke="transparent" points="794,-329.8868 794,-348.8868 829,-348.8868 829,-329.8868 794,-329.8868"/>
<polygon fill="none" stroke="#000000" points="794,-329.8868 794,-348.8868 829,-348.8868 829,-329.8868 794,-329.8868"/>
<text text-anchor="start" x="819.8862" y="-335.9868" font-family="Helvetica,sans-Serif" font-size="11.00" fill="#000000"> &#160;</text>
<polygon fill="#ffffff" stroke="transparent" points="829,-329.8868 829,-348.8868 873,-348.8868 873,-329.8868 829,-329.8868"/>
<polygon fill="none" stroke="#000000" points="829,-329.8868 829,-348.8868 873,-348.8868 873,-329.8868 829,-329.8868"/>
<text text-anchor="start" x="854.4053" y="-335.9868" font-family="Helvetica,sans-Serif" font-size="11.00" fill="#000000">5 &gt;</text>
</a>
</g>
</g>
<!-- procedure_answers&#45;&gt;procedure_order -->
<g id="edge10" class="edge">
<title>procedure_answers:w&#45;&gt;procedure_order:e</title>
<path fill="none" stroke="#000000" d="M959.0096,-327.2372C932.691,-328.4723 905.3347,-332.8303 880.7598,-338.0197"/>
<polygon fill="#000000" stroke="#000000" points="965.5023,-327.0802 973.587,-330.4857 969.5012,-326.9835 973.5,-326.8868 973.5,-326.8868 973.5,-326.8868 969.5012,-326.9835 973.413,-323.2878 965.5023,-327.0802 965.5023,-327.0802"/>
<ellipse fill="none" stroke="#000000" cx="962.3033" cy="-327.1576" rx="3.2" ry="3.2"/>
</g>
<!-- procedure_questions -->
<g id="node7" class="node">
<title>procedure_questions</title>
<g id="a_node7"><a xlink:href="../../tables/procedure_questions.html" xlink:title="procedure_questions" target="_top">
<polygon fill="#ffffff" stroke="transparent" points="707,-433.3868 707,-494.3868 887,-494.3868 887,-433.3868 707,-433.3868"/>
<polygon fill="#f5f5f5" stroke="transparent" points="707,-470.8868 707,-493.8868 887,-493.8868 887,-470.8868 707,-470.8868"/>
<polygon fill="none" stroke="#000000" points="707,-470.8868 707,-493.8868 887,-493.8868 887,-470.8868 707,-470.8868"/>
<text text-anchor="start" x="712" y="-479.4868" font-family="Helvetica,sans-Serif" font-weight="bold" font-size="11.00" fill="#000000">procedure_questions</text>
<text text-anchor="start" x="852.5219" y="-478.9868" font-family="Helvetica,sans-Serif" font-size="11.00" fill="#000000">[table]</text>
<polygon fill="none" stroke="#000000" points="707,-451.8868 707,-470.8868 887,-470.8868 887,-451.8868 707,-451.8868"/>
<text text-anchor="start" x="710" y="-457.9868" font-family="Helvetica,sans-Serif" font-size="11.00" fill="#000000">...</text>
<polygon fill="#ffffff" stroke="transparent" points="707,-432.8868 707,-451.8868 791,-451.8868 791,-432.8868 707,-432.8868"/>
<polygon fill="none" stroke="#000000" points="707,-432.8868 707,-451.8868 791,-451.8868 791,-432.8868 707,-432.8868"/>
<text text-anchor="start" x="710" y="-438.9868" font-family="Helvetica,sans-Serif" font-size="11.00" fill="#000000">&lt; 2</text>
<polygon fill="#ffffff" stroke="transparent" points="791,-432.8868 791,-451.8868 834,-451.8868 834,-432.8868 791,-432.8868"/>
<polygon fill="none" stroke="#000000" points="791,-432.8868 791,-451.8868 834,-451.8868 834,-432.8868 791,-432.8868"/>
<text text-anchor="start" x="824.8862" y="-438.9868" font-family="Helvetica,sans-Serif" font-size="11.00" fill="#000000"> &#160;</text>
<polygon fill="#ffffff" stroke="transparent" points="834,-432.8868 834,-451.8868 887,-451.8868 887,-432.8868 834,-432.8868"/>
<polygon fill="none" stroke="#000000" points="834,-432.8868 834,-451.8868 887,-451.8868 887,-432.8868 834,-432.8868"/>
<text text-anchor="start" x="868.4053" y="-438.9868" font-family="Helvetica,sans-Serif" font-size="11.00" fill="#000000">1 &gt;</text>
</a>
</g>
</g>
<!-- procedure_answers&#45;&gt;procedure_questions -->
<g id="edge11" class="edge">
<title>procedure_answers:w&#45;&gt;procedure_questions:e</title>
<path fill="none" stroke="#000000" d="M959.235,-329.4052C944.1166,-335.7714 941.0081,-353.3268 928,-371.8868 903.0043,-407.5506 930.551,-460.8868 887,-460.8868"/>
<polygon fill="#000000" stroke="#000000" points="965.6218,-328.2777 974.1259,-330.432 969.5609,-327.5823 973.5,-326.8868 973.5,-326.8868 973.5,-326.8868 969.5609,-327.5823 972.8741,-323.3416 965.6218,-328.2777 965.6218,-328.2777"/>
<ellipse fill="none" stroke="#000000" cx="962.4706" cy="-328.8341" rx="3.2" ry="3.2"/>
</g>
<!-- procedure_order&#45;&gt;form_encounter -->
<g id="edge15" class="edge">
<title>procedure_order:w&#45;&gt;form_encounter:e</title>
<path fill="none" stroke="#000000" d="M775.5757,-313.1135C750.7908,-265.9657 705.1434,-200.8868 642,-200.8868"/>
<polygon fill="#000000" stroke="#000000" points="778.5555,-319.0253 778.9416,-327.7896 780.3559,-322.5973 782.1563,-326.1692 782.1563,-326.1692 782.1563,-326.1692 780.3559,-322.5973 785.371,-324.5488 778.5555,-319.0253 778.5555,-319.0253"/>
<ellipse fill="none" stroke="#000000" cx="777.1151" cy="-316.1678" rx="3.2" ry="3.2"/>
</g>
<!-- procedure_order&#45;&gt;patient_data -->
<g id="edge21" class="edge">
<title>procedure_order:w&#45;&gt;patient_data:e</title>
<path fill="none" stroke="#000000" d="M709.5469,-320.3444C695.1233,-314.1858 680.2341,-308.1418 666,-302.8868 581.5764,-271.7192 548.457,-292.3535 472,-244.8868 449.2909,-230.7883 457.7296,-200.8868 431,-200.8868"/>
<polygon fill="#000000" stroke="#000000" points="715.8567,-323.08 721.7646,-329.5651 719.5266,-324.6711 723.1966,-326.2622 723.1966,-326.2622 723.1966,-326.2622 719.5266,-324.6711 724.6286,-322.9592 715.8567,-323.08 715.8567,-323.08"/>
<ellipse fill="none" stroke="#000000" cx="712.9207" cy="-321.8071" rx="3.2" ry="3.2"/>
</g>
<!-- procedure_order&#45;&gt;users -->
<g id="edge14" class="edge">
<title>procedure_order:w&#45;&gt;users:e</title>
<path fill="none" stroke="#000000" d="M781.7508,-312.5307C762.7562,-263.5879 725.3699,-190.6041 666,-156.8868 583.2055,-109.8662 333.2149,-136.8868 238,-142.8868"/>
<polygon fill="#000000" stroke="#000000" points="784.0604,-318.7598 783.4662,-327.5124 785.451,-322.5103 786.8416,-326.2608 786.8416,-326.2608 786.8416,-326.2608 785.451,-322.5103 790.2171,-325.0092 784.0604,-318.7598 784.0604,-318.7598"/>
<ellipse fill="none" stroke="#000000" cx="782.9479" cy="-315.7594" rx="3.2" ry="3.2"/>
</g>
<!-- procedure_order&#45;&gt;users -->
<g id="edge25" class="edge">
<title>procedure_order:w&#45;&gt;users:e</title>
<path fill="none" stroke="#000000" d="M777.8466,-312.8978C757.8441,-267.3403 721.5422,-201.4303 666,-169.8868 583.2055,-122.8662 333.2149,-149.8868 238,-142.8868"/>
<polygon fill="#000000" stroke="#000000" points="780.4134,-318.9562 780.2195,-327.7268 781.9738,-322.6393 783.5343,-326.3224 783.5343,-326.3224 783.5343,-326.3224 781.9738,-322.6393 786.849,-324.918 780.4134,-318.9562 780.4134,-318.9562"/>
<ellipse fill="none" stroke="#000000" cx="779.165" cy="-316.0097" rx="3.2" ry="3.2"/>
</g>
<!-- procedure_order&#45;&gt;list_options -->
<g id="edge13" class="edge">
<title>procedure_order:w&#45;&gt;list_options:e</title>
<path fill="none" stroke="#000000" d="M699.0003,-325.0895C590.9868,-315.5036 412.102,-327.4361 258,-360.8868"/>
<polygon fill="#000000" stroke="#000000" points="705.4769,-325.7436 713.0745,-330.1295 709.4566,-326.1457 713.4364,-326.5477 713.4364,-326.5477 713.4364,-326.5477 709.4566,-326.1457 713.7982,-322.9659 705.4769,-325.7436 705.4769,-325.7436"/>
<ellipse fill="none" stroke="#000000" cx="702.2931" cy="-325.422" rx="3.2" ry="3.2"/>
</g>
<!-- procedure_order&#45;&gt;list_options -->
<g id="edge18" class="edge">
<title>procedure_order:w&#45;&gt;list_options:e</title>
<path fill="none" stroke="#000000" d="M699.0003,-334.0388C590.9868,-326.8494 412.102,-335.7988 258,-360.8868"/>
<polygon fill="#000000" stroke="#000000" points="705.4592,-334.5281 713.1644,-338.7222 709.4478,-334.8303 713.4364,-335.1325 713.4364,-335.1325 713.4364,-335.1325 709.4478,-334.8303 713.7084,-331.5428 705.4592,-334.5281 705.4592,-334.5281"/>
<ellipse fill="none" stroke="#000000" cx="702.2684" cy="-334.2863" rx="3.2" ry="3.2"/>
</g>
<!-- procedure_order&#45;&gt;list_options -->
<g id="edge19" class="edge">
<title>procedure_order:w&#45;&gt;list_options:e</title>
<path fill="none" stroke="#000000" d="M699.0003,-342.9881C590.9868,-338.1952 412.102,-344.1614 258,-360.8868"/>
<polygon fill="#000000" stroke="#000000" points="705.4466,-343.3137 713.2548,-347.3127 709.4415,-343.5155 713.4364,-343.7173 713.4364,-343.7173 713.4364,-343.7173 709.4415,-343.5155 713.618,-340.1218 705.4466,-343.3137 705.4466,-343.3137"/>
<ellipse fill="none" stroke="#000000" cx="702.2506" cy="-343.1522" rx="3.2" ry="3.2"/>
</g>
<!-- procedure_order&#45;&gt;list_options -->
<g id="edge20" class="edge">
<title>procedure_order:w&#45;&gt;list_options:e</title>
<path fill="none" stroke="#000000" d="M699.0003,-351.9375C590.9868,-349.541 412.102,-352.5241 258,-360.8868"/>
<polygon fill="#000000" stroke="#000000" points="705.4389,-352.1 713.3455,-355.9009 709.4377,-352.201 713.4364,-352.302 713.4364,-352.302 713.4364,-352.302 709.4377,-352.201 713.5273,-348.7032 705.4389,-352.1 705.4389,-352.1"/>
<ellipse fill="none" stroke="#000000" cx="702.2399" cy="-352.0192" rx="3.2" ry="3.2"/>
</g>
<!-- procedure_order&#45;&gt;list_options -->
<g id="edge22" class="edge">
<title>procedure_order:w&#45;&gt;list_options:e</title>
<path fill="none" stroke="#000000" d="M699.0003,-360.8868C590.9868,-360.8868 412.102,-360.8868 258,-360.8868"/>
<polygon fill="#000000" stroke="#000000" points="705.4364,-360.8868 713.4364,-364.4868 709.4364,-360.8868 713.4364,-360.8868 713.4364,-360.8868 713.4364,-360.8868 709.4364,-360.8868 713.4364,-357.2868 705.4364,-360.8868 705.4364,-360.8868"/>
<ellipse fill="none" stroke="#000000" cx="702.2364" cy="-360.8869" rx="3.2" ry="3.2"/>
</g>
<!-- procedure_order&#45;&gt;list_options -->
<g id="edge23" class="edge">
<title>procedure_order:w&#45;&gt;list_options:e</title>
<path fill="none" stroke="#000000" d="M699.0003,-369.8361C590.9868,-372.2326 412.102,-369.2495 258,-360.8868"/>
<polygon fill="#000000" stroke="#000000" points="705.4389,-369.6736 713.5273,-373.0704 709.4377,-369.5726 713.4364,-369.4716 713.4364,-369.4716 713.4364,-369.4716 709.4377,-369.5726 713.3455,-365.8727 705.4389,-369.6736 705.4389,-369.6736"/>
<ellipse fill="none" stroke="#000000" cx="702.2399" cy="-369.7544" rx="3.2" ry="3.2"/>
</g>
<!-- procedure_order&#45;&gt;list_options -->
<g id="edge24" class="edge">
<title>procedure_order:w&#45;&gt;list_options:e</title>
<path fill="none" stroke="#000000" d="M699.0003,-378.7855C590.9868,-383.5784 412.102,-377.6121 258,-360.8868"/>
<polygon fill="#000000" stroke="#000000" points="705.4466,-378.4599 713.618,-381.6518 709.4415,-378.2581 713.4364,-378.0563 713.4364,-378.0563 713.4364,-378.0563 709.4415,-378.2581 713.2548,-374.4609 705.4466,-378.4599 705.4466,-378.4599"/>
<ellipse fill="none" stroke="#000000" cx="702.2506" cy="-378.6214" rx="3.2" ry="3.2"/>
</g>
<!-- procedure_order&#45;&gt;list_options -->
<g id="edge26" class="edge">
<title>procedure_order:w&#45;&gt;list_options:e</title>
<path fill="none" stroke="#000000" d="M699.0003,-387.7348C590.9868,-394.9242 412.102,-385.9748 258,-360.8868"/>
<polygon fill="#000000" stroke="#000000" points="705.4592,-387.2455 713.7084,-390.2308 709.4478,-386.9433 713.4364,-386.6411 713.4364,-386.6411 713.4364,-386.6411 709.4478,-386.9433 713.1644,-383.0514 705.4592,-387.2455 705.4592,-387.2455"/>
<ellipse fill="none" stroke="#000000" cx="702.2684" cy="-387.4873" rx="3.2" ry="3.2"/>
</g>
<!-- procedure_order&#45;&gt;list_options -->
<g id="edge27" class="edge">
<title>procedure_order:w&#45;&gt;list_options:e</title>
<path fill="none" stroke="#000000" d="M699.0003,-396.6841C590.9868,-406.2699 412.102,-394.3375 258,-360.8868"/>
<polygon fill="#000000" stroke="#000000" points="705.4769,-396.0299 713.7982,-398.8077 709.4566,-395.6279 713.4364,-395.2259 713.4364,-395.2259 713.4364,-395.2259 709.4566,-395.6279 713.0745,-391.6441 705.4769,-396.0299 705.4769,-396.0299"/>
<ellipse fill="none" stroke="#000000" cx="702.2931" cy="-396.3516" rx="3.2" ry="3.2"/>
</g>
<!-- procedure_order&#45;&gt;facility -->
<g id="edge12" class="edge">
<title>procedure_order:w&#45;&gt;facility:e</title>
<path fill="none" stroke="#000000" d="M785.3036,-312.3614C768.5921,-256.9246 732.3071,-168.655 666,-126.8868 450.1026,9.1115 348.6611,-83.8868 93.5,-89.8868"/>
<polygon fill="#000000" stroke="#000000" points="787.1177,-318.6898 785.8616,-327.3721 788.22,-322.5349 789.3223,-326.38 789.3223,-326.38 789.3223,-326.38 788.22,-322.5349 792.7829,-325.388 787.1177,-318.6898 787.1177,-318.6898"/>
<ellipse fill="none" stroke="#000000" cx="786.2359" cy="-315.6137" rx="3.2" ry="3.2"/>
</g>
<!-- procedure_order&#45;&gt;facility -->
<g id="edge17" class="edge">
<title>procedure_order:w&#45;&gt;facility:e</title>
<path fill="none" stroke="#000000" d="M782.2245,-312.2059C764.3198,-259.9267 728.4942,-179.2532 666,-139.8868 450.1026,-3.8885 348.6611,-96.8868 93.5,-89.8868"/>
<polygon fill="#000000" stroke="#000000" points="784.3076,-318.5407 783.3868,-327.265 785.5571,-322.3406 786.8066,-326.1404 786.8066,-326.1404 786.8066,-326.1404 785.5571,-322.3406 790.2265,-325.0158 784.3076,-318.5407 784.3076,-318.5407"/>
<ellipse fill="none" stroke="#000000" cx="783.308" cy="-315.5008" rx="3.2" ry="3.2"/>
</g>
<!-- procedure_providers -->
<g id="node9" class="node">
<title>procedure_providers</title>
<g id="a_node9"><a xlink:href="../../tables/procedure_providers.html" xlink:title="procedure_providers" target="_top">
<polygon fill="#ffffff" stroke="transparent" points="480,-433.3868 480,-494.3868 658,-494.3868 658,-433.3868 480,-433.3868"/>
<polygon fill="#f5f5f5" stroke="transparent" points="480,-470.8868 480,-493.8868 658,-493.8868 658,-470.8868 480,-470.8868"/>
<polygon fill="none" stroke="#000000" points="480,-470.8868 480,-493.8868 658,-493.8868 658,-470.8868 480,-470.8868"/>
<text text-anchor="start" x="485" y="-479.4868" font-family="Helvetica,sans-Serif" font-weight="bold" font-size="11.00" fill="#000000">procedure_providers</text>
<text text-anchor="start" x="623.5219" y="-478.9868" font-family="Helvetica,sans-Serif" font-size="11.00" fill="#000000">[table]</text>
<polygon fill="none" stroke="#000000" points="480,-451.8868 480,-470.8868 658,-470.8868 658,-451.8868 480,-451.8868"/>
<text text-anchor="start" x="483" y="-457.9868" font-family="Helvetica,sans-Serif" font-size="11.00" fill="#000000">...</text>
<polygon fill="#ffffff" stroke="transparent" points="480,-432.8868 480,-451.8868 558,-451.8868 558,-432.8868 480,-432.8868"/>
<polygon fill="none" stroke="#000000" points="480,-432.8868 480,-451.8868 558,-451.8868 558,-432.8868 480,-432.8868"/>
<text text-anchor="start" x="483" y="-438.9868" font-family="Helvetica,sans-Serif" font-size="11.00" fill="#000000"> &#160;</text>
<polygon fill="#ffffff" stroke="transparent" points="558,-432.8868 558,-451.8868 603,-451.8868 603,-432.8868 558,-432.8868"/>
<polygon fill="none" stroke="#000000" points="558,-432.8868 558,-451.8868 603,-451.8868 603,-432.8868 558,-432.8868"/>
<text text-anchor="start" x="593.8862" y="-438.9868" font-family="Helvetica,sans-Serif" font-size="11.00" fill="#000000"> &#160;</text>
<polygon fill="#ffffff" stroke="transparent" points="603,-432.8868 603,-451.8868 658,-451.8868 658,-432.8868 603,-432.8868"/>
<polygon fill="none" stroke="#000000" points="603,-432.8868 603,-451.8868 658,-451.8868 658,-432.8868 603,-432.8868"/>
<text text-anchor="start" x="639.4053" y="-438.9868" font-family="Helvetica,sans-Serif" font-size="11.00" fill="#000000">2 &gt;</text>
</a>
</g>
</g>
<!-- procedure_order&#45;&gt;procedure_providers -->
<g id="edge16" class="edge">
<title>procedure_order:w&#45;&gt;procedure_providers:e</title>
<path fill="none" stroke="#000000" d="M726.2778,-403.4317C716.9196,-409.6941 707.5987,-416.2715 699,-422.8868 679.3081,-438.0365 682.8452,-460.8868 658,-460.8868"/>
<polygon fill="#000000" stroke="#000000" points="731.8499,-399.7848 740.5152,-398.4161 735.1969,-397.5944 738.5438,-395.4039 738.5438,-395.4039 738.5438,-395.4039 735.1969,-397.5944 736.5723,-392.3917 731.8499,-399.7848 731.8499,-399.7848"/>
<ellipse fill="none" stroke="#000000" cx="729.1724" cy="-401.5372" rx="3.2" ry="3.2"/>
</g>
<!-- procedure_questions&#45;&gt;procedure_providers -->
<g id="edge31" class="edge">
<title>procedure_questions:w&#45;&gt;procedure_providers:e</title>
<path fill="none" stroke="#000000" d="M692.4909,-460.8868C681.1774,-460.8868 673.9931,-460.8868 658,-460.8868"/>
<polygon fill="#000000" stroke="#000000" points="699,-460.8868 707,-464.4868 703,-460.8868 707,-460.8868 707,-460.8868 707,-460.8868 703,-460.8868 707,-457.2868 699,-460.8868 699,-460.8868"/>
<ellipse fill="none" stroke="#000000" cx="695.8" cy="-460.8869" rx="3.2" ry="3.2"/>
</g>
<!-- procedure_type -->
<g id="node11" class="node">
<title>procedure_type</title>
<g id="a_node11"><a xlink:href="../../tables/procedure_type.html" xlink:title="procedure_type" target="_top">
<polygon fill="#ffffff" stroke="transparent" points="484.5,-515.3868 484.5,-664.3868 653.5,-664.3868 653.5,-515.3868 484.5,-515.3868"/>
<polygon fill="#f5f5f5" stroke="transparent" points="485,-640.8868 485,-663.8868 654,-663.8868 654,-640.8868 485,-640.8868"/>
<polygon fill="none" stroke="#000000" points="485,-640.8868 485,-663.8868 654,-663.8868 654,-640.8868 485,-640.8868"/>
<text text-anchor="start" x="490" y="-649.4868" font-family="Helvetica,sans-Serif" font-weight="bold" font-size="11.00" fill="#000000">procedure_type</text>
<text text-anchor="start" x="619.0437" y="-648.9868" font-family="Helvetica,sans-Serif" font-size="11.00" fill="#000000">[table]</text>
<polygon fill="none" stroke="#000000" points="485,-618.8868 485,-640.8868 654,-640.8868 654,-618.8868 485,-618.8868"/>
<image xlink:href="../../images/primaryKeys.png" width="11px" height="12px" preserveAspectRatio="xMinYMin meet" x="490" y="-635.887"/>
<text text-anchor="start" x="505" y="-625.9868" font-family="Helvetica,sans-Serif" font-size="11.00" fill="#000000">procedure_type_id</text>
<polygon fill="#ffffff" stroke="transparent" points="485,-596.8868 485,-618.8868 654,-618.8868 654,-596.8868 485,-596.8868"/>
<polygon fill="none" stroke="#000000" points="485,-596.8868 485,-618.8868 654,-618.8868 654,-596.8868 485,-596.8868"/>
<text text-anchor="start" x="505" y="-603.9868" font-family="Helvetica,sans-Serif" font-size="11.00" fill="#000000">parent</text>
<polygon fill="none" stroke="#000000" points="485,-574.8868 485,-596.8868 654,-596.8868 654,-574.8868 485,-574.8868"/>
<image xlink:href="../../images/primaryKeys.png" width="11px" height="12px" preserveAspectRatio="xMinYMin meet" x="490" y="-591.887"/>
<text text-anchor="start" x="505" y="-581.9868" font-family="Helvetica,sans-Serif" font-size="11.00" fill="#000000">procedure_code</text>
<polygon fill="none" stroke="#000000" points="485,-552.8868 485,-574.8868 654,-574.8868 654,-552.8868 485,-552.8868"/>
<image xlink:href="../../images/foreignKeys.png" width="11px" height="12px" preserveAspectRatio="xMinYMin meet" x="490" y="-569.887"/>
<text text-anchor="start" x="505" y="-559.9868" font-family="Helvetica,sans-Serif" font-size="11.00" fill="#000000">procedure_type</text>
<polygon fill="none" stroke="#000000" points="485,-533.8868 485,-552.8868 654,-552.8868 654,-533.8868 485,-533.8868"/>
<text text-anchor="start" x="488" y="-539.9868" font-family="Helvetica,sans-Serif" font-size="11.00" fill="#000000">...</text>
<polygon fill="#ffffff" stroke="transparent" points="485,-514.8868 485,-533.8868 563,-533.8868 563,-514.8868 485,-514.8868"/>
<polygon fill="none" stroke="#000000" points="485,-514.8868 485,-533.8868 563,-533.8868 563,-514.8868 485,-514.8868"/>
<text text-anchor="start" x="488" y="-520.9868" font-family="Helvetica,sans-Serif" font-size="11.00" fill="#000000">&lt; 1</text>
<polygon fill="#ffffff" stroke="transparent" points="563,-514.8868 563,-533.8868 604,-533.8868 604,-514.8868 563,-514.8868"/>
<polygon fill="none" stroke="#000000" points="563,-514.8868 563,-533.8868 604,-533.8868 604,-514.8868 563,-514.8868"/>
<text text-anchor="start" x="594.8862" y="-520.9868" font-family="Helvetica,sans-Serif" font-size="11.00" fill="#000000"> &#160;</text>
<polygon fill="#ffffff" stroke="transparent" points="604,-514.8868 604,-533.8868 654,-533.8868 654,-514.8868 604,-514.8868"/>
<polygon fill="none" stroke="#000000" points="604,-514.8868 604,-533.8868 654,-533.8868 654,-514.8868 604,-514.8868"/>
<text text-anchor="start" x="635.4053" y="-520.9868" font-family="Helvetica,sans-Serif" font-size="11.00" fill="#000000">2 &gt;</text>
</a>
</g>
</g>
<!-- procedure_questions&#45;&gt;procedure_type -->
<g id="edge32" class="edge">
<title>procedure_questions:w&#45;&gt;procedure_type:e</title>
<path fill="none" stroke="#000000" d="M692.7458,-464.2302C658.6559,-484.1088 708.4502,-585.8868 654,-585.8868"/>
<polygon fill="#000000" stroke="#000000" points="699.2114,-462.7137 707.8221,-464.3917 703.1057,-461.8003 707,-460.8868 707,-460.8868 707,-460.8868 703.1057,-461.8003 706.1779,-457.3819 699.2114,-462.7137 699.2114,-462.7137"/>
<ellipse fill="none" stroke="#000000" cx="696.0959" cy="-463.4445" rx="3.2" ry="3.2"/>
</g>
<!-- procedure_order_code -->
<g id="node10" class="node">
<title>procedure_order_code</title>
<g id="a_node10"><a xlink:href="../../tables/procedure_order_code.html" xlink:title="procedure_order_code" target="_top">
<polygon fill="#ffffff" stroke="transparent" points="937.5,-381.8868 937.5,-779.8868 1179.5,-779.8868 1179.5,-381.8868 937.5,-381.8868"/>
<polygon fill="#f5f5f5" stroke="transparent" points="939.5,-754.8868 939.5,-777.8868 1177.5,-777.8868 1177.5,-754.8868 939.5,-754.8868"/>
<polygon fill="none" stroke="#000000" points="939.5,-754.8868 939.5,-777.8868 1177.5,-777.8868 1177.5,-754.8868 939.5,-754.8868"/>
<text text-anchor="start" x="944.5" y="-763.4868" font-family="Helvetica,sans-Serif" font-weight="bold" font-size="11.00" fill="#000000">procedure_order_code</text>
<text text-anchor="start" x="1142.5437" y="-762.9868" font-family="Helvetica,sans-Serif" font-size="11.00" fill="#000000">[table]</text>
<polygon fill="none" stroke="#000000" points="939.5,-732.8868 939.5,-754.8868 1110.5,-754.8868 1110.5,-732.8868 939.5,-732.8868"/>
<image xlink:href="../../images/primaryKeys.png" width="11px" height="12px" preserveAspectRatio="xMinYMin meet" x="944.5" y="-749.887"/>
<text text-anchor="start" x="959.5" y="-739.9868" font-family="Helvetica,sans-Serif" font-size="11.00" fill="#000000">procedure_order_id</text>
<polygon fill="none" stroke="#000000" points="1110.5,-732.8868 1110.5,-754.8868 1177.5,-754.8868 1177.5,-732.8868 1110.5,-732.8868"/>
<text text-anchor="start" x="1113.5" y="-740.5868" font-family="Helvetica,sans-Serif" font-size="11.00" fill="#000000">bigint[19]</text>
<polygon fill="none" stroke="#000000" points="939.5,-710.8868 939.5,-732.8868 1110.5,-732.8868 1110.5,-710.8868 939.5,-710.8868"/>
<image xlink:href="../../images/primaryKeys.png" width="11px" height="12px" preserveAspectRatio="xMinYMin meet" x="944.5" y="-727.887"/>
<text text-anchor="start" x="959.5" y="-717.9868" font-family="Helvetica,sans-Serif" font-size="11.00" fill="#000000">procedure_order_seq</text>
<polygon fill="none" stroke="#000000" points="1110.5,-710.8868 1110.5,-732.8868 1177.5,-732.8868 1177.5,-710.8868 1110.5,-710.8868"/>
<text text-anchor="start" x="1113.5" y="-718.5868" font-family="Helvetica,sans-Serif" font-size="11.00" fill="#000000">int[10]</text>
<polygon fill="none" stroke="#000000" points="939.5,-688.8868 939.5,-710.8868 1110.5,-710.8868 1110.5,-688.8868 939.5,-688.8868"/>
<image xlink:href="../../images/foreignKeys.png" width="11px" height="12px" preserveAspectRatio="xMinYMin meet" x="944.5" y="-705.887"/>
<text text-anchor="start" x="959.5" y="-695.9868" font-family="Helvetica,sans-Serif" font-size="11.00" fill="#000000">procedure_code</text>
<polygon fill="none" stroke="#000000" points="1110.5,-688.8868 1110.5,-710.8868 1177.5,-710.8868 1177.5,-688.8868 1110.5,-688.8868"/>
<text text-anchor="start" x="1113.5" y="-696.5868" font-family="Helvetica,sans-Serif" font-size="11.00" fill="#000000">varchar[64]</text>
<polygon fill="none" stroke="#000000" points="939.5,-666.8868 939.5,-688.8868 1110.5,-688.8868 1110.5,-666.8868 939.5,-666.8868"/>
<text text-anchor="start" x="959.5" y="-673.9868" font-family="Helvetica,sans-Serif" font-size="11.00" fill="#000000">procedure_name</text>
<polygon fill="none" stroke="#000000" points="1110.5,-666.8868 1110.5,-688.8868 1177.5,-688.8868 1177.5,-666.8868 1110.5,-666.8868"/>
<text text-anchor="start" x="1113.4365" y="-674.5868" font-family="Helvetica,sans-Serif" font-size="11.00" fill="#000000">varchar[255]</text>
<polygon fill="none" stroke="#000000" points="939.5,-644.8868 939.5,-666.8868 1110.5,-666.8868 1110.5,-644.8868 939.5,-644.8868"/>
<text text-anchor="start" x="959.5" y="-651.9868" font-family="Helvetica,sans-Serif" font-size="11.00" fill="#000000">procedure_source</text>
<polygon fill="none" stroke="#000000" points="1110.5,-644.8868 1110.5,-666.8868 1177.5,-666.8868 1177.5,-644.8868 1110.5,-644.8868"/>
<text text-anchor="start" x="1113.5" y="-652.5868" font-family="Helvetica,sans-Serif" font-size="11.00" fill="#000000">char[1]</text>
<polygon fill="none" stroke="#000000" points="939.5,-622.8868 939.5,-644.8868 1110.5,-644.8868 1110.5,-622.8868 939.5,-622.8868"/>
<text text-anchor="start" x="959.5" y="-629.9868" font-family="Helvetica,sans-Serif" font-size="11.00" fill="#000000">diagnoses</text>
<polygon fill="none" stroke="#000000" points="1110.5,-622.8868 1110.5,-644.8868 1177.5,-644.8868 1177.5,-622.8868 1110.5,-622.8868"/>
<text text-anchor="start" x="1113.5" y="-630.5868" font-family="Helvetica,sans-Serif" font-size="11.00" fill="#000000">text[65535]</text>
<polygon fill="none" stroke="#000000" points="939.5,-600.8868 939.5,-622.8868 1110.5,-622.8868 1110.5,-600.8868 939.5,-600.8868"/>
<text text-anchor="start" x="959.5" y="-607.9868" font-family="Helvetica,sans-Serif" font-size="11.00" fill="#000000">do_not_send</text>
<polygon fill="none" stroke="#000000" points="1110.5,-600.8868 1110.5,-622.8868 1177.5,-622.8868 1177.5,-600.8868 1110.5,-600.8868"/>
<text text-anchor="start" x="1113.5" y="-608.5868" font-family="Helvetica,sans-Serif" font-size="11.00" fill="#000000">boolean[3]</text>
<polygon fill="none" stroke="#000000" points="939.5,-578.8868 939.5,-600.8868 1110.5,-600.8868 1110.5,-578.8868 939.5,-578.8868"/>
<text text-anchor="start" x="959.5" y="-585.9868" font-family="Helvetica,sans-Serif" font-size="11.00" fill="#000000">procedure_order_title</text>
<polygon fill="none" stroke="#000000" points="1110.5,-578.8868 1110.5,-600.8868 1177.5,-600.8868 1177.5,-578.8868 1110.5,-578.8868"/>
<text text-anchor="start" x="1113.4365" y="-586.5868" font-family="Helvetica,sans-Serif" font-size="11.00" fill="#000000">varchar[255]</text>
<polygon fill="none" stroke="#000000" points="939.5,-556.8868 939.5,-578.8868 1110.5,-578.8868 1110.5,-556.8868 939.5,-556.8868"/>
<text text-anchor="start" x="959.5" y="-563.9868" font-family="Helvetica,sans-Serif" font-size="11.00" fill="#000000">procedure_type</text>
<polygon fill="none" stroke="#000000" points="1110.5,-556.8868 1110.5,-578.8868 1177.5,-578.8868 1177.5,-556.8868 1110.5,-556.8868"/>
<text text-anchor="start" x="1113.5" y="-564.5868" font-family="Helvetica,sans-Serif" font-size="11.00" fill="#000000">varchar[31]</text>
<polygon fill="none" stroke="#000000" points="939.5,-534.8868 939.5,-556.8868 1110.5,-556.8868 1110.5,-534.8868 939.5,-534.8868"/>
<text text-anchor="start" x="959.5" y="-541.9868" font-family="Helvetica,sans-Serif" font-size="11.00" fill="#000000">transport</text>
<polygon fill="none" stroke="#000000" points="1110.5,-534.8868 1110.5,-556.8868 1177.5,-556.8868 1177.5,-534.8868 1110.5,-534.8868"/>
<text text-anchor="start" x="1113.5" y="-542.5868" font-family="Helvetica,sans-Serif" font-size="11.00" fill="#000000">varchar[31]</text>
<polygon fill="none" stroke="#000000" points="939.5,-512.8868 939.5,-534.8868 1110.5,-534.8868 1110.5,-512.8868 939.5,-512.8868"/>
<text text-anchor="start" x="959.5" y="-519.9868" font-family="Helvetica,sans-Serif" font-size="11.00" fill="#000000">date_end</text>
<polygon fill="none" stroke="#000000" points="1110.5,-512.8868 1110.5,-534.8868 1177.5,-534.8868 1177.5,-512.8868 1110.5,-512.8868"/>
<text text-anchor="start" x="1113.5" y="-520.5868" font-family="Helvetica,sans-Serif" font-size="11.00" fill="#000000">datetime[19]</text>
<polygon fill="none" stroke="#000000" points="939.5,-490.8868 939.5,-512.8868 1110.5,-512.8868 1110.5,-490.8868 939.5,-490.8868"/>
<text text-anchor="start" x="959.5" y="-497.9868" font-family="Helvetica,sans-Serif" font-size="11.00" fill="#000000">reason_code</text>
<polygon fill="none" stroke="#000000" points="1110.5,-490.8868 1110.5,-512.8868 1177.5,-512.8868 1177.5,-490.8868 1110.5,-490.8868"/>
<text text-anchor="start" x="1113.5" y="-498.5868" font-family="Helvetica,sans-Serif" font-size="11.00" fill="#000000">varchar[31]</text>
<polygon fill="none" stroke="#000000" points="939.5,-468.8868 939.5,-490.8868 1110.5,-490.8868 1110.5,-468.8868 939.5,-468.8868"/>
<text text-anchor="start" x="959.5" y="-475.9868" font-family="Helvetica,sans-Serif" font-size="11.00" fill="#000000">reason_description</text>
<polygon fill="none" stroke="#000000" points="1110.5,-468.8868 1110.5,-490.8868 1177.5,-490.8868 1177.5,-468.8868 1110.5,-468.8868"/>
<text text-anchor="start" x="1113.5" y="-476.5868" font-family="Helvetica,sans-Serif" font-size="11.00" fill="#000000">text[65535]</text>
<polygon fill="none" stroke="#000000" points="939.5,-446.8868 939.5,-468.8868 1110.5,-468.8868 1110.5,-446.8868 939.5,-446.8868"/>
<text text-anchor="start" x="959.5" y="-453.9868" font-family="Helvetica,sans-Serif" font-size="11.00" fill="#000000">reason_date_low</text>
<polygon fill="none" stroke="#000000" points="1110.5,-446.8868 1110.5,-468.8868 1177.5,-468.8868 1177.5,-446.8868 1110.5,-446.8868"/>
<text text-anchor="start" x="1113.5" y="-454.5868" font-family="Helvetica,sans-Serif" font-size="11.00" fill="#000000">datetime[19]</text>
<polygon fill="none" stroke="#000000" points="939.5,-424.8868 939.5,-446.8868 1110.5,-446.8868 1110.5,-424.8868 939.5,-424.8868"/>
<text text-anchor="start" x="959.5" y="-431.9868" font-family="Helvetica,sans-Serif" font-size="11.00" fill="#000000">reason_date_high</text>
<polygon fill="none" stroke="#000000" points="1110.5,-424.8868 1110.5,-446.8868 1177.5,-446.8868 1177.5,-424.8868 1110.5,-424.8868"/>
<text text-anchor="start" x="1113.5" y="-432.5868" font-family="Helvetica,sans-Serif" font-size="11.00" fill="#000000">datetime[19]</text>
<polygon fill="none" stroke="#000000" points="939.5,-402.8868 939.5,-424.8868 1110.5,-424.8868 1110.5,-402.8868 939.5,-402.8868"/>
<text text-anchor="start" x="959.5" y="-409.9868" font-family="Helvetica,sans-Serif" font-size="11.00" fill="#000000">reason_status</text>
<polygon fill="none" stroke="#000000" points="1110.5,-402.8868 1110.5,-424.8868 1177.5,-424.8868 1177.5,-402.8868 1110.5,-402.8868"/>
<text text-anchor="start" x="1113.5" y="-410.5868" font-family="Helvetica,sans-Serif" font-size="11.00" fill="#000000">varchar[31]</text>
<polygon fill="#ffffff" stroke="transparent" points="939.5,-383.8868 939.5,-402.8868 1029.5,-402.8868 1029.5,-383.8868 939.5,-383.8868"/>
<polygon fill="none" stroke="#000000" points="939.5,-383.8868 939.5,-402.8868 1029.5,-402.8868 1029.5,-383.8868 939.5,-383.8868"/>
<text text-anchor="start" x="942.5" y="-389.9868" font-family="Helvetica,sans-Serif" font-size="11.00" fill="#000000">&lt; 2</text>
<polygon fill="#ffffff" stroke="transparent" points="1029.5,-383.8868 1029.5,-402.8868 1110.5,-402.8868 1110.5,-383.8868 1029.5,-383.8868"/>
<polygon fill="none" stroke="#000000" points="1029.5,-383.8868 1029.5,-402.8868 1110.5,-402.8868 1110.5,-383.8868 1029.5,-383.8868"/>
<text text-anchor="start" x="1101.3862" y="-389.9868" font-family="Helvetica,sans-Serif" font-size="11.00" fill="#000000"> &#160;</text>
<polygon fill="#ffffff" stroke="transparent" points="1110.5,-383.8868 1110.5,-402.8868 1177.5,-402.8868 1177.5,-383.8868 1110.5,-383.8868"/>
<polygon fill="none" stroke="#000000" points="1110.5,-383.8868 1110.5,-402.8868 1177.5,-402.8868 1177.5,-383.8868 1110.5,-383.8868"/>
<text text-anchor="start" x="1158.9053" y="-389.9868" font-family="Helvetica,sans-Serif" font-size="11.00" fill="#000000">1 &gt;</text>
<polygon fill="none" stroke="#000000" stroke-width="2" points="938.5,-382.8868 938.5,-778.8868 1178.5,-778.8868 1178.5,-382.8868 938.5,-382.8868"/>
</a>
</g>
</g>
<!-- procedure_order_code&#45;&gt;procedure_order -->
<g id="edge29" class="edge">
<title>procedure_order_code:w&#45;&gt;procedure_order:e</title>
<path fill="none" stroke="#000000" d="M925.6547,-739.7709C876.7763,-706.3264 931.1028,-478.9364 895,-422.8868 888.2407,-412.3929 879.0072,-403.3454 868.8945,-395.6592"/>
<polygon fill="#000000" stroke="#000000" points="931.8317,-741.6071 938.4741,-747.3375 935.6658,-742.747 939.5,-743.8868 939.5,-743.8868 939.5,-743.8868 935.6658,-742.747 940.5259,-740.436 931.8317,-741.6071 931.8317,-741.6071"/>
<ellipse fill="none" stroke="#000000" cx="928.7643" cy="-740.6952" rx="3.2" ry="3.2"/>
</g>
<!-- procedure_order_code&#45;&gt;procedure_type -->
<g id="edge28" class="edge">
<title>procedure_order_code:w&#45;&gt;procedure_type:e</title>
<path fill="none" stroke="#000000" d="M924.7904,-699.4275C801.7898,-691.5828 785.5603,-585.8868 654,-585.8868"/>
<polygon fill="#000000" stroke="#000000" points="931.5039,-699.6371 939.3876,-703.485 935.5019,-699.7619 939.5,-699.8868 939.5,-699.8868 939.5,-699.8868 935.5019,-699.7619 939.6124,-696.2885 931.5039,-699.6371 931.5039,-699.6371"/>
<ellipse fill="none" stroke="#000000" cx="928.3055" cy="-699.5372" rx="3.2" ry="3.2"/>
</g>
<!-- procedure_type&#45;&gt;list_options -->
<g id="edge44" class="edge">
<title>procedure_type:w&#45;&gt;list_options:e</title>
<path fill="none" stroke="#000000" d="M470.5948,-563.4185C379.1922,-557.252 367.8998,-491.0904 299,-418.8868 277.2066,-396.0484 289.5681,-360.8868 258,-360.8868"/>
<polygon fill="#000000" stroke="#000000" points="477.0042,-563.6268 484.883,-567.4849 481.0021,-563.7568 485,-563.8868 485,-563.8868 485,-563.8868 481.0021,-563.7568 485.117,-560.2887 477.0042,-563.6268 477.0042,-563.6268"/>
<ellipse fill="none" stroke="#000000" cx="473.8059" cy="-563.5228" rx="3.2" ry="3.2"/>
</g>
<!-- procedure_order_relationships -->
<g id="node12" class="node">
<title>procedure_order_relationships</title>
<g id="a_node12"><a xlink:href="../../tables/procedure_order_relationships.html" xlink:title="procedure_order_relationships" target="_top">
<polygon fill="#ffffff" stroke="transparent" points="936,-189.3868 936,-250.3868 1181,-250.3868 1181,-189.3868 936,-189.3868"/>
<polygon fill="#f5f5f5" stroke="transparent" points="936.5,-226.8868 936.5,-249.8868 1181.5,-249.8868 1181.5,-226.8868 936.5,-226.8868"/>
<polygon fill="none" stroke="#000000" points="936.5,-226.8868 936.5,-249.8868 1181.5,-249.8868 1181.5,-226.8868 936.5,-226.8868"/>
<text text-anchor="start" x="941.5" y="-235.4868" font-family="Helvetica,sans-Serif" font-weight="bold" font-size="11.00" fill="#000000">procedure_order_relationships</text>
<text text-anchor="start" x="1147.0219" y="-234.9868" font-family="Helvetica,sans-Serif" font-size="11.00" fill="#000000">[table]</text>
<polygon fill="none" stroke="#000000" points="936.5,-207.8868 936.5,-226.8868 1181.5,-226.8868 1181.5,-207.8868 936.5,-207.8868"/>
<text text-anchor="start" x="939.5" y="-213.9868" font-family="Helvetica,sans-Serif" font-size="11.00" fill="#000000">...</text>
<polygon fill="#ffffff" stroke="transparent" points="936.5,-188.8868 936.5,-207.8868 1057.5,-207.8868 1057.5,-188.8868 936.5,-188.8868"/>
<polygon fill="none" stroke="#000000" points="936.5,-188.8868 936.5,-207.8868 1057.5,-207.8868 1057.5,-188.8868 936.5,-188.8868"/>
<text text-anchor="start" x="939.5" y="-194.9868" font-family="Helvetica,sans-Serif" font-size="11.00" fill="#000000">&lt; 1</text>
<polygon fill="#ffffff" stroke="transparent" points="1057.5,-188.8868 1057.5,-207.8868 1119.5,-207.8868 1119.5,-188.8868 1057.5,-188.8868"/>
<polygon fill="none" stroke="#000000" points="1057.5,-188.8868 1057.5,-207.8868 1119.5,-207.8868 1119.5,-188.8868 1057.5,-188.8868"/>
<text text-anchor="start" x="1110.3862" y="-194.9868" font-family="Helvetica,sans-Serif" font-size="11.00" fill="#000000"> &#160;</text>
<polygon fill="#ffffff" stroke="transparent" points="1119.5,-188.8868 1119.5,-207.8868 1181.5,-207.8868 1181.5,-188.8868 1119.5,-188.8868"/>
<polygon fill="none" stroke="#000000" points="1119.5,-188.8868 1119.5,-207.8868 1181.5,-207.8868 1181.5,-188.8868 1119.5,-188.8868"/>
<text text-anchor="start" x="1172.3862" y="-194.9868" font-family="Helvetica,sans-Serif" font-size="11.00" fill="#000000"> &#160;</text>
</a>
</g>
</g>
<!-- procedure_order_relationships&#45;&gt;procedure_order -->
<g id="edge30" class="edge">
<title>procedure_order_relationships:w&#45;&gt;procedure_order:e</title>
<path fill="none" stroke="#000000" d="M922.4485,-220.0913C903.186,-231.5209 917.53,-270.9343 895,-295.8868 884.8069,-307.1759 872.2468,-317.3993 859.5608,-326.2211"/>
<polygon fill="#000000" stroke="#000000" points="928.7003,-218.6656 937.3005,-220.3967 932.6001,-217.7762 936.5,-216.8868 936.5,-216.8868 936.5,-216.8868 932.6001,-217.7762 935.6995,-213.3769 928.7003,-218.6656 928.7003,-218.6656"/>
<ellipse fill="none" stroke="#000000" cx="925.5804" cy="-219.3771" rx="3.2" ry="3.2"/>
</g>
<!-- procedure_report -->
<g id="node13" class="node">
<title>procedure_report</title>
<g id="a_node13"><a xlink:href="../../tables/procedure_report.html" xlink:title="procedure_report" target="_top">
<polygon fill="#ffffff" stroke="transparent" points="980.5,-107.3868 980.5,-168.3868 1136.5,-168.3868 1136.5,-107.3868 980.5,-107.3868"/>
<polygon fill="#f5f5f5" stroke="transparent" points="980.5,-144.8868 980.5,-167.8868 1136.5,-167.8868 1136.5,-144.8868 980.5,-144.8868"/>
<polygon fill="none" stroke="#000000" points="980.5,-144.8868 980.5,-167.8868 1136.5,-167.8868 1136.5,-144.8868 980.5,-144.8868"/>
<text text-anchor="start" x="985.5" y="-153.4868" font-family="Helvetica,sans-Serif" font-weight="bold" font-size="11.00" fill="#000000">procedure_report</text>
<text text-anchor="start" x="1102.0219" y="-152.9868" font-family="Helvetica,sans-Serif" font-size="11.00" fill="#000000">[table]</text>
<polygon fill="none" stroke="#000000" points="980.5,-125.8868 980.5,-144.8868 1136.5,-144.8868 1136.5,-125.8868 980.5,-125.8868"/>
<text text-anchor="start" x="983.5" y="-131.9868" font-family="Helvetica,sans-Serif" font-size="11.00" fill="#000000">...</text>
<polygon fill="#ffffff" stroke="transparent" points="980.5,-106.8868 980.5,-125.8868 1052.5,-125.8868 1052.5,-106.8868 980.5,-106.8868"/>
<polygon fill="none" stroke="#000000" points="980.5,-106.8868 980.5,-125.8868 1052.5,-125.8868 1052.5,-106.8868 980.5,-106.8868"/>
<text text-anchor="start" x="983.5" y="-112.9868" font-family="Helvetica,sans-Serif" font-size="11.00" fill="#000000">&lt; 3</text>
<polygon fill="#ffffff" stroke="transparent" points="1052.5,-106.8868 1052.5,-125.8868 1089.5,-125.8868 1089.5,-106.8868 1052.5,-106.8868"/>
<polygon fill="none" stroke="#000000" points="1052.5,-106.8868 1052.5,-125.8868 1089.5,-125.8868 1089.5,-106.8868 1052.5,-106.8868"/>
<text text-anchor="start" x="1080.3862" y="-112.9868" font-family="Helvetica,sans-Serif" font-size="11.00" fill="#000000"> &#160;</text>
<polygon fill="#ffffff" stroke="transparent" points="1089.5,-106.8868 1089.5,-125.8868 1136.5,-125.8868 1136.5,-106.8868 1089.5,-106.8868"/>
<polygon fill="none" stroke="#000000" points="1089.5,-106.8868 1089.5,-125.8868 1136.5,-125.8868 1136.5,-106.8868 1089.5,-106.8868"/>
<text text-anchor="start" x="1117.9053" y="-112.9868" font-family="Helvetica,sans-Serif" font-size="11.00" fill="#000000">1 &gt;</text>
</a>
</g>
</g>
<!-- procedure_report&#45;&gt;users -->
<g id="edge35" class="edge">
<title>procedure_report:w&#45;&gt;users:e</title>
<path fill="none" stroke="#000000" d="M966.0326,-134.8664C675.079,-134.0435 596.0266,-108.7018 299,-132.8868 271.6176,-135.1164 265.473,-142.8868 238,-142.8868"/>
<polygon fill="#000000" stroke="#000000" points="972.5,-134.8755 980.4949,-138.4868 976.5,-134.8811 980.5,-134.8868 980.5,-134.8868 980.5,-134.8868 976.5,-134.8811 980.5051,-131.2868 972.5,-134.8755 972.5,-134.8755"/>
<ellipse fill="none" stroke="#000000" cx="969.3" cy="-134.8709" rx="3.2" ry="3.2"/>
</g>
<!-- procedure_report&#45;&gt;list_options -->
<g id="edge34" class="edge">
<title>procedure_report:w&#45;&gt;list_options:e</title>
<path fill="none" stroke="#000000" d="M965.7369,-135.1122C830.5576,-139.3258 802.3441,-201.7026 666,-244.8868 576.1396,-273.3482 352.26,-360.8868 258,-360.8868"/>
<polygon fill="#000000" stroke="#000000" points="972.5009,-135.009 980.555,-138.4864 976.5005,-134.9479 980.5,-134.8868 980.5,-134.8868 980.5,-134.8868 976.5005,-134.9479 980.445,-131.2872 972.5009,-135.009 972.5009,-135.009"/>
<ellipse fill="none" stroke="#000000" cx="969.3013" cy="-135.0578" rx="3.2" ry="3.2"/>
</g>
<!-- procedure_report&#45;&gt;procedure_order -->
<g id="edge33" class="edge">
<title>procedure_report:w&#45;&gt;procedure_order:e</title>
<path fill="none" stroke="#000000" d="M965.9404,-136.1139C904.8237,-147.4425 939.5645,-234.7694 895,-295.8868 886.5199,-307.5168 875.2781,-317.6708 863.4389,-326.2797"/>
<polygon fill="#000000" stroke="#000000" points="972.5283,-135.5587 980.8024,-138.4741 976.5141,-135.2227 980.5,-134.8868 980.5,-134.8868 980.5,-134.8868 976.5141,-135.2227 980.1976,-131.2995 972.5283,-135.5587 972.5283,-135.5587"/>
<ellipse fill="none" stroke="#000000" cx="969.3396" cy="-135.8275" rx="3.2" ry="3.2"/>
</g>
<!-- procedure_specimen -->
<g id="node14" class="node">
<title>procedure_specimen</title>
<g id="a_node14"><a xlink:href="../../tables/procedure_specimen.html" xlink:title="procedure_specimen" target="_top">
<polygon fill="#ffffff" stroke="transparent" points="1230,-741.3868 1230,-802.3868 1408,-802.3868 1408,-741.3868 1230,-741.3868"/>
<polygon fill="#f5f5f5" stroke="transparent" points="1230,-778.8868 1230,-801.8868 1408,-801.8868 1408,-778.8868 1230,-778.8868"/>
<polygon fill="none" stroke="#000000" points="1230,-778.8868 1230,-801.8868 1408,-801.8868 1408,-778.8868 1230,-778.8868"/>
<text text-anchor="start" x="1235" y="-787.4868" font-family="Helvetica,sans-Serif" font-weight="bold" font-size="11.00" fill="#000000">procedure_specimen</text>
<text text-anchor="start" x="1373.5219" y="-786.9868" font-family="Helvetica,sans-Serif" font-size="11.00" fill="#000000">[table]</text>
<polygon fill="none" stroke="#000000" points="1230,-759.8868 1230,-778.8868 1408,-778.8868 1408,-759.8868 1230,-759.8868"/>
<text text-anchor="start" x="1233" y="-765.9868" font-family="Helvetica,sans-Serif" font-size="11.00" fill="#000000">...</text>
<polygon fill="#ffffff" stroke="transparent" points="1230,-740.8868 1230,-759.8868 1317,-759.8868 1317,-740.8868 1230,-740.8868"/>
<polygon fill="none" stroke="#000000" points="1230,-740.8868 1230,-759.8868 1317,-759.8868 1317,-740.8868 1230,-740.8868"/>
<text text-anchor="start" x="1233" y="-746.9868" font-family="Helvetica,sans-Serif" font-size="11.00" fill="#000000">&lt; 8</text>
<polygon fill="#ffffff" stroke="transparent" points="1317,-740.8868 1317,-759.8868 1362,-759.8868 1362,-740.8868 1317,-740.8868"/>
<polygon fill="none" stroke="#000000" points="1317,-740.8868 1317,-759.8868 1362,-759.8868 1362,-740.8868 1317,-740.8868"/>
<text text-anchor="start" x="1352.8862" y="-746.9868" font-family="Helvetica,sans-Serif" font-size="11.00" fill="#000000"> &#160;</text>
<polygon fill="#ffffff" stroke="transparent" points="1362,-740.8868 1362,-759.8868 1408,-759.8868 1408,-740.8868 1362,-740.8868"/>
<polygon fill="none" stroke="#000000" points="1362,-740.8868 1362,-759.8868 1408,-759.8868 1408,-740.8868 1362,-740.8868"/>
<text text-anchor="start" x="1398.8862" y="-746.9868" font-family="Helvetica,sans-Serif" font-size="11.00" fill="#000000"> &#160;</text>
</a>
</g>
</g>
<!-- procedure_specimen&#45;&gt;users -->
<g id="edge38" class="edge">
<title>procedure_specimen:w&#45;&gt;users:e</title>
<path fill="none" stroke="#000000" d="M1317.2178,-722.7648C1310.8516,-580.5667 1284.2516,-173.7161 1189,-90.8868 1057.3612,23.5843 971.4488,-70.8868 797,-70.8868 797,-70.8868 797,-70.8868 569,-70.8868 447.3447,-70.8868 416.9227,-85.9832 299,-115.8868 271.207,-122.9347 266.6727,-136.8868 238,-142.8868"/>
<polygon fill="#000000" stroke="#000000" points="1317.494,-729.2334 1314.2387,-737.3798 1317.6648,-733.2298 1317.8355,-737.2261 1317.8355,-737.2261 1317.8355,-737.2261 1317.6648,-733.2298 1321.4322,-737.0725 1317.494,-729.2334 1317.494,-729.2334"/>
<ellipse fill="none" stroke="#000000" cx="1317.3575" cy="-726.0363" rx="3.2" ry="3.2"/>
</g>
<!-- procedure_specimen&#45;&gt;users -->
<g id="edge43" class="edge">
<title>procedure_specimen:w&#45;&gt;users:e</title>
<path fill="none" stroke="#000000" d="M1316.9242,-722.3157C1310.0558,-581.6903 1282.8532,-185.5001 1189,-103.8868 1057.3612,10.5843 971.4488,-83.8868 797,-83.8868 797,-83.8868 797,-83.8868 569,-83.8868 447.3447,-83.8868 416.9227,-98.9832 299,-128.8868 271.207,-135.9347 266.6727,-149.8868 238,-142.8868"/>
<polygon fill="#000000" stroke="#000000" points="1317.2388,-729.032 1314.0173,-737.1918 1317.4261,-733.0276 1317.6133,-737.0232 1317.6133,-737.0232 1317.6133,-737.0232 1317.4261,-733.0276 1321.2094,-736.8547 1317.2388,-729.032 1317.2388,-729.032"/>
<ellipse fill="none" stroke="#000000" cx="1317.089" cy="-725.8355" rx="3.2" ry="3.2"/>
</g>
<!-- procedure_specimen&#45;&gt;list_options -->
<g id="edge36" class="edge">
<title>procedure_specimen:w&#45;&gt;list_options:e</title>
<path fill="none" stroke="#000000" d="M1207.1177,-774.1303C1101.6189,-784.3398 938.9461,-802.8868 797,-802.8868 797,-802.8868 797,-802.8868 569,-802.8868 381.554,-802.8868 387.6735,-644.0322 299,-478.8868 268.9336,-422.8911 321.5571,-341.8868 258,-360.8868"/>
<polygon fill="#000000" stroke="#000000" points="1213.6526,-773.5072 1221.9582,-776.3316 1217.6346,-773.1275 1221.6165,-772.7478 1221.6165,-772.7478 1221.6165,-772.7478 1217.6346,-773.1275 1221.2748,-769.1641 1213.6526,-773.5072 1213.6526,-773.5072"/>
<ellipse fill="none" stroke="#000000" cx="1210.4671" cy="-773.811" rx="3.2" ry="3.2"/>
</g>
<!-- procedure_specimen&#45;&gt;list_options -->
<g id="edge37" class="edge">
<title>procedure_specimen:w&#45;&gt;list_options:e</title>
<path fill="none" stroke="#000000" d="M1207.1177,-784.1933C1101.6189,-797.3398 938.9461,-815.8868 797,-815.8868 797,-815.8868 797,-815.8868 569,-815.8868 381.554,-815.8868 387.6735,-657.0322 299,-491.8868 268.9336,-435.8911 321.5571,-354.8868 258,-360.8868"/>
<polygon fill="#000000" stroke="#000000" points="1213.6786,-783.3713 1222.0641,-785.9487 1217.6475,-782.874 1221.6165,-782.3766 1221.6165,-782.3766 1221.6165,-782.3766 1217.6475,-782.874 1221.1689,-778.8046 1213.6786,-783.3713 1213.6786,-783.3713"/>
<ellipse fill="none" stroke="#000000" cx="1210.5034" cy="-783.7692" rx="3.2" ry="3.2"/>
</g>
<!-- procedure_specimen&#45;&gt;list_options -->
<g id="edge41" class="edge">
<title>procedure_specimen:w&#45;&gt;list_options:e</title>
<path fill="none" stroke="#000000" d="M1207.1177,-794.2564C1101.6189,-810.3398 938.9461,-828.8868 797,-828.8868 797,-828.8868 797,-828.8868 569,-828.8868 381.554,-828.8868 387.6735,-670.0322 299,-504.8868 268.9336,-448.8911 321.5571,-367.8868 258,-360.8868"/>
<polygon fill="#000000" stroke="#000000" points="1213.7112,-793.2328 1222.1688,-795.5628 1217.6638,-792.6191 1221.6165,-792.0055 1221.6165,-792.0055 1221.6165,-792.0055 1217.6638,-792.6191 1221.0642,-788.4481 1213.7112,-793.2328 1213.7112,-793.2328"/>
<ellipse fill="none" stroke="#000000" cx="1210.5491" cy="-793.7237" rx="3.2" ry="3.2"/>
</g>
<!-- procedure_specimen&#45;&gt;list_options -->
<g id="edge42" class="edge">
<title>procedure_specimen:w&#45;&gt;list_options:e</title>
<path fill="none" stroke="#000000" d="M1207.4412,-804.261C1101.9516,-823.3018 939.0912,-841.8868 797,-841.8868 797,-841.8868 797,-841.8868 569,-841.8868 381.554,-841.8868 387.6735,-683.0322 299,-517.8868 268.9336,-461.8911 321.5571,-380.8868 258,-360.8868"/>
<polygon fill="#000000" stroke="#000000" points="1213.7504,-803.0919 1222.2724,-805.174 1217.6835,-802.3631 1221.6165,-801.6343 1221.6165,-801.6343 1221.6165,-801.6343 1217.6835,-802.3631 1220.9605,-798.0945 1213.7504,-803.0919 1213.7504,-803.0919"/>
<ellipse fill="none" stroke="#000000" cx="1210.604" cy="-803.675" rx="3.2" ry="3.2"/>
</g>
<!-- procedure_specimen&#45;&gt;procedure_order -->
<g id="edge39" class="edge">
<title>procedure_specimen:w&#45;&gt;procedure_order:e</title>
<path fill="none" stroke="#000000" d="M1313.2721,-722.7525C1299.102,-610.7553 1258.4361,-342.1052 1189,-288.8868 1142.9657,-253.6044 984.1786,-274.4657 928,-288.8868 898.967,-296.3396 869.4659,-311.7234 845.8289,-326.3647"/>
<polygon fill="#000000" stroke="#000000" points="1314.0745,-729.2281 1311.4857,-737.6101 1314.5664,-733.1978 1315.0584,-737.1674 1315.0584,-737.1674 1315.0584,-737.1674 1314.5664,-733.1978 1318.631,-736.7246 1314.0745,-729.2281 1314.0745,-729.2281"/>
<ellipse fill="none" stroke="#000000" cx="1313.6809" cy="-726.0524" rx="3.2" ry="3.2"/>
</g>
<!-- procedure_specimen&#45;&gt;procedure_order_code -->
<g id="edge40" class="edge">
<title>procedure_specimen:w&#45;&gt;procedure_order_code:e</title>
<path fill="none" stroke="#000000" d="M1236.9094,-732.501C1217.8401,-726.2985 1197.3126,-721.8868 1177.5,-721.8868"/>
<polygon fill="#000000" stroke="#000000" points="1242.9616,-734.6355 1249.3088,-740.6915 1246.7339,-735.966 1250.5062,-737.2964 1250.5062,-737.2964 1250.5062,-737.2964 1246.7339,-735.966 1251.7036,-733.9014 1242.9616,-734.6355 1242.9616,-734.6355"/>
<ellipse fill="none" stroke="#000000" cx="1239.9438" cy="-733.5712" rx="3.2" ry="3.2"/>
</g>
</g>
</svg>
