<?xml version="1.0" encoding="UTF-8" standalone="no"?>
<!DOCTYPE svg PUBLIC "-//W3C//DTD SVG 1.1//EN"
 "http://www.w3.org/Graphics/SVG/1.1/DTD/svg11.dtd">
<!-- Generated by graphviz version 2.40.1 (20161225.0304)
 -->
<!-- Title: twoDegreesRelationshipsDiagram Pages: 1 -->
<svg width="1361pt" height="990pt"
 viewBox="0.00 0.00 1361.00 989.93" xmlns="http://www.w3.org/2000/svg" xmlns:xlink="http://www.w3.org/1999/xlink">
<g id="graph0" class="graph" transform="scale(1 1) rotate(0) translate(4 985.9289)">
<title>twoDegreesRelationshipsDiagram</title>
<polygon fill="#ffffff" stroke="transparent" points="-4,4 -4,-985.9289 1357,-985.9289 1357,4 -4,4"/>
<text text-anchor="middle" x="72.4936" y="-7.3" font-family="Helvetica,sans-Serif" font-size="11.00" fill="#000000">Generated by SchemaSpy</text>
<!-- form_encounter -->
<g id="node1" class="node">
<title>form_encounter</title>
<g id="a_node1"><a xlink:href="../../tables/form_encounter.html" xlink:title="form_encounter" target="_top">
<polygon fill="#ffffff" stroke="transparent" points="482,-733.9289 482,-794.9289 627,-794.9289 627,-733.9289 482,-733.9289"/>
<polygon fill="#f5f5f5" stroke="transparent" points="482.5,-771.4289 482.5,-794.4289 627.5,-794.4289 627.5,-771.4289 482.5,-771.4289"/>
<polygon fill="none" stroke="#000000" points="482.5,-771.4289 482.5,-794.4289 627.5,-794.4289 627.5,-771.4289 482.5,-771.4289"/>
<text text-anchor="start" x="487.5" y="-780.0289" font-family="Helvetica,sans-Serif" font-weight="bold" font-size="11.00" fill="#000000">form_encounter</text>
<text text-anchor="start" x="593.0219" y="-779.5289" font-family="Helvetica,sans-Serif" font-size="11.00" fill="#000000">[table]</text>
<polygon fill="none" stroke="#000000" points="482.5,-752.4289 482.5,-771.4289 627.5,-771.4289 627.5,-752.4289 482.5,-752.4289"/>
<text text-anchor="start" x="485.5" y="-758.5289" font-family="Helvetica,sans-Serif" font-size="11.00" fill="#000000">...</text>
<polygon fill="#ffffff" stroke="transparent" points="482.5,-733.4289 482.5,-752.4289 545.5,-752.4289 545.5,-733.4289 482.5,-733.4289"/>
<polygon fill="none" stroke="#000000" points="482.5,-733.4289 482.5,-752.4289 545.5,-752.4289 545.5,-733.4289 482.5,-733.4289"/>
<text text-anchor="start" x="485.5" y="-739.5289" font-family="Helvetica,sans-Serif" font-size="11.00" fill="#000000">&lt; 1</text>
<polygon fill="#ffffff" stroke="transparent" points="545.5,-733.4289 545.5,-752.4289 578.5,-752.4289 578.5,-733.4289 545.5,-733.4289"/>
<polygon fill="none" stroke="#000000" points="545.5,-733.4289 545.5,-752.4289 578.5,-752.4289 578.5,-733.4289 545.5,-733.4289"/>
<text text-anchor="start" x="569.3862" y="-739.5289" font-family="Helvetica,sans-Serif" font-size="11.00" fill="#000000"> &#160;</text>
<polygon fill="#ffffff" stroke="transparent" points="578.5,-733.4289 578.5,-752.4289 627.5,-752.4289 627.5,-733.4289 578.5,-733.4289"/>
<polygon fill="none" stroke="#000000" points="578.5,-733.4289 578.5,-752.4289 627.5,-752.4289 627.5,-733.4289 578.5,-733.4289"/>
<text text-anchor="start" x="602.7904" y="-739.5289" font-family="Helvetica,sans-Serif" font-size="11.00" fill="#000000">14 &gt;</text>
</a>
</g>
</g>
<!-- patient_data -->
<g id="node2" class="node">
<title>patient_data</title>
<g id="a_node2"><a xlink:href="../../tables/patient_data.html" xlink:title="patient_data" target="_top">
<polygon fill="#ffffff" stroke="transparent" points="266,-746.9289 266,-807.9289 390,-807.9289 390,-746.9289 266,-746.9289"/>
<polygon fill="#f5f5f5" stroke="transparent" points="266,-784.4289 266,-807.4289 390,-807.4289 390,-784.4289 266,-784.4289"/>
<polygon fill="none" stroke="#000000" points="266,-784.4289 266,-807.4289 390,-807.4289 390,-784.4289 266,-784.4289"/>
<text text-anchor="start" x="271" y="-793.0289" font-family="Helvetica,sans-Serif" font-weight="bold" font-size="11.00" fill="#000000">patient_data</text>
<text text-anchor="start" x="355.5219" y="-792.5289" font-family="Helvetica,sans-Serif" font-size="11.00" fill="#000000">[table]</text>
<polygon fill="none" stroke="#000000" points="266,-765.4289 266,-784.4289 390,-784.4289 390,-765.4289 266,-765.4289"/>
<text text-anchor="start" x="269" y="-771.5289" font-family="Helvetica,sans-Serif" font-size="11.00" fill="#000000">...</text>
<polygon fill="#ffffff" stroke="transparent" points="266,-746.4289 266,-765.4289 319,-765.4289 319,-746.4289 266,-746.4289"/>
<polygon fill="none" stroke="#000000" points="266,-746.4289 266,-765.4289 319,-765.4289 319,-746.4289 266,-746.4289"/>
<text text-anchor="start" x="269" y="-752.5289" font-family="Helvetica,sans-Serif" font-size="11.00" fill="#000000">&lt; 5</text>
<polygon fill="#ffffff" stroke="transparent" points="319,-746.4289 319,-765.4289 347,-765.4289 347,-746.4289 319,-746.4289"/>
<polygon fill="none" stroke="#000000" points="319,-746.4289 319,-765.4289 347,-765.4289 347,-746.4289 319,-746.4289"/>
<text text-anchor="start" x="337.8862" y="-752.5289" font-family="Helvetica,sans-Serif" font-size="11.00" fill="#000000"> &#160;</text>
<polygon fill="#ffffff" stroke="transparent" points="347,-746.4289 347,-765.4289 390,-765.4289 390,-746.4289 347,-746.4289"/>
<polygon fill="none" stroke="#000000" points="347,-746.4289 347,-765.4289 390,-765.4289 390,-746.4289 347,-746.4289"/>
<text text-anchor="start" x="365.2904" y="-752.5289" font-family="Helvetica,sans-Serif" font-size="11.00" fill="#000000">85 &gt;</text>
</a>
</g>
</g>
<!-- form_encounter&#45;&gt;patient_data -->
<g id="edge1" class="edge">
<title>form_encounter:w&#45;&gt;patient_data:e</title>
<path fill="none" stroke="#000000" d="M467.9055,-762.0213C438.011,-764.5645 426.1636,-774.4289 390,-774.4289"/>
<polygon fill="#000000" stroke="#000000" points="474.5066,-761.7534 482.646,-765.026 478.5033,-761.5912 482.5,-761.4289 482.5,-761.4289 482.5,-761.4289 478.5033,-761.5912 482.354,-757.8319 474.5066,-761.7534 474.5066,-761.7534"/>
<ellipse fill="none" stroke="#000000" cx="471.3092" cy="-761.8832" rx="3.2" ry="3.2"/>
</g>
<!-- users -->
<g id="node3" class="node">
<title>users</title>
<g id="a_node3"><a xlink:href="../../tables/users.html" xlink:title="users" target="_top">
<polygon fill="#ffffff" stroke="transparent" points="142,-746.9289 142,-807.9289 217,-807.9289 217,-746.9289 142,-746.9289"/>
<polygon fill="#f5f5f5" stroke="transparent" points="142.5,-784.4289 142.5,-807.4289 217.5,-807.4289 217.5,-784.4289 142.5,-784.4289"/>
<polygon fill="none" stroke="#000000" points="142.5,-784.4289 142.5,-807.4289 217.5,-807.4289 217.5,-784.4289 142.5,-784.4289"/>
<text text-anchor="start" x="147.5" y="-793.0289" font-family="Helvetica,sans-Serif" font-weight="bold" font-size="11.00" fill="#000000">users</text>
<text text-anchor="start" x="183.0219" y="-792.5289" font-family="Helvetica,sans-Serif" font-size="11.00" fill="#000000">[table]</text>
<polygon fill="none" stroke="#000000" points="142.5,-765.4289 142.5,-784.4289 217.5,-784.4289 217.5,-765.4289 142.5,-765.4289"/>
<text text-anchor="start" x="145.5" y="-771.5289" font-family="Helvetica,sans-Serif" font-size="11.00" fill="#000000">...</text>
<polygon fill="#ffffff" stroke="transparent" points="142.5,-746.4289 142.5,-765.4289 170.5,-765.4289 170.5,-746.4289 142.5,-746.4289"/>
<polygon fill="none" stroke="#000000" points="142.5,-746.4289 142.5,-765.4289 170.5,-765.4289 170.5,-746.4289 142.5,-746.4289"/>
<text text-anchor="start" x="145.5" y="-752.5289" font-family="Helvetica,sans-Serif" font-size="11.00" fill="#000000">&lt; 2</text>
<polygon fill="#ffffff" stroke="transparent" points="170.5,-746.4289 170.5,-765.4289 186.5,-765.4289 186.5,-746.4289 170.5,-746.4289"/>
<polygon fill="none" stroke="#000000" points="170.5,-746.4289 170.5,-765.4289 186.5,-765.4289 186.5,-746.4289 170.5,-746.4289"/>
<text text-anchor="start" x="177.3862" y="-752.5289" font-family="Helvetica,sans-Serif" font-size="11.00" fill="#000000"> &#160;</text>
<polygon fill="#ffffff" stroke="transparent" points="186.5,-746.4289 186.5,-765.4289 217.5,-765.4289 217.5,-746.4289 186.5,-746.4289"/>
<polygon fill="none" stroke="#000000" points="186.5,-746.4289 186.5,-765.4289 217.5,-765.4289 217.5,-746.4289 186.5,-746.4289"/>
<text text-anchor="start" x="192.7904" y="-752.5289" font-family="Helvetica,sans-Serif" font-size="11.00" fill="#000000">61 &gt;</text>
</a>
</g>
</g>
<!-- patient_data&#45;&gt;users -->
<g id="edge2" class="edge">
<title>patient_data:w&#45;&gt;users:e</title>
<path fill="none" stroke="#000000" d="M254.5947,-765.2026C241.5882,-756.2129 234.6771,-759.2883 217.5,-774.4289"/>
<polygon fill="#000000" stroke="#000000" points="259.7803,-769.3975 263.7358,-777.2278 262.8901,-771.9132 266,-774.4289 266,-774.4289 266,-774.4289 262.8901,-771.9132 268.2642,-771.6301 259.7803,-769.3975 259.7803,-769.3975"/>
<ellipse fill="none" stroke="#000000" cx="257.2924" cy="-767.3849" rx="3.2" ry="3.2"/>
</g>
<!-- patient_data&#45;&gt;users -->
<g id="edge3" class="edge">
<title>patient_data:w&#45;&gt;users:e</title>
<path fill="none" stroke="#000000" d="M251.9977,-770.9847C240.5912,-768.8277 233.4983,-769.9758 217.5,-774.4289"/>
<polygon fill="#000000" stroke="#000000" points="258.2316,-772.5181 265.1401,-777.9247 262.1158,-773.4735 266,-774.4289 266,-774.4289 266,-774.4289 262.1158,-773.4735 266.8599,-770.9331 258.2316,-772.5181 258.2316,-772.5181"/>
<ellipse fill="none" stroke="#000000" cx="255.1242" cy="-771.7537" rx="3.2" ry="3.2"/>
</g>
<!-- patient_data&#45;&gt;users -->
<g id="edge4" class="edge">
<title>patient_data:w&#45;&gt;users:e</title>
<path fill="none" stroke="#000000" d="M251.9977,-778.4472C240.5912,-780.9637 233.4983,-779.6243 217.5,-774.4289"/>
<polygon fill="#000000" stroke="#000000" points="258.3104,-776.6357 266.993,-777.8893 262.1552,-775.5323 266,-774.4289 266,-774.4289 266,-774.4289 262.1552,-775.5323 265.007,-770.9686 258.3104,-776.6357 258.3104,-776.6357"/>
<ellipse fill="none" stroke="#000000" cx="255.2345" cy="-777.5184" rx="3.2" ry="3.2"/>
</g>
<!-- patient_data&#45;&gt;users -->
<g id="edge5" class="edge">
<title>patient_data:w&#45;&gt;users:e</title>
<path fill="none" stroke="#000000" d="M254.979,-783.8589C241.7227,-793.666 234.8455,-790.5227 217.5,-774.4289"/>
<polygon fill="#000000" stroke="#000000" points="259.9214,-779.63 268.3405,-777.1643 262.9607,-777.0295 266,-774.4289 266,-774.4289 266,-774.4289 262.9607,-777.0295 263.6595,-771.6936 259.9214,-779.63 259.9214,-779.63"/>
<ellipse fill="none" stroke="#000000" cx="257.49" cy="-781.7104" rx="3.2" ry="3.2"/>
</g>
<!-- facility -->
<g id="node7" class="node">
<title>facility</title>
<g id="a_node7"><a xlink:href="../../tables/facility.html" xlink:title="facility" target="_top">
<polygon fill="#ffffff" stroke="transparent" points="8,-746.9289 8,-807.9289 93,-807.9289 93,-746.9289 8,-746.9289"/>
<polygon fill="#f5f5f5" stroke="transparent" points="8.5,-784.4289 8.5,-807.4289 93.5,-807.4289 93.5,-784.4289 8.5,-784.4289"/>
<polygon fill="none" stroke="#000000" points="8.5,-784.4289 8.5,-807.4289 93.5,-807.4289 93.5,-784.4289 8.5,-784.4289"/>
<text text-anchor="start" x="13.5" y="-793.0289" font-family="Helvetica,sans-Serif" font-weight="bold" font-size="11.00" fill="#000000">facility</text>
<text text-anchor="start" x="59.0219" y="-792.5289" font-family="Helvetica,sans-Serif" font-size="11.00" fill="#000000">[table]</text>
<polygon fill="none" stroke="#000000" points="8.5,-765.4289 8.5,-784.4289 93.5,-784.4289 93.5,-765.4289 8.5,-765.4289"/>
<text text-anchor="start" x="11.5" y="-771.5289" font-family="Helvetica,sans-Serif" font-size="11.00" fill="#000000">...</text>
<polygon fill="#ffffff" stroke="transparent" points="8.5,-746.4289 8.5,-765.4289 40.5,-765.4289 40.5,-746.4289 8.5,-746.4289"/>
<polygon fill="none" stroke="#000000" points="8.5,-746.4289 8.5,-765.4289 40.5,-765.4289 40.5,-746.4289 8.5,-746.4289"/>
<text text-anchor="start" x="11.5" y="-752.5289" font-family="Helvetica,sans-Serif" font-size="11.00" fill="#000000"> &#160;</text>
<polygon fill="#ffffff" stroke="transparent" points="40.5,-746.4289 40.5,-765.4289 62.5,-765.4289 62.5,-746.4289 40.5,-746.4289"/>
<polygon fill="none" stroke="#000000" points="40.5,-746.4289 40.5,-765.4289 62.5,-765.4289 62.5,-746.4289 40.5,-746.4289"/>
<text text-anchor="start" x="53.3862" y="-752.5289" font-family="Helvetica,sans-Serif" font-size="11.00" fill="#000000"> &#160;</text>
<polygon fill="#ffffff" stroke="transparent" points="62.5,-746.4289 62.5,-765.4289 93.5,-765.4289 93.5,-746.4289 62.5,-746.4289"/>
<polygon fill="none" stroke="#000000" points="62.5,-746.4289 62.5,-765.4289 93.5,-765.4289 93.5,-746.4289 62.5,-746.4289"/>
<text text-anchor="start" x="74.9053" y="-752.5289" font-family="Helvetica,sans-Serif" font-size="11.00" fill="#000000">8 &gt;</text>
</a>
</g>
</g>
<!-- users&#45;&gt;facility -->
<g id="edge29" class="edge">
<title>users:w&#45;&gt;facility:e</title>
<path fill="none" stroke="#000000" d="M128.3534,-770.9847C116.8293,-768.8277 109.6632,-769.9758 93.5,-774.4289"/>
<polygon fill="#000000" stroke="#000000" points="134.7271,-772.5365 141.6484,-777.9268 138.6135,-773.4827 142.5,-774.4289 142.5,-774.4289 142.5,-774.4289 138.6135,-773.4827 143.3516,-770.9311 134.7271,-772.5365 134.7271,-772.5365"/>
<ellipse fill="none" stroke="#000000" cx="131.6179" cy="-771.7795" rx="3.2" ry="3.2"/>
</g>
<!-- users&#45;&gt;facility -->
<g id="edge30" class="edge">
<title>users:w&#45;&gt;facility:e</title>
<path fill="none" stroke="#000000" d="M128.3534,-778.4472C116.8293,-780.9637 109.6632,-779.6243 93.5,-774.4289"/>
<polygon fill="#000000" stroke="#000000" points="134.8044,-776.6149 143.4837,-777.892 138.6522,-775.5219 142.5,-774.4289 142.5,-774.4289 142.5,-774.4289 138.6522,-775.5219 141.5163,-770.9659 134.8044,-776.6149 134.8044,-776.6149"/>
<ellipse fill="none" stroke="#000000" cx="131.7262" cy="-777.4892" rx="3.2" ry="3.2"/>
</g>
<!-- procedure_answers -->
<g id="node4" class="node">
<title>procedure_answers</title>
<g id="a_node4"><a xlink:href="../../tables/procedure_answers.html" xlink:title="procedure_answers" target="_top">
<polygon fill="#ffffff" stroke="transparent" points="1175,-629.9289 1175,-690.9289 1345,-690.9289 1345,-629.9289 1175,-629.9289"/>
<polygon fill="#f5f5f5" stroke="transparent" points="1175,-667.4289 1175,-690.4289 1345,-690.4289 1345,-667.4289 1175,-667.4289"/>
<polygon fill="none" stroke="#000000" points="1175,-667.4289 1175,-690.4289 1345,-690.4289 1345,-667.4289 1175,-667.4289"/>
<text text-anchor="start" x="1180" y="-676.0289" font-family="Helvetica,sans-Serif" font-weight="bold" font-size="11.00" fill="#000000">procedure_answers</text>
<text text-anchor="start" x="1310.5219" y="-675.5289" font-family="Helvetica,sans-Serif" font-size="11.00" fill="#000000">[table]</text>
<polygon fill="none" stroke="#000000" points="1175,-648.4289 1175,-667.4289 1345,-667.4289 1345,-648.4289 1175,-648.4289"/>
<text text-anchor="start" x="1178" y="-654.5289" font-family="Helvetica,sans-Serif" font-size="11.00" fill="#000000">...</text>
<polygon fill="#ffffff" stroke="transparent" points="1175,-629.4289 1175,-648.4289 1258,-648.4289 1258,-629.4289 1175,-629.4289"/>
<polygon fill="none" stroke="#000000" points="1175,-629.4289 1175,-648.4289 1258,-648.4289 1258,-629.4289 1175,-629.4289"/>
<text text-anchor="start" x="1178" y="-635.5289" font-family="Helvetica,sans-Serif" font-size="11.00" fill="#000000">&lt; 2</text>
<polygon fill="#ffffff" stroke="transparent" points="1258,-629.4289 1258,-648.4289 1301,-648.4289 1301,-629.4289 1258,-629.4289"/>
<polygon fill="none" stroke="#000000" points="1258,-629.4289 1258,-648.4289 1301,-648.4289 1301,-629.4289 1258,-629.4289"/>
<text text-anchor="start" x="1291.8862" y="-635.5289" font-family="Helvetica,sans-Serif" font-size="11.00" fill="#000000"> &#160;</text>
<polygon fill="#ffffff" stroke="transparent" points="1301,-629.4289 1301,-648.4289 1345,-648.4289 1345,-629.4289 1301,-629.4289"/>
<polygon fill="none" stroke="#000000" points="1301,-629.4289 1301,-648.4289 1345,-648.4289 1345,-629.4289 1301,-629.4289"/>
<text text-anchor="start" x="1335.8862" y="-635.5289" font-family="Helvetica,sans-Serif" font-size="11.00" fill="#000000"> &#160;</text>
</a>
</g>
</g>
<!-- procedure_order -->
<g id="node5" class="node">
<title>procedure_order</title>
<g id="a_node5"><a xlink:href="../../tables/procedure_order.html" xlink:title="procedure_order" target="_top">
<polygon fill="#ffffff" stroke="transparent" points="719,-506.9289 719,-919.9289 888,-919.9289 888,-506.9289 719,-506.9289"/>
<polygon fill="#f5f5f5" stroke="transparent" points="719.5,-896.4289 719.5,-919.4289 888.5,-919.4289 888.5,-896.4289 719.5,-896.4289"/>
<polygon fill="none" stroke="#000000" points="719.5,-896.4289 719.5,-919.4289 888.5,-919.4289 888.5,-896.4289 719.5,-896.4289"/>
<text text-anchor="start" x="724.5" y="-905.0289" font-family="Helvetica,sans-Serif" font-weight="bold" font-size="11.00" fill="#000000">procedure_order</text>
<text text-anchor="start" x="853.5437" y="-904.5289" font-family="Helvetica,sans-Serif" font-size="11.00" fill="#000000">[table]</text>
<polygon fill="none" stroke="#000000" points="719.5,-874.4289 719.5,-896.4289 888.5,-896.4289 888.5,-874.4289 719.5,-874.4289"/>
<image xlink:href="../../images/primaryKeys.png" width="11px" height="12px" preserveAspectRatio="xMinYMin meet" x="724.5" y="-891.429"/>
<text text-anchor="start" x="739.5" y="-881.5289" font-family="Helvetica,sans-Serif" font-size="11.00" fill="#000000">procedure_order_id</text>
<polygon fill="#ffffff" stroke="transparent" points="719.5,-852.4289 719.5,-874.4289 888.5,-874.4289 888.5,-852.4289 719.5,-852.4289"/>
<polygon fill="none" stroke="#000000" points="719.5,-852.4289 719.5,-874.4289 888.5,-874.4289 888.5,-852.4289 719.5,-852.4289"/>
<text text-anchor="start" x="739.5" y="-859.5289" font-family="Helvetica,sans-Serif" font-size="11.00" fill="#000000">uuid</text>
<polygon fill="none" stroke="#000000" points="719.5,-830.4289 719.5,-852.4289 888.5,-852.4289 888.5,-830.4289 719.5,-830.4289"/>
<image xlink:href="../../images/foreignKeys.png" width="11px" height="12px" preserveAspectRatio="xMinYMin meet" x="724.5" y="-847.429"/>
<text text-anchor="start" x="739.5" y="-837.5289" font-family="Helvetica,sans-Serif" font-size="11.00" fill="#000000">provider_id</text>
<polygon fill="#ffffff" stroke="transparent" points="719.5,-808.4289 719.5,-830.4289 888.5,-830.4289 888.5,-808.4289 719.5,-808.4289"/>
<polygon fill="none" stroke="#000000" points="719.5,-808.4289 719.5,-830.4289 888.5,-830.4289 888.5,-808.4289 719.5,-808.4289"/>
<image xlink:href="../../images/foreignKeys.png" width="11px" height="12px" preserveAspectRatio="xMinYMin meet" x="724.5" y="-825.429"/>
<text text-anchor="start" x="739.5" y="-815.5289" font-family="Helvetica,sans-Serif" font-size="11.00" fill="#000000">patient_id</text>
<polygon fill="none" stroke="#000000" points="719.5,-786.4289 719.5,-808.4289 888.5,-808.4289 888.5,-786.4289 719.5,-786.4289"/>
<image xlink:href="../../images/foreignKeys.png" width="11px" height="12px" preserveAspectRatio="xMinYMin meet" x="724.5" y="-803.429"/>
<text text-anchor="start" x="739.5" y="-793.5289" font-family="Helvetica,sans-Serif" font-size="11.00" fill="#000000">encounter_id</text>
<polygon fill="#ffffff" stroke="transparent" points="719.5,-764.4289 719.5,-786.4289 888.5,-786.4289 888.5,-764.4289 719.5,-764.4289"/>
<polygon fill="none" stroke="#000000" points="719.5,-764.4289 719.5,-786.4289 888.5,-786.4289 888.5,-764.4289 719.5,-764.4289"/>
<text text-anchor="start" x="739.5" y="-771.5289" font-family="Helvetica,sans-Serif" font-size="11.00" fill="#000000">date_ordered</text>
<polygon fill="none" stroke="#000000" points="719.5,-742.4289 719.5,-764.4289 888.5,-764.4289 888.5,-742.4289 719.5,-742.4289"/>
<image xlink:href="../../images/foreignKeys.png" width="11px" height="12px" preserveAspectRatio="xMinYMin meet" x="724.5" y="-759.429"/>
<text text-anchor="start" x="739.5" y="-749.5289" font-family="Helvetica,sans-Serif" font-size="11.00" fill="#000000">order_priority</text>
<polygon fill="none" stroke="#000000" points="719.5,-720.4289 719.5,-742.4289 888.5,-742.4289 888.5,-720.4289 719.5,-720.4289"/>
<image xlink:href="../../images/foreignKeys.png" width="11px" height="12px" preserveAspectRatio="xMinYMin meet" x="724.5" y="-737.429"/>
<text text-anchor="start" x="739.5" y="-727.5289" font-family="Helvetica,sans-Serif" font-size="11.00" fill="#000000">order_status</text>
<polygon fill="none" stroke="#000000" points="719.5,-698.4289 719.5,-720.4289 888.5,-720.4289 888.5,-698.4289 719.5,-698.4289"/>
<image xlink:href="../../images/foreignKeys.png" width="11px" height="12px" preserveAspectRatio="xMinYMin meet" x="724.5" y="-715.429"/>
<text text-anchor="start" x="739.5" y="-705.5289" font-family="Helvetica,sans-Serif" font-size="11.00" fill="#000000">lab_id</text>
<polygon fill="none" stroke="#000000" points="719.5,-676.4289 719.5,-698.4289 888.5,-698.4289 888.5,-676.4289 719.5,-676.4289"/>
<image xlink:href="../../images/foreignKeys.png" width="11px" height="12px" preserveAspectRatio="xMinYMin meet" x="724.5" y="-693.429"/>
<text text-anchor="start" x="739.5" y="-683.5289" font-family="Helvetica,sans-Serif" font-size="11.00" fill="#000000">specimen_type</text>
<polygon fill="none" stroke="#000000" points="719.5,-654.4289 719.5,-676.4289 888.5,-676.4289 888.5,-654.4289 719.5,-654.4289"/>
<image xlink:href="../../images/foreignKeys.png" width="11px" height="12px" preserveAspectRatio="xMinYMin meet" x="724.5" y="-671.429"/>
<text text-anchor="start" x="739.5" y="-661.5289" font-family="Helvetica,sans-Serif" font-size="11.00" fill="#000000">specimen_location</text>
<polygon fill="none" stroke="#000000" points="719.5,-632.4289 719.5,-654.4289 888.5,-654.4289 888.5,-632.4289 719.5,-632.4289"/>
<image xlink:href="../../images/foreignKeys.png" width="11px" height="12px" preserveAspectRatio="xMinYMin meet" x="724.5" y="-649.429"/>
<text text-anchor="start" x="739.5" y="-639.5289" font-family="Helvetica,sans-Serif" font-size="11.00" fill="#000000">billing_type</text>
<polygon fill="none" stroke="#000000" points="719.5,-610.4289 719.5,-632.4289 888.5,-632.4289 888.5,-610.4289 719.5,-610.4289"/>
<image xlink:href="../../images/foreignKeys.png" width="11px" height="12px" preserveAspectRatio="xMinYMin meet" x="724.5" y="-627.429"/>
<text text-anchor="start" x="739.5" y="-617.5289" font-family="Helvetica,sans-Serif" font-size="11.00" fill="#000000">collector_id</text>
<polygon fill="none" stroke="#000000" points="719.5,-588.4289 719.5,-610.4289 888.5,-610.4289 888.5,-588.4289 719.5,-588.4289"/>
<image xlink:href="../../images/foreignKeys.png" width="11px" height="12px" preserveAspectRatio="xMinYMin meet" x="724.5" y="-605.429"/>
<text text-anchor="start" x="739.5" y="-595.5289" font-family="Helvetica,sans-Serif" font-size="11.00" fill="#000000">account_facility</text>
<polygon fill="none" stroke="#000000" points="719.5,-566.4289 719.5,-588.4289 888.5,-588.4289 888.5,-566.4289 719.5,-566.4289"/>
<image xlink:href="../../images/foreignKeys.png" width="11px" height="12px" preserveAspectRatio="xMinYMin meet" x="724.5" y="-583.429"/>
<text text-anchor="start" x="739.5" y="-573.5289" font-family="Helvetica,sans-Serif" font-size="11.00" fill="#000000">procedure_type</text>
<polygon fill="none" stroke="#000000" points="719.5,-544.4289 719.5,-566.4289 888.5,-566.4289 888.5,-544.4289 719.5,-544.4289"/>
<image xlink:href="../../images/foreignKeys.png" width="11px" height="12px" preserveAspectRatio="xMinYMin meet" x="724.5" y="-561.429"/>
<text text-anchor="start" x="739.5" y="-551.5289" font-family="Helvetica,sans-Serif" font-size="11.00" fill="#000000">procedure_order_type</text>
<polygon fill="none" stroke="#000000" points="719.5,-525.4289 719.5,-544.4289 888.5,-544.4289 888.5,-525.4289 719.5,-525.4289"/>
<text text-anchor="start" x="722.5" y="-531.5289" font-family="Helvetica,sans-Serif" font-size="11.00" fill="#000000">...</text>
<polygon fill="#ffffff" stroke="transparent" points="719.5,-506.4289 719.5,-525.4289 800.5,-525.4289 800.5,-506.4289 719.5,-506.4289"/>
<polygon fill="none" stroke="#000000" points="719.5,-506.4289 719.5,-525.4289 800.5,-525.4289 800.5,-506.4289 719.5,-506.4289"/>
<text text-anchor="start" x="722.5" y="-512.5289" font-family="Helvetica,sans-Serif" font-size="11.00" fill="#000000">&lt; 13</text>
<polygon fill="#ffffff" stroke="transparent" points="800.5,-506.4289 800.5,-525.4289 839.5,-525.4289 839.5,-506.4289 800.5,-506.4289"/>
<polygon fill="none" stroke="#000000" points="800.5,-506.4289 800.5,-525.4289 839.5,-525.4289 839.5,-506.4289 800.5,-506.4289"/>
<text text-anchor="start" x="830.3862" y="-512.5289" font-family="Helvetica,sans-Serif" font-size="11.00" fill="#000000"> &#160;</text>
<polygon fill="#ffffff" stroke="transparent" points="839.5,-506.4289 839.5,-525.4289 888.5,-525.4289 888.5,-506.4289 839.5,-506.4289"/>
<polygon fill="none" stroke="#000000" points="839.5,-506.4289 839.5,-525.4289 888.5,-525.4289 888.5,-506.4289 839.5,-506.4289"/>
<text text-anchor="start" x="869.9053" y="-512.5289" font-family="Helvetica,sans-Serif" font-size="11.00" fill="#000000">3 &gt;</text>
</a>
</g>
</g>
<!-- procedure_answers&#45;&gt;procedure_order -->
<g id="edge6" class="edge">
<title>procedure_answers:w&#45;&gt;procedure_order:e</title>
<path fill="none" stroke="#000000" d="M1160.7789,-660.827C1142.1516,-672.5703 1156.8002,-712.0531 1134,-736.4289 1046.8116,-829.6427 1016.1347,-885.4289 888.5,-885.4289"/>
<polygon fill="#000000" stroke="#000000" points="1167.219,-659.2882 1175.8367,-660.9304 1171.1095,-658.3586 1175,-657.4289 1175,-657.4289 1175,-657.4289 1171.1095,-658.3586 1174.1633,-653.9275 1167.219,-659.2882 1167.219,-659.2882"/>
<ellipse fill="none" stroke="#000000" cx="1164.1067" cy="-660.0319" rx="3.2" ry="3.2"/>
</g>
<!-- procedure_questions -->
<g id="node6" class="node">
<title>procedure_questions</title>
<g id="a_node6"><a xlink:href="../../tables/procedure_questions.html" xlink:title="procedure_questions" target="_top">
<polygon fill="#ffffff" stroke="transparent" points="941.5,-381.9289 941.5,-508.9289 1121.5,-508.9289 1121.5,-381.9289 941.5,-381.9289"/>
<polygon fill="#f5f5f5" stroke="transparent" points="941.5,-485.4289 941.5,-508.4289 1121.5,-508.4289 1121.5,-485.4289 941.5,-485.4289"/>
<polygon fill="none" stroke="#000000" points="941.5,-485.4289 941.5,-508.4289 1121.5,-508.4289 1121.5,-485.4289 941.5,-485.4289"/>
<text text-anchor="start" x="946.5" y="-494.0289" font-family="Helvetica,sans-Serif" font-weight="bold" font-size="11.00" fill="#000000">procedure_questions</text>
<text text-anchor="start" x="1087.0219" y="-493.5289" font-family="Helvetica,sans-Serif" font-size="11.00" fill="#000000">[table]</text>
<polygon fill="none" stroke="#000000" points="941.5,-463.4289 941.5,-485.4289 1121.5,-485.4289 1121.5,-463.4289 941.5,-463.4289"/>
<image xlink:href="../../images/primaryKeys.png" width="11px" height="12px" preserveAspectRatio="xMinYMin meet" x="946.5" y="-480.429"/>
<text text-anchor="start" x="970.5" y="-470.5289" font-family="Helvetica,sans-Serif" font-size="11.00" fill="#000000">lab_id</text>
<polygon fill="none" stroke="#000000" points="941.5,-441.4289 941.5,-463.4289 1121.5,-463.4289 1121.5,-441.4289 941.5,-441.4289"/>
<image xlink:href="../../images/primaryKeys.png" width="11px" height="12px" preserveAspectRatio="xMinYMin meet" x="946.5" y="-458.429"/>
<text text-anchor="start" x="970.5" y="-448.5289" font-family="Helvetica,sans-Serif" font-size="11.00" fill="#000000">procedure_code</text>
<polygon fill="none" stroke="#000000" points="941.5,-419.4289 941.5,-441.4289 1121.5,-441.4289 1121.5,-419.4289 941.5,-419.4289"/>
<image xlink:href="../../images/primaryKeys.png" width="11px" height="12px" preserveAspectRatio="xMinYMin meet" x="946.5" y="-436.429"/>
<text text-anchor="start" x="970.5" y="-426.5289" font-family="Helvetica,sans-Serif" font-size="11.00" fill="#000000">question_code</text>
<polygon fill="none" stroke="#000000" points="941.5,-400.4289 941.5,-419.4289 1121.5,-419.4289 1121.5,-400.4289 941.5,-400.4289"/>
<text text-anchor="start" x="944.5" y="-406.5289" font-family="Helvetica,sans-Serif" font-size="11.00" fill="#000000">...</text>
<polygon fill="#ffffff" stroke="transparent" points="941.5,-381.4289 941.5,-400.4289 1025.5,-400.4289 1025.5,-381.4289 941.5,-381.4289"/>
<polygon fill="none" stroke="#000000" points="941.5,-381.4289 941.5,-400.4289 1025.5,-400.4289 1025.5,-381.4289 941.5,-381.4289"/>
<text text-anchor="start" x="944.5" y="-387.5289" font-family="Helvetica,sans-Serif" font-size="11.00" fill="#000000">&lt; 2</text>
<polygon fill="#ffffff" stroke="transparent" points="1025.5,-381.4289 1025.5,-400.4289 1068.5,-400.4289 1068.5,-381.4289 1025.5,-381.4289"/>
<polygon fill="none" stroke="#000000" points="1025.5,-381.4289 1025.5,-400.4289 1068.5,-400.4289 1068.5,-381.4289 1025.5,-381.4289"/>
<text text-anchor="start" x="1059.3862" y="-387.5289" font-family="Helvetica,sans-Serif" font-size="11.00" fill="#000000"> &#160;</text>
<polygon fill="#ffffff" stroke="transparent" points="1068.5,-381.4289 1068.5,-400.4289 1121.5,-400.4289 1121.5,-381.4289 1068.5,-381.4289"/>
<polygon fill="none" stroke="#000000" points="1068.5,-381.4289 1068.5,-400.4289 1121.5,-400.4289 1121.5,-381.4289 1068.5,-381.4289"/>
<text text-anchor="start" x="1102.9053" y="-387.5289" font-family="Helvetica,sans-Serif" font-size="11.00" fill="#000000">1 &gt;</text>
</a>
</g>
</g>
<!-- procedure_answers&#45;&gt;procedure_questions -->
<g id="edge7" class="edge">
<title>procedure_answers:w&#45;&gt;procedure_questions:e</title>
<path fill="none" stroke="#000000" d="M1160.6742,-655.6017C1086.8527,-634.1188 1219.687,-430.4289 1121.5,-430.4289"/>
<polygon fill="#000000" stroke="#000000" points="1167.0643,-656.4167 1174.5445,-661 1171.0321,-656.9228 1175,-657.4289 1175,-657.4289 1175,-657.4289 1171.0321,-656.9228 1175.4555,-653.8579 1167.0643,-656.4167 1167.0643,-656.4167"/>
<ellipse fill="none" stroke="#000000" cx="1163.89" cy="-656.0118" rx="3.2" ry="3.2"/>
</g>
<!-- procedure_order&#45;&gt;form_encounter -->
<g id="edge11" class="edge">
<title>procedure_order:w&#45;&gt;form_encounter:e</title>
<path fill="none" stroke="#000000" d="M705.1555,-795.9731C673.9963,-789.2381 666.0909,-761.4289 627.5,-761.4289"/>
<polygon fill="#000000" stroke="#000000" points="711.5409,-796.6211 719.1365,-801.0105 715.5204,-797.025 719.5,-797.4289 719.5,-797.4289 719.5,-797.4289 715.5204,-797.025 719.8635,-793.8473 711.5409,-796.6211 711.5409,-796.6211"/>
<ellipse fill="none" stroke="#000000" cx="708.3572" cy="-796.298" rx="3.2" ry="3.2"/>
</g>
<!-- procedure_order&#45;&gt;patient_data -->
<g id="edge15" class="edge">
<title>procedure_order:w&#45;&gt;patient_data:e</title>
<path fill="none" stroke="#000000" d="M704.8532,-819.5591C587.9212,-821.6425 546.9665,-847.4896 431,-805.4289 409.5243,-797.6398 412.8446,-774.4289 390,-774.4289"/>
<polygon fill="#000000" stroke="#000000" points="711.5003,-819.5001 719.532,-823.0288 715.5002,-819.4645 719.5,-819.4289 719.5,-819.4289 719.5,-819.4289 715.5002,-819.4645 719.468,-815.8291 711.5003,-819.5001 711.5003,-819.5001"/>
<ellipse fill="none" stroke="#000000" cx="708.3004" cy="-819.5285" rx="3.2" ry="3.2"/>
</g>
<!-- procedure_order&#45;&gt;users -->
<g id="edge10" class="edge">
<title>procedure_order:w&#45;&gt;users:e</title>
<path fill="none" stroke="#000000" d="M704.8478,-621.3588C587.9745,-620.2416 549.5029,-606.621 431,-641.4289 346.8366,-666.1503 328.9893,-684.9009 258,-736.4289 238.0248,-750.9281 242.1827,-774.4289 217.5,-774.4289"/>
<polygon fill="#000000" stroke="#000000" points="711.5001,-621.3906 719.4827,-625.0289 715.5,-621.4098 719.5,-621.4289 719.5,-621.4289 719.5,-621.4289 715.5,-621.4098 719.5173,-617.829 711.5001,-621.3906 711.5001,-621.3906"/>
<ellipse fill="none" stroke="#000000" cx="708.3001" cy="-621.3752" rx="3.2" ry="3.2"/>
</g>
<!-- procedure_order&#45;&gt;users -->
<g id="edge18" class="edge">
<title>procedure_order:w&#45;&gt;users:e</title>
<path fill="none" stroke="#000000" d="M704.988,-841.5365C510.7054,-844.4218 439.4118,-903.698 258,-818.4289 233.9461,-807.1229 244.0786,-774.4289 217.5,-774.4289"/>
<polygon fill="#000000" stroke="#000000" points="711.5002,-841.4883 719.5267,-845.0288 715.5001,-841.4586 719.5,-841.4289 719.5,-841.4289 719.5,-841.4289 715.5001,-841.4586 719.4733,-837.829 711.5002,-841.4883 711.5002,-841.4883"/>
<ellipse fill="none" stroke="#000000" cx="708.3003" cy="-841.512" rx="3.2" ry="3.2"/>
</g>
<!-- procedure_order&#45;&gt;facility -->
<g id="edge8" class="edge">
<title>procedure_order:w&#45;&gt;facility:e</title>
<path fill="none" stroke="#000000" d="M707.8198,-590.7396C670.7528,-525.9879 716.8049,-120.2499 678,-84.4289 597.3361,-9.9676 524.1296,-26.3081 431,-84.4289 394.7983,-107.0219 136.1733,-774.4289 93.5,-774.4289"/>
<polygon fill="#000000" stroke="#000000" points="713.0814,-594.6539 717.3512,-602.3173 716.2907,-597.0414 719.5,-599.4289 719.5,-599.4289 719.5,-599.4289 716.2907,-597.0414 721.6488,-596.5406 713.0814,-594.6539 713.0814,-594.6539"/>
<ellipse fill="none" stroke="#000000" cx="710.5139" cy="-592.7438" rx="3.2" ry="3.2"/>
</g>
<!-- list_options -->
<g id="node8" class="node">
<title>list_options</title>
<g id="a_node8"><a xlink:href="../../tables/list_options.html" xlink:title="list_options" target="_top">
<polygon fill="#ffffff" stroke="transparent" points="496.5,-651.9289 496.5,-712.9289 612.5,-712.9289 612.5,-651.9289 496.5,-651.9289"/>
<polygon fill="#f5f5f5" stroke="transparent" points="496.5,-689.4289 496.5,-712.4289 612.5,-712.4289 612.5,-689.4289 496.5,-689.4289"/>
<polygon fill="none" stroke="#000000" points="496.5,-689.4289 496.5,-712.4289 612.5,-712.4289 612.5,-689.4289 496.5,-689.4289"/>
<text text-anchor="start" x="501.5" y="-698.0289" font-family="Helvetica,sans-Serif" font-weight="bold" font-size="11.00" fill="#000000">list_options</text>
<text text-anchor="start" x="578.0219" y="-697.5289" font-family="Helvetica,sans-Serif" font-size="11.00" fill="#000000">[table]</text>
<polygon fill="none" stroke="#000000" points="496.5,-670.4289 496.5,-689.4289 612.5,-689.4289 612.5,-670.4289 496.5,-670.4289"/>
<text text-anchor="start" x="499.5" y="-676.5289" font-family="Helvetica,sans-Serif" font-size="11.00" fill="#000000">...</text>
<polygon fill="#ffffff" stroke="transparent" points="496.5,-651.4289 496.5,-670.4289 540.5,-670.4289 540.5,-651.4289 496.5,-651.4289"/>
<polygon fill="none" stroke="#000000" points="496.5,-651.4289 496.5,-670.4289 540.5,-670.4289 540.5,-651.4289 496.5,-651.4289"/>
<text text-anchor="start" x="499.5" y="-657.5289" font-family="Helvetica,sans-Serif" font-size="11.00" fill="#000000"> &#160;</text>
<polygon fill="#ffffff" stroke="transparent" points="540.5,-651.4289 540.5,-670.4289 568.5,-670.4289 568.5,-651.4289 540.5,-651.4289"/>
<polygon fill="none" stroke="#000000" points="540.5,-651.4289 540.5,-670.4289 568.5,-670.4289 568.5,-651.4289 540.5,-651.4289"/>
<text text-anchor="start" x="559.3862" y="-657.5289" font-family="Helvetica,sans-Serif" font-size="11.00" fill="#000000"> &#160;</text>
<polygon fill="#ffffff" stroke="transparent" points="568.5,-651.4289 568.5,-670.4289 612.5,-670.4289 612.5,-651.4289 568.5,-651.4289"/>
<polygon fill="none" stroke="#000000" points="568.5,-651.4289 568.5,-670.4289 612.5,-670.4289 612.5,-651.4289 568.5,-651.4289"/>
<text text-anchor="start" x="587.7904" y="-657.5289" font-family="Helvetica,sans-Serif" font-size="11.00" fill="#000000">46 &gt;</text>
</a>
</g>
</g>
<!-- procedure_order&#45;&gt;list_options -->
<g id="edge9" class="edge">
<title>procedure_order:w&#45;&gt;list_options:e</title>
<path fill="none" stroke="#000000" d="M704.9747,-644.5458C667.4381,-650.6222 657.3831,-679.4289 612.5,-679.4289"/>
<polygon fill="#000000" stroke="#000000" points="711.5235,-644.0423 719.776,-647.0184 715.5118,-643.7356 719.5,-643.4289 719.5,-643.4289 719.5,-643.4289 715.5118,-643.7356 719.224,-639.8395 711.5235,-644.0423 711.5235,-644.0423"/>
<ellipse fill="none" stroke="#000000" cx="708.333" cy="-644.2877" rx="3.2" ry="3.2"/>
</g>
<!-- procedure_order&#45;&gt;list_options -->
<g id="edge13" class="edge">
<title>procedure_order:w&#45;&gt;list_options:e</title>
<path fill="none" stroke="#000000" d="M705.3926,-750.2263C695.3914,-744.6854 691.7116,-732.9861 678,-723.4289 649.2296,-703.3755 647.5696,-679.4289 612.5,-679.4289"/>
<polygon fill="#000000" stroke="#000000" points="711.6985,-751.6578 718.703,-756.9396 715.5993,-752.5434 719.5,-753.4289 719.5,-753.4289 719.5,-753.4289 715.5993,-752.5434 720.297,-749.9183 711.6985,-751.6578 711.6985,-751.6578"/>
<ellipse fill="none" stroke="#000000" cx="708.5779" cy="-750.9494" rx="3.2" ry="3.2"/>
</g>
<!-- procedure_order&#45;&gt;list_options -->
<g id="edge14" class="edge">
<title>procedure_order:w&#45;&gt;list_options:e</title>
<path fill="none" stroke="#000000" d="M705.1343,-729.9839C665.8644,-721.5855 660.1072,-679.4289 612.5,-679.4289"/>
<polygon fill="#000000" stroke="#000000" points="711.5402,-730.6282 719.1397,-735.0109 715.5201,-731.0286 719.5,-731.4289 719.5,-731.4289 719.5,-731.4289 715.5201,-731.0286 719.8603,-727.847 711.5402,-730.6282 711.5402,-730.6282"/>
<ellipse fill="none" stroke="#000000" cx="708.3562" cy="-730.3079" rx="3.2" ry="3.2"/>
</g>
<!-- procedure_order&#45;&gt;list_options -->
<g id="edge16" class="edge">
<title>procedure_order:w&#45;&gt;list_options:e</title>
<path fill="none" stroke="#000000" d="M705.3793,-558.6066C685.3955,-570.3026 701.3138,-611.6158 678,-637.4289 654.821,-663.0929 647.0818,-679.4289 612.5,-679.4289"/>
<polygon fill="#000000" stroke="#000000" points="711.6952,-557.1853 720.2904,-558.9411 715.5976,-556.3071 719.5,-555.4289 719.5,-555.4289 719.5,-555.4289 715.5976,-556.3071 718.7096,-551.9168 711.6952,-557.1853 711.6952,-557.1853"/>
<ellipse fill="none" stroke="#000000" cx="708.5732" cy="-557.8879" rx="3.2" ry="3.2"/>
</g>
<!-- procedure_order&#45;&gt;list_options -->
<g id="edge17" class="edge">
<title>procedure_order:w&#45;&gt;list_options:e</title>
<path fill="none" stroke="#000000" d="M705.2151,-581.3272C691.2085,-591.4979 696.7686,-619.3048 678,-637.4289 653.1236,-661.4512 647.0818,-679.4289 612.5,-679.4289"/>
<polygon fill="#000000" stroke="#000000" points="711.7822,-579.5351 720.4478,-580.9019 715.6411,-578.482 719.5,-577.4289 719.5,-577.4289 719.5,-577.4289 715.6411,-578.482 718.5522,-573.9559 711.7822,-579.5351 711.7822,-579.5351"/>
<ellipse fill="none" stroke="#000000" cx="708.6951" cy="-580.3776" rx="3.2" ry="3.2"/>
</g>
<!-- procedure_order&#45;&gt;list_options -->
<g id="edge19" class="edge">
<title>procedure_order:w&#45;&gt;list_options:e</title>
<path fill="none" stroke="#000000" d="M704.99,-665.8948C668.6745,-668.324 655.2152,-679.4289 612.5,-679.4289"/>
<polygon fill="#000000" stroke="#000000" points="711.5041,-665.6857 719.6155,-669.0271 715.5021,-665.5573 719.5,-665.4289 719.5,-665.4289 719.5,-665.4289 715.5021,-665.5573 719.3845,-661.8308 711.5041,-665.6857 711.5041,-665.6857"/>
<ellipse fill="none" stroke="#000000" cx="708.3058" cy="-665.7884" rx="3.2" ry="3.2"/>
</g>
<!-- procedure_order&#45;&gt;list_options -->
<g id="edge20" class="edge">
<title>procedure_order:w&#45;&gt;list_options:e</title>
<path fill="none" stroke="#000000" d="M705.0522,-687.1628C668.8376,-685.7746 654.9724,-679.4289 612.5,-679.4289"/>
<polygon fill="#000000" stroke="#000000" points="711.5014,-687.2815 719.4337,-691.0283 715.5007,-687.3552 719.5,-687.4289 719.5,-687.4289 719.5,-687.4289 715.5007,-687.3552 719.5663,-683.8296 711.5014,-687.2815 711.5014,-687.2815"/>
<ellipse fill="none" stroke="#000000" cx="708.3019" cy="-687.2226" rx="3.2" ry="3.2"/>
</g>
<!-- procedure_providers -->
<g id="node9" class="node">
<title>procedure_providers</title>
<g id="a_node9"><a xlink:href="../../tables/procedure_providers.html" xlink:title="procedure_providers" target="_top">
<polygon fill="#ffffff" stroke="transparent" points="439,-95.4289 439,-603.4289 670,-603.4289 670,-95.4289 439,-95.4289"/>
<polygon fill="#f5f5f5" stroke="transparent" points="441.5,-578.4289 441.5,-601.4289 668.5,-601.4289 668.5,-578.4289 441.5,-578.4289"/>
<polygon fill="none" stroke="#000000" points="441.5,-578.4289 441.5,-601.4289 668.5,-601.4289 668.5,-578.4289 441.5,-578.4289"/>
<text text-anchor="start" x="446.5" y="-587.0289" font-family="Helvetica,sans-Serif" font-weight="bold" font-size="11.00" fill="#000000">procedure_providers</text>
<text text-anchor="start" x="633.5437" y="-586.5289" font-family="Helvetica,sans-Serif" font-size="11.00" fill="#000000">[table]</text>
<polygon fill="none" stroke="#000000" points="441.5,-556.4289 441.5,-578.4289 601.5,-578.4289 601.5,-556.4289 441.5,-556.4289"/>
<image xlink:href="../../images/primaryKeys.png" width="11px" height="12px" preserveAspectRatio="xMinYMin meet" x="446.5" y="-573.429"/>
<text text-anchor="start" x="461.5" y="-563.5289" font-family="Helvetica,sans-Serif" font-size="11.00" fill="#000000">ppid</text>
<polygon fill="none" stroke="#000000" points="601.5,-556.4289 601.5,-578.4289 668.5,-578.4289 668.5,-556.4289 601.5,-556.4289"/>
<text text-anchor="start" x="604.5" y="-564.1289" font-family="Helvetica,sans-Serif" font-size="11.00" fill="#000000">bigint[19]</text>
<polygon fill="#ffffff" stroke="transparent" points="441.5,-534.4289 441.5,-556.4289 601.5,-556.4289 601.5,-534.4289 441.5,-534.4289"/>
<polygon fill="none" stroke="#000000" points="441.5,-534.4289 441.5,-556.4289 601.5,-556.4289 601.5,-534.4289 441.5,-534.4289"/>
<text text-anchor="start" x="461.5" y="-541.5289" font-family="Helvetica,sans-Serif" font-size="11.00" fill="#000000">uuid</text>
<polygon fill="none" stroke="#000000" points="601.5,-534.4289 601.5,-556.4289 668.5,-556.4289 668.5,-534.4289 601.5,-534.4289"/>
<text text-anchor="start" x="604.5" y="-542.1289" font-family="Helvetica,sans-Serif" font-size="11.00" fill="#000000">binary[16]</text>
<polygon fill="none" stroke="#000000" points="441.5,-512.4289 441.5,-534.4289 601.5,-534.4289 601.5,-512.4289 441.5,-512.4289"/>
<text text-anchor="start" x="461.5" y="-519.5289" font-family="Helvetica,sans-Serif" font-size="11.00" fill="#000000">name</text>
<polygon fill="none" stroke="#000000" points="601.5,-512.4289 601.5,-534.4289 668.5,-534.4289 668.5,-512.4289 601.5,-512.4289"/>
<text text-anchor="start" x="604.4365" y="-520.1289" font-family="Helvetica,sans-Serif" font-size="11.00" fill="#000000">varchar[255]</text>
<polygon fill="none" stroke="#000000" points="441.5,-490.4289 441.5,-512.4289 601.5,-512.4289 601.5,-490.4289 441.5,-490.4289"/>
<text text-anchor="start" x="461.5" y="-497.5289" font-family="Helvetica,sans-Serif" font-size="11.00" fill="#000000">npi</text>
<polygon fill="none" stroke="#000000" points="601.5,-490.4289 601.5,-512.4289 668.5,-512.4289 668.5,-490.4289 601.5,-490.4289"/>
<text text-anchor="start" x="604.5" y="-498.1289" font-family="Helvetica,sans-Serif" font-size="11.00" fill="#000000">varchar[15]</text>
<polygon fill="none" stroke="#000000" points="441.5,-468.4289 441.5,-490.4289 601.5,-490.4289 601.5,-468.4289 441.5,-468.4289"/>
<text text-anchor="start" x="461.5" y="-475.5289" font-family="Helvetica,sans-Serif" font-size="11.00" fill="#000000">send_app_id</text>
<polygon fill="none" stroke="#000000" points="601.5,-468.4289 601.5,-490.4289 668.5,-490.4289 668.5,-468.4289 601.5,-468.4289"/>
<text text-anchor="start" x="604.4365" y="-476.1289" font-family="Helvetica,sans-Serif" font-size="11.00" fill="#000000">varchar[255]</text>
<polygon fill="none" stroke="#000000" points="441.5,-446.4289 441.5,-468.4289 601.5,-468.4289 601.5,-446.4289 441.5,-446.4289"/>
<text text-anchor="start" x="461.5" y="-453.5289" font-family="Helvetica,sans-Serif" font-size="11.00" fill="#000000">send_fac_id</text>
<polygon fill="none" stroke="#000000" points="601.5,-446.4289 601.5,-468.4289 668.5,-468.4289 668.5,-446.4289 601.5,-446.4289"/>
<text text-anchor="start" x="604.4365" y="-454.1289" font-family="Helvetica,sans-Serif" font-size="11.00" fill="#000000">varchar[255]</text>
<polygon fill="none" stroke="#000000" points="441.5,-424.4289 441.5,-446.4289 601.5,-446.4289 601.5,-424.4289 441.5,-424.4289"/>
<text text-anchor="start" x="461.5" y="-431.5289" font-family="Helvetica,sans-Serif" font-size="11.00" fill="#000000">recv_app_id</text>
<polygon fill="none" stroke="#000000" points="601.5,-424.4289 601.5,-446.4289 668.5,-446.4289 668.5,-424.4289 601.5,-424.4289"/>
<text text-anchor="start" x="604.4365" y="-432.1289" font-family="Helvetica,sans-Serif" font-size="11.00" fill="#000000">varchar[255]</text>
<polygon fill="none" stroke="#000000" points="441.5,-402.4289 441.5,-424.4289 601.5,-424.4289 601.5,-402.4289 441.5,-402.4289"/>
<text text-anchor="start" x="461.5" y="-409.5289" font-family="Helvetica,sans-Serif" font-size="11.00" fill="#000000">recv_fac_id</text>
<polygon fill="none" stroke="#000000" points="601.5,-402.4289 601.5,-424.4289 668.5,-424.4289 668.5,-402.4289 601.5,-402.4289"/>
<text text-anchor="start" x="604.4365" y="-410.1289" font-family="Helvetica,sans-Serif" font-size="11.00" fill="#000000">varchar[255]</text>
<polygon fill="none" stroke="#000000" points="441.5,-380.4289 441.5,-402.4289 601.5,-402.4289 601.5,-380.4289 441.5,-380.4289"/>
<text text-anchor="start" x="461.5" y="-387.5289" font-family="Helvetica,sans-Serif" font-size="11.00" fill="#000000">DorP</text>
<polygon fill="none" stroke="#000000" points="601.5,-380.4289 601.5,-402.4289 668.5,-402.4289 668.5,-380.4289 601.5,-380.4289"/>
<text text-anchor="start" x="604.5" y="-388.1289" font-family="Helvetica,sans-Serif" font-size="11.00" fill="#000000">char[1]</text>
<polygon fill="none" stroke="#000000" points="441.5,-358.4289 441.5,-380.4289 601.5,-380.4289 601.5,-358.4289 441.5,-358.4289"/>
<text text-anchor="start" x="461.5" y="-365.5289" font-family="Helvetica,sans-Serif" font-size="11.00" fill="#000000">direction</text>
<polygon fill="none" stroke="#000000" points="601.5,-358.4289 601.5,-380.4289 668.5,-380.4289 668.5,-358.4289 601.5,-358.4289"/>
<text text-anchor="start" x="604.5" y="-366.1289" font-family="Helvetica,sans-Serif" font-size="11.00" fill="#000000">char[1]</text>
<polygon fill="none" stroke="#000000" points="441.5,-336.4289 441.5,-358.4289 601.5,-358.4289 601.5,-336.4289 441.5,-336.4289"/>
<text text-anchor="start" x="461.5" y="-343.5289" font-family="Helvetica,sans-Serif" font-size="11.00" fill="#000000">lab_id</text>
<polygon fill="none" stroke="#000000" points="601.5,-336.4289 601.5,-358.4289 668.5,-358.4289 668.5,-336.4289 601.5,-336.4289"/>
<text text-anchor="start" x="604.5" y="-344.1289" font-family="Helvetica,sans-Serif" font-size="11.00" fill="#000000">unknown[0]</text>
<polygon fill="none" stroke="#000000" points="441.5,-314.4289 441.5,-336.4289 601.5,-336.4289 601.5,-314.4289 441.5,-314.4289"/>
<text text-anchor="start" x="461.5" y="-321.5289" font-family="Helvetica,sans-Serif" font-size="11.00" fill="#000000">protocol</text>
<polygon fill="none" stroke="#000000" points="601.5,-314.4289 601.5,-336.4289 668.5,-336.4289 668.5,-314.4289 601.5,-314.4289"/>
<text text-anchor="start" x="604.5" y="-322.1289" font-family="Helvetica,sans-Serif" font-size="11.00" fill="#000000">varchar[15]</text>
<polygon fill="none" stroke="#000000" points="441.5,-292.4289 441.5,-314.4289 601.5,-314.4289 601.5,-292.4289 441.5,-292.4289"/>
<text text-anchor="start" x="461.5" y="-299.5289" font-family="Helvetica,sans-Serif" font-size="11.00" fill="#000000">remote_host</text>
<polygon fill="none" stroke="#000000" points="601.5,-292.4289 601.5,-314.4289 668.5,-314.4289 668.5,-292.4289 601.5,-292.4289"/>
<text text-anchor="start" x="604.4365" y="-300.1289" font-family="Helvetica,sans-Serif" font-size="11.00" fill="#000000">varchar[255]</text>
<polygon fill="none" stroke="#000000" points="441.5,-270.4289 441.5,-292.4289 601.5,-292.4289 601.5,-270.4289 441.5,-270.4289"/>
<text text-anchor="start" x="461.5" y="-277.5289" font-family="Helvetica,sans-Serif" font-size="11.00" fill="#000000">login</text>
<polygon fill="none" stroke="#000000" points="601.5,-270.4289 601.5,-292.4289 668.5,-292.4289 668.5,-270.4289 601.5,-270.4289"/>
<text text-anchor="start" x="604.4365" y="-278.1289" font-family="Helvetica,sans-Serif" font-size="11.00" fill="#000000">varchar[255]</text>
<polygon fill="none" stroke="#000000" points="441.5,-248.4289 441.5,-270.4289 601.5,-270.4289 601.5,-248.4289 441.5,-248.4289"/>
<text text-anchor="start" x="461.5" y="-255.5289" font-family="Helvetica,sans-Serif" font-size="11.00" fill="#000000">password</text>
<polygon fill="none" stroke="#000000" points="601.5,-248.4289 601.5,-270.4289 668.5,-270.4289 668.5,-248.4289 601.5,-248.4289"/>
<text text-anchor="start" x="604.4365" y="-256.1289" font-family="Helvetica,sans-Serif" font-size="11.00" fill="#000000">varchar[255]</text>
<polygon fill="none" stroke="#000000" points="441.5,-226.4289 441.5,-248.4289 601.5,-248.4289 601.5,-226.4289 441.5,-226.4289"/>
<text text-anchor="start" x="461.5" y="-233.5289" font-family="Helvetica,sans-Serif" font-size="11.00" fill="#000000">orders_path</text>
<polygon fill="none" stroke="#000000" points="601.5,-226.4289 601.5,-248.4289 668.5,-248.4289 668.5,-226.4289 601.5,-226.4289"/>
<text text-anchor="start" x="604.4365" y="-234.1289" font-family="Helvetica,sans-Serif" font-size="11.00" fill="#000000">varchar[255]</text>
<polygon fill="none" stroke="#000000" points="441.5,-204.4289 441.5,-226.4289 601.5,-226.4289 601.5,-204.4289 441.5,-204.4289"/>
<text text-anchor="start" x="461.5" y="-211.5289" font-family="Helvetica,sans-Serif" font-size="11.00" fill="#000000">results_path</text>
<polygon fill="none" stroke="#000000" points="601.5,-204.4289 601.5,-226.4289 668.5,-226.4289 668.5,-204.4289 601.5,-204.4289"/>
<text text-anchor="start" x="604.4365" y="-212.1289" font-family="Helvetica,sans-Serif" font-size="11.00" fill="#000000">varchar[255]</text>
<polygon fill="none" stroke="#000000" points="441.5,-182.4289 441.5,-204.4289 601.5,-204.4289 601.5,-182.4289 441.5,-182.4289"/>
<text text-anchor="start" x="461.5" y="-189.5289" font-family="Helvetica,sans-Serif" font-size="11.00" fill="#000000">notes</text>
<polygon fill="none" stroke="#000000" points="601.5,-182.4289 601.5,-204.4289 668.5,-204.4289 668.5,-182.4289 601.5,-182.4289"/>
<text text-anchor="start" x="604.5" y="-190.1289" font-family="Helvetica,sans-Serif" font-size="11.00" fill="#000000">text[65535]</text>
<polygon fill="none" stroke="#000000" points="441.5,-160.4289 441.5,-182.4289 601.5,-182.4289 601.5,-160.4289 441.5,-160.4289"/>
<text text-anchor="start" x="461.5" y="-167.5289" font-family="Helvetica,sans-Serif" font-size="11.00" fill="#000000">lab_director</text>
<polygon fill="none" stroke="#000000" points="601.5,-160.4289 601.5,-182.4289 668.5,-182.4289 668.5,-160.4289 601.5,-160.4289"/>
<text text-anchor="start" x="604.5" y="-168.1289" font-family="Helvetica,sans-Serif" font-size="11.00" fill="#000000">bigint[19]</text>
<polygon fill="none" stroke="#000000" points="441.5,-138.4289 441.5,-160.4289 601.5,-160.4289 601.5,-138.4289 441.5,-138.4289"/>
<text text-anchor="start" x="461.5" y="-145.5289" font-family="Helvetica,sans-Serif" font-size="11.00" fill="#000000">active</text>
<polygon fill="none" stroke="#000000" points="601.5,-138.4289 601.5,-160.4289 668.5,-160.4289 668.5,-138.4289 601.5,-138.4289"/>
<text text-anchor="start" x="604.5" y="-146.1289" font-family="Helvetica,sans-Serif" font-size="11.00" fill="#000000">bit[1]</text>
<polygon fill="none" stroke="#000000" points="441.5,-116.4289 441.5,-138.4289 601.5,-138.4289 601.5,-116.4289 441.5,-116.4289"/>
<text text-anchor="start" x="461.5" y="-123.5289" font-family="Helvetica,sans-Serif" font-size="11.00" fill="#000000">type</text>
<polygon fill="none" stroke="#000000" points="601.5,-116.4289 601.5,-138.4289 668.5,-138.4289 668.5,-116.4289 601.5,-116.4289"/>
<text text-anchor="start" x="604.5" y="-124.1289" font-family="Helvetica,sans-Serif" font-size="11.00" fill="#000000">varchar[31]</text>
<polygon fill="#ffffff" stroke="transparent" points="441.5,-97.4289 441.5,-116.4289 525.5,-116.4289 525.5,-97.4289 441.5,-97.4289"/>
<polygon fill="none" stroke="#000000" points="441.5,-97.4289 441.5,-116.4289 525.5,-116.4289 525.5,-97.4289 441.5,-97.4289"/>
<text text-anchor="start" x="444.5" y="-103.5289" font-family="Helvetica,sans-Serif" font-size="11.00" fill="#000000">&lt; 0</text>
<polygon fill="#ffffff" stroke="transparent" points="525.5,-97.4289 525.5,-116.4289 601.5,-116.4289 601.5,-97.4289 525.5,-97.4289"/>
<polygon fill="none" stroke="#000000" points="525.5,-97.4289 525.5,-116.4289 601.5,-116.4289 601.5,-97.4289 525.5,-97.4289"/>
<text text-anchor="start" x="592.3862" y="-103.5289" font-family="Helvetica,sans-Serif" font-size="11.00" fill="#000000"> &#160;</text>
<polygon fill="#ffffff" stroke="transparent" points="601.5,-97.4289 601.5,-116.4289 668.5,-116.4289 668.5,-97.4289 601.5,-97.4289"/>
<polygon fill="none" stroke="#000000" points="601.5,-97.4289 601.5,-116.4289 668.5,-116.4289 668.5,-97.4289 601.5,-97.4289"/>
<text text-anchor="start" x="649.9053" y="-103.5289" font-family="Helvetica,sans-Serif" font-size="11.00" fill="#000000">2 &gt;</text>
<polygon fill="none" stroke="#000000" stroke-width="2" points="440,-96.4289 440,-602.4289 669,-602.4289 669,-96.4289 440,-96.4289"/>
</a>
</g>
</g>
<!-- procedure_order&#45;&gt;procedure_providers -->
<g id="edge12" class="edge">
<title>procedure_order:w&#45;&gt;procedure_providers:e</title>
<path fill="none" stroke="#000000" d="M705.3482,-706.4631C665.6184,-686.0714 729.7953,-567.4289 668.5,-567.4289"/>
<polygon fill="#000000" stroke="#000000" points="711.6701,-707.7879 718.7616,-712.9524 715.5851,-708.6084 719.5,-709.4289 719.5,-709.4289 719.5,-709.4289 715.5851,-708.6084 720.2384,-705.9055 711.6701,-707.7879 711.6701,-707.7879"/>
<ellipse fill="none" stroke="#000000" cx="708.5381" cy="-707.1315" rx="3.2" ry="3.2"/>
</g>
<!-- procedure_questions&#45;&gt;procedure_providers -->
<g id="edge23" class="edge">
<title>procedure_questions:w&#45;&gt;procedure_providers:e</title>
<path fill="none" stroke="#000000" d="M927.4419,-470.1676C913.0761,-458.5743 920.3535,-426.525 896,-414.4289 822.3608,-377.8535 776.4595,-364.6741 711,-414.4289 654.8134,-457.1356 739.0747,-567.4289 668.5,-567.4289"/>
<polygon fill="#000000" stroke="#000000" points="933.844,-472.1082 940.4557,-477.8741 937.672,-473.2686 941.5,-474.4289 941.5,-474.4289 941.5,-474.4289 937.672,-473.2686 942.5443,-470.9837 933.844,-472.1082 933.844,-472.1082"/>
<ellipse fill="none" stroke="#000000" cx="930.7816" cy="-471.1799" rx="3.2" ry="3.2"/>
</g>
<!-- procedure_type -->
<g id="node11" class="node">
<title>procedure_type</title>
<g id="a_node11"><a xlink:href="../../tables/procedure_type.html" xlink:title="procedure_type" target="_top">
<polygon fill="#ffffff" stroke="transparent" points="731.5,-424.9289 731.5,-485.9289 875.5,-485.9289 875.5,-424.9289 731.5,-424.9289"/>
<polygon fill="#f5f5f5" stroke="transparent" points="731.5,-462.4289 731.5,-485.4289 875.5,-485.4289 875.5,-462.4289 731.5,-462.4289"/>
<polygon fill="none" stroke="#000000" points="731.5,-462.4289 731.5,-485.4289 875.5,-485.4289 875.5,-462.4289 731.5,-462.4289"/>
<text text-anchor="start" x="736.5" y="-471.0289" font-family="Helvetica,sans-Serif" font-weight="bold" font-size="11.00" fill="#000000">procedure_type</text>
<text text-anchor="start" x="841.0219" y="-470.5289" font-family="Helvetica,sans-Serif" font-size="11.00" fill="#000000">[table]</text>
<polygon fill="none" stroke="#000000" points="731.5,-443.4289 731.5,-462.4289 875.5,-462.4289 875.5,-443.4289 731.5,-443.4289"/>
<text text-anchor="start" x="734.5" y="-449.5289" font-family="Helvetica,sans-Serif" font-size="11.00" fill="#000000">...</text>
<polygon fill="#ffffff" stroke="transparent" points="731.5,-424.4289 731.5,-443.4289 797.5,-443.4289 797.5,-424.4289 731.5,-424.4289"/>
<polygon fill="none" stroke="#000000" points="731.5,-424.4289 731.5,-443.4289 797.5,-443.4289 797.5,-424.4289 731.5,-424.4289"/>
<text text-anchor="start" x="734.5" y="-430.5289" font-family="Helvetica,sans-Serif" font-size="11.00" fill="#000000">&lt; 1</text>
<polygon fill="#ffffff" stroke="transparent" points="797.5,-424.4289 797.5,-443.4289 831.5,-443.4289 831.5,-424.4289 797.5,-424.4289"/>
<polygon fill="none" stroke="#000000" points="797.5,-424.4289 797.5,-443.4289 831.5,-443.4289 831.5,-424.4289 797.5,-424.4289"/>
<text text-anchor="start" x="822.3862" y="-430.5289" font-family="Helvetica,sans-Serif" font-size="11.00" fill="#000000"> &#160;</text>
<polygon fill="#ffffff" stroke="transparent" points="831.5,-424.4289 831.5,-443.4289 875.5,-443.4289 875.5,-424.4289 831.5,-424.4289"/>
<polygon fill="none" stroke="#000000" points="831.5,-424.4289 831.5,-443.4289 875.5,-443.4289 875.5,-424.4289 831.5,-424.4289"/>
<text text-anchor="start" x="856.9053" y="-430.5289" font-family="Helvetica,sans-Serif" font-size="11.00" fill="#000000">2 &gt;</text>
</a>
</g>
</g>
<!-- procedure_questions&#45;&gt;procedure_type -->
<g id="edge24" class="edge">
<title>procedure_questions:w&#45;&gt;procedure_type:e</title>
<path fill="none" stroke="#000000" d="M927.0303,-452.4289C908.6432,-452.4289 899.3333,-452.4289 875.5,-452.4289"/>
<polygon fill="#000000" stroke="#000000" points="933.5,-452.429 941.5,-456.0289 937.5,-452.429 941.5,-452.4289 941.5,-452.4289 941.5,-452.4289 937.5,-452.429 941.5,-448.8289 933.5,-452.429 933.5,-452.429"/>
<ellipse fill="none" stroke="#000000" cx="930.3" cy="-452.429" rx="3.2" ry="3.2"/>
</g>
<!-- procedure_order_code -->
<g id="node10" class="node">
<title>procedure_order_code</title>
<g id="a_node10"><a xlink:href="../../tables/procedure_order_code.html" xlink:title="procedure_order_code" target="_top">
<polygon fill="#ffffff" stroke="transparent" points="937,-664.9289 937,-725.9289 1126,-725.9289 1126,-664.9289 937,-664.9289"/>
<polygon fill="#f5f5f5" stroke="transparent" points="937.5,-702.4289 937.5,-725.4289 1126.5,-725.4289 1126.5,-702.4289 937.5,-702.4289"/>
<polygon fill="none" stroke="#000000" points="937.5,-702.4289 937.5,-725.4289 1126.5,-725.4289 1126.5,-702.4289 937.5,-702.4289"/>
<text text-anchor="start" x="942.5" y="-711.0289" font-family="Helvetica,sans-Serif" font-weight="bold" font-size="11.00" fill="#000000">procedure_order_code</text>
<text text-anchor="start" x="1092.0219" y="-710.5289" font-family="Helvetica,sans-Serif" font-size="11.00" fill="#000000">[table]</text>
<polygon fill="none" stroke="#000000" points="937.5,-683.4289 937.5,-702.4289 1126.5,-702.4289 1126.5,-683.4289 937.5,-683.4289"/>
<text text-anchor="start" x="940.5" y="-689.5289" font-family="Helvetica,sans-Serif" font-size="11.00" fill="#000000">...</text>
<polygon fill="#ffffff" stroke="transparent" points="937.5,-664.4289 937.5,-683.4289 1030.5,-683.4289 1030.5,-664.4289 937.5,-664.4289"/>
<polygon fill="none" stroke="#000000" points="937.5,-664.4289 937.5,-683.4289 1030.5,-683.4289 1030.5,-664.4289 937.5,-664.4289"/>
<text text-anchor="start" x="940.5" y="-670.5289" font-family="Helvetica,sans-Serif" font-size="11.00" fill="#000000">&lt; 2</text>
<polygon fill="#ffffff" stroke="transparent" points="1030.5,-664.4289 1030.5,-683.4289 1078.5,-683.4289 1078.5,-664.4289 1030.5,-664.4289"/>
<polygon fill="none" stroke="#000000" points="1030.5,-664.4289 1030.5,-683.4289 1078.5,-683.4289 1078.5,-664.4289 1030.5,-664.4289"/>
<text text-anchor="start" x="1069.3862" y="-670.5289" font-family="Helvetica,sans-Serif" font-size="11.00" fill="#000000"> &#160;</text>
<polygon fill="#ffffff" stroke="transparent" points="1078.5,-664.4289 1078.5,-683.4289 1126.5,-683.4289 1126.5,-664.4289 1078.5,-664.4289"/>
<polygon fill="none" stroke="#000000" points="1078.5,-664.4289 1078.5,-683.4289 1126.5,-683.4289 1126.5,-664.4289 1078.5,-664.4289"/>
<text text-anchor="start" x="1117.3862" y="-670.5289" font-family="Helvetica,sans-Serif" font-size="11.00" fill="#000000"> &#160;</text>
</a>
</g>
</g>
<!-- procedure_order_code&#45;&gt;procedure_order -->
<g id="edge22" class="edge">
<title>procedure_order_code:w&#45;&gt;procedure_order:e</title>
<path fill="none" stroke="#000000" d="M922.97,-694.7309C864.6013,-716.5061 971.2951,-885.4289 888.5,-885.4289"/>
<polygon fill="#000000" stroke="#000000" points="929.5985,-693.6808 938.0633,-695.9846 933.5493,-693.0549 937.5,-692.4289 937.5,-692.4289 937.5,-692.4289 933.5493,-693.0549 936.9367,-688.8733 929.5985,-693.6808 929.5985,-693.6808"/>
<ellipse fill="none" stroke="#000000" cx="926.438" cy="-694.1815" rx="3.2" ry="3.2"/>
</g>
<!-- procedure_order_code&#45;&gt;procedure_type -->
<g id="edge21" class="edge">
<title>procedure_order_code:w&#45;&gt;procedure_type:e</title>
<path fill="none" stroke="#000000" d="M922.7234,-690.6351C842.7202,-668.6728 980.074,-452.4289 875.5,-452.4289"/>
<polygon fill="#000000" stroke="#000000" points="929.5583,-691.4648 937.0661,-696.0027 933.5292,-691.9469 937.5,-692.4289 937.5,-692.4289 937.5,-692.4289 933.5292,-691.9469 937.9339,-688.8552 929.5583,-691.4648 929.5583,-691.4648"/>
<ellipse fill="none" stroke="#000000" cx="926.3816" cy="-691.0791" rx="3.2" ry="3.2"/>
</g>
<!-- procedure_type&#45;&gt;list_options -->
<g id="edge28" class="edge">
<title>procedure_type:w&#45;&gt;list_options:e</title>
<path fill="none" stroke="#000000" d="M718.531,-458.8488C713.7731,-467.2955 716.1032,-482.6821 711,-496.4289 692.1969,-547.0803 705.2319,-566.7649 678,-613.4289 657.1703,-649.1224 653.8268,-679.4289 612.5,-679.4289"/>
<polygon fill="#000000" stroke="#000000" points="724.3303,-455.9781 733.0971,-455.6553 727.9152,-454.2035 731.5,-452.4289 731.5,-452.4289 731.5,-452.4289 727.9152,-454.2035 729.9029,-449.2026 724.3303,-455.9781 724.3303,-455.9781"/>
<ellipse fill="none" stroke="#000000" cx="721.4625" cy="-457.3977" rx="3.2" ry="3.2"/>
</g>
<!-- procedure_report -->
<g id="node12" class="node">
<title>procedure_report</title>
<g id="a_node12"><a xlink:href="../../tables/procedure_report.html" xlink:title="procedure_report" target="_top">
<polygon fill="#ffffff" stroke="transparent" points="953.5,-916.9289 953.5,-977.9289 1109.5,-977.9289 1109.5,-916.9289 953.5,-916.9289"/>
<polygon fill="#f5f5f5" stroke="transparent" points="953.5,-954.4289 953.5,-977.4289 1109.5,-977.4289 1109.5,-954.4289 953.5,-954.4289"/>
<polygon fill="none" stroke="#000000" points="953.5,-954.4289 953.5,-977.4289 1109.5,-977.4289 1109.5,-954.4289 953.5,-954.4289"/>
<text text-anchor="start" x="958.5" y="-963.0289" font-family="Helvetica,sans-Serif" font-weight="bold" font-size="11.00" fill="#000000">procedure_report</text>
<text text-anchor="start" x="1075.0219" y="-962.5289" font-family="Helvetica,sans-Serif" font-size="11.00" fill="#000000">[table]</text>
<polygon fill="none" stroke="#000000" points="953.5,-935.4289 953.5,-954.4289 1109.5,-954.4289 1109.5,-935.4289 953.5,-935.4289"/>
<text text-anchor="start" x="956.5" y="-941.5289" font-family="Helvetica,sans-Serif" font-size="11.00" fill="#000000">...</text>
<polygon fill="#ffffff" stroke="transparent" points="953.5,-916.4289 953.5,-935.4289 1025.5,-935.4289 1025.5,-916.4289 953.5,-916.4289"/>
<polygon fill="none" stroke="#000000" points="953.5,-916.4289 953.5,-935.4289 1025.5,-935.4289 1025.5,-916.4289 953.5,-916.4289"/>
<text text-anchor="start" x="956.5" y="-922.5289" font-family="Helvetica,sans-Serif" font-size="11.00" fill="#000000">&lt; 3</text>
<polygon fill="#ffffff" stroke="transparent" points="1025.5,-916.4289 1025.5,-935.4289 1062.5,-935.4289 1062.5,-916.4289 1025.5,-916.4289"/>
<polygon fill="none" stroke="#000000" points="1025.5,-916.4289 1025.5,-935.4289 1062.5,-935.4289 1062.5,-916.4289 1025.5,-916.4289"/>
<text text-anchor="start" x="1053.3862" y="-922.5289" font-family="Helvetica,sans-Serif" font-size="11.00" fill="#000000"> &#160;</text>
<polygon fill="#ffffff" stroke="transparent" points="1062.5,-916.4289 1062.5,-935.4289 1109.5,-935.4289 1109.5,-916.4289 1062.5,-916.4289"/>
<polygon fill="none" stroke="#000000" points="1062.5,-916.4289 1062.5,-935.4289 1109.5,-935.4289 1109.5,-916.4289 1062.5,-916.4289"/>
<text text-anchor="start" x="1090.9053" y="-922.5289" font-family="Helvetica,sans-Serif" font-size="11.00" fill="#000000">1 &gt;</text>
</a>
</g>
</g>
<!-- procedure_report&#45;&gt;users -->
<g id="edge27" class="edge">
<title>procedure_report:w&#45;&gt;users:e</title>
<path fill="none" stroke="#000000" d="M939.0355,-945.0149C924.183,-946.3105 916.0466,-949.3859 896,-950.4289 813.8889,-954.7014 792.7375,-959.3434 711,-950.4289 506.0348,-928.075 422.2339,-975.0791 258,-850.4289 227.5123,-827.2894 255.7745,-774.4289 217.5,-774.4289"/>
<polygon fill="#000000" stroke="#000000" points="945.5066,-944.7528 953.6457,-948.026 949.5033,-944.5909 953.5,-944.4289 953.5,-944.4289 953.5,-944.4289 949.5033,-944.5909 953.3543,-940.8319 945.5066,-944.7528 945.5066,-944.7528"/>
<ellipse fill="none" stroke="#000000" cx="942.3092" cy="-944.8824" rx="3.2" ry="3.2"/>
</g>
<!-- procedure_report&#45;&gt;procedure_order -->
<g id="edge25" class="edge">
<title>procedure_report:w&#45;&gt;procedure_order:e</title>
<path fill="none" stroke="#000000" d="M939.2259,-940.9149C917.2065,-928.2133 921.7237,-885.4289 888.5,-885.4289"/>
<polygon fill="#000000" stroke="#000000" points="945.7319,-942.5165 952.6394,-947.9246 949.616,-943.4727 953.5,-944.4289 953.5,-944.4289 953.5,-944.4289 949.616,-943.4727 954.3606,-940.9333 945.7319,-942.5165 945.7319,-942.5165"/>
<ellipse fill="none" stroke="#000000" cx="942.6247" cy="-941.7516" rx="3.2" ry="3.2"/>
</g>
<!-- procedure_report&#45;&gt;list_options -->
<g id="edge26" class="edge">
<title>procedure_report:w&#45;&gt;list_options:e</title>
<path fill="none" stroke="#000000" d="M938.8186,-944.8147C876.436,-947.6106 747.8302,-963.7346 711,-930.4289 641.9014,-867.9429 728.1698,-801.928 678,-723.4289 659.1142,-693.8789 647.5696,-679.4289 612.5,-679.4289"/>
<polygon fill="#000000" stroke="#000000" points="945.5028,-944.6391 953.5946,-948.0277 949.5014,-944.534 953.5,-944.4289 953.5,-944.4289 953.5,-944.4289 949.5014,-944.534 953.4054,-940.8302 945.5028,-944.6391 945.5028,-944.6391"/>
<ellipse fill="none" stroke="#000000" cx="942.3039" cy="-944.7232" rx="3.2" ry="3.2"/>
</g>
</g>
</svg>
