<?xml version="1.0" encoding="UTF-8" standalone="no"?>
<!DOCTYPE svg PUBLIC "-//W3C//DTD SVG 1.1//EN"
 "http://www.w3.org/Graphics/SVG/1.1/DTD/svg11.dtd">
<!-- Generated by graphviz version 2.40.1 (20161225.0304)
 -->
<!-- Title: oneDegreeRelationshipsDiagram Pages: 1 -->
<svg width="635pt" height="554pt"
 viewBox="0.00 0.00 635.00 553.70" xmlns="http://www.w3.org/2000/svg" xmlns:xlink="http://www.w3.org/1999/xlink">
<g id="graph0" class="graph" transform="scale(1 1) rotate(0) translate(4 549.7)">
<title>oneDegreeRelationshipsDiagram</title>
<polygon fill="#ffffff" stroke="transparent" points="-4,4 -4,-549.7 631,-549.7 631,4 -4,4"/>
<text text-anchor="middle" x="72.4936" y="-7.3" font-family="Helvetica,sans-Serif" font-size="11.00" fill="#000000">Generated by SchemaSpy</text>
<!-- procedure_order_code -->
<g id="node1" class="node">
<title>procedure_order_code</title>
<g id="a_node1"><a xlink:href="../../tables/procedure_order_code.html" xlink:title="procedure_order_code" target="_top">
<polygon fill="#ffffff" stroke="transparent" points="448,-414.7 448,-541.7 619,-541.7 619,-414.7 448,-414.7"/>
<polygon fill="#f5f5f5" stroke="transparent" points="448.5,-518.2 448.5,-541.2 619.5,-541.2 619.5,-518.2 448.5,-518.2"/>
<polygon fill="none" stroke="#000000" points="448.5,-518.2 448.5,-541.2 619.5,-541.2 619.5,-518.2 448.5,-518.2"/>
<text text-anchor="start" x="453.5" y="-526.8" font-family="Helvetica,sans-Serif" font-weight="bold" font-size="11.00" fill="#000000">procedure_order_code</text>
<text text-anchor="start" x="585.0219" y="-526.3" font-family="Helvetica,sans-Serif" font-size="11.00" fill="#000000">[table]</text>
<polygon fill="none" stroke="#000000" points="448.5,-496.2 448.5,-518.2 619.5,-518.2 619.5,-496.2 448.5,-496.2"/>
<image xlink:href="../../images/primaryKeys.png" width="11px" height="12px" preserveAspectRatio="xMinYMin meet" x="453.5" y="-513.2"/>
<text text-anchor="start" x="477.5" y="-503.3" font-family="Helvetica,sans-Serif" font-size="11.00" fill="#000000">procedure_order_id</text>
<polygon fill="none" stroke="#000000" points="448.5,-474.2 448.5,-496.2 619.5,-496.2 619.5,-474.2 448.5,-474.2"/>
<image xlink:href="../../images/primaryKeys.png" width="11px" height="12px" preserveAspectRatio="xMinYMin meet" x="453.5" y="-491.2"/>
<text text-anchor="start" x="477.5" y="-481.3" font-family="Helvetica,sans-Serif" font-size="11.00" fill="#000000">procedure_order_seq</text>
<polygon fill="none" stroke="#000000" points="448.5,-452.2 448.5,-474.2 619.5,-474.2 619.5,-452.2 448.5,-452.2"/>
<image xlink:href="../../images/foreignKeys.png" width="11px" height="12px" preserveAspectRatio="xMinYMin meet" x="453.5" y="-469.2"/>
<text text-anchor="start" x="477.5" y="-459.3" font-family="Helvetica,sans-Serif" font-size="11.00" fill="#000000">procedure_code</text>
<polygon fill="none" stroke="#000000" points="448.5,-433.2 448.5,-452.2 619.5,-452.2 619.5,-433.2 448.5,-433.2"/>
<text text-anchor="start" x="451.5" y="-439.3" font-family="Helvetica,sans-Serif" font-size="11.00" fill="#000000">...</text>
<polygon fill="#ffffff" stroke="transparent" points="448.5,-414.2 448.5,-433.2 527.5,-433.2 527.5,-414.2 448.5,-414.2"/>
<polygon fill="none" stroke="#000000" points="448.5,-414.2 448.5,-433.2 527.5,-433.2 527.5,-414.2 448.5,-414.2"/>
<text text-anchor="start" x="451.5" y="-420.3" font-family="Helvetica,sans-Serif" font-size="11.00" fill="#000000">&lt; 2</text>
<polygon fill="#ffffff" stroke="transparent" points="527.5,-414.2 527.5,-433.2 568.5,-433.2 568.5,-414.2 527.5,-414.2"/>
<polygon fill="none" stroke="#000000" points="527.5,-414.2 527.5,-433.2 568.5,-433.2 568.5,-414.2 527.5,-414.2"/>
<text text-anchor="start" x="559.3862" y="-420.3" font-family="Helvetica,sans-Serif" font-size="11.00" fill="#000000"> &#160;</text>
<polygon fill="#ffffff" stroke="transparent" points="568.5,-414.2 568.5,-433.2 619.5,-433.2 619.5,-414.2 568.5,-414.2"/>
<polygon fill="none" stroke="#000000" points="568.5,-414.2 568.5,-433.2 619.5,-433.2 619.5,-414.2 568.5,-414.2"/>
<text text-anchor="start" x="600.9053" y="-420.3" font-family="Helvetica,sans-Serif" font-size="11.00" fill="#000000">1 &gt;</text>
</a>
</g>
</g>
<!-- procedure_type -->
<g id="node2" class="node">
<title>procedure_type</title>
<g id="a_node2"><a xlink:href="../../tables/procedure_type.html" xlink:title="procedure_type" target="_top">
<polygon fill="#ffffff" stroke="transparent" points="175,-38.2 175,-524.2 399,-524.2 399,-38.2 175,-38.2"/>
<polygon fill="#f5f5f5" stroke="transparent" points="177,-499.2 177,-522.2 397,-522.2 397,-499.2 177,-499.2"/>
<polygon fill="none" stroke="#000000" points="177,-499.2 177,-522.2 397,-522.2 397,-499.2 177,-499.2"/>
<text text-anchor="start" x="182" y="-507.8" font-family="Helvetica,sans-Serif" font-weight="bold" font-size="11.00" fill="#000000">procedure_type</text>
<text text-anchor="start" x="362.0437" y="-507.3" font-family="Helvetica,sans-Serif" font-size="11.00" fill="#000000">[table]</text>
<polygon fill="none" stroke="#000000" points="177,-477.2 177,-499.2 330,-499.2 330,-477.2 177,-477.2"/>
<image xlink:href="../../images/primaryKeys.png" width="11px" height="12px" preserveAspectRatio="xMinYMin meet" x="182" y="-494.2"/>
<text text-anchor="start" x="197" y="-484.3" font-family="Helvetica,sans-Serif" font-size="11.00" fill="#000000">procedure_type_id</text>
<polygon fill="none" stroke="#000000" points="330,-477.2 330,-499.2 397,-499.2 397,-477.2 330,-477.2"/>
<text text-anchor="start" x="333" y="-484.9" font-family="Helvetica,sans-Serif" font-size="11.00" fill="#000000">bigint[19]</text>
<polygon fill="#ffffff" stroke="transparent" points="177,-455.2 177,-477.2 330,-477.2 330,-455.2 177,-455.2"/>
<polygon fill="none" stroke="#000000" points="177,-455.2 177,-477.2 330,-477.2 330,-455.2 177,-455.2"/>
<text text-anchor="start" x="197" y="-462.3" font-family="Helvetica,sans-Serif" font-size="11.00" fill="#000000">parent</text>
<polygon fill="none" stroke="#000000" points="330,-455.2 330,-477.2 397,-477.2 397,-455.2 330,-455.2"/>
<text text-anchor="start" x="333" y="-462.9" font-family="Helvetica,sans-Serif" font-size="11.00" fill="#000000">bigint[19]</text>
<polygon fill="none" stroke="#000000" points="177,-433.2 177,-455.2 330,-455.2 330,-433.2 177,-433.2"/>
<text text-anchor="start" x="197" y="-440.3" font-family="Helvetica,sans-Serif" font-size="11.00" fill="#000000">name</text>
<polygon fill="none" stroke="#000000" points="330,-433.2 330,-455.2 397,-455.2 397,-433.2 330,-433.2"/>
<text text-anchor="start" x="333" y="-440.9" font-family="Helvetica,sans-Serif" font-size="11.00" fill="#000000">varchar[63]</text>
<polygon fill="none" stroke="#000000" points="177,-411.2 177,-433.2 330,-433.2 330,-411.2 177,-411.2"/>
<text text-anchor="start" x="197" y="-418.3" font-family="Helvetica,sans-Serif" font-size="11.00" fill="#000000">lab_id</text>
<polygon fill="none" stroke="#000000" points="330,-411.2 330,-433.2 397,-433.2 397,-411.2 330,-411.2"/>
<text text-anchor="start" x="333" y="-418.9" font-family="Helvetica,sans-Serif" font-size="11.00" fill="#000000">bigint[19]</text>
<polygon fill="none" stroke="#000000" points="177,-389.2 177,-411.2 330,-411.2 330,-389.2 177,-389.2"/>
<image xlink:href="../../images/primaryKeys.png" width="11px" height="12px" preserveAspectRatio="xMinYMin meet" x="182" y="-406.2"/>
<text text-anchor="start" x="197" y="-396.3" font-family="Helvetica,sans-Serif" font-size="11.00" fill="#000000">procedure_code</text>
<polygon fill="none" stroke="#000000" points="330,-389.2 330,-411.2 397,-411.2 397,-389.2 330,-389.2"/>
<text text-anchor="start" x="333" y="-396.9" font-family="Helvetica,sans-Serif" font-size="11.00" fill="#000000">varchar[64]</text>
<polygon fill="none" stroke="#000000" points="177,-367.2 177,-389.2 330,-389.2 330,-367.2 177,-367.2"/>
<image xlink:href="../../images/foreignKeys.png" width="11px" height="12px" preserveAspectRatio="xMinYMin meet" x="182" y="-384.2"/>
<text text-anchor="start" x="197" y="-374.3" font-family="Helvetica,sans-Serif" font-size="11.00" fill="#000000">procedure_type</text>
<polygon fill="none" stroke="#000000" points="330,-367.2 330,-389.2 397,-389.2 397,-367.2 330,-367.2"/>
<text text-anchor="start" x="333" y="-374.9" font-family="Helvetica,sans-Serif" font-size="11.00" fill="#000000">varchar[31]</text>
<polygon fill="none" stroke="#000000" points="177,-345.2 177,-367.2 330,-367.2 330,-345.2 177,-345.2"/>
<text text-anchor="start" x="197" y="-352.3" font-family="Helvetica,sans-Serif" font-size="11.00" fill="#000000">body_site</text>
<polygon fill="none" stroke="#000000" points="330,-345.2 330,-367.2 397,-367.2 397,-345.2 330,-345.2"/>
<text text-anchor="start" x="333" y="-352.9" font-family="Helvetica,sans-Serif" font-size="11.00" fill="#000000">varchar[31]</text>
<polygon fill="none" stroke="#000000" points="177,-323.2 177,-345.2 330,-345.2 330,-323.2 177,-323.2"/>
<text text-anchor="start" x="197" y="-330.3" font-family="Helvetica,sans-Serif" font-size="11.00" fill="#000000">specimen</text>
<polygon fill="none" stroke="#000000" points="330,-323.2 330,-345.2 397,-345.2 397,-323.2 330,-323.2"/>
<text text-anchor="start" x="333" y="-330.9" font-family="Helvetica,sans-Serif" font-size="11.00" fill="#000000">varchar[31]</text>
<polygon fill="none" stroke="#000000" points="177,-301.2 177,-323.2 330,-323.2 330,-301.2 177,-301.2"/>
<text text-anchor="start" x="197" y="-308.3" font-family="Helvetica,sans-Serif" font-size="11.00" fill="#000000">route_admin</text>
<polygon fill="none" stroke="#000000" points="330,-301.2 330,-323.2 397,-323.2 397,-301.2 330,-301.2"/>
<text text-anchor="start" x="333" y="-308.9" font-family="Helvetica,sans-Serif" font-size="11.00" fill="#000000">varchar[31]</text>
<polygon fill="none" stroke="#000000" points="177,-279.2 177,-301.2 330,-301.2 330,-279.2 177,-279.2"/>
<text text-anchor="start" x="197" y="-286.3" font-family="Helvetica,sans-Serif" font-size="11.00" fill="#000000">laterality</text>
<polygon fill="none" stroke="#000000" points="330,-279.2 330,-301.2 397,-301.2 397,-279.2 330,-279.2"/>
<text text-anchor="start" x="333" y="-286.9" font-family="Helvetica,sans-Serif" font-size="11.00" fill="#000000">varchar[31]</text>
<polygon fill="none" stroke="#000000" points="177,-257.2 177,-279.2 330,-279.2 330,-257.2 177,-257.2"/>
<text text-anchor="start" x="197" y="-264.3" font-family="Helvetica,sans-Serif" font-size="11.00" fill="#000000">description</text>
<polygon fill="none" stroke="#000000" points="330,-257.2 330,-279.2 397,-279.2 397,-257.2 330,-257.2"/>
<text text-anchor="start" x="332.9365" y="-264.9" font-family="Helvetica,sans-Serif" font-size="11.00" fill="#000000">varchar[255]</text>
<polygon fill="none" stroke="#000000" points="177,-235.2 177,-257.2 330,-257.2 330,-235.2 177,-235.2"/>
<text text-anchor="start" x="197" y="-242.3" font-family="Helvetica,sans-Serif" font-size="11.00" fill="#000000">standard_code</text>
<polygon fill="none" stroke="#000000" points="330,-235.2 330,-257.2 397,-257.2 397,-235.2 330,-235.2"/>
<text text-anchor="start" x="332.9365" y="-242.9" font-family="Helvetica,sans-Serif" font-size="11.00" fill="#000000">varchar[255]</text>
<polygon fill="none" stroke="#000000" points="177,-213.2 177,-235.2 330,-235.2 330,-213.2 177,-213.2"/>
<text text-anchor="start" x="197" y="-220.3" font-family="Helvetica,sans-Serif" font-size="11.00" fill="#000000">related_code</text>
<polygon fill="none" stroke="#000000" points="330,-213.2 330,-235.2 397,-235.2 397,-213.2 330,-213.2"/>
<text text-anchor="start" x="332.9365" y="-220.9" font-family="Helvetica,sans-Serif" font-size="11.00" fill="#000000">varchar[255]</text>
<polygon fill="none" stroke="#000000" points="177,-191.2 177,-213.2 330,-213.2 330,-191.2 177,-191.2"/>
<text text-anchor="start" x="197" y="-198.3" font-family="Helvetica,sans-Serif" font-size="11.00" fill="#000000">units</text>
<polygon fill="none" stroke="#000000" points="330,-191.2 330,-213.2 397,-213.2 397,-191.2 330,-191.2"/>
<text text-anchor="start" x="333" y="-198.9" font-family="Helvetica,sans-Serif" font-size="11.00" fill="#000000">varchar[31]</text>
<polygon fill="none" stroke="#000000" points="177,-169.2 177,-191.2 330,-191.2 330,-169.2 177,-169.2"/>
<text text-anchor="start" x="197" y="-176.3" font-family="Helvetica,sans-Serif" font-size="11.00" fill="#000000">range</text>
<polygon fill="none" stroke="#000000" points="330,-169.2 330,-191.2 397,-191.2 397,-169.2 330,-169.2"/>
<text text-anchor="start" x="332.9365" y="-176.9" font-family="Helvetica,sans-Serif" font-size="11.00" fill="#000000">varchar[255]</text>
<polygon fill="none" stroke="#000000" points="177,-147.2 177,-169.2 330,-169.2 330,-147.2 177,-147.2"/>
<text text-anchor="start" x="197" y="-154.3" font-family="Helvetica,sans-Serif" font-size="11.00" fill="#000000">seq</text>
<polygon fill="none" stroke="#000000" points="330,-147.2 330,-169.2 397,-169.2 397,-147.2 330,-147.2"/>
<text text-anchor="start" x="333" y="-154.9" font-family="Helvetica,sans-Serif" font-size="11.00" fill="#000000">int[10]</text>
<polygon fill="none" stroke="#000000" points="177,-125.2 177,-147.2 330,-147.2 330,-125.2 177,-125.2"/>
<text text-anchor="start" x="197" y="-132.3" font-family="Helvetica,sans-Serif" font-size="11.00" fill="#000000">activity</text>
<polygon fill="none" stroke="#000000" points="330,-125.2 330,-147.2 397,-147.2 397,-125.2 330,-125.2"/>
<text text-anchor="start" x="333" y="-132.9" font-family="Helvetica,sans-Serif" font-size="11.00" fill="#000000">boolean[3]</text>
<polygon fill="none" stroke="#000000" points="177,-103.2 177,-125.2 330,-125.2 330,-103.2 177,-103.2"/>
<text text-anchor="start" x="197" y="-110.3" font-family="Helvetica,sans-Serif" font-size="11.00" fill="#000000">notes</text>
<polygon fill="none" stroke="#000000" points="330,-103.2 330,-125.2 397,-125.2 397,-103.2 330,-103.2"/>
<text text-anchor="start" x="332.9365" y="-110.9" font-family="Helvetica,sans-Serif" font-size="11.00" fill="#000000">varchar[255]</text>
<polygon fill="none" stroke="#000000" points="177,-81.2 177,-103.2 330,-103.2 330,-81.2 177,-81.2"/>
<text text-anchor="start" x="197" y="-88.3" font-family="Helvetica,sans-Serif" font-size="11.00" fill="#000000">transport</text>
<polygon fill="none" stroke="#000000" points="330,-81.2 330,-103.2 397,-103.2 397,-81.2 330,-81.2"/>
<text text-anchor="start" x="333" y="-88.9" font-family="Helvetica,sans-Serif" font-size="11.00" fill="#000000">varchar[31]</text>
<polygon fill="none" stroke="#000000" points="177,-59.2 177,-81.2 330,-81.2 330,-59.2 177,-59.2"/>
<text text-anchor="start" x="197" y="-66.3" font-family="Helvetica,sans-Serif" font-size="11.00" fill="#000000">procedure_type_name</text>
<polygon fill="none" stroke="#000000" points="330,-59.2 330,-81.2 397,-81.2 397,-59.2 330,-59.2"/>
<text text-anchor="start" x="333" y="-66.9" font-family="Helvetica,sans-Serif" font-size="11.00" fill="#000000">varchar[64]</text>
<polygon fill="#ffffff" stroke="transparent" points="177,-40.2 177,-59.2 258,-59.2 258,-40.2 177,-40.2"/>
<polygon fill="none" stroke="#000000" points="177,-40.2 177,-59.2 258,-59.2 258,-40.2 177,-40.2"/>
<text text-anchor="start" x="180" y="-46.3" font-family="Helvetica,sans-Serif" font-size="11.00" fill="#000000">&lt; 1</text>
<polygon fill="#ffffff" stroke="transparent" points="258,-40.2 258,-59.2 330,-59.2 330,-40.2 258,-40.2"/>
<polygon fill="none" stroke="#000000" points="258,-40.2 258,-59.2 330,-59.2 330,-40.2 258,-40.2"/>
<text text-anchor="start" x="320.8862" y="-46.3" font-family="Helvetica,sans-Serif" font-size="11.00" fill="#000000"> &#160;</text>
<polygon fill="#ffffff" stroke="transparent" points="330,-40.2 330,-59.2 397,-59.2 397,-40.2 330,-40.2"/>
<polygon fill="none" stroke="#000000" points="330,-40.2 330,-59.2 397,-59.2 397,-40.2 330,-40.2"/>
<text text-anchor="start" x="378.4053" y="-46.3" font-family="Helvetica,sans-Serif" font-size="11.00" fill="#000000">2 &gt;</text>
<polygon fill="none" stroke="#000000" stroke-width="2" points="176,-39.2 176,-523.2 398,-523.2 398,-39.2 176,-39.2"/>
</a>
</g>
</g>
<!-- procedure_order_code&#45;&gt;procedure_type -->
<g id="edge1" class="edge">
<title>procedure_order_code:w&#45;&gt;procedure_type:e</title>
<path fill="none" stroke="#000000" d="M434.799,-458.6692C417.6358,-444.2239 427.2316,-400.2 397,-400.2"/>
<polygon fill="#000000" stroke="#000000" points="440.9045,-460.6882 447.3697,-466.618 444.7023,-461.9441 448.5,-463.2 448.5,-463.2 448.5,-463.2 444.7023,-461.9441 449.6303,-459.782 440.9045,-460.6882 440.9045,-460.6882"/>
<ellipse fill="none" stroke="#000000" cx="437.8663" cy="-459.6835" rx="3.2" ry="3.2"/>
</g>
<!-- list_options -->
<g id="node4" class="node">
<title>list_options</title>
<g id="a_node4"><a xlink:href="../../tables/list_options.html" xlink:title="list_options" target="_top">
<polygon fill="#ffffff" stroke="transparent" points="8,-329.7 8,-434.7 126,-434.7 126,-329.7 8,-329.7"/>
<polygon fill="#f5f5f5" stroke="transparent" points="8,-411.2 8,-434.2 126,-434.2 126,-411.2 8,-411.2"/>
<polygon fill="none" stroke="#000000" points="8,-411.2 8,-434.2 126,-434.2 126,-411.2 8,-411.2"/>
<text text-anchor="start" x="13" y="-419.8" font-family="Helvetica,sans-Serif" font-weight="bold" font-size="11.00" fill="#000000">list_options</text>
<text text-anchor="start" x="91.0437" y="-419.3" font-family="Helvetica,sans-Serif" font-size="11.00" fill="#000000">[table]</text>
<polygon fill="none" stroke="#000000" points="8,-389.2 8,-411.2 126,-411.2 126,-389.2 8,-389.2"/>
<image xlink:href="../../images/primaryKeys.png" width="11px" height="12px" preserveAspectRatio="xMinYMin meet" x="13" y="-406.2"/>
<text text-anchor="start" x="28" y="-396.3" font-family="Helvetica,sans-Serif" font-size="11.00" fill="#000000">list_id</text>
<polygon fill="none" stroke="#000000" points="8,-367.2 8,-389.2 126,-389.2 126,-367.2 8,-367.2"/>
<image xlink:href="../../images/primaryKeys.png" width="11px" height="12px" preserveAspectRatio="xMinYMin meet" x="13" y="-384.2"/>
<text text-anchor="start" x="28" y="-374.3" font-family="Helvetica,sans-Serif" font-size="11.00" fill="#000000">option_id</text>
<polygon fill="none" stroke="#000000" points="8,-348.2 8,-367.2 126,-367.2 126,-348.2 8,-348.2"/>
<text text-anchor="start" x="11" y="-354.3" font-family="Helvetica,sans-Serif" font-size="11.00" fill="#000000">...</text>
<polygon fill="#ffffff" stroke="transparent" points="8,-329.2 8,-348.2 53,-348.2 53,-329.2 8,-329.2"/>
<polygon fill="none" stroke="#000000" points="8,-329.2 8,-348.2 53,-348.2 53,-329.2 8,-329.2"/>
<text text-anchor="start" x="11" y="-335.3" font-family="Helvetica,sans-Serif" font-size="11.00" fill="#000000"> &#160;</text>
<polygon fill="#ffffff" stroke="transparent" points="53,-329.2 53,-348.2 82,-348.2 82,-329.2 53,-329.2"/>
<polygon fill="none" stroke="#000000" points="53,-329.2 53,-348.2 82,-348.2 82,-329.2 53,-329.2"/>
<text text-anchor="start" x="72.8862" y="-335.3" font-family="Helvetica,sans-Serif" font-size="11.00" fill="#000000"> &#160;</text>
<polygon fill="#ffffff" stroke="transparent" points="82,-329.2 82,-348.2 126,-348.2 126,-329.2 82,-329.2"/>
<polygon fill="none" stroke="#000000" points="82,-329.2 82,-348.2 126,-348.2 126,-329.2 82,-329.2"/>
<text text-anchor="start" x="101.2904" y="-335.3" font-family="Helvetica,sans-Serif" font-size="11.00" fill="#000000">98 &gt;</text>
</a>
</g>
</g>
<!-- procedure_type&#45;&gt;list_options -->
<g id="edge3" class="edge">
<title>procedure_type:w&#45;&gt;list_options:e</title>
<path fill="none" stroke="#000000" d="M162.276,-378.2C150.2815,-378.2 142.8229,-378.2 126,-378.2"/>
<polygon fill="#000000" stroke="#000000" points="169,-378.2001 177,-381.8 173,-378.2 177,-378.2 177,-378.2 177,-378.2 173,-378.2 177,-374.6 169,-378.2001 169,-378.2001"/>
<ellipse fill="none" stroke="#000000" cx="165.8" cy="-378.2001" rx="3.2" ry="3.2"/>
</g>
<!-- procedure_questions -->
<g id="node3" class="node">
<title>procedure_questions</title>
<g id="a_node3"><a xlink:href="../../tables/procedure_questions.html" xlink:title="procedure_questions" target="_top">
<polygon fill="#ffffff" stroke="transparent" points="451.5,-266.7 451.5,-393.7 615.5,-393.7 615.5,-266.7 451.5,-266.7"/>
<polygon fill="#f5f5f5" stroke="transparent" points="451.5,-370.2 451.5,-393.2 615.5,-393.2 615.5,-370.2 451.5,-370.2"/>
<polygon fill="none" stroke="#000000" points="451.5,-370.2 451.5,-393.2 615.5,-393.2 615.5,-370.2 451.5,-370.2"/>
<text text-anchor="start" x="456.5" y="-378.8" font-family="Helvetica,sans-Serif" font-weight="bold" font-size="11.00" fill="#000000">procedure_questions</text>
<text text-anchor="start" x="581.0219" y="-378.3" font-family="Helvetica,sans-Serif" font-size="11.00" fill="#000000">[table]</text>
<polygon fill="none" stroke="#000000" points="451.5,-348.2 451.5,-370.2 615.5,-370.2 615.5,-348.2 451.5,-348.2"/>
<image xlink:href="../../images/primaryKeys.png" width="11px" height="12px" preserveAspectRatio="xMinYMin meet" x="456.5" y="-365.2"/>
<text text-anchor="start" x="480.5" y="-355.3" font-family="Helvetica,sans-Serif" font-size="11.00" fill="#000000">lab_id</text>
<polygon fill="none" stroke="#000000" points="451.5,-326.2 451.5,-348.2 615.5,-348.2 615.5,-326.2 451.5,-326.2"/>
<image xlink:href="../../images/primaryKeys.png" width="11px" height="12px" preserveAspectRatio="xMinYMin meet" x="456.5" y="-343.2"/>
<text text-anchor="start" x="480.5" y="-333.3" font-family="Helvetica,sans-Serif" font-size="11.00" fill="#000000">procedure_code</text>
<polygon fill="none" stroke="#000000" points="451.5,-304.2 451.5,-326.2 615.5,-326.2 615.5,-304.2 451.5,-304.2"/>
<image xlink:href="../../images/primaryKeys.png" width="11px" height="12px" preserveAspectRatio="xMinYMin meet" x="456.5" y="-321.2"/>
<text text-anchor="start" x="480.5" y="-311.3" font-family="Helvetica,sans-Serif" font-size="11.00" fill="#000000">question_code</text>
<polygon fill="none" stroke="#000000" points="451.5,-285.2 451.5,-304.2 615.5,-304.2 615.5,-285.2 451.5,-285.2"/>
<text text-anchor="start" x="454.5" y="-291.3" font-family="Helvetica,sans-Serif" font-size="11.00" fill="#000000">...</text>
<polygon fill="#ffffff" stroke="transparent" points="451.5,-266.2 451.5,-285.2 527.5,-285.2 527.5,-266.2 451.5,-266.2"/>
<polygon fill="none" stroke="#000000" points="451.5,-266.2 451.5,-285.2 527.5,-285.2 527.5,-266.2 451.5,-266.2"/>
<text text-anchor="start" x="454.5" y="-272.3" font-family="Helvetica,sans-Serif" font-size="11.00" fill="#000000">&lt; 2</text>
<polygon fill="#ffffff" stroke="transparent" points="527.5,-266.2 527.5,-285.2 566.5,-285.2 566.5,-266.2 527.5,-266.2"/>
<polygon fill="none" stroke="#000000" points="527.5,-266.2 527.5,-285.2 566.5,-285.2 566.5,-266.2 527.5,-266.2"/>
<text text-anchor="start" x="557.3862" y="-272.3" font-family="Helvetica,sans-Serif" font-size="11.00" fill="#000000"> &#160;</text>
<polygon fill="#ffffff" stroke="transparent" points="566.5,-266.2 566.5,-285.2 615.5,-285.2 615.5,-266.2 566.5,-266.2"/>
<polygon fill="none" stroke="#000000" points="566.5,-266.2 566.5,-285.2 615.5,-285.2 615.5,-266.2 566.5,-266.2"/>
<text text-anchor="start" x="596.9053" y="-272.3" font-family="Helvetica,sans-Serif" font-size="11.00" fill="#000000">1 &gt;</text>
</a>
</g>
</g>
<!-- procedure_questions&#45;&gt;procedure_type -->
<g id="edge2" class="edge">
<title>procedure_questions:w&#45;&gt;procedure_type:e</title>
<path fill="none" stroke="#000000" d="M437.346,-341.7308C419.3678,-356.1761 427.9491,-400.2 397,-400.2"/>
<polygon fill="#000000" stroke="#000000" points="443.8808,-339.639 452.5975,-340.6286 447.6904,-338.4195 451.5,-337.2 451.5,-337.2 451.5,-337.2 447.6904,-338.4195 450.4025,-333.7714 443.8808,-339.639 443.8808,-339.639"/>
<ellipse fill="none" stroke="#000000" cx="440.8332" cy="-340.6146" rx="3.2" ry="3.2"/>
</g>
</g>
</svg>
