<?xml version="1.0" encoding="UTF-8" standalone="no"?>
<!DOCTYPE svg PUBLIC "-//W3C//DTD SVG 1.1//EN"
 "http://www.w3.org/Graphics/SVG/1.1/DTD/svg11.dtd">
<!-- Generated by graphviz version 2.40.1 (20161225.0304)
 -->
<!-- Title: oneDegreeRelationshipsDiagram Pages: 1 -->
<svg width="486pt" height="699pt"
 viewBox="0.00 0.00 486.00 699.20" xmlns="http://www.w3.org/2000/svg" xmlns:xlink="http://www.w3.org/1999/xlink">
<g id="graph0" class="graph" transform="scale(1 1) rotate(0) translate(4 695.2)">
<title>oneDegreeRelationshipsDiagram</title>
<polygon fill="#ffffff" stroke="transparent" points="-4,4 -4,-695.2 482,-695.2 482,4 -4,4"/>
<text text-anchor="middle" x="72.4936" y="-7.3" font-family="Helvetica,sans-Serif" font-size="11.00" fill="#000000">Generated by SchemaSpy</text>
<!-- procedure_answers -->
<g id="node1" class="node">
<title>procedure_answers</title>
<g id="a_node1"><a xlink:href="../../tables/procedure_answers.html" xlink:title="procedure_answers" target="_top">
<polygon fill="#ffffff" stroke="transparent" points="237,-249.7 237,-427.7 470,-427.7 470,-249.7 237,-249.7"/>
<polygon fill="#f5f5f5" stroke="transparent" points="239.5,-402.7 239.5,-425.7 468.5,-425.7 468.5,-402.7 239.5,-402.7"/>
<polygon fill="none" stroke="#000000" points="239.5,-402.7 239.5,-425.7 468.5,-425.7 468.5,-402.7 239.5,-402.7"/>
<text text-anchor="start" x="244.5" y="-411.3" font-family="Helvetica,sans-Serif" font-weight="bold" font-size="11.00" fill="#000000">procedure_answers</text>
<text text-anchor="start" x="433.5437" y="-410.8" font-family="Helvetica,sans-Serif" font-size="11.00" fill="#000000">[table]</text>
<polygon fill="none" stroke="#000000" points="239.5,-380.7 239.5,-402.7 401.5,-402.7 401.5,-380.7 239.5,-380.7"/>
<image xlink:href="../../images/primaryKeys.png" width="11px" height="12px" preserveAspectRatio="xMinYMin meet" x="244.5" y="-397.7"/>
<text text-anchor="start" x="259.5" y="-387.8" font-family="Helvetica,sans-Serif" font-size="11.00" fill="#000000">procedure_order_id</text>
<polygon fill="none" stroke="#000000" points="401.5,-380.7 401.5,-402.7 468.5,-402.7 468.5,-380.7 401.5,-380.7"/>
<text text-anchor="start" x="404.5" y="-388.4" font-family="Helvetica,sans-Serif" font-size="11.00" fill="#000000">bigint[19]</text>
<polygon fill="none" stroke="#000000" points="239.5,-358.7 239.5,-380.7 401.5,-380.7 401.5,-358.7 239.5,-358.7"/>
<image xlink:href="../../images/primaryKeys.png" width="11px" height="12px" preserveAspectRatio="xMinYMin meet" x="244.5" y="-375.7"/>
<text text-anchor="start" x="259.5" y="-365.8" font-family="Helvetica,sans-Serif" font-size="11.00" fill="#000000">procedure_order_seq</text>
<polygon fill="none" stroke="#000000" points="401.5,-358.7 401.5,-380.7 468.5,-380.7 468.5,-358.7 401.5,-358.7"/>
<text text-anchor="start" x="404.5" y="-366.4" font-family="Helvetica,sans-Serif" font-size="11.00" fill="#000000">int[10]</text>
<polygon fill="none" stroke="#000000" points="239.5,-336.7 239.5,-358.7 401.5,-358.7 401.5,-336.7 239.5,-336.7"/>
<image xlink:href="../../images/primaryKeys.png" width="11px" height="12px" preserveAspectRatio="xMinYMin meet" x="244.5" y="-353.7"/>
<text text-anchor="start" x="259.5" y="-343.8" font-family="Helvetica,sans-Serif" font-size="11.00" fill="#000000">question_code</text>
<polygon fill="none" stroke="#000000" points="401.5,-336.7 401.5,-358.7 468.5,-358.7 468.5,-336.7 401.5,-336.7"/>
<text text-anchor="start" x="404.5" y="-344.4" font-family="Helvetica,sans-Serif" font-size="11.00" fill="#000000">varchar[31]</text>
<polygon fill="none" stroke="#000000" points="239.5,-314.7 239.5,-336.7 401.5,-336.7 401.5,-314.7 239.5,-314.7"/>
<image xlink:href="../../images/primaryKeys.png" width="11px" height="12px" preserveAspectRatio="xMinYMin meet" x="244.5" y="-331.7"/>
<text text-anchor="start" x="259.5" y="-321.8" font-family="Helvetica,sans-Serif" font-size="11.00" fill="#000000">answer_seq</text>
<polygon fill="none" stroke="#000000" points="401.5,-314.7 401.5,-336.7 468.5,-336.7 468.5,-314.7 401.5,-314.7"/>
<text text-anchor="start" x="404.5" y="-322.4" font-family="Helvetica,sans-Serif" font-size="11.00" fill="#000000">int[10]</text>
<polygon fill="none" stroke="#000000" points="239.5,-292.7 239.5,-314.7 401.5,-314.7 401.5,-292.7 239.5,-292.7"/>
<text text-anchor="start" x="259.5" y="-299.8" font-family="Helvetica,sans-Serif" font-size="11.00" fill="#000000">answer</text>
<polygon fill="none" stroke="#000000" points="401.5,-292.7 401.5,-314.7 468.5,-314.7 468.5,-292.7 401.5,-292.7"/>
<text text-anchor="start" x="404.4365" y="-300.4" font-family="Helvetica,sans-Serif" font-size="11.00" fill="#000000">varchar[255]</text>
<polygon fill="none" stroke="#000000" points="239.5,-270.7 239.5,-292.7 401.5,-292.7 401.5,-270.7 239.5,-270.7"/>
<text text-anchor="start" x="259.5" y="-277.8" font-family="Helvetica,sans-Serif" font-size="11.00" fill="#000000">procedure_code</text>
<polygon fill="none" stroke="#000000" points="401.5,-270.7 401.5,-292.7 468.5,-292.7 468.5,-270.7 401.5,-270.7"/>
<text text-anchor="start" x="404.5" y="-278.4" font-family="Helvetica,sans-Serif" font-size="11.00" fill="#000000">varchar[31]</text>
<polygon fill="#ffffff" stroke="transparent" points="239.5,-251.7 239.5,-270.7 324.5,-270.7 324.5,-251.7 239.5,-251.7"/>
<polygon fill="none" stroke="#000000" points="239.5,-251.7 239.5,-270.7 324.5,-270.7 324.5,-251.7 239.5,-251.7"/>
<text text-anchor="start" x="242.5" y="-257.8" font-family="Helvetica,sans-Serif" font-size="11.00" fill="#000000">&lt; 2</text>
<polygon fill="#ffffff" stroke="transparent" points="324.5,-251.7 324.5,-270.7 401.5,-270.7 401.5,-251.7 324.5,-251.7"/>
<polygon fill="none" stroke="#000000" points="324.5,-251.7 324.5,-270.7 401.5,-270.7 401.5,-251.7 324.5,-251.7"/>
<text text-anchor="start" x="392.3862" y="-257.8" font-family="Helvetica,sans-Serif" font-size="11.00" fill="#000000"> &#160;</text>
<polygon fill="#ffffff" stroke="transparent" points="401.5,-251.7 401.5,-270.7 468.5,-270.7 468.5,-251.7 401.5,-251.7"/>
<polygon fill="none" stroke="#000000" points="401.5,-251.7 401.5,-270.7 468.5,-270.7 468.5,-251.7 401.5,-251.7"/>
<text text-anchor="start" x="449.9053" y="-257.8" font-family="Helvetica,sans-Serif" font-size="11.00" fill="#000000">0 &gt;</text>
<polygon fill="none" stroke="#000000" stroke-width="2" points="238,-250.7 238,-426.7 469,-426.7 469,-250.7 238,-250.7"/>
</a>
</g>
</g>
<!-- procedure_order -->
<g id="node2" class="node">
<title>procedure_order</title>
<g id="a_node2"><a xlink:href="../../tables/procedure_order.html" xlink:title="procedure_order" target="_top">
<polygon fill="#ffffff" stroke="transparent" points="13.5,-186.2 13.5,-687.2 182.5,-687.2 182.5,-186.2 13.5,-186.2"/>
<polygon fill="#f5f5f5" stroke="transparent" points="14,-663.7 14,-686.7 183,-686.7 183,-663.7 14,-663.7"/>
<polygon fill="none" stroke="#000000" points="14,-663.7 14,-686.7 183,-686.7 183,-663.7 14,-663.7"/>
<text text-anchor="start" x="19" y="-672.3" font-family="Helvetica,sans-Serif" font-weight="bold" font-size="11.00" fill="#000000">procedure_order</text>
<text text-anchor="start" x="148.0437" y="-671.8" font-family="Helvetica,sans-Serif" font-size="11.00" fill="#000000">[table]</text>
<polygon fill="none" stroke="#000000" points="14,-641.7 14,-663.7 183,-663.7 183,-641.7 14,-641.7"/>
<image xlink:href="../../images/primaryKeys.png" width="11px" height="12px" preserveAspectRatio="xMinYMin meet" x="19" y="-658.7"/>
<text text-anchor="start" x="34" y="-648.8" font-family="Helvetica,sans-Serif" font-size="11.00" fill="#000000">procedure_order_id</text>
<polygon fill="#ffffff" stroke="transparent" points="14,-619.7 14,-641.7 183,-641.7 183,-619.7 14,-619.7"/>
<polygon fill="none" stroke="#000000" points="14,-619.7 14,-641.7 183,-641.7 183,-619.7 14,-619.7"/>
<text text-anchor="start" x="34" y="-626.8" font-family="Helvetica,sans-Serif" font-size="11.00" fill="#000000">uuid</text>
<polygon fill="none" stroke="#000000" points="14,-597.7 14,-619.7 183,-619.7 183,-597.7 14,-597.7"/>
<image xlink:href="../../images/foreignKeys.png" width="11px" height="12px" preserveAspectRatio="xMinYMin meet" x="19" y="-614.7"/>
<text text-anchor="start" x="34" y="-604.8" font-family="Helvetica,sans-Serif" font-size="11.00" fill="#000000">provider_id</text>
<polygon fill="#ffffff" stroke="transparent" points="14,-575.7 14,-597.7 183,-597.7 183,-575.7 14,-575.7"/>
<polygon fill="none" stroke="#000000" points="14,-575.7 14,-597.7 183,-597.7 183,-575.7 14,-575.7"/>
<image xlink:href="../../images/foreignKeys.png" width="11px" height="12px" preserveAspectRatio="xMinYMin meet" x="19" y="-592.7"/>
<text text-anchor="start" x="34" y="-582.8" font-family="Helvetica,sans-Serif" font-size="11.00" fill="#000000">patient_id</text>
<polygon fill="none" stroke="#000000" points="14,-553.7 14,-575.7 183,-575.7 183,-553.7 14,-553.7"/>
<image xlink:href="../../images/foreignKeys.png" width="11px" height="12px" preserveAspectRatio="xMinYMin meet" x="19" y="-570.7"/>
<text text-anchor="start" x="34" y="-560.8" font-family="Helvetica,sans-Serif" font-size="11.00" fill="#000000">encounter_id</text>
<polygon fill="#ffffff" stroke="transparent" points="14,-531.7 14,-553.7 183,-553.7 183,-531.7 14,-531.7"/>
<polygon fill="none" stroke="#000000" points="14,-531.7 14,-553.7 183,-553.7 183,-531.7 14,-531.7"/>
<text text-anchor="start" x="34" y="-538.8" font-family="Helvetica,sans-Serif" font-size="11.00" fill="#000000">date_ordered</text>
<polygon fill="none" stroke="#000000" points="14,-509.7 14,-531.7 183,-531.7 183,-509.7 14,-509.7"/>
<image xlink:href="../../images/foreignKeys.png" width="11px" height="12px" preserveAspectRatio="xMinYMin meet" x="19" y="-526.7"/>
<text text-anchor="start" x="34" y="-516.8" font-family="Helvetica,sans-Serif" font-size="11.00" fill="#000000">order_priority</text>
<polygon fill="none" stroke="#000000" points="14,-487.7 14,-509.7 183,-509.7 183,-487.7 14,-487.7"/>
<image xlink:href="../../images/foreignKeys.png" width="11px" height="12px" preserveAspectRatio="xMinYMin meet" x="19" y="-504.7"/>
<text text-anchor="start" x="34" y="-494.8" font-family="Helvetica,sans-Serif" font-size="11.00" fill="#000000">order_status</text>
<polygon fill="none" stroke="#000000" points="14,-465.7 14,-487.7 183,-487.7 183,-465.7 14,-465.7"/>
<image xlink:href="../../images/foreignKeys.png" width="11px" height="12px" preserveAspectRatio="xMinYMin meet" x="19" y="-482.7"/>
<text text-anchor="start" x="34" y="-472.8" font-family="Helvetica,sans-Serif" font-size="11.00" fill="#000000">lab_id</text>
<polygon fill="#ffffff" stroke="transparent" points="14,-443.7 14,-465.7 183,-465.7 183,-443.7 14,-443.7"/>
<polygon fill="none" stroke="#000000" points="14,-443.7 14,-465.7 183,-465.7 183,-443.7 14,-443.7"/>
<image xlink:href="../../images/foreignKeys.png" width="11px" height="12px" preserveAspectRatio="xMinYMin meet" x="19" y="-460.7"/>
<text text-anchor="start" x="34" y="-450.8" font-family="Helvetica,sans-Serif" font-size="11.00" fill="#000000">specimen_type</text>
<polygon fill="none" stroke="#000000" points="14,-421.7 14,-443.7 183,-443.7 183,-421.7 14,-421.7"/>
<image xlink:href="../../images/foreignKeys.png" width="11px" height="12px" preserveAspectRatio="xMinYMin meet" x="19" y="-438.7"/>
<text text-anchor="start" x="34" y="-428.8" font-family="Helvetica,sans-Serif" font-size="11.00" fill="#000000">specimen_location</text>
<polygon fill="none" stroke="#000000" points="14,-399.7 14,-421.7 183,-421.7 183,-399.7 14,-399.7"/>
<image xlink:href="../../images/foreignKeys.png" width="11px" height="12px" preserveAspectRatio="xMinYMin meet" x="19" y="-416.7"/>
<text text-anchor="start" x="34" y="-406.8" font-family="Helvetica,sans-Serif" font-size="11.00" fill="#000000">billing_type</text>
<polygon fill="none" stroke="#000000" points="14,-377.7 14,-399.7 183,-399.7 183,-377.7 14,-377.7"/>
<image xlink:href="../../images/foreignKeys.png" width="11px" height="12px" preserveAspectRatio="xMinYMin meet" x="19" y="-394.7"/>
<text text-anchor="start" x="34" y="-384.8" font-family="Helvetica,sans-Serif" font-size="11.00" fill="#000000">procedure_type</text>
<polygon fill="none" stroke="#000000" points="14,-355.7 14,-377.7 183,-377.7 183,-355.7 14,-355.7"/>
<image xlink:href="../../images/foreignKeys.png" width="11px" height="12px" preserveAspectRatio="xMinYMin meet" x="19" y="-372.7"/>
<text text-anchor="start" x="34" y="-362.8" font-family="Helvetica,sans-Serif" font-size="11.00" fill="#000000">collector_id</text>
<polygon fill="none" stroke="#000000" points="14,-333.7 14,-355.7 183,-355.7 183,-333.7 14,-333.7"/>
<image xlink:href="../../images/foreignKeys.png" width="11px" height="12px" preserveAspectRatio="xMinYMin meet" x="19" y="-350.7"/>
<text text-anchor="start" x="34" y="-340.8" font-family="Helvetica,sans-Serif" font-size="11.00" fill="#000000">account_facility</text>
<polygon fill="none" stroke="#000000" points="14,-311.7 14,-333.7 183,-333.7 183,-311.7 14,-311.7"/>
<image xlink:href="../../images/foreignKeys.png" width="11px" height="12px" preserveAspectRatio="xMinYMin meet" x="19" y="-328.7"/>
<text text-anchor="start" x="34" y="-318.8" font-family="Helvetica,sans-Serif" font-size="11.00" fill="#000000">procedure_order_type</text>
<polygon fill="#ffffff" stroke="transparent" points="14,-289.7 14,-311.7 183,-311.7 183,-289.7 14,-289.7"/>
<polygon fill="none" stroke="#000000" points="14,-289.7 14,-311.7 183,-311.7 183,-289.7 14,-289.7"/>
<text text-anchor="start" x="34" y="-296.8" font-family="Helvetica,sans-Serif" font-size="11.00" fill="#000000">scheduled_date</text>
<polygon fill="none" stroke="#000000" points="14,-267.7 14,-289.7 183,-289.7 183,-267.7 14,-267.7"/>
<image xlink:href="../../images/foreignKeys.png" width="11px" height="12px" preserveAspectRatio="xMinYMin meet" x="19" y="-284.7"/>
<text text-anchor="start" x="34" y="-274.8" font-family="Helvetica,sans-Serif" font-size="11.00" fill="#000000">performer_type</text>
<polygon fill="#ffffff" stroke="transparent" points="14,-245.7 14,-267.7 183,-267.7 183,-245.7 14,-245.7"/>
<polygon fill="none" stroke="#000000" points="14,-245.7 14,-267.7 183,-267.7 183,-245.7 14,-245.7"/>
<image xlink:href="../../images/foreignKeys.png" width="11px" height="12px" preserveAspectRatio="xMinYMin meet" x="19" y="-262.7"/>
<text text-anchor="start" x="34" y="-252.8" font-family="Helvetica,sans-Serif" font-size="11.00" fill="#000000">order_intent</text>
<polygon fill="#ffffff" stroke="transparent" points="14,-223.7 14,-245.7 183,-245.7 183,-223.7 14,-223.7"/>
<polygon fill="none" stroke="#000000" points="14,-223.7 14,-245.7 183,-245.7 183,-223.7 14,-223.7"/>
<image xlink:href="../../images/foreignKeys.png" width="11px" height="12px" preserveAspectRatio="xMinYMin meet" x="19" y="-240.7"/>
<text text-anchor="start" x="34" y="-230.8" font-family="Helvetica,sans-Serif" font-size="11.00" fill="#000000">location_id</text>
<polygon fill="none" stroke="#000000" points="14,-204.7 14,-223.7 183,-223.7 183,-204.7 14,-204.7"/>
<text text-anchor="start" x="17" y="-210.8" font-family="Helvetica,sans-Serif" font-size="11.00" fill="#000000">...</text>
<polygon fill="#ffffff" stroke="transparent" points="14,-185.7 14,-204.7 95,-204.7 95,-185.7 14,-185.7"/>
<polygon fill="none" stroke="#000000" points="14,-185.7 14,-204.7 95,-204.7 95,-185.7 14,-185.7"/>
<text text-anchor="start" x="17" y="-191.8" font-family="Helvetica,sans-Serif" font-size="11.00" fill="#000000">&lt; 16</text>
<polygon fill="#ffffff" stroke="transparent" points="95,-185.7 95,-204.7 134,-204.7 134,-185.7 95,-185.7"/>
<polygon fill="none" stroke="#000000" points="95,-185.7 95,-204.7 134,-204.7 134,-185.7 95,-185.7"/>
<text text-anchor="start" x="124.8862" y="-191.8" font-family="Helvetica,sans-Serif" font-size="11.00" fill="#000000"> &#160;</text>
<polygon fill="#ffffff" stroke="transparent" points="134,-185.7 134,-204.7 183,-204.7 183,-185.7 134,-185.7"/>
<polygon fill="none" stroke="#000000" points="134,-185.7 134,-204.7 183,-204.7 183,-185.7 134,-185.7"/>
<text text-anchor="start" x="164.4053" y="-191.8" font-family="Helvetica,sans-Serif" font-size="11.00" fill="#000000">5 &gt;</text>
</a>
</g>
</g>
<!-- procedure_answers&#45;&gt;procedure_order -->
<g id="edge1" class="edge">
<title>procedure_answers:w&#45;&gt;procedure_order:e</title>
<path fill="none" stroke="#000000" d="M224.9927,-393.299C136.7857,-415.1091 296.2393,-652.7 183,-652.7"/>
<polygon fill="#000000" stroke="#000000" points="231.5482,-392.5765 239.8944,-395.2783 235.5241,-392.1383 239.5,-391.7 239.5,-391.7 239.5,-391.7 235.5241,-392.1383 239.1056,-388.1217 231.5482,-392.5765 231.5482,-392.5765"/>
<ellipse fill="none" stroke="#000000" cx="228.3674" cy="-392.9271" rx="3.2" ry="3.2"/>
</g>
<!-- procedure_questions -->
<g id="node3" class="node">
<title>procedure_questions</title>
<g id="a_node3"><a xlink:href="../../tables/procedure_questions.html" xlink:title="procedure_questions" target="_top">
<polygon fill="#ffffff" stroke="transparent" points="8,-38.2 8,-165.2 188,-165.2 188,-38.2 8,-38.2"/>
<polygon fill="#f5f5f5" stroke="transparent" points="8,-141.7 8,-164.7 188,-164.7 188,-141.7 8,-141.7"/>
<polygon fill="none" stroke="#000000" points="8,-141.7 8,-164.7 188,-164.7 188,-141.7 8,-141.7"/>
<text text-anchor="start" x="13" y="-150.3" font-family="Helvetica,sans-Serif" font-weight="bold" font-size="11.00" fill="#000000">procedure_questions</text>
<text text-anchor="start" x="153.5219" y="-149.8" font-family="Helvetica,sans-Serif" font-size="11.00" fill="#000000">[table]</text>
<polygon fill="none" stroke="#000000" points="8,-119.7 8,-141.7 188,-141.7 188,-119.7 8,-119.7"/>
<image xlink:href="../../images/primaryKeys.png" width="11px" height="12px" preserveAspectRatio="xMinYMin meet" x="13" y="-136.7"/>
<text text-anchor="start" x="37" y="-126.8" font-family="Helvetica,sans-Serif" font-size="11.00" fill="#000000">lab_id</text>
<polygon fill="none" stroke="#000000" points="8,-97.7 8,-119.7 188,-119.7 188,-97.7 8,-97.7"/>
<image xlink:href="../../images/primaryKeys.png" width="11px" height="12px" preserveAspectRatio="xMinYMin meet" x="13" y="-114.7"/>
<text text-anchor="start" x="37" y="-104.8" font-family="Helvetica,sans-Serif" font-size="11.00" fill="#000000">procedure_code</text>
<polygon fill="none" stroke="#000000" points="8,-75.7 8,-97.7 188,-97.7 188,-75.7 8,-75.7"/>
<image xlink:href="../../images/primaryKeys.png" width="11px" height="12px" preserveAspectRatio="xMinYMin meet" x="13" y="-92.7"/>
<text text-anchor="start" x="37" y="-82.8" font-family="Helvetica,sans-Serif" font-size="11.00" fill="#000000">question_code</text>
<polygon fill="none" stroke="#000000" points="8,-56.7 8,-75.7 188,-75.7 188,-56.7 8,-56.7"/>
<text text-anchor="start" x="11" y="-62.8" font-family="Helvetica,sans-Serif" font-size="11.00" fill="#000000">...</text>
<polygon fill="#ffffff" stroke="transparent" points="8,-37.7 8,-56.7 92,-56.7 92,-37.7 8,-37.7"/>
<polygon fill="none" stroke="#000000" points="8,-37.7 8,-56.7 92,-56.7 92,-37.7 8,-37.7"/>
<text text-anchor="start" x="11" y="-43.8" font-family="Helvetica,sans-Serif" font-size="11.00" fill="#000000">&lt; 2</text>
<polygon fill="#ffffff" stroke="transparent" points="92,-37.7 92,-56.7 135,-56.7 135,-37.7 92,-37.7"/>
<polygon fill="none" stroke="#000000" points="92,-37.7 92,-56.7 135,-56.7 135,-37.7 92,-37.7"/>
<text text-anchor="start" x="125.8862" y="-43.8" font-family="Helvetica,sans-Serif" font-size="11.00" fill="#000000"> &#160;</text>
<polygon fill="#ffffff" stroke="transparent" points="135,-37.7 135,-56.7 188,-56.7 188,-37.7 135,-37.7"/>
<polygon fill="none" stroke="#000000" points="135,-37.7 135,-56.7 188,-56.7 188,-37.7 135,-37.7"/>
<text text-anchor="start" x="169.4053" y="-43.8" font-family="Helvetica,sans-Serif" font-size="11.00" fill="#000000">1 &gt;</text>
</a>
</g>
</g>
<!-- procedure_answers&#45;&gt;procedure_questions -->
<g id="edge2" class="edge">
<title>procedure_answers:w&#45;&gt;procedure_questions:e</title>
<path fill="none" stroke="#000000" d="M225.077,-346.101C137.6046,-324.2909 300.8098,-86.7 188,-86.7"/>
<polygon fill="#000000" stroke="#000000" points="231.5487,-346.8184 239.1033,-351.2781 235.5244,-347.2592 239.5,-347.7 239.5,-347.7 239.5,-347.7 235.5244,-347.2592 239.8967,-344.1219 231.5487,-346.8184 231.5487,-346.8184"/>
<ellipse fill="none" stroke="#000000" cx="228.3682" cy="-346.4658" rx="3.2" ry="3.2"/>
</g>
</g>
</svg>
