<?xml version="1.0" encoding="UTF-8" standalone="no"?>
<!DOCTYPE svg PUBLIC "-//W3C//DTD SVG 1.1//EN"
 "http://www.w3.org/Graphics/SVG/1.1/DTD/svg11.dtd">
<!-- Generated by graphviz version 2.40.1 (20161225.0304)
 -->
<!-- Title: oneDegreeRelationshipsDiagram Pages: 1 -->
<svg width="548pt" height="575pt"
 viewBox="0.00 0.00 548.00 574.70" xmlns="http://www.w3.org/2000/svg" xmlns:xlink="http://www.w3.org/1999/xlink">
<g id="graph0" class="graph" transform="scale(1 1) rotate(0) translate(4 570.7)">
<title>oneDegreeRelationshipsDiagram</title>
<polygon fill="#ffffff" stroke="transparent" points="-4,4 -4,-570.7 544,-570.7 544,4 -4,4"/>
<text text-anchor="middle" x="72.4936" y="-7.3" font-family="Helvetica,sans-Serif" font-size="11.00" fill="#000000">Generated by SchemaSpy</text>
<!-- procedure_order_relationships -->
<g id="node1" class="node">
<title>procedure_order_relationships</title>
<g id="a_node1"><a xlink:href="../../tables/procedure_order_relationships.html" xlink:title="procedure_order_relationships" target="_top">
<polygon fill="#ffffff" stroke="transparent" points="226,-362.7 226,-562.7 532,-562.7 532,-362.7 226,-362.7"/>
<polygon fill="#f5f5f5" stroke="transparent" points="228,-537.7 228,-560.7 530,-560.7 530,-537.7 228,-537.7"/>
<polygon fill="none" stroke="#000000" points="228,-537.7 228,-560.7 530,-560.7 530,-537.7 228,-537.7"/>
<text text-anchor="start" x="233" y="-546.3" font-family="Helvetica,sans-Serif" font-weight="bold" font-size="11.00" fill="#000000">procedure_order_relationships</text>
<text text-anchor="start" x="495.0437" y="-545.8" font-family="Helvetica,sans-Serif" font-size="11.00" fill="#000000">[table]</text>
<polygon fill="none" stroke="#000000" points="228,-515.7 228,-537.7 455,-537.7 455,-515.7 228,-515.7"/>
<image xlink:href="../../images/primaryKeys.png" width="11px" height="12px" preserveAspectRatio="xMinYMin meet" x="233" y="-532.7"/>
<text text-anchor="start" x="248" y="-522.8" font-family="Helvetica,sans-Serif" font-size="11.00" fill="#000000">id</text>
<polygon fill="none" stroke="#000000" points="455,-515.7 455,-537.7 530,-537.7 530,-515.7 455,-515.7"/>
<text text-anchor="start" x="458" y="-523.4" font-family="Helvetica,sans-Serif" font-size="11.00" fill="#000000">int[10]</text>
<polygon fill="#ffffff" stroke="transparent" points="228,-493.7 228,-515.7 455,-515.7 455,-493.7 228,-493.7"/>
<polygon fill="none" stroke="#000000" points="228,-493.7 228,-515.7 455,-515.7 455,-493.7 228,-493.7"/>
<image xlink:href="../../images/foreignKeys.png" width="11px" height="12px" preserveAspectRatio="xMinYMin meet" x="233" y="-510.7"/>
<text text-anchor="start" x="248" y="-500.8" font-family="Helvetica,sans-Serif" font-size="11.00" fill="#000000">procedure_order_id</text>
<polygon fill="none" stroke="#000000" points="455,-493.7 455,-515.7 530,-515.7 530,-493.7 455,-493.7"/>
<text text-anchor="start" x="458" y="-501.4" font-family="Helvetica,sans-Serif" font-size="11.00" fill="#000000">bigint[19]</text>
<polygon fill="#ffffff" stroke="transparent" points="228,-471.7 228,-493.7 455,-493.7 455,-471.7 228,-471.7"/>
<polygon fill="none" stroke="#000000" points="228,-471.7 228,-493.7 455,-493.7 455,-471.7 228,-471.7"/>
<text text-anchor="start" x="248" y="-478.8" font-family="Helvetica,sans-Serif" font-size="11.00" fill="#000000">resource_type</text>
<polygon fill="none" stroke="#000000" points="455,-471.7 455,-493.7 530,-493.7 530,-471.7 455,-471.7"/>
<text text-anchor="start" x="458" y="-479.4" font-family="Helvetica,sans-Serif" font-size="11.00" fill="#000000">varchar[50]</text>
<polygon fill="#ffffff" stroke="transparent" points="228,-449.7 228,-471.7 455,-471.7 455,-449.7 228,-449.7"/>
<polygon fill="none" stroke="#000000" points="228,-449.7 228,-471.7 455,-471.7 455,-449.7 228,-449.7"/>
<text text-anchor="start" x="248" y="-456.8" font-family="Helvetica,sans-Serif" font-size="11.00" fill="#000000">resource_uuid</text>
<polygon fill="none" stroke="#000000" points="455,-449.7 455,-471.7 530,-471.7 530,-449.7 455,-449.7"/>
<text text-anchor="start" x="458" y="-457.4" font-family="Helvetica,sans-Serif" font-size="11.00" fill="#000000">binary[16]</text>
<polygon fill="none" stroke="#000000" points="228,-427.7 228,-449.7 455,-449.7 455,-427.7 228,-427.7"/>
<text text-anchor="start" x="248" y="-434.8" font-family="Helvetica,sans-Serif" font-size="11.00" fill="#000000">relationship</text>
<polygon fill="none" stroke="#000000" points="455,-427.7 455,-449.7 530,-449.7 530,-427.7 455,-427.7"/>
<text text-anchor="start" x="458" y="-435.4" font-family="Helvetica,sans-Serif" font-size="11.00" fill="#000000">varchar[50]</text>
<polygon fill="#ffffff" stroke="transparent" points="228,-405.7 228,-427.7 455,-427.7 455,-405.7 228,-405.7"/>
<polygon fill="none" stroke="#000000" points="228,-405.7 228,-427.7 455,-427.7 455,-405.7 228,-405.7"/>
<text text-anchor="start" x="248" y="-412.8" font-family="Helvetica,sans-Serif" font-size="11.00" fill="#000000">created_at</text>
<polygon fill="none" stroke="#000000" points="455,-405.7 455,-427.7 530,-427.7 530,-405.7 455,-405.7"/>
<text text-anchor="start" x="457.9666" y="-413.4" font-family="Helvetica,sans-Serif" font-size="11.00" fill="#000000">timestamp[19]</text>
<polygon fill="none" stroke="#000000" points="228,-383.7 228,-405.7 455,-405.7 455,-383.7 228,-383.7"/>
<text text-anchor="start" x="248" y="-390.8" font-family="Helvetica,sans-Serif" font-size="11.00" fill="#000000">created_by</text>
<polygon fill="none" stroke="#000000" points="455,-383.7 455,-405.7 530,-405.7 530,-383.7 455,-383.7"/>
<text text-anchor="start" x="458" y="-391.4" font-family="Helvetica,sans-Serif" font-size="11.00" fill="#000000">bigint[19]</text>
<polygon fill="#ffffff" stroke="transparent" points="228,-364.7 228,-383.7 346,-383.7 346,-364.7 228,-364.7"/>
<polygon fill="none" stroke="#000000" points="228,-364.7 228,-383.7 346,-383.7 346,-364.7 228,-364.7"/>
<text text-anchor="start" x="231" y="-370.8" font-family="Helvetica,sans-Serif" font-size="11.00" fill="#000000">&lt; 1</text>
<polygon fill="#ffffff" stroke="transparent" points="346,-364.7 346,-383.7 455,-383.7 455,-364.7 346,-364.7"/>
<polygon fill="none" stroke="#000000" points="346,-364.7 346,-383.7 455,-383.7 455,-364.7 346,-364.7"/>
<text text-anchor="start" x="445.8862" y="-370.8" font-family="Helvetica,sans-Serif" font-size="11.00" fill="#000000"> &#160;</text>
<polygon fill="#ffffff" stroke="transparent" points="455,-364.7 455,-383.7 530,-383.7 530,-364.7 455,-364.7"/>
<polygon fill="none" stroke="#000000" points="455,-364.7 455,-383.7 530,-383.7 530,-364.7 455,-364.7"/>
<text text-anchor="start" x="511.4053" y="-370.8" font-family="Helvetica,sans-Serif" font-size="11.00" fill="#000000">0 &gt;</text>
<polygon fill="none" stroke="#000000" stroke-width="2" points="227,-363.7 227,-561.7 531,-561.7 531,-363.7 227,-363.7"/>
</a>
</g>
</g>
<!-- procedure_order -->
<g id="node2" class="node">
<title>procedure_order</title>
<g id="a_node2"><a xlink:href="../../tables/procedure_order.html" xlink:title="procedure_order" target="_top">
<polygon fill="#ffffff" stroke="transparent" points="8,-38.2 8,-539.2 177,-539.2 177,-38.2 8,-38.2"/>
<polygon fill="#f5f5f5" stroke="transparent" points="8.5,-515.7 8.5,-538.7 177.5,-538.7 177.5,-515.7 8.5,-515.7"/>
<polygon fill="none" stroke="#000000" points="8.5,-515.7 8.5,-538.7 177.5,-538.7 177.5,-515.7 8.5,-515.7"/>
<text text-anchor="start" x="13.5" y="-524.3" font-family="Helvetica,sans-Serif" font-weight="bold" font-size="11.00" fill="#000000">procedure_order</text>
<text text-anchor="start" x="142.5437" y="-523.8" font-family="Helvetica,sans-Serif" font-size="11.00" fill="#000000">[table]</text>
<polygon fill="none" stroke="#000000" points="8.5,-493.7 8.5,-515.7 177.5,-515.7 177.5,-493.7 8.5,-493.7"/>
<image xlink:href="../../images/primaryKeys.png" width="11px" height="12px" preserveAspectRatio="xMinYMin meet" x="13.5" y="-510.7"/>
<text text-anchor="start" x="28.5" y="-500.8" font-family="Helvetica,sans-Serif" font-size="11.00" fill="#000000">procedure_order_id</text>
<polygon fill="#ffffff" stroke="transparent" points="8.5,-471.7 8.5,-493.7 177.5,-493.7 177.5,-471.7 8.5,-471.7"/>
<polygon fill="none" stroke="#000000" points="8.5,-471.7 8.5,-493.7 177.5,-493.7 177.5,-471.7 8.5,-471.7"/>
<text text-anchor="start" x="28.5" y="-478.8" font-family="Helvetica,sans-Serif" font-size="11.00" fill="#000000">uuid</text>
<polygon fill="none" stroke="#000000" points="8.5,-449.7 8.5,-471.7 177.5,-471.7 177.5,-449.7 8.5,-449.7"/>
<image xlink:href="../../images/foreignKeys.png" width="11px" height="12px" preserveAspectRatio="xMinYMin meet" x="13.5" y="-466.7"/>
<text text-anchor="start" x="28.5" y="-456.8" font-family="Helvetica,sans-Serif" font-size="11.00" fill="#000000">provider_id</text>
<polygon fill="#ffffff" stroke="transparent" points="8.5,-427.7 8.5,-449.7 177.5,-449.7 177.5,-427.7 8.5,-427.7"/>
<polygon fill="none" stroke="#000000" points="8.5,-427.7 8.5,-449.7 177.5,-449.7 177.5,-427.7 8.5,-427.7"/>
<image xlink:href="../../images/foreignKeys.png" width="11px" height="12px" preserveAspectRatio="xMinYMin meet" x="13.5" y="-444.7"/>
<text text-anchor="start" x="28.5" y="-434.8" font-family="Helvetica,sans-Serif" font-size="11.00" fill="#000000">patient_id</text>
<polygon fill="none" stroke="#000000" points="8.5,-405.7 8.5,-427.7 177.5,-427.7 177.5,-405.7 8.5,-405.7"/>
<image xlink:href="../../images/foreignKeys.png" width="11px" height="12px" preserveAspectRatio="xMinYMin meet" x="13.5" y="-422.7"/>
<text text-anchor="start" x="28.5" y="-412.8" font-family="Helvetica,sans-Serif" font-size="11.00" fill="#000000">encounter_id</text>
<polygon fill="#ffffff" stroke="transparent" points="8.5,-383.7 8.5,-405.7 177.5,-405.7 177.5,-383.7 8.5,-383.7"/>
<polygon fill="none" stroke="#000000" points="8.5,-383.7 8.5,-405.7 177.5,-405.7 177.5,-383.7 8.5,-383.7"/>
<text text-anchor="start" x="28.5" y="-390.8" font-family="Helvetica,sans-Serif" font-size="11.00" fill="#000000">date_ordered</text>
<polygon fill="none" stroke="#000000" points="8.5,-361.7 8.5,-383.7 177.5,-383.7 177.5,-361.7 8.5,-361.7"/>
<image xlink:href="../../images/foreignKeys.png" width="11px" height="12px" preserveAspectRatio="xMinYMin meet" x="13.5" y="-378.7"/>
<text text-anchor="start" x="28.5" y="-368.8" font-family="Helvetica,sans-Serif" font-size="11.00" fill="#000000">order_priority</text>
<polygon fill="none" stroke="#000000" points="8.5,-339.7 8.5,-361.7 177.5,-361.7 177.5,-339.7 8.5,-339.7"/>
<image xlink:href="../../images/foreignKeys.png" width="11px" height="12px" preserveAspectRatio="xMinYMin meet" x="13.5" y="-356.7"/>
<text text-anchor="start" x="28.5" y="-346.8" font-family="Helvetica,sans-Serif" font-size="11.00" fill="#000000">order_status</text>
<polygon fill="none" stroke="#000000" points="8.5,-317.7 8.5,-339.7 177.5,-339.7 177.5,-317.7 8.5,-317.7"/>
<image xlink:href="../../images/foreignKeys.png" width="11px" height="12px" preserveAspectRatio="xMinYMin meet" x="13.5" y="-334.7"/>
<text text-anchor="start" x="28.5" y="-324.8" font-family="Helvetica,sans-Serif" font-size="11.00" fill="#000000">lab_id</text>
<polygon fill="#ffffff" stroke="transparent" points="8.5,-295.7 8.5,-317.7 177.5,-317.7 177.5,-295.7 8.5,-295.7"/>
<polygon fill="none" stroke="#000000" points="8.5,-295.7 8.5,-317.7 177.5,-317.7 177.5,-295.7 8.5,-295.7"/>
<image xlink:href="../../images/foreignKeys.png" width="11px" height="12px" preserveAspectRatio="xMinYMin meet" x="13.5" y="-312.7"/>
<text text-anchor="start" x="28.5" y="-302.8" font-family="Helvetica,sans-Serif" font-size="11.00" fill="#000000">specimen_type</text>
<polygon fill="none" stroke="#000000" points="8.5,-273.7 8.5,-295.7 177.5,-295.7 177.5,-273.7 8.5,-273.7"/>
<image xlink:href="../../images/foreignKeys.png" width="11px" height="12px" preserveAspectRatio="xMinYMin meet" x="13.5" y="-290.7"/>
<text text-anchor="start" x="28.5" y="-280.8" font-family="Helvetica,sans-Serif" font-size="11.00" fill="#000000">specimen_location</text>
<polygon fill="none" stroke="#000000" points="8.5,-251.7 8.5,-273.7 177.5,-273.7 177.5,-251.7 8.5,-251.7"/>
<image xlink:href="../../images/foreignKeys.png" width="11px" height="12px" preserveAspectRatio="xMinYMin meet" x="13.5" y="-268.7"/>
<text text-anchor="start" x="28.5" y="-258.8" font-family="Helvetica,sans-Serif" font-size="11.00" fill="#000000">billing_type</text>
<polygon fill="none" stroke="#000000" points="8.5,-229.7 8.5,-251.7 177.5,-251.7 177.5,-229.7 8.5,-229.7"/>
<image xlink:href="../../images/foreignKeys.png" width="11px" height="12px" preserveAspectRatio="xMinYMin meet" x="13.5" y="-246.7"/>
<text text-anchor="start" x="28.5" y="-236.8" font-family="Helvetica,sans-Serif" font-size="11.00" fill="#000000">procedure_type</text>
<polygon fill="none" stroke="#000000" points="8.5,-207.7 8.5,-229.7 177.5,-229.7 177.5,-207.7 8.5,-207.7"/>
<image xlink:href="../../images/foreignKeys.png" width="11px" height="12px" preserveAspectRatio="xMinYMin meet" x="13.5" y="-224.7"/>
<text text-anchor="start" x="28.5" y="-214.8" font-family="Helvetica,sans-Serif" font-size="11.00" fill="#000000">collector_id</text>
<polygon fill="none" stroke="#000000" points="8.5,-185.7 8.5,-207.7 177.5,-207.7 177.5,-185.7 8.5,-185.7"/>
<image xlink:href="../../images/foreignKeys.png" width="11px" height="12px" preserveAspectRatio="xMinYMin meet" x="13.5" y="-202.7"/>
<text text-anchor="start" x="28.5" y="-192.8" font-family="Helvetica,sans-Serif" font-size="11.00" fill="#000000">account_facility</text>
<polygon fill="none" stroke="#000000" points="8.5,-163.7 8.5,-185.7 177.5,-185.7 177.5,-163.7 8.5,-163.7"/>
<image xlink:href="../../images/foreignKeys.png" width="11px" height="12px" preserveAspectRatio="xMinYMin meet" x="13.5" y="-180.7"/>
<text text-anchor="start" x="28.5" y="-170.8" font-family="Helvetica,sans-Serif" font-size="11.00" fill="#000000">procedure_order_type</text>
<polygon fill="#ffffff" stroke="transparent" points="8.5,-141.7 8.5,-163.7 177.5,-163.7 177.5,-141.7 8.5,-141.7"/>
<polygon fill="none" stroke="#000000" points="8.5,-141.7 8.5,-163.7 177.5,-163.7 177.5,-141.7 8.5,-141.7"/>
<text text-anchor="start" x="28.5" y="-148.8" font-family="Helvetica,sans-Serif" font-size="11.00" fill="#000000">scheduled_date</text>
<polygon fill="none" stroke="#000000" points="8.5,-119.7 8.5,-141.7 177.5,-141.7 177.5,-119.7 8.5,-119.7"/>
<image xlink:href="../../images/foreignKeys.png" width="11px" height="12px" preserveAspectRatio="xMinYMin meet" x="13.5" y="-136.7"/>
<text text-anchor="start" x="28.5" y="-126.8" font-family="Helvetica,sans-Serif" font-size="11.00" fill="#000000">performer_type</text>
<polygon fill="#ffffff" stroke="transparent" points="8.5,-97.7 8.5,-119.7 177.5,-119.7 177.5,-97.7 8.5,-97.7"/>
<polygon fill="none" stroke="#000000" points="8.5,-97.7 8.5,-119.7 177.5,-119.7 177.5,-97.7 8.5,-97.7"/>
<image xlink:href="../../images/foreignKeys.png" width="11px" height="12px" preserveAspectRatio="xMinYMin meet" x="13.5" y="-114.7"/>
<text text-anchor="start" x="28.5" y="-104.8" font-family="Helvetica,sans-Serif" font-size="11.00" fill="#000000">order_intent</text>
<polygon fill="#ffffff" stroke="transparent" points="8.5,-75.7 8.5,-97.7 177.5,-97.7 177.5,-75.7 8.5,-75.7"/>
<polygon fill="none" stroke="#000000" points="8.5,-75.7 8.5,-97.7 177.5,-97.7 177.5,-75.7 8.5,-75.7"/>
<image xlink:href="../../images/foreignKeys.png" width="11px" height="12px" preserveAspectRatio="xMinYMin meet" x="13.5" y="-92.7"/>
<text text-anchor="start" x="28.5" y="-82.8" font-family="Helvetica,sans-Serif" font-size="11.00" fill="#000000">location_id</text>
<polygon fill="none" stroke="#000000" points="8.5,-56.7 8.5,-75.7 177.5,-75.7 177.5,-56.7 8.5,-56.7"/>
<text text-anchor="start" x="11.5" y="-62.8" font-family="Helvetica,sans-Serif" font-size="11.00" fill="#000000">...</text>
<polygon fill="#ffffff" stroke="transparent" points="8.5,-37.7 8.5,-56.7 89.5,-56.7 89.5,-37.7 8.5,-37.7"/>
<polygon fill="none" stroke="#000000" points="8.5,-37.7 8.5,-56.7 89.5,-56.7 89.5,-37.7 8.5,-37.7"/>
<text text-anchor="start" x="11.5" y="-43.8" font-family="Helvetica,sans-Serif" font-size="11.00" fill="#000000">&lt; 16</text>
<polygon fill="#ffffff" stroke="transparent" points="89.5,-37.7 89.5,-56.7 128.5,-56.7 128.5,-37.7 89.5,-37.7"/>
<polygon fill="none" stroke="#000000" points="89.5,-37.7 89.5,-56.7 128.5,-56.7 128.5,-37.7 89.5,-37.7"/>
<text text-anchor="start" x="119.3862" y="-43.8" font-family="Helvetica,sans-Serif" font-size="11.00" fill="#000000"> &#160;</text>
<polygon fill="#ffffff" stroke="transparent" points="128.5,-37.7 128.5,-56.7 177.5,-56.7 177.5,-37.7 128.5,-37.7"/>
<polygon fill="none" stroke="#000000" points="128.5,-37.7 128.5,-56.7 177.5,-56.7 177.5,-37.7 128.5,-37.7"/>
<text text-anchor="start" x="158.9053" y="-43.8" font-family="Helvetica,sans-Serif" font-size="11.00" fill="#000000">5 &gt;</text>
</a>
</g>
</g>
<!-- procedure_order_relationships&#45;&gt;procedure_order -->
<g id="edge1" class="edge">
<title>procedure_order_relationships:w&#45;&gt;procedure_order:e</title>
<path fill="none" stroke="#000000" d="M213.4203,-504.7C201.5435,-504.7 194.158,-504.7 177.5,-504.7"/>
<polygon fill="#000000" stroke="#000000" points="220,-504.7001 228,-508.3 224,-504.7 228,-504.7 228,-504.7 228,-504.7 224,-504.7 228,-501.1 220,-504.7001 220,-504.7001"/>
<ellipse fill="none" stroke="#000000" cx="216.8" cy="-504.7001" rx="3.2" ry="3.2"/>
</g>
</g>
</svg>
