<?xml version="1.0" encoding="UTF-8" standalone="no"?>
<!DOCTYPE svg PUBLIC "-//W3C//DTD SVG 1.1//EN"
 "http://www.w3.org/Graphics/SVG/1.1/DTD/svg11.dtd">
<!-- Generated by graphviz version 2.40.1 (20161225.0304)
 -->
<!-- Title: oneDegreeRelationshipsDiagram Pages: 1 -->
<svg width="947pt" height="611pt"
 viewBox="0.00 0.00 947.00 611.20" xmlns="http://www.w3.org/2000/svg" xmlns:xlink="http://www.w3.org/1999/xlink">
<g id="graph0" class="graph" transform="scale(1 1) rotate(0) translate(4 607.2)">
<title>oneDegreeRelationshipsDiagram</title>
<polygon fill="#ffffff" stroke="transparent" points="-4,4 -4,-607.2 943,-607.2 943,4 -4,4"/>
<text text-anchor="middle" x="72.4936" y="-7.3" font-family="Helvetica,sans-Serif" font-size="11.00" fill="#000000">Generated by SchemaSpy</text>
<!-- procedure_order -->
<g id="node1" class="node">
<title>procedure_order</title>
<g id="a_node1"><a xlink:href="../../tables/procedure_order.html" xlink:title="procedure_order" target="_top">
<polygon fill="#ffffff" stroke="transparent" points="224,-120.2 224,-533.2 393,-533.2 393,-120.2 224,-120.2"/>
<polygon fill="#f5f5f5" stroke="transparent" points="224.5,-509.7 224.5,-532.7 393.5,-532.7 393.5,-509.7 224.5,-509.7"/>
<polygon fill="none" stroke="#000000" points="224.5,-509.7 224.5,-532.7 393.5,-532.7 393.5,-509.7 224.5,-509.7"/>
<text text-anchor="start" x="229.5" y="-518.3" font-family="Helvetica,sans-Serif" font-weight="bold" font-size="11.00" fill="#000000">procedure_order</text>
<text text-anchor="start" x="358.5437" y="-517.8" font-family="Helvetica,sans-Serif" font-size="11.00" fill="#000000">[table]</text>
<polygon fill="none" stroke="#000000" points="224.5,-487.7 224.5,-509.7 393.5,-509.7 393.5,-487.7 224.5,-487.7"/>
<image xlink:href="../../images/primaryKeys.png" width="11px" height="12px" preserveAspectRatio="xMinYMin meet" x="229.5" y="-504.7"/>
<text text-anchor="start" x="244.5" y="-494.8" font-family="Helvetica,sans-Serif" font-size="11.00" fill="#000000">procedure_order_id</text>
<polygon fill="none" stroke="#000000" points="224.5,-465.7 224.5,-487.7 393.5,-487.7 393.5,-465.7 224.5,-465.7"/>
<image xlink:href="../../images/foreignKeys.png" width="11px" height="12px" preserveAspectRatio="xMinYMin meet" x="229.5" y="-482.7"/>
<text text-anchor="start" x="244.5" y="-472.8" font-family="Helvetica,sans-Serif" font-size="11.00" fill="#000000">provider_id</text>
<polygon fill="#ffffff" stroke="transparent" points="224.5,-443.7 224.5,-465.7 393.5,-465.7 393.5,-443.7 224.5,-443.7"/>
<polygon fill="none" stroke="#000000" points="224.5,-443.7 224.5,-465.7 393.5,-465.7 393.5,-443.7 224.5,-443.7"/>
<image xlink:href="../../images/foreignKeys.png" width="11px" height="12px" preserveAspectRatio="xMinYMin meet" x="229.5" y="-460.7"/>
<text text-anchor="start" x="244.5" y="-450.8" font-family="Helvetica,sans-Serif" font-size="11.00" fill="#000000">patient_id</text>
<polygon fill="none" stroke="#000000" points="224.5,-421.7 224.5,-443.7 393.5,-443.7 393.5,-421.7 224.5,-421.7"/>
<image xlink:href="../../images/foreignKeys.png" width="11px" height="12px" preserveAspectRatio="xMinYMin meet" x="229.5" y="-438.7"/>
<text text-anchor="start" x="244.5" y="-428.8" font-family="Helvetica,sans-Serif" font-size="11.00" fill="#000000">encounter_id</text>
<polygon fill="#ffffff" stroke="transparent" points="224.5,-399.7 224.5,-421.7 393.5,-421.7 393.5,-399.7 224.5,-399.7"/>
<polygon fill="none" stroke="#000000" points="224.5,-399.7 224.5,-421.7 393.5,-421.7 393.5,-399.7 224.5,-399.7"/>
<text text-anchor="start" x="244.5" y="-406.8" font-family="Helvetica,sans-Serif" font-size="11.00" fill="#000000">date_ordered</text>
<polygon fill="none" stroke="#000000" points="224.5,-377.7 224.5,-399.7 393.5,-399.7 393.5,-377.7 224.5,-377.7"/>
<image xlink:href="../../images/foreignKeys.png" width="11px" height="12px" preserveAspectRatio="xMinYMin meet" x="229.5" y="-394.7"/>
<text text-anchor="start" x="244.5" y="-384.8" font-family="Helvetica,sans-Serif" font-size="11.00" fill="#000000">order_priority</text>
<polygon fill="none" stroke="#000000" points="224.5,-355.7 224.5,-377.7 393.5,-377.7 393.5,-355.7 224.5,-355.7"/>
<image xlink:href="../../images/foreignKeys.png" width="11px" height="12px" preserveAspectRatio="xMinYMin meet" x="229.5" y="-372.7"/>
<text text-anchor="start" x="244.5" y="-362.8" font-family="Helvetica,sans-Serif" font-size="11.00" fill="#000000">order_status</text>
<polygon fill="none" stroke="#000000" points="224.5,-333.7 224.5,-355.7 393.5,-355.7 393.5,-333.7 224.5,-333.7"/>
<image xlink:href="../../images/foreignKeys.png" width="11px" height="12px" preserveAspectRatio="xMinYMin meet" x="229.5" y="-350.7"/>
<text text-anchor="start" x="244.5" y="-340.8" font-family="Helvetica,sans-Serif" font-size="11.00" fill="#000000">lab_id</text>
<polygon fill="none" stroke="#000000" points="224.5,-311.7 224.5,-333.7 393.5,-333.7 393.5,-311.7 224.5,-311.7"/>
<image xlink:href="../../images/foreignKeys.png" width="11px" height="12px" preserveAspectRatio="xMinYMin meet" x="229.5" y="-328.7"/>
<text text-anchor="start" x="244.5" y="-318.8" font-family="Helvetica,sans-Serif" font-size="11.00" fill="#000000">specimen_type</text>
<polygon fill="none" stroke="#000000" points="224.5,-289.7 224.5,-311.7 393.5,-311.7 393.5,-289.7 224.5,-289.7"/>
<image xlink:href="../../images/foreignKeys.png" width="11px" height="12px" preserveAspectRatio="xMinYMin meet" x="229.5" y="-306.7"/>
<text text-anchor="start" x="244.5" y="-296.8" font-family="Helvetica,sans-Serif" font-size="11.00" fill="#000000">specimen_location</text>
<polygon fill="#ffffff" stroke="transparent" points="224.5,-267.7 224.5,-289.7 393.5,-289.7 393.5,-267.7 224.5,-267.7"/>
<polygon fill="none" stroke="#000000" points="224.5,-267.7 224.5,-289.7 393.5,-289.7 393.5,-267.7 224.5,-267.7"/>
<text text-anchor="start" x="244.5" y="-274.8" font-family="Helvetica,sans-Serif" font-size="11.00" fill="#000000">uuid</text>
<polygon fill="none" stroke="#000000" points="224.5,-245.7 224.5,-267.7 393.5,-267.7 393.5,-245.7 224.5,-245.7"/>
<image xlink:href="../../images/foreignKeys.png" width="11px" height="12px" preserveAspectRatio="xMinYMin meet" x="229.5" y="-262.7"/>
<text text-anchor="start" x="244.5" y="-252.8" font-family="Helvetica,sans-Serif" font-size="11.00" fill="#000000">billing_type</text>
<polygon fill="none" stroke="#000000" points="224.5,-223.7 224.5,-245.7 393.5,-245.7 393.5,-223.7 224.5,-223.7"/>
<image xlink:href="../../images/foreignKeys.png" width="11px" height="12px" preserveAspectRatio="xMinYMin meet" x="229.5" y="-240.7"/>
<text text-anchor="start" x="244.5" y="-230.8" font-family="Helvetica,sans-Serif" font-size="11.00" fill="#000000">collector_id</text>
<polygon fill="none" stroke="#000000" points="224.5,-201.7 224.5,-223.7 393.5,-223.7 393.5,-201.7 224.5,-201.7"/>
<image xlink:href="../../images/foreignKeys.png" width="11px" height="12px" preserveAspectRatio="xMinYMin meet" x="229.5" y="-218.7"/>
<text text-anchor="start" x="244.5" y="-208.8" font-family="Helvetica,sans-Serif" font-size="11.00" fill="#000000">account_facility</text>
<polygon fill="none" stroke="#000000" points="224.5,-179.7 224.5,-201.7 393.5,-201.7 393.5,-179.7 224.5,-179.7"/>
<image xlink:href="../../images/foreignKeys.png" width="11px" height="12px" preserveAspectRatio="xMinYMin meet" x="229.5" y="-196.7"/>
<text text-anchor="start" x="244.5" y="-186.8" font-family="Helvetica,sans-Serif" font-size="11.00" fill="#000000">procedure_type</text>
<polygon fill="none" stroke="#000000" points="224.5,-157.7 224.5,-179.7 393.5,-179.7 393.5,-157.7 224.5,-157.7"/>
<image xlink:href="../../images/foreignKeys.png" width="11px" height="12px" preserveAspectRatio="xMinYMin meet" x="229.5" y="-174.7"/>
<text text-anchor="start" x="244.5" y="-164.8" font-family="Helvetica,sans-Serif" font-size="11.00" fill="#000000">procedure_order_type</text>
<polygon fill="none" stroke="#000000" points="224.5,-138.7 224.5,-157.7 393.5,-157.7 393.5,-138.7 224.5,-138.7"/>
<text text-anchor="start" x="227.5" y="-144.8" font-family="Helvetica,sans-Serif" font-size="11.00" fill="#000000">...</text>
<polygon fill="#ffffff" stroke="transparent" points="224.5,-119.7 224.5,-138.7 305.5,-138.7 305.5,-119.7 224.5,-119.7"/>
<polygon fill="none" stroke="#000000" points="224.5,-119.7 224.5,-138.7 305.5,-138.7 305.5,-119.7 224.5,-119.7"/>
<text text-anchor="start" x="227.5" y="-125.8" font-family="Helvetica,sans-Serif" font-size="11.00" fill="#000000">&lt; 13</text>
<polygon fill="#ffffff" stroke="transparent" points="305.5,-119.7 305.5,-138.7 344.5,-138.7 344.5,-119.7 305.5,-119.7"/>
<polygon fill="none" stroke="#000000" points="305.5,-119.7 305.5,-138.7 344.5,-138.7 344.5,-119.7 305.5,-119.7"/>
<text text-anchor="start" x="335.3862" y="-125.8" font-family="Helvetica,sans-Serif" font-size="11.00" fill="#000000"> &#160;</text>
<polygon fill="#ffffff" stroke="transparent" points="344.5,-119.7 344.5,-138.7 393.5,-138.7 393.5,-119.7 344.5,-119.7"/>
<polygon fill="none" stroke="#000000" points="344.5,-119.7 344.5,-138.7 393.5,-138.7 393.5,-119.7 344.5,-119.7"/>
<text text-anchor="start" x="374.9053" y="-125.8" font-family="Helvetica,sans-Serif" font-size="11.00" fill="#000000">3 &gt;</text>
</a>
</g>
</g>
<!-- list_options -->
<g id="node2" class="node">
<title>list_options</title>
<g id="a_node2"><a xlink:href="../../tables/list_options.html" xlink:title="list_options" target="_top">
<polygon fill="#ffffff" stroke="transparent" points="25.5,-274.2 25.5,-379.2 157.5,-379.2 157.5,-274.2 25.5,-274.2"/>
<polygon fill="#f5f5f5" stroke="transparent" points="25.5,-355.7 25.5,-378.7 157.5,-378.7 157.5,-355.7 25.5,-355.7"/>
<polygon fill="none" stroke="#000000" points="25.5,-355.7 25.5,-378.7 157.5,-378.7 157.5,-355.7 25.5,-355.7"/>
<text text-anchor="start" x="30.5" y="-364.3" font-family="Helvetica,sans-Serif" font-weight="bold" font-size="11.00" fill="#000000">list_options</text>
<text text-anchor="start" x="122.5437" y="-363.8" font-family="Helvetica,sans-Serif" font-size="11.00" fill="#000000">[table]</text>
<polygon fill="none" stroke="#000000" points="25.5,-333.7 25.5,-355.7 157.5,-355.7 157.5,-333.7 25.5,-333.7"/>
<image xlink:href="../../images/primaryKeys.png" width="11px" height="12px" preserveAspectRatio="xMinYMin meet" x="30.5" y="-350.7"/>
<text text-anchor="start" x="45.5" y="-340.8" font-family="Helvetica,sans-Serif" font-size="11.00" fill="#000000">list_id</text>
<polygon fill="none" stroke="#000000" points="25.5,-311.7 25.5,-333.7 157.5,-333.7 157.5,-311.7 25.5,-311.7"/>
<image xlink:href="../../images/primaryKeys.png" width="11px" height="12px" preserveAspectRatio="xMinYMin meet" x="30.5" y="-328.7"/>
<text text-anchor="start" x="45.5" y="-318.8" font-family="Helvetica,sans-Serif" font-size="11.00" fill="#000000">option_id</text>
<polygon fill="none" stroke="#000000" points="25.5,-292.7 25.5,-311.7 157.5,-311.7 157.5,-292.7 25.5,-292.7"/>
<text text-anchor="start" x="28.5" y="-298.8" font-family="Helvetica,sans-Serif" font-size="11.00" fill="#000000">...</text>
<polygon fill="#ffffff" stroke="transparent" points="25.5,-273.7 25.5,-292.7 77.5,-292.7 77.5,-273.7 25.5,-273.7"/>
<polygon fill="none" stroke="#000000" points="25.5,-273.7 25.5,-292.7 77.5,-292.7 77.5,-273.7 25.5,-273.7"/>
<text text-anchor="start" x="28.5" y="-279.8" font-family="Helvetica,sans-Serif" font-size="11.00" fill="#000000"> &#160;</text>
<polygon fill="#ffffff" stroke="transparent" points="77.5,-273.7 77.5,-292.7 109.5,-292.7 109.5,-273.7 77.5,-273.7"/>
<polygon fill="none" stroke="#000000" points="77.5,-273.7 77.5,-292.7 109.5,-292.7 109.5,-273.7 77.5,-273.7"/>
<text text-anchor="start" x="100.3862" y="-279.8" font-family="Helvetica,sans-Serif" font-size="11.00" fill="#000000"> &#160;</text>
<polygon fill="#ffffff" stroke="transparent" points="109.5,-273.7 109.5,-292.7 157.5,-292.7 157.5,-273.7 109.5,-273.7"/>
<polygon fill="none" stroke="#000000" points="109.5,-273.7 109.5,-292.7 157.5,-292.7 157.5,-273.7 109.5,-273.7"/>
<text text-anchor="start" x="132.7904" y="-279.8" font-family="Helvetica,sans-Serif" font-size="11.00" fill="#000000">46 &gt;</text>
</a>
</g>
</g>
<!-- procedure_order&#45;&gt;list_options -->
<g id="edge1" class="edge">
<title>procedure_order:w&#45;&gt;list_options:e</title>
<path fill="none" stroke="#000000" d="M210.3321,-260.0637C186.1479,-273.5132 193.5843,-322.7 157.5,-322.7"/>
<polygon fill="#000000" stroke="#000000" points="216.7164,-258.548 225.3316,-260.2026 220.6082,-257.624 224.5,-256.7 224.5,-256.7 224.5,-256.7 220.6082,-257.624 223.6684,-253.1974 216.7164,-258.548 216.7164,-258.548"/>
<ellipse fill="none" stroke="#000000" cx="213.6029" cy="-259.2872" rx="3.2" ry="3.2"/>
</g>
<!-- procedure_order&#45;&gt;list_options -->
<g id="edge3" class="edge">
<title>procedure_order:w&#45;&gt;list_options:e</title>
<path fill="none" stroke="#000000" d="M210.3321,-385.3363C186.1479,-371.8868 193.5843,-322.7 157.5,-322.7"/>
<polygon fill="#000000" stroke="#000000" points="216.7164,-386.852 223.6684,-392.2026 220.6082,-387.776 224.5,-388.7 224.5,-388.7 224.5,-388.7 220.6082,-387.776 225.3316,-385.1974 216.7164,-386.852 216.7164,-386.852"/>
<ellipse fill="none" stroke="#000000" cx="213.6029" cy="-386.1128" rx="3.2" ry="3.2"/>
</g>
<!-- procedure_order&#45;&gt;list_options -->
<g id="edge4" class="edge">
<title>procedure_order:w&#45;&gt;list_options:e</title>
<path fill="none" stroke="#000000" d="M210.1241,-363.6757C189.2136,-353.7349 187.4194,-322.7 157.5,-322.7"/>
<polygon fill="#000000" stroke="#000000" points="216.6714,-365.053 223.7589,-370.2229 220.5857,-365.8765 224.5,-366.7 224.5,-366.7 224.5,-366.7 220.5857,-365.8765 225.2411,-363.1771 216.6714,-365.053 216.6714,-365.053"/>
<ellipse fill="none" stroke="#000000" cx="213.5399" cy="-364.3942" rx="3.2" ry="3.2"/>
</g>
<!-- procedure_order&#45;&gt;list_options -->
<g id="edge5" class="edge">
<title>procedure_order:w&#45;&gt;list_options:e</title>
<path fill="none" stroke="#000000" d="M210.036,-171.2445C161.4833,-191.2674 226.4559,-322.7 157.5,-322.7"/>
<polygon fill="#000000" stroke="#000000" points="216.621,-170.0861 225.1237,-172.2456 220.5605,-169.3931 224.5,-168.7 224.5,-168.7 224.5,-168.7 220.5605,-169.3931 223.8763,-165.1544 216.621,-170.0861 216.621,-170.0861"/>
<ellipse fill="none" stroke="#000000" cx="213.4694" cy="-170.6405" rx="3.2" ry="3.2"/>
</g>
<!-- procedure_order&#45;&gt;list_options -->
<g id="edge6" class="edge">
<title>procedure_order:w&#45;&gt;list_options:e</title>
<path fill="none" stroke="#000000" d="M210.2612,-193.457C168.846,-212.4126 217.6374,-322.7 157.5,-322.7"/>
<polygon fill="#000000" stroke="#000000" points="216.6459,-192.2208 225.1844,-194.2344 220.5729,-191.4604 224.5,-190.7 224.5,-190.7 224.5,-190.7 220.5729,-191.4604 223.8156,-187.1656 216.6459,-192.2208 216.6459,-192.2208"/>
<ellipse fill="none" stroke="#000000" cx="213.5042" cy="-192.8291" rx="3.2" ry="3.2"/>
</g>
<!-- procedure_order&#45;&gt;list_options -->
<g id="edge8" class="edge">
<title>procedure_order:w&#45;&gt;list_options:e</title>
<path fill="none" stroke="#000000" d="M210.1836,-302.5004C190.8056,-307.7546 183.3327,-322.7 157.5,-322.7"/>
<polygon fill="#000000" stroke="#000000" points="216.5625,-301.6982 224.9492,-304.2719 220.5313,-301.1991 224.5,-300.7 224.5,-300.7 224.5,-300.7 220.5313,-301.1991 224.0508,-297.1281 216.5625,-301.6982 216.5625,-301.6982"/>
<ellipse fill="none" stroke="#000000" cx="213.3875" cy="-302.0975" rx="3.2" ry="3.2"/>
</g>
<!-- procedure_order&#45;&gt;list_options -->
<g id="edge9" class="edge">
<title>procedure_order:w&#45;&gt;list_options:e</title>
<path fill="none" stroke="#000000" d="M210.0809,-322.7C191.2359,-322.7 181.8108,-322.7 157.5,-322.7"/>
<polygon fill="#000000" stroke="#000000" points="216.5,-322.7001 224.5,-326.3 220.5,-322.7 224.5,-322.7 224.5,-322.7 224.5,-322.7 220.5,-322.7 224.5,-319.1 216.5,-322.7001 216.5,-322.7001"/>
<ellipse fill="none" stroke="#000000" cx="213.3" cy="-322.7001" rx="3.2" ry="3.2"/>
</g>
<!-- users -->
<g id="node3" class="node">
<title>users</title>
<g id="a_node3"><a xlink:href="../../tables/users.html" xlink:title="users" target="_top">
<polygon fill="#ffffff" stroke="transparent" points="8,-38.2 8,-253.2 175,-253.2 175,-38.2 8,-38.2"/>
<polygon fill="#f5f5f5" stroke="transparent" points="8.5,-229.7 8.5,-252.7 175.5,-252.7 175.5,-229.7 8.5,-229.7"/>
<polygon fill="none" stroke="#000000" points="8.5,-229.7 8.5,-252.7 175.5,-252.7 175.5,-229.7 8.5,-229.7"/>
<text text-anchor="start" x="13.5" y="-238.3" font-family="Helvetica,sans-Serif" font-weight="bold" font-size="11.00" fill="#000000">users</text>
<text text-anchor="start" x="140.5437" y="-237.8" font-family="Helvetica,sans-Serif" font-size="11.00" fill="#000000">[table]</text>
<polygon fill="none" stroke="#000000" points="8.5,-207.7 8.5,-229.7 175.5,-229.7 175.5,-207.7 8.5,-207.7"/>
<image xlink:href="../../images/primaryKeys.png" width="11px" height="12px" preserveAspectRatio="xMinYMin meet" x="13.5" y="-224.7"/>
<text text-anchor="start" x="28.5" y="-214.8" font-family="Helvetica,sans-Serif" font-size="11.00" fill="#000000">id</text>
<polygon fill="none" stroke="#000000" points="8.5,-185.7 8.5,-207.7 175.5,-207.7 175.5,-185.7 8.5,-185.7"/>
<image xlink:href="../../images/primaryKeys.png" width="11px" height="12px" preserveAspectRatio="xMinYMin meet" x="13.5" y="-202.7"/>
<text text-anchor="start" x="28.5" y="-192.8" font-family="Helvetica,sans-Serif" font-size="11.00" fill="#000000">username</text>
<polygon fill="none" stroke="#000000" points="8.5,-163.7 8.5,-185.7 175.5,-185.7 175.5,-163.7 8.5,-163.7"/>
<image xlink:href="../../images/foreignKeys.png" width="11px" height="12px" preserveAspectRatio="xMinYMin meet" x="13.5" y="-180.7"/>
<text text-anchor="start" x="28.5" y="-170.8" font-family="Helvetica,sans-Serif" font-size="11.00" fill="#000000">facility_id</text>
<polygon fill="#ffffff" stroke="transparent" points="8.5,-141.7 8.5,-163.7 175.5,-163.7 175.5,-141.7 8.5,-141.7"/>
<polygon fill="none" stroke="#000000" points="8.5,-141.7 8.5,-163.7 175.5,-163.7 175.5,-141.7 8.5,-141.7"/>
<text text-anchor="start" x="28.5" y="-148.8" font-family="Helvetica,sans-Serif" font-size="11.00" fill="#000000">abook_type</text>
<polygon fill="#ffffff" stroke="transparent" points="8.5,-119.7 8.5,-141.7 175.5,-141.7 175.5,-119.7 8.5,-119.7"/>
<polygon fill="none" stroke="#000000" points="8.5,-119.7 8.5,-141.7 175.5,-141.7 175.5,-119.7 8.5,-119.7"/>
<text text-anchor="start" x="28.5" y="-126.8" font-family="Helvetica,sans-Serif" font-size="11.00" fill="#000000">uuid</text>
<polygon fill="#ffffff" stroke="transparent" points="8.5,-97.7 8.5,-119.7 175.5,-119.7 175.5,-97.7 8.5,-97.7"/>
<polygon fill="none" stroke="#000000" points="8.5,-97.7 8.5,-119.7 175.5,-119.7 175.5,-97.7 8.5,-97.7"/>
<text text-anchor="start" x="28.5" y="-104.8" font-family="Helvetica,sans-Serif" font-size="11.00" fill="#000000">google_signin_email</text>
<polygon fill="none" stroke="#000000" points="8.5,-75.7 8.5,-97.7 175.5,-97.7 175.5,-75.7 8.5,-75.7"/>
<image xlink:href="../../images/foreignKeys.png" width="11px" height="12px" preserveAspectRatio="xMinYMin meet" x="13.5" y="-92.7"/>
<text text-anchor="start" x="28.5" y="-82.8" font-family="Helvetica,sans-Serif" font-size="11.00" fill="#000000">billing_facility_id</text>
<polygon fill="none" stroke="#000000" points="8.5,-56.7 8.5,-75.7 175.5,-75.7 175.5,-56.7 8.5,-56.7"/>
<text text-anchor="start" x="11.5" y="-62.8" font-family="Helvetica,sans-Serif" font-size="11.00" fill="#000000">...</text>
<polygon fill="#ffffff" stroke="transparent" points="8.5,-37.7 8.5,-56.7 82.5,-56.7 82.5,-37.7 8.5,-37.7"/>
<polygon fill="none" stroke="#000000" points="8.5,-37.7 8.5,-56.7 82.5,-56.7 82.5,-37.7 8.5,-37.7"/>
<text text-anchor="start" x="11.5" y="-43.8" font-family="Helvetica,sans-Serif" font-size="11.00" fill="#000000">&lt; 2</text>
<polygon fill="#ffffff" stroke="transparent" points="82.5,-37.7 82.5,-56.7 121.5,-56.7 121.5,-37.7 82.5,-37.7"/>
<polygon fill="none" stroke="#000000" points="82.5,-37.7 82.5,-56.7 121.5,-56.7 121.5,-37.7 82.5,-37.7"/>
<text text-anchor="start" x="112.3862" y="-43.8" font-family="Helvetica,sans-Serif" font-size="11.00" fill="#000000"> &#160;</text>
<polygon fill="#ffffff" stroke="transparent" points="121.5,-37.7 121.5,-56.7 175.5,-56.7 175.5,-37.7 121.5,-37.7"/>
<polygon fill="none" stroke="#000000" points="121.5,-37.7 121.5,-56.7 175.5,-56.7 175.5,-37.7 121.5,-37.7"/>
<text text-anchor="start" x="150.7904" y="-43.8" font-family="Helvetica,sans-Serif" font-size="11.00" fill="#000000">61 &gt;</text>
</a>
</g>
</g>
<!-- procedure_order&#45;&gt;users -->
<g id="edge2" class="edge">
<title>procedure_order:w&#45;&gt;users:e</title>
<path fill="none" stroke="#000000" d="M210.0387,-232.0579C198.639,-227.5135 192.5031,-218.7 175.5,-218.7"/>
<polygon fill="#000000" stroke="#000000" points="216.6303,-233.2622 223.853,-238.2414 220.5651,-233.9811 224.5,-234.7 224.5,-234.7 224.5,-234.7 220.5651,-233.9811 225.147,-231.1586 216.6303,-233.2622 216.6303,-233.2622"/>
<ellipse fill="none" stroke="#000000" cx="213.4824" cy="-232.687" rx="3.2" ry="3.2"/>
</g>
<!-- procedure_order&#45;&gt;users -->
<g id="edge7" class="edge">
<title>procedure_order:w&#45;&gt;users:e</title>
<path fill="none" stroke="#000000" d="M210.0098,-475.0525C124.4125,-453.0794 286.7453,-218.7 175.5,-218.7"/>
<polygon fill="#000000" stroke="#000000" points="216.5512,-475.7962 224.0933,-480.277 220.5256,-476.2481 224.5,-476.7 224.5,-476.7 224.5,-476.7 220.5256,-476.2481 224.9067,-473.123 216.5512,-475.7962 216.5512,-475.7962"/>
<ellipse fill="none" stroke="#000000" cx="213.3717" cy="-475.4346" rx="3.2" ry="3.2"/>
</g>
<!-- procedure_report -->
<g id="node4" class="node">
<title>procedure_report</title>
<g id="a_node4"><a xlink:href="../../tables/procedure_report.html" xlink:title="procedure_report" target="_top">
<polygon fill="#ffffff" stroke="transparent" points="442,-246.7 442,-578.7 725,-578.7 725,-246.7 442,-246.7"/>
<polygon fill="#f5f5f5" stroke="transparent" points="444.5,-553.7 444.5,-576.7 723.5,-576.7 723.5,-553.7 444.5,-553.7"/>
<polygon fill="none" stroke="#000000" points="444.5,-553.7 444.5,-576.7 723.5,-576.7 723.5,-553.7 444.5,-553.7"/>
<text text-anchor="start" x="449.5" y="-562.3" font-family="Helvetica,sans-Serif" font-weight="bold" font-size="11.00" fill="#000000">procedure_report</text>
<text text-anchor="start" x="688.5437" y="-561.8" font-family="Helvetica,sans-Serif" font-size="11.00" fill="#000000">[table]</text>
<polygon fill="none" stroke="#000000" points="444.5,-531.7 444.5,-553.7 606.5,-553.7 606.5,-531.7 444.5,-531.7"/>
<image xlink:href="../../images/primaryKeys.png" width="11px" height="12px" preserveAspectRatio="xMinYMin meet" x="449.5" y="-548.7"/>
<text text-anchor="start" x="464.5" y="-538.8" font-family="Helvetica,sans-Serif" font-size="11.00" fill="#000000">procedure_report_id</text>
<polygon fill="none" stroke="#000000" points="606.5,-531.7 606.5,-553.7 723.5,-553.7 723.5,-531.7 606.5,-531.7"/>
<text text-anchor="start" x="609.5" y="-539.4" font-family="Helvetica,sans-Serif" font-size="11.00" fill="#000000">bigint[19]</text>
<polygon fill="#ffffff" stroke="transparent" points="444.5,-509.7 444.5,-531.7 606.5,-531.7 606.5,-509.7 444.5,-509.7"/>
<polygon fill="none" stroke="#000000" points="444.5,-509.7 444.5,-531.7 606.5,-531.7 606.5,-509.7 444.5,-509.7"/>
<text text-anchor="start" x="464.5" y="-516.8" font-family="Helvetica,sans-Serif" font-size="11.00" fill="#000000">uuid</text>
<polygon fill="none" stroke="#000000" points="606.5,-509.7 606.5,-531.7 723.5,-531.7 723.5,-509.7 606.5,-509.7"/>
<text text-anchor="start" x="609.5" y="-517.4" font-family="Helvetica,sans-Serif" font-size="11.00" fill="#000000">binary[16]</text>
<polygon fill="#ffffff" stroke="transparent" points="444.5,-487.7 444.5,-509.7 606.5,-509.7 606.5,-487.7 444.5,-487.7"/>
<polygon fill="none" stroke="#000000" points="444.5,-487.7 444.5,-509.7 606.5,-509.7 606.5,-487.7 444.5,-487.7"/>
<image xlink:href="../../images/foreignKeys.png" width="11px" height="12px" preserveAspectRatio="xMinYMin meet" x="449.5" y="-504.7"/>
<text text-anchor="start" x="464.5" y="-494.8" font-family="Helvetica,sans-Serif" font-size="11.00" fill="#000000">procedure_order_id</text>
<polygon fill="none" stroke="#000000" points="606.5,-487.7 606.5,-509.7 723.5,-509.7 723.5,-487.7 606.5,-487.7"/>
<text text-anchor="start" x="609.5" y="-495.4" font-family="Helvetica,sans-Serif" font-size="11.00" fill="#000000">bigint[19]</text>
<polygon fill="none" stroke="#000000" points="444.5,-465.7 444.5,-487.7 606.5,-487.7 606.5,-465.7 444.5,-465.7"/>
<text text-anchor="start" x="464.5" y="-472.8" font-family="Helvetica,sans-Serif" font-size="11.00" fill="#000000">procedure_order_seq</text>
<polygon fill="none" stroke="#000000" points="606.5,-465.7 606.5,-487.7 723.5,-487.7 723.5,-465.7 606.5,-465.7"/>
<text text-anchor="start" x="609.5" y="-473.4" font-family="Helvetica,sans-Serif" font-size="11.00" fill="#000000">int[10]</text>
<polygon fill="none" stroke="#000000" points="444.5,-443.7 444.5,-465.7 606.5,-465.7 606.5,-443.7 444.5,-443.7"/>
<text text-anchor="start" x="464.5" y="-450.8" font-family="Helvetica,sans-Serif" font-size="11.00" fill="#000000">date_collected</text>
<polygon fill="none" stroke="#000000" points="606.5,-443.7 606.5,-465.7 723.5,-465.7 723.5,-443.7 606.5,-443.7"/>
<text text-anchor="start" x="609.5" y="-451.4" font-family="Helvetica,sans-Serif" font-size="11.00" fill="#000000">datetime[19]</text>
<polygon fill="none" stroke="#000000" points="444.5,-421.7 444.5,-443.7 606.5,-443.7 606.5,-421.7 444.5,-421.7"/>
<text text-anchor="start" x="464.5" y="-428.8" font-family="Helvetica,sans-Serif" font-size="11.00" fill="#000000">date_report</text>
<polygon fill="none" stroke="#000000" points="606.5,-421.7 606.5,-443.7 723.5,-443.7 723.5,-421.7 606.5,-421.7"/>
<text text-anchor="start" x="609.5" y="-429.4" font-family="Helvetica,sans-Serif" font-size="11.00" fill="#000000">datetime[19]</text>
<polygon fill="none" stroke="#000000" points="444.5,-399.7 444.5,-421.7 606.5,-421.7 606.5,-399.7 444.5,-399.7"/>
<image xlink:href="../../images/foreignKeys.png" width="11px" height="12px" preserveAspectRatio="xMinYMin meet" x="449.5" y="-416.7"/>
<text text-anchor="start" x="464.5" y="-406.8" font-family="Helvetica,sans-Serif" font-size="11.00" fill="#000000">source</text>
<polygon fill="none" stroke="#000000" points="606.5,-399.7 606.5,-421.7 723.5,-421.7 723.5,-399.7 606.5,-399.7"/>
<text text-anchor="start" x="609.5" y="-407.4" font-family="Helvetica,sans-Serif" font-size="11.00" fill="#000000">bigint[19]</text>
<polygon fill="none" stroke="#000000" points="444.5,-377.7 444.5,-399.7 606.5,-399.7 606.5,-377.7 444.5,-377.7"/>
<text text-anchor="start" x="464.5" y="-384.8" font-family="Helvetica,sans-Serif" font-size="11.00" fill="#000000">specimen_num</text>
<polygon fill="none" stroke="#000000" points="606.5,-377.7 606.5,-399.7 723.5,-399.7 723.5,-377.7 606.5,-377.7"/>
<text text-anchor="start" x="609.5" y="-385.4" font-family="Helvetica,sans-Serif" font-size="11.00" fill="#000000">varchar[63]</text>
<polygon fill="none" stroke="#000000" points="444.5,-355.7 444.5,-377.7 606.5,-377.7 606.5,-355.7 444.5,-355.7"/>
<image xlink:href="../../images/foreignKeys.png" width="11px" height="12px" preserveAspectRatio="xMinYMin meet" x="449.5" y="-372.7"/>
<text text-anchor="start" x="464.5" y="-362.8" font-family="Helvetica,sans-Serif" font-size="11.00" fill="#000000">report_status</text>
<polygon fill="none" stroke="#000000" points="606.5,-355.7 606.5,-377.7 723.5,-377.7 723.5,-355.7 606.5,-355.7"/>
<text text-anchor="start" x="609.5" y="-363.4" font-family="Helvetica,sans-Serif" font-size="11.00" fill="#000000">varchar[31]</text>
<polygon fill="none" stroke="#000000" points="444.5,-333.7 444.5,-355.7 606.5,-355.7 606.5,-333.7 444.5,-333.7"/>
<text text-anchor="start" x="464.5" y="-340.8" font-family="Helvetica,sans-Serif" font-size="11.00" fill="#000000">review_status</text>
<polygon fill="none" stroke="#000000" points="606.5,-333.7 606.5,-355.7 723.5,-355.7 723.5,-333.7 606.5,-333.7"/>
<text text-anchor="start" x="609.5" y="-341.4" font-family="Helvetica,sans-Serif" font-size="11.00" fill="#000000">varchar[31]</text>
<polygon fill="none" stroke="#000000" points="444.5,-311.7 444.5,-333.7 606.5,-333.7 606.5,-311.7 444.5,-311.7"/>
<text text-anchor="start" x="464.5" y="-318.8" font-family="Helvetica,sans-Serif" font-size="11.00" fill="#000000">report_notes</text>
<polygon fill="none" stroke="#000000" points="606.5,-311.7 606.5,-333.7 723.5,-333.7 723.5,-311.7 606.5,-311.7"/>
<text text-anchor="start" x="609.0645" y="-319.4" font-family="Helvetica,sans-Serif" font-size="11.00" fill="#000000">mediumtext[16777215]</text>
<polygon fill="none" stroke="#000000" points="444.5,-289.7 444.5,-311.7 606.5,-311.7 606.5,-289.7 444.5,-289.7"/>
<text text-anchor="start" x="464.5" y="-296.8" font-family="Helvetica,sans-Serif" font-size="11.00" fill="#000000">date_collected_tz</text>
<polygon fill="none" stroke="#000000" points="606.5,-289.7 606.5,-311.7 723.5,-311.7 723.5,-289.7 606.5,-289.7"/>
<text text-anchor="start" x="609.5" y="-297.4" font-family="Helvetica,sans-Serif" font-size="11.00" fill="#000000">varchar[5]</text>
<polygon fill="none" stroke="#000000" points="444.5,-267.7 444.5,-289.7 606.5,-289.7 606.5,-267.7 444.5,-267.7"/>
<text text-anchor="start" x="464.5" y="-274.8" font-family="Helvetica,sans-Serif" font-size="11.00" fill="#000000">date_report_tz</text>
<polygon fill="none" stroke="#000000" points="606.5,-267.7 606.5,-289.7 723.5,-289.7 723.5,-267.7 606.5,-267.7"/>
<text text-anchor="start" x="609.5" y="-275.4" font-family="Helvetica,sans-Serif" font-size="11.00" fill="#000000">varchar[5]</text>
<polygon fill="#ffffff" stroke="transparent" points="444.5,-248.7 444.5,-267.7 529.5,-267.7 529.5,-248.7 444.5,-248.7"/>
<polygon fill="none" stroke="#000000" points="444.5,-248.7 444.5,-267.7 529.5,-267.7 529.5,-248.7 444.5,-248.7"/>
<text text-anchor="start" x="447.5" y="-254.8" font-family="Helvetica,sans-Serif" font-size="11.00" fill="#000000">&lt; 3</text>
<polygon fill="#ffffff" stroke="transparent" points="529.5,-248.7 529.5,-267.7 606.5,-267.7 606.5,-248.7 529.5,-248.7"/>
<polygon fill="none" stroke="#000000" points="529.5,-248.7 529.5,-267.7 606.5,-267.7 606.5,-248.7 529.5,-248.7"/>
<text text-anchor="start" x="597.3862" y="-254.8" font-family="Helvetica,sans-Serif" font-size="11.00" fill="#000000"> &#160;</text>
<polygon fill="#ffffff" stroke="transparent" points="606.5,-248.7 606.5,-267.7 723.5,-267.7 723.5,-248.7 606.5,-248.7"/>
<polygon fill="none" stroke="#000000" points="606.5,-248.7 606.5,-267.7 723.5,-267.7 723.5,-248.7 606.5,-248.7"/>
<text text-anchor="start" x="704.9053" y="-254.8" font-family="Helvetica,sans-Serif" font-size="11.00" fill="#000000">1 &gt;</text>
<polygon fill="none" stroke="#000000" stroke-width="2" points="443,-247.7 443,-577.7 724,-577.7 724,-247.7 443,-247.7"/>
</a>
</g>
</g>
<!-- procedure_report&#45;&gt;procedure_order -->
<g id="edge10" class="edge">
<title>procedure_report:w&#45;&gt;procedure_order:e</title>
<path fill="none" stroke="#000000" d="M429.776,-498.7C417.7815,-498.7 410.3229,-498.7 393.5,-498.7"/>
<polygon fill="#000000" stroke="#000000" points="436.5,-498.7001 444.5,-502.3 440.5,-498.7 444.5,-498.7 444.5,-498.7 444.5,-498.7 440.5,-498.7 444.5,-495.1 436.5,-498.7001 436.5,-498.7001"/>
<ellipse fill="none" stroke="#000000" cx="433.3" cy="-498.7001" rx="3.2" ry="3.2"/>
</g>
<!-- procedure_report&#45;&gt;list_options -->
<g id="edge11" class="edge">
<title>procedure_report:w&#45;&gt;list_options:e</title>
<path fill="none" stroke="#000000" d="M429.995,-368.513C376.9162,-384.1813 460.2685,-497.2339 401,-543.7 336.2931,-594.4298 281.1554,-593.8524 216,-543.7 135.485,-481.7247 259.1051,-322.7 157.5,-322.7"/>
<polygon fill="#000000" stroke="#000000" points="436.5618,-367.6922 444.9465,-370.2722 440.5309,-367.1961 444.5,-366.7 444.5,-366.7 444.5,-366.7 440.5309,-367.1961 444.0535,-363.1278 436.5618,-367.6922 436.5618,-367.6922"/>
<ellipse fill="none" stroke="#000000" cx="433.3865" cy="-368.0891" rx="3.2" ry="3.2"/>
</g>
<!-- procedure_report&#45;&gt;users -->
<g id="edge12" class="edge">
<title>procedure_report:w&#45;&gt;users:e</title>
<path fill="none" stroke="#000000" d="M430.8723,-406.0015C388.1465,-370.941 448.0011,-150.3968 401,-109.7 338.8411,-55.8784 283.5098,-62.7647 216,-109.7 173.567,-139.201 227.1804,-218.7 175.5,-218.7"/>
<polygon fill="#000000" stroke="#000000" points="436.9369,-408.0924 443.3266,-414.1034 440.7184,-409.3962 444.5,-410.7 444.5,-410.7 444.5,-410.7 440.7184,-409.3962 445.6734,-407.2966 436.9369,-408.0924 436.9369,-408.0924"/>
<ellipse fill="none" stroke="#000000" cx="433.9116" cy="-407.0494" rx="3.2" ry="3.2"/>
</g>
<!-- procedure_result -->
<g id="node5" class="node">
<title>procedure_result</title>
<g id="a_node5"><a xlink:href="../../tables/procedure_result.html" xlink:title="procedure_result" target="_top">
<polygon fill="#ffffff" stroke="transparent" points="774,-450.2 774,-599.2 931,-599.2 931,-450.2 774,-450.2"/>
<polygon fill="#f5f5f5" stroke="transparent" points="774.5,-575.7 774.5,-598.7 931.5,-598.7 931.5,-575.7 774.5,-575.7"/>
<polygon fill="none" stroke="#000000" points="774.5,-575.7 774.5,-598.7 931.5,-598.7 931.5,-575.7 774.5,-575.7"/>
<text text-anchor="start" x="779.5" y="-584.3" font-family="Helvetica,sans-Serif" font-weight="bold" font-size="11.00" fill="#000000">procedure_result</text>
<text text-anchor="start" x="896.5437" y="-583.8" font-family="Helvetica,sans-Serif" font-size="11.00" fill="#000000">[table]</text>
<polygon fill="none" stroke="#000000" points="774.5,-553.7 774.5,-575.7 931.5,-575.7 931.5,-553.7 774.5,-553.7"/>
<image xlink:href="../../images/primaryKeys.png" width="11px" height="12px" preserveAspectRatio="xMinYMin meet" x="779.5" y="-570.7"/>
<text text-anchor="start" x="794.5" y="-560.8" font-family="Helvetica,sans-Serif" font-size="11.00" fill="#000000">procedure_result_id</text>
<polygon fill="#ffffff" stroke="transparent" points="774.5,-531.7 774.5,-553.7 931.5,-553.7 931.5,-531.7 774.5,-531.7"/>
<polygon fill="none" stroke="#000000" points="774.5,-531.7 774.5,-553.7 931.5,-553.7 931.5,-531.7 774.5,-531.7"/>
<image xlink:href="../../images/foreignKeys.png" width="11px" height="12px" preserveAspectRatio="xMinYMin meet" x="779.5" y="-548.7"/>
<text text-anchor="start" x="794.5" y="-538.8" font-family="Helvetica,sans-Serif" font-size="11.00" fill="#000000">procedure_report_id</text>
<polygon fill="none" stroke="#000000" points="774.5,-509.7 774.5,-531.7 931.5,-531.7 931.5,-509.7 774.5,-509.7"/>
<image xlink:href="../../images/foreignKeys.png" width="11px" height="12px" preserveAspectRatio="xMinYMin meet" x="779.5" y="-526.7"/>
<text text-anchor="start" x="794.5" y="-516.8" font-family="Helvetica,sans-Serif" font-size="11.00" fill="#000000">document_id</text>
<polygon fill="#ffffff" stroke="transparent" points="774.5,-487.7 774.5,-509.7 931.5,-509.7 931.5,-487.7 774.5,-487.7"/>
<polygon fill="none" stroke="#000000" points="774.5,-487.7 774.5,-509.7 931.5,-509.7 931.5,-487.7 774.5,-487.7"/>
<text text-anchor="start" x="794.5" y="-494.8" font-family="Helvetica,sans-Serif" font-size="11.00" fill="#000000">uuid</text>
<polygon fill="none" stroke="#000000" points="774.5,-468.7 774.5,-487.7 931.5,-487.7 931.5,-468.7 774.5,-468.7"/>
<text text-anchor="start" x="777.5" y="-474.8" font-family="Helvetica,sans-Serif" font-size="11.00" fill="#000000">...</text>
<polygon fill="#ffffff" stroke="transparent" points="774.5,-449.7 774.5,-468.7 851.5,-468.7 851.5,-449.7 774.5,-449.7"/>
<polygon fill="none" stroke="#000000" points="774.5,-449.7 774.5,-468.7 851.5,-468.7 851.5,-449.7 774.5,-449.7"/>
<text text-anchor="start" x="777.5" y="-455.8" font-family="Helvetica,sans-Serif" font-size="11.00" fill="#000000">&lt; 2</text>
<polygon fill="#ffffff" stroke="transparent" points="851.5,-449.7 851.5,-468.7 891.5,-468.7 891.5,-449.7 851.5,-449.7"/>
<polygon fill="none" stroke="#000000" points="851.5,-449.7 851.5,-468.7 891.5,-468.7 891.5,-449.7 851.5,-449.7"/>
<text text-anchor="start" x="882.3862" y="-455.8" font-family="Helvetica,sans-Serif" font-size="11.00" fill="#000000"> &#160;</text>
<polygon fill="#ffffff" stroke="transparent" points="891.5,-449.7 891.5,-468.7 931.5,-468.7 931.5,-449.7 891.5,-449.7"/>
<polygon fill="none" stroke="#000000" points="891.5,-449.7 891.5,-468.7 931.5,-468.7 931.5,-449.7 891.5,-449.7"/>
<text text-anchor="start" x="922.3862" y="-455.8" font-family="Helvetica,sans-Serif" font-size="11.00" fill="#000000"> &#160;</text>
</a>
</g>
</g>
<!-- procedure_result&#45;&gt;procedure_report -->
<g id="edge13" class="edge">
<title>procedure_result:w&#45;&gt;procedure_report:e</title>
<path fill="none" stroke="#000000" d="M759.776,-542.7C747.7815,-542.7 740.3229,-542.7 723.5,-542.7"/>
<polygon fill="#000000" stroke="#000000" points="766.5,-542.7001 774.5,-546.3 770.5,-542.7 774.5,-542.7 774.5,-542.7 774.5,-542.7 770.5,-542.7 774.5,-539.1 766.5,-542.7001 766.5,-542.7001"/>
<ellipse fill="none" stroke="#000000" cx="763.3" cy="-542.7001" rx="3.2" ry="3.2"/>
</g>
</g>
</svg>
