<?xml version="1.0" encoding="UTF-8" standalone="no"?>
<!DOCTYPE svg PUBLIC "-//W3C//DTD SVG 1.1//EN"
 "http://www.w3.org/Graphics/SVG/1.1/DTD/svg11.dtd">
<!-- Generated by graphviz version 2.40.1 (20161225.0304)
 -->
<!-- Title: oneDegreeRelationshipsDiagram Pages: 1 -->
<svg width="831pt" height="681pt"
 viewBox="0.00 0.00 831.00 681.40" xmlns="http://www.w3.org/2000/svg" xmlns:xlink="http://www.w3.org/1999/xlink">
<g id="graph0" class="graph" transform="scale(1 1) rotate(0) translate(4 677.4034)">
<title>oneDegreeRelationshipsDiagram</title>
<polygon fill="#ffffff" stroke="transparent" points="-4,4 -4,-677.4034 827,-677.4034 827,4 -4,4"/>
<text text-anchor="middle" x="72.4936" y="-7.3" font-family="Helvetica,sans-Serif" font-size="11.00" fill="#000000">Generated by SchemaSpy</text>
<!-- procedure_order -->
<g id="node1" class="node">
<title>procedure_order</title>
<g id="a_node1"><a xlink:href="../../tables/procedure_order.html" xlink:title="procedure_order" target="_top">
<polygon fill="#ffffff" stroke="transparent" points="207,-80.4034 207,-581.4034 359,-581.4034 359,-80.4034 207,-80.4034"/>
<polygon fill="#f5f5f5" stroke="transparent" points="207,-557.9034 207,-580.9034 359,-580.9034 359,-557.9034 207,-557.9034"/>
<polygon fill="none" stroke="#000000" points="207,-557.9034 207,-580.9034 359,-580.9034 359,-557.9034 207,-557.9034"/>
<text text-anchor="start" x="212" y="-566.5034" font-family="Helvetica,sans-Serif" font-weight="bold" font-size="11.00" fill="#000000">procedure_order</text>
<text text-anchor="start" x="324.0437" y="-566.0034" font-family="Helvetica,sans-Serif" font-size="11.00" fill="#000000">[table]</text>
<polygon fill="none" stroke="#000000" points="207,-535.9034 207,-557.9034 359,-557.9034 359,-535.9034 207,-535.9034"/>
<image xlink:href="../../images/primaryKeys.png" width="11px" height="12px" preserveAspectRatio="xMinYMin meet" x="212" y="-552.903"/>
<text text-anchor="start" x="227" y="-543.0034" font-family="Helvetica,sans-Serif" font-size="11.00" fill="#000000">procedure_order_id</text>
<polygon fill="#ffffff" stroke="transparent" points="207,-513.9034 207,-535.9034 359,-535.9034 359,-513.9034 207,-513.9034"/>
<polygon fill="none" stroke="#000000" points="207,-513.9034 207,-535.9034 359,-535.9034 359,-513.9034 207,-513.9034"/>
<text text-anchor="start" x="227" y="-521.0034" font-family="Helvetica,sans-Serif" font-size="11.00" fill="#000000">uuid</text>
<polygon fill="none" stroke="#000000" points="207,-491.9034 207,-513.9034 359,-513.9034 359,-491.9034 207,-491.9034"/>
<image xlink:href="../../images/foreignKeys.png" width="11px" height="12px" preserveAspectRatio="xMinYMin meet" x="212" y="-508.903"/>
<text text-anchor="start" x="227" y="-499.0034" font-family="Helvetica,sans-Serif" font-size="11.00" fill="#000000">provider_id</text>
<polygon fill="#ffffff" stroke="transparent" points="207,-469.9034 207,-491.9034 359,-491.9034 359,-469.9034 207,-469.9034"/>
<polygon fill="none" stroke="#000000" points="207,-469.9034 207,-491.9034 359,-491.9034 359,-469.9034 207,-469.9034"/>
<image xlink:href="../../images/foreignKeys.png" width="11px" height="12px" preserveAspectRatio="xMinYMin meet" x="212" y="-486.903"/>
<text text-anchor="start" x="227" y="-477.0034" font-family="Helvetica,sans-Serif" font-size="11.00" fill="#000000">patient_id</text>
<polygon fill="none" stroke="#000000" points="207,-447.9034 207,-469.9034 359,-469.9034 359,-447.9034 207,-447.9034"/>
<image xlink:href="../../images/foreignKeys.png" width="11px" height="12px" preserveAspectRatio="xMinYMin meet" x="212" y="-464.903"/>
<text text-anchor="start" x="227" y="-455.0034" font-family="Helvetica,sans-Serif" font-size="11.00" fill="#000000">encounter_id</text>
<polygon fill="#ffffff" stroke="transparent" points="207,-425.9034 207,-447.9034 359,-447.9034 359,-425.9034 207,-425.9034"/>
<polygon fill="none" stroke="#000000" points="207,-425.9034 207,-447.9034 359,-447.9034 359,-425.9034 207,-425.9034"/>
<text text-anchor="start" x="227" y="-433.0034" font-family="Helvetica,sans-Serif" font-size="11.00" fill="#000000">date_ordered</text>
<polygon fill="none" stroke="#000000" points="207,-403.9034 207,-425.9034 359,-425.9034 359,-403.9034 207,-403.9034"/>
<image xlink:href="../../images/foreignKeys.png" width="11px" height="12px" preserveAspectRatio="xMinYMin meet" x="212" y="-420.903"/>
<text text-anchor="start" x="227" y="-411.0034" font-family="Helvetica,sans-Serif" font-size="11.00" fill="#000000">order_priority</text>
<polygon fill="none" stroke="#000000" points="207,-381.9034 207,-403.9034 359,-403.9034 359,-381.9034 207,-381.9034"/>
<image xlink:href="../../images/foreignKeys.png" width="11px" height="12px" preserveAspectRatio="xMinYMin meet" x="212" y="-398.903"/>
<text text-anchor="start" x="227" y="-389.0034" font-family="Helvetica,sans-Serif" font-size="11.00" fill="#000000">order_status</text>
<polygon fill="none" stroke="#000000" points="207,-359.9034 207,-381.9034 359,-381.9034 359,-359.9034 207,-359.9034"/>
<image xlink:href="../../images/foreignKeys.png" width="11px" height="12px" preserveAspectRatio="xMinYMin meet" x="212" y="-376.903"/>
<text text-anchor="start" x="227" y="-367.0034" font-family="Helvetica,sans-Serif" font-size="11.00" fill="#000000">lab_id</text>
<polygon fill="none" stroke="#000000" points="207,-337.9034 207,-359.9034 359,-359.9034 359,-337.9034 207,-337.9034"/>
<image xlink:href="../../images/foreignKeys.png" width="11px" height="12px" preserveAspectRatio="xMinYMin meet" x="212" y="-354.903"/>
<text text-anchor="start" x="227" y="-345.0034" font-family="Helvetica,sans-Serif" font-size="11.00" fill="#000000">specimen_type</text>
<polygon fill="none" stroke="#000000" points="207,-315.9034 207,-337.9034 359,-337.9034 359,-315.9034 207,-315.9034"/>
<image xlink:href="../../images/foreignKeys.png" width="11px" height="12px" preserveAspectRatio="xMinYMin meet" x="212" y="-332.903"/>
<text text-anchor="start" x="227" y="-323.0034" font-family="Helvetica,sans-Serif" font-size="11.00" fill="#000000">specimen_location</text>
<polygon fill="none" stroke="#000000" points="207,-293.9034 207,-315.9034 359,-315.9034 359,-293.9034 207,-293.9034"/>
<image xlink:href="../../images/foreignKeys.png" width="11px" height="12px" preserveAspectRatio="xMinYMin meet" x="212" y="-310.903"/>
<text text-anchor="start" x="227" y="-301.0034" font-family="Helvetica,sans-Serif" font-size="11.00" fill="#000000">billing_type</text>
<polygon fill="none" stroke="#000000" points="207,-271.9034 207,-293.9034 359,-293.9034 359,-271.9034 207,-271.9034"/>
<image xlink:href="../../images/foreignKeys.png" width="11px" height="12px" preserveAspectRatio="xMinYMin meet" x="212" y="-288.903"/>
<text text-anchor="start" x="227" y="-279.0034" font-family="Helvetica,sans-Serif" font-size="11.00" fill="#000000">procedure_type</text>
<polygon fill="none" stroke="#000000" points="207,-249.9034 207,-271.9034 359,-271.9034 359,-249.9034 207,-249.9034"/>
<image xlink:href="../../images/foreignKeys.png" width="11px" height="12px" preserveAspectRatio="xMinYMin meet" x="212" y="-266.903"/>
<text text-anchor="start" x="227" y="-257.0034" font-family="Helvetica,sans-Serif" font-size="11.00" fill="#000000">collector_id</text>
<polygon fill="none" stroke="#000000" points="207,-227.9034 207,-249.9034 359,-249.9034 359,-227.9034 207,-227.9034"/>
<image xlink:href="../../images/foreignKeys.png" width="11px" height="12px" preserveAspectRatio="xMinYMin meet" x="212" y="-244.903"/>
<text text-anchor="start" x="227" y="-235.0034" font-family="Helvetica,sans-Serif" font-size="11.00" fill="#000000">account_facility</text>
<polygon fill="none" stroke="#000000" points="207,-205.9034 207,-227.9034 359,-227.9034 359,-205.9034 207,-205.9034"/>
<image xlink:href="../../images/foreignKeys.png" width="11px" height="12px" preserveAspectRatio="xMinYMin meet" x="212" y="-222.903"/>
<text text-anchor="start" x="227" y="-213.0034" font-family="Helvetica,sans-Serif" font-size="11.00" fill="#000000">procedure_order_type</text>
<polygon fill="#ffffff" stroke="transparent" points="207,-183.9034 207,-205.9034 359,-205.9034 359,-183.9034 207,-183.9034"/>
<polygon fill="none" stroke="#000000" points="207,-183.9034 207,-205.9034 359,-205.9034 359,-183.9034 207,-183.9034"/>
<text text-anchor="start" x="227" y="-191.0034" font-family="Helvetica,sans-Serif" font-size="11.00" fill="#000000">scheduled_date</text>
<polygon fill="none" stroke="#000000" points="207,-161.9034 207,-183.9034 359,-183.9034 359,-161.9034 207,-161.9034"/>
<image xlink:href="../../images/foreignKeys.png" width="11px" height="12px" preserveAspectRatio="xMinYMin meet" x="212" y="-178.903"/>
<text text-anchor="start" x="227" y="-169.0034" font-family="Helvetica,sans-Serif" font-size="11.00" fill="#000000">performer_type</text>
<polygon fill="#ffffff" stroke="transparent" points="207,-139.9034 207,-161.9034 359,-161.9034 359,-139.9034 207,-139.9034"/>
<polygon fill="none" stroke="#000000" points="207,-139.9034 207,-161.9034 359,-161.9034 359,-139.9034 207,-139.9034"/>
<image xlink:href="../../images/foreignKeys.png" width="11px" height="12px" preserveAspectRatio="xMinYMin meet" x="212" y="-156.903"/>
<text text-anchor="start" x="227" y="-147.0034" font-family="Helvetica,sans-Serif" font-size="11.00" fill="#000000">order_intent</text>
<polygon fill="#ffffff" stroke="transparent" points="207,-117.9034 207,-139.9034 359,-139.9034 359,-117.9034 207,-117.9034"/>
<polygon fill="none" stroke="#000000" points="207,-117.9034 207,-139.9034 359,-139.9034 359,-117.9034 207,-117.9034"/>
<image xlink:href="../../images/foreignKeys.png" width="11px" height="12px" preserveAspectRatio="xMinYMin meet" x="212" y="-134.903"/>
<text text-anchor="start" x="227" y="-125.0034" font-family="Helvetica,sans-Serif" font-size="11.00" fill="#000000">location_id</text>
<polygon fill="none" stroke="#000000" points="207,-98.9034 207,-117.9034 359,-117.9034 359,-98.9034 207,-98.9034"/>
<text text-anchor="start" x="210" y="-105.0034" font-family="Helvetica,sans-Serif" font-size="11.00" fill="#000000">...</text>
<polygon fill="#ffffff" stroke="transparent" points="207,-79.9034 207,-98.9034 280,-98.9034 280,-79.9034 207,-79.9034"/>
<polygon fill="none" stroke="#000000" points="207,-79.9034 207,-98.9034 280,-98.9034 280,-79.9034 207,-79.9034"/>
<text text-anchor="start" x="210" y="-86.0034" font-family="Helvetica,sans-Serif" font-size="11.00" fill="#000000">&lt; 16</text>
<polygon fill="#ffffff" stroke="transparent" points="280,-79.9034 280,-98.9034 315,-98.9034 315,-79.9034 280,-79.9034"/>
<polygon fill="none" stroke="#000000" points="280,-79.9034 280,-98.9034 315,-98.9034 315,-79.9034 280,-79.9034"/>
<text text-anchor="start" x="305.8862" y="-86.0034" font-family="Helvetica,sans-Serif" font-size="11.00" fill="#000000"> &#160;</text>
<polygon fill="#ffffff" stroke="transparent" points="315,-79.9034 315,-98.9034 359,-98.9034 359,-79.9034 315,-79.9034"/>
<polygon fill="none" stroke="#000000" points="315,-79.9034 315,-98.9034 359,-98.9034 359,-79.9034 315,-79.9034"/>
<text text-anchor="start" x="340.4053" y="-86.0034" font-family="Helvetica,sans-Serif" font-size="11.00" fill="#000000">5 &gt;</text>
</a>
</g>
</g>
<!-- list_options -->
<g id="node2" class="node">
<title>list_options</title>
<g id="a_node2"><a xlink:href="../../tables/list_options.html" xlink:title="list_options" target="_top">
<polygon fill="#ffffff" stroke="transparent" points="24,-278.4034 24,-383.4034 142,-383.4034 142,-278.4034 24,-278.4034"/>
<polygon fill="#f5f5f5" stroke="transparent" points="24,-359.9034 24,-382.9034 142,-382.9034 142,-359.9034 24,-359.9034"/>
<polygon fill="none" stroke="#000000" points="24,-359.9034 24,-382.9034 142,-382.9034 142,-359.9034 24,-359.9034"/>
<text text-anchor="start" x="29" y="-368.5034" font-family="Helvetica,sans-Serif" font-weight="bold" font-size="11.00" fill="#000000">list_options</text>
<text text-anchor="start" x="107.0437" y="-368.0034" font-family="Helvetica,sans-Serif" font-size="11.00" fill="#000000">[table]</text>
<polygon fill="none" stroke="#000000" points="24,-337.9034 24,-359.9034 142,-359.9034 142,-337.9034 24,-337.9034"/>
<image xlink:href="../../images/primaryKeys.png" width="11px" height="12px" preserveAspectRatio="xMinYMin meet" x="29" y="-354.903"/>
<text text-anchor="start" x="44" y="-345.0034" font-family="Helvetica,sans-Serif" font-size="11.00" fill="#000000">list_id</text>
<polygon fill="none" stroke="#000000" points="24,-315.9034 24,-337.9034 142,-337.9034 142,-315.9034 24,-315.9034"/>
<image xlink:href="../../images/primaryKeys.png" width="11px" height="12px" preserveAspectRatio="xMinYMin meet" x="29" y="-332.903"/>
<text text-anchor="start" x="44" y="-323.0034" font-family="Helvetica,sans-Serif" font-size="11.00" fill="#000000">option_id</text>
<polygon fill="none" stroke="#000000" points="24,-296.9034 24,-315.9034 142,-315.9034 142,-296.9034 24,-296.9034"/>
<text text-anchor="start" x="27" y="-303.0034" font-family="Helvetica,sans-Serif" font-size="11.00" fill="#000000">...</text>
<polygon fill="#ffffff" stroke="transparent" points="24,-277.9034 24,-296.9034 69,-296.9034 69,-277.9034 24,-277.9034"/>
<polygon fill="none" stroke="#000000" points="24,-277.9034 24,-296.9034 69,-296.9034 69,-277.9034 24,-277.9034"/>
<text text-anchor="start" x="27" y="-284.0034" font-family="Helvetica,sans-Serif" font-size="11.00" fill="#000000"> &#160;</text>
<polygon fill="#ffffff" stroke="transparent" points="69,-277.9034 69,-296.9034 98,-296.9034 98,-277.9034 69,-277.9034"/>
<polygon fill="none" stroke="#000000" points="69,-277.9034 69,-296.9034 98,-296.9034 98,-277.9034 69,-277.9034"/>
<text text-anchor="start" x="88.8862" y="-284.0034" font-family="Helvetica,sans-Serif" font-size="11.00" fill="#000000"> &#160;</text>
<polygon fill="#ffffff" stroke="transparent" points="98,-277.9034 98,-296.9034 142,-296.9034 142,-277.9034 98,-277.9034"/>
<polygon fill="none" stroke="#000000" points="98,-277.9034 98,-296.9034 142,-296.9034 142,-277.9034 98,-277.9034"/>
<text text-anchor="start" x="117.2904" y="-284.0034" font-family="Helvetica,sans-Serif" font-size="11.00" fill="#000000">98 &gt;</text>
</a>
</g>
</g>
<!-- procedure_order&#45;&gt;list_options -->
<g id="edge1" class="edge">
<title>procedure_order:w&#45;&gt;list_options:e</title>
<path fill="none" stroke="#000000" d="M192.5532,-306.8557C174.1385,-312.24 166.8994,-326.9034 142,-326.9034"/>
<polygon fill="#000000" stroke="#000000" points="199.0721,-305.9748 207.4821,-308.4709 203.036,-305.4391 207,-304.9034 207,-304.9034 207,-304.9034 203.036,-305.4391 206.5179,-301.3358 199.0721,-305.9748 199.0721,-305.9748"/>
<ellipse fill="none" stroke="#000000" cx="195.9009" cy="-306.4034" rx="3.2" ry="3.2"/>
</g>
<!-- procedure_order&#45;&gt;list_options -->
<g id="edge3" class="edge">
<title>procedure_order:w&#45;&gt;list_options:e</title>
<path fill="none" stroke="#000000" d="M192.729,-153.1287C136.3138,-173.5023 219.849,-326.9034 142,-326.9034"/>
<polygon fill="#000000" stroke="#000000" points="199.0955,-152.136 207.5547,-154.4604 203.0478,-151.5197 207,-150.9034 207,-150.9034 207,-150.9034 203.0478,-151.5197 206.4453,-147.3464 199.0955,-152.136 199.0955,-152.136"/>
<ellipse fill="none" stroke="#000000" cx="195.9337" cy="-152.629" rx="3.2" ry="3.2"/>
</g>
<!-- procedure_order&#45;&gt;list_options -->
<g id="edge4" class="edge">
<title>procedure_order:w&#45;&gt;list_options:e</title>
<path fill="none" stroke="#000000" d="M192.9773,-411.5611C164.8238,-395.4869 184.9255,-326.9034 142,-326.9034"/>
<polygon fill="#000000" stroke="#000000" points="199.218,-413.0485 206.1653,-418.4053 203.109,-413.976 207,-414.9034 207,-414.9034 207,-414.9034 203.109,-413.976 207.8347,-411.4015 199.218,-413.0485 199.218,-413.0485"/>
<ellipse fill="none" stroke="#000000" cx="196.1052" cy="-412.3066" rx="3.2" ry="3.2"/>
</g>
<!-- procedure_order&#45;&gt;list_options -->
<g id="edge5" class="edge">
<title>procedure_order:w&#45;&gt;list_options:e</title>
<path fill="none" stroke="#000000" d="M192.777,-389.3549C169.5496,-375.6461 177.3809,-326.9034 142,-326.9034"/>
<polygon fill="#000000" stroke="#000000" points="199.2379,-390.9668 206.1285,-396.3963 203.119,-391.9351 207,-392.9034 207,-392.9034 207,-392.9034 203.119,-391.9351 207.8715,-389.4104 199.2379,-390.9668 199.2379,-390.9668"/>
<ellipse fill="none" stroke="#000000" cx="196.1331" cy="-390.1922" rx="3.2" ry="3.2"/>
</g>
<!-- procedure_order&#45;&gt;list_options -->
<g id="edge6" class="edge">
<title>procedure_order:w&#45;&gt;list_options:e</title>
<path fill="none" stroke="#000000" d="M192.6317,-175.4478C144.5259,-195.4708 210.6325,-326.9034 142,-326.9034"/>
<polygon fill="#000000" stroke="#000000" points="199.1226,-174.2984 207.6278,-176.4482 203.0613,-173.6009 207,-172.9034 207,-172.9034 207,-172.9034 203.0613,-173.6009 206.3722,-169.3585 199.1226,-174.2984 199.1226,-174.2984"/>
<ellipse fill="none" stroke="#000000" cx="195.9716" cy="-174.8565" rx="3.2" ry="3.2"/>
</g>
<!-- procedure_order&#45;&gt;list_options -->
<g id="edge7" class="edge">
<title>procedure_order:w&#45;&gt;list_options:e</title>
<path fill="none" stroke="#000000" d="M192.7375,-220.0768C158.9932,-238.1125 193.019,-326.9034 142,-326.9034"/>
<polygon fill="#000000" stroke="#000000" points="199.191,-218.641 207.7819,-220.4174 203.0955,-217.7722 207,-216.9034 207,-216.9034 207,-216.9034 203.0955,-217.7722 206.2181,-213.3893 199.191,-218.641 199.191,-218.641"/>
<ellipse fill="none" stroke="#000000" cx="196.0674" cy="-219.336" rx="3.2" ry="3.2"/>
</g>
<!-- procedure_order&#45;&gt;list_options -->
<g id="edge8" class="edge">
<title>procedure_order:w&#45;&gt;list_options:e</title>
<path fill="none" stroke="#000000" d="M192.6818,-286.0677C172.6126,-296.1566 171.162,-326.9034 142,-326.9034"/>
<polygon fill="#000000" stroke="#000000" points="199.1885,-284.6298 207.7769,-286.4186 203.0942,-283.7666 207,-282.9034 207,-282.9034 207,-282.9034 203.0942,-283.7666 206.2231,-279.3882 199.1885,-284.6298 199.1885,-284.6298"/>
<ellipse fill="none" stroke="#000000" cx="196.0639" cy="-285.3204" rx="3.2" ry="3.2"/>
</g>
<!-- procedure_order&#45;&gt;list_options -->
<g id="edge10" class="edge">
<title>procedure_order:w&#45;&gt;list_options:e</title>
<path fill="none" stroke="#000000" d="M192.4889,-326.9034C174.5526,-326.9034 165.3594,-326.9034 142,-326.9034"/>
<polygon fill="#000000" stroke="#000000" points="199,-326.9034 207,-330.5034 203,-326.9034 207,-326.9034 207,-326.9034 207,-326.9034 203,-326.9034 207,-323.3034 199,-326.9034 199,-326.9034"/>
<ellipse fill="none" stroke="#000000" cx="195.8" cy="-326.9035" rx="3.2" ry="3.2"/>
</g>
<!-- procedure_order&#45;&gt;list_options -->
<g id="edge11" class="edge">
<title>procedure_order:w&#45;&gt;list_options:e</title>
<path fill="none" stroke="#000000" d="M192.5532,-346.951C174.1385,-341.5668 166.8994,-326.9034 142,-326.9034"/>
<polygon fill="#000000" stroke="#000000" points="199.0721,-347.8319 206.5179,-352.4709 203.036,-348.3677 207,-348.9034 207,-348.9034 207,-348.9034 203.036,-348.3677 207.4821,-345.3358 199.0721,-347.8319 199.0721,-347.8319"/>
<ellipse fill="none" stroke="#000000" cx="195.9009" cy="-347.4034" rx="3.2" ry="3.2"/>
</g>
<!-- users -->
<g id="node3" class="node">
<title>users</title>
<g id="a_node3"><a xlink:href="../../tables/users.html" xlink:title="users" target="_top">
<polygon fill="#ffffff" stroke="transparent" points="8,-42.4034 8,-257.4034 158,-257.4034 158,-42.4034 8,-42.4034"/>
<polygon fill="#f5f5f5" stroke="transparent" points="8,-233.9034 8,-256.9034 158,-256.9034 158,-233.9034 8,-233.9034"/>
<polygon fill="none" stroke="#000000" points="8,-233.9034 8,-256.9034 158,-256.9034 158,-233.9034 8,-233.9034"/>
<text text-anchor="start" x="13" y="-242.5034" font-family="Helvetica,sans-Serif" font-weight="bold" font-size="11.00" fill="#000000">users</text>
<text text-anchor="start" x="123.0437" y="-242.0034" font-family="Helvetica,sans-Serif" font-size="11.00" fill="#000000">[table]</text>
<polygon fill="none" stroke="#000000" points="8,-211.9034 8,-233.9034 158,-233.9034 158,-211.9034 8,-211.9034"/>
<image xlink:href="../../images/primaryKeys.png" width="11px" height="12px" preserveAspectRatio="xMinYMin meet" x="13" y="-228.903"/>
<text text-anchor="start" x="28" y="-219.0034" font-family="Helvetica,sans-Serif" font-size="11.00" fill="#000000">id</text>
<polygon fill="#ffffff" stroke="transparent" points="8,-189.9034 8,-211.9034 158,-211.9034 158,-189.9034 8,-189.9034"/>
<polygon fill="none" stroke="#000000" points="8,-189.9034 8,-211.9034 158,-211.9034 158,-189.9034 8,-189.9034"/>
<text text-anchor="start" x="28" y="-197.0034" font-family="Helvetica,sans-Serif" font-size="11.00" fill="#000000">uuid</text>
<polygon fill="none" stroke="#000000" points="8,-167.9034 8,-189.9034 158,-189.9034 158,-167.9034 8,-167.9034"/>
<image xlink:href="../../images/primaryKeys.png" width="11px" height="12px" preserveAspectRatio="xMinYMin meet" x="13" y="-184.903"/>
<text text-anchor="start" x="28" y="-175.0034" font-family="Helvetica,sans-Serif" font-size="11.00" fill="#000000">username</text>
<polygon fill="none" stroke="#000000" points="8,-145.9034 8,-167.9034 158,-167.9034 158,-145.9034 8,-145.9034"/>
<image xlink:href="../../images/foreignKeys.png" width="11px" height="12px" preserveAspectRatio="xMinYMin meet" x="13" y="-162.903"/>
<text text-anchor="start" x="28" y="-153.0034" font-family="Helvetica,sans-Serif" font-size="11.00" fill="#000000">facility_id</text>
<polygon fill="#ffffff" stroke="transparent" points="8,-123.9034 8,-145.9034 158,-145.9034 158,-123.9034 8,-123.9034"/>
<polygon fill="none" stroke="#000000" points="8,-123.9034 8,-145.9034 158,-145.9034 158,-123.9034 8,-123.9034"/>
<text text-anchor="start" x="28" y="-131.0034" font-family="Helvetica,sans-Serif" font-size="11.00" fill="#000000">google_signin_email</text>
<polygon fill="#ffffff" stroke="transparent" points="8,-101.9034 8,-123.9034 158,-123.9034 158,-101.9034 8,-101.9034"/>
<polygon fill="none" stroke="#000000" points="8,-101.9034 8,-123.9034 158,-123.9034 158,-101.9034 8,-101.9034"/>
<text text-anchor="start" x="28" y="-109.0034" font-family="Helvetica,sans-Serif" font-size="11.00" fill="#000000">abook_type</text>
<polygon fill="none" stroke="#000000" points="8,-79.9034 8,-101.9034 158,-101.9034 158,-79.9034 8,-79.9034"/>
<image xlink:href="../../images/foreignKeys.png" width="11px" height="12px" preserveAspectRatio="xMinYMin meet" x="13" y="-96.9034"/>
<text text-anchor="start" x="28" y="-87.0034" font-family="Helvetica,sans-Serif" font-size="11.00" fill="#000000">billing_facility_id</text>
<polygon fill="none" stroke="#000000" points="8,-60.9034 8,-79.9034 158,-79.9034 158,-60.9034 8,-60.9034"/>
<text text-anchor="start" x="11" y="-67.0034" font-family="Helvetica,sans-Serif" font-size="11.00" fill="#000000">...</text>
<polygon fill="#ffffff" stroke="transparent" points="8,-41.9034 8,-60.9034 74,-60.9034 74,-41.9034 8,-41.9034"/>
<polygon fill="none" stroke="#000000" points="8,-41.9034 8,-60.9034 74,-60.9034 74,-41.9034 8,-41.9034"/>
<text text-anchor="start" x="11" y="-48.0034" font-family="Helvetica,sans-Serif" font-size="11.00" fill="#000000">&lt; 2</text>
<polygon fill="#ffffff" stroke="transparent" points="74,-41.9034 74,-60.9034 108,-60.9034 108,-41.9034 74,-41.9034"/>
<polygon fill="none" stroke="#000000" points="74,-41.9034 74,-60.9034 108,-60.9034 108,-41.9034 74,-41.9034"/>
<text text-anchor="start" x="98.8862" y="-48.0034" font-family="Helvetica,sans-Serif" font-size="11.00" fill="#000000"> &#160;</text>
<polygon fill="#ffffff" stroke="transparent" points="108,-41.9034 108,-60.9034 158,-60.9034 158,-41.9034 108,-41.9034"/>
<polygon fill="none" stroke="#000000" points="108,-41.9034 108,-60.9034 158,-60.9034 158,-41.9034 108,-41.9034"/>
<text text-anchor="start" x="133.2904" y="-48.0034" font-family="Helvetica,sans-Serif" font-size="11.00" fill="#000000">91 &gt;</text>
</a>
</g>
</g>
<!-- procedure_order&#45;&gt;users -->
<g id="edge2" class="edge">
<title>procedure_order:w&#45;&gt;users:e</title>
<path fill="none" stroke="#000000" d="M193.0438,-256.2438C180.5061,-246.0967 179.5306,-222.9034 158,-222.9034"/>
<polygon fill="#000000" stroke="#000000" points="199.4118,-258.3699 205.8599,-264.3181 203.2059,-259.6366 207,-260.9034 207,-260.9034 207,-260.9034 203.2059,-259.6366 208.1401,-257.4887 199.4118,-258.3699 199.4118,-258.3699"/>
<ellipse fill="none" stroke="#000000" cx="196.3765" cy="-257.3564" rx="3.2" ry="3.2"/>
</g>
<!-- procedure_order&#45;&gt;users -->
<g id="edge9" class="edge">
<title>procedure_order:w&#45;&gt;users:e</title>
<path fill="none" stroke="#000000" d="M193.6492,-497.0552C156.0866,-456.8462 215.7393,-222.9034 158,-222.9034"/>
<polygon fill="#000000" stroke="#000000" points="199.6722,-499.6935 205.5555,-506.2009 203.3361,-501.2984 207,-502.9034 207,-502.9034 207,-502.9034 203.3361,-501.2984 208.4445,-499.6059 199.6722,-499.6935 199.6722,-499.6935"/>
<ellipse fill="none" stroke="#000000" cx="196.7411" cy="-498.4095" rx="3.2" ry="3.2"/>
</g>
<!-- procedure_report -->
<g id="node4" class="node">
<title>procedure_report</title>
<g id="a_node4"><a xlink:href="../../tables/procedure_report.html" xlink:title="procedure_report" target="_top">
<polygon fill="#ffffff" stroke="transparent" points="408,-294.9034 408,-626.9034 624,-626.9034 624,-294.9034 408,-294.9034"/>
<polygon fill="#f5f5f5" stroke="transparent" points="410,-601.9034 410,-624.9034 622,-624.9034 622,-601.9034 410,-601.9034"/>
<polygon fill="none" stroke="#000000" points="410,-601.9034 410,-624.9034 622,-624.9034 622,-601.9034 410,-601.9034"/>
<text text-anchor="start" x="415" y="-610.5034" font-family="Helvetica,sans-Serif" font-weight="bold" font-size="11.00" fill="#000000">procedure_report</text>
<text text-anchor="start" x="587.0437" y="-610.0034" font-family="Helvetica,sans-Serif" font-size="11.00" fill="#000000">[table]</text>
<polygon fill="none" stroke="#000000" points="410,-579.9034 410,-601.9034 556,-601.9034 556,-579.9034 410,-579.9034"/>
<image xlink:href="../../images/primaryKeys.png" width="11px" height="12px" preserveAspectRatio="xMinYMin meet" x="415" y="-596.903"/>
<text text-anchor="start" x="430" y="-587.0034" font-family="Helvetica,sans-Serif" font-size="11.00" fill="#000000">procedure_report_id</text>
<polygon fill="none" stroke="#000000" points="556,-579.9034 556,-601.9034 622,-601.9034 622,-579.9034 556,-579.9034"/>
<text text-anchor="start" x="559" y="-587.6034" font-family="Helvetica,sans-Serif" font-size="11.00" fill="#000000">bigint[19]</text>
<polygon fill="#ffffff" stroke="transparent" points="410,-557.9034 410,-579.9034 556,-579.9034 556,-557.9034 410,-557.9034"/>
<polygon fill="none" stroke="#000000" points="410,-557.9034 410,-579.9034 556,-579.9034 556,-557.9034 410,-557.9034"/>
<text text-anchor="start" x="430" y="-565.0034" font-family="Helvetica,sans-Serif" font-size="11.00" fill="#000000">uuid</text>
<polygon fill="none" stroke="#000000" points="556,-557.9034 556,-579.9034 622,-579.9034 622,-557.9034 556,-557.9034"/>
<text text-anchor="start" x="559" y="-565.6034" font-family="Helvetica,sans-Serif" font-size="11.00" fill="#000000">binary[16]</text>
<polygon fill="#ffffff" stroke="transparent" points="410,-535.9034 410,-557.9034 556,-557.9034 556,-535.9034 410,-535.9034"/>
<polygon fill="none" stroke="#000000" points="410,-535.9034 410,-557.9034 556,-557.9034 556,-535.9034 410,-535.9034"/>
<image xlink:href="../../images/foreignKeys.png" width="11px" height="12px" preserveAspectRatio="xMinYMin meet" x="415" y="-552.903"/>
<text text-anchor="start" x="430" y="-543.0034" font-family="Helvetica,sans-Serif" font-size="11.00" fill="#000000">procedure_order_id</text>
<polygon fill="none" stroke="#000000" points="556,-535.9034 556,-557.9034 622,-557.9034 622,-535.9034 556,-535.9034"/>
<text text-anchor="start" x="559" y="-543.6034" font-family="Helvetica,sans-Serif" font-size="11.00" fill="#000000">bigint[19]</text>
<polygon fill="none" stroke="#000000" points="410,-513.9034 410,-535.9034 556,-535.9034 556,-513.9034 410,-513.9034"/>
<text text-anchor="start" x="430" y="-521.0034" font-family="Helvetica,sans-Serif" font-size="11.00" fill="#000000">procedure_order_seq</text>
<polygon fill="none" stroke="#000000" points="556,-513.9034 556,-535.9034 622,-535.9034 622,-513.9034 556,-513.9034"/>
<text text-anchor="start" x="559" y="-521.6034" font-family="Helvetica,sans-Serif" font-size="11.00" fill="#000000">int[10]</text>
<polygon fill="none" stroke="#000000" points="410,-491.9034 410,-513.9034 556,-513.9034 556,-491.9034 410,-491.9034"/>
<text text-anchor="start" x="430" y="-499.0034" font-family="Helvetica,sans-Serif" font-size="11.00" fill="#000000">date_collected</text>
<polygon fill="none" stroke="#000000" points="556,-491.9034 556,-513.9034 622,-513.9034 622,-491.9034 556,-491.9034"/>
<text text-anchor="start" x="558.7401" y="-499.6034" font-family="Helvetica,sans-Serif" font-size="11.00" fill="#000000">datetime[19]</text>
<polygon fill="none" stroke="#000000" points="410,-469.9034 410,-491.9034 556,-491.9034 556,-469.9034 410,-469.9034"/>
<text text-anchor="start" x="430" y="-477.0034" font-family="Helvetica,sans-Serif" font-size="11.00" fill="#000000">date_collected_tz</text>
<polygon fill="none" stroke="#000000" points="556,-469.9034 556,-491.9034 622,-491.9034 622,-469.9034 556,-469.9034"/>
<text text-anchor="start" x="559" y="-477.6034" font-family="Helvetica,sans-Serif" font-size="11.00" fill="#000000">varchar[5]</text>
<polygon fill="none" stroke="#000000" points="410,-447.9034 410,-469.9034 556,-469.9034 556,-447.9034 410,-447.9034"/>
<text text-anchor="start" x="430" y="-455.0034" font-family="Helvetica,sans-Serif" font-size="11.00" fill="#000000">date_report</text>
<polygon fill="none" stroke="#000000" points="556,-447.9034 556,-469.9034 622,-469.9034 622,-447.9034 556,-447.9034"/>
<text text-anchor="start" x="558.7401" y="-455.6034" font-family="Helvetica,sans-Serif" font-size="11.00" fill="#000000">datetime[19]</text>
<polygon fill="none" stroke="#000000" points="410,-425.9034 410,-447.9034 556,-447.9034 556,-425.9034 410,-425.9034"/>
<text text-anchor="start" x="430" y="-433.0034" font-family="Helvetica,sans-Serif" font-size="11.00" fill="#000000">date_report_tz</text>
<polygon fill="none" stroke="#000000" points="556,-425.9034 556,-447.9034 622,-447.9034 622,-425.9034 556,-425.9034"/>
<text text-anchor="start" x="559" y="-433.6034" font-family="Helvetica,sans-Serif" font-size="11.00" fill="#000000">varchar[5]</text>
<polygon fill="none" stroke="#000000" points="410,-403.9034 410,-425.9034 556,-425.9034 556,-403.9034 410,-403.9034"/>
<image xlink:href="../../images/foreignKeys.png" width="11px" height="12px" preserveAspectRatio="xMinYMin meet" x="415" y="-420.903"/>
<text text-anchor="start" x="430" y="-411.0034" font-family="Helvetica,sans-Serif" font-size="11.00" fill="#000000">source</text>
<polygon fill="none" stroke="#000000" points="556,-403.9034 556,-425.9034 622,-425.9034 622,-403.9034 556,-403.9034"/>
<text text-anchor="start" x="559" y="-411.6034" font-family="Helvetica,sans-Serif" font-size="11.00" fill="#000000">bigint[19]</text>
<polygon fill="none" stroke="#000000" points="410,-381.9034 410,-403.9034 556,-403.9034 556,-381.9034 410,-381.9034"/>
<text text-anchor="start" x="430" y="-389.0034" font-family="Helvetica,sans-Serif" font-size="11.00" fill="#000000">specimen_num</text>
<polygon fill="none" stroke="#000000" points="556,-381.9034 556,-403.9034 622,-403.9034 622,-381.9034 556,-381.9034"/>
<text text-anchor="start" x="559" y="-389.6034" font-family="Helvetica,sans-Serif" font-size="11.00" fill="#000000">varchar[63]</text>
<polygon fill="none" stroke="#000000" points="410,-359.9034 410,-381.9034 556,-381.9034 556,-359.9034 410,-359.9034"/>
<image xlink:href="../../images/foreignKeys.png" width="11px" height="12px" preserveAspectRatio="xMinYMin meet" x="415" y="-376.903"/>
<text text-anchor="start" x="430" y="-367.0034" font-family="Helvetica,sans-Serif" font-size="11.00" fill="#000000">report_status</text>
<polygon fill="none" stroke="#000000" points="556,-359.9034 556,-381.9034 622,-381.9034 622,-359.9034 556,-359.9034"/>
<text text-anchor="start" x="559" y="-367.6034" font-family="Helvetica,sans-Serif" font-size="11.00" fill="#000000">varchar[31]</text>
<polygon fill="none" stroke="#000000" points="410,-337.9034 410,-359.9034 556,-359.9034 556,-337.9034 410,-337.9034"/>
<text text-anchor="start" x="430" y="-345.0034" font-family="Helvetica,sans-Serif" font-size="11.00" fill="#000000">review_status</text>
<polygon fill="none" stroke="#000000" points="556,-337.9034 556,-359.9034 622,-359.9034 622,-337.9034 556,-337.9034"/>
<text text-anchor="start" x="559" y="-345.6034" font-family="Helvetica,sans-Serif" font-size="11.00" fill="#000000">varchar[31]</text>
<polygon fill="none" stroke="#000000" points="410,-315.9034 410,-337.9034 556,-337.9034 556,-315.9034 410,-315.9034"/>
<text text-anchor="start" x="430" y="-323.0034" font-family="Helvetica,sans-Serif" font-size="11.00" fill="#000000">report_notes</text>
<polygon fill="none" stroke="#000000" points="556,-315.9034 556,-337.9034 622,-337.9034 622,-315.9034 556,-315.9034"/>
<text text-anchor="start" x="559" y="-323.6034" font-family="Helvetica,sans-Serif" font-size="11.00" fill="#000000">text[65535]</text>
<polygon fill="#ffffff" stroke="transparent" points="410,-296.9034 410,-315.9034 487,-315.9034 487,-296.9034 410,-296.9034"/>
<polygon fill="none" stroke="#000000" points="410,-296.9034 410,-315.9034 487,-315.9034 487,-296.9034 410,-296.9034"/>
<text text-anchor="start" x="413" y="-303.0034" font-family="Helvetica,sans-Serif" font-size="11.00" fill="#000000">&lt; 3</text>
<polygon fill="#ffffff" stroke="transparent" points="487,-296.9034 487,-315.9034 556,-315.9034 556,-296.9034 487,-296.9034"/>
<polygon fill="none" stroke="#000000" points="487,-296.9034 487,-315.9034 556,-315.9034 556,-296.9034 487,-296.9034"/>
<text text-anchor="start" x="546.8862" y="-303.0034" font-family="Helvetica,sans-Serif" font-size="11.00" fill="#000000"> &#160;</text>
<polygon fill="#ffffff" stroke="transparent" points="556,-296.9034 556,-315.9034 622,-315.9034 622,-296.9034 556,-296.9034"/>
<polygon fill="none" stroke="#000000" points="556,-296.9034 556,-315.9034 622,-315.9034 622,-296.9034 556,-296.9034"/>
<text text-anchor="start" x="603.4053" y="-303.0034" font-family="Helvetica,sans-Serif" font-size="11.00" fill="#000000">1 &gt;</text>
<polygon fill="none" stroke="#000000" stroke-width="2" points="409,-295.9034 409,-625.9034 623,-625.9034 623,-295.9034 409,-295.9034"/>
</a>
</g>
</g>
<!-- procedure_report&#45;&gt;procedure_order -->
<g id="edge12" class="edge">
<title>procedure_report:w&#45;&gt;procedure_order:e</title>
<path fill="none" stroke="#000000" d="M395.276,-546.9034C383.2815,-546.9034 375.8229,-546.9034 359,-546.9034"/>
<polygon fill="#000000" stroke="#000000" points="402,-546.9034 410,-550.5034 406,-546.9034 410,-546.9034 410,-546.9034 410,-546.9034 406,-546.9034 410,-543.3034 402,-546.9034 402,-546.9034"/>
<ellipse fill="none" stroke="#000000" cx="398.8" cy="-546.9035" rx="3.2" ry="3.2"/>
</g>
<!-- procedure_report&#45;&gt;list_options -->
<g id="edge13" class="edge">
<title>procedure_report:w&#45;&gt;list_options:e</title>
<path fill="none" stroke="#000000" d="M395.6129,-372.2742C323.9904,-387.8342 439.995,-531.7422 367,-591.9034 309.381,-639.3919 257.0839,-638.8222 199,-591.9034 105.2841,-516.2019 262.4715,-326.9034 142,-326.9034"/>
<polygon fill="#000000" stroke="#000000" points="402.0361,-371.6622 410.3415,-374.4871 406.018,-371.2828 410,-370.9034 410,-370.9034 410,-370.9034 406.018,-371.2828 409.6585,-367.3196 402.0361,-371.6622 402.0361,-371.6622"/>
<ellipse fill="none" stroke="#000000" cx="398.8505" cy="-371.9658" rx="3.2" ry="3.2"/>
</g>
<!-- procedure_report&#45;&gt;users -->
<g id="edge14" class="edge">
<title>procedure_report:w&#45;&gt;users:e</title>
<path fill="none" stroke="#000000" d="M396.1048,-410.7315C344.9597,-374.7794 420.8391,-117.4486 367,-69.9034 311.0328,-20.4788 258.2376,-24.4499 199,-69.9034 143.1481,-112.7591 228.3992,-222.9034 158,-222.9034"/>
<polygon fill="#000000" stroke="#000000" points="402.3379,-412.6029 408.9648,-418.3513 406.1689,-413.7531 410,-414.9034 410,-414.9034 410,-414.9034 406.1689,-413.7531 411.0352,-411.4554 402.3379,-412.6029 402.3379,-412.6029"/>
<ellipse fill="none" stroke="#000000" cx="399.273" cy="-411.6827" rx="3.2" ry="3.2"/>
</g>
<!-- procedure_result -->
<g id="node5" class="node">
<title>procedure_result</title>
<g id="a_node5"><a xlink:href="../../tables/procedure_result.html" xlink:title="procedure_result" target="_top">
<polygon fill="#ffffff" stroke="transparent" points="673,-520.4034 673,-669.4034 815,-669.4034 815,-520.4034 673,-520.4034"/>
<polygon fill="#f5f5f5" stroke="transparent" points="673,-645.9034 673,-668.9034 815,-668.9034 815,-645.9034 673,-645.9034"/>
<polygon fill="none" stroke="#000000" points="673,-645.9034 673,-668.9034 815,-668.9034 815,-645.9034 673,-645.9034"/>
<text text-anchor="start" x="678" y="-654.5034" font-family="Helvetica,sans-Serif" font-weight="bold" font-size="11.00" fill="#000000">procedure_result</text>
<text text-anchor="start" x="780.0437" y="-654.0034" font-family="Helvetica,sans-Serif" font-size="11.00" fill="#000000">[table]</text>
<polygon fill="none" stroke="#000000" points="673,-623.9034 673,-645.9034 815,-645.9034 815,-623.9034 673,-623.9034"/>
<image xlink:href="../../images/primaryKeys.png" width="11px" height="12px" preserveAspectRatio="xMinYMin meet" x="678" y="-640.903"/>
<text text-anchor="start" x="693" y="-631.0034" font-family="Helvetica,sans-Serif" font-size="11.00" fill="#000000">procedure_result_id</text>
<polygon fill="#ffffff" stroke="transparent" points="673,-601.9034 673,-623.9034 815,-623.9034 815,-601.9034 673,-601.9034"/>
<polygon fill="none" stroke="#000000" points="673,-601.9034 673,-623.9034 815,-623.9034 815,-601.9034 673,-601.9034"/>
<text text-anchor="start" x="693" y="-609.0034" font-family="Helvetica,sans-Serif" font-size="11.00" fill="#000000">uuid</text>
<polygon fill="#ffffff" stroke="transparent" points="673,-579.9034 673,-601.9034 815,-601.9034 815,-579.9034 673,-579.9034"/>
<polygon fill="none" stroke="#000000" points="673,-579.9034 673,-601.9034 815,-601.9034 815,-579.9034 673,-579.9034"/>
<image xlink:href="../../images/foreignKeys.png" width="11px" height="12px" preserveAspectRatio="xMinYMin meet" x="678" y="-596.903"/>
<text text-anchor="start" x="693" y="-587.0034" font-family="Helvetica,sans-Serif" font-size="11.00" fill="#000000">procedure_report_id</text>
<polygon fill="none" stroke="#000000" points="673,-557.9034 673,-579.9034 815,-579.9034 815,-557.9034 673,-557.9034"/>
<image xlink:href="../../images/foreignKeys.png" width="11px" height="12px" preserveAspectRatio="xMinYMin meet" x="678" y="-574.903"/>
<text text-anchor="start" x="693" y="-565.0034" font-family="Helvetica,sans-Serif" font-size="11.00" fill="#000000">document_id</text>
<polygon fill="none" stroke="#000000" points="673,-538.9034 673,-557.9034 815,-557.9034 815,-538.9034 673,-538.9034"/>
<text text-anchor="start" x="676" y="-545.0034" font-family="Helvetica,sans-Serif" font-size="11.00" fill="#000000">...</text>
<polygon fill="#ffffff" stroke="transparent" points="673,-519.9034 673,-538.9034 738,-538.9034 738,-519.9034 673,-519.9034"/>
<polygon fill="none" stroke="#000000" points="673,-519.9034 673,-538.9034 738,-538.9034 738,-519.9034 673,-519.9034"/>
<text text-anchor="start" x="676" y="-526.0034" font-family="Helvetica,sans-Serif" font-size="11.00" fill="#000000">&lt; 2</text>
<polygon fill="#ffffff" stroke="transparent" points="738,-519.9034 738,-538.9034 772,-538.9034 772,-519.9034 738,-519.9034"/>
<polygon fill="none" stroke="#000000" points="738,-519.9034 738,-538.9034 772,-538.9034 772,-519.9034 738,-519.9034"/>
<text text-anchor="start" x="762.8862" y="-526.0034" font-family="Helvetica,sans-Serif" font-size="11.00" fill="#000000"> &#160;</text>
<polygon fill="#ffffff" stroke="transparent" points="772,-519.9034 772,-538.9034 815,-538.9034 815,-519.9034 772,-519.9034"/>
<polygon fill="none" stroke="#000000" points="772,-519.9034 772,-538.9034 815,-538.9034 815,-519.9034 772,-519.9034"/>
<text text-anchor="start" x="796.4053" y="-526.0034" font-family="Helvetica,sans-Serif" font-size="11.00" fill="#000000">1 &gt;</text>
</a>
</g>
</g>
<!-- procedure_result&#45;&gt;procedure_report -->
<g id="edge15" class="edge">
<title>procedure_result:w&#45;&gt;procedure_report:e</title>
<path fill="none" stroke="#000000" d="M658.276,-590.9034C646.2815,-590.9034 638.8229,-590.9034 622,-590.9034"/>
<polygon fill="#000000" stroke="#000000" points="665,-590.9034 673,-594.5034 669,-590.9034 673,-590.9034 673,-590.9034 673,-590.9034 669,-590.9034 673,-587.3034 665,-590.9034 665,-590.9034"/>
<ellipse fill="none" stroke="#000000" cx="661.8" cy="-590.9035" rx="3.2" ry="3.2"/>
</g>
</g>
</svg>
