<?xml version="1.0" encoding="UTF-8" standalone="no"?>
<!DOCTYPE svg PUBLIC "-//W3C//DTD SVG 1.1//EN"
 "http://www.w3.org/Graphics/SVG/1.1/DTD/svg11.dtd">
<!-- Generated by graphviz version 2.40.1 (20161225.0304)
 -->
<!-- Title: oneDegreeRelationshipsDiagram Pages: 1 -->
<svg width="716pt" height="735pt"
 viewBox="0.00 0.00 716.00 735.20" xmlns="http://www.w3.org/2000/svg" xmlns:xlink="http://www.w3.org/1999/xlink">
<g id="graph0" class="graph" transform="scale(1 1) rotate(0) translate(4 731.2)">
<title>oneDegreeRelationshipsDiagram</title>
<polygon fill="#ffffff" stroke="transparent" points="-4,4 -4,-731.2 712,-731.2 712,4 -4,4"/>
<text text-anchor="middle" x="72.4936" y="-7.3" font-family="Helvetica,sans-Serif" font-size="11.00" fill="#000000">Generated by SchemaSpy</text>
<!-- procedure_order_code -->
<g id="node1" class="node">
<title>procedure_order_code</title>
<g id="a_node1"><a xlink:href="../../tables/procedure_order_code.html" xlink:title="procedure_order_code" target="_top">
<polygon fill="#ffffff" stroke="transparent" points="226,-252.7 226,-650.7 468,-650.7 468,-252.7 226,-252.7"/>
<polygon fill="#f5f5f5" stroke="transparent" points="228,-625.7 228,-648.7 466,-648.7 466,-625.7 228,-625.7"/>
<polygon fill="none" stroke="#000000" points="228,-625.7 228,-648.7 466,-648.7 466,-625.7 228,-625.7"/>
<text text-anchor="start" x="233" y="-634.3" font-family="Helvetica,sans-Serif" font-weight="bold" font-size="11.00" fill="#000000">procedure_order_code</text>
<text text-anchor="start" x="431.0437" y="-633.8" font-family="Helvetica,sans-Serif" font-size="11.00" fill="#000000">[table]</text>
<polygon fill="none" stroke="#000000" points="228,-603.7 228,-625.7 399,-625.7 399,-603.7 228,-603.7"/>
<image xlink:href="../../images/primaryKeys.png" width="11px" height="12px" preserveAspectRatio="xMinYMin meet" x="233" y="-620.7"/>
<text text-anchor="start" x="248" y="-610.8" font-family="Helvetica,sans-Serif" font-size="11.00" fill="#000000">procedure_order_id</text>
<polygon fill="none" stroke="#000000" points="399,-603.7 399,-625.7 466,-625.7 466,-603.7 399,-603.7"/>
<text text-anchor="start" x="402" y="-611.4" font-family="Helvetica,sans-Serif" font-size="11.00" fill="#000000">bigint[19]</text>
<polygon fill="none" stroke="#000000" points="228,-581.7 228,-603.7 399,-603.7 399,-581.7 228,-581.7"/>
<image xlink:href="../../images/primaryKeys.png" width="11px" height="12px" preserveAspectRatio="xMinYMin meet" x="233" y="-598.7"/>
<text text-anchor="start" x="248" y="-588.8" font-family="Helvetica,sans-Serif" font-size="11.00" fill="#000000">procedure_order_seq</text>
<polygon fill="none" stroke="#000000" points="399,-581.7 399,-603.7 466,-603.7 466,-581.7 399,-581.7"/>
<text text-anchor="start" x="402" y="-589.4" font-family="Helvetica,sans-Serif" font-size="11.00" fill="#000000">int[10]</text>
<polygon fill="none" stroke="#000000" points="228,-559.7 228,-581.7 399,-581.7 399,-559.7 228,-559.7"/>
<image xlink:href="../../images/foreignKeys.png" width="11px" height="12px" preserveAspectRatio="xMinYMin meet" x="233" y="-576.7"/>
<text text-anchor="start" x="248" y="-566.8" font-family="Helvetica,sans-Serif" font-size="11.00" fill="#000000">procedure_code</text>
<polygon fill="none" stroke="#000000" points="399,-559.7 399,-581.7 466,-581.7 466,-559.7 399,-559.7"/>
<text text-anchor="start" x="402" y="-567.4" font-family="Helvetica,sans-Serif" font-size="11.00" fill="#000000">varchar[64]</text>
<polygon fill="none" stroke="#000000" points="228,-537.7 228,-559.7 399,-559.7 399,-537.7 228,-537.7"/>
<text text-anchor="start" x="248" y="-544.8" font-family="Helvetica,sans-Serif" font-size="11.00" fill="#000000">procedure_name</text>
<polygon fill="none" stroke="#000000" points="399,-537.7 399,-559.7 466,-559.7 466,-537.7 399,-537.7"/>
<text text-anchor="start" x="401.9365" y="-545.4" font-family="Helvetica,sans-Serif" font-size="11.00" fill="#000000">varchar[255]</text>
<polygon fill="none" stroke="#000000" points="228,-515.7 228,-537.7 399,-537.7 399,-515.7 228,-515.7"/>
<text text-anchor="start" x="248" y="-522.8" font-family="Helvetica,sans-Serif" font-size="11.00" fill="#000000">procedure_source</text>
<polygon fill="none" stroke="#000000" points="399,-515.7 399,-537.7 466,-537.7 466,-515.7 399,-515.7"/>
<text text-anchor="start" x="402" y="-523.4" font-family="Helvetica,sans-Serif" font-size="11.00" fill="#000000">char[1]</text>
<polygon fill="none" stroke="#000000" points="228,-493.7 228,-515.7 399,-515.7 399,-493.7 228,-493.7"/>
<text text-anchor="start" x="248" y="-500.8" font-family="Helvetica,sans-Serif" font-size="11.00" fill="#000000">diagnoses</text>
<polygon fill="none" stroke="#000000" points="399,-493.7 399,-515.7 466,-515.7 466,-493.7 399,-493.7"/>
<text text-anchor="start" x="402" y="-501.4" font-family="Helvetica,sans-Serif" font-size="11.00" fill="#000000">text[65535]</text>
<polygon fill="none" stroke="#000000" points="228,-471.7 228,-493.7 399,-493.7 399,-471.7 228,-471.7"/>
<text text-anchor="start" x="248" y="-478.8" font-family="Helvetica,sans-Serif" font-size="11.00" fill="#000000">do_not_send</text>
<polygon fill="none" stroke="#000000" points="399,-471.7 399,-493.7 466,-493.7 466,-471.7 399,-471.7"/>
<text text-anchor="start" x="402" y="-479.4" font-family="Helvetica,sans-Serif" font-size="11.00" fill="#000000">boolean[3]</text>
<polygon fill="none" stroke="#000000" points="228,-449.7 228,-471.7 399,-471.7 399,-449.7 228,-449.7"/>
<text text-anchor="start" x="248" y="-456.8" font-family="Helvetica,sans-Serif" font-size="11.00" fill="#000000">procedure_order_title</text>
<polygon fill="none" stroke="#000000" points="399,-449.7 399,-471.7 466,-471.7 466,-449.7 399,-449.7"/>
<text text-anchor="start" x="401.9365" y="-457.4" font-family="Helvetica,sans-Serif" font-size="11.00" fill="#000000">varchar[255]</text>
<polygon fill="none" stroke="#000000" points="228,-427.7 228,-449.7 399,-449.7 399,-427.7 228,-427.7"/>
<text text-anchor="start" x="248" y="-434.8" font-family="Helvetica,sans-Serif" font-size="11.00" fill="#000000">procedure_type</text>
<polygon fill="none" stroke="#000000" points="399,-427.7 399,-449.7 466,-449.7 466,-427.7 399,-427.7"/>
<text text-anchor="start" x="402" y="-435.4" font-family="Helvetica,sans-Serif" font-size="11.00" fill="#000000">varchar[31]</text>
<polygon fill="none" stroke="#000000" points="228,-405.7 228,-427.7 399,-427.7 399,-405.7 228,-405.7"/>
<text text-anchor="start" x="248" y="-412.8" font-family="Helvetica,sans-Serif" font-size="11.00" fill="#000000">transport</text>
<polygon fill="none" stroke="#000000" points="399,-405.7 399,-427.7 466,-427.7 466,-405.7 399,-405.7"/>
<text text-anchor="start" x="402" y="-413.4" font-family="Helvetica,sans-Serif" font-size="11.00" fill="#000000">varchar[31]</text>
<polygon fill="none" stroke="#000000" points="228,-383.7 228,-405.7 399,-405.7 399,-383.7 228,-383.7"/>
<text text-anchor="start" x="248" y="-390.8" font-family="Helvetica,sans-Serif" font-size="11.00" fill="#000000">date_end</text>
<polygon fill="none" stroke="#000000" points="399,-383.7 399,-405.7 466,-405.7 466,-383.7 399,-383.7"/>
<text text-anchor="start" x="402" y="-391.4" font-family="Helvetica,sans-Serif" font-size="11.00" fill="#000000">datetime[19]</text>
<polygon fill="none" stroke="#000000" points="228,-361.7 228,-383.7 399,-383.7 399,-361.7 228,-361.7"/>
<text text-anchor="start" x="248" y="-368.8" font-family="Helvetica,sans-Serif" font-size="11.00" fill="#000000">reason_code</text>
<polygon fill="none" stroke="#000000" points="399,-361.7 399,-383.7 466,-383.7 466,-361.7 399,-361.7"/>
<text text-anchor="start" x="402" y="-369.4" font-family="Helvetica,sans-Serif" font-size="11.00" fill="#000000">varchar[31]</text>
<polygon fill="none" stroke="#000000" points="228,-339.7 228,-361.7 399,-361.7 399,-339.7 228,-339.7"/>
<text text-anchor="start" x="248" y="-346.8" font-family="Helvetica,sans-Serif" font-size="11.00" fill="#000000">reason_description</text>
<polygon fill="none" stroke="#000000" points="399,-339.7 399,-361.7 466,-361.7 466,-339.7 399,-339.7"/>
<text text-anchor="start" x="402" y="-347.4" font-family="Helvetica,sans-Serif" font-size="11.00" fill="#000000">text[65535]</text>
<polygon fill="none" stroke="#000000" points="228,-317.7 228,-339.7 399,-339.7 399,-317.7 228,-317.7"/>
<text text-anchor="start" x="248" y="-324.8" font-family="Helvetica,sans-Serif" font-size="11.00" fill="#000000">reason_date_low</text>
<polygon fill="none" stroke="#000000" points="399,-317.7 399,-339.7 466,-339.7 466,-317.7 399,-317.7"/>
<text text-anchor="start" x="402" y="-325.4" font-family="Helvetica,sans-Serif" font-size="11.00" fill="#000000">datetime[19]</text>
<polygon fill="none" stroke="#000000" points="228,-295.7 228,-317.7 399,-317.7 399,-295.7 228,-295.7"/>
<text text-anchor="start" x="248" y="-302.8" font-family="Helvetica,sans-Serif" font-size="11.00" fill="#000000">reason_date_high</text>
<polygon fill="none" stroke="#000000" points="399,-295.7 399,-317.7 466,-317.7 466,-295.7 399,-295.7"/>
<text text-anchor="start" x="402" y="-303.4" font-family="Helvetica,sans-Serif" font-size="11.00" fill="#000000">datetime[19]</text>
<polygon fill="none" stroke="#000000" points="228,-273.7 228,-295.7 399,-295.7 399,-273.7 228,-273.7"/>
<text text-anchor="start" x="248" y="-280.8" font-family="Helvetica,sans-Serif" font-size="11.00" fill="#000000">reason_status</text>
<polygon fill="none" stroke="#000000" points="399,-273.7 399,-295.7 466,-295.7 466,-273.7 399,-273.7"/>
<text text-anchor="start" x="402" y="-281.4" font-family="Helvetica,sans-Serif" font-size="11.00" fill="#000000">varchar[31]</text>
<polygon fill="#ffffff" stroke="transparent" points="228,-254.7 228,-273.7 318,-273.7 318,-254.7 228,-254.7"/>
<polygon fill="none" stroke="#000000" points="228,-254.7 228,-273.7 318,-273.7 318,-254.7 228,-254.7"/>
<text text-anchor="start" x="231" y="-260.8" font-family="Helvetica,sans-Serif" font-size="11.00" fill="#000000">&lt; 2</text>
<polygon fill="#ffffff" stroke="transparent" points="318,-254.7 318,-273.7 399,-273.7 399,-254.7 318,-254.7"/>
<polygon fill="none" stroke="#000000" points="318,-254.7 318,-273.7 399,-273.7 399,-254.7 318,-254.7"/>
<text text-anchor="start" x="389.8862" y="-260.8" font-family="Helvetica,sans-Serif" font-size="11.00" fill="#000000"> &#160;</text>
<polygon fill="#ffffff" stroke="transparent" points="399,-254.7 399,-273.7 466,-273.7 466,-254.7 399,-254.7"/>
<polygon fill="none" stroke="#000000" points="399,-254.7 399,-273.7 466,-273.7 466,-254.7 399,-254.7"/>
<text text-anchor="start" x="447.4053" y="-260.8" font-family="Helvetica,sans-Serif" font-size="11.00" fill="#000000">1 &gt;</text>
<polygon fill="none" stroke="#000000" stroke-width="2" points="227,-253.7 227,-649.7 467,-649.7 467,-253.7 227,-253.7"/>
</a>
</g>
</g>
<!-- procedure_type -->
<g id="node2" class="node">
<title>procedure_type</title>
<g id="a_node2"><a xlink:href="../../tables/procedure_type.html" xlink:title="procedure_type" target="_top">
<polygon fill="#ffffff" stroke="transparent" points="8,-38.2 8,-187.2 177,-187.2 177,-38.2 8,-38.2"/>
<polygon fill="#f5f5f5" stroke="transparent" points="8.5,-163.7 8.5,-186.7 177.5,-186.7 177.5,-163.7 8.5,-163.7"/>
<polygon fill="none" stroke="#000000" points="8.5,-163.7 8.5,-186.7 177.5,-186.7 177.5,-163.7 8.5,-163.7"/>
<text text-anchor="start" x="13.5" y="-172.3" font-family="Helvetica,sans-Serif" font-weight="bold" font-size="11.00" fill="#000000">procedure_type</text>
<text text-anchor="start" x="142.5437" y="-171.8" font-family="Helvetica,sans-Serif" font-size="11.00" fill="#000000">[table]</text>
<polygon fill="none" stroke="#000000" points="8.5,-141.7 8.5,-163.7 177.5,-163.7 177.5,-141.7 8.5,-141.7"/>
<image xlink:href="../../images/primaryKeys.png" width="11px" height="12px" preserveAspectRatio="xMinYMin meet" x="13.5" y="-158.7"/>
<text text-anchor="start" x="28.5" y="-148.8" font-family="Helvetica,sans-Serif" font-size="11.00" fill="#000000">procedure_type_id</text>
<polygon fill="#ffffff" stroke="transparent" points="8.5,-119.7 8.5,-141.7 177.5,-141.7 177.5,-119.7 8.5,-119.7"/>
<polygon fill="none" stroke="#000000" points="8.5,-119.7 8.5,-141.7 177.5,-141.7 177.5,-119.7 8.5,-119.7"/>
<text text-anchor="start" x="28.5" y="-126.8" font-family="Helvetica,sans-Serif" font-size="11.00" fill="#000000">parent</text>
<polygon fill="none" stroke="#000000" points="8.5,-97.7 8.5,-119.7 177.5,-119.7 177.5,-97.7 8.5,-97.7"/>
<image xlink:href="../../images/primaryKeys.png" width="11px" height="12px" preserveAspectRatio="xMinYMin meet" x="13.5" y="-114.7"/>
<text text-anchor="start" x="28.5" y="-104.8" font-family="Helvetica,sans-Serif" font-size="11.00" fill="#000000">procedure_code</text>
<polygon fill="none" stroke="#000000" points="8.5,-75.7 8.5,-97.7 177.5,-97.7 177.5,-75.7 8.5,-75.7"/>
<image xlink:href="../../images/foreignKeys.png" width="11px" height="12px" preserveAspectRatio="xMinYMin meet" x="13.5" y="-92.7"/>
<text text-anchor="start" x="28.5" y="-82.8" font-family="Helvetica,sans-Serif" font-size="11.00" fill="#000000">procedure_type</text>
<polygon fill="none" stroke="#000000" points="8.5,-56.7 8.5,-75.7 177.5,-75.7 177.5,-56.7 8.5,-56.7"/>
<text text-anchor="start" x="11.5" y="-62.8" font-family="Helvetica,sans-Serif" font-size="11.00" fill="#000000">...</text>
<polygon fill="#ffffff" stroke="transparent" points="8.5,-37.7 8.5,-56.7 86.5,-56.7 86.5,-37.7 8.5,-37.7"/>
<polygon fill="none" stroke="#000000" points="8.5,-37.7 8.5,-56.7 86.5,-56.7 86.5,-37.7 8.5,-37.7"/>
<text text-anchor="start" x="11.5" y="-43.8" font-family="Helvetica,sans-Serif" font-size="11.00" fill="#000000">&lt; 1</text>
<polygon fill="#ffffff" stroke="transparent" points="86.5,-37.7 86.5,-56.7 127.5,-56.7 127.5,-37.7 86.5,-37.7"/>
<polygon fill="none" stroke="#000000" points="86.5,-37.7 86.5,-56.7 127.5,-56.7 127.5,-37.7 86.5,-37.7"/>
<text text-anchor="start" x="118.3862" y="-43.8" font-family="Helvetica,sans-Serif" font-size="11.00" fill="#000000"> &#160;</text>
<polygon fill="#ffffff" stroke="transparent" points="127.5,-37.7 127.5,-56.7 177.5,-56.7 177.5,-37.7 127.5,-37.7"/>
<polygon fill="none" stroke="#000000" points="127.5,-37.7 127.5,-56.7 177.5,-56.7 177.5,-37.7 127.5,-37.7"/>
<text text-anchor="start" x="158.9053" y="-43.8" font-family="Helvetica,sans-Serif" font-size="11.00" fill="#000000">2 &gt;</text>
</a>
</g>
</g>
<!-- procedure_order_code&#45;&gt;procedure_type -->
<g id="edge1" class="edge">
<title>procedure_order_code:w&#45;&gt;procedure_type:e</title>
<path fill="none" stroke="#000000" d="M213.7486,-566.9812C140.4597,-523.2582 275.3319,-108.7 177.5,-108.7"/>
<polygon fill="#000000" stroke="#000000" points="220.2592,-568.68 227.091,-574.1834 224.1296,-569.69 228,-570.7 228,-570.7 228,-570.7 224.1296,-569.69 228.909,-567.2166 220.2592,-568.68 220.2592,-568.68"/>
<ellipse fill="none" stroke="#000000" cx="217.1629" cy="-567.8721" rx="3.2" ry="3.2"/>
</g>
<!-- procedure_order -->
<g id="node3" class="node">
<title>procedure_order</title>
<g id="a_node3"><a xlink:href="../../tables/procedure_order.html" xlink:title="procedure_order" target="_top">
<polygon fill="#ffffff" stroke="transparent" points="8,-208.2 8,-709.2 177,-709.2 177,-208.2 8,-208.2"/>
<polygon fill="#f5f5f5" stroke="transparent" points="8.5,-685.7 8.5,-708.7 177.5,-708.7 177.5,-685.7 8.5,-685.7"/>
<polygon fill="none" stroke="#000000" points="8.5,-685.7 8.5,-708.7 177.5,-708.7 177.5,-685.7 8.5,-685.7"/>
<text text-anchor="start" x="13.5" y="-694.3" font-family="Helvetica,sans-Serif" font-weight="bold" font-size="11.00" fill="#000000">procedure_order</text>
<text text-anchor="start" x="142.5437" y="-693.8" font-family="Helvetica,sans-Serif" font-size="11.00" fill="#000000">[table]</text>
<polygon fill="none" stroke="#000000" points="8.5,-663.7 8.5,-685.7 177.5,-685.7 177.5,-663.7 8.5,-663.7"/>
<image xlink:href="../../images/primaryKeys.png" width="11px" height="12px" preserveAspectRatio="xMinYMin meet" x="13.5" y="-680.7"/>
<text text-anchor="start" x="28.5" y="-670.8" font-family="Helvetica,sans-Serif" font-size="11.00" fill="#000000">procedure_order_id</text>
<polygon fill="#ffffff" stroke="transparent" points="8.5,-641.7 8.5,-663.7 177.5,-663.7 177.5,-641.7 8.5,-641.7"/>
<polygon fill="none" stroke="#000000" points="8.5,-641.7 8.5,-663.7 177.5,-663.7 177.5,-641.7 8.5,-641.7"/>
<text text-anchor="start" x="28.5" y="-648.8" font-family="Helvetica,sans-Serif" font-size="11.00" fill="#000000">uuid</text>
<polygon fill="none" stroke="#000000" points="8.5,-619.7 8.5,-641.7 177.5,-641.7 177.5,-619.7 8.5,-619.7"/>
<image xlink:href="../../images/foreignKeys.png" width="11px" height="12px" preserveAspectRatio="xMinYMin meet" x="13.5" y="-636.7"/>
<text text-anchor="start" x="28.5" y="-626.8" font-family="Helvetica,sans-Serif" font-size="11.00" fill="#000000">provider_id</text>
<polygon fill="#ffffff" stroke="transparent" points="8.5,-597.7 8.5,-619.7 177.5,-619.7 177.5,-597.7 8.5,-597.7"/>
<polygon fill="none" stroke="#000000" points="8.5,-597.7 8.5,-619.7 177.5,-619.7 177.5,-597.7 8.5,-597.7"/>
<image xlink:href="../../images/foreignKeys.png" width="11px" height="12px" preserveAspectRatio="xMinYMin meet" x="13.5" y="-614.7"/>
<text text-anchor="start" x="28.5" y="-604.8" font-family="Helvetica,sans-Serif" font-size="11.00" fill="#000000">patient_id</text>
<polygon fill="none" stroke="#000000" points="8.5,-575.7 8.5,-597.7 177.5,-597.7 177.5,-575.7 8.5,-575.7"/>
<image xlink:href="../../images/foreignKeys.png" width="11px" height="12px" preserveAspectRatio="xMinYMin meet" x="13.5" y="-592.7"/>
<text text-anchor="start" x="28.5" y="-582.8" font-family="Helvetica,sans-Serif" font-size="11.00" fill="#000000">encounter_id</text>
<polygon fill="#ffffff" stroke="transparent" points="8.5,-553.7 8.5,-575.7 177.5,-575.7 177.5,-553.7 8.5,-553.7"/>
<polygon fill="none" stroke="#000000" points="8.5,-553.7 8.5,-575.7 177.5,-575.7 177.5,-553.7 8.5,-553.7"/>
<text text-anchor="start" x="28.5" y="-560.8" font-family="Helvetica,sans-Serif" font-size="11.00" fill="#000000">date_ordered</text>
<polygon fill="none" stroke="#000000" points="8.5,-531.7 8.5,-553.7 177.5,-553.7 177.5,-531.7 8.5,-531.7"/>
<image xlink:href="../../images/foreignKeys.png" width="11px" height="12px" preserveAspectRatio="xMinYMin meet" x="13.5" y="-548.7"/>
<text text-anchor="start" x="28.5" y="-538.8" font-family="Helvetica,sans-Serif" font-size="11.00" fill="#000000">order_priority</text>
<polygon fill="none" stroke="#000000" points="8.5,-509.7 8.5,-531.7 177.5,-531.7 177.5,-509.7 8.5,-509.7"/>
<image xlink:href="../../images/foreignKeys.png" width="11px" height="12px" preserveAspectRatio="xMinYMin meet" x="13.5" y="-526.7"/>
<text text-anchor="start" x="28.5" y="-516.8" font-family="Helvetica,sans-Serif" font-size="11.00" fill="#000000">order_status</text>
<polygon fill="none" stroke="#000000" points="8.5,-487.7 8.5,-509.7 177.5,-509.7 177.5,-487.7 8.5,-487.7"/>
<image xlink:href="../../images/foreignKeys.png" width="11px" height="12px" preserveAspectRatio="xMinYMin meet" x="13.5" y="-504.7"/>
<text text-anchor="start" x="28.5" y="-494.8" font-family="Helvetica,sans-Serif" font-size="11.00" fill="#000000">lab_id</text>
<polygon fill="#ffffff" stroke="transparent" points="8.5,-465.7 8.5,-487.7 177.5,-487.7 177.5,-465.7 8.5,-465.7"/>
<polygon fill="none" stroke="#000000" points="8.5,-465.7 8.5,-487.7 177.5,-487.7 177.5,-465.7 8.5,-465.7"/>
<image xlink:href="../../images/foreignKeys.png" width="11px" height="12px" preserveAspectRatio="xMinYMin meet" x="13.5" y="-482.7"/>
<text text-anchor="start" x="28.5" y="-472.8" font-family="Helvetica,sans-Serif" font-size="11.00" fill="#000000">specimen_type</text>
<polygon fill="none" stroke="#000000" points="8.5,-443.7 8.5,-465.7 177.5,-465.7 177.5,-443.7 8.5,-443.7"/>
<image xlink:href="../../images/foreignKeys.png" width="11px" height="12px" preserveAspectRatio="xMinYMin meet" x="13.5" y="-460.7"/>
<text text-anchor="start" x="28.5" y="-450.8" font-family="Helvetica,sans-Serif" font-size="11.00" fill="#000000">specimen_location</text>
<polygon fill="none" stroke="#000000" points="8.5,-421.7 8.5,-443.7 177.5,-443.7 177.5,-421.7 8.5,-421.7"/>
<image xlink:href="../../images/foreignKeys.png" width="11px" height="12px" preserveAspectRatio="xMinYMin meet" x="13.5" y="-438.7"/>
<text text-anchor="start" x="28.5" y="-428.8" font-family="Helvetica,sans-Serif" font-size="11.00" fill="#000000">billing_type</text>
<polygon fill="none" stroke="#000000" points="8.5,-399.7 8.5,-421.7 177.5,-421.7 177.5,-399.7 8.5,-399.7"/>
<image xlink:href="../../images/foreignKeys.png" width="11px" height="12px" preserveAspectRatio="xMinYMin meet" x="13.5" y="-416.7"/>
<text text-anchor="start" x="28.5" y="-406.8" font-family="Helvetica,sans-Serif" font-size="11.00" fill="#000000">procedure_type</text>
<polygon fill="none" stroke="#000000" points="8.5,-377.7 8.5,-399.7 177.5,-399.7 177.5,-377.7 8.5,-377.7"/>
<image xlink:href="../../images/foreignKeys.png" width="11px" height="12px" preserveAspectRatio="xMinYMin meet" x="13.5" y="-394.7"/>
<text text-anchor="start" x="28.5" y="-384.8" font-family="Helvetica,sans-Serif" font-size="11.00" fill="#000000">collector_id</text>
<polygon fill="none" stroke="#000000" points="8.5,-355.7 8.5,-377.7 177.5,-377.7 177.5,-355.7 8.5,-355.7"/>
<image xlink:href="../../images/foreignKeys.png" width="11px" height="12px" preserveAspectRatio="xMinYMin meet" x="13.5" y="-372.7"/>
<text text-anchor="start" x="28.5" y="-362.8" font-family="Helvetica,sans-Serif" font-size="11.00" fill="#000000">account_facility</text>
<polygon fill="none" stroke="#000000" points="8.5,-333.7 8.5,-355.7 177.5,-355.7 177.5,-333.7 8.5,-333.7"/>
<image xlink:href="../../images/foreignKeys.png" width="11px" height="12px" preserveAspectRatio="xMinYMin meet" x="13.5" y="-350.7"/>
<text text-anchor="start" x="28.5" y="-340.8" font-family="Helvetica,sans-Serif" font-size="11.00" fill="#000000">procedure_order_type</text>
<polygon fill="#ffffff" stroke="transparent" points="8.5,-311.7 8.5,-333.7 177.5,-333.7 177.5,-311.7 8.5,-311.7"/>
<polygon fill="none" stroke="#000000" points="8.5,-311.7 8.5,-333.7 177.5,-333.7 177.5,-311.7 8.5,-311.7"/>
<text text-anchor="start" x="28.5" y="-318.8" font-family="Helvetica,sans-Serif" font-size="11.00" fill="#000000">scheduled_date</text>
<polygon fill="none" stroke="#000000" points="8.5,-289.7 8.5,-311.7 177.5,-311.7 177.5,-289.7 8.5,-289.7"/>
<image xlink:href="../../images/foreignKeys.png" width="11px" height="12px" preserveAspectRatio="xMinYMin meet" x="13.5" y="-306.7"/>
<text text-anchor="start" x="28.5" y="-296.8" font-family="Helvetica,sans-Serif" font-size="11.00" fill="#000000">performer_type</text>
<polygon fill="#ffffff" stroke="transparent" points="8.5,-267.7 8.5,-289.7 177.5,-289.7 177.5,-267.7 8.5,-267.7"/>
<polygon fill="none" stroke="#000000" points="8.5,-267.7 8.5,-289.7 177.5,-289.7 177.5,-267.7 8.5,-267.7"/>
<image xlink:href="../../images/foreignKeys.png" width="11px" height="12px" preserveAspectRatio="xMinYMin meet" x="13.5" y="-284.7"/>
<text text-anchor="start" x="28.5" y="-274.8" font-family="Helvetica,sans-Serif" font-size="11.00" fill="#000000">order_intent</text>
<polygon fill="#ffffff" stroke="transparent" points="8.5,-245.7 8.5,-267.7 177.5,-267.7 177.5,-245.7 8.5,-245.7"/>
<polygon fill="none" stroke="#000000" points="8.5,-245.7 8.5,-267.7 177.5,-267.7 177.5,-245.7 8.5,-245.7"/>
<image xlink:href="../../images/foreignKeys.png" width="11px" height="12px" preserveAspectRatio="xMinYMin meet" x="13.5" y="-262.7"/>
<text text-anchor="start" x="28.5" y="-252.8" font-family="Helvetica,sans-Serif" font-size="11.00" fill="#000000">location_id</text>
<polygon fill="none" stroke="#000000" points="8.5,-226.7 8.5,-245.7 177.5,-245.7 177.5,-226.7 8.5,-226.7"/>
<text text-anchor="start" x="11.5" y="-232.8" font-family="Helvetica,sans-Serif" font-size="11.00" fill="#000000">...</text>
<polygon fill="#ffffff" stroke="transparent" points="8.5,-207.7 8.5,-226.7 89.5,-226.7 89.5,-207.7 8.5,-207.7"/>
<polygon fill="none" stroke="#000000" points="8.5,-207.7 8.5,-226.7 89.5,-226.7 89.5,-207.7 8.5,-207.7"/>
<text text-anchor="start" x="11.5" y="-213.8" font-family="Helvetica,sans-Serif" font-size="11.00" fill="#000000">&lt; 16</text>
<polygon fill="#ffffff" stroke="transparent" points="89.5,-207.7 89.5,-226.7 128.5,-226.7 128.5,-207.7 89.5,-207.7"/>
<polygon fill="none" stroke="#000000" points="89.5,-207.7 89.5,-226.7 128.5,-226.7 128.5,-207.7 89.5,-207.7"/>
<text text-anchor="start" x="119.3862" y="-213.8" font-family="Helvetica,sans-Serif" font-size="11.00" fill="#000000"> &#160;</text>
<polygon fill="#ffffff" stroke="transparent" points="128.5,-207.7 128.5,-226.7 177.5,-226.7 177.5,-207.7 128.5,-207.7"/>
<polygon fill="none" stroke="#000000" points="128.5,-207.7 128.5,-226.7 177.5,-226.7 177.5,-207.7 128.5,-207.7"/>
<text text-anchor="start" x="158.9053" y="-213.8" font-family="Helvetica,sans-Serif" font-size="11.00" fill="#000000">5 &gt;</text>
</a>
</g>
</g>
<!-- procedure_order_code&#45;&gt;procedure_order -->
<g id="edge2" class="edge">
<title>procedure_order_code:w&#45;&gt;procedure_order:e</title>
<path fill="none" stroke="#000000" d="M214.2703,-619.4081C198.1513,-633.5525 206.3642,-674.7 177.5,-674.7"/>
<polygon fill="#000000" stroke="#000000" points="220.4326,-617.295 229.1678,-618.1053 224.2163,-615.9975 228,-614.7 228,-614.7 228,-614.7 224.2163,-615.9975 226.8322,-611.2947 220.4326,-617.295 220.4326,-617.295"/>
<ellipse fill="none" stroke="#000000" cx="217.4056" cy="-618.333" rx="3.2" ry="3.2"/>
</g>
<!-- procedure_specimen -->
<g id="node4" class="node">
<title>procedure_specimen</title>
<g id="a_node4"><a xlink:href="../../tables/procedure_specimen.html" xlink:title="procedure_specimen" target="_top">
<polygon fill="#ffffff" stroke="transparent" points="517,-398.2 517,-723.2 700,-723.2 700,-398.2 517,-398.2"/>
<polygon fill="#f5f5f5" stroke="transparent" points="517.5,-699.7 517.5,-722.7 700.5,-722.7 700.5,-699.7 517.5,-699.7"/>
<polygon fill="none" stroke="#000000" points="517.5,-699.7 517.5,-722.7 700.5,-722.7 700.5,-699.7 517.5,-699.7"/>
<text text-anchor="start" x="522.5" y="-708.3" font-family="Helvetica,sans-Serif" font-weight="bold" font-size="11.00" fill="#000000">procedure_specimen</text>
<text text-anchor="start" x="665.5437" y="-707.8" font-family="Helvetica,sans-Serif" font-size="11.00" fill="#000000">[table]</text>
<polygon fill="none" stroke="#000000" points="517.5,-677.7 517.5,-699.7 700.5,-699.7 700.5,-677.7 517.5,-677.7"/>
<image xlink:href="../../images/primaryKeys.png" width="11px" height="12px" preserveAspectRatio="xMinYMin meet" x="522.5" y="-694.7"/>
<text text-anchor="start" x="537.5" y="-684.8" font-family="Helvetica,sans-Serif" font-size="11.00" fill="#000000">procedure_specimen_id</text>
<polygon fill="#ffffff" stroke="transparent" points="517.5,-655.7 517.5,-677.7 700.5,-677.7 700.5,-655.7 517.5,-655.7"/>
<polygon fill="none" stroke="#000000" points="517.5,-655.7 517.5,-677.7 700.5,-677.7 700.5,-655.7 517.5,-655.7"/>
<text text-anchor="start" x="537.5" y="-662.8" font-family="Helvetica,sans-Serif" font-size="11.00" fill="#000000">uuid</text>
<polygon fill="#ffffff" stroke="transparent" points="517.5,-633.7 517.5,-655.7 700.5,-655.7 700.5,-633.7 517.5,-633.7"/>
<polygon fill="none" stroke="#000000" points="517.5,-633.7 517.5,-655.7 700.5,-655.7 700.5,-633.7 517.5,-633.7"/>
<image xlink:href="../../images/foreignKeys.png" width="11px" height="12px" preserveAspectRatio="xMinYMin meet" x="522.5" y="-650.7"/>
<text text-anchor="start" x="537.5" y="-640.8" font-family="Helvetica,sans-Serif" font-size="11.00" fill="#000000">procedure_order_id</text>
<polygon fill="#ffffff" stroke="transparent" points="517.5,-611.7 517.5,-633.7 700.5,-633.7 700.5,-611.7 517.5,-611.7"/>
<polygon fill="none" stroke="#000000" points="517.5,-611.7 517.5,-633.7 700.5,-633.7 700.5,-611.7 517.5,-611.7"/>
<image xlink:href="../../images/foreignKeys.png" width="11px" height="12px" preserveAspectRatio="xMinYMin meet" x="522.5" y="-628.7"/>
<text text-anchor="start" x="537.5" y="-618.8" font-family="Helvetica,sans-Serif" font-size="11.00" fill="#000000">procedure_order_seq</text>
<polygon fill="#ffffff" stroke="transparent" points="517.5,-589.7 517.5,-611.7 700.5,-611.7 700.5,-589.7 517.5,-589.7"/>
<polygon fill="none" stroke="#000000" points="517.5,-589.7 517.5,-611.7 700.5,-611.7 700.5,-589.7 517.5,-589.7"/>
<text text-anchor="start" x="537.5" y="-596.8" font-family="Helvetica,sans-Serif" font-size="11.00" fill="#000000">specimen_identifier</text>
<polygon fill="#ffffff" stroke="transparent" points="517.5,-567.7 517.5,-589.7 700.5,-589.7 700.5,-567.7 517.5,-567.7"/>
<polygon fill="none" stroke="#000000" points="517.5,-567.7 517.5,-589.7 700.5,-589.7 700.5,-567.7 517.5,-567.7"/>
<text text-anchor="start" x="537.5" y="-574.8" font-family="Helvetica,sans-Serif" font-size="11.00" fill="#000000">accession_identifier</text>
<polygon fill="none" stroke="#000000" points="517.5,-545.7 517.5,-567.7 700.5,-567.7 700.5,-545.7 517.5,-545.7"/>
<image xlink:href="../../images/foreignKeys.png" width="11px" height="12px" preserveAspectRatio="xMinYMin meet" x="522.5" y="-562.7"/>
<text text-anchor="start" x="537.5" y="-552.8" font-family="Helvetica,sans-Serif" font-size="11.00" fill="#000000">specimen_type_code</text>
<polygon fill="none" stroke="#000000" points="517.5,-523.7 517.5,-545.7 700.5,-545.7 700.5,-523.7 517.5,-523.7"/>
<image xlink:href="../../images/foreignKeys.png" width="11px" height="12px" preserveAspectRatio="xMinYMin meet" x="522.5" y="-540.7"/>
<text text-anchor="start" x="537.5" y="-530.8" font-family="Helvetica,sans-Serif" font-size="11.00" fill="#000000">collection_method_code</text>
<polygon fill="none" stroke="#000000" points="517.5,-501.7 517.5,-523.7 700.5,-523.7 700.5,-501.7 517.5,-501.7"/>
<image xlink:href="../../images/foreignKeys.png" width="11px" height="12px" preserveAspectRatio="xMinYMin meet" x="522.5" y="-518.7"/>
<text text-anchor="start" x="537.5" y="-508.8" font-family="Helvetica,sans-Serif" font-size="11.00" fill="#000000">specimen_location_code</text>
<polygon fill="none" stroke="#000000" points="517.5,-479.7 517.5,-501.7 700.5,-501.7 700.5,-479.7 517.5,-479.7"/>
<image xlink:href="../../images/foreignKeys.png" width="11px" height="12px" preserveAspectRatio="xMinYMin meet" x="522.5" y="-496.7"/>
<text text-anchor="start" x="537.5" y="-486.8" font-family="Helvetica,sans-Serif" font-size="11.00" fill="#000000">condition_code</text>
<polygon fill="none" stroke="#000000" points="517.5,-457.7 517.5,-479.7 700.5,-479.7 700.5,-457.7 517.5,-457.7"/>
<image xlink:href="../../images/foreignKeys.png" width="11px" height="12px" preserveAspectRatio="xMinYMin meet" x="522.5" y="-474.7"/>
<text text-anchor="start" x="537.5" y="-464.8" font-family="Helvetica,sans-Serif" font-size="11.00" fill="#000000">created_by</text>
<polygon fill="none" stroke="#000000" points="517.5,-435.7 517.5,-457.7 700.5,-457.7 700.5,-435.7 517.5,-435.7"/>
<image xlink:href="../../images/foreignKeys.png" width="11px" height="12px" preserveAspectRatio="xMinYMin meet" x="522.5" y="-452.7"/>
<text text-anchor="start" x="537.5" y="-442.8" font-family="Helvetica,sans-Serif" font-size="11.00" fill="#000000">updated_by</text>
<polygon fill="none" stroke="#000000" points="517.5,-416.7 517.5,-435.7 700.5,-435.7 700.5,-416.7 517.5,-416.7"/>
<text text-anchor="start" x="520.5" y="-422.8" font-family="Helvetica,sans-Serif" font-size="11.00" fill="#000000">...</text>
<polygon fill="#ffffff" stroke="transparent" points="517.5,-397.7 517.5,-416.7 607.5,-416.7 607.5,-397.7 517.5,-397.7"/>
<polygon fill="none" stroke="#000000" points="517.5,-397.7 517.5,-416.7 607.5,-416.7 607.5,-397.7 517.5,-397.7"/>
<text text-anchor="start" x="520.5" y="-403.8" font-family="Helvetica,sans-Serif" font-size="11.00" fill="#000000">&lt; 8</text>
<polygon fill="#ffffff" stroke="transparent" points="607.5,-397.7 607.5,-416.7 653.5,-416.7 653.5,-397.7 607.5,-397.7"/>
<polygon fill="none" stroke="#000000" points="607.5,-397.7 607.5,-416.7 653.5,-416.7 653.5,-397.7 607.5,-397.7"/>
<text text-anchor="start" x="644.3862" y="-403.8" font-family="Helvetica,sans-Serif" font-size="11.00" fill="#000000"> &#160;</text>
<polygon fill="#ffffff" stroke="transparent" points="653.5,-397.7 653.5,-416.7 700.5,-416.7 700.5,-397.7 653.5,-397.7"/>
<polygon fill="none" stroke="#000000" points="653.5,-397.7 653.5,-416.7 700.5,-416.7 700.5,-397.7 653.5,-397.7"/>
<text text-anchor="start" x="691.3862" y="-403.8" font-family="Helvetica,sans-Serif" font-size="11.00" fill="#000000"> &#160;</text>
</a>
</g>
</g>
<!-- procedure_specimen&#45;&gt;procedure_order_code -->
<g id="edge4" class="edge">
<title>procedure_specimen:w&#45;&gt;procedure_order_code:e</title>
<path fill="none" stroke="#000000" d="M503.5458,-619.0214C490.3193,-611.0105 486.6947,-592.7 466,-592.7"/>
<polygon fill="#000000" stroke="#000000" points="509.7643,-620.6607 516.5823,-626.1811 513.6321,-621.6803 517.5,-622.7 517.5,-622.7 517.5,-622.7 513.6321,-621.6803 518.4177,-619.2189 509.7643,-620.6607 509.7643,-620.6607"/>
<ellipse fill="none" stroke="#000000" cx="506.67" cy="-619.8449" rx="3.2" ry="3.2"/>
</g>
<!-- procedure_specimen&#45;&gt;procedure_order -->
<g id="edge3" class="edge">
<title>procedure_specimen:w&#45;&gt;procedure_order:e</title>
<path fill="none" stroke="#000000" d="M503.2516,-647.645C494.676,-651.6699 489.5364,-658.7276 476,-661.7 346.2978,-690.1808 310.2924,-674.7 177.5,-674.7"/>
<polygon fill="#000000" stroke="#000000" points="509.6656,-646.3193 518.2287,-648.2255 513.5828,-645.5097 517.5,-644.7 517.5,-644.7 517.5,-644.7 513.5828,-645.5097 516.7713,-641.1745 509.6656,-646.3193 509.6656,-646.3193"/>
<ellipse fill="none" stroke="#000000" cx="506.5318" cy="-646.9671" rx="3.2" ry="3.2"/>
</g>
</g>
</svg>
