<?xml version="1.0" encoding="UTF-8" standalone="no"?>
<!DOCTYPE svg PUBLIC "-//W3C//DTD SVG 1.1//EN"
 "http://www.w3.org/Graphics/SVG/1.1/DTD/svg11.dtd">
<!-- Generated by graphviz version 2.40.1 (20161225.0304)
 -->
<!-- Title: oneDegreeRelationshipsDiagram Pages: 1 -->
<svg width="890pt" height="616pt"
 viewBox="0.00 0.00 890.00 615.70" xmlns="http://www.w3.org/2000/svg" xmlns:xlink="http://www.w3.org/1999/xlink">
<g id="graph0" class="graph" transform="scale(1 1) rotate(0) translate(4 611.7)">
<title>oneDegreeRelationshipsDiagram</title>
<polygon fill="#ffffff" stroke="transparent" points="-4,4 -4,-611.7 886,-611.7 886,4 -4,4"/>
<text text-anchor="middle" x="72.4936" y="-7.3" font-family="Helvetica,sans-Serif" font-size="11.00" fill="#000000">Generated by SchemaSpy</text>
<!-- form_questionnaire_assessments -->
<g id="node1" class="node">
<title>form_questionnaire_assessments</title>
<g id="a_node1"><a xlink:href="../../tables/form_questionnaire_assessments.html" xlink:title="form_questionnaire_assessments" target="_top">
<polygon fill="#ffffff" stroke="transparent" points="611,-318.7 611,-511.7 874,-511.7 874,-318.7 611,-318.7"/>
<polygon fill="#f5f5f5" stroke="transparent" points="611.5,-488.2 611.5,-511.2 874.5,-511.2 874.5,-488.2 611.5,-488.2"/>
<polygon fill="none" stroke="#000000" points="611.5,-488.2 611.5,-511.2 874.5,-511.2 874.5,-488.2 611.5,-488.2"/>
<text text-anchor="start" x="616.5" y="-496.8" font-family="Helvetica,sans-Serif" font-weight="bold" font-size="11.00" fill="#000000">form_questionnaire_assessments</text>
<text text-anchor="start" x="840.0219" y="-496.3" font-family="Helvetica,sans-Serif" font-size="11.00" fill="#000000">[table]</text>
<polygon fill="none" stroke="#000000" points="611.5,-466.2 611.5,-488.2 874.5,-488.2 874.5,-466.2 611.5,-466.2"/>
<image xlink:href="../../images/primaryKeys.png" width="11px" height="12px" preserveAspectRatio="xMinYMin meet" x="616.5" y="-483.2"/>
<text text-anchor="start" x="640.5" y="-473.3" font-family="Helvetica,sans-Serif" font-size="11.00" fill="#000000">id</text>
<polygon fill="none" stroke="#000000" points="611.5,-444.2 611.5,-466.2 874.5,-466.2 874.5,-444.2 611.5,-444.2"/>
<image xlink:href="../../images/foreignKeys.png" width="11px" height="12px" preserveAspectRatio="xMinYMin meet" x="616.5" y="-461.2"/>
<text text-anchor="start" x="640.5" y="-451.3" font-family="Helvetica,sans-Serif" font-size="11.00" fill="#000000">response_id</text>
<polygon fill="none" stroke="#000000" points="611.5,-422.2 611.5,-444.2 874.5,-444.2 874.5,-422.2 611.5,-422.2"/>
<image xlink:href="../../images/foreignKeys.png" width="11px" height="12px" preserveAspectRatio="xMinYMin meet" x="616.5" y="-439.2"/>
<text text-anchor="start" x="640.5" y="-429.3" font-family="Helvetica,sans-Serif" font-size="11.00" fill="#000000">pid</text>
<polygon fill="none" stroke="#000000" points="611.5,-400.2 611.5,-422.2 874.5,-422.2 874.5,-400.2 611.5,-400.2"/>
<image xlink:href="../../images/foreignKeys.png" width="11px" height="12px" preserveAspectRatio="xMinYMin meet" x="616.5" y="-417.2"/>
<text text-anchor="start" x="640.5" y="-407.3" font-family="Helvetica,sans-Serif" font-size="11.00" fill="#000000">user</text>
<polygon fill="none" stroke="#000000" points="611.5,-378.2 611.5,-400.2 874.5,-400.2 874.5,-378.2 611.5,-378.2"/>
<image xlink:href="../../images/foreignKeys.png" width="11px" height="12px" preserveAspectRatio="xMinYMin meet" x="616.5" y="-395.2"/>
<text text-anchor="start" x="640.5" y="-385.3" font-family="Helvetica,sans-Serif" font-size="11.00" fill="#000000">groupname</text>
<polygon fill="none" stroke="#000000" points="611.5,-356.2 611.5,-378.2 874.5,-378.2 874.5,-356.2 611.5,-356.2"/>
<image xlink:href="../../images/foreignKeys.png" width="11px" height="12px" preserveAspectRatio="xMinYMin meet" x="616.5" y="-373.2"/>
<text text-anchor="start" x="640.5" y="-363.3" font-family="Helvetica,sans-Serif" font-size="11.00" fill="#000000">questionnaire_id</text>
<polygon fill="none" stroke="#000000" points="611.5,-337.2 611.5,-356.2 874.5,-356.2 874.5,-337.2 611.5,-337.2"/>
<text text-anchor="start" x="614.5" y="-343.3" font-family="Helvetica,sans-Serif" font-size="11.00" fill="#000000">...</text>
<polygon fill="#ffffff" stroke="transparent" points="611.5,-318.2 611.5,-337.2 741.5,-337.2 741.5,-318.2 611.5,-318.2"/>
<polygon fill="none" stroke="#000000" points="611.5,-318.2 611.5,-337.2 741.5,-337.2 741.5,-318.2 611.5,-318.2"/>
<text text-anchor="start" x="614.5" y="-324.3" font-family="Helvetica,sans-Serif" font-size="11.00" fill="#000000">&lt; 5</text>
<polygon fill="#ffffff" stroke="transparent" points="741.5,-318.2 741.5,-337.2 807.5,-337.2 807.5,-318.2 741.5,-318.2"/>
<polygon fill="none" stroke="#000000" points="741.5,-318.2 741.5,-337.2 807.5,-337.2 807.5,-318.2 741.5,-318.2"/>
<text text-anchor="start" x="798.3862" y="-324.3" font-family="Helvetica,sans-Serif" font-size="11.00" fill="#000000"> &#160;</text>
<polygon fill="#ffffff" stroke="transparent" points="807.5,-318.2 807.5,-337.2 874.5,-337.2 874.5,-318.2 807.5,-318.2"/>
<polygon fill="none" stroke="#000000" points="807.5,-318.2 807.5,-337.2 874.5,-337.2 874.5,-318.2 807.5,-318.2"/>
<text text-anchor="start" x="865.3862" y="-324.3" font-family="Helvetica,sans-Serif" font-size="11.00" fill="#000000"> &#160;</text>
</a>
</g>
</g>
<!-- questionnaire_repository -->
<g id="node2" class="node">
<title>questionnaire_repository</title>
<g id="a_node2"><a xlink:href="../../tables/questionnaire_repository.html" xlink:title="questionnaire_repository" target="_top">
<polygon fill="#ffffff" stroke="transparent" points="8,-38.2 8,-458.2 313,-458.2 313,-38.2 8,-38.2"/>
<polygon fill="#f5f5f5" stroke="transparent" points="10.5,-433.2 10.5,-456.2 311.5,-456.2 311.5,-433.2 10.5,-433.2"/>
<polygon fill="none" stroke="#000000" points="10.5,-433.2 10.5,-456.2 311.5,-456.2 311.5,-433.2 10.5,-433.2"/>
<text text-anchor="start" x="15.5" y="-441.8" font-family="Helvetica,sans-Serif" font-weight="bold" font-size="11.00" fill="#000000">questionnaire_repository</text>
<text text-anchor="start" x="276.5437" y="-441.3" font-family="Helvetica,sans-Serif" font-size="11.00" fill="#000000">[table]</text>
<polygon fill="none" stroke="#000000" points="10.5,-411.2 10.5,-433.2 200.5,-433.2 200.5,-411.2 10.5,-411.2"/>
<image xlink:href="../../images/primaryKeys.png" width="11px" height="12px" preserveAspectRatio="xMinYMin meet" x="15.5" y="-428.2"/>
<text text-anchor="start" x="30.5" y="-418.3" font-family="Helvetica,sans-Serif" font-size="11.00" fill="#000000">id</text>
<polygon fill="none" stroke="#000000" points="200.5,-411.2 200.5,-433.2 311.5,-433.2 311.5,-411.2 200.5,-411.2"/>
<text text-anchor="start" x="203.5" y="-418.9" font-family="Helvetica,sans-Serif" font-size="11.00" fill="#000000">bigint unsigned[20]</text>
<polygon fill="#ffffff" stroke="transparent" points="10.5,-389.2 10.5,-411.2 200.5,-411.2 200.5,-389.2 10.5,-389.2"/>
<polygon fill="none" stroke="#000000" points="10.5,-389.2 10.5,-411.2 200.5,-411.2 200.5,-389.2 10.5,-389.2"/>
<text text-anchor="start" x="30.5" y="-396.3" font-family="Helvetica,sans-Serif" font-size="11.00" fill="#000000">uuid</text>
<polygon fill="none" stroke="#000000" points="200.5,-389.2 200.5,-411.2 311.5,-411.2 311.5,-389.2 200.5,-389.2"/>
<text text-anchor="start" x="203.5" y="-396.9" font-family="Helvetica,sans-Serif" font-size="11.00" fill="#000000">binary[16]</text>
<polygon fill="none" stroke="#000000" points="10.5,-367.2 10.5,-389.2 200.5,-389.2 200.5,-367.2 10.5,-367.2"/>
<image xlink:href="../../images/primaryKeys.png" width="11px" height="12px" preserveAspectRatio="xMinYMin meet" x="15.5" y="-384.2"/>
<text text-anchor="start" x="30.5" y="-374.3" font-family="Helvetica,sans-Serif" font-size="11.00" fill="#000000">questionnaire_id</text>
<polygon fill="none" stroke="#000000" points="200.5,-367.2 200.5,-389.2 311.5,-389.2 311.5,-367.2 200.5,-367.2"/>
<text text-anchor="start" x="203.5" y="-374.9" font-family="Helvetica,sans-Serif" font-size="11.00" fill="#000000">varchar[255]</text>
<polygon fill="none" stroke="#000000" points="10.5,-345.2 10.5,-367.2 200.5,-367.2 200.5,-345.2 10.5,-345.2"/>
<text text-anchor="start" x="30.5" y="-352.3" font-family="Helvetica,sans-Serif" font-size="11.00" fill="#000000">provider</text>
<polygon fill="none" stroke="#000000" points="200.5,-345.2 200.5,-367.2 311.5,-367.2 311.5,-345.2 200.5,-345.2"/>
<text text-anchor="start" x="203.5" y="-352.9" font-family="Helvetica,sans-Serif" font-size="11.00" fill="#000000">int unsigned[10]</text>
<polygon fill="none" stroke="#000000" points="10.5,-323.2 10.5,-345.2 200.5,-345.2 200.5,-323.2 10.5,-323.2"/>
<text text-anchor="start" x="30.5" y="-330.3" font-family="Helvetica,sans-Serif" font-size="11.00" fill="#000000">version</text>
<polygon fill="none" stroke="#000000" points="200.5,-323.2 200.5,-345.2 311.5,-345.2 311.5,-323.2 200.5,-323.2"/>
<text text-anchor="start" x="203.5" y="-330.9" font-family="Helvetica,sans-Serif" font-size="11.00" fill="#000000">int[10]</text>
<polygon fill="none" stroke="#000000" points="10.5,-301.2 10.5,-323.2 200.5,-323.2 200.5,-301.2 10.5,-301.2"/>
<text text-anchor="start" x="30.5" y="-308.3" font-family="Helvetica,sans-Serif" font-size="11.00" fill="#000000">created_date</text>
<polygon fill="none" stroke="#000000" points="200.5,-301.2 200.5,-323.2 311.5,-323.2 311.5,-301.2 200.5,-301.2"/>
<text text-anchor="start" x="203.5" y="-308.9" font-family="Helvetica,sans-Serif" font-size="11.00" fill="#000000">datetime[19]</text>
<polygon fill="none" stroke="#000000" points="10.5,-279.2 10.5,-301.2 200.5,-301.2 200.5,-279.2 10.5,-279.2"/>
<text text-anchor="start" x="30.5" y="-286.3" font-family="Helvetica,sans-Serif" font-size="11.00" fill="#000000">modified_date</text>
<polygon fill="none" stroke="#000000" points="200.5,-279.2 200.5,-301.2 311.5,-301.2 311.5,-279.2 200.5,-279.2"/>
<text text-anchor="start" x="203.5" y="-286.9" font-family="Helvetica,sans-Serif" font-size="11.00" fill="#000000">datetime[19]</text>
<polygon fill="#ffffff" stroke="transparent" points="10.5,-257.2 10.5,-279.2 200.5,-279.2 200.5,-257.2 10.5,-257.2"/>
<polygon fill="none" stroke="#000000" points="10.5,-257.2 10.5,-279.2 200.5,-279.2 200.5,-257.2 10.5,-257.2"/>
<text text-anchor="start" x="30.5" y="-264.3" font-family="Helvetica,sans-Serif" font-size="11.00" fill="#000000">name</text>
<polygon fill="none" stroke="#000000" points="200.5,-257.2 200.5,-279.2 311.5,-279.2 311.5,-257.2 200.5,-257.2"/>
<text text-anchor="start" x="203.5" y="-264.9" font-family="Helvetica,sans-Serif" font-size="11.00" fill="#000000">varchar[255]</text>
<polygon fill="none" stroke="#000000" points="10.5,-235.2 10.5,-257.2 200.5,-257.2 200.5,-235.2 10.5,-235.2"/>
<text text-anchor="start" x="30.5" y="-242.3" font-family="Helvetica,sans-Serif" font-size="11.00" fill="#000000">type</text>
<polygon fill="none" stroke="#000000" points="200.5,-235.2 200.5,-257.2 311.5,-257.2 311.5,-235.2 200.5,-235.2"/>
<text text-anchor="start" x="203.5" y="-242.9" font-family="Helvetica,sans-Serif" font-size="11.00" fill="#000000">varchar[63]</text>
<polygon fill="none" stroke="#000000" points="10.5,-213.2 10.5,-235.2 200.5,-235.2 200.5,-213.2 10.5,-213.2"/>
<text text-anchor="start" x="30.5" y="-220.3" font-family="Helvetica,sans-Serif" font-size="11.00" fill="#000000">profile</text>
<polygon fill="none" stroke="#000000" points="200.5,-213.2 200.5,-235.2 311.5,-235.2 311.5,-213.2 200.5,-213.2"/>
<text text-anchor="start" x="203.5" y="-220.9" font-family="Helvetica,sans-Serif" font-size="11.00" fill="#000000">varchar[255]</text>
<polygon fill="none" stroke="#000000" points="10.5,-191.2 10.5,-213.2 200.5,-213.2 200.5,-191.2 10.5,-191.2"/>
<text text-anchor="start" x="30.5" y="-198.3" font-family="Helvetica,sans-Serif" font-size="11.00" fill="#000000">active</text>
<polygon fill="none" stroke="#000000" points="200.5,-191.2 200.5,-213.2 311.5,-213.2 311.5,-191.2 200.5,-191.2"/>
<text text-anchor="start" x="203.5" y="-198.9" font-family="Helvetica,sans-Serif" font-size="11.00" fill="#000000">tinyint[3]</text>
<polygon fill="none" stroke="#000000" points="10.5,-169.2 10.5,-191.2 200.5,-191.2 200.5,-169.2 10.5,-169.2"/>
<text text-anchor="start" x="30.5" y="-176.3" font-family="Helvetica,sans-Serif" font-size="11.00" fill="#000000">status</text>
<polygon fill="none" stroke="#000000" points="200.5,-169.2 200.5,-191.2 311.5,-191.2 311.5,-169.2 200.5,-169.2"/>
<text text-anchor="start" x="203.5" y="-176.9" font-family="Helvetica,sans-Serif" font-size="11.00" fill="#000000">varchar[31]</text>
<polygon fill="none" stroke="#000000" points="10.5,-147.2 10.5,-169.2 200.5,-169.2 200.5,-147.2 10.5,-147.2"/>
<text text-anchor="start" x="30.5" y="-154.3" font-family="Helvetica,sans-Serif" font-size="11.00" fill="#000000">source_url</text>
<polygon fill="none" stroke="#000000" points="200.5,-147.2 200.5,-169.2 311.5,-169.2 311.5,-147.2 200.5,-147.2"/>
<text text-anchor="start" x="203.5" y="-154.9" font-family="Helvetica,sans-Serif" font-size="11.00" fill="#000000">text[65535]</text>
<polygon fill="none" stroke="#000000" points="10.5,-125.2 10.5,-147.2 200.5,-147.2 200.5,-125.2 10.5,-125.2"/>
<text text-anchor="start" x="30.5" y="-132.3" font-family="Helvetica,sans-Serif" font-size="11.00" fill="#000000">code</text>
<polygon fill="none" stroke="#000000" points="200.5,-125.2 200.5,-147.2 311.5,-147.2 311.5,-125.2 200.5,-125.2"/>
<text text-anchor="start" x="203.5" y="-132.9" font-family="Helvetica,sans-Serif" font-size="11.00" fill="#000000">varchar[255]</text>
<polygon fill="none" stroke="#000000" points="10.5,-103.2 10.5,-125.2 200.5,-125.2 200.5,-103.2 10.5,-103.2"/>
<text text-anchor="start" x="30.5" y="-110.3" font-family="Helvetica,sans-Serif" font-size="11.00" fill="#000000">code_display</text>
<polygon fill="none" stroke="#000000" points="200.5,-103.2 200.5,-125.2 311.5,-125.2 311.5,-103.2 200.5,-103.2"/>
<text text-anchor="start" x="203.5" y="-110.9" font-family="Helvetica,sans-Serif" font-size="11.00" fill="#000000">text[65535]</text>
<polygon fill="none" stroke="#000000" points="10.5,-81.2 10.5,-103.2 200.5,-103.2 200.5,-81.2 10.5,-81.2"/>
<text text-anchor="start" x="30.5" y="-88.3" font-family="Helvetica,sans-Serif" font-size="11.00" fill="#000000">questionnaire</text>
<polygon fill="none" stroke="#000000" points="200.5,-81.2 200.5,-103.2 311.5,-103.2 311.5,-81.2 200.5,-81.2"/>
<text text-anchor="start" x="203.1115" y="-88.9" font-family="Helvetica,sans-Serif" font-size="11.00" fill="#000000">longtext[2147483647]</text>
<polygon fill="none" stroke="#000000" points="10.5,-59.2 10.5,-81.2 200.5,-81.2 200.5,-59.2 10.5,-59.2"/>
<text text-anchor="start" x="30.5" y="-66.3" font-family="Helvetica,sans-Serif" font-size="11.00" fill="#000000">lform</text>
<polygon fill="none" stroke="#000000" points="200.5,-59.2 200.5,-81.2 311.5,-81.2 311.5,-59.2 200.5,-59.2"/>
<text text-anchor="start" x="203.1115" y="-66.9" font-family="Helvetica,sans-Serif" font-size="11.00" fill="#000000">longtext[2147483647]</text>
<polygon fill="#ffffff" stroke="transparent" points="10.5,-40.2 10.5,-59.2 109.5,-59.2 109.5,-40.2 10.5,-40.2"/>
<polygon fill="none" stroke="#000000" points="10.5,-40.2 10.5,-59.2 109.5,-59.2 109.5,-40.2 10.5,-40.2"/>
<text text-anchor="start" x="13.5" y="-46.3" font-family="Helvetica,sans-Serif" font-size="11.00" fill="#000000">&lt; 0</text>
<polygon fill="#ffffff" stroke="transparent" points="109.5,-40.2 109.5,-59.2 200.5,-59.2 200.5,-40.2 109.5,-40.2"/>
<polygon fill="none" stroke="#000000" points="109.5,-40.2 109.5,-59.2 200.5,-59.2 200.5,-40.2 109.5,-40.2"/>
<text text-anchor="start" x="191.3862" y="-46.3" font-family="Helvetica,sans-Serif" font-size="11.00" fill="#000000"> &#160;</text>
<polygon fill="#ffffff" stroke="transparent" points="200.5,-40.2 200.5,-59.2 311.5,-59.2 311.5,-40.2 200.5,-40.2"/>
<polygon fill="none" stroke="#000000" points="200.5,-40.2 200.5,-59.2 311.5,-59.2 311.5,-40.2 200.5,-40.2"/>
<text text-anchor="start" x="292.9053" y="-46.3" font-family="Helvetica,sans-Serif" font-size="11.00" fill="#000000">2 &gt;</text>
<polygon fill="none" stroke="#000000" stroke-width="2" points="9,-39.2 9,-457.2 312,-457.2 312,-39.2 9,-39.2"/>
</a>
</g>
</g>
<!-- form_questionnaire_assessments&#45;&gt;questionnaire_repository -->
<g id="edge1" class="edge">
<title>form_questionnaire_assessments:w&#45;&gt;questionnaire_repository:e</title>
<path fill="none" stroke="#000000" d="M597.5611,-362.329C585.8968,-350.9896 591.6277,-322.9746 570,-312.2 484.0728,-269.3922 438.278,-266.2302 354,-312.2 323.3712,-328.9066 346.3889,-378.2 311.5,-378.2"/>
<polygon fill="#000000" stroke="#000000" points="603.9478,-364.5609 610.3124,-370.5985 607.7239,-365.8804 611.5,-367.2 611.5,-367.2 611.5,-367.2 607.7239,-365.8804 612.6876,-363.8015 603.9478,-364.5609 603.9478,-364.5609"/>
<ellipse fill="none" stroke="#000000" cx="600.927" cy="-363.5052" rx="3.2" ry="3.2"/>
</g>
<!-- questionnaire_response -->
<g id="node3" class="node">
<title>questionnaire_response</title>
<g id="a_node3"><a xlink:href="../../tables/questionnaire_response.html" xlink:title="questionnaire_response" target="_top">
<polygon fill="#ffffff" stroke="transparent" points="362,-322.7 362,-603.7 562,-603.7 562,-322.7 362,-322.7"/>
<polygon fill="#f5f5f5" stroke="transparent" points="362,-580.2 362,-603.2 562,-603.2 562,-580.2 362,-580.2"/>
<polygon fill="none" stroke="#000000" points="362,-580.2 362,-603.2 562,-603.2 562,-580.2 362,-580.2"/>
<text text-anchor="start" x="367" y="-588.8" font-family="Helvetica,sans-Serif" font-weight="bold" font-size="11.00" fill="#000000">questionnaire_response</text>
<text text-anchor="start" x="527.5219" y="-588.3" font-family="Helvetica,sans-Serif" font-size="11.00" fill="#000000">[table]</text>
<polygon fill="none" stroke="#000000" points="362,-558.2 362,-580.2 562,-580.2 562,-558.2 362,-558.2"/>
<image xlink:href="../../images/primaryKeys.png" width="11px" height="12px" preserveAspectRatio="xMinYMin meet" x="367" y="-575.2"/>
<text text-anchor="start" x="388" y="-565.3" font-family="Helvetica,sans-Serif" font-size="11.00" fill="#000000">id</text>
<polygon fill="#ffffff" stroke="transparent" points="362,-536.2 362,-558.2 562,-558.2 562,-536.2 362,-536.2"/>
<polygon fill="none" stroke="#000000" points="362,-536.2 362,-558.2 562,-558.2 562,-536.2 362,-536.2"/>
<text text-anchor="start" x="388" y="-543.3" font-family="Helvetica,sans-Serif" font-size="11.00" fill="#000000">uuid</text>
<polygon fill="none" stroke="#000000" points="362,-514.2 362,-536.2 562,-536.2 562,-514.2 362,-514.2"/>
<image xlink:href="../../images/primaryKeys.png" width="11px" height="12px" preserveAspectRatio="xMinYMin meet" x="367" y="-531.2"/>
<text text-anchor="start" x="388" y="-521.3" font-family="Helvetica,sans-Serif" font-size="11.00" fill="#000000">response_id</text>
<polygon fill="none" stroke="#000000" points="362,-492.2 362,-514.2 562,-514.2 562,-492.2 362,-492.2"/>
<image xlink:href="../../images/foreignKeys.png" width="11px" height="12px" preserveAspectRatio="xMinYMin meet" x="367" y="-509.2"/>
<text text-anchor="start" x="388" y="-499.3" font-family="Helvetica,sans-Serif" font-size="11.00" fill="#000000">questionnaire_foreign_id</text>
<polygon fill="#ffffff" stroke="transparent" points="362,-470.2 362,-492.2 562,-492.2 562,-470.2 362,-470.2"/>
<polygon fill="none" stroke="#000000" points="362,-470.2 362,-492.2 562,-492.2 562,-470.2 362,-470.2"/>
<text text-anchor="start" x="388" y="-477.3" font-family="Helvetica,sans-Serif" font-size="11.00" fill="#000000">questionnaire_id</text>
<polygon fill="#ffffff" stroke="transparent" points="362,-448.2 362,-470.2 562,-470.2 562,-448.2 362,-448.2"/>
<polygon fill="none" stroke="#000000" points="362,-448.2 362,-470.2 562,-470.2 562,-448.2 362,-448.2"/>
<text text-anchor="start" x="388" y="-455.3" font-family="Helvetica,sans-Serif" font-size="11.00" fill="#000000">questionnaire_name</text>
<polygon fill="#ffffff" stroke="transparent" points="362,-426.2 362,-448.2 562,-448.2 562,-426.2 362,-426.2"/>
<polygon fill="none" stroke="#000000" points="362,-426.2 362,-448.2 562,-448.2 562,-426.2 362,-426.2"/>
<image xlink:href="../../images/foreignKeys.png" width="11px" height="12px" preserveAspectRatio="xMinYMin meet" x="367" y="-443.2"/>
<text text-anchor="start" x="388" y="-433.3" font-family="Helvetica,sans-Serif" font-size="11.00" fill="#000000">patient_id</text>
<polygon fill="none" stroke="#000000" points="362,-404.2 362,-426.2 562,-426.2 562,-404.2 362,-404.2"/>
<image xlink:href="../../images/foreignKeys.png" width="11px" height="12px" preserveAspectRatio="xMinYMin meet" x="367" y="-421.2"/>
<text text-anchor="start" x="388" y="-411.3" font-family="Helvetica,sans-Serif" font-size="11.00" fill="#000000">encounter</text>
<polygon fill="none" stroke="#000000" points="362,-382.2 362,-404.2 562,-404.2 562,-382.2 362,-382.2"/>
<image xlink:href="../../images/foreignKeys.png" width="11px" height="12px" preserveAspectRatio="xMinYMin meet" x="367" y="-399.2"/>
<text text-anchor="start" x="388" y="-389.3" font-family="Helvetica,sans-Serif" font-size="11.00" fill="#000000">audit_user_id</text>
<polygon fill="none" stroke="#000000" points="362,-360.2 362,-382.2 562,-382.2 562,-360.2 362,-360.2"/>
<image xlink:href="../../images/foreignKeys.png" width="11px" height="12px" preserveAspectRatio="xMinYMin meet" x="367" y="-377.2"/>
<text text-anchor="start" x="388" y="-367.3" font-family="Helvetica,sans-Serif" font-size="11.00" fill="#000000">creator_user_id</text>
<polygon fill="none" stroke="#000000" points="362,-341.2 362,-360.2 562,-360.2 562,-341.2 362,-341.2"/>
<text text-anchor="start" x="365" y="-347.3" font-family="Helvetica,sans-Serif" font-size="11.00" fill="#000000">...</text>
<polygon fill="#ffffff" stroke="transparent" points="362,-322.2 362,-341.2 456,-341.2 456,-322.2 362,-322.2"/>
<polygon fill="none" stroke="#000000" points="362,-322.2 362,-341.2 456,-341.2 456,-322.2 362,-322.2"/>
<text text-anchor="start" x="365" y="-328.3" font-family="Helvetica,sans-Serif" font-size="11.00" fill="#000000">&lt; 5</text>
<polygon fill="#ffffff" stroke="transparent" points="456,-322.2 456,-341.2 504,-341.2 504,-322.2 456,-322.2"/>
<polygon fill="none" stroke="#000000" points="456,-322.2 456,-341.2 504,-341.2 504,-322.2 456,-322.2"/>
<text text-anchor="start" x="494.8862" y="-328.3" font-family="Helvetica,sans-Serif" font-size="11.00" fill="#000000"> &#160;</text>
<polygon fill="#ffffff" stroke="transparent" points="504,-322.2 504,-341.2 562,-341.2 562,-322.2 504,-322.2"/>
<polygon fill="none" stroke="#000000" points="504,-322.2 504,-341.2 562,-341.2 562,-322.2 504,-322.2"/>
<text text-anchor="start" x="543.4053" y="-328.3" font-family="Helvetica,sans-Serif" font-size="11.00" fill="#000000">1 &gt;</text>
</a>
</g>
</g>
<!-- form_questionnaire_assessments&#45;&gt;questionnaire_response -->
<g id="edge2" class="edge">
<title>form_questionnaire_assessments:w&#45;&gt;questionnaire_response:e</title>
<path fill="none" stroke="#000000" d="M597.4069,-460.2342C580.4151,-476.2846 593.8524,-525.2 562,-525.2"/>
<polygon fill="#000000" stroke="#000000" points="603.9662,-457.8912 612.711,-458.5902 607.7331,-456.5456 611.5,-455.2 611.5,-455.2 611.5,-455.2 607.7331,-456.5456 610.289,-451.8098 603.9662,-457.8912 603.9662,-457.8912"/>
<ellipse fill="none" stroke="#000000" cx="600.9527" cy="-458.9677" rx="3.2" ry="3.2"/>
</g>
<!-- questionnaire_response&#45;&gt;questionnaire_repository -->
<g id="edge3" class="edge">
<title>questionnaire_response:w&#45;&gt;questionnaire_repository:e</title>
<path fill="none" stroke="#000000" d="M348.2301,-498.8451C327.7184,-482.0206 347.9577,-422.2 311.5,-422.2"/>
<polygon fill="#000000" stroke="#000000" points="354.3724,-500.7876 360.9144,-506.6324 358.1862,-501.9938 362,-503.2 362,-503.2 362,-503.2 358.1862,-501.9938 363.0856,-499.7676 354.3724,-500.7876 354.3724,-500.7876"/>
<ellipse fill="none" stroke="#000000" cx="351.3213" cy="-499.8227" rx="3.2" ry="3.2"/>
</g>
</g>
</svg>
