<?xml version="1.0" encoding="UTF-8" standalone="no"?>
<!DOCTYPE svg PUBLIC "-//W3C//DTD SVG 1.1//EN"
 "http://www.w3.org/Graphics/SVG/1.1/DTD/svg11.dtd">
<!-- Generated by graphviz version 2.40.1 (20161225.0304)
 -->
<!-- Title: twoDegreesRelationshipsDiagram Pages: 1 -->
<svg width="734pt" height="1390pt"
 viewBox="0.00 0.00 734.00 1390.21" xmlns="http://www.w3.org/2000/svg" xmlns:xlink="http://www.w3.org/1999/xlink">
<g id="graph0" class="graph" transform="scale(1 1) rotate(0) translate(4 1386.2101)">
<title>twoDegreesRelationshipsDiagram</title>
<polygon fill="#ffffff" stroke="transparent" points="-4,4 -4,-1386.2101 730,-1386.2101 730,4 -4,4"/>
<text text-anchor="middle" x="72.4936" y="-7.3" font-family="Helvetica,sans-Serif" font-size="11.00" fill="#000000">Generated by SchemaSpy</text>
<!-- amendments -->
<g id="node1" class="node">
<title>amendments</title>
<g id="a_node1"><a xlink:href="../../tables/amendments.html" xlink:title="amendments" target="_top">
<polygon fill="#ffffff" stroke="transparent" points="272,-1004.1936 272,-1065.1936 398,-1065.1936 398,-1004.1936 272,-1004.1936"/>
<polygon fill="#f5f5f5" stroke="transparent" points="272,-1041.6936 272,-1064.6936 398,-1064.6936 398,-1041.6936 272,-1041.6936"/>
<polygon fill="none" stroke="#000000" points="272,-1041.6936 272,-1064.6936 398,-1064.6936 398,-1041.6936 272,-1041.6936"/>
<text text-anchor="start" x="277" y="-1050.2936" font-family="Helvetica,sans-Serif" font-weight="bold" font-size="11.00" fill="#000000">amendments</text>
<text text-anchor="start" x="363.5219" y="-1049.7936" font-family="Helvetica,sans-Serif" font-size="11.00" fill="#000000">[table]</text>
<polygon fill="none" stroke="#000000" points="272,-1022.6936 272,-1041.6936 398,-1041.6936 398,-1022.6936 272,-1022.6936"/>
<text text-anchor="start" x="275" y="-1028.7936" font-family="Helvetica,sans-Serif" font-size="11.00" fill="#000000">...</text>
<polygon fill="#ffffff" stroke="transparent" points="272,-1003.6936 272,-1022.6936 329,-1022.6936 329,-1003.6936 272,-1003.6936"/>
<polygon fill="none" stroke="#000000" points="272,-1003.6936 272,-1022.6936 329,-1022.6936 329,-1003.6936 272,-1003.6936"/>
<text text-anchor="start" x="275" y="-1009.7936" font-family="Helvetica,sans-Serif" font-size="11.00" fill="#000000">&lt; 5</text>
<polygon fill="#ffffff" stroke="transparent" points="329,-1003.6936 329,-1022.6936 359,-1022.6936 359,-1003.6936 329,-1003.6936"/>
<polygon fill="none" stroke="#000000" points="329,-1003.6936 329,-1022.6936 359,-1022.6936 359,-1003.6936 329,-1003.6936"/>
<text text-anchor="start" x="349.8862" y="-1009.7936" font-family="Helvetica,sans-Serif" font-size="11.00" fill="#000000"> &#160;</text>
<polygon fill="#ffffff" stroke="transparent" points="359,-1003.6936 359,-1022.6936 398,-1022.6936 398,-1003.6936 359,-1003.6936"/>
<polygon fill="none" stroke="#000000" points="359,-1003.6936 359,-1022.6936 398,-1022.6936 398,-1003.6936 359,-1003.6936"/>
<text text-anchor="start" x="379.4053" y="-1009.7936" font-family="Helvetica,sans-Serif" font-size="11.00" fill="#000000">1 &gt;</text>
</a>
</g>
</g>
<!-- list_options -->
<g id="node2" class="node">
<title>list_options</title>
<g id="a_node2"><a xlink:href="../../tables/list_options.html" xlink:title="list_options" target="_top">
<polygon fill="#ffffff" stroke="transparent" points="12,-632.1936 12,-693.1936 128,-693.1936 128,-632.1936 12,-632.1936"/>
<polygon fill="#f5f5f5" stroke="transparent" points="12,-669.6936 12,-692.6936 128,-692.6936 128,-669.6936 12,-669.6936"/>
<polygon fill="none" stroke="#000000" points="12,-669.6936 12,-692.6936 128,-692.6936 128,-669.6936 12,-669.6936"/>
<text text-anchor="start" x="17" y="-678.2936" font-family="Helvetica,sans-Serif" font-weight="bold" font-size="11.00" fill="#000000">list_options</text>
<text text-anchor="start" x="93.5219" y="-677.7936" font-family="Helvetica,sans-Serif" font-size="11.00" fill="#000000">[table]</text>
<polygon fill="none" stroke="#000000" points="12,-650.6936 12,-669.6936 128,-669.6936 128,-650.6936 12,-650.6936"/>
<text text-anchor="start" x="15" y="-656.7936" font-family="Helvetica,sans-Serif" font-size="11.00" fill="#000000">...</text>
<polygon fill="#ffffff" stroke="transparent" points="12,-631.6936 12,-650.6936 56,-650.6936 56,-631.6936 12,-631.6936"/>
<polygon fill="none" stroke="#000000" points="12,-631.6936 12,-650.6936 56,-650.6936 56,-631.6936 12,-631.6936"/>
<text text-anchor="start" x="15" y="-637.7936" font-family="Helvetica,sans-Serif" font-size="11.00" fill="#000000"> &#160;</text>
<polygon fill="#ffffff" stroke="transparent" points="56,-631.6936 56,-650.6936 84,-650.6936 84,-631.6936 56,-631.6936"/>
<polygon fill="none" stroke="#000000" points="56,-631.6936 56,-650.6936 84,-650.6936 84,-631.6936 56,-631.6936"/>
<text text-anchor="start" x="74.8862" y="-637.7936" font-family="Helvetica,sans-Serif" font-size="11.00" fill="#000000"> &#160;</text>
<polygon fill="#ffffff" stroke="transparent" points="84,-631.6936 84,-650.6936 128,-650.6936 128,-631.6936 84,-631.6936"/>
<polygon fill="none" stroke="#000000" points="84,-631.6936 84,-650.6936 128,-650.6936 128,-631.6936 84,-631.6936"/>
<text text-anchor="start" x="103.2904" y="-637.7936" font-family="Helvetica,sans-Serif" font-size="11.00" fill="#000000">38 &gt;</text>
</a>
</g>
</g>
<!-- amendments&#45;&gt;list_options -->
<g id="edge1" class="edge">
<title>amendments:w&#45;&gt;list_options:e</title>
<path fill="none" stroke="#000000" d="M257.4696,-1029.7671C220.4229,-1024.5353 201.7036,-1018.3206 173,-987.6936 132.5141,-944.4946 93.4198,-772.1833 77.4921,-697.4599"/>
<polygon fill="#000000" stroke="#000000" points="264.0694,-1030.6421 271.5268,-1035.2623 268.0347,-1031.1678 272,-1031.6936 272,-1031.6936 272,-1031.6936 268.0347,-1031.1678 272.4732,-1028.1248 264.0694,-1030.6421 264.0694,-1030.6421"/>
<ellipse fill="none" stroke="#000000" cx="260.8972" cy="-1030.2215" rx="3.2" ry="3.2"/>
</g>
<!-- amendments&#45;&gt;list_options -->
<g id="edge2" class="edge">
<title>amendments:w&#45;&gt;list_options:e</title>
<path fill="none" stroke="#000000" d="M257.4696,-1033.5832C220.4229,-1037.5353 201.7036,-1031.3206 173,-1000.6936 131.2794,-956.1772 91.0367,-774.5538 76.1002,-697.4442"/>
<polygon fill="#000000" stroke="#000000" points="264.0668,-1032.7253 272.4643,-1035.2635 268.0334,-1032.2094 272,-1031.6936 272,-1031.6936 272,-1031.6936 268.0334,-1032.2094 271.5357,-1028.1236 264.0668,-1032.7253 264.0668,-1032.7253"/>
<ellipse fill="none" stroke="#000000" cx="260.8935" cy="-1033.138" rx="3.2" ry="3.2"/>
</g>
<!-- patient_data -->
<g id="node3" class="node">
<title>patient_data</title>
<g id="a_node3"><a xlink:href="../../tables/patient_data.html" xlink:title="patient_data" target="_top">
<polygon fill="#ffffff" stroke="transparent" points="8,-1004.1936 8,-1065.1936 132,-1065.1936 132,-1004.1936 8,-1004.1936"/>
<polygon fill="#f5f5f5" stroke="transparent" points="8,-1041.6936 8,-1064.6936 132,-1064.6936 132,-1041.6936 8,-1041.6936"/>
<polygon fill="none" stroke="#000000" points="8,-1041.6936 8,-1064.6936 132,-1064.6936 132,-1041.6936 8,-1041.6936"/>
<text text-anchor="start" x="13" y="-1050.2936" font-family="Helvetica,sans-Serif" font-weight="bold" font-size="11.00" fill="#000000">patient_data</text>
<text text-anchor="start" x="97.5219" y="-1049.7936" font-family="Helvetica,sans-Serif" font-size="11.00" fill="#000000">[table]</text>
<polygon fill="none" stroke="#000000" points="8,-1022.6936 8,-1041.6936 132,-1041.6936 132,-1022.6936 8,-1022.6936"/>
<text text-anchor="start" x="11" y="-1028.7936" font-family="Helvetica,sans-Serif" font-size="11.00" fill="#000000">...</text>
<polygon fill="#ffffff" stroke="transparent" points="8,-1003.6936 8,-1022.6936 61,-1022.6936 61,-1003.6936 8,-1003.6936"/>
<polygon fill="none" stroke="#000000" points="8,-1003.6936 8,-1022.6936 61,-1022.6936 61,-1003.6936 8,-1003.6936"/>
<text text-anchor="start" x="11" y="-1009.7936" font-family="Helvetica,sans-Serif" font-size="11.00" fill="#000000">&lt; 5</text>
<polygon fill="#ffffff" stroke="transparent" points="61,-1003.6936 61,-1022.6936 89,-1022.6936 89,-1003.6936 61,-1003.6936"/>
<polygon fill="none" stroke="#000000" points="61,-1003.6936 61,-1022.6936 89,-1022.6936 89,-1003.6936 61,-1003.6936"/>
<text text-anchor="start" x="79.8862" y="-1009.7936" font-family="Helvetica,sans-Serif" font-size="11.00" fill="#000000"> &#160;</text>
<polygon fill="#ffffff" stroke="transparent" points="89,-1003.6936 89,-1022.6936 132,-1022.6936 132,-1003.6936 89,-1003.6936"/>
<polygon fill="none" stroke="#000000" points="89,-1003.6936 89,-1022.6936 132,-1022.6936 132,-1003.6936 89,-1003.6936"/>
<text text-anchor="start" x="107.2904" y="-1009.7936" font-family="Helvetica,sans-Serif" font-size="11.00" fill="#000000">84 &gt;</text>
</a>
</g>
</g>
<!-- amendments&#45;&gt;patient_data -->
<g id="edge3" class="edge">
<title>amendments:w&#45;&gt;patient_data:e</title>
<path fill="none" stroke="#000000" d="M257.5781,-1031.6936C206.9117,-1031.6936 189.1181,-1031.6936 132,-1031.6936"/>
<polygon fill="#000000" stroke="#000000" points="264,-1031.6936 272,-1035.2936 268,-1031.6936 272,-1031.6936 272,-1031.6936 272,-1031.6936 268,-1031.6936 272,-1028.0936 264,-1031.6936 264,-1031.6936"/>
<ellipse fill="none" stroke="#000000" cx="260.8" cy="-1031.6936" rx="3.2" ry="3.2"/>
</g>
<!-- ar_session -->
<g id="node4" class="node">
<title>ar_session</title>
<g id="a_node4"><a xlink:href="../../tables/ar_session.html" xlink:title="ar_session" target="_top">
<polygon fill="#ffffff" stroke="transparent" points="280.5,-758.1936 280.5,-819.1936 389.5,-819.1936 389.5,-758.1936 280.5,-758.1936"/>
<polygon fill="#f5f5f5" stroke="transparent" points="281,-795.6936 281,-818.6936 390,-818.6936 390,-795.6936 281,-795.6936"/>
<polygon fill="none" stroke="#000000" points="281,-795.6936 281,-818.6936 390,-818.6936 390,-795.6936 281,-795.6936"/>
<text text-anchor="start" x="286" y="-804.2936" font-family="Helvetica,sans-Serif" font-weight="bold" font-size="11.00" fill="#000000">ar_session</text>
<text text-anchor="start" x="355.5219" y="-803.7936" font-family="Helvetica,sans-Serif" font-size="11.00" fill="#000000">[table]</text>
<polygon fill="none" stroke="#000000" points="281,-776.6936 281,-795.6936 390,-795.6936 390,-776.6936 281,-776.6936"/>
<text text-anchor="start" x="284" y="-782.7936" font-family="Helvetica,sans-Serif" font-size="11.00" fill="#000000">...</text>
<polygon fill="#ffffff" stroke="transparent" points="281,-757.6936 281,-776.6936 329,-776.6936 329,-757.6936 281,-757.6936"/>
<polygon fill="none" stroke="#000000" points="281,-757.6936 281,-776.6936 329,-776.6936 329,-757.6936 281,-757.6936"/>
<text text-anchor="start" x="284" y="-763.7936" font-family="Helvetica,sans-Serif" font-size="11.00" fill="#000000">&lt; 6</text>
<polygon fill="#ffffff" stroke="transparent" points="329,-757.6936 329,-776.6936 355,-776.6936 355,-757.6936 329,-757.6936"/>
<polygon fill="none" stroke="#000000" points="329,-757.6936 329,-776.6936 355,-776.6936 355,-757.6936 329,-757.6936"/>
<text text-anchor="start" x="345.8862" y="-763.7936" font-family="Helvetica,sans-Serif" font-size="11.00" fill="#000000"> &#160;</text>
<polygon fill="#ffffff" stroke="transparent" points="355,-757.6936 355,-776.6936 390,-776.6936 390,-757.6936 355,-757.6936"/>
<polygon fill="none" stroke="#000000" points="355,-757.6936 355,-776.6936 390,-776.6936 390,-757.6936 355,-757.6936"/>
<text text-anchor="start" x="371.4053" y="-763.7936" font-family="Helvetica,sans-Serif" font-size="11.00" fill="#000000">1 &gt;</text>
</a>
</g>
</g>
<!-- ar_session&#45;&gt;list_options -->
<g id="edge4" class="edge">
<title>ar_session:w&#45;&gt;list_options:e</title>
<path fill="none" stroke="#000000" d="M266.6466,-783.3455C207.1844,-771.0771 150.8721,-728.661 113.8714,-697.3592"/>
<polygon fill="#000000" stroke="#000000" points="273.1049,-784.402 280.4188,-789.2463 277.0525,-785.0478 281,-785.6936 281,-785.6936 281,-785.6936 277.0525,-785.0478 281.5812,-782.1408 273.1049,-784.402 273.1049,-784.402"/>
<ellipse fill="none" stroke="#000000" cx="269.9469" cy="-783.8853" rx="3.2" ry="3.2"/>
</g>
<!-- ar_session&#45;&gt;list_options -->
<g id="edge6" class="edge">
<title>ar_session:w&#45;&gt;list_options:e</title>
<path fill="none" stroke="#000000" d="M266.5664,-784.9858C201.2376,-778.6532 139.72,-731.1767 103.4496,-697.2833"/>
<polygon fill="#000000" stroke="#000000" points="273.0096,-785.3017 280.8237,-789.2892 277.0048,-785.4976 281,-785.6936 281,-785.6936 281,-785.6936 277.0048,-785.4976 281.1763,-782.0979 273.0096,-785.3017 273.0096,-785.3017"/>
<ellipse fill="none" stroke="#000000" cx="269.8134" cy="-785.1449" rx="3.2" ry="3.2"/>
</g>
<!-- ar_session&#45;&gt;list_options -->
<g id="edge7" class="edge">
<title>ar_session:w&#45;&gt;list_options:e</title>
<path fill="none" stroke="#000000" d="M266.3295,-786.6455C195.6147,-787.4392 129.397,-734.4949 94.8751,-697.2518"/>
<polygon fill="#000000" stroke="#000000" points="273.0168,-786.2116 281.2331,-789.286 277.0084,-785.9526 281,-785.6936 281,-785.6936 281,-785.6936 277.0084,-785.9526 280.7669,-782.1011 273.0168,-786.2116 273.0168,-786.2116"/>
<ellipse fill="none" stroke="#000000" cx="269.8235" cy="-786.4189" rx="3.2" ry="3.2"/>
</g>
<!-- ar_session&#45;&gt;patient_data -->
<g id="edge5" class="edge">
<title>ar_session:w&#45;&gt;patient_data:e</title>
<path fill="none" stroke="#000000" d="M266.3286,-785.8468C224.4695,-786.8646 202.7808,-793.7632 173,-829.6936 114.5406,-900.2244 223.6084,-1031.6936 132,-1031.6936"/>
<polygon fill="#000000" stroke="#000000" points="273.0004,-785.7772 281.0376,-789.2934 277.0002,-785.7354 281,-785.6936 281,-785.6936 281,-785.6936 277.0002,-785.7354 280.9624,-782.0938 273.0004,-785.7772 273.0004,-785.7772"/>
<ellipse fill="none" stroke="#000000" cx="269.8006" cy="-785.8106" rx="3.2" ry="3.2"/>
</g>
<!-- billing -->
<g id="node5" class="node">
<title>billing</title>
<g id="a_node5"><a xlink:href="../../tables/billing.html" xlink:title="billing" target="_top">
<polygon fill="#ffffff" stroke="transparent" points="294.5,-1086.1936 294.5,-1147.1936 375.5,-1147.1936 375.5,-1086.1936 294.5,-1086.1936"/>
<polygon fill="#f5f5f5" stroke="transparent" points="295,-1123.6936 295,-1146.6936 376,-1146.6936 376,-1123.6936 295,-1123.6936"/>
<polygon fill="none" stroke="#000000" points="295,-1123.6936 295,-1146.6936 376,-1146.6936 376,-1123.6936 295,-1123.6936"/>
<text text-anchor="start" x="300" y="-1132.2936" font-family="Helvetica,sans-Serif" font-weight="bold" font-size="11.00" fill="#000000">billing</text>
<text text-anchor="start" x="341.5219" y="-1131.7936" font-family="Helvetica,sans-Serif" font-size="11.00" fill="#000000">[table]</text>
<polygon fill="none" stroke="#000000" points="295,-1104.6936 295,-1123.6936 376,-1123.6936 376,-1104.6936 295,-1104.6936"/>
<text text-anchor="start" x="298" y="-1110.7936" font-family="Helvetica,sans-Serif" font-size="11.00" fill="#000000">...</text>
<polygon fill="#ffffff" stroke="transparent" points="295,-1085.6936 295,-1104.6936 334,-1104.6936 334,-1085.6936 295,-1085.6936"/>
<polygon fill="none" stroke="#000000" points="295,-1085.6936 295,-1104.6936 334,-1104.6936 334,-1085.6936 295,-1085.6936"/>
<text text-anchor="start" x="298" y="-1091.7936" font-family="Helvetica,sans-Serif" font-size="11.00" fill="#000000">&lt; 7</text>
<polygon fill="#ffffff" stroke="transparent" points="334,-1085.6936 334,-1104.6936 355,-1104.6936 355,-1085.6936 334,-1085.6936"/>
<polygon fill="none" stroke="#000000" points="334,-1085.6936 334,-1104.6936 355,-1104.6936 355,-1085.6936 334,-1085.6936"/>
<text text-anchor="start" x="345.8862" y="-1091.7936" font-family="Helvetica,sans-Serif" font-size="11.00" fill="#000000"> &#160;</text>
<polygon fill="#ffffff" stroke="transparent" points="355,-1085.6936 355,-1104.6936 376,-1104.6936 376,-1085.6936 355,-1085.6936"/>
<polygon fill="none" stroke="#000000" points="355,-1085.6936 355,-1104.6936 376,-1104.6936 376,-1085.6936 355,-1085.6936"/>
<text text-anchor="start" x="366.8862" y="-1091.7936" font-family="Helvetica,sans-Serif" font-size="11.00" fill="#000000"> &#160;</text>
</a>
</g>
</g>
<!-- billing&#45;&gt;list_options -->
<g id="edge8" class="edge">
<title>billing:w&#45;&gt;list_options:e</title>
<path fill="none" stroke="#000000" d="M280.4017,-1113.7387C233.3935,-1113.9259 208.4832,-1113.2797 173,-1075.6936 146.5894,-1047.7178 94.988,-791.957 76.6571,-697.5195"/>
<polygon fill="#000000" stroke="#000000" points="287,-1113.7183 295.0111,-1117.2936 291,-1113.706 295,-1113.6936 295,-1113.6936 295,-1113.6936 291,-1113.706 294.9889,-1110.0936 287,-1113.7183 287,-1113.7183"/>
<ellipse fill="none" stroke="#000000" cx="283.8001" cy="-1113.7282" rx="3.2" ry="3.2"/>
</g>
<!-- billing&#45;&gt;patient_data -->
<g id="edge9" class="edge">
<title>billing:w&#45;&gt;patient_data:e</title>
<path fill="none" stroke="#000000" d="M280.3081,-1113.4858C234.8025,-1112.0778 216.6639,-1103.1487 173,-1075.6936 150.3719,-1061.4654 158.7296,-1031.6936 132,-1031.6936"/>
<polygon fill="#000000" stroke="#000000" points="287.0008,-1113.5804 294.9491,-1117.2932 291.0004,-1113.637 295,-1113.6936 295,-1113.6936 295,-1113.6936 291.0004,-1113.637 295.0509,-1110.0939 287.0008,-1113.5804 287.0008,-1113.5804"/>
<ellipse fill="none" stroke="#000000" cx="283.8011" cy="-1113.5351" rx="3.2" ry="3.2"/>
</g>
<!-- form_clinical_notes -->
<g id="node6" class="node">
<title>form_clinical_notes</title>
<g id="a_node6"><a xlink:href="../../tables/form_clinical_notes.html" xlink:title="form_clinical_notes" target="_top">
<polygon fill="#ffffff" stroke="transparent" points="251,-922.1936 251,-983.1936 419,-983.1936 419,-922.1936 251,-922.1936"/>
<polygon fill="#f5f5f5" stroke="transparent" points="251,-959.6936 251,-982.6936 419,-982.6936 419,-959.6936 251,-959.6936"/>
<polygon fill="none" stroke="#000000" points="251,-959.6936 251,-982.6936 419,-982.6936 419,-959.6936 251,-959.6936"/>
<text text-anchor="start" x="256" y="-968.2936" font-family="Helvetica,sans-Serif" font-weight="bold" font-size="11.00" fill="#000000">form_clinical_notes</text>
<text text-anchor="start" x="384.5219" y="-967.7936" font-family="Helvetica,sans-Serif" font-size="11.00" fill="#000000">[table]</text>
<polygon fill="none" stroke="#000000" points="251,-940.6936 251,-959.6936 419,-959.6936 419,-940.6936 251,-940.6936"/>
<text text-anchor="start" x="254" y="-946.7936" font-family="Helvetica,sans-Serif" font-size="11.00" fill="#000000">...</text>
<polygon fill="#ffffff" stroke="transparent" points="251,-921.6936 251,-940.6936 333,-940.6936 333,-921.6936 251,-921.6936"/>
<polygon fill="none" stroke="#000000" points="251,-921.6936 251,-940.6936 333,-940.6936 333,-921.6936 251,-921.6936"/>
<text text-anchor="start" x="254" y="-927.7936" font-family="Helvetica,sans-Serif" font-size="11.00" fill="#000000">&lt; 3</text>
<polygon fill="#ffffff" stroke="transparent" points="333,-921.6936 333,-940.6936 376,-940.6936 376,-921.6936 333,-921.6936"/>
<polygon fill="none" stroke="#000000" points="333,-921.6936 333,-940.6936 376,-940.6936 376,-921.6936 333,-921.6936"/>
<text text-anchor="start" x="366.8862" y="-927.7936" font-family="Helvetica,sans-Serif" font-size="11.00" fill="#000000"> &#160;</text>
<polygon fill="#ffffff" stroke="transparent" points="376,-921.6936 376,-940.6936 419,-940.6936 419,-921.6936 376,-921.6936"/>
<polygon fill="none" stroke="#000000" points="376,-921.6936 376,-940.6936 419,-940.6936 419,-921.6936 376,-921.6936"/>
<text text-anchor="start" x="409.8862" y="-927.7936" font-family="Helvetica,sans-Serif" font-size="11.00" fill="#000000"> &#160;</text>
</a>
</g>
</g>
<!-- form_clinical_notes&#45;&gt;list_options -->
<g id="edge10" class="edge">
<title>form_clinical_notes:w&#45;&gt;list_options:e</title>
<path fill="none" stroke="#000000" d="M236.379,-948.1884C130.7397,-930.4301 89.3746,-769.5123 75.7553,-697.3452"/>
<polygon fill="#000000" stroke="#000000" points="243.0421,-948.8743 250.6313,-953.2746 247.021,-949.2839 251,-949.6936 251,-949.6936 251,-949.6936 247.021,-949.2839 251.3687,-946.1125 243.0421,-948.8743 243.0421,-948.8743"/>
<ellipse fill="none" stroke="#000000" cx="239.8589" cy="-948.5466" rx="3.2" ry="3.2"/>
</g>
<!-- form_clinical_notes&#45;&gt;list_options -->
<g id="edge11" class="edge">
<title>form_clinical_notes:w&#45;&gt;list_options:e</title>
<path fill="none" stroke="#000000" d="M236.2981,-949.4331C127.51,-940.3037 86.9173,-771.7823 74.5897,-697.3774"/>
<polygon fill="#000000" stroke="#000000" points="243.0013,-949.5518 250.9362,-953.293 247.0006,-949.6227 251,-949.6936 251,-949.6936 251,-949.6936 247.0006,-949.6227 251.0638,-946.0941 243.0013,-949.5518 243.0013,-949.5518"/>
<ellipse fill="none" stroke="#000000" cx="239.8018" cy="-949.4951" rx="3.2" ry="3.2"/>
</g>
<!-- form_clinical_notes&#45;&gt;patient_data -->
<g id="edge12" class="edge">
<title>form_clinical_notes:w&#45;&gt;patient_data:e</title>
<path fill="none" stroke="#000000" d="M236.4147,-950.8001C209.0561,-955.3631 200.7535,-973.4358 173,-993.6936 152.9321,-1008.3415 156.8452,-1031.6936 132,-1031.6936"/>
<polygon fill="#000000" stroke="#000000" points="243.0229,-950.2988 251.2723,-953.2833 247.0115,-949.9962 251,-949.6936 251,-949.6936 251,-949.6936 247.0115,-949.9962 250.7277,-946.1039 243.0229,-950.2988 243.0229,-950.2988"/>
<ellipse fill="none" stroke="#000000" cx="239.8321" cy="-950.5409" rx="3.2" ry="3.2"/>
</g>
<!-- lists -->
<g id="node7" class="node">
<title>lists</title>
<g id="a_node7"><a xlink:href="../../tables/lists.html" xlink:title="lists" target="_top">
<polygon fill="#ffffff" stroke="transparent" points="301.5,-594.1936 301.5,-655.1936 368.5,-655.1936 368.5,-594.1936 301.5,-594.1936"/>
<polygon fill="#f5f5f5" stroke="transparent" points="302,-631.6936 302,-654.6936 369,-654.6936 369,-631.6936 302,-631.6936"/>
<polygon fill="none" stroke="#000000" points="302,-631.6936 302,-654.6936 369,-654.6936 369,-631.6936 302,-631.6936"/>
<text text-anchor="start" x="307" y="-640.2936" font-family="Helvetica,sans-Serif" font-weight="bold" font-size="11.00" fill="#000000">lists</text>
<text text-anchor="start" x="334.5219" y="-639.7936" font-family="Helvetica,sans-Serif" font-size="11.00" fill="#000000">[table]</text>
<polygon fill="none" stroke="#000000" points="302,-612.6936 302,-631.6936 369,-631.6936 369,-612.6936 302,-612.6936"/>
<text text-anchor="start" x="305" y="-618.7936" font-family="Helvetica,sans-Serif" font-size="11.00" fill="#000000">...</text>
<polygon fill="#ffffff" stroke="transparent" points="302,-593.6936 302,-612.6936 332,-612.6936 332,-593.6936 302,-593.6936"/>
<polygon fill="none" stroke="#000000" points="302,-593.6936 302,-612.6936 332,-612.6936 332,-593.6936 302,-593.6936"/>
<text text-anchor="start" x="305" y="-599.7936" font-family="Helvetica,sans-Serif" font-size="11.00" fill="#000000">&lt; 11</text>
<polygon fill="#ffffff" stroke="transparent" points="332,-593.6936 332,-612.6936 346,-612.6936 346,-593.6936 332,-593.6936"/>
<polygon fill="none" stroke="#000000" points="332,-593.6936 332,-612.6936 346,-612.6936 346,-593.6936 332,-593.6936"/>
<text text-anchor="start" x="336.8862" y="-599.7936" font-family="Helvetica,sans-Serif" font-size="11.00" fill="#000000"> &#160;</text>
<polygon fill="#ffffff" stroke="transparent" points="346,-593.6936 346,-612.6936 369,-612.6936 369,-593.6936 346,-593.6936"/>
<polygon fill="none" stroke="#000000" points="346,-593.6936 346,-612.6936 369,-612.6936 369,-593.6936 346,-593.6936"/>
<text text-anchor="start" x="350.4053" y="-599.7936" font-family="Helvetica,sans-Serif" font-size="11.00" fill="#000000">3 &gt;</text>
</a>
</g>
</g>
<!-- lists&#45;&gt;list_options -->
<g id="edge13" class="edge">
<title>lists:w&#45;&gt;list_options:e</title>
<path fill="none" stroke="#000000" d="M287.9606,-616.9732C219.5151,-596.3454 144.4749,-607.3098 102.7185,-628.0476"/>
<polygon fill="#000000" stroke="#000000" points="294.4171,-619.144 300.8527,-625.1059 298.2086,-620.4188 302,-621.6936 302,-621.6936 302,-621.6936 298.2086,-620.4188 303.1473,-618.2813 294.4171,-619.144 294.4171,-619.144"/>
<ellipse fill="none" stroke="#000000" cx="291.384" cy="-618.1242" rx="3.2" ry="3.2"/>
</g>
<!-- lists&#45;&gt;list_options -->
<g id="edge14" class="edge">
<title>lists:w&#45;&gt;list_options:e</title>
<path fill="none" stroke="#000000" d="M287.639,-618.5639C230.715,-607.8175 169.2755,-615.1683 126.2398,-628.0764"/>
<polygon fill="#000000" stroke="#000000" points="294.1835,-619.9901 301.2334,-625.211 298.0917,-620.8418 302,-621.6936 302,-621.6936 302,-621.6936 298.0917,-620.8418 302.7666,-618.1761 294.1835,-619.9901 294.1835,-619.9901"/>
<ellipse fill="none" stroke="#000000" cx="291.0568" cy="-619.3087" rx="3.2" ry="3.2"/>
</g>
<!-- lists&#45;&gt;list_options -->
<g id="edge15" class="edge">
<title>lists:w&#45;&gt;list_options:e</title>
<path fill="none" stroke="#000000" d="M287.6536,-620.2524C235.0915,-616.1645 178.6776,-624.3381 136.4567,-634.9005"/>
<polygon fill="#000000" stroke="#000000" points="294.0401,-620.8939 301.6401,-625.2755 298.02,-621.2937 302,-621.6936 302,-621.6936 302,-621.6936 298.02,-621.2937 302.3599,-618.1116 294.0401,-620.8939 294.0401,-620.8939"/>
<ellipse fill="none" stroke="#000000" cx="290.8561" cy="-620.574" rx="3.2" ry="3.2"/>
</g>
<!-- lists&#45;&gt;list_options -->
<g id="edge17" class="edge">
<title>lists:w&#45;&gt;list_options:e</title>
<path fill="none" stroke="#000000" d="M287.3174,-621.9494C234.851,-623.7344 178.5876,-634.5516 136.4567,-644.591"/>
<polygon fill="#000000" stroke="#000000" points="294.0012,-621.833 302.0627,-625.293 298.0006,-621.7633 302,-621.6936 302,-621.6936 302,-621.6936 298.0006,-621.7633 301.9373,-618.0941 294.0012,-621.833 294.0012,-621.833"/>
<ellipse fill="none" stroke="#000000" cx="290.8017" cy="-621.8887" rx="3.2" ry="3.2"/>
</g>
<!-- lists&#45;&gt;list_options -->
<g id="edge18" class="edge">
<title>lists:w&#45;&gt;list_options:e</title>
<path fill="none" stroke="#000000" d="M287.6536,-623.6238C235.0915,-631.2119 178.6776,-644.7221 136.4567,-654.2815"/>
<polygon fill="#000000" stroke="#000000" points="294.0714,-622.7603 302.4801,-625.2614 298.0357,-622.227 302,-621.6936 302,-621.6936 302,-621.6936 298.0357,-622.227 301.5199,-618.1257 294.0714,-622.7603 294.0714,-622.7603"/>
<ellipse fill="none" stroke="#000000" cx="290.9" cy="-623.1871" rx="3.2" ry="3.2"/>
</g>
<!-- lists&#45;&gt;list_options -->
<g id="edge19" class="edge">
<title>lists:w&#45;&gt;list_options:e</title>
<path fill="none" stroke="#000000" d="M287.9898,-625.2236C235.3321,-638.6666 178.7676,-654.8948 136.4567,-663.972"/>
<polygon fill="#000000" stroke="#000000" points="294.2425,-623.6482 302.8796,-625.1845 298.1212,-622.6709 302,-621.6936 302,-621.6936 302,-621.6936 298.1212,-622.6709 301.1204,-618.2027 294.2425,-623.6482 294.2425,-623.6482"/>
<ellipse fill="none" stroke="#000000" cx="291.1394" cy="-624.4301" rx="3.2" ry="3.2"/>
</g>
<!-- lists&#45;&gt;list_options -->
<g id="edge20" class="edge">
<title>lists:w&#45;&gt;list_options:e</title>
<path fill="none" stroke="#000000" d="M288.3259,-626.7487C235.5729,-646.0985 178.8576,-665.0696 136.4567,-673.6625"/>
<polygon fill="#000000" stroke="#000000" points="294.4963,-624.4676 303.2483,-625.0702 298.2482,-623.0806 302,-621.6936 302,-621.6936 302,-621.6936 298.2482,-623.0806 300.7517,-618.3169 294.4963,-624.4676 294.4963,-624.4676"/>
<ellipse fill="none" stroke="#000000" cx="291.4949" cy="-625.5772" rx="3.2" ry="3.2"/>
</g>
<!-- lists&#45;&gt;patient_data -->
<g id="edge16" class="edge">
<title>lists:w&#45;&gt;patient_data:e</title>
<path fill="none" stroke="#000000" d="M287.3521,-621.6571C236.2505,-621.5079 207.7539,-622.436 173,-665.6936 121.7408,-729.495 213.8421,-1031.6936 132,-1031.6936"/>
<polygon fill="#000000" stroke="#000000" points="294,-621.6736 301.991,-625.2936 298,-621.6836 302,-621.6936 302,-621.6936 302,-621.6936 298,-621.6836 302.009,-618.0936 294,-621.6736 294,-621.6736"/>
<ellipse fill="none" stroke="#000000" cx="290.8" cy="-621.6656" rx="3.2" ry="3.2"/>
</g>
<!-- amendments_history -->
<g id="node8" class="node">
<title>amendments_history</title>
<g id="a_node8"><a xlink:href="../../tables/amendments_history.html" xlink:title="amendments_history" target="_top">
<polygon fill="#ffffff" stroke="transparent" points="538,-46.1936 538,-107.1936 718,-107.1936 718,-46.1936 538,-46.1936"/>
<polygon fill="#f5f5f5" stroke="transparent" points="538,-83.6936 538,-106.6936 718,-106.6936 718,-83.6936 538,-83.6936"/>
<polygon fill="none" stroke="#000000" points="538,-83.6936 538,-106.6936 718,-106.6936 718,-83.6936 538,-83.6936"/>
<text text-anchor="start" x="543" y="-92.2936" font-family="Helvetica,sans-Serif" font-weight="bold" font-size="11.00" fill="#000000">amendments_history</text>
<text text-anchor="start" x="683.5219" y="-91.7936" font-family="Helvetica,sans-Serif" font-size="11.00" fill="#000000">[table]</text>
<polygon fill="none" stroke="#000000" points="538,-64.6936 538,-83.6936 718,-83.6936 718,-64.6936 538,-64.6936"/>
<text text-anchor="start" x="541" y="-70.7936" font-family="Helvetica,sans-Serif" font-size="11.00" fill="#000000">...</text>
<polygon fill="#ffffff" stroke="transparent" points="538,-45.6936 538,-64.6936 626,-64.6936 626,-45.6936 538,-45.6936"/>
<polygon fill="none" stroke="#000000" points="538,-45.6936 538,-64.6936 626,-64.6936 626,-45.6936 538,-45.6936"/>
<text text-anchor="start" x="541" y="-51.7936" font-family="Helvetica,sans-Serif" font-size="11.00" fill="#000000">&lt; 4</text>
<polygon fill="#ffffff" stroke="transparent" points="626,-45.6936 626,-64.6936 672,-64.6936 672,-45.6936 626,-45.6936"/>
<polygon fill="none" stroke="#000000" points="626,-45.6936 626,-64.6936 672,-64.6936 672,-45.6936 626,-45.6936"/>
<text text-anchor="start" x="662.8862" y="-51.7936" font-family="Helvetica,sans-Serif" font-size="11.00" fill="#000000"> &#160;</text>
<polygon fill="#ffffff" stroke="transparent" points="672,-45.6936 672,-64.6936 718,-64.6936 718,-45.6936 672,-45.6936"/>
<polygon fill="none" stroke="#000000" points="672,-45.6936 672,-64.6936 718,-64.6936 718,-45.6936 672,-45.6936"/>
<text text-anchor="start" x="708.8862" y="-51.7936" font-family="Helvetica,sans-Serif" font-size="11.00" fill="#000000"> &#160;</text>
</a>
</g>
</g>
<!-- amendments_history&#45;&gt;amendments -->
<g id="edge21" class="edge">
<title>amendments_history:w&#45;&gt;amendments:e</title>
<path fill="none" stroke="#000000" d="M528.8511,-85.135C491.9208,-188.2838 524.895,-954.9827 497,-993.6936 469.4466,-1031.9303 445.13,-1031.6936 398,-1031.6936"/>
<polygon fill="#000000" stroke="#000000" points="533.0038,-79.9417 540.8116,-75.9418 535.5019,-76.8176 538,-73.6936 538,-73.6936 538,-73.6936 535.5019,-76.8176 535.1884,-71.4453 533.0038,-79.9417 533.0038,-79.9417"/>
<ellipse fill="none" stroke="#000000" cx="531.0054" cy="-82.4409" rx="3.2" ry="3.2"/>
</g>
<!-- amendments_history&#45;&gt;list_options -->
<g id="edge22" class="edge">
<title>amendments_history:w&#45;&gt;list_options:e</title>
<path fill="none" stroke="#000000" d="M523.4661,-72.9322C370.6083,-62.5732 291.1089,16.5724 173,-87.6936 91.8135,-159.3647 74.3131,-514.3727 70.817,-627.826"/>
<polygon fill="#000000" stroke="#000000" points="530.011,-73.275 537.8116,-77.2886 534.0055,-73.4843 538,-73.6936 538,-73.6936 538,-73.6936 534.0055,-73.4843 538.1884,-70.0985 530.011,-73.275 530.011,-73.275"/>
<ellipse fill="none" stroke="#000000" cx="526.8153" cy="-73.1076" rx="3.2" ry="3.2"/>
</g>
<!-- amendments_history&#45;&gt;list_options -->
<g id="edge23" class="edge">
<title>amendments_history:w&#45;&gt;list_options:e</title>
<path fill="none" stroke="#000000" d="M523.4661,-74.0775C370.6083,-75.5732 291.1089,3.5724 173,-100.6936 93.0364,-171.285 74.8548,-516.7415 70.9847,-628.1009"/>
<polygon fill="#000000" stroke="#000000" points="530.0028,-73.9049 538.0951,-77.2923 534.0014,-73.7992 538,-73.6936 538,-73.6936 538,-73.6936 534.0014,-73.7992 537.9049,-70.0948 530.0028,-73.9049 530.0028,-73.9049"/>
<ellipse fill="none" stroke="#000000" cx="526.8039" cy="-73.9894" rx="3.2" ry="3.2"/>
</g>
<!-- form_vital_details -->
<g id="node9" class="node">
<title>form_vital_details</title>
<g id="a_node9"><a xlink:href="../../tables/form_vital_details.html" xlink:title="form_vital_details" target="_top">
<polygon fill="#ffffff" stroke="transparent" points="256,-186.1936 256,-247.1936 414,-247.1936 414,-186.1936 256,-186.1936"/>
<polygon fill="#f5f5f5" stroke="transparent" points="256,-223.6936 256,-246.6936 414,-246.6936 414,-223.6936 256,-223.6936"/>
<polygon fill="none" stroke="#000000" points="256,-223.6936 256,-246.6936 414,-246.6936 414,-223.6936 256,-223.6936"/>
<text text-anchor="start" x="261" y="-232.2936" font-family="Helvetica,sans-Serif" font-weight="bold" font-size="11.00" fill="#000000">form_vital_details</text>
<text text-anchor="start" x="379.5219" y="-231.7936" font-family="Helvetica,sans-Serif" font-size="11.00" fill="#000000">[table]</text>
<polygon fill="none" stroke="#000000" points="256,-204.6936 256,-223.6936 414,-223.6936 414,-204.6936 256,-204.6936"/>
<text text-anchor="start" x="259" y="-210.7936" font-family="Helvetica,sans-Serif" font-size="11.00" fill="#000000">...</text>
<polygon fill="#ffffff" stroke="transparent" points="256,-185.6936 256,-204.6936 333,-204.6936 333,-185.6936 256,-185.6936"/>
<polygon fill="none" stroke="#000000" points="256,-185.6936 256,-204.6936 333,-204.6936 333,-185.6936 256,-185.6936"/>
<text text-anchor="start" x="259" y="-191.7936" font-family="Helvetica,sans-Serif" font-size="11.00" fill="#000000">&lt; 3</text>
<polygon fill="#ffffff" stroke="transparent" points="333,-185.6936 333,-204.6936 373,-204.6936 373,-185.6936 333,-185.6936"/>
<polygon fill="none" stroke="#000000" points="333,-185.6936 333,-204.6936 373,-204.6936 373,-185.6936 333,-185.6936"/>
<text text-anchor="start" x="363.8862" y="-191.7936" font-family="Helvetica,sans-Serif" font-size="11.00" fill="#000000"> &#160;</text>
<polygon fill="#ffffff" stroke="transparent" points="373,-185.6936 373,-204.6936 414,-204.6936 414,-185.6936 373,-185.6936"/>
<polygon fill="none" stroke="#000000" points="373,-185.6936 373,-204.6936 414,-204.6936 414,-185.6936 373,-185.6936"/>
<text text-anchor="start" x="404.8862" y="-191.7936" font-family="Helvetica,sans-Serif" font-size="11.00" fill="#000000"> &#160;</text>
</a>
</g>
</g>
<!-- form_vital_details&#45;&gt;list_options -->
<g id="edge24" class="edge">
<title>form_vital_details:w&#45;&gt;list_options:e</title>
<path fill="none" stroke="#000000" d="M241.5046,-212.2574C210.225,-210.8257 195.5772,-222.9722 173,-251.6936 126.4825,-310.8705 87.7046,-540.1955 74.6811,-628.1593"/>
<polygon fill="#000000" stroke="#000000" points="248.039,-212.9048 255.645,-217.276 252.0195,-213.2992 256,-213.6936 256,-213.6936 256,-213.6936 252.0195,-213.2992 256.355,-210.1111 248.039,-212.9048 248.039,-212.9048"/>
<ellipse fill="none" stroke="#000000" cx="244.8546" cy="-212.5892" rx="3.2" ry="3.2"/>
</g>
<!-- form_vital_details&#45;&gt;list_options -->
<g id="edge25" class="edge">
<title>form_vital_details:w&#45;&gt;list_options:e</title>
<path fill="none" stroke="#000000" d="M241.5046,-216.5484C210.225,-223.8257 195.5772,-235.9722 173,-264.6936 127.6034,-322.4445 89.5779,-542.2425 75.6672,-628.1243"/>
<polygon fill="#000000" stroke="#000000" points="248.1508,-215.2395 256.6957,-217.2257 252.0754,-214.4665 256,-213.6936 256,-213.6936 256,-213.6936 252.0754,-214.4665 255.3043,-210.1614 248.1508,-215.2395 248.1508,-215.2395"/>
<ellipse fill="none" stroke="#000000" cx="245.0111" cy="-215.8579" rx="3.2" ry="3.2"/>
</g>
<!-- openemr_postcalendar_events -->
<g id="node10" class="node">
<title>openemr_postcalendar_events</title>
<g id="a_node10"><a xlink:href="../../tables/openemr_postcalendar_events.html" xlink:title="openemr_postcalendar_events" target="_top">
<polygon fill="#ffffff" stroke="transparent" points="213,-840.1936 213,-901.1936 457,-901.1936 457,-840.1936 213,-840.1936"/>
<polygon fill="#f5f5f5" stroke="transparent" points="213,-877.6936 213,-900.6936 457,-900.6936 457,-877.6936 213,-877.6936"/>
<polygon fill="none" stroke="#000000" points="213,-877.6936 213,-900.6936 457,-900.6936 457,-877.6936 213,-877.6936"/>
<text text-anchor="start" x="218" y="-886.2936" font-family="Helvetica,sans-Serif" font-weight="bold" font-size="11.00" fill="#000000">openemr_postcalendar_events</text>
<text text-anchor="start" x="422.5219" y="-885.7936" font-family="Helvetica,sans-Serif" font-size="11.00" fill="#000000">[table]</text>
<polygon fill="none" stroke="#000000" points="213,-858.6936 213,-877.6936 457,-877.6936 457,-858.6936 213,-858.6936"/>
<text text-anchor="start" x="216" y="-864.7936" font-family="Helvetica,sans-Serif" font-size="11.00" fill="#000000">...</text>
<polygon fill="#ffffff" stroke="transparent" points="213,-839.6936 213,-858.6936 329,-858.6936 329,-839.6936 213,-839.6936"/>
<polygon fill="none" stroke="#000000" points="213,-839.6936 213,-858.6936 329,-858.6936 329,-839.6936 213,-839.6936"/>
<text text-anchor="start" x="216" y="-845.7936" font-family="Helvetica,sans-Serif" font-size="11.00" fill="#000000">&lt; 7</text>
<polygon fill="#ffffff" stroke="transparent" points="329,-839.6936 329,-858.6936 388,-858.6936 388,-839.6936 329,-839.6936"/>
<polygon fill="none" stroke="#000000" points="329,-839.6936 329,-858.6936 388,-858.6936 388,-839.6936 329,-839.6936"/>
<text text-anchor="start" x="378.8862" y="-845.7936" font-family="Helvetica,sans-Serif" font-size="11.00" fill="#000000"> &#160;</text>
<polygon fill="#ffffff" stroke="transparent" points="388,-839.6936 388,-858.6936 457,-858.6936 457,-839.6936 388,-839.6936"/>
<polygon fill="none" stroke="#000000" points="388,-839.6936 388,-858.6936 457,-858.6936 457,-839.6936 388,-839.6936"/>
<text text-anchor="start" x="438.4053" y="-845.7936" font-family="Helvetica,sans-Serif" font-size="11.00" fill="#000000">2 &gt;</text>
</a>
</g>
</g>
<!-- openemr_postcalendar_events&#45;&gt;list_options -->
<g id="edge26" class="edge">
<title>openemr_postcalendar_events:w&#45;&gt;list_options:e</title>
<path fill="none" stroke="#000000" d="M198.428,-865.7005C127.9471,-850.0236 92.8277,-751.5067 78.3723,-697.6449"/>
<polygon fill="#000000" stroke="#000000" points="205.0738,-866.6094 212.5121,-871.2604 209.0369,-867.1515 213,-867.6936 213,-867.6936 213,-867.6936 209.0369,-867.1515 213.4879,-864.1268 205.0738,-866.6094 205.0738,-866.6094"/>
<ellipse fill="none" stroke="#000000" cx="201.9033" cy="-866.1758" rx="3.2" ry="3.2"/>
</g>
<!-- openemr_postcalendar_events&#45;&gt;list_options -->
<g id="edge28" class="edge">
<title>openemr_postcalendar_events:w&#45;&gt;list_options:e</title>
<path fill="none" stroke="#000000" d="M198.2412,-867.3619C124.4339,-859.1634 89.4593,-753.5285 76.3941,-697.2594"/>
<polygon fill="#000000" stroke="#000000" points="205.002,-867.5138 212.9191,-871.2927 209.001,-867.6037 213,-867.6936 213,-867.6936 213,-867.6936 209.001,-867.6037 213.0809,-864.0945 205.002,-867.5138 205.002,-867.5138"/>
<ellipse fill="none" stroke="#000000" cx="201.8028" cy="-867.4418" rx="3.2" ry="3.2"/>
</g>
<!-- openemr_postcalendar_events&#45;&gt;patient_data -->
<g id="edge27" class="edge">
<title>openemr_postcalendar_events:w&#45;&gt;patient_data:e</title>
<path fill="none" stroke="#000000" d="M198.6259,-870.7355C185.829,-877.3975 183.3956,-894.0936 173,-911.6936 144.3368,-960.221 188.3604,-1031.6936 132,-1031.6936"/>
<polygon fill="#000000" stroke="#000000" points="205.1733,-869.35 213.7454,-871.2156 209.0867,-868.5218 213,-867.6936 213,-867.6936 213,-867.6936 209.0867,-868.5218 212.2546,-864.1716 205.1733,-869.35 205.1733,-869.35"/>
<ellipse fill="none" stroke="#000000" cx="202.0427" cy="-870.0125" rx="3.2" ry="3.2"/>
</g>
<!-- patient_reminders -->
<g id="node11" class="node">
<title>patient_reminders</title>
<g id="a_node11"><a xlink:href="../../tables/patient_reminders.html" xlink:title="patient_reminders" target="_top">
<polygon fill="#ffffff" stroke="transparent" points="547,-374.1936 547,-435.1936 709,-435.1936 709,-374.1936 547,-374.1936"/>
<polygon fill="#f5f5f5" stroke="transparent" points="547,-411.6936 547,-434.6936 709,-434.6936 709,-411.6936 547,-411.6936"/>
<polygon fill="none" stroke="#000000" points="547,-411.6936 547,-434.6936 709,-434.6936 709,-411.6936 547,-411.6936"/>
<text text-anchor="start" x="552" y="-420.2936" font-family="Helvetica,sans-Serif" font-weight="bold" font-size="11.00" fill="#000000">patient_reminders</text>
<text text-anchor="start" x="674.5219" y="-419.7936" font-family="Helvetica,sans-Serif" font-size="11.00" fill="#000000">[table]</text>
<polygon fill="none" stroke="#000000" points="547,-392.6936 547,-411.6936 709,-411.6936 709,-392.6936 547,-392.6936"/>
<text text-anchor="start" x="550" y="-398.7936" font-family="Helvetica,sans-Serif" font-size="11.00" fill="#000000">...</text>
<polygon fill="#ffffff" stroke="transparent" points="547,-373.6936 547,-392.6936 626,-392.6936 626,-373.6936 547,-373.6936"/>
<polygon fill="none" stroke="#000000" points="547,-373.6936 547,-392.6936 626,-392.6936 626,-373.6936 547,-373.6936"/>
<text text-anchor="start" x="550" y="-379.7936" font-family="Helvetica,sans-Serif" font-size="11.00" fill="#000000">&lt; 5</text>
<polygon fill="#ffffff" stroke="transparent" points="626,-373.6936 626,-392.6936 667,-392.6936 667,-373.6936 626,-373.6936"/>
<polygon fill="none" stroke="#000000" points="626,-373.6936 626,-392.6936 667,-392.6936 667,-373.6936 626,-373.6936"/>
<text text-anchor="start" x="657.8862" y="-379.7936" font-family="Helvetica,sans-Serif" font-size="11.00" fill="#000000"> &#160;</text>
<polygon fill="#ffffff" stroke="transparent" points="667,-373.6936 667,-392.6936 709,-392.6936 709,-373.6936 667,-373.6936"/>
<polygon fill="none" stroke="#000000" points="667,-373.6936 667,-392.6936 709,-392.6936 709,-373.6936 667,-373.6936"/>
<text text-anchor="start" x="699.8862" y="-379.7936" font-family="Helvetica,sans-Serif" font-size="11.00" fill="#000000"> &#160;</text>
</a>
</g>
</g>
<!-- patient_reminders&#45;&gt;list_options -->
<g id="edge30" class="edge">
<title>patient_reminders:w&#45;&gt;list_options:e</title>
<path fill="none" stroke="#000000" d="M524.3716,-377.081C515.1468,-375.6981 505.9249,-374.5376 497,-373.6936 353.6396,-360.1365 290.9574,-291.0979 173,-373.6936 130.385,-403.5333 91.7839,-557.9881 76.707,-628.1077"/>
<polygon fill="#000000" stroke="#000000" points="530.9309,-378.1438 538.2521,-382.9771 534.8794,-378.7836 538.8279,-379.4234 538.8279,-379.4234 538.8279,-379.4234 534.8794,-378.7836 539.4038,-375.8698 530.9309,-378.1438 530.9309,-378.1438"/>
<ellipse fill="none" stroke="#000000" cx="527.7721" cy="-377.6319" rx="3.2" ry="3.2"/>
</g>
<!-- patient_reminders&#45;&gt;list_options -->
<g id="edge33" class="edge">
<title>patient_reminders:w&#45;&gt;list_options:e</title>
<path fill="none" stroke="#000000" d="M524.3716,-390.036C515.1468,-388.6981 505.9249,-387.5376 497,-386.6936 353.6396,-373.1365 290.9574,-304.0979 173,-386.6936 131.8305,-415.5211 94.4072,-560.6534 78.3216,-628.1837"/>
<polygon fill="#000000" stroke="#000000" points="530.9213,-391.0455 538.2795,-395.8223 534.8746,-391.6549 538.8279,-392.2643 538.8279,-392.2643 538.8279,-392.2643 534.8746,-391.6549 539.3764,-388.7063 530.9213,-391.0455 530.9213,-391.0455"/>
<ellipse fill="none" stroke="#000000" cx="527.7586" cy="-390.558" rx="3.2" ry="3.2"/>
</g>
<!-- patient_reminders&#45;&gt;patient_data -->
<g id="edge32" class="edge">
<title>patient_reminders:w&#45;&gt;patient_data:e</title>
<path fill="none" stroke="#000000" d="M531.9732,-448.7095C481.3335,-580.2697 564.4862,-1256.7018 497,-1321.6936 471.0694,-1346.6657 200.1793,-1345.3005 173,-1321.6936 123.8619,-1279.014 197.0853,-1031.6936 132,-1031.6936"/>
<polygon fill="#000000" stroke="#000000" points="534.985,-442.8357 541.8386,-437.3595 536.8101,-439.2763 538.6352,-435.7169 538.6352,-435.7169 538.6352,-435.7169 536.8101,-439.2763 535.4318,-434.0743 534.985,-442.8357 534.985,-442.8357"/>
<ellipse fill="none" stroke="#000000" cx="533.525" cy="-445.6832" rx="3.2" ry="3.2"/>
</g>
<!-- rule_action_item -->
<g id="node12" class="node">
<title>rule_action_item</title>
<g id="a_node12"><a xlink:href="../../tables/rule_action_item.html" xlink:title="rule_action_item" target="_top">
<polygon fill="#ffffff" stroke="transparent" points="225.5,-389.6936 225.5,-545.6936 444.5,-545.6936 444.5,-389.6936 225.5,-389.6936"/>
<polygon fill="#f5f5f5" stroke="transparent" points="228,-520.6936 228,-543.6936 443,-543.6936 443,-520.6936 228,-520.6936"/>
<polygon fill="none" stroke="#000000" points="228,-520.6936 228,-543.6936 443,-543.6936 443,-520.6936 228,-520.6936"/>
<text text-anchor="start" x="233" y="-529.2936" font-family="Helvetica,sans-Serif" font-weight="bold" font-size="11.00" fill="#000000">rule_action_item</text>
<text text-anchor="start" x="408.0437" y="-528.7936" font-family="Helvetica,sans-Serif" font-size="11.00" fill="#000000">[table]</text>
<polygon fill="none" stroke="#000000" points="228,-498.6936 228,-520.6936 376,-520.6936 376,-498.6936 228,-498.6936"/>
<image xlink:href="../../images/primaryKeys.png" width="11px" height="12px" preserveAspectRatio="xMinYMin meet" x="233" y="-515.694"/>
<text text-anchor="start" x="248" y="-505.7936" font-family="Helvetica,sans-Serif" font-size="11.00" fill="#000000">category</text>
<polygon fill="none" stroke="#000000" points="376,-498.6936 376,-520.6936 443,-520.6936 443,-498.6936 376,-498.6936"/>
<text text-anchor="start" x="379" y="-506.3936" font-family="Helvetica,sans-Serif" font-size="11.00" fill="#000000">varchar[31]</text>
<polygon fill="none" stroke="#000000" points="228,-476.6936 228,-498.6936 376,-498.6936 376,-476.6936 228,-476.6936"/>
<image xlink:href="../../images/primaryKeys.png" width="11px" height="12px" preserveAspectRatio="xMinYMin meet" x="233" y="-493.694"/>
<text text-anchor="start" x="248" y="-483.7936" font-family="Helvetica,sans-Serif" font-size="11.00" fill="#000000">item</text>
<polygon fill="none" stroke="#000000" points="376,-476.6936 376,-498.6936 443,-498.6936 443,-476.6936 376,-476.6936"/>
<text text-anchor="start" x="379" y="-484.3936" font-family="Helvetica,sans-Serif" font-size="11.00" fill="#000000">varchar[31]</text>
<polygon fill="none" stroke="#000000" points="228,-454.6936 228,-476.6936 376,-476.6936 376,-454.6936 228,-454.6936"/>
<text text-anchor="start" x="248" y="-461.7936" font-family="Helvetica,sans-Serif" font-size="11.00" fill="#000000">clin_rem_link</text>
<polygon fill="none" stroke="#000000" points="376,-454.6936 376,-476.6936 443,-476.6936 443,-454.6936 376,-454.6936"/>
<text text-anchor="start" x="378.9365" y="-462.3936" font-family="Helvetica,sans-Serif" font-size="11.00" fill="#000000">varchar[255]</text>
<polygon fill="none" stroke="#000000" points="228,-432.6936 228,-454.6936 376,-454.6936 376,-432.6936 228,-432.6936"/>
<text text-anchor="start" x="248" y="-439.7936" font-family="Helvetica,sans-Serif" font-size="11.00" fill="#000000">reminder_message</text>
<polygon fill="none" stroke="#000000" points="376,-432.6936 376,-454.6936 443,-454.6936 443,-432.6936 376,-432.6936"/>
<text text-anchor="start" x="379" y="-440.3936" font-family="Helvetica,sans-Serif" font-size="11.00" fill="#000000">text[65535]</text>
<polygon fill="none" stroke="#000000" points="228,-410.6936 228,-432.6936 376,-432.6936 376,-410.6936 228,-410.6936"/>
<text text-anchor="start" x="248" y="-417.7936" font-family="Helvetica,sans-Serif" font-size="11.00" fill="#000000">custom_flag</text>
<polygon fill="none" stroke="#000000" points="376,-410.6936 376,-432.6936 443,-432.6936 443,-410.6936 376,-410.6936"/>
<text text-anchor="start" x="379" y="-418.3936" font-family="Helvetica,sans-Serif" font-size="11.00" fill="#000000">bit[1]</text>
<polygon fill="#ffffff" stroke="transparent" points="228,-391.6936 228,-410.6936 306,-410.6936 306,-391.6936 228,-391.6936"/>
<polygon fill="none" stroke="#000000" points="228,-391.6936 228,-410.6936 306,-410.6936 306,-391.6936 228,-391.6936"/>
<text text-anchor="start" x="231" y="-397.7936" font-family="Helvetica,sans-Serif" font-size="11.00" fill="#000000">&lt; 2</text>
<polygon fill="#ffffff" stroke="transparent" points="306,-391.6936 306,-410.6936 376,-410.6936 376,-391.6936 306,-391.6936"/>
<polygon fill="none" stroke="#000000" points="306,-391.6936 306,-410.6936 376,-410.6936 376,-391.6936 306,-391.6936"/>
<text text-anchor="start" x="366.8862" y="-397.7936" font-family="Helvetica,sans-Serif" font-size="11.00" fill="#000000"> &#160;</text>
<polygon fill="#ffffff" stroke="transparent" points="376,-391.6936 376,-410.6936 443,-410.6936 443,-391.6936 376,-391.6936"/>
<polygon fill="none" stroke="#000000" points="376,-391.6936 376,-410.6936 443,-410.6936 443,-391.6936 376,-391.6936"/>
<text text-anchor="start" x="424.4053" y="-397.7936" font-family="Helvetica,sans-Serif" font-size="11.00" fill="#000000">4 &gt;</text>
<polygon fill="none" stroke="#000000" stroke-width="2" points="226.5,-390.6936 226.5,-544.6936 443.5,-544.6936 443.5,-390.6936 226.5,-390.6936"/>
</a>
</g>
</g>
<!-- patient_reminders&#45;&gt;rule_action_item -->
<g id="edge29" class="edge">
<title>patient_reminders:w&#45;&gt;rule_action_item:e</title>
<path fill="none" stroke="#000000" d="M529.518,-447.0631C488.3374,-475.8388 486.9706,-509.6936 443,-509.6936"/>
<polygon fill="#000000" stroke="#000000" points="535.1309,-443.5504 543.8222,-442.358 538.5217,-441.4283 541.9124,-439.3063 541.9124,-439.3063 541.9124,-439.3063 538.5217,-441.4283 540.0026,-436.2547 535.1309,-443.5504 535.1309,-443.5504"/>
<ellipse fill="none" stroke="#000000" cx="532.4184" cy="-445.248" rx="3.2" ry="3.2"/>
</g>
<!-- patient_reminders&#45;&gt;rule_action_item -->
<g id="edge31" class="edge">
<title>patient_reminders:w&#45;&gt;rule_action_item:e</title>
<path fill="none" stroke="#000000" d="M530.8846,-445.2958C530.5892,-445.4285 530.2943,-445.5611 530,-445.6936 490.8477,-463.3189 485.9366,-487.6936 443,-487.6936"/>
<polygon fill="#000000" stroke="#000000" points="537.1504,-442.5227 545.923,-442.5771 540.8082,-440.9039 544.466,-439.285 544.466,-439.285 544.466,-439.285 540.8082,-440.9039 543.009,-435.993 537.1504,-442.5227 537.1504,-442.5227"/>
<ellipse fill="none" stroke="#000000" cx="534.2242" cy="-443.8178" rx="3.2" ry="3.2"/>
</g>
<!-- rule_action_item&#45;&gt;list_options -->
<g id="edge49" class="edge">
<title>rule_action_item:w&#45;&gt;list_options:e</title>
<path fill="none" stroke="#000000" d="M213.6314,-510.8013C153.3704,-520.1184 109.0067,-586.0963 86.5442,-627.9755"/>
<polygon fill="#000000" stroke="#000000" points="220.0237,-510.3085 228.2767,-513.2829 224.0118,-510.0011 228,-509.6936 228,-509.6936 228,-509.6936 224.0118,-510.0011 227.7233,-506.1042 220.0237,-510.3085 220.0237,-510.3085"/>
<ellipse fill="none" stroke="#000000" cx="216.8331" cy="-510.5545" rx="3.2" ry="3.2"/>
</g>
<!-- rule_action_item&#45;&gt;list_options -->
<g id="edge50" class="edge">
<title>rule_action_item:w&#45;&gt;list_options:e</title>
<path fill="none" stroke="#000000" d="M213.4259,-488.8392C146.7635,-499.4009 103.107,-580.5056 82.9427,-628.1192"/>
<polygon fill="#000000" stroke="#000000" points="220.0246,-488.3205 228.2821,-491.2825 224.0123,-488.007 228,-487.6936 228,-487.6936 228,-487.6936 224.0123,-488.007 227.7179,-484.1046 220.0246,-488.3205 220.0246,-488.3205"/>
<ellipse fill="none" stroke="#000000" cx="216.8344" cy="-488.5713" rx="3.2" ry="3.2"/>
</g>
<!-- patient_tracker_element -->
<g id="node13" class="node">
<title>patient_tracker_element</title>
<g id="a_node13"><a xlink:href="../../tables/patient_tracker_element.html" xlink:title="patient_tracker_element" target="_top">
<polygon fill="#ffffff" stroke="transparent" points="233,-104.1936 233,-165.1936 437,-165.1936 437,-104.1936 233,-104.1936"/>
<polygon fill="#f5f5f5" stroke="transparent" points="233,-141.6936 233,-164.6936 437,-164.6936 437,-141.6936 233,-141.6936"/>
<polygon fill="none" stroke="#000000" points="233,-141.6936 233,-164.6936 437,-164.6936 437,-141.6936 233,-141.6936"/>
<text text-anchor="start" x="238" y="-150.2936" font-family="Helvetica,sans-Serif" font-weight="bold" font-size="11.00" fill="#000000">patient_tracker_element</text>
<text text-anchor="start" x="402.5219" y="-149.7936" font-family="Helvetica,sans-Serif" font-size="11.00" fill="#000000">[table]</text>
<polygon fill="none" stroke="#000000" points="233,-122.6936 233,-141.6936 437,-141.6936 437,-122.6936 233,-122.6936"/>
<text text-anchor="start" x="236" y="-128.7936" font-family="Helvetica,sans-Serif" font-size="11.00" fill="#000000">...</text>
<polygon fill="#ffffff" stroke="transparent" points="233,-103.6936 233,-122.6936 333,-122.6936 333,-103.6936 233,-103.6936"/>
<polygon fill="none" stroke="#000000" points="233,-103.6936 233,-122.6936 333,-122.6936 333,-103.6936 233,-103.6936"/>
<text text-anchor="start" x="236" y="-109.7936" font-family="Helvetica,sans-Serif" font-size="11.00" fill="#000000">&lt; 4</text>
<polygon fill="#ffffff" stroke="transparent" points="333,-103.6936 333,-122.6936 385,-122.6936 385,-103.6936 333,-103.6936"/>
<polygon fill="none" stroke="#000000" points="333,-103.6936 333,-122.6936 385,-122.6936 385,-103.6936 333,-103.6936"/>
<text text-anchor="start" x="375.8862" y="-109.7936" font-family="Helvetica,sans-Serif" font-size="11.00" fill="#000000"> &#160;</text>
<polygon fill="#ffffff" stroke="transparent" points="385,-103.6936 385,-122.6936 437,-122.6936 437,-103.6936 385,-103.6936"/>
<polygon fill="none" stroke="#000000" points="385,-103.6936 385,-122.6936 437,-122.6936 437,-103.6936 385,-103.6936"/>
<text text-anchor="start" x="427.8862" y="-109.7936" font-family="Helvetica,sans-Serif" font-size="11.00" fill="#000000"> &#160;</text>
</a>
</g>
</g>
<!-- patient_tracker_element&#45;&gt;list_options -->
<g id="edge34" class="edge">
<title>patient_tracker_element:w&#45;&gt;list_options:e</title>
<path fill="none" stroke="#000000" d="M218.5221,-130.4875C196.7388,-131.3262 187.9925,-146.4691 173,-169.6936 123.4353,-246.4732 85.4648,-528.7932 73.7618,-628.007"/>
<polygon fill="#000000" stroke="#000000" points="225.0276,-131.0294 232.7011,-135.2811 229.0138,-131.3615 233,-131.6936 233,-131.6936 233,-131.6936 229.0138,-131.3615 233.2989,-128.106 225.0276,-131.0294 225.0276,-131.0294"/>
<ellipse fill="none" stroke="#000000" cx="221.8387" cy="-130.7637" rx="3.2" ry="3.2"/>
</g>
<!-- patient_tracker_element&#45;&gt;list_options -->
<g id="edge35" class="edge">
<title>patient_tracker_element:w&#45;&gt;list_options:e</title>
<path fill="none" stroke="#000000" d="M219.1363,-135.6589C196.9018,-144.0439 188.1326,-159.252 173,-182.6936 124.4312,-257.9303 86.9955,-530.53 74.499,-627.9096"/>
<polygon fill="#000000" stroke="#000000" points="225.3084,-133.8936 233.99,-135.1548 229.1542,-132.7936 233,-131.6936 233,-131.6936 233,-131.6936 229.1542,-132.7936 232.01,-128.2324 225.3084,-133.8936 225.3084,-133.8936"/>
<ellipse fill="none" stroke="#000000" cx="222.2318" cy="-134.7735" rx="3.2" ry="3.2"/>
</g>
<!-- pnotes -->
<g id="node14" class="node">
<title>pnotes</title>
<g id="a_node14"><a xlink:href="../../tables/pnotes.html" xlink:title="pnotes" target="_top">
<polygon fill="#ffffff" stroke="transparent" points="292.5,-1250.1936 292.5,-1311.1936 377.5,-1311.1936 377.5,-1250.1936 292.5,-1250.1936"/>
<polygon fill="#f5f5f5" stroke="transparent" points="293,-1287.6936 293,-1310.6936 378,-1310.6936 378,-1287.6936 293,-1287.6936"/>
<polygon fill="none" stroke="#000000" points="293,-1287.6936 293,-1310.6936 378,-1310.6936 378,-1287.6936 293,-1287.6936"/>
<text text-anchor="start" x="298" y="-1296.2936" font-family="Helvetica,sans-Serif" font-weight="bold" font-size="11.00" fill="#000000">pnotes</text>
<text text-anchor="start" x="343.5219" y="-1295.7936" font-family="Helvetica,sans-Serif" font-size="11.00" fill="#000000">[table]</text>
<polygon fill="none" stroke="#000000" points="293,-1268.6936 293,-1287.6936 378,-1287.6936 378,-1268.6936 293,-1268.6936"/>
<text text-anchor="start" x="296" y="-1274.7936" font-family="Helvetica,sans-Serif" font-size="11.00" fill="#000000">...</text>
<polygon fill="#ffffff" stroke="transparent" points="293,-1249.6936 293,-1268.6936 334,-1268.6936 334,-1249.6936 293,-1249.6936"/>
<polygon fill="none" stroke="#000000" points="293,-1249.6936 293,-1268.6936 334,-1268.6936 334,-1249.6936 293,-1249.6936"/>
<text text-anchor="start" x="296" y="-1255.7936" font-family="Helvetica,sans-Serif" font-size="11.00" fill="#000000">&lt; 6</text>
<polygon fill="#ffffff" stroke="transparent" points="334,-1249.6936 334,-1268.6936 356,-1268.6936 356,-1249.6936 334,-1249.6936"/>
<polygon fill="none" stroke="#000000" points="334,-1249.6936 334,-1268.6936 356,-1268.6936 356,-1249.6936 334,-1249.6936"/>
<text text-anchor="start" x="346.8862" y="-1255.7936" font-family="Helvetica,sans-Serif" font-size="11.00" fill="#000000"> &#160;</text>
<polygon fill="#ffffff" stroke="transparent" points="356,-1249.6936 356,-1268.6936 378,-1268.6936 378,-1249.6936 356,-1249.6936"/>
<polygon fill="none" stroke="#000000" points="356,-1249.6936 356,-1268.6936 378,-1268.6936 378,-1249.6936 356,-1249.6936"/>
<text text-anchor="start" x="368.8862" y="-1255.7936" font-family="Helvetica,sans-Serif" font-size="11.00" fill="#000000"> &#160;</text>
</a>
</g>
</g>
<!-- pnotes&#45;&gt;list_options -->
<g id="edge36" class="edge">
<title>pnotes:w&#45;&gt;list_options:e</title>
<path fill="none" stroke="#000000" d="M278.5705,-1277.7725C231.9486,-1278.1773 205.7526,-1278.6788 173,-1239.6936 137.5207,-1197.4628 149.3793,-1048.0466 140,-993.6936 121.2224,-884.8777 92.2729,-757.3746 78.2184,-697.3163"/>
<polygon fill="#000000" stroke="#000000" points="285.0001,-1277.7374 293.0197,-1281.2935 289.0001,-1277.7155 293,-1277.6936 293,-1277.6936 293,-1277.6936 289.0001,-1277.7155 292.9803,-1274.0936 285.0001,-1277.7374 285.0001,-1277.7374"/>
<ellipse fill="none" stroke="#000000" cx="281.8002" cy="-1277.7549" rx="3.2" ry="3.2"/>
</g>
<!-- pnotes&#45;&gt;patient_data -->
<g id="edge37" class="edge">
<title>pnotes:w&#45;&gt;patient_data:e</title>
<path fill="none" stroke="#000000" d="M278.599,-1277.7478C232.1604,-1277.9938 206.9313,-1277.6573 173,-1239.6936 110.2096,-1169.4412 226.2233,-1031.6936 132,-1031.6936"/>
<polygon fill="#000000" stroke="#000000" points="285.0001,-1277.7238 293.0136,-1281.2935 289,-1277.7087 293,-1277.6936 293,-1277.6936 293,-1277.6936 289,-1277.7087 292.9864,-1274.0936 285.0001,-1277.7238 285.0001,-1277.7238"/>
<ellipse fill="none" stroke="#000000" cx="281.8001" cy="-1277.7358" rx="3.2" ry="3.2"/>
</g>
<!-- procedure_order -->
<g id="node15" class="node">
<title>procedure_order</title>
<g id="a_node15"><a xlink:href="../../tables/procedure_order.html" xlink:title="procedure_order" target="_top">
<polygon fill="#ffffff" stroke="transparent" points="259.5,-676.1936 259.5,-737.1936 410.5,-737.1936 410.5,-676.1936 259.5,-676.1936"/>
<polygon fill="#f5f5f5" stroke="transparent" points="260,-713.6936 260,-736.6936 411,-736.6936 411,-713.6936 260,-713.6936"/>
<polygon fill="none" stroke="#000000" points="260,-713.6936 260,-736.6936 411,-736.6936 411,-713.6936 260,-713.6936"/>
<text text-anchor="start" x="265" y="-722.2936" font-family="Helvetica,sans-Serif" font-weight="bold" font-size="11.00" fill="#000000">procedure_order</text>
<text text-anchor="start" x="376.5219" y="-721.7936" font-family="Helvetica,sans-Serif" font-size="11.00" fill="#000000">[table]</text>
<polygon fill="none" stroke="#000000" points="260,-694.6936 260,-713.6936 411,-713.6936 411,-694.6936 260,-694.6936"/>
<text text-anchor="start" x="263" y="-700.7936" font-family="Helvetica,sans-Serif" font-size="11.00" fill="#000000">...</text>
<polygon fill="#ffffff" stroke="transparent" points="260,-675.6936 260,-694.6936 332,-694.6936 332,-675.6936 260,-675.6936"/>
<polygon fill="none" stroke="#000000" points="260,-675.6936 260,-694.6936 332,-694.6936 332,-675.6936 260,-675.6936"/>
<text text-anchor="start" x="263" y="-681.7936" font-family="Helvetica,sans-Serif" font-size="11.00" fill="#000000">&lt; 13</text>
<polygon fill="#ffffff" stroke="transparent" points="332,-675.6936 332,-694.6936 367,-694.6936 367,-675.6936 332,-675.6936"/>
<polygon fill="none" stroke="#000000" points="332,-675.6936 332,-694.6936 367,-694.6936 367,-675.6936 332,-675.6936"/>
<text text-anchor="start" x="357.8862" y="-681.7936" font-family="Helvetica,sans-Serif" font-size="11.00" fill="#000000"> &#160;</text>
<polygon fill="#ffffff" stroke="transparent" points="367,-675.6936 367,-694.6936 411,-694.6936 411,-675.6936 367,-675.6936"/>
<polygon fill="none" stroke="#000000" points="367,-675.6936 367,-694.6936 411,-694.6936 411,-675.6936 367,-675.6936"/>
<text text-anchor="start" x="392.4053" y="-681.7936" font-family="Helvetica,sans-Serif" font-size="11.00" fill="#000000">3 &gt;</text>
</a>
</g>
</g>
<!-- procedure_order&#45;&gt;list_options -->
<g id="edge38" class="edge">
<title>procedure_order:w&#45;&gt;list_options:e</title>
<path fill="none" stroke="#000000" d="M246.6415,-697.7117C208.5846,-680.8177 168.4531,-664.3346 136.0764,-654.9328"/>
<polygon fill="#000000" stroke="#000000" points="252.6986,-700.424 258.5287,-706.9792 256.3493,-702.0588 260,-703.6936 260,-703.6936 260,-703.6936 256.3493,-702.0588 261.4713,-700.4079 252.6986,-700.424 252.6986,-700.424"/>
<ellipse fill="none" stroke="#000000" cx="249.778" cy="-699.1162" rx="3.2" ry="3.2"/>
</g>
<!-- procedure_order&#45;&gt;list_options -->
<g id="edge39" class="edge">
<title>procedure_order:w&#45;&gt;list_options:e</title>
<path fill="none" stroke="#000000" d="M246.1428,-699.4471C208.2343,-687.6445 168.3117,-673.8587 136.0764,-664.6732"/>
<polygon fill="#000000" stroke="#000000" points="252.3511,-701.3496 258.9452,-707.1356 256.1755,-702.5216 260,-703.6936 260,-703.6936 260,-703.6936 256.1755,-702.5216 261.0548,-700.2516 252.3511,-701.3496 252.3511,-701.3496"/>
<ellipse fill="none" stroke="#000000" cx="249.2915" cy="-700.412" rx="3.2" ry="3.2"/>
</g>
<!-- procedure_order&#45;&gt;list_options -->
<g id="edge40" class="edge">
<title>procedure_order:w&#45;&gt;list_options:e</title>
<path fill="none" stroke="#000000" d="M245.6439,-701.3143C207.8842,-694.517 168.1704,-683.3844 136.0764,-674.4137"/>
<polygon fill="#000000" stroke="#000000" points="252.1077,-702.3855 259.4114,-707.2451 256.0538,-703.0395 260,-703.6936 260,-703.6936 260,-703.6936 256.0538,-703.0395 260.5886,-700.142 252.1077,-702.3855 252.1077,-702.3855"/>
<ellipse fill="none" stroke="#000000" cx="248.9507" cy="-701.8623" rx="3.2" ry="3.2"/>
</g>
<!-- procedure_order&#45;&gt;list_options -->
<g id="edge42" class="edge">
<title>procedure_order:w&#45;&gt;list_options:e</title>
<path fill="none" stroke="#000000" d="M245.1447,-703.3123C207.5345,-701.4349 168.029,-692.9117 136.0764,-684.1542"/>
<polygon fill="#000000" stroke="#000000" points="252.0026,-703.4882 259.9076,-707.2924 256.0013,-703.5909 260,-703.6936 260,-703.6936 260,-703.6936 256.0013,-703.5909 260.0924,-700.0948 252.0026,-703.4882 252.0026,-703.4882"/>
<ellipse fill="none" stroke="#000000" cx="248.8037" cy="-703.4061" rx="3.2" ry="3.2"/>
</g>
<!-- procedure_order&#45;&gt;list_options -->
<g id="edge43" class="edge">
<title>procedure_order:w&#45;&gt;list_options:e</title>
<path fill="none" stroke="#000000" d="M245.6439,-705.3593C207.8842,-708.5037 168.1704,-702.5164 136.0764,-693.8947"/>
<polygon fill="#000000" stroke="#000000" points="252.0533,-704.6157 260.4149,-707.2696 256.0267,-704.1546 260,-703.6936 260,-703.6936 260,-703.6936 256.0267,-704.1546 259.5851,-700.1176 252.0533,-704.6157 252.0533,-704.6157"/>
<ellipse fill="none" stroke="#000000" cx="248.8746" cy="-704.9845" rx="3.2" ry="3.2"/>
</g>
<!-- procedure_order&#45;&gt;list_options -->
<g id="edge44" class="edge">
<title>procedure_order:w&#45;&gt;list_options:e</title>
<path fill="none" stroke="#000000" d="M245.7727,-707.3541C199.5618,-717.3188 150.4072,-710.0001 115.8635,-697.3107"/>
<polygon fill="#000000" stroke="#000000" points="252.2523,-705.687 260.897,-707.18 256.1262,-704.6903 260,-703.6936 260,-703.6936 260,-703.6936 256.1262,-704.6903 259.103,-700.2071 252.2523,-705.687 252.2523,-705.687"/>
<ellipse fill="none" stroke="#000000" cx="249.1533" cy="-706.4844" rx="3.2" ry="3.2"/>
</g>
<!-- procedure_order&#45;&gt;list_options -->
<g id="edge45" class="edge">
<title>procedure_order:w&#45;&gt;list_options:e</title>
<path fill="none" stroke="#000000" d="M246.3037,-709.1742C190.5005,-728.7655 130.3021,-717.8176 96.6674,-697.3396"/>
<polygon fill="#000000" stroke="#000000" points="252.5726,-706.6657 261.3375,-707.0359 256.2863,-705.1796 260,-703.6936 260,-703.6936 260,-703.6936 256.2863,-705.1796 258.6625,-700.3512 252.5726,-706.6657 252.5726,-706.6657"/>
<ellipse fill="none" stroke="#000000" cx="249.6016" cy="-707.8546" rx="3.2" ry="3.2"/>
</g>
<!-- procedure_order&#45;&gt;patient_data -->
<g id="edge41" class="edge">
<title>procedure_order:w&#45;&gt;patient_data:e</title>
<path fill="none" stroke="#000000" d="M245.2995,-704.1123C212.115,-706.2139 195.2197,-716.7641 173,-747.6936 135.7962,-799.4806 195.7654,-1031.6936 132,-1031.6936"/>
<polygon fill="#000000" stroke="#000000" points="252.0032,-703.9214 260.1025,-707.2921 256.0016,-703.8075 260,-703.6936 260,-703.6936 260,-703.6936 256.0016,-703.8075 259.8975,-700.095 252.0032,-703.9214 252.0032,-703.9214"/>
<ellipse fill="none" stroke="#000000" cx="248.8045" cy="-704.0125" rx="3.2" ry="3.2"/>
</g>
<!-- procedure_report -->
<g id="node16" class="node">
<title>procedure_report</title>
<g id="a_node16"><a xlink:href="../../tables/procedure_report.html" xlink:title="procedure_report" target="_top">
<polygon fill="#ffffff" stroke="transparent" points="550,-659.1936 550,-720.1936 706,-720.1936 706,-659.1936 550,-659.1936"/>
<polygon fill="#f5f5f5" stroke="transparent" points="550,-696.6936 550,-719.6936 706,-719.6936 706,-696.6936 550,-696.6936"/>
<polygon fill="none" stroke="#000000" points="550,-696.6936 550,-719.6936 706,-719.6936 706,-696.6936 550,-696.6936"/>
<text text-anchor="start" x="555" y="-705.2936" font-family="Helvetica,sans-Serif" font-weight="bold" font-size="11.00" fill="#000000">procedure_report</text>
<text text-anchor="start" x="671.5219" y="-704.7936" font-family="Helvetica,sans-Serif" font-size="11.00" fill="#000000">[table]</text>
<polygon fill="none" stroke="#000000" points="550,-677.6936 550,-696.6936 706,-696.6936 706,-677.6936 550,-677.6936"/>
<text text-anchor="start" x="553" y="-683.7936" font-family="Helvetica,sans-Serif" font-size="11.00" fill="#000000">...</text>
<polygon fill="#ffffff" stroke="transparent" points="550,-658.6936 550,-677.6936 622,-677.6936 622,-658.6936 550,-658.6936"/>
<polygon fill="none" stroke="#000000" points="550,-658.6936 550,-677.6936 622,-677.6936 622,-658.6936 550,-658.6936"/>
<text text-anchor="start" x="553" y="-664.7936" font-family="Helvetica,sans-Serif" font-size="11.00" fill="#000000">&lt; 3</text>
<polygon fill="#ffffff" stroke="transparent" points="622,-658.6936 622,-677.6936 659,-677.6936 659,-658.6936 622,-658.6936"/>
<polygon fill="none" stroke="#000000" points="622,-658.6936 622,-677.6936 659,-677.6936 659,-658.6936 622,-658.6936"/>
<text text-anchor="start" x="649.8862" y="-664.7936" font-family="Helvetica,sans-Serif" font-size="11.00" fill="#000000"> &#160;</text>
<polygon fill="#ffffff" stroke="transparent" points="659,-658.6936 659,-677.6936 706,-677.6936 706,-658.6936 659,-658.6936"/>
<polygon fill="none" stroke="#000000" points="659,-658.6936 659,-677.6936 706,-677.6936 706,-658.6936 659,-658.6936"/>
<text text-anchor="start" x="687.4053" y="-664.7936" font-family="Helvetica,sans-Serif" font-size="11.00" fill="#000000">1 &gt;</text>
</a>
</g>
</g>
<!-- procedure_report&#45;&gt;list_options -->
<g id="edge47" class="edge">
<title>procedure_report:w&#45;&gt;list_options:e</title>
<path fill="none" stroke="#000000" d="M535.8574,-683.943C507.0224,-670.0658 535.9711,-607.4683 497,-583.6936 435.535,-546.1963 241.1814,-560.5572 173,-583.6936 146.7508,-592.6009 121.9479,-611.186 103.2611,-628.0929"/>
<polygon fill="#000000" stroke="#000000" points="542.1471,-685.1662 549.3127,-690.2274 546.0736,-685.9299 550,-686.6936 550,-686.6936 550,-686.6936 546.0736,-685.9299 550.6873,-683.1598 542.1471,-685.1662 542.1471,-685.1662"/>
<ellipse fill="none" stroke="#000000" cx="539.006" cy="-684.5553" rx="3.2" ry="3.2"/>
</g>
<!-- procedure_report&#45;&gt;procedure_order -->
<g id="edge46" class="edge">
<title>procedure_report:w&#45;&gt;procedure_order:e</title>
<path fill="none" stroke="#000000" d="M535.5941,-687.018C485.058,-689.3682 468.1326,-703.6936 411,-703.6936"/>
<polygon fill="#000000" stroke="#000000" points="542.002,-686.8737 550.0811,-690.2927 546.001,-686.7837 550,-686.6936 550,-686.6936 550,-686.6936 546.001,-686.7837 549.9189,-683.0945 542.002,-686.8737 542.002,-686.8737"/>
<ellipse fill="none" stroke="#000000" cx="538.8028" cy="-686.9458" rx="3.2" ry="3.2"/>
</g>
<!-- procedure_type -->
<g id="node17" class="node">
<title>procedure_type</title>
<g id="a_node17"><a xlink:href="../../tables/procedure_type.html" xlink:title="procedure_type" target="_top">
<polygon fill="#ffffff" stroke="transparent" points="263,-268.1936 263,-329.1936 407,-329.1936 407,-268.1936 263,-268.1936"/>
<polygon fill="#f5f5f5" stroke="transparent" points="263,-305.6936 263,-328.6936 407,-328.6936 407,-305.6936 263,-305.6936"/>
<polygon fill="none" stroke="#000000" points="263,-305.6936 263,-328.6936 407,-328.6936 407,-305.6936 263,-305.6936"/>
<text text-anchor="start" x="268" y="-314.2936" font-family="Helvetica,sans-Serif" font-weight="bold" font-size="11.00" fill="#000000">procedure_type</text>
<text text-anchor="start" x="372.5219" y="-313.7936" font-family="Helvetica,sans-Serif" font-size="11.00" fill="#000000">[table]</text>
<polygon fill="none" stroke="#000000" points="263,-286.6936 263,-305.6936 407,-305.6936 407,-286.6936 263,-286.6936"/>
<text text-anchor="start" x="266" y="-292.7936" font-family="Helvetica,sans-Serif" font-size="11.00" fill="#000000">...</text>
<polygon fill="#ffffff" stroke="transparent" points="263,-267.6936 263,-286.6936 329,-286.6936 329,-267.6936 263,-267.6936"/>
<polygon fill="none" stroke="#000000" points="263,-267.6936 263,-286.6936 329,-286.6936 329,-267.6936 263,-267.6936"/>
<text text-anchor="start" x="266" y="-273.7936" font-family="Helvetica,sans-Serif" font-size="11.00" fill="#000000">&lt; 1</text>
<polygon fill="#ffffff" stroke="transparent" points="329,-267.6936 329,-286.6936 363,-286.6936 363,-267.6936 329,-267.6936"/>
<polygon fill="none" stroke="#000000" points="329,-267.6936 329,-286.6936 363,-286.6936 363,-267.6936 329,-267.6936"/>
<text text-anchor="start" x="353.8862" y="-273.7936" font-family="Helvetica,sans-Serif" font-size="11.00" fill="#000000"> &#160;</text>
<polygon fill="#ffffff" stroke="transparent" points="363,-267.6936 363,-286.6936 407,-286.6936 407,-267.6936 363,-267.6936"/>
<polygon fill="none" stroke="#000000" points="363,-267.6936 363,-286.6936 407,-286.6936 407,-267.6936 363,-267.6936"/>
<text text-anchor="start" x="388.4053" y="-273.7936" font-family="Helvetica,sans-Serif" font-size="11.00" fill="#000000">2 &gt;</text>
</a>
</g>
</g>
<!-- procedure_type&#45;&gt;list_options -->
<g id="edge48" class="edge">
<title>procedure_type:w&#45;&gt;list_options:e</title>
<path fill="none" stroke="#000000" d="M248.499,-296.4767C111.3937,-311.5399 79.3521,-539.8409 72.0725,-628.1671"/>
<polygon fill="#000000" stroke="#000000" points="255.0116,-296.125 263.1942,-299.2883 259.0058,-295.9093 263,-295.6936 263,-295.6936 263,-295.6936 259.0058,-295.9093 262.8058,-292.0988 255.0116,-296.125 255.0116,-296.125"/>
<ellipse fill="none" stroke="#000000" cx="251.8163" cy="-296.2976" rx="3.2" ry="3.2"/>
</g>
<!-- rule_patient_data -->
<g id="node18" class="node">
<title>rule_patient_data</title>
<g id="a_node18"><a xlink:href="../../tables/rule_patient_data.html" xlink:title="rule_patient_data" target="_top">
<polygon fill="#ffffff" stroke="transparent" points="549.5,-456.1936 549.5,-605.1936 706.5,-605.1936 706.5,-456.1936 549.5,-456.1936"/>
<polygon fill="#f5f5f5" stroke="transparent" points="550,-581.6936 550,-604.6936 707,-604.6936 707,-581.6936 550,-581.6936"/>
<polygon fill="none" stroke="#000000" points="550,-581.6936 550,-604.6936 707,-604.6936 707,-581.6936 550,-581.6936"/>
<text text-anchor="start" x="555" y="-590.2936" font-family="Helvetica,sans-Serif" font-weight="bold" font-size="11.00" fill="#000000">rule_patient_data</text>
<text text-anchor="start" x="672.5219" y="-589.7936" font-family="Helvetica,sans-Serif" font-size="11.00" fill="#000000">[table]</text>
<polygon fill="none" stroke="#000000" points="550,-559.6936 550,-581.6936 707,-581.6936 707,-559.6936 550,-559.6936"/>
<image xlink:href="../../images/primaryKeys.png" width="11px" height="12px" preserveAspectRatio="xMinYMin meet" x="555" y="-576.694"/>
<text text-anchor="start" x="579" y="-566.7936" font-family="Helvetica,sans-Serif" font-size="11.00" fill="#000000">id</text>
<polygon fill="#ffffff" stroke="transparent" points="550,-537.6936 550,-559.6936 707,-559.6936 707,-537.6936 550,-537.6936"/>
<polygon fill="none" stroke="#000000" points="550,-537.6936 550,-559.6936 707,-559.6936 707,-537.6936 550,-537.6936"/>
<image xlink:href="../../images/foreignKeys.png" width="11px" height="12px" preserveAspectRatio="xMinYMin meet" x="555" y="-554.694"/>
<text text-anchor="start" x="579" y="-544.7936" font-family="Helvetica,sans-Serif" font-size="11.00" fill="#000000">pid</text>
<polygon fill="#ffffff" stroke="transparent" points="550,-515.6936 550,-537.6936 707,-537.6936 707,-515.6936 550,-515.6936"/>
<polygon fill="none" stroke="#000000" points="550,-515.6936 550,-537.6936 707,-537.6936 707,-515.6936 550,-515.6936"/>
<image xlink:href="../../images/foreignKeys.png" width="11px" height="12px" preserveAspectRatio="xMinYMin meet" x="555" y="-532.694"/>
<text text-anchor="start" x="579" y="-522.7936" font-family="Helvetica,sans-Serif" font-size="11.00" fill="#000000">category</text>
<polygon fill="#ffffff" stroke="transparent" points="550,-493.6936 550,-515.6936 707,-515.6936 707,-493.6936 550,-493.6936"/>
<polygon fill="none" stroke="#000000" points="550,-493.6936 550,-515.6936 707,-515.6936 707,-493.6936 550,-493.6936"/>
<image xlink:href="../../images/foreignKeys.png" width="11px" height="12px" preserveAspectRatio="xMinYMin meet" x="555" y="-510.694"/>
<text text-anchor="start" x="579" y="-500.7936" font-family="Helvetica,sans-Serif" font-size="11.00" fill="#000000">item</text>
<polygon fill="none" stroke="#000000" points="550,-474.6936 550,-493.6936 707,-493.6936 707,-474.6936 550,-474.6936"/>
<text text-anchor="start" x="553" y="-480.7936" font-family="Helvetica,sans-Serif" font-size="11.00" fill="#000000">...</text>
<polygon fill="#ffffff" stroke="transparent" points="550,-455.6936 550,-474.6936 627,-474.6936 627,-455.6936 550,-455.6936"/>
<polygon fill="none" stroke="#000000" points="550,-455.6936 550,-474.6936 627,-474.6936 627,-455.6936 550,-455.6936"/>
<text text-anchor="start" x="553" y="-461.7936" font-family="Helvetica,sans-Serif" font-size="11.00" fill="#000000">&lt; 3</text>
<polygon fill="#ffffff" stroke="transparent" points="627,-455.6936 627,-474.6936 667,-474.6936 667,-455.6936 627,-455.6936"/>
<polygon fill="none" stroke="#000000" points="627,-455.6936 627,-474.6936 667,-474.6936 667,-455.6936 627,-455.6936"/>
<text text-anchor="start" x="657.8862" y="-461.7936" font-family="Helvetica,sans-Serif" font-size="11.00" fill="#000000"> &#160;</text>
<polygon fill="#ffffff" stroke="transparent" points="667,-455.6936 667,-474.6936 707,-474.6936 707,-455.6936 667,-455.6936"/>
<polygon fill="none" stroke="#000000" points="667,-455.6936 667,-474.6936 707,-474.6936 707,-455.6936 667,-455.6936"/>
<text text-anchor="start" x="697.8862" y="-461.7936" font-family="Helvetica,sans-Serif" font-size="11.00" fill="#000000"> &#160;</text>
</a>
</g>
</g>
<!-- rule_patient_data&#45;&gt;patient_data -->
<g id="edge53" class="edge">
<title>rule_patient_data:w&#45;&gt;patient_data:e</title>
<path fill="none" stroke="#000000" d="M537.0748,-555.0641C471.6925,-627.1485 557.7111,-1287.7888 497,-1345.6936 444.8983,-1395.3868 227.1073,-1393.1952 173,-1345.6936 120.1176,-1299.2673 202.3701,-1031.6936 132,-1031.6936"/>
<polygon fill="#000000" stroke="#000000" points="542.8243,-552.2304 551.5916,-551.9227 546.4121,-550.462 550,-548.6936 550,-548.6936 550,-548.6936 546.4121,-550.462 548.4084,-545.4645 542.8243,-552.2304 542.8243,-552.2304"/>
<ellipse fill="none" stroke="#000000" cx="539.954" cy="-553.6451" rx="3.2" ry="3.2"/>
</g>
<!-- rule_patient_data&#45;&gt;rule_action_item -->
<g id="edge51" class="edge">
<title>rule_patient_data:w&#45;&gt;rule_action_item:e</title>
<path fill="none" stroke="#000000" d="M535.4463,-526.1279C499.0602,-523.1782 485.8854,-509.6936 443,-509.6936"/>
<polygon fill="#000000" stroke="#000000" points="542.006,-526.3828 549.8602,-530.2909 546.003,-526.5382 550,-526.6936 550,-526.6936 550,-526.6936 546.003,-526.5382 550.1398,-523.0963 542.006,-526.3828 542.006,-526.3828"/>
<ellipse fill="none" stroke="#000000" cx="538.8084" cy="-526.2585" rx="3.2" ry="3.2"/>
</g>
<!-- rule_patient_data&#45;&gt;rule_action_item -->
<g id="edge52" class="edge">
<title>rule_patient_data:w&#45;&gt;rule_action_item:e</title>
<path fill="none" stroke="#000000" d="M535.4463,-504.1279C499.0602,-501.1782 485.8854,-487.6936 443,-487.6936"/>
<polygon fill="#000000" stroke="#000000" points="542.006,-504.3828 549.8602,-508.2909 546.003,-504.5382 550,-504.6936 550,-504.6936 550,-504.6936 546.003,-504.5382 550.1398,-501.0963 542.006,-504.3828 542.006,-504.3828"/>
<ellipse fill="none" stroke="#000000" cx="538.8084" cy="-504.2585" rx="3.2" ry="3.2"/>
</g>
<!-- therapy_groups_participant_attendance -->
<g id="node19" class="node">
<title>therapy_groups_participant_attendance</title>
<g id="a_node19"><a xlink:href="../../tables/therapy_groups_participant_attendance.html" xlink:title="therapy_groups_participant_attendance" target="_top">
<polygon fill="#ffffff" stroke="transparent" points="181,-1168.1936 181,-1229.1936 489,-1229.1936 489,-1168.1936 181,-1168.1936"/>
<polygon fill="#f5f5f5" stroke="transparent" points="181,-1205.6936 181,-1228.6936 489,-1228.6936 489,-1205.6936 181,-1205.6936"/>
<polygon fill="none" stroke="#000000" points="181,-1205.6936 181,-1228.6936 489,-1228.6936 489,-1205.6936 181,-1205.6936"/>
<text text-anchor="start" x="186" y="-1214.2936" font-family="Helvetica,sans-Serif" font-weight="bold" font-size="11.00" fill="#000000">therapy_groups_participant_attendance</text>
<text text-anchor="start" x="454.5219" y="-1213.7936" font-family="Helvetica,sans-Serif" font-size="11.00" fill="#000000">[table]</text>
<polygon fill="none" stroke="#000000" points="181,-1186.6936 181,-1205.6936 489,-1205.6936 489,-1186.6936 181,-1186.6936"/>
<text text-anchor="start" x="184" y="-1192.7936" font-family="Helvetica,sans-Serif" font-size="11.00" fill="#000000">...</text>
<polygon fill="#ffffff" stroke="transparent" points="181,-1167.6936 181,-1186.6936 333,-1186.6936 333,-1167.6936 181,-1167.6936"/>
<polygon fill="none" stroke="#000000" points="181,-1167.6936 181,-1186.6936 333,-1186.6936 333,-1167.6936 181,-1167.6936"/>
<text text-anchor="start" x="184" y="-1173.7936" font-family="Helvetica,sans-Serif" font-size="11.00" fill="#000000">&lt; 3</text>
<polygon fill="#ffffff" stroke="transparent" points="333,-1167.6936 333,-1186.6936 411,-1186.6936 411,-1167.6936 333,-1167.6936"/>
<polygon fill="none" stroke="#000000" points="333,-1167.6936 333,-1186.6936 411,-1186.6936 411,-1167.6936 333,-1167.6936"/>
<text text-anchor="start" x="401.8862" y="-1173.7936" font-family="Helvetica,sans-Serif" font-size="11.00" fill="#000000"> &#160;</text>
<polygon fill="#ffffff" stroke="transparent" points="411,-1167.6936 411,-1186.6936 489,-1186.6936 489,-1167.6936 411,-1167.6936"/>
<polygon fill="none" stroke="#000000" points="411,-1167.6936 411,-1186.6936 489,-1186.6936 489,-1167.6936 411,-1167.6936"/>
<text text-anchor="start" x="479.8862" y="-1173.7936" font-family="Helvetica,sans-Serif" font-size="11.00" fill="#000000"> &#160;</text>
</a>
</g>
</g>
<!-- therapy_groups_participant_attendance&#45;&gt;list_options -->
<g id="edge54" class="edge">
<title>therapy_groups_participant_attendance:w&#45;&gt;list_options:e</title>
<path fill="none" stroke="#000000" d="M171.7434,-1184.3923C172.1201,-1176.8375 174.8488,-1166.6741 173,-1157.6936 158.0081,-1084.8709 155.0252,-1066.5094 140,-993.6936 117.6847,-885.5477 90.3935,-757.7306 77.4696,-697.4581"/>
<polygon fill="#000000" stroke="#000000" points="175.9308,-1189.5046 178.215,-1197.9747 178.4654,-1192.5991 181,-1195.6936 181,-1195.6936 181,-1195.6936 178.4654,-1192.5991 183.785,-1193.4124 175.9308,-1189.5046 175.9308,-1189.5046"/>
<ellipse fill="none" stroke="#000000" cx="173.9031" cy="-1187.029" rx="3.2" ry="3.2"/>
</g>
<!-- therapy_groups_participant_attendance&#45;&gt;patient_data -->
<g id="edge55" class="edge">
<title>therapy_groups_participant_attendance:w&#45;&gt;patient_data:e</title>
<path fill="none" stroke="#000000" d="M166.5773,-1192.9839C119.601,-1171.6607 202.2781,-1031.6936 132,-1031.6936"/>
<polygon fill="#000000" stroke="#000000" points="173.1376,-1194.2163 180.3353,-1199.2317 177.0688,-1194.955 181,-1195.6936 181,-1195.6936 181,-1195.6936 177.0688,-1194.955 181.6647,-1192.1555 173.1376,-1194.2163 173.1376,-1194.2163"/>
<ellipse fill="none" stroke="#000000" cx="169.9926" cy="-1193.6255" rx="3.2" ry="3.2"/>
</g>
</g>
</svg>
