<?xml version="1.0" encoding="UTF-8" standalone="no"?>
<!DOCTYPE svg PUBLIC "-//W3C//DTD SVG 1.1//EN"
 "http://www.w3.org/Graphics/SVG/1.1/DTD/svg11.dtd">
<!-- Generated by graphviz version 2.40.1 (20161225.0304)
 -->
<!-- Title: oneDegreeRelationshipsDiagram Pages: 1 -->
<svg width="518pt" height="595pt"
 viewBox="0.00 0.00 518.00 594.70" xmlns="http://www.w3.org/2000/svg" xmlns:xlink="http://www.w3.org/1999/xlink">
<g id="graph0" class="graph" transform="scale(1 1) rotate(0) translate(4 590.7)">
<title>oneDegreeRelationshipsDiagram</title>
<polygon fill="#ffffff" stroke="transparent" points="-4,4 -4,-590.7 514,-590.7 514,4 -4,4"/>
<text text-anchor="middle" x="72.4936" y="-7.3" font-family="Helvetica,sans-Serif" font-size="11.00" fill="#000000">Generated by SchemaSpy</text>
<!-- rule_patient_data -->
<g id="node1" class="node">
<title>rule_patient_data</title>
<g id="a_node1"><a xlink:href="../../tables/rule_patient_data.html" xlink:title="rule_patient_data" target="_top">
<polygon fill="#ffffff" stroke="transparent" points="305,-38.2 305,-238.2 502,-238.2 502,-38.2 305,-38.2"/>
<polygon fill="#f5f5f5" stroke="transparent" points="307.5,-213.2 307.5,-236.2 500.5,-236.2 500.5,-213.2 307.5,-213.2"/>
<polygon fill="none" stroke="#000000" points="307.5,-213.2 307.5,-236.2 500.5,-236.2 500.5,-213.2 307.5,-213.2"/>
<text text-anchor="start" x="312.5" y="-221.8" font-family="Helvetica,sans-Serif" font-weight="bold" font-size="11.00" fill="#000000">rule_patient_data</text>
<text text-anchor="start" x="465.5437" y="-221.3" font-family="Helvetica,sans-Serif" font-size="11.00" fill="#000000">[table]</text>
<polygon fill="none" stroke="#000000" points="307.5,-191.2 307.5,-213.2 433.5,-213.2 433.5,-191.2 307.5,-191.2"/>
<image xlink:href="../../images/primaryKeys.png" width="11px" height="12px" preserveAspectRatio="xMinYMin meet" x="312.5" y="-208.2"/>
<text text-anchor="start" x="327.5" y="-198.3" font-family="Helvetica,sans-Serif" font-size="11.00" fill="#000000">id</text>
<polygon fill="none" stroke="#000000" points="433.5,-191.2 433.5,-213.2 500.5,-213.2 500.5,-191.2 433.5,-191.2"/>
<text text-anchor="start" x="436.5" y="-198.9" font-family="Helvetica,sans-Serif" font-size="11.00" fill="#000000">bigint[19]</text>
<polygon fill="none" stroke="#000000" points="307.5,-169.2 307.5,-191.2 433.5,-191.2 433.5,-169.2 307.5,-169.2"/>
<text text-anchor="start" x="327.5" y="-176.3" font-family="Helvetica,sans-Serif" font-size="11.00" fill="#000000">date</text>
<polygon fill="none" stroke="#000000" points="433.5,-169.2 433.5,-191.2 500.5,-191.2 500.5,-169.2 433.5,-169.2"/>
<text text-anchor="start" x="436.5" y="-176.9" font-family="Helvetica,sans-Serif" font-size="11.00" fill="#000000">datetime[19]</text>
<polygon fill="#ffffff" stroke="transparent" points="307.5,-147.2 307.5,-169.2 433.5,-169.2 433.5,-147.2 307.5,-147.2"/>
<polygon fill="none" stroke="#000000" points="307.5,-147.2 307.5,-169.2 433.5,-169.2 433.5,-147.2 307.5,-147.2"/>
<image xlink:href="../../images/foreignKeys.png" width="11px" height="12px" preserveAspectRatio="xMinYMin meet" x="312.5" y="-164.2"/>
<text text-anchor="start" x="327.5" y="-154.3" font-family="Helvetica,sans-Serif" font-size="11.00" fill="#000000">pid</text>
<polygon fill="none" stroke="#000000" points="433.5,-147.2 433.5,-169.2 500.5,-169.2 500.5,-147.2 433.5,-147.2"/>
<text text-anchor="start" x="436.5" y="-154.9" font-family="Helvetica,sans-Serif" font-size="11.00" fill="#000000">bigint[19]</text>
<polygon fill="#ffffff" stroke="transparent" points="307.5,-125.2 307.5,-147.2 433.5,-147.2 433.5,-125.2 307.5,-125.2"/>
<polygon fill="none" stroke="#000000" points="307.5,-125.2 307.5,-147.2 433.5,-147.2 433.5,-125.2 307.5,-125.2"/>
<image xlink:href="../../images/foreignKeys.png" width="11px" height="12px" preserveAspectRatio="xMinYMin meet" x="312.5" y="-142.2"/>
<text text-anchor="start" x="327.5" y="-132.3" font-family="Helvetica,sans-Serif" font-size="11.00" fill="#000000">category</text>
<polygon fill="none" stroke="#000000" points="433.5,-125.2 433.5,-147.2 500.5,-147.2 500.5,-125.2 433.5,-125.2"/>
<text text-anchor="start" x="436.5" y="-132.9" font-family="Helvetica,sans-Serif" font-size="11.00" fill="#000000">varchar[31]</text>
<polygon fill="#ffffff" stroke="transparent" points="307.5,-103.2 307.5,-125.2 433.5,-125.2 433.5,-103.2 307.5,-103.2"/>
<polygon fill="none" stroke="#000000" points="307.5,-103.2 307.5,-125.2 433.5,-125.2 433.5,-103.2 307.5,-103.2"/>
<image xlink:href="../../images/foreignKeys.png" width="11px" height="12px" preserveAspectRatio="xMinYMin meet" x="312.5" y="-120.2"/>
<text text-anchor="start" x="327.5" y="-110.3" font-family="Helvetica,sans-Serif" font-size="11.00" fill="#000000">item</text>
<polygon fill="none" stroke="#000000" points="433.5,-103.2 433.5,-125.2 500.5,-125.2 500.5,-103.2 433.5,-103.2"/>
<text text-anchor="start" x="436.5" y="-110.9" font-family="Helvetica,sans-Serif" font-size="11.00" fill="#000000">varchar[31]</text>
<polygon fill="none" stroke="#000000" points="307.5,-81.2 307.5,-103.2 433.5,-103.2 433.5,-81.2 307.5,-81.2"/>
<text text-anchor="start" x="327.5" y="-88.3" font-family="Helvetica,sans-Serif" font-size="11.00" fill="#000000">complete</text>
<polygon fill="none" stroke="#000000" points="433.5,-81.2 433.5,-103.2 500.5,-103.2 500.5,-81.2 433.5,-81.2"/>
<text text-anchor="start" x="436.5" y="-88.9" font-family="Helvetica,sans-Serif" font-size="11.00" fill="#000000">varchar[31]</text>
<polygon fill="none" stroke="#000000" points="307.5,-59.2 307.5,-81.2 433.5,-81.2 433.5,-59.2 307.5,-59.2"/>
<text text-anchor="start" x="327.5" y="-66.3" font-family="Helvetica,sans-Serif" font-size="11.00" fill="#000000">result</text>
<polygon fill="none" stroke="#000000" points="433.5,-59.2 433.5,-81.2 500.5,-81.2 500.5,-59.2 433.5,-59.2"/>
<text text-anchor="start" x="436.4365" y="-66.9" font-family="Helvetica,sans-Serif" font-size="11.00" fill="#000000">varchar[255]</text>
<polygon fill="#ffffff" stroke="transparent" points="307.5,-40.2 307.5,-59.2 374.5,-59.2 374.5,-40.2 307.5,-40.2"/>
<polygon fill="none" stroke="#000000" points="307.5,-40.2 307.5,-59.2 374.5,-59.2 374.5,-40.2 307.5,-40.2"/>
<text text-anchor="start" x="310.5" y="-46.3" font-family="Helvetica,sans-Serif" font-size="11.00" fill="#000000">&lt; 3</text>
<polygon fill="#ffffff" stroke="transparent" points="374.5,-40.2 374.5,-59.2 433.5,-59.2 433.5,-40.2 374.5,-40.2"/>
<polygon fill="none" stroke="#000000" points="374.5,-40.2 374.5,-59.2 433.5,-59.2 433.5,-40.2 374.5,-40.2"/>
<text text-anchor="start" x="424.3862" y="-46.3" font-family="Helvetica,sans-Serif" font-size="11.00" fill="#000000"> &#160;</text>
<polygon fill="#ffffff" stroke="transparent" points="433.5,-40.2 433.5,-59.2 500.5,-59.2 500.5,-40.2 433.5,-40.2"/>
<polygon fill="none" stroke="#000000" points="433.5,-40.2 433.5,-59.2 500.5,-59.2 500.5,-40.2 433.5,-40.2"/>
<text text-anchor="start" x="481.9053" y="-46.3" font-family="Helvetica,sans-Serif" font-size="11.00" fill="#000000">0 &gt;</text>
<polygon fill="none" stroke="#000000" stroke-width="2" points="306,-39.2 306,-237.2 501,-237.2 501,-39.2 306,-39.2"/>
</a>
</g>
</g>
<!-- rule_action_item -->
<g id="node2" class="node">
<title>rule_action_item</title>
<g id="a_node2"><a xlink:href="../../tables/rule_action_item.html" xlink:title="rule_action_item" target="_top">
<polygon fill="#ffffff" stroke="transparent" points="63,-65.7 63,-170.7 201,-170.7 201,-65.7 63,-65.7"/>
<polygon fill="#f5f5f5" stroke="transparent" points="63,-147.2 63,-170.2 201,-170.2 201,-147.2 63,-147.2"/>
<polygon fill="none" stroke="#000000" points="63,-147.2 63,-170.2 201,-170.2 201,-147.2 63,-147.2"/>
<text text-anchor="start" x="68" y="-155.8" font-family="Helvetica,sans-Serif" font-weight="bold" font-size="11.00" fill="#000000">rule_action_item</text>
<text text-anchor="start" x="166.5219" y="-155.3" font-family="Helvetica,sans-Serif" font-size="11.00" fill="#000000">[table]</text>
<polygon fill="none" stroke="#000000" points="63,-125.2 63,-147.2 201,-147.2 201,-125.2 63,-125.2"/>
<image xlink:href="../../images/primaryKeys.png" width="11px" height="12px" preserveAspectRatio="xMinYMin meet" x="68" y="-142.2"/>
<text text-anchor="start" x="85" y="-132.3" font-family="Helvetica,sans-Serif" font-size="11.00" fill="#000000">category</text>
<polygon fill="none" stroke="#000000" points="63,-103.2 63,-125.2 201,-125.2 201,-103.2 63,-103.2"/>
<image xlink:href="../../images/primaryKeys.png" width="11px" height="12px" preserveAspectRatio="xMinYMin meet" x="68" y="-120.2"/>
<text text-anchor="start" x="85" y="-110.3" font-family="Helvetica,sans-Serif" font-size="11.00" fill="#000000">item</text>
<polygon fill="none" stroke="#000000" points="63,-84.2 63,-103.2 201,-103.2 201,-84.2 63,-84.2"/>
<text text-anchor="start" x="66" y="-90.3" font-family="Helvetica,sans-Serif" font-size="11.00" fill="#000000">...</text>
<polygon fill="#ffffff" stroke="transparent" points="63,-65.2 63,-84.2 126,-84.2 126,-65.2 63,-65.2"/>
<polygon fill="none" stroke="#000000" points="63,-65.2 63,-84.2 126,-84.2 126,-65.2 63,-65.2"/>
<text text-anchor="start" x="66" y="-71.3" font-family="Helvetica,sans-Serif" font-size="11.00" fill="#000000">&lt; 2</text>
<polygon fill="#ffffff" stroke="transparent" points="126,-65.2 126,-84.2 159,-84.2 159,-65.2 126,-65.2"/>
<polygon fill="none" stroke="#000000" points="126,-65.2 126,-84.2 159,-84.2 159,-65.2 126,-65.2"/>
<text text-anchor="start" x="149.8862" y="-71.3" font-family="Helvetica,sans-Serif" font-size="11.00" fill="#000000"> &#160;</text>
<polygon fill="#ffffff" stroke="transparent" points="159,-65.2 159,-84.2 201,-84.2 201,-65.2 159,-65.2"/>
<polygon fill="none" stroke="#000000" points="159,-65.2 159,-84.2 201,-84.2 201,-65.2 159,-65.2"/>
<text text-anchor="start" x="182.4053" y="-71.3" font-family="Helvetica,sans-Serif" font-size="11.00" fill="#000000">4 &gt;</text>
</a>
</g>
</g>
<!-- rule_patient_data&#45;&gt;rule_action_item -->
<g id="edge1" class="edge">
<title>rule_patient_data:w&#45;&gt;rule_action_item:e</title>
<path fill="none" stroke="#000000" d="M292.6775,-136.2C257.0301,-136.2 242.9714,-136.2 201,-136.2"/>
<polygon fill="#000000" stroke="#000000" points="299.5,-136.2001 307.5,-139.8 303.5,-136.2 307.5,-136.2 307.5,-136.2 307.5,-136.2 303.5,-136.2 307.5,-132.6 299.5,-136.2001 299.5,-136.2001"/>
<ellipse fill="none" stroke="#000000" cx="296.3" cy="-136.2001" rx="3.2" ry="3.2"/>
</g>
<!-- rule_patient_data&#45;&gt;rule_action_item -->
<g id="edge2" class="edge">
<title>rule_patient_data:w&#45;&gt;rule_action_item:e</title>
<path fill="none" stroke="#000000" d="M292.6775,-114.2C257.0301,-114.2 242.9714,-114.2 201,-114.2"/>
<polygon fill="#000000" stroke="#000000" points="299.5,-114.2001 307.5,-117.8 303.5,-114.2 307.5,-114.2 307.5,-114.2 307.5,-114.2 303.5,-114.2 307.5,-110.6 299.5,-114.2001 299.5,-114.2001"/>
<ellipse fill="none" stroke="#000000" cx="296.3" cy="-114.2001" rx="3.2" ry="3.2"/>
</g>
<!-- patient_data -->
<g id="node3" class="node">
<title>patient_data</title>
<g id="a_node3"><a xlink:href="../../tables/patient_data.html" xlink:title="patient_data" target="_top">
<polygon fill="#ffffff" stroke="transparent" points="8,-191.7 8,-582.7 256,-582.7 256,-191.7 8,-191.7"/>
<polygon fill="#f5f5f5" stroke="transparent" points="8,-559.2 8,-582.2 256,-582.2 256,-559.2 8,-559.2"/>
<polygon fill="none" stroke="#000000" points="8,-559.2 8,-582.2 256,-582.2 256,-559.2 8,-559.2"/>
<text text-anchor="start" x="13" y="-567.8" font-family="Helvetica,sans-Serif" font-weight="bold" font-size="11.00" fill="#000000">patient_data</text>
<text text-anchor="start" x="221.0437" y="-567.3" font-family="Helvetica,sans-Serif" font-size="11.00" fill="#000000">[table]</text>
<polygon fill="none" stroke="#000000" points="8,-537.2 8,-559.2 256,-559.2 256,-537.2 8,-537.2"/>
<image xlink:href="../../images/primaryKeys.png" width="11px" height="12px" preserveAspectRatio="xMinYMin meet" x="13" y="-554.2"/>
<text text-anchor="start" x="28" y="-544.3" font-family="Helvetica,sans-Serif" font-size="11.00" fill="#000000">id</text>
<polygon fill="#ffffff" stroke="transparent" points="8,-515.2 8,-537.2 256,-537.2 256,-515.2 8,-515.2"/>
<polygon fill="none" stroke="#000000" points="8,-515.2 8,-537.2 256,-537.2 256,-515.2 8,-515.2"/>
<text text-anchor="start" x="28" y="-522.3" font-family="Helvetica,sans-Serif" font-size="11.00" fill="#000000">uuid</text>
<polygon fill="#ffffff" stroke="transparent" points="8,-493.2 8,-515.2 256,-515.2 256,-493.2 8,-493.2"/>
<polygon fill="none" stroke="#000000" points="8,-493.2 8,-515.2 256,-515.2 256,-493.2 8,-493.2"/>
<text text-anchor="start" x="28" y="-500.3" font-family="Helvetica,sans-Serif" font-size="11.00" fill="#000000">fname</text>
<polygon fill="#ffffff" stroke="transparent" points="8,-471.2 8,-493.2 256,-493.2 256,-471.2 8,-471.2"/>
<polygon fill="none" stroke="#000000" points="8,-471.2 8,-493.2 256,-493.2 256,-471.2 8,-471.2"/>
<text text-anchor="start" x="28" y="-478.3" font-family="Helvetica,sans-Serif" font-size="11.00" fill="#000000">lname</text>
<polygon fill="#ffffff" stroke="transparent" points="8,-449.2 8,-471.2 256,-471.2 256,-449.2 8,-449.2"/>
<polygon fill="none" stroke="#000000" points="8,-449.2 8,-471.2 256,-471.2 256,-449.2 8,-449.2"/>
<text text-anchor="start" x="28" y="-456.3" font-family="Helvetica,sans-Serif" font-size="11.00" fill="#000000">DOB</text>
<polygon fill="none" stroke="#000000" points="8,-427.2 8,-449.2 256,-449.2 256,-427.2 8,-427.2"/>
<image xlink:href="../../images/foreignKeys.png" width="11px" height="12px" preserveAspectRatio="xMinYMin meet" x="13" y="-444.2"/>
<text text-anchor="start" x="28" y="-434.3" font-family="Helvetica,sans-Serif" font-size="11.00" fill="#000000">pharmacy_id</text>
<polygon fill="none" stroke="#000000" points="8,-405.2 8,-427.2 256,-427.2 256,-405.2 8,-405.2"/>
<image xlink:href="../../images/foreignKeys.png" width="11px" height="12px" preserveAspectRatio="xMinYMin meet" x="13" y="-422.2"/>
<text text-anchor="start" x="28" y="-412.3" font-family="Helvetica,sans-Serif" font-size="11.00" fill="#000000">providerID</text>
<polygon fill="none" stroke="#000000" points="8,-383.2 8,-405.2 256,-405.2 256,-383.2 8,-383.2"/>
<image xlink:href="../../images/foreignKeys.png" width="11px" height="12px" preserveAspectRatio="xMinYMin meet" x="13" y="-400.2"/>
<text text-anchor="start" x="28" y="-390.3" font-family="Helvetica,sans-Serif" font-size="11.00" fill="#000000">ref_providerID</text>
<polygon fill="none" stroke="#000000" points="8,-361.2 8,-383.2 256,-383.2 256,-361.2 8,-361.2"/>
<image xlink:href="../../images/primaryKeys.png" width="11px" height="12px" preserveAspectRatio="xMinYMin meet" x="13" y="-378.2"/>
<text text-anchor="start" x="28" y="-368.3" font-family="Helvetica,sans-Serif" font-size="11.00" fill="#000000">pid</text>
<polygon fill="none" stroke="#000000" points="8,-339.2 8,-361.2 256,-361.2 256,-339.2 8,-339.2"/>
<image xlink:href="../../images/foreignKeys.png" width="11px" height="12px" preserveAspectRatio="xMinYMin meet" x="13" y="-356.2"/>
<text text-anchor="start" x="28" y="-346.3" font-family="Helvetica,sans-Serif" font-size="11.00" fill="#000000">created_by</text>
<polygon fill="none" stroke="#000000" points="8,-317.2 8,-339.2 256,-339.2 256,-317.2 8,-317.2"/>
<image xlink:href="../../images/foreignKeys.png" width="11px" height="12px" preserveAspectRatio="xMinYMin meet" x="13" y="-334.2"/>
<text text-anchor="start" x="28" y="-324.3" font-family="Helvetica,sans-Serif" font-size="11.00" fill="#000000">updated_by</text>
<polygon fill="none" stroke="#000000" points="8,-295.2 8,-317.2 256,-317.2 256,-295.2 8,-295.2"/>
<image xlink:href="../../images/foreignKeys.png" width="11px" height="12px" preserveAspectRatio="xMinYMin meet" x="13" y="-312.2"/>
<text text-anchor="start" x="28" y="-302.3" font-family="Helvetica,sans-Serif" font-size="11.00" fill="#000000">tribal_affiliations</text>
<polygon fill="none" stroke="#000000" points="8,-273.2 8,-295.2 256,-295.2 256,-273.2 8,-273.2"/>
<image xlink:href="../../images/foreignKeys.png" width="11px" height="12px" preserveAspectRatio="xMinYMin meet" x="13" y="-290.2"/>
<text text-anchor="start" x="28" y="-280.3" font-family="Helvetica,sans-Serif" font-size="11.00" fill="#000000">sex_identified</text>
<polygon fill="none" stroke="#000000" points="8,-251.2 8,-273.2 256,-273.2 256,-251.2 8,-251.2"/>
<image xlink:href="../../images/foreignKeys.png" width="11px" height="12px" preserveAspectRatio="xMinYMin meet" x="13" y="-268.2"/>
<text text-anchor="start" x="28" y="-258.3" font-family="Helvetica,sans-Serif" font-size="11.00" fill="#000000">interpreter_needed</text>
<polygon fill="none" stroke="#000000" points="8,-229.2 8,-251.2 256,-251.2 256,-229.2 8,-229.2"/>
<image xlink:href="../../images/foreignKeys.png" width="11px" height="12px" preserveAspectRatio="xMinYMin meet" x="13" y="-246.2"/>
<text text-anchor="start" x="28" y="-236.3" font-family="Helvetica,sans-Serif" font-size="11.00" fill="#000000">advance_directive_user_authenticator</text>
<polygon fill="none" stroke="#000000" points="8,-210.2 8,-229.2 256,-229.2 256,-210.2 8,-210.2"/>
<text text-anchor="start" x="11" y="-216.3" font-family="Helvetica,sans-Serif" font-size="11.00" fill="#000000">...</text>
<polygon fill="#ffffff" stroke="transparent" points="8,-191.2 8,-210.2 123,-210.2 123,-191.2 8,-191.2"/>
<polygon fill="none" stroke="#000000" points="8,-191.2 8,-210.2 123,-210.2 123,-191.2 8,-191.2"/>
<text text-anchor="start" x="11" y="-197.3" font-family="Helvetica,sans-Serif" font-size="11.00" fill="#000000">&lt; 9</text>
<polygon fill="#ffffff" stroke="transparent" points="123,-191.2 123,-210.2 182,-210.2 182,-191.2 123,-191.2"/>
<polygon fill="none" stroke="#000000" points="123,-191.2 123,-210.2 182,-210.2 182,-191.2 123,-191.2"/>
<text text-anchor="start" x="172.8862" y="-197.3" font-family="Helvetica,sans-Serif" font-size="11.00" fill="#000000"> &#160;</text>
<polygon fill="#ffffff" stroke="transparent" points="182,-191.2 182,-210.2 256,-210.2 256,-191.2 182,-191.2"/>
<polygon fill="none" stroke="#000000" points="182,-191.2 182,-210.2 256,-210.2 256,-191.2 182,-191.2"/>
<text text-anchor="start" x="231.2904" y="-197.3" font-family="Helvetica,sans-Serif" font-size="11.00" fill="#000000">97 &gt;</text>
</a>
</g>
</g>
<!-- rule_patient_data&#45;&gt;patient_data -->
<g id="edge3" class="edge">
<title>rule_patient_data:w&#45;&gt;patient_data:e</title>
<path fill="none" stroke="#000000" d="M293.1181,-160.1819C225.227,-181.7556 348.2855,-372.2 256,-372.2"/>
<polygon fill="#000000" stroke="#000000" points="299.5749,-159.2922 307.9915,-161.7663 303.5374,-158.7461 307.5,-158.2 307.5,-158.2 307.5,-158.2 303.5374,-158.7461 307.0085,-154.6337 299.5749,-159.2922 299.5749,-159.2922"/>
<ellipse fill="none" stroke="#000000" cx="296.4049" cy="-159.729" rx="3.2" ry="3.2"/>
</g>
</g>
</svg>
