<?xml version="1.0" encoding="UTF-8" standalone="no"?>
<!DOCTYPE svg PUBLIC "-//W3C//DTD SVG 1.1//EN"
 "http://www.w3.org/Graphics/SVG/1.1/DTD/svg11.dtd">
<!-- Generated by graphviz version 2.40.1 (20161225.0304)
 -->
<!-- Title: oneDegreeRelationshipsDiagram Pages: 1 -->
<svg width="594pt" height="413pt"
 viewBox="0.00 0.00 594.00 413.20" xmlns="http://www.w3.org/2000/svg" xmlns:xlink="http://www.w3.org/1999/xlink">
<g id="graph0" class="graph" transform="scale(1 1) rotate(0) translate(4 409.2)">
<title>oneDegreeRelationshipsDiagram</title>
<polygon fill="#ffffff" stroke="transparent" points="-4,4 -4,-409.2 590,-409.2 590,4 -4,4"/>
<text text-anchor="middle" x="72.4936" y="-7.3" font-family="Helvetica,sans-Serif" font-size="11.00" fill="#000000">Generated by SchemaSpy</text>
<!-- patient_reminders -->
<g id="node1" class="node">
<title>patient_reminders</title>
<g id="a_node1"><a xlink:href="../../tables/patient_reminders.html" xlink:title="patient_reminders" target="_top">
<polygon fill="#ffffff" stroke="transparent" points="429,-208.2 429,-401.2 578,-401.2 578,-208.2 429,-208.2"/>
<polygon fill="#f5f5f5" stroke="transparent" points="429.5,-377.7 429.5,-400.7 578.5,-400.7 578.5,-377.7 429.5,-377.7"/>
<polygon fill="none" stroke="#000000" points="429.5,-377.7 429.5,-400.7 578.5,-400.7 578.5,-377.7 429.5,-377.7"/>
<text text-anchor="start" x="434.5" y="-386.3" font-family="Helvetica,sans-Serif" font-weight="bold" font-size="11.00" fill="#000000">patient_reminders</text>
<text text-anchor="start" x="544.0219" y="-385.8" font-family="Helvetica,sans-Serif" font-size="11.00" fill="#000000">[table]</text>
<polygon fill="none" stroke="#000000" points="429.5,-355.7 429.5,-377.7 578.5,-377.7 578.5,-355.7 429.5,-355.7"/>
<image xlink:href="../../images/primaryKeys.png" width="11px" height="12px" preserveAspectRatio="xMinYMin meet" x="434.5" y="-372.7"/>
<text text-anchor="start" x="457.5" y="-362.8" font-family="Helvetica,sans-Serif" font-size="11.00" fill="#000000">id</text>
<polygon fill="none" stroke="#000000" points="429.5,-333.7 429.5,-355.7 578.5,-355.7 578.5,-333.7 429.5,-333.7"/>
<image xlink:href="../../images/foreignKeys.png" width="11px" height="12px" preserveAspectRatio="xMinYMin meet" x="434.5" y="-350.7"/>
<text text-anchor="start" x="457.5" y="-340.8" font-family="Helvetica,sans-Serif" font-size="11.00" fill="#000000">reason_inactivated</text>
<polygon fill="none" stroke="#000000" points="429.5,-311.7 429.5,-333.7 578.5,-333.7 578.5,-311.7 429.5,-311.7"/>
<image xlink:href="../../images/foreignKeys.png" width="11px" height="12px" preserveAspectRatio="xMinYMin meet" x="434.5" y="-328.7"/>
<text text-anchor="start" x="457.5" y="-318.8" font-family="Helvetica,sans-Serif" font-size="11.00" fill="#000000">due_status</text>
<polygon fill="#ffffff" stroke="transparent" points="429.5,-289.7 429.5,-311.7 578.5,-311.7 578.5,-289.7 429.5,-289.7"/>
<polygon fill="none" stroke="#000000" points="429.5,-289.7 429.5,-311.7 578.5,-311.7 578.5,-289.7 429.5,-289.7"/>
<image xlink:href="../../images/foreignKeys.png" width="11px" height="12px" preserveAspectRatio="xMinYMin meet" x="434.5" y="-306.7"/>
<text text-anchor="start" x="457.5" y="-296.8" font-family="Helvetica,sans-Serif" font-size="11.00" fill="#000000">pid</text>
<polygon fill="#ffffff" stroke="transparent" points="429.5,-267.7 429.5,-289.7 578.5,-289.7 578.5,-267.7 429.5,-267.7"/>
<polygon fill="none" stroke="#000000" points="429.5,-267.7 429.5,-289.7 578.5,-289.7 578.5,-267.7 429.5,-267.7"/>
<image xlink:href="../../images/foreignKeys.png" width="11px" height="12px" preserveAspectRatio="xMinYMin meet" x="434.5" y="-284.7"/>
<text text-anchor="start" x="457.5" y="-274.8" font-family="Helvetica,sans-Serif" font-size="11.00" fill="#000000">category</text>
<polygon fill="#ffffff" stroke="transparent" points="429.5,-245.7 429.5,-267.7 578.5,-267.7 578.5,-245.7 429.5,-245.7"/>
<polygon fill="none" stroke="#000000" points="429.5,-245.7 429.5,-267.7 578.5,-267.7 578.5,-245.7 429.5,-245.7"/>
<image xlink:href="../../images/foreignKeys.png" width="11px" height="12px" preserveAspectRatio="xMinYMin meet" x="434.5" y="-262.7"/>
<text text-anchor="start" x="457.5" y="-252.8" font-family="Helvetica,sans-Serif" font-size="11.00" fill="#000000">item</text>
<polygon fill="none" stroke="#000000" points="429.5,-226.7 429.5,-245.7 578.5,-245.7 578.5,-226.7 429.5,-226.7"/>
<text text-anchor="start" x="432.5" y="-232.8" font-family="Helvetica,sans-Serif" font-size="11.00" fill="#000000">...</text>
<polygon fill="#ffffff" stroke="transparent" points="429.5,-207.7 429.5,-226.7 502.5,-226.7 502.5,-207.7 429.5,-207.7"/>
<polygon fill="none" stroke="#000000" points="429.5,-207.7 429.5,-226.7 502.5,-226.7 502.5,-207.7 429.5,-207.7"/>
<text text-anchor="start" x="432.5" y="-213.8" font-family="Helvetica,sans-Serif" font-size="11.00" fill="#000000">&lt; 5</text>
<polygon fill="#ffffff" stroke="transparent" points="502.5,-207.7 502.5,-226.7 540.5,-226.7 540.5,-207.7 502.5,-207.7"/>
<polygon fill="none" stroke="#000000" points="502.5,-207.7 502.5,-226.7 540.5,-226.7 540.5,-207.7 502.5,-207.7"/>
<text text-anchor="start" x="531.3862" y="-213.8" font-family="Helvetica,sans-Serif" font-size="11.00" fill="#000000"> &#160;</text>
<polygon fill="#ffffff" stroke="transparent" points="540.5,-207.7 540.5,-226.7 578.5,-226.7 578.5,-207.7 540.5,-207.7"/>
<polygon fill="none" stroke="#000000" points="540.5,-207.7 540.5,-226.7 578.5,-226.7 578.5,-207.7 540.5,-207.7"/>
<text text-anchor="start" x="569.3862" y="-213.8" font-family="Helvetica,sans-Serif" font-size="11.00" fill="#000000"> &#160;</text>
</a>
</g>
</g>
<!-- rule_action_item -->
<g id="node2" class="node">
<title>rule_action_item</title>
<g id="a_node2"><a xlink:href="../../tables/rule_action_item.html" xlink:title="rule_action_item" target="_top">
<polygon fill="#ffffff" stroke="transparent" points="175,-139.7 175,-295.7 380,-295.7 380,-139.7 175,-139.7"/>
<polygon fill="#f5f5f5" stroke="transparent" points="177.5,-270.7 177.5,-293.7 378.5,-293.7 378.5,-270.7 177.5,-270.7"/>
<polygon fill="none" stroke="#000000" points="177.5,-270.7 177.5,-293.7 378.5,-293.7 378.5,-270.7 177.5,-270.7"/>
<text text-anchor="start" x="182.5" y="-279.3" font-family="Helvetica,sans-Serif" font-weight="bold" font-size="11.00" fill="#000000">rule_action_item</text>
<text text-anchor="start" x="343.5437" y="-278.8" font-family="Helvetica,sans-Serif" font-size="11.00" fill="#000000">[table]</text>
<polygon fill="none" stroke="#000000" points="177.5,-248.7 177.5,-270.7 311.5,-270.7 311.5,-248.7 177.5,-248.7"/>
<image xlink:href="../../images/primaryKeys.png" width="11px" height="12px" preserveAspectRatio="xMinYMin meet" x="182.5" y="-265.7"/>
<text text-anchor="start" x="197.5" y="-255.8" font-family="Helvetica,sans-Serif" font-size="11.00" fill="#000000">category</text>
<polygon fill="none" stroke="#000000" points="311.5,-248.7 311.5,-270.7 378.5,-270.7 378.5,-248.7 311.5,-248.7"/>
<text text-anchor="start" x="314.5" y="-256.4" font-family="Helvetica,sans-Serif" font-size="11.00" fill="#000000">varchar[31]</text>
<polygon fill="none" stroke="#000000" points="177.5,-226.7 177.5,-248.7 311.5,-248.7 311.5,-226.7 177.5,-226.7"/>
<image xlink:href="../../images/primaryKeys.png" width="11px" height="12px" preserveAspectRatio="xMinYMin meet" x="182.5" y="-243.7"/>
<text text-anchor="start" x="197.5" y="-233.8" font-family="Helvetica,sans-Serif" font-size="11.00" fill="#000000">item</text>
<polygon fill="none" stroke="#000000" points="311.5,-226.7 311.5,-248.7 378.5,-248.7 378.5,-226.7 311.5,-226.7"/>
<text text-anchor="start" x="314.5" y="-234.4" font-family="Helvetica,sans-Serif" font-size="11.00" fill="#000000">varchar[31]</text>
<polygon fill="none" stroke="#000000" points="177.5,-204.7 177.5,-226.7 311.5,-226.7 311.5,-204.7 177.5,-204.7"/>
<text text-anchor="start" x="197.5" y="-211.8" font-family="Helvetica,sans-Serif" font-size="11.00" fill="#000000">clin_rem_link</text>
<polygon fill="none" stroke="#000000" points="311.5,-204.7 311.5,-226.7 378.5,-226.7 378.5,-204.7 311.5,-204.7"/>
<text text-anchor="start" x="314.4365" y="-212.4" font-family="Helvetica,sans-Serif" font-size="11.00" fill="#000000">varchar[255]</text>
<polygon fill="none" stroke="#000000" points="177.5,-182.7 177.5,-204.7 311.5,-204.7 311.5,-182.7 177.5,-182.7"/>
<text text-anchor="start" x="197.5" y="-189.8" font-family="Helvetica,sans-Serif" font-size="11.00" fill="#000000">reminder_message</text>
<polygon fill="none" stroke="#000000" points="311.5,-182.7 311.5,-204.7 378.5,-204.7 378.5,-182.7 311.5,-182.7"/>
<text text-anchor="start" x="314.5" y="-190.4" font-family="Helvetica,sans-Serif" font-size="11.00" fill="#000000">text[65535]</text>
<polygon fill="none" stroke="#000000" points="177.5,-160.7 177.5,-182.7 311.5,-182.7 311.5,-160.7 177.5,-160.7"/>
<text text-anchor="start" x="197.5" y="-167.8" font-family="Helvetica,sans-Serif" font-size="11.00" fill="#000000">custom_flag</text>
<polygon fill="none" stroke="#000000" points="311.5,-160.7 311.5,-182.7 378.5,-182.7 378.5,-160.7 311.5,-160.7"/>
<text text-anchor="start" x="314.5" y="-168.4" font-family="Helvetica,sans-Serif" font-size="11.00" fill="#000000">boolean[3]</text>
<polygon fill="#ffffff" stroke="transparent" points="177.5,-141.7 177.5,-160.7 248.5,-160.7 248.5,-141.7 177.5,-141.7"/>
<polygon fill="none" stroke="#000000" points="177.5,-141.7 177.5,-160.7 248.5,-160.7 248.5,-141.7 177.5,-141.7"/>
<text text-anchor="start" x="180.5" y="-147.8" font-family="Helvetica,sans-Serif" font-size="11.00" fill="#000000">&lt; 2</text>
<polygon fill="#ffffff" stroke="transparent" points="248.5,-141.7 248.5,-160.7 311.5,-160.7 311.5,-141.7 248.5,-141.7"/>
<polygon fill="none" stroke="#000000" points="248.5,-141.7 248.5,-160.7 311.5,-160.7 311.5,-141.7 248.5,-141.7"/>
<text text-anchor="start" x="302.3862" y="-147.8" font-family="Helvetica,sans-Serif" font-size="11.00" fill="#000000"> &#160;</text>
<polygon fill="#ffffff" stroke="transparent" points="311.5,-141.7 311.5,-160.7 378.5,-160.7 378.5,-141.7 311.5,-141.7"/>
<polygon fill="none" stroke="#000000" points="311.5,-141.7 311.5,-160.7 378.5,-160.7 378.5,-141.7 311.5,-141.7"/>
<text text-anchor="start" x="359.9053" y="-147.8" font-family="Helvetica,sans-Serif" font-size="11.00" fill="#000000">4 &gt;</text>
<polygon fill="none" stroke="#000000" stroke-width="2" points="176,-140.7 176,-294.7 379,-294.7 379,-140.7 176,-140.7"/>
</a>
</g>
</g>
<!-- patient_reminders&#45;&gt;rule_action_item -->
<g id="edge1" class="edge">
<title>patient_reminders:w&#45;&gt;rule_action_item:e</title>
<path fill="none" stroke="#000000" d="M415.1076,-275.8965C402.7761,-270.6113 396.8304,-259.7 378.5,-259.7"/>
<polygon fill="#000000" stroke="#000000" points="421.6476,-277.1704 428.8117,-282.2336 425.5738,-277.9352 429.5,-278.7 429.5,-278.7 429.5,-278.7 425.5738,-277.9352 430.1883,-275.1664 421.6476,-277.1704 421.6476,-277.1704"/>
<ellipse fill="none" stroke="#000000" cx="418.5066" cy="-276.5585" rx="3.2" ry="3.2"/>
</g>
<!-- patient_reminders&#45;&gt;rule_action_item -->
<g id="edge3" class="edge">
<title>patient_reminders:w&#45;&gt;rule_action_item:e</title>
<path fill="none" stroke="#000000" d="M415.1076,-253.8965C402.7761,-248.6113 396.8304,-237.7 378.5,-237.7"/>
<polygon fill="#000000" stroke="#000000" points="421.6476,-255.1704 428.8117,-260.2336 425.5738,-255.9352 429.5,-256.7 429.5,-256.7 429.5,-256.7 425.5738,-255.9352 430.1883,-253.1664 421.6476,-255.1704 421.6476,-255.1704"/>
<ellipse fill="none" stroke="#000000" cx="418.5066" cy="-254.5585" rx="3.2" ry="3.2"/>
</g>
<!-- list_options -->
<g id="node3" class="node">
<title>list_options</title>
<g id="a_node3"><a xlink:href="../../tables/list_options.html" xlink:title="list_options" target="_top">
<polygon fill="#ffffff" stroke="transparent" points="8,-241.2 8,-346.2 126,-346.2 126,-241.2 8,-241.2"/>
<polygon fill="#f5f5f5" stroke="transparent" points="8,-322.7 8,-345.7 126,-345.7 126,-322.7 8,-322.7"/>
<polygon fill="none" stroke="#000000" points="8,-322.7 8,-345.7 126,-345.7 126,-322.7 8,-322.7"/>
<text text-anchor="start" x="13" y="-331.3" font-family="Helvetica,sans-Serif" font-weight="bold" font-size="11.00" fill="#000000">list_options</text>
<text text-anchor="start" x="91.0437" y="-330.8" font-family="Helvetica,sans-Serif" font-size="11.00" fill="#000000">[table]</text>
<polygon fill="none" stroke="#000000" points="8,-300.7 8,-322.7 126,-322.7 126,-300.7 8,-300.7"/>
<image xlink:href="../../images/primaryKeys.png" width="11px" height="12px" preserveAspectRatio="xMinYMin meet" x="13" y="-317.7"/>
<text text-anchor="start" x="28" y="-307.8" font-family="Helvetica,sans-Serif" font-size="11.00" fill="#000000">list_id</text>
<polygon fill="none" stroke="#000000" points="8,-278.7 8,-300.7 126,-300.7 126,-278.7 8,-278.7"/>
<image xlink:href="../../images/primaryKeys.png" width="11px" height="12px" preserveAspectRatio="xMinYMin meet" x="13" y="-295.7"/>
<text text-anchor="start" x="28" y="-285.8" font-family="Helvetica,sans-Serif" font-size="11.00" fill="#000000">option_id</text>
<polygon fill="none" stroke="#000000" points="8,-259.7 8,-278.7 126,-278.7 126,-259.7 8,-259.7"/>
<text text-anchor="start" x="11" y="-265.8" font-family="Helvetica,sans-Serif" font-size="11.00" fill="#000000">...</text>
<polygon fill="#ffffff" stroke="transparent" points="8,-240.7 8,-259.7 53,-259.7 53,-240.7 8,-240.7"/>
<polygon fill="none" stroke="#000000" points="8,-240.7 8,-259.7 53,-259.7 53,-240.7 8,-240.7"/>
<text text-anchor="start" x="11" y="-246.8" font-family="Helvetica,sans-Serif" font-size="11.00" fill="#000000"> &#160;</text>
<polygon fill="#ffffff" stroke="transparent" points="53,-240.7 53,-259.7 82,-259.7 82,-240.7 53,-240.7"/>
<polygon fill="none" stroke="#000000" points="53,-240.7 53,-259.7 82,-259.7 82,-240.7 53,-240.7"/>
<text text-anchor="start" x="72.8862" y="-246.8" font-family="Helvetica,sans-Serif" font-size="11.00" fill="#000000"> &#160;</text>
<polygon fill="#ffffff" stroke="transparent" points="82,-240.7 82,-259.7 126,-259.7 126,-240.7 82,-240.7"/>
<polygon fill="none" stroke="#000000" points="82,-240.7 82,-259.7 126,-259.7 126,-240.7 82,-240.7"/>
<text text-anchor="start" x="101.2904" y="-246.8" font-family="Helvetica,sans-Serif" font-size="11.00" fill="#000000">98 &gt;</text>
</a>
</g>
</g>
<!-- patient_reminders&#45;&gt;list_options -->
<g id="edge2" class="edge">
<title>patient_reminders:w&#45;&gt;list_options:e</title>
<path fill="none" stroke="#000000" d="M414.8914,-322.7533C309.7382,-323.5177 275.992,-331.8714 167,-306.7 147.7794,-302.2611 145.7265,-289.7 126,-289.7"/>
<polygon fill="#000000" stroke="#000000" points="421.5001,-322.7293 429.5132,-326.3 425.5,-322.7146 429.5,-322.7 429.5,-322.7 429.5,-322.7 425.5,-322.7146 429.4868,-319.1 421.5001,-322.7293 421.5001,-322.7293"/>
<ellipse fill="none" stroke="#000000" cx="418.3001" cy="-322.741" rx="3.2" ry="3.2"/>
</g>
<!-- patient_reminders&#45;&gt;list_options -->
<g id="edge4" class="edge">
<title>patient_reminders:w&#45;&gt;list_options:e</title>
<path fill="none" stroke="#000000" d="M414.8467,-344.829C309.1559,-346.6886 270.5121,-367.41 167,-324.7 144.8524,-315.5617 149.9588,-289.7 126,-289.7"/>
<polygon fill="#000000" stroke="#000000" points="421.5003,-344.7705 429.5317,-348.2999 425.5002,-344.7352 429.5,-344.7 429.5,-344.7 429.5,-344.7 425.5002,-344.7352 429.4683,-341.1001 421.5003,-344.7705 421.5003,-344.7705"/>
<ellipse fill="none" stroke="#000000" cx="418.3004" cy="-344.7986" rx="3.2" ry="3.2"/>
</g>
<!-- rule_action_item&#45;&gt;list_options -->
<g id="edge5" class="edge">
<title>rule_action_item:w&#45;&gt;list_options:e</title>
<path fill="none" stroke="#000000" d="M163.5458,-263.3786C150.3193,-271.3895 146.6947,-289.7 126,-289.7"/>
<polygon fill="#000000" stroke="#000000" points="169.7643,-261.7393 178.4177,-263.1811 173.6321,-260.7197 177.5,-259.7 177.5,-259.7 177.5,-259.7 173.6321,-260.7197 176.5823,-256.2189 169.7643,-261.7393 169.7643,-261.7393"/>
<ellipse fill="none" stroke="#000000" cx="166.67" cy="-262.5551" rx="3.2" ry="3.2"/>
</g>
<!-- rule_action_item&#45;&gt;list_options -->
<g id="edge6" class="edge">
<title>rule_action_item:w&#45;&gt;list_options:e</title>
<path fill="none" stroke="#000000" d="M163.4561,-242.4988C148.4356,-255.3719 152.4284,-289.7 126,-289.7"/>
<polygon fill="#000000" stroke="#000000" points="169.9297,-240.2868 178.6641,-241.1066 173.7149,-238.9934 177.5,-237.7 177.5,-237.7 177.5,-237.7 173.7149,-238.9934 176.3359,-234.2934 169.9297,-240.2868 169.9297,-240.2868"/>
<ellipse fill="none" stroke="#000000" cx="166.9016" cy="-241.3215" rx="3.2" ry="3.2"/>
</g>
<!-- rule_patient_data -->
<g id="node4" class="node">
<title>rule_patient_data</title>
<g id="a_node4"><a xlink:href="../../tables/rule_patient_data.html" xlink:title="rule_patient_data" target="_top">
<polygon fill="#ffffff" stroke="transparent" points="431.5,-38.2 431.5,-187.2 575.5,-187.2 575.5,-38.2 431.5,-38.2"/>
<polygon fill="#f5f5f5" stroke="transparent" points="431.5,-163.7 431.5,-186.7 575.5,-186.7 575.5,-163.7 431.5,-163.7"/>
<polygon fill="none" stroke="#000000" points="431.5,-163.7 431.5,-186.7 575.5,-186.7 575.5,-163.7 431.5,-163.7"/>
<text text-anchor="start" x="436.5" y="-172.3" font-family="Helvetica,sans-Serif" font-weight="bold" font-size="11.00" fill="#000000">rule_patient_data</text>
<text text-anchor="start" x="541.0219" y="-171.8" font-family="Helvetica,sans-Serif" font-size="11.00" fill="#000000">[table]</text>
<polygon fill="none" stroke="#000000" points="431.5,-141.7 431.5,-163.7 575.5,-163.7 575.5,-141.7 431.5,-141.7"/>
<image xlink:href="../../images/primaryKeys.png" width="11px" height="12px" preserveAspectRatio="xMinYMin meet" x="436.5" y="-158.7"/>
<text text-anchor="start" x="460.5" y="-148.8" font-family="Helvetica,sans-Serif" font-size="11.00" fill="#000000">id</text>
<polygon fill="#ffffff" stroke="transparent" points="431.5,-119.7 431.5,-141.7 575.5,-141.7 575.5,-119.7 431.5,-119.7"/>
<polygon fill="none" stroke="#000000" points="431.5,-119.7 431.5,-141.7 575.5,-141.7 575.5,-119.7 431.5,-119.7"/>
<image xlink:href="../../images/foreignKeys.png" width="11px" height="12px" preserveAspectRatio="xMinYMin meet" x="436.5" y="-136.7"/>
<text text-anchor="start" x="460.5" y="-126.8" font-family="Helvetica,sans-Serif" font-size="11.00" fill="#000000">pid</text>
<polygon fill="#ffffff" stroke="transparent" points="431.5,-97.7 431.5,-119.7 575.5,-119.7 575.5,-97.7 431.5,-97.7"/>
<polygon fill="none" stroke="#000000" points="431.5,-97.7 431.5,-119.7 575.5,-119.7 575.5,-97.7 431.5,-97.7"/>
<image xlink:href="../../images/foreignKeys.png" width="11px" height="12px" preserveAspectRatio="xMinYMin meet" x="436.5" y="-114.7"/>
<text text-anchor="start" x="460.5" y="-104.8" font-family="Helvetica,sans-Serif" font-size="11.00" fill="#000000">category</text>
<polygon fill="#ffffff" stroke="transparent" points="431.5,-75.7 431.5,-97.7 575.5,-97.7 575.5,-75.7 431.5,-75.7"/>
<polygon fill="none" stroke="#000000" points="431.5,-75.7 431.5,-97.7 575.5,-97.7 575.5,-75.7 431.5,-75.7"/>
<image xlink:href="../../images/foreignKeys.png" width="11px" height="12px" preserveAspectRatio="xMinYMin meet" x="436.5" y="-92.7"/>
<text text-anchor="start" x="460.5" y="-82.8" font-family="Helvetica,sans-Serif" font-size="11.00" fill="#000000">item</text>
<polygon fill="none" stroke="#000000" points="431.5,-56.7 431.5,-75.7 575.5,-75.7 575.5,-56.7 431.5,-56.7"/>
<text text-anchor="start" x="434.5" y="-62.8" font-family="Helvetica,sans-Serif" font-size="11.00" fill="#000000">...</text>
<polygon fill="#ffffff" stroke="transparent" points="431.5,-37.7 431.5,-56.7 501.5,-56.7 501.5,-37.7 431.5,-37.7"/>
<polygon fill="none" stroke="#000000" points="431.5,-37.7 431.5,-56.7 501.5,-56.7 501.5,-37.7 431.5,-37.7"/>
<text text-anchor="start" x="434.5" y="-43.8" font-family="Helvetica,sans-Serif" font-size="11.00" fill="#000000">&lt; 3</text>
<polygon fill="#ffffff" stroke="transparent" points="501.5,-37.7 501.5,-56.7 538.5,-56.7 538.5,-37.7 501.5,-37.7"/>
<polygon fill="none" stroke="#000000" points="501.5,-37.7 501.5,-56.7 538.5,-56.7 538.5,-37.7 501.5,-37.7"/>
<text text-anchor="start" x="529.3862" y="-43.8" font-family="Helvetica,sans-Serif" font-size="11.00" fill="#000000"> &#160;</text>
<polygon fill="#ffffff" stroke="transparent" points="538.5,-37.7 538.5,-56.7 575.5,-56.7 575.5,-37.7 538.5,-37.7"/>
<polygon fill="none" stroke="#000000" points="538.5,-37.7 538.5,-56.7 575.5,-56.7 575.5,-37.7 538.5,-37.7"/>
<text text-anchor="start" x="566.3862" y="-43.8" font-family="Helvetica,sans-Serif" font-size="11.00" fill="#000000"> &#160;</text>
</a>
</g>
</g>
<!-- rule_patient_data&#45;&gt;rule_action_item -->
<g id="edge7" class="edge">
<title>rule_patient_data:w&#45;&gt;rule_action_item:e</title>
<path fill="none" stroke="#000000" d="M417.3338,-111.4498C373.6405,-131.9153 443.9294,-259.7 378.5,-259.7"/>
<polygon fill="#000000" stroke="#000000" points="423.6466,-110.2245 432.186,-112.234 427.5733,-109.4622 431.5,-108.7 431.5,-108.7 431.5,-108.7 427.5733,-109.4622 430.814,-105.166 423.6466,-110.2245 423.6466,-110.2245"/>
<ellipse fill="none" stroke="#000000" cx="420.5052" cy="-110.8343" rx="3.2" ry="3.2"/>
</g>
<!-- rule_patient_data&#45;&gt;rule_action_item -->
<g id="edge8" class="edge">
<title>rule_patient_data:w&#45;&gt;rule_action_item:e</title>
<path fill="none" stroke="#000000" d="M417.3338,-89.4498C373.6405,-109.9153 443.9294,-237.7 378.5,-237.7"/>
<polygon fill="#000000" stroke="#000000" points="423.6466,-88.2245 432.186,-90.234 427.5733,-87.4622 431.5,-86.7 431.5,-86.7 431.5,-86.7 427.5733,-87.4622 430.814,-83.166 423.6466,-88.2245 423.6466,-88.2245"/>
<ellipse fill="none" stroke="#000000" cx="420.5052" cy="-88.8343" rx="3.2" ry="3.2"/>
</g>
</g>
</svg>
