<?xml version="1.0" encoding="UTF-8" standalone="no"?>
<!DOCTYPE svg PUBLIC "-//W3C//DTD SVG 1.1//EN"
 "http://www.w3.org/Graphics/SVG/1.1/DTD/svg11.dtd">
<!-- Generated by graphviz version 2.40.1 (20161225.0304)
 -->
<!-- Title: oneDegreeRelationshipsDiagram Pages: 1 -->
<svg width="635pt" height="413pt"
 viewBox="0.00 0.00 635.00 413.20" xmlns="http://www.w3.org/2000/svg" xmlns:xlink="http://www.w3.org/1999/xlink">
<g id="graph0" class="graph" transform="scale(1 1) rotate(0) translate(4 409.2)">
<title>oneDegreeRelationshipsDiagram</title>
<polygon fill="#ffffff" stroke="transparent" points="-4,4 -4,-409.2 631,-409.2 631,4 -4,4"/>
<text text-anchor="middle" x="72.4936" y="-7.3" font-family="Helvetica,sans-Serif" font-size="11.00" fill="#000000">Generated by SchemaSpy</text>
<!-- patient_reminders -->
<g id="node1" class="node">
<title>patient_reminders</title>
<g id="a_node1"><a xlink:href="../../tables/patient_reminders.html" xlink:title="patient_reminders" target="_top">
<polygon fill="#ffffff" stroke="transparent" points="457,-208.2 457,-401.2 619,-401.2 619,-208.2 457,-208.2"/>
<polygon fill="#f5f5f5" stroke="transparent" points="457,-377.7 457,-400.7 619,-400.7 619,-377.7 457,-377.7"/>
<polygon fill="none" stroke="#000000" points="457,-377.7 457,-400.7 619,-400.7 619,-377.7 457,-377.7"/>
<text text-anchor="start" x="462" y="-386.3" font-family="Helvetica,sans-Serif" font-weight="bold" font-size="11.00" fill="#000000">patient_reminders</text>
<text text-anchor="start" x="584.5219" y="-385.8" font-family="Helvetica,sans-Serif" font-size="11.00" fill="#000000">[table]</text>
<polygon fill="none" stroke="#000000" points="457,-355.7 457,-377.7 619,-377.7 619,-355.7 457,-355.7"/>
<image xlink:href="../../images/primaryKeys.png" width="11px" height="12px" preserveAspectRatio="xMinYMin meet" x="462" y="-372.7"/>
<text text-anchor="start" x="484" y="-362.8" font-family="Helvetica,sans-Serif" font-size="11.00" fill="#000000">id</text>
<polygon fill="none" stroke="#000000" points="457,-333.7 457,-355.7 619,-355.7 619,-333.7 457,-333.7"/>
<image xlink:href="../../images/foreignKeys.png" width="11px" height="12px" preserveAspectRatio="xMinYMin meet" x="462" y="-350.7"/>
<text text-anchor="start" x="484" y="-340.8" font-family="Helvetica,sans-Serif" font-size="11.00" fill="#000000">reason_inactivated</text>
<polygon fill="none" stroke="#000000" points="457,-311.7 457,-333.7 619,-333.7 619,-311.7 457,-311.7"/>
<image xlink:href="../../images/foreignKeys.png" width="11px" height="12px" preserveAspectRatio="xMinYMin meet" x="462" y="-328.7"/>
<text text-anchor="start" x="484" y="-318.8" font-family="Helvetica,sans-Serif" font-size="11.00" fill="#000000">due_status</text>
<polygon fill="#ffffff" stroke="transparent" points="457,-289.7 457,-311.7 619,-311.7 619,-289.7 457,-289.7"/>
<polygon fill="none" stroke="#000000" points="457,-289.7 457,-311.7 619,-311.7 619,-289.7 457,-289.7"/>
<image xlink:href="../../images/foreignKeys.png" width="11px" height="12px" preserveAspectRatio="xMinYMin meet" x="462" y="-306.7"/>
<text text-anchor="start" x="484" y="-296.8" font-family="Helvetica,sans-Serif" font-size="11.00" fill="#000000">pid</text>
<polygon fill="#ffffff" stroke="transparent" points="457,-267.7 457,-289.7 619,-289.7 619,-267.7 457,-267.7"/>
<polygon fill="none" stroke="#000000" points="457,-267.7 457,-289.7 619,-289.7 619,-267.7 457,-267.7"/>
<image xlink:href="../../images/foreignKeys.png" width="11px" height="12px" preserveAspectRatio="xMinYMin meet" x="462" y="-284.7"/>
<text text-anchor="start" x="484" y="-274.8" font-family="Helvetica,sans-Serif" font-size="11.00" fill="#000000">category</text>
<polygon fill="#ffffff" stroke="transparent" points="457,-245.7 457,-267.7 619,-267.7 619,-245.7 457,-245.7"/>
<polygon fill="none" stroke="#000000" points="457,-245.7 457,-267.7 619,-267.7 619,-245.7 457,-245.7"/>
<image xlink:href="../../images/foreignKeys.png" width="11px" height="12px" preserveAspectRatio="xMinYMin meet" x="462" y="-262.7"/>
<text text-anchor="start" x="484" y="-252.8" font-family="Helvetica,sans-Serif" font-size="11.00" fill="#000000">item</text>
<polygon fill="none" stroke="#000000" points="457,-226.7 457,-245.7 619,-245.7 619,-226.7 457,-226.7"/>
<text text-anchor="start" x="460" y="-232.8" font-family="Helvetica,sans-Serif" font-size="11.00" fill="#000000">...</text>
<polygon fill="#ffffff" stroke="transparent" points="457,-207.7 457,-226.7 536,-226.7 536,-207.7 457,-207.7"/>
<polygon fill="none" stroke="#000000" points="457,-207.7 457,-226.7 536,-226.7 536,-207.7 457,-207.7"/>
<text text-anchor="start" x="460" y="-213.8" font-family="Helvetica,sans-Serif" font-size="11.00" fill="#000000">&lt; 5</text>
<polygon fill="#ffffff" stroke="transparent" points="536,-207.7 536,-226.7 577,-226.7 577,-207.7 536,-207.7"/>
<polygon fill="none" stroke="#000000" points="536,-207.7 536,-226.7 577,-226.7 577,-207.7 536,-207.7"/>
<text text-anchor="start" x="567.8862" y="-213.8" font-family="Helvetica,sans-Serif" font-size="11.00" fill="#000000"> &#160;</text>
<polygon fill="#ffffff" stroke="transparent" points="577,-207.7 577,-226.7 619,-226.7 619,-207.7 577,-207.7"/>
<polygon fill="none" stroke="#000000" points="577,-207.7 577,-226.7 619,-226.7 619,-207.7 577,-207.7"/>
<text text-anchor="start" x="609.8862" y="-213.8" font-family="Helvetica,sans-Serif" font-size="11.00" fill="#000000"> &#160;</text>
</a>
</g>
</g>
<!-- rule_action_item -->
<g id="node2" class="node">
<title>rule_action_item</title>
<g id="a_node2"><a xlink:href="../../tables/rule_action_item.html" xlink:title="rule_action_item" target="_top">
<polygon fill="#ffffff" stroke="transparent" points="189,-139.7 189,-295.7 408,-295.7 408,-139.7 189,-139.7"/>
<polygon fill="#f5f5f5" stroke="transparent" points="191.5,-270.7 191.5,-293.7 406.5,-293.7 406.5,-270.7 191.5,-270.7"/>
<polygon fill="none" stroke="#000000" points="191.5,-270.7 191.5,-293.7 406.5,-293.7 406.5,-270.7 191.5,-270.7"/>
<text text-anchor="start" x="196.5" y="-279.3" font-family="Helvetica,sans-Serif" font-weight="bold" font-size="11.00" fill="#000000">rule_action_item</text>
<text text-anchor="start" x="371.5437" y="-278.8" font-family="Helvetica,sans-Serif" font-size="11.00" fill="#000000">[table]</text>
<polygon fill="none" stroke="#000000" points="191.5,-248.7 191.5,-270.7 339.5,-270.7 339.5,-248.7 191.5,-248.7"/>
<image xlink:href="../../images/primaryKeys.png" width="11px" height="12px" preserveAspectRatio="xMinYMin meet" x="196.5" y="-265.7"/>
<text text-anchor="start" x="211.5" y="-255.8" font-family="Helvetica,sans-Serif" font-size="11.00" fill="#000000">category</text>
<polygon fill="none" stroke="#000000" points="339.5,-248.7 339.5,-270.7 406.5,-270.7 406.5,-248.7 339.5,-248.7"/>
<text text-anchor="start" x="342.5" y="-256.4" font-family="Helvetica,sans-Serif" font-size="11.00" fill="#000000">varchar[31]</text>
<polygon fill="none" stroke="#000000" points="191.5,-226.7 191.5,-248.7 339.5,-248.7 339.5,-226.7 191.5,-226.7"/>
<image xlink:href="../../images/primaryKeys.png" width="11px" height="12px" preserveAspectRatio="xMinYMin meet" x="196.5" y="-243.7"/>
<text text-anchor="start" x="211.5" y="-233.8" font-family="Helvetica,sans-Serif" font-size="11.00" fill="#000000">item</text>
<polygon fill="none" stroke="#000000" points="339.5,-226.7 339.5,-248.7 406.5,-248.7 406.5,-226.7 339.5,-226.7"/>
<text text-anchor="start" x="342.5" y="-234.4" font-family="Helvetica,sans-Serif" font-size="11.00" fill="#000000">varchar[31]</text>
<polygon fill="none" stroke="#000000" points="191.5,-204.7 191.5,-226.7 339.5,-226.7 339.5,-204.7 191.5,-204.7"/>
<text text-anchor="start" x="211.5" y="-211.8" font-family="Helvetica,sans-Serif" font-size="11.00" fill="#000000">clin_rem_link</text>
<polygon fill="none" stroke="#000000" points="339.5,-204.7 339.5,-226.7 406.5,-226.7 406.5,-204.7 339.5,-204.7"/>
<text text-anchor="start" x="342.4365" y="-212.4" font-family="Helvetica,sans-Serif" font-size="11.00" fill="#000000">varchar[255]</text>
<polygon fill="none" stroke="#000000" points="191.5,-182.7 191.5,-204.7 339.5,-204.7 339.5,-182.7 191.5,-182.7"/>
<text text-anchor="start" x="211.5" y="-189.8" font-family="Helvetica,sans-Serif" font-size="11.00" fill="#000000">reminder_message</text>
<polygon fill="none" stroke="#000000" points="339.5,-182.7 339.5,-204.7 406.5,-204.7 406.5,-182.7 339.5,-182.7"/>
<text text-anchor="start" x="342.5" y="-190.4" font-family="Helvetica,sans-Serif" font-size="11.00" fill="#000000">text[65535]</text>
<polygon fill="none" stroke="#000000" points="191.5,-160.7 191.5,-182.7 339.5,-182.7 339.5,-160.7 191.5,-160.7"/>
<text text-anchor="start" x="211.5" y="-167.8" font-family="Helvetica,sans-Serif" font-size="11.00" fill="#000000">custom_flag</text>
<polygon fill="none" stroke="#000000" points="339.5,-160.7 339.5,-182.7 406.5,-182.7 406.5,-160.7 339.5,-160.7"/>
<text text-anchor="start" x="342.5" y="-168.4" font-family="Helvetica,sans-Serif" font-size="11.00" fill="#000000">bit[1]</text>
<polygon fill="#ffffff" stroke="transparent" points="191.5,-141.7 191.5,-160.7 269.5,-160.7 269.5,-141.7 191.5,-141.7"/>
<polygon fill="none" stroke="#000000" points="191.5,-141.7 191.5,-160.7 269.5,-160.7 269.5,-141.7 191.5,-141.7"/>
<text text-anchor="start" x="194.5" y="-147.8" font-family="Helvetica,sans-Serif" font-size="11.00" fill="#000000">&lt; 2</text>
<polygon fill="#ffffff" stroke="transparent" points="269.5,-141.7 269.5,-160.7 339.5,-160.7 339.5,-141.7 269.5,-141.7"/>
<polygon fill="none" stroke="#000000" points="269.5,-141.7 269.5,-160.7 339.5,-160.7 339.5,-141.7 269.5,-141.7"/>
<text text-anchor="start" x="330.3862" y="-147.8" font-family="Helvetica,sans-Serif" font-size="11.00" fill="#000000"> &#160;</text>
<polygon fill="#ffffff" stroke="transparent" points="339.5,-141.7 339.5,-160.7 406.5,-160.7 406.5,-141.7 339.5,-141.7"/>
<polygon fill="none" stroke="#000000" points="339.5,-141.7 339.5,-160.7 406.5,-160.7 406.5,-141.7 339.5,-141.7"/>
<text text-anchor="start" x="387.9053" y="-147.8" font-family="Helvetica,sans-Serif" font-size="11.00" fill="#000000">4 &gt;</text>
<polygon fill="none" stroke="#000000" stroke-width="2" points="190,-140.7 190,-294.7 407,-294.7 407,-140.7 190,-140.7"/>
</a>
</g>
</g>
<!-- patient_reminders&#45;&gt;rule_action_item -->
<g id="edge1" class="edge">
<title>patient_reminders:w&#45;&gt;rule_action_item:e</title>
<path fill="none" stroke="#000000" d="M442.7405,-275.8965C430.532,-270.6113 424.6727,-259.7 406.5,-259.7"/>
<polygon fill="#000000" stroke="#000000" points="449.1503,-277.1567 456.3055,-282.2324 453.0751,-277.9283 457,-278.7 457,-278.7 457,-278.7 453.0751,-277.9283 457.6945,-275.1676 449.1503,-277.1567 449.1503,-277.1567"/>
<ellipse fill="none" stroke="#000000" cx="446.0104" cy="-276.5393" rx="3.2" ry="3.2"/>
</g>
<!-- patient_reminders&#45;&gt;rule_action_item -->
<g id="edge3" class="edge">
<title>patient_reminders:w&#45;&gt;rule_action_item:e</title>
<path fill="none" stroke="#000000" d="M442.7405,-253.8965C430.532,-248.6113 424.6727,-237.7 406.5,-237.7"/>
<polygon fill="#000000" stroke="#000000" points="449.1503,-255.1567 456.3055,-260.2324 453.0751,-255.9283 457,-256.7 457,-256.7 457,-256.7 453.0751,-255.9283 457.6945,-253.1676 449.1503,-255.1567 449.1503,-255.1567"/>
<ellipse fill="none" stroke="#000000" cx="446.0104" cy="-254.5393" rx="3.2" ry="3.2"/>
</g>
<!-- list_options -->
<g id="node3" class="node">
<title>list_options</title>
<g id="a_node3"><a xlink:href="../../tables/list_options.html" xlink:title="list_options" target="_top">
<polygon fill="#ffffff" stroke="transparent" points="8,-241.2 8,-346.2 140,-346.2 140,-241.2 8,-241.2"/>
<polygon fill="#f5f5f5" stroke="transparent" points="8,-322.7 8,-345.7 140,-345.7 140,-322.7 8,-322.7"/>
<polygon fill="none" stroke="#000000" points="8,-322.7 8,-345.7 140,-345.7 140,-322.7 8,-322.7"/>
<text text-anchor="start" x="13" y="-331.3" font-family="Helvetica,sans-Serif" font-weight="bold" font-size="11.00" fill="#000000">list_options</text>
<text text-anchor="start" x="105.0437" y="-330.8" font-family="Helvetica,sans-Serif" font-size="11.00" fill="#000000">[table]</text>
<polygon fill="none" stroke="#000000" points="8,-300.7 8,-322.7 140,-322.7 140,-300.7 8,-300.7"/>
<image xlink:href="../../images/primaryKeys.png" width="11px" height="12px" preserveAspectRatio="xMinYMin meet" x="13" y="-317.7"/>
<text text-anchor="start" x="28" y="-307.8" font-family="Helvetica,sans-Serif" font-size="11.00" fill="#000000">list_id</text>
<polygon fill="none" stroke="#000000" points="8,-278.7 8,-300.7 140,-300.7 140,-278.7 8,-278.7"/>
<image xlink:href="../../images/primaryKeys.png" width="11px" height="12px" preserveAspectRatio="xMinYMin meet" x="13" y="-295.7"/>
<text text-anchor="start" x="28" y="-285.8" font-family="Helvetica,sans-Serif" font-size="11.00" fill="#000000">option_id</text>
<polygon fill="none" stroke="#000000" points="8,-259.7 8,-278.7 140,-278.7 140,-259.7 8,-259.7"/>
<text text-anchor="start" x="11" y="-265.8" font-family="Helvetica,sans-Serif" font-size="11.00" fill="#000000">...</text>
<polygon fill="#ffffff" stroke="transparent" points="8,-240.7 8,-259.7 60,-259.7 60,-240.7 8,-240.7"/>
<polygon fill="none" stroke="#000000" points="8,-240.7 8,-259.7 60,-259.7 60,-240.7 8,-240.7"/>
<text text-anchor="start" x="11" y="-246.8" font-family="Helvetica,sans-Serif" font-size="11.00" fill="#000000"> &#160;</text>
<polygon fill="#ffffff" stroke="transparent" points="60,-240.7 60,-259.7 92,-259.7 92,-240.7 60,-240.7"/>
<polygon fill="none" stroke="#000000" points="60,-240.7 60,-259.7 92,-259.7 92,-240.7 60,-240.7"/>
<text text-anchor="start" x="82.8862" y="-246.8" font-family="Helvetica,sans-Serif" font-size="11.00" fill="#000000"> &#160;</text>
<polygon fill="#ffffff" stroke="transparent" points="92,-240.7 92,-259.7 140,-259.7 140,-240.7 92,-240.7"/>
<polygon fill="none" stroke="#000000" points="92,-240.7 92,-259.7 140,-259.7 140,-240.7 92,-240.7"/>
<text text-anchor="start" x="115.2904" y="-246.8" font-family="Helvetica,sans-Serif" font-size="11.00" fill="#000000">46 &gt;</text>
</a>
</g>
</g>
<!-- patient_reminders&#45;&gt;list_options -->
<g id="edge2" class="edge">
<title>patient_reminders:w&#45;&gt;list_options:e</title>
<path fill="none" stroke="#000000" d="M442.3205,-322.7544C331.2451,-323.5755 295.8501,-333.0446 181,-306.7 161.7728,-302.2896 159.7265,-289.7 140,-289.7"/>
<polygon fill="#000000" stroke="#000000" points="449.0001,-322.7297 457.0134,-326.3 453,-322.7149 457,-322.7 457,-322.7 457,-322.7 453,-322.7149 456.9866,-319.1 449.0001,-322.7297 449.0001,-322.7297"/>
<ellipse fill="none" stroke="#000000" cx="445.8001" cy="-322.7416" rx="3.2" ry="3.2"/>
</g>
<!-- patient_reminders&#45;&gt;list_options -->
<g id="edge4" class="edge">
<title>patient_reminders:w&#45;&gt;list_options:e</title>
<path fill="none" stroke="#000000" d="M442.2807,-344.8355C330.6753,-346.8923 289.8502,-371.0354 181,-325.7 158.6143,-316.3765 164.2497,-289.7 140,-289.7"/>
<polygon fill="#000000" stroke="#000000" points="449.0003,-344.7737 457.0332,-348.2998 453.0002,-344.7369 457,-344.7 457,-344.7 457,-344.7 453.0002,-344.7369 456.9668,-341.1002 449.0003,-344.7737 449.0003,-344.7737"/>
<ellipse fill="none" stroke="#000000" cx="445.8005" cy="-344.8032" rx="3.2" ry="3.2"/>
</g>
<!-- rule_action_item&#45;&gt;list_options -->
<g id="edge5" class="edge">
<title>rule_action_item:w&#45;&gt;list_options:e</title>
<path fill="none" stroke="#000000" d="M177.5458,-263.3786C164.3193,-271.3895 160.6947,-289.7 140,-289.7"/>
<polygon fill="#000000" stroke="#000000" points="183.7643,-261.7393 192.4177,-263.1811 187.6321,-260.7197 191.5,-259.7 191.5,-259.7 191.5,-259.7 187.6321,-260.7197 190.5823,-256.2189 183.7643,-261.7393 183.7643,-261.7393"/>
<ellipse fill="none" stroke="#000000" cx="180.67" cy="-262.5551" rx="3.2" ry="3.2"/>
</g>
<!-- rule_action_item&#45;&gt;list_options -->
<g id="edge6" class="edge">
<title>rule_action_item:w&#45;&gt;list_options:e</title>
<path fill="none" stroke="#000000" d="M177.4561,-242.4988C162.4356,-255.3719 166.4284,-289.7 140,-289.7"/>
<polygon fill="#000000" stroke="#000000" points="183.9297,-240.2868 192.6641,-241.1066 187.7149,-238.9934 191.5,-237.7 191.5,-237.7 191.5,-237.7 187.7149,-238.9934 190.3359,-234.2934 183.9297,-240.2868 183.9297,-240.2868"/>
<ellipse fill="none" stroke="#000000" cx="180.9016" cy="-241.3215" rx="3.2" ry="3.2"/>
</g>
<!-- rule_patient_data -->
<g id="node4" class="node">
<title>rule_patient_data</title>
<g id="a_node4"><a xlink:href="../../tables/rule_patient_data.html" xlink:title="rule_patient_data" target="_top">
<polygon fill="#ffffff" stroke="transparent" points="459.5,-38.2 459.5,-187.2 616.5,-187.2 616.5,-38.2 459.5,-38.2"/>
<polygon fill="#f5f5f5" stroke="transparent" points="460,-163.7 460,-186.7 617,-186.7 617,-163.7 460,-163.7"/>
<polygon fill="none" stroke="#000000" points="460,-163.7 460,-186.7 617,-186.7 617,-163.7 460,-163.7"/>
<text text-anchor="start" x="465" y="-172.3" font-family="Helvetica,sans-Serif" font-weight="bold" font-size="11.00" fill="#000000">rule_patient_data</text>
<text text-anchor="start" x="582.5219" y="-171.8" font-family="Helvetica,sans-Serif" font-size="11.00" fill="#000000">[table]</text>
<polygon fill="none" stroke="#000000" points="460,-141.7 460,-163.7 617,-163.7 617,-141.7 460,-141.7"/>
<image xlink:href="../../images/primaryKeys.png" width="11px" height="12px" preserveAspectRatio="xMinYMin meet" x="465" y="-158.7"/>
<text text-anchor="start" x="489" y="-148.8" font-family="Helvetica,sans-Serif" font-size="11.00" fill="#000000">id</text>
<polygon fill="#ffffff" stroke="transparent" points="460,-119.7 460,-141.7 617,-141.7 617,-119.7 460,-119.7"/>
<polygon fill="none" stroke="#000000" points="460,-119.7 460,-141.7 617,-141.7 617,-119.7 460,-119.7"/>
<image xlink:href="../../images/foreignKeys.png" width="11px" height="12px" preserveAspectRatio="xMinYMin meet" x="465" y="-136.7"/>
<text text-anchor="start" x="489" y="-126.8" font-family="Helvetica,sans-Serif" font-size="11.00" fill="#000000">pid</text>
<polygon fill="#ffffff" stroke="transparent" points="460,-97.7 460,-119.7 617,-119.7 617,-97.7 460,-97.7"/>
<polygon fill="none" stroke="#000000" points="460,-97.7 460,-119.7 617,-119.7 617,-97.7 460,-97.7"/>
<image xlink:href="../../images/foreignKeys.png" width="11px" height="12px" preserveAspectRatio="xMinYMin meet" x="465" y="-114.7"/>
<text text-anchor="start" x="489" y="-104.8" font-family="Helvetica,sans-Serif" font-size="11.00" fill="#000000">category</text>
<polygon fill="#ffffff" stroke="transparent" points="460,-75.7 460,-97.7 617,-97.7 617,-75.7 460,-75.7"/>
<polygon fill="none" stroke="#000000" points="460,-75.7 460,-97.7 617,-97.7 617,-75.7 460,-75.7"/>
<image xlink:href="../../images/foreignKeys.png" width="11px" height="12px" preserveAspectRatio="xMinYMin meet" x="465" y="-92.7"/>
<text text-anchor="start" x="489" y="-82.8" font-family="Helvetica,sans-Serif" font-size="11.00" fill="#000000">item</text>
<polygon fill="none" stroke="#000000" points="460,-56.7 460,-75.7 617,-75.7 617,-56.7 460,-56.7"/>
<text text-anchor="start" x="463" y="-62.8" font-family="Helvetica,sans-Serif" font-size="11.00" fill="#000000">...</text>
<polygon fill="#ffffff" stroke="transparent" points="460,-37.7 460,-56.7 537,-56.7 537,-37.7 460,-37.7"/>
<polygon fill="none" stroke="#000000" points="460,-37.7 460,-56.7 537,-56.7 537,-37.7 460,-37.7"/>
<text text-anchor="start" x="463" y="-43.8" font-family="Helvetica,sans-Serif" font-size="11.00" fill="#000000">&lt; 3</text>
<polygon fill="#ffffff" stroke="transparent" points="537,-37.7 537,-56.7 577,-56.7 577,-37.7 537,-37.7"/>
<polygon fill="none" stroke="#000000" points="537,-37.7 537,-56.7 577,-56.7 577,-37.7 537,-37.7"/>
<text text-anchor="start" x="567.8862" y="-43.8" font-family="Helvetica,sans-Serif" font-size="11.00" fill="#000000"> &#160;</text>
<polygon fill="#ffffff" stroke="transparent" points="577,-37.7 577,-56.7 617,-56.7 617,-37.7 577,-37.7"/>
<polygon fill="none" stroke="#000000" points="577,-37.7 577,-56.7 617,-56.7 617,-37.7 577,-37.7"/>
<text text-anchor="start" x="607.8862" y="-43.8" font-family="Helvetica,sans-Serif" font-size="11.00" fill="#000000"> &#160;</text>
</a>
</g>
</g>
<!-- rule_patient_data&#45;&gt;rule_action_item -->
<g id="edge7" class="edge">
<title>rule_patient_data:w&#45;&gt;rule_action_item:e</title>
<path fill="none" stroke="#000000" d="M445.811,-111.4498C402.012,-131.9153 471.9974,-259.7 406.5,-259.7"/>
<polygon fill="#000000" stroke="#000000" points="452.1461,-110.2221 460.6849,-112.2342 456.0731,-109.4611 460,-108.7 460,-108.7 460,-108.7 456.0731,-109.4611 459.3151,-105.1658 452.1461,-110.2221 452.1461,-110.2221"/>
<ellipse fill="none" stroke="#000000" cx="449.0046" cy="-110.8309" rx="3.2" ry="3.2"/>
</g>
<!-- rule_patient_data&#45;&gt;rule_action_item -->
<g id="edge8" class="edge">
<title>rule_patient_data:w&#45;&gt;rule_action_item:e</title>
<path fill="none" stroke="#000000" d="M445.811,-89.4498C402.012,-109.9153 471.9974,-237.7 406.5,-237.7"/>
<polygon fill="#000000" stroke="#000000" points="452.1461,-88.2221 460.6849,-90.2342 456.0731,-87.4611 460,-86.7 460,-86.7 460,-86.7 456.0731,-87.4611 459.3151,-83.1658 452.1461,-88.2221 452.1461,-88.2221"/>
<ellipse fill="none" stroke="#000000" cx="449.0046" cy="-88.8309" rx="3.2" ry="3.2"/>
</g>
</g>
</svg>
