<?xml version="1.0" encoding="UTF-8" standalone="no"?>
<!DOCTYPE svg PUBLIC "-//W3C//DTD SVG 1.1//EN"
 "http://www.w3.org/Graphics/SVG/1.1/DTD/svg11.dtd">
<!-- Generated by graphviz version 2.40.1 (20161225.0304)
 -->
<!-- Title: oneDegreeRelationshipsDiagram Pages: 1 -->
<svg width="227pt" height="294pt"
 viewBox="0.00 0.00 227.00 294.20" xmlns="http://www.w3.org/2000/svg" xmlns:xlink="http://www.w3.org/1999/xlink">
<g id="graph0" class="graph" transform="scale(1 1) rotate(0) translate(4 290.2)">
<title>oneDegreeRelationshipsDiagram</title>
<polygon fill="#ffffff" stroke="transparent" points="-4,4 -4,-290.2 223,-290.2 223,4 -4,4"/>
<text text-anchor="middle" x="72.4936" y="-7.3" font-family="Helvetica,sans-Serif" font-size="11.00" fill="#000000">Generated by SchemaSpy</text>
<!-- sct2_description2 -->
<g id="node1" class="node">
<title>sct2_description2</title>
<g id="a_node1"><a xlink:href="../../tables/sct2_description2.html" xlink:title="sct2_description2" target="_top">
<polygon fill="#ffffff" stroke="transparent" points="8,-38.2 8,-282.2 211,-282.2 211,-38.2 8,-38.2"/>
<polygon fill="#f5f5f5" stroke="transparent" points="10.5,-257.2 10.5,-280.2 209.5,-280.2 209.5,-257.2 10.5,-257.2"/>
<polygon fill="none" stroke="#000000" points="10.5,-257.2 10.5,-280.2 209.5,-280.2 209.5,-257.2 10.5,-257.2"/>
<text text-anchor="start" x="15.5" y="-265.8" font-family="Helvetica,sans-Serif" font-weight="bold" font-size="11.00" fill="#000000">sct2_description2</text>
<text text-anchor="start" x="174.5437" y="-265.3" font-family="Helvetica,sans-Serif" font-size="11.00" fill="#000000">[table]</text>
<polygon fill="none" stroke="#000000" points="10.5,-235.2 10.5,-257.2 142.5,-257.2 142.5,-235.2 10.5,-235.2"/>
<image xlink:href="../../images/primaryKeys.png" width="11px" height="12px" preserveAspectRatio="xMinYMin meet" x="15.5" y="-252.2"/>
<text text-anchor="start" x="30.5" y="-242.3" font-family="Helvetica,sans-Serif" font-size="11.00" fill="#000000">id</text>
<polygon fill="none" stroke="#000000" points="142.5,-235.2 142.5,-257.2 209.5,-257.2 209.5,-235.2 142.5,-235.2"/>
<text text-anchor="start" x="145.5" y="-242.9" font-family="Helvetica,sans-Serif" font-size="11.00" fill="#000000">bigint[19]</text>
<polygon fill="none" stroke="#000000" points="10.5,-213.2 10.5,-235.2 142.5,-235.2 142.5,-213.2 10.5,-213.2"/>
<text text-anchor="start" x="30.5" y="-220.3" font-family="Helvetica,sans-Serif" font-size="11.00" fill="#000000">effectiveTime</text>
<polygon fill="none" stroke="#000000" points="142.5,-213.2 142.5,-235.2 209.5,-235.2 209.5,-213.2 142.5,-213.2"/>
<text text-anchor="start" x="145.5" y="-220.9" font-family="Helvetica,sans-Serif" font-size="11.00" fill="#000000">date[10]</text>
<polygon fill="none" stroke="#000000" points="10.5,-191.2 10.5,-213.2 142.5,-213.2 142.5,-191.2 10.5,-191.2"/>
<image xlink:href="../../images/primaryKeys.png" width="11px" height="12px" preserveAspectRatio="xMinYMin meet" x="15.5" y="-208.2"/>
<text text-anchor="start" x="30.5" y="-198.3" font-family="Helvetica,sans-Serif" font-size="11.00" fill="#000000">active</text>
<polygon fill="none" stroke="#000000" points="142.5,-191.2 142.5,-213.2 209.5,-213.2 209.5,-191.2 142.5,-191.2"/>
<text text-anchor="start" x="145.5" y="-198.9" font-family="Helvetica,sans-Serif" font-size="11.00" fill="#000000">bigint[19]</text>
<polygon fill="none" stroke="#000000" points="10.5,-169.2 10.5,-191.2 142.5,-191.2 142.5,-169.2 10.5,-169.2"/>
<text text-anchor="start" x="30.5" y="-176.3" font-family="Helvetica,sans-Serif" font-size="11.00" fill="#000000">moduleId</text>
<polygon fill="none" stroke="#000000" points="142.5,-169.2 142.5,-191.2 209.5,-191.2 209.5,-169.2 142.5,-169.2"/>
<text text-anchor="start" x="145.5" y="-176.9" font-family="Helvetica,sans-Serif" font-size="11.00" fill="#000000">bigint[19]</text>
<polygon fill="none" stroke="#000000" points="10.5,-147.2 10.5,-169.2 142.5,-169.2 142.5,-147.2 10.5,-147.2"/>
<image xlink:href="../../images/primaryKeys.png" width="11px" height="12px" preserveAspectRatio="xMinYMin meet" x="15.5" y="-164.2"/>
<text text-anchor="start" x="30.5" y="-154.3" font-family="Helvetica,sans-Serif" font-size="11.00" fill="#000000">conceptId</text>
<polygon fill="none" stroke="#000000" points="142.5,-147.2 142.5,-169.2 209.5,-169.2 209.5,-147.2 142.5,-147.2"/>
<text text-anchor="start" x="145.5" y="-154.9" font-family="Helvetica,sans-Serif" font-size="11.00" fill="#000000">bigint[19]</text>
<polygon fill="none" stroke="#000000" points="10.5,-125.2 10.5,-147.2 142.5,-147.2 142.5,-125.2 10.5,-125.2"/>
<text text-anchor="start" x="30.5" y="-132.3" font-family="Helvetica,sans-Serif" font-size="11.00" fill="#000000">languageCode</text>
<polygon fill="none" stroke="#000000" points="142.5,-125.2 142.5,-147.2 209.5,-147.2 209.5,-125.2 142.5,-125.2"/>
<text text-anchor="start" x="145.5" y="-132.9" font-family="Helvetica,sans-Serif" font-size="11.00" fill="#000000">varchar[8]</text>
<polygon fill="none" stroke="#000000" points="10.5,-103.2 10.5,-125.2 142.5,-125.2 142.5,-103.2 10.5,-103.2"/>
<text text-anchor="start" x="30.5" y="-110.3" font-family="Helvetica,sans-Serif" font-size="11.00" fill="#000000">typeId</text>
<polygon fill="none" stroke="#000000" points="142.5,-103.2 142.5,-125.2 209.5,-125.2 209.5,-103.2 142.5,-103.2"/>
<text text-anchor="start" x="145.5" y="-110.9" font-family="Helvetica,sans-Serif" font-size="11.00" fill="#000000">bigint[19]</text>
<polygon fill="#ffffff" stroke="transparent" points="10.5,-81.2 10.5,-103.2 142.5,-103.2 142.5,-81.2 10.5,-81.2"/>
<polygon fill="none" stroke="#000000" points="10.5,-81.2 10.5,-103.2 142.5,-103.2 142.5,-81.2 10.5,-81.2"/>
<text text-anchor="start" x="30.5" y="-88.3" font-family="Helvetica,sans-Serif" font-size="11.00" fill="#000000">term</text>
<polygon fill="none" stroke="#000000" points="142.5,-81.2 142.5,-103.2 209.5,-103.2 209.5,-81.2 142.5,-81.2"/>
<text text-anchor="start" x="145.4365" y="-88.9" font-family="Helvetica,sans-Serif" font-size="11.00" fill="#000000">varchar[255]</text>
<polygon fill="none" stroke="#000000" points="10.5,-59.2 10.5,-81.2 142.5,-81.2 142.5,-59.2 10.5,-59.2"/>
<text text-anchor="start" x="30.5" y="-66.3" font-family="Helvetica,sans-Serif" font-size="11.00" fill="#000000">caseSignificanceId</text>
<polygon fill="none" stroke="#000000" points="142.5,-59.2 142.5,-81.2 209.5,-81.2 209.5,-59.2 142.5,-59.2"/>
<text text-anchor="start" x="145.5" y="-66.9" font-family="Helvetica,sans-Serif" font-size="11.00" fill="#000000">bigint[19]</text>
<polygon fill="#ffffff" stroke="transparent" points="10.5,-40.2 10.5,-59.2 80.5,-59.2 80.5,-40.2 10.5,-40.2"/>
<polygon fill="none" stroke="#000000" points="10.5,-40.2 10.5,-59.2 80.5,-59.2 80.5,-40.2 10.5,-40.2"/>
<text text-anchor="start" x="13.5" y="-46.3" font-family="Helvetica,sans-Serif" font-size="11.00" fill="#000000">&lt; 0</text>
<polygon fill="#ffffff" stroke="transparent" points="80.5,-40.2 80.5,-59.2 142.5,-59.2 142.5,-40.2 80.5,-40.2"/>
<polygon fill="none" stroke="#000000" points="80.5,-40.2 80.5,-59.2 142.5,-59.2 142.5,-40.2 80.5,-40.2"/>
<text text-anchor="start" x="133.3862" y="-46.3" font-family="Helvetica,sans-Serif" font-size="11.00" fill="#000000"> &#160;</text>
<polygon fill="#ffffff" stroke="transparent" points="142.5,-40.2 142.5,-59.2 209.5,-59.2 209.5,-40.2 142.5,-40.2"/>
<polygon fill="none" stroke="#000000" points="142.5,-40.2 142.5,-59.2 209.5,-59.2 209.5,-40.2 142.5,-40.2"/>
<text text-anchor="start" x="190.9053" y="-46.3" font-family="Helvetica,sans-Serif" font-size="11.00" fill="#000000">0 &gt;</text>
<polygon fill="none" stroke="#000000" stroke-width="2" points="9,-39.2 9,-281.2 210,-281.2 210,-39.2 9,-39.2"/>
</a>
</g>
</g>
</g>
</svg>
