<?xml version="1.0" encoding="UTF-8" standalone="no"?>
<!DOCTYPE svg PUBLIC "-//W3C//DTD SVG 1.1//EN"
 "http://www.w3.org/Graphics/SVG/1.1/DTD/svg11.dtd">
<!-- Generated by graphviz version 2.40.1 (20161225.0304)
 -->
<!-- Title: oneDegreeRelationshipsDiagram Pages: 1 -->
<svg width="975pt" height="481pt"
 viewBox="0.00 0.00 975.00 480.81" xmlns="http://www.w3.org/2000/svg" xmlns:xlink="http://www.w3.org/1999/xlink">
<g id="graph0" class="graph" transform="scale(1 1) rotate(0) translate(4 476.8081)">
<title>oneDegreeRelationshipsDiagram</title>
<polygon fill="#ffffff" stroke="transparent" points="-4,4 -4,-476.8081 971,-476.8081 971,4 -4,4"/>
<text text-anchor="middle" x="72.4936" y="-7.3" font-family="Helvetica,sans-Serif" font-size="11.00" fill="#000000">Generated by SchemaSpy</text>
<!-- form_encounter -->
<g id="node1" class="node">
<title>form_encounter</title>
<g id="a_node1"><a xlink:href="../../tables/form_encounter.html" xlink:title="form_encounter" target="_top">
<polygon fill="#ffffff" stroke="transparent" points="440,-248.3892 440,-419.3892 648,-419.3892 648,-248.3892 440,-248.3892"/>
<polygon fill="#f5f5f5" stroke="transparent" points="440,-395.8892 440,-418.8892 648,-418.8892 648,-395.8892 440,-395.8892"/>
<polygon fill="none" stroke="#000000" points="440,-395.8892 440,-418.8892 648,-418.8892 648,-395.8892 440,-395.8892"/>
<text text-anchor="start" x="445" y="-404.4892" font-family="Helvetica,sans-Serif" font-weight="bold" font-size="11.00" fill="#000000">form_encounter</text>
<text text-anchor="start" x="613.0437" y="-403.9892" font-family="Helvetica,sans-Serif" font-size="11.00" fill="#000000">[table]</text>
<polygon fill="none" stroke="#000000" points="440,-373.8892 440,-395.8892 648,-395.8892 648,-373.8892 440,-373.8892"/>
<image xlink:href="../../images/primaryKeys.png" width="11px" height="12px" preserveAspectRatio="xMinYMin meet" x="445" y="-390.889"/>
<text text-anchor="start" x="460" y="-380.9892" font-family="Helvetica,sans-Serif" font-size="11.00" fill="#000000">id</text>
<polygon fill="#ffffff" stroke="transparent" points="440,-351.8892 440,-373.8892 648,-373.8892 648,-351.8892 440,-351.8892"/>
<polygon fill="none" stroke="#000000" points="440,-351.8892 440,-373.8892 648,-373.8892 648,-351.8892 440,-351.8892"/>
<text text-anchor="start" x="460" y="-358.9892" font-family="Helvetica,sans-Serif" font-size="11.00" fill="#000000">date</text>
<polygon fill="#ffffff" stroke="transparent" points="440,-329.8892 440,-351.8892 648,-351.8892 648,-329.8892 440,-329.8892"/>
<polygon fill="none" stroke="#000000" points="440,-329.8892 440,-351.8892 648,-351.8892 648,-329.8892 440,-329.8892"/>
<image xlink:href="../../images/foreignKeys.png" width="11px" height="12px" preserveAspectRatio="xMinYMin meet" x="445" y="-346.889"/>
<text text-anchor="start" x="460" y="-336.9892" font-family="Helvetica,sans-Serif" font-size="11.00" fill="#000000">pid</text>
<polygon fill="none" stroke="#000000" points="440,-307.8892 440,-329.8892 648,-329.8892 648,-307.8892 440,-307.8892"/>
<image xlink:href="../../images/primaryKeys.png" width="11px" height="12px" preserveAspectRatio="xMinYMin meet" x="445" y="-324.889"/>
<text text-anchor="start" x="460" y="-314.9892" font-family="Helvetica,sans-Serif" font-size="11.00" fill="#000000">encounter</text>
<polygon fill="#ffffff" stroke="transparent" points="440,-285.8892 440,-307.8892 648,-307.8892 648,-285.8892 440,-285.8892"/>
<polygon fill="none" stroke="#000000" points="440,-285.8892 440,-307.8892 648,-307.8892 648,-285.8892 440,-285.8892"/>
<text text-anchor="start" x="460" y="-292.9892" font-family="Helvetica,sans-Serif" font-size="11.00" fill="#000000">uuid</text>
<polygon fill="none" stroke="#000000" points="440,-266.8892 440,-285.8892 648,-285.8892 648,-266.8892 440,-266.8892"/>
<text text-anchor="start" x="443" y="-272.9892" font-family="Helvetica,sans-Serif" font-size="11.00" fill="#000000">...</text>
<polygon fill="#ffffff" stroke="transparent" points="440,-247.8892 440,-266.8892 535,-266.8892 535,-247.8892 440,-247.8892"/>
<polygon fill="none" stroke="#000000" points="440,-247.8892 440,-266.8892 535,-266.8892 535,-247.8892 440,-247.8892"/>
<text text-anchor="start" x="443" y="-253.9892" font-family="Helvetica,sans-Serif" font-size="11.00" fill="#000000">&lt; 1</text>
<polygon fill="#ffffff" stroke="transparent" points="535,-247.8892 535,-266.8892 584,-266.8892 584,-247.8892 535,-247.8892"/>
<polygon fill="none" stroke="#000000" points="535,-247.8892 535,-266.8892 584,-266.8892 584,-247.8892 535,-247.8892"/>
<text text-anchor="start" x="574.8862" y="-253.9892" font-family="Helvetica,sans-Serif" font-size="11.00" fill="#000000"> &#160;</text>
<polygon fill="#ffffff" stroke="transparent" points="584,-247.8892 584,-266.8892 648,-266.8892 648,-247.8892 584,-247.8892"/>
<polygon fill="none" stroke="#000000" points="584,-247.8892 584,-266.8892 648,-266.8892 648,-247.8892 584,-247.8892"/>
<text text-anchor="start" x="623.2904" y="-253.9892" font-family="Helvetica,sans-Serif" font-size="11.00" fill="#000000">14 &gt;</text>
</a>
</g>
</g>
<!-- patient_data -->
<g id="node2" class="node">
<title>patient_data</title>
<g id="a_node2"><a xlink:href="../../tables/patient_data.html" xlink:title="patient_data" target="_top">
<polygon fill="#ffffff" stroke="transparent" points="224,-226.3892 224,-463.3892 391,-463.3892 391,-226.3892 224,-226.3892"/>
<polygon fill="#f5f5f5" stroke="transparent" points="224.5,-439.8892 224.5,-462.8892 391.5,-462.8892 391.5,-439.8892 224.5,-439.8892"/>
<polygon fill="none" stroke="#000000" points="224.5,-439.8892 224.5,-462.8892 391.5,-462.8892 391.5,-439.8892 224.5,-439.8892"/>
<text text-anchor="start" x="229.5" y="-448.4892" font-family="Helvetica,sans-Serif" font-weight="bold" font-size="11.00" fill="#000000">patient_data</text>
<text text-anchor="start" x="356.5437" y="-447.9892" font-family="Helvetica,sans-Serif" font-size="11.00" fill="#000000">[table]</text>
<polygon fill="#ffffff" stroke="transparent" points="224.5,-417.8892 224.5,-439.8892 391.5,-439.8892 391.5,-417.8892 224.5,-417.8892"/>
<polygon fill="none" stroke="#000000" points="224.5,-417.8892 224.5,-439.8892 391.5,-439.8892 391.5,-417.8892 224.5,-417.8892"/>
<text text-anchor="start" x="244.5" y="-424.9892" font-family="Helvetica,sans-Serif" font-size="11.00" fill="#000000">id</text>
<polygon fill="none" stroke="#000000" points="224.5,-395.8892 224.5,-417.8892 391.5,-417.8892 391.5,-395.8892 224.5,-395.8892"/>
<image xlink:href="../../images/foreignKeys.png" width="11px" height="12px" preserveAspectRatio="xMinYMin meet" x="229.5" y="-412.889"/>
<text text-anchor="start" x="244.5" y="-402.9892" font-family="Helvetica,sans-Serif" font-size="11.00" fill="#000000">pharmacy_id</text>
<polygon fill="none" stroke="#000000" points="224.5,-373.8892 224.5,-395.8892 391.5,-395.8892 391.5,-373.8892 224.5,-373.8892"/>
<image xlink:href="../../images/foreignKeys.png" width="11px" height="12px" preserveAspectRatio="xMinYMin meet" x="229.5" y="-390.889"/>
<text text-anchor="start" x="244.5" y="-380.9892" font-family="Helvetica,sans-Serif" font-size="11.00" fill="#000000">providerID</text>
<polygon fill="none" stroke="#000000" points="224.5,-351.8892 224.5,-373.8892 391.5,-373.8892 391.5,-351.8892 224.5,-351.8892"/>
<image xlink:href="../../images/foreignKeys.png" width="11px" height="12px" preserveAspectRatio="xMinYMin meet" x="229.5" y="-368.889"/>
<text text-anchor="start" x="244.5" y="-358.9892" font-family="Helvetica,sans-Serif" font-size="11.00" fill="#000000">ref_providerID</text>
<polygon fill="none" stroke="#000000" points="224.5,-329.8892 224.5,-351.8892 391.5,-351.8892 391.5,-329.8892 224.5,-329.8892"/>
<image xlink:href="../../images/primaryKeys.png" width="11px" height="12px" preserveAspectRatio="xMinYMin meet" x="229.5" y="-346.889"/>
<text text-anchor="start" x="244.5" y="-336.9892" font-family="Helvetica,sans-Serif" font-size="11.00" fill="#000000">pid</text>
<polygon fill="#ffffff" stroke="transparent" points="224.5,-307.8892 224.5,-329.8892 391.5,-329.8892 391.5,-307.8892 224.5,-307.8892"/>
<polygon fill="none" stroke="#000000" points="224.5,-307.8892 224.5,-329.8892 391.5,-329.8892 391.5,-307.8892 224.5,-307.8892"/>
<text text-anchor="start" x="244.5" y="-314.9892" font-family="Helvetica,sans-Serif" font-size="11.00" fill="#000000">uuid</text>
<polygon fill="none" stroke="#000000" points="224.5,-285.8892 224.5,-307.8892 391.5,-307.8892 391.5,-285.8892 224.5,-285.8892"/>
<image xlink:href="../../images/foreignKeys.png" width="11px" height="12px" preserveAspectRatio="xMinYMin meet" x="229.5" y="-302.889"/>
<text text-anchor="start" x="244.5" y="-292.9892" font-family="Helvetica,sans-Serif" font-size="11.00" fill="#000000">created_by</text>
<polygon fill="none" stroke="#000000" points="224.5,-263.8892 224.5,-285.8892 391.5,-285.8892 391.5,-263.8892 224.5,-263.8892"/>
<image xlink:href="../../images/foreignKeys.png" width="11px" height="12px" preserveAspectRatio="xMinYMin meet" x="229.5" y="-280.889"/>
<text text-anchor="start" x="244.5" y="-270.9892" font-family="Helvetica,sans-Serif" font-size="11.00" fill="#000000">updated_by</text>
<polygon fill="none" stroke="#000000" points="224.5,-244.8892 224.5,-263.8892 391.5,-263.8892 391.5,-244.8892 224.5,-244.8892"/>
<text text-anchor="start" x="227.5" y="-250.9892" font-family="Helvetica,sans-Serif" font-size="11.00" fill="#000000">...</text>
<polygon fill="#ffffff" stroke="transparent" points="224.5,-225.8892 224.5,-244.8892 298.5,-244.8892 298.5,-225.8892 224.5,-225.8892"/>
<polygon fill="none" stroke="#000000" points="224.5,-225.8892 224.5,-244.8892 298.5,-244.8892 298.5,-225.8892 224.5,-225.8892"/>
<text text-anchor="start" x="227.5" y="-231.9892" font-family="Helvetica,sans-Serif" font-size="11.00" fill="#000000">&lt; 5</text>
<polygon fill="#ffffff" stroke="transparent" points="298.5,-225.8892 298.5,-244.8892 337.5,-244.8892 337.5,-225.8892 298.5,-225.8892"/>
<polygon fill="none" stroke="#000000" points="298.5,-225.8892 298.5,-244.8892 337.5,-244.8892 337.5,-225.8892 298.5,-225.8892"/>
<text text-anchor="start" x="328.3862" y="-231.9892" font-family="Helvetica,sans-Serif" font-size="11.00" fill="#000000"> &#160;</text>
<polygon fill="#ffffff" stroke="transparent" points="337.5,-225.8892 337.5,-244.8892 391.5,-244.8892 391.5,-225.8892 337.5,-225.8892"/>
<polygon fill="none" stroke="#000000" points="337.5,-225.8892 337.5,-244.8892 391.5,-244.8892 391.5,-225.8892 337.5,-225.8892"/>
<text text-anchor="start" x="366.7904" y="-231.9892" font-family="Helvetica,sans-Serif" font-size="11.00" fill="#000000">85 &gt;</text>
</a>
</g>
</g>
<!-- form_encounter&#45;&gt;patient_data -->
<g id="edge1" class="edge">
<title>form_encounter:w&#45;&gt;patient_data:e</title>
<path fill="none" stroke="#000000" d="M425.2829,-340.8892C414.2886,-340.8892 407.1615,-340.8892 391.5,-340.8892"/>
<polygon fill="#000000" stroke="#000000" points="432,-340.8893 440,-344.4892 436,-340.8892 440,-340.8892 440,-340.8892 440,-340.8892 436,-340.8892 440,-337.2892 432,-340.8893 432,-340.8893"/>
<ellipse fill="none" stroke="#000000" cx="428.8" cy="-340.8893" rx="3.2" ry="3.2"/>
</g>
<!-- users -->
<g id="node3" class="node">
<title>users</title>
<g id="a_node3"><a xlink:href="../../tables/users.html" xlink:title="users" target="_top">
<polygon fill="#ffffff" stroke="transparent" points="8,-116.3892 8,-331.3892 175,-331.3892 175,-116.3892 8,-116.3892"/>
<polygon fill="#f5f5f5" stroke="transparent" points="8.5,-307.8892 8.5,-330.8892 175.5,-330.8892 175.5,-307.8892 8.5,-307.8892"/>
<polygon fill="none" stroke="#000000" points="8.5,-307.8892 8.5,-330.8892 175.5,-330.8892 175.5,-307.8892 8.5,-307.8892"/>
<text text-anchor="start" x="13.5" y="-316.4892" font-family="Helvetica,sans-Serif" font-weight="bold" font-size="11.00" fill="#000000">users</text>
<text text-anchor="start" x="140.5437" y="-315.9892" font-family="Helvetica,sans-Serif" font-size="11.00" fill="#000000">[table]</text>
<polygon fill="none" stroke="#000000" points="8.5,-285.8892 8.5,-307.8892 175.5,-307.8892 175.5,-285.8892 8.5,-285.8892"/>
<image xlink:href="../../images/primaryKeys.png" width="11px" height="12px" preserveAspectRatio="xMinYMin meet" x="13.5" y="-302.889"/>
<text text-anchor="start" x="28.5" y="-292.9892" font-family="Helvetica,sans-Serif" font-size="11.00" fill="#000000">id</text>
<polygon fill="none" stroke="#000000" points="8.5,-263.8892 8.5,-285.8892 175.5,-285.8892 175.5,-263.8892 8.5,-263.8892"/>
<image xlink:href="../../images/primaryKeys.png" width="11px" height="12px" preserveAspectRatio="xMinYMin meet" x="13.5" y="-280.889"/>
<text text-anchor="start" x="28.5" y="-270.9892" font-family="Helvetica,sans-Serif" font-size="11.00" fill="#000000">username</text>
<polygon fill="none" stroke="#000000" points="8.5,-241.8892 8.5,-263.8892 175.5,-263.8892 175.5,-241.8892 8.5,-241.8892"/>
<image xlink:href="../../images/foreignKeys.png" width="11px" height="12px" preserveAspectRatio="xMinYMin meet" x="13.5" y="-258.889"/>
<text text-anchor="start" x="28.5" y="-248.9892" font-family="Helvetica,sans-Serif" font-size="11.00" fill="#000000">facility_id</text>
<polygon fill="#ffffff" stroke="transparent" points="8.5,-219.8892 8.5,-241.8892 175.5,-241.8892 175.5,-219.8892 8.5,-219.8892"/>
<polygon fill="none" stroke="#000000" points="8.5,-219.8892 8.5,-241.8892 175.5,-241.8892 175.5,-219.8892 8.5,-219.8892"/>
<text text-anchor="start" x="28.5" y="-226.9892" font-family="Helvetica,sans-Serif" font-size="11.00" fill="#000000">abook_type</text>
<polygon fill="#ffffff" stroke="transparent" points="8.5,-197.8892 8.5,-219.8892 175.5,-219.8892 175.5,-197.8892 8.5,-197.8892"/>
<polygon fill="none" stroke="#000000" points="8.5,-197.8892 8.5,-219.8892 175.5,-219.8892 175.5,-197.8892 8.5,-197.8892"/>
<text text-anchor="start" x="28.5" y="-204.9892" font-family="Helvetica,sans-Serif" font-size="11.00" fill="#000000">uuid</text>
<polygon fill="#ffffff" stroke="transparent" points="8.5,-175.8892 8.5,-197.8892 175.5,-197.8892 175.5,-175.8892 8.5,-175.8892"/>
<polygon fill="none" stroke="#000000" points="8.5,-175.8892 8.5,-197.8892 175.5,-197.8892 175.5,-175.8892 8.5,-175.8892"/>
<text text-anchor="start" x="28.5" y="-182.9892" font-family="Helvetica,sans-Serif" font-size="11.00" fill="#000000">google_signin_email</text>
<polygon fill="none" stroke="#000000" points="8.5,-153.8892 8.5,-175.8892 175.5,-175.8892 175.5,-153.8892 8.5,-153.8892"/>
<image xlink:href="../../images/foreignKeys.png" width="11px" height="12px" preserveAspectRatio="xMinYMin meet" x="13.5" y="-170.889"/>
<text text-anchor="start" x="28.5" y="-160.9892" font-family="Helvetica,sans-Serif" font-size="11.00" fill="#000000">billing_facility_id</text>
<polygon fill="none" stroke="#000000" points="8.5,-134.8892 8.5,-153.8892 175.5,-153.8892 175.5,-134.8892 8.5,-134.8892"/>
<text text-anchor="start" x="11.5" y="-140.9892" font-family="Helvetica,sans-Serif" font-size="11.00" fill="#000000">...</text>
<polygon fill="#ffffff" stroke="transparent" points="8.5,-115.8892 8.5,-134.8892 82.5,-134.8892 82.5,-115.8892 8.5,-115.8892"/>
<polygon fill="none" stroke="#000000" points="8.5,-115.8892 8.5,-134.8892 82.5,-134.8892 82.5,-115.8892 8.5,-115.8892"/>
<text text-anchor="start" x="11.5" y="-121.9892" font-family="Helvetica,sans-Serif" font-size="11.00" fill="#000000">&lt; 2</text>
<polygon fill="#ffffff" stroke="transparent" points="82.5,-115.8892 82.5,-134.8892 121.5,-134.8892 121.5,-115.8892 82.5,-115.8892"/>
<polygon fill="none" stroke="#000000" points="82.5,-115.8892 82.5,-134.8892 121.5,-134.8892 121.5,-115.8892 82.5,-115.8892"/>
<text text-anchor="start" x="112.3862" y="-121.9892" font-family="Helvetica,sans-Serif" font-size="11.00" fill="#000000"> &#160;</text>
<polygon fill="#ffffff" stroke="transparent" points="121.5,-115.8892 121.5,-134.8892 175.5,-134.8892 175.5,-115.8892 121.5,-115.8892"/>
<polygon fill="none" stroke="#000000" points="121.5,-115.8892 121.5,-134.8892 175.5,-134.8892 175.5,-115.8892 121.5,-115.8892"/>
<text text-anchor="start" x="150.7904" y="-121.9892" font-family="Helvetica,sans-Serif" font-size="11.00" fill="#000000">61 &gt;</text>
</a>
</g>
</g>
<!-- patient_data&#45;&gt;users -->
<g id="edge2" class="edge">
<title>patient_data:w&#45;&gt;users:e</title>
<path fill="none" stroke="#000000" d="M209.9909,-296.8892C198.6774,-296.8892 191.4931,-296.8892 175.5,-296.8892"/>
<polygon fill="#000000" stroke="#000000" points="216.5,-296.8893 224.5,-300.4892 220.5,-296.8892 224.5,-296.8892 224.5,-296.8892 224.5,-296.8892 220.5,-296.8892 224.5,-293.2892 216.5,-296.8893 216.5,-296.8893"/>
<ellipse fill="none" stroke="#000000" cx="213.3" cy="-296.8893" rx="3.2" ry="3.2"/>
</g>
<!-- patient_data&#45;&gt;users -->
<g id="edge3" class="edge">
<title>patient_data:w&#45;&gt;users:e</title>
<path fill="none" stroke="#000000" d="M210.4863,-380.4043C189.2228,-362.4716 214.1452,-296.8892 175.5,-296.8892"/>
<polygon fill="#000000" stroke="#000000" points="216.8807,-382.4507 223.4027,-388.3179 220.6903,-383.67 224.5,-384.8892 224.5,-384.8892 224.5,-384.8892 220.6903,-383.67 225.5973,-381.4605 216.8807,-382.4507 216.8807,-382.4507"/>
<ellipse fill="none" stroke="#000000" cx="213.833" cy="-381.4753" rx="3.2" ry="3.2"/>
</g>
<!-- patient_data&#45;&gt;users -->
<g id="edge4" class="edge">
<title>patient_data:w&#45;&gt;users:e</title>
<path fill="none" stroke="#000000" d="M210.8768,-358.1427C194.2322,-343.0094 206.0399,-296.8892 175.5,-296.8892"/>
<polygon fill="#000000" stroke="#000000" points="216.9454,-360.257 223.3155,-366.2888 220.7227,-361.5731 224.5,-362.8892 224.5,-362.8892 224.5,-362.8892 220.7227,-361.5731 225.6845,-359.4896 216.9454,-360.257 216.9454,-360.257"/>
<ellipse fill="none" stroke="#000000" cx="213.9236" cy="-359.2041" rx="3.2" ry="3.2"/>
</g>
<!-- patient_data&#45;&gt;users -->
<g id="edge5" class="edge">
<title>patient_data:w&#45;&gt;users:e</title>
<path fill="none" stroke="#000000" d="M210.1297,-278.3267C198.5865,-284.5142 193.4041,-296.8892 175.5,-296.8892"/>
<polygon fill="#000000" stroke="#000000" points="216.7195,-276.7504 225.3375,-278.3904 220.6098,-275.8198 224.5,-274.8892 224.5,-274.8892 224.5,-274.8892 220.6098,-275.8198 223.6625,-271.388 216.7195,-276.7504 216.7195,-276.7504"/>
<ellipse fill="none" stroke="#000000" cx="213.6073" cy="-277.4949" rx="3.2" ry="3.2"/>
</g>
<!-- shared_attributes -->
<g id="node4" class="node">
<title>shared_attributes</title>
<g id="a_node4"><a xlink:href="../../tables/shared_attributes.html" xlink:title="shared_attributes" target="_top">
<polygon fill="#ffffff" stroke="transparent" points="697,-135.8892 697,-313.8892 959,-313.8892 959,-135.8892 697,-135.8892"/>
<polygon fill="#f5f5f5" stroke="transparent" points="699,-288.8892 699,-311.8892 957,-311.8892 957,-288.8892 699,-288.8892"/>
<polygon fill="none" stroke="#000000" points="699,-288.8892 699,-311.8892 957,-311.8892 957,-288.8892 699,-288.8892"/>
<text text-anchor="start" x="704" y="-297.4892" font-family="Helvetica,sans-Serif" font-weight="bold" font-size="11.00" fill="#000000">shared_attributes</text>
<text text-anchor="start" x="922.0437" y="-296.9892" font-family="Helvetica,sans-Serif" font-size="11.00" fill="#000000">[table]</text>
<polygon fill="none" stroke="#000000" points="699,-266.8892 699,-288.8892 840,-288.8892 840,-266.8892 699,-266.8892"/>
<image xlink:href="../../images/primaryKeys.png" width="11px" height="12px" preserveAspectRatio="xMinYMin meet" x="704" y="-283.889"/>
<text text-anchor="start" x="719" y="-273.9892" font-family="Helvetica,sans-Serif" font-size="11.00" fill="#000000">pid</text>
<polygon fill="none" stroke="#000000" points="840,-266.8892 840,-288.8892 957,-288.8892 957,-266.8892 840,-266.8892"/>
<text text-anchor="start" x="843" y="-274.5892" font-family="Helvetica,sans-Serif" font-size="11.00" fill="#000000">bigint[19]</text>
<polygon fill="none" stroke="#000000" points="699,-244.8892 699,-266.8892 840,-266.8892 840,-244.8892 699,-244.8892"/>
<image xlink:href="../../images/primaryKeys.png" width="11px" height="12px" preserveAspectRatio="xMinYMin meet" x="704" y="-261.889"/>
<text text-anchor="start" x="719" y="-251.9892" font-family="Helvetica,sans-Serif" font-size="11.00" fill="#000000">encounter</text>
<polygon fill="none" stroke="#000000" points="840,-244.8892 840,-266.8892 957,-266.8892 957,-244.8892 840,-244.8892"/>
<text text-anchor="start" x="843" y="-252.5892" font-family="Helvetica,sans-Serif" font-size="11.00" fill="#000000">bigint[19]</text>
<polygon fill="none" stroke="#000000" points="699,-222.8892 699,-244.8892 840,-244.8892 840,-222.8892 699,-222.8892"/>
<image xlink:href="../../images/primaryKeys.png" width="11px" height="12px" preserveAspectRatio="xMinYMin meet" x="704" y="-239.889"/>
<text text-anchor="start" x="719" y="-229.9892" font-family="Helvetica,sans-Serif" font-size="11.00" fill="#000000">field_id</text>
<polygon fill="none" stroke="#000000" points="840,-222.8892 840,-244.8892 957,-244.8892 957,-222.8892 840,-222.8892"/>
<text text-anchor="start" x="843" y="-230.5892" font-family="Helvetica,sans-Serif" font-size="11.00" fill="#000000">varchar[31]</text>
<polygon fill="none" stroke="#000000" points="699,-200.8892 699,-222.8892 840,-222.8892 840,-200.8892 699,-200.8892"/>
<text text-anchor="start" x="719" y="-207.9892" font-family="Helvetica,sans-Serif" font-size="11.00" fill="#000000">last_update</text>
<polygon fill="none" stroke="#000000" points="840,-200.8892 840,-222.8892 957,-222.8892 957,-200.8892 840,-200.8892"/>
<text text-anchor="start" x="843" y="-208.5892" font-family="Helvetica,sans-Serif" font-size="11.00" fill="#000000">datetime[19]</text>
<polygon fill="none" stroke="#000000" points="699,-178.8892 699,-200.8892 840,-200.8892 840,-178.8892 699,-178.8892"/>
<image xlink:href="../../images/foreignKeys.png" width="11px" height="12px" preserveAspectRatio="xMinYMin meet" x="704" y="-195.889"/>
<text text-anchor="start" x="719" y="-185.9892" font-family="Helvetica,sans-Serif" font-size="11.00" fill="#000000">user_id</text>
<polygon fill="none" stroke="#000000" points="840,-178.8892 840,-200.8892 957,-200.8892 957,-178.8892 840,-178.8892"/>
<text text-anchor="start" x="843" y="-186.5892" font-family="Helvetica,sans-Serif" font-size="11.00" fill="#000000">bigint[19]</text>
<polygon fill="none" stroke="#000000" points="699,-156.8892 699,-178.8892 840,-178.8892 840,-156.8892 699,-156.8892"/>
<text text-anchor="start" x="719" y="-163.9892" font-family="Helvetica,sans-Serif" font-size="11.00" fill="#000000">field_value</text>
<polygon fill="none" stroke="#000000" points="840,-156.8892 840,-178.8892 957,-178.8892 957,-156.8892 840,-156.8892"/>
<text text-anchor="start" x="842.5645" y="-164.5892" font-family="Helvetica,sans-Serif" font-size="11.00" fill="#000000">mediumtext[16777215]</text>
<polygon fill="#ffffff" stroke="transparent" points="699,-137.8892 699,-156.8892 774,-156.8892 774,-137.8892 699,-137.8892"/>
<polygon fill="none" stroke="#000000" points="699,-137.8892 699,-156.8892 774,-156.8892 774,-137.8892 699,-137.8892"/>
<text text-anchor="start" x="702" y="-143.9892" font-family="Helvetica,sans-Serif" font-size="11.00" fill="#000000">&lt; 4</text>
<polygon fill="#ffffff" stroke="transparent" points="774,-137.8892 774,-156.8892 840,-156.8892 840,-137.8892 774,-137.8892"/>
<polygon fill="none" stroke="#000000" points="774,-137.8892 774,-156.8892 840,-156.8892 840,-137.8892 774,-137.8892"/>
<text text-anchor="start" x="830.8862" y="-143.9892" font-family="Helvetica,sans-Serif" font-size="11.00" fill="#000000"> &#160;</text>
<polygon fill="#ffffff" stroke="transparent" points="840,-137.8892 840,-156.8892 957,-156.8892 957,-137.8892 840,-137.8892"/>
<polygon fill="none" stroke="#000000" points="840,-137.8892 840,-156.8892 957,-156.8892 957,-137.8892 840,-137.8892"/>
<text text-anchor="start" x="938.4053" y="-143.9892" font-family="Helvetica,sans-Serif" font-size="11.00" fill="#000000">0 &gt;</text>
<polygon fill="none" stroke="#000000" stroke-width="2" points="698,-136.8892 698,-312.8892 958,-312.8892 958,-136.8892 698,-136.8892"/>
</a>
</g>
</g>
<!-- shared_attributes&#45;&gt;form_encounter -->
<g id="edge6" class="edge">
<title>shared_attributes:w&#45;&gt;form_encounter:e</title>
<path fill="none" stroke="#000000" d="M684.9033,-260.8327C668.525,-275.6844 677.8329,-318.8892 648,-318.8892"/>
<polygon fill="#000000" stroke="#000000" points="691.4507,-258.5367 700.1913,-259.2864 695.2254,-257.2129 699,-255.8892 699,-255.8892 699,-255.8892 695.2254,-257.2129 697.8087,-252.492 691.4507,-258.5367 691.4507,-258.5367"/>
<ellipse fill="none" stroke="#000000" cx="688.431" cy="-259.5956" rx="3.2" ry="3.2"/>
</g>
<!-- shared_attributes&#45;&gt;patient_data -->
<g id="edge8" class="edge">
<title>shared_attributes:w&#45;&gt;patient_data:e</title>
<path fill="none" stroke="#000000" d="M684.6579,-280.0051C641.5068,-295.4256 707.401,-391.0121 656,-429.8892 576.5982,-489.9447 515.7152,-483.7695 432,-429.8892 395.4562,-406.3691 434.9585,-340.8892 391.5,-340.8892"/>
<polygon fill="#000000" stroke="#000000" points="691.0857,-279.0568 699.5254,-281.4507 695.0428,-278.473 699,-277.8892 699,-277.8892 699,-277.8892 695.0428,-278.473 698.4746,-274.3278 691.0857,-279.0568 691.0857,-279.0568"/>
<ellipse fill="none" stroke="#000000" cx="687.9199" cy="-279.5239" rx="3.2" ry="3.2"/>
</g>
<!-- shared_attributes&#45;&gt;users -->
<g id="edge9" class="edge">
<title>shared_attributes:w&#45;&gt;users:e</title>
<path fill="none" stroke="#000000" d="M684.5108,-187.0957C653.2584,-171.7794 697.9764,-97.6016 656,-67.8892 574.7412,-10.3712 527.0985,-38.4346 432,-67.8892 320.8367,-102.3195 292.46,-128.1591 216,-215.8892 189.5553,-246.2319 215.7492,-296.8892 175.5,-296.8892"/>
<polygon fill="#000000" stroke="#000000" points="691.1447,-188.3747 698.3185,-193.4241 695.0723,-189.1319 699,-189.8892 699,-189.8892 699,-189.8892 695.0723,-189.1319 699.6815,-186.3543 691.1447,-188.3747 691.1447,-188.3747"/>
<ellipse fill="none" stroke="#000000" cx="688.0025" cy="-187.7689" rx="3.2" ry="3.2"/>
</g>
<!-- layout_options -->
<g id="node5" class="node">
<title>layout_options</title>
<g id="a_node5"><a xlink:href="../../tables/layout_options.html" xlink:title="layout_options" target="_top">
<polygon fill="#ffffff" stroke="transparent" points="475,-78.3892 475,-227.3892 613,-227.3892 613,-78.3892 475,-78.3892"/>
<polygon fill="#f5f5f5" stroke="transparent" points="475,-203.8892 475,-226.8892 613,-226.8892 613,-203.8892 475,-203.8892"/>
<polygon fill="none" stroke="#000000" points="475,-203.8892 475,-226.8892 613,-226.8892 613,-203.8892 475,-203.8892"/>
<text text-anchor="start" x="480" y="-212.4892" font-family="Helvetica,sans-Serif" font-weight="bold" font-size="11.00" fill="#000000">layout_options</text>
<text text-anchor="start" x="578.5219" y="-211.9892" font-family="Helvetica,sans-Serif" font-size="11.00" fill="#000000">[table]</text>
<polygon fill="none" stroke="#000000" points="475,-181.8892 475,-203.8892 613,-203.8892 613,-181.8892 475,-181.8892"/>
<image xlink:href="../../images/primaryKeys.png" width="11px" height="12px" preserveAspectRatio="xMinYMin meet" x="480" y="-198.889"/>
<text text-anchor="start" x="504" y="-188.9892" font-family="Helvetica,sans-Serif" font-size="11.00" fill="#000000">form_id</text>
<polygon fill="none" stroke="#000000" points="475,-159.8892 475,-181.8892 613,-181.8892 613,-159.8892 475,-159.8892"/>
<image xlink:href="../../images/primaryKeys.png" width="11px" height="12px" preserveAspectRatio="xMinYMin meet" x="480" y="-176.889"/>
<text text-anchor="start" x="504" y="-166.9892" font-family="Helvetica,sans-Serif" font-size="11.00" fill="#000000">field_id</text>
<polygon fill="none" stroke="#000000" points="475,-137.8892 475,-159.8892 613,-159.8892 613,-137.8892 475,-137.8892"/>
<image xlink:href="../../images/foreignKeys.png" width="11px" height="12px" preserveAspectRatio="xMinYMin meet" x="480" y="-154.889"/>
<text text-anchor="start" x="504" y="-144.9892" font-family="Helvetica,sans-Serif" font-size="11.00" fill="#000000">group_id</text>
<polygon fill="none" stroke="#000000" points="475,-115.8892 475,-137.8892 613,-137.8892 613,-115.8892 475,-115.8892"/>
<image xlink:href="../../images/primaryKeys.png" width="11px" height="12px" preserveAspectRatio="xMinYMin meet" x="480" y="-132.889"/>
<text text-anchor="start" x="504" y="-122.9892" font-family="Helvetica,sans-Serif" font-size="11.00" fill="#000000">seq</text>
<polygon fill="none" stroke="#000000" points="475,-96.8892 475,-115.8892 613,-115.8892 613,-96.8892 475,-96.8892"/>
<text text-anchor="start" x="478" y="-102.9892" font-family="Helvetica,sans-Serif" font-size="11.00" fill="#000000">...</text>
<polygon fill="#ffffff" stroke="transparent" points="475,-77.8892 475,-96.8892 538,-96.8892 538,-77.8892 475,-77.8892"/>
<polygon fill="none" stroke="#000000" points="475,-77.8892 475,-96.8892 538,-96.8892 538,-77.8892 475,-77.8892"/>
<text text-anchor="start" x="478" y="-83.9892" font-family="Helvetica,sans-Serif" font-size="11.00" fill="#000000">&lt; 2</text>
<polygon fill="#ffffff" stroke="transparent" points="538,-77.8892 538,-96.8892 571,-96.8892 571,-77.8892 538,-77.8892"/>
<polygon fill="none" stroke="#000000" points="538,-77.8892 538,-96.8892 571,-96.8892 571,-77.8892 538,-77.8892"/>
<text text-anchor="start" x="561.8862" y="-83.9892" font-family="Helvetica,sans-Serif" font-size="11.00" fill="#000000"> &#160;</text>
<polygon fill="#ffffff" stroke="transparent" points="571,-77.8892 571,-96.8892 613,-96.8892 613,-77.8892 571,-77.8892"/>
<polygon fill="none" stroke="#000000" points="571,-77.8892 571,-96.8892 613,-96.8892 613,-77.8892 571,-77.8892"/>
<text text-anchor="start" x="594.4053" y="-83.9892" font-family="Helvetica,sans-Serif" font-size="11.00" fill="#000000">3 &gt;</text>
</a>
</g>
</g>
<!-- shared_attributes&#45;&gt;layout_options -->
<g id="edge7" class="edge">
<title>shared_attributes:w&#45;&gt;layout_options:e</title>
<path fill="none" stroke="#000000" d="M684.475,-231.4965C652.9017,-219.9888 654.8283,-170.8892 613,-170.8892"/>
<polygon fill="#000000" stroke="#000000" points="691.1064,-232.5888 698.4148,-237.4413 695.0532,-233.239 699,-233.8892 699,-233.8892 699,-233.8892 695.0532,-233.239 699.5852,-230.3371 691.1064,-232.5888 691.1064,-232.5888"/>
<ellipse fill="none" stroke="#000000" cx="687.9489" cy="-232.0687" rx="3.2" ry="3.2"/>
</g>
</g>
</svg>
