<?xml version="1.0" encoding="UTF-8" standalone="no"?>
<!DOCTYPE svg PUBLIC "-//W3C//DTD SVG 1.1//EN"
 "http://www.w3.org/Graphics/SVG/1.1/DTD/svg11.dtd">
<!-- Generated by graphviz version 2.40.1 (20161225.0304)
 -->
<!-- Title: oneDegreeRelationshipsDiagram Pages: 1 -->
<svg width="256pt" height="184pt"
 viewBox="0.00 0.00 256.00 184.20" xmlns="http://www.w3.org/2000/svg" xmlns:xlink="http://www.w3.org/1999/xlink">
<g id="graph0" class="graph" transform="scale(1 1) rotate(0) translate(4 180.2)">
<title>oneDegreeRelationshipsDiagram</title>
<polygon fill="#ffffff" stroke="transparent" points="-4,4 -4,-180.2 252,-180.2 252,4 -4,4"/>
<text text-anchor="middle" x="72.4936" y="-7.3" font-family="Helvetica,sans-Serif" font-size="11.00" fill="#000000">Generated by SchemaSpy</text>
<!-- syndromic_surveillance -->
<g id="node1" class="node">
<title>syndromic_surveillance</title>
<g id="a_node1"><a xlink:href="../../tables/syndromic_surveillance.html" xlink:title="syndromic_surveillance" target="_top">
<polygon fill="#ffffff" stroke="transparent" points="8,-38.2 8,-172.2 240,-172.2 240,-38.2 8,-38.2"/>
<polygon fill="#f5f5f5" stroke="transparent" points="10,-147.2 10,-170.2 238,-170.2 238,-147.2 10,-147.2"/>
<polygon fill="none" stroke="#000000" points="10,-147.2 10,-170.2 238,-170.2 238,-147.2 10,-147.2"/>
<text text-anchor="start" x="15" y="-155.8" font-family="Helvetica,sans-Serif" font-weight="bold" font-size="11.00" fill="#000000">syndromic_surveillance</text>
<text text-anchor="start" x="203.0437" y="-155.3" font-family="Helvetica,sans-Serif" font-size="11.00" fill="#000000">[table]</text>
<polygon fill="none" stroke="#000000" points="10,-125.2 10,-147.2 171,-147.2 171,-125.2 10,-125.2"/>
<image xlink:href="../../images/primaryKeys.png" width="11px" height="12px" preserveAspectRatio="xMinYMin meet" x="15" y="-142.2"/>
<text text-anchor="start" x="30" y="-132.3" font-family="Helvetica,sans-Serif" font-size="11.00" fill="#000000">id</text>
<polygon fill="none" stroke="#000000" points="171,-125.2 171,-147.2 238,-147.2 238,-125.2 171,-125.2"/>
<text text-anchor="start" x="174" y="-132.9" font-family="Helvetica,sans-Serif" font-size="11.00" fill="#000000">bigint[19]</text>
<polygon fill="#ffffff" stroke="transparent" points="10,-103.2 10,-125.2 171,-125.2 171,-103.2 10,-103.2"/>
<polygon fill="none" stroke="#000000" points="10,-103.2 10,-125.2 171,-125.2 171,-103.2 10,-103.2"/>
<text text-anchor="start" x="30" y="-110.3" font-family="Helvetica,sans-Serif" font-size="11.00" fill="#000000">lists_id</text>
<polygon fill="none" stroke="#000000" points="171,-103.2 171,-125.2 238,-125.2 238,-103.2 171,-103.2"/>
<text text-anchor="start" x="174" y="-110.9" font-family="Helvetica,sans-Serif" font-size="11.00" fill="#000000">bigint[19]</text>
<polygon fill="none" stroke="#000000" points="10,-81.2 10,-103.2 171,-103.2 171,-81.2 10,-81.2"/>
<text text-anchor="start" x="30" y="-88.3" font-family="Helvetica,sans-Serif" font-size="11.00" fill="#000000">submission_date</text>
<polygon fill="none" stroke="#000000" points="171,-81.2 171,-103.2 238,-103.2 238,-81.2 171,-81.2"/>
<text text-anchor="start" x="174" y="-88.9" font-family="Helvetica,sans-Serif" font-size="11.00" fill="#000000">datetime[19]</text>
<polygon fill="none" stroke="#000000" points="10,-59.2 10,-81.2 171,-81.2 171,-59.2 10,-59.2"/>
<text text-anchor="start" x="30" y="-66.3" font-family="Helvetica,sans-Serif" font-size="11.00" fill="#000000">filename</text>
<polygon fill="none" stroke="#000000" points="171,-59.2 171,-81.2 238,-81.2 238,-59.2 171,-59.2"/>
<text text-anchor="start" x="173.9365" y="-66.9" font-family="Helvetica,sans-Serif" font-size="11.00" fill="#000000">varchar[255]</text>
<polygon fill="#ffffff" stroke="transparent" points="10,-40.2 10,-59.2 95,-59.2 95,-40.2 10,-40.2"/>
<polygon fill="none" stroke="#000000" points="10,-40.2 10,-59.2 95,-59.2 95,-40.2 10,-40.2"/>
<text text-anchor="start" x="13" y="-46.3" font-family="Helvetica,sans-Serif" font-size="11.00" fill="#000000">&lt; 0</text>
<polygon fill="#ffffff" stroke="transparent" points="95,-40.2 95,-59.2 171,-59.2 171,-40.2 95,-40.2"/>
<polygon fill="none" stroke="#000000" points="95,-40.2 95,-59.2 171,-59.2 171,-40.2 95,-40.2"/>
<text text-anchor="start" x="161.8862" y="-46.3" font-family="Helvetica,sans-Serif" font-size="11.00" fill="#000000"> &#160;</text>
<polygon fill="#ffffff" stroke="transparent" points="171,-40.2 171,-59.2 238,-59.2 238,-40.2 171,-40.2"/>
<polygon fill="none" stroke="#000000" points="171,-40.2 171,-59.2 238,-59.2 238,-40.2 171,-40.2"/>
<text text-anchor="start" x="219.4053" y="-46.3" font-family="Helvetica,sans-Serif" font-size="11.00" fill="#000000">0 &gt;</text>
<polygon fill="none" stroke="#000000" stroke-width="2" points="9,-39.2 9,-171.2 239,-171.2 239,-39.2 9,-39.2"/>
</a>
</g>
</g>
</g>
</svg>
