<?xml version="1.0" encoding="UTF-8" standalone="no"?>
<!DOCTYPE svg PUBLIC "-//W3C//DTD SVG 1.1//EN"
 "http://www.w3.org/Graphics/SVG/1.1/DTD/svg11.dtd">
<!-- Generated by graphviz version 2.40.1 (20161225.0304)
 -->
<!-- Title: oneDegreeRelationshipsDiagram Pages: 1 -->
<svg width="992pt" height="1103pt"
 viewBox="0.00 0.00 992.00 1103.20" xmlns="http://www.w3.org/2000/svg" xmlns:xlink="http://www.w3.org/1999/xlink">
<g id="graph0" class="graph" transform="scale(1 1) rotate(0) translate(4 1099.2)">
<title>oneDegreeRelationshipsDiagram</title>
<polygon fill="#ffffff" stroke="transparent" points="-4,4 -4,-1099.2 988,-1099.2 988,4 -4,4"/>
<text text-anchor="middle" x="72.4936" y="-7.3" font-family="Helvetica,sans-Serif" font-size="11.00" fill="#000000">Generated by SchemaSpy</text>
<!-- form_group_attendance -->
<g id="node1" class="node">
<title>form_group_attendance</title>
<g id="a_node1"><a xlink:href="../../tables/form_group_attendance.html" xlink:title="form_group_attendance" target="_top">
<polygon fill="#ffffff" stroke="transparent" points="794,-718.2 794,-889.2 976,-889.2 976,-718.2 794,-718.2"/>
<polygon fill="#f5f5f5" stroke="transparent" points="794,-865.7 794,-888.7 976,-888.7 976,-865.7 794,-865.7"/>
<polygon fill="none" stroke="#000000" points="794,-865.7 794,-888.7 976,-888.7 976,-865.7 794,-865.7"/>
<text text-anchor="start" x="799" y="-874.3" font-family="Helvetica,sans-Serif" font-weight="bold" font-size="11.00" fill="#000000">form_group_attendance</text>
<text text-anchor="start" x="941.5219" y="-873.8" font-family="Helvetica,sans-Serif" font-size="11.00" fill="#000000">[table]</text>
<polygon fill="none" stroke="#000000" points="794,-843.7 794,-865.7 976,-865.7 976,-843.7 794,-843.7"/>
<image xlink:href="../../images/primaryKeys.png" width="11px" height="12px" preserveAspectRatio="xMinYMin meet" x="799" y="-860.7"/>
<text text-anchor="start" x="823" y="-850.8" font-family="Helvetica,sans-Serif" font-size="11.00" fill="#000000">id</text>
<polygon fill="none" stroke="#000000" points="794,-821.7 794,-843.7 976,-843.7 976,-821.7 794,-821.7"/>
<image xlink:href="../../images/foreignKeys.png" width="11px" height="12px" preserveAspectRatio="xMinYMin meet" x="799" y="-838.7"/>
<text text-anchor="start" x="823" y="-828.8" font-family="Helvetica,sans-Serif" font-size="11.00" fill="#000000">group_id</text>
<polygon fill="none" stroke="#000000" points="794,-799.7 794,-821.7 976,-821.7 976,-799.7 794,-799.7"/>
<image xlink:href="../../images/foreignKeys.png" width="11px" height="12px" preserveAspectRatio="xMinYMin meet" x="799" y="-816.7"/>
<text text-anchor="start" x="823" y="-806.8" font-family="Helvetica,sans-Serif" font-size="11.00" fill="#000000">user</text>
<polygon fill="none" stroke="#000000" points="794,-777.7 794,-799.7 976,-799.7 976,-777.7 794,-777.7"/>
<image xlink:href="../../images/foreignKeys.png" width="11px" height="12px" preserveAspectRatio="xMinYMin meet" x="799" y="-794.7"/>
<text text-anchor="start" x="823" y="-784.8" font-family="Helvetica,sans-Serif" font-size="11.00" fill="#000000">groupname</text>
<polygon fill="none" stroke="#000000" points="794,-755.7 794,-777.7 976,-777.7 976,-755.7 794,-755.7"/>
<image xlink:href="../../images/foreignKeys.png" width="11px" height="12px" preserveAspectRatio="xMinYMin meet" x="799" y="-772.7"/>
<text text-anchor="start" x="823" y="-762.8" font-family="Helvetica,sans-Serif" font-size="11.00" fill="#000000">encounter_id</text>
<polygon fill="none" stroke="#000000" points="794,-736.7 794,-755.7 976,-755.7 976,-736.7 794,-736.7"/>
<text text-anchor="start" x="797" y="-742.8" font-family="Helvetica,sans-Serif" font-size="11.00" fill="#000000">...</text>
<polygon fill="#ffffff" stroke="transparent" points="794,-717.7 794,-736.7 879,-736.7 879,-717.7 794,-717.7"/>
<polygon fill="none" stroke="#000000" points="794,-717.7 794,-736.7 879,-736.7 879,-717.7 794,-717.7"/>
<text text-anchor="start" x="797" y="-723.8" font-family="Helvetica,sans-Serif" font-size="11.00" fill="#000000">&lt; 5</text>
<polygon fill="#ffffff" stroke="transparent" points="879,-717.7 879,-736.7 923,-736.7 923,-717.7 879,-717.7"/>
<polygon fill="none" stroke="#000000" points="879,-717.7 879,-736.7 923,-736.7 923,-717.7 879,-717.7"/>
<text text-anchor="start" x="913.8862" y="-723.8" font-family="Helvetica,sans-Serif" font-size="11.00" fill="#000000"> &#160;</text>
<polygon fill="#ffffff" stroke="transparent" points="923,-717.7 923,-736.7 976,-736.7 976,-717.7 923,-717.7"/>
<polygon fill="none" stroke="#000000" points="923,-717.7 923,-736.7 976,-736.7 976,-717.7 923,-717.7"/>
<text text-anchor="start" x="957.4053" y="-723.8" font-family="Helvetica,sans-Serif" font-size="11.00" fill="#000000">1 &gt;</text>
</a>
</g>
</g>
<!-- form_groups_encounter -->
<g id="node2" class="node">
<title>form_groups_encounter</title>
<g id="a_node2"><a xlink:href="../../tables/form_groups_encounter.html" xlink:title="form_groups_encounter" target="_top">
<polygon fill="#ffffff" stroke="transparent" points="563,-549.2 563,-808.2 745,-808.2 745,-549.2 563,-549.2"/>
<polygon fill="#f5f5f5" stroke="transparent" points="563,-784.7 563,-807.7 745,-807.7 745,-784.7 563,-784.7"/>
<polygon fill="none" stroke="#000000" points="563,-784.7 563,-807.7 745,-807.7 745,-784.7 563,-784.7"/>
<text text-anchor="start" x="568" y="-793.3" font-family="Helvetica,sans-Serif" font-weight="bold" font-size="11.00" fill="#000000">form_groups_encounter</text>
<text text-anchor="start" x="710.5219" y="-792.8" font-family="Helvetica,sans-Serif" font-size="11.00" fill="#000000">[table]</text>
<polygon fill="none" stroke="#000000" points="563,-762.7 563,-784.7 745,-784.7 745,-762.7 563,-762.7"/>
<image xlink:href="../../images/primaryKeys.png" width="11px" height="12px" preserveAspectRatio="xMinYMin meet" x="568" y="-779.7"/>
<text text-anchor="start" x="592" y="-769.8" font-family="Helvetica,sans-Serif" font-size="11.00" fill="#000000">id</text>
<polygon fill="#ffffff" stroke="transparent" points="563,-740.7 563,-762.7 745,-762.7 745,-740.7 563,-740.7"/>
<polygon fill="none" stroke="#000000" points="563,-740.7 563,-762.7 745,-762.7 745,-740.7 563,-740.7"/>
<text text-anchor="start" x="592" y="-747.8" font-family="Helvetica,sans-Serif" font-size="11.00" fill="#000000">date</text>
<polygon fill="none" stroke="#000000" points="563,-718.7 563,-740.7 745,-740.7 745,-718.7 563,-718.7"/>
<image xlink:href="../../images/foreignKeys.png" width="11px" height="12px" preserveAspectRatio="xMinYMin meet" x="568" y="-735.7"/>
<text text-anchor="start" x="592" y="-725.8" font-family="Helvetica,sans-Serif" font-size="11.00" fill="#000000">facility_id</text>
<polygon fill="#ffffff" stroke="transparent" points="563,-696.7 563,-718.7 745,-718.7 745,-696.7 563,-696.7"/>
<polygon fill="none" stroke="#000000" points="563,-696.7 563,-718.7 745,-718.7 745,-696.7 563,-696.7"/>
<image xlink:href="../../images/foreignKeys.png" width="11px" height="12px" preserveAspectRatio="xMinYMin meet" x="568" y="-713.7"/>
<text text-anchor="start" x="592" y="-703.8" font-family="Helvetica,sans-Serif" font-size="11.00" fill="#000000">group_id</text>
<polygon fill="none" stroke="#000000" points="563,-674.7 563,-696.7 745,-696.7 745,-674.7 563,-674.7"/>
<image xlink:href="../../images/primaryKeys.png" width="11px" height="12px" preserveAspectRatio="xMinYMin meet" x="568" y="-691.7"/>
<text text-anchor="start" x="592" y="-681.8" font-family="Helvetica,sans-Serif" font-size="11.00" fill="#000000">encounter</text>
<polygon fill="none" stroke="#000000" points="563,-652.7 563,-674.7 745,-674.7 745,-652.7 563,-652.7"/>
<image xlink:href="../../images/foreignKeys.png" width="11px" height="12px" preserveAspectRatio="xMinYMin meet" x="568" y="-669.7"/>
<text text-anchor="start" x="592" y="-659.8" font-family="Helvetica,sans-Serif" font-size="11.00" fill="#000000">pc_catid</text>
<polygon fill="none" stroke="#000000" points="563,-630.7 563,-652.7 745,-652.7 745,-630.7 563,-630.7"/>
<image xlink:href="../../images/foreignKeys.png" width="11px" height="12px" preserveAspectRatio="xMinYMin meet" x="568" y="-647.7"/>
<text text-anchor="start" x="592" y="-637.8" font-family="Helvetica,sans-Serif" font-size="11.00" fill="#000000">provider_id</text>
<polygon fill="none" stroke="#000000" points="563,-608.7 563,-630.7 745,-630.7 745,-608.7 563,-608.7"/>
<image xlink:href="../../images/foreignKeys.png" width="11px" height="12px" preserveAspectRatio="xMinYMin meet" x="568" y="-625.7"/>
<text text-anchor="start" x="592" y="-615.8" font-family="Helvetica,sans-Serif" font-size="11.00" fill="#000000">supervisor_id</text>
<polygon fill="none" stroke="#000000" points="563,-586.7 563,-608.7 745,-608.7 745,-586.7 563,-586.7"/>
<image xlink:href="../../images/foreignKeys.png" width="11px" height="12px" preserveAspectRatio="xMinYMin meet" x="568" y="-603.7"/>
<text text-anchor="start" x="592" y="-593.8" font-family="Helvetica,sans-Serif" font-size="11.00" fill="#000000">appt_id</text>
<polygon fill="none" stroke="#000000" points="563,-567.7 563,-586.7 745,-586.7 745,-567.7 563,-567.7"/>
<text text-anchor="start" x="566" y="-573.8" font-family="Helvetica,sans-Serif" font-size="11.00" fill="#000000">...</text>
<polygon fill="#ffffff" stroke="transparent" points="563,-548.7 563,-567.7 648,-567.7 648,-548.7 563,-548.7"/>
<polygon fill="none" stroke="#000000" points="563,-548.7 563,-567.7 648,-567.7 648,-548.7 563,-548.7"/>
<text text-anchor="start" x="566" y="-554.8" font-family="Helvetica,sans-Serif" font-size="11.00" fill="#000000">&lt; 7</text>
<polygon fill="#ffffff" stroke="transparent" points="648,-548.7 648,-567.7 692,-567.7 692,-548.7 648,-548.7"/>
<polygon fill="none" stroke="#000000" points="648,-548.7 648,-567.7 692,-567.7 692,-548.7 648,-548.7"/>
<text text-anchor="start" x="682.8862" y="-554.8" font-family="Helvetica,sans-Serif" font-size="11.00" fill="#000000"> &#160;</text>
<polygon fill="#ffffff" stroke="transparent" points="692,-548.7 692,-567.7 745,-567.7 745,-548.7 692,-548.7"/>
<polygon fill="none" stroke="#000000" points="692,-548.7 692,-567.7 745,-567.7 745,-548.7 692,-548.7"/>
<text text-anchor="start" x="726.4053" y="-554.8" font-family="Helvetica,sans-Serif" font-size="11.00" fill="#000000">1 &gt;</text>
</a>
</g>
</g>
<!-- form_group_attendance&#45;&gt;form_groups_encounter -->
<g id="edge1" class="edge">
<title>form_group_attendance:w&#45;&gt;form_groups_encounter:e</title>
<path fill="none" stroke="#000000" d="M780.1299,-762.113C760.4726,-744.978 780.9935,-685.7 745,-685.7"/>
<polygon fill="#000000" stroke="#000000" points="786.4046,-764.1881 792.8696,-770.1179 790.2023,-765.444 794,-766.7 794,-766.7 794,-766.7 790.2023,-765.444 795.1304,-763.2821 786.4046,-764.1881 786.4046,-764.1881"/>
<ellipse fill="none" stroke="#000000" cx="783.3664" cy="-763.1833" rx="3.2" ry="3.2"/>
</g>
<!-- therapy_groups -->
<g id="node3" class="node">
<title>therapy_groups</title>
<g id="a_node3"><a xlink:href="../../tables/therapy_groups.html" xlink:title="therapy_groups" target="_top">
<polygon fill="#ffffff" stroke="transparent" points="8,-427.7 8,-693.7 244,-693.7 244,-427.7 8,-427.7"/>
<polygon fill="#f5f5f5" stroke="transparent" points="10,-668.7 10,-691.7 242,-691.7 242,-668.7 10,-668.7"/>
<polygon fill="none" stroke="#000000" points="10,-668.7 10,-691.7 242,-691.7 242,-668.7 10,-668.7"/>
<text text-anchor="start" x="15" y="-677.3" font-family="Helvetica,sans-Serif" font-weight="bold" font-size="11.00" fill="#000000">therapy_groups</text>
<text text-anchor="start" x="207.0437" y="-676.8" font-family="Helvetica,sans-Serif" font-size="11.00" fill="#000000">[table]</text>
<polygon fill="none" stroke="#000000" points="10,-646.7 10,-668.7 175,-668.7 175,-646.7 10,-646.7"/>
<image xlink:href="../../images/primaryKeys.png" width="11px" height="12px" preserveAspectRatio="xMinYMin meet" x="15" y="-663.7"/>
<text text-anchor="start" x="30" y="-653.8" font-family="Helvetica,sans-Serif" font-size="11.00" fill="#000000">group_id</text>
<polygon fill="none" stroke="#000000" points="175,-646.7 175,-668.7 242,-668.7 242,-646.7 175,-646.7"/>
<text text-anchor="start" x="178" y="-654.4" font-family="Helvetica,sans-Serif" font-size="11.00" fill="#000000">int[10]</text>
<polygon fill="none" stroke="#000000" points="10,-624.7 10,-646.7 175,-646.7 175,-624.7 10,-624.7"/>
<text text-anchor="start" x="30" y="-631.8" font-family="Helvetica,sans-Serif" font-size="11.00" fill="#000000">group_name</text>
<polygon fill="none" stroke="#000000" points="175,-624.7 175,-646.7 242,-646.7 242,-624.7 175,-624.7"/>
<text text-anchor="start" x="177.9365" y="-632.4" font-family="Helvetica,sans-Serif" font-size="11.00" fill="#000000">varchar[255]</text>
<polygon fill="none" stroke="#000000" points="10,-602.7 10,-624.7 175,-624.7 175,-602.7 10,-602.7"/>
<text text-anchor="start" x="30" y="-609.8" font-family="Helvetica,sans-Serif" font-size="11.00" fill="#000000">group_start_date</text>
<polygon fill="none" stroke="#000000" points="175,-602.7 175,-624.7 242,-624.7 242,-602.7 175,-602.7"/>
<text text-anchor="start" x="178" y="-610.4" font-family="Helvetica,sans-Serif" font-size="11.00" fill="#000000">date[10]</text>
<polygon fill="none" stroke="#000000" points="10,-580.7 10,-602.7 175,-602.7 175,-580.7 10,-580.7"/>
<text text-anchor="start" x="30" y="-587.8" font-family="Helvetica,sans-Serif" font-size="11.00" fill="#000000">group_end_date</text>
<polygon fill="none" stroke="#000000" points="175,-580.7 175,-602.7 242,-602.7 242,-580.7 175,-580.7"/>
<text text-anchor="start" x="178" y="-588.4" font-family="Helvetica,sans-Serif" font-size="11.00" fill="#000000">date[10]</text>
<polygon fill="none" stroke="#000000" points="10,-558.7 10,-580.7 175,-580.7 175,-558.7 10,-558.7"/>
<text text-anchor="start" x="30" y="-565.8" font-family="Helvetica,sans-Serif" font-size="11.00" fill="#000000">group_type</text>
<polygon fill="none" stroke="#000000" points="175,-558.7 175,-580.7 242,-580.7 242,-558.7 175,-558.7"/>
<text text-anchor="start" x="178" y="-566.4" font-family="Helvetica,sans-Serif" font-size="11.00" fill="#000000">tinyint[3]</text>
<polygon fill="none" stroke="#000000" points="10,-536.7 10,-558.7 175,-558.7 175,-536.7 10,-536.7"/>
<text text-anchor="start" x="30" y="-543.8" font-family="Helvetica,sans-Serif" font-size="11.00" fill="#000000">group_participation</text>
<polygon fill="none" stroke="#000000" points="175,-536.7 175,-558.7 242,-558.7 242,-536.7 175,-536.7"/>
<text text-anchor="start" x="178" y="-544.4" font-family="Helvetica,sans-Serif" font-size="11.00" fill="#000000">tinyint[3]</text>
<polygon fill="none" stroke="#000000" points="10,-514.7 10,-536.7 175,-536.7 175,-514.7 10,-514.7"/>
<text text-anchor="start" x="30" y="-521.8" font-family="Helvetica,sans-Serif" font-size="11.00" fill="#000000">group_status</text>
<polygon fill="none" stroke="#000000" points="175,-514.7 175,-536.7 242,-536.7 242,-514.7 175,-514.7"/>
<text text-anchor="start" x="178" y="-522.4" font-family="Helvetica,sans-Serif" font-size="11.00" fill="#000000">int[10]</text>
<polygon fill="none" stroke="#000000" points="10,-492.7 10,-514.7 175,-514.7 175,-492.7 10,-492.7"/>
<text text-anchor="start" x="30" y="-499.8" font-family="Helvetica,sans-Serif" font-size="11.00" fill="#000000">group_notes</text>
<polygon fill="none" stroke="#000000" points="175,-492.7 175,-514.7 242,-514.7 242,-492.7 175,-492.7"/>
<text text-anchor="start" x="178" y="-500.4" font-family="Helvetica,sans-Serif" font-size="11.00" fill="#000000">text[65535]</text>
<polygon fill="none" stroke="#000000" points="10,-470.7 10,-492.7 175,-492.7 175,-470.7 10,-470.7"/>
<text text-anchor="start" x="30" y="-477.8" font-family="Helvetica,sans-Serif" font-size="11.00" fill="#000000">group_guest_counselors</text>
<polygon fill="none" stroke="#000000" points="175,-470.7 175,-492.7 242,-492.7 242,-470.7 175,-470.7"/>
<text text-anchor="start" x="177.9365" y="-478.4" font-family="Helvetica,sans-Serif" font-size="11.00" fill="#000000">varchar[255]</text>
<polygon fill="none" stroke="#000000" points="10,-448.7 10,-470.7 175,-470.7 175,-448.7 10,-448.7"/>
<text text-anchor="start" x="30" y="-455.8" font-family="Helvetica,sans-Serif" font-size="11.00" fill="#000000">name</text>
<polygon fill="none" stroke="#000000" points="175,-448.7 175,-470.7 242,-470.7 242,-448.7 175,-448.7"/>
<text text-anchor="start" x="178" y="-456.4" font-family="Helvetica,sans-Serif" font-size="11.00" fill="#000000">unknown[0]</text>
<polygon fill="#ffffff" stroke="transparent" points="10,-429.7 10,-448.7 97,-448.7 97,-429.7 10,-429.7"/>
<polygon fill="none" stroke="#000000" points="10,-429.7 10,-448.7 97,-448.7 97,-429.7 10,-429.7"/>
<text text-anchor="start" x="13" y="-435.8" font-family="Helvetica,sans-Serif" font-size="11.00" fill="#000000">&lt; 0</text>
<polygon fill="#ffffff" stroke="transparent" points="97,-429.7 97,-448.7 175,-448.7 175,-429.7 97,-429.7"/>
<polygon fill="none" stroke="#000000" points="97,-429.7 97,-448.7 175,-448.7 175,-429.7 97,-429.7"/>
<text text-anchor="start" x="165.8862" y="-435.8" font-family="Helvetica,sans-Serif" font-size="11.00" fill="#000000"> &#160;</text>
<polygon fill="#ffffff" stroke="transparent" points="175,-429.7 175,-448.7 242,-448.7 242,-429.7 175,-429.7"/>
<polygon fill="none" stroke="#000000" points="175,-429.7 175,-448.7 242,-448.7 242,-429.7 175,-429.7"/>
<text text-anchor="start" x="223.4053" y="-435.8" font-family="Helvetica,sans-Serif" font-size="11.00" fill="#000000">6 &gt;</text>
<polygon fill="none" stroke="#000000" stroke-width="2" points="9,-428.7 9,-692.7 243,-692.7 243,-428.7 9,-428.7"/>
</a>
</g>
</g>
<!-- form_group_attendance&#45;&gt;therapy_groups -->
<g id="edge2" class="edge">
<title>form_group_attendance:w&#45;&gt;therapy_groups:e</title>
<path fill="none" stroke="#000000" d="M779.5395,-832.7236C684.8272,-833.0256 654.9569,-835.845 555,-818.7 431.8908,-797.5838 381.5711,-819.92 285,-740.7 252.8794,-714.3506 283.5455,-657.7 242,-657.7"/>
<polygon fill="#000000" stroke="#000000" points="786,-832.7131 794.0059,-836.3 790,-832.7066 794,-832.7 794,-832.7 794,-832.7 790,-832.7066 793.9941,-829.1 786,-832.7131 786,-832.7131"/>
<ellipse fill="none" stroke="#000000" cx="782.8" cy="-832.7184" rx="3.2" ry="3.2"/>
</g>
<!-- forms -->
<g id="node4" class="node">
<title>forms</title>
<g id="a_node4"><a xlink:href="../../tables/forms.html" xlink:title="forms" target="_top">
<polygon fill="#ffffff" stroke="transparent" points="341,-832.2 341,-1091.2 466,-1091.2 466,-832.2 341,-832.2"/>
<polygon fill="#f5f5f5" stroke="transparent" points="341.5,-1067.7 341.5,-1090.7 466.5,-1090.7 466.5,-1067.7 341.5,-1067.7"/>
<polygon fill="none" stroke="#000000" points="341.5,-1067.7 341.5,-1090.7 466.5,-1090.7 466.5,-1067.7 341.5,-1067.7"/>
<text text-anchor="start" x="346.5" y="-1076.3" font-family="Helvetica,sans-Serif" font-weight="bold" font-size="11.00" fill="#000000">forms</text>
<text text-anchor="start" x="431.5437" y="-1075.8" font-family="Helvetica,sans-Serif" font-size="11.00" fill="#000000">[table]</text>
<polygon fill="none" stroke="#000000" points="341.5,-1045.7 341.5,-1067.7 466.5,-1067.7 466.5,-1045.7 341.5,-1045.7"/>
<image xlink:href="../../images/primaryKeys.png" width="11px" height="12px" preserveAspectRatio="xMinYMin meet" x="346.5" y="-1062.7"/>
<text text-anchor="start" x="361.5" y="-1052.8" font-family="Helvetica,sans-Serif" font-size="11.00" fill="#000000">id</text>
<polygon fill="#ffffff" stroke="transparent" points="341.5,-1023.7 341.5,-1045.7 466.5,-1045.7 466.5,-1023.7 341.5,-1023.7"/>
<polygon fill="none" stroke="#000000" points="341.5,-1023.7 341.5,-1045.7 466.5,-1045.7 466.5,-1023.7 341.5,-1023.7"/>
<text text-anchor="start" x="361.5" y="-1030.8" font-family="Helvetica,sans-Serif" font-size="11.00" fill="#000000">encounter</text>
<polygon fill="none" stroke="#000000" points="341.5,-1001.7 341.5,-1023.7 466.5,-1023.7 466.5,-1001.7 341.5,-1001.7"/>
<image xlink:href="../../images/primaryKeys.png" width="11px" height="12px" preserveAspectRatio="xMinYMin meet" x="346.5" y="-1018.7"/>
<text text-anchor="start" x="361.5" y="-1008.8" font-family="Helvetica,sans-Serif" font-size="11.00" fill="#000000">form_id</text>
<polygon fill="#ffffff" stroke="transparent" points="341.5,-979.7 341.5,-1001.7 466.5,-1001.7 466.5,-979.7 341.5,-979.7"/>
<polygon fill="none" stroke="#000000" points="341.5,-979.7 341.5,-1001.7 466.5,-1001.7 466.5,-979.7 341.5,-979.7"/>
<image xlink:href="../../images/foreignKeys.png" width="11px" height="12px" preserveAspectRatio="xMinYMin meet" x="346.5" y="-996.7"/>
<text text-anchor="start" x="361.5" y="-986.8" font-family="Helvetica,sans-Serif" font-size="11.00" fill="#000000">pid</text>
<polygon fill="none" stroke="#000000" points="341.5,-957.7 341.5,-979.7 466.5,-979.7 466.5,-957.7 341.5,-957.7"/>
<image xlink:href="../../images/foreignKeys.png" width="11px" height="12px" preserveAspectRatio="xMinYMin meet" x="346.5" y="-974.7"/>
<text text-anchor="start" x="361.5" y="-964.8" font-family="Helvetica,sans-Serif" font-size="11.00" fill="#000000">user</text>
<polygon fill="none" stroke="#000000" points="341.5,-935.7 341.5,-957.7 466.5,-957.7 466.5,-935.7 341.5,-935.7"/>
<image xlink:href="../../images/foreignKeys.png" width="11px" height="12px" preserveAspectRatio="xMinYMin meet" x="346.5" y="-952.7"/>
<text text-anchor="start" x="361.5" y="-942.8" font-family="Helvetica,sans-Serif" font-size="11.00" fill="#000000">groupname</text>
<polygon fill="none" stroke="#000000" points="341.5,-913.7 341.5,-935.7 466.5,-935.7 466.5,-913.7 341.5,-913.7"/>
<image xlink:href="../../images/foreignKeys.png" width="11px" height="12px" preserveAspectRatio="xMinYMin meet" x="346.5" y="-930.7"/>
<text text-anchor="start" x="361.5" y="-920.8" font-family="Helvetica,sans-Serif" font-size="11.00" fill="#000000">therapy_group_id</text>
<polygon fill="none" stroke="#000000" points="341.5,-891.7 341.5,-913.7 466.5,-913.7 466.5,-891.7 341.5,-891.7"/>
<image xlink:href="../../images/foreignKeys.png" width="11px" height="12px" preserveAspectRatio="xMinYMin meet" x="346.5" y="-908.7"/>
<text text-anchor="start" x="361.5" y="-898.8" font-family="Helvetica,sans-Serif" font-size="11.00" fill="#000000">issue_id</text>
<polygon fill="none" stroke="#000000" points="341.5,-869.7 341.5,-891.7 466.5,-891.7 466.5,-869.7 341.5,-869.7"/>
<image xlink:href="../../images/foreignKeys.png" width="11px" height="12px" preserveAspectRatio="xMinYMin meet" x="346.5" y="-886.7"/>
<text text-anchor="start" x="361.5" y="-876.8" font-family="Helvetica,sans-Serif" font-size="11.00" fill="#000000">provider_id</text>
<polygon fill="none" stroke="#000000" points="341.5,-850.7 341.5,-869.7 466.5,-869.7 466.5,-850.7 341.5,-850.7"/>
<text text-anchor="start" x="344.5" y="-856.8" font-family="Helvetica,sans-Serif" font-size="11.00" fill="#000000">...</text>
<polygon fill="#ffffff" stroke="transparent" points="341.5,-831.7 341.5,-850.7 394.5,-850.7 394.5,-831.7 341.5,-831.7"/>
<polygon fill="none" stroke="#000000" points="341.5,-831.7 341.5,-850.7 394.5,-850.7 394.5,-831.7 341.5,-831.7"/>
<text text-anchor="start" x="344.5" y="-837.8" font-family="Helvetica,sans-Serif" font-size="11.00" fill="#000000">&lt; 6</text>
<polygon fill="#ffffff" stroke="transparent" points="394.5,-831.7 394.5,-850.7 422.5,-850.7 422.5,-831.7 394.5,-831.7"/>
<polygon fill="none" stroke="#000000" points="394.5,-831.7 394.5,-850.7 422.5,-850.7 422.5,-831.7 394.5,-831.7"/>
<text text-anchor="start" x="413.3862" y="-837.8" font-family="Helvetica,sans-Serif" font-size="11.00" fill="#000000"> &#160;</text>
<polygon fill="#ffffff" stroke="transparent" points="422.5,-831.7 422.5,-850.7 466.5,-850.7 466.5,-831.7 422.5,-831.7"/>
<polygon fill="none" stroke="#000000" points="422.5,-831.7 422.5,-850.7 466.5,-850.7 466.5,-831.7 422.5,-831.7"/>
<text text-anchor="start" x="441.7904" y="-837.8" font-family="Helvetica,sans-Serif" font-size="11.00" fill="#000000">14 &gt;</text>
</a>
</g>
</g>
<!-- form_group_attendance&#45;&gt;forms -->
<g id="edge3" class="edge">
<title>form_group_attendance:w&#45;&gt;forms:e</title>
<path fill="none" stroke="#000000" d="M783.3449,-854.9355C632.119,-861.7179 624.4794,-1012.7 466.5,-1012.7"/>
<polygon fill="#000000" stroke="#000000" points="793.1118,-850.7187 793.2886,-858.7167 791.689,-858.7521 791.5121,-850.754 793.1118,-850.7187"/>
<polyline fill="none" stroke="#000000" points="794,-854.7 790.001,-854.7884 "/>
<ellipse fill="none" stroke="#000000" cx="786.8018" cy="-854.8592" rx="3.2" ry="3.2"/>
</g>
<!-- form_groups_encounter&#45;&gt;therapy_groups -->
<g id="edge5" class="edge">
<title>form_groups_encounter:w&#45;&gt;therapy_groups:e</title>
<path fill="none" stroke="#000000" d="M548.6445,-709.6525C540.3846,-712.1057 534.6574,-716.1787 522,-717.7 417.4193,-730.2695 378.6969,-765.8248 285,-717.7 255.8166,-702.7108 274.8077,-657.7 242,-657.7"/>
<polygon fill="#000000" stroke="#000000" points="555.073,-708.7782 563.4852,-711.2672 559.0365,-708.2391 563,-707.7 563,-707.7 563,-707.7 559.0365,-708.2391 562.5148,-704.1328 555.073,-708.7782 555.073,-708.7782"/>
<ellipse fill="none" stroke="#000000" cx="551.9022" cy="-709.2095" rx="3.2" ry="3.2"/>
</g>
<!-- form_groups_encounter&#45;&gt;forms -->
<g id="edge6" class="edge">
<title>form_groups_encounter:w&#45;&gt;forms:e</title>
<path fill="none" stroke="#000000" d="M552.3887,-774.473C456.9795,-789.3076 577.2504,-1012.7 466.5,-1012.7"/>
<polygon fill="#000000" stroke="#000000" points="561.9115,-769.7687 562.4928,-777.7476 560.897,-777.8638 560.3157,-769.885 561.9115,-769.7687"/>
<polyline fill="none" stroke="#000000" points="563,-773.7 559.0106,-773.9906 "/>
<ellipse fill="none" stroke="#000000" cx="555.819" cy="-774.2231" rx="3.2" ry="3.2"/>
</g>
<!-- openemr_postcalendar_events -->
<g id="node5" class="node">
<title>openemr_postcalendar_events</title>
<g id="a_node5"><a xlink:href="../../tables/openemr_postcalendar_events.html" xlink:title="openemr_postcalendar_events" target="_top">
<polygon fill="#ffffff" stroke="transparent" points="293,-272.2 293,-707.2 514,-707.2 514,-272.2 293,-272.2"/>
<polygon fill="#f5f5f5" stroke="transparent" points="293.5,-683.7 293.5,-706.7 514.5,-706.7 514.5,-683.7 293.5,-683.7"/>
<polygon fill="none" stroke="#000000" points="293.5,-683.7 293.5,-706.7 514.5,-706.7 514.5,-683.7 293.5,-683.7"/>
<text text-anchor="start" x="298.5" y="-692.3" font-family="Helvetica,sans-Serif" font-weight="bold" font-size="11.00" fill="#000000">openemr_postcalendar_events</text>
<text text-anchor="start" x="480.0219" y="-691.8" font-family="Helvetica,sans-Serif" font-size="11.00" fill="#000000">[table]</text>
<polygon fill="none" stroke="#000000" points="293.5,-661.7 293.5,-683.7 514.5,-683.7 514.5,-661.7 293.5,-661.7"/>
<image xlink:href="../../images/primaryKeys.png" width="11px" height="12px" preserveAspectRatio="xMinYMin meet" x="298.5" y="-678.7"/>
<text text-anchor="start" x="322.5" y="-668.8" font-family="Helvetica,sans-Serif" font-size="11.00" fill="#000000">pc_eid</text>
<polygon fill="#ffffff" stroke="transparent" points="293.5,-639.7 293.5,-661.7 514.5,-661.7 514.5,-639.7 293.5,-639.7"/>
<polygon fill="none" stroke="#000000" points="293.5,-639.7 293.5,-661.7 514.5,-661.7 514.5,-639.7 293.5,-639.7"/>
<image xlink:href="../../images/foreignKeys.png" width="11px" height="12px" preserveAspectRatio="xMinYMin meet" x="298.5" y="-656.7"/>
<text text-anchor="start" x="322.5" y="-646.8" font-family="Helvetica,sans-Serif" font-size="11.00" fill="#000000">pc_catid</text>
<polygon fill="#ffffff" stroke="transparent" points="293.5,-617.7 293.5,-639.7 514.5,-639.7 514.5,-617.7 293.5,-617.7"/>
<polygon fill="none" stroke="#000000" points="293.5,-617.7 293.5,-639.7 514.5,-639.7 514.5,-617.7 293.5,-617.7"/>
<image xlink:href="../../images/foreignKeys.png" width="11px" height="12px" preserveAspectRatio="xMinYMin meet" x="298.5" y="-634.7"/>
<text text-anchor="start" x="322.5" y="-624.8" font-family="Helvetica,sans-Serif" font-size="11.00" fill="#000000">pc_aid</text>
<polygon fill="none" stroke="#000000" points="293.5,-595.7 293.5,-617.7 514.5,-617.7 514.5,-595.7 293.5,-595.7"/>
<image xlink:href="../../images/foreignKeys.png" width="11px" height="12px" preserveAspectRatio="xMinYMin meet" x="298.5" y="-612.7"/>
<text text-anchor="start" x="322.5" y="-602.8" font-family="Helvetica,sans-Serif" font-size="11.00" fill="#000000">pc_pid</text>
<polygon fill="none" stroke="#000000" points="293.5,-573.7 293.5,-595.7 514.5,-595.7 514.5,-573.7 293.5,-573.7"/>
<image xlink:href="../../images/foreignKeys.png" width="11px" height="12px" preserveAspectRatio="xMinYMin meet" x="298.5" y="-590.7"/>
<text text-anchor="start" x="322.5" y="-580.8" font-family="Helvetica,sans-Serif" font-size="11.00" fill="#000000">pc_gid</text>
<polygon fill="#ffffff" stroke="transparent" points="293.5,-551.7 293.5,-573.7 514.5,-573.7 514.5,-551.7 293.5,-551.7"/>
<polygon fill="none" stroke="#000000" points="293.5,-551.7 293.5,-573.7 514.5,-573.7 514.5,-551.7 293.5,-551.7"/>
<text text-anchor="start" x="322.5" y="-558.8" font-family="Helvetica,sans-Serif" font-size="11.00" fill="#000000">pc_topic</text>
<polygon fill="none" stroke="#000000" points="293.5,-529.7 293.5,-551.7 514.5,-551.7 514.5,-529.7 293.5,-529.7"/>
<image xlink:href="../../images/foreignKeys.png" width="11px" height="12px" preserveAspectRatio="xMinYMin meet" x="298.5" y="-546.7"/>
<text text-anchor="start" x="322.5" y="-536.8" font-family="Helvetica,sans-Serif" font-size="11.00" fill="#000000">pc_informant</text>
<polygon fill="#ffffff" stroke="transparent" points="293.5,-507.7 293.5,-529.7 514.5,-529.7 514.5,-507.7 293.5,-507.7"/>
<polygon fill="none" stroke="#000000" points="293.5,-507.7 293.5,-529.7 514.5,-529.7 514.5,-507.7 293.5,-507.7"/>
<text text-anchor="start" x="322.5" y="-514.8" font-family="Helvetica,sans-Serif" font-size="11.00" fill="#000000">pc_eventDate</text>
<polygon fill="#ffffff" stroke="transparent" points="293.5,-485.7 293.5,-507.7 514.5,-507.7 514.5,-485.7 293.5,-485.7"/>
<polygon fill="none" stroke="#000000" points="293.5,-485.7 293.5,-507.7 514.5,-507.7 514.5,-485.7 293.5,-485.7"/>
<text text-anchor="start" x="322.5" y="-492.8" font-family="Helvetica,sans-Serif" font-size="11.00" fill="#000000">pc_endDate</text>
<polygon fill="#ffffff" stroke="transparent" points="293.5,-463.7 293.5,-485.7 514.5,-485.7 514.5,-463.7 293.5,-463.7"/>
<polygon fill="none" stroke="#000000" points="293.5,-463.7 293.5,-485.7 514.5,-485.7 514.5,-463.7 293.5,-463.7"/>
<text text-anchor="start" x="322.5" y="-470.8" font-family="Helvetica,sans-Serif" font-size="11.00" fill="#000000">pc_eventstatus</text>
<polygon fill="#ffffff" stroke="transparent" points="293.5,-441.7 293.5,-463.7 514.5,-463.7 514.5,-441.7 293.5,-441.7"/>
<polygon fill="none" stroke="#000000" points="293.5,-441.7 293.5,-463.7 514.5,-463.7 514.5,-441.7 293.5,-441.7"/>
<text text-anchor="start" x="322.5" y="-448.8" font-family="Helvetica,sans-Serif" font-size="11.00" fill="#000000">pc_sharing</text>
<polygon fill="none" stroke="#000000" points="293.5,-419.7 293.5,-441.7 514.5,-441.7 514.5,-419.7 293.5,-419.7"/>
<image xlink:href="../../images/foreignKeys.png" width="11px" height="12px" preserveAspectRatio="xMinYMin meet" x="298.5" y="-436.7"/>
<text text-anchor="start" x="322.5" y="-426.8" font-family="Helvetica,sans-Serif" font-size="11.00" fill="#000000">pc_apptstatus</text>
<polygon fill="none" stroke="#000000" points="293.5,-397.7 293.5,-419.7 514.5,-419.7 514.5,-397.7 293.5,-397.7"/>
<image xlink:href="../../images/foreignKeys.png" width="11px" height="12px" preserveAspectRatio="xMinYMin meet" x="298.5" y="-414.7"/>
<text text-anchor="start" x="322.5" y="-404.8" font-family="Helvetica,sans-Serif" font-size="11.00" fill="#000000">pc_prefcatid</text>
<polygon fill="none" stroke="#000000" points="293.5,-375.7 293.5,-397.7 514.5,-397.7 514.5,-375.7 293.5,-375.7"/>
<image xlink:href="../../images/foreignKeys.png" width="11px" height="12px" preserveAspectRatio="xMinYMin meet" x="298.5" y="-392.7"/>
<text text-anchor="start" x="322.5" y="-382.8" font-family="Helvetica,sans-Serif" font-size="11.00" fill="#000000">pc_facility</text>
<polygon fill="none" stroke="#000000" points="293.5,-353.7 293.5,-375.7 514.5,-375.7 514.5,-353.7 293.5,-353.7"/>
<image xlink:href="../../images/foreignKeys.png" width="11px" height="12px" preserveAspectRatio="xMinYMin meet" x="298.5" y="-370.7"/>
<text text-anchor="start" x="322.5" y="-360.8" font-family="Helvetica,sans-Serif" font-size="11.00" fill="#000000">pc_billing_location</text>
<polygon fill="none" stroke="#000000" points="293.5,-331.7 293.5,-353.7 514.5,-353.7 514.5,-331.7 293.5,-331.7"/>
<image xlink:href="../../images/foreignKeys.png" width="11px" height="12px" preserveAspectRatio="xMinYMin meet" x="298.5" y="-348.7"/>
<text text-anchor="start" x="322.5" y="-338.8" font-family="Helvetica,sans-Serif" font-size="11.00" fill="#000000">pc_room</text>
<polygon fill="#ffffff" stroke="transparent" points="293.5,-309.7 293.5,-331.7 514.5,-331.7 514.5,-309.7 293.5,-309.7"/>
<polygon fill="none" stroke="#000000" points="293.5,-309.7 293.5,-331.7 514.5,-331.7 514.5,-309.7 293.5,-309.7"/>
<text text-anchor="start" x="322.5" y="-316.8" font-family="Helvetica,sans-Serif" font-size="11.00" fill="#000000">uuid</text>
<polygon fill="none" stroke="#000000" points="293.5,-290.7 293.5,-309.7 514.5,-309.7 514.5,-290.7 293.5,-290.7"/>
<text text-anchor="start" x="296.5" y="-296.8" font-family="Helvetica,sans-Serif" font-size="11.00" fill="#000000">...</text>
<polygon fill="#ffffff" stroke="transparent" points="293.5,-271.7 293.5,-290.7 400.5,-290.7 400.5,-271.7 293.5,-271.7"/>
<polygon fill="none" stroke="#000000" points="293.5,-271.7 293.5,-290.7 400.5,-290.7 400.5,-271.7 293.5,-271.7"/>
<text text-anchor="start" x="296.5" y="-277.8" font-family="Helvetica,sans-Serif" font-size="11.00" fill="#000000">&lt; 10</text>
<polygon fill="#ffffff" stroke="transparent" points="400.5,-271.7 400.5,-290.7 452.5,-290.7 452.5,-271.7 400.5,-271.7"/>
<polygon fill="none" stroke="#000000" points="400.5,-271.7 400.5,-290.7 452.5,-290.7 452.5,-271.7 400.5,-271.7"/>
<text text-anchor="start" x="443.3862" y="-277.8" font-family="Helvetica,sans-Serif" font-size="11.00" fill="#000000"> &#160;</text>
<polygon fill="#ffffff" stroke="transparent" points="452.5,-271.7 452.5,-290.7 514.5,-290.7 514.5,-271.7 452.5,-271.7"/>
<polygon fill="none" stroke="#000000" points="452.5,-271.7 452.5,-290.7 514.5,-290.7 514.5,-271.7 452.5,-271.7"/>
<text text-anchor="start" x="495.9053" y="-277.8" font-family="Helvetica,sans-Serif" font-size="11.00" fill="#000000">2 &gt;</text>
</a>
</g>
</g>
<!-- form_groups_encounter&#45;&gt;openemr_postcalendar_events -->
<g id="edge4" class="edge">
<title>form_groups_encounter:w&#45;&gt;openemr_postcalendar_events:e</title>
<path fill="none" stroke="#000000" d="M549.2733,-602.3916C531.0783,-618.8109 548.1484,-672.7 514.5,-672.7"/>
<polygon fill="#000000" stroke="#000000" points="555.4299,-600.2874 564.1643,-601.1065 559.215,-598.9937 563,-597.7 563,-597.7 563,-597.7 559.215,-598.9937 561.8357,-594.2935 555.4299,-600.2874 555.4299,-600.2874"/>
<ellipse fill="none" stroke="#000000" cx="552.4019" cy="-601.3223" rx="3.2" ry="3.2"/>
</g>
<!-- forms&#45;&gt;therapy_groups -->
<g id="edge7" class="edge">
<title>forms:w&#45;&gt;therapy_groups:e</title>
<path fill="none" stroke="#000000" d="M327.1902,-923.0048C290.7842,-913.2045 302.6604,-862.6732 285,-817.7 258.0855,-749.1607 315.6344,-657.7 242,-657.7"/>
<polygon fill="#000000" stroke="#000000" points="333.5556,-923.7588 341.0765,-928.275 337.5278,-924.2294 341.5,-924.7 341.5,-924.7 341.5,-924.7 337.5278,-924.2294 341.9235,-921.125 333.5556,-923.7588 333.5556,-923.7588"/>
<ellipse fill="none" stroke="#000000" cx="330.3778" cy="-923.3823" rx="3.2" ry="3.2"/>
</g>
<!-- openemr_postcalendar_events&#45;&gt;therapy_groups -->
<g id="edge8" class="edge">
<title>openemr_postcalendar_events:w&#45;&gt;therapy_groups:e</title>
<path fill="none" stroke="#000000" d="M279.583,-589.2665C260.7293,-605.248 275.6568,-657.7 242,-657.7"/>
<polygon fill="#000000" stroke="#000000" points="285.8987,-587.1942 294.6224,-588.1206 289.6994,-585.9471 293.5,-584.7 293.5,-584.7 293.5,-584.7 289.6994,-585.9471 292.3776,-581.2794 285.8987,-587.1942 285.8987,-587.1942"/>
<ellipse fill="none" stroke="#000000" cx="282.8582" cy="-588.1919" rx="3.2" ry="3.2"/>
</g>
<!-- therapy_groups_counselors -->
<g id="node6" class="node">
<title>therapy_groups_counselors</title>
<g id="a_node6"><a xlink:href="../../tables/therapy_groups_counselors.html" xlink:title="therapy_groups_counselors" target="_top">
<polygon fill="#ffffff" stroke="transparent" points="302,-164.7 302,-250.7 505,-250.7 505,-164.7 302,-164.7"/>
<polygon fill="#f5f5f5" stroke="transparent" points="302.5,-227.7 302.5,-250.7 505.5,-250.7 505.5,-227.7 302.5,-227.7"/>
<polygon fill="none" stroke="#000000" points="302.5,-227.7 302.5,-250.7 505.5,-250.7 505.5,-227.7 302.5,-227.7"/>
<text text-anchor="start" x="307.5" y="-236.3" font-family="Helvetica,sans-Serif" font-weight="bold" font-size="11.00" fill="#000000">therapy_groups_counselors</text>
<text text-anchor="start" x="471.0219" y="-235.8" font-family="Helvetica,sans-Serif" font-size="11.00" fill="#000000">[table]</text>
<polygon fill="none" stroke="#000000" points="302.5,-205.7 302.5,-227.7 505.5,-227.7 505.5,-205.7 302.5,-205.7"/>
<image xlink:href="../../images/primaryKeys.png" width="11px" height="12px" preserveAspectRatio="xMinYMin meet" x="307.5" y="-222.7"/>
<text text-anchor="start" x="331.5" y="-212.8" font-family="Helvetica,sans-Serif" font-size="11.00" fill="#000000">group_id</text>
<polygon fill="none" stroke="#000000" points="302.5,-183.7 302.5,-205.7 505.5,-205.7 505.5,-183.7 302.5,-183.7"/>
<image xlink:href="../../images/primaryKeys.png" width="11px" height="12px" preserveAspectRatio="xMinYMin meet" x="307.5" y="-200.7"/>
<text text-anchor="start" x="331.5" y="-190.8" font-family="Helvetica,sans-Serif" font-size="11.00" fill="#000000">user_id</text>
<polygon fill="#ffffff" stroke="transparent" points="302.5,-164.7 302.5,-183.7 402.5,-183.7 402.5,-164.7 302.5,-164.7"/>
<polygon fill="none" stroke="#000000" points="302.5,-164.7 302.5,-183.7 402.5,-183.7 402.5,-164.7 302.5,-164.7"/>
<text text-anchor="start" x="305.5" y="-170.8" font-family="Helvetica,sans-Serif" font-size="11.00" fill="#000000">&lt; 2</text>
<polygon fill="#ffffff" stroke="transparent" points="402.5,-164.7 402.5,-183.7 453.5,-183.7 453.5,-164.7 402.5,-164.7"/>
<polygon fill="none" stroke="#000000" points="402.5,-164.7 402.5,-183.7 453.5,-183.7 453.5,-164.7 402.5,-164.7"/>
<text text-anchor="start" x="444.3862" y="-170.8" font-family="Helvetica,sans-Serif" font-size="11.00" fill="#000000"> &#160;</text>
<polygon fill="#ffffff" stroke="transparent" points="453.5,-164.7 453.5,-183.7 505.5,-183.7 505.5,-164.7 453.5,-164.7"/>
<polygon fill="none" stroke="#000000" points="453.5,-164.7 453.5,-183.7 505.5,-183.7 505.5,-164.7 453.5,-164.7"/>
<text text-anchor="start" x="496.3862" y="-170.8" font-family="Helvetica,sans-Serif" font-size="11.00" fill="#000000"> &#160;</text>
</a>
</g>
</g>
<!-- therapy_groups_counselors&#45;&gt;therapy_groups -->
<g id="edge9" class="edge">
<title>therapy_groups_counselors:w&#45;&gt;therapy_groups:e</title>
<path fill="none" stroke="#000000" d="M288.3137,-220.5125C217.8966,-263.6155 335.5083,-657.7 242,-657.7"/>
<polygon fill="#000000" stroke="#000000" points="294.7741,-218.7763 303.4343,-220.1766 298.6371,-217.7382 302.5,-216.7 302.5,-216.7 302.5,-216.7 298.6371,-217.7382 301.5657,-213.2234 294.7741,-218.7763 294.7741,-218.7763"/>
<ellipse fill="none" stroke="#000000" cx="291.6838" cy="-219.6068" rx="3.2" ry="3.2"/>
</g>
<!-- therapy_groups_participants -->
<g id="node7" class="node">
<title>therapy_groups_participants</title>
<g id="a_node7"><a xlink:href="../../tables/therapy_groups_participants.html" xlink:title="therapy_groups_participants" target="_top">
<polygon fill="#ffffff" stroke="transparent" points="298.5,-38.2 298.5,-143.2 508.5,-143.2 508.5,-38.2 298.5,-38.2"/>
<polygon fill="#f5f5f5" stroke="transparent" points="298.5,-119.7 298.5,-142.7 508.5,-142.7 508.5,-119.7 298.5,-119.7"/>
<polygon fill="none" stroke="#000000" points="298.5,-119.7 298.5,-142.7 508.5,-142.7 508.5,-119.7 298.5,-119.7"/>
<text text-anchor="start" x="303.5" y="-128.3" font-family="Helvetica,sans-Serif" font-weight="bold" font-size="11.00" fill="#000000">therapy_groups_participants</text>
<text text-anchor="start" x="474.0219" y="-127.8" font-family="Helvetica,sans-Serif" font-size="11.00" fill="#000000">[table]</text>
<polygon fill="none" stroke="#000000" points="298.5,-97.7 298.5,-119.7 508.5,-119.7 508.5,-97.7 298.5,-97.7"/>
<image xlink:href="../../images/primaryKeys.png" width="11px" height="12px" preserveAspectRatio="xMinYMin meet" x="303.5" y="-114.7"/>
<text text-anchor="start" x="327.5" y="-104.8" font-family="Helvetica,sans-Serif" font-size="11.00" fill="#000000">group_id</text>
<polygon fill="none" stroke="#000000" points="298.5,-75.7 298.5,-97.7 508.5,-97.7 508.5,-75.7 298.5,-75.7"/>
<image xlink:href="../../images/primaryKeys.png" width="11px" height="12px" preserveAspectRatio="xMinYMin meet" x="303.5" y="-92.7"/>
<text text-anchor="start" x="327.5" y="-82.8" font-family="Helvetica,sans-Serif" font-size="11.00" fill="#000000">pid</text>
<polygon fill="none" stroke="#000000" points="298.5,-56.7 298.5,-75.7 508.5,-75.7 508.5,-56.7 298.5,-56.7"/>
<text text-anchor="start" x="301.5" y="-62.8" font-family="Helvetica,sans-Serif" font-size="11.00" fill="#000000">...</text>
<polygon fill="#ffffff" stroke="transparent" points="298.5,-37.7 298.5,-56.7 401.5,-56.7 401.5,-37.7 298.5,-37.7"/>
<polygon fill="none" stroke="#000000" points="298.5,-37.7 298.5,-56.7 401.5,-56.7 401.5,-37.7 298.5,-37.7"/>
<text text-anchor="start" x="301.5" y="-43.8" font-family="Helvetica,sans-Serif" font-size="11.00" fill="#000000">&lt; 2</text>
<polygon fill="#ffffff" stroke="transparent" points="401.5,-37.7 401.5,-56.7 454.5,-56.7 454.5,-37.7 401.5,-37.7"/>
<polygon fill="none" stroke="#000000" points="401.5,-37.7 401.5,-56.7 454.5,-56.7 454.5,-37.7 401.5,-37.7"/>
<text text-anchor="start" x="445.3862" y="-43.8" font-family="Helvetica,sans-Serif" font-size="11.00" fill="#000000"> &#160;</text>
<polygon fill="#ffffff" stroke="transparent" points="454.5,-37.7 454.5,-56.7 508.5,-56.7 508.5,-37.7 454.5,-37.7"/>
<polygon fill="none" stroke="#000000" points="454.5,-37.7 454.5,-56.7 508.5,-56.7 508.5,-37.7 454.5,-37.7"/>
<text text-anchor="start" x="499.3862" y="-43.8" font-family="Helvetica,sans-Serif" font-size="11.00" fill="#000000"> &#160;</text>
</a>
</g>
</g>
<!-- therapy_groups_participants&#45;&gt;therapy_groups -->
<g id="edge10" class="edge">
<title>therapy_groups_participants:w&#45;&gt;therapy_groups:e</title>
<path fill="none" stroke="#000000" d="M286.8484,-117.3235C246.294,-187.1681 298.7709,-657.7 242,-657.7"/>
<polygon fill="#000000" stroke="#000000" points="292.0696,-113.4592 300.6417,-111.5937 295.2848,-111.0796 298.5,-108.7 298.5,-108.7 298.5,-108.7 295.2848,-111.0796 296.3583,-105.8063 292.0696,-113.4592 292.0696,-113.4592"/>
<ellipse fill="none" stroke="#000000" cx="289.4974" cy="-115.3629" rx="3.2" ry="3.2"/>
</g>
</g>
</svg>
