<?xml version="1.0" encoding="UTF-8" standalone="no"?>
<!DOCTYPE svg PUBLIC "-//W3C//DTD SVG 1.1//EN"
 "http://www.w3.org/Graphics/SVG/1.1/DTD/svg11.dtd">
<!-- Generated by graphviz version 2.40.1 (20161225.0304)
 -->
<!-- Title: oneDegreeRelationshipsDiagram Pages: 1 -->
<svg width="535pt" height="391pt"
 viewBox="0.00 0.00 535.00 391.20" xmlns="http://www.w3.org/2000/svg" xmlns:xlink="http://www.w3.org/1999/xlink">
<g id="graph0" class="graph" transform="scale(1 1) rotate(0) translate(4 387.2)">
<title>oneDegreeRelationshipsDiagram</title>
<polygon fill="#ffffff" stroke="transparent" points="-4,4 -4,-387.2 531,-387.2 531,4 -4,4"/>
<text text-anchor="middle" x="72.4936" y="-7.3" font-family="Helvetica,sans-Serif" font-size="11.00" fill="#000000">Generated by SchemaSpy</text>
<!-- therapy_groups_participants -->
<g id="node1" class="node">
<title>therapy_groups_participants</title>
<g id="a_node1"><a xlink:href="../../tables/therapy_groups_participants.html" xlink:title="therapy_groups_participants" target="_top">
<polygon fill="#ffffff" stroke="transparent" points="241,-117.7 241,-295.7 519,-295.7 519,-117.7 241,-117.7"/>
<polygon fill="#f5f5f5" stroke="transparent" points="243,-270.7 243,-293.7 517,-293.7 517,-270.7 243,-270.7"/>
<polygon fill="none" stroke="#000000" points="243,-270.7 243,-293.7 517,-293.7 517,-270.7 243,-270.7"/>
<text text-anchor="start" x="248" y="-279.3" font-family="Helvetica,sans-Serif" font-weight="bold" font-size="11.00" fill="#000000">therapy_groups_participants</text>
<text text-anchor="start" x="482.0437" y="-278.8" font-family="Helvetica,sans-Serif" font-size="11.00" fill="#000000">[table]</text>
<polygon fill="none" stroke="#000000" points="243,-248.7 243,-270.7 457,-270.7 457,-248.7 243,-248.7"/>
<image xlink:href="../../images/primaryKeys.png" width="11px" height="12px" preserveAspectRatio="xMinYMin meet" x="248" y="-265.7"/>
<text text-anchor="start" x="263" y="-255.8" font-family="Helvetica,sans-Serif" font-size="11.00" fill="#000000">group_id</text>
<polygon fill="none" stroke="#000000" points="457,-248.7 457,-270.7 517,-270.7 517,-248.7 457,-248.7"/>
<text text-anchor="start" x="460" y="-256.4" font-family="Helvetica,sans-Serif" font-size="11.00" fill="#000000">int[10]</text>
<polygon fill="none" stroke="#000000" points="243,-226.7 243,-248.7 457,-248.7 457,-226.7 243,-226.7"/>
<image xlink:href="../../images/primaryKeys.png" width="11px" height="12px" preserveAspectRatio="xMinYMin meet" x="248" y="-243.7"/>
<text text-anchor="start" x="263" y="-233.8" font-family="Helvetica,sans-Serif" font-size="11.00" fill="#000000">pid</text>
<polygon fill="none" stroke="#000000" points="457,-226.7 457,-248.7 517,-248.7 517,-226.7 457,-226.7"/>
<text text-anchor="start" x="460" y="-234.4" font-family="Helvetica,sans-Serif" font-size="11.00" fill="#000000">bigint[19]</text>
<polygon fill="none" stroke="#000000" points="243,-204.7 243,-226.7 457,-226.7 457,-204.7 243,-204.7"/>
<text text-anchor="start" x="263" y="-211.8" font-family="Helvetica,sans-Serif" font-size="11.00" fill="#000000">group_patient_status</text>
<polygon fill="none" stroke="#000000" points="457,-204.7 457,-226.7 517,-226.7 517,-204.7 457,-204.7"/>
<text text-anchor="start" x="460" y="-212.4" font-family="Helvetica,sans-Serif" font-size="11.00" fill="#000000">int[10]</text>
<polygon fill="none" stroke="#000000" points="243,-182.7 243,-204.7 457,-204.7 457,-182.7 243,-182.7"/>
<text text-anchor="start" x="263" y="-189.8" font-family="Helvetica,sans-Serif" font-size="11.00" fill="#000000">group_patient_start</text>
<polygon fill="none" stroke="#000000" points="457,-182.7 457,-204.7 517,-204.7 517,-182.7 457,-182.7"/>
<text text-anchor="start" x="460" y="-190.4" font-family="Helvetica,sans-Serif" font-size="11.00" fill="#000000">date[10]</text>
<polygon fill="none" stroke="#000000" points="243,-160.7 243,-182.7 457,-182.7 457,-160.7 243,-160.7"/>
<text text-anchor="start" x="263" y="-167.8" font-family="Helvetica,sans-Serif" font-size="11.00" fill="#000000">group_patient_end</text>
<polygon fill="none" stroke="#000000" points="457,-160.7 457,-182.7 517,-182.7 517,-160.7 457,-160.7"/>
<text text-anchor="start" x="460" y="-168.4" font-family="Helvetica,sans-Serif" font-size="11.00" fill="#000000">date[10]</text>
<polygon fill="none" stroke="#000000" points="243,-138.7 243,-160.7 457,-160.7 457,-138.7 243,-138.7"/>
<text text-anchor="start" x="263" y="-145.8" font-family="Helvetica,sans-Serif" font-size="11.00" fill="#000000">group_patient_comment</text>
<polygon fill="none" stroke="#000000" points="457,-138.7 457,-160.7 517,-160.7 517,-138.7 457,-138.7"/>
<text text-anchor="start" x="459.7915" y="-146.4" font-family="Helvetica,sans-Serif" font-size="11.00" fill="#000000">text[65535]</text>
<polygon fill="#ffffff" stroke="transparent" points="243,-119.7 243,-138.7 354,-138.7 354,-119.7 243,-119.7"/>
<polygon fill="none" stroke="#000000" points="243,-119.7 243,-138.7 354,-138.7 354,-119.7 243,-119.7"/>
<text text-anchor="start" x="246" y="-125.8" font-family="Helvetica,sans-Serif" font-size="11.00" fill="#000000">&lt; 2</text>
<polygon fill="#ffffff" stroke="transparent" points="354,-119.7 354,-138.7 457,-138.7 457,-119.7 354,-119.7"/>
<polygon fill="none" stroke="#000000" points="354,-119.7 354,-138.7 457,-138.7 457,-119.7 354,-119.7"/>
<text text-anchor="start" x="447.8862" y="-125.8" font-family="Helvetica,sans-Serif" font-size="11.00" fill="#000000"> &#160;</text>
<polygon fill="#ffffff" stroke="transparent" points="457,-119.7 457,-138.7 517,-138.7 517,-119.7 457,-119.7"/>
<polygon fill="none" stroke="#000000" points="457,-119.7 457,-138.7 517,-138.7 517,-119.7 457,-119.7"/>
<text text-anchor="start" x="498.4053" y="-125.8" font-family="Helvetica,sans-Serif" font-size="11.00" fill="#000000">0 &gt;</text>
<polygon fill="none" stroke="#000000" stroke-width="2" points="242,-118.7 242,-294.7 518,-294.7 518,-118.7 242,-118.7"/>
</a>
</g>
</g>
<!-- therapy_groups -->
<g id="node2" class="node">
<title>therapy_groups</title>
<g id="a_node2"><a xlink:href="../../tables/therapy_groups.html" xlink:title="therapy_groups" target="_top">
<polygon fill="#ffffff" stroke="transparent" points="8,-296.2 8,-379.2 192,-379.2 192,-296.2 8,-296.2"/>
<polygon fill="#f5f5f5" stroke="transparent" points="8,-355.7 8,-378.7 192,-378.7 192,-355.7 8,-355.7"/>
<polygon fill="none" stroke="#000000" points="8,-355.7 8,-378.7 192,-378.7 192,-355.7 8,-355.7"/>
<text text-anchor="start" x="13" y="-364.3" font-family="Helvetica,sans-Serif" font-weight="bold" font-size="11.00" fill="#000000">therapy_groups</text>
<text text-anchor="start" x="157.0437" y="-363.8" font-family="Helvetica,sans-Serif" font-size="11.00" fill="#000000">[table]</text>
<polygon fill="none" stroke="#000000" points="8,-333.7 8,-355.7 192,-355.7 192,-333.7 8,-333.7"/>
<image xlink:href="../../images/primaryKeys.png" width="11px" height="12px" preserveAspectRatio="xMinYMin meet" x="13" y="-350.7"/>
<text text-anchor="start" x="28" y="-340.8" font-family="Helvetica,sans-Serif" font-size="11.00" fill="#000000">group_id</text>
<polygon fill="none" stroke="#000000" points="8,-314.7 8,-333.7 192,-333.7 192,-314.7 8,-314.7"/>
<text text-anchor="start" x="11" y="-320.8" font-family="Helvetica,sans-Serif" font-size="11.00" fill="#000000">...</text>
<polygon fill="#ffffff" stroke="transparent" points="8,-295.7 8,-314.7 89,-314.7 89,-295.7 8,-295.7"/>
<polygon fill="none" stroke="#000000" points="8,-295.7 8,-314.7 89,-314.7 89,-295.7 8,-295.7"/>
<text text-anchor="start" x="11" y="-301.8" font-family="Helvetica,sans-Serif" font-size="11.00" fill="#000000"> &#160;</text>
<polygon fill="#ffffff" stroke="transparent" points="89,-295.7 89,-314.7 136,-314.7 136,-295.7 89,-295.7"/>
<polygon fill="none" stroke="#000000" points="89,-295.7 89,-314.7 136,-314.7 136,-295.7 89,-295.7"/>
<text text-anchor="start" x="126.8862" y="-301.8" font-family="Helvetica,sans-Serif" font-size="11.00" fill="#000000"> &#160;</text>
<polygon fill="#ffffff" stroke="transparent" points="136,-295.7 136,-314.7 192,-314.7 192,-295.7 136,-295.7"/>
<polygon fill="none" stroke="#000000" points="136,-295.7 136,-314.7 192,-314.7 192,-295.7 136,-295.7"/>
<text text-anchor="start" x="173.4053" y="-301.8" font-family="Helvetica,sans-Serif" font-size="11.00" fill="#000000">6 &gt;</text>
</a>
</g>
</g>
<!-- therapy_groups_participants&#45;&gt;therapy_groups -->
<g id="edge1" class="edge">
<title>therapy_groups_participants:w&#45;&gt;therapy_groups:e</title>
<path fill="none" stroke="#000000" d="M229.0669,-264.032C207.5746,-281.3534 230.0328,-344.7 192,-344.7"/>
<polygon fill="#000000" stroke="#000000" points="235.3607,-262.0752 244.0688,-263.1377 239.1804,-260.8876 243,-259.7 243,-259.7 243,-259.7 239.1804,-260.8876 241.9312,-256.2623 235.3607,-262.0752 235.3607,-262.0752"/>
<ellipse fill="none" stroke="#000000" cx="232.305" cy="-263.0253" rx="3.2" ry="3.2"/>
</g>
<!-- patient_data -->
<g id="node3" class="node">
<title>patient_data</title>
<g id="a_node3"><a xlink:href="../../tables/patient_data.html" xlink:title="patient_data" target="_top">
<polygon fill="#ffffff" stroke="transparent" points="16.5,-38.2 16.5,-275.2 183.5,-275.2 183.5,-38.2 16.5,-38.2"/>
<polygon fill="#f5f5f5" stroke="transparent" points="17,-251.7 17,-274.7 184,-274.7 184,-251.7 17,-251.7"/>
<polygon fill="none" stroke="#000000" points="17,-251.7 17,-274.7 184,-274.7 184,-251.7 17,-251.7"/>
<text text-anchor="start" x="22" y="-260.3" font-family="Helvetica,sans-Serif" font-weight="bold" font-size="11.00" fill="#000000">patient_data</text>
<text text-anchor="start" x="149.0437" y="-259.8" font-family="Helvetica,sans-Serif" font-size="11.00" fill="#000000">[table]</text>
<polygon fill="#ffffff" stroke="transparent" points="17,-229.7 17,-251.7 184,-251.7 184,-229.7 17,-229.7"/>
<polygon fill="none" stroke="#000000" points="17,-229.7 17,-251.7 184,-251.7 184,-229.7 17,-229.7"/>
<text text-anchor="start" x="37" y="-236.8" font-family="Helvetica,sans-Serif" font-size="11.00" fill="#000000">id</text>
<polygon fill="none" stroke="#000000" points="17,-207.7 17,-229.7 184,-229.7 184,-207.7 17,-207.7"/>
<image xlink:href="../../images/foreignKeys.png" width="11px" height="12px" preserveAspectRatio="xMinYMin meet" x="22" y="-224.7"/>
<text text-anchor="start" x="37" y="-214.8" font-family="Helvetica,sans-Serif" font-size="11.00" fill="#000000">pharmacy_id</text>
<polygon fill="none" stroke="#000000" points="17,-185.7 17,-207.7 184,-207.7 184,-185.7 17,-185.7"/>
<image xlink:href="../../images/foreignKeys.png" width="11px" height="12px" preserveAspectRatio="xMinYMin meet" x="22" y="-202.7"/>
<text text-anchor="start" x="37" y="-192.8" font-family="Helvetica,sans-Serif" font-size="11.00" fill="#000000">providerID</text>
<polygon fill="none" stroke="#000000" points="17,-163.7 17,-185.7 184,-185.7 184,-163.7 17,-163.7"/>
<image xlink:href="../../images/foreignKeys.png" width="11px" height="12px" preserveAspectRatio="xMinYMin meet" x="22" y="-180.7"/>
<text text-anchor="start" x="37" y="-170.8" font-family="Helvetica,sans-Serif" font-size="11.00" fill="#000000">ref_providerID</text>
<polygon fill="none" stroke="#000000" points="17,-141.7 17,-163.7 184,-163.7 184,-141.7 17,-141.7"/>
<image xlink:href="../../images/primaryKeys.png" width="11px" height="12px" preserveAspectRatio="xMinYMin meet" x="22" y="-158.7"/>
<text text-anchor="start" x="37" y="-148.8" font-family="Helvetica,sans-Serif" font-size="11.00" fill="#000000">pid</text>
<polygon fill="#ffffff" stroke="transparent" points="17,-119.7 17,-141.7 184,-141.7 184,-119.7 17,-119.7"/>
<polygon fill="none" stroke="#000000" points="17,-119.7 17,-141.7 184,-141.7 184,-119.7 17,-119.7"/>
<text text-anchor="start" x="37" y="-126.8" font-family="Helvetica,sans-Serif" font-size="11.00" fill="#000000">uuid</text>
<polygon fill="none" stroke="#000000" points="17,-97.7 17,-119.7 184,-119.7 184,-97.7 17,-97.7"/>
<image xlink:href="../../images/foreignKeys.png" width="11px" height="12px" preserveAspectRatio="xMinYMin meet" x="22" y="-114.7"/>
<text text-anchor="start" x="37" y="-104.8" font-family="Helvetica,sans-Serif" font-size="11.00" fill="#000000">created_by</text>
<polygon fill="none" stroke="#000000" points="17,-75.7 17,-97.7 184,-97.7 184,-75.7 17,-75.7"/>
<image xlink:href="../../images/foreignKeys.png" width="11px" height="12px" preserveAspectRatio="xMinYMin meet" x="22" y="-92.7"/>
<text text-anchor="start" x="37" y="-82.8" font-family="Helvetica,sans-Serif" font-size="11.00" fill="#000000">updated_by</text>
<polygon fill="none" stroke="#000000" points="17,-56.7 17,-75.7 184,-75.7 184,-56.7 17,-56.7"/>
<text text-anchor="start" x="20" y="-62.8" font-family="Helvetica,sans-Serif" font-size="11.00" fill="#000000">...</text>
<polygon fill="#ffffff" stroke="transparent" points="17,-37.7 17,-56.7 91,-56.7 91,-37.7 17,-37.7"/>
<polygon fill="none" stroke="#000000" points="17,-37.7 17,-56.7 91,-56.7 91,-37.7 17,-37.7"/>
<text text-anchor="start" x="20" y="-43.8" font-family="Helvetica,sans-Serif" font-size="11.00" fill="#000000">&lt; 5</text>
<polygon fill="#ffffff" stroke="transparent" points="91,-37.7 91,-56.7 130,-56.7 130,-37.7 91,-37.7"/>
<polygon fill="none" stroke="#000000" points="91,-37.7 91,-56.7 130,-56.7 130,-37.7 91,-37.7"/>
<text text-anchor="start" x="120.8862" y="-43.8" font-family="Helvetica,sans-Serif" font-size="11.00" fill="#000000"> &#160;</text>
<polygon fill="#ffffff" stroke="transparent" points="130,-37.7 130,-56.7 184,-56.7 184,-37.7 130,-37.7"/>
<polygon fill="none" stroke="#000000" points="130,-37.7 130,-56.7 184,-56.7 184,-37.7 130,-37.7"/>
<text text-anchor="start" x="159.2904" y="-43.8" font-family="Helvetica,sans-Serif" font-size="11.00" fill="#000000">85 &gt;</text>
</a>
</g>
</g>
<!-- therapy_groups_participants&#45;&gt;patient_data -->
<g id="edge2" class="edge">
<title>therapy_groups_participants:w&#45;&gt;patient_data:e</title>
<path fill="none" stroke="#000000" d="M228.814,-233.8269C204.2023,-217.1984 224.0586,-152.7 184,-152.7"/>
<polygon fill="#000000" stroke="#000000" points="235.2825,-235.5929 242.0518,-241.1729 239.1412,-236.6464 243,-237.7 243,-237.7 243,-237.7 239.1412,-236.6464 243.9482,-234.2271 235.2825,-235.5929 235.2825,-235.5929"/>
<ellipse fill="none" stroke="#000000" cx="232.1955" cy="-234.75" rx="3.2" ry="3.2"/>
</g>
</g>
</svg>
