<?xml version="1.0" encoding="UTF-8" standalone="no"?>
<!DOCTYPE svg PUBLIC "-//W3C//DTD SVG 1.1//EN"
 "http://www.w3.org/Graphics/SVG/1.1/DTD/svg11.dtd">
<!-- Generated by graphviz version 2.40.1 (20161225.0304)
 -->
<!-- Title: oneDegreeRelationshipsDiagram Pages: 1 -->
<svg width="502pt" height="325pt"
 viewBox="0.00 0.00 502.00 325.20" xmlns="http://www.w3.org/2000/svg" xmlns:xlink="http://www.w3.org/1999/xlink">
<g id="graph0" class="graph" transform="scale(1 1) rotate(0) translate(4 321.2)">
<title>oneDegreeRelationshipsDiagram</title>
<polygon fill="#ffffff" stroke="transparent" points="-4,4 -4,-321.2 498,-321.2 498,4 -4,4"/>
<text text-anchor="middle" x="72.4936" y="-7.3" font-family="Helvetica,sans-Serif" font-size="11.00" fill="#000000">Generated by SchemaSpy</text>
<!-- therapy_groups_counselors -->
<g id="node1" class="node">
<title>therapy_groups_counselors</title>
<g id="a_node1"><a xlink:href="../../tables/therapy_groups_counselors.html" xlink:title="therapy_groups_counselors" target="_top">
<polygon fill="#ffffff" stroke="transparent" points="241,-183.7 241,-273.7 486,-273.7 486,-183.7 241,-183.7"/>
<polygon fill="#f5f5f5" stroke="transparent" points="243.5,-248.7 243.5,-271.7 484.5,-271.7 484.5,-248.7 243.5,-248.7"/>
<polygon fill="none" stroke="#000000" points="243.5,-248.7 243.5,-271.7 484.5,-271.7 484.5,-248.7 243.5,-248.7"/>
<text text-anchor="start" x="248.5" y="-257.3" font-family="Helvetica,sans-Serif" font-weight="bold" font-size="11.00" fill="#000000">therapy_groups_counselors</text>
<text text-anchor="start" x="449.5437" y="-256.8" font-family="Helvetica,sans-Serif" font-size="11.00" fill="#000000">[table]</text>
<polygon fill="none" stroke="#000000" points="243.5,-226.7 243.5,-248.7 449.5,-248.7 449.5,-226.7 243.5,-226.7"/>
<image xlink:href="../../images/primaryKeys.png" width="11px" height="12px" preserveAspectRatio="xMinYMin meet" x="248.5" y="-243.7"/>
<text text-anchor="start" x="263.5" y="-233.8" font-family="Helvetica,sans-Serif" font-size="11.00" fill="#000000">group_id</text>
<polygon fill="none" stroke="#000000" points="449.5,-226.7 449.5,-248.7 484.5,-248.7 484.5,-226.7 449.5,-226.7"/>
<text text-anchor="start" x="452.0219" y="-234.4" font-family="Helvetica,sans-Serif" font-size="11.00" fill="#000000">int[10]</text>
<polygon fill="none" stroke="#000000" points="243.5,-204.7 243.5,-226.7 449.5,-226.7 449.5,-204.7 243.5,-204.7"/>
<image xlink:href="../../images/primaryKeys.png" width="11px" height="12px" preserveAspectRatio="xMinYMin meet" x="248.5" y="-221.7"/>
<text text-anchor="start" x="263.5" y="-211.8" font-family="Helvetica,sans-Serif" font-size="11.00" fill="#000000">user_id</text>
<polygon fill="none" stroke="#000000" points="449.5,-204.7 449.5,-226.7 484.5,-226.7 484.5,-204.7 449.5,-204.7"/>
<text text-anchor="start" x="452.0219" y="-212.4" font-family="Helvetica,sans-Serif" font-size="11.00" fill="#000000">int[10]</text>
<polygon fill="#ffffff" stroke="transparent" points="243.5,-185.7 243.5,-204.7 350.5,-204.7 350.5,-185.7 243.5,-185.7"/>
<polygon fill="none" stroke="#000000" points="243.5,-185.7 243.5,-204.7 350.5,-204.7 350.5,-185.7 243.5,-185.7"/>
<text text-anchor="start" x="246.5" y="-191.8" font-family="Helvetica,sans-Serif" font-size="11.00" fill="#000000">&lt; 2</text>
<polygon fill="#ffffff" stroke="transparent" points="350.5,-185.7 350.5,-204.7 449.5,-204.7 449.5,-185.7 350.5,-185.7"/>
<polygon fill="none" stroke="#000000" points="350.5,-185.7 350.5,-204.7 449.5,-204.7 449.5,-185.7 350.5,-185.7"/>
<text text-anchor="start" x="440.3862" y="-191.8" font-family="Helvetica,sans-Serif" font-size="11.00" fill="#000000"> &#160;</text>
<polygon fill="#ffffff" stroke="transparent" points="449.5,-185.7 449.5,-204.7 484.5,-204.7 484.5,-185.7 449.5,-185.7"/>
<polygon fill="none" stroke="#000000" points="449.5,-185.7 449.5,-204.7 484.5,-204.7 484.5,-185.7 449.5,-185.7"/>
<text text-anchor="start" x="465.9053" y="-191.8" font-family="Helvetica,sans-Serif" font-size="11.00" fill="#000000">0 &gt;</text>
<polygon fill="none" stroke="#000000" stroke-width="2" points="242,-184.7 242,-272.7 485,-272.7 485,-184.7 242,-184.7"/>
</a>
</g>
</g>
<!-- therapy_groups -->
<g id="node2" class="node">
<title>therapy_groups</title>
<g id="a_node2"><a xlink:href="../../tables/therapy_groups.html" xlink:title="therapy_groups" target="_top">
<polygon fill="#ffffff" stroke="transparent" points="8,-230.2 8,-313.2 192,-313.2 192,-230.2 8,-230.2"/>
<polygon fill="#f5f5f5" stroke="transparent" points="8,-289.7 8,-312.7 192,-312.7 192,-289.7 8,-289.7"/>
<polygon fill="none" stroke="#000000" points="8,-289.7 8,-312.7 192,-312.7 192,-289.7 8,-289.7"/>
<text text-anchor="start" x="13" y="-298.3" font-family="Helvetica,sans-Serif" font-weight="bold" font-size="11.00" fill="#000000">therapy_groups</text>
<text text-anchor="start" x="157.0437" y="-297.8" font-family="Helvetica,sans-Serif" font-size="11.00" fill="#000000">[table]</text>
<polygon fill="none" stroke="#000000" points="8,-267.7 8,-289.7 192,-289.7 192,-267.7 8,-267.7"/>
<image xlink:href="../../images/primaryKeys.png" width="11px" height="12px" preserveAspectRatio="xMinYMin meet" x="13" y="-284.7"/>
<text text-anchor="start" x="28" y="-274.8" font-family="Helvetica,sans-Serif" font-size="11.00" fill="#000000">group_id</text>
<polygon fill="none" stroke="#000000" points="8,-248.7 8,-267.7 192,-267.7 192,-248.7 8,-248.7"/>
<text text-anchor="start" x="11" y="-254.8" font-family="Helvetica,sans-Serif" font-size="11.00" fill="#000000">...</text>
<polygon fill="#ffffff" stroke="transparent" points="8,-229.7 8,-248.7 89,-248.7 89,-229.7 8,-229.7"/>
<polygon fill="none" stroke="#000000" points="8,-229.7 8,-248.7 89,-248.7 89,-229.7 8,-229.7"/>
<text text-anchor="start" x="11" y="-235.8" font-family="Helvetica,sans-Serif" font-size="11.00" fill="#000000"> &#160;</text>
<polygon fill="#ffffff" stroke="transparent" points="89,-229.7 89,-248.7 136,-248.7 136,-229.7 89,-229.7"/>
<polygon fill="none" stroke="#000000" points="89,-229.7 89,-248.7 136,-248.7 136,-229.7 89,-229.7"/>
<text text-anchor="start" x="126.8862" y="-235.8" font-family="Helvetica,sans-Serif" font-size="11.00" fill="#000000"> &#160;</text>
<polygon fill="#ffffff" stroke="transparent" points="136,-229.7 136,-248.7 192,-248.7 192,-229.7 136,-229.7"/>
<polygon fill="none" stroke="#000000" points="136,-229.7 136,-248.7 192,-248.7 192,-229.7 136,-229.7"/>
<text text-anchor="start" x="173.4053" y="-235.8" font-family="Helvetica,sans-Serif" font-size="11.00" fill="#000000">2 &gt;</text>
</a>
</g>
</g>
<!-- therapy_groups_counselors&#45;&gt;therapy_groups -->
<g id="edge1" class="edge">
<title>therapy_groups_counselors:w&#45;&gt;therapy_groups:e</title>
<path fill="none" stroke="#000000" d="M229.5533,-242.0877C215.596,-252.6646 215.3139,-278.7 192,-278.7"/>
<polygon fill="#000000" stroke="#000000" points="235.8687,-240.1009 244.5804,-241.1341 239.6844,-238.9004 243.5,-237.7 243.5,-237.7 243.5,-237.7 239.6844,-238.9004 242.4196,-234.2659 235.8687,-240.1009 235.8687,-240.1009"/>
<ellipse fill="none" stroke="#000000" cx="232.8162" cy="-241.0612" rx="3.2" ry="3.2"/>
</g>
<!-- users -->
<g id="node3" class="node">
<title>users</title>
<g id="a_node3"><a xlink:href="../../tables/users.html" xlink:title="users" target="_top">
<polygon fill="#ffffff" stroke="transparent" points="16.5,-38.2 16.5,-209.2 183.5,-209.2 183.5,-38.2 16.5,-38.2"/>
<polygon fill="#f5f5f5" stroke="transparent" points="17,-185.7 17,-208.7 184,-208.7 184,-185.7 17,-185.7"/>
<polygon fill="none" stroke="#000000" points="17,-185.7 17,-208.7 184,-208.7 184,-185.7 17,-185.7"/>
<text text-anchor="start" x="22" y="-194.3" font-family="Helvetica,sans-Serif" font-weight="bold" font-size="11.00" fill="#000000">users</text>
<text text-anchor="start" x="149.0437" y="-193.8" font-family="Helvetica,sans-Serif" font-size="11.00" fill="#000000">[table]</text>
<polygon fill="none" stroke="#000000" points="17,-163.7 17,-185.7 184,-185.7 184,-163.7 17,-163.7"/>
<image xlink:href="../../images/primaryKeys.png" width="11px" height="12px" preserveAspectRatio="xMinYMin meet" x="22" y="-180.7"/>
<text text-anchor="start" x="37" y="-170.8" font-family="Helvetica,sans-Serif" font-size="11.00" fill="#000000">id</text>
<polygon fill="#ffffff" stroke="transparent" points="17,-141.7 17,-163.7 184,-163.7 184,-141.7 17,-141.7"/>
<polygon fill="none" stroke="#000000" points="17,-141.7 17,-163.7 184,-163.7 184,-141.7 17,-141.7"/>
<text text-anchor="start" x="37" y="-148.8" font-family="Helvetica,sans-Serif" font-size="11.00" fill="#000000">uuid</text>
<polygon fill="none" stroke="#000000" points="17,-119.7 17,-141.7 184,-141.7 184,-119.7 17,-119.7"/>
<image xlink:href="../../images/primaryKeys.png" width="11px" height="12px" preserveAspectRatio="xMinYMin meet" x="22" y="-136.7"/>
<text text-anchor="start" x="37" y="-126.8" font-family="Helvetica,sans-Serif" font-size="11.00" fill="#000000">username</text>
<polygon fill="#ffffff" stroke="transparent" points="17,-97.7 17,-119.7 184,-119.7 184,-97.7 17,-97.7"/>
<polygon fill="none" stroke="#000000" points="17,-97.7 17,-119.7 184,-119.7 184,-97.7 17,-97.7"/>
<text text-anchor="start" x="37" y="-104.8" font-family="Helvetica,sans-Serif" font-size="11.00" fill="#000000">google_signin_email</text>
<polygon fill="#ffffff" stroke="transparent" points="17,-75.7 17,-97.7 184,-97.7 184,-75.7 17,-75.7"/>
<polygon fill="none" stroke="#000000" points="17,-75.7 17,-97.7 184,-97.7 184,-75.7 17,-75.7"/>
<text text-anchor="start" x="37" y="-82.8" font-family="Helvetica,sans-Serif" font-size="11.00" fill="#000000">abook_type</text>
<polygon fill="none" stroke="#000000" points="17,-56.7 17,-75.7 184,-75.7 184,-56.7 17,-56.7"/>
<text text-anchor="start" x="20" y="-62.8" font-family="Helvetica,sans-Serif" font-size="11.00" fill="#000000">...</text>
<polygon fill="#ffffff" stroke="transparent" points="17,-37.7 17,-56.7 87,-56.7 87,-37.7 17,-37.7"/>
<polygon fill="none" stroke="#000000" points="17,-37.7 17,-56.7 87,-56.7 87,-37.7 17,-37.7"/>
<text text-anchor="start" x="20" y="-43.8" font-family="Helvetica,sans-Serif" font-size="11.00" fill="#000000"> &#160;</text>
<polygon fill="#ffffff" stroke="transparent" points="87,-37.7 87,-56.7 128,-56.7 128,-37.7 87,-37.7"/>
<polygon fill="none" stroke="#000000" points="87,-37.7 87,-56.7 128,-56.7 128,-37.7 87,-37.7"/>
<text text-anchor="start" x="118.8862" y="-43.8" font-family="Helvetica,sans-Serif" font-size="11.00" fill="#000000"> &#160;</text>
<polygon fill="#ffffff" stroke="transparent" points="128,-37.7 128,-56.7 184,-56.7 184,-37.7 128,-37.7"/>
<polygon fill="none" stroke="#000000" points="128,-37.7 128,-56.7 184,-56.7 184,-37.7 128,-37.7"/>
<text text-anchor="start" x="159.2904" y="-43.8" font-family="Helvetica,sans-Serif" font-size="11.00" fill="#000000">38 &gt;</text>
</a>
</g>
</g>
<!-- therapy_groups_counselors&#45;&gt;users -->
<g id="edge2" class="edge">
<title>therapy_groups_counselors:w&#45;&gt;users:e</title>
<path fill="none" stroke="#000000" d="M229.3295,-212.2044C211.8953,-202.2894 210.3441,-174.7 184,-174.7"/>
<polygon fill="#000000" stroke="#000000" points="235.7328,-213.7839 242.6378,-219.1952 239.6164,-214.742 243.5,-215.7 243.5,-215.7 243.5,-215.7 239.6164,-214.742 244.3622,-212.2048 235.7328,-213.7839 235.7328,-213.7839"/>
<ellipse fill="none" stroke="#000000" cx="232.626" cy="-213.0175" rx="3.2" ry="3.2"/>
</g>
</g>
</svg>
