<?xml version="1.0" encoding="UTF-8" standalone="no"?>
<!DOCTYPE svg PUBLIC "-//W3C//DTD SVG 1.1//EN"
 "http://www.w3.org/Graphics/SVG/1.1/DTD/svg11.dtd">
<!-- Generated by graphviz version 2.40.1 (20161225.0304)
 -->
<!-- Title: oneDegreeRelationshipsDiagram Pages: 1 -->
<svg width="577pt" height="545pt"
 viewBox="0.00 0.00 577.00 545.20" xmlns="http://www.w3.org/2000/svg" xmlns:xlink="http://www.w3.org/1999/xlink">
<g id="graph0" class="graph" transform="scale(1 1) rotate(0) translate(4 541.2)">
<title>oneDegreeRelationshipsDiagram</title>
<polygon fill="#ffffff" stroke="transparent" points="-4,4 -4,-541.2 573,-541.2 573,4 -4,4"/>
<text text-anchor="middle" x="72.4936" y="-7.3" font-family="Helvetica,sans-Serif" font-size="11.00" fill="#000000">Generated by SchemaSpy</text>
<!-- therapy_groups_participants -->
<g id="node1" class="node">
<title>therapy_groups_participants</title>
<g id="a_node1"><a xlink:href="../../tables/therapy_groups_participants.html" xlink:title="therapy_groups_participants" target="_top">
<polygon fill="#ffffff" stroke="transparent" points="305,-227.7 305,-405.7 561,-405.7 561,-227.7 305,-227.7"/>
<polygon fill="#f5f5f5" stroke="transparent" points="307,-380.7 307,-403.7 559,-403.7 559,-380.7 307,-380.7"/>
<polygon fill="none" stroke="#000000" points="307,-380.7 307,-403.7 559,-403.7 559,-380.7 307,-380.7"/>
<text text-anchor="start" x="312" y="-389.3" font-family="Helvetica,sans-Serif" font-weight="bold" font-size="11.00" fill="#000000">therapy_groups_participants</text>
<text text-anchor="start" x="524.0437" y="-388.8" font-family="Helvetica,sans-Serif" font-size="11.00" fill="#000000">[table]</text>
<polygon fill="none" stroke="#000000" points="307,-358.7 307,-380.7 499,-380.7 499,-358.7 307,-358.7"/>
<image xlink:href="../../images/primaryKeys.png" width="11px" height="12px" preserveAspectRatio="xMinYMin meet" x="312" y="-375.7"/>
<text text-anchor="start" x="327" y="-365.8" font-family="Helvetica,sans-Serif" font-size="11.00" fill="#000000">group_id</text>
<polygon fill="none" stroke="#000000" points="499,-358.7 499,-380.7 559,-380.7 559,-358.7 499,-358.7"/>
<text text-anchor="start" x="502" y="-366.4" font-family="Helvetica,sans-Serif" font-size="11.00" fill="#000000">int[10]</text>
<polygon fill="none" stroke="#000000" points="307,-336.7 307,-358.7 499,-358.7 499,-336.7 307,-336.7"/>
<image xlink:href="../../images/primaryKeys.png" width="11px" height="12px" preserveAspectRatio="xMinYMin meet" x="312" y="-353.7"/>
<text text-anchor="start" x="327" y="-343.8" font-family="Helvetica,sans-Serif" font-size="11.00" fill="#000000">pid</text>
<polygon fill="none" stroke="#000000" points="499,-336.7 499,-358.7 559,-358.7 559,-336.7 499,-336.7"/>
<text text-anchor="start" x="502" y="-344.4" font-family="Helvetica,sans-Serif" font-size="11.00" fill="#000000">bigint[19]</text>
<polygon fill="none" stroke="#000000" points="307,-314.7 307,-336.7 499,-336.7 499,-314.7 307,-314.7"/>
<text text-anchor="start" x="327" y="-321.8" font-family="Helvetica,sans-Serif" font-size="11.00" fill="#000000">group_patient_status</text>
<polygon fill="none" stroke="#000000" points="499,-314.7 499,-336.7 559,-336.7 559,-314.7 499,-314.7"/>
<text text-anchor="start" x="502" y="-322.4" font-family="Helvetica,sans-Serif" font-size="11.00" fill="#000000">int[10]</text>
<polygon fill="none" stroke="#000000" points="307,-292.7 307,-314.7 499,-314.7 499,-292.7 307,-292.7"/>
<text text-anchor="start" x="327" y="-299.8" font-family="Helvetica,sans-Serif" font-size="11.00" fill="#000000">group_patient_start</text>
<polygon fill="none" stroke="#000000" points="499,-292.7 499,-314.7 559,-314.7 559,-292.7 499,-292.7"/>
<text text-anchor="start" x="502" y="-300.4" font-family="Helvetica,sans-Serif" font-size="11.00" fill="#000000">date[10]</text>
<polygon fill="none" stroke="#000000" points="307,-270.7 307,-292.7 499,-292.7 499,-270.7 307,-270.7"/>
<text text-anchor="start" x="327" y="-277.8" font-family="Helvetica,sans-Serif" font-size="11.00" fill="#000000">group_patient_end</text>
<polygon fill="none" stroke="#000000" points="499,-270.7 499,-292.7 559,-292.7 559,-270.7 499,-270.7"/>
<text text-anchor="start" x="502" y="-278.4" font-family="Helvetica,sans-Serif" font-size="11.00" fill="#000000">date[10]</text>
<polygon fill="none" stroke="#000000" points="307,-248.7 307,-270.7 499,-270.7 499,-248.7 307,-248.7"/>
<text text-anchor="start" x="327" y="-255.8" font-family="Helvetica,sans-Serif" font-size="11.00" fill="#000000">group_patient_comment</text>
<polygon fill="none" stroke="#000000" points="499,-248.7 499,-270.7 559,-270.7 559,-248.7 499,-248.7"/>
<text text-anchor="start" x="501.7915" y="-256.4" font-family="Helvetica,sans-Serif" font-size="11.00" fill="#000000">text[65535]</text>
<polygon fill="#ffffff" stroke="transparent" points="307,-229.7 307,-248.7 407,-248.7 407,-229.7 307,-229.7"/>
<polygon fill="none" stroke="#000000" points="307,-229.7 307,-248.7 407,-248.7 407,-229.7 307,-229.7"/>
<text text-anchor="start" x="310" y="-235.8" font-family="Helvetica,sans-Serif" font-size="11.00" fill="#000000">&lt; 2</text>
<polygon fill="#ffffff" stroke="transparent" points="407,-229.7 407,-248.7 499,-248.7 499,-229.7 407,-229.7"/>
<polygon fill="none" stroke="#000000" points="407,-229.7 407,-248.7 499,-248.7 499,-229.7 407,-229.7"/>
<text text-anchor="start" x="489.8862" y="-235.8" font-family="Helvetica,sans-Serif" font-size="11.00" fill="#000000"> &#160;</text>
<polygon fill="#ffffff" stroke="transparent" points="499,-229.7 499,-248.7 559,-248.7 559,-229.7 499,-229.7"/>
<polygon fill="none" stroke="#000000" points="499,-229.7 499,-248.7 559,-248.7 559,-229.7 499,-229.7"/>
<text text-anchor="start" x="540.4053" y="-235.8" font-family="Helvetica,sans-Serif" font-size="11.00" fill="#000000">0 &gt;</text>
<polygon fill="none" stroke="#000000" stroke-width="2" points="306,-228.7 306,-404.7 560,-404.7 560,-228.7 306,-228.7"/>
</a>
</g>
</g>
<!-- therapy_groups -->
<g id="node2" class="node">
<title>therapy_groups</title>
<g id="a_node2"><a xlink:href="../../tables/therapy_groups.html" xlink:title="therapy_groups" target="_top">
<polygon fill="#ffffff" stroke="transparent" points="49.5,-450.2 49.5,-533.2 214.5,-533.2 214.5,-450.2 49.5,-450.2"/>
<polygon fill="#f5f5f5" stroke="transparent" points="50,-509.7 50,-532.7 215,-532.7 215,-509.7 50,-509.7"/>
<polygon fill="none" stroke="#000000" points="50,-509.7 50,-532.7 215,-532.7 215,-509.7 50,-509.7"/>
<text text-anchor="start" x="55" y="-518.3" font-family="Helvetica,sans-Serif" font-weight="bold" font-size="11.00" fill="#000000">therapy_groups</text>
<text text-anchor="start" x="180.0437" y="-517.8" font-family="Helvetica,sans-Serif" font-size="11.00" fill="#000000">[table]</text>
<polygon fill="none" stroke="#000000" points="50,-487.7 50,-509.7 215,-509.7 215,-487.7 50,-487.7"/>
<image xlink:href="../../images/primaryKeys.png" width="11px" height="12px" preserveAspectRatio="xMinYMin meet" x="55" y="-504.7"/>
<text text-anchor="start" x="70" y="-494.8" font-family="Helvetica,sans-Serif" font-size="11.00" fill="#000000">group_id</text>
<polygon fill="none" stroke="#000000" points="50,-468.7 50,-487.7 215,-487.7 215,-468.7 50,-468.7"/>
<text text-anchor="start" x="53" y="-474.8" font-family="Helvetica,sans-Serif" font-size="11.00" fill="#000000">...</text>
<polygon fill="#ffffff" stroke="transparent" points="50,-449.7 50,-468.7 122,-468.7 122,-449.7 50,-449.7"/>
<polygon fill="none" stroke="#000000" points="50,-449.7 50,-468.7 122,-468.7 122,-449.7 50,-449.7"/>
<text text-anchor="start" x="53" y="-455.8" font-family="Helvetica,sans-Serif" font-size="11.00" fill="#000000"> &#160;</text>
<polygon fill="#ffffff" stroke="transparent" points="122,-449.7 122,-468.7 164,-468.7 164,-449.7 122,-449.7"/>
<polygon fill="none" stroke="#000000" points="122,-449.7 122,-468.7 164,-468.7 164,-449.7 122,-449.7"/>
<text text-anchor="start" x="154.8862" y="-455.8" font-family="Helvetica,sans-Serif" font-size="11.00" fill="#000000"> &#160;</text>
<polygon fill="#ffffff" stroke="transparent" points="164,-449.7 164,-468.7 215,-468.7 215,-449.7 164,-449.7"/>
<polygon fill="none" stroke="#000000" points="164,-449.7 164,-468.7 215,-468.7 215,-449.7 164,-449.7"/>
<text text-anchor="start" x="196.4053" y="-455.8" font-family="Helvetica,sans-Serif" font-size="11.00" fill="#000000">6 &gt;</text>
</a>
</g>
</g>
<!-- therapy_groups_participants&#45;&gt;therapy_groups -->
<g id="edge1" class="edge">
<title>therapy_groups_participants:w&#45;&gt;therapy_groups:e</title>
<path fill="none" stroke="#000000" d="M292.7857,-372.7311C274.3687,-382.6451 281.783,-414.8938 264,-439.7 244.1402,-467.4032 249.0863,-498.7 215,-498.7"/>
<polygon fill="#000000" stroke="#000000" points="299.1759,-371.3685 307.7508,-373.2208 303.088,-370.5342 307,-369.7 307,-369.7 307,-369.7 303.088,-370.5342 306.2492,-366.1792 299.1759,-371.3685 299.1759,-371.3685"/>
<ellipse fill="none" stroke="#000000" cx="296.0463" cy="-372.0359" rx="3.2" ry="3.2"/>
</g>
<!-- patient_data -->
<g id="node3" class="node">
<title>patient_data</title>
<g id="a_node3"><a xlink:href="../../tables/patient_data.html" xlink:title="patient_data" target="_top">
<polygon fill="#ffffff" stroke="transparent" points="8,-38.2 8,-429.2 256,-429.2 256,-38.2 8,-38.2"/>
<polygon fill="#f5f5f5" stroke="transparent" points="8,-405.7 8,-428.7 256,-428.7 256,-405.7 8,-405.7"/>
<polygon fill="none" stroke="#000000" points="8,-405.7 8,-428.7 256,-428.7 256,-405.7 8,-405.7"/>
<text text-anchor="start" x="13" y="-414.3" font-family="Helvetica,sans-Serif" font-weight="bold" font-size="11.00" fill="#000000">patient_data</text>
<text text-anchor="start" x="221.0437" y="-413.8" font-family="Helvetica,sans-Serif" font-size="11.00" fill="#000000">[table]</text>
<polygon fill="none" stroke="#000000" points="8,-383.7 8,-405.7 256,-405.7 256,-383.7 8,-383.7"/>
<image xlink:href="../../images/primaryKeys.png" width="11px" height="12px" preserveAspectRatio="xMinYMin meet" x="13" y="-400.7"/>
<text text-anchor="start" x="28" y="-390.8" font-family="Helvetica,sans-Serif" font-size="11.00" fill="#000000">id</text>
<polygon fill="#ffffff" stroke="transparent" points="8,-361.7 8,-383.7 256,-383.7 256,-361.7 8,-361.7"/>
<polygon fill="none" stroke="#000000" points="8,-361.7 8,-383.7 256,-383.7 256,-361.7 8,-361.7"/>
<text text-anchor="start" x="28" y="-368.8" font-family="Helvetica,sans-Serif" font-size="11.00" fill="#000000">uuid</text>
<polygon fill="#ffffff" stroke="transparent" points="8,-339.7 8,-361.7 256,-361.7 256,-339.7 8,-339.7"/>
<polygon fill="none" stroke="#000000" points="8,-339.7 8,-361.7 256,-361.7 256,-339.7 8,-339.7"/>
<text text-anchor="start" x="28" y="-346.8" font-family="Helvetica,sans-Serif" font-size="11.00" fill="#000000">fname</text>
<polygon fill="#ffffff" stroke="transparent" points="8,-317.7 8,-339.7 256,-339.7 256,-317.7 8,-317.7"/>
<polygon fill="none" stroke="#000000" points="8,-317.7 8,-339.7 256,-339.7 256,-317.7 8,-317.7"/>
<text text-anchor="start" x="28" y="-324.8" font-family="Helvetica,sans-Serif" font-size="11.00" fill="#000000">lname</text>
<polygon fill="#ffffff" stroke="transparent" points="8,-295.7 8,-317.7 256,-317.7 256,-295.7 8,-295.7"/>
<polygon fill="none" stroke="#000000" points="8,-295.7 8,-317.7 256,-317.7 256,-295.7 8,-295.7"/>
<text text-anchor="start" x="28" y="-302.8" font-family="Helvetica,sans-Serif" font-size="11.00" fill="#000000">DOB</text>
<polygon fill="none" stroke="#000000" points="8,-273.7 8,-295.7 256,-295.7 256,-273.7 8,-273.7"/>
<image xlink:href="../../images/foreignKeys.png" width="11px" height="12px" preserveAspectRatio="xMinYMin meet" x="13" y="-290.7"/>
<text text-anchor="start" x="28" y="-280.8" font-family="Helvetica,sans-Serif" font-size="11.00" fill="#000000">pharmacy_id</text>
<polygon fill="none" stroke="#000000" points="8,-251.7 8,-273.7 256,-273.7 256,-251.7 8,-251.7"/>
<image xlink:href="../../images/foreignKeys.png" width="11px" height="12px" preserveAspectRatio="xMinYMin meet" x="13" y="-268.7"/>
<text text-anchor="start" x="28" y="-258.8" font-family="Helvetica,sans-Serif" font-size="11.00" fill="#000000">providerID</text>
<polygon fill="none" stroke="#000000" points="8,-229.7 8,-251.7 256,-251.7 256,-229.7 8,-229.7"/>
<image xlink:href="../../images/foreignKeys.png" width="11px" height="12px" preserveAspectRatio="xMinYMin meet" x="13" y="-246.7"/>
<text text-anchor="start" x="28" y="-236.8" font-family="Helvetica,sans-Serif" font-size="11.00" fill="#000000">ref_providerID</text>
<polygon fill="none" stroke="#000000" points="8,-207.7 8,-229.7 256,-229.7 256,-207.7 8,-207.7"/>
<image xlink:href="../../images/primaryKeys.png" width="11px" height="12px" preserveAspectRatio="xMinYMin meet" x="13" y="-224.7"/>
<text text-anchor="start" x="28" y="-214.8" font-family="Helvetica,sans-Serif" font-size="11.00" fill="#000000">pid</text>
<polygon fill="none" stroke="#000000" points="8,-185.7 8,-207.7 256,-207.7 256,-185.7 8,-185.7"/>
<image xlink:href="../../images/foreignKeys.png" width="11px" height="12px" preserveAspectRatio="xMinYMin meet" x="13" y="-202.7"/>
<text text-anchor="start" x="28" y="-192.8" font-family="Helvetica,sans-Serif" font-size="11.00" fill="#000000">created_by</text>
<polygon fill="none" stroke="#000000" points="8,-163.7 8,-185.7 256,-185.7 256,-163.7 8,-163.7"/>
<image xlink:href="../../images/foreignKeys.png" width="11px" height="12px" preserveAspectRatio="xMinYMin meet" x="13" y="-180.7"/>
<text text-anchor="start" x="28" y="-170.8" font-family="Helvetica,sans-Serif" font-size="11.00" fill="#000000">updated_by</text>
<polygon fill="none" stroke="#000000" points="8,-141.7 8,-163.7 256,-163.7 256,-141.7 8,-141.7"/>
<image xlink:href="../../images/foreignKeys.png" width="11px" height="12px" preserveAspectRatio="xMinYMin meet" x="13" y="-158.7"/>
<text text-anchor="start" x="28" y="-148.8" font-family="Helvetica,sans-Serif" font-size="11.00" fill="#000000">tribal_affiliations</text>
<polygon fill="none" stroke="#000000" points="8,-119.7 8,-141.7 256,-141.7 256,-119.7 8,-119.7"/>
<image xlink:href="../../images/foreignKeys.png" width="11px" height="12px" preserveAspectRatio="xMinYMin meet" x="13" y="-136.7"/>
<text text-anchor="start" x="28" y="-126.8" font-family="Helvetica,sans-Serif" font-size="11.00" fill="#000000">sex_identified</text>
<polygon fill="none" stroke="#000000" points="8,-97.7 8,-119.7 256,-119.7 256,-97.7 8,-97.7"/>
<image xlink:href="../../images/foreignKeys.png" width="11px" height="12px" preserveAspectRatio="xMinYMin meet" x="13" y="-114.7"/>
<text text-anchor="start" x="28" y="-104.8" font-family="Helvetica,sans-Serif" font-size="11.00" fill="#000000">interpreter_needed</text>
<polygon fill="none" stroke="#000000" points="8,-75.7 8,-97.7 256,-97.7 256,-75.7 8,-75.7"/>
<image xlink:href="../../images/foreignKeys.png" width="11px" height="12px" preserveAspectRatio="xMinYMin meet" x="13" y="-92.7"/>
<text text-anchor="start" x="28" y="-82.8" font-family="Helvetica,sans-Serif" font-size="11.00" fill="#000000">advance_directive_user_authenticator</text>
<polygon fill="none" stroke="#000000" points="8,-56.7 8,-75.7 256,-75.7 256,-56.7 8,-56.7"/>
<text text-anchor="start" x="11" y="-62.8" font-family="Helvetica,sans-Serif" font-size="11.00" fill="#000000">...</text>
<polygon fill="#ffffff" stroke="transparent" points="8,-37.7 8,-56.7 123,-56.7 123,-37.7 8,-37.7"/>
<polygon fill="none" stroke="#000000" points="8,-37.7 8,-56.7 123,-56.7 123,-37.7 8,-37.7"/>
<text text-anchor="start" x="11" y="-43.8" font-family="Helvetica,sans-Serif" font-size="11.00" fill="#000000">&lt; 9</text>
<polygon fill="#ffffff" stroke="transparent" points="123,-37.7 123,-56.7 182,-56.7 182,-37.7 123,-37.7"/>
<polygon fill="none" stroke="#000000" points="123,-37.7 123,-56.7 182,-56.7 182,-37.7 123,-37.7"/>
<text text-anchor="start" x="172.8862" y="-43.8" font-family="Helvetica,sans-Serif" font-size="11.00" fill="#000000"> &#160;</text>
<polygon fill="#ffffff" stroke="transparent" points="182,-37.7 182,-56.7 256,-56.7 256,-37.7 182,-37.7"/>
<polygon fill="none" stroke="#000000" points="182,-37.7 182,-56.7 256,-56.7 256,-37.7 182,-37.7"/>
<text text-anchor="start" x="231.2904" y="-43.8" font-family="Helvetica,sans-Serif" font-size="11.00" fill="#000000">97 &gt;</text>
</a>
</g>
</g>
<!-- therapy_groups_participants&#45;&gt;patient_data -->
<g id="edge2" class="edge">
<title>therapy_groups_participants:w&#45;&gt;patient_data:e</title>
<path fill="none" stroke="#000000" d="M292.521,-344.2496C258.1928,-323.7349 311.6307,-218.7 256,-218.7"/>
<polygon fill="#000000" stroke="#000000" points="299.2179,-345.8454 306.1654,-351.2019 303.109,-346.7727 307,-347.7 307,-347.7 307,-347.7 303.109,-346.7727 307.8346,-344.1981 299.2179,-345.8454 299.2179,-345.8454"/>
<ellipse fill="none" stroke="#000000" cx="296.1051" cy="-345.1036" rx="3.2" ry="3.2"/>
</g>
</g>
</svg>
