<?xml version="1.0" encoding="UTF-8" standalone="no"?>
<!DOCTYPE svg PUBLIC "-//W3C//DTD SVG 1.1//EN"
 "http://www.w3.org/Graphics/SVG/1.1/DTD/svg11.dtd">
<!-- Generated by graphviz version 2.40.1 (20161225.0304)
 -->
<!-- Title: oneDegreeRelationshipsDiagram Pages: 1 -->
<svg width="595pt" height="287pt"
 viewBox="0.00 0.00 595.00 287.20" xmlns="http://www.w3.org/2000/svg" xmlns:xlink="http://www.w3.org/1999/xlink">
<g id="graph0" class="graph" transform="scale(1 1) rotate(0) translate(4 283.2)">
<title>oneDegreeRelationshipsDiagram</title>
<polygon fill="#ffffff" stroke="transparent" points="-4,4 -4,-283.2 591,-283.2 591,4 -4,4"/>
<text text-anchor="middle" x="72.4936" y="-7.3" font-family="Helvetica,sans-Serif" font-size="11.00" fill="#000000">Generated by SchemaSpy</text>
<!-- therapy_groups_participant_attendance -->
<g id="node1" class="node">
<title>therapy_groups_participant_attendance</title>
<g id="a_node1"><a xlink:href="../../tables/therapy_groups_participant_attendance.html" xlink:title="therapy_groups_participant_attendance" target="_top">
<polygon fill="#ffffff" stroke="transparent" points="224,-54.7 224,-188.7 579,-188.7 579,-54.7 224,-54.7"/>
<polygon fill="#f5f5f5" stroke="transparent" points="226.5,-163.7 226.5,-186.7 577.5,-186.7 577.5,-163.7 226.5,-163.7"/>
<polygon fill="none" stroke="#000000" points="226.5,-163.7 226.5,-186.7 577.5,-186.7 577.5,-163.7 226.5,-163.7"/>
<text text-anchor="start" x="231.5" y="-172.3" font-family="Helvetica,sans-Serif" font-weight="bold" font-size="11.00" fill="#000000">therapy_groups_participant_attendance</text>
<text text-anchor="start" x="542.5437" y="-171.8" font-family="Helvetica,sans-Serif" font-size="11.00" fill="#000000">[table]</text>
<polygon fill="none" stroke="#000000" points="226.5,-141.7 226.5,-163.7 516.5,-163.7 516.5,-141.7 226.5,-141.7"/>
<image xlink:href="../../images/primaryKeys.png" width="11px" height="12px" preserveAspectRatio="xMinYMin meet" x="231.5" y="-158.7"/>
<text text-anchor="start" x="246.5" y="-148.8" font-family="Helvetica,sans-Serif" font-size="11.00" fill="#000000">form_id</text>
<polygon fill="none" stroke="#000000" points="516.5,-141.7 516.5,-163.7 577.5,-163.7 577.5,-141.7 516.5,-141.7"/>
<text text-anchor="start" x="519.5" y="-149.4" font-family="Helvetica,sans-Serif" font-size="11.00" fill="#000000">int[10]</text>
<polygon fill="none" stroke="#000000" points="226.5,-119.7 226.5,-141.7 516.5,-141.7 516.5,-119.7 226.5,-119.7"/>
<image xlink:href="../../images/primaryKeys.png" width="11px" height="12px" preserveAspectRatio="xMinYMin meet" x="231.5" y="-136.7"/>
<text text-anchor="start" x="246.5" y="-126.8" font-family="Helvetica,sans-Serif" font-size="11.00" fill="#000000">pid</text>
<polygon fill="none" stroke="#000000" points="516.5,-119.7 516.5,-141.7 577.5,-141.7 577.5,-119.7 516.5,-119.7"/>
<text text-anchor="start" x="519.5" y="-127.4" font-family="Helvetica,sans-Serif" font-size="11.00" fill="#000000">bigint[19]</text>
<polygon fill="none" stroke="#000000" points="226.5,-97.7 226.5,-119.7 516.5,-119.7 516.5,-97.7 226.5,-97.7"/>
<text text-anchor="start" x="246.5" y="-104.8" font-family="Helvetica,sans-Serif" font-size="11.00" fill="#000000">meeting_patient_comment</text>
<polygon fill="none" stroke="#000000" points="516.5,-97.7 516.5,-119.7 577.5,-119.7 577.5,-97.7 516.5,-97.7"/>
<text text-anchor="start" x="519.5" y="-105.4" font-family="Helvetica,sans-Serif" font-size="11.00" fill="#000000">text[65535]</text>
<polygon fill="none" stroke="#000000" points="226.5,-75.7 226.5,-97.7 516.5,-97.7 516.5,-75.7 226.5,-75.7"/>
<text text-anchor="start" x="246.5" y="-82.8" font-family="Helvetica,sans-Serif" font-size="11.00" fill="#000000">meeting_patient_status</text>
<polygon fill="none" stroke="#000000" points="516.5,-75.7 516.5,-97.7 577.5,-97.7 577.5,-75.7 516.5,-75.7"/>
<text text-anchor="start" x="519.494" y="-83.4" font-family="Helvetica,sans-Serif" font-size="11.00" fill="#000000">varchar[15]</text>
<polygon fill="#ffffff" stroke="transparent" points="226.5,-56.7 226.5,-75.7 375.5,-75.7 375.5,-56.7 226.5,-56.7"/>
<polygon fill="none" stroke="#000000" points="226.5,-56.7 226.5,-75.7 375.5,-75.7 375.5,-56.7 226.5,-56.7"/>
<text text-anchor="start" x="229.5" y="-62.8" font-family="Helvetica,sans-Serif" font-size="11.00" fill="#000000">&lt; 1</text>
<polygon fill="#ffffff" stroke="transparent" points="375.5,-56.7 375.5,-75.7 516.5,-75.7 516.5,-56.7 375.5,-56.7"/>
<polygon fill="none" stroke="#000000" points="375.5,-56.7 375.5,-75.7 516.5,-75.7 516.5,-56.7 375.5,-56.7"/>
<text text-anchor="start" x="507.3862" y="-62.8" font-family="Helvetica,sans-Serif" font-size="11.00" fill="#000000"> &#160;</text>
<polygon fill="#ffffff" stroke="transparent" points="516.5,-56.7 516.5,-75.7 577.5,-75.7 577.5,-56.7 516.5,-56.7"/>
<polygon fill="none" stroke="#000000" points="516.5,-56.7 516.5,-75.7 577.5,-75.7 577.5,-56.7 516.5,-56.7"/>
<text text-anchor="start" x="558.9053" y="-62.8" font-family="Helvetica,sans-Serif" font-size="11.00" fill="#000000">0 &gt;</text>
<polygon fill="none" stroke="#000000" stroke-width="2" points="225,-55.7 225,-187.7 578,-187.7 578,-55.7 225,-55.7"/>
</a>
</g>
</g>
<!-- patient_data -->
<g id="node2" class="node">
<title>patient_data</title>
<g id="a_node2"><a xlink:href="../../tables/patient_data.html" xlink:title="patient_data" target="_top">
<polygon fill="#ffffff" stroke="transparent" points="8,-38.2 8,-275.2 175,-275.2 175,-38.2 8,-38.2"/>
<polygon fill="#f5f5f5" stroke="transparent" points="8.5,-251.7 8.5,-274.7 175.5,-274.7 175.5,-251.7 8.5,-251.7"/>
<polygon fill="none" stroke="#000000" points="8.5,-251.7 8.5,-274.7 175.5,-274.7 175.5,-251.7 8.5,-251.7"/>
<text text-anchor="start" x="13.5" y="-260.3" font-family="Helvetica,sans-Serif" font-weight="bold" font-size="11.00" fill="#000000">patient_data</text>
<text text-anchor="start" x="140.5437" y="-259.8" font-family="Helvetica,sans-Serif" font-size="11.00" fill="#000000">[table]</text>
<polygon fill="#ffffff" stroke="transparent" points="8.5,-229.7 8.5,-251.7 175.5,-251.7 175.5,-229.7 8.5,-229.7"/>
<polygon fill="none" stroke="#000000" points="8.5,-229.7 8.5,-251.7 175.5,-251.7 175.5,-229.7 8.5,-229.7"/>
<text text-anchor="start" x="28.5" y="-236.8" font-family="Helvetica,sans-Serif" font-size="11.00" fill="#000000">id</text>
<polygon fill="#ffffff" stroke="transparent" points="8.5,-207.7 8.5,-229.7 175.5,-229.7 175.5,-207.7 8.5,-207.7"/>
<polygon fill="none" stroke="#000000" points="8.5,-207.7 8.5,-229.7 175.5,-229.7 175.5,-207.7 8.5,-207.7"/>
<text text-anchor="start" x="28.5" y="-214.8" font-family="Helvetica,sans-Serif" font-size="11.00" fill="#000000">uuid</text>
<polygon fill="none" stroke="#000000" points="8.5,-185.7 8.5,-207.7 175.5,-207.7 175.5,-185.7 8.5,-185.7"/>
<image xlink:href="../../images/foreignKeys.png" width="11px" height="12px" preserveAspectRatio="xMinYMin meet" x="13.5" y="-202.7"/>
<text text-anchor="start" x="28.5" y="-192.8" font-family="Helvetica,sans-Serif" font-size="11.00" fill="#000000">pharmacy_id</text>
<polygon fill="none" stroke="#000000" points="8.5,-163.7 8.5,-185.7 175.5,-185.7 175.5,-163.7 8.5,-163.7"/>
<image xlink:href="../../images/foreignKeys.png" width="11px" height="12px" preserveAspectRatio="xMinYMin meet" x="13.5" y="-180.7"/>
<text text-anchor="start" x="28.5" y="-170.8" font-family="Helvetica,sans-Serif" font-size="11.00" fill="#000000">providerID</text>
<polygon fill="none" stroke="#000000" points="8.5,-141.7 8.5,-163.7 175.5,-163.7 175.5,-141.7 8.5,-141.7"/>
<image xlink:href="../../images/foreignKeys.png" width="11px" height="12px" preserveAspectRatio="xMinYMin meet" x="13.5" y="-158.7"/>
<text text-anchor="start" x="28.5" y="-148.8" font-family="Helvetica,sans-Serif" font-size="11.00" fill="#000000">ref_providerID</text>
<polygon fill="none" stroke="#000000" points="8.5,-119.7 8.5,-141.7 175.5,-141.7 175.5,-119.7 8.5,-119.7"/>
<image xlink:href="../../images/primaryKeys.png" width="11px" height="12px" preserveAspectRatio="xMinYMin meet" x="13.5" y="-136.7"/>
<text text-anchor="start" x="28.5" y="-126.8" font-family="Helvetica,sans-Serif" font-size="11.00" fill="#000000">pid</text>
<polygon fill="none" stroke="#000000" points="8.5,-97.7 8.5,-119.7 175.5,-119.7 175.5,-97.7 8.5,-97.7"/>
<image xlink:href="../../images/foreignKeys.png" width="11px" height="12px" preserveAspectRatio="xMinYMin meet" x="13.5" y="-114.7"/>
<text text-anchor="start" x="28.5" y="-104.8" font-family="Helvetica,sans-Serif" font-size="11.00" fill="#000000">created_by</text>
<polygon fill="none" stroke="#000000" points="8.5,-75.7 8.5,-97.7 175.5,-97.7 175.5,-75.7 8.5,-75.7"/>
<image xlink:href="../../images/foreignKeys.png" width="11px" height="12px" preserveAspectRatio="xMinYMin meet" x="13.5" y="-92.7"/>
<text text-anchor="start" x="28.5" y="-82.8" font-family="Helvetica,sans-Serif" font-size="11.00" fill="#000000">updated_by</text>
<polygon fill="none" stroke="#000000" points="8.5,-56.7 8.5,-75.7 175.5,-75.7 175.5,-56.7 8.5,-56.7"/>
<text text-anchor="start" x="11.5" y="-62.8" font-family="Helvetica,sans-Serif" font-size="11.00" fill="#000000">...</text>
<polygon fill="#ffffff" stroke="transparent" points="8.5,-37.7 8.5,-56.7 82.5,-56.7 82.5,-37.7 8.5,-37.7"/>
<polygon fill="none" stroke="#000000" points="8.5,-37.7 8.5,-56.7 82.5,-56.7 82.5,-37.7 8.5,-37.7"/>
<text text-anchor="start" x="11.5" y="-43.8" font-family="Helvetica,sans-Serif" font-size="11.00" fill="#000000">&lt; 5</text>
<polygon fill="#ffffff" stroke="transparent" points="82.5,-37.7 82.5,-56.7 121.5,-56.7 121.5,-37.7 82.5,-37.7"/>
<polygon fill="none" stroke="#000000" points="82.5,-37.7 82.5,-56.7 121.5,-56.7 121.5,-37.7 82.5,-37.7"/>
<text text-anchor="start" x="112.3862" y="-43.8" font-family="Helvetica,sans-Serif" font-size="11.00" fill="#000000"> &#160;</text>
<polygon fill="#ffffff" stroke="transparent" points="121.5,-37.7 121.5,-56.7 175.5,-56.7 175.5,-37.7 121.5,-37.7"/>
<polygon fill="none" stroke="#000000" points="121.5,-37.7 121.5,-56.7 175.5,-56.7 175.5,-37.7 121.5,-37.7"/>
<text text-anchor="start" x="150.7904" y="-43.8" font-family="Helvetica,sans-Serif" font-size="11.00" fill="#000000">80 &gt;</text>
</a>
</g>
</g>
<!-- therapy_groups_participant_attendance&#45;&gt;patient_data -->
<g id="edge1" class="edge">
<title>therapy_groups_participant_attendance:w&#45;&gt;patient_data:e</title>
<path fill="none" stroke="#000000" d="M211.776,-130.7C199.7815,-130.7 192.3229,-130.7 175.5,-130.7"/>
<polygon fill="#000000" stroke="#000000" points="218.5,-130.7001 226.5,-134.3 222.5,-130.7 226.5,-130.7 226.5,-130.7 226.5,-130.7 222.5,-130.7 226.5,-127.1 218.5,-130.7001 218.5,-130.7001"/>
<ellipse fill="none" stroke="#000000" cx="215.3" cy="-130.7001" rx="3.2" ry="3.2"/>
</g>
</g>
</svg>
