<?xml version="1.0" encoding="UTF-8" standalone="no"?>
<!DOCTYPE svg PUBLIC "-//W3C//DTD SVG 1.1//EN"
 "http://www.w3.org/Graphics/SVG/1.1/DTD/svg11.dtd">
<!-- Generated by graphviz version 2.40.1 (20161225.0304)
 -->
<!-- Title: oneDegreeRelationshipsDiagram Pages: 1 -->
<svg width="558pt" height="312pt"
 viewBox="0.00 0.00 558.00 311.70" xmlns="http://www.w3.org/2000/svg" xmlns:xlink="http://www.w3.org/1999/xlink">
<g id="graph0" class="graph" transform="scale(1 1) rotate(0) translate(4 307.7)">
<title>oneDegreeRelationshipsDiagram</title>
<polygon fill="#ffffff" stroke="transparent" points="-4,4 -4,-307.7 554,-307.7 554,4 -4,4"/>
<text text-anchor="middle" x="72.4936" y="-7.3" font-family="Helvetica,sans-Serif" font-size="11.00" fill="#000000">Generated by SchemaSpy</text>
<!-- lbf_data -->
<g id="node1" class="node">
<title>lbf_data</title>
<g id="a_node1"><a xlink:href="../../tables/lbf_data.html" xlink:title="lbf_data" target="_top">
<polygon fill="#ffffff" stroke="transparent" points="449,-194.7 449,-299.7 542,-299.7 542,-194.7 449,-194.7"/>
<polygon fill="#f5f5f5" stroke="transparent" points="449.5,-276.2 449.5,-299.2 542.5,-299.2 542.5,-276.2 449.5,-276.2"/>
<polygon fill="none" stroke="#000000" points="449.5,-276.2 449.5,-299.2 542.5,-299.2 542.5,-276.2 449.5,-276.2"/>
<text text-anchor="start" x="454.5" y="-284.8" font-family="Helvetica,sans-Serif" font-weight="bold" font-size="11.00" fill="#000000">lbf_data</text>
<text text-anchor="start" x="508.0219" y="-284.3" font-family="Helvetica,sans-Serif" font-size="11.00" fill="#000000">[table]</text>
<polygon fill="none" stroke="#000000" points="449.5,-254.2 449.5,-276.2 542.5,-276.2 542.5,-254.2 449.5,-254.2"/>
<image xlink:href="../../images/primaryKeys.png" width="11px" height="12px" preserveAspectRatio="xMinYMin meet" x="454.5" y="-271.2"/>
<text text-anchor="start" x="469.5" y="-261.3" font-family="Helvetica,sans-Serif" font-size="11.00" fill="#000000">form_id</text>
<polygon fill="none" stroke="#000000" points="449.5,-232.2 449.5,-254.2 542.5,-254.2 542.5,-232.2 449.5,-232.2"/>
<image xlink:href="../../images/primaryKeys.png" width="11px" height="12px" preserveAspectRatio="xMinYMin meet" x="454.5" y="-249.2"/>
<text text-anchor="start" x="469.5" y="-239.3" font-family="Helvetica,sans-Serif" font-size="11.00" fill="#000000">field_id</text>
<polygon fill="none" stroke="#000000" points="449.5,-213.2 449.5,-232.2 542.5,-232.2 542.5,-213.2 449.5,-213.2"/>
<text text-anchor="start" x="452.5" y="-219.3" font-family="Helvetica,sans-Serif" font-size="11.00" fill="#000000">...</text>
<polygon fill="#ffffff" stroke="transparent" points="449.5,-194.2 449.5,-213.2 494.5,-213.2 494.5,-194.2 449.5,-194.2"/>
<polygon fill="none" stroke="#000000" points="449.5,-194.2 449.5,-213.2 494.5,-213.2 494.5,-194.2 449.5,-194.2"/>
<text text-anchor="start" x="452.5" y="-200.3" font-family="Helvetica,sans-Serif" font-size="11.00" fill="#000000">&lt; 2</text>
<polygon fill="#ffffff" stroke="transparent" points="494.5,-194.2 494.5,-213.2 518.5,-213.2 518.5,-194.2 494.5,-194.2"/>
<polygon fill="none" stroke="#000000" points="494.5,-194.2 494.5,-213.2 518.5,-213.2 518.5,-194.2 494.5,-194.2"/>
<text text-anchor="start" x="509.3862" y="-200.3" font-family="Helvetica,sans-Serif" font-size="11.00" fill="#000000"> &#160;</text>
<polygon fill="#ffffff" stroke="transparent" points="518.5,-194.2 518.5,-213.2 542.5,-213.2 542.5,-194.2 518.5,-194.2"/>
<polygon fill="none" stroke="#000000" points="518.5,-194.2 518.5,-213.2 542.5,-213.2 542.5,-194.2 518.5,-194.2"/>
<text text-anchor="start" x="533.3862" y="-200.3" font-family="Helvetica,sans-Serif" font-size="11.00" fill="#000000"> &#160;</text>
</a>
</g>
</g>
<!-- transactions -->
<g id="node2" class="node">
<title>transactions</title>
<g id="a_node2"><a xlink:href="../../tables/transactions.html" xlink:title="transactions" target="_top">
<polygon fill="#ffffff" stroke="transparent" points="224,-38.2 224,-238.2 400,-238.2 400,-38.2 224,-38.2"/>
<polygon fill="#f5f5f5" stroke="transparent" points="226,-213.2 226,-236.2 398,-236.2 398,-213.2 226,-213.2"/>
<polygon fill="none" stroke="#000000" points="226,-213.2 226,-236.2 398,-236.2 398,-213.2 226,-213.2"/>
<text text-anchor="start" x="231" y="-221.8" font-family="Helvetica,sans-Serif" font-weight="bold" font-size="11.00" fill="#000000">transactions</text>
<text text-anchor="start" x="363.0437" y="-221.3" font-family="Helvetica,sans-Serif" font-size="11.00" fill="#000000">[table]</text>
<polygon fill="none" stroke="#000000" points="226,-191.2 226,-213.2 331,-213.2 331,-191.2 226,-191.2"/>
<image xlink:href="../../images/primaryKeys.png" width="11px" height="12px" preserveAspectRatio="xMinYMin meet" x="231" y="-208.2"/>
<text text-anchor="start" x="246" y="-198.3" font-family="Helvetica,sans-Serif" font-size="11.00" fill="#000000">id</text>
<polygon fill="none" stroke="#000000" points="331,-191.2 331,-213.2 398,-213.2 398,-191.2 331,-191.2"/>
<text text-anchor="start" x="334" y="-198.9" font-family="Helvetica,sans-Serif" font-size="11.00" fill="#000000">bigint[19]</text>
<polygon fill="none" stroke="#000000" points="226,-169.2 226,-191.2 331,-191.2 331,-169.2 226,-169.2"/>
<text text-anchor="start" x="246" y="-176.3" font-family="Helvetica,sans-Serif" font-size="11.00" fill="#000000">date</text>
<polygon fill="none" stroke="#000000" points="331,-169.2 331,-191.2 398,-191.2 398,-169.2 331,-169.2"/>
<text text-anchor="start" x="334" y="-176.9" font-family="Helvetica,sans-Serif" font-size="11.00" fill="#000000">datetime[19]</text>
<polygon fill="none" stroke="#000000" points="226,-147.2 226,-169.2 331,-169.2 331,-147.2 226,-147.2"/>
<text text-anchor="start" x="246" y="-154.3" font-family="Helvetica,sans-Serif" font-size="11.00" fill="#000000">title</text>
<polygon fill="none" stroke="#000000" points="331,-147.2 331,-169.2 398,-169.2 398,-147.2 331,-147.2"/>
<text text-anchor="start" x="333.9365" y="-154.9" font-family="Helvetica,sans-Serif" font-size="11.00" fill="#000000">varchar[255]</text>
<polygon fill="#ffffff" stroke="transparent" points="226,-125.2 226,-147.2 331,-147.2 331,-125.2 226,-125.2"/>
<polygon fill="none" stroke="#000000" points="226,-125.2 226,-147.2 331,-147.2 331,-125.2 226,-125.2"/>
<image xlink:href="../../images/foreignKeys.png" width="11px" height="12px" preserveAspectRatio="xMinYMin meet" x="231" y="-142.2"/>
<text text-anchor="start" x="246" y="-132.3" font-family="Helvetica,sans-Serif" font-size="11.00" fill="#000000">pid</text>
<polygon fill="none" stroke="#000000" points="331,-125.2 331,-147.2 398,-147.2 398,-125.2 331,-125.2"/>
<text text-anchor="start" x="334" y="-132.9" font-family="Helvetica,sans-Serif" font-size="11.00" fill="#000000">bigint[19]</text>
<polygon fill="none" stroke="#000000" points="226,-103.2 226,-125.2 331,-125.2 331,-103.2 226,-103.2"/>
<text text-anchor="start" x="246" y="-110.3" font-family="Helvetica,sans-Serif" font-size="11.00" fill="#000000">user</text>
<polygon fill="none" stroke="#000000" points="331,-103.2 331,-125.2 398,-125.2 398,-103.2 331,-103.2"/>
<text text-anchor="start" x="333.9365" y="-110.9" font-family="Helvetica,sans-Serif" font-size="11.00" fill="#000000">varchar[255]</text>
<polygon fill="none" stroke="#000000" points="226,-81.2 226,-103.2 331,-103.2 331,-81.2 226,-81.2"/>
<text text-anchor="start" x="246" y="-88.3" font-family="Helvetica,sans-Serif" font-size="11.00" fill="#000000">groupname</text>
<polygon fill="none" stroke="#000000" points="331,-81.2 331,-103.2 398,-103.2 398,-81.2 331,-81.2"/>
<text text-anchor="start" x="333.9365" y="-88.9" font-family="Helvetica,sans-Serif" font-size="11.00" fill="#000000">varchar[255]</text>
<polygon fill="none" stroke="#000000" points="226,-59.2 226,-81.2 331,-81.2 331,-59.2 226,-59.2"/>
<text text-anchor="start" x="246" y="-66.3" font-family="Helvetica,sans-Serif" font-size="11.00" fill="#000000">authorized</text>
<polygon fill="none" stroke="#000000" points="331,-59.2 331,-81.2 398,-81.2 398,-59.2 331,-59.2"/>
<text text-anchor="start" x="334" y="-66.9" font-family="Helvetica,sans-Serif" font-size="11.00" fill="#000000">tinyint[3]</text>
<polygon fill="#ffffff" stroke="transparent" points="226,-40.2 226,-59.2 283,-59.2 283,-40.2 226,-40.2"/>
<polygon fill="none" stroke="#000000" points="226,-40.2 226,-59.2 283,-59.2 283,-40.2 226,-40.2"/>
<text text-anchor="start" x="229" y="-46.3" font-family="Helvetica,sans-Serif" font-size="11.00" fill="#000000">&lt; 1</text>
<polygon fill="#ffffff" stroke="transparent" points="283,-40.2 283,-59.2 331,-59.2 331,-40.2 283,-40.2"/>
<polygon fill="none" stroke="#000000" points="283,-40.2 283,-59.2 331,-59.2 331,-40.2 283,-40.2"/>
<text text-anchor="start" x="321.8862" y="-46.3" font-family="Helvetica,sans-Serif" font-size="11.00" fill="#000000"> &#160;</text>
<polygon fill="#ffffff" stroke="transparent" points="331,-40.2 331,-59.2 398,-59.2 398,-40.2 331,-40.2"/>
<polygon fill="none" stroke="#000000" points="331,-40.2 331,-59.2 398,-59.2 398,-40.2 331,-40.2"/>
<text text-anchor="start" x="379.4053" y="-46.3" font-family="Helvetica,sans-Serif" font-size="11.00" fill="#000000">2 &gt;</text>
<polygon fill="none" stroke="#000000" stroke-width="2" points="225,-39.2 225,-237.2 399,-237.2 399,-39.2 225,-39.2"/>
</a>
</g>
</g>
<!-- lbf_data&#45;&gt;transactions -->
<g id="edge1" class="edge">
<title>lbf_data:w&#45;&gt;transactions:e</title>
<path fill="none" stroke="#000000" d="M435.799,-260.6692C418.6358,-246.2239 428.2316,-202.2 398,-202.2"/>
<polygon fill="#000000" stroke="#000000" points="441.9045,-262.6882 448.3697,-268.618 445.7023,-263.9441 449.5,-265.2 449.5,-265.2 449.5,-265.2 445.7023,-263.9441 450.6303,-261.782 441.9045,-262.6882 441.9045,-262.6882"/>
<ellipse fill="none" stroke="#000000" cx="438.8663" cy="-261.6835" rx="3.2" ry="3.2"/>
</g>
<!-- patient_data -->
<g id="node4" class="node">
<title>patient_data</title>
<g id="a_node4"><a xlink:href="../../tables/patient_data.html" xlink:title="patient_data" target="_top">
<polygon fill="#ffffff" stroke="transparent" points="8,-43.7 8,-280.7 175,-280.7 175,-43.7 8,-43.7"/>
<polygon fill="#f5f5f5" stroke="transparent" points="8.5,-257.2 8.5,-280.2 175.5,-280.2 175.5,-257.2 8.5,-257.2"/>
<polygon fill="none" stroke="#000000" points="8.5,-257.2 8.5,-280.2 175.5,-280.2 175.5,-257.2 8.5,-257.2"/>
<text text-anchor="start" x="13.5" y="-265.8" font-family="Helvetica,sans-Serif" font-weight="bold" font-size="11.00" fill="#000000">patient_data</text>
<text text-anchor="start" x="140.5437" y="-265.3" font-family="Helvetica,sans-Serif" font-size="11.00" fill="#000000">[table]</text>
<polygon fill="#ffffff" stroke="transparent" points="8.5,-235.2 8.5,-257.2 175.5,-257.2 175.5,-235.2 8.5,-235.2"/>
<polygon fill="none" stroke="#000000" points="8.5,-235.2 8.5,-257.2 175.5,-257.2 175.5,-235.2 8.5,-235.2"/>
<text text-anchor="start" x="28.5" y="-242.3" font-family="Helvetica,sans-Serif" font-size="11.00" fill="#000000">id</text>
<polygon fill="#ffffff" stroke="transparent" points="8.5,-213.2 8.5,-235.2 175.5,-235.2 175.5,-213.2 8.5,-213.2"/>
<polygon fill="none" stroke="#000000" points="8.5,-213.2 8.5,-235.2 175.5,-235.2 175.5,-213.2 8.5,-213.2"/>
<text text-anchor="start" x="28.5" y="-220.3" font-family="Helvetica,sans-Serif" font-size="11.00" fill="#000000">uuid</text>
<polygon fill="none" stroke="#000000" points="8.5,-191.2 8.5,-213.2 175.5,-213.2 175.5,-191.2 8.5,-191.2"/>
<image xlink:href="../../images/foreignKeys.png" width="11px" height="12px" preserveAspectRatio="xMinYMin meet" x="13.5" y="-208.2"/>
<text text-anchor="start" x="28.5" y="-198.3" font-family="Helvetica,sans-Serif" font-size="11.00" fill="#000000">pharmacy_id</text>
<polygon fill="none" stroke="#000000" points="8.5,-169.2 8.5,-191.2 175.5,-191.2 175.5,-169.2 8.5,-169.2"/>
<image xlink:href="../../images/foreignKeys.png" width="11px" height="12px" preserveAspectRatio="xMinYMin meet" x="13.5" y="-186.2"/>
<text text-anchor="start" x="28.5" y="-176.3" font-family="Helvetica,sans-Serif" font-size="11.00" fill="#000000">providerID</text>
<polygon fill="none" stroke="#000000" points="8.5,-147.2 8.5,-169.2 175.5,-169.2 175.5,-147.2 8.5,-147.2"/>
<image xlink:href="../../images/foreignKeys.png" width="11px" height="12px" preserveAspectRatio="xMinYMin meet" x="13.5" y="-164.2"/>
<text text-anchor="start" x="28.5" y="-154.3" font-family="Helvetica,sans-Serif" font-size="11.00" fill="#000000">ref_providerID</text>
<polygon fill="none" stroke="#000000" points="8.5,-125.2 8.5,-147.2 175.5,-147.2 175.5,-125.2 8.5,-125.2"/>
<image xlink:href="../../images/primaryKeys.png" width="11px" height="12px" preserveAspectRatio="xMinYMin meet" x="13.5" y="-142.2"/>
<text text-anchor="start" x="28.5" y="-132.3" font-family="Helvetica,sans-Serif" font-size="11.00" fill="#000000">pid</text>
<polygon fill="none" stroke="#000000" points="8.5,-103.2 8.5,-125.2 175.5,-125.2 175.5,-103.2 8.5,-103.2"/>
<image xlink:href="../../images/foreignKeys.png" width="11px" height="12px" preserveAspectRatio="xMinYMin meet" x="13.5" y="-120.2"/>
<text text-anchor="start" x="28.5" y="-110.3" font-family="Helvetica,sans-Serif" font-size="11.00" fill="#000000">created_by</text>
<polygon fill="none" stroke="#000000" points="8.5,-81.2 8.5,-103.2 175.5,-103.2 175.5,-81.2 8.5,-81.2"/>
<image xlink:href="../../images/foreignKeys.png" width="11px" height="12px" preserveAspectRatio="xMinYMin meet" x="13.5" y="-98.2"/>
<text text-anchor="start" x="28.5" y="-88.3" font-family="Helvetica,sans-Serif" font-size="11.00" fill="#000000">updated_by</text>
<polygon fill="none" stroke="#000000" points="8.5,-62.2 8.5,-81.2 175.5,-81.2 175.5,-62.2 8.5,-62.2"/>
<text text-anchor="start" x="11.5" y="-68.3" font-family="Helvetica,sans-Serif" font-size="11.00" fill="#000000">...</text>
<polygon fill="#ffffff" stroke="transparent" points="8.5,-43.2 8.5,-62.2 82.5,-62.2 82.5,-43.2 8.5,-43.2"/>
<polygon fill="none" stroke="#000000" points="8.5,-43.2 8.5,-62.2 82.5,-62.2 82.5,-43.2 8.5,-43.2"/>
<text text-anchor="start" x="11.5" y="-49.3" font-family="Helvetica,sans-Serif" font-size="11.00" fill="#000000">&lt; 5</text>
<polygon fill="#ffffff" stroke="transparent" points="82.5,-43.2 82.5,-62.2 121.5,-62.2 121.5,-43.2 82.5,-43.2"/>
<polygon fill="none" stroke="#000000" points="82.5,-43.2 82.5,-62.2 121.5,-62.2 121.5,-43.2 82.5,-43.2"/>
<text text-anchor="start" x="112.3862" y="-49.3" font-family="Helvetica,sans-Serif" font-size="11.00" fill="#000000"> &#160;</text>
<polygon fill="#ffffff" stroke="transparent" points="121.5,-43.2 121.5,-62.2 175.5,-62.2 175.5,-43.2 121.5,-43.2"/>
<polygon fill="none" stroke="#000000" points="121.5,-43.2 121.5,-62.2 175.5,-62.2 175.5,-43.2 121.5,-43.2"/>
<text text-anchor="start" x="150.7904" y="-49.3" font-family="Helvetica,sans-Serif" font-size="11.00" fill="#000000">85 &gt;</text>
</a>
</g>
</g>
<!-- transactions&#45;&gt;patient_data -->
<g id="edge3" class="edge">
<title>transactions:w&#45;&gt;patient_data:e</title>
<path fill="none" stroke="#000000" d="M211.4203,-136.2C199.5435,-136.2 192.158,-136.2 175.5,-136.2"/>
<polygon fill="#000000" stroke="#000000" points="218,-136.2001 226,-139.8 222,-136.2 226,-136.2 226,-136.2 226,-136.2 222,-136.2 226,-132.6 218,-136.2001 218,-136.2001"/>
<ellipse fill="none" stroke="#000000" cx="214.8" cy="-136.2001" rx="3.2" ry="3.2"/>
</g>
<!-- lbt_data -->
<g id="node3" class="node">
<title>lbt_data</title>
<g id="a_node3"><a xlink:href="../../tables/lbt_data.html" xlink:title="lbt_data" target="_top">
<polygon fill="#ffffff" stroke="transparent" points="449,-68.7 449,-173.7 542,-173.7 542,-68.7 449,-68.7"/>
<polygon fill="#f5f5f5" stroke="transparent" points="449.5,-150.2 449.5,-173.2 542.5,-173.2 542.5,-150.2 449.5,-150.2"/>
<polygon fill="none" stroke="#000000" points="449.5,-150.2 449.5,-173.2 542.5,-173.2 542.5,-150.2 449.5,-150.2"/>
<text text-anchor="start" x="454.5" y="-158.8" font-family="Helvetica,sans-Serif" font-weight="bold" font-size="11.00" fill="#000000">lbt_data</text>
<text text-anchor="start" x="508.0219" y="-158.3" font-family="Helvetica,sans-Serif" font-size="11.00" fill="#000000">[table]</text>
<polygon fill="none" stroke="#000000" points="449.5,-128.2 449.5,-150.2 542.5,-150.2 542.5,-128.2 449.5,-128.2"/>
<image xlink:href="../../images/primaryKeys.png" width="11px" height="12px" preserveAspectRatio="xMinYMin meet" x="454.5" y="-145.2"/>
<text text-anchor="start" x="469.5" y="-135.3" font-family="Helvetica,sans-Serif" font-size="11.00" fill="#000000">form_id</text>
<polygon fill="none" stroke="#000000" points="449.5,-106.2 449.5,-128.2 542.5,-128.2 542.5,-106.2 449.5,-106.2"/>
<image xlink:href="../../images/primaryKeys.png" width="11px" height="12px" preserveAspectRatio="xMinYMin meet" x="454.5" y="-123.2"/>
<text text-anchor="start" x="469.5" y="-113.3" font-family="Helvetica,sans-Serif" font-size="11.00" fill="#000000">field_id</text>
<polygon fill="none" stroke="#000000" points="449.5,-87.2 449.5,-106.2 542.5,-106.2 542.5,-87.2 449.5,-87.2"/>
<text text-anchor="start" x="452.5" y="-93.3" font-family="Helvetica,sans-Serif" font-size="11.00" fill="#000000">...</text>
<polygon fill="#ffffff" stroke="transparent" points="449.5,-68.2 449.5,-87.2 494.5,-87.2 494.5,-68.2 449.5,-68.2"/>
<polygon fill="none" stroke="#000000" points="449.5,-68.2 449.5,-87.2 494.5,-87.2 494.5,-68.2 449.5,-68.2"/>
<text text-anchor="start" x="452.5" y="-74.3" font-family="Helvetica,sans-Serif" font-size="11.00" fill="#000000">&lt; 2</text>
<polygon fill="#ffffff" stroke="transparent" points="494.5,-68.2 494.5,-87.2 518.5,-87.2 518.5,-68.2 494.5,-68.2"/>
<polygon fill="none" stroke="#000000" points="494.5,-68.2 494.5,-87.2 518.5,-87.2 518.5,-68.2 494.5,-68.2"/>
<text text-anchor="start" x="509.3862" y="-74.3" font-family="Helvetica,sans-Serif" font-size="11.00" fill="#000000"> &#160;</text>
<polygon fill="#ffffff" stroke="transparent" points="518.5,-68.2 518.5,-87.2 542.5,-87.2 542.5,-68.2 518.5,-68.2"/>
<polygon fill="none" stroke="#000000" points="518.5,-68.2 518.5,-87.2 542.5,-87.2 542.5,-68.2 518.5,-68.2"/>
<text text-anchor="start" x="533.3862" y="-74.3" font-family="Helvetica,sans-Serif" font-size="11.00" fill="#000000"> &#160;</text>
</a>
</g>
</g>
<!-- lbt_data&#45;&gt;transactions -->
<g id="edge2" class="edge">
<title>lbt_data:w&#45;&gt;transactions:e</title>
<path fill="none" stroke="#000000" d="M435.799,-143.7308C418.6358,-158.1761 428.2316,-202.2 398,-202.2"/>
<polygon fill="#000000" stroke="#000000" points="441.9045,-141.7118 450.6303,-142.618 445.7023,-140.4559 449.5,-139.2 449.5,-139.2 449.5,-139.2 445.7023,-140.4559 448.3697,-135.782 441.9045,-141.7118 441.9045,-141.7118"/>
<ellipse fill="none" stroke="#000000" cx="438.8663" cy="-142.7165" rx="3.2" ry="3.2"/>
</g>
</g>
</svg>
