<?xml version="1.0" encoding="UTF-8" standalone="no"?>
<!DOCTYPE svg PUBLIC "-//W3C//DTD SVG 1.1//EN"
 "http://www.w3.org/Graphics/SVG/1.1/DTD/svg11.dtd">
<!-- Generated by graphviz version 2.40.1 (20161225.0304)
 -->
<!-- Title: oneDegreeRelationshipsDiagram Pages: 1 -->
<svg width="216pt" height="316pt"
 viewBox="0.00 0.00 216.00 316.20" xmlns="http://www.w3.org/2000/svg" xmlns:xlink="http://www.w3.org/1999/xlink">
<g id="graph0" class="graph" transform="scale(1 1) rotate(0) translate(4 312.2)">
<title>oneDegreeRelationshipsDiagram</title>
<polygon fill="#ffffff" stroke="transparent" points="-4,4 -4,-312.2 212,-312.2 212,4 -4,4"/>
<text text-anchor="middle" x="72.4936" y="-7.3" font-family="Helvetica,sans-Serif" font-size="11.00" fill="#000000">Generated by SchemaSpy</text>
<!-- verify_email -->
<g id="node1" class="node">
<title>verify_email</title>
<g id="a_node1"><a xlink:href="../../tables/verify_email.html" xlink:title="verify_email" target="_top">
<polygon fill="#ffffff" stroke="transparent" points="8,-38.2 8,-304.2 200,-304.2 200,-38.2 8,-38.2"/>
<polygon fill="#f5f5f5" stroke="transparent" points="10,-279.2 10,-302.2 198,-302.2 198,-279.2 10,-279.2"/>
<polygon fill="none" stroke="#000000" points="10,-279.2 10,-302.2 198,-302.2 198,-279.2 10,-279.2"/>
<text text-anchor="start" x="15" y="-287.8" font-family="Helvetica,sans-Serif" font-weight="bold" font-size="11.00" fill="#000000">verify_email</text>
<text text-anchor="start" x="163.0437" y="-287.3" font-family="Helvetica,sans-Serif" font-size="11.00" fill="#000000">[table]</text>
<polygon fill="none" stroke="#000000" points="10,-257.2 10,-279.2 131,-279.2 131,-257.2 10,-257.2"/>
<image xlink:href="../../images/primaryKeys.png" width="11px" height="12px" preserveAspectRatio="xMinYMin meet" x="15" y="-274.2"/>
<text text-anchor="start" x="30" y="-264.3" font-family="Helvetica,sans-Serif" font-size="11.00" fill="#000000">id</text>
<polygon fill="none" stroke="#000000" points="131,-257.2 131,-279.2 198,-279.2 198,-257.2 131,-257.2"/>
<text text-anchor="start" x="134" y="-264.9" font-family="Helvetica,sans-Serif" font-size="11.00" fill="#000000">bigint[19]</text>
<polygon fill="none" stroke="#000000" points="10,-235.2 10,-257.2 131,-257.2 131,-235.2 10,-235.2"/>
<text text-anchor="start" x="30" y="-242.3" font-family="Helvetica,sans-Serif" font-size="11.00" fill="#000000">pid_holder</text>
<polygon fill="none" stroke="#000000" points="131,-235.2 131,-257.2 198,-257.2 198,-235.2 131,-235.2"/>
<text text-anchor="start" x="134" y="-242.9" font-family="Helvetica,sans-Serif" font-size="11.00" fill="#000000">bigint[19]</text>
<polygon fill="#ffffff" stroke="transparent" points="10,-213.2 10,-235.2 131,-235.2 131,-213.2 10,-213.2"/>
<polygon fill="none" stroke="#000000" points="10,-213.2 10,-235.2 131,-235.2 131,-213.2 10,-213.2"/>
<text text-anchor="start" x="30" y="-220.3" font-family="Helvetica,sans-Serif" font-size="11.00" fill="#000000">email</text>
<polygon fill="none" stroke="#000000" points="131,-213.2 131,-235.2 198,-235.2 198,-213.2 131,-213.2"/>
<text text-anchor="start" x="133.9365" y="-220.9" font-family="Helvetica,sans-Serif" font-size="11.00" fill="#000000">varchar[255]</text>
<polygon fill="none" stroke="#000000" points="10,-191.2 10,-213.2 131,-213.2 131,-191.2 10,-191.2"/>
<text text-anchor="start" x="30" y="-198.3" font-family="Helvetica,sans-Serif" font-size="11.00" fill="#000000">language</text>
<polygon fill="none" stroke="#000000" points="131,-191.2 131,-213.2 198,-213.2 198,-191.2 131,-191.2"/>
<text text-anchor="start" x="133.9365" y="-198.9" font-family="Helvetica,sans-Serif" font-size="11.00" fill="#000000">varchar[100]</text>
<polygon fill="none" stroke="#000000" points="10,-169.2 10,-191.2 131,-191.2 131,-169.2 10,-169.2"/>
<text text-anchor="start" x="30" y="-176.3" font-family="Helvetica,sans-Serif" font-size="11.00" fill="#000000">fname</text>
<polygon fill="none" stroke="#000000" points="131,-169.2 131,-191.2 198,-191.2 198,-169.2 131,-169.2"/>
<text text-anchor="start" x="133.9365" y="-176.9" font-family="Helvetica,sans-Serif" font-size="11.00" fill="#000000">varchar[255]</text>
<polygon fill="none" stroke="#000000" points="10,-147.2 10,-169.2 131,-169.2 131,-147.2 10,-147.2"/>
<text text-anchor="start" x="30" y="-154.3" font-family="Helvetica,sans-Serif" font-size="11.00" fill="#000000">mname</text>
<polygon fill="none" stroke="#000000" points="131,-147.2 131,-169.2 198,-169.2 198,-147.2 131,-147.2"/>
<text text-anchor="start" x="133.9365" y="-154.9" font-family="Helvetica,sans-Serif" font-size="11.00" fill="#000000">varchar[255]</text>
<polygon fill="none" stroke="#000000" points="10,-125.2 10,-147.2 131,-147.2 131,-125.2 10,-125.2"/>
<text text-anchor="start" x="30" y="-132.3" font-family="Helvetica,sans-Serif" font-size="11.00" fill="#000000">lname</text>
<polygon fill="none" stroke="#000000" points="131,-125.2 131,-147.2 198,-147.2 198,-125.2 131,-125.2"/>
<text text-anchor="start" x="133.9365" y="-132.9" font-family="Helvetica,sans-Serif" font-size="11.00" fill="#000000">varchar[255]</text>
<polygon fill="none" stroke="#000000" points="10,-103.2 10,-125.2 131,-125.2 131,-103.2 10,-103.2"/>
<text text-anchor="start" x="30" y="-110.3" font-family="Helvetica,sans-Serif" font-size="11.00" fill="#000000">dob</text>
<polygon fill="none" stroke="#000000" points="131,-103.2 131,-125.2 198,-125.2 198,-103.2 131,-103.2"/>
<text text-anchor="start" x="134" y="-110.9" font-family="Helvetica,sans-Serif" font-size="11.00" fill="#000000">date[10]</text>
<polygon fill="none" stroke="#000000" points="10,-81.2 10,-103.2 131,-103.2 131,-81.2 10,-81.2"/>
<text text-anchor="start" x="30" y="-88.3" font-family="Helvetica,sans-Serif" font-size="11.00" fill="#000000">token_onetime</text>
<polygon fill="none" stroke="#000000" points="131,-81.2 131,-103.2 198,-103.2 198,-81.2 131,-81.2"/>
<text text-anchor="start" x="133.9365" y="-88.9" font-family="Helvetica,sans-Serif" font-size="11.00" fill="#000000">varchar[255]</text>
<polygon fill="none" stroke="#000000" points="10,-59.2 10,-81.2 131,-81.2 131,-59.2 10,-59.2"/>
<text text-anchor="start" x="30" y="-66.3" font-family="Helvetica,sans-Serif" font-size="11.00" fill="#000000">active</text>
<polygon fill="none" stroke="#000000" points="131,-59.2 131,-81.2 198,-81.2 198,-59.2 131,-59.2"/>
<text text-anchor="start" x="134" y="-66.9" font-family="Helvetica,sans-Serif" font-size="11.00" fill="#000000">tinyint[3]</text>
<polygon fill="#ffffff" stroke="transparent" points="10,-40.2 10,-59.2 75,-59.2 75,-40.2 10,-40.2"/>
<polygon fill="none" stroke="#000000" points="10,-40.2 10,-59.2 75,-59.2 75,-40.2 10,-40.2"/>
<text text-anchor="start" x="13" y="-46.3" font-family="Helvetica,sans-Serif" font-size="11.00" fill="#000000">&lt; 0</text>
<polygon fill="#ffffff" stroke="transparent" points="75,-40.2 75,-59.2 131,-59.2 131,-40.2 75,-40.2"/>
<polygon fill="none" stroke="#000000" points="75,-40.2 75,-59.2 131,-59.2 131,-40.2 75,-40.2"/>
<text text-anchor="start" x="121.8862" y="-46.3" font-family="Helvetica,sans-Serif" font-size="11.00" fill="#000000"> &#160;</text>
<polygon fill="#ffffff" stroke="transparent" points="131,-40.2 131,-59.2 198,-59.2 198,-40.2 131,-40.2"/>
<polygon fill="none" stroke="#000000" points="131,-40.2 131,-59.2 198,-59.2 198,-40.2 131,-40.2"/>
<text text-anchor="start" x="179.4053" y="-46.3" font-family="Helvetica,sans-Serif" font-size="11.00" fill="#000000">0 &gt;</text>
<polygon fill="none" stroke="#000000" stroke-width="2" points="9,-39.2 9,-303.2 199,-303.2 199,-39.2 9,-39.2"/>
</a>
</g>
</g>
</g>
</svg>
