<?xml version="1.0" encoding="UTF-8" standalone="no"?>
<!DOCTYPE svg PUBLIC "-//W3C//DTD SVG 1.1//EN"
 "http://www.w3.org/Graphics/SVG/1.1/DTD/svg11.dtd">
<!-- Generated by graphviz version 2.40.1 (20161225.0304)
 -->
<!-- Title: oneDegreeRelationshipsDiagram Pages: 1 -->
<svg width="930pt" height="608pt"
 viewBox="0.00 0.00 930.00 607.70" xmlns="http://www.w3.org/2000/svg" xmlns:xlink="http://www.w3.org/1999/xlink">
<g id="graph0" class="graph" transform="scale(1 1) rotate(0) translate(4 603.7)">
<title>oneDegreeRelationshipsDiagram</title>
<polygon fill="#ffffff" stroke="transparent" points="-4,4 -4,-603.7 926,-603.7 926,4 -4,4"/>
<text text-anchor="middle" x="72.4936" y="-7.3" font-family="Helvetica,sans-Serif" font-size="11.00" fill="#000000">Generated by SchemaSpy</text>
<!-- form_encounter -->
<g id="node1" class="node">
<title>form_encounter</title>
<g id="a_node1"><a xlink:href="../../tables/form_encounter.html" xlink:title="form_encounter" target="_top">
<polygon fill="#ffffff" stroke="transparent" points="504,-211.7 504,-382.7 691,-382.7 691,-211.7 504,-211.7"/>
<polygon fill="#f5f5f5" stroke="transparent" points="504.5,-359.2 504.5,-382.2 691.5,-382.2 691.5,-359.2 504.5,-359.2"/>
<polygon fill="none" stroke="#000000" points="504.5,-359.2 504.5,-382.2 691.5,-382.2 691.5,-359.2 504.5,-359.2"/>
<text text-anchor="start" x="509.5" y="-367.8" font-family="Helvetica,sans-Serif" font-weight="bold" font-size="11.00" fill="#000000">form_encounter</text>
<text text-anchor="start" x="656.5437" y="-367.3" font-family="Helvetica,sans-Serif" font-size="11.00" fill="#000000">[table]</text>
<polygon fill="none" stroke="#000000" points="504.5,-337.2 504.5,-359.2 691.5,-359.2 691.5,-337.2 504.5,-337.2"/>
<image xlink:href="../../images/primaryKeys.png" width="11px" height="12px" preserveAspectRatio="xMinYMin meet" x="509.5" y="-354.2"/>
<text text-anchor="start" x="524.5" y="-344.3" font-family="Helvetica,sans-Serif" font-size="11.00" fill="#000000">id</text>
<polygon fill="#ffffff" stroke="transparent" points="504.5,-315.2 504.5,-337.2 691.5,-337.2 691.5,-315.2 504.5,-315.2"/>
<polygon fill="none" stroke="#000000" points="504.5,-315.2 504.5,-337.2 691.5,-337.2 691.5,-315.2 504.5,-315.2"/>
<text text-anchor="start" x="524.5" y="-322.3" font-family="Helvetica,sans-Serif" font-size="11.00" fill="#000000">uuid</text>
<polygon fill="#ffffff" stroke="transparent" points="504.5,-293.2 504.5,-315.2 691.5,-315.2 691.5,-293.2 504.5,-293.2"/>
<polygon fill="none" stroke="#000000" points="504.5,-293.2 504.5,-315.2 691.5,-315.2 691.5,-293.2 504.5,-293.2"/>
<text text-anchor="start" x="524.5" y="-300.3" font-family="Helvetica,sans-Serif" font-size="11.00" fill="#000000">date</text>
<polygon fill="#ffffff" stroke="transparent" points="504.5,-271.2 504.5,-293.2 691.5,-293.2 691.5,-271.2 504.5,-271.2"/>
<polygon fill="none" stroke="#000000" points="504.5,-271.2 504.5,-293.2 691.5,-293.2 691.5,-271.2 504.5,-271.2"/>
<image xlink:href="../../images/foreignKeys.png" width="11px" height="12px" preserveAspectRatio="xMinYMin meet" x="509.5" y="-288.2"/>
<text text-anchor="start" x="524.5" y="-278.3" font-family="Helvetica,sans-Serif" font-size="11.00" fill="#000000">pid</text>
<polygon fill="none" stroke="#000000" points="504.5,-249.2 504.5,-271.2 691.5,-271.2 691.5,-249.2 504.5,-249.2"/>
<image xlink:href="../../images/primaryKeys.png" width="11px" height="12px" preserveAspectRatio="xMinYMin meet" x="509.5" y="-266.2"/>
<text text-anchor="start" x="524.5" y="-256.3" font-family="Helvetica,sans-Serif" font-size="11.00" fill="#000000">encounter</text>
<polygon fill="none" stroke="#000000" points="504.5,-230.2 504.5,-249.2 691.5,-249.2 691.5,-230.2 504.5,-230.2"/>
<text text-anchor="start" x="507.5" y="-236.3" font-family="Helvetica,sans-Serif" font-size="11.00" fill="#000000">...</text>
<polygon fill="#ffffff" stroke="transparent" points="504.5,-211.2 504.5,-230.2 588.5,-230.2 588.5,-211.2 504.5,-211.2"/>
<polygon fill="none" stroke="#000000" points="504.5,-211.2 504.5,-230.2 588.5,-230.2 588.5,-211.2 504.5,-211.2"/>
<text text-anchor="start" x="507.5" y="-217.3" font-family="Helvetica,sans-Serif" font-size="11.00" fill="#000000">&lt; 1</text>
<polygon fill="#ffffff" stroke="transparent" points="588.5,-211.2 588.5,-230.2 632.5,-230.2 632.5,-211.2 588.5,-211.2"/>
<polygon fill="none" stroke="#000000" points="588.5,-211.2 588.5,-230.2 632.5,-230.2 632.5,-211.2 588.5,-211.2"/>
<text text-anchor="start" x="623.3862" y="-217.3" font-family="Helvetica,sans-Serif" font-size="11.00" fill="#000000"> &#160;</text>
<polygon fill="#ffffff" stroke="transparent" points="632.5,-211.2 632.5,-230.2 691.5,-230.2 691.5,-211.2 632.5,-211.2"/>
<polygon fill="none" stroke="#000000" points="632.5,-211.2 632.5,-230.2 691.5,-230.2 691.5,-211.2 632.5,-211.2"/>
<text text-anchor="start" x="666.7904" y="-217.3" font-family="Helvetica,sans-Serif" font-size="11.00" fill="#000000">19 &gt;</text>
</a>
</g>
</g>
<!-- patient_data -->
<g id="node2" class="node">
<title>patient_data</title>
<g id="a_node2"><a xlink:href="../../tables/patient_data.html" xlink:title="patient_data" target="_top">
<polygon fill="#ffffff" stroke="transparent" points="207,-204.7 207,-595.7 455,-595.7 455,-204.7 207,-204.7"/>
<polygon fill="#f5f5f5" stroke="transparent" points="207,-572.2 207,-595.2 455,-595.2 455,-572.2 207,-572.2"/>
<polygon fill="none" stroke="#000000" points="207,-572.2 207,-595.2 455,-595.2 455,-572.2 207,-572.2"/>
<text text-anchor="start" x="212" y="-580.8" font-family="Helvetica,sans-Serif" font-weight="bold" font-size="11.00" fill="#000000">patient_data</text>
<text text-anchor="start" x="420.0437" y="-580.3" font-family="Helvetica,sans-Serif" font-size="11.00" fill="#000000">[table]</text>
<polygon fill="none" stroke="#000000" points="207,-550.2 207,-572.2 455,-572.2 455,-550.2 207,-550.2"/>
<image xlink:href="../../images/primaryKeys.png" width="11px" height="12px" preserveAspectRatio="xMinYMin meet" x="212" y="-567.2"/>
<text text-anchor="start" x="227" y="-557.3" font-family="Helvetica,sans-Serif" font-size="11.00" fill="#000000">id</text>
<polygon fill="#ffffff" stroke="transparent" points="207,-528.2 207,-550.2 455,-550.2 455,-528.2 207,-528.2"/>
<polygon fill="none" stroke="#000000" points="207,-528.2 207,-550.2 455,-550.2 455,-528.2 207,-528.2"/>
<text text-anchor="start" x="227" y="-535.3" font-family="Helvetica,sans-Serif" font-size="11.00" fill="#000000">uuid</text>
<polygon fill="#ffffff" stroke="transparent" points="207,-506.2 207,-528.2 455,-528.2 455,-506.2 207,-506.2"/>
<polygon fill="none" stroke="#000000" points="207,-506.2 207,-528.2 455,-528.2 455,-506.2 207,-506.2"/>
<text text-anchor="start" x="227" y="-513.3" font-family="Helvetica,sans-Serif" font-size="11.00" fill="#000000">fname</text>
<polygon fill="#ffffff" stroke="transparent" points="207,-484.2 207,-506.2 455,-506.2 455,-484.2 207,-484.2"/>
<polygon fill="none" stroke="#000000" points="207,-484.2 207,-506.2 455,-506.2 455,-484.2 207,-484.2"/>
<text text-anchor="start" x="227" y="-491.3" font-family="Helvetica,sans-Serif" font-size="11.00" fill="#000000">lname</text>
<polygon fill="#ffffff" stroke="transparent" points="207,-462.2 207,-484.2 455,-484.2 455,-462.2 207,-462.2"/>
<polygon fill="none" stroke="#000000" points="207,-462.2 207,-484.2 455,-484.2 455,-462.2 207,-462.2"/>
<text text-anchor="start" x="227" y="-469.3" font-family="Helvetica,sans-Serif" font-size="11.00" fill="#000000">DOB</text>
<polygon fill="none" stroke="#000000" points="207,-440.2 207,-462.2 455,-462.2 455,-440.2 207,-440.2"/>
<image xlink:href="../../images/foreignKeys.png" width="11px" height="12px" preserveAspectRatio="xMinYMin meet" x="212" y="-457.2"/>
<text text-anchor="start" x="227" y="-447.3" font-family="Helvetica,sans-Serif" font-size="11.00" fill="#000000">pharmacy_id</text>
<polygon fill="none" stroke="#000000" points="207,-418.2 207,-440.2 455,-440.2 455,-418.2 207,-418.2"/>
<image xlink:href="../../images/foreignKeys.png" width="11px" height="12px" preserveAspectRatio="xMinYMin meet" x="212" y="-435.2"/>
<text text-anchor="start" x="227" y="-425.3" font-family="Helvetica,sans-Serif" font-size="11.00" fill="#000000">providerID</text>
<polygon fill="none" stroke="#000000" points="207,-396.2 207,-418.2 455,-418.2 455,-396.2 207,-396.2"/>
<image xlink:href="../../images/foreignKeys.png" width="11px" height="12px" preserveAspectRatio="xMinYMin meet" x="212" y="-413.2"/>
<text text-anchor="start" x="227" y="-403.3" font-family="Helvetica,sans-Serif" font-size="11.00" fill="#000000">ref_providerID</text>
<polygon fill="none" stroke="#000000" points="207,-374.2 207,-396.2 455,-396.2 455,-374.2 207,-374.2"/>
<image xlink:href="../../images/primaryKeys.png" width="11px" height="12px" preserveAspectRatio="xMinYMin meet" x="212" y="-391.2"/>
<text text-anchor="start" x="227" y="-381.3" font-family="Helvetica,sans-Serif" font-size="11.00" fill="#000000">pid</text>
<polygon fill="none" stroke="#000000" points="207,-352.2 207,-374.2 455,-374.2 455,-352.2 207,-352.2"/>
<image xlink:href="../../images/foreignKeys.png" width="11px" height="12px" preserveAspectRatio="xMinYMin meet" x="212" y="-369.2"/>
<text text-anchor="start" x="227" y="-359.3" font-family="Helvetica,sans-Serif" font-size="11.00" fill="#000000">created_by</text>
<polygon fill="none" stroke="#000000" points="207,-330.2 207,-352.2 455,-352.2 455,-330.2 207,-330.2"/>
<image xlink:href="../../images/foreignKeys.png" width="11px" height="12px" preserveAspectRatio="xMinYMin meet" x="212" y="-347.2"/>
<text text-anchor="start" x="227" y="-337.3" font-family="Helvetica,sans-Serif" font-size="11.00" fill="#000000">updated_by</text>
<polygon fill="none" stroke="#000000" points="207,-308.2 207,-330.2 455,-330.2 455,-308.2 207,-308.2"/>
<image xlink:href="../../images/foreignKeys.png" width="11px" height="12px" preserveAspectRatio="xMinYMin meet" x="212" y="-325.2"/>
<text text-anchor="start" x="227" y="-315.3" font-family="Helvetica,sans-Serif" font-size="11.00" fill="#000000">tribal_affiliations</text>
<polygon fill="none" stroke="#000000" points="207,-286.2 207,-308.2 455,-308.2 455,-286.2 207,-286.2"/>
<image xlink:href="../../images/foreignKeys.png" width="11px" height="12px" preserveAspectRatio="xMinYMin meet" x="212" y="-303.2"/>
<text text-anchor="start" x="227" y="-293.3" font-family="Helvetica,sans-Serif" font-size="11.00" fill="#000000">sex_identified</text>
<polygon fill="none" stroke="#000000" points="207,-264.2 207,-286.2 455,-286.2 455,-264.2 207,-264.2"/>
<image xlink:href="../../images/foreignKeys.png" width="11px" height="12px" preserveAspectRatio="xMinYMin meet" x="212" y="-281.2"/>
<text text-anchor="start" x="227" y="-271.3" font-family="Helvetica,sans-Serif" font-size="11.00" fill="#000000">interpreter_needed</text>
<polygon fill="none" stroke="#000000" points="207,-242.2 207,-264.2 455,-264.2 455,-242.2 207,-242.2"/>
<image xlink:href="../../images/foreignKeys.png" width="11px" height="12px" preserveAspectRatio="xMinYMin meet" x="212" y="-259.2"/>
<text text-anchor="start" x="227" y="-249.3" font-family="Helvetica,sans-Serif" font-size="11.00" fill="#000000">advance_directive_user_authenticator</text>
<polygon fill="none" stroke="#000000" points="207,-223.2 207,-242.2 455,-242.2 455,-223.2 207,-223.2"/>
<text text-anchor="start" x="210" y="-229.3" font-family="Helvetica,sans-Serif" font-size="11.00" fill="#000000">...</text>
<polygon fill="#ffffff" stroke="transparent" points="207,-204.2 207,-223.2 322,-223.2 322,-204.2 207,-204.2"/>
<polygon fill="none" stroke="#000000" points="207,-204.2 207,-223.2 322,-223.2 322,-204.2 207,-204.2"/>
<text text-anchor="start" x="210" y="-210.3" font-family="Helvetica,sans-Serif" font-size="11.00" fill="#000000">&lt; 9</text>
<polygon fill="#ffffff" stroke="transparent" points="322,-204.2 322,-223.2 381,-223.2 381,-204.2 322,-204.2"/>
<polygon fill="none" stroke="#000000" points="322,-204.2 322,-223.2 381,-223.2 381,-204.2 322,-204.2"/>
<text text-anchor="start" x="371.8862" y="-210.3" font-family="Helvetica,sans-Serif" font-size="11.00" fill="#000000"> &#160;</text>
<polygon fill="#ffffff" stroke="transparent" points="381,-204.2 381,-223.2 455,-223.2 455,-204.2 381,-204.2"/>
<polygon fill="none" stroke="#000000" points="381,-204.2 381,-223.2 455,-223.2 455,-204.2 381,-204.2"/>
<text text-anchor="start" x="430.2904" y="-210.3" font-family="Helvetica,sans-Serif" font-size="11.00" fill="#000000">97 &gt;</text>
</a>
</g>
</g>
<!-- form_encounter&#45;&gt;patient_data -->
<g id="edge1" class="edge">
<title>form_encounter:w&#45;&gt;patient_data:e</title>
<path fill="none" stroke="#000000" d="M490.5512,-286.1119C464.5037,-304.9261 499.8379,-385.2 455,-385.2"/>
<polygon fill="#000000" stroke="#000000" points="496.7972,-284.3603 505.4721,-285.6663 500.6486,-283.2801 504.5,-282.2 504.5,-282.2 504.5,-282.2 500.6486,-283.2801 503.5279,-278.7337 496.7972,-284.3603 496.7972,-284.3603"/>
<ellipse fill="none" stroke="#000000" cx="493.7161" cy="-285.2244" rx="3.2" ry="3.2"/>
</g>
<!-- users -->
<g id="node3" class="node">
<title>users</title>
<g id="a_node3"><a xlink:href="../../tables/users.html" xlink:title="users" target="_top">
<polygon fill="#ffffff" stroke="transparent" points="8,-171.7 8,-386.7 158,-386.7 158,-171.7 8,-171.7"/>
<polygon fill="#f5f5f5" stroke="transparent" points="8,-363.2 8,-386.2 158,-386.2 158,-363.2 8,-363.2"/>
<polygon fill="none" stroke="#000000" points="8,-363.2 8,-386.2 158,-386.2 158,-363.2 8,-363.2"/>
<text text-anchor="start" x="13" y="-371.8" font-family="Helvetica,sans-Serif" font-weight="bold" font-size="11.00" fill="#000000">users</text>
<text text-anchor="start" x="123.0437" y="-371.3" font-family="Helvetica,sans-Serif" font-size="11.00" fill="#000000">[table]</text>
<polygon fill="none" stroke="#000000" points="8,-341.2 8,-363.2 158,-363.2 158,-341.2 8,-341.2"/>
<image xlink:href="../../images/primaryKeys.png" width="11px" height="12px" preserveAspectRatio="xMinYMin meet" x="13" y="-358.2"/>
<text text-anchor="start" x="28" y="-348.3" font-family="Helvetica,sans-Serif" font-size="11.00" fill="#000000">id</text>
<polygon fill="#ffffff" stroke="transparent" points="8,-319.2 8,-341.2 158,-341.2 158,-319.2 8,-319.2"/>
<polygon fill="none" stroke="#000000" points="8,-319.2 8,-341.2 158,-341.2 158,-319.2 8,-319.2"/>
<text text-anchor="start" x="28" y="-326.3" font-family="Helvetica,sans-Serif" font-size="11.00" fill="#000000">uuid</text>
<polygon fill="none" stroke="#000000" points="8,-297.2 8,-319.2 158,-319.2 158,-297.2 8,-297.2"/>
<image xlink:href="../../images/primaryKeys.png" width="11px" height="12px" preserveAspectRatio="xMinYMin meet" x="13" y="-314.2"/>
<text text-anchor="start" x="28" y="-304.3" font-family="Helvetica,sans-Serif" font-size="11.00" fill="#000000">username</text>
<polygon fill="none" stroke="#000000" points="8,-275.2 8,-297.2 158,-297.2 158,-275.2 8,-275.2"/>
<image xlink:href="../../images/foreignKeys.png" width="11px" height="12px" preserveAspectRatio="xMinYMin meet" x="13" y="-292.2"/>
<text text-anchor="start" x="28" y="-282.3" font-family="Helvetica,sans-Serif" font-size="11.00" fill="#000000">facility_id</text>
<polygon fill="#ffffff" stroke="transparent" points="8,-253.2 8,-275.2 158,-275.2 158,-253.2 8,-253.2"/>
<polygon fill="none" stroke="#000000" points="8,-253.2 8,-275.2 158,-275.2 158,-253.2 8,-253.2"/>
<text text-anchor="start" x="28" y="-260.3" font-family="Helvetica,sans-Serif" font-size="11.00" fill="#000000">google_signin_email</text>
<polygon fill="#ffffff" stroke="transparent" points="8,-231.2 8,-253.2 158,-253.2 158,-231.2 8,-231.2"/>
<polygon fill="none" stroke="#000000" points="8,-231.2 8,-253.2 158,-253.2 158,-231.2 8,-231.2"/>
<text text-anchor="start" x="28" y="-238.3" font-family="Helvetica,sans-Serif" font-size="11.00" fill="#000000">abook_type</text>
<polygon fill="none" stroke="#000000" points="8,-209.2 8,-231.2 158,-231.2 158,-209.2 8,-209.2"/>
<image xlink:href="../../images/foreignKeys.png" width="11px" height="12px" preserveAspectRatio="xMinYMin meet" x="13" y="-226.2"/>
<text text-anchor="start" x="28" y="-216.3" font-family="Helvetica,sans-Serif" font-size="11.00" fill="#000000">billing_facility_id</text>
<polygon fill="none" stroke="#000000" points="8,-190.2 8,-209.2 158,-209.2 158,-190.2 8,-190.2"/>
<text text-anchor="start" x="11" y="-196.3" font-family="Helvetica,sans-Serif" font-size="11.00" fill="#000000">...</text>
<polygon fill="#ffffff" stroke="transparent" points="8,-171.2 8,-190.2 74,-190.2 74,-171.2 8,-171.2"/>
<polygon fill="none" stroke="#000000" points="8,-171.2 8,-190.2 74,-190.2 74,-171.2 8,-171.2"/>
<text text-anchor="start" x="11" y="-177.3" font-family="Helvetica,sans-Serif" font-size="11.00" fill="#000000">&lt; 2</text>
<polygon fill="#ffffff" stroke="transparent" points="74,-171.2 74,-190.2 108,-190.2 108,-171.2 74,-171.2"/>
<polygon fill="none" stroke="#000000" points="74,-171.2 74,-190.2 108,-190.2 108,-171.2 74,-171.2"/>
<text text-anchor="start" x="98.8862" y="-177.3" font-family="Helvetica,sans-Serif" font-size="11.00" fill="#000000"> &#160;</text>
<polygon fill="#ffffff" stroke="transparent" points="108,-171.2 108,-190.2 158,-190.2 158,-171.2 108,-171.2"/>
<polygon fill="none" stroke="#000000" points="108,-171.2 108,-190.2 158,-190.2 158,-171.2 108,-171.2"/>
<text text-anchor="start" x="133.2904" y="-177.3" font-family="Helvetica,sans-Serif" font-size="11.00" fill="#000000">91 &gt;</text>
</a>
</g>
</g>
<!-- patient_data&#45;&gt;users -->
<g id="edge2" class="edge">
<title>patient_data:w&#45;&gt;users:e</title>
<path fill="none" stroke="#000000" d="M193.1394,-257.2035C168.3773,-275.7249 201.1495,-352.2 158,-352.2"/>
<polygon fill="#000000" stroke="#000000" points="199.3142,-255.42 207.999,-256.6586 203.1571,-254.31 207,-253.2 207,-253.2 207,-253.2 203.1571,-254.31 206.001,-249.7414 199.3142,-255.42 199.3142,-255.42"/>
<ellipse fill="none" stroke="#000000" cx="196.2399" cy="-256.308" rx="3.2" ry="3.2"/>
</g>
<!-- patient_data&#45;&gt;users -->
<g id="edge3" class="edge">
<title>patient_data:w&#45;&gt;users:e</title>
<path fill="none" stroke="#000000" d="M192.7027,-361.3836C181.2382,-358.2593 174.5655,-352.2 158,-352.2"/>
<polygon fill="#000000" stroke="#000000" points="199.0638,-362.1917 206.5463,-366.7713 203.0319,-362.6958 207,-363.2 207,-363.2 207,-363.2 203.0319,-362.6958 207.4537,-359.6287 199.0638,-362.1917 199.0638,-362.1917"/>
<ellipse fill="none" stroke="#000000" cx="195.8893" cy="-361.7884" rx="3.2" ry="3.2"/>
</g>
<!-- patient_data&#45;&gt;users -->
<g id="edge4" class="edge">
<title>patient_data:w&#45;&gt;users:e</title>
<path fill="none" stroke="#000000" d="M193.2659,-424.6139C174.3724,-408.0372 192.5427,-352.2 158,-352.2"/>
<polygon fill="#000000" stroke="#000000" points="199.4119,-426.6661 205.8598,-432.6147 203.2059,-427.9331 207,-429.2 207,-429.2 207,-429.2 203.2059,-427.9331 208.1402,-425.7853 199.4119,-426.6661 199.4119,-426.6661"/>
<ellipse fill="none" stroke="#000000" cx="196.3766" cy="-425.6526" rx="3.2" ry="3.2"/>
</g>
<!-- patient_data&#45;&gt;users -->
<g id="edge5" class="edge">
<title>patient_data:w&#45;&gt;users:e</title>
<path fill="none" stroke="#000000" d="M193.1265,-402.1243C178.7102,-388.5086 184.5999,-352.2 158,-352.2"/>
<polygon fill="#000000" stroke="#000000" points="199.487,-404.4513 205.7631,-410.5808 203.2435,-405.8257 207,-407.2 207,-407.2 207,-407.2 203.2435,-405.8257 208.2369,-403.8192 199.487,-404.4513 199.487,-404.4513"/>
<ellipse fill="none" stroke="#000000" cx="196.4818" cy="-403.3518" rx="3.2" ry="3.2"/>
</g>
<!-- patient_data&#45;&gt;users -->
<g id="edge6" class="edge">
<title>patient_data:w&#45;&gt;users:e</title>
<path fill="none" stroke="#000000" d="M192.7027,-343.0164C181.2382,-346.1407 174.5655,-352.2 158,-352.2"/>
<polygon fill="#000000" stroke="#000000" points="199.0638,-342.2083 207.4537,-344.7713 203.0319,-341.7042 207,-341.2 207,-341.2 207,-341.2 203.0319,-341.7042 206.5463,-337.6287 199.0638,-342.2083 199.0638,-342.2083"/>
<ellipse fill="none" stroke="#000000" cx="195.8893" cy="-342.6116" rx="3.2" ry="3.2"/>
</g>
<!-- voids -->
<g id="node4" class="node">
<title>voids</title>
<g id="a_node4"><a xlink:href="../../tables/voids.html" xlink:title="voids" target="_top">
<polygon fill="#ffffff" stroke="transparent" points="740,-38.2 740,-348.2 914,-348.2 914,-38.2 740,-38.2"/>
<polygon fill="#f5f5f5" stroke="transparent" points="742,-323.2 742,-346.2 912,-346.2 912,-323.2 742,-323.2"/>
<polygon fill="none" stroke="#000000" points="742,-323.2 742,-346.2 912,-346.2 912,-323.2 742,-323.2"/>
<text text-anchor="start" x="747" y="-331.8" font-family="Helvetica,sans-Serif" font-weight="bold" font-size="11.00" fill="#000000">voids</text>
<text text-anchor="start" x="877.0437" y="-331.3" font-family="Helvetica,sans-Serif" font-size="11.00" fill="#000000">[table]</text>
<polygon fill="none" stroke="#000000" points="742,-301.2 742,-323.2 841,-323.2 841,-301.2 742,-301.2"/>
<image xlink:href="../../images/primaryKeys.png" width="11px" height="12px" preserveAspectRatio="xMinYMin meet" x="747" y="-318.2"/>
<text text-anchor="start" x="762" y="-308.3" font-family="Helvetica,sans-Serif" font-size="11.00" fill="#000000">void_id</text>
<polygon fill="none" stroke="#000000" points="841,-301.2 841,-323.2 912,-323.2 912,-301.2 841,-301.2"/>
<text text-anchor="start" x="844" y="-308.9" font-family="Helvetica,sans-Serif" font-size="11.00" fill="#000000">bigint[19]</text>
<polygon fill="#ffffff" stroke="transparent" points="742,-279.2 742,-301.2 841,-301.2 841,-279.2 742,-279.2"/>
<polygon fill="none" stroke="#000000" points="742,-279.2 742,-301.2 841,-301.2 841,-279.2 742,-279.2"/>
<image xlink:href="../../images/foreignKeys.png" width="11px" height="12px" preserveAspectRatio="xMinYMin meet" x="747" y="-296.2"/>
<text text-anchor="start" x="762" y="-286.3" font-family="Helvetica,sans-Serif" font-size="11.00" fill="#000000">patient_id</text>
<polygon fill="none" stroke="#000000" points="841,-279.2 841,-301.2 912,-301.2 912,-279.2 841,-279.2"/>
<text text-anchor="start" x="844" y="-286.9" font-family="Helvetica,sans-Serif" font-size="11.00" fill="#000000">bigint[19]</text>
<polygon fill="#ffffff" stroke="transparent" points="742,-257.2 742,-279.2 841,-279.2 841,-257.2 742,-257.2"/>
<polygon fill="none" stroke="#000000" points="742,-257.2 742,-279.2 841,-279.2 841,-257.2 742,-257.2"/>
<image xlink:href="../../images/foreignKeys.png" width="11px" height="12px" preserveAspectRatio="xMinYMin meet" x="747" y="-274.2"/>
<text text-anchor="start" x="762" y="-264.3" font-family="Helvetica,sans-Serif" font-size="11.00" fill="#000000">encounter_id</text>
<polygon fill="none" stroke="#000000" points="841,-257.2 841,-279.2 912,-279.2 912,-257.2 841,-257.2"/>
<text text-anchor="start" x="844" y="-264.9" font-family="Helvetica,sans-Serif" font-size="11.00" fill="#000000">bigint[19]</text>
<polygon fill="none" stroke="#000000" points="742,-235.2 742,-257.2 841,-257.2 841,-235.2 742,-235.2"/>
<text text-anchor="start" x="762" y="-242.3" font-family="Helvetica,sans-Serif" font-size="11.00" fill="#000000">what_voided</text>
<polygon fill="none" stroke="#000000" points="841,-235.2 841,-257.2 912,-257.2 912,-235.2 841,-235.2"/>
<text text-anchor="start" x="844" y="-242.9" font-family="Helvetica,sans-Serif" font-size="11.00" fill="#000000">varchar[31]</text>
<polygon fill="none" stroke="#000000" points="742,-213.2 742,-235.2 841,-235.2 841,-213.2 742,-213.2"/>
<text text-anchor="start" x="762" y="-220.3" font-family="Helvetica,sans-Serif" font-size="11.00" fill="#000000">date_original</text>
<polygon fill="none" stroke="#000000" points="841,-213.2 841,-235.2 912,-235.2 912,-213.2 841,-213.2"/>
<text text-anchor="start" x="844" y="-220.9" font-family="Helvetica,sans-Serif" font-size="11.00" fill="#000000">datetime[19]</text>
<polygon fill="#ffffff" stroke="transparent" points="742,-191.2 742,-213.2 841,-213.2 841,-191.2 742,-191.2"/>
<polygon fill="none" stroke="#000000" points="742,-191.2 742,-213.2 841,-213.2 841,-191.2 742,-191.2"/>
<text text-anchor="start" x="762" y="-198.3" font-family="Helvetica,sans-Serif" font-size="11.00" fill="#000000">date_voided</text>
<polygon fill="none" stroke="#000000" points="841,-191.2 841,-213.2 912,-213.2 912,-191.2 841,-191.2"/>
<text text-anchor="start" x="844" y="-198.9" font-family="Helvetica,sans-Serif" font-size="11.00" fill="#000000">datetime[19]</text>
<polygon fill="none" stroke="#000000" points="742,-169.2 742,-191.2 841,-191.2 841,-169.2 742,-169.2"/>
<image xlink:href="../../images/foreignKeys.png" width="11px" height="12px" preserveAspectRatio="xMinYMin meet" x="747" y="-186.2"/>
<text text-anchor="start" x="762" y="-176.3" font-family="Helvetica,sans-Serif" font-size="11.00" fill="#000000">user_id</text>
<polygon fill="none" stroke="#000000" points="841,-169.2 841,-191.2 912,-191.2 912,-169.2 841,-169.2"/>
<text text-anchor="start" x="844" y="-176.9" font-family="Helvetica,sans-Serif" font-size="11.00" fill="#000000">bigint[19]</text>
<polygon fill="none" stroke="#000000" points="742,-147.2 742,-169.2 841,-169.2 841,-147.2 742,-147.2"/>
<text text-anchor="start" x="762" y="-154.3" font-family="Helvetica,sans-Serif" font-size="11.00" fill="#000000">amount1</text>
<polygon fill="none" stroke="#000000" points="841,-147.2 841,-169.2 912,-169.2 912,-147.2 841,-147.2"/>
<text text-anchor="start" x="843.7981" y="-154.9" font-family="Helvetica,sans-Serif" font-size="11.00" fill="#000000">decimal[12,2]</text>
<polygon fill="none" stroke="#000000" points="742,-125.2 742,-147.2 841,-147.2 841,-125.2 742,-125.2"/>
<text text-anchor="start" x="762" y="-132.3" font-family="Helvetica,sans-Serif" font-size="11.00" fill="#000000">amount2</text>
<polygon fill="none" stroke="#000000" points="841,-125.2 841,-147.2 912,-147.2 912,-125.2 841,-125.2"/>
<text text-anchor="start" x="843.7981" y="-132.9" font-family="Helvetica,sans-Serif" font-size="11.00" fill="#000000">decimal[12,2]</text>
<polygon fill="none" stroke="#000000" points="742,-103.2 742,-125.2 841,-125.2 841,-103.2 742,-103.2"/>
<text text-anchor="start" x="762" y="-110.3" font-family="Helvetica,sans-Serif" font-size="11.00" fill="#000000">other_info</text>
<polygon fill="none" stroke="#000000" points="841,-103.2 841,-125.2 912,-125.2 912,-103.2 841,-103.2"/>
<text text-anchor="start" x="844" y="-110.9" font-family="Helvetica,sans-Serif" font-size="11.00" fill="#000000">text[65535]</text>
<polygon fill="none" stroke="#000000" points="742,-81.2 742,-103.2 841,-103.2 841,-81.2 742,-81.2"/>
<text text-anchor="start" x="762" y="-88.3" font-family="Helvetica,sans-Serif" font-size="11.00" fill="#000000">reason</text>
<polygon fill="none" stroke="#000000" points="841,-81.2 841,-103.2 912,-103.2 912,-81.2 841,-81.2"/>
<text text-anchor="start" x="844" y="-88.9" font-family="Helvetica,sans-Serif" font-size="11.00" fill="#000000">varchar[31]</text>
<polygon fill="none" stroke="#000000" points="742,-59.2 742,-81.2 841,-81.2 841,-59.2 742,-59.2"/>
<text text-anchor="start" x="762" y="-66.3" font-family="Helvetica,sans-Serif" font-size="11.00" fill="#000000">notes</text>
<polygon fill="none" stroke="#000000" points="841,-59.2 841,-81.2 912,-81.2 912,-59.2 841,-59.2"/>
<text text-anchor="start" x="844" y="-66.9" font-family="Helvetica,sans-Serif" font-size="11.00" fill="#000000">varchar[255]</text>
<polygon fill="#ffffff" stroke="transparent" points="742,-40.2 742,-59.2 796,-59.2 796,-40.2 742,-40.2"/>
<polygon fill="none" stroke="#000000" points="742,-40.2 742,-59.2 796,-59.2 796,-40.2 742,-40.2"/>
<text text-anchor="start" x="745" y="-46.3" font-family="Helvetica,sans-Serif" font-size="11.00" fill="#000000">&lt; 3</text>
<polygon fill="#ffffff" stroke="transparent" points="796,-40.2 796,-59.2 841,-59.2 841,-40.2 796,-40.2"/>
<polygon fill="none" stroke="#000000" points="796,-40.2 796,-59.2 841,-59.2 841,-40.2 796,-40.2"/>
<text text-anchor="start" x="831.8862" y="-46.3" font-family="Helvetica,sans-Serif" font-size="11.00" fill="#000000"> &#160;</text>
<polygon fill="#ffffff" stroke="transparent" points="841,-40.2 841,-59.2 912,-59.2 912,-40.2 841,-40.2"/>
<polygon fill="none" stroke="#000000" points="841,-40.2 841,-59.2 912,-59.2 912,-40.2 841,-40.2"/>
<text text-anchor="start" x="893.4053" y="-46.3" font-family="Helvetica,sans-Serif" font-size="11.00" fill="#000000">0 &gt;</text>
<polygon fill="none" stroke="#000000" stroke-width="2" points="741,-39.2 741,-347.2 913,-347.2 913,-39.2 741,-39.2"/>
</a>
</g>
</g>
<!-- voids&#45;&gt;form_encounter -->
<g id="edge7" class="edge">
<title>voids:w&#45;&gt;form_encounter:e</title>
<path fill="none" stroke="#000000" d="M727.3425,-266.879C715.4964,-264.6067 708.3657,-260.2 691.5,-260.2"/>
<polygon fill="#000000" stroke="#000000" points="734.0323,-267.4818 741.6768,-271.7855 738.0161,-267.8409 742,-268.2 742,-268.2 742,-268.2 738.0161,-267.8409 742.3232,-264.6145 734.0323,-267.4818 734.0323,-267.4818"/>
<ellipse fill="none" stroke="#000000" cx="730.8452" cy="-267.1946" rx="3.2" ry="3.2"/>
</g>
<!-- voids&#45;&gt;patient_data -->
<g id="edge8" class="edge">
<title>voids:w&#45;&gt;patient_data:e</title>
<path fill="none" stroke="#000000" d="M727.9364,-293.3019C702.6843,-307.7807 735.2855,-369.0277 699,-393.2 623.9133,-443.2204 585.8038,-401.8795 496,-393.2 477.5202,-391.4139 473.5659,-385.2 455,-385.2"/>
<polygon fill="#000000" stroke="#000000" points="734.1878,-291.9231 742.7754,-293.7155 738.0939,-291.0616 742,-290.2 742,-290.2 742,-290.2 738.0939,-291.0616 741.2246,-286.6845 734.1878,-291.9231 734.1878,-291.9231"/>
<ellipse fill="none" stroke="#000000" cx="731.0629" cy="-292.6124" rx="3.2" ry="3.2"/>
</g>
<!-- voids&#45;&gt;users -->
<g id="edge9" class="edge">
<title>voids:w&#45;&gt;users:e</title>
<path fill="none" stroke="#000000" d="M727.3082,-180.0318C495.9375,-174.7354 384.1477,-47.1118 199,-194.2 142.1957,-239.3274 230.548,-352.2 158,-352.2"/>
<polygon fill="#000000" stroke="#000000" points="734.0005,-180.1084 741.9588,-183.7998 738.0003,-180.1542 742,-180.2 742,-180.2 742,-180.2 738.0003,-180.1542 742.0412,-176.6002 734.0005,-180.1084 734.0005,-180.1084"/>
<ellipse fill="none" stroke="#000000" cx="730.8007" cy="-180.0717" rx="3.2" ry="3.2"/>
</g>
</g>
</svg>
