<?xml version="1.0" encoding="UTF-8" standalone="no"?>
<!DOCTYPE svg PUBLIC "-//W3C//DTD SVG 1.1//EN"
 "http://www.w3.org/Graphics/SVG/1.1/DTD/svg11.dtd">
<!-- Generated by graphviz version 2.40.1 (20161225.0304)
 -->
<!-- Title: oneDegreeRelationshipsDiagram Pages: 1 -->
<svg width="943pt" height="447pt"
 viewBox="0.00 0.00 943.00 446.70" xmlns="http://www.w3.org/2000/svg" xmlns:xlink="http://www.w3.org/1999/xlink">
<g id="graph0" class="graph" transform="scale(1 1) rotate(0) translate(4 442.7)">
<title>oneDegreeRelationshipsDiagram</title>
<polygon fill="#ffffff" stroke="transparent" points="-4,4 -4,-442.7 939,-442.7 939,4 -4,4"/>
<text text-anchor="middle" x="72.4936" y="-7.3" font-family="Helvetica,sans-Serif" font-size="11.00" fill="#000000">Generated by SchemaSpy</text>
<!-- form_encounter -->
<g id="node1" class="node">
<title>form_encounter</title>
<g id="a_node1"><a xlink:href="../../tables/form_encounter.html" xlink:title="form_encounter" target="_top">
<polygon fill="#ffffff" stroke="transparent" points="440,-197.7 440,-368.7 648,-368.7 648,-197.7 440,-197.7"/>
<polygon fill="#f5f5f5" stroke="transparent" points="440,-345.2 440,-368.2 648,-368.2 648,-345.2 440,-345.2"/>
<polygon fill="none" stroke="#000000" points="440,-345.2 440,-368.2 648,-368.2 648,-345.2 440,-345.2"/>
<text text-anchor="start" x="445" y="-353.8" font-family="Helvetica,sans-Serif" font-weight="bold" font-size="11.00" fill="#000000">form_encounter</text>
<text text-anchor="start" x="613.0437" y="-353.3" font-family="Helvetica,sans-Serif" font-size="11.00" fill="#000000">[table]</text>
<polygon fill="none" stroke="#000000" points="440,-323.2 440,-345.2 648,-345.2 648,-323.2 440,-323.2"/>
<image xlink:href="../../images/primaryKeys.png" width="11px" height="12px" preserveAspectRatio="xMinYMin meet" x="445" y="-340.2"/>
<text text-anchor="start" x="460" y="-330.3" font-family="Helvetica,sans-Serif" font-size="11.00" fill="#000000">id</text>
<polygon fill="#ffffff" stroke="transparent" points="440,-301.2 440,-323.2 648,-323.2 648,-301.2 440,-301.2"/>
<polygon fill="none" stroke="#000000" points="440,-301.2 440,-323.2 648,-323.2 648,-301.2 440,-301.2"/>
<text text-anchor="start" x="460" y="-308.3" font-family="Helvetica,sans-Serif" font-size="11.00" fill="#000000">date</text>
<polygon fill="#ffffff" stroke="transparent" points="440,-279.2 440,-301.2 648,-301.2 648,-279.2 440,-279.2"/>
<polygon fill="none" stroke="#000000" points="440,-279.2 440,-301.2 648,-301.2 648,-279.2 440,-279.2"/>
<image xlink:href="../../images/foreignKeys.png" width="11px" height="12px" preserveAspectRatio="xMinYMin meet" x="445" y="-296.2"/>
<text text-anchor="start" x="460" y="-286.3" font-family="Helvetica,sans-Serif" font-size="11.00" fill="#000000">pid</text>
<polygon fill="none" stroke="#000000" points="440,-257.2 440,-279.2 648,-279.2 648,-257.2 440,-257.2"/>
<image xlink:href="../../images/primaryKeys.png" width="11px" height="12px" preserveAspectRatio="xMinYMin meet" x="445" y="-274.2"/>
<text text-anchor="start" x="460" y="-264.3" font-family="Helvetica,sans-Serif" font-size="11.00" fill="#000000">encounter</text>
<polygon fill="#ffffff" stroke="transparent" points="440,-235.2 440,-257.2 648,-257.2 648,-235.2 440,-235.2"/>
<polygon fill="none" stroke="#000000" points="440,-235.2 440,-257.2 648,-257.2 648,-235.2 440,-235.2"/>
<text text-anchor="start" x="460" y="-242.3" font-family="Helvetica,sans-Serif" font-size="11.00" fill="#000000">uuid</text>
<polygon fill="none" stroke="#000000" points="440,-216.2 440,-235.2 648,-235.2 648,-216.2 440,-216.2"/>
<text text-anchor="start" x="443" y="-222.3" font-family="Helvetica,sans-Serif" font-size="11.00" fill="#000000">...</text>
<polygon fill="#ffffff" stroke="transparent" points="440,-197.2 440,-216.2 535,-216.2 535,-197.2 440,-197.2"/>
<polygon fill="none" stroke="#000000" points="440,-197.2 440,-216.2 535,-216.2 535,-197.2 440,-197.2"/>
<text text-anchor="start" x="443" y="-203.3" font-family="Helvetica,sans-Serif" font-size="11.00" fill="#000000">&lt; 1</text>
<polygon fill="#ffffff" stroke="transparent" points="535,-197.2 535,-216.2 584,-216.2 584,-197.2 535,-197.2"/>
<polygon fill="none" stroke="#000000" points="535,-197.2 535,-216.2 584,-216.2 584,-197.2 535,-197.2"/>
<text text-anchor="start" x="574.8862" y="-203.3" font-family="Helvetica,sans-Serif" font-size="11.00" fill="#000000"> &#160;</text>
<polygon fill="#ffffff" stroke="transparent" points="584,-197.2 584,-216.2 648,-216.2 648,-197.2 584,-197.2"/>
<polygon fill="none" stroke="#000000" points="584,-197.2 584,-216.2 648,-216.2 648,-197.2 584,-197.2"/>
<text text-anchor="start" x="623.2904" y="-203.3" font-family="Helvetica,sans-Serif" font-size="11.00" fill="#000000">14 &gt;</text>
</a>
</g>
</g>
<!-- patient_data -->
<g id="node2" class="node">
<title>patient_data</title>
<g id="a_node2"><a xlink:href="../../tables/patient_data.html" xlink:title="patient_data" target="_top">
<polygon fill="#ffffff" stroke="transparent" points="224,-197.7 224,-434.7 391,-434.7 391,-197.7 224,-197.7"/>
<polygon fill="#f5f5f5" stroke="transparent" points="224.5,-411.2 224.5,-434.2 391.5,-434.2 391.5,-411.2 224.5,-411.2"/>
<polygon fill="none" stroke="#000000" points="224.5,-411.2 224.5,-434.2 391.5,-434.2 391.5,-411.2 224.5,-411.2"/>
<text text-anchor="start" x="229.5" y="-419.8" font-family="Helvetica,sans-Serif" font-weight="bold" font-size="11.00" fill="#000000">patient_data</text>
<text text-anchor="start" x="356.5437" y="-419.3" font-family="Helvetica,sans-Serif" font-size="11.00" fill="#000000">[table]</text>
<polygon fill="#ffffff" stroke="transparent" points="224.5,-389.2 224.5,-411.2 391.5,-411.2 391.5,-389.2 224.5,-389.2"/>
<polygon fill="none" stroke="#000000" points="224.5,-389.2 224.5,-411.2 391.5,-411.2 391.5,-389.2 224.5,-389.2"/>
<text text-anchor="start" x="244.5" y="-396.3" font-family="Helvetica,sans-Serif" font-size="11.00" fill="#000000">id</text>
<polygon fill="none" stroke="#000000" points="224.5,-367.2 224.5,-389.2 391.5,-389.2 391.5,-367.2 224.5,-367.2"/>
<image xlink:href="../../images/foreignKeys.png" width="11px" height="12px" preserveAspectRatio="xMinYMin meet" x="229.5" y="-384.2"/>
<text text-anchor="start" x="244.5" y="-374.3" font-family="Helvetica,sans-Serif" font-size="11.00" fill="#000000">pharmacy_id</text>
<polygon fill="none" stroke="#000000" points="224.5,-345.2 224.5,-367.2 391.5,-367.2 391.5,-345.2 224.5,-345.2"/>
<image xlink:href="../../images/foreignKeys.png" width="11px" height="12px" preserveAspectRatio="xMinYMin meet" x="229.5" y="-362.2"/>
<text text-anchor="start" x="244.5" y="-352.3" font-family="Helvetica,sans-Serif" font-size="11.00" fill="#000000">providerID</text>
<polygon fill="none" stroke="#000000" points="224.5,-323.2 224.5,-345.2 391.5,-345.2 391.5,-323.2 224.5,-323.2"/>
<image xlink:href="../../images/foreignKeys.png" width="11px" height="12px" preserveAspectRatio="xMinYMin meet" x="229.5" y="-340.2"/>
<text text-anchor="start" x="244.5" y="-330.3" font-family="Helvetica,sans-Serif" font-size="11.00" fill="#000000">ref_providerID</text>
<polygon fill="none" stroke="#000000" points="224.5,-301.2 224.5,-323.2 391.5,-323.2 391.5,-301.2 224.5,-301.2"/>
<image xlink:href="../../images/primaryKeys.png" width="11px" height="12px" preserveAspectRatio="xMinYMin meet" x="229.5" y="-318.2"/>
<text text-anchor="start" x="244.5" y="-308.3" font-family="Helvetica,sans-Serif" font-size="11.00" fill="#000000">pid</text>
<polygon fill="#ffffff" stroke="transparent" points="224.5,-279.2 224.5,-301.2 391.5,-301.2 391.5,-279.2 224.5,-279.2"/>
<polygon fill="none" stroke="#000000" points="224.5,-279.2 224.5,-301.2 391.5,-301.2 391.5,-279.2 224.5,-279.2"/>
<text text-anchor="start" x="244.5" y="-286.3" font-family="Helvetica,sans-Serif" font-size="11.00" fill="#000000">uuid</text>
<polygon fill="none" stroke="#000000" points="224.5,-257.2 224.5,-279.2 391.5,-279.2 391.5,-257.2 224.5,-257.2"/>
<image xlink:href="../../images/foreignKeys.png" width="11px" height="12px" preserveAspectRatio="xMinYMin meet" x="229.5" y="-274.2"/>
<text text-anchor="start" x="244.5" y="-264.3" font-family="Helvetica,sans-Serif" font-size="11.00" fill="#000000">created_by</text>
<polygon fill="none" stroke="#000000" points="224.5,-235.2 224.5,-257.2 391.5,-257.2 391.5,-235.2 224.5,-235.2"/>
<image xlink:href="../../images/foreignKeys.png" width="11px" height="12px" preserveAspectRatio="xMinYMin meet" x="229.5" y="-252.2"/>
<text text-anchor="start" x="244.5" y="-242.3" font-family="Helvetica,sans-Serif" font-size="11.00" fill="#000000">updated_by</text>
<polygon fill="none" stroke="#000000" points="224.5,-216.2 224.5,-235.2 391.5,-235.2 391.5,-216.2 224.5,-216.2"/>
<text text-anchor="start" x="227.5" y="-222.3" font-family="Helvetica,sans-Serif" font-size="11.00" fill="#000000">...</text>
<polygon fill="#ffffff" stroke="transparent" points="224.5,-197.2 224.5,-216.2 298.5,-216.2 298.5,-197.2 224.5,-197.2"/>
<polygon fill="none" stroke="#000000" points="224.5,-197.2 224.5,-216.2 298.5,-216.2 298.5,-197.2 224.5,-197.2"/>
<text text-anchor="start" x="227.5" y="-203.3" font-family="Helvetica,sans-Serif" font-size="11.00" fill="#000000">&lt; 5</text>
<polygon fill="#ffffff" stroke="transparent" points="298.5,-197.2 298.5,-216.2 337.5,-216.2 337.5,-197.2 298.5,-197.2"/>
<polygon fill="none" stroke="#000000" points="298.5,-197.2 298.5,-216.2 337.5,-216.2 337.5,-197.2 298.5,-197.2"/>
<text text-anchor="start" x="328.3862" y="-203.3" font-family="Helvetica,sans-Serif" font-size="11.00" fill="#000000"> &#160;</text>
<polygon fill="#ffffff" stroke="transparent" points="337.5,-197.2 337.5,-216.2 391.5,-216.2 391.5,-197.2 337.5,-197.2"/>
<polygon fill="none" stroke="#000000" points="337.5,-197.2 337.5,-216.2 391.5,-216.2 391.5,-197.2 337.5,-197.2"/>
<text text-anchor="start" x="366.7904" y="-203.3" font-family="Helvetica,sans-Serif" font-size="11.00" fill="#000000">85 &gt;</text>
</a>
</g>
</g>
<!-- form_encounter&#45;&gt;patient_data -->
<g id="edge1" class="edge">
<title>form_encounter:w&#45;&gt;patient_data:e</title>
<path fill="none" stroke="#000000" d="M425.7648,-293.6375C414.3432,-299.825 409.2522,-312.2 391.5,-312.2"/>
<polygon fill="#000000" stroke="#000000" points="432.2235,-292.0779 440.8451,-293.6994 436.1118,-291.1389 440,-290.2 440,-290.2 440,-290.2 436.1118,-291.1389 439.1549,-286.7006 432.2235,-292.0779 432.2235,-292.0779"/>
<ellipse fill="none" stroke="#000000" cx="429.1129" cy="-292.8291" rx="3.2" ry="3.2"/>
</g>
<!-- users -->
<g id="node3" class="node">
<title>users</title>
<g id="a_node3"><a xlink:href="../../tables/users.html" xlink:title="users" target="_top">
<polygon fill="#ffffff" stroke="transparent" points="8,-87.7 8,-302.7 175,-302.7 175,-87.7 8,-87.7"/>
<polygon fill="#f5f5f5" stroke="transparent" points="8.5,-279.2 8.5,-302.2 175.5,-302.2 175.5,-279.2 8.5,-279.2"/>
<polygon fill="none" stroke="#000000" points="8.5,-279.2 8.5,-302.2 175.5,-302.2 175.5,-279.2 8.5,-279.2"/>
<text text-anchor="start" x="13.5" y="-287.8" font-family="Helvetica,sans-Serif" font-weight="bold" font-size="11.00" fill="#000000">users</text>
<text text-anchor="start" x="140.5437" y="-287.3" font-family="Helvetica,sans-Serif" font-size="11.00" fill="#000000">[table]</text>
<polygon fill="none" stroke="#000000" points="8.5,-257.2 8.5,-279.2 175.5,-279.2 175.5,-257.2 8.5,-257.2"/>
<image xlink:href="../../images/primaryKeys.png" width="11px" height="12px" preserveAspectRatio="xMinYMin meet" x="13.5" y="-274.2"/>
<text text-anchor="start" x="28.5" y="-264.3" font-family="Helvetica,sans-Serif" font-size="11.00" fill="#000000">id</text>
<polygon fill="none" stroke="#000000" points="8.5,-235.2 8.5,-257.2 175.5,-257.2 175.5,-235.2 8.5,-235.2"/>
<image xlink:href="../../images/primaryKeys.png" width="11px" height="12px" preserveAspectRatio="xMinYMin meet" x="13.5" y="-252.2"/>
<text text-anchor="start" x="28.5" y="-242.3" font-family="Helvetica,sans-Serif" font-size="11.00" fill="#000000">username</text>
<polygon fill="none" stroke="#000000" points="8.5,-213.2 8.5,-235.2 175.5,-235.2 175.5,-213.2 8.5,-213.2"/>
<image xlink:href="../../images/foreignKeys.png" width="11px" height="12px" preserveAspectRatio="xMinYMin meet" x="13.5" y="-230.2"/>
<text text-anchor="start" x="28.5" y="-220.3" font-family="Helvetica,sans-Serif" font-size="11.00" fill="#000000">facility_id</text>
<polygon fill="#ffffff" stroke="transparent" points="8.5,-191.2 8.5,-213.2 175.5,-213.2 175.5,-191.2 8.5,-191.2"/>
<polygon fill="none" stroke="#000000" points="8.5,-191.2 8.5,-213.2 175.5,-213.2 175.5,-191.2 8.5,-191.2"/>
<text text-anchor="start" x="28.5" y="-198.3" font-family="Helvetica,sans-Serif" font-size="11.00" fill="#000000">abook_type</text>
<polygon fill="#ffffff" stroke="transparent" points="8.5,-169.2 8.5,-191.2 175.5,-191.2 175.5,-169.2 8.5,-169.2"/>
<polygon fill="none" stroke="#000000" points="8.5,-169.2 8.5,-191.2 175.5,-191.2 175.5,-169.2 8.5,-169.2"/>
<text text-anchor="start" x="28.5" y="-176.3" font-family="Helvetica,sans-Serif" font-size="11.00" fill="#000000">uuid</text>
<polygon fill="#ffffff" stroke="transparent" points="8.5,-147.2 8.5,-169.2 175.5,-169.2 175.5,-147.2 8.5,-147.2"/>
<polygon fill="none" stroke="#000000" points="8.5,-147.2 8.5,-169.2 175.5,-169.2 175.5,-147.2 8.5,-147.2"/>
<text text-anchor="start" x="28.5" y="-154.3" font-family="Helvetica,sans-Serif" font-size="11.00" fill="#000000">google_signin_email</text>
<polygon fill="none" stroke="#000000" points="8.5,-125.2 8.5,-147.2 175.5,-147.2 175.5,-125.2 8.5,-125.2"/>
<image xlink:href="../../images/foreignKeys.png" width="11px" height="12px" preserveAspectRatio="xMinYMin meet" x="13.5" y="-142.2"/>
<text text-anchor="start" x="28.5" y="-132.3" font-family="Helvetica,sans-Serif" font-size="11.00" fill="#000000">billing_facility_id</text>
<polygon fill="none" stroke="#000000" points="8.5,-106.2 8.5,-125.2 175.5,-125.2 175.5,-106.2 8.5,-106.2"/>
<text text-anchor="start" x="11.5" y="-112.3" font-family="Helvetica,sans-Serif" font-size="11.00" fill="#000000">...</text>
<polygon fill="#ffffff" stroke="transparent" points="8.5,-87.2 8.5,-106.2 82.5,-106.2 82.5,-87.2 8.5,-87.2"/>
<polygon fill="none" stroke="#000000" points="8.5,-87.2 8.5,-106.2 82.5,-106.2 82.5,-87.2 8.5,-87.2"/>
<text text-anchor="start" x="11.5" y="-93.3" font-family="Helvetica,sans-Serif" font-size="11.00" fill="#000000">&lt; 2</text>
<polygon fill="#ffffff" stroke="transparent" points="82.5,-87.2 82.5,-106.2 121.5,-106.2 121.5,-87.2 82.5,-87.2"/>
<polygon fill="none" stroke="#000000" points="82.5,-87.2 82.5,-106.2 121.5,-106.2 121.5,-87.2 82.5,-87.2"/>
<text text-anchor="start" x="112.3862" y="-93.3" font-family="Helvetica,sans-Serif" font-size="11.00" fill="#000000"> &#160;</text>
<polygon fill="#ffffff" stroke="transparent" points="121.5,-87.2 121.5,-106.2 175.5,-106.2 175.5,-87.2 121.5,-87.2"/>
<polygon fill="none" stroke="#000000" points="121.5,-87.2 121.5,-106.2 175.5,-106.2 175.5,-87.2 121.5,-87.2"/>
<text text-anchor="start" x="150.7904" y="-93.3" font-family="Helvetica,sans-Serif" font-size="11.00" fill="#000000">61 &gt;</text>
</a>
</g>
</g>
<!-- patient_data&#45;&gt;users -->
<g id="edge2" class="edge">
<title>patient_data:w&#45;&gt;users:e</title>
<path fill="none" stroke="#000000" d="M209.9909,-268.2C198.6774,-268.2 191.4931,-268.2 175.5,-268.2"/>
<polygon fill="#000000" stroke="#000000" points="216.5,-268.2001 224.5,-271.8 220.5,-268.2 224.5,-268.2 224.5,-268.2 224.5,-268.2 220.5,-268.2 224.5,-264.6 216.5,-268.2001 216.5,-268.2001"/>
<ellipse fill="none" stroke="#000000" cx="213.3" cy="-268.2001" rx="3.2" ry="3.2"/>
</g>
<!-- patient_data&#45;&gt;users -->
<g id="edge3" class="edge">
<title>patient_data:w&#45;&gt;users:e</title>
<path fill="none" stroke="#000000" d="M210.4863,-351.7151C189.2228,-333.7824 214.1452,-268.2 175.5,-268.2"/>
<polygon fill="#000000" stroke="#000000" points="216.8807,-353.7615 223.4027,-359.6287 220.6903,-354.9807 224.5,-356.2 224.5,-356.2 224.5,-356.2 220.6903,-354.9807 225.5973,-352.7713 216.8807,-353.7615 216.8807,-353.7615"/>
<ellipse fill="none" stroke="#000000" cx="213.833" cy="-352.7861" rx="3.2" ry="3.2"/>
</g>
<!-- patient_data&#45;&gt;users -->
<g id="edge4" class="edge">
<title>patient_data:w&#45;&gt;users:e</title>
<path fill="none" stroke="#000000" d="M210.8768,-329.4534C194.2322,-314.3202 206.0399,-268.2 175.5,-268.2"/>
<polygon fill="#000000" stroke="#000000" points="216.9454,-331.5678 223.3155,-337.5996 220.7227,-332.8839 224.5,-334.2 224.5,-334.2 224.5,-334.2 220.7227,-332.8839 225.6845,-330.8004 216.9454,-331.5678 216.9454,-331.5678"/>
<ellipse fill="none" stroke="#000000" cx="213.9236" cy="-330.5149" rx="3.2" ry="3.2"/>
</g>
<!-- patient_data&#45;&gt;users -->
<g id="edge5" class="edge">
<title>patient_data:w&#45;&gt;users:e</title>
<path fill="none" stroke="#000000" d="M210.1297,-249.6375C198.5865,-255.825 193.4041,-268.2 175.5,-268.2"/>
<polygon fill="#000000" stroke="#000000" points="216.7195,-248.0612 225.3375,-249.7012 220.6098,-247.1306 224.5,-246.2 224.5,-246.2 224.5,-246.2 220.6098,-247.1306 223.6625,-242.6988 216.7195,-248.0612 216.7195,-248.0612"/>
<ellipse fill="none" stroke="#000000" cx="213.6073" cy="-248.8057" rx="3.2" ry="3.2"/>
</g>
<!-- voids -->
<g id="node4" class="node">
<title>voids</title>
<g id="a_node4"><a xlink:href="../../tables/voids.html" xlink:title="voids" target="_top">
<polygon fill="#ffffff" stroke="transparent" points="697,-38.2 697,-348.2 927,-348.2 927,-38.2 697,-38.2"/>
<polygon fill="#f5f5f5" stroke="transparent" points="699,-323.2 699,-346.2 925,-346.2 925,-323.2 699,-323.2"/>
<polygon fill="none" stroke="#000000" points="699,-323.2 699,-346.2 925,-346.2 925,-323.2 699,-323.2"/>
<text text-anchor="start" x="704" y="-331.8" font-family="Helvetica,sans-Serif" font-weight="bold" font-size="11.00" fill="#000000">voids</text>
<text text-anchor="start" x="890.0437" y="-331.3" font-family="Helvetica,sans-Serif" font-size="11.00" fill="#000000">[table]</text>
<polygon fill="none" stroke="#000000" points="699,-301.2 699,-323.2 808,-323.2 808,-301.2 699,-301.2"/>
<image xlink:href="../../images/primaryKeys.png" width="11px" height="12px" preserveAspectRatio="xMinYMin meet" x="704" y="-318.2"/>
<text text-anchor="start" x="719" y="-308.3" font-family="Helvetica,sans-Serif" font-size="11.00" fill="#000000">void_id</text>
<polygon fill="none" stroke="#000000" points="808,-301.2 808,-323.2 925,-323.2 925,-301.2 808,-301.2"/>
<text text-anchor="start" x="811" y="-308.9" font-family="Helvetica,sans-Serif" font-size="11.00" fill="#000000">bigint[19]</text>
<polygon fill="#ffffff" stroke="transparent" points="699,-279.2 699,-301.2 808,-301.2 808,-279.2 699,-279.2"/>
<polygon fill="none" stroke="#000000" points="699,-279.2 699,-301.2 808,-301.2 808,-279.2 699,-279.2"/>
<image xlink:href="../../images/foreignKeys.png" width="11px" height="12px" preserveAspectRatio="xMinYMin meet" x="704" y="-296.2"/>
<text text-anchor="start" x="719" y="-286.3" font-family="Helvetica,sans-Serif" font-size="11.00" fill="#000000">patient_id</text>
<polygon fill="none" stroke="#000000" points="808,-279.2 808,-301.2 925,-301.2 925,-279.2 808,-279.2"/>
<text text-anchor="start" x="811" y="-286.9" font-family="Helvetica,sans-Serif" font-size="11.00" fill="#000000">bigint[19]</text>
<polygon fill="#ffffff" stroke="transparent" points="699,-257.2 699,-279.2 808,-279.2 808,-257.2 699,-257.2"/>
<polygon fill="none" stroke="#000000" points="699,-257.2 699,-279.2 808,-279.2 808,-257.2 699,-257.2"/>
<image xlink:href="../../images/foreignKeys.png" width="11px" height="12px" preserveAspectRatio="xMinYMin meet" x="704" y="-274.2"/>
<text text-anchor="start" x="719" y="-264.3" font-family="Helvetica,sans-Serif" font-size="11.00" fill="#000000">encounter_id</text>
<polygon fill="none" stroke="#000000" points="808,-257.2 808,-279.2 925,-279.2 925,-257.2 808,-257.2"/>
<text text-anchor="start" x="811" y="-264.9" font-family="Helvetica,sans-Serif" font-size="11.00" fill="#000000">bigint[19]</text>
<polygon fill="none" stroke="#000000" points="699,-235.2 699,-257.2 808,-257.2 808,-235.2 699,-235.2"/>
<text text-anchor="start" x="719" y="-242.3" font-family="Helvetica,sans-Serif" font-size="11.00" fill="#000000">what_voided</text>
<polygon fill="none" stroke="#000000" points="808,-235.2 808,-257.2 925,-257.2 925,-235.2 808,-235.2"/>
<text text-anchor="start" x="811" y="-242.9" font-family="Helvetica,sans-Serif" font-size="11.00" fill="#000000">varchar[31]</text>
<polygon fill="none" stroke="#000000" points="699,-213.2 699,-235.2 808,-235.2 808,-213.2 699,-213.2"/>
<text text-anchor="start" x="719" y="-220.3" font-family="Helvetica,sans-Serif" font-size="11.00" fill="#000000">date_original</text>
<polygon fill="none" stroke="#000000" points="808,-213.2 808,-235.2 925,-235.2 925,-213.2 808,-213.2"/>
<text text-anchor="start" x="811" y="-220.9" font-family="Helvetica,sans-Serif" font-size="11.00" fill="#000000">datetime[19]</text>
<polygon fill="#ffffff" stroke="transparent" points="699,-191.2 699,-213.2 808,-213.2 808,-191.2 699,-191.2"/>
<polygon fill="none" stroke="#000000" points="699,-191.2 699,-213.2 808,-213.2 808,-191.2 699,-191.2"/>
<text text-anchor="start" x="719" y="-198.3" font-family="Helvetica,sans-Serif" font-size="11.00" fill="#000000">date_voided</text>
<polygon fill="none" stroke="#000000" points="808,-191.2 808,-213.2 925,-213.2 925,-191.2 808,-191.2"/>
<text text-anchor="start" x="811" y="-198.9" font-family="Helvetica,sans-Serif" font-size="11.00" fill="#000000">datetime[19]</text>
<polygon fill="none" stroke="#000000" points="699,-169.2 699,-191.2 808,-191.2 808,-169.2 699,-169.2"/>
<image xlink:href="../../images/foreignKeys.png" width="11px" height="12px" preserveAspectRatio="xMinYMin meet" x="704" y="-186.2"/>
<text text-anchor="start" x="719" y="-176.3" font-family="Helvetica,sans-Serif" font-size="11.00" fill="#000000">user_id</text>
<polygon fill="none" stroke="#000000" points="808,-169.2 808,-191.2 925,-191.2 925,-169.2 808,-169.2"/>
<text text-anchor="start" x="811" y="-176.9" font-family="Helvetica,sans-Serif" font-size="11.00" fill="#000000">bigint[19]</text>
<polygon fill="none" stroke="#000000" points="699,-147.2 699,-169.2 808,-169.2 808,-147.2 699,-147.2"/>
<text text-anchor="start" x="719" y="-154.3" font-family="Helvetica,sans-Serif" font-size="11.00" fill="#000000">amount1</text>
<polygon fill="none" stroke="#000000" points="808,-147.2 808,-169.2 925,-169.2 925,-147.2 808,-147.2"/>
<text text-anchor="start" x="811" y="-154.9" font-family="Helvetica,sans-Serif" font-size="11.00" fill="#000000">decimal[12,2]</text>
<polygon fill="none" stroke="#000000" points="699,-125.2 699,-147.2 808,-147.2 808,-125.2 699,-125.2"/>
<text text-anchor="start" x="719" y="-132.3" font-family="Helvetica,sans-Serif" font-size="11.00" fill="#000000">amount2</text>
<polygon fill="none" stroke="#000000" points="808,-125.2 808,-147.2 925,-147.2 925,-125.2 808,-125.2"/>
<text text-anchor="start" x="811" y="-132.9" font-family="Helvetica,sans-Serif" font-size="11.00" fill="#000000">decimal[12,2]</text>
<polygon fill="none" stroke="#000000" points="699,-103.2 699,-125.2 808,-125.2 808,-103.2 699,-103.2"/>
<text text-anchor="start" x="719" y="-110.3" font-family="Helvetica,sans-Serif" font-size="11.00" fill="#000000">other_info</text>
<polygon fill="none" stroke="#000000" points="808,-103.2 808,-125.2 925,-125.2 925,-103.2 808,-103.2"/>
<text text-anchor="start" x="810.5645" y="-110.9" font-family="Helvetica,sans-Serif" font-size="11.00" fill="#000000">mediumtext[16777215]</text>
<polygon fill="none" stroke="#000000" points="699,-81.2 699,-103.2 808,-103.2 808,-81.2 699,-81.2"/>
<text text-anchor="start" x="719" y="-88.3" font-family="Helvetica,sans-Serif" font-size="11.00" fill="#000000">reason</text>
<polygon fill="none" stroke="#000000" points="808,-81.2 808,-103.2 925,-103.2 925,-81.2 808,-81.2"/>
<text text-anchor="start" x="811" y="-88.9" font-family="Helvetica,sans-Serif" font-size="11.00" fill="#000000">varchar[31]</text>
<polygon fill="none" stroke="#000000" points="699,-59.2 699,-81.2 808,-81.2 808,-59.2 699,-59.2"/>
<text text-anchor="start" x="719" y="-66.3" font-family="Helvetica,sans-Serif" font-size="11.00" fill="#000000">notes</text>
<polygon fill="none" stroke="#000000" points="808,-59.2 808,-81.2 925,-81.2 925,-59.2 808,-59.2"/>
<text text-anchor="start" x="811" y="-66.9" font-family="Helvetica,sans-Serif" font-size="11.00" fill="#000000">varchar[255]</text>
<polygon fill="#ffffff" stroke="transparent" points="699,-40.2 699,-59.2 758,-59.2 758,-40.2 699,-40.2"/>
<polygon fill="none" stroke="#000000" points="699,-40.2 699,-59.2 758,-59.2 758,-40.2 699,-40.2"/>
<text text-anchor="start" x="702" y="-46.3" font-family="Helvetica,sans-Serif" font-size="11.00" fill="#000000">&lt; 3</text>
<polygon fill="#ffffff" stroke="transparent" points="758,-40.2 758,-59.2 808,-59.2 808,-40.2 758,-40.2"/>
<polygon fill="none" stroke="#000000" points="758,-40.2 758,-59.2 808,-59.2 808,-40.2 758,-40.2"/>
<text text-anchor="start" x="798.8862" y="-46.3" font-family="Helvetica,sans-Serif" font-size="11.00" fill="#000000"> &#160;</text>
<polygon fill="#ffffff" stroke="transparent" points="808,-40.2 808,-59.2 925,-59.2 925,-40.2 808,-40.2"/>
<polygon fill="none" stroke="#000000" points="808,-40.2 808,-59.2 925,-59.2 925,-40.2 808,-40.2"/>
<text text-anchor="start" x="906.4053" y="-46.3" font-family="Helvetica,sans-Serif" font-size="11.00" fill="#000000">0 &gt;</text>
<polygon fill="none" stroke="#000000" stroke-width="2" points="698,-39.2 698,-347.2 926,-347.2 926,-39.2 698,-39.2"/>
</a>
</g>
</g>
<!-- voids&#45;&gt;form_encounter -->
<g id="edge6" class="edge">
<title>voids:w&#45;&gt;form_encounter:e</title>
<path fill="none" stroke="#000000" d="M684.276,-268.2C672.2815,-268.2 664.8229,-268.2 648,-268.2"/>
<polygon fill="#000000" stroke="#000000" points="691,-268.2001 699,-271.8 695,-268.2 699,-268.2 699,-268.2 699,-268.2 695,-268.2 699,-264.6 691,-268.2001 691,-268.2001"/>
<ellipse fill="none" stroke="#000000" cx="687.8" cy="-268.2001" rx="3.2" ry="3.2"/>
</g>
<!-- voids&#45;&gt;patient_data -->
<g id="edge7" class="edge">
<title>voids:w&#45;&gt;patient_data:e</title>
<path fill="none" stroke="#000000" d="M684.8981,-293.7946C664.307,-307.8279 687.9789,-359.1348 656,-379.2 571.6702,-432.113 518.7137,-428.1085 432,-379.2 401.693,-362.1061 426.2953,-312.2 391.5,-312.2"/>
<polygon fill="#000000" stroke="#000000" points="691.2479,-292.1761 699.8892,-293.6885 695.1239,-291.188 699,-290.2 699,-290.2 699,-290.2 695.1239,-291.188 698.1108,-286.7115 691.2479,-292.1761 691.2479,-292.1761"/>
<ellipse fill="none" stroke="#000000" cx="688.147" cy="-292.9665" rx="3.2" ry="3.2"/>
</g>
<!-- voids&#45;&gt;users -->
<g id="edge8" class="edge">
<title>voids:w&#45;&gt;users:e</title>
<path fill="none" stroke="#000000" d="M684.419,-180.0346C480.29,-175.3968 393.6307,-75.6314 216,-187.2 181.9162,-208.6078 215.7492,-268.2 175.5,-268.2"/>
<polygon fill="#000000" stroke="#000000" points="691.0005,-180.1092 698.9591,-183.7998 695.0003,-180.1546 699,-180.2 699,-180.2 699,-180.2 695.0003,-180.1546 699.0409,-176.6002 691.0005,-180.1092 691.0005,-180.1092"/>
<ellipse fill="none" stroke="#000000" cx="687.8007" cy="-180.0729" rx="3.2" ry="3.2"/>
</g>
</g>
</svg>
