<?xml version="1.0" encoding="UTF-8" standalone="no"?>
<!DOCTYPE svg PUBLIC "-//W3C//DTD SVG 1.1//EN"
 "http://www.w3.org/Graphics/SVG/1.1/DTD/svg11.dtd">
<!-- Generated by graphviz version 2.40.1 (20161225.0304)
 -->
<!-- Title: twoDegreesRelationshipsDiagram Pages: 1 -->
<svg width="764pt" height="1157pt"
 viewBox="0.00 0.00 764.00 1156.70" xmlns="http://www.w3.org/2000/svg" xmlns:xlink="http://www.w3.org/1999/xlink">
<g id="graph0" class="graph" transform="scale(1 1) rotate(0) translate(4 1152.7)">
<title>twoDegreesRelationshipsDiagram</title>
<polygon fill="#ffffff" stroke="transparent" points="-4,4 -4,-1152.7 760,-1152.7 760,4 -4,4"/>
<text text-anchor="middle" x="72.4936" y="-7.3" font-family="Helvetica,sans-Serif" font-size="11.00" fill="#000000">Generated by SchemaSpy</text>
<!-- billing -->
<g id="node1" class="node">
<title>billing</title>
<g id="a_node1"><a xlink:href="../../tables/billing.html" xlink:title="billing" target="_top">
<polygon fill="#ffffff" stroke="transparent" points="627,-842.7 627,-1079.7 748,-1079.7 748,-842.7 627,-842.7"/>
<polygon fill="#f5f5f5" stroke="transparent" points="627.5,-1056.2 627.5,-1079.2 748.5,-1079.2 748.5,-1056.2 627.5,-1056.2"/>
<polygon fill="none" stroke="#000000" points="627.5,-1056.2 627.5,-1079.2 748.5,-1079.2 748.5,-1056.2 627.5,-1056.2"/>
<text text-anchor="start" x="632.5" y="-1064.8" font-family="Helvetica,sans-Serif" font-weight="bold" font-size="11.00" fill="#000000">billing</text>
<text text-anchor="start" x="713.5437" y="-1064.3" font-family="Helvetica,sans-Serif" font-size="11.00" fill="#000000">[table]</text>
<polygon fill="none" stroke="#000000" points="627.5,-1034.2 627.5,-1056.2 748.5,-1056.2 748.5,-1034.2 627.5,-1034.2"/>
<image xlink:href="../../images/primaryKeys.png" width="11px" height="12px" preserveAspectRatio="xMinYMin meet" x="632.5" y="-1051.2"/>
<text text-anchor="start" x="647.5" y="-1041.3" font-family="Helvetica,sans-Serif" font-size="11.00" fill="#000000">id</text>
<polygon fill="#ffffff" stroke="transparent" points="627.5,-1012.2 627.5,-1034.2 748.5,-1034.2 748.5,-1012.2 627.5,-1012.2"/>
<polygon fill="none" stroke="#000000" points="627.5,-1012.2 627.5,-1034.2 748.5,-1034.2 748.5,-1012.2 627.5,-1012.2"/>
<image xlink:href="../../images/foreignKeys.png" width="11px" height="12px" preserveAspectRatio="xMinYMin meet" x="632.5" y="-1029.2"/>
<text text-anchor="start" x="647.5" y="-1019.3" font-family="Helvetica,sans-Serif" font-size="11.00" fill="#000000">pid</text>
<polygon fill="none" stroke="#000000" points="627.5,-990.2 627.5,-1012.2 748.5,-1012.2 748.5,-990.2 627.5,-990.2"/>
<image xlink:href="../../images/foreignKeys.png" width="11px" height="12px" preserveAspectRatio="xMinYMin meet" x="632.5" y="-1007.2"/>
<text text-anchor="start" x="647.5" y="-997.3" font-family="Helvetica,sans-Serif" font-size="11.00" fill="#000000">provider_id</text>
<polygon fill="none" stroke="#000000" points="627.5,-968.2 627.5,-990.2 748.5,-990.2 748.5,-968.2 627.5,-968.2"/>
<image xlink:href="../../images/foreignKeys.png" width="11px" height="12px" preserveAspectRatio="xMinYMin meet" x="632.5" y="-985.2"/>
<text text-anchor="start" x="647.5" y="-975.3" font-family="Helvetica,sans-Serif" font-size="11.00" fill="#000000">user</text>
<polygon fill="none" stroke="#000000" points="627.5,-946.2 627.5,-968.2 748.5,-968.2 748.5,-946.2 627.5,-946.2"/>
<image xlink:href="../../images/foreignKeys.png" width="11px" height="12px" preserveAspectRatio="xMinYMin meet" x="632.5" y="-963.2"/>
<text text-anchor="start" x="647.5" y="-953.3" font-family="Helvetica,sans-Serif" font-size="11.00" fill="#000000">groupname</text>
<polygon fill="none" stroke="#000000" points="627.5,-924.2 627.5,-946.2 748.5,-946.2 748.5,-924.2 627.5,-924.2"/>
<image xlink:href="../../images/foreignKeys.png" width="11px" height="12px" preserveAspectRatio="xMinYMin meet" x="632.5" y="-941.2"/>
<text text-anchor="start" x="647.5" y="-931.3" font-family="Helvetica,sans-Serif" font-size="11.00" fill="#000000">encounter</text>
<polygon fill="none" stroke="#000000" points="627.5,-902.2 627.5,-924.2 748.5,-924.2 748.5,-902.2 627.5,-902.2"/>
<image xlink:href="../../images/foreignKeys.png" width="11px" height="12px" preserveAspectRatio="xMinYMin meet" x="632.5" y="-919.2"/>
<text text-anchor="start" x="647.5" y="-909.3" font-family="Helvetica,sans-Serif" font-size="11.00" fill="#000000">payer_id</text>
<polygon fill="none" stroke="#000000" points="627.5,-880.2 627.5,-902.2 748.5,-902.2 748.5,-880.2 627.5,-880.2"/>
<image xlink:href="../../images/foreignKeys.png" width="11px" height="12px" preserveAspectRatio="xMinYMin meet" x="632.5" y="-897.2"/>
<text text-anchor="start" x="647.5" y="-887.3" font-family="Helvetica,sans-Serif" font-size="11.00" fill="#000000">x12_partner_id</text>
<polygon fill="none" stroke="#000000" points="627.5,-861.2 627.5,-880.2 748.5,-880.2 748.5,-861.2 627.5,-861.2"/>
<text text-anchor="start" x="630.5" y="-867.3" font-family="Helvetica,sans-Serif" font-size="11.00" fill="#000000">...</text>
<polygon fill="#ffffff" stroke="transparent" points="627.5,-842.2 627.5,-861.2 686.5,-861.2 686.5,-842.2 627.5,-842.2"/>
<polygon fill="none" stroke="#000000" points="627.5,-842.2 627.5,-861.2 686.5,-861.2 686.5,-842.2 627.5,-842.2"/>
<text text-anchor="start" x="630.5" y="-848.3" font-family="Helvetica,sans-Serif" font-size="11.00" fill="#000000">&lt; 7</text>
<polygon fill="#ffffff" stroke="transparent" points="686.5,-842.2 686.5,-861.2 717.5,-861.2 717.5,-842.2 686.5,-842.2"/>
<polygon fill="none" stroke="#000000" points="686.5,-842.2 686.5,-861.2 717.5,-861.2 717.5,-842.2 686.5,-842.2"/>
<text text-anchor="start" x="708.3862" y="-848.3" font-family="Helvetica,sans-Serif" font-size="11.00" fill="#000000"> &#160;</text>
<polygon fill="#ffffff" stroke="transparent" points="717.5,-842.2 717.5,-861.2 748.5,-861.2 748.5,-842.2 717.5,-842.2"/>
<polygon fill="none" stroke="#000000" points="717.5,-842.2 717.5,-861.2 748.5,-861.2 748.5,-842.2 717.5,-842.2"/>
<text text-anchor="start" x="739.3862" y="-848.3" font-family="Helvetica,sans-Serif" font-size="11.00" fill="#000000"> &#160;</text>
</a>
</g>
</g>
<!-- form_encounter -->
<g id="node2" class="node">
<title>form_encounter</title>
<g id="a_node2"><a xlink:href="../../tables/form_encounter.html" xlink:title="form_encounter" target="_top">
<polygon fill="#ffffff" stroke="transparent" points="369,-809.7 369,-870.7 514,-870.7 514,-809.7 369,-809.7"/>
<polygon fill="#f5f5f5" stroke="transparent" points="369.5,-847.2 369.5,-870.2 514.5,-870.2 514.5,-847.2 369.5,-847.2"/>
<polygon fill="none" stroke="#000000" points="369.5,-847.2 369.5,-870.2 514.5,-870.2 514.5,-847.2 369.5,-847.2"/>
<text text-anchor="start" x="374.5" y="-855.8" font-family="Helvetica,sans-Serif" font-weight="bold" font-size="11.00" fill="#000000">form_encounter</text>
<text text-anchor="start" x="480.0219" y="-855.3" font-family="Helvetica,sans-Serif" font-size="11.00" fill="#000000">[table]</text>
<polygon fill="none" stroke="#000000" points="369.5,-828.2 369.5,-847.2 514.5,-847.2 514.5,-828.2 369.5,-828.2"/>
<text text-anchor="start" x="372.5" y="-834.3" font-family="Helvetica,sans-Serif" font-size="11.00" fill="#000000">...</text>
<polygon fill="#ffffff" stroke="transparent" points="369.5,-809.2 369.5,-828.2 435.5,-828.2 435.5,-809.2 369.5,-809.2"/>
<polygon fill="none" stroke="#000000" points="369.5,-809.2 369.5,-828.2 435.5,-828.2 435.5,-809.2 369.5,-809.2"/>
<text text-anchor="start" x="372.5" y="-815.3" font-family="Helvetica,sans-Serif" font-size="11.00" fill="#000000">&lt; 1</text>
<polygon fill="#ffffff" stroke="transparent" points="435.5,-809.2 435.5,-828.2 470.5,-828.2 470.5,-809.2 435.5,-809.2"/>
<polygon fill="none" stroke="#000000" points="435.5,-809.2 435.5,-828.2 470.5,-828.2 470.5,-809.2 435.5,-809.2"/>
<text text-anchor="start" x="461.3862" y="-815.3" font-family="Helvetica,sans-Serif" font-size="11.00" fill="#000000"> &#160;</text>
<polygon fill="#ffffff" stroke="transparent" points="470.5,-809.2 470.5,-828.2 514.5,-828.2 514.5,-809.2 470.5,-809.2"/>
<polygon fill="none" stroke="#000000" points="470.5,-809.2 470.5,-828.2 514.5,-828.2 514.5,-809.2 470.5,-809.2"/>
<text text-anchor="start" x="495.9053" y="-815.3" font-family="Helvetica,sans-Serif" font-size="11.00" fill="#000000">9 &gt;</text>
</a>
</g>
</g>
<!-- billing&#45;&gt;form_encounter -->
<g id="edge1" class="edge">
<title>billing:w&#45;&gt;form_encounter:e</title>
<path fill="none" stroke="#000000" d="M613.5636,-931.4201C600.4103,-922.0514 603.9159,-897.3498 586,-881.2 558.2852,-856.2172 551.8128,-837.2 514.5,-837.2"/>
<polygon fill="#000000" stroke="#000000" points="619.779,-933.1058 626.5576,-938.6745 623.6395,-934.1529 627.5,-935.2 627.5,-935.2 627.5,-935.2 623.6395,-934.1529 628.4424,-931.7255 619.779,-933.1058 619.779,-933.1058"/>
<ellipse fill="none" stroke="#000000" cx="616.6905" cy="-932.2681" rx="3.2" ry="3.2"/>
</g>
<!-- groups -->
<g id="node3" class="node">
<title>groups</title>
<g id="a_node3"><a xlink:href="../../tables/groups.html" xlink:title="groups" target="_top">
<polygon fill="#ffffff" stroke="transparent" points="398.5,-891.7 398.5,-952.7 484.5,-952.7 484.5,-891.7 398.5,-891.7"/>
<polygon fill="#f5f5f5" stroke="transparent" points="398.5,-929.2 398.5,-952.2 484.5,-952.2 484.5,-929.2 398.5,-929.2"/>
<polygon fill="none" stroke="#000000" points="398.5,-929.2 398.5,-952.2 484.5,-952.2 484.5,-929.2 398.5,-929.2"/>
<text text-anchor="start" x="403.5" y="-937.8" font-family="Helvetica,sans-Serif" font-weight="bold" font-size="11.00" fill="#000000">groups</text>
<text text-anchor="start" x="450.0219" y="-937.3" font-family="Helvetica,sans-Serif" font-size="11.00" fill="#000000">[table]</text>
<polygon fill="none" stroke="#000000" points="398.5,-910.2 398.5,-929.2 484.5,-929.2 484.5,-910.2 398.5,-910.2"/>
<text text-anchor="start" x="401.5" y="-916.3" font-family="Helvetica,sans-Serif" font-size="11.00" fill="#000000">...</text>
<polygon fill="#ffffff" stroke="transparent" points="398.5,-891.2 398.5,-910.2 427.5,-910.2 427.5,-891.2 398.5,-891.2"/>
<polygon fill="none" stroke="#000000" points="398.5,-891.2 398.5,-910.2 427.5,-910.2 427.5,-891.2 398.5,-891.2"/>
<text text-anchor="start" x="401.5" y="-897.3" font-family="Helvetica,sans-Serif" font-size="11.00" fill="#000000"> &#160;</text>
<polygon fill="#ffffff" stroke="transparent" points="427.5,-891.2 427.5,-910.2 448.5,-910.2 448.5,-891.2 427.5,-891.2"/>
<polygon fill="none" stroke="#000000" points="427.5,-891.2 427.5,-910.2 448.5,-910.2 448.5,-891.2 427.5,-891.2"/>
<text text-anchor="start" x="439.3862" y="-897.3" font-family="Helvetica,sans-Serif" font-size="11.00" fill="#000000"> &#160;</text>
<polygon fill="#ffffff" stroke="transparent" points="448.5,-891.2 448.5,-910.2 484.5,-910.2 484.5,-891.2 448.5,-891.2"/>
<polygon fill="none" stroke="#000000" points="448.5,-891.2 448.5,-910.2 484.5,-910.2 484.5,-891.2 448.5,-891.2"/>
<text text-anchor="start" x="459.7904" y="-897.3" font-family="Helvetica,sans-Serif" font-size="11.00" fill="#000000">10 &gt;</text>
</a>
</g>
</g>
<!-- billing&#45;&gt;groups -->
<g id="edge2" class="edge">
<title>billing:w&#45;&gt;groups:e</title>
<path fill="none" stroke="#000000" d="M613.0294,-956.5404C559.6141,-951.4944 545.1237,-919.2 484.5,-919.2"/>
<polygon fill="#000000" stroke="#000000" points="619.5083,-956.8357 627.3361,-960.7963 623.5041,-957.0178 627.5,-957.2 627.5,-957.2 627.5,-957.2 623.5041,-957.0178 627.6639,-953.6037 619.5083,-956.8357 619.5083,-956.8357"/>
<ellipse fill="none" stroke="#000000" cx="616.3116" cy="-956.69" rx="3.2" ry="3.2"/>
</g>
<!-- insurance_companies -->
<g id="node4" class="node">
<title>insurance_companies</title>
<g id="a_node4"><a xlink:href="../../tables/insurance_companies.html" xlink:title="insurance_companies" target="_top">
<polygon fill="#ffffff" stroke="transparent" points="350,-973.7 350,-1034.7 533,-1034.7 533,-973.7 350,-973.7"/>
<polygon fill="#f5f5f5" stroke="transparent" points="350.5,-1011.2 350.5,-1034.2 533.5,-1034.2 533.5,-1011.2 350.5,-1011.2"/>
<polygon fill="none" stroke="#000000" points="350.5,-1011.2 350.5,-1034.2 533.5,-1034.2 533.5,-1011.2 350.5,-1011.2"/>
<text text-anchor="start" x="355.5" y="-1019.8" font-family="Helvetica,sans-Serif" font-weight="bold" font-size="11.00" fill="#000000">insurance_companies</text>
<text text-anchor="start" x="499.0219" y="-1019.3" font-family="Helvetica,sans-Serif" font-size="11.00" fill="#000000">[table]</text>
<polygon fill="none" stroke="#000000" points="350.5,-992.2 350.5,-1011.2 533.5,-1011.2 533.5,-992.2 350.5,-992.2"/>
<text text-anchor="start" x="353.5" y="-998.3" font-family="Helvetica,sans-Serif" font-size="11.00" fill="#000000">...</text>
<polygon fill="#ffffff" stroke="transparent" points="350.5,-973.2 350.5,-992.2 435.5,-992.2 435.5,-973.2 350.5,-973.2"/>
<polygon fill="none" stroke="#000000" points="350.5,-973.2 350.5,-992.2 435.5,-992.2 435.5,-973.2 350.5,-973.2"/>
<text text-anchor="start" x="353.5" y="-979.3" font-family="Helvetica,sans-Serif" font-size="11.00" fill="#000000">&lt; 1</text>
<polygon fill="#ffffff" stroke="transparent" points="435.5,-973.2 435.5,-992.2 479.5,-992.2 479.5,-973.2 435.5,-973.2"/>
<polygon fill="none" stroke="#000000" points="435.5,-973.2 435.5,-992.2 479.5,-992.2 479.5,-973.2 435.5,-973.2"/>
<text text-anchor="start" x="470.3862" y="-979.3" font-family="Helvetica,sans-Serif" font-size="11.00" fill="#000000"> &#160;</text>
<polygon fill="#ffffff" stroke="transparent" points="479.5,-973.2 479.5,-992.2 533.5,-992.2 533.5,-973.2 479.5,-973.2"/>
<polygon fill="none" stroke="#000000" points="479.5,-973.2 479.5,-992.2 533.5,-992.2 533.5,-973.2 479.5,-973.2"/>
<text text-anchor="start" x="514.9053" y="-979.3" font-family="Helvetica,sans-Serif" font-size="11.00" fill="#000000">4 &gt;</text>
</a>
</g>
</g>
<!-- billing&#45;&gt;insurance_companies -->
<g id="edge3" class="edge">
<title>billing:w&#45;&gt;insurance_companies:e</title>
<path fill="none" stroke="#000000" d="M613.2086,-917.1178C600.91,-925.9376 602.4734,-947.7832 586,-963.2 564.9691,-982.882 562.3041,-1001.2 533.5,-1001.2"/>
<polygon fill="#000000" stroke="#000000" points="619.7847,-915.3151 628.4518,-916.6719 623.6423,-914.2576 627.5,-913.2 627.5,-913.2 627.5,-913.2 623.6423,-914.2576 626.5482,-909.7281 619.7847,-915.3151 619.7847,-915.3151"/>
<ellipse fill="none" stroke="#000000" cx="616.6985" cy="-916.1612" rx="3.2" ry="3.2"/>
</g>
<!-- billing&#45;&gt;insurance_companies -->
<g id="edge5" class="edge">
<title>billing:w&#45;&gt;insurance_companies:e</title>
<path fill="none" stroke="#000000" d="M612.7715,-1001.2C582.5089,-1001.2 569.8924,-1001.2 533.5,-1001.2"/>
<polygon fill="#000000" stroke="#000000" points="619.5,-1001.2001 627.5,-1004.8 623.5,-1001.2 627.5,-1001.2 627.5,-1001.2 627.5,-1001.2 623.5,-1001.2 627.5,-997.6 619.5,-1001.2001 619.5,-1001.2001"/>
<ellipse fill="none" stroke="#000000" cx="616.3" cy="-1001.2001" rx="3.2" ry="3.2"/>
</g>
<!-- patient_data -->
<g id="node5" class="node">
<title>patient_data</title>
<g id="a_node5"><a xlink:href="../../tables/patient_data.html" xlink:title="patient_data" target="_top">
<polygon fill="#ffffff" stroke="transparent" points="132,-1083.7 132,-1144.7 256,-1144.7 256,-1083.7 132,-1083.7"/>
<polygon fill="#f5f5f5" stroke="transparent" points="132,-1121.2 132,-1144.2 256,-1144.2 256,-1121.2 132,-1121.2"/>
<polygon fill="none" stroke="#000000" points="132,-1121.2 132,-1144.2 256,-1144.2 256,-1121.2 132,-1121.2"/>
<text text-anchor="start" x="137" y="-1129.8" font-family="Helvetica,sans-Serif" font-weight="bold" font-size="11.00" fill="#000000">patient_data</text>
<text text-anchor="start" x="221.5219" y="-1129.3" font-family="Helvetica,sans-Serif" font-size="11.00" fill="#000000">[table]</text>
<polygon fill="none" stroke="#000000" points="132,-1102.2 132,-1121.2 256,-1121.2 256,-1102.2 132,-1102.2"/>
<text text-anchor="start" x="135" y="-1108.3" font-family="Helvetica,sans-Serif" font-size="11.00" fill="#000000">...</text>
<polygon fill="#ffffff" stroke="transparent" points="132,-1083.2 132,-1102.2 185,-1102.2 185,-1083.2 132,-1083.2"/>
<polygon fill="none" stroke="#000000" points="132,-1083.2 132,-1102.2 185,-1102.2 185,-1083.2 132,-1083.2"/>
<text text-anchor="start" x="135" y="-1089.3" font-family="Helvetica,sans-Serif" font-size="11.00" fill="#000000">&lt; 5</text>
<polygon fill="#ffffff" stroke="transparent" points="185,-1083.2 185,-1102.2 213,-1102.2 213,-1083.2 185,-1083.2"/>
<polygon fill="none" stroke="#000000" points="185,-1083.2 185,-1102.2 213,-1102.2 213,-1083.2 185,-1083.2"/>
<text text-anchor="start" x="203.8862" y="-1089.3" font-family="Helvetica,sans-Serif" font-size="11.00" fill="#000000"> &#160;</text>
<polygon fill="#ffffff" stroke="transparent" points="213,-1083.2 213,-1102.2 256,-1102.2 256,-1083.2 213,-1083.2"/>
<polygon fill="none" stroke="#000000" points="213,-1083.2 213,-1102.2 256,-1102.2 256,-1083.2 213,-1083.2"/>
<text text-anchor="start" x="231.2904" y="-1089.3" font-family="Helvetica,sans-Serif" font-size="11.00" fill="#000000">80 &gt;</text>
</a>
</g>
</g>
<!-- billing&#45;&gt;patient_data -->
<g id="edge4" class="edge">
<title>billing:w&#45;&gt;patient_data:e</title>
<path fill="none" stroke="#000000" d="M613.7854,-1027.6944C602.906,-1037.2119 604.8733,-1059.3338 586,-1069.2 454.9734,-1137.6951 403.8498,-1111.2 256,-1111.2"/>
<polygon fill="#000000" stroke="#000000" points="619.8978,-1025.6913 628.6211,-1026.621 623.6989,-1024.4457 627.5,-1023.2 627.5,-1023.2 627.5,-1023.2 623.6989,-1024.4457 626.3789,-1019.779 619.8978,-1025.6913 619.8978,-1025.6913"/>
<ellipse fill="none" stroke="#000000" cx="616.8569" cy="-1026.6879" rx="3.2" ry="3.2"/>
</g>
<!-- users -->
<g id="node6" class="node">
<title>users</title>
<g id="a_node6"><a xlink:href="../../tables/users.html" xlink:title="users" target="_top">
<polygon fill="#ffffff" stroke="transparent" points="8,-1083.7 8,-1144.7 83,-1144.7 83,-1083.7 8,-1083.7"/>
<polygon fill="#f5f5f5" stroke="transparent" points="8.5,-1121.2 8.5,-1144.2 83.5,-1144.2 83.5,-1121.2 8.5,-1121.2"/>
<polygon fill="none" stroke="#000000" points="8.5,-1121.2 8.5,-1144.2 83.5,-1144.2 83.5,-1121.2 8.5,-1121.2"/>
<text text-anchor="start" x="13.5" y="-1129.8" font-family="Helvetica,sans-Serif" font-weight="bold" font-size="11.00" fill="#000000">users</text>
<text text-anchor="start" x="49.0219" y="-1129.3" font-family="Helvetica,sans-Serif" font-size="11.00" fill="#000000">[table]</text>
<polygon fill="none" stroke="#000000" points="8.5,-1102.2 8.5,-1121.2 83.5,-1121.2 83.5,-1102.2 8.5,-1102.2"/>
<text text-anchor="start" x="11.5" y="-1108.3" font-family="Helvetica,sans-Serif" font-size="11.00" fill="#000000">...</text>
<polygon fill="#ffffff" stroke="transparent" points="8.5,-1083.2 8.5,-1102.2 32.5,-1102.2 32.5,-1083.2 8.5,-1083.2"/>
<polygon fill="none" stroke="#000000" points="8.5,-1083.2 8.5,-1102.2 32.5,-1102.2 32.5,-1083.2 8.5,-1083.2"/>
<text text-anchor="start" x="11.5" y="-1089.3" font-family="Helvetica,sans-Serif" font-size="11.00" fill="#000000"> &#160;</text>
<polygon fill="#ffffff" stroke="transparent" points="32.5,-1083.2 32.5,-1102.2 50.5,-1102.2 50.5,-1083.2 32.5,-1083.2"/>
<polygon fill="none" stroke="#000000" points="32.5,-1083.2 32.5,-1102.2 50.5,-1102.2 50.5,-1083.2 32.5,-1083.2"/>
<text text-anchor="start" x="41.3862" y="-1089.3" font-family="Helvetica,sans-Serif" font-size="11.00" fill="#000000"> &#160;</text>
<polygon fill="#ffffff" stroke="transparent" points="50.5,-1083.2 50.5,-1102.2 83.5,-1102.2 83.5,-1083.2 50.5,-1083.2"/>
<polygon fill="none" stroke="#000000" points="50.5,-1083.2 50.5,-1102.2 83.5,-1102.2 83.5,-1083.2 50.5,-1083.2"/>
<text text-anchor="start" x="58.7904" y="-1089.3" font-family="Helvetica,sans-Serif" font-size="11.00" fill="#000000">38 &gt;</text>
</a>
</g>
</g>
<!-- billing&#45;&gt;users -->
<g id="edge6" class="edge">
<title>billing:w&#45;&gt;users:e</title>
<path fill="none" stroke="#000000" d="M613.3576,-983.7769C599.6042,-996.247 610.2194,-1030.8461 586,-1045.2 497.5173,-1097.6402 218.4512,-1032.4798 124,-1073.2 101.334,-1082.9719 108.1827,-1111.2 83.5,-1111.2"/>
<polygon fill="#000000" stroke="#000000" points="619.8887,-981.6633 628.6085,-982.6251 623.6943,-980.4317 627.5,-979.2 627.5,-979.2 627.5,-979.2 623.6943,-980.4317 626.3915,-975.7749 619.8887,-981.6633 619.8887,-981.6633"/>
<ellipse fill="none" stroke="#000000" cx="616.8441" cy="-982.6486" rx="3.2" ry="3.2"/>
</g>
<!-- x12_partners -->
<g id="node7" class="node">
<title>x12_partners</title>
<g id="a_node7"><a xlink:href="../../tables/x12_partners.html" xlink:title="x12_partners" target="_top">
<polygon fill="#ffffff" stroke="transparent" points="305,-38.2 305,-788.2 578,-788.2 578,-38.2 305,-38.2"/>
<polygon fill="#f5f5f5" stroke="transparent" points="307.5,-763.2 307.5,-786.2 576.5,-786.2 576.5,-763.2 307.5,-763.2"/>
<polygon fill="none" stroke="#000000" points="307.5,-763.2 307.5,-786.2 576.5,-786.2 576.5,-763.2 307.5,-763.2"/>
<text text-anchor="start" x="312.5" y="-771.8" font-family="Helvetica,sans-Serif" font-weight="bold" font-size="11.00" fill="#000000">x12_partners</text>
<text text-anchor="start" x="541.5437" y="-771.3" font-family="Helvetica,sans-Serif" font-size="11.00" fill="#000000">[table]</text>
<polygon fill="none" stroke="#000000" points="307.5,-741.2 307.5,-763.2 509.5,-763.2 509.5,-741.2 307.5,-741.2"/>
<image xlink:href="../../images/primaryKeys.png" width="11px" height="12px" preserveAspectRatio="xMinYMin meet" x="312.5" y="-758.2"/>
<text text-anchor="start" x="327.5" y="-748.3" font-family="Helvetica,sans-Serif" font-size="11.00" fill="#000000">id</text>
<polygon fill="none" stroke="#000000" points="509.5,-741.2 509.5,-763.2 576.5,-763.2 576.5,-741.2 509.5,-741.2"/>
<text text-anchor="start" x="512.5" y="-748.9" font-family="Helvetica,sans-Serif" font-size="11.00" fill="#000000">int[10]</text>
<polygon fill="none" stroke="#000000" points="307.5,-719.2 307.5,-741.2 509.5,-741.2 509.5,-719.2 307.5,-719.2"/>
<text text-anchor="start" x="327.5" y="-726.3" font-family="Helvetica,sans-Serif" font-size="11.00" fill="#000000">name</text>
<polygon fill="none" stroke="#000000" points="509.5,-719.2 509.5,-741.2 576.5,-741.2 576.5,-719.2 509.5,-719.2"/>
<text text-anchor="start" x="512.4365" y="-726.9" font-family="Helvetica,sans-Serif" font-size="11.00" fill="#000000">varchar[255]</text>
<polygon fill="none" stroke="#000000" points="307.5,-697.2 307.5,-719.2 509.5,-719.2 509.5,-697.2 307.5,-697.2"/>
<text text-anchor="start" x="327.5" y="-704.3" font-family="Helvetica,sans-Serif" font-size="11.00" fill="#000000">id_number</text>
<polygon fill="none" stroke="#000000" points="509.5,-697.2 509.5,-719.2 576.5,-719.2 576.5,-697.2 509.5,-697.2"/>
<text text-anchor="start" x="512.4365" y="-704.9" font-family="Helvetica,sans-Serif" font-size="11.00" fill="#000000">varchar[255]</text>
<polygon fill="none" stroke="#000000" points="307.5,-675.2 307.5,-697.2 509.5,-697.2 509.5,-675.2 307.5,-675.2"/>
<text text-anchor="start" x="327.5" y="-682.3" font-family="Helvetica,sans-Serif" font-size="11.00" fill="#000000">x12_sender_id</text>
<polygon fill="none" stroke="#000000" points="509.5,-675.2 509.5,-697.2 576.5,-697.2 576.5,-675.2 509.5,-675.2"/>
<text text-anchor="start" x="512.4365" y="-682.9" font-family="Helvetica,sans-Serif" font-size="11.00" fill="#000000">varchar[255]</text>
<polygon fill="none" stroke="#000000" points="307.5,-653.2 307.5,-675.2 509.5,-675.2 509.5,-653.2 307.5,-653.2"/>
<text text-anchor="start" x="327.5" y="-660.3" font-family="Helvetica,sans-Serif" font-size="11.00" fill="#000000">x12_receiver_id</text>
<polygon fill="none" stroke="#000000" points="509.5,-653.2 509.5,-675.2 576.5,-675.2 576.5,-653.2 509.5,-653.2"/>
<text text-anchor="start" x="512.4365" y="-660.9" font-family="Helvetica,sans-Serif" font-size="11.00" fill="#000000">varchar[255]</text>
<polygon fill="none" stroke="#000000" points="307.5,-631.2 307.5,-653.2 509.5,-653.2 509.5,-631.2 307.5,-631.2"/>
<text text-anchor="start" x="327.5" y="-638.3" font-family="Helvetica,sans-Serif" font-size="11.00" fill="#000000">processing_format</text>
<polygon fill="none" stroke="#000000" points="509.5,-631.2 509.5,-653.2 576.5,-653.2 576.5,-631.2 509.5,-631.2"/>
<text text-anchor="start" x="512.5" y="-638.9" font-family="Helvetica,sans-Serif" font-size="11.00" fill="#000000">enum[20]</text>
<polygon fill="none" stroke="#000000" points="307.5,-609.2 307.5,-631.2 509.5,-631.2 509.5,-609.2 307.5,-609.2"/>
<text text-anchor="start" x="327.5" y="-616.3" font-family="Helvetica,sans-Serif" font-size="11.00" fill="#000000">x12_isa01</text>
<polygon fill="none" stroke="#000000" points="509.5,-609.2 509.5,-631.2 576.5,-631.2 576.5,-609.2 509.5,-609.2"/>
<text text-anchor="start" x="512.5" y="-616.9" font-family="Helvetica,sans-Serif" font-size="11.00" fill="#000000">varchar[2]</text>
<polygon fill="none" stroke="#000000" points="307.5,-587.2 307.5,-609.2 509.5,-609.2 509.5,-587.2 307.5,-587.2"/>
<text text-anchor="start" x="327.5" y="-594.3" font-family="Helvetica,sans-Serif" font-size="11.00" fill="#000000">x12_isa02</text>
<polygon fill="none" stroke="#000000" points="509.5,-587.2 509.5,-609.2 576.5,-609.2 576.5,-587.2 509.5,-587.2"/>
<text text-anchor="start" x="512.5" y="-594.9" font-family="Helvetica,sans-Serif" font-size="11.00" fill="#000000">varchar[10]</text>
<polygon fill="none" stroke="#000000" points="307.5,-565.2 307.5,-587.2 509.5,-587.2 509.5,-565.2 307.5,-565.2"/>
<text text-anchor="start" x="327.5" y="-572.3" font-family="Helvetica,sans-Serif" font-size="11.00" fill="#000000">x12_isa03</text>
<polygon fill="none" stroke="#000000" points="509.5,-565.2 509.5,-587.2 576.5,-587.2 576.5,-565.2 509.5,-565.2"/>
<text text-anchor="start" x="512.5" y="-572.9" font-family="Helvetica,sans-Serif" font-size="11.00" fill="#000000">varchar[2]</text>
<polygon fill="none" stroke="#000000" points="307.5,-543.2 307.5,-565.2 509.5,-565.2 509.5,-543.2 307.5,-543.2"/>
<text text-anchor="start" x="327.5" y="-550.3" font-family="Helvetica,sans-Serif" font-size="11.00" fill="#000000">x12_isa04</text>
<polygon fill="none" stroke="#000000" points="509.5,-543.2 509.5,-565.2 576.5,-565.2 576.5,-543.2 509.5,-543.2"/>
<text text-anchor="start" x="512.5" y="-550.9" font-family="Helvetica,sans-Serif" font-size="11.00" fill="#000000">varchar[10]</text>
<polygon fill="none" stroke="#000000" points="307.5,-521.2 307.5,-543.2 509.5,-543.2 509.5,-521.2 307.5,-521.2"/>
<text text-anchor="start" x="327.5" y="-528.3" font-family="Helvetica,sans-Serif" font-size="11.00" fill="#000000">x12_isa05</text>
<polygon fill="none" stroke="#000000" points="509.5,-521.2 509.5,-543.2 576.5,-543.2 576.5,-521.2 509.5,-521.2"/>
<text text-anchor="start" x="512.5" y="-528.9" font-family="Helvetica,sans-Serif" font-size="11.00" fill="#000000">char[2]</text>
<polygon fill="none" stroke="#000000" points="307.5,-499.2 307.5,-521.2 509.5,-521.2 509.5,-499.2 307.5,-499.2"/>
<text text-anchor="start" x="327.5" y="-506.3" font-family="Helvetica,sans-Serif" font-size="11.00" fill="#000000">x12_isa07</text>
<polygon fill="none" stroke="#000000" points="509.5,-499.2 509.5,-521.2 576.5,-521.2 576.5,-499.2 509.5,-499.2"/>
<text text-anchor="start" x="512.5" y="-506.9" font-family="Helvetica,sans-Serif" font-size="11.00" fill="#000000">char[2]</text>
<polygon fill="none" stroke="#000000" points="307.5,-477.2 307.5,-499.2 509.5,-499.2 509.5,-477.2 307.5,-477.2"/>
<text text-anchor="start" x="327.5" y="-484.3" font-family="Helvetica,sans-Serif" font-size="11.00" fill="#000000">x12_isa14</text>
<polygon fill="none" stroke="#000000" points="509.5,-477.2 509.5,-499.2 576.5,-499.2 576.5,-477.2 509.5,-477.2"/>
<text text-anchor="start" x="512.5" y="-484.9" font-family="Helvetica,sans-Serif" font-size="11.00" fill="#000000">char[1]</text>
<polygon fill="none" stroke="#000000" points="307.5,-455.2 307.5,-477.2 509.5,-477.2 509.5,-455.2 307.5,-455.2"/>
<text text-anchor="start" x="327.5" y="-462.3" font-family="Helvetica,sans-Serif" font-size="11.00" fill="#000000">x12_isa15</text>
<polygon fill="none" stroke="#000000" points="509.5,-455.2 509.5,-477.2 576.5,-477.2 576.5,-455.2 509.5,-455.2"/>
<text text-anchor="start" x="512.5" y="-462.9" font-family="Helvetica,sans-Serif" font-size="11.00" fill="#000000">char[1]</text>
<polygon fill="none" stroke="#000000" points="307.5,-433.2 307.5,-455.2 509.5,-455.2 509.5,-433.2 307.5,-433.2"/>
<text text-anchor="start" x="327.5" y="-440.3" font-family="Helvetica,sans-Serif" font-size="11.00" fill="#000000">x12_gs02</text>
<polygon fill="none" stroke="#000000" points="509.5,-433.2 509.5,-455.2 576.5,-455.2 576.5,-433.2 509.5,-433.2"/>
<text text-anchor="start" x="512.5" y="-440.9" font-family="Helvetica,sans-Serif" font-size="11.00" fill="#000000">varchar[15]</text>
<polygon fill="none" stroke="#000000" points="307.5,-411.2 307.5,-433.2 509.5,-433.2 509.5,-411.2 307.5,-411.2"/>
<text text-anchor="start" x="327.5" y="-418.3" font-family="Helvetica,sans-Serif" font-size="11.00" fill="#000000">x12_per06</text>
<polygon fill="none" stroke="#000000" points="509.5,-411.2 509.5,-433.2 576.5,-433.2 576.5,-411.2 509.5,-411.2"/>
<text text-anchor="start" x="512.5" y="-418.9" font-family="Helvetica,sans-Serif" font-size="11.00" fill="#000000">varchar[80]</text>
<polygon fill="none" stroke="#000000" points="307.5,-389.2 307.5,-411.2 509.5,-411.2 509.5,-389.2 307.5,-389.2"/>
<text text-anchor="start" x="327.5" y="-396.3" font-family="Helvetica,sans-Serif" font-size="11.00" fill="#000000">x12_dtp03</text>
<polygon fill="none" stroke="#000000" points="509.5,-389.2 509.5,-411.2 576.5,-411.2 576.5,-389.2 509.5,-389.2"/>
<text text-anchor="start" x="512.5" y="-396.9" font-family="Helvetica,sans-Serif" font-size="11.00" fill="#000000">char[1]</text>
<polygon fill="none" stroke="#000000" points="307.5,-367.2 307.5,-389.2 509.5,-389.2 509.5,-367.2 307.5,-367.2"/>
<text text-anchor="start" x="327.5" y="-374.3" font-family="Helvetica,sans-Serif" font-size="11.00" fill="#000000">x12_gs03</text>
<polygon fill="none" stroke="#000000" points="509.5,-367.2 509.5,-389.2 576.5,-389.2 576.5,-367.2 509.5,-367.2"/>
<text text-anchor="start" x="512.5" y="-374.9" font-family="Helvetica,sans-Serif" font-size="11.00" fill="#000000">varchar[15]</text>
<polygon fill="none" stroke="#000000" points="307.5,-345.2 307.5,-367.2 509.5,-367.2 509.5,-345.2 307.5,-345.2"/>
<text text-anchor="start" x="327.5" y="-352.3" font-family="Helvetica,sans-Serif" font-size="11.00" fill="#000000">x12_submitter_id</text>
<polygon fill="none" stroke="#000000" points="509.5,-345.2 509.5,-367.2 576.5,-367.2 576.5,-345.2 509.5,-345.2"/>
<text text-anchor="start" x="512.5" y="-352.9" font-family="Helvetica,sans-Serif" font-size="11.00" fill="#000000">smallint[5]</text>
<polygon fill="none" stroke="#000000" points="307.5,-323.2 307.5,-345.2 509.5,-345.2 509.5,-323.2 307.5,-323.2"/>
<text text-anchor="start" x="327.5" y="-330.3" font-family="Helvetica,sans-Serif" font-size="11.00" fill="#000000">x12_submitter_name</text>
<polygon fill="none" stroke="#000000" points="509.5,-323.2 509.5,-345.2 576.5,-345.2 576.5,-323.2 509.5,-323.2"/>
<text text-anchor="start" x="512.4365" y="-330.9" font-family="Helvetica,sans-Serif" font-size="11.00" fill="#000000">varchar[255]</text>
<polygon fill="none" stroke="#000000" points="307.5,-301.2 307.5,-323.2 509.5,-323.2 509.5,-301.2 307.5,-301.2"/>
<text text-anchor="start" x="327.5" y="-308.3" font-family="Helvetica,sans-Serif" font-size="11.00" fill="#000000">x12_sftp_login</text>
<polygon fill="none" stroke="#000000" points="509.5,-301.2 509.5,-323.2 576.5,-323.2 576.5,-301.2 509.5,-301.2"/>
<text text-anchor="start" x="512.4365" y="-308.9" font-family="Helvetica,sans-Serif" font-size="11.00" fill="#000000">varchar[255]</text>
<polygon fill="none" stroke="#000000" points="307.5,-279.2 307.5,-301.2 509.5,-301.2 509.5,-279.2 307.5,-279.2"/>
<text text-anchor="start" x="327.5" y="-286.3" font-family="Helvetica,sans-Serif" font-size="11.00" fill="#000000">x12_sftp_pass</text>
<polygon fill="none" stroke="#000000" points="509.5,-279.2 509.5,-301.2 576.5,-301.2 576.5,-279.2 509.5,-279.2"/>
<text text-anchor="start" x="512.4365" y="-286.9" font-family="Helvetica,sans-Serif" font-size="11.00" fill="#000000">varchar[255]</text>
<polygon fill="none" stroke="#000000" points="307.5,-257.2 307.5,-279.2 509.5,-279.2 509.5,-257.2 307.5,-257.2"/>
<text text-anchor="start" x="327.5" y="-264.3" font-family="Helvetica,sans-Serif" font-size="11.00" fill="#000000">x12_sftp_host</text>
<polygon fill="none" stroke="#000000" points="509.5,-257.2 509.5,-279.2 576.5,-279.2 576.5,-257.2 509.5,-257.2"/>
<text text-anchor="start" x="512.4365" y="-264.9" font-family="Helvetica,sans-Serif" font-size="11.00" fill="#000000">varchar[255]</text>
<polygon fill="none" stroke="#000000" points="307.5,-235.2 307.5,-257.2 509.5,-257.2 509.5,-235.2 307.5,-235.2"/>
<text text-anchor="start" x="327.5" y="-242.3" font-family="Helvetica,sans-Serif" font-size="11.00" fill="#000000">x12_sftp_port</text>
<polygon fill="none" stroke="#000000" points="509.5,-235.2 509.5,-257.2 576.5,-257.2 576.5,-235.2 509.5,-235.2"/>
<text text-anchor="start" x="512.4365" y="-242.9" font-family="Helvetica,sans-Serif" font-size="11.00" fill="#000000">varchar[255]</text>
<polygon fill="none" stroke="#000000" points="307.5,-213.2 307.5,-235.2 509.5,-235.2 509.5,-213.2 307.5,-213.2"/>
<text text-anchor="start" x="327.5" y="-220.3" font-family="Helvetica,sans-Serif" font-size="11.00" fill="#000000">x12_sftp_local_dir</text>
<polygon fill="none" stroke="#000000" points="509.5,-213.2 509.5,-235.2 576.5,-235.2 576.5,-213.2 509.5,-213.2"/>
<text text-anchor="start" x="512.4365" y="-220.9" font-family="Helvetica,sans-Serif" font-size="11.00" fill="#000000">varchar[255]</text>
<polygon fill="none" stroke="#000000" points="307.5,-191.2 307.5,-213.2 509.5,-213.2 509.5,-191.2 307.5,-191.2"/>
<text text-anchor="start" x="327.5" y="-198.3" font-family="Helvetica,sans-Serif" font-size="11.00" fill="#000000">x12_sftp_remote_dir</text>
<polygon fill="none" stroke="#000000" points="509.5,-191.2 509.5,-213.2 576.5,-213.2 576.5,-191.2 509.5,-191.2"/>
<text text-anchor="start" x="512.4365" y="-198.9" font-family="Helvetica,sans-Serif" font-size="11.00" fill="#000000">varchar[255]</text>
<polygon fill="none" stroke="#000000" points="307.5,-169.2 307.5,-191.2 509.5,-191.2 509.5,-169.2 307.5,-169.2"/>
<text text-anchor="start" x="327.5" y="-176.3" font-family="Helvetica,sans-Serif" font-size="11.00" fill="#000000">x12_client_id</text>
<polygon fill="none" stroke="#000000" points="509.5,-169.2 509.5,-191.2 576.5,-191.2 576.5,-169.2 509.5,-169.2"/>
<text text-anchor="start" x="512.5" y="-176.9" font-family="Helvetica,sans-Serif" font-size="11.00" fill="#000000">tinytext[255]</text>
<polygon fill="none" stroke="#000000" points="307.5,-147.2 307.5,-169.2 509.5,-169.2 509.5,-147.2 307.5,-147.2"/>
<text text-anchor="start" x="327.5" y="-154.3" font-family="Helvetica,sans-Serif" font-size="11.00" fill="#000000">x12_client_secret</text>
<polygon fill="none" stroke="#000000" points="509.5,-147.2 509.5,-169.2 576.5,-169.2 576.5,-147.2 509.5,-147.2"/>
<text text-anchor="start" x="512.5" y="-154.9" font-family="Helvetica,sans-Serif" font-size="11.00" fill="#000000">tinytext[255]</text>
<polygon fill="none" stroke="#000000" points="307.5,-125.2 307.5,-147.2 509.5,-147.2 509.5,-125.2 307.5,-125.2"/>
<text text-anchor="start" x="327.5" y="-132.3" font-family="Helvetica,sans-Serif" font-size="11.00" fill="#000000">x12_token_endpoint</text>
<polygon fill="none" stroke="#000000" points="509.5,-125.2 509.5,-147.2 576.5,-147.2 576.5,-125.2 509.5,-125.2"/>
<text text-anchor="start" x="512.5" y="-132.9" font-family="Helvetica,sans-Serif" font-size="11.00" fill="#000000">tinytext[255]</text>
<polygon fill="none" stroke="#000000" points="307.5,-103.2 307.5,-125.2 509.5,-125.2 509.5,-103.2 307.5,-103.2"/>
<text text-anchor="start" x="327.5" y="-110.3" font-family="Helvetica,sans-Serif" font-size="11.00" fill="#000000">x12_eligibility_endpoint</text>
<polygon fill="none" stroke="#000000" points="509.5,-103.2 509.5,-125.2 576.5,-125.2 576.5,-103.2 509.5,-103.2"/>
<text text-anchor="start" x="512.5" y="-110.9" font-family="Helvetica,sans-Serif" font-size="11.00" fill="#000000">tinytext[255]</text>
<polygon fill="none" stroke="#000000" points="307.5,-81.2 307.5,-103.2 509.5,-103.2 509.5,-81.2 307.5,-81.2"/>
<text text-anchor="start" x="327.5" y="-88.3" font-family="Helvetica,sans-Serif" font-size="11.00" fill="#000000">x12_claim_status_endpoint</text>
<polygon fill="none" stroke="#000000" points="509.5,-81.2 509.5,-103.2 576.5,-103.2 576.5,-81.2 509.5,-81.2"/>
<text text-anchor="start" x="512.5" y="-88.9" font-family="Helvetica,sans-Serif" font-size="11.00" fill="#000000">tinytext[255]</text>
<polygon fill="none" stroke="#000000" points="307.5,-59.2 307.5,-81.2 509.5,-81.2 509.5,-59.2 307.5,-59.2"/>
<text text-anchor="start" x="327.5" y="-66.3" font-family="Helvetica,sans-Serif" font-size="11.00" fill="#000000">x12_attachment_endpoint</text>
<polygon fill="none" stroke="#000000" points="509.5,-59.2 509.5,-81.2 576.5,-81.2 576.5,-59.2 509.5,-59.2"/>
<text text-anchor="start" x="512.5" y="-66.9" font-family="Helvetica,sans-Serif" font-size="11.00" fill="#000000">tinytext[255]</text>
<polygon fill="#ffffff" stroke="transparent" points="307.5,-40.2 307.5,-59.2 412.5,-59.2 412.5,-40.2 307.5,-40.2"/>
<polygon fill="none" stroke="#000000" points="307.5,-40.2 307.5,-59.2 412.5,-59.2 412.5,-40.2 307.5,-40.2"/>
<text text-anchor="start" x="310.5" y="-46.3" font-family="Helvetica,sans-Serif" font-size="11.00" fill="#000000">&lt; 0</text>
<polygon fill="#ffffff" stroke="transparent" points="412.5,-40.2 412.5,-59.2 509.5,-59.2 509.5,-40.2 412.5,-40.2"/>
<polygon fill="none" stroke="#000000" points="412.5,-40.2 412.5,-59.2 509.5,-59.2 509.5,-40.2 412.5,-40.2"/>
<text text-anchor="start" x="500.3862" y="-46.3" font-family="Helvetica,sans-Serif" font-size="11.00" fill="#000000"> &#160;</text>
<polygon fill="#ffffff" stroke="transparent" points="509.5,-40.2 509.5,-59.2 576.5,-59.2 576.5,-40.2 509.5,-40.2"/>
<polygon fill="none" stroke="#000000" points="509.5,-40.2 509.5,-59.2 576.5,-59.2 576.5,-40.2 509.5,-40.2"/>
<text text-anchor="start" x="557.9053" y="-46.3" font-family="Helvetica,sans-Serif" font-size="11.00" fill="#000000">1 &gt;</text>
<polygon fill="none" stroke="#000000" stroke-width="2" points="306,-39.2 306,-787.2 577,-787.2 577,-39.2 306,-39.2"/>
</a>
</g>
</g>
<!-- billing&#45;&gt;x12_partners -->
<g id="edge7" class="edge">
<title>billing:w&#45;&gt;x12_partners:e</title>
<path fill="none" stroke="#000000" d="M613.0967,-888.0356C574.9979,-867.3454 636.3926,-752.2 576.5,-752.2"/>
<polygon fill="#000000" stroke="#000000" points="619.6863,-889.4833 626.7275,-894.7161 623.5932,-890.3417 627.5,-891.2 627.5,-891.2 627.5,-891.2 623.5932,-890.3417 628.2725,-887.6839 619.6863,-889.4833 619.6863,-889.4833"/>
<ellipse fill="none" stroke="#000000" cx="616.5609" cy="-888.7966" rx="3.2" ry="3.2"/>
</g>
<!-- form_encounter&#45;&gt;patient_data -->
<g id="edge8" class="edge">
<title>form_encounter:w&#45;&gt;patient_data:e</title>
<path fill="none" stroke="#000000" d="M354.945,-837.9805C327.857,-841.1904 315.3128,-854.4819 297,-881.2 267.6485,-924.0235 307.9168,-1111.2 256,-1111.2"/>
<polygon fill="#000000" stroke="#000000" points="361.5115,-837.6285 369.6928,-840.7948 365.5057,-837.4142 369.5,-837.2 369.5,-837.2 369.5,-837.2 365.5057,-837.4142 369.3072,-833.6052 361.5115,-837.6285 361.5115,-837.6285"/>
<ellipse fill="none" stroke="#000000" cx="358.3161" cy="-837.7998" rx="3.2" ry="3.2"/>
</g>
<!-- patient_data&#45;&gt;users -->
<g id="edge9" class="edge">
<title>patient_data:w&#45;&gt;users:e</title>
<path fill="none" stroke="#000000" d="M120.5947,-1101.9737C107.5882,-1092.9839 100.6771,-1096.0594 83.5,-1111.2"/>
<polygon fill="#000000" stroke="#000000" points="125.7803,-1106.1685 129.7358,-1113.9989 128.8901,-1108.6843 132,-1111.2 132,-1111.2 132,-1111.2 128.8901,-1108.6843 134.2642,-1108.4011 125.7803,-1106.1685 125.7803,-1106.1685"/>
<ellipse fill="none" stroke="#000000" cx="123.2924" cy="-1104.156" rx="3.2" ry="3.2"/>
</g>
<!-- patient_data&#45;&gt;users -->
<g id="edge10" class="edge">
<title>patient_data:w&#45;&gt;users:e</title>
<path fill="none" stroke="#000000" d="M117.9977,-1107.7558C106.5912,-1105.5988 99.4983,-1106.7469 83.5,-1111.2"/>
<polygon fill="#000000" stroke="#000000" points="124.2316,-1109.2891 131.1401,-1114.6958 128.1158,-1110.2446 132,-1111.2 132,-1111.2 132,-1111.2 128.1158,-1110.2446 132.8599,-1107.7042 124.2316,-1109.2891 124.2316,-1109.2891"/>
<ellipse fill="none" stroke="#000000" cx="121.1242" cy="-1108.5248" rx="3.2" ry="3.2"/>
</g>
<!-- patient_data&#45;&gt;users -->
<g id="edge11" class="edge">
<title>patient_data:w&#45;&gt;users:e</title>
<path fill="none" stroke="#000000" d="M117.9977,-1115.2182C106.5912,-1117.7347 99.4983,-1116.3953 83.5,-1111.2"/>
<polygon fill="#000000" stroke="#000000" points="124.3104,-1113.4067 132.993,-1114.6603 128.1552,-1112.3034 132,-1111.2 132,-1111.2 132,-1111.2 128.1552,-1112.3034 131.007,-1107.7397 124.3104,-1113.4067 124.3104,-1113.4067"/>
<ellipse fill="none" stroke="#000000" cx="121.2345" cy="-1114.2894" rx="3.2" ry="3.2"/>
</g>
<!-- patient_data&#45;&gt;users -->
<g id="edge12" class="edge">
<title>patient_data:w&#45;&gt;users:e</title>
<path fill="none" stroke="#000000" d="M120.979,-1120.6299C107.7227,-1130.4371 100.8455,-1127.2938 83.5,-1111.2"/>
<polygon fill="#000000" stroke="#000000" points="125.9214,-1116.4011 134.3405,-1113.9354 128.9607,-1113.8005 132,-1111.2 132,-1111.2 132,-1111.2 128.9607,-1113.8005 129.6595,-1108.4646 125.9214,-1116.4011 125.9214,-1116.4011"/>
<ellipse fill="none" stroke="#000000" cx="123.49" cy="-1118.4815" rx="3.2" ry="3.2"/>
</g>
</g>
</svg>
