<?xml version="1.0" encoding="UTF-8" standalone="no"?>
<!DOCTYPE svg PUBLIC "-//W3C//DTD SVG 1.1//EN"
 "http://www.w3.org/Graphics/SVG/1.1/DTD/svg11.dtd">
<!-- Generated by graphviz version 2.40.1 (20161225.0304)
 -->
<!-- Title: orphans Pages: 1 -->
<svg width="286pt" height="1011pt"
 viewBox="0.00 0.00 286.00 1011.00" xmlns="http://www.w3.org/2000/svg" xmlns:xlink="http://www.w3.org/1999/xlink">
<g id="graph0" class="graph" transform="scale(1 1) rotate(0) translate(4 1007)">
<title>orphans</title>
<polygon fill="#ffffff" stroke="transparent" points="-4,4 -4,-1007 282,-1007 282,4 -4,4"/>
<!-- onsite_mail -->
<g id="node1" class="node">
<title>onsite_mail</title>
<g id="a_node1"><a xlink:href="../../tables/onsite_mail.html" xlink:title="onsite_mail" target="_top">
<polygon fill="#ffffff" stroke="transparent" points="11,-4 11,-534 267,-534 267,-4 11,-4"/>
<polygon fill="#f5f5f5" stroke="transparent" points="13,-509 13,-532 265,-532 265,-509 13,-509"/>
<polygon fill="none" stroke="#000000" points="13,-509 13,-532 265,-532 265,-509 13,-509"/>
<text text-anchor="start" x="18" y="-517.6" font-family="Helvetica,sans-Serif" font-weight="bold" font-size="11.00" fill="#000000">onsite_mail</text>
<text text-anchor="start" x="230.0437" y="-517.1" font-family="Helvetica,sans-Serif" font-size="11.00" fill="#000000">[table]</text>
<polygon fill="none" stroke="#000000" points="13,-487 13,-509 154,-509 154,-487 13,-487"/>
<image xlink:href="../../images/primaryKeys.png" width="11px" height="12px" preserveAspectRatio="xMinYMin meet" x="18" y="-504"/>
<text text-anchor="start" x="33" y="-494.1" font-family="Helvetica,sans-Serif" font-size="11.00" fill="#000000">id</text>
<polygon fill="none" stroke="#000000" points="154,-487 154,-509 265,-509 265,-487 154,-487"/>
<text text-anchor="start" x="157" y="-494.7" font-family="Helvetica,sans-Serif" font-size="11.00" fill="#000000">bigint[19]</text>
<polygon fill="none" stroke="#000000" points="13,-465 13,-487 154,-487 154,-465 13,-465"/>
<text text-anchor="start" x="33" y="-472.1" font-family="Helvetica,sans-Serif" font-size="11.00" fill="#000000">date</text>
<polygon fill="none" stroke="#000000" points="154,-465 154,-487 265,-487 265,-465 154,-465"/>
<text text-anchor="start" x="157" y="-472.7" font-family="Helvetica,sans-Serif" font-size="11.00" fill="#000000">datetime[19]</text>
<polygon fill="#ffffff" stroke="transparent" points="13,-443 13,-465 154,-465 154,-443 13,-443"/>
<polygon fill="none" stroke="#000000" points="13,-443 13,-465 154,-465 154,-443 13,-443"/>
<text text-anchor="start" x="33" y="-450.1" font-family="Helvetica,sans-Serif" font-size="11.00" fill="#000000">owner</text>
<polygon fill="none" stroke="#000000" points="154,-443 154,-465 265,-465 265,-443 154,-443"/>
<text text-anchor="start" x="157" y="-450.7" font-family="Helvetica,sans-Serif" font-size="11.00" fill="#000000">varchar[128]</text>
<polygon fill="none" stroke="#000000" points="13,-421 13,-443 154,-443 154,-421 13,-421"/>
<text text-anchor="start" x="33" y="-428.1" font-family="Helvetica,sans-Serif" font-size="11.00" fill="#000000">user</text>
<polygon fill="none" stroke="#000000" points="154,-421 154,-443 265,-443 265,-421 154,-421"/>
<text text-anchor="start" x="157" y="-428.7" font-family="Helvetica,sans-Serif" font-size="11.00" fill="#000000">varchar[255]</text>
<polygon fill="none" stroke="#000000" points="13,-399 13,-421 154,-421 154,-399 13,-399"/>
<text text-anchor="start" x="33" y="-406.1" font-family="Helvetica,sans-Serif" font-size="11.00" fill="#000000">groupname</text>
<polygon fill="none" stroke="#000000" points="154,-399 154,-421 265,-421 265,-399 154,-399"/>
<text text-anchor="start" x="157" y="-406.7" font-family="Helvetica,sans-Serif" font-size="11.00" fill="#000000">varchar[255]</text>
<polygon fill="none" stroke="#000000" points="13,-377 13,-399 154,-399 154,-377 13,-377"/>
<text text-anchor="start" x="33" y="-384.1" font-family="Helvetica,sans-Serif" font-size="11.00" fill="#000000">activity</text>
<polygon fill="none" stroke="#000000" points="154,-377 154,-399 265,-399 265,-377 154,-377"/>
<text text-anchor="start" x="157" y="-384.7" font-family="Helvetica,sans-Serif" font-size="11.00" fill="#000000">tinyint[3]</text>
<polygon fill="none" stroke="#000000" points="13,-355 13,-377 154,-377 154,-355 13,-355"/>
<text text-anchor="start" x="33" y="-362.1" font-family="Helvetica,sans-Serif" font-size="11.00" fill="#000000">authorized</text>
<polygon fill="none" stroke="#000000" points="154,-355 154,-377 265,-377 265,-355 154,-355"/>
<text text-anchor="start" x="157" y="-362.7" font-family="Helvetica,sans-Serif" font-size="11.00" fill="#000000">tinyint[3]</text>
<polygon fill="none" stroke="#000000" points="13,-333 13,-355 154,-355 154,-333 13,-333"/>
<text text-anchor="start" x="33" y="-340.1" font-family="Helvetica,sans-Serif" font-size="11.00" fill="#000000">header</text>
<polygon fill="none" stroke="#000000" points="154,-333 154,-355 265,-355 265,-333 154,-333"/>
<text text-anchor="start" x="157" y="-340.7" font-family="Helvetica,sans-Serif" font-size="11.00" fill="#000000">varchar[255]</text>
<polygon fill="none" stroke="#000000" points="13,-311 13,-333 154,-333 154,-311 13,-311"/>
<text text-anchor="start" x="33" y="-318.1" font-family="Helvetica,sans-Serif" font-size="11.00" fill="#000000">title</text>
<polygon fill="none" stroke="#000000" points="154,-311 154,-333 265,-333 265,-311 154,-311"/>
<text text-anchor="start" x="157" y="-318.7" font-family="Helvetica,sans-Serif" font-size="11.00" fill="#000000">varchar[255]</text>
<polygon fill="none" stroke="#000000" points="13,-289 13,-311 154,-311 154,-289 13,-289"/>
<text text-anchor="start" x="33" y="-296.1" font-family="Helvetica,sans-Serif" font-size="11.00" fill="#000000">body</text>
<polygon fill="none" stroke="#000000" points="154,-289 154,-311 265,-311 265,-289 154,-289"/>
<text text-anchor="start" x="156.6115" y="-296.7" font-family="Helvetica,sans-Serif" font-size="11.00" fill="#000000">longtext[2147483647]</text>
<polygon fill="none" stroke="#000000" points="13,-267 13,-289 154,-289 154,-267 13,-267"/>
<text text-anchor="start" x="33" y="-274.1" font-family="Helvetica,sans-Serif" font-size="11.00" fill="#000000">recipient_id</text>
<polygon fill="none" stroke="#000000" points="154,-267 154,-289 265,-289 265,-267 154,-267"/>
<text text-anchor="start" x="157" y="-274.7" font-family="Helvetica,sans-Serif" font-size="11.00" fill="#000000">varchar[128]</text>
<polygon fill="none" stroke="#000000" points="13,-245 13,-267 154,-267 154,-245 13,-245"/>
<text text-anchor="start" x="33" y="-252.1" font-family="Helvetica,sans-Serif" font-size="11.00" fill="#000000">recipient_name</text>
<polygon fill="none" stroke="#000000" points="154,-245 154,-267 265,-267 265,-245 154,-245"/>
<text text-anchor="start" x="157" y="-252.7" font-family="Helvetica,sans-Serif" font-size="11.00" fill="#000000">varchar[255]</text>
<polygon fill="none" stroke="#000000" points="13,-223 13,-245 154,-245 154,-223 13,-223"/>
<text text-anchor="start" x="33" y="-230.1" font-family="Helvetica,sans-Serif" font-size="11.00" fill="#000000">sender_id</text>
<polygon fill="none" stroke="#000000" points="154,-223 154,-245 265,-245 265,-223 154,-223"/>
<text text-anchor="start" x="157" y="-230.7" font-family="Helvetica,sans-Serif" font-size="11.00" fill="#000000">varchar[128]</text>
<polygon fill="none" stroke="#000000" points="13,-201 13,-223 154,-223 154,-201 13,-201"/>
<text text-anchor="start" x="33" y="-208.1" font-family="Helvetica,sans-Serif" font-size="11.00" fill="#000000">sender_name</text>
<polygon fill="none" stroke="#000000" points="154,-201 154,-223 265,-223 265,-201 154,-201"/>
<text text-anchor="start" x="157" y="-208.7" font-family="Helvetica,sans-Serif" font-size="11.00" fill="#000000">varchar[255]</text>
<polygon fill="none" stroke="#000000" points="13,-179 13,-201 154,-201 154,-179 13,-179"/>
<text text-anchor="start" x="33" y="-186.1" font-family="Helvetica,sans-Serif" font-size="11.00" fill="#000000">assigned_to</text>
<polygon fill="none" stroke="#000000" points="154,-179 154,-201 265,-201 265,-179 154,-179"/>
<text text-anchor="start" x="157" y="-186.7" font-family="Helvetica,sans-Serif" font-size="11.00" fill="#000000">varchar[255]</text>
<polygon fill="none" stroke="#000000" points="13,-157 13,-179 154,-179 154,-157 13,-157"/>
<text text-anchor="start" x="33" y="-164.1" font-family="Helvetica,sans-Serif" font-size="11.00" fill="#000000">deleted</text>
<polygon fill="none" stroke="#000000" points="154,-157 154,-179 265,-179 265,-157 154,-157"/>
<text text-anchor="start" x="157" y="-164.7" font-family="Helvetica,sans-Serif" font-size="11.00" fill="#000000">tinyint[3]</text>
<polygon fill="none" stroke="#000000" points="13,-135 13,-157 154,-157 154,-135 13,-135"/>
<text text-anchor="start" x="33" y="-142.1" font-family="Helvetica,sans-Serif" font-size="11.00" fill="#000000">delete_date</text>
<polygon fill="none" stroke="#000000" points="154,-135 154,-157 265,-157 265,-135 154,-135"/>
<text text-anchor="start" x="157" y="-142.7" font-family="Helvetica,sans-Serif" font-size="11.00" fill="#000000">datetime[19]</text>
<polygon fill="none" stroke="#000000" points="13,-113 13,-135 154,-135 154,-113 13,-113"/>
<text text-anchor="start" x="33" y="-120.1" font-family="Helvetica,sans-Serif" font-size="11.00" fill="#000000">mtype</text>
<polygon fill="none" stroke="#000000" points="154,-113 154,-135 265,-135 265,-113 154,-113"/>
<text text-anchor="start" x="157" y="-120.7" font-family="Helvetica,sans-Serif" font-size="11.00" fill="#000000">varchar[128]</text>
<polygon fill="none" stroke="#000000" points="13,-91 13,-113 154,-113 154,-91 13,-91"/>
<text text-anchor="start" x="33" y="-98.1" font-family="Helvetica,sans-Serif" font-size="11.00" fill="#000000">message_status</text>
<polygon fill="none" stroke="#000000" points="154,-91 154,-113 265,-113 265,-91 154,-91"/>
<text text-anchor="start" x="157" y="-98.7" font-family="Helvetica,sans-Serif" font-size="11.00" fill="#000000">varchar[20]</text>
<polygon fill="none" stroke="#000000" points="13,-69 13,-91 154,-91 154,-69 13,-69"/>
<text text-anchor="start" x="33" y="-76.1" font-family="Helvetica,sans-Serif" font-size="11.00" fill="#000000">mail_chain</text>
<polygon fill="none" stroke="#000000" points="154,-69 154,-91 265,-91 265,-69 154,-69"/>
<text text-anchor="start" x="157" y="-76.7" font-family="Helvetica,sans-Serif" font-size="11.00" fill="#000000">int[10]</text>
<polygon fill="none" stroke="#000000" points="13,-47 13,-69 154,-69 154,-47 13,-47"/>
<text text-anchor="start" x="33" y="-54.1" font-family="Helvetica,sans-Serif" font-size="11.00" fill="#000000">reply_mail_chain</text>
<polygon fill="none" stroke="#000000" points="154,-47 154,-69 265,-69 265,-47 154,-47"/>
<text text-anchor="start" x="157" y="-54.7" font-family="Helvetica,sans-Serif" font-size="11.00" fill="#000000">int[10]</text>
<polygon fill="none" stroke="#000000" points="13,-25 13,-47 154,-47 154,-25 13,-25"/>
<text text-anchor="start" x="33" y="-32.1" font-family="Helvetica,sans-Serif" font-size="11.00" fill="#000000">is_msg_encrypted</text>
<polygon fill="none" stroke="#000000" points="154,-25 154,-47 265,-47 265,-25 154,-25"/>
<text text-anchor="start" x="157" y="-32.7" font-family="Helvetica,sans-Serif" font-size="11.00" fill="#000000">tinyint[3]</text>
<polygon fill="#ffffff" stroke="transparent" points="13,-6 13,-25 88,-25 88,-6 13,-6"/>
<polygon fill="none" stroke="#000000" points="13,-6 13,-25 88,-25 88,-6 13,-6"/>
<text text-anchor="start" x="16" y="-12.1" font-family="Helvetica,sans-Serif" font-size="11.00" fill="#000000">&lt; 0</text>
<polygon fill="#ffffff" stroke="transparent" points="88,-6 88,-25 154,-25 154,-6 88,-6"/>
<polygon fill="none" stroke="#000000" points="88,-6 88,-25 154,-25 154,-6 88,-6"/>
<text text-anchor="start" x="144.8862" y="-12.1" font-family="Helvetica,sans-Serif" font-size="11.00" fill="#000000"> &#160;</text>
<polygon fill="#ffffff" stroke="transparent" points="154,-6 154,-25 265,-25 265,-6 154,-6"/>
<polygon fill="none" stroke="#000000" points="154,-6 154,-25 265,-25 265,-6 154,-6"/>
<text text-anchor="start" x="246.4053" y="-12.1" font-family="Helvetica,sans-Serif" font-size="11.00" fill="#000000">0 &gt;</text>
<polygon fill="none" stroke="#000000" stroke-width="2" points="12,-5 12,-533 266,-533 266,-5 12,-5"/>
</a>
</g>
</g>
<!-- onsite_messages -->
<g id="node2" class="node">
<title>onsite_messages</title>
<g id="a_node2"><a xlink:href="../../tables/onsite_messages.html" xlink:title="onsite_messages" target="_top">
<polygon fill="#ffffff" stroke="transparent" points="14,-555 14,-755 264,-755 264,-555 14,-555"/>
<polygon fill="#f5f5f5" stroke="transparent" points="16,-730 16,-753 262,-753 262,-730 16,-730"/>
<polygon fill="none" stroke="#000000" points="16,-730 16,-753 262,-753 262,-730 16,-730"/>
<text text-anchor="start" x="21" y="-738.6" font-family="Helvetica,sans-Serif" font-weight="bold" font-size="11.00" fill="#000000">onsite_messages</text>
<text text-anchor="start" x="227.0437" y="-738.1" font-family="Helvetica,sans-Serif" font-size="11.00" fill="#000000">[table]</text>
<polygon fill="none" stroke="#000000" points="16,-708 16,-730 151,-730 151,-708 16,-708"/>
<image xlink:href="../../images/primaryKeys.png" width="11px" height="12px" preserveAspectRatio="xMinYMin meet" x="21" y="-725"/>
<text text-anchor="start" x="36" y="-715.1" font-family="Helvetica,sans-Serif" font-size="11.00" fill="#000000">id</text>
<polygon fill="none" stroke="#000000" points="151,-708 151,-730 262,-730 262,-708 151,-708"/>
<text text-anchor="start" x="154" y="-715.7" font-family="Helvetica,sans-Serif" font-size="11.00" fill="#000000">int[10]</text>
<polygon fill="none" stroke="#000000" points="16,-686 16,-708 151,-708 151,-686 16,-686"/>
<text text-anchor="start" x="36" y="-693.1" font-family="Helvetica,sans-Serif" font-size="11.00" fill="#000000">username</text>
<polygon fill="none" stroke="#000000" points="151,-686 151,-708 262,-708 262,-686 151,-686"/>
<text text-anchor="start" x="154" y="-693.7" font-family="Helvetica,sans-Serif" font-size="11.00" fill="#000000">varchar[64]</text>
<polygon fill="none" stroke="#000000" points="16,-664 16,-686 151,-686 151,-664 16,-664"/>
<text text-anchor="start" x="36" y="-671.1" font-family="Helvetica,sans-Serif" font-size="11.00" fill="#000000">message</text>
<polygon fill="none" stroke="#000000" points="151,-664 151,-686 262,-686 262,-664 151,-664"/>
<text text-anchor="start" x="153.6115" y="-671.7" font-family="Helvetica,sans-Serif" font-size="11.00" fill="#000000">longtext[2147483647]</text>
<polygon fill="none" stroke="#000000" points="16,-642 16,-664 151,-664 151,-642 16,-642"/>
<text text-anchor="start" x="36" y="-649.1" font-family="Helvetica,sans-Serif" font-size="11.00" fill="#000000">ip</text>
<polygon fill="none" stroke="#000000" points="151,-642 151,-664 262,-664 262,-642 151,-642"/>
<text text-anchor="start" x="154" y="-649.7" font-family="Helvetica,sans-Serif" font-size="11.00" fill="#000000">varchar[15]</text>
<polygon fill="none" stroke="#000000" points="16,-620 16,-642 151,-642 151,-620 16,-620"/>
<text text-anchor="start" x="36" y="-627.1" font-family="Helvetica,sans-Serif" font-size="11.00" fill="#000000">date</text>
<polygon fill="none" stroke="#000000" points="151,-620 151,-642 262,-642 262,-620 151,-620"/>
<text text-anchor="start" x="154" y="-627.7" font-family="Helvetica,sans-Serif" font-size="11.00" fill="#000000">datetime[19]</text>
<polygon fill="none" stroke="#000000" points="16,-598 16,-620 151,-620 151,-598 16,-598"/>
<text text-anchor="start" x="36" y="-605.1" font-family="Helvetica,sans-Serif" font-size="11.00" fill="#000000">sender_id</text>
<polygon fill="none" stroke="#000000" points="151,-598 151,-620 262,-620 262,-598 151,-598"/>
<text text-anchor="start" x="154" y="-605.7" font-family="Helvetica,sans-Serif" font-size="11.00" fill="#000000">varchar[64]</text>
<polygon fill="none" stroke="#000000" points="16,-576 16,-598 151,-598 151,-576 16,-576"/>
<text text-anchor="start" x="36" y="-583.1" font-family="Helvetica,sans-Serif" font-size="11.00" fill="#000000">recip_id</text>
<polygon fill="none" stroke="#000000" points="151,-576 151,-598 262,-598 262,-576 151,-576"/>
<text text-anchor="start" x="154" y="-583.7" font-family="Helvetica,sans-Serif" font-size="11.00" fill="#000000">varchar[255]</text>
<polygon fill="#ffffff" stroke="transparent" points="16,-557 16,-576 88,-576 88,-557 16,-557"/>
<polygon fill="none" stroke="#000000" points="16,-557 16,-576 88,-576 88,-557 16,-557"/>
<text text-anchor="start" x="19" y="-563.1" font-family="Helvetica,sans-Serif" font-size="11.00" fill="#000000">&lt; 0</text>
<polygon fill="#ffffff" stroke="transparent" points="88,-557 88,-576 151,-576 151,-557 88,-557"/>
<polygon fill="none" stroke="#000000" points="88,-557 88,-576 151,-576 151,-557 88,-557"/>
<text text-anchor="start" x="141.8862" y="-563.1" font-family="Helvetica,sans-Serif" font-size="11.00" fill="#000000"> &#160;</text>
<polygon fill="#ffffff" stroke="transparent" points="151,-557 151,-576 262,-576 262,-557 151,-557"/>
<polygon fill="none" stroke="#000000" points="151,-557 151,-576 262,-576 262,-557 151,-557"/>
<text text-anchor="start" x="243.4053" y="-563.1" font-family="Helvetica,sans-Serif" font-size="11.00" fill="#000000">0 &gt;</text>
<polygon fill="none" stroke="#000000" stroke-width="2" points="15,-556 15,-754 263,-754 263,-556 15,-556"/>
</a>
</g>
</g>
<!-- form_physical_exam_diagnoses -->
<g id="node3" class="node">
<title>form_physical_exam_diagnoses</title>
<g id="a_node3"><a xlink:href="../../tables/form_physical_exam_diagnoses.html" xlink:title="form_physical_exam_diagnoses" target="_top">
<polygon fill="#ffffff" stroke="transparent" points="12.5,-776 12.5,-822 265.5,-822 265.5,-776 12.5,-776"/>
<polygon fill="#f5f5f5" stroke="transparent" points="15,-797 15,-820 264,-820 264,-797 15,-797"/>
<polygon fill="none" stroke="#000000" points="15,-797 15,-820 264,-820 264,-797 15,-797"/>
<text text-anchor="start" x="20" y="-805.6" font-family="Helvetica,sans-Serif" font-weight="bold" font-size="11.00" fill="#000000">form_physical_exam_diagnoses</text>
<text text-anchor="start" x="229.5219" y="-805.1" font-family="Helvetica,sans-Serif" font-size="11.00" fill="#000000">[table]</text>
<polygon fill="#ffffff" stroke="transparent" points="15,-778 15,-797 133,-797 133,-778 15,-778"/>
<polygon fill="none" stroke="#000000" points="15,-778 15,-797 133,-797 133,-778 15,-778"/>
<text text-anchor="start" x="18" y="-784.1" font-family="Helvetica,sans-Serif" font-size="11.00" fill="#000000">&lt; 0</text>
<polygon fill="#ffffff" stroke="transparent" points="133,-778 133,-797 194,-797 194,-778 133,-778"/>
<polygon fill="none" stroke="#000000" points="133,-778 133,-797 194,-797 194,-778 133,-778"/>
<text text-anchor="start" x="184.8862" y="-784.1" font-family="Helvetica,sans-Serif" font-size="11.00" fill="#000000"> &#160;</text>
<polygon fill="#ffffff" stroke="transparent" points="194,-778 194,-797 239,-797 239,-778 194,-778"/>
<polygon fill="none" stroke="#000000" points="194,-778 194,-797 239,-797 239,-778 194,-778"/>
<text text-anchor="start" x="220.4053" y="-784.1" font-family="Helvetica,sans-Serif" font-size="11.00" fill="#000000">0 &gt;</text>
<polygon fill="none" stroke="#000000" stroke-width="2" points="13.5,-777 13.5,-821 264.5,-821 264.5,-777 13.5,-777"/>
</a>
</g>
</g>
<!-- form_track_anything_type -->
<g id="node4" class="node">
<title>form_track_anything_type</title>
<g id="a_node4"><a xlink:href="../../tables/form_track_anything_type.html" xlink:title="form_track_anything_type" target="_top">
<polygon fill="#ffffff" stroke="transparent" points="8,-843 8,-999 270,-999 270,-843 8,-843"/>
<polygon fill="#f5f5f5" stroke="transparent" points="10,-974 10,-997 268,-997 268,-974 10,-974"/>
<polygon fill="none" stroke="#000000" points="10,-974 10,-997 268,-997 268,-974 10,-974"/>
<text text-anchor="start" x="15" y="-982.6" font-family="Helvetica,sans-Serif" font-weight="bold" font-size="11.00" fill="#000000">form_track_anything_type</text>
<text text-anchor="start" x="233.0437" y="-982.1" font-family="Helvetica,sans-Serif" font-size="11.00" fill="#000000">[table]</text>
<polygon fill="none" stroke="#000000" points="10,-952 10,-974 206,-974 206,-952 10,-952"/>
<text text-anchor="start" x="30" y="-959.1" font-family="Helvetica,sans-Serif" font-size="11.00" fill="#000000">active</text>
<polygon fill="none" stroke="#000000" points="206,-952 206,-974 268,-974 268,-952 206,-952"/>
<text text-anchor="start" x="208.878" y="-959.7" font-family="Helvetica,sans-Serif" font-size="11.00" fill="#000000">unknown[0]</text>
<polygon fill="none" stroke="#000000" points="10,-930 10,-952 206,-952 206,-930 10,-930"/>
<text text-anchor="start" x="30" y="-937.1" font-family="Helvetica,sans-Serif" font-size="11.00" fill="#000000">description</text>
<polygon fill="none" stroke="#000000" points="206,-930 206,-952 268,-952 268,-930 206,-930"/>
<text text-anchor="start" x="208.878" y="-937.7" font-family="Helvetica,sans-Serif" font-size="11.00" fill="#000000">unknown[0]</text>
<polygon fill="none" stroke="#000000" points="10,-908 10,-930 206,-930 206,-908 10,-908"/>
<text text-anchor="start" x="30" y="-915.1" font-family="Helvetica,sans-Serif" font-size="11.00" fill="#000000">name</text>
<polygon fill="none" stroke="#000000" points="206,-908 206,-930 268,-930 268,-908 206,-908"/>
<text text-anchor="start" x="208.878" y="-915.7" font-family="Helvetica,sans-Serif" font-size="11.00" fill="#000000">unknown[0]</text>
<polygon fill="none" stroke="#000000" points="10,-886 10,-908 206,-908 206,-886 10,-886"/>
<text text-anchor="start" x="30" y="-893.1" font-family="Helvetica,sans-Serif" font-size="11.00" fill="#000000">parent</text>
<polygon fill="none" stroke="#000000" points="206,-886 206,-908 268,-908 268,-886 206,-886"/>
<text text-anchor="start" x="208.878" y="-893.7" font-family="Helvetica,sans-Serif" font-size="11.00" fill="#000000">unknown[0]</text>
<polygon fill="none" stroke="#000000" points="10,-864 10,-886 206,-886 206,-864 10,-864"/>
<text text-anchor="start" x="30" y="-871.1" font-family="Helvetica,sans-Serif" font-size="11.00" fill="#000000">position</text>
<polygon fill="none" stroke="#000000" points="206,-864 206,-886 268,-886 268,-864 206,-864"/>
<text text-anchor="start" x="208.878" y="-871.7" font-family="Helvetica,sans-Serif" font-size="11.00" fill="#000000">unknown[0]</text>
<polygon fill="#ffffff" stroke="transparent" points="10,-845 10,-864 112,-864 112,-845 10,-845"/>
<polygon fill="none" stroke="#000000" points="10,-845 10,-864 112,-864 112,-845 10,-845"/>
<text text-anchor="start" x="13" y="-851.1" font-family="Helvetica,sans-Serif" font-size="11.00" fill="#000000">&lt; 0</text>
<polygon fill="#ffffff" stroke="transparent" points="112,-845 112,-864 206,-864 206,-845 112,-845"/>
<polygon fill="none" stroke="#000000" points="112,-845 112,-864 206,-864 206,-845 112,-845"/>
<text text-anchor="start" x="196.8862" y="-851.1" font-family="Helvetica,sans-Serif" font-size="11.00" fill="#000000"> &#160;</text>
<polygon fill="#ffffff" stroke="transparent" points="206,-845 206,-864 268,-864 268,-845 206,-845"/>
<polygon fill="none" stroke="#000000" points="206,-845 206,-864 268,-864 268,-845 206,-845"/>
<text text-anchor="start" x="249.4053" y="-851.1" font-family="Helvetica,sans-Serif" font-size="11.00" fill="#000000">0 &gt;</text>
<polygon fill="none" stroke="#000000" stroke-width="2" points="9,-844 9,-998 269,-998 269,-844 9,-844"/>
</a>
</g>
</g>
</g>
</svg>
