<svg id="svg" xmlns="http://www.w3.org/2000/svg" width="400" height="155.7142857142857" viewBox="0, 0, 400, 155.7142857142857">
    <g class="about-review-image">
        <path d="M279.872 3.287 C 279.535 3.329,279.229 3.504,279.070 3.746 C 278.929 3.962,278.548 4.264,278.223 4.418 C 277.899 4.572,277.518 4.897,277.377 5.141 C 277.236 5.384,276.897 5.733,276.623 5.917 C 276.349 6.100,276.035 6.519,275.925 6.848 C 275.814 7.177,275.505 7.734,275.237 8.085 L 274.750 8.724 274.750 38.595 L 274.750 68.466 275.295 69.143 C 275.594 69.516,275.887 70.059,275.945 70.349 C 276.011 70.678,276.219 70.975,276.496 71.134 C 276.741 71.274,277.101 71.632,277.296 71.930 C 277.518 72.269,277.844 72.512,278.171 72.584 C 278.457 72.647,278.943 72.919,279.250 73.189 C 280.366 74.169,280.182 74.161,300.844 74.164 L 319.604 74.167 319.978 74.516 C 320.459 74.964,320.342 75.587,319.563 76.720 C 319.253 77.169,318.999 77.698,318.998 77.894 C 318.995 78.549,318.513 79.853,318.087 80.359 C 317.856 80.634,317.666 81.022,317.665 81.221 C 317.662 81.867,317.216 83.076,316.700 83.841 C 316.379 84.317,316.126 84.983,316.004 85.670 C 315.849 86.544,315.708 86.847,315.265 87.260 C 314.796 87.697,314.699 87.924,314.596 88.836 C 314.463 90.017,314.116 91.000,313.833 91.000 C 313.356 91.000,312.838 93.491,313.245 93.829 C 313.574 94.102,313.945 93.871,315.318 92.536 C 317.081 90.821,318.276 89.836,318.829 89.643 C 319.104 89.547,319.425 89.271,319.541 89.029 C 319.657 88.787,319.993 88.438,320.287 88.253 C 320.582 88.068,320.870 87.779,320.927 87.610 C 320.985 87.441,321.298 87.192,321.624 87.056 C 322.247 86.795,322.468 86.606,322.764 86.083 C 322.864 85.907,323.165 85.640,323.435 85.489 C 323.704 85.339,324.443 84.717,325.077 84.108 C 325.711 83.499,326.252 83.000,326.279 83.000 C 326.344 83.000,326.852 82.586,327.836 81.732 C 328.270 81.355,328.821 80.997,329.060 80.937 C 329.335 80.868,329.533 80.677,329.598 80.417 C 329.655 80.191,329.937 79.859,330.226 79.679 C 330.514 79.499,330.844 79.198,330.960 79.010 C 331.075 78.821,331.499 78.512,331.903 78.322 C 332.358 78.108,332.672 77.837,332.730 77.605 C 332.782 77.395,333.080 77.111,333.415 76.951 C 333.741 76.796,334.080 76.477,334.169 76.243 C 334.263 75.996,334.576 75.715,334.912 75.574 C 335.232 75.441,335.621 75.138,335.776 74.901 C 336.245 74.185,336.636 74.138,341.968 74.159 C 348.395 74.184,350.841 73.729,347.471 73.135 C 346.533 72.970,346.357 72.868,345.477 71.976 C 343.701 70.179,343.667 69.837,343.667 54.026 C 343.667 39.534,343.868 36.667,344.884 36.667 C 344.999 36.667,345.178 36.443,345.281 36.170 C 345.388 35.887,345.672 35.588,345.942 35.473 C 346.203 35.363,346.653 35.005,346.941 34.678 L 347.466 34.083 364.846 34.037 C 377.135 34.005,382.291 33.938,382.447 33.808 C 382.677 33.617,382.790 9.493,382.566 8.370 C 382.510 8.093,382.210 7.596,381.899 7.266 C 381.588 6.936,381.333 6.593,381.333 6.503 C 381.333 6.254,379.652 4.594,379.042 4.241 C 378.744 4.069,378.500 3.844,378.500 3.741 C 378.500 3.167,378.405 3.166,329.034 3.193 C 302.294 3.208,280.171 3.250,279.872 3.287 M347.568 36.593 C 347.391 36.965,347.062 37.292,346.685 37.469 L 346.083 37.753 346.041 53.608 L 345.998 69.463 346.730 70.238 C 347.763 71.331,347.776 71.333,355.582 71.337 C 363.003 71.342,363.728 71.402,364.209 72.062 C 364.375 72.290,364.735 72.525,365.011 72.586 C 365.286 72.646,365.675 72.917,365.875 73.187 C 366.075 73.458,366.551 73.835,366.934 74.026 C 367.316 74.217,367.834 74.550,368.084 74.765 C 368.335 74.980,368.874 75.318,369.283 75.516 C 369.692 75.714,370.108 76.055,370.207 76.273 C 370.321 76.522,370.633 76.743,371.046 76.867 C 371.410 76.976,371.856 77.270,372.044 77.525 C 372.238 77.787,372.742 78.114,373.215 78.284 C 373.728 78.468,374.201 78.786,374.451 79.114 C 374.675 79.407,375.079 79.694,375.351 79.754 C 375.622 79.814,376.003 80.077,376.197 80.338 C 376.391 80.602,376.945 80.975,377.435 81.174 C 377.923 81.372,378.363 81.664,378.414 81.824 C 378.532 82.197,379.235 82.573,379.572 82.444 C 380.099 82.242,379.715 79.611,379.002 78.535 C 378.642 77.991,378.500 77.538,378.427 76.698 C 378.373 76.085,378.217 75.058,378.079 74.417 C 377.436 71.417,376.933 71.594,386.243 71.538 C 395.268 71.484,395.249 71.486,396.295 70.334 C 397.015 69.541,397.020 69.407,396.967 53.417 C 396.915 37.723,396.909 37.584,396.220 37.322 C 396.000 37.238,395.694 36.950,395.539 36.682 C 395.131 35.970,396.222 36.000,371.070 36.000 L 347.849 36.000 347.568 36.593 M203.083 62.608 C 202.533 62.740,201.786 62.913,201.423 62.992 C 200.694 63.150,200.167 63.672,200.167 64.235 C 200.167 64.436,200.097 64.671,200.012 64.758 C 199.342 65.443,199.181 69.729,199.752 71.667 C 199.901 72.171,200.066 72.808,200.119 73.083 C 200.243 73.728,200.641 74.333,200.939 74.333 C 201.068 74.333,201.545 74.528,201.999 74.766 C 203.397 75.496,208.641 75.508,209.474 74.783 C 209.626 74.650,210.021 74.455,210.352 74.349 C 210.792 74.208,211.033 73.990,211.249 73.536 C 211.412 73.196,211.704 72.595,211.898 72.202 C 212.214 71.561,212.250 71.201,212.250 68.702 L 212.250 65.917 211.583 64.585 L 210.917 63.253 210.000 63.033 C 209.496 62.912,208.633 62.707,208.083 62.579 C 206.814 62.282,204.379 62.296,203.083 62.608 M207.683 65.937 C 209.133 66.785,209.464 70.193,208.210 71.371 C 207.651 71.896,204.366 71.942,203.618 71.435 C 202.439 70.635,202.308 67.087,203.424 66.161 C 204.280 65.450,206.637 65.327,207.683 65.937 M28.748 66.321 C 28.194 66.551,27.354 67.515,27.152 68.153 C 27.048 68.481,26.840 68.938,26.690 69.167 C 26.439 69.549,26.413 72.780,26.373 108.614 L 26.329 147.644 27.081 148.349 C 27.495 148.737,27.833 149.155,27.833 149.277 C 27.833 149.989,30.704 149.192,31.110 148.368 C 31.187 148.211,31.287 131.021,31.333 110.167 C 31.379 89.313,31.477 72.129,31.551 71.982 C 31.912 71.257,32.022 71.250,42.818 71.250 C 53.605 71.250,53.704 71.256,55.417 72.009 C 55.783 72.170,56.833 72.391,57.749 72.501 C 59.451 72.703,59.831 72.822,60.417 73.332 C 60.600 73.492,61.200 73.755,61.750 73.916 C 62.324 74.084,62.916 74.389,63.141 74.632 C 63.355 74.864,63.959 75.257,64.481 75.504 C 65.004 75.751,65.557 76.146,65.712 76.382 C 65.866 76.617,66.213 76.940,66.482 77.099 C 66.751 77.258,67.053 77.566,67.152 77.784 C 67.342 78.201,67.373 78.244,68.141 79.167 C 68.408 79.487,68.751 80.125,68.904 80.583 C 69.057 81.042,69.415 81.745,69.699 82.145 C 70.300 82.992,70.569 86.149,70.403 90.417 C 70.284 93.469,70.212 93.882,69.661 94.696 C 69.392 95.092,69.122 95.679,69.060 96.000 C 68.904 96.809,68.586 97.519,68.194 97.936 C 68.011 98.130,67.694 98.678,67.490 99.153 C 67.256 99.697,66.951 100.103,66.666 100.250 C 66.417 100.379,66.121 100.708,66.008 100.980 C 65.888 101.270,65.562 101.591,65.226 101.750 C 64.908 101.901,64.568 102.202,64.469 102.418 C 64.353 102.673,63.959 102.941,63.353 103.177 C 62.838 103.378,62.259 103.711,62.066 103.919 C 61.644 104.372,61.434 104.443,59.872 104.663 C 59.106 104.770,58.431 104.981,58.038 105.235 C 57.169 105.797,56.666 105.848,50.703 105.990 C 44.660 106.133,44.928 106.078,44.653 107.221 C 44.180 109.194,44.419 110.860,45.326 111.908 C 45.680 112.318,46.020 112.878,46.080 113.152 C 46.143 113.436,46.330 113.696,46.514 113.754 C 46.693 113.811,47.099 114.265,47.417 114.762 C 47.735 115.260,48.065 115.667,48.149 115.667 C 48.233 115.667,48.506 116.023,48.756 116.458 C 49.006 116.894,49.422 117.475,49.680 117.750 C 49.938 118.025,50.268 118.534,50.413 118.881 C 50.558 119.228,50.857 119.594,51.079 119.695 C 51.303 119.797,51.597 120.166,51.741 120.527 C 51.897 120.917,52.162 121.237,52.405 121.329 C 52.655 121.424,52.940 121.776,53.148 122.246 C 53.333 122.666,53.712 123.200,53.990 123.434 C 54.267 123.667,54.578 124.138,54.680 124.480 C 54.787 124.837,55.020 125.169,55.225 125.259 C 55.422 125.346,55.722 125.701,55.892 126.049 C 56.062 126.397,56.385 126.802,56.609 126.949 C 56.833 127.096,57.121 127.417,57.248 127.663 C 57.376 127.909,57.739 128.421,58.056 128.801 C 58.373 129.180,58.795 129.827,58.994 130.237 C 59.193 130.648,59.506 131.032,59.690 131.091 C 59.874 131.149,60.164 131.521,60.333 131.917 C 60.510 132.328,60.791 132.684,60.991 132.747 C 61.184 132.808,61.529 133.230,61.760 133.687 C 61.991 134.143,62.288 134.557,62.419 134.607 C 62.550 134.658,62.850 135.092,63.086 135.573 C 63.321 136.054,63.729 136.606,63.992 136.801 C 64.255 136.995,64.554 137.409,64.657 137.719 C 64.765 138.049,65.018 138.364,65.263 138.476 C 65.495 138.581,65.793 138.928,65.926 139.247 C 66.059 139.566,66.342 139.941,66.555 140.080 C 66.768 140.220,67.160 140.779,67.426 141.324 C 67.692 141.869,68.040 142.348,68.199 142.390 C 68.358 142.432,68.655 142.811,68.860 143.233 C 69.065 143.655,69.290 144.000,69.359 144.000 C 69.576 144.000,70.333 144.837,70.333 145.077 C 70.333 145.202,70.602 145.581,70.930 145.919 C 71.258 146.256,71.667 146.863,71.840 147.266 C 72.013 147.670,72.257 148.000,72.383 148.000 C 72.508 148.000,72.830 148.227,73.097 148.504 C 74.002 149.443,75.734 149.780,77.349 149.332 C 78.493 149.014,78.586 146.996,77.493 146.188 C 77.238 145.999,76.979 145.618,76.918 145.341 C 76.857 145.060,76.591 144.683,76.317 144.488 C 76.047 144.296,75.668 143.830,75.476 143.452 C 75.283 143.074,74.963 142.638,74.765 142.482 C 74.568 142.327,74.230 141.825,74.016 141.367 C 73.799 140.904,73.452 140.456,73.234 140.357 C 73.019 140.258,72.791 139.969,72.728 139.714 C 72.619 139.273,72.094 138.667,71.821 138.667 C 71.751 138.667,71.523 138.385,71.315 138.042 C 71.107 137.698,70.690 137.125,70.390 136.767 C 70.089 136.410,69.760 135.865,69.658 135.556 C 69.545 135.214,69.280 134.895,68.981 134.740 C 68.663 134.576,68.454 134.313,68.391 133.997 C 68.334 133.710,68.055 133.327,67.712 133.066 C 67.393 132.822,67.030 132.381,66.907 132.086 C 66.784 131.790,66.503 131.431,66.285 131.288 C 66.066 131.145,65.706 130.610,65.485 130.100 C 65.264 129.590,64.995 129.171,64.887 129.170 C 64.622 129.166,64.000 128.355,64.000 128.013 C 64.000 127.862,63.770 127.603,63.489 127.437 C 63.208 127.271,62.890 126.936,62.782 126.693 C 62.674 126.449,62.341 125.995,62.043 125.683 C 61.745 125.371,61.332 124.755,61.125 124.314 C 60.919 123.873,60.611 123.464,60.442 123.406 C 60.272 123.348,59.987 122.970,59.809 122.567 C 59.614 122.127,59.294 121.735,59.006 121.587 C 58.709 121.433,58.453 121.113,58.331 120.742 C 58.222 120.413,57.966 120.068,57.761 119.975 C 57.556 119.881,57.186 119.392,56.939 118.887 C 56.691 118.382,56.276 117.790,56.016 117.571 C 55.756 117.352,55.497 116.945,55.442 116.667 C 55.375 116.336,55.198 116.107,54.928 116.004 C 54.702 115.918,54.395 115.613,54.246 115.326 C 54.098 115.039,53.738 114.556,53.447 114.252 C 53.155 113.948,52.643 113.328,52.308 112.874 L 51.699 112.048 52.071 111.582 C 52.428 111.134,52.528 111.109,54.513 110.962 C 55.652 110.878,56.733 110.713,56.917 110.596 C 57.392 110.293,58.631 110.028,60.806 109.764 C 62.392 109.572,62.766 109.470,63.139 109.128 C 63.587 108.716,64.174 108.451,65.074 108.252 C 65.343 108.193,65.718 107.970,65.907 107.758 C 66.292 107.324,67.180 106.833,67.581 106.833 C 67.726 106.833,68.005 106.562,68.200 106.230 C 68.396 105.898,68.772 105.536,69.035 105.426 C 69.298 105.315,69.642 104.968,69.799 104.654 C 69.955 104.340,70.281 103.990,70.523 103.875 C 70.819 103.735,70.996 103.489,71.065 103.124 C 71.121 102.825,71.498 102.177,71.902 101.684 C 72.307 101.191,72.682 100.553,72.736 100.267 C 72.790 99.981,73.002 99.560,73.208 99.332 C 73.740 98.744,73.963 98.223,74.155 97.124 C 74.334 96.101,74.507 95.684,74.928 95.262 C 75.754 94.437,75.738 82.047,74.910 81.220 C 74.487 80.797,74.216 80.049,74.076 78.923 C 73.972 78.083,73.867 77.853,73.393 77.434 C 73.085 77.162,72.833 76.858,72.833 76.759 C 72.833 76.433,72.136 75.262,71.563 74.625 C 71.253 74.281,71.000 73.886,71.000 73.747 C 71.000 73.608,70.742 73.371,70.426 73.221 C 70.110 73.070,69.767 72.743,69.664 72.494 C 69.554 72.227,69.226 71.932,68.863 71.774 C 68.526 71.627,67.920 71.238,67.517 70.911 C 67.113 70.583,66.569 70.272,66.308 70.220 C 66.046 70.168,65.626 69.925,65.374 69.681 C 64.886 69.207,64.189 68.929,63.036 68.748 C 62.643 68.686,62.110 68.457,61.851 68.239 C 61.175 67.671,60.777 67.556,59.000 67.418 C 57.295 67.285,55.109 66.798,54.701 66.459 C 54.405 66.214,29.328 66.080,28.748 66.321 M100.906 90.407 C 99.836 90.552,99.247 90.721,98.890 90.985 C 98.612 91.190,97.841 91.501,97.177 91.675 C 96.393 91.881,95.772 92.166,95.404 92.488 C 95.093 92.762,94.525 93.079,94.142 93.194 C 93.685 93.331,93.354 93.562,93.181 93.865 C 93.035 94.120,92.709 94.401,92.455 94.490 C 92.201 94.579,91.869 94.867,91.718 95.131 C 91.567 95.394,91.228 95.734,90.964 95.885 C 90.701 96.036,90.412 96.368,90.322 96.622 C 90.233 96.876,89.899 97.253,89.580 97.460 C 89.259 97.668,89.000 97.976,89.000 98.148 C 89.000 98.641,88.497 99.715,88.089 100.093 C 87.829 100.333,87.655 100.789,87.516 101.594 C 87.242 103.176,86.989 104.172,86.736 104.667 C 86.186 105.743,86.167 106.259,86.167 119.667 C 86.167 133.445,86.166 133.419,86.828 134.917 C 86.990 135.283,87.208 136.071,87.311 136.667 C 87.590 138.274,87.793 138.894,88.171 139.299 C 88.358 139.500,88.661 140.015,88.845 140.444 C 89.029 140.873,89.446 141.519,89.772 141.880 C 90.099 142.241,90.470 142.786,90.597 143.090 C 90.724 143.394,90.977 143.690,91.160 143.748 C 91.343 143.806,91.700 144.102,91.954 144.406 C 92.209 144.710,92.733 145.119,93.121 145.314 C 93.508 145.509,94.078 145.922,94.388 146.232 C 94.748 146.592,95.288 146.893,95.885 147.067 C 96.399 147.216,96.879 147.433,96.952 147.548 C 97.202 147.947,97.991 148.333,98.555 148.333 C 99.466 148.333,100.864 148.647,101.583 149.013 C 103.170 149.820,109.420 149.851,111.149 149.061 C 112.145 148.605,113.352 148.334,114.398 148.332 C 114.929 148.330,115.249 148.199,115.820 147.744 C 116.225 147.422,116.750 147.118,116.987 147.069 C 117.655 146.930,118.500 146.523,118.500 146.340 C 118.500 146.250,118.884 145.917,119.352 145.602 C 120.453 144.860,121.977 143.383,122.584 142.469 C 122.846 142.073,123.261 141.563,123.504 141.333 C 123.777 141.077,124.028 140.579,124.157 140.040 C 124.281 139.525,124.518 139.045,124.733 138.874 C 125.280 138.439,125.312 138.344,125.508 136.563 C 125.695 134.854,126.081 132.828,126.330 132.250 C 126.644 131.521,126.650 130.690,126.345 130.299 C 126.180 130.089,125.995 129.755,125.933 129.557 C 125.707 128.833,125.078 128.612,123.598 128.735 C 121.851 128.880,121.847 128.885,121.740 131.175 C 121.611 133.933,121.524 134.445,121.097 134.958 C 120.700 135.434,120.435 136.143,120.258 137.200 C 120.194 137.582,119.962 137.994,119.649 138.283 C 119.371 138.540,118.996 139.034,118.815 139.382 C 118.634 139.729,118.316 140.078,118.109 140.157 C 117.901 140.236,117.529 140.565,117.282 140.889 C 117.036 141.213,116.665 141.530,116.458 141.595 C 116.252 141.660,115.689 141.994,115.206 142.338 C 114.677 142.716,113.884 143.081,113.206 143.259 C 112.589 143.421,111.933 143.682,111.750 143.839 C 110.377 145.019,101.674 144.892,100.926 143.682 C 100.873 143.596,100.587 143.476,100.290 143.414 C 99.236 143.197,98.276 142.815,97.819 142.430 C 97.565 142.216,97.012 141.874,96.590 141.670 C 96.150 141.457,95.720 141.098,95.579 140.826 C 95.445 140.565,95.129 140.253,94.877 140.133 C 94.626 140.012,94.316 139.698,94.190 139.435 C 94.064 139.171,93.713 138.715,93.409 138.421 C 93.059 138.080,92.815 137.648,92.740 137.234 C 92.616 136.551,92.271 135.755,91.916 135.333 C 91.195 134.477,91.167 133.883,91.167 119.774 C 91.167 105.630,91.189 105.171,91.932 104.077 C 92.155 103.748,92.463 103.029,92.616 102.479 C 92.816 101.758,93.025 101.386,93.367 101.143 C 93.627 100.957,93.947 100.549,94.078 100.236 C 94.209 99.923,94.499 99.584,94.723 99.482 C 94.947 99.380,95.213 99.113,95.315 98.890 C 95.417 98.666,95.744 98.381,96.042 98.256 C 96.340 98.132,96.754 97.798,96.963 97.515 C 97.172 97.232,97.472 96.999,97.630 96.998 C 97.935 96.996,99.001 96.458,99.740 95.933 C 100.027 95.729,100.644 95.570,101.468 95.488 C 102.173 95.418,103.462 95.236,104.333 95.083 C 105.930 94.802,107.177 94.824,109.167 95.166 C 109.671 95.253,110.708 95.397,111.472 95.486 C 112.764 95.638,113.157 95.785,113.583 96.275 C 113.675 96.381,114.210 96.631,114.772 96.832 C 115.492 97.089,115.849 97.318,115.980 97.607 C 116.083 97.833,116.435 98.129,116.762 98.266 C 117.089 98.403,117.482 98.732,117.635 98.999 C 117.788 99.265,118.071 99.555,118.263 99.642 C 118.456 99.730,118.742 100.072,118.899 100.403 C 119.056 100.733,119.360 101.119,119.575 101.260 C 120.032 101.559,120.268 102.107,120.415 103.208 C 120.480 103.695,120.683 104.192,120.945 104.504 C 121.179 104.782,121.429 105.269,121.501 105.586 C 121.671 106.340,121.770 114.978,121.614 115.433 C 121.364 116.161,121.254 116.167,108.253 116.167 C 94.836 116.167,95.157 116.144,94.739 117.119 C 94.359 118.009,94.489 120.624,94.929 120.947 C 95.301 121.218,123.191 121.276,123.900 121.006 C 124.531 120.767,125.610 119.574,125.727 118.988 C 125.784 118.704,125.983 118.257,126.170 117.995 C 126.641 117.334,126.604 107.895,126.125 106.294 C 125.967 105.768,125.723 104.455,125.583 103.377 C 125.275 101.018,125.236 100.881,124.739 100.434 C 124.524 100.241,124.189 99.599,123.994 99.006 C 123.799 98.414,123.487 97.822,123.302 97.693 C 123.117 97.563,122.857 97.200,122.726 96.886 C 122.591 96.561,122.233 96.165,121.897 95.966 C 121.572 95.775,121.239 95.441,121.157 95.225 C 121.075 95.008,120.760 94.714,120.458 94.569 C 120.155 94.425,119.793 94.107,119.652 93.862 C 119.475 93.555,119.159 93.354,118.633 93.214 C 118.204 93.100,117.646 92.787,117.358 92.499 C 116.995 92.136,116.499 91.896,115.647 91.673 C 114.988 91.500,114.224 91.192,113.949 90.988 C 112.920 90.228,104.874 89.869,100.906 90.407 M141.334 90.290 C 140.419 90.401,140.333 90.557,140.333 92.109 C 140.333 93.596,140.543 94.322,141.161 94.966 C 141.424 95.241,141.593 95.751,141.758 96.771 C 141.943 97.915,142.084 98.301,142.477 98.749 C 142.780 99.094,143.008 99.582,143.076 100.028 C 143.335 101.736,143.532 102.477,143.750 102.560 C 144.114 102.700,144.428 103.476,144.657 104.801 C 144.780 105.516,144.988 106.135,145.161 106.301 C 145.628 106.749,145.807 107.205,145.999 108.434 C 146.126 109.241,146.327 109.791,146.675 110.280 C 146.948 110.664,147.244 111.339,147.333 111.780 C 147.658 113.386,147.800 113.822,148.139 114.252 C 148.495 114.706,148.888 115.899,149.082 117.118 C 149.147 117.529,149.390 118.044,149.670 118.364 C 149.999 118.741,150.179 119.168,150.253 119.747 C 150.431 121.141,150.670 121.852,151.089 122.241 C 151.397 122.526,151.548 122.949,151.747 124.090 C 151.944 125.220,152.103 125.673,152.422 126.006 C 152.904 126.509,153.080 127.036,153.248 128.480 C 153.346 129.324,153.458 129.600,153.855 129.971 C 154.264 130.353,154.386 130.668,154.610 131.921 C 154.806 133.019,154.983 133.531,155.275 133.846 C 155.712 134.317,156.000 135.138,156.000 135.916 C 156.000 136.191,156.145 136.679,156.322 137.000 C 157.060 138.339,157.317 138.969,157.510 139.917 C 157.623 140.467,157.893 141.186,158.111 141.515 C 158.555 142.183,158.780 142.843,158.997 144.111 C 159.084 144.618,159.349 145.255,159.642 145.659 C 159.916 146.037,160.192 146.659,160.257 147.041 C 160.413 147.962,160.645 148.302,161.202 148.424 C 161.455 148.480,161.820 148.726,162.013 148.971 C 162.597 149.714,164.816 149.744,165.428 149.017 C 165.667 148.733,166.003 148.500,166.174 148.500 C 166.345 148.500,166.619 148.301,166.784 148.057 C 166.949 147.813,167.325 147.378,167.621 147.090 C 168.106 146.618,168.453 145.453,168.497 144.151 C 168.499 144.096,168.693 143.834,168.928 143.568 C 169.480 142.944,169.608 142.611,169.758 141.406 C 169.873 140.487,170.126 139.884,170.611 139.375 C 170.720 139.261,170.898 138.736,171.007 138.208 C 171.312 136.726,171.520 136.126,171.914 135.583 C 172.292 135.063,172.560 134.251,172.751 133.038 C 172.813 132.647,173.109 131.971,173.408 131.536 C 173.799 130.967,173.987 130.464,174.076 129.747 C 174.211 128.667,174.348 128.326,174.926 127.631 C 175.133 127.382,175.347 126.876,175.401 126.506 C 175.455 126.136,175.546 125.524,175.601 125.146 C 175.664 124.724,175.880 124.273,176.164 123.976 C 176.533 123.591,176.682 123.184,176.906 121.955 C 177.139 120.680,177.267 120.343,177.653 119.989 C 177.993 119.678,178.150 119.339,178.231 118.739 C 178.484 116.866,178.549 116.633,178.911 116.270 C 179.466 115.716,179.611 115.365,179.746 114.250 C 179.873 113.205,180.137 112.537,180.563 112.183 C 180.702 112.068,180.900 111.549,181.003 111.029 C 181.311 109.479,181.542 108.769,181.851 108.417 C 182.204 108.015,182.593 106.871,182.743 105.792 C 182.805 105.347,183.020 104.801,183.235 104.542 C 183.812 103.849,183.947 103.509,184.080 102.417 C 184.208 101.362,184.484 100.683,184.991 100.175 C 185.160 100.007,185.344 99.561,185.399 99.184 C 185.455 98.808,185.543 98.208,185.595 97.850 C 185.650 97.475,185.890 96.976,186.164 96.670 C 186.511 96.281,186.687 95.843,186.825 95.028 C 187.059 93.645,187.309 92.826,187.599 92.493 C 187.789 92.275,187.760 92.112,187.413 91.426 C 186.805 90.224,186.549 90.101,184.949 90.234 C 183.390 90.364,183.231 90.458,183.083 91.333 C 183.023 91.689,182.803 92.154,182.595 92.365 C 182.020 92.949,181.879 93.313,181.746 94.553 C 181.661 95.357,181.516 95.821,181.254 96.137 C 180.647 96.867,180.471 97.319,180.318 98.534 C 180.210 99.393,180.047 99.864,179.677 100.385 C 179.342 100.855,179.091 101.517,178.909 102.413 C 178.615 103.853,178.479 104.188,177.987 104.679 C 177.811 104.856,177.667 105.160,177.667 105.356 C 177.667 105.707,177.477 106.535,177.136 107.667 C 177.040 107.987,176.791 108.438,176.583 108.667 C 176.353 108.921,176.161 109.408,176.092 109.917 C 175.906 111.283,175.682 111.957,175.238 112.484 C 174.955 112.820,174.764 113.327,174.653 114.034 C 174.427 115.473,174.193 116.141,173.849 116.325 C 173.569 116.475,173.334 117.282,173.075 118.979 C 173.003 119.450,172.793 119.886,172.482 120.212 C 172.217 120.489,171.997 120.799,171.994 120.900 C 171.958 122.055,171.470 123.740,171.026 124.246 C 170.643 124.682,170.501 125.040,170.417 125.783 C 170.264 127.127,170.060 127.713,169.491 128.428 C 169.221 128.768,169.000 129.231,169.000 129.457 C 169.000 130.195,168.481 131.908,168.149 132.265 C 167.791 132.650,167.590 133.251,167.320 134.741 C 167.212 135.338,166.981 135.923,166.741 136.208 C 166.337 136.688,166.200 137.110,165.861 138.917 C 165.736 139.581,165.546 140.029,165.295 140.250 C 165.087 140.434,164.826 140.787,164.716 141.034 C 164.081 142.454,162.843 141.954,162.699 140.219 C 162.652 139.653,162.463 138.996,162.232 138.593 C 161.467 137.261,161.174 136.576,161.170 136.115 C 161.165 135.478,160.824 134.167,160.663 134.167 C 160.347 134.167,159.857 132.938,159.697 131.742 C 159.548 130.629,159.451 130.372,159.027 129.976 C 158.689 129.660,158.497 129.285,158.423 128.798 C 158.149 126.990,157.960 126.324,157.663 126.116 C 157.269 125.840,157.076 125.334,156.917 124.167 C 156.759 123.008,156.564 122.493,156.182 122.226 C 155.879 122.013,155.680 121.385,155.363 119.646 C 155.252 119.034,155.050 118.565,154.783 118.298 C 154.394 117.909,154.000 116.641,154.000 115.778 C 154.000 115.573,153.743 115.006,153.428 114.518 C 153.114 114.030,152.808 113.320,152.748 112.940 C 152.557 111.732,152.289 110.932,151.892 110.391 C 151.521 109.884,151.268 109.079,151.082 107.816 C 151.034 107.485,150.756 106.855,150.464 106.415 C 150.073 105.825,149.879 105.266,149.722 104.280 C 149.559 103.254,149.411 102.842,149.082 102.499 C 148.619 102.015,148.421 101.425,148.246 100.000 C 148.161 99.305,148.014 98.958,147.640 98.565 C 147.233 98.138,147.101 97.784,146.891 96.569 C 146.691 95.408,146.536 94.979,146.168 94.560 C 145.885 94.237,145.657 93.742,145.591 93.305 C 145.377 91.887,145.307 91.689,144.860 91.222 C 143.871 90.190,143.335 90.049,141.334 90.290 M203.373 90.498 C 203.138 90.874,203.065 147.916,203.299 148.284 C 204.274 149.817,207.463 149.856,208.245 148.343 C 208.652 147.557,208.635 90.925,208.228 90.475 C 207.790 89.992,203.678 90.011,203.373 90.498 M242.500 90.279 C 240.972 90.433,239.758 90.711,239.358 91.001 C 238.882 91.344,237.778 91.736,236.822 91.901 C 236.444 91.966,236.103 92.171,235.889 92.460 C 235.693 92.725,235.186 93.048,234.682 93.229 C 234.162 93.416,233.672 93.732,233.461 94.017 C 233.267 94.279,232.867 94.573,232.572 94.670 C 232.217 94.788,231.962 95.022,231.822 95.361 C 231.693 95.672,231.399 95.962,231.077 96.097 C 230.684 96.261,230.517 96.459,230.438 96.852 C 230.379 97.145,230.074 97.699,229.760 98.082 C 229.446 98.466,229.035 99.217,228.847 99.752 C 228.658 100.288,228.325 100.994,228.105 101.321 C 227.208 102.660,227.004 106.051,227.004 119.667 C 227.004 133.462,227.233 136.988,228.203 138.142 C 228.434 138.415,228.757 139.136,228.921 139.743 C 229.152 140.597,229.322 140.906,229.676 141.116 C 229.928 141.264,230.200 141.618,230.281 141.901 C 230.366 142.198,230.653 142.558,230.958 142.750 C 231.249 142.933,231.490 143.153,231.494 143.238 C 231.504 143.484,233.667 145.500,233.920 145.500 C 234.047 145.500,234.336 145.744,234.564 146.043 C 234.866 146.439,235.241 146.664,235.947 146.874 C 236.481 147.033,237.104 147.334,237.333 147.544 C 237.811 147.981,238.586 148.229,240.258 148.479 C 240.903 148.575,241.878 148.861,242.424 149.114 C 243.962 149.828,249.861 149.833,251.443 149.122 C 252.008 148.869,253.133 148.561,253.943 148.438 C 255.453 148.210,256.667 147.804,256.667 147.529 C 256.667 147.444,256.910 147.281,257.208 147.167 C 258.458 146.691,258.950 146.422,259.542 145.893 C 259.886 145.585,260.315 145.333,260.496 145.333 C 260.693 145.333,260.929 145.132,261.084 144.832 C 261.226 144.557,261.641 144.143,262.005 143.914 C 262.400 143.664,262.667 143.367,262.667 143.177 C 262.667 143.001,262.883 142.683,263.147 142.470 C 263.660 142.058,264.167 141.197,264.167 140.739 C 264.167 140.586,264.422 140.227,264.735 139.939 C 265.240 139.474,265.331 139.254,265.557 137.942 C 265.739 136.881,265.942 136.279,266.280 135.790 L 266.750 135.113 266.750 132.110 L 266.750 129.106 265.917 128.890 C 262.890 128.103,261.996 128.939,261.813 132.729 C 261.746 134.115,261.686 135.341,261.679 135.453 C 261.672 135.564,261.449 135.903,261.183 136.206 C 260.917 136.509,260.592 137.131,260.461 137.587 C 260.277 138.226,260.082 138.509,259.611 138.820 C 259.270 139.045,259.000 139.360,259.000 139.534 C 259.000 139.707,258.761 139.987,258.458 140.167 C 258.160 140.344,257.707 140.754,257.451 141.078 C 257.195 141.402,256.877 141.667,256.743 141.667 C 256.610 141.667,256.208 141.931,255.850 142.255 C 255.415 142.648,254.875 142.926,254.224 143.092 C 253.688 143.229,252.694 143.621,252.015 143.962 L 250.781 144.583 247.015 144.579 C 243.100 144.574,242.290 144.462,241.583 143.825 C 241.400 143.660,241.025 143.475,240.750 143.414 C 239.507 143.140,238.646 142.776,238.352 142.402 C 238.176 142.179,237.757 141.882,237.421 141.741 C 236.476 141.346,234.649 139.567,234.135 138.542 C 233.888 138.049,233.497 137.498,233.266 137.316 C 233.007 137.112,232.808 136.748,232.748 136.368 C 232.574 135.274,232.303 134.275,231.892 133.209 L 231.490 132.168 231.537 119.368 C 231.579 107.772,231.609 106.529,231.860 106.146 C 232.108 105.768,232.458 104.551,232.752 103.051 C 232.809 102.758,233.113 102.196,233.427 101.801 C 233.741 101.406,234.076 100.847,234.173 100.559 C 234.282 100.231,234.527 99.960,234.826 99.836 C 235.095 99.725,235.397 99.416,235.514 99.132 C 235.637 98.837,235.938 98.535,236.237 98.408 C 236.519 98.288,236.945 97.965,237.183 97.691 C 237.464 97.366,237.939 97.097,238.537 96.923 C 239.044 96.776,239.599 96.497,239.771 96.304 C 240.183 95.842,241.017 95.500,241.734 95.500 C 242.051 95.500,243.197 95.350,244.281 95.168 C 246.598 94.776,247.478 94.764,249.167 95.099 C 249.854 95.235,251.017 95.406,251.750 95.478 C 253.078 95.609,253.913 95.910,254.323 96.404 C 254.442 96.547,254.834 96.744,255.196 96.841 C 255.557 96.938,256.129 97.263,256.468 97.562 C 256.806 97.861,257.347 98.265,257.669 98.459 C 257.992 98.654,258.627 99.305,259.082 99.906 C 259.536 100.508,259.957 101.000,260.018 101.000 C 260.078 101.000,260.216 101.356,260.325 101.792 C 260.437 102.240,260.736 102.805,261.015 103.095 C 261.687 103.793,261.786 104.545,261.929 110.031 C 262.059 115.023,261.988 115.633,261.237 115.975 C 260.934 116.114,257.411 116.167,248.499 116.167 C 237.506 116.167,236.157 116.195,235.965 116.428 C 235.847 116.572,235.610 116.816,235.440 116.970 C 234.625 117.705,234.630 117.691,234.697 118.865 C 234.754 119.886,234.817 120.061,235.300 120.544 L 235.840 121.083 250.212 121.083 C 265.046 121.083,265.333 121.071,265.333 120.440 C 265.333 120.179,266.029 119.500,266.296 119.500 C 266.764 119.500,266.850 118.083,266.800 111.186 L 266.750 104.221 266.298 103.569 C 266.050 103.210,265.763 102.504,265.661 102.000 C 265.308 100.262,265.161 99.862,264.684 99.352 C 264.420 99.070,264.157 98.583,264.098 98.269 C 264.027 97.890,263.798 97.552,263.412 97.258 C 263.094 97.015,262.831 96.726,262.829 96.617 C 262.826 96.507,262.369 96.004,261.812 95.500 C 261.255 94.996,260.466 94.265,260.059 93.875 C 259.651 93.485,259.164 93.167,258.976 93.167 C 258.788 93.167,258.415 92.933,258.148 92.647 C 257.788 92.261,257.306 92.023,256.289 91.729 C 255.534 91.510,254.702 91.173,254.440 90.980 C 253.561 90.333,246.235 89.903,242.500 90.279 M278.456 90.327 C 278.112 90.393,277.781 90.497,277.722 90.556 C 277.230 91.048,277.554 94.633,278.166 95.467 C 278.526 95.958,278.749 96.949,279.004 99.201 C 279.127 100.290,279.297 100.899,279.665 101.580 C 280.078 102.343,280.189 102.808,280.335 104.373 C 280.536 106.541,280.569 106.675,281.086 107.436 C 281.519 108.075,281.621 108.553,281.814 110.872 C 281.929 112.238,282.022 112.597,282.405 113.150 C 282.862 113.809,282.921 114.085,283.307 117.335 C 283.412 118.220,283.578 118.766,283.874 119.204 C 284.312 119.849,284.400 120.249,284.657 122.794 C 284.760 123.812,284.919 124.493,285.123 124.794 C 285.679 125.612,285.821 126.133,286.009 128.039 C 286.158 129.550,286.290 130.106,286.684 130.887 C 287.064 131.640,287.231 132.311,287.429 133.887 C 287.612 135.349,287.801 136.149,288.103 136.746 C 288.565 137.658,288.753 138.487,289.006 140.724 C 289.111 141.645,289.289 142.376,289.475 142.647 C 289.978 143.378,290.159 144.016,290.323 145.621 C 290.508 147.446,290.506 147.441,291.670 148.436 C 293.401 149.916,295.388 150.117,296.654 148.941 C 296.890 148.722,297.307 148.439,297.579 148.312 C 298.071 148.085,298.179 147.881,298.497 146.576 C 298.587 146.206,298.818 145.733,299.011 145.527 C 299.448 145.058,299.594 144.554,299.750 142.987 C 299.860 141.877,300.320 140.562,300.680 140.329 C 300.861 140.212,301.157 138.892,301.165 138.167 C 301.173 137.453,301.578 136.249,301.983 135.733 C 302.265 135.375,302.383 134.912,302.825 132.427 C 302.922 131.882,303.138 131.282,303.305 131.093 C 303.674 130.676,303.938 129.796,304.157 128.255 C 304.260 127.535,304.452 126.934,304.663 126.672 C 305.179 126.031,305.308 125.632,305.503 124.060 C 305.690 122.554,305.828 122.151,306.361 121.566 C 306.536 121.372,306.719 120.922,306.767 120.566 C 307.106 118.035,307.207 117.642,307.618 117.261 C 307.980 116.926,308.070 116.617,308.281 114.978 C 308.643 112.159,308.927 111.754,310.201 112.240 C 311.182 112.615,311.594 113.413,311.756 115.250 C 311.876 116.627,312.190 117.667,312.485 117.667 C 312.699 117.667,313.167 119.221,313.167 119.934 C 313.167 120.862,313.544 122.179,313.859 122.347 C 314.210 122.535,314.414 123.244,314.670 125.167 C 314.792 126.083,314.964 126.701,315.158 126.917 C 315.668 127.482,315.806 127.888,316.008 129.405 C 316.154 130.504,316.323 131.063,316.687 131.648 C 317.037 132.211,317.241 132.861,317.425 133.994 C 317.564 134.856,317.785 135.754,317.916 135.989 C 318.499 137.035,318.680 137.578,318.929 139.033 C 319.120 140.145,319.329 140.786,319.668 141.300 C 320.143 142.021,320.228 142.359,320.428 144.306 C 320.512 145.128,320.639 145.480,320.997 145.890 C 321.251 146.180,321.564 146.792,321.693 147.250 C 321.884 147.931,322.031 148.132,322.494 148.352 C 322.806 148.500,323.229 148.831,323.434 149.088 C 324.000 149.798,326.418 149.818,327.405 149.120 C 329.115 147.912,329.590 147.159,329.743 145.417 C 329.864 144.027,330.205 142.761,330.572 142.333 C 330.868 141.988,331.166 140.680,331.169 139.718 C 331.171 138.735,331.524 137.360,331.961 136.629 C 332.317 136.032,332.599 134.715,332.750 132.940 C 332.817 132.143,333.015 131.436,333.403 130.606 C 333.850 129.652,333.982 129.120,334.072 127.917 C 334.206 126.124,334.426 125.200,334.826 124.750 C 335.200 124.330,335.273 124.005,335.500 121.767 C 335.683 119.949,335.941 119.036,336.399 118.578 C 336.533 118.443,336.689 117.902,336.745 117.375 C 337.050 114.529,337.213 113.565,337.468 113.118 C 337.623 112.847,337.842 112.458,337.955 112.254 C 338.068 112.050,338.238 111.003,338.332 109.927 C 338.479 108.253,338.586 107.800,339.071 106.777 C 339.552 105.766,339.655 105.332,339.747 103.941 C 339.858 102.264,339.916 102.036,340.599 100.583 C 340.865 100.017,341.025 99.296,341.097 98.333 C 341.208 96.838,341.538 95.415,341.965 94.583 C 342.943 92.680,342.667 90.869,341.333 90.432 C 339.037 89.681,337.881 90.682,337.502 93.750 C 337.261 95.700,337.091 96.342,336.578 97.250 C 336.300 97.743,336.152 98.410,336.010 99.816 C 335.822 101.668,335.555 102.641,335.092 103.161 C 334.957 103.313,334.757 104.351,334.600 105.716 C 334.345 107.945,334.176 108.568,333.734 108.917 C 333.503 109.098,333.167 110.715,333.167 111.642 C 333.167 112.835,332.807 114.313,332.413 114.738 C 332.140 115.033,331.995 115.442,331.922 116.120 C 331.564 119.468,331.484 119.855,330.982 120.670 C 330.535 121.397,330.463 121.701,330.335 123.394 C 330.211 125.044,330.121 125.434,329.670 126.301 C 329.283 127.046,329.112 127.657,329.002 128.692 C 328.798 130.623,328.525 131.816,328.132 132.498 C 327.915 132.876,327.685 133.865,327.478 135.318 C 327.237 137.013,327.044 137.784,326.684 138.491 C 326.423 139.005,326.153 139.686,326.085 140.005 C 325.610 142.206,324.332 142.077,324.090 139.803 C 323.948 138.481,323.730 137.775,323.241 137.054 C 323.009 136.712,322.813 136.108,322.748 135.535 C 322.611 134.315,322.200 132.821,321.914 132.500 C 321.577 132.123,321.207 130.862,321.131 129.830 C 321.093 129.323,320.936 128.667,320.781 128.371 C 320.626 128.075,320.374 127.591,320.219 127.296 C 320.065 127.000,319.843 126.069,319.726 125.228 C 319.557 124.005,319.413 123.551,319.011 122.973 C 318.592 122.372,318.477 121.984,318.324 120.667 C 318.222 119.796,318.034 118.933,317.904 118.750 C 317.775 118.567,317.556 118.262,317.418 118.073 C 317.280 117.884,317.056 116.937,316.920 115.970 C 316.652 114.060,316.548 113.667,316.307 113.667 C 316.019 113.667,315.670 112.532,315.431 110.823 C 315.254 109.556,315.107 109.042,314.844 108.761 C 314.410 108.300,314.227 107.684,314.087 106.217 C 313.972 105.012,313.811 104.552,313.225 103.750 C 313.024 103.475,312.809 103.049,312.748 102.804 C 312.477 101.716,310.439 101.172,308.603 101.696 C 307.675 101.961,307.565 102.066,307.360 102.881 C 307.262 103.269,306.961 103.923,306.692 104.335 C 306.310 104.917,306.158 105.414,306.007 106.572 C 305.807 108.106,305.671 108.511,305.162 109.083 C 304.965 109.305,304.777 110.029,304.601 111.240 C 304.382 112.738,304.262 113.140,303.924 113.493 C 303.502 113.933,303.249 114.834,303.078 116.511 C 303.023 117.049,302.830 117.673,302.617 117.998 C 301.919 119.061,301.838 119.253,301.836 119.852 C 301.831 120.978,301.506 122.188,301.019 122.886 C 300.625 123.452,300.498 123.877,300.344 125.140 C 300.178 126.506,299.879 127.372,299.472 127.671 C 299.343 127.765,299.155 128.503,298.743 130.530 C 298.599 131.235,298.332 132.002,298.148 132.236 C 297.853 132.611,297.577 133.678,297.257 135.684 C 297.204 136.015,296.946 136.615,296.685 137.018 C 296.317 137.584,296.167 138.087,296.024 139.233 C 295.719 141.680,295.004 142.189,294.129 140.583 C 293.879 140.125,293.673 139.653,293.671 139.535 C 293.668 139.417,293.521 139.117,293.343 138.868 C 293.003 138.394,292.667 136.875,292.667 135.811 C 292.667 135.044,292.293 133.561,291.917 132.833 C 291.516 132.059,291.223 130.776,291.105 129.279 C 291.030 128.322,290.852 127.635,290.438 126.693 C 289.973 125.635,289.846 125.084,289.714 123.546 C 289.579 121.980,289.484 121.576,289.123 121.030 C 288.658 120.328,288.333 118.927,288.333 117.627 C 288.333 116.510,288.019 115.337,287.578 114.803 C 287.182 114.326,287.083 113.848,286.842 111.275 C 286.719 109.959,286.606 109.512,286.273 109.025 C 285.833 108.380,285.574 107.219,285.411 105.155 C 285.355 104.461,285.222 103.739,285.114 103.552 C 285.005 103.364,284.785 102.978,284.624 102.695 C 284.446 102.381,284.238 101.381,284.092 100.128 C 283.841 97.981,283.748 97.579,283.412 97.167 C 283.079 96.757,282.847 95.840,282.675 94.250 C 282.291 90.691,281.305 89.774,278.456 90.327 M311.929 94.778 C 311.775 95.179,312.091 95.437,312.412 95.171 C 312.609 95.007,312.626 94.901,312.482 94.728 C 312.230 94.425,312.059 94.440,311.929 94.778 M4.167 137.202 C 2.317 137.367,1.667 137.620,1.667 138.175 C 1.667 138.359,1.507 139.125,1.312 139.877 C 0.914 141.411,0.932 145.499,1.341 146.667 C 1.454 146.987,1.654 147.569,1.787 147.958 C 1.919 148.348,2.091 148.667,2.168 148.667 C 2.245 148.667,2.553 148.873,2.852 149.125 L 3.397 149.583 7.080 149.583 C 11.172 149.583,10.633 149.705,12.267 148.415 C 12.643 148.118,12.975 147.403,13.506 145.751 C 13.708 145.124,13.718 140.622,13.519 140.408 C 13.438 140.321,13.183 139.699,12.953 139.026 C 12.408 137.428,12.547 137.511,9.979 137.240 C 7.515 136.979,6.740 136.974,4.167 137.202 M8.411 140.093 C 8.683 140.235,9.020 140.454,9.161 140.581 C 10.423 141.714,10.333 141.503,10.333 143.339 C 10.333 145.527,10.059 145.886,8.246 146.064 C 6.672 146.218,4.833 145.950,4.479 145.514 C 3.777 144.651,3.972 141.360,4.750 140.933 C 4.933 140.832,5.147 140.649,5.225 140.527 C 5.633 139.883,7.516 139.627,8.411 140.093 " id="color"></path>
    </g>
</svg>
