<?xml version="1.0" encoding="UTF-8" standalone="no"?>
<!DOCTYPE svg PUBLIC "-//W3C//DTD SVG 1.1//EN"
 "http://www.w3.org/Graphics/SVG/1.1/DTD/svg11.dtd">
<!-- Generated by graphviz version 2.40.1 (20161225.0304)
 -->
<!-- Title: oneDegreeRelationshipsDiagram Pages: 1 -->
<svg width="251pt" height="338pt"
 viewBox="0.00 0.00 251.00 338.20" xmlns="http://www.w3.org/2000/svg" xmlns:xlink="http://www.w3.org/1999/xlink">
<g id="graph0" class="graph" transform="scale(1 1) rotate(0) translate(4 334.2)">
<title>oneDegreeRelationshipsDiagram</title>
<polygon fill="#ffffff" stroke="transparent" points="-4,4 -4,-334.2 247,-334.2 247,4 -4,4"/>
<text text-anchor="middle" x="72.4936" y="-7.3" font-family="Helvetica,sans-Serif" font-size="11.00" fill="#000000">Generated by SchemaSpy</text>
<!-- api_log -->
<g id="node1" class="node">
<title>api_log</title>
<g id="a_node1"><a xlink:href="../../tables/api_log.html" xlink:title="api_log" target="_top">
<polygon fill="#ffffff" stroke="transparent" points="8,-38.2 8,-326.2 235,-326.2 235,-38.2 8,-38.2"/>
<polygon fill="#f5f5f5" stroke="transparent" points="10.5,-301.2 10.5,-324.2 233.5,-324.2 233.5,-301.2 10.5,-301.2"/>
<polygon fill="none" stroke="#000000" points="10.5,-301.2 10.5,-324.2 233.5,-324.2 233.5,-301.2 10.5,-301.2"/>
<text text-anchor="start" x="15.5" y="-309.8" font-family="Helvetica,sans-Serif" font-weight="bold" font-size="11.00" fill="#000000">api_log</text>
<text text-anchor="start" x="198.5437" y="-309.3" font-family="Helvetica,sans-Serif" font-size="11.00" fill="#000000">[table]</text>
<polygon fill="none" stroke="#000000" points="10.5,-279.2 10.5,-301.2 122.5,-301.2 122.5,-279.2 10.5,-279.2"/>
<image xlink:href="../../images/primaryKeys.png" width="11px" height="12px" preserveAspectRatio="xMinYMin meet" x="15.5" y="-296.2"/>
<text text-anchor="start" x="30.5" y="-286.3" font-family="Helvetica,sans-Serif" font-size="11.00" fill="#000000">id</text>
<polygon fill="none" stroke="#000000" points="122.5,-279.2 122.5,-301.2 233.5,-301.2 233.5,-279.2 122.5,-279.2"/>
<text text-anchor="start" x="125.5" y="-286.9" font-family="Helvetica,sans-Serif" font-size="11.00" fill="#000000">bigint[19]</text>
<polygon fill="none" stroke="#000000" points="10.5,-257.2 10.5,-279.2 122.5,-279.2 122.5,-257.2 10.5,-257.2"/>
<text text-anchor="start" x="30.5" y="-264.3" font-family="Helvetica,sans-Serif" font-size="11.00" fill="#000000">log_id</text>
<polygon fill="none" stroke="#000000" points="122.5,-257.2 122.5,-279.2 233.5,-279.2 233.5,-257.2 122.5,-257.2"/>
<text text-anchor="start" x="125.5" y="-264.9" font-family="Helvetica,sans-Serif" font-size="11.00" fill="#000000">int[10]</text>
<polygon fill="none" stroke="#000000" points="10.5,-235.2 10.5,-257.2 122.5,-257.2 122.5,-235.2 10.5,-235.2"/>
<text text-anchor="start" x="30.5" y="-242.3" font-family="Helvetica,sans-Serif" font-size="11.00" fill="#000000">user_id</text>
<polygon fill="none" stroke="#000000" points="122.5,-235.2 122.5,-257.2 233.5,-257.2 233.5,-235.2 122.5,-235.2"/>
<text text-anchor="start" x="125.5" y="-242.9" font-family="Helvetica,sans-Serif" font-size="11.00" fill="#000000">bigint[19]</text>
<polygon fill="none" stroke="#000000" points="10.5,-213.2 10.5,-235.2 122.5,-235.2 122.5,-213.2 10.5,-213.2"/>
<text text-anchor="start" x="30.5" y="-220.3" font-family="Helvetica,sans-Serif" font-size="11.00" fill="#000000">patient_id</text>
<polygon fill="none" stroke="#000000" points="122.5,-213.2 122.5,-235.2 233.5,-235.2 233.5,-213.2 122.5,-213.2"/>
<text text-anchor="start" x="125.5" y="-220.9" font-family="Helvetica,sans-Serif" font-size="11.00" fill="#000000">bigint[19]</text>
<polygon fill="none" stroke="#000000" points="10.5,-191.2 10.5,-213.2 122.5,-213.2 122.5,-191.2 10.5,-191.2"/>
<text text-anchor="start" x="30.5" y="-198.3" font-family="Helvetica,sans-Serif" font-size="11.00" fill="#000000">ip_address</text>
<polygon fill="none" stroke="#000000" points="122.5,-191.2 122.5,-213.2 233.5,-213.2 233.5,-191.2 122.5,-191.2"/>
<text text-anchor="start" x="125.5" y="-198.9" font-family="Helvetica,sans-Serif" font-size="11.00" fill="#000000">varchar[255]</text>
<polygon fill="none" stroke="#000000" points="10.5,-169.2 10.5,-191.2 122.5,-191.2 122.5,-169.2 10.5,-169.2"/>
<text text-anchor="start" x="30.5" y="-176.3" font-family="Helvetica,sans-Serif" font-size="11.00" fill="#000000">method</text>
<polygon fill="none" stroke="#000000" points="122.5,-169.2 122.5,-191.2 233.5,-191.2 233.5,-169.2 122.5,-169.2"/>
<text text-anchor="start" x="125.5" y="-176.9" font-family="Helvetica,sans-Serif" font-size="11.00" fill="#000000">varchar[20]</text>
<polygon fill="none" stroke="#000000" points="10.5,-147.2 10.5,-169.2 122.5,-169.2 122.5,-147.2 10.5,-147.2"/>
<text text-anchor="start" x="30.5" y="-154.3" font-family="Helvetica,sans-Serif" font-size="11.00" fill="#000000">request</text>
<polygon fill="none" stroke="#000000" points="122.5,-147.2 122.5,-169.2 233.5,-169.2 233.5,-147.2 122.5,-147.2"/>
<text text-anchor="start" x="125.5" y="-154.9" font-family="Helvetica,sans-Serif" font-size="11.00" fill="#000000">varchar[255]</text>
<polygon fill="none" stroke="#000000" points="10.5,-125.2 10.5,-147.2 122.5,-147.2 122.5,-125.2 10.5,-125.2"/>
<text text-anchor="start" x="30.5" y="-132.3" font-family="Helvetica,sans-Serif" font-size="11.00" fill="#000000">request_url</text>
<polygon fill="none" stroke="#000000" points="122.5,-125.2 122.5,-147.2 233.5,-147.2 233.5,-125.2 122.5,-125.2"/>
<text text-anchor="start" x="125.5" y="-132.9" font-family="Helvetica,sans-Serif" font-size="11.00" fill="#000000">text[65535]</text>
<polygon fill="none" stroke="#000000" points="10.5,-103.2 10.5,-125.2 122.5,-125.2 122.5,-103.2 10.5,-103.2"/>
<text text-anchor="start" x="30.5" y="-110.3" font-family="Helvetica,sans-Serif" font-size="11.00" fill="#000000">request_body</text>
<polygon fill="none" stroke="#000000" points="122.5,-103.2 122.5,-125.2 233.5,-125.2 233.5,-103.2 122.5,-103.2"/>
<text text-anchor="start" x="125.1115" y="-110.9" font-family="Helvetica,sans-Serif" font-size="11.00" fill="#000000">longtext[2147483647]</text>
<polygon fill="none" stroke="#000000" points="10.5,-81.2 10.5,-103.2 122.5,-103.2 122.5,-81.2 10.5,-81.2"/>
<text text-anchor="start" x="30.5" y="-88.3" font-family="Helvetica,sans-Serif" font-size="11.00" fill="#000000">response</text>
<polygon fill="none" stroke="#000000" points="122.5,-81.2 122.5,-103.2 233.5,-103.2 233.5,-81.2 122.5,-81.2"/>
<text text-anchor="start" x="125.1115" y="-88.9" font-family="Helvetica,sans-Serif" font-size="11.00" fill="#000000">longtext[2147483647]</text>
<polygon fill="none" stroke="#000000" points="10.5,-59.2 10.5,-81.2 122.5,-81.2 122.5,-59.2 10.5,-59.2"/>
<text text-anchor="start" x="30.5" y="-66.3" font-family="Helvetica,sans-Serif" font-size="11.00" fill="#000000">created_time</text>
<polygon fill="none" stroke="#000000" points="122.5,-59.2 122.5,-81.2 233.5,-81.2 233.5,-59.2 122.5,-59.2"/>
<text text-anchor="start" x="125.5" y="-66.9" font-family="Helvetica,sans-Serif" font-size="11.00" fill="#000000">timestamp[19]</text>
<polygon fill="#ffffff" stroke="transparent" points="10.5,-40.2 10.5,-59.2 70.5,-59.2 70.5,-40.2 10.5,-40.2"/>
<polygon fill="none" stroke="#000000" points="10.5,-40.2 10.5,-59.2 70.5,-59.2 70.5,-40.2 10.5,-40.2"/>
<text text-anchor="start" x="13.5" y="-46.3" font-family="Helvetica,sans-Serif" font-size="11.00" fill="#000000">&lt; 0</text>
<polygon fill="#ffffff" stroke="transparent" points="70.5,-40.2 70.5,-59.2 122.5,-59.2 122.5,-40.2 70.5,-40.2"/>
<polygon fill="none" stroke="#000000" points="70.5,-40.2 70.5,-59.2 122.5,-59.2 122.5,-40.2 70.5,-40.2"/>
<text text-anchor="start" x="113.3862" y="-46.3" font-family="Helvetica,sans-Serif" font-size="11.00" fill="#000000"> &#160;</text>
<polygon fill="#ffffff" stroke="transparent" points="122.5,-40.2 122.5,-59.2 233.5,-59.2 233.5,-40.2 122.5,-40.2"/>
<polygon fill="none" stroke="#000000" points="122.5,-40.2 122.5,-59.2 233.5,-59.2 233.5,-40.2 122.5,-40.2"/>
<text text-anchor="start" x="214.9053" y="-46.3" font-family="Helvetica,sans-Serif" font-size="11.00" fill="#000000">0 &gt;</text>
<polygon fill="none" stroke="#000000" stroke-width="2" points="9,-39.2 9,-325.2 234,-325.2 234,-39.2 9,-39.2"/>
</a>
</g>
</g>
</g>
</svg>
