<?xml version="1.0" encoding="UTF-8" standalone="no"?>
<!DOCTYPE svg PUBLIC "-//W3C//DTD SVG 1.1//EN"
 "http://www.w3.org/Graphics/SVG/1.1/DTD/svg11.dtd">
<!-- Generated by graphviz version 2.40.1 (20161225.0304)
 -->
<!-- Title: oneDegreeRelationshipsDiagram Pages: 1 -->
<svg width="181pt" height="272pt"
 viewBox="0.00 0.00 181.00 272.20" xmlns="http://www.w3.org/2000/svg" xmlns:xlink="http://www.w3.org/1999/xlink">
<g id="graph0" class="graph" transform="scale(1 1) rotate(0) translate(4 268.2)">
<title>oneDegreeRelationshipsDiagram</title>
<polygon fill="#ffffff" stroke="transparent" points="-4,4 -4,-268.2 177,-268.2 177,4 -4,4"/>
<text text-anchor="middle" x="72.4936" y="-7.3" font-family="Helvetica,sans-Serif" font-size="11.00" fill="#000000">Generated by SchemaSpy</text>
<!-- api_token -->
<g id="node1" class="node">
<title>api_token</title>
<g id="a_node1"><a xlink:href="../../tables/api_token.html" xlink:title="api_token" target="_top">
<polygon fill="#ffffff" stroke="transparent" points="8,-38.2 8,-260.2 165,-260.2 165,-38.2 8,-38.2"/>
<polygon fill="#f5f5f5" stroke="transparent" points="10.5,-235.2 10.5,-258.2 163.5,-258.2 163.5,-235.2 10.5,-235.2"/>
<polygon fill="none" stroke="#000000" points="10.5,-235.2 10.5,-258.2 163.5,-258.2 163.5,-235.2 10.5,-235.2"/>
<text text-anchor="start" x="15.5" y="-243.8" font-family="Helvetica,sans-Serif" font-weight="bold" font-size="11.00" fill="#000000">api_token</text>
<text text-anchor="start" x="128.5437" y="-243.3" font-family="Helvetica,sans-Serif" font-size="11.00" fill="#000000">[table]</text>
<polygon fill="none" stroke="#000000" points="10.5,-213.2 10.5,-235.2 96.5,-235.2 96.5,-213.2 10.5,-213.2"/>
<image xlink:href="../../images/primaryKeys.png" width="11px" height="12px" preserveAspectRatio="xMinYMin meet" x="15.5" y="-230.2"/>
<text text-anchor="start" x="30.5" y="-220.3" font-family="Helvetica,sans-Serif" font-size="11.00" fill="#000000">id</text>
<polygon fill="none" stroke="#000000" points="96.5,-213.2 96.5,-235.2 163.5,-235.2 163.5,-213.2 96.5,-213.2"/>
<text text-anchor="start" x="99.5" y="-220.9" font-family="Helvetica,sans-Serif" font-size="11.00" fill="#000000">bigint[19]</text>
<polygon fill="none" stroke="#000000" points="10.5,-191.2 10.5,-213.2 96.5,-213.2 96.5,-191.2 10.5,-191.2"/>
<text text-anchor="start" x="30.5" y="-198.3" font-family="Helvetica,sans-Serif" font-size="11.00" fill="#000000">user_id</text>
<polygon fill="none" stroke="#000000" points="96.5,-191.2 96.5,-213.2 163.5,-213.2 163.5,-191.2 96.5,-191.2"/>
<text text-anchor="start" x="99.5" y="-198.9" font-family="Helvetica,sans-Serif" font-size="11.00" fill="#000000">varchar[40]</text>
<polygon fill="#ffffff" stroke="transparent" points="10.5,-169.2 10.5,-191.2 96.5,-191.2 96.5,-169.2 10.5,-169.2"/>
<polygon fill="none" stroke="#000000" points="10.5,-169.2 10.5,-191.2 96.5,-191.2 96.5,-169.2 10.5,-169.2"/>
<text text-anchor="start" x="30.5" y="-176.3" font-family="Helvetica,sans-Serif" font-size="11.00" fill="#000000">token</text>
<polygon fill="none" stroke="#000000" points="96.5,-169.2 96.5,-191.2 163.5,-191.2 163.5,-169.2 96.5,-169.2"/>
<text text-anchor="start" x="99.4365" y="-176.9" font-family="Helvetica,sans-Serif" font-size="11.00" fill="#000000">varchar[128]</text>
<polygon fill="none" stroke="#000000" points="10.5,-147.2 10.5,-169.2 96.5,-169.2 96.5,-147.2 10.5,-147.2"/>
<text text-anchor="start" x="30.5" y="-154.3" font-family="Helvetica,sans-Serif" font-size="11.00" fill="#000000">expiry</text>
<polygon fill="none" stroke="#000000" points="96.5,-147.2 96.5,-169.2 163.5,-169.2 163.5,-147.2 96.5,-147.2"/>
<text text-anchor="start" x="99.5" y="-154.9" font-family="Helvetica,sans-Serif" font-size="11.00" fill="#000000">datetime[19]</text>
<polygon fill="none" stroke="#000000" points="10.5,-125.2 10.5,-147.2 96.5,-147.2 96.5,-125.2 10.5,-125.2"/>
<text text-anchor="start" x="30.5" y="-132.3" font-family="Helvetica,sans-Serif" font-size="11.00" fill="#000000">client_id</text>
<polygon fill="none" stroke="#000000" points="96.5,-125.2 96.5,-147.2 163.5,-147.2 163.5,-125.2 96.5,-125.2"/>
<text text-anchor="start" x="99.5" y="-132.9" font-family="Helvetica,sans-Serif" font-size="11.00" fill="#000000">varchar[80]</text>
<polygon fill="none" stroke="#000000" points="10.5,-103.2 10.5,-125.2 96.5,-125.2 96.5,-103.2 10.5,-103.2"/>
<text text-anchor="start" x="30.5" y="-110.3" font-family="Helvetica,sans-Serif" font-size="11.00" fill="#000000">scope</text>
<polygon fill="none" stroke="#000000" points="96.5,-103.2 96.5,-125.2 163.5,-125.2 163.5,-103.2 96.5,-103.2"/>
<text text-anchor="start" x="99.5" y="-110.9" font-family="Helvetica,sans-Serif" font-size="11.00" fill="#000000">text[65535]</text>
<polygon fill="none" stroke="#000000" points="10.5,-81.2 10.5,-103.2 96.5,-103.2 96.5,-81.2 10.5,-81.2"/>
<text text-anchor="start" x="30.5" y="-88.3" font-family="Helvetica,sans-Serif" font-size="11.00" fill="#000000">revoked</text>
<polygon fill="none" stroke="#000000" points="96.5,-81.2 96.5,-103.2 163.5,-103.2 163.5,-81.2 96.5,-81.2"/>
<text text-anchor="start" x="99.5" y="-88.9" font-family="Helvetica,sans-Serif" font-size="11.00" fill="#000000">bit[1]</text>
<polygon fill="none" stroke="#000000" points="10.5,-59.2 10.5,-81.2 96.5,-81.2 96.5,-59.2 10.5,-59.2"/>
<text text-anchor="start" x="30.5" y="-66.3" font-family="Helvetica,sans-Serif" font-size="11.00" fill="#000000">context</text>
<polygon fill="none" stroke="#000000" points="96.5,-59.2 96.5,-81.2 163.5,-81.2 163.5,-59.2 96.5,-59.2"/>
<text text-anchor="start" x="99.5" y="-66.9" font-family="Helvetica,sans-Serif" font-size="11.00" fill="#000000">text[65535]</text>
<polygon fill="#ffffff" stroke="transparent" points="10.5,-40.2 10.5,-59.2 57.5,-59.2 57.5,-40.2 10.5,-40.2"/>
<polygon fill="none" stroke="#000000" points="10.5,-40.2 10.5,-59.2 57.5,-59.2 57.5,-40.2 10.5,-40.2"/>
<text text-anchor="start" x="13.5" y="-46.3" font-family="Helvetica,sans-Serif" font-size="11.00" fill="#000000">&lt; 0</text>
<polygon fill="#ffffff" stroke="transparent" points="57.5,-40.2 57.5,-59.2 96.5,-59.2 96.5,-40.2 57.5,-40.2"/>
<polygon fill="none" stroke="#000000" points="57.5,-40.2 57.5,-59.2 96.5,-59.2 96.5,-40.2 57.5,-40.2"/>
<text text-anchor="start" x="87.3862" y="-46.3" font-family="Helvetica,sans-Serif" font-size="11.00" fill="#000000"> &#160;</text>
<polygon fill="#ffffff" stroke="transparent" points="96.5,-40.2 96.5,-59.2 163.5,-59.2 163.5,-40.2 96.5,-40.2"/>
<polygon fill="none" stroke="#000000" points="96.5,-40.2 96.5,-59.2 163.5,-59.2 163.5,-40.2 96.5,-40.2"/>
<text text-anchor="start" x="144.9053" y="-46.3" font-family="Helvetica,sans-Serif" font-size="11.00" fill="#000000">0 &gt;</text>
<polygon fill="none" stroke="#000000" stroke-width="2" points="9,-39.2 9,-259.2 164,-259.2 164,-39.2 9,-39.2"/>
</a>
</g>
</g>
</g>
</svg>
