<?xml version="1.0" encoding="UTF-8" standalone="no"?>
<!DOCTYPE svg PUBLIC "-//W3C//DTD SVG 1.1//EN"
 "http://www.w3.org/Graphics/SVG/1.1/DTD/svg11.dtd">
<!-- Generated by graphviz version 2.40.1 (20161225.0304)
 -->
<!-- Title: oneDegreeRelationshipsDiagram Pages: 1 -->
<svg width="673pt" height="580pt"
 viewBox="0.00 0.00 673.00 580.20" xmlns="http://www.w3.org/2000/svg" xmlns:xlink="http://www.w3.org/1999/xlink">
<g id="graph0" class="graph" transform="scale(1 1) rotate(0) translate(4 576.2)">
<title>oneDegreeRelationshipsDiagram</title>
<polygon fill="#ffffff" stroke="transparent" points="-4,4 -4,-576.2 669,-576.2 669,4 -4,4"/>
<text text-anchor="middle" x="72.4936" y="-7.3" font-family="Helvetica,sans-Serif" font-size="11.00" fill="#000000">Generated by SchemaSpy</text>
<!-- ar_activity -->
<g id="node1" class="node">
<title>ar_activity</title>
<g id="a_node1"><a xlink:href="../../tables/ar_activity.html" xlink:title="ar_activity" target="_top">
<polygon fill="#ffffff" stroke="transparent" points="411,-38.2 411,-568.2 657,-568.2 657,-38.2 411,-38.2"/>
<polygon fill="#f5f5f5" stroke="transparent" points="413,-543.2 413,-566.2 655,-566.2 655,-543.2 413,-543.2"/>
<polygon fill="none" stroke="#000000" points="413,-543.2 413,-566.2 655,-566.2 655,-543.2 413,-543.2"/>
<text text-anchor="start" x="418" y="-551.8" font-family="Helvetica,sans-Serif" font-weight="bold" font-size="11.00" fill="#000000">ar_activity</text>
<text text-anchor="start" x="620.0437" y="-551.3" font-family="Helvetica,sans-Serif" font-size="11.00" fill="#000000">[table]</text>
<polygon fill="none" stroke="#000000" points="413,-521.2 413,-543.2 572,-543.2 572,-521.2 413,-521.2"/>
<image xlink:href="../../images/primaryKeys.png" width="11px" height="12px" preserveAspectRatio="xMinYMin meet" x="418" y="-538.2"/>
<text text-anchor="start" x="433" y="-528.3" font-family="Helvetica,sans-Serif" font-size="11.00" fill="#000000">pid</text>
<polygon fill="none" stroke="#000000" points="572,-521.2 572,-543.2 655,-543.2 655,-521.2 572,-521.2"/>
<text text-anchor="start" x="575" y="-528.9" font-family="Helvetica,sans-Serif" font-size="11.00" fill="#000000">int[10]</text>
<polygon fill="none" stroke="#000000" points="413,-499.2 413,-521.2 572,-521.2 572,-499.2 413,-499.2"/>
<image xlink:href="../../images/primaryKeys.png" width="11px" height="12px" preserveAspectRatio="xMinYMin meet" x="418" y="-516.2"/>
<text text-anchor="start" x="433" y="-506.3" font-family="Helvetica,sans-Serif" font-size="11.00" fill="#000000">encounter</text>
<polygon fill="none" stroke="#000000" points="572,-499.2 572,-521.2 655,-521.2 655,-499.2 572,-499.2"/>
<text text-anchor="start" x="575" y="-506.9" font-family="Helvetica,sans-Serif" font-size="11.00" fill="#000000">int[10]</text>
<polygon fill="none" stroke="#000000" points="413,-477.2 413,-499.2 572,-499.2 572,-477.2 413,-477.2"/>
<image xlink:href="../../images/primaryKeys.png" width="11px" height="12px" preserveAspectRatio="xMinYMin meet" x="418" y="-494.2"/>
<text text-anchor="start" x="433" y="-484.3" font-family="Helvetica,sans-Serif" font-size="11.00" fill="#000000">sequence_no</text>
<polygon fill="none" stroke="#000000" points="572,-477.2 572,-499.2 655,-499.2 655,-477.2 572,-477.2"/>
<text text-anchor="start" x="574.6783" y="-484.9" font-family="Helvetica,sans-Serif" font-size="11.00" fill="#000000">int unsigned[10]</text>
<polygon fill="none" stroke="#000000" points="413,-455.2 413,-477.2 572,-477.2 572,-455.2 413,-455.2"/>
<text text-anchor="start" x="433" y="-462.3" font-family="Helvetica,sans-Serif" font-size="11.00" fill="#000000">code_type</text>
<polygon fill="none" stroke="#000000" points="572,-455.2 572,-477.2 655,-477.2 655,-455.2 572,-455.2"/>
<text text-anchor="start" x="575" y="-462.9" font-family="Helvetica,sans-Serif" font-size="11.00" fill="#000000">varchar[12]</text>
<polygon fill="none" stroke="#000000" points="413,-433.2 413,-455.2 572,-455.2 572,-433.2 413,-433.2"/>
<text text-anchor="start" x="433" y="-440.3" font-family="Helvetica,sans-Serif" font-size="11.00" fill="#000000">code</text>
<polygon fill="none" stroke="#000000" points="572,-433.2 572,-455.2 655,-455.2 655,-433.2 572,-433.2"/>
<text text-anchor="start" x="575" y="-440.9" font-family="Helvetica,sans-Serif" font-size="11.00" fill="#000000">varchar[20]</text>
<polygon fill="none" stroke="#000000" points="413,-411.2 413,-433.2 572,-433.2 572,-411.2 413,-411.2"/>
<text text-anchor="start" x="433" y="-418.3" font-family="Helvetica,sans-Serif" font-size="11.00" fill="#000000">fee</text>
<polygon fill="none" stroke="#000000" points="572,-411.2 572,-433.2 655,-433.2 655,-411.2 572,-411.2"/>
<text text-anchor="start" x="575" y="-418.9" font-family="Helvetica,sans-Serif" font-size="11.00" fill="#000000">unknown[0]</text>
<polygon fill="none" stroke="#000000" points="413,-389.2 413,-411.2 572,-411.2 572,-389.2 413,-389.2"/>
<text text-anchor="start" x="433" y="-396.3" font-family="Helvetica,sans-Serif" font-size="11.00" fill="#000000">modifier</text>
<polygon fill="none" stroke="#000000" points="572,-389.2 572,-411.2 655,-411.2 655,-389.2 572,-389.2"/>
<text text-anchor="start" x="575" y="-396.9" font-family="Helvetica,sans-Serif" font-size="11.00" fill="#000000">varchar[12]</text>
<polygon fill="none" stroke="#000000" points="413,-367.2 413,-389.2 572,-389.2 572,-367.2 413,-367.2"/>
<text text-anchor="start" x="433" y="-374.3" font-family="Helvetica,sans-Serif" font-size="11.00" fill="#000000">payer_type</text>
<polygon fill="none" stroke="#000000" points="572,-367.2 572,-389.2 655,-389.2 655,-367.2 572,-367.2"/>
<text text-anchor="start" x="575" y="-374.9" font-family="Helvetica,sans-Serif" font-size="11.00" fill="#000000">int[10]</text>
<polygon fill="none" stroke="#000000" points="413,-345.2 413,-367.2 572,-367.2 572,-345.2 413,-345.2"/>
<text text-anchor="start" x="433" y="-352.3" font-family="Helvetica,sans-Serif" font-size="11.00" fill="#000000">post_time</text>
<polygon fill="none" stroke="#000000" points="572,-345.2 572,-367.2 655,-367.2 655,-345.2 572,-345.2"/>
<text text-anchor="start" x="575" y="-352.9" font-family="Helvetica,sans-Serif" font-size="11.00" fill="#000000">datetime[19]</text>
<polygon fill="none" stroke="#000000" points="413,-323.2 413,-345.2 572,-345.2 572,-323.2 413,-323.2"/>
<text text-anchor="start" x="433" y="-330.3" font-family="Helvetica,sans-Serif" font-size="11.00" fill="#000000">post_user</text>
<polygon fill="none" stroke="#000000" points="572,-323.2 572,-345.2 655,-345.2 655,-323.2 572,-323.2"/>
<text text-anchor="start" x="575" y="-330.9" font-family="Helvetica,sans-Serif" font-size="11.00" fill="#000000">int[10]</text>
<polygon fill="#ffffff" stroke="transparent" points="413,-301.2 413,-323.2 572,-323.2 572,-301.2 413,-301.2"/>
<polygon fill="none" stroke="#000000" points="413,-301.2 413,-323.2 572,-323.2 572,-301.2 413,-301.2"/>
<image xlink:href="../../images/foreignKeys.png" width="11px" height="12px" preserveAspectRatio="xMinYMin meet" x="418" y="-318.2"/>
<text text-anchor="start" x="433" y="-308.3" font-family="Helvetica,sans-Serif" font-size="11.00" fill="#000000">session_id</text>
<polygon fill="none" stroke="#000000" points="572,-301.2 572,-323.2 655,-323.2 655,-301.2 572,-301.2"/>
<text text-anchor="start" x="574.6783" y="-308.9" font-family="Helvetica,sans-Serif" font-size="11.00" fill="#000000">int unsigned[10]</text>
<polygon fill="none" stroke="#000000" points="413,-279.2 413,-301.2 572,-301.2 572,-279.2 413,-279.2"/>
<text text-anchor="start" x="433" y="-286.3" font-family="Helvetica,sans-Serif" font-size="11.00" fill="#000000">memo</text>
<polygon fill="none" stroke="#000000" points="572,-279.2 572,-301.2 655,-301.2 655,-279.2 572,-279.2"/>
<text text-anchor="start" x="575" y="-286.9" font-family="Helvetica,sans-Serif" font-size="11.00" fill="#000000">varchar[255]</text>
<polygon fill="none" stroke="#000000" points="413,-257.2 413,-279.2 572,-279.2 572,-257.2 413,-257.2"/>
<text text-anchor="start" x="433" y="-264.3" font-family="Helvetica,sans-Serif" font-size="11.00" fill="#000000">pay_amount</text>
<polygon fill="none" stroke="#000000" points="572,-257.2 572,-279.2 655,-279.2 655,-257.2 572,-257.2"/>
<text text-anchor="start" x="575" y="-264.9" font-family="Helvetica,sans-Serif" font-size="11.00" fill="#000000">decimal[12,2]</text>
<polygon fill="none" stroke="#000000" points="413,-235.2 413,-257.2 572,-257.2 572,-235.2 413,-235.2"/>
<text text-anchor="start" x="433" y="-242.3" font-family="Helvetica,sans-Serif" font-size="11.00" fill="#000000">adj_amount</text>
<polygon fill="none" stroke="#000000" points="572,-235.2 572,-257.2 655,-257.2 655,-235.2 572,-235.2"/>
<text text-anchor="start" x="575" y="-242.9" font-family="Helvetica,sans-Serif" font-size="11.00" fill="#000000">decimal[12,2]</text>
<polygon fill="none" stroke="#000000" points="413,-213.2 413,-235.2 572,-235.2 572,-213.2 413,-213.2"/>
<text text-anchor="start" x="433" y="-220.3" font-family="Helvetica,sans-Serif" font-size="11.00" fill="#000000">modified_time</text>
<polygon fill="none" stroke="#000000" points="572,-213.2 572,-235.2 655,-235.2 655,-213.2 572,-213.2"/>
<text text-anchor="start" x="575" y="-220.9" font-family="Helvetica,sans-Serif" font-size="11.00" fill="#000000">datetime[19]</text>
<polygon fill="none" stroke="#000000" points="413,-191.2 413,-213.2 572,-213.2 572,-191.2 413,-191.2"/>
<text text-anchor="start" x="433" y="-198.3" font-family="Helvetica,sans-Serif" font-size="11.00" fill="#000000">follow_up</text>
<polygon fill="none" stroke="#000000" points="572,-191.2 572,-213.2 655,-213.2 655,-191.2 572,-191.2"/>
<text text-anchor="start" x="575" y="-198.9" font-family="Helvetica,sans-Serif" font-size="11.00" fill="#000000">char[1]</text>
<polygon fill="none" stroke="#000000" points="413,-169.2 413,-191.2 572,-191.2 572,-169.2 413,-169.2"/>
<text text-anchor="start" x="433" y="-176.3" font-family="Helvetica,sans-Serif" font-size="11.00" fill="#000000">follow_up_note</text>
<polygon fill="none" stroke="#000000" points="572,-169.2 572,-191.2 655,-191.2 655,-169.2 572,-169.2"/>
<text text-anchor="start" x="575" y="-176.9" font-family="Helvetica,sans-Serif" font-size="11.00" fill="#000000">text[65535]</text>
<polygon fill="none" stroke="#000000" points="413,-147.2 413,-169.2 572,-169.2 572,-147.2 413,-147.2"/>
<text text-anchor="start" x="433" y="-154.3" font-family="Helvetica,sans-Serif" font-size="11.00" fill="#000000">account_code</text>
<polygon fill="none" stroke="#000000" points="572,-147.2 572,-169.2 655,-169.2 655,-147.2 572,-147.2"/>
<text text-anchor="start" x="575" y="-154.9" font-family="Helvetica,sans-Serif" font-size="11.00" fill="#000000">varchar[15]</text>
<polygon fill="none" stroke="#000000" points="413,-125.2 413,-147.2 572,-147.2 572,-125.2 413,-125.2"/>
<text text-anchor="start" x="433" y="-132.3" font-family="Helvetica,sans-Serif" font-size="11.00" fill="#000000">reason_code</text>
<polygon fill="none" stroke="#000000" points="572,-125.2 572,-147.2 655,-147.2 655,-125.2 572,-125.2"/>
<text text-anchor="start" x="575" y="-132.9" font-family="Helvetica,sans-Serif" font-size="11.00" fill="#000000">varchar[255]</text>
<polygon fill="none" stroke="#000000" points="413,-103.2 413,-125.2 572,-125.2 572,-103.2 413,-103.2"/>
<text text-anchor="start" x="433" y="-110.3" font-family="Helvetica,sans-Serif" font-size="11.00" fill="#000000">deleted</text>
<polygon fill="none" stroke="#000000" points="572,-103.2 572,-125.2 655,-125.2 655,-103.2 572,-103.2"/>
<text text-anchor="start" x="575" y="-110.9" font-family="Helvetica,sans-Serif" font-size="11.00" fill="#000000">datetime[19]</text>
<polygon fill="none" stroke="#000000" points="413,-81.2 413,-103.2 572,-103.2 572,-81.2 413,-81.2"/>
<text text-anchor="start" x="433" y="-88.3" font-family="Helvetica,sans-Serif" font-size="11.00" fill="#000000">post_date</text>
<polygon fill="none" stroke="#000000" points="572,-81.2 572,-103.2 655,-103.2 655,-81.2 572,-81.2"/>
<text text-anchor="start" x="575" y="-88.9" font-family="Helvetica,sans-Serif" font-size="11.00" fill="#000000">date[10]</text>
<polygon fill="none" stroke="#000000" points="413,-59.2 413,-81.2 572,-81.2 572,-59.2 413,-59.2"/>
<text text-anchor="start" x="433" y="-66.3" font-family="Helvetica,sans-Serif" font-size="11.00" fill="#000000">payer_claim_number</text>
<polygon fill="none" stroke="#000000" points="572,-59.2 572,-81.2 655,-81.2 655,-59.2 572,-59.2"/>
<text text-anchor="start" x="575" y="-66.9" font-family="Helvetica,sans-Serif" font-size="11.00" fill="#000000">varchar[30]</text>
<polygon fill="#ffffff" stroke="transparent" points="413,-40.2 413,-59.2 497,-59.2 497,-40.2 413,-40.2"/>
<polygon fill="none" stroke="#000000" points="413,-40.2 413,-59.2 497,-59.2 497,-40.2 413,-40.2"/>
<text text-anchor="start" x="416" y="-46.3" font-family="Helvetica,sans-Serif" font-size="11.00" fill="#000000">&lt; 2</text>
<polygon fill="#ffffff" stroke="transparent" points="497,-40.2 497,-59.2 572,-59.2 572,-40.2 497,-40.2"/>
<polygon fill="none" stroke="#000000" points="497,-40.2 497,-59.2 572,-59.2 572,-40.2 497,-40.2"/>
<text text-anchor="start" x="562.8862" y="-46.3" font-family="Helvetica,sans-Serif" font-size="11.00" fill="#000000"> &#160;</text>
<polygon fill="#ffffff" stroke="transparent" points="572,-40.2 572,-59.2 655,-59.2 655,-40.2 572,-40.2"/>
<polygon fill="none" stroke="#000000" points="572,-40.2 572,-59.2 655,-59.2 655,-40.2 572,-40.2"/>
<text text-anchor="start" x="636.4053" y="-46.3" font-family="Helvetica,sans-Serif" font-size="11.00" fill="#000000">0 &gt;</text>
<polygon fill="none" stroke="#000000" stroke-width="2" points="412,-39.2 412,-567.2 656,-567.2 656,-39.2 412,-39.2"/>
</a>
</g>
</g>
<!-- patient_data -->
<g id="node2" class="node">
<title>patient_data</title>
<g id="a_node2"><a xlink:href="../../tables/patient_data.html" xlink:title="patient_data" target="_top">
<polygon fill="#ffffff" stroke="transparent" points="8,-294.7 8,-531.7 175,-531.7 175,-294.7 8,-294.7"/>
<polygon fill="#f5f5f5" stroke="transparent" points="8.5,-508.2 8.5,-531.2 175.5,-531.2 175.5,-508.2 8.5,-508.2"/>
<polygon fill="none" stroke="#000000" points="8.5,-508.2 8.5,-531.2 175.5,-531.2 175.5,-508.2 8.5,-508.2"/>
<text text-anchor="start" x="13.5" y="-516.8" font-family="Helvetica,sans-Serif" font-weight="bold" font-size="11.00" fill="#000000">patient_data</text>
<text text-anchor="start" x="140.5437" y="-516.3" font-family="Helvetica,sans-Serif" font-size="11.00" fill="#000000">[table]</text>
<polygon fill="#ffffff" stroke="transparent" points="8.5,-486.2 8.5,-508.2 175.5,-508.2 175.5,-486.2 8.5,-486.2"/>
<polygon fill="none" stroke="#000000" points="8.5,-486.2 8.5,-508.2 175.5,-508.2 175.5,-486.2 8.5,-486.2"/>
<text text-anchor="start" x="28.5" y="-493.3" font-family="Helvetica,sans-Serif" font-size="11.00" fill="#000000">id</text>
<polygon fill="#ffffff" stroke="transparent" points="8.5,-464.2 8.5,-486.2 175.5,-486.2 175.5,-464.2 8.5,-464.2"/>
<polygon fill="none" stroke="#000000" points="8.5,-464.2 8.5,-486.2 175.5,-486.2 175.5,-464.2 8.5,-464.2"/>
<text text-anchor="start" x="28.5" y="-471.3" font-family="Helvetica,sans-Serif" font-size="11.00" fill="#000000">uuid</text>
<polygon fill="none" stroke="#000000" points="8.5,-442.2 8.5,-464.2 175.5,-464.2 175.5,-442.2 8.5,-442.2"/>
<image xlink:href="../../images/foreignKeys.png" width="11px" height="12px" preserveAspectRatio="xMinYMin meet" x="13.5" y="-459.2"/>
<text text-anchor="start" x="28.5" y="-449.3" font-family="Helvetica,sans-Serif" font-size="11.00" fill="#000000">pharmacy_id</text>
<polygon fill="none" stroke="#000000" points="8.5,-420.2 8.5,-442.2 175.5,-442.2 175.5,-420.2 8.5,-420.2"/>
<image xlink:href="../../images/foreignKeys.png" width="11px" height="12px" preserveAspectRatio="xMinYMin meet" x="13.5" y="-437.2"/>
<text text-anchor="start" x="28.5" y="-427.3" font-family="Helvetica,sans-Serif" font-size="11.00" fill="#000000">providerID</text>
<polygon fill="none" stroke="#000000" points="8.5,-398.2 8.5,-420.2 175.5,-420.2 175.5,-398.2 8.5,-398.2"/>
<image xlink:href="../../images/foreignKeys.png" width="11px" height="12px" preserveAspectRatio="xMinYMin meet" x="13.5" y="-415.2"/>
<text text-anchor="start" x="28.5" y="-405.3" font-family="Helvetica,sans-Serif" font-size="11.00" fill="#000000">ref_providerID</text>
<polygon fill="none" stroke="#000000" points="8.5,-376.2 8.5,-398.2 175.5,-398.2 175.5,-376.2 8.5,-376.2"/>
<image xlink:href="../../images/primaryKeys.png" width="11px" height="12px" preserveAspectRatio="xMinYMin meet" x="13.5" y="-393.2"/>
<text text-anchor="start" x="28.5" y="-383.3" font-family="Helvetica,sans-Serif" font-size="11.00" fill="#000000">pid</text>
<polygon fill="none" stroke="#000000" points="8.5,-354.2 8.5,-376.2 175.5,-376.2 175.5,-354.2 8.5,-354.2"/>
<image xlink:href="../../images/foreignKeys.png" width="11px" height="12px" preserveAspectRatio="xMinYMin meet" x="13.5" y="-371.2"/>
<text text-anchor="start" x="28.5" y="-361.3" font-family="Helvetica,sans-Serif" font-size="11.00" fill="#000000">created_by</text>
<polygon fill="none" stroke="#000000" points="8.5,-332.2 8.5,-354.2 175.5,-354.2 175.5,-332.2 8.5,-332.2"/>
<image xlink:href="../../images/foreignKeys.png" width="11px" height="12px" preserveAspectRatio="xMinYMin meet" x="13.5" y="-349.2"/>
<text text-anchor="start" x="28.5" y="-339.3" font-family="Helvetica,sans-Serif" font-size="11.00" fill="#000000">updated_by</text>
<polygon fill="none" stroke="#000000" points="8.5,-313.2 8.5,-332.2 175.5,-332.2 175.5,-313.2 8.5,-313.2"/>
<text text-anchor="start" x="11.5" y="-319.3" font-family="Helvetica,sans-Serif" font-size="11.00" fill="#000000">...</text>
<polygon fill="#ffffff" stroke="transparent" points="8.5,-294.2 8.5,-313.2 82.5,-313.2 82.5,-294.2 8.5,-294.2"/>
<polygon fill="none" stroke="#000000" points="8.5,-294.2 8.5,-313.2 82.5,-313.2 82.5,-294.2 8.5,-294.2"/>
<text text-anchor="start" x="11.5" y="-300.3" font-family="Helvetica,sans-Serif" font-size="11.00" fill="#000000">&lt; 5</text>
<polygon fill="#ffffff" stroke="transparent" points="82.5,-294.2 82.5,-313.2 121.5,-313.2 121.5,-294.2 82.5,-294.2"/>
<polygon fill="none" stroke="#000000" points="82.5,-294.2 82.5,-313.2 121.5,-313.2 121.5,-294.2 82.5,-294.2"/>
<text text-anchor="start" x="112.3862" y="-300.3" font-family="Helvetica,sans-Serif" font-size="11.00" fill="#000000"> &#160;</text>
<polygon fill="#ffffff" stroke="transparent" points="121.5,-294.2 121.5,-313.2 175.5,-313.2 175.5,-294.2 121.5,-294.2"/>
<polygon fill="none" stroke="#000000" points="121.5,-294.2 121.5,-313.2 175.5,-313.2 175.5,-294.2 121.5,-294.2"/>
<text text-anchor="start" x="150.7904" y="-300.3" font-family="Helvetica,sans-Serif" font-size="11.00" fill="#000000">68 &gt;</text>
</a>
</g>
</g>
<!-- ar_activity&#45;&gt;patient_data -->
<g id="edge1" class="edge">
<title>ar_activity:w&#45;&gt;patient_data:e</title>
<path fill="none" stroke="#000000" d="M398.4809,-531.9227C313.2133,-528.543 288.2668,-494.4138 216,-437.2 193.5785,-419.4489 204.0977,-387.2 175.5,-387.2"/>
<polygon fill="#000000" stroke="#000000" points="405.0015,-532.0472 412.9312,-535.7993 409.0007,-532.1236 413,-532.2 413,-532.2 413,-532.2 409.0007,-532.1236 413.0688,-528.6007 405.0015,-532.0472 405.0015,-532.0472"/>
<ellipse fill="none" stroke="#000000" cx="401.802" cy="-531.986" rx="3.2" ry="3.2"/>
</g>
<!-- ar_session -->
<g id="node3" class="node">
<title>ar_session</title>
<g id="a_node3"><a xlink:href="../../tables/ar_session.html" xlink:title="ar_session" target="_top">
<polygon fill="#ffffff" stroke="transparent" points="224,-233.7 224,-426.7 362,-426.7 362,-233.7 224,-233.7"/>
<polygon fill="#f5f5f5" stroke="transparent" points="224,-403.2 224,-426.2 362,-426.2 362,-403.2 224,-403.2"/>
<polygon fill="none" stroke="#000000" points="224,-403.2 224,-426.2 362,-426.2 362,-403.2 224,-403.2"/>
<text text-anchor="start" x="229" y="-411.8" font-family="Helvetica,sans-Serif" font-weight="bold" font-size="11.00" fill="#000000">ar_session</text>
<text text-anchor="start" x="327.0437" y="-411.3" font-family="Helvetica,sans-Serif" font-size="11.00" fill="#000000">[table]</text>
<polygon fill="none" stroke="#000000" points="224,-381.2 224,-403.2 362,-403.2 362,-381.2 224,-381.2"/>
<image xlink:href="../../images/primaryKeys.png" width="11px" height="12px" preserveAspectRatio="xMinYMin meet" x="229" y="-398.2"/>
<text text-anchor="start" x="244" y="-388.3" font-family="Helvetica,sans-Serif" font-size="11.00" fill="#000000">session_id</text>
<polygon fill="none" stroke="#000000" points="224,-359.2 224,-381.2 362,-381.2 362,-359.2 224,-359.2"/>
<image xlink:href="../../images/foreignKeys.png" width="11px" height="12px" preserveAspectRatio="xMinYMin meet" x="229" y="-376.2"/>
<text text-anchor="start" x="244" y="-366.3" font-family="Helvetica,sans-Serif" font-size="11.00" fill="#000000">payer_id</text>
<polygon fill="#ffffff" stroke="transparent" points="224,-337.2 224,-359.2 362,-359.2 362,-337.2 224,-337.2"/>
<polygon fill="none" stroke="#000000" points="224,-337.2 224,-359.2 362,-359.2 362,-337.2 224,-337.2"/>
<text text-anchor="start" x="244" y="-344.3" font-family="Helvetica,sans-Serif" font-size="11.00" fill="#000000">user_id</text>
<polygon fill="#ffffff" stroke="transparent" points="224,-315.2 224,-337.2 362,-337.2 362,-315.2 224,-315.2"/>
<polygon fill="none" stroke="#000000" points="224,-315.2 224,-337.2 362,-337.2 362,-315.2 224,-315.2"/>
<text text-anchor="start" x="244" y="-322.3" font-family="Helvetica,sans-Serif" font-size="11.00" fill="#000000">closed</text>
<polygon fill="#ffffff" stroke="transparent" points="224,-293.2 224,-315.2 362,-315.2 362,-293.2 224,-293.2"/>
<polygon fill="none" stroke="#000000" points="224,-293.2 224,-315.2 362,-315.2 362,-293.2 224,-293.2"/>
<text text-anchor="start" x="244" y="-300.3" font-family="Helvetica,sans-Serif" font-size="11.00" fill="#000000">deposit_date</text>
<polygon fill="none" stroke="#000000" points="224,-271.2 224,-293.2 362,-293.2 362,-271.2 224,-271.2"/>
<image xlink:href="../../images/foreignKeys.png" width="11px" height="12px" preserveAspectRatio="xMinYMin meet" x="229" y="-288.2"/>
<text text-anchor="start" x="244" y="-278.3" font-family="Helvetica,sans-Serif" font-size="11.00" fill="#000000">patient_id</text>
<polygon fill="none" stroke="#000000" points="224,-252.2 224,-271.2 362,-271.2 362,-252.2 224,-252.2"/>
<text text-anchor="start" x="227" y="-258.3" font-family="Helvetica,sans-Serif" font-size="11.00" fill="#000000">...</text>
<polygon fill="#ffffff" stroke="transparent" points="224,-233.2 224,-252.2 287,-252.2 287,-233.2 224,-233.2"/>
<polygon fill="none" stroke="#000000" points="224,-233.2 224,-252.2 287,-252.2 287,-233.2 224,-233.2"/>
<text text-anchor="start" x="227" y="-239.3" font-family="Helvetica,sans-Serif" font-size="11.00" fill="#000000">&lt; 2</text>
<polygon fill="#ffffff" stroke="transparent" points="287,-233.2 287,-252.2 320,-252.2 320,-233.2 287,-233.2"/>
<polygon fill="none" stroke="#000000" points="287,-233.2 287,-252.2 320,-252.2 320,-233.2 287,-233.2"/>
<text text-anchor="start" x="310.8862" y="-239.3" font-family="Helvetica,sans-Serif" font-size="11.00" fill="#000000"> &#160;</text>
<polygon fill="#ffffff" stroke="transparent" points="320,-233.2 320,-252.2 362,-252.2 362,-233.2 320,-233.2"/>
<polygon fill="none" stroke="#000000" points="320,-233.2 320,-252.2 362,-252.2 362,-233.2 320,-233.2"/>
<text text-anchor="start" x="343.4053" y="-239.3" font-family="Helvetica,sans-Serif" font-size="11.00" fill="#000000">1 &gt;</text>
</a>
</g>
</g>
<!-- ar_activity&#45;&gt;ar_session -->
<g id="edge2" class="edge">
<title>ar_activity:w&#45;&gt;ar_session:e</title>
<path fill="none" stroke="#000000" d="M398.9925,-316.7304C378.8919,-333.6539 398.0717,-392.2 362,-392.2"/>
<polygon fill="#000000" stroke="#000000" points="405.3882,-314.6619 414.1078,-315.6253 409.1941,-313.4309 413,-312.2 413,-312.2 413,-312.2 409.1941,-313.4309 411.8922,-308.7747 405.3882,-314.6619 405.3882,-314.6619"/>
<ellipse fill="none" stroke="#000000" cx="402.3435" cy="-315.6466" rx="3.2" ry="3.2"/>
</g>
<!-- ar_session&#45;&gt;patient_data -->
<g id="edge3" class="edge">
<title>ar_session:w&#45;&gt;patient_data:e</title>
<path fill="none" stroke="#000000" d="M209.9431,-286.1879C183.8724,-305.3674 220.8805,-387.2 175.5,-387.2"/>
<polygon fill="#000000" stroke="#000000" points="216.3037,-284.3835 224.9826,-285.6633 220.1519,-283.2917 224,-282.2 224,-282.2 224,-282.2 220.1519,-283.2917 223.0174,-278.7367 216.3037,-284.3835 216.3037,-284.3835"/>
<ellipse fill="none" stroke="#000000" cx="213.2252" cy="-285.2568" rx="3.2" ry="3.2"/>
</g>
</g>
</svg>
