<?xml version="1.0" encoding="UTF-8" standalone="no"?>
<!DOCTYPE svg PUBLIC "-//W3C//DTD SVG 1.1//EN"
 "http://www.w3.org/Graphics/SVG/1.1/DTD/svg11.dtd">
<!-- Generated by graphviz version 2.40.1 (20161225.0304)
 -->
<!-- Title: oneDegreeRelationshipsDiagram Pages: 1 -->
<svg width="266pt" height="250pt"
 viewBox="0.00 0.00 266.00 250.20" xmlns="http://www.w3.org/2000/svg" xmlns:xlink="http://www.w3.org/1999/xlink">
<g id="graph0" class="graph" transform="scale(1 1) rotate(0) translate(4 246.2)">
<title>oneDegreeRelationshipsDiagram</title>
<polygon fill="#ffffff" stroke="transparent" points="-4,4 -4,-246.2 262,-246.2 262,4 -4,4"/>
<text text-anchor="middle" x="72.4936" y="-7.3" font-family="Helvetica,sans-Serif" font-size="11.00" fill="#000000">Generated by SchemaSpy</text>
<!-- batchcom -->
<g id="node1" class="node">
<title>batchcom</title>
<g id="a_node1"><a xlink:href="../../tables/batchcom.html" xlink:title="batchcom" target="_top">
<polygon fill="#ffffff" stroke="transparent" points="8,-38.2 8,-238.2 250,-238.2 250,-38.2 8,-38.2"/>
<polygon fill="#f5f5f5" stroke="transparent" points="10,-213.2 10,-236.2 248,-236.2 248,-213.2 10,-213.2"/>
<polygon fill="none" stroke="#000000" points="10,-213.2 10,-236.2 248,-236.2 248,-213.2 10,-213.2"/>
<text text-anchor="start" x="15" y="-221.8" font-family="Helvetica,sans-Serif" font-weight="bold" font-size="11.00" fill="#000000">batchcom</text>
<text text-anchor="start" x="213.0437" y="-221.3" font-family="Helvetica,sans-Serif" font-size="11.00" fill="#000000">[table]</text>
<polygon fill="none" stroke="#000000" points="10,-191.2 10,-213.2 131,-213.2 131,-191.2 10,-191.2"/>
<image xlink:href="../../images/primaryKeys.png" width="11px" height="12px" preserveAspectRatio="xMinYMin meet" x="15" y="-208.2"/>
<text text-anchor="start" x="30" y="-198.3" font-family="Helvetica,sans-Serif" font-size="11.00" fill="#000000">id</text>
<polygon fill="none" stroke="#000000" points="131,-191.2 131,-213.2 248,-213.2 248,-191.2 131,-191.2"/>
<text text-anchor="start" x="134" y="-198.9" font-family="Helvetica,sans-Serif" font-size="11.00" fill="#000000">bigint[19]</text>
<polygon fill="none" stroke="#000000" points="10,-169.2 10,-191.2 131,-191.2 131,-169.2 10,-169.2"/>
<text text-anchor="start" x="30" y="-176.3" font-family="Helvetica,sans-Serif" font-size="11.00" fill="#000000">patient_id</text>
<polygon fill="none" stroke="#000000" points="131,-169.2 131,-191.2 248,-191.2 248,-169.2 131,-169.2"/>
<text text-anchor="start" x="134" y="-176.9" font-family="Helvetica,sans-Serif" font-size="11.00" fill="#000000">bigint[19]</text>
<polygon fill="none" stroke="#000000" points="10,-147.2 10,-169.2 131,-169.2 131,-147.2 10,-147.2"/>
<text text-anchor="start" x="30" y="-154.3" font-family="Helvetica,sans-Serif" font-size="11.00" fill="#000000">sent_by</text>
<polygon fill="none" stroke="#000000" points="131,-147.2 131,-169.2 248,-169.2 248,-147.2 131,-147.2"/>
<text text-anchor="start" x="134" y="-154.9" font-family="Helvetica,sans-Serif" font-size="11.00" fill="#000000">bigint[19]</text>
<polygon fill="none" stroke="#000000" points="10,-125.2 10,-147.2 131,-147.2 131,-125.2 10,-125.2"/>
<text text-anchor="start" x="30" y="-132.3" font-family="Helvetica,sans-Serif" font-size="11.00" fill="#000000">msg_type</text>
<polygon fill="none" stroke="#000000" points="131,-125.2 131,-147.2 248,-147.2 248,-125.2 131,-125.2"/>
<text text-anchor="start" x="134" y="-132.9" font-family="Helvetica,sans-Serif" font-size="11.00" fill="#000000">varchar[60]</text>
<polygon fill="none" stroke="#000000" points="10,-103.2 10,-125.2 131,-125.2 131,-103.2 10,-103.2"/>
<text text-anchor="start" x="30" y="-110.3" font-family="Helvetica,sans-Serif" font-size="11.00" fill="#000000">msg_subject</text>
<polygon fill="none" stroke="#000000" points="131,-103.2 131,-125.2 248,-125.2 248,-103.2 131,-103.2"/>
<text text-anchor="start" x="134" y="-110.9" font-family="Helvetica,sans-Serif" font-size="11.00" fill="#000000">varchar[255]</text>
<polygon fill="none" stroke="#000000" points="10,-81.2 10,-103.2 131,-103.2 131,-81.2 10,-81.2"/>
<text text-anchor="start" x="30" y="-88.3" font-family="Helvetica,sans-Serif" font-size="11.00" fill="#000000">msg_text</text>
<polygon fill="none" stroke="#000000" points="131,-81.2 131,-103.2 248,-103.2 248,-81.2 131,-81.2"/>
<text text-anchor="start" x="133.5645" y="-88.9" font-family="Helvetica,sans-Serif" font-size="11.00" fill="#000000">mediumtext[16777215]</text>
<polygon fill="none" stroke="#000000" points="10,-59.2 10,-81.2 131,-81.2 131,-59.2 10,-59.2"/>
<text text-anchor="start" x="30" y="-66.3" font-family="Helvetica,sans-Serif" font-size="11.00" fill="#000000">msg_date_sent</text>
<polygon fill="none" stroke="#000000" points="131,-59.2 131,-81.2 248,-81.2 248,-59.2 131,-59.2"/>
<text text-anchor="start" x="134" y="-66.9" font-family="Helvetica,sans-Serif" font-size="11.00" fill="#000000">datetime[19]</text>
<polygon fill="#ffffff" stroke="transparent" points="10,-40.2 10,-59.2 75,-59.2 75,-40.2 10,-40.2"/>
<polygon fill="none" stroke="#000000" points="10,-40.2 10,-59.2 75,-59.2 75,-40.2 10,-40.2"/>
<text text-anchor="start" x="13" y="-46.3" font-family="Helvetica,sans-Serif" font-size="11.00" fill="#000000">&lt; 0</text>
<polygon fill="#ffffff" stroke="transparent" points="75,-40.2 75,-59.2 131,-59.2 131,-40.2 75,-40.2"/>
<polygon fill="none" stroke="#000000" points="75,-40.2 75,-59.2 131,-59.2 131,-40.2 75,-40.2"/>
<text text-anchor="start" x="121.8862" y="-46.3" font-family="Helvetica,sans-Serif" font-size="11.00" fill="#000000"> &#160;</text>
<polygon fill="#ffffff" stroke="transparent" points="131,-40.2 131,-59.2 248,-59.2 248,-40.2 131,-40.2"/>
<polygon fill="none" stroke="#000000" points="131,-40.2 131,-59.2 248,-59.2 248,-40.2 131,-40.2"/>
<text text-anchor="start" x="229.4053" y="-46.3" font-family="Helvetica,sans-Serif" font-size="11.00" fill="#000000">0 &gt;</text>
<polygon fill="none" stroke="#000000" stroke-width="2" points="9,-39.2 9,-237.2 249,-237.2 249,-39.2 9,-39.2"/>
</a>
</g>
</g>
</g>
</svg>
