<?xml version="1.0" encoding="UTF-8" standalone="no"?>
<!DOCTYPE svg PUBLIC "-//W3C//DTD SVG 1.1//EN"
 "http://www.w3.org/Graphics/SVG/1.1/DTD/svg11.dtd">
<!-- Generated by graphviz version 2.40.1 (20161225.0304)
 -->
<!-- Title: oneDegreeRelationshipsDiagram Pages: 1 -->
<svg width="255pt" height="140pt"
 viewBox="0.00 0.00 255.00 140.20" xmlns="http://www.w3.org/2000/svg" xmlns:xlink="http://www.w3.org/1999/xlink">
<g id="graph0" class="graph" transform="scale(1 1) rotate(0) translate(4 136.2)">
<title>oneDegreeRelationshipsDiagram</title>
<polygon fill="#ffffff" stroke="transparent" points="-4,4 -4,-136.2 251,-136.2 251,4 -4,4"/>
<text text-anchor="middle" x="72.4936" y="-7.3" font-family="Helvetica,sans-Serif" font-size="11.00" fill="#000000">Generated by SchemaSpy</text>
<!-- categories_to_documents -->
<g id="node1" class="node">
<title>categories_to_documents</title>
<g id="a_node1"><a xlink:href="../../tables/categories_to_documents.html" xlink:title="categories_to_documents" target="_top">
<polygon fill="#ffffff" stroke="transparent" points="8,-38.2 8,-128.2 239,-128.2 239,-38.2 8,-38.2"/>
<polygon fill="#f5f5f5" stroke="transparent" points="10.5,-103.2 10.5,-126.2 237.5,-126.2 237.5,-103.2 10.5,-103.2"/>
<polygon fill="none" stroke="#000000" points="10.5,-103.2 10.5,-126.2 237.5,-126.2 237.5,-103.2 10.5,-103.2"/>
<text text-anchor="start" x="15.5" y="-111.8" font-family="Helvetica,sans-Serif" font-weight="bold" font-size="11.00" fill="#000000">categories_to_documents</text>
<text text-anchor="start" x="202.5437" y="-111.3" font-family="Helvetica,sans-Serif" font-size="11.00" fill="#000000">[table]</text>
<polygon fill="none" stroke="#000000" points="10.5,-81.2 10.5,-103.2 202.5,-103.2 202.5,-81.2 10.5,-81.2"/>
<image xlink:href="../../images/primaryKeys.png" width="11px" height="12px" preserveAspectRatio="xMinYMin meet" x="15.5" y="-98.2"/>
<text text-anchor="start" x="30.5" y="-88.3" font-family="Helvetica,sans-Serif" font-size="11.00" fill="#000000">category_id</text>
<polygon fill="none" stroke="#000000" points="202.5,-81.2 202.5,-103.2 237.5,-103.2 237.5,-81.2 202.5,-81.2"/>
<text text-anchor="start" x="205.0219" y="-88.9" font-family="Helvetica,sans-Serif" font-size="11.00" fill="#000000">int[10]</text>
<polygon fill="none" stroke="#000000" points="10.5,-59.2 10.5,-81.2 202.5,-81.2 202.5,-59.2 10.5,-59.2"/>
<image xlink:href="../../images/primaryKeys.png" width="11px" height="12px" preserveAspectRatio="xMinYMin meet" x="15.5" y="-76.2"/>
<text text-anchor="start" x="30.5" y="-66.3" font-family="Helvetica,sans-Serif" font-size="11.00" fill="#000000">document_id</text>
<polygon fill="none" stroke="#000000" points="202.5,-59.2 202.5,-81.2 237.5,-81.2 237.5,-59.2 202.5,-59.2"/>
<text text-anchor="start" x="205.0219" y="-66.9" font-family="Helvetica,sans-Serif" font-size="11.00" fill="#000000">int[10]</text>
<polygon fill="#ffffff" stroke="transparent" points="10.5,-40.2 10.5,-59.2 110.5,-59.2 110.5,-40.2 10.5,-40.2"/>
<polygon fill="none" stroke="#000000" points="10.5,-40.2 10.5,-59.2 110.5,-59.2 110.5,-40.2 10.5,-40.2"/>
<text text-anchor="start" x="13.5" y="-46.3" font-family="Helvetica,sans-Serif" font-size="11.00" fill="#000000">&lt; 0</text>
<polygon fill="#ffffff" stroke="transparent" points="110.5,-40.2 110.5,-59.2 202.5,-59.2 202.5,-40.2 110.5,-40.2"/>
<polygon fill="none" stroke="#000000" points="110.5,-40.2 110.5,-59.2 202.5,-59.2 202.5,-40.2 110.5,-40.2"/>
<text text-anchor="start" x="193.3862" y="-46.3" font-family="Helvetica,sans-Serif" font-size="11.00" fill="#000000"> &#160;</text>
<polygon fill="#ffffff" stroke="transparent" points="202.5,-40.2 202.5,-59.2 237.5,-59.2 237.5,-40.2 202.5,-40.2"/>
<polygon fill="none" stroke="#000000" points="202.5,-40.2 202.5,-59.2 237.5,-59.2 237.5,-40.2 202.5,-40.2"/>
<text text-anchor="start" x="218.9053" y="-46.3" font-family="Helvetica,sans-Serif" font-size="11.00" fill="#000000">0 &gt;</text>
<polygon fill="none" stroke="#000000" stroke-width="2" points="9,-39.2 9,-127.2 238,-127.2 238,-39.2 9,-39.2"/>
</a>
</g>
</g>
</g>
</svg>
