<?xml version="1.0" encoding="UTF-8" standalone="no"?>
<!DOCTYPE svg PUBLIC "-//W3C//DTD SVG 1.1//EN"
 "http://www.w3.org/Graphics/SVG/1.1/DTD/svg11.dtd">
<!-- Generated by graphviz version 2.40.1 (20161225.0304)
 -->
<!-- Title: oneDegreeRelationshipsDiagram Pages: 1 -->
<svg width="255pt" height="470pt"
 viewBox="0.00 0.00 255.00 470.20" xmlns="http://www.w3.org/2000/svg" xmlns:xlink="http://www.w3.org/1999/xlink">
<g id="graph0" class="graph" transform="scale(1 1) rotate(0) translate(4 466.2)">
<title>oneDegreeRelationshipsDiagram</title>
<polygon fill="#ffffff" stroke="transparent" points="-4,4 -4,-466.2 251,-466.2 251,4 -4,4"/>
<text text-anchor="middle" x="72.4936" y="-7.3" font-family="Helvetica,sans-Serif" font-size="11.00" fill="#000000">Generated by SchemaSpy</text>
<!-- ccda -->
<g id="node1" class="node">
<title>ccda</title>
<g id="a_node1"><a xlink:href="../../tables/ccda.html" xlink:title="ccda" target="_top">
<polygon fill="#ffffff" stroke="transparent" points="8,-38.2 8,-458.2 239,-458.2 239,-38.2 8,-38.2"/>
<polygon fill="#f5f5f5" stroke="transparent" points="10.5,-433.2 10.5,-456.2 237.5,-456.2 237.5,-433.2 10.5,-433.2"/>
<polygon fill="none" stroke="#000000" points="10.5,-433.2 10.5,-456.2 237.5,-456.2 237.5,-433.2 10.5,-433.2"/>
<text text-anchor="start" x="15.5" y="-441.8" font-family="Helvetica,sans-Serif" font-weight="bold" font-size="11.00" fill="#000000">ccda</text>
<text text-anchor="start" x="202.5437" y="-441.3" font-family="Helvetica,sans-Serif" font-size="11.00" fill="#000000">[table]</text>
<polygon fill="none" stroke="#000000" points="10.5,-411.2 10.5,-433.2 126.5,-433.2 126.5,-411.2 10.5,-411.2"/>
<image xlink:href="../../images/primaryKeys.png" width="11px" height="12px" preserveAspectRatio="xMinYMin meet" x="15.5" y="-428.2"/>
<text text-anchor="start" x="30.5" y="-418.3" font-family="Helvetica,sans-Serif" font-size="11.00" fill="#000000">id</text>
<polygon fill="none" stroke="#000000" points="126.5,-411.2 126.5,-433.2 237.5,-433.2 237.5,-411.2 126.5,-411.2"/>
<text text-anchor="start" x="129.5" y="-418.9" font-family="Helvetica,sans-Serif" font-size="11.00" fill="#000000">int[10]</text>
<polygon fill="#ffffff" stroke="transparent" points="10.5,-389.2 10.5,-411.2 126.5,-411.2 126.5,-389.2 10.5,-389.2"/>
<polygon fill="none" stroke="#000000" points="10.5,-389.2 10.5,-411.2 126.5,-411.2 126.5,-389.2 10.5,-389.2"/>
<text text-anchor="start" x="30.5" y="-396.3" font-family="Helvetica,sans-Serif" font-size="11.00" fill="#000000">uuid</text>
<polygon fill="none" stroke="#000000" points="126.5,-389.2 126.5,-411.2 237.5,-411.2 237.5,-389.2 126.5,-389.2"/>
<text text-anchor="start" x="129.5" y="-396.9" font-family="Helvetica,sans-Serif" font-size="11.00" fill="#000000">binary[16]</text>
<polygon fill="#ffffff" stroke="transparent" points="10.5,-367.2 10.5,-389.2 126.5,-389.2 126.5,-367.2 10.5,-367.2"/>
<polygon fill="none" stroke="#000000" points="10.5,-367.2 10.5,-389.2 126.5,-389.2 126.5,-367.2 10.5,-367.2"/>
<text text-anchor="start" x="30.5" y="-374.3" font-family="Helvetica,sans-Serif" font-size="11.00" fill="#000000">pid</text>
<polygon fill="none" stroke="#000000" points="126.5,-367.2 126.5,-389.2 237.5,-389.2 237.5,-367.2 126.5,-367.2"/>
<text text-anchor="start" x="129.5" y="-374.9" font-family="Helvetica,sans-Serif" font-size="11.00" fill="#000000">bigint[19]</text>
<polygon fill="#ffffff" stroke="transparent" points="10.5,-345.2 10.5,-367.2 126.5,-367.2 126.5,-345.2 10.5,-345.2"/>
<polygon fill="none" stroke="#000000" points="10.5,-345.2 10.5,-367.2 126.5,-367.2 126.5,-345.2 10.5,-345.2"/>
<text text-anchor="start" x="30.5" y="-352.3" font-family="Helvetica,sans-Serif" font-size="11.00" fill="#000000">encounter</text>
<polygon fill="none" stroke="#000000" points="126.5,-345.2 126.5,-367.2 237.5,-367.2 237.5,-345.2 126.5,-345.2"/>
<text text-anchor="start" x="129.5" y="-352.9" font-family="Helvetica,sans-Serif" font-size="11.00" fill="#000000">bigint[19]</text>
<polygon fill="none" stroke="#000000" points="10.5,-323.2 10.5,-345.2 126.5,-345.2 126.5,-323.2 10.5,-323.2"/>
<text text-anchor="start" x="30.5" y="-330.3" font-family="Helvetica,sans-Serif" font-size="11.00" fill="#000000">ccda_data</text>
<polygon fill="none" stroke="#000000" points="126.5,-323.2 126.5,-345.2 237.5,-345.2 237.5,-323.2 126.5,-323.2"/>
<text text-anchor="start" x="129.1115" y="-330.9" font-family="Helvetica,sans-Serif" font-size="11.00" fill="#000000">longtext[2147483647]</text>
<polygon fill="#ffffff" stroke="transparent" points="10.5,-301.2 10.5,-323.2 126.5,-323.2 126.5,-301.2 10.5,-301.2"/>
<polygon fill="none" stroke="#000000" points="10.5,-301.2 10.5,-323.2 126.5,-323.2 126.5,-301.2 10.5,-301.2"/>
<text text-anchor="start" x="30.5" y="-308.3" font-family="Helvetica,sans-Serif" font-size="11.00" fill="#000000">time</text>
<polygon fill="none" stroke="#000000" points="126.5,-301.2 126.5,-323.2 237.5,-323.2 237.5,-301.2 126.5,-301.2"/>
<text text-anchor="start" x="129.5" y="-308.9" font-family="Helvetica,sans-Serif" font-size="11.00" fill="#000000">varchar[50]</text>
<polygon fill="none" stroke="#000000" points="10.5,-279.2 10.5,-301.2 126.5,-301.2 126.5,-279.2 10.5,-279.2"/>
<text text-anchor="start" x="30.5" y="-286.3" font-family="Helvetica,sans-Serif" font-size="11.00" fill="#000000">status</text>
<polygon fill="none" stroke="#000000" points="126.5,-279.2 126.5,-301.2 237.5,-301.2 237.5,-279.2 126.5,-279.2"/>
<text text-anchor="start" x="129.5" y="-286.9" font-family="Helvetica,sans-Serif" font-size="11.00" fill="#000000">smallint[5]</text>
<polygon fill="none" stroke="#000000" points="10.5,-257.2 10.5,-279.2 126.5,-279.2 126.5,-257.2 10.5,-257.2"/>
<text text-anchor="start" x="30.5" y="-264.3" font-family="Helvetica,sans-Serif" font-size="11.00" fill="#000000">updated_date</text>
<polygon fill="none" stroke="#000000" points="126.5,-257.2 126.5,-279.2 237.5,-279.2 237.5,-257.2 126.5,-257.2"/>
<text text-anchor="start" x="129.5" y="-264.9" font-family="Helvetica,sans-Serif" font-size="11.00" fill="#000000">timestamp[19]</text>
<polygon fill="none" stroke="#000000" points="10.5,-235.2 10.5,-257.2 126.5,-257.2 126.5,-235.2 10.5,-235.2"/>
<text text-anchor="start" x="30.5" y="-242.3" font-family="Helvetica,sans-Serif" font-size="11.00" fill="#000000">user_id</text>
<polygon fill="none" stroke="#000000" points="126.5,-235.2 126.5,-257.2 237.5,-257.2 237.5,-235.2 126.5,-235.2"/>
<text text-anchor="start" x="129.5" y="-242.9" font-family="Helvetica,sans-Serif" font-size="11.00" fill="#000000">varchar[50]</text>
<polygon fill="none" stroke="#000000" points="10.5,-213.2 10.5,-235.2 126.5,-235.2 126.5,-213.2 10.5,-213.2"/>
<text text-anchor="start" x="30.5" y="-220.3" font-family="Helvetica,sans-Serif" font-size="11.00" fill="#000000">couch_docid</text>
<polygon fill="none" stroke="#000000" points="126.5,-213.2 126.5,-235.2 237.5,-235.2 237.5,-213.2 126.5,-213.2"/>
<text text-anchor="start" x="129.5" y="-220.9" font-family="Helvetica,sans-Serif" font-size="11.00" fill="#000000">varchar[100]</text>
<polygon fill="none" stroke="#000000" points="10.5,-191.2 10.5,-213.2 126.5,-213.2 126.5,-191.2 10.5,-191.2"/>
<text text-anchor="start" x="30.5" y="-198.3" font-family="Helvetica,sans-Serif" font-size="11.00" fill="#000000">couch_revid</text>
<polygon fill="none" stroke="#000000" points="126.5,-191.2 126.5,-213.2 237.5,-213.2 237.5,-191.2 126.5,-191.2"/>
<text text-anchor="start" x="129.5" y="-198.9" font-family="Helvetica,sans-Serif" font-size="11.00" fill="#000000">varchar[100]</text>
<polygon fill="none" stroke="#000000" points="10.5,-169.2 10.5,-191.2 126.5,-191.2 126.5,-169.2 10.5,-169.2"/>
<text text-anchor="start" x="30.5" y="-176.3" font-family="Helvetica,sans-Serif" font-size="11.00" fill="#000000">hash</text>
<polygon fill="none" stroke="#000000" points="126.5,-169.2 126.5,-191.2 237.5,-191.2 237.5,-169.2 126.5,-169.2"/>
<text text-anchor="start" x="129.5" y="-176.9" font-family="Helvetica,sans-Serif" font-size="11.00" fill="#000000">varchar[255]</text>
<polygon fill="none" stroke="#000000" points="10.5,-147.2 10.5,-169.2 126.5,-169.2 126.5,-147.2 10.5,-147.2"/>
<text text-anchor="start" x="30.5" y="-154.3" font-family="Helvetica,sans-Serif" font-size="11.00" fill="#000000">view</text>
<polygon fill="none" stroke="#000000" points="126.5,-147.2 126.5,-169.2 237.5,-169.2 237.5,-147.2 126.5,-147.2"/>
<text text-anchor="start" x="129.5" y="-154.9" font-family="Helvetica,sans-Serif" font-size="11.00" fill="#000000">tinyint[3]</text>
<polygon fill="none" stroke="#000000" points="10.5,-125.2 10.5,-147.2 126.5,-147.2 126.5,-125.2 10.5,-125.2"/>
<text text-anchor="start" x="30.5" y="-132.3" font-family="Helvetica,sans-Serif" font-size="11.00" fill="#000000">transfer</text>
<polygon fill="none" stroke="#000000" points="126.5,-125.2 126.5,-147.2 237.5,-147.2 237.5,-125.2 126.5,-125.2"/>
<text text-anchor="start" x="129.5" y="-132.9" font-family="Helvetica,sans-Serif" font-size="11.00" fill="#000000">tinyint[3]</text>
<polygon fill="none" stroke="#000000" points="10.5,-103.2 10.5,-125.2 126.5,-125.2 126.5,-103.2 10.5,-103.2"/>
<text text-anchor="start" x="30.5" y="-110.3" font-family="Helvetica,sans-Serif" font-size="11.00" fill="#000000">emr_transfer</text>
<polygon fill="none" stroke="#000000" points="126.5,-103.2 126.5,-125.2 237.5,-125.2 237.5,-103.2 126.5,-103.2"/>
<text text-anchor="start" x="129.5" y="-110.9" font-family="Helvetica,sans-Serif" font-size="11.00" fill="#000000">tinyint[3]</text>
<polygon fill="none" stroke="#000000" points="10.5,-81.2 10.5,-103.2 126.5,-103.2 126.5,-81.2 10.5,-81.2"/>
<text text-anchor="start" x="30.5" y="-88.3" font-family="Helvetica,sans-Serif" font-size="11.00" fill="#000000">encrypted</text>
<polygon fill="none" stroke="#000000" points="126.5,-81.2 126.5,-103.2 237.5,-103.2 237.5,-81.2 126.5,-81.2"/>
<text text-anchor="start" x="129.5" y="-88.9" font-family="Helvetica,sans-Serif" font-size="11.00" fill="#000000">tinyint[3]</text>
<polygon fill="none" stroke="#000000" points="10.5,-59.2 10.5,-81.2 126.5,-81.2 126.5,-59.2 10.5,-59.2"/>
<text text-anchor="start" x="30.5" y="-66.3" font-family="Helvetica,sans-Serif" font-size="11.00" fill="#000000">transaction_id</text>
<polygon fill="none" stroke="#000000" points="126.5,-59.2 126.5,-81.2 237.5,-81.2 237.5,-59.2 126.5,-59.2"/>
<text text-anchor="start" x="129.5" y="-66.9" font-family="Helvetica,sans-Serif" font-size="11.00" fill="#000000">bigint[19]</text>
<polygon fill="#ffffff" stroke="transparent" points="10.5,-40.2 10.5,-59.2 72.5,-59.2 72.5,-40.2 10.5,-40.2"/>
<polygon fill="none" stroke="#000000" points="10.5,-40.2 10.5,-59.2 72.5,-59.2 72.5,-40.2 10.5,-40.2"/>
<text text-anchor="start" x="13.5" y="-46.3" font-family="Helvetica,sans-Serif" font-size="11.00" fill="#000000">&lt; 0</text>
<polygon fill="#ffffff" stroke="transparent" points="72.5,-40.2 72.5,-59.2 126.5,-59.2 126.5,-40.2 72.5,-40.2"/>
<polygon fill="none" stroke="#000000" points="72.5,-40.2 72.5,-59.2 126.5,-59.2 126.5,-40.2 72.5,-40.2"/>
<text text-anchor="start" x="117.3862" y="-46.3" font-family="Helvetica,sans-Serif" font-size="11.00" fill="#000000"> &#160;</text>
<polygon fill="#ffffff" stroke="transparent" points="126.5,-40.2 126.5,-59.2 237.5,-59.2 237.5,-40.2 126.5,-40.2"/>
<polygon fill="none" stroke="#000000" points="126.5,-40.2 126.5,-59.2 237.5,-59.2 237.5,-40.2 126.5,-40.2"/>
<text text-anchor="start" x="218.9053" y="-46.3" font-family="Helvetica,sans-Serif" font-size="11.00" fill="#000000">0 &gt;</text>
<polygon fill="none" stroke="#000000" stroke-width="2" points="9,-39.2 9,-457.2 238,-457.2 238,-39.2 9,-39.2"/>
</a>
</g>
</g>
</g>
</svg>
