<?xml version="1.0" encoding="UTF-8" standalone="no"?>
<!DOCTYPE svg PUBLIC "-//W3C//DTD SVG 1.1//EN"
 "http://www.w3.org/Graphics/SVG/1.1/DTD/svg11.dtd">
<!-- Generated by graphviz version 2.40.1 (20161225.0304)
 -->
<!-- Title: oneDegreeRelationshipsDiagram Pages: 1 -->
<svg width="239pt" height="140pt"
 viewBox="0.00 0.00 239.00 140.20" xmlns="http://www.w3.org/2000/svg" xmlns:xlink="http://www.w3.org/1999/xlink">
<g id="graph0" class="graph" transform="scale(1 1) rotate(0) translate(4 136.2)">
<title>oneDegreeRelationshipsDiagram</title>
<polygon fill="#ffffff" stroke="transparent" points="-4,4 -4,-136.2 235,-136.2 235,4 -4,4"/>
<text text-anchor="middle" x="72.4936" y="-7.3" font-family="Helvetica,sans-Serif" font-size="11.00" fill="#000000">Generated by SchemaSpy</text>
<!-- clinical_plans_rules -->
<g id="node1" class="node">
<title>clinical_plans_rules</title>
<g id="a_node1"><a xlink:href="../../tables/clinical_plans_rules.html" xlink:title="clinical_plans_rules" target="_top">
<polygon fill="#ffffff" stroke="transparent" points="8,-38.2 8,-128.2 223,-128.2 223,-38.2 8,-38.2"/>
<polygon fill="#f5f5f5" stroke="transparent" points="10.5,-103.2 10.5,-126.2 221.5,-126.2 221.5,-103.2 10.5,-103.2"/>
<polygon fill="none" stroke="#000000" points="10.5,-103.2 10.5,-126.2 221.5,-126.2 221.5,-103.2 10.5,-103.2"/>
<text text-anchor="start" x="15.5" y="-111.8" font-family="Helvetica,sans-Serif" font-weight="bold" font-size="11.00" fill="#000000">clinical_plans_rules</text>
<text text-anchor="start" x="186.5437" y="-111.3" font-family="Helvetica,sans-Serif" font-size="11.00" fill="#000000">[table]</text>
<polygon fill="none" stroke="#000000" points="10.5,-81.2 10.5,-103.2 160.5,-103.2 160.5,-81.2 10.5,-81.2"/>
<image xlink:href="../../images/primaryKeys.png" width="11px" height="12px" preserveAspectRatio="xMinYMin meet" x="15.5" y="-98.2"/>
<text text-anchor="start" x="30.5" y="-88.3" font-family="Helvetica,sans-Serif" font-size="11.00" fill="#000000">plan_id</text>
<polygon fill="none" stroke="#000000" points="160.5,-81.2 160.5,-103.2 221.5,-103.2 221.5,-81.2 160.5,-81.2"/>
<text text-anchor="start" x="163.494" y="-88.9" font-family="Helvetica,sans-Serif" font-size="11.00" fill="#000000">varchar[31]</text>
<polygon fill="none" stroke="#000000" points="10.5,-59.2 10.5,-81.2 160.5,-81.2 160.5,-59.2 10.5,-59.2"/>
<image xlink:href="../../images/primaryKeys.png" width="11px" height="12px" preserveAspectRatio="xMinYMin meet" x="15.5" y="-76.2"/>
<text text-anchor="start" x="30.5" y="-66.3" font-family="Helvetica,sans-Serif" font-size="11.00" fill="#000000">rule_id</text>
<polygon fill="none" stroke="#000000" points="160.5,-59.2 160.5,-81.2 221.5,-81.2 221.5,-59.2 160.5,-59.2"/>
<text text-anchor="start" x="163.494" y="-66.9" font-family="Helvetica,sans-Serif" font-size="11.00" fill="#000000">varchar[31]</text>
<polygon fill="#ffffff" stroke="transparent" points="10.5,-40.2 10.5,-59.2 89.5,-59.2 89.5,-40.2 10.5,-40.2"/>
<polygon fill="none" stroke="#000000" points="10.5,-40.2 10.5,-59.2 89.5,-59.2 89.5,-40.2 10.5,-40.2"/>
<text text-anchor="start" x="13.5" y="-46.3" font-family="Helvetica,sans-Serif" font-size="11.00" fill="#000000">&lt; 0</text>
<polygon fill="#ffffff" stroke="transparent" points="89.5,-40.2 89.5,-59.2 160.5,-59.2 160.5,-40.2 89.5,-40.2"/>
<polygon fill="none" stroke="#000000" points="89.5,-40.2 89.5,-59.2 160.5,-59.2 160.5,-40.2 89.5,-40.2"/>
<text text-anchor="start" x="151.3862" y="-46.3" font-family="Helvetica,sans-Serif" font-size="11.00" fill="#000000"> &#160;</text>
<polygon fill="#ffffff" stroke="transparent" points="160.5,-40.2 160.5,-59.2 221.5,-59.2 221.5,-40.2 160.5,-40.2"/>
<polygon fill="none" stroke="#000000" points="160.5,-40.2 160.5,-59.2 221.5,-59.2 221.5,-40.2 160.5,-40.2"/>
<text text-anchor="start" x="202.9053" y="-46.3" font-family="Helvetica,sans-Serif" font-size="11.00" fill="#000000">0 &gt;</text>
<polygon fill="none" stroke="#000000" stroke-width="2" points="9,-39.2 9,-127.2 222,-127.2 222,-39.2 9,-39.2"/>
</a>
</g>
</g>
</g>
</svg>
