<?xml version="1.0" encoding="UTF-8" standalone="no"?>
<!DOCTYPE svg PUBLIC "-//W3C//DTD SVG 1.1//EN"
 "http://www.w3.org/Graphics/SVG/1.1/DTD/svg11.dtd">
<!-- Generated by graphviz version 2.40.1 (20161225.0304)
 -->
<!-- Title: oneDegreeRelationshipsDiagram Pages: 1 -->
<svg width="248pt" height="250pt"
 viewBox="0.00 0.00 248.00 250.20" xmlns="http://www.w3.org/2000/svg" xmlns:xlink="http://www.w3.org/1999/xlink">
<g id="graph0" class="graph" transform="scale(1 1) rotate(0) translate(4 246.2)">
<title>oneDegreeRelationshipsDiagram</title>
<polygon fill="#ffffff" stroke="transparent" points="-4,4 -4,-246.2 244,-246.2 244,4 -4,4"/>
<text text-anchor="middle" x="72.4936" y="-7.3" font-family="Helvetica,sans-Serif" font-size="11.00" fill="#000000">Generated by SchemaSpy</text>
<!-- clinical_plans -->
<g id="node1" class="node">
<title>clinical_plans</title>
<g id="a_node1"><a xlink:href="../../tables/clinical_plans.html" xlink:title="clinical_plans" target="_top">
<polygon fill="#ffffff" stroke="transparent" points="8,-38.2 8,-238.2 232,-238.2 232,-38.2 8,-38.2"/>
<polygon fill="#f5f5f5" stroke="transparent" points="10,-213.2 10,-236.2 230,-236.2 230,-213.2 10,-213.2"/>
<polygon fill="none" stroke="#000000" points="10,-213.2 10,-236.2 230,-236.2 230,-213.2 10,-213.2"/>
<text text-anchor="start" x="15" y="-221.8" font-family="Helvetica,sans-Serif" font-weight="bold" font-size="11.00" fill="#000000">clinical_plans</text>
<text text-anchor="start" x="195.0437" y="-221.3" font-family="Helvetica,sans-Serif" font-size="11.00" fill="#000000">[table]</text>
<polygon fill="none" stroke="#000000" points="10,-191.2 10,-213.2 169,-213.2 169,-191.2 10,-191.2"/>
<image xlink:href="../../images/primaryKeys.png" width="11px" height="12px" preserveAspectRatio="xMinYMin meet" x="15" y="-208.2"/>
<text text-anchor="start" x="30" y="-198.3" font-family="Helvetica,sans-Serif" font-size="11.00" fill="#000000">id</text>
<polygon fill="none" stroke="#000000" points="169,-191.2 169,-213.2 230,-213.2 230,-191.2 169,-191.2"/>
<text text-anchor="start" x="171.994" y="-198.9" font-family="Helvetica,sans-Serif" font-size="11.00" fill="#000000">varchar[31]</text>
<polygon fill="none" stroke="#000000" points="10,-169.2 10,-191.2 169,-191.2 169,-169.2 10,-169.2"/>
<image xlink:href="../../images/primaryKeys.png" width="11px" height="12px" preserveAspectRatio="xMinYMin meet" x="15" y="-186.2"/>
<text text-anchor="start" x="30" y="-176.3" font-family="Helvetica,sans-Serif" font-size="11.00" fill="#000000">pid</text>
<polygon fill="none" stroke="#000000" points="169,-169.2 169,-191.2 230,-191.2 230,-169.2 169,-169.2"/>
<text text-anchor="start" x="172" y="-176.9" font-family="Helvetica,sans-Serif" font-size="11.00" fill="#000000">bigint[19]</text>
<polygon fill="none" stroke="#000000" points="10,-147.2 10,-169.2 169,-169.2 169,-147.2 10,-147.2"/>
<text text-anchor="start" x="30" y="-154.3" font-family="Helvetica,sans-Serif" font-size="11.00" fill="#000000">normal_flag</text>
<polygon fill="none" stroke="#000000" points="169,-147.2 169,-169.2 230,-169.2 230,-147.2 169,-147.2"/>
<text text-anchor="start" x="172" y="-154.9" font-family="Helvetica,sans-Serif" font-size="11.00" fill="#000000">bit[1]</text>
<polygon fill="none" stroke="#000000" points="10,-125.2 10,-147.2 169,-147.2 169,-125.2 10,-125.2"/>
<text text-anchor="start" x="30" y="-132.3" font-family="Helvetica,sans-Serif" font-size="11.00" fill="#000000">cqm_flag</text>
<polygon fill="none" stroke="#000000" points="169,-125.2 169,-147.2 230,-147.2 230,-125.2 169,-125.2"/>
<text text-anchor="start" x="172" y="-132.9" font-family="Helvetica,sans-Serif" font-size="11.00" fill="#000000">bit[1]</text>
<polygon fill="none" stroke="#000000" points="10,-103.2 10,-125.2 169,-125.2 169,-103.2 10,-103.2"/>
<text text-anchor="start" x="30" y="-110.3" font-family="Helvetica,sans-Serif" font-size="11.00" fill="#000000">cqm_2011_flag</text>
<polygon fill="none" stroke="#000000" points="169,-103.2 169,-125.2 230,-125.2 230,-103.2 169,-103.2"/>
<text text-anchor="start" x="172" y="-110.9" font-family="Helvetica,sans-Serif" font-size="11.00" fill="#000000">bit[1]</text>
<polygon fill="none" stroke="#000000" points="10,-81.2 10,-103.2 169,-103.2 169,-81.2 10,-81.2"/>
<text text-anchor="start" x="30" y="-88.3" font-family="Helvetica,sans-Serif" font-size="11.00" fill="#000000">cqm_2014_flag</text>
<polygon fill="none" stroke="#000000" points="169,-81.2 169,-103.2 230,-103.2 230,-81.2 169,-81.2"/>
<text text-anchor="start" x="172" y="-88.9" font-family="Helvetica,sans-Serif" font-size="11.00" fill="#000000">bit[1]</text>
<polygon fill="none" stroke="#000000" points="10,-59.2 10,-81.2 169,-81.2 169,-59.2 10,-59.2"/>
<text text-anchor="start" x="30" y="-66.3" font-family="Helvetica,sans-Serif" font-size="11.00" fill="#000000">cqm_measure_group</text>
<polygon fill="none" stroke="#000000" points="169,-59.2 169,-81.2 230,-81.2 230,-59.2 169,-59.2"/>
<text text-anchor="start" x="171.994" y="-66.9" font-family="Helvetica,sans-Serif" font-size="11.00" fill="#000000">varchar[10]</text>
<polygon fill="#ffffff" stroke="transparent" points="10,-40.2 10,-59.2 94,-59.2 94,-40.2 10,-40.2"/>
<polygon fill="none" stroke="#000000" points="10,-40.2 10,-59.2 94,-59.2 94,-40.2 10,-40.2"/>
<text text-anchor="start" x="13" y="-46.3" font-family="Helvetica,sans-Serif" font-size="11.00" fill="#000000">&lt; 0</text>
<polygon fill="#ffffff" stroke="transparent" points="94,-40.2 94,-59.2 169,-59.2 169,-40.2 94,-40.2"/>
<polygon fill="none" stroke="#000000" points="94,-40.2 94,-59.2 169,-59.2 169,-40.2 94,-40.2"/>
<text text-anchor="start" x="159.8862" y="-46.3" font-family="Helvetica,sans-Serif" font-size="11.00" fill="#000000"> &#160;</text>
<polygon fill="#ffffff" stroke="transparent" points="169,-40.2 169,-59.2 230,-59.2 230,-40.2 169,-40.2"/>
<polygon fill="none" stroke="#000000" points="169,-40.2 169,-59.2 230,-59.2 230,-40.2 169,-40.2"/>
<text text-anchor="start" x="211.4053" y="-46.3" font-family="Helvetica,sans-Serif" font-size="11.00" fill="#000000">0 &gt;</text>
<polygon fill="none" stroke="#000000" stroke-width="2" points="9,-39.2 9,-237.2 231,-237.2 231,-39.2 9,-39.2"/>
</a>
</g>
</g>
</g>
</svg>
