<?xml version="1.0" encoding="UTF-8" standalone="no"?>
<!DOCTYPE svg PUBLIC "-//W3C//DTD SVG 1.1//EN"
 "http://www.w3.org/Graphics/SVG/1.1/DTD/svg11.dtd">
<!-- Generated by graphviz version 2.40.1 (20161225.0304)
 -->
<!-- Title: oneDegreeRelationshipsDiagram Pages: 1 -->
<svg width="276pt" height="316pt"
 viewBox="0.00 0.00 276.00 316.20" xmlns="http://www.w3.org/2000/svg" xmlns:xlink="http://www.w3.org/1999/xlink">
<g id="graph0" class="graph" transform="scale(1 1) rotate(0) translate(4 312.2)">
<title>oneDegreeRelationshipsDiagram</title>
<polygon fill="#ffffff" stroke="transparent" points="-4,4 -4,-312.2 272,-312.2 272,4 -4,4"/>
<text text-anchor="middle" x="72.4936" y="-7.3" font-family="Helvetica,sans-Serif" font-size="11.00" fill="#000000">Generated by SchemaSpy</text>
<!-- dated_reminders -->
<g id="node1" class="node">
<title>dated_reminders</title>
<g id="a_node1"><a xlink:href="../../tables/dated_reminders.html" xlink:title="dated_reminders" target="_top">
<polygon fill="#ffffff" stroke="transparent" points="8,-38.2 8,-304.2 260,-304.2 260,-38.2 8,-38.2"/>
<polygon fill="#f5f5f5" stroke="transparent" points="10,-279.2 10,-302.2 258,-302.2 258,-279.2 10,-279.2"/>
<polygon fill="none" stroke="#000000" points="10,-279.2 10,-302.2 258,-302.2 258,-279.2 10,-279.2"/>
<text text-anchor="start" x="15" y="-287.8" font-family="Helvetica,sans-Serif" font-weight="bold" font-size="11.00" fill="#000000">dated_reminders</text>
<text text-anchor="start" x="223.0437" y="-287.3" font-family="Helvetica,sans-Serif" font-size="11.00" fill="#000000">[table]</text>
<polygon fill="none" stroke="#000000" points="10,-257.2 10,-279.2 183,-279.2 183,-257.2 10,-257.2"/>
<image xlink:href="../../images/primaryKeys.png" width="11px" height="12px" preserveAspectRatio="xMinYMin meet" x="15" y="-274.2"/>
<text text-anchor="start" x="30" y="-264.3" font-family="Helvetica,sans-Serif" font-size="11.00" fill="#000000">dr_id</text>
<polygon fill="none" stroke="#000000" points="183,-257.2 183,-279.2 258,-279.2 258,-257.2 183,-257.2"/>
<text text-anchor="start" x="186" y="-264.9" font-family="Helvetica,sans-Serif" font-size="11.00" fill="#000000">int[10]</text>
<polygon fill="#ffffff" stroke="transparent" points="10,-235.2 10,-257.2 183,-257.2 183,-235.2 10,-235.2"/>
<polygon fill="none" stroke="#000000" points="10,-235.2 10,-257.2 183,-257.2 183,-235.2 10,-235.2"/>
<text text-anchor="start" x="30" y="-242.3" font-family="Helvetica,sans-Serif" font-size="11.00" fill="#000000">dr_from_ID</text>
<polygon fill="none" stroke="#000000" points="183,-235.2 183,-257.2 258,-257.2 258,-235.2 183,-235.2"/>
<text text-anchor="start" x="186" y="-242.9" font-family="Helvetica,sans-Serif" font-size="11.00" fill="#000000">int[10]</text>
<polygon fill="none" stroke="#000000" points="10,-213.2 10,-235.2 183,-235.2 183,-213.2 10,-213.2"/>
<text text-anchor="start" x="30" y="-220.3" font-family="Helvetica,sans-Serif" font-size="11.00" fill="#000000">dr_message_text</text>
<polygon fill="none" stroke="#000000" points="183,-213.2 183,-235.2 258,-235.2 258,-213.2 183,-213.2"/>
<text text-anchor="start" x="186" y="-220.9" font-family="Helvetica,sans-Serif" font-size="11.00" fill="#000000">varchar[160]</text>
<polygon fill="none" stroke="#000000" points="10,-191.2 10,-213.2 183,-213.2 183,-191.2 10,-191.2"/>
<text text-anchor="start" x="30" y="-198.3" font-family="Helvetica,sans-Serif" font-size="11.00" fill="#000000">dr_message_sent_date</text>
<polygon fill="none" stroke="#000000" points="183,-191.2 183,-213.2 258,-213.2 258,-191.2 183,-191.2"/>
<text text-anchor="start" x="186" y="-198.9" font-family="Helvetica,sans-Serif" font-size="11.00" fill="#000000">datetime[19]</text>
<polygon fill="#ffffff" stroke="transparent" points="10,-169.2 10,-191.2 183,-191.2 183,-169.2 10,-169.2"/>
<polygon fill="none" stroke="#000000" points="10,-169.2 10,-191.2 183,-191.2 183,-169.2 10,-169.2"/>
<text text-anchor="start" x="30" y="-176.3" font-family="Helvetica,sans-Serif" font-size="11.00" fill="#000000">dr_message_due_date</text>
<polygon fill="none" stroke="#000000" points="183,-169.2 183,-191.2 258,-191.2 258,-169.2 183,-169.2"/>
<text text-anchor="start" x="186" y="-176.9" font-family="Helvetica,sans-Serif" font-size="11.00" fill="#000000">date[10]</text>
<polygon fill="none" stroke="#000000" points="10,-147.2 10,-169.2 183,-169.2 183,-147.2 10,-147.2"/>
<text text-anchor="start" x="30" y="-154.3" font-family="Helvetica,sans-Serif" font-size="11.00" fill="#000000">pid</text>
<polygon fill="none" stroke="#000000" points="183,-147.2 183,-169.2 258,-169.2 258,-147.2 183,-147.2"/>
<text text-anchor="start" x="186" y="-154.9" font-family="Helvetica,sans-Serif" font-size="11.00" fill="#000000">bigint[19]</text>
<polygon fill="none" stroke="#000000" points="10,-125.2 10,-147.2 183,-147.2 183,-125.2 10,-125.2"/>
<text text-anchor="start" x="30" y="-132.3" font-family="Helvetica,sans-Serif" font-size="11.00" fill="#000000">message_priority</text>
<polygon fill="none" stroke="#000000" points="183,-125.2 183,-147.2 258,-147.2 258,-125.2 183,-125.2"/>
<text text-anchor="start" x="186" y="-132.9" font-family="Helvetica,sans-Serif" font-size="11.00" fill="#000000">bit[1]</text>
<polygon fill="none" stroke="#000000" points="10,-103.2 10,-125.2 183,-125.2 183,-103.2 10,-103.2"/>
<text text-anchor="start" x="30" y="-110.3" font-family="Helvetica,sans-Serif" font-size="11.00" fill="#000000">message_processed</text>
<polygon fill="none" stroke="#000000" points="183,-103.2 183,-125.2 258,-125.2 258,-103.2 183,-103.2"/>
<text text-anchor="start" x="186" y="-110.9" font-family="Helvetica,sans-Serif" font-size="11.00" fill="#000000">bit[1]</text>
<polygon fill="none" stroke="#000000" points="10,-81.2 10,-103.2 183,-103.2 183,-81.2 10,-81.2"/>
<text text-anchor="start" x="30" y="-88.3" font-family="Helvetica,sans-Serif" font-size="11.00" fill="#000000">processed_date</text>
<polygon fill="none" stroke="#000000" points="183,-81.2 183,-103.2 258,-103.2 258,-81.2 183,-81.2"/>
<text text-anchor="start" x="185.9666" y="-88.9" font-family="Helvetica,sans-Serif" font-size="11.00" fill="#000000">timestamp[19]</text>
<polygon fill="none" stroke="#000000" points="10,-59.2 10,-81.2 183,-81.2 183,-59.2 10,-59.2"/>
<text text-anchor="start" x="30" y="-66.3" font-family="Helvetica,sans-Serif" font-size="11.00" fill="#000000">dr_processed_by</text>
<polygon fill="none" stroke="#000000" points="183,-59.2 183,-81.2 258,-81.2 258,-59.2 183,-59.2"/>
<text text-anchor="start" x="186" y="-66.9" font-family="Helvetica,sans-Serif" font-size="11.00" fill="#000000">int[10]</text>
<polygon fill="#ffffff" stroke="transparent" points="10,-40.2 10,-59.2 101,-59.2 101,-40.2 10,-40.2"/>
<polygon fill="none" stroke="#000000" points="10,-40.2 10,-59.2 101,-59.2 101,-40.2 10,-40.2"/>
<text text-anchor="start" x="13" y="-46.3" font-family="Helvetica,sans-Serif" font-size="11.00" fill="#000000">&lt; 0</text>
<polygon fill="#ffffff" stroke="transparent" points="101,-40.2 101,-59.2 183,-59.2 183,-40.2 101,-40.2"/>
<polygon fill="none" stroke="#000000" points="101,-40.2 101,-59.2 183,-59.2 183,-40.2 101,-40.2"/>
<text text-anchor="start" x="173.8862" y="-46.3" font-family="Helvetica,sans-Serif" font-size="11.00" fill="#000000"> &#160;</text>
<polygon fill="#ffffff" stroke="transparent" points="183,-40.2 183,-59.2 258,-59.2 258,-40.2 183,-40.2"/>
<polygon fill="none" stroke="#000000" points="183,-40.2 183,-59.2 258,-59.2 258,-40.2 183,-40.2"/>
<text text-anchor="start" x="239.4053" y="-46.3" font-family="Helvetica,sans-Serif" font-size="11.00" fill="#000000">0 &gt;</text>
<polygon fill="none" stroke="#000000" stroke-width="2" points="9,-39.2 9,-303.2 259,-303.2 259,-39.2 9,-39.2"/>
</a>
</g>
</g>
</g>
</svg>
