<?xml version="1.0" encoding="UTF-8" standalone="no"?>
<!DOCTYPE svg PUBLIC "-//W3C//DTD SVG 1.1//EN"
 "http://www.w3.org/Graphics/SVG/1.1/DTD/svg11.dtd">
<!-- Generated by graphviz version 2.40.1 (20161225.0304)
 -->
<!-- Title: oneDegreeRelationshipsDiagram Pages: 1 -->
<svg width="342pt" height="470pt"
 viewBox="0.00 0.00 342.00 470.20" xmlns="http://www.w3.org/2000/svg" xmlns:xlink="http://www.w3.org/1999/xlink">
<g id="graph0" class="graph" transform="scale(1 1) rotate(0) translate(4 466.2)">
<title>oneDegreeRelationshipsDiagram</title>
<polygon fill="#ffffff" stroke="transparent" points="-4,4 -4,-466.2 338,-466.2 338,4 -4,4"/>
<text text-anchor="middle" x="72.4936" y="-7.3" font-family="Helvetica,sans-Serif" font-size="11.00" fill="#000000">Generated by SchemaSpy</text>
<!-- documents_legal_detail -->
<g id="node1" class="node">
<title>documents_legal_detail</title>
<g id="a_node1"><a xlink:href="../../tables/documents_legal_detail.html" xlink:title="documents_legal_detail" target="_top">
<polygon fill="#ffffff" stroke="transparent" points="8,-38.2 8,-458.2 326,-458.2 326,-38.2 8,-38.2"/>
<polygon fill="#f5f5f5" stroke="transparent" points="10,-433.2 10,-456.2 324,-456.2 324,-433.2 10,-433.2"/>
<polygon fill="none" stroke="#000000" points="10,-433.2 10,-456.2 324,-456.2 324,-433.2 10,-433.2"/>
<text text-anchor="start" x="15" y="-441.8" font-family="Helvetica,sans-Serif" font-weight="bold" font-size="11.00" fill="#000000">documents_legal_detail</text>
<text text-anchor="start" x="289.0437" y="-441.3" font-family="Helvetica,sans-Serif" font-size="11.00" fill="#000000">[table]</text>
<polygon fill="none" stroke="#000000" points="10,-411.2 10,-433.2 213,-433.2 213,-411.2 10,-411.2"/>
<image xlink:href="../../images/primaryKeys.png" width="11px" height="12px" preserveAspectRatio="xMinYMin meet" x="15" y="-428.2"/>
<text text-anchor="start" x="30" y="-418.3" font-family="Helvetica,sans-Serif" font-size="11.00" fill="#000000">dld_id</text>
<polygon fill="none" stroke="#000000" points="213,-411.2 213,-433.2 324,-433.2 324,-411.2 213,-411.2"/>
<text text-anchor="start" x="216" y="-418.9" font-family="Helvetica,sans-Serif" font-size="11.00" fill="#000000">int unsigned[10]</text>
<polygon fill="none" stroke="#000000" points="10,-389.2 10,-411.2 213,-411.2 213,-389.2 10,-389.2"/>
<text text-anchor="start" x="30" y="-396.3" font-family="Helvetica,sans-Serif" font-size="11.00" fill="#000000">dld_pid</text>
<polygon fill="none" stroke="#000000" points="213,-389.2 213,-411.2 324,-411.2 324,-389.2 213,-389.2"/>
<text text-anchor="start" x="216" y="-396.9" font-family="Helvetica,sans-Serif" font-size="11.00" fill="#000000">int unsigned[10]</text>
<polygon fill="none" stroke="#000000" points="10,-367.2 10,-389.2 213,-389.2 213,-367.2 10,-367.2"/>
<text text-anchor="start" x="30" y="-374.3" font-family="Helvetica,sans-Serif" font-size="11.00" fill="#000000">dld_facility</text>
<polygon fill="none" stroke="#000000" points="213,-367.2 213,-389.2 324,-389.2 324,-367.2 213,-367.2"/>
<text text-anchor="start" x="216" y="-374.9" font-family="Helvetica,sans-Serif" font-size="11.00" fill="#000000">int unsigned[10]</text>
<polygon fill="none" stroke="#000000" points="10,-345.2 10,-367.2 213,-367.2 213,-345.2 10,-345.2"/>
<text text-anchor="start" x="30" y="-352.3" font-family="Helvetica,sans-Serif" font-size="11.00" fill="#000000">dld_provider</text>
<polygon fill="none" stroke="#000000" points="213,-345.2 213,-367.2 324,-367.2 324,-345.2 213,-345.2"/>
<text text-anchor="start" x="216" y="-352.9" font-family="Helvetica,sans-Serif" font-size="11.00" fill="#000000">int unsigned[10]</text>
<polygon fill="none" stroke="#000000" points="10,-323.2 10,-345.2 213,-345.2 213,-323.2 10,-323.2"/>
<text text-anchor="start" x="30" y="-330.3" font-family="Helvetica,sans-Serif" font-size="11.00" fill="#000000">dld_encounter</text>
<polygon fill="none" stroke="#000000" points="213,-323.2 213,-345.2 324,-345.2 324,-323.2 213,-323.2"/>
<text text-anchor="start" x="216" y="-330.9" font-family="Helvetica,sans-Serif" font-size="11.00" fill="#000000">int unsigned[10]</text>
<polygon fill="none" stroke="#000000" points="10,-301.2 10,-323.2 213,-323.2 213,-301.2 10,-301.2"/>
<text text-anchor="start" x="30" y="-308.3" font-family="Helvetica,sans-Serif" font-size="11.00" fill="#000000">dld_master_docid</text>
<polygon fill="none" stroke="#000000" points="213,-301.2 213,-323.2 324,-323.2 324,-301.2 213,-301.2"/>
<text text-anchor="start" x="216" y="-308.9" font-family="Helvetica,sans-Serif" font-size="11.00" fill="#000000">int unsigned[10]</text>
<polygon fill="none" stroke="#000000" points="10,-279.2 10,-301.2 213,-301.2 213,-279.2 10,-279.2"/>
<text text-anchor="start" x="30" y="-286.3" font-family="Helvetica,sans-Serif" font-size="11.00" fill="#000000">dld_signed</text>
<polygon fill="none" stroke="#000000" points="213,-279.2 213,-301.2 324,-301.2 324,-279.2 213,-279.2"/>
<text text-anchor="start" x="216" y="-286.9" font-family="Helvetica,sans-Serif" font-size="11.00" fill="#000000">smallint unsigned[5]</text>
<polygon fill="none" stroke="#000000" points="10,-257.2 10,-279.2 213,-279.2 213,-257.2 10,-257.2"/>
<text text-anchor="start" x="30" y="-264.3" font-family="Helvetica,sans-Serif" font-size="11.00" fill="#000000">dld_signed_time</text>
<polygon fill="none" stroke="#000000" points="213,-257.2 213,-279.2 324,-279.2 324,-257.2 213,-257.2"/>
<text text-anchor="start" x="216" y="-264.9" font-family="Helvetica,sans-Serif" font-size="11.00" fill="#000000">timestamp[19]</text>
<polygon fill="none" stroke="#000000" points="10,-235.2 10,-257.2 213,-257.2 213,-235.2 10,-235.2"/>
<text text-anchor="start" x="30" y="-242.3" font-family="Helvetica,sans-Serif" font-size="11.00" fill="#000000">dld_filepath</text>
<polygon fill="none" stroke="#000000" points="213,-235.2 213,-257.2 324,-257.2 324,-235.2 213,-235.2"/>
<text text-anchor="start" x="216" y="-242.9" font-family="Helvetica,sans-Serif" font-size="11.00" fill="#000000">varchar[75]</text>
<polygon fill="none" stroke="#000000" points="10,-213.2 10,-235.2 213,-235.2 213,-213.2 10,-213.2"/>
<text text-anchor="start" x="30" y="-220.3" font-family="Helvetica,sans-Serif" font-size="11.00" fill="#000000">dld_filename</text>
<polygon fill="none" stroke="#000000" points="213,-213.2 213,-235.2 324,-235.2 324,-213.2 213,-213.2"/>
<text text-anchor="start" x="216" y="-220.9" font-family="Helvetica,sans-Serif" font-size="11.00" fill="#000000">varchar[45]</text>
<polygon fill="none" stroke="#000000" points="10,-191.2 10,-213.2 213,-213.2 213,-191.2 10,-191.2"/>
<text text-anchor="start" x="30" y="-198.3" font-family="Helvetica,sans-Serif" font-size="11.00" fill="#000000">dld_signing_person</text>
<polygon fill="none" stroke="#000000" points="213,-191.2 213,-213.2 324,-213.2 324,-191.2 213,-191.2"/>
<text text-anchor="start" x="216" y="-198.9" font-family="Helvetica,sans-Serif" font-size="11.00" fill="#000000">varchar[50]</text>
<polygon fill="none" stroke="#000000" points="10,-169.2 10,-191.2 213,-191.2 213,-169.2 10,-169.2"/>
<text text-anchor="start" x="30" y="-176.3" font-family="Helvetica,sans-Serif" font-size="11.00" fill="#000000">dld_sign_level</text>
<polygon fill="none" stroke="#000000" points="213,-169.2 213,-191.2 324,-191.2 324,-169.2 213,-169.2"/>
<text text-anchor="start" x="216" y="-176.9" font-family="Helvetica,sans-Serif" font-size="11.00" fill="#000000">int[10]</text>
<polygon fill="none" stroke="#000000" points="10,-147.2 10,-169.2 213,-169.2 213,-147.2 10,-147.2"/>
<text text-anchor="start" x="30" y="-154.3" font-family="Helvetica,sans-Serif" font-size="11.00" fill="#000000">dld_content</text>
<polygon fill="none" stroke="#000000" points="213,-147.2 213,-169.2 324,-169.2 324,-147.2 213,-147.2"/>
<text text-anchor="start" x="216" y="-154.9" font-family="Helvetica,sans-Serif" font-size="11.00" fill="#000000">varchar[50]</text>
<polygon fill="none" stroke="#000000" points="10,-125.2 10,-147.2 213,-147.2 213,-125.2 10,-125.2"/>
<text text-anchor="start" x="30" y="-132.3" font-family="Helvetica,sans-Serif" font-size="11.00" fill="#000000">dld_file_for_pdf_generation</text>
<polygon fill="none" stroke="#000000" points="213,-125.2 213,-147.2 324,-147.2 324,-125.2 213,-125.2"/>
<text text-anchor="start" x="216" y="-132.9" font-family="Helvetica,sans-Serif" font-size="11.00" fill="#000000">blob[65535]</text>
<polygon fill="none" stroke="#000000" points="10,-103.2 10,-125.2 213,-125.2 213,-103.2 10,-103.2"/>
<text text-anchor="start" x="30" y="-110.3" font-family="Helvetica,sans-Serif" font-size="11.00" fill="#000000">dld_denial_reason</text>
<polygon fill="none" stroke="#000000" points="213,-103.2 213,-125.2 324,-125.2 324,-103.2 213,-103.2"/>
<text text-anchor="start" x="215.6115" y="-110.9" font-family="Helvetica,sans-Serif" font-size="11.00" fill="#000000">longtext[2147483647]</text>
<polygon fill="none" stroke="#000000" points="10,-81.2 10,-103.2 213,-103.2 213,-81.2 10,-81.2"/>
<text text-anchor="start" x="30" y="-88.3" font-family="Helvetica,sans-Serif" font-size="11.00" fill="#000000">dld_moved</text>
<polygon fill="none" stroke="#000000" points="213,-81.2 213,-103.2 324,-103.2 324,-81.2 213,-81.2"/>
<text text-anchor="start" x="216" y="-88.9" font-family="Helvetica,sans-Serif" font-size="11.00" fill="#000000">tinyint[3]</text>
<polygon fill="none" stroke="#000000" points="10,-59.2 10,-81.2 213,-81.2 213,-59.2 10,-59.2"/>
<text text-anchor="start" x="30" y="-66.3" font-family="Helvetica,sans-Serif" font-size="11.00" fill="#000000">dld_patient_comments</text>
<polygon fill="none" stroke="#000000" points="213,-59.2 213,-81.2 324,-81.2 324,-59.2 213,-59.2"/>
<text text-anchor="start" x="216" y="-66.9" font-family="Helvetica,sans-Serif" font-size="11.00" fill="#000000">text[65535]</text>
<polygon fill="#ffffff" stroke="transparent" points="10,-40.2 10,-59.2 116,-59.2 116,-40.2 10,-40.2"/>
<polygon fill="none" stroke="#000000" points="10,-40.2 10,-59.2 116,-59.2 116,-40.2 10,-40.2"/>
<text text-anchor="start" x="13" y="-46.3" font-family="Helvetica,sans-Serif" font-size="11.00" fill="#000000">&lt; 0</text>
<polygon fill="#ffffff" stroke="transparent" points="116,-40.2 116,-59.2 213,-59.2 213,-40.2 116,-40.2"/>
<polygon fill="none" stroke="#000000" points="116,-40.2 116,-59.2 213,-59.2 213,-40.2 116,-40.2"/>
<text text-anchor="start" x="203.8862" y="-46.3" font-family="Helvetica,sans-Serif" font-size="11.00" fill="#000000"> &#160;</text>
<polygon fill="#ffffff" stroke="transparent" points="213,-40.2 213,-59.2 324,-59.2 324,-40.2 213,-40.2"/>
<polygon fill="none" stroke="#000000" points="213,-40.2 213,-59.2 324,-59.2 324,-40.2 213,-40.2"/>
<text text-anchor="start" x="305.4053" y="-46.3" font-family="Helvetica,sans-Serif" font-size="11.00" fill="#000000">0 &gt;</text>
<polygon fill="none" stroke="#000000" stroke-width="2" points="9,-39.2 9,-457.2 325,-457.2 325,-39.2 9,-39.2"/>
</a>
</g>
</g>
</g>
</svg>
