<?xml version="1.0" encoding="UTF-8" standalone="no"?>
<!DOCTYPE svg PUBLIC "-//W3C//DTD SVG 1.1//EN"
 "http://www.w3.org/Graphics/SVG/1.1/DTD/svg11.dtd">
<!-- Generated by graphviz version 2.40.1 (20161225.0304)
 -->
<!-- Title: oneDegreeRelationshipsDiagram Pages: 1 -->
<svg width="234pt" height="140pt"
 viewBox="0.00 0.00 234.00 140.20" xmlns="http://www.w3.org/2000/svg" xmlns:xlink="http://www.w3.org/1999/xlink">
<g id="graph0" class="graph" transform="scale(1 1) rotate(0) translate(4 136.2)">
<title>oneDegreeRelationshipsDiagram</title>
<polygon fill="#ffffff" stroke="transparent" points="-4,4 -4,-136.2 230,-136.2 230,4 -4,4"/>
<text text-anchor="middle" x="72.4936" y="-7.3" font-family="Helvetica,sans-Serif" font-size="11.00" fill="#000000">Generated by SchemaSpy</text>
<!-- enc_category_map -->
<g id="node1" class="node">
<title>enc_category_map</title>
<g id="a_node1"><a xlink:href="../../tables/enc_category_map.html" xlink:title="enc_category_map" target="_top">
<polygon fill="#ffffff" stroke="transparent" points="8,-38.2 8,-128.2 218,-128.2 218,-38.2 8,-38.2"/>
<polygon fill="#f5f5f5" stroke="transparent" points="10,-103.2 10,-126.2 216,-126.2 216,-103.2 10,-103.2"/>
<polygon fill="none" stroke="#000000" points="10,-103.2 10,-126.2 216,-126.2 216,-103.2 10,-103.2"/>
<text text-anchor="start" x="15" y="-111.8" font-family="Helvetica,sans-Serif" font-weight="bold" font-size="11.00" fill="#000000">enc_category_map</text>
<text text-anchor="start" x="181.0437" y="-111.3" font-family="Helvetica,sans-Serif" font-size="11.00" fill="#000000">[table]</text>
<polygon fill="#ffffff" stroke="transparent" points="10,-81.2 10,-103.2 155,-103.2 155,-81.2 10,-81.2"/>
<polygon fill="none" stroke="#000000" points="10,-81.2 10,-103.2 155,-103.2 155,-81.2 10,-81.2"/>
<text text-anchor="start" x="30" y="-88.3" font-family="Helvetica,sans-Serif" font-size="11.00" fill="#000000">rule_enc_id</text>
<polygon fill="none" stroke="#000000" points="155,-81.2 155,-103.2 216,-103.2 216,-81.2 155,-81.2"/>
<text text-anchor="start" x="157.994" y="-88.9" font-family="Helvetica,sans-Serif" font-size="11.00" fill="#000000">varchar[31]</text>
<polygon fill="#ffffff" stroke="transparent" points="10,-59.2 10,-81.2 155,-81.2 155,-59.2 10,-59.2"/>
<polygon fill="none" stroke="#000000" points="10,-59.2 10,-81.2 155,-81.2 155,-59.2 10,-59.2"/>
<text text-anchor="start" x="30" y="-66.3" font-family="Helvetica,sans-Serif" font-size="11.00" fill="#000000">main_cat_id</text>
<polygon fill="none" stroke="#000000" points="155,-59.2 155,-81.2 216,-81.2 216,-59.2 155,-59.2"/>
<text text-anchor="start" x="158" y="-66.9" font-family="Helvetica,sans-Serif" font-size="11.00" fill="#000000">int[10]</text>
<polygon fill="#ffffff" stroke="transparent" points="10,-40.2 10,-59.2 87,-59.2 87,-40.2 10,-40.2"/>
<polygon fill="none" stroke="#000000" points="10,-40.2 10,-59.2 87,-59.2 87,-40.2 10,-40.2"/>
<text text-anchor="start" x="13" y="-46.3" font-family="Helvetica,sans-Serif" font-size="11.00" fill="#000000">&lt; 0</text>
<polygon fill="#ffffff" stroke="transparent" points="87,-40.2 87,-59.2 155,-59.2 155,-40.2 87,-40.2"/>
<polygon fill="none" stroke="#000000" points="87,-40.2 87,-59.2 155,-59.2 155,-40.2 87,-40.2"/>
<text text-anchor="start" x="145.8862" y="-46.3" font-family="Helvetica,sans-Serif" font-size="11.00" fill="#000000"> &#160;</text>
<polygon fill="#ffffff" stroke="transparent" points="155,-40.2 155,-59.2 216,-59.2 216,-40.2 155,-40.2"/>
<polygon fill="none" stroke="#000000" points="155,-40.2 155,-59.2 216,-59.2 216,-40.2 155,-40.2"/>
<text text-anchor="start" x="197.4053" y="-46.3" font-family="Helvetica,sans-Serif" font-size="11.00" fill="#000000">0 &gt;</text>
<polygon fill="none" stroke="#000000" stroke-width="2" points="9,-39.2 9,-127.2 217,-127.2 217,-39.2 9,-39.2"/>
</a>
</g>
</g>
</g>
</svg>
