<?xml version="1.0" encoding="UTF-8" standalone="no"?>
<!DOCTYPE svg PUBLIC "-//W3C//DTD SVG 1.1//EN"
 "http://www.w3.org/Graphics/SVG/1.1/DTD/svg11.dtd">
<!-- Generated by graphviz version 2.40.1 (20161225.0304)
 -->
<!-- Title: oneDegreeRelationshipsDiagram Pages: 1 -->
<svg width="234pt" height="162pt"
 viewBox="0.00 0.00 234.00 162.20" xmlns="http://www.w3.org/2000/svg" xmlns:xlink="http://www.w3.org/1999/xlink">
<g id="graph0" class="graph" transform="scale(1 1) rotate(0) translate(4 158.2)">
<title>oneDegreeRelationshipsDiagram</title>
<polygon fill="#ffffff" stroke="transparent" points="-4,4 -4,-158.2 230,-158.2 230,4 -4,4"/>
<text text-anchor="middle" x="72.4936" y="-7.3" font-family="Helvetica,sans-Serif" font-size="11.00" fill="#000000">Generated by SchemaSpy</text>
<!-- erx_ttl_touch -->
<g id="node1" class="node">
<title>erx_ttl_touch</title>
<g id="a_node1"><a xlink:href="../../tables/erx_ttl_touch.html" xlink:title="erx_ttl_touch" target="_top">
<polygon fill="#ffffff" stroke="transparent" points="8,-38.2 8,-150.2 218,-150.2 218,-38.2 8,-38.2"/>
<polygon fill="#f5f5f5" stroke="transparent" points="10,-125.2 10,-148.2 216,-148.2 216,-125.2 10,-125.2"/>
<polygon fill="none" stroke="#000000" points="10,-125.2 10,-148.2 216,-148.2 216,-125.2 10,-125.2"/>
<text text-anchor="start" x="15" y="-133.8" font-family="Helvetica,sans-Serif" font-weight="bold" font-size="11.00" fill="#000000">erx_ttl_touch</text>
<text text-anchor="start" x="181.0437" y="-133.3" font-family="Helvetica,sans-Serif" font-size="11.00" fill="#000000">[table]</text>
<polygon fill="none" stroke="#000000" points="10,-103.2 10,-125.2 118,-125.2 118,-103.2 10,-103.2"/>
<image xlink:href="../../images/primaryKeys.png" width="11px" height="12px" preserveAspectRatio="xMinYMin meet" x="15" y="-120.2"/>
<text text-anchor="start" x="30" y="-110.3" font-family="Helvetica,sans-Serif" font-size="11.00" fill="#000000">patient_id</text>
<polygon fill="none" stroke="#000000" points="118,-103.2 118,-125.2 216,-125.2 216,-103.2 118,-103.2"/>
<text text-anchor="start" x="120.8429" y="-110.9" font-family="Helvetica,sans-Serif" font-size="11.00" fill="#000000">bigint unsigned[20]</text>
<polygon fill="none" stroke="#000000" points="10,-81.2 10,-103.2 118,-103.2 118,-81.2 10,-81.2"/>
<image xlink:href="../../images/primaryKeys.png" width="11px" height="12px" preserveAspectRatio="xMinYMin meet" x="15" y="-98.2"/>
<text text-anchor="start" x="30" y="-88.3" font-family="Helvetica,sans-Serif" font-size="11.00" fill="#000000">process</text>
<polygon fill="none" stroke="#000000" points="118,-81.2 118,-103.2 216,-103.2 216,-81.2 118,-81.2"/>
<text text-anchor="start" x="121" y="-88.9" font-family="Helvetica,sans-Serif" font-size="11.00" fill="#000000">enum[11]</text>
<polygon fill="none" stroke="#000000" points="10,-59.2 10,-81.2 118,-81.2 118,-59.2 10,-59.2"/>
<text text-anchor="start" x="30" y="-66.3" font-family="Helvetica,sans-Serif" font-size="11.00" fill="#000000">updated</text>
<polygon fill="none" stroke="#000000" points="118,-59.2 118,-81.2 216,-81.2 216,-59.2 118,-59.2"/>
<text text-anchor="start" x="121" y="-66.9" font-family="Helvetica,sans-Serif" font-size="11.00" fill="#000000">datetime[19]</text>
<polygon fill="#ffffff" stroke="transparent" points="10,-40.2 10,-59.2 68,-59.2 68,-40.2 10,-40.2"/>
<polygon fill="none" stroke="#000000" points="10,-40.2 10,-59.2 68,-59.2 68,-40.2 10,-40.2"/>
<text text-anchor="start" x="13" y="-46.3" font-family="Helvetica,sans-Serif" font-size="11.00" fill="#000000">&lt; 0</text>
<polygon fill="#ffffff" stroke="transparent" points="68,-40.2 68,-59.2 118,-59.2 118,-40.2 68,-40.2"/>
<polygon fill="none" stroke="#000000" points="68,-40.2 68,-59.2 118,-59.2 118,-40.2 68,-40.2"/>
<text text-anchor="start" x="108.8862" y="-46.3" font-family="Helvetica,sans-Serif" font-size="11.00" fill="#000000"> &#160;</text>
<polygon fill="#ffffff" stroke="transparent" points="118,-40.2 118,-59.2 216,-59.2 216,-40.2 118,-40.2"/>
<polygon fill="none" stroke="#000000" points="118,-40.2 118,-59.2 216,-59.2 216,-40.2 118,-40.2"/>
<text text-anchor="start" x="197.4053" y="-46.3" font-family="Helvetica,sans-Serif" font-size="11.00" fill="#000000">0 &gt;</text>
<polygon fill="none" stroke="#000000" stroke-width="2" points="9,-39.2 9,-149.2 217,-149.2 217,-39.2 9,-39.2"/>
</a>
</g>
</g>
</g>
</svg>
