<?xml version="1.0" encoding="UTF-8" standalone="no"?>
<!DOCTYPE svg PUBLIC "-//W3C//DTD SVG 1.1//EN"
 "http://www.w3.org/Graphics/SVG/1.1/DTD/svg11.dtd">
<!-- Generated by graphviz version 2.40.1 (20161225.0304)
 -->
<!-- Title: oneDegreeRelationshipsDiagram Pages: 1 -->
<svg width="266pt" height="382pt"
 viewBox="0.00 0.00 266.00 382.20" xmlns="http://www.w3.org/2000/svg" xmlns:xlink="http://www.w3.org/1999/xlink">
<g id="graph0" class="graph" transform="scale(1 1) rotate(0) translate(4 378.2)">
<title>oneDegreeRelationshipsDiagram</title>
<polygon fill="#ffffff" stroke="transparent" points="-4,4 -4,-378.2 262,-378.2 262,4 -4,4"/>
<text text-anchor="middle" x="72.4936" y="-7.3" font-family="Helvetica,sans-Serif" font-size="11.00" fill="#000000">Generated by SchemaSpy</text>
<!-- export_job -->
<g id="node1" class="node">
<title>export_job</title>
<g id="a_node1"><a xlink:href="../../tables/export_job.html" xlink:title="export_job" target="_top">
<polygon fill="#ffffff" stroke="transparent" points="8,-38.2 8,-370.2 250,-370.2 250,-38.2 8,-38.2"/>
<polygon fill="#f5f5f5" stroke="transparent" points="10,-345.2 10,-368.2 248,-368.2 248,-345.2 10,-345.2"/>
<polygon fill="none" stroke="#000000" points="10,-345.2 10,-368.2 248,-368.2 248,-345.2 10,-345.2"/>
<text text-anchor="start" x="15" y="-353.8" font-family="Helvetica,sans-Serif" font-weight="bold" font-size="11.00" fill="#000000">export_job</text>
<text text-anchor="start" x="213.0437" y="-353.3" font-family="Helvetica,sans-Serif" font-size="11.00" fill="#000000">[table]</text>
<polygon fill="none" stroke="#000000" points="10,-323.2 10,-345.2 181,-345.2 181,-323.2 10,-323.2"/>
<image xlink:href="../../images/primaryKeys.png" width="11px" height="12px" preserveAspectRatio="xMinYMin meet" x="15" y="-340.2"/>
<text text-anchor="start" x="30" y="-330.3" font-family="Helvetica,sans-Serif" font-size="11.00" fill="#000000">id</text>
<polygon fill="none" stroke="#000000" points="181,-323.2 181,-345.2 248,-345.2 248,-323.2 181,-323.2"/>
<text text-anchor="start" x="184" y="-330.9" font-family="Helvetica,sans-Serif" font-size="11.00" fill="#000000">bigint[19]</text>
<polygon fill="#ffffff" stroke="transparent" points="10,-301.2 10,-323.2 181,-323.2 181,-301.2 10,-301.2"/>
<polygon fill="none" stroke="#000000" points="10,-301.2 10,-323.2 181,-323.2 181,-301.2 10,-301.2"/>
<text text-anchor="start" x="30" y="-308.3" font-family="Helvetica,sans-Serif" font-size="11.00" fill="#000000">uuid</text>
<polygon fill="none" stroke="#000000" points="181,-301.2 181,-323.2 248,-323.2 248,-301.2 181,-301.2"/>
<text text-anchor="start" x="184" y="-308.9" font-family="Helvetica,sans-Serif" font-size="11.00" fill="#000000">binary[16]</text>
<polygon fill="none" stroke="#000000" points="10,-279.2 10,-301.2 181,-301.2 181,-279.2 10,-279.2"/>
<text text-anchor="start" x="30" y="-286.3" font-family="Helvetica,sans-Serif" font-size="11.00" fill="#000000">user_id</text>
<polygon fill="none" stroke="#000000" points="181,-279.2 181,-301.2 248,-301.2 248,-279.2 181,-279.2"/>
<text text-anchor="start" x="184" y="-286.9" font-family="Helvetica,sans-Serif" font-size="11.00" fill="#000000">varchar[40]</text>
<polygon fill="none" stroke="#000000" points="10,-257.2 10,-279.2 181,-279.2 181,-257.2 10,-257.2"/>
<text text-anchor="start" x="30" y="-264.3" font-family="Helvetica,sans-Serif" font-size="11.00" fill="#000000">client_id</text>
<polygon fill="none" stroke="#000000" points="181,-257.2 181,-279.2 248,-279.2 248,-257.2 181,-257.2"/>
<text text-anchor="start" x="184" y="-264.9" font-family="Helvetica,sans-Serif" font-size="11.00" fill="#000000">varchar[80]</text>
<polygon fill="none" stroke="#000000" points="10,-235.2 10,-257.2 181,-257.2 181,-235.2 10,-235.2"/>
<text text-anchor="start" x="30" y="-242.3" font-family="Helvetica,sans-Serif" font-size="11.00" fill="#000000">status</text>
<polygon fill="none" stroke="#000000" points="181,-235.2 181,-257.2 248,-257.2 248,-235.2 181,-235.2"/>
<text text-anchor="start" x="184" y="-242.9" font-family="Helvetica,sans-Serif" font-size="11.00" fill="#000000">varchar[40]</text>
<polygon fill="none" stroke="#000000" points="10,-213.2 10,-235.2 181,-235.2 181,-213.2 10,-213.2"/>
<text text-anchor="start" x="30" y="-220.3" font-family="Helvetica,sans-Serif" font-size="11.00" fill="#000000">start_time</text>
<polygon fill="none" stroke="#000000" points="181,-213.2 181,-235.2 248,-235.2 248,-213.2 181,-213.2"/>
<text text-anchor="start" x="184" y="-220.9" font-family="Helvetica,sans-Serif" font-size="11.00" fill="#000000">datetime[19]</text>
<polygon fill="none" stroke="#000000" points="10,-191.2 10,-213.2 181,-213.2 181,-191.2 10,-191.2"/>
<text text-anchor="start" x="30" y="-198.3" font-family="Helvetica,sans-Serif" font-size="11.00" fill="#000000">resource_include_time</text>
<polygon fill="none" stroke="#000000" points="181,-191.2 181,-213.2 248,-213.2 248,-191.2 181,-191.2"/>
<text text-anchor="start" x="184" y="-198.9" font-family="Helvetica,sans-Serif" font-size="11.00" fill="#000000">datetime[19]</text>
<polygon fill="none" stroke="#000000" points="10,-169.2 10,-191.2 181,-191.2 181,-169.2 10,-169.2"/>
<text text-anchor="start" x="30" y="-176.3" font-family="Helvetica,sans-Serif" font-size="11.00" fill="#000000">output_format</text>
<polygon fill="none" stroke="#000000" points="181,-169.2 181,-191.2 248,-191.2 248,-169.2 181,-169.2"/>
<text text-anchor="start" x="183.9365" y="-176.9" font-family="Helvetica,sans-Serif" font-size="11.00" fill="#000000">varchar[128]</text>
<polygon fill="none" stroke="#000000" points="10,-147.2 10,-169.2 181,-169.2 181,-147.2 10,-147.2"/>
<text text-anchor="start" x="30" y="-154.3" font-family="Helvetica,sans-Serif" font-size="11.00" fill="#000000">request_uri</text>
<polygon fill="none" stroke="#000000" points="181,-147.2 181,-169.2 248,-169.2 248,-147.2 181,-147.2"/>
<text text-anchor="start" x="183.9365" y="-154.9" font-family="Helvetica,sans-Serif" font-size="11.00" fill="#000000">varchar[128]</text>
<polygon fill="none" stroke="#000000" points="10,-125.2 10,-147.2 181,-147.2 181,-125.2 10,-125.2"/>
<text text-anchor="start" x="30" y="-132.3" font-family="Helvetica,sans-Serif" font-size="11.00" fill="#000000">resources</text>
<polygon fill="none" stroke="#000000" points="181,-125.2 181,-147.2 248,-147.2 248,-125.2 181,-125.2"/>
<text text-anchor="start" x="184" y="-132.9" font-family="Helvetica,sans-Serif" font-size="11.00" fill="#000000">text[65535]</text>
<polygon fill="none" stroke="#000000" points="10,-103.2 10,-125.2 181,-125.2 181,-103.2 10,-103.2"/>
<text text-anchor="start" x="30" y="-110.3" font-family="Helvetica,sans-Serif" font-size="11.00" fill="#000000">output</text>
<polygon fill="none" stroke="#000000" points="181,-103.2 181,-125.2 248,-125.2 248,-103.2 181,-103.2"/>
<text text-anchor="start" x="184" y="-110.9" font-family="Helvetica,sans-Serif" font-size="11.00" fill="#000000">text[65535]</text>
<polygon fill="none" stroke="#000000" points="10,-81.2 10,-103.2 181,-103.2 181,-81.2 10,-81.2"/>
<text text-anchor="start" x="30" y="-88.3" font-family="Helvetica,sans-Serif" font-size="11.00" fill="#000000">errors</text>
<polygon fill="none" stroke="#000000" points="181,-81.2 181,-103.2 248,-103.2 248,-81.2 181,-81.2"/>
<text text-anchor="start" x="184" y="-88.9" font-family="Helvetica,sans-Serif" font-size="11.00" fill="#000000">text[65535]</text>
<polygon fill="none" stroke="#000000" points="10,-59.2 10,-81.2 181,-81.2 181,-59.2 10,-59.2"/>
<text text-anchor="start" x="30" y="-66.3" font-family="Helvetica,sans-Serif" font-size="11.00" fill="#000000">access_token_id</text>
<polygon fill="none" stroke="#000000" points="181,-59.2 181,-81.2 248,-81.2 248,-59.2 181,-59.2"/>
<text text-anchor="start" x="184" y="-66.9" font-family="Helvetica,sans-Serif" font-size="11.00" fill="#000000">text[65535]</text>
<polygon fill="#ffffff" stroke="transparent" points="10,-40.2 10,-59.2 100,-59.2 100,-40.2 10,-40.2"/>
<polygon fill="none" stroke="#000000" points="10,-40.2 10,-59.2 100,-59.2 100,-40.2 10,-40.2"/>
<text text-anchor="start" x="13" y="-46.3" font-family="Helvetica,sans-Serif" font-size="11.00" fill="#000000">&lt; 0</text>
<polygon fill="#ffffff" stroke="transparent" points="100,-40.2 100,-59.2 181,-59.2 181,-40.2 100,-40.2"/>
<polygon fill="none" stroke="#000000" points="100,-40.2 100,-59.2 181,-59.2 181,-40.2 100,-40.2"/>
<text text-anchor="start" x="171.8862" y="-46.3" font-family="Helvetica,sans-Serif" font-size="11.00" fill="#000000"> &#160;</text>
<polygon fill="#ffffff" stroke="transparent" points="181,-40.2 181,-59.2 248,-59.2 248,-40.2 181,-40.2"/>
<polygon fill="none" stroke="#000000" points="181,-40.2 181,-59.2 248,-59.2 248,-40.2 181,-40.2"/>
<text text-anchor="start" x="229.4053" y="-46.3" font-family="Helvetica,sans-Serif" font-size="11.00" fill="#000000">0 &gt;</text>
<polygon fill="none" stroke="#000000" stroke-width="2" points="9,-39.2 9,-369.2 249,-369.2 249,-39.2 9,-39.2"/>
</a>
</g>
</g>
</g>
</svg>
