<?xml version="1.0" encoding="UTF-8" standalone="no"?>
<!DOCTYPE svg PUBLIC "-//W3C//DTD SVG 1.1//EN"
 "http://www.w3.org/Graphics/SVG/1.1/DTD/svg11.dtd">
<!-- Generated by graphviz version 2.40.1 (20161225.0304)
 -->
<!-- Title: oneDegreeRelationshipsDiagram Pages: 1 -->
<svg width="298pt" height="294pt"
 viewBox="0.00 0.00 298.00 294.20" xmlns="http://www.w3.org/2000/svg" xmlns:xlink="http://www.w3.org/1999/xlink">
<g id="graph0" class="graph" transform="scale(1 1) rotate(0) translate(4 290.2)">
<title>oneDegreeRelationshipsDiagram</title>
<polygon fill="#ffffff" stroke="transparent" points="-4,4 -4,-290.2 294,-290.2 294,4 -4,4"/>
<text text-anchor="middle" x="72.4936" y="-7.3" font-family="Helvetica,sans-Serif" font-size="11.00" fill="#000000">Generated by SchemaSpy</text>
<!-- external_procedures -->
<g id="node1" class="node">
<title>external_procedures</title>
<g id="a_node1"><a xlink:href="../../tables/external_procedures.html" xlink:title="external_procedures" target="_top">
<polygon fill="#ffffff" stroke="transparent" points="8,-38.2 8,-282.2 282,-282.2 282,-38.2 8,-38.2"/>
<polygon fill="#f5f5f5" stroke="transparent" points="10,-257.2 10,-280.2 280,-280.2 280,-257.2 10,-257.2"/>
<polygon fill="none" stroke="#000000" points="10,-257.2 10,-280.2 280,-280.2 280,-257.2 10,-257.2"/>
<text text-anchor="start" x="15" y="-265.8" font-family="Helvetica,sans-Serif" font-weight="bold" font-size="11.00" fill="#000000">external_procedures</text>
<text text-anchor="start" x="245.0437" y="-265.3" font-family="Helvetica,sans-Serif" font-size="11.00" fill="#000000">[table]</text>
<polygon fill="none" stroke="#000000" points="10,-235.2 10,-257.2 169,-257.2 169,-235.2 10,-235.2"/>
<image xlink:href="../../images/primaryKeys.png" width="11px" height="12px" preserveAspectRatio="xMinYMin meet" x="15" y="-252.2"/>
<text text-anchor="start" x="30" y="-242.3" font-family="Helvetica,sans-Serif" font-size="11.00" fill="#000000">ep_id</text>
<polygon fill="none" stroke="#000000" points="169,-235.2 169,-257.2 280,-257.2 280,-235.2 169,-235.2"/>
<text text-anchor="start" x="172" y="-242.9" font-family="Helvetica,sans-Serif" font-size="11.00" fill="#000000">int[10]</text>
<polygon fill="none" stroke="#000000" points="10,-213.2 10,-235.2 169,-235.2 169,-213.2 10,-213.2"/>
<text text-anchor="start" x="30" y="-220.3" font-family="Helvetica,sans-Serif" font-size="11.00" fill="#000000">ep_date</text>
<polygon fill="none" stroke="#000000" points="169,-213.2 169,-235.2 280,-235.2 280,-213.2 169,-213.2"/>
<text text-anchor="start" x="172" y="-220.9" font-family="Helvetica,sans-Serif" font-size="11.00" fill="#000000">date[10]</text>
<polygon fill="none" stroke="#000000" points="10,-191.2 10,-213.2 169,-213.2 169,-191.2 10,-191.2"/>
<text text-anchor="start" x="30" y="-198.3" font-family="Helvetica,sans-Serif" font-size="11.00" fill="#000000">ep_code_type</text>
<polygon fill="none" stroke="#000000" points="169,-191.2 169,-213.2 280,-213.2 280,-191.2 169,-191.2"/>
<text text-anchor="start" x="172" y="-198.9" font-family="Helvetica,sans-Serif" font-size="11.00" fill="#000000">varchar[20]</text>
<polygon fill="none" stroke="#000000" points="10,-169.2 10,-191.2 169,-191.2 169,-169.2 10,-169.2"/>
<text text-anchor="start" x="30" y="-176.3" font-family="Helvetica,sans-Serif" font-size="11.00" fill="#000000">ep_code</text>
<polygon fill="none" stroke="#000000" points="169,-169.2 169,-191.2 280,-191.2 280,-169.2 169,-169.2"/>
<text text-anchor="start" x="172" y="-176.9" font-family="Helvetica,sans-Serif" font-size="11.00" fill="#000000">varchar[9]</text>
<polygon fill="#ffffff" stroke="transparent" points="10,-147.2 10,-169.2 169,-169.2 169,-147.2 10,-147.2"/>
<polygon fill="none" stroke="#000000" points="10,-147.2 10,-169.2 169,-169.2 169,-147.2 10,-147.2"/>
<text text-anchor="start" x="30" y="-154.3" font-family="Helvetica,sans-Serif" font-size="11.00" fill="#000000">ep_pid</text>
<polygon fill="none" stroke="#000000" points="169,-147.2 169,-169.2 280,-169.2 280,-147.2 169,-147.2"/>
<text text-anchor="start" x="172" y="-154.9" font-family="Helvetica,sans-Serif" font-size="11.00" fill="#000000">int[10]</text>
<polygon fill="none" stroke="#000000" points="10,-125.2 10,-147.2 169,-147.2 169,-125.2 10,-125.2"/>
<text text-anchor="start" x="30" y="-132.3" font-family="Helvetica,sans-Serif" font-size="11.00" fill="#000000">ep_encounter</text>
<polygon fill="none" stroke="#000000" points="169,-125.2 169,-147.2 280,-147.2 280,-125.2 169,-125.2"/>
<text text-anchor="start" x="172" y="-132.9" font-family="Helvetica,sans-Serif" font-size="11.00" fill="#000000">int[10]</text>
<polygon fill="none" stroke="#000000" points="10,-103.2 10,-125.2 169,-125.2 169,-103.2 10,-103.2"/>
<text text-anchor="start" x="30" y="-110.3" font-family="Helvetica,sans-Serif" font-size="11.00" fill="#000000">ep_code_text</text>
<polygon fill="none" stroke="#000000" points="169,-103.2 169,-125.2 280,-125.2 280,-103.2 169,-103.2"/>
<text text-anchor="start" x="171.6115" y="-110.9" font-family="Helvetica,sans-Serif" font-size="11.00" fill="#000000">longtext[2147483647]</text>
<polygon fill="none" stroke="#000000" points="10,-81.2 10,-103.2 169,-103.2 169,-81.2 10,-81.2"/>
<text text-anchor="start" x="30" y="-88.3" font-family="Helvetica,sans-Serif" font-size="11.00" fill="#000000">ep_facility_id</text>
<polygon fill="none" stroke="#000000" points="169,-81.2 169,-103.2 280,-103.2 280,-81.2 169,-81.2"/>
<text text-anchor="start" x="172" y="-88.9" font-family="Helvetica,sans-Serif" font-size="11.00" fill="#000000">varchar[255]</text>
<polygon fill="none" stroke="#000000" points="10,-59.2 10,-81.2 169,-81.2 169,-59.2 10,-59.2"/>
<text text-anchor="start" x="30" y="-66.3" font-family="Helvetica,sans-Serif" font-size="11.00" fill="#000000">ep_external_id</text>
<polygon fill="none" stroke="#000000" points="169,-59.2 169,-81.2 280,-81.2 280,-59.2 169,-59.2"/>
<text text-anchor="start" x="172" y="-66.9" font-family="Helvetica,sans-Serif" font-size="11.00" fill="#000000">varchar[255]</text>
<polygon fill="#ffffff" stroke="transparent" points="10,-40.2 10,-59.2 94,-59.2 94,-40.2 10,-40.2"/>
<polygon fill="none" stroke="#000000" points="10,-40.2 10,-59.2 94,-59.2 94,-40.2 10,-40.2"/>
<text text-anchor="start" x="13" y="-46.3" font-family="Helvetica,sans-Serif" font-size="11.00" fill="#000000">&lt; 0</text>
<polygon fill="#ffffff" stroke="transparent" points="94,-40.2 94,-59.2 169,-59.2 169,-40.2 94,-40.2"/>
<polygon fill="none" stroke="#000000" points="94,-40.2 94,-59.2 169,-59.2 169,-40.2 94,-40.2"/>
<text text-anchor="start" x="159.8862" y="-46.3" font-family="Helvetica,sans-Serif" font-size="11.00" fill="#000000"> &#160;</text>
<polygon fill="#ffffff" stroke="transparent" points="169,-40.2 169,-59.2 280,-59.2 280,-40.2 169,-40.2"/>
<polygon fill="none" stroke="#000000" points="169,-40.2 169,-59.2 280,-59.2 280,-40.2 169,-40.2"/>
<text text-anchor="start" x="261.4053" y="-46.3" font-family="Helvetica,sans-Serif" font-size="11.00" fill="#000000">0 &gt;</text>
<polygon fill="none" stroke="#000000" stroke-width="2" points="9,-39.2 9,-281.2 281,-281.2 281,-39.2 9,-39.2"/>
</a>
</g>
</g>
</g>
</svg>
