<?xml version="1.0" encoding="UTF-8" standalone="no"?>
<!DOCTYPE svg PUBLIC "-//W3C//DTD SVG 1.1//EN"
 "http://www.w3.org/Graphics/SVG/1.1/DTD/svg11.dtd">
<!-- Generated by graphviz version 2.40.1 (20161225.0304)
 -->
<!-- Title: oneDegreeRelationshipsDiagram Pages: 1 -->
<svg width="944pt" height="641pt"
 viewBox="0.00 0.00 944.00 640.70" xmlns="http://www.w3.org/2000/svg" xmlns:xlink="http://www.w3.org/1999/xlink">
<g id="graph0" class="graph" transform="scale(1 1) rotate(0) translate(4 636.7)">
<title>oneDegreeRelationshipsDiagram</title>
<polygon fill="#ffffff" stroke="transparent" points="-4,4 -4,-636.7 940,-636.7 940,4 -4,4"/>
<text text-anchor="middle" x="72.4936" y="-7.3" font-family="Helvetica,sans-Serif" font-size="11.00" fill="#000000">Generated by SchemaSpy</text>
<!-- form_treatment_plan -->
<g id="node1" class="node">
<title>form_treatment_plan</title>
<g id="a_node1"><a xlink:href="../../tables/form_treatment_plan.html" xlink:title="form_treatment_plan" target="_top">
<polygon fill="#ffffff" stroke="transparent" points="627,-38.2 627,-480.2 928,-480.2 928,-38.2 627,-38.2"/>
<polygon fill="#f5f5f5" stroke="transparent" points="629.5,-455.2 629.5,-478.2 926.5,-478.2 926.5,-455.2 629.5,-455.2"/>
<polygon fill="none" stroke="#000000" points="629.5,-455.2 629.5,-478.2 926.5,-478.2 926.5,-455.2 629.5,-455.2"/>
<text text-anchor="start" x="634.5" y="-463.8" font-family="Helvetica,sans-Serif" font-weight="bold" font-size="11.00" fill="#000000">form_treatment_plan</text>
<text text-anchor="start" x="891.5437" y="-463.3" font-family="Helvetica,sans-Serif" font-size="11.00" fill="#000000">[table]</text>
<polygon fill="none" stroke="#000000" points="629.5,-433.2 629.5,-455.2 859.5,-455.2 859.5,-433.2 629.5,-433.2"/>
<image xlink:href="../../images/primaryKeys.png" width="11px" height="12px" preserveAspectRatio="xMinYMin meet" x="634.5" y="-450.2"/>
<text text-anchor="start" x="649.5" y="-440.3" font-family="Helvetica,sans-Serif" font-size="11.00" fill="#000000">id</text>
<polygon fill="none" stroke="#000000" points="859.5,-433.2 859.5,-455.2 926.5,-455.2 926.5,-433.2 859.5,-433.2"/>
<text text-anchor="start" x="862.5" y="-440.9" font-family="Helvetica,sans-Serif" font-size="11.00" fill="#000000">bigint[19]</text>
<polygon fill="none" stroke="#000000" points="629.5,-411.2 629.5,-433.2 859.5,-433.2 859.5,-411.2 629.5,-411.2"/>
<text text-anchor="start" x="649.5" y="-418.3" font-family="Helvetica,sans-Serif" font-size="11.00" fill="#000000">date</text>
<polygon fill="none" stroke="#000000" points="859.5,-411.2 859.5,-433.2 926.5,-433.2 926.5,-411.2 859.5,-411.2"/>
<text text-anchor="start" x="862.5" y="-418.9" font-family="Helvetica,sans-Serif" font-size="11.00" fill="#000000">datetime[19]</text>
<polygon fill="none" stroke="#000000" points="629.5,-389.2 629.5,-411.2 859.5,-411.2 859.5,-389.2 629.5,-389.2"/>
<image xlink:href="../../images/foreignKeys.png" width="11px" height="12px" preserveAspectRatio="xMinYMin meet" x="634.5" y="-406.2"/>
<text text-anchor="start" x="649.5" y="-396.3" font-family="Helvetica,sans-Serif" font-size="11.00" fill="#000000">pid</text>
<polygon fill="none" stroke="#000000" points="859.5,-389.2 859.5,-411.2 926.5,-411.2 926.5,-389.2 859.5,-389.2"/>
<text text-anchor="start" x="862.5" y="-396.9" font-family="Helvetica,sans-Serif" font-size="11.00" fill="#000000">bigint[19]</text>
<polygon fill="none" stroke="#000000" points="629.5,-367.2 629.5,-389.2 859.5,-389.2 859.5,-367.2 629.5,-367.2"/>
<image xlink:href="../../images/foreignKeys.png" width="11px" height="12px" preserveAspectRatio="xMinYMin meet" x="634.5" y="-384.2"/>
<text text-anchor="start" x="649.5" y="-374.3" font-family="Helvetica,sans-Serif" font-size="11.00" fill="#000000">user</text>
<polygon fill="none" stroke="#000000" points="859.5,-367.2 859.5,-389.2 926.5,-389.2 926.5,-367.2 859.5,-367.2"/>
<text text-anchor="start" x="862.4365" y="-374.9" font-family="Helvetica,sans-Serif" font-size="11.00" fill="#000000">varchar[255]</text>
<polygon fill="none" stroke="#000000" points="629.5,-345.2 629.5,-367.2 859.5,-367.2 859.5,-345.2 629.5,-345.2"/>
<image xlink:href="../../images/foreignKeys.png" width="11px" height="12px" preserveAspectRatio="xMinYMin meet" x="634.5" y="-362.2"/>
<text text-anchor="start" x="649.5" y="-352.3" font-family="Helvetica,sans-Serif" font-size="11.00" fill="#000000">groupname</text>
<polygon fill="none" stroke="#000000" points="859.5,-345.2 859.5,-367.2 926.5,-367.2 926.5,-345.2 859.5,-345.2"/>
<text text-anchor="start" x="862.4365" y="-352.9" font-family="Helvetica,sans-Serif" font-size="11.00" fill="#000000">varchar[255]</text>
<polygon fill="none" stroke="#000000" points="629.5,-323.2 629.5,-345.2 859.5,-345.2 859.5,-323.2 629.5,-323.2"/>
<text text-anchor="start" x="649.5" y="-330.3" font-family="Helvetica,sans-Serif" font-size="11.00" fill="#000000">authorized</text>
<polygon fill="none" stroke="#000000" points="859.5,-323.2 859.5,-345.2 926.5,-345.2 926.5,-323.2 859.5,-323.2"/>
<text text-anchor="start" x="862.5" y="-330.9" font-family="Helvetica,sans-Serif" font-size="11.00" fill="#000000">tinyint[3]</text>
<polygon fill="none" stroke="#000000" points="629.5,-301.2 629.5,-323.2 859.5,-323.2 859.5,-301.2 629.5,-301.2"/>
<text text-anchor="start" x="649.5" y="-308.3" font-family="Helvetica,sans-Serif" font-size="11.00" fill="#000000">activity</text>
<polygon fill="none" stroke="#000000" points="859.5,-301.2 859.5,-323.2 926.5,-323.2 926.5,-301.2 859.5,-301.2"/>
<text text-anchor="start" x="862.5" y="-308.9" font-family="Helvetica,sans-Serif" font-size="11.00" fill="#000000">tinyint[3]</text>
<polygon fill="none" stroke="#000000" points="629.5,-279.2 629.5,-301.2 859.5,-301.2 859.5,-279.2 629.5,-279.2"/>
<text text-anchor="start" x="649.5" y="-286.3" font-family="Helvetica,sans-Serif" font-size="11.00" fill="#000000">client_name</text>
<polygon fill="none" stroke="#000000" points="859.5,-279.2 859.5,-301.2 926.5,-301.2 926.5,-279.2 859.5,-279.2"/>
<text text-anchor="start" x="862.4365" y="-286.9" font-family="Helvetica,sans-Serif" font-size="11.00" fill="#000000">varchar[255]</text>
<polygon fill="none" stroke="#000000" points="629.5,-257.2 629.5,-279.2 859.5,-279.2 859.5,-257.2 629.5,-257.2"/>
<text text-anchor="start" x="649.5" y="-264.3" font-family="Helvetica,sans-Serif" font-size="11.00" fill="#000000">client_number</text>
<polygon fill="none" stroke="#000000" points="859.5,-257.2 859.5,-279.2 926.5,-279.2 926.5,-257.2 859.5,-257.2"/>
<text text-anchor="start" x="862.5" y="-264.9" font-family="Helvetica,sans-Serif" font-size="11.00" fill="#000000">bigint[19]</text>
<polygon fill="none" stroke="#000000" points="629.5,-235.2 629.5,-257.2 859.5,-257.2 859.5,-235.2 629.5,-235.2"/>
<text text-anchor="start" x="649.5" y="-242.3" font-family="Helvetica,sans-Serif" font-size="11.00" fill="#000000">provider</text>
<polygon fill="none" stroke="#000000" points="859.5,-235.2 859.5,-257.2 926.5,-257.2 926.5,-235.2 859.5,-235.2"/>
<text text-anchor="start" x="862.4365" y="-242.9" font-family="Helvetica,sans-Serif" font-size="11.00" fill="#000000">varchar[255]</text>
<polygon fill="none" stroke="#000000" points="629.5,-213.2 629.5,-235.2 859.5,-235.2 859.5,-213.2 629.5,-213.2"/>
<text text-anchor="start" x="649.5" y="-220.3" font-family="Helvetica,sans-Serif" font-size="11.00" fill="#000000">admit_date</text>
<polygon fill="none" stroke="#000000" points="859.5,-213.2 859.5,-235.2 926.5,-235.2 926.5,-213.2 859.5,-213.2"/>
<text text-anchor="start" x="862.4365" y="-220.9" font-family="Helvetica,sans-Serif" font-size="11.00" fill="#000000">varchar[255]</text>
<polygon fill="none" stroke="#000000" points="629.5,-191.2 629.5,-213.2 859.5,-213.2 859.5,-191.2 629.5,-191.2"/>
<text text-anchor="start" x="649.5" y="-198.3" font-family="Helvetica,sans-Serif" font-size="11.00" fill="#000000">presenting_issues</text>
<polygon fill="none" stroke="#000000" points="859.5,-191.2 859.5,-213.2 926.5,-213.2 926.5,-191.2 859.5,-191.2"/>
<text text-anchor="start" x="862.5" y="-198.9" font-family="Helvetica,sans-Serif" font-size="11.00" fill="#000000">text[65535]</text>
<polygon fill="none" stroke="#000000" points="629.5,-169.2 629.5,-191.2 859.5,-191.2 859.5,-169.2 629.5,-169.2"/>
<text text-anchor="start" x="649.5" y="-176.3" font-family="Helvetica,sans-Serif" font-size="11.00" fill="#000000">patient_history</text>
<polygon fill="none" stroke="#000000" points="859.5,-169.2 859.5,-191.2 926.5,-191.2 926.5,-169.2 859.5,-169.2"/>
<text text-anchor="start" x="862.5" y="-176.9" font-family="Helvetica,sans-Serif" font-size="11.00" fill="#000000">text[65535]</text>
<polygon fill="none" stroke="#000000" points="629.5,-147.2 629.5,-169.2 859.5,-169.2 859.5,-147.2 629.5,-147.2"/>
<text text-anchor="start" x="649.5" y="-154.3" font-family="Helvetica,sans-Serif" font-size="11.00" fill="#000000">medications</text>
<polygon fill="none" stroke="#000000" points="859.5,-147.2 859.5,-169.2 926.5,-169.2 926.5,-147.2 859.5,-147.2"/>
<text text-anchor="start" x="862.5" y="-154.9" font-family="Helvetica,sans-Serif" font-size="11.00" fill="#000000">text[65535]</text>
<polygon fill="none" stroke="#000000" points="629.5,-125.2 629.5,-147.2 859.5,-147.2 859.5,-125.2 629.5,-125.2"/>
<text text-anchor="start" x="649.5" y="-132.3" font-family="Helvetica,sans-Serif" font-size="11.00" fill="#000000">anyother_relevant_information</text>
<polygon fill="none" stroke="#000000" points="859.5,-125.2 859.5,-147.2 926.5,-147.2 926.5,-125.2 859.5,-125.2"/>
<text text-anchor="start" x="862.5" y="-132.9" font-family="Helvetica,sans-Serif" font-size="11.00" fill="#000000">text[65535]</text>
<polygon fill="none" stroke="#000000" points="629.5,-103.2 629.5,-125.2 859.5,-125.2 859.5,-103.2 629.5,-103.2"/>
<text text-anchor="start" x="649.5" y="-110.3" font-family="Helvetica,sans-Serif" font-size="11.00" fill="#000000">diagnosis</text>
<polygon fill="none" stroke="#000000" points="859.5,-103.2 859.5,-125.2 926.5,-125.2 926.5,-103.2 859.5,-103.2"/>
<text text-anchor="start" x="862.5" y="-110.9" font-family="Helvetica,sans-Serif" font-size="11.00" fill="#000000">text[65535]</text>
<polygon fill="none" stroke="#000000" points="629.5,-81.2 629.5,-103.2 859.5,-103.2 859.5,-81.2 629.5,-81.2"/>
<text text-anchor="start" x="649.5" y="-88.3" font-family="Helvetica,sans-Serif" font-size="11.00" fill="#000000">treatment_received</text>
<polygon fill="none" stroke="#000000" points="859.5,-81.2 859.5,-103.2 926.5,-103.2 926.5,-81.2 859.5,-81.2"/>
<text text-anchor="start" x="862.5" y="-88.9" font-family="Helvetica,sans-Serif" font-size="11.00" fill="#000000">text[65535]</text>
<polygon fill="none" stroke="#000000" points="629.5,-59.2 629.5,-81.2 859.5,-81.2 859.5,-59.2 629.5,-59.2"/>
<text text-anchor="start" x="649.5" y="-66.3" font-family="Helvetica,sans-Serif" font-size="11.00" fill="#000000">recommendation_for_follow_up</text>
<polygon fill="none" stroke="#000000" points="859.5,-59.2 859.5,-81.2 926.5,-81.2 926.5,-59.2 859.5,-59.2"/>
<text text-anchor="start" x="862.5" y="-66.9" font-family="Helvetica,sans-Serif" font-size="11.00" fill="#000000">text[65535]</text>
<polygon fill="#ffffff" stroke="transparent" points="629.5,-40.2 629.5,-59.2 748.5,-59.2 748.5,-40.2 629.5,-40.2"/>
<polygon fill="none" stroke="#000000" points="629.5,-40.2 629.5,-59.2 748.5,-59.2 748.5,-40.2 629.5,-40.2"/>
<text text-anchor="start" x="632.5" y="-46.3" font-family="Helvetica,sans-Serif" font-size="11.00" fill="#000000">&lt; 4</text>
<polygon fill="#ffffff" stroke="transparent" points="748.5,-40.2 748.5,-59.2 859.5,-59.2 859.5,-40.2 748.5,-40.2"/>
<polygon fill="none" stroke="#000000" points="748.5,-40.2 748.5,-59.2 859.5,-59.2 859.5,-40.2 748.5,-40.2"/>
<text text-anchor="start" x="850.3862" y="-46.3" font-family="Helvetica,sans-Serif" font-size="11.00" fill="#000000"> &#160;</text>
<polygon fill="#ffffff" stroke="transparent" points="859.5,-40.2 859.5,-59.2 926.5,-59.2 926.5,-40.2 859.5,-40.2"/>
<polygon fill="none" stroke="#000000" points="859.5,-40.2 859.5,-59.2 926.5,-59.2 926.5,-40.2 859.5,-40.2"/>
<text text-anchor="start" x="907.9053" y="-46.3" font-family="Helvetica,sans-Serif" font-size="11.00" fill="#000000">0 &gt;</text>
<polygon fill="none" stroke="#000000" stroke-width="2" points="628,-39.2 628,-479.2 927,-479.2 927,-39.2 628,-39.2"/>
</a>
</g>
</g>
<!-- groups -->
<g id="node2" class="node">
<title>groups</title>
<g id="a_node2"><a xlink:href="../../tables/groups.html" xlink:title="groups" target="_top">
<polygon fill="#ffffff" stroke="transparent" points="466,-237.7 466,-342.7 552,-342.7 552,-237.7 466,-237.7"/>
<polygon fill="#f5f5f5" stroke="transparent" points="466,-319.2 466,-342.2 552,-342.2 552,-319.2 466,-319.2"/>
<polygon fill="none" stroke="#000000" points="466,-319.2 466,-342.2 552,-342.2 552,-319.2 466,-319.2"/>
<text text-anchor="start" x="471" y="-327.8" font-family="Helvetica,sans-Serif" font-weight="bold" font-size="11.00" fill="#000000">groups</text>
<text text-anchor="start" x="517.5219" y="-327.3" font-family="Helvetica,sans-Serif" font-size="11.00" fill="#000000">[table]</text>
<polygon fill="none" stroke="#000000" points="466,-297.2 466,-319.2 552,-319.2 552,-297.2 466,-297.2"/>
<image xlink:href="../../images/primaryKeys.png" width="11px" height="12px" preserveAspectRatio="xMinYMin meet" x="471" y="-314.2"/>
<text text-anchor="start" x="495" y="-304.3" font-family="Helvetica,sans-Serif" font-size="11.00" fill="#000000">id</text>
<polygon fill="none" stroke="#000000" points="466,-275.2 466,-297.2 552,-297.2 552,-275.2 466,-275.2"/>
<image xlink:href="../../images/primaryKeys.png" width="11px" height="12px" preserveAspectRatio="xMinYMin meet" x="471" y="-292.2"/>
<text text-anchor="start" x="495" y="-282.3" font-family="Helvetica,sans-Serif" font-size="11.00" fill="#000000">name</text>
<polygon fill="none" stroke="#000000" points="466,-256.2 466,-275.2 552,-275.2 552,-256.2 466,-256.2"/>
<text text-anchor="start" x="469" y="-262.3" font-family="Helvetica,sans-Serif" font-size="11.00" fill="#000000">...</text>
<polygon fill="#ffffff" stroke="transparent" points="466,-237.2 466,-256.2 498,-256.2 498,-237.2 466,-237.2"/>
<polygon fill="none" stroke="#000000" points="466,-237.2 466,-256.2 498,-256.2 498,-237.2 466,-237.2"/>
<text text-anchor="start" x="469" y="-243.3" font-family="Helvetica,sans-Serif" font-size="11.00" fill="#000000"> &#160;</text>
<polygon fill="#ffffff" stroke="transparent" points="498,-237.2 498,-256.2 520,-256.2 520,-237.2 498,-237.2"/>
<polygon fill="none" stroke="#000000" points="498,-237.2 498,-256.2 520,-256.2 520,-237.2 498,-237.2"/>
<text text-anchor="start" x="510.8862" y="-243.3" font-family="Helvetica,sans-Serif" font-size="11.00" fill="#000000"> &#160;</text>
<polygon fill="#ffffff" stroke="transparent" points="520,-237.2 520,-256.2 552,-256.2 552,-237.2 520,-237.2"/>
<polygon fill="none" stroke="#000000" points="520,-237.2 520,-256.2 552,-256.2 552,-237.2 520,-237.2"/>
<text text-anchor="start" x="533.4053" y="-243.3" font-family="Helvetica,sans-Serif" font-size="11.00" fill="#000000">8 &gt;</text>
</a>
</g>
</g>
<!-- form_treatment_plan&#45;&gt;groups -->
<g id="edge1" class="edge">
<title>form_treatment_plan:w&#45;&gt;groups:e</title>
<path fill="none" stroke="#000000" d="M615.1353,-353.3692C585.8925,-340.2733 592.7941,-286.2 552,-286.2"/>
<polygon fill="#000000" stroke="#000000" points="621.651,-354.6532 628.8039,-359.7321 625.5755,-355.4266 629.5,-356.2 629.5,-356.2 629.5,-356.2 625.5755,-355.4266 630.1961,-352.6679 621.651,-354.6532 621.651,-354.6532"/>
<ellipse fill="none" stroke="#000000" cx="618.5113" cy="-354.0345" rx="3.2" ry="3.2"/>
</g>
<!-- forms -->
<g id="node3" class="node">
<title>forms</title>
<g id="a_node3"><a xlink:href="../../tables/forms.html" xlink:title="forms" target="_top">
<polygon fill="#ffffff" stroke="transparent" points="440,-432.7 440,-581.7 578,-581.7 578,-432.7 440,-432.7"/>
<polygon fill="#f5f5f5" stroke="transparent" points="440,-558.2 440,-581.2 578,-581.2 578,-558.2 440,-558.2"/>
<polygon fill="none" stroke="#000000" points="440,-558.2 440,-581.2 578,-581.2 578,-558.2 440,-558.2"/>
<text text-anchor="start" x="445" y="-566.8" font-family="Helvetica,sans-Serif" font-weight="bold" font-size="11.00" fill="#000000">forms</text>
<text text-anchor="start" x="543.0437" y="-566.3" font-family="Helvetica,sans-Serif" font-size="11.00" fill="#000000">[table]</text>
<polygon fill="none" stroke="#000000" points="440,-536.2 440,-558.2 578,-558.2 578,-536.2 440,-536.2"/>
<image xlink:href="../../images/primaryKeys.png" width="11px" height="12px" preserveAspectRatio="xMinYMin meet" x="445" y="-553.2"/>
<text text-anchor="start" x="460" y="-543.3" font-family="Helvetica,sans-Serif" font-size="11.00" fill="#000000">id</text>
<polygon fill="#ffffff" stroke="transparent" points="440,-514.2 440,-536.2 578,-536.2 578,-514.2 440,-514.2"/>
<polygon fill="none" stroke="#000000" points="440,-514.2 440,-536.2 578,-536.2 578,-514.2 440,-514.2"/>
<text text-anchor="start" x="460" y="-521.3" font-family="Helvetica,sans-Serif" font-size="11.00" fill="#000000">encounter</text>
<polygon fill="none" stroke="#000000" points="440,-492.2 440,-514.2 578,-514.2 578,-492.2 440,-492.2"/>
<image xlink:href="../../images/primaryKeys.png" width="11px" height="12px" preserveAspectRatio="xMinYMin meet" x="445" y="-509.2"/>
<text text-anchor="start" x="460" y="-499.3" font-family="Helvetica,sans-Serif" font-size="11.00" fill="#000000">form_id</text>
<polygon fill="#ffffff" stroke="transparent" points="440,-470.2 440,-492.2 578,-492.2 578,-470.2 440,-470.2"/>
<polygon fill="none" stroke="#000000" points="440,-470.2 440,-492.2 578,-492.2 578,-470.2 440,-470.2"/>
<image xlink:href="../../images/foreignKeys.png" width="11px" height="12px" preserveAspectRatio="xMinYMin meet" x="445" y="-487.2"/>
<text text-anchor="start" x="460" y="-477.3" font-family="Helvetica,sans-Serif" font-size="11.00" fill="#000000">pid</text>
<polygon fill="none" stroke="#000000" points="440,-451.2 440,-470.2 578,-470.2 578,-451.2 440,-451.2"/>
<text text-anchor="start" x="443" y="-457.3" font-family="Helvetica,sans-Serif" font-size="11.00" fill="#000000">...</text>
<polygon fill="#ffffff" stroke="transparent" points="440,-432.2 440,-451.2 500,-451.2 500,-432.2 440,-432.2"/>
<polygon fill="none" stroke="#000000" points="440,-432.2 440,-451.2 500,-451.2 500,-432.2 440,-432.2"/>
<text text-anchor="start" x="443" y="-438.3" font-family="Helvetica,sans-Serif" font-size="11.00" fill="#000000">&lt; 1</text>
<polygon fill="#ffffff" stroke="transparent" points="500,-432.2 500,-451.2 531,-451.2 531,-432.2 500,-432.2"/>
<polygon fill="none" stroke="#000000" points="500,-432.2 500,-451.2 531,-451.2 531,-432.2 500,-432.2"/>
<text text-anchor="start" x="521.8862" y="-438.3" font-family="Helvetica,sans-Serif" font-size="11.00" fill="#000000"> &#160;</text>
<polygon fill="#ffffff" stroke="transparent" points="531,-432.2 531,-451.2 578,-451.2 578,-432.2 531,-432.2"/>
<polygon fill="none" stroke="#000000" points="531,-432.2 531,-451.2 578,-451.2 578,-432.2 531,-432.2"/>
<text text-anchor="start" x="553.2904" y="-438.3" font-family="Helvetica,sans-Serif" font-size="11.00" fill="#000000">10 &gt;</text>
</a>
</g>
</g>
<!-- form_treatment_plan&#45;&gt;forms -->
<g id="edge2" class="edge">
<title>form_treatment_plan:w&#45;&gt;forms:e</title>
<path fill="none" stroke="#000000" d="M619.2732,-446.4408C598.2119,-457.2179 608.7278,-503.2 578,-503.2"/>
<polygon fill="#000000" stroke="#000000" points="627.8624,-440.4639 629.5747,-448.2785 628.0118,-448.621 626.2994,-440.8064 627.8624,-440.4639"/>
<polyline fill="none" stroke="#000000" points="629.5,-444.2 625.5927,-445.0562 "/>
<ellipse fill="none" stroke="#000000" cx="622.4669" cy="-445.7411" rx="3.2" ry="3.2"/>
</g>
<!-- patient_data -->
<g id="node4" class="node">
<title>patient_data</title>
<g id="a_node4"><a xlink:href="../../tables/patient_data.html" xlink:title="patient_data" target="_top">
<polygon fill="#ffffff" stroke="transparent" points="224,-391.7 224,-628.7 391,-628.7 391,-391.7 224,-391.7"/>
<polygon fill="#f5f5f5" stroke="transparent" points="224.5,-605.2 224.5,-628.2 391.5,-628.2 391.5,-605.2 224.5,-605.2"/>
<polygon fill="none" stroke="#000000" points="224.5,-605.2 224.5,-628.2 391.5,-628.2 391.5,-605.2 224.5,-605.2"/>
<text text-anchor="start" x="229.5" y="-613.8" font-family="Helvetica,sans-Serif" font-weight="bold" font-size="11.00" fill="#000000">patient_data</text>
<text text-anchor="start" x="356.5437" y="-613.3" font-family="Helvetica,sans-Serif" font-size="11.00" fill="#000000">[table]</text>
<polygon fill="#ffffff" stroke="transparent" points="224.5,-583.2 224.5,-605.2 391.5,-605.2 391.5,-583.2 224.5,-583.2"/>
<polygon fill="none" stroke="#000000" points="224.5,-583.2 224.5,-605.2 391.5,-605.2 391.5,-583.2 224.5,-583.2"/>
<text text-anchor="start" x="244.5" y="-590.3" font-family="Helvetica,sans-Serif" font-size="11.00" fill="#000000">id</text>
<polygon fill="#ffffff" stroke="transparent" points="224.5,-561.2 224.5,-583.2 391.5,-583.2 391.5,-561.2 224.5,-561.2"/>
<polygon fill="none" stroke="#000000" points="224.5,-561.2 224.5,-583.2 391.5,-583.2 391.5,-561.2 224.5,-561.2"/>
<text text-anchor="start" x="244.5" y="-568.3" font-family="Helvetica,sans-Serif" font-size="11.00" fill="#000000">uuid</text>
<polygon fill="none" stroke="#000000" points="224.5,-539.2 224.5,-561.2 391.5,-561.2 391.5,-539.2 224.5,-539.2"/>
<image xlink:href="../../images/foreignKeys.png" width="11px" height="12px" preserveAspectRatio="xMinYMin meet" x="229.5" y="-556.2"/>
<text text-anchor="start" x="244.5" y="-546.3" font-family="Helvetica,sans-Serif" font-size="11.00" fill="#000000">pharmacy_id</text>
<polygon fill="none" stroke="#000000" points="224.5,-517.2 224.5,-539.2 391.5,-539.2 391.5,-517.2 224.5,-517.2"/>
<image xlink:href="../../images/foreignKeys.png" width="11px" height="12px" preserveAspectRatio="xMinYMin meet" x="229.5" y="-534.2"/>
<text text-anchor="start" x="244.5" y="-524.3" font-family="Helvetica,sans-Serif" font-size="11.00" fill="#000000">providerID</text>
<polygon fill="none" stroke="#000000" points="224.5,-495.2 224.5,-517.2 391.5,-517.2 391.5,-495.2 224.5,-495.2"/>
<image xlink:href="../../images/foreignKeys.png" width="11px" height="12px" preserveAspectRatio="xMinYMin meet" x="229.5" y="-512.2"/>
<text text-anchor="start" x="244.5" y="-502.3" font-family="Helvetica,sans-Serif" font-size="11.00" fill="#000000">ref_providerID</text>
<polygon fill="none" stroke="#000000" points="224.5,-473.2 224.5,-495.2 391.5,-495.2 391.5,-473.2 224.5,-473.2"/>
<image xlink:href="../../images/primaryKeys.png" width="11px" height="12px" preserveAspectRatio="xMinYMin meet" x="229.5" y="-490.2"/>
<text text-anchor="start" x="244.5" y="-480.3" font-family="Helvetica,sans-Serif" font-size="11.00" fill="#000000">pid</text>
<polygon fill="none" stroke="#000000" points="224.5,-451.2 224.5,-473.2 391.5,-473.2 391.5,-451.2 224.5,-451.2"/>
<image xlink:href="../../images/foreignKeys.png" width="11px" height="12px" preserveAspectRatio="xMinYMin meet" x="229.5" y="-468.2"/>
<text text-anchor="start" x="244.5" y="-458.3" font-family="Helvetica,sans-Serif" font-size="11.00" fill="#000000">created_by</text>
<polygon fill="none" stroke="#000000" points="224.5,-429.2 224.5,-451.2 391.5,-451.2 391.5,-429.2 224.5,-429.2"/>
<image xlink:href="../../images/foreignKeys.png" width="11px" height="12px" preserveAspectRatio="xMinYMin meet" x="229.5" y="-446.2"/>
<text text-anchor="start" x="244.5" y="-436.3" font-family="Helvetica,sans-Serif" font-size="11.00" fill="#000000">updated_by</text>
<polygon fill="none" stroke="#000000" points="224.5,-410.2 224.5,-429.2 391.5,-429.2 391.5,-410.2 224.5,-410.2"/>
<text text-anchor="start" x="227.5" y="-416.3" font-family="Helvetica,sans-Serif" font-size="11.00" fill="#000000">...</text>
<polygon fill="#ffffff" stroke="transparent" points="224.5,-391.2 224.5,-410.2 298.5,-410.2 298.5,-391.2 224.5,-391.2"/>
<polygon fill="none" stroke="#000000" points="224.5,-391.2 224.5,-410.2 298.5,-410.2 298.5,-391.2 224.5,-391.2"/>
<text text-anchor="start" x="227.5" y="-397.3" font-family="Helvetica,sans-Serif" font-size="11.00" fill="#000000">&lt; 5</text>
<polygon fill="#ffffff" stroke="transparent" points="298.5,-391.2 298.5,-410.2 337.5,-410.2 337.5,-391.2 298.5,-391.2"/>
<polygon fill="none" stroke="#000000" points="298.5,-391.2 298.5,-410.2 337.5,-410.2 337.5,-391.2 298.5,-391.2"/>
<text text-anchor="start" x="328.3862" y="-397.3" font-family="Helvetica,sans-Serif" font-size="11.00" fill="#000000"> &#160;</text>
<polygon fill="#ffffff" stroke="transparent" points="337.5,-391.2 337.5,-410.2 391.5,-410.2 391.5,-391.2 337.5,-391.2"/>
<polygon fill="none" stroke="#000000" points="337.5,-391.2 337.5,-410.2 391.5,-410.2 391.5,-391.2 337.5,-391.2"/>
<text text-anchor="start" x="366.7904" y="-397.3" font-family="Helvetica,sans-Serif" font-size="11.00" fill="#000000">68 &gt;</text>
</a>
</g>
</g>
<!-- form_treatment_plan&#45;&gt;patient_data -->
<g id="edge3" class="edge">
<title>form_treatment_plan:w&#45;&gt;patient_data:e</title>
<path fill="none" stroke="#000000" d="M614.9982,-399.9835C537.2004,-397.6759 502.9634,-378.5409 432,-422.2 403.9669,-439.4469 424.4137,-484.2 391.5,-484.2"/>
<polygon fill="#000000" stroke="#000000" points="621.5009,-400.0806 629.4462,-403.7996 625.5004,-400.1403 629.5,-400.2 629.5,-400.2 629.5,-400.2 625.5004,-400.1403 629.5538,-396.6004 621.5009,-400.0806 621.5009,-400.0806"/>
<ellipse fill="none" stroke="#000000" cx="618.3012" cy="-400.0328" rx="3.2" ry="3.2"/>
</g>
<!-- users -->
<g id="node5" class="node">
<title>users</title>
<g id="a_node5"><a xlink:href="../../tables/users.html" xlink:title="users" target="_top">
<polygon fill="#ffffff" stroke="transparent" points="8,-325.7 8,-496.7 175,-496.7 175,-325.7 8,-325.7"/>
<polygon fill="#f5f5f5" stroke="transparent" points="8.5,-473.2 8.5,-496.2 175.5,-496.2 175.5,-473.2 8.5,-473.2"/>
<polygon fill="none" stroke="#000000" points="8.5,-473.2 8.5,-496.2 175.5,-496.2 175.5,-473.2 8.5,-473.2"/>
<text text-anchor="start" x="13.5" y="-481.8" font-family="Helvetica,sans-Serif" font-weight="bold" font-size="11.00" fill="#000000">users</text>
<text text-anchor="start" x="140.5437" y="-481.3" font-family="Helvetica,sans-Serif" font-size="11.00" fill="#000000">[table]</text>
<polygon fill="none" stroke="#000000" points="8.5,-451.2 8.5,-473.2 175.5,-473.2 175.5,-451.2 8.5,-451.2"/>
<image xlink:href="../../images/primaryKeys.png" width="11px" height="12px" preserveAspectRatio="xMinYMin meet" x="13.5" y="-468.2"/>
<text text-anchor="start" x="28.5" y="-458.3" font-family="Helvetica,sans-Serif" font-size="11.00" fill="#000000">id</text>
<polygon fill="#ffffff" stroke="transparent" points="8.5,-429.2 8.5,-451.2 175.5,-451.2 175.5,-429.2 8.5,-429.2"/>
<polygon fill="none" stroke="#000000" points="8.5,-429.2 8.5,-451.2 175.5,-451.2 175.5,-429.2 8.5,-429.2"/>
<text text-anchor="start" x="28.5" y="-436.3" font-family="Helvetica,sans-Serif" font-size="11.00" fill="#000000">uuid</text>
<polygon fill="none" stroke="#000000" points="8.5,-407.2 8.5,-429.2 175.5,-429.2 175.5,-407.2 8.5,-407.2"/>
<image xlink:href="../../images/primaryKeys.png" width="11px" height="12px" preserveAspectRatio="xMinYMin meet" x="13.5" y="-424.2"/>
<text text-anchor="start" x="28.5" y="-414.3" font-family="Helvetica,sans-Serif" font-size="11.00" fill="#000000">username</text>
<polygon fill="#ffffff" stroke="transparent" points="8.5,-385.2 8.5,-407.2 175.5,-407.2 175.5,-385.2 8.5,-385.2"/>
<polygon fill="none" stroke="#000000" points="8.5,-385.2 8.5,-407.2 175.5,-407.2 175.5,-385.2 8.5,-385.2"/>
<text text-anchor="start" x="28.5" y="-392.3" font-family="Helvetica,sans-Serif" font-size="11.00" fill="#000000">google_signin_email</text>
<polygon fill="#ffffff" stroke="transparent" points="8.5,-363.2 8.5,-385.2 175.5,-385.2 175.5,-363.2 8.5,-363.2"/>
<polygon fill="none" stroke="#000000" points="8.5,-363.2 8.5,-385.2 175.5,-385.2 175.5,-363.2 8.5,-363.2"/>
<text text-anchor="start" x="28.5" y="-370.3" font-family="Helvetica,sans-Serif" font-size="11.00" fill="#000000">abook_type</text>
<polygon fill="none" stroke="#000000" points="8.5,-344.2 8.5,-363.2 175.5,-363.2 175.5,-344.2 8.5,-344.2"/>
<text text-anchor="start" x="11.5" y="-350.3" font-family="Helvetica,sans-Serif" font-size="11.00" fill="#000000">...</text>
<polygon fill="#ffffff" stroke="transparent" points="8.5,-325.2 8.5,-344.2 78.5,-344.2 78.5,-325.2 8.5,-325.2"/>
<polygon fill="none" stroke="#000000" points="8.5,-325.2 8.5,-344.2 78.5,-344.2 78.5,-325.2 8.5,-325.2"/>
<text text-anchor="start" x="11.5" y="-331.3" font-family="Helvetica,sans-Serif" font-size="11.00" fill="#000000"> &#160;</text>
<polygon fill="#ffffff" stroke="transparent" points="78.5,-325.2 78.5,-344.2 119.5,-344.2 119.5,-325.2 78.5,-325.2"/>
<polygon fill="none" stroke="#000000" points="78.5,-325.2 78.5,-344.2 119.5,-344.2 119.5,-325.2 78.5,-325.2"/>
<text text-anchor="start" x="110.3862" y="-331.3" font-family="Helvetica,sans-Serif" font-size="11.00" fill="#000000"> &#160;</text>
<polygon fill="#ffffff" stroke="transparent" points="119.5,-325.2 119.5,-344.2 175.5,-344.2 175.5,-325.2 119.5,-325.2"/>
<polygon fill="none" stroke="#000000" points="119.5,-325.2 119.5,-344.2 175.5,-344.2 175.5,-325.2 119.5,-325.2"/>
<text text-anchor="start" x="150.7904" y="-331.3" font-family="Helvetica,sans-Serif" font-size="11.00" fill="#000000">25 &gt;</text>
</a>
</g>
</g>
<!-- form_treatment_plan&#45;&gt;users -->
<g id="edge4" class="edge">
<title>form_treatment_plan:w&#45;&gt;users:e</title>
<path fill="none" stroke="#000000" d="M614.9911,-377.8902C514.2128,-373.9721 290.1835,-334.9794 216,-381.2 181.8389,-402.4843 215.7492,-462.2 175.5,-462.2"/>
<polygon fill="#000000" stroke="#000000" points="621.5018,-378.0291 629.4231,-381.7992 625.5009,-378.1146 629.5,-378.2 629.5,-378.2 629.5,-378.2 625.5009,-378.1146 629.5769,-374.6008 621.5018,-378.0291 621.5018,-378.0291"/>
<ellipse fill="none" stroke="#000000" cx="618.3026" cy="-377.9608" rx="3.2" ry="3.2"/>
</g>
<!-- forms&#45;&gt;patient_data -->
<g id="edge5" class="edge">
<title>forms:w&#45;&gt;patient_data:e</title>
<path fill="none" stroke="#000000" d="M425.2718,-481.7502C414.2833,-482.6163 407.1914,-484.2 391.5,-484.2"/>
<polygon fill="#000000" stroke="#000000" points="432.0056,-481.4987 440.1344,-484.7975 436.0028,-481.3494 440,-481.2 440,-481.2 440,-481.2 436.0028,-481.3494 439.8656,-477.6025 432.0056,-481.4987 432.0056,-481.4987"/>
<ellipse fill="none" stroke="#000000" cx="428.8078" cy="-481.6182" rx="3.2" ry="3.2"/>
</g>
<!-- patient_data&#45;&gt;users -->
<g id="edge6" class="edge">
<title>patient_data:w&#45;&gt;users:e</title>
<path fill="none" stroke="#000000" d="M209.9909,-462.2C198.6774,-462.2 191.4931,-462.2 175.5,-462.2"/>
<polygon fill="#000000" stroke="#000000" points="216.5,-462.2001 224.5,-465.8 220.5,-462.2 224.5,-462.2 224.5,-462.2 224.5,-462.2 220.5,-462.2 224.5,-458.6 216.5,-462.2001 216.5,-462.2001"/>
<ellipse fill="none" stroke="#000000" cx="213.3" cy="-462.2001" rx="3.2" ry="3.2"/>
</g>
<!-- patient_data&#45;&gt;users -->
<g id="edge7" class="edge">
<title>patient_data:w&#45;&gt;users:e</title>
<path fill="none" stroke="#000000" d="M210.8768,-523.4534C194.2322,-508.3202 206.0399,-462.2 175.5,-462.2"/>
<polygon fill="#000000" stroke="#000000" points="216.9454,-525.5678 223.3155,-531.5996 220.7227,-526.8839 224.5,-528.2 224.5,-528.2 224.5,-528.2 220.7227,-526.8839 225.6845,-524.8004 216.9454,-525.5678 216.9454,-525.5678"/>
<ellipse fill="none" stroke="#000000" cx="213.9236" cy="-524.5149" rx="3.2" ry="3.2"/>
</g>
<!-- patient_data&#45;&gt;users -->
<g id="edge8" class="edge">
<title>patient_data:w&#45;&gt;users:e</title>
<path fill="none" stroke="#000000" d="M210.8171,-501.4912C197.5046,-490.1404 198.824,-462.2 175.5,-462.2"/>
<polygon fill="#000000" stroke="#000000" points="216.9354,-503.5967 223.3285,-509.6041 220.7177,-504.8984 224.5,-506.2 224.5,-506.2 224.5,-506.2 220.7177,-504.8984 225.6715,-502.7959 216.9354,-503.5967 216.9354,-503.5967"/>
<ellipse fill="none" stroke="#000000" cx="213.9096" cy="-502.5554" rx="3.2" ry="3.2"/>
</g>
<!-- patient_data&#45;&gt;users -->
<g id="edge9" class="edge">
<title>patient_data:w&#45;&gt;users:e</title>
<path fill="none" stroke="#000000" d="M210.1297,-443.6375C198.5865,-449.825 193.4041,-462.2 175.5,-462.2"/>
<polygon fill="#000000" stroke="#000000" points="216.7195,-442.0612 225.3375,-443.7012 220.6098,-441.1306 224.5,-440.2 224.5,-440.2 224.5,-440.2 220.6098,-441.1306 223.6625,-436.6988 216.7195,-442.0612 216.7195,-442.0612"/>
<ellipse fill="none" stroke="#000000" cx="213.6073" cy="-442.8057" rx="3.2" ry="3.2"/>
</g>
</g>
</svg>
