<?xml version="1.0" encoding="UTF-8" standalone="no"?>
<!DOCTYPE svg PUBLIC "-//W3C//DTD SVG 1.1//EN"
 "http://www.w3.org/Graphics/SVG/1.1/DTD/svg11.dtd">
<!-- Generated by graphviz version 2.40.1 (20161225.0304)
 -->
<!-- Title: oneDegreeRelationshipsDiagram Pages: 1 -->
<svg width="279pt" height="316pt"
 viewBox="0.00 0.00 279.00 316.20" xmlns="http://www.w3.org/2000/svg" xmlns:xlink="http://www.w3.org/1999/xlink">
<g id="graph0" class="graph" transform="scale(1 1) rotate(0) translate(4 312.2)">
<title>oneDegreeRelationshipsDiagram</title>
<polygon fill="#ffffff" stroke="transparent" points="-4,4 -4,-312.2 275,-312.2 275,4 -4,4"/>
<text text-anchor="middle" x="72.4936" y="-7.3" font-family="Helvetica,sans-Serif" font-size="11.00" fill="#000000">Generated by SchemaSpy</text>
<!-- form_vital_details -->
<g id="node1" class="node">
<title>form_vital_details</title>
<g id="a_node1"><a xlink:href="../../tables/form_vital_details.html" xlink:title="form_vital_details" target="_top">
<polygon fill="#ffffff" stroke="transparent" points="8,-38.2 8,-304.2 263,-304.2 263,-38.2 8,-38.2"/>
<polygon fill="#f5f5f5" stroke="transparent" points="10.5,-279.2 10.5,-302.2 261.5,-302.2 261.5,-279.2 10.5,-279.2"/>
<polygon fill="none" stroke="#000000" points="10.5,-279.2 10.5,-302.2 261.5,-302.2 261.5,-279.2 10.5,-279.2"/>
<text text-anchor="start" x="15.5" y="-287.8" font-family="Helvetica,sans-Serif" font-weight="bold" font-size="11.00" fill="#000000">form_vital_details</text>
<text text-anchor="start" x="226.5437" y="-287.3" font-family="Helvetica,sans-Serif" font-size="11.00" fill="#000000">[table]</text>
<polygon fill="none" stroke="#000000" points="10.5,-257.2 10.5,-279.2 194.5,-279.2 194.5,-257.2 10.5,-257.2"/>
<image xlink:href="../../images/primaryKeys.png" width="11px" height="12px" preserveAspectRatio="xMinYMin meet" x="15.5" y="-274.2"/>
<text text-anchor="start" x="30.5" y="-264.3" font-family="Helvetica,sans-Serif" font-size="11.00" fill="#000000">id</text>
<polygon fill="none" stroke="#000000" points="194.5,-257.2 194.5,-279.2 261.5,-279.2 261.5,-257.2 194.5,-257.2"/>
<text text-anchor="start" x="197.5" y="-264.9" font-family="Helvetica,sans-Serif" font-size="11.00" fill="#000000">bigint[19]</text>
<polygon fill="#ffffff" stroke="transparent" points="10.5,-235.2 10.5,-257.2 194.5,-257.2 194.5,-235.2 10.5,-235.2"/>
<polygon fill="none" stroke="#000000" points="10.5,-235.2 10.5,-257.2 194.5,-257.2 194.5,-235.2 10.5,-235.2"/>
<text text-anchor="start" x="30.5" y="-242.3" font-family="Helvetica,sans-Serif" font-size="11.00" fill="#000000">form_id</text>
<polygon fill="none" stroke="#000000" points="194.5,-235.2 194.5,-257.2 261.5,-257.2 261.5,-235.2 194.5,-235.2"/>
<text text-anchor="start" x="197.5" y="-242.9" font-family="Helvetica,sans-Serif" font-size="11.00" fill="#000000">bigint[19]</text>
<polygon fill="none" stroke="#000000" points="10.5,-213.2 10.5,-235.2 194.5,-235.2 194.5,-213.2 10.5,-213.2"/>
<text text-anchor="start" x="30.5" y="-220.3" font-family="Helvetica,sans-Serif" font-size="11.00" fill="#000000">vitals_column</text>
<polygon fill="none" stroke="#000000" points="194.5,-213.2 194.5,-235.2 261.5,-235.2 261.5,-213.2 194.5,-213.2"/>
<text text-anchor="start" x="197.5" y="-220.9" font-family="Helvetica,sans-Serif" font-size="11.00" fill="#000000">varchar[64]</text>
<polygon fill="#ffffff" stroke="transparent" points="10.5,-191.2 10.5,-213.2 194.5,-213.2 194.5,-191.2 10.5,-191.2"/>
<polygon fill="none" stroke="#000000" points="10.5,-191.2 10.5,-213.2 194.5,-213.2 194.5,-191.2 10.5,-191.2"/>
<text text-anchor="start" x="30.5" y="-198.3" font-family="Helvetica,sans-Serif" font-size="11.00" fill="#000000">interpretation_list_id</text>
<polygon fill="none" stroke="#000000" points="194.5,-191.2 194.5,-213.2 261.5,-213.2 261.5,-191.2 194.5,-191.2"/>
<text text-anchor="start" x="197.4365" y="-198.9" font-family="Helvetica,sans-Serif" font-size="11.00" fill="#000000">varchar[100]</text>
<polygon fill="#ffffff" stroke="transparent" points="10.5,-169.2 10.5,-191.2 194.5,-191.2 194.5,-169.2 10.5,-169.2"/>
<polygon fill="none" stroke="#000000" points="10.5,-169.2 10.5,-191.2 194.5,-191.2 194.5,-169.2 10.5,-169.2"/>
<text text-anchor="start" x="30.5" y="-176.3" font-family="Helvetica,sans-Serif" font-size="11.00" fill="#000000">interpretation_option_id</text>
<polygon fill="none" stroke="#000000" points="194.5,-169.2 194.5,-191.2 261.5,-191.2 261.5,-169.2 194.5,-169.2"/>
<text text-anchor="start" x="197.4365" y="-176.9" font-family="Helvetica,sans-Serif" font-size="11.00" fill="#000000">varchar[100]</text>
<polygon fill="none" stroke="#000000" points="10.5,-147.2 10.5,-169.2 194.5,-169.2 194.5,-147.2 10.5,-147.2"/>
<text text-anchor="start" x="30.5" y="-154.3" font-family="Helvetica,sans-Serif" font-size="11.00" fill="#000000">interpretation_codes</text>
<polygon fill="none" stroke="#000000" points="194.5,-147.2 194.5,-169.2 261.5,-169.2 261.5,-147.2 194.5,-147.2"/>
<text text-anchor="start" x="197.4365" y="-154.9" font-family="Helvetica,sans-Serif" font-size="11.00" fill="#000000">varchar[255]</text>
<polygon fill="none" stroke="#000000" points="10.5,-125.2 10.5,-147.2 194.5,-147.2 194.5,-125.2 10.5,-125.2"/>
<text text-anchor="start" x="30.5" y="-132.3" font-family="Helvetica,sans-Serif" font-size="11.00" fill="#000000">interpretation_title</text>
<polygon fill="none" stroke="#000000" points="194.5,-125.2 194.5,-147.2 261.5,-147.2 261.5,-125.2 194.5,-125.2"/>
<text text-anchor="start" x="197.4365" y="-132.9" font-family="Helvetica,sans-Serif" font-size="11.00" fill="#000000">varchar[255]</text>
<polygon fill="none" stroke="#000000" points="10.5,-103.2 10.5,-125.2 194.5,-125.2 194.5,-103.2 10.5,-103.2"/>
<text text-anchor="start" x="30.5" y="-110.3" font-family="Helvetica,sans-Serif" font-size="11.00" fill="#000000">reason_code</text>
<polygon fill="none" stroke="#000000" points="194.5,-103.2 194.5,-125.2 261.5,-125.2 261.5,-103.2 194.5,-103.2"/>
<text text-anchor="start" x="197.5" y="-110.9" font-family="Helvetica,sans-Serif" font-size="11.00" fill="#000000">varchar[31]</text>
<polygon fill="none" stroke="#000000" points="10.5,-81.2 10.5,-103.2 194.5,-103.2 194.5,-81.2 10.5,-81.2"/>
<text text-anchor="start" x="30.5" y="-88.3" font-family="Helvetica,sans-Serif" font-size="11.00" fill="#000000">reason_description</text>
<polygon fill="none" stroke="#000000" points="194.5,-81.2 194.5,-103.2 261.5,-103.2 261.5,-81.2 194.5,-81.2"/>
<text text-anchor="start" x="197.5" y="-88.9" font-family="Helvetica,sans-Serif" font-size="11.00" fill="#000000">text[65535]</text>
<polygon fill="none" stroke="#000000" points="10.5,-59.2 10.5,-81.2 194.5,-81.2 194.5,-59.2 10.5,-59.2"/>
<text text-anchor="start" x="30.5" y="-66.3" font-family="Helvetica,sans-Serif" font-size="11.00" fill="#000000">reason_status</text>
<polygon fill="none" stroke="#000000" points="194.5,-59.2 194.5,-81.2 261.5,-81.2 261.5,-59.2 194.5,-59.2"/>
<text text-anchor="start" x="197.5" y="-66.9" font-family="Helvetica,sans-Serif" font-size="11.00" fill="#000000">varchar[31]</text>
<polygon fill="#ffffff" stroke="transparent" points="10.5,-40.2 10.5,-59.2 106.5,-59.2 106.5,-40.2 10.5,-40.2"/>
<polygon fill="none" stroke="#000000" points="10.5,-40.2 10.5,-59.2 106.5,-59.2 106.5,-40.2 10.5,-40.2"/>
<text text-anchor="start" x="13.5" y="-46.3" font-family="Helvetica,sans-Serif" font-size="11.00" fill="#000000">&lt; 0</text>
<polygon fill="#ffffff" stroke="transparent" points="106.5,-40.2 106.5,-59.2 194.5,-59.2 194.5,-40.2 106.5,-40.2"/>
<polygon fill="none" stroke="#000000" points="106.5,-40.2 106.5,-59.2 194.5,-59.2 194.5,-40.2 106.5,-40.2"/>
<text text-anchor="start" x="185.3862" y="-46.3" font-family="Helvetica,sans-Serif" font-size="11.00" fill="#000000"> &#160;</text>
<polygon fill="#ffffff" stroke="transparent" points="194.5,-40.2 194.5,-59.2 261.5,-59.2 261.5,-40.2 194.5,-40.2"/>
<polygon fill="none" stroke="#000000" points="194.5,-40.2 194.5,-59.2 261.5,-59.2 261.5,-40.2 194.5,-40.2"/>
<text text-anchor="start" x="242.9053" y="-46.3" font-family="Helvetica,sans-Serif" font-size="11.00" fill="#000000">0 &gt;</text>
<polygon fill="none" stroke="#000000" stroke-width="2" points="9,-39.2 9,-303.2 262,-303.2 262,-39.2 9,-39.2"/>
</a>
</g>
</g>
</g>
</svg>
