<?xml version="1.0" encoding="UTF-8" standalone="no"?>
<!DOCTYPE svg PUBLIC "-//W3C//DTD SVG 1.1//EN"
 "http://www.w3.org/Graphics/SVG/1.1/DTD/svg11.dtd">
<!-- Generated by graphviz version 2.40.1 (20161225.0304)
 -->
<!-- Title: oneDegreeRelationshipsDiagram Pages: 1 -->
<svg width="459pt" height="293pt"
 viewBox="0.00 0.00 459.00 292.70" xmlns="http://www.w3.org/2000/svg" xmlns:xlink="http://www.w3.org/1999/xlink">
<g id="graph0" class="graph" transform="scale(1 1) rotate(0) translate(4 288.7)">
<title>oneDegreeRelationshipsDiagram</title>
<polygon fill="#ffffff" stroke="transparent" points="-4,4 -4,-288.7 455,-288.7 455,4 -4,4"/>
<text text-anchor="middle" x="72.4936" y="-7.3" font-family="Helvetica,sans-Serif" font-size="11.00" fill="#000000">Generated by SchemaSpy</text>
<!-- form_prior_auth -->
<g id="node1" class="node">
<title>form_prior_auth</title>
<g id="a_node1"><a xlink:href="../../tables/form_prior_auth.html" xlink:title="form_prior_auth" target="_top">
<polygon fill="#ffffff" stroke="transparent" points="224,-38.2 224,-260.2 443,-260.2 443,-38.2 224,-38.2"/>
<polygon fill="#f5f5f5" stroke="transparent" points="226.5,-235.2 226.5,-258.2 441.5,-258.2 441.5,-235.2 226.5,-235.2"/>
<polygon fill="none" stroke="#000000" points="226.5,-235.2 226.5,-258.2 441.5,-258.2 441.5,-235.2 226.5,-235.2"/>
<text text-anchor="start" x="231.5" y="-243.8" font-family="Helvetica,sans-Serif" font-weight="bold" font-size="11.00" fill="#000000">form_prior_auth</text>
<text text-anchor="start" x="406.5437" y="-243.3" font-family="Helvetica,sans-Serif" font-size="11.00" fill="#000000">[table]</text>
<polygon fill="none" stroke="#000000" points="226.5,-213.2 226.5,-235.2 374.5,-235.2 374.5,-213.2 226.5,-213.2"/>
<image xlink:href="../../images/primaryKeys.png" width="11px" height="12px" preserveAspectRatio="xMinYMin meet" x="231.5" y="-230.2"/>
<text text-anchor="start" x="246.5" y="-220.3" font-family="Helvetica,sans-Serif" font-size="11.00" fill="#000000">id</text>
<polygon fill="none" stroke="#000000" points="374.5,-213.2 374.5,-235.2 441.5,-235.2 441.5,-213.2 374.5,-213.2"/>
<text text-anchor="start" x="377.5" y="-220.9" font-family="Helvetica,sans-Serif" font-size="11.00" fill="#000000">int[10]</text>
<polygon fill="none" stroke="#000000" points="226.5,-191.2 226.5,-213.2 374.5,-213.2 374.5,-191.2 226.5,-191.2"/>
<image xlink:href="../../images/foreignKeys.png" width="11px" height="12px" preserveAspectRatio="xMinYMin meet" x="231.5" y="-208.2"/>
<text text-anchor="start" x="246.5" y="-198.3" font-family="Helvetica,sans-Serif" font-size="11.00" fill="#000000">pid</text>
<polygon fill="none" stroke="#000000" points="374.5,-191.2 374.5,-213.2 441.5,-213.2 441.5,-191.2 374.5,-191.2"/>
<text text-anchor="start" x="377.5" y="-198.9" font-family="Helvetica,sans-Serif" font-size="11.00" fill="#000000">int[10]</text>
<polygon fill="none" stroke="#000000" points="226.5,-169.2 226.5,-191.2 374.5,-191.2 374.5,-169.2 226.5,-169.2"/>
<text text-anchor="start" x="246.5" y="-176.3" font-family="Helvetica,sans-Serif" font-size="11.00" fill="#000000">activity</text>
<polygon fill="none" stroke="#000000" points="374.5,-169.2 374.5,-191.2 441.5,-191.2 441.5,-169.2 374.5,-169.2"/>
<text text-anchor="start" x="377.5" y="-176.9" font-family="Helvetica,sans-Serif" font-size="11.00" fill="#000000">tinyint[3]</text>
<polygon fill="none" stroke="#000000" points="226.5,-147.2 226.5,-169.2 374.5,-169.2 374.5,-147.2 226.5,-147.2"/>
<text text-anchor="start" x="246.5" y="-154.3" font-family="Helvetica,sans-Serif" font-size="11.00" fill="#000000">date</text>
<polygon fill="none" stroke="#000000" points="374.5,-147.2 374.5,-169.2 441.5,-169.2 441.5,-147.2 374.5,-147.2"/>
<text text-anchor="start" x="377.5" y="-154.9" font-family="Helvetica,sans-Serif" font-size="11.00" fill="#000000">datetime[19]</text>
<polygon fill="none" stroke="#000000" points="226.5,-125.2 226.5,-147.2 374.5,-147.2 374.5,-125.2 226.5,-125.2"/>
<text text-anchor="start" x="246.5" y="-132.3" font-family="Helvetica,sans-Serif" font-size="11.00" fill="#000000">prior_auth_number</text>
<polygon fill="none" stroke="#000000" points="374.5,-125.2 374.5,-147.2 441.5,-147.2 441.5,-125.2 374.5,-125.2"/>
<text text-anchor="start" x="377.5" y="-132.9" font-family="Helvetica,sans-Serif" font-size="11.00" fill="#000000">varchar[35]</text>
<polygon fill="none" stroke="#000000" points="226.5,-103.2 226.5,-125.2 374.5,-125.2 374.5,-103.2 226.5,-103.2"/>
<text text-anchor="start" x="246.5" y="-110.3" font-family="Helvetica,sans-Serif" font-size="11.00" fill="#000000">comments</text>
<polygon fill="none" stroke="#000000" points="374.5,-103.2 374.5,-125.2 441.5,-125.2 441.5,-103.2 374.5,-103.2"/>
<text text-anchor="start" x="377.4365" y="-110.9" font-family="Helvetica,sans-Serif" font-size="11.00" fill="#000000">varchar[255]</text>
<polygon fill="none" stroke="#000000" points="226.5,-81.2 226.5,-103.2 374.5,-103.2 374.5,-81.2 226.5,-81.2"/>
<text text-anchor="start" x="246.5" y="-88.3" font-family="Helvetica,sans-Serif" font-size="11.00" fill="#000000">date_from</text>
<polygon fill="none" stroke="#000000" points="374.5,-81.2 374.5,-103.2 441.5,-103.2 441.5,-81.2 374.5,-81.2"/>
<text text-anchor="start" x="377.5" y="-88.9" font-family="Helvetica,sans-Serif" font-size="11.00" fill="#000000">date[10]</text>
<polygon fill="none" stroke="#000000" points="226.5,-59.2 226.5,-81.2 374.5,-81.2 374.5,-59.2 226.5,-59.2"/>
<text text-anchor="start" x="246.5" y="-66.3" font-family="Helvetica,sans-Serif" font-size="11.00" fill="#000000">date_to</text>
<polygon fill="none" stroke="#000000" points="374.5,-59.2 374.5,-81.2 441.5,-81.2 441.5,-59.2 374.5,-59.2"/>
<text text-anchor="start" x="377.5" y="-66.9" font-family="Helvetica,sans-Serif" font-size="11.00" fill="#000000">date[10]</text>
<polygon fill="#ffffff" stroke="transparent" points="226.5,-40.2 226.5,-59.2 304.5,-59.2 304.5,-40.2 226.5,-40.2"/>
<polygon fill="none" stroke="#000000" points="226.5,-40.2 226.5,-59.2 304.5,-59.2 304.5,-40.2 226.5,-40.2"/>
<text text-anchor="start" x="229.5" y="-46.3" font-family="Helvetica,sans-Serif" font-size="11.00" fill="#000000">&lt; 1</text>
<polygon fill="#ffffff" stroke="transparent" points="304.5,-40.2 304.5,-59.2 374.5,-59.2 374.5,-40.2 304.5,-40.2"/>
<polygon fill="none" stroke="#000000" points="304.5,-40.2 304.5,-59.2 374.5,-59.2 374.5,-40.2 304.5,-40.2"/>
<text text-anchor="start" x="365.3862" y="-46.3" font-family="Helvetica,sans-Serif" font-size="11.00" fill="#000000"> &#160;</text>
<polygon fill="#ffffff" stroke="transparent" points="374.5,-40.2 374.5,-59.2 441.5,-59.2 441.5,-40.2 374.5,-40.2"/>
<polygon fill="none" stroke="#000000" points="374.5,-40.2 374.5,-59.2 441.5,-59.2 441.5,-40.2 374.5,-40.2"/>
<text text-anchor="start" x="422.9053" y="-46.3" font-family="Helvetica,sans-Serif" font-size="11.00" fill="#000000">0 &gt;</text>
<polygon fill="none" stroke="#000000" stroke-width="2" points="225,-39.2 225,-259.2 442,-259.2 442,-39.2 225,-39.2"/>
</a>
</g>
</g>
<!-- patient_data -->
<g id="node2" class="node">
<title>patient_data</title>
<g id="a_node2"><a xlink:href="../../tables/patient_data.html" xlink:title="patient_data" target="_top">
<polygon fill="#ffffff" stroke="transparent" points="8,-153.7 8,-280.7 175,-280.7 175,-153.7 8,-153.7"/>
<polygon fill="#f5f5f5" stroke="transparent" points="8.5,-257.2 8.5,-280.2 175.5,-280.2 175.5,-257.2 8.5,-257.2"/>
<polygon fill="none" stroke="#000000" points="8.5,-257.2 8.5,-280.2 175.5,-280.2 175.5,-257.2 8.5,-257.2"/>
<text text-anchor="start" x="13.5" y="-265.8" font-family="Helvetica,sans-Serif" font-weight="bold" font-size="11.00" fill="#000000">patient_data</text>
<text text-anchor="start" x="140.5437" y="-265.3" font-family="Helvetica,sans-Serif" font-size="11.00" fill="#000000">[table]</text>
<polygon fill="#ffffff" stroke="transparent" points="8.5,-235.2 8.5,-257.2 175.5,-257.2 175.5,-235.2 8.5,-235.2"/>
<polygon fill="none" stroke="#000000" points="8.5,-235.2 8.5,-257.2 175.5,-257.2 175.5,-235.2 8.5,-235.2"/>
<text text-anchor="start" x="28.5" y="-242.3" font-family="Helvetica,sans-Serif" font-size="11.00" fill="#000000">id</text>
<polygon fill="#ffffff" stroke="transparent" points="8.5,-213.2 8.5,-235.2 175.5,-235.2 175.5,-213.2 8.5,-213.2"/>
<polygon fill="none" stroke="#000000" points="8.5,-213.2 8.5,-235.2 175.5,-235.2 175.5,-213.2 8.5,-213.2"/>
<text text-anchor="start" x="28.5" y="-220.3" font-family="Helvetica,sans-Serif" font-size="11.00" fill="#000000">uuid</text>
<polygon fill="none" stroke="#000000" points="8.5,-191.2 8.5,-213.2 175.5,-213.2 175.5,-191.2 8.5,-191.2"/>
<image xlink:href="../../images/primaryKeys.png" width="11px" height="12px" preserveAspectRatio="xMinYMin meet" x="13.5" y="-208.2"/>
<text text-anchor="start" x="28.5" y="-198.3" font-family="Helvetica,sans-Serif" font-size="11.00" fill="#000000">pid</text>
<polygon fill="none" stroke="#000000" points="8.5,-172.2 8.5,-191.2 175.5,-191.2 175.5,-172.2 8.5,-172.2"/>
<text text-anchor="start" x="11.5" y="-178.3" font-family="Helvetica,sans-Serif" font-size="11.00" fill="#000000">...</text>
<polygon fill="#ffffff" stroke="transparent" points="8.5,-153.2 8.5,-172.2 78.5,-172.2 78.5,-153.2 8.5,-153.2"/>
<polygon fill="none" stroke="#000000" points="8.5,-153.2 8.5,-172.2 78.5,-172.2 78.5,-153.2 8.5,-153.2"/>
<text text-anchor="start" x="11.5" y="-159.3" font-family="Helvetica,sans-Serif" font-size="11.00" fill="#000000"> &#160;</text>
<polygon fill="#ffffff" stroke="transparent" points="78.5,-153.2 78.5,-172.2 119.5,-172.2 119.5,-153.2 78.5,-153.2"/>
<polygon fill="none" stroke="#000000" points="78.5,-153.2 78.5,-172.2 119.5,-172.2 119.5,-153.2 78.5,-153.2"/>
<text text-anchor="start" x="110.3862" y="-159.3" font-family="Helvetica,sans-Serif" font-size="11.00" fill="#000000"> &#160;</text>
<polygon fill="#ffffff" stroke="transparent" points="119.5,-153.2 119.5,-172.2 175.5,-172.2 175.5,-153.2 119.5,-153.2"/>
<polygon fill="none" stroke="#000000" points="119.5,-153.2 119.5,-172.2 175.5,-172.2 175.5,-153.2 119.5,-153.2"/>
<text text-anchor="start" x="150.7904" y="-159.3" font-family="Helvetica,sans-Serif" font-size="11.00" fill="#000000">58 &gt;</text>
</a>
</g>
</g>
<!-- form_prior_auth&#45;&gt;patient_data -->
<g id="edge1" class="edge">
<title>form_prior_auth:w&#45;&gt;patient_data:e</title>
<path fill="none" stroke="#000000" d="M211.776,-202.2C199.7815,-202.2 192.3229,-202.2 175.5,-202.2"/>
<polygon fill="#000000" stroke="#000000" points="218.5,-202.2001 226.5,-205.8 222.5,-202.2 226.5,-202.2 226.5,-202.2 226.5,-202.2 222.5,-202.2 226.5,-198.6 218.5,-202.2001 218.5,-202.2001"/>
<ellipse fill="none" stroke="#000000" cx="215.3" cy="-202.2001" rx="3.2" ry="3.2"/>
</g>
</g>
</svg>
