<?xml version="1.0" encoding="UTF-8" standalone="no"?>
<!DOCTYPE svg PUBLIC "-//W3C//DTD SVG 1.1//EN"
 "http://www.w3.org/Graphics/SVG/1.1/DTD/svg11.dtd">
<!-- Generated by graphviz version 2.40.1 (20161225.0304)
 -->
<!-- Title: oneDegreeRelationshipsDiagram Pages: 1 -->
<svg width="478pt" height="206pt"
 viewBox="0.00 0.00 478.00 206.20" xmlns="http://www.w3.org/2000/svg" xmlns:xlink="http://www.w3.org/1999/xlink">
<g id="graph0" class="graph" transform="scale(1 1) rotate(0) translate(4 202.2)">
<title>oneDegreeRelationshipsDiagram</title>
<polygon fill="#ffffff" stroke="transparent" points="-4,4 -4,-202.2 474,-202.2 474,4 -4,4"/>
<text text-anchor="middle" x="72.4936" y="-7.3" font-family="Helvetica,sans-Serif" font-size="11.00" fill="#000000">Generated by SchemaSpy</text>
<!-- form_track_anything -->
<g id="node1" class="node">
<title>form_track_anything</title>
<g id="a_node1"><a xlink:href="../../tables/form_track_anything.html" xlink:title="form_track_anything" target="_top">
<polygon fill="#ffffff" stroke="transparent" points="224,-38.2 224,-194.2 462,-194.2 462,-38.2 224,-38.2"/>
<polygon fill="#f5f5f5" stroke="transparent" points="226,-169.2 226,-192.2 460,-192.2 460,-169.2 226,-169.2"/>
<polygon fill="none" stroke="#000000" points="226,-169.2 226,-192.2 460,-192.2 460,-169.2 226,-169.2"/>
<text text-anchor="start" x="231" y="-177.8" font-family="Helvetica,sans-Serif" font-weight="bold" font-size="11.00" fill="#000000">form_track_anything</text>
<text text-anchor="start" x="425.0437" y="-177.3" font-family="Helvetica,sans-Serif" font-size="11.00" fill="#000000">[table]</text>
<polygon fill="none" stroke="#000000" points="226,-147.2 226,-169.2 385,-169.2 385,-147.2 226,-147.2"/>
<image xlink:href="../../images/primaryKeys.png" width="11px" height="12px" preserveAspectRatio="xMinYMin meet" x="231" y="-164.2"/>
<text text-anchor="start" x="246" y="-154.3" font-family="Helvetica,sans-Serif" font-size="11.00" fill="#000000">id</text>
<polygon fill="none" stroke="#000000" points="385,-147.2 385,-169.2 460,-169.2 460,-147.2 385,-147.2"/>
<text text-anchor="start" x="388" y="-154.9" font-family="Helvetica,sans-Serif" font-size="11.00" fill="#000000">bigint[19]</text>
<polygon fill="none" stroke="#000000" points="226,-125.2 226,-147.2 385,-147.2 385,-125.2 226,-125.2"/>
<text text-anchor="start" x="246" y="-132.3" font-family="Helvetica,sans-Serif" font-size="11.00" fill="#000000">date</text>
<polygon fill="none" stroke="#000000" points="385,-125.2 385,-147.2 460,-147.2 460,-125.2 385,-125.2"/>
<text text-anchor="start" x="387.9666" y="-132.9" font-family="Helvetica,sans-Serif" font-size="11.00" fill="#000000">timestamp[19]</text>
<polygon fill="none" stroke="#000000" points="226,-103.2 226,-125.2 385,-125.2 385,-103.2 226,-103.2"/>
<image xlink:href="../../images/foreignKeys.png" width="11px" height="12px" preserveAspectRatio="xMinYMin meet" x="231" y="-120.2"/>
<text text-anchor="start" x="246" y="-110.3" font-family="Helvetica,sans-Serif" font-size="11.00" fill="#000000">pid</text>
<polygon fill="none" stroke="#000000" points="385,-103.2 385,-125.2 460,-125.2 460,-103.2 385,-103.2"/>
<text text-anchor="start" x="388" y="-110.9" font-family="Helvetica,sans-Serif" font-size="11.00" fill="#000000">int[10]</text>
<polygon fill="none" stroke="#000000" points="226,-81.2 226,-103.2 385,-103.2 385,-81.2 226,-81.2"/>
<text text-anchor="start" x="246" y="-88.3" font-family="Helvetica,sans-Serif" font-size="11.00" fill="#000000">procedure_type_id</text>
<polygon fill="none" stroke="#000000" points="385,-81.2 385,-103.2 460,-103.2 460,-81.2 385,-81.2"/>
<text text-anchor="start" x="388" y="-88.9" font-family="Helvetica,sans-Serif" font-size="11.00" fill="#000000">bigint[19]</text>
<polygon fill="none" stroke="#000000" points="226,-59.2 226,-81.2 385,-81.2 385,-59.2 226,-59.2"/>
<text text-anchor="start" x="246" y="-66.3" font-family="Helvetica,sans-Serif" font-size="11.00" fill="#000000">comment</text>
<polygon fill="none" stroke="#000000" points="385,-59.2 385,-81.2 460,-81.2 460,-59.2 385,-59.2"/>
<text text-anchor="start" x="388" y="-66.9" font-family="Helvetica,sans-Serif" font-size="11.00" fill="#000000">varchar[255]</text>
<polygon fill="#ffffff" stroke="transparent" points="226,-40.2 226,-59.2 310,-59.2 310,-40.2 226,-40.2"/>
<polygon fill="none" stroke="#000000" points="226,-40.2 226,-59.2 310,-59.2 310,-40.2 226,-40.2"/>
<text text-anchor="start" x="229" y="-46.3" font-family="Helvetica,sans-Serif" font-size="11.00" fill="#000000">&lt; 1</text>
<polygon fill="#ffffff" stroke="transparent" points="310,-40.2 310,-59.2 385,-59.2 385,-40.2 310,-40.2"/>
<polygon fill="none" stroke="#000000" points="310,-40.2 310,-59.2 385,-59.2 385,-40.2 310,-40.2"/>
<text text-anchor="start" x="375.8862" y="-46.3" font-family="Helvetica,sans-Serif" font-size="11.00" fill="#000000"> &#160;</text>
<polygon fill="#ffffff" stroke="transparent" points="385,-40.2 385,-59.2 460,-59.2 460,-40.2 385,-40.2"/>
<polygon fill="none" stroke="#000000" points="385,-40.2 385,-59.2 460,-59.2 460,-40.2 385,-40.2"/>
<text text-anchor="start" x="441.4053" y="-46.3" font-family="Helvetica,sans-Serif" font-size="11.00" fill="#000000">0 &gt;</text>
<polygon fill="none" stroke="#000000" stroke-width="2" points="225,-39.2 225,-193.2 461,-193.2 461,-39.2 225,-39.2"/>
</a>
</g>
</g>
<!-- patient_data -->
<g id="node2" class="node">
<title>patient_data</title>
<g id="a_node2"><a xlink:href="../../tables/patient_data.html" xlink:title="patient_data" target="_top">
<polygon fill="#ffffff" stroke="transparent" points="8,-65.7 8,-192.7 175,-192.7 175,-65.7 8,-65.7"/>
<polygon fill="#f5f5f5" stroke="transparent" points="8.5,-169.2 8.5,-192.2 175.5,-192.2 175.5,-169.2 8.5,-169.2"/>
<polygon fill="none" stroke="#000000" points="8.5,-169.2 8.5,-192.2 175.5,-192.2 175.5,-169.2 8.5,-169.2"/>
<text text-anchor="start" x="13.5" y="-177.8" font-family="Helvetica,sans-Serif" font-weight="bold" font-size="11.00" fill="#000000">patient_data</text>
<text text-anchor="start" x="140.5437" y="-177.3" font-family="Helvetica,sans-Serif" font-size="11.00" fill="#000000">[table]</text>
<polygon fill="#ffffff" stroke="transparent" points="8.5,-147.2 8.5,-169.2 175.5,-169.2 175.5,-147.2 8.5,-147.2"/>
<polygon fill="none" stroke="#000000" points="8.5,-147.2 8.5,-169.2 175.5,-169.2 175.5,-147.2 8.5,-147.2"/>
<text text-anchor="start" x="28.5" y="-154.3" font-family="Helvetica,sans-Serif" font-size="11.00" fill="#000000">id</text>
<polygon fill="#ffffff" stroke="transparent" points="8.5,-125.2 8.5,-147.2 175.5,-147.2 175.5,-125.2 8.5,-125.2"/>
<polygon fill="none" stroke="#000000" points="8.5,-125.2 8.5,-147.2 175.5,-147.2 175.5,-125.2 8.5,-125.2"/>
<text text-anchor="start" x="28.5" y="-132.3" font-family="Helvetica,sans-Serif" font-size="11.00" fill="#000000">uuid</text>
<polygon fill="none" stroke="#000000" points="8.5,-103.2 8.5,-125.2 175.5,-125.2 175.5,-103.2 8.5,-103.2"/>
<image xlink:href="../../images/primaryKeys.png" width="11px" height="12px" preserveAspectRatio="xMinYMin meet" x="13.5" y="-120.2"/>
<text text-anchor="start" x="28.5" y="-110.3" font-family="Helvetica,sans-Serif" font-size="11.00" fill="#000000">pid</text>
<polygon fill="none" stroke="#000000" points="8.5,-84.2 8.5,-103.2 175.5,-103.2 175.5,-84.2 8.5,-84.2"/>
<text text-anchor="start" x="11.5" y="-90.3" font-family="Helvetica,sans-Serif" font-size="11.00" fill="#000000">...</text>
<polygon fill="#ffffff" stroke="transparent" points="8.5,-65.2 8.5,-84.2 78.5,-84.2 78.5,-65.2 8.5,-65.2"/>
<polygon fill="none" stroke="#000000" points="8.5,-65.2 8.5,-84.2 78.5,-84.2 78.5,-65.2 8.5,-65.2"/>
<text text-anchor="start" x="11.5" y="-71.3" font-family="Helvetica,sans-Serif" font-size="11.00" fill="#000000"> &#160;</text>
<polygon fill="#ffffff" stroke="transparent" points="78.5,-65.2 78.5,-84.2 119.5,-84.2 119.5,-65.2 78.5,-65.2"/>
<polygon fill="none" stroke="#000000" points="78.5,-65.2 78.5,-84.2 119.5,-84.2 119.5,-65.2 78.5,-65.2"/>
<text text-anchor="start" x="110.3862" y="-71.3" font-family="Helvetica,sans-Serif" font-size="11.00" fill="#000000"> &#160;</text>
<polygon fill="#ffffff" stroke="transparent" points="119.5,-65.2 119.5,-84.2 175.5,-84.2 175.5,-65.2 119.5,-65.2"/>
<polygon fill="none" stroke="#000000" points="119.5,-65.2 119.5,-84.2 175.5,-84.2 175.5,-65.2 119.5,-65.2"/>
<text text-anchor="start" x="150.7904" y="-71.3" font-family="Helvetica,sans-Serif" font-size="11.00" fill="#000000">58 &gt;</text>
</a>
</g>
</g>
<!-- form_track_anything&#45;&gt;patient_data -->
<g id="edge1" class="edge">
<title>form_track_anything:w&#45;&gt;patient_data:e</title>
<path fill="none" stroke="#000000" d="M211.4203,-114.2C199.5435,-114.2 192.158,-114.2 175.5,-114.2"/>
<polygon fill="#000000" stroke="#000000" points="218,-114.2001 226,-117.8 222,-114.2 226,-114.2 226,-114.2 226,-114.2 222,-114.2 226,-110.6 218,-114.2001 218,-114.2001"/>
<ellipse fill="none" stroke="#000000" cx="214.8" cy="-114.2001" rx="3.2" ry="3.2"/>
</g>
</g>
</svg>
