<?xml version="1.0" encoding="UTF-8" standalone="no"?>
<!DOCTYPE svg PUBLIC "-//W3C//DTD SVG 1.1//EN"
 "http://www.w3.org/Graphics/SVG/1.1/DTD/svg11.dtd">
<!-- Generated by graphviz version 2.40.1 (20161225.0304)
 -->
<!-- Title: oneDegreeRelationshipsDiagram Pages: 1 -->
<svg width="901pt" height="751pt"
 viewBox="0.00 0.00 901.00 750.70" xmlns="http://www.w3.org/2000/svg" xmlns:xlink="http://www.w3.org/1999/xlink">
<g id="graph0" class="graph" transform="scale(1 1) rotate(0) translate(4 746.7)">
<title>oneDegreeRelationshipsDiagram</title>
<polygon fill="#ffffff" stroke="transparent" points="-4,4 -4,-746.7 897,-746.7 897,4 -4,4"/>
<text text-anchor="middle" x="72.4936" y="-7.3" font-family="Helvetica,sans-Serif" font-size="11.00" fill="#000000">Generated by SchemaSpy</text>
<!-- form_gad7 -->
<g id="node1" class="node">
<title>form_gad7</title>
<g id="a_node1"><a xlink:href="../../tables/form_gad7.html" xlink:title="form_gad7" target="_top">
<polygon fill="#ffffff" stroke="transparent" points="627,-38.2 627,-590.2 885,-590.2 885,-38.2 627,-38.2"/>
<polygon fill="#f5f5f5" stroke="transparent" points="629,-565.2 629,-588.2 883,-588.2 883,-565.2 629,-565.2"/>
<polygon fill="none" stroke="#000000" points="629,-565.2 629,-588.2 883,-588.2 883,-565.2 629,-565.2"/>
<text text-anchor="start" x="634" y="-573.8" font-family="Helvetica,sans-Serif" font-weight="bold" font-size="11.00" fill="#000000">form_gad7</text>
<text text-anchor="start" x="848.0437" y="-573.3" font-family="Helvetica,sans-Serif" font-size="11.00" fill="#000000">[table]</text>
<polygon fill="none" stroke="#000000" points="629,-543.2 629,-565.2 816,-565.2 816,-543.2 629,-543.2"/>
<image xlink:href="../../images/primaryKeys.png" width="11px" height="12px" preserveAspectRatio="xMinYMin meet" x="634" y="-560.2"/>
<text text-anchor="start" x="649" y="-550.3" font-family="Helvetica,sans-Serif" font-size="11.00" fill="#000000">id</text>
<polygon fill="none" stroke="#000000" points="816,-543.2 816,-565.2 883,-565.2 883,-543.2 816,-543.2"/>
<text text-anchor="start" x="819" y="-550.9" font-family="Helvetica,sans-Serif" font-size="11.00" fill="#000000">bigint[19]</text>
<polygon fill="none" stroke="#000000" points="629,-521.2 629,-543.2 816,-543.2 816,-521.2 629,-521.2"/>
<text text-anchor="start" x="649" y="-528.3" font-family="Helvetica,sans-Serif" font-size="11.00" fill="#000000">date</text>
<polygon fill="none" stroke="#000000" points="816,-521.2 816,-543.2 883,-543.2 883,-521.2 816,-521.2"/>
<text text-anchor="start" x="819" y="-528.9" font-family="Helvetica,sans-Serif" font-size="11.00" fill="#000000">datetime[19]</text>
<polygon fill="none" stroke="#000000" points="629,-499.2 629,-521.2 816,-521.2 816,-499.2 629,-499.2"/>
<image xlink:href="../../images/foreignKeys.png" width="11px" height="12px" preserveAspectRatio="xMinYMin meet" x="634" y="-516.2"/>
<text text-anchor="start" x="649" y="-506.3" font-family="Helvetica,sans-Serif" font-size="11.00" fill="#000000">pid</text>
<polygon fill="none" stroke="#000000" points="816,-499.2 816,-521.2 883,-521.2 883,-499.2 816,-499.2"/>
<text text-anchor="start" x="819" y="-506.9" font-family="Helvetica,sans-Serif" font-size="11.00" fill="#000000">bigint[19]</text>
<polygon fill="none" stroke="#000000" points="629,-477.2 629,-499.2 816,-499.2 816,-477.2 629,-477.2"/>
<image xlink:href="../../images/foreignKeys.png" width="11px" height="12px" preserveAspectRatio="xMinYMin meet" x="634" y="-494.2"/>
<text text-anchor="start" x="649" y="-484.3" font-family="Helvetica,sans-Serif" font-size="11.00" fill="#000000">user</text>
<polygon fill="none" stroke="#000000" points="816,-477.2 816,-499.2 883,-499.2 883,-477.2 816,-477.2"/>
<text text-anchor="start" x="818.9365" y="-484.9" font-family="Helvetica,sans-Serif" font-size="11.00" fill="#000000">varchar[255]</text>
<polygon fill="none" stroke="#000000" points="629,-455.2 629,-477.2 816,-477.2 816,-455.2 629,-455.2"/>
<image xlink:href="../../images/foreignKeys.png" width="11px" height="12px" preserveAspectRatio="xMinYMin meet" x="634" y="-472.2"/>
<text text-anchor="start" x="649" y="-462.3" font-family="Helvetica,sans-Serif" font-size="11.00" fill="#000000">groupname</text>
<polygon fill="none" stroke="#000000" points="816,-455.2 816,-477.2 883,-477.2 883,-455.2 816,-455.2"/>
<text text-anchor="start" x="818.9365" y="-462.9" font-family="Helvetica,sans-Serif" font-size="11.00" fill="#000000">varchar[255]</text>
<polygon fill="none" stroke="#000000" points="629,-433.2 629,-455.2 816,-455.2 816,-433.2 629,-433.2"/>
<text text-anchor="start" x="649" y="-440.3" font-family="Helvetica,sans-Serif" font-size="11.00" fill="#000000">authorized</text>
<polygon fill="none" stroke="#000000" points="816,-433.2 816,-455.2 883,-455.2 883,-433.2 816,-433.2"/>
<text text-anchor="start" x="819" y="-440.9" font-family="Helvetica,sans-Serif" font-size="11.00" fill="#000000">tinyint[3]</text>
<polygon fill="none" stroke="#000000" points="629,-411.2 629,-433.2 816,-433.2 816,-411.2 629,-411.2"/>
<text text-anchor="start" x="649" y="-418.3" font-family="Helvetica,sans-Serif" font-size="11.00" fill="#000000">activity</text>
<polygon fill="none" stroke="#000000" points="816,-411.2 816,-433.2 883,-433.2 883,-411.2 816,-411.2"/>
<text text-anchor="start" x="819" y="-418.9" font-family="Helvetica,sans-Serif" font-size="11.00" fill="#000000">tinyint[3]</text>
<polygon fill="none" stroke="#000000" points="629,-389.2 629,-411.2 816,-411.2 816,-389.2 629,-389.2"/>
<text text-anchor="start" x="649" y="-396.3" font-family="Helvetica,sans-Serif" font-size="11.00" fill="#000000">nervous_score</text>
<polygon fill="none" stroke="#000000" points="816,-389.2 816,-411.2 883,-411.2 883,-389.2 816,-389.2"/>
<text text-anchor="start" x="818.9365" y="-396.9" font-family="Helvetica,sans-Serif" font-size="11.00" fill="#000000">varchar[255]</text>
<polygon fill="none" stroke="#000000" points="629,-367.2 629,-389.2 816,-389.2 816,-367.2 629,-367.2"/>
<text text-anchor="start" x="649" y="-374.3" font-family="Helvetica,sans-Serif" font-size="11.00" fill="#000000">nervous_extra_info</text>
<polygon fill="none" stroke="#000000" points="816,-367.2 816,-389.2 883,-389.2 883,-367.2 816,-367.2"/>
<text text-anchor="start" x="818.9365" y="-374.9" font-family="Helvetica,sans-Serif" font-size="11.00" fill="#000000">varchar[255]</text>
<polygon fill="none" stroke="#000000" points="629,-345.2 629,-367.2 816,-367.2 816,-345.2 629,-345.2"/>
<text text-anchor="start" x="649" y="-352.3" font-family="Helvetica,sans-Serif" font-size="11.00" fill="#000000">control_worry_score</text>
<polygon fill="none" stroke="#000000" points="816,-345.2 816,-367.2 883,-367.2 883,-345.2 816,-345.2"/>
<text text-anchor="start" x="818.9365" y="-352.9" font-family="Helvetica,sans-Serif" font-size="11.00" fill="#000000">varchar[255]</text>
<polygon fill="none" stroke="#000000" points="629,-323.2 629,-345.2 816,-345.2 816,-323.2 629,-323.2"/>
<text text-anchor="start" x="649" y="-330.3" font-family="Helvetica,sans-Serif" font-size="11.00" fill="#000000">control_worry_extra_info</text>
<polygon fill="none" stroke="#000000" points="816,-323.2 816,-345.2 883,-345.2 883,-323.2 816,-323.2"/>
<text text-anchor="start" x="818.9365" y="-330.9" font-family="Helvetica,sans-Serif" font-size="11.00" fill="#000000">varchar[255]</text>
<polygon fill="none" stroke="#000000" points="629,-301.2 629,-323.2 816,-323.2 816,-301.2 629,-301.2"/>
<text text-anchor="start" x="649" y="-308.3" font-family="Helvetica,sans-Serif" font-size="11.00" fill="#000000">worry_score</text>
<polygon fill="none" stroke="#000000" points="816,-301.2 816,-323.2 883,-323.2 883,-301.2 816,-301.2"/>
<text text-anchor="start" x="818.9365" y="-308.9" font-family="Helvetica,sans-Serif" font-size="11.00" fill="#000000">varchar[255]</text>
<polygon fill="none" stroke="#000000" points="629,-279.2 629,-301.2 816,-301.2 816,-279.2 629,-279.2"/>
<text text-anchor="start" x="649" y="-286.3" font-family="Helvetica,sans-Serif" font-size="11.00" fill="#000000">worry_extra_info</text>
<polygon fill="none" stroke="#000000" points="816,-279.2 816,-301.2 883,-301.2 883,-279.2 816,-279.2"/>
<text text-anchor="start" x="818.9365" y="-286.9" font-family="Helvetica,sans-Serif" font-size="11.00" fill="#000000">varchar[255]</text>
<polygon fill="none" stroke="#000000" points="629,-257.2 629,-279.2 816,-279.2 816,-257.2 629,-257.2"/>
<text text-anchor="start" x="649" y="-264.3" font-family="Helvetica,sans-Serif" font-size="11.00" fill="#000000">relax_score</text>
<polygon fill="none" stroke="#000000" points="816,-257.2 816,-279.2 883,-279.2 883,-257.2 816,-257.2"/>
<text text-anchor="start" x="818.9365" y="-264.9" font-family="Helvetica,sans-Serif" font-size="11.00" fill="#000000">varchar[255]</text>
<polygon fill="none" stroke="#000000" points="629,-235.2 629,-257.2 816,-257.2 816,-235.2 629,-235.2"/>
<text text-anchor="start" x="649" y="-242.3" font-family="Helvetica,sans-Serif" font-size="11.00" fill="#000000">relax_extra_info</text>
<polygon fill="none" stroke="#000000" points="816,-235.2 816,-257.2 883,-257.2 883,-235.2 816,-235.2"/>
<text text-anchor="start" x="818.9365" y="-242.9" font-family="Helvetica,sans-Serif" font-size="11.00" fill="#000000">varchar[255]</text>
<polygon fill="none" stroke="#000000" points="629,-213.2 629,-235.2 816,-235.2 816,-213.2 629,-213.2"/>
<text text-anchor="start" x="649" y="-220.3" font-family="Helvetica,sans-Serif" font-size="11.00" fill="#000000">restless_score</text>
<polygon fill="none" stroke="#000000" points="816,-213.2 816,-235.2 883,-235.2 883,-213.2 816,-213.2"/>
<text text-anchor="start" x="818.9365" y="-220.9" font-family="Helvetica,sans-Serif" font-size="11.00" fill="#000000">varchar[255]</text>
<polygon fill="none" stroke="#000000" points="629,-191.2 629,-213.2 816,-213.2 816,-191.2 629,-191.2"/>
<text text-anchor="start" x="649" y="-198.3" font-family="Helvetica,sans-Serif" font-size="11.00" fill="#000000">restless_extra_info</text>
<polygon fill="none" stroke="#000000" points="816,-191.2 816,-213.2 883,-213.2 883,-191.2 816,-191.2"/>
<text text-anchor="start" x="818.9365" y="-198.9" font-family="Helvetica,sans-Serif" font-size="11.00" fill="#000000">varchar[255]</text>
<polygon fill="none" stroke="#000000" points="629,-169.2 629,-191.2 816,-191.2 816,-169.2 629,-169.2"/>
<text text-anchor="start" x="649" y="-176.3" font-family="Helvetica,sans-Serif" font-size="11.00" fill="#000000">irritable_score</text>
<polygon fill="none" stroke="#000000" points="816,-169.2 816,-191.2 883,-191.2 883,-169.2 816,-169.2"/>
<text text-anchor="start" x="818.9365" y="-176.9" font-family="Helvetica,sans-Serif" font-size="11.00" fill="#000000">varchar[255]</text>
<polygon fill="none" stroke="#000000" points="629,-147.2 629,-169.2 816,-169.2 816,-147.2 629,-147.2"/>
<text text-anchor="start" x="649" y="-154.3" font-family="Helvetica,sans-Serif" font-size="11.00" fill="#000000">irritable_extra_info</text>
<polygon fill="none" stroke="#000000" points="816,-147.2 816,-169.2 883,-169.2 883,-147.2 816,-147.2"/>
<text text-anchor="start" x="818.9365" y="-154.9" font-family="Helvetica,sans-Serif" font-size="11.00" fill="#000000">varchar[255]</text>
<polygon fill="none" stroke="#000000" points="629,-125.2 629,-147.2 816,-147.2 816,-125.2 629,-125.2"/>
<text text-anchor="start" x="649" y="-132.3" font-family="Helvetica,sans-Serif" font-size="11.00" fill="#000000">fear_score</text>
<polygon fill="none" stroke="#000000" points="816,-125.2 816,-147.2 883,-147.2 883,-125.2 816,-125.2"/>
<text text-anchor="start" x="818.9365" y="-132.9" font-family="Helvetica,sans-Serif" font-size="11.00" fill="#000000">varchar[255]</text>
<polygon fill="none" stroke="#000000" points="629,-103.2 629,-125.2 816,-125.2 816,-103.2 629,-103.2"/>
<text text-anchor="start" x="649" y="-110.3" font-family="Helvetica,sans-Serif" font-size="11.00" fill="#000000">fear_extra_info</text>
<polygon fill="none" stroke="#000000" points="816,-103.2 816,-125.2 883,-125.2 883,-103.2 816,-103.2"/>
<text text-anchor="start" x="818.9365" y="-110.9" font-family="Helvetica,sans-Serif" font-size="11.00" fill="#000000">varchar[255]</text>
<polygon fill="none" stroke="#000000" points="629,-81.2 629,-103.2 816,-103.2 816,-81.2 629,-81.2"/>
<text text-anchor="start" x="649" y="-88.3" font-family="Helvetica,sans-Serif" font-size="11.00" fill="#000000">difficulty</text>
<polygon fill="none" stroke="#000000" points="816,-81.2 816,-103.2 883,-103.2 883,-81.2 816,-81.2"/>
<text text-anchor="start" x="818.9365" y="-88.9" font-family="Helvetica,sans-Serif" font-size="11.00" fill="#000000">varchar[255]</text>
<polygon fill="none" stroke="#000000" points="629,-59.2 629,-81.2 816,-81.2 816,-59.2 629,-59.2"/>
<text text-anchor="start" x="649" y="-66.3" font-family="Helvetica,sans-Serif" font-size="11.00" fill="#000000">difficulty_extra_info</text>
<polygon fill="none" stroke="#000000" points="816,-59.2 816,-81.2 883,-81.2 883,-59.2 816,-59.2"/>
<text text-anchor="start" x="818.9365" y="-66.9" font-family="Helvetica,sans-Serif" font-size="11.00" fill="#000000">varchar[255]</text>
<polygon fill="#ffffff" stroke="transparent" points="629,-40.2 629,-59.2 727,-59.2 727,-40.2 629,-40.2"/>
<polygon fill="none" stroke="#000000" points="629,-40.2 629,-59.2 727,-59.2 727,-40.2 629,-40.2"/>
<text text-anchor="start" x="632" y="-46.3" font-family="Helvetica,sans-Serif" font-size="11.00" fill="#000000">&lt; 4</text>
<polygon fill="#ffffff" stroke="transparent" points="727,-40.2 727,-59.2 816,-59.2 816,-40.2 727,-40.2"/>
<polygon fill="none" stroke="#000000" points="727,-40.2 727,-59.2 816,-59.2 816,-40.2 727,-40.2"/>
<text text-anchor="start" x="806.8862" y="-46.3" font-family="Helvetica,sans-Serif" font-size="11.00" fill="#000000"> &#160;</text>
<polygon fill="#ffffff" stroke="transparent" points="816,-40.2 816,-59.2 883,-59.2 883,-40.2 816,-40.2"/>
<polygon fill="none" stroke="#000000" points="816,-40.2 816,-59.2 883,-59.2 883,-40.2 816,-40.2"/>
<text text-anchor="start" x="864.4053" y="-46.3" font-family="Helvetica,sans-Serif" font-size="11.00" fill="#000000">0 &gt;</text>
<polygon fill="none" stroke="#000000" stroke-width="2" points="628,-39.2 628,-589.2 884,-589.2 884,-39.2 628,-39.2"/>
</a>
</g>
</g>
<!-- groups -->
<g id="node2" class="node">
<title>groups</title>
<g id="a_node2"><a xlink:href="../../tables/groups.html" xlink:title="groups" target="_top">
<polygon fill="#ffffff" stroke="transparent" points="466,-347.7 466,-452.7 552,-452.7 552,-347.7 466,-347.7"/>
<polygon fill="#f5f5f5" stroke="transparent" points="466,-429.2 466,-452.2 552,-452.2 552,-429.2 466,-429.2"/>
<polygon fill="none" stroke="#000000" points="466,-429.2 466,-452.2 552,-452.2 552,-429.2 466,-429.2"/>
<text text-anchor="start" x="471" y="-437.8" font-family="Helvetica,sans-Serif" font-weight="bold" font-size="11.00" fill="#000000">groups</text>
<text text-anchor="start" x="517.5219" y="-437.3" font-family="Helvetica,sans-Serif" font-size="11.00" fill="#000000">[table]</text>
<polygon fill="none" stroke="#000000" points="466,-407.2 466,-429.2 552,-429.2 552,-407.2 466,-407.2"/>
<image xlink:href="../../images/primaryKeys.png" width="11px" height="12px" preserveAspectRatio="xMinYMin meet" x="471" y="-424.2"/>
<text text-anchor="start" x="495" y="-414.3" font-family="Helvetica,sans-Serif" font-size="11.00" fill="#000000">id</text>
<polygon fill="none" stroke="#000000" points="466,-385.2 466,-407.2 552,-407.2 552,-385.2 466,-385.2"/>
<image xlink:href="../../images/primaryKeys.png" width="11px" height="12px" preserveAspectRatio="xMinYMin meet" x="471" y="-402.2"/>
<text text-anchor="start" x="495" y="-392.3" font-family="Helvetica,sans-Serif" font-size="11.00" fill="#000000">name</text>
<polygon fill="none" stroke="#000000" points="466,-366.2 466,-385.2 552,-385.2 552,-366.2 466,-366.2"/>
<text text-anchor="start" x="469" y="-372.3" font-family="Helvetica,sans-Serif" font-size="11.00" fill="#000000">...</text>
<polygon fill="#ffffff" stroke="transparent" points="466,-347.2 466,-366.2 498,-366.2 498,-347.2 466,-347.2"/>
<polygon fill="none" stroke="#000000" points="466,-347.2 466,-366.2 498,-366.2 498,-347.2 466,-347.2"/>
<text text-anchor="start" x="469" y="-353.3" font-family="Helvetica,sans-Serif" font-size="11.00" fill="#000000"> &#160;</text>
<polygon fill="#ffffff" stroke="transparent" points="498,-347.2 498,-366.2 520,-366.2 520,-347.2 498,-347.2"/>
<polygon fill="none" stroke="#000000" points="498,-347.2 498,-366.2 520,-366.2 520,-347.2 498,-347.2"/>
<text text-anchor="start" x="510.8862" y="-353.3" font-family="Helvetica,sans-Serif" font-size="11.00" fill="#000000"> &#160;</text>
<polygon fill="#ffffff" stroke="transparent" points="520,-347.2 520,-366.2 552,-366.2 552,-347.2 520,-347.2"/>
<polygon fill="none" stroke="#000000" points="520,-347.2 520,-366.2 552,-366.2 552,-347.2 520,-347.2"/>
<text text-anchor="start" x="533.4053" y="-353.3" font-family="Helvetica,sans-Serif" font-size="11.00" fill="#000000">8 &gt;</text>
</a>
</g>
</g>
<!-- form_gad7&#45;&gt;groups -->
<g id="edge1" class="edge">
<title>form_gad7:w&#45;&gt;groups:e</title>
<path fill="none" stroke="#000000" d="M614.6954,-463.3692C585.5984,-450.2733 592.6494,-396.2 552,-396.2"/>
<polygon fill="#000000" stroke="#000000" points="621.1522,-464.6469 628.3011,-469.7315 625.0761,-465.4235 629,-466.2 629,-466.2 629,-466.2 625.0761,-465.4235 629.6989,-462.6685 621.1522,-464.6469 621.1522,-464.6469"/>
<ellipse fill="none" stroke="#000000" cx="618.0131" cy="-464.0257" rx="3.2" ry="3.2"/>
</g>
<!-- forms -->
<g id="node3" class="node">
<title>forms</title>
<g id="a_node3"><a xlink:href="../../tables/forms.html" xlink:title="forms" target="_top">
<polygon fill="#ffffff" stroke="transparent" points="440,-542.7 440,-691.7 578,-691.7 578,-542.7 440,-542.7"/>
<polygon fill="#f5f5f5" stroke="transparent" points="440,-668.2 440,-691.2 578,-691.2 578,-668.2 440,-668.2"/>
<polygon fill="none" stroke="#000000" points="440,-668.2 440,-691.2 578,-691.2 578,-668.2 440,-668.2"/>
<text text-anchor="start" x="445" y="-676.8" font-family="Helvetica,sans-Serif" font-weight="bold" font-size="11.00" fill="#000000">forms</text>
<text text-anchor="start" x="543.0437" y="-676.3" font-family="Helvetica,sans-Serif" font-size="11.00" fill="#000000">[table]</text>
<polygon fill="none" stroke="#000000" points="440,-646.2 440,-668.2 578,-668.2 578,-646.2 440,-646.2"/>
<image xlink:href="../../images/primaryKeys.png" width="11px" height="12px" preserveAspectRatio="xMinYMin meet" x="445" y="-663.2"/>
<text text-anchor="start" x="460" y="-653.3" font-family="Helvetica,sans-Serif" font-size="11.00" fill="#000000">id</text>
<polygon fill="#ffffff" stroke="transparent" points="440,-624.2 440,-646.2 578,-646.2 578,-624.2 440,-624.2"/>
<polygon fill="none" stroke="#000000" points="440,-624.2 440,-646.2 578,-646.2 578,-624.2 440,-624.2"/>
<text text-anchor="start" x="460" y="-631.3" font-family="Helvetica,sans-Serif" font-size="11.00" fill="#000000">encounter</text>
<polygon fill="none" stroke="#000000" points="440,-602.2 440,-624.2 578,-624.2 578,-602.2 440,-602.2"/>
<image xlink:href="../../images/primaryKeys.png" width="11px" height="12px" preserveAspectRatio="xMinYMin meet" x="445" y="-619.2"/>
<text text-anchor="start" x="460" y="-609.3" font-family="Helvetica,sans-Serif" font-size="11.00" fill="#000000">form_id</text>
<polygon fill="#ffffff" stroke="transparent" points="440,-580.2 440,-602.2 578,-602.2 578,-580.2 440,-580.2"/>
<polygon fill="none" stroke="#000000" points="440,-580.2 440,-602.2 578,-602.2 578,-580.2 440,-580.2"/>
<image xlink:href="../../images/foreignKeys.png" width="11px" height="12px" preserveAspectRatio="xMinYMin meet" x="445" y="-597.2"/>
<text text-anchor="start" x="460" y="-587.3" font-family="Helvetica,sans-Serif" font-size="11.00" fill="#000000">pid</text>
<polygon fill="none" stroke="#000000" points="440,-561.2 440,-580.2 578,-580.2 578,-561.2 440,-561.2"/>
<text text-anchor="start" x="443" y="-567.3" font-family="Helvetica,sans-Serif" font-size="11.00" fill="#000000">...</text>
<polygon fill="#ffffff" stroke="transparent" points="440,-542.2 440,-561.2 500,-561.2 500,-542.2 440,-542.2"/>
<polygon fill="none" stroke="#000000" points="440,-542.2 440,-561.2 500,-561.2 500,-542.2 440,-542.2"/>
<text text-anchor="start" x="443" y="-548.3" font-family="Helvetica,sans-Serif" font-size="11.00" fill="#000000">&lt; 1</text>
<polygon fill="#ffffff" stroke="transparent" points="500,-542.2 500,-561.2 531,-561.2 531,-542.2 500,-542.2"/>
<polygon fill="none" stroke="#000000" points="500,-542.2 500,-561.2 531,-561.2 531,-542.2 500,-542.2"/>
<text text-anchor="start" x="521.8862" y="-548.3" font-family="Helvetica,sans-Serif" font-size="11.00" fill="#000000"> &#160;</text>
<polygon fill="#ffffff" stroke="transparent" points="531,-542.2 531,-561.2 578,-561.2 578,-542.2 531,-542.2"/>
<polygon fill="none" stroke="#000000" points="531,-542.2 531,-561.2 578,-561.2 578,-542.2 531,-542.2"/>
<text text-anchor="start" x="553.2904" y="-548.3" font-family="Helvetica,sans-Serif" font-size="11.00" fill="#000000">10 &gt;</text>
</a>
</g>
</g>
<!-- form_gad7&#45;&gt;forms -->
<g id="edge2" class="edge">
<title>form_gad7:w&#45;&gt;forms:e</title>
<path fill="none" stroke="#000000" d="M618.8268,-556.4408C597.9056,-567.2179 608.5991,-613.2 578,-613.2"/>
<polygon fill="#000000" stroke="#000000" points="627.3583,-550.4657 629.0792,-558.2785 627.5167,-558.6226 625.7957,-550.8099 627.3583,-550.4657"/>
<polyline fill="none" stroke="#000000" points="629,-554.2 625.0936,-555.0605 "/>
<ellipse fill="none" stroke="#000000" cx="621.9686" cy="-555.7489" rx="3.2" ry="3.2"/>
</g>
<!-- patient_data -->
<g id="node4" class="node">
<title>patient_data</title>
<g id="a_node4"><a xlink:href="../../tables/patient_data.html" xlink:title="patient_data" target="_top">
<polygon fill="#ffffff" stroke="transparent" points="224,-501.7 224,-738.7 391,-738.7 391,-501.7 224,-501.7"/>
<polygon fill="#f5f5f5" stroke="transparent" points="224.5,-715.2 224.5,-738.2 391.5,-738.2 391.5,-715.2 224.5,-715.2"/>
<polygon fill="none" stroke="#000000" points="224.5,-715.2 224.5,-738.2 391.5,-738.2 391.5,-715.2 224.5,-715.2"/>
<text text-anchor="start" x="229.5" y="-723.8" font-family="Helvetica,sans-Serif" font-weight="bold" font-size="11.00" fill="#000000">patient_data</text>
<text text-anchor="start" x="356.5437" y="-723.3" font-family="Helvetica,sans-Serif" font-size="11.00" fill="#000000">[table]</text>
<polygon fill="#ffffff" stroke="transparent" points="224.5,-693.2 224.5,-715.2 391.5,-715.2 391.5,-693.2 224.5,-693.2"/>
<polygon fill="none" stroke="#000000" points="224.5,-693.2 224.5,-715.2 391.5,-715.2 391.5,-693.2 224.5,-693.2"/>
<text text-anchor="start" x="244.5" y="-700.3" font-family="Helvetica,sans-Serif" font-size="11.00" fill="#000000">id</text>
<polygon fill="#ffffff" stroke="transparent" points="224.5,-671.2 224.5,-693.2 391.5,-693.2 391.5,-671.2 224.5,-671.2"/>
<polygon fill="none" stroke="#000000" points="224.5,-671.2 224.5,-693.2 391.5,-693.2 391.5,-671.2 224.5,-671.2"/>
<text text-anchor="start" x="244.5" y="-678.3" font-family="Helvetica,sans-Serif" font-size="11.00" fill="#000000">uuid</text>
<polygon fill="none" stroke="#000000" points="224.5,-649.2 224.5,-671.2 391.5,-671.2 391.5,-649.2 224.5,-649.2"/>
<image xlink:href="../../images/foreignKeys.png" width="11px" height="12px" preserveAspectRatio="xMinYMin meet" x="229.5" y="-666.2"/>
<text text-anchor="start" x="244.5" y="-656.3" font-family="Helvetica,sans-Serif" font-size="11.00" fill="#000000">pharmacy_id</text>
<polygon fill="none" stroke="#000000" points="224.5,-627.2 224.5,-649.2 391.5,-649.2 391.5,-627.2 224.5,-627.2"/>
<image xlink:href="../../images/foreignKeys.png" width="11px" height="12px" preserveAspectRatio="xMinYMin meet" x="229.5" y="-644.2"/>
<text text-anchor="start" x="244.5" y="-634.3" font-family="Helvetica,sans-Serif" font-size="11.00" fill="#000000">providerID</text>
<polygon fill="none" stroke="#000000" points="224.5,-605.2 224.5,-627.2 391.5,-627.2 391.5,-605.2 224.5,-605.2"/>
<image xlink:href="../../images/foreignKeys.png" width="11px" height="12px" preserveAspectRatio="xMinYMin meet" x="229.5" y="-622.2"/>
<text text-anchor="start" x="244.5" y="-612.3" font-family="Helvetica,sans-Serif" font-size="11.00" fill="#000000">ref_providerID</text>
<polygon fill="none" stroke="#000000" points="224.5,-583.2 224.5,-605.2 391.5,-605.2 391.5,-583.2 224.5,-583.2"/>
<image xlink:href="../../images/primaryKeys.png" width="11px" height="12px" preserveAspectRatio="xMinYMin meet" x="229.5" y="-600.2"/>
<text text-anchor="start" x="244.5" y="-590.3" font-family="Helvetica,sans-Serif" font-size="11.00" fill="#000000">pid</text>
<polygon fill="none" stroke="#000000" points="224.5,-561.2 224.5,-583.2 391.5,-583.2 391.5,-561.2 224.5,-561.2"/>
<image xlink:href="../../images/foreignKeys.png" width="11px" height="12px" preserveAspectRatio="xMinYMin meet" x="229.5" y="-578.2"/>
<text text-anchor="start" x="244.5" y="-568.3" font-family="Helvetica,sans-Serif" font-size="11.00" fill="#000000">created_by</text>
<polygon fill="none" stroke="#000000" points="224.5,-539.2 224.5,-561.2 391.5,-561.2 391.5,-539.2 224.5,-539.2"/>
<image xlink:href="../../images/foreignKeys.png" width="11px" height="12px" preserveAspectRatio="xMinYMin meet" x="229.5" y="-556.2"/>
<text text-anchor="start" x="244.5" y="-546.3" font-family="Helvetica,sans-Serif" font-size="11.00" fill="#000000">updated_by</text>
<polygon fill="none" stroke="#000000" points="224.5,-520.2 224.5,-539.2 391.5,-539.2 391.5,-520.2 224.5,-520.2"/>
<text text-anchor="start" x="227.5" y="-526.3" font-family="Helvetica,sans-Serif" font-size="11.00" fill="#000000">...</text>
<polygon fill="#ffffff" stroke="transparent" points="224.5,-501.2 224.5,-520.2 298.5,-520.2 298.5,-501.2 224.5,-501.2"/>
<polygon fill="none" stroke="#000000" points="224.5,-501.2 224.5,-520.2 298.5,-520.2 298.5,-501.2 224.5,-501.2"/>
<text text-anchor="start" x="227.5" y="-507.3" font-family="Helvetica,sans-Serif" font-size="11.00" fill="#000000">&lt; 5</text>
<polygon fill="#ffffff" stroke="transparent" points="298.5,-501.2 298.5,-520.2 337.5,-520.2 337.5,-501.2 298.5,-501.2"/>
<polygon fill="none" stroke="#000000" points="298.5,-501.2 298.5,-520.2 337.5,-520.2 337.5,-501.2 298.5,-501.2"/>
<text text-anchor="start" x="328.3862" y="-507.3" font-family="Helvetica,sans-Serif" font-size="11.00" fill="#000000"> &#160;</text>
<polygon fill="#ffffff" stroke="transparent" points="337.5,-501.2 337.5,-520.2 391.5,-520.2 391.5,-501.2 337.5,-501.2"/>
<polygon fill="none" stroke="#000000" points="337.5,-501.2 337.5,-520.2 391.5,-520.2 391.5,-501.2 337.5,-501.2"/>
<text text-anchor="start" x="366.7904" y="-507.3" font-family="Helvetica,sans-Serif" font-size="11.00" fill="#000000">68 &gt;</text>
</a>
</g>
</g>
<!-- form_gad7&#45;&gt;patient_data -->
<g id="edge3" class="edge">
<title>form_gad7:w&#45;&gt;patient_data:e</title>
<path fill="none" stroke="#000000" d="M614.5345,-509.9845C536.9312,-507.6871 502.7798,-488.6402 432,-532.2 403.9693,-549.4508 424.4137,-594.2 391.5,-594.2"/>
<polygon fill="#000000" stroke="#000000" points="621.0009,-510.0808 628.9464,-513.7996 625.0004,-510.1404 629,-510.2 629,-510.2 629,-510.2 625.0004,-510.1404 629.0536,-506.6004 621.0009,-510.0808 621.0009,-510.0808"/>
<ellipse fill="none" stroke="#000000" cx="617.8012" cy="-510.0331" rx="3.2" ry="3.2"/>
</g>
<!-- users -->
<g id="node5" class="node">
<title>users</title>
<g id="a_node5"><a xlink:href="../../tables/users.html" xlink:title="users" target="_top">
<polygon fill="#ffffff" stroke="transparent" points="8,-435.7 8,-606.7 175,-606.7 175,-435.7 8,-435.7"/>
<polygon fill="#f5f5f5" stroke="transparent" points="8.5,-583.2 8.5,-606.2 175.5,-606.2 175.5,-583.2 8.5,-583.2"/>
<polygon fill="none" stroke="#000000" points="8.5,-583.2 8.5,-606.2 175.5,-606.2 175.5,-583.2 8.5,-583.2"/>
<text text-anchor="start" x="13.5" y="-591.8" font-family="Helvetica,sans-Serif" font-weight="bold" font-size="11.00" fill="#000000">users</text>
<text text-anchor="start" x="140.5437" y="-591.3" font-family="Helvetica,sans-Serif" font-size="11.00" fill="#000000">[table]</text>
<polygon fill="none" stroke="#000000" points="8.5,-561.2 8.5,-583.2 175.5,-583.2 175.5,-561.2 8.5,-561.2"/>
<image xlink:href="../../images/primaryKeys.png" width="11px" height="12px" preserveAspectRatio="xMinYMin meet" x="13.5" y="-578.2"/>
<text text-anchor="start" x="28.5" y="-568.3" font-family="Helvetica,sans-Serif" font-size="11.00" fill="#000000">id</text>
<polygon fill="#ffffff" stroke="transparent" points="8.5,-539.2 8.5,-561.2 175.5,-561.2 175.5,-539.2 8.5,-539.2"/>
<polygon fill="none" stroke="#000000" points="8.5,-539.2 8.5,-561.2 175.5,-561.2 175.5,-539.2 8.5,-539.2"/>
<text text-anchor="start" x="28.5" y="-546.3" font-family="Helvetica,sans-Serif" font-size="11.00" fill="#000000">uuid</text>
<polygon fill="none" stroke="#000000" points="8.5,-517.2 8.5,-539.2 175.5,-539.2 175.5,-517.2 8.5,-517.2"/>
<image xlink:href="../../images/primaryKeys.png" width="11px" height="12px" preserveAspectRatio="xMinYMin meet" x="13.5" y="-534.2"/>
<text text-anchor="start" x="28.5" y="-524.3" font-family="Helvetica,sans-Serif" font-size="11.00" fill="#000000">username</text>
<polygon fill="#ffffff" stroke="transparent" points="8.5,-495.2 8.5,-517.2 175.5,-517.2 175.5,-495.2 8.5,-495.2"/>
<polygon fill="none" stroke="#000000" points="8.5,-495.2 8.5,-517.2 175.5,-517.2 175.5,-495.2 8.5,-495.2"/>
<text text-anchor="start" x="28.5" y="-502.3" font-family="Helvetica,sans-Serif" font-size="11.00" fill="#000000">google_signin_email</text>
<polygon fill="#ffffff" stroke="transparent" points="8.5,-473.2 8.5,-495.2 175.5,-495.2 175.5,-473.2 8.5,-473.2"/>
<polygon fill="none" stroke="#000000" points="8.5,-473.2 8.5,-495.2 175.5,-495.2 175.5,-473.2 8.5,-473.2"/>
<text text-anchor="start" x="28.5" y="-480.3" font-family="Helvetica,sans-Serif" font-size="11.00" fill="#000000">abook_type</text>
<polygon fill="none" stroke="#000000" points="8.5,-454.2 8.5,-473.2 175.5,-473.2 175.5,-454.2 8.5,-454.2"/>
<text text-anchor="start" x="11.5" y="-460.3" font-family="Helvetica,sans-Serif" font-size="11.00" fill="#000000">...</text>
<polygon fill="#ffffff" stroke="transparent" points="8.5,-435.2 8.5,-454.2 78.5,-454.2 78.5,-435.2 8.5,-435.2"/>
<polygon fill="none" stroke="#000000" points="8.5,-435.2 8.5,-454.2 78.5,-454.2 78.5,-435.2 8.5,-435.2"/>
<text text-anchor="start" x="11.5" y="-441.3" font-family="Helvetica,sans-Serif" font-size="11.00" fill="#000000"> &#160;</text>
<polygon fill="#ffffff" stroke="transparent" points="78.5,-435.2 78.5,-454.2 119.5,-454.2 119.5,-435.2 78.5,-435.2"/>
<polygon fill="none" stroke="#000000" points="78.5,-435.2 78.5,-454.2 119.5,-454.2 119.5,-435.2 78.5,-435.2"/>
<text text-anchor="start" x="110.3862" y="-441.3" font-family="Helvetica,sans-Serif" font-size="11.00" fill="#000000"> &#160;</text>
<polygon fill="#ffffff" stroke="transparent" points="119.5,-435.2 119.5,-454.2 175.5,-454.2 175.5,-435.2 119.5,-435.2"/>
<polygon fill="none" stroke="#000000" points="119.5,-435.2 119.5,-454.2 175.5,-454.2 175.5,-435.2 119.5,-435.2"/>
<text text-anchor="start" x="150.7904" y="-441.3" font-family="Helvetica,sans-Serif" font-size="11.00" fill="#000000">25 &gt;</text>
</a>
</g>
</g>
<!-- form_gad7&#45;&gt;users -->
<g id="edge4" class="edge">
<title>form_gad7:w&#45;&gt;users:e</title>
<path fill="none" stroke="#000000" d="M614.5086,-487.8906C513.8522,-483.9775 290.0936,-445.0349 216,-491.2 181.839,-512.4845 215.7492,-572.2 175.5,-572.2"/>
<polygon fill="#000000" stroke="#000000" points="621.0018,-488.0292 628.9231,-491.7992 625.0009,-488.1146 629,-488.2 629,-488.2 629,-488.2 625.0009,-488.1146 629.0769,-484.6008 621.0018,-488.0292 621.0018,-488.0292"/>
<ellipse fill="none" stroke="#000000" cx="617.8026" cy="-487.9608" rx="3.2" ry="3.2"/>
</g>
<!-- forms&#45;&gt;patient_data -->
<g id="edge5" class="edge">
<title>forms:w&#45;&gt;patient_data:e</title>
<path fill="none" stroke="#000000" d="M425.2718,-591.7502C414.2833,-592.6163 407.1914,-594.2 391.5,-594.2"/>
<polygon fill="#000000" stroke="#000000" points="432.0056,-591.4987 440.1344,-594.7975 436.0028,-591.3494 440,-591.2 440,-591.2 440,-591.2 436.0028,-591.3494 439.8656,-587.6025 432.0056,-591.4987 432.0056,-591.4987"/>
<ellipse fill="none" stroke="#000000" cx="428.8078" cy="-591.6182" rx="3.2" ry="3.2"/>
</g>
<!-- patient_data&#45;&gt;users -->
<g id="edge6" class="edge">
<title>patient_data:w&#45;&gt;users:e</title>
<path fill="none" stroke="#000000" d="M209.9909,-572.2C198.6774,-572.2 191.4931,-572.2 175.5,-572.2"/>
<polygon fill="#000000" stroke="#000000" points="216.5,-572.2001 224.5,-575.8 220.5,-572.2 224.5,-572.2 224.5,-572.2 224.5,-572.2 220.5,-572.2 224.5,-568.6 216.5,-572.2001 216.5,-572.2001"/>
<ellipse fill="none" stroke="#000000" cx="213.3" cy="-572.2001" rx="3.2" ry="3.2"/>
</g>
<!-- patient_data&#45;&gt;users -->
<g id="edge7" class="edge">
<title>patient_data:w&#45;&gt;users:e</title>
<path fill="none" stroke="#000000" d="M210.8768,-633.4534C194.2322,-618.3202 206.0399,-572.2 175.5,-572.2"/>
<polygon fill="#000000" stroke="#000000" points="216.9454,-635.5678 223.3155,-641.5996 220.7227,-636.8839 224.5,-638.2 224.5,-638.2 224.5,-638.2 220.7227,-636.8839 225.6845,-634.8004 216.9454,-635.5678 216.9454,-635.5678"/>
<ellipse fill="none" stroke="#000000" cx="213.9236" cy="-634.5149" rx="3.2" ry="3.2"/>
</g>
<!-- patient_data&#45;&gt;users -->
<g id="edge8" class="edge">
<title>patient_data:w&#45;&gt;users:e</title>
<path fill="none" stroke="#000000" d="M210.8171,-611.4912C197.5046,-600.1404 198.824,-572.2 175.5,-572.2"/>
<polygon fill="#000000" stroke="#000000" points="216.9354,-613.5967 223.3285,-619.6041 220.7177,-614.8984 224.5,-616.2 224.5,-616.2 224.5,-616.2 220.7177,-614.8984 225.6715,-612.7959 216.9354,-613.5967 216.9354,-613.5967"/>
<ellipse fill="none" stroke="#000000" cx="213.9096" cy="-612.5554" rx="3.2" ry="3.2"/>
</g>
<!-- patient_data&#45;&gt;users -->
<g id="edge9" class="edge">
<title>patient_data:w&#45;&gt;users:e</title>
<path fill="none" stroke="#000000" d="M210.1297,-553.6375C198.5865,-559.825 193.4041,-572.2 175.5,-572.2"/>
<polygon fill="#000000" stroke="#000000" points="216.7195,-552.0612 225.3375,-553.7012 220.6098,-551.1306 224.5,-550.2 224.5,-550.2 224.5,-550.2 220.6098,-551.1306 223.6625,-546.6988 216.7195,-552.0612 216.7195,-552.0612"/>
<ellipse fill="none" stroke="#000000" cx="213.6073" cy="-552.8057" rx="3.2" ry="3.2"/>
</g>
</g>
</svg>
