<?xml version="1.0" encoding="UTF-8" standalone="no"?>
<!DOCTYPE svg PUBLIC "-//W3C//DTD SVG 1.1//EN"
 "http://www.w3.org/Graphics/SVG/1.1/DTD/svg11.dtd">
<!-- Generated by graphviz version 2.40.1 (20161225.0304)
 -->
<!-- Title: oneDegreeRelationshipsDiagram Pages: 1 -->
<svg width="425pt" height="293pt"
 viewBox="0.00 0.00 425.00 292.70" xmlns="http://www.w3.org/2000/svg" xmlns:xlink="http://www.w3.org/1999/xlink">
<g id="graph0" class="graph" transform="scale(1 1) rotate(0) translate(4 288.7)">
<title>oneDegreeRelationshipsDiagram</title>
<polygon fill="#ffffff" stroke="transparent" points="-4,4 -4,-288.7 421,-288.7 421,4 -4,4"/>
<text text-anchor="middle" x="72.4936" y="-7.3" font-family="Helvetica,sans-Serif" font-size="11.00" fill="#000000">Generated by SchemaSpy</text>
<!-- form_clinic_note -->
<g id="node1" class="node">
<title>form_clinic_note</title>
<g id="a_node1"><a xlink:href="../../tables/form_clinic_note.html" xlink:title="form_clinic_note" target="_top">
<polygon fill="#ffffff" stroke="transparent" points="195,-38.2 195,-238.2 409,-238.2 409,-38.2 195,-38.2"/>
<polygon fill="#f5f5f5" stroke="transparent" points="197,-213.2 197,-236.2 407,-236.2 407,-213.2 197,-213.2"/>
<polygon fill="none" stroke="#000000" points="197,-213.2 197,-236.2 407,-236.2 407,-213.2 197,-213.2"/>
<text text-anchor="start" x="202" y="-221.8" font-family="Helvetica,sans-Serif" font-weight="bold" font-size="11.00" fill="#000000">form_clinic_note</text>
<text text-anchor="start" x="372.0437" y="-221.3" font-family="Helvetica,sans-Serif" font-size="11.00" fill="#000000">[table]</text>
<polygon fill="none" stroke="#000000" points="197,-191.2 197,-213.2 340,-213.2 340,-191.2 197,-191.2"/>
<image xlink:href="../../images/primaryKeys.png" width="11px" height="12px" preserveAspectRatio="xMinYMin meet" x="202" y="-208.2"/>
<text text-anchor="start" x="217" y="-198.3" font-family="Helvetica,sans-Serif" font-size="11.00" fill="#000000">id</text>
<polygon fill="none" stroke="#000000" points="340,-191.2 340,-213.2 407,-213.2 407,-191.2 340,-191.2"/>
<text text-anchor="start" x="343" y="-198.9" font-family="Helvetica,sans-Serif" font-size="11.00" fill="#000000">bigint[19]</text>
<polygon fill="none" stroke="#000000" points="197,-169.2 197,-191.2 340,-191.2 340,-169.2 197,-169.2"/>
<text text-anchor="start" x="217" y="-176.3" font-family="Helvetica,sans-Serif" font-size="11.00" fill="#000000">activity</text>
<polygon fill="none" stroke="#000000" points="340,-169.2 340,-191.2 407,-191.2 407,-169.2 340,-169.2"/>
<text text-anchor="start" x="343" y="-176.9" font-family="Helvetica,sans-Serif" font-size="11.00" fill="#000000">bit[1]</text>
<polygon fill="none" stroke="#000000" points="197,-147.2 197,-169.2 340,-169.2 340,-147.2 197,-147.2"/>
<text text-anchor="start" x="217" y="-154.3" font-family="Helvetica,sans-Serif" font-size="11.00" fill="#000000">history</text>
<polygon fill="none" stroke="#000000" points="340,-147.2 340,-169.2 407,-169.2 407,-147.2 340,-147.2"/>
<text text-anchor="start" x="343" y="-154.9" font-family="Helvetica,sans-Serif" font-size="11.00" fill="#000000">text[65535]</text>
<polygon fill="none" stroke="#000000" points="197,-125.2 197,-147.2 340,-147.2 340,-125.2 197,-125.2"/>
<text text-anchor="start" x="217" y="-132.3" font-family="Helvetica,sans-Serif" font-size="11.00" fill="#000000">examination</text>
<polygon fill="none" stroke="#000000" points="340,-125.2 340,-147.2 407,-147.2 407,-125.2 340,-125.2"/>
<text text-anchor="start" x="343" y="-132.9" font-family="Helvetica,sans-Serif" font-size="11.00" fill="#000000">text[65535]</text>
<polygon fill="none" stroke="#000000" points="197,-103.2 197,-125.2 340,-125.2 340,-103.2 197,-103.2"/>
<text text-anchor="start" x="217" y="-110.3" font-family="Helvetica,sans-Serif" font-size="11.00" fill="#000000">plan</text>
<polygon fill="none" stroke="#000000" points="340,-103.2 340,-125.2 407,-125.2 407,-103.2 340,-103.2"/>
<text text-anchor="start" x="343" y="-110.9" font-family="Helvetica,sans-Serif" font-size="11.00" fill="#000000">text[65535]</text>
<polygon fill="none" stroke="#000000" points="197,-81.2 197,-103.2 340,-103.2 340,-81.2 197,-81.2"/>
<text text-anchor="start" x="217" y="-88.3" font-family="Helvetica,sans-Serif" font-size="11.00" fill="#000000">followup_required</text>
<polygon fill="none" stroke="#000000" points="340,-81.2 340,-103.2 407,-103.2 407,-81.2 340,-81.2"/>
<text text-anchor="start" x="343" y="-88.9" font-family="Helvetica,sans-Serif" font-size="11.00" fill="#000000">int[10]</text>
<polygon fill="none" stroke="#000000" points="197,-59.2 197,-81.2 340,-81.2 340,-59.2 197,-59.2"/>
<text text-anchor="start" x="217" y="-66.3" font-family="Helvetica,sans-Serif" font-size="11.00" fill="#000000">followup_timing</text>
<polygon fill="none" stroke="#000000" points="340,-59.2 340,-81.2 407,-81.2 407,-59.2 340,-59.2"/>
<text text-anchor="start" x="342.9365" y="-66.9" font-family="Helvetica,sans-Serif" font-size="11.00" fill="#000000">varchar[255]</text>
<polygon fill="#ffffff" stroke="transparent" points="197,-40.2 197,-59.2 273,-59.2 273,-40.2 197,-40.2"/>
<polygon fill="none" stroke="#000000" points="197,-40.2 197,-59.2 273,-59.2 273,-40.2 197,-40.2"/>
<text text-anchor="start" x="200" y="-46.3" font-family="Helvetica,sans-Serif" font-size="11.00" fill="#000000">&lt; 1</text>
<polygon fill="#ffffff" stroke="transparent" points="273,-40.2 273,-59.2 340,-59.2 340,-40.2 273,-40.2"/>
<polygon fill="none" stroke="#000000" points="273,-40.2 273,-59.2 340,-59.2 340,-40.2 273,-40.2"/>
<text text-anchor="start" x="330.8862" y="-46.3" font-family="Helvetica,sans-Serif" font-size="11.00" fill="#000000"> &#160;</text>
<polygon fill="#ffffff" stroke="transparent" points="340,-40.2 340,-59.2 407,-59.2 407,-40.2 340,-40.2"/>
<polygon fill="none" stroke="#000000" points="340,-40.2 340,-59.2 407,-59.2 407,-40.2 340,-40.2"/>
<text text-anchor="start" x="388.4053" y="-46.3" font-family="Helvetica,sans-Serif" font-size="11.00" fill="#000000">0 &gt;</text>
<polygon fill="none" stroke="#000000" stroke-width="2" points="196,-39.2 196,-237.2 408,-237.2 408,-39.2 196,-39.2"/>
</a>
</g>
</g>
<!-- forms -->
<g id="node2" class="node">
<title>forms</title>
<g id="a_node2"><a xlink:href="../../tables/forms.html" xlink:title="forms" target="_top">
<polygon fill="#ffffff" stroke="transparent" points="8,-131.7 8,-280.7 146,-280.7 146,-131.7 8,-131.7"/>
<polygon fill="#f5f5f5" stroke="transparent" points="8,-257.2 8,-280.2 146,-280.2 146,-257.2 8,-257.2"/>
<polygon fill="none" stroke="#000000" points="8,-257.2 8,-280.2 146,-280.2 146,-257.2 8,-257.2"/>
<text text-anchor="start" x="13" y="-265.8" font-family="Helvetica,sans-Serif" font-weight="bold" font-size="11.00" fill="#000000">forms</text>
<text text-anchor="start" x="111.0437" y="-265.3" font-family="Helvetica,sans-Serif" font-size="11.00" fill="#000000">[table]</text>
<polygon fill="none" stroke="#000000" points="8,-235.2 8,-257.2 146,-257.2 146,-235.2 8,-235.2"/>
<image xlink:href="../../images/primaryKeys.png" width="11px" height="12px" preserveAspectRatio="xMinYMin meet" x="13" y="-252.2"/>
<text text-anchor="start" x="28" y="-242.3" font-family="Helvetica,sans-Serif" font-size="11.00" fill="#000000">id</text>
<polygon fill="#ffffff" stroke="transparent" points="8,-213.2 8,-235.2 146,-235.2 146,-213.2 8,-213.2"/>
<polygon fill="none" stroke="#000000" points="8,-213.2 8,-235.2 146,-235.2 146,-213.2 8,-213.2"/>
<text text-anchor="start" x="28" y="-220.3" font-family="Helvetica,sans-Serif" font-size="11.00" fill="#000000">encounter</text>
<polygon fill="none" stroke="#000000" points="8,-191.2 8,-213.2 146,-213.2 146,-191.2 8,-191.2"/>
<image xlink:href="../../images/primaryKeys.png" width="11px" height="12px" preserveAspectRatio="xMinYMin meet" x="13" y="-208.2"/>
<text text-anchor="start" x="28" y="-198.3" font-family="Helvetica,sans-Serif" font-size="11.00" fill="#000000">form_id</text>
<polygon fill="#ffffff" stroke="transparent" points="8,-169.2 8,-191.2 146,-191.2 146,-169.2 8,-169.2"/>
<polygon fill="none" stroke="#000000" points="8,-169.2 8,-191.2 146,-191.2 146,-169.2 8,-169.2"/>
<image xlink:href="../../images/foreignKeys.png" width="11px" height="12px" preserveAspectRatio="xMinYMin meet" x="13" y="-186.2"/>
<text text-anchor="start" x="28" y="-176.3" font-family="Helvetica,sans-Serif" font-size="11.00" fill="#000000">pid</text>
<polygon fill="none" stroke="#000000" points="8,-150.2 8,-169.2 146,-169.2 146,-150.2 8,-150.2"/>
<text text-anchor="start" x="11" y="-156.3" font-family="Helvetica,sans-Serif" font-size="11.00" fill="#000000">...</text>
<polygon fill="#ffffff" stroke="transparent" points="8,-131.2 8,-150.2 68,-150.2 68,-131.2 8,-131.2"/>
<polygon fill="none" stroke="#000000" points="8,-131.2 8,-150.2 68,-150.2 68,-131.2 8,-131.2"/>
<text text-anchor="start" x="11" y="-137.3" font-family="Helvetica,sans-Serif" font-size="11.00" fill="#000000">&lt; 1</text>
<polygon fill="#ffffff" stroke="transparent" points="68,-131.2 68,-150.2 99,-150.2 99,-131.2 68,-131.2"/>
<polygon fill="none" stroke="#000000" points="68,-131.2 68,-150.2 99,-150.2 99,-131.2 68,-131.2"/>
<text text-anchor="start" x="89.8862" y="-137.3" font-family="Helvetica,sans-Serif" font-size="11.00" fill="#000000"> &#160;</text>
<polygon fill="#ffffff" stroke="transparent" points="99,-131.2 99,-150.2 146,-150.2 146,-131.2 99,-131.2"/>
<polygon fill="none" stroke="#000000" points="99,-131.2 99,-150.2 146,-150.2 146,-131.2 99,-131.2"/>
<text text-anchor="start" x="121.2904" y="-137.3" font-family="Helvetica,sans-Serif" font-size="11.00" fill="#000000">10 &gt;</text>
</a>
</g>
</g>
<!-- form_clinic_note&#45;&gt;forms -->
<g id="edge1" class="edge">
<title>form_clinic_note:w&#45;&gt;forms:e</title>
<path fill="none" stroke="#000000" d="M186.2307,-202.2C171.748,-202.2 164.5938,-202.2 146,-202.2"/>
<polygon fill="#000000" stroke="#000000" points="196.2,-198.2 196.2,-206.2 194.6,-206.2 194.6,-198.2 196.2,-198.2"/>
<polyline fill="none" stroke="#000000" points="197,-202.2 193,-202.2 "/>
<ellipse fill="none" stroke="#000000" cx="189.8" cy="-202.2001" rx="3.2" ry="3.2"/>
</g>
</g>
</svg>
