<?xml version="1.0" encoding="UTF-8" standalone="no"?>
<!DOCTYPE svg PUBLIC "-//W3C//DTD SVG 1.1//EN"
 "http://www.w3.org/Graphics/SVG/1.1/DTD/svg11.dtd">
<!-- Generated by graphviz version 2.40.1 (20161225.0304)
 -->
<!-- Title: oneDegreeRelationshipsDiagram Pages: 1 -->
<svg width="646pt" height="359pt"
 viewBox="0.00 0.00 646.00 358.70" xmlns="http://www.w3.org/2000/svg" xmlns:xlink="http://www.w3.org/1999/xlink">
<g id="graph0" class="graph" transform="scale(1 1) rotate(0) translate(4 354.7)">
<title>oneDegreeRelationshipsDiagram</title>
<polygon fill="#ffffff" stroke="transparent" points="-4,4 -4,-354.7 642,-354.7 642,4 -4,4"/>
<text text-anchor="middle" x="72.4936" y="-7.3" font-family="Helvetica,sans-Serif" font-size="11.00" fill="#000000">Generated by SchemaSpy</text>
<!-- form_prior_auth -->
<g id="node1" class="node">
<title>form_prior_auth</title>
<g id="a_node1"><a xlink:href="../../tables/form_prior_auth.html" xlink:title="form_prior_auth" target="_top">
<polygon fill="#ffffff" stroke="transparent" points="411,-38.2 411,-260.2 630,-260.2 630,-38.2 411,-38.2"/>
<polygon fill="#f5f5f5" stroke="transparent" points="413.5,-235.2 413.5,-258.2 628.5,-258.2 628.5,-235.2 413.5,-235.2"/>
<polygon fill="none" stroke="#000000" points="413.5,-235.2 413.5,-258.2 628.5,-258.2 628.5,-235.2 413.5,-235.2"/>
<text text-anchor="start" x="418.5" y="-243.8" font-family="Helvetica,sans-Serif" font-weight="bold" font-size="11.00" fill="#000000">form_prior_auth</text>
<text text-anchor="start" x="593.5437" y="-243.3" font-family="Helvetica,sans-Serif" font-size="11.00" fill="#000000">[table]</text>
<polygon fill="none" stroke="#000000" points="413.5,-213.2 413.5,-235.2 561.5,-235.2 561.5,-213.2 413.5,-213.2"/>
<image xlink:href="../../images/primaryKeys.png" width="11px" height="12px" preserveAspectRatio="xMinYMin meet" x="418.5" y="-230.2"/>
<text text-anchor="start" x="433.5" y="-220.3" font-family="Helvetica,sans-Serif" font-size="11.00" fill="#000000">id</text>
<polygon fill="none" stroke="#000000" points="561.5,-213.2 561.5,-235.2 628.5,-235.2 628.5,-213.2 561.5,-213.2"/>
<text text-anchor="start" x="564.5" y="-220.9" font-family="Helvetica,sans-Serif" font-size="11.00" fill="#000000">int[10]</text>
<polygon fill="none" stroke="#000000" points="413.5,-191.2 413.5,-213.2 561.5,-213.2 561.5,-191.2 413.5,-191.2"/>
<image xlink:href="../../images/foreignKeys.png" width="11px" height="12px" preserveAspectRatio="xMinYMin meet" x="418.5" y="-208.2"/>
<text text-anchor="start" x="433.5" y="-198.3" font-family="Helvetica,sans-Serif" font-size="11.00" fill="#000000">pid</text>
<polygon fill="none" stroke="#000000" points="561.5,-191.2 561.5,-213.2 628.5,-213.2 628.5,-191.2 561.5,-191.2"/>
<text text-anchor="start" x="564.5" y="-198.9" font-family="Helvetica,sans-Serif" font-size="11.00" fill="#000000">int[10]</text>
<polygon fill="none" stroke="#000000" points="413.5,-169.2 413.5,-191.2 561.5,-191.2 561.5,-169.2 413.5,-169.2"/>
<text text-anchor="start" x="433.5" y="-176.3" font-family="Helvetica,sans-Serif" font-size="11.00" fill="#000000">activity</text>
<polygon fill="none" stroke="#000000" points="561.5,-169.2 561.5,-191.2 628.5,-191.2 628.5,-169.2 561.5,-169.2"/>
<text text-anchor="start" x="564.5" y="-176.9" font-family="Helvetica,sans-Serif" font-size="11.00" fill="#000000">tinyint[3]</text>
<polygon fill="none" stroke="#000000" points="413.5,-147.2 413.5,-169.2 561.5,-169.2 561.5,-147.2 413.5,-147.2"/>
<text text-anchor="start" x="433.5" y="-154.3" font-family="Helvetica,sans-Serif" font-size="11.00" fill="#000000">date</text>
<polygon fill="none" stroke="#000000" points="561.5,-147.2 561.5,-169.2 628.5,-169.2 628.5,-147.2 561.5,-147.2"/>
<text text-anchor="start" x="564.5" y="-154.9" font-family="Helvetica,sans-Serif" font-size="11.00" fill="#000000">datetime[19]</text>
<polygon fill="none" stroke="#000000" points="413.5,-125.2 413.5,-147.2 561.5,-147.2 561.5,-125.2 413.5,-125.2"/>
<text text-anchor="start" x="433.5" y="-132.3" font-family="Helvetica,sans-Serif" font-size="11.00" fill="#000000">prior_auth_number</text>
<polygon fill="none" stroke="#000000" points="561.5,-125.2 561.5,-147.2 628.5,-147.2 628.5,-125.2 561.5,-125.2"/>
<text text-anchor="start" x="564.5" y="-132.9" font-family="Helvetica,sans-Serif" font-size="11.00" fill="#000000">varchar[35]</text>
<polygon fill="none" stroke="#000000" points="413.5,-103.2 413.5,-125.2 561.5,-125.2 561.5,-103.2 413.5,-103.2"/>
<text text-anchor="start" x="433.5" y="-110.3" font-family="Helvetica,sans-Serif" font-size="11.00" fill="#000000">comments</text>
<polygon fill="none" stroke="#000000" points="561.5,-103.2 561.5,-125.2 628.5,-125.2 628.5,-103.2 561.5,-103.2"/>
<text text-anchor="start" x="564.4365" y="-110.9" font-family="Helvetica,sans-Serif" font-size="11.00" fill="#000000">varchar[255]</text>
<polygon fill="none" stroke="#000000" points="413.5,-81.2 413.5,-103.2 561.5,-103.2 561.5,-81.2 413.5,-81.2"/>
<text text-anchor="start" x="433.5" y="-88.3" font-family="Helvetica,sans-Serif" font-size="11.00" fill="#000000">date_from</text>
<polygon fill="none" stroke="#000000" points="561.5,-81.2 561.5,-103.2 628.5,-103.2 628.5,-81.2 561.5,-81.2"/>
<text text-anchor="start" x="564.5" y="-88.9" font-family="Helvetica,sans-Serif" font-size="11.00" fill="#000000">date[10]</text>
<polygon fill="none" stroke="#000000" points="413.5,-59.2 413.5,-81.2 561.5,-81.2 561.5,-59.2 413.5,-59.2"/>
<text text-anchor="start" x="433.5" y="-66.3" font-family="Helvetica,sans-Serif" font-size="11.00" fill="#000000">date_to</text>
<polygon fill="none" stroke="#000000" points="561.5,-59.2 561.5,-81.2 628.5,-81.2 628.5,-59.2 561.5,-59.2"/>
<text text-anchor="start" x="564.5" y="-66.9" font-family="Helvetica,sans-Serif" font-size="11.00" fill="#000000">date[10]</text>
<polygon fill="#ffffff" stroke="transparent" points="413.5,-40.2 413.5,-59.2 491.5,-59.2 491.5,-40.2 413.5,-40.2"/>
<polygon fill="none" stroke="#000000" points="413.5,-40.2 413.5,-59.2 491.5,-59.2 491.5,-40.2 413.5,-40.2"/>
<text text-anchor="start" x="416.5" y="-46.3" font-family="Helvetica,sans-Serif" font-size="11.00" fill="#000000">&lt; 2</text>
<polygon fill="#ffffff" stroke="transparent" points="491.5,-40.2 491.5,-59.2 561.5,-59.2 561.5,-40.2 491.5,-40.2"/>
<polygon fill="none" stroke="#000000" points="491.5,-40.2 491.5,-59.2 561.5,-59.2 561.5,-40.2 491.5,-40.2"/>
<text text-anchor="start" x="552.3862" y="-46.3" font-family="Helvetica,sans-Serif" font-size="11.00" fill="#000000"> &#160;</text>
<polygon fill="#ffffff" stroke="transparent" points="561.5,-40.2 561.5,-59.2 628.5,-59.2 628.5,-40.2 561.5,-40.2"/>
<polygon fill="none" stroke="#000000" points="561.5,-40.2 561.5,-59.2 628.5,-59.2 628.5,-40.2 561.5,-40.2"/>
<text text-anchor="start" x="609.9053" y="-46.3" font-family="Helvetica,sans-Serif" font-size="11.00" fill="#000000">0 &gt;</text>
<polygon fill="none" stroke="#000000" stroke-width="2" points="412,-39.2 412,-259.2 629,-259.2 629,-39.2 412,-39.2"/>
</a>
</g>
</g>
<!-- forms -->
<g id="node2" class="node">
<title>forms</title>
<g id="a_node2"><a xlink:href="../../tables/forms.html" xlink:title="forms" target="_top">
<polygon fill="#ffffff" stroke="transparent" points="224,-190.7 224,-339.7 362,-339.7 362,-190.7 224,-190.7"/>
<polygon fill="#f5f5f5" stroke="transparent" points="224,-316.2 224,-339.2 362,-339.2 362,-316.2 224,-316.2"/>
<polygon fill="none" stroke="#000000" points="224,-316.2 224,-339.2 362,-339.2 362,-316.2 224,-316.2"/>
<text text-anchor="start" x="229" y="-324.8" font-family="Helvetica,sans-Serif" font-weight="bold" font-size="11.00" fill="#000000">forms</text>
<text text-anchor="start" x="327.0437" y="-324.3" font-family="Helvetica,sans-Serif" font-size="11.00" fill="#000000">[table]</text>
<polygon fill="none" stroke="#000000" points="224,-294.2 224,-316.2 362,-316.2 362,-294.2 224,-294.2"/>
<image xlink:href="../../images/primaryKeys.png" width="11px" height="12px" preserveAspectRatio="xMinYMin meet" x="229" y="-311.2"/>
<text text-anchor="start" x="244" y="-301.3" font-family="Helvetica,sans-Serif" font-size="11.00" fill="#000000">id</text>
<polygon fill="#ffffff" stroke="transparent" points="224,-272.2 224,-294.2 362,-294.2 362,-272.2 224,-272.2"/>
<polygon fill="none" stroke="#000000" points="224,-272.2 224,-294.2 362,-294.2 362,-272.2 224,-272.2"/>
<text text-anchor="start" x="244" y="-279.3" font-family="Helvetica,sans-Serif" font-size="11.00" fill="#000000">encounter</text>
<polygon fill="none" stroke="#000000" points="224,-250.2 224,-272.2 362,-272.2 362,-250.2 224,-250.2"/>
<image xlink:href="../../images/primaryKeys.png" width="11px" height="12px" preserveAspectRatio="xMinYMin meet" x="229" y="-267.2"/>
<text text-anchor="start" x="244" y="-257.3" font-family="Helvetica,sans-Serif" font-size="11.00" fill="#000000">form_id</text>
<polygon fill="#ffffff" stroke="transparent" points="224,-228.2 224,-250.2 362,-250.2 362,-228.2 224,-228.2"/>
<polygon fill="none" stroke="#000000" points="224,-228.2 224,-250.2 362,-250.2 362,-228.2 224,-228.2"/>
<image xlink:href="../../images/foreignKeys.png" width="11px" height="12px" preserveAspectRatio="xMinYMin meet" x="229" y="-245.2"/>
<text text-anchor="start" x="244" y="-235.3" font-family="Helvetica,sans-Serif" font-size="11.00" fill="#000000">pid</text>
<polygon fill="none" stroke="#000000" points="224,-209.2 224,-228.2 362,-228.2 362,-209.2 224,-209.2"/>
<text text-anchor="start" x="227" y="-215.3" font-family="Helvetica,sans-Serif" font-size="11.00" fill="#000000">...</text>
<polygon fill="#ffffff" stroke="transparent" points="224,-190.2 224,-209.2 284,-209.2 284,-190.2 224,-190.2"/>
<polygon fill="none" stroke="#000000" points="224,-190.2 224,-209.2 284,-209.2 284,-190.2 224,-190.2"/>
<text text-anchor="start" x="227" y="-196.3" font-family="Helvetica,sans-Serif" font-size="11.00" fill="#000000">&lt; 1</text>
<polygon fill="#ffffff" stroke="transparent" points="284,-190.2 284,-209.2 315,-209.2 315,-190.2 284,-190.2"/>
<polygon fill="none" stroke="#000000" points="284,-190.2 284,-209.2 315,-209.2 315,-190.2 284,-190.2"/>
<text text-anchor="start" x="305.8862" y="-196.3" font-family="Helvetica,sans-Serif" font-size="11.00" fill="#000000"> &#160;</text>
<polygon fill="#ffffff" stroke="transparent" points="315,-190.2 315,-209.2 362,-209.2 362,-190.2 315,-190.2"/>
<polygon fill="none" stroke="#000000" points="315,-190.2 315,-209.2 362,-209.2 362,-190.2 315,-190.2"/>
<text text-anchor="start" x="337.2904" y="-196.3" font-family="Helvetica,sans-Serif" font-size="11.00" fill="#000000">10 &gt;</text>
</a>
</g>
</g>
<!-- form_prior_auth&#45;&gt;forms -->
<g id="edge1" class="edge">
<title>form_prior_auth:w&#45;&gt;forms:e</title>
<path fill="none" stroke="#000000" d="M402.918,-226.4037C386.0331,-234.3691 386.0002,-261.2 362,-261.2"/>
<polygon fill="#000000" stroke="#000000" points="411.9013,-220.4471 413.5323,-228.2791 411.9659,-228.6053 410.3349,-220.7733 411.9013,-220.4471"/>
<polyline fill="none" stroke="#000000" points="413.5,-224.2 409.584,-225.0155 "/>
<ellipse fill="none" stroke="#000000" cx="406.4512" cy="-225.668" rx="3.2" ry="3.2"/>
</g>
<!-- patient_data -->
<g id="node3" class="node">
<title>patient_data</title>
<g id="a_node3"><a xlink:href="../../tables/patient_data.html" xlink:title="patient_data" target="_top">
<polygon fill="#ffffff" stroke="transparent" points="8,-109.7 8,-346.7 175,-346.7 175,-109.7 8,-109.7"/>
<polygon fill="#f5f5f5" stroke="transparent" points="8.5,-323.2 8.5,-346.2 175.5,-346.2 175.5,-323.2 8.5,-323.2"/>
<polygon fill="none" stroke="#000000" points="8.5,-323.2 8.5,-346.2 175.5,-346.2 175.5,-323.2 8.5,-323.2"/>
<text text-anchor="start" x="13.5" y="-331.8" font-family="Helvetica,sans-Serif" font-weight="bold" font-size="11.00" fill="#000000">patient_data</text>
<text text-anchor="start" x="140.5437" y="-331.3" font-family="Helvetica,sans-Serif" font-size="11.00" fill="#000000">[table]</text>
<polygon fill="#ffffff" stroke="transparent" points="8.5,-301.2 8.5,-323.2 175.5,-323.2 175.5,-301.2 8.5,-301.2"/>
<polygon fill="none" stroke="#000000" points="8.5,-301.2 8.5,-323.2 175.5,-323.2 175.5,-301.2 8.5,-301.2"/>
<text text-anchor="start" x="28.5" y="-308.3" font-family="Helvetica,sans-Serif" font-size="11.00" fill="#000000">id</text>
<polygon fill="#ffffff" stroke="transparent" points="8.5,-279.2 8.5,-301.2 175.5,-301.2 175.5,-279.2 8.5,-279.2"/>
<polygon fill="none" stroke="#000000" points="8.5,-279.2 8.5,-301.2 175.5,-301.2 175.5,-279.2 8.5,-279.2"/>
<text text-anchor="start" x="28.5" y="-286.3" font-family="Helvetica,sans-Serif" font-size="11.00" fill="#000000">uuid</text>
<polygon fill="none" stroke="#000000" points="8.5,-257.2 8.5,-279.2 175.5,-279.2 175.5,-257.2 8.5,-257.2"/>
<image xlink:href="../../images/foreignKeys.png" width="11px" height="12px" preserveAspectRatio="xMinYMin meet" x="13.5" y="-274.2"/>
<text text-anchor="start" x="28.5" y="-264.3" font-family="Helvetica,sans-Serif" font-size="11.00" fill="#000000">pharmacy_id</text>
<polygon fill="none" stroke="#000000" points="8.5,-235.2 8.5,-257.2 175.5,-257.2 175.5,-235.2 8.5,-235.2"/>
<image xlink:href="../../images/foreignKeys.png" width="11px" height="12px" preserveAspectRatio="xMinYMin meet" x="13.5" y="-252.2"/>
<text text-anchor="start" x="28.5" y="-242.3" font-family="Helvetica,sans-Serif" font-size="11.00" fill="#000000">providerID</text>
<polygon fill="none" stroke="#000000" points="8.5,-213.2 8.5,-235.2 175.5,-235.2 175.5,-213.2 8.5,-213.2"/>
<image xlink:href="../../images/foreignKeys.png" width="11px" height="12px" preserveAspectRatio="xMinYMin meet" x="13.5" y="-230.2"/>
<text text-anchor="start" x="28.5" y="-220.3" font-family="Helvetica,sans-Serif" font-size="11.00" fill="#000000">ref_providerID</text>
<polygon fill="none" stroke="#000000" points="8.5,-191.2 8.5,-213.2 175.5,-213.2 175.5,-191.2 8.5,-191.2"/>
<image xlink:href="../../images/primaryKeys.png" width="11px" height="12px" preserveAspectRatio="xMinYMin meet" x="13.5" y="-208.2"/>
<text text-anchor="start" x="28.5" y="-198.3" font-family="Helvetica,sans-Serif" font-size="11.00" fill="#000000">pid</text>
<polygon fill="none" stroke="#000000" points="8.5,-169.2 8.5,-191.2 175.5,-191.2 175.5,-169.2 8.5,-169.2"/>
<image xlink:href="../../images/foreignKeys.png" width="11px" height="12px" preserveAspectRatio="xMinYMin meet" x="13.5" y="-186.2"/>
<text text-anchor="start" x="28.5" y="-176.3" font-family="Helvetica,sans-Serif" font-size="11.00" fill="#000000">created_by</text>
<polygon fill="none" stroke="#000000" points="8.5,-147.2 8.5,-169.2 175.5,-169.2 175.5,-147.2 8.5,-147.2"/>
<image xlink:href="../../images/foreignKeys.png" width="11px" height="12px" preserveAspectRatio="xMinYMin meet" x="13.5" y="-164.2"/>
<text text-anchor="start" x="28.5" y="-154.3" font-family="Helvetica,sans-Serif" font-size="11.00" fill="#000000">updated_by</text>
<polygon fill="none" stroke="#000000" points="8.5,-128.2 8.5,-147.2 175.5,-147.2 175.5,-128.2 8.5,-128.2"/>
<text text-anchor="start" x="11.5" y="-134.3" font-family="Helvetica,sans-Serif" font-size="11.00" fill="#000000">...</text>
<polygon fill="#ffffff" stroke="transparent" points="8.5,-109.2 8.5,-128.2 82.5,-128.2 82.5,-109.2 8.5,-109.2"/>
<polygon fill="none" stroke="#000000" points="8.5,-109.2 8.5,-128.2 82.5,-128.2 82.5,-109.2 8.5,-109.2"/>
<text text-anchor="start" x="11.5" y="-115.3" font-family="Helvetica,sans-Serif" font-size="11.00" fill="#000000">&lt; 5</text>
<polygon fill="#ffffff" stroke="transparent" points="82.5,-109.2 82.5,-128.2 121.5,-128.2 121.5,-109.2 82.5,-109.2"/>
<polygon fill="none" stroke="#000000" points="82.5,-109.2 82.5,-128.2 121.5,-128.2 121.5,-109.2 82.5,-109.2"/>
<text text-anchor="start" x="112.3862" y="-115.3" font-family="Helvetica,sans-Serif" font-size="11.00" fill="#000000"> &#160;</text>
<polygon fill="#ffffff" stroke="transparent" points="121.5,-109.2 121.5,-128.2 175.5,-128.2 175.5,-109.2 121.5,-109.2"/>
<polygon fill="none" stroke="#000000" points="121.5,-109.2 121.5,-128.2 175.5,-128.2 175.5,-109.2 121.5,-109.2"/>
<text text-anchor="start" x="150.7904" y="-115.3" font-family="Helvetica,sans-Serif" font-size="11.00" fill="#000000">68 &gt;</text>
</a>
</g>
</g>
<!-- form_prior_auth&#45;&gt;patient_data -->
<g id="edge2" class="edge">
<title>form_prior_auth:w&#45;&gt;patient_data:e</title>
<path fill="none" stroke="#000000" d="M399.2637,-198.8154C389.8001,-193.5972 385.1471,-183.8124 370,-180.2 303.4228,-164.3219 282.3368,-163.3457 216,-180.2 196.1465,-185.2442 195.9843,-202.2 175.5,-202.2"/>
<polygon fill="#000000" stroke="#000000" points="405.7169,-200.3496 412.6673,-205.7024 409.6085,-201.2748 413.5,-202.2 413.5,-202.2 413.5,-202.2 409.6085,-201.2748 414.3327,-198.6976 405.7169,-200.3496 405.7169,-200.3496"/>
<ellipse fill="none" stroke="#000000" cx="402.6037" cy="-199.6094" rx="3.2" ry="3.2"/>
</g>
<!-- forms&#45;&gt;patient_data -->
<g id="edge3" class="edge">
<title>forms:w&#45;&gt;patient_data:e</title>
<path fill="none" stroke="#000000" d="M210.2341,-234.6631C197.821,-224.783 196.6813,-202.2 175.5,-202.2"/>
<polygon fill="#000000" stroke="#000000" points="216.402,-236.6958 222.8731,-242.6191 220.201,-237.9479 224,-239.2 224,-239.2 224,-239.2 220.201,-237.9479 225.1269,-235.7809 216.402,-236.6958 216.402,-236.6958"/>
<ellipse fill="none" stroke="#000000" cx="213.3628" cy="-235.6942" rx="3.2" ry="3.2"/>
</g>
</g>
</svg>
