<?xml version="1.0" encoding="UTF-8" standalone="no"?>
<!DOCTYPE svg PUBLIC "-//W3C//DTD SVG 1.1//EN"
 "http://www.w3.org/Graphics/SVG/1.1/DTD/svg11.dtd">
<!-- Generated by graphviz version 2.40.1 (20161225.0304)
 -->
<!-- Title: oneDegreeRelationshipsDiagram Pages: 1 -->
<svg width="508pt" height="294pt"
 viewBox="0.00 0.00 508.00 294.20" xmlns="http://www.w3.org/2000/svg" xmlns:xlink="http://www.w3.org/1999/xlink">
<g id="graph0" class="graph" transform="scale(1 1) rotate(0) translate(4 290.2)">
<title>oneDegreeRelationshipsDiagram</title>
<polygon fill="#ffffff" stroke="transparent" points="-4,4 -4,-290.2 504,-290.2 504,4 -4,4"/>
<text text-anchor="middle" x="72.4936" y="-7.3" font-family="Helvetica,sans-Serif" font-size="11.00" fill="#000000">Generated by SchemaSpy</text>
<!-- form_CAMOS_subcategory -->
<g id="node1" class="node">
<title>form_CAMOS_subcategory</title>
<g id="a_node1"><a xlink:href="../../tables/form_CAMOS_subcategory.html" xlink:title="form_CAMOS_subcategory" target="_top">
<polygon fill="#ffffff" stroke="transparent" points="224,-38.2 224,-282.2 492,-282.2 492,-38.2 224,-38.2"/>
<polygon fill="#f5f5f5" stroke="transparent" points="226,-257.2 226,-280.2 490,-280.2 490,-257.2 226,-257.2"/>
<polygon fill="none" stroke="#000000" points="226,-257.2 226,-280.2 490,-280.2 490,-257.2 226,-257.2"/>
<text text-anchor="start" x="231" y="-265.8" font-family="Helvetica,sans-Serif" font-weight="bold" font-size="11.00" fill="#000000">form_CAMOS_subcategory</text>
<text text-anchor="start" x="455.0437" y="-265.3" font-family="Helvetica,sans-Serif" font-size="11.00" fill="#000000">[table]</text>
<polygon fill="none" stroke="#000000" points="226,-235.2 226,-257.2 423,-257.2 423,-235.2 226,-235.2"/>
<image xlink:href="../../images/primaryKeys.png" width="11px" height="12px" preserveAspectRatio="xMinYMin meet" x="231" y="-252.2"/>
<text text-anchor="start" x="246" y="-242.3" font-family="Helvetica,sans-Serif" font-size="11.00" fill="#000000">id</text>
<polygon fill="none" stroke="#000000" points="423,-235.2 423,-257.2 490,-257.2 490,-235.2 423,-235.2"/>
<text text-anchor="start" x="426" y="-242.9" font-family="Helvetica,sans-Serif" font-size="11.00" fill="#000000">bigint[19]</text>
<polygon fill="none" stroke="#000000" points="226,-213.2 226,-235.2 423,-235.2 423,-213.2 226,-213.2"/>
<text text-anchor="start" x="246" y="-220.3" font-family="Helvetica,sans-Serif" font-size="11.00" fill="#000000">date</text>
<polygon fill="none" stroke="#000000" points="423,-213.2 423,-235.2 490,-235.2 490,-213.2 423,-213.2"/>
<text text-anchor="start" x="426" y="-220.9" font-family="Helvetica,sans-Serif" font-size="11.00" fill="#000000">datetime[19]</text>
<polygon fill="none" stroke="#000000" points="226,-191.2 226,-213.2 423,-213.2 423,-191.2 226,-191.2"/>
<image xlink:href="../../images/foreignKeys.png" width="11px" height="12px" preserveAspectRatio="xMinYMin meet" x="231" y="-208.2"/>
<text text-anchor="start" x="246" y="-198.3" font-family="Helvetica,sans-Serif" font-size="11.00" fill="#000000">pid</text>
<polygon fill="none" stroke="#000000" points="423,-191.2 423,-213.2 490,-213.2 490,-191.2 423,-191.2"/>
<text text-anchor="start" x="426" y="-198.9" font-family="Helvetica,sans-Serif" font-size="11.00" fill="#000000">bigint[19]</text>
<polygon fill="none" stroke="#000000" points="226,-169.2 226,-191.2 423,-191.2 423,-169.2 226,-169.2"/>
<text text-anchor="start" x="246" y="-176.3" font-family="Helvetica,sans-Serif" font-size="11.00" fill="#000000">user</text>
<polygon fill="none" stroke="#000000" points="423,-169.2 423,-191.2 490,-191.2 490,-169.2 423,-169.2"/>
<text text-anchor="start" x="425.9365" y="-176.9" font-family="Helvetica,sans-Serif" font-size="11.00" fill="#000000">varchar[255]</text>
<polygon fill="none" stroke="#000000" points="226,-147.2 226,-169.2 423,-169.2 423,-147.2 226,-147.2"/>
<text text-anchor="start" x="246" y="-154.3" font-family="Helvetica,sans-Serif" font-size="11.00" fill="#000000">groupname</text>
<polygon fill="none" stroke="#000000" points="423,-147.2 423,-169.2 490,-169.2 490,-147.2 423,-147.2"/>
<text text-anchor="start" x="425.9365" y="-154.9" font-family="Helvetica,sans-Serif" font-size="11.00" fill="#000000">varchar[255]</text>
<polygon fill="none" stroke="#000000" points="226,-125.2 226,-147.2 423,-147.2 423,-125.2 226,-125.2"/>
<text text-anchor="start" x="246" y="-132.3" font-family="Helvetica,sans-Serif" font-size="11.00" fill="#000000">authorized</text>
<polygon fill="none" stroke="#000000" points="423,-125.2 423,-147.2 490,-147.2 490,-125.2 423,-125.2"/>
<text text-anchor="start" x="426" y="-132.9" font-family="Helvetica,sans-Serif" font-size="11.00" fill="#000000">tinyint[3]</text>
<polygon fill="none" stroke="#000000" points="226,-103.2 226,-125.2 423,-125.2 423,-103.2 226,-103.2"/>
<text text-anchor="start" x="246" y="-110.3" font-family="Helvetica,sans-Serif" font-size="11.00" fill="#000000">activity</text>
<polygon fill="none" stroke="#000000" points="423,-103.2 423,-125.2 490,-125.2 490,-103.2 423,-103.2"/>
<text text-anchor="start" x="426" y="-110.9" font-family="Helvetica,sans-Serif" font-size="11.00" fill="#000000">tinyint[3]</text>
<polygon fill="none" stroke="#000000" points="226,-81.2 226,-103.2 423,-103.2 423,-81.2 226,-81.2"/>
<text text-anchor="start" x="246" y="-88.3" font-family="Helvetica,sans-Serif" font-size="11.00" fill="#000000">subcategory</text>
<polygon fill="none" stroke="#000000" points="423,-81.2 423,-103.2 490,-103.2 490,-81.2 423,-81.2"/>
<text text-anchor="start" x="426" y="-88.9" font-family="Helvetica,sans-Serif" font-size="11.00" fill="#000000">text[65535]</text>
<polygon fill="none" stroke="#000000" points="226,-59.2 226,-81.2 423,-81.2 423,-59.2 226,-59.2"/>
<text text-anchor="start" x="246" y="-66.3" font-family="Helvetica,sans-Serif" font-size="11.00" fill="#000000">category_id</text>
<polygon fill="none" stroke="#000000" points="423,-59.2 423,-81.2 490,-81.2 490,-59.2 423,-59.2"/>
<text text-anchor="start" x="426" y="-66.9" font-family="Helvetica,sans-Serif" font-size="11.00" fill="#000000">bigint[19]</text>
<polygon fill="#ffffff" stroke="transparent" points="226,-40.2 226,-59.2 329,-59.2 329,-40.2 226,-40.2"/>
<polygon fill="none" stroke="#000000" points="226,-40.2 226,-59.2 329,-59.2 329,-40.2 226,-40.2"/>
<text text-anchor="start" x="229" y="-46.3" font-family="Helvetica,sans-Serif" font-size="11.00" fill="#000000">&lt; 1</text>
<polygon fill="#ffffff" stroke="transparent" points="329,-40.2 329,-59.2 423,-59.2 423,-40.2 329,-40.2"/>
<polygon fill="none" stroke="#000000" points="329,-40.2 329,-59.2 423,-59.2 423,-40.2 329,-40.2"/>
<text text-anchor="start" x="413.8862" y="-46.3" font-family="Helvetica,sans-Serif" font-size="11.00" fill="#000000"> &#160;</text>
<polygon fill="#ffffff" stroke="transparent" points="423,-40.2 423,-59.2 490,-59.2 490,-40.2 423,-40.2"/>
<polygon fill="none" stroke="#000000" points="423,-40.2 423,-59.2 490,-59.2 490,-40.2 423,-40.2"/>
<text text-anchor="start" x="471.4053" y="-46.3" font-family="Helvetica,sans-Serif" font-size="11.00" fill="#000000">0 &gt;</text>
<polygon fill="none" stroke="#000000" stroke-width="2" points="225,-39.2 225,-281.2 491,-281.2 491,-39.2 225,-39.2"/>
</a>
</g>
</g>
<!-- patient_data -->
<g id="node2" class="node">
<title>patient_data</title>
<g id="a_node2"><a xlink:href="../../tables/patient_data.html" xlink:title="patient_data" target="_top">
<polygon fill="#ffffff" stroke="transparent" points="8,-153.7 8,-280.7 175,-280.7 175,-153.7 8,-153.7"/>
<polygon fill="#f5f5f5" stroke="transparent" points="8.5,-257.2 8.5,-280.2 175.5,-280.2 175.5,-257.2 8.5,-257.2"/>
<polygon fill="none" stroke="#000000" points="8.5,-257.2 8.5,-280.2 175.5,-280.2 175.5,-257.2 8.5,-257.2"/>
<text text-anchor="start" x="13.5" y="-265.8" font-family="Helvetica,sans-Serif" font-weight="bold" font-size="11.00" fill="#000000">patient_data</text>
<text text-anchor="start" x="140.5437" y="-265.3" font-family="Helvetica,sans-Serif" font-size="11.00" fill="#000000">[table]</text>
<polygon fill="#ffffff" stroke="transparent" points="8.5,-235.2 8.5,-257.2 175.5,-257.2 175.5,-235.2 8.5,-235.2"/>
<polygon fill="none" stroke="#000000" points="8.5,-235.2 8.5,-257.2 175.5,-257.2 175.5,-235.2 8.5,-235.2"/>
<text text-anchor="start" x="28.5" y="-242.3" font-family="Helvetica,sans-Serif" font-size="11.00" fill="#000000">id</text>
<polygon fill="#ffffff" stroke="transparent" points="8.5,-213.2 8.5,-235.2 175.5,-235.2 175.5,-213.2 8.5,-213.2"/>
<polygon fill="none" stroke="#000000" points="8.5,-213.2 8.5,-235.2 175.5,-235.2 175.5,-213.2 8.5,-213.2"/>
<text text-anchor="start" x="28.5" y="-220.3" font-family="Helvetica,sans-Serif" font-size="11.00" fill="#000000">uuid</text>
<polygon fill="none" stroke="#000000" points="8.5,-191.2 8.5,-213.2 175.5,-213.2 175.5,-191.2 8.5,-191.2"/>
<image xlink:href="../../images/primaryKeys.png" width="11px" height="12px" preserveAspectRatio="xMinYMin meet" x="13.5" y="-208.2"/>
<text text-anchor="start" x="28.5" y="-198.3" font-family="Helvetica,sans-Serif" font-size="11.00" fill="#000000">pid</text>
<polygon fill="none" stroke="#000000" points="8.5,-172.2 8.5,-191.2 175.5,-191.2 175.5,-172.2 8.5,-172.2"/>
<text text-anchor="start" x="11.5" y="-178.3" font-family="Helvetica,sans-Serif" font-size="11.00" fill="#000000">...</text>
<polygon fill="#ffffff" stroke="transparent" points="8.5,-153.2 8.5,-172.2 78.5,-172.2 78.5,-153.2 8.5,-153.2"/>
<polygon fill="none" stroke="#000000" points="8.5,-153.2 8.5,-172.2 78.5,-172.2 78.5,-153.2 8.5,-153.2"/>
<text text-anchor="start" x="11.5" y="-159.3" font-family="Helvetica,sans-Serif" font-size="11.00" fill="#000000"> &#160;</text>
<polygon fill="#ffffff" stroke="transparent" points="78.5,-153.2 78.5,-172.2 119.5,-172.2 119.5,-153.2 78.5,-153.2"/>
<polygon fill="none" stroke="#000000" points="78.5,-153.2 78.5,-172.2 119.5,-172.2 119.5,-153.2 78.5,-153.2"/>
<text text-anchor="start" x="110.3862" y="-159.3" font-family="Helvetica,sans-Serif" font-size="11.00" fill="#000000"> &#160;</text>
<polygon fill="#ffffff" stroke="transparent" points="119.5,-153.2 119.5,-172.2 175.5,-172.2 175.5,-153.2 119.5,-153.2"/>
<polygon fill="none" stroke="#000000" points="119.5,-153.2 119.5,-172.2 175.5,-172.2 175.5,-153.2 119.5,-153.2"/>
<text text-anchor="start" x="150.7904" y="-159.3" font-family="Helvetica,sans-Serif" font-size="11.00" fill="#000000">58 &gt;</text>
</a>
</g>
</g>
<!-- form_CAMOS_subcategory&#45;&gt;patient_data -->
<g id="edge1" class="edge">
<title>form_CAMOS_subcategory:w&#45;&gt;patient_data:e</title>
<path fill="none" stroke="#000000" d="M211.4203,-202.2C199.5435,-202.2 192.158,-202.2 175.5,-202.2"/>
<polygon fill="#000000" stroke="#000000" points="218,-202.2001 226,-205.8 222,-202.2 226,-202.2 226,-202.2 226,-202.2 222,-202.2 226,-198.6 218,-202.2001 218,-202.2001"/>
<ellipse fill="none" stroke="#000000" cx="214.8" cy="-202.2001" rx="3.2" ry="3.2"/>
</g>
</g>
</svg>
