<?xml version="1.0" encoding="UTF-8" standalone="no"?>
<!DOCTYPE svg PUBLIC "-//W3C//DTD SVG 1.1//EN"
 "http://www.w3.org/Graphics/SVG/1.1/DTD/svg11.dtd">
<!-- Generated by graphviz version 2.40.1 (20161225.0304)
 -->
<!-- Title: oneDegreeRelationshipsDiagram Pages: 1 -->
<svg width="431pt" height="250pt"
 viewBox="0.00 0.00 431.00 250.20" xmlns="http://www.w3.org/2000/svg" xmlns:xlink="http://www.w3.org/1999/xlink">
<g id="graph0" class="graph" transform="scale(1 1) rotate(0) translate(4 246.2)">
<title>oneDegreeRelationshipsDiagram</title>
<polygon fill="#ffffff" stroke="transparent" points="-4,4 -4,-246.2 427,-246.2 427,4 -4,4"/>
<text text-anchor="middle" x="72.4936" y="-7.3" font-family="Helvetica,sans-Serif" font-size="11.00" fill="#000000">Generated by SchemaSpy</text>
<!-- form_eye_base -->
<g id="node1" class="node">
<title>form_eye_base</title>
<g id="a_node1"><a xlink:href="../../tables/form_eye_base.html" xlink:title="form_eye_base" target="_top">
<polygon fill="#ffffff" stroke="transparent" points="224,-38.2 224,-238.2 415,-238.2 415,-38.2 224,-38.2"/>
<polygon fill="#f5f5f5" stroke="transparent" points="226.5,-213.2 226.5,-236.2 413.5,-236.2 413.5,-213.2 226.5,-213.2"/>
<polygon fill="none" stroke="#000000" points="226.5,-213.2 226.5,-236.2 413.5,-236.2 413.5,-213.2 226.5,-213.2"/>
<text text-anchor="start" x="231.5" y="-221.8" font-family="Helvetica,sans-Serif" font-weight="bold" font-size="11.00" fill="#000000">form_eye_base</text>
<text text-anchor="start" x="378.5437" y="-221.3" font-family="Helvetica,sans-Serif" font-size="11.00" fill="#000000">[table]</text>
<polygon fill="none" stroke="#000000" points="226.5,-191.2 226.5,-213.2 346.5,-213.2 346.5,-191.2 226.5,-191.2"/>
<image xlink:href="../../images/primaryKeys.png" width="11px" height="12px" preserveAspectRatio="xMinYMin meet" x="231.5" y="-208.2"/>
<text text-anchor="start" x="246.5" y="-198.3" font-family="Helvetica,sans-Serif" font-size="11.00" fill="#000000">id</text>
<polygon fill="none" stroke="#000000" points="346.5,-191.2 346.5,-213.2 413.5,-213.2 413.5,-191.2 346.5,-191.2"/>
<text text-anchor="start" x="349.5" y="-198.9" font-family="Helvetica,sans-Serif" font-size="11.00" fill="#000000">bigint[19]</text>
<polygon fill="none" stroke="#000000" points="226.5,-169.2 226.5,-191.2 346.5,-191.2 346.5,-169.2 226.5,-169.2"/>
<text text-anchor="start" x="246.5" y="-176.3" font-family="Helvetica,sans-Serif" font-size="11.00" fill="#000000">date</text>
<polygon fill="none" stroke="#000000" points="346.5,-169.2 346.5,-191.2 413.5,-191.2 413.5,-169.2 346.5,-169.2"/>
<text text-anchor="start" x="349.5" y="-176.9" font-family="Helvetica,sans-Serif" font-size="11.00" fill="#000000">datetime[19]</text>
<polygon fill="none" stroke="#000000" points="226.5,-147.2 226.5,-169.2 346.5,-169.2 346.5,-147.2 226.5,-147.2"/>
<image xlink:href="../../images/foreignKeys.png" width="11px" height="12px" preserveAspectRatio="xMinYMin meet" x="231.5" y="-164.2"/>
<text text-anchor="start" x="246.5" y="-154.3" font-family="Helvetica,sans-Serif" font-size="11.00" fill="#000000">pid</text>
<polygon fill="none" stroke="#000000" points="346.5,-147.2 346.5,-169.2 413.5,-169.2 413.5,-147.2 346.5,-147.2"/>
<text text-anchor="start" x="349.5" y="-154.9" font-family="Helvetica,sans-Serif" font-size="11.00" fill="#000000">bigint[19]</text>
<polygon fill="none" stroke="#000000" points="226.5,-125.2 226.5,-147.2 346.5,-147.2 346.5,-125.2 226.5,-125.2"/>
<text text-anchor="start" x="246.5" y="-132.3" font-family="Helvetica,sans-Serif" font-size="11.00" fill="#000000">user</text>
<polygon fill="none" stroke="#000000" points="346.5,-125.2 346.5,-147.2 413.5,-147.2 413.5,-125.2 346.5,-125.2"/>
<text text-anchor="start" x="349.4365" y="-132.9" font-family="Helvetica,sans-Serif" font-size="11.00" fill="#000000">varchar[255]</text>
<polygon fill="none" stroke="#000000" points="226.5,-103.2 226.5,-125.2 346.5,-125.2 346.5,-103.2 226.5,-103.2"/>
<text text-anchor="start" x="246.5" y="-110.3" font-family="Helvetica,sans-Serif" font-size="11.00" fill="#000000">groupname</text>
<polygon fill="none" stroke="#000000" points="346.5,-103.2 346.5,-125.2 413.5,-125.2 413.5,-103.2 346.5,-103.2"/>
<text text-anchor="start" x="349.4365" y="-110.9" font-family="Helvetica,sans-Serif" font-size="11.00" fill="#000000">varchar[255]</text>
<polygon fill="none" stroke="#000000" points="226.5,-81.2 226.5,-103.2 346.5,-103.2 346.5,-81.2 226.5,-81.2"/>
<text text-anchor="start" x="246.5" y="-88.3" font-family="Helvetica,sans-Serif" font-size="11.00" fill="#000000">authorized</text>
<polygon fill="none" stroke="#000000" points="346.5,-81.2 346.5,-103.2 413.5,-103.2 413.5,-81.2 346.5,-81.2"/>
<text text-anchor="start" x="349.5" y="-88.9" font-family="Helvetica,sans-Serif" font-size="11.00" fill="#000000">tinyint[3]</text>
<polygon fill="none" stroke="#000000" points="226.5,-59.2 226.5,-81.2 346.5,-81.2 346.5,-59.2 226.5,-59.2"/>
<text text-anchor="start" x="246.5" y="-66.3" font-family="Helvetica,sans-Serif" font-size="11.00" fill="#000000">activity</text>
<polygon fill="none" stroke="#000000" points="346.5,-59.2 346.5,-81.2 413.5,-81.2 413.5,-59.2 346.5,-59.2"/>
<text text-anchor="start" x="349.5" y="-66.9" font-family="Helvetica,sans-Serif" font-size="11.00" fill="#000000">tinyint[3]</text>
<polygon fill="#ffffff" stroke="transparent" points="226.5,-40.2 226.5,-59.2 290.5,-59.2 290.5,-40.2 226.5,-40.2"/>
<polygon fill="none" stroke="#000000" points="226.5,-40.2 226.5,-59.2 290.5,-59.2 290.5,-40.2 226.5,-40.2"/>
<text text-anchor="start" x="229.5" y="-46.3" font-family="Helvetica,sans-Serif" font-size="11.00" fill="#000000">&lt; 1</text>
<polygon fill="#ffffff" stroke="transparent" points="290.5,-40.2 290.5,-59.2 346.5,-59.2 346.5,-40.2 290.5,-40.2"/>
<polygon fill="none" stroke="#000000" points="290.5,-40.2 290.5,-59.2 346.5,-59.2 346.5,-40.2 290.5,-40.2"/>
<text text-anchor="start" x="337.3862" y="-46.3" font-family="Helvetica,sans-Serif" font-size="11.00" fill="#000000"> &#160;</text>
<polygon fill="#ffffff" stroke="transparent" points="346.5,-40.2 346.5,-59.2 413.5,-59.2 413.5,-40.2 346.5,-40.2"/>
<polygon fill="none" stroke="#000000" points="346.5,-40.2 346.5,-59.2 413.5,-59.2 413.5,-40.2 346.5,-40.2"/>
<text text-anchor="start" x="394.9053" y="-46.3" font-family="Helvetica,sans-Serif" font-size="11.00" fill="#000000">0 &gt;</text>
<polygon fill="none" stroke="#000000" stroke-width="2" points="225,-39.2 225,-237.2 414,-237.2 414,-39.2 225,-39.2"/>
</a>
</g>
</g>
<!-- patient_data -->
<g id="node2" class="node">
<title>patient_data</title>
<g id="a_node2"><a xlink:href="../../tables/patient_data.html" xlink:title="patient_data" target="_top">
<polygon fill="#ffffff" stroke="transparent" points="8,-109.7 8,-236.7 175,-236.7 175,-109.7 8,-109.7"/>
<polygon fill="#f5f5f5" stroke="transparent" points="8.5,-213.2 8.5,-236.2 175.5,-236.2 175.5,-213.2 8.5,-213.2"/>
<polygon fill="none" stroke="#000000" points="8.5,-213.2 8.5,-236.2 175.5,-236.2 175.5,-213.2 8.5,-213.2"/>
<text text-anchor="start" x="13.5" y="-221.8" font-family="Helvetica,sans-Serif" font-weight="bold" font-size="11.00" fill="#000000">patient_data</text>
<text text-anchor="start" x="140.5437" y="-221.3" font-family="Helvetica,sans-Serif" font-size="11.00" fill="#000000">[table]</text>
<polygon fill="#ffffff" stroke="transparent" points="8.5,-191.2 8.5,-213.2 175.5,-213.2 175.5,-191.2 8.5,-191.2"/>
<polygon fill="none" stroke="#000000" points="8.5,-191.2 8.5,-213.2 175.5,-213.2 175.5,-191.2 8.5,-191.2"/>
<text text-anchor="start" x="28.5" y="-198.3" font-family="Helvetica,sans-Serif" font-size="11.00" fill="#000000">id</text>
<polygon fill="#ffffff" stroke="transparent" points="8.5,-169.2 8.5,-191.2 175.5,-191.2 175.5,-169.2 8.5,-169.2"/>
<polygon fill="none" stroke="#000000" points="8.5,-169.2 8.5,-191.2 175.5,-191.2 175.5,-169.2 8.5,-169.2"/>
<text text-anchor="start" x="28.5" y="-176.3" font-family="Helvetica,sans-Serif" font-size="11.00" fill="#000000">uuid</text>
<polygon fill="none" stroke="#000000" points="8.5,-147.2 8.5,-169.2 175.5,-169.2 175.5,-147.2 8.5,-147.2"/>
<image xlink:href="../../images/primaryKeys.png" width="11px" height="12px" preserveAspectRatio="xMinYMin meet" x="13.5" y="-164.2"/>
<text text-anchor="start" x="28.5" y="-154.3" font-family="Helvetica,sans-Serif" font-size="11.00" fill="#000000">pid</text>
<polygon fill="none" stroke="#000000" points="8.5,-128.2 8.5,-147.2 175.5,-147.2 175.5,-128.2 8.5,-128.2"/>
<text text-anchor="start" x="11.5" y="-134.3" font-family="Helvetica,sans-Serif" font-size="11.00" fill="#000000">...</text>
<polygon fill="#ffffff" stroke="transparent" points="8.5,-109.2 8.5,-128.2 78.5,-128.2 78.5,-109.2 8.5,-109.2"/>
<polygon fill="none" stroke="#000000" points="8.5,-109.2 8.5,-128.2 78.5,-128.2 78.5,-109.2 8.5,-109.2"/>
<text text-anchor="start" x="11.5" y="-115.3" font-family="Helvetica,sans-Serif" font-size="11.00" fill="#000000"> &#160;</text>
<polygon fill="#ffffff" stroke="transparent" points="78.5,-109.2 78.5,-128.2 119.5,-128.2 119.5,-109.2 78.5,-109.2"/>
<polygon fill="none" stroke="#000000" points="78.5,-109.2 78.5,-128.2 119.5,-128.2 119.5,-109.2 78.5,-109.2"/>
<text text-anchor="start" x="110.3862" y="-115.3" font-family="Helvetica,sans-Serif" font-size="11.00" fill="#000000"> &#160;</text>
<polygon fill="#ffffff" stroke="transparent" points="119.5,-109.2 119.5,-128.2 175.5,-128.2 175.5,-109.2 119.5,-109.2"/>
<polygon fill="none" stroke="#000000" points="119.5,-109.2 119.5,-128.2 175.5,-128.2 175.5,-109.2 119.5,-109.2"/>
<text text-anchor="start" x="150.7904" y="-115.3" font-family="Helvetica,sans-Serif" font-size="11.00" fill="#000000">58 &gt;</text>
</a>
</g>
</g>
<!-- form_eye_base&#45;&gt;patient_data -->
<g id="edge1" class="edge">
<title>form_eye_base:w&#45;&gt;patient_data:e</title>
<path fill="none" stroke="#000000" d="M211.776,-158.2C199.7815,-158.2 192.3229,-158.2 175.5,-158.2"/>
<polygon fill="#000000" stroke="#000000" points="218.5,-158.2001 226.5,-161.8 222.5,-158.2 226.5,-158.2 226.5,-158.2 226.5,-158.2 222.5,-158.2 226.5,-154.6 218.5,-158.2001 218.5,-158.2001"/>
<ellipse fill="none" stroke="#000000" cx="215.3" cy="-158.2001" rx="3.2" ry="3.2"/>
</g>
</g>
</svg>
