<?xml version="1.0" encoding="UTF-8" standalone="no"?>
<!DOCTYPE svg PUBLIC "-//W3C//DTD SVG 1.1//EN"
 "http://www.w3.org/Graphics/SVG/1.1/DTD/svg11.dtd">
<!-- Generated by graphviz version 2.40.1 (20161225.0304)
 -->
<!-- Title: oneDegreeRelationshipsDiagram Pages: 1 -->
<svg width="208pt" height="162pt"
 viewBox="0.00 0.00 208.00 162.20" xmlns="http://www.w3.org/2000/svg" xmlns:xlink="http://www.w3.org/1999/xlink">
<g id="graph0" class="graph" transform="scale(1 1) rotate(0) translate(4 158.2)">
<title>oneDegreeRelationshipsDiagram</title>
<polygon fill="#ffffff" stroke="transparent" points="-4,4 -4,-158.2 204,-158.2 204,4 -4,4"/>
<text text-anchor="middle" x="72.4936" y="-7.3" font-family="Helvetica,sans-Serif" font-size="11.00" fill="#000000">Generated by SchemaSpy</text>
<!-- gacl_aco_map -->
<g id="node1" class="node">
<title>gacl_aco_map</title>
<g id="a_node1"><a xlink:href="../../tables/gacl_aco_map.html" xlink:title="gacl_aco_map" target="_top">
<polygon fill="#ffffff" stroke="transparent" points="8,-38.2 8,-150.2 192,-150.2 192,-38.2 8,-38.2"/>
<polygon fill="#f5f5f5" stroke="transparent" points="10,-125.2 10,-148.2 190,-148.2 190,-125.2 10,-125.2"/>
<polygon fill="none" stroke="#000000" points="10,-125.2 10,-148.2 190,-148.2 190,-125.2 10,-125.2"/>
<text text-anchor="start" x="15" y="-133.8" font-family="Helvetica,sans-Serif" font-weight="bold" font-size="11.00" fill="#000000">gacl_aco_map</text>
<text text-anchor="start" x="155.0437" y="-133.3" font-family="Helvetica,sans-Serif" font-size="11.00" fill="#000000">[table]</text>
<polygon fill="none" stroke="#000000" points="10,-103.2 10,-125.2 123,-125.2 123,-103.2 10,-103.2"/>
<image xlink:href="../../images/primaryKeys.png" width="11px" height="12px" preserveAspectRatio="xMinYMin meet" x="15" y="-120.2"/>
<text text-anchor="start" x="30" y="-110.3" font-family="Helvetica,sans-Serif" font-size="11.00" fill="#000000">acl_id</text>
<polygon fill="none" stroke="#000000" points="123,-103.2 123,-125.2 190,-125.2 190,-103.2 123,-103.2"/>
<text text-anchor="start" x="126" y="-110.9" font-family="Helvetica,sans-Serif" font-size="11.00" fill="#000000">int[10]</text>
<polygon fill="none" stroke="#000000" points="10,-81.2 10,-103.2 123,-103.2 123,-81.2 10,-81.2"/>
<image xlink:href="../../images/primaryKeys.png" width="11px" height="12px" preserveAspectRatio="xMinYMin meet" x="15" y="-98.2"/>
<text text-anchor="start" x="30" y="-88.3" font-family="Helvetica,sans-Serif" font-size="11.00" fill="#000000">section_value</text>
<polygon fill="none" stroke="#000000" points="123,-81.2 123,-103.2 190,-103.2 190,-81.2 123,-81.2"/>
<text text-anchor="start" x="125.9365" y="-88.9" font-family="Helvetica,sans-Serif" font-size="11.00" fill="#000000">varchar[150]</text>
<polygon fill="none" stroke="#000000" points="10,-59.2 10,-81.2 123,-81.2 123,-59.2 10,-59.2"/>
<image xlink:href="../../images/primaryKeys.png" width="11px" height="12px" preserveAspectRatio="xMinYMin meet" x="15" y="-76.2"/>
<text text-anchor="start" x="30" y="-66.3" font-family="Helvetica,sans-Serif" font-size="11.00" fill="#000000">value</text>
<polygon fill="none" stroke="#000000" points="123,-59.2 123,-81.2 190,-81.2 190,-59.2 123,-59.2"/>
<text text-anchor="start" x="125.9365" y="-66.9" font-family="Helvetica,sans-Serif" font-size="11.00" fill="#000000">varchar[150]</text>
<polygon fill="#ffffff" stroke="transparent" points="10,-40.2 10,-59.2 71,-59.2 71,-40.2 10,-40.2"/>
<polygon fill="none" stroke="#000000" points="10,-40.2 10,-59.2 71,-59.2 71,-40.2 10,-40.2"/>
<text text-anchor="start" x="13" y="-46.3" font-family="Helvetica,sans-Serif" font-size="11.00" fill="#000000">&lt; 0</text>
<polygon fill="#ffffff" stroke="transparent" points="71,-40.2 71,-59.2 123,-59.2 123,-40.2 71,-40.2"/>
<polygon fill="none" stroke="#000000" points="71,-40.2 71,-59.2 123,-59.2 123,-40.2 71,-40.2"/>
<text text-anchor="start" x="113.8862" y="-46.3" font-family="Helvetica,sans-Serif" font-size="11.00" fill="#000000"> &#160;</text>
<polygon fill="#ffffff" stroke="transparent" points="123,-40.2 123,-59.2 190,-59.2 190,-40.2 123,-40.2"/>
<polygon fill="none" stroke="#000000" points="123,-40.2 123,-59.2 190,-59.2 190,-40.2 123,-40.2"/>
<text text-anchor="start" x="171.4053" y="-46.3" font-family="Helvetica,sans-Serif" font-size="11.00" fill="#000000">0 &gt;</text>
<polygon fill="none" stroke="#000000" stroke-width="2" points="9,-39.2 9,-149.2 191,-149.2 191,-39.2 9,-39.2"/>
</a>
</g>
</g>
</g>
</svg>
