<?xml version="1.0" encoding="UTF-8" standalone="no"?>
<!DOCTYPE svg PUBLIC "-//W3C//DTD SVG 1.1//EN"
 "http://www.w3.org/Graphics/SVG/1.1/DTD/svg11.dtd">
<!-- Generated by graphviz version 2.40.1 (20161225.0304)
 -->
<!-- Title: oneDegreeRelationshipsDiagram Pages: 1 -->
<svg width="486pt" height="1763pt"
 viewBox="0.00 0.00 486.00 1763.20" xmlns="http://www.w3.org/2000/svg" xmlns:xlink="http://www.w3.org/1999/xlink">
<g id="graph0" class="graph" transform="scale(1 1) rotate(0) translate(4 1759.2)">
<title>oneDegreeRelationshipsDiagram</title>
<polygon fill="#ffffff" stroke="transparent" points="-4,4 -4,-1759.2 482,-1759.2 482,4 -4,4"/>
<text text-anchor="middle" x="72.4936" y="-7.3" font-family="Helvetica,sans-Serif" font-size="11.00" fill="#000000">Generated by SchemaSpy</text>
<!-- billing -->
<g id="node1" class="node">
<title>billing</title>
<g id="a_node1"><a xlink:href="../../tables/billing.html" xlink:title="billing" target="_top">
<polygon fill="#ffffff" stroke="transparent" points="294.5,-1514.2 294.5,-1751.2 415.5,-1751.2 415.5,-1514.2 294.5,-1514.2"/>
<polygon fill="#f5f5f5" stroke="transparent" points="295,-1727.7 295,-1750.7 416,-1750.7 416,-1727.7 295,-1727.7"/>
<polygon fill="none" stroke="#000000" points="295,-1727.7 295,-1750.7 416,-1750.7 416,-1727.7 295,-1727.7"/>
<text text-anchor="start" x="300" y="-1736.3" font-family="Helvetica,sans-Serif" font-weight="bold" font-size="11.00" fill="#000000">billing</text>
<text text-anchor="start" x="381.0437" y="-1735.8" font-family="Helvetica,sans-Serif" font-size="11.00" fill="#000000">[table]</text>
<polygon fill="none" stroke="#000000" points="295,-1705.7 295,-1727.7 416,-1727.7 416,-1705.7 295,-1705.7"/>
<image xlink:href="../../images/primaryKeys.png" width="11px" height="12px" preserveAspectRatio="xMinYMin meet" x="300" y="-1722.7"/>
<text text-anchor="start" x="315" y="-1712.8" font-family="Helvetica,sans-Serif" font-size="11.00" fill="#000000">id</text>
<polygon fill="#ffffff" stroke="transparent" points="295,-1683.7 295,-1705.7 416,-1705.7 416,-1683.7 295,-1683.7"/>
<polygon fill="none" stroke="#000000" points="295,-1683.7 295,-1705.7 416,-1705.7 416,-1683.7 295,-1683.7"/>
<image xlink:href="../../images/foreignKeys.png" width="11px" height="12px" preserveAspectRatio="xMinYMin meet" x="300" y="-1700.7"/>
<text text-anchor="start" x="315" y="-1690.8" font-family="Helvetica,sans-Serif" font-size="11.00" fill="#000000">pid</text>
<polygon fill="none" stroke="#000000" points="295,-1661.7 295,-1683.7 416,-1683.7 416,-1661.7 295,-1661.7"/>
<image xlink:href="../../images/foreignKeys.png" width="11px" height="12px" preserveAspectRatio="xMinYMin meet" x="300" y="-1678.7"/>
<text text-anchor="start" x="315" y="-1668.8" font-family="Helvetica,sans-Serif" font-size="11.00" fill="#000000">provider_id</text>
<polygon fill="none" stroke="#000000" points="295,-1639.7 295,-1661.7 416,-1661.7 416,-1639.7 295,-1639.7"/>
<image xlink:href="../../images/foreignKeys.png" width="11px" height="12px" preserveAspectRatio="xMinYMin meet" x="300" y="-1656.7"/>
<text text-anchor="start" x="315" y="-1646.8" font-family="Helvetica,sans-Serif" font-size="11.00" fill="#000000">user</text>
<polygon fill="none" stroke="#000000" points="295,-1617.7 295,-1639.7 416,-1639.7 416,-1617.7 295,-1617.7"/>
<image xlink:href="../../images/foreignKeys.png" width="11px" height="12px" preserveAspectRatio="xMinYMin meet" x="300" y="-1634.7"/>
<text text-anchor="start" x="315" y="-1624.8" font-family="Helvetica,sans-Serif" font-size="11.00" fill="#000000">groupname</text>
<polygon fill="none" stroke="#000000" points="295,-1595.7 295,-1617.7 416,-1617.7 416,-1595.7 295,-1595.7"/>
<image xlink:href="../../images/foreignKeys.png" width="11px" height="12px" preserveAspectRatio="xMinYMin meet" x="300" y="-1612.7"/>
<text text-anchor="start" x="315" y="-1602.8" font-family="Helvetica,sans-Serif" font-size="11.00" fill="#000000">encounter</text>
<polygon fill="none" stroke="#000000" points="295,-1573.7 295,-1595.7 416,-1595.7 416,-1573.7 295,-1573.7"/>
<image xlink:href="../../images/foreignKeys.png" width="11px" height="12px" preserveAspectRatio="xMinYMin meet" x="300" y="-1590.7"/>
<text text-anchor="start" x="315" y="-1580.8" font-family="Helvetica,sans-Serif" font-size="11.00" fill="#000000">payer_id</text>
<polygon fill="none" stroke="#000000" points="295,-1551.7 295,-1573.7 416,-1573.7 416,-1551.7 295,-1551.7"/>
<image xlink:href="../../images/foreignKeys.png" width="11px" height="12px" preserveAspectRatio="xMinYMin meet" x="300" y="-1568.7"/>
<text text-anchor="start" x="315" y="-1558.8" font-family="Helvetica,sans-Serif" font-size="11.00" fill="#000000">x12_partner_id</text>
<polygon fill="none" stroke="#000000" points="295,-1532.7 295,-1551.7 416,-1551.7 416,-1532.7 295,-1532.7"/>
<text text-anchor="start" x="298" y="-1538.8" font-family="Helvetica,sans-Serif" font-size="11.00" fill="#000000">...</text>
<polygon fill="#ffffff" stroke="transparent" points="295,-1513.7 295,-1532.7 354,-1532.7 354,-1513.7 295,-1513.7"/>
<polygon fill="none" stroke="#000000" points="295,-1513.7 295,-1532.7 354,-1532.7 354,-1513.7 295,-1513.7"/>
<text text-anchor="start" x="298" y="-1519.8" font-family="Helvetica,sans-Serif" font-size="11.00" fill="#000000">&lt; 7</text>
<polygon fill="#ffffff" stroke="transparent" points="354,-1513.7 354,-1532.7 385,-1532.7 385,-1513.7 354,-1513.7"/>
<polygon fill="none" stroke="#000000" points="354,-1513.7 354,-1532.7 385,-1532.7 385,-1513.7 354,-1513.7"/>
<text text-anchor="start" x="375.8862" y="-1519.8" font-family="Helvetica,sans-Serif" font-size="11.00" fill="#000000"> &#160;</text>
<polygon fill="#ffffff" stroke="transparent" points="385,-1513.7 385,-1532.7 416,-1532.7 416,-1513.7 385,-1513.7"/>
<polygon fill="none" stroke="#000000" points="385,-1513.7 385,-1532.7 416,-1532.7 416,-1513.7 385,-1513.7"/>
<text text-anchor="start" x="406.8862" y="-1519.8" font-family="Helvetica,sans-Serif" font-size="11.00" fill="#000000"> &#160;</text>
</a>
</g>
</g>
<!-- groups -->
<g id="node2" class="node">
<title>groups</title>
<g id="a_node2"><a xlink:href="../../tables/groups.html" xlink:title="groups" target="_top">
<polygon fill="#ffffff" stroke="transparent" points="8,-913.7 8,-1025.7 191,-1025.7 191,-913.7 8,-913.7"/>
<polygon fill="#f5f5f5" stroke="transparent" points="10.5,-1000.7 10.5,-1023.7 189.5,-1023.7 189.5,-1000.7 10.5,-1000.7"/>
<polygon fill="none" stroke="#000000" points="10.5,-1000.7 10.5,-1023.7 189.5,-1023.7 189.5,-1000.7 10.5,-1000.7"/>
<text text-anchor="start" x="15.5" y="-1009.3" font-family="Helvetica,sans-Serif" font-weight="bold" font-size="11.00" fill="#000000">groups</text>
<text text-anchor="start" x="154.5437" y="-1008.8" font-family="Helvetica,sans-Serif" font-size="11.00" fill="#000000">[table]</text>
<polygon fill="none" stroke="#000000" points="10.5,-978.7 10.5,-1000.7 78.5,-1000.7 78.5,-978.7 10.5,-978.7"/>
<image xlink:href="../../images/primaryKeys.png" width="11px" height="12px" preserveAspectRatio="xMinYMin meet" x="15.5" y="-995.7"/>
<text text-anchor="start" x="30.5" y="-985.8" font-family="Helvetica,sans-Serif" font-size="11.00" fill="#000000">id</text>
<polygon fill="none" stroke="#000000" points="78.5,-978.7 78.5,-1000.7 189.5,-1000.7 189.5,-978.7 78.5,-978.7"/>
<text text-anchor="start" x="81.5" y="-986.4" font-family="Helvetica,sans-Serif" font-size="11.00" fill="#000000">bigint[19]</text>
<polygon fill="none" stroke="#000000" points="10.5,-956.7 10.5,-978.7 78.5,-978.7 78.5,-956.7 10.5,-956.7"/>
<image xlink:href="../../images/primaryKeys.png" width="11px" height="12px" preserveAspectRatio="xMinYMin meet" x="15.5" y="-973.7"/>
<text text-anchor="start" x="30.5" y="-963.8" font-family="Helvetica,sans-Serif" font-size="11.00" fill="#000000">name</text>
<polygon fill="none" stroke="#000000" points="78.5,-956.7 78.5,-978.7 189.5,-978.7 189.5,-956.7 78.5,-956.7"/>
<text text-anchor="start" x="81.1115" y="-964.4" font-family="Helvetica,sans-Serif" font-size="11.00" fill="#000000">longtext[2147483647]</text>
<polygon fill="none" stroke="#000000" points="10.5,-934.7 10.5,-956.7 78.5,-956.7 78.5,-934.7 10.5,-934.7"/>
<text text-anchor="start" x="30.5" y="-941.8" font-family="Helvetica,sans-Serif" font-size="11.00" fill="#000000">user</text>
<polygon fill="none" stroke="#000000" points="78.5,-934.7 78.5,-956.7 189.5,-956.7 189.5,-934.7 78.5,-934.7"/>
<text text-anchor="start" x="81.1115" y="-942.4" font-family="Helvetica,sans-Serif" font-size="11.00" fill="#000000">longtext[2147483647]</text>
<polygon fill="#ffffff" stroke="transparent" points="10.5,-915.7 10.5,-934.7 48.5,-934.7 48.5,-915.7 10.5,-915.7"/>
<polygon fill="none" stroke="#000000" points="10.5,-915.7 10.5,-934.7 48.5,-934.7 48.5,-915.7 10.5,-915.7"/>
<text text-anchor="start" x="13.5" y="-921.8" font-family="Helvetica,sans-Serif" font-size="11.00" fill="#000000">&lt; 0</text>
<polygon fill="#ffffff" stroke="transparent" points="48.5,-915.7 48.5,-934.7 78.5,-934.7 78.5,-915.7 48.5,-915.7"/>
<polygon fill="none" stroke="#000000" points="48.5,-915.7 48.5,-934.7 78.5,-934.7 78.5,-915.7 48.5,-915.7"/>
<text text-anchor="start" x="69.3862" y="-921.8" font-family="Helvetica,sans-Serif" font-size="11.00" fill="#000000"> &#160;</text>
<polygon fill="#ffffff" stroke="transparent" points="78.5,-915.7 78.5,-934.7 189.5,-934.7 189.5,-915.7 78.5,-915.7"/>
<polygon fill="none" stroke="#000000" points="78.5,-915.7 78.5,-934.7 189.5,-934.7 189.5,-915.7 78.5,-915.7"/>
<text text-anchor="start" x="170.9053" y="-921.8" font-family="Helvetica,sans-Serif" font-size="11.00" fill="#000000">8 &gt;</text>
<polygon fill="none" stroke="#000000" stroke-width="2" points="9,-914.7 9,-1024.7 190,-1024.7 190,-914.7 9,-914.7"/>
</a>
</g>
</g>
<!-- billing&#45;&gt;groups -->
<g id="edge1" class="edge">
<title>billing:w&#45;&gt;groups:e</title>
<path fill="none" stroke="#000000" d="M280.6229,-1627.3025C235.2929,-1617.5508 247.3315,-1558.4606 232,-1503.7 215.8931,-1446.1697 249.2425,-967.7 189.5,-967.7"/>
<polygon fill="#000000" stroke="#000000" points="287.0375,-1627.9259 294.6517,-1632.2831 291.0188,-1628.313 295,-1628.7 295,-1628.7 295,-1628.7 291.0188,-1628.313 295.3483,-1625.1169 287.0375,-1627.9259 287.0375,-1627.9259"/>
<ellipse fill="none" stroke="#000000" cx="283.8525" cy="-1627.6163" rx="3.2" ry="3.2"/>
</g>
<!-- form_gad7 -->
<g id="node3" class="node">
<title>form_gad7</title>
<g id="a_node3"><a xlink:href="../../tables/form_gad7.html" xlink:title="form_gad7" target="_top">
<polygon fill="#ffffff" stroke="transparent" points="261.5,-1344.2 261.5,-1493.2 448.5,-1493.2 448.5,-1344.2 261.5,-1344.2"/>
<polygon fill="#f5f5f5" stroke="transparent" points="262,-1469.7 262,-1492.7 449,-1492.7 449,-1469.7 262,-1469.7"/>
<polygon fill="none" stroke="#000000" points="262,-1469.7 262,-1492.7 449,-1492.7 449,-1469.7 262,-1469.7"/>
<text text-anchor="start" x="267" y="-1478.3" font-family="Helvetica,sans-Serif" font-weight="bold" font-size="11.00" fill="#000000">form_gad7</text>
<text text-anchor="start" x="414.0437" y="-1477.8" font-family="Helvetica,sans-Serif" font-size="11.00" fill="#000000">[table]</text>
<polygon fill="none" stroke="#000000" points="262,-1447.7 262,-1469.7 449,-1469.7 449,-1447.7 262,-1447.7"/>
<image xlink:href="../../images/primaryKeys.png" width="11px" height="12px" preserveAspectRatio="xMinYMin meet" x="267" y="-1464.7"/>
<text text-anchor="start" x="282" y="-1454.8" font-family="Helvetica,sans-Serif" font-size="11.00" fill="#000000">id</text>
<polygon fill="none" stroke="#000000" points="262,-1425.7 262,-1447.7 449,-1447.7 449,-1425.7 262,-1425.7"/>
<image xlink:href="../../images/foreignKeys.png" width="11px" height="12px" preserveAspectRatio="xMinYMin meet" x="267" y="-1442.7"/>
<text text-anchor="start" x="282" y="-1432.8" font-family="Helvetica,sans-Serif" font-size="11.00" fill="#000000">pid</text>
<polygon fill="none" stroke="#000000" points="262,-1403.7 262,-1425.7 449,-1425.7 449,-1403.7 262,-1403.7"/>
<image xlink:href="../../images/foreignKeys.png" width="11px" height="12px" preserveAspectRatio="xMinYMin meet" x="267" y="-1420.7"/>
<text text-anchor="start" x="282" y="-1410.8" font-family="Helvetica,sans-Serif" font-size="11.00" fill="#000000">user</text>
<polygon fill="none" stroke="#000000" points="262,-1381.7 262,-1403.7 449,-1403.7 449,-1381.7 262,-1381.7"/>
<image xlink:href="../../images/foreignKeys.png" width="11px" height="12px" preserveAspectRatio="xMinYMin meet" x="267" y="-1398.7"/>
<text text-anchor="start" x="282" y="-1388.8" font-family="Helvetica,sans-Serif" font-size="11.00" fill="#000000">groupname</text>
<polygon fill="none" stroke="#000000" points="262,-1362.7 262,-1381.7 449,-1381.7 449,-1362.7 262,-1362.7"/>
<text text-anchor="start" x="265" y="-1368.8" font-family="Helvetica,sans-Serif" font-size="11.00" fill="#000000">...</text>
<polygon fill="#ffffff" stroke="transparent" points="262,-1343.7 262,-1362.7 354,-1362.7 354,-1343.7 262,-1343.7"/>
<polygon fill="none" stroke="#000000" points="262,-1343.7 262,-1362.7 354,-1362.7 354,-1343.7 262,-1343.7"/>
<text text-anchor="start" x="265" y="-1349.8" font-family="Helvetica,sans-Serif" font-size="11.00" fill="#000000">&lt; 4</text>
<polygon fill="#ffffff" stroke="transparent" points="354,-1343.7 354,-1362.7 401,-1362.7 401,-1343.7 354,-1343.7"/>
<polygon fill="none" stroke="#000000" points="354,-1343.7 354,-1362.7 401,-1362.7 401,-1343.7 354,-1343.7"/>
<text text-anchor="start" x="391.8862" y="-1349.8" font-family="Helvetica,sans-Serif" font-size="11.00" fill="#000000"> &#160;</text>
<polygon fill="#ffffff" stroke="transparent" points="401,-1343.7 401,-1362.7 449,-1362.7 449,-1343.7 401,-1343.7"/>
<polygon fill="none" stroke="#000000" points="401,-1343.7 401,-1362.7 449,-1362.7 449,-1343.7 401,-1343.7"/>
<text text-anchor="start" x="439.8862" y="-1349.8" font-family="Helvetica,sans-Serif" font-size="11.00" fill="#000000"> &#160;</text>
</a>
</g>
</g>
<!-- form_gad7&#45;&gt;groups -->
<g id="edge2" class="edge">
<title>form_gad7:w&#45;&gt;groups:e</title>
<path fill="none" stroke="#000000" d="M247.7104,-1388.7641C178.9955,-1345.9189 279.8821,-967.7 189.5,-967.7"/>
<polygon fill="#000000" stroke="#000000" points="254.2872,-1390.5755 261.044,-1396.1707 258.1436,-1391.6378 262,-1392.7 262,-1392.7 262,-1392.7 258.1436,-1391.6378 262.956,-1389.2293 254.2872,-1390.5755 254.2872,-1390.5755"/>
<ellipse fill="none" stroke="#000000" cx="251.2021" cy="-1389.7258" rx="3.2" ry="3.2"/>
</g>
<!-- form_painmap -->
<g id="node4" class="node">
<title>form_painmap</title>
<g id="a_node4"><a xlink:href="../../tables/form_painmap.html" xlink:title="form_painmap" target="_top">
<polygon fill="#ffffff" stroke="transparent" points="287.5,-1174.2 287.5,-1323.2 422.5,-1323.2 422.5,-1174.2 287.5,-1174.2"/>
<polygon fill="#f5f5f5" stroke="transparent" points="288,-1299.7 288,-1322.7 423,-1322.7 423,-1299.7 288,-1299.7"/>
<polygon fill="none" stroke="#000000" points="288,-1299.7 288,-1322.7 423,-1322.7 423,-1299.7 288,-1299.7"/>
<text text-anchor="start" x="293" y="-1308.3" font-family="Helvetica,sans-Serif" font-weight="bold" font-size="11.00" fill="#000000">form_painmap</text>
<text text-anchor="start" x="388.5219" y="-1307.8" font-family="Helvetica,sans-Serif" font-size="11.00" fill="#000000">[table]</text>
<polygon fill="none" stroke="#000000" points="288,-1277.7 288,-1299.7 423,-1299.7 423,-1277.7 288,-1277.7"/>
<image xlink:href="../../images/primaryKeys.png" width="11px" height="12px" preserveAspectRatio="xMinYMin meet" x="293" y="-1294.7"/>
<text text-anchor="start" x="317" y="-1284.8" font-family="Helvetica,sans-Serif" font-size="11.00" fill="#000000">id</text>
<polygon fill="none" stroke="#000000" points="288,-1255.7 288,-1277.7 423,-1277.7 423,-1255.7 288,-1255.7"/>
<image xlink:href="../../images/foreignKeys.png" width="11px" height="12px" preserveAspectRatio="xMinYMin meet" x="293" y="-1272.7"/>
<text text-anchor="start" x="317" y="-1262.8" font-family="Helvetica,sans-Serif" font-size="11.00" fill="#000000">pid</text>
<polygon fill="none" stroke="#000000" points="288,-1233.7 288,-1255.7 423,-1255.7 423,-1233.7 288,-1233.7"/>
<image xlink:href="../../images/foreignKeys.png" width="11px" height="12px" preserveAspectRatio="xMinYMin meet" x="293" y="-1250.7"/>
<text text-anchor="start" x="317" y="-1240.8" font-family="Helvetica,sans-Serif" font-size="11.00" fill="#000000">user</text>
<polygon fill="none" stroke="#000000" points="288,-1211.7 288,-1233.7 423,-1233.7 423,-1211.7 288,-1211.7"/>
<image xlink:href="../../images/foreignKeys.png" width="11px" height="12px" preserveAspectRatio="xMinYMin meet" x="293" y="-1228.7"/>
<text text-anchor="start" x="317" y="-1218.8" font-family="Helvetica,sans-Serif" font-size="11.00" fill="#000000">groupname</text>
<polygon fill="none" stroke="#000000" points="288,-1192.7 288,-1211.7 423,-1211.7 423,-1192.7 288,-1192.7"/>
<text text-anchor="start" x="291" y="-1198.8" font-family="Helvetica,sans-Serif" font-size="11.00" fill="#000000">...</text>
<polygon fill="#ffffff" stroke="transparent" points="288,-1173.7 288,-1192.7 354,-1192.7 354,-1173.7 288,-1173.7"/>
<polygon fill="none" stroke="#000000" points="288,-1173.7 288,-1192.7 354,-1192.7 354,-1173.7 288,-1173.7"/>
<text text-anchor="start" x="291" y="-1179.8" font-family="Helvetica,sans-Serif" font-size="11.00" fill="#000000">&lt; 4</text>
<polygon fill="#ffffff" stroke="transparent" points="354,-1173.7 354,-1192.7 388,-1192.7 388,-1173.7 354,-1173.7"/>
<polygon fill="none" stroke="#000000" points="354,-1173.7 354,-1192.7 388,-1192.7 388,-1173.7 354,-1173.7"/>
<text text-anchor="start" x="378.8862" y="-1179.8" font-family="Helvetica,sans-Serif" font-size="11.00" fill="#000000"> &#160;</text>
<polygon fill="#ffffff" stroke="transparent" points="388,-1173.7 388,-1192.7 423,-1192.7 423,-1173.7 388,-1173.7"/>
<polygon fill="none" stroke="#000000" points="388,-1173.7 388,-1192.7 423,-1192.7 423,-1173.7 388,-1173.7"/>
<text text-anchor="start" x="413.8862" y="-1179.8" font-family="Helvetica,sans-Serif" font-size="11.00" fill="#000000"> &#160;</text>
</a>
</g>
</g>
<!-- form_painmap&#45;&gt;groups -->
<g id="edge3" class="edge">
<title>form_painmap:w&#45;&gt;groups:e</title>
<path fill="none" stroke="#000000" d="M273.6221,-1220.8955C250.6252,-1214.347 246.3258,-1190.791 232,-1163.7 190.332,-1084.9033 278.6355,-967.7 189.5,-967.7"/>
<polygon fill="#000000" stroke="#000000" points="280.0623,-1221.7037 287.5517,-1226.272 284.0311,-1222.2019 288,-1222.7 288,-1222.7 288,-1222.7 284.0311,-1222.2019 288.4483,-1219.128 280.0623,-1221.7037 280.0623,-1221.7037"/>
<ellipse fill="none" stroke="#000000" cx="276.8872" cy="-1221.3052" rx="3.2" ry="3.2"/>
</g>
<!-- form_phq9 -->
<g id="node5" class="node">
<title>form_phq9</title>
<g id="a_node5"><a xlink:href="../../tables/form_phq9.html" xlink:title="form_phq9" target="_top">
<polygon fill="#ffffff" stroke="transparent" points="264,-1004.2 264,-1153.2 446,-1153.2 446,-1004.2 264,-1004.2"/>
<polygon fill="#f5f5f5" stroke="transparent" points="264,-1129.7 264,-1152.7 446,-1152.7 446,-1129.7 264,-1129.7"/>
<polygon fill="none" stroke="#000000" points="264,-1129.7 264,-1152.7 446,-1152.7 446,-1129.7 264,-1129.7"/>
<text text-anchor="start" x="269" y="-1138.3" font-family="Helvetica,sans-Serif" font-weight="bold" font-size="11.00" fill="#000000">form_phq9</text>
<text text-anchor="start" x="411.0437" y="-1137.8" font-family="Helvetica,sans-Serif" font-size="11.00" fill="#000000">[table]</text>
<polygon fill="none" stroke="#000000" points="264,-1107.7 264,-1129.7 446,-1129.7 446,-1107.7 264,-1107.7"/>
<image xlink:href="../../images/primaryKeys.png" width="11px" height="12px" preserveAspectRatio="xMinYMin meet" x="269" y="-1124.7"/>
<text text-anchor="start" x="284" y="-1114.8" font-family="Helvetica,sans-Serif" font-size="11.00" fill="#000000">id</text>
<polygon fill="none" stroke="#000000" points="264,-1085.7 264,-1107.7 446,-1107.7 446,-1085.7 264,-1085.7"/>
<image xlink:href="../../images/foreignKeys.png" width="11px" height="12px" preserveAspectRatio="xMinYMin meet" x="269" y="-1102.7"/>
<text text-anchor="start" x="284" y="-1092.8" font-family="Helvetica,sans-Serif" font-size="11.00" fill="#000000">pid</text>
<polygon fill="none" stroke="#000000" points="264,-1063.7 264,-1085.7 446,-1085.7 446,-1063.7 264,-1063.7"/>
<image xlink:href="../../images/foreignKeys.png" width="11px" height="12px" preserveAspectRatio="xMinYMin meet" x="269" y="-1080.7"/>
<text text-anchor="start" x="284" y="-1070.8" font-family="Helvetica,sans-Serif" font-size="11.00" fill="#000000">user</text>
<polygon fill="none" stroke="#000000" points="264,-1041.7 264,-1063.7 446,-1063.7 446,-1041.7 264,-1041.7"/>
<image xlink:href="../../images/foreignKeys.png" width="11px" height="12px" preserveAspectRatio="xMinYMin meet" x="269" y="-1058.7"/>
<text text-anchor="start" x="284" y="-1048.8" font-family="Helvetica,sans-Serif" font-size="11.00" fill="#000000">groupname</text>
<polygon fill="none" stroke="#000000" points="264,-1022.7 264,-1041.7 446,-1041.7 446,-1022.7 264,-1022.7"/>
<text text-anchor="start" x="267" y="-1028.8" font-family="Helvetica,sans-Serif" font-size="11.00" fill="#000000">...</text>
<polygon fill="#ffffff" stroke="transparent" points="264,-1003.7 264,-1022.7 353,-1022.7 353,-1003.7 264,-1003.7"/>
<polygon fill="none" stroke="#000000" points="264,-1003.7 264,-1022.7 353,-1022.7 353,-1003.7 264,-1003.7"/>
<text text-anchor="start" x="267" y="-1009.8" font-family="Helvetica,sans-Serif" font-size="11.00" fill="#000000">&lt; 4</text>
<polygon fill="#ffffff" stroke="transparent" points="353,-1003.7 353,-1022.7 399,-1022.7 399,-1003.7 353,-1003.7"/>
<polygon fill="none" stroke="#000000" points="353,-1003.7 353,-1022.7 399,-1022.7 399,-1003.7 353,-1003.7"/>
<text text-anchor="start" x="389.8862" y="-1009.8" font-family="Helvetica,sans-Serif" font-size="11.00" fill="#000000"> &#160;</text>
<polygon fill="#ffffff" stroke="transparent" points="399,-1003.7 399,-1022.7 446,-1022.7 446,-1003.7 399,-1003.7"/>
<polygon fill="none" stroke="#000000" points="399,-1003.7 399,-1022.7 446,-1022.7 446,-1003.7 399,-1003.7"/>
<text text-anchor="start" x="436.8862" y="-1009.8" font-family="Helvetica,sans-Serif" font-size="11.00" fill="#000000"> &#160;</text>
</a>
</g>
</g>
<!-- form_phq9&#45;&gt;groups -->
<g id="edge4" class="edge">
<title>form_phq9:w&#45;&gt;groups:e</title>
<path fill="none" stroke="#000000" d="M249.6402,-1049.6748C218.6712,-1034.533 234.0439,-967.7 189.5,-967.7"/>
<polygon fill="#000000" stroke="#000000" points="256.1718,-1051.0508 263.2579,-1056.2227 260.0859,-1051.8754 264,-1052.7 264,-1052.7 264,-1052.7 260.0859,-1051.8754 264.7421,-1049.1773 256.1718,-1051.0508 256.1718,-1051.0508"/>
<ellipse fill="none" stroke="#000000" cx="253.0406" cy="-1050.3911" rx="3.2" ry="3.2"/>
</g>
<!-- form_sdoh -->
<g id="node6" class="node">
<title>form_sdoh</title>
<g id="a_node6"><a xlink:href="../../tables/form_sdoh.html" xlink:title="form_sdoh" target="_top">
<polygon fill="#ffffff" stroke="transparent" points="273,-834.2 273,-983.2 437,-983.2 437,-834.2 273,-834.2"/>
<polygon fill="#f5f5f5" stroke="transparent" points="273,-959.7 273,-982.7 437,-982.7 437,-959.7 273,-959.7"/>
<polygon fill="none" stroke="#000000" points="273,-959.7 273,-982.7 437,-982.7 437,-959.7 273,-959.7"/>
<text text-anchor="start" x="278" y="-968.3" font-family="Helvetica,sans-Serif" font-weight="bold" font-size="11.00" fill="#000000">form_sdoh</text>
<text text-anchor="start" x="402.0437" y="-967.8" font-family="Helvetica,sans-Serif" font-size="11.00" fill="#000000">[table]</text>
<polygon fill="none" stroke="#000000" points="273,-937.7 273,-959.7 437,-959.7 437,-937.7 273,-937.7"/>
<image xlink:href="../../images/primaryKeys.png" width="11px" height="12px" preserveAspectRatio="xMinYMin meet" x="278" y="-954.7"/>
<text text-anchor="start" x="293" y="-944.8" font-family="Helvetica,sans-Serif" font-size="11.00" fill="#000000">id</text>
<polygon fill="none" stroke="#000000" points="273,-915.7 273,-937.7 437,-937.7 437,-915.7 273,-915.7"/>
<image xlink:href="../../images/foreignKeys.png" width="11px" height="12px" preserveAspectRatio="xMinYMin meet" x="278" y="-932.7"/>
<text text-anchor="start" x="293" y="-922.8" font-family="Helvetica,sans-Serif" font-size="11.00" fill="#000000">pid</text>
<polygon fill="none" stroke="#000000" points="273,-893.7 273,-915.7 437,-915.7 437,-893.7 273,-893.7"/>
<image xlink:href="../../images/foreignKeys.png" width="11px" height="12px" preserveAspectRatio="xMinYMin meet" x="278" y="-910.7"/>
<text text-anchor="start" x="293" y="-900.8" font-family="Helvetica,sans-Serif" font-size="11.00" fill="#000000">user</text>
<polygon fill="none" stroke="#000000" points="273,-871.7 273,-893.7 437,-893.7 437,-871.7 273,-871.7"/>
<image xlink:href="../../images/foreignKeys.png" width="11px" height="12px" preserveAspectRatio="xMinYMin meet" x="278" y="-888.7"/>
<text text-anchor="start" x="293" y="-878.8" font-family="Helvetica,sans-Serif" font-size="11.00" fill="#000000">groupname</text>
<polygon fill="none" stroke="#000000" points="273,-852.7 273,-871.7 437,-871.7 437,-852.7 273,-852.7"/>
<text text-anchor="start" x="276" y="-858.8" font-family="Helvetica,sans-Serif" font-size="11.00" fill="#000000">...</text>
<polygon fill="#ffffff" stroke="transparent" points="273,-833.7 273,-852.7 353,-852.7 353,-833.7 273,-833.7"/>
<polygon fill="none" stroke="#000000" points="273,-833.7 273,-852.7 353,-852.7 353,-833.7 273,-833.7"/>
<text text-anchor="start" x="276" y="-839.8" font-family="Helvetica,sans-Serif" font-size="11.00" fill="#000000">&lt; 4</text>
<polygon fill="#ffffff" stroke="transparent" points="353,-833.7 353,-852.7 395,-852.7 395,-833.7 353,-833.7"/>
<polygon fill="none" stroke="#000000" points="353,-833.7 353,-852.7 395,-852.7 395,-833.7 353,-833.7"/>
<text text-anchor="start" x="385.8862" y="-839.8" font-family="Helvetica,sans-Serif" font-size="11.00" fill="#000000"> &#160;</text>
<polygon fill="#ffffff" stroke="transparent" points="395,-833.7 395,-852.7 437,-852.7 437,-833.7 395,-833.7"/>
<polygon fill="none" stroke="#000000" points="395,-833.7 395,-852.7 437,-852.7 437,-833.7 395,-833.7"/>
<text text-anchor="start" x="427.8862" y="-839.8" font-family="Helvetica,sans-Serif" font-size="11.00" fill="#000000"> &#160;</text>
</a>
</g>
</g>
<!-- form_sdoh&#45;&gt;groups -->
<g id="edge5" class="edge">
<title>form_sdoh:w&#45;&gt;groups:e</title>
<path fill="none" stroke="#000000" d="M258.5825,-885.3371C223.9328,-899.6842 236.8713,-967.7 189.5,-967.7"/>
<polygon fill="#000000" stroke="#000000" points="265.1306,-884.1394 273.6477,-886.2413 269.0653,-883.4197 273,-882.7 273,-882.7 273,-882.7 269.0653,-883.4197 272.3523,-879.1587 265.1306,-884.1394 265.1306,-884.1394"/>
<ellipse fill="none" stroke="#000000" cx="261.9828" cy="-884.7152" rx="3.2" ry="3.2"/>
</g>
<!-- form_treatment_plan -->
<g id="node7" class="node">
<title>form_treatment_plan</title>
<g id="a_node7"><a xlink:href="../../tables/form_treatment_plan.html" xlink:title="form_treatment_plan" target="_top">
<polygon fill="#ffffff" stroke="transparent" points="240,-664.2 240,-813.2 470,-813.2 470,-664.2 240,-664.2"/>
<polygon fill="#f5f5f5" stroke="transparent" points="240,-789.7 240,-812.7 470,-812.7 470,-789.7 240,-789.7"/>
<polygon fill="none" stroke="#000000" points="240,-789.7 240,-812.7 470,-812.7 470,-789.7 240,-789.7"/>
<text text-anchor="start" x="245" y="-798.3" font-family="Helvetica,sans-Serif" font-weight="bold" font-size="11.00" fill="#000000">form_treatment_plan</text>
<text text-anchor="start" x="435.0437" y="-797.8" font-family="Helvetica,sans-Serif" font-size="11.00" fill="#000000">[table]</text>
<polygon fill="none" stroke="#000000" points="240,-767.7 240,-789.7 470,-789.7 470,-767.7 240,-767.7"/>
<image xlink:href="../../images/primaryKeys.png" width="11px" height="12px" preserveAspectRatio="xMinYMin meet" x="245" y="-784.7"/>
<text text-anchor="start" x="260" y="-774.8" font-family="Helvetica,sans-Serif" font-size="11.00" fill="#000000">id</text>
<polygon fill="none" stroke="#000000" points="240,-745.7 240,-767.7 470,-767.7 470,-745.7 240,-745.7"/>
<image xlink:href="../../images/foreignKeys.png" width="11px" height="12px" preserveAspectRatio="xMinYMin meet" x="245" y="-762.7"/>
<text text-anchor="start" x="260" y="-752.8" font-family="Helvetica,sans-Serif" font-size="11.00" fill="#000000">pid</text>
<polygon fill="none" stroke="#000000" points="240,-723.7 240,-745.7 470,-745.7 470,-723.7 240,-723.7"/>
<image xlink:href="../../images/foreignKeys.png" width="11px" height="12px" preserveAspectRatio="xMinYMin meet" x="245" y="-740.7"/>
<text text-anchor="start" x="260" y="-730.8" font-family="Helvetica,sans-Serif" font-size="11.00" fill="#000000">user</text>
<polygon fill="none" stroke="#000000" points="240,-701.7 240,-723.7 470,-723.7 470,-701.7 240,-701.7"/>
<image xlink:href="../../images/foreignKeys.png" width="11px" height="12px" preserveAspectRatio="xMinYMin meet" x="245" y="-718.7"/>
<text text-anchor="start" x="260" y="-708.8" font-family="Helvetica,sans-Serif" font-size="11.00" fill="#000000">groupname</text>
<polygon fill="none" stroke="#000000" points="240,-682.7 240,-701.7 470,-701.7 470,-682.7 240,-682.7"/>
<text text-anchor="start" x="243" y="-688.8" font-family="Helvetica,sans-Serif" font-size="11.00" fill="#000000">...</text>
<polygon fill="#ffffff" stroke="transparent" points="240,-663.7 240,-682.7 353,-682.7 353,-663.7 240,-663.7"/>
<polygon fill="none" stroke="#000000" points="240,-663.7 240,-682.7 353,-682.7 353,-663.7 240,-663.7"/>
<text text-anchor="start" x="243" y="-669.8" font-family="Helvetica,sans-Serif" font-size="11.00" fill="#000000">&lt; 4</text>
<polygon fill="#ffffff" stroke="transparent" points="353,-663.7 353,-682.7 411,-682.7 411,-663.7 353,-663.7"/>
<polygon fill="none" stroke="#000000" points="353,-663.7 353,-682.7 411,-682.7 411,-663.7 353,-663.7"/>
<text text-anchor="start" x="401.8862" y="-669.8" font-family="Helvetica,sans-Serif" font-size="11.00" fill="#000000"> &#160;</text>
<polygon fill="#ffffff" stroke="transparent" points="411,-663.7 411,-682.7 470,-682.7 470,-663.7 411,-663.7"/>
<polygon fill="none" stroke="#000000" points="411,-663.7 411,-682.7 470,-682.7 470,-663.7 411,-663.7"/>
<text text-anchor="start" x="460.8862" y="-669.8" font-family="Helvetica,sans-Serif" font-size="11.00" fill="#000000"> &#160;</text>
</a>
</g>
</g>
<!-- form_treatment_plan&#45;&gt;groups -->
<g id="edge6" class="edge">
<title>form_treatment_plan:w&#45;&gt;groups:e</title>
<path fill="none" stroke="#000000" d="M225.6438,-714.3284C140.7433,-736.0459 299.6187,-967.7 189.5,-967.7"/>
<polygon fill="#000000" stroke="#000000" points="232.051,-713.6017 240.4058,-716.2771 236.0255,-713.1508 240,-712.7 240,-712.7 240,-712.7 236.0255,-713.1508 239.5942,-709.1229 232.051,-713.6017 232.051,-713.6017"/>
<ellipse fill="none" stroke="#000000" cx="228.8714" cy="-713.9624" rx="3.2" ry="3.2"/>
</g>
<!-- lists -->
<g id="node8" class="node">
<title>lists</title>
<g id="a_node8"><a xlink:href="../../tables/lists.html" xlink:title="lists" target="_top">
<polygon fill="#ffffff" stroke="transparent" points="284,-274.2 284,-643.2 426,-643.2 426,-274.2 284,-274.2"/>
<polygon fill="#f5f5f5" stroke="transparent" points="284,-619.7 284,-642.7 426,-642.7 426,-619.7 284,-619.7"/>
<polygon fill="none" stroke="#000000" points="284,-619.7 284,-642.7 426,-642.7 426,-619.7 284,-619.7"/>
<text text-anchor="start" x="289" y="-628.3" font-family="Helvetica,sans-Serif" font-weight="bold" font-size="11.00" fill="#000000">lists</text>
<text text-anchor="start" x="391.0437" y="-627.8" font-family="Helvetica,sans-Serif" font-size="11.00" fill="#000000">[table]</text>
<polygon fill="none" stroke="#000000" points="284,-597.7 284,-619.7 426,-619.7 426,-597.7 284,-597.7"/>
<image xlink:href="../../images/primaryKeys.png" width="11px" height="12px" preserveAspectRatio="xMinYMin meet" x="289" y="-614.7"/>
<text text-anchor="start" x="304" y="-604.8" font-family="Helvetica,sans-Serif" font-size="11.00" fill="#000000">id</text>
<polygon fill="#ffffff" stroke="transparent" points="284,-575.7 284,-597.7 426,-597.7 426,-575.7 284,-575.7"/>
<polygon fill="none" stroke="#000000" points="284,-575.7 284,-597.7 426,-597.7 426,-575.7 284,-575.7"/>
<text text-anchor="start" x="304" y="-582.8" font-family="Helvetica,sans-Serif" font-size="11.00" fill="#000000">uuid</text>
<polygon fill="#ffffff" stroke="transparent" points="284,-553.7 284,-575.7 426,-575.7 426,-553.7 284,-553.7"/>
<polygon fill="none" stroke="#000000" points="284,-553.7 284,-575.7 426,-575.7 426,-553.7 284,-553.7"/>
<image xlink:href="../../images/foreignKeys.png" width="11px" height="12px" preserveAspectRatio="xMinYMin meet" x="289" y="-570.7"/>
<text text-anchor="start" x="304" y="-560.8" font-family="Helvetica,sans-Serif" font-size="11.00" fill="#000000">type</text>
<polygon fill="none" stroke="#000000" points="284,-531.7 284,-553.7 426,-553.7 426,-531.7 284,-531.7"/>
<image xlink:href="../../images/foreignKeys.png" width="11px" height="12px" preserveAspectRatio="xMinYMin meet" x="289" y="-548.7"/>
<text text-anchor="start" x="304" y="-538.8" font-family="Helvetica,sans-Serif" font-size="11.00" fill="#000000">subtype</text>
<polygon fill="none" stroke="#000000" points="284,-509.7 284,-531.7 426,-531.7 426,-509.7 284,-509.7"/>
<image xlink:href="../../images/foreignKeys.png" width="11px" height="12px" preserveAspectRatio="xMinYMin meet" x="289" y="-526.7"/>
<text text-anchor="start" x="304" y="-516.8" font-family="Helvetica,sans-Serif" font-size="11.00" fill="#000000">occurrence</text>
<polygon fill="none" stroke="#000000" points="284,-487.7 284,-509.7 426,-509.7 426,-487.7 284,-487.7"/>
<image xlink:href="../../images/foreignKeys.png" width="11px" height="12px" preserveAspectRatio="xMinYMin meet" x="289" y="-504.7"/>
<text text-anchor="start" x="304" y="-494.8" font-family="Helvetica,sans-Serif" font-size="11.00" fill="#000000">classification</text>
<polygon fill="#ffffff" stroke="transparent" points="284,-465.7 284,-487.7 426,-487.7 426,-465.7 284,-465.7"/>
<polygon fill="none" stroke="#000000" points="284,-465.7 284,-487.7 426,-487.7 426,-465.7 284,-465.7"/>
<image xlink:href="../../images/foreignKeys.png" width="11px" height="12px" preserveAspectRatio="xMinYMin meet" x="289" y="-482.7"/>
<text text-anchor="start" x="304" y="-472.8" font-family="Helvetica,sans-Serif" font-size="11.00" fill="#000000">pid</text>
<polygon fill="none" stroke="#000000" points="284,-443.7 284,-465.7 426,-465.7 426,-443.7 284,-443.7"/>
<image xlink:href="../../images/foreignKeys.png" width="11px" height="12px" preserveAspectRatio="xMinYMin meet" x="289" y="-460.7"/>
<text text-anchor="start" x="304" y="-450.8" font-family="Helvetica,sans-Serif" font-size="11.00" fill="#000000">user</text>
<polygon fill="none" stroke="#000000" points="284,-421.7 284,-443.7 426,-443.7 426,-421.7 284,-421.7"/>
<image xlink:href="../../images/foreignKeys.png" width="11px" height="12px" preserveAspectRatio="xMinYMin meet" x="289" y="-438.7"/>
<text text-anchor="start" x="304" y="-428.8" font-family="Helvetica,sans-Serif" font-size="11.00" fill="#000000">groupname</text>
<polygon fill="none" stroke="#000000" points="284,-399.7 284,-421.7 426,-421.7 426,-399.7 284,-399.7"/>
<image xlink:href="../../images/foreignKeys.png" width="11px" height="12px" preserveAspectRatio="xMinYMin meet" x="289" y="-416.7"/>
<text text-anchor="start" x="304" y="-406.8" font-family="Helvetica,sans-Serif" font-size="11.00" fill="#000000">outcome</text>
<polygon fill="none" stroke="#000000" points="284,-377.7 284,-399.7 426,-399.7 426,-377.7 284,-377.7"/>
<image xlink:href="../../images/foreignKeys.png" width="11px" height="12px" preserveAspectRatio="xMinYMin meet" x="289" y="-394.7"/>
<text text-anchor="start" x="304" y="-384.8" font-family="Helvetica,sans-Serif" font-size="11.00" fill="#000000">reaction</text>
<polygon fill="none" stroke="#000000" points="284,-355.7 284,-377.7 426,-377.7 426,-355.7 284,-355.7"/>
<image xlink:href="../../images/foreignKeys.png" width="11px" height="12px" preserveAspectRatio="xMinYMin meet" x="289" y="-372.7"/>
<text text-anchor="start" x="304" y="-362.8" font-family="Helvetica,sans-Serif" font-size="11.00" fill="#000000">verification</text>
<polygon fill="none" stroke="#000000" points="284,-333.7 284,-355.7 426,-355.7 426,-333.7 284,-333.7"/>
<image xlink:href="../../images/foreignKeys.png" width="11px" height="12px" preserveAspectRatio="xMinYMin meet" x="289" y="-350.7"/>
<text text-anchor="start" x="304" y="-340.8" font-family="Helvetica,sans-Serif" font-size="11.00" fill="#000000">severity_al</text>
<polygon fill="none" stroke="#000000" points="284,-311.7 284,-333.7 426,-333.7 426,-311.7 284,-311.7"/>
<image xlink:href="../../images/foreignKeys.png" width="11px" height="12px" preserveAspectRatio="xMinYMin meet" x="289" y="-328.7"/>
<text text-anchor="start" x="304" y="-318.8" font-family="Helvetica,sans-Serif" font-size="11.00" fill="#000000">list_option_id</text>
<polygon fill="none" stroke="#000000" points="284,-292.7 284,-311.7 426,-311.7 426,-292.7 284,-292.7"/>
<text text-anchor="start" x="287" y="-298.8" font-family="Helvetica,sans-Serif" font-size="11.00" fill="#000000">...</text>
<polygon fill="#ffffff" stroke="transparent" points="284,-273.7 284,-292.7 356,-292.7 356,-273.7 284,-273.7"/>
<polygon fill="none" stroke="#000000" points="284,-273.7 284,-292.7 356,-292.7 356,-273.7 284,-273.7"/>
<text text-anchor="start" x="287" y="-279.8" font-family="Helvetica,sans-Serif" font-size="11.00" fill="#000000">&lt; 12</text>
<polygon fill="#ffffff" stroke="transparent" points="356,-273.7 356,-292.7 391,-292.7 391,-273.7 356,-273.7"/>
<polygon fill="none" stroke="#000000" points="356,-273.7 356,-292.7 391,-292.7 391,-273.7 356,-273.7"/>
<text text-anchor="start" x="381.8862" y="-279.8" font-family="Helvetica,sans-Serif" font-size="11.00" fill="#000000"> &#160;</text>
<polygon fill="#ffffff" stroke="transparent" points="391,-273.7 391,-292.7 426,-292.7 426,-273.7 391,-273.7"/>
<polygon fill="none" stroke="#000000" points="391,-273.7 391,-292.7 426,-292.7 426,-273.7 391,-273.7"/>
<text text-anchor="start" x="416.8862" y="-279.8" font-family="Helvetica,sans-Serif" font-size="11.00" fill="#000000"> &#160;</text>
</a>
</g>
</g>
<!-- lists&#45;&gt;groups -->
<g id="edge7" class="edge">
<title>lists:w&#45;&gt;groups:e</title>
<path fill="none" stroke="#000000" d="M269.4022,-433.6948C189.95,-445.4809 249.3766,-559.7093 232,-653.7 225.5995,-688.3203 224.707,-967.7 189.5,-967.7"/>
<polygon fill="#000000" stroke="#000000" points="276.0185,-433.244 284.2448,-436.2917 280.0093,-432.972 284,-432.7 284,-432.7 284,-432.7 280.0093,-432.972 283.7552,-429.1083 276.0185,-433.244 276.0185,-433.244"/>
<ellipse fill="none" stroke="#000000" cx="272.8259" cy="-433.4615" rx="3.2" ry="3.2"/>
</g>
<!-- pnotes -->
<g id="node9" class="node">
<title>pnotes</title>
<g id="a_node9"><a xlink:href="../../tables/pnotes.html" xlink:title="pnotes" target="_top">
<polygon fill="#ffffff" stroke="transparent" points="284.5,-38.2 284.5,-253.2 425.5,-253.2 425.5,-38.2 284.5,-38.2"/>
<polygon fill="#f5f5f5" stroke="transparent" points="285,-229.7 285,-252.7 426,-252.7 426,-229.7 285,-229.7"/>
<polygon fill="none" stroke="#000000" points="285,-229.7 285,-252.7 426,-252.7 426,-229.7 285,-229.7"/>
<text text-anchor="start" x="290" y="-238.3" font-family="Helvetica,sans-Serif" font-weight="bold" font-size="11.00" fill="#000000">pnotes</text>
<text text-anchor="start" x="391.0437" y="-237.8" font-family="Helvetica,sans-Serif" font-size="11.00" fill="#000000">[table]</text>
<polygon fill="none" stroke="#000000" points="285,-207.7 285,-229.7 426,-229.7 426,-207.7 285,-207.7"/>
<image xlink:href="../../images/primaryKeys.png" width="11px" height="12px" preserveAspectRatio="xMinYMin meet" x="290" y="-224.7"/>
<text text-anchor="start" x="305" y="-214.8" font-family="Helvetica,sans-Serif" font-size="11.00" fill="#000000">id</text>
<polygon fill="#ffffff" stroke="transparent" points="285,-185.7 285,-207.7 426,-207.7 426,-185.7 285,-185.7"/>
<polygon fill="none" stroke="#000000" points="285,-185.7 285,-207.7 426,-207.7 426,-185.7 285,-185.7"/>
<image xlink:href="../../images/foreignKeys.png" width="11px" height="12px" preserveAspectRatio="xMinYMin meet" x="290" y="-202.7"/>
<text text-anchor="start" x="305" y="-192.8" font-family="Helvetica,sans-Serif" font-size="11.00" fill="#000000">pid</text>
<polygon fill="none" stroke="#000000" points="285,-163.7 285,-185.7 426,-185.7 426,-163.7 285,-163.7"/>
<image xlink:href="../../images/foreignKeys.png" width="11px" height="12px" preserveAspectRatio="xMinYMin meet" x="290" y="-180.7"/>
<text text-anchor="start" x="305" y="-170.8" font-family="Helvetica,sans-Serif" font-size="11.00" fill="#000000">user</text>
<polygon fill="none" stroke="#000000" points="285,-141.7 285,-163.7 426,-163.7 426,-141.7 285,-141.7"/>
<image xlink:href="../../images/foreignKeys.png" width="11px" height="12px" preserveAspectRatio="xMinYMin meet" x="290" y="-158.7"/>
<text text-anchor="start" x="305" y="-148.8" font-family="Helvetica,sans-Serif" font-size="11.00" fill="#000000">groupname</text>
<polygon fill="none" stroke="#000000" points="285,-119.7 285,-141.7 426,-141.7 426,-119.7 285,-119.7"/>
<image xlink:href="../../images/foreignKeys.png" width="11px" height="12px" preserveAspectRatio="xMinYMin meet" x="290" y="-136.7"/>
<text text-anchor="start" x="305" y="-126.8" font-family="Helvetica,sans-Serif" font-size="11.00" fill="#000000">assigned_to</text>
<polygon fill="none" stroke="#000000" points="285,-97.7 285,-119.7 426,-119.7 426,-97.7 285,-97.7"/>
<image xlink:href="../../images/foreignKeys.png" width="11px" height="12px" preserveAspectRatio="xMinYMin meet" x="290" y="-114.7"/>
<text text-anchor="start" x="305" y="-104.8" font-family="Helvetica,sans-Serif" font-size="11.00" fill="#000000">message_status</text>
<polygon fill="none" stroke="#000000" points="285,-75.7 285,-97.7 426,-97.7 426,-75.7 285,-75.7"/>
<image xlink:href="../../images/foreignKeys.png" width="11px" height="12px" preserveAspectRatio="xMinYMin meet" x="290" y="-92.7"/>
<text text-anchor="start" x="305" y="-82.8" font-family="Helvetica,sans-Serif" font-size="11.00" fill="#000000">update_by</text>
<polygon fill="none" stroke="#000000" points="285,-56.7 285,-75.7 426,-75.7 426,-56.7 285,-56.7"/>
<text text-anchor="start" x="288" y="-62.8" font-family="Helvetica,sans-Serif" font-size="11.00" fill="#000000">...</text>
<polygon fill="#ffffff" stroke="transparent" points="285,-37.7 285,-56.7 354,-56.7 354,-37.7 285,-37.7"/>
<polygon fill="none" stroke="#000000" points="285,-37.7 285,-56.7 354,-56.7 354,-37.7 285,-37.7"/>
<text text-anchor="start" x="288" y="-43.8" font-family="Helvetica,sans-Serif" font-size="11.00" fill="#000000">&lt; 6</text>
<polygon fill="#ffffff" stroke="transparent" points="354,-37.7 354,-56.7 390,-56.7 390,-37.7 354,-37.7"/>
<polygon fill="none" stroke="#000000" points="354,-37.7 354,-56.7 390,-56.7 390,-37.7 354,-37.7"/>
<text text-anchor="start" x="380.8862" y="-43.8" font-family="Helvetica,sans-Serif" font-size="11.00" fill="#000000"> &#160;</text>
<polygon fill="#ffffff" stroke="transparent" points="390,-37.7 390,-56.7 426,-56.7 426,-37.7 390,-37.7"/>
<polygon fill="none" stroke="#000000" points="390,-37.7 390,-56.7 426,-56.7 426,-37.7 390,-37.7"/>
<text text-anchor="start" x="416.8862" y="-43.8" font-family="Helvetica,sans-Serif" font-size="11.00" fill="#000000"> &#160;</text>
</a>
</g>
</g>
<!-- pnotes&#45;&gt;groups -->
<g id="edge8" class="edge">
<title>pnotes:w&#45;&gt;groups:e</title>
<path fill="none" stroke="#000000" d="M270.406,-154.4308C233.1494,-164.4425 244.2886,-216.1459 232,-263.7 222.1968,-301.6361 228.6823,-967.7 189.5,-967.7"/>
<polygon fill="#000000" stroke="#000000" points="277.0557,-153.6422 285.424,-156.2749 281.0278,-153.1711 285,-152.7 285,-152.7 285,-152.7 281.0278,-153.1711 284.576,-149.1251 277.0557,-153.6422 277.0557,-153.6422"/>
<ellipse fill="none" stroke="#000000" cx="273.8779" cy="-154.0191" rx="3.2" ry="3.2"/>
</g>
</g>
</svg>
