<?xml version="1.0" encoding="UTF-8" standalone="no"?>
<!DOCTYPE svg PUBLIC "-//W3C//DTD SVG 1.1//EN"
 "http://www.w3.org/Graphics/SVG/1.1/DTD/svg11.dtd">
<!-- Generated by graphviz version 2.40.1 (20161225.0304)
 -->
<!-- Title: oneDegreeRelationshipsDiagram Pages: 1 -->
<svg width="207pt" height="162pt"
 viewBox="0.00 0.00 207.00 162.20" xmlns="http://www.w3.org/2000/svg" xmlns:xlink="http://www.w3.org/1999/xlink">
<g id="graph0" class="graph" transform="scale(1 1) rotate(0) translate(4 158.2)">
<title>oneDegreeRelationshipsDiagram</title>
<polygon fill="#ffffff" stroke="transparent" points="-4,4 -4,-158.2 203,-158.2 203,4 -4,4"/>
<text text-anchor="middle" x="72.4936" y="-7.3" font-family="Helvetica,sans-Serif" font-size="11.00" fill="#000000">Generated by SchemaSpy</text>
<!-- groups -->
<g id="node1" class="node">
<title>groups</title>
<g id="a_node1"><a xlink:href="../../tables/groups.html" xlink:title="groups" target="_top">
<polygon fill="#ffffff" stroke="transparent" points="8,-38.2 8,-150.2 191,-150.2 191,-38.2 8,-38.2"/>
<polygon fill="#f5f5f5" stroke="transparent" points="10.5,-125.2 10.5,-148.2 189.5,-148.2 189.5,-125.2 10.5,-125.2"/>
<polygon fill="none" stroke="#000000" points="10.5,-125.2 10.5,-148.2 189.5,-148.2 189.5,-125.2 10.5,-125.2"/>
<text text-anchor="start" x="15.5" y="-133.8" font-family="Helvetica,sans-Serif" font-weight="bold" font-size="11.00" fill="#000000">groups</text>
<text text-anchor="start" x="154.5437" y="-133.3" font-family="Helvetica,sans-Serif" font-size="11.00" fill="#000000">[table]</text>
<polygon fill="none" stroke="#000000" points="10.5,-103.2 10.5,-125.2 78.5,-125.2 78.5,-103.2 10.5,-103.2"/>
<image xlink:href="../../images/primaryKeys.png" width="11px" height="12px" preserveAspectRatio="xMinYMin meet" x="15.5" y="-120.2"/>
<text text-anchor="start" x="30.5" y="-110.3" font-family="Helvetica,sans-Serif" font-size="11.00" fill="#000000">id</text>
<polygon fill="none" stroke="#000000" points="78.5,-103.2 78.5,-125.2 189.5,-125.2 189.5,-103.2 78.5,-103.2"/>
<text text-anchor="start" x="81.5" y="-110.9" font-family="Helvetica,sans-Serif" font-size="11.00" fill="#000000">bigint[19]</text>
<polygon fill="none" stroke="#000000" points="10.5,-81.2 10.5,-103.2 78.5,-103.2 78.5,-81.2 10.5,-81.2"/>
<text text-anchor="start" x="30.5" y="-88.3" font-family="Helvetica,sans-Serif" font-size="11.00" fill="#000000">name</text>
<polygon fill="none" stroke="#000000" points="78.5,-81.2 78.5,-103.2 189.5,-103.2 189.5,-81.2 78.5,-81.2"/>
<text text-anchor="start" x="81.1115" y="-88.9" font-family="Helvetica,sans-Serif" font-size="11.00" fill="#000000">longtext[2147483647]</text>
<polygon fill="none" stroke="#000000" points="10.5,-59.2 10.5,-81.2 78.5,-81.2 78.5,-59.2 10.5,-59.2"/>
<text text-anchor="start" x="30.5" y="-66.3" font-family="Helvetica,sans-Serif" font-size="11.00" fill="#000000">user</text>
<polygon fill="none" stroke="#000000" points="78.5,-59.2 78.5,-81.2 189.5,-81.2 189.5,-59.2 78.5,-59.2"/>
<text text-anchor="start" x="81.1115" y="-66.9" font-family="Helvetica,sans-Serif" font-size="11.00" fill="#000000">longtext[2147483647]</text>
<polygon fill="#ffffff" stroke="transparent" points="10.5,-40.2 10.5,-59.2 48.5,-59.2 48.5,-40.2 10.5,-40.2"/>
<polygon fill="none" stroke="#000000" points="10.5,-40.2 10.5,-59.2 48.5,-59.2 48.5,-40.2 10.5,-40.2"/>
<text text-anchor="start" x="13.5" y="-46.3" font-family="Helvetica,sans-Serif" font-size="11.00" fill="#000000">&lt; 0</text>
<polygon fill="#ffffff" stroke="transparent" points="48.5,-40.2 48.5,-59.2 78.5,-59.2 78.5,-40.2 48.5,-40.2"/>
<polygon fill="none" stroke="#000000" points="48.5,-40.2 48.5,-59.2 78.5,-59.2 78.5,-40.2 48.5,-40.2"/>
<text text-anchor="start" x="69.3862" y="-46.3" font-family="Helvetica,sans-Serif" font-size="11.00" fill="#000000"> &#160;</text>
<polygon fill="#ffffff" stroke="transparent" points="78.5,-40.2 78.5,-59.2 189.5,-59.2 189.5,-40.2 78.5,-40.2"/>
<polygon fill="none" stroke="#000000" points="78.5,-40.2 78.5,-59.2 189.5,-59.2 189.5,-40.2 78.5,-40.2"/>
<text text-anchor="start" x="170.9053" y="-46.3" font-family="Helvetica,sans-Serif" font-size="11.00" fill="#000000">0 &gt;</text>
<polygon fill="none" stroke="#000000" stroke-width="2" points="9,-39.2 9,-149.2 190,-149.2 190,-39.2 9,-39.2"/>
</a>
</g>
</g>
</g>
</svg>
