<?xml version="1.0" encoding="UTF-8" standalone="no"?>
<!DOCTYPE svg PUBLIC "-//W3C//DTD SVG 1.1//EN"
 "http://www.w3.org/Graphics/SVG/1.1/DTD/svg11.dtd">
<!-- Generated by graphviz version 2.40.1 (20161225.0304)
 -->
<!-- Title: oneDegreeRelationshipsDiagram Pages: 1 -->
<svg width="294pt" height="338pt"
 viewBox="0.00 0.00 294.00 338.20" xmlns="http://www.w3.org/2000/svg" xmlns:xlink="http://www.w3.org/1999/xlink">
<g id="graph0" class="graph" transform="scale(1 1) rotate(0) translate(4 334.2)">
<title>oneDegreeRelationshipsDiagram</title>
<polygon fill="#ffffff" stroke="transparent" points="-4,4 -4,-334.2 290,-334.2 290,4 -4,4"/>
<text text-anchor="middle" x="72.4936" y="-7.3" font-family="Helvetica,sans-Serif" font-size="11.00" fill="#000000">Generated by SchemaSpy</text>
<!-- icd10_reimbr_dx_9_10 -->
<g id="node1" class="node">
<title>icd10_reimbr_dx_9_10</title>
<g id="a_node1"><a xlink:href="../../tables/icd10_reimbr_dx_9_10.html" xlink:title="icd10_reimbr_dx_9_10" target="_top">
<polygon fill="#ffffff" stroke="transparent" points="8,-38.2 8,-326.2 278,-326.2 278,-38.2 8,-38.2"/>
<polygon fill="#f5f5f5" stroke="transparent" points="10,-301.2 10,-324.2 276,-324.2 276,-301.2 10,-301.2"/>
<polygon fill="none" stroke="#000000" points="10,-301.2 10,-324.2 276,-324.2 276,-301.2 10,-301.2"/>
<text text-anchor="start" x="15" y="-309.8" font-family="Helvetica,sans-Serif" font-weight="bold" font-size="11.00" fill="#000000">icd10_reimbr_dx_9_10</text>
<text text-anchor="start" x="241.0437" y="-309.3" font-family="Helvetica,sans-Serif" font-size="11.00" fill="#000000">[table]</text>
<polygon fill="#ffffff" stroke="transparent" points="10,-279.2 10,-301.2 178,-301.2 178,-279.2 10,-279.2"/>
<polygon fill="none" stroke="#000000" points="10,-279.2 10,-301.2 178,-301.2 178,-279.2 10,-279.2"/>
<text text-anchor="start" x="30" y="-286.3" font-family="Helvetica,sans-Serif" font-size="11.00" fill="#000000">map_id</text>
<polygon fill="none" stroke="#000000" points="178,-279.2 178,-301.2 276,-301.2 276,-279.2 178,-279.2"/>
<text text-anchor="start" x="180.8429" y="-286.9" font-family="Helvetica,sans-Serif" font-size="11.00" fill="#000000">bigint unsigned[20]</text>
<polygon fill="none" stroke="#000000" points="10,-257.2 10,-279.2 178,-279.2 178,-257.2 10,-257.2"/>
<text text-anchor="start" x="30" y="-264.3" font-family="Helvetica,sans-Serif" font-size="11.00" fill="#000000">code</text>
<polygon fill="none" stroke="#000000" points="178,-257.2 178,-279.2 276,-279.2 276,-257.2 178,-257.2"/>
<text text-anchor="start" x="181" y="-264.9" font-family="Helvetica,sans-Serif" font-size="11.00" fill="#000000">varchar[8]</text>
<polygon fill="none" stroke="#000000" points="10,-235.2 10,-257.2 178,-257.2 178,-235.2 10,-235.2"/>
<text text-anchor="start" x="30" y="-242.3" font-family="Helvetica,sans-Serif" font-size="11.00" fill="#000000">code_cnt</text>
<polygon fill="none" stroke="#000000" points="178,-235.2 178,-257.2 276,-257.2 276,-235.2 178,-235.2"/>
<text text-anchor="start" x="181" y="-242.9" font-family="Helvetica,sans-Serif" font-size="11.00" fill="#000000">tinyint[3]</text>
<polygon fill="none" stroke="#000000" points="10,-213.2 10,-235.2 178,-235.2 178,-213.2 10,-213.2"/>
<text text-anchor="start" x="30" y="-220.3" font-family="Helvetica,sans-Serif" font-size="11.00" fill="#000000">ICD9_01</text>
<polygon fill="none" stroke="#000000" points="178,-213.2 178,-235.2 276,-235.2 276,-213.2 178,-213.2"/>
<text text-anchor="start" x="181" y="-220.9" font-family="Helvetica,sans-Serif" font-size="11.00" fill="#000000">varchar[5]</text>
<polygon fill="none" stroke="#000000" points="10,-191.2 10,-213.2 178,-213.2 178,-191.2 10,-191.2"/>
<text text-anchor="start" x="30" y="-198.3" font-family="Helvetica,sans-Serif" font-size="11.00" fill="#000000">ICD9_02</text>
<polygon fill="none" stroke="#000000" points="178,-191.2 178,-213.2 276,-213.2 276,-191.2 178,-191.2"/>
<text text-anchor="start" x="181" y="-198.9" font-family="Helvetica,sans-Serif" font-size="11.00" fill="#000000">varchar[5]</text>
<polygon fill="none" stroke="#000000" points="10,-169.2 10,-191.2 178,-191.2 178,-169.2 10,-169.2"/>
<text text-anchor="start" x="30" y="-176.3" font-family="Helvetica,sans-Serif" font-size="11.00" fill="#000000">ICD9_03</text>
<polygon fill="none" stroke="#000000" points="178,-169.2 178,-191.2 276,-191.2 276,-169.2 178,-169.2"/>
<text text-anchor="start" x="181" y="-176.9" font-family="Helvetica,sans-Serif" font-size="11.00" fill="#000000">varchar[5]</text>
<polygon fill="none" stroke="#000000" points="10,-147.2 10,-169.2 178,-169.2 178,-147.2 10,-147.2"/>
<text text-anchor="start" x="30" y="-154.3" font-family="Helvetica,sans-Serif" font-size="11.00" fill="#000000">ICD9_04</text>
<polygon fill="none" stroke="#000000" points="178,-147.2 178,-169.2 276,-169.2 276,-147.2 178,-147.2"/>
<text text-anchor="start" x="181" y="-154.9" font-family="Helvetica,sans-Serif" font-size="11.00" fill="#000000">varchar[5]</text>
<polygon fill="none" stroke="#000000" points="10,-125.2 10,-147.2 178,-147.2 178,-125.2 10,-125.2"/>
<text text-anchor="start" x="30" y="-132.3" font-family="Helvetica,sans-Serif" font-size="11.00" fill="#000000">ICD9_05</text>
<polygon fill="none" stroke="#000000" points="178,-125.2 178,-147.2 276,-147.2 276,-125.2 178,-125.2"/>
<text text-anchor="start" x="181" y="-132.9" font-family="Helvetica,sans-Serif" font-size="11.00" fill="#000000">varchar[5]</text>
<polygon fill="none" stroke="#000000" points="10,-103.2 10,-125.2 178,-125.2 178,-103.2 10,-103.2"/>
<text text-anchor="start" x="30" y="-110.3" font-family="Helvetica,sans-Serif" font-size="11.00" fill="#000000">ICD9_06</text>
<polygon fill="none" stroke="#000000" points="178,-103.2 178,-125.2 276,-125.2 276,-103.2 178,-103.2"/>
<text text-anchor="start" x="181" y="-110.9" font-family="Helvetica,sans-Serif" font-size="11.00" fill="#000000">varchar[5]</text>
<polygon fill="none" stroke="#000000" points="10,-81.2 10,-103.2 178,-103.2 178,-81.2 10,-81.2"/>
<text text-anchor="start" x="30" y="-88.3" font-family="Helvetica,sans-Serif" font-size="11.00" fill="#000000">active</text>
<polygon fill="none" stroke="#000000" points="178,-81.2 178,-103.2 276,-103.2 276,-81.2 178,-81.2"/>
<text text-anchor="start" x="181" y="-88.9" font-family="Helvetica,sans-Serif" font-size="11.00" fill="#000000">tinyint[3]</text>
<polygon fill="none" stroke="#000000" points="10,-59.2 10,-81.2 178,-81.2 178,-59.2 10,-59.2"/>
<text text-anchor="start" x="30" y="-66.3" font-family="Helvetica,sans-Serif" font-size="11.00" fill="#000000">revision</text>
<polygon fill="none" stroke="#000000" points="178,-59.2 178,-81.2 276,-81.2 276,-59.2 178,-59.2"/>
<text text-anchor="start" x="181" y="-66.9" font-family="Helvetica,sans-Serif" font-size="11.00" fill="#000000">int[10]</text>
<polygon fill="#ffffff" stroke="transparent" points="10,-40.2 10,-59.2 98,-59.2 98,-40.2 10,-40.2"/>
<polygon fill="none" stroke="#000000" points="10,-40.2 10,-59.2 98,-59.2 98,-40.2 10,-40.2"/>
<text text-anchor="start" x="13" y="-46.3" font-family="Helvetica,sans-Serif" font-size="11.00" fill="#000000">&lt; 0</text>
<polygon fill="#ffffff" stroke="transparent" points="98,-40.2 98,-59.2 178,-59.2 178,-40.2 98,-40.2"/>
<polygon fill="none" stroke="#000000" points="98,-40.2 98,-59.2 178,-59.2 178,-40.2 98,-40.2"/>
<text text-anchor="start" x="168.8862" y="-46.3" font-family="Helvetica,sans-Serif" font-size="11.00" fill="#000000"> &#160;</text>
<polygon fill="#ffffff" stroke="transparent" points="178,-40.2 178,-59.2 276,-59.2 276,-40.2 178,-40.2"/>
<polygon fill="none" stroke="#000000" points="178,-40.2 178,-59.2 276,-59.2 276,-40.2 178,-40.2"/>
<text text-anchor="start" x="257.4053" y="-46.3" font-family="Helvetica,sans-Serif" font-size="11.00" fill="#000000">0 &gt;</text>
<polygon fill="none" stroke="#000000" stroke-width="2" points="9,-39.2 9,-325.2 277,-325.2 277,-39.2 9,-39.2"/>
</a>
</g>
</g>
</g>
</svg>
