<?xml version="1.0" encoding="UTF-8" standalone="no"?>
<!DOCTYPE svg PUBLIC "-//W3C//DTD SVG 1.1//EN"
 "http://www.w3.org/Graphics/SVG/1.1/DTD/svg11.dtd">
<!-- Generated by graphviz version 2.40.1 (20161225.0304)
 -->
<!-- Title: oneDegreeRelationshipsDiagram Pages: 1 -->
<svg width="302pt" height="360pt"
 viewBox="0.00 0.00 302.00 360.20" xmlns="http://www.w3.org/2000/svg" xmlns:xlink="http://www.w3.org/1999/xlink">
<g id="graph0" class="graph" transform="scale(1 1) rotate(0) translate(4 356.2)">
<title>oneDegreeRelationshipsDiagram</title>
<polygon fill="#ffffff" stroke="transparent" points="-4,4 -4,-356.2 298,-356.2 298,4 -4,4"/>
<text text-anchor="middle" x="72.4936" y="-7.3" font-family="Helvetica,sans-Serif" font-size="11.00" fill="#000000">Generated by SchemaSpy</text>
<!-- immunization_observation -->
<g id="node1" class="node">
<title>immunization_observation</title>
<g id="a_node1"><a xlink:href="../../tables/immunization_observation.html" xlink:title="immunization_observation" target="_top">
<polygon fill="#ffffff" stroke="transparent" points="8,-38.2 8,-348.2 286,-348.2 286,-38.2 8,-38.2"/>
<polygon fill="#f5f5f5" stroke="transparent" points="10,-323.2 10,-346.2 284,-346.2 284,-323.2 10,-323.2"/>
<polygon fill="none" stroke="#000000" points="10,-323.2 10,-346.2 284,-346.2 284,-323.2 10,-323.2"/>
<text text-anchor="start" x="15" y="-331.8" font-family="Helvetica,sans-Serif" font-weight="bold" font-size="11.00" fill="#000000">immunization_observation</text>
<text text-anchor="start" x="249.0437" y="-331.3" font-family="Helvetica,sans-Serif" font-size="11.00" fill="#000000">[table]</text>
<polygon fill="none" stroke="#000000" points="10,-301.2 10,-323.2 209,-323.2 209,-301.2 10,-301.2"/>
<image xlink:href="../../images/primaryKeys.png" width="11px" height="12px" preserveAspectRatio="xMinYMin meet" x="15" y="-318.2"/>
<text text-anchor="start" x="30" y="-308.3" font-family="Helvetica,sans-Serif" font-size="11.00" fill="#000000">imo_id</text>
<polygon fill="none" stroke="#000000" points="209,-301.2 209,-323.2 284,-323.2 284,-301.2 209,-301.2"/>
<text text-anchor="start" x="212" y="-308.9" font-family="Helvetica,sans-Serif" font-size="11.00" fill="#000000">int[10]</text>
<polygon fill="none" stroke="#000000" points="10,-279.2 10,-301.2 209,-301.2 209,-279.2 10,-279.2"/>
<text text-anchor="start" x="30" y="-286.3" font-family="Helvetica,sans-Serif" font-size="11.00" fill="#000000">imo_im_id</text>
<polygon fill="none" stroke="#000000" points="209,-279.2 209,-301.2 284,-301.2 284,-279.2 209,-279.2"/>
<text text-anchor="start" x="212" y="-286.9" font-family="Helvetica,sans-Serif" font-size="11.00" fill="#000000">int[10]</text>
<polygon fill="none" stroke="#000000" points="10,-257.2 10,-279.2 209,-279.2 209,-257.2 10,-257.2"/>
<text text-anchor="start" x="30" y="-264.3" font-family="Helvetica,sans-Serif" font-size="11.00" fill="#000000">imo_pid</text>
<polygon fill="none" stroke="#000000" points="209,-257.2 209,-279.2 284,-279.2 284,-257.2 209,-257.2"/>
<text text-anchor="start" x="212" y="-264.9" font-family="Helvetica,sans-Serif" font-size="11.00" fill="#000000">int[10]</text>
<polygon fill="none" stroke="#000000" points="10,-235.2 10,-257.2 209,-257.2 209,-235.2 10,-235.2"/>
<text text-anchor="start" x="30" y="-242.3" font-family="Helvetica,sans-Serif" font-size="11.00" fill="#000000">imo_criteria</text>
<polygon fill="none" stroke="#000000" points="209,-235.2 209,-257.2 284,-257.2 284,-235.2 209,-235.2"/>
<text text-anchor="start" x="212" y="-242.9" font-family="Helvetica,sans-Serif" font-size="11.00" fill="#000000">varchar[255]</text>
<polygon fill="none" stroke="#000000" points="10,-213.2 10,-235.2 209,-235.2 209,-213.2 10,-213.2"/>
<text text-anchor="start" x="30" y="-220.3" font-family="Helvetica,sans-Serif" font-size="11.00" fill="#000000">imo_criteria_value</text>
<polygon fill="none" stroke="#000000" points="209,-213.2 209,-235.2 284,-235.2 284,-213.2 209,-213.2"/>
<text text-anchor="start" x="212" y="-220.9" font-family="Helvetica,sans-Serif" font-size="11.00" fill="#000000">varchar[255]</text>
<polygon fill="none" stroke="#000000" points="10,-191.2 10,-213.2 209,-213.2 209,-191.2 10,-191.2"/>
<text text-anchor="start" x="30" y="-198.3" font-family="Helvetica,sans-Serif" font-size="11.00" fill="#000000">imo_user</text>
<polygon fill="none" stroke="#000000" points="209,-191.2 209,-213.2 284,-213.2 284,-191.2 209,-191.2"/>
<text text-anchor="start" x="212" y="-198.9" font-family="Helvetica,sans-Serif" font-size="11.00" fill="#000000">int[10]</text>
<polygon fill="none" stroke="#000000" points="10,-169.2 10,-191.2 209,-191.2 209,-169.2 10,-169.2"/>
<text text-anchor="start" x="30" y="-176.3" font-family="Helvetica,sans-Serif" font-size="11.00" fill="#000000">imo_code</text>
<polygon fill="none" stroke="#000000" points="209,-169.2 209,-191.2 284,-191.2 284,-169.2 209,-169.2"/>
<text text-anchor="start" x="212" y="-176.9" font-family="Helvetica,sans-Serif" font-size="11.00" fill="#000000">varchar[255]</text>
<polygon fill="none" stroke="#000000" points="10,-147.2 10,-169.2 209,-169.2 209,-147.2 10,-147.2"/>
<text text-anchor="start" x="30" y="-154.3" font-family="Helvetica,sans-Serif" font-size="11.00" fill="#000000">imo_codetext</text>
<polygon fill="none" stroke="#000000" points="209,-147.2 209,-169.2 284,-169.2 284,-147.2 209,-147.2"/>
<text text-anchor="start" x="212" y="-154.9" font-family="Helvetica,sans-Serif" font-size="11.00" fill="#000000">varchar[255]</text>
<polygon fill="none" stroke="#000000" points="10,-125.2 10,-147.2 209,-147.2 209,-125.2 10,-125.2"/>
<text text-anchor="start" x="30" y="-132.3" font-family="Helvetica,sans-Serif" font-size="11.00" fill="#000000">imo_codetype</text>
<polygon fill="none" stroke="#000000" points="209,-125.2 209,-147.2 284,-147.2 284,-125.2 209,-125.2"/>
<text text-anchor="start" x="212" y="-132.9" font-family="Helvetica,sans-Serif" font-size="11.00" fill="#000000">varchar[255]</text>
<polygon fill="none" stroke="#000000" points="10,-103.2 10,-125.2 209,-125.2 209,-103.2 10,-103.2"/>
<text text-anchor="start" x="30" y="-110.3" font-family="Helvetica,sans-Serif" font-size="11.00" fill="#000000">imo_vis_date_published</text>
<polygon fill="none" stroke="#000000" points="209,-103.2 209,-125.2 284,-125.2 284,-103.2 209,-103.2"/>
<text text-anchor="start" x="212" y="-110.9" font-family="Helvetica,sans-Serif" font-size="11.00" fill="#000000">date[10]</text>
<polygon fill="none" stroke="#000000" points="10,-81.2 10,-103.2 209,-103.2 209,-81.2 10,-81.2"/>
<text text-anchor="start" x="30" y="-88.3" font-family="Helvetica,sans-Serif" font-size="11.00" fill="#000000">imo_vis_date_presented</text>
<polygon fill="none" stroke="#000000" points="209,-81.2 209,-103.2 284,-103.2 284,-81.2 209,-81.2"/>
<text text-anchor="start" x="212" y="-88.9" font-family="Helvetica,sans-Serif" font-size="11.00" fill="#000000">date[10]</text>
<polygon fill="none" stroke="#000000" points="10,-59.2 10,-81.2 209,-81.2 209,-59.2 10,-59.2"/>
<text text-anchor="start" x="30" y="-66.3" font-family="Helvetica,sans-Serif" font-size="11.00" fill="#000000">imo_date_observation</text>
<polygon fill="none" stroke="#000000" points="209,-59.2 209,-81.2 284,-81.2 284,-59.2 209,-59.2"/>
<text text-anchor="start" x="211.9666" y="-66.9" font-family="Helvetica,sans-Serif" font-size="11.00" fill="#000000">timestamp[19]</text>
<polygon fill="#ffffff" stroke="transparent" points="10,-40.2 10,-59.2 114,-59.2 114,-40.2 10,-40.2"/>
<polygon fill="none" stroke="#000000" points="10,-40.2 10,-59.2 114,-59.2 114,-40.2 10,-40.2"/>
<text text-anchor="start" x="13" y="-46.3" font-family="Helvetica,sans-Serif" font-size="11.00" fill="#000000">&lt; 0</text>
<polygon fill="#ffffff" stroke="transparent" points="114,-40.2 114,-59.2 209,-59.2 209,-40.2 114,-40.2"/>
<polygon fill="none" stroke="#000000" points="114,-40.2 114,-59.2 209,-59.2 209,-40.2 114,-40.2"/>
<text text-anchor="start" x="199.8862" y="-46.3" font-family="Helvetica,sans-Serif" font-size="11.00" fill="#000000"> &#160;</text>
<polygon fill="#ffffff" stroke="transparent" points="209,-40.2 209,-59.2 284,-59.2 284,-40.2 209,-40.2"/>
<polygon fill="none" stroke="#000000" points="209,-40.2 209,-59.2 284,-59.2 284,-40.2 209,-40.2"/>
<text text-anchor="start" x="265.4053" y="-46.3" font-family="Helvetica,sans-Serif" font-size="11.00" fill="#000000">0 &gt;</text>
<polygon fill="none" stroke="#000000" stroke-width="2" points="9,-39.2 9,-347.2 285,-347.2 285,-39.2 9,-39.2"/>
</a>
</g>
</g>
</g>
</svg>
