<?xml version="1.0" encoding="UTF-8" standalone="no"?>
<!DOCTYPE svg PUBLIC "-//W3C//DTD SVG 1.1//EN"
 "http://www.w3.org/Graphics/SVG/1.1/DTD/svg11.dtd">
<!-- Generated by graphviz version 2.40.1 (20161225.0304)
 -->
<!-- Title: oneDegreeRelationshipsDiagram Pages: 1 -->
<svg width="585pt" height="715pt"
 viewBox="0.00 0.00 585.00 715.20" xmlns="http://www.w3.org/2000/svg" xmlns:xlink="http://www.w3.org/1999/xlink">
<g id="graph0" class="graph" transform="scale(1 1) rotate(0) translate(4 711.2)">
<title>oneDegreeRelationshipsDiagram</title>
<polygon fill="#ffffff" stroke="transparent" points="-4,4 -4,-711.2 581,-711.2 581,4 -4,4"/>
<text text-anchor="middle" x="72.4936" y="-7.3" font-family="Helvetica,sans-Serif" font-size="11.00" fill="#000000">Generated by SchemaSpy</text>
<!-- ar_session -->
<g id="node1" class="node">
<title>ar_session</title>
<g id="a_node1"><a xlink:href="../../tables/ar_session.html" xlink:title="ar_session" target="_top">
<polygon fill="#ffffff" stroke="transparent" points="373.5,-510.2 373.5,-703.2 511.5,-703.2 511.5,-510.2 373.5,-510.2"/>
<polygon fill="#f5f5f5" stroke="transparent" points="373.5,-679.7 373.5,-702.7 511.5,-702.7 511.5,-679.7 373.5,-679.7"/>
<polygon fill="none" stroke="#000000" points="373.5,-679.7 373.5,-702.7 511.5,-702.7 511.5,-679.7 373.5,-679.7"/>
<text text-anchor="start" x="378.5" y="-688.3" font-family="Helvetica,sans-Serif" font-weight="bold" font-size="11.00" fill="#000000">ar_session</text>
<text text-anchor="start" x="476.5437" y="-687.8" font-family="Helvetica,sans-Serif" font-size="11.00" fill="#000000">[table]</text>
<polygon fill="none" stroke="#000000" points="373.5,-657.7 373.5,-679.7 511.5,-679.7 511.5,-657.7 373.5,-657.7"/>
<image xlink:href="../../images/primaryKeys.png" width="11px" height="12px" preserveAspectRatio="xMinYMin meet" x="378.5" y="-674.7"/>
<text text-anchor="start" x="393.5" y="-664.8" font-family="Helvetica,sans-Serif" font-size="11.00" fill="#000000">session_id</text>
<polygon fill="none" stroke="#000000" points="373.5,-635.7 373.5,-657.7 511.5,-657.7 511.5,-635.7 373.5,-635.7"/>
<image xlink:href="../../images/foreignKeys.png" width="11px" height="12px" preserveAspectRatio="xMinYMin meet" x="378.5" y="-652.7"/>
<text text-anchor="start" x="393.5" y="-642.8" font-family="Helvetica,sans-Serif" font-size="11.00" fill="#000000">payer_id</text>
<polygon fill="#ffffff" stroke="transparent" points="373.5,-613.7 373.5,-635.7 511.5,-635.7 511.5,-613.7 373.5,-613.7"/>
<polygon fill="none" stroke="#000000" points="373.5,-613.7 373.5,-635.7 511.5,-635.7 511.5,-613.7 373.5,-613.7"/>
<text text-anchor="start" x="393.5" y="-620.8" font-family="Helvetica,sans-Serif" font-size="11.00" fill="#000000">user_id</text>
<polygon fill="#ffffff" stroke="transparent" points="373.5,-591.7 373.5,-613.7 511.5,-613.7 511.5,-591.7 373.5,-591.7"/>
<polygon fill="none" stroke="#000000" points="373.5,-591.7 373.5,-613.7 511.5,-613.7 511.5,-591.7 373.5,-591.7"/>
<text text-anchor="start" x="393.5" y="-598.8" font-family="Helvetica,sans-Serif" font-size="11.00" fill="#000000">closed</text>
<polygon fill="#ffffff" stroke="transparent" points="373.5,-569.7 373.5,-591.7 511.5,-591.7 511.5,-569.7 373.5,-569.7"/>
<polygon fill="none" stroke="#000000" points="373.5,-569.7 373.5,-591.7 511.5,-591.7 511.5,-569.7 373.5,-569.7"/>
<text text-anchor="start" x="393.5" y="-576.8" font-family="Helvetica,sans-Serif" font-size="11.00" fill="#000000">deposit_date</text>
<polygon fill="none" stroke="#000000" points="373.5,-547.7 373.5,-569.7 511.5,-569.7 511.5,-547.7 373.5,-547.7"/>
<image xlink:href="../../images/foreignKeys.png" width="11px" height="12px" preserveAspectRatio="xMinYMin meet" x="378.5" y="-564.7"/>
<text text-anchor="start" x="393.5" y="-554.8" font-family="Helvetica,sans-Serif" font-size="11.00" fill="#000000">patient_id</text>
<polygon fill="none" stroke="#000000" points="373.5,-528.7 373.5,-547.7 511.5,-547.7 511.5,-528.7 373.5,-528.7"/>
<text text-anchor="start" x="376.5" y="-534.8" font-family="Helvetica,sans-Serif" font-size="11.00" fill="#000000">...</text>
<polygon fill="#ffffff" stroke="transparent" points="373.5,-509.7 373.5,-528.7 436.5,-528.7 436.5,-509.7 373.5,-509.7"/>
<polygon fill="none" stroke="#000000" points="373.5,-509.7 373.5,-528.7 436.5,-528.7 436.5,-509.7 373.5,-509.7"/>
<text text-anchor="start" x="376.5" y="-515.8" font-family="Helvetica,sans-Serif" font-size="11.00" fill="#000000">&lt; 2</text>
<polygon fill="#ffffff" stroke="transparent" points="436.5,-509.7 436.5,-528.7 469.5,-528.7 469.5,-509.7 436.5,-509.7"/>
<polygon fill="none" stroke="#000000" points="436.5,-509.7 436.5,-528.7 469.5,-528.7 469.5,-509.7 436.5,-509.7"/>
<text text-anchor="start" x="460.3862" y="-515.8" font-family="Helvetica,sans-Serif" font-size="11.00" fill="#000000"> &#160;</text>
<polygon fill="#ffffff" stroke="transparent" points="469.5,-509.7 469.5,-528.7 511.5,-528.7 511.5,-509.7 469.5,-509.7"/>
<polygon fill="none" stroke="#000000" points="469.5,-509.7 469.5,-528.7 511.5,-528.7 511.5,-509.7 469.5,-509.7"/>
<text text-anchor="start" x="492.9053" y="-515.8" font-family="Helvetica,sans-Serif" font-size="11.00" fill="#000000">1 &gt;</text>
</a>
</g>
</g>
<!-- insurance_companies -->
<g id="node2" class="node">
<title>insurance_companies</title>
<g id="a_node2"><a xlink:href="../../tables/insurance_companies.html" xlink:title="insurance_companies" target="_top">
<polygon fill="#ffffff" stroke="transparent" points="8,-70.7 8,-402.7 267,-402.7 267,-70.7 8,-70.7"/>
<polygon fill="#f5f5f5" stroke="transparent" points="10.5,-377.7 10.5,-400.7 265.5,-400.7 265.5,-377.7 10.5,-377.7"/>
<polygon fill="none" stroke="#000000" points="10.5,-377.7 10.5,-400.7 265.5,-400.7 265.5,-377.7 10.5,-377.7"/>
<text text-anchor="start" x="15.5" y="-386.3" font-family="Helvetica,sans-Serif" font-weight="bold" font-size="11.00" fill="#000000">insurance_companies</text>
<text text-anchor="start" x="230.5437" y="-385.8" font-family="Helvetica,sans-Serif" font-size="11.00" fill="#000000">[table]</text>
<polygon fill="none" stroke="#000000" points="10.5,-355.7 10.5,-377.7 198.5,-377.7 198.5,-355.7 10.5,-355.7"/>
<image xlink:href="../../images/primaryKeys.png" width="11px" height="12px" preserveAspectRatio="xMinYMin meet" x="15.5" y="-372.7"/>
<text text-anchor="start" x="30.5" y="-362.8" font-family="Helvetica,sans-Serif" font-size="11.00" fill="#000000">id</text>
<polygon fill="none" stroke="#000000" points="198.5,-355.7 198.5,-377.7 265.5,-377.7 265.5,-355.7 198.5,-355.7"/>
<text text-anchor="start" x="201.5" y="-363.4" font-family="Helvetica,sans-Serif" font-size="11.00" fill="#000000">int[10]</text>
<polygon fill="#ffffff" stroke="transparent" points="10.5,-333.7 10.5,-355.7 198.5,-355.7 198.5,-333.7 10.5,-333.7"/>
<polygon fill="none" stroke="#000000" points="10.5,-333.7 10.5,-355.7 198.5,-355.7 198.5,-333.7 10.5,-333.7"/>
<text text-anchor="start" x="30.5" y="-340.8" font-family="Helvetica,sans-Serif" font-size="11.00" fill="#000000">uuid</text>
<polygon fill="none" stroke="#000000" points="198.5,-333.7 198.5,-355.7 265.5,-355.7 265.5,-333.7 198.5,-333.7"/>
<text text-anchor="start" x="201.5" y="-341.4" font-family="Helvetica,sans-Serif" font-size="11.00" fill="#000000">binary[16]</text>
<polygon fill="none" stroke="#000000" points="10.5,-311.7 10.5,-333.7 198.5,-333.7 198.5,-311.7 10.5,-311.7"/>
<text text-anchor="start" x="30.5" y="-318.8" font-family="Helvetica,sans-Serif" font-size="11.00" fill="#000000">name</text>
<polygon fill="none" stroke="#000000" points="198.5,-311.7 198.5,-333.7 265.5,-333.7 265.5,-311.7 198.5,-311.7"/>
<text text-anchor="start" x="201.4365" y="-319.4" font-family="Helvetica,sans-Serif" font-size="11.00" fill="#000000">varchar[255]</text>
<polygon fill="none" stroke="#000000" points="10.5,-289.7 10.5,-311.7 198.5,-311.7 198.5,-289.7 10.5,-289.7"/>
<text text-anchor="start" x="30.5" y="-296.8" font-family="Helvetica,sans-Serif" font-size="11.00" fill="#000000">attn</text>
<polygon fill="none" stroke="#000000" points="198.5,-289.7 198.5,-311.7 265.5,-311.7 265.5,-289.7 198.5,-289.7"/>
<text text-anchor="start" x="201.4365" y="-297.4" font-family="Helvetica,sans-Serif" font-size="11.00" fill="#000000">varchar[255]</text>
<polygon fill="none" stroke="#000000" points="10.5,-267.7 10.5,-289.7 198.5,-289.7 198.5,-267.7 10.5,-267.7"/>
<text text-anchor="start" x="30.5" y="-274.8" font-family="Helvetica,sans-Serif" font-size="11.00" fill="#000000">cms_id</text>
<polygon fill="none" stroke="#000000" points="198.5,-267.7 198.5,-289.7 265.5,-289.7 265.5,-267.7 198.5,-267.7"/>
<text text-anchor="start" x="201.5" y="-275.4" font-family="Helvetica,sans-Serif" font-size="11.00" fill="#000000">varchar[15]</text>
<polygon fill="none" stroke="#000000" points="10.5,-245.7 10.5,-267.7 198.5,-267.7 198.5,-245.7 10.5,-245.7"/>
<text text-anchor="start" x="30.5" y="-252.8" font-family="Helvetica,sans-Serif" font-size="11.00" fill="#000000">ins_type_code</text>
<polygon fill="none" stroke="#000000" points="198.5,-245.7 198.5,-267.7 265.5,-267.7 265.5,-245.7 198.5,-245.7"/>
<text text-anchor="start" x="201.5" y="-253.4" font-family="Helvetica,sans-Serif" font-size="11.00" fill="#000000">int[10]</text>
<polygon fill="none" stroke="#000000" points="10.5,-223.7 10.5,-245.7 198.5,-245.7 198.5,-223.7 10.5,-223.7"/>
<text text-anchor="start" x="30.5" y="-230.8" font-family="Helvetica,sans-Serif" font-size="11.00" fill="#000000">x12_receiver_id</text>
<polygon fill="none" stroke="#000000" points="198.5,-223.7 198.5,-245.7 265.5,-245.7 265.5,-223.7 198.5,-223.7"/>
<text text-anchor="start" x="201.5" y="-231.4" font-family="Helvetica,sans-Serif" font-size="11.00" fill="#000000">varchar[25]</text>
<polygon fill="none" stroke="#000000" points="10.5,-201.7 10.5,-223.7 198.5,-223.7 198.5,-201.7 10.5,-201.7"/>
<text text-anchor="start" x="30.5" y="-208.8" font-family="Helvetica,sans-Serif" font-size="11.00" fill="#000000">x12_default_partner_id</text>
<polygon fill="none" stroke="#000000" points="198.5,-201.7 198.5,-223.7 265.5,-223.7 265.5,-201.7 198.5,-201.7"/>
<text text-anchor="start" x="201.5" y="-209.4" font-family="Helvetica,sans-Serif" font-size="11.00" fill="#000000">int[10]</text>
<polygon fill="none" stroke="#000000" points="10.5,-179.7 10.5,-201.7 198.5,-201.7 198.5,-179.7 10.5,-179.7"/>
<text text-anchor="start" x="30.5" y="-186.8" font-family="Helvetica,sans-Serif" font-size="11.00" fill="#000000">alt_cms_id</text>
<polygon fill="none" stroke="#000000" points="198.5,-179.7 198.5,-201.7 265.5,-201.7 265.5,-179.7 198.5,-179.7"/>
<text text-anchor="start" x="201.5" y="-187.4" font-family="Helvetica,sans-Serif" font-size="11.00" fill="#000000">varchar[15]</text>
<polygon fill="none" stroke="#000000" points="10.5,-157.7 10.5,-179.7 198.5,-179.7 198.5,-157.7 10.5,-157.7"/>
<text text-anchor="start" x="30.5" y="-164.8" font-family="Helvetica,sans-Serif" font-size="11.00" fill="#000000">inactive</text>
<polygon fill="none" stroke="#000000" points="198.5,-157.7 198.5,-179.7 265.5,-179.7 265.5,-157.7 198.5,-157.7"/>
<text text-anchor="start" x="201.5" y="-165.4" font-family="Helvetica,sans-Serif" font-size="11.00" fill="#000000">bit[1]</text>
<polygon fill="none" stroke="#000000" points="10.5,-135.7 10.5,-157.7 198.5,-157.7 198.5,-135.7 10.5,-135.7"/>
<text text-anchor="start" x="30.5" y="-142.8" font-family="Helvetica,sans-Serif" font-size="11.00" fill="#000000">eligibility_id</text>
<polygon fill="none" stroke="#000000" points="198.5,-135.7 198.5,-157.7 265.5,-157.7 265.5,-135.7 198.5,-135.7"/>
<text text-anchor="start" x="201.5" y="-143.4" font-family="Helvetica,sans-Serif" font-size="11.00" fill="#000000">varchar[32]</text>
<polygon fill="none" stroke="#000000" points="10.5,-113.7 10.5,-135.7 198.5,-135.7 198.5,-113.7 10.5,-113.7"/>
<text text-anchor="start" x="30.5" y="-120.8" font-family="Helvetica,sans-Serif" font-size="11.00" fill="#000000">x12_default_eligibility_id</text>
<polygon fill="none" stroke="#000000" points="198.5,-113.7 198.5,-135.7 265.5,-135.7 265.5,-113.7 198.5,-113.7"/>
<text text-anchor="start" x="201.5" y="-121.4" font-family="Helvetica,sans-Serif" font-size="11.00" fill="#000000">int[10]</text>
<polygon fill="none" stroke="#000000" points="10.5,-91.7 10.5,-113.7 198.5,-113.7 198.5,-91.7 10.5,-91.7"/>
<text text-anchor="start" x="30.5" y="-98.8" font-family="Helvetica,sans-Serif" font-size="11.00" fill="#000000">cqm_sop</text>
<polygon fill="none" stroke="#000000" points="198.5,-91.7 198.5,-113.7 265.5,-113.7 265.5,-91.7 198.5,-91.7"/>
<text text-anchor="start" x="201.5" y="-99.4" font-family="Helvetica,sans-Serif" font-size="11.00" fill="#000000">int[10]</text>
<polygon fill="#ffffff" stroke="transparent" points="10.5,-72.7 10.5,-91.7 108.5,-91.7 108.5,-72.7 10.5,-72.7"/>
<polygon fill="none" stroke="#000000" points="10.5,-72.7 10.5,-91.7 108.5,-91.7 108.5,-72.7 10.5,-72.7"/>
<text text-anchor="start" x="13.5" y="-78.8" font-family="Helvetica,sans-Serif" font-size="11.00" fill="#000000">&lt; 0</text>
<polygon fill="#ffffff" stroke="transparent" points="108.5,-72.7 108.5,-91.7 198.5,-91.7 198.5,-72.7 108.5,-72.7"/>
<polygon fill="none" stroke="#000000" points="108.5,-72.7 108.5,-91.7 198.5,-91.7 198.5,-72.7 108.5,-72.7"/>
<text text-anchor="start" x="189.3862" y="-78.8" font-family="Helvetica,sans-Serif" font-size="11.00" fill="#000000"> &#160;</text>
<polygon fill="#ffffff" stroke="transparent" points="198.5,-72.7 198.5,-91.7 265.5,-91.7 265.5,-72.7 198.5,-72.7"/>
<polygon fill="none" stroke="#000000" points="198.5,-72.7 198.5,-91.7 265.5,-91.7 265.5,-72.7 198.5,-72.7"/>
<text text-anchor="start" x="246.9053" y="-78.8" font-family="Helvetica,sans-Serif" font-size="11.00" fill="#000000">4 &gt;</text>
<polygon fill="none" stroke="#000000" stroke-width="2" points="9,-71.7 9,-401.7 266,-401.7 266,-71.7 9,-71.7"/>
</a>
</g>
</g>
<!-- ar_session&#45;&gt;insurance_companies -->
<g id="edge1" class="edge">
<title>ar_session:w&#45;&gt;insurance_companies:e</title>
<path fill="none" stroke="#000000" d="M358.878,-645.3459C306.4435,-634.5645 331.5388,-561.4425 308,-499.7 285.8938,-441.7153 327.5557,-366.7 265.5,-366.7"/>
<polygon fill="#000000" stroke="#000000" points="365.5341,-645.9623 373.168,-650.2847 369.517,-646.3311 373.5,-646.7 373.5,-646.7 373.5,-646.7 369.517,-646.3311 373.832,-643.1153 365.5341,-645.9623 365.5341,-645.9623"/>
<ellipse fill="none" stroke="#000000" cx="362.3477" cy="-645.6672" rx="3.2" ry="3.2"/>
</g>
<!-- billing -->
<g id="node3" class="node">
<title>billing</title>
<g id="a_node3"><a xlink:href="../../tables/billing.html" xlink:title="billing" target="_top">
<polygon fill="#ffffff" stroke="transparent" points="382,-252.2 382,-489.2 503,-489.2 503,-252.2 382,-252.2"/>
<polygon fill="#f5f5f5" stroke="transparent" points="382.5,-465.7 382.5,-488.7 503.5,-488.7 503.5,-465.7 382.5,-465.7"/>
<polygon fill="none" stroke="#000000" points="382.5,-465.7 382.5,-488.7 503.5,-488.7 503.5,-465.7 382.5,-465.7"/>
<text text-anchor="start" x="387.5" y="-474.3" font-family="Helvetica,sans-Serif" font-weight="bold" font-size="11.00" fill="#000000">billing</text>
<text text-anchor="start" x="468.5437" y="-473.8" font-family="Helvetica,sans-Serif" font-size="11.00" fill="#000000">[table]</text>
<polygon fill="none" stroke="#000000" points="382.5,-443.7 382.5,-465.7 503.5,-465.7 503.5,-443.7 382.5,-443.7"/>
<image xlink:href="../../images/primaryKeys.png" width="11px" height="12px" preserveAspectRatio="xMinYMin meet" x="387.5" y="-460.7"/>
<text text-anchor="start" x="402.5" y="-450.8" font-family="Helvetica,sans-Serif" font-size="11.00" fill="#000000">id</text>
<polygon fill="#ffffff" stroke="transparent" points="382.5,-421.7 382.5,-443.7 503.5,-443.7 503.5,-421.7 382.5,-421.7"/>
<polygon fill="none" stroke="#000000" points="382.5,-421.7 382.5,-443.7 503.5,-443.7 503.5,-421.7 382.5,-421.7"/>
<image xlink:href="../../images/foreignKeys.png" width="11px" height="12px" preserveAspectRatio="xMinYMin meet" x="387.5" y="-438.7"/>
<text text-anchor="start" x="402.5" y="-428.8" font-family="Helvetica,sans-Serif" font-size="11.00" fill="#000000">pid</text>
<polygon fill="none" stroke="#000000" points="382.5,-399.7 382.5,-421.7 503.5,-421.7 503.5,-399.7 382.5,-399.7"/>
<image xlink:href="../../images/foreignKeys.png" width="11px" height="12px" preserveAspectRatio="xMinYMin meet" x="387.5" y="-416.7"/>
<text text-anchor="start" x="402.5" y="-406.8" font-family="Helvetica,sans-Serif" font-size="11.00" fill="#000000">provider_id</text>
<polygon fill="none" stroke="#000000" points="382.5,-377.7 382.5,-399.7 503.5,-399.7 503.5,-377.7 382.5,-377.7"/>
<image xlink:href="../../images/foreignKeys.png" width="11px" height="12px" preserveAspectRatio="xMinYMin meet" x="387.5" y="-394.7"/>
<text text-anchor="start" x="402.5" y="-384.8" font-family="Helvetica,sans-Serif" font-size="11.00" fill="#000000">user</text>
<polygon fill="none" stroke="#000000" points="382.5,-355.7 382.5,-377.7 503.5,-377.7 503.5,-355.7 382.5,-355.7"/>
<image xlink:href="../../images/foreignKeys.png" width="11px" height="12px" preserveAspectRatio="xMinYMin meet" x="387.5" y="-372.7"/>
<text text-anchor="start" x="402.5" y="-362.8" font-family="Helvetica,sans-Serif" font-size="11.00" fill="#000000">groupname</text>
<polygon fill="none" stroke="#000000" points="382.5,-333.7 382.5,-355.7 503.5,-355.7 503.5,-333.7 382.5,-333.7"/>
<image xlink:href="../../images/foreignKeys.png" width="11px" height="12px" preserveAspectRatio="xMinYMin meet" x="387.5" y="-350.7"/>
<text text-anchor="start" x="402.5" y="-340.8" font-family="Helvetica,sans-Serif" font-size="11.00" fill="#000000">encounter</text>
<polygon fill="none" stroke="#000000" points="382.5,-311.7 382.5,-333.7 503.5,-333.7 503.5,-311.7 382.5,-311.7"/>
<image xlink:href="../../images/foreignKeys.png" width="11px" height="12px" preserveAspectRatio="xMinYMin meet" x="387.5" y="-328.7"/>
<text text-anchor="start" x="402.5" y="-318.8" font-family="Helvetica,sans-Serif" font-size="11.00" fill="#000000">payer_id</text>
<polygon fill="none" stroke="#000000" points="382.5,-289.7 382.5,-311.7 503.5,-311.7 503.5,-289.7 382.5,-289.7"/>
<image xlink:href="../../images/foreignKeys.png" width="11px" height="12px" preserveAspectRatio="xMinYMin meet" x="387.5" y="-306.7"/>
<text text-anchor="start" x="402.5" y="-296.8" font-family="Helvetica,sans-Serif" font-size="11.00" fill="#000000">x12_partner_id</text>
<polygon fill="none" stroke="#000000" points="382.5,-270.7 382.5,-289.7 503.5,-289.7 503.5,-270.7 382.5,-270.7"/>
<text text-anchor="start" x="385.5" y="-276.8" font-family="Helvetica,sans-Serif" font-size="11.00" fill="#000000">...</text>
<polygon fill="#ffffff" stroke="transparent" points="382.5,-251.7 382.5,-270.7 441.5,-270.7 441.5,-251.7 382.5,-251.7"/>
<polygon fill="none" stroke="#000000" points="382.5,-251.7 382.5,-270.7 441.5,-270.7 441.5,-251.7 382.5,-251.7"/>
<text text-anchor="start" x="385.5" y="-257.8" font-family="Helvetica,sans-Serif" font-size="11.00" fill="#000000">&lt; 7</text>
<polygon fill="#ffffff" stroke="transparent" points="441.5,-251.7 441.5,-270.7 472.5,-270.7 472.5,-251.7 441.5,-251.7"/>
<polygon fill="none" stroke="#000000" points="441.5,-251.7 441.5,-270.7 472.5,-270.7 472.5,-251.7 441.5,-251.7"/>
<text text-anchor="start" x="463.3862" y="-257.8" font-family="Helvetica,sans-Serif" font-size="11.00" fill="#000000"> &#160;</text>
<polygon fill="#ffffff" stroke="transparent" points="472.5,-251.7 472.5,-270.7 503.5,-270.7 503.5,-251.7 472.5,-251.7"/>
<polygon fill="none" stroke="#000000" points="472.5,-251.7 472.5,-270.7 503.5,-270.7 503.5,-251.7 472.5,-251.7"/>
<text text-anchor="start" x="494.3862" y="-257.8" font-family="Helvetica,sans-Serif" font-size="11.00" fill="#000000"> &#160;</text>
</a>
</g>
</g>
<!-- billing&#45;&gt;insurance_companies -->
<g id="edge2" class="edge">
<title>billing:w&#45;&gt;insurance_companies:e</title>
<path fill="none" stroke="#000000" d="M368.1027,-323.7876C325.4038,-330.5633 315.8472,-366.7 265.5,-366.7"/>
<polygon fill="#000000" stroke="#000000" points="374.5227,-323.3027 382.7712,-326.2898 378.5114,-323.0013 382.5,-322.7 382.5,-322.7 382.5,-322.7 378.5114,-323.0013 382.2288,-319.1102 374.5227,-323.3027 374.5227,-323.3027"/>
<ellipse fill="none" stroke="#000000" cx="371.3318" cy="-323.5438" rx="3.2" ry="3.2"/>
</g>
<!-- billing&#45;&gt;insurance_companies -->
<g id="edge3" class="edge">
<title>billing:w&#45;&gt;insurance_companies:e</title>
<path fill="none" stroke="#000000" d="M368.1027,-409.6124C325.4038,-402.8367 315.8472,-366.7 265.5,-366.7"/>
<polygon fill="#000000" stroke="#000000" points="374.5227,-410.0973 382.2288,-414.2898 378.5114,-410.3987 382.5,-410.7 382.5,-410.7 382.5,-410.7 378.5114,-410.3987 382.7712,-407.1102 374.5227,-410.0973 374.5227,-410.0973"/>
<ellipse fill="none" stroke="#000000" cx="371.3318" cy="-409.8562" rx="3.2" ry="3.2"/>
</g>
<!-- insurance_data -->
<g id="node4" class="node">
<title>insurance_data</title>
<g id="a_node4"><a xlink:href="../../tables/insurance_data.html" xlink:title="insurance_data" target="_top">
<polygon fill="#ffffff" stroke="transparent" points="316,-38.2 316,-231.2 569,-231.2 569,-38.2 316,-38.2"/>
<polygon fill="#f5f5f5" stroke="transparent" points="316.5,-207.7 316.5,-230.7 569.5,-230.7 569.5,-207.7 316.5,-207.7"/>
<polygon fill="none" stroke="#000000" points="316.5,-207.7 316.5,-230.7 569.5,-230.7 569.5,-207.7 316.5,-207.7"/>
<text text-anchor="start" x="321.5" y="-216.3" font-family="Helvetica,sans-Serif" font-weight="bold" font-size="11.00" fill="#000000">insurance_data</text>
<text text-anchor="start" x="534.5437" y="-215.8" font-family="Helvetica,sans-Serif" font-size="11.00" fill="#000000">[table]</text>
<polygon fill="none" stroke="#000000" points="316.5,-185.7 316.5,-207.7 569.5,-207.7 569.5,-185.7 316.5,-185.7"/>
<image xlink:href="../../images/primaryKeys.png" width="11px" height="12px" preserveAspectRatio="xMinYMin meet" x="321.5" y="-202.7"/>
<text text-anchor="start" x="336.5" y="-192.8" font-family="Helvetica,sans-Serif" font-size="11.00" fill="#000000">id</text>
<polygon fill="#ffffff" stroke="transparent" points="316.5,-163.7 316.5,-185.7 569.5,-185.7 569.5,-163.7 316.5,-163.7"/>
<polygon fill="none" stroke="#000000" points="316.5,-163.7 316.5,-185.7 569.5,-185.7 569.5,-163.7 316.5,-163.7"/>
<text text-anchor="start" x="336.5" y="-170.8" font-family="Helvetica,sans-Serif" font-size="11.00" fill="#000000">uuid</text>
<polygon fill="#ffffff" stroke="transparent" points="316.5,-141.7 316.5,-163.7 569.5,-163.7 569.5,-141.7 316.5,-141.7"/>
<polygon fill="none" stroke="#000000" points="316.5,-141.7 316.5,-163.7 569.5,-163.7 569.5,-141.7 316.5,-141.7"/>
<text text-anchor="start" x="336.5" y="-148.8" font-family="Helvetica,sans-Serif" font-size="11.00" fill="#000000">type</text>
<polygon fill="none" stroke="#000000" points="316.5,-119.7 316.5,-141.7 569.5,-141.7 569.5,-119.7 316.5,-119.7"/>
<image xlink:href="../../images/foreignKeys.png" width="11px" height="12px" preserveAspectRatio="xMinYMin meet" x="321.5" y="-136.7"/>
<text text-anchor="start" x="336.5" y="-126.8" font-family="Helvetica,sans-Serif" font-size="11.00" fill="#000000">provider</text>
<polygon fill="#ffffff" stroke="transparent" points="316.5,-97.7 316.5,-119.7 569.5,-119.7 569.5,-97.7 316.5,-97.7"/>
<polygon fill="none" stroke="#000000" points="316.5,-97.7 316.5,-119.7 569.5,-119.7 569.5,-97.7 316.5,-97.7"/>
<text text-anchor="start" x="336.5" y="-104.8" font-family="Helvetica,sans-Serif" font-size="11.00" fill="#000000">date</text>
<polygon fill="#ffffff" stroke="transparent" points="316.5,-75.7 316.5,-97.7 569.5,-97.7 569.5,-75.7 316.5,-75.7"/>
<polygon fill="none" stroke="#000000" points="316.5,-75.7 316.5,-97.7 569.5,-97.7 569.5,-75.7 316.5,-75.7"/>
<image xlink:href="../../images/foreignKeys.png" width="11px" height="12px" preserveAspectRatio="xMinYMin meet" x="321.5" y="-92.7"/>
<text text-anchor="start" x="336.5" y="-82.8" font-family="Helvetica,sans-Serif" font-size="11.00" fill="#000000">pid</text>
<polygon fill="none" stroke="#000000" points="316.5,-56.7 316.5,-75.7 569.5,-75.7 569.5,-56.7 316.5,-56.7"/>
<text text-anchor="start" x="319.5" y="-62.8" font-family="Helvetica,sans-Serif" font-size="11.00" fill="#000000">...</text>
<polygon fill="#ffffff" stroke="transparent" points="316.5,-37.7 316.5,-56.7 436.5,-56.7 436.5,-37.7 316.5,-37.7"/>
<polygon fill="none" stroke="#000000" points="316.5,-37.7 316.5,-56.7 436.5,-56.7 436.5,-37.7 316.5,-37.7"/>
<text text-anchor="start" x="319.5" y="-43.8" font-family="Helvetica,sans-Serif" font-size="11.00" fill="#000000">&lt; 2</text>
<polygon fill="#ffffff" stroke="transparent" points="436.5,-37.7 436.5,-56.7 498.5,-56.7 498.5,-37.7 436.5,-37.7"/>
<polygon fill="none" stroke="#000000" points="436.5,-37.7 436.5,-56.7 498.5,-56.7 498.5,-37.7 436.5,-37.7"/>
<text text-anchor="start" x="489.3862" y="-43.8" font-family="Helvetica,sans-Serif" font-size="11.00" fill="#000000"> &#160;</text>
<polygon fill="#ffffff" stroke="transparent" points="498.5,-37.7 498.5,-56.7 569.5,-56.7 569.5,-37.7 498.5,-37.7"/>
<polygon fill="none" stroke="#000000" points="498.5,-37.7 498.5,-56.7 569.5,-56.7 569.5,-37.7 498.5,-37.7"/>
<text text-anchor="start" x="550.9053" y="-43.8" font-family="Helvetica,sans-Serif" font-size="11.00" fill="#000000">1 &gt;</text>
</a>
</g>
</g>
<!-- insurance_data&#45;&gt;insurance_companies -->
<g id="edge4" class="edge">
<title>insurance_data:w&#45;&gt;insurance_companies:e</title>
<path fill="none" stroke="#000000" d="M302.177,-132.4639C225.1089,-154.0602 367.3608,-366.7 265.5,-366.7"/>
<polygon fill="#000000" stroke="#000000" points="308.56,-131.6779 316.9401,-134.273 312.53,-131.1889 316.5,-130.7 316.5,-130.7 316.5,-130.7 312.53,-131.1889 316.0599,-127.127 308.56,-131.6779 308.56,-131.6779"/>
<ellipse fill="none" stroke="#000000" cx="305.384" cy="-132.0691" rx="3.2" ry="3.2"/>
</g>
</g>
</svg>
