<?xml version="1.0" encoding="UTF-8" standalone="no"?>
<!DOCTYPE svg PUBLIC "-//W3C//DTD SVG 1.1//EN"
 "http://www.w3.org/Graphics/SVG/1.1/DTD/svg11.dtd">
<!-- Generated by graphviz version 2.40.1 (20161225.0304)
 -->
<!-- Title: oneDegreeRelationshipsDiagram Pages: 1 -->
<svg width="334pt" height="272pt"
 viewBox="0.00 0.00 334.00 272.20" xmlns="http://www.w3.org/2000/svg" xmlns:xlink="http://www.w3.org/1999/xlink">
<g id="graph0" class="graph" transform="scale(1 1) rotate(0) translate(4 268.2)">
<title>oneDegreeRelationshipsDiagram</title>
<polygon fill="#ffffff" stroke="transparent" points="-4,4 -4,-268.2 330,-268.2 330,4 -4,4"/>
<text text-anchor="middle" x="72.4936" y="-7.3" font-family="Helvetica,sans-Serif" font-size="11.00" fill="#000000">Generated by SchemaSpy</text>
<!-- insurance_numbers -->
<g id="node1" class="node">
<title>insurance_numbers</title>
<g id="a_node1"><a xlink:href="../../tables/insurance_numbers.html" xlink:title="insurance_numbers" target="_top">
<polygon fill="#ffffff" stroke="transparent" points="8,-38.2 8,-260.2 318,-260.2 318,-38.2 8,-38.2"/>
<polygon fill="#f5f5f5" stroke="transparent" points="10,-235.2 10,-258.2 316,-258.2 316,-235.2 10,-235.2"/>
<polygon fill="none" stroke="#000000" points="10,-235.2 10,-258.2 316,-258.2 316,-235.2 10,-235.2"/>
<text text-anchor="start" x="15" y="-243.8" font-family="Helvetica,sans-Serif" font-weight="bold" font-size="11.00" fill="#000000">insurance_numbers</text>
<text text-anchor="start" x="281.0437" y="-243.3" font-family="Helvetica,sans-Serif" font-size="11.00" fill="#000000">[table]</text>
<polygon fill="none" stroke="#000000" points="10,-213.2 10,-235.2 255,-235.2 255,-213.2 10,-213.2"/>
<image xlink:href="../../images/primaryKeys.png" width="11px" height="12px" preserveAspectRatio="xMinYMin meet" x="15" y="-230.2"/>
<text text-anchor="start" x="30" y="-220.3" font-family="Helvetica,sans-Serif" font-size="11.00" fill="#000000">id</text>
<polygon fill="none" stroke="#000000" points="255,-213.2 255,-235.2 316,-235.2 316,-213.2 255,-213.2"/>
<text text-anchor="start" x="258" y="-220.9" font-family="Helvetica,sans-Serif" font-size="11.00" fill="#000000">int[10]</text>
<polygon fill="none" stroke="#000000" points="10,-191.2 10,-213.2 255,-213.2 255,-191.2 10,-191.2"/>
<text text-anchor="start" x="30" y="-198.3" font-family="Helvetica,sans-Serif" font-size="11.00" fill="#000000">provider_id</text>
<polygon fill="none" stroke="#000000" points="255,-191.2 255,-213.2 316,-213.2 316,-191.2 255,-191.2"/>
<text text-anchor="start" x="258" y="-198.9" font-family="Helvetica,sans-Serif" font-size="11.00" fill="#000000">int[10]</text>
<polygon fill="none" stroke="#000000" points="10,-169.2 10,-191.2 255,-191.2 255,-169.2 10,-169.2"/>
<text text-anchor="start" x="30" y="-176.3" font-family="Helvetica,sans-Serif" font-size="11.00" fill="#000000">insurance_company_id</text>
<polygon fill="none" stroke="#000000" points="255,-169.2 255,-191.2 316,-191.2 316,-169.2 255,-169.2"/>
<text text-anchor="start" x="258" y="-176.9" font-family="Helvetica,sans-Serif" font-size="11.00" fill="#000000">int[10]</text>
<polygon fill="none" stroke="#000000" points="10,-147.2 10,-169.2 255,-169.2 255,-147.2 10,-147.2"/>
<text text-anchor="start" x="30" y="-154.3" font-family="Helvetica,sans-Serif" font-size="11.00" fill="#000000">provider_number</text>
<polygon fill="none" stroke="#000000" points="255,-147.2 255,-169.2 316,-169.2 316,-147.2 255,-147.2"/>
<text text-anchor="start" x="257.994" y="-154.9" font-family="Helvetica,sans-Serif" font-size="11.00" fill="#000000">varchar[20]</text>
<polygon fill="none" stroke="#000000" points="10,-125.2 10,-147.2 255,-147.2 255,-125.2 10,-125.2"/>
<text text-anchor="start" x="30" y="-132.3" font-family="Helvetica,sans-Serif" font-size="11.00" fill="#000000">rendering_provider_number</text>
<polygon fill="none" stroke="#000000" points="255,-125.2 255,-147.2 316,-147.2 316,-125.2 255,-125.2"/>
<text text-anchor="start" x="257.994" y="-132.9" font-family="Helvetica,sans-Serif" font-size="11.00" fill="#000000">varchar[20]</text>
<polygon fill="none" stroke="#000000" points="10,-103.2 10,-125.2 255,-125.2 255,-103.2 10,-103.2"/>
<text text-anchor="start" x="30" y="-110.3" font-family="Helvetica,sans-Serif" font-size="11.00" fill="#000000">group_number</text>
<polygon fill="none" stroke="#000000" points="255,-103.2 255,-125.2 316,-125.2 316,-103.2 255,-103.2"/>
<text text-anchor="start" x="257.994" y="-110.9" font-family="Helvetica,sans-Serif" font-size="11.00" fill="#000000">varchar[20]</text>
<polygon fill="none" stroke="#000000" points="10,-81.2 10,-103.2 255,-103.2 255,-81.2 10,-81.2"/>
<text text-anchor="start" x="30" y="-88.3" font-family="Helvetica,sans-Serif" font-size="11.00" fill="#000000">provider_number_type</text>
<polygon fill="none" stroke="#000000" points="255,-81.2 255,-103.2 316,-103.2 316,-81.2 255,-81.2"/>
<text text-anchor="start" x="258" y="-88.9" font-family="Helvetica,sans-Serif" font-size="11.00" fill="#000000">varchar[4]</text>
<polygon fill="none" stroke="#000000" points="10,-59.2 10,-81.2 255,-81.2 255,-59.2 10,-59.2"/>
<text text-anchor="start" x="30" y="-66.3" font-family="Helvetica,sans-Serif" font-size="11.00" fill="#000000">rendering_provider_number_type</text>
<polygon fill="none" stroke="#000000" points="255,-59.2 255,-81.2 316,-81.2 316,-59.2 255,-59.2"/>
<text text-anchor="start" x="258" y="-66.9" font-family="Helvetica,sans-Serif" font-size="11.00" fill="#000000">varchar[4]</text>
<polygon fill="#ffffff" stroke="transparent" points="10,-40.2 10,-59.2 137,-59.2 137,-40.2 10,-40.2"/>
<polygon fill="none" stroke="#000000" points="10,-40.2 10,-59.2 137,-59.2 137,-40.2 10,-40.2"/>
<text text-anchor="start" x="13" y="-46.3" font-family="Helvetica,sans-Serif" font-size="11.00" fill="#000000">&lt; 0</text>
<polygon fill="#ffffff" stroke="transparent" points="137,-40.2 137,-59.2 255,-59.2 255,-40.2 137,-40.2"/>
<polygon fill="none" stroke="#000000" points="137,-40.2 137,-59.2 255,-59.2 255,-40.2 137,-40.2"/>
<text text-anchor="start" x="245.8862" y="-46.3" font-family="Helvetica,sans-Serif" font-size="11.00" fill="#000000"> &#160;</text>
<polygon fill="#ffffff" stroke="transparent" points="255,-40.2 255,-59.2 316,-59.2 316,-40.2 255,-40.2"/>
<polygon fill="none" stroke="#000000" points="255,-40.2 255,-59.2 316,-59.2 316,-40.2 255,-40.2"/>
<text text-anchor="start" x="297.4053" y="-46.3" font-family="Helvetica,sans-Serif" font-size="11.00" fill="#000000">0 &gt;</text>
<polygon fill="none" stroke="#000000" stroke-width="2" points="9,-39.2 9,-259.2 317,-259.2 317,-39.2 9,-39.2"/>
</a>
</g>
</g>
</g>
</svg>
