<?xml version="1.0" encoding="UTF-8" standalone="no"?>
<!DOCTYPE svg PUBLIC "-//W3C//DTD SVG 1.1//EN"
 "http://www.w3.org/Graphics/SVG/1.1/DTD/svg11.dtd">
<!-- Generated by graphviz version 2.40.1 (20161225.0304)
 -->
<!-- Title: oneDegreeRelationshipsDiagram Pages: 1 -->
<svg width="308pt" height="272pt"
 viewBox="0.00 0.00 308.00 272.20" xmlns="http://www.w3.org/2000/svg" xmlns:xlink="http://www.w3.org/1999/xlink">
<g id="graph0" class="graph" transform="scale(1 1) rotate(0) translate(4 268.2)">
<title>oneDegreeRelationshipsDiagram</title>
<polygon fill="#ffffff" stroke="transparent" points="-4,4 -4,-268.2 304,-268.2 304,4 -4,4"/>
<text text-anchor="middle" x="72.4936" y="-7.3" font-family="Helvetica,sans-Serif" font-size="11.00" fill="#000000">Generated by SchemaSpy</text>
<!-- ip_tracking -->
<g id="node1" class="node">
<title>ip_tracking</title>
<g id="a_node1"><a xlink:href="../../tables/ip_tracking.html" xlink:title="ip_tracking" target="_top">
<polygon fill="#ffffff" stroke="transparent" points="8,-38.2 8,-260.2 292,-260.2 292,-38.2 8,-38.2"/>
<polygon fill="#f5f5f5" stroke="transparent" points="10,-235.2 10,-258.2 290,-258.2 290,-235.2 10,-235.2"/>
<polygon fill="none" stroke="#000000" points="10,-235.2 10,-258.2 290,-258.2 290,-235.2 10,-235.2"/>
<text text-anchor="start" x="15" y="-243.8" font-family="Helvetica,sans-Serif" font-weight="bold" font-size="11.00" fill="#000000">ip_tracking</text>
<text text-anchor="start" x="255.0437" y="-243.3" font-family="Helvetica,sans-Serif" font-size="11.00" fill="#000000">[table]</text>
<polygon fill="none" stroke="#000000" points="10,-213.2 10,-235.2 223,-235.2 223,-213.2 10,-213.2"/>
<image xlink:href="../../images/primaryKeys.png" width="11px" height="12px" preserveAspectRatio="xMinYMin meet" x="15" y="-230.2"/>
<text text-anchor="start" x="30" y="-220.3" font-family="Helvetica,sans-Serif" font-size="11.00" fill="#000000">id</text>
<polygon fill="none" stroke="#000000" points="223,-213.2 223,-235.2 290,-235.2 290,-213.2 223,-213.2"/>
<text text-anchor="start" x="226" y="-220.9" font-family="Helvetica,sans-Serif" font-size="11.00" fill="#000000">bigint[19]</text>
<polygon fill="#ffffff" stroke="transparent" points="10,-191.2 10,-213.2 223,-213.2 223,-191.2 10,-191.2"/>
<polygon fill="none" stroke="#000000" points="10,-191.2 10,-213.2 223,-213.2 223,-191.2 10,-191.2"/>
<text text-anchor="start" x="30" y="-198.3" font-family="Helvetica,sans-Serif" font-size="11.00" fill="#000000">ip_string</text>
<polygon fill="none" stroke="#000000" points="223,-191.2 223,-213.2 290,-213.2 290,-191.2 223,-191.2"/>
<text text-anchor="start" x="225.9365" y="-198.9" font-family="Helvetica,sans-Serif" font-size="11.00" fill="#000000">varchar[255]</text>
<polygon fill="none" stroke="#000000" points="10,-169.2 10,-191.2 223,-191.2 223,-169.2 10,-169.2"/>
<text text-anchor="start" x="30" y="-176.3" font-family="Helvetica,sans-Serif" font-size="11.00" fill="#000000">total_ip_login_fail_counter</text>
<polygon fill="none" stroke="#000000" points="223,-169.2 223,-191.2 290,-191.2 290,-169.2 223,-169.2"/>
<text text-anchor="start" x="226" y="-176.9" font-family="Helvetica,sans-Serif" font-size="11.00" fill="#000000">bigint[19]</text>
<polygon fill="none" stroke="#000000" points="10,-147.2 10,-169.2 223,-169.2 223,-147.2 10,-147.2"/>
<text text-anchor="start" x="30" y="-154.3" font-family="Helvetica,sans-Serif" font-size="11.00" fill="#000000">ip_login_fail_counter</text>
<polygon fill="none" stroke="#000000" points="223,-147.2 223,-169.2 290,-169.2 290,-147.2 223,-147.2"/>
<text text-anchor="start" x="226" y="-154.9" font-family="Helvetica,sans-Serif" font-size="11.00" fill="#000000">bigint[19]</text>
<polygon fill="none" stroke="#000000" points="10,-125.2 10,-147.2 223,-147.2 223,-125.2 10,-125.2"/>
<text text-anchor="start" x="30" y="-132.3" font-family="Helvetica,sans-Serif" font-size="11.00" fill="#000000">ip_last_login_fail</text>
<polygon fill="none" stroke="#000000" points="223,-125.2 223,-147.2 290,-147.2 290,-125.2 223,-125.2"/>
<text text-anchor="start" x="226" y="-132.9" font-family="Helvetica,sans-Serif" font-size="11.00" fill="#000000">datetime[19]</text>
<polygon fill="none" stroke="#000000" points="10,-103.2 10,-125.2 223,-125.2 223,-103.2 10,-103.2"/>
<text text-anchor="start" x="30" y="-110.3" font-family="Helvetica,sans-Serif" font-size="11.00" fill="#000000">ip_auto_block_emailed</text>
<polygon fill="none" stroke="#000000" points="223,-103.2 223,-125.2 290,-125.2 290,-103.2 223,-103.2"/>
<text text-anchor="start" x="226" y="-110.9" font-family="Helvetica,sans-Serif" font-size="11.00" fill="#000000">tinyint[3]</text>
<polygon fill="none" stroke="#000000" points="10,-81.2 10,-103.2 223,-103.2 223,-81.2 10,-81.2"/>
<text text-anchor="start" x="30" y="-88.3" font-family="Helvetica,sans-Serif" font-size="11.00" fill="#000000">ip_force_block</text>
<polygon fill="none" stroke="#000000" points="223,-81.2 223,-103.2 290,-103.2 290,-81.2 223,-81.2"/>
<text text-anchor="start" x="226" y="-88.9" font-family="Helvetica,sans-Serif" font-size="11.00" fill="#000000">tinyint[3]</text>
<polygon fill="none" stroke="#000000" points="10,-59.2 10,-81.2 223,-81.2 223,-59.2 10,-59.2"/>
<text text-anchor="start" x="30" y="-66.3" font-family="Helvetica,sans-Serif" font-size="11.00" fill="#000000">ip_no_prevent_timing_attack</text>
<polygon fill="none" stroke="#000000" points="223,-59.2 223,-81.2 290,-81.2 290,-59.2 223,-59.2"/>
<text text-anchor="start" x="226" y="-66.9" font-family="Helvetica,sans-Serif" font-size="11.00" fill="#000000">tinyint[3]</text>
<polygon fill="#ffffff" stroke="transparent" points="10,-40.2 10,-59.2 121,-59.2 121,-40.2 10,-40.2"/>
<polygon fill="none" stroke="#000000" points="10,-40.2 10,-59.2 121,-59.2 121,-40.2 10,-40.2"/>
<text text-anchor="start" x="13" y="-46.3" font-family="Helvetica,sans-Serif" font-size="11.00" fill="#000000">&lt; 0</text>
<polygon fill="#ffffff" stroke="transparent" points="121,-40.2 121,-59.2 223,-59.2 223,-40.2 121,-40.2"/>
<polygon fill="none" stroke="#000000" points="121,-40.2 121,-59.2 223,-59.2 223,-40.2 121,-40.2"/>
<text text-anchor="start" x="213.8862" y="-46.3" font-family="Helvetica,sans-Serif" font-size="11.00" fill="#000000"> &#160;</text>
<polygon fill="#ffffff" stroke="transparent" points="223,-40.2 223,-59.2 290,-59.2 290,-40.2 223,-40.2"/>
<polygon fill="none" stroke="#000000" points="223,-40.2 223,-59.2 290,-59.2 290,-40.2 223,-40.2"/>
<text text-anchor="start" x="271.4053" y="-46.3" font-family="Helvetica,sans-Serif" font-size="11.00" fill="#000000">0 &gt;</text>
<polygon fill="none" stroke="#000000" stroke-width="2" points="9,-39.2 9,-259.2 291,-259.2 291,-39.2 9,-39.2"/>
</a>
</g>
</g>
</g>
</svg>
