<?xml version="1.0" encoding="UTF-8" standalone="no"?>
<!DOCTYPE svg PUBLIC "-//W3C//DTD SVG 1.1//EN"
 "http://www.w3.org/Graphics/SVG/1.1/DTD/svg11.dtd">
<!-- Generated by graphviz version 2.40.1 (20161225.0304)
 -->
<!-- Title: oneDegreeRelationshipsDiagram Pages: 1 -->
<svg width="215pt" height="558pt"
 viewBox="0.00 0.00 215.00 558.20" xmlns="http://www.w3.org/2000/svg" xmlns:xlink="http://www.w3.org/1999/xlink">
<g id="graph0" class="graph" transform="scale(1 1) rotate(0) translate(4 554.2)">
<title>oneDegreeRelationshipsDiagram</title>
<polygon fill="#ffffff" stroke="transparent" points="-4,4 -4,-554.2 211,-554.2 211,4 -4,4"/>
<text text-anchor="middle" x="72.4936" y="-7.3" font-family="Helvetica,sans-Serif" font-size="11.00" fill="#000000">Generated by SchemaSpy</text>
<!-- layout_options -->
<g id="node1" class="node">
<title>layout_options</title>
<g id="a_node1"><a xlink:href="../../tables/layout_options.html" xlink:title="layout_options" target="_top">
<polygon fill="#ffffff" stroke="transparent" points="8,-38.2 8,-546.2 199,-546.2 199,-38.2 8,-38.2"/>
<polygon fill="#f5f5f5" stroke="transparent" points="10.5,-521.2 10.5,-544.2 197.5,-544.2 197.5,-521.2 10.5,-521.2"/>
<polygon fill="none" stroke="#000000" points="10.5,-521.2 10.5,-544.2 197.5,-544.2 197.5,-521.2 10.5,-521.2"/>
<text text-anchor="start" x="15.5" y="-529.8" font-family="Helvetica,sans-Serif" font-weight="bold" font-size="11.00" fill="#000000">layout_options</text>
<text text-anchor="start" x="162.5437" y="-529.3" font-family="Helvetica,sans-Serif" font-size="11.00" fill="#000000">[table]</text>
<polygon fill="none" stroke="#000000" points="10.5,-499.2 10.5,-521.2 130.5,-521.2 130.5,-499.2 10.5,-499.2"/>
<image xlink:href="../../images/primaryKeys.png" width="11px" height="12px" preserveAspectRatio="xMinYMin meet" x="15.5" y="-516.2"/>
<text text-anchor="start" x="30.5" y="-506.3" font-family="Helvetica,sans-Serif" font-size="11.00" fill="#000000">form_id</text>
<polygon fill="none" stroke="#000000" points="130.5,-499.2 130.5,-521.2 197.5,-521.2 197.5,-499.2 130.5,-499.2"/>
<text text-anchor="start" x="133.5" y="-506.9" font-family="Helvetica,sans-Serif" font-size="11.00" fill="#000000">varchar[31]</text>
<polygon fill="none" stroke="#000000" points="10.5,-477.2 10.5,-499.2 130.5,-499.2 130.5,-477.2 10.5,-477.2"/>
<image xlink:href="../../images/primaryKeys.png" width="11px" height="12px" preserveAspectRatio="xMinYMin meet" x="15.5" y="-494.2"/>
<text text-anchor="start" x="30.5" y="-484.3" font-family="Helvetica,sans-Serif" font-size="11.00" fill="#000000">field_id</text>
<polygon fill="none" stroke="#000000" points="130.5,-477.2 130.5,-499.2 197.5,-499.2 197.5,-477.2 130.5,-477.2"/>
<text text-anchor="start" x="133.5" y="-484.9" font-family="Helvetica,sans-Serif" font-size="11.00" fill="#000000">varchar[31]</text>
<polygon fill="none" stroke="#000000" points="10.5,-455.2 10.5,-477.2 130.5,-477.2 130.5,-455.2 10.5,-455.2"/>
<text text-anchor="start" x="30.5" y="-462.3" font-family="Helvetica,sans-Serif" font-size="11.00" fill="#000000">group_id</text>
<polygon fill="none" stroke="#000000" points="130.5,-455.2 130.5,-477.2 197.5,-477.2 197.5,-455.2 130.5,-455.2"/>
<text text-anchor="start" x="133.5" y="-462.9" font-family="Helvetica,sans-Serif" font-size="11.00" fill="#000000">varchar[31]</text>
<polygon fill="none" stroke="#000000" points="10.5,-433.2 10.5,-455.2 130.5,-455.2 130.5,-433.2 10.5,-433.2"/>
<text text-anchor="start" x="30.5" y="-440.3" font-family="Helvetica,sans-Serif" font-size="11.00" fill="#000000">title</text>
<polygon fill="none" stroke="#000000" points="130.5,-433.2 130.5,-455.2 197.5,-455.2 197.5,-433.2 130.5,-433.2"/>
<text text-anchor="start" x="133.5" y="-440.9" font-family="Helvetica,sans-Serif" font-size="11.00" fill="#000000">text[65535]</text>
<polygon fill="none" stroke="#000000" points="10.5,-411.2 10.5,-433.2 130.5,-433.2 130.5,-411.2 10.5,-411.2"/>
<image xlink:href="../../images/primaryKeys.png" width="11px" height="12px" preserveAspectRatio="xMinYMin meet" x="15.5" y="-428.2"/>
<text text-anchor="start" x="30.5" y="-418.3" font-family="Helvetica,sans-Serif" font-size="11.00" fill="#000000">seq</text>
<polygon fill="none" stroke="#000000" points="130.5,-411.2 130.5,-433.2 197.5,-433.2 197.5,-411.2 130.5,-411.2"/>
<text text-anchor="start" x="133.5" y="-418.9" font-family="Helvetica,sans-Serif" font-size="11.00" fill="#000000">int[10]</text>
<polygon fill="none" stroke="#000000" points="10.5,-389.2 10.5,-411.2 130.5,-411.2 130.5,-389.2 10.5,-389.2"/>
<text text-anchor="start" x="30.5" y="-396.3" font-family="Helvetica,sans-Serif" font-size="11.00" fill="#000000">data_type</text>
<polygon fill="none" stroke="#000000" points="130.5,-389.2 130.5,-411.2 197.5,-411.2 197.5,-389.2 130.5,-389.2"/>
<text text-anchor="start" x="133.5" y="-396.9" font-family="Helvetica,sans-Serif" font-size="11.00" fill="#000000">tinyint[3]</text>
<polygon fill="none" stroke="#000000" points="10.5,-367.2 10.5,-389.2 130.5,-389.2 130.5,-367.2 10.5,-367.2"/>
<text text-anchor="start" x="30.5" y="-374.3" font-family="Helvetica,sans-Serif" font-size="11.00" fill="#000000">uor</text>
<polygon fill="none" stroke="#000000" points="130.5,-367.2 130.5,-389.2 197.5,-389.2 197.5,-367.2 130.5,-367.2"/>
<text text-anchor="start" x="133.5" y="-374.9" font-family="Helvetica,sans-Serif" font-size="11.00" fill="#000000">bit[1]</text>
<polygon fill="none" stroke="#000000" points="10.5,-345.2 10.5,-367.2 130.5,-367.2 130.5,-345.2 10.5,-345.2"/>
<text text-anchor="start" x="30.5" y="-352.3" font-family="Helvetica,sans-Serif" font-size="11.00" fill="#000000">fld_length</text>
<polygon fill="none" stroke="#000000" points="130.5,-345.2 130.5,-367.2 197.5,-367.2 197.5,-345.2 130.5,-345.2"/>
<text text-anchor="start" x="133.5" y="-352.9" font-family="Helvetica,sans-Serif" font-size="11.00" fill="#000000">int[10]</text>
<polygon fill="none" stroke="#000000" points="10.5,-323.2 10.5,-345.2 130.5,-345.2 130.5,-323.2 10.5,-323.2"/>
<text text-anchor="start" x="30.5" y="-330.3" font-family="Helvetica,sans-Serif" font-size="11.00" fill="#000000">max_length</text>
<polygon fill="none" stroke="#000000" points="130.5,-323.2 130.5,-345.2 197.5,-345.2 197.5,-323.2 130.5,-323.2"/>
<text text-anchor="start" x="133.5" y="-330.9" font-family="Helvetica,sans-Serif" font-size="11.00" fill="#000000">int[10]</text>
<polygon fill="none" stroke="#000000" points="10.5,-301.2 10.5,-323.2 130.5,-323.2 130.5,-301.2 10.5,-301.2"/>
<text text-anchor="start" x="30.5" y="-308.3" font-family="Helvetica,sans-Serif" font-size="11.00" fill="#000000">list_id</text>
<polygon fill="none" stroke="#000000" points="130.5,-301.2 130.5,-323.2 197.5,-323.2 197.5,-301.2 130.5,-301.2"/>
<text text-anchor="start" x="133.4365" y="-308.9" font-family="Helvetica,sans-Serif" font-size="11.00" fill="#000000">varchar[100]</text>
<polygon fill="none" stroke="#000000" points="10.5,-279.2 10.5,-301.2 130.5,-301.2 130.5,-279.2 10.5,-279.2"/>
<text text-anchor="start" x="30.5" y="-286.3" font-family="Helvetica,sans-Serif" font-size="11.00" fill="#000000">titlecols</text>
<polygon fill="none" stroke="#000000" points="130.5,-279.2 130.5,-301.2 197.5,-301.2 197.5,-279.2 130.5,-279.2"/>
<text text-anchor="start" x="133.5" y="-286.9" font-family="Helvetica,sans-Serif" font-size="11.00" fill="#000000">tinyint[3]</text>
<polygon fill="none" stroke="#000000" points="10.5,-257.2 10.5,-279.2 130.5,-279.2 130.5,-257.2 10.5,-257.2"/>
<text text-anchor="start" x="30.5" y="-264.3" font-family="Helvetica,sans-Serif" font-size="11.00" fill="#000000">datacols</text>
<polygon fill="none" stroke="#000000" points="130.5,-257.2 130.5,-279.2 197.5,-279.2 197.5,-257.2 130.5,-257.2"/>
<text text-anchor="start" x="133.5" y="-264.9" font-family="Helvetica,sans-Serif" font-size="11.00" fill="#000000">tinyint[3]</text>
<polygon fill="none" stroke="#000000" points="10.5,-235.2 10.5,-257.2 130.5,-257.2 130.5,-235.2 10.5,-235.2"/>
<text text-anchor="start" x="30.5" y="-242.3" font-family="Helvetica,sans-Serif" font-size="11.00" fill="#000000">default_value</text>
<polygon fill="none" stroke="#000000" points="130.5,-235.2 130.5,-257.2 197.5,-257.2 197.5,-235.2 130.5,-235.2"/>
<text text-anchor="start" x="133.4365" y="-242.9" font-family="Helvetica,sans-Serif" font-size="11.00" fill="#000000">varchar[255]</text>
<polygon fill="none" stroke="#000000" points="10.5,-213.2 10.5,-235.2 130.5,-235.2 130.5,-213.2 10.5,-213.2"/>
<text text-anchor="start" x="30.5" y="-220.3" font-family="Helvetica,sans-Serif" font-size="11.00" fill="#000000">edit_options</text>
<polygon fill="none" stroke="#000000" points="130.5,-213.2 130.5,-235.2 197.5,-235.2 197.5,-213.2 130.5,-213.2"/>
<text text-anchor="start" x="133.5" y="-220.9" font-family="Helvetica,sans-Serif" font-size="11.00" fill="#000000">varchar[36]</text>
<polygon fill="none" stroke="#000000" points="10.5,-191.2 10.5,-213.2 130.5,-213.2 130.5,-191.2 10.5,-191.2"/>
<text text-anchor="start" x="30.5" y="-198.3" font-family="Helvetica,sans-Serif" font-size="11.00" fill="#000000">description</text>
<polygon fill="none" stroke="#000000" points="130.5,-191.2 130.5,-213.2 197.5,-213.2 197.5,-191.2 130.5,-191.2"/>
<text text-anchor="start" x="133.5" y="-198.9" font-family="Helvetica,sans-Serif" font-size="11.00" fill="#000000">text[65535]</text>
<polygon fill="none" stroke="#000000" points="10.5,-169.2 10.5,-191.2 130.5,-191.2 130.5,-169.2 10.5,-169.2"/>
<text text-anchor="start" x="30.5" y="-176.3" font-family="Helvetica,sans-Serif" font-size="11.00" fill="#000000">fld_rows</text>
<polygon fill="none" stroke="#000000" points="130.5,-169.2 130.5,-191.2 197.5,-191.2 197.5,-169.2 130.5,-169.2"/>
<text text-anchor="start" x="133.5" y="-176.9" font-family="Helvetica,sans-Serif" font-size="11.00" fill="#000000">int[10]</text>
<polygon fill="none" stroke="#000000" points="10.5,-147.2 10.5,-169.2 130.5,-169.2 130.5,-147.2 10.5,-147.2"/>
<text text-anchor="start" x="30.5" y="-154.3" font-family="Helvetica,sans-Serif" font-size="11.00" fill="#000000">list_backup_id</text>
<polygon fill="none" stroke="#000000" points="130.5,-147.2 130.5,-169.2 197.5,-169.2 197.5,-147.2 130.5,-147.2"/>
<text text-anchor="start" x="133.4365" y="-154.9" font-family="Helvetica,sans-Serif" font-size="11.00" fill="#000000">varchar[100]</text>
<polygon fill="none" stroke="#000000" points="10.5,-125.2 10.5,-147.2 130.5,-147.2 130.5,-125.2 10.5,-125.2"/>
<text text-anchor="start" x="30.5" y="-132.3" font-family="Helvetica,sans-Serif" font-size="11.00" fill="#000000">source</text>
<polygon fill="none" stroke="#000000" points="130.5,-125.2 130.5,-147.2 197.5,-147.2 197.5,-125.2 130.5,-125.2"/>
<text text-anchor="start" x="133.5" y="-132.9" font-family="Helvetica,sans-Serif" font-size="11.00" fill="#000000">char[1]</text>
<polygon fill="none" stroke="#000000" points="10.5,-103.2 10.5,-125.2 130.5,-125.2 130.5,-103.2 10.5,-103.2"/>
<text text-anchor="start" x="30.5" y="-110.3" font-family="Helvetica,sans-Serif" font-size="11.00" fill="#000000">conditions</text>
<polygon fill="none" stroke="#000000" points="130.5,-103.2 130.5,-125.2 197.5,-125.2 197.5,-103.2 130.5,-103.2"/>
<text text-anchor="start" x="133.5" y="-110.9" font-family="Helvetica,sans-Serif" font-size="11.00" fill="#000000">text[65535]</text>
<polygon fill="none" stroke="#000000" points="10.5,-81.2 10.5,-103.2 130.5,-103.2 130.5,-81.2 10.5,-81.2"/>
<text text-anchor="start" x="30.5" y="-88.3" font-family="Helvetica,sans-Serif" font-size="11.00" fill="#000000">validation</text>
<polygon fill="none" stroke="#000000" points="130.5,-81.2 130.5,-103.2 197.5,-103.2 197.5,-81.2 130.5,-81.2"/>
<text text-anchor="start" x="133.4365" y="-88.9" font-family="Helvetica,sans-Serif" font-size="11.00" fill="#000000">varchar[100]</text>
<polygon fill="none" stroke="#000000" points="10.5,-59.2 10.5,-81.2 130.5,-81.2 130.5,-59.2 10.5,-59.2"/>
<text text-anchor="start" x="30.5" y="-66.3" font-family="Helvetica,sans-Serif" font-size="11.00" fill="#000000">codes</text>
<polygon fill="none" stroke="#000000" points="130.5,-59.2 130.5,-81.2 197.5,-81.2 197.5,-59.2 130.5,-59.2"/>
<text text-anchor="start" x="133.4365" y="-66.9" font-family="Helvetica,sans-Serif" font-size="11.00" fill="#000000">varchar[255]</text>
<polygon fill="#ffffff" stroke="transparent" points="10.5,-40.2 10.5,-59.2 74.5,-59.2 74.5,-40.2 10.5,-40.2"/>
<polygon fill="none" stroke="#000000" points="10.5,-40.2 10.5,-59.2 74.5,-59.2 74.5,-40.2 10.5,-40.2"/>
<text text-anchor="start" x="13.5" y="-46.3" font-family="Helvetica,sans-Serif" font-size="11.00" fill="#000000">&lt; 0</text>
<polygon fill="#ffffff" stroke="transparent" points="74.5,-40.2 74.5,-59.2 130.5,-59.2 130.5,-40.2 74.5,-40.2"/>
<polygon fill="none" stroke="#000000" points="74.5,-40.2 74.5,-59.2 130.5,-59.2 130.5,-40.2 74.5,-40.2"/>
<text text-anchor="start" x="121.3862" y="-46.3" font-family="Helvetica,sans-Serif" font-size="11.00" fill="#000000"> &#160;</text>
<polygon fill="#ffffff" stroke="transparent" points="130.5,-40.2 130.5,-59.2 197.5,-59.2 197.5,-40.2 130.5,-40.2"/>
<polygon fill="none" stroke="#000000" points="130.5,-40.2 130.5,-59.2 197.5,-59.2 197.5,-40.2 130.5,-40.2"/>
<text text-anchor="start" x="178.9053" y="-46.3" font-family="Helvetica,sans-Serif" font-size="11.00" fill="#000000">0 &gt;</text>
<polygon fill="none" stroke="#000000" stroke-width="2" points="9,-39.2 9,-545.2 198,-545.2 198,-39.2 9,-39.2"/>
</a>
</g>
</g>
</g>
</svg>
