<?xml version="1.0" encoding="UTF-8" standalone="no"?>
<!DOCTYPE svg PUBLIC "-//W3C//DTD SVG 1.1//EN"
 "http://www.w3.org/Graphics/SVG/1.1/DTD/svg11.dtd">
<!-- Generated by graphviz version 2.40.1 (20161225.0304)
 -->
<!-- Title: oneDegreeRelationshipsDiagram Pages: 1 -->
<svg width="307pt" height="228pt"
 viewBox="0.00 0.00 307.00 228.20" xmlns="http://www.w3.org/2000/svg" xmlns:xlink="http://www.w3.org/1999/xlink">
<g id="graph0" class="graph" transform="scale(1 1) rotate(0) translate(4 224.2)">
<title>oneDegreeRelationshipsDiagram</title>
<polygon fill="#ffffff" stroke="transparent" points="-4,4 -4,-224.2 303,-224.2 303,4 -4,4"/>
<text text-anchor="middle" x="72.4936" y="-7.3" font-family="Helvetica,sans-Serif" font-size="11.00" fill="#000000">Generated by SchemaSpy</text>
<!-- log_comment_encrypt -->
<g id="node1" class="node">
<title>log_comment_encrypt</title>
<g id="a_node1"><a xlink:href="../../tables/log_comment_encrypt.html" xlink:title="log_comment_encrypt" target="_top">
<polygon fill="#ffffff" stroke="transparent" points="8,-38.2 8,-216.2 291,-216.2 291,-38.2 8,-38.2"/>
<polygon fill="#f5f5f5" stroke="transparent" points="10.5,-191.2 10.5,-214.2 289.5,-214.2 289.5,-191.2 10.5,-191.2"/>
<polygon fill="none" stroke="#000000" points="10.5,-191.2 10.5,-214.2 289.5,-214.2 289.5,-191.2 10.5,-191.2"/>
<text text-anchor="start" x="15.5" y="-199.8" font-family="Helvetica,sans-Serif" font-weight="bold" font-size="11.00" fill="#000000">log_comment_encrypt</text>
<text text-anchor="start" x="254.5437" y="-199.3" font-family="Helvetica,sans-Serif" font-size="11.00" fill="#000000">[table]</text>
<polygon fill="none" stroke="#000000" points="10.5,-169.2 10.5,-191.2 178.5,-191.2 178.5,-169.2 10.5,-169.2"/>
<image xlink:href="../../images/primaryKeys.png" width="11px" height="12px" preserveAspectRatio="xMinYMin meet" x="15.5" y="-186.2"/>
<text text-anchor="start" x="30.5" y="-176.3" font-family="Helvetica,sans-Serif" font-size="11.00" fill="#000000">id</text>
<polygon fill="none" stroke="#000000" points="178.5,-169.2 178.5,-191.2 289.5,-191.2 289.5,-169.2 178.5,-169.2"/>
<text text-anchor="start" x="181.5" y="-176.9" font-family="Helvetica,sans-Serif" font-size="11.00" fill="#000000">int[10]</text>
<polygon fill="none" stroke="#000000" points="10.5,-147.2 10.5,-169.2 178.5,-169.2 178.5,-147.2 10.5,-147.2"/>
<text text-anchor="start" x="30.5" y="-154.3" font-family="Helvetica,sans-Serif" font-size="11.00" fill="#000000">log_id</text>
<polygon fill="none" stroke="#000000" points="178.5,-147.2 178.5,-169.2 289.5,-169.2 289.5,-147.2 178.5,-147.2"/>
<text text-anchor="start" x="181.5" y="-154.9" font-family="Helvetica,sans-Serif" font-size="11.00" fill="#000000">int[10]</text>
<polygon fill="none" stroke="#000000" points="10.5,-125.2 10.5,-147.2 178.5,-147.2 178.5,-125.2 10.5,-125.2"/>
<text text-anchor="start" x="30.5" y="-132.3" font-family="Helvetica,sans-Serif" font-size="11.00" fill="#000000">encrypt</text>
<polygon fill="none" stroke="#000000" points="178.5,-125.2 178.5,-147.2 289.5,-147.2 289.5,-125.2 178.5,-125.2"/>
<text text-anchor="start" x="181.5" y="-132.9" font-family="Helvetica,sans-Serif" font-size="11.00" fill="#000000">enum[3]</text>
<polygon fill="none" stroke="#000000" points="10.5,-103.2 10.5,-125.2 178.5,-125.2 178.5,-103.2 10.5,-103.2"/>
<text text-anchor="start" x="30.5" y="-110.3" font-family="Helvetica,sans-Serif" font-size="11.00" fill="#000000">checksum</text>
<polygon fill="none" stroke="#000000" points="178.5,-103.2 178.5,-125.2 289.5,-125.2 289.5,-103.2 178.5,-103.2"/>
<text text-anchor="start" x="181.1115" y="-110.9" font-family="Helvetica,sans-Serif" font-size="11.00" fill="#000000">longtext[2147483647]</text>
<polygon fill="none" stroke="#000000" points="10.5,-81.2 10.5,-103.2 178.5,-103.2 178.5,-81.2 10.5,-81.2"/>
<text text-anchor="start" x="30.5" y="-88.3" font-family="Helvetica,sans-Serif" font-size="11.00" fill="#000000">checksum_api</text>
<polygon fill="none" stroke="#000000" points="178.5,-81.2 178.5,-103.2 289.5,-103.2 289.5,-81.2 178.5,-81.2"/>
<text text-anchor="start" x="181.1115" y="-88.9" font-family="Helvetica,sans-Serif" font-size="11.00" fill="#000000">longtext[2147483647]</text>
<polygon fill="none" stroke="#000000" points="10.5,-59.2 10.5,-81.2 178.5,-81.2 178.5,-59.2 10.5,-59.2"/>
<text text-anchor="start" x="30.5" y="-66.3" font-family="Helvetica,sans-Serif" font-size="11.00" fill="#000000">version</text>
<polygon fill="none" stroke="#000000" points="178.5,-59.2 178.5,-81.2 289.5,-81.2 289.5,-59.2 178.5,-59.2"/>
<text text-anchor="start" x="181.5" y="-66.9" font-family="Helvetica,sans-Serif" font-size="11.00" fill="#000000">tinyint[3]</text>
<polygon fill="#ffffff" stroke="transparent" points="10.5,-40.2 10.5,-59.2 98.5,-59.2 98.5,-40.2 10.5,-40.2"/>
<polygon fill="none" stroke="#000000" points="10.5,-40.2 10.5,-59.2 98.5,-59.2 98.5,-40.2 10.5,-40.2"/>
<text text-anchor="start" x="13.5" y="-46.3" font-family="Helvetica,sans-Serif" font-size="11.00" fill="#000000">&lt; 0</text>
<polygon fill="#ffffff" stroke="transparent" points="98.5,-40.2 98.5,-59.2 178.5,-59.2 178.5,-40.2 98.5,-40.2"/>
<polygon fill="none" stroke="#000000" points="98.5,-40.2 98.5,-59.2 178.5,-59.2 178.5,-40.2 98.5,-40.2"/>
<text text-anchor="start" x="169.3862" y="-46.3" font-family="Helvetica,sans-Serif" font-size="11.00" fill="#000000"> &#160;</text>
<polygon fill="#ffffff" stroke="transparent" points="178.5,-40.2 178.5,-59.2 289.5,-59.2 289.5,-40.2 178.5,-40.2"/>
<polygon fill="none" stroke="#000000" points="178.5,-40.2 178.5,-59.2 289.5,-59.2 289.5,-40.2 178.5,-40.2"/>
<text text-anchor="start" x="270.9053" y="-46.3" font-family="Helvetica,sans-Serif" font-size="11.00" fill="#000000">0 &gt;</text>
<polygon fill="none" stroke="#000000" stroke-width="2" points="9,-39.2 9,-215.2 290,-215.2 290,-39.2 9,-39.2"/>
</a>
</g>
</g>
</g>
</svg>
