<?xml version="1.0" encoding="UTF-8" standalone="no"?>
<!DOCTYPE svg PUBLIC "-//W3C//DTD SVG 1.1//EN"
 "http://www.w3.org/Graphics/SVG/1.1/DTD/svg11.dtd">
<!-- Generated by graphviz version 2.40.1 (20161225.0304)
 -->
<!-- Title: oneDegreeRelationshipsDiagram Pages: 1 -->
<svg width="304pt" height="448pt"
 viewBox="0.00 0.00 304.00 448.20" xmlns="http://www.w3.org/2000/svg" xmlns:xlink="http://www.w3.org/1999/xlink">
<g id="graph0" class="graph" transform="scale(1 1) rotate(0) translate(4 444.2)">
<title>oneDegreeRelationshipsDiagram</title>
<polygon fill="#ffffff" stroke="transparent" points="-4,4 -4,-444.2 300,-444.2 300,4 -4,4"/>
<text text-anchor="middle" x="72.4936" y="-7.3" font-family="Helvetica,sans-Serif" font-size="11.00" fill="#000000">Generated by SchemaSpy</text>
<!-- medex_prefs -->
<g id="node1" class="node">
<title>medex_prefs</title>
<g id="a_node1"><a xlink:href="../../tables/medex_prefs.html" xlink:title="medex_prefs" target="_top">
<polygon fill="#ffffff" stroke="transparent" points="8,-38.2 8,-436.2 288,-436.2 288,-38.2 8,-38.2"/>
<polygon fill="#f5f5f5" stroke="transparent" points="10,-411.2 10,-434.2 286,-434.2 286,-411.2 10,-411.2"/>
<polygon fill="none" stroke="#000000" points="10,-411.2 10,-434.2 286,-434.2 286,-411.2 10,-411.2"/>
<text text-anchor="start" x="15" y="-419.8" font-family="Helvetica,sans-Serif" font-weight="bold" font-size="11.00" fill="#000000">medex_prefs</text>
<text text-anchor="start" x="251.0437" y="-419.3" font-family="Helvetica,sans-Serif" font-size="11.00" fill="#000000">[table]</text>
<polygon fill="none" stroke="#000000" points="10,-389.2 10,-411.2 211,-411.2 211,-389.2 10,-389.2"/>
<text text-anchor="start" x="30" y="-396.3" font-family="Helvetica,sans-Serif" font-size="11.00" fill="#000000">MedEx_id</text>
<polygon fill="none" stroke="#000000" points="211,-389.2 211,-411.2 286,-411.2 286,-389.2 211,-389.2"/>
<text text-anchor="start" x="214" y="-396.9" font-family="Helvetica,sans-Serif" font-size="11.00" fill="#000000">int[10]</text>
<polygon fill="#ffffff" stroke="transparent" points="10,-367.2 10,-389.2 211,-389.2 211,-367.2 10,-367.2"/>
<polygon fill="none" stroke="#000000" points="10,-367.2 10,-389.2 211,-389.2 211,-367.2 10,-367.2"/>
<text text-anchor="start" x="30" y="-374.3" font-family="Helvetica,sans-Serif" font-size="11.00" fill="#000000">ME_username</text>
<polygon fill="none" stroke="#000000" points="211,-367.2 211,-389.2 286,-389.2 286,-367.2 211,-367.2"/>
<text text-anchor="start" x="214" y="-374.9" font-family="Helvetica,sans-Serif" font-size="11.00" fill="#000000">varchar[100]</text>
<polygon fill="none" stroke="#000000" points="10,-345.2 10,-367.2 211,-367.2 211,-345.2 10,-345.2"/>
<text text-anchor="start" x="30" y="-352.3" font-family="Helvetica,sans-Serif" font-size="11.00" fill="#000000">ME_api_key</text>
<polygon fill="none" stroke="#000000" points="211,-345.2 211,-367.2 286,-367.2 286,-345.2 211,-345.2"/>
<text text-anchor="start" x="214" y="-352.9" font-family="Helvetica,sans-Serif" font-size="11.00" fill="#000000">text[65535]</text>
<polygon fill="none" stroke="#000000" points="10,-323.2 10,-345.2 211,-345.2 211,-323.2 10,-323.2"/>
<text text-anchor="start" x="30" y="-330.3" font-family="Helvetica,sans-Serif" font-size="11.00" fill="#000000">ME_facilities</text>
<polygon fill="none" stroke="#000000" points="211,-323.2 211,-345.2 286,-345.2 286,-323.2 211,-323.2"/>
<text text-anchor="start" x="214" y="-330.9" font-family="Helvetica,sans-Serif" font-size="11.00" fill="#000000">varchar[50]</text>
<polygon fill="none" stroke="#000000" points="10,-301.2 10,-323.2 211,-323.2 211,-301.2 10,-301.2"/>
<text text-anchor="start" x="30" y="-308.3" font-family="Helvetica,sans-Serif" font-size="11.00" fill="#000000">ME_providers</text>
<polygon fill="none" stroke="#000000" points="211,-301.2 211,-323.2 286,-323.2 286,-301.2 211,-301.2"/>
<text text-anchor="start" x="214" y="-308.9" font-family="Helvetica,sans-Serif" font-size="11.00" fill="#000000">varchar[100]</text>
<polygon fill="none" stroke="#000000" points="10,-279.2 10,-301.2 211,-301.2 211,-279.2 10,-279.2"/>
<text text-anchor="start" x="30" y="-286.3" font-family="Helvetica,sans-Serif" font-size="11.00" fill="#000000">ME_hipaa_default_override</text>
<polygon fill="none" stroke="#000000" points="211,-279.2 211,-301.2 286,-301.2 286,-279.2 211,-279.2"/>
<text text-anchor="start" x="214" y="-286.9" font-family="Helvetica,sans-Serif" font-size="11.00" fill="#000000">varchar[3]</text>
<polygon fill="none" stroke="#000000" points="10,-257.2 10,-279.2 211,-279.2 211,-257.2 10,-257.2"/>
<text text-anchor="start" x="30" y="-264.3" font-family="Helvetica,sans-Serif" font-size="11.00" fill="#000000">PHONE_country_code</text>
<polygon fill="none" stroke="#000000" points="211,-257.2 211,-279.2 286,-279.2 286,-257.2 211,-257.2"/>
<text text-anchor="start" x="214" y="-264.9" font-family="Helvetica,sans-Serif" font-size="11.00" fill="#000000">int[10]</text>
<polygon fill="none" stroke="#000000" points="10,-235.2 10,-257.2 211,-257.2 211,-235.2 10,-235.2"/>
<text text-anchor="start" x="30" y="-242.3" font-family="Helvetica,sans-Serif" font-size="11.00" fill="#000000">MSGS_default_yes</text>
<polygon fill="none" stroke="#000000" points="211,-235.2 211,-257.2 286,-257.2 286,-235.2 211,-235.2"/>
<text text-anchor="start" x="214" y="-242.9" font-family="Helvetica,sans-Serif" font-size="11.00" fill="#000000">varchar[3]</text>
<polygon fill="none" stroke="#000000" points="10,-213.2 10,-235.2 211,-235.2 211,-213.2 10,-213.2"/>
<text text-anchor="start" x="30" y="-220.3" font-family="Helvetica,sans-Serif" font-size="11.00" fill="#000000">POSTCARDS_local</text>
<polygon fill="none" stroke="#000000" points="211,-213.2 211,-235.2 286,-235.2 286,-213.2 211,-213.2"/>
<text text-anchor="start" x="214" y="-220.9" font-family="Helvetica,sans-Serif" font-size="11.00" fill="#000000">varchar[3]</text>
<polygon fill="none" stroke="#000000" points="10,-191.2 10,-213.2 211,-213.2 211,-191.2 10,-191.2"/>
<text text-anchor="start" x="30" y="-198.3" font-family="Helvetica,sans-Serif" font-size="11.00" fill="#000000">POSTCARDS_remote</text>
<polygon fill="none" stroke="#000000" points="211,-191.2 211,-213.2 286,-213.2 286,-191.2 211,-191.2"/>
<text text-anchor="start" x="214" y="-198.9" font-family="Helvetica,sans-Serif" font-size="11.00" fill="#000000">varchar[3]</text>
<polygon fill="none" stroke="#000000" points="10,-169.2 10,-191.2 211,-191.2 211,-169.2 10,-169.2"/>
<text text-anchor="start" x="30" y="-176.3" font-family="Helvetica,sans-Serif" font-size="11.00" fill="#000000">LABELS_local</text>
<polygon fill="none" stroke="#000000" points="211,-169.2 211,-191.2 286,-191.2 286,-169.2 211,-169.2"/>
<text text-anchor="start" x="214" y="-176.9" font-family="Helvetica,sans-Serif" font-size="11.00" fill="#000000">varchar[3]</text>
<polygon fill="none" stroke="#000000" points="10,-147.2 10,-169.2 211,-169.2 211,-147.2 10,-147.2"/>
<text text-anchor="start" x="30" y="-154.3" font-family="Helvetica,sans-Serif" font-size="11.00" fill="#000000">LABELS_choice</text>
<polygon fill="none" stroke="#000000" points="211,-147.2 211,-169.2 286,-169.2 286,-147.2 211,-147.2"/>
<text text-anchor="start" x="214" y="-154.9" font-family="Helvetica,sans-Serif" font-size="11.00" fill="#000000">varchar[50]</text>
<polygon fill="none" stroke="#000000" points="10,-125.2 10,-147.2 211,-147.2 211,-125.2 10,-125.2"/>
<text text-anchor="start" x="30" y="-132.3" font-family="Helvetica,sans-Serif" font-size="11.00" fill="#000000">combine_time</text>
<polygon fill="none" stroke="#000000" points="211,-125.2 211,-147.2 286,-147.2 286,-125.2 211,-125.2"/>
<text text-anchor="start" x="214" y="-132.9" font-family="Helvetica,sans-Serif" font-size="11.00" fill="#000000">tinyint[3]</text>
<polygon fill="none" stroke="#000000" points="10,-103.2 10,-125.2 211,-125.2 211,-103.2 10,-103.2"/>
<text text-anchor="start" x="30" y="-110.3" font-family="Helvetica,sans-Serif" font-size="11.00" fill="#000000">postcard_top</text>
<polygon fill="none" stroke="#000000" points="211,-103.2 211,-125.2 286,-125.2 286,-103.2 211,-103.2"/>
<text text-anchor="start" x="214" y="-110.9" font-family="Helvetica,sans-Serif" font-size="11.00" fill="#000000">varchar[255]</text>
<polygon fill="none" stroke="#000000" points="10,-81.2 10,-103.2 211,-103.2 211,-81.2 10,-81.2"/>
<text text-anchor="start" x="30" y="-88.3" font-family="Helvetica,sans-Serif" font-size="11.00" fill="#000000">status</text>
<polygon fill="none" stroke="#000000" points="211,-81.2 211,-103.2 286,-103.2 286,-81.2 211,-81.2"/>
<text text-anchor="start" x="214" y="-88.9" font-family="Helvetica,sans-Serif" font-size="11.00" fill="#000000">text[65535]</text>
<polygon fill="none" stroke="#000000" points="10,-59.2 10,-81.2 211,-81.2 211,-59.2 10,-59.2"/>
<text text-anchor="start" x="30" y="-66.3" font-family="Helvetica,sans-Serif" font-size="11.00" fill="#000000">MedEx_lastupdated</text>
<polygon fill="none" stroke="#000000" points="211,-59.2 211,-81.2 286,-81.2 286,-59.2 211,-59.2"/>
<text text-anchor="start" x="213.9666" y="-66.9" font-family="Helvetica,sans-Serif" font-size="11.00" fill="#000000">timestamp[19]</text>
<polygon fill="#ffffff" stroke="transparent" points="10,-40.2 10,-59.2 115,-59.2 115,-40.2 10,-40.2"/>
<polygon fill="none" stroke="#000000" points="10,-40.2 10,-59.2 115,-59.2 115,-40.2 10,-40.2"/>
<text text-anchor="start" x="13" y="-46.3" font-family="Helvetica,sans-Serif" font-size="11.00" fill="#000000">&lt; 0</text>
<polygon fill="#ffffff" stroke="transparent" points="115,-40.2 115,-59.2 211,-59.2 211,-40.2 115,-40.2"/>
<polygon fill="none" stroke="#000000" points="115,-40.2 115,-59.2 211,-59.2 211,-40.2 115,-40.2"/>
<text text-anchor="start" x="201.8862" y="-46.3" font-family="Helvetica,sans-Serif" font-size="11.00" fill="#000000"> &#160;</text>
<polygon fill="#ffffff" stroke="transparent" points="211,-40.2 211,-59.2 286,-59.2 286,-40.2 211,-40.2"/>
<polygon fill="none" stroke="#000000" points="211,-40.2 211,-59.2 286,-59.2 286,-40.2 211,-40.2"/>
<text text-anchor="start" x="267.4053" y="-46.3" font-family="Helvetica,sans-Serif" font-size="11.00" fill="#000000">0 &gt;</text>
<polygon fill="none" stroke="#000000" stroke-width="2" points="9,-39.2 9,-435.2 287,-435.2 287,-39.2 9,-39.2"/>
</a>
</g>
</g>
</g>
</svg>
