<?xml version="1.0" encoding="UTF-8" standalone="no"?>
<!DOCTYPE svg PUBLIC "-//W3C//DTD SVG 1.1//EN"
 "http://www.w3.org/Graphics/SVG/1.1/DTD/svg11.dtd">
<!-- Generated by graphviz version 2.40.1 (20161225.0304)
 -->
<!-- Title: oneDegreeRelationshipsDiagram Pages: 1 -->
<svg width="245pt" height="294pt"
 viewBox="0.00 0.00 245.00 294.20" xmlns="http://www.w3.org/2000/svg" xmlns:xlink="http://www.w3.org/1999/xlink">
<g id="graph0" class="graph" transform="scale(1 1) rotate(0) translate(4 290.2)">
<title>oneDegreeRelationshipsDiagram</title>
<polygon fill="#ffffff" stroke="transparent" points="-4,4 -4,-290.2 241,-290.2 241,4 -4,4"/>
<text text-anchor="middle" x="72.4936" y="-7.3" font-family="Helvetica,sans-Serif" font-size="11.00" fill="#000000">Generated by SchemaSpy</text>
<!-- misc_address_book -->
<g id="node1" class="node">
<title>misc_address_book</title>
<g id="a_node1"><a xlink:href="../../tables/misc_address_book.html" xlink:title="misc_address_book" target="_top">
<polygon fill="#ffffff" stroke="transparent" points="8,-38.2 8,-282.2 229,-282.2 229,-38.2 8,-38.2"/>
<polygon fill="#f5f5f5" stroke="transparent" points="10.5,-257.2 10.5,-280.2 227.5,-280.2 227.5,-257.2 10.5,-257.2"/>
<polygon fill="none" stroke="#000000" points="10.5,-257.2 10.5,-280.2 227.5,-280.2 227.5,-257.2 10.5,-257.2"/>
<text text-anchor="start" x="15.5" y="-265.8" font-family="Helvetica,sans-Serif" font-weight="bold" font-size="11.00" fill="#000000">misc_address_book</text>
<text text-anchor="start" x="192.5437" y="-265.3" font-family="Helvetica,sans-Serif" font-size="11.00" fill="#000000">[table]</text>
<polygon fill="none" stroke="#000000" points="10.5,-235.2 10.5,-257.2 160.5,-257.2 160.5,-235.2 10.5,-235.2"/>
<image xlink:href="../../images/primaryKeys.png" width="11px" height="12px" preserveAspectRatio="xMinYMin meet" x="15.5" y="-252.2"/>
<text text-anchor="start" x="30.5" y="-242.3" font-family="Helvetica,sans-Serif" font-size="11.00" fill="#000000">id</text>
<polygon fill="none" stroke="#000000" points="160.5,-235.2 160.5,-257.2 227.5,-257.2 227.5,-235.2 160.5,-235.2"/>
<text text-anchor="start" x="163.5" y="-242.9" font-family="Helvetica,sans-Serif" font-size="11.00" fill="#000000">bigint[19]</text>
<polygon fill="none" stroke="#000000" points="10.5,-213.2 10.5,-235.2 160.5,-235.2 160.5,-213.2 10.5,-213.2"/>
<text text-anchor="start" x="30.5" y="-220.3" font-family="Helvetica,sans-Serif" font-size="11.00" fill="#000000">fname</text>
<polygon fill="none" stroke="#000000" points="160.5,-213.2 160.5,-235.2 227.5,-235.2 227.5,-213.2 160.5,-213.2"/>
<text text-anchor="start" x="163.4365" y="-220.9" font-family="Helvetica,sans-Serif" font-size="11.00" fill="#000000">varchar[255]</text>
<polygon fill="none" stroke="#000000" points="10.5,-191.2 10.5,-213.2 160.5,-213.2 160.5,-191.2 10.5,-191.2"/>
<text text-anchor="start" x="30.5" y="-198.3" font-family="Helvetica,sans-Serif" font-size="11.00" fill="#000000">mname</text>
<polygon fill="none" stroke="#000000" points="160.5,-191.2 160.5,-213.2 227.5,-213.2 227.5,-191.2 160.5,-191.2"/>
<text text-anchor="start" x="163.4365" y="-198.9" font-family="Helvetica,sans-Serif" font-size="11.00" fill="#000000">varchar[255]</text>
<polygon fill="none" stroke="#000000" points="10.5,-169.2 10.5,-191.2 160.5,-191.2 160.5,-169.2 10.5,-169.2"/>
<text text-anchor="start" x="30.5" y="-176.3" font-family="Helvetica,sans-Serif" font-size="11.00" fill="#000000">lname</text>
<polygon fill="none" stroke="#000000" points="160.5,-169.2 160.5,-191.2 227.5,-191.2 227.5,-169.2 160.5,-169.2"/>
<text text-anchor="start" x="163.4365" y="-176.9" font-family="Helvetica,sans-Serif" font-size="11.00" fill="#000000">varchar[255]</text>
<polygon fill="none" stroke="#000000" points="10.5,-147.2 10.5,-169.2 160.5,-169.2 160.5,-147.2 10.5,-147.2"/>
<text text-anchor="start" x="30.5" y="-154.3" font-family="Helvetica,sans-Serif" font-size="11.00" fill="#000000">street</text>
<polygon fill="none" stroke="#000000" points="160.5,-147.2 160.5,-169.2 227.5,-169.2 227.5,-147.2 160.5,-147.2"/>
<text text-anchor="start" x="163.5" y="-154.9" font-family="Helvetica,sans-Serif" font-size="11.00" fill="#000000">varchar[60]</text>
<polygon fill="none" stroke="#000000" points="10.5,-125.2 10.5,-147.2 160.5,-147.2 160.5,-125.2 10.5,-125.2"/>
<text text-anchor="start" x="30.5" y="-132.3" font-family="Helvetica,sans-Serif" font-size="11.00" fill="#000000">city</text>
<polygon fill="none" stroke="#000000" points="160.5,-125.2 160.5,-147.2 227.5,-147.2 227.5,-125.2 160.5,-125.2"/>
<text text-anchor="start" x="163.5" y="-132.9" font-family="Helvetica,sans-Serif" font-size="11.00" fill="#000000">varchar[30]</text>
<polygon fill="none" stroke="#000000" points="10.5,-103.2 10.5,-125.2 160.5,-125.2 160.5,-103.2 10.5,-103.2"/>
<text text-anchor="start" x="30.5" y="-110.3" font-family="Helvetica,sans-Serif" font-size="11.00" fill="#000000">state</text>
<polygon fill="none" stroke="#000000" points="160.5,-103.2 160.5,-125.2 227.5,-125.2 227.5,-103.2 160.5,-103.2"/>
<text text-anchor="start" x="163.5" y="-110.9" font-family="Helvetica,sans-Serif" font-size="11.00" fill="#000000">varchar[30]</text>
<polygon fill="none" stroke="#000000" points="10.5,-81.2 10.5,-103.2 160.5,-103.2 160.5,-81.2 10.5,-81.2"/>
<text text-anchor="start" x="30.5" y="-88.3" font-family="Helvetica,sans-Serif" font-size="11.00" fill="#000000">zip</text>
<polygon fill="none" stroke="#000000" points="160.5,-81.2 160.5,-103.2 227.5,-103.2 227.5,-81.2 160.5,-81.2"/>
<text text-anchor="start" x="163.5" y="-88.9" font-family="Helvetica,sans-Serif" font-size="11.00" fill="#000000">varchar[20]</text>
<polygon fill="none" stroke="#000000" points="10.5,-59.2 10.5,-81.2 160.5,-81.2 160.5,-59.2 10.5,-59.2"/>
<text text-anchor="start" x="30.5" y="-66.3" font-family="Helvetica,sans-Serif" font-size="11.00" fill="#000000">phone</text>
<polygon fill="none" stroke="#000000" points="160.5,-59.2 160.5,-81.2 227.5,-81.2 227.5,-59.2 160.5,-59.2"/>
<text text-anchor="start" x="163.5" y="-66.9" font-family="Helvetica,sans-Serif" font-size="11.00" fill="#000000">varchar[30]</text>
<polygon fill="#ffffff" stroke="transparent" points="10.5,-40.2 10.5,-59.2 89.5,-59.2 89.5,-40.2 10.5,-40.2"/>
<polygon fill="none" stroke="#000000" points="10.5,-40.2 10.5,-59.2 89.5,-59.2 89.5,-40.2 10.5,-40.2"/>
<text text-anchor="start" x="13.5" y="-46.3" font-family="Helvetica,sans-Serif" font-size="11.00" fill="#000000">&lt; 0</text>
<polygon fill="#ffffff" stroke="transparent" points="89.5,-40.2 89.5,-59.2 160.5,-59.2 160.5,-40.2 89.5,-40.2"/>
<polygon fill="none" stroke="#000000" points="89.5,-40.2 89.5,-59.2 160.5,-59.2 160.5,-40.2 89.5,-40.2"/>
<text text-anchor="start" x="151.3862" y="-46.3" font-family="Helvetica,sans-Serif" font-size="11.00" fill="#000000"> &#160;</text>
<polygon fill="#ffffff" stroke="transparent" points="160.5,-40.2 160.5,-59.2 227.5,-59.2 227.5,-40.2 160.5,-40.2"/>
<polygon fill="none" stroke="#000000" points="160.5,-40.2 160.5,-59.2 227.5,-59.2 227.5,-40.2 160.5,-40.2"/>
<text text-anchor="start" x="208.9053" y="-46.3" font-family="Helvetica,sans-Serif" font-size="11.00" fill="#000000">0 &gt;</text>
<polygon fill="none" stroke="#000000" stroke-width="2" points="9,-39.2 9,-281.2 228,-281.2 228,-39.2 9,-39.2"/>
</a>
</g>
</g>
</g>
</svg>
