<?xml version="1.0" encoding="UTF-8" standalone="no"?>
<!DOCTYPE svg PUBLIC "-//W3C//DTD SVG 1.1//EN"
 "http://www.w3.org/Graphics/SVG/1.1/DTD/svg11.dtd">
<!-- Generated by graphviz version 2.40.1 (20161225.0304)
 -->
<!-- Title: oneDegreeRelationshipsDiagram Pages: 1 -->
<svg width="290pt" height="536pt"
 viewBox="0.00 0.00 290.00 536.20" xmlns="http://www.w3.org/2000/svg" xmlns:xlink="http://www.w3.org/1999/xlink">
<g id="graph0" class="graph" transform="scale(1 1) rotate(0) translate(4 532.2)">
<title>oneDegreeRelationshipsDiagram</title>
<polygon fill="#ffffff" stroke="transparent" points="-4,4 -4,-532.2 286,-532.2 286,4 -4,4"/>
<text text-anchor="middle" x="72.4936" y="-7.3" font-family="Helvetica,sans-Serif" font-size="11.00" fill="#000000">Generated by SchemaSpy</text>
<!-- modules -->
<g id="node1" class="node">
<title>modules</title>
<g id="a_node1"><a xlink:href="../../tables/modules.html" xlink:title="modules" target="_top">
<polygon fill="#ffffff" stroke="transparent" points="8,-38.2 8,-524.2 274,-524.2 274,-38.2 8,-38.2"/>
<polygon fill="#f5f5f5" stroke="transparent" points="10,-499.2 10,-522.2 272,-522.2 272,-499.2 10,-499.2"/>
<polygon fill="none" stroke="#000000" points="10,-499.2 10,-522.2 272,-522.2 272,-499.2 10,-499.2"/>
<text text-anchor="start" x="15" y="-507.8" font-family="Helvetica,sans-Serif" font-weight="bold" font-size="11.00" fill="#000000">modules</text>
<text text-anchor="start" x="237.0437" y="-507.3" font-family="Helvetica,sans-Serif" font-size="11.00" fill="#000000">[table]</text>
<polygon fill="none" stroke="#000000" points="10,-477.2 10,-499.2 189,-499.2 189,-477.2 10,-477.2"/>
<image xlink:href="../../images/primaryKeys.png" width="11px" height="12px" preserveAspectRatio="xMinYMin meet" x="15" y="-494.2"/>
<text text-anchor="start" x="30" y="-484.3" font-family="Helvetica,sans-Serif" font-size="11.00" fill="#000000">mod_id</text>
<polygon fill="none" stroke="#000000" points="189,-477.2 189,-499.2 272,-499.2 272,-477.2 189,-477.2"/>
<text text-anchor="start" x="192" y="-484.9" font-family="Helvetica,sans-Serif" font-size="11.00" fill="#000000">int[10]</text>
<polygon fill="none" stroke="#000000" points="10,-455.2 10,-477.2 189,-477.2 189,-455.2 10,-455.2"/>
<text text-anchor="start" x="30" y="-462.3" font-family="Helvetica,sans-Serif" font-size="11.00" fill="#000000">mod_name</text>
<polygon fill="none" stroke="#000000" points="189,-455.2 189,-477.2 272,-477.2 272,-455.2 189,-455.2"/>
<text text-anchor="start" x="192" y="-462.9" font-family="Helvetica,sans-Serif" font-size="11.00" fill="#000000">varchar[64]</text>
<polygon fill="none" stroke="#000000" points="10,-433.2 10,-455.2 189,-455.2 189,-433.2 10,-433.2"/>
<image xlink:href="../../images/primaryKeys.png" width="11px" height="12px" preserveAspectRatio="xMinYMin meet" x="15" y="-450.2"/>
<text text-anchor="start" x="30" y="-440.3" font-family="Helvetica,sans-Serif" font-size="11.00" fill="#000000">mod_directory</text>
<polygon fill="none" stroke="#000000" points="189,-433.2 189,-455.2 272,-455.2 272,-433.2 189,-433.2"/>
<text text-anchor="start" x="192" y="-440.9" font-family="Helvetica,sans-Serif" font-size="11.00" fill="#000000">varchar[64]</text>
<polygon fill="none" stroke="#000000" points="10,-411.2 10,-433.2 189,-433.2 189,-411.2 10,-411.2"/>
<text text-anchor="start" x="30" y="-418.3" font-family="Helvetica,sans-Serif" font-size="11.00" fill="#000000">mod_parent</text>
<polygon fill="none" stroke="#000000" points="189,-411.2 189,-433.2 272,-433.2 272,-411.2 189,-411.2"/>
<text text-anchor="start" x="192" y="-418.9" font-family="Helvetica,sans-Serif" font-size="11.00" fill="#000000">varchar[64]</text>
<polygon fill="none" stroke="#000000" points="10,-389.2 10,-411.2 189,-411.2 189,-389.2 10,-389.2"/>
<text text-anchor="start" x="30" y="-396.3" font-family="Helvetica,sans-Serif" font-size="11.00" fill="#000000">mod_type</text>
<polygon fill="none" stroke="#000000" points="189,-389.2 189,-411.2 272,-411.2 272,-389.2 189,-389.2"/>
<text text-anchor="start" x="192" y="-396.9" font-family="Helvetica,sans-Serif" font-size="11.00" fill="#000000">varchar[64]</text>
<polygon fill="none" stroke="#000000" points="10,-367.2 10,-389.2 189,-389.2 189,-367.2 10,-367.2"/>
<text text-anchor="start" x="30" y="-374.3" font-family="Helvetica,sans-Serif" font-size="11.00" fill="#000000">mod_active</text>
<polygon fill="none" stroke="#000000" points="189,-367.2 189,-389.2 272,-389.2 272,-367.2 189,-367.2"/>
<text text-anchor="start" x="191.6783" y="-374.9" font-family="Helvetica,sans-Serif" font-size="11.00" fill="#000000">int unsigned[10]</text>
<polygon fill="none" stroke="#000000" points="10,-345.2 10,-367.2 189,-367.2 189,-345.2 10,-345.2"/>
<text text-anchor="start" x="30" y="-352.3" font-family="Helvetica,sans-Serif" font-size="11.00" fill="#000000">mod_ui_name</text>
<polygon fill="none" stroke="#000000" points="189,-345.2 189,-367.2 272,-367.2 272,-345.2 189,-345.2"/>
<text text-anchor="start" x="192" y="-352.9" font-family="Helvetica,sans-Serif" font-size="11.00" fill="#000000">varchar[64]</text>
<polygon fill="none" stroke="#000000" points="10,-323.2 10,-345.2 189,-345.2 189,-323.2 10,-323.2"/>
<text text-anchor="start" x="30" y="-330.3" font-family="Helvetica,sans-Serif" font-size="11.00" fill="#000000">mod_relative_link</text>
<polygon fill="none" stroke="#000000" points="189,-323.2 189,-345.2 272,-345.2 272,-323.2 189,-323.2"/>
<text text-anchor="start" x="192" y="-330.9" font-family="Helvetica,sans-Serif" font-size="11.00" fill="#000000">varchar[64]</text>
<polygon fill="none" stroke="#000000" points="10,-301.2 10,-323.2 189,-323.2 189,-301.2 10,-301.2"/>
<text text-anchor="start" x="30" y="-308.3" font-family="Helvetica,sans-Serif" font-size="11.00" fill="#000000">mod_ui_order</text>
<polygon fill="none" stroke="#000000" points="189,-301.2 189,-323.2 272,-323.2 272,-301.2 189,-301.2"/>
<text text-anchor="start" x="192" y="-308.9" font-family="Helvetica,sans-Serif" font-size="11.00" fill="#000000">tinyint[3]</text>
<polygon fill="none" stroke="#000000" points="10,-279.2 10,-301.2 189,-301.2 189,-279.2 10,-279.2"/>
<text text-anchor="start" x="30" y="-286.3" font-family="Helvetica,sans-Serif" font-size="11.00" fill="#000000">mod_ui_active</text>
<polygon fill="none" stroke="#000000" points="189,-279.2 189,-301.2 272,-301.2 272,-279.2 189,-279.2"/>
<text text-anchor="start" x="191.6783" y="-286.9" font-family="Helvetica,sans-Serif" font-size="11.00" fill="#000000">int unsigned[10]</text>
<polygon fill="none" stroke="#000000" points="10,-257.2 10,-279.2 189,-279.2 189,-257.2 10,-257.2"/>
<text text-anchor="start" x="30" y="-264.3" font-family="Helvetica,sans-Serif" font-size="11.00" fill="#000000">mod_description</text>
<polygon fill="none" stroke="#000000" points="189,-257.2 189,-279.2 272,-279.2 272,-257.2 189,-257.2"/>
<text text-anchor="start" x="192" y="-264.9" font-family="Helvetica,sans-Serif" font-size="11.00" fill="#000000">varchar[255]</text>
<polygon fill="none" stroke="#000000" points="10,-235.2 10,-257.2 189,-257.2 189,-235.2 10,-235.2"/>
<text text-anchor="start" x="30" y="-242.3" font-family="Helvetica,sans-Serif" font-size="11.00" fill="#000000">mod_nick_name</text>
<polygon fill="none" stroke="#000000" points="189,-235.2 189,-257.2 272,-257.2 272,-235.2 189,-235.2"/>
<text text-anchor="start" x="192" y="-242.9" font-family="Helvetica,sans-Serif" font-size="11.00" fill="#000000">varchar[25]</text>
<polygon fill="none" stroke="#000000" points="10,-213.2 10,-235.2 189,-235.2 189,-213.2 10,-213.2"/>
<text text-anchor="start" x="30" y="-220.3" font-family="Helvetica,sans-Serif" font-size="11.00" fill="#000000">mod_enc_menu</text>
<polygon fill="none" stroke="#000000" points="189,-213.2 189,-235.2 272,-235.2 272,-213.2 189,-213.2"/>
<text text-anchor="start" x="192" y="-220.9" font-family="Helvetica,sans-Serif" font-size="11.00" fill="#000000">varchar[10]</text>
<polygon fill="none" stroke="#000000" points="10,-191.2 10,-213.2 189,-213.2 189,-191.2 10,-191.2"/>
<text text-anchor="start" x="30" y="-198.3" font-family="Helvetica,sans-Serif" font-size="11.00" fill="#000000">permissions_item_table</text>
<polygon fill="none" stroke="#000000" points="189,-191.2 189,-213.2 272,-213.2 272,-191.2 189,-191.2"/>
<text text-anchor="start" x="192" y="-198.9" font-family="Helvetica,sans-Serif" font-size="11.00" fill="#000000">char[100]</text>
<polygon fill="none" stroke="#000000" points="10,-169.2 10,-191.2 189,-191.2 189,-169.2 10,-169.2"/>
<text text-anchor="start" x="30" y="-176.3" font-family="Helvetica,sans-Serif" font-size="11.00" fill="#000000">directory</text>
<polygon fill="none" stroke="#000000" points="189,-169.2 189,-191.2 272,-191.2 272,-169.2 189,-169.2"/>
<text text-anchor="start" x="192" y="-176.9" font-family="Helvetica,sans-Serif" font-size="11.00" fill="#000000">varchar[255]</text>
<polygon fill="none" stroke="#000000" points="10,-147.2 10,-169.2 189,-169.2 189,-147.2 10,-147.2"/>
<text text-anchor="start" x="30" y="-154.3" font-family="Helvetica,sans-Serif" font-size="11.00" fill="#000000">date</text>
<polygon fill="none" stroke="#000000" points="189,-147.2 189,-169.2 272,-169.2 272,-147.2 189,-147.2"/>
<text text-anchor="start" x="192" y="-154.9" font-family="Helvetica,sans-Serif" font-size="11.00" fill="#000000">datetime[19]</text>
<polygon fill="none" stroke="#000000" points="10,-125.2 10,-147.2 189,-147.2 189,-125.2 10,-125.2"/>
<text text-anchor="start" x="30" y="-132.3" font-family="Helvetica,sans-Serif" font-size="11.00" fill="#000000">sql_run</text>
<polygon fill="none" stroke="#000000" points="189,-125.2 189,-147.2 272,-147.2 272,-125.2 189,-125.2"/>
<text text-anchor="start" x="192" y="-132.9" font-family="Helvetica,sans-Serif" font-size="11.00" fill="#000000">tinyint[3]</text>
<polygon fill="none" stroke="#000000" points="10,-103.2 10,-125.2 189,-125.2 189,-103.2 10,-103.2"/>
<text text-anchor="start" x="30" y="-110.3" font-family="Helvetica,sans-Serif" font-size="11.00" fill="#000000">type</text>
<polygon fill="none" stroke="#000000" points="189,-103.2 189,-125.2 272,-125.2 272,-103.2 189,-103.2"/>
<text text-anchor="start" x="192" y="-110.9" font-family="Helvetica,sans-Serif" font-size="11.00" fill="#000000">tinyint[3]</text>
<polygon fill="none" stroke="#000000" points="10,-81.2 10,-103.2 189,-103.2 189,-81.2 10,-81.2"/>
<text text-anchor="start" x="30" y="-88.3" font-family="Helvetica,sans-Serif" font-size="11.00" fill="#000000">sql_version</text>
<polygon fill="none" stroke="#000000" points="189,-81.2 189,-103.2 272,-103.2 272,-81.2 189,-81.2"/>
<text text-anchor="start" x="192" y="-88.9" font-family="Helvetica,sans-Serif" font-size="11.00" fill="#000000">varchar[150]</text>
<polygon fill="none" stroke="#000000" points="10,-59.2 10,-81.2 189,-81.2 189,-59.2 10,-59.2"/>
<text text-anchor="start" x="30" y="-66.3" font-family="Helvetica,sans-Serif" font-size="11.00" fill="#000000">acl_version</text>
<polygon fill="none" stroke="#000000" points="189,-59.2 189,-81.2 272,-81.2 272,-59.2 189,-59.2"/>
<text text-anchor="start" x="192" y="-66.9" font-family="Helvetica,sans-Serif" font-size="11.00" fill="#000000">varchar[150]</text>
<polygon fill="#ffffff" stroke="transparent" points="10,-40.2 10,-59.2 104,-59.2 104,-40.2 10,-40.2"/>
<polygon fill="none" stroke="#000000" points="10,-40.2 10,-59.2 104,-59.2 104,-40.2 10,-40.2"/>
<text text-anchor="start" x="13" y="-46.3" font-family="Helvetica,sans-Serif" font-size="11.00" fill="#000000">&lt; 0</text>
<polygon fill="#ffffff" stroke="transparent" points="104,-40.2 104,-59.2 189,-59.2 189,-40.2 104,-40.2"/>
<polygon fill="none" stroke="#000000" points="104,-40.2 104,-59.2 189,-59.2 189,-40.2 104,-40.2"/>
<text text-anchor="start" x="179.8862" y="-46.3" font-family="Helvetica,sans-Serif" font-size="11.00" fill="#000000"> &#160;</text>
<polygon fill="#ffffff" stroke="transparent" points="189,-40.2 189,-59.2 272,-59.2 272,-40.2 189,-40.2"/>
<polygon fill="none" stroke="#000000" points="189,-40.2 189,-59.2 272,-59.2 272,-40.2 189,-40.2"/>
<text text-anchor="start" x="253.4053" y="-46.3" font-family="Helvetica,sans-Serif" font-size="11.00" fill="#000000">0 &gt;</text>
<polygon fill="none" stroke="#000000" stroke-width="2" points="9,-39.2 9,-523.2 273,-523.2 273,-39.2 9,-39.2"/>
</a>
</g>
</g>
</g>
</svg>
