<?xml version="1.0" encoding="UTF-8" standalone="no"?>
<!DOCTYPE svg PUBLIC "-//W3C//DTD SVG 1.1//EN"
 "http://www.w3.org/Graphics/SVG/1.1/DTD/svg11.dtd">
<!-- Generated by graphviz version 2.40.1 (20161225.0304)
 -->
<!-- Title: oneDegreeRelationshipsDiagram Pages: 1 -->
<svg width="305pt" height="404pt"
 viewBox="0.00 0.00 305.00 404.20" xmlns="http://www.w3.org/2000/svg" xmlns:xlink="http://www.w3.org/1999/xlink">
<g id="graph0" class="graph" transform="scale(1 1) rotate(0) translate(4 400.2)">
<title>oneDegreeRelationshipsDiagram</title>
<polygon fill="#ffffff" stroke="transparent" points="-4,4 -4,-400.2 301,-400.2 301,4 -4,4"/>
<text text-anchor="middle" x="72.4936" y="-7.3" font-family="Helvetica,sans-Serif" font-size="11.00" fill="#000000">Generated by SchemaSpy</text>
<!-- onsite_portal_activity -->
<g id="node1" class="node">
<title>onsite_portal_activity</title>
<g id="a_node1"><a xlink:href="../../tables/onsite_portal_activity.html" xlink:title="onsite_portal_activity" target="_top">
<polygon fill="#ffffff" stroke="transparent" points="8,-38.2 8,-392.2 289,-392.2 289,-38.2 8,-38.2"/>
<polygon fill="#f5f5f5" stroke="transparent" points="10.5,-367.2 10.5,-390.2 287.5,-390.2 287.5,-367.2 10.5,-367.2"/>
<polygon fill="none" stroke="#000000" points="10.5,-367.2 10.5,-390.2 287.5,-390.2 287.5,-367.2 10.5,-367.2"/>
<text text-anchor="start" x="15.5" y="-375.8" font-family="Helvetica,sans-Serif" font-weight="bold" font-size="11.00" fill="#000000">onsite_portal_activity</text>
<text text-anchor="start" x="252.5437" y="-375.3" font-family="Helvetica,sans-Serif" font-size="11.00" fill="#000000">[table]</text>
<polygon fill="none" stroke="#000000" points="10.5,-345.2 10.5,-367.2 176.5,-367.2 176.5,-345.2 10.5,-345.2"/>
<image xlink:href="../../images/primaryKeys.png" width="11px" height="12px" preserveAspectRatio="xMinYMin meet" x="15.5" y="-362.2"/>
<text text-anchor="start" x="30.5" y="-352.3" font-family="Helvetica,sans-Serif" font-size="11.00" fill="#000000">id</text>
<polygon fill="none" stroke="#000000" points="176.5,-345.2 176.5,-367.2 287.5,-367.2 287.5,-345.2 176.5,-345.2"/>
<text text-anchor="start" x="179.5" y="-352.9" font-family="Helvetica,sans-Serif" font-size="11.00" fill="#000000">bigint[19]</text>
<polygon fill="#ffffff" stroke="transparent" points="10.5,-323.2 10.5,-345.2 176.5,-345.2 176.5,-323.2 10.5,-323.2"/>
<polygon fill="none" stroke="#000000" points="10.5,-323.2 10.5,-345.2 176.5,-345.2 176.5,-323.2 10.5,-323.2"/>
<text text-anchor="start" x="30.5" y="-330.3" font-family="Helvetica,sans-Serif" font-size="11.00" fill="#000000">date</text>
<polygon fill="none" stroke="#000000" points="176.5,-323.2 176.5,-345.2 287.5,-345.2 287.5,-323.2 176.5,-323.2"/>
<text text-anchor="start" x="179.5" y="-330.9" font-family="Helvetica,sans-Serif" font-size="11.00" fill="#000000">datetime[19]</text>
<polygon fill="none" stroke="#000000" points="10.5,-301.2 10.5,-323.2 176.5,-323.2 176.5,-301.2 10.5,-301.2"/>
<text text-anchor="start" x="30.5" y="-308.3" font-family="Helvetica,sans-Serif" font-size="11.00" fill="#000000">patient_id</text>
<polygon fill="none" stroke="#000000" points="176.5,-301.2 176.5,-323.2 287.5,-323.2 287.5,-301.2 176.5,-301.2"/>
<text text-anchor="start" x="179.5" y="-308.9" font-family="Helvetica,sans-Serif" font-size="11.00" fill="#000000">bigint[19]</text>
<polygon fill="none" stroke="#000000" points="10.5,-279.2 10.5,-301.2 176.5,-301.2 176.5,-279.2 10.5,-279.2"/>
<text text-anchor="start" x="30.5" y="-286.3" font-family="Helvetica,sans-Serif" font-size="11.00" fill="#000000">activity</text>
<polygon fill="none" stroke="#000000" points="176.5,-279.2 176.5,-301.2 287.5,-301.2 287.5,-279.2 176.5,-279.2"/>
<text text-anchor="start" x="179.5" y="-286.9" font-family="Helvetica,sans-Serif" font-size="11.00" fill="#000000">varchar[255]</text>
<polygon fill="none" stroke="#000000" points="10.5,-257.2 10.5,-279.2 176.5,-279.2 176.5,-257.2 10.5,-257.2"/>
<text text-anchor="start" x="30.5" y="-264.3" font-family="Helvetica,sans-Serif" font-size="11.00" fill="#000000">require_audit</text>
<polygon fill="none" stroke="#000000" points="176.5,-257.2 176.5,-279.2 287.5,-279.2 287.5,-257.2 176.5,-257.2"/>
<text text-anchor="start" x="179.5" y="-264.9" font-family="Helvetica,sans-Serif" font-size="11.00" fill="#000000">bit[1]</text>
<polygon fill="none" stroke="#000000" points="10.5,-235.2 10.5,-257.2 176.5,-257.2 176.5,-235.2 10.5,-235.2"/>
<text text-anchor="start" x="30.5" y="-242.3" font-family="Helvetica,sans-Serif" font-size="11.00" fill="#000000">pending_action</text>
<polygon fill="none" stroke="#000000" points="176.5,-235.2 176.5,-257.2 287.5,-257.2 287.5,-235.2 176.5,-235.2"/>
<text text-anchor="start" x="179.5" y="-242.9" font-family="Helvetica,sans-Serif" font-size="11.00" fill="#000000">varchar[255]</text>
<polygon fill="none" stroke="#000000" points="10.5,-213.2 10.5,-235.2 176.5,-235.2 176.5,-213.2 10.5,-213.2"/>
<text text-anchor="start" x="30.5" y="-220.3" font-family="Helvetica,sans-Serif" font-size="11.00" fill="#000000">action_taken</text>
<polygon fill="none" stroke="#000000" points="176.5,-213.2 176.5,-235.2 287.5,-235.2 287.5,-213.2 176.5,-213.2"/>
<text text-anchor="start" x="179.5" y="-220.9" font-family="Helvetica,sans-Serif" font-size="11.00" fill="#000000">varchar[255]</text>
<polygon fill="none" stroke="#000000" points="10.5,-191.2 10.5,-213.2 176.5,-213.2 176.5,-191.2 10.5,-191.2"/>
<text text-anchor="start" x="30.5" y="-198.3" font-family="Helvetica,sans-Serif" font-size="11.00" fill="#000000">status</text>
<polygon fill="none" stroke="#000000" points="176.5,-191.2 176.5,-213.2 287.5,-213.2 287.5,-191.2 176.5,-191.2"/>
<text text-anchor="start" x="179.5" y="-198.9" font-family="Helvetica,sans-Serif" font-size="11.00" fill="#000000">varchar[255]</text>
<polygon fill="none" stroke="#000000" points="10.5,-169.2 10.5,-191.2 176.5,-191.2 176.5,-169.2 10.5,-169.2"/>
<text text-anchor="start" x="30.5" y="-176.3" font-family="Helvetica,sans-Serif" font-size="11.00" fill="#000000">narrative</text>
<polygon fill="none" stroke="#000000" points="176.5,-169.2 176.5,-191.2 287.5,-191.2 287.5,-169.2 176.5,-169.2"/>
<text text-anchor="start" x="179.1115" y="-176.9" font-family="Helvetica,sans-Serif" font-size="11.00" fill="#000000">longtext[2147483647]</text>
<polygon fill="none" stroke="#000000" points="10.5,-147.2 10.5,-169.2 176.5,-169.2 176.5,-147.2 10.5,-147.2"/>
<text text-anchor="start" x="30.5" y="-154.3" font-family="Helvetica,sans-Serif" font-size="11.00" fill="#000000">table_action</text>
<polygon fill="none" stroke="#000000" points="176.5,-147.2 176.5,-169.2 287.5,-169.2 287.5,-147.2 176.5,-147.2"/>
<text text-anchor="start" x="179.1115" y="-154.9" font-family="Helvetica,sans-Serif" font-size="11.00" fill="#000000">longtext[2147483647]</text>
<polygon fill="none" stroke="#000000" points="10.5,-125.2 10.5,-147.2 176.5,-147.2 176.5,-125.2 10.5,-125.2"/>
<text text-anchor="start" x="30.5" y="-132.3" font-family="Helvetica,sans-Serif" font-size="11.00" fill="#000000">table_args</text>
<polygon fill="none" stroke="#000000" points="176.5,-125.2 176.5,-147.2 287.5,-147.2 287.5,-125.2 176.5,-125.2"/>
<text text-anchor="start" x="179.1115" y="-132.9" font-family="Helvetica,sans-Serif" font-size="11.00" fill="#000000">longtext[2147483647]</text>
<polygon fill="none" stroke="#000000" points="10.5,-103.2 10.5,-125.2 176.5,-125.2 176.5,-103.2 10.5,-103.2"/>
<text text-anchor="start" x="30.5" y="-110.3" font-family="Helvetica,sans-Serif" font-size="11.00" fill="#000000">action_user</text>
<polygon fill="none" stroke="#000000" points="176.5,-103.2 176.5,-125.2 287.5,-125.2 287.5,-103.2 176.5,-103.2"/>
<text text-anchor="start" x="179.5" y="-110.9" font-family="Helvetica,sans-Serif" font-size="11.00" fill="#000000">int[10]</text>
<polygon fill="none" stroke="#000000" points="10.5,-81.2 10.5,-103.2 176.5,-103.2 176.5,-81.2 10.5,-81.2"/>
<text text-anchor="start" x="30.5" y="-88.3" font-family="Helvetica,sans-Serif" font-size="11.00" fill="#000000">action_taken_time</text>
<polygon fill="none" stroke="#000000" points="176.5,-81.2 176.5,-103.2 287.5,-103.2 287.5,-81.2 176.5,-81.2"/>
<text text-anchor="start" x="179.5" y="-88.9" font-family="Helvetica,sans-Serif" font-size="11.00" fill="#000000">datetime[19]</text>
<polygon fill="none" stroke="#000000" points="10.5,-59.2 10.5,-81.2 176.5,-81.2 176.5,-59.2 10.5,-59.2"/>
<text text-anchor="start" x="30.5" y="-66.3" font-family="Helvetica,sans-Serif" font-size="11.00" fill="#000000">checksum</text>
<polygon fill="none" stroke="#000000" points="176.5,-59.2 176.5,-81.2 287.5,-81.2 287.5,-59.2 176.5,-59.2"/>
<text text-anchor="start" x="179.1115" y="-66.9" font-family="Helvetica,sans-Serif" font-size="11.00" fill="#000000">longtext[2147483647]</text>
<polygon fill="#ffffff" stroke="transparent" points="10.5,-40.2 10.5,-59.2 97.5,-59.2 97.5,-40.2 10.5,-40.2"/>
<polygon fill="none" stroke="#000000" points="10.5,-40.2 10.5,-59.2 97.5,-59.2 97.5,-40.2 10.5,-40.2"/>
<text text-anchor="start" x="13.5" y="-46.3" font-family="Helvetica,sans-Serif" font-size="11.00" fill="#000000">&lt; 0</text>
<polygon fill="#ffffff" stroke="transparent" points="97.5,-40.2 97.5,-59.2 176.5,-59.2 176.5,-40.2 97.5,-40.2"/>
<polygon fill="none" stroke="#000000" points="97.5,-40.2 97.5,-59.2 176.5,-59.2 176.5,-40.2 97.5,-40.2"/>
<text text-anchor="start" x="167.3862" y="-46.3" font-family="Helvetica,sans-Serif" font-size="11.00" fill="#000000"> &#160;</text>
<polygon fill="#ffffff" stroke="transparent" points="176.5,-40.2 176.5,-59.2 287.5,-59.2 287.5,-40.2 176.5,-40.2"/>
<polygon fill="none" stroke="#000000" points="176.5,-40.2 176.5,-59.2 287.5,-59.2 287.5,-40.2 176.5,-40.2"/>
<text text-anchor="start" x="268.9053" y="-46.3" font-family="Helvetica,sans-Serif" font-size="11.00" fill="#000000">0 &gt;</text>
<polygon fill="none" stroke="#000000" stroke-width="2" points="9,-39.2 9,-391.2 288,-391.2 288,-39.2 9,-39.2"/>
</a>
</g>
</g>
</g>
</svg>
