<?xml version="1.0" encoding="UTF-8" standalone="no"?>
<!DOCTYPE svg PUBLIC "-//W3C//DTD SVG 1.1//EN"
 "http://www.w3.org/Graphics/SVG/1.1/DTD/svg11.dtd">
<!-- Generated by graphviz version 2.40.1 (20161225.0304)
 -->
<!-- Title: oneDegreeRelationshipsDiagram Pages: 1 -->
<svg width="255pt" height="338pt"
 viewBox="0.00 0.00 255.00 338.20" xmlns="http://www.w3.org/2000/svg" xmlns:xlink="http://www.w3.org/1999/xlink">
<g id="graph0" class="graph" transform="scale(1 1) rotate(0) translate(4 334.2)">
<title>oneDegreeRelationshipsDiagram</title>
<polygon fill="#ffffff" stroke="transparent" points="-4,4 -4,-334.2 251,-334.2 251,4 -4,4"/>
<text text-anchor="middle" x="72.4936" y="-7.3" font-family="Helvetica,sans-Serif" font-size="11.00" fill="#000000">Generated by SchemaSpy</text>
<!-- openemr_modules -->
<g id="node1" class="node">
<title>openemr_modules</title>
<g id="a_node1"><a xlink:href="../../tables/openemr_modules.html" xlink:title="openemr_modules" target="_top">
<polygon fill="#ffffff" stroke="transparent" points="8,-38.2 8,-326.2 239,-326.2 239,-38.2 8,-38.2"/>
<polygon fill="#f5f5f5" stroke="transparent" points="10.5,-301.2 10.5,-324.2 237.5,-324.2 237.5,-301.2 10.5,-301.2"/>
<polygon fill="none" stroke="#000000" points="10.5,-301.2 10.5,-324.2 237.5,-324.2 237.5,-301.2 10.5,-301.2"/>
<text text-anchor="start" x="15.5" y="-309.8" font-family="Helvetica,sans-Serif" font-weight="bold" font-size="11.00" fill="#000000">openemr_modules</text>
<text text-anchor="start" x="202.5437" y="-309.3" font-family="Helvetica,sans-Serif" font-size="11.00" fill="#000000">[table]</text>
<polygon fill="none" stroke="#000000" points="10.5,-279.2 10.5,-301.2 154.5,-301.2 154.5,-279.2 10.5,-279.2"/>
<image xlink:href="../../images/primaryKeys.png" width="11px" height="12px" preserveAspectRatio="xMinYMin meet" x="15.5" y="-296.2"/>
<text text-anchor="start" x="30.5" y="-286.3" font-family="Helvetica,sans-Serif" font-size="11.00" fill="#000000">pn_id</text>
<polygon fill="none" stroke="#000000" points="154.5,-279.2 154.5,-301.2 237.5,-301.2 237.5,-279.2 154.5,-279.2"/>
<text text-anchor="start" x="157.1783" y="-286.9" font-family="Helvetica,sans-Serif" font-size="11.00" fill="#000000">int unsigned[10]</text>
<polygon fill="none" stroke="#000000" points="10.5,-257.2 10.5,-279.2 154.5,-279.2 154.5,-257.2 10.5,-257.2"/>
<text text-anchor="start" x="30.5" y="-264.3" font-family="Helvetica,sans-Serif" font-size="11.00" fill="#000000">pn_name</text>
<polygon fill="none" stroke="#000000" points="154.5,-257.2 154.5,-279.2 237.5,-279.2 237.5,-257.2 154.5,-257.2"/>
<text text-anchor="start" x="157.5" y="-264.9" font-family="Helvetica,sans-Serif" font-size="11.00" fill="#000000">varchar[64]</text>
<polygon fill="none" stroke="#000000" points="10.5,-235.2 10.5,-257.2 154.5,-257.2 154.5,-235.2 10.5,-235.2"/>
<text text-anchor="start" x="30.5" y="-242.3" font-family="Helvetica,sans-Serif" font-size="11.00" fill="#000000">pn_type</text>
<polygon fill="none" stroke="#000000" points="154.5,-235.2 154.5,-257.2 237.5,-257.2 237.5,-235.2 154.5,-235.2"/>
<text text-anchor="start" x="157.5" y="-242.9" font-family="Helvetica,sans-Serif" font-size="11.00" fill="#000000">int[10]</text>
<polygon fill="none" stroke="#000000" points="10.5,-213.2 10.5,-235.2 154.5,-235.2 154.5,-213.2 10.5,-213.2"/>
<text text-anchor="start" x="30.5" y="-220.3" font-family="Helvetica,sans-Serif" font-size="11.00" fill="#000000">pn_displayname</text>
<polygon fill="none" stroke="#000000" points="154.5,-213.2 154.5,-235.2 237.5,-235.2 237.5,-213.2 154.5,-213.2"/>
<text text-anchor="start" x="157.5" y="-220.9" font-family="Helvetica,sans-Serif" font-size="11.00" fill="#000000">varchar[64]</text>
<polygon fill="none" stroke="#000000" points="10.5,-191.2 10.5,-213.2 154.5,-213.2 154.5,-191.2 10.5,-191.2"/>
<text text-anchor="start" x="30.5" y="-198.3" font-family="Helvetica,sans-Serif" font-size="11.00" fill="#000000">pn_description</text>
<polygon fill="none" stroke="#000000" points="154.5,-191.2 154.5,-213.2 237.5,-213.2 237.5,-191.2 154.5,-191.2"/>
<text text-anchor="start" x="157.5" y="-198.9" font-family="Helvetica,sans-Serif" font-size="11.00" fill="#000000">varchar[255]</text>
<polygon fill="none" stroke="#000000" points="10.5,-169.2 10.5,-191.2 154.5,-191.2 154.5,-169.2 10.5,-169.2"/>
<text text-anchor="start" x="30.5" y="-176.3" font-family="Helvetica,sans-Serif" font-size="11.00" fill="#000000">pn_regid</text>
<polygon fill="none" stroke="#000000" points="154.5,-169.2 154.5,-191.2 237.5,-191.2 237.5,-169.2 154.5,-169.2"/>
<text text-anchor="start" x="157.1783" y="-176.9" font-family="Helvetica,sans-Serif" font-size="11.00" fill="#000000">int unsigned[10]</text>
<polygon fill="none" stroke="#000000" points="10.5,-147.2 10.5,-169.2 154.5,-169.2 154.5,-147.2 10.5,-147.2"/>
<text text-anchor="start" x="30.5" y="-154.3" font-family="Helvetica,sans-Serif" font-size="11.00" fill="#000000">pn_directory</text>
<polygon fill="none" stroke="#000000" points="154.5,-147.2 154.5,-169.2 237.5,-169.2 237.5,-147.2 154.5,-147.2"/>
<text text-anchor="start" x="157.5" y="-154.9" font-family="Helvetica,sans-Serif" font-size="11.00" fill="#000000">varchar[64]</text>
<polygon fill="none" stroke="#000000" points="10.5,-125.2 10.5,-147.2 154.5,-147.2 154.5,-125.2 10.5,-125.2"/>
<text text-anchor="start" x="30.5" y="-132.3" font-family="Helvetica,sans-Serif" font-size="11.00" fill="#000000">pn_version</text>
<polygon fill="none" stroke="#000000" points="154.5,-125.2 154.5,-147.2 237.5,-147.2 237.5,-125.2 154.5,-125.2"/>
<text text-anchor="start" x="157.5" y="-132.9" font-family="Helvetica,sans-Serif" font-size="11.00" fill="#000000">varchar[10]</text>
<polygon fill="none" stroke="#000000" points="10.5,-103.2 10.5,-125.2 154.5,-125.2 154.5,-103.2 10.5,-103.2"/>
<text text-anchor="start" x="30.5" y="-110.3" font-family="Helvetica,sans-Serif" font-size="11.00" fill="#000000">pn_admin_capable</text>
<polygon fill="none" stroke="#000000" points="154.5,-103.2 154.5,-125.2 237.5,-125.2 237.5,-103.2 154.5,-103.2"/>
<text text-anchor="start" x="157.5" y="-110.9" font-family="Helvetica,sans-Serif" font-size="11.00" fill="#000000">bit[1]</text>
<polygon fill="none" stroke="#000000" points="10.5,-81.2 10.5,-103.2 154.5,-103.2 154.5,-81.2 10.5,-81.2"/>
<text text-anchor="start" x="30.5" y="-88.3" font-family="Helvetica,sans-Serif" font-size="11.00" fill="#000000">pn_user_capable</text>
<polygon fill="none" stroke="#000000" points="154.5,-81.2 154.5,-103.2 237.5,-103.2 237.5,-81.2 154.5,-81.2"/>
<text text-anchor="start" x="157.5" y="-88.9" font-family="Helvetica,sans-Serif" font-size="11.00" fill="#000000">bit[1]</text>
<polygon fill="none" stroke="#000000" points="10.5,-59.2 10.5,-81.2 154.5,-81.2 154.5,-59.2 10.5,-59.2"/>
<text text-anchor="start" x="30.5" y="-66.3" font-family="Helvetica,sans-Serif" font-size="11.00" fill="#000000">pn_state</text>
<polygon fill="none" stroke="#000000" points="154.5,-59.2 154.5,-81.2 237.5,-81.2 237.5,-59.2 154.5,-59.2"/>
<text text-anchor="start" x="157.5" y="-66.9" font-family="Helvetica,sans-Serif" font-size="11.00" fill="#000000">bit[1]</text>
<polygon fill="#ffffff" stroke="transparent" points="10.5,-40.2 10.5,-59.2 86.5,-59.2 86.5,-40.2 10.5,-40.2"/>
<polygon fill="none" stroke="#000000" points="10.5,-40.2 10.5,-59.2 86.5,-59.2 86.5,-40.2 10.5,-40.2"/>
<text text-anchor="start" x="13.5" y="-46.3" font-family="Helvetica,sans-Serif" font-size="11.00" fill="#000000">&lt; 0</text>
<polygon fill="#ffffff" stroke="transparent" points="86.5,-40.2 86.5,-59.2 154.5,-59.2 154.5,-40.2 86.5,-40.2"/>
<polygon fill="none" stroke="#000000" points="86.5,-40.2 86.5,-59.2 154.5,-59.2 154.5,-40.2 86.5,-40.2"/>
<text text-anchor="start" x="145.3862" y="-46.3" font-family="Helvetica,sans-Serif" font-size="11.00" fill="#000000"> &#160;</text>
<polygon fill="#ffffff" stroke="transparent" points="154.5,-40.2 154.5,-59.2 237.5,-59.2 237.5,-40.2 154.5,-40.2"/>
<polygon fill="none" stroke="#000000" points="154.5,-40.2 154.5,-59.2 237.5,-59.2 237.5,-40.2 154.5,-40.2"/>
<text text-anchor="start" x="218.9053" y="-46.3" font-family="Helvetica,sans-Serif" font-size="11.00" fill="#000000">0 &gt;</text>
<polygon fill="none" stroke="#000000" stroke-width="2" points="9,-39.2 9,-325.2 238,-325.2 238,-39.2 9,-39.2"/>
</a>
</g>
</g>
</g>
</svg>
