<?xml version="1.0" encoding="UTF-8" standalone="no"?>
<!DOCTYPE svg PUBLIC "-//W3C//DTD SVG 1.1//EN"
 "http://www.w3.org/Graphics/SVG/1.1/DTD/svg11.dtd">
<!-- Generated by graphviz version 2.40.1 (20161225.0304)
 -->
<!-- Title: oneDegreeRelationshipsDiagram Pages: 1 -->
<svg width="269pt" height="272pt"
 viewBox="0.00 0.00 269.00 272.20" xmlns="http://www.w3.org/2000/svg" xmlns:xlink="http://www.w3.org/1999/xlink">
<g id="graph0" class="graph" transform="scale(1 1) rotate(0) translate(4 268.2)">
<title>oneDegreeRelationshipsDiagram</title>
<polygon fill="#ffffff" stroke="transparent" points="-4,4 -4,-268.2 265,-268.2 265,4 -4,4"/>
<text text-anchor="middle" x="72.4936" y="-7.3" font-family="Helvetica,sans-Serif" font-size="11.00" fill="#000000">Generated by SchemaSpy</text>
<!-- patient_access_onsite -->
<g id="node1" class="node">
<title>patient_access_onsite</title>
<g id="a_node1"><a xlink:href="../../tables/patient_access_onsite.html" xlink:title="patient_access_onsite" target="_top">
<polygon fill="#ffffff" stroke="transparent" points="8,-38.2 8,-260.2 253,-260.2 253,-38.2 8,-38.2"/>
<polygon fill="#f5f5f5" stroke="transparent" points="10.5,-235.2 10.5,-258.2 251.5,-258.2 251.5,-235.2 10.5,-235.2"/>
<polygon fill="none" stroke="#000000" points="10.5,-235.2 10.5,-258.2 251.5,-258.2 251.5,-235.2 10.5,-235.2"/>
<text text-anchor="start" x="15.5" y="-243.8" font-family="Helvetica,sans-Serif" font-weight="bold" font-size="11.00" fill="#000000">patient_access_onsite</text>
<text text-anchor="start" x="216.5437" y="-243.3" font-family="Helvetica,sans-Serif" font-size="11.00" fill="#000000">[table]</text>
<polygon fill="none" stroke="#000000" points="10.5,-213.2 10.5,-235.2 184.5,-235.2 184.5,-213.2 10.5,-213.2"/>
<image xlink:href="../../images/primaryKeys.png" width="11px" height="12px" preserveAspectRatio="xMinYMin meet" x="15.5" y="-230.2"/>
<text text-anchor="start" x="30.5" y="-220.3" font-family="Helvetica,sans-Serif" font-size="11.00" fill="#000000">id</text>
<polygon fill="none" stroke="#000000" points="184.5,-213.2 184.5,-235.2 251.5,-235.2 251.5,-213.2 184.5,-213.2"/>
<text text-anchor="start" x="187.5" y="-220.9" font-family="Helvetica,sans-Serif" font-size="11.00" fill="#000000">int[10]</text>
<polygon fill="#ffffff" stroke="transparent" points="10.5,-191.2 10.5,-213.2 184.5,-213.2 184.5,-191.2 10.5,-191.2"/>
<polygon fill="none" stroke="#000000" points="10.5,-191.2 10.5,-213.2 184.5,-213.2 184.5,-191.2 10.5,-191.2"/>
<text text-anchor="start" x="30.5" y="-198.3" font-family="Helvetica,sans-Serif" font-size="11.00" fill="#000000">pid</text>
<polygon fill="none" stroke="#000000" points="184.5,-191.2 184.5,-213.2 251.5,-213.2 251.5,-191.2 184.5,-191.2"/>
<text text-anchor="start" x="187.5" y="-198.9" font-family="Helvetica,sans-Serif" font-size="11.00" fill="#000000">bigint[19]</text>
<polygon fill="none" stroke="#000000" points="10.5,-169.2 10.5,-191.2 184.5,-191.2 184.5,-169.2 10.5,-169.2"/>
<text text-anchor="start" x="30.5" y="-176.3" font-family="Helvetica,sans-Serif" font-size="11.00" fill="#000000">portal_username</text>
<polygon fill="none" stroke="#000000" points="184.5,-169.2 184.5,-191.2 251.5,-191.2 251.5,-169.2 184.5,-169.2"/>
<text text-anchor="start" x="187.4365" y="-176.9" font-family="Helvetica,sans-Serif" font-size="11.00" fill="#000000">varchar[100]</text>
<polygon fill="none" stroke="#000000" points="10.5,-147.2 10.5,-169.2 184.5,-169.2 184.5,-147.2 10.5,-147.2"/>
<text text-anchor="start" x="30.5" y="-154.3" font-family="Helvetica,sans-Serif" font-size="11.00" fill="#000000">portal_pwd</text>
<polygon fill="none" stroke="#000000" points="184.5,-147.2 184.5,-169.2 251.5,-169.2 251.5,-147.2 184.5,-147.2"/>
<text text-anchor="start" x="187.4365" y="-154.9" font-family="Helvetica,sans-Serif" font-size="11.00" fill="#000000">varchar[255]</text>
<polygon fill="none" stroke="#000000" points="10.5,-125.2 10.5,-147.2 184.5,-147.2 184.5,-125.2 10.5,-125.2"/>
<text text-anchor="start" x="30.5" y="-132.3" font-family="Helvetica,sans-Serif" font-size="11.00" fill="#000000">portal_pwd_status</text>
<polygon fill="none" stroke="#000000" points="184.5,-125.2 184.5,-147.2 251.5,-147.2 251.5,-125.2 184.5,-125.2"/>
<text text-anchor="start" x="187.5" y="-132.9" font-family="Helvetica,sans-Serif" font-size="11.00" fill="#000000">tinyint[3]</text>
<polygon fill="none" stroke="#000000" points="10.5,-103.2 10.5,-125.2 184.5,-125.2 184.5,-103.2 10.5,-103.2"/>
<text text-anchor="start" x="30.5" y="-110.3" font-family="Helvetica,sans-Serif" font-size="11.00" fill="#000000">portal_login_username</text>
<polygon fill="none" stroke="#000000" points="184.5,-103.2 184.5,-125.2 251.5,-125.2 251.5,-103.2 184.5,-103.2"/>
<text text-anchor="start" x="187.4365" y="-110.9" font-family="Helvetica,sans-Serif" font-size="11.00" fill="#000000">varchar[100]</text>
<polygon fill="none" stroke="#000000" points="10.5,-81.2 10.5,-103.2 184.5,-103.2 184.5,-81.2 10.5,-81.2"/>
<text text-anchor="start" x="30.5" y="-88.3" font-family="Helvetica,sans-Serif" font-size="11.00" fill="#000000">portal_onetime</text>
<polygon fill="none" stroke="#000000" points="184.5,-81.2 184.5,-103.2 251.5,-103.2 251.5,-81.2 184.5,-81.2"/>
<text text-anchor="start" x="187.4365" y="-88.9" font-family="Helvetica,sans-Serif" font-size="11.00" fill="#000000">varchar[255]</text>
<polygon fill="none" stroke="#000000" points="10.5,-59.2 10.5,-81.2 184.5,-81.2 184.5,-59.2 10.5,-59.2"/>
<text text-anchor="start" x="30.5" y="-66.3" font-family="Helvetica,sans-Serif" font-size="11.00" fill="#000000">date_created</text>
<polygon fill="none" stroke="#000000" points="184.5,-59.2 184.5,-81.2 251.5,-81.2 251.5,-59.2 184.5,-59.2"/>
<text text-anchor="start" x="187.5" y="-66.9" font-family="Helvetica,sans-Serif" font-size="11.00" fill="#000000">datetime[19]</text>
<polygon fill="#ffffff" stroke="transparent" points="10.5,-40.2 10.5,-59.2 101.5,-59.2 101.5,-40.2 10.5,-40.2"/>
<polygon fill="none" stroke="#000000" points="10.5,-40.2 10.5,-59.2 101.5,-59.2 101.5,-40.2 10.5,-40.2"/>
<text text-anchor="start" x="13.5" y="-46.3" font-family="Helvetica,sans-Serif" font-size="11.00" fill="#000000">&lt; 0</text>
<polygon fill="#ffffff" stroke="transparent" points="101.5,-40.2 101.5,-59.2 184.5,-59.2 184.5,-40.2 101.5,-40.2"/>
<polygon fill="none" stroke="#000000" points="101.5,-40.2 101.5,-59.2 184.5,-59.2 184.5,-40.2 101.5,-40.2"/>
<text text-anchor="start" x="175.3862" y="-46.3" font-family="Helvetica,sans-Serif" font-size="11.00" fill="#000000"> &#160;</text>
<polygon fill="#ffffff" stroke="transparent" points="184.5,-40.2 184.5,-59.2 251.5,-59.2 251.5,-40.2 184.5,-40.2"/>
<polygon fill="none" stroke="#000000" points="184.5,-40.2 184.5,-59.2 251.5,-59.2 251.5,-40.2 184.5,-40.2"/>
<text text-anchor="start" x="232.9053" y="-46.3" font-family="Helvetica,sans-Serif" font-size="11.00" fill="#000000">0 &gt;</text>
<polygon fill="none" stroke="#000000" stroke-width="2" points="9,-39.2 9,-259.2 252,-259.2 252,-39.2 9,-39.2"/>
</a>
</g>
</g>
</g>
</svg>
