<?xml version="1.0" encoding="UTF-8" standalone="no"?>
<!DOCTYPE svg PUBLIC "-//W3C//DTD SVG 1.1//EN"
 "http://www.w3.org/Graphics/SVG/1.1/DTD/svg11.dtd">
<!-- Generated by graphviz version 2.40.1 (20161225.0304)
 -->
<!-- Title: oneDegreeRelationshipsDiagram Pages: 1 -->
<svg width="496pt" height="448pt"
 viewBox="0.00 0.00 496.00 448.20" xmlns="http://www.w3.org/2000/svg" xmlns:xlink="http://www.w3.org/1999/xlink">
<g id="graph0" class="graph" transform="scale(1 1) rotate(0) translate(4 444.2)">
<title>oneDegreeRelationshipsDiagram</title>
<polygon fill="#ffffff" stroke="transparent" points="-4,4 -4,-444.2 492,-444.2 492,4 -4,4"/>
<text text-anchor="middle" x="72.4936" y="-7.3" font-family="Helvetica,sans-Serif" font-size="11.00" fill="#000000">Generated by SchemaSpy</text>
<!-- pnotes -->
<g id="node1" class="node">
<title>pnotes</title>
<g id="a_node1"><a xlink:href="../../tables/pnotes.html" xlink:title="pnotes" target="_top">
<polygon fill="#ffffff" stroke="transparent" points="224,-38.2 224,-436.2 480,-436.2 480,-38.2 224,-38.2"/>
<polygon fill="#f5f5f5" stroke="transparent" points="226,-411.2 226,-434.2 478,-434.2 478,-411.2 226,-411.2"/>
<polygon fill="none" stroke="#000000" points="226,-411.2 226,-434.2 478,-434.2 478,-411.2 226,-411.2"/>
<text text-anchor="start" x="231" y="-419.8" font-family="Helvetica,sans-Serif" font-weight="bold" font-size="11.00" fill="#000000">pnotes</text>
<text text-anchor="start" x="443.0437" y="-419.3" font-family="Helvetica,sans-Serif" font-size="11.00" fill="#000000">[table]</text>
<polygon fill="none" stroke="#000000" points="226,-389.2 226,-411.2 367,-411.2 367,-389.2 226,-389.2"/>
<image xlink:href="../../images/primaryKeys.png" width="11px" height="12px" preserveAspectRatio="xMinYMin meet" x="231" y="-406.2"/>
<text text-anchor="start" x="246" y="-396.3" font-family="Helvetica,sans-Serif" font-size="11.00" fill="#000000">id</text>
<polygon fill="none" stroke="#000000" points="367,-389.2 367,-411.2 478,-411.2 478,-389.2 367,-389.2"/>
<text text-anchor="start" x="370" y="-396.9" font-family="Helvetica,sans-Serif" font-size="11.00" fill="#000000">bigint[19]</text>
<polygon fill="none" stroke="#000000" points="226,-367.2 226,-389.2 367,-389.2 367,-367.2 226,-367.2"/>
<text text-anchor="start" x="246" y="-374.3" font-family="Helvetica,sans-Serif" font-size="11.00" fill="#000000">date</text>
<polygon fill="none" stroke="#000000" points="367,-367.2 367,-389.2 478,-389.2 478,-367.2 367,-367.2"/>
<text text-anchor="start" x="370" y="-374.9" font-family="Helvetica,sans-Serif" font-size="11.00" fill="#000000">datetime[19]</text>
<polygon fill="none" stroke="#000000" points="226,-345.2 226,-367.2 367,-367.2 367,-345.2 226,-345.2"/>
<text text-anchor="start" x="246" y="-352.3" font-family="Helvetica,sans-Serif" font-size="11.00" fill="#000000">body</text>
<polygon fill="none" stroke="#000000" points="367,-345.2 367,-367.2 478,-367.2 478,-345.2 367,-345.2"/>
<text text-anchor="start" x="369.6115" y="-352.9" font-family="Helvetica,sans-Serif" font-size="11.00" fill="#000000">longtext[2147483647]</text>
<polygon fill="#ffffff" stroke="transparent" points="226,-323.2 226,-345.2 367,-345.2 367,-323.2 226,-323.2"/>
<polygon fill="none" stroke="#000000" points="226,-323.2 226,-345.2 367,-345.2 367,-323.2 226,-323.2"/>
<image xlink:href="../../images/foreignKeys.png" width="11px" height="12px" preserveAspectRatio="xMinYMin meet" x="231" y="-340.2"/>
<text text-anchor="start" x="246" y="-330.3" font-family="Helvetica,sans-Serif" font-size="11.00" fill="#000000">pid</text>
<polygon fill="none" stroke="#000000" points="367,-323.2 367,-345.2 478,-345.2 478,-323.2 367,-323.2"/>
<text text-anchor="start" x="370" y="-330.9" font-family="Helvetica,sans-Serif" font-size="11.00" fill="#000000">bigint[19]</text>
<polygon fill="none" stroke="#000000" points="226,-301.2 226,-323.2 367,-323.2 367,-301.2 226,-301.2"/>
<text text-anchor="start" x="246" y="-308.3" font-family="Helvetica,sans-Serif" font-size="11.00" fill="#000000">user</text>
<polygon fill="none" stroke="#000000" points="367,-301.2 367,-323.2 478,-323.2 478,-301.2 367,-301.2"/>
<text text-anchor="start" x="370" y="-308.9" font-family="Helvetica,sans-Serif" font-size="11.00" fill="#000000">varchar[255]</text>
<polygon fill="none" stroke="#000000" points="226,-279.2 226,-301.2 367,-301.2 367,-279.2 226,-279.2"/>
<text text-anchor="start" x="246" y="-286.3" font-family="Helvetica,sans-Serif" font-size="11.00" fill="#000000">groupname</text>
<polygon fill="none" stroke="#000000" points="367,-279.2 367,-301.2 478,-301.2 478,-279.2 367,-279.2"/>
<text text-anchor="start" x="370" y="-286.9" font-family="Helvetica,sans-Serif" font-size="11.00" fill="#000000">varchar[255]</text>
<polygon fill="none" stroke="#000000" points="226,-257.2 226,-279.2 367,-279.2 367,-257.2 226,-257.2"/>
<text text-anchor="start" x="246" y="-264.3" font-family="Helvetica,sans-Serif" font-size="11.00" fill="#000000">activity</text>
<polygon fill="none" stroke="#000000" points="367,-257.2 367,-279.2 478,-279.2 478,-257.2 367,-257.2"/>
<text text-anchor="start" x="370" y="-264.9" font-family="Helvetica,sans-Serif" font-size="11.00" fill="#000000">tinyint[3]</text>
<polygon fill="none" stroke="#000000" points="226,-235.2 226,-257.2 367,-257.2 367,-235.2 226,-235.2"/>
<text text-anchor="start" x="246" y="-242.3" font-family="Helvetica,sans-Serif" font-size="11.00" fill="#000000">authorized</text>
<polygon fill="none" stroke="#000000" points="367,-235.2 367,-257.2 478,-257.2 478,-235.2 367,-235.2"/>
<text text-anchor="start" x="370" y="-242.9" font-family="Helvetica,sans-Serif" font-size="11.00" fill="#000000">tinyint[3]</text>
<polygon fill="none" stroke="#000000" points="226,-213.2 226,-235.2 367,-235.2 367,-213.2 226,-213.2"/>
<text text-anchor="start" x="246" y="-220.3" font-family="Helvetica,sans-Serif" font-size="11.00" fill="#000000">title</text>
<polygon fill="none" stroke="#000000" points="367,-213.2 367,-235.2 478,-235.2 478,-213.2 367,-213.2"/>
<text text-anchor="start" x="370" y="-220.9" font-family="Helvetica,sans-Serif" font-size="11.00" fill="#000000">varchar[255]</text>
<polygon fill="none" stroke="#000000" points="226,-191.2 226,-213.2 367,-213.2 367,-191.2 226,-191.2"/>
<text text-anchor="start" x="246" y="-198.3" font-family="Helvetica,sans-Serif" font-size="11.00" fill="#000000">assigned_to</text>
<polygon fill="none" stroke="#000000" points="367,-191.2 367,-213.2 478,-213.2 478,-191.2 367,-191.2"/>
<text text-anchor="start" x="370" y="-198.9" font-family="Helvetica,sans-Serif" font-size="11.00" fill="#000000">varchar[255]</text>
<polygon fill="none" stroke="#000000" points="226,-169.2 226,-191.2 367,-191.2 367,-169.2 226,-169.2"/>
<text text-anchor="start" x="246" y="-176.3" font-family="Helvetica,sans-Serif" font-size="11.00" fill="#000000">deleted</text>
<polygon fill="none" stroke="#000000" points="367,-169.2 367,-191.2 478,-191.2 478,-169.2 367,-169.2"/>
<text text-anchor="start" x="370" y="-176.9" font-family="Helvetica,sans-Serif" font-size="11.00" fill="#000000">tinyint[3]</text>
<polygon fill="none" stroke="#000000" points="226,-147.2 226,-169.2 367,-169.2 367,-147.2 226,-147.2"/>
<text text-anchor="start" x="246" y="-154.3" font-family="Helvetica,sans-Serif" font-size="11.00" fill="#000000">message_status</text>
<polygon fill="none" stroke="#000000" points="367,-147.2 367,-169.2 478,-169.2 478,-147.2 367,-147.2"/>
<text text-anchor="start" x="370" y="-154.9" font-family="Helvetica,sans-Serif" font-size="11.00" fill="#000000">varchar[20]</text>
<polygon fill="none" stroke="#000000" points="226,-125.2 226,-147.2 367,-147.2 367,-125.2 226,-125.2"/>
<text text-anchor="start" x="246" y="-132.3" font-family="Helvetica,sans-Serif" font-size="11.00" fill="#000000">portal_relation</text>
<polygon fill="none" stroke="#000000" points="367,-125.2 367,-147.2 478,-147.2 478,-125.2 367,-125.2"/>
<text text-anchor="start" x="370" y="-132.9" font-family="Helvetica,sans-Serif" font-size="11.00" fill="#000000">varchar[100]</text>
<polygon fill="none" stroke="#000000" points="226,-103.2 226,-125.2 367,-125.2 367,-103.2 226,-103.2"/>
<text text-anchor="start" x="246" y="-110.3" font-family="Helvetica,sans-Serif" font-size="11.00" fill="#000000">is_msg_encrypted</text>
<polygon fill="none" stroke="#000000" points="367,-103.2 367,-125.2 478,-125.2 478,-103.2 367,-103.2"/>
<text text-anchor="start" x="370" y="-110.9" font-family="Helvetica,sans-Serif" font-size="11.00" fill="#000000">tinyint[3]</text>
<polygon fill="none" stroke="#000000" points="226,-81.2 226,-103.2 367,-103.2 367,-81.2 226,-81.2"/>
<text text-anchor="start" x="246" y="-88.3" font-family="Helvetica,sans-Serif" font-size="11.00" fill="#000000">update_by</text>
<polygon fill="none" stroke="#000000" points="367,-81.2 367,-103.2 478,-103.2 478,-81.2 367,-81.2"/>
<text text-anchor="start" x="370" y="-88.9" font-family="Helvetica,sans-Serif" font-size="11.00" fill="#000000">bigint[19]</text>
<polygon fill="none" stroke="#000000" points="226,-59.2 226,-81.2 367,-81.2 367,-59.2 226,-59.2"/>
<text text-anchor="start" x="246" y="-66.3" font-family="Helvetica,sans-Serif" font-size="11.00" fill="#000000">update_date</text>
<polygon fill="none" stroke="#000000" points="367,-59.2 367,-81.2 478,-81.2 478,-59.2 367,-59.2"/>
<text text-anchor="start" x="370" y="-66.9" font-family="Helvetica,sans-Serif" font-size="11.00" fill="#000000">datetime[19]</text>
<polygon fill="#ffffff" stroke="transparent" points="226,-40.2 226,-59.2 301,-59.2 301,-40.2 226,-40.2"/>
<polygon fill="none" stroke="#000000" points="226,-40.2 226,-59.2 301,-59.2 301,-40.2 226,-40.2"/>
<text text-anchor="start" x="229" y="-46.3" font-family="Helvetica,sans-Serif" font-size="11.00" fill="#000000">&lt; 1</text>
<polygon fill="#ffffff" stroke="transparent" points="301,-40.2 301,-59.2 367,-59.2 367,-40.2 301,-40.2"/>
<polygon fill="none" stroke="#000000" points="301,-40.2 301,-59.2 367,-59.2 367,-40.2 301,-40.2"/>
<text text-anchor="start" x="357.8862" y="-46.3" font-family="Helvetica,sans-Serif" font-size="11.00" fill="#000000"> &#160;</text>
<polygon fill="#ffffff" stroke="transparent" points="367,-40.2 367,-59.2 478,-59.2 478,-40.2 367,-40.2"/>
<polygon fill="none" stroke="#000000" points="367,-40.2 367,-59.2 478,-59.2 478,-40.2 367,-40.2"/>
<text text-anchor="start" x="459.4053" y="-46.3" font-family="Helvetica,sans-Serif" font-size="11.00" fill="#000000">0 &gt;</text>
<polygon fill="none" stroke="#000000" stroke-width="2" points="225,-39.2 225,-435.2 479,-435.2 479,-39.2 225,-39.2"/>
</a>
</g>
</g>
<!-- patient_data -->
<g id="node2" class="node">
<title>patient_data</title>
<g id="a_node2"><a xlink:href="../../tables/patient_data.html" xlink:title="patient_data" target="_top">
<polygon fill="#ffffff" stroke="transparent" points="8,-285.7 8,-412.7 175,-412.7 175,-285.7 8,-285.7"/>
<polygon fill="#f5f5f5" stroke="transparent" points="8.5,-389.2 8.5,-412.2 175.5,-412.2 175.5,-389.2 8.5,-389.2"/>
<polygon fill="none" stroke="#000000" points="8.5,-389.2 8.5,-412.2 175.5,-412.2 175.5,-389.2 8.5,-389.2"/>
<text text-anchor="start" x="13.5" y="-397.8" font-family="Helvetica,sans-Serif" font-weight="bold" font-size="11.00" fill="#000000">patient_data</text>
<text text-anchor="start" x="140.5437" y="-397.3" font-family="Helvetica,sans-Serif" font-size="11.00" fill="#000000">[table]</text>
<polygon fill="#ffffff" stroke="transparent" points="8.5,-367.2 8.5,-389.2 175.5,-389.2 175.5,-367.2 8.5,-367.2"/>
<polygon fill="none" stroke="#000000" points="8.5,-367.2 8.5,-389.2 175.5,-389.2 175.5,-367.2 8.5,-367.2"/>
<text text-anchor="start" x="28.5" y="-374.3" font-family="Helvetica,sans-Serif" font-size="11.00" fill="#000000">id</text>
<polygon fill="#ffffff" stroke="transparent" points="8.5,-345.2 8.5,-367.2 175.5,-367.2 175.5,-345.2 8.5,-345.2"/>
<polygon fill="none" stroke="#000000" points="8.5,-345.2 8.5,-367.2 175.5,-367.2 175.5,-345.2 8.5,-345.2"/>
<text text-anchor="start" x="28.5" y="-352.3" font-family="Helvetica,sans-Serif" font-size="11.00" fill="#000000">uuid</text>
<polygon fill="none" stroke="#000000" points="8.5,-323.2 8.5,-345.2 175.5,-345.2 175.5,-323.2 8.5,-323.2"/>
<image xlink:href="../../images/primaryKeys.png" width="11px" height="12px" preserveAspectRatio="xMinYMin meet" x="13.5" y="-340.2"/>
<text text-anchor="start" x="28.5" y="-330.3" font-family="Helvetica,sans-Serif" font-size="11.00" fill="#000000">pid</text>
<polygon fill="none" stroke="#000000" points="8.5,-304.2 8.5,-323.2 175.5,-323.2 175.5,-304.2 8.5,-304.2"/>
<text text-anchor="start" x="11.5" y="-310.3" font-family="Helvetica,sans-Serif" font-size="11.00" fill="#000000">...</text>
<polygon fill="#ffffff" stroke="transparent" points="8.5,-285.2 8.5,-304.2 78.5,-304.2 78.5,-285.2 8.5,-285.2"/>
<polygon fill="none" stroke="#000000" points="8.5,-285.2 8.5,-304.2 78.5,-304.2 78.5,-285.2 8.5,-285.2"/>
<text text-anchor="start" x="11.5" y="-291.3" font-family="Helvetica,sans-Serif" font-size="11.00" fill="#000000"> &#160;</text>
<polygon fill="#ffffff" stroke="transparent" points="78.5,-285.2 78.5,-304.2 119.5,-304.2 119.5,-285.2 78.5,-285.2"/>
<polygon fill="none" stroke="#000000" points="78.5,-285.2 78.5,-304.2 119.5,-304.2 119.5,-285.2 78.5,-285.2"/>
<text text-anchor="start" x="110.3862" y="-291.3" font-family="Helvetica,sans-Serif" font-size="11.00" fill="#000000"> &#160;</text>
<polygon fill="#ffffff" stroke="transparent" points="119.5,-285.2 119.5,-304.2 175.5,-304.2 175.5,-285.2 119.5,-285.2"/>
<polygon fill="none" stroke="#000000" points="119.5,-285.2 119.5,-304.2 175.5,-304.2 175.5,-285.2 119.5,-285.2"/>
<text text-anchor="start" x="150.7904" y="-291.3" font-family="Helvetica,sans-Serif" font-size="11.00" fill="#000000">58 &gt;</text>
</a>
</g>
</g>
<!-- pnotes&#45;&gt;patient_data -->
<g id="edge1" class="edge">
<title>pnotes:w&#45;&gt;patient_data:e</title>
<path fill="none" stroke="#000000" d="M211.4203,-334.2C199.5435,-334.2 192.158,-334.2 175.5,-334.2"/>
<polygon fill="#000000" stroke="#000000" points="218,-334.2001 226,-337.8 222,-334.2 226,-334.2 226,-334.2 226,-334.2 222,-334.2 226,-330.6 218,-334.2001 218,-334.2001"/>
<ellipse fill="none" stroke="#000000" cx="214.8" cy="-334.2001" rx="3.2" ry="3.2"/>
</g>
</g>
</svg>
