<?xml version="1.0" encoding="UTF-8" standalone="no"?>
<!DOCTYPE svg PUBLIC "-//W3C//DTD SVG 1.1//EN"
 "http://www.w3.org/Graphics/SVG/1.1/DTD/svg11.dtd">
<!-- Generated by graphviz version 2.40.1 (20161225.0304)
 -->
<!-- Title: oneDegreeRelationshipsDiagram Pages: 1 -->
<svg width="266pt" height="448pt"
 viewBox="0.00 0.00 266.00 448.20" xmlns="http://www.w3.org/2000/svg" xmlns:xlink="http://www.w3.org/1999/xlink">
<g id="graph0" class="graph" transform="scale(1 1) rotate(0) translate(4 444.2)">
<title>oneDegreeRelationshipsDiagram</title>
<polygon fill="#ffffff" stroke="transparent" points="-4,4 -4,-444.2 262,-444.2 262,4 -4,4"/>
<text text-anchor="middle" x="72.4936" y="-7.3" font-family="Helvetica,sans-Serif" font-size="11.00" fill="#000000">Generated by SchemaSpy</text>
<!-- procedure_order_code -->
<g id="node1" class="node">
<title>procedure_order_code</title>
<g id="a_node1"><a xlink:href="../../tables/procedure_order_code.html" xlink:title="procedure_order_code" target="_top">
<polygon fill="#ffffff" stroke="transparent" points="8,-38.2 8,-436.2 250,-436.2 250,-38.2 8,-38.2"/>
<polygon fill="#f5f5f5" stroke="transparent" points="10,-411.2 10,-434.2 248,-434.2 248,-411.2 10,-411.2"/>
<polygon fill="none" stroke="#000000" points="10,-411.2 10,-434.2 248,-434.2 248,-411.2 10,-411.2"/>
<text text-anchor="start" x="15" y="-419.8" font-family="Helvetica,sans-Serif" font-weight="bold" font-size="11.00" fill="#000000">procedure_order_code</text>
<text text-anchor="start" x="213.0437" y="-419.3" font-family="Helvetica,sans-Serif" font-size="11.00" fill="#000000">[table]</text>
<polygon fill="none" stroke="#000000" points="10,-389.2 10,-411.2 181,-411.2 181,-389.2 10,-389.2"/>
<image xlink:href="../../images/primaryKeys.png" width="11px" height="12px" preserveAspectRatio="xMinYMin meet" x="15" y="-406.2"/>
<text text-anchor="start" x="30" y="-396.3" font-family="Helvetica,sans-Serif" font-size="11.00" fill="#000000">procedure_order_id</text>
<polygon fill="none" stroke="#000000" points="181,-389.2 181,-411.2 248,-411.2 248,-389.2 181,-389.2"/>
<text text-anchor="start" x="184" y="-396.9" font-family="Helvetica,sans-Serif" font-size="11.00" fill="#000000">bigint[19]</text>
<polygon fill="none" stroke="#000000" points="10,-367.2 10,-389.2 181,-389.2 181,-367.2 10,-367.2"/>
<image xlink:href="../../images/primaryKeys.png" width="11px" height="12px" preserveAspectRatio="xMinYMin meet" x="15" y="-384.2"/>
<text text-anchor="start" x="30" y="-374.3" font-family="Helvetica,sans-Serif" font-size="11.00" fill="#000000">procedure_order_seq</text>
<polygon fill="none" stroke="#000000" points="181,-367.2 181,-389.2 248,-389.2 248,-367.2 181,-367.2"/>
<text text-anchor="start" x="184" y="-374.9" font-family="Helvetica,sans-Serif" font-size="11.00" fill="#000000">int[10]</text>
<polygon fill="none" stroke="#000000" points="10,-345.2 10,-367.2 181,-367.2 181,-345.2 10,-345.2"/>
<text text-anchor="start" x="30" y="-352.3" font-family="Helvetica,sans-Serif" font-size="11.00" fill="#000000">procedure_code</text>
<polygon fill="none" stroke="#000000" points="181,-345.2 181,-367.2 248,-367.2 248,-345.2 181,-345.2"/>
<text text-anchor="start" x="184" y="-352.9" font-family="Helvetica,sans-Serif" font-size="11.00" fill="#000000">varchar[64]</text>
<polygon fill="none" stroke="#000000" points="10,-323.2 10,-345.2 181,-345.2 181,-323.2 10,-323.2"/>
<text text-anchor="start" x="30" y="-330.3" font-family="Helvetica,sans-Serif" font-size="11.00" fill="#000000">procedure_name</text>
<polygon fill="none" stroke="#000000" points="181,-323.2 181,-345.2 248,-345.2 248,-323.2 181,-323.2"/>
<text text-anchor="start" x="183.9365" y="-330.9" font-family="Helvetica,sans-Serif" font-size="11.00" fill="#000000">varchar[255]</text>
<polygon fill="none" stroke="#000000" points="10,-301.2 10,-323.2 181,-323.2 181,-301.2 10,-301.2"/>
<text text-anchor="start" x="30" y="-308.3" font-family="Helvetica,sans-Serif" font-size="11.00" fill="#000000">procedure_source</text>
<polygon fill="none" stroke="#000000" points="181,-301.2 181,-323.2 248,-323.2 248,-301.2 181,-301.2"/>
<text text-anchor="start" x="184" y="-308.9" font-family="Helvetica,sans-Serif" font-size="11.00" fill="#000000">char[1]</text>
<polygon fill="none" stroke="#000000" points="10,-279.2 10,-301.2 181,-301.2 181,-279.2 10,-279.2"/>
<text text-anchor="start" x="30" y="-286.3" font-family="Helvetica,sans-Serif" font-size="11.00" fill="#000000">diagnoses</text>
<polygon fill="none" stroke="#000000" points="181,-279.2 181,-301.2 248,-301.2 248,-279.2 181,-279.2"/>
<text text-anchor="start" x="184" y="-286.9" font-family="Helvetica,sans-Serif" font-size="11.00" fill="#000000">text[65535]</text>
<polygon fill="none" stroke="#000000" points="10,-257.2 10,-279.2 181,-279.2 181,-257.2 10,-257.2"/>
<text text-anchor="start" x="30" y="-264.3" font-family="Helvetica,sans-Serif" font-size="11.00" fill="#000000">do_not_send</text>
<polygon fill="none" stroke="#000000" points="181,-257.2 181,-279.2 248,-279.2 248,-257.2 181,-257.2"/>
<text text-anchor="start" x="184" y="-264.9" font-family="Helvetica,sans-Serif" font-size="11.00" fill="#000000">bit[1]</text>
<polygon fill="none" stroke="#000000" points="10,-235.2 10,-257.2 181,-257.2 181,-235.2 10,-235.2"/>
<text text-anchor="start" x="30" y="-242.3" font-family="Helvetica,sans-Serif" font-size="11.00" fill="#000000">procedure_order_title</text>
<polygon fill="none" stroke="#000000" points="181,-235.2 181,-257.2 248,-257.2 248,-235.2 181,-235.2"/>
<text text-anchor="start" x="183.9365" y="-242.9" font-family="Helvetica,sans-Serif" font-size="11.00" fill="#000000">varchar[255]</text>
<polygon fill="none" stroke="#000000" points="10,-213.2 10,-235.2 181,-235.2 181,-213.2 10,-213.2"/>
<text text-anchor="start" x="30" y="-220.3" font-family="Helvetica,sans-Serif" font-size="11.00" fill="#000000">procedure_type</text>
<polygon fill="none" stroke="#000000" points="181,-213.2 181,-235.2 248,-235.2 248,-213.2 181,-213.2"/>
<text text-anchor="start" x="184" y="-220.9" font-family="Helvetica,sans-Serif" font-size="11.00" fill="#000000">varchar[31]</text>
<polygon fill="none" stroke="#000000" points="10,-191.2 10,-213.2 181,-213.2 181,-191.2 10,-191.2"/>
<text text-anchor="start" x="30" y="-198.3" font-family="Helvetica,sans-Serif" font-size="11.00" fill="#000000">transport</text>
<polygon fill="none" stroke="#000000" points="181,-191.2 181,-213.2 248,-213.2 248,-191.2 181,-191.2"/>
<text text-anchor="start" x="184" y="-198.9" font-family="Helvetica,sans-Serif" font-size="11.00" fill="#000000">varchar[31]</text>
<polygon fill="none" stroke="#000000" points="10,-169.2 10,-191.2 181,-191.2 181,-169.2 10,-169.2"/>
<text text-anchor="start" x="30" y="-176.3" font-family="Helvetica,sans-Serif" font-size="11.00" fill="#000000">date_end</text>
<polygon fill="none" stroke="#000000" points="181,-169.2 181,-191.2 248,-191.2 248,-169.2 181,-169.2"/>
<text text-anchor="start" x="184" y="-176.9" font-family="Helvetica,sans-Serif" font-size="11.00" fill="#000000">datetime[19]</text>
<polygon fill="none" stroke="#000000" points="10,-147.2 10,-169.2 181,-169.2 181,-147.2 10,-147.2"/>
<text text-anchor="start" x="30" y="-154.3" font-family="Helvetica,sans-Serif" font-size="11.00" fill="#000000">reason_code</text>
<polygon fill="none" stroke="#000000" points="181,-147.2 181,-169.2 248,-169.2 248,-147.2 181,-147.2"/>
<text text-anchor="start" x="184" y="-154.9" font-family="Helvetica,sans-Serif" font-size="11.00" fill="#000000">varchar[31]</text>
<polygon fill="none" stroke="#000000" points="10,-125.2 10,-147.2 181,-147.2 181,-125.2 10,-125.2"/>
<text text-anchor="start" x="30" y="-132.3" font-family="Helvetica,sans-Serif" font-size="11.00" fill="#000000">reason_description</text>
<polygon fill="none" stroke="#000000" points="181,-125.2 181,-147.2 248,-147.2 248,-125.2 181,-125.2"/>
<text text-anchor="start" x="184" y="-132.9" font-family="Helvetica,sans-Serif" font-size="11.00" fill="#000000">text[65535]</text>
<polygon fill="none" stroke="#000000" points="10,-103.2 10,-125.2 181,-125.2 181,-103.2 10,-103.2"/>
<text text-anchor="start" x="30" y="-110.3" font-family="Helvetica,sans-Serif" font-size="11.00" fill="#000000">reason_date_low</text>
<polygon fill="none" stroke="#000000" points="181,-103.2 181,-125.2 248,-125.2 248,-103.2 181,-103.2"/>
<text text-anchor="start" x="184" y="-110.9" font-family="Helvetica,sans-Serif" font-size="11.00" fill="#000000">datetime[19]</text>
<polygon fill="none" stroke="#000000" points="10,-81.2 10,-103.2 181,-103.2 181,-81.2 10,-81.2"/>
<text text-anchor="start" x="30" y="-88.3" font-family="Helvetica,sans-Serif" font-size="11.00" fill="#000000">reason_date_high</text>
<polygon fill="none" stroke="#000000" points="181,-81.2 181,-103.2 248,-103.2 248,-81.2 181,-81.2"/>
<text text-anchor="start" x="184" y="-88.9" font-family="Helvetica,sans-Serif" font-size="11.00" fill="#000000">datetime[19]</text>
<polygon fill="none" stroke="#000000" points="10,-59.2 10,-81.2 181,-81.2 181,-59.2 10,-59.2"/>
<text text-anchor="start" x="30" y="-66.3" font-family="Helvetica,sans-Serif" font-size="11.00" fill="#000000">reason_status</text>
<polygon fill="none" stroke="#000000" points="181,-59.2 181,-81.2 248,-81.2 248,-59.2 181,-59.2"/>
<text text-anchor="start" x="184" y="-66.9" font-family="Helvetica,sans-Serif" font-size="11.00" fill="#000000">varchar[31]</text>
<polygon fill="#ffffff" stroke="transparent" points="10,-40.2 10,-59.2 100,-59.2 100,-40.2 10,-40.2"/>
<polygon fill="none" stroke="#000000" points="10,-40.2 10,-59.2 100,-59.2 100,-40.2 10,-40.2"/>
<text text-anchor="start" x="13" y="-46.3" font-family="Helvetica,sans-Serif" font-size="11.00" fill="#000000">&lt; 0</text>
<polygon fill="#ffffff" stroke="transparent" points="100,-40.2 100,-59.2 181,-59.2 181,-40.2 100,-40.2"/>
<polygon fill="none" stroke="#000000" points="100,-40.2 100,-59.2 181,-59.2 181,-40.2 100,-40.2"/>
<text text-anchor="start" x="171.8862" y="-46.3" font-family="Helvetica,sans-Serif" font-size="11.00" fill="#000000"> &#160;</text>
<polygon fill="#ffffff" stroke="transparent" points="181,-40.2 181,-59.2 248,-59.2 248,-40.2 181,-40.2"/>
<polygon fill="none" stroke="#000000" points="181,-40.2 181,-59.2 248,-59.2 248,-40.2 181,-40.2"/>
<text text-anchor="start" x="229.4053" y="-46.3" font-family="Helvetica,sans-Serif" font-size="11.00" fill="#000000">0 &gt;</text>
<polygon fill="none" stroke="#000000" stroke-width="2" points="9,-39.2 9,-435.2 249,-435.2 249,-39.2 9,-39.2"/>
</a>
</g>
</g>
</g>
</svg>
