<svg xmlns="http://www.w3.org/2000/svg" xmlns:xlink="http://www.w3.org/1999/xlink" width="500" zoomAndPan="magnify" viewBox="0 0 375 374.999991" height="500" preserveAspectRatio="xMidYMid meet" version="1.0"><defs><clipPath id="b0c201b7cc"><path d="M 66.082031 90 L 283 90 L 283 308 L 66.082031 308 Z M 66.082031 90 " clip-rule="nonzero"/></clipPath><clipPath id="ea8c318def"><path d="M 83 67.296875 L 309 67.296875 L 309 293 L 83 293 Z M 83 67.296875 " clip-rule="nonzero"/></clipPath></defs><g clip-path="url(#b0c201b7cc)"><path fill="#57c9b2" d="M 128.980469 234.761719 L 74.746094 234.761719 C 69.960938 234.761719 66.082031 230.878906 66.082031 226.09375 L 66.082031 172.285156 C 66.082031 167.5 69.960938 163.617188 74.746094 163.617188 L 128.980469 163.617188 C 133.769531 163.617188 137.644531 159.742188 137.644531 154.957031 L 137.644531 99.449219 C 137.644531 94.664062 141.523438 90.785156 146.308594 90.785156 L 202.664062 90.785156 C 207.449219 90.785156 211.328125 94.664062 211.328125 99.449219 L 211.328125 154.957031 C 211.328125 159.742188 215.207031 163.617188 219.992188 163.617188 L 274.226562 163.617188 C 279.011719 163.617188 282.890625 167.5 282.890625 172.285156 L 282.890625 226.09375 C 282.890625 230.878906 279.011719 234.761719 274.226562 234.761719 L 219.992188 234.761719 C 215.207031 234.761719 211.328125 238.640625 211.328125 243.421875 L 211.328125 298.929688 C 211.328125 303.714844 207.449219 307.59375 202.664062 307.59375 L 146.308594 307.59375 C 141.523438 307.59375 137.644531 303.714844 137.644531 298.929688 L 137.644531 243.421875 C 137.644531 238.640625 133.769531 234.761719 128.980469 234.761719 " fill-opacity="1" fill-rule="nonzero"/></g><g clip-path="url(#ea8c318def)"><path fill="#134d4e" d="M 308.90625 144.542969 L 308.90625 215.679688 C 308.90625 218.074219 306.964844 220.015625 304.570312 220.015625 L 237.339844 220.015625 L 237.339844 288.515625 C 237.339844 290.914062 235.398438 292.851562 233.003906 292.851562 L 159.324219 292.851562 C 156.929688 292.851562 154.988281 290.914062 154.988281 288.515625 L 154.988281 220.015625 L 87.761719 220.015625 C 85.367188 220.015625 83.425781 218.074219 83.425781 215.679688 L 83.425781 144.542969 C 83.425781 142.148438 85.367188 140.207031 87.761719 140.207031 L 154.988281 140.207031 L 154.988281 71.707031 C 154.988281 69.3125 156.929688 67.371094 159.324219 67.371094 L 233.003906 67.371094 C 235.398438 67.371094 237.339844 69.3125 237.339844 71.707031 L 237.339844 121.476562 C 237.339844 123.871094 235.398438 125.8125 233.003906 125.8125 C 230.609375 125.8125 228.667969 123.871094 228.667969 121.476562 L 228.667969 76.042969 L 163.664062 76.042969 L 163.664062 144.542969 C 163.664062 146.9375 161.722656 148.878906 159.324219 148.878906 L 92.097656 148.878906 L 92.097656 211.34375 L 159.324219 211.34375 C 161.722656 211.34375 163.664062 213.285156 163.664062 215.679688 L 163.664062 284.179688 L 228.667969 284.179688 L 228.667969 215.679688 C 228.667969 213.285156 230.609375 211.34375 233.003906 211.34375 L 300.234375 211.34375 L 300.234375 148.878906 L 233.003906 148.878906 C 188.070312 148.878906 171.585938 184.929688 167.601562 195.976562 C 166.964844 197.746094 165.300781 198.84375 163.523438 198.84375 C 163.035156 198.84375 162.539062 198.765625 162.054688 198.589844 C 159.800781 197.777344 158.632812 195.289062 159.445312 193.039062 C 161.78125 186.550781 164.863281 180.367188 168.601562 174.65625 C 172.859375 168.152344 177.882812 162.425781 183.527344 157.625 C 189.910156 152.199219 197.101562 147.972656 204.886719 145.0625 C 213.515625 141.839844 222.976562 140.207031 233.003906 140.207031 L 304.570312 140.207031 C 306.964844 140.207031 308.90625 142.148438 308.90625 144.542969 " fill-opacity="1" fill-rule="nonzero"/></g></svg>